<?xml version="1.0" standalone="no"?>
<!DOCTYPE svg PUBLIC "-//W3C//DTD SVG 20010904//EN"
 "http://www.w3.org/TR/2001/REC-SVG-20010904/DTD/svg10.dtd">
<svg version="1.0" xmlns="http://www.w3.org/2000/svg"
 width="248.000000pt" height="248.000000pt" viewBox="0 0 248.000000 248.000000"
 preserveAspectRatio="xMidYMid meet">
<metadata>
Created by potrace 1.10, written by Peter Selinger 2001-2011
</metadata>
<g transform="translate(0.000000,248.000000) scale(0.100000,-0.100000)"
fill="#000000" stroke="none">
<path d="M1052 2382 c-29 -30 -204 -150 -287 -198 -58 -32 -168 -104 -207
-134 -31 -24 -36 -51 -12 -74 26 -27 57 -18 150 42 49 32 130 82 179 112 50
29 125 79 168 111 l78 59 109 0 109 0 -31 -47 c-50 -76 -238 -253 -284 -267
-11 -3 -85 -13 -163 -21 -101 -10 -151 -19 -174 -33 l-32 -19 2 -84 c4 -161
14 -248 32 -270 16 -20 21 -21 91 -10 41 6 126 12 189 14 l114 4 -39 -33 c-21
-18 -56 -43 -76 -56 -21 -13 -101 -66 -178 -118 -178 -121 -272 -181 -336
-215 -106 -56 -147 -108 -112 -143 32 -32 93 0 466 247 136 90 252 165 259
168 6 2 36 -15 67 -39 44 -34 54 -47 49 -63 -13 -42 -58 -101 -146 -192 -106
-110 -307 -251 -502 -353 -144 -75 -167 -94 -163 -134 4 -35 35 -50 69 -32 13
7 78 41 144 75 322 168 587 388 676 560 l23 44 26 -31 c69 -83 106 -261 98
-465 -6 -128 -28 -207 -104 -364 -40 -84 -59 -110 -145 -197 l-100 -101 -57
63 c-57 62 -85 75 -110 50 -22 -22 -12 -61 28 -114 55 -73 98 -104 145 -104
35 0 47 9 142 103 136 133 203 246 274 457 69 207 37 540 -68 705 -29 45 -97
105 -164 144 -92 53 -91 52 -71 99 l17 42 225 0 c305 0 308 2 330 175 6 50 18
118 26 152 16 72 7 109 -28 122 -21 8 -122 4 -423 -14 l-110 -7 72 71 c71 70
155 186 174 240 13 37 -3 79 -36 91 -15 6 -98 10 -187 10 l-160 0 -26 -28z
m615 -489 c-3 -16 -11 -70 -18 -120 l-13 -93 -207 0 -208 0 -3 83 c-5 133 -12
124 100 132 53 5 151 11 217 15 66 4 124 8 129 8 5 1 6 -10 3 -25z m-557 -113
l0 -99 -32 -5 c-18 -3 -95 -7 -170 -10 l-138 -6 0 43 c0 23 -3 65 -6 94 l-7
51 79 7 c44 4 97 11 119 15 22 4 66 8 98 9 l57 1 0 -100z"/>
</g>
</svg>
