<?xml version="1.0" standalone="no"?>
<!DOCTYPE svg PUBLIC "-//W3C//DTD SVG 20010904//EN"
 "http://www.w3.org/TR/2001/REC-SVG-20010904/DTD/svg10.dtd">
<svg version="1.0" xmlns="http://www.w3.org/2000/svg"
 width="248.000000pt" height="248.000000pt" viewBox="0 0 248.000000 248.000000"
 preserveAspectRatio="xMidYMid meet">
<metadata>
Created by potrace 1.10, written by Peter Selinger 2001-2011
</metadata>
<g transform="translate(0.000000,248.000000) scale(0.100000,-0.100000)"
fill="#000000" stroke="none">
<path d="M1052 2382 c-29 -30 -204 -150 -287 -198 -58 -32 -168 -104 -207
-134 -31 -24 -36 -51 -12 -74 26 -27 57 -18 150 42 49 32 130 82 179 112 50
29 125 79 168 111 l78 59 109 0 109 0 -31 -47 c-33 -52 -112 -132 -221 -227
-74 -65 -85 -94 -43 -121 35 -23 59 -8 191 116 107 100 215 239 229 294 9 34
-10 74 -39 85 -15 6 -98 10 -187 10 l-160 0 -26 -28z"/>
</g>
</svg>
