<?xml version="1.0" standalone="no"?>
<!DOCTYPE svg PUBLIC "-//W3C//DTD SVG 20010904//EN"
 "http://www.w3.org/TR/2001/REC-SVG-20010904/DTD/svg10.dtd">
<svg version="1.0" xmlns="http://www.w3.org/2000/svg"
 width="248.000000pt" height="248.000000pt" viewBox="0 0 248.000000 248.000000"
 preserveAspectRatio="xMidYMid meet">
<metadata>
Created by potrace 1.10, written by Peter Selinger 2001-2011
</metadata>
<g transform="translate(0.000000,248.000000) scale(0.100000,-0.100000)"
fill="#000000" stroke="none">
<path d="M496 2378 c-13 -19 -16 -61 -16 -253 l0 -231 -112 -22 c-62 -12 -131
-24 -153 -28 -22 -3 -50 -13 -62 -20 -30 -19 -30 -59 0 -78 22 -15 80 -9 265
30 32 7 33 6 27 -22 -21 -92 -51 -191 -91 -298 -25 -67 -59 -155 -74 -196 -16
-41 -32 -88 -36 -105 -10 -43 -90 -238 -130 -317 -19 -37 -34 -76 -34 -86 0
-48 67 -58 98 -14 46 65 142 304 238 595 20 59 40 107 46 107 5 0 6 -6 1 -12
-13 -22 -23 -1279 -9 -1308 8 -18 19 -25 41 -25 57 0 57 -7 65 714 4 361 12
669 17 685 8 27 12 22 72 -100 102 -206 158 -266 205 -218 24 23 20 46 -16 95
-68 93 -263 517 -246 534 3 3 59 17 123 30 132 27 162 45 151 89 -9 37 -40 41
-150 17 -52 -12 -102 -21 -111 -21 -13 0 -15 30 -15 218 0 237 -5 262 -55 262
-13 0 -31 -10 -39 -22z"/>
<path d="M1530 2374 c-10 -11 -17 -65 -23 -173 -4 -86 -9 -161 -11 -167 -2 -5
-64 -16 -137 -23 -210 -19 -259 -36 -259 -86 0 -41 23 -49 99 -37 37 7 114 15
170 18 83 6 101 5 101 -7 -2 -33 -37 -180 -45 -187 -6 -5 -48 -14 -94 -21 -90
-12 -121 -29 -121 -66 0 -39 23 -48 105 -40 63 6 75 4 75 -8 0 -19 -59 -189
-69 -199 -4 -5 -70 -14 -148 -22 -160 -16 -197 -28 -201 -68 -5 -43 28 -58
113 -48 123 14 175 17 175 10 0 -15 -30 -80 -66 -141 -57 -97 -152 -214 -268
-329 -83 -82 -106 -111 -106 -132 0 -36 31 -54 69 -38 37 15 224 206 298 305
64 85 103 150 168 280 l40 80 125 12 c69 6 193 19 275 28 83 9 216 22 297 29
87 8 154 18 163 26 23 19 18 57 -10 76 -27 18 -105 14 -415 -21 -260 -29 -315
-35 -351 -35 l-37 0 32 102 c26 82 37 105 57 115 28 13 225 43 286 43 79 0
118 33 93 79 -20 38 -76 37 -338 -6 -31 -5 -33 -4 -28 18 3 13 12 57 20 98 8
40 18 77 23 82 11 11 120 26 273 39 149 12 196 24 211 52 17 32 -3 68 -38 68
-29 -1 -270 -24 -377 -36 l-59 -7 6 25 c4 13 9 80 12 149 5 94 3 130 -7 149
-16 30 -59 38 -78 14z"/>
</g>
</svg>
