<?xml version="1.0" standalone="no"?>
<!DOCTYPE svg PUBLIC "-//W3C//DTD SVG 20010904//EN"
 "http://www.w3.org/TR/2001/REC-SVG-20010904/DTD/svg10.dtd">
<svg version="1.0" xmlns="http://www.w3.org/2000/svg"
 width="248.000000pt" height="248.000000pt" viewBox="0 0 248.000000 248.000000"
 preserveAspectRatio="xMidYMid meet">
<metadata>
Created by potrace 1.10, written by Peter Selinger 2001-2011
</metadata>
<g transform="translate(0.000000,248.000000) scale(0.100000,-0.100000)"
fill="#000000" stroke="none">
<path d="M496 2378 c-13 -19 -16 -61 -16 -253 l0 -231 -112 -22 c-62 -12 -131
-24 -153 -28 -22 -3 -50 -13 -62 -20 -30 -19 -30 -59 0 -78 22 -15 80 -9 265
30 32 7 33 6 27 -22 -21 -92 -51 -191 -91 -298 -25 -67 -59 -155 -74 -196 -16
-41 -32 -88 -36 -105 -10 -43 -90 -238 -130 -317 -19 -37 -34 -76 -34 -86 0
-48 67 -58 98 -14 50 73 137 290 238 595 20 59 40 107 46 107 5 0 6 -6 1 -12
-13 -22 -23 -1279 -9 -1308 8 -18 19 -25 41 -25 57 0 57 -7 65 714 4 361 12
669 17 685 8 27 12 22 72 -100 102 -206 158 -266 205 -218 24 23 20 46 -16 95
-68 93 -263 517 -246 534 3 3 59 17 123 30 132 27 162 45 151 89 -9 37 -40 41
-150 17 -52 -12 -102 -21 -111 -21 -13 0 -15 30 -15 218 0 237 -5 262 -55 262
-13 0 -31 -10 -39 -22z"/>
<path d="M1885 2069 c-49 -4 -160 -17 -245 -28 -85 -11 -213 -25 -285 -31
-204 -18 -255 -34 -255 -85 0 -41 22 -49 103 -36 39 6 133 15 207 20 74 5 176
16 225 25 50 8 148 20 219 26 71 5 147 15 168 20 46 13 65 42 49 76 -12 27
-24 28 -186 13z"/>
</g>
</svg>
