<?xml version="1.0" standalone="no"?>
<!DOCTYPE svg PUBLIC "-//W3C//DTD SVG 20010904//EN"
 "http://www.w3.org/TR/2001/REC-SVG-20010904/DTD/svg10.dtd">
<svg version="1.0" xmlns="http://www.w3.org/2000/svg"
 width="248.000000pt" height="248.000000pt" viewBox="0 0 248.000000 248.000000"
 preserveAspectRatio="xMidYMid meet">
<metadata>
Created by potrace 1.10, written by Peter Selinger 2001-2011
</metadata>
<g transform="translate(0.000000,248.000000) scale(0.100000,-0.100000)"
fill="#000000" stroke="none">
<path d="M1944 2198 c-60 -40 -212 -125 -339 -188 -250 -125 -278 -147 -241
-189 11 -12 25 -21 33 -21 7 0 120 53 251 118 217 109 393 212 450 265 38 35
24 87 -23 87 -12 0 -71 -33 -131 -72z"/>
<path d="M1030 2173 c-14 -2 -43 -8 -65 -13 -74 -17 -409 -72 -493 -80 -91
-10 -112 -20 -112 -55 0 -41 22 -48 123 -41 89 6 370 50 517 81 39 8 84 15
100 15 33 0 60 23 60 50 0 43 -43 57 -130 43z"/>
<path d="M1100 1774 c-395 -59 -693 -111 -717 -127 -18 -12 -16 -47 5 -70 14
-16 17 -39 17 -156 -1 -279 -87 -659 -202 -886 -41 -80 -45 -103 -22 -126 49
-49 76 -15 163 198 44 108 119 383 132 484 4 30 10 61 14 69 5 9 38 19 87 26
43 7 143 22 223 35 80 13 171 22 202 21 50 -2 59 1 72 20 30 48 130 363 143
456 9 56 -20 70 -117 56z m0 -110 c0 -34 -76 -275 -93 -297 -8 -9 -64 -22
-152 -36 -77 -12 -179 -28 -226 -36 -141 -24 -128 -38 -128 129 l-1 144 27 11
c16 6 107 22 203 36 96 14 209 32 250 39 85 16 120 19 120 10z"/>
</g>
</svg>
