<?xml version="1.0" standalone="no"?>
<!DOCTYPE svg PUBLIC "-//W3C//DTD SVG 20010904//EN"
 "http://www.w3.org/TR/2001/REC-SVG-20010904/DTD/svg10.dtd">
<svg version="1.0" xmlns="http://www.w3.org/2000/svg"
 width="248.000000pt" height="248.000000pt" viewBox="0 0 248.000000 248.000000"
 preserveAspectRatio="xMidYMid meet">
<metadata>
Created by potrace 1.10, written by Peter Selinger 2001-2011
</metadata>
<g transform="translate(0.000000,248.000000) scale(0.100000,-0.100000)"
fill="#000000" stroke="none">
<path d="M1177 2319 c-9 -5 -32 -33 -51 -62 -44 -69 -93 -127 -342 -406 -202
-226 -416 -437 -495 -487 -102 -64 -133 -116 -88 -148 25 -17 41 -13 89 23 19
14 49 35 68 47 109 67 522 496 771 802 l84 102 25 -22 c13 -13 50 -57 82 -98
137 -177 391 -405 590 -530 107 -67 328 -180 353 -180 34 0 57 19 57 49 0 33
-8 40 -70 66 -63 26 -253 131 -325 179 -190 126 -402 322 -534 495 -68 87
-147 166 -176 175 -11 3 -28 1 -38 -5z"/>
<path d="M1531 1556 c-25 -29 -29 -143 -30 -730 -1 -427 2 -592 10 -602 17
-21 53 -17 75 7 18 20 19 50 24 653 3 416 2 640 -5 656 -12 30 -55 39 -74 16z"/>
<path d="M830 1495 c-11 -13 -13 -56 -11 -193 3 -194 -21 -414 -59 -549 -37
-135 -111 -302 -156 -356 -65 -78 13 -136 81 -61 55 60 160 299 185 422 59
284 78 636 39 717 -17 35 -58 45 -79 20z"/>
</g>
</svg>
