<?xml version="1.0" standalone="no"?>
<!DOCTYPE svg PUBLIC "-//W3C//DTD SVG 20010904//EN"
 "http://www.w3.org/TR/2001/REC-SVG-20010904/DTD/svg10.dtd">
<svg version="1.0" xmlns="http://www.w3.org/2000/svg"
 width="248.000000pt" height="248.000000pt" viewBox="0 0 248.000000 248.000000"
 preserveAspectRatio="xMidYMid meet">
<metadata>
Created by potrace 1.10, written by Peter Selinger 2001-2011
</metadata>
<g transform="translate(0.000000,248.000000) scale(0.100000,-0.100000)"
fill="#000000" stroke="none">
<path d="M1162 2308 c-6 -7 -26 -36 -45 -65 -45 -67 -81 -109 -333 -392 -202
-226 -416 -437 -495 -487 -102 -64 -133 -116 -88 -148 25 -17 41 -13 89 23 19
14 49 35 68 47 109 67 529 503 769 799 109 136 134 190 101 223 -16 16 -53 15
-66 0z"/>
</g>
</svg>
