<?xml version="1.0" standalone="no"?>
<!DOCTYPE svg PUBLIC "-//W3C//DTD SVG 20010904//EN"
 "http://www.w3.org/TR/2001/REC-SVG-20010904/DTD/svg10.dtd">
<svg version="1.0" xmlns="http://www.w3.org/2000/svg"
 width="248.000000pt" height="248.000000pt" viewBox="0 0 248.000000 248.000000"
 preserveAspectRatio="xMidYMid meet">
<metadata>
Created by potrace 1.10, written by Peter Selinger 2001-2011
</metadata>
<g transform="translate(0.000000,248.000000) scale(0.100000,-0.100000)"
fill="#000000" stroke="none">
<path d="M1170 2175 c-16 -20 -3 -662 14 -697 8 -16 20 -23 41 -23 56 0 59 19
49 376 -8 290 -11 319 -28 338 -22 24 -58 27 -76 6z"/>
<path d="M635 1884 c-60 -7 -181 -20 -267 -29 -177 -17 -200 -23 -224 -60 -15
-23 -16 -50 -10 -263 3 -130 10 -292 15 -360 11 -161 16 -168 134 -165 320 10
467 21 491 37 54 35 54 35 62 421 6 325 5 364 -10 393 -9 18 -22 32 -29 32 -6
0 -21 2 -32 4 -11 2 -69 -2 -130 -10z m95 -212 c0 -66 -3 -213 -7 -329 l-6
-210 -181 -7 c-100 -3 -202 -9 -227 -12 l-46 -6 -7 73 c-3 41 -9 183 -12 317
-7 233 -6 242 12 242 25 0 201 18 339 34 61 7 116 14 123 15 9 1 12 -29 12
-117z"/>
</g>
</svg>
