<?xml version="1.0" standalone="no"?>
<!DOCTYPE svg PUBLIC "-//W3C//DTD SVG 20010904//EN"
 "http://www.w3.org/TR/2001/REC-SVG-20010904/DTD/svg10.dtd">
<svg version="1.0" xmlns="http://www.w3.org/2000/svg"
 width="248.000000pt" height="248.000000pt" viewBox="0 0 248.000000 248.000000"
 preserveAspectRatio="xMidYMid meet">
<metadata>
Created by potrace 1.10, written by Peter Selinger 2001-2011
</metadata>
<g transform="translate(0.000000,248.000000) scale(0.100000,-0.100000)"
fill="#000000" stroke="none">
<path d="M1300 2264 c-58 -7 -143 -15 -190 -19 -77 -5 -176 -16 -300 -31 -78
-10 -100 -35 -80 -90 12 -29 34 -200 46 -344 4 -47 10 -95 15 -107 10 -28 76
-48 112 -34 14 6 49 12 79 15 29 4 112 13 185 21 73 8 194 18 270 21 121 6
140 5 152 -10 23 -27 59 -19 102 24 27 27 39 48 39 67 0 16 21 78 46 138 113
271 116 285 92 318 -7 9 -40 23 -73 32 -72 19 -331 18 -495 -1z m460 -107 c0
-7 -23 -67 -51 -133 -28 -65 -59 -139 -69 -164 l-19 -45 -103 -7 c-127 -9
-289 -24 -473 -43 -77 -8 -145 -15 -151 -15 -6 0 -16 55 -23 138 -8 75 -17
156 -21 179 -9 50 -14 48 156 64 65 6 166 16 224 23 149 19 530 20 530 3z"/>
<path d="M1765 1543 c-44 -2 -159 -10 -255 -18 -96 -9 -260 -22 -365 -30 -104
-8 -219 -19 -255 -24 -36 -5 -110 -15 -165 -21 -95 -10 -294 -36 -361 -46 -39
-6 -57 -25 -52 -56 5 -35 42 -47 118 -38 175 21 346 42 450 55 170 21 198 23
204 18 17 -17 -129 -248 -193 -305 -46 -41 -50 -59 -21 -88 25 -25 58 -25 190
1 99 19 460 69 501 69 13 0 19 -7 19 -21 0 -36 -69 -304 -111 -431 -62 -187
-176 -402 -245 -458 -18 -15 -59 -2 -134 44 -76 46 -93 50 -120 28 -50 -40 0
-90 164 -165 78 -36 100 -34 150 10 39 35 125 141 126 155 0 3 16 35 36 70 87
153 173 410 228 686 37 185 25 200 -147 182 -87 -9 -291 -35 -436 -57 -49 -7
-49 -9 -1 62 15 22 48 82 74 133 26 51 52 95 59 97 16 6 222 23 412 36 83 5
254 9 380 9 251 0 275 5 275 55 0 49 -26 55 -245 53 -110 -1 -236 -3 -280 -5z"/>
</g>
</svg>
