<?xml version="1.0" standalone="no"?>
<!DOCTYPE svg PUBLIC "-//W3C//DTD SVG 20010904//EN"
 "http://www.w3.org/TR/2001/REC-SVG-20010904/DTD/svg10.dtd">
<svg version="1.0" xmlns="http://www.w3.org/2000/svg"
 width="248.000000pt" height="248.000000pt" viewBox="0 0 248.000000 248.000000"
 preserveAspectRatio="xMidYMid meet">
<metadata>
Created by potrace 1.10, written by Peter Selinger 2001-2011
</metadata>
<g transform="translate(0.000000,248.000000) scale(0.100000,-0.100000)"
fill="#000000" stroke="none">
<path d="M635 1884 c-60 -7 -181 -20 -267 -29 -177 -17 -200 -23 -224 -60 -15
-23 -16 -50 -10 -263 11 -383 19 -479 44 -505 18 -17 26 -19 49 -11 l28 10 -1
99 c0 55 -4 216 -9 358 l-8 257 24 0 c40 1 378 36 438 46 l34 5 -7 -338 c-7
-369 -5 -385 46 -391 53 -6 56 9 63 398 7 311 6 360 -8 393 -9 20 -22 37 -29
37 -7 0 -22 2 -33 4 -11 2 -69 -2 -130 -10z"/>
</g>
</svg>
