<?xml version="1.0" standalone="no"?>
<!DOCTYPE svg PUBLIC "-//W3C//DTD SVG 20010904//EN"
 "http://www.w3.org/TR/2001/REC-SVG-20010904/DTD/svg10.dtd">
<svg version="1.0" xmlns="http://www.w3.org/2000/svg"
 width="248.000000pt" height="248.000000pt" viewBox="0 0 248.000000 248.000000"
 preserveAspectRatio="xMidYMid meet">
<metadata>
Created by potrace 1.10, written by Peter Selinger 2001-2011
</metadata>
<g transform="translate(0.000000,248.000000) scale(0.100000,-0.100000)"
fill="#000000" stroke="none">
<path d="M1669 2266 c-2 -3 -69 -9 -149 -15 -249 -19 -311 -29 -338 -54 l-24
-22 7 -335 c8 -377 10 -390 73 -411 27 -9 102 -10 285 -5 260 7 403 20 424 38
26 21 35 91 44 368 13 354 11 386 -25 417 -25 22 -35 23 -160 23 -73 0 -135
-2 -137 -4z m219 -245 c-1 -77 -5 -142 -8 -145 -3 -3 -118 -8 -255 -11 -138
-4 -274 -10 -302 -14 l-53 -8 0 137 0 138 28 6 c15 3 94 10 177 16 82 7 152
13 154 16 2 2 63 4 134 4 l129 0 -4 -139z m-8 -353 c0 -51 -5 -100 -10 -108
-10 -16 -185 -28 -447 -29 l-143 -1 0 105 c0 58 1 106 3 107 3 2 344 14 480
16 l117 2 0 -92z"/>
<path d="M635 1884 c-60 -7 -181 -20 -267 -29 -177 -17 -200 -23 -224 -60 -15
-23 -16 -50 -10 -263 11 -385 19 -479 45 -505 25 -25 29 -25 296 -14 271 11
283 13 321 51 l32 32 7 346 c4 191 5 362 1 381 -14 73 -41 81 -201 61z m95
-212 c0 -66 -3 -213 -7 -329 l-6 -210 -181 -7 c-100 -3 -202 -9 -227 -12 l-46
-6 -7 73 c-3 41 -9 183 -12 317 -7 233 -6 242 12 242 25 0 201 18 339 34 61 7
116 14 123 15 9 1 12 -29 12 -117z"/>
<path d="M1570 1210 c-131 -7 -195 -12 -478 -40 -45 -4 -89 -13 -97 -20 -17
-14 -19 -45 -6 -138 6 -37 17 -132 26 -212 57 -521 64 -572 81 -592 19 -21 54
-24 72 -6 16 16 15 46 -7 238 -11 91 -27 235 -36 320 -9 85 -20 185 -26 222
-5 37 -9 71 -9 76 0 5 37 12 83 16 45 3 129 10 187 16 176 16 710 25 710 12 0
-6 -4 -33 -10 -59 -10 -51 -22 -153 -45 -398 -12 -131 -21 -210 -40 -357 -9
-69 28 -113 74 -89 29 16 22 -37 100 725 6 54 15 115 21 135 5 20 10 55 10 79
0 40 -2 44 -37 59 -45 19 -333 26 -573 13z"/>
</g>
</svg>
