<?xml version="1.0" standalone="no"?>
<!DOCTYPE svg PUBLIC "-//W3C//DTD SVG 20010904//EN"
 "http://www.w3.org/TR/2001/REC-SVG-20010904/DTD/svg10.dtd">
<svg version="1.0" xmlns="http://www.w3.org/2000/svg"
 width="248.000000pt" height="248.000000pt" viewBox="0 0 248.000000 248.000000"
 preserveAspectRatio="xMidYMid meet">
<metadata>
Created by potrace 1.10, written by Peter Selinger 2001-2011
</metadata>
<g transform="translate(0.000000,248.000000) scale(0.100000,-0.100000)"
fill="#000000" stroke="none">
<path d="M1669 2266 c-2 -3 -69 -9 -149 -15 -249 -19 -311 -29 -338 -54 l-24
-22 7 -335 c5 -219 11 -344 19 -360 8 -18 19 -25 41 -25 45 0 55 30 55 167 l0
117 33 5 c17 3 153 8 301 12 l269 6 -6 -144 c-7 -154 -4 -168 40 -168 58 0 71
83 75 473 l3 299 -28 24 c-27 23 -35 24 -161 24 -73 0 -135 -2 -137 -4z m219
-245 c-1 -77 -5 -142 -8 -145 -3 -3 -118 -8 -255 -11 -138 -4 -274 -10 -302
-14 l-53 -8 0 137 0 138 28 6 c15 3 94 10 177 16 82 7 152 13 154 16 2 2 63 4
134 4 l129 0 -4 -139z"/>
<path d="M635 1884 c-60 -7 -181 -20 -267 -29 -177 -17 -200 -23 -224 -60 -15
-23 -16 -50 -10 -263 3 -130 10 -292 15 -360 11 -161 16 -168 134 -165 320 10
467 21 491 37 54 35 54 35 62 421 6 325 5 364 -10 393 -9 18 -22 32 -29 32 -6
0 -21 2 -32 4 -11 2 -69 -2 -130 -10z m95 -212 c0 -66 -3 -213 -7 -329 l-6
-210 -181 -7 c-100 -3 -202 -9 -227 -12 l-46 -6 -7 73 c-3 41 -9 183 -12 317
-7 233 -6 242 12 242 25 0 201 18 339 34 61 7 116 14 123 15 9 1 12 -29 12
-117z"/>
</g>
</svg>
