<?xml version="1.0" standalone="no"?>
<!DOCTYPE svg PUBLIC "-//W3C//DTD SVG 20010904//EN"
 "http://www.w3.org/TR/2001/REC-SVG-20010904/DTD/svg10.dtd">
<svg version="1.0" xmlns="http://www.w3.org/2000/svg"
 width="248.000000pt" height="248.000000pt" viewBox="0 0 248.000000 248.000000"
 preserveAspectRatio="xMidYMid meet">
<metadata>
Created by potrace 1.10, written by Peter Selinger 2001-2011
</metadata>
<g transform="translate(0.000000,248.000000) scale(0.100000,-0.100000)"
fill="#000000" stroke="none">
<path d="M467 2283 c-21 -5 -39 -46 -31 -67 6 -17 169 -112 258 -151 64 -28
93 -29 110 -3 21 34 -4 70 -64 93 -50 20 -91 42 -208 112 -20 13 -39 22 -42
22 -3 -1 -13 -3 -23 -6z"/>
<path d="M790 1883 c-14 -2 -59 -10 -100 -19 -99 -19 -391 -54 -457 -54 -76 0
-113 -39 -80 -84 16 -21 25 -22 188 -8 149 13 165 15 374 49 167 27 195 38
195 79 0 38 -40 50 -120 37z"/>
<path d="M609 1475 c-31 -7 -117 -18 -190 -25 -74 -7 -140 -17 -146 -23 -18
-13 -16 -52 2 -67 20 -17 232 -8 355 15 81 14 110 30 110 60 0 20 -25 44 -50
48 -14 3 -50 -1 -81 -8z"/>
<path d="M625 1149 c-22 -5 -104 -15 -183 -23 -79 -8 -150 -20 -158 -27 -18
-15 -18 -53 1 -69 16 -14 205 -7 300 10 28 5 66 11 86 14 54 8 69 16 75 43 8
31 -20 63 -55 62 -14 -1 -44 -5 -66 -10z"/>
<path d="M622 799 c-174 -11 -282 -29 -339 -54 -58 -26 -72 -51 -49 -92 8 -16
20 -71 26 -123 35 -294 38 -314 56 -327 10 -7 23 -13 29 -13 24 0 48 28 48 56
0 38 -19 202 -33 279 -12 72 -13 145 -2 145 5 0 57 6 118 14 153 20 217 23
222 8 2 -7 -6 -54 -17 -104 -22 -102 -40 -186 -48 -234 -9 -57 52 -74 88 -24
11 14 28 72 39 135 34 182 49 259 56 282 8 27 -27 64 -58 62 -13 -1 -74 -5
-136 -10z"/>
</g>
</svg>
