<?xml version="1.0" standalone="no"?>
<!DOCTYPE svg PUBLIC "-//W3C//DTD SVG 20010904//EN"
 "http://www.w3.org/TR/2001/REC-SVG-20010904/DTD/svg10.dtd">
<svg version="1.0" xmlns="http://www.w3.org/2000/svg"
 width="248.000000pt" height="248.000000pt" viewBox="0 0 248.000000 248.000000"
 preserveAspectRatio="xMidYMid meet">
<metadata>
Created by potrace 1.10, written by Peter Selinger 2001-2011
</metadata>
<g transform="translate(0.000000,248.000000) scale(0.100000,-0.100000)"
fill="#000000" stroke="none">
<path d="M1926 2318 c-8 -13 -22 -54 -32 -91 -12 -51 -22 -71 -38 -77 -20 -8
-383 -44 -455 -45 l-35 0 -16 81 c-17 90 -31 114 -65 114 -43 0 -49 -21 -35
-121 6 -50 10 -92 7 -95 -2 -3 -44 -9 -93 -15 -99 -11 -134 -28 -134 -63 0
-44 20 -50 131 -37 55 6 104 9 108 6 5 -2 11 -34 13 -70 6 -74 19 -95 58 -95
44 0 51 18 44 107 l-7 80 49 6 c106 14 405 39 410 35 2 -3 -5 -31 -16 -63 -32
-94 -24 -135 27 -135 29 0 45 25 79 127 16 49 34 85 43 87 9 3 68 8 131 12 63
3 121 11 128 16 15 13 16 50 0 66 -8 8 -51 12 -129 12 l-116 0 15 74 c13 62
14 77 3 90 -19 23 -58 20 -75 -6z"/>
<path d="M467 2283 c-21 -5 -39 -46 -31 -67 6 -17 169 -112 258 -151 64 -28
93 -29 110 -3 21 34 -4 70 -64 93 -50 20 -91 42 -208 112 -20 13 -39 22 -42
22 -3 -1 -13 -3 -23 -6z"/>
<path d="M1602 1897 c-6 -6 -16 -50 -22 -97 -6 -47 -14 -88 -18 -91 -8 -7
-226 -39 -265 -39 -27 0 -27 0 -12 30 28 55 15 100 -30 100 -30 0 -47 -23 -85
-115 -37 -90 -44 -101 -152 -239 -43 -54 -78 -105 -78 -112 0 -18 29 -44 49
-44 27 0 60 29 126 114 32 42 63 72 68 67 9 -9 -8 -285 -25 -379 -9 -56 -8
-65 7 -82 10 -11 26 -20 36 -20 27 0 59 48 59 89 0 20 4 41 8 47 6 9 246 64
281 64 7 0 10 -20 9 -56 -3 -64 11 -81 55 -70 27 6 44 44 49 111 3 28 7 30 51
37 26 3 82 9 123 12 83 6 104 16 104 51 0 42 -21 48 -151 43 l-120 -5 3 51 c3
57 -6 52 148 80 98 19 118 33 104 73 -12 35 -40 39 -154 19 -64 -11 -87 -12
-92 -3 -11 17 -6 76 7 86 5 5 74 17 152 28 79 11 150 26 158 33 20 16 19 54
-1 71 -16 13 -47 11 -274 -17 l-45 -6 3 76 c2 50 -1 82 -8 92 -15 17 -54 18
-68 1z m-24 -341 c2 -21 0 -42 -5 -47 -4 -4 -66 -15 -138 -24 -71 -9 -134 -18
-140 -18 -9 -2 -22 92 -13 94 62 13 232 36 258 35 33 -1 35 -3 38 -40z m-10
-208 l-3 -51 -120 -23 c-66 -13 -131 -26 -145 -29 -25 -6 -25 -6 -22 50 5 66
5 67 137 85 50 6 97 13 105 15 49 9 51 7 48 -47z"/>
<path d="M790 1883 c-14 -2 -59 -10 -100 -19 -99 -19 -391 -54 -457 -54 -76 0
-113 -39 -80 -84 16 -21 25 -22 188 -8 149 13 165 15 374 49 167 27 195 38
195 79 0 38 -40 50 -120 37z"/>
<path d="M609 1475 c-31 -7 -117 -18 -190 -25 -74 -7 -140 -17 -146 -23 -18
-13 -16 -52 2 -67 20 -17 232 -8 355 15 81 14 110 30 110 60 0 20 -25 44 -50
48 -14 3 -50 -1 -81 -8z"/>
<path d="M625 1149 c-22 -5 -104 -15 -183 -23 -79 -8 -150 -20 -158 -27 -18
-15 -18 -53 1 -69 16 -14 205 -7 300 10 28 5 66 11 86 14 54 8 69 16 75 43 8
31 -20 63 -55 62 -14 -1 -44 -5 -66 -10z"/>
<path d="M622 799 c-174 -11 -282 -29 -339 -54 -58 -26 -72 -51 -49 -92 8 -16
20 -71 26 -123 9 -79 38 -310 40 -317 0 -1 9 -7 20 -13 27 -14 59 -4 69 23 7
18 24 23 132 39 208 30 207 29 240 206 34 185 48 256 55 279 8 27 -27 64 -58
62 -13 -1 -74 -5 -136 -10z m60 -206 c-12 -54 -25 -119 -28 -145 -4 -26 -12
-52 -18 -58 -13 -10 -182 -40 -228 -40 -25 0 -28 4 -28 33 0 17 -7 68 -15 112
-15 86 -19 175 -8 175 4 0 61 7 128 15 156 19 198 22 209 13 6 -4 1 -47 -12
-105z"/>
</g>
</svg>
