<?xml version="1.0" standalone="no"?>
<!DOCTYPE svg PUBLIC "-//W3C//DTD SVG 20010904//EN"
 "http://www.w3.org/TR/2001/REC-SVG-20010904/DTD/svg10.dtd">
<svg version="1.0" xmlns="http://www.w3.org/2000/svg"
 width="248.000000pt" height="248.000000pt" viewBox="0 0 248.000000 248.000000"
 preserveAspectRatio="xMidYMid meet">
<metadata>
Created by potrace 1.10, written by Peter Selinger 2001-2011
</metadata>
<g transform="translate(0.000000,248.000000) scale(0.100000,-0.100000)"
fill="#000000" stroke="none">
<path d="M1200 2325 c-14 -17 -15 -282 0 -319 20 -54 85 -40 96 20 12 65 -1
261 -20 289 -18 28 -57 33 -76 10z"/>
<path d="M450 1976 c-9 -12 -9 -40 -1 -122 6 -59 11 -135 11 -169 0 -39 6 -69
16 -83 21 -30 59 -29 80 3 14 22 15 42 9 138 -12 193 -30 247 -80 247 -13 0
-28 -7 -35 -14z"/>
</g>
</svg>
