<?xml version="1.0" standalone="no"?>
<!DOCTYPE svg PUBLIC "-//W3C//DTD SVG 20010904//EN"
 "http://www.w3.org/TR/2001/REC-SVG-20010904/DTD/svg10.dtd">
<svg version="1.0" xmlns="http://www.w3.org/2000/svg"
 width="248.000000pt" height="248.000000pt" viewBox="0 0 248.000000 248.000000"
 preserveAspectRatio="xMidYMid meet">
<metadata>
Created by potrace 1.10, written by Peter Selinger 2001-2011
</metadata>
<g transform="translate(0.000000,248.000000) scale(0.100000,-0.100000)"
fill="#000000" stroke="none">
<path d="M1200 2325 c-8 -10 -12 -55 -11 -143 l2 -129 -113 -7 c-62 -4 -196
-12 -298 -17 -335 -17 -347 -21 -336 -114 3 -27 9 -104 12 -170 4 -76 12 -128
20 -142 20 -31 59 -30 80 2 15 23 16 41 7 158 -5 73 -6 136 -2 141 5 5 86 13
181 17 294 13 757 39 888 49 242 18 460 24 460 12 0 -6 -4 -13 -9 -16 -5 -3
-27 -37 -50 -75 -23 -39 -68 -97 -101 -130 -60 -61 -73 -94 -48 -119 39 -39
131 34 226 178 31 47 71 104 89 128 39 51 44 99 13 127 -30 27 -122 29 -420
10 -146 -9 -315 -19 -376 -22 l-111 -6 -5 116 c-4 85 -10 123 -22 142 -19 28
-57 33 -76 10z"/>
</g>
</svg>
