<?xml version="1.0" standalone="no"?>
<!DOCTYPE svg PUBLIC "-//W3C//DTD SVG 20010904//EN"
 "http://www.w3.org/TR/2001/REC-SVG-20010904/DTD/svg10.dtd">
<svg version="1.0" xmlns="http://www.w3.org/2000/svg"
 width="248.000000pt" height="248.000000pt" viewBox="0 0 248.000000 248.000000"
 preserveAspectRatio="xMidYMid meet">
<metadata>
Created by potrace 1.10, written by Peter Selinger 2001-2011
</metadata>
<g transform="translate(0.000000,248.000000) scale(0.100000,-0.100000)"
fill="#000000" stroke="none">
<path d="M1200 2325 c-8 -10 -12 -55 -11 -143 l2 -129 -113 -7 c-62 -4 -196
-12 -298 -17 -335 -17 -347 -21 -336 -114 3 -27 9 -104 12 -170 4 -76 12 -128
20 -142 20 -31 59 -30 80 2 15 23 16 41 7 158 -5 73 -6 136 -2 141 5 5 86 13
181 17 294 13 757 39 888 49 242 18 460 24 460 12 0 -6 -4 -13 -9 -16 -5 -3
-27 -37 -50 -75 -23 -39 -68 -97 -101 -130 -60 -61 -73 -94 -48 -119 39 -39
131 34 226 178 31 47 71 104 89 128 39 51 44 99 13 127 -30 27 -122 29 -420
10 -146 -9 -315 -19 -376 -22 l-111 -6 -5 116 c-4 85 -10 123 -22 142 -19 28
-57 33 -76 10z"/>
<path d="M987 1764 c-12 -15 -45 -52 -73 -83 -27 -31 -68 -80 -89 -110 -22
-30 -59 -72 -82 -94 -44 -41 -56 -80 -31 -105 38 -38 95 5 221 165 45 57 97
122 115 144 17 22 32 51 32 63 0 50 -58 63 -93 20z"/>
<path d="M1472 1768 c-20 -20 -13 -61 16 -94 23 -27 240 -175 311 -213 49 -27
96 44 54 81 -10 8 -79 56 -153 106 -74 49 -144 99 -154 111 -21 23 -56 27 -74
9z"/>
<path d="M1144 1538 c-5 -7 -17 -29 -27 -48 -30 -59 -287 -312 -497 -490 -47
-39 -110 -93 -140 -119 -30 -26 -101 -84 -157 -129 -79 -64 -103 -89 -103
-107 0 -28 33 -55 59 -48 26 7 191 137 360 283 78 69 167 145 197 170 30 25
61 55 69 67 9 13 42 43 73 69 31 25 93 85 136 133 44 47 83 87 87 89 4 2 32
-13 61 -32 29 -20 57 -36 61 -36 5 0 27 -13 50 -29 23 -15 103 -68 178 -117
75 -49 198 -129 274 -179 75 -49 158 -103 183 -119 26 -16 71 -45 101 -65 188
-125 223 -140 251 -107 36 44 18 58 -450 361 -344 223 -456 295 -485 315 -16
12 -61 39 -100 62 -38 22 -81 51 -96 64 -27 26 -71 32 -85 12z"/>
<path d="M801 894 l-24 -21 12 -124 c7 -68 17 -148 22 -178 5 -29 11 -104 15
-165 6 -134 20 -204 43 -215 15 -8 458 -24 677 -26 132 0 127 -7 178 260 22
119 47 405 38 440 -15 55 -18 55 -497 53 -430 -3 -440 -3 -464 -24z m859 -96
c-1 -56 -33 -320 -51 -414 l-22 -117 -116 7 c-64 3 -208 9 -321 13 l-206 6
-13 131 c-14 151 -27 272 -36 336 l-6 45 385 3 c314 3 386 1 386 -10z"/>
</g>
</svg>
