<?xml version="1.0" standalone="no"?>
<!DOCTYPE svg PUBLIC "-//W3C//DTD SVG 20010904//EN"
 "http://www.w3.org/TR/2001/REC-SVG-20010904/DTD/svg10.dtd">
<svg version="1.0" xmlns="http://www.w3.org/2000/svg"
 width="248.000000pt" height="248.000000pt" viewBox="0 0 248.000000 248.000000"
 preserveAspectRatio="xMidYMid meet">
<metadata>
Created by potrace 1.10, written by Peter Selinger 2001-2011
</metadata>
<g transform="translate(0.000000,248.000000) scale(0.100000,-0.100000)"
fill="#000000" stroke="none">
<path d="M1159 2373 c-10 -11 -15 -55 -17 -148 l-4 -132 -121 -11 c-67 -7
-216 -19 -332 -27 -399 -30 -409 -32 -403 -84 5 -45 40 -53 180 -41 68 6 213
17 323 25 110 8 224 18 253 21 33 4 52 3 52 -3 0 -13 -69 -77 -102 -94 -28
-15 -232 -185 -271 -227 -49 -52 -38 -67 97 -136 66 -34 121 -67 123 -73 3 -7
-6 -23 -19 -35 -74 -71 -231 -212 -280 -253 -41 -33 -58 -53 -58 -70 0 -31 25
-55 58 -55 46 0 537 97 597 119 17 6 120 33 230 60 l200 49 35 -27 c19 -15 54
-42 78 -61 36 -29 46 -32 70 -24 20 7 28 17 30 41 3 28 -4 38 -65 88 -37 31
-93 74 -124 95 -30 21 -79 59 -109 84 -55 47 -94 58 -118 34 -24 -24 -12 -55
39 -103 28 -26 49 -48 47 -50 -2 -2 -55 -16 -118 -31 -159 -37 -210 -50 -320
-79 -101 -26 -279 -59 -286 -52 -10 10 273 256 610 531 97 79 119 112 99 145
-6 9 -21 17 -35 19 -25 3 -86 -43 -349 -265 -54 -46 -103 -83 -110 -83 -11 0
-199 98 -199 105 0 5 192 159 221 177 14 9 68 58 119 109 l94 93 151 8 c82 4
204 12 270 18 66 5 201 15 300 21 204 13 230 20 230 64 0 52 -29 58 -222 45
-93 -5 -181 -13 -198 -15 -16 -3 -113 -10 -215 -15 -102 -5 -221 -12 -265 -16
l-80 -6 3 117 c3 93 0 121 -13 141 -18 28 -56 32 -76 7z"/>
<path d="M1450 960 c-74 -5 -193 -16 -265 -25 -71 -9 -164 -20 -205 -25 -41
-5 -123 -12 -183 -16 -100 -6 -109 -8 -128 -33 -20 -24 -21 -33 -14 -146 4
-66 10 -210 14 -320 4 -122 12 -209 19 -222 15 -28 45 -37 73 -22 l22 11 -8
247 c-4 135 -8 275 -9 311 l-1 65 30 2 c76 6 260 25 360 38 112 15 395 35 494
35 l54 0 -6 -257 c-3 -143 -11 -290 -18 -330 -12 -67 -12 -74 6 -93 22 -25 36
-25 64 -3 38 31 54 163 55 448 1 138 -2 262 -7 277 -16 59 -102 73 -347 58z"/>
</g>
</svg>
