<?xml version="1.0" standalone="no"?>
<!DOCTYPE svg PUBLIC "-//W3C//DTD SVG 20010904//EN"
 "http://www.w3.org/TR/2001/REC-SVG-20010904/DTD/svg10.dtd">
<svg version="1.0" xmlns="http://www.w3.org/2000/svg"
 width="248.000000pt" height="248.000000pt" viewBox="0 0 248.000000 248.000000"
 preserveAspectRatio="xMidYMid meet">
<metadata>
Created by potrace 1.10, written by Peter Selinger 2001-2011
</metadata>
<g transform="translate(0.000000,248.000000) scale(0.100000,-0.100000)"
fill="#000000" stroke="none">
<path d="M1159 2373 c-10 -11 -15 -55 -17 -148 l-4 -132 -121 -11 c-67 -7
-216 -19 -332 -27 -399 -30 -409 -32 -403 -84 5 -45 40 -53 180 -41 68 6 213
17 323 25 110 8 224 18 253 21 33 4 52 3 52 -3 0 -13 -69 -77 -102 -94 -28
-15 -232 -185 -271 -227 -34 -36 -33 -71 3 -89 14 -6 86 -44 159 -82 74 -39
145 -71 157 -71 29 0 46 23 42 57 -3 24 -17 36 -115 88 -61 33 -114 63 -118
66 -5 6 164 148 216 181 14 9 68 58 119 109 l94 93 151 8 c82 4 204 12 270 18
66 5 201 15 300 21 204 13 230 20 230 64 0 52 -29 58 -222 45 -93 -5 -181 -13
-198 -15 -16 -3 -113 -10 -215 -15 -102 -5 -221 -12 -265 -16 l-80 -6 3 117
c3 93 0 121 -13 141 -18 28 -56 32 -76 7z"/>
</g>
</svg>
