<?xml version="1.0" standalone="no"?>
<!DOCTYPE svg PUBLIC "-//W3C//DTD SVG 20010904//EN"
 "http://www.w3.org/TR/2001/REC-SVG-20010904/DTD/svg10.dtd">
<svg version="1.0" xmlns="http://www.w3.org/2000/svg"
 width="248.000000pt" height="248.000000pt" viewBox="0 0 248.000000 248.000000"
 preserveAspectRatio="xMidYMid meet">
<metadata>
Created by potrace 1.10, written by Peter Selinger 2001-2011
</metadata>
<g transform="translate(0.000000,248.000000) scale(0.100000,-0.100000)"
fill="#000000" stroke="none">
<path d="M1159 2373 c-10 -11 -15 -55 -17 -148 l-4 -132 -121 -11 c-67 -7
-216 -19 -332 -27 -399 -30 -409 -32 -403 -84 5 -45 40 -53 180 -41 68 6 213
17 323 25 110 8 224 18 253 21 33 4 52 3 52 -3 0 -13 -69 -77 -102 -94 -28
-15 -232 -185 -271 -227 -49 -52 -38 -67 97 -136 66 -34 121 -67 123 -73 3 -7
-6 -23 -19 -35 -74 -71 -231 -212 -280 -253 -41 -33 -58 -53 -58 -70 0 -31 25
-55 58 -55 47 0 531 95 582 114 19 8 123 35 231 61 108 25 202 52 208 58 6 6
11 24 11 39 0 47 -33 55 -132 30 -46 -12 -132 -33 -193 -47 -60 -14 -130 -32
-155 -40 -54 -18 -255 -60 -325 -69 l-50 -7 100 96 c55 52 116 108 135 122 19
15 92 75 161 133 69 58 169 140 223 184 97 79 119 112 99 145 -6 9 -21 17 -35
19 -25 3 -86 -43 -349 -265 -54 -46 -103 -83 -110 -83 -11 0 -199 98 -199 105
0 5 192 159 221 177 14 9 68 58 119 109 l94 93 151 8 c82 4 204 12 270 18 66
5 201 15 300 21 204 13 230 20 230 64 0 52 -29 58 -222 45 -93 -5 -181 -13
-198 -15 -16 -3 -113 -10 -215 -15 -102 -5 -221 -12 -265 -16 l-80 -6 3 117
c3 93 0 121 -13 141 -18 28 -56 32 -76 7z"/>
</g>
</svg>
