<?xml version="1.0" standalone="no"?>
<!DOCTYPE svg PUBLIC "-//W3C//DTD SVG 20010904//EN"
 "http://www.w3.org/TR/2001/REC-SVG-20010904/DTD/svg10.dtd">
<svg version="1.0" xmlns="http://www.w3.org/2000/svg"
 width="248.000000pt" height="248.000000pt" viewBox="0 0 248.000000 248.000000"
 preserveAspectRatio="xMidYMid meet">
<metadata>
Created by potrace 1.10, written by Peter Selinger 2001-2011
</metadata>
<g transform="translate(0.000000,248.000000) scale(0.100000,-0.100000)"
fill="#000000" stroke="none">
<path d="M535 2289 c-44 -45 -159 -152 -255 -238 -175 -157 -196 -184 -170
-217 31 -36 62 -18 236 135 216 190 334 313 334 350 0 15 -5 32 -12 39 -26 26
-54 11 -133 -69z"/>
<path d="M1032 2348 c-5 -7 -13 -45 -17 -85 -4 -39 -12 -79 -18 -87 -7 -10
-48 -22 -102 -32 -104 -19 -135 -34 -135 -69 0 -38 39 -59 87 -47 21 6 59 13
85 17 l48 6 -7 -33 c-3 -18 -16 -78 -28 -133 l-21 -100 -86 -11 c-93 -11 -118
-24 -118 -60 0 -45 37 -57 137 -45 211 26 570 75 709 97 62 9 73 67 19 93 -24
12 -42 12 -97 3 -82 -14 -101 -15 -93 -3 7 12 22 91 40 205 12 75 12 94 0 122
-12 28 -20 33 -59 39 -30 5 -68 2 -109 -8 -34 -9 -82 -18 -108 -22 l-45 -7 4
67 c4 53 1 70 -13 85 -20 23 -58 26 -73 8z m302 -260 c-16 -99 -37 -206 -46
-230 -9 -25 -16 -27 -124 -43 -63 -10 -117 -15 -121 -12 -5 6 8 83 38 229 l10
46 72 12 c40 6 86 15 102 20 17 4 40 9 52 9 20 1 22 -3 17 -31z"/>
<path d="M2198 2145 c-2 -3 -47 -9 -99 -15 -236 -25 -354 -41 -378 -53 -36
-17 -41 -60 -9 -81 20 -12 37 -13 138 0 63 7 156 18 205 23 199 22 258 31 271
42 17 14 18 61 2 77 -11 11 -119 17 -130 7z"/>
<path d="M415 1603 c-104 -102 -213 -200 -241 -218 -76 -49 -104 -101 -72
-133 23 -23 53 -12 133 47 44 33 80 59 81 58 1 -1 -2 -83 -7 -182 -5 -99 -11
-364 -14 -590 -7 -453 -6 -460 50 -460 51 0 55 21 55 310 0 221 26 1023 33
1031 1 2 55 57 120 122 95 98 117 126 117 149 0 34 -16 53 -44 52 -13 0 -93
-70 -211 -186z"/>
<path d="M2265 1734 c-33 -8 -116 -21 -185 -29 -69 -8 -161 -22 -205 -30 -44
-8 -124 -21 -178 -29 -54 -8 -105 -20 -113 -27 -23 -19 -13 -62 16 -75 26 -12
155 0 288 26 34 7 66 9 70 6 4 -4 10 -240 13 -524 4 -284 10 -572 15 -639 4
-68 4 -123 -1 -123 -4 0 -23 14 -42 30 -38 34 -55 37 -77 14 -31 -30 -19 -64
42 -121 70 -66 111 -87 147 -73 49 18 53 69 35 395 -5 99 -11 379 -12 623 l-3
442 27 0 c43 0 258 48 274 61 17 14 18 53 2 67 -24 18 -53 20 -113 6z"/>
<path d="M1200 1575 c-80 -14 -179 -32 -220 -41 -41 -8 -103 -21 -137 -28 -35
-7 -73 -21 -84 -32 -20 -18 -21 -25 -15 -127 3 -59 11 -131 17 -160 6 -28 13
-62 15 -75 6 -33 44 -47 86 -33 18 7 88 15 156 18 l122 6 0 -45 0 -46 -57 -5
c-32 -3 -116 -10 -188 -16 -71 -6 -152 -16 -178 -21 -26 -6 -63 -10 -80 -10
-38 0 -57 -15 -57 -45 0 -31 29 -53 75 -58 l40 -4 3 -86 c4 -119 -2 -127 -86
-127 -45 0 -75 -5 -90 -16 -30 -21 -29 -59 4 -80 23 -15 40 -16 192 -5 240 18
379 31 397 37 13 5 15 -17 15 -172 0 -202 7 -229 55 -229 48 0 55 27 55 231
l0 181 48 7 c26 3 111 12 189 20 85 7 149 18 158 26 25 21 15 63 -19 79 -29
14 -117 9 -319 -18 l-58 -7 3 115 3 116 60 8 c163 22 249 38 261 48 19 16 18
54 -3 70 -20 17 -66 16 -203 -4 -58 -8 -106 -14 -107 -13 -1 1 -5 20 -9 42
l-6 40 72 11 c40 7 79 18 87 26 28 27 96 329 86 379 -13 69 -72 78 -283 43z
m180 -87 c0 -12 -34 -164 -46 -204 l-15 -52 -57 -6 c-31 -3 -115 -10 -187 -15
-71 -5 -146 -12 -166 -16 -43 -8 -45 -3 -55 122 l-7 82 29 6 c16 3 54 12 84
20 30 8 105 21 165 30 61 9 128 20 150 25 39 7 105 12 105 8z m-250 -692 l0
-113 -37 -7 c-21 -3 -94 -9 -163 -13 l-125 -6 1 109 1 109 79 7 c93 9 238 25
242 27 1 0 2 -50 2 -113z"/>
</g>
</svg>
