<?xml version="1.0" standalone="no"?>
<!DOCTYPE svg PUBLIC "-//W3C//DTD SVG 20010904//EN"
 "http://www.w3.org/TR/2001/REC-SVG-20010904/DTD/svg10.dtd">
<svg version="1.0" xmlns="http://www.w3.org/2000/svg"
 width="248.000000pt" height="248.000000pt" viewBox="0 0 248.000000 248.000000"
 preserveAspectRatio="xMidYMid meet">
<metadata>
Created by potrace 1.10, written by Peter Selinger 2001-2011
</metadata>
<g transform="translate(0.000000,248.000000) scale(0.100000,-0.100000)"
fill="#000000" stroke="none">
<path d="M535 2289 c-44 -45 -159 -152 -255 -238 -175 -157 -196 -184 -170
-217 31 -36 62 -18 236 134 215 190 334 314 334 351 0 15 -5 32 -12 39 -26 26
-54 11 -133 -69z"/>
<path d="M415 1603 c-104 -102 -213 -200 -241 -218 -57 -37 -84 -69 -84 -100
0 -48 51 -59 97 -22 15 13 52 40 82 61 l53 38 -6 -59 c-11 -114 -28 -752 -24
-951 3 -188 5 -205 22 -218 25 -18 37 -18 62 0 18 14 19 34 26 423 3 224 11
520 18 658 l11 250 120 121 c97 99 119 128 119 151 0 34 -16 53 -44 52 -13 0
-93 -70 -211 -186z"/>
</g>
</svg>
