<?xml version="1.0" standalone="no"?>
<!DOCTYPE svg PUBLIC "-//W3C//DTD SVG 20010904//EN"
 "http://www.w3.org/TR/2001/REC-SVG-20010904/DTD/svg10.dtd">
<svg version="1.0" xmlns="http://www.w3.org/2000/svg"
 width="248.000000pt" height="248.000000pt" viewBox="0 0 248.000000 248.000000"
 preserveAspectRatio="xMidYMid meet">
<metadata>
Created by potrace 1.10, written by Peter Selinger 2001-2011
</metadata>
<g transform="translate(0.000000,248.000000) scale(0.100000,-0.100000)"
fill="#000000" stroke="none">
<path d="M535 2289 c-44 -45 -159 -152 -255 -238 -175 -157 -196 -184 -170
-217 31 -36 62 -18 236 134 215 190 334 314 334 351 0 15 -5 32 -12 39 -26 26
-54 11 -133 -69z"/>
<path d="M1032 2348 c-5 -7 -13 -45 -17 -85 -4 -39 -12 -79 -18 -87 -8 -10
-47 -22 -102 -32 -102 -17 -135 -34 -135 -68 0 -48 32 -57 144 -37 38 6 70 10
72 9 1 -2 -10 -62 -24 -133 l-28 -130 -86 -11 c-96 -11 -120 -25 -116 -63 5
-41 42 -53 135 -42 113 14 308 39 383 50 36 5 117 17 180 26 63 9 129 18 146
21 62 9 73 67 19 93 -24 12 -42 12 -97 3 -81 -14 -101 -15 -94 -4 3 5 12 42
20 83 47 226 40 273 -38 284 -30 5 -68 2 -109 -8 -34 -9 -83 -19 -108 -22
l-47 -7 5 66 c5 55 3 70 -12 86 -20 23 -57 26 -73 8z m301 -265 c-17 -124 -49
-253 -61 -253 -4 0 -47 -7 -97 -15 -49 -8 -102 -15 -116 -15 l-26 0 18 83 c9
45 22 108 29 139 l11 56 72 12 c40 6 86 15 102 20 17 4 40 9 52 9 20 1 21 -3
16 -36z"/>
<path d="M415 1603 c-104 -102 -213 -200 -241 -218 -57 -37 -84 -69 -84 -100
0 -48 51 -59 97 -22 15 13 52 40 82 61 l53 38 -6 -59 c-11 -114 -28 -752 -24
-951 3 -188 5 -205 22 -218 25 -18 37 -18 62 0 18 14 19 34 26 423 3 224 11
520 18 658 l11 250 120 121 c97 99 119 128 119 151 0 34 -16 53 -44 52 -13 0
-93 -70 -211 -186z"/>
<path d="M1270 1584 c-41 -8 -122 -21 -180 -29 -58 -8 -127 -22 -155 -29 -27
-8 -71 -18 -98 -21 -73 -11 -97 -35 -97 -98 0 -52 13 -169 29 -261 9 -54 34
-80 66 -71 46 12 164 26 220 26 55 -1 98 4 270 30 34 5 66 16 76 26 16 18 47
132 73 275 30 158 -10 188 -204 152z m110 -97 c0 -3 -34 -157 -49 -222 -6 -28
-11 -31 -61 -37 -30 -4 -116 -12 -190 -17 -75 -5 -152 -12 -171 -16 -43 -8
-45 -3 -55 121 l-7 80 89 22 c49 12 136 29 194 37 58 9 123 20 145 24 41 9
105 13 105 8z"/>
<path d="M1405 1055 c-81 -13 -193 -29 -387 -56 -37 -5 -86 -9 -110 -9 -56 0
-289 -30 -308 -39 -22 -12 -24 -54 -3 -74 10 -9 36 -18 58 -20 l40 -4 3 -86
c4 -119 -2 -127 -86 -127 -45 0 -75 -5 -90 -16 -30 -21 -29 -59 4 -80 23 -15
40 -16 192 -5 195 14 319 26 492 46 69 9 189 21 267 29 85 7 149 18 158 26 25
21 15 63 -19 79 -31 14 -88 11 -371 -23 -260 -32 -302 -36 -370 -36 l-70 0 1
107 1 108 34 2 c64 5 234 24 379 44 352 48 360 50 360 94 0 49 -45 59 -175 40z"/>
</g>
</svg>
