<?xml version="1.0" standalone="no"?>
<!DOCTYPE svg PUBLIC "-//W3C//DTD SVG 20010904//EN"
 "http://www.w3.org/TR/2001/REC-SVG-20010904/DTD/svg10.dtd">
<svg version="1.0" xmlns="http://www.w3.org/2000/svg"
 width="248.000000pt" height="248.000000pt" viewBox="0 0 248.000000 248.000000"
 preserveAspectRatio="xMidYMid meet">
<metadata>
Created by potrace 1.10, written by Peter Selinger 2001-2011
</metadata>
<g transform="translate(0.000000,248.000000) scale(0.100000,-0.100000)"
fill="#000000" stroke="none">
<path d="M972 2147 c-6 -7 -38 -66 -71 -130 -33 -65 -74 -137 -91 -161 -40
-55 -39 -96 4 -111 26 -9 31 -6 65 31 47 54 171 294 171 331 0 16 -5 34 -12
41 -16 16 -53 15 -66 -1z"/>
<path d="M242 2088 c-7 -7 -12 -26 -12 -43 0 -37 73 -290 90 -310 7 -8 25 -15
41 -15 48 0 56 33 29 121 -55 185 -72 234 -82 246 -13 16 -50 17 -66 1z"/>
</g>
</svg>
