<?xml version="1.0" standalone="no"?>
<!DOCTYPE svg PUBLIC "-//W3C//DTD SVG 20010904//EN"
 "http://www.w3.org/TR/2001/REC-SVG-20010904/DTD/svg10.dtd">
<svg version="1.0" xmlns="http://www.w3.org/2000/svg"
 width="248.000000pt" height="248.000000pt" viewBox="0 0 248.000000 248.000000"
 preserveAspectRatio="xMidYMid meet">
<metadata>
Created by potrace 1.10, written by Peter Selinger 2001-2011
</metadata>
<g transform="translate(0.000000,248.000000) scale(0.100000,-0.100000)"
fill="#000000" stroke="none">
<path d="M606 2348 c-12 -19 -16 -85 -22 -351 -7 -322 -7 -327 -28 -332 -61
-14 -213 -38 -303 -49 -56 -7 -109 -18 -117 -25 -24 -20 -20 -58 9 -77 28 -19
88 -15 245 16 163 31 170 32 170 18 0 -15 -73 -294 -110 -418 -58 -195 -181
-500 -256 -637 -39 -71 -42 -93 -13 -119 19 -17 23 -17 47 -3 27 15 81 101
109 174 9 22 40 95 69 162 52 118 98 242 149 403 l24 75 -4 -240 c-3 -132 -7
-356 -11 -498 -5 -226 -3 -262 11 -283 20 -31 59 -32 80 -1 12 19 16 117 26
602 6 319 12 581 12 582 1 1 36 -55 77 -124 112 -186 223 -286 268 -241 27 27
12 60 -57 132 -67 70 -127 160 -190 284 -40 80 -75 172 -67 179 3 4 52 12 109
19 243 31 257 36 257 80 0 27 -24 54 -48 54 -20 0 -283 -38 -326 -46 l-29 -6
6 318 c7 348 5 366 -45 372 -19 2 -31 -3 -42 -20z"/>
<path d="M1646 2328 c-13 -18 -16 -52 -16 -183 l0 -161 -147 -18 c-211 -26
-254 -34 -275 -53 -16 -14 -18 -34 -18 -181 0 -91 -4 -203 -10 -251 -5 -47
-14 -133 -20 -191 -6 -58 -15 -150 -21 -205 -28 -277 -111 -627 -184 -775 -25
-52 -53 -108 -61 -123 -14 -25 -14 -30 0 -53 23 -35 59 -31 90 8 54 72 116
226 160 400 45 178 81 355 90 443 25 242 28 256 45 249 25 -12 85 -10 218 9
184 26 173 28 173 -43 0 -41 -4 -60 -12 -60 -67 0 -237 -24 -255 -36 -29 -18
-30 -58 -2 -78 24 -16 50 -15 284 15 328 42 361 50 369 91 3 13 7 59 10 102 3
44 8 82 11 84 2 3 41 8 85 12 96 8 105 15 101 72 -2 25 -62 41 -126 33 l-55
-7 7 58 c11 83 9 130 -6 148 -18 22 -84 20 -200 -4 -52 -11 -96 -20 -99 -20
-3 0 -2 42 1 93 7 105 -4 137 -48 137 -39 0 -53 -35 -61 -148 -8 -117 4 -107
-129 -117 -91 -8 -125 -24 -125 -60 0 -45 33 -55 140 -45 52 5 98 10 103 10 4
0 7 -24 7 -53 l0 -53 -92 -13 c-96 -13 -192 -26 -264 -35 l-41 -6 4 78 c3 42
9 101 14 131 5 30 9 112 9 181 l0 127 68 7 c37 4 94 11 127 16 33 5 105 14
160 20 55 6 168 20 250 31 292 39 295 40 295 89 0 56 -20 58 -280 19 -30 -4
-83 -11 -117 -15 l-63 -7 0 149 c0 100 -4 157 -13 174 -17 34 -60 39 -81 8z
m337 -830 c-10 -96 -6 -93 -131 -104 l-72 -7 0 59 0 59 78 16 c42 9 89 17 104
17 25 2 26 0 21 -40z m-23 -227 c0 -16 -3 -42 -6 -58 -5 -27 -11 -31 -52 -36
-26 -4 -64 -9 -84 -13 l-38 -7 0 61 0 60 63 10 c110 17 117 16 117 -17z"/>
<path d="M972 2147 c-6 -7 -38 -66 -71 -130 -33 -65 -74 -137 -91 -161 -40
-55 -39 -96 4 -111 26 -9 31 -6 65 31 47 54 171 294 171 331 0 16 -5 34 -12
41 -16 16 -53 15 -66 -1z"/>
<path d="M242 2088 c-7 -7 -12 -26 -12 -43 0 -37 73 -290 90 -310 7 -8 25 -15
41 -15 48 0 56 33 29 121 -55 185 -72 234 -82 246 -13 16 -50 17 -66 1z"/>
<path d="M1324 765 c-15 -23 -16 -48 -10 -243 8 -241 14 -267 61 -267 51 0 55
23 49 265 -4 126 -11 225 -18 240 -16 36 -60 39 -82 5z"/>
</g>
</svg>
