<?xml version="1.0" standalone="no"?>
<!DOCTYPE svg PUBLIC "-//W3C//DTD SVG 20010904//EN"
 "http://www.w3.org/TR/2001/REC-SVG-20010904/DTD/svg10.dtd">
<svg version="1.0" xmlns="http://www.w3.org/2000/svg"
 width="248.000000pt" height="248.000000pt" viewBox="0 0 248.000000 248.000000"
 preserveAspectRatio="xMidYMid meet">
<metadata>
Created by potrace 1.10, written by Peter Selinger 2001-2011
</metadata>
<g transform="translate(0.000000,248.000000) scale(0.100000,-0.100000)"
fill="#000000" stroke="none">
<path d="M606 2348 c-12 -19 -16 -85 -22 -351 -7 -322 -7 -327 -28 -332 -61
-14 -213 -38 -303 -49 -56 -7 -109 -18 -117 -25 -24 -20 -20 -58 9 -77 28 -19
88 -15 245 16 163 31 170 32 170 18 0 -15 -73 -294 -110 -418 -58 -195 -181
-500 -256 -637 -39 -71 -42 -93 -13 -119 19 -17 23 -17 47 -3 27 15 81 101
109 174 9 22 40 95 69 162 52 118 98 242 149 403 l24 75 -4 -240 c-3 -132 -7
-356 -11 -498 -5 -226 -3 -262 11 -283 20 -31 59 -32 80 -1 12 19 16 117 26
602 6 319 12 581 12 582 1 1 36 -55 77 -124 112 -186 223 -286 268 -241 27 27
12 60 -57 132 -67 70 -127 160 -190 284 -40 80 -75 172 -67 179 3 4 52 12 109
19 243 31 257 36 257 80 0 27 -24 54 -48 54 -20 0 -283 -38 -326 -46 l-29 -6
6 318 c7 348 5 366 -45 372 -19 2 -31 -3 -42 -20z"/>
<path d="M972 2147 c-6 -7 -38 -66 -71 -130 -33 -65 -74 -137 -91 -161 -40
-55 -39 -96 4 -111 26 -9 31 -6 65 31 47 54 171 294 171 331 0 16 -5 34 -12
41 -16 16 -53 15 -66 -1z"/>
<path d="M242 2088 c-7 -7 -12 -26 -12 -43 0 -37 73 -290 90 -310 7 -8 25 -15
41 -15 48 0 56 33 29 121 -55 185 -72 234 -82 246 -13 16 -50 17 -66 1z"/>
</g>
</svg>
