<?xml version="1.0" standalone="no"?>
<!DOCTYPE svg PUBLIC "-//W3C//DTD SVG 20010904//EN"
 "http://www.w3.org/TR/2001/REC-SVG-20010904/DTD/svg10.dtd">
<svg version="1.0" xmlns="http://www.w3.org/2000/svg"
 width="248.000000pt" height="248.000000pt" viewBox="0 0 248.000000 248.000000"
 preserveAspectRatio="xMidYMid meet">
<metadata>
Created by potrace 1.10, written by Peter Selinger 2001-2011
</metadata>
<g transform="translate(0.000000,248.000000) scale(0.100000,-0.100000)"
fill="#000000" stroke="none">
<path d="M546 2348 c-9 -12 -16 -41 -16 -63 0 -22 -7 -68 -15 -100 -19 -70
-91 -225 -129 -274 -65 -86 3 -155 74 -75 17 20 50 74 73 120 36 73 45 84 68
84 14 0 70 7 124 15 54 8 101 13 105 10 4 -2 19 -35 34 -72 45 -113 49 -118
81 -118 22 0 33 7 43 27 11 24 10 35 -16 100 l-30 73 39 12 c21 6 64 14 96 18
32 3 73 8 90 11 67 10 67 87 0 99 -19 4 -74 0 -123 -9 -49 -8 -143 -22 -209
-30 -66 -8 -142 -18 -169 -22 l-49 -7 7 44 c19 117 19 128 2 154 -21 32 -59
33 -80 3z"/>
<path d="M1372 2358 c-6 -8 -18 -49 -27 -93 -9 -44 -23 -92 -31 -107 -8 -15
-14 -33 -14 -40 0 -7 -16 -39 -36 -70 -38 -62 -39 -89 -3 -109 31 -16 55 -2
91 53 37 58 60 117 90 233 19 72 20 84 7 110 -16 33 -58 45 -77 23z"/>
</g>
</svg>
