<?xml version="1.0" standalone="no"?>
<!DOCTYPE svg PUBLIC "-//W3C//DTD SVG 20010904//EN"
 "http://www.w3.org/TR/2001/REC-SVG-20010904/DTD/svg10.dtd">
<svg version="1.0" xmlns="http://www.w3.org/2000/svg"
 width="248.000000pt" height="248.000000pt" viewBox="0 0 248.000000 248.000000"
 preserveAspectRatio="xMidYMid meet">
<metadata>
Created by potrace 1.10, written by Peter Selinger 2001-2011
</metadata>
<g transform="translate(0.000000,248.000000) scale(0.100000,-0.100000)"
fill="#000000" stroke="none">
<path d="M700 2201 c-41 -10 -120 -23 -175 -30 -271 -33 -295 -40 -295 -85 0
-41 22 -49 108 -42 82 8 82 8 243 31 59 8 112 15 118 15 7 0 -1 -19 -17 -42
-16 -24 -48 -72 -72 -108 -24 -36 -66 -90 -92 -119 -50 -57 -59 -89 -32 -115
27 -27 51 -18 105 42 64 71 279 394 279 420 0 27 -32 52 -66 51 -16 0 -63 -8
-104 -18z"/>
</g>
</svg>
