<?xml version="1.0" standalone="no"?>
<!DOCTYPE svg PUBLIC "-//W3C//DTD SVG 20010904//EN"
 "http://www.w3.org/TR/2001/REC-SVG-20010904/DTD/svg10.dtd">
<svg version="1.0" xmlns="http://www.w3.org/2000/svg"
 width="248.000000pt" height="248.000000pt" viewBox="0 0 248.000000 248.000000"
 preserveAspectRatio="xMidYMid meet">
<metadata>
Created by potrace 1.10, written by Peter Selinger 2001-2011
</metadata>
<g transform="translate(0.000000,248.000000) scale(0.100000,-0.100000)"
fill="#000000" stroke="none">
<path d="M1382 2368 c-7 -7 -12 -34 -12 -61 0 -27 -5 -102 -11 -168 -13 -130
-8 -149 37 -149 33 0 50 33 63 118 17 113 16 218 -3 247 -18 27 -54 33 -74 13z"/>
<path d="M700 2201 c-41 -10 -120 -24 -175 -30 -253 -31 -258 -32 -289 -63
-26 -27 -28 -33 -21 -76 4 -26 13 -137 20 -247 17 -250 13 -1300 -6 -1512 -11
-129 -10 -145 5 -168 21 -32 60 -33 79 -3 17 28 34 299 43 683 4 149 8 272 10
274 2 2 40 -7 86 -19 110 -31 217 -33 248 -5 37 33 71 114 92 213 16 82 17
105 8 171 -16 107 -57 187 -137 267 l-66 66 22 26 c53 65 251 373 251 390 0
27 -32 52 -66 51 -16 0 -63 -8 -104 -18z m-18 -153 c-16 -24 -50 -74 -76 -113
-26 -38 -69 -94 -96 -124 -47 -50 -60 -82 -42 -106 4 -6 32 -27 63 -47 63 -41
121 -106 144 -162 36 -86 28 -235 -17 -335 l-20 -43 -56 4 c-31 3 -94 15 -139
27 l-83 23 0 137 c0 75 -3 165 -5 201 -3 36 -10 159 -15 275 -6 115 -13 219
-16 232 -5 19 -1 23 28 27 76 12 315 44 336 45 l23 1 -29 -42z"/>
<path d="M892 1968 c-8 -8 -12 -60 -12 -167 0 -178 8 -206 55 -206 49 0 57 29
52 193 -4 109 -9 148 -21 167 -18 27 -54 33 -74 13z"/>
</g>
</svg>
