<?xml version="1.0" standalone="no"?>
<!DOCTYPE svg PUBLIC "-//W3C//DTD SVG 20010904//EN"
 "http://www.w3.org/TR/2001/REC-SVG-20010904/DTD/svg10.dtd">
<svg version="1.0" xmlns="http://www.w3.org/2000/svg"
 width="248.000000pt" height="248.000000pt" viewBox="0 0 248.000000 248.000000"
 preserveAspectRatio="xMidYMid meet">
<metadata>
Created by potrace 1.10, written by Peter Selinger 2001-2011
</metadata>
<g transform="translate(0.000000,248.000000) scale(0.100000,-0.100000)"
fill="#000000" stroke="none">
<path d="M546 2348 c-9 -12 -16 -41 -16 -63 0 -22 -7 -68 -15 -100 -19 -70
-91 -225 -129 -274 -65 -86 3 -155 74 -75 17 20 50 74 73 120 36 73 45 84 68
84 14 0 70 7 124 15 54 8 101 13 105 10 4 -2 19 -35 34 -72 45 -113 49 -118
81 -118 22 0 33 7 43 27 11 24 10 35 -16 100 l-30 73 39 12 c21 6 64 14 96 18
32 3 73 8 90 11 67 10 67 87 0 99 -19 4 -74 0 -123 -9 -49 -8 -143 -22 -209
-30 -66 -8 -142 -18 -169 -22 l-49 -7 7 44 c19 117 19 128 2 154 -21 32 -59
33 -80 3z"/>
<path d="M1372 2358 c-6 -8 -18 -48 -27 -90 -8 -42 -22 -89 -30 -105 -8 -15
-15 -35 -15 -43 0 -8 -16 -41 -36 -72 -38 -62 -39 -89 -3 -109 11 -5 28 -7 38
-4 21 6 87 101 96 138 6 24 10 25 121 32 64 4 117 5 120 3 2 -3 -9 -31 -26
-64 -36 -72 -38 -99 -6 -119 20 -13 29 -14 46 -5 19 10 90 139 102 188 5 16
17 21 64 27 190 20 237 37 232 83 -4 37 -37 51 -96 41 -148 -24 -497 -57 -507
-48 -2 2 1 25 7 50 8 36 8 52 -3 75 -16 32 -58 44 -77 22z"/>
<path d="M1156 1878 c-12 -17 -14 -39 -9 -110 5 -72 3 -88 -8 -88 -52 0 -372
-22 -454 -31 -115 -12 -148 -27 -143 -67 5 -40 39 -51 126 -41 89 10 472 32
476 27 2 -1 6 -48 9 -104 l5 -101 -117 -12 c-64 -7 -152 -17 -196 -22 -44 -5
-111 -9 -150 -9 -39 0 -109 -5 -155 -10 -159 -20 -170 -24 -170 -66 0 -36 41
-58 92 -50 23 4 110 11 193 16 148 10 264 20 440 39 50 6 151 17 225 25 74 8
171 20 215 26 74 10 188 22 340 36 89 9 125 26 125 62 0 50 -15 55 -147 42
-129 -12 -328 -35 -438 -50 -38 -5 -89 -9 -112 -10 l-43 0 0 99 0 99 35 6 c32
6 119 17 364 47 46 5 91 14 101 19 25 13 34 45 20 71 -11 20 -17 21 -98 16
-48 -3 -136 -12 -197 -20 -60 -9 -135 -18 -166 -22 l-55 -7 -11 91 c-5 50 -16
97 -23 106 -18 22 -56 18 -74 -7z"/>
<path d="M1925 1101 c-18 -7 -61 -13 -315 -41 -47 -6 -148 -15 -225 -20 -155
-11 -232 -18 -285 -25 -19 -3 -107 -9 -195 -15 -88 -6 -189 -15 -225 -20 -36
-5 -111 -11 -168 -13 -119 -6 -155 -21 -150 -65 2 -17 12 -31 28 -38 27 -11
173 -5 360 14 58 6 188 18 290 27 602 51 707 60 805 74 85 12 142 27 163 44
15 12 16 59 0 75 -13 13 -53 15 -83 3z"/>
</g>
</svg>
