<?xml version="1.0" standalone="no"?>
<!DOCTYPE svg PUBLIC "-//W3C//DTD SVG 20010904//EN"
 "http://www.w3.org/TR/2001/REC-SVG-20010904/DTD/svg10.dtd">
<svg version="1.0" xmlns="http://www.w3.org/2000/svg"
 width="248.000000pt" height="248.000000pt" viewBox="0 0 248.000000 248.000000"
 preserveAspectRatio="xMidYMid meet">
<metadata>
Created by potrace 1.10, written by Peter Selinger 2001-2011
</metadata>
<g transform="translate(0.000000,248.000000) scale(0.100000,-0.100000)"
fill="#000000" stroke="none">
<path d="M715 2259 c-33 -4 -103 -15 -155 -24 -52 -8 -149 -22 -215 -32 -100
-14 -123 -20 -144 -41 l-24 -24 7 -327 c4 -179 12 -373 17 -431 16 -189 23
-995 9 -1086 -16 -100 -3 -139 45 -139 41 0 51 27 66 165 13 130 6 836 -10
1030 -6 63 -13 255 -17 426 l-7 311 89 13 c49 6 105 15 124 20 19 4 64 11 100
15 l65 7 -41 -44 c-113 -118 -164 -188 -164 -226 0 -11 21 -44 46 -74 86 -99
124 -214 124 -374 0 -92 -3 -107 -28 -155 -15 -29 -32 -54 -38 -56 -7 -2 -28
19 -48 47 -25 35 -43 50 -59 50 -55 0 -62 -54 -16 -123 71 -108 131 -125 194
-56 61 68 98 159 103 255 9 160 -38 327 -124 445 -19 26 -34 49 -34 53 0 10
118 153 143 173 55 45 117 126 117 154 0 27 -31 61 -55 58 -5 -1 -37 -5 -70
-10z"/>
<path d="M1355 2014 c-44 -7 -143 -20 -220 -29 -77 -10 -150 -23 -162 -31 -30
-19 -30 -59 0 -79 21 -14 37 -14 148 0 68 8 151 19 184 24 33 5 94 15 134 21
80 11 111 30 111 65 0 48 -42 54 -195 29z"/>
</g>
</svg>
