<?xml version="1.0" standalone="no"?>
<!DOCTYPE svg PUBLIC "-//W3C//DTD SVG 20010904//EN"
 "http://www.w3.org/TR/2001/REC-SVG-20010904/DTD/svg10.dtd">
<svg version="1.0" xmlns="http://www.w3.org/2000/svg"
 width="248.000000pt" height="248.000000pt" viewBox="0 0 248.000000 248.000000"
 preserveAspectRatio="xMidYMid meet">
<metadata>
Created by potrace 1.10, written by Peter Selinger 2001-2011
</metadata>
<g transform="translate(0.000000,248.000000) scale(0.100000,-0.100000)"
fill="#000000" stroke="none">
<path d="M715 2259 c-33 -4 -103 -15 -155 -24 -52 -8 -149 -22 -215 -32 -100
-14 -123 -20 -144 -41 l-24 -24 7 -327 c4 -179 12 -373 17 -431 16 -189 23
-995 9 -1086 -16 -100 -3 -139 45 -139 41 0 51 27 66 165 13 130 6 836 -10
1030 -6 63 -13 255 -17 426 l-7 311 89 13 c49 6 105 15 124 20 19 4 64 11 100
15 l65 7 -41 -44 c-113 -118 -164 -188 -164 -226 0 -11 21 -44 46 -74 86 -99
124 -214 124 -374 0 -92 -3 -107 -28 -155 -15 -29 -32 -54 -38 -56 -7 -2 -28
19 -48 47 -25 35 -43 50 -59 50 -55 0 -62 -54 -16 -123 71 -108 131 -125 194
-56 61 68 98 159 103 255 9 160 -38 327 -124 445 -19 26 -34 49 -34 53 0 10
118 153 143 173 55 45 117 126 117 154 0 27 -31 61 -55 58 -5 -1 -37 -5 -70
-10z"/>
<path d="M929 2253 c-11 -13 -14 -90 -13 -407 0 -402 3 -439 40 -453 27 -10
201 44 294 91 25 13 69 31 98 40 55 19 77 44 67 77 -14 45 -88 38 -197 -17
-87 -44 -182 -74 -190 -61 -4 7 -7 86 -5 177 l2 165 105 12 c58 6 139 16 180
23 41 6 104 16 139 21 70 10 101 30 101 64 0 49 -30 54 -186 30 -146 -23 -328
-44 -333 -39 -3 3 -7 60 -9 127 -4 133 -16 167 -56 167 -13 0 -30 -7 -37 -17z"/>
<path d="M1619 2253 c-11 -13 -14 -82 -14 -352 0 -301 2 -342 19 -393 10 -31
27 -64 36 -73 10 -9 54 -26 97 -38 113 -30 292 -29 427 3 111 26 117 32 130
139 6 43 4 57 -10 72 -35 39 -77 13 -91 -56 -7 -33 -14 -40 -48 -52 -67 -24
-269 -29 -357 -9 -46 10 -79 23 -82 32 -3 8 -9 81 -12 162 l-7 148 44 13 c24
8 69 20 99 27 103 23 196 53 258 82 78 37 92 49 92 76 0 51 -47 59 -127 22
-69 -32 -319 -106 -359 -106 -3 0 -4 63 -3 140 1 122 -1 143 -16 160 -22 24
-58 26 -76 3z"/>
<path d="M1456 1358 c-9 -12 -16 -27 -16 -33 -1 -24 -65 -92 -164 -171 -59
-48 -111 -95 -117 -106 -24 -44 31 -95 70 -66 176 128 290 245 310 315 19 65
-47 113 -83 61z"/>
</g>
</svg>
