<?xml version="1.0" standalone="no"?>
<!DOCTYPE svg PUBLIC "-//W3C//DTD SVG 20010904//EN"
 "http://www.w3.org/TR/2001/REC-SVG-20010904/DTD/svg10.dtd">
<svg version="1.0" xmlns="http://www.w3.org/2000/svg"
 width="248.000000pt" height="248.000000pt" viewBox="0 0 248.000000 248.000000"
 preserveAspectRatio="xMidYMid meet">
<metadata>
Created by potrace 1.10, written by Peter Selinger 2001-2011
</metadata>
<g transform="translate(0.000000,248.000000) scale(0.100000,-0.100000)"
fill="#000000" stroke="none">
<path d="M765 1523 c-16 -2 -70 -11 -120 -19 -49 -8 -126 -19 -170 -24 -182
-20 -297 -39 -310 -50 -23 -19 -18 -58 9 -76 22 -13 36 -14 108 -4 46 6 119
15 164 20 44 5 120 16 170 24 49 8 118 18 153 22 91 9 126 49 81 94 -20 20
-26 21 -85 13z"/>
</g>
</svg>
