<?xml version="1.0" standalone="no"?>
<!DOCTYPE svg PUBLIC "-//W3C//DTD SVG 20010904//EN"
 "http://www.w3.org/TR/2001/REC-SVG-20010904/DTD/svg10.dtd">
<svg version="1.0" xmlns="http://www.w3.org/2000/svg"
 width="248.000000pt" height="248.000000pt" viewBox="0 0 248.000000 248.000000"
 preserveAspectRatio="xMidYMid meet">
<metadata>
Created by potrace 1.10, written by Peter Selinger 2001-2011
</metadata>
<g transform="translate(0.000000,248.000000) scale(0.100000,-0.100000)"
fill="#000000" stroke="none">
<path d="M720 2260 c-30 -5 -86 -13 -125 -19 -38 -6 -139 -22 -224 -34 -133
-20 -156 -26 -172 -46 -17 -21 -19 -43 -19 -235 1 -116 8 -321 16 -456 22
-333 30 -1068 14 -1176 -11 -67 -10 -86 1 -110 16 -33 58 -44 78 -20 41 49 56
692 26 1101 -8 110 -18 340 -22 512 l-6 311 49 7 c27 3 85 13 129 20 44 8 107
17 140 21 l60 7 -42 -44 c-109 -114 -163 -190 -163 -226 0 -11 14 -36 30 -54
99 -112 131 -198 137 -369 5 -123 4 -126 -24 -180 -16 -30 -35 -55 -43 -55 -7
0 -28 20 -45 45 -71 102 -144 35 -77 -71 40 -63 86 -99 127 -99 42 0 95 56
139 149 30 63 31 71 30 191 -1 168 -36 285 -120 401 -19 26 -34 49 -34 53 0
10 118 153 143 173 60 50 117 123 117 151 0 49 -33 64 -120 52z"/>
<path d="M929 2254 c-12 -14 -14 -85 -13 -408 0 -402 4 -439 40 -453 25 -10
256 61 292 90 6 5 40 20 75 32 91 33 124 92 64 114 -24 9 -110 -15 -174 -47
-81 -42 -177 -72 -185 -59 -4 7 -7 86 -5 177 l2 165 105 11 c58 7 139 17 180
24 41 6 104 16 139 21 71 10 101 30 101 64 0 53 -23 54 -280 17 -74 -11 -158
-23 -186 -26 l-51 -6 -7 46 c-3 26 -6 81 -6 123 0 42 -6 87 -13 101 -15 31
-58 38 -78 14z"/>
<path d="M1620 2255 c-9 -11 -14 -85 -17 -258 -6 -295 6 -465 36 -525 25 -49
33 -53 131 -78 109 -27 284 -25 414 6 92 21 99 25 111 54 8 18 15 58 17 91 3
55 1 60 -24 74 -24 14 -28 14 -46 -2 -11 -10 -25 -37 -31 -61 -9 -38 -15 -44
-53 -55 -74 -23 -264 -26 -350 -7 -46 10 -79 23 -82 32 -3 8 -9 81 -12 162
l-7 148 44 13 c24 8 69 20 99 27 149 34 293 87 333 122 20 17 22 53 5 70 -19
19 -58 14 -118 -14 -30 -14 -86 -34 -125 -45 -70 -20 -222 -59 -231 -59 -3 0
-4 63 -3 140 1 122 -1 143 -16 160 -21 24 -58 26 -75 5z"/>
<path d="M1463 1368 c-6 -7 -18 -29 -27 -48 -24 -52 -51 -80 -163 -169 l-102
-81 -93 0 c-71 0 -99 -4 -117 -17 l-24 -16 7 -266 c3 -146 10 -326 14 -399 12
-188 -8 -175 285 -184 724 -21 727 -21 741 -8 22 17 46 166 82 500 28 262 29
301 6 352 -15 35 -26 46 -48 51 -16 3 -173 3 -349 0 -220 -4 -317 -2 -310 5 6
5 30 27 55 47 64 54 120 139 120 184 0 21 -5 42 -12 49 -16 16 -53 15 -65 0z
m517 -450 c0 -34 -5 -99 -12 -145 l-12 -83 -453 0 -453 0 0 135 0 135 58 1
c74 2 659 15 780 17 l92 2 0 -62z m-34 -375 c-3 -21 -13 -89 -22 -151 l-17
-114 -216 6 c-119 3 -307 9 -418 12 l-203 6 0 41 c0 23 -3 86 -7 140 l-6 97
447 0 448 0 -6 -37z"/>
</g>
</svg>
