<?xml version="1.0" standalone="no"?>
<!DOCTYPE svg PUBLIC "-//W3C//DTD SVG 20010904//EN"
 "http://www.w3.org/TR/2001/REC-SVG-20010904/DTD/svg10.dtd">
<svg version="1.0" xmlns="http://www.w3.org/2000/svg"
 width="248.000000pt" height="248.000000pt" viewBox="0 0 248.000000 248.000000"
 preserveAspectRatio="xMidYMid meet">
<metadata>
Created by potrace 1.10, written by Peter Selinger 2001-2011
</metadata>
<g transform="translate(0.000000,248.000000) scale(0.100000,-0.100000)"
fill="#000000" stroke="none">
<path d="M715 2259 c-33 -4 -103 -15 -155 -24 -52 -8 -147 -22 -210 -31 -132
-18 -163 -32 -158 -72 5 -48 36 -53 183 -31 209 31 259 38 274 39 8 0 -4 -19
-26 -42 -116 -122 -143 -160 -143 -200 0 -30 17 -48 46 -48 16 0 44 26 98 94
42 52 86 103 98 113 56 45 118 126 118 154 0 27 -31 61 -55 58 -5 -1 -37 -5
-70 -10z"/>
</g>
</svg>
