<?xml version="1.0" standalone="no"?>
<!DOCTYPE svg PUBLIC "-//W3C//DTD SVG 20010904//EN"
 "http://www.w3.org/TR/2001/REC-SVG-20010904/DTD/svg10.dtd">
<svg version="1.0" xmlns="http://www.w3.org/2000/svg"
 width="248.000000pt" height="248.000000pt" viewBox="0 0 248.000000 248.000000"
 preserveAspectRatio="xMidYMid meet">
<metadata>
Created by potrace 1.10, written by Peter Selinger 2001-2011
</metadata>
<g transform="translate(0.000000,248.000000) scale(0.100000,-0.100000)"
fill="#000000" stroke="none">
<path d="M486 1968 c-14 -19 -16 -58 -16 -254 l0 -232 -77 -11 c-43 -6 -109
-16 -146 -21 -38 -5 -75 -14 -83 -21 -22 -18 -17 -57 10 -75 22 -14 36 -14
113 -3 48 6 109 14 136 16 l47 5 0 -336 0 -335 -82 -66 c-46 -36 -109 -86
-141 -111 -58 -47 -78 -84 -60 -113 20 -33 58 -24 120 26 32 26 71 57 85 68
192 144 327 261 334 290 18 73 -45 90 -108 28 l-38 -37 0 301 0 301 68 11 c37
5 90 13 117 16 28 3 58 8 68 11 23 7 40 40 32 64 -12 37 -37 41 -160 24 -64
-9 -118 -14 -121 -12 -2 3 -4 101 -4 219 -1 148 -5 223 -13 239 -17 34 -60 38
-81 8z"/>
<path d="M2030 1850 c-63 -10 -203 -32 -310 -49 -497 -78 -588 -91 -639 -91
-74 0 -106 -17 -106 -55 0 -21 7 -33 25 -42 46 -23 48 -23 625 68 105 16 249
39 320 50 253 38 275 46 275 94 0 50 -18 52 -190 25z"/>
<path d="M1396 1429 c-38 -5 -94 -15 -125 -23 -31 -8 -94 -20 -141 -27 -103
-15 -138 -31 -146 -66 -10 -37 4 -289 19 -347 6 -27 20 -54 29 -60 33 -20 468
25 501 52 14 12 29 182 31 359 1 117 -20 132 -168 112z m61 -176 c-15 -181
-20 -212 -33 -217 -23 -9 -314 -30 -320 -23 -4 4 -9 63 -12 131 l-5 124 74 11
c41 7 103 18 139 26 75 17 105 22 139 24 24 1 24 1 18 -76z"/>
</g>
</svg>
