<?xml version="1.0" standalone="no"?>
<!DOCTYPE svg PUBLIC "-//W3C//DTD SVG 20010904//EN"
 "http://www.w3.org/TR/2001/REC-SVG-20010904/DTD/svg10.dtd">
<svg version="1.0" xmlns="http://www.w3.org/2000/svg"
 width="248.000000pt" height="248.000000pt" viewBox="0 0 248.000000 248.000000"
 preserveAspectRatio="xMidYMid meet">
<metadata>
Created by potrace 1.10, written by Peter Selinger 2001-2011
</metadata>
<g transform="translate(0.000000,248.000000) scale(0.100000,-0.100000)"
fill="#000000" stroke="none">
<path d="M715 2259 c-33 -4 -103 -15 -155 -24 -52 -8 -147 -22 -210 -31 -132
-18 -163 -32 -158 -72 5 -48 36 -53 183 -31 209 31 259 38 274 39 8 0 -4 -19
-26 -42 -112 -118 -163 -189 -163 -226 0 -11 21 -44 46 -74 86 -99 124 -214
124 -374 0 -92 -3 -107 -28 -155 -15 -29 -32 -54 -38 -56 -7 -2 -28 19 -48 47
-25 35 -43 50 -59 50 -55 0 -62 -54 -16 -123 71 -108 131 -125 194 -56 61 68
98 159 103 255 9 160 -38 327 -124 445 -19 26 -34 49 -34 53 0 10 118 153 143
173 55 45 117 126 117 154 0 27 -31 61 -55 58 -5 -1 -37 -5 -70 -10z"/>
</g>
</svg>
