<?xml version="1.0" standalone="no"?>
<!DOCTYPE svg PUBLIC "-//W3C//DTD SVG 20010904//EN"
 "http://www.w3.org/TR/2001/REC-SVG-20010904/DTD/svg10.dtd">
<svg version="1.0" xmlns="http://www.w3.org/2000/svg"
 width="248.000000pt" height="248.000000pt" viewBox="0 0 248.000000 248.000000"
 preserveAspectRatio="xMidYMid meet">
<metadata>
Created by potrace 1.10, written by Peter Selinger 2001-2011
</metadata>
<g transform="translate(0.000000,248.000000) scale(0.100000,-0.100000)"
fill="#000000" stroke="none">
<path d="M1074 2214 c-219 -252 -407 -442 -673 -679 -215 -191 -271 -250 -271
-283 0 -33 16 -52 43 -52 11 0 75 52 146 118 69 65 191 176 271 248 170 154
319 304 495 501 l127 143 111 -116 c62 -64 139 -145 172 -181 79 -86 423 -413
511 -485 38 -32 94 -73 124 -91 30 -18 79 -48 108 -65 64 -39 86 -40 108 -7
15 23 15 27 0 50 -9 14 -26 31 -39 38 -147 88 -190 118 -270 184 -130 108
-694 677 -742 748 -33 48 -47 61 -71 63 -28 3 -41 -9 -150 -134z"/>
<path d="M1100 1653 c-118 -8 -226 -20 -240 -26 -18 -9 -25 -20 -25 -42 0 -51
31 -58 193 -45 75 6 206 14 291 19 132 7 156 11 168 27 16 23 16 35 -1 59 -18
25 -115 27 -386 8z"/>
</g>
</svg>
