<?xml version="1.0" standalone="no"?>
<!DOCTYPE svg PUBLIC "-//W3C//DTD SVG 20010904//EN"
 "http://www.w3.org/TR/2001/REC-SVG-20010904/DTD/svg10.dtd">
<svg version="1.0" xmlns="http://www.w3.org/2000/svg"
 width="248.000000pt" height="248.000000pt" viewBox="0 0 248.000000 248.000000"
 preserveAspectRatio="xMidYMid meet">
<metadata>
Created by potrace 1.10, written by Peter Selinger 2001-2011
</metadata>
<g transform="translate(0.000000,248.000000) scale(0.100000,-0.100000)"
fill="#000000" stroke="none">
<path d="M1074 2214 c-219 -252 -407 -442 -673 -679 -215 -191 -271 -250 -271
-283 0 -33 16 -52 43 -52 11 0 75 52 146 118 69 65 191 176 271 248 170 154
319 304 495 501 l127 143 111 -116 c62 -64 139 -145 172 -181 79 -86 423 -413
511 -485 38 -32 94 -73 124 -91 30 -18 79 -48 108 -65 64 -39 86 -40 108 -7
15 23 15 27 0 50 -9 14 -26 31 -39 38 -147 88 -190 118 -270 184 -130 108
-694 677 -742 748 -33 48 -47 61 -71 63 -28 3 -41 -9 -150 -134z"/>
<path d="M1176 1938 c-13 -18 -16 -51 -16 -150 0 -112 -2 -127 -17 -132 -10
-2 -73 -8 -139 -11 -142 -8 -169 -18 -169 -60 0 -56 30 -60 263 -38 l63 5 -7
-133 c-3 -74 -8 -136 -11 -139 -2 -2 -61 -8 -131 -12 -461 -26 -542 -41 -542
-103 0 -36 24 -49 78 -40 49 7 176 18 427 36 83 6 331 13 553 17 384 7 404 8
418 26 18 25 18 37 0 62 -14 18 -29 19 -350 19 l-336 0 0 70 c0 39 3 100 6
136 l7 67 99 4 c84 3 102 7 114 23 18 24 18 36 0 61 -13 17 -27 19 -115 19
l-101 0 0 125 c0 138 -10 170 -55 170 -13 0 -31 -10 -39 -22z"/>
<path d="M1170 1049 c-216 -16 -404 -40 -429 -56 l-23 -15 7 -156 c7 -176 48
-455 71 -490 11 -16 23 -22 41 -20 45 5 49 26 29 155 -18 120 -43 430 -34 438
14 14 299 37 537 42 l274 6 -6 -79 c-13 -165 -29 -280 -52 -380 -35 -148 -32
-194 15 -194 38 0 51 26 84 170 36 152 61 345 61 467 0 62 -4 76 -23 95 -22
22 -29 23 -230 24 -114 1 -259 -2 -322 -7z"/>
</g>
</svg>
