<?xml version="1.0" standalone="no"?>
<!DOCTYPE svg PUBLIC "-//W3C//DTD SVG 20010904//EN"
 "http://www.w3.org/TR/2001/REC-SVG-20010904/DTD/svg10.dtd">
<svg version="1.0" xmlns="http://www.w3.org/2000/svg"
 width="248.000000pt" height="248.000000pt" viewBox="0 0 248.000000 248.000000"
 preserveAspectRatio="xMidYMid meet">
<metadata>
Created by potrace 1.10, written by Peter Selinger 2001-2011
</metadata>
<g transform="translate(0.000000,248.000000) scale(0.100000,-0.100000)"
fill="#000000" stroke="none">
<path d="M1180 2405 c-9 -11 -11 -46 -5 -138 l7 -123 -219 -23 c-132 -14 -227
-29 -240 -37 -30 -19 -30 -59 0 -78 20 -13 45 -12 236 9 118 13 218 22 223 19
4 -3 8 -41 8 -85 0 -69 -2 -79 -17 -79 -10 0 -96 -9 -192 -20 -185 -21 -221
-33 -221 -74 0 -40 22 -49 108 -43 91 7 243 24 291 32 l34 6 -7 -83 c-4 -45
-10 -86 -14 -89 -7 -7 -133 -23 -312 -39 -58 -6 -166 -17 -240 -26 -74 -8
-170 -19 -212 -23 -43 -5 -85 -14 -93 -21 -23 -19 -18 -57 10 -76 26 -17 2
-19 630 52 77 8 196 22 265 29 69 8 186 21 260 29 74 8 234 20 355 26 121 6
234 13 250 16 39 8 65 32 65 59 0 47 -13 48 -258 36 -125 -7 -245 -14 -267
-16 -22 -3 -100 -12 -173 -20 -74 -8 -140 -15 -148 -15 -15 0 -18 45 -8 122
l6 45 147 17 c80 10 156 24 169 32 29 19 29 59 -1 79 -21 13 -35 13 -128 0
-57 -8 -123 -17 -146 -21 l-43 -5 0 48 c0 26 -3 65 -6 86 -6 35 -5 37 21 37
16 0 78 6 139 14 61 8 148 19 193 24 93 11 133 31 133 66 0 54 -12 54 -329 15
-85 -10 -155 -18 -157 -16 -1 1 -6 51 -12 110 -7 67 -17 118 -26 133 -19 27
-57 32 -76 9z"/>
<path d="M1550 1364 c-27 -7 -433 -37 -556 -41 -121 -5 -122 -5 -158 -38 -35
-32 -36 -35 -36 -105 0 -89 -20 -168 -110 -435 -73 -215 -84 -271 -61 -299 18
-21 36 -20 90 6 42 20 63 22 311 26 219 4 284 2 365 -12 55 -10 101 -19 103
-21 5 -4 -74 -181 -94 -213 l-15 -23 -30 26 c-17 14 -37 25 -45 25 -18 0 -54
-36 -54 -54 0 -15 68 -100 98 -123 52 -42 96 5 182 195 40 86 71 142 79 142
28 0 167 -42 199 -61 45 -26 78 -24 97 5 33 50 -19 89 -178 135 -49 14 -89 28
-90 31 -1 7 38 179 70 305 66 263 97 422 91 475 -4 49 -32 60 -148 59 -52 -1
-102 -3 -110 -5z m150 -124 c0 -20 -39 -196 -83 -375 -13 -55 -35 -144 -48
-197 -12 -54 -26 -103 -29 -109 -5 -8 -37 -5 -111 8 -81 14 -155 18 -334 18
-126 0 -258 -3 -292 -7 l-61 -8 54 163 c71 211 104 335 111 417 5 64 7 67 30
62 22 -4 201 9 488 37 50 4 132 9 183 10 85 1 92 0 92 -19z"/>
</g>
</svg>
