<?xml version="1.0" standalone="no"?>
<!DOCTYPE svg PUBLIC "-//W3C//DTD SVG 20010904//EN"
 "http://www.w3.org/TR/2001/REC-SVG-20010904/DTD/svg10.dtd">
<svg version="1.0" xmlns="http://www.w3.org/2000/svg"
 width="248.000000pt" height="248.000000pt" viewBox="0 0 248.000000 248.000000"
 preserveAspectRatio="xMidYMid meet">
<metadata>
Created by potrace 1.10, written by Peter Selinger 2001-2011
</metadata>
<g transform="translate(0.000000,248.000000) scale(0.100000,-0.100000)"
fill="#000000" stroke="none">
<path d="M1655 2193 c-110 -13 -381 -43 -435 -48 -243 -20 -478 -49 -497 -61
-30 -19 -30 -59 0 -78 20 -14 41 -13 191 4 93 11 226 24 295 30 69 5 182 17
251 25 69 9 158 20 198 24 83 10 122 31 122 64 0 44 -27 52 -125 40z"/>
</g>
</svg>
