<?xml version="1.0" standalone="no"?>
<!DOCTYPE svg PUBLIC "-//W3C//DTD SVG 20010904//EN"
 "http://www.w3.org/TR/2001/REC-SVG-20010904/DTD/svg10.dtd">
<svg version="1.0" xmlns="http://www.w3.org/2000/svg"
 width="248.000000pt" height="248.000000pt" viewBox="0 0 248.000000 248.000000"
 preserveAspectRatio="xMidYMid meet">
<metadata>
Created by potrace 1.10, written by Peter Selinger 2001-2011
</metadata>
<g transform="translate(0.000000,248.000000) scale(0.100000,-0.100000)"
fill="#000000" stroke="none">
<path d="M1182 2398 c-8 -8 -12 -53 -13 -132 -1 -67 -4 -146 -7 -176 l-7 -55
-60 -7 c-81 -10 -233 -26 -394 -42 -156 -16 -169 -24 -165 -98 1 -23 7 -160
13 -303 5 -143 13 -279 16 -302 6 -41 6 -42 -27 -47 -56 -8 -200 -25 -257 -30
-65 -6 -101 -28 -101 -60 0 -42 22 -49 123 -43 97 6 213 20 312 37 79 14 429
49 434 44 14 -13 -79 -276 -144 -409 l-72 -150 -144 -146 c-84 -85 -178 -170
-225 -202 -47 -33 -84 -66 -87 -78 -8 -28 7 -56 34 -64 21 -7 25 -5 169 98 67
49 260 241 318 319 63 83 155 274 198 410 21 65 41 117 45 116 8 -4 149 -166
209 -242 47 -59 211 -214 319 -301 35 -27 88 -71 119 -97 194 -162 426 -294
551 -314 35 -6 41 -3 56 20 16 23 16 28 2 49 -8 13 -34 29 -58 36 -110 32
-314 147 -421 237 -25 22 -87 73 -138 114 -169 138 -270 231 -338 312 -37 44
-103 121 -146 171 -44 51 -86 100 -95 110 -22 27 -1 37 79 37 36 0 112 7 170
15 201 28 366 46 580 61 118 9 226 21 240 28 30 13 38 57 15 76 -19 16 -72 17
-243 6 l-133 -8 6 108 c4 60 11 153 16 208 12 128 12 328 -1 360 -10 27 -75
52 -109 41 -20 -6 -172 -21 -351 -35 -69 -5 -141 -13 -162 -16 l-36 -6 1 160
c2 144 0 162 -17 181 -21 23 -55 28 -74 9z m645 -570 c-6 -168 -24 -449 -29
-454 -12 -11 -607 -68 -616 -59 -3 2 2 42 11 87 28 147 46 280 53 400 4 64 10
121 14 128 8 14 92 25 295 41 83 7 168 15 190 19 22 4 51 8 64 9 l24 1 -6
-172z m-677 90 c-2 -131 -68 -601 -86 -618 -10 -8 -382 -45 -389 -38 -3 2 -7
103 -10 224 -3 120 -11 254 -16 298 -6 43 -7 82 -2 86 4 4 67 13 138 20 116
11 338 35 358 39 4 0 7 -5 7 -11z"/>
</g>
</svg>
