<?xml version="1.0" standalone="no"?>
<!DOCTYPE svg PUBLIC "-//W3C//DTD SVG 20010904//EN"
 "http://www.w3.org/TR/2001/REC-SVG-20010904/DTD/svg10.dtd">
<svg version="1.0" xmlns="http://www.w3.org/2000/svg"
 width="248.000000pt" height="248.000000pt" viewBox="0 0 248.000000 248.000000"
 preserveAspectRatio="xMidYMid meet">
<metadata>
Created by potrace 1.10, written by Peter Selinger 2001-2011
</metadata>
<g transform="translate(0.000000,248.000000) scale(0.100000,-0.100000)"
fill="#000000" stroke="none">
<path d="M1850 2274 c-8 -2 -107 -10 -220 -19 -270 -20 -394 -32 -515 -50 -96
-14 -151 -20 -458 -49 -113 -11 -142 -17 -158 -33 -19 -19 -20 -40 -19 -906 0
-487 3 -894 7 -904 16 -47 64 -68 91 -41 9 9 12 159 12 615 l0 603 28 0 c15 0
81 9 147 20 66 11 183 25 260 30 77 6 203 17 280 26 77 8 200 19 274 24 73 6
138 13 144 17 16 10 1 -90 -44 -300 -39 -179 -40 -189 -24 -213 21 -33 64 -30
82 6 26 54 113 515 105 557 -5 28 -38 52 -73 54 -21 1 -151 -9 -346 -28 l-63
-5 0 158 c0 88 -3 189 -6 225 l-7 67 89 7 c370 27 524 43 538 55 23 18 20 56
-6 74 -20 14 -79 19 -118 10z m-606 -200 c3 -26 6 -129 6 -229 l0 -183 -117
-6 c-65 -4 -188 -16 -273 -28 -85 -12 -181 -23 -212 -26 l-58 -4 0 190 c0 104
-3 203 -6 220 -7 34 -26 28 181 52 337 38 405 46 466 59 4 0 9 -20 13 -45z"/>
</g>
</svg>
