<?xml version="1.0" standalone="no"?>
<!DOCTYPE svg PUBLIC "-//W3C//DTD SVG 20010904//EN"
 "http://www.w3.org/TR/2001/REC-SVG-20010904/DTD/svg10.dtd">
<svg version="1.0" xmlns="http://www.w3.org/2000/svg"
 width="248.000000pt" height="248.000000pt" viewBox="0 0 248.000000 248.000000"
 preserveAspectRatio="xMidYMid meet">
<metadata>
Created by potrace 1.10, written by Peter Selinger 2001-2011
</metadata>
<g transform="translate(0.000000,248.000000) scale(0.100000,-0.100000)"
fill="#000000" stroke="none">
<path d="M1785 2100 c-22 -4 -107 -13 -190 -19 -82 -7 -244 -23 -360 -37 -212
-25 -290 -33 -534 -58 -156 -16 -169 -24 -165 -98 1 -23 7 -160 13 -303 5
-143 13 -279 16 -302 6 -41 6 -42 -27 -47 -56 -8 -200 -25 -257 -30 -65 -6
-101 -28 -101 -60 0 -42 22 -49 123 -43 50 3 142 13 202 22 191 27 333 43 575
64 224 21 329 32 610 66 69 9 222 23 340 31 118 9 226 21 240 28 30 13 38 57
15 76 -19 16 -72 17 -243 6 l-133 -8 6 108 c4 60 11 153 16 208 12 127 12 328
-1 360 -6 17 -21 28 -47 35 -42 12 -41 12 -98 1z m42 -272 c-6 -168 -24 -449
-29 -454 -3 -2 -362 -45 -428 -51 -25 -2 -190 -17 -368 -35 -177 -17 -324 -29
-327 -27 -2 3 -9 126 -15 274 -6 149 -12 286 -13 305 l-2 35 70 7 c169 17 301
31 450 50 88 10 210 23 270 28 180 14 339 30 344 35 2 3 15 5 29 5 l25 0 -6
-172z"/>
</g>
</svg>
