<?xml version="1.0" standalone="no"?>
<!DOCTYPE svg PUBLIC "-//W3C//DTD SVG 20010904//EN"
 "http://www.w3.org/TR/2001/REC-SVG-20010904/DTD/svg10.dtd">
<svg version="1.0" xmlns="http://www.w3.org/2000/svg"
 width="248.000000pt" height="248.000000pt" viewBox="0 0 248.000000 248.000000"
 preserveAspectRatio="xMidYMid meet">
<metadata>
Created by potrace 1.10, written by Peter Selinger 2001-2011
</metadata>
<g transform="translate(0.000000,248.000000) scale(0.100000,-0.100000)"
fill="#000000" stroke="none">
<path d="M1850 2274 c-8 -2 -107 -10 -220 -19 -270 -20 -394 -32 -515 -50 -96
-14 -151 -20 -458 -49 -113 -11 -142 -17 -158 -33 -19 -19 -20 -40 -19 -906 0
-487 3 -894 7 -904 17 -48 67 -70 92 -39 9 10 11 241 9 889 l-3 876 45 5 c55
7 179 21 364 41 77 9 142 17 145 19 7 4 259 27 598 55 232 18 253 24 253 67 0
42 -68 65 -140 48z"/>
</g>
</svg>
