<?xml version="1.0" standalone="no"?>
<!DOCTYPE svg PUBLIC "-//W3C//DTD SVG 20010904//EN"
 "http://www.w3.org/TR/2001/REC-SVG-20010904/DTD/svg10.dtd">
<svg version="1.0" xmlns="http://www.w3.org/2000/svg"
 width="248.000000pt" height="248.000000pt" viewBox="0 0 248.000000 248.000000"
 preserveAspectRatio="xMidYMid meet">
<metadata>
Created by potrace 1.10, written by Peter Selinger 2001-2011
</metadata>
<g transform="translate(0.000000,248.000000) scale(0.100000,-0.100000)"
fill="#000000" stroke="none">
<path d="M568 2143 c-9 -10 -19 -29 -23 -43 -4 -14 -27 -63 -50 -110 -23 -47
-55 -114 -71 -150 -51 -113 -174 -353 -208 -405 -80 -121 -146 -229 -146 -237
0 -26 23 -48 49 -48 32 0 41 10 102 102 124 190 182 293 276 498 41 91 90 193
109 228 38 73 53 144 34 167 -17 20 -53 19 -72 -2z"/>
</g>
</svg>
