<?xml version="1.0" standalone="no"?>
<!DOCTYPE svg PUBLIC "-//W3C//DTD SVG 20010904//EN"
 "http://www.w3.org/TR/2001/REC-SVG-20010904/DTD/svg10.dtd">
<svg version="1.0" xmlns="http://www.w3.org/2000/svg"
 width="248.000000pt" height="248.000000pt" viewBox="0 0 248.000000 248.000000"
 preserveAspectRatio="xMidYMid meet">
<metadata>
Created by potrace 1.10, written by Peter Selinger 2001-2011
</metadata>
<g transform="translate(0.000000,248.000000) scale(0.100000,-0.100000)"
fill="#000000" stroke="none">
<path d="M582 2248 c-22 -22 -12 -53 37 -118 68 -91 164 -180 193 -180 31 0
48 18 48 50 0 18 -20 44 -66 90 -36 36 -81 86 -100 111 -43 59 -83 76 -112 47z"/>
<path d="M830 1864 c-179 -45 -298 -64 -399 -64 -114 0 -131 -6 -131 -47 0
-42 41 -57 159 -57 98 0 139 6 329 49 22 5 21 1 -18 -53 -48 -69 -171 -190
-285 -280 -122 -96 -213 -166 -293 -227 -79 -60 -87 -72 -78 -109 14 -55 55
-43 171 48 123 97 266 206 270 206 3 0 5 -251 5 -557 0 -610 0 -608 55 -608
56 0 55 -5 53 630 -2 319 -7 587 -11 596 -6 11 10 32 58 80 59 56 109 117 232
277 35 46 44 97 21 120 -15 15 -68 14 -138 -4z"/>
</g>
</svg>
