<?xml version="1.0" standalone="no"?>
<!DOCTYPE svg PUBLIC "-//W3C//DTD SVG 20010904//EN"
 "http://www.w3.org/TR/2001/REC-SVG-20010904/DTD/svg10.dtd">
<svg version="1.0" xmlns="http://www.w3.org/2000/svg"
 width="248.000000pt" height="248.000000pt" viewBox="0 0 248.000000 248.000000"
 preserveAspectRatio="xMidYMid meet">
<metadata>
Created by potrace 1.10, written by Peter Selinger 2001-2011
</metadata>
<g transform="translate(0.000000,248.000000) scale(0.100000,-0.100000)"
fill="#000000" stroke="none">
<path d="M568 2143 c-9 -10 -19 -29 -23 -43 -4 -14 -27 -63 -50 -110 -23 -47
-55 -114 -71 -150 -51 -113 -174 -353 -208 -405 -80 -121 -146 -229 -146 -237
0 -26 23 -48 49 -48 32 0 41 10 102 102 130 199 171 273 289 527 52 112 100
206 106 208 6 2 53 -47 105 -108 173 -206 226 -264 307 -341 70 -67 87 -78
117 -78 29 0 37 5 45 26 6 14 7 31 3 38 -5 6 -47 49 -95 94 -48 44 -118 117
-155 161 -171 200 -211 249 -261 313 -56 72 -84 85 -114 51z"/>
</g>
</svg>
