<?xml version="1.0" standalone="no"?>
<!DOCTYPE svg PUBLIC "-//W3C//DTD SVG 20010904//EN"
 "http://www.w3.org/TR/2001/REC-SVG-20010904/DTD/svg10.dtd">
<svg version="1.0" xmlns="http://www.w3.org/2000/svg"
 width="248.000000pt" height="248.000000pt" viewBox="0 0 248.000000 248.000000"
 preserveAspectRatio="xMidYMid meet">
<metadata>
Created by potrace 1.10, written by Peter Selinger 2001-2011
</metadata>
<g transform="translate(0.000000,248.000000) scale(0.100000,-0.100000)"
fill="#000000" stroke="none">
<path d="M582 2248 c-22 -22 -12 -53 37 -118 68 -91 164 -180 193 -180 31 0
48 18 48 50 0 18 -20 44 -66 90 -36 36 -81 86 -100 111 -43 59 -83 76 -112 47z"/>
<path d="M1820 2164 c-47 -7 -150 -22 -229 -33 -151 -21 -181 -34 -181 -76 0
-46 21 -50 158 -32 70 10 179 25 242 33 63 9 132 20 152 25 46 12 65 41 49 75
-9 21 -17 24 -58 23 -27 -1 -86 -7 -133 -15z"/>
<path d="M1855 1890 c-145 -19 -236 -30 -316 -40 -47 -5 -109 -14 -138 -20
-30 -5 -75 -10 -101 -10 -72 0 -75 -8 -56 -147 27 -188 35 -223 57 -231 10 -4
85 -2 166 5 82 6 256 17 388 23 190 9 244 15 257 27 18 16 38 97 59 240 10 68
10 87 -2 120 l-15 38 -119 1 c-66 1 -147 -2 -180 -6z m215 -112 c-1 -29 -28
-179 -34 -185 -3 -3 -43 -8 -88 -10 -46 -2 -192 -11 -326 -20 -143 -9 -247
-12 -252 -7 -4 5 -11 43 -15 85 l-7 76 84 12 c143 21 210 30 313 41 55 7 107
13 115 15 8 1 59 3 113 4 72 1 97 -2 97 -11z"/>
<path d="M830 1864 c-179 -45 -298 -64 -399 -64 -114 0 -131 -6 -131 -47 0
-42 41 -57 159 -57 98 0 139 6 329 49 22 5 21 1 -18 -53 -48 -69 -171 -190
-285 -280 -122 -96 -213 -166 -293 -227 -79 -60 -87 -72 -78 -109 14 -55 55
-43 171 48 123 97 266 206 270 206 3 0 5 -251 5 -557 0 -610 0 -608 55 -608
55 0 55 2 55 564 l0 513 28 -17 c40 -26 130 -94 188 -142 54 -46 83 -53 108
-27 38 37 10 72 -154 194 -167 123 -190 141 -190 149 0 4 30 37 66 72 58 56
108 117 231 277 35 46 44 97 21 120 -15 15 -68 14 -138 -4z"/>
<path d="M2030 1339 c-203 -10 -554 -37 -650 -50 -47 -5 -104 -12 -126 -15
-69 -8 -77 -26 -65 -136 6 -51 15 -235 21 -408 16 -465 23 -505 79 -498 46 5
52 36 41 209 -5 85 -10 187 -10 227 l0 72 160 0 160 0 0 -42 c-1 -24 -5 -131
-10 -238 -6 -136 -6 -198 2 -207 15 -18 52 -16 71 5 21 24 37 119 37 226 0 50
3 128 7 174 l6 82 195 0 195 0 -7 -167 c-4 -92 -12 -203 -17 -246 -14 -116 5
-163 63 -149 9 2 21 18 27 36 35 117 71 1019 42 1089 -10 26 -48 49 -74 45 -7
-1 -73 -5 -147 -9z m123 -296 c-3 -109 -6 -198 -7 -198 0 0 -86 1 -191 3
l-190 3 1 182 c1 116 5 182 11 184 6 2 87 8 179 12 93 4 176 9 186 9 15 2 16
-15 11 -195z m-499 151 c8 -21 8 -273 0 -313 l-6 -31 -169 0 -169 0 0 78 c0
42 -3 114 -6 159 -8 98 -24 88 181 107 77 8 145 14 151 15 7 0 15 -6 18 -15z"/>
</g>
</svg>
