<?xml version="1.0" standalone="no"?>
<!DOCTYPE svg PUBLIC "-//W3C//DTD SVG 20010904//EN"
 "http://www.w3.org/TR/2001/REC-SVG-20010904/DTD/svg10.dtd">
<svg version="1.0" xmlns="http://www.w3.org/2000/svg"
 width="248.000000pt" height="248.000000pt" viewBox="0 0 248.000000 248.000000"
 preserveAspectRatio="xMidYMid meet">
<metadata>
Created by potrace 1.10, written by Peter Selinger 2001-2011
</metadata>
<g transform="translate(0.000000,248.000000) scale(0.100000,-0.100000)"
fill="#000000" stroke="none">
<path d="M2065 2300 c-44 -4 -89 -10 -100 -13 -11 -4 -69 -11 -130 -17 -335
-30 -465 -49 -490 -70 -23 -19 -18 -57 11 -76 21 -15 33 -15 77 -6 50 11 76
14 215 27 l63 6 -18 -28 c-32 -51 -94 -127 -159 -195 -51 -54 -70 -68 -94 -68
-43 0 -78 -19 -85 -47 -6 -24 9 -807 21 -1069 7 -161 16 -189 59 -189 52 0 55
16 45 350 -5 165 -10 423 -12 574 l-3 275 100 18 c55 10 143 23 195 28 104 11
231 26 298 36 l43 6 -2 -438 c-2 -548 9 -814 36 -844 10 -11 28 -20 40 -20 47
0 49 13 39 268 -5 130 -7 420 -5 643 2 292 0 416 -8 442 -17 51 -49 61 -150
48 -176 -24 -239 -31 -315 -37 l-79 -7 32 44 c17 24 51 70 76 103 24 32 47 71
50 87 8 34 10 34 150 49 213 22 245 32 245 75 0 44 -33 55 -145 45z"/>
<path d="M568 2143 c-9 -10 -19 -29 -23 -43 -4 -14 -27 -63 -50 -110 -23 -47
-55 -114 -71 -150 -51 -113 -174 -353 -208 -405 -80 -121 -146 -229 -146 -237
0 -26 23 -48 49 -48 32 0 41 10 102 102 130 199 171 273 289 527 52 112 100
206 106 208 6 2 53 -47 105 -108 173 -206 226 -264 307 -341 70 -67 87 -78
117 -78 29 0 37 5 45 26 6 14 7 31 3 38 -5 6 -47 49 -95 94 -48 44 -118 117
-155 161 -171 200 -211 249 -261 313 -56 72 -84 85 -114 51z"/>
<path d="M552 1578 c-28 -28 -12 -56 73 -132 123 -109 168 -127 195 -75 14 25
1 48 -47 85 -21 15 -42 34 -48 40 -5 7 -32 31 -60 53 -50 42 -90 52 -113 29z"/>
<path d="M855 1235 c-184 -31 -485 -105 -512 -127 -21 -17 -15 -56 11 -73 25
-17 43 -15 126 11 37 11 164 41 353 81 l29 6 -52 -99 c-28 -54 -73 -135 -101
-179 -27 -44 -63 -106 -79 -137 -17 -32 -34 -58 -38 -58 -4 0 -26 18 -47 40
-54 55 -105 51 -105 -8 0 -25 29 -65 133 -182 32 -36 79 -97 103 -137 25 -40
54 -75 64 -78 25 -8 57 10 65 35 7 22 -44 116 -102 187 l-37 44 28 57 c15 31
61 112 102 179 140 230 206 390 175 427 -18 21 -40 23 -116 11z"/>
</g>
</svg>
