<?xml version="1.0" standalone="no"?>
<!DOCTYPE svg PUBLIC "-//W3C//DTD SVG 20010904//EN"
 "http://www.w3.org/TR/2001/REC-SVG-20010904/DTD/svg10.dtd">
<svg version="1.0" xmlns="http://www.w3.org/2000/svg"
 width="248.000000pt" height="248.000000pt" viewBox="0 0 248.000000 248.000000"
 preserveAspectRatio="xMidYMid meet">
<metadata>
Created by potrace 1.10, written by Peter Selinger 2001-2011
</metadata>
<g transform="translate(0.000000,248.000000) scale(0.100000,-0.100000)"
fill="#000000" stroke="none">
<path d="M1212 2398 c-6 -9 -7 -102 -1 -278 4 -146 8 -286 8 -311 l1 -46 -132
-18 c-73 -9 -186 -20 -251 -24 -101 -6 -121 -10 -139 -28 -20 -20 -20 -25 -10
-115 6 -51 14 -133 17 -183 8 -123 34 -275 52 -303 19 -31 63 -27 79 8 9 19 8
45 -4 112 -8 49 -13 90 -11 92 2 3 38 6 79 6 72 2 281 18 495 39 55 5 173 13
263 16 153 7 162 6 162 -12 -1 -10 -7 -63 -14 -118 -7 -54 -11 -108 -8 -120 5
-22 29 -45 47 -45 35 0 45 27 69 185 14 88 39 225 55 305 35 167 38 212 14
231 -21 18 -142 18 -426 0 -119 -8 -219 -12 -221 -10 -2 2 -6 45 -9 95 l-7 92
43 10 c23 6 92 16 152 22 61 6 117 13 125 15 8 3 78 14 154 25 147 21 176 34
176 75 0 53 -24 54 -280 15 -69 -10 -163 -23 -210 -29 -47 -6 -102 -14 -122
-17 l-38 -7 0 90 c0 106 -16 201 -37 226 -19 20 -56 23 -71 5z m678 -705 c0
-12 -40 -206 -43 -209 -1 -1 -103 -7 -227 -13 -124 -7 -254 -16 -290 -21 -67
-9 -279 -26 -431 -34 l-86 -5 -7 77 c-4 42 -9 87 -12 98 -5 20 0 22 78 28 46
4 110 11 143 16 165 25 319 41 510 51 115 5 212 12 214 15 8 7 151 4 151 -3z"/>
</g>
</svg>
