<?xml version="1.0" standalone="no"?>
<!DOCTYPE svg PUBLIC "-//W3C//DTD SVG 20010904//EN"
 "http://www.w3.org/TR/2001/REC-SVG-20010904/DTD/svg10.dtd">
<svg version="1.0" xmlns="http://www.w3.org/2000/svg"
 width="248.000000pt" height="248.000000pt" viewBox="0 0 248.000000 248.000000"
 preserveAspectRatio="xMidYMid meet">
<metadata>
Created by potrace 1.10, written by Peter Selinger 2001-2011
</metadata>
<g transform="translate(0.000000,248.000000) scale(0.100000,-0.100000)"
fill="#000000" stroke="none">
<path d="M513 2158 c-5 -7 -15 -49 -22 -93 -7 -44 -25 -129 -41 -190 -15 -60
-37 -150 -48 -200 -74 -318 -75 -321 -188 -665 -49 -150 -48 -159 28 -211 35
-24 77 -52 93 -63 53 -37 104 -78 148 -118 23 -22 71 -64 107 -93 111 -92 215
-197 273 -277 59 -80 83 -96 117 -78 39 21 26 62 -55 169 -41 55 -79 101 -84
103 -5 2 -40 32 -78 68 -37 36 -88 81 -113 101 -25 20 -78 66 -118 102 -41 37
-112 92 -158 123 -46 31 -84 59 -84 62 0 3 31 103 69 221 39 119 82 266 96
326 40 172 64 274 82 350 8 39 22 90 29 115 17 59 34 156 34 195 0 51 -61 87
-87 53z"/>
</g>
</svg>
