<?xml version="1.0" standalone="no"?>
<!DOCTYPE svg PUBLIC "-//W3C//DTD SVG 20010904//EN"
 "http://www.w3.org/TR/2001/REC-SVG-20010904/DTD/svg10.dtd">
<svg version="1.0" xmlns="http://www.w3.org/2000/svg"
 width="248.000000pt" height="248.000000pt" viewBox="0 0 248.000000 248.000000"
 preserveAspectRatio="xMidYMid meet">
<metadata>
Created by potrace 1.10, written by Peter Selinger 2001-2011
</metadata>
<g transform="translate(0.000000,248.000000) scale(0.100000,-0.100000)"
fill="#000000" stroke="none">
<path d="M1410 2239 c-361 -8 -568 -32 -637 -75 -24 -15 -31 -52 -13 -70 21
-21 30 -202 35 -656 3 -253 7 -464 11 -469 8 -14 60 -11 73 5 9 10 12 117 11
389 l0 375 37 6 c36 6 184 22 428 46 61 6 148 15 195 20 46 5 88 6 92 2 4 -4
1 -77 -7 -162 -9 -85 -16 -191 -16 -235 0 -44 -7 -129 -16 -190 -8 -60 -17
-128 -20 -151 -8 -64 35 -96 76 -55 24 24 40 119 51 304 5 82 14 205 19 275 6
70 15 206 21 302 6 96 15 193 21 215 21 81 22 95 4 115 -10 11 -25 19 -34 18
-9 -1 -158 -5 -331 -9z m253 -96 c7 -11 -12 -206 -21 -215 -7 -7 -98 -19 -297
-38 -60 -6 -175 -18 -255 -26 -80 -8 -158 -16 -175 -17 l-30 -2 -3 119 c-1 66
1 123 5 127 10 10 199 37 333 48 136 11 437 13 443 4z"/>
</g>
</svg>
