<?xml version="1.0" standalone="no"?>
<!DOCTYPE svg PUBLIC "-//W3C//DTD SVG 20010904//EN"
 "http://www.w3.org/TR/2001/REC-SVG-20010904/DTD/svg10.dtd">
<svg version="1.0" xmlns="http://www.w3.org/2000/svg"
 width="248.000000pt" height="248.000000pt" viewBox="0 0 248.000000 248.000000"
 preserveAspectRatio="xMidYMid meet">
<metadata>
Created by potrace 1.10, written by Peter Selinger 2001-2011
</metadata>
<g transform="translate(0.000000,248.000000) scale(0.100000,-0.100000)"
fill="#000000" stroke="none">
<path d="M1410 2239 c-361 -8 -568 -32 -637 -75 -24 -15 -31 -52 -13 -70 21
-21 30 -202 35 -656 3 -253 7 -464 11 -469 8 -14 60 -11 74 5 8 11 11 71 11
203 -1 103 2 193 6 199 5 7 52 14 118 17 61 2 160 12 220 20 91 13 211 23 355
31 22 1 25 -3 28 -39 4 -42 -12 -191 -30 -287 -12 -67 -5 -104 22 -113 30 -10
58 12 69 53 17 61 35 277 71 852 6 91 16 183 21 205 21 82 22 95 4 115 -10 11
-25 19 -34 18 -9 -1 -158 -5 -331 -9z m253 -96 c7 -11 -12 -206 -21 -215 -7
-7 -98 -19 -297 -38 -60 -6 -175 -18 -255 -26 -80 -8 -158 -16 -175 -17 l-30
-2 -3 119 c-1 66 1 123 5 127 10 10 199 37 333 48 136 11 437 13 443 4z m-19
-331 c7 -11 -15 -255 -23 -263 -3 -4 -87 -12 -186 -18 -99 -6 -243 -20 -320
-31 -144 -22 -205 -23 -217 -5 -4 5 -8 62 -8 127 l0 116 38 6 c36 6 203 24
432 46 63 6 144 15 180 19 93 12 98 12 104 3z"/>
</g>
</svg>
