<?xml version="1.0" standalone="no"?>
<!DOCTYPE svg PUBLIC "-//W3C//DTD SVG 20010904//EN"
 "http://www.w3.org/TR/2001/REC-SVG-20010904/DTD/svg10.dtd">
<svg version="1.0" xmlns="http://www.w3.org/2000/svg"
 width="248.000000pt" height="248.000000pt" viewBox="0 0 248.000000 248.000000"
 preserveAspectRatio="xMidYMid meet">
<metadata>
Created by potrace 1.10, written by Peter Selinger 2001-2011
</metadata>
<g transform="translate(0.000000,248.000000) scale(0.100000,-0.100000)"
fill="#000000" stroke="none">
<path d="M1522 2368 c-8 -8 -12 -66 -12 -193 l0 -182 -97 -16 c-54 -9 -143
-22 -198 -28 -111 -12 -145 -27 -145 -64 0 -15 9 -30 23 -39 25 -16 132 -8
310 24 l97 17 0 -143 0 -143 -47 -6 c-27 -4 -127 -22 -223 -41 -96 -19 -198
-34 -226 -34 -85 0 -85 4 -60 -249 16 -175 28 -211 70 -211 47 0 51 18 38 188
-6 86 -9 158 -7 161 3 2 67 16 143 31 l137 27 5 -168 c3 -92 10 -172 15 -177
23 -22 54 -23 74 -3 20 20 21 33 21 194 l0 173 93 13 c50 8 107 16 126 19 l34
5 -4 -163 c-4 -178 -1 -190 53 -177 37 10 48 51 55 214 6 132 7 142 27 148 33
9 385 30 392 23 8 -9 -21 -169 -41 -223 -8 -22 -14 -61 -15 -88 0 -40 3 -49
24 -58 31 -15 64 3 72 39 3 15 14 56 25 92 10 36 23 94 28 130 6 36 15 79 19
95 14 48 1 78 -43 100 -57 29 -252 25 -485 -9 -95 -14 -178 -26 -182 -26 -4 0
-8 63 -8 139 0 124 2 140 18 145 34 10 289 56 360 65 40 5 80 15 88 22 24 19
13 62 -19 77 -31 15 -81 9 -305 -34 -68 -13 -125 -24 -127 -24 -2 0 -5 74 -6
164 -4 144 -6 166 -23 185 -21 23 -56 27 -74 9z"/>
<path d="M705 2318 c-9 -13 -57 -86 -107 -163 -49 -77 -125 -180 -167 -230
-190 -223 -192 -226 -189 -252 4 -32 27 -48 59 -40 35 9 256 273 366 437 104
156 123 190 123 223 0 48 -56 65 -85 25z"/>
<path d="M714 1738 c-6 -7 -30 -51 -53 -98 -89 -174 -229 -377 -386 -560 -125
-145 -135 -159 -135 -186 0 -26 39 -58 62 -49 7 3 68 68 133 145 l120 140 5
-489 c5 -528 5 -525 59 -519 50 6 51 16 51 538 0 363 -4 497 -13 535 -13 49
-13 50 26 115 22 36 57 90 77 120 21 30 61 100 90 156 50 96 52 102 39 130
-15 32 -59 44 -75 22z"/>
</g>
</svg>
