<?xml version="1.0" standalone="no"?>
<!DOCTYPE svg PUBLIC "-//W3C//DTD SVG 20010904//EN"
 "http://www.w3.org/TR/2001/REC-SVG-20010904/DTD/svg10.dtd">
<svg version="1.0" xmlns="http://www.w3.org/2000/svg"
 width="248.000000pt" height="248.000000pt" viewBox="0 0 248.000000 248.000000"
 preserveAspectRatio="xMidYMid meet">
<metadata>
Created by potrace 1.10, written by Peter Selinger 2001-2011
</metadata>
<g transform="translate(0.000000,248.000000) scale(0.100000,-0.100000)"
fill="#000000" stroke="none">
<path d="M705 2318 c-9 -13 -57 -86 -107 -163 -49 -77 -125 -180 -167 -230
-190 -223 -192 -226 -189 -252 4 -32 27 -48 59 -40 35 9 256 273 366 437 104
156 123 190 123 223 0 48 -56 65 -85 25z"/>
<path d="M714 1738 c-6 -7 -30 -51 -53 -98 -89 -174 -229 -377 -386 -560 -125
-145 -135 -159 -135 -186 0 -26 39 -58 62 -49 7 3 68 68 133 145 l120 140 5
-489 c5 -528 5 -525 59 -519 50 6 51 16 51 532 0 325 -4 498 -12 536 -11 54
-10 58 17 106 16 27 50 81 76 119 25 39 70 115 99 171 50 96 52 102 39 130
-15 32 -59 44 -75 22z"/>
</g>
</svg>
