<?xml version="1.0" standalone="no"?>
<!DOCTYPE svg PUBLIC "-//W3C//DTD SVG 20010904//EN"
 "http://www.w3.org/TR/2001/REC-SVG-20010904/DTD/svg10.dtd">
<svg version="1.0" xmlns="http://www.w3.org/2000/svg"
 width="248.000000pt" height="248.000000pt" viewBox="0 0 248.000000 248.000000"
 preserveAspectRatio="xMidYMid meet">
<metadata>
Created by potrace 1.10, written by Peter Selinger 2001-2011
</metadata>
<g transform="translate(0.000000,248.000000) scale(0.100000,-0.100000)"
fill="#000000" stroke="none">
<path d="M1410 2239 c-361 -8 -568 -32 -637 -75 -24 -15 -31 -52 -13 -70 19
-19 29 -181 36 -604 4 -292 3 -427 -5 -455 -8 -32 -8 -44 4 -62 19 -28 46 -29
235 -7 274 31 544 51 572 42 30 -11 62 2 76 30 13 25 40 344 72 867 6 94 15
188 21 210 21 82 22 95 4 115 -10 11 -25 19 -34 18 -9 -1 -158 -5 -331 -9z
m253 -96 c7 -11 -12 -206 -21 -215 -7 -7 -98 -19 -297 -38 -60 -6 -175 -18
-255 -26 -80 -8 -158 -16 -175 -17 l-30 -2 -3 119 c-1 66 1 123 5 127 10 10
199 37 333 48 136 11 437 13 443 4z m-19 -331 c7 -11 -15 -255 -23 -263 -3 -4
-87 -12 -186 -18 -99 -6 -243 -20 -320 -31 -144 -22 -205 -23 -217 -5 -4 5 -8
62 -8 127 l0 116 38 6 c36 6 203 24 432 46 63 6 144 15 180 19 93 12 98 12
104 3z m-26 -413 c4 -63 -24 -270 -37 -279 -6 -3 -91 -12 -189 -19 -97 -7
-226 -19 -287 -26 -60 -8 -132 -15 -160 -17 l-50 -3 -3 145 c-1 80 0 155 3
166 4 20 13 22 117 27 62 2 163 12 223 20 61 9 162 19 225 23 63 3 117 8 120
11 2 2 11 2 20 1 10 -2 16 -17 18 -49z"/>
<path d="M1261 829 c-84 -4 -197 -12 -250 -18 -53 -6 -157 -15 -231 -21 -123
-10 -221 -21 -455 -51 -91 -12 -125 -29 -125 -63 0 -47 18 -51 178 -32 81 9
176 21 212 26 36 6 155 17 265 25 110 9 207 18 215 20 19 5 176 13 465 25 302
13 619 13 685 0 69 -13 105 2 105 45 0 54 -8 55 -480 53 -236 0 -499 -4 -584
-9z"/>
<path d="M1462 688 c-36 -36 -5 -72 192 -213 37 -28 98 -77 135 -110 37 -33
99 -87 138 -120 38 -33 85 -79 103 -102 19 -23 44 -44 57 -48 33 -8 63 11 63
39 0 30 -83 130 -159 192 -31 25 -78 67 -106 93 -46 43 -303 240 -350 268 -26
16 -58 16 -73 1z"/>
<path d="M976 638 c-9 -12 -16 -29 -16 -38 0 -30 -106 -155 -180 -212 -41 -32
-113 -76 -160 -99 -47 -23 -92 -45 -100 -49 -8 -4 -16 -17 -18 -29 -9 -61 64
-68 163 -16 171 89 315 219 378 342 20 37 22 94 5 111 -19 19 -55 14 -72 -10z"/>
</g>
</svg>
