<?xml version="1.0" standalone="no"?>
<!DOCTYPE svg PUBLIC "-//W3C//DTD SVG 20010904//EN"
 "http://www.w3.org/TR/2001/REC-SVG-20010904/DTD/svg10.dtd">
<svg version="1.0" xmlns="http://www.w3.org/2000/svg"
 width="248.000000pt" height="248.000000pt" viewBox="0 0 248.000000 248.000000"
 preserveAspectRatio="xMidYMid meet">
<metadata>
Created by potrace 1.10, written by Peter Selinger 2001-2011
</metadata>
<g transform="translate(0.000000,248.000000) scale(0.100000,-0.100000)"
fill="#000000" stroke="none">
<path d="M1522 2368 c-8 -8 -12 -66 -12 -193 l0 -182 -97 -16 c-54 -9 -143
-22 -198 -28 -111 -12 -145 -27 -145 -64 0 -15 9 -30 23 -39 25 -16 132 -8
310 24 l97 17 0 -143 0 -143 -47 -6 c-27 -4 -127 -22 -223 -41 -96 -19 -198
-34 -226 -34 -58 0 -78 -15 -77 -58 3 -106 34 -358 48 -378 21 -33 85 -48 144
-35 25 5 93 15 151 21 58 6 124 16 147 21 22 5 124 16 225 24 100 9 261 22
357 30 156 13 178 17 212 40 24 15 41 36 45 53 3 15 14 56 25 92 10 36 23 94
28 130 6 36 15 79 19 95 14 48 1 78 -43 100 -57 29 -252 25 -485 -9 -95 -14
-178 -26 -182 -26 -4 0 -8 63 -8 139 0 124 2 140 18 145 34 10 289 56 360 65
40 5 80 15 88 22 24 19 13 62 -19 77 -31 15 -81 9 -305 -34 -68 -13 -125 -24
-127 -24 -2 0 -5 74 -6 164 -4 144 -6 166 -23 185 -21 23 -56 27 -74 9z m698
-815 c-1 -22 -33 -171 -52 -238 l-14 -50 -120 -11 c-65 -7 -148 -12 -183 -13
l-64 -1 7 77 c3 42 6 109 6 149 l0 72 32 7 c42 10 201 22 306 24 72 1 82 -1
82 -16z m-532 -174 c-4 -96 -9 -144 -18 -149 -6 -4 -55 -11 -107 -14 -52 -4
-101 -10 -109 -13 -12 -4 -14 20 -14 141 l0 146 33 0 c17 1 61 7 97 14 36 8
78 14 94 15 l29 1 -5 -141z m-358 -53 l0 -144 -62 -6 c-35 -4 -94 -12 -131
-17 -38 -6 -70 -9 -72 -7 -6 6 -26 251 -20 256 3 3 67 18 143 33 75 15 138 28
140 28 1 1 2 -64 2 -143z"/>
<path d="M705 2318 c-9 -13 -57 -86 -107 -163 -49 -77 -125 -180 -167 -230
-190 -223 -192 -226 -189 -252 4 -32 27 -48 59 -40 35 9 256 273 366 437 104
156 123 190 123 223 0 48 -56 65 -85 25z"/>
<path d="M714 1738 c-6 -7 -30 -51 -53 -98 -89 -174 -229 -377 -386 -560 -125
-145 -135 -159 -135 -186 0 -26 39 -58 62 -49 7 3 68 68 133 145 l120 140 5
-489 c5 -528 5 -525 59 -519 50 6 51 16 51 538 0 363 -4 497 -13 535 -13 49
-13 50 26 115 22 36 57 90 77 120 21 30 61 100 90 156 50 96 52 102 39 130
-15 32 -59 44 -75 22z"/>
<path d="M1159 864 c-10 -13 -10 -33 4 -118 24 -149 57 -212 193 -363 131
-147 366 -239 660 -259 107 -8 158 0 185 27 17 17 19 33 19 137 0 125 -6 142
-47 142 -37 0 -56 -41 -57 -126 l-1 -74 -75 0 c-154 0 -305 37 -448 107 -101
51 -167 111 -256 236 -40 56 -48 77 -67 168 -11 57 -28 112 -36 122 -20 21
-56 22 -74 1z"/>
<path d="M1669 814 c-21 -26 -13 -80 20 -132 29 -45 110 -123 155 -149 31 -18
71 -15 90 6 27 30 17 63 -26 84 -48 24 -148 120 -148 144 0 51 -61 82 -91 47z"/>
<path d="M906 738 c-11 -15 -16 -45 -16 -93 0 -71 -21 -246 -42 -343 -14 -67
-4 -87 43 -87 50 0 54 12 93 275 29 192 18 270 -39 270 -13 0 -31 -10 -39 -22z"/>
</g>
</svg>
