<?xml version="1.0" standalone="no"?>
<!DOCTYPE svg PUBLIC "-//W3C//DTD SVG 20010904//EN"
 "http://www.w3.org/TR/2001/REC-SVG-20010904/DTD/svg10.dtd">
<svg version="1.0" xmlns="http://www.w3.org/2000/svg"
 width="248.000000pt" height="248.000000pt" viewBox="0 0 248.000000 248.000000"
 preserveAspectRatio="xMidYMid meet">
<metadata>
Created by potrace 1.10, written by Peter Selinger 2001-2011
</metadata>
<g transform="translate(0.000000,248.000000) scale(0.100000,-0.100000)"
fill="#000000" stroke="none">
<path d="M1746 2308 c-11 -18 -16 -81 -21 -261 -4 -131 -11 -252 -14 -270 l-7
-32 -109 -16 c-61 -9 -132 -20 -159 -24 -44 -7 -48 -6 -42 11 21 67 46 235 41
269 -7 47 -30 75 -60 75 -34 0 -45 -20 -45 -86 0 -147 -85 -436 -177 -601 -49
-89 -36 -146 29 -130 30 8 75 88 137 243 l40 99 93 17 c51 9 116 19 143 22 28
4 65 9 84 13 l34 6 -6 -49 c-12 -93 -45 -901 -49 -1205 -2 -169 3 -189 48
-189 14 0 30 10 40 26 15 22 19 68 25 312 21 811 37 1099 61 1113 7 4 39 10
72 14 124 14 299 45 312 56 40 33 -7 96 -63 85 -15 -3 -46 -8 -68 -11 -176
-25 -258 -36 -261 -33 -1 2 2 119 8 260 10 235 10 259 -6 282 -21 33 -60 34
-80 4z"/>
<path d="M513 2158 c-5 -7 -15 -49 -22 -93 -7 -44 -25 -129 -41 -190 -15 -60
-38 -155 -50 -210 -13 -55 -27 -105 -31 -110 -4 -6 -57 -26 -116 -44 -143 -44
-157 -51 -161 -83 -2 -19 4 -31 21 -43 23 -15 30 -15 84 -1 33 9 78 22 101 30
37 13 42 13 42 0 0 -14 -48 -170 -125 -404 -50 -150 -49 -159 27 -211 35 -24
77 -52 93 -63 52 -36 105 -78 151 -121 l46 -41 -54 -75 c-29 -41 -88 -109
-130 -153 -76 -76 -89 -102 -69 -135 34 -53 141 31 271 212 30 42 60 77 65 77
20 -1 193 -177 248 -252 31 -42 65 -79 76 -83 32 -10 61 11 61 45 0 38 -108
183 -198 265 -36 33 -82 75 -101 93 l-35 34 36 71 c139 276 239 577 308 929
l11 57 57 18 c71 21 94 39 90 71 -5 39 -29 48 -90 35 -48 -10 -54 -9 -66 9
-22 30 -64 20 -81 -19 -12 -27 -26 -37 -85 -59 -39 -15 -100 -38 -136 -51 -36
-14 -100 -35 -142 -47 l-78 -23 5 21 c21 97 58 250 69 291 19 65 36 160 36
200 0 51 -61 87 -87 53z m376 -625 c-34 -161 -96 -387 -132 -478 -60 -154
-160 -367 -174 -372 -7 -3 -37 17 -67 44 -30 28 -93 76 -140 108 -47 31 -86
60 -86 63 0 3 31 103 70 221 38 119 76 245 84 280 8 35 19 67 23 71 4 4 67 26
138 50 72 23 164 55 205 70 41 16 80 29 86 29 8 1 6 -27 -7 -86z"/>
</g>
</svg>
