<?xml version="1.0" standalone="no"?>
<!DOCTYPE svg PUBLIC "-//W3C//DTD SVG 20010904//EN"
 "http://www.w3.org/TR/2001/REC-SVG-20010904/DTD/svg10.dtd">
<svg version="1.0" xmlns="http://www.w3.org/2000/svg"
 width="248.000000pt" height="248.000000pt" viewBox="0 0 248.000000 248.000000"
 preserveAspectRatio="xMidYMid meet">
<metadata>
Created by potrace 1.10, written by Peter Selinger 2001-2011
</metadata>
<g transform="translate(0.000000,248.000000) scale(0.100000,-0.100000)"
fill="#000000" stroke="none">
<path d="M1620 2160 c-161 -26 -344 -51 -465 -64 -77 -9 -201 -23 -276 -31
-75 -8 -144 -17 -153 -21 -21 -8 -32 -52 -19 -73 13 -20 34 -20 257 3 149 15
180 16 187 5 4 -7 8 -91 8 -186 0 -190 -4 -203 -60 -203 -16 0 -71 -9 -122
-19 -85 -18 -260 -51 -350 -66 -46 -7 -72 -41 -59 -76 11 -27 29 -179 72 -604
22 -211 32 -245 74 -245 53 0 54 15 17 348 -5 41 -4 65 3 71 6 4 54 13 106 20
52 6 124 16 160 21 36 5 88 12 116 15 l52 7 7 -49 c3 -26 5 -116 3 -199 -3
-163 2 -184 47 -184 42 0 46 17 45 228 0 111 4 203 9 206 13 9 129 24 296 41
88 8 181 18 207 22 l47 6 -5 -54 c-14 -133 -60 -329 -82 -351 -17 -17 -15 -74
4 -92 28 -28 62 -19 83 22 22 41 72 234 82 316 6 45 15 108 20 141 5 33 12
100 14 148 2 49 9 124 15 168 15 109 15 176 -1 196 -12 14 -39 15 -249 9 -129
-4 -282 -11 -340 -15 -58 -5 -108 -7 -112 -4 -4 2 -6 90 -5 195 l2 192 90 12
c241 34 382 58 403 71 24 15 29 52 10 71 -13 13 -66 14 -138 2z m245 -682 c-3
-40 -11 -110 -16 -156 -10 -72 -14 -83 -33 -87 -34 -7 -253 -33 -341 -40 -44
-4 -87 -8 -95 -10 -92 -16 -108 -16 -114 2 -7 26 -12 310 -5 317 9 9 183 25
359 31 91 4 166 8 167 9 1 1 21 3 43 4 l41 3 -6 -73z m-704 -144 c4 -87 4
-162 0 -165 -3 -3 -67 -14 -141 -24 -74 -9 -171 -23 -215 -30 -44 -7 -83 -10
-87 -6 -4 3 -15 71 -23 150 -18 162 -20 155 54 166 38 5 290 52 366 68 11 3
25 4 30 2 6 -1 13 -68 16 -161z"/>
</g>
</svg>
