<?xml version="1.0" standalone="no"?>
<!DOCTYPE svg PUBLIC "-//W3C//DTD SVG 20010904//EN"
 "http://www.w3.org/TR/2001/REC-SVG-20010904/DTD/svg10.dtd">
<svg version="1.0" xmlns="http://www.w3.org/2000/svg"
 width="248.000000pt" height="248.000000pt" viewBox="0 0 248.000000 248.000000"
 preserveAspectRatio="xMidYMid meet">
<metadata>
Created by potrace 1.10, written by Peter Selinger 2001-2011
</metadata>
<g transform="translate(0.000000,248.000000) scale(0.100000,-0.100000)"
fill="#000000" stroke="none">
<path d="M1620 2160 c-242 -39 -455 -66 -710 -91 -187 -18 -209 -26 -210 -75
0 -43 18 -46 177 -29 81 9 211 23 288 31 274 29 568 76 590 94 18 15 20 51 3
68 -13 13 -66 14 -138 2z"/>
<path d="M590 1482 c-22 -18 -22 -21 -11 -98 10 -76 18 -144 61 -564 22 -206
32 -240 74 -240 46 0 51 20 37 153 -67 644 -79 731 -101 749 -28 22 -32 22
-60 0z"/>
</g>
</svg>
