<?xml version="1.0" standalone="no"?>
<!DOCTYPE svg PUBLIC "-//W3C//DTD SVG 20010904//EN"
 "http://www.w3.org/TR/2001/REC-SVG-20010904/DTD/svg10.dtd">
<svg version="1.0" xmlns="http://www.w3.org/2000/svg"
 width="248.000000pt" height="248.000000pt" viewBox="0 0 248.000000 248.000000"
 preserveAspectRatio="xMidYMid meet">
<metadata>
Created by potrace 1.10, written by Peter Selinger 2001-2011
</metadata>
<g transform="translate(0.000000,248.000000) scale(0.100000,-0.100000)"
fill="#000000" stroke="none">
<path d="M1620 2160 c-161 -26 -344 -51 -465 -64 -77 -9 -201 -23 -276 -31
-75 -8 -144 -17 -153 -21 -21 -8 -32 -52 -19 -73 13 -20 34 -20 257 3 149 15
180 16 187 5 4 -7 8 -91 8 -186 0 -190 -4 -203 -60 -203 -16 0 -71 -9 -122
-19 -85 -18 -260 -51 -350 -66 -46 -7 -72 -41 -59 -76 11 -27 29 -179 72 -604
13 -130 26 -207 35 -222 18 -27 56 -30 76 -7 14 17 16 -13 -42 523 -23 221
-27 286 -18 292 7 4 33 10 58 14 25 3 111 19 191 35 80 16 161 30 180 32 l35
3 12 -280 c7 -154 11 -341 10 -416 -2 -146 4 -169 48 -169 43 0 46 15 45 255
0 124 -2 230 -4 233 -6 11 -11 380 -5 386 9 9 189 25 344 31 77 3 168 8 203
11 l63 6 -6 -78 c-3 -44 -10 -108 -15 -144 -5 -36 -16 -137 -25 -225 -9 -95
-26 -193 -40 -244 -14 -47 -25 -93 -25 -102 0 -9 -7 -22 -15 -29 -20 -16 -19
-74 1 -94 28 -28 62 -19 83 22 11 20 57 178 74 252 6 23 15 108 47 430 6 58
13 116 16 130 10 52 6 141 -7 157 -12 14 -39 15 -249 9 -129 -4 -282 -11 -340
-15 -58 -5 -108 -7 -112 -4 -4 2 -6 90 -5 195 l2 192 90 12 c241 34 382 58
403 71 24 15 29 52 10 71 -13 13 -66 14 -138 2z"/>
</g>
</svg>
