<?xml version="1.0" standalone="no"?>
<!DOCTYPE svg PUBLIC "-//W3C//DTD SVG 20010904//EN"
 "http://www.w3.org/TR/2001/REC-SVG-20010904/DTD/svg10.dtd">
<svg version="1.0" xmlns="http://www.w3.org/2000/svg"
 width="248.000000pt" height="248.000000pt" viewBox="0 0 248.000000 248.000000"
 preserveAspectRatio="xMidYMid meet">
<metadata>
Created by potrace 1.10, written by Peter Selinger 2001-2011
</metadata>
<g transform="translate(0.000000,248.000000) scale(0.100000,-0.100000)"
fill="#000000" stroke="none">
<path d="M697 2388 c-11 -18 -12 -55 -6 -183 4 -88 8 -197 8 -242 l1 -81 -37
-6 c-21 -3 -85 -13 -142 -22 -58 -9 -127 -14 -156 -11 -90 9 -87 21 -90 -294
-2 -195 -9 -326 -23 -454 -11 -99 -23 -216 -27 -260 -14 -173 -78 -525 -109
-600 -29 -69 -17 -105 37 -105 24 0 31 7 52 53 22 48 74 266 89 379 7 46 8 47
32 36 22 -10 33 -5 109 46 48 33 113 90 151 132 60 67 69 73 83 60 13 -14 1
-30 -125 -156 -76 -78 -160 -155 -186 -171 -51 -33 -65 -58 -49 -88 32 -59
117 -11 291 164 63 63 118 115 122 115 5 0 8 -13 8 -30 0 -23 -4 -30 -20 -30
-12 0 -40 -26 -73 -67 -61 -77 -179 -191 -251 -243 -100 -74 -102 -75 -91
-106 12 -35 49 -43 93 -20 68 35 201 153 295 261 l60 69 -6 -69 c-7 -77 -59
-200 -104 -247 -32 -33 -40 -34 -73 -8 -70 55 -127 -21 -62 -82 85 -82 187
-45 265 95 73 131 95 247 77 403 -14 119 -41 204 -82 262 l-30 43 23 44 c21
40 28 45 69 51 25 3 61 10 80 14 19 5 67 12 105 15 39 4 80 13 93 21 30 19 29
59 -2 79 -26 18 -40 17 -211 -10 -105 -17 -331 -43 -447 -52 l-81 -6 7 59 c3
32 9 105 13 162 l6 102 47 0 c26 0 69 7 96 15 74 22 74 23 74 -47 1 -89 27
-143 77 -158 64 -19 171 -24 247 -10 97 17 126 33 126 69 0 48 -19 55 -107 41
-43 -6 -112 -10 -153 -8 l-75 3 -3 71 -3 71 33 7 c18 4 82 16 143 26 129 22
158 45 122 94 -17 23 -53 23 -180 1 -54 -9 -100 -15 -101 -13 -2 1 -6 49 -9
104 l-5 102 62 6 c33 4 121 16 194 27 73 11 139 19 148 17 12 -2 4 -19 -35
-67 -28 -35 -51 -74 -51 -87 0 -26 24 -54 47 -54 33 0 162 163 177 224 10 42
-9 74 -53 87 -32 9 -63 8 -168 -6 -70 -10 -149 -20 -175 -22 l-48 -5 0 90 0
89 113 12 c148 16 213 29 227 46 17 21 4 64 -23 74 -19 7 -166 -5 -288 -23
l-36 -6 -5 90 c-4 59 -11 98 -22 115 -21 32 -61 33 -79 3z m-87 -732 c0 -74
-4 -105 -12 -109 -24 -9 -198 -40 -202 -36 -2 2 -6 52 -8 110 l-3 106 90 15
c149 25 135 34 135 -86z m-55 -756 c-53 -60 -113 -122 -133 -138 -52 -39 -93
-64 -98 -59 -2 2 1 68 8 146 l12 142 41 -5 c22 -2 85 1 140 8 55 7 106 14 113
15 7 0 -30 -48 -83 -109z"/>
</g>
</svg>
