<?xml version="1.0" standalone="no"?>
<!DOCTYPE svg PUBLIC "-//W3C//DTD SVG 20010904//EN"
 "http://www.w3.org/TR/2001/REC-SVG-20010904/DTD/svg10.dtd">
<svg version="1.0" xmlns="http://www.w3.org/2000/svg"
 width="248.000000pt" height="248.000000pt" viewBox="0 0 248.000000 248.000000"
 preserveAspectRatio="xMidYMid meet">
<metadata>
Created by potrace 1.10, written by Peter Selinger 2001-2011
</metadata>
<g transform="translate(0.000000,248.000000) scale(0.100000,-0.100000)"
fill="#000000" stroke="none">
<path d="M697 2388 c-11 -18 -12 -55 -6 -183 4 -88 8 -197 8 -242 l1 -81 -37
-6 c-21 -3 -85 -13 -142 -22 -58 -9 -127 -14 -156 -11 -90 9 -87 21 -90 -294
-2 -195 -9 -326 -23 -454 -11 -99 -23 -216 -27 -260 -14 -173 -78 -525 -109
-600 -29 -69 -17 -105 37 -105 24 0 31 7 53 54 43 94 110 461 133 731 6 66 17
179 26 250 8 72 15 156 15 188 l0 57 48 0 c26 0 63 5 82 10 33 10 81 19 370
69 134 23 163 45 127 95 -22 30 -59 26 -545 -65 -35 -6 -65 -10 -66 -8 -2 2
-6 52 -8 111 l-3 106 70 10 c195 27 384 54 512 73 78 12 147 19 153 17 7 -2
-10 -31 -39 -67 -28 -35 -51 -74 -51 -87 0 -26 24 -54 47 -54 33 0 162 163
177 224 10 42 -9 74 -53 87 -32 9 -63 8 -168 -6 -70 -10 -149 -20 -175 -22
l-48 -5 0 90 0 89 113 12 c148 16 213 29 227 46 17 21 4 64 -23 74 -19 7 -166
-5 -288 -23 l-36 -6 -5 90 c-4 59 -11 98 -22 115 -21 32 -61 33 -79 3z"/>
</g>
</svg>
