<?xml version="1.0" standalone="no"?>
<!DOCTYPE svg PUBLIC "-//W3C//DTD SVG 20010904//EN"
 "http://www.w3.org/TR/2001/REC-SVG-20010904/DTD/svg10.dtd">
<svg version="1.0" xmlns="http://www.w3.org/2000/svg"
 width="248.000000pt" height="248.000000pt" viewBox="0 0 248.000000 248.000000"
 preserveAspectRatio="xMidYMid meet">
<metadata>
Created by potrace 1.10, written by Peter Selinger 2001-2011
</metadata>
<g transform="translate(0.000000,248.000000) scale(0.100000,-0.100000)"
fill="#000000" stroke="none">
<path d="M697 2388 c-12 -19 -12 -68 -3 -289 12 -287 15 -303 65 -297 40 5 51
39 51 164 l0 111 113 12 c148 16 213 29 227 46 17 21 4 64 -23 74 -19 7 -166
-5 -288 -23 l-36 -6 -5 90 c-4 59 -11 98 -22 115 -21 32 -61 33 -79 3z"/>
</g>
</svg>
