<?xml version="1.0" standalone="no"?>
<!DOCTYPE svg PUBLIC "-//W3C//DTD SVG 20010904//EN"
 "http://www.w3.org/TR/2001/REC-SVG-20010904/DTD/svg10.dtd">
<svg version="1.0" xmlns="http://www.w3.org/2000/svg"
 width="248.000000pt" height="248.000000pt" viewBox="0 0 248.000000 248.000000"
 preserveAspectRatio="xMidYMid meet">
<metadata>
Created by potrace 1.10, written by Peter Selinger 2001-2011
</metadata>
<g transform="translate(0.000000,248.000000) scale(0.100000,-0.100000)"
fill="#000000" stroke="none">
<path d="M1997 2313 c-29 -32 -81 -85 -116 -120 -60 -59 -63 -64 -57 -97 l7
-36 -53 0 c-29 0 -77 -3 -105 -6 -47 -6 -53 -5 -53 11 0 10 -28 60 -62 112
-63 95 -92 118 -127 96 -31 -19 -22 -56 34 -143 32 -50 49 -86 42 -88 -7 -1
-61 -11 -121 -21 -114 -21 -146 -38 -146 -76 0 -45 22 -50 138 -32 59 9 139
19 177 23 39 3 80 8 93 11 22 5 22 3 22 -85 0 -105 14 -94 -150 -112 -58 -6
-116 -17 -130 -24 -36 -17 -39 -60 -5 -82 24 -15 33 -15 139 0 62 9 118 16
124 16 9 0 12 -35 12 -118 l0 -119 -162 -12 c-307 -23 -392 -32 -417 -44 -31
-15 -40 -57 -15 -77 17 -15 25 -15 234 -1 74 5 137 7 139 6 7 -7 -43 -71 -111
-141 -37 -40 -68 -76 -68 -81 0 -5 7 -19 16 -32 16 -23 34 -24 77 -6 16 7 18
3 15 -36 l-3 -44 -115 -11 c-182 -17 -220 -31 -220 -79 0 -43 19 -48 142 -36
62 6 130 13 151 16 l37 5 0 -105 0 -105 -27 -6 c-54 -11 -198 -55 -223 -67
-35 -18 -35 -66 1 -86 23 -13 34 -11 125 18 54 17 105 31 112 31 9 0 12 -26
12 -96 l0 -96 -25 16 c-45 30 -95 15 -95 -27 0 -11 19 -41 43 -67 23 -26 50
-59 60 -74 20 -30 76 -36 96 -12 15 18 30 167 31 296 l0 96 47 13 c60 15 83
36 83 73 0 38 -30 49 -87 32 l-43 -13 0 88 0 88 98 11 c53 7 121 13 151 14
l55 3 9 -40 c5 -22 22 -84 38 -139 16 -54 29 -104 29 -110 0 -6 -54 -67 -120
-136 -66 -69 -120 -133 -120 -142 0 -24 28 -48 56 -48 25 0 82 51 177 159 28
32 51 51 56 45 5 -5 23 -45 40 -89 38 -99 109 -215 144 -235 36 -20 74 -4 98
40 44 81 112 248 116 285 6 47 -11 69 -49 63 -25 -3 -38 -25 -98 -166 -19 -45
-38 -82 -42 -82 -12 0 -46 65 -87 168 -41 104 -41 104 -22 130 10 15 29 36 41
47 56 50 85 126 58 153 -25 25 -55 13 -103 -43 -25 -30 -50 -55 -54 -55 -6 0
-40 107 -57 181 l-6 27 144 6 c79 4 155 9 171 12 52 10 60 76 11 94 -14 6 -94
7 -188 3 l-162 -6 -21 84 c-12 46 -24 101 -27 122 -6 47 -21 67 -51 67 -51 0
-63 -53 -36 -162 33 -135 40 -120 -74 -135 -55 -6 -116 -12 -135 -12 l-35 -1
3 101 c3 78 8 108 23 132 21 36 25 77 7 95 -6 6 -10 13 -7 16 2 2 162 9 354
15 193 7 365 14 382 17 59 9 69 75 15 95 -18 7 -105 8 -254 4 l-228 -7 0 121
0 121 113 0 c131 0 162 11 162 55 0 44 -31 55 -157 55 l-108 0 0 84 c0 75 2
85 20 91 10 3 84 10 162 14 175 9 197 19 188 81 -4 30 -22 34 -127 31 l-107
-3 102 107 c104 109 121 142 90 173 -26 26 -58 13 -111 -45z"/>
<path d="M632 2338 c-23 -23 -13 -63 24 -99 20 -18 61 -67 91 -106 59 -80 91
-97 123 -68 30 27 25 45 -36 126 -100 133 -167 182 -202 147z"/>
<path d="M1010 1957 c-7 -7 -184 -24 -435 -43 -420 -30 -415 -29 -415 -80 0
-50 54 -63 192 -44 40 5 143 14 228 20 85 5 202 15 260 20 58 6 145 15 194 19
69 6 92 12 103 27 31 42 4 76 -68 82 -30 2 -56 2 -59 -1z"/>
<path d="M790 1599 c-180 -24 -229 -29 -266 -29 -76 0 -113 -60 -59 -96 23
-15 37 -15 138 -4 305 34 347 45 347 95 0 46 -27 51 -160 34z"/>
<path d="M745 1285 c-312 -39 -335 -45 -335 -91 0 -42 34 -54 120 -43 41 6
147 18 234 29 128 14 162 22 173 36 16 22 16 36 0 57 -17 25 -66 28 -192 12z"/>
<path d="M1932 1268 c-7 -7 -12 -23 -12 -36 0 -30 84 -158 107 -164 31 -7 53
3 59 27 8 33 -1 56 -52 125 -45 61 -75 75 -102 48z"/>
<path d="M535 1000 c-49 -5 -104 -11 -121 -15 -64 -12 -62 1 -55 -433 l6 -394
38 -34 38 -35 172 6 c95 3 186 8 203 11 53 8 66 33 76 147 7 82 23 427 31 664
1 32 -4 49 -21 65 -21 21 -32 23 -150 24 -70 1 -167 -2 -217 -6z m282 -247
c-3 -134 -33 -532 -39 -538 -2 -2 -72 -6 -155 -10 l-153 -8 0 249 c0 137 -3
293 -7 346 l-6 97 64 4 c35 2 117 4 182 5 l118 2 -4 -147z"/>
</g>
</svg>
