<?xml version="1.0" standalone="no"?>
<!DOCTYPE svg PUBLIC "-//W3C//DTD SVG 20010904//EN"
 "http://www.w3.org/TR/2001/REC-SVG-20010904/DTD/svg10.dtd">
<svg version="1.0" xmlns="http://www.w3.org/2000/svg"
 width="248.000000pt" height="248.000000pt" viewBox="0 0 248.000000 248.000000"
 preserveAspectRatio="xMidYMid meet">
<metadata>
Created by potrace 1.10, written by Peter Selinger 2001-2011
</metadata>
<g transform="translate(0.000000,248.000000) scale(0.100000,-0.100000)"
fill="#000000" stroke="none">
<path d="M1997 2313 c-29 -31 -81 -85 -116 -119 -60 -59 -63 -65 -57 -98 l7
-36 -53 0 c-29 0 -77 -3 -105 -6 -47 -6 -53 -5 -53 11 0 10 -28 60 -62 112
-63 95 -92 118 -127 96 -32 -20 -23 -56 34 -143 34 -52 50 -86 43 -88 -7 -1
-62 -11 -122 -21 -114 -21 -146 -38 -146 -76 0 -45 22 -50 133 -32 56 8 161
21 232 27 72 6 173 15 225 20 52 6 127 10 165 10 122 0 172 26 157 82 -7 29
-19 31 -131 29 l-106 -2 77 78 c122 123 148 169 116 201 -26 26 -58 13 -111
-45z"/>
<path d="M632 2338 c-23 -23 -13 -63 24 -99 20 -18 60 -67 90 -106 59 -80 91
-97 124 -68 30 27 25 45 -36 126 -100 133 -167 182 -202 147z"/>
<path d="M1010 1957 c-6 -7 -156 -21 -440 -43 -113 -9 -244 -19 -291 -22 -92
-7 -119 -20 -119 -57 0 -49 53 -62 183 -46 50 6 160 16 242 21 83 6 197 15
255 20 276 26 283 27 297 46 31 42 4 76 -68 82 -30 2 -56 2 -59 -1z"/>
<path d="M790 1599 c-180 -24 -229 -29 -266 -29 -76 0 -113 -60 -59 -96 23
-15 37 -16 133 -5 313 36 352 47 352 96 0 46 -27 51 -160 34z"/>
<path d="M750 1285 c-317 -39 -333 -43 -338 -87 -5 -45 28 -59 118 -47 41 6
147 18 234 29 128 14 162 22 173 36 16 22 16 36 0 57 -17 24 -66 27 -187 12z"/>
<path d="M535 999 c-49 -4 -104 -11 -121 -14 -64 -11 -62 1 -55 -433 l6 -394
38 -34 38 -35 172 6 c95 3 186 8 203 11 53 8 66 33 76 147 7 82 23 427 31 664
1 32 -4 49 -21 65 -21 21 -32 23 -150 25 -70 0 -167 -3 -217 -8z m282 -246
c-3 -134 -33 -532 -39 -538 -2 -2 -72 -6 -155 -10 l-153 -8 0 249 c0 137 -3
293 -7 346 l-6 97 64 4 c35 2 117 4 182 5 l118 2 -4 -147z"/>
</g>
</svg>
