<?xml version="1.0" standalone="no"?>
<!DOCTYPE svg PUBLIC "-//W3C//DTD SVG 20010904//EN"
 "http://www.w3.org/TR/2001/REC-SVG-20010904/DTD/svg10.dtd">
<svg version="1.0" xmlns="http://www.w3.org/2000/svg"
 width="248.000000pt" height="248.000000pt" viewBox="0 0 248.000000 248.000000"
 preserveAspectRatio="xMidYMid meet">
<metadata>
Created by potrace 1.10, written by Peter Selinger 2001-2011
</metadata>
<g transform="translate(0.000000,248.000000) scale(0.100000,-0.100000)"
fill="#000000" stroke="none">
<path d="M632 2338 c-23 -23 -13 -63 24 -99 20 -18 60 -67 90 -106 59 -80 91
-97 124 -68 30 27 25 45 -36 126 -100 133 -167 182 -202 147z"/>
<path d="M1010 1957 c-6 -7 -156 -21 -440 -43 -113 -9 -244 -19 -291 -22 -92
-7 -119 -20 -119 -57 0 -49 53 -62 183 -46 50 6 160 16 242 21 83 6 197 15
255 20 276 26 283 27 297 46 31 42 4 76 -68 82 -30 2 -56 2 -59 -1z"/>
</g>
</svg>
