<?xml version="1.0" standalone="no"?>
<!DOCTYPE svg PUBLIC "-//W3C//DTD SVG 20010904//EN"
 "http://www.w3.org/TR/2001/REC-SVG-20010904/DTD/svg10.dtd">
<svg version="1.0" xmlns="http://www.w3.org/2000/svg"
 width="248.000000pt" height="248.000000pt" viewBox="0 0 248.000000 248.000000"
 preserveAspectRatio="xMidYMid meet">
<metadata>
Created by potrace 1.10, written by Peter Selinger 2001-2011
</metadata>
<g transform="translate(0.000000,248.000000) scale(0.100000,-0.100000)"
fill="#000000" stroke="none">
<path d="M632 2338 c-23 -23 -13 -63 24 -99 20 -18 60 -67 90 -106 59 -80 91
-97 124 -68 30 27 25 45 -36 126 -100 133 -167 182 -202 147z"/>
<path d="M1010 1957 c-6 -7 -156 -21 -440 -43 -113 -9 -244 -19 -291 -22 -92
-7 -119 -20 -119 -57 0 -49 53 -62 183 -46 50 6 160 16 242 21 83 6 197 15
255 20 276 26 283 27 297 46 31 42 4 76 -68 82 -30 2 -56 2 -59 -1z"/>
<path d="M790 1599 c-180 -24 -229 -29 -266 -29 -76 0 -113 -60 -59 -96 23
-15 37 -16 133 -5 313 36 352 47 352 96 0 46 -27 51 -160 34z"/>
<path d="M750 1285 c-317 -39 -333 -43 -338 -87 -5 -45 28 -59 118 -47 41 6
147 18 234 29 128 14 162 22 173 36 16 22 16 36 0 57 -17 24 -66 27 -187 12z"/>
<path d="M535 999 c-49 -4 -104 -11 -121 -14 -64 -11 -62 1 -55 -431 6 -417 7
-424 56 -424 49 0 50 7 50 395 l0 362 89 7 c49 3 129 6 178 6 l89 0 -4 -147
c-2 -82 -12 -243 -21 -360 -15 -179 -16 -216 -4 -240 15 -33 58 -43 78 -18 19
23 35 256 53 782 1 32 -4 49 -21 65 -21 21 -32 23 -150 25 -70 0 -167 -3 -217
-8z"/>
</g>
</svg>
