<?xml version="1.0" standalone="no"?>
<!DOCTYPE svg PUBLIC "-//W3C//DTD SVG 20010904//EN"
 "http://www.w3.org/TR/2001/REC-SVG-20010904/DTD/svg10.dtd">
<svg version="1.0" xmlns="http://www.w3.org/2000/svg"
 width="248.000000pt" height="248.000000pt" viewBox="0 0 248.000000 248.000000"
 preserveAspectRatio="xMidYMid meet">
<metadata>
Created by potrace 1.10, written by Peter Selinger 2001-2011
</metadata>
<g transform="translate(0.000000,248.000000) scale(0.100000,-0.100000)"
fill="#000000" stroke="none">
<path d="M1260 2360 c-162 -16 -377 -42 -415 -50 -22 -5 -84 -16 -138 -25 -54
-8 -111 -22 -127 -30 -48 -25 -50 -69 -5 -99 18 -12 25 -30 34 -83 28 -182 40
-274 46 -335 6 -83 12 -97 40 -104 57 -14 86 15 67 69 -7 18 -12 53 -12 78 0
24 -5 71 -10 104 -6 33 -17 105 -25 160 -7 55 -17 108 -20 116 -7 20 -7 20
170 48 297 47 759 81 899 67 78 -9 74 7 32 -136 -14 -47 -46 -145 -71 -218
-49 -139 -52 -175 -15 -187 30 -10 57 11 74 57 101 279 172 499 168 521 -2 9
-18 25 -35 35 -28 15 -66 17 -307 18 -151 1 -309 -2 -350 -6z"/>
</g>
</svg>
