<?xml version="1.0" standalone="no"?>
<!DOCTYPE svg PUBLIC "-//W3C//DTD SVG 20010904//EN"
 "http://www.w3.org/TR/2001/REC-SVG-20010904/DTD/svg10.dtd">
<svg version="1.0" xmlns="http://www.w3.org/2000/svg"
 width="248.000000pt" height="248.000000pt" viewBox="0 0 248.000000 248.000000"
 preserveAspectRatio="xMidYMid meet">
<metadata>
Created by potrace 1.10, written by Peter Selinger 2001-2011
</metadata>
<g transform="translate(0.000000,248.000000) scale(0.100000,-0.100000)"
fill="#000000" stroke="none">
<path d="M1260 2360 c-162 -16 -377 -42 -415 -50 -22 -5 -84 -16 -138 -25
-104 -16 -151 -34 -161 -60 -10 -27 -7 -35 24 -63 27 -25 32 -39 52 -162 12
-74 22 -177 22 -228 1 -81 4 -96 23 -118 27 -30 69 -31 99 -3 16 15 44 23 96
30 113 14 269 25 274 20 8 -8 4 -210 -4 -215 -5 -3 -90 -12 -188 -21 -235 -19
-654 -86 -681 -108 -18 -13 -16 -52 2 -67 20 -16 87 -14 185 5 159 32 332 56
500 70 96 9 254 24 350 35 245 27 291 30 590 40 224 7 268 7 287 -6 34 -22 70
-18 89 11 21 32 12 68 -21 83 -51 24 -560 12 -878 -19 -101 -10 -120 -10 -128
2 -5 8 -8 57 -7 109 l3 95 80 7 c44 4 161 9 259 12 99 3 184 10 189 15 11 11
92 232 122 336 13 44 35 109 48 145 28 77 26 95 -16 118 -28 15 -66 17 -307
18 -151 1 -309 -2 -350 -6z m566 -93 c3 -3 -4 -40 -17 -81 -17 -54 -26 -72
-35 -65 -16 13 -583 -21 -869 -53 -60 -7 -128 -12 -149 -13 l-39 0 -12 60 c-7
33 -12 61 -10 63 1 1 67 13 146 26 176 30 397 55 573 66 144 9 402 7 412 -3z
m-70 -252 c-3 -5 -16 -47 -31 -91 l-26 -81 -87 -7 c-48 -3 -148 -8 -222 -11
-116 -6 -447 -33 -591 -50 l-45 -5 -11 87 c-6 49 -10 89 -9 90 4 5 304 34 496
49 124 9 263 19 310 23 117 11 221 8 216 -4z"/>
<path d="M1505 1288 c-44 -3 -152 -11 -240 -17 -233 -16 -497 -46 -522 -60
-30 -16 -34 -61 -8 -91 12 -15 45 -191 45 -244 0 -46 17 -66 56 -66 52 0 56
23 32 179 -11 72 -18 134 -15 137 11 11 294 40 532 54 94 6 184 12 200 15 65
10 64 -3 -10 -154 -67 -138 -68 -140 -51 -166 13 -19 24 -25 44 -23 24 3 36
22 114 178 48 96 88 184 88 196 0 44 -23 59 -107 64 -43 3 -114 2 -158 -2z"/>
</g>
</svg>
