<?xml version="1.0" standalone="no"?>
<!DOCTYPE svg PUBLIC "-//W3C//DTD SVG 20010904//EN"
 "http://www.w3.org/TR/2001/REC-SVG-20010904/DTD/svg10.dtd">
<svg version="1.0" xmlns="http://www.w3.org/2000/svg"
 width="248.000000pt" height="248.000000pt" viewBox="0 0 248.000000 248.000000"
 preserveAspectRatio="xMidYMid meet">
<metadata>
Created by potrace 1.10, written by Peter Selinger 2001-2011
</metadata>
<g transform="translate(0.000000,248.000000) scale(0.100000,-0.100000)"
fill="#000000" stroke="none">
<path d="M1905 2255 c-49 -8 -142 -21 -205 -29 -63 -9 -151 -23 -195 -31 -44
-9 -123 -22 -175 -31 -105 -16 -140 -33 -140 -67 0 -61 40 -61 350 -2 95 18
171 29 307 45 51 6 106 13 123 16 l30 7 0 -62 c0 -41 -4 -63 -12 -65 -7 -2
-74 -14 -148 -26 -145 -23 -302 -50 -442 -74 -164 -28 -193 -42 -186 -88 4
-32 45 -50 89 -39 19 5 102 21 184 35 83 15 211 38 285 51 74 13 154 26 178
30 l42 5 0 -35 c0 -19 -5 -66 -12 -104 -13 -77 -5 -101 37 -101 56 0 79 91 94
370 8 144 8 177 -4 189 -19 19 -95 22 -200 6z"/>
<path d="M346 1968 c-11 -15 -16 -44 -16 -87 0 -35 -6 -101 -14 -145 -8 -45
-22 -134 -32 -199 l-17 -118 -91 -46 c-106 -53 -126 -68 -126 -98 0 -53 45
-58 132 -14 l61 31 -6 -34 c-4 -18 -14 -58 -22 -88 -23 -81 -31 -224 -14 -238
86 -70 225 -199 227 -211 4 -23 -71 -173 -124 -248 -24 -35 -44 -75 -44 -88 0
-29 32 -49 63 -41 28 7 103 113 153 216 22 44 43 78 49 76 12 -3 73 -89 151
-211 75 -118 82 -125 116 -125 21 0 32 7 40 26 14 30 4 50 -89 189 -96 142
-121 177 -148 205 l-26 27 22 54 c12 30 32 83 44 119 12 36 32 90 43 120 33
90 105 345 127 452 3 18 18 34 48 50 30 17 43 30 45 49 4 32 -23 61 -52 57
-15 -2 -25 5 -36 27 -12 23 -22 30 -45 30 -33 0 -55 -30 -55 -77 0 -22 -9 -30
-67 -58 -38 -18 -97 -43 -132 -56 -35 -14 -77 -32 -93 -40 -16 -9 -32 -14 -34
-11 -4 4 28 230 46 327 14 71 12 140 -3 170 -17 34 -60 39 -81 8z m325 -588
c-45 -173 -62 -229 -87 -295 -14 -38 -39 -108 -55 -155 -16 -46 -33 -88 -38
-93 -6 -6 -44 20 -100 69 -89 79 -89 79 -90 128 -1 26 10 94 23 150 14 55 26
112 28 125 3 27 7 29 93 65 33 13 101 42 150 63 52 22 91 34 93 28 1 -5 -6
-44 -17 -85z"/>
</g>
</svg>
