<?xml version="1.0" standalone="no"?>
<!DOCTYPE svg PUBLIC "-//W3C//DTD SVG 20010904//EN"
 "http://www.w3.org/TR/2001/REC-SVG-20010904/DTD/svg10.dtd">
<svg version="1.0" xmlns="http://www.w3.org/2000/svg"
 width="248.000000pt" height="248.000000pt" viewBox="0 0 248.000000 248.000000"
 preserveAspectRatio="xMidYMid meet">
<metadata>
Created by potrace 1.10, written by Peter Selinger 2001-2011
</metadata>
<g transform="translate(0.000000,248.000000) scale(0.100000,-0.100000)"
fill="#000000" stroke="none">
<path d="M571 2241 c-27 -27 -26 -44 3 -76 17 -18 27 -46 35 -93 28 -182 40
-273 46 -334 6 -83 12 -97 40 -104 57 -14 86 15 67 69 -7 18 -12 53 -12 78 0
24 -5 71 -10 104 -6 33 -17 105 -25 160 -24 166 -38 195 -97 210 -19 5 -32 1
-47 -14z"/>
</g>
</svg>
