<?xml version="1.0" standalone="no"?>
<!DOCTYPE svg PUBLIC "-//W3C//DTD SVG 20010904//EN"
 "http://www.w3.org/TR/2001/REC-SVG-20010904/DTD/svg10.dtd">
<svg version="1.0" xmlns="http://www.w3.org/2000/svg"
 width="248.000000pt" height="248.000000pt" viewBox="0 0 248.000000 248.000000"
 preserveAspectRatio="xMidYMid meet">
<metadata>
Created by potrace 1.10, written by Peter Selinger 2001-2011
</metadata>
<g transform="translate(0.000000,248.000000) scale(0.100000,-0.100000)"
fill="#000000" stroke="none">
<path d="M1905 2255 c-49 -8 -142 -21 -205 -29 -63 -9 -151 -23 -195 -31 -44
-9 -123 -22 -175 -31 -105 -16 -140 -33 -140 -67 0 -61 40 -61 350 -2 95 18
171 29 307 45 51 6 106 13 123 16 l30 7 0 -62 c0 -41 -4 -63 -12 -65 -7 -2
-74 -14 -148 -26 -145 -23 -302 -50 -442 -74 -164 -28 -193 -42 -186 -88 4
-32 45 -50 89 -39 19 5 102 21 184 35 83 15 211 38 285 51 74 13 154 26 178
30 l42 5 0 -37 c0 -77 -12 -114 -37 -124 -13 -5 -86 -20 -161 -34 -75 -13
-175 -31 -222 -40 -47 -9 -140 -22 -208 -30 -67 -7 -129 -19 -138 -26 -22 -18
-13 -61 16 -76 31 -16 127 -10 285 18 449 80 512 95 531 124 23 36 43 166 53
355 8 144 8 177 -4 189 -19 19 -95 22 -200 6z"/>
<path d="M346 1968 c-11 -15 -16 -44 -16 -87 0 -35 -6 -101 -14 -145 -8 -45
-22 -134 -32 -199 l-17 -118 -91 -46 c-106 -53 -126 -68 -126 -98 0 -53 45
-58 132 -14 l61 31 -6 -34 c-4 -18 -14 -58 -22 -88 -23 -81 -31 -224 -14 -238
86 -70 225 -199 227 -211 4 -23 -71 -173 -124 -248 -24 -35 -44 -75 -44 -88 0
-29 32 -49 63 -41 28 7 103 113 153 216 22 44 43 78 49 76 12 -3 73 -89 151
-211 75 -118 82 -125 116 -125 21 0 32 7 40 26 14 30 4 50 -89 189 -96 142
-121 177 -148 205 l-26 27 22 54 c12 30 32 83 44 119 12 36 32 90 43 120 33
90 105 345 127 452 3 18 18 34 48 50 30 17 43 30 45 49 4 32 -23 61 -52 57
-15 -2 -25 5 -36 27 -12 23 -22 30 -45 30 -33 0 -55 -30 -55 -77 0 -22 -9 -30
-67 -58 -38 -18 -97 -43 -132 -56 -35 -14 -77 -32 -93 -40 -16 -9 -32 -14 -34
-11 -4 4 28 230 46 327 14 71 12 140 -3 170 -17 34 -60 39 -81 8z m325 -588
c-45 -173 -62 -229 -87 -295 -14 -38 -39 -108 -55 -155 -16 -46 -33 -88 -38
-93 -6 -6 -44 20 -100 69 -89 79 -89 79 -90 128 -1 26 10 94 23 150 14 55 26
112 28 125 3 27 7 29 93 65 33 13 101 42 150 63 52 22 91 34 93 28 1 -5 -6
-44 -17 -85z"/>
<path d="M2180 1606 c-74 -16 -215 -36 -445 -65 -563 -72 -772 -103 -807 -122
-36 -19 -38 -42 -14 -145 13 -55 29 -124 35 -154 15 -74 44 -120 75 -120 13 0
29 7 36 15 14 17 12 37 -23 195 -14 63 -23 118 -19 121 7 6 137 29 282 49 36
5 95 14 131 20 36 5 82 10 103 10 l37 0 -3 -47 c-3 -45 -5 -48 -38 -54 -19 -4
-71 -15 -115 -24 -44 -9 -90 -19 -102 -21 -50 -10 -53 -29 -42 -294 6 -149 15
-255 22 -270 9 -18 20 -25 42 -25 51 0 56 24 46 256 -5 112 -10 210 -12 218
-4 15 70 41 156 54 l40 6 0 -533 c0 -578 -1 -570 54 -564 49 6 51 21 51 464 0
226 3 465 7 532 l6 121 66 10 c36 6 98 12 136 13 l70 3 0 -185 c0 -203 -4
-227 -33 -209 -46 29 -104 -27 -71 -68 28 -33 93 -73 119 -73 39 0 57 26 75
110 31 143 32 480 1 522 -17 23 -46 24 -204 4 -176 -21 -162 -23 -162 27 l0
43 133 18 c136 17 190 26 338 51 129 23 127 25 56 -68 -73 -95 -77 -104 -66
-134 6 -18 16 -23 44 -23 32 0 40 6 90 74 30 41 59 78 65 81 18 11 51 86 52
117 2 66 -80 91 -212 64z"/>
</g>
</svg>
