<?xml version="1.0" standalone="no"?>
<!DOCTYPE svg PUBLIC "-//W3C//DTD SVG 20010904//EN"
 "http://www.w3.org/TR/2001/REC-SVG-20010904/DTD/svg10.dtd">
<svg version="1.0" xmlns="http://www.w3.org/2000/svg"
 width="248.000000pt" height="248.000000pt" viewBox="0 0 248.000000 248.000000"
 preserveAspectRatio="xMidYMid meet">
<metadata>
Created by potrace 1.10, written by Peter Selinger 2001-2011
</metadata>
<g transform="translate(0.000000,248.000000) scale(0.100000,-0.100000)"
fill="#000000" stroke="none">
<path d="M349 1973 c-8 -9 -17 -53 -20 -107 -11 -150 -79 -567 -113 -691 -24
-87 -33 -228 -15 -243 86 -70 225 -199 227 -211 4 -23 -71 -173 -124 -248 -24
-35 -44 -75 -44 -88 0 -29 32 -49 63 -41 28 7 103 113 153 216 22 44 43 78 49
76 12 -3 73 -89 151 -211 75 -118 82 -125 116 -125 21 0 32 7 40 26 14 30 4
50 -89 189 -96 142 -121 177 -148 205 l-26 27 22 54 c12 30 32 83 44 119 12
36 32 91 44 122 56 151 119 396 132 516 10 90 10 104 -5 127 -19 28 -57 33
-76 10 -7 -9 -17 -58 -22 -110 -4 -53 -19 -137 -33 -188 -51 -196 -65 -244
-91 -312 -14 -38 -39 -108 -55 -155 -16 -46 -33 -88 -38 -93 -6 -6 -44 20
-100 69 l-89 79 -1 50 c-1 28 6 78 15 110 27 104 53 245 79 420 13 94 29 195
35 225 14 72 11 149 -7 178 -16 26 -55 29 -74 5z"/>
</g>
</svg>
