<?xml version="1.0" standalone="no"?>
<!DOCTYPE svg PUBLIC "-//W3C//DTD SVG 20010904//EN"
 "http://www.w3.org/TR/2001/REC-SVG-20010904/DTD/svg10.dtd">
<svg version="1.0" xmlns="http://www.w3.org/2000/svg"
 width="248.000000pt" height="248.000000pt" viewBox="0 0 248.000000 248.000000"
 preserveAspectRatio="xMidYMid meet">
<metadata>
Created by potrace 1.10, written by Peter Selinger 2001-2011
</metadata>
<g transform="translate(0.000000,248.000000) scale(0.100000,-0.100000)"
fill="#000000" stroke="none">
<path d="M1759 2296 c-5 -5 -341 -20 -402 -18 -61 2 -83 -10 -102 -54 -22 -54
-184 -240 -280 -322 -86 -73 -102 -101 -73 -130 24 -24 57 -11 137 54 71 57
183 178 288 309 l31 40 157 10 c86 5 158 7 160 4 6 -9 -141 -198 -177 -227
-93 -74 -157 -136 -168 -163 -7 -16 -14 -29 -15 -29 -1 0 -25 -4 -53 -10 -58
-11 -194 -30 -267 -37 -77 -8 -81 -16 -66 -120 7 -49 15 -135 18 -193 6 -112
13 -130 48 -130 44 0 48 19 43 189 l-5 159 51 6 c28 4 80 11 116 15 215 30
314 41 475 52 221 15 267 17 281 12 23 -8 -63 -277 -95 -297 -15 -9 -14 -49 1
-64 19 -19 63 -14 85 11 42 45 123 292 123 375 0 69 -6 72 -150 72 -71 0 -173
-5 -227 -11 -54 -5 -129 -9 -168 -7 l-70 3 74 60 c53 43 105 102 187 212 63
84 117 159 120 166 9 24 -58 80 -77 63z"/>
<path d="M641 2236 c-7 -8 -15 -31 -18 -53 -9 -58 -122 -331 -208 -504 -71
-142 -156 -277 -262 -417 -47 -61 -52 -81 -25 -105 40 -36 69 -13 169 132 32
47 64 86 70 88 30 10 24 -794 -7 -993 -14 -89 -12 -149 4 -164 23 -18 59 -8
73 21 26 53 44 432 41 822 -3 341 -5 375 -22 403 l-18 30 62 125 c70 138 172
372 201 462 22 67 25 137 7 155 -16 16 -53 15 -67 -2z"/>
</g>
</svg>
