<?xml version="1.0" standalone="no"?>
<!DOCTYPE svg PUBLIC "-//W3C//DTD SVG 20010904//EN"
 "http://www.w3.org/TR/2001/REC-SVG-20010904/DTD/svg10.dtd">
<svg version="1.0" xmlns="http://www.w3.org/2000/svg"
 width="248.000000pt" height="248.000000pt" viewBox="0 0 248.000000 248.000000"
 preserveAspectRatio="xMidYMid meet">
<metadata>
Created by potrace 1.10, written by Peter Selinger 2001-2011
</metadata>
<g transform="translate(0.000000,248.000000) scale(0.100000,-0.100000)"
fill="#000000" stroke="none">
<path d="M1759 2296 c-5 -5 -341 -20 -402 -18 -61 2 -83 -10 -102 -54 -22 -54
-184 -240 -280 -322 -86 -73 -102 -101 -73 -130 24 -24 57 -11 137 54 71 57
183 178 288 309 l31 40 157 10 c86 5 158 7 160 4 6 -9 -139 -195 -175 -225
-104 -85 -169 -148 -174 -168 -7 -29 -8 -29 -214 -57 -92 -12 -173 -28 -181
-35 -12 -11 -12 -32 2 -146 10 -74 17 -161 17 -195 0 -93 -5 -91 218 -67 39 4
62 3 62 -3 0 -34 -205 -250 -310 -326 -119 -87 -130 -97 -130 -120 0 -29 18
-47 45 -47 41 0 180 104 302 227 68 68 127 123 132 123 5 0 22 -15 37 -32 25
-30 25 -33 8 -36 -10 -2 -80 -68 -154 -148 -74 -80 -190 -195 -258 -256 -67
-60 -127 -119 -133 -130 -26 -49 20 -94 65 -64 87 57 490 458 518 515 l16 34
16 -31 c22 -42 20 -49 -12 -60 -19 -7 -36 -26 -55 -66 -57 -115 -291 -365
-527 -561 -74 -61 -80 -96 -18 -118 22 -8 87 36 184 126 43 40 99 91 123 113
71 62 270 294 303 351 16 29 34 55 38 58 14 9 33 -105 34 -200 1 -115 -29
-241 -85 -360 -30 -64 -40 -69 -79 -40 -19 14 -42 25 -51 25 -16 0 -49 -35
-49 -51 0 -17 56 -72 92 -90 73 -37 123 -4 180 118 62 133 88 251 88 402 -1
69 -5 144 -9 166 -5 22 -14 64 -20 94 -6 29 -23 81 -38 115 -29 63 -112 181
-144 204 -18 13 -18 14 1 52 l20 38 77 6 c43 4 129 11 191 18 63 6 155 8 206
4 87 -7 93 -6 113 16 26 29 68 128 89 210 8 35 19 79 24 98 14 54 12 107 -6
124 -12 13 -41 16 -146 16 -71 0 -171 -5 -221 -11 -51 -6 -123 -9 -162 -7
l-70 3 74 60 c53 43 105 102 187 212 63 84 117 159 120 166 9 24 -58 80 -77
63z m201 -597 c0 -26 -26 -124 -51 -191 -24 -65 -19 -63 -209 -67 -58 -1 -133
-6 -168 -10 -35 -4 -65 -5 -67 -1 -7 12 13 242 22 251 5 5 85 14 178 19 93 6
171 12 174 15 2 3 31 5 63 4 49 -2 58 -5 58 -20z m-585 -71 c-3 -24 -7 -78
-11 -121 -3 -45 -11 -80 -17 -83 -23 -8 -298 -40 -301 -35 -2 3 -5 58 -7 121
l-4 114 85 13 c47 7 108 17 135 22 28 5 67 9 87 10 l38 1 -5 -42z"/>
<path d="M641 2236 c-7 -8 -15 -31 -18 -53 -9 -58 -122 -331 -208 -504 -71
-142 -156 -277 -262 -417 -47 -61 -52 -81 -25 -105 40 -36 69 -13 169 132 32
47 64 86 70 88 34 12 26 -607 -13 -1072 -5 -57 -3 -73 9 -84 23 -19 60 -9 74
19 26 56 38 275 38 735 0 430 -1 462 -19 491 l-18 30 62 125 c70 138 172 372
201 462 22 67 25 137 7 155 -16 16 -53 15 -67 -2z"/>
<path d="M1932 1298 c-7 -7 -12 -21 -12 -33 0 -12 5 -26 12 -33 7 -7 21 -12
33 -12 12 0 26 5 33 12 7 7 12 21 12 33 0 12 -5 26 -12 33 -7 7 -21 12 -33 12
-12 0 -26 -5 -33 -12z"/>
</g>
</svg>
