<?xml version="1.0" standalone="no"?>
<!DOCTYPE svg PUBLIC "-//W3C//DTD SVG 20010904//EN"
 "http://www.w3.org/TR/2001/REC-SVG-20010904/DTD/svg10.dtd">
<svg version="1.0" xmlns="http://www.w3.org/2000/svg"
 width="248.000000pt" height="248.000000pt" viewBox="0 0 248.000000 248.000000"
 preserveAspectRatio="xMidYMid meet">
<metadata>
Created by potrace 1.10, written by Peter Selinger 2001-2011
</metadata>
<g transform="translate(0.000000,248.000000) scale(0.100000,-0.100000)"
fill="#000000" stroke="none">
<path d="M1667 2294 c-3 -2 -254 -16 -317 -18 -67 -2 -76 -7 -95 -53 -18 -43
-192 -251 -243 -289 -110 -84 -142 -130 -110 -162 24 -24 57 -11 137 54 71 56
183 178 287 308 27 35 36 39 85 43 206 15 261 18 264 13 10 -17 -137 -190
-231 -273 -58 -50 -107 -101 -110 -113 -10 -41 -1 -59 33 -62 27 -3 42 6 95
55 35 32 80 72 102 88 21 16 57 54 80 83 96 127 185 253 187 264 6 51 -13 62
-104 63 -32 0 -59 -1 -60 -1z"/>
<path d="M641 2237 c-6 -8 -15 -38 -21 -66 -5 -29 -19 -74 -31 -99 -12 -26
-38 -90 -59 -143 -90 -226 -252 -510 -389 -683 -36 -44 -39 -66 -13 -89 40
-36 69 -13 169 132 32 47 64 86 70 88 17 6 21 -100 17 -427 -3 -280 -16 -534
-32 -638 -10 -62 2 -95 36 -100 29 -4 48 11 56 46 18 86 36 456 36 769 0 345
-5 418 -30 448 -11 13 -1 42 68 183 120 248 202 458 202 518 0 28 -5 55 -12
62 -16 16 -53 15 -67 -1z"/>
</g>
</svg>
