<?xml version="1.0" standalone="no"?>
<!DOCTYPE svg PUBLIC "-//W3C//DTD SVG 20010904//EN"
 "http://www.w3.org/TR/2001/REC-SVG-20010904/DTD/svg10.dtd">
<svg version="1.0" xmlns="http://www.w3.org/2000/svg"
 width="248.000000pt" height="248.000000pt" viewBox="0 0 248.000000 248.000000"
 preserveAspectRatio="xMidYMid meet">
<metadata>
Created by potrace 1.10, written by Peter Selinger 2001-2011
</metadata>
<g transform="translate(0.000000,248.000000) scale(0.100000,-0.100000)"
fill="#000000" stroke="none">
<path d="M641 2237 c-6 -8 -15 -38 -21 -66 -5 -29 -19 -74 -31 -99 -12 -26
-38 -90 -59 -143 -90 -226 -252 -510 -389 -683 -36 -44 -39 -66 -13 -89 46
-42 62 -25 260 263 56 82 202 380 276 566 73 184 76 264 10 264 -12 0 -27 -6
-33 -13z"/>
</g>
</svg>
