<?xml version="1.0" standalone="no"?>
<!DOCTYPE svg PUBLIC "-//W3C//DTD SVG 20010904//EN"
 "http://www.w3.org/TR/2001/REC-SVG-20010904/DTD/svg10.dtd">
<svg version="1.0" xmlns="http://www.w3.org/2000/svg"
 width="248.000000pt" height="248.000000pt" viewBox="0 0 248.000000 248.000000"
 preserveAspectRatio="xMidYMid meet">
<metadata>
Created by potrace 1.10, written by Peter Selinger 2001-2011
</metadata>
<g transform="translate(0.000000,248.000000) scale(0.100000,-0.100000)"
fill="#000000" stroke="none">
<path d="M1759 2296 c-5 -5 -341 -20 -402 -18 -61 2 -83 -10 -102 -54 -22 -54
-184 -240 -280 -322 -86 -73 -102 -101 -73 -130 24 -24 57 -11 137 54 71 57
183 178 288 309 l31 40 157 10 c86 5 158 7 160 4 6 -9 -141 -198 -177 -227
-87 -70 -151 -129 -163 -152 -15 -30 -3 -69 22 -71 37 -3 49 4 103 55 30 28
75 67 99 86 38 31 263 317 277 353 9 24 -58 80 -77 63z"/>
<path d="M641 2236 c-7 -8 -15 -31 -18 -53 -9 -58 -122 -331 -208 -504 -71
-142 -156 -277 -262 -417 -47 -61 -52 -81 -25 -105 40 -36 69 -13 169 132 32
47 64 86 70 88 30 10 24 -794 -7 -993 -14 -89 -12 -149 4 -164 23 -18 59 -8
73 21 26 53 44 432 41 822 -3 341 -5 375 -22 403 l-18 30 62 125 c70 138 172
372 201 462 22 67 25 137 7 155 -16 16 -53 15 -67 -2z"/>
<path d="M929 1704 c-10 -13 -10 -31 0 -102 7 -48 15 -134 18 -192 3 -58 10
-111 16 -117 12 -16 49 -17 65 -1 25 25 8 381 -20 416 -15 17 -63 15 -79 -4z"/>
</g>
</svg>
