<?xml version="1.0" standalone="no"?>
<!DOCTYPE svg PUBLIC "-//W3C//DTD SVG 20010904//EN"
 "http://www.w3.org/TR/2001/REC-SVG-20010904/DTD/svg10.dtd">
<svg version="1.0" xmlns="http://www.w3.org/2000/svg"
 width="248.000000pt" height="248.000000pt" viewBox="0 0 248.000000 248.000000"
 preserveAspectRatio="xMidYMid meet">
<metadata>
Created by potrace 1.10, written by Peter Selinger 2001-2011
</metadata>
<g transform="translate(0.000000,248.000000) scale(0.100000,-0.100000)"
fill="#000000" stroke="none">
<path d="M1139 2414 c-10 -12 -15 -52 -17 -139 l-4 -121 -141 -12 c-78 -7
-232 -19 -342 -28 -235 -18 -252 -22 -278 -56 -18 -24 -18 -32 -7 -159 7 -76
19 -144 27 -156 18 -31 58 -30 79 2 14 21 14 37 4 131 -6 58 -9 108 -6 111 2
3 82 11 178 19 95 7 191 16 213 19 22 3 211 19 420 35 287 23 428 30 577 28
l198 -3 -50 -53 c-53 -56 -62 -89 -34 -116 27 -27 49 -18 111 47 67 70 93 113
93 155 0 40 -27 61 -96 72 -87 14 -374 12 -569 -5 -93 -8 -191 -15 -217 -15
l-48 0 0 103 c0 62 -5 112 -13 127 -15 31 -58 38 -78 14z"/>
<path d="M1720 1899 c-135 -21 -399 -41 -765 -59 -126 -7 -231 -16 -245 -23
-35 -17 -39 -61 -7 -82 22 -14 47 -14 218 -5 492 26 820 56 884 80 13 5 26 18
30 29 6 21 -9 61 -25 61 -4 0 -14 2 -22 4 -7 2 -38 0 -68 -5z"/>
</g>
</svg>
