<?xml version="1.0" standalone="no"?>
<!DOCTYPE svg PUBLIC "-//W3C//DTD SVG 20010904//EN"
 "http://www.w3.org/TR/2001/REC-SVG-20010904/DTD/svg10.dtd">
<svg version="1.0" xmlns="http://www.w3.org/2000/svg"
 width="248.000000pt" height="248.000000pt" viewBox="0 0 248.000000 248.000000"
 preserveAspectRatio="xMidYMid meet">
<metadata>
Created by potrace 1.10, written by Peter Selinger 2001-2011
</metadata>
<g transform="translate(0.000000,248.000000) scale(0.100000,-0.100000)"
fill="#000000" stroke="none">
<path d="M1970 2279 c-36 -4 -117 -13 -180 -18 -140 -13 -170 -17 -330 -41
-69 -11 -168 -22 -222 -25 -53 -3 -174 -15 -270 -26 -95 -11 -207 -24 -248
-29 -133 -15 -215 -31 -236 -45 -20 -13 -22 -25 -27 -172 -8 -239 -26 -497
-42 -603 -8 -52 -19 -142 -25 -200 -23 -220 -41 -334 -86 -540 -27 -119 -51
-187 -111 -307 -42 -84 -54 -117 -49 -137 8 -34 49 -45 76 -21 35 32 97 157
138 280 54 161 112 461 132 680 6 66 18 156 26 200 13 73 34 332 51 622 5 88
9 113 21 118 9 3 59 10 112 15 53 5 103 11 111 14 21 8 284 36 429 46 69 5
181 18 250 29 69 11 179 25 245 31 240 20 375 37 390 50 19 16 19 54 -1 74
-17 17 -49 18 -154 5z"/>
</g>
</svg>
