<?xml version="1.0" standalone="no"?>
<!DOCTYPE svg PUBLIC "-//W3C//DTD SVG 20010904//EN"
 "http://www.w3.org/TR/2001/REC-SVG-20010904/DTD/svg10.dtd">
<svg version="1.0" xmlns="http://www.w3.org/2000/svg"
 width="248.000000pt" height="248.000000pt" viewBox="0 0 248.000000 248.000000"
 preserveAspectRatio="xMidYMid meet">
<metadata>
Created by potrace 1.10, written by Peter Selinger 2001-2011
</metadata>
<g transform="translate(0.000000,248.000000) scale(0.100000,-0.100000)"
fill="#000000" stroke="none">
<path d="M1139 2414 c-10 -12 -16 -56 -19 -138 l-5 -121 -125 -11 c-69 -6
-190 -17 -270 -23 -343 -28 -347 -29 -371 -73 -14 -26 9 -275 28 -305 18 -31
58 -30 79 2 14 21 14 37 4 131 -6 58 -9 108 -6 111 2 3 78 11 168 18 276 23
411 35 451 40 l37 5 -1 -52 c0 -29 -8 -75 -17 -103 l-17 -50 -175 -8 c-189 -8
-220 -17 -220 -62 0 -48 29 -56 188 -48 l144 6 -12 -24 c-28 -52 -93 -127
-171 -198 -86 -78 -82 -78 -113 -21 -23 40 -104 110 -129 110 -60 0 -62 -55
-4 -118 44 -47 85 -109 76 -115 -2 -1 -29 -21 -59 -43 -60 -45 -98 -65 -178
-96 -55 -21 -77 -46 -67 -78 19 -59 175 -13 311 91 28 22 54 39 57 39 10 0 35
-93 62 -220 32 -156 29 -154 207 -145 l138 7 0 -224 c0 -124 3 -279 6 -345 l7
-120 -32 5 c-37 5 -61 -12 -61 -43 0 -28 91 -105 124 -105 68 1 74 43 68 471
l-5 356 108 6 c60 4 134 7 166 7 102 0 130 23 150 121 6 30 17 83 25 119 8 36
19 91 26 122 l11 57 56 -28 c97 -48 284 -119 341 -130 67 -12 104 2 108 40 4
34 -13 47 -78 59 -57 11 -246 83 -343 132 l-58 29 71 72 c39 40 73 83 77 96 8
32 -8 55 -41 59 -23 3 -40 -10 -106 -78 -44 -45 -80 -86 -82 -91 -2 -6 -38 10
-80 34 -115 66 -330 202 -321 203 4 1 69 7 143 14 188 17 366 39 394 50 46 17
41 85 -6 92 -13 2 -66 -2 -118 -8 -93 -11 -289 -29 -423 -39 -61 -4 -68 -3
-63 13 11 34 26 125 26 157 l0 32 148 12 c81 7 266 15 412 18 l264 5 -52 -57
c-55 -59 -64 -91 -36 -119 27 -27 49 -18 111 47 67 70 93 113 93 155 0 40 -27
61 -96 72 -87 14 -374 12 -569 -5 -93 -8 -191 -15 -217 -15 l-48 0 0 108 c0
81 -4 113 -16 130 -18 26 -56 29 -75 6z m113 -787 c62 -40 143 -91 180 -112
l67 -40 -37 -7 c-20 -4 -71 -7 -112 -8 -88 0 -392 -25 -435 -35 -28 -7 -27 -4
25 46 47 46 99 111 165 207 9 12 20 22 25 22 5 0 60 -33 122 -73z m358 -301
c0 -65 -2 -66 -114 -66 -55 0 -164 -4 -241 -9 -77 -6 -199 -13 -270 -16 l-130
-7 -14 37 c-7 20 -11 38 -9 39 22 17 419 49 686 54 l92 2 0 -34z m-40 -193 c0
-10 -5 -34 -10 -54 l-10 -37 -143 -6 c-78 -3 -224 -8 -324 -11 -201 -6 -183
-12 -198 62 l-6 31 63 6 c112 10 370 23 501 24 115 2 127 0 127 -15z"/>
<path d="M776 648 c-29 -40 -67 -87 -82 -105 -37 -40 -149 -125 -201 -151 -52
-27 -67 -46 -59 -77 10 -39 50 -43 110 -12 125 66 244 175 333 306 38 56 27
111 -24 111 -16 0 -37 -20 -77 -72z"/>
<path d="M1522 648 c-17 -17 -15 -53 6 -70 23 -21 145 -94 272 -163 58 -32
120 -70 138 -86 34 -30 79 -38 100 -17 37 37 -16 101 -143 169 -44 23 -132 73
-195 111 -112 67 -154 80 -178 56z"/>
</g>
</svg>
