<?xml version="1.0" standalone="no"?>
<!DOCTYPE svg PUBLIC "-//W3C//DTD SVG 20010904//EN"
 "http://www.w3.org/TR/2001/REC-SVG-20010904/DTD/svg10.dtd">
<svg version="1.0" xmlns="http://www.w3.org/2000/svg"
 width="248.000000pt" height="248.000000pt" viewBox="0 0 248.000000 248.000000"
 preserveAspectRatio="xMidYMid meet">
<metadata>
Created by potrace 1.10, written by Peter Selinger 2001-2011
</metadata>
<g transform="translate(0.000000,248.000000) scale(0.100000,-0.100000)"
fill="#000000" stroke="none">
<path d="M1970 2279 c-36 -4 -117 -13 -180 -18 -140 -13 -170 -17 -330 -41
-69 -11 -168 -22 -222 -25 -53 -3 -174 -15 -270 -26 -95 -11 -207 -24 -248
-29 -133 -15 -215 -31 -236 -45 -20 -13 -22 -25 -27 -172 -8 -239 -26 -497
-42 -603 -8 -52 -19 -142 -25 -200 -23 -220 -41 -334 -86 -540 -27 -119 -51
-187 -111 -307 -42 -84 -54 -117 -49 -137 8 -34 49 -45 76 -21 35 32 97 157
138 280 54 161 112 461 132 680 6 66 18 156 26 200 13 73 34 332 51 622 5 88
9 113 21 118 9 3 59 10 112 15 53 5 103 11 111 14 22 8 290 37 429 46 69 5
181 18 250 29 69 11 179 25 245 31 240 20 375 37 390 50 19 16 19 54 -1 74
-17 17 -49 18 -154 5z"/>
<path d="M969 2024 c-10 -12 -16 -59 -19 -153 l-5 -136 -80 -16 c-44 -9 -109
-20 -145 -24 -36 -4 -75 -13 -87 -21 -27 -17 -30 -56 -7 -75 21 -17 108 -14
221 10 l88 18 3 -41 c2 -22 -1 -155 -7 -296 -10 -250 -8 -292 12 -317 12 -17
62 -17 75 0 6 7 15 144 23 342 8 220 15 332 23 337 6 4 36 10 66 13 78 8 181
34 208 51 25 17 29 56 7 74 -16 13 -37 12 -185 -15 -47 -8 -88 -15 -92 -15 -5
0 -8 53 -8 118 0 90 -4 123 -16 140 -18 26 -56 29 -75 6z"/>
</g>
</svg>
