<?xml version="1.0" standalone="no"?>
<!DOCTYPE svg PUBLIC "-//W3C//DTD SVG 20010904//EN"
 "http://www.w3.org/TR/2001/REC-SVG-20010904/DTD/svg10.dtd">
<svg version="1.0" xmlns="http://www.w3.org/2000/svg"
 width="248.000000pt" height="248.000000pt" viewBox="0 0 248.000000 248.000000"
 preserveAspectRatio="xMidYMid meet">
<metadata>
Created by potrace 1.10, written by Peter Selinger 2001-2011
</metadata>
<g transform="translate(0.000000,248.000000) scale(0.100000,-0.100000)"
fill="#000000" stroke="none">
<path d="M1139 2414 c-10 -12 -15 -52 -17 -143 -3 -146 6 -176 53 -176 21 0
33 7 42 25 17 34 17 246 0 280 -15 31 -58 38 -78 14z"/>
<path d="M354 2055 c-14 -21 -14 -39 -4 -157 7 -76 19 -143 27 -155 18 -31 58
-30 78 1 14 21 14 40 4 157 -7 76 -18 144 -26 157 -18 30 -58 29 -79 -3z"/>
</g>
</svg>
