<?xml version="1.0" standalone="no"?>
<!DOCTYPE svg PUBLIC "-//W3C//DTD SVG 20010904//EN"
 "http://www.w3.org/TR/2001/REC-SVG-20010904/DTD/svg10.dtd">
<svg version="1.0" xmlns="http://www.w3.org/2000/svg"
 width="248.000000pt" height="248.000000pt" viewBox="0 0 248.000000 248.000000"
 preserveAspectRatio="xMidYMid meet">
<metadata>
Created by potrace 1.10, written by Peter Selinger 2001-2011
</metadata>
<g transform="translate(0.000000,248.000000) scale(0.100000,-0.100000)"
fill="#000000" stroke="none">
<path d="M1970 2279 c-36 -4 -117 -13 -180 -18 -140 -13 -170 -17 -330 -41
-69 -11 -168 -22 -222 -25 -53 -3 -174 -15 -270 -26 -95 -11 -207 -24 -248
-29 -206 -24 -250 -39 -250 -85 0 -46 32 -53 157 -35 284 40 427 57 613 70 69
5 181 18 250 29 69 11 179 25 245 31 240 20 375 37 390 50 19 16 19 54 -1 74
-17 17 -49 18 -154 5z"/>
</g>
</svg>
