<?xml version="1.0" standalone="no"?>
<!DOCTYPE svg PUBLIC "-//W3C//DTD SVG 20010904//EN"
 "http://www.w3.org/TR/2001/REC-SVG-20010904/DTD/svg10.dtd">
<svg version="1.0" xmlns="http://www.w3.org/2000/svg"
 width="248.000000pt" height="248.000000pt" viewBox="0 0 248.000000 248.000000"
 preserveAspectRatio="xMidYMid meet">
<metadata>
Created by potrace 1.10, written by Peter Selinger 2001-2011
</metadata>
<g transform="translate(0.000000,248.000000) scale(0.100000,-0.100000)"
fill="#000000" stroke="none">
<path d="M1139 2414 c-10 -12 -15 -52 -17 -139 l-4 -121 -141 -12 c-78 -7
-232 -19 -342 -28 -235 -18 -252 -22 -278 -56 -18 -24 -18 -32 -7 -159 7 -76
19 -144 27 -156 18 -31 58 -30 79 2 14 21 14 37 4 131 -6 58 -9 108 -6 111 2
3 78 11 168 18 276 23 411 35 451 40 l37 5 -1 -52 c0 -29 -8 -75 -17 -103
l-17 -50 -169 -8 c-98 -4 -180 -13 -195 -20 -35 -17 -40 -59 -9 -81 19 -14 44
-15 167 -9 123 5 143 4 136 -8 -37 -63 -107 -146 -175 -208 -87 -79 -83 -78
-114 -21 -23 40 -104 110 -129 110 -61 0 -63 -60 -4 -118 39 -39 85 -108 76
-115 -2 -2 -22 -17 -44 -34 -53 -40 -126 -80 -192 -105 -29 -11 -58 -28 -64
-39 -15 -28 -2 -58 28 -65 31 -8 123 19 175 52 21 13 41 24 45 24 5 0 31 18
58 40 28 22 53 40 57 40 10 0 44 -119 64 -225 19 -104 35 -135 68 -135 39 0
50 23 43 93 -4 34 -9 72 -13 84 -5 20 -2 22 58 27 120 10 444 26 540 26 l96 0
-14 -52 c-17 -64 -10 -106 21 -120 34 -15 63 5 71 50 4 20 15 75 26 122 10 47
24 111 30 142 l11 57 56 -28 c97 -48 284 -119 341 -130 67 -12 104 2 108 40 4
34 -13 47 -78 59 -57 11 -246 83 -343 132 l-57 28 70 73 c39 39 73 83 77 96 8
32 -8 55 -41 59 -23 3 -40 -10 -106 -78 -44 -45 -80 -86 -82 -91 -3 -9 -42 12
-186 97 -18 10 -76 47 -130 81 l-97 63 41 0 c22 0 76 4 120 9 43 6 129 15 189
21 206 20 247 36 230 91 -11 32 -43 37 -150 24 -93 -12 -265 -28 -428 -40 -61
-4 -68 -3 -63 13 11 34 26 125 26 157 l0 32 233 17 c138 11 304 16 409 14
l178 -3 -50 -53 c-53 -56 -62 -89 -34 -116 27 -27 49 -18 111 47 67 70 93 113
93 155 0 40 -27 61 -96 72 -87 14 -374 12 -569 -5 -93 -8 -191 -15 -217 -15
l-48 0 0 103 c0 62 -5 112 -13 127 -15 31 -58 38 -78 14z m113 -787 c62 -40
143 -91 180 -112 l67 -40 -37 -7 c-20 -4 -71 -7 -112 -8 -88 0 -392 -25 -435
-35 -28 -7 -27 -4 25 46 47 46 99 111 165 207 9 12 20 22 25 22 5 0 60 -33
122 -73z m358 -301 c0 -65 -2 -66 -114 -66 -55 0 -166 -4 -246 -9 -80 -6 -201
-13 -270 -16 l-125 -7 -14 37 c-7 20 -11 38 -9 39 20 17 418 49 686 54 l92 2
0 -34z"/>
</g>
</svg>
