<?xml version="1.0" standalone="no"?>
<!DOCTYPE svg PUBLIC "-//W3C//DTD SVG 20010904//EN"
 "http://www.w3.org/TR/2001/REC-SVG-20010904/DTD/svg10.dtd">
<svg version="1.0" xmlns="http://www.w3.org/2000/svg"
 width="248.000000pt" height="248.000000pt" viewBox="0 0 248.000000 248.000000"
 preserveAspectRatio="xMidYMid meet">
<metadata>
Created by potrace 1.10, written by Peter Selinger 2001-2011
</metadata>
<g transform="translate(0.000000,248.000000) scale(0.100000,-0.100000)"
fill="#000000" stroke="none">
<path d="M475 2143 c-66 -64 -166 -153 -221 -199 -56 -46 -105 -91 -108 -100
-9 -24 20 -64 47 -64 47 0 449 361 463 416 9 34 -6 58 -37 61 -19 2 -51 -24
-144 -114z"/>
<path d="M568 1683 c-9 -10 -49 -74 -90 -143 -102 -172 -231 -349 -336 -461
-36 -39 -40 -74 -10 -93 30 -18 69 6 138 86 140 161 380 529 380 582 0 44 -52
63 -82 29z"/>
</g>
</svg>
