<?xml version="1.0" standalone="no"?>
<!DOCTYPE svg PUBLIC "-//W3C//DTD SVG 20010904//EN"
 "http://www.w3.org/TR/2001/REC-SVG-20010904/DTD/svg10.dtd">
<svg version="1.0" xmlns="http://www.w3.org/2000/svg"
 width="248.000000pt" height="248.000000pt" viewBox="0 0 248.000000 248.000000"
 preserveAspectRatio="xMidYMid meet">
<metadata>
Created by potrace 1.10, written by Peter Selinger 2001-2011
</metadata>
<g transform="translate(0.000000,248.000000) scale(0.100000,-0.100000)"
fill="#000000" stroke="none">
<path d="M475 2143 c-66 -64 -166 -153 -221 -199 -56 -46 -105 -91 -108 -100
-9 -24 20 -64 47 -64 47 0 449 361 463 416 9 34 -6 58 -37 61 -19 2 -51 -24
-144 -114z"/>
<path d="M1112 2238 c-8 -8 -12 -69 -13 -202 -1 -105 -4 -231 -8 -281 l-6 -90
-165 -24 c-91 -13 -171 -28 -177 -33 -16 -13 -17 -50 -1 -66 16 -16 109 -15
225 4 53 8 102 13 110 10 12 -5 13 -76 7 -463 -3 -252 -9 -483 -14 -513 -11
-76 0 -100 45 -100 28 0 37 5 44 23 9 22 24 686 22 922 -1 93 2 135 11 146 9
11 56 23 143 37 135 21 159 33 153 77 -6 38 -39 43 -160 24 -62 -10 -119 -19
-125 -19 -10 0 -13 60 -13 268 0 282 -2 292 -45 292 -12 0 -26 -5 -33 -12z"/>
<path d="M1302 2128 c-21 -21 -13 -52 31 -112 67 -95 147 -176 173 -176 26 0
54 24 54 46 0 8 -20 36 -43 62 -24 26 -57 67 -74 92 -61 90 -109 120 -141 88z"/>
<path d="M2169 2126 c-2 -2 -110 -19 -239 -37 -129 -18 -241 -37 -247 -42 -7
-5 -13 -20 -13 -32 0 -40 22 -48 117 -42 82 5 360 40 410 52 48 11 68 59 37
89 -14 15 -55 22 -65 12z"/>
<path d="M568 1683 c-9 -10 -49 -74 -90 -143 -41 -69 -105 -168 -143 -220 -71
-98 -197 -254 -215 -265 -14 -9 -13 -48 2 -63 7 -7 23 -12 37 -12 29 0 109 79
187 184 27 38 52 62 57 57 9 -9 -5 -376 -29 -720 -15 -228 -14 -241 31 -241
42 0 51 26 64 180 16 203 31 518 32 693 1 122 -2 152 -16 173 -16 25 -15 27
23 87 81 127 142 238 142 260 0 45 -52 64 -82 30z"/>
<path d="M2145 1693 c-16 -1 -104 -10 -195 -19 -160 -15 -411 -64 -437 -86
-16 -13 -17 -50 -1 -66 18 -18 80 -14 186 12 53 14 126 26 162 28 l65 3 6
-405 c4 -223 3 -475 -2 -560 -10 -170 -28 -340 -37 -340 -3 0 -29 23 -58 50
-58 55 -74 60 -104 30 -29 -29 -25 -42 27 -101 97 -107 162 -134 202 -83 54
69 66 225 66 871 0 298 3 545 7 548 4 4 73 14 154 21 80 7 152 18 160 25 17
14 18 51 2 67 -11 11 -127 14 -203 5z"/>
<path d="M1272 1338 c-14 -14 -16 -60 -3 -73 5 -6 21 -39 36 -75 56 -137 140
-299 161 -309 30 -13 64 12 64 46 0 15 -17 61 -39 102 -21 42 -56 117 -76 166
-21 50 -49 105 -62 123 -25 33 -59 42 -81 20z"/>
<path d="M841 1257 c-6 -8 -14 -29 -17 -48 -18 -105 -51 -185 -131 -319 -35
-58 -63 -113 -63 -122 0 -10 11 -25 25 -34 23 -15 27 -15 49 -1 13 9 53 67 90
129 98 166 153 357 114 396 -16 16 -53 15 -67 -1z"/>
</g>
</svg>
