<?xml version="1.0" standalone="no"?>
<!DOCTYPE svg PUBLIC "-//W3C//DTD SVG 20010904//EN"
 "http://www.w3.org/TR/2001/REC-SVG-20010904/DTD/svg10.dtd">
<svg version="1.0" xmlns="http://www.w3.org/2000/svg"
 width="248.000000pt" height="248.000000pt" viewBox="0 0 248.000000 248.000000"
 preserveAspectRatio="xMidYMid meet">
<metadata>
Created by potrace 1.10, written by Peter Selinger 2001-2011
</metadata>
<g transform="translate(0.000000,248.000000) scale(0.100000,-0.100000)"
fill="#000000" stroke="none">
<path d="M475 2143 c-66 -64 -166 -153 -221 -199 -56 -46 -105 -91 -108 -100
-9 -24 20 -64 47 -64 47 0 449 361 463 416 9 34 -6 58 -37 61 -19 2 -51 -24
-144 -114z"/>
<path d="M1112 2238 c-8 -8 -12 -69 -13 -202 -1 -105 -4 -231 -8 -281 l-6 -90
-165 -24 c-91 -13 -171 -28 -177 -33 -16 -13 -17 -50 -1 -66 16 -16 109 -15
225 4 53 8 102 13 110 10 12 -5 13 -76 7 -463 -3 -252 -9 -483 -14 -513 -11
-76 0 -100 45 -100 28 0 37 5 44 23 9 24 23 590 21 877 0 128 3 180 12 191 9
11 57 23 143 37 135 21 159 33 153 77 -6 38 -39 43 -160 24 -62 -10 -119 -19
-125 -19 -10 0 -13 60 -13 268 0 282 -2 292 -45 292 -12 0 -26 -5 -33 -12z"/>
<path d="M568 1683 c-9 -10 -49 -74 -90 -143 -41 -69 -105 -168 -143 -220 -71
-98 -197 -254 -215 -265 -14 -9 -13 -48 2 -63 7 -7 23 -12 37 -12 29 0 109 79
187 184 27 38 52 62 57 57 9 -9 -5 -376 -29 -720 -15 -228 -14 -241 31 -241
42 0 51 26 64 180 16 203 31 518 32 693 1 122 -2 152 -16 173 -16 25 -15 27
23 87 81 127 142 238 142 260 0 45 -52 64 -82 30z"/>
</g>
</svg>
