<?xml version="1.0" standalone="no"?>
<!DOCTYPE svg PUBLIC "-//W3C//DTD SVG 20010904//EN"
 "http://www.w3.org/TR/2001/REC-SVG-20010904/DTD/svg10.dtd">
<svg version="1.0" xmlns="http://www.w3.org/2000/svg"
 width="248.000000pt" height="248.000000pt" viewBox="0 0 248.000000 248.000000"
 preserveAspectRatio="xMidYMid meet">
<metadata>
Created by potrace 1.10, written by Peter Selinger 2001-2011
</metadata>
<g transform="translate(0.000000,248.000000) scale(0.100000,-0.100000)"
fill="#000000" stroke="none">
<path d="M1229 2374 c-11 -13 -13 -46 -11 -151 l4 -133 -85 0 c-46 0 -147 -6
-223 -14 -77 -8 -204 -20 -284 -27 -153 -12 -173 -18 -190 -49 -9 -17 3 -170
26 -327 5 -37 34 -58 65 -48 34 11 41 50 29 165 -6 58 -12 114 -13 125 -2 18
6 21 78 27 44 4 132 13 195 19 63 6 183 15 265 19 83 5 206 15 275 23 69 8
217 18 330 21 113 4 251 9 308 12 56 3 102 2 102 -3 0 -4 -20 -30 -45 -58 -61
-67 -58 -115 6 -115 20 0 40 14 74 53 99 109 120 167 76 210 -21 21 -28 22
-214 19 -209 -3 -531 -18 -613 -28 l-51 -6 -6 112 c-4 61 -12 124 -19 138 -16
33 -58 41 -79 16z"/>
<path d="M1076 1878 c-9 -12 -16 -29 -16 -38 0 -28 -37 -122 -51 -131 -8 -5
-68 -9 -134 -9 -137 0 -169 -11 -163 -58 5 -40 39 -52 156 -52 56 0 102 -3
102 -7 0 -4 -16 -34 -36 -66 -25 -40 -34 -65 -30 -81 6 -24 43 -46 78 -46 32
0 138 -23 138 -30 0 -6 -161 -89 -232 -119 -42 -17 -48 -24 -48 -49 0 -40 22
-56 67 -49 44 8 233 100 322 157 34 22 67 40 74 40 7 0 97 -16 200 -37 201
-40 219 -39 225 9 5 40 -26 56 -163 84 -72 15 -134 30 -138 34 -5 4 11 21 35
38 46 31 178 166 178 181 0 5 51 12 114 16 133 8 161 18 161 60 0 45 -32 57
-138 49 -83 -6 -89 -5 -103 15 -20 28 -58 27 -82 -4 -13 -16 -30 -25 -48 -25
-15 0 -111 -9 -212 -21 -101 -11 -186 -19 -188 -16 -2 2 3 32 12 66 14 57 14
64 0 87 -21 31 -60 32 -80 2z m403 -255 c-34 -39 -55 -55 -140 -118 l-77 -55
-73 11 c-41 7 -90 16 -111 21 l-36 8 26 59 26 60 71 6 c39 4 116 13 171 20 54
7 114 13 133 14 l34 1 -24 -27z"/>
</g>
</svg>
