<?xml version="1.0" standalone="no"?>
<!DOCTYPE svg PUBLIC "-//W3C//DTD SVG 20010904//EN"
 "http://www.w3.org/TR/2001/REC-SVG-20010904/DTD/svg10.dtd">
<svg version="1.0" xmlns="http://www.w3.org/2000/svg"
 width="248.000000pt" height="248.000000pt" viewBox="0 0 248.000000 248.000000"
 preserveAspectRatio="xMidYMid meet">
<metadata>
Created by potrace 1.10, written by Peter Selinger 2001-2011
</metadata>
<g transform="translate(0.000000,248.000000) scale(0.100000,-0.100000)"
fill="#000000" stroke="none">
<path d="M1445 2344 c-93 -7 -240 -20 -325 -29 -85 -8 -226 -22 -314 -30 -124
-11 -162 -18 -178 -32 -23 -21 -23 -24 20 -208 16 -71 36 -164 43 -204 14 -84
37 -117 72 -106 95 30 680 85 962 91 66 1 125 2 132 3 6 1 26 36 43 79 18 42
36 82 40 87 19 26 112 274 113 304 2 58 -12 61 -237 60 -111 -1 -277 -7 -371
-15z m479 -116 c-3 -13 -24 -63 -46 -113 -22 -49 -49 -111 -60 -138 -17 -38
-24 -46 -40 -41 -11 3 -74 1 -141 -5 -67 -6 -187 -16 -267 -21 -80 -6 -199
-17 -265 -25 -66 -8 -163 -17 -216 -21 l-95 -6 -17 78 c-8 44 -23 112 -32 152
-8 40 -13 77 -11 81 3 4 29 8 58 10 29 1 107 8 173 16 324 38 505 51 758 54
l209 2 -8 -23z"/>
<path d="M780 1555 c-8 -9 -14 -31 -14 -48 1 -283 20 -882 28 -900 14 -28 58
-34 77 -11 20 24 23 182 11 581 -8 237 -14 340 -24 360 -16 33 -58 42 -78 18z"/>
</g>
</svg>
