<?xml version="1.0" standalone="no"?>
<!DOCTYPE svg PUBLIC "-//W3C//DTD SVG 20010904//EN"
 "http://www.w3.org/TR/2001/REC-SVG-20010904/DTD/svg10.dtd">
<svg version="1.0" xmlns="http://www.w3.org/2000/svg"
 width="248.000000pt" height="248.000000pt" viewBox="0 0 248.000000 248.000000"
 preserveAspectRatio="xMidYMid meet">
<metadata>
Created by potrace 1.10, written by Peter Selinger 2001-2011
</metadata>
<g transform="translate(0.000000,248.000000) scale(0.100000,-0.100000)"
fill="#000000" stroke="none">
<path d="M629 2224 c-10 -13 -10 -30 4 -97 9 -45 28 -138 42 -207 14 -69 27
-135 30 -148 8 -31 46 -48 75 -32 21 11 22 17 16 79 -3 36 -13 95 -20 131 -8
36 -24 107 -35 159 -12 52 -28 103 -38 113 -20 22 -56 23 -74 2z"/>
</g>
</svg>
