<?xml version="1.0" standalone="no"?>
<!DOCTYPE svg PUBLIC "-//W3C//DTD SVG 20010904//EN"
 "http://www.w3.org/TR/2001/REC-SVG-20010904/DTD/svg10.dtd">
<svg version="1.0" xmlns="http://www.w3.org/2000/svg"
 width="248.000000pt" height="248.000000pt" viewBox="0 0 248.000000 248.000000"
 preserveAspectRatio="xMidYMid meet">
<metadata>
Created by potrace 1.10, written by Peter Selinger 2001-2011
</metadata>
<g transform="translate(0.000000,248.000000) scale(0.100000,-0.100000)"
fill="#000000" stroke="none">
<path d="M1445 2344 c-93 -7 -240 -20 -325 -29 -85 -8 -226 -22 -314 -30 -124
-11 -162 -18 -178 -32 -23 -21 -23 -24 20 -208 16 -71 36 -164 43 -204 14 -84
37 -117 72 -106 95 30 680 85 962 91 66 1 125 2 132 3 6 1 26 36 43 79 18 42
36 82 40 87 19 26 112 274 113 304 2 58 -12 61 -237 60 -111 -1 -277 -7 -371
-15z m479 -116 c-3 -13 -24 -63 -46 -113 -22 -49 -49 -111 -60 -138 -17 -38
-24 -46 -40 -41 -11 3 -74 1 -141 -5 -67 -6 -187 -16 -267 -21 -80 -6 -199
-17 -265 -25 -66 -8 -163 -17 -216 -21 l-95 -6 -17 78 c-8 44 -23 112 -32 152
-8 40 -13 77 -11 81 3 4 29 8 58 10 29 1 107 8 173 16 324 38 505 51 758 54
l209 2 -8 -23z"/>
<path d="M1365 1678 c-71 -4 -197 -15 -280 -24 -82 -9 -185 -20 -228 -24 -105
-10 -112 -17 -98 -107 6 -38 14 -255 17 -481 5 -269 11 -420 18 -435 14 -28
58 -34 77 -11 16 19 18 237 9 689 l-5 240 85 12 c124 18 338 33 559 40 l194 6
-7 -164 c-4 -90 -9 -180 -11 -199 -2 -19 -7 -166 -11 -327 -8 -318 -7 -323 47
-323 49 0 52 18 60 350 4 168 13 376 20 462 14 192 8 260 -28 288 -23 18 -39
20 -157 18 -72 0 -189 -5 -261 -10z"/>
</g>
</svg>
