<?xml version="1.0" standalone="no"?>
<!DOCTYPE svg PUBLIC "-//W3C//DTD SVG 20010904//EN"
 "http://www.w3.org/TR/2001/REC-SVG-20010904/DTD/svg10.dtd">
<svg version="1.0" xmlns="http://www.w3.org/2000/svg"
 width="248.000000pt" height="248.000000pt" viewBox="0 0 248.000000 248.000000"
 preserveAspectRatio="xMidYMid meet">
<metadata>
Created by potrace 1.10, written by Peter Selinger 2001-2011
</metadata>
<g transform="translate(0.000000,248.000000) scale(0.100000,-0.100000)"
fill="#000000" stroke="none">
<path d="M1890 2303 c-6 -10 -31 -60 -56 -112 -43 -90 -129 -215 -199 -291
-18 -19 -40 -49 -49 -66 -17 -35 -20 -36 -205 -55 -58 -5 -107 -12 -111 -14
-3 -2 -77 -9 -165 -15 -173 -12 -205 -23 -205 -65 0 -48 31 -56 181 -45 74 6
161 15 194 20 33 5 112 14 175 20 63 6 160 18 215 25 55 8 144 19 199 24 105
11 136 26 136 66 0 41 -22 48 -118 41 -48 -4 -107 -9 -131 -13 l-44 -6 21 29
c12 16 51 67 87 114 113 149 180 311 143 348 -18 18 -56 15 -68 -5z"/>
<path d="M1083 2238 c-30 -39 -21 -90 44 -238 52 -119 67 -140 98 -140 56 0
58 44 5 162 -22 49 -47 114 -55 145 -8 30 -20 62 -26 69 -14 17 -53 18 -66 2z"/>
<path d="M515 1800 c-22 -5 -109 -16 -193 -26 -117 -13 -159 -22 -178 -36
l-24 -19 0 -370 c0 -356 1 -370 20 -389 26 -26 46 -27 235 -10 61 6 154 14
208 19 121 11 143 24 153 88 7 47 -1 429 -12 588 -8 110 -16 138 -45 152 -27
14 -103 15 -164 3z m99 -142 c3 -24 9 -162 12 -309 l7 -265 -109 -12 c-60 -6
-138 -14 -174 -17 -36 -4 -77 -8 -92 -11 l-28 -6 0 310 0 310 43 6 c23 3 87
11 141 16 55 6 102 12 104 15 3 3 24 5 47 5 42 0 42 0 49 -42z"/>
</g>
</svg>
