<?xml version="1.0" standalone="no"?>
<!DOCTYPE svg PUBLIC "-//W3C//DTD SVG 20010904//EN"
 "http://www.w3.org/TR/2001/REC-SVG-20010904/DTD/svg10.dtd">
<svg version="1.0" xmlns="http://www.w3.org/2000/svg"
 width="248.000000pt" height="248.000000pt" viewBox="0 0 248.000000 248.000000"
 preserveAspectRatio="xMidYMid meet">
<metadata>
Created by potrace 1.10, written by Peter Selinger 2001-2011
</metadata>
<g transform="translate(0.000000,248.000000) scale(0.100000,-0.100000)"
fill="#000000" stroke="none">
<path d="M515 1800 c-22 -5 -109 -16 -193 -26 -117 -13 -159 -22 -178 -36
l-24 -19 0 -370 c0 -356 1 -370 20 -389 26 -26 46 -27 235 -10 61 6 154 14
208 19 121 11 143 24 153 88 7 47 -1 429 -12 588 -8 110 -16 138 -45 152 -27
14 -103 15 -164 3z m99 -142 c3 -24 9 -162 12 -309 l7 -265 -109 -12 c-60 -6
-138 -14 -174 -17 -36 -4 -77 -8 -92 -11 l-28 -6 0 310 0 310 43 6 c23 3 87
11 141 16 55 6 102 12 104 15 3 3 24 5 47 5 42 0 42 0 49 -42z"/>
</g>
</svg>
