<?xml version="1.0" standalone="no"?>
<!DOCTYPE svg PUBLIC "-//W3C//DTD SVG 20010904//EN"
 "http://www.w3.org/TR/2001/REC-SVG-20010904/DTD/svg10.dtd">
<svg version="1.0" xmlns="http://www.w3.org/2000/svg"
 width="248.000000pt" height="248.000000pt" viewBox="0 0 248.000000 248.000000"
 preserveAspectRatio="xMidYMid meet">
<metadata>
Created by potrace 1.10, written by Peter Selinger 2001-2011
</metadata>
<g transform="translate(0.000000,248.000000) scale(0.100000,-0.100000)"
fill="#000000" stroke="none">
<path d="M1603 2398 c-6 -7 -13 -42 -17 -78 -4 -40 -12 -69 -21 -76 -18 -13
-35 -16 -350 -49 -132 -14 -250 -28 -261 -31 -20 -5 -22 1 -33 72 -13 90 -31
124 -65 124 -41 0 -49 -22 -42 -106 4 -41 9 -81 12 -88 5 -12 -120 -31 -373
-55 -102 -9 -126 -21 -121 -60 6 -54 72 -59 310 -25 134 19 208 19 208 -2 0
-8 7 -46 16 -85 18 -79 39 -99 82 -80 24 11 24 15 18 74 -3 34 -9 76 -12 93
-7 39 -27 34 309 69 131 14 250 28 264 31 25 7 25 6 19 -32 -20 -123 -19 -141
4 -154 49 -26 84 27 105 157 5 35 11 43 33 47 43 9 347 36 405 36 70 0 101 17
105 57 5 47 -22 57 -132 49 -126 -9 -293 -24 -341 -32 l-40 -6 3 62 c3 48 0
66 -14 81 -19 22 -57 25 -71 7z"/>
<path d="M1749 1845 c-11 -10 -589 -72 -983 -105 -127 -10 -156 -22 -156 -65
0 -43 21 -48 148 -41 64 4 180 14 257 22 77 8 190 19 250 24 165 15 286 28
324 36 32 7 34 6 28 -17 -4 -13 -10 -65 -13 -115 l-7 -92 -71 -7 c-90 -8 -628
-73 -678 -81 -43 -6 -43 -6 -52 105 -7 76 -26 111 -61 111 -44 0 -55 -33 -44
-134 6 -48 8 -90 6 -93 -10 -9 -135 -23 -217 -23 -98 0 -134 -14 -138 -52 -2
-20 4 -31 23 -44 26 -17 102 -17 283 2 l62 7 0 -84 c0 -102 14 -134 55 -134
42 0 55 32 55 141 l0 92 93 11 c50 7 151 18 222 26 72 8 202 23 290 33 88 11
162 17 164 15 3 -2 -3 -57 -12 -123 -18 -129 -13 -163 22 -175 11 -3 29 -1 40
5 21 11 23 15 47 185 8 60 17 112 20 116 5 9 68 18 203 29 250 21 285 31 279
79 -5 42 -43 54 -140 42 -46 -6 -130 -15 -188 -21 -58 -6 -115 -13 -128 -16
l-23 -7 3 119 4 119 44 7 c70 12 96 60 52 96 -16 12 -54 17 -63 7z"/>
</g>
</svg>
