<?xml version="1.0" standalone="no"?>
<!DOCTYPE svg PUBLIC "-//W3C//DTD SVG 20010904//EN"
 "http://www.w3.org/TR/2001/REC-SVG-20010904/DTD/svg10.dtd">
<svg version="1.0" xmlns="http://www.w3.org/2000/svg"
 width="248.000000pt" height="248.000000pt" viewBox="0 0 248.000000 248.000000"
 preserveAspectRatio="xMidYMid meet">
<metadata>
Created by potrace 1.10, written by Peter Selinger 2001-2011
</metadata>
<g transform="translate(0.000000,248.000000) scale(0.100000,-0.100000)"
fill="#000000" stroke="none">
<path d="M1196 2398 c-12 -16 -16 -47 -16 -114 0 -104 0 -104 -78 -104 -26 0
-74 -5 -107 -10 -80 -13 -280 -36 -440 -50 -71 -7 -140 -16 -152 -20 -22 -9
-46 -69 -38 -93 3 -7 11 -59 19 -116 15 -105 19 -118 46 -121 57 -8 71 22 59
129 -5 41 -10 80 -13 87 -7 17 10 21 144 33 63 6 169 18 235 27 158 21 271 33
317 33 36 1 37 0 28 -23 -5 -14 -6 -63 -3 -110 7 -101 33 -88 -222 -111 -110
-11 -189 -23 -202 -31 -31 -19 -30 -59 1 -79 22 -15 37 -15 158 -1 73 8 163
17 201 21 l67 7 0 -45 0 -45 -47 -6 c-166 -23 -261 -40 -280 -53 -30 -18 -30
-58 0 -78 20 -13 33 -13 103 -1 43 8 109 17 147 21 l67 7 0 -54 c0 -66 16
-116 38 -120 51 -11 72 26 72 127 l0 62 78 7 c42 3 100 12 127 19 46 11 50 15
53 43 4 41 -22 68 -57 60 -14 -3 -63 -9 -109 -12 l-83 -7 3 39 c3 35 6 39 38
46 19 4 112 13 205 19 186 13 208 18 225 49 9 17 6 24 -15 46 -26 26 -28 26
-128 19 -120 -8 -272 -23 -303 -31 -20 -5 -21 -1 -28 81 -4 48 -11 98 -16 111
-8 20 -6 25 13 29 92 20 774 44 814 29 21 -9 20 -12 -38 -84 -79 -99 -88 -140
-37 -159 39 -15 52 -2 176 172 47 66 55 112 23 141 -38 35 -168 48 -396 41
-209 -6 -416 -19 -507 -31 l-48 -7 0 94 c0 105 -13 139 -55 139 -13 0 -31 -10
-39 -22z"/>
</g>
</svg>
