<?xml version="1.0" standalone="no"?>
<!DOCTYPE svg PUBLIC "-//W3C//DTD SVG 20010904//EN"
 "http://www.w3.org/TR/2001/REC-SVG-20010904/DTD/svg10.dtd">
<svg version="1.0" xmlns="http://www.w3.org/2000/svg"
 width="248.000000pt" height="248.000000pt" viewBox="0 0 248.000000 248.000000"
 preserveAspectRatio="xMidYMid meet">
<metadata>
Created by potrace 1.10, written by Peter Selinger 2001-2011
</metadata>
<g transform="translate(0.000000,248.000000) scale(0.100000,-0.100000)"
fill="#000000" stroke="none">
<path d="M1196 2398 c-12 -17 -16 -49 -16 -133 0 -129 11 -160 55 -160 44 0
55 31 55 160 0 122 -12 155 -55 155 -13 0 -31 -10 -39 -22z"/>
<path d="M386 2081 c-21 -23 -22 -60 -3 -190 16 -105 20 -118 47 -121 56 -8
71 23 58 125 -4 39 -11 95 -14 125 -4 30 -11 61 -17 68 -14 18 -51 15 -71 -7z"/>
</g>
</svg>
