<?xml version="1.0" standalone="no"?>
<!DOCTYPE svg PUBLIC "-//W3C//DTD SVG 20010904//EN"
 "http://www.w3.org/TR/2001/REC-SVG-20010904/DTD/svg10.dtd">
<svg version="1.0" xmlns="http://www.w3.org/2000/svg"
 width="248.000000pt" height="248.000000pt" viewBox="0 0 248.000000 248.000000"
 preserveAspectRatio="xMidYMid meet">
<metadata>
Created by potrace 1.10, written by Peter Selinger 2001-2011
</metadata>
<g transform="translate(0.000000,248.000000) scale(0.100000,-0.100000)"
fill="#000000" stroke="none">
<path d="M1960 2279 c-41 -4 -124 -13 -185 -20 -60 -6 -155 -17 -210 -24 -55
-8 -190 -23 -300 -35 -110 -11 -249 -27 -310 -35 -104 -13 -314 -35 -508 -54
-96 -10 -119 -22 -115 -60 6 -54 59 -59 308 -26 58 8 143 16 190 20 47 3 108
10 135 15 28 5 158 21 290 35 132 14 291 32 353 40 158 20 422 45 485 45 28 0
63 6 77 13 32 16 40 65 14 84 -20 14 -105 15 -224 2z"/>
</g>
</svg>
