<?xml version="1.0" standalone="no"?>
<!DOCTYPE svg PUBLIC "-//W3C//DTD SVG 20010904//EN"
 "http://www.w3.org/TR/2001/REC-SVG-20010904/DTD/svg10.dtd">
<svg version="1.0" xmlns="http://www.w3.org/2000/svg"
 width="248.000000pt" height="248.000000pt" viewBox="0 0 248.000000 248.000000"
 preserveAspectRatio="xMidYMid meet">
<metadata>
Created by potrace 1.10, written by Peter Selinger 2001-2011
</metadata>
<g transform="translate(0.000000,248.000000) scale(0.100000,-0.100000)"
fill="#000000" stroke="none">
<path d="M1196 2398 c-12 -16 -16 -47 -16 -114 0 -104 0 -104 -78 -104 -26 0
-74 -5 -107 -10 -80 -13 -280 -36 -440 -50 -71 -7 -140 -16 -152 -20 -22 -9
-46 -69 -38 -93 3 -7 11 -59 19 -116 15 -105 19 -118 46 -121 57 -8 71 22 59
129 -5 41 -10 80 -13 87 -7 17 10 21 144 33 63 6 169 18 235 27 158 21 271 33
317 33 36 1 37 0 28 -23 -5 -14 -6 -63 -3 -110 7 -101 33 -88 -222 -111 -110
-11 -189 -23 -202 -31 -31 -19 -30 -59 1 -79 22 -15 37 -15 158 -1 73 8 163
17 201 21 l67 7 0 -45 0 -45 -47 -6 c-270 -37 -306 -48 -301 -94 5 -43 39 -53
128 -37 41 7 105 16 143 20 l67 7 0 -59 0 -60 -97 -11 c-181 -22 -291 -32
-340 -32 -28 0 -58 -7 -71 -16 -30 -21 -29 -59 3 -80 28 -19 45 -18 310 11
137 15 340 34 642 59 163 13 186 22 181 65 -6 52 -70 59 -313 31 -44 -5 -108
-12 -142 -15 l-63 -6 0 64 0 64 78 7 c42 3 100 12 127 19 46 11 50 15 53 43 4
41 -22 68 -57 60 -14 -3 -63 -9 -109 -12 l-83 -7 3 39 c3 35 6 39 38 46 19 4
112 13 205 19 186 13 208 18 225 49 9 17 6 24 -15 46 -26 26 -28 26 -128 19
-120 -8 -272 -23 -303 -31 -20 -5 -21 -1 -28 81 -4 48 -11 98 -16 111 -8 20
-6 25 13 29 92 20 774 44 814 29 21 -9 20 -12 -38 -84 -79 -99 -88 -140 -37
-159 39 -15 52 -2 176 172 47 66 55 112 23 141 -38 35 -168 48 -396 41 -209
-6 -416 -19 -507 -31 l-48 -7 0 94 c0 105 -13 139 -55 139 -13 0 -31 -10 -39
-22z"/>
<path d="M1525 1289 c-22 -4 -89 -13 -150 -19 -60 -6 -148 -17 -195 -25 -47
-8 -114 -17 -150 -20 -36 -4 -89 -11 -119 -16 -30 -5 -80 -9 -112 -9 -40 0
-63 -5 -80 -19 -23 -18 -23 -19 -10 -117 25 -192 39 -225 92 -209 29 9 38 43
29 101 -5 27 -11 68 -13 91 -5 41 -4 43 26 48 57 10 330 46 427 56 52 5 138
17 190 25 52 8 127 14 166 14 l71 0 -7 -37 c-5 -21 -14 -63 -21 -94 -15 -66
-9 -86 27 -95 21 -5 31 -2 45 14 25 32 58 150 61 221 3 56 0 65 -21 82 -21 17
-38 20 -120 18 -53 -2 -114 -6 -136 -10z"/>
</g>
</svg>
