<?xml version="1.0" standalone="no"?>
<!DOCTYPE svg PUBLIC "-//W3C//DTD SVG 20010904//EN"
 "http://www.w3.org/TR/2001/REC-SVG-20010904/DTD/svg10.dtd">
<svg version="1.0" xmlns="http://www.w3.org/2000/svg"
 width="248.000000pt" height="248.000000pt" viewBox="0 0 248.000000 248.000000"
 preserveAspectRatio="xMidYMid meet">
<metadata>
Created by potrace 1.10, written by Peter Selinger 2001-2011
</metadata>
<g transform="translate(0.000000,248.000000) scale(0.100000,-0.100000)"
fill="#000000" stroke="none">
<path d="M800 2327 c-4 -4 -109 -18 -320 -42 -91 -10 -213 -35 -226 -46 -22
-18 -17 -57 10 -74 22 -15 33 -15 113 -1 48 8 133 20 188 26 55 5 119 13 143
16 l43 5 -15 -30 c-9 -16 -68 -82 -131 -145 -63 -63 -115 -121 -115 -129 0
-20 33 -47 58 -47 40 0 208 167 297 295 57 83 69 131 41 154 -15 13 -78 26
-86 18z"/>
</g>
</svg>
