<?xml version="1.0" standalone="no"?>
<!DOCTYPE svg PUBLIC "-//W3C//DTD SVG 20010904//EN"
 "http://www.w3.org/TR/2001/REC-SVG-20010904/DTD/svg10.dtd">
<svg version="1.0" xmlns="http://www.w3.org/2000/svg"
 width="248.000000pt" height="248.000000pt" viewBox="0 0 248.000000 248.000000"
 preserveAspectRatio="xMidYMid meet">
<metadata>
Created by potrace 1.10, written by Peter Selinger 2001-2011
</metadata>
<g transform="translate(0.000000,248.000000) scale(0.100000,-0.100000)"
fill="#000000" stroke="none">
<path d="M800 2327 c-4 -4 -109 -18 -320 -42 -91 -10 -213 -35 -226 -46 -22
-18 -17 -57 10 -74 22 -15 33 -15 113 -1 48 8 133 20 188 26 55 5 119 13 143
16 l43 5 -15 -30 c-9 -16 -72 -86 -141 -155 -137 -137 -147 -157 -99 -199 62
-52 104 -216 104 -403 0 -131 -11 -194 -47 -272 l-16 -33 -58 56 c-61 58 -78
65 -103 39 -28 -28 -19 -62 32 -117 27 -29 59 -67 71 -84 25 -37 59 -50 90
-33 31 16 88 137 118 248 23 88 25 109 20 227 -6 147 -38 292 -83 375 l-27 50
96 97 c163 165 238 295 193 332 -15 13 -78 26 -86 18z"/>
</g>
</svg>
