<?xml version="1.0" standalone="no"?>
<!DOCTYPE svg PUBLIC "-//W3C//DTD SVG 20010904//EN"
 "http://www.w3.org/TR/2001/REC-SVG-20010904/DTD/svg10.dtd">
<svg version="1.0" xmlns="http://www.w3.org/2000/svg"
 width="248.000000pt" height="248.000000pt" viewBox="0 0 248.000000 248.000000"
 preserveAspectRatio="xMidYMid meet">
<metadata>
Created by potrace 1.10, written by Peter Selinger 2001-2011
</metadata>
<g transform="translate(0.000000,248.000000) scale(0.100000,-0.100000)"
fill="#000000" stroke="none">
<path d="M1951 2333 c-96 -127 -158 -196 -222 -249 l-75 -61 -139 -17 c-196
-23 -192 -23 -187 17 3 25 -3 41 -21 63 -13 16 -39 58 -57 94 -40 80 -57 100
-85 100 -28 0 -45 -18 -45 -48 0 -34 75 -181 113 -219 20 -21 26 -33 16 -33
-7 0 -78 -7 -157 -14 -153 -15 -182 -26 -182 -71 0 -46 19 -50 173 -36 258 24
332 29 336 25 7 -7 -248 -254 -329 -319 -41 -33 -103 -80 -138 -104 -73 -52
-88 -84 -52 -113 29 -24 46 -18 135 44 92 65 168 130 305 258 118 112 174 179
185 223 5 17 15 29 29 31 50 10 214 29 388 45 115 11 193 22 202 30 24 20 20
58 -8 77 -22 14 -39 14 -132 5 -160 -16 -153 -20 -88 57 74 87 124 165 124
195 0 52 -56 64 -89 20z"/>
<path d="M800 2327 c-4 -4 -133 -21 -315 -41 -166 -18 -241 -40 -259 -74 -20
-40 -40 -976 -34 -1592 6 -554 8 -570 67 -570 16 0 33 5 36 10 4 6 8 419 11
918 2 499 7 968 12 1042 l7 134 35 8 c19 4 96 14 170 23 74 8 154 18 178 21
l43 5 -15 -30 c-9 -16 -72 -86 -141 -155 -137 -137 -147 -157 -99 -199 62 -52
104 -216 104 -403 0 -131 -11 -194 -47 -272 l-16 -33 -58 56 c-61 58 -78 65
-103 39 -28 -28 -19 -62 32 -117 27 -29 59 -67 71 -84 25 -37 59 -50 90 -33
31 16 88 137 118 248 23 88 25 109 20 227 -6 147 -38 292 -83 375 l-27 50 96
97 c163 165 238 295 193 332 -15 13 -78 26 -86 18z"/>
</g>
</svg>
