<?xml version="1.0" standalone="no"?>
<!DOCTYPE svg PUBLIC "-//W3C//DTD SVG 20010904//EN"
 "http://www.w3.org/TR/2001/REC-SVG-20010904/DTD/svg10.dtd">
<svg version="1.0" xmlns="http://www.w3.org/2000/svg"
 width="248.000000pt" height="248.000000pt" viewBox="0 0 248.000000 248.000000"
 preserveAspectRatio="xMidYMid meet">
<metadata>
Created by potrace 1.10, written by Peter Selinger 2001-2011
</metadata>
<g transform="translate(0.000000,248.000000) scale(0.100000,-0.100000)"
fill="#000000" stroke="none">
<path d="M940 2099 c-184 -34 -593 -89 -655 -89 -74 0 -109 -16 -113 -52 -7
-59 57 -70 247 -43 58 8 122 17 141 20 l35 4 -3 -715 c-3 -669 -3 -717 14
-735 22 -25 46 -24 70 2 18 20 19 44 24 337 l5 317 50 8 c28 4 111 21 185 38
153 35 180 52 164 96 -9 26 -14 28 -59 27 -28 -1 -97 -13 -155 -27 -58 -14
-125 -28 -149 -32 l-43 -7 4 353 3 354 55 7 c183 25 324 56 337 73 16 23 17
37 1 57 -21 26 -47 27 -158 7z"/>
<path d="M249 1104 c-10 -12 -10 -29 -1 -87 11 -65 25 -306 35 -574 4 -114 20
-153 61 -153 47 0 50 14 43 258 -11 361 -29 514 -64 555 -20 21 -56 22 -74 1z"/>
</g>
</svg>
