<?xml version="1.0" standalone="no"?>
<!DOCTYPE svg PUBLIC "-//W3C//DTD SVG 20010904//EN"
 "http://www.w3.org/TR/2001/REC-SVG-20010904/DTD/svg10.dtd">
<svg version="1.0" xmlns="http://www.w3.org/2000/svg"
 width="248.000000pt" height="248.000000pt" viewBox="0 0 248.000000 248.000000"
 preserveAspectRatio="xMidYMid meet">
<metadata>
Created by potrace 1.10, written by Peter Selinger 2001-2011
</metadata>
<g transform="translate(0.000000,248.000000) scale(0.100000,-0.100000)"
fill="#000000" stroke="none">
<path d="M583 2258 c-6 -7 -13 -43 -17 -81 -11 -107 -87 -342 -202 -620 -13
-32 -38 -78 -54 -102 -39 -56 -47 -96 -25 -118 18 -18 42 -22 63 -9 40 26 154
267 225 477 11 33 21 62 23 64 2 2 61 7 131 11 344 22 779 61 1118 100 44 5
115 12 158 14 l77 4 -5 -51 c-3 -29 -10 -79 -15 -112 -5 -33 -14 -103 -20
-155 -6 -52 -25 -162 -41 -244 -29 -146 -58 -255 -135 -508 -8 -27 -20 -70
-28 -96 -7 -26 -18 -57 -23 -67 -5 -11 -20 -56 -33 -100 -38 -134 -188 -434
-230 -460 -5 -3 -28 19 -51 50 -45 60 -73 70 -103 36 -21 -23 -15 -48 24 -106
48 -69 77 -90 125 -90 53 0 78 21 141 118 59 91 165 320 197 427 15 47 42 137
62 200 117 371 175 614 205 870 6 52 15 120 20 150 5 30 12 89 15 130 9 111 4
116 -127 113 -57 -2 -143 -7 -193 -13 -219 -26 -469 -52 -580 -60 -66 -6 -181
-15 -255 -21 -128 -10 -393 -27 -397 -25 0 1 8 35 18 76 25 98 26 165 3 191
-19 22 -57 25 -71 7z"/>
<path d="M642 1508 c-16 -16 -15 -48 3 -133 8 -38 17 -130 21 -205 7 -147 18
-180 59 -180 56 0 65 60 41 275 -16 140 -33 213 -54 238 -17 20 -53 22 -70 5z"/>
</g>
</svg>
