<?xml version="1.0" standalone="no"?>
<!DOCTYPE svg PUBLIC "-//W3C//DTD SVG 20010904//EN"
 "http://www.w3.org/TR/2001/REC-SVG-20010904/DTD/svg10.dtd">
<svg version="1.0" xmlns="http://www.w3.org/2000/svg"
 width="248.000000pt" height="248.000000pt" viewBox="0 0 248.000000 248.000000"
 preserveAspectRatio="xMidYMid meet">
<metadata>
Created by potrace 1.10, written by Peter Selinger 2001-2011
</metadata>
<g transform="translate(0.000000,248.000000) scale(0.100000,-0.100000)"
fill="#000000" stroke="none">
<path d="M1365 2375 c-33 -25 -141 -87 -240 -136 -99 -50 -186 -96 -192 -101
-30 -25 -2 -78 41 -78 28 0 299 132 400 195 106 66 140 117 104 153 -22 22
-53 13 -113 -33z"/>
<path d="M712 2107 c-7 -9 -12 -191 -15 -560 -3 -591 -4 -587 48 -587 15 0 31
10 41 26 15 23 17 77 18 552 1 489 0 530 -17 555 -19 29 -57 36 -75 14z"/>
</g>
</svg>
