<?xml version="1.0" standalone="no"?>
<!DOCTYPE svg PUBLIC "-//W3C//DTD SVG 20010904//EN"
 "http://www.w3.org/TR/2001/REC-SVG-20010904/DTD/svg10.dtd">
<svg version="1.0" xmlns="http://www.w3.org/2000/svg"
 width="248.000000pt" height="248.000000pt" viewBox="0 0 248.000000 248.000000"
 preserveAspectRatio="xMidYMid meet">
<metadata>
Created by potrace 1.10, written by Peter Selinger 2001-2011
</metadata>
<g transform="translate(0.000000,248.000000) scale(0.100000,-0.100000)"
fill="#000000" stroke="none">
<path d="M1365 2374 c-33 -25 -150 -90 -260 -145 l-199 -99 -82 0 c-136 0
-123 59 -127 -583 -3 -591 -4 -587 48 -587 51 0 54 18 61 387 l7 341 41 6
c100 13 510 51 695 64 l64 4 -8 -124 c-12 -174 -11 -189 10 -204 42 -31 72 -7
85 69 11 69 29 376 32 560 l3 129 -28 23 c-32 28 -43 28 -290 -11 -88 -14
-161 -23 -165 -20 -3 3 0 6 8 6 20 0 189 111 211 138 33 43 20 92 -26 92 -11
0 -47 -21 -80 -46z m262 -311 c-4 -38 -7 -96 -7 -130 l0 -61 -52 -5 c-331 -28
-454 -39 -573 -52 -207 -23 -185 -34 -185 93 l0 108 88 13 c48 7 128 17 177
21 104 11 174 21 340 49 66 11 138 22 160 24 22 2 44 4 49 5 5 1 6 -27 3 -65z"/>
</g>
</svg>
