<?xml version="1.0" standalone="no"?>
<!DOCTYPE svg PUBLIC "-//W3C//DTD SVG 20010904//EN"
 "http://www.w3.org/TR/2001/REC-SVG-20010904/DTD/svg10.dtd">
<svg version="1.0" xmlns="http://www.w3.org/2000/svg"
 width="248.000000pt" height="248.000000pt" viewBox="0 0 248.000000 248.000000"
 preserveAspectRatio="xMidYMid meet">
<metadata>
Created by potrace 1.10, written by Peter Selinger 2001-2011
</metadata>
<g transform="translate(0.000000,248.000000) scale(0.100000,-0.100000)"
fill="#000000" stroke="none">
<path d="M743 2304 c-33 -49 -137 -159 -202 -214 -35 -30 -96 -83 -135 -118
-39 -35 -108 -91 -154 -124 -47 -35 -85 -71 -88 -84 -8 -31 12 -64 39 -64 56
0 471 348 588 493 56 70 52 137 -8 137 -13 0 -30 -11 -40 -26z"/>
<path d="M815 1712 c-5 -4 -32 -36 -60 -72 -105 -137 -471 -486 -618 -589 -60
-42 -62 -102 -4 -109 27 -3 65 23 238 163 108 87 427 412 489 497 31 43 38 86
18 106 -13 13 -48 16 -63 4z"/>
</g>
</svg>
