<?xml version="1.0" standalone="no"?>
<!DOCTYPE svg PUBLIC "-//W3C//DTD SVG 20010904//EN"
 "http://www.w3.org/TR/2001/REC-SVG-20010904/DTD/svg10.dtd">
<svg version="1.0" xmlns="http://www.w3.org/2000/svg"
 width="248.000000pt" height="248.000000pt" viewBox="0 0 248.000000 248.000000"
 preserveAspectRatio="xMidYMid meet">
<metadata>
Created by potrace 1.10, written by Peter Selinger 2001-2011
</metadata>
<g transform="translate(0.000000,248.000000) scale(0.100000,-0.100000)"
fill="#000000" stroke="none">
<path d="M500 2155 c-11 -13 -11 -27 -2 -73 16 -79 25 -278 15 -332 l-9 -45
-124 -21 c-174 -30 -257 -49 -275 -64 -19 -16 -19 -54 0 -70 16 -13 109 -8
162 10 35 12 476 83 683 110 162 22 190 33 190 75 0 53 -37 53 -385 -1 -49 -8
-102 -14 -117 -14 l-26 0 -4 183 c-3 162 -5 186 -23 217 -24 40 -63 51 -85 25z"/>
</g>
</svg>
