<?xml version="1.0" standalone="no"?>
<!DOCTYPE svg PUBLIC "-//W3C//DTD SVG 20010904//EN"
 "http://www.w3.org/TR/2001/REC-SVG-20010904/DTD/svg10.dtd">
<svg version="1.0" xmlns="http://www.w3.org/2000/svg"
 width="248.000000pt" height="248.000000pt" viewBox="0 0 248.000000 248.000000"
 preserveAspectRatio="xMidYMid meet">
<metadata>
Created by potrace 1.10, written by Peter Selinger 2001-2011
</metadata>
<g transform="translate(0.000000,248.000000) scale(0.100000,-0.100000)"
fill="#000000" stroke="none">
<path d="M1882 2288 c-9 -9 -12 -92 -12 -312 0 -166 -4 -306 -8 -312 -4 -6
-36 -14 -72 -18 -267 -29 -770 -127 -805 -156 -19 -16 -19 -54 0 -70 18 -15
38 -12 235 29 209 44 611 107 633 98 22 -8 41 -1140 21 -1256 l-5 -33 -88 86
c-51 49 -97 86 -108 86 -24 0 -53 -30 -53 -55 0 -20 163 -191 221 -230 26 -19
47 -25 71 -23 29 3 35 8 46 43 17 50 20 430 9 985 -4 217 -4 400 0 407 5 7 66
16 158 23 205 15 215 17 224 43 11 30 2 57 -23 66 -11 5 -86 2 -166 -5 -80 -7
-158 -13 -174 -13 l-29 -1 5 295 c4 243 2 298 -9 315 -16 22 -53 26 -71 8z"/>
<path d="M500 2155 c-11 -13 -11 -27 -2 -73 16 -79 25 -278 15 -332 l-9 -45
-124 -21 c-174 -30 -257 -49 -275 -64 -20 -16 -19 -54 1 -71 17 -14 14 -14
354 45 113 20 213 36 223 36 24 0 22 -32 -8 -209 -26 -146 -61 -289 -74 -304
-8 -8 -149 148 -217 242 -48 66 -78 91 -109 91 -54 0 -59 -54 -11 -107 18 -21
53 -63 77 -94 24 -31 84 -103 134 -159 l89 -102 -28 -82 c-37 -108 -102 -221
-181 -316 -69 -83 -91 -101 -170 -140 -35 -18 -51 -32 -53 -48 -9 -58 62 -69
144 -23 54 31 140 119 212 216 42 56 125 214 147 279 l10 30 28 -42 c15 -23
72 -98 128 -167 74 -93 106 -125 123 -125 59 0 62 59 6 127 -33 40 -104 130
-232 297 -16 21 -15 28 18 147 37 131 84 385 84 457 0 53 3 55 175 76 136 18
165 30 165 71 0 53 -37 53 -385 -1 -49 -8 -102 -14 -117 -14 l-26 0 -4 183
c-3 162 -5 186 -23 217 -24 40 -63 51 -85 25z"/>
<path d="M1212 1208 c-19 -19 -14 -45 19 -90 17 -24 62 -92 101 -151 73 -112
95 -132 128 -122 49 16 31 76 -60 200 -21 28 -47 69 -58 92 -36 69 -98 103
-130 71z"/>
</g>
</svg>
