<?xml version="1.0" standalone="no"?>
<!DOCTYPE svg PUBLIC "-//W3C//DTD SVG 20010904//EN"
 "http://www.w3.org/TR/2001/REC-SVG-20010904/DTD/svg10.dtd">
<svg version="1.0" xmlns="http://www.w3.org/2000/svg"
 width="248.000000pt" height="248.000000pt" viewBox="0 0 248.000000 248.000000"
 preserveAspectRatio="xMidYMid meet">
<metadata>
Created by potrace 1.10, written by Peter Selinger 2001-2011
</metadata>
<g transform="translate(0.000000,248.000000) scale(0.100000,-0.100000)"
fill="#000000" stroke="none">
<path d="M743 2304 c-33 -49 -137 -159 -202 -214 -35 -30 -96 -83 -135 -118
-39 -35 -108 -91 -154 -124 -47 -35 -85 -71 -88 -84 -8 -31 12 -64 39 -64 56
0 471 348 588 493 56 70 52 137 -8 137 -13 0 -30 -11 -40 -26z"/>
<path d="M1735 2224 c-50 -5 -226 -31 -325 -49 -41 -8 -106 -17 -145 -21 -38
-3 -76 -11 -82 -16 -19 -15 -16 -52 5 -71 26 -24 80 -22 282 12 179 29 310 44
310 35 0 -16 -69 -126 -153 -245 -42 -60 -141 -169 -153 -169 -6 0 -37 21 -70
48 -153 122 -200 144 -227 101 -20 -33 4 -64 114 -148 l111 -85 -54 -50 c-181
-168 -324 -267 -408 -282 -50 -9 -80 -31 -80 -58 0 -77 132 -58 288 41 61 39
188 143 287 236 l62 57 24 -19 c53 -41 264 -161 312 -177 29 -9 77 -29 107
-44 49 -25 215 -81 325 -109 61 -17 83 -13 101 14 27 42 1 68 -93 93 -152 40
-213 61 -300 100 -48 22 -99 43 -113 47 -36 11 -260 141 -284 165 -5 5 13 35
50 77 105 121 169 214 252 364 44 80 52 119 27 139 -15 13 -104 20 -170 14z"/>
<path d="M815 1712 c-5 -4 -32 -36 -60 -72 -105 -137 -471 -486 -618 -589 -60
-42 -62 -102 -4 -109 27 -3 68 25 246 169 l64 52 -7 -184 c-12 -348 -18 -808
-12 -844 11 -58 74 -69 95 -17 6 16 12 176 16 377 3 193 8 446 11 563 l6 212
123 128 c185 192 215 231 215 272 0 14 -5 31 -12 38 -13 13 -48 16 -63 4z"/>
<path d="M1462 1347 c-7 -8 -12 -96 -14 -234 -2 -122 -6 -224 -10 -228 -3 -4
-80 -14 -170 -22 -90 -9 -169 -20 -175 -26 -19 -14 -16 -52 6 -72 23 -20 88
-22 211 -5 41 5 87 10 102 10 l26 0 4 -242 c3 -201 6 -250 20 -280 14 -32 22
-38 47 -38 16 0 33 6 38 13 4 6 6 134 4 283 -3 256 -2 272 16 278 10 4 101 12
203 18 221 12 254 20 258 64 5 55 -6 57 -220 45 -106 -6 -206 -14 -223 -17
l-30 -6 0 215 c0 197 -2 217 -19 236 -21 24 -58 28 -74 8z"/>
</g>
</svg>
