<?xml version="1.0" standalone="no"?>
<!DOCTYPE svg PUBLIC "-//W3C//DTD SVG 20010904//EN"
 "http://www.w3.org/TR/2001/REC-SVG-20010904/DTD/svg10.dtd">
<svg version="1.0" xmlns="http://www.w3.org/2000/svg"
 width="248.000000pt" height="248.000000pt" viewBox="0 0 248.000000 248.000000"
 preserveAspectRatio="xMidYMid meet">
<metadata>
Created by potrace 1.10, written by Peter Selinger 2001-2011
</metadata>
<g transform="translate(0.000000,248.000000) scale(0.100000,-0.100000)"
fill="#000000" stroke="none">
<path d="M536 2158 c-14 -19 -16 -59 -16 -266 0 -185 -3 -244 -12 -247 -20 -7
-294 -45 -326 -45 -66 0 -96 -64 -47 -96 24 -16 36 -16 188 5 89 13 170 25
180 28 16 4 17 -14 17 -284 0 -319 3 -338 55 -338 52 0 55 18 55 346 l0 295
118 23 c224 43 232 46 232 85 -1 59 -39 62 -232 23 l-118 -24 0 231 c0 252 -5
279 -52 284 -18 2 -31 -4 -42 -20z"/>
</g>
</svg>
