<?xml version="1.0" standalone="no"?>
<!DOCTYPE svg PUBLIC "-//W3C//DTD SVG 20010904//EN"
 "http://www.w3.org/TR/2001/REC-SVG-20010904/DTD/svg10.dtd">
<svg version="1.0" xmlns="http://www.w3.org/2000/svg"
 width="248.000000pt" height="248.000000pt" viewBox="0 0 248.000000 248.000000"
 preserveAspectRatio="xMidYMid meet">
<metadata>
Created by potrace 1.10, written by Peter Selinger 2001-2011
</metadata>
<g transform="translate(0.000000,248.000000) scale(0.100000,-0.100000)"
fill="#000000" stroke="none">
<path d="M1156 2388 c-12 -17 -16 -48 -16 -135 l0 -112 -42 -5 c-41 -4 -632
-53 -731 -60 -80 -5 -81 -7 -70 -210 11 -191 22 -226 67 -226 50 0 56 35 40
246 l-6 81 63 6 c181 17 514 46 584 51 l80 6 3 -154 2 -153 -77 -6 c-43 -4
-134 -10 -203 -13 -69 -3 -136 -11 -150 -18 -36 -16 -39 -60 -6 -82 24 -15 43
-15 227 -4 110 7 201 11 203 9 2 -2 1 -45 -2 -96 l-4 -92 -37 -5 c-20 -3 -92
-8 -161 -12 -142 -7 -173 -18 -168 -62 5 -48 38 -55 209 -42 83 6 153 10 154
8 2 -2 5 -45 6 -96 l4 -92 -80 0 c-44 0 -107 -4 -140 -10 -33 -5 -154 -14
-269 -19 -231 -11 -260 -19 -254 -69 5 -44 34 -50 208 -42 85 4 214 12 285 19
178 15 531 30 888 38 186 4 306 10 320 17 15 8 22 21 22 41 0 54 -18 57 -330
51 -154 -4 -340 -9 -412 -13 l-133 -6 0 95 0 96 174 7 c97 4 184 12 197 19 30
15 36 52 13 77 -17 19 -27 20 -201 13 l-183 -7 0 79 c0 120 2 124 65 124 29 0
75 4 102 9 27 6 107 13 176 17 146 8 172 17 172 59 0 47 -31 57 -155 50 -58
-4 -132 -10 -165 -15 -33 -5 -88 -11 -122 -13 l-61 -5 -7 137 c-4 75 -11 143
-16 153 -8 14 2 17 89 23 53 4 115 8 137 10 22 2 182 7 355 11 l315 7 -30 -34
c-16 -19 -40 -44 -52 -57 -41 -41 -25 -92 28 -92 22 0 46 20 113 93 71 76 86
98 86 124 0 59 -27 67 -240 72 -167 3 -507 -9 -697 -25 l-73 -6 0 103 c0 63
-5 114 -13 129 -17 34 -60 39 -81 8z"/>
<path d="M1435 889 c-115 -5 -314 -12 -442 -16 -269 -9 -266 -8 -267 -95 -1
-72 22 -408 34 -488 15 -106 -15 -99 459 -100 336 0 410 2 420 14 18 21 37 95
81 311 56 274 60 299 51 332 -9 34 -43 53 -91 51 -19 -1 -129 -5 -245 -9z
m231 -121 c-3 -13 -12 -57 -21 -98 -9 -41 -29 -140 -45 -219 -16 -79 -31 -145
-33 -147 -2 -3 -431 -6 -659 -4 l-48 0 0 48 c0 26 -7 128 -15 226 -8 99 -14
180 -13 182 2 1 95 5 208 9 383 14 585 22 608 23 18 2 22 -2 18 -20z"/>
</g>
</svg>
