<?xml version="1.0" standalone="no"?>
<!DOCTYPE svg PUBLIC "-//W3C//DTD SVG 20010904//EN"
 "http://www.w3.org/TR/2001/REC-SVG-20010904/DTD/svg10.dtd">
<svg version="1.0" xmlns="http://www.w3.org/2000/svg"
 width="248.000000pt" height="248.000000pt" viewBox="0 0 248.000000 248.000000"
 preserveAspectRatio="xMidYMid meet">
<metadata>
Created by potrace 1.10, written by Peter Selinger 2001-2011
</metadata>
<g transform="translate(0.000000,248.000000) scale(0.100000,-0.100000)"
fill="#000000" stroke="none">
<path d="M1156 2388 c-12 -17 -16 -48 -16 -135 l0 -112 -42 -5 c-41 -4 -632
-53 -731 -60 -80 -5 -81 -7 -70 -210 11 -191 22 -226 67 -226 50 0 56 35 40
246 l-6 81 63 6 c35 3 168 15 294 26 127 11 282 25 345 31 63 5 160 13 215 16
55 3 116 8 135 10 19 1 177 6 350 10 l315 7 -30 -34 c-16 -19 -40 -44 -52 -57
-41 -41 -25 -92 28 -92 22 0 46 20 113 93 71 76 86 98 86 124 0 59 -27 67
-240 72 -167 3 -507 -9 -697 -25 l-73 -6 0 103 c0 63 -5 114 -13 129 -17 34
-60 39 -81 8z"/>
</g>
</svg>
