<?xml version="1.0" standalone="no"?>
<!DOCTYPE svg PUBLIC "-//W3C//DTD SVG 20010904//EN"
 "http://www.w3.org/TR/2001/REC-SVG-20010904/DTD/svg10.dtd">
<svg version="1.0" xmlns="http://www.w3.org/2000/svg"
 width="248.000000pt" height="248.000000pt" viewBox="0 0 248.000000 248.000000"
 preserveAspectRatio="xMidYMid meet">
<metadata>
Created by potrace 1.10, written by Peter Selinger 2001-2011
</metadata>
<g transform="translate(0.000000,248.000000) scale(0.100000,-0.100000)"
fill="#000000" stroke="none">
<path d="M1156 2388 c-12 -17 -16 -48 -16 -135 l0 -112 -42 -5 c-41 -4 -632
-53 -731 -60 -80 -5 -81 -7 -70 -210 11 -191 22 -226 67 -226 50 0 56 35 40
246 l-6 81 63 6 c181 17 514 46 584 51 l80 6 3 -154 2 -153 -77 -6 c-43 -4
-134 -10 -203 -13 -69 -3 -136 -11 -150 -18 -36 -16 -39 -60 -6 -82 24 -15 43
-15 227 -4 110 7 201 11 203 9 2 -2 1 -45 -2 -96 l-4 -92 -37 -5 c-20 -3 -92
-8 -161 -12 -142 -7 -173 -18 -168 -62 6 -54 34 -57 296 -36 l72 6 0 -78 c0
-135 26 -186 84 -164 14 5 26 17 27 27 0 10 0 64 -1 119 l-1 102 174 7 c98 4
185 12 198 19 30 15 36 52 13 77 -17 19 -27 20 -201 13 l-183 -7 0 79 c0 120
2 124 65 124 29 0 75 4 102 9 27 6 107 13 176 17 146 8 172 17 172 59 0 47
-31 57 -155 50 -58 -4 -132 -10 -165 -15 -33 -5 -88 -11 -122 -13 l-61 -5 -7
137 c-4 75 -11 143 -16 153 -8 14 2 17 89 23 53 4 115 8 137 10 22 2 182 7
355 11 l315 7 -30 -34 c-16 -19 -40 -44 -52 -57 -41 -41 -25 -92 28 -92 22 0
46 20 113 93 71 76 86 98 86 124 0 59 -27 67 -240 72 -167 3 -507 -9 -697 -25
l-73 -6 0 103 c0 63 -5 114 -13 129 -17 34 -60 39 -81 8z"/>
</g>
</svg>
