<?xml version="1.0" standalone="no"?>
<!DOCTYPE svg PUBLIC "-//W3C//DTD SVG 20010904//EN"
 "http://www.w3.org/TR/2001/REC-SVG-20010904/DTD/svg10.dtd">
<svg version="1.0" xmlns="http://www.w3.org/2000/svg"
 width="248.000000pt" height="248.000000pt" viewBox="0 0 248.000000 248.000000"
 preserveAspectRatio="xMidYMid meet">
<metadata>
Created by potrace 1.10, written by Peter Selinger 2001-2011
</metadata>
<g transform="translate(0.000000,248.000000) scale(0.100000,-0.100000)"
fill="#000000" stroke="none">
<path d="M1156 2388 c-12 -17 -16 -48 -16 -135 l0 -112 -42 -5 c-41 -4 -632
-53 -731 -60 -80 -5 -81 -7 -70 -210 11 -191 22 -226 67 -226 50 0 56 35 40
246 l-6 81 63 6 c181 17 514 46 584 51 l80 6 3 -154 2 -153 -77 -6 c-43 -4
-134 -10 -203 -13 -69 -3 -136 -11 -150 -18 -36 -16 -39 -60 -5 -82 23 -15 41
-16 203 -5 97 6 188 11 202 11 l25 0 -3 -223 c-4 -237 4 -299 38 -317 25 -13
70 4 70 27 1 10 0 122 0 250 0 128 2 243 6 257 6 24 11 26 59 26 29 0 75 4
102 9 27 6 107 13 176 17 146 8 172 17 172 59 0 47 -31 57 -155 50 -58 -4
-132 -10 -165 -15 -33 -5 -88 -11 -122 -13 l-61 -5 -7 137 c-4 75 -11 143 -16
153 -8 14 2 17 89 23 53 4 115 8 137 10 22 2 182 7 355 11 l315 7 -30 -34
c-16 -19 -40 -44 -52 -57 -41 -41 -25 -92 28 -92 22 0 46 20 113 93 71 76 86
98 86 124 0 59 -27 67 -240 72 -167 3 -507 -9 -697 -25 l-73 -6 0 103 c0 63
-5 114 -13 129 -17 34 -60 39 -81 8z"/>
</g>
</svg>
