<?xml version="1.0" standalone="no"?>
<!DOCTYPE svg PUBLIC "-//W3C//DTD SVG 20010904//EN"
 "http://www.w3.org/TR/2001/REC-SVG-20010904/DTD/svg10.dtd">
<svg version="1.0" xmlns="http://www.w3.org/2000/svg"
 width="248.000000pt" height="248.000000pt" viewBox="0 0 248.000000 248.000000"
 preserveAspectRatio="xMidYMid meet">
<metadata>
Created by potrace 1.10, written by Peter Selinger 2001-2011
</metadata>
<g transform="translate(0.000000,248.000000) scale(0.100000,-0.100000)"
fill="#000000" stroke="none">
<path d="M1196 2218 c-11 -15 -16 -44 -16 -88 0 -95 -24 -238 -65 -379 -19
-69 -35 -131 -35 -138 0 -7 -14 -52 -30 -101 -17 -49 -28 -97 -25 -109 6 -27
45 -39 73 -24 21 11 60 121 103 289 15 57 27 86 41 93 10 6 72 17 136 25 64 8
146 21 182 29 36 7 97 16 135 20 39 4 132 18 207 31 75 13 171 27 214 31 l77
6 -6 -134 c-23 -504 -160 -1149 -304 -1428 -67 -129 -68 -129 -113 -73 -68 85
-106 115 -134 108 -41 -10 -45 -50 -10 -96 153 -204 192 -222 266 -125 147
194 277 618 352 1150 68 479 71 663 14 698 -21 14 -187 -2 -398 -36 -278 -46
-364 -59 -430 -67 -36 -5 -89 -12 -119 -16 l-54 -7 6 34 c3 19 12 87 19 152
11 103 10 122 -3 145 -20 36 -61 41 -83 10z"/>
<path d="M536 2158 c-14 -19 -16 -59 -16 -266 0 -185 -3 -244 -12 -247 -20 -7
-294 -45 -326 -45 -66 0 -96 -64 -47 -96 24 -16 36 -15 203 8 97 14 178 25
179 24 1 -1 3 -134 3 -296 1 -329 6 -310 -73 -331 -21 -5 -75 -27 -120 -48
-45 -21 -93 -42 -107 -46 -36 -11 -60 -35 -60 -60 0 -29 19 -45 53 -45 46 0
318 119 527 230 41 22 87 44 102 49 16 6 33 22 40 36 10 22 9 29 -9 47 -28 27
-67 20 -167 -33 l-76 -40 0 279 0 278 118 23 c224 43 232 46 232 85 -1 59 -39
62 -232 23 l-118 -24 0 231 c0 252 -5 279 -52 284 -18 2 -31 -4 -42 -20z"/>
<path d="M1352 1458 c-20 -20 -14 -56 14 -75 14 -10 44 -33 67 -52 23 -19 60
-45 82 -59 22 -14 57 -40 78 -58 55 -50 117 -44 117 12 0 24 -62 86 -125 124
-22 13 -66 45 -98 72 -61 50 -109 62 -135 36z"/>
<path d="M1750 963 c-8 -3 -62 -29 -120 -58 -58 -28 -161 -76 -230 -105 -138
-58 -160 -73 -160 -105 0 -28 18 -45 50 -45 29 0 159 55 365 153 171 82 175
84 175 116 0 44 -32 61 -80 44z"/>
</g>
</svg>
