<?xml version="1.0" standalone="no"?>
<!DOCTYPE svg PUBLIC "-//W3C//DTD SVG 20010904//EN"
 "http://www.w3.org/TR/2001/REC-SVG-20010904/DTD/svg10.dtd">
<svg version="1.0" xmlns="http://www.w3.org/2000/svg"
 width="248.000000pt" height="248.000000pt" viewBox="0 0 248.000000 248.000000"
 preserveAspectRatio="xMidYMid meet">
<metadata>
Created by potrace 1.10, written by Peter Selinger 2001-2011
</metadata>
<g transform="translate(0.000000,248.000000) scale(0.100000,-0.100000)"
fill="#000000" stroke="none">
<path d="M1196 2218 c-11 -15 -16 -45 -16 -88 0 -95 -24 -238 -65 -379 -19
-69 -35 -131 -35 -138 0 -7 -14 -52 -30 -101 -34 -96 -33 -128 4 -138 45 -11
63 10 95 114 83 262 125 452 137 613 6 73 4 93 -10 114 -21 32 -59 33 -80 3z"/>
<path d="M536 2158 c-14 -19 -16 -59 -16 -266 0 -185 -3 -244 -12 -247 -20 -7
-294 -45 -326 -45 -66 0 -96 -64 -47 -96 24 -16 36 -15 203 8 97 14 178 25
179 24 1 -1 3 -134 3 -296 1 -329 6 -310 -73 -331 -21 -5 -75 -27 -120 -48
-45 -21 -93 -42 -107 -46 -36 -11 -60 -35 -60 -60 0 -29 19 -45 53 -45 46 0
318 119 527 230 41 22 87 44 102 49 16 6 33 22 40 36 10 22 9 29 -9 47 -28 27
-67 20 -167 -33 l-76 -40 0 279 0 278 118 23 c224 43 232 46 232 85 -1 59 -39
62 -232 23 l-118 -24 0 231 c0 252 -5 279 -52 284 -18 2 -31 -4 -42 -20z"/>
</g>
</svg>
