<?xml version="1.0" standalone="no"?>
<!DOCTYPE svg PUBLIC "-//W3C//DTD SVG 20010904//EN"
 "http://www.w3.org/TR/2001/REC-SVG-20010904/DTD/svg10.dtd">
<svg version="1.0" xmlns="http://www.w3.org/2000/svg"
 width="248.000000pt" height="248.000000pt" viewBox="0 0 248.000000 248.000000"
 preserveAspectRatio="xMidYMid meet">
<metadata>
Created by potrace 1.10, written by Peter Selinger 2001-2011
</metadata>
<g transform="translate(0.000000,248.000000) scale(0.100000,-0.100000)"
fill="#000000" stroke="none">
<path d="M1139 2413 c-10 -12 -15 -59 -17 -175 -2 -87 -6 -158 -10 -158 -4 0
-157 -7 -341 -15 -288 -12 -336 -16 -352 -31 -17 -16 -19 -33 -19 -193 0 -204
-15 -528 -30 -651 -16 -138 -29 -240 -40 -315 -16 -112 -70 -331 -111 -454
-36 -106 -38 -116 -24 -138 23 -34 61 -30 84 8 61 100 160 533 191 839 25 235
29 306 36 556 l7 261 196 7 c108 3 235 9 282 12 l86 6 6 -63 c3 -35 4 -65 3
-67 -2 -1 -86 -8 -187 -14 -123 -7 -191 -15 -206 -25 -31 -18 -30 -58 2 -79
22 -14 43 -15 194 -5 93 6 176 11 184 11 10 0 16 -15 19 -50 10 -101 75 -127
288 -116 161 9 198 19 206 53 14 56 5 58 -200 54 l-186 -3 0 39 0 40 73 8 c39
4 143 13 229 19 95 8 163 18 173 26 24 20 18 57 -11 77 -25 16 -38 16 -228 -1
-110 -9 -210 -18 -221 -19 -18 -2 -20 5 -23 59 l-3 61 88 6 c184 13 634 29
640 23 4 -4 -14 -28 -40 -54 -48 -49 -60 -85 -35 -110 33 -33 99 13 192 135
57 73 60 109 11 132 -26 13 -74 13 -345 2 -173 -7 -350 -15 -393 -18 l-78 -6
3 64 3 64 175 12 c96 6 220 12 275 12 119 1 150 13 150 56 0 65 -50 67 -541
31 l-61 -5 -6 40 c-3 22 -11 46 -17 54 -17 20 -54 19 -71 -2z"/>
<path d="M1270 1519 c-321 -11 -536 -26 -559 -39 -38 -20 -41 -40 -33 -223 8
-189 14 -207 63 -207 38 0 49 24 49 104 l0 66 73 0 c39 0 129 3 200 7 l127 6
0 -44 c0 -59 19 -93 52 -97 36 -4 58 30 58 90 l0 48 128 0 c71 0 163 3 204 6
l76 7 -5 -45 c-4 -33 -1 -49 12 -61 21 -22 48 -22 67 1 26 30 61 196 56 267
-8 130 -26 133 -568 114z m460 -133 l0 -33 -77 -7 c-42 -3 -138 -6 -215 -6
l-138 0 0 35 0 34 78 4 c42 1 139 4 215 5 l137 2 0 -34z m-540 -9 l0 -34 -112
-6 c-62 -4 -155 -7 -205 -7 l-93 0 0 29 0 29 173 9 c94 5 187 10 205 11 30 2
32 0 32 -31z"/>
</g>
</svg>
