<?xml version="1.0" standalone="no"?>
<!DOCTYPE svg PUBLIC "-//W3C//DTD SVG 20010904//EN"
 "http://www.w3.org/TR/2001/REC-SVG-20010904/DTD/svg10.dtd">
<svg version="1.0" xmlns="http://www.w3.org/2000/svg"
 width="248.000000pt" height="248.000000pt" viewBox="0 0 248.000000 248.000000"
 preserveAspectRatio="xMidYMid meet">
<metadata>
Created by potrace 1.10, written by Peter Selinger 2001-2011
</metadata>
<g transform="translate(0.000000,248.000000) scale(0.100000,-0.100000)"
fill="#000000" stroke="none">
<path d="M990 2064 c-19 -3 -102 -18 -185 -34 -82 -16 -211 -42 -285 -56 -74
-15 -154 -30 -177 -34 -23 -4 -49 -12 -57 -20 -24 -19 -20 -57 9 -76 22 -15
34 -14 177 15 360 71 468 91 543 100 56 7 83 15 92 27 39 53 -16 89 -117 78z"/>
<path d="M200 1595 c-11 -13 -11 -60 -2 -240 7 -123 16 -235 21 -248 19 -49
84 -43 94 9 4 25 -7 310 -17 408 -3 27 -13 57 -22 67 -21 23 -57 25 -74 4z"/>
</g>
</svg>
