<?xml version="1.0" standalone="no"?>
<!DOCTYPE svg PUBLIC "-//W3C//DTD SVG 20010904//EN"
 "http://www.w3.org/TR/2001/REC-SVG-20010904/DTD/svg10.dtd">
<svg version="1.0" xmlns="http://www.w3.org/2000/svg"
 width="248.000000pt" height="248.000000pt" viewBox="0 0 248.000000 248.000000"
 preserveAspectRatio="xMidYMid meet">
<metadata>
Created by potrace 1.10, written by Peter Selinger 2001-2011
</metadata>
<g transform="translate(0.000000,248.000000) scale(0.100000,-0.100000)"
fill="#000000" stroke="none">
<path d="M990 2064 c-19 -3 -102 -18 -185 -34 -82 -16 -211 -42 -285 -56 -74
-15 -154 -30 -177 -34 -23 -4 -49 -12 -57 -20 -24 -19 -20 -57 9 -76 22 -15
34 -14 177 15 360 71 468 91 543 100 56 7 83 15 92 27 39 53 -16 89 -117 78z"/>
<path d="M995 1773 c-66 -8 -233 -39 -372 -69 -139 -30 -282 -57 -318 -61 -44
-4 -75 -13 -92 -26 l-25 -20 7 -176 c10 -245 19 -322 41 -338 23 -17 36 -16
60 1 16 12 19 27 19 108 l0 93 85 11 c47 6 134 21 193 33 59 11 121 21 137 21
16 0 75 9 132 21 57 11 136 23 177 26 l74 6 -7 -24 c-3 -13 -9 -52 -13 -86 -4
-49 -2 -68 11 -88 19 -28 57 -33 76 -10 32 38 47 457 20 540 -11 34 -42 57
-73 54 -7 -1 -66 -8 -132 -16z m109 -139 c3 -26 6 -64 6 -85 0 -36 -2 -39 -29
-39 -16 0 -80 -9 -142 -20 -63 -11 -161 -27 -219 -35 -58 -8 -127 -19 -152
-24 -46 -11 -239 -41 -258 -41 -6 0 -10 31 -10 75 0 73 1 75 25 75 14 0 143
25 286 56 144 31 309 62 368 69 58 7 109 13 112 14 4 0 9 -20 13 -45z"/>
</g>
</svg>
