<?xml version="1.0" standalone="no"?>
<!DOCTYPE svg PUBLIC "-//W3C//DTD SVG 20010904//EN"
 "http://www.w3.org/TR/2001/REC-SVG-20010904/DTD/svg10.dtd">
<svg version="1.0" xmlns="http://www.w3.org/2000/svg"
 width="248.000000pt" height="248.000000pt" viewBox="0 0 248.000000 248.000000"
 preserveAspectRatio="xMidYMid meet">
<metadata>
Created by potrace 1.10, written by Peter Selinger 2001-2011
</metadata>
<g transform="translate(0.000000,248.000000) scale(0.100000,-0.100000)"
fill="#000000" stroke="none">
<path d="M1139 2413 c-10 -12 -15 -59 -17 -175 -2 -87 -6 -158 -10 -158 -4 0
-157 -7 -341 -15 -274 -11 -336 -17 -350 -30 -16 -13 -19 -50 -25 -328 -6
-298 -12 -394 -36 -607 -26 -243 -78 -493 -141 -678 -36 -108 -39 -138 -15
-154 22 -15 56 -7 71 16 26 39 71 176 100 302 14 66 31 133 35 149 20 63 57
340 80 595 5 57 13 220 16 361 l7 256 201 7 c111 3 237 9 282 12 l81 6 6 -63
c3 -35 4 -65 2 -67 -2 -2 -83 -8 -182 -14 -201 -12 -228 -19 -228 -63 0 -52
31 -59 219 -46 89 6 169 11 177 11 12 0 18 -13 21 -50 10 -102 74 -127 291
-115 179 10 206 19 207 72 0 39 -28 44 -215 37 l-175 -7 0 40 0 40 73 8 c39 4
143 13 229 19 160 13 188 22 188 56 0 62 -28 66 -261 45 -101 -9 -195 -17
-209 -18 -24 -2 -25 1 -28 59 l-3 61 88 6 c177 13 634 29 640 23 4 -4 -14 -28
-40 -54 -48 -49 -60 -85 -35 -110 32 -32 101 16 192 135 57 73 59 109 11 132
-26 12 -74 13 -342 2 -171 -6 -348 -14 -393 -18 l-81 -6 3 64 3 64 180 12 c99
6 223 12 275 12 113 1 145 14 145 56 0 64 -62 67 -542 31 l-63 -5 0 32 c0 64
-57 101 -91 60z"/>
<path d="M686 1438 c-13 -20 -14 -49 -7 -190 5 -112 12 -172 20 -182 20 -24
68 -20 82 6 16 30 6 316 -13 355 -18 38 -61 43 -82 11z"/>
</g>
</svg>
