<?xml version="1.0" standalone="no"?>
<!DOCTYPE svg PUBLIC "-//W3C//DTD SVG 20010904//EN"
 "http://www.w3.org/TR/2001/REC-SVG-20010904/DTD/svg10.dtd">
<svg version="1.0" xmlns="http://www.w3.org/2000/svg"
 width="248.000000pt" height="248.000000pt" viewBox="0 0 248.000000 248.000000"
 preserveAspectRatio="xMidYMid meet">
<metadata>
Created by potrace 1.10, written by Peter Selinger 2001-2011
</metadata>
<g transform="translate(0.000000,248.000000) scale(0.100000,-0.100000)"
fill="#000000" stroke="none">
<path d="M1696 2398 c-13 -18 -16 -52 -16 -164 l0 -142 -42 -7 c-24 -4 -68
-13 -98 -20 -30 -8 -102 -21 -159 -29 -56 -8 -110 -21 -118 -27 -23 -19 -12
-62 20 -77 24 -12 44 -11 130 3 56 9 127 23 157 30 30 8 102 21 160 29 58 9
173 27 255 41 83 14 190 32 238 40 99 15 119 27 115 64 -5 45 -42 54 -145 37
-214 -37 -389 -66 -395 -66 -5 0 -8 60 -8 133 0 145 -10 177 -55 177 -13 0
-31 -10 -39 -22z"/>
<path d="M677 2380 c-13 -18 -14 -51 -10 -198 l6 -177 -144 -29 c-79 -16 -163
-32 -186 -36 -23 -4 -49 -12 -57 -20 -24 -19 -20 -57 9 -76 23 -15 33 -14 170
15 210 45 195 49 195 -58 l0 -90 -57 -11 c-32 -7 -95 -20 -141 -31 -45 -10
-114 -22 -153 -25 -53 -5 -78 -13 -97 -29 l-25 -22 11 -232 c17 -332 24 -343
194 -316 57 9 125 20 151 26 27 5 60 9 74 9 l26 0 -6 -81 c-3 -45 -10 -85 -17
-89 -11 -7 -277 -54 -427 -75 -45 -6 -89 -17 -97 -24 -23 -20 -20 -58 7 -76
27 -18 64 -14 339 34 97 17 179 31 182 31 3 0 2 -138 -1 -307 -6 -342 -1 -388
43 -399 17 -4 31 -1 44 11 19 17 20 32 20 245 0 125 3 281 6 347 l7 121 36 5
c20 3 88 13 151 21 306 43 340 53 340 101 0 36 -24 48 -83 42 -73 -7 -408 -57
-431 -64 -18 -5 -19 -1 -13 57 4 35 7 75 7 90 0 26 3 28 58 34 31 3 84 11 117
16 33 6 88 15 123 19 83 12 139 48 146 93 23 159 28 242 22 351 -8 143 -19
185 -52 197 -23 9 -229 -10 -327 -30 -26 -6 -52 -10 -57 -10 -6 0 -10 39 -10
89 l0 89 88 16 c48 9 121 21 162 26 93 11 121 38 86 86 -12 16 -25 19 -83 17
-38 -2 -102 -9 -142 -18 -40 -8 -78 -15 -85 -15 -10 0 -15 40 -20 157 -3 89
-12 167 -19 182 -16 34 -59 40 -80 11z m427 -746 c3 -26 6 -64 6 -85 0 -36 -2
-39 -29 -39 -25 0 -191 -27 -289 -46 l-32 -6 0 85 0 86 55 11 c31 6 104 17
163 25 59 7 110 13 113 14 4 0 9 -20 13 -45z m-456 -111 l-3 -77 -60 -13 c-60
-12 -257 -43 -275 -43 -6 0 -10 33 -10 75 l0 75 28 0 c15 1 86 14 157 29 182
41 166 45 163 -46z m459 -145 c-3 -13 -9 -46 -13 -74 -6 -52 -6 -52 -48 -57
-22 -3 -79 -12 -126 -20 -47 -8 -104 -18 -127 -21 l-43 -6 0 75 c0 41 2 75 4
75 5 0 201 37 231 43 11 3 44 5 74 6 50 1 53 0 48 -21z m-467 -112 l0 -74 -62
-11 c-35 -6 -96 -16 -137 -21 -41 -6 -84 -13 -97 -16 -21 -5 -23 -2 -29 49
-12 91 -12 90 90 104 50 6 119 18 155 26 36 8 68 15 73 16 4 1 7 -32 7 -73z"/>
<path d="M1982 1818 c-18 -18 -14 -50 11 -85 52 -72 138 -165 249 -271 105
-100 122 -113 150 -110 37 4 54 26 44 59 -4 13 -59 71 -122 129 -63 58 -140
137 -171 175 -32 39 -68 80 -80 93 -24 24 -62 29 -81 10z"/>
<path d="M1476 1758 c-9 -12 -16 -30 -16 -40 0 -16 -17 -65 -67 -193 -11 -27
-41 -94 -67 -148 -46 -94 -47 -99 -32 -122 20 -30 49 -32 76 -5 23 23 95 163
122 240 81 223 83 230 67 258 -20 36 -62 41 -83 10z"/>
</g>
</svg>
