<?xml version="1.0" standalone="no"?>
<!DOCTYPE svg PUBLIC "-//W3C//DTD SVG 20010904//EN"
 "http://www.w3.org/TR/2001/REC-SVG-20010904/DTD/svg10.dtd">
<svg version="1.0" xmlns="http://www.w3.org/2000/svg"
 width="248.000000pt" height="248.000000pt" viewBox="0 0 248.000000 248.000000"
 preserveAspectRatio="xMidYMid meet">
<metadata>
Created by potrace 1.10, written by Peter Selinger 2001-2011
</metadata>
<g transform="translate(0.000000,248.000000) scale(0.100000,-0.100000)"
fill="#000000" stroke="none">
<path d="M390 2320 c-35 -35 -19 -72 37 -91 21 -6 94 -38 163 -71 126 -59 164
-67 183 -37 24 38 1 63 -100 113 -124 62 -227 106 -247 106 -9 0 -25 -9 -36
-20z"/>
<path d="M1590 2248 c-69 -4 -190 -15 -270 -23 -80 -8 -163 -15 -185 -15 -78
0 -107 -46 -62 -100 20 -23 27 -56 50 -221 14 -107 29 -225 32 -264 8 -85 26
-117 63 -113 44 5 49 30 34 183 -7 75 -11 139 -9 142 3 3 65 9 139 14 73 4
192 13 263 18 261 20 477 32 481 28 2 -2 -9 -49 -26 -105 -41 -140 -38 -172
17 -172 44 0 66 61 152 415 44 181 42 198 -18 215 -43 12 -481 11 -661 -2z
m588 -140 c-6 -24 -13 -56 -17 -72 -6 -27 -9 -28 -76 -32 -69 -3 -251 -16
-495 -34 -69 -5 -170 -12 -225 -15 -55 -4 -108 -9 -117 -11 -22 -7 -33 19 -42
102 l-7 62 98 10 c196 22 334 29 609 30 l282 2 -10 -42z"/>
<path d="M729 1930 c-53 -9 -127 -21 -165 -25 -38 -3 -114 -15 -169 -25 -55
-11 -131 -24 -170 -30 -140 -22 -175 -42 -160 -90 11 -35 38 -41 112 -26 105
22 351 64 418 71 78 8 221 33 263 46 35 12 53 50 35 78 -14 22 -52 23 -164 1z"/>
<path d="M460 1515 c-113 -24 -222 -44 -242 -44 -40 -1 -78 -28 -78 -56 0 -8
9 -24 21 -36 25 -25 47 -23 289 28 91 19 193 38 228 43 69 9 102 30 102 65 0
58 -48 58 -320 0z"/>
<path d="M560 1195 c-69 -13 -165 -32 -213 -44 -48 -12 -101 -21 -117 -21 -32
0 -70 -30 -70 -55 0 -8 10 -25 21 -36 24 -24 36 -24 189 11 52 12 154 32 226
45 72 13 141 28 152 34 27 14 36 45 22 71 -14 26 -45 25 -210 -5z"/>
<path d="M635 885 c-181 -29 -408 -77 -450 -95 -46 -20 -62 -47 -46 -77 9 -18
20 -101 41 -323 14 -141 41 -176 103 -136 30 20 163 51 272 65 145 17 157 20
175 36 10 9 20 33 23 53 3 20 17 114 32 207 40 255 39 249 22 263 -24 20 -75
22 -172 7z m60 -157 c-6 -63 -31 -224 -40 -265 -6 -26 -44 -38 -153 -48 -41
-3 -105 -15 -143 -25 -51 -13 -71 -15 -74 -7 -4 18 -25 257 -25 294 0 36 -19
30 259 83 202 38 184 42 176 -32z"/>
</g>
</svg>
