<?xml version="1.0" standalone="no"?>
<!DOCTYPE svg PUBLIC "-//W3C//DTD SVG 20010904//EN"
 "http://www.w3.org/TR/2001/REC-SVG-20010904/DTD/svg10.dtd">
<svg version="1.0" xmlns="http://www.w3.org/2000/svg"
 width="248.000000pt" height="248.000000pt" viewBox="0 0 248.000000 248.000000"
 preserveAspectRatio="xMidYMid meet">
<metadata>
Created by potrace 1.10, written by Peter Selinger 2001-2011
</metadata>
<g transform="translate(0.000000,248.000000) scale(0.100000,-0.100000)"
fill="#000000" stroke="none">
<path d="M725 2188 c-110 -110 -257 -234 -378 -318 -122 -85 -127 -90 -127
-114 0 -47 49 -60 105 -28 73 40 269 193 380 295 181 167 212 207 188 246 -6
9 -23 17 -39 18 -24 1 -45 -14 -129 -99z"/>
<path d="M546 1499 c-83 -84 -185 -184 -227 -221 -176 -155 -202 -191 -167
-226 28 -28 60 -12 162 79 173 156 446 431 453 457 8 33 -8 56 -42 60 -23 3
-47 -17 -179 -149z"/>
</g>
</svg>
