<?xml version="1.0" standalone="no"?>
<!DOCTYPE svg PUBLIC "-//W3C//DTD SVG 20010904//EN"
 "http://www.w3.org/TR/2001/REC-SVG-20010904/DTD/svg10.dtd">
<svg version="1.0" xmlns="http://www.w3.org/2000/svg"
 width="248.000000pt" height="248.000000pt" viewBox="0 0 248.000000 248.000000"
 preserveAspectRatio="xMidYMid meet">
<metadata>
Created by potrace 1.10, written by Peter Selinger 2001-2011
</metadata>
<g transform="translate(0.000000,248.000000) scale(0.100000,-0.100000)"
fill="#000000" stroke="none">
<path d="M2109 2234 c-9 -11 -16 -59 -21 -143 -4 -69 -12 -205 -17 -301 -6
-96 -11 -487 -11 -867 0 -381 -4 -693 -8 -693 -5 0 -39 18 -76 41 -69 42 -101
46 -120 17 -20 -32 5 -68 79 -114 121 -76 132 -81 162 -64 14 8 35 28 47 43
21 28 21 36 28 915 4 517 11 910 17 942 14 78 13 181 -2 210 -15 30 -58 38
-78 14z"/>
<path d="M890 2169 c-390 -24 -444 -29 -479 -46 l-36 -18 3 -195 c2 -107 -1
-253 -7 -325 -5 -71 -13 -318 -16 -547 l-6 -417 26 -17 c25 -16 27 -16 53 3
29 21 38 22 379 47 193 14 225 23 243 70 13 36 28 230 36 456 3 113 7 207 9
210 2 3 6 57 9 120 14 270 39 571 51 607 5 15 1 27 -14 42 -23 23 -26 23 -251
10z m137 -231 c-4 -73 -7 -147 -7 -164 0 -40 -7 -42 -190 -54 -80 -5 -190 -12
-245 -16 l-100 -7 3 169 c2 93 6 171 8 173 2 2 92 8 201 13 109 4 205 10 213
12 8 2 39 4 69 5 l54 1 -6 -132z m-31 -445 c-5 -118 -15 -224 -20 -230 -3 -3
-309 -22 -401 -25 l-100 -2 -3 176 -2 176 67 5 c38 3 142 10 233 16 91 6 172
13 180 15 55 13 54 17 46 -131z m-21 -435 c-2 -57 -7 -144 -11 -195 l-6 -91
-76 -6 c-43 -3 -131 -10 -197 -16 -66 -6 -144 -10 -172 -10 l-53 0 0 158 c0
86 3 173 6 193 l6 37 162 7 c88 4 190 11 226 15 36 4 77 8 92 9 l27 1 -4 -102z"/>
<path d="M1446 1928 c-10 -16 -15 -71 -19 -188 -3 -91 -13 -248 -21 -350 -34
-428 -34 -430 20 -430 51 0 55 24 90 545 3 55 8 103 11 107 2 4 6 72 9 150 3
119 2 147 -11 166 -21 29 -60 29 -79 0z"/>
<path d="M740 576 c-6 -8 -10 -24 -8 -35 2 -11 79 -96 171 -190 168 -172 194
-190 225 -159 35 35 -12 102 -195 278 -99 95 -130 120 -153 120 -15 0 -33 -7
-40 -14z"/>
<path d="M562 573 c-7 -3 -31 -32 -54 -66 -59 -87 -108 -138 -220 -229 -84
-68 -98 -83 -98 -109 0 -23 6 -32 27 -40 23 -9 34 -5 82 28 121 83 341 322
341 371 0 16 -37 52 -52 51 -7 0 -19 -3 -26 -6z"/>
</g>
</svg>
