<?xml version="1.0" standalone="no"?>
<!DOCTYPE svg PUBLIC "-//W3C//DTD SVG 20010904//EN"
 "http://www.w3.org/TR/2001/REC-SVG-20010904/DTD/svg10.dtd">
<svg version="1.0" xmlns="http://www.w3.org/2000/svg"
 width="248.000000pt" height="248.000000pt" viewBox="0 0 248.000000 248.000000"
 preserveAspectRatio="xMidYMid meet">
<metadata>
Created by potrace 1.10, written by Peter Selinger 2001-2011
</metadata>
<g transform="translate(0.000000,248.000000) scale(0.100000,-0.100000)"
fill="#000000" stroke="none">
<path d="M390 2320 c-35 -35 -19 -72 37 -91 21 -6 94 -38 163 -71 126 -59 164
-67 183 -37 24 38 1 63 -100 113 -124 62 -227 106 -247 106 -9 0 -25 -9 -36
-20z"/>
<path d="M1590 2248 c-69 -4 -190 -15 -270 -23 -80 -8 -163 -15 -185 -15 -78
0 -107 -46 -62 -100 20 -23 27 -56 50 -221 14 -107 29 -225 32 -264 4 -38 13
-80 21 -92 17 -26 50 -30 74 -8 19 17 82 30 198 40 l84 7 -7 -118 c-4 -66 -8
-120 -9 -121 -2 -3 -288 -38 -505 -63 -46 -5 -94 -16 -107 -25 -26 -17 -32
-53 -12 -73 14 -14 81 -15 163 -2 33 5 121 16 195 25 74 8 152 18 173 21 24 4
37 2 37 -5 0 -16 -120 -201 -229 -354 -95 -133 -242 -289 -327 -348 -53 -36
-69 -61 -54 -88 25 -48 68 -35 172 51 141 117 229 223 406 488 l84 125 -6
-335 c-3 -184 -10 -375 -16 -424 -9 -76 -8 -92 5 -112 20 -31 60 -32 79 -2 19
33 35 238 43 557 l6 274 46 -50 c25 -28 86 -95 136 -149 184 -203 356 -359
503 -458 92 -62 105 -68 127 -58 19 9 25 19 25 42 0 31 -9 39 -150 141 -84 61
-266 228 -386 356 -153 163 -304 336 -304 349 0 20 55 24 379 30 174 3 331 7
349 10 43 7 60 45 36 82 l-16 25 -277 -6 c-152 -4 -318 -10 -368 -13 l-93 -7
0 109 c0 60 4 115 9 123 10 16 119 28 335 37 137 6 151 8 172 29 25 25 60 132
104 325 17 74 37 157 45 183 18 62 6 93 -44 107 -43 12 -481 11 -661 -2z m588
-140 c-6 -24 -13 -56 -17 -72 l-6 -29 -90 -4 c-50 -2 -134 -8 -188 -13 -54 -6
-125 -10 -157 -10 l-60 0 0 48 c0 26 3 64 6 85 l7 37 257 0 258 0 -10 -42z
m-621 -49 c-4 -45 -9 -84 -12 -87 -3 -3 -60 -9 -128 -13 -67 -5 -137 -10 -155
-13 -39 -6 -46 6 -56 100 l-7 62 98 11 c54 6 127 13 163 14 36 2 74 4 84 5 18
2 19 -3 13 -79z m569 -176 c-37 -129 -48 -163 -54 -163 -43 -1 -321 -21 -364
-26 l-58 -7 0 91 0 90 88 7 c99 9 286 21 350 23 37 2 43 -1 38 -15z m-586
-113 c0 -104 18 -92 -159 -109 -63 -7 -117 -8 -121 -4 -4 4 -11 47 -14 96 -6
68 -4 87 6 88 20 2 219 15 256 17 l32 2 0 -90z"/>
<path d="M729 1930 c-53 -9 -127 -21 -165 -25 -38 -3 -114 -15 -169 -25 -55
-11 -131 -24 -170 -30 -140 -22 -175 -42 -160 -90 11 -35 38 -41 112 -26 105
22 351 64 418 71 78 8 221 33 263 46 35 12 53 50 35 78 -14 22 -52 23 -164 1z"/>
<path d="M460 1515 c-113 -24 -222 -44 -242 -44 -40 -1 -78 -28 -78 -56 0 -8
9 -24 21 -36 25 -25 47 -23 289 28 91 19 193 38 228 43 69 9 102 30 102 65 0
58 -48 58 -320 0z"/>
<path d="M560 1195 c-69 -13 -165 -32 -213 -44 -48 -12 -101 -21 -117 -21 -32
0 -70 -30 -70 -55 0 -8 10 -25 21 -36 24 -24 36 -24 189 11 52 12 154 32 226
45 72 13 141 28 152 34 27 14 36 45 22 71 -14 26 -45 25 -210 -5z"/>
<path d="M635 885 c-181 -29 -408 -77 -450 -95 -46 -20 -62 -47 -46 -77 9 -18
20 -101 41 -323 14 -141 41 -176 103 -136 30 20 163 51 272 65 145 17 157 20
175 36 10 9 20 33 23 53 3 20 17 114 32 207 40 255 39 249 22 263 -24 20 -75
22 -172 7z m60 -157 c-6 -63 -31 -224 -40 -265 -6 -26 -44 -38 -153 -48 -41
-3 -105 -15 -143 -25 -51 -13 -71 -15 -74 -7 -4 18 -25 257 -25 294 0 36 -19
30 259 83 202 38 184 42 176 -32z"/>
</g>
</svg>
