<?xml version="1.0" standalone="no"?>
<!DOCTYPE svg PUBLIC "-//W3C//DTD SVG 20010904//EN"
 "http://www.w3.org/TR/2001/REC-SVG-20010904/DTD/svg10.dtd">
<svg version="1.0" xmlns="http://www.w3.org/2000/svg"
 width="248.000000pt" height="248.000000pt" viewBox="0 0 248.000000 248.000000"
 preserveAspectRatio="xMidYMid meet">
<metadata>
Created by potrace 1.10, written by Peter Selinger 2001-2011
</metadata>
<g transform="translate(0.000000,248.000000) scale(0.100000,-0.100000)"
fill="#000000" stroke="none">
<path d="M390 2320 c-35 -35 -19 -72 37 -91 21 -6 94 -38 163 -71 126 -59 164
-67 183 -37 24 38 1 63 -100 113 -124 62 -227 106 -247 106 -9 0 -25 -9 -36
-20z"/>
<path d="M729 1930 c-53 -9 -127 -21 -165 -25 -38 -3 -114 -15 -169 -25 -55
-11 -131 -24 -170 -30 -140 -22 -175 -42 -160 -90 11 -35 38 -41 112 -26 105
22 351 64 418 71 78 8 221 33 263 46 35 12 53 50 35 78 -14 22 -52 23 -164 1z"/>
<path d="M460 1515 c-113 -24 -222 -44 -242 -44 -40 -1 -78 -28 -78 -56 0 -8
9 -24 21 -36 25 -25 47 -23 289 28 91 19 193 38 228 43 69 9 102 30 102 65 0
58 -48 58 -320 0z"/>
<path d="M560 1195 c-69 -13 -165 -32 -213 -44 -48 -12 -101 -21 -117 -21 -32
0 -70 -30 -70 -55 0 -8 10 -25 21 -36 24 -24 36 -24 189 11 52 12 154 32 226
45 72 13 141 28 152 34 27 14 36 45 22 71 -14 26 -45 25 -210 -5z"/>
<path d="M638 885 c-182 -29 -413 -78 -454 -95 -45 -20 -61 -48 -45 -77 9 -18
20 -101 41 -323 6 -59 17 -114 25 -127 16 -23 59 -32 70 -13 10 16 140 50 228
60 122 14 210 32 228 47 9 8 19 31 22 51 3 20 17 114 32 207 40 255 39 249 22
263 -24 20 -75 22 -169 7z m57 -157 c-6 -63 -31 -224 -40 -265 -6 -26 -44 -38
-153 -48 -41 -3 -105 -15 -143 -25 -51 -13 -71 -15 -74 -7 -4 18 -25 257 -25
294 0 36 -19 30 259 83 202 38 184 42 176 -32z"/>
</g>
</svg>
