<?xml version="1.0" standalone="no"?>
<!DOCTYPE svg PUBLIC "-//W3C//DTD SVG 20010904//EN"
 "http://www.w3.org/TR/2001/REC-SVG-20010904/DTD/svg10.dtd">
<svg version="1.0" xmlns="http://www.w3.org/2000/svg"
 width="248.000000pt" height="248.000000pt" viewBox="0 0 248.000000 248.000000"
 preserveAspectRatio="xMidYMid meet">
<metadata>
Created by potrace 1.10, written by Peter Selinger 2001-2011
</metadata>
<g transform="translate(0.000000,248.000000) scale(0.100000,-0.100000)"
fill="#000000" stroke="none">
<path d="M725 2188 c-110 -110 -257 -234 -378 -318 -122 -85 -127 -90 -127
-114 0 -47 49 -60 105 -28 73 40 269 193 380 295 181 167 212 207 188 246 -6
9 -23 17 -39 18 -24 1 -45 -14 -129 -99z"/>
<path d="M1725 2109 c-88 -5 -196 -13 -239 -19 -44 -5 -138 -10 -210 -10 -104
0 -136 -3 -154 -16 -31 -21 -26 -64 8 -82 28 -14 234 -12 420 6 58 6 173 13
255 16 l150 7 -3 -280 c-4 -276 -3 -280 18 -291 27 -14 57 -5 72 23 12 22 31
596 20 625 -12 33 -47 36 -337 21z"/>
<path d="M540 1493 c-86 -87 -205 -200 -263 -252 -136 -120 -159 -155 -125
-189 29 -29 60 -12 194 109 74 67 137 120 139 117 3 -3 0 -248 -6 -545 -12
-600 -12 -598 46 -598 22 0 33 7 41 25 12 26 40 1201 30 1219 -3 5 35 52 84
105 90 96 105 127 78 154 -32 32 -59 14 -218 -145z"/>
</g>
</svg>
