<?xml version="1.0" standalone="no"?>
<!DOCTYPE svg PUBLIC "-//W3C//DTD SVG 20010904//EN"
 "http://www.w3.org/TR/2001/REC-SVG-20010904/DTD/svg10.dtd">
<svg version="1.0" xmlns="http://www.w3.org/2000/svg"
 width="248.000000pt" height="248.000000pt" viewBox="0 0 248.000000 248.000000"
 preserveAspectRatio="xMidYMid meet">
<metadata>
Created by potrace 1.10, written by Peter Selinger 2001-2011
</metadata>
<g transform="translate(0.000000,248.000000) scale(0.100000,-0.100000)"
fill="#000000" stroke="none">
<path d="M890 2169 c-390 -24 -444 -29 -479 -46 l-36 -18 3 -195 c2 -107 -1
-253 -7 -325 -5 -71 -13 -318 -16 -547 l-6 -417 26 -17 c37 -24 70 0 79 58 3
24 9 242 12 484 l7 442 76 6 c42 3 141 10 221 16 80 5 165 12 189 16 l44 6 -6
-139 c-4 -76 -8 -147 -11 -158 -2 -11 -7 -117 -11 -235 -3 -118 -10 -246 -15
-285 -10 -88 2 -120 45 -120 22 0 33 7 42 25 16 34 31 213 39 460 3 113 7 207
9 210 2 3 6 57 9 120 14 270 39 571 51 607 5 15 1 27 -14 42 -23 23 -26 23
-251 10z m137 -231 c-4 -73 -7 -147 -7 -164 0 -40 -7 -42 -190 -54 -80 -5
-190 -12 -245 -16 l-100 -7 3 169 c2 93 6 171 8 173 2 2 92 8 201 13 109 4
205 10 213 12 8 2 39 4 69 5 l54 1 -6 -132z"/>
</g>
</svg>
