<?xml version="1.0" standalone="no"?>
<!DOCTYPE svg PUBLIC "-//W3C//DTD SVG 20010904//EN"
 "http://www.w3.org/TR/2001/REC-SVG-20010904/DTD/svg10.dtd">
<svg version="1.0" xmlns="http://www.w3.org/2000/svg"
 width="248.000000pt" height="248.000000pt" viewBox="0 0 248.000000 248.000000"
 preserveAspectRatio="xMidYMid meet">
<metadata>
Created by potrace 1.10, written by Peter Selinger 2001-2011
</metadata>
<g transform="translate(0.000000,248.000000) scale(0.100000,-0.100000)"
fill="#000000" stroke="none">
<path d="M725 2188 c-110 -110 -257 -234 -378 -318 -122 -85 -127 -90 -127
-114 0 -47 49 -60 105 -28 73 40 269 193 380 295 181 167 212 207 188 246 -6
9 -23 17 -39 18 -24 1 -45 -14 -129 -99z"/>
<path d="M546 1498 c-83 -84 -185 -183 -227 -220 -176 -155 -202 -191 -167
-226 29 -29 60 -12 194 109 74 67 137 120 139 117 3 -3 0 -248 -6 -545 -12
-600 -12 -598 46 -598 22 0 33 7 41 25 12 26 40 1201 30 1219 -3 5 35 52 84
105 90 96 105 127 78 154 -32 32 -59 14 -212 -140z"/>
</g>
</svg>
