<?xml version="1.0" standalone="no"?>
<!DOCTYPE svg PUBLIC "-//W3C//DTD SVG 20010904//EN"
 "http://www.w3.org/TR/2001/REC-SVG-20010904/DTD/svg10.dtd">
<svg version="1.0" xmlns="http://www.w3.org/2000/svg"
 width="248.000000pt" height="248.000000pt" viewBox="0 0 248.000000 248.000000"
 preserveAspectRatio="xMidYMid meet">
<metadata>
Created by potrace 1.10, written by Peter Selinger 2001-2011
</metadata>
<g transform="translate(0.000000,248.000000) scale(0.100000,-0.100000)"
fill="#000000" stroke="none">
<path d="M1576 2328 c-13 -18 -16 -49 -16 -148 0 -69 -4 -130 -8 -136 -4 -6
-61 -16 -127 -22 -314 -31 -345 -39 -345 -86 0 -50 52 -60 200 -36 36 6 111
14 168 18 l103 8 -3 -154 c-2 -122 -6 -155 -18 -162 -8 -5 -42 -10 -75 -10
-90 -1 -251 -24 -269 -39 -21 -17 -20 -55 0 -72 18 -15 37 -15 214 1 69 6 231
19 362 29 252 18 271 23 266 70 -6 48 -40 54 -215 41 -86 -6 -156 -9 -158 -8
-1 2 0 74 3 161 l4 157 50 0 c48 0 213 15 275 26 37 5 57 34 48 65 -11 33 -47
40 -153 29 -53 -5 -124 -11 -157 -14 l-61 -5 4 127 c3 142 -6 175 -50 180 -18
2 -31 -4 -42 -20z"/>
<path d="M886 2248 c-13 -19 -16 -57 -16 -233 l-1 -210 -96 -60 c-54 -33 -120
-78 -148 -101 -28 -22 -64 -49 -80 -59 -71 -44 -93 -83 -63 -113 23 -23 63
-11 133 38 110 77 247 170 251 170 2 0 4 -67 4 -149 0 -123 3 -152 16 -165 28
-29 66 -13 83 35 17 48 15 806 -2 839 -17 34 -60 39 -81 8z"/>
<path d="M453 2009 c-18 -19 -16 -53 5 -71 16 -14 183 -48 236 -48 45 0 74 63
41 90 -14 11 -82 23 -210 36 -43 4 -64 2 -72 -7z"/>
<path d="M1206 1378 c-12 -16 -16 -47 -16 -113 0 -49 -4 -95 -8 -101 -10 -16
-90 -24 -358 -38 -249 -12 -268 -17 -262 -65 5 -46 36 -53 208 -46 85 3 214
13 285 20 118 13 241 20 833 44 163 7 196 11 212 26 22 20 26 55 8 73 -16 16
-122 15 -493 -3 -165 -8 -305 -15 -311 -15 -8 0 -10 29 -6 95 4 77 2 99 -12
120 -21 32 -59 33 -80 3z"/>
</g>
</svg>
