<?xml version="1.0" standalone="no"?>
<!DOCTYPE svg PUBLIC "-//W3C//DTD SVG 20010904//EN"
 "http://www.w3.org/TR/2001/REC-SVG-20010904/DTD/svg10.dtd">
<svg version="1.0" xmlns="http://www.w3.org/2000/svg"
 width="248.000000pt" height="248.000000pt" viewBox="0 0 248.000000 248.000000"
 preserveAspectRatio="xMidYMid meet">
<metadata>
Created by potrace 1.10, written by Peter Selinger 2001-2011
</metadata>
<g transform="translate(0.000000,248.000000) scale(0.100000,-0.100000)"
fill="#000000" stroke="none">
<path d="M886 2248 c-13 -19 -16 -57 -16 -233 l-1 -210 -96 -60 c-54 -33 -120
-78 -148 -101 -28 -22 -64 -49 -80 -59 -71 -44 -93 -83 -63 -113 23 -23 63
-11 133 38 110 77 247 170 251 170 2 0 4 -67 4 -149 0 -123 3 -152 16 -165 28
-29 66 -13 83 35 17 48 15 806 -2 839 -17 34 -60 39 -81 8z"/>
<path d="M453 2009 c-18 -19 -16 -53 5 -71 16 -14 183 -48 236 -48 45 0 74 63
41 90 -14 11 -82 23 -210 36 -43 4 -64 2 -72 -7z"/>
</g>
</svg>
