<?xml version="1.0" standalone="no"?>
<!DOCTYPE svg PUBLIC "-//W3C//DTD SVG 20010904//EN"
 "http://www.w3.org/TR/2001/REC-SVG-20010904/DTD/svg10.dtd">
<svg version="1.0" xmlns="http://www.w3.org/2000/svg"
 width="248.000000pt" height="248.000000pt" viewBox="0 0 248.000000 248.000000"
 preserveAspectRatio="xMidYMid meet">
<metadata>
Created by potrace 1.10, written by Peter Selinger 2001-2011
</metadata>
<g transform="translate(0.000000,248.000000) scale(0.100000,-0.100000)"
fill="#000000" stroke="none">
<path d="M1216 2388 c-12 -17 -16 -48 -16 -119 l0 -97 -37 -6 c-21 -3 -101
-13 -178 -22 -77 -8 -198 -21 -270 -29 -175 -19 -190 -22 -209 -44 -14 -16
-17 -53 -20 -282 -3 -258 -14 -429 -35 -538 -6 -29 -11 -69 -11 -89 0 -25 -9
-45 -32 -72 -18 -21 -60 -70 -93 -109 -33 -40 -95 -104 -137 -142 -78 -71 -93
-100 -66 -127 34 -34 91 0 220 132 l68 71 -6 -45 c-6 -49 -36 -212 -61 -330
-23 -113 -71 -247 -115 -319 -43 -72 -46 -90 -18 -116 45 -41 106 28 169 188
50 130 95 333 141 632 74 491 82 571 86 855 l3 215 78 7 c43 4 128 14 188 22
100 14 169 22 490 56 55 6 161 15 235 21 387 29 505 42 526 60 8 7 14 24 12
38 -4 37 -42 53 -103 46 -27 -4 -99 -11 -160 -15 -277 -22 -474 -40 -512 -46
l-43 -7 0 94 c0 105 -13 139 -55 139 -13 0 -31 -10 -39 -22z"/>
<path d="M1232 2037 c-6 -7 -14 -51 -18 -98 -11 -131 -2 -122 -156 -147 -73
-12 -173 -26 -223 -32 -106 -13 -138 -29 -133 -68 6 -55 56 -57 323 -11 60 10
111 17 113 15 9 -10 -125 -215 -190 -290 l-34 -39 -69 77 c-68 76 -96 91 -123
64 -31 -31 12 -112 103 -195 l24 -21 -71 -71 c-39 -39 -104 -96 -144 -127 -75
-56 -90 -84 -62 -112 36 -36 119 10 255 141 46 44 86 77 89 74 4 -3 10 -76 15
-162 5 -86 11 -161 15 -166 18 -30 97 -30 302 0 l52 8 0 -321 0 -321 -68 73
c-37 39 -72 72 -77 72 -6 0 -21 -7 -33 -16 -38 -27 -28 -57 50 -141 81 -88
152 -143 184 -143 48 0 49 8 52 415 l3 382 155 15 c167 16 201 29 215 79 4 13
7 100 8 192 l1 168 28 -19 c79 -55 390 -172 463 -174 35 -1 59 18 59 47 0 33
-15 41 -146 81 -110 33 -292 112 -339 147 -18 14 -16 18 58 97 66 70 78 87 75
113 -4 36 -26 53 -59 43 -13 -4 -61 -47 -106 -95 l-82 -88 -58 37 c-32 20 -87
54 -123 75 -36 21 -87 56 -114 79 -55 45 -53 48 44 60 146 19 411 59 463 71
68 16 87 29 87 60 0 49 -26 53 -195 26 -147 -23 -373 -54 -482 -66 l-51 -5 5
95 c5 83 4 98 -12 115 -21 23 -57 26 -73 7z m110 -416 c78 -62 212 -151 228
-151 6 0 10 -4 10 -10 0 -5 -15 -10 -32 -10 -18 0 -51 -5 -73 -10 -22 -5 -76
-14 -120 -19 -44 -6 -125 -17 -179 -25 -55 -9 -101 -14 -103 -13 -1 2 26 46
61 98 34 51 75 118 91 147 15 28 32 52 36 52 4 0 41 -26 81 -59z m338 -335 l0
-64 -72 -5 c-40 -2 -149 -14 -243 -25 -93 -11 -205 -24 -249 -27 -89 -8 -96
-4 -96 57 0 35 1 36 48 47 77 17 211 39 312 52 52 6 115 15 140 19 25 4 71 8
103 9 l57 1 0 -64z m0 -225 l0 -49 -49 -7 c-28 -4 -116 -11 -198 -15 -139 -8
-303 -24 -365 -35 -27 -4 -28 -3 -28 44 0 58 -23 51 245 77 94 9 188 20 210
24 22 4 73 8 113 9 l72 1 0 -49z"/>
<path d="M140 1516 c-22 -28 -5 -54 93 -145 100 -93 135 -109 165 -79 25 25
12 56 -45 110 -31 29 -66 64 -77 76 -43 48 -111 67 -136 38z"/>
<path d="M873 678 c-11 -13 -30 -41 -41 -64 -23 -45 -128 -201 -140 -206 -16
-7 -72 -80 -72 -93 0 -20 36 -55 57 -55 48 0 283 326 283 393 0 49 -52 63 -87
25z"/>
</g>
</svg>
