<?xml version="1.0" standalone="no"?>
<!DOCTYPE svg PUBLIC "-//W3C//DTD SVG 20010904//EN"
 "http://www.w3.org/TR/2001/REC-SVG-20010904/DTD/svg10.dtd">
<svg version="1.0" xmlns="http://www.w3.org/2000/svg"
 width="248.000000pt" height="248.000000pt" viewBox="0 0 248.000000 248.000000"
 preserveAspectRatio="xMidYMid meet">
<metadata>
Created by potrace 1.10, written by Peter Selinger 2001-2011
</metadata>
<g transform="translate(0.000000,248.000000) scale(0.100000,-0.100000)"
fill="#000000" stroke="none">
<path d="M1219 2393 c-9 -10 -15 -51 -17 -119 l-4 -102 -41 -6 c-40 -6 -142
-18 -437 -51 -69 -8 -141 -17 -162 -20 -68 -12 -69 -13 -72 -301 -3 -253 -16
-453 -35 -544 -6 -25 -10 -62 -11 -84 0 -29 -8 -48 -32 -76 -18 -21 -60 -70
-93 -109 -33 -40 -95 -104 -137 -142 -78 -71 -93 -100 -66 -127 34 -34 84 -5
217 130 l73 73 -7 -45 c-8 -59 -41 -236 -61 -330 -24 -114 -73 -248 -116 -319
-43 -72 -46 -90 -18 -116 43 -39 104 25 164 174 37 93 80 250 91 336 4 28 13
77 21 110 7 33 20 110 29 170 8 61 22 151 29 200 47 298 59 427 62 685 l3 215
78 7 c43 4 128 14 188 22 100 14 192 24 495 56 58 6 161 15 230 21 526 41 540
43 540 95 0 38 -40 58 -103 49 -28 -3 -101 -11 -162 -15 -277 -22 -474 -40
-512 -46 l-43 -7 0 94 c0 69 -4 100 -16 117 -18 26 -56 29 -75 5z"/>
<path d="M1232 2037 c-6 -7 -14 -48 -17 -92 -11 -134 -5 -129 -158 -153 -73
-12 -172 -26 -222 -33 -107 -13 -138 -29 -133 -67 6 -55 63 -57 322 -12 61 11
112 18 114 16 9 -10 -124 -215 -190 -290 l-34 -39 -69 77 c-68 76 -96 91 -123
64 -24 -24 -12 -61 44 -130 31 -38 63 -72 70 -76 22 -12 -83 -115 -246 -240
-48 -37 -36 -92 20 -92 82 0 368 280 527 515 33 50 73 114 88 143 16 28 32 52
36 52 4 0 45 -30 92 -67 47 -38 128 -93 179 -124 51 -31 143 -88 203 -126 136
-86 280 -152 432 -198 101 -30 119 -33 142 -22 30 14 40 57 18 75 -8 7 -67 28
-133 48 -162 48 -292 112 -489 240 -44 28 -111 70 -150 92 -38 23 -90 59 -115
80 l-45 39 70 12 c39 6 117 18 175 26 364 51 400 61 400 110 0 49 -26 53 -195
26 -164 -26 -392 -57 -482 -65 l-52 -5 6 95 c5 82 4 97 -12 114 -21 23 -57 26
-73 7z"/>
<path d="M140 1516 c-22 -28 -5 -54 93 -145 100 -93 135 -109 165 -79 25 25
12 56 -45 110 -31 29 -66 64 -77 76 -43 48 -111 67 -136 38z"/>
</g>
</svg>
