<?xml version="1.0" standalone="no"?>
<!DOCTYPE svg PUBLIC "-//W3C//DTD SVG 20010904//EN"
 "http://www.w3.org/TR/2001/REC-SVG-20010904/DTD/svg10.dtd">
<svg version="1.0" xmlns="http://www.w3.org/2000/svg"
 width="248.000000pt" height="248.000000pt" viewBox="0 0 248.000000 248.000000"
 preserveAspectRatio="xMidYMid meet">
<metadata>
Created by potrace 1.10, written by Peter Selinger 2001-2011
</metadata>
<g transform="translate(0.000000,248.000000) scale(0.100000,-0.100000)"
fill="#000000" stroke="none">
<path d="M1219 2393 c-9 -10 -15 -51 -17 -119 l-4 -102 -41 -6 c-40 -6 -142
-18 -437 -51 -69 -8 -141 -17 -162 -20 -68 -12 -69 -13 -72 -301 -2 -238 -17
-478 -30 -514 -4 -8 -10 -51 -15 -95 -4 -44 -18 -141 -30 -215 -76 -477 -120
-641 -203 -767 -33 -49 -35 -73 -8 -98 43 -39 104 25 164 174 37 93 80 250 91
336 4 28 13 77 21 110 7 33 20 110 29 170 8 61 22 151 29 200 47 298 59 427
62 685 l3 215 78 7 c43 4 128 14 188 22 100 14 192 24 495 56 58 6 161 15 230
21 526 41 540 43 540 95 0 38 -40 58 -103 49 -28 -3 -101 -11 -162 -15 -277
-22 -474 -40 -512 -46 l-43 -7 0 94 c0 69 -4 100 -16 117 -18 26 -56 29 -75 5z"/>
</g>
</svg>
