<?xml version="1.0" standalone="no"?>
<!DOCTYPE svg PUBLIC "-//W3C//DTD SVG 20010904//EN"
 "http://www.w3.org/TR/2001/REC-SVG-20010904/DTD/svg10.dtd">
<svg version="1.0" xmlns="http://www.w3.org/2000/svg"
 width="248.000000pt" height="248.000000pt" viewBox="0 0 248.000000 248.000000"
 preserveAspectRatio="xMidYMid meet">
<metadata>
Created by potrace 1.10, written by Peter Selinger 2001-2011
</metadata>
<g transform="translate(0.000000,248.000000) scale(0.100000,-0.100000)"
fill="#000000" stroke="none">
<path d="M1419 2344 c-10 -12 -16 -59 -19 -153 l-5 -135 -35 -9 c-19 -4 -78
-14 -130 -21 -304 -43 -350 -56 -350 -99 0 -53 38 -58 225 -28 66 11 149 24
185 30 36 6 120 22 188 36 109 22 193 35 425 65 78 10 99 23 95 59 -6 48 -42
55 -181 36 -120 -16 -225 -31 -279 -41 l-28 -6 0 119 c0 91 -4 124 -16 141
-18 26 -56 29 -75 6z"/>
<path d="M699 2278 c-25 -29 -65 -80 -89 -113 -24 -33 -65 -82 -90 -110 -45
-49 -164 -189 -225 -263 -16 -21 -69 -77 -117 -126 -87 -88 -103 -117 -76
-144 7 -7 24 -12 39 -12 21 0 47 20 117 93 50 50 106 110 126 132 l35 40 -4
-55 c-3 -30 -7 -388 -9 -795 -4 -580 -3 -745 7 -765 17 -34 66 -35 83 -2 12
25 23 580 25 1307 l2 430 40 53 c21 28 43 52 47 52 3 0 38 41 76 91 38 49 81
106 97 126 28 38 35 81 15 101 -24 24 -54 12 -99 -40z"/>
</g>
</svg>
