<?xml version="1.0" standalone="no"?>
<!DOCTYPE svg PUBLIC "-//W3C//DTD SVG 20010904//EN"
 "http://www.w3.org/TR/2001/REC-SVG-20010904/DTD/svg10.dtd">
<svg version="1.0" xmlns="http://www.w3.org/2000/svg"
 width="248.000000pt" height="248.000000pt" viewBox="0 0 248.000000 248.000000"
 preserveAspectRatio="xMidYMid meet">
<metadata>
Created by potrace 1.10, written by Peter Selinger 2001-2011
</metadata>
<g transform="translate(0.000000,248.000000) scale(0.100000,-0.100000)"
fill="#000000" stroke="none">
<path d="M795 2240 c-9 -15 -152 -110 -322 -215 -80 -49 -151 -98 -156 -107
-17 -27 7 -68 40 -68 22 0 123 54 221 118 l22 14 0 -204 0 -205 -92 -22 c-51
-12 -114 -29 -139 -37 -25 -8 -85 -21 -133 -29 -48 -7 -94 -19 -102 -26 -22
-18 -17 -57 11 -75 21 -14 34 -14 97 -4 40 6 111 22 158 35 151 41 144 41 137
3 -6 -36 -100 -301 -119 -333 -6 -11 -24 -58 -39 -105 -48 -150 -134 -340
-194 -428 -14 -20 -25 -47 -25 -59 0 -27 40 -56 64 -47 48 19 173 260 251 484
43 127 104 290 114 308 4 8 11 -233 15 -534 4 -302 10 -559 13 -572 12 -49 76
-52 94 -4 7 17 8 226 3 607 l-7 580 54 -67 c30 -36 75 -93 102 -126 72 -91
118 -132 147 -132 56 0 67 53 21 97 -76 72 -322 397 -309 407 3 3 211 60 283
79 95 23 111 38 94 84 -11 31 -49 35 -130 13 -41 -11 -114 -31 -164 -44 -49
-13 -91 -23 -92 -22 -1 1 -3 102 -4 224 l-2 223 79 53 c83 55 108 91 88 124
-13 19 -69 28 -79 12z"/>
<path d="M1629 2234 c-19 -23 -27 -205 -28 -658 l-1 -379 -45 42 c-50 46 -66
50 -95 21 -27 -27 -26 -31 18 -83 92 -112 188 -144 217 -73 20 47 26 1106 6
1129 -17 22 -55 22 -72 1z"/>
</g>
</svg>
