<?xml version="1.0" standalone="no"?>
<!DOCTYPE svg PUBLIC "-//W3C//DTD SVG 20010904//EN"
 "http://www.w3.org/TR/2001/REC-SVG-20010904/DTD/svg10.dtd">
<svg version="1.0" xmlns="http://www.w3.org/2000/svg"
 width="248.000000pt" height="248.000000pt" viewBox="0 0 248.000000 248.000000"
 preserveAspectRatio="xMidYMid meet">
<metadata>
Created by potrace 1.10, written by Peter Selinger 2001-2011
</metadata>
<g transform="translate(0.000000,248.000000) scale(0.100000,-0.100000)"
fill="#000000" stroke="none">
<path d="M699 2278 c-25 -29 -65 -80 -89 -113 -24 -33 -65 -82 -90 -110 -45
-49 -164 -189 -225 -263 -16 -21 -69 -77 -117 -126 -87 -88 -103 -117 -76
-144 7 -7 24 -12 39 -12 21 0 48 21 118 93 98 100 218 236 295 335 27 34 52
62 56 62 4 0 38 41 76 91 38 49 81 106 97 126 28 38 35 81 15 101 -24 24 -54
12 -99 -40z"/>
</g>
</svg>
