<?xml version="1.0" standalone="no"?>
<!DOCTYPE svg PUBLIC "-//W3C//DTD SVG 20010904//EN"
 "http://www.w3.org/TR/2001/REC-SVG-20010904/DTD/svg10.dtd">
<svg version="1.0" xmlns="http://www.w3.org/2000/svg"
 width="248.000000pt" height="248.000000pt" viewBox="0 0 248.000000 248.000000"
 preserveAspectRatio="xMidYMid meet">
<metadata>
Created by potrace 1.10, written by Peter Selinger 2001-2011
</metadata>
<g transform="translate(0.000000,248.000000) scale(0.100000,-0.100000)"
fill="#000000" stroke="none">
<path d="M1419 2344 c-10 -12 -16 -59 -19 -153 l-5 -135 -35 -9 c-19 -4 -78
-14 -130 -21 -306 -43 -350 -56 -350 -100 0 -42 21 -49 118 -42 l89 7 12 -55
c7 -30 16 -91 20 -136 9 -86 21 -110 56 -110 51 0 64 58 40 190 -26 145 -31
132 55 145 41 7 134 24 205 38 201 41 185 40 185 14 0 -12 -11 -69 -25 -127
-28 -118 -30 -151 -13 -168 14 -14 47 -16 66 -3 14 8 65 197 76 283 l7 46 72
12 c40 6 86 13 103 16 39 5 57 25 52 56 -4 31 -44 50 -93 44 -86 -10 -273 -36
-330 -46 -33 -5 -61 -10 -62 -10 -2 0 -3 53 -3 118 0 90 -4 123 -16 140 -18
26 -56 29 -75 6z"/>
<path d="M699 2278 c-25 -29 -65 -80 -89 -113 -24 -33 -65 -82 -90 -110 -45
-49 -164 -189 -225 -263 -16 -21 -69 -77 -117 -126 -87 -88 -103 -117 -76
-144 7 -7 24 -12 39 -12 21 0 47 20 117 93 50 50 106 110 126 132 l35 40 -4
-55 c-3 -30 -7 -388 -9 -795 -4 -580 -3 -745 7 -765 17 -34 66 -35 83 -2 12
25 23 580 25 1307 l2 430 40 53 c21 28 43 52 47 52 3 0 38 41 76 91 38 49 81
106 97 126 28 38 35 81 15 101 -24 24 -54 12 -99 -40z"/>
</g>
</svg>
