<?xml version="1.0" standalone="no"?>
<!DOCTYPE svg PUBLIC "-//W3C//DTD SVG 20010904//EN"
 "http://www.w3.org/TR/2001/REC-SVG-20010904/DTD/svg10.dtd">
<svg version="1.0" xmlns="http://www.w3.org/2000/svg"
 width="248.000000pt" height="248.000000pt" viewBox="0 0 248.000000 248.000000"
 preserveAspectRatio="xMidYMid meet">
<metadata>
Created by potrace 1.10, written by Peter Selinger 2001-2011
</metadata>
<g transform="translate(0.000000,248.000000) scale(0.100000,-0.100000)"
fill="#000000" stroke="none">
<path d="M795 2240 c-9 -15 -152 -110 -322 -215 -80 -49 -151 -98 -156 -107
-17 -27 7 -68 40 -68 22 0 123 54 221 118 l22 14 0 -204 0 -205 -92 -22 c-51
-12 -114 -29 -139 -37 -25 -8 -85 -21 -133 -29 -48 -7 -94 -19 -102 -26 -22
-18 -17 -57 11 -75 21 -14 34 -14 97 -4 40 6 98 18 128 27 30 9 94 25 143 37
l87 22 1 -370 c1 -204 4 -507 8 -674 6 -285 7 -305 25 -318 25 -18 37 -18 62
0 18 14 19 33 19 702 l0 688 120 33 c66 18 140 38 165 44 100 26 116 39 99 86
-11 31 -49 35 -130 13 -41 -11 -114 -31 -164 -44 -49 -13 -91 -23 -92 -22 -1
1 -3 102 -4 224 l-2 223 79 53 c83 55 108 91 88 124 -13 19 -69 28 -79 12z"/>
</g>
</svg>
