<?xml version="1.0" standalone="no"?>
<!DOCTYPE svg PUBLIC "-//W3C//DTD SVG 20010904//EN"
 "http://www.w3.org/TR/2001/REC-SVG-20010904/DTD/svg10.dtd">
<svg version="1.0" xmlns="http://www.w3.org/2000/svg"
 width="248.000000pt" height="248.000000pt" viewBox="0 0 248.000000 248.000000"
 preserveAspectRatio="xMidYMid meet">
<metadata>
Created by potrace 1.10, written by Peter Selinger 2001-2011
</metadata>
<g transform="translate(0.000000,248.000000) scale(0.100000,-0.100000)"
fill="#000000" stroke="none">
<path d="M1150 2234 c-340 -56 -790 -142 -805 -154 -22 -19 -18 -57 8 -74 17
-11 35 -12 82 -5 73 11 412 73 549 100 54 10 112 19 127 19 l29 0 -6 -57 c-4
-32 -14 -104 -24 -160 -19 -117 -13 -146 32 -151 39 -5 52 24 76 163 30 173
38 288 21 302 -18 14 -57 22 -89 17z"/>
</g>
</svg>
