<?xml version="1.0" standalone="no"?>
<!DOCTYPE svg PUBLIC "-//W3C//DTD SVG 20010904//EN"
 "http://www.w3.org/TR/2001/REC-SVG-20010904/DTD/svg10.dtd">
<svg version="1.0" xmlns="http://www.w3.org/2000/svg"
 width="248.000000pt" height="248.000000pt" viewBox="0 0 248.000000 248.000000"
 preserveAspectRatio="xMidYMid meet">
<metadata>
Created by potrace 1.10, written by Peter Selinger 2001-2011
</metadata>
<g transform="translate(0.000000,248.000000) scale(0.100000,-0.100000)"
fill="#000000" stroke="none">
<path d="M1710 2234 c-74 -7 -187 -20 -250 -29 -63 -8 -207 -22 -320 -30 -327
-24 -443 -36 -470 -49 -35 -17 -35 -65 1 -85 24 -13 45 -13 185 2 88 10 254
24 369 33 116 8 228 19 250 24 55 12 405 43 412 37 8 -9 -26 -264 -47 -352
-41 -170 -37 -225 16 -225 34 0 49 31 74 150 12 58 24 108 26 111 1 3 13 79
24 170 20 158 20 220 -2 247 -13 15 -87 14 -268 -4z"/>
</g>
</svg>
