<?xml version="1.0" standalone="no"?>
<!DOCTYPE svg PUBLIC "-//W3C//DTD SVG 20010904//EN"
 "http://www.w3.org/TR/2001/REC-SVG-20010904/DTD/svg10.dtd">
<svg version="1.0" xmlns="http://www.w3.org/2000/svg"
 width="248.000000pt" height="248.000000pt" viewBox="0 0 248.000000 248.000000"
 preserveAspectRatio="xMidYMid meet">
<metadata>
Created by potrace 1.10, written by Peter Selinger 2001-2011
</metadata>
<g transform="translate(0.000000,248.000000) scale(0.100000,-0.100000)"
fill="#000000" stroke="none">
<path d="M1399 2373 c-11 -12 -14 -56 -14 -182 0 -91 -4 -265 -8 -386 -9 -248
-5 -270 48 -270 44 0 55 31 55 158 l0 107 208 0 c232 0 257 6 257 55 0 49 -25
55 -252 55 l-203 0 0 28 0 29 107 6 c58 4 143 7 189 7 113 0 148 18 136 72 -7
35 -54 41 -242 34 l-180 -8 0 41 c0 39 1 41 33 42 312 9 369 14 383 33 18 25
18 37 0 62 -14 18 -27 19 -220 17 l-206 -2 0 37 c0 68 -56 108 -91 65z"/>
<path d="M942 2368 c-7 -7 -12 -38 -12 -69 l0 -57 -142 -7 c-174 -8 -265 -20
-284 -36 -8 -7 -14 -24 -12 -38 5 -44 37 -51 183 -41 72 5 158 9 193 10 62 0
62 0 62 -29 0 -29 0 -29 -72 -35 -40 -3 -140 -8 -223 -12 -82 -3 -156 -11
-162 -16 -20 -16 -15 -53 8 -74 18 -17 35 -19 142 -17 67 2 164 5 215 9 l92 6
0 -39 0 -39 -39 4 c-22 2 -93 -1 -158 -8 -65 -6 -154 -14 -198 -17 -44 -3 -86
-10 -92 -15 -19 -15 -16 -53 7 -73 23 -21 76 -23 235 -6 61 6 138 11 172 11
l62 0 -16 -52 c-8 -29 -26 -71 -39 -94 -38 -64 -28 -114 21 -114 44 0 91 78
127 211 21 78 23 104 23 345 0 244 -1 263 -19 283 -21 23 -56 27 -74 9z"/>
<path d="M1149 1653 c-10 -12 -13 -42 -11 -113 l2 -98 -137 -6 c-166 -7 -234
-15 -250 -28 -18 -14 -16 -48 3 -69 15 -17 32 -18 200 -12 l184 6 0 -55 0 -55
-137 -6 c-75 -4 -186 -7 -247 -7 -122 0 -157 -11 -166 -50 -7 -28 32 -361 50
-433 22 -85 30 -86 323 -72 l177 8 0 -71 0 -71 -42 -5 c-24 -3 -194 -8 -378
-11 -367 -7 -385 -10 -385 -60 0 -54 17 -56 335 -50 157 3 324 8 373 11 l87 6
0 -139 c0 -154 9 -186 52 -191 48 -6 58 25 58 184 l0 141 43 7 c23 3 180 9
350 12 193 5 315 11 330 18 15 8 22 21 22 41 0 54 -18 57 -330 51 -154 -3
-308 -9 -343 -12 l-62 -7 0 72 0 71 159 0 c96 0 162 -4 166 -10 3 -5 19 -10
34 -10 22 0 31 7 40 28 16 40 78 347 85 422 12 130 -15 143 -292 138 l-192 -3
0 52 0 51 168 4 c183 3 202 9 202 57 0 48 -11 51 -196 51 l-171 0 -10 100 c-6
54 -16 106 -23 115 -16 20 -54 19 -71 -2z m475 -590 c-4 -32 -9 -60 -11 -63
-2 -3 -85 -6 -184 -9 l-179 -3 0 60 c0 39 4 62 13 65 6 3 92 6 190 6 l177 1
-6 -57z m-484 -10 l0 -58 -214 0 c-240 -1 -226 -5 -226 72 l0 32 113 4 c61 1
160 4 220 5 l107 2 0 -57z m0 -221 l0 -59 -140 -7 c-77 -3 -166 -9 -199 -12
l-60 -7 -6 39 c-3 22 -9 51 -11 66 -7 35 -4 35 229 37 l187 1 0 -58z m445 26
c-3 -18 -8 -45 -11 -60 l-6 -28 -159 0 -159 0 0 55 0 54 143 4 c78 1 155 4
170 5 27 2 28 0 22 -30z"/>
</g>
</svg>
