<?xml version="1.0" standalone="no"?>
<!DOCTYPE svg PUBLIC "-//W3C//DTD SVG 20010904//EN"
 "http://www.w3.org/TR/2001/REC-SVG-20010904/DTD/svg10.dtd">
<svg version="1.0" xmlns="http://www.w3.org/2000/svg"
 width="248.000000pt" height="248.000000pt" viewBox="0 0 248.000000 248.000000"
 preserveAspectRatio="xMidYMid meet">
<metadata>
Created by potrace 1.10, written by Peter Selinger 2001-2011
</metadata>
<g transform="translate(0.000000,248.000000) scale(0.100000,-0.100000)"
fill="#000000" stroke="none">
<path d="M1399 2374 c-9 -11 -13 -62 -14 -187 -1 -95 -5 -269 -9 -387 -8 -242
-4 -265 49 -265 44 0 55 31 55 158 l0 107 208 0 c232 0 257 6 257 55 0 49 -25
55 -252 55 l-203 0 0 28 0 29 107 6 c58 4 141 7 183 7 116 0 154 19 142 72 -7
35 -54 41 -242 34 l-180 -8 0 41 c0 39 1 41 33 42 312 9 369 14 383 33 18 25
18 37 0 62 -14 18 -27 19 -220 17 l-206 -3 0 38 c0 67 -56 108 -91 66z"/>
<path d="M942 2368 c-7 -7 -12 -37 -12 -68 l0 -56 -191 -12 c-214 -13 -244
-21 -244 -67 0 -47 28 -54 180 -44 72 4 158 8 193 9 62 0 62 0 62 -29 0 -29 0
-29 -72 -35 -40 -3 -140 -8 -223 -12 -82 -3 -156 -11 -162 -16 -20 -16 -15
-53 8 -74 18 -17 35 -19 142 -17 67 2 164 5 215 9 l92 6 0 -34 0 -35 -125 -7
c-68 -4 -150 -11 -182 -16 -32 -6 -83 -10 -113 -10 -31 0 -61 -5 -68 -12 -18
-18 -14 -53 8 -73 23 -21 76 -23 235 -6 61 6 138 11 172 11 l62 0 -16 -52 c-8
-29 -26 -71 -39 -94 -38 -64 -28 -114 21 -114 44 0 91 78 127 211 21 78 23
104 23 345 0 244 -1 263 -19 283 -21 23 -56 27 -74 9z"/>
<path d="M875 1430 c-16 -4 -48 -8 -70 -9 -46 -1 -65 -15 -65 -46 0 -52 3 -52
441 -46 323 5 409 9 422 20 20 16 22 62 5 79 -14 14 -680 15 -733 2z"/>
</g>
</svg>
