<?xml version="1.0" standalone="no"?>
<!DOCTYPE svg PUBLIC "-//W3C//DTD SVG 20010904//EN"
 "http://www.w3.org/TR/2001/REC-SVG-20010904/DTD/svg10.dtd">
<svg version="1.0" xmlns="http://www.w3.org/2000/svg"
 width="248.000000pt" height="248.000000pt" viewBox="0 0 248.000000 248.000000"
 preserveAspectRatio="xMidYMid meet">
<metadata>
Created by potrace 1.10, written by Peter Selinger 2001-2011
</metadata>
<g transform="translate(0.000000,248.000000) scale(0.100000,-0.100000)"
fill="#000000" stroke="none">
<path d="M688 2138 c-9 -7 -43 -83 -76 -168 -119 -310 -284 -648 -419 -859
-74 -115 -85 -149 -59 -170 28 -24 68 -9 95 35 14 23 52 85 85 138 32 53 62
93 67 90 12 -7 11 -419 -2 -711 -12 -261 -10 -273 36 -273 39 0 47 23 56 167
12 204 11 937 -1 965 -9 20 0 46 63 178 41 85 111 246 156 357 68 169 79 206
71 227 -5 15 -14 26 -19 26 -5 0 -15 2 -23 5 -7 3 -21 0 -30 -7z"/>
<path d="M1123 2128 c-5 -7 -40 -76 -78 -153 -84 -172 -185 -360 -237 -442
-41 -64 -46 -98 -17 -116 41 -26 72 4 157 153 34 59 40 65 72 66 301 13 485
26 615 44 39 6 147 19 240 30 226 25 272 36 292 66 14 22 14 26 -1 49 -19 29
-32 30 -118 11 -35 -8 -112 -20 -173 -26 -60 -6 -155 -18 -211 -25 -55 -8
-188 -21 -295 -30 -107 -8 -218 -17 -247 -19 -30 -3 -60 -2 -68 1 -10 4 5 41
62 153 78 154 96 209 74 235 -15 18 -54 20 -67 3z"/>
</g>
</svg>
