<?xml version="1.0" standalone="no"?>
<!DOCTYPE svg PUBLIC "-//W3C//DTD SVG 20010904//EN"
 "http://www.w3.org/TR/2001/REC-SVG-20010904/DTD/svg10.dtd">
<svg version="1.0" xmlns="http://www.w3.org/2000/svg"
 width="248.000000pt" height="248.000000pt" viewBox="0 0 248.000000 248.000000"
 preserveAspectRatio="xMidYMid meet">
<metadata>
Created by potrace 1.10, written by Peter Selinger 2001-2011
</metadata>
<g transform="translate(0.000000,248.000000) scale(0.100000,-0.100000)"
fill="#000000" stroke="none">
<path d="M360 1610 c-25 -25 -26 -67 -5 -280 8 -85 22 -229 30 -320 37 -395
73 -667 92 -698 19 -30 58 -29 79 3 15 23 15 32 0 113 -15 85 -22 136 -52 427
-38 375 -54 563 -54 645 0 77 -3 93 -20 110 -11 11 -27 20 -35 20 -8 0 -24 -9
-35 -20z"/>
</g>
</svg>
