<?xml version="1.0" standalone="no"?>
<!DOCTYPE svg PUBLIC "-//W3C//DTD SVG 20010904//EN"
 "http://www.w3.org/TR/2001/REC-SVG-20010904/DTD/svg10.dtd">
<svg version="1.0" xmlns="http://www.w3.org/2000/svg"
 width="248.000000pt" height="248.000000pt" viewBox="0 0 248.000000 248.000000"
 preserveAspectRatio="xMidYMid meet">
<metadata>
Created by potrace 1.10, written by Peter Selinger 2001-2011
</metadata>
<g transform="translate(0.000000,248.000000) scale(0.100000,-0.100000)"
fill="#000000" stroke="none">
<path d="M1532 2328 c-5 -7 -12 -44 -15 -83 -4 -38 -13 -135 -21 -215 -9 -80
-16 -171 -16 -203 0 -37 -4 -59 -12 -62 -22 -8 -401 -33 -414 -28 -10 4 7 46
62 154 80 156 97 215 71 238 -9 7 -26 11 -39 9 -19 -2 -39 -35 -113 -183 -109
-218 -174 -339 -227 -422 -41 -64 -46 -98 -17 -116 41 -26 72 4 157 153 l37
65 65 2 c36 1 145 7 243 13 99 6 180 10 182 8 1 -2 0 -115 -4 -253 l-6 -249
-225 -33 c-499 -71 -534 -80 -528 -130 5 -45 26 -49 145 -30 146 24 485 75
552 83 l54 7 -8 -472 c-8 -502 -8 -501 40 -501 49 0 50 1 56 497 3 297 9 467
15 473 19 19 244 31 520 28 291 -3 304 -1 304 47 0 48 -7 49 -393 47 -199 -2
-376 -5 -393 -8 -24 -4 -33 -2 -38 11 -3 10 -3 123 0 252 6 199 10 235 23 242
15 8 62 14 334 46 182 22 225 32 244 61 14 22 14 26 -1 49 -18 27 -41 31 -96
15 -62 -18 -478 -66 -487 -56 -4 4 -1 77 6 164 22 246 25 360 11 377 -15 18
-54 20 -68 3z"/>
<path d="M688 2138 c-9 -7 -43 -83 -76 -168 -119 -310 -284 -648 -419 -859
-74 -115 -85 -149 -59 -170 28 -24 68 -9 95 35 14 23 52 85 85 138 32 53 62
93 67 90 12 -7 11 -419 -2 -711 -12 -261 -10 -273 36 -273 39 0 47 23 56 167
12 204 11 937 -1 965 -9 20 0 46 63 178 41 85 111 246 156 357 68 169 79 206
71 227 -5 15 -14 26 -19 26 -5 0 -15 2 -23 5 -7 3 -21 0 -30 -7z"/>
</g>
</svg>
