<?xml version="1.0" standalone="no"?>
<!DOCTYPE svg PUBLIC "-//W3C//DTD SVG 20010904//EN"
 "http://www.w3.org/TR/2001/REC-SVG-20010904/DTD/svg10.dtd">
<svg version="1.0" xmlns="http://www.w3.org/2000/svg"
 width="248.000000pt" height="248.000000pt" viewBox="0 0 248.000000 248.000000"
 preserveAspectRatio="xMidYMid meet">
<metadata>
Created by potrace 1.10, written by Peter Selinger 2001-2011
</metadata>
<g transform="translate(0.000000,248.000000) scale(0.100000,-0.100000)"
fill="#000000" stroke="none">
<path d="M1628 2373 c-8 -10 -32 -47 -53 -83 -46 -80 -147 -202 -226 -274 -57
-51 -65 -55 -147 -70 -48 -9 -97 -16 -110 -16 -20 0 -21 3 -12 21 10 17 2 40
-45 142 -32 67 -64 143 -72 169 -8 25 -20 52 -28 58 -22 18 -59 8 -72 -21 -17
-35 -5 -72 76 -241 37 -77 63 -141 57 -143 -6 -1 -54 -8 -106 -14 -183 -22
-230 -40 -230 -86 0 -53 26 -53 345 -5 33 5 78 12 101 15 l41 6 6 -107 c4 -59
7 -177 7 -263 0 -173 8 -204 52 -209 50 -6 58 23 57 198 0 85 -4 209 -8 275
-4 66 -7 121 -6 122 1 3 176 35 285 53 165 28 199 45 186 94 -9 36 -39 40
-141 21 -48 -9 -89 -15 -90 -13 -2 2 26 39 62 83 80 99 153 221 153 255 0 48
-51 68 -82 33z"/>
</g>
</svg>
