<?xml version="1.0" standalone="no"?>
<!DOCTYPE svg PUBLIC "-//W3C//DTD SVG 20010904//EN"
 "http://www.w3.org/TR/2001/REC-SVG-20010904/DTD/svg10.dtd">
<svg version="1.0" xmlns="http://www.w3.org/2000/svg"
 width="248.000000pt" height="248.000000pt" viewBox="0 0 248.000000 248.000000"
 preserveAspectRatio="xMidYMid meet">
<metadata>
Created by potrace 1.10, written by Peter Selinger 2001-2011
</metadata>
<g transform="translate(0.000000,248.000000) scale(0.100000,-0.100000)"
fill="#000000" stroke="none">
<path d="M1057 2182 c-10 -10 -17 -23 -17 -28 0 -23 -48 -95 -111 -165 -68
-75 -81 -103 -57 -127 30 -30 64 -14 140 66 105 110 155 221 116 260 -18 18
-53 15 -71 -6z"/>
<path d="M322 2078 c-28 -28 0 -102 86 -223 72 -101 108 -125 140 -93 22 22
12 58 -36 126 -27 37 -61 90 -77 117 -15 28 -35 58 -43 68 -17 20 -53 22 -70
5z"/>
</g>
</svg>
