<?xml version="1.0" standalone="no"?>
<!DOCTYPE svg PUBLIC "-//W3C//DTD SVG 20010904//EN"
 "http://www.w3.org/TR/2001/REC-SVG-20010904/DTD/svg10.dtd">
<svg version="1.0" xmlns="http://www.w3.org/2000/svg"
 width="248.000000pt" height="248.000000pt" viewBox="0 0 248.000000 248.000000"
 preserveAspectRatio="xMidYMid meet">
<metadata>
Created by potrace 1.10, written by Peter Selinger 2001-2011
</metadata>
<g transform="translate(0.000000,248.000000) scale(0.100000,-0.100000)"
fill="#000000" stroke="none">
<path d="M712 2328 c-22 -22 -12 -51 47 -137 32 -47 73 -112 91 -144 33 -60
67 -80 99 -60 35 22 24 58 -51 179 -40 64 -85 130 -99 145 -28 30 -66 38 -87
17z"/>
<path d="M980 1915 c-85 -13 -207 -31 -270 -40 -63 -10 -160 -26 -215 -38 -55
-11 -129 -25 -165 -31 -36 -6 -71 -15 -77 -19 -22 -14 -15 -55 13 -74 29 -18
62 -15 269 25 120 24 258 46 420 67 244 32 285 44 285 88 0 54 -26 56 -260 22z"/>
<path d="M835 1544 c-301 -55 -325 -63 -325 -109 0 -13 7 -28 15 -35 17 -14
29 -13 240 23 83 14 171 28 197 32 26 3 55 13 63 21 18 18 20 55 3 72 -15 15
-92 14 -193 -4z"/>
<path d="M880 1263 c-63 -7 -160 -20 -215 -28 -55 -8 -111 -15 -125 -15 -50 0
-68 -51 -30 -85 21 -19 24 -19 230 4 289 33 310 39 310 85 0 49 -28 55 -170
39z"/>
</g>
</svg>
