<?xml version="1.0" standalone="no"?>
<!DOCTYPE svg PUBLIC "-//W3C//DTD SVG 20010904//EN"
 "http://www.w3.org/TR/2001/REC-SVG-20010904/DTD/svg10.dtd">
<svg version="1.0" xmlns="http://www.w3.org/2000/svg"
 width="248.000000pt" height="248.000000pt" viewBox="0 0 248.000000 248.000000"
 preserveAspectRatio="xMidYMid meet">
<metadata>
Created by potrace 1.10, written by Peter Selinger 2001-2011
</metadata>
<g transform="translate(0.000000,248.000000) scale(0.100000,-0.100000)"
fill="#000000" stroke="none">
<path d="M712 2328 c-22 -22 -12 -51 47 -137 32 -47 73 -112 91 -144 33 -60
67 -80 99 -60 35 22 24 58 -51 179 -40 64 -85 130 -99 145 -28 30 -66 38 -87
17z"/>
<path d="M1759 2324 c-10 -12 -16 -71 -21 -212 -4 -107 -10 -198 -15 -203 -4
-4 -71 -19 -147 -33 -76 -14 -145 -31 -153 -38 -22 -18 -12 -61 19 -76 23 -11
44 -10 140 8 62 12 121 24 130 26 14 4 17 -9 20 -118 2 -68 6 -130 8 -138 4
-12 -16 -17 -105 -27 -60 -7 -166 -22 -235 -33 -69 -11 -138 -23 -154 -25 -16
-3 -35 -10 -43 -16 -21 -18 -16 -57 12 -75 27 -17 67 -15 200 12 38 8 128 21
200 29 137 15 255 31 293 40 22 5 22 4 22 -94 l0 -99 -47 -11 c-27 -5 -68 -13
-93 -16 -25 -4 -103 -17 -175 -30 -71 -13 -163 -28 -203 -33 -80 -11 -102 -23
-102 -57 0 -56 65 -61 288 -19 76 14 169 30 207 34 39 5 83 12 98 15 l27 7 0
-203 c0 -112 -3 -295 -7 -406 l-6 -202 -47 40 c-64 54 -110 50 -110 -10 1 -33
135 -177 173 -186 45 -12 74 2 86 37 6 19 13 225 17 495 l7 461 26 5 c14 3 66
12 114 20 49 9 95 21 103 28 18 15 18 63 -1 79 -20 16 -120 5 -227 -26 -16 -5
-18 4 -18 89 l0 93 83 13 c211 32 220 36 215 80 -5 40 -41 52 -118 40 -36 -5
-119 -16 -185 -23 -66 -8 -138 -18 -160 -21 l-40 -7 3 139 c2 76 5 139 6 141
4 3 104 21 208 37 111 16 140 41 104 90 -17 23 -82 23 -201 0 -128 -24 -116
-42 -109 164 6 159 5 183 -10 205 -19 30 -57 34 -77 10z"/>
<path d="M980 1915 c-85 -13 -207 -31 -270 -40 -63 -10 -160 -26 -215 -38 -55
-11 -129 -25 -165 -31 -78 -13 -90 -20 -90 -50 0 -55 52 -67 175 -40 131 28
351 64 540 89 244 32 285 44 285 88 0 54 -26 56 -260 22z"/>
<path d="M835 1544 c-301 -55 -325 -63 -325 -109 0 -13 7 -28 15 -35 17 -14
29 -13 240 23 83 14 171 28 197 32 26 3 55 13 63 21 18 18 20 55 3 72 -15 15
-92 14 -193 -4z"/>
<path d="M880 1263 c-63 -7 -160 -20 -215 -28 -55 -8 -111 -15 -125 -15 -50 0
-68 -51 -30 -85 21 -19 24 -19 230 4 289 33 310 39 310 85 0 49 -28 55 -170
39z"/>
<path d="M890 979 c-39 -7 -229 -34 -382 -54 -26 -3 -57 -14 -70 -24 l-22 -18
13 -179 c7 -99 16 -241 21 -316 16 -241 18 -242 300 -246 220 -3 236 0 272 48
11 15 25 62 32 110 18 107 40 506 33 569 -13 113 -56 137 -197 110z m86 -283
c-7 -191 -22 -398 -32 -429 -5 -15 -23 -17 -189 -17 l-184 0 -5 33 c-3 17 -8
55 -12 82 -5 28 -9 79 -9 115 -1 36 -5 127 -9 202 l-8 137 34 6 c85 16 347 53
382 54 l39 1 -7 -184z"/>
<path d="M1432 878 c-15 -15 -15 -43 -2 -68 11 -20 137 -119 203 -159 43 -26
82 -22 92 9 11 35 -4 55 -78 107 -40 28 -92 68 -116 87 -44 37 -78 45 -99 24z"/>
</g>
</svg>
