<?xml version="1.0" standalone="no"?>
<!DOCTYPE svg PUBLIC "-//W3C//DTD SVG 20010904//EN"
 "http://www.w3.org/TR/2001/REC-SVG-20010904/DTD/svg10.dtd">
<svg version="1.0" xmlns="http://www.w3.org/2000/svg"
 width="248.000000pt" height="248.000000pt" viewBox="0 0 248.000000 248.000000"
 preserveAspectRatio="xMidYMid meet">
<metadata>
Created by potrace 1.10, written by Peter Selinger 2001-2011
</metadata>
<g transform="translate(0.000000,248.000000) scale(0.100000,-0.100000)"
fill="#000000" stroke="none">
<path d="M1762 2368 c-6 -7 -14 -79 -19 -160 -5 -81 -11 -150 -14 -153 -9 -8
-300 -37 -315 -31 -11 4 -14 35 -14 133 0 100 -3 133 -16 151 -17 24 -58 30
-71 10 -4 -7 -8 -78 -8 -157 l0 -145 -35 -8 c-19 -4 -80 -8 -134 -9 -81 -2
-103 -6 -118 -21 -23 -23 -23 -43 2 -68 18 -18 28 -19 122 -13 57 3 117 7 133
7 l30 1 5 -235 5 -235 28 -9 c21 -8 31 -6 44 7 15 15 17 42 14 246 -1 126 1
231 6 234 5 3 65 10 133 16 69 7 137 14 153 16 l27 5 0 -73 c0 -61 -24 -357
-32 -383 -5 -19 14 -54 30 -55 71 -5 71 -6 96 334 7 97 15 179 18 182 2 3 81
11 175 18 93 8 175 17 181 21 13 8 16 55 4 72 -14 21 -41 22 -192 8 -85 -7
-156 -11 -159 -9 -3 3 -4 69 -2 146 2 98 -1 144 -9 154 -15 18 -54 19 -68 3z"/>
<path d="M451 2221 c-36 -36 -25 -64 38 -96 25 -13 82 -46 126 -74 91 -59 129
-65 147 -25 17 36 7 48 -102 116 -159 100 -180 108 -209 79z"/>
<path d="M730 1834 c-30 -7 -107 -20 -170 -28 -299 -39 -414 -57 -427 -67 -16
-14 -17 -51 -1 -67 17 -17 93 -15 243 7 72 10 159 22 195 26 112 11 263 45
282 62 22 20 23 46 2 67 -18 19 -49 19 -124 0z"/>
<path d="M540 1434 c-91 -14 -251 -42 -287 -50 -30 -6 -45 -36 -34 -67 14 -35
33 -39 114 -22 40 8 132 24 206 35 144 22 170 31 172 58 5 67 -13 72 -171 46z"/>
<path d="M480 1105 c-153 -31 -226 -48 -237 -57 -16 -13 -17 -50 -1 -66 16
-16 92 -15 160 3 31 8 103 22 160 31 57 9 109 21 116 26 15 13 16 50 0 66 -15
15 -113 14 -198 -3z"/>
<path d="M495 774 c-106 -18 -266 -54 -285 -64 -18 -9 -17 -47 4 -118 8 -29
20 -99 26 -155 6 -56 15 -127 21 -157 6 -30 13 -65 15 -77 9 -47 77 -53 94 -9
7 20 25 26 147 49 99 19 142 32 153 45 18 21 52 162 75 305 28 184 22 198 -96
196 -41 0 -110 -7 -154 -15z m143 -196 c-22 -139 -37 -206 -49 -214 -10 -6
-202 -44 -223 -44 -10 0 -16 21 -21 73 -3 39 -11 107 -17 150 -7 52 -7 82 -1
88 12 12 241 57 294 58 l35 1 -18 -112z"/>
</g>
</svg>
