<?xml version="1.0" standalone="no"?>
<!DOCTYPE svg PUBLIC "-//W3C//DTD SVG 20010904//EN"
 "http://www.w3.org/TR/2001/REC-SVG-20010904/DTD/svg10.dtd">
<svg version="1.0" xmlns="http://www.w3.org/2000/svg"
 width="248.000000pt" height="248.000000pt" viewBox="0 0 248.000000 248.000000"
 preserveAspectRatio="xMidYMid meet">
<metadata>
Created by potrace 1.10, written by Peter Selinger 2001-2011
</metadata>
<g transform="translate(0.000000,248.000000) scale(0.100000,-0.100000)"
fill="#000000" stroke="none">
<path d="M1762 2368 c-6 -7 -14 -79 -19 -160 -5 -81 -11 -150 -14 -153 -9 -8
-300 -37 -315 -31 -11 4 -14 35 -14 133 0 100 -3 133 -16 151 -17 24 -58 30
-71 10 -4 -7 -8 -78 -8 -157 l0 -145 -35 -8 c-19 -4 -80 -8 -134 -9 -81 -2
-103 -6 -118 -21 -23 -23 -23 -43 2 -68 18 -18 28 -19 122 -13 57 3 117 7 133
7 l30 1 0 -75 0 -75 -55 -7 c-187 -24 -215 -35 -208 -79 6 -39 28 -44 142 -30
58 7 110 10 116 6 6 -4 10 -47 10 -105 0 -115 15 -103 -140 -120 -222 -26
-283 -37 -297 -56 -18 -25 -16 -41 8 -65 16 -16 28 -20 53 -14 78 17 552 72
559 66 4 -5 7 -39 5 -77 l-3 -69 -35 -3 c-70 -6 -235 -43 -248 -56 -19 -18
-20 -969 -2 -992 15 -17 52 -18 68 -2 9 9 12 93 12 318 0 230 3 310 13 322 7
9 42 21 82 27 39 7 78 14 88 17 16 5 18 -1 15 -69 -3 -84 9 -110 51 -105 35 4
51 40 51 115 0 34 5 65 10 68 13 8 288 40 293 34 8 -8 -8 -618 -16 -626 -5 -4
-14 -1 -20 8 -18 23 -53 40 -72 33 -16 -6 -35 -35 -35 -52 0 -11 77 -111 100
-129 26 -22 81 -11 103 19 19 26 21 49 29 335 4 170 8 405 8 523 1 195 -1 216
-17 228 -14 10 -58 13 -196 10 l-177 -3 0 72 0 72 43 5 c76 10 500 27 599 24
105 -3 121 3 121 47 0 37 -17 50 -66 49 -23 0 -145 -1 -270 -3 -126 -2 -230
-1 -233 1 -7 7 14 190 23 199 4 4 60 11 123 15 124 7 160 20 160 57 -1 54 -15
57 -184 43 l-98 -9 4 76 c2 42 6 78 9 81 3 3 82 12 176 19 93 8 175 17 181 21
13 8 16 55 4 72 -14 21 -42 22 -192 8 -84 -8 -155 -12 -158 -9 -3 3 -5 69 -3
146 2 98 -1 144 -9 154 -15 18 -54 19 -68 3z m-42 -493 c0 -51 -4 -77 -12 -80
-7 -3 -76 -11 -153 -19 -106 -11 -142 -12 -147 -3 -13 21 -9 137 5 142 6 3 75
11 152 19 77 7 143 14 148 15 4 0 7 -33 7 -74z m-16 -252 c-3 -38 -10 -85 -15
-105 -9 -36 -11 -37 -67 -43 -31 -3 -87 -10 -124 -16 -37 -5 -73 -9 -80 -9
-10 0 -13 24 -13 102 l0 102 30 8 c27 6 175 22 247 26 l27 2 -5 -67z m194
-542 c6 -100 11 -96 -145 -112 -76 -8 -142 -14 -148 -14 -12 0 -14 154 -2 162
12 7 175 21 237 19 l55 -1 3 -54z m-405 -59 c-1 -41 -3 -76 -5 -78 -9 -8 -171
-35 -184 -30 -19 7 -20 141 -1 153 21 14 110 31 152 29 l40 -1 -2 -73z"/>
<path d="M451 2221 c-36 -36 -25 -64 38 -96 25 -13 82 -46 126 -74 91 -59 129
-65 147 -25 17 36 7 48 -102 116 -159 100 -180 108 -209 79z"/>
<path d="M730 1834 c-30 -7 -107 -20 -170 -28 -299 -39 -414 -57 -427 -67 -16
-14 -17 -51 -1 -67 17 -17 93 -15 243 7 72 10 159 22 195 26 112 11 263 45
282 62 22 20 23 46 2 67 -18 19 -49 19 -124 0z"/>
<path d="M540 1434 c-91 -14 -251 -42 -287 -50 -30 -6 -45 -36 -34 -67 14 -35
33 -39 114 -22 40 8 132 24 206 35 144 22 170 31 172 58 5 67 -13 72 -171 46z"/>
<path d="M480 1105 c-153 -31 -226 -48 -237 -57 -16 -13 -17 -50 -1 -66 16
-16 92 -15 160 3 31 8 103 22 160 31 57 9 109 21 116 26 15 13 16 50 0 66 -15
15 -113 14 -198 -3z"/>
<path d="M470 770 c-121 -22 -238 -49 -260 -60 -18 -9 -17 -47 4 -118 8 -29
20 -99 26 -155 6 -56 15 -127 21 -157 6 -30 13 -65 15 -77 9 -47 77 -53 94 -9
7 20 25 26 147 49 99 19 142 32 153 45 18 21 52 162 75 305 28 184 22 197 -96
196 -41 0 -121 -9 -179 -19z m168 -192 c-22 -139 -37 -206 -49 -214 -10 -6
-202 -44 -223 -44 -10 0 -16 21 -21 73 -3 39 -11 107 -17 150 -7 52 -7 82 -1
88 12 12 241 57 294 58 l35 1 -18 -112z"/>
</g>
</svg>
