<?xml version="1.0" standalone="no"?>
<!DOCTYPE svg PUBLIC "-//W3C//DTD SVG 20010904//EN"
 "http://www.w3.org/TR/2001/REC-SVG-20010904/DTD/svg10.dtd">
<svg version="1.0" xmlns="http://www.w3.org/2000/svg"
 width="248.000000pt" height="248.000000pt" viewBox="0 0 248.000000 248.000000"
 preserveAspectRatio="xMidYMid meet">
<metadata>
Created by potrace 1.10, written by Peter Selinger 2001-2011
</metadata>
<g transform="translate(0.000000,248.000000) scale(0.100000,-0.100000)"
fill="#000000" stroke="none">
<path d="M491 2186 c-8 -10 -11 -63 -9 -174 2 -88 0 -163 -4 -167 -7 -8 -104
-24 -268 -47 -47 -6 -91 -16 -97 -21 -16 -12 -17 -49 -1 -65 14 -14 135 -16
194 -2 23 5 115 19 206 30 90 11 201 27 247 35 45 9 127 20 182 25 108 9 139
24 139 65 0 45 -21 50 -148 36 -64 -7 -166 -22 -226 -32 -60 -11 -112 -16
-117 -12 -4 4 -9 76 -11 160 -3 105 -8 156 -17 167 -17 20 -55 21 -70 2z"/>
</g>
</svg>
