<?xml version="1.0" standalone="no"?>
<!DOCTYPE svg PUBLIC "-//W3C//DTD SVG 20010904//EN"
 "http://www.w3.org/TR/2001/REC-SVG-20010904/DTD/svg10.dtd">
<svg version="1.0" xmlns="http://www.w3.org/2000/svg"
 width="248.000000pt" height="248.000000pt" viewBox="0 0 248.000000 248.000000"
 preserveAspectRatio="xMidYMid meet">
<metadata>
Created by potrace 1.10, written by Peter Selinger 2001-2011
</metadata>
<g transform="translate(0.000000,248.000000) scale(0.100000,-0.100000)"
fill="#000000" stroke="none">
<path d="M1422 2287 c-6 -7 -16 -34 -22 -60 -12 -55 -117 -322 -161 -410 -17
-34 -49 -88 -70 -119 -46 -68 -50 -103 -15 -120 14 -6 32 -8 40 -5 22 9 78 89
127 182 23 44 47 83 51 86 5 3 78 12 161 18 84 7 224 21 312 32 88 10 193 21
233 23 88 5 125 25 120 64 -4 38 -40 53 -103 42 -27 -5 -104 -14 -170 -20 -66
-6 -147 -15 -180 -21 -60 -9 -327 -30 -332 -26 -1 2 18 54 42 117 45 118 57
194 33 218 -16 16 -53 15 -66 -1z"/>
<path d="M491 2186 c-8 -10 -11 -63 -9 -174 2 -88 0 -163 -4 -167 -7 -8 -104
-24 -268 -47 -47 -6 -91 -16 -97 -21 -16 -12 -17 -49 -1 -65 16 -16 126 -15
218 2 41 8 93 16 115 18 l40 3 -3 -35 c-7 -69 -53 -286 -77 -360 -13 -41 -31
-104 -40 -140 -63 -249 -158 -445 -306 -632 -39 -49 1 -107 55 -79 37 21 145
175 204 292 52 102 121 294 152 419 6 25 20 73 31 108 l21 62 76 -1 c42 0 111
-6 152 -12 l75 -12 0 -175 c0 -143 -5 -196 -23 -288 -37 -179 -97 -332 -177
-451 -38 -55 -71 -101 -75 -101 -3 0 -28 23 -55 50 -53 54 -73 60 -98 32 -24
-26 -21 -42 13 -88 60 -82 144 -116 196 -80 27 19 138 175 170 238 54 106 96
235 124 378 16 86 20 145 20 321 0 192 -2 219 -17 237 -21 22 -103 38 -255 48
-110 8 -108 6 -87 89 5 22 13 74 17 115 l7 75 125 22 c69 13 171 27 228 32
111 10 142 24 142 66 0 45 -21 50 -148 36 -64 -7 -166 -22 -226 -32 -60 -11
-112 -16 -117 -12 -4 4 -9 76 -11 160 -3 105 -8 156 -17 167 -17 20 -55 21
-70 2z"/>
<path d="M1341 1627 c-6 -8 -15 -36 -20 -63 -27 -138 -103 -287 -206 -402 -46
-51 -55 -78 -33 -100 38 -38 107 14 197 148 32 48 60 93 63 100 8 24 219 43
232 21 7 -10 -11 -160 -25 -213 -11 -41 0 -38 -179 -63 -165 -24 -261 -44
-277 -57 -8 -6 -13 -22 -11 -36 6 -46 24 -48 195 -23 87 12 170 25 186 28 24
5 27 3 27 -21 0 -33 -44 -145 -86 -216 -83 -143 -148 -210 -310 -323 -88 -61
-96 -71 -84 -103 19 -49 56 -39 173 43 164 116 283 256 353 418 16 36 31 65
35 65 3 0 32 -27 63 -60 58 -61 209 -184 406 -334 100 -75 231 -146 298 -161
39 -8 72 9 72 38 0 34 -11 44 -68 66 -123 49 -202 102 -453 302 -142 114 -279
249 -279 274 0 24 27 34 120 45 52 6 145 17 205 26 61 8 158 16 215 18 85 3
106 7 117 22 17 23 16 36 -1 60 -13 17 -25 19 -128 16 -62 -2 -156 -9 -208
-17 -114 -16 -251 -29 -265 -24 -5 2 -9 11 -8 19 2 8 6 65 10 125 l8 110 70
11 c39 6 123 19 187 29 127 20 158 35 158 81 0 35 -38 51 -87 36 -39 -11 -405
-65 -525 -77 -36 -4 -71 -4 -76 -1 -6 4 -5 23 4 53 17 57 18 125 2 141 -16 16
-53 15 -67 -1z"/>
</g>
</svg>
