<?xml version="1.0" standalone="no"?>
<!DOCTYPE svg PUBLIC "-//W3C//DTD SVG 20010904//EN"
 "http://www.w3.org/TR/2001/REC-SVG-20010904/DTD/svg10.dtd">
<svg version="1.0" xmlns="http://www.w3.org/2000/svg"
 width="248.000000pt" height="248.000000pt" viewBox="0 0 248.000000 248.000000"
 preserveAspectRatio="xMidYMid meet">
<metadata>
Created by potrace 1.10, written by Peter Selinger 2001-2011
</metadata>
<g transform="translate(0.000000,248.000000) scale(0.100000,-0.100000)"
fill="#000000" stroke="none">
<path d="M1246 2218 c-11 -18 -15 -84 -19 -308 -4 -284 -20 -457 -53 -600 -21
-90 -64 -219 -75 -225 -13 -9 -11 -59 3 -73 19 -19 55 -14 78 10 39 42 103
257 121 403 31 266 39 379 39 564 0 171 -3 210 -16 229 -20 29 -59 29 -78 0z"/>
<path d="M775 2184 c-202 -17 -263 -28 -283 -48 -15 -15 -17 -59 -20 -459 -2
-292 0 -452 7 -470 15 -39 69 -60 135 -52 28 3 119 10 202 14 164 8 206 21
231 72 17 32 18 860 2 907 -7 20 -21 34 -41 41 -36 13 -34 13 -233 -5z m175
-259 l0 -164 -32 -5 c-104 -15 -192 -26 -260 -32 l-78 -7 0 172 c0 130 3 171
13 172 6 0 80 7 162 14 83 7 160 13 173 14 22 1 22 1 22 -164z m0 -458 l0
-184 -147 -7 c-82 -4 -165 -9 -185 -13 l-38 -6 0 176 0 175 68 7 c37 4 105 13
152 20 47 7 100 13 118 14 l32 1 0 -183z"/>
</g>
</svg>
