<?xml version="1.0" standalone="no"?>
<!DOCTYPE svg PUBLIC "-//W3C//DTD SVG 20010904//EN"
 "http://www.w3.org/TR/2001/REC-SVG-20010904/DTD/svg10.dtd">
<svg version="1.0" xmlns="http://www.w3.org/2000/svg"
 width="248.000000pt" height="248.000000pt" viewBox="0 0 248.000000 248.000000"
 preserveAspectRatio="xMidYMid meet">
<metadata>
Created by potrace 1.10, written by Peter Selinger 2001-2011
</metadata>
<g transform="translate(0.000000,248.000000) scale(0.100000,-0.100000)"
fill="#000000" stroke="none">
<path d="M860 2285 c-30 -7 -171 -37 -312 -67 -276 -58 -304 -69 -295 -118 3
-14 10 -43 16 -65 14 -55 14 -839 0 -975 -11 -102 -11 -104 11 -122 17 -14 32
-17 59 -12 134 23 309 59 541 110 89 19 89 19 85 -18 -3 -18 -12 -94 -21 -168
-31 -267 -59 -410 -111 -573 -23 -72 -27 -78 -47 -72 -74 24 -111 11 -104 -37
4 -29 77 -68 128 -68 68 0 89 32 145 227 28 100 81 399 90 518 4 44 9 91 11
105 3 14 8 59 11 100 5 67 3 77 -15 93 -25 23 -62 24 -132 4 -30 -9 -77 -19
-105 -22 -27 -4 -54 -8 -58 -9 -5 0 -8 64 -7 144 1 166 -1 162 89 181 105 22
129 29 152 48 20 16 22 23 14 47 -14 38 -36 40 -142 14 -47 -11 -92 -19 -99
-16 -19 7 -20 229 -1 243 6 6 55 20 108 32 99 23 129 41 129 78 0 48 -39 52
-172 17 -37 -10 -70 -16 -72 -13 -2 2 -6 62 -8 133 l-3 129 90 23 c50 12 102
23 116 23 14 1 34 10 45 22 17 19 17 23 3 47 -18 33 -57 37 -139 17z m-208
-282 c2 -79 0 -132 -7 -139 -14 -15 -251 -68 -264 -60 -7 5 -11 56 -10 141 l0
134 52 10 c29 6 81 17 117 25 117 25 108 35 112 -111z m7 -373 c0 -81 -4 -122
-12 -127 -10 -6 -110 -34 -255 -70 l-23 -5 3 133 3 133 65 13 c36 7 90 19 120
27 105 27 99 33 99 -104z m-4 -250 c4 -6 3 -71 -1 -146 -5 -111 -10 -136 -24
-144 -18 -10 -212 -50 -241 -50 -19 0 -19 8 -17 141 l3 142 45 12 c223 62 224
62 235 45z"/>
<path d="M1960 2200 c-244 -31 -391 -51 -485 -67 -49 -8 -119 -18 -154 -22
-88 -10 -105 -34 -76 -104 19 -47 49 -589 41 -737 -3 -58 -17 -184 -30 -280
-20 -147 -32 -199 -76 -329 -28 -85 -67 -182 -86 -216 -35 -64 -42 -103 -22
-123 17 -17 53 -15 70 6 31 35 87 161 138 312 64 191 90 361 99 635 l6 190 35
12 c30 10 37 9 45 -4 6 -9 20 -28 33 -44 12 -15 70 -103 128 -195 57 -92 117
-183 133 -203 15 -20 59 -81 96 -136 37 -55 86 -123 109 -152 44 -55 80 -102
155 -203 85 -114 267 -280 308 -280 26 0 56 40 47 63 -3 9 -27 33 -52 54 -94
75 -195 180 -249 258 -31 44 -82 113 -114 153 -32 40 -96 126 -141 193 -46 66
-104 150 -129 187 -42 60 -209 330 -209 337 0 1 53 10 118 19 249 35 322 56
322 94 0 9 24 94 54 187 75 232 106 339 106 363 0 23 -35 53 -60 51 -8 -1 -80
-9 -160 -19z m100 -93 c0 -12 -49 -178 -86 -287 -25 -76 -53 -142 -64 -152
-11 -9 -44 -19 -72 -23 -29 -3 -142 -20 -251 -37 -109 -16 -200 -28 -201 -26
-5 5 -26 307 -26 370 0 63 -4 60 90 77 54 9 87 14 335 46 66 9 147 20 180 24
70 10 95 12 95 8z"/>
<path d="M719 864 c-10 -13 -10 -27 0 -75 16 -77 29 -107 53 -114 26 -9 56 3
63 25 7 23 -18 122 -39 156 -19 28 -57 32 -77 8z"/>
<path d="M559 804 c-10 -13 -10 -29 0 -92 7 -42 18 -83 23 -89 14 -18 53 -16
68 2 17 21 7 137 -14 170 -19 29 -57 33 -77 9z"/>
<path d="M380 735 c-17 -21 -5 -220 16 -252 16 -26 55 -30 74 -9 14 18 4 208
-14 246 -13 30 -57 38 -76 15z"/>
<path d="M70 615 c-16 -20 8 -301 28 -321 17 -18 56 -18 71 0 17 20 -3 281
-24 312 -18 27 -56 32 -75 9z"/>
</g>
</svg>
