<?xml version="1.0" standalone="no"?>
<!DOCTYPE svg PUBLIC "-//W3C//DTD SVG 20010904//EN"
 "http://www.w3.org/TR/2001/REC-SVG-20010904/DTD/svg10.dtd">
<svg version="1.0" xmlns="http://www.w3.org/2000/svg"
 width="248.000000pt" height="248.000000pt" viewBox="0 0 248.000000 248.000000"
 preserveAspectRatio="xMidYMid meet">
<metadata>
Created by potrace 1.10, written by Peter Selinger 2001-2011
</metadata>
<g transform="translate(0.000000,248.000000) scale(0.100000,-0.100000)"
fill="#000000" stroke="none">
<path d="M860 2285 c-30 -7 -171 -37 -312 -67 -276 -58 -304 -69 -295 -118 3
-14 10 -43 16 -65 14 -55 14 -839 0 -975 -11 -102 -11 -104 11 -122 17 -14 32
-17 59 -12 134 23 309 59 541 110 89 19 89 19 85 -18 -3 -18 -12 -94 -21 -168
-31 -267 -59 -410 -111 -573 -23 -72 -27 -78 -47 -72 -74 24 -111 11 -104 -37
4 -29 77 -68 128 -68 68 0 89 32 145 227 28 100 81 399 90 518 4 44 9 91 11
105 3 14 8 59 11 100 5 67 3 77 -15 93 -25 23 -62 24 -132 4 -30 -9 -77 -19
-105 -22 -27 -4 -54 -8 -58 -9 -5 0 -8 64 -7 144 1 166 -1 162 89 181 105 22
129 29 152 48 20 16 22 23 14 47 -14 38 -36 40 -142 14 -47 -11 -92 -19 -99
-16 -19 7 -20 229 -1 243 6 6 55 20 108 32 99 23 129 41 129 78 0 48 -39 52
-172 17 -37 -10 -70 -16 -72 -13 -2 2 -6 62 -8 133 l-3 129 90 23 c50 12 102
23 116 23 14 1 34 10 45 22 17 19 17 23 3 47 -18 33 -57 37 -139 17z m-208
-282 c2 -79 0 -132 -7 -139 -14 -15 -251 -68 -264 -60 -7 5 -11 56 -10 141 l0
134 52 10 c29 6 81 17 117 25 117 25 108 35 112 -111z m7 -373 c0 -81 -4 -122
-12 -127 -10 -6 -106 -32 -254 -70 -23 -5 -23 -5 -23 115 0 136 3 152 34 152
11 0 64 11 116 24 151 38 139 46 139 -94z m-4 -250 c4 -6 3 -71 -1 -146 -5
-111 -10 -136 -24 -144 -18 -10 -212 -50 -241 -50 -19 0 -19 8 -17 141 l3 142
45 12 c223 62 224 62 235 45z"/>
<path d="M380 735 c-17 -21 -5 -220 16 -252 16 -26 55 -30 74 -9 14 18 4 208
-14 246 -13 30 -57 38 -76 15z"/>
<path d="M70 615 c-16 -20 8 -301 28 -321 17 -18 56 -18 71 0 17 20 -3 281
-24 312 -18 27 -56 32 -75 9z"/>
</g>
</svg>
