<?xml version="1.0" standalone="no"?>
<!DOCTYPE svg PUBLIC "-//W3C//DTD SVG 20010904//EN"
 "http://www.w3.org/TR/2001/REC-SVG-20010904/DTD/svg10.dtd">
<svg version="1.0" xmlns="http://www.w3.org/2000/svg"
 width="248.000000pt" height="248.000000pt" viewBox="0 0 248.000000 248.000000"
 preserveAspectRatio="xMidYMid meet">
<metadata>
Created by potrace 1.10, written by Peter Selinger 2001-2011
</metadata>
<g transform="translate(0.000000,248.000000) scale(0.100000,-0.100000)"
fill="#000000" stroke="none">
<path d="M860 2285 c-30 -7 -171 -37 -312 -67 -276 -58 -304 -69 -295 -118 3
-14 10 -45 17 -69 8 -32 9 -183 6 -520 -3 -262 -7 -496 -8 -521 -3 -39 0 -46
24 -59 24 -14 28 -14 46 2 29 27 32 80 32 637 1 280 2 510 3 510 4 0 434 89
530 109 42 10 85 25 95 34 15 16 15 20 2 45 -19 33 -58 37 -140 17z"/>
</g>
</svg>
