<?xml version="1.0" standalone="no"?>
<!DOCTYPE svg PUBLIC "-//W3C//DTD SVG 20010904//EN"
 "http://www.w3.org/TR/2001/REC-SVG-20010904/DTD/svg10.dtd">
<svg version="1.0" xmlns="http://www.w3.org/2000/svg"
 width="248.000000pt" height="248.000000pt" viewBox="0 0 248.000000 248.000000"
 preserveAspectRatio="xMidYMid meet">
<metadata>
Created by potrace 1.10, written by Peter Selinger 2001-2011
</metadata>
<g transform="translate(0.000000,248.000000) scale(0.100000,-0.100000)"
fill="#000000" stroke="none">
<path d="M1194 2235 c-17 -25 -16 -38 2 -151 l6 -41 -98 -8 c-114 -8 -147 -22
-142 -63 5 -45 43 -55 151 -44 51 6 96 7 100 2 5 -4 13 -40 18 -80 5 -41 16
-84 24 -97 17 -25 53 -31 73 -11 14 14 15 106 2 163 -5 22 -7 41 -5 43 4 4
221 35 360 52 55 6 143 17 195 25 89 13 189 26 305 40 62 8 95 28 95 59 0 41
-22 49 -113 43 -45 -3 -129 -13 -187 -21 -58 -9 -159 -22 -225 -31 -341 -44
-349 -45 -402 -54 -49 -10 -50 -9 -59 87 -3 37 -13 77 -20 90 -20 30 -59 29
-80 -3z"/>
<path d="M399 2053 c-11 -12 -15 -71 -17 -258 l-3 -242 -97 -17 c-53 -9 -111
-16 -127 -16 -68 0 -101 -63 -50 -96 23 -15 34 -15 133 -1 60 9 116 19 125 23
16 6 17 -10 17 -198 0 -113 3 -232 6 -265 l6 -59 -122 -70 c-67 -38 -133 -79
-146 -91 -39 -36 -27 -93 19 -93 11 0 56 22 101 49 98 58 213 123 321 181 44
23 103 57 131 75 28 18 72 42 97 53 40 18 47 25 47 49 0 36 -16 53 -50 53 -28
-1 -74 -23 -195 -93 -44 -26 -86 -47 -92 -47 -10 0 -13 55 -13 240 l0 240 23
4 c12 3 64 12 116 21 105 17 123 27 119 64 -5 46 -45 56 -146 37 -48 -9 -93
-16 -99 -16 -10 0 -13 51 -13 223 0 185 -3 226 -16 245 -18 26 -56 29 -75 5z"/>
</g>
</svg>
