<?xml version="1.0" standalone="no"?>
<!DOCTYPE svg PUBLIC "-//W3C//DTD SVG 20010904//EN"
 "http://www.w3.org/TR/2001/REC-SVG-20010904/DTD/svg10.dtd">
<svg version="1.0" xmlns="http://www.w3.org/2000/svg"
 width="248.000000pt" height="248.000000pt" viewBox="0 0 248.000000 248.000000"
 preserveAspectRatio="xMidYMid meet">
<metadata>
Created by potrace 1.10, written by Peter Selinger 2001-2011
</metadata>
<g transform="translate(0.000000,248.000000) scale(0.100000,-0.100000)"
fill="#000000" stroke="none">
<path d="M399 2053 c-11 -12 -15 -71 -17 -258 l-3 -242 -97 -17 c-53 -9 -111
-16 -127 -16 -68 0 -101 -63 -50 -96 23 -15 34 -15 133 -1 60 9 115 19 124 22
14 6 16 -20 20 -247 4 -278 10 -310 59 -316 51 -6 52 6 50 308 l-2 279 23 5
c13 3 65 12 117 21 105 17 123 27 119 64 -5 46 -45 56 -146 37 -48 -9 -93 -16
-99 -16 -10 0 -13 51 -13 223 0 185 -3 226 -16 245 -18 26 -56 29 -75 5z"/>
</g>
</svg>
