<?xml version="1.0" standalone="no"?>
<!DOCTYPE svg PUBLIC "-//W3C//DTD SVG 20010904//EN"
 "http://www.w3.org/TR/2001/REC-SVG-20010904/DTD/svg10.dtd">
<svg version="1.0" xmlns="http://www.w3.org/2000/svg"
 width="248.000000pt" height="248.000000pt" viewBox="0 0 248.000000 248.000000"
 preserveAspectRatio="xMidYMid meet">
<metadata>
Created by potrace 1.10, written by Peter Selinger 2001-2011
</metadata>
<g transform="translate(0.000000,248.000000) scale(0.100000,-0.100000)"
fill="#000000" stroke="none">
<path d="M1512 2170 c-88 -95 -222 -210 -342 -295 -39 -27 -81 -57 -93 -67
-22 -16 -22 -17 -22 -380 0 -199 4 -380 8 -400 16 -77 61 -88 128 -30 24 21
96 77 159 125 152 113 167 129 154 165 -7 20 -17 28 -39 30 -25 2 -53 -15
-159 -98 -71 -55 -132 -100 -137 -100 -5 0 -9 139 -9 308 l0 308 108 80 c132
100 298 249 352 316 41 52 51 93 28 116 -27 27 -54 11 -136 -78z"/>
<path d="M382 1918 c-37 -37 9 -92 133 -161 70 -39 103 -45 123 -25 31 31 3
78 -68 113 -19 10 -56 33 -83 51 -49 35 -84 43 -105 22z"/>
<path d="M2080 1923 c-152 -23 -236 -38 -295 -53 -38 -10 -105 -21 -147 -25
-91 -8 -103 -18 -93 -77 4 -24 10 -335 14 -691 6 -627 7 -649 25 -663 25 -18
37 -18 62 0 18 14 19 32 19 633 0 340 -3 635 -7 655 l-7 37 47 6 c26 4 79 15
117 25 85 21 184 39 245 42 43 3 45 2 43 -22 -2 -14 -7 -117 -13 -230 -11
-220 -28 -389 -41 -404 -5 -5 -33 6 -66 26 -79 48 -96 52 -123 30 -40 -32 -22
-62 75 -121 47 -29 88 -58 92 -65 5 -7 18 -18 31 -25 52 -28 100 32 101 126 1
23 8 91 16 150 12 92 33 410 39 576 2 71 -29 87 -134 70z"/>
<path d="M555 1404 c-145 -71 -300 -134 -330 -134 -32 0 -65 -28 -65 -55 0
-26 33 -55 62 -55 30 0 136 40 271 100 70 32 127 56 127 54 0 -3 -20 -44 -45
-93 -53 -104 -59 -154 -22 -192 13 -13 63 -58 110 -99 48 -41 87 -79 87 -83 0
-5 -53 -33 -117 -63 -65 -30 -132 -62 -149 -70 -18 -9 -79 -28 -138 -44 -128
-33 -158 -51 -154 -88 4 -39 37 -51 101 -38 74 15 221 11 296 -9 35 -9 135
-45 222 -80 87 -35 184 -71 216 -78 32 -8 135 -38 228 -66 94 -29 265 -70 380
-93 234 -45 199 -45 487 1 137 21 161 30 178 62 9 16 8 26 -5 46 -15 22 -22
24 -53 19 -21 -4 -91 -16 -157 -27 -66 -11 -140 -24 -165 -29 -78 -15 -375 42
-635 121 -93 28 -196 58 -228 66 -32 7 -119 39 -195 70 -75 30 -168 65 -206
77 l-69 22 139 68 c76 37 147 74 156 83 26 24 22 61 -10 91 -37 36 -202 178
-226 195 -19 14 -19 15 4 58 127 242 139 278 104 313 -26 27 -64 17 -199 -50z"/>
</g>
</svg>
