<?xml version="1.0" standalone="no"?>
<!DOCTYPE svg PUBLIC "-//W3C//DTD SVG 20010904//EN"
 "http://www.w3.org/TR/2001/REC-SVG-20010904/DTD/svg10.dtd">
<svg version="1.0" xmlns="http://www.w3.org/2000/svg"
 width="248.000000pt" height="248.000000pt" viewBox="0 0 248.000000 248.000000"
 preserveAspectRatio="xMidYMid meet">
<metadata>
Created by potrace 1.10, written by Peter Selinger 2001-2011
</metadata>
<g transform="translate(0.000000,248.000000) scale(0.100000,-0.100000)"
fill="#000000" stroke="none">
<path d="M1512 2170 c-88 -95 -222 -210 -342 -295 -39 -27 -81 -57 -93 -67
-22 -16 -22 -17 -22 -380 0 -199 4 -380 8 -400 16 -77 61 -88 128 -30 24 21
96 77 159 125 152 113 167 129 154 165 -7 20 -17 28 -39 30 -25 2 -53 -15
-159 -98 -71 -55 -132 -100 -137 -100 -5 0 -9 139 -9 308 l0 308 108 80 c132
100 298 249 352 316 41 52 51 93 28 116 -27 27 -54 11 -136 -78z"/>
<path d="M2080 1923 c-168 -25 -233 -37 -275 -49 -27 -7 -81 -18 -118 -23 -79
-11 -99 -24 -95 -60 6 -54 73 -60 223 -21 84 21 184 39 245 42 43 3 45 2 43
-22 -2 -14 -7 -117 -13 -230 -11 -220 -28 -389 -41 -404 -5 -5 -33 6 -66 26
-79 48 -96 52 -123 30 -40 -32 -22 -62 75 -121 47 -29 88 -58 92 -65 5 -7 18
-18 31 -25 52 -28 100 32 101 126 1 23 8 91 16 150 12 92 33 410 39 576 2 71
-29 87 -134 70z"/>
</g>
</svg>
