<?xml version="1.0" standalone="no"?>
<!DOCTYPE svg PUBLIC "-//W3C//DTD SVG 20010904//EN"
 "http://www.w3.org/TR/2001/REC-SVG-20010904/DTD/svg10.dtd">
<svg version="1.0" xmlns="http://www.w3.org/2000/svg"
 width="248.000000pt" height="248.000000pt" viewBox="0 0 248.000000 248.000000"
 preserveAspectRatio="xMidYMid meet">
<metadata>
Created by potrace 1.10, written by Peter Selinger 2001-2011
</metadata>
<g transform="translate(0.000000,248.000000) scale(0.100000,-0.100000)"
fill="#000000" stroke="none">
<path d="M1946 2288 c-9 -12 -16 -34 -16 -48 0 -49 -13 -99 -26 -104 -7 -3
-70 -12 -141 -21 -251 -30 -353 -44 -410 -54 -49 -10 -50 -9 -59 87 -3 37 -13
77 -20 90 -20 30 -59 29 -80 -3 -17 -25 -16 -38 2 -151 l6 -41 -98 -8 c-114
-8 -147 -22 -142 -63 5 -45 43 -55 151 -44 51 6 96 7 100 2 5 -4 13 -40 18
-80 5 -41 16 -84 24 -97 17 -25 53 -31 73 -11 14 14 15 106 2 163 -5 22 -7 41
-5 43 6 6 335 51 503 68 50 5 62 4 58 -7 -2 -8 -9 -46 -16 -85 -15 -85 -5
-114 39 -114 16 0 33 6 38 13 14 16 43 139 43 177 0 39 16 45 146 60 108 12
144 28 144 64 0 42 -22 50 -118 43 -48 -4 -97 -9 -110 -13 -21 -6 -22 -4 -20
58 3 72 -10 98 -48 98 -12 0 -30 -10 -38 -22z"/>
<path d="M399 2053 c-11 -12 -15 -71 -17 -258 l-3 -242 -97 -17 c-53 -9 -111
-16 -127 -16 -68 0 -101 -63 -50 -96 23 -15 34 -15 133 -1 60 9 116 19 125 23
16 6 17 -10 17 -198 0 -113 3 -232 6 -265 l6 -59 -122 -70 c-67 -38 -133 -79
-146 -91 -39 -36 -27 -93 19 -93 11 0 56 22 101 49 98 58 213 123 321 181 44
23 103 57 131 75 28 18 72 42 97 53 40 18 47 25 47 49 0 36 -16 53 -50 53 -28
-1 -74 -23 -195 -93 -44 -26 -86 -47 -92 -47 -10 0 -13 55 -13 240 l0 240 23
4 c12 3 64 12 116 21 105 17 123 27 119 64 -5 46 -45 56 -146 37 -48 -9 -93
-16 -99 -16 -10 0 -13 51 -13 223 0 185 -3 226 -16 245 -18 26 -56 29 -75 5z"/>
<path d="M1487 1693 c-13 -21 -30 -49 -37 -63 -7 -14 -40 -57 -74 -96 -34 -39
-83 -102 -110 -140 -28 -38 -77 -100 -111 -139 -34 -38 -71 -83 -84 -100 -12
-16 -86 -97 -164 -178 -78 -82 -146 -160 -152 -173 -13 -34 4 -58 42 -62 26
-3 44 13 179 156 174 186 277 305 361 418 33 45 87 113 121 152 34 40 68 85
77 102 l16 30 62 -52 c123 -102 192 -165 316 -288 69 -69 151 -144 181 -166
30 -22 89 -65 130 -96 127 -93 157 -110 179 -103 27 8 42 36 34 64 -3 13 -36
43 -77 71 -39 28 -91 64 -116 82 -84 59 -195 156 -287 250 -50 51 -135 131
-189 178 -54 47 -124 109 -156 138 -74 66 -107 70 -141 15z"/>
<path d="M1885 1124 c-5 -2 -68 -10 -140 -19 -71 -8 -177 -21 -235 -30 -58 -8
-134 -15 -170 -15 -79 0 -114 -16 -118 -52 -2 -20 4 -31 23 -44 37 -24 100
-19 580 47 91 12 125 29 125 63 0 31 -37 59 -65 50z"/>
<path d="M1885 794 c-100 -13 -452 -49 -618 -63 -54 -5 -93 -13 -102 -22 -19
-20 -4 -532 16 -575 27 -55 35 -56 445 -48 359 7 377 8 407 28 17 12 34 32 38
46 4 14 7 152 8 307 1 279 1 282 -21 306 -31 33 -55 36 -173 21z m103 -309 c2
-127 -1 -224 -7 -246 l-11 -36 -341 -8 c-188 -4 -345 -3 -349 2 -5 4 -10 101
-12 215 l-3 207 25 5 c25 5 133 16 345 36 61 6 157 17 215 24 58 8 112 13 120
12 13 -1 15 -33 18 -211z"/>
</g>
</svg>
