<?xml version="1.0" standalone="no"?>
<!DOCTYPE svg PUBLIC "-//W3C//DTD SVG 20010904//EN"
 "http://www.w3.org/TR/2001/REC-SVG-20010904/DTD/svg10.dtd">
<svg version="1.0" xmlns="http://www.w3.org/2000/svg"
 width="248.000000pt" height="248.000000pt" viewBox="0 0 248.000000 248.000000"
 preserveAspectRatio="xMidYMid meet">
<metadata>
Created by potrace 1.10, written by Peter Selinger 2001-2011
</metadata>
<g transform="translate(0.000000,248.000000) scale(0.100000,-0.100000)"
fill="#000000" stroke="none">
<path d="M496 2138 c-9 -12 -16 -40 -16 -62 0 -69 -94 -404 -136 -484 -28 -54
-12 -92 38 -92 21 0 33 8 48 33 25 41 74 175 90 249 14 62 13 61 110 72 25 3
115 15 200 26 85 11 181 22 213 26 62 6 97 29 97 63 0 50 -51 54 -285 21 -187
-27 -279 -38 -283 -35 -1 1 3 35 10 74 11 62 10 76 -3 99 -20 36 -61 41 -83
10z"/>
<path d="M1010 1594 c-14 -2 -74 -11 -135 -20 -60 -8 -151 -22 -201 -30 -50
-8 -107 -14 -126 -14 -74 0 -106 -69 -45 -98 23 -11 45 -11 140 3 264 37 326
46 400 54 43 5 84 15 92 21 19 16 19 54 0 70 -16 13 -84 21 -125 14z"/>
</g>
</svg>
