<?xml version="1.0" standalone="no"?>
<!DOCTYPE svg PUBLIC "-//W3C//DTD SVG 20010904//EN"
 "http://www.w3.org/TR/2001/REC-SVG-20010904/DTD/svg10.dtd">
<svg version="1.0" xmlns="http://www.w3.org/2000/svg"
 width="248.000000pt" height="248.000000pt" viewBox="0 0 248.000000 248.000000"
 preserveAspectRatio="xMidYMid meet">
<metadata>
Created by potrace 1.10, written by Peter Selinger 2001-2011
</metadata>
<g transform="translate(0.000000,248.000000) scale(0.100000,-0.100000)"
fill="#000000" stroke="none">
<path d="M580 1594 c-41 -8 -144 -28 -228 -44 -85 -17 -170 -30 -191 -30 -73
0 -109 -61 -56 -96 22 -14 35 -15 112 -4 49 7 117 19 153 27 36 8 130 26 209
39 79 13 149 29 157 35 18 15 18 53 0 68 -23 19 -75 21 -156 5z"/>
</g>
</svg>
