<?xml version="1.0" standalone="no"?>
<!DOCTYPE svg PUBLIC "-//W3C//DTD SVG 20010904//EN"
 "http://www.w3.org/TR/2001/REC-SVG-20010904/DTD/svg10.dtd">
<svg version="1.0" xmlns="http://www.w3.org/2000/svg"
 width="248.000000pt" height="248.000000pt" viewBox="0 0 248.000000 248.000000"
 preserveAspectRatio="xMidYMid meet">
<metadata>
Created by potrace 1.10, written by Peter Selinger 2001-2011
</metadata>
<g transform="translate(0.000000,248.000000) scale(0.100000,-0.100000)"
fill="#000000" stroke="none">
<path d="M779 2374 c-9 -12 -13 -64 -13 -207 l-1 -192 -95 -11 c-52 -6 -96
-10 -98 -9 -1 1 3 35 10 74 11 62 10 76 -3 99 -34 61 -99 27 -99 -52 0 -69
-94 -404 -136 -484 -28 -54 -12 -92 38 -92 21 0 33 8 48 33 25 41 74 175 90
249 11 49 17 58 39 62 33 7 204 26 207 23 1 -1 -2 -69 -6 -151 -6 -100 -12
-151 -21 -156 -15 -10 -147 -30 -192 -30 -73 0 -105 -69 -45 -98 27 -13 69
-10 211 14 l38 7 -3 -74 -3 -74 -55 -12 c-30 -6 -87 -12 -127 -12 -153 -2
-155 -8 -146 -336 4 -147 11 -254 17 -268 8 -15 21 -22 41 -22 53 0 57 22 50
281 l-6 231 68 6 c37 4 88 10 112 16 l43 9 -6 -417 c-4 -229 -9 -438 -12 -464
-10 -85 30 -136 77 -98 27 21 38 110 39 296 0 77 3 265 7 417 l6 277 66 10
c36 5 98 12 138 15 l72 5 -4 -102 c-2 -56 -7 -153 -11 -215 l-6 -112 -49 45
c-26 25 -52 45 -58 45 -39 0 -68 -39 -51 -69 5 -11 41 -52 78 -90 59 -62 73
-71 103 -71 19 0 43 6 52 13 24 17 35 95 42 282 3 88 7 192 10 230 11 141 -9
159 -167 145 -59 -5 -129 -12 -157 -16 l-51 -7 0 77 c0 66 2 76 18 76 65 2
245 30 258 40 24 21 13 63 -19 78 -24 11 -47 12 -129 2 -55 -6 -106 -14 -114
-17 -12 -4 -13 17 -8 133 7 191 4 182 67 188 28 3 78 8 110 12 65 6 100 31 95
67 -5 35 -43 45 -132 36 -44 -4 -89 -10 -101 -13 -22 -6 -22 -4 -28 170 -4
137 -9 180 -21 199 -19 29 -57 33 -77 9z"/>
<path d="M2036 2288 c-14 -20 -16 -94 -17 -598 0 -317 -5 -600 -10 -630 -5
-30 -12 -217 -15 -415 -4 -198 -7 -361 -9 -363 -4 -5 -77 40 -115 70 -54 43
-110 34 -110 -18 0 -25 81 -99 140 -129 19 -10 50 -31 68 -47 25 -21 42 -28
65 -26 60 6 61 15 69 488 4 234 11 450 17 480 5 31 10 295 10 610 1 605 1 600
-54 600 -13 0 -31 -10 -39 -22z"/>
<path d="M1456 1988 c-11 -18 -16 -102 -25 -393 -11 -409 -10 -420 44 -420 51
0 54 17 66 419 9 331 9 370 -5 392 -21 31 -61 32 -80 2z"/>
</g>
</svg>
