<?xml version="1.0" standalone="no"?>
<!DOCTYPE svg PUBLIC "-//W3C//DTD SVG 20010904//EN"
 "http://www.w3.org/TR/2001/REC-SVG-20010904/DTD/svg10.dtd">
<svg version="1.0" xmlns="http://www.w3.org/2000/svg"
 width="248.000000pt" height="248.000000pt" viewBox="0 0 248.000000 248.000000"
 preserveAspectRatio="xMidYMid meet">
<metadata>
Created by potrace 1.10, written by Peter Selinger 2001-2011
</metadata>
<g transform="translate(0.000000,248.000000) scale(0.100000,-0.100000)"
fill="#000000" stroke="none">
<path d="M1900 1860 c-177 -40 -1088 -144 -1388 -159 -115 -6 -188 -14 -197
-21 -19 -16 -19 -54 -1 -69 25 -21 448 3 846 49 682 77 859 105 895 140 18 19
19 22 5 48 -20 34 -48 36 -160 12z"/>
<path d="M1155 1285 c-60 -13 -155 -29 -210 -35 -55 -6 -125 -15 -155 -20 -94
-16 -319 -40 -369 -40 -26 0 -52 -5 -59 -12 -15 -15 -15 -51 0 -66 15 -15 170
-16 283 -2 320 38 404 50 535 76 74 14 143 30 152 35 23 12 31 44 18 69 -14
26 -51 25 -195 -5z"/>
</g>
</svg>
