<?xml version="1.0" standalone="no"?>
<!DOCTYPE svg PUBLIC "-//W3C//DTD SVG 20010904//EN"
 "http://www.w3.org/TR/2001/REC-SVG-20010904/DTD/svg10.dtd">
<svg version="1.0" xmlns="http://www.w3.org/2000/svg"
 width="248.000000pt" height="248.000000pt" viewBox="0 0 248.000000 248.000000"
 preserveAspectRatio="xMidYMid meet">
<metadata>
Created by potrace 1.10, written by Peter Selinger 2001-2011
</metadata>
<g transform="translate(0.000000,248.000000) scale(0.100000,-0.100000)"
fill="#000000" stroke="none">
<path d="M1156 2398 c-12 -17 -16 -48 -16 -129 0 -122 2 -119 -88 -119 -31 0
-91 -5 -132 -11 -187 -25 -336 -41 -473 -53 -191 -16 -183 -9 -189 -178 -5
-140 2 -168 47 -168 37 0 53 35 61 135 4 50 12 93 18 97 6 4 33 8 60 8 28 0
104 7 170 15 267 34 367 45 501 55 77 6 200 18 274 26 73 8 273 18 444 21
l310 6 -23 -31 c-12 -16 -51 -54 -86 -83 -69 -57 -81 -77 -64 -109 15 -29 59
-25 106 9 47 33 158 146 185 187 41 63 12 118 -70 130 -72 11 -623 -4 -756
-21 -65 -8 -134 -15 -152 -15 l-33 0 0 98 c0 58 -5 107 -13 122 -17 34 -60 39
-81 8z"/>
<path d="M965 1910 c-22 -5 -89 -12 -150 -16 -67 -4 -119 -12 -133 -21 -12 -7
-33 -37 -46 -66 -26 -59 -172 -210 -269 -278 -61 -43 -72 -72 -41 -103 19 -20
37 -20 74 -1 31 16 47 12 90 -22 8 -6 40 -21 70 -32 30 -12 66 -30 80 -41 l25
-20 -52 -49 c-29 -27 -84 -70 -123 -96 -60 -40 -70 -51 -70 -76 0 -41 34 -56
83 -36 103 44 310 246 477 468 75 100 105 155 139 256 25 73 26 106 7 122 -19
16 -111 22 -161 11z m46 -127 c-20 -69 -105 -208 -127 -208 -5 0 -52 22 -105
49 l-96 48 28 52 28 51 118 16 c172 24 163 24 154 -8z m-294 -244 c56 -28 103
-54 103 -58 0 -4 -18 -24 -39 -45 l-40 -39 -98 48 c-135 67 -131 61 -86 107
20 21 41 38 47 38 5 0 56 -23 113 -51z"/>
<path d="M1610 1890 c-30 -5 -107 -14 -170 -20 -126 -13 -160 -27 -160 -65 0
-44 37 -58 122 -46 129 18 288 34 293 29 8 -7 -112 -186 -173 -258 -30 -36
-71 -79 -91 -96 -64 -54 -224 -157 -298 -191 -65 -30 -73 -37 -73 -61 0 -89
105 -60 326 91 132 90 239 203 337 355 82 126 105 188 85 228 -20 42 -75 51
-198 34z"/>
</g>
</svg>
