<?xml version="1.0" standalone="no"?>
<!DOCTYPE svg PUBLIC "-//W3C//DTD SVG 20010904//EN"
 "http://www.w3.org/TR/2001/REC-SVG-20010904/DTD/svg10.dtd">
<svg version="1.0" xmlns="http://www.w3.org/2000/svg"
 width="248.000000pt" height="248.000000pt" viewBox="0 0 248.000000 248.000000"
 preserveAspectRatio="xMidYMid meet">
<metadata>
Created by potrace 1.10, written by Peter Selinger 2001-2011
</metadata>
<g transform="translate(0.000000,248.000000) scale(0.100000,-0.100000)"
fill="#000000" stroke="none">
<path d="M566 2228 c-14 -20 -16 -76 -16 -468 0 -820 -32 -1085 -166 -1365
-40 -85 -101 -182 -143 -230 -34 -40 -39 -66 -15 -89 47 -48 111 18 235 239
45 81 115 284 134 388 10 54 21 97 25 97 4 0 20 -33 35 -72 43 -109 137 -279
167 -301 25 -19 28 -19 52 -3 30 19 35 66 10 87 -9 7 -32 45 -50 82 -18 38
-37 75 -42 81 -5 6 -15 27 -22 46 -14 37 -105 244 -120 271 -4 8 -4 92 1 185
13 277 11 1014 -4 1044 -17 34 -60 39 -81 8z"/>
<path d="M2124 1950 c-23 -5 -120 -16 -215 -25 -96 -8 -205 -22 -244 -29 -172
-35 -244 -47 -331 -55 -52 -4 -100 -14 -109 -21 -23 -19 -18 -57 10 -76 30
-20 99 -15 278 18 62 11 130 23 153 25 l41 5 6 -288 c10 -434 9 -1224 -2
-1224 -6 0 -13 5 -16 10 -15 24 -118 81 -143 78 -63 -8 -54 -69 19 -117 28
-18 76 -55 105 -82 79 -72 125 -65 143 21 12 57 14 937 2 1360 -4 140 -6 256
-5 258 1 2 47 8 101 12 54 5 148 17 208 26 61 9 128 19 150 21 22 3 46 10 53
15 15 13 16 50 0 66 -14 14 -139 15 -204 2z"/>
<path d="M961 1858 c-49 -71 -102 -136 -188 -233 -83 -93 -98 -126 -71 -153
27 -27 59 -13 125 56 36 37 77 83 91 102 14 19 43 54 63 77 89 98 104 193 32
193 -16 0 -32 -13 -52 -42z"/>
<path d="M204 1555 c-15 -23 -16 -47 -10 -207 4 -99 11 -191 16 -203 17 -44
74 -43 90 1 15 37 0 385 -16 412 -20 30 -59 29 -80 -3z"/>
</g>
</svg>
