<?xml version="1.0" standalone="no"?>
<!DOCTYPE svg PUBLIC "-//W3C//DTD SVG 20010904//EN"
 "http://www.w3.org/TR/2001/REC-SVG-20010904/DTD/svg10.dtd">
<svg version="1.0" xmlns="http://www.w3.org/2000/svg"
 width="248.000000pt" height="248.000000pt" viewBox="0 0 248.000000 248.000000"
 preserveAspectRatio="xMidYMid meet">
<metadata>
Created by potrace 1.10, written by Peter Selinger 2001-2011
</metadata>
<g transform="translate(0.000000,248.000000) scale(0.100000,-0.100000)"
fill="#000000" stroke="none">
<path d="M1156 2398 c-12 -17 -16 -48 -16 -129 0 -122 2 -119 -88 -119 -31 0
-91 -5 -132 -11 -187 -25 -336 -41 -473 -53 -191 -16 -183 -9 -189 -178 -5
-140 2 -168 47 -168 37 0 53 35 61 135 4 50 12 93 18 97 6 4 33 8 60 8 28 0
104 7 170 15 267 34 367 45 501 55 77 6 200 18 274 26 73 8 273 18 444 21
l310 6 -23 -31 c-12 -16 -51 -54 -86 -83 -69 -57 -81 -77 -64 -109 15 -29 59
-25 106 9 47 33 158 146 185 187 41 63 12 118 -70 130 -72 11 -623 -4 -756
-21 -65 -8 -134 -15 -152 -15 l-33 0 0 98 c0 58 -5 107 -13 122 -17 34 -60 39
-81 8z"/>
<path d="M965 1910 c-22 -5 -89 -12 -150 -16 -67 -4 -119 -12 -133 -21 -12 -7
-33 -37 -46 -66 -26 -59 -172 -210 -269 -278 -61 -43 -72 -72 -41 -103 19 -20
37 -20 74 -1 31 16 47 12 90 -22 8 -6 40 -21 70 -32 30 -12 66 -30 80 -41 l25
-20 -52 -49 c-29 -27 -84 -70 -123 -96 -60 -40 -70 -51 -70 -76 0 -41 34 -56
83 -36 103 44 310 246 477 468 75 100 105 155 139 256 25 73 26 106 7 122 -19
16 -111 22 -161 11z m46 -127 c-20 -69 -105 -208 -127 -208 -5 0 -52 22 -105
49 l-96 48 28 52 28 51 118 16 c172 24 163 24 154 -8z m-294 -244 c56 -28 103
-54 103 -58 0 -4 -18 -24 -39 -45 l-40 -39 -98 48 c-135 67 -131 61 -86 107
20 21 41 38 47 38 5 0 56 -23 113 -51z"/>
<path d="M1610 1890 c-30 -5 -107 -14 -170 -20 -126 -13 -160 -27 -160 -65 0
-44 37 -58 122 -46 130 18 288 34 293 29 5 -5 -127 -212 -142 -221 -4 -3 -55
17 -112 44 -57 27 -114 49 -125 49 -48 0 -62 -56 -23 -87 13 -10 58 -34 100
-53 42 -19 76 -39 76 -45 1 -25 -226 -181 -336 -232 -65 -30 -73 -37 -73 -61
0 -60 43 -67 140 -21 88 41 263 160 326 221 l51 49 59 -24 c32 -14 82 -36 109
-50 82 -41 175 -76 270 -102 134 -37 175 -32 175 22 0 31 -28 46 -156 81 -83
23 -362 137 -380 155 -2 2 28 51 66 110 85 131 108 193 88 233 -20 42 -75 51
-198 34z"/>
<path d="M1535 1134 c-123 -24 -432 -64 -543 -70 -65 -4 -116 -12 -129 -20
-31 -20 -30 -59 2 -80 23 -15 40 -16 143 -7 216 19 591 76 650 99 26 10 32 19
32 41 0 56 -28 62 -155 37z"/>
<path d="M1775 834 c-16 -2 -73 -8 -125 -14 -52 -6 -189 -15 -305 -20 -115 -6
-221 -12 -235 -15 -41 -8 -263 -24 -435 -31 -179 -7 -208 -16 -203 -62 6 -51
34 -55 271 -42 117 6 241 16 277 21 36 5 86 9 111 9 44 0 47 -2 53 -31 3 -17
6 -126 6 -241 l0 -210 -35 31 c-42 36 -58 38 -85 11 -26 -26 -25 -42 6 -80 64
-75 152 -110 188 -74 28 27 31 63 31 335 l0 266 165 12 c91 7 201 17 245 21
44 5 112 9 150 9 88 2 120 16 120 56 0 21 -7 33 -25 42 -23 12 -102 15 -175 7z"/>
<path d="M776 538 c-9 -12 -16 -29 -16 -36 0 -8 -56 -70 -125 -138 -121 -121
-138 -147 -113 -172 38 -38 107 4 242 150 97 105 119 151 91 194 -20 31 -59
31 -79 2z"/>
<path d="M1562 498 c-34 -34 -3 -77 101 -139 306 -182 333 -193 357 -149 19
36 1 57 -98 116 -53 31 -143 86 -200 121 -103 63 -137 74 -160 51z"/>
</g>
</svg>
