<?xml version="1.0" standalone="no"?>
<!DOCTYPE svg PUBLIC "-//W3C//DTD SVG 20010904//EN"
 "http://www.w3.org/TR/2001/REC-SVG-20010904/DTD/svg10.dtd">
<svg version="1.0" xmlns="http://www.w3.org/2000/svg"
 width="248.000000pt" height="248.000000pt" viewBox="0 0 248.000000 248.000000"
 preserveAspectRatio="xMidYMid meet">
<metadata>
Created by potrace 1.10, written by Peter Selinger 2001-2011
</metadata>
<g transform="translate(0.000000,248.000000) scale(0.100000,-0.100000)"
fill="#000000" stroke="none">
<path d="M1351 2386 c-8 -9 -10 -46 -6 -112 10 -180 15 -235 35 -357 11 -66
18 -123 15 -125 -10 -10 -696 -81 -873 -90 -123 -7 -198 -15 -207 -22 -19 -16
-19 -54 -1 -69 24 -20 447 3 800 44 317 36 325 36 326 -2 0 -28 96 -340 142
-463 118 -316 321 -630 585 -905 93 -97 115 -115 140 -115 17 0 35 6 41 13 13
15 32 193 32 295 0 83 -9 102 -46 102 -33 0 -42 -18 -48 -105 -4 -44 -9 -95
-12 -114 l-5 -33 -87 92 c-158 169 -316 397 -419 605 -76 153 -181 453 -222
637 -10 43 -18 40 139 58 52 7 153 23 225 36 148 28 177 44 157 89 -7 14 -19
28 -28 32 -8 3 -75 -6 -147 -20 -106 -21 -345 -57 -378 -57 -14 0 -58 293 -65
440 -4 72 -12 123 -20 138 -16 25 -55 30 -73 8z"/>
<path d="M1155 1285 c-60 -13 -155 -29 -210 -35 -55 -6 -125 -15 -155 -20 -94
-16 -319 -40 -369 -40 -26 0 -52 -5 -59 -12 -15 -15 -15 -51 0 -66 15 -15 176
-16 287 -1 55 8 86 8 93 1 14 -14 14 -367 0 -418 -11 -37 -17 -43 -59 -57 -27
-9 -97 -32 -158 -52 -272 -91 -285 -98 -270 -146 8 -25 50 -42 74 -30 9 5 122
45 251 89 129 44 309 109 400 144 91 35 184 70 208 77 55 16 75 50 46 82 -26
29 -67 22 -242 -45 -128 -49 -165 -55 -147 -26 8 13 8 321 -1 343 -3 9 -3 28
0 41 5 21 13 24 105 34 113 13 357 60 383 73 23 12 31 44 18 69 -14 26 -51 25
-195 -5z"/>
</g>
</svg>
