<?xml version="1.0" standalone="no"?>
<!DOCTYPE svg PUBLIC "-//W3C//DTD SVG 20010904//EN"
 "http://www.w3.org/TR/2001/REC-SVG-20010904/DTD/svg10.dtd">
<svg version="1.0" xmlns="http://www.w3.org/2000/svg"
 width="248.000000pt" height="248.000000pt" viewBox="0 0 248.000000 248.000000"
 preserveAspectRatio="xMidYMid meet">
<metadata>
Created by potrace 1.10, written by Peter Selinger 2001-2011
</metadata>
<g transform="translate(0.000000,248.000000) scale(0.100000,-0.100000)"
fill="#000000" stroke="none">
<path d="M566 2228 c-14 -20 -16 -76 -16 -468 0 -525 -12 -771 -45 -970 -42
-247 -144 -488 -264 -625 -34 -40 -39 -66 -15 -89 47 -48 111 18 235 239 72
130 129 328 169 597 30 196 43 1256 17 1308 -17 34 -60 39 -81 8z"/>
<path d="M961 1858 c-49 -71 -102 -136 -188 -233 -83 -93 -98 -126 -71 -153
27 -27 59 -13 125 56 36 37 77 83 91 102 14 19 43 54 63 77 89 98 104 193 32
193 -16 0 -32 -13 -52 -42z"/>
<path d="M204 1555 c-15 -23 -16 -47 -10 -207 4 -99 11 -191 16 -203 17 -44
74 -43 90 1 15 37 0 385 -16 412 -20 30 -59 29 -80 -3z"/>
</g>
</svg>
