<?xml version="1.0" standalone="no"?>
<!DOCTYPE svg PUBLIC "-//W3C//DTD SVG 20010904//EN"
 "http://www.w3.org/TR/2001/REC-SVG-20010904/DTD/svg10.dtd">
<svg version="1.0" xmlns="http://www.w3.org/2000/svg"
 width="248.000000pt" height="248.000000pt" viewBox="0 0 248.000000 248.000000"
 preserveAspectRatio="xMidYMid meet">
<metadata>
Created by potrace 1.10, written by Peter Selinger 2001-2011
</metadata>
<g transform="translate(0.000000,248.000000) scale(0.100000,-0.100000)"
fill="#000000" stroke="none">
<path d="M572 2278 c-7 -7 -12 -23 -12 -37 0 -27 36 -65 161 -165 93 -75 131
-85 151 -41 15 33 -6 63 -91 127 -35 26 -83 65 -107 88 -44 41 -80 50 -102 28z"/>
<path d="M1855 2253 c-16 -2 -97 -17 -180 -33 -82 -16 -171 -32 -197 -35 -62
-9 -83 -32 -77 -88 2 -23 4 -103 4 -177 -1 -177 -34 -310 -121 -484 -37 -77
-29 -126 21 -126 26 0 44 19 73 76 92 183 148 426 140 613 l-3 84 140 27 c77
15 159 30 183 34 l43 6 -5 -112 c-16 -325 -16 -414 -2 -480 22 -101 36 -121
107 -153 60 -27 67 -28 173 -22 119 7 216 26 242 48 28 23 35 58 24 121 -6 33
-16 71 -22 84 -16 34 -54 42 -81 16 -19 -20 -20 -25 -8 -77 7 -31 10 -59 7
-62 -22 -22 -257 -31 -300 -12 -44 21 -49 71 -36 420 10 293 10 315 -7 326
-16 13 -56 14 -118 6z"/>
<path d="M1115 1873 c-16 -2 -77 -13 -135 -24 -274 -52 -703 -119 -765 -119
-49 0 -80 -21 -80 -55 0 -23 7 -33 29 -44 25 -12 46 -11 155 4 119 16 414 64
723 118 174 31 208 51 178 108 -11 19 -33 22 -105 12z"/>
<path d="M803 1485 c-128 -24 -377 -87 -401 -102 -31 -19 -27 -63 8 -80 21
-10 50 -5 184 28 88 21 200 46 250 55 102 17 136 34 136 67 0 50 -40 57 -177
32z"/>
<path d="M740 1139 c-74 -17 -175 -38 -223 -49 -49 -10 -95 -24 -103 -31 -23
-19 -17 -57 12 -75 24 -16 31 -16 122 5 53 13 159 36 235 51 76 16 145 34 153
41 21 17 17 56 -8 73 -28 20 -26 20 -188 -15z"/>
<path d="M755 858 c-66 -10 -149 -26 -185 -33 -36 -8 -82 -17 -103 -21 -49 -7
-100 -29 -117 -49 -27 -33 31 -578 66 -616 12 -14 36 -16 162 -12 188 4 338
21 353 39 6 8 18 60 25 116 8 57 22 146 30 198 9 52 18 143 21 201 7 130 -4
173 -49 188 -40 14 -59 13 -203 -11z m145 -165 c0 -43 -7 -121 -15 -173 -8
-52 -20 -133 -26 -180 -6 -47 -14 -88 -17 -92 -4 -4 -84 -8 -177 -8 l-170 -2
-7 34 c-9 39 -38 338 -38 388 l0 36 68 13 c114 22 336 59 360 60 21 1 22 -2
22 -76z"/>
</g>
</svg>
