<?xml version="1.0" standalone="no"?>
<!DOCTYPE svg PUBLIC "-//W3C//DTD SVG 20010904//EN"
 "http://www.w3.org/TR/2001/REC-SVG-20010904/DTD/svg10.dtd">
<svg version="1.0" xmlns="http://www.w3.org/2000/svg"
 width="248.000000pt" height="248.000000pt" viewBox="0 0 248.000000 248.000000"
 preserveAspectRatio="xMidYMid meet">
<metadata>
Created by potrace 1.10, written by Peter Selinger 2001-2011
</metadata>
<g transform="translate(0.000000,248.000000) scale(0.100000,-0.100000)"
fill="#000000" stroke="none">
<path d="M1249 2374 c-10 -13 -14 -47 -13 -135 l1 -117 -56 -11 c-31 -6 -123
-17 -206 -26 -282 -28 -353 -40 -376 -61 -18 -16 -19 -28 -13 -188 17 -452
-114 -1268 -242 -1504 -25 -46 -58 -102 -74 -124 -37 -50 -38 -82 -6 -103 34
-22 54 -9 104 64 86 126 130 238 196 506 71 285 145 940 132 1157 -5 73 -4
108 4 113 10 6 85 15 379 45 58 6 107 13 110 15 11 6 191 35 386 61 105 14
219 29 255 34 36 5 114 16 174 24 120 16 143 28 132 71 -13 52 -27 52 -381 0
-262 -40 -400 -54 -407 -42 -4 7 -8 50 -8 97 0 48 -6 96 -13 110 -15 31 -58
38 -78 14z"/>
</g>
</svg>
