<?xml version="1.0" standalone="no"?>
<!DOCTYPE svg PUBLIC "-//W3C//DTD SVG 20010904//EN"
 "http://www.w3.org/TR/2001/REC-SVG-20010904/DTD/svg10.dtd">
<svg version="1.0" xmlns="http://www.w3.org/2000/svg"
 width="248.000000pt" height="248.000000pt" viewBox="0 0 248.000000 248.000000"
 preserveAspectRatio="xMidYMid meet">
<metadata>
Created by potrace 1.10, written by Peter Selinger 2001-2011
</metadata>
<g transform="translate(0.000000,248.000000) scale(0.100000,-0.100000)"
fill="#000000" stroke="none">
<path d="M572 2278 c-7 -7 -12 -23 -12 -37 0 -27 36 -65 161 -165 93 -75 131
-85 151 -41 15 33 -6 63 -91 127 -35 26 -83 65 -107 88 -44 41 -80 50 -102 28z"/>
<path d="M1115 1873 c-16 -2 -77 -13 -135 -24 -274 -52 -703 -119 -765 -119
-49 0 -80 -21 -80 -55 0 -23 7 -33 29 -44 25 -12 46 -11 155 4 119 16 414 64
723 118 174 31 208 51 178 108 -11 19 -33 22 -105 12z"/>
<path d="M803 1485 c-128 -24 -377 -87 -401 -102 -31 -19 -27 -63 8 -80 21
-10 50 -5 184 28 88 21 200 46 250 55 102 17 136 34 136 67 0 50 -40 57 -177
32z"/>
<path d="M740 1139 c-74 -17 -175 -38 -223 -49 -49 -10 -95 -24 -103 -31 -23
-19 -17 -57 12 -75 24 -16 31 -16 122 5 53 13 159 36 235 51 76 16 145 34 153
41 21 17 17 56 -8 73 -28 20 -26 20 -188 -15z"/>
<path d="M755 858 c-66 -10 -149 -26 -185 -33 -36 -8 -82 -17 -103 -21 -49 -7
-100 -29 -117 -49 -16 -20 1 -285 31 -475 22 -139 37 -168 84 -156 36 9 40 28
26 120 -15 97 -40 355 -41 412 l0 40 63 12 c94 18 360 62 375 62 17 0 16 -130
-3 -250 -8 -52 -22 -148 -31 -213 -15 -112 -15 -120 2 -138 20 -23 57 -25 74
-4 7 8 19 61 26 117 8 57 22 146 30 198 9 52 18 143 21 201 7 130 -4 173 -49
188 -40 14 -59 13 -203 -11z"/>
</g>
</svg>
