<?xml version="1.0" standalone="no"?>
<!DOCTYPE svg PUBLIC "-//W3C//DTD SVG 20010904//EN"
 "http://www.w3.org/TR/2001/REC-SVG-20010904/DTD/svg10.dtd">
<svg version="1.0" xmlns="http://www.w3.org/2000/svg"
 width="248.000000pt" height="248.000000pt" viewBox="0 0 248.000000 248.000000"
 preserveAspectRatio="xMidYMid meet">
<metadata>
Created by potrace 1.10, written by Peter Selinger 2001-2011
</metadata>
<g transform="translate(0.000000,248.000000) scale(0.100000,-0.100000)"
fill="#000000" stroke="none">
<path d="M1143 2398 c-4 -7 -8 -72 -8 -145 0 -75 -4 -136 -10 -142 -16 -16
-214 -31 -410 -31 -191 0 -205 -3 -205 -46 0 -36 21 -43 140 -46 l114 -3 12
-75 c7 -41 15 -119 20 -172 6 -81 4 -98 -7 -98 -8 -1 -63 -7 -124 -15 -60 -7
-166 -21 -234 -29 -133 -17 -171 -35 -171 -82 0 -38 24 -49 83 -35 29 6 86 16
127 21 41 5 145 18 232 29 415 55 921 83 1243 71 215 -8 220 -8 238 12 21 25
21 31 0 57 -18 21 -27 22 -343 29 -218 5 -324 10 -323 18 1 5 11 56 22 113 12
57 21 128 21 157 0 38 4 56 14 60 8 3 82 11 164 18 157 12 182 21 182 61 0 44
-17 47 -187 36 -154 -11 -390 -34 -465 -47 l-38 -6 1 127 c0 99 -3 132 -16
151 -17 26 -58 33 -72 12z m312 -469 c-9 -52 -24 -125 -33 -164 l-17 -70 -85
-6 c-110 -8 -245 -19 -340 -29 -44 -4 -78 -3 -81 3 -5 7 -13 111 -22 282 l-2
40 140 8 c77 4 208 15 290 25 83 10 154 15 158 12 5 -4 1 -50 -8 -101z"/>
<path d="M1055 1393 c-292 -35 -428 -55 -442 -66 -17 -13 -16 -82 2 -160 8
-35 24 -142 35 -238 22 -184 34 -219 74 -219 44 0 51 22 38 119 -17 127 -16
169 6 175 9 2 55 8 102 11 47 4 92 9 100 10 8 1 71 6 140 10 69 4 141 9 160
10 109 9 349 17 358 11 7 -4 3 -35 -14 -94 -36 -130 -32 -172 16 -172 32 0 49
17 60 62 5 18 20 77 34 132 30 115 68 358 60 381 -4 9 -15 20 -25 25 -16 9
-632 12 -704 3z m617 -142 c-7 -103 1 -99 -170 -100 -216 -2 -506 -20 -680
-43 -46 -5 -85 -8 -87 -6 -10 9 -32 139 -25 143 10 6 117 21 285 40 77 8 154
17 170 19 17 2 138 3 270 2 l240 -1 -3 -54z"/>
</g>
</svg>
