<?xml version="1.0" standalone="no"?>
<!DOCTYPE svg PUBLIC "-//W3C//DTD SVG 20010904//EN"
 "http://www.w3.org/TR/2001/REC-SVG-20010904/DTD/svg10.dtd">
<svg version="1.0" xmlns="http://www.w3.org/2000/svg"
 width="248.000000pt" height="248.000000pt" viewBox="0 0 248.000000 248.000000"
 preserveAspectRatio="xMidYMid meet">
<metadata>
Created by potrace 1.10, written by Peter Selinger 2001-2011
</metadata>
<g transform="translate(0.000000,248.000000) scale(0.100000,-0.100000)"
fill="#000000" stroke="none">
<path d="M1143 2398 c-4 -7 -8 -72 -8 -145 0 -75 -4 -136 -10 -142 -16 -16
-214 -31 -410 -31 -191 0 -205 -3 -205 -46 0 -36 21 -43 140 -46 l114 -3 12
-75 c7 -41 15 -119 20 -172 6 -81 4 -98 -7 -98 -8 -1 -63 -7 -124 -15 -60 -7
-166 -21 -234 -29 -133 -17 -171 -35 -171 -82 0 -38 24 -49 83 -35 29 6 86 16
127 21 41 5 145 18 232 29 415 55 921 83 1243 71 215 -8 220 -8 238 12 21 25
21 31 0 57 -18 21 -27 22 -343 29 -218 5 -324 10 -323 18 1 5 11 56 22 113 12
57 21 128 21 157 0 38 4 56 14 60 8 3 82 11 164 18 157 12 182 21 182 61 0 44
-17 47 -187 36 -154 -11 -390 -34 -465 -47 l-38 -6 1 127 c0 99 -3 132 -16
151 -17 26 -58 33 -72 12z m312 -469 c-9 -52 -24 -125 -33 -164 l-17 -70 -85
-6 c-110 -8 -245 -19 -340 -29 -44 -4 -78 -3 -81 3 -5 7 -13 111 -22 282 l-2
40 140 8 c77 4 208 15 290 25 83 10 154 15 158 12 5 -4 1 -50 -8 -101z"/>
<path d="M1055 1393 c-292 -35 -428 -55 -442 -66 -17 -13 -16 -82 2 -160 8
-35 24 -142 35 -238 13 -106 26 -182 35 -196 19 -28 52 -30 79 -4 22 20 70 23
556 36 329 9 353 14 366 73 3 15 12 47 20 72 37 120 89 425 78 455 -4 9 -15
20 -25 25 -16 9 -632 12 -704 3z m617 -142 c-7 -103 1 -99 -170 -100 -216 -2
-506 -20 -680 -43 -46 -5 -85 -8 -87 -6 -10 9 -32 139 -25 143 10 6 117 21
285 40 77 8 154 17 170 19 17 2 138 3 270 2 l240 -1 -3 -54z m-40 -197 c8 -8
-32 -156 -46 -171 -8 -9 -94 -16 -301 -23 -160 -5 -341 -12 -402 -16 l-113 -6
-10 26 c-5 15 -10 52 -10 81 0 66 -19 60 230 80 36 3 90 7 120 10 30 3 118 8
195 11 77 4 142 8 144 10 7 6 187 5 193 -2z"/>
<path d="M1962 778 c-19 -19 -14 -50 13 -78 14 -14 51 -64 82 -111 46 -66 64
-85 85 -87 32 -4 62 34 52 64 -11 31 -86 134 -130 181 -42 44 -78 55 -102 31z"/>
<path d="M1432 668 c-18 -18 -15 -38 21 -121 51 -116 82 -141 122 -96 17 18
17 24 6 52 -7 18 -20 50 -28 72 -31 85 -86 128 -121 93z"/>
<path d="M752 588 c-34 -34 16 -162 103 -268 161 -195 311 -249 700 -250 232
0 412 30 468 78 54 47 -17 252 -88 252 -49 0 -58 -44 -20 -105 30 -49 31 -71
5 -85 -32 -17 -276 -50 -370 -50 -123 1 -344 33 -415 61 -46 19 -80 43 -147
109 -73 72 -93 100 -130 175 -36 75 -47 91 -68 93 -14 2 -31 -3 -38 -10z"/>
<path d="M340 556 c-6 -8 -17 -37 -25 -63 -7 -26 -26 -93 -43 -148 -16 -55
-32 -113 -35 -129 -10 -59 22 -93 70 -75 16 6 24 22 33 66 7 32 28 108 46 168
36 117 42 163 22 183 -16 16 -53 15 -68 -2z"/>
</g>
</svg>
