<?xml version="1.0" standalone="no"?>
<!DOCTYPE svg PUBLIC "-//W3C//DTD SVG 20010904//EN"
 "http://www.w3.org/TR/2001/REC-SVG-20010904/DTD/svg10.dtd">
<svg version="1.0" xmlns="http://www.w3.org/2000/svg"
 width="248.000000pt" height="248.000000pt" viewBox="0 0 248.000000 248.000000"
 preserveAspectRatio="xMidYMid meet">
<metadata>
Created by potrace 1.10, written by Peter Selinger 2001-2011
</metadata>
<g transform="translate(0.000000,248.000000) scale(0.100000,-0.100000)"
fill="#000000" stroke="none">
<path d="M1462 2308 c-8 -8 -12 -53 -12 -137 0 -131 -18 -282 -47 -407 -16
-71 -18 -73 -52 -79 -20 -4 -138 -12 -262 -19 -163 -8 -231 -15 -242 -25 -25
-20 -21 -58 8 -77 22 -14 47 -15 192 -9 93 4 199 11 237 16 38 5 71 7 74 5 5
-6 -68 -276 -102 -371 -13 -38 -41 -115 -61 -170 -20 -55 -45 -127 -56 -160
-54 -160 -198 -403 -297 -501 -34 -34 -62 -70 -62 -81 0 -26 19 -43 48 -43 99
0 320 330 420 625 17 50 57 164 89 255 33 91 77 231 98 312 46 170 23 152 217
172 450 49 491 56 514 91 17 27 12 60 -12 69 -9 3 -100 -5 -202 -18 -103 -14
-236 -30 -297 -36 -60 -6 -121 -14 -134 -17 -22 -5 -23 -3 -18 23 43 226 49
269 50 405 2 132 0 149 -17 168 -21 23 -56 27 -74 9z"/>
<path d="M736 2258 c-9 -12 -16 -29 -16 -37 0 -19 -37 -73 -123 -181 -151
-191 -396 -472 -493 -568 -48 -47 -61 -80 -44 -111 27 -51 70 -21 253 179 l78
85 -5 -280 c-3 -154 -8 -469 -11 -700 -7 -464 -6 -470 50 -470 22 0 33 7 41
25 13 28 39 1435 28 1502 -7 40 10 71 78 143 15 17 59 68 96 115 143 178 178
249 147 296 -20 31 -59 31 -79 2z"/>
</g>
</svg>
