<?xml version="1.0" standalone="no"?>
<!DOCTYPE svg PUBLIC "-//W3C//DTD SVG 20010904//EN"
 "http://www.w3.org/TR/2001/REC-SVG-20010904/DTD/svg10.dtd">
<svg version="1.0" xmlns="http://www.w3.org/2000/svg"
 width="248.000000pt" height="248.000000pt" viewBox="0 0 248.000000 248.000000"
 preserveAspectRatio="xMidYMid meet">
<metadata>
Created by potrace 1.10, written by Peter Selinger 2001-2011
</metadata>
<g transform="translate(0.000000,248.000000) scale(0.100000,-0.100000)"
fill="#000000" stroke="none">
<path d="M519 2333 c-11 -12 -15 -73 -17 -268 l-3 -253 -87 -22 c-48 -12 -118
-24 -157 -27 -38 -3 -80 -12 -92 -19 -31 -20 -30 -59 2 -80 28 -19 115 -14
216 12 31 8 60 14 63 14 15 0 -36 -247 -89 -425 -13 -44 -35 -125 -48 -180
-28 -114 -74 -250 -117 -345 -91 -201 -103 -243 -78 -268 7 -7 22 -12 33 -12
35 0 40 8 139 235 52 120 96 249 123 360 64 263 59 284 64 -315 5 -583 6 -592
60 -598 55 -6 54 -19 50 603 -1 314 0 602 4 638 l7 67 68 -122 c80 -144 122
-198 154 -198 46 0 62 56 28 101 -55 72 -198 338 -227 421 -25 74 -26 73 93
102 59 15 119 32 135 38 42 16 50 80 11 95 -13 5 -70 -6 -221 -44 l-23 -5 0
234 c0 195 -3 237 -16 256 -18 26 -56 29 -75 5z"/>
<path d="M2045 1863 c-18 -4 -196 -37 -545 -103 -163 -31 -274 -48 -415 -66
-155 -19 -180 -28 -180 -69 0 -23 7 -33 29 -44 39 -18 76 -13 571 75 83 15
193 35 245 46 52 10 155 30 228 43 74 13 140 29 148 36 21 17 17 56 -8 73 -22
16 -35 18 -73 9z"/>
<path d="M1331 1486 c-8 -9 -12 -47 -10 -106 1 -50 0 -92 -2 -94 -2 -2 -30 -7
-61 -10 l-58 -7 0 73 c0 91 -15 123 -55 123 -42 0 -55 -32 -55 -137 l0 -86
-52 -7 c-66 -9 -98 -28 -98 -60 0 -37 34 -55 91 -48 45 5 49 4 49 -15 0 -56
-74 -294 -107 -342 -38 -56 -27 -110 22 -110 43 0 97 88 134 220 12 41 28 98
36 126 8 28 18 72 21 98 8 53 16 59 97 71 l47 7 0 -246 c0 -280 6 -316 57
-316 16 0 34 5 41 12 9 9 12 87 12 290 0 214 3 280 13 282 6 3 32 10 56 18 52
15 68 44 44 78 -14 20 -22 22 -68 17 l-52 -5 -6 75 c-6 81 -24 113 -62 113
-13 0 -28 -6 -34 -14z"/>
</g>
</svg>
