<?xml version="1.0" standalone="no"?>
<!DOCTYPE svg PUBLIC "-//W3C//DTD SVG 20010904//EN"
 "http://www.w3.org/TR/2001/REC-SVG-20010904/DTD/svg10.dtd">
<svg version="1.0" xmlns="http://www.w3.org/2000/svg"
 width="248.000000pt" height="248.000000pt" viewBox="0 0 248.000000 248.000000"
 preserveAspectRatio="xMidYMid meet">
<metadata>
Created by potrace 1.10, written by Peter Selinger 2001-2011
</metadata>
<g transform="translate(0.000000,248.000000) scale(0.100000,-0.100000)"
fill="#000000" stroke="none">
<path d="M519 2333 c-11 -12 -15 -73 -17 -268 l-3 -253 -87 -22 c-48 -12 -118
-24 -157 -27 -38 -3 -80 -12 -92 -19 -31 -20 -30 -59 2 -80 30 -20 116 -14
239 17 43 11 80 18 82 16 2 -2 -1 -120 -7 -263 -16 -365 -8 -1218 12 -1259 16
-34 58 -45 78 -21 10 12 13 174 15 723 2 389 7 740 11 780 l8 71 106 26 c58
15 118 32 134 38 42 16 50 80 11 95 -13 5 -70 -6 -221 -44 l-23 -5 0 234 c0
195 -3 237 -16 256 -18 26 -56 29 -75 5z"/>
</g>
</svg>
