<?xml version="1.0" standalone="no"?>
<!DOCTYPE svg PUBLIC "-//W3C//DTD SVG 20010904//EN"
 "http://www.w3.org/TR/2001/REC-SVG-20010904/DTD/svg10.dtd">
<svg version="1.0" xmlns="http://www.w3.org/2000/svg"
 width="248.000000pt" height="248.000000pt" viewBox="0 0 248.000000 248.000000"
 preserveAspectRatio="xMidYMid meet">
<metadata>
Created by potrace 1.10, written by Peter Selinger 2001-2011
</metadata>
<g transform="translate(0.000000,248.000000) scale(0.100000,-0.100000)"
fill="#000000" stroke="none">
<path d="M519 2333 c-11 -12 -15 -73 -17 -268 l-3 -253 -87 -22 c-48 -12 -118
-24 -157 -27 -38 -3 -80 -12 -92 -19 -31 -20 -30 -59 2 -80 28 -19 115 -14
216 12 31 8 60 14 63 14 15 0 -36 -247 -89 -425 -13 -44 -35 -125 -48 -180
-28 -114 -74 -250 -117 -345 -91 -201 -103 -243 -78 -268 7 -7 22 -12 33 -12
35 0 40 8 139 235 52 120 96 249 123 360 64 263 59 284 64 -315 5 -583 6 -592
60 -598 55 -6 54 -19 50 603 -1 314 0 602 4 638 l7 67 68 -122 c80 -144 122
-198 154 -198 46 0 62 56 28 101 -55 72 -198 338 -227 421 -25 74 -26 73 93
102 59 15 119 32 135 38 42 16 50 80 11 95 -13 5 -70 -6 -221 -44 l-23 -5 0
234 c0 195 -3 237 -16 256 -18 26 -56 29 -75 5z"/>
</g>
</svg>
