<?xml version="1.0" standalone="no"?>
<!DOCTYPE svg PUBLIC "-//W3C//DTD SVG 20010904//EN"
 "http://www.w3.org/TR/2001/REC-SVG-20010904/DTD/svg10.dtd">
<svg version="1.0" xmlns="http://www.w3.org/2000/svg"
 width="248.000000pt" height="248.000000pt" viewBox="0 0 248.000000 248.000000"
 preserveAspectRatio="xMidYMid meet">
<metadata>
Created by potrace 1.10, written by Peter Selinger 2001-2011
</metadata>
<g transform="translate(0.000000,248.000000) scale(0.100000,-0.100000)"
fill="#000000" stroke="none">
<path d="M680 1854 c-69 -19 -150 -39 -180 -44 -30 -6 -80 -17 -110 -25 -30
-8 -89 -18 -130 -21 -41 -4 -85 -13 -97 -20 -31 -20 -30 -59 2 -80 42 -27 138
-12 510 82 77 19 152 40 168 46 30 12 46 52 30 77 -16 25 -59 22 -193 -15z"/>
</g>
</svg>
