<?xml version="1.0" standalone="no"?>
<!DOCTYPE svg PUBLIC "-//W3C//DTD SVG 20010904//EN"
 "http://www.w3.org/TR/2001/REC-SVG-20010904/DTD/svg10.dtd">
<svg version="1.0" xmlns="http://www.w3.org/2000/svg"
 width="248.000000pt" height="248.000000pt" viewBox="0 0 248.000000 248.000000"
 preserveAspectRatio="xMidYMid meet">
<metadata>
Created by potrace 1.10, written by Peter Selinger 2001-2011
</metadata>
<g transform="translate(0.000000,248.000000) scale(0.100000,-0.100000)"
fill="#000000" stroke="none">
<path d="M519 2333 c-11 -12 -15 -73 -17 -268 l-3 -253 -87 -22 c-48 -12 -118
-24 -157 -27 -38 -3 -80 -12 -92 -19 -31 -20 -30 -59 2 -80 28 -19 115 -14
216 12 31 8 60 14 63 14 15 0 -36 -247 -89 -425 -13 -44 -35 -125 -48 -180
-28 -114 -74 -250 -117 -345 -91 -201 -103 -243 -78 -268 7 -7 22 -12 33 -12
35 0 40 8 139 235 52 120 96 249 123 360 64 263 59 284 64 -315 5 -583 6 -592
60 -598 55 -6 54 -19 50 603 -1 314 0 602 4 638 l7 67 68 -122 c80 -144 122
-198 154 -198 46 0 62 56 28 101 -55 72 -198 338 -227 421 -25 74 -26 73 93
102 59 15 119 32 135 38 42 16 50 80 11 95 -13 5 -70 -6 -221 -44 l-23 -5 0
234 c0 195 -3 237 -16 256 -18 26 -56 29 -75 5z"/>
<path d="M1532 2268 c-14 -14 -16 -93 -3 -151 25 -112 54 -328 45 -337 -12
-12 -309 -64 -489 -86 -155 -19 -180 -28 -180 -69 0 -23 7 -33 29 -44 32 -15
92 -10 311 29 237 42 342 60 348 60 3 0 9 -21 13 -47 3 -27 17 -100 31 -163
13 -63 30 -149 38 -190 7 -41 33 -155 58 -253 l45 -177 -27 -43 c-15 -23 -47
-73 -72 -112 -24 -38 -77 -108 -117 -155 -80 -93 -132 -166 -132 -186 0 -20
30 -44 55 -44 16 0 34 14 56 42 18 24 61 75 95 113 65 74 174 229 174 248 1
27 32 -33 51 -98 59 -199 201 -455 257 -463 40 -6 65 21 156 167 79 126 88
146 80 169 -7 20 -17 28 -41 30 -28 3 -35 -2 -70 -55 -21 -32 -54 -84 -73
-115 -19 -32 -37 -58 -41 -58 -9 0 -54 68 -72 110 -8 19 -25 58 -37 85 -32 74
-120 337 -120 360 0 11 9 34 20 50 58 87 164 343 164 396 1 43 -18 69 -49 69
-30 0 -42 -16 -54 -71 -6 -24 -22 -71 -36 -104 -51 -118 -89 -195 -93 -191 -7
7 -62 233 -77 314 -7 43 -25 131 -38 197 -42 200 -41 194 -15 199 13 3 55 12
93 20 39 9 121 25 183 36 63 10 120 24 128 31 40 33 -7 96 -63 85 -242 -47
-357 -67 -367 -63 -6 3 -18 45 -25 93 -8 49 -18 114 -22 144 -5 30 -14 88 -19
129 -6 43 -17 82 -27 93 -18 21 -53 24 -71 6z"/>
<path d="M1872 2228 c-29 -29 -14 -65 51 -121 88 -77 163 -127 190 -127 31 0
47 18 47 52 0 21 -10 34 -47 59 -43 29 -138 104 -171 136 -17 16 -54 17 -70 1z"/>
<path d="M1331 1486 c-8 -9 -12 -47 -10 -106 1 -50 0 -92 -2 -94 -2 -2 -30 -7
-61 -10 l-58 -7 0 73 c0 91 -15 123 -55 123 -42 0 -55 -32 -55 -137 l0 -86
-52 -7 c-66 -9 -98 -28 -98 -60 0 -37 34 -55 91 -48 45 5 49 4 49 -15 0 -56
-74 -294 -107 -342 -38 -56 -27 -110 22 -110 43 0 97 88 134 220 12 41 28 98
36 126 8 28 18 72 21 98 8 53 16 59 97 71 l47 7 0 -246 c0 -280 6 -316 57
-316 16 0 34 5 41 12 9 9 12 87 12 290 0 214 3 280 13 282 6 3 32 10 56 18 52
15 68 44 44 78 -14 20 -22 22 -68 17 l-52 -5 -6 75 c-6 81 -24 113 -62 113
-13 0 -28 -6 -34 -14z"/>
</g>
</svg>
