<?xml version="1.0" standalone="no"?>
<!DOCTYPE svg PUBLIC "-//W3C//DTD SVG 20010904//EN"
 "http://www.w3.org/TR/2001/REC-SVG-20010904/DTD/svg10.dtd">
<svg version="1.0" xmlns="http://www.w3.org/2000/svg"
 width="248.000000pt" height="248.000000pt" viewBox="0 0 248.000000 248.000000"
 preserveAspectRatio="xMidYMid meet">
<metadata>
Created by potrace 1.10, written by Peter Selinger 2001-2011
</metadata>
<g transform="translate(0.000000,248.000000) scale(0.100000,-0.100000)"
fill="#000000" stroke="none">
<path d="M736 2258 c-9 -12 -16 -29 -16 -37 0 -19 -37 -73 -123 -181 -151
-191 -396 -472 -493 -568 -48 -47 -61 -80 -44 -111 27 -51 70 -21 253 179 l78
85 -5 -280 c-3 -154 -8 -469 -11 -700 -7 -464 -6 -470 50 -470 22 0 33 7 41
25 13 28 39 1435 28 1502 -7 40 10 71 78 143 15 17 59 68 96 115 143 178 178
249 147 296 -20 31 -59 31 -79 2z"/>
</g>
</svg>
