<?xml version="1.0" standalone="no"?>
<!DOCTYPE svg PUBLIC "-//W3C//DTD SVG 20010904//EN"
 "http://www.w3.org/TR/2001/REC-SVG-20010904/DTD/svg10.dtd">
<svg version="1.0" xmlns="http://www.w3.org/2000/svg"
 width="248.000000pt" height="248.000000pt" viewBox="0 0 248.000000 248.000000"
 preserveAspectRatio="xMidYMid meet">
<metadata>
Created by potrace 1.10, written by Peter Selinger 2001-2011
</metadata>
<g transform="translate(0.000000,248.000000) scale(0.100000,-0.100000)"
fill="#000000" stroke="none">
<path d="M1760 2240 c-36 -5 -135 -16 -220 -25 -219 -23 -492 -67 -536 -87
-51 -24 -54 -43 -54 -355 0 -158 5 -315 10 -348 16 -95 37 -106 174 -90 l69 8
-6 -84 c-14 -191 -172 -560 -340 -788 -83 -114 -127 -162 -184 -202 -48 -33
-56 -64 -25 -92 28 -25 44 -21 111 28 72 53 231 259 308 400 69 124 146 303
188 430 36 113 61 259 51 300 -6 22 -3 25 22 25 16 0 57 3 92 7 l63 6 -7 -445
c-8 -517 -3 -592 47 -676 20 -34 47 -62 72 -77 102 -58 357 -72 578 -30 139
25 173 41 183 82 4 14 4 97 1 185 -6 173 -16 208 -61 208 -45 0 -49 -19 -47
-194 l2 -162 -98 -18 c-78 -15 -133 -17 -268 -14 -208 6 -239 14 -274 78 -23
42 -26 57 -29 200 -1 85 1 315 5 510 l8 355 50 7 c28 4 95 13 151 21 122 17
156 36 172 99 23 93 35 265 28 433 -7 192 -18 261 -46 289 -22 23 -93 29 -190
16z m125 -197 c8 -101 0 -447 -11 -495 -5 -22 -13 -28 -48 -33 -22 -3 -84 -12
-136 -20 -52 -8 -167 -19 -255 -25 -88 -6 -206 -16 -263 -23 -57 -7 -105 -11
-108 -8 -2 2 -4 138 -4 302 l0 297 25 6 c45 11 277 45 415 61 74 8 169 19 210
24 41 5 96 9 122 10 l46 1 7 -97z"/>
<path d="M322 2228 c-17 -17 -15 -53 6 -70 9 -8 42 -30 72 -48 30 -18 95 -58
143 -87 91 -56 130 -64 150 -32 20 32 0 63 -65 101 -35 21 -103 62 -152 93
-88 54 -131 66 -154 43z"/>
<path d="M192 1618 c-17 -17 -15 -53 6 -70 9 -8 58 -32 107 -52 50 -21 121
-53 159 -72 73 -36 114 -42 134 -22 17 17 15 53 -5 69 -24 19 -150 81 -252
124 -89 37 -129 43 -149 23z"/>
<path d="M454 722 c-14 -9 -67 -115 -84 -167 -7 -22 -37 -93 -66 -158 -68
-148 -70 -197 -9 -197 33 0 46 21 120 195 38 88 79 183 92 210 12 28 23 60 23
72 0 39 -45 66 -76 45z"/>
</g>
</svg>
