<?xml version="1.0" standalone="no"?>
<!DOCTYPE svg PUBLIC "-//W3C//DTD SVG 20010904//EN"
 "http://www.w3.org/TR/2001/REC-SVG-20010904/DTD/svg10.dtd">
<svg version="1.0" xmlns="http://www.w3.org/2000/svg"
 width="248.000000pt" height="248.000000pt" viewBox="0 0 248.000000 248.000000"
 preserveAspectRatio="xMidYMid meet">
<metadata>
Created by potrace 1.10, written by Peter Selinger 2001-2011
</metadata>
<g transform="translate(0.000000,248.000000) scale(0.100000,-0.100000)"
fill="#000000" stroke="none">
<path d="M322 2228 c-17 -17 -15 -53 6 -70 9 -8 42 -30 72 -48 30 -18 95 -58
143 -87 91 -56 130 -64 150 -32 20 32 0 63 -65 101 -35 21 -103 62 -152 93
-88 54 -131 66 -154 43z"/>
<path d="M966 2088 c-14 -19 -16 -66 -16 -313 0 -159 5 -317 10 -350 13 -77
42 -102 84 -72 17 12 18 37 17 344 -2 337 -4 378 -23 400 -16 20 -55 15 -72
-9z"/>
<path d="M192 1618 c-17 -17 -15 -53 6 -70 9 -8 58 -32 107 -52 50 -21 121
-53 159 -72 73 -36 114 -42 134 -22 17 17 15 53 -5 69 -24 19 -150 81 -252
124 -89 37 -129 43 -149 23z"/>
<path d="M454 722 c-14 -9 -67 -115 -84 -167 -7 -22 -37 -93 -66 -158 -68
-148 -70 -197 -9 -197 33 0 46 21 120 195 38 88 79 183 92 210 12 28 23 60 23
72 0 39 -45 66 -76 45z"/>
</g>
</svg>
