<?xml version="1.0" standalone="no"?>
<!DOCTYPE svg PUBLIC "-//W3C//DTD SVG 20010904//EN"
 "http://www.w3.org/TR/2001/REC-SVG-20010904/DTD/svg10.dtd">
<svg version="1.0" xmlns="http://www.w3.org/2000/svg"
 width="248.000000pt" height="248.000000pt" viewBox="0 0 248.000000 248.000000"
 preserveAspectRatio="xMidYMid meet">
<metadata>
Created by potrace 1.10, written by Peter Selinger 2001-2011
</metadata>
<g transform="translate(0.000000,248.000000) scale(0.100000,-0.100000)"
fill="#000000" stroke="none">
<path d="M529 2264 c-17 -20 -25 -150 -38 -619 -6 -214 -17 -480 -24 -590 -14
-228 -15 -772 -1 -784 18 -17 50 -21 68 -8 16 12 18 38 20 308 2 162 8 447 15
634 6 187 11 365 11 395 0 54 14 303 26 470 8 114 6 181 -7 197 -15 18 -54 16
-70 -3z"/>
<path d="M1232 2137 c-6 -7 -14 -37 -18 -67 -20 -168 -111 -506 -176 -656 -35
-82 -39 -99 -29 -120 9 -21 17 -25 43 -22 40 4 61 38 113 183 20 55 41 103 48
107 7 4 39 8 72 8 177 0 549 46 865 106 51 9 80 31 80 58 0 52 -33 55 -205 22
-170 -33 -319 -52 -732 -90 -22 -2 -45 -1 -51 3 -5 3 5 61 25 141 38 151 54
300 33 325 -15 18 -54 20 -68 2z"/>
<path d="M712 1868 c-6 -6 -12 -20 -12 -30 0 -21 43 -102 109 -204 25 -39 51
-78 56 -87 15 -22 48 -29 69 -14 27 20 23 61 -12 115 -17 26 -44 69 -59 96
-68 119 -116 159 -151 124z"/>
<path d="M288 1743 c-8 -10 -25 -43 -38 -73 -12 -30 -49 -103 -81 -162 -63
-114 -71 -149 -38 -171 38 -27 56 -10 127 122 108 198 129 260 100 289 -17 17
-53 15 -70 -5z"/>
</g>
</svg>
