<?xml version="1.0" standalone="no"?>
<!DOCTYPE svg PUBLIC "-//W3C//DTD SVG 20010904//EN"
 "http://www.w3.org/TR/2001/REC-SVG-20010904/DTD/svg10.dtd">
<svg version="1.0" xmlns="http://www.w3.org/2000/svg"
 width="248.000000pt" height="248.000000pt" viewBox="0 0 248.000000 248.000000"
 preserveAspectRatio="xMidYMid meet">
<metadata>
Created by potrace 1.10, written by Peter Selinger 2001-2011
</metadata>
<g transform="translate(0.000000,248.000000) scale(0.100000,-0.100000)"
fill="#000000" stroke="none">
<path d="M623 2254 c-21 -26 -64 -77 -96 -113 -32 -36 -77 -91 -100 -121 -22
-30 -69 -84 -102 -120 -93 -100 -115 -132 -115 -173 0 -30 7 -41 36 -64 61
-48 154 -140 154 -152 0 -6 -38 -75 -86 -152 -118 -195 -194 -344 -194 -378 0
-35 23 -61 54 -61 31 0 140 39 276 98 63 27 132 55 154 61 51 13 76 38 76 72
0 67 -75 52 -334 -66 -57 -26 -76 -30 -76 -17 0 4 28 57 63 118 131 225 202
338 284 449 149 201 174 250 141 283 -27 27 -56 13 -102 -47 -25 -33 -46 -63
-46 -68 -1 -4 -21 -33 -45 -63 -25 -30 -55 -72 -67 -92 -13 -21 -26 -38 -31
-38 -13 0 -135 114 -136 127 -1 7 25 41 57 75 32 35 82 94 112 133 30 38 81
99 113 134 108 119 137 177 105 209 -24 24 -56 13 -95 -34z"/>
</g>
</svg>
