<?xml version="1.0" standalone="no"?>
<!DOCTYPE svg PUBLIC "-//W3C//DTD SVG 20010904//EN"
 "http://www.w3.org/TR/2001/REC-SVG-20010904/DTD/svg10.dtd">
<svg version="1.0" xmlns="http://www.w3.org/2000/svg"
 width="248.000000pt" height="248.000000pt" viewBox="0 0 248.000000 248.000000"
 preserveAspectRatio="xMidYMid meet">
<metadata>
Created by potrace 1.10, written by Peter Selinger 2001-2011
</metadata>
<g transform="translate(0.000000,248.000000) scale(0.100000,-0.100000)"
fill="#000000" stroke="none">
<path d="M712 1868 c-6 -6 -12 -20 -12 -30 0 -21 43 -102 109 -204 25 -39 51
-78 56 -87 15 -22 48 -29 69 -14 27 20 23 61 -12 115 -17 26 -44 69 -59 96
-68 119 -116 159 -151 124z"/>
<path d="M288 1743 c-8 -10 -25 -43 -38 -73 -12 -30 -49 -103 -81 -162 -63
-114 -71 -149 -38 -171 38 -27 56 -10 127 122 108 198 129 260 100 289 -17 17
-53 15 -70 -5z"/>
</g>
</svg>
