<?xml version="1.0" standalone="no"?>
<!DOCTYPE svg PUBLIC "-//W3C//DTD SVG 20010904//EN"
 "http://www.w3.org/TR/2001/REC-SVG-20010904/DTD/svg10.dtd">
<svg version="1.0" xmlns="http://www.w3.org/2000/svg"
 width="248.000000pt" height="248.000000pt" viewBox="0 0 248.000000 248.000000"
 preserveAspectRatio="xMidYMid meet">
<metadata>
Created by potrace 1.10, written by Peter Selinger 2001-2011
</metadata>
<g transform="translate(0.000000,248.000000) scale(0.100000,-0.100000)"
fill="#000000" stroke="none">
<path d="M767 2112 c-10 -10 -17 -23 -17 -29 0 -19 -69 -134 -128 -215 -32
-43 -86 -118 -122 -167 -84 -116 -292 -391 -347 -459 -66 -81 -67 -132 -3
-132 32 0 62 33 205 224 l90 120 5 -641 c5 -612 6 -642 24 -662 22 -24 58 -27
76 -6 9 11 11 184 9 734 l-3 720 30 43 c39 59 84 118 112 149 13 15 52 76 88
135 65 111 80 164 52 192 -18 18 -53 15 -71 -6z"/>
<path d="M1935 1749 c-166 -8 -497 -35 -610 -49 -44 -5 -141 -14 -215 -20
-249 -20 -235 -4 -220 -231 28 -441 34 -473 88 -467 43 5 51 37 41 158 -13
157 -27 414 -23 419 2 2 48 8 101 12 54 5 136 13 183 19 198 24 774 63 789 53
11 -7 -58 -386 -94 -513 -26 -94 -17 -130 32 -130 15 0 30 11 42 30 20 34 85
308 107 457 8 54 17 114 20 134 10 57 -12 108 -52 125 -18 8 -37 13 -41 12 -4
-1 -71 -5 -148 -9z"/>
</g>
</svg>
