<?xml version="1.0" standalone="no"?>
<!DOCTYPE svg PUBLIC "-//W3C//DTD SVG 20010904//EN"
 "http://www.w3.org/TR/2001/REC-SVG-20010904/DTD/svg10.dtd">
<svg version="1.0" xmlns="http://www.w3.org/2000/svg"
 width="248.000000pt" height="248.000000pt" viewBox="0 0 248.000000 248.000000"
 preserveAspectRatio="xMidYMid meet">
<metadata>
Created by potrace 1.10, written by Peter Selinger 2001-2011
</metadata>
<g transform="translate(0.000000,248.000000) scale(0.100000,-0.100000)"
fill="#000000" stroke="none">
<path d="M767 2112 c-10 -10 -17 -23 -17 -29 0 -19 -69 -134 -128 -215 -32
-43 -86 -118 -122 -167 -84 -116 -292 -391 -347 -459 -66 -81 -67 -132 -3
-132 33 0 60 30 236 263 108 144 155 208 255 347 18 25 44 57 57 71 13 15 52
76 88 135 65 111 80 164 52 192 -18 18 -53 15 -71 -6z"/>
</g>
</svg>
