<?xml version="1.0" standalone="no"?>
<!DOCTYPE svg PUBLIC "-//W3C//DTD SVG 20010904//EN"
 "http://www.w3.org/TR/2001/REC-SVG-20010904/DTD/svg10.dtd">
<svg version="1.0" xmlns="http://www.w3.org/2000/svg"
 width="248.000000pt" height="248.000000pt" viewBox="0 0 248.000000 248.000000"
 preserveAspectRatio="xMidYMid meet">
<metadata>
Created by potrace 1.10, written by Peter Selinger 2001-2011
</metadata>
<g transform="translate(0.000000,248.000000) scale(0.100000,-0.100000)"
fill="#000000" stroke="none">
<path d="M767 2112 c-10 -10 -17 -23 -17 -29 0 -19 -69 -134 -128 -215 -32
-43 -86 -118 -122 -167 -84 -116 -292 -391 -347 -459 -66 -81 -67 -132 -3
-132 32 0 62 33 205 224 l90 120 5 -641 c5 -612 6 -642 24 -662 22 -24 58 -27
76 -6 9 11 11 184 9 734 l-3 720 30 43 c39 59 84 118 112 149 13 15 52 76 88
135 65 111 80 164 52 192 -18 18 -53 15 -71 -6z"/>
<path d="M1935 1749 c-169 -8 -498 -35 -615 -49 -47 -6 -157 -17 -244 -24
-147 -12 -161 -15 -179 -37 -16 -20 -18 -34 -13 -99 4 -41 11 -146 16 -234 16
-258 20 -287 47 -314 18 -18 30 -22 46 -17 30 10 351 23 727 29 l315 5 17 28
c18 31 83 308 98 418 5 38 15 98 22 132 16 86 0 139 -47 159 -19 8 -38 13 -42
12 -4 -1 -71 -5 -148 -9z m135 -120 c0 -65 -83 -484 -99 -500 -3 -4 -197 -12
-431 -18 -234 -6 -446 -14 -472 -16 l-46 -5 -6 82 c-14 197 -24 383 -20 387 2
2 48 8 101 12 54 5 136 13 183 19 132 16 449 41 620 49 85 4 158 8 163 9 4 1
7 -8 7 -19z"/>
</g>
</svg>
