<?xml version="1.0" standalone="no"?>
<!DOCTYPE svg PUBLIC "-//W3C//DTD SVG 20010904//EN"
 "http://www.w3.org/TR/2001/REC-SVG-20010904/DTD/svg10.dtd">
<svg version="1.0" xmlns="http://www.w3.org/2000/svg"
 width="248.000000pt" height="248.000000pt" viewBox="0 0 248.000000 248.000000"
 preserveAspectRatio="xMidYMid meet">
<metadata>
Created by potrace 1.10, written by Peter Selinger 2001-2011
</metadata>
<g transform="translate(0.000000,248.000000) scale(0.100000,-0.100000)"
fill="#000000" stroke="none">
<path d="M1517 2122 c-15 -16 -17 -46 -17 -210 0 -106 -3 -192 -7 -192 -5 0
-62 -7 -128 -15 -66 -8 -181 -20 -255 -25 -249 -20 -235 -4 -220 -231 17 -270
32 -423 41 -441 16 -29 46 -40 82 -30 18 6 130 13 249 16 l217 6 3 -433 c3
-395 5 -435 21 -460 19 -30 57 -36 77 -13 9 11 11 127 10 460 l-1 444 87 7
c47 4 147 5 221 3 l135 -5 18 29 c20 32 84 309 106 455 8 54 17 114 20 134 9
56 -12 109 -50 123 -31 12 -196 9 -422 -9 l-92 -8 -4 190 c-4 203 -9 223 -53
223 -12 0 -29 -8 -38 -18z m553 -493 c0 -66 -83 -485 -99 -500 -3 -4 -90 -9
-193 -13 l-188 -6 0 158 c0 86 3 200 6 253 l7 96 131 12 c72 7 174 13 226 14
52 2 98 4 103 5 4 1 7 -8 7 -19z m-583 -141 c-4 -66 -7 -178 -7 -249 l0 -127
-122 -6 c-68 -3 -171 -7 -230 -9 l-106 -4 -6 81 c-14 197 -24 381 -20 385 2 2
50 8 106 13 57 5 150 15 208 22 58 7 123 14 144 15 l39 1 -6 -122z"/>
<path d="M767 2112 c-10 -10 -17 -23 -17 -29 0 -19 -69 -134 -128 -215 -32
-43 -86 -118 -122 -167 -84 -116 -292 -391 -347 -459 -66 -81 -67 -132 -3
-132 32 0 62 33 205 224 l90 120 5 -641 c5 -612 6 -642 24 -662 22 -24 58 -27
76 -6 9 11 11 184 9 734 l-3 720 30 43 c39 59 84 118 112 149 13 15 52 76 88
135 65 111 80 164 52 192 -18 18 -53 15 -71 -6z"/>
</g>
</svg>
