<?xml version="1.0" standalone="no"?>
<!DOCTYPE svg PUBLIC "-//W3C//DTD SVG 20010904//EN"
 "http://www.w3.org/TR/2001/REC-SVG-20010904/DTD/svg10.dtd">
<svg version="1.0" xmlns="http://www.w3.org/2000/svg"
 width="248.000000pt" height="248.000000pt" viewBox="0 0 248.000000 248.000000"
 preserveAspectRatio="xMidYMid meet">
<metadata>
Created by potrace 1.10, written by Peter Selinger 2001-2011
</metadata>
<g transform="translate(0.000000,248.000000) scale(0.100000,-0.100000)"
fill="#000000" stroke="none">
<path d="M767 2112 c-10 -10 -17 -23 -17 -29 0 -19 -69 -134 -128 -215 -32
-43 -86 -118 -122 -167 -84 -116 -292 -391 -347 -459 -66 -81 -67 -132 -3
-132 32 0 62 33 205 224 l90 120 5 -641 c5 -612 6 -642 24 -662 22 -24 58 -27
76 -6 9 11 11 182 9 734 l-3 719 29 44 c40 59 85 118 113 149 13 15 52 76 88
135 65 111 80 164 52 192 -18 18 -53 15 -71 -6z"/>
<path d="M903 1628 c-20 -26 -21 -49 -12 -189 27 -432 33 -463 87 -457 43 5
51 37 41 153 -4 55 -13 181 -19 279 -11 194 -20 226 -64 226 -13 0 -28 -6 -33
-12z"/>
</g>
</svg>
