<?xml version="1.0" standalone="no"?>
<!DOCTYPE svg PUBLIC "-//W3C//DTD SVG 20010904//EN"
 "http://www.w3.org/TR/2001/REC-SVG-20010904/DTD/svg10.dtd">
<svg version="1.0" xmlns="http://www.w3.org/2000/svg"
 width="248.000000pt" height="248.000000pt" viewBox="0 0 248.000000 248.000000"
 preserveAspectRatio="xMidYMid meet">
<metadata>
Created by potrace 1.10, written by Peter Selinger 2001-2011
</metadata>
<g transform="translate(0.000000,248.000000) scale(0.100000,-0.100000)"
fill="#000000" stroke="none">
<path d="M533 2368 c-5 -7 -29 -71 -52 -143 -25 -77 -65 -169 -97 -227 -30
-53 -54 -105 -54 -117 0 -29 43 -56 68 -42 19 10 85 112 118 183 9 20 23 39
31 42 28 11 180 29 195 24 8 -4 19 -24 23 -45 8 -47 43 -132 63 -155 17 -21
53 -23 70 -6 18 18 15 51 -13 124 -14 36 -25 75 -25 85 0 19 1 19 173 39 48 6
98 15 111 20 30 11 41 42 25 71 -11 21 -15 22 -113 15 -55 -3 -128 -11 -161
-16 -88 -15 -308 -41 -311 -37 -2 2 6 36 17 76 19 67 19 74 5 97 -18 26 -57
32 -73 12z"/>
</g>
</svg>
