<?xml version="1.0" standalone="no"?>
<!DOCTYPE svg PUBLIC "-//W3C//DTD SVG 20010904//EN"
 "http://www.w3.org/TR/2001/REC-SVG-20010904/DTD/svg10.dtd">
<svg version="1.0" xmlns="http://www.w3.org/2000/svg"
 width="248.000000pt" height="248.000000pt" viewBox="0 0 248.000000 248.000000"
 preserveAspectRatio="xMidYMid meet">
<metadata>
Created by potrace 1.10, written by Peter Selinger 2001-2011
</metadata>
<g transform="translate(0.000000,248.000000) scale(0.100000,-0.100000)"
fill="#000000" stroke="none">
<path d="M533 2368 c-5 -7 -29 -71 -52 -143 -25 -77 -65 -169 -97 -227 -30
-53 -54 -105 -54 -117 0 -29 43 -56 68 -42 19 10 85 112 118 183 9 20 23 39
31 42 28 11 180 29 195 24 8 -4 19 -24 23 -45 8 -47 43 -132 63 -155 17 -21
53 -23 70 -6 18 18 15 51 -13 124 -14 36 -25 75 -25 85 0 19 1 19 173 39 48 6
98 15 111 20 30 11 41 42 25 71 -11 21 -15 22 -113 15 -55 -3 -128 -11 -161
-16 -88 -15 -308 -41 -311 -37 -2 2 6 36 17 76 19 67 19 74 5 97 -18 26 -57
32 -73 12z"/>
<path d="M1326 2358 c-9 -12 -16 -38 -16 -56 0 -44 -41 -138 -97 -223 -49 -73
-51 -88 -23 -114 36 -32 68 -11 125 82 l50 82 73 1 c40 0 104 5 143 11 38 7
72 10 75 7 5 -6 -27 -75 -72 -158 -39 -72 -27 -126 27 -118 34 5 137 183 164
284 2 6 40 14 87 18 163 14 218 35 218 81 0 44 -21 49 -133 36 -56 -7 -142
-16 -192 -22 -49 -6 -117 -14 -151 -20 -33 -5 -91 -9 -128 -9 l-67 0 7 45 c5
34 2 51 -10 70 -21 32 -59 33 -80 3z"/>
<path d="M900 1639 c-30 -5 -147 -27 -260 -49 -113 -22 -217 -40 -231 -40 -56
0 -91 -59 -53 -91 25 -20 75 -15 309 30 116 22 250 45 299 51 95 10 126 26
126 65 0 11 -5 26 -12 33 -14 14 -96 14 -178 1z"/>
<path d="M795 1360 c-60 -10 -128 -22 -150 -28 -22 -6 -83 -18 -135 -27 -107
-19 -140 -35 -140 -68 0 -60 55 -61 300 -7 47 10 135 26 195 35 120 17 155 33
155 68 0 52 -40 57 -225 27z"/>
<path d="M980 1099 c-162 -29 -380 -60 -693 -98 -77 -10 -99 -24 -95 -60 4
-35 42 -53 98 -47 348 41 843 118 890 140 32 14 40 64 14 83 -23 17 -30 16
-214 -18z"/>
</g>
</svg>
