<?xml version="1.0" standalone="no"?>
<!DOCTYPE svg PUBLIC "-//W3C//DTD SVG 20010904//EN"
 "http://www.w3.org/TR/2001/REC-SVG-20010904/DTD/svg10.dtd">
<svg version="1.0" xmlns="http://www.w3.org/2000/svg"
 width="248.000000pt" height="248.000000pt" viewBox="0 0 248.000000 248.000000"
 preserveAspectRatio="xMidYMid meet">
<metadata>
Created by potrace 1.10, written by Peter Selinger 2001-2011
</metadata>
<g transform="translate(0.000000,248.000000) scale(0.100000,-0.100000)"
fill="#000000" stroke="none">
<path d="M533 2368 c-5 -7 -29 -71 -52 -143 -25 -77 -65 -169 -97 -227 -30
-53 -54 -105 -54 -117 0 -29 43 -56 68 -42 19 10 85 112 118 183 9 20 23 39
31 42 28 11 180 29 195 24 8 -4 19 -24 23 -45 8 -47 43 -132 63 -155 17 -21
53 -23 70 -6 18 18 15 51 -13 124 -14 36 -25 75 -25 85 0 19 1 19 173 39 48 6
98 15 111 20 30 11 41 42 25 71 -11 21 -15 22 -113 15 -55 -3 -128 -11 -161
-16 -88 -15 -308 -41 -311 -37 -2 2 6 36 17 76 19 67 19 74 5 97 -18 26 -57
32 -73 12z"/>
<path d="M1326 2358 c-9 -12 -16 -38 -16 -56 0 -44 -41 -138 -97 -223 -49 -73
-51 -88 -23 -114 36 -32 68 -11 125 82 l50 82 73 1 c40 0 104 5 143 11 38 7
72 10 75 7 5 -6 -27 -75 -72 -158 -39 -72 -27 -126 27 -118 34 5 137 183 164
284 2 6 40 14 87 18 163 14 218 35 218 81 0 44 -21 49 -133 36 -56 -7 -142
-16 -192 -22 -49 -6 -117 -14 -151 -20 -33 -5 -91 -9 -128 -9 l-67 0 7 45 c5
34 2 51 -10 70 -21 32 -59 33 -80 3z"/>
<path d="M726 1818 c-12 -16 -16 -47 -16 -115 0 -50 -4 -94 -8 -97 -13 -8
-263 -56 -292 -56 -57 0 -92 -59 -53 -91 22 -19 83 -15 226 14 l117 24 0 -77
0 -77 -52 -11 c-29 -7 -93 -19 -143 -28 -103 -19 -135 -35 -135 -67 0 -58 60
-61 273 -13 l57 13 0 -94 c0 -82 -2 -93 -17 -93 -10 0 -52 -5 -93 -11 -96 -13
-216 -28 -303 -38 -37 -5 -74 -14 -83 -21 -24 -21 -13 -63 20 -79 28 -13 97
-7 389 35 l38 6 -36 -69 c-45 -83 -92 -160 -213 -344 -51 -79 -92 -152 -92
-165 0 -16 8 -28 25 -36 51 -23 64 -7 280 341 l80 129 5 -350 c5 -331 6 -350
24 -364 25 -18 37 -18 62 0 18 14 19 33 24 447 l5 432 183 33 c100 17 189 37
197 44 24 20 19 69 -8 81 -20 9 -161 -10 -349 -47 l-28 -6 0 96 c0 70 3 96 13
96 46 1 155 23 174 35 26 18 30 56 8 75 -11 9 -36 11 -91 6 -41 -4 -81 -9 -89
-13 -12 -4 -15 9 -15 75 l0 80 33 6 c17 3 72 10 121 16 95 10 126 26 126 65 0
40 -23 49 -108 41 -42 -3 -96 -9 -119 -12 l-43 -7 0 84 c0 95 -15 129 -55 129
-13 0 -31 -10 -39 -22z"/>
</g>
</svg>
