<?xml version="1.0" standalone="no"?>
<!DOCTYPE svg PUBLIC "-//W3C//DTD SVG 20010904//EN"
 "http://www.w3.org/TR/2001/REC-SVG-20010904/DTD/svg10.dtd">
<svg version="1.0" xmlns="http://www.w3.org/2000/svg"
 width="248.000000pt" height="248.000000pt" viewBox="0 0 248.000000 248.000000"
 preserveAspectRatio="xMidYMid meet">
<metadata>
Created by potrace 1.10, written by Peter Selinger 2001-2011
</metadata>
<g transform="translate(0.000000,248.000000) scale(0.100000,-0.100000)"
fill="#000000" stroke="none">
<path d="M533 2368 c-5 -7 -29 -71 -52 -143 -25 -77 -65 -169 -97 -227 -30
-53 -54 -105 -54 -117 0 -29 43 -56 68 -42 19 10 85 112 118 183 9 20 24 40
32 43 15 5 223 34 449 61 67 8 133 18 147 23 30 12 41 43 25 72 -11 21 -15 22
-113 15 -55 -3 -128 -11 -161 -16 -88 -15 -308 -41 -311 -37 -2 2 6 36 17 76
19 67 19 74 5 97 -18 26 -57 32 -73 12z"/>
</g>
</svg>
