<?xml version="1.0" standalone="no"?>
<!DOCTYPE svg PUBLIC "-//W3C//DTD SVG 20010904//EN"
 "http://www.w3.org/TR/2001/REC-SVG-20010904/DTD/svg10.dtd">
<svg version="1.0" xmlns="http://www.w3.org/2000/svg"
 width="248.000000pt" height="248.000000pt" viewBox="0 0 248.000000 248.000000"
 preserveAspectRatio="xMidYMid meet">
<metadata>
Created by potrace 1.10, written by Peter Selinger 2001-2011
</metadata>
<g transform="translate(0.000000,248.000000) scale(0.100000,-0.100000)"
fill="#000000" stroke="none">
<path d="M526 2358 c-9 -12 -16 -29 -16 -36 0 -36 -86 -257 -130 -333 -28 -48
-50 -96 -50 -108 0 -25 41 -54 64 -45 19 7 71 85 112 166 14 29 28 55 30 57 7
7 138 30 177 31 22 0 39 -5 41 -12 50 -170 71 -208 110 -208 52 0 58 38 21
136 -25 67 -31 104 -17 104 21 0 244 30 267 36 49 12 57 76 12 93 -13 5 -128
-5 -291 -25 -148 -19 -271 -32 -273 -31 -1 2 6 34 17 72 16 57 17 73 7 94 -17
35 -59 40 -81 9z"/>
<path d="M1326 2358 c-9 -12 -16 -38 -16 -56 0 -44 -41 -138 -97 -223 -49 -73
-51 -88 -23 -114 36 -32 68 -11 125 82 l50 82 73 1 c40 0 104 5 143 11 38 7
72 9 76 6 5 -6 -15 -50 -73 -157 -38 -70 -29 -120 22 -120 24 0 37 13 63 62
10 18 33 59 51 92 18 32 38 77 45 100 11 37 16 41 46 44 98 7 235 34 251 49
22 20 23 56 3 73 -12 10 -37 11 -123 1 -130 -15 -233 -27 -329 -41 -39 -5
-102 -10 -138 -10 l-66 0 7 45 c5 34 2 51 -10 70 -21 32 -59 33 -80 3z"/>
<path d="M1816 1838 c-11 -15 -16 -44 -16 -85 0 -71 12 -64 -131 -82 -123 -16
-116 -18 -121 39 -6 57 -21 80 -53 80 -34 0 -50 -27 -52 -89 l-1 -56 -76 -16
c-42 -9 -83 -22 -91 -29 -23 -19 -18 -57 9 -75 21 -14 30 -14 95 0 40 8 74 15
77 15 6 0 5 -107 -2 -165 l-6 -50 -156 -18 c-173 -19 -205 -31 -200 -75 5 -45
36 -52 168 -37 63 8 176 19 250 25 142 12 202 19 420 44 232 28 264 38 258 85
-4 39 -47 55 -106 42 -26 -5 -75 -13 -109 -17 l-63 -6 0 116 c0 65 4 116 9
116 43 0 171 24 189 36 25 17 29 56 7 74 -16 13 -150 9 -188 -6 -15 -5 -17 1
-17 47 0 30 -6 65 -13 79 -17 34 -60 39 -81 8z m-16 -372 l0 -113 -77 -7 c-43
-3 -97 -9 -120 -12 l-42 -7 2 112 2 111 35 7 c46 8 138 20 173 22 l27 1 0
-114z"/>
<path d="M726 1818 c-12 -17 -16 -46 -16 -115 0 -50 -3 -94 -7 -96 -10 -6
-191 -44 -271 -56 -35 -6 -70 -15 -78 -22 -22 -18 -17 -57 10 -74 22 -15 32
-15 118 0 51 9 121 22 156 29 l62 13 0 -77 0 -77 -52 -11 c-29 -6 -96 -19
-148 -28 -101 -19 -130 -34 -130 -69 0 -56 52 -58 273 -11 l57 13 0 -93 0 -92
-57 -6 c-112 -13 -219 -27 -272 -37 -30 -5 -73 -9 -95 -9 -78 0 -116 -60 -61
-96 24 -16 36 -15 193 5 92 12 184 24 205 27 l38 6 -36 -69 c-48 -89 -99 -172
-212 -344 -100 -149 -110 -182 -68 -201 50 -23 55 -18 249 292 l116 185 0
-337 c0 -233 4 -345 12 -362 20 -45 71 -45 89 1 5 13 9 176 9 361 l0 337 78
-80 c76 -78 162 -145 189 -145 16 0 53 36 53 51 0 6 -15 25 -34 43 -18 17 -60
56 -92 86 -32 30 -88 89 -123 130 l-65 75 75 13 c208 35 292 52 305 63 23 19
18 68 -9 80 -20 9 -161 -10 -349 -47 l-28 -6 0 96 c0 70 3 96 13 96 46 1 155
23 174 35 26 18 30 56 8 75 -11 9 -36 11 -91 6 -41 -4 -81 -9 -89 -13 -12 -4
-15 9 -15 75 l0 80 83 11 c45 7 100 14 122 17 47 6 75 28 75 59 0 48 -43 54
-222 29 l-48 -7 0 79 c0 44 -6 90 -13 104 -17 34 -60 39 -81 8z"/>
<path d="M1356 1018 c-23 -34 -19 -854 4 -868 24 -15 55 -12 73 8 15 17 17 61
17 423 0 304 -3 410 -13 429 -17 35 -61 39 -81 8z"/>
</g>
</svg>
