<?xml version="1.0" standalone="no"?>
<!DOCTYPE svg PUBLIC "-//W3C//DTD SVG 20010904//EN"
 "http://www.w3.org/TR/2001/REC-SVG-20010904/DTD/svg10.dtd">
<svg version="1.0" xmlns="http://www.w3.org/2000/svg"
 width="248.000000pt" height="248.000000pt" viewBox="0 0 248.000000 248.000000"
 preserveAspectRatio="xMidYMid meet">
<metadata>
Created by potrace 1.10, written by Peter Selinger 2001-2011
</metadata>
<g transform="translate(0.000000,248.000000) scale(0.100000,-0.100000)"
fill="#000000" stroke="none">
<path d="M765 2019 c-49 -4 -182 -12 -293 -17 -112 -6 -208 -14 -213 -19 -5
-5 -11 -218 -14 -474 -2 -256 -7 -500 -10 -543 -7 -85 1 -106 41 -106 45 0 52
29 58 240 3 107 5 326 6 485 0 160 4 295 8 302 8 13 84 20 314 29 l157 6 -4
-33 c-2 -19 -9 -146 -15 -284 -16 -388 -19 -463 -26 -562 -7 -91 -7 -92 18
-104 33 -15 63 1 72 38 3 15 10 123 15 238 5 116 17 338 26 494 18 303 18 302
-30 313 -11 3 -60 1 -110 -3z"/>
</g>
</svg>
