<?xml version="1.0" standalone="no"?>
<!DOCTYPE svg PUBLIC "-//W3C//DTD SVG 20010904//EN"
 "http://www.w3.org/TR/2001/REC-SVG-20010904/DTD/svg10.dtd">
<svg version="1.0" xmlns="http://www.w3.org/2000/svg"
 width="248.000000pt" height="248.000000pt" viewBox="0 0 248.000000 248.000000"
 preserveAspectRatio="xMidYMid meet">
<metadata>
Created by potrace 1.10, written by Peter Selinger 2001-2011
</metadata>
<g transform="translate(0.000000,248.000000) scale(0.100000,-0.100000)"
fill="#000000" stroke="none">
<path d="M765 2019 c-49 -4 -182 -12 -293 -17 -112 -6 -208 -14 -213 -19 -5
-5 -11 -218 -14 -473 -2 -256 -7 -502 -11 -546 -5 -77 -4 -83 18 -98 28 -20
63 -20 175 -2 49 8 158 19 243 25 169 10 170 11 191 81 5 19 14 130 19 245 5
116 16 338 25 494 18 303 18 302 -30 313 -11 3 -60 1 -110 -3z m47 -191 c-2
-51 -7 -140 -10 -198 l-7 -105 -70 -7 c-38 -3 -128 -12 -200 -18 -71 -7 -139
-13 -150 -15 -11 -1 -23 3 -27 9 -11 16 -10 378 1 395 6 10 48 15 162 18 85 3
156 7 158 9 2 2 36 4 75 4 l71 0 -3 -92z m-22 -515 c-1 -104 -20 -307 -31
-318 -3 -2 -81 -9 -172 -15 -92 -5 -185 -14 -207 -19 -24 -5 -42 -5 -46 0 -9
15 6 413 17 419 5 4 69 12 142 18 72 7 148 14 167 16 19 1 56 4 83 4 l47 2 0
-107z"/>
</g>
</svg>
