<?xml version="1.0" standalone="no"?>
<!DOCTYPE svg PUBLIC "-//W3C//DTD SVG 20010904//EN"
 "http://www.w3.org/TR/2001/REC-SVG-20010904/DTD/svg10.dtd">
<svg version="1.0" xmlns="http://www.w3.org/2000/svg"
 width="248.000000pt" height="248.000000pt" viewBox="0 0 248.000000 248.000000"
 preserveAspectRatio="xMidYMid meet">
<metadata>
Created by potrace 1.10, written by Peter Selinger 2001-2011
</metadata>
<g transform="translate(0.000000,248.000000) scale(0.100000,-0.100000)"
fill="#000000" stroke="none">
<path d="M1466 2195 c-12 -6 -51 -51 -88 -100 -38 -50 -117 -143 -178 -207
-110 -118 -116 -129 -87 -165 35 -46 147 54 337 302 29 39 58 73 64 77 15 10
384 10 390 0 11 -17 -70 -121 -190 -243 -68 -69 -124 -130 -124 -136 0 -6 8
-21 18 -33 31 -38 62 -20 190 108 88 87 135 144 186 225 77 122 82 135 63 161
-13 17 -32 19 -287 20 -170 1 -282 -3 -294 -9z"/>
<path d="M765 2019 c-49 -4 -182 -12 -293 -17 -112 -6 -208 -14 -213 -19 -5
-5 -11 -218 -14 -473 -2 -256 -7 -502 -11 -546 -5 -77 -4 -83 18 -98 28 -20
63 -20 175 -2 49 8 158 19 243 25 169 10 170 11 191 81 5 19 14 130 19 245 5
116 16 338 25 494 18 303 18 302 -30 313 -11 3 -60 1 -110 -3z m47 -191 c-2
-51 -7 -140 -10 -198 l-7 -105 -65 -7 c-36 -3 -126 -12 -200 -18 -74 -7 -144
-13 -155 -14 -11 -2 -23 2 -27 8 -11 16 -10 378 1 395 6 10 48 15 162 18 85 3
156 7 158 9 2 2 36 4 75 4 l71 0 -3 -92z m-22 -515 c-1 -104 -20 -307 -31
-318 -3 -2 -81 -9 -172 -15 -92 -5 -185 -14 -207 -19 -24 -5 -42 -5 -46 0 -9
15 6 413 17 419 5 4 69 12 142 18 72 7 148 14 167 16 19 1 56 4 83 4 l47 2 0
-107z"/>
<path d="M2038 1665 c-1 -2 -66 -6 -143 -10 -134 -6 -255 -18 -525 -49 -69 -8
-160 -18 -203 -21 -101 -9 -121 -25 -113 -93 4 -26 11 -123 16 -217 l10 -169
35 -33 c41 -37 37 -36 86 -23 20 6 81 15 135 20 251 25 555 50 615 50 51 0 70
4 82 18 52 57 145 337 150 449 3 68 -12 82 -88 82 -29 0 -55 -2 -57 -4z m37
-105 c8 -13 -45 -199 -75 -266 -19 -43 -34 -63 -51 -67 -34 -9 -349 -31 -355
-25 -8 8 18 312 28 324 7 10 160 25 363 37 79 5 85 4 90 -3z m-569 -147 c-12
-189 -16 -214 -40 -224 -29 -12 -279 -38 -289 -30 -4 4 -8 79 -10 167 l-2 159
135 12 c74 7 144 14 155 16 60 12 58 17 51 -100z"/>
</g>
</svg>
