<?xml version="1.0" standalone="no"?>
<!DOCTYPE svg PUBLIC "-//W3C//DTD SVG 20010904//EN"
 "http://www.w3.org/TR/2001/REC-SVG-20010904/DTD/svg10.dtd">
<svg version="1.0" xmlns="http://www.w3.org/2000/svg"
 width="248.000000pt" height="248.000000pt" viewBox="0 0 248.000000 248.000000"
 preserveAspectRatio="xMidYMid meet">
<metadata>
Created by potrace 1.10, written by Peter Selinger 2001-2011
</metadata>
<g transform="translate(0.000000,248.000000) scale(0.100000,-0.100000)"
fill="#000000" stroke="none">
<path d="M765 2019 c-49 -4 -182 -12 -293 -17 -112 -6 -208 -14 -213 -19 -5
-5 -11 -218 -14 -474 -2 -256 -7 -500 -10 -543 -7 -85 1 -106 41 -106 47 0 52
27 58 279 4 129 8 237 11 239 7 7 199 28 334 37 l114 7 -7 -149 c-3 -81 -9
-187 -12 -235 -6 -82 -5 -87 16 -98 31 -17 66 1 74 37 3 15 10 123 15 238 5
116 17 338 26 494 18 303 18 302 -30 313 -11 3 -60 1 -110 -3z m47 -191 c-2
-51 -7 -140 -10 -198 l-7 -105 -70 -7 c-38 -3 -128 -12 -200 -18 -71 -7 -139
-13 -150 -15 -11 -1 -23 3 -27 9 -11 16 -10 378 1 395 6 10 48 15 162 18 85 3
156 7 158 9 2 2 36 4 75 4 l71 0 -3 -92z"/>
</g>
</svg>
