<?xml version="1.0" standalone="no"?>
<!DOCTYPE svg PUBLIC "-//W3C//DTD SVG 20010904//EN"
 "http://www.w3.org/TR/2001/REC-SVG-20010904/DTD/svg10.dtd">
<svg version="1.0" xmlns="http://www.w3.org/2000/svg"
 width="248.000000pt" height="248.000000pt" viewBox="0 0 248.000000 248.000000"
 preserveAspectRatio="xMidYMid meet">
<metadata>
Created by potrace 1.10, written by Peter Selinger 2001-2011
</metadata>
<g transform="translate(0.000000,248.000000) scale(0.100000,-0.100000)"
fill="#000000" stroke="none">
<path d="M1281 2124 c-58 -74 -508 -372 -709 -470 -50 -25 -76 -44 -83 -61 -5
-13 -9 -71 -9 -127 0 -110 -6 -155 -46 -336 -40 -182 -105 -375 -236 -700 -49
-121 -47 -160 6 -160 34 0 60 36 96 130 18 47 57 150 87 230 70 183 114 323
149 473 15 64 32 117 38 117 6 1 92 10 191 20 99 11 244 27 322 35 78 8 152
17 165 20 38 8 431 44 591 54 121 7 151 11 168 27 23 21 22 62 -3 78 -20 12
-293 -4 -573 -34 -99 -11 -225 -24 -280 -30 -55 -6 -152 -17 -215 -25 -146
-18 -351 -38 -354 -33 -1 2 0 51 2 109 l4 106 41 20 c87 42 478 284 537 332
24 20 74 57 109 83 70 51 90 78 91 119 0 53 -54 67 -89 23z"/>
<path d="M1549 1056 c-2 -2 -101 -11 -219 -20 -118 -9 -255 -20 -305 -26 -49
-5 -126 -12 -170 -16 -70 -6 -83 -10 -108 -36 -33 -32 -33 -36 -8 -228 6 -41
10 -170 11 -285 0 -176 3 -214 16 -233 21 -30 64 -26 82 8 18 33 9 493 -12
593 -10 50 -11 69 -2 72 17 5 235 24 396 36 80 5 183 14 230 19 47 6 126 10
177 10 l91 0 -4 -77 c-8 -118 -23 -304 -37 -446 -15 -148 -10 -172 38 -172 41
0 52 27 64 160 6 61 15 144 21 185 6 41 14 144 19 229 10 169 4 207 -36 222
-24 9 -235 13 -244 5z"/>
</g>
</svg>
