<?xml version="1.0" standalone="no"?>
<!DOCTYPE svg PUBLIC "-//W3C//DTD SVG 20010904//EN"
 "http://www.w3.org/TR/2001/REC-SVG-20010904/DTD/svg10.dtd">
<svg version="1.0" xmlns="http://www.w3.org/2000/svg"
 width="248.000000pt" height="248.000000pt" viewBox="0 0 248.000000 248.000000"
 preserveAspectRatio="xMidYMid meet">
<metadata>
Created by potrace 1.10, written by Peter Selinger 2001-2011
</metadata>
<g transform="translate(0.000000,248.000000) scale(0.100000,-0.100000)"
fill="#000000" stroke="none">
<path d="M1865 2359 c-38 -4 -144 -15 -235 -23 -286 -27 -591 -55 -710 -66
-256 -22 -250 -21 -265 -44 -9 -14 -18 -80 -25 -191 -16 -258 -65 -524 -147
-800 -20 -66 -48 -163 -64 -216 -42 -142 -77 -223 -189 -436 -24 -47 -21 -77
12 -94 33 -18 67 17 123 127 90 176 118 251 226 617 34 113 90 363 116 517
l18 105 70 12 c39 7 162 19 275 27 247 18 386 31 545 51 66 9 179 22 250 31
72 9 135 20 142 25 10 9 51 165 69 261 17 101 -21 119 -211 97z m102 -116 c-3
-10 -8 -31 -12 -48 -23 -106 -20 -103 -83 -110 -31 -3 -86 -11 -122 -16 -36
-6 -101 -15 -145 -19 -309 -32 -394 -39 -505 -45 -69 -4 -167 -13 -217 -21
-51 -8 -107 -14 -124 -14 -28 0 -31 3 -25 23 3 12 6 52 6 88 l0 66 68 7 c37 4
119 11 182 16 63 5 230 21 370 35 140 14 311 30 380 35 69 6 132 12 140 14 8
2 32 4 53 5 32 1 38 -2 34 -16z"/>
<path d="M902 1798 c-7 -7 -12 -23 -12 -36 0 -45 78 -152 110 -152 22 0 50 31
50 55 0 18 -65 124 -84 137 -17 12 -51 9 -64 -4z"/>
</g>
</svg>
