<?xml version="1.0" standalone="no"?>
<!DOCTYPE svg PUBLIC "-//W3C//DTD SVG 20010904//EN"
 "http://www.w3.org/TR/2001/REC-SVG-20010904/DTD/svg10.dtd">
<svg version="1.0" xmlns="http://www.w3.org/2000/svg"
 width="248.000000pt" height="248.000000pt" viewBox="0 0 248.000000 248.000000"
 preserveAspectRatio="xMidYMid meet">
<metadata>
Created by potrace 1.10, written by Peter Selinger 2001-2011
</metadata>
<g transform="translate(0.000000,248.000000) scale(0.100000,-0.100000)"
fill="#000000" stroke="none">
<path d="M1281 2124 c-58 -74 -508 -372 -709 -470 -50 -25 -76 -44 -83 -61 -5
-13 -9 -71 -9 -127 0 -110 -6 -155 -46 -336 -40 -182 -105 -375 -236 -700 -49
-121 -47 -160 6 -160 34 0 60 36 96 130 18 47 57 150 87 230 70 183 114 323
149 473 15 64 32 117 38 117 6 1 92 10 191 20 99 11 244 27 322 35 78 8 152
17 165 20 38 8 431 44 591 54 121 7 151 11 168 27 23 21 22 62 -3 78 -20 12
-293 -4 -573 -34 -99 -11 -225 -24 -280 -30 -55 -6 -152 -17 -215 -25 -146
-18 -351 -38 -354 -33 -1 2 0 51 2 109 l4 106 41 20 c87 42 478 284 537 332
24 20 74 57 109 83 70 51 90 78 91 119 0 53 -54 67 -89 23z"/>
<path d="M1549 1056 c-2 -2 -101 -11 -219 -20 -118 -9 -255 -20 -305 -26 -49
-5 -126 -12 -170 -16 -70 -6 -83 -10 -108 -36 -33 -32 -33 -36 -8 -228 6 -41
10 -170 11 -286 0 -194 2 -213 20 -236 l19 -25 458 5 c348 3 464 8 484 18 30
15 45 69 59 219 5 55 14 134 20 175 6 41 14 144 19 229 10 169 4 207 -36 222
-24 9 -235 13 -244 5z m175 -173 c-16 -251 -46 -569 -54 -576 -3 -3 -185 -7
-406 -9 l-401 -5 -7 226 c-3 124 -12 257 -20 294 -10 50 -11 69 -2 72 18 5
229 24 391 35 83 6 182 15 220 19 39 5 118 9 177 10 l107 1 -5 -67z"/>
</g>
</svg>
