<?xml version="1.0" standalone="no"?>
<!DOCTYPE svg PUBLIC "-//W3C//DTD SVG 20010904//EN"
 "http://www.w3.org/TR/2001/REC-SVG-20010904/DTD/svg10.dtd">
<svg version="1.0" xmlns="http://www.w3.org/2000/svg"
 width="248.000000pt" height="248.000000pt" viewBox="0 0 248.000000 248.000000"
 preserveAspectRatio="xMidYMid meet">
<metadata>
Created by potrace 1.10, written by Peter Selinger 2001-2011
</metadata>
<g transform="translate(0.000000,248.000000) scale(0.100000,-0.100000)"
fill="#000000" stroke="none">
<path d="M1865 2359 c-38 -4 -144 -15 -235 -23 -286 -27 -591 -55 -710 -66
-256 -22 -250 -21 -265 -44 -9 -14 -18 -80 -25 -191 -16 -258 -65 -524 -147
-800 -20 -66 -48 -163 -64 -216 -42 -142 -77 -223 -189 -436 -24 -47 -21 -77
12 -94 33 -18 67 17 123 127 90 176 118 251 226 617 34 113 90 363 116 517
l18 105 70 12 c39 7 162 19 275 27 247 18 386 31 545 51 66 9 179 22 250 31
72 9 135 20 142 25 10 9 51 165 69 261 17 101 -21 119 -211 97z m102 -116 c-3
-10 -8 -31 -12 -48 -23 -106 -20 -103 -83 -110 -31 -3 -86 -11 -122 -16 -36
-6 -101 -15 -145 -19 -309 -32 -394 -39 -505 -45 -69 -4 -167 -13 -217 -21
-51 -8 -107 -14 -124 -14 -28 0 -31 3 -25 23 3 12 6 52 6 88 l0 66 68 7 c37 4
117 11 177 15 154 13 645 60 675 66 14 2 70 7 125 11 55 3 102 8 104 10 2 2
22 4 43 4 33 0 39 -3 35 -17z"/>
<path d="M1719 1858 c-18 -24 -73 -83 -121 -131 -49 -50 -88 -97 -88 -108 0
-17 -8 -19 -71 -19 -40 0 -99 -4 -133 -10 -85 -13 -386 -51 -472 -59 -39 -3
-79 -12 -88 -20 -20 -17 -21 -73 -1 -177 8 -44 19 -123 24 -177 11 -109 28
-147 65 -147 42 0 50 22 43 118 -4 48 -14 131 -23 184 -10 54 -15 100 -12 103
7 7 150 31 273 45 55 6 132 15 170 20 95 13 588 35 607 28 20 -8 16 -100 -14
-296 -24 -156 -21 -175 25 -180 18 -2 30 4 42 22 21 31 51 206 64 361 15 191
5 200 -228 199 l-155 0 58 52 c110 100 159 187 124 222 -24 24 -56 13 -89 -30z"/>
<path d="M902 1798 c-7 -7 -12 -23 -12 -36 0 -45 78 -152 110 -152 22 0 50 31
50 55 0 18 -65 124 -84 137 -17 12 -51 9 -64 -4z"/>
</g>
</svg>
