<?xml version="1.0" standalone="no"?>
<!DOCTYPE svg PUBLIC "-//W3C//DTD SVG 20010904//EN"
 "http://www.w3.org/TR/2001/REC-SVG-20010904/DTD/svg10.dtd">
<svg version="1.0" xmlns="http://www.w3.org/2000/svg"
 width="248.000000pt" height="248.000000pt" viewBox="0 0 248.000000 248.000000"
 preserveAspectRatio="xMidYMid meet">
<metadata>
Created by potrace 1.10, written by Peter Selinger 2001-2011
</metadata>
<g transform="translate(0.000000,248.000000) scale(0.100000,-0.100000)"
fill="#000000" stroke="none">
<path d="M1229 2413 c-10 -11 -15 -52 -17 -125 -2 -59 -7 -108 -10 -108 -71 0
-304 -24 -354 -36 -73 -17 -91 -31 -86 -66 4 -32 46 -50 87 -38 18 5 96 14
174 20 78 5 196 17 262 25 66 9 184 19 262 24 157 9 193 21 193 66 0 30 -39
58 -71 51 -13 -3 -64 -8 -114 -11 -49 -4 -123 -10 -162 -14 l-73 -7 0 96 c0
70 -4 101 -16 118 -18 26 -56 29 -75 5z"/>
</g>
</svg>
