<?xml version="1.0" standalone="no"?>
<!DOCTYPE svg PUBLIC "-//W3C//DTD SVG 20010904//EN"
 "http://www.w3.org/TR/2001/REC-SVG-20010904/DTD/svg10.dtd">
<svg version="1.0" xmlns="http://www.w3.org/2000/svg"
 width="248.000000pt" height="248.000000pt" viewBox="0 0 248.000000 248.000000"
 preserveAspectRatio="xMidYMid meet">
<metadata>
Created by potrace 1.10, written by Peter Selinger 2001-2011
</metadata>
<g transform="translate(0.000000,248.000000) scale(0.100000,-0.100000)"
fill="#000000" stroke="none">
<path d="M1229 2413 c-10 -11 -15 -52 -17 -125 -2 -59 -7 -108 -10 -108 -71 0
-304 -24 -354 -36 -73 -17 -91 -31 -86 -66 4 -32 46 -50 89 -38 19 6 51 10 71
10 34 0 38 -3 43 -32 15 -79 21 -190 11 -193 -40 -10 -353 -45 -456 -51 -81
-4 -133 -11 -147 -20 -31 -20 -30 -59 2 -80 30 -19 159 -14 380 16 147 21 326
35 610 50 94 5 220 13 280 19 61 5 193 13 295 16 102 3 200 8 217 11 68 10 66
87 -2 100 -31 5 -292 -5 -557 -23 -43 -3 -78 -4 -78 -2 0 2 10 38 21 79 11 41
25 96 31 121 l10 46 55 6 c67 7 103 29 103 62 0 30 -39 58 -71 51 -13 -3 -64
-8 -114 -11 -49 -4 -123 -10 -162 -14 l-73 -7 0 96 c0 70 -4 101 -16 118 -18
26 -56 29 -75 5z m241 -330 c0 -10 -9 -45 -19 -78 -11 -34 -22 -81 -26 -107
l-7 -45 -91 -7 c-51 -3 -124 -9 -163 -12 l-71 -6 -12 108 c-7 59 -14 111 -17
116 -5 8 8 10 181 31 177 21 225 21 225 0z"/>
<path d="M742 1558 c-16 -16 -15 -40 8 -157 11 -55 24 -145 29 -200 5 -54 14
-109 20 -120 16 -29 66 -28 85 2 12 19 12 40 -5 162 -25 188 -46 285 -66 307
-18 21 -53 24 -71 6z"/>
</g>
</svg>
