<?xml version="1.0" standalone="no"?>
<!DOCTYPE svg PUBLIC "-//W3C//DTD SVG 20010904//EN"
 "http://www.w3.org/TR/2001/REC-SVG-20010904/DTD/svg10.dtd">
<svg version="1.0" xmlns="http://www.w3.org/2000/svg"
 width="248.000000pt" height="248.000000pt" viewBox="0 0 248.000000 248.000000"
 preserveAspectRatio="xMidYMid meet">
<metadata>
Created by potrace 1.10, written by Peter Selinger 2001-2011
</metadata>
<g transform="translate(0.000000,248.000000) scale(0.100000,-0.100000)"
fill="#000000" stroke="none">
<path d="M728 2323 c-8 -10 -25 -43 -37 -73 -36 -85 -112 -229 -137 -260 -13
-15 -55 -74 -93 -131 -70 -104 -119 -172 -176 -245 -53 -68 -226 -273 -236
-279 -13 -9 -11 -59 3 -73 20 -20 58 -13 85 16 34 36 192 221 221 258 l23 29
-4 -687 c-3 -501 -1 -693 7 -710 17 -34 60 -36 81 -4 15 22 17 105 24 793 l6
768 58 84 c32 46 69 98 82 115 61 80 175 321 175 370 0 44 -53 63 -82 29z"/>
</g>
</svg>
