<?xml version="1.0" standalone="no"?>
<!DOCTYPE svg PUBLIC "-//W3C//DTD SVG 20010904//EN"
 "http://www.w3.org/TR/2001/REC-SVG-20010904/DTD/svg10.dtd">
<svg version="1.0" xmlns="http://www.w3.org/2000/svg"
 width="248.000000pt" height="248.000000pt" viewBox="0 0 248.000000 248.000000"
 preserveAspectRatio="xMidYMid meet">
<metadata>
Created by potrace 1.10, written by Peter Selinger 2001-2011
</metadata>
<g transform="translate(0.000000,248.000000) scale(0.100000,-0.100000)"
fill="#000000" stroke="none">
<path d="M667 2232 c-99 -93 -292 -254 -322 -269 -16 -9 -52 -32 -80 -52 -27
-20 -59 -41 -70 -47 -11 -6 -25 -22 -31 -35 -14 -29 2 -1568 17 -1606 18 -48
99 -17 99 39 0 16 13 18 143 19 218 0 409 14 434 29 28 18 36 35 68 150 28 98
42 159 90 411 25 130 26 149 14 175 l-15 29 -169 -2 c-162 -1 -242 -10 -432
-48 -40 -8 -88 -15 -108 -15 l-35 0 0 99 c0 112 -2 111 95 111 28 0 77 5 110
10 33 6 112 14 175 20 200 17 281 32 295 55 26 39 59 365 54 513 -5 111 -16
127 -87 127 -81 0 -171 -13 -423 -61 -96 -18 -99 -18 -69 3 42 29 191 153 283
236 68 62 87 85 87 106 0 67 -53 68 -123 3z m219 -549 c-8 -192 -20 -293 -37
-304 -7 -4 -56 -10 -108 -14 -53 -4 -141 -13 -196 -20 -55 -8 -139 -17 -187
-20 l-88 -7 0 150 c0 82 -3 176 -6 210 l-7 60 54 10 c30 5 95 17 144 25 50 9
140 25 200 36 100 19 142 24 214 29 l24 2 -7 -157z m34 -750 c-4 -21 -15 -78
-24 -128 -9 -49 -22 -115 -27 -145 -11 -54 -66 -250 -73 -257 -2 -3 -505 -21
-512 -18 -1 0 -4 115 -7 256 l-5 257 101 16 c56 9 127 21 157 27 94 17 191 26
296 28 l101 1 -7 -37z"/>
<path d="M1975 2240 c-27 -5 -115 -16 -195 -24 -302 -33 -486 -60 -508 -73
-32 -19 -27 -63 9 -80 21 -10 44 -10 120 1 52 8 182 24 289 35 423 47 440 50
440 96 0 45 -58 62 -155 45z"/>
</g>
</svg>
