<?xml version="1.0" standalone="no"?>
<!DOCTYPE svg PUBLIC "-//W3C//DTD SVG 20010904//EN"
 "http://www.w3.org/TR/2001/REC-SVG-20010904/DTD/svg10.dtd">
<svg version="1.0" xmlns="http://www.w3.org/2000/svg"
 width="248.000000pt" height="248.000000pt" viewBox="0 0 248.000000 248.000000"
 preserveAspectRatio="xMidYMid meet">
<metadata>
Created by potrace 1.10, written by Peter Selinger 2001-2011
</metadata>
<g transform="translate(0.000000,248.000000) scale(0.100000,-0.100000)"
fill="#000000" stroke="none">
<path d="M728 2323 c-8 -10 -25 -43 -37 -73 -36 -85 -112 -229 -137 -260 -13
-15 -55 -74 -93 -131 -124 -184 -276 -379 -389 -500 -25 -27 -33 -44 -30 -64
4 -36 29 -52 61 -40 50 20 260 276 433 530 38 55 81 116 96 135 62 81 178 324
178 374 0 44 -53 63 -82 29z"/>
</g>
</svg>
