<?xml version="1.0" standalone="no"?>
<!DOCTYPE svg PUBLIC "-//W3C//DTD SVG 20010904//EN"
 "http://www.w3.org/TR/2001/REC-SVG-20010904/DTD/svg10.dtd">
<svg version="1.0" xmlns="http://www.w3.org/2000/svg"
 width="248.000000pt" height="248.000000pt" viewBox="0 0 248.000000 248.000000"
 preserveAspectRatio="xMidYMid meet">
<metadata>
Created by potrace 1.10, written by Peter Selinger 2001-2011
</metadata>
<g transform="translate(0.000000,248.000000) scale(0.100000,-0.100000)"
fill="#000000" stroke="none">
<path d="M667 2232 c-99 -93 -292 -254 -322 -269 -16 -9 -52 -32 -80 -52 -27
-20 -59 -41 -70 -47 -11 -6 -25 -22 -31 -35 -14 -29 2 -1568 17 -1606 12 -33
63 -32 85 2 15 23 16 59 12 349 l-5 324 101 16 c56 9 137 23 181 31 44 8 146
18 226 22 l147 6 -8 -39 c-4 -21 -15 -79 -24 -129 -9 -49 -22 -115 -27 -145
-6 -30 -24 -99 -40 -154 -36 -123 -38 -173 -7 -185 31 -11 54 -3 66 22 16 33
62 202 82 297 67 333 73 376 59 406 l-15 29 -169 -2 c-162 -1 -242 -10 -432
-48 -40 -8 -88 -15 -108 -15 l-35 0 0 99 c0 112 -2 111 95 111 28 0 77 5 110
10 33 6 112 14 175 20 200 17 281 32 295 55 26 39 59 365 54 513 -5 111 -16
127 -87 127 -81 0 -171 -13 -423 -61 -96 -18 -99 -18 -69 3 42 29 191 153 283
236 68 62 87 85 87 106 0 67 -53 68 -123 3z m219 -549 c-8 -192 -20 -293 -37
-304 -7 -4 -56 -10 -108 -14 -53 -4 -141 -13 -196 -20 -55 -8 -139 -17 -187
-20 l-88 -7 0 150 c0 82 -3 176 -6 210 l-7 60 54 10 c30 5 95 17 144 25 50 9
140 25 200 36 100 19 142 24 214 29 l24 2 -7 -157z"/>
</g>
</svg>
