<?xml version="1.0" standalone="no"?>
<!DOCTYPE svg PUBLIC "-//W3C//DTD SVG 20010904//EN"
 "http://www.w3.org/TR/2001/REC-SVG-20010904/DTD/svg10.dtd">
<svg version="1.0" xmlns="http://www.w3.org/2000/svg"
 width="248.000000pt" height="248.000000pt" viewBox="0 0 248.000000 248.000000"
 preserveAspectRatio="xMidYMid meet">
<metadata>
Created by potrace 1.10, written by Peter Selinger 2001-2011
</metadata>
<g transform="translate(0.000000,248.000000) scale(0.100000,-0.100000)"
fill="#000000" stroke="none">
<path d="M728 2323 c-8 -10 -25 -43 -37 -73 -36 -85 -112 -229 -137 -260 -13
-15 -55 -74 -93 -131 -70 -104 -119 -172 -176 -245 -53 -68 -226 -273 -236
-279 -13 -9 -11 -59 3 -73 20 -20 58 -13 85 16 34 36 192 221 221 258 l23 29
-4 -687 c-3 -501 -1 -693 7 -710 17 -34 60 -36 81 -4 15 22 17 105 24 793 l6
768 58 84 c32 46 69 98 82 115 61 80 175 321 175 370 0 44 -53 63 -82 29z"/>
<path d="M1855 1839 c-68 -9 -251 -36 -340 -49 -33 -5 -112 -16 -175 -25 -63
-8 -142 -20 -175 -25 -33 -5 -100 -12 -150 -16 -49 -3 -100 -13 -112 -20 -31
-20 -30 -59 2 -80 27 -18 66 -15 330 21 61 8 142 19 180 24 39 5 147 21 240
35 94 14 214 29 267 34 106 10 131 22 126 61 -6 48 -60 59 -193 40z"/>
<path d="M1815 584 c-16 -2 -154 -8 -305 -14 -151 -5 -324 -15 -385 -20 -60
-6 -183 -14 -273 -19 -175 -10 -202 -18 -202 -66 0 -43 19 -48 167 -41 221 11
239 12 428 24 321 20 635 32 865 32 245 0 270 5 270 55 0 51 -23 55 -290 53
-135 0 -258 -3 -275 -4z"/>
</g>
</svg>
