<?xml version="1.0" standalone="no"?>
<!DOCTYPE svg PUBLIC "-//W3C//DTD SVG 20010904//EN"
 "http://www.w3.org/TR/2001/REC-SVG-20010904/DTD/svg10.dtd">
<svg version="1.0" xmlns="http://www.w3.org/2000/svg"
 width="248.000000pt" height="248.000000pt" viewBox="0 0 248.000000 248.000000"
 preserveAspectRatio="xMidYMid meet">
<metadata>
Created by potrace 1.11, written by Peter Selinger 2001-2013
</metadata>
<g transform="translate(0.000000,248.000000) scale(0.100000,-0.100000)"
fill="#000000" stroke="none">
<path d="M577 2343 c-4 -3 -7 -83 -7 -177 0 -94 -3 -221 -7 -283 l-6 -112 -56
-11 c-31 -6 -72 -15 -91 -20 -20 -5 -76 -12 -126 -14 -112 -7 -124 -11 -124
-46 0 -49 31 -65 124 -63 44 2 110 10 146 18 121 29 110 31 105 -19 -2 -24
-11 -59 -19 -77 -8 -19 -26 -72 -40 -119 -58 -200 -98 -323 -132 -406 -19 -49
-58 -150 -84 -224 -27 -74 -58 -157 -68 -185 -27 -67 -14 -97 37 -93 34 3 36
5 72 93 21 50 49 124 64 165 14 41 44 120 66 175 22 55 51 134 63 175 13 41
30 95 37 120 12 40 15 -16 19 -501 5 -585 5 -579 56 -579 54 0 54 -5 55 620 1
316 4 606 8 644 l6 69 44 -64 c25 -35 78 -108 119 -161 62 -81 80 -98 101 -98
66 0 67 54 5 134 -72 91 -202 273 -217 303 -33 65 -32 70 20 82 26 6 85 15
131 20 45 5 89 14 97 21 24 20 18 57 -11 77 -27 17 -48 16 -251 -13 l-43 -7 7
229 c6 239 2 293 -23 319 -16 15 -65 21 -77 8z"/>
<path d="M2050 2075 c-58 -8 -154 -19 -215 -25 -60 -6 -177 -18 -260 -26 -82
-9 -201 -17 -264 -20 -130 -4 -147 -8 -153 -32 -19 -70 76 -98 250 -72 37 5
121 14 187 20 370 31 594 59 623 76 22 15 29 48 14 72 -13 20 -68 22 -182 7z"/>
</g>
</svg>
