<?xml version="1.0" standalone="no"?>
<!DOCTYPE svg PUBLIC "-//W3C//DTD SVG 20010904//EN"
 "http://www.w3.org/TR/2001/REC-SVG-20010904/DTD/svg10.dtd">
<svg version="1.0" xmlns="http://www.w3.org/2000/svg"
 width="248.000000pt" height="248.000000pt" viewBox="0 0 248.000000 248.000000"
 preserveAspectRatio="xMidYMid meet">
<metadata>
Created by potrace 1.10, written by Peter Selinger 2001-2011
</metadata>
<g transform="translate(0.000000,248.000000) scale(0.100000,-0.100000)"
fill="#000000" stroke="none">
<path d="M860 1815 c-8 -2 -78 -14 -155 -25 -77 -12 -185 -30 -240 -41 -55
-10 -141 -22 -190 -25 -98 -7 -115 -15 -115 -49 0 -43 32 -58 121 -56 45 0
107 7 138 15 31 8 79 18 106 21 28 4 113 18 191 31 78 13 157 24 177 24 20 0
47 4 61 10 31 11 45 55 25 76 -14 14 -91 26 -119 19z"/>
</g>
</svg>
