<?xml version="1.0" standalone="no"?>
<!DOCTYPE svg PUBLIC "-//W3C//DTD SVG 20010904//EN"
 "http://www.w3.org/TR/2001/REC-SVG-20010904/DTD/svg10.dtd">
<svg version="1.0" xmlns="http://www.w3.org/2000/svg"
 width="248.000000pt" height="248.000000pt" viewBox="0 0 248.000000 248.000000"
 preserveAspectRatio="xMidYMid meet">
<metadata>
Created by potrace 1.10, written by Peter Selinger 2001-2011
</metadata>
<g transform="translate(0.000000,248.000000) scale(0.100000,-0.100000)"
fill="#000000" stroke="none">
<path d="M1152 2350 c-76 -137 -400 -508 -801 -919 -157 -161 -287 -302 -289
-313 -5 -28 16 -48 49 -48 25 0 66 37 270 243 231 231 320 326 491 523 42 49
117 134 165 189 49 55 103 121 121 148 18 26 39 47 46 47 8 0 25 -15 39 -32
13 -18 67 -76 118 -129 52 -53 139 -147 194 -210 129 -147 323 -346 439 -448
178 -157 348 -291 370 -291 29 0 46 18 46 48 0 29 -29 58 -193 189 -154 125
-408 371 -573 559 -71 80 -185 203 -253 272 -68 70 -134 144 -147 165 -31 48
-67 51 -92 7z"/>
<path d="M1082 1698 c-23 -23 -13 -59 25 -91 21 -18 73 -69 117 -114 78 -83
107 -98 134 -71 7 7 12 26 12 43 0 25 -17 47 -109 138 -88 85 -116 107 -138
107 -16 0 -34 -5 -41 -12z"/>
<path d="M1440 1210 c-385 -12 -801 -52 -836 -81 -19 -15 -18 -53 2 -70 18
-15 128 -14 209 1 94 18 445 40 627 40 l183 -1 -100 -97 c-55 -53 -163 -142
-239 -196 -131 -94 -140 -98 -152 -80 -7 10 -23 34 -36 52 -39 55 -99 55 -106
-1 -3 -25 9 -44 238 -366 19 -27 43 -63 52 -80 31 -56 88 -37 88 29 0 38 -11
57 -104 180 -40 53 -52 77 -45 86 5 7 67 53 137 103 210 150 432 371 432 430
0 58 -16 60 -350 51z"/>
</g>
</svg>
