<?xml version="1.0" standalone="no"?>
<!DOCTYPE svg PUBLIC "-//W3C//DTD SVG 20010904//EN"
 "http://www.w3.org/TR/2001/REC-SVG-20010904/DTD/svg10.dtd">
<svg version="1.0" xmlns="http://www.w3.org/2000/svg"
 width="248.000000pt" height="248.000000pt" viewBox="0 0 248.000000 248.000000"
 preserveAspectRatio="xMidYMid meet">
<metadata>
Created by potrace 1.10, written by Peter Selinger 2001-2011
</metadata>
<g transform="translate(0.000000,248.000000) scale(0.100000,-0.100000)"
fill="#000000" stroke="none">
<path d="M1152 2350 c-76 -137 -399 -507 -801 -919 -157 -161 -287 -302 -289
-313 -5 -28 16 -48 49 -48 25 0 66 37 270 243 232 232 320 326 494 527 44 50
116 133 161 183 100 114 194 241 204 277 11 39 -9 74 -43 78 -22 3 -31 -3 -45
-28z"/>
</g>
</svg>
