<?xml version="1.0" standalone="no"?>
<!DOCTYPE svg PUBLIC "-//W3C//DTD SVG 20010904//EN"
 "http://www.w3.org/TR/2001/REC-SVG-20010904/DTD/svg10.dtd">
<svg version="1.0" xmlns="http://www.w3.org/2000/svg"
 width="248.000000pt" height="248.000000pt" viewBox="0 0 248.000000 248.000000"
 preserveAspectRatio="xMidYMid meet">
<metadata>
Created by potrace 1.10, written by Peter Selinger 2001-2011
</metadata>
<g transform="translate(0.000000,248.000000) scale(0.100000,-0.100000)"
fill="#000000" stroke="none">
<path d="M602 2208 c-26 -26 -13 -61 40 -107 28 -25 76 -72 106 -103 41 -44
62 -58 83 -58 28 0 49 23 49 54 0 19 -89 116 -163 178 -58 48 -92 59 -115 36z"/>
<path d="M1059 1856 c-5 -5 -174 -33 -244 -40 -95 -10 -210 -27 -285 -41 -108
-20 -214 -35 -252 -35 -85 0 -74 -92 12 -101 31 -4 120 7 220 27 41 8 109 19
150 25 41 5 127 17 190 25 63 8 146 19 184 24 76 9 96 24 96 70 0 14 -5 31
-12 38 -11 11 -50 17 -59 8z"/>
</g>
</svg>
