<?xml version="1.0" standalone="no"?>
<!DOCTYPE svg PUBLIC "-//W3C//DTD SVG 20010904//EN"
 "http://www.w3.org/TR/2001/REC-SVG-20010904/DTD/svg10.dtd">
<svg version="1.0" xmlns="http://www.w3.org/2000/svg"
 width="248.000000pt" height="248.000000pt" viewBox="0 0 248.000000 248.000000"
 preserveAspectRatio="xMidYMid meet">
<metadata>
Created by potrace 1.10, written by Peter Selinger 2001-2011
</metadata>
<g transform="translate(0.000000,248.000000) scale(0.100000,-0.100000)"
fill="#000000" stroke="none">
<path d="M602 2208 c-26 -26 -13 -61 40 -107 28 -25 76 -72 106 -103 41 -44
62 -58 83 -58 28 0 49 23 49 54 0 19 -89 116 -163 178 -58 48 -92 59 -115 36z"/>
<path d="M2189 1976 c-2 -2 -76 -10 -164 -16 -88 -7 -227 -23 -309 -36 -81
-13 -176 -24 -210 -24 -79 0 -111 -16 -111 -55 0 -56 49 -65 222 -39 58 8 106
14 108 12 12 -13 12 -411 0 -723 -19 -481 -19 -801 -2 -835 17 -34 60 -39 81
-8 14 19 16 59 16 263 0 132 7 411 14 620 9 242 12 438 7 540 -5 88 -8 161 -7
161 1 1 86 9 189 17 158 12 193 18 215 34 34 25 39 49 16 74 -15 17 -54 26
-65 15z"/>
<path d="M1059 1856 c-5 -5 -174 -33 -244 -40 -95 -10 -210 -27 -285 -41 -108
-20 -214 -35 -252 -35 -39 0 -58 -15 -58 -45 0 -64 75 -71 290 -29 41 8 109
19 150 25 41 5 127 17 190 25 63 8 146 19 184 24 76 9 96 24 96 70 0 14 -5 31
-12 38 -11 11 -50 17 -59 8z"/>
<path d="M700 1479 c-52 -9 -118 -18 -145 -18 -63 -1 -97 -23 -93 -59 4 -38
41 -54 108 -47 91 10 282 45 301 55 24 13 33 45 19 70 -13 25 -56 25 -190 -1z"/>
<path d="M820 1210 c-19 -4 -102 -19 -184 -34 -82 -14 -155 -31 -162 -37 -23
-19 -17 -57 12 -75 24 -16 34 -15 202 15 201 37 226 45 230 82 5 42 -36 62
-98 49z"/>
<path d="M765 929 c-33 -5 -91 -14 -130 -20 -38 -7 -105 -15 -148 -19 -60 -5
-83 -11 -99 -28 -21 -21 -22 -23 -10 -174 7 -84 12 -202 12 -263 0 -164 12
-224 52 -258 l33 -29 140 7 c225 10 303 18 319 35 16 17 31 186 42 475 7 174
-1 240 -30 264 -20 17 -108 21 -181 10z m101 -286 c-3 -104 -9 -229 -13 -280
-5 -86 -7 -92 -30 -98 -50 -12 -308 -23 -314 -13 -3 5 -9 96 -12 201 -4 106
-10 221 -13 257 l-6 66 98 17 c152 25 215 34 258 36 l39 1 -7 -187z"/>
</g>
</svg>
