<?xml version="1.0" standalone="no"?>
<!DOCTYPE svg PUBLIC "-//W3C//DTD SVG 20010904//EN"
 "http://www.w3.org/TR/2001/REC-SVG-20010904/DTD/svg10.dtd">
<svg version="1.0" xmlns="http://www.w3.org/2000/svg"
 width="248.000000pt" height="248.000000pt" viewBox="0 0 248.000000 248.000000"
 preserveAspectRatio="xMidYMid meet">
<metadata>
Created by potrace 1.10, written by Peter Selinger 2001-2011
</metadata>
<g transform="translate(0.000000,248.000000) scale(0.100000,-0.100000)"
fill="#000000" stroke="none">
<path d="M467 2379 c-13 -18 -15 -51 -10 -219 7 -226 17 -202 -97 -219 -36 -5
-101 -15 -145 -21 -93 -14 -125 -31 -125 -65 0 -41 34 -55 110 -45 108 15 201
30 227 36 l25 7 -7 -354 c-5 -242 -11 -358 -19 -366 -6 -6 -69 -42 -141 -79
-153 -78 -155 -80 -155 -109 0 -33 24 -49 66 -42 34 6 137 54 212 99 l32 20 0
-332 0 -332 -45 60 c-53 72 -77 89 -111 73 -35 -16 -32 -60 8 -109 18 -21 60
-85 93 -141 61 -102 81 -120 123 -107 40 13 42 39 42 501 l0 443 43 25 c23 14
83 46 132 72 110 58 115 62 115 90 0 23 -28 55 -50 55 -7 0 -64 -27 -126 -60
l-114 -60 0 119 c0 65 3 213 7 330 6 194 8 213 25 222 11 6 65 19 120 30 56
11 108 25 115 31 22 18 12 61 -18 75 -25 12 -98 4 -203 -23 l-23 -5 -6 181
c-4 113 -12 192 -20 209 -16 35 -59 40 -80 10z"/>
<path d="M1184 2295 c-13 -20 -15 -50 -12 -184 l3 -160 -62 -11 c-34 -6 -94
-14 -133 -19 -39 -5 -77 -15 -85 -21 -23 -19 -18 -58 10 -76 23 -15 34 -15
142 1 65 9 121 19 125 21 5 3 8 -66 8 -153 0 -87 3 -167 6 -179 5 -18 0 -22
-38 -27 -24 -4 -100 -15 -170 -25 -70 -10 -134 -25 -143 -32 -23 -19 -19 -57
9 -75 25 -16 17 -17 246 16 100 14 228 38 265 49 27 8 82 17 298 50 69 10 89
24 85 59 -5 47 -44 55 -161 36 -139 -23 -254 -44 -272 -51 -13 -5 -15 18 -15
174 l0 180 88 20 c48 11 99 25 114 31 31 12 43 42 28 71 -13 24 -57 26 -145 5
-103 -25 -95 -36 -95 133 0 117 -3 152 -16 170 -21 30 -59 29 -80 -3z"/>
</g>
</svg>
