<?xml version="1.0" standalone="no"?>
<!DOCTYPE svg PUBLIC "-//W3C//DTD SVG 20010904//EN"
 "http://www.w3.org/TR/2001/REC-SVG-20010904/DTD/svg10.dtd">
<svg version="1.0" xmlns="http://www.w3.org/2000/svg"
 width="248.000000pt" height="248.000000pt" viewBox="0 0 248.000000 248.000000"
 preserveAspectRatio="xMidYMid meet">
<metadata>
Created by potrace 1.10, written by Peter Selinger 2001-2011
</metadata>
<g transform="translate(0.000000,248.000000) scale(0.100000,-0.100000)"
fill="#000000" stroke="none">
<path d="M467 2379 c-13 -18 -15 -51 -10 -219 7 -226 17 -202 -97 -219 -36 -5
-101 -15 -145 -21 -93 -14 -125 -31 -125 -65 0 -41 34 -55 110 -45 108 15 201
30 227 36 l25 7 -7 -354 c-5 -242 -11 -358 -19 -366 -6 -6 -69 -42 -141 -79
-153 -78 -155 -80 -155 -109 0 -33 24 -49 66 -42 34 6 137 54 212 99 l32 20 0
-332 0 -332 -45 60 c-53 72 -77 89 -111 73 -35 -16 -32 -60 8 -109 18 -21 60
-85 93 -141 61 -102 81 -120 123 -107 40 13 42 39 42 501 l0 443 43 25 c23 14
83 46 132 72 110 58 115 62 115 90 0 23 -28 55 -50 55 -7 0 -64 -27 -126 -60
l-114 -60 0 119 c0 65 3 213 7 330 6 194 8 213 25 222 11 6 65 19 120 30 56
11 108 25 115 31 22 18 12 61 -18 75 -25 12 -98 4 -203 -23 l-23 -5 -6 181
c-4 113 -12 192 -20 209 -16 35 -59 40 -80 10z"/>
<path d="M1419 2006 c-7 -8 -351 -75 -432 -85 -43 -5 -84 -15 -92 -21 -23 -19
-18 -58 10 -76 22 -14 35 -15 112 -4 103 14 352 64 436 87 66 18 86 41 68 79
-9 20 -18 24 -54 24 -24 0 -46 -2 -48 -4z"/>
</g>
</svg>
