<?xml version="1.0" standalone="no"?>
<!DOCTYPE svg PUBLIC "-//W3C//DTD SVG 20010904//EN"
 "http://www.w3.org/TR/2001/REC-SVG-20010904/DTD/svg10.dtd">
<svg version="1.0" xmlns="http://www.w3.org/2000/svg"
 width="248.000000pt" height="248.000000pt" viewBox="0 0 248.000000 248.000000"
 preserveAspectRatio="xMidYMid meet">
<metadata>
Created by potrace 1.10, written by Peter Selinger 2001-2011
</metadata>
<g transform="translate(0.000000,248.000000) scale(0.100000,-0.100000)"
fill="#000000" stroke="none">
<path d="M710 2009 c-25 -5 -83 -18 -130 -29 -47 -10 -116 -23 -155 -29 -38
-6 -119 -18 -180 -27 -60 -9 -120 -23 -132 -31 -30 -17 -30 -57 -1 -77 22 -16
41 -15 158 4 30 5 100 17 155 26 55 9 136 24 180 34 44 11 106 24 139 29 68
12 86 24 86 56 0 43 -46 59 -120 44z"/>
</g>
</svg>
