<?xml version="1.0" standalone="no"?>
<!DOCTYPE svg PUBLIC "-//W3C//DTD SVG 20010904//EN"
 "http://www.w3.org/TR/2001/REC-SVG-20010904/DTD/svg10.dtd">
<svg version="1.0" xmlns="http://www.w3.org/2000/svg"
 width="248.000000pt" height="248.000000pt" viewBox="0 0 248.000000 248.000000"
 preserveAspectRatio="xMidYMid meet">
<metadata>
Created by potrace 1.10, written by Peter Selinger 2001-2011
</metadata>
<g transform="translate(0.000000,248.000000) scale(0.100000,-0.100000)"
fill="#000000" stroke="none">
<path d="M1117 2277 c-91 -91 -284 -246 -342 -273 -27 -12 -90 -28 -140 -35
-49 -7 -96 -16 -102 -22 -18 -13 -17 -107 2 -192 8 -38 27 -128 41 -200 39
-197 41 -204 71 -211 33 -9 57 6 61 38 2 14 -10 92 -27 174 -42 213 -55 293
-49 300 10 10 261 53 311 54 l47 0 0 -97 c0 -131 33 -382 51 -394 30 -19 58
-8 78 28 9 18 8 46 -3 125 -8 57 -16 159 -18 228 l-3 124 130 18 c133 17 476
48 539 48 l36 0 0 -62 c0 -74 -24 -264 -47 -365 -19 -82 -11 -103 37 -103 42
0 60 28 70 116 5 43 11 86 14 94 11 32 36 226 36 285 0 89 -14 121 -58 136
-46 15 -271 -1 -601 -42 -128 -17 -240 -29 -248 -27 -9 2 9 23 48 55 35 28 94
83 132 121 67 71 82 103 55 130 -26 26 -59 13 -121 -51z"/>
</g>
</svg>
