<?xml version="1.0" standalone="no"?>
<!DOCTYPE svg PUBLIC "-//W3C//DTD SVG 20010904//EN"
 "http://www.w3.org/TR/2001/REC-SVG-20010904/DTD/svg10.dtd">
<svg version="1.0" xmlns="http://www.w3.org/2000/svg"
 width="248.000000pt" height="248.000000pt" viewBox="0 0 248.000000 248.000000"
 preserveAspectRatio="xMidYMid meet">
<metadata>
Created by potrace 1.10, written by Peter Selinger 2001-2011
</metadata>
<g transform="translate(0.000000,248.000000) scale(0.100000,-0.100000)"
fill="#000000" stroke="none">
<path d="M1117 2277 c-91 -91 -284 -246 -342 -273 -27 -12 -90 -28 -140 -35
-49 -7 -96 -16 -102 -22 -18 -13 -17 -107 2 -192 37 -170 75 -369 71 -372 -5
-5 -112 -23 -166 -28 -39 -4 -99 -12 -226 -31 -60 -9 -73 -67 -21 -92 23 -11
47 -10 160 7 72 12 184 25 249 31 64 5 122 12 130 15 7 3 72 12 143 20 72 8
170 19 219 25 49 6 91 9 93 6 13 -13 -60 -110 -235 -311 -73 -84 -93 -112 -90
-132 2 -14 10 -30 19 -36 31 -20 66 3 145 94 43 50 96 109 116 132 l37 42 1
-220 c1 -121 5 -338 9 -481 10 -292 15 -319 66 -319 51 0 54 20 45 305 -15
440 -14 870 2 910 7 19 17 38 21 41 5 3 54 11 110 18 56 7 152 19 212 26 61 8
234 19 385 25 302 13 324 17 318 68 -6 49 -34 54 -250 42 -106 -5 -203 -10
-215 -10 -20 0 -23 5 -23 43 0 23 4 58 10 77 16 61 40 241 40 305 0 89 -14
121 -58 136 -46 15 -271 -1 -601 -42 -128 -17 -240 -29 -248 -27 -9 2 9 23 48
55 35 28 94 83 132 121 67 71 82 103 55 130 -26 26 -59 13 -121 -51z m683
-349 c0 -110 -39 -368 -60 -393 -9 -11 -107 -28 -237 -40 l-63 -6 0 239 0 240
118 9 c64 6 145 11 180 11 l62 2 0 -62z m-470 -218 l0 -239 -32 -5 c-18 -3
-60 -10 -92 -16 -81 -14 -89 -13 -82 6 3 9 0 62 -8 117 -8 56 -16 158 -18 227
l-3 125 85 11 c47 6 100 12 118 13 l32 1 0 -240z m-340 102 c0 -54 7 -148 16
-210 8 -62 14 -127 12 -145 l-3 -32 -100 -11 c-55 -6 -123 -14 -150 -18 l-51
-7 -32 163 c-47 243 -56 297 -50 304 11 10 252 52 306 53 l52 1 0 -98z"/>
<path d="M755 1188 c-123 -173 -200 -267 -342 -419 -46 -48 -83 -92 -83 -97 0
-5 8 -20 18 -32 38 -47 98 -2 280 210 185 216 238 310 200 348 -19 19 -56 14
-73 -10z"/>
<path d="M803 685 c-10 -13 -29 -40 -43 -60 -14 -20 -47 -65 -75 -100 -27 -35
-63 -81 -78 -103 -15 -21 -84 -94 -153 -161 -68 -68 -124 -128 -124 -133 0
-29 23 -48 58 -48 34 0 46 9 161 128 175 180 341 400 341 451 0 53 -55 70 -87
26z"/>
</g>
</svg>
