<?xml version="1.0" standalone="no"?>
<!DOCTYPE svg PUBLIC "-//W3C//DTD SVG 20010904//EN"
 "http://www.w3.org/TR/2001/REC-SVG-20010904/DTD/svg10.dtd">
<svg version="1.0" xmlns="http://www.w3.org/2000/svg"
 width="248.000000pt" height="248.000000pt" viewBox="0 0 248.000000 248.000000"
 preserveAspectRatio="xMidYMid meet">
<metadata>
Created by potrace 1.10, written by Peter Selinger 2001-2011
</metadata>
<g transform="translate(0.000000,248.000000) scale(0.100000,-0.100000)"
fill="#000000" stroke="none">
<path d="M1149 2363 c-11 -12 -15 -70 -17 -254 l-3 -237 -87 -6 c-157 -11
-415 -38 -501 -52 -46 -8 -101 -14 -122 -14 -25 0 -46 -8 -63 -22 -26 -23 -26
-23 -15 -113 6 -49 14 -145 18 -212 6 -97 11 -127 26 -143 23 -25 47 -25 70 0
16 18 17 32 10 147 -4 71 -8 153 -9 183 l-1 54 45 8 c73 13 295 38 430 48 69
5 168 14 220 20 127 14 422 29 715 37 l239 6 -34 -44 c-19 -24 -82 -90 -139
-145 -83 -82 -102 -106 -97 -122 10 -30 33 -45 59 -38 56 14 258 222 303 313
23 46 24 55 12 80 -24 51 -67 63 -218 63 -75 0 -205 -4 -290 -9 -85 -6 -224
-13 -307 -16 l-153 -7 0 224 c0 186 -3 227 -16 246 -18 26 -56 29 -75 5z"/>
<path d="M1669 2253 c-102 -123 -149 -186 -149 -204 0 -9 9 -24 20 -34 27 -25
63 -13 96 33 15 20 42 53 60 72 94 103 123 167 92 198 -27 27 -55 12 -119 -65z"/>
<path d="M582 2198 c-22 -22 -13 -55 28 -104 21 -26 53 -74 70 -106 34 -63 67
-86 100 -68 37 20 34 46 -17 132 -80 136 -142 185 -181 146z"/>
<path d="M1225 1630 c-247 -17 -421 -33 -443 -41 -44 -17 -54 -64 -42 -212 14
-174 17 -191 47 -218 22 -22 34 -24 166 -28 214 -6 603 18 628 38 16 13 21 36
29 131 5 63 14 150 20 192 11 90 3 124 -35 138 -29 11 -202 11 -370 0z m301
-122 c-3 -13 -8 -52 -11 -88 -8 -84 -16 -154 -20 -158 -7 -8 -284 -21 -447
-22 l-187 0 -5 33 c-3 17 -8 73 -11 124 -8 109 -30 97 200 113 242 16 242 16
368 18 117 2 117 2 113 -20z"/>
</g>
</svg>
