<?xml version="1.0" standalone="no"?>
<!DOCTYPE svg PUBLIC "-//W3C//DTD SVG 20010904//EN"
 "http://www.w3.org/TR/2001/REC-SVG-20010904/DTD/svg10.dtd">
<svg version="1.0" xmlns="http://www.w3.org/2000/svg"
 width="248.000000pt" height="248.000000pt" viewBox="0 0 248.000000 248.000000"
 preserveAspectRatio="xMidYMid meet">
<metadata>
Created by potrace 1.10, written by Peter Selinger 2001-2011
</metadata>
<g transform="translate(0.000000,248.000000) scale(0.100000,-0.100000)"
fill="#000000" stroke="none">
<path d="M1117 2277 c-76 -77 -253 -221 -321 -263 -54 -32 -71 -69 -45 -100
29 -35 93 -4 249 121 205 166 277 254 238 293 -26 26 -59 13 -121 -51z"/>
<path d="M532 1948 c-17 -17 -15 -109 3 -193 8 -38 27 -128 41 -200 39 -197
41 -204 71 -211 34 -9 57 6 61 39 2 14 -8 81 -22 149 -26 128 -50 260 -61 338
-3 25 -13 55 -21 68 -16 24 -53 29 -72 10z"/>
</g>
</svg>
