<?xml version="1.0" standalone="no"?>
<!DOCTYPE svg PUBLIC "-//W3C//DTD SVG 20010904//EN"
 "http://www.w3.org/TR/2001/REC-SVG-20010904/DTD/svg10.dtd">
<svg version="1.0" xmlns="http://www.w3.org/2000/svg"
 width="248.000000pt" height="248.000000pt" viewBox="0 0 248.000000 248.000000"
 preserveAspectRatio="xMidYMid meet">
<metadata>
Created by potrace 1.10, written by Peter Selinger 2001-2011
</metadata>
<g transform="translate(0.000000,248.000000) scale(0.100000,-0.100000)"
fill="#000000" stroke="none">
<path d="M1149 2363 c-11 -12 -15 -70 -17 -254 l-3 -237 -87 -6 c-157 -11
-415 -38 -501 -52 -46 -8 -101 -14 -122 -14 -25 0 -46 -8 -63 -22 -26 -23 -26
-23 -15 -113 6 -49 14 -145 18 -212 6 -97 11 -127 26 -143 23 -25 47 -25 70 0
16 18 17 32 10 147 -4 71 -8 153 -9 183 l-1 54 45 8 c73 13 295 38 430 48 69
5 168 14 220 20 127 14 422 29 715 37 l239 6 -34 -44 c-19 -24 -82 -90 -139
-145 -83 -82 -102 -106 -97 -122 10 -30 33 -45 59 -38 56 14 258 222 303 313
23 46 24 55 12 80 -24 51 -67 63 -218 63 -75 0 -205 -4 -290 -9 -85 -6 -224
-13 -307 -16 l-153 -7 0 224 c0 186 -3 227 -16 246 -18 26 -56 29 -75 5z"/>
<path d="M1669 2253 c-102 -123 -149 -186 -149 -204 0 -9 9 -24 20 -34 27 -25
63 -13 96 33 15 20 42 53 60 72 94 103 123 167 92 198 -27 27 -55 12 -119 -65z"/>
<path d="M582 2198 c-22 -22 -13 -55 28 -104 21 -26 53 -74 70 -106 34 -63 67
-86 100 -68 37 20 34 46 -17 132 -80 136 -142 185 -181 146z"/>
<path d="M1225 1630 c-247 -17 -421 -33 -443 -41 -44 -17 -54 -64 -42 -212 14
-171 18 -191 43 -215 12 -11 45 -24 72 -29 l51 -8 -11 -90 c-9 -65 -25 -122
-58 -205 -48 -120 -121 -283 -149 -335 -30 -54 -163 -199 -216 -235 -53 -36
-73 -71 -55 -99 39 -62 166 25 308 209 56 74 152 262 185 365 7 22 26 68 41
102 44 99 65 253 37 281 -9 9 19 12 126 12 l138 0 -7 -383 c-7 -335 -6 -390 8
-438 21 -72 55 -102 152 -136 79 -27 82 -28 305 -25 218 2 371 14 437 33 22 7
35 19 42 41 14 40 14 211 0 261 -12 45 -45 65 -78 48 -20 -11 -21 -20 -21
-131 0 -80 -4 -121 -12 -126 -6 -4 -134 -11 -284 -16 -268 -9 -275 -9 -348 13
-64 19 -77 27 -87 51 -9 22 -10 126 -5 421 4 216 9 393 11 395 2 2 49 7 104
11 71 4 105 11 116 22 11 11 19 50 25 130 5 63 14 149 20 191 11 90 3 124 -35
138 -29 11 -202 11 -370 0z m301 -122 c-3 -13 -8 -52 -11 -88 -8 -84 -16 -154
-20 -158 -7 -8 -284 -21 -447 -22 l-187 0 -5 33 c-3 17 -8 73 -11 124 -8 109
-30 97 200 113 242 16 242 16 368 18 117 2 117 2 113 -20z"/>
</g>
</svg>
