<?xml version="1.0" standalone="no"?>
<!DOCTYPE svg PUBLIC "-//W3C//DTD SVG 20010904//EN"
 "http://www.w3.org/TR/2001/REC-SVG-20010904/DTD/svg10.dtd">
<svg version="1.0" xmlns="http://www.w3.org/2000/svg"
 width="248.000000pt" height="248.000000pt" viewBox="0 0 248.000000 248.000000"
 preserveAspectRatio="xMidYMid meet">
<metadata>
Created by potrace 1.10, written by Peter Selinger 2001-2011
</metadata>
<g transform="translate(0.000000,248.000000) scale(0.100000,-0.100000)"
fill="#000000" stroke="none">
<path d="M1383 2348 c-6 -7 -13 -36 -16 -63 -7 -62 -40 -159 -78 -232 -40 -76
-22 -116 46 -99 17 4 34 26 59 77 20 40 36 78 36 85 0 8 20 15 58 19 31 3 94
11 140 17 46 5 86 7 89 4 4 -4 -8 -42 -25 -84 -35 -85 -39 -111 -20 -130 42
-42 94 12 135 139 l28 86 112 10 c121 10 143 20 143 63 0 50 -13 53 -192 41
-90 -7 -194 -16 -233 -21 -38 -5 -98 -12 -132 -15 l-62 -7 1 41 c0 27 -6 49
-17 61 -20 23 -58 26 -72 8z"/>
<path d="M500 2335 c-7 -8 -16 -35 -21 -58 -10 -55 -97 -239 -161 -338 -49
-78 -59 -117 -34 -139 31 -25 60 -7 113 70 28 41 61 96 73 121 l22 46 107 12
c58 6 125 14 149 17 l42 7 30 -66 c33 -74 59 -95 96 -78 30 13 31 49 5 108
-11 23 -17 44 -13 47 3 3 26 6 51 6 62 0 172 19 188 32 21 17 16 66 -7 78 -21
11 -100 8 -235 -10 -84 -11 -218 -27 -299 -35 -54 -6 -58 -5 -52 12 4 10 14
44 22 76 14 53 14 61 0 83 -19 27 -57 32 -76 9z"/>
<path d="M739 1843 c-10 -11 -14 -44 -14 -102 l0 -86 -50 -7 c-27 -3 -91 -7
-140 -7 -101 -1 -135 -15 -135 -56 0 -47 37 -59 158 -51 59 3 122 9 140 12
l32 6 0 -50 0 -50 -67 -6 c-38 -4 -90 -11 -118 -16 -27 -5 -84 -12 -125 -16
-41 -3 -85 -12 -96 -20 -31 -19 -37 -71 -20 -177 8 -50 22 -140 30 -200 9 -59
20 -116 26 -127 16 -30 82 -43 190 -36 52 4 112 9 133 12 l37 6 0 -44 c0 -23
-3 -53 -6 -65 -7 -24 11 -22 -329 -43 -110 -6 -206 -17 -212 -22 -33 -27 -4
-81 49 -90 26 -5 211 4 397 20 l94 8 -6 -238 c-7 -229 -6 -239 13 -258 25 -25
45 -25 70 0 16 16 20 34 21 103 1 45 4 154 8 242 l6 160 35 2 c195 13 413 45
437 65 18 14 16 53 -2 68 -19 16 -43 16 -170 1 -148 -17 -298 -31 -302 -27 -2
1 0 30 3 63 l7 60 127 7 c142 7 156 10 171 37 16 30 60 305 65 409 6 105 -4
137 -46 157 -24 11 -67 9 -247 -13 l-63 -7 0 46 c0 54 -15 47 168 76 131 21
152 30 152 66 0 58 -40 60 -281 19 l-36 -6 -7 73 c-4 41 -14 84 -22 97 -17 26
-56 29 -75 5z m351 -522 c0 -33 -5 -63 -11 -67 -6 -3 -43 -10 -83 -15 -39 -4
-90 -11 -113 -15 l-43 -7 0 71 0 70 58 10 c31 5 87 10 125 11 l67 1 0 -59z
m-360 -41 l0 -70 -48 0 c-27 0 -95 -7 -152 -15 -57 -9 -107 -12 -111 -8 -4 4
-10 33 -14 64 l-7 56 69 7 c53 5 212 26 256 35 4 0 7 -30 7 -69z m336 -156
c-3 -9 -9 -40 -12 -69 -4 -30 -12 -56 -20 -59 -7 -3 -54 -6 -106 -7 l-93 -2 3
59 c2 32 7 62 10 66 4 4 45 11 92 16 130 14 133 14 126 -4z m-336 -78 c0 -53
-3 -66 -17 -70 -10 -3 -73 -8 -140 -12 l-122 -7 -6 24 c-3 13 -6 40 -8 58 -2
34 -1 35 43 43 25 5 88 12 140 17 52 4 98 9 103 10 4 0 7 -28 7 -63z"/>
<path d="M2078 1765 c-2 -2 -58 -11 -123 -19 -66 -8 -201 -29 -300 -45 -99
-17 -196 -31 -215 -31 -20 0 -46 -7 -59 -17 -24 -16 -24 -17 -18 -147 4 -72 2
-255 -3 -406 -13 -348 -1 -771 22 -815 36 -68 87 -91 267 -120 182 -28 281
-29 454 -2 165 26 201 40 217 83 14 37 12 194 -3 224 -15 31 -58 38 -78 14 -9
-11 -16 -51 -19 -108 l-5 -91 -110 -17 c-177 -26 -356 -21 -533 18 -55 12 -76
21 -88 39 -13 20 -15 80 -16 407 0 211 1 484 3 608 l4 225 190 32 c105 18 231
37 280 42 50 6 108 13 129 17 l39 7 -6 -124 c-8 -149 -34 -389 -48 -441 -11
-44 -27 -48 -59 -13 -30 32 -65 32 -86 -1 -16 -24 -16 -27 3 -52 32 -44 102
-92 133 -92 44 0 59 9 79 49 42 82 84 377 85 598 1 120 -1 134 -19 151 -18 18
-106 38 -117 27z"/>
</g>
</svg>
