<?xml version="1.0" standalone="no"?>
<!DOCTYPE svg PUBLIC "-//W3C//DTD SVG 20010904//EN"
 "http://www.w3.org/TR/2001/REC-SVG-20010904/DTD/svg10.dtd">
<svg version="1.0" xmlns="http://www.w3.org/2000/svg"
 width="248.000000pt" height="248.000000pt" viewBox="0 0 248.000000 248.000000"
 preserveAspectRatio="xMidYMid meet">
<metadata>
Created by potrace 1.10, written by Peter Selinger 2001-2011
</metadata>
<g transform="translate(0.000000,248.000000) scale(0.100000,-0.100000)"
fill="#000000" stroke="none">
<path d="M1383 2348 c-6 -7 -13 -36 -16 -63 -7 -62 -40 -159 -78 -232 -21 -39
-26 -59 -20 -76 11 -29 56 -35 83 -10 21 19 78 128 78 151 0 6 3 12 8 12 4 0
67 7 141 16 73 8 136 13 139 9 3 -3 -9 -41 -26 -83 -35 -85 -39 -111 -20 -130
41 -41 96 16 134 137 l28 88 112 10 c64 5 119 15 128 22 23 20 20 68 -5 81
-21 12 -227 1 -399 -20 -41 -5 -103 -12 -137 -15 l-62 -7 1 41 c0 27 -6 49
-17 61 -20 23 -58 26 -72 8z"/>
<path d="M500 2335 c-7 -8 -16 -35 -21 -58 -10 -55 -97 -239 -161 -338 -49
-78 -59 -117 -34 -139 31 -25 60 -7 113 70 28 41 61 96 74 122 l22 46 71 7
c39 3 98 11 131 16 96 14 93 15 126 -56 33 -72 58 -93 95 -76 30 13 31 49 4
109 -10 23 -18 43 -17 43 1 1 52 7 114 13 61 7 119 18 127 25 23 19 20 68 -4
81 -20 11 -106 5 -315 -19 -230 -27 -268 -31 -272 -28 -2 2 4 24 12 48 21 56
23 113 6 133 -17 20 -55 21 -71 1z"/>
<path d="M739 1843 c-10 -11 -14 -44 -14 -102 l0 -86 -45 -7 c-25 -3 -88 -7
-140 -7 -106 -1 -140 -15 -140 -56 0 -47 37 -59 158 -51 59 3 122 9 140 12
l32 6 0 -50 0 -50 -67 -7 c-38 -3 -88 -10 -113 -15 -25 -5 -81 -12 -125 -16
-44 -3 -90 -12 -101 -20 -31 -19 -37 -71 -20 -177 8 -50 22 -140 30 -200 9
-59 20 -116 26 -127 16 -30 81 -42 189 -35 53 3 113 8 134 11 l37 6 0 -54 c0
-29 -4 -58 -8 -64 -8 -13 -42 -17 -327 -34 -110 -7 -206 -17 -212 -22 -20 -16
-15 -53 8 -74 18 -16 35 -18 147 -16 70 2 156 7 192 12 36 5 94 10 129 10 l64
0 -6 -235 c-7 -226 -6 -236 13 -255 25 -25 45 -25 70 0 16 16 20 35 21 98 1
42 5 151 8 242 l6 165 40 2 c22 1 83 7 135 13 276 30 310 40 310 84 0 28 -21
48 -52 49 -13 0 -70 -5 -128 -12 -148 -17 -303 -31 -307 -27 -2 1 0 30 3 63
l7 60 127 7 c142 7 156 10 171 37 16 30 60 305 65 409 6 105 -4 137 -46 157
-25 11 -37 10 -247 -13 l-63 -7 0 46 c0 54 -17 46 170 77 68 12 130 26 137 32
18 14 16 53 -3 69 -24 19 -69 17 -265 -17 l-37 -6 -7 73 c-4 41 -13 84 -21 97
-17 26 -56 29 -75 5z m351 -517 c0 -37 -5 -68 -11 -72 -6 -3 -43 -10 -83 -15
-39 -4 -90 -11 -113 -15 l-43 -7 0 71 0 70 83 11 c45 6 98 13 117 15 19 1 38
4 43 4 4 1 7 -27 7 -62z m-360 -46 l0 -70 -48 0 c-27 0 -95 -7 -152 -15 -57
-9 -107 -12 -111 -8 -4 4 -10 34 -14 66 l-7 57 37 0 c21 0 65 5 99 10 104 17
170 28 184 29 8 1 12 -19 12 -69z m336 -156 c-3 -9 -9 -40 -12 -69 -8 -62 -8
-62 -139 -67 l-80 -3 3 60 c2 33 7 63 10 67 4 4 45 11 92 16 130 14 133 14
126 -4z m-336 -78 c0 -36 -3 -67 -7 -69 -5 -3 -67 -8 -140 -12 l-132 -7 -6 23
c-3 13 -6 40 -8 59 -2 34 -1 34 47 43 27 4 90 12 140 16 50 5 94 9 99 10 4 0
7 -28 7 -63z"/>
</g>
</svg>
