<?xml version="1.0" standalone="no"?>
<!DOCTYPE svg PUBLIC "-//W3C//DTD SVG 20010904//EN"
 "http://www.w3.org/TR/2001/REC-SVG-20010904/DTD/svg10.dtd">
<svg version="1.0" xmlns="http://www.w3.org/2000/svg"
 width="248.000000pt" height="248.000000pt" viewBox="0 0 248.000000 248.000000"
 preserveAspectRatio="xMidYMid meet">
<metadata>
Created by potrace 1.10, written by Peter Selinger 2001-2011
</metadata>
<g transform="translate(0.000000,248.000000) scale(0.100000,-0.100000)"
fill="#000000" stroke="none">
<path d="M1000 2174 c-57 -14 -157 -27 -250 -34 -85 -6 -164 -12 -175 -15 -11
-2 -63 -7 -115 -10 -102 -7 -120 -15 -120 -50 0 -39 22 -47 130 -46 55 1 106
4 112 6 7 2 85 9 173 15 169 11 365 50 398 78 20 17 22 53 5 70 -16 16 -47 14
-158 -14z"/>
</g>
</svg>
