<?xml version="1.0" standalone="no"?>
<!DOCTYPE svg PUBLIC "-//W3C//DTD SVG 20010904//EN"
 "http://www.w3.org/TR/2001/REC-SVG-20010904/DTD/svg10.dtd">
<svg version="1.0" xmlns="http://www.w3.org/2000/svg"
 width="248.000000pt" height="248.000000pt" viewBox="0 0 248.000000 248.000000"
 preserveAspectRatio="xMidYMid meet">
<metadata>
Created by potrace 1.10, written by Peter Selinger 2001-2011
</metadata>
<g transform="translate(0.000000,248.000000) scale(0.100000,-0.100000)"
fill="#000000" stroke="none">
<path d="M1000 2174 c-57 -14 -157 -27 -250 -34 -85 -6 -164 -12 -175 -15 -11
-2 -63 -7 -115 -10 -102 -7 -120 -15 -120 -50 0 -35 23 -46 100 -47 39 0 73
-4 75 -8 13 -21 25 -164 19 -231 l-6 -76 -82 -11 c-88 -11 -272 -50 -296 -62
-19 -9 -25 -47 -10 -66 18 -20 105 -18 198 5 103 26 182 36 182 22 0 -22 -40
-178 -54 -211 -8 -19 -33 -68 -55 -109 -54 -98 -53 -141 5 -141 53 0 154 199
188 371 l23 114 44 6 c24 4 80 10 124 13 44 4 107 11 140 16 60 9 195 19 331
24 84 3 94 8 94 46 0 53 -25 59 -195 49 -82 -4 -188 -13 -235 -19 -122 -14
-293 -31 -295 -28 -2 2 -5 71 -7 155 l-4 152 60 5 c34 3 99 8 146 11 102 7
298 51 323 73 20 17 22 53 5 70 -16 16 -47 14 -158 -14z"/>
</g>
</svg>
