<?xml version="1.0" standalone="no"?>
<!DOCTYPE svg PUBLIC "-//W3C//DTD SVG 20010904//EN"
 "http://www.w3.org/TR/2001/REC-SVG-20010904/DTD/svg10.dtd">
<svg version="1.0" xmlns="http://www.w3.org/2000/svg"
 width="248.000000pt" height="248.000000pt" viewBox="0 0 248.000000 248.000000"
 preserveAspectRatio="xMidYMid meet">
<metadata>
Created by potrace 1.10, written by Peter Selinger 2001-2011
</metadata>
<g transform="translate(0.000000,248.000000) scale(0.100000,-0.100000)"
fill="#000000" stroke="none">
<path d="M1383 2348 c-6 -7 -13 -36 -16 -63 -7 -62 -40 -159 -78 -232 -21 -39
-26 -59 -20 -76 11 -29 56 -35 83 -10 21 19 78 128 78 151 0 6 3 12 8 12 4 0
67 7 141 16 73 8 136 13 139 9 3 -3 -9 -41 -26 -83 -35 -85 -39 -111 -20 -130
41 -41 96 16 134 137 l28 88 112 10 c64 5 119 15 128 22 23 20 20 68 -5 81
-21 12 -227 1 -399 -20 -41 -5 -103 -12 -137 -15 l-62 -7 1 41 c0 27 -6 49
-17 61 -20 23 -58 26 -72 8z"/>
<path d="M500 2335 c-7 -8 -16 -35 -21 -58 -10 -55 -97 -239 -161 -338 -49
-78 -59 -117 -34 -139 31 -25 60 -7 113 70 28 41 61 96 74 122 l22 46 71 7
c39 3 98 11 131 16 96 14 93 15 126 -56 33 -72 58 -93 95 -76 30 13 31 49 4
109 -10 23 -18 43 -17 43 1 1 52 7 114 13 61 7 119 18 127 25 23 19 20 68 -4
81 -20 11 -106 5 -315 -19 -230 -27 -268 -31 -272 -28 -2 2 4 24 12 48 21 56
23 113 6 133 -17 20 -55 21 -71 1z"/>
<path d="M1040 1701 c-19 -5 -73 -13 -120 -20 -47 -6 -134 -18 -193 -26 -59
-8 -147 -15 -195 -15 -98 0 -132 -14 -132 -55 0 -36 35 -55 105 -55 115 -1
617 71 642 91 17 15 17 53 0 68 -20 16 -66 21 -107 12z"/>
</g>
</svg>
