<?xml version="1.0" standalone="no"?>
<!DOCTYPE svg PUBLIC "-//W3C//DTD SVG 20010904//EN"
 "http://www.w3.org/TR/2001/REC-SVG-20010904/DTD/svg10.dtd">
<svg version="1.0" xmlns="http://www.w3.org/2000/svg"
 width="248.000000pt" height="248.000000pt" viewBox="0 0 248.000000 248.000000"
 preserveAspectRatio="xMidYMid meet">
<metadata>
Created by potrace 1.10, written by Peter Selinger 2001-2011
</metadata>
<g transform="translate(0.000000,248.000000) scale(0.100000,-0.100000)"
fill="#000000" stroke="none">
<path d="M1970 2305 c-9 -11 -14 -71 -17 -203 -2 -103 -8 -366 -12 -585 -6
-258 -12 -402 -19 -409 -8 -8 -25 -2 -60 21 -42 27 -54 30 -76 21 -39 -15 -36
-61 7 -93 86 -65 177 -86 210 -49 21 22 24 95 38 776 7 384 7 511 -2 522 -15
19 -53 18 -69 -1z"/>
<path d="M1000 2174 c-57 -14 -157 -27 -250 -34 -85 -6 -164 -12 -175 -15 -11
-2 -63 -7 -115 -10 -102 -7 -120 -15 -120 -50 0 -35 23 -46 100 -47 39 0 73
-4 75 -8 13 -21 25 -164 19 -231 l-6 -76 -82 -11 c-88 -11 -272 -50 -296 -62
-19 -9 -25 -47 -10 -66 18 -20 105 -18 198 5 103 26 182 36 182 22 0 -22 -40
-178 -54 -211 -8 -19 -33 -68 -55 -109 -54 -98 -53 -141 5 -141 53 0 154 199
188 371 l23 114 118 14 c100 12 118 12 126 0 5 -8 9 -127 9 -264 0 -264 2
-275 45 -275 43 0 45 11 45 285 0 143 4 265 8 271 6 11 107 21 288 28 84 4 94
8 94 46 0 52 -26 59 -175 49 -71 -4 -147 -8 -168 -9 l-38 0 3 153 3 152 76 20
c85 22 109 37 109 69 0 52 -28 55 -170 20z m-112 -189 c1 -33 -1 -100 -5 -150
l-8 -90 -55 -6 c-30 -4 -85 -10 -121 -13 l-67 -6 -4 152 c-2 84 -3 154 -2 156
3 4 211 20 239 18 17 -1 20 -9 23 -61z"/>
<path d="M1503 2070 c-13 -5 -23 -13 -24 -17 0 -4 -2 -64 -5 -133 -2 -69 -8
-208 -13 -310 -10 -203 -5 -230 43 -230 36 0 51 27 52 89 0 102 15 465 20 518
4 43 1 56 -16 73 -22 22 -25 23 -57 10z"/>
</g>
</svg>
