<?xml version="1.0" standalone="no"?>
<!DOCTYPE svg PUBLIC "-//W3C//DTD SVG 20010904//EN"
 "http://www.w3.org/TR/2001/REC-SVG-20010904/DTD/svg10.dtd">
<svg version="1.0" xmlns="http://www.w3.org/2000/svg"
 width="248.000000pt" height="248.000000pt" viewBox="0 0 248.000000 248.000000"
 preserveAspectRatio="xMidYMid meet">
<metadata>
Created by potrace 1.10, written by Peter Selinger 2001-2011
</metadata>
<g transform="translate(0.000000,248.000000) scale(0.100000,-0.100000)"
fill="#000000" stroke="none">
<path d="M692 2178 c-19 -34 -114 -182 -208 -321 -32 -48 -82 -122 -111 -165
-49 -72 -156 -225 -230 -329 -18 -25 -33 -56 -33 -69 0 -28 33 -48 63 -40 33
9 142 161 460 639 l112 168 45 -52 c73 -86 351 -355 405 -394 53 -37 90 -42
108 -14 17 28 -1 67 -47 98 -60 41 -384 366 -420 421 -48 73 -67 90 -98 90
-22 0 -33 -7 -46 -32z"/>
<path d="M895 1644 c-11 -3 -56 -13 -100 -23 -123 -30 -237 -51 -271 -51 -72
0 -100 -70 -40 -99 29 -13 84 -9 184 16 22 5 22 5 22 -115 l0 -120 -47 -10
c-27 -6 -70 -13 -98 -17 -94 -12 -249 -46 -263 -57 -22 -18 -10 -61 20 -76 23
-11 41 -10 105 2 99 20 254 46 271 46 9 0 12 -83 12 -379 0 -416 0 -416 59
-409 49 6 51 22 51 434 l0 382 68 11 c312 54 310 54 318 88 9 33 -6 57 -37 61
-13 1 -97 -11 -186 -26 l-163 -28 0 95 c0 53 -3 106 -6 118 -5 19 0 24 47 37
29 9 71 16 93 16 60 0 91 19 91 55 0 45 -53 64 -130 49z"/>
<path d="M322 808 c-26 -26 -12 -58 58 -138 39 -44 79 -84 90 -90 25 -14 63
-13 78 2 25 25 10 55 -78 146 -89 93 -119 109 -148 80z"/>
</g>
</svg>
