<?xml version="1.0" standalone="no"?>
<!DOCTYPE svg PUBLIC "-//W3C//DTD SVG 20010904//EN"
 "http://www.w3.org/TR/2001/REC-SVG-20010904/DTD/svg10.dtd">
<svg version="1.0" xmlns="http://www.w3.org/2000/svg"
 width="248.000000pt" height="248.000000pt" viewBox="0 0 248.000000 248.000000"
 preserveAspectRatio="xMidYMid meet">
<metadata>
Created by potrace 1.10, written by Peter Selinger 2001-2011
</metadata>
<g transform="translate(0.000000,248.000000) scale(0.100000,-0.100000)"
fill="#000000" stroke="none">
<path d="M1902 2437 c-8 -9 -8 -78 -2 -232 5 -121 9 -252 10 -291 l0 -71 -67
-7 c-38 -3 -102 -10 -143 -16 -41 -5 -122 -9 -180 -10 -119 0 -153 -12 -158
-52 -2 -20 4 -31 23 -44 23 -15 44 -16 163 -11 75 4 162 11 193 16 30 5 82 11
115 12 l59 3 7 -165 c24 -580 35 -1304 21 -1312 -5 -3 -43 22 -87 54 -84 64
-127 75 -146 40 -5 -11 -10 -27 -10 -35 0 -9 46 -50 103 -91 56 -41 116 -86
133 -100 35 -28 61 -32 88 -12 39 28 43 356 16 1167 -5 162 -12 331 -14 376
l-5 80 135 11 c74 6 141 17 149 23 19 16 19 64 1 79 -11 9 -51 10 -149 5
l-134 -7 -6 84 c-4 46 -7 145 -7 220 0 144 -12 240 -36 277 -16 24 -55 30 -72
9z"/>
<path d="M731 2396 c-8 -10 -13 -84 -16 -228 -2 -117 -6 -257 -11 -310 l-7
-98 -61 -1 c-119 -1 -344 -25 -360 -38 -24 -20 -20 -58 9 -77 23 -15 38 -15
144 -5 66 6 142 11 170 11 61 0 61 1 32 -135 -18 -85 -190 -525 -254 -650 -14
-27 -37 -79 -52 -115 -15 -35 -46 -98 -70 -140 -117 -207 -130 -253 -77 -267
46 -11 60 6 176 234 93 181 135 276 243 538 l94 230 -7 -547 c-6 -504 -5 -550
10 -573 13 -19 24 -25 44 -23 48 5 52 30 53 318 1 146 5 413 8 593 l6 329 49
-67 c70 -95 148 -185 233 -268 90 -88 106 -96 133 -72 37 33 26 62 -57 144
-148 147 -363 420 -363 461 0 13 29 19 173 37 96 11 184 26 195 32 15 8 22 21
22 40 0 50 -16 55 -142 41 -62 -7 -142 -14 -177 -17 l-63 -5 8 183 c13 263 9
405 -11 435 -17 27 -56 32 -74 10z"/>
</g>
</svg>
