<?xml version="1.0" standalone="no"?>
<!DOCTYPE svg PUBLIC "-//W3C//DTD SVG 20010904//EN"
 "http://www.w3.org/TR/2001/REC-SVG-20010904/DTD/svg10.dtd">
<svg version="1.0" xmlns="http://www.w3.org/2000/svg"
 width="248.000000pt" height="248.000000pt" viewBox="0 0 248.000000 248.000000"
 preserveAspectRatio="xMidYMid meet">
<metadata>
Created by potrace 1.10, written by Peter Selinger 2001-2011
</metadata>
<g transform="translate(0.000000,248.000000) scale(0.100000,-0.100000)"
fill="#000000" stroke="none">
<path d="M740 2317 c-30 -4 -110 -21 -177 -38 -67 -16 -140 -29 -162 -29 -23
0 -48 -8 -62 -19 -23 -18 -23 -19 -21 -252 1 -129 -2 -283 -8 -344 -6 -60 -15
-189 -20 -285 -26 -478 -84 -888 -149 -1056 -35 -89 -38 -116 -15 -138 38 -38
70 -9 113 105 68 178 133 630 161 1134 5 94 14 222 20 285 5 63 9 194 9 290
l-2 175 24 3 c13 2 65 14 114 26 50 13 113 27 142 31 l52 7 -5 -464 c-3 -254
-9 -656 -14 -893 -6 -236 -10 -465 -10 -507 0 -76 0 -77 -22 -69 -47 18 -85
-19 -68 -65 12 -32 88 -94 114 -94 28 0 53 22 68 59 14 36 26 443 37 1329 6
438 6 763 1 776 -12 32 -54 44 -120 33z"/>
</g>
</svg>
