<?xml version="1.0" standalone="no"?>
<!DOCTYPE svg PUBLIC "-//W3C//DTD SVG 20010904//EN"
 "http://www.w3.org/TR/2001/REC-SVG-20010904/DTD/svg10.dtd">
<svg version="1.0" xmlns="http://www.w3.org/2000/svg"
 width="248.000000pt" height="248.000000pt" viewBox="0 0 248.000000 248.000000"
 preserveAspectRatio="xMidYMid meet">
<metadata>
Created by potrace 1.10, written by Peter Selinger 2001-2011
</metadata>
<g transform="translate(0.000000,248.000000) scale(0.100000,-0.100000)"
fill="#000000" stroke="none">
<path d="M740 2317 c-30 -4 -110 -21 -177 -38 -67 -16 -140 -29 -162 -29 -23
0 -48 -8 -62 -19 -23 -18 -23 -19 -21 -252 1 -129 -2 -283 -8 -344 -6 -60 -15
-189 -20 -285 -26 -478 -84 -888 -149 -1056 -17 -44 -31 -89 -31 -101 0 -25
24 -53 46 -53 66 0 143 265 189 652 10 81 21 152 25 158 4 6 22 14 40 16 18 3
45 10 59 16 49 19 271 76 272 70 1 -20 -2 -241 -7 -494 -7 -286 -7 -286 -28
-278 -45 17 -82 -20 -66 -66 12 -32 88 -94 114 -94 28 0 53 22 68 59 14 36 26
443 37 1329 6 438 6 763 1 776 -12 32 -54 44 -120 33z m17 -309 c-4 -112 -7
-248 -7 -304 l0 -100 -57 -11 c-32 -5 -109 -24 -172 -41 l-114 -30 7 56 c4 31
9 172 12 312 5 254 5 255 27 258 12 2 65 14 117 27 100 26 130 31 169 34 l24
1 -6 -202z m-9 -675 l-3 -166 -125 -33 c-69 -18 -148 -41 -177 -51 -29 -9 -56
-14 -60 -10 -3 4 -1 65 5 135 7 70 12 145 12 167 l0 40 133 33 c72 18 146 37
162 42 58 16 56 23 53 -157z"/>
<path d="M1322 2288 c-13 -17 1 -553 16 -590 6 -14 20 -29 31 -33 26 -8 61 11
62 33 0 9 0 109 -1 222 -1 227 -12 335 -37 362 -19 21 -56 24 -71 6z"/>
</g>
</svg>
