<?xml version="1.0" standalone="no"?>
<!DOCTYPE svg PUBLIC "-//W3C//DTD SVG 20010904//EN"
 "http://www.w3.org/TR/2001/REC-SVG-20010904/DTD/svg10.dtd">
<svg version="1.0" xmlns="http://www.w3.org/2000/svg"
 width="248.000000pt" height="248.000000pt" viewBox="0 0 248.000000 248.000000"
 preserveAspectRatio="xMidYMid meet">
<metadata>
Created by potrace 1.10, written by Peter Selinger 2001-2011
</metadata>
<g transform="translate(0.000000,248.000000) scale(0.100000,-0.100000)"
fill="#000000" stroke="none">
<path d="M1835 2394 c-241 -29 -466 -71 -495 -93 l-25 -18 3 -249 c3 -276 12
-348 44 -365 26 -14 68 3 69 28 1 10 2 63 3 118 l1 100 110 22 c61 13 156 26
212 29 l101 7 4 -127 c3 -113 5 -129 22 -142 25 -18 37 -18 62 0 18 13 19 30
22 223 3 245 -8 428 -29 448 -16 15 -62 24 -104 19z m19 -141 c3 -21 6 -68 6
-104 l0 -66 -87 -7 c-49 -3 -144 -17 -213 -30 -69 -13 -126 -23 -126 -22 -1 0
-4 46 -8 102 l-7 101 73 11 c40 6 109 16 153 23 68 11 147 22 191 28 6 0 14
-16 18 -36z"/>
<path d="M740 2317 c-30 -4 -110 -21 -177 -38 -67 -16 -140 -29 -162 -29 -23
0 -48 -8 -62 -19 -23 -18 -23 -19 -21 -252 1 -129 -2 -283 -8 -344 -6 -60 -15
-189 -20 -285 -26 -478 -84 -888 -149 -1056 -17 -44 -31 -89 -31 -101 0 -25
24 -53 46 -53 66 0 143 265 189 652 10 81 21 152 25 158 4 6 22 14 40 16 18 3
45 10 59 16 49 19 271 76 272 70 1 -20 -2 -241 -7 -494 -7 -286 -7 -286 -28
-278 -45 17 -82 -20 -66 -66 12 -32 88 -94 114 -94 28 0 53 22 68 59 14 36 26
443 37 1329 6 438 6 763 1 776 -12 32 -54 44 -120 33z m17 -309 c-4 -112 -7
-248 -7 -304 l0 -100 -57 -11 c-32 -5 -109 -24 -172 -41 l-114 -30 7 56 c4 31
9 172 12 312 5 254 5 255 27 258 12 2 65 14 117 27 100 26 130 31 169 34 l24
1 -6 -202z m-9 -675 l-3 -166 -125 -33 c-69 -18 -148 -41 -177 -51 -29 -9 -56
-14 -60 -10 -3 4 -1 65 5 135 7 70 12 145 12 167 l0 40 133 33 c72 18 146 37
162 42 58 16 56 23 53 -157z"/>
</g>
</svg>
