<?xml version="1.0" standalone="no"?>
<!DOCTYPE svg PUBLIC "-//W3C//DTD SVG 20010904//EN"
 "http://www.w3.org/TR/2001/REC-SVG-20010904/DTD/svg10.dtd">
<svg version="1.0" xmlns="http://www.w3.org/2000/svg"
 width="248.000000pt" height="248.000000pt" viewBox="0 0 248.000000 248.000000"
 preserveAspectRatio="xMidYMid meet">
<metadata>
Created by potrace 1.10, written by Peter Selinger 2001-2011
</metadata>
<g transform="translate(0.000000,248.000000) scale(0.100000,-0.100000)"
fill="#000000" stroke="none">
<path d="M330 2215 c-9 -11 -12 -73 -11 -243 1 -125 -4 -276 -9 -337 -6 -60
-15 -186 -20 -280 -27 -490 -83 -892 -149 -1061 -35 -89 -38 -116 -15 -138 38
-38 70 -9 113 105 68 177 133 634 161 1129 5 91 14 228 21 305 16 198 8 474
-14 509 -20 29 -57 35 -77 11z"/>
</g>
</svg>
