<?xml version="1.0" standalone="no"?>
<!DOCTYPE svg PUBLIC "-//W3C//DTD SVG 20010904//EN"
 "http://www.w3.org/TR/2001/REC-SVG-20010904/DTD/svg10.dtd">
<svg version="1.0" xmlns="http://www.w3.org/2000/svg"
 width="248.000000pt" height="248.000000pt" viewBox="0 0 248.000000 248.000000"
 preserveAspectRatio="xMidYMid meet">
<metadata>
Created by potrace 1.10, written by Peter Selinger 2001-2011
</metadata>
<g transform="translate(0.000000,248.000000) scale(0.100000,-0.100000)"
fill="#000000" stroke="none">
<path d="M740 2317 c-30 -4 -110 -21 -177 -38 -67 -16 -140 -29 -162 -29 -23
0 -48 -8 -62 -19 -23 -18 -23 -19 -21 -252 1 -129 -2 -283 -8 -344 -6 -60 -15
-186 -20 -280 -27 -490 -83 -892 -149 -1061 -35 -89 -38 -116 -15 -138 38 -38
70 -9 113 105 18 46 43 140 57 209 38 195 104 771 104 905 l0 40 103 24 c56
13 120 30 142 37 22 7 55 15 74 19 l34 7 -6 -363 c-4 -200 -10 -477 -14 -616
-6 -250 -6 -251 -27 -243 -45 17 -82 -20 -66 -66 12 -32 88 -94 114 -94 28 0
53 22 68 59 14 36 26 443 37 1329 6 438 6 763 1 776 -12 32 -54 44 -120 33z
m17 -309 c-4 -112 -7 -248 -7 -304 l0 -100 -57 -11 c-32 -5 -109 -24 -172 -41
l-114 -30 7 56 c4 31 9 172 12 312 5 254 5 255 27 258 12 2 65 14 117 27 100
26 130 31 169 34 l24 1 -6 -202z"/>
</g>
</svg>
