<?xml version="1.0" standalone="no"?>
<!DOCTYPE svg PUBLIC "-//W3C//DTD SVG 20010904//EN"
 "http://www.w3.org/TR/2001/REC-SVG-20010904/DTD/svg10.dtd">
<svg version="1.0" xmlns="http://www.w3.org/2000/svg"
 width="248.000000pt" height="248.000000pt" viewBox="0 0 248.000000 248.000000"
 preserveAspectRatio="xMidYMid meet">
<metadata>
Created by potrace 1.10, written by Peter Selinger 2001-2011
</metadata>
<g transform="translate(0.000000,248.000000) scale(0.100000,-0.100000)"
fill="#000000" stroke="none">
<path d="M496 2199 c-13 -19 -14 -48 -10 -183 6 -172 -17 -663 -41 -871 -38
-329 -102 -602 -185 -792 -29 -65 -54 -130 -57 -146 -12 -61 50 -78 91 -24 68
89 187 473 220 709 8 57 17 110 20 118 11 31 36 316 51 585 17 293 13 552 -9
597 -16 32 -59 36 -80 7z"/>
<path d="M883 2018 c-6 -7 -30 -71 -53 -143 -24 -71 -58 -162 -76 -201 -41
-85 -42 -99 -9 -120 23 -15 27 -15 50 0 31 21 83 133 135 292 36 111 39 128
28 152 -15 30 -58 42 -75 20z"/>
<path d="M150 1725 c-15 -18 -7 -99 20 -200 10 -38 24 -95 30 -126 6 -31 19
-64 30 -74 22 -20 59 -17 74 7 10 17 7 35 -50 298 -9 41 -23 83 -32 93 -19 21
-55 22 -72 2z"/>
</g>
</svg>
