<?xml version="1.0" standalone="no"?>
<!DOCTYPE svg PUBLIC "-//W3C//DTD SVG 20010904//EN"
 "http://www.w3.org/TR/2001/REC-SVG-20010904/DTD/svg10.dtd">
<svg version="1.0" xmlns="http://www.w3.org/2000/svg"
 width="248.000000pt" height="248.000000pt" viewBox="0 0 248.000000 248.000000"
 preserveAspectRatio="xMidYMid meet">
<metadata>
Created by potrace 1.10, written by Peter Selinger 2001-2011
</metadata>
<g transform="translate(0.000000,248.000000) scale(0.100000,-0.100000)"
fill="#000000" stroke="none">
<path d="M1895 2314 c-16 -2 -84 -11 -150 -20 -248 -31 -410 -56 -427 -65 -42
-22 -42 -24 -8 -352 13 -136 35 -149 210 -123 58 8 161 22 230 31 69 9 168 23
220 31 147 23 154 37 148 306 -4 193 -3 192 -116 194 -42 1 -90 0 -107 -2z
m115 -243 c0 -117 -2 -140 -16 -145 -8 -3 -68 -13 -132 -21 -64 -8 -169 -21
-232 -30 -63 -9 -136 -18 -161 -22 l-46 -5 -11 88 c-6 49 -14 115 -17 146 l-5
57 32 5 c81 13 317 45 433 59 17 2 58 5 93 6 l62 1 0 -139z"/>
<path d="M495 2198 c-13 -20 -15 -46 -9 -183 7 -171 -16 -652 -41 -870 -39
-331 -101 -597 -183 -785 -30 -69 -56 -137 -59 -153 -12 -61 50 -78 91 -24 65
85 191 489 223 717 l8 55 20 -35 c11 -19 38 -73 59 -120 130 -285 175 -370
201 -382 18 -8 32 -9 43 -2 39 25 37 38 -30 175 -36 74 -78 161 -93 194 -51
113 -116 250 -145 307 -29 54 -29 58 -20 135 20 172 42 659 35 803 -8 158 -18
190 -60 190 -13 0 -31 -10 -40 -22z"/>
<path d="M882 2018 c-6 -7 -29 -71 -52 -143 -24 -71 -58 -162 -76 -201 -41
-85 -42 -99 -9 -120 23 -15 27 -15 51 0 32 22 81 130 135 297 40 123 41 129
25 154 -18 27 -56 34 -74 13z"/>
<path d="M152 1728 c-16 -16 -15 -58 2 -133 8 -33 23 -103 35 -155 24 -104 42
-133 79 -128 45 5 49 28 23 145 -12 60 -30 140 -38 178 -8 39 -22 78 -31 88
-17 20 -53 22 -70 5z"/>
<path d="M2159 1675 c-3 -2 -63 -11 -134 -20 -165 -20 -246 -35 -264 -49 -12
-9 -13 -48 -7 -227 4 -118 10 -228 14 -244 5 -16 19 -37 33 -46 22 -17 36 -17
209 -4 226 17 266 23 278 38 38 47 79 441 53 510 -6 14 -23 29 -42 36 -31 11
-131 15 -140 6z m77 -217 c-10 -175 -17 -238 -30 -245 -6 -4 -83 -12 -172 -18
l-161 -10 -7 89 c-8 121 -8 256 2 256 27 0 267 32 271 35 2 3 27 5 54 5 l50 0
-7 -112z"/>
<path d="M1440 1633 c-87 -14 -301 -56 -344 -67 -86 -22 -88 -26 -76 -268 6
-114 15 -218 22 -232 7 -18 22 -28 46 -32 45 -9 211 3 341 25 146 23 140 13
148 277 7 241 1 276 -49 293 -31 11 -43 12 -88 4z m28 -277 c-1 -96 -6 -178
-10 -182 -19 -18 -311 -44 -320 -28 -3 5 -7 79 -9 164 l-4 155 50 12 c70 18
245 51 273 52 l24 1 -4 -174z"/>
<path d="M1619 1204 c-10 -12 -15 -53 -17 -146 -2 -70 -4 -128 -5 -128 -1 0
-87 -7 -192 -15 -240 -19 -379 -38 -399 -54 -24 -20 -20 -58 8 -76 21 -14 35
-15 103 -5 76 12 395 39 401 35 10 -8 -73 -108 -162 -196 -118 -118 -198 -189
-274 -244 -47 -33 -53 -41 -50 -69 2 -23 10 -33 30 -40 23 -8 35 -4 80 26 29
19 73 53 98 75 25 23 77 69 115 103 73 65 167 167 217 235 l30 40 -7 -306 c-8
-304 -8 -306 14 -328 26 -26 45 -27 71 -1 18 18 20 33 20 158 0 77 3 200 6
274 l7 135 106 -110 c101 -105 126 -126 266 -230 33 -25 74 -56 91 -71 50 -41
131 -78 166 -74 67 7 64 75 -5 102 -63 24 -232 150 -376 281 -86 78 -246 253
-238 261 2 3 45 9 93 15 49 5 150 16 224 24 74 8 150 15 168 15 18 0 48 7 67
14 29 12 35 20 35 45 0 51 -53 63 -186 41 -34 -6 -112 -14 -175 -20 -63 -5
-142 -13 -176 -16 l-63 -7 0 109 c0 67 -5 119 -13 134 -15 31 -58 38 -78 14z"/>
</g>
</svg>
