<?xml version="1.0" standalone="no"?>
<!DOCTYPE svg PUBLIC "-//W3C//DTD SVG 20010904//EN"
 "http://www.w3.org/TR/2001/REC-SVG-20010904/DTD/svg10.dtd">
<svg version="1.0" xmlns="http://www.w3.org/2000/svg"
 width="248.000000pt" height="248.000000pt" viewBox="0 0 248.000000 248.000000"
 preserveAspectRatio="xMidYMid meet">
<metadata>
Created by potrace 1.10, written by Peter Selinger 2001-2011
</metadata>
<g transform="translate(0.000000,248.000000) scale(0.100000,-0.100000)"
fill="#000000" stroke="none">
<path d="M1900 2315 c-8 -2 -53 -8 -100 -14 -230 -29 -452 -62 -474 -71 -51
-19 -51 -17 -16 -354 11 -112 26 -131 103 -131 49 0 347 38 557 71 147 23 154
37 148 306 -4 193 -2 190 -120 194 -46 2 -90 1 -98 -1z m110 -244 c0 -163 17
-144 -150 -166 -63 -8 -167 -21 -230 -30 -63 -9 -136 -18 -161 -22 l-47 -5
-10 83 c-6 46 -14 112 -17 146 l-6 62 33 5 c42 8 382 54 428 59 19 2 63 5 98
5 l62 2 0 -139z"/>
<path d="M496 2199 c-13 -19 -14 -48 -10 -183 6 -172 -17 -663 -41 -871 -38
-329 -102 -602 -185 -792 -29 -65 -54 -130 -57 -146 -12 -61 50 -78 91 -24 65
86 200 518 221 711 6 56 7 57 22 36 17 -24 80 -151 109 -220 10 -25 45 -98 77
-163 61 -123 89 -153 125 -131 38 24 38 41 0 111 -20 37 -60 120 -88 183 -78
172 -147 318 -180 381 -29 55 -30 58 -20 135 36 307 46 905 16 966 -16 32 -59
36 -80 7z"/>
<path d="M883 2018 c-6 -7 -30 -71 -53 -143 -24 -71 -58 -162 -76 -201 -41
-85 -42 -99 -9 -120 23 -15 27 -15 50 0 31 21 83 133 135 292 36 111 39 128
28 152 -15 30 -58 42 -75 20z"/>
<path d="M150 1725 c-15 -18 -7 -99 20 -200 10 -38 24 -95 30 -126 6 -31 19
-64 30 -74 22 -20 59 -17 74 7 10 17 7 35 -50 298 -9 41 -23 83 -32 93 -19 21
-55 22 -72 2z"/>
</g>
</svg>
