<?xml version="1.0" standalone="no"?>
<!DOCTYPE svg PUBLIC "-//W3C//DTD SVG 20010904//EN"
 "http://www.w3.org/TR/2001/REC-SVG-20010904/DTD/svg10.dtd">
<svg version="1.0" xmlns="http://www.w3.org/2000/svg"
 width="248.000000pt" height="248.000000pt" viewBox="0 0 248.000000 248.000000"
 preserveAspectRatio="xMidYMid meet">
<metadata>
Created by potrace 1.10, written by Peter Selinger 2001-2011
</metadata>
<g transform="translate(0.000000,248.000000) scale(0.100000,-0.100000)"
fill="#000000" stroke="none">
<path d="M890 2283 c-8 -3 -24 -13 -35 -23 -38 -32 -190 -118 -310 -174 -66
-31 -130 -66 -142 -78 -36 -34 -25 -88 18 -88 49 0 480 233 522 282 19 23 15
55 -11 76 -17 13 -19 13 -42 5z"/>
<path d="M1060 1689 c-121 -36 -234 -58 -465 -94 -450 -68 -465 -72 -465 -119
0 -44 22 -51 113 -37 45 7 127 18 182 26 192 27 411 65 520 90 61 14 136 32
167 39 68 16 88 30 88 61 0 48 -50 61 -140 34z"/>
</g>
</svg>
