<?xml version="1.0" standalone="no"?>
<!DOCTYPE svg PUBLIC "-//W3C//DTD SVG 20010904//EN"
 "http://www.w3.org/TR/2001/REC-SVG-20010904/DTD/svg10.dtd">
<svg version="1.0" xmlns="http://www.w3.org/2000/svg"
 width="248.000000pt" height="248.000000pt" viewBox="0 0 248.000000 248.000000"
 preserveAspectRatio="xMidYMid meet">
<metadata>
Created by potrace 1.10, written by Peter Selinger 2001-2011
</metadata>
<g transform="translate(0.000000,248.000000) scale(0.100000,-0.100000)"
fill="#000000" stroke="none">
<path d="M890 2283 c-8 -3 -24 -13 -35 -23 -38 -32 -190 -118 -310 -174 -66
-31 -130 -66 -142 -78 -37 -35 -25 -88 19 -88 10 0 63 23 118 50 55 28 106 50
115 50 13 0 15 -27 15 -197 0 -109 -4 -203 -8 -209 -4 -7 -74 -22 -157 -33
-332 -48 -375 -60 -375 -105 0 -44 22 -51 113 -37 74 11 180 26 325 46 l52 8
-16 -39 c-157 -379 -209 -466 -404 -668 -71 -74 -130 -141 -130 -149 0 -18 32
-47 52 -47 48 0 267 232 366 387 32 50 80 142 107 202 26 61 52 111 58 111 17
0 -5 -752 -29 -956 -5 -44 -3 -55 15 -73 42 -42 83 -17 87 55 11 179 24 573
25 759 1 121 4 269 8 330 l6 110 145 33 c249 56 260 59 275 72 24 20 15 63
-17 78 -23 11 -38 9 -100 -8 -91 -25 -256 -63 -283 -64 -19 -1 -20 5 -20 229
l0 229 84 52 c46 28 90 59 98 69 15 22 8 54 -15 73 -17 13 -19 13 -42 5z"/>
</g>
</svg>
