<?xml version="1.0" standalone="no"?>
<!DOCTYPE svg PUBLIC "-//W3C//DTD SVG 20010904//EN"
 "http://www.w3.org/TR/2001/REC-SVG-20010904/DTD/svg10.dtd">
<svg version="1.0" xmlns="http://www.w3.org/2000/svg"
 width="248.000000pt" height="248.000000pt" viewBox="0 0 248.000000 248.000000"
 preserveAspectRatio="xMidYMid meet">
<metadata>
Created by potrace 1.10, written by Peter Selinger 2001-2011
</metadata>
<g transform="translate(0.000000,248.000000) scale(0.100000,-0.100000)"
fill="#000000" stroke="none">
<path d="M2042 2348 c-8 -8 -12 -49 -12 -118 0 -59 -5 -153 -10 -211 -6 -57
-11 -274 -13 -481 -1 -207 -5 -380 -9 -384 -5 -4 -45 -10 -90 -14 -113 -10
-326 -36 -612 -75 -196 -27 -242 -36 -253 -51 -28 -38 12 -89 62 -79 61 12
442 64 515 70 41 3 116 12 165 20 50 8 119 15 155 17 l64 3 2 -30 c4 -70 17
-735 15 -787 -1 -47 2 -59 19 -71 30 -21 69 -10 77 21 3 14 2 123 -3 241 -4
119 -8 308 -9 421 l0 205 50 6 c28 4 92 9 143 12 99 6 122 16 122 52 0 49 -24
53 -202 40 l-106 -7 -7 56 c-7 53 -2 445 11 909 7 232 4 247 -40 247 -12 0
-27 -5 -34 -12z"/>
<path d="M863 2267 c-48 -40 -193 -123 -318 -181 -66 -31 -130 -66 -142 -78
-37 -35 -25 -88 19 -88 10 0 63 23 118 50 55 28 106 50 115 50 13 0 15 -27 15
-197 0 -109 -4 -203 -8 -209 -4 -7 -74 -22 -157 -33 -332 -48 -375 -60 -375
-105 0 -44 22 -51 113 -37 74 11 180 26 325 46 l52 8 -16 -39 c-157 -379 -209
-466 -404 -668 -71 -74 -130 -141 -130 -149 0 -18 32 -47 52 -47 48 0 267 232
366 387 32 50 80 142 107 202 26 61 52 111 58 111 17 0 -5 -752 -29 -956 -5
-44 -3 -55 15 -73 42 -42 83 -17 87 55 12 197 24 577 24 771 0 154 4 234 11
238 6 4 20 -2 32 -13 43 -40 184 -122 209 -122 14 0 31 7 38 14 22 28 7 60
-43 91 -81 50 -208 147 -224 172 -8 12 -13 28 -11 35 3 8 66 27 149 46 249 57
259 59 274 72 24 20 15 63 -17 78 -23 11 -38 9 -100 -8 -91 -25 -256 -63 -283
-64 -19 -1 -20 5 -20 229 l0 229 84 52 c46 28 90 59 98 69 15 22 8 54 -15 73
-23 17 -37 15 -69 -11z"/>
<path d="M1370 2046 c-6 -8 -10 -25 -8 -38 2 -19 32 -37 158 -100 85 -42 164
-77 176 -77 46 -2 59 51 22 87 -33 30 -275 142 -308 142 -15 0 -33 -7 -40 -14z"/>
<path d="M1272 1518 c-19 -19 -14 -56 11 -72 12 -8 74 -35 137 -61 63 -25 129
-53 146 -62 24 -12 35 -13 52 -4 25 13 30 57 10 83 -16 19 -288 128 -321 128
-12 0 -28 -5 -35 -12z"/>
</g>
</svg>
