<?xml version="1.0" standalone="no"?>
<!DOCTYPE svg PUBLIC "-//W3C//DTD SVG 20010904//EN"
 "http://www.w3.org/TR/2001/REC-SVG-20010904/DTD/svg10.dtd">
<svg version="1.0" xmlns="http://www.w3.org/2000/svg"
 width="248.000000pt" height="248.000000pt" viewBox="0 0 248.000000 248.000000"
 preserveAspectRatio="xMidYMid meet">
<metadata>
Created by potrace 1.10, written by Peter Selinger 2001-2011
</metadata>
<g transform="translate(0.000000,248.000000) scale(0.100000,-0.100000)"
fill="#000000" stroke="none">
<path d="M540 2245 c-9 -10 -12 -88 -12 -288 0 -150 -3 -279 -7 -286 -6 -10
-140 -40 -366 -83 -68 -13 -95 -31 -95 -63 0 -55 38 -54 315 4 77 16 143 27
147 25 8 -5 3 -404 -7 -554 -3 -47 -8 -150 -11 -230 -3 -80 -7 -197 -10 -260
-3 -63 -6 -132 -6 -154 -3 -57 46 -82 87 -45 5 5 13 89 17 187 11 302 18 453
24 572 4 63 6 199 6 301 -1 131 3 191 11 202 7 8 39 19 72 26 73 13 231 58
265 75 28 13 38 50 20 72 -18 21 -64 17 -180 -17 -58 -16 -124 -32 -146 -36
l-41 -5 -1 271 c0 199 -3 275 -12 286 -16 19 -54 19 -70 0z"/>
</g>
</svg>
