<?xml version="1.0" standalone="no"?>
<!DOCTYPE svg PUBLIC "-//W3C//DTD SVG 20010904//EN"
 "http://www.w3.org/TR/2001/REC-SVG-20010904/DTD/svg10.dtd">
<svg version="1.0" xmlns="http://www.w3.org/2000/svg"
 width="248.000000pt" height="248.000000pt" viewBox="0 0 248.000000 248.000000"
 preserveAspectRatio="xMidYMid meet">
<metadata>
Created by potrace 1.10, written by Peter Selinger 2001-2011
</metadata>
<g transform="translate(0.000000,248.000000) scale(0.100000,-0.100000)"
fill="#000000" stroke="none">
<path d="M1422 2329 c-12 -5 -22 -16 -23 -26 -1 -10 -2 -144 -2 -298 l-2 -280
-65 -7 c-36 -4 -119 -11 -185 -17 -172 -15 -627 -68 -742 -86 -53 -9 -103 -21
-110 -27 -18 -14 -17 -53 2 -68 17 -14 38 -13 350 24 424 50 561 65 653 71
134 8 136 13 -99 -260 -236 -275 -479 -494 -771 -693 -54 -37 -63 -70 -26 -96
32 -22 66 -4 247 131 248 187 412 342 636 603 59 69 110 127 112 130 5 5 -2
-251 -12 -450 -3 -58 -7 -248 -9 -423 -3 -175 -7 -321 -10 -325 -4 -3 -60 21
-126 53 -107 51 -123 57 -146 46 -21 -9 -25 -17 -22 -43 3 -31 10 -36 123 -93
67 -33 134 -70 149 -82 47 -37 90 -25 109 30 9 26 16 188 22 502 2 149 9 398
15 555 7 157 12 317 13 356 l2 72 55 6 c30 3 107 8 170 11 231 11 385 27 408
41 12 8 22 24 22 38 0 47 -12 48 -252 32 -413 -28 -406 -28 -411 -8 -3 9 -4
134 -3 277 1 143 -1 270 -5 281 -9 25 -36 34 -67 23z"/>
</g>
</svg>
