<?xml version="1.0" standalone="no"?>
<!DOCTYPE svg PUBLIC "-//W3C//DTD SVG 20010904//EN"
 "http://www.w3.org/TR/2001/REC-SVG-20010904/DTD/svg10.dtd">
<svg version="1.0" xmlns="http://www.w3.org/2000/svg"
 width="248.000000pt" height="248.000000pt" viewBox="0 0 248.000000 248.000000"
 preserveAspectRatio="xMidYMid meet">
<metadata>
Created by potrace 1.10, written by Peter Selinger 2001-2011
</metadata>
<g transform="translate(0.000000,248.000000) scale(0.100000,-0.100000)"
fill="#000000" stroke="none">
<path d="M1955 1759 c-55 -5 -176 -13 -270 -18 -239 -14 -584 -40 -620 -46
-16 -2 -151 -18 -300 -35 -313 -35 -453 -56 -472 -72 -18 -14 -16 -53 2 -68
19 -16 66 -11 780 74 66 8 174 18 240 21 66 3 156 10 200 15 44 5 139 11 210
15 226 10 389 26 413 41 24 16 29 53 10 72 -13 13 -44 13 -193 1z"/>
</g>
</svg>
