<?xml version="1.0" standalone="no"?>
<!DOCTYPE svg PUBLIC "-//W3C//DTD SVG 20010904//EN"
 "http://www.w3.org/TR/2001/REC-SVG-20010904/DTD/svg10.dtd">
<svg version="1.0" xmlns="http://www.w3.org/2000/svg"
 width="248.000000pt" height="248.000000pt" viewBox="0 0 248.000000 248.000000"
 preserveAspectRatio="xMidYMid meet">
<metadata>
Created by potrace 1.10, written by Peter Selinger 2001-2011
</metadata>
<g transform="translate(0.000000,248.000000) scale(0.100000,-0.100000)"
fill="#000000" stroke="none">
<path d="M1058 2134 c-68 -7 -152 -17 -188 -23 -36 -6 -119 -15 -185 -21 -146
-13 -233 -28 -262 -46 -30 -19 -30 -58 -1 -79 21 -14 23 -22 22 -123 -4 -439
-4 -1223 0 -1390 5 -214 9 -232 52 -232 48 0 52 25 46 233 -7 215 -8 1030 -2
1324 4 167 6 194 20 198 9 3 84 12 166 20 82 8 199 22 259 31 155 22 943 33
956 13 5 -8 6 -57 3 -109 -4 -52 -6 -171 -4 -265 6 -356 4 -1154 -2 -1234 -4
-46 -11 -88 -16 -93 -4 -4 -35 10 -67 33 -72 50 -127 62 -144 30 -9 -15 -9
-26 -1 -42 12 -21 185 -139 205 -139 31 0 86 23 95 40 25 47 31 196 29 755 -3
604 -3 733 0 950 1 72 -1 138 -4 148 -4 9 -18 20 -31 23 -45 11 -819 9 -946
-2z"/>
</g>
</svg>
