<?xml version="1.0" standalone="no"?>
<!DOCTYPE svg PUBLIC "-//W3C//DTD SVG 20010904//EN"
 "http://www.w3.org/TR/2001/REC-SVG-20010904/DTD/svg10.dtd">
<svg version="1.0" xmlns="http://www.w3.org/2000/svg"
 width="248.000000pt" height="248.000000pt" viewBox="0 0 248.000000 248.000000"
 preserveAspectRatio="xMidYMid meet">
<metadata>
Created by potrace 1.10, written by Peter Selinger 2001-2011
</metadata>
<g transform="translate(0.000000,248.000000) scale(0.100000,-0.100000)"
fill="#000000" stroke="none">
<path d="M1815 2049 c-71 -10 -185 -28 -252 -39 -67 -11 -242 -34 -390 -50
-362 -41 -427 -47 -573 -55 -69 -4 -131 -12 -137 -17 -19 -15 -16 -53 7 -73
18 -16 31 -17 197 -6 98 6 230 18 293 26 63 8 185 21 270 30 85 9 241 29 345
45 105 16 253 38 329 50 77 11 145 25 153 31 16 14 17 51 1 67 -16 16 -87 14
-243 -9z"/>
</g>
</svg>
