<?xml version="1.0" standalone="no"?>
<!DOCTYPE svg PUBLIC "-//W3C//DTD SVG 20010904//EN"
 "http://www.w3.org/TR/2001/REC-SVG-20010904/DTD/svg10.dtd">
<svg version="1.0" xmlns="http://www.w3.org/2000/svg"
 width="248.000000pt" height="248.000000pt" viewBox="0 0 248.000000 248.000000"
 preserveAspectRatio="xMidYMid meet">
<metadata>
Created by potrace 1.10, written by Peter Selinger 2001-2011
</metadata>
<g transform="translate(0.000000,248.000000) scale(0.100000,-0.100000)"
fill="#000000" stroke="none">
<path d="M540 2246 c-8 -11 -12 -90 -12 -289 1 -150 -3 -279 -7 -285 -6 -11
-140 -41 -366 -84 -68 -13 -95 -31 -95 -63 0 -54 41 -54 294 0 66 13 122 23
124 21 5 -5 -14 -66 -75 -236 -50 -143 -134 -318 -173 -364 -54 -63 -140 -198
-140 -220 0 -54 57 -62 94 -14 152 196 234 340 296 517 22 60 39 97 43 88 3
-8 4 -53 2 -99 -2 -45 -7 -135 -9 -198 -3 -63 -9 -196 -12 -295 -8 -236 -10
-280 -19 -340 -9 -68 9 -90 68 -86 28 2 34 35 41 241 7 201 10 288 22 520 4
74 7 190 7 258 0 67 2 122 4 122 7 0 208 -158 227 -179 35 -39 86 -22 86 29 0
34 -29 66 -130 141 -91 68 -170 137 -170 149 0 3 29 12 64 18 74 14 229 58
266 76 28 13 38 50 20 72 -18 21 -64 17 -180 -17 -58 -16 -124 -32 -146 -36
l-41 -5 -1 271 c0 199 -3 275 -12 286 -16 19 -54 19 -70 1z"/>
<path d="M1351 2238 c-5 -13 -19 -57 -31 -98 -77 -256 -157 -453 -229 -561
-23 -34 -41 -69 -41 -79 0 -24 26 -50 49 -50 61 0 194 261 295 584 64 202 64
226 1 226 -27 0 -37 -5 -44 -22z"/>
</g>
</svg>
