<?xml version="1.0" standalone="no"?>
<!DOCTYPE svg PUBLIC "-//W3C//DTD SVG 20010904//EN"
 "http://www.w3.org/TR/2001/REC-SVG-20010904/DTD/svg10.dtd">
<svg version="1.0" xmlns="http://www.w3.org/2000/svg"
 width="248.000000pt" height="248.000000pt" viewBox="0 0 248.000000 248.000000"
 preserveAspectRatio="xMidYMid meet">
<metadata>
Created by potrace 1.10, written by Peter Selinger 2001-2011
</metadata>
<g transform="translate(0.000000,248.000000) scale(0.100000,-0.100000)"
fill="#000000" stroke="none">
<path d="M1815 2049 c-71 -11 -200 -30 -285 -44 -85 -13 -225 -31 -310 -40
-85 -8 -207 -22 -270 -30 -112 -14 -170 -19 -335 -30 -171 -11 -226 -18 -232
-28 -4 -6 -6 -133 -5 -281 2 -249 -11 -513 -38 -786 -15 -154 -19 -207 -26
-365 -6 -129 -4 -152 9 -163 19 -16 293 -17 412 -2 44 6 141 10 215 10 74 0
333 4 575 10 287 7 487 8 575 2 74 -6 140 -8 147 -5 36 14 25 79 -15 90 -30 9
-883 7 -1262 -2 -135 -3 -283 -10 -328 -16 -46 -5 -118 -9 -159 -8 l-75 2 6
116 c3 64 13 186 21 271 32 347 38 468 37 751 l-1 295 232 17 c128 9 241 18
252 20 33 4 41 -76 20 -197 -53 -311 -133 -548 -249 -744 -36 -60 -87 -134
-114 -163 -27 -30 -54 -64 -60 -76 -23 -43 18 -84 62 -61 67 36 216 254 292
430 102 235 173 533 174 726 0 75 3 102 13 102 6 0 68 7 137 15 69 8 131 15
139 15 11 0 12 -25 7 -137 -21 -437 -22 -622 -6 -684 40 -156 94 -237 197
-301 79 -49 135 -62 241 -55 148 10 210 45 183 103 -10 23 -16 25 -49 21 -20
-3 -57 -10 -82 -17 -25 -6 -76 -10 -113 -7 -129 9 -223 93 -269 241 -25 79
-28 214 -13 519 4 83 8 179 9 212 1 33 6 74 10 91 l7 32 147 22 c360 53 406
61 419 71 16 14 17 51 1 67 -16 16 -87 13 -243 -9z"/>
</g>
</svg>
