<?xml version="1.0" standalone="no"?>
<!DOCTYPE svg PUBLIC "-//W3C//DTD SVG 20010904//EN"
 "http://www.w3.org/TR/2001/REC-SVG-20010904/DTD/svg10.dtd">
<svg version="1.0" xmlns="http://www.w3.org/2000/svg"
 width="248.000000pt" height="248.000000pt" viewBox="0 0 248.000000 248.000000"
 preserveAspectRatio="xMidYMid meet">
<metadata>
Created by potrace 1.10, written by Peter Selinger 2001-2011
</metadata>
<g transform="translate(0.000000,248.000000) scale(0.100000,-0.100000)"
fill="#000000" stroke="none">
<path d="M1058 2134 c-68 -7 -152 -17 -188 -23 -36 -6 -119 -15 -185 -21 -146
-13 -233 -28 -262 -46 -30 -19 -30 -58 -1 -79 21 -14 23 -22 22 -123 -4 -441
-4 -1223 0 -1390 5 -218 9 -235 55 -230 44 5 49 32 42 236 -6 213 -7 1031 -1
1319 3 149 7 194 18 198 7 2 86 12 174 20 122 12 163 13 169 4 6 -10 9 -185
13 -779 1 -236 -18 -680 -34 -783 -14 -87 2 -115 60 -107 8 1 19 5 23 10 12
11 26 140 32 290 2 69 7 193 11 275 7 171 8 359 0 795 -3 168 -2 311 2 317 9
14 189 32 287 30 l60 -2 0 -65 c-1 -95 -13 -344 -26 -505 -6 -77 -12 -320 -13
-540 -2 -220 -6 -428 -11 -463 -6 -53 -5 -65 10 -82 21 -23 57 -26 74 -6 19
22 22 86 26 556 2 245 6 459 9 475 8 52 16 174 22 375 4 107 7 209 8 225 l3
30 238 3 c188 3 240 1 247 -10 4 -7 5 -56 2 -108 -4 -52 -6 -171 -4 -265 6
-364 4 -1154 -2 -1234 -4 -46 -11 -88 -15 -92 -4 -4 -35 10 -68 33 -73 49
-128 60 -144 29 -18 -33 1 -57 102 -122 81 -53 96 -59 127 -54 19 4 42 11 52
16 44 23 50 138 47 804 -3 570 -3 700 0 920 1 72 -1 138 -4 148 -4 9 -18 20
-31 23 -45 11 -820 9 -946 -2z"/>
</g>
</svg>
