<?xml version="1.0" standalone="no"?>
<!DOCTYPE svg PUBLIC "-//W3C//DTD SVG 20010904//EN"
 "http://www.w3.org/TR/2001/REC-SVG-20010904/DTD/svg10.dtd">
<svg version="1.0" xmlns="http://www.w3.org/2000/svg"
 width="248.000000pt" height="248.000000pt" viewBox="0 0 248.000000 248.000000"
 preserveAspectRatio="xMidYMid meet">
<metadata>
Created by potrace 1.10, written by Peter Selinger 2001-2011
</metadata>
<g transform="translate(0.000000,248.000000) scale(0.100000,-0.100000)"
fill="#000000" stroke="none">
<path d="M1950 2079 c-58 -3 -168 -9 -245 -13 -131 -7 -231 -15 -645 -51 -153
-14 -282 -27 -405 -40 -27 -3 -84 -12 -125 -20 -41 -8 -97 -17 -123 -21 -54
-7 -77 -25 -77 -58 0 -51 32 -54 210 -21 78 15 269 37 475 55 66 6 165 15 220
20 149 15 325 28 460 35 66 3 179 10 250 15 72 5 182 9 245 10 96 0 117 3 128
17 16 22 15 48 -2 62 -17 14 -208 19 -366 10z"/>
<path d="M1340 1562 c-43 -4 -60 -18 -60 -47 0 -33 17 -42 90 -49 64 -6 242
-36 350 -59 l55 -12 2 -40 c8 -218 -112 -659 -238 -871 -37 -63 -174 -214
-194 -214 -7 0 -43 23 -81 50 -72 52 -102 60 -128 34 -30 -29 -18 -53 47 -101
108 -78 150 -103 171 -103 14 0 58 38 131 113 93 95 118 128 162 212 67 130
135 316 178 485 37 148 50 258 48 394 -3 122 -20 138 -178 161 -22 4 -74 13
-115 21 -102 19 -198 30 -240 26z"/>
</g>
</svg>
