<?xml version="1.0" standalone="no"?>
<!DOCTYPE svg PUBLIC "-//W3C//DTD SVG 20010904//EN"
 "http://www.w3.org/TR/2001/REC-SVG-20010904/DTD/svg10.dtd">
<svg version="1.0" xmlns="http://www.w3.org/2000/svg"
 width="248.000000pt" height="248.000000pt" viewBox="0 0 248.000000 248.000000"
 preserveAspectRatio="xMidYMid meet">
<metadata>
Created by potrace 1.10, written by Peter Selinger 2001-2011
</metadata>
<g transform="translate(0.000000,248.000000) scale(0.100000,-0.100000)"
fill="#000000" stroke="none">
<path d="M540 2245 c-9 -10 -12 -88 -12 -288 0 -150 -3 -279 -7 -286 -6 -10
-140 -40 -366 -83 -68 -13 -95 -31 -95 -63 0 -54 41 -54 294 0 66 13 121 23
123 21 5 -5 -17 -76 -74 -236 -50 -143 -134 -318 -173 -364 -54 -63 -140 -198
-140 -220 0 -54 57 -62 94 -14 151 195 250 370 302 530 44 138 47 111 29 -232
-3 -47 -7 -168 -10 -270 -4 -102 -9 -221 -12 -265 -8 -128 -8 -154 4 -166 15
-15 61 -15 76 0 7 7 14 77 19 189 10 269 18 444 24 577 4 66 7 204 8 307 0
110 5 191 11 196 6 5 37 14 70 21 73 13 231 58 265 75 28 13 38 50 20 72 -18
21 -64 17 -180 -17 -58 -16 -124 -32 -146 -36 l-41 -5 -1 271 c0 199 -3 275
-12 286 -16 19 -54 19 -70 0z"/>
</g>
</svg>
