<?xml version="1.0" standalone="no"?>
<!DOCTYPE svg PUBLIC "-//W3C//DTD SVG 20010904//EN"
 "http://www.w3.org/TR/2001/REC-SVG-20010904/DTD/svg10.dtd">
<svg version="1.0" xmlns="http://www.w3.org/2000/svg"
 width="248.000000pt" height="248.000000pt" viewBox="0 0 248.000000 248.000000"
 preserveAspectRatio="xMidYMid meet">
<metadata>
Created by potrace 1.10, written by Peter Selinger 2001-2011
</metadata>
<g transform="translate(0.000000,248.000000) scale(0.100000,-0.100000)"
fill="#000000" stroke="none">
<path d="M919 2354 c-24 -26 -201 -163 -309 -239 -31 -22 -82 -58 -113 -80
-32 -22 -60 -51 -63 -64 -4 -13 -2 -101 5 -195 7 -103 11 -444 11 -856 0 -746
-1 -730 55 -730 56 0 55 -14 55 705 0 392 -5 735 -12 844 l-11 185 42 38 c24
21 74 58 113 83 38 26 86 61 106 79 20 18 58 47 85 65 71 48 127 110 127 141
0 54 -51 67 -91 24z"/>
</g>
</svg>
