<?xml version="1.0" standalone="no"?>
<!DOCTYPE svg PUBLIC "-//W3C//DTD SVG 20010904//EN"
 "http://www.w3.org/TR/2001/REC-SVG-20010904/DTD/svg10.dtd">
<svg version="1.0" xmlns="http://www.w3.org/2000/svg"
 width="248.000000pt" height="248.000000pt" viewBox="0 0 248.000000 248.000000"
 preserveAspectRatio="xMidYMid meet">
<metadata>
Created by potrace 1.10, written by Peter Selinger 2001-2011
</metadata>
<g transform="translate(0.000000,248.000000) scale(0.100000,-0.100000)"
fill="#000000" stroke="none">
<path d="M1100 2155 c-47 -8 -132 -18 -190 -25 -58 -6 -157 -17 -220 -25 -63
-8 -129 -15 -145 -15 -72 0 -102 -70 -41 -98 23 -12 42 -12 105 -2 42 6 121
16 176 20 102 9 296 33 373 46 38 6 42 5 42 -14 0 -42 -44 -161 -101 -272 -86
-167 -79 -162 -133 -112 -25 23 -52 42 -61 42 -20 0 -55 -36 -55 -56 0 -8 25
-42 57 -75 52 -55 59 -59 101 -59 38 0 49 5 76 34 43 47 152 254 183 346 60
182 60 249 1 269 -37 13 -57 13 -168 -4z"/>
</g>
</svg>
