<?xml version="1.0" standalone="no"?>
<!DOCTYPE svg PUBLIC "-//W3C//DTD SVG 20010904//EN"
 "http://www.w3.org/TR/2001/REC-SVG-20010904/DTD/svg10.dtd">
<svg version="1.0" xmlns="http://www.w3.org/2000/svg"
 width="248.000000pt" height="248.000000pt" viewBox="0 0 248.000000 248.000000"
 preserveAspectRatio="xMidYMid meet">
<metadata>
Created by potrace 1.10, written by Peter Selinger 2001-2011
</metadata>
<g transform="translate(0.000000,248.000000) scale(0.100000,-0.100000)"
fill="#000000" stroke="none">
<path d="M856 2358 c-9 -12 -16 -30 -16 -40 0 -18 -23 -111 -40 -164 -11 -31
-12 -32 -115 -48 -57 -9 -119 -16 -137 -16 -75 0 -106 -69 -44 -99 24 -11 43
-11 125 2 53 8 97 13 99 12 3 -3 -10 -24 -72 -115 -13 -19 -55 -72 -95 -117
-39 -46 -71 -91 -71 -101 0 -26 20 -42 51 -42 37 0 148 120 239 260 88 134 82
128 132 134 24 3 96 12 162 21 65 9 121 13 124 10 14 -14 -32 -149 -93 -270
-91 -183 -85 -177 -139 -127 -25 23 -52 42 -61 42 -20 0 -55 -36 -55 -56 0
-19 98 -124 127 -135 34 -13 88 8 117 45 45 59 146 257 173 336 85 257 63 296
-150 266 -176 -24 -207 -26 -207 -10 0 8 9 50 21 94 17 69 18 83 7 107 -18 37
-60 43 -82 11z"/>
<path d="M1810 2221 c-195 -22 -356 -44 -377 -52 -13 -5 -27 -19 -32 -31 -4
-13 -7 -142 -6 -287 l2 -265 24 -19 c22 -18 34 -19 149 -12 69 3 184 10 255
13 161 9 179 17 194 94 25 129 36 243 36 375 0 134 -1 144 -22 165 -19 18 -35
23 -90 24 -38 1 -97 -1 -133 -5z m137 -233 c-2 -73 -9 -172 -17 -219 l-12 -86
-102 -7 c-55 -3 -148 -9 -206 -12 l-105 -7 -2 210 -3 209 148 18 c81 10 156
19 167 20 11 2 46 4 78 5 l59 1 -5 -132z"/>
<path d="M1500 1489 c-138 -11 -300 -28 -420 -45 -58 -8 -140 -17 -183 -21
-102 -8 -120 -22 -119 -89 1 -27 5 -214 9 -415 9 -400 7 -389 70 -416 44 -18
718 -18 778 1 55 16 65 41 65 166 0 58 7 195 15 305 24 337 18 471 -26 508
-23 18 -37 19 -189 6z m120 -193 l0 -93 -202 -7 c-112 -4 -272 -14 -357 -22
-84 -8 -155 -13 -157 -12 -7 8 -24 140 -19 149 4 5 21 9 39 9 18 0 58 5 87 10
30 6 104 16 164 21 192 19 389 36 418 38 l27 1 0 -94z m-10 -270 c0 -109 3
-106 -104 -106 -86 -1 -140 -5 -381 -30 -55 -5 -128 -13 -162 -16 l-63 -7 0
91 0 90 28 6 c56 11 163 19 401 31 136 7 254 13 264 14 15 1 17 -9 17 -73z
m-14 -238 c-3 -13 -6 -60 -6 -105 l0 -83 -345 0 -345 0 0 79 0 79 33 6 c17 3
86 11 152 17 66 6 152 15 190 19 39 4 128 8 199 9 l128 1 -6 -22z"/>
<path d="M952 448 c-29 -57 -162 -175 -257 -229 -78 -44 -92 -70 -58 -104 36
-37 97 -7 264 127 100 80 125 109 140 161 20 70 -56 108 -89 45z"/>
<path d="M1422 418 c-17 -17 -15 -53 6 -70 41 -36 407 -246 456 -262 25 -8 56
20 56 50 0 29 13 20 -382 251 -74 44 -114 53 -136 31z"/>
</g>
</svg>
