<?xml version="1.0" standalone="no"?>
<!DOCTYPE svg PUBLIC "-//W3C//DTD SVG 20010904//EN"
 "http://www.w3.org/TR/2001/REC-SVG-20010904/DTD/svg10.dtd">
<svg version="1.0" xmlns="http://www.w3.org/2000/svg"
 width="248.000000pt" height="248.000000pt" viewBox="0 0 248.000000 248.000000"
 preserveAspectRatio="xMidYMid meet">
<metadata>
Created by potrace 1.10, written by Peter Selinger 2001-2011
</metadata>
<g transform="translate(0.000000,248.000000) scale(0.100000,-0.100000)"
fill="#000000" stroke="none">
<path d="M856 2358 c-9 -12 -16 -30 -16 -40 0 -18 -23 -111 -40 -164 -11 -31
-12 -32 -115 -48 -57 -9 -119 -16 -137 -16 -75 0 -106 -69 -44 -99 24 -11 43
-11 125 2 53 8 97 13 99 12 3 -3 -10 -24 -72 -115 -13 -19 -55 -72 -95 -117
-39 -46 -71 -91 -71 -101 0 -26 20 -42 51 -42 37 0 148 120 239 260 88 134 82
128 132 134 24 3 96 12 162 21 65 9 121 13 124 10 14 -14 -32 -149 -93 -270
-91 -183 -85 -177 -139 -127 -25 23 -52 42 -61 42 -20 0 -55 -36 -55 -56 0
-19 98 -124 127 -135 34 -13 88 8 117 45 45 59 146 257 173 336 85 257 63 296
-150 266 -176 -24 -207 -26 -207 -10 0 8 9 50 21 94 17 69 18 83 7 107 -18 37
-60 43 -82 11z"/>
<path d="M1810 2221 c-195 -22 -356 -44 -377 -52 -13 -5 -27 -19 -32 -31 -4
-13 -7 -142 -6 -287 l2 -265 24 -19 c22 -18 34 -19 149 -12 69 3 184 10 255
13 161 9 179 17 194 94 25 129 36 243 36 375 0 134 -1 144 -22 165 -19 18 -35
23 -90 24 -38 1 -97 -1 -133 -5z m137 -233 c-2 -73 -9 -172 -17 -219 l-12 -86
-102 -7 c-55 -3 -148 -9 -206 -12 l-105 -7 -2 210 -3 209 148 18 c81 10 156
19 167 20 11 2 46 4 78 5 l59 1 -5 -132z"/>
<path d="M1500 1489 c-138 -11 -300 -28 -420 -45 -58 -8 -140 -17 -183 -21
-102 -8 -120 -22 -119 -89 1 -27 5 -214 9 -415 9 -391 10 -399 59 -399 14 0
30 10 40 24 14 22 15 65 11 368 -3 189 -8 355 -12 370 -5 20 -3 29 6 32 23 6
188 28 279 37 114 10 433 39 443 39 12 0 8 -239 -8 -455 -26 -356 -20 -420 40
-420 44 0 55 31 55 155 0 58 7 195 15 305 24 337 18 471 -26 508 -23 18 -37
19 -189 6z"/>
</g>
</svg>
