<?xml version="1.0" standalone="no"?>
<!DOCTYPE svg PUBLIC "-//W3C//DTD SVG 20010904//EN"
 "http://www.w3.org/TR/2001/REC-SVG-20010904/DTD/svg10.dtd">
<svg version="1.0" xmlns="http://www.w3.org/2000/svg"
 width="248.000000pt" height="248.000000pt" viewBox="0 0 248.000000 248.000000"
 preserveAspectRatio="xMidYMid meet">
<metadata>
Created by potrace 1.10, written by Peter Selinger 2001-2011
</metadata>
<g transform="translate(0.000000,248.000000) scale(0.100000,-0.100000)"
fill="#000000" stroke="none">
<path d="M715 2208 c-119 -165 -295 -385 -374 -467 -71 -74 -84 -95 -76 -120
6 -21 23 -28 135 -61 41 -12 103 -31 138 -43 71 -24 95 -18 100 24 4 37 -33
64 -130 94 -49 14 -88 28 -88 31 0 2 33 44 73 93 152 185 273 339 294 375 16
27 16 69 1 84 -19 19 -56 14 -73 -10z"/>
</g>
</svg>
