<?xml version="1.0" standalone="no"?>
<!DOCTYPE svg PUBLIC "-//W3C//DTD SVG 20010904//EN"
 "http://www.w3.org/TR/2001/REC-SVG-20010904/DTD/svg10.dtd">
<svg version="1.0" xmlns="http://www.w3.org/2000/svg"
 width="248.000000pt" height="248.000000pt" viewBox="0 0 248.000000 248.000000"
 preserveAspectRatio="xMidYMid meet">
<metadata>
Created by potrace 1.10, written by Peter Selinger 2001-2011
</metadata>
<g transform="translate(0.000000,248.000000) scale(0.100000,-0.100000)"
fill="#000000" stroke="none">
<path d="M1890 2413 c-118 -11 -305 -39 -431 -64 -80 -16 -166 -29 -192 -29
-88 0 -83 32 -91 -531 -5 -272 -11 -528 -14 -569 l-7 -75 -40 -3 c-76 -5 -260
-43 -283 -58 -31 -20 -27 -64 8 -80 20 -10 44 -8 115 7 50 10 107 18 128 19
l37 0 0 -409 c0 -466 2 -480 68 -481 43 0 342 268 342 307 0 27 -25 53 -51 53
-10 0 -66 -44 -125 -97 -58 -54 -110 -99 -115 -101 -5 -2 -9 150 -9 372 l0
375 33 5 c17 3 64 8 102 11 57 6 68 4 58 -6 -23 -24 -15 -75 20 -121 18 -24
52 -74 77 -113 24 -38 96 -139 160 -223 63 -83 131 -174 150 -201 53 -76 197
-216 272 -267 36 -24 99 -58 139 -74 114 -48 184 -40 177 19 -3 27 -23 40 -93
61 -100 30 -170 75 -274 175 -57 55 -117 120 -134 145 -17 25 -71 95 -119 156
-48 62 -88 116 -88 120 0 5 21 17 46 28 62 25 252 140 286 173 44 42 33 93
-19 93 -13 0 -58 -23 -99 -51 -98 -66 -238 -139 -267 -139 -17 0 -33 17 -66
70 -24 38 -52 77 -62 86 -11 10 -19 23 -19 30 0 7 -11 21 -24 32 -25 19 -24
19 227 36 388 25 500 38 522 56 23 19 18 57 -10 76 -21 14 -37 15 -127 5 -57
-6 -211 -18 -343 -26 -132 -8 -278 -20 -325 -26 -47 -5 -102 -12 -124 -15
l-39 -5 8 143 c4 79 8 144 10 146 3 3 120 23 280 47 61 8 133 20 160 25 28 5
79 14 115 20 36 7 75 18 88 26 25 17 29 55 7 74 -18 15 -108 8 -253 -20 -53
-10 -149 -26 -212 -34 -63 -9 -133 -19 -154 -22 l-39 -7 7 119 c4 65 8 119 9
121 2 1 52 11 112 23 61 12 155 30 209 41 54 10 113 19 130 19 48 0 178 29
204 46 25 17 29 56 7 74 -10 8 -32 11 -63 7 -158 -19 -274 -38 -474 -78 -53
-10 -104 -19 -113 -19 -14 0 -15 19 -13 153 l3 152 30 3 c17 2 73 12 125 24
112 24 232 42 390 58 63 7 126 17 140 24 32 14 40 64 14 83 -17 13 -31 13
-104 6z"/>
<path d="M406 2338 c-13 -18 -16 -53 -16 -175 l0 -152 -37 -10 c-21 -6 -78
-21 -128 -34 -137 -36 -127 4 -118 -480 8 -388 9 -409 27 -423 25 -18 37 -18
62 0 18 14 19 29 17 404 l-2 390 86 21 c47 12 88 19 92 16 3 -4 5 -392 3 -863
-3 -937 -5 -907 53 -907 22 0 33 7 42 25 9 19 13 251 15 904 4 861 4 879 24
887 10 4 61 17 113 29 77 18 95 20 102 9 12 -19 12 -709 0 -709 -6 0 -13 5
-16 10 -9 14 -58 13 -73 -2 -23 -23 -12 -57 37 -107 40 -43 54 -51 84 -51 79
0 91 80 85 563 -4 382 -7 404 -59 418 -23 6 -265 -41 -290 -57 -5 -3 -9 54 -9
133 0 152 -9 183 -55 183 -13 0 -31 -10 -39 -22z"/>
</g>
</svg>
