<?xml version="1.0" standalone="no"?>
<!DOCTYPE svg PUBLIC "-//W3C//DTD SVG 20010904//EN"
 "http://www.w3.org/TR/2001/REC-SVG-20010904/DTD/svg10.dtd">
<svg version="1.0" xmlns="http://www.w3.org/2000/svg"
 width="248.000000pt" height="248.000000pt" viewBox="0 0 248.000000 248.000000"
 preserveAspectRatio="xMidYMid meet">
<metadata>
Created by potrace 1.10, written by Peter Selinger 2001-2011
</metadata>
<g transform="translate(0.000000,248.000000) scale(0.100000,-0.100000)"
fill="#000000" stroke="none">
<path d="M1850 2410 c-162 -18 -255 -33 -391 -60 -80 -17 -166 -30 -192 -30
-88 0 -83 31 -91 -526 -5 -269 -11 -525 -15 -569 l-6 -80 -30 -2 c-115 -10
-278 -45 -302 -65 -21 -17 -15 -56 10 -72 20 -14 33 -13 122 3 55 11 161 27
235 36 74 8 169 20 210 25 41 5 188 16 325 25 138 8 286 20 331 25 44 6 96 10
115 10 72 0 106 62 53 96 -22 15 -36 16 -122 6 -53 -6 -209 -19 -347 -27 -221
-14 -298 -21 -449 -41 l-39 -5 8 143 c4 79 8 144 10 146 3 3 120 23 280 47 61
8 133 20 160 25 28 5 79 14 115 20 78 14 110 32 110 64 0 55 -45 57 -295 12
-71 -13 -170 -29 -220 -36 -49 -6 -105 -14 -124 -17 l-34 -6 7 119 c4 65 8
119 9 121 6 5 302 59 536 97 104 17 141 35 141 69 0 47 -35 56 -141 37 -30 -5
-124 -21 -210 -35 -86 -14 -187 -32 -225 -40 -115 -24 -105 -37 -102 138 l3
152 30 3 c17 2 73 12 125 23 131 28 180 36 295 49 216 26 237 29 251 40 21 18
18 67 -5 80 -21 11 -42 11 -141 0z"/>
<path d="M409 2343 c-10 -12 -15 -59 -17 -174 l-3 -159 -27 -7 c-177 -43 -226
-60 -244 -83 -17 -24 -18 -45 -11 -433 8 -388 9 -409 27 -423 25 -18 37 -18
62 0 18 14 19 29 17 404 l-2 389 62 16 c34 9 74 19 88 23 l26 5 6 -83 c3 -46
3 -434 1 -863 -6 -855 -8 -830 51 -830 22 0 33 7 42 25 9 19 13 251 15 904 l4
879 25 9 c47 18 193 49 206 44 10 -4 13 -77 13 -361 0 -328 -4 -379 -25 -345
-9 14 -58 13 -73 -2 -23 -23 -12 -57 37 -107 40 -43 54 -51 84 -51 79 0 90 73
85 554 -4 391 -7 414 -58 426 -23 6 -209 -28 -272 -50 l-28 -9 0 137 c0 108
-3 142 -16 160 -18 26 -56 29 -75 5z"/>
</g>
</svg>
