<?xml version="1.0" standalone="no"?>
<!DOCTYPE svg PUBLIC "-//W3C//DTD SVG 20010904//EN"
 "http://www.w3.org/TR/2001/REC-SVG-20010904/DTD/svg10.dtd">
<svg version="1.0" xmlns="http://www.w3.org/2000/svg"
 width="248.000000pt" height="248.000000pt" viewBox="0 0 248.000000 248.000000"
 preserveAspectRatio="xMidYMid meet">
<metadata>
Created by potrace 1.10, written by Peter Selinger 2001-2011
</metadata>
<g transform="translate(0.000000,248.000000) scale(0.100000,-0.100000)"
fill="#000000" stroke="none">
<path d="M409 2343 c-10 -12 -15 -59 -17 -174 l-3 -159 -27 -7 c-177 -43 -226
-60 -244 -83 -17 -24 -18 -45 -11 -433 8 -388 9 -409 27 -423 25 -18 37 -18
62 0 18 14 19 29 17 404 l-2 389 62 16 c34 9 74 19 88 23 l26 5 6 -83 c3 -46
3 -434 1 -863 -6 -855 -8 -830 51 -830 22 0 33 7 42 25 9 19 13 251 15 904 l4
879 25 9 c47 18 193 49 206 44 10 -4 13 -77 13 -361 0 -328 -4 -379 -25 -345
-9 14 -58 13 -73 -2 -23 -23 -12 -57 37 -107 40 -43 54 -51 84 -51 79 0 90 73
85 554 -4 391 -7 414 -58 426 -23 6 -209 -28 -272 -50 l-28 -9 0 137 c0 108
-3 142 -16 160 -18 26 -56 29 -75 5z"/>
</g>
</svg>
