<?xml version="1.0" standalone="no"?>
<!DOCTYPE svg PUBLIC "-//W3C//DTD SVG 20010904//EN"
 "http://www.w3.org/TR/2001/REC-SVG-20010904/DTD/svg10.dtd">
<svg version="1.0" xmlns="http://www.w3.org/2000/svg"
 width="248.000000pt" height="248.000000pt" viewBox="0 0 248.000000 248.000000"
 preserveAspectRatio="xMidYMid meet">
<metadata>
Created by potrace 1.10, written by Peter Selinger 2001-2011
</metadata>
<g transform="translate(0.000000,248.000000) scale(0.100000,-0.100000)"
fill="#000000" stroke="none">
<path d="M650 2078 c-69 -15 -212 -52 -319 -81 -161 -44 -198 -57 -213 -78
-17 -23 -18 -45 -11 -432 8 -388 9 -409 27 -423 25 -18 37 -18 62 0 18 14 19
29 17 404 l-2 389 67 18 c37 9 130 34 207 55 189 51 242 63 255 55 13 -8 14
-715 1 -715 -6 0 -13 5 -16 10 -9 14 -58 13 -73 -2 -23 -23 -12 -57 37 -107
40 -43 54 -51 84 -51 79 0 90 73 85 554 -4 391 -7 413 -58 426 -14 4 -78 -5
-150 -22z"/>
</g>
</svg>
