<?xml version="1.0" standalone="no"?>
<!DOCTYPE svg PUBLIC "-//W3C//DTD SVG 20010904//EN"
 "http://www.w3.org/TR/2001/REC-SVG-20010904/DTD/svg10.dtd">
<svg version="1.0" xmlns="http://www.w3.org/2000/svg"
 width="248.000000pt" height="248.000000pt" viewBox="0 0 248.000000 248.000000"
 preserveAspectRatio="xMidYMid meet">
<metadata>
Created by potrace 1.10, written by Peter Selinger 2001-2011
</metadata>
<g transform="translate(0.000000,248.000000) scale(0.100000,-0.100000)"
fill="#000000" stroke="none">
<path d="M830 2280 c-85 -16 -213 -38 -285 -50 -71 -11 -170 -27 -219 -35 -49
-8 -95 -20 -103 -27 -23 -18 -12 -61 20 -76 30 -15 93 -6 566 77 63 11 117 19
119 17 7 -8 -146 -181 -210 -237 l-64 -57 -37 34 c-54 50 -107 43 -107 -14 0
-17 31 -56 105 -132 58 -59 105 -113 105 -119 0 -6 -10 -13 -22 -16 -49 -10
-358 -67 -442 -81 -100 -16 -136 -34 -136 -67 0 -51 36 -57 180 -32 47 8 114
21 150 28 36 8 124 24 195 36 72 12 176 31 233 42 56 11 114 19 128 17 l27 -3
-40 -50 c-22 -28 -70 -75 -107 -105 -67 -54 -87 -89 -69 -119 35 -56 165 36
294 209 82 109 97 152 64 180 -18 15 -133 7 -255 -16 -98 -18 -100 -18 -100 9
0 14 -19 42 -47 71 l-46 48 74 72 c138 133 299 336 299 376 0 59 -38 62 -270
20z"/>
</g>
</svg>
