<?xml version="1.0" standalone="no"?>
<!DOCTYPE svg PUBLIC "-//W3C//DTD SVG 20010904//EN"
 "http://www.w3.org/TR/2001/REC-SVG-20010904/DTD/svg10.dtd">
<svg version="1.0" xmlns="http://www.w3.org/2000/svg"
 width="248.000000pt" height="248.000000pt" viewBox="0 0 248.000000 248.000000"
 preserveAspectRatio="xMidYMid meet">
<metadata>
Created by potrace 1.10, written by Peter Selinger 2001-2011
</metadata>
<g transform="translate(0.000000,248.000000) scale(0.100000,-0.100000)"
fill="#000000" stroke="none">
<path d="M1406 2298 c-9 -12 -16 -37 -16 -56 0 -50 -19 -116 -67 -235 -48
-119 -76 -178 -104 -218 -29 -41 -33 -72 -11 -99 29 -36 61 -22 100 45 18 30
35 55 38 55 3 0 40 -35 82 -78 43 -43 105 -103 140 -132 l62 -54 -67 -69 c-85
-86 -177 -154 -271 -201 -77 -39 -88 -51 -78 -91 11 -42 45 -41 132 3 100 51
188 115 287 210 l77 76 48 -34 c268 -190 406 -263 554 -290 78 -14 106 -8 114
26 9 37 -19 61 -85 74 -122 24 -221 70 -381 178 -85 57 -161 110 -169 118 -12
11 -8 22 26 76 22 35 50 79 62 100 33 56 110 246 117 289 6 35 10 39 43 44
180 29 221 46 221 90 0 32 -24 48 -62 42 -207 -30 -278 -41 -368 -57 -103 -19
-198 -33 -314 -45 -52 -6 -58 -5 -53 10 4 8 15 54 24 101 16 76 16 87 3 112
-21 36 -62 41 -84 10z m449 -400 c-35 -88 -134 -270 -154 -282 -9 -6 -177 141
-250 218 -19 20 -41 36 -48 36 -15 0 -16 10 -4 44 11 28 30 33 273 66 86 12
169 25 185 29 40 11 40 -4 -2 -111z"/>
<path d="M830 2280 c-85 -16 -213 -38 -285 -50 -71 -11 -170 -27 -219 -35
-100 -17 -118 -27 -114 -64 5 -47 43 -55 161 -36 149 25 306 51 436 75 63 11
116 18 118 16 8 -8 -144 -179 -209 -237 l-64 -57 -37 34 c-54 50 -107 43 -107
-14 0 -17 31 -56 105 -132 58 -59 105 -113 105 -119 0 -6 -10 -13 -22 -16 -49
-10 -358 -67 -442 -81 -100 -16 -136 -34 -136 -67 0 -51 36 -57 180 -32 73 12
175 32 258 50 17 4 22 1 22 -16 0 -24 -35 -125 -73 -209 -40 -89 -231 -441
-267 -493 -29 -40 -32 -51 -24 -75 7 -20 17 -28 40 -30 28 -3 36 3 68 46 35
48 95 156 219 394 34 64 63 115 65 113 2 -2 0 -208 -4 -459 l-7 -456 -39 35
c-44 40 -91 47 -108 16 -16 -31 -13 -37 41 -98 111 -126 120 -133 155 -133 61
0 64 18 65 357 1 164 5 464 8 667 l6 369 125 24 c69 12 138 22 154 20 l29 -2
-40 -50 c-22 -28 -70 -75 -107 -105 -67 -54 -87 -89 -69 -119 35 -56 164 35
295 209 67 90 78 110 76 140 -5 62 -25 64 -259 25 -111 -19 -109 -19 -109 8 0
14 -19 42 -47 71 l-46 48 74 72 c138 133 299 336 299 376 0 59 -38 62 -270 20z"/>
<path d="M1657 1288 c-8 -13 -17 -48 -20 -78 -5 -56 -59 -214 -81 -237 -12
-13 -156 -37 -291 -48 -95 -8 -128 -25 -123 -63 6 -50 37 -55 210 -34 84 11
155 18 157 16 1 -1 -16 -45 -40 -96 -54 -120 -191 -320 -291 -426 -89 -95
-103 -126 -68 -154 12 -10 28 -18 36 -18 26 0 187 180 274 309 82 120 167 277
185 341 17 60 31 70 98 70 34 0 98 4 142 9 44 5 124 13 177 16 l97 7 -6 -39
c-30 -208 -156 -633 -187 -633 -7 0 -47 31 -90 70 -42 38 -81 70 -87 70 -28 0
-49 -22 -49 -52 0 -34 44 -84 149 -167 128 -101 187 -25 295 377 80 297 98
434 64 469 -17 16 -29 16 -180 4 -266 -22 -348 -26 -348 -19 0 4 11 36 24 70
12 35 29 93 36 129 11 55 11 70 -1 95 -19 38 -62 45 -82 12z"/>
</g>
</svg>
