<?xml version="1.0" standalone="no"?>
<!DOCTYPE svg PUBLIC "-//W3C//DTD SVG 20010904//EN"
 "http://www.w3.org/TR/2001/REC-SVG-20010904/DTD/svg10.dtd">
<svg version="1.0" xmlns="http://www.w3.org/2000/svg"
 width="248.000000pt" height="248.000000pt" viewBox="0 0 248.000000 248.000000"
 preserveAspectRatio="xMidYMid meet">
<metadata>
Created by potrace 1.10, written by Peter Selinger 2001-2011
</metadata>
<g transform="translate(0.000000,248.000000) scale(0.100000,-0.100000)"
fill="#000000" stroke="none">
<path d="M1739 2253 c-21 -24 -24 -387 -6 -573 8 -80 12 -148 8 -151 -3 -4
-71 -14 -151 -23 -80 -9 -162 -19 -184 -22 l-38 -6 7 53 c4 30 15 88 26 131
10 42 19 90 19 106 0 39 12 47 99 60 87 12 118 35 107 77 -9 36 -27 40 -109
25 -40 -7 -104 -18 -144 -25 -40 -7 -75 -10 -78 -7 -3 3 -5 64 -5 137 0 88 -4
135 -12 143 -16 16 -53 15 -66 0 -5 -7 -12 -69 -15 -138 -2 -69 -8 -132 -11
-141 -7 -16 -174 -49 -248 -49 -63 0 -96 -52 -58 -90 16 -16 28 -20 51 -15 25
6 29 4 29 -15 0 -11 6 -33 14 -48 15 -31 41 -214 33 -235 -3 -8 -42 -21 -99
-31 -123 -23 -126 -24 -139 -47 -13 -25 -3 -56 23 -70 15 -8 37 -7 86 5 37 9
117 23 177 32 200 27 559 72 632 80 70 6 72 6 77 -17 2 -13 11 -69 20 -124 56
-340 262 -805 460 -1037 82 -97 108 -115 140 -100 21 9 25 20 32 89 4 43 7
125 8 183 l1 104 -28 10 c-44 16 -58 -7 -68 -115 -5 -50 -10 -94 -13 -96 -9
-9 -156 218 -214 332 -28 56 -119 276 -148 358 -43 124 -101 422 -84 432 8 5
270 24 398 28 51 2 98 9 104 15 14 14 13 61 -1 75 -14 14 -108 13 -355 -4 -87
-6 -160 -8 -163 -5 -13 13 -35 325 -35 501 0 126 -3 204 -10 212 -15 18 -53
16 -69 -4z m-419 -479 c0 -9 -9 -50 -19 -92 -11 -43 -23 -107 -26 -144 -4 -38
-8 -68 -9 -69 -14 -5 -158 -24 -161 -21 -3 3 -5 33 -5 66 0 79 -17 181 -35
217 -15 28 -15 28 22 35 60 11 144 21 191 23 32 1 42 -3 42 -15z"/>
<path d="M330 2200 c-38 -38 -23 -64 77 -127 145 -92 258 -123 289 -78 22 33
-2 66 -59 81 -65 16 -146 57 -209 105 -60 45 -70 47 -98 19z"/>
<path d="M635 1795 c-139 -31 -410 -75 -466 -75 -26 0 -46 -7 -59 -20 -25 -25
-25 -45 1 -71 18 -18 28 -19 77 -14 31 4 73 11 92 15 19 5 62 12 95 15 93 11
369 66 383 77 30 25 -1 89 -44 87 -10 0 -46 -7 -79 -14z"/>
<path d="M443 1380 c-39 -10 -109 -24 -155 -31 -45 -6 -89 -16 -95 -21 -16
-13 -17 -50 -1 -66 20 -20 136 -14 246 13 57 14 116 25 131 25 30 0 61 27 61
52 0 26 -35 48 -76 47 -21 0 -71 -9 -111 -19z"/>
<path d="M1290 1178 c-391 -41 -407 -47 -381 -147 8 -31 14 -138 16 -282 3
-190 7 -235 19 -247 16 -16 4 -17 276 18 103 13 160 31 176 55 13 20 24 121
46 422 9 131 9 165 -2 178 -14 16 -23 16 -150 3z m53 -177 c-1 -44 -7 -77 -14
-82 -14 -9 -258 -32 -285 -27 -16 3 -20 14 -25 73 -3 39 -3 73 0 77 7 9 243
37 291 35 l35 -2 -2 -74z m-21 -263 c-8 -117 -4 -114 -124 -123 -56 -4 -119
-8 -138 -9 l-35 -1 -1 88 c-1 59 2 90 10 93 11 4 190 20 257 23 l36 1 -5 -72z"/>
<path d="M361 1036 c-142 -32 -171 -46 -171 -83 0 -24 40 -55 63 -49 12 4 92
23 177 42 85 19 160 40 167 46 16 13 17 50 1 66 -19 19 -82 13 -237 -22z"/>
<path d="M505 749 c-327 -40 -396 -71 -346 -152 15 -25 22 -63 30 -166 6 -74
11 -145 11 -157 0 -47 55 -70 90 -39 10 9 65 22 134 32 71 10 126 23 138 33
21 17 58 148 58 210 1 19 7 62 15 95 34 140 14 162 -130 144z m31 -131 c-31
-186 -38 -224 -45 -231 -12 -12 -184 -37 -192 -29 -4 4 -10 54 -14 112 -3 58
-7 114 -8 125 -2 17 10 21 103 36 58 9 118 17 133 18 26 1 28 -1 23 -31z"/>
</g>
</svg>
