<?xml version="1.0" standalone="no"?>
<!DOCTYPE svg PUBLIC "-//W3C//DTD SVG 20010904//EN"
 "http://www.w3.org/TR/2001/REC-SVG-20010904/DTD/svg10.dtd">
<svg version="1.0" xmlns="http://www.w3.org/2000/svg"
 width="248.000000pt" height="248.000000pt" viewBox="0 0 248.000000 248.000000"
 preserveAspectRatio="xMidYMid meet">
<metadata>
Created by potrace 1.10, written by Peter Selinger 2001-2011
</metadata>
<g transform="translate(0.000000,248.000000) scale(0.100000,-0.100000)"
fill="#000000" stroke="none">
<path d="M1739 2254 c-19 -24 -25 -319 -9 -519 7 -88 13 -171 14 -185 1 -27 7
-26 -317 -64 l-59 -6 7 52 c4 29 15 87 26 130 10 42 19 90 19 106 0 39 12 47
99 60 90 13 121 36 105 79 -8 24 -15 28 -49 27 -38 0 -231 -30 -267 -40 -17
-5 -18 6 -18 133 0 95 -4 143 -12 151 -16 16 -53 15 -66 0 -5 -7 -12 -70 -14
-141 -3 -94 -8 -131 -18 -141 -16 -15 -178 -46 -242 -46 -25 0 -45 -7 -58 -20
-25 -25 -25 -45 1 -71 15 -15 28 -19 50 -14 24 6 29 3 29 -13 0 -10 6 -32 14
-48 17 -35 41 -233 29 -244 -4 -5 -55 -17 -113 -28 -102 -20 -130 -35 -130
-69 0 -23 41 -55 63 -50 70 15 207 39 302 52 158 23 586 75 612 75 25 0 23 7
48 -146 16 -103 68 -300 101 -386 l18 -47 -39 -58 c-22 -32 -99 -119 -173
-192 -119 -121 -133 -138 -130 -165 3 -27 7 -31 36 -34 29 -3 43 7 130 87 53
50 124 124 157 166 33 41 63 75 66 75 3 0 20 -31 37 -69 76 -174 270 -457 348
-507 19 -13 30 -15 48 -6 21 9 25 20 32 89 4 43 7 125 8 183 l1 104 -28 10
c-45 16 -59 -8 -68 -114 -4 -50 -9 -93 -11 -95 -7 -8 -85 100 -140 195 -68
116 -97 175 -132 262 l-26 68 38 77 c55 111 132 305 132 334 0 31 -17 49 -47
49 -29 0 -41 -19 -98 -160 -26 -63 -54 -128 -63 -145 l-15 -30 -18 53 c-38
113 -95 407 -80 417 10 5 271 24 389 28 58 2 107 8 113 14 15 15 15 61 0 76
-14 14 -123 13 -359 -4 -85 -6 -156 -8 -159 -5 -14 14 -35 319 -35 501 1 126
-3 204 -10 212 -15 18 -53 16 -69 -3z m-419 -480 c0 -9 -9 -50 -19 -92 -11
-43 -23 -107 -26 -144 -4 -38 -8 -68 -9 -69 -14 -5 -158 -24 -161 -21 -3 3 -5
33 -5 66 0 79 -17 181 -35 217 -15 28 -15 28 22 35 60 11 144 21 191 23 32 1
42 -3 42 -15z"/>
<path d="M330 2200 c-37 -37 -25 -59 65 -120 137 -92 270 -130 301 -85 22 33
-2 66 -56 80 -64 17 -151 60 -212 106 -60 45 -70 47 -98 19z"/>
<path d="M1962 2058 c-24 -24 -11 -57 51 -130 160 -189 223 -228 250 -155 10
26 -6 50 -86 131 -40 39 -90 92 -113 119 -41 48 -77 60 -102 35z"/>
<path d="M630 1794 c-100 -22 -204 -41 -335 -59 -66 -9 -135 -19 -152 -21 -36
-5 -58 -34 -48 -64 11 -35 39 -42 118 -30 39 6 117 17 172 25 55 8 134 21 175
30 41 9 99 20 129 25 29 5 59 15 67 21 32 27 2 90 -42 88 -10 0 -48 -7 -84
-15z"/>
<path d="M445 1380 c-38 -10 -108 -24 -155 -31 -47 -6 -91 -16 -97 -21 -16
-13 -17 -50 -1 -66 20 -20 136 -14 246 13 57 14 116 25 131 25 30 0 61 27 61
52 0 26 -35 48 -76 47 -21 0 -70 -9 -109 -19z"/>
<path d="M1290 1178 c-393 -41 -405 -46 -382 -150 7 -30 14 -152 16 -281 3
-192 6 -231 19 -245 14 -13 27 -14 109 -3 51 6 127 16 168 21 106 13 159 30
175 54 14 22 27 133 46 418 13 184 10 199 -40 197 -14 -1 -64 -6 -111 -11z
m53 -177 c-1 -44 -7 -77 -14 -82 -14 -9 -258 -32 -285 -27 -16 3 -20 14 -25
73 -3 39 -3 73 1 77 7 9 250 37 295 35 l30 -2 -2 -74z m-23 -260 c0 -116 -1
-117 -122 -126 -56 -4 -119 -8 -138 -9 l-35 -1 0 87 c0 47 3 89 6 92 5 6 163
21 257 25 l32 1 0 -69z"/>
<path d="M356 1035 c-137 -32 -166 -46 -166 -82 0 -24 40 -55 63 -48 12 3 92
22 177 41 85 19 160 40 167 46 16 13 17 50 1 66 -19 19 -93 12 -242 -23z"/>
<path d="M480 745 c-186 -23 -250 -35 -290 -55 -49 -25 -58 -51 -31 -94 17
-26 23 -61 31 -172 5 -76 10 -147 10 -156 0 -41 58 -62 90 -33 10 9 67 23 139
33 74 11 128 24 137 34 19 18 42 106 54 202 5 39 15 104 21 144 19 108 4 117
-161 97z m57 -117 c-3 -13 -8 -45 -12 -73 -10 -87 -28 -165 -37 -172 -14 -8
-181 -32 -190 -27 -4 3 -20 171 -23 249 0 8 152 37 234 43 30 3 33 1 28 -20z"/>
</g>
</svg>
