<?xml version="1.0" standalone="no"?>
<!DOCTYPE svg PUBLIC "-//W3C//DTD SVG 20010904//EN"
 "http://www.w3.org/TR/2001/REC-SVG-20010904/DTD/svg10.dtd">
<svg version="1.0" xmlns="http://www.w3.org/2000/svg"
 width="248.000000pt" height="248.000000pt" viewBox="0 0 248.000000 248.000000"
 preserveAspectRatio="xMidYMid meet">
<metadata>
Created by potrace 1.10, written by Peter Selinger 2001-2011
</metadata>
<g transform="translate(0.000000,248.000000) scale(0.100000,-0.100000)"
fill="#000000" stroke="none">
<path d="M330 2200 c-38 -38 -23 -64 77 -127 145 -92 258 -123 289 -78 22 33
-2 66 -59 81 -65 16 -146 57 -209 105 -60 45 -70 47 -98 19z"/>
<path d="M635 1795 c-139 -31 -410 -75 -466 -75 -26 0 -46 -7 -59 -20 -25 -25
-25 -45 1 -71 18 -18 28 -19 77 -14 31 4 73 11 92 15 19 5 62 12 95 15 93 11
369 66 383 77 30 25 -1 89 -44 87 -10 0 -46 -7 -79 -14z"/>
</g>
</svg>
