<?xml version="1.0" standalone="no"?>
<!DOCTYPE svg PUBLIC "-//W3C//DTD SVG 20010904//EN"
 "http://www.w3.org/TR/2001/REC-SVG-20010904/DTD/svg10.dtd">
<svg version="1.0" xmlns="http://www.w3.org/2000/svg"
 width="248.000000pt" height="248.000000pt" viewBox="0 0 248.000000 248.000000"
 preserveAspectRatio="xMidYMid meet">
<metadata>
Created by potrace 1.10, written by Peter Selinger 2001-2011
</metadata>
<g transform="translate(0.000000,248.000000) scale(0.100000,-0.100000)"
fill="#000000" stroke="none">
<path d="M330 2200 c-38 -38 -23 -64 77 -127 145 -92 258 -123 289 -78 22 33
-2 66 -59 81 -65 16 -146 57 -209 105 -60 45 -70 47 -98 19z"/>
<path d="M1212 2178 c-8 -8 -12 -47 -12 -108 0 -53 -5 -122 -11 -153 -14 -66
-4 -87 42 -87 48 0 59 37 59 198 0 145 -5 162 -45 162 -12 0 -26 -5 -33 -12z"/>
<path d="M635 1795 c-139 -31 -410 -75 -466 -75 -26 0 -46 -7 -59 -20 -25 -25
-25 -45 1 -71 18 -18 28 -19 77 -14 31 4 73 11 92 15 19 5 62 12 95 15 93 11
369 66 383 77 30 25 -1 89 -44 87 -10 0 -46 -7 -79 -14z"/>
<path d="M443 1380 c-39 -10 -109 -24 -155 -31 -45 -6 -89 -16 -95 -21 -16
-13 -17 -50 -1 -66 20 -20 136 -14 246 13 57 14 116 25 131 25 30 0 61 27 61
52 0 26 -35 48 -76 47 -21 0 -71 -9 -111 -19z"/>
<path d="M361 1036 c-142 -32 -171 -46 -171 -83 0 -24 40 -55 63 -49 12 4 92
23 177 42 85 19 160 40 167 46 16 13 17 50 1 66 -19 19 -82 13 -237 -22z"/>
<path d="M505 749 c-327 -40 -396 -71 -346 -152 15 -25 22 -63 30 -166 6 -74
11 -145 11 -157 0 -47 55 -70 90 -39 10 9 65 22 134 32 71 10 126 23 138 33
21 17 58 148 58 210 1 19 7 62 15 95 34 140 14 162 -130 144z m31 -131 c-31
-186 -38 -224 -45 -231 -12 -12 -184 -37 -192 -29 -4 4 -10 54 -14 112 -3 58
-7 114 -8 125 -2 17 10 21 103 36 58 9 118 17 133 18 26 1 28 -1 23 -31z"/>
</g>
</svg>
