<?xml version="1.0" standalone="no"?>
<!DOCTYPE svg PUBLIC "-//W3C//DTD SVG 20010904//EN"
 "http://www.w3.org/TR/2001/REC-SVG-20010904/DTD/svg10.dtd">
<svg version="1.0" xmlns="http://www.w3.org/2000/svg"
 width="248.000000pt" height="248.000000pt" viewBox="0 0 248.000000 248.000000"
 preserveAspectRatio="xMidYMid meet">
<metadata>
Created by potrace 1.10, written by Peter Selinger 2001-2011
</metadata>
<g transform="translate(0.000000,248.000000) scale(0.100000,-0.100000)"
fill="#000000" stroke="none">
<path d="M1406 2298 c-9 -12 -16 -38 -16 -56 0 -71 -80 -295 -146 -411 -58
-101 -59 -102 -43 -130 19 -33 52 -38 76 -12 58 62 182 348 210 486 16 77 16
88 3 113 -21 36 -62 41 -84 10z"/>
<path d="M830 2280 c-85 -16 -213 -38 -285 -50 -71 -11 -170 -27 -219 -35
-100 -17 -118 -27 -114 -64 5 -47 43 -55 161 -36 149 25 306 51 436 75 63 11
116 18 118 16 8 -8 -144 -179 -209 -237 l-64 -57 -37 34 c-54 50 -107 43 -107
-14 0 -17 31 -56 105 -132 58 -59 105 -113 105 -119 0 -6 -10 -13 -22 -16 -49
-10 -358 -67 -442 -81 -100 -16 -136 -34 -136 -67 0 -51 36 -57 180 -32 73 12
175 32 258 50 17 4 22 1 22 -16 0 -24 -35 -125 -73 -209 -40 -89 -231 -441
-267 -493 -29 -40 -32 -51 -24 -75 7 -20 17 -28 40 -30 28 -3 36 3 68 46 35
48 95 156 219 394 34 64 63 115 65 113 2 -2 0 -208 -4 -459 l-7 -456 -39 35
c-44 40 -91 47 -108 16 -16 -31 -13 -37 41 -98 111 -126 120 -133 155 -133 61
0 64 18 65 357 1 164 5 464 8 667 l6 369 125 24 c69 12 138 22 154 20 l29 -2
-40 -50 c-22 -28 -70 -75 -107 -105 -67 -54 -87 -89 -69 -119 35 -56 164 35
295 209 67 90 78 110 76 140 -5 62 -25 64 -259 25 -111 -19 -109 -19 -109 8 0
14 -19 42 -47 71 l-46 48 74 72 c138 133 299 336 299 376 0 59 -38 62 -270 20z"/>
</g>
</svg>
