<?xml version="1.0" standalone="no"?>
<!DOCTYPE svg PUBLIC "-//W3C//DTD SVG 20010904//EN"
 "http://www.w3.org/TR/2001/REC-SVG-20010904/DTD/svg10.dtd">
<svg version="1.0" xmlns="http://www.w3.org/2000/svg"
 width="248.000000pt" height="248.000000pt" viewBox="0 0 248.000000 248.000000"
 preserveAspectRatio="xMidYMid meet">
<metadata>
Created by potrace 1.10, written by Peter Selinger 2001-2011
</metadata>
<g transform="translate(0.000000,248.000000) scale(0.100000,-0.100000)"
fill="#000000" stroke="none">
<path d="M1162 2178 c-21 -21 -13 -50 37 -127 27 -42 85 -133 129 -202 44 -69
98 -150 121 -180 22 -30 41 -61 41 -69 0 -8 -17 -40 -38 -70 -114 -164 -141
-201 -195 -270 -32 -41 -76 -98 -97 -127 -58 -76 -266 -288 -332 -340 -59 -45
-72 -75 -46 -101 23 -23 65 -13 124 31 63 47 262 250 325 332 21 28 63 82 94
120 30 39 79 104 107 145 28 41 69 99 91 129 46 62 40 66 109 -54 22 -38 55
-92 73 -120 18 -27 56 -92 84 -143 142 -256 409 -541 498 -530 64 8 55 71 -16
112 -51 30 -218 206 -290 306 -22 30 -71 109 -109 175 -114 198 -178 300 -280
447 -104 150 -140 203 -216 325 -140 221 -141 223 -185 223 -9 0 -22 -5 -29
-12z"/>
</g>
</svg>
