<?xml version="1.0" standalone="no"?>
<!DOCTYPE svg PUBLIC "-//W3C//DTD SVG 20010904//EN"
 "http://www.w3.org/TR/2001/REC-SVG-20010904/DTD/svg10.dtd">
<svg version="1.0" xmlns="http://www.w3.org/2000/svg"
 width="248.000000pt" height="248.000000pt" viewBox="0 0 248.000000 248.000000"
 preserveAspectRatio="xMidYMid meet">
<metadata>
Created by potrace 1.10, written by Peter Selinger 2001-2011
</metadata>
<g transform="translate(0.000000,248.000000) scale(0.100000,-0.100000)"
fill="#000000" stroke="none">
<path d="M1162 2178 c-21 -21 -13 -50 37 -127 27 -42 85 -133 129 -202 44 -69
98 -150 121 -180 22 -30 41 -61 41 -69 0 -8 -17 -40 -38 -70 -114 -164 -141
-201 -195 -270 -32 -41 -76 -98 -97 -127 -58 -76 -266 -288 -332 -340 -59 -45
-72 -75 -46 -101 23 -23 65 -13 124 31 63 47 262 250 325 332 21 28 63 82 94
120 30 39 79 104 107 145 28 41 69 99 91 129 46 62 40 66 109 -54 22 -38 55
-92 73 -120 18 -27 56 -92 84 -143 142 -256 409 -541 498 -530 64 8 55 71 -16
112 -51 30 -218 206 -290 306 -22 30 -71 109 -109 175 -114 198 -178 300 -280
447 -104 150 -140 203 -216 325 -140 221 -141 223 -185 223 -9 0 -22 -5 -29
-12z"/>
<path d="M242 1838 c-18 -18 -15 -52 6 -71 10 -9 56 -25 102 -36 47 -11 112
-29 144 -40 67 -24 107 -26 124 -9 19 19 14 56 -11 73 -33 21 -129 53 -227 75
-100 23 -122 24 -138 8z"/>
<path d="M446 1329 c-60 -33 -146 -84 -190 -114 -45 -29 -106 -66 -136 -82
-43 -22 -56 -34 -58 -55 -4 -36 34 -62 74 -52 16 4 91 47 168 97 172 110 172
110 153 66 -96 -218 -105 -252 -87 -319 7 -28 29 -62 62 -96 27 -29 47 -58 43
-63 -3 -6 -41 -28 -83 -48 -42 -20 -88 -44 -102 -53 -14 -9 -52 -26 -85 -39
-72 -29 -95 -47 -95 -76 0 -27 18 -45 46 -45 28 0 150 46 183 69 14 10 42 24
61 31 19 7 46 21 60 30 14 10 34 20 46 24 11 3 35 22 54 41 54 56 39 114 -49
198 -58 55 -56 95 14 242 109 229 118 260 89 289 -26 26 -54 19 -168 -45z"/>
</g>
</svg>
