<?xml version="1.0" standalone="no"?>
<!DOCTYPE svg PUBLIC "-//W3C//DTD SVG 20010904//EN"
 "http://www.w3.org/TR/2001/REC-SVG-20010904/DTD/svg10.dtd">
<svg version="1.0" xmlns="http://www.w3.org/2000/svg"
 width="248.000000pt" height="248.000000pt" viewBox="0 0 248.000000 248.000000"
 preserveAspectRatio="xMidYMid meet">
<metadata>
Created by potrace 1.10, written by Peter Selinger 2001-2011
</metadata>
<g transform="translate(0.000000,248.000000) scale(0.100000,-0.100000)"
fill="#000000" stroke="none">
<path d="M1507 1622 c-10 -10 -17 -23 -17 -28 0 -5 -17 -34 -38 -64 -114 -164
-141 -201 -195 -270 -32 -41 -76 -98 -97 -127 -58 -76 -266 -288 -332 -340
-59 -45 -72 -75 -46 -101 23 -23 65 -13 124 31 63 47 262 250 325 332 21 28
63 82 94 120 76 96 215 295 243 347 36 68 26 118 -23 118 -12 0 -29 -8 -38
-18z"/>
</g>
</svg>
