<?xml version="1.0" standalone="no"?>
<!DOCTYPE svg PUBLIC "-//W3C//DTD SVG 20010904//EN"
 "http://www.w3.org/TR/2001/REC-SVG-20010904/DTD/svg10.dtd">
<svg version="1.0" xmlns="http://www.w3.org/2000/svg"
 width="248.000000pt" height="248.000000pt" viewBox="0 0 248.000000 248.000000"
 preserveAspectRatio="xMidYMid meet">
<metadata>
Created by potrace 1.10, written by Peter Selinger 2001-2011
</metadata>
<g transform="translate(0.000000,248.000000) scale(0.100000,-0.100000)"
fill="#000000" stroke="none">
<path d="M1580 2134 c-25 -2 -143 -11 -264 -20 -216 -15 -257 -22 -271 -44
-11 -18 -6 -710 6 -731 5 -10 20 -21 32 -24 13 -4 140 -1 283 6 142 7 304 13
360 13 66 1 106 6 116 14 20 16 26 81 39 456 9 268 8 301 -6 315 -12 13 -40
16 -133 17 -64 1 -137 0 -162 -2z m197 -186 c-4 -46 -7 -99 -7 -118 0 -29 -4
-35 -22 -36 -13 0 -77 -6 -143 -12 -66 -7 -188 -17 -271 -22 -84 -5 -159 -13
-168 -16 -14 -5 -16 8 -16 115 0 67 -1 124 -2 129 -4 11 346 38 536 41 l99 1
-6 -82z m-14 -375 l-6 -121 -66 -6 c-59 -6 -443 -25 -513 -26 l-28 0 0 109 0
108 47 7 c26 3 99 9 162 12 119 5 393 33 400 40 9 9 10 -7 4 -123z"/>
<path d="M640 2065 c-9 -11 -12 -108 -13 -390 0 -404 1 -409 52 -403 53 6 56
29 56 408 0 314 -2 348 -18 373 -19 30 -57 36 -77 12z"/>
<path d="M1317 1148 c-12 -18 -17 -91 -23 -338 -13 -446 -12 -469 9 -505 41
-67 127 -99 312 -115 183 -15 242 -13 432 20 195 34 222 43 241 83 15 31 6
114 -25 232 -18 69 -37 95 -68 95 -51 0 -54 -30 -20 -188 10 -45 15 -85 12
-88 -3 -3 -72 -17 -154 -31 -134 -23 -165 -25 -328 -19 -179 6 -257 19 -298
50 -17 13 -17 32 -6 387 11 322 10 378 -2 404 -19 39 -61 46 -82 13z"/>
<path d="M859 1124 c-9 -11 -12 -41 -10 -95 3 -88 -12 -169 -66 -354 -51 -175
-136 -359 -191 -408 -53 -48 -49 -117 8 -117 37 0 96 66 155 175 59 110 88
181 128 321 78 268 93 407 52 471 -18 27 -56 30 -76 7z"/>
</g>
</svg>
