<?xml version="1.0" standalone="no"?>
<!DOCTYPE svg PUBLIC "-//W3C//DTD SVG 20010904//EN"
 "http://www.w3.org/TR/2001/REC-SVG-20010904/DTD/svg10.dtd">
<svg version="1.0" xmlns="http://www.w3.org/2000/svg"
 width="248.000000pt" height="248.000000pt" viewBox="0 0 248.000000 248.000000"
 preserveAspectRatio="xMidYMid meet">
<metadata>
Created by potrace 1.10, written by Peter Selinger 2001-2011
</metadata>
<g transform="translate(0.000000,248.000000) scale(0.100000,-0.100000)"
fill="#000000" stroke="none">
<path d="M1795 2369 c-44 -4 -114 -12 -155 -18 -41 -6 -123 -11 -181 -11 -157
0 -145 33 -140 -388 2 -191 7 -356 12 -368 10 -28 42 -39 69 -24 11 6 21 12
21 13 1 1 5 65 8 142 l6 139 75 12 c41 6 113 17 160 24 47 6 127 19 178 27 51
8 95 14 96 12 2 -2 6 -387 9 -855 l5 -851 -29 14 c-49 24 -94 -19 -69 -66 13
-26 127 -121 144 -121 24 0 45 25 54 65 9 41 5 2143 -4 2202 -8 53 -26 63
-107 62 -40 -1 -108 -5 -152 -10z m155 -218 l0 -118 -52 -6 c-29 -3 -145 -20
-257 -36 -113 -17 -206 -29 -207 -28 -1 1 -5 62 -9 135 l-7 132 57 0 c32 0
103 7 159 15 99 14 159 19 264 23 l52 2 0 -119z"/>
<path d="M830 2319 c-229 -39 -299 -49 -360 -49 -62 0 -74 -3 -95 -25 l-25
-24 0 -263 c0 -145 -5 -597 -12 -1006 l-12 -743 21 -21 c30 -30 68 -18 82 24
6 20 12 260 16 588 3 305 8 576 11 602 l6 47 51 11 c29 5 128 21 221 35 101
15 184 32 205 43 65 34 66 39 66 414 0 380 3 368 -76 373 -24 2 -69 -1 -99 -6z
m70 -224 l0 -125 -34 0 c-19 0 -79 -9 -134 -20 -55 -10 -130 -24 -168 -30 -38
-6 -77 -13 -86 -16 -17 -5 -18 6 -18 125 l0 131 26 0 c24 0 199 27 324 49 98
18 90 28 90 -114z m-2 -345 c-2 -60 -8 -114 -13 -119 -6 -6 -84 -21 -175 -35
-91 -14 -184 -28 -207 -32 l-43 -7 0 121 0 121 48 6 c26 4 99 17 162 30 63 13
141 23 174 24 l58 1 -4 -110z"/>
</g>
</svg>
