<?xml version="1.0" standalone="no"?>
<!DOCTYPE svg PUBLIC "-//W3C//DTD SVG 20010904//EN"
 "http://www.w3.org/TR/2001/REC-SVG-20010904/DTD/svg10.dtd">
<svg version="1.0" xmlns="http://www.w3.org/2000/svg"
 width="248.000000pt" height="248.000000pt" viewBox="0 0 248.000000 248.000000"
 preserveAspectRatio="xMidYMid meet">
<metadata>
Created by potrace 1.10, written by Peter Selinger 2001-2011
</metadata>
<g transform="translate(0.000000,248.000000) scale(0.100000,-0.100000)"
fill="#000000" stroke="none">
<path d="M830 2319 c-229 -39 -299 -49 -360 -49 -62 0 -74 -3 -95 -25 l-25
-24 0 -263 c0 -145 -5 -597 -12 -1006 l-12 -743 21 -21 c32 -32 70 -18 82 30
9 35 32 1269 31 1730 l0 212 29 0 c16 0 66 7 111 16 46 8 115 19 154 24 39 5
88 12 109 16 l39 7 -3 -321 c-3 -348 -2 -356 50 -350 52 6 56 30 56 400 0 380
3 368 -76 373 -24 2 -69 -1 -99 -6z"/>
</g>
</svg>
