<?xml version="1.0" standalone="no"?>
<!DOCTYPE svg PUBLIC "-//W3C//DTD SVG 20010904//EN"
 "http://www.w3.org/TR/2001/REC-SVG-20010904/DTD/svg10.dtd">
<svg version="1.0" xmlns="http://www.w3.org/2000/svg"
 width="248.000000pt" height="248.000000pt" viewBox="0 0 248.000000 248.000000"
 preserveAspectRatio="xMidYMid meet">
<metadata>
Created by potrace 1.10, written by Peter Selinger 2001-2011
</metadata>
<g transform="translate(0.000000,248.000000) scale(0.100000,-0.100000)"
fill="#000000" stroke="none">
<path d="M770 2335 c-12 -15 -9 -90 5 -141 6 -20 2 -21 -102 -28 -124 -8 -156
-22 -151 -64 5 -44 39 -53 154 -42 150 14 137 19 158 -54 22 -79 40 -106 70
-106 47 0 59 50 31 130 -8 24 -13 45 -11 48 5 5 82 14 316 37 85 8 189 20 230
25 92 13 218 26 417 44 93 8 158 18 168 26 25 20 15 63 -18 78 -34 17 -100 12
-612 -46 -338 -39 -513 -55 -528 -49 -9 3 -20 30 -27 64 -7 32 -19 66 -28 76
-19 21 -55 22 -72 2z"/>
</g>
</svg>
