<?xml version="1.0" standalone="no"?>
<!DOCTYPE svg PUBLIC "-//W3C//DTD SVG 20010904//EN"
 "http://www.w3.org/TR/2001/REC-SVG-20010904/DTD/svg10.dtd">
<svg version="1.0" xmlns="http://www.w3.org/2000/svg"
 width="248.000000pt" height="248.000000pt" viewBox="0 0 248.000000 248.000000"
 preserveAspectRatio="xMidYMid meet">
<metadata>
Created by potrace 1.10, written by Peter Selinger 2001-2011
</metadata>
<g transform="translate(0.000000,248.000000) scale(0.100000,-0.100000)"
fill="#000000" stroke="none">
<path d="M1860 2290 c-94 -10 -228 -25 -390 -44 -69 -8 -222 -24 -340 -35
-118 -12 -255 -26 -305 -31 -49 -5 -128 -12 -175 -16 -100 -7 -133 -23 -128
-62 5 -44 39 -53 159 -42 483 46 698 68 789 80 92 13 218 26 417 44 163 14
186 22 181 65 -6 48 -47 56 -208 41z"/>
</g>
</svg>
