<?xml version="1.0" standalone="no"?>
<!DOCTYPE svg PUBLIC "-//W3C//DTD SVG 20010904//EN"
 "http://www.w3.org/TR/2001/REC-SVG-20010904/DTD/svg10.dtd">
<svg version="1.0" xmlns="http://www.w3.org/2000/svg"
 width="248.000000pt" height="248.000000pt" viewBox="0 0 248.000000 248.000000"
 preserveAspectRatio="xMidYMid meet">
<metadata>
Created by potrace 1.10, written by Peter Selinger 2001-2011
</metadata>
<g transform="translate(0.000000,248.000000) scale(0.100000,-0.100000)"
fill="#000000" stroke="none">
<path d="M1606 2398 c-8 -13 -20 -49 -27 -81 -14 -67 1 -60 -194 -81 -369 -39
-474 -48 -488 -43 -9 3 -20 30 -27 64 -14 66 -33 93 -65 93 -36 0 -48 -24 -42
-83 4 -28 9 -61 12 -73 6 -20 2 -21 -102 -28 -124 -8 -156 -22 -151 -64 5 -44
39 -53 154 -42 150 14 137 19 158 -54 22 -79 40 -106 70 -106 47 0 59 50 31
130 -8 24 -13 45 -11 48 5 4 76 13 316 37 85 8 186 19 223 23 66 8 68 7 62
-12 -34 -105 -30 -148 14 -154 35 -5 54 20 81 106 l25 79 85 12 c47 6 135 15
197 20 122 8 146 19 141 60 -5 47 -42 55 -186 41 -70 -6 -144 -14 -166 -17
l-39 -6 8 39 c11 52 10 81 -5 99 -19 22 -57 18 -74 -7z"/>
<path d="M1420 1926 c-80 -13 -185 -30 -235 -39 -49 -8 -115 -18 -145 -22 -30
-4 -105 -15 -167 -26 -61 -10 -125 -19 -142 -19 -39 0 -79 -19 -86 -39 -6 -19
10 -293 25 -445 6 -56 16 -109 25 -123 19 -28 50 -29 210 -9 61 8 152 18 203
22 l92 7 0 -90 0 -89 -122 -13 c-68 -7 -193 -24 -278 -36 -85 -13 -207 -28
-271 -33 -64 -6 -130 -16 -145 -24 -39 -18 -45 -61 -12 -82 20 -13 41 -13 163
-1 77 7 185 21 240 30 134 21 330 45 383 45 l42 0 0 -405 c0 -277 4 -412 11
-429 14 -31 47 -40 76 -20 l23 14 0 429 0 428 57 12 c31 6 73 11 94 11 21 0
60 4 86 10 50 10 202 30 433 55 74 8 147 18 163 21 52 11 60 76 11 95 -17 6
-68 4 -152 -6 -244 -29 -367 -45 -432 -54 -36 -6 -105 -15 -154 -21 -50 -6
-94 -14 -98 -16 -5 -3 -7 36 -6 88 l3 93 80 7 c142 12 289 30 312 39 49 18 64
77 95 356 14 135 2 243 -32 277 -30 31 -163 31 -350 2z m278 -163 l-3 -78 -80
-7 c-85 -7 -245 -26 -283 -34 -22 -5 -23 -3 -20 78 l3 83 110 16 c61 9 147 17
193 18 l83 1 -3 -77z m-498 -62 l0 -78 -72 -12 c-40 -6 -91 -13 -113 -16 -22
-3 -62 -9 -90 -14 -27 -5 -75 -12 -106 -15 l-56 -6 -6 72 c-4 45 -2 75 4 79 5
3 72 15 147 27 75 12 162 26 192 31 107 17 100 22 100 -68z m486 -144 c-3 -13
-8 -50 -12 -82 -11 -94 -6 -91 -151 -104 -70 -6 -147 -14 -170 -17 l-43 -5 0
94 0 94 58 7 c168 19 299 34 311 35 9 1 11 -6 7 -22z m-486 -126 l0 -90 -52
-5 c-29 -3 -122 -13 -206 -22 -84 -9 -155 -15 -157 -12 -3 3 -8 39 -11 81 l-7
77 49 0 c27 0 69 5 94 11 24 5 94 17 154 24 60 8 112 17 114 20 17 16 22 -5
22 -84z"/>
</g>
</svg>
