<?xml version="1.0" standalone="no"?>
<!DOCTYPE svg PUBLIC "-//W3C//DTD SVG 20010904//EN"
 "http://www.w3.org/TR/2001/REC-SVG-20010904/DTD/svg10.dtd">
<svg version="1.0" xmlns="http://www.w3.org/2000/svg"
 width="248.000000pt" height="248.000000pt" viewBox="0 0 248.000000 248.000000"
 preserveAspectRatio="xMidYMid meet">
<metadata>
Created by potrace 1.10, written by Peter Selinger 2001-2011
</metadata>
<g transform="translate(0.000000,248.000000) scale(0.100000,-0.100000)"
fill="#000000" stroke="none">
<path d="M1606 2398 c-8 -13 -20 -49 -27 -81 -14 -67 1 -60 -194 -81 -369 -39
-474 -48 -488 -43 -9 3 -20 30 -27 64 -14 66 -33 93 -65 93 -36 0 -48 -24 -42
-83 4 -28 9 -61 12 -73 6 -20 2 -21 -102 -28 -124 -8 -156 -22 -151 -64 5 -44
39 -53 154 -42 150 14 137 19 158 -54 22 -79 40 -106 70 -106 47 0 59 50 31
130 -8 24 -13 45 -11 48 5 4 76 13 316 37 85 8 186 19 223 23 66 8 68 7 62
-12 -34 -105 -30 -148 14 -154 35 -5 54 20 81 106 l25 79 85 12 c47 6 135 15
197 20 122 8 146 19 141 60 -5 47 -42 55 -186 41 -70 -6 -144 -14 -166 -17
l-39 -6 8 39 c11 52 10 81 -5 99 -19 22 -57 18 -74 -7z"/>
<path d="M1420 1926 c-80 -13 -185 -30 -235 -39 -49 -8 -115 -18 -145 -22 -30
-4 -105 -15 -167 -26 -61 -10 -125 -19 -142 -19 -39 0 -79 -19 -86 -39 -5 -18
9 -291 24 -439 10 -97 26 -132 61 -132 9 0 25 9 35 20 15 17 17 31 10 125 l-7
105 49 0 c26 0 68 5 93 11 24 5 92 17 150 25 58 8 130 19 160 25 90 16 462 61
467 56 0 -1 -6 -53 -15 -115 -11 -80 -13 -119 -5 -130 13 -22 66 -27 81 -9 13
15 35 147 54 325 15 129 2 243 -31 276 -31 31 -164 31 -351 2z m278 -163 l-3
-78 -80 -7 c-110 -9 -234 -26 -405 -53 -80 -13 -167 -27 -195 -30 -27 -3 -70
-10 -95 -15 -25 -5 -70 -11 -101 -14 l-56 -6 -6 72 c-4 45 -2 75 4 79 5 3 72
15 147 27 75 12 184 29 242 39 58 9 168 26 245 38 77 13 177 23 223 24 l83 1
-3 -77z"/>
</g>
</svg>
