<?xml version="1.0" standalone="no"?>
<!DOCTYPE svg PUBLIC "-//W3C//DTD SVG 20010904//EN"
 "http://www.w3.org/TR/2001/REC-SVG-20010904/DTD/svg10.dtd">
<svg version="1.0" xmlns="http://www.w3.org/2000/svg"
 width="248.000000pt" height="248.000000pt" viewBox="0 0 248.000000 248.000000"
 preserveAspectRatio="xMidYMid meet">
<metadata>
Created by potrace 1.10, written by Peter Selinger 2001-2011
</metadata>
<g transform="translate(0.000000,248.000000) scale(0.100000,-0.100000)"
fill="#000000" stroke="none">
<path d="M1606 2398 c-8 -13 -20 -49 -27 -81 -14 -67 1 -60 -194 -81 -369 -39
-474 -48 -488 -43 -9 3 -20 30 -27 64 -14 66 -33 93 -65 93 -36 0 -48 -24 -42
-83 4 -28 9 -61 12 -73 6 -20 2 -21 -102 -28 -124 -8 -156 -22 -151 -64 5 -44
39 -53 154 -42 150 14 137 19 158 -54 22 -79 40 -106 70 -106 47 0 59 50 31
130 -8 24 -13 45 -11 48 5 4 76 13 316 37 85 8 186 19 223 23 66 8 68 7 62
-12 -34 -105 -30 -148 14 -154 35 -5 54 20 81 106 l25 79 85 12 c47 6 135 15
197 20 122 8 146 19 141 60 -5 47 -42 55 -186 41 -70 -6 -144 -14 -166 -17
l-39 -6 8 39 c11 52 10 81 -5 99 -19 22 -57 18 -74 -7z"/>
</g>
</svg>
