<?xml version="1.0" standalone="no"?>
<!DOCTYPE svg PUBLIC "-//W3C//DTD SVG 20010904//EN"
 "http://www.w3.org/TR/2001/REC-SVG-20010904/DTD/svg10.dtd">
<svg version="1.0" xmlns="http://www.w3.org/2000/svg"
 width="248.000000pt" height="248.000000pt" viewBox="0 0 248.000000 248.000000"
 preserveAspectRatio="xMidYMid meet">
<metadata>
Created by potrace 1.10, written by Peter Selinger 2001-2011
</metadata>
<g transform="translate(0.000000,248.000000) scale(0.100000,-0.100000)"
fill="#000000" stroke="none">
<path d="M1092 2368 c-5 -7 -12 -67 -15 -133 -3 -66 -11 -152 -18 -192 -11
-59 -10 -74 0 -87 16 -20 64 -21 80 -2 14 17 41 219 41 311 0 48 -5 78 -16 93
-17 24 -56 29 -72 10z"/>
<path d="M333 1939 c-7 -7 -9 -79 -6 -217 3 -177 6 -209 20 -219 21 -16 35
-16 57 0 17 12 18 31 17 208 -2 152 -5 199 -17 216 -15 24 -53 30 -71 12z"/>
</g>
</svg>
