<?xml version="1.0" standalone="no"?>
<!DOCTYPE svg PUBLIC "-//W3C//DTD SVG 20010904//EN"
 "http://www.w3.org/TR/2001/REC-SVG-20010904/DTD/svg10.dtd">
<svg version="1.0" xmlns="http://www.w3.org/2000/svg"
 width="248.000000pt" height="248.000000pt" viewBox="0 0 248.000000 248.000000"
 preserveAspectRatio="xMidYMid meet">
<metadata>
Created by potrace 1.10, written by Peter Selinger 2001-2011
</metadata>
<g transform="translate(0.000000,248.000000) scale(0.100000,-0.100000)"
fill="#000000" stroke="none">
<path d="M1092 2368 c-7 -7 -12 -45 -12 -97 0 -80 -15 -220 -24 -229 -3 -2
-53 -10 -113 -18 -114 -14 -165 -22 -383 -56 -74 -12 -153 -20 -174 -20 -22 1
-45 -3 -51 -8 -9 -8 -11 -64 -8 -218 3 -177 6 -209 20 -219 21 -16 35 -16 57
0 16 12 18 32 20 177 l1 164 70 12 c132 22 350 54 475 69 69 8 157 20 195 25
221 33 830 64 899 46 l26 -6 -51 -65 c-28 -36 -86 -97 -130 -136 -63 -58 -79
-78 -79 -100 0 -27 22 -49 49 -49 12 0 191 148 191 158 0 4 28 39 61 77 79 90
119 145 119 162 0 7 -9 22 -20 33 -19 19 -33 20 -342 20 -199 0 -384 -6 -483
-15 -88 -8 -178 -15 -201 -15 l-40 0 7 58 c13 106 10 216 -7 240 -17 24 -53
29 -72 10z"/>
<path d="M1485 1766 c-88 -58 -273 -160 -502 -275 -189 -94 -224 -115 -229
-137 -7 -29 11 -54 42 -56 10 -1 75 27 143 61 68 34 126 60 129 57 9 -10 -20
-301 -31 -312 -14 -13 -172 -46 -332 -68 -136 -19 -269 -43 -309 -55 -17 -5
-44 -12 -59 -15 -50 -12 -57 -85 -9 -100 10 -4 37 0 58 8 22 7 112 26 199 40
363 60 402 67 424 73 23 6 24 5 18 -53 -4 -32 -12 -140 -18 -239 -14 -209 -6
-267 44 -342 43 -64 105 -99 223 -128 183 -45 526 -31 740 30 36 10 62 26 83
50 30 35 31 39 31 130 0 82 -3 98 -20 115 -24 24 -43 25 -64 4 -12 -12 -16
-36 -16 -99 0 -72 -3 -86 -19 -94 -48 -26 -271 -62 -416 -68 -143 -5 -156 -4
-272 25 -67 16 -133 38 -147 49 -14 10 -38 42 -52 70 -30 60 -34 138 -15 304
5 52 13 130 16 174 4 44 10 84 15 88 13 14 827 89 895 82 45 -4 66 -1 83 11
28 19 28 55 2 79 -20 18 -30 18 -193 7 -151 -10 -634 -53 -741 -66 l-38 -4 6
76 c10 121 17 186 24 238 8 56 -2 48 222 174 203 113 225 135 180 180 -27 27
-37 26 -95 -14z"/>
</g>
</svg>
