<?xml version="1.0" standalone="no"?>
<!DOCTYPE svg PUBLIC "-//W3C//DTD SVG 20010904//EN"
 "http://www.w3.org/TR/2001/REC-SVG-20010904/DTD/svg10.dtd">
<svg version="1.0" xmlns="http://www.w3.org/2000/svg"
 width="248.000000pt" height="248.000000pt" viewBox="0 0 248.000000 248.000000"
 preserveAspectRatio="xMidYMid meet">
<metadata>
Created by potrace 1.10, written by Peter Selinger 2001-2011
</metadata>
<g transform="translate(0.000000,248.000000) scale(0.100000,-0.100000)"
fill="#000000" stroke="none">
<path d="M1092 2368 c-7 -7 -12 -45 -12 -97 0 -80 -15 -220 -24 -229 -3 -2
-53 -10 -113 -18 -114 -14 -165 -22 -383 -56 -74 -12 -153 -20 -174 -20 -22 1
-45 -3 -51 -8 -9 -8 -11 -64 -8 -218 3 -177 6 -209 20 -219 21 -16 35 -16 57
0 16 12 18 32 20 177 l1 164 70 12 c132 22 350 54 475 69 69 8 157 20 195 25
221 33 830 64 899 46 l26 -6 -51 -65 c-28 -36 -86 -97 -130 -136 -63 -58 -79
-78 -79 -100 0 -27 22 -49 49 -49 12 0 191 148 191 158 0 4 28 39 61 77 79 90
119 145 119 162 0 7 -9 22 -20 33 -19 19 -33 20 -342 20 -199 0 -384 -6 -483
-15 -88 -8 -178 -15 -201 -15 l-40 0 7 58 c13 106 10 216 -7 240 -17 24 -53
29 -72 10z"/>
<path d="M1485 1766 c-88 -58 -273 -160 -502 -275 -189 -94 -224 -115 -229
-137 -7 -29 11 -54 42 -56 25 -2 420 195 608 302 201 115 221 135 176 180 -27
27 -37 26 -95 -14z"/>
<path d="M1865 1179 c-453 -38 -779 -74 -905 -99 -80 -16 -194 -36 -255 -44
-137 -19 -269 -43 -309 -55 -17 -5 -44 -12 -59 -15 -49 -11 -57 -82 -11 -100
10 -4 38 0 63 8 48 16 199 44 386 71 60 9 162 27 226 40 145 30 973 109 1043
100 57 -7 96 12 96 49 0 56 -50 65 -275 45z"/>
</g>
</svg>
