<?xml version="1.0" standalone="no"?>
<!DOCTYPE svg PUBLIC "-//W3C//DTD SVG 20010904//EN"
 "http://www.w3.org/TR/2001/REC-SVG-20010904/DTD/svg10.dtd">
<svg version="1.0" xmlns="http://www.w3.org/2000/svg"
 width="248.000000pt" height="248.000000pt" viewBox="0 0 248.000000 248.000000"
 preserveAspectRatio="xMidYMid meet">
<metadata>
Created by potrace 1.10, written by Peter Selinger 2001-2011
</metadata>
<g transform="translate(0.000000,248.000000) scale(0.100000,-0.100000)"
fill="#000000" stroke="none">
<path d="M1765 2369 c-33 -4 -100 -13 -150 -19 -75 -10 -280 -46 -362 -65 -13
-3 -30 -16 -39 -29 -14 -22 -14 -58 -4 -348 6 -178 16 -340 21 -361 6 -21 20
-44 35 -54 23 -14 35 -15 102 -4 42 6 124 16 182 21 291 27 340 35 363 58 l22
23 -3 352 c-1 204 -7 365 -13 384 -9 30 -51 55 -83 52 -6 -1 -38 -5 -71 -10z
m53 -226 l-3 -128 -100 -13 c-55 -7 -149 -21 -210 -32 -60 -10 -126 -22 -146
-25 l-36 -7 -6 78 c-4 42 -7 98 -7 124 l0 48 72 16 c65 15 155 29 348 55 36 5
71 9 78 10 10 1 12 -28 10 -126z m10 -365 l-3 -133 -60 -6 c-33 -4 -132 -14
-220 -23 -88 -9 -172 -19 -186 -22 l-26 -6 -7 116 c-4 64 -4 120 -1 125 3 5
33 12 67 16 35 4 88 13 118 20 30 7 102 18 160 25 58 7 110 13 115 15 45 15
46 12 43 -127z"/>
<path d="M412 2168 c-34 -34 -9 -74 132 -212 97 -96 127 -111 154 -84 32 32
14 62 -109 186 -120 122 -148 139 -177 110z"/>
<path d="M122 1618 c-24 -24 -13 -60 30 -97 22 -20 85 -78 139 -128 83 -80
102 -93 131 -93 38 0 58 15 58 43 0 19 -121 139 -235 233 -66 54 -100 65 -123
42z"/>
<path d="M2170 1439 c-36 -4 -118 -12 -184 -18 -65 -6 -123 -14 -128 -17 -5
-3 -46 -10 -91 -14 -100 -10 -474 -58 -502 -65 -11 -2 -117 -14 -235 -25 -235
-24 -263 -32 -258 -78 5 -45 36 -51 173 -36 154 17 155 17 155 0 0 -18 -43
-110 -81 -171 -58 -94 -200 -275 -244 -312 -24 -20 -47 -43 -50 -51 -9 -23 22
-62 49 -62 40 0 122 78 216 205 l90 121 113 17 c141 21 147 21 147 -1 0 -64
-174 -341 -293 -468 -56 -59 -68 -77 -65 -100 2 -21 11 -31 30 -38 25 -9 33
-4 85 40 32 28 81 82 108 121 28 39 70 99 93 133 43 60 123 211 137 259 4 12
7 38 7 57 0 32 2 33 47 39 25 4 62 11 81 15 55 14 115 16 112 5 -17 -70 -60
-165 -205 -450 -24 -48 -109 -163 -189 -258 -35 -40 -58 -77 -58 -91 0 -31 33
-60 59 -51 24 7 91 84 192 220 84 113 247 431 295 578 l29 86 75 6 c41 4 117
12 169 19 l93 13 -7 -111 c-10 -171 -44 -381 -77 -481 -11 -33 -41 -106 -68
-163 -55 -116 -64 -121 -126 -72 -41 34 -80 37 -98 8 -18 -29 5 -70 63 -110
60 -42 102 -48 151 -23 65 34 170 264 209 460 12 61 26 128 31 150 5 22 14
113 21 201 18 250 10 260 -180 237 -227 -28 -422 -55 -561 -78 -226 -37 -340
-52 -340 -46 0 3 14 44 30 91 l29 85 93 12 c167 22 341 44 431 53 49 6 93 12
98 15 4 3 52 10 106 15 311 29 343 37 343 84 0 43 -30 54 -120 45z"/>
<path d="M433 628 c-44 -47 -202 -261 -240 -325 -35 -58 -41 -91 -21 -111 29
-29 76 -4 107 55 6 13 65 94 131 182 66 88 120 169 120 180 0 24 -25 51 -49
51 -9 0 -31 -15 -48 -32z"/>
</g>
</svg>
