<?xml version="1.0" standalone="no"?>
<!DOCTYPE svg PUBLIC "-//W3C//DTD SVG 20010904//EN"
 "http://www.w3.org/TR/2001/REC-SVG-20010904/DTD/svg10.dtd">
<svg version="1.0" xmlns="http://www.w3.org/2000/svg"
 width="248.000000pt" height="248.000000pt" viewBox="0 0 248.000000 248.000000"
 preserveAspectRatio="xMidYMid meet">
<metadata>
Created by potrace 1.10, written by Peter Selinger 2001-2011
</metadata>
<g transform="translate(0.000000,248.000000) scale(0.100000,-0.100000)"
fill="#000000" stroke="none">
<path d="M412 2168 c-34 -34 -9 -74 132 -212 97 -96 127 -111 154 -84 32 32
14 62 -109 186 -120 122 -148 139 -177 110z"/>
<path d="M122 1618 c-24 -24 -13 -60 30 -97 22 -20 85 -78 139 -128 83 -80
102 -93 131 -93 38 0 58 15 58 43 0 19 -121 139 -235 233 -66 54 -100 65 -123
42z"/>
</g>
</svg>
