<?xml version="1.0" standalone="no"?>
<!DOCTYPE svg PUBLIC "-//W3C//DTD SVG 20010904//EN"
 "http://www.w3.org/TR/2001/REC-SVG-20010904/DTD/svg10.dtd">
<svg version="1.0" xmlns="http://www.w3.org/2000/svg"
 width="248.000000pt" height="248.000000pt" viewBox="0 0 248.000000 248.000000"
 preserveAspectRatio="xMidYMid meet">
<metadata>
Created by potrace 1.10, written by Peter Selinger 2001-2011
</metadata>
<g transform="translate(0.000000,248.000000) scale(0.100000,-0.100000)"
fill="#000000" stroke="none">
<path d="M1765 2369 c-33 -4 -103 -13 -155 -20 -52 -7 -158 -25 -235 -40 -113
-22 -143 -32 -158 -50 -17 -21 -18 -38 -12 -223 12 -346 21 -484 35 -501 7 -8
23 -15 35 -15 43 0 50 23 50 174 l0 141 55 7 c30 5 89 15 130 23 41 8 109 19
150 24 41 5 96 13 122 16 l47 6 3 -161 c3 -146 5 -163 22 -176 25 -18 37 -18
62 0 18 14 19 28 16 368 -1 205 -7 366 -13 385 -9 30 -51 55 -83 52 -6 -1 -38
-5 -71 -10z m53 -226 l-3 -128 -100 -13 c-55 -7 -149 -21 -210 -32 -60 -10
-126 -22 -146 -25 l-36 -7 -6 78 c-4 42 -7 98 -7 124 l0 48 72 16 c65 15 155
29 348 55 36 5 71 9 78 10 10 1 12 -28 10 -126z"/>
<path d="M412 2168 c-34 -34 -9 -74 132 -212 97 -96 127 -111 154 -84 32 32
14 62 -109 186 -120 122 -148 139 -177 110z"/>
<path d="M122 1618 c-24 -24 -13 -60 30 -97 22 -20 85 -78 139 -128 83 -80
102 -93 131 -93 38 0 58 15 58 43 0 19 -121 139 -235 233 -66 54 -100 65 -123
42z"/>
<path d="M433 628 c-44 -47 -202 -261 -240 -325 -35 -58 -41 -91 -21 -111 29
-29 76 -4 107 55 6 13 65 94 131 182 66 88 120 169 120 180 0 24 -25 51 -49
51 -9 0 -31 -15 -48 -32z"/>
</g>
</svg>
