<?xml version="1.0" standalone="no"?>
<!DOCTYPE svg PUBLIC "-//W3C//DTD SVG 20010904//EN"
 "http://www.w3.org/TR/2001/REC-SVG-20010904/DTD/svg10.dtd">
<svg version="1.0" xmlns="http://www.w3.org/2000/svg"
 width="248.000000pt" height="248.000000pt" viewBox="0 0 248.000000 248.000000"
 preserveAspectRatio="xMidYMid meet">
<metadata>
Created by potrace 1.10, written by Peter Selinger 2001-2011
</metadata>
<g transform="translate(0.000000,248.000000) scale(0.100000,-0.100000)"
fill="#000000" stroke="none">
<path d="M1607 2413 c-8 -10 -19 -45 -24 -78 l-8 -60 -90 -6 c-322 -23 -411
-30 -433 -36 -30 -7 -42 9 -42 57 0 54 -20 85 -55 85 -41 0 -57 -34 -49 -101
l6 -51 -64 -7 c-34 -4 -109 -11 -165 -15 -57 -4 -109 -13 -118 -21 -24 -20
-18 -57 11 -76 24 -16 37 -16 185 -3 119 11 163 12 170 3 5 -6 12 -33 15 -60
9 -67 28 -96 62 -92 40 4 52 40 41 112 -5 32 -8 60 -6 63 9 8 507 40 507 32 0
-2 -7 -29 -15 -59 -13 -48 -13 -57 1 -77 19 -30 58 -30 79 -1 8 13 21 49 27
81 7 34 19 62 28 67 15 8 125 22 293 36 97 8 133 48 87 94 -17 17 -29 19 -82
14 -89 -7 -228 -24 -260 -30 l-26 -5 5 60 c6 67 -5 91 -42 91 -12 0 -29 -8
-38 -17z"/>
<path d="M1757 2038 c-8 -13 -17 -55 -21 -95 -7 -88 -12 -99 -39 -107 -46 -12
-314 -39 -330 -33 -14 5 -17 20 -17 79 0 83 -16 118 -55 118 -44 0 -59 -39
-52 -134 l6 -84 -117 -11 c-64 -7 -155 -16 -202 -21 -46 -6 -88 -6 -93 -1 -4
4 -11 35 -14 67 -7 72 -25 104 -58 104 -38 0 -59 -40 -52 -98 4 -26 9 -57 13
-68 5 -20 1 -22 -58 -27 -188 -15 -295 -30 -316 -43 -31 -20 -27 -64 8 -80 25
-12 51 -11 285 15 49 6 90 9 91 8 3 -3 21 -161 34 -296 11 -122 23 -136 118
-136 37 0 145 4 240 9 l173 8 -3 -78 -3 -79 -180 -11 c-99 -6 -277 -17 -395
-24 -118 -7 -226 -17 -240 -24 -18 -8 -25 -19 -25 -41 0 -61 38 -63 548 -24
76 5 159 9 184 7 l46 -3 -54 -59 c-106 -116 -489 -384 -653 -457 -70 -31 -81
-39 -84 -63 -14 -120 179 -38 552 234 162 117 205 152 246 197 l45 48 3 -80
c2 -44 -1 -152 -7 -240 -22 -322 -14 -395 43 -395 44 0 51 22 58 204 3 94 9
245 12 336 4 91 9 197 12 236 l5 72 87 6 c48 4 123 12 167 17 44 5 155 16 246
24 172 15 206 22 228 49 16 19 7 61 -15 70 -17 7 -191 -7 -379 -29 -66 -8
-168 -17 -227 -21 l-108 -7 0 75 0 74 153 13 c270 22 359 36 379 61 22 28 22
32 0 60 -18 22 -20 23 -113 11 -198 -24 -777 -69 -920 -71 -24 0 -26 3 -37 88
-7 48 -15 124 -18 169 l-7 81 79 6 c110 9 274 26 307 32 l27 6 0 -69 c1 -107
16 -194 39 -217 20 -19 25 -19 206 -8 202 12 248 24 272 73 6 13 16 74 22 134
16 150 12 143 79 150 101 12 221 34 241 44 44 24 33 91 -15 91 -23 0 -53 -4
-223 -29 l-53 -8 6 36 c15 87 16 127 4 151 -18 34 -62 39 -81 8z m-51 -345
c-3 -21 -9 -67 -12 -103 -4 -41 -12 -70 -22 -77 -9 -8 -44 -13 -81 -13 -36 0
-97 -5 -135 -10 -38 -6 -72 -8 -75 -4 -5 4 -21 194 -17 201 1 1 66 9 146 18
80 9 147 19 149 21 2 2 15 4 29 4 23 0 24 -3 18 -37z"/>
</g>
</svg>
