<?xml version="1.0" standalone="no"?>
<!DOCTYPE svg PUBLIC "-//W3C//DTD SVG 20010904//EN"
 "http://www.w3.org/TR/2001/REC-SVG-20010904/DTD/svg10.dtd">
<svg version="1.0" xmlns="http://www.w3.org/2000/svg"
 width="248.000000pt" height="248.000000pt" viewBox="0 0 248.000000 248.000000"
 preserveAspectRatio="xMidYMid meet">
<metadata>
Created by potrace 1.10, written by Peter Selinger 2001-2011
</metadata>
<g transform="translate(0.000000,248.000000) scale(0.100000,-0.100000)"
fill="#000000" stroke="none">
<path d="M1945 2313 c-27 -2 -99 -10 -160 -18 -60 -8 -153 -17 -205 -20 -159
-9 -548 -42 -787 -66 -51 -5 -114 -9 -140 -9 -63 0 -97 -18 -101 -52 -2 -20 4
-31 23 -44 26 -17 38 -16 268 6 257 24 348 31 627 50 96 6 221 18 276 26 56 7
126 14 155 14 110 1 169 25 169 67 0 20 -38 53 -57 51 -10 -1 -40 -3 -68 -5z"/>
</g>
</svg>
