<?xml version="1.0" standalone="no"?>
<!DOCTYPE svg PUBLIC "-//W3C//DTD SVG 20010904//EN"
 "http://www.w3.org/TR/2001/REC-SVG-20010904/DTD/svg10.dtd">
<svg version="1.0" xmlns="http://www.w3.org/2000/svg"
 width="248.000000pt" height="248.000000pt" viewBox="0 0 248.000000 248.000000"
 preserveAspectRatio="xMidYMid meet">
<metadata>
Created by potrace 1.10, written by Peter Selinger 2001-2011
</metadata>
<g transform="translate(0.000000,248.000000) scale(0.100000,-0.100000)"
fill="#000000" stroke="none">
<path d="M919 2363 c-9 -10 -13 -38 -12 -78 l2 -63 -62 -6 c-34 -4 -108 -11
-164 -15 -57 -4 -109 -13 -118 -21 -24 -20 -18 -57 11 -76 24 -16 37 -16 185
-3 119 11 163 12 170 3 5 -6 12 -33 15 -60 9 -67 28 -96 62 -92 40 4 52 40 41
112 -5 32 -8 60 -6 63 5 4 129 13 437 33 91 6 211 18 266 26 56 7 126 14 155
14 141 2 205 44 149 100 -22 22 -57 21 -265 -6 -60 -7 -153 -16 -205 -19 -102
-6 -268 -19 -445 -34 -60 -5 -112 -8 -114 -5 -2 2 -8 29 -12 60 -4 30 -13 62
-19 70 -17 19 -54 18 -71 -3z"/>
</g>
</svg>
