<?xml version="1.0" standalone="no"?>
<!DOCTYPE svg PUBLIC "-//W3C//DTD SVG 20010904//EN"
 "http://www.w3.org/TR/2001/REC-SVG-20010904/DTD/svg10.dtd">
<svg version="1.0" xmlns="http://www.w3.org/2000/svg"
 width="248.000000pt" height="248.000000pt" viewBox="0 0 248.000000 248.000000"
 preserveAspectRatio="xMidYMid meet">
<metadata>
Created by potrace 1.10, written by Peter Selinger 2001-2011
</metadata>
<g transform="translate(0.000000,248.000000) scale(0.100000,-0.100000)"
fill="#000000" stroke="none">
<path d="M1607 2413 c-8 -10 -19 -45 -24 -78 l-8 -60 -90 -6 c-322 -23 -411
-30 -433 -36 -30 -7 -42 9 -42 57 0 54 -20 85 -55 85 -41 0 -57 -34 -49 -101
l6 -51 -64 -7 c-34 -4 -109 -11 -165 -15 -57 -4 -109 -13 -118 -21 -24 -20
-18 -57 11 -76 24 -16 37 -16 185 -3 119 11 163 12 170 3 5 -6 12 -33 15 -60
9 -67 28 -96 62 -92 40 4 52 40 41 112 -5 32 -8 60 -6 63 9 8 507 40 507 32 0
-2 -7 -29 -15 -59 -13 -48 -13 -57 1 -77 19 -30 58 -30 79 -1 8 13 21 49 27
81 7 34 19 62 28 67 15 8 125 22 293 36 97 8 133 48 87 94 -17 17 -29 19 -82
14 -89 -7 -228 -24 -260 -30 l-26 -5 5 60 c6 67 -5 91 -42 91 -12 0 -29 -8
-38 -17z"/>
<path d="M1757 2038 c-8 -13 -17 -55 -21 -95 -7 -88 -12 -99 -39 -107 -46 -12
-314 -39 -330 -33 -14 5 -17 20 -17 79 0 83 -16 118 -55 118 -44 0 -59 -39
-52 -134 l6 -84 -107 -11 c-100 -10 -155 -15 -447 -41 -351 -32 -369 -37 -363
-88 5 -41 38 -52 133 -42 44 5 132 13 195 19 63 6 140 13 170 16 30 3 104 10
164 15 106 9 168 16 234 26 l32 5 0 -68 c1 -107 16 -194 39 -217 20 -19 25
-19 206 -8 202 12 248 24 272 73 6 13 16 74 22 134 16 150 12 143 79 150 101
12 221 34 241 44 44 24 33 91 -15 91 -23 0 -53 -4 -223 -29 l-53 -8 6 36 c15
87 16 127 4 151 -18 34 -62 39 -81 8z m-51 -345 c-3 -21 -9 -67 -12 -103 -4
-41 -12 -70 -22 -77 -9 -8 -44 -13 -81 -13 -36 0 -97 -5 -135 -10 -38 -6 -72
-8 -75 -4 -5 4 -21 194 -17 201 1 1 66 9 146 18 80 9 147 19 149 21 2 2 15 4
29 4 23 0 24 -3 18 -37z"/>
</g>
</svg>
