<?xml version="1.0" standalone="no"?>
<!DOCTYPE svg PUBLIC "-//W3C//DTD SVG 20010904//EN"
 "http://www.w3.org/TR/2001/REC-SVG-20010904/DTD/svg10.dtd">
<svg version="1.0" xmlns="http://www.w3.org/2000/svg"
 width="248.000000pt" height="248.000000pt" viewBox="0 0 248.000000 248.000000"
 preserveAspectRatio="xMidYMid meet">
<metadata>
Created by potrace 1.10, written by Peter Selinger 2001-2011
</metadata>
<g transform="translate(0.000000,248.000000) scale(0.100000,-0.100000)"
fill="#000000" stroke="none">
<path d="M1607 2413 c-8 -10 -19 -45 -24 -78 l-8 -60 -90 -6 c-322 -23 -411
-30 -433 -36 -30 -7 -42 9 -42 57 0 54 -20 85 -55 85 -41 0 -57 -34 -49 -101
l6 -51 -64 -7 c-34 -4 -109 -11 -165 -15 -57 -4 -109 -13 -118 -21 -24 -20
-18 -57 11 -76 24 -16 37 -16 185 -3 119 11 163 12 170 3 5 -6 12 -33 15 -60
9 -67 28 -96 62 -92 40 4 52 40 41 112 -5 32 -8 60 -6 63 9 8 507 40 507 32 0
-2 -7 -29 -15 -59 -13 -48 -13 -57 1 -77 19 -30 58 -30 79 -1 8 13 21 49 27
81 7 34 19 62 28 67 15 8 125 22 293 36 97 8 133 48 87 94 -17 17 -29 19 -82
14 -89 -7 -228 -24 -260 -30 l-26 -5 5 60 c6 67 -5 91 -42 91 -12 0 -29 -8
-38 -17z"/>
</g>
</svg>
