<?xml version="1.0" standalone="no"?>
<!DOCTYPE svg PUBLIC "-//W3C//DTD SVG 20010904//EN"
 "http://www.w3.org/TR/2001/REC-SVG-20010904/DTD/svg10.dtd">
<svg version="1.0" xmlns="http://www.w3.org/2000/svg"
 width="248.000000pt" height="248.000000pt" viewBox="0 0 248.000000 248.000000"
 preserveAspectRatio="xMidYMid meet">
<metadata>
Created by potrace 1.10, written by Peter Selinger 2001-2011
</metadata>
<g transform="translate(0.000000,248.000000) scale(0.100000,-0.100000)"
fill="#000000" stroke="none">
<path d="M1439 2414 c-10 -13 -15 -57 -17 -171 -2 -84 -5 -153 -7 -153 -2 0
-63 -9 -137 -20 -73 -11 -178 -23 -233 -26 -55 -4 -106 -11 -112 -17 -10 -7
-13 -68 -13 -242 0 -128 -4 -277 -9 -331 -5 -55 -14 -164 -21 -244 -17 -232
-27 -303 -71 -520 -30 -152 -41 -183 -104 -313 -31 -65 -55 -127 -53 -139 5
-33 51 -47 78 -23 28 25 126 223 144 293 53 195 88 399 106 622 6 69 16 177
21 240 6 63 14 216 17 340 l7 225 40 3 c22 2 98 12 169 22 71 11 142 20 157
20 l29 0 0 -263 0 -264 -87 -12 c-294 -43 -296 -44 -291 -90 5 -41 43 -53 125
-41 37 5 156 23 263 39 288 44 280 43 280 29 0 -32 -44 -162 -96 -282 -62
-144 -178 -382 -198 -406 -7 -8 -33 -49 -56 -90 -68 -116 -199 -284 -249 -316
-57 -37 -131 -107 -131 -125 0 -23 27 -49 51 -49 21 0 65 29 151 98 73 58 186
202 263 332 21 36 53 88 71 115 81 127 250 515 288 665 22 88 25 111 15 138
-15 43 -37 47 -171 29 -62 -9 -114 -15 -115 -14 0 1 -3 120 -5 263 l-3 262 65
7 c36 3 101 11 145 16 174 19 215 22 215 13 0 -12 -91 -116 -157 -180 -31 -29
-53 -59 -53 -71 0 -27 25 -53 52 -53 29 0 175 146 248 248 65 92 74 126 39
158 -24 22 -98 23 -229 5 -41 -5 -118 -15 -170 -21 -52 -6 -110 -13 -127 -16
l-33 -5 0 138 c0 91 -5 147 -13 163 -15 31 -58 38 -78 14z"/>
<path d="M242 2148 c-19 -19 -14 -55 11 -78 12 -12 56 -40 97 -62 41 -22 98
-55 125 -73 99 -64 156 -88 181 -76 17 7 24 19 24 39 0 33 -14 47 -85 87 -27
15 -73 43 -101 61 -29 19 -63 38 -75 44 -13 6 -44 23 -69 39 -48 31 -89 38
-108 19z"/>
<path d="M143 1459 c-18 -18 -16 -53 5 -71 19 -17 125 -60 189 -77 24 -7 72
-25 109 -41 82 -37 120 -39 136 -6 6 14 8 32 4 41 -7 20 -122 74 -258 121
-122 42 -168 50 -185 33z"/>
<path d="M494 730 c-12 -5 -47 -50 -80 -102 -32 -51 -87 -137 -122 -192 -125
-193 -153 -261 -120 -294 16 -16 53 -15 67 1 6 8 23 38 39 68 15 30 86 145
156 256 85 134 126 209 124 224 -4 29 -37 49 -64 39z"/>
</g>
</svg>
