<?xml version="1.0" standalone="no"?>
<!DOCTYPE svg PUBLIC "-//W3C//DTD SVG 20010904//EN"
 "http://www.w3.org/TR/2001/REC-SVG-20010904/DTD/svg10.dtd">
<svg version="1.0" xmlns="http://www.w3.org/2000/svg"
 width="248.000000pt" height="248.000000pt" viewBox="0 0 248.000000 248.000000"
 preserveAspectRatio="xMidYMid meet">
<metadata>
Created by potrace 1.10, written by Peter Selinger 2001-2011
</metadata>
<g transform="translate(0.000000,248.000000) scale(0.100000,-0.100000)"
fill="#000000" stroke="none">
<path d="M242 2148 c-19 -19 -14 -55 11 -78 12 -12 56 -40 97 -62 41 -22 98
-55 125 -73 99 -64 156 -88 181 -76 17 7 24 19 24 39 0 33 -14 47 -85 87 -27
15 -73 43 -101 61 -29 19 -63 38 -75 44 -13 6 -44 23 -69 39 -48 31 -89 38
-108 19z"/>
</g>
</svg>
