<?xml version="1.0" standalone="no"?>
<!DOCTYPE svg PUBLIC "-//W3C//DTD SVG 20010904//EN"
 "http://www.w3.org/TR/2001/REC-SVG-20010904/DTD/svg10.dtd">
<svg version="1.0" xmlns="http://www.w3.org/2000/svg"
 width="248.000000pt" height="248.000000pt" viewBox="0 0 248.000000 248.000000"
 preserveAspectRatio="xMidYMid meet">
<metadata>
Created by potrace 1.10, written by Peter Selinger 2001-2011
</metadata>
<g transform="translate(0.000000,248.000000) scale(0.100000,-0.100000)"
fill="#000000" stroke="none">
<path d="M1206 2388 c-13 -18 -16 -54 -16 -180 l0 -157 -42 -5 c-108 -15 -313
-36 -347 -36 -42 0 -61 -14 -61 -45 0 -51 54 -69 165 -55 44 6 126 16 183 23
l102 13 0 -125 c0 -146 10 -176 55 -176 46 0 55 30 55 182 l0 132 33 5 c17 3
95 15 172 27 150 22 185 36 185 72 0 51 -34 57 -185 33 -49 -8 -116 -17 -147
-21 l-58 -6 0 148 c0 162 -9 193 -55 193 -13 0 -31 -10 -39 -22z"/>
</g>
</svg>
