<?xml version="1.0" standalone="no"?>
<!DOCTYPE svg PUBLIC "-//W3C//DTD SVG 20010904//EN"
 "http://www.w3.org/TR/2001/REC-SVG-20010904/DTD/svg10.dtd">
<svg version="1.0" xmlns="http://www.w3.org/2000/svg"
 width="248.000000pt" height="248.000000pt" viewBox="0 0 248.000000 248.000000"
 preserveAspectRatio="xMidYMid meet">
<metadata>
Created by potrace 1.10, written by Peter Selinger 2001-2011
</metadata>
<g transform="translate(0.000000,248.000000) scale(0.100000,-0.100000)"
fill="#000000" stroke="none">
<path d="M1206 2388 c-13 -18 -16 -54 -16 -180 l0 -157 -42 -5 c-108 -15 -313
-36 -347 -36 -42 0 -61 -14 -61 -45 0 -51 54 -69 165 -55 44 6 126 16 182 23
l102 13 3 -131 3 -132 -135 -11 c-266 -23 -380 -37 -576 -68 -50 -8 -109 -14
-131 -14 -52 0 -85 -24 -81 -58 5 -44 44 -56 141 -42 343 49 646 81 757 80
l55 -1 -80 -76 c-44 -41 -132 -118 -195 -169 -63 -52 -167 -137 -230 -189
-153 -127 -245 -196 -365 -273 -113 -72 -128 -87 -119 -116 14 -43 60 -48 113
-13 127 82 166 109 246 169 50 37 140 109 202 160 61 51 160 133 220 181 59
49 172 147 250 218 l141 129 65 0 c36 0 99 4 139 9 68 9 121 13 457 40 135 11
171 25 171 66 0 26 -41 62 -59 51 -5 -4 -81 -11 -168 -16 -154 -10 -286 -21
-428 -36 l-70 -7 195 194 c111 109 203 210 213 231 21 44 22 82 3 98 -27 21
-59 7 -89 -40 -16 -25 -131 -145 -256 -267 -183 -180 -231 -223 -253 -223
l-28 0 0 135 0 134 33 5 c17 3 95 15 172 27 157 23 188 36 183 77 -5 45 -34
51 -155 32 -60 -10 -136 -20 -170 -24 l-63 -7 0 148 c0 162 -9 193 -55 193
-13 0 -31 -10 -39 -22z"/>
</g>
</svg>
