<?xml version="1.0" standalone="no"?>
<!DOCTYPE svg PUBLIC "-//W3C//DTD SVG 20010904//EN"
 "http://www.w3.org/TR/2001/REC-SVG-20010904/DTD/svg10.dtd">
<svg version="1.0" xmlns="http://www.w3.org/2000/svg"
 width="248.000000pt" height="248.000000pt" viewBox="0 0 248.000000 248.000000"
 preserveAspectRatio="xMidYMid meet">
<metadata>
Created by potrace 1.10, written by Peter Selinger 2001-2011
</metadata>
<g transform="translate(0.000000,248.000000) scale(0.100000,-0.100000)"
fill="#000000" stroke="none">
<path d="M1206 2388 c-13 -18 -16 -54 -16 -180 l0 -157 -42 -5 c-108 -15 -313
-36 -347 -36 -42 0 -61 -14 -61 -45 0 -51 54 -69 165 -55 44 6 126 16 182 23
l102 13 3 -131 3 -132 -135 -11 c-266 -23 -380 -37 -576 -68 -50 -8 -109 -14
-131 -14 -52 0 -85 -24 -81 -58 5 -44 44 -56 141 -42 343 49 646 81 757 80
l55 -1 -80 -76 c-44 -41 -132 -118 -195 -169 -63 -52 -167 -137 -230 -189
-153 -127 -245 -196 -365 -273 -113 -72 -128 -87 -119 -116 14 -43 60 -48 113
-13 142 93 184 122 247 169 63 47 207 164 379 308 33 27 69 50 81 50 11 0 101
13 200 29 287 48 282 47 264 26 -8 -9 -71 -62 -140 -116 -69 -55 -137 -111
-152 -125 -33 -30 -36 -70 -9 -105 21 -27 84 -149 79 -154 -2 -2 -86 -10 -188
-19 -102 -9 -224 -21 -271 -26 -48 -6 -113 -10 -145 -10 -69 0 -104 -19 -104
-55 0 -13 10 -31 22 -39 26 -19 60 -20 188 -6 183 20 425 40 471 40 l46 0 7
-46 c20 -152 -10 -403 -56 -467 -13 -17 -16 -16 -55 12 -23 16 -62 59 -87 94
-26 36 -54 68 -63 71 -48 19 -78 -35 -49 -89 25 -46 101 -131 159 -176 86 -68
152 -50 197 57 55 127 80 356 57 512 l-8 52 58 0 c136 0 620 33 643 44 36 16
35 66 -1 83 -26 12 -193 7 -631 -22 -76 -5 -88 -3 -88 10 0 8 -18 52 -41 96
-22 45 -37 85 -32 89 4 4 55 44 113 90 58 47 142 121 188 166 76 74 83 84 80
115 -5 51 -33 60 -148 48 -52 -5 -150 -19 -218 -30 -67 -11 -128 -19 -134 -17
-6 2 37 47 94 101 l105 97 66 0 c36 0 99 4 139 9 68 9 121 13 457 40 135 11
171 25 171 66 0 26 -41 62 -59 51 -5 -4 -81 -11 -168 -16 -154 -10 -286 -21
-428 -36 l-70 -7 195 194 c111 109 203 210 213 231 21 44 22 82 3 98 -27 21
-59 7 -89 -40 -16 -25 -131 -145 -256 -267 -183 -180 -231 -223 -253 -223
l-28 0 0 135 0 134 33 5 c17 3 95 15 172 27 157 23 188 36 183 77 -5 45 -34
51 -155 32 -60 -10 -136 -20 -170 -24 l-63 -7 0 148 c0 162 -9 193 -55 193
-13 0 -31 -10 -39 -22z"/>
</g>
</svg>
