<?xml version="1.0" standalone="no"?>
<!DOCTYPE svg PUBLIC "-//W3C//DTD SVG 20010904//EN"
 "http://www.w3.org/TR/2001/REC-SVG-20010904/DTD/svg10.dtd">
<svg version="1.0" xmlns="http://www.w3.org/2000/svg"
 width="248.000000pt" height="248.000000pt" viewBox="0 0 248.000000 248.000000"
 preserveAspectRatio="xMidYMid meet">
<metadata>
Created by potrace 1.10, written by Peter Selinger 2001-2011
</metadata>
<g transform="translate(0.000000,248.000000) scale(0.100000,-0.100000)"
fill="#000000" stroke="none">
<path d="M1212 2348 c-8 -8 -12 -57 -12 -154 0 -159 3 -154 -76 -154 -25 0
-75 -5 -112 -10 -37 -6 -130 -14 -207 -20 -184 -12 -351 -29 -396 -41 -22 -5
-40 -18 -46 -31 -18 -41 13 -374 38 -404 16 -19 53 -18 70 3 15 17 15 33 2
220 l-8 111 25 5 c26 5 157 18 385 38 72 7 159 15 195 19 91 11 781 32 923 28
l117 -3 -36 -55 c-20 -30 -57 -78 -80 -107 -48 -56 -57 -96 -25 -113 11 -5 24
-10 30 -10 20 0 93 74 134 135 22 33 58 79 79 103 33 36 39 49 36 79 -2 26
-11 42 -31 57 -27 20 -40 21 -270 21 -133 0 -331 -2 -440 -4 l-198 -4 -2 130
c-2 113 -5 134 -21 152 -21 23 -56 27 -74 9z"/>
<path d="M1002 1750 c-81 -145 -258 -363 -348 -431 -52 -38 -69 -71 -54 -99
34 -63 108 -15 283 184 104 118 210 277 210 316 0 63 -61 83 -91 30z"/>
</g>
</svg>
