<?xml version="1.0" standalone="no"?>
<!DOCTYPE svg PUBLIC "-//W3C//DTD SVG 20010904//EN"
 "http://www.w3.org/TR/2001/REC-SVG-20010904/DTD/svg10.dtd">
<svg version="1.0" xmlns="http://www.w3.org/2000/svg"
 width="248.000000pt" height="248.000000pt" viewBox="0 0 248.000000 248.000000"
 preserveAspectRatio="xMidYMid meet">
<metadata>
Created by potrace 1.10, written by Peter Selinger 2001-2011
</metadata>
<g transform="translate(0.000000,248.000000) scale(0.100000,-0.100000)"
fill="#000000" stroke="none">
<path d="M1212 2348 c-8 -8 -12 -57 -12 -154 0 -159 3 -154 -76 -154 -25 0
-75 -5 -112 -10 -37 -6 -130 -14 -207 -20 -184 -12 -351 -29 -396 -41 -22 -5
-40 -18 -46 -31 -18 -41 13 -374 38 -404 16 -19 53 -18 70 3 15 17 15 33 2
220 l-8 111 25 5 c26 6 175 20 375 37 66 6 156 15 200 20 103 12 774 32 928
28 l117 -3 -36 -55 c-20 -30 -57 -78 -80 -107 -48 -56 -57 -96 -25 -113 11 -5
24 -10 30 -10 20 0 93 74 134 135 22 33 58 79 79 103 33 36 39 49 36 79 -2 26
-11 42 -31 57 -27 20 -40 21 -270 21 -133 0 -331 -2 -440 -4 l-198 -4 -2 130
c-2 113 -5 134 -21 152 -21 23 -56 27 -74 9z"/>
<path d="M1360 1835 c-58 -7 -145 -16 -195 -20 -120 -9 -141 -18 -170 -74 -66
-127 -248 -352 -341 -422 -26 -19 -50 -44 -55 -57 -11 -29 3 -58 32 -67 37
-12 96 38 262 220 l46 50 23 -21 c13 -12 55 -40 94 -63 124 -72 125 -61 -28
-194 -73 -64 -160 -133 -193 -155 -33 -21 -66 -46 -73 -54 -22 -28 -232 -162
-341 -218 -104 -54 -106 -56 -106 -90 0 -28 5 -36 27 -44 22 -8 41 -2 121 38
52 26 135 74 183 107 49 32 94 59 101 59 13 0 19 -15 29 -75 3 -22 15 -74 25
-115 11 -41 24 -106 29 -145 21 -164 41 -206 89 -190 37 11 40 43 16 190 -12
77 -30 165 -38 195 -8 30 -18 73 -22 95 -3 22 -8 48 -11 58 -5 15 4 17 97 17
102 0 278 11 494 30 61 5 159 12 219 15 l109 5 -7 -68 c-8 -76 -18 -135 -53
-312 -30 -145 -31 -180 -7 -197 47 -34 69 -7 98 125 29 129 61 315 71 415 4
37 10 69 14 71 3 2 87 -23 186 -55 204 -66 259 -73 277 -35 13 31 5 54 -24 65
-13 5 -129 42 -258 81 -277 84 -403 136 -600 244 -80 44 -147 81 -149 82 -4 4
34 59 69 100 15 17 59 96 98 176 118 238 103 263 -138 233z m80 -106 c0 -27
-109 -231 -145 -269 -12 -14 -28 -35 -34 -47 -6 -13 -15 -23 -20 -23 -8 0 -85
48 -184 115 -21 14 -40 32 -43 40 -3 8 14 45 38 83 l43 69 110 13 c91 10 193
23 228 29 4 0 7 -4 7 -10z m-22 -569 c79 -43 176 -94 215 -112 l72 -33 -100
-7 c-55 -3 -156 -11 -225 -17 -69 -6 -197 -14 -285 -17 l-159 -7 154 136 c85
75 162 136 170 136 8 1 80 -35 158 -79z"/>
</g>
</svg>
