<?xml version="1.0" standalone="no"?>
<!DOCTYPE svg PUBLIC "-//W3C//DTD SVG 20010904//EN"
 "http://www.w3.org/TR/2001/REC-SVG-20010904/DTD/svg10.dtd">
<svg version="1.0" xmlns="http://www.w3.org/2000/svg"
 width="248.000000pt" height="248.000000pt" viewBox="0 0 248.000000 248.000000"
 preserveAspectRatio="xMidYMid meet">
<metadata>
Created by potrace 1.10, written by Peter Selinger 2001-2011
</metadata>
<g transform="translate(0.000000,248.000000) scale(0.100000,-0.100000)"
fill="#000000" stroke="none">
<path d="M1212 2348 c-8 -8 -12 -57 -12 -154 0 -159 3 -154 -76 -154 -25 0
-75 -5 -112 -10 -37 -6 -130 -14 -207 -20 -184 -12 -351 -29 -396 -41 -22 -5
-40 -18 -46 -31 -18 -41 13 -374 38 -404 16 -19 53 -18 70 3 15 17 15 33 2
220 l-8 111 25 5 c26 6 175 20 375 37 66 6 156 15 200 20 103 12 774 32 928
28 l117 -3 -36 -55 c-20 -30 -57 -78 -80 -107 -48 -56 -57 -96 -25 -113 11 -5
24 -10 30 -10 20 0 93 74 134 135 22 33 58 79 79 103 33 36 39 49 36 79 -2 26
-11 42 -31 57 -27 20 -40 21 -270 21 -133 0 -331 -2 -440 -4 l-198 -4 -2 130
c-2 113 -5 134 -21 152 -21 23 -56 27 -74 9z"/>
<path d="M1360 1835 c-58 -7 -145 -16 -195 -20 -120 -9 -141 -18 -170 -74 -66
-127 -248 -352 -341 -422 -52 -38 -69 -71 -54 -99 34 -64 109 -15 287 188 45
52 110 137 145 191 l63 98 50 6 c28 3 95 11 150 17 55 6 110 13 123 15 30 7
28 -4 -13 -88 -66 -135 -106 -193 -204 -299 -74 -80 -293 -268 -366 -316 -33
-21 -66 -46 -73 -54 -22 -28 -232 -162 -341 -218 -104 -54 -106 -56 -106 -90
0 -29 5 -36 27 -44 23 -8 41 -3 115 35 99 50 304 181 366 235 23 19 62 47 87
61 25 14 110 84 190 153 130 115 180 166 294 307 19 23 66 107 105 186 117
236 102 262 -139 232z"/>
</g>
</svg>
