<?xml version="1.0" standalone="no"?>
<!DOCTYPE svg PUBLIC "-//W3C//DTD SVG 20010904//EN"
 "http://www.w3.org/TR/2001/REC-SVG-20010904/DTD/svg10.dtd">
<svg version="1.0" xmlns="http://www.w3.org/2000/svg"
 width="248.000000pt" height="248.000000pt" viewBox="0 0 248.000000 248.000000"
 preserveAspectRatio="xMidYMid meet">
<metadata>
Created by potrace 1.10, written by Peter Selinger 2001-2011
</metadata>
<g transform="translate(0.000000,248.000000) scale(0.100000,-0.100000)"
fill="#000000" stroke="none">
<path d="M1875 1700 c-231 -7 -413 -20 -560 -39 -38 -6 -108 -13 -155 -16 -47
-3 -114 -10 -150 -15 -71 -10 -272 -33 -445 -50 -162 -17 -345 -48 -362 -61
-23 -19 -12 -62 20 -77 23 -11 45 -10 150 7 67 11 174 25 237 31 63 5 171 16
240 25 69 8 172 20 230 25 58 6 143 15 190 21 168 21 309 30 580 37 301 9 332
15 338 63 3 29 -12 46 -48 51 -14 3 -133 1 -265 -2z"/>
</g>
</svg>
