<?xml version="1.0" standalone="no"?>
<!DOCTYPE svg PUBLIC "-//W3C//DTD SVG 20010904//EN"
 "http://www.w3.org/TR/2001/REC-SVG-20010904/DTD/svg10.dtd">
<svg version="1.0" xmlns="http://www.w3.org/2000/svg"
 width="248.000000pt" height="248.000000pt" viewBox="0 0 248.000000 248.000000"
 preserveAspectRatio="xMidYMid meet">
<metadata>
Created by potrace 1.10, written by Peter Selinger 2001-2011
</metadata>
<g transform="translate(0.000000,248.000000) scale(0.100000,-0.100000)"
fill="#000000" stroke="none">
<path d="M1176 2298 c-12 -17 -16 -50 -16 -138 0 -63 -3 -206 -7 -317 l-6
-203 -34 0 c-19 0 -64 -4 -101 -10 -71 -10 -262 -31 -447 -50 -162 -17 -345
-48 -362 -61 -23 -19 -12 -62 20 -77 23 -11 45 -10 150 7 67 11 156 23 197 26
79 7 259 27 448 51 62 8 117 14 123 14 11 0 12 -383 2 -727 l-6 -231 -101 -11
c-56 -6 -141 -15 -191 -21 -49 -5 -119 -12 -155 -16 -77 -7 -110 -25 -110 -59
0 -45 33 -56 135 -45 50 6 133 15 185 20 220 24 394 32 723 33 322 2 349 3
358 20 16 28 0 57 -39 75 -31 13 -87 15 -364 15 l-327 -1 -3 76 c-2 43 0 122
3 177 4 55 7 236 8 401 l1 302 46 7 c104 15 283 26 544 33 301 9 332 15 338
63 6 49 -10 52 -246 50 -119 -1 -260 -6 -312 -11 -52 -5 -151 -14 -219 -20
-67 -6 -130 -14 -138 -17 -13 -5 -14 33 -8 306 6 276 4 315 -10 337 -20 31
-59 32 -79 2z"/>
</g>
</svg>
