<?xml version="1.0" standalone="no"?>
<!DOCTYPE svg PUBLIC "-//W3C//DTD SVG 20010904//EN"
 "http://www.w3.org/TR/2001/REC-SVG-20010904/DTD/svg10.dtd">
<svg version="1.0" xmlns="http://www.w3.org/2000/svg"
 width="248.000000pt" height="248.000000pt" viewBox="0 0 248.000000 248.000000"
 preserveAspectRatio="xMidYMid meet">
<metadata>
Created by potrace 1.10, written by Peter Selinger 2001-2011
</metadata>
<g transform="translate(0.000000,248.000000) scale(0.100000,-0.100000)"
fill="#000000" stroke="none">
<path d="M1752 2272 c-19 -19 -24 -34 -81 -232 -50 -173 -70 -229 -93 -262
-10 -14 -18 -29 -18 -33 0 -4 -17 -44 -39 -89 -21 -44 -52 -112 -69 -151 -38
-87 -104 -208 -138 -252 -55 -72 -61 -133 -15 -148 32 -10 46 3 116 112 60 93
93 157 170 328 15 33 46 101 70 150 58 123 78 177 111 294 15 56 31 101 34
101 3 0 14 -15 23 -32 19 -37 145 -219 229 -331 30 -40 110 -156 178 -259 68
-103 134 -192 146 -198 29 -16 63 -4 70 25 6 25 -8 56 -55 120 -16 22 -74 108
-129 192 -55 84 -115 171 -134 195 -31 38 -71 95 -206 293 -19 28 -49 80 -68
116 -40 81 -67 96 -102 61z"/>
<path d="M676 2228 c-14 -19 -16 -69 -16 -344 l0 -321 -67 -8 c-38 -4 -86 -8
-108 -9 l-40 -1 -5 157 c-5 135 -8 159 -24 177 -11 12 -29 21 -41 21 -44 0
-48 -18 -43 -204 l4 -174 -55 -11 c-30 -6 -82 -11 -115 -11 -79 0 -111 -16
-111 -55 0 -35 31 -55 88 -55 l37 0 1 -142 c0 -79 7 -251 15 -383 8 -132 19
-320 24 -417 11 -209 20 -240 76 -258 44 -15 521 -7 674 10 47 6 114 13 149
17 91 9 89 1 80 368 -4 165 -8 441 -8 613 l-1 312 48 0 c66 0 96 18 100 58 5
51 -21 58 -180 43 -73 -7 -158 -16 -188 -21 -30 -5 -88 -12 -127 -15 l-73 -7
0 130 0 130 43 6 c23 3 92 11 152 17 61 6 120 17 133 25 30 19 29 59 -2 79
-23 15 -36 15 -153 1 -195 -24 -173 -39 -173 117 0 145 -10 177 -55 177 -13 0
-31 -10 -39 -22z m416 -1793 l4 -120 -36 -2 c-19 -1 -109 -6 -200 -12 -189
-12 -519 -15 -521 -3 -1 4 -5 70 -9 147 -5 77 -15 250 -24 385 -8 135 -15 320
-16 411 l0 167 33 6 c17 3 73 10 122 16 50 6 99 13 110 15 11 3 90 10 175 16
85 6 198 16 250 23 l95 12 7 -471 c3 -258 8 -524 10 -590z"/>
<path d="M676 1398 c-13 -19 -16 -54 -16 -205 0 -100 -4 -184 -8 -187 -4 -2
-66 -10 -137 -17 -73 -6 -140 -18 -152 -26 -31 -18 -30 -58 2 -79 22 -14 36
-15 126 -4 55 6 103 9 106 7 2 -3 0 -13 -6 -24 -5 -10 -20 -40 -32 -68 -13
-27 -51 -102 -86 -167 -63 -116 -74 -153 -51 -176 17 -17 53 -15 70 6 13 14
58 92 134 232 12 22 14 2 14 -162 0 -202 4 -218 54 -218 47 0 51 18 56 253 l5
220 38 -54 c112 -162 149 -191 189 -151 29 28 20 54 -51 140 -57 69 -137 190
-130 196 2 2 47 11 99 20 108 21 140 36 140 70 0 45 -33 56 -124 41 l-49 -8
40 51 c61 76 135 210 140 253 6 45 -9 69 -42 69 -28 0 -33 -6 -87 -110 -24
-47 -60 -107 -81 -133 -52 -68 -49 -116 8 -130 11 -2 -1 -5 -27 -6 l-48 -1 0
168 c0 114 -4 175 -13 192 -17 34 -60 39 -81 8z"/>
<path d="M412 1298 c-19 -19 -14 -46 20 -112 64 -124 88 -156 117 -156 15 0
32 5 39 12 17 17 15 59 -3 85 -8 12 -31 52 -51 90 -20 37 -43 74 -52 81 -20
15 -54 16 -70 0z"/>
<path d="M1712 1488 c-21 -21 -13 -56 24 -115 77 -122 154 -179 192 -141 23
23 12 55 -43 118 -30 35 -55 67 -55 71 0 5 -14 24 -31 44 -32 36 -65 45 -87
23z"/>
<path d="M2075 1109 c-110 -12 -398 -39 -530 -49 -141 -11 -195 -19 -212 -33
-19 -14 -16 -51 6 -71 17 -15 31 -16 152 -7 195 16 458 39 504 45 106 14 136
15 133 7 -2 -5 -45 -54 -97 -108 -52 -54 -116 -120 -142 -148 -26 -27 -86 -84
-133 -125 -47 -41 -88 -86 -92 -99 -9 -32 7 -55 39 -59 22 -3 49 16 140 96 62
54 128 117 146 138 19 21 92 100 164 174 136 142 162 178 152 211 -13 39 -74
46 -230 28z"/>
</g>
</svg>
