<?xml version="1.0" standalone="no"?>
<!DOCTYPE svg PUBLIC "-//W3C//DTD SVG 20010904//EN"
 "http://www.w3.org/TR/2001/REC-SVG-20010904/DTD/svg10.dtd">
<svg version="1.0" xmlns="http://www.w3.org/2000/svg"
 width="248.000000pt" height="248.000000pt" viewBox="0 0 248.000000 248.000000"
 preserveAspectRatio="xMidYMid meet">
<metadata>
Created by potrace 1.10, written by Peter Selinger 2001-2011
</metadata>
<g transform="translate(0.000000,248.000000) scale(0.100000,-0.100000)"
fill="#000000" stroke="none">
<path d="M680 2235 c-17 -21 -19 -45 -19 -375 l-1 -296 -101 -13 c-57 -8 -104
-10 -109 -5 -5 5 -10 74 -12 154 -3 161 -16 200 -62 200 -45 0 -49 -17 -44
-204 l4 -174 -55 -11 c-30 -6 -84 -11 -120 -11 -76 0 -111 -18 -111 -55 0 -33
36 -55 87 -55 l43 0 0 -137 c1 -76 8 -248 16 -383 8 -135 19 -322 24 -416 5
-95 15 -189 22 -210 21 -63 45 -67 368 -60 151 4 313 11 360 16 47 6 114 13
149 17 91 9 89 1 80 368 -4 165 -8 441 -8 613 l-1 312 48 0 c65 0 96 18 100
57 5 52 -18 58 -177 44 -75 -7 -158 -16 -186 -21 -27 -5 -85 -12 -127 -15
l-78 -7 0 130 0 130 48 6 c26 3 94 11 152 17 58 6 115 17 128 25 29 19 29 59
-2 79 -21 14 -36 14 -152 0 -196 -23 -174 -38 -174 118 0 104 -3 137 -16 155
-17 25 -56 29 -74 7z m412 -1800 l4 -120 -36 -2 c-19 -1 -109 -6 -200 -12 -91
-6 -245 -11 -342 -11 l-177 0 -5 53 c-3 28 -8 95 -10 147 -3 52 -11 205 -20
340 -8 135 -15 318 -16 408 l0 162 24 10 c13 5 53 12 88 15 34 4 88 11 118 15
30 5 125 14 210 20 85 7 198 17 250 24 l95 12 7 -471 c3 -258 8 -524 10 -590z"/>
<path d="M676 1398 c-13 -18 -16 -56 -16 -205 0 -100 -4 -184 -8 -187 -4 -2
-66 -10 -137 -17 -73 -6 -140 -18 -152 -26 -31 -18 -30 -58 2 -79 22 -14 36
-15 126 -4 55 6 103 9 106 7 2 -3 0 -13 -6 -24 -5 -10 -20 -40 -33 -68 -12
-27 -51 -102 -85 -167 -63 -116 -74 -153 -51 -176 17 -17 53 -15 70 6 13 14
58 92 134 232 12 22 14 2 14 -162 0 -202 4 -218 54 -218 47 0 51 18 56 253 l5
220 38 -54 c112 -162 149 -191 189 -151 29 28 20 54 -51 140 -57 69 -137 190
-130 196 2 2 47 11 99 20 114 22 142 37 138 74 -5 43 -40 53 -118 37 -36 -8
-84 -14 -107 -15 l-43 0 0 173 c0 188 -7 217 -55 217 -13 0 -31 -10 -39 -22z"/>
<path d="M972 1398 c-5 -7 -30 -51 -54 -98 -24 -47 -60 -107 -81 -133 -52 -69
-48 -127 10 -127 28 0 81 65 148 181 50 87 66 149 45 174 -15 18 -54 20 -68 3z"/>
<path d="M412 1298 c-19 -19 -14 -46 20 -112 64 -124 88 -156 117 -156 15 0
32 5 39 12 14 14 16 60 3 74 -5 5 -28 45 -51 89 -23 44 -49 86 -58 93 -20 15
-54 16 -70 0z"/>
</g>
</svg>
