<?xml version="1.0" standalone="no"?>
<!DOCTYPE svg PUBLIC "-//W3C//DTD SVG 20010904//EN"
 "http://www.w3.org/TR/2001/REC-SVG-20010904/DTD/svg10.dtd">
<svg version="1.0" xmlns="http://www.w3.org/2000/svg"
 width="248.000000pt" height="248.000000pt" viewBox="0 0 248.000000 248.000000"
 preserveAspectRatio="xMidYMid meet">
<metadata>
Created by potrace 1.10, written by Peter Selinger 2001-2011
</metadata>
<g transform="translate(0.000000,248.000000) scale(0.100000,-0.100000)"
fill="#000000" stroke="none">
<path d="M680 2235 c-17 -21 -19 -45 -19 -375 l-1 -296 -101 -13 c-57 -8 -104
-10 -109 -5 -5 5 -10 74 -12 154 -3 161 -16 200 -62 200 -45 0 -49 -17 -44
-204 l4 -174 -55 -11 c-30 -6 -84 -11 -120 -11 -76 0 -111 -18 -111 -55 0 -15
10 -31 25 -41 30 -20 126 -16 260 9 110 21 234 35 400 47 77 6 174 15 215 21
41 5 139 16 217 23 81 8 149 19 158 26 23 19 19 67 -7 81 -22 12 -231 -1 -343
-21 -27 -5 -85 -12 -127 -15 l-78 -7 0 130 0 130 48 6 c26 3 94 11 152 17 58
6 115 17 128 25 29 19 29 59 -2 79 -21 14 -36 14 -152 0 -196 -23 -174 -38
-174 118 0 104 -3 137 -16 155 -17 25 -56 29 -74 7z"/>
<path d="M676 1398 c-13 -18 -16 -56 -16 -205 0 -100 -4 -184 -8 -187 -4 -2
-66 -10 -137 -17 -73 -6 -140 -18 -152 -26 -31 -19 -30 -58 2 -79 23 -15 35
-15 157 -1 73 9 134 15 135 13 2 -2 -1 -34 -7 -72 -13 -92 -13 -470 0 -495 13
-24 62 -26 81 -2 11 12 15 79 20 287 3 149 10 279 14 289 4 11 18 17 39 17 48
0 203 35 221 50 19 16 19 54 0 70 -18 15 -44 16 -109 5 l-49 -8 40 51 c61 76
135 210 140 253 6 45 -9 69 -42 69 -28 0 -33 -6 -87 -110 -24 -47 -60 -107
-81 -133 -52 -68 -49 -116 8 -130 11 -2 -1 -5 -27 -6 l-48 -1 0 173 c0 188 -7
217 -55 217 -13 0 -31 -10 -39 -22z"/>
<path d="M412 1298 c-19 -19 -14 -46 20 -112 64 -124 88 -156 117 -156 15 0
32 5 39 12 14 14 16 60 3 74 -5 5 -28 45 -51 89 -23 44 -49 86 -58 93 -20 15
-54 16 -70 0z"/>
</g>
</svg>
