<?xml version="1.0" standalone="no"?>
<!DOCTYPE svg PUBLIC "-//W3C//DTD SVG 20010904//EN"
 "http://www.w3.org/TR/2001/REC-SVG-20010904/DTD/svg10.dtd">
<svg version="1.0" xmlns="http://www.w3.org/2000/svg"
 width="248.000000pt" height="248.000000pt" viewBox="0 0 248.000000 248.000000"
 preserveAspectRatio="xMidYMid meet">
<metadata>
Created by potrace 1.10, written by Peter Selinger 2001-2011
</metadata>
<g transform="translate(0.000000,248.000000) scale(0.100000,-0.100000)"
fill="#000000" stroke="none">
<path d="M1709 2313 c-8 -10 -23 -35 -34 -56 -10 -22 -35 -58 -55 -80 -19 -23
-48 -59 -63 -79 -15 -20 -67 -80 -117 -133 -68 -74 -90 -104 -90 -125 0 -33
21 -53 51 -48 20 3 179 167 281 290 89 108 128 204 96 236 -17 17 -53 15 -69
-5z"/>
<path d="M752 2188 c-7 -7 -12 -22 -12 -34 0 -65 187 -294 240 -294 31 0 50
17 50 43 0 10 -27 49 -61 85 -33 37 -72 87 -86 112 -52 89 -99 120 -131 88z"/>
</g>
</svg>
