<?xml version="1.0" standalone="no"?>
<!DOCTYPE svg PUBLIC "-//W3C//DTD SVG 20010904//EN"
 "http://www.w3.org/TR/2001/REC-SVG-20010904/DTD/svg10.dtd">
<svg version="1.0" xmlns="http://www.w3.org/2000/svg"
 width="248.000000pt" height="248.000000pt" viewBox="0 0 248.000000 248.000000"
 preserveAspectRatio="xMidYMid meet">
<metadata>
Created by potrace 1.10, written by Peter Selinger 2001-2011
</metadata>
<g transform="translate(0.000000,248.000000) scale(0.100000,-0.100000)"
fill="#000000" stroke="none">
<path d="M1065 2023 c-16 -3 -95 -16 -175 -29 -80 -14 -172 -29 -205 -34 -127
-19 -229 -41 -242 -52 -23 -18 -12 -61 19 -76 30 -14 32 -14 353 43 77 14 180
32 230 40 61 10 94 20 102 31 34 47 -9 87 -82 77z"/>
<path d="M975 1605 c-110 -19 -247 -39 -305 -45 -58 -6 -138 -18 -179 -26 -40
-8 -96 -14 -125 -14 -60 0 -96 -20 -96 -54 0 -52 54 -64 187 -43 54 9 141 21
193 27 52 7 138 19 190 27 52 8 139 21 193 29 53 7 116 18 140 23 72 17 96 75
41 100 -14 6 -28 10 -32 10 -4 -1 -97 -16 -207 -34z"/>
</g>
</svg>
