<?xml version="1.0" standalone="no"?>
<!DOCTYPE svg PUBLIC "-//W3C//DTD SVG 20010904//EN"
 "http://www.w3.org/TR/2001/REC-SVG-20010904/DTD/svg10.dtd">
<svg version="1.0" xmlns="http://www.w3.org/2000/svg"
 width="248.000000pt" height="248.000000pt" viewBox="0 0 248.000000 248.000000"
 preserveAspectRatio="xMidYMid meet">
<metadata>
Created by potrace 1.10, written by Peter Selinger 2001-2011
</metadata>
<g transform="translate(0.000000,248.000000) scale(0.100000,-0.100000)"
fill="#000000" stroke="none">
<path d="M1156 2368 c-12 -17 -16 -48 -16 -130 l0 -107 -47 -6 c-27 -3 -127
-17 -223 -30 -96 -14 -247 -33 -335 -44 -140 -18 -162 -23 -178 -42 -11 -14
-16 -31 -12 -48 3 -14 10 -71 15 -126 19 -190 34 -230 82 -223 33 4 48 43 38
98 -4 25 -11 86 -15 136 l-7 92 104 11 c56 7 164 21 238 32 131 20 183 26 435
50 178 16 785 25 785 10 0 -6 -3 -11 -7 -11 -5 0 -48 -38 -97 -83 -80 -75 -89
-85 -82 -110 8 -32 47 -45 79 -28 12 7 70 58 130 114 94 90 107 106 107 135 0
53 -15 70 -78 88 -50 15 -95 16 -367 11 -170 -4 -343 -10 -382 -13 l-73 -7 0
99 c0 59 -5 109 -13 124 -17 34 -60 39 -81 8z"/>
<path d="M770 1725 c-14 -16 -10 -184 9 -500 13 -203 13 -496 0 -790 -12 -277
-8 -300 46 -300 22 0 33 7 41 25 8 16 17 153 25 368 10 279 10 391 0 600 -7
141 -16 328 -20 414 -6 132 -10 161 -26 178 -21 24 -57 26 -75 5z"/>
</g>
</svg>
