<?xml version="1.0" standalone="no"?>
<!DOCTYPE svg PUBLIC "-//W3C//DTD SVG 20010904//EN"
 "http://www.w3.org/TR/2001/REC-SVG-20010904/DTD/svg10.dtd">
<svg version="1.0" xmlns="http://www.w3.org/2000/svg"
 width="248.000000pt" height="248.000000pt" viewBox="0 0 248.000000 248.000000"
 preserveAspectRatio="xMidYMid meet">
<metadata>
Created by potrace 1.10, written by Peter Selinger 2001-2011
</metadata>
<g transform="translate(0.000000,248.000000) scale(0.100000,-0.100000)"
fill="#000000" stroke="none">
<path d="M1749 2366 c-2 -2 -87 -6 -189 -9 -162 -6 -580 -39 -650 -52 -14 -3
-74 -9 -134 -15 -163 -16 -172 -25 -152 -146 8 -43 16 -113 20 -154 3 -41 12
-122 20 -180 8 -58 18 -145 22 -195 3 -49 13 -100 20 -112 19 -31 59 -30 79 1
14 21 14 36 0 152 -23 201 -35 178 103 192 64 6 163 15 218 18 l102 7 -6 -151
c-5 -146 -4 -150 17 -161 30 -16 60 -5 72 27 6 15 13 87 16 160 7 155 -16 137
193 151 268 19 320 21 320 12 0 -5 -25 -87 -57 -181 -61 -188 -61 -202 -5
-208 23 -2 34 2 46 20 41 64 207 648 210 740 0 26 -5 53 -11 59 -7 7 -36 16
-65 20 -56 8 -182 12 -189 5z m157 -123 c-3 -10 -12 -47 -21 -83 -9 -36 -21
-82 -26 -102 l-10 -38 -77 0 c-42 0 -149 -7 -237 -15 -88 -8 -173 -15 -189
-15 l-28 0 6 122 c4 67 9 125 12 128 6 5 233 15 447 18 118 2 128 1 123 -15z
m-687 -112 c-1 -55 -4 -111 -6 -125 -6 -30 -16 -32 -168 -41 -55 -3 -143 -10
-195 -15 -52 -5 -95 -8 -97 -7 -4 4 -25 229 -21 232 8 8 365 51 451 54 l38 1
-2 -99z"/>
</g>
</svg>
