<?xml version="1.0" standalone="no"?>
<!DOCTYPE svg PUBLIC "-//W3C//DTD SVG 20010904//EN"
 "http://www.w3.org/TR/2001/REC-SVG-20010904/DTD/svg10.dtd">
<svg version="1.0" xmlns="http://www.w3.org/2000/svg"
 width="248.000000pt" height="248.000000pt" viewBox="0 0 248.000000 248.000000"
 preserveAspectRatio="xMidYMid meet">
<metadata>
Created by potrace 1.10, written by Peter Selinger 2001-2011
</metadata>
<g transform="translate(0.000000,248.000000) scale(0.100000,-0.100000)"
fill="#000000" stroke="none">
<path d="M1749 2366 c-2 -2 -89 -6 -194 -10 -173 -6 -498 -32 -685 -55 -41 -5
-106 -13 -144 -16 -79 -8 -123 -38 -112 -78 3 -12 10 -58 16 -102 28 -228 50
-419 56 -495 3 -47 13 -95 20 -107 19 -30 59 -30 79 1 14 21 13 39 -5 197 -30
248 -52 470 -48 474 2 2 23 6 48 9 25 4 56 9 70 11 96 18 590 55 804 61 249 6
258 6 253 -12 -3 -11 -26 -99 -52 -197 -25 -98 -69 -248 -97 -334 -56 -169
-56 -186 0 -191 23 -2 34 2 46 20 41 64 207 648 210 740 0 26 -5 53 -11 59 -7
7 -36 16 -65 20 -56 8 -182 12 -189 5z"/>
</g>
</svg>
