<?xml version="1.0" standalone="no"?>
<!DOCTYPE svg PUBLIC "-//W3C//DTD SVG 20010904//EN"
 "http://www.w3.org/TR/2001/REC-SVG-20010904/DTD/svg10.dtd">
<svg version="1.0" xmlns="http://www.w3.org/2000/svg"
 width="248.000000pt" height="248.000000pt" viewBox="0 0 248.000000 248.000000"
 preserveAspectRatio="xMidYMid meet">
<metadata>
Created by potrace 1.10, written by Peter Selinger 2001-2011
</metadata>
<g transform="translate(0.000000,248.000000) scale(0.100000,-0.100000)"
fill="#000000" stroke="none">
<path d="M1571 2341 c-45 -49 -115 -115 -156 -147 -56 -42 -75 -63 -75 -80 0
-13 -3 -24 -7 -24 -5 0 -89 -7 -188 -15 -231 -19 -215 -20 -215 10 0 35 -19
70 -97 176 -43 59 -74 91 -91 96 -60 15 -81 -44 -35 -99 77 -89 148 -208 126
-208 -78 -2 -191 -15 -200 -23 -7 -5 -13 -20 -13 -32 0 -45 17 -49 213 -40
100 4 200 8 222 9 l40 1 0 -105 0 -104 -35 -7 c-19 -4 -103 -12 -185 -18 -165
-11 -181 -14 -196 -43 -26 -49 25 -86 93 -68 61 17 311 29 320 16 9 -13 10
-162 2 -205 -4 -21 -14 -33 -28 -36 -32 -7 -276 -35 -411 -46 -66 -5 -130 -12
-142 -15 -45 -9 -54 -72 -14 -94 13 -6 60 -5 142 5 548 64 712 76 1079 81 283
3 316 5 327 21 17 22 16 35 -1 58 -12 17 -30 18 -287 17 -151 -1 -340 -5 -421
-8 l-148 -7 0 114 c0 63 4 119 8 126 8 12 129 28 321 42 102 7 127 12 138 27
17 24 16 38 -5 64 -19 24 -20 24 -351 -11 -74 -7 -96 -7 -103 3 -4 7 -7 56 -5
108 l2 95 60 6 c33 4 119 12 190 19 189 16 367 39 393 50 16 7 22 18 22 40 0
44 -32 61 -90 50 -51 -11 -294 -39 -298 -35 -1 1 25 24 58 51 75 61 190 198
190 228 0 12 -5 27 -12 34 -28 28 -56 12 -137 -77z"/>
<path d="M1582 1238 c-40 -40 22 -111 176 -203 104 -61 137 -68 154 -30 15 33
-8 68 -64 96 -65 33 -119 69 -165 111 -43 39 -79 48 -101 26z"/>
<path d="M1272 1218 c-7 -7 -12 -23 -12 -36 0 -22 47 -197 65 -244 5 -12 -1
-17 -22 -22 -61 -11 -440 -39 -456 -33 -15 6 -17 19 -15 104 l3 97 39 22 c22
12 43 29 48 38 14 24 0 56 -29 67 -21 8 -41 1 -132 -49 -59 -33 -131 -68 -160
-78 -62 -22 -79 -48 -54 -84 14 -19 22 -22 59 -16 24 3 61 15 83 25 21 11 41
17 45 14 10 -10 7 -151 -3 -157 -5 -3 -65 -13 -133 -21 -285 -34 -348 -52
-348 -99 0 -49 19 -52 173 -28 246 39 300 44 309 30 4 -7 7 -44 6 -83 -4 -84
17 -71 -278 -180 -112 -41 -214 -82 -227 -90 -42 -28 -24 -85 25 -85 13 0 120
36 238 80 117 44 218 80 224 80 11 0 15 -242 4 -253 -4 -3 -23 5 -43 18 -19
14 -43 25 -51 25 -43 0 -54 -64 -17 -97 38 -36 123 -83 149 -83 53 0 56 9 60
222 3 133 8 201 16 211 7 8 51 29 97 47 91 34 115 51 115 80 0 23 -26 50 -48
49 -9 0 -48 -13 -87 -28 -38 -16 -73 -27 -77 -24 -9 5 -11 105 -2 127 4 11 19
16 50 16 24 0 144 9 266 21 210 20 223 20 233 4 21 -36 116 -182 152 -235 21
-30 38 -58 38 -61 0 -12 -134 -117 -190 -149 -68 -39 -83 -62 -60 -96 8 -13
23 -24 31 -24 29 0 131 60 211 125 l78 63 60 -57 c76 -74 247 -188 393 -262
132 -68 171 -78 207 -55 24 16 25 21 25 114 0 104 -7 122 -46 122 -30 0 -46
-22 -52 -75 -2 -25 -8 -47 -12 -50 -12 -7 -160 74 -280 154 -111 73 -210 160
-210 184 0 6 9 20 19 31 36 39 131 199 131 221 0 47 -52 61 -87 23 -11 -13
-36 -50 -56 -83 -21 -33 -48 -73 -60 -89 l-24 -29 -77 117 c-42 64 -79 123
-82 130 -7 19 108 26 411 26 264 0 275 2 275 46 0 44 -10 45 -375 44 -190 0
-351 -1 -357 -3 -13 -2 -38 62 -69 173 -11 41 -27 85 -35 98 -16 24 -53 29
-72 10z"/>
</g>
</svg>
