<?xml version="1.0" standalone="no"?>
<!DOCTYPE svg PUBLIC "-//W3C//DTD SVG 20010904//EN"
 "http://www.w3.org/TR/2001/REC-SVG-20010904/DTD/svg10.dtd">
<svg version="1.0" xmlns="http://www.w3.org/2000/svg"
 width="248.000000pt" height="248.000000pt" viewBox="0 0 248.000000 248.000000"
 preserveAspectRatio="xMidYMid meet">
<metadata>
Created by potrace 1.10, written by Peter Selinger 2001-2011
</metadata>
<g transform="translate(0.000000,248.000000) scale(0.100000,-0.100000)"
fill="#000000" stroke="none">
<path d="M1571 2341 c-45 -49 -115 -115 -156 -147 -56 -42 -75 -63 -75 -80 0
-13 -3 -24 -7 -24 -5 0 -89 -7 -188 -15 -231 -19 -215 -20 -215 10 0 35 -19
70 -97 176 -43 59 -74 91 -91 96 -60 15 -81 -44 -35 -99 77 -89 148 -208 126
-208 -78 -2 -191 -15 -200 -23 -7 -5 -13 -20 -13 -32 0 -45 17 -49 213 -40
100 4 200 8 222 9 l40 1 0 -105 0 -104 -35 -7 c-19 -4 -103 -12 -185 -18 -165
-11 -181 -14 -196 -43 -26 -49 25 -86 93 -68 61 17 311 29 320 16 9 -13 10
-162 2 -205 -4 -21 -14 -33 -28 -36 -32 -7 -276 -35 -411 -46 -66 -5 -130 -12
-142 -15 -45 -9 -54 -72 -14 -94 13 -6 60 -5 142 5 546 63 712 76 1084 81 279
3 311 5 322 21 17 22 16 35 -1 58 -12 17 -30 18 -287 17 -151 -1 -340 -5 -421
-8 l-148 -7 0 114 c0 63 4 119 8 126 8 12 129 28 321 42 102 7 127 12 138 27
17 24 16 38 -5 64 -19 24 -20 24 -351 -11 -74 -7 -96 -7 -103 3 -4 7 -7 56 -5
108 l2 95 60 6 c33 4 119 12 190 19 189 16 367 39 393 50 16 7 22 18 22 40 0
44 -32 61 -90 50 -51 -11 -294 -39 -298 -35 -1 1 25 24 58 51 75 61 190 198
190 228 0 12 -5 27 -12 34 -28 28 -56 12 -137 -77z"/>
<path d="M765 1164 c-55 -31 -127 -66 -159 -78 -67 -24 -84 -50 -59 -86 25
-35 85 -21 232 55 120 63 151 85 151 110 0 18 -23 42 -45 49 -13 3 -54 -14
-120 -50z"/>
<path d="M1755 940 c-198 -3 -364 -8 -370 -11 -5 -4 -118 -17 -250 -28 -521
-46 -815 -86 -861 -116 -28 -18 -32 -56 -8 -76 13 -11 39 -9 157 9 220 34 351
51 487 62 222 18 453 41 520 51 36 6 214 13 395 16 200 3 335 9 343 15 6 6 12
21 12 33 0 25 -15 40 -45 46 -11 2 -182 2 -380 -1z"/>
</g>
</svg>
