<?xml version="1.0" standalone="no"?>
<!DOCTYPE svg PUBLIC "-//W3C//DTD SVG 20010904//EN"
 "http://www.w3.org/TR/2001/REC-SVG-20010904/DTD/svg10.dtd">
<svg version="1.0" xmlns="http://www.w3.org/2000/svg"
 width="248.000000pt" height="248.000000pt" viewBox="0 0 248.000000 248.000000"
 preserveAspectRatio="xMidYMid meet">
<metadata>
Created by potrace 1.10, written by Peter Selinger 2001-2011
</metadata>
<g transform="translate(0.000000,248.000000) scale(0.100000,-0.100000)"
fill="#000000" stroke="none">
<path d="M1571 2341 c-45 -49 -115 -115 -156 -147 -56 -42 -75 -63 -75 -80 0
-13 -3 -24 -7 -24 -5 0 -89 -7 -188 -15 -231 -19 -215 -20 -215 10 0 35 -19
70 -97 176 -43 59 -74 91 -91 96 -60 15 -81 -44 -35 -99 77 -89 148 -208 126
-208 -78 -2 -191 -15 -200 -23 -7 -5 -13 -20 -13 -32 0 -45 17 -49 213 -40
100 4 200 8 222 9 l40 1 3 -254 c2 -192 0 -265 -11 -300 -16 -54 -7 -86 26
-95 28 -7 52 8 65 41 8 18 13 134 14 323 l3 295 60 6 c33 4 119 12 190 19 189
16 367 39 393 50 16 7 22 18 22 40 0 44 -32 61 -90 50 -51 -11 -294 -39 -298
-35 -1 1 25 24 58 51 75 61 190 198 190 228 0 12 -5 27 -12 34 -28 28 -56 12
-137 -77z"/>
</g>
</svg>
