<?xml version="1.0" standalone="no"?>
<!DOCTYPE svg PUBLIC "-//W3C//DTD SVG 20010904//EN"
 "http://www.w3.org/TR/2001/REC-SVG-20010904/DTD/svg10.dtd">
<svg version="1.0" xmlns="http://www.w3.org/2000/svg"
 width="248.000000pt" height="248.000000pt" viewBox="0 0 248.000000 248.000000"
 preserveAspectRatio="xMidYMid meet">
<metadata>
Created by potrace 1.10, written by Peter Selinger 2001-2011
</metadata>
<g transform="translate(0.000000,248.000000) scale(0.100000,-0.100000)"
fill="#000000" stroke="none">
<path d="M532 2228 c-21 -21 -13 -57 21 -93 64 -69 271 -225 297 -225 32 0 50
17 50 46 0 23 -29 51 -141 139 -35 28 -87 71 -116 98 -53 47 -88 58 -111 35z"/>
<path d="M1625 2154 c-400 -253 -479 -322 -414 -367 28 -20 35 -17 161 76 58
42 108 77 112 77 3 0 6 -94 6 -209 l0 -210 -57 -5 c-119 -12 -301 -39 -388
-57 -49 -10 -110 -19 -135 -19 -64 0 -95 -18 -95 -55 0 -22 7 -33 27 -43 29
-14 96 -6 343 38 61 10 148 22 195 26 47 4 88 8 92 10 11 7 13 -64 6 -206 -11
-213 -2 -195 -111 -209 -50 -7 -126 -18 -167 -26 -41 -7 -96 -16 -123 -20 -27
-4 -58 -16 -74 -29 l-26 -23 21 -159 c12 -87 24 -195 27 -239 7 -97 30 -212
46 -231 15 -19 53 -18 69 1 9 11 11 33 7 73 -4 31 -13 120 -21 197 -8 77 -20
176 -25 219 -6 44 -9 82 -6 84 11 11 320 57 485 72 69 7 210 14 314 17 l188 5
-7 -43 c-17 -113 -114 -420 -161 -510 -30 -59 20 -107 70 -68 54 42 204 512
209 654 2 35 -2 41 -28 54 -41 20 -295 23 -445 6 -63 -8 -123 -14 -133 -15
-17 0 -18 8 -11 103 3 56 8 122 9 147 2 25 4 70 4 101 l1 57 43 6 c126 18 524
47 633 47 77 -1 94 2 108 18 10 11 16 30 14 42 -5 41 -42 51 -158 44 -151 -8
-485 -34 -555 -42 -33 -4 -64 -8 -69 -8 -4 0 -9 107 -9 238 l-1 239 85 53 c46
30 96 64 112 75 45 35 31 90 -22 90 -15 0 -78 -33 -146 -76z"/>
<path d="M202 1468 c-7 -7 -12 -22 -12 -35 0 -30 30 -48 209 -124 118 -51 149
-60 170 -53 19 7 27 17 29 40 4 38 -7 47 -89 78 -36 13 -104 43 -151 65 -88
42 -135 50 -156 29z"/>
<path d="M677 1012 c-9 -9 -47 -80 -85 -157 -86 -173 -193 -366 -283 -508 -38
-59 -69 -118 -69 -130 0 -49 52 -63 87 -24 75 81 433 729 433 783 0 18 -36 54
-53 54 -8 0 -21 -8 -30 -18z"/>
</g>
</svg>
