<?xml version="1.0" standalone="no"?>
<!DOCTYPE svg PUBLIC "-//W3C//DTD SVG 20010904//EN"
 "http://www.w3.org/TR/2001/REC-SVG-20010904/DTD/svg10.dtd">
<svg version="1.0" xmlns="http://www.w3.org/2000/svg"
 width="248.000000pt" height="248.000000pt" viewBox="0 0 248.000000 248.000000"
 preserveAspectRatio="xMidYMid meet">
<metadata>
Created by potrace 1.10, written by Peter Selinger 2001-2011
</metadata>
<g transform="translate(0.000000,248.000000) scale(0.100000,-0.100000)"
fill="#000000" stroke="none">
<path d="M870 1960 c-184 -41 -608 -110 -672 -110 -24 0 -49 -5 -56 -12 -15
-15 -15 -51 0 -66 17 -17 155 -15 276 5 89 14 105 15 113 2 11 -16 6 -901 -6
-935 -8 -25 -240 -145 -328 -169 -60 -17 -83 -41 -72 -75 4 -11 15 -25 26 -31
48 -25 308 95 661 307 113 69 212 131 219 140 9 11 10 23 3 42 -18 51 -50 42
-212 -56 -81 -49 -157 -95 -170 -101 l-23 -12 3 455 c2 250 6 457 9 460 3 4
39 13 80 21 183 35 313 66 325 76 17 14 18 51 2 67 -17 17 -78 14 -178 -8z"/>
</g>
</svg>
