<?xml version="1.0" standalone="no"?>
<!DOCTYPE svg PUBLIC "-//W3C//DTD SVG 20010904//EN"
 "http://www.w3.org/TR/2001/REC-SVG-20010904/DTD/svg10.dtd">
<svg version="1.0" xmlns="http://www.w3.org/2000/svg"
 width="248.000000pt" height="248.000000pt" viewBox="0 0 248.000000 248.000000"
 preserveAspectRatio="xMidYMid meet">
<metadata>
Created by potrace 1.10, written by Peter Selinger 2001-2011
</metadata>
<g transform="translate(0.000000,248.000000) scale(0.100000,-0.100000)"
fill="#000000" stroke="none">
<path d="M532 2228 c-21 -21 -13 -57 21 -93 64 -69 271 -225 297 -225 32 0 50
17 50 46 0 23 -29 51 -141 139 -35 28 -87 71 -116 98 -53 47 -88 58 -111 35z"/>
<path d="M202 1468 c-7 -7 -12 -22 -12 -35 0 -30 30 -48 209 -124 118 -51 149
-60 170 -53 19 7 27 17 29 40 4 38 -7 47 -89 78 -36 13 -104 43 -151 65 -88
42 -135 50 -156 29z"/>
<path d="M677 1012 c-9 -9 -47 -80 -85 -157 -86 -173 -193 -366 -283 -508 -38
-59 -69 -118 -69 -130 0 -49 52 -63 87 -24 75 81 433 729 433 783 0 18 -36 54
-53 54 -8 0 -21 -8 -30 -18z"/>
</g>
</svg>
