<?xml version="1.0" standalone="no"?>
<!DOCTYPE svg PUBLIC "-//W3C//DTD SVG 20010904//EN"
 "http://www.w3.org/TR/2001/REC-SVG-20010904/DTD/svg10.dtd">
<svg version="1.0" xmlns="http://www.w3.org/2000/svg"
 width="248.000000pt" height="248.000000pt" viewBox="0 0 248.000000 248.000000"
 preserveAspectRatio="xMidYMid meet">
<metadata>
Created by potrace 1.10, written by Peter Selinger 2001-2011
</metadata>
<g transform="translate(0.000000,248.000000) scale(0.100000,-0.100000)"
fill="#000000" stroke="none">
<path d="M980 2149 c-36 -5 -137 -20 -225 -34 -88 -13 -236 -34 -330 -46 -94
-12 -180 -28 -193 -36 -32 -19 -27 -63 9 -80 28 -14 137 -2 479 52 85 13 198
30 250 36 107 14 140 28 140 63 0 45 -36 57 -130 45z"/>
<path d="M816 1808 c-9 -12 -16 -30 -16 -38 0 -26 -117 -406 -130 -422 -3 -4
-25 20 -48 55 -24 34 -61 87 -83 117 -22 30 -49 70 -61 88 -34 54 -100 55
-106 1 -3 -28 18 -64 116 -197 40 -55 86 -125 102 -155 l29 -56 -68 -139 c-38
-76 -103 -196 -145 -265 -76 -126 -89 -164 -62 -187 46 -38 112 45 257 324
l82 159 23 -28 c12 -16 28 -40 35 -54 7 -14 40 -68 73 -119 41 -63 69 -95 85
-99 56 -14 79 45 38 99 -26 36 -127 202 -171 283 l-28 50 37 105 c21 58 46
134 57 170 10 36 25 85 33 110 33 101 43 167 31 192 -16 32 -59 36 -80 6z"/>
</g>
</svg>
