<?xml version="1.0" standalone="no"?>
<!DOCTYPE svg PUBLIC "-//W3C//DTD SVG 20010904//EN"
 "http://www.w3.org/TR/2001/REC-SVG-20010904/DTD/svg10.dtd">
<svg version="1.0" xmlns="http://www.w3.org/2000/svg"
 width="248.000000pt" height="248.000000pt" viewBox="0 0 248.000000 248.000000"
 preserveAspectRatio="xMidYMid meet">
<metadata>
Created by potrace 1.10, written by Peter Selinger 2001-2011
</metadata>
<g transform="translate(0.000000,248.000000) scale(0.100000,-0.100000)"
fill="#000000" stroke="none">
<path d="M1571 2341 c-45 -49 -115 -115 -156 -147 -52 -39 -75 -63 -75 -78 1
-49 39 -65 87 -36 67 39 173 134 233 208 59 73 72 106 48 130 -28 28 -56 12
-137 -77z"/>
<path d="M692 2348 c-20 -20 -14 -55 16 -90 47 -55 119 -162 127 -188 4 -14
12 -31 17 -37 13 -16 50 -17 66 -1 17 17 15 73 -4 110 -22 42 -122 179 -146
201 -23 20 -59 22 -76 5z"/>
</g>
</svg>
