<?xml version="1.0" standalone="no"?>
<!DOCTYPE svg PUBLIC "-//W3C//DTD SVG 20010904//EN"
 "http://www.w3.org/TR/2001/REC-SVG-20010904/DTD/svg10.dtd">
<svg version="1.0" xmlns="http://www.w3.org/2000/svg"
 width="248.000000pt" height="248.000000pt" viewBox="0 0 248.000000 248.000000"
 preserveAspectRatio="xMidYMid meet">
<metadata>
Created by potrace 1.10, written by Peter Selinger 2001-2011
</metadata>
<g transform="translate(0.000000,248.000000) scale(0.100000,-0.100000)"
fill="#000000" stroke="none">
<path d="M1410 2108 c-41 -5 -145 -18 -230 -29 -628 -80 -629 -80 -647 -105
-17 -23 -16 -29 3 -95 13 -42 15 -75 9 -149 -18 -251 -82 -485 -176 -641 -46
-76 -48 -93 -15 -114 32 -21 55 -9 94 48 110 161 192 477 192 744 0 79 3 143
8 143 9 0 330 41 537 68 289 39 352 44 568 49 214 6 219 6 229 28 7 16 7 29
-1 44 -11 21 -16 21 -254 20 -133 -1 -276 -6 -317 -11z"/>
<path d="M1035 1624 c-38 -7 -122 -16 -185 -19 -63 -4 -125 -8 -137 -11 -44
-9 -54 -72 -14 -94 29 -15 418 24 485 50 29 11 41 42 26 70 -13 24 -63 25
-175 4z"/>
</g>
</svg>
