<?xml version="1.0" standalone="no"?>
<!DOCTYPE svg PUBLIC "-//W3C//DTD SVG 20010904//EN"
 "http://www.w3.org/TR/2001/REC-SVG-20010904/DTD/svg10.dtd">
<svg version="1.0" xmlns="http://www.w3.org/2000/svg"
 width="248.000000pt" height="248.000000pt" viewBox="0 0 248.000000 248.000000"
 preserveAspectRatio="xMidYMid meet">
<metadata>
Created by potrace 1.10, written by Peter Selinger 2001-2011
</metadata>
<g transform="translate(0.000000,248.000000) scale(0.100000,-0.100000)"
fill="#000000" stroke="none">
<path d="M1342 2348 c-15 -15 -15 -107 -1 -182 7 -31 10 -58 8 -60 -4 -4 -193
-30 -514 -71 -247 -32 -286 -40 -302 -61 -17 -23 -16 -29 3 -95 13 -42 15 -75
9 -149 -18 -251 -82 -485 -176 -641 -46 -76 -48 -93 -15 -114 32 -21 55 -9 94
48 110 161 192 477 192 744 0 79 3 143 8 143 10 0 368 46 542 70 193 26 187
27 195 -12 25 -115 134 -386 188 -468 200 -299 390 -507 579 -633 63 -42 124
-77 135 -77 44 0 55 31 61 169 5 141 0 161 -43 161 -35 0 -46 -23 -52 -110 -3
-44 -8 -80 -10 -80 -7 0 -89 55 -131 89 -80 64 -281 290 -376 425 -103 145
-159 257 -221 444 -26 78 -35 116 -28 123 7 7 105 13 247 16 222 6 238 7 247
26 8 14 8 27 0 44 l-11 24 -257 -2 -258 -1 -20 108 c-11 60 -24 115 -28 122
-10 15 -49 16 -65 0z"/>
<path d="M1035 1624 c-38 -7 -122 -16 -185 -19 -63 -4 -125 -8 -137 -11 -44
-9 -54 -72 -14 -94 29 -15 418 24 485 50 29 11 41 42 26 70 -13 24 -63 25
-175 4z"/>
<path d="M890 1378 c-200 -24 -199 -24 -212 -54 -10 -20 -8 -29 10 -53 21 -28
54 -143 67 -231 10 -69 15 -81 38 -89 15 -6 34 -3 57 9 19 10 89 25 155 35 66
10 127 21 135 26 26 13 62 133 97 322 9 47 -9 57 -106 56 -47 -1 -156 -10
-241 -21z m226 -125 c-6 -40 -34 -142 -39 -143 -14 -4 -188 -29 -203 -30 -18
0 -23 11 -40 83 -10 45 -19 87 -19 92 0 9 200 40 279 44 28 1 28 1 22 -46z"/>
</g>
</svg>
