<?xml version="1.0" standalone="no"?>
<!DOCTYPE svg PUBLIC "-//W3C//DTD SVG 20010904//EN"
 "http://www.w3.org/TR/2001/REC-SVG-20010904/DTD/svg10.dtd">
<svg version="1.0" xmlns="http://www.w3.org/2000/svg"
 width="248.000000pt" height="248.000000pt" viewBox="0 0 248.000000 248.000000"
 preserveAspectRatio="xMidYMid meet">
<metadata>
Created by potrace 1.10, written by Peter Selinger 2001-2011
</metadata>
<g transform="translate(0.000000,248.000000) scale(0.100000,-0.100000)"
fill="#000000" stroke="none">
<path d="M1192 2358 c-8 -8 -12 -61 -12 -174 0 -96 -4 -165 -10 -169 -5 -3
-67 -10 -137 -15 -157 -12 -426 -37 -512 -48 -69 -9 -108 -39 -95 -71 8 -21
20 -100 35 -226 16 -143 47 -316 59 -330 21 -25 115 -37 217 -26 54 6 155 12
226 14 113 4 127 2 123 -12 -2 -9 -12 -52 -21 -96 -24 -116 -101 -346 -150
-450 -60 -125 -148 -252 -255 -368 -59 -64 -195 -171 -232 -182 -51 -16 -75
-64 -46 -93 56 -56 280 95 432 293 101 132 156 220 208 338 55 126 126 347
153 480 15 73 22 90 40 97 23 9 259 26 533 38 121 6 166 12 176 22 26 27 87
372 89 503 3 161 16 152 -226 152 -106 0 -260 -4 -343 -8 l-152 -8 -3 154 c-4
135 -6 158 -23 176 -21 23 -56 27 -74 9z m714 -525 c-4 -54 -19 -157 -33 -230
l-27 -131 -125 -7 c-170 -8 -394 -24 -457 -31 l-52 -7 8 44 c4 24 18 133 31
242 l24 197 35 1 c19 1 82 5 140 9 58 3 185 7 284 8 l178 2 -6 -97z m-746 25
c0 -55 -47 -418 -55 -426 -3 -3 -76 -9 -163 -13 -86 -4 -198 -11 -248 -15
l-91 -7 -7 39 c-7 43 -34 266 -43 356 l-5 56 43 6 c77 11 450 42 522 44 l47 2
0 -42z"/>
</g>
</svg>
