<?xml version="1.0" standalone="no"?>
<!DOCTYPE svg PUBLIC "-//W3C//DTD SVG 20010904//EN"
 "http://www.w3.org/TR/2001/REC-SVG-20010904/DTD/svg10.dtd">
<svg version="1.0" xmlns="http://www.w3.org/2000/svg"
 width="248.000000pt" height="248.000000pt" viewBox="0 0 248.000000 248.000000"
 preserveAspectRatio="xMidYMid meet">
<metadata>
Created by potrace 1.10, written by Peter Selinger 2001-2011
</metadata>
<g transform="translate(0.000000,248.000000) scale(0.100000,-0.100000)"
fill="#000000" stroke="none">
<path d="M292 2208 c-16 -16 -15 -50 1 -70 6 -9 32 -28 57 -43 25 -16 59 -40
75 -54 17 -14 63 -48 103 -75 64 -44 74 -48 97 -38 33 15 34 64 3 92 -32 27
-120 91 -207 150 -74 50 -107 60 -129 38z"/>
<path d="M152 1608 c-17 -17 -15 -53 6 -70 9 -9 53 -34 97 -57 44 -23 109 -60
144 -82 66 -42 105 -48 124 -18 22 35 0 64 -85 116 -200 121 -255 142 -286
111z"/>
</g>
</svg>
