<?xml version="1.0" standalone="no"?>
<!DOCTYPE svg PUBLIC "-//W3C//DTD SVG 20010904//EN"
 "http://www.w3.org/TR/2001/REC-SVG-20010904/DTD/svg10.dtd">
<svg version="1.0" xmlns="http://www.w3.org/2000/svg"
 width="248.000000pt" height="248.000000pt" viewBox="0 0 248.000000 248.000000"
 preserveAspectRatio="xMidYMid meet">
<metadata>
Created by potrace 1.10, written by Peter Selinger 2001-2011
</metadata>
<g transform="translate(0.000000,248.000000) scale(0.100000,-0.100000)"
fill="#000000" stroke="none">
<path d="M735 1934 c-69 -9 -239 -35 -374 -55 -114 -18 -149 -27 -170 -45
l-26 -22 -2 -559 c-3 -611 -3 -608 52 -608 51 0 55 22 55 298 l0 247 28 0 c16
0 51 7 78 15 27 8 52 15 56 15 4 0 5 -111 2 -247 -6 -278 -3 -298 51 -298 47
0 55 28 55 210 0 88 3 203 6 256 l7 96 71 17 c39 9 85 16 102 16 l30 0 -3
-287 c-4 -320 -2 -338 52 -338 49 0 55 25 55 253 0 111 5 314 12 450 17 383
17 548 -3 568 -17 17 -80 25 -134 18z m47 -136 c3 -34 -9 -272 -18 -365 -5
-49 -7 -53 -32 -53 -15 0 -61 -8 -102 -18 l-75 -18 4 225 c1 125 5 228 7 230
5 5 132 26 181 29 29 2 32 0 35 -30z m-333 -215 c-1 -115 -4 -219 -8 -232 -7
-25 -40 -39 -133 -54 l-38 -6 0 234 0 234 33 6 c17 3 55 9 82 14 28 5 53 9 58
10 4 0 7 -92 6 -206z"/>
</g>
</svg>
