<?xml version="1.0" standalone="no"?>
<!DOCTYPE svg PUBLIC "-//W3C//DTD SVG 20010904//EN"
 "http://www.w3.org/TR/2001/REC-SVG-20010904/DTD/svg10.dtd">
<svg version="1.0" xmlns="http://www.w3.org/2000/svg"
 width="248.000000pt" height="248.000000pt" viewBox="0 0 248.000000 248.000000"
 preserveAspectRatio="xMidYMid meet">
<metadata>
Created by potrace 1.10, written by Peter Selinger 2001-2011
</metadata>
<g transform="translate(0.000000,248.000000) scale(0.100000,-0.100000)"
fill="#000000" stroke="none">
<path d="M292 2208 c-16 -16 -15 -50 1 -70 6 -9 32 -28 57 -43 25 -16 59 -40
75 -54 17 -14 63 -48 103 -75 64 -44 74 -48 97 -38 33 15 34 64 3 92 -32 27
-120 91 -207 150 -74 50 -107 60 -129 38z"/>
<path d="M1858 2210 c-92 -5 -135 -12 -153 -24 -44 -29 -27 -87 27 -89 13 0
114 3 226 7 l202 9 0 -100 0 -100 -46 -7 c-26 -3 -88 -6 -138 -6 -115 -1 -280
-22 -300 -39 -24 -20 -20 -58 8 -76 20 -14 37 -14 108 -6 45 5 147 12 226 15
l142 6 0 -114 0 -113 -122 -11 c-68 -7 -170 -12 -228 -12 -80 0 -111 -4 -128
-16 -30 -21 -29 -59 4 -80 22 -15 44 -16 187 -9 368 17 370 17 384 45 10 19
13 103 11 357 -3 304 -5 334 -21 350 -15 15 -37 18 -140 19 -67 1 -179 -2
-249 -6z"/>
<path d="M1134 2186 c-105 -7 -167 -16 -178 -25 -24 -20 -20 -58 9 -77 23 -15
44 -15 230 -4 113 8 208 11 211 7 3 -3 8 -52 11 -109 l6 -104 -109 -12 c-60
-6 -163 -14 -229 -18 -78 -4 -128 -11 -142 -20 -30 -19 -30 -59 0 -79 24 -15
78 -14 410 12 l67 5 0 -95 0 -94 -102 -7 c-250 -15 -405 -31 -421 -45 -25 -20
-21 -58 8 -77 22 -14 39 -15 162 -4 76 7 202 15 281 19 163 7 166 8 178 90 4
25 4 174 1 330 -5 238 -8 287 -21 300 -21 20 -158 23 -372 7z"/>
<path d="M152 1608 c-17 -17 -15 -53 6 -70 9 -8 51 -32 92 -53 41 -20 82 -43
90 -50 36 -30 131 -76 151 -73 29 4 43 29 36 60 -5 17 -31 40 -89 75 -188 115
-256 141 -286 111z"/>
<path d="M1176 1289 c-24 -33 -119 -136 -210 -230 -166 -170 -185 -196 -154
-227 29 -29 60 -13 154 80 l94 92 -6 -410 c-7 -449 -7 -446 51 -447 47 0 55
23 55 163 l0 127 145 7 c80 4 171 11 202 16 32 6 70 12 86 15 l27 5 0 -118 c0
-137 10 -167 55 -167 45 0 55 30 55 171 l0 122 179 7 c100 4 190 13 203 19 16
8 23 20 23 41 0 51 -26 56 -227 49 l-178 -7 0 70 0 70 158 7 c178 8 207 17
207 61 0 49 -27 55 -207 48 l-158 -6 0 90 0 91 31 6 c17 3 95 11 173 17 164
12 191 21 191 64 0 57 -27 59 -341 29 l-71 -7 -6 68 c-7 73 -26 105 -62 105
-36 0 -45 -20 -45 -101 l0 -76 -82 -7 c-46 -4 -117 -11 -158 -16 -141 -17
-190 -19 -190 -7 0 6 18 32 39 57 76 90 99 148 69 178 -27 27 -57 13 -102 -49z
m444 -353 l0 -83 -62 -6 c-35 -4 -136 -10 -226 -13 l-163 -7 3 79 3 79 80 8
c44 4 114 11 155 16 41 5 105 9 143 10 l67 1 0 -84z m0 -274 l0 -79 -79 -12
c-43 -6 -147 -14 -230 -18 l-151 -6 0 85 0 85 173 10 c94 5 198 10 230 11 l57
2 0 -78z"/>
<path d="M366 543 c-13 -27 -53 -106 -90 -177 -67 -131 -81 -187 -54 -214 27
-27 88 0 88 39 0 13 36 86 129 264 46 90 39 135 -21 135 -23 0 -32 -8 -52 -47z"/>
</g>
</svg>
