<?xml version="1.0" standalone="no"?>
<!DOCTYPE svg PUBLIC "-//W3C//DTD SVG 20010904//EN"
 "http://www.w3.org/TR/2001/REC-SVG-20010904/DTD/svg10.dtd">
<svg version="1.0" xmlns="http://www.w3.org/2000/svg"
 width="248.000000pt" height="248.000000pt" viewBox="0 0 248.000000 248.000000"
 preserveAspectRatio="xMidYMid meet">
<metadata>
Created by potrace 1.10, written by Peter Selinger 2001-2011
</metadata>
<g transform="translate(0.000000,248.000000) scale(0.100000,-0.100000)"
fill="#000000" stroke="none">
<path d="M1815 2360 c-27 -4 -122 -13 -210 -19 -88 -7 -170 -16 -182 -21 -14
-6 -40 -44 -71 -107 -27 -54 -79 -141 -115 -193 -269 -386 -290 -425 -245
-454 33 -20 70 5 118 81 82 131 133 203 141 203 13 0 44 -33 118 -125 36 -45
83 -103 105 -128 37 -45 38 -48 25 -79 -7 -17 -38 -59 -69 -92 -30 -34 -69
-79 -85 -101 -16 -22 -75 -87 -130 -145 -55 -58 -122 -130 -150 -161 -27 -31
-74 -73 -102 -93 -42 -30 -53 -44 -53 -65 0 -65 57 -68 132 -7 29 24 105 99
168 167 63 68 129 139 147 157 18 18 51 57 72 85 21 29 51 63 66 77 15 14 40
44 57 68 16 23 33 42 38 42 6 0 27 -17 48 -38 64 -66 255 -237 292 -262 19
-13 56 -42 81 -64 25 -23 84 -63 130 -91 164 -99 229 -117 251 -71 16 36 4 54
-49 79 -65 31 -241 135 -249 148 -3 6 -39 35 -80 65 -68 50 -106 85 -301 268
-74 69 -74 67 -2 173 113 168 222 395 268 558 40 140 5 170 -164 145z m60
-132 c-21 -95 -164 -387 -254 -517 l-48 -70 -54 67 c-29 37 -86 104 -126 150
-40 45 -73 86 -73 91 0 5 20 38 44 74 24 36 59 95 76 131 l32 65 52 5 c28 3
110 12 181 19 193 21 178 23 170 -15z"/>
<path d="M735 1934 c-69 -9 -239 -35 -374 -55 -114 -18 -149 -27 -170 -45
l-26 -22 0 -570 0 -570 25 -27 c37 -40 49 -43 110 -34 349 51 455 60 477 38
17 -17 57 -6 70 21 9 18 13 85 13 228 0 111 5 314 12 450 17 383 17 548 -3
568 -17 17 -80 25 -134 18z m41 -286 c-3 -101 -9 -202 -12 -225 -6 -38 -9 -43
-33 -43 -14 0 -60 -8 -101 -18 l-75 -18 4 225 c1 125 5 228 7 230 5 6 133 26
183 29 l34 3 -7 -183z m-327 -65 c-1 -115 -4 -219 -8 -232 -7 -25 -40 -39
-133 -54 l-38 -6 0 234 0 234 33 6 c17 3 55 9 82 14 28 5 53 9 58 10 4 0 7
-92 6 -206z m307 -390 c-3 -42 -6 -153 -6 -248 l0 -172 -77 -6 c-43 -4 -90
-10 -105 -13 l-28 -6 0 148 c0 82 3 192 6 245 l7 96 61 15 c34 9 81 16 105 17
l44 1 -7 -77z m-322 -205 c-3 -128 -7 -238 -9 -244 -2 -6 -27 -14 -57 -18 -29
-4 -63 -10 -75 -13 l-23 -5 0 241 0 241 33 1 c17 0 50 6 72 14 22 7 46 13 53
14 10 1 11 -48 6 -231z"/>
<path d="M1570 899 c-74 -5 -168 -13 -208 -19 -40 -5 -102 -10 -137 -10 -52 0
-69 -4 -91 -23 l-27 -23 2 -139 c3 -191 17 -419 31 -483 8 -34 19 -58 33 -67
40 -26 149 -34 472 -36 l320 -2 11 24 c7 13 19 92 28 174 10 83 24 213 33 290
24 207 23 269 -5 297 -21 22 -31 23 -175 24 -83 1 -213 -2 -287 -7z m377 -161
c-3 -35 -10 -103 -16 -153 -6 -49 -15 -133 -21 -185 -6 -52 -13 -116 -16 -142
l-6 -48 -301 0 c-166 0 -312 3 -324 6 -28 8 -31 37 -41 325 l-7 216 100 12
c137 17 322 28 494 30 l144 1 -6 -62z"/>
</g>
</svg>
