<?xml version="1.0" standalone="no"?>
<!DOCTYPE svg PUBLIC "-//W3C//DTD SVG 20010904//EN"
 "http://www.w3.org/TR/2001/REC-SVG-20010904/DTD/svg10.dtd">
<svg version="1.0" xmlns="http://www.w3.org/2000/svg"
 width="248.000000pt" height="248.000000pt" viewBox="0 0 248.000000 248.000000"
 preserveAspectRatio="xMidYMid meet">
<metadata>
Created by potrace 1.10, written by Peter Selinger 2001-2011
</metadata>
<g transform="translate(0.000000,248.000000) scale(0.100000,-0.100000)"
fill="#000000" stroke="none">
<path d="M1402 2308 c-5 -7 -30 -54 -54 -103 -25 -50 -75 -133 -111 -185 -269
-386 -290 -425 -245 -454 33 -20 70 5 118 81 25 40 65 101 90 136 247 353 313
480 268 525 -16 16 -53 15 -66 0z"/>
<path d="M735 1934 c-69 -9 -239 -35 -374 -55 -114 -18 -149 -27 -170 -45
l-26 -22 0 -570 0 -570 25 -27 c37 -40 49 -43 110 -34 349 51 455 60 477 38
17 -17 57 -6 70 21 9 18 13 85 13 228 0 111 5 314 12 450 17 383 17 548 -3
568 -17 17 -80 25 -134 18z m41 -286 c-3 -101 -9 -202 -12 -225 -6 -38 -9 -43
-33 -43 -14 0 -60 -8 -101 -18 l-75 -18 4 225 c1 125 5 228 7 230 5 6 133 26
183 29 l34 3 -7 -183z m-327 -65 c-1 -115 -4 -219 -8 -232 -7 -25 -40 -39
-133 -54 l-38 -6 0 234 0 234 33 6 c17 3 55 9 82 14 28 5 53 9 58 10 4 0 7
-92 6 -206z m307 -390 c-3 -42 -6 -153 -6 -248 l0 -172 -77 -6 c-43 -4 -90
-10 -105 -13 l-28 -6 0 148 c0 82 3 192 6 245 l7 96 61 15 c34 9 81 16 105 17
l44 1 -7 -77z m-322 -205 c-3 -128 -7 -238 -9 -244 -2 -6 -27 -14 -57 -18 -29
-4 -63 -10 -75 -13 l-23 -5 0 241 0 241 33 1 c17 0 50 6 72 14 22 7 46 13 53
14 10 1 11 -48 6 -231z"/>
</g>
</svg>
