<?xml version="1.0" standalone="no"?>
<!DOCTYPE svg PUBLIC "-//W3C//DTD SVG 20010904//EN"
 "http://www.w3.org/TR/2001/REC-SVG-20010904/DTD/svg10.dtd">
<svg version="1.0" xmlns="http://www.w3.org/2000/svg"
 width="248.000000pt" height="248.000000pt" viewBox="0 0 248.000000 248.000000"
 preserveAspectRatio="xMidYMid meet">
<metadata>
Created by potrace 1.10, written by Peter Selinger 2001-2011
</metadata>
<g transform="translate(0.000000,248.000000) scale(0.100000,-0.100000)"
fill="#000000" stroke="none">
<path d="M1242 2408 c-6 -7 -12 -63 -15 -124 -2 -62 -8 -117 -11 -123 -4 -6
-25 -11 -46 -11 -71 0 -516 -47 -585 -62 -60 -13 -75 -23 -75 -53 0 -36 24
-48 83 -42 28 3 115 12 192 21 206 22 355 36 394 36 l34 0 -6 -92 c-3 -51 -9
-110 -13 -130 -8 -44 7 -68 41 -68 45 0 58 31 67 163 5 67 13 126 18 130 7 8
148 17 630 43 63 3 121 11 128 16 18 15 15 52 -6 71 -14 13 -34 15 -102 12
-204 -11 -501 -25 -570 -28 l-75 -2 -2 113 c-1 69 -7 119 -14 128 -14 17 -53
18 -67 2z"/>
</g>
</svg>
