<?xml version="1.0" standalone="no"?>
<!DOCTYPE svg PUBLIC "-//W3C//DTD SVG 20010904//EN"
 "http://www.w3.org/TR/2001/REC-SVG-20010904/DTD/svg10.dtd">
<svg version="1.0" xmlns="http://www.w3.org/2000/svg"
 width="248.000000pt" height="248.000000pt" viewBox="0 0 248.000000 248.000000"
 preserveAspectRatio="xMidYMid meet">
<metadata>
Created by potrace 1.10, written by Peter Selinger 2001-2011
</metadata>
<g transform="translate(0.000000,248.000000) scale(0.100000,-0.100000)"
fill="#000000" stroke="none">
<path d="M1242 2408 c-6 -7 -12 -63 -15 -124 -2 -62 -8 -117 -11 -123 -4 -6
-25 -11 -46 -11 -71 0 -516 -47 -585 -62 -60 -13 -75 -23 -75 -53 0 -36 24
-48 83 -42 28 3 115 12 192 21 206 22 355 36 394 36 l34 0 -6 -102 c-3 -55
-10 -105 -15 -110 -5 -5 -65 -16 -133 -24 -163 -19 -241 -34 -258 -50 -12 -11
-12 -37 3 -181 10 -102 18 -299 20 -505 3 -186 7 -342 11 -348 10 -15 61 -12
75 5 10 12 11 96 6 398 -3 210 -9 421 -12 468 -6 79 -5 87 12 93 24 7 255 35
354 42 41 3 116 9 167 15 111 11 260 12 266 2 3 -5 -3 -89 -14 -188 -18 -175
-34 -368 -44 -530 -3 -44 -8 -110 -11 -148 -7 -75 3 -97 42 -97 50 0 50 0 84
480 10 134 32 349 49 465 9 61 2 97 -20 111 -14 8 -320 7 -423 -3 l-69 -6 7
104 c4 57 11 108 16 112 7 8 148 17 630 43 63 3 121 11 128 16 18 15 15 52 -6
71 -14 13 -34 15 -102 12 -204 -11 -501 -25 -570 -28 l-75 -2 -2 113 c-1 69
-7 119 -14 128 -14 17 -53 18 -67 2z"/>
</g>
</svg>
