<?xml version="1.0" standalone="no"?>
<!DOCTYPE svg PUBLIC "-//W3C//DTD SVG 20010904//EN"
 "http://www.w3.org/TR/2001/REC-SVG-20010904/DTD/svg10.dtd">
<svg version="1.0" xmlns="http://www.w3.org/2000/svg"
 width="248.000000pt" height="248.000000pt" viewBox="0 0 248.000000 248.000000"
 preserveAspectRatio="xMidYMid meet">
<metadata>
Created by potrace 1.10, written by Peter Selinger 2001-2011
</metadata>
<g transform="translate(0.000000,248.000000) scale(0.100000,-0.100000)"
fill="#000000" stroke="none">
<path d="M1960 2193 c-19 -1 -143 -7 -275 -13 -300 -14 -519 -27 -655 -40
-369 -36 -482 -52 -507 -73 -18 -13 -16 -52 2 -67 16 -13 27 -13 215 10 84 10
192 20 425 40 103 8 407 26 795 47 111 5 130 12 130 48 0 31 -31 56 -66 53
-16 -2 -45 -4 -64 -5z"/>
</g>
</svg>
