<?xml version="1.0" standalone="no"?>
<!DOCTYPE svg PUBLIC "-//W3C//DTD SVG 20010904//EN"
 "http://www.w3.org/TR/2001/REC-SVG-20010904/DTD/svg10.dtd">
<svg version="1.0" xmlns="http://www.w3.org/2000/svg"
 width="248.000000pt" height="248.000000pt" viewBox="0 0 248.000000 248.000000"
 preserveAspectRatio="xMidYMid meet">
<metadata>
Created by potrace 1.10, written by Peter Selinger 2001-2011
</metadata>
<g transform="translate(0.000000,248.000000) scale(0.100000,-0.100000)"
fill="#000000" stroke="none">
<path d="M1406 2338 c-13 -18 -16 -54 -16 -189 l0 -166 -61 -7 c-34 -3 -97 -6
-140 -6 l-79 0 0 64 c0 35 -5 110 -11 167 -11 110 -24 139 -64 139 -43 0 -46
-16 -39 -203 l7 -176 -24 -5 c-13 -3 -64 -10 -114 -15 -290 -32 -334 -41 -355
-66 -10 -13 -11 -33 -2 -98 7 -45 16 -176 22 -292 20 -409 30 -465 84 -465 44
0 50 20 42 148 -4 64 -10 135 -13 158 l-5 40 128 17 c71 9 157 19 192 22 l62
6 0 -164 c0 -180 5 -200 55 -200 50 1 55 20 55 204 l0 166 46 7 c26 3 84 6
129 6 l83 0 4 -163 c3 -134 7 -168 21 -190 21 -32 71 -38 82 -9 4 9 6 99 5
198 l-1 181 38 6 c21 3 104 9 184 13 l147 7 -4 -49 c-3 -27 -9 -89 -14 -139
-23 -215 -15 -269 39 -263 47 5 49 17 81 413 5 66 15 156 20 200 6 44 12 138
13 210 3 166 13 158 -208 151 -88 -3 -190 -9 -227 -12 l-68 -7 0 169 c0 185
-7 214 -55 214 -13 0 -31 -10 -39 -22z m490 -555 c-4 -60 -9 -129 -12 -154
l-6 -45 -181 -12 c-100 -6 -183 -9 -185 -7 -2 2 -7 71 -10 154 l-5 150 34 5
c42 7 122 12 263 14 l109 2 -7 -107z m-502 -74 c4 -89 6 -162 4 -164 -2 -1
-65 -6 -140 -10 l-138 -7 0 105 c0 57 -3 132 -6 165 l-7 61 74 4 c41 1 104 4
140 5 l66 2 7 -161z m-390 119 c3 -13 6 -88 6 -168 l0 -146 -127 -13 c-71 -7
-153 -15 -185 -18 l-56 -5 -6 63 c-3 35 -9 107 -14 159 -5 52 -7 98 -5 103 2
4 22 7 43 7 22 0 61 5 87 10 47 10 173 26 224 29 20 1 28 -5 33 -21z"/>
</g>
</svg>
