<?xml version="1.0" standalone="no"?>
<!DOCTYPE svg PUBLIC "-//W3C//DTD SVG 20010904//EN"
 "http://www.w3.org/TR/2001/REC-SVG-20010904/DTD/svg10.dtd">
<svg version="1.0" xmlns="http://www.w3.org/2000/svg"
 width="248.000000pt" height="248.000000pt" viewBox="0 0 248.000000 248.000000"
 preserveAspectRatio="xMidYMid meet">
<metadata>
Created by potrace 1.10, written by Peter Selinger 2001-2011
</metadata>
<g transform="translate(0.000000,248.000000) scale(0.100000,-0.100000)"
fill="#000000" stroke="none">
<path d="M710 2214 c-69 -13 -186 -36 -260 -50 -74 -14 -147 -33 -163 -40 -37
-20 -53 -54 -38 -83 9 -16 12 -148 10 -471 -1 -485 -1 -484 50 -478 54 6 56
21 56 506 l0 443 35 9 c20 5 89 19 155 30 185 31 318 60 332 72 17 13 17 53 1
66 -26 20 -56 20 -178 -4z"/>
</g>
</svg>
