<?xml version="1.0" standalone="no"?>
<!DOCTYPE svg PUBLIC "-//W3C//DTD SVG 20010904//EN"
 "http://www.w3.org/TR/2001/REC-SVG-20010904/DTD/svg10.dtd">
<svg version="1.0" xmlns="http://www.w3.org/2000/svg"
 width="248.000000pt" height="248.000000pt" viewBox="0 0 248.000000 248.000000"
 preserveAspectRatio="xMidYMid meet">
<metadata>
Created by potrace 1.10, written by Peter Selinger 2001-2011
</metadata>
<g transform="translate(0.000000,248.000000) scale(0.100000,-0.100000)"
fill="#000000" stroke="none">
<path d="M1175 2140 c-115 -16 -311 -30 -397 -30 -58 0 -91 -4 -98 -12 -5 -7
-36 -65 -68 -128 -82 -161 -153 -265 -281 -410 -61 -69 -113 -135 -117 -148
-7 -27 19 -62 47 -62 17 0 34 16 149 145 48 53 132 158 155 193 5 7 375 -178
375 -188 0 -24 -82 -168 -162 -287 -128 -188 -274 -337 -398 -405 -27 -15 -31
-23 -28 -50 2 -25 9 -35 30 -42 43 -15 126 42 268 184 96 96 145 155 213 257
136 205 328 606 398 830 11 34 24 65 29 68 19 12 11 63 -12 79 -12 9 -27 15
-33 15 -5 -1 -37 -5 -70 -9z m-18 -137 c-12 -72 -159 -408 -175 -400 -4 2 -85
41 -179 87 -95 46 -173 88 -173 94 0 6 17 39 39 74 21 34 47 81 57 105 10 23
23 45 29 49 5 4 64 8 130 9 66 1 149 5 185 9 36 4 71 8 79 8 10 2 12 -7 8 -35z"/>
</g>
</svg>
