<?xml version="1.0" standalone="no"?>
<!DOCTYPE svg PUBLIC "-//W3C//DTD SVG 20010904//EN"
 "http://www.w3.org/TR/2001/REC-SVG-20010904/DTD/svg10.dtd">
<svg version="1.0" xmlns="http://www.w3.org/2000/svg"
 width="248.000000pt" height="248.000000pt" viewBox="0 0 248.000000 248.000000"
 preserveAspectRatio="xMidYMid meet">
<metadata>
Created by potrace 1.10, written by Peter Selinger 2001-2011
</metadata>
<g transform="translate(0.000000,248.000000) scale(0.100000,-0.100000)"
fill="#000000" stroke="none">
<path d="M1181 2436 c-6 -7 -14 -77 -18 -165 -3 -83 -9 -154 -13 -156 -18 -11
-396 -37 -477 -32 -64 4 -97 2 -108 -7 -20 -14 -23 -62 -6 -79 13 -13 300 -11
470 4 77 7 117 7 124 0 7 -7 6 -90 -1 -257 -12 -263 -11 -274 33 -274 51 0 55
19 61 271 3 129 7 244 9 256 4 17 14 22 52 27 27 3 109 13 183 21 267 31 395
48 417 56 33 12 41 56 14 82 -19 20 -25 20 -78 9 -32 -6 -98 -16 -148 -22 -49
-5 -166 -19 -258 -30 -93 -11 -172 -18 -177 -15 -4 3 -5 70 -3 150 6 155 2
175 -42 175 -12 0 -28 -6 -34 -14z"/>
</g>
</svg>
