<?xml version="1.0" standalone="no"?>
<!DOCTYPE svg PUBLIC "-//W3C//DTD SVG 20010904//EN"
 "http://www.w3.org/TR/2001/REC-SVG-20010904/DTD/svg10.dtd">
<svg version="1.0" xmlns="http://www.w3.org/2000/svg"
 width="248.000000pt" height="248.000000pt" viewBox="0 0 248.000000 248.000000"
 preserveAspectRatio="xMidYMid meet">
<metadata>
Created by potrace 1.10, written by Peter Selinger 2001-2011
</metadata>
<g transform="translate(0.000000,248.000000) scale(0.100000,-0.100000)"
fill="#000000" stroke="none">
<path d="M1181 2436 c-7 -8 -14 -74 -18 -165 -3 -84 -9 -154 -13 -156 -18 -11
-396 -37 -477 -32 -64 4 -97 2 -108 -7 -20 -14 -23 -62 -6 -79 12 -12 274 -12
416 -1 l70 6 -55 -54 c-68 -65 -252 -224 -300 -259 -73 -52 -247 -158 -291
-177 -28 -12 -48 -28 -51 -40 -8 -29 18 -62 49 -62 89 0 496 289 700 498 39
39 54 50 59 39 3 -8 0 -112 -6 -232 -11 -232 -9 -245 35 -245 48 0 53 21 61
238 4 111 10 202 14 202 8 0 150 -81 230 -132 30 -19 80 -45 110 -57 30 -13
78 -36 105 -51 64 -36 221 -101 305 -128 69 -22 277 -72 297 -72 18 0 43 29
43 50 0 31 -38 48 -185 86 -76 19 -168 46 -204 60 -99 39 -380 174 -426 204
-22 14 -69 43 -105 63 -90 49 -137 85 -119 91 8 2 86 12 174 21 303 32 428 52
442 71 19 25 16 48 -7 69 -19 17 -27 18 -78 7 -31 -6 -97 -16 -147 -22 -49 -5
-166 -19 -258 -30 -93 -11 -172 -18 -177 -15 -4 3 -5 70 -3 150 6 155 2 175
-42 175 -12 0 -28 -6 -34 -14z"/>
<path d="M832 1438 c-9 -9 -12 -145 -12 -550 l0 -538 24 -11 c17 -8 29 -8 45
0 l21 12 0 537 c0 567 0 562 -45 562 -12 0 -26 -5 -33 -12z"/>
</g>
</svg>
