<?xml version="1.0" standalone="no"?>
<!DOCTYPE svg PUBLIC "-//W3C//DTD SVG 20010904//EN"
 "http://www.w3.org/TR/2001/REC-SVG-20010904/DTD/svg10.dtd">
<svg version="1.0" xmlns="http://www.w3.org/2000/svg"
 width="248.000000pt" height="248.000000pt" viewBox="0 0 248.000000 248.000000"
 preserveAspectRatio="xMidYMid meet">
<metadata>
Created by potrace 1.10, written by Peter Selinger 2001-2011
</metadata>
<g transform="translate(0.000000,248.000000) scale(0.100000,-0.100000)"
fill="#000000" stroke="none">
<path d="M536 2338 c-13 -18 -15 -49 -10 -187 3 -91 1 -213 -3 -271 l-8 -104
-60 -12 c-33 -7 -112 -20 -175 -29 -127 -19 -160 -33 -160 -70 0 -43 37 -58
111 -46 141 23 245 42 267 47 l22 6 0 -271 c0 -161 -4 -280 -10 -291 -5 -10
-26 -24 -45 -30 -20 -7 -88 -36 -150 -66 -95 -45 -116 -59 -121 -81 -8 -32 6
-57 34 -61 12 -2 75 22 140 52 65 31 124 56 130 56 9 0 12 -85 12 -345 0 -317
-4 -369 -25 -336 -11 18 -173 111 -193 111 -27 0 -44 -24 -40 -57 3 -28 8 -33
123 -103 34 -21 76 -59 102 -93 40 -52 49 -58 76 -55 60 6 61 13 67 502 l5
440 80 34 c165 71 246 112 251 127 3 8 3 26 0 40 -9 36 -45 41 -97 14 -24 -12
-86 -39 -136 -59 l-93 -38 0 263 0 262 78 16 c42 9 106 21 140 26 72 11 92 24
92 55 -1 60 -35 63 -271 20 l-35 -6 0 254 c1 227 -1 257 -17 281 -22 33 -60
36 -81 5z"/>
<path d="M1059 2154 c-24 -29 4 -426 32 -461 7 -8 24 -13 38 -11 35 4 53 42
46 98 -3 25 -10 111 -14 193 -7 108 -13 154 -25 172 -19 29 -57 33 -77 9z"/>
</g>
</svg>
