<?xml version="1.0" standalone="no"?>
<!DOCTYPE svg PUBLIC "-//W3C//DTD SVG 20010904//EN"
 "http://www.w3.org/TR/2001/REC-SVG-20010904/DTD/svg10.dtd">
<svg version="1.0" xmlns="http://www.w3.org/2000/svg"
 width="248.000000pt" height="248.000000pt" viewBox="0 0 248.000000 248.000000"
 preserveAspectRatio="xMidYMid meet">
<metadata>
Created by potrace 1.10, written by Peter Selinger 2001-2011
</metadata>
<g transform="translate(0.000000,248.000000) scale(0.100000,-0.100000)"
fill="#000000" stroke="none">
<path d="M605 2246 c-11 -16 -18 -56 -21 -118 -10 -185 -26 -343 -35 -349 -6
-3 -43 -12 -82 -18 -287 -49 -327 -62 -327 -106 0 -52 34 -56 212 -21 68 13
140 27 162 31 l38 6 -6 -103 c-3 -57 -8 -202 -11 -323 -3 -121 -10 -319 -15
-440 -5 -121 -10 -242 -10 -268 l0 -48 -31 36 c-46 52 -99 44 -99 -16 0 -17
15 -43 43 -74 23 -27 56 -69 72 -94 24 -37 37 -47 63 -49 51 -5 62 33 62 220
0 84 4 261 10 393 5 132 12 362 16 510 3 149 9 273 13 277 3 4 69 21 146 38
77 17 148 34 158 37 21 6 36 39 29 65 -10 38 -38 41 -145 14 -56 -13 -120 -28
-141 -32 l-39 -7 6 89 c18 243 20 343 7 359 -19 23 -57 18 -75 -9z"/>
</g>
</svg>
