<?xml version="1.0" standalone="no"?>
<!DOCTYPE svg PUBLIC "-//W3C//DTD SVG 20010904//EN"
 "http://www.w3.org/TR/2001/REC-SVG-20010904/DTD/svg10.dtd">
<svg version="1.0" xmlns="http://www.w3.org/2000/svg"
 width="248.000000pt" height="248.000000pt" viewBox="0 0 248.000000 248.000000"
 preserveAspectRatio="xMidYMid meet">
<metadata>
Created by potrace 1.10, written by Peter Selinger 2001-2011
</metadata>
<g transform="translate(0.000000,248.000000) scale(0.100000,-0.100000)"
fill="#000000" stroke="none">
<path d="M605 2246 c-11 -16 -18 -56 -21 -118 -10 -185 -26 -343 -35 -349 -6
-3 -43 -12 -82 -18 -287 -49 -327 -62 -327 -106 0 -52 34 -56 212 -21 68 13
140 27 161 31 l38 6 -5 -128 c-3 -70 -9 -194 -12 -275 l-6 -147 -77 -31 c-42
-18 -112 -47 -156 -65 -44 -18 -109 -43 -145 -55 -36 -12 -73 -29 -83 -38 -33
-29 -16 -82 28 -82 25 0 178 50 222 74 43 22 203 79 208 74 2 -2 0 -91 -5
-198 -5 -107 -9 -221 -10 -253 l0 -58 -31 36 c-46 52 -99 44 -99 -16 0 -17 15
-43 43 -74 23 -27 56 -69 72 -94 24 -37 37 -47 63 -49 55 -5 59 17 66 401 4
186 9 344 12 351 2 6 50 32 106 56 105 47 133 74 112 108 -24 37 -40 37 -116
3 -40 -18 -79 -35 -86 -38 -12 -5 -13 38 -7 253 4 142 10 262 14 266 3 4 69
21 146 38 77 17 148 34 158 37 21 6 36 39 29 65 -10 38 -38 41 -145 14 -56
-13 -120 -28 -141 -32 l-39 -7 6 89 c18 243 20 343 7 359 -19 23 -57 18 -75
-9z"/>
<path d="M1612 1991 c-23 -14 -176 -315 -230 -451 -82 -205 -284 -605 -373
-736 -30 -45 -123 -204 -131 -225 -10 -26 10 -57 40 -64 45 -9 231 41 557 153
373 128 406 141 431 164 21 19 21 19 56 -29 44 -62 148 -230 148 -240 0 -5 20
-39 45 -78 25 -38 48 -78 51 -87 7 -22 51 -35 73 -21 28 18 19 83 -20 139 -19
27 -41 66 -51 86 -9 20 -38 70 -64 110 -27 40 -103 159 -171 263 -178 276
-199 305 -226 305 -30 0 -47 -18 -47 -48 0 -13 41 -87 90 -164 50 -77 90 -143
90 -146 0 -4 -24 -14 -53 -23 -28 -10 -158 -54 -287 -99 -264 -92 -475 -160
-497 -160 -12 0 -12 5 4 29 158 252 356 631 424 816 32 87 123 279 169 355 52
86 57 113 31 139 -23 23 -38 26 -59 12z"/>
</g>
</svg>
