<?xml version="1.0" standalone="no"?>
<!DOCTYPE svg PUBLIC "-//W3C//DTD SVG 20010904//EN"
 "http://www.w3.org/TR/2001/REC-SVG-20010904/DTD/svg10.dtd">
<svg version="1.0" xmlns="http://www.w3.org/2000/svg"
 width="248.000000pt" height="248.000000pt" viewBox="0 0 248.000000 248.000000"
 preserveAspectRatio="xMidYMid meet">
<metadata>
Created by potrace 1.10, written by Peter Selinger 2001-2011
</metadata>
<g transform="translate(0.000000,248.000000) scale(0.100000,-0.100000)"
fill="#000000" stroke="none">
<path d="M536 2338 c-13 -18 -15 -49 -10 -187 3 -91 1 -213 -3 -271 l-8 -104
-60 -12 c-33 -7 -112 -20 -175 -29 -127 -19 -160 -33 -160 -70 0 -43 37 -58
111 -46 142 24 245 42 267 47 l23 7 -7 -689 c-4 -379 -8 -691 -10 -693 -1 -1
-18 8 -36 21 -61 46 -155 98 -176 98 -27 0 -44 -24 -40 -57 3 -28 8 -33 123
-103 34 -21 76 -59 102 -93 40 -52 49 -58 76 -55 63 6 61 -17 70 823 4 417 9
760 10 762 2 1 52 11 112 23 169 31 177 34 188 51 15 24 0 66 -26 73 -19 4
-113 -7 -238 -30 l-35 -6 0 254 c1 227 -1 257 -17 281 -22 33 -60 36 -81 5z"/>
</g>
</svg>
