<?xml version="1.0" standalone="no"?>
<!DOCTYPE svg PUBLIC "-//W3C//DTD SVG 20010904//EN"
 "http://www.w3.org/TR/2001/REC-SVG-20010904/DTD/svg10.dtd">
<svg version="1.0" xmlns="http://www.w3.org/2000/svg"
 width="248.000000pt" height="248.000000pt" viewBox="0 0 248.000000 248.000000"
 preserveAspectRatio="xMidYMid meet">
<metadata>
Created by potrace 1.10, written by Peter Selinger 2001-2011
</metadata>
<g transform="translate(0.000000,248.000000) scale(0.100000,-0.100000)"
fill="#000000" stroke="none">
<path d="M536 2338 c-13 -18 -15 -49 -10 -187 3 -91 1 -213 -3 -271 l-8 -104
-60 -12 c-33 -7 -112 -20 -175 -29 -127 -19 -160 -33 -160 -70 0 -43 37 -58
111 -46 141 23 245 42 267 47 l22 6 0 -271 c0 -161 -4 -280 -10 -291 -5 -10
-26 -24 -45 -30 -20 -7 -88 -36 -150 -66 -95 -45 -116 -59 -121 -81 -8 -32 6
-57 34 -61 12 -2 75 22 140 52 65 31 124 56 130 56 9 0 12 -85 12 -345 0 -317
-4 -369 -25 -336 -11 18 -173 111 -193 111 -27 0 -44 -24 -40 -57 3 -28 8 -33
123 -103 34 -21 76 -59 102 -93 40 -52 49 -58 76 -55 60 6 61 13 67 502 l5
440 80 34 c165 71 246 112 251 127 3 8 3 26 0 40 -9 36 -45 41 -97 14 -24 -12
-86 -39 -136 -59 l-93 -38 0 263 0 262 78 16 c42 9 106 21 140 26 72 11 92 24
92 55 -1 60 -35 63 -271 20 l-35 -6 0 254 c1 227 -1 257 -17 281 -22 33 -60
36 -81 5z"/>
<path d="M1970 2240 c-47 -4 -195 -15 -330 -24 -523 -35 -571 -40 -585 -59 -9
-12 -11 -44 -8 -110 7 -147 31 -338 44 -354 19 -22 62 -12 76 18 10 21 11 50
2 131 -5 57 -9 133 -7 168 l3 65 85 6 c47 4 191 14 320 23 129 8 298 20 375
26 77 6 170 10 207 8 l66 -3 -59 -90 c-33 -49 -76 -106 -95 -125 -51 -53 -42
-100 18 -100 19 0 40 12 66 38 44 44 191 263 202 301 11 38 -4 67 -41 80 -34
12 -202 12 -339 1z"/>
<path d="M1599 2074 c-9 -11 -15 -48 -17 -106 l-4 -88 -41 0 c-66 0 -220 -31
-239 -48 -21 -17 -23 -53 -6 -70 14 -14 60 -15 125 -3 26 5 74 12 106 15 l57
5 0 -85 c0 -79 -1 -84 -22 -88 -21 -4 -172 -24 -316 -42 -80 -9 -92 -30 -92
-163 1 -176 25 -427 44 -456 20 -30 11 -29 203 -25 l151 2 4 -58 c1 -33 2 -75
0 -95 l-3 -36 -91 -7 c-50 -3 -137 -6 -192 -6 -127 0 -235 -16 -258 -37 -21
-19 -24 -56 -5 -71 9 -8 76 -8 228 -2 117 5 237 10 266 10 l52 0 3 -268 c3
-287 6 -302 53 -302 47 0 50 15 53 305 l3 273 112 5 c186 8 369 27 396 40 19
9 26 20 26 42 0 40 -33 56 -105 49 -30 -2 -100 -9 -155 -14 -55 -5 -139 -11
-187 -14 l-88 -4 0 98 c0 80 3 99 16 104 9 3 66 6 126 6 146 0 235 15 252 44
12 19 22 77 56 344 6 46 12 128 13 182 3 132 -1 136 -126 132 -51 -1 -141 -9
-202 -16 -60 -8 -110 -13 -111 -12 0 0 2 40 4 87 l4 86 76 11 c43 7 93 12 112
12 73 0 108 62 55 96 -23 15 -36 16 -108 5 -45 -6 -94 -11 -109 -11 -28 0 -28
1 -28 68 0 37 -6 78 -13 92 -15 31 -58 38 -78 14z m416 -631 c-4 -54 -8 -103
-10 -110 -3 -8 -52 -12 -170 -12 -145 0 -166 2 -161 15 3 9 6 51 6 94 l0 78
58 7 c31 4 102 11 157 15 55 4 106 8 113 9 10 1 12 -19 7 -96z m-445 -32 c0
-50 -3 -92 -7 -94 -5 -3 -74 -8 -155 -12 l-148 -7 0 81 c0 45 3 81 8 81 4 1
63 9 132 19 189 29 170 36 170 -68z m420 -197 c0 -27 -23 -149 -29 -155 -3 -4
-73 -9 -156 -12 l-150 -5 5 81 5 82 80 7 c44 4 89 9 100 11 11 2 48 5 83 6 51
1 62 -2 62 -15z m-436 -91 l-4 -88 -132 -6 c-73 -4 -134 -6 -136 -4 -1 1 -5
39 -9 84 -6 80 -6 81 18 82 104 6 255 16 261 17 3 1 5 -37 2 -85z"/>
</g>
</svg>
