<?xml version="1.0" standalone="no"?>
<!DOCTYPE svg PUBLIC "-//W3C//DTD SVG 20010904//EN"
 "http://www.w3.org/TR/2001/REC-SVG-20010904/DTD/svg10.dtd">
<svg version="1.0" xmlns="http://www.w3.org/2000/svg"
 width="248.000000pt" height="248.000000pt" viewBox="0 0 248.000000 248.000000"
 preserveAspectRatio="xMidYMid meet">
<metadata>
Created by potrace 1.10, written by Peter Selinger 2001-2011
</metadata>
<g transform="translate(0.000000,248.000000) scale(0.100000,-0.100000)"
fill="#000000" stroke="none">
<path d="M1406 2338 c-13 -18 -16 -54 -16 -189 l0 -166 -61 -7 c-34 -3 -97 -6
-140 -6 l-79 0 0 64 c0 35 -5 110 -11 167 -11 110 -24 139 -64 139 -43 0 -46
-16 -39 -203 l7 -176 -24 -5 c-13 -3 -64 -10 -114 -15 -290 -32 -334 -41 -355
-66 -10 -13 -11 -33 -2 -98 7 -45 16 -176 22 -292 20 -416 30 -470 87 -463 45
5 47 21 34 229 -27 428 -32 515 -34 534 -2 16 5 21 33 23 19 1 76 9 125 17 50
7 120 16 156 20 64 6 67 5 72 -17 3 -13 9 -186 13 -386 5 -251 11 -367 19
-378 16 -22 65 -21 83 2 12 16 13 70 8 344 -4 179 -9 353 -12 386 l-7 61 137
8 c76 4 140 4 144 1 3 -4 6 -176 6 -384 1 -344 3 -380 19 -405 22 -35 72 -38
82 -6 4 12 7 196 7 409 1 388 1 389 22 394 12 3 102 8 200 12 l179 7 -7 -104
c-4 -57 -13 -169 -21 -249 -51 -503 -51 -526 14 -518 47 5 49 17 81 413 5 66
15 156 20 200 6 44 12 138 13 210 3 166 13 158 -208 151 -88 -3 -190 -9 -227
-12 l-68 -7 0 169 c0 185 -7 214 -55 214 -13 0 -31 -10 -39 -22z"/>
</g>
</svg>
