<?xml version="1.0" standalone="no"?>
<!DOCTYPE svg PUBLIC "-//W3C//DTD SVG 20010904//EN"
 "http://www.w3.org/TR/2001/REC-SVG-20010904/DTD/svg10.dtd">
<svg version="1.0" xmlns="http://www.w3.org/2000/svg"
 width="248.000000pt" height="248.000000pt" viewBox="0 0 248.000000 248.000000"
 preserveAspectRatio="xMidYMid meet">
<metadata>
Created by potrace 1.10, written by Peter Selinger 2001-2011
</metadata>
<g transform="translate(0.000000,248.000000) scale(0.100000,-0.100000)"
fill="#000000" stroke="none">
<path d="M1181 2436 c-6 -7 -14 -77 -18 -165 -3 -83 -9 -154 -13 -156 -18 -11
-396 -37 -477 -32 -64 4 -97 2 -108 -7 -20 -14 -23 -62 -6 -79 12 -12 274 -12
416 -1 l70 6 -55 -54 c-68 -65 -252 -224 -300 -259 -73 -52 -247 -158 -291
-177 -28 -12 -48 -28 -51 -40 -8 -29 18 -62 49 -62 89 0 496 289 700 498 38
39 55 50 58 39 7 -17 -10 -386 -19 -407 -5 -11 -38 -21 -114 -33 -60 -9 -122
-17 -138 -17 -37 0 -63 -18 -65 -45 -1 -11 -1 -262 -1 -558 l2 -537 24 -11
c17 -8 29 -8 45 0 20 11 21 19 21 152 0 78 5 149 10 160 8 14 21 19 48 19 21
0 88 7 148 14 139 19 450 39 464 31 13 -8 13 -216 -1 -275 -5 -24 -8 -54 -5
-67 7 -24 36 -37 64 -28 33 10 42 50 42 188 0 155 24 619 42 827 15 170 14
191 -9 208 -19 14 -56 12 -306 -14 -90 -10 -153 -12 -158 -7 -11 11 0 363 11
363 8 0 151 -82 230 -132 30 -19 80 -45 110 -57 30 -13 78 -36 105 -51 64 -36
221 -101 305 -128 69 -22 277 -72 297 -72 18 0 43 29 43 50 0 31 -38 48 -185
86 -76 19 -168 46 -204 60 -99 39 -380 174 -426 204 -22 14 -69 43 -105 63
-90 49 -137 85 -119 91 8 2 86 12 174 21 303 32 428 52 442 71 19 25 16 48 -7
69 -19 17 -27 18 -78 7 -31 -6 -97 -16 -147 -22 -49 -5 -166 -19 -258 -30 -93
-11 -172 -18 -177 -15 -4 3 -5 70 -3 150 6 155 2 175 -42 175 -12 0 -28 -6
-34 -14z m438 -1096 c-5 -69 -13 -128 -17 -132 -9 -9 -102 -22 -297 -44 -266
-28 -364 -37 -379 -31 -12 5 -14 29 -13 128 l2 123 35 8 c99 22 661 88 672 79
4 -4 3 -62 -3 -131z m-18 -359 c-2 -125 -11 -161 -39 -161 -53 0 -438 -32
-517 -43 -145 -20 -136 -27 -134 119 0 68 4 126 8 128 4 3 45 7 91 11 47 4
123 11 170 16 47 5 153 16 235 25 83 8 155 16 160 18 24 10 27 -6 26 -113z"/>
</g>
</svg>
