<?xml version="1.0" standalone="no"?>
<!DOCTYPE svg PUBLIC "-//W3C//DTD SVG 20010904//EN"
 "http://www.w3.org/TR/2001/REC-SVG-20010904/DTD/svg10.dtd">
<svg version="1.0" xmlns="http://www.w3.org/2000/svg"
 width="248.000000pt" height="248.000000pt" viewBox="0 0 248.000000 248.000000"
 preserveAspectRatio="xMidYMid meet">
<metadata>
Created by potrace 1.10, written by Peter Selinger 2001-2011
</metadata>
<g transform="translate(0.000000,248.000000) scale(0.100000,-0.100000)"
fill="#000000" stroke="none">
<path d="M1175 2140 c-115 -16 -311 -30 -397 -30 -58 0 -91 -4 -98 -12 -5 -7
-36 -65 -68 -128 -82 -161 -153 -265 -281 -410 -61 -69 -113 -135 -117 -148
-7 -27 19 -62 47 -62 18 0 35 17 158 155 118 132 213 273 294 435 17 36 36 68
40 71 5 3 88 9 185 12 97 4 188 10 201 13 23 7 24 6 18 -32 -9 -53 -88 -243
-192 -459 -169 -352 -389 -630 -585 -737 -27 -15 -31 -23 -28 -50 2 -25 9 -35
30 -42 43 -15 126 42 268 184 96 96 145 155 213 257 136 205 328 606 398 830
11 34 24 65 29 68 19 12 11 63 -12 79 -12 9 -27 15 -33 15 -5 -1 -37 -5 -70
-9z"/>
</g>
</svg>
