<?xml version="1.0" standalone="no"?>
<!DOCTYPE svg PUBLIC "-//W3C//DTD SVG 20010904//EN"
 "http://www.w3.org/TR/2001/REC-SVG-20010904/DTD/svg10.dtd">
<svg version="1.0" xmlns="http://www.w3.org/2000/svg"
 width="248.000000pt" height="248.000000pt" viewBox="0 0 248.000000 248.000000"
 preserveAspectRatio="xMidYMid meet">
<metadata>
Created by potrace 1.10, written by Peter Selinger 2001-2011
</metadata>
<g transform="translate(0.000000,248.000000) scale(0.100000,-0.100000)"
fill="#000000" stroke="none">
<path d="M1535 2316 c-10 -7 -20 -26 -21 -42 -5 -80 -236 -393 -433 -589 -106
-105 -119 -131 -80 -158 30 -22 49 -12 135 66 104 96 267 293 371 450 l85 128
92 -88 c248 -241 457 -410 574 -465 89 -42 125 -44 137 -8 13 41 -5 61 -88 99
-74 34 -132 76 -286 206 -120 101 -272 244 -333 313 -88 99 -116 115 -153 88z"/>
<path d="M710 2214 c-69 -13 -186 -36 -260 -50 -74 -14 -147 -33 -163 -40 -37
-20 -53 -54 -38 -83 9 -16 12 -147 10 -470 l-1 -449 23 -31 c12 -17 30 -33 39
-36 23 -7 159 11 285 39 61 14 145 31 188 39 l77 14 0 -41 c0 -23 -7 -79 -15
-126 -9 -47 -20 -112 -26 -145 -25 -152 -113 -459 -143 -501 -10 -13 -17 -11
-51 15 -60 46 -115 38 -115 -16 0 -15 20 -39 69 -78 103 -83 142 -74 194 46
60 134 110 316 156 564 49 269 52 339 12 378 -21 21 -21 21 -108 4 -49 -10
-101 -20 -117 -24 l-29 -5 6 142 c4 79 8 145 10 146 2 2 36 10 75 17 79 15
112 37 112 74 0 35 -36 48 -99 34 -95 -20 -91 -24 -91 82 l0 94 77 17 c108 24
140 59 92 102 -19 17 -24 17 -95 3 l-74 -15 0 98 c0 54 3 98 8 98 25 0 159 33
169 42 17 13 17 53 1 66 -26 20 -56 20 -178 -4z m-108 -220 c2 -53 0 -98 -4
-100 -3 -2 -48 -15 -100 -28 -51 -14 -100 -27 -109 -31 -15 -5 -17 7 -21 97
-3 57 -3 105 -1 108 3 4 199 47 225 49 4 1 8 -42 10 -95z m-2 -312 l0 -98
-115 -30 -115 -31 0 92 c0 63 4 96 13 103 14 12 172 61 200 61 15 1 17 -10 17
-97z m-4 -351 l-9 -131 -36 -10 c-50 -14 -180 -35 -185 -29 -3 3 -2 61 1 130
l6 125 41 12 c106 31 181 48 186 41 3 -4 1 -66 -4 -138z"/>
<path d="M1925 1755 c-5 -2 -113 -13 -240 -25 -424 -38 -455 -44 -455 -94 0
-50 13 -52 258 -28 125 12 286 27 357 33 167 14 172 15 191 44 15 23 15 27 0
50 -13 20 -24 25 -59 24 -23 0 -46 -2 -52 -4z"/>
<path d="M1119 1349 c-14 -14 -19 -28 -15 -42 3 -12 17 -89 31 -172 15 -82 28
-160 31 -172 9 -46 72 -53 95 -12 15 29 -48 376 -73 401 -24 24 -43 23 -69 -3z"/>
<path d="M662 1008 c-16 -16 -15 -116 1 -148 15 -31 58 -38 78 -14 18 22 14
119 -6 151 -17 25 -53 31 -73 11z"/>
<path d="M475 916 c-22 -33 -4 -163 26 -188 26 -22 43 -23 64 -2 14 14 15 30
10 93 -4 42 -13 86 -21 99 -19 29 -59 29 -79 -2z"/>
<path d="M284 855 c-29 -44 -2 -228 35 -240 24 -7 49 3 61 25 12 23 -3 205
-20 225 -19 23 -57 18 -76 -10z"/>
<path d="M70 770 c-18 -18 -20 -33 -20 -137 0 -134 10 -166 53 -171 54 -6 59
7 54 161 -4 121 -7 142 -23 154 -25 18 -41 16 -64 -7z"/>
</g>
</svg>
