<?xml version="1.0" standalone="no"?>
<!DOCTYPE svg PUBLIC "-//W3C//DTD SVG 20010904//EN"
 "http://www.w3.org/TR/2001/REC-SVG-20010904/DTD/svg10.dtd">
<svg version="1.0" xmlns="http://www.w3.org/2000/svg"
 width="248.000000pt" height="248.000000pt" viewBox="0 0 248.000000 248.000000"
 preserveAspectRatio="xMidYMid meet">
<metadata>
Created by potrace 1.10, written by Peter Selinger 2001-2011
</metadata>
<g transform="translate(0.000000,248.000000) scale(0.100000,-0.100000)"
fill="#000000" stroke="none">
<path d="M1145 2356 c-18 -13 -19 -29 -16 -293 1 -153 0 -290 -4 -304 -6 -25
-9 -26 -140 -38 -74 -6 -179 -18 -232 -25 -54 -8 -145 -20 -202 -27 -143 -18
-143 -19 -141 -149 1 -58 4 -121 5 -140 2 -19 4 -67 4 -107 1 -63 4 -74 22
-84 16 -8 28 -8 45 0 24 11 24 11 24 190 l0 180 33 6 c78 14 267 37 457 55
113 11 291 29 395 40 327 34 601 48 662 33 20 -4 21 -8 11 -27 -6 -11 -63 -73
-125 -138 -88 -89 -114 -122 -111 -139 4 -29 29 -43 62 -35 37 9 210 185 274
279 62 90 64 114 12 140 -31 15 -64 17 -280 16 -135 -1 -283 -5 -330 -9 -47
-5 -86 -7 -87 -6 -1 1 44 51 100 111 119 127 187 213 224 284 24 48 25 52 9
76 -24 36 -62 34 -84 -6 -40 -73 -141 -201 -234 -295 -99 -100 -112 -124 -94
-165 6 -13 -2 -17 -40 -23 -26 -3 -66 -6 -89 -6 -41 0 -43 1 -50 36 -3 21 -5
154 -3 296 2 247 2 261 -17 274 -24 18 -36 18 -60 0z"/>
<path d="M622 2118 c-14 -14 -16 -59 -3 -73 10 -12 61 -184 71 -242 4 -23 12
-49 20 -57 19 -24 57 -19 76 10 19 29 18 35 -35 214 -17 58 -39 116 -49 130
-21 28 -61 37 -80 18z"/>
<path d="M1485 1440 c-27 -5 -90 -8 -140 -8 -117 -1 -393 -34 -478 -58 -32
-10 -48 -46 -37 -85 12 -42 37 -184 49 -279 11 -83 32 -114 71 -106 14 2 45 9
70 15 25 5 113 15 195 21 178 12 273 26 292 42 24 20 53 84 104 235 50 146 59
199 37 221 -13 13 -85 14 -163 2z m55 -108 c0 -13 -75 -226 -86 -246 -8 -13
-33 -22 -85 -32 -80 -14 -377 -39 -384 -33 -7 8 -47 260 -42 265 3 3 85 16
184 28 177 22 413 33 413 18z"/>
<path d="M1499 726 c-2 -2 -49 -7 -104 -10 -55 -4 -134 -11 -175 -17 -41 -5
-88 -12 -105 -14 -16 -2 -90 -7 -163 -11 -125 -6 -134 -8 -149 -30 -14 -22
-14 -26 2 -50 l17 -27 107 7 c182 11 244 16 306 26 33 5 111 12 174 16 144 8
164 14 175 47 8 21 6 31 -9 47 -16 17 -64 28 -76 16z"/>
</g>
</svg>
