<?xml version="1.0" standalone="no"?>
<!DOCTYPE svg PUBLIC "-//W3C//DTD SVG 20010904//EN"
 "http://www.w3.org/TR/2001/REC-SVG-20010904/DTD/svg10.dtd">
<svg version="1.0" xmlns="http://www.w3.org/2000/svg"
 width="248.000000pt" height="248.000000pt" viewBox="0 0 248.000000 248.000000"
 preserveAspectRatio="xMidYMid meet">
<metadata>
Created by potrace 1.10, written by Peter Selinger 2001-2011
</metadata>
<g transform="translate(0.000000,248.000000) scale(0.100000,-0.100000)"
fill="#000000" stroke="none">
<path d="M1447 2390 c-75 -5 -147 -10 -160 -14 -21 -5 -353 -30 -600 -45 -137
-8 -147 -16 -147 -125 0 -93 29 -276 47 -298 24 -27 77 -30 293 -13 113 9 245
18 294 22 l89 6 -6 -63 c-4 -35 -7 -82 -7 -105 l0 -42 -117 -16 c-65 -9 -152
-20 -193 -23 -41 -4 -85 -13 -98 -21 -33 -20 -27 -63 11 -81 24 -12 51 -11
190 8 211 27 202 27 201 13 -1 -7 -2 -55 -2 -107 l-2 -93 -57 -7 c-32 -4 -96
-11 -143 -16 -47 -5 -141 -16 -210 -25 -69 -9 -167 -20 -218 -25 -66 -5 -99
-13 -112 -25 -22 -20 -26 -55 -8 -73 15 -15 126 -16 199 -2 30 6 92 15 139 20
47 4 145 16 218 25 74 9 138 15 143 13 10 -3 -27 -32 -137 -108 -64 -45 -116
-85 -168 -131 -23 -20 -60 -49 -82 -65 -43 -30 -245 -186 -343 -264 -31 -24
-90 -63 -131 -85 -63 -34 -76 -45 -78 -68 -4 -34 13 -57 42 -57 30 0 153 65
206 109 25 20 71 57 104 82 32 24 73 55 91 69 27 21 159 120 202 153 10 7 11
-63 6 -321 -6 -345 -3 -385 35 -394 61 -15 72 18 72 216 l0 163 193 6 c105 4
261 10 345 13 l153 7 -3 -212 c-3 -201 -2 -213 16 -227 25 -18 37 -18 61 0 23
16 28 99 40 591 10 392 14 385 -184 372 -97 -6 -419 -35 -468 -41 -18 -3 -33
-2 -33 2 0 7 74 63 184 140 33 23 70 49 82 57 29 21 110 34 275 45 303 19 455
33 479 44 18 8 25 19 25 41 0 50 -31 58 -187 45 -148 -13 -392 -28 -395 -26
-2 1 21 20 50 42 144 108 331 323 325 372 -2 14 -10 29 -19 35 -32 20 -66 -2
-122 -75 -64 -85 -195 -212 -287 -281 -36 -26 -86 -63 -113 -82 -75 -55 -78
-52 -75 67 l3 103 105 11 c134 14 215 31 230 49 18 22 8 59 -20 72 -20 9 -43
9 -110 -2 -47 -7 -111 -15 -144 -18 l-59 -4 6 95 c4 63 10 98 19 103 7 5 47 9
88 9 41 0 167 5 280 11 254 14 258 16 281 114 53 227 45 314 -30 335 -40 11
-344 11 -554 0z m513 -122 c0 -27 -28 -199 -33 -204 -4 -4 -303 -24 -359 -24
l-38 0 0 125 0 125 215 0 215 0 0 -22z m-540 -113 l0 -125 -119 0 -120 0 -5
43 c-3 23 -7 74 -10 113 l-5 71 82 10 c45 6 103 11 130 12 l47 1 0 -125z
m-357 -17 c4 -62 3 -115 -1 -119 -6 -5 -315 -29 -373 -29 -20 0 -39 85 -39
170 l0 58 128 11 c144 13 191 17 243 19 l36 2 6 -112z m647 -1275 l0 -158 -97
0 c-54 -1 -211 -5 -348 -9 l-251 -9 1 141 c0 119 2 142 15 142 37 0 495 42
499 46 2 2 44 4 93 4 l88 0 0 -157z"/>
</g>
</svg>
