<?xml version="1.0" standalone="no"?>
<!DOCTYPE svg PUBLIC "-//W3C//DTD SVG 20010904//EN"
 "http://www.w3.org/TR/2001/REC-SVG-20010904/DTD/svg10.dtd">
<svg version="1.0" xmlns="http://www.w3.org/2000/svg"
 width="248.000000pt" height="248.000000pt" viewBox="0 0 248.000000 248.000000"
 preserveAspectRatio="xMidYMid meet">
<metadata>
Created by potrace 1.10, written by Peter Selinger 2001-2011
</metadata>
<g transform="translate(0.000000,248.000000) scale(0.100000,-0.100000)"
fill="#000000" stroke="none">
<path d="M878 2320 c-9 -6 -22 -27 -29 -48 -6 -20 -19 -48 -29 -62 -9 -14 -38
-69 -63 -123 -73 -154 -148 -258 -295 -409 -119 -121 -134 -140 -128 -162 7
-28 44 -44 69 -29 36 20 175 153 233 224 l64 77 123 1 c67 1 175 6 240 13 85
8 121 8 129 0 14 -14 -2 -506 -17 -521 -6 -6 -118 -24 -250 -41 -132 -17 -294
-40 -360 -51 -66 -11 -158 -25 -205 -31 -47 -6 -91 -15 -97 -20 -18 -14 -16
-53 2 -68 20 -17 159 -9 310 18 188 34 589 82 598 73 5 -5 5 -245 -1 -542 -5
-294 -7 -539 -5 -546 9 -22 45 -22 68 1 22 22 22 24 29 477 3 249 9 495 12
546 l7 91 116 7 c64 4 134 9 156 12 22 2 216 6 430 9 352 4 391 6 403 21 16
23 15 48 -3 63 -19 16 -643 15 -919 -1 -98 -5 -179 -9 -181 -7 -1 2 0 122 4
268 l6 265 45 7 c25 3 88 11 140 18 52 6 140 19 195 30 55 10 132 22 170 25
39 4 78 11 87 16 23 12 31 44 17 70 -11 21 -16 21 -101 15 -50 -4 -131 -15
-182 -26 -50 -10 -118 -21 -151 -25 -33 -3 -107 -13 -165 -21 -214 -31 -540
-60 -564 -51 -13 5 2 41 79 193 97 191 103 213 67 242 -19 14 -31 15 -54 2z"/>
</g>
</svg>
