<?xml version="1.0" standalone="no"?>
<!DOCTYPE svg PUBLIC "-//W3C//DTD SVG 20010904//EN"
 "http://www.w3.org/TR/2001/REC-SVG-20010904/DTD/svg10.dtd">
<svg version="1.0" xmlns="http://www.w3.org/2000/svg"
 width="248.000000pt" height="248.000000pt" viewBox="0 0 248.000000 248.000000"
 preserveAspectRatio="xMidYMid meet">
<metadata>
Created by potrace 1.10, written by Peter Selinger 2001-2011
</metadata>
<g transform="translate(0.000000,248.000000) scale(0.100000,-0.100000)"
fill="#000000" stroke="none">
<path d="M878 2320 c-9 -6 -22 -27 -29 -48 -6 -20 -19 -48 -29 -62 -9 -14 -38
-69 -63 -123 -73 -154 -148 -258 -295 -409 -119 -121 -134 -140 -128 -162 7
-28 44 -44 69 -29 36 20 175 153 233 224 l64 77 123 1 c143 1 308 15 502 41
77 10 165 22 195 25 30 4 100 15 155 25 55 10 132 22 170 25 39 4 78 11 87 16
23 12 31 44 17 70 -11 21 -16 21 -101 15 -50 -4 -131 -15 -182 -26 -50 -10
-118 -21 -151 -25 -33 -3 -107 -13 -165 -21 -214 -31 -540 -60 -564 -51 -13 5
2 41 79 193 97 191 103 213 67 242 -19 14 -31 15 -54 2z"/>
<path d="M1860 1309 c-278 -5 -492 -13 -570 -22 -263 -32 -610 -78 -725 -98
-66 -11 -158 -25 -205 -31 -47 -6 -91 -15 -97 -20 -18 -14 -16 -53 2 -68 20
-17 159 -9 310 18 207 37 728 102 940 117 50 3 263 8 475 11 347 3 386 6 398
21 28 39 7 72 -50 77 -18 2 -233 0 -478 -5z"/>
</g>
</svg>
