<?xml version="1.0" standalone="no"?>
<!DOCTYPE svg PUBLIC "-//W3C//DTD SVG 20010904//EN"
 "http://www.w3.org/TR/2001/REC-SVG-20010904/DTD/svg10.dtd">
<svg version="1.0" xmlns="http://www.w3.org/2000/svg"
 width="248.000000pt" height="248.000000pt" viewBox="0 0 248.000000 248.000000"
 preserveAspectRatio="xMidYMid meet">
<metadata>
Created by potrace 1.10, written by Peter Selinger 2001-2011
</metadata>
<g transform="translate(0.000000,248.000000) scale(0.100000,-0.100000)"
fill="#000000" stroke="none">
<path d="M1810 2323 c-30 -2 -181 -19 -335 -38 -365 -45 -438 -54 -570 -70
-60 -8 -137 -17 -170 -20 -165 -16 -225 -38 -225 -80 0 -39 38 -58 91 -46 24
6 85 15 134 20 50 6 182 21 295 36 426 53 688 84 768 90 l83 6 -6 -63 c-4 -35
-13 -91 -21 -126 -8 -35 -14 -76 -14 -91 0 -61 64 -69 92 -11 20 40 44 173 54
288 10 115 8 116 -176 105z"/>
</g>
</svg>
