<?xml version="1.0" standalone="no"?>
<!DOCTYPE svg PUBLIC "-//W3C//DTD SVG 20010904//EN"
 "http://www.w3.org/TR/2001/REC-SVG-20010904/DTD/svg10.dtd">
<svg version="1.0" xmlns="http://www.w3.org/2000/svg"
 width="248.000000pt" height="248.000000pt" viewBox="0 0 248.000000 248.000000"
 preserveAspectRatio="xMidYMid meet">
<metadata>
Created by potrace 1.10, written by Peter Selinger 2001-2011
</metadata>
<g transform="translate(0.000000,248.000000) scale(0.100000,-0.100000)"
fill="#000000" stroke="none">
<path d="M1810 2323 c-47 -3 -181 -19 -705 -83 -49 -6 -137 -17 -195 -25 -58
-7 -136 -17 -175 -20 -104 -10 -194 -31 -214 -49 -18 -16 -18 -35 -13 -321 3
-206 1 -328 -7 -377 -6 -40 -18 -118 -27 -173 -20 -129 -97 -464 -134 -581
-34 -107 -88 -245 -101 -258 -13 -14 -11 -60 3 -74 34 -34 82 0 118 83 71 163
178 561 214 795 8 52 22 138 31 191 8 53 15 133 15 178 0 76 1 81 22 85 142
31 389 68 578 86 52 6 119 14 150 19 30 5 84 12 120 16 36 3 88 10 115 16 28
5 91 13 142 18 111 12 168 37 189 86 17 41 41 178 50 283 10 115 8 116 -176
105z m66 -155 c-21 -172 -35 -208 -82 -208 -14 0 -92 -9 -172 -20 -140 -20
-259 -35 -457 -60 -230 -30 -308 -41 -418 -61 -64 -12 -119 -20 -121 -18 -2 2
-5 65 -7 139 l-4 135 100 11 c55 6 195 23 310 38 491 62 693 86 745 89 30 2
68 4 83 5 l29 2 -6 -52z"/>
<path d="M1536 1732 c-7 -12 -144 -89 -236 -134 -41 -20 -169 -73 -285 -118
-115 -45 -217 -88 -224 -96 -11 -10 -13 -20 -5 -41 17 -50 56 -43 284 47 267
106 495 218 533 262 20 23 22 59 5 76 -14 14 -64 16 -72 4z"/>
<path d="M1670 1419 c-36 -4 -137 -20 -225 -34 -88 -14 -199 -32 -246 -40 -48
-7 -140 -24 -205 -38 -66 -14 -148 -31 -183 -38 -35 -7 -75 -22 -88 -33 -24
-21 -24 -23 -13 -86 28 -154 33 -176 46 -197 19 -30 59 -30 79 1 14 21 14 30
0 87 -8 35 -15 78 -15 96 0 29 3 32 43 38 23 3 107 19 187 35 80 16 188 36
240 45 233 38 340 54 403 60 l69 8 -7 -49 c-4 -27 -13 -71 -20 -99 -14 -57
-10 -82 17 -96 27 -14 57 -2 70 29 12 32 47 189 55 248 9 71 -35 85 -207 63z"/>
</g>
</svg>
