<?xml version="1.0" standalone="no"?>
<!DOCTYPE svg PUBLIC "-//W3C//DTD SVG 20010904//EN"
 "http://www.w3.org/TR/2001/REC-SVG-20010904/DTD/svg10.dtd">
<svg version="1.0" xmlns="http://www.w3.org/2000/svg"
 width="248.000000pt" height="248.000000pt" viewBox="0 0 248.000000 248.000000"
 preserveAspectRatio="xMidYMid meet">
<metadata>
Created by potrace 1.10, written by Peter Selinger 2001-2011
</metadata>
<g transform="translate(0.000000,248.000000) scale(0.100000,-0.100000)"
fill="#000000" stroke="none">
<path d="M572 2298 c-23 -23 -12 -50 51 -126 34 -42 69 -86 77 -98 87 -126
116 -146 154 -108 31 30 24 47 -71 172 -121 160 -172 199 -211 160z"/>
<path d="M1644 2199 c-17 -19 -19 -41 -22 -203 -2 -99 -7 -184 -10 -188 -10
-10 -209 -48 -252 -48 -70 0 -107 -60 -58 -94 29 -21 50 -20 184 6 63 12 115
20 118 17 2 -2 6 -65 8 -139 l3 -135 -60 -12 c-33 -7 -91 -17 -128 -22 -76
-11 -97 -23 -97 -56 0 -36 27 -50 89 -48 66 3 480 86 511 103 16 8 20 19 18
42 -5 49 -25 55 -124 35 -48 -9 -90 -15 -92 -13 -2 3 -6 65 -9 138 l-6 134 54
12 c30 6 105 21 167 33 118 23 142 35 142 73 0 53 -25 56 -200 21 -69 -13
-131 -25 -137 -25 -10 0 -13 43 -13 183 0 129 -4 187 -12 195 -18 18 -53 14
-74 -9z"/>
<path d="M1018 1925 c-3 -3 -76 -14 -164 -25 -149 -19 -294 -45 -509 -90 -49
-10 -104 -22 -122 -25 -61 -12 -72 -68 -19 -94 26 -12 42 -11 145 12 171 38
365 74 461 87 178 23 262 39 286 54 26 18 32 54 12 74 -12 12 -80 17 -90 7z"/>
<path d="M775 1534 c-33 -7 -78 -13 -100 -14 -56 -1 -211 -34 -230 -50 -23
-19 -18 -57 9 -75 21 -14 31 -14 92 -1 38 8 96 18 129 21 111 11 230 37 248
52 39 35 8 84 -51 82 -20 -1 -64 -7 -97 -15z"/>
<path d="M730 1235 c-268 -51 -306 -66 -298 -116 6 -44 25 -45 224 -6 104 19
206 38 226 42 56 9 74 49 38 85 -24 24 -33 24 -190 -5z"/>
<path d="M1392 1038 c-35 -35 11 -395 63 -498 77 -151 375 -281 643 -280 84 0
170 23 201 54 25 25 26 32 26 129 0 118 -15 160 -56 165 -44 5 -53 -18 -50
-128 l2 -99 -27 -7 c-48 -12 -275 5 -346 25 -86 25 -195 82 -252 132 -68 60
-88 129 -106 358 -7 93 -13 128 -26 142 -19 22 -54 25 -72 7z"/>
<path d="M2060 1035 c-19 -23 -5 -98 32 -168 29 -54 37 -62 65 -65 27 -3 35 1
44 22 10 22 8 35 -19 94 -18 38 -32 75 -32 84 0 39 -65 63 -90 33z"/>
<path d="M1802 998 c-7 -7 -12 -22 -12 -34 0 -30 93 -195 119 -213 31 -20 71
-1 71 34 0 26 -80 184 -107 210 -18 18 -55 19 -71 3z"/>
<path d="M1156 978 c-10 -15 -16 -45 -16 -85 0 -58 -30 -248 -63 -405 -17 -79
-7 -111 35 -116 47 -6 59 28 113 339 38 220 31 289 -30 289 -13 0 -31 -10 -39
-22z"/>
<path d="M745 953 c-22 -2 -91 -13 -154 -23 -62 -11 -135 -20 -161 -20 -74 0
-75 -4 -72 -219 2 -183 24 -469 37 -504 9 -21 37 -29 113 -30 67 -2 327 12
359 19 43 8 56 66 73 309 6 77 15 174 20 215 25 179 25 194 -2 224 -22 26 -31
29 -99 31 -41 2 -92 1 -114 -2z m131 -120 c-6 -16 -17 -86 -36 -248 -5 -44
-12 -127 -15 -184 -3 -57 -7 -107 -10 -111 -5 -8 -313 -36 -320 -29 -8 8 -24
216 -30 380 l-5 165 92 14 c51 7 113 16 138 20 25 4 78 8 119 9 64 1 72 -1 67
-16z"/>
</g>
</svg>
