<?xml version="1.0" standalone="no"?>
<!DOCTYPE svg PUBLIC "-//W3C//DTD SVG 20010904//EN"
 "http://www.w3.org/TR/2001/REC-SVG-20010904/DTD/svg10.dtd">
<svg version="1.0" xmlns="http://www.w3.org/2000/svg"
 width="248.000000pt" height="248.000000pt" viewBox="0 0 248.000000 248.000000"
 preserveAspectRatio="xMidYMid meet">
<metadata>
Created by potrace 1.10, written by Peter Selinger 2001-2011
</metadata>
<g transform="translate(0.000000,248.000000) scale(0.100000,-0.100000)"
fill="#000000" stroke="none">
<path d="M755 2283 c-22 -19 -58 -47 -80 -61 -22 -13 -56 -38 -75 -54 -34 -29
-96 -72 -175 -124 -58 -38 -105 -85 -105 -105 0 -23 27 -49 51 -49 11 0 56 26
100 58 85 60 159 113 281 199 104 74 139 128 106 161 -22 22 -62 12 -103 -25z"/>
</g>
</svg>
