<?xml version="1.0" standalone="no"?>
<!DOCTYPE svg PUBLIC "-//W3C//DTD SVG 20010904//EN"
 "http://www.w3.org/TR/2001/REC-SVG-20010904/DTD/svg10.dtd">
<svg version="1.0" xmlns="http://www.w3.org/2000/svg"
 width="248.000000pt" height="248.000000pt" viewBox="0 0 248.000000 248.000000"
 preserveAspectRatio="xMidYMid meet">
<metadata>
Created by potrace 1.10, written by Peter Selinger 2001-2011
</metadata>
<g transform="translate(0.000000,248.000000) scale(0.100000,-0.100000)"
fill="#000000" stroke="none">
<path d="M755 2283 c-22 -19 -58 -47 -80 -61 -22 -13 -56 -38 -75 -54 -34 -29
-96 -72 -175 -124 -58 -38 -105 -85 -105 -105 0 -23 27 -49 51 -49 18 0 172
101 184 121 20 31 25 -8 25 -180 l0 -190 -52 -10 c-82 -16 -214 -39 -316 -55
-105 -17 -124 -28 -120 -65 5 -40 45 -54 115 -42 166 31 315 52 320 47 7 -7
-15 -91 -33 -127 -7 -15 -25 -71 -39 -125 -54 -204 -130 -424 -189 -543 -61
-126 -60 -171 6 -171 25 0 32 9 84 117 31 65 67 150 80 188 12 39 38 115 57
170 18 55 44 143 58 195 l24 95 5 -581 c5 -623 5 -614 56 -614 55 0 54 -7 54
644 l0 600 84 -87 c46 -47 95 -89 110 -93 55 -13 97 17 80 59 -3 8 -23 27 -44
41 -70 46 -235 261 -208 271 7 2 47 9 88 15 264 36 310 49 310 88 0 10 -6 26
-14 37 -11 16 -22 17 -84 12 -39 -4 -101 -13 -139 -21 -37 -8 -94 -17 -125
-21 l-58 -6 0 224 0 223 68 47 c97 66 133 122 100 155 -22 22 -62 12 -103 -25z"/>
<path d="M1366 2278 c-12 -16 -14 -35 -10 -69 l6 -46 -47 -6 c-26 -4 -62 -7
-79 -7 -69 0 -102 -63 -51 -96 25 -16 35 -16 156 2 l36 5 7 -62 c7 -73 27
-109 60 -109 39 0 48 22 44 102 l-3 73 30 3 c17 1 75 9 130 17 432 64 523 79
543 92 31 19 27 63 -8 80 -20 9 -42 9 -105 -2 -143 -26 -596 -88 -600 -83 -3
3 -9 26 -14 51 -4 26 -14 54 -21 62 -18 22 -57 18 -74 -7z"/>
</g>
</svg>
