<?xml version="1.0" standalone="no"?>
<!DOCTYPE svg PUBLIC "-//W3C//DTD SVG 20010904//EN"
 "http://www.w3.org/TR/2001/REC-SVG-20010904/DTD/svg10.dtd">
<svg version="1.0" xmlns="http://www.w3.org/2000/svg"
 width="248.000000pt" height="248.000000pt" viewBox="0 0 248.000000 248.000000"
 preserveAspectRatio="xMidYMid meet">
<metadata>
Created by potrace 1.10, written by Peter Selinger 2001-2011
</metadata>
<g transform="translate(0.000000,248.000000) scale(0.100000,-0.100000)"
fill="#000000" stroke="none">
<path d="M1887 2352 c-9 -9 -19 -41 -23 -70 -5 -42 -11 -55 -28 -61 -28 -10
-356 -54 -362 -49 -2 3 -8 26 -13 51 -10 56 -26 77 -57 77 -36 0 -55 -36 -48
-91 l6 -46 -47 -6 c-26 -4 -62 -7 -79 -7 -69 0 -102 -63 -51 -96 25 -16 35
-16 156 2 l36 5 7 -62 c7 -73 27 -109 60 -109 39 0 48 22 44 102 l-3 73 30 3
c17 1 75 9 130 17 55 8 121 17 146 20 l46 6 -11 -51 c-12 -59 -2 -84 35 -88
38 -4 50 11 70 83 10 37 20 69 22 71 1 2 50 11 107 20 124 20 153 34 148 72
-5 44 -39 53 -133 37 -116 -21 -111 -23 -107 35 3 30 -1 57 -8 65 -17 20 -53
19 -73 -3z"/>
<path d="M755 2283 c-22 -19 -58 -47 -80 -61 -22 -13 -56 -38 -75 -54 -34 -29
-96 -72 -175 -124 -58 -38 -105 -85 -105 -105 0 -23 27 -49 51 -49 18 0 172
101 184 121 20 31 25 -8 25 -180 l0 -190 -52 -10 c-82 -16 -214 -39 -316 -55
-105 -17 -124 -28 -120 -65 5 -40 45 -54 115 -42 166 31 315 52 320 47 7 -7
-15 -91 -33 -127 -7 -15 -25 -71 -39 -125 -54 -204 -130 -424 -189 -543 -61
-126 -60 -171 6 -171 25 0 32 9 84 117 31 65 67 150 80 188 12 39 38 115 57
170 18 55 44 143 58 195 l24 95 5 -581 c5 -623 5 -614 56 -614 55 0 54 -7 54
644 l0 600 84 -87 c46 -47 95 -89 110 -93 55 -13 97 17 80 59 -3 8 -23 27 -44
41 -70 46 -235 261 -208 271 7 2 47 9 88 15 264 36 310 49 310 88 0 10 -6 26
-14 37 -11 16 -22 17 -84 12 -39 -4 -101 -13 -139 -21 -37 -8 -94 -17 -125
-21 l-58 -6 0 224 0 223 68 47 c97 66 133 122 100 155 -22 22 -62 12 -103 -25z"/>
<path d="M1656 1878 c-11 -15 -16 -45 -16 -88 0 -36 -4 -71 -8 -77 -8 -12
-208 -44 -217 -35 -2 3 2 17 10 33 30 57 14 109 -31 109 -17 0 -36 -20 -77
-83 -30 -46 -98 -129 -151 -184 -98 -102 -110 -127 -80 -157 25 -25 48 -19
100 28 l49 45 5 -223 c5 -237 9 -256 55 -256 47 0 50 16 55 296 3 144 8 265
12 269 3 4 42 11 85 17 43 5 173 25 288 44 116 18 244 38 285 43 93 12 120 40
86 87 -12 16 -25 19 -83 17 -37 -1 -113 -12 -167 -23 -54 -11 -100 -20 -102
-20 -2 0 -4 30 -4 68 0 77 -17 112 -55 112 -13 0 -31 -10 -39 -22z"/>
</g>
</svg>
