<?xml version="1.0" standalone="no"?>
<!DOCTYPE svg PUBLIC "-//W3C//DTD SVG 20010904//EN"
 "http://www.w3.org/TR/2001/REC-SVG-20010904/DTD/svg10.dtd">
<svg version="1.0" xmlns="http://www.w3.org/2000/svg"
 width="248.000000pt" height="248.000000pt" viewBox="0 0 248.000000 248.000000"
 preserveAspectRatio="xMidYMid meet">
<metadata>
Created by potrace 1.10, written by Peter Selinger 2001-2011
</metadata>
<g transform="translate(0.000000,248.000000) scale(0.100000,-0.100000)"
fill="#000000" stroke="none">
<path d="M1203 2080 c-169 -10 -332 -28 -508 -55 -82 -13 -179 -27 -214 -31
-76 -8 -118 -39 -106 -77 15 -44 28 -985 18 -1277 -5 -157 -6 -295 -2 -307 17
-46 83 -36 93 14 3 16 4 367 3 781 -2 542 0 756 8 762 6 5 43 12 81 16 38 3
99 12 135 20 80 16 415 50 589 59 155 9 527 7 635 -3 l80 -7 0 -45 c-1 -25 -6
-91 -13 -148 -6 -56 -16 -310 -22 -565 -5 -254 -12 -484 -15 -512 -6 -66 -20
-331 -19 -374 1 -51 41 -75 79 -47 16 12 20 28 21 97 1 46 5 138 8 204 9 163
14 347 20 642 6 316 11 409 36 620 11 94 17 178 14 187 -4 9 -15 21 -26 27
-46 24 -604 36 -895 19z"/>
</g>
</svg>
