<?xml version="1.0" standalone="no"?>
<!DOCTYPE svg PUBLIC "-//W3C//DTD SVG 20010904//EN"
 "http://www.w3.org/TR/2001/REC-SVG-20010904/DTD/svg10.dtd">
<svg version="1.0" xmlns="http://www.w3.org/2000/svg"
 width="248.000000pt" height="248.000000pt" viewBox="0 0 248.000000 248.000000"
 preserveAspectRatio="xMidYMid meet">
<metadata>
Created by potrace 1.10, written by Peter Selinger 2001-2011
</metadata>
<g transform="translate(0.000000,248.000000) scale(0.100000,-0.100000)"
fill="#000000" stroke="none">
<path d="M1190 2079 c-167 -11 -329 -28 -460 -49 -63 -10 -160 -24 -214 -31
-83 -10 -104 -16 -124 -36 -18 -18 -22 -30 -17 -46 14 -44 26 -772 19 -1137
-4 -206 -8 -392 -8 -414 0 -62 17 -69 164 -62 69 2 197 12 285 20 179 17 650
21 928 7 163 -9 168 -10 192 -35 27 -29 43 -32 69 -13 15 11 19 30 22 98 1 46
8 197 14 334 6 138 15 412 20 610 6 255 15 408 29 525 12 91 18 173 15 182 -3
10 -14 23 -25 28 -46 25 -635 38 -909 19z m706 -95 c55 -3 107 -9 114 -14 11
-7 12 -23 2 -92 -13 -91 -26 -380 -42 -958 -6 -206 -14 -403 -17 -438 l-6 -63
-136 5 c-225 9 -932 6 -1048 -4 -59 -6 -141 -15 -181 -22 -48 -7 -76 -8 -83
-1 -6 6 -11 277 -12 747 -3 683 -2 738 14 747 9 4 59 13 110 19 52 6 110 15
129 20 19 5 80 14 135 19 55 6 145 15 200 21 125 14 498 27 625 23 52 -2 140
-6 196 -9z"/>
<path d="M1442 1878 c-8 -8 -12 -59 -12 -162 0 -83 -4 -156 -8 -163 -4 -6 -51
-14 -112 -18 -158 -10 -307 -30 -537 -71 -47 -9 -54 -77 -10 -93 13 -5 54 -3
97 5 165 30 361 54 460 56 l105 3 0 -285 c0 -157 -4 -311 -8 -343 l-9 -59 -22
21 c-25 23 -56 27 -74 9 -27 -27 -6 -80 60 -151 40 -42 84 -50 110 -19 26 28
38 202 38 534 1 357 -17 318 143 323 56 2 107 4 113 4 6 1 16 12 22 25 9 20 8
29 -7 48 -18 21 -26 23 -142 23 l-124 0 -3 150 c-2 86 -8 155 -14 162 -13 16
-50 17 -66 1z"/>
<path d="M932 1258 c-17 -17 -15 -52 6 -79 23 -30 100 -162 124 -211 29 -59
88 -60 102 -2 6 21 -8 51 -70 156 -43 71 -85 133 -95 139 -24 12 -53 11 -67
-3z"/>
</g>
</svg>
