<?xml version="1.0" standalone="no"?>
<!DOCTYPE svg PUBLIC "-//W3C//DTD SVG 20010904//EN"
 "http://www.w3.org/TR/2001/REC-SVG-20010904/DTD/svg10.dtd">
<svg version="1.0" xmlns="http://www.w3.org/2000/svg"
 width="248.000000pt" height="248.000000pt" viewBox="0 0 248.000000 248.000000"
 preserveAspectRatio="xMidYMid meet">
<metadata>
Created by potrace 1.10, written by Peter Selinger 2001-2011
</metadata>
<g transform="translate(0.000000,248.000000) scale(0.100000,-0.100000)"
fill="#000000" stroke="none">
<path d="M559 2118 c-45 -40 -101 -87 -124 -105 -51 -38 -239 -228 -266 -269
-35 -53 -27 -74 72 -183 49 -55 99 -105 109 -111 43 -23 90 -6 90 33 0 10 -40
62 -89 115 l-90 95 47 55 c43 50 129 130 272 251 99 84 130 118 130 143 0 13
-5 29 -12 36 -26 26 -58 12 -139 -60z"/>
</g>
</svg>
