<?xml version="1.0" standalone="no"?>
<!DOCTYPE svg PUBLIC "-//W3C//DTD SVG 20010904//EN"
 "http://www.w3.org/TR/2001/REC-SVG-20010904/DTD/svg10.dtd">
<svg version="1.0" xmlns="http://www.w3.org/2000/svg"
 width="248.000000pt" height="248.000000pt" viewBox="0 0 248.000000 248.000000"
 preserveAspectRatio="xMidYMid meet">
<metadata>
Created by potrace 1.10, written by Peter Selinger 2001-2011
</metadata>
<g transform="translate(0.000000,248.000000) scale(0.100000,-0.100000)"
fill="#000000" stroke="none">
<path d="M1222 2268 c-8 -8 -12 -54 -12 -139 l0 -127 -113 -21 c-63 -11 -131
-21 -153 -21 -58 0 -89 -19 -89 -55 0 -35 31 -55 87 -55 l36 0 6 -77 c4 -43
11 -107 16 -143 14 -92 32 -271 28 -275 -2 -2 -32 -8 -67 -14 -35 -6 -70 -16
-78 -22 -23 -20 -12 -62 21 -78 25 -12 41 -11 130 8 122 26 361 87 377 97 6 4
62 19 123 34 61 15 163 42 226 59 63 18 173 46 244 62 72 16 138 37 148 46 22
20 23 56 3 73 -25 21 -81 9 -614 -130 -63 -17 -117 -28 -119 -25 -3 3 4 47 16
98 23 97 46 223 57 320 8 62 15 70 76 81 44 8 62 26 57 58 -6 42 -41 48 -158
28 -58 -11 -115 -22 -126 -25 -21 -7 -22 -4 -25 103 -4 91 -8 114 -23 131 -21
23 -56 27 -74 9z m175 -352 c-3 -7 -8 -35 -12 -62 -15 -124 -78 -420 -90 -433
-2 -2 -38 -11 -80 -21 -55 -13 -77 -15 -80 -6 -4 13 -22 171 -35 311 -5 55
-12 114 -15 131 -7 39 -11 37 151 64 71 12 131 24 133 26 11 10 33 3 28 -10z"/>
<path d="M559 2118 c-45 -40 -101 -87 -124 -105 -51 -38 -239 -228 -266 -269
-35 -54 -27 -74 80 -192 l99 -109 -20 -24 c-10 -13 -39 -53 -63 -89 -24 -36
-59 -85 -76 -110 -48 -66 -99 -156 -99 -173 0 -23 34 -47 66 -47 30 0 181 47
223 70 l22 11 -7 -433 c-4 -239 -4 -451 0 -471 11 -59 76 -75 95 -24 5 12 10
235 12 494 l4 472 88 41 c56 26 92 38 102 33 8 -5 31 -33 52 -63 40 -57 71
-72 99 -50 35 30 7 95 -85 195 -25 28 -61 72 -78 98 -23 33 -39 47 -56 47 -47
0 -61 -44 -32 -101 15 -29 13 -49 -5 -49 -5 0 -41 -15 -82 -34 -108 -50 -230
-97 -236 -92 -11 11 200 305 323 450 125 147 154 203 123 234 -23 23 -56 13
-90 -29 -18 -22 -62 -76 -98 -119 -36 -43 -77 -93 -92 -111 l-28 -34 -74 79
-74 80 46 54 c43 50 129 130 272 251 99 84 130 118 130 143 0 13 -5 29 -12 36
-26 26 -58 12 -139 -60z"/>
<path d="M1004 1015 c-13 -21 -15 -40 -10 -103 3 -42 10 -195 15 -339 11 -292
16 -318 66 -318 51 0 54 20 44 300 -14 352 -22 449 -38 468 -20 25 -58 21 -77
-8z"/>
<path d="M622 798 c-21 -21 -13 -68 29 -167 39 -92 107 -217 137 -253 17 -21
53 -23 70 -6 20 20 14 66 -15 111 -29 46 -115 227 -128 267 -16 53 -63 78 -93
48z"/>
<path d="M181 787 c-6 -8 -20 -60 -31 -118 -11 -57 -29 -133 -40 -169 -28 -91
-27 -137 4 -151 38 -18 62 3 81 68 37 131 45 162 60 246 15 81 15 90 0 113
-17 26 -56 32 -74 11z"/>
</g>
</svg>
