<?xml version="1.0" standalone="no"?>
<!DOCTYPE svg PUBLIC "-//W3C//DTD SVG 20010904//EN"
 "http://www.w3.org/TR/2001/REC-SVG-20010904/DTD/svg10.dtd">
<svg version="1.0" xmlns="http://www.w3.org/2000/svg"
 width="248.000000pt" height="248.000000pt" viewBox="0 0 248.000000 248.000000"
 preserveAspectRatio="xMidYMid meet">
<metadata>
Created by potrace 1.10, written by Peter Selinger 2001-2011
</metadata>
<g transform="translate(0.000000,248.000000) scale(0.100000,-0.100000)"
fill="#000000" stroke="none">
<path d="M559 2118 c-45 -40 -101 -87 -124 -105 -51 -38 -239 -228 -266 -269
-35 -54 -27 -74 80 -192 l99 -109 -20 -24 c-10 -13 -39 -53 -63 -89 -24 -36
-59 -85 -76 -110 -48 -66 -99 -156 -99 -173 0 -23 34 -47 66 -47 62 0 474 163
527 208 24 21 21 59 -6 77 -22 14 -30 12 -128 -31 -156 -70 -271 -115 -277
-110 -11 11 200 305 323 450 125 147 154 203 123 234 -23 23 -56 13 -90 -29
-18 -22 -62 -76 -98 -119 -36 -43 -77 -93 -92 -111 l-28 -34 -74 79 -74 80 46
54 c43 50 129 130 272 251 99 84 130 118 130 143 0 13 -5 29 -12 36 -26 26
-58 12 -139 -60z"/>
</g>
</svg>
