<?xml version="1.0" standalone="no"?>
<!DOCTYPE svg PUBLIC "-//W3C//DTD SVG 20010904//EN"
 "http://www.w3.org/TR/2001/REC-SVG-20010904/DTD/svg10.dtd">
<svg version="1.0" xmlns="http://www.w3.org/2000/svg"
 width="248.000000pt" height="248.000000pt" viewBox="0 0 248.000000 248.000000"
 preserveAspectRatio="xMidYMid meet">
<metadata>
Created by potrace 1.10, written by Peter Selinger 2001-2011
</metadata>
<g transform="translate(0.000000,248.000000) scale(0.100000,-0.100000)"
fill="#000000" stroke="none">
<path d="M559 2118 c-45 -40 -101 -87 -124 -105 -51 -38 -239 -228 -266 -269
-35 -54 -27 -74 80 -192 l99 -109 -20 -24 c-10 -13 -39 -53 -63 -89 -24 -36
-59 -85 -76 -110 -48 -66 -99 -156 -99 -173 0 -23 34 -47 66 -47 30 0 181 47
223 70 l22 11 -7 -433 c-4 -239 -4 -451 0 -471 11 -59 76 -75 95 -24 5 12 10
235 12 494 l4 472 88 41 c56 26 92 38 102 33 8 -5 31 -33 52 -63 40 -57 71
-72 99 -50 35 30 10 92 -74 184 -32 34 -72 83 -89 109 -23 33 -39 47 -56 47
-47 0 -61 -44 -32 -101 15 -29 13 -49 -5 -49 -5 0 -41 -15 -82 -34 -108 -50
-230 -97 -236 -92 -11 11 200 305 323 450 125 147 154 203 123 234 -23 23 -56
13 -90 -29 -18 -22 -62 -76 -98 -119 -36 -43 -77 -93 -92 -111 l-28 -34 -74
79 -74 80 46 54 c43 50 129 130 272 251 99 84 130 118 130 143 0 13 -5 29 -12
36 -26 26 -58 12 -139 -60z"/>
<path d="M181 787 c-6 -8 -20 -60 -31 -118 -11 -57 -29 -133 -40 -169 -28 -91
-27 -137 4 -151 38 -18 62 3 81 68 37 131 45 162 60 246 15 81 15 90 0 113
-17 26 -56 32 -74 11z"/>
</g>
</svg>
