<?xml version="1.0" standalone="no"?>
<!DOCTYPE svg PUBLIC "-//W3C//DTD SVG 20010904//EN"
 "http://www.w3.org/TR/2001/REC-SVG-20010904/DTD/svg10.dtd">
<svg version="1.0" xmlns="http://www.w3.org/2000/svg"
 width="248.000000pt" height="248.000000pt" viewBox="0 0 248.000000 248.000000"
 preserveAspectRatio="xMidYMid meet">
<metadata>
Created by potrace 1.10, written by Peter Selinger 2001-2011
</metadata>
<g transform="translate(0.000000,248.000000) scale(0.100000,-0.100000)"
fill="#000000" stroke="none">
<path d="M1277 2388 c-11 -18 -13 -52 -8 -156 5 -113 4 -133 -9 -137 -22 -7
-500 -62 -606 -70 -66 -5 -102 -13 -130 -29 l-39 -22 -6 -189 c-7 -202 -26
-498 -35 -528 -3 -9 -9 -52 -14 -95 -19 -177 -53 -366 -90 -502 -33 -122 -64
-206 -173 -473 -10 -23 -8 -30 10 -48 30 -31 67 -19 92 29 50 99 135 326 171
459 51 185 95 458 119 738 26 296 31 366 31 453 0 50 1 92 3 92 1 1 65 7 142
15 77 8 210 23 295 34 248 31 318 39 445 51 126 11 223 23 340 40 39 5 140 14
225 20 190 13 215 17 235 36 19 20 19 58 -1 75 -21 17 -275 0 -579 -40 -126
-17 -248 -31 -271 -31 l-41 0 -6 127 c-7 139 -20 173 -62 173 -15 0 -30 -9
-38 -22z"/>
<path d="M1026 1758 c-9 -12 -16 -29 -16 -38 0 -38 -114 -236 -193 -335 -13
-16 -32 -46 -42 -65 -24 -48 -67 -103 -141 -181 -74 -78 -88 -114 -54 -141 12
-10 27 -18 33 -18 6 0 52 41 101 90 l89 91 -6 -328 c-4 -180 -13 -386 -20
-458 -8 -71 -10 -140 -6 -152 15 -40 77 -38 93 3 3 9 11 66 16 127 28 312 32
427 27 689 l-6 277 66 98 c72 108 140 236 149 283 13 64 -55 108 -90 58z"/>
<path d="M2109 1486 c-3 -3 -54 -10 -114 -16 -110 -11 -201 -24 -415 -60 -63
-11 -187 -25 -275 -31 -88 -6 -166 -16 -172 -21 -20 -16 -15 -53 8 -73 15 -14
34 -19 77 -18 96 2 223 14 317 29 283 47 314 51 525 74 165 18 207 40 182 94
-11 24 -17 26 -70 26 -32 0 -61 -2 -63 -4z"/>
</g>
</svg>
