<?xml version="1.0" standalone="no"?>
<!DOCTYPE svg PUBLIC "-//W3C//DTD SVG 20010904//EN"
 "http://www.w3.org/TR/2001/REC-SVG-20010904/DTD/svg10.dtd">
<svg version="1.0" xmlns="http://www.w3.org/2000/svg"
 width="248.000000pt" height="248.000000pt" viewBox="0 0 248.000000 248.000000"
 preserveAspectRatio="xMidYMid meet">
<metadata>
Created by potrace 1.10, written by Peter Selinger 2001-2011
</metadata>
<g transform="translate(0.000000,248.000000) scale(0.100000,-0.100000)"
fill="#000000" stroke="none">
<path d="M1015 2030 c-77 -10 -194 -28 -260 -39 -66 -12 -151 -26 -190 -32
-38 -6 -99 -15 -134 -20 -71 -10 -101 -30 -101 -64 0 -60 34 -59 425 10 83 14
224 34 315 45 130 15 167 22 177 36 16 22 16 36 1 57 -20 25 -80 27 -233 7z"/>
</g>
</svg>
