<?xml version="1.0" standalone="no"?>
<!DOCTYPE svg PUBLIC "-//W3C//DTD SVG 20010904//EN"
 "http://www.w3.org/TR/2001/REC-SVG-20010904/DTD/svg10.dtd">
<svg version="1.0" xmlns="http://www.w3.org/2000/svg"
 width="248.000000pt" height="248.000000pt" viewBox="0 0 248.000000 248.000000"
 preserveAspectRatio="xMidYMid meet">
<metadata>
Created by potrace 1.10, written by Peter Selinger 2001-2011
</metadata>
<g transform="translate(0.000000,248.000000) scale(0.100000,-0.100000)"
fill="#000000" stroke="none">
<path d="M2106 2128 c-11 -19 -16 -149 -26 -713 -6 -379 -12 -790 -13 -912
l-2 -223 -73 60 c-50 41 -83 60 -101 60 -33 0 -51 -16 -51 -46 0 -43 216 -204
273 -204 33 0 55 23 61 63 3 18 8 340 11 717 3 377 8 794 11 928 5 211 3 247
-11 268 -20 31 -60 32 -79 2z"/>
<path d="M1015 2030 c-77 -10 -194 -28 -260 -39 -66 -12 -151 -26 -190 -32
-38 -6 -99 -15 -134 -20 -70 -10 -101 -30 -101 -64 0 -45 46 -56 161 -35 30 5
83 14 119 20 36 6 75 14 88 17 l22 5 0 -231 c0 -127 -4 -231 -8 -231 -5 0 -55
-7 -113 -15 -320 -46 -432 -65 -445 -75 -19 -17 -18 -54 3 -71 18 -16 83 -15
183 1 36 5 121 19 189 30 68 11 139 20 159 20 l35 0 -7 -579 c-6 -530 -5 -580
10 -596 22 -22 53 -16 75 15 17 23 19 64 25 602 7 574 7 577 28 582 12 2 84
14 161 26 239 35 324 50 350 60 35 13 44 56 17 82 -20 20 -22 21 -109 4 -101
-19 -408 -66 -429 -66 -12 0 -14 39 -14 229 l0 229 33 6 c18 3 109 15 202 25
135 16 172 23 182 37 16 22 16 36 1 57 -20 25 -80 27 -233 7z"/>
<path d="M1486 1738 c-13 -18 -16 -55 -15 -208 1 -271 12 -416 34 -440 20 -22
55 -26 72 -9 18 18 5 627 -13 657 -19 29 -58 29 -78 0z"/>
</g>
</svg>
