<?xml version="1.0" standalone="no"?>
<!DOCTYPE svg PUBLIC "-//W3C//DTD SVG 20010904//EN"
 "http://www.w3.org/TR/2001/REC-SVG-20010904/DTD/svg10.dtd">
<svg version="1.0" xmlns="http://www.w3.org/2000/svg"
 width="248.000000pt" height="248.000000pt" viewBox="0 0 248.000000 248.000000"
 preserveAspectRatio="xMidYMid meet">
<metadata>
Created by potrace 1.10, written by Peter Selinger 2001-2011
</metadata>
<g transform="translate(0.000000,248.000000) scale(0.100000,-0.100000)"
fill="#000000" stroke="none">
<path d="M1412 2367 c-6 -6 -13 -26 -17 -42 -26 -114 -72 -218 -164 -370 -34
-55 -61 -107 -61 -115 0 -40 64 -55 93 -22 19 22 116 177 135 218 15 31 17 31
101 37 47 4 125 10 174 13 71 6 87 4 87 -7 0 -26 -57 -134 -109 -204 -56 -77
-61 -93 -31 -120 33 -30 64 -12 124 73 65 90 102 165 118 233 l11 49 47 0 c77
0 274 31 298 46 17 11 22 23 20 42 -5 43 -33 50 -150 36 -57 -7 -155 -17 -218
-23 -63 -6 -164 -15 -225 -21 -60 -6 -127 -10 -147 -10 l-37 0 13 38 c25 71
28 112 11 138 -17 26 -56 32 -73 11z"/>
<path d="M540 2355 c-7 -8 -25 -50 -40 -93 -31 -88 -149 -323 -215 -427 -25
-38 -45 -78 -45 -87 0 -27 46 -53 73 -41 22 10 68 81 138 211 l37 67 73 13
c41 8 107 21 147 29 40 9 75 13 78 10 9 -9 49 -130 68 -206 20 -78 30 -91 67
-91 61 0 60 48 -3 242 -12 37 -20 69 -18 71 3 3 79 16 169 30 171 27 211 42
211 80 0 50 -39 58 -173 32 -44 -8 -120 -20 -170 -25 -51 -6 -135 -19 -187
-30 -52 -10 -118 -21 -147 -25 l-51 -7 29 73 c36 89 47 153 29 174 -16 19 -54
19 -70 0z"/>
<path d="M749 1684 c-7 -9 -16 -65 -22 -142 -4 -70 -9 -128 -10 -128 -10 -9
-228 -46 -299 -50 -52 -4 -103 -13 -115 -20 -31 -20 -30 -59 2 -80 30 -20 120
-14 275 16 52 10 96 17 98 15 15 -14 -118 -360 -168 -435 -9 -14 -23 -41 -30
-60 -34 -86 -125 -242 -184 -313 -34 -42 -38 -52 -30 -75 7 -19 18 -28 38 -30
38 -5 92 48 148 143 35 58 169 323 231 455 16 35 16 34 11 -60 -2 -52 -9 -251
-15 -442 -12 -388 -10 -403 46 -403 22 0 33 7 41 25 8 16 18 195 28 524 9 275
18 501 20 503 1 2 36 -38 77 -88 182 -223 176 -218 215 -200 52 23 29 71 -124
252 -115 138 -162 199 -162 211 0 17 86 40 230 63 116 19 150 34 150 68 0 34
-19 47 -65 47 -39 0 -213 -28 -278 -45 l-29 -8 7 111 c6 95 5 115 -9 137 -19
29 -57 33 -77 9z"/>
<path d="M2049 1625 c-9 -8 -372 -48 -569 -62 -96 -6 -117 -14 -130 -48 -5
-13 -10 -230 -11 -482 -2 -252 -6 -543 -10 -648 -7 -209 -2 -235 46 -235 47 0
56 32 62 228 l6 179 101 12 c56 6 191 12 302 14 l201 2 6 -177 c6 -201 14
-233 62 -233 47 0 56 30 48 158 -3 60 0 355 7 656 14 605 14 611 -42 630 -32
11 -71 14 -79 6z m19 -287 l-3 -183 -28 3 c-16 2 -52 -2 -80 -8 -72 -14 -347
-40 -434 -40 l-73 0 0 154 c0 85 -2 161 -5 169 -7 16 74 29 285 47 199 18 292
28 298 34 3 3 14 6 24 6 17 0 18 -10 16 -182z m-9 -420 c0 -79 -3 -161 -7
-183 l-7 -40 -230 -6 c-127 -4 -260 -10 -297 -14 l-68 -8 0 167 0 166 45 0
c66 0 356 28 460 44 50 8 93 14 98 15 4 1 7 -63 6 -141z"/>
</g>
</svg>
