<?xml version="1.0" standalone="no"?>
<!DOCTYPE svg PUBLIC "-//W3C//DTD SVG 20010904//EN"
 "http://www.w3.org/TR/2001/REC-SVG-20010904/DTD/svg10.dtd">
<svg version="1.0" xmlns="http://www.w3.org/2000/svg"
 width="248.000000pt" height="248.000000pt" viewBox="0 0 248.000000 248.000000"
 preserveAspectRatio="xMidYMid meet">
<metadata>
Created by potrace 1.10, written by Peter Selinger 2001-2011
</metadata>
<g transform="translate(0.000000,248.000000) scale(0.100000,-0.100000)"
fill="#000000" stroke="none">
<path d="M1412 2367 c-6 -6 -13 -26 -17 -42 -26 -114 -72 -218 -164 -370 -34
-55 -61 -107 -61 -115 0 -40 64 -55 93 -22 19 22 116 177 135 218 15 31 17 31
101 37 47 4 125 10 174 13 71 6 87 4 87 -7 0 -26 -57 -134 -109 -204 -56 -77
-61 -93 -31 -120 33 -30 64 -12 124 73 65 90 102 165 118 233 l11 49 47 0 c77
0 274 31 298 46 17 11 22 23 20 42 -5 43 -33 50 -150 36 -57 -7 -155 -17 -218
-23 -63 -6 -164 -15 -225 -21 -60 -6 -127 -10 -147 -10 l-37 0 13 38 c25 71
28 112 11 138 -17 26 -56 32 -73 11z"/>
<path d="M540 2355 c-7 -8 -25 -50 -40 -93 -31 -88 -149 -323 -215 -427 -25
-38 -45 -78 -45 -87 0 -27 46 -53 73 -41 22 10 68 81 138 211 l37 67 73 13
c41 8 107 21 147 29 40 9 75 13 78 10 9 -9 49 -130 68 -206 20 -78 30 -91 67
-91 61 0 60 48 -3 242 -12 37 -20 69 -18 71 3 3 79 16 169 30 171 27 211 42
211 80 0 50 -39 58 -173 32 -44 -8 -120 -20 -170 -25 -51 -6 -135 -19 -187
-30 -52 -10 -118 -21 -147 -25 l-51 -7 29 73 c36 89 47 153 29 174 -16 19 -54
19 -70 0z"/>
<path d="M1055 1474 c-30 -7 -316 -61 -440 -84 -60 -11 -150 -23 -200 -26
-100 -7 -135 -22 -135 -59 0 -31 35 -55 80 -55 53 0 416 58 525 84 33 8 107
22 165 31 58 10 115 24 128 31 24 16 29 53 10 72 -11 11 -89 15 -133 6z"/>
</g>
</svg>
