<?xml version="1.0" standalone="no"?>
<!DOCTYPE svg PUBLIC "-//W3C//DTD SVG 20010904//EN"
 "http://www.w3.org/TR/2001/REC-SVG-20010904/DTD/svg10.dtd">
<svg version="1.0" xmlns="http://www.w3.org/2000/svg"
 width="248.000000pt" height="248.000000pt" viewBox="0 0 248.000000 248.000000"
 preserveAspectRatio="xMidYMid meet">
<metadata>
Created by potrace 1.10, written by Peter Selinger 2001-2011
</metadata>
<g transform="translate(0.000000,248.000000) scale(0.100000,-0.100000)"
fill="#000000" stroke="none">
<path d="M1412 2367 c-6 -6 -13 -26 -17 -42 -26 -114 -72 -218 -164 -370 -34
-55 -61 -107 -61 -115 0 -40 64 -55 93 -22 20 22 116 178 136 220 13 28 20 32
56 32 22 0 90 4 150 10 61 6 162 15 225 21 219 19 365 40 388 55 17 11 22 23
20 42 -5 43 -33 50 -150 36 -57 -7 -155 -17 -218 -23 -63 -6 -164 -15 -225
-21 -60 -6 -127 -10 -147 -10 l-37 0 13 38 c25 71 28 112 11 138 -17 26 -56
32 -73 11z"/>
<path d="M540 2355 c-7 -8 -25 -50 -40 -93 -31 -88 -149 -323 -215 -427 -25
-38 -45 -78 -45 -87 0 -27 46 -53 73 -41 22 10 68 81 138 211 l37 67 73 13
c41 8 107 21 147 29 40 9 75 13 78 10 9 -9 49 -130 68 -206 20 -78 30 -91 67
-91 61 0 60 48 -3 242 -12 37 -20 69 -18 71 3 3 79 16 169 30 171 27 211 42
211 80 0 50 -39 58 -173 32 -44 -8 -120 -20 -170 -25 -51 -6 -135 -19 -187
-30 -52 -10 -118 -21 -147 -25 l-51 -7 29 73 c36 89 47 153 29 174 -16 19 -54
19 -70 0z"/>
</g>
</svg>
