<?xml version="1.0" standalone="no"?>
<!DOCTYPE svg PUBLIC "-//W3C//DTD SVG 20010904//EN"
 "http://www.w3.org/TR/2001/REC-SVG-20010904/DTD/svg10.dtd">
<svg version="1.0" xmlns="http://www.w3.org/2000/svg"
 width="248.000000pt" height="248.000000pt" viewBox="0 0 248.000000 248.000000"
 preserveAspectRatio="xMidYMid meet">
<metadata>
Created by potrace 1.10, written by Peter Selinger 2001-2011
</metadata>
<g transform="translate(0.000000,248.000000) scale(0.100000,-0.100000)"
fill="#000000" stroke="none">
<path d="M1775 2264 c-151 -20 -309 -43 -420 -59 -55 -8 -185 -27 -290 -40
-104 -14 -230 -32 -279 -40 -49 -8 -110 -15 -136 -15 -25 0 -55 -7 -68 -16
-30 -21 -29 -59 3 -80 28 -18 83 -15 245 11 47 8 171 26 275 40 200 27 257 35
420 60 126 19 299 39 345 39 l35 1 -4 -735 c-2 -404 -8 -833 -15 -953 l-11
-218 -40 30 c-59 45 -115 38 -115 -12 0 -11 36 -56 83 -103 88 -90 117 -102
152 -64 21 23 28 99 44 465 14 304 19 1561 8 1628 -7 43 -13 50 -42 63 -40 16
-55 16 -190 -2z"/>
<path d="M1110 1645 c-8 -2 -82 -16 -165 -30 -264 -48 -387 -74 -402 -86 -22
-19 -12 -62 17 -76 21 -10 44 -9 120 7 165 32 383 72 443 80 32 5 65 14 73 21
18 15 18 53 1 68 -15 12 -64 21 -87 16z"/>
<path d="M1105 1349 c-178 -17 -619 -109 -643 -133 -11 -11 -11 -35 -3 -130 6
-64 18 -148 26 -187 8 -39 15 -85 15 -104 0 -18 7 -40 15 -48 21 -21 103 -30
166 -19 30 6 164 16 299 23 182 8 249 15 261 26 9 7 19 37 22 66 4 29 13 88
21 132 17 91 21 291 6 330 -9 25 -64 57 -92 54 -7 -1 -49 -5 -93 -10z m82
-241 c-3 -79 -11 -164 -17 -190 l-11 -46 -82 -6 c-84 -6 -333 -25 -423 -33
l-52 -5 -16 89 c-9 48 -16 120 -16 158 l0 70 128 27 c144 32 345 66 412 71 25
2 53 4 64 5 18 2 18 -5 13 -140z"/>
</g>
</svg>
