<?xml version="1.0" standalone="no"?>
<!DOCTYPE svg PUBLIC "-//W3C//DTD SVG 20010904//EN"
 "http://www.w3.org/TR/2001/REC-SVG-20010904/DTD/svg10.dtd">
<svg version="1.0" xmlns="http://www.w3.org/2000/svg"
 width="248.000000pt" height="248.000000pt" viewBox="0 0 248.000000 248.000000"
 preserveAspectRatio="xMidYMid meet">
<metadata>
Created by potrace 1.10, written by Peter Selinger 2001-2011
</metadata>
<g transform="translate(0.000000,248.000000) scale(0.100000,-0.100000)"
fill="#000000" stroke="none">
<path d="M1602 2307 c-14 -16 -20 -46 -27 -132 -8 -107 -25 -175 -44 -175 -31
-1 -137 -12 -241 -25 -58 -7 -106 -12 -108 -10 -2 1 27 58 63 126 36 67 65
132 65 144 0 47 -53 61 -87 23 -11 -13 -46 -72 -78 -133 -61 -117 -119 -207
-222 -347 -67 -91 -78 -129 -42 -151 29 -18 63 2 104 61 l40 57 3 -145 c2 -87
-3 -195 -13 -272 -19 -161 -20 -155 10 -174 21 -13 31 -15 50 -6 25 12 29 26
40 132 3 30 10 96 16 147 11 93 8 375 -5 404 -6 13 10 18 106 32 62 9 163 21
223 27 90 8 314 35 461 56 43 6 67 26 67 58 0 55 -17 58 -197 32 -65 -9 -120
-15 -122 -13 -2 2 0 27 6 54 15 83 16 209 1 227 -16 19 -54 21 -69 3z"/>
<path d="M592 2268 c-21 -21 -14 -57 16 -76 15 -9 60 -43 98 -74 71 -58 107
-71 132 -46 26 26 13 56 -44 105 -31 26 -70 60 -87 76 -33 29 -93 37 -115 15z"/>
<path d="M311 1816 c-36 -44 23 -93 162 -136 76 -23 105 -23 120 1 20 32 0 65
-50 83 -27 9 -70 26 -98 38 -68 28 -118 34 -134 14z"/>
<path d="M554 1373 c-43 -54 -113 -140 -156 -191 -43 -51 -78 -99 -78 -107 0
-20 36 -55 56 -55 21 0 61 43 200 217 135 169 144 185 119 213 -36 39 -59 27
-141 -77z"/>
</g>
</svg>
