<?xml version="1.0" standalone="no"?>
<!DOCTYPE svg PUBLIC "-//W3C//DTD SVG 20010904//EN"
 "http://www.w3.org/TR/2001/REC-SVG-20010904/DTD/svg10.dtd">
<svg version="1.0" xmlns="http://www.w3.org/2000/svg"
 width="248.000000pt" height="248.000000pt" viewBox="0 0 248.000000 248.000000"
 preserveAspectRatio="xMidYMid meet">
<metadata>
Created by potrace 1.10, written by Peter Selinger 2001-2011
</metadata>
<g transform="translate(0.000000,248.000000) scale(0.100000,-0.100000)"
fill="#000000" stroke="none">
<path d="M790 2304 c-71 -86 -189 -205 -338 -342 -82 -76 -102 -99 -102 -122
0 -34 10 -43 102 -87 40 -19 93 -51 118 -71 25 -19 47 -37 48 -38 7 -5 -61
-97 -117 -157 -54 -59 -163 -198 -188 -241 -36 -62 6 -113 70 -87 18 7 68 22
112 32 44 11 89 22 99 25 18 6 19 1 12 -112 -3 -66 -11 -299 -16 -518 -9 -351
-8 -403 5 -423 17 -25 56 -31 72 -11 6 7 13 25 17 40 5 23 27 708 30 968 l1
94 85 27 c47 15 88 28 91 28 3 1 25 -26 48 -59 50 -71 79 -93 118 -88 20 2 30
11 37 31 9 24 6 32 -26 65 -48 50 -118 145 -148 201 -42 77 -104 67 -99 -17
l3 -44 -139 -44 c-164 -51 -195 -59 -195 -47 0 5 32 44 70 88 39 43 92 108
117 144 26 36 59 82 75 101 174 217 189 245 156 278 -29 29 -57 13 -133 -79
-41 -50 -75 -95 -75 -100 0 -18 -23 -9 -64 25 -23 18 -66 46 -95 61 l-55 27
55 51 c148 137 221 210 297 296 65 75 82 101 82 126 0 36 -15 55 -46 55 -14 0
-41 -24 -84 -76z"/>
<path d="M1689 2354 c-15 -18 -19 -25 -67 -111 -18 -32 -50 -80 -72 -108 -22
-27 -45 -60 -51 -72 -10 -18 -23 -22 -101 -28 -71 -6 -95 -12 -115 -29 l-25
-22 12 -159 c7 -88 15 -222 19 -297 8 -178 11 -181 138 -179 48 0 112 4 141 7
l52 6 0 -388 c0 -214 -3 -447 -7 -517 l-6 -128 -22 21 c-39 37 -85 20 -85 -31
0 -26 42 -91 98 -151 31 -34 71 -36 98 -7 17 19 20 45 26 283 10 345 4 319 56
255 69 -87 433 -448 482 -478 64 -41 83 -45 110 -23 34 27 21 64 -32 95 -57
33 -425 402 -501 501 -57 75 -59 80 -41 93 115 81 238 193 260 235 17 33 18
70 2 86 -25 25 -53 12 -112 -54 -32 -36 -93 -93 -135 -126 l-76 -60 -3 193
c-1 105 -1 193 1 195 2 2 72 7 156 11 118 5 157 10 173 22 15 13 23 40 34 121
36 261 58 502 49 531 -15 47 -111 57 -339 34 -92 -9 -170 -15 -172 -12 -2 2
11 26 29 53 97 143 123 208 97 239 -16 20 -54 19 -71 -1z m347 -405 c-3 -17
-6 -55 -6 -85 l0 -53 -42 -5 c-205 -26 -298 -37 -393 -46 -60 -6 -133 -13
-161 -16 l-51 -6 -6 63 c-4 34 -7 76 -7 94 l0 32 83 7 c45 3 156 14 247 25 91
10 205 19 254 20 l89 1 -7 -31z m-26 -266 c0 -10 -5 -59 -12 -110 l-12 -91
-111 -6 c-60 -3 -180 -8 -265 -11 -85 -3 -167 -8 -182 -11 l-28 -6 0 94 0 94
133 13 c139 13 274 28 367 41 94 13 110 12 110 -7z"/>
<path d="M1351 993 c-77 -2 -140 -8 -148 -15 -20 -16 -16 -52 8 -74 18 -17 37
-19 145 -19 68 0 124 -2 124 -4 0 -2 -39 -74 -87 -159 -71 -125 -107 -175
-185 -262 -98 -108 -114 -140 -86 -168 27 -27 56 -12 142 76 92 95 125 138
202 272 135 235 158 300 122 336 -19 19 -57 22 -237 17z"/>
<path d="M852 898 c-31 -31 10 -109 118 -223 26 -27 57 -67 69 -88 23 -38 56
-67 78 -67 18 0 43 29 43 52 0 26 -76 142 -120 183 -17 17 -48 53 -68 80 -19
28 -42 56 -51 63 -19 15 -53 16 -69 0z"/>
<path d="M366 858 c-9 -12 -16 -40 -16 -61 0 -42 -15 -100 -61 -244 -43 -130
-32 -186 33 -170 22 6 30 21 61 119 48 151 77 265 77 303 0 40 -25 75 -55 75
-13 0 -31 -10 -39 -22z"/>
</g>
</svg>
