<?xml version="1.0" standalone="no"?>
<!DOCTYPE svg PUBLIC "-//W3C//DTD SVG 20010904//EN"
 "http://www.w3.org/TR/2001/REC-SVG-20010904/DTD/svg10.dtd">
<svg version="1.0" xmlns="http://www.w3.org/2000/svg"
 width="248.000000pt" height="248.000000pt" viewBox="0 0 248.000000 248.000000"
 preserveAspectRatio="xMidYMid meet">
<metadata>
Created by potrace 1.10, written by Peter Selinger 2001-2011
</metadata>
<g transform="translate(0.000000,248.000000) scale(0.100000,-0.100000)"
fill="#000000" stroke="none">
<path d="M1602 2307 c-14 -16 -20 -46 -27 -132 -3 -38 -10 -93 -17 -122 l-11
-52 -66 -6 c-36 -3 -118 -12 -181 -19 -63 -8 -116 -13 -118 -11 -2 1 27 58 63
126 36 67 65 132 65 144 0 47 -53 61 -87 23 -11 -13 -46 -72 -78 -133 -61
-117 -119 -207 -222 -347 -67 -91 -78 -129 -42 -151 29 -18 63 2 104 61 l40
57 3 -142 c3 -189 -19 -387 -47 -417 -54 -57 -3 -104 91 -85 23 4 77 11 118
14 41 3 131 15 200 26 82 14 222 25 408 33 261 10 285 13 298 31 19 26 18 41
-7 66 -21 21 -27 21 -188 15 -91 -4 -195 -9 -230 -13 l-63 -5 4 65 c2 37 7 69
10 73 8 7 130 21 235 27 78 4 103 17 103 52 0 51 -36 57 -242 40 l-98 -8 0 65
0 64 123 18 c67 10 130 23 139 27 20 11 31 40 22 63 -12 31 -45 35 -159 15
-61 -10 -113 -19 -117 -19 -5 0 -8 35 -8 79 l0 79 73 10 c39 6 104 14 142 17
123 12 161 34 147 88 -5 21 -48 41 -71 32 -21 -8 -242 -37 -247 -32 -2 2 0 27
6 54 15 83 16 209 1 227 -16 19 -54 21 -69 3z m-92 -491 l0 -75 -52 -10 c-29
-5 -112 -13 -184 -16 l-131 -7 -7 55 c-3 31 -8 62 -11 70 -5 11 19 17 112 30
65 9 129 18 143 21 14 2 49 4 78 5 l52 1 0 -74z m0 -246 c0 -69 15 -61 -160
-85 -63 -9 -136 -20 -162 -24 -26 -4 -49 -4 -50 0 -2 5 -2 38 0 73 l4 65 61 5
c34 3 107 9 162 14 55 5 110 10 123 10 21 2 22 -2 22 -58z m0 -209 c0 -61 -18
-99 -48 -105 -61 -12 -231 -36 -291 -40 l-63 -5 6 61 c3 34 9 65 13 69 5 4 55
14 113 23 295 46 270 46 270 -3z"/>
<path d="M592 2268 c-21 -21 -14 -57 16 -76 15 -9 60 -43 98 -74 71 -58 107
-71 132 -46 26 26 13 56 -44 105 -31 26 -70 60 -87 76 -33 29 -93 37 -115 15z"/>
<path d="M311 1816 c-36 -44 23 -93 162 -136 76 -23 105 -23 120 1 20 32 0 65
-50 83 -27 9 -70 26 -98 38 -68 28 -118 34 -134 14z"/>
<path d="M554 1373 c-43 -54 -113 -140 -156 -191 -43 -51 -78 -99 -78 -107 0
-20 36 -55 56 -55 21 0 61 43 200 217 135 169 144 185 119 213 -36 39 -59 27
-141 -77z"/>
</g>
</svg>
