<?xml version="1.0" standalone="no"?>
<!DOCTYPE svg PUBLIC "-//W3C//DTD SVG 20010904//EN"
 "http://www.w3.org/TR/2001/REC-SVG-20010904/DTD/svg10.dtd">
<svg version="1.0" xmlns="http://www.w3.org/2000/svg"
 width="248.000000pt" height="248.000000pt" viewBox="0 0 248.000000 248.000000"
 preserveAspectRatio="xMidYMid meet">
<metadata>
Created by potrace 1.10, written by Peter Selinger 2001-2011
</metadata>
<g transform="translate(0.000000,248.000000) scale(0.100000,-0.100000)"
fill="#000000" stroke="none">
<path d="M790 2304 c-69 -83 -184 -200 -339 -342 -82 -76 -101 -99 -101 -122
0 -34 10 -43 102 -87 40 -19 93 -51 118 -71 25 -19 47 -37 48 -38 7 -5 -61
-97 -117 -157 -54 -59 -163 -198 -188 -241 -16 -27 -16 -69 -1 -84 16 -16 53
-15 86 2 15 7 54 19 87 26 33 7 138 37 234 66 166 52 175 53 187 36 48 -69 98
-123 118 -128 39 -9 60 -1 70 29 9 24 6 32 -26 65 -48 50 -118 145 -148 201
-42 77 -104 67 -99 -17 l3 -45 -162 -50 c-90 -27 -165 -47 -169 -44 -3 4 9 24
28 46 92 106 139 165 195 242 34 46 94 124 133 173 71 90 86 127 59 154 -29
29 -56 13 -129 -75 -40 -49 -78 -94 -85 -102 -11 -12 -19 -9 -56 21 -24 19
-68 48 -97 63 l-55 27 55 51 c148 137 221 210 297 296 65 75 82 101 82 126 0
36 -15 55 -46 55 -14 0 -41 -24 -84 -76z"/>
</g>
</svg>
