<?xml version="1.0" standalone="no"?>
<!DOCTYPE svg PUBLIC "-//W3C//DTD SVG 20010904//EN"
 "http://www.w3.org/TR/2001/REC-SVG-20010904/DTD/svg10.dtd">
<svg version="1.0" xmlns="http://www.w3.org/2000/svg"
 width="248.000000pt" height="248.000000pt" viewBox="0 0 248.000000 248.000000"
 preserveAspectRatio="xMidYMid meet">
<metadata>
Created by potrace 1.10, written by Peter Selinger 2001-2011
</metadata>
<g transform="translate(0.000000,248.000000) scale(0.100000,-0.100000)"
fill="#000000" stroke="none">
<path d="M592 2268 c-21 -21 -14 -57 16 -76 15 -9 60 -43 98 -74 71 -58 107
-71 132 -46 26 26 13 56 -44 105 -31 26 -70 60 -87 76 -33 29 -93 37 -115 15z"/>
<path d="M311 1816 c-36 -44 23 -93 162 -136 76 -23 105 -23 120 1 20 32 0 65
-50 83 -27 9 -70 26 -98 38 -68 28 -118 34 -134 14z"/>
</g>
</svg>
