<?xml version="1.0" standalone="no"?>
<!DOCTYPE svg PUBLIC "-//W3C//DTD SVG 20010904//EN"
 "http://www.w3.org/TR/2001/REC-SVG-20010904/DTD/svg10.dtd">
<svg version="1.0" xmlns="http://www.w3.org/2000/svg"
 width="248.000000pt" height="248.000000pt" viewBox="0 0 248.000000 248.000000"
 preserveAspectRatio="xMidYMid meet">
<metadata>
Created by potrace 1.10, written by Peter Selinger 2001-2011
</metadata>
<g transform="translate(0.000000,248.000000) scale(0.100000,-0.100000)"
fill="#000000" stroke="none">
<path d="M790 2304 c-69 -83 -184 -200 -339 -342 -82 -76 -101 -99 -101 -122
0 -34 10 -43 101 -86 40 -19 94 -52 122 -74 70 -56 117 -51 117 11 0 33 -66
92 -149 134 l-55 27 55 51 c148 137 221 210 297 296 65 75 82 101 82 126 0 36
-15 55 -46 55 -14 0 -41 -24 -84 -76z"/>
</g>
</svg>
