<?xml version="1.0" standalone="no"?>
<!DOCTYPE svg PUBLIC "-//W3C//DTD SVG 20010904//EN"
 "http://www.w3.org/TR/2001/REC-SVG-20010904/DTD/svg10.dtd">
<svg version="1.0" xmlns="http://www.w3.org/2000/svg"
 width="248.000000pt" height="248.000000pt" viewBox="0 0 248.000000 248.000000"
 preserveAspectRatio="xMidYMid meet">
<metadata>
Created by potrace 1.10, written by Peter Selinger 2001-2011
</metadata>
<g transform="translate(0.000000,248.000000) scale(0.100000,-0.100000)"
fill="#000000" stroke="none">
<path d="M1340 2390 c-80 -5 -224 -18 -321 -29 -97 -12 -195 -21 -218 -21 -60
0 -85 -28 -77 -88 3 -26 12 -147 19 -269 15 -238 22 -266 72 -279 13 -3 92 -1
175 5 83 6 206 11 275 11 68 0 179 4 247 10 68 5 152 12 188 14 43 3 68 10 76
20 15 22 31 109 43 241 6 61 15 153 20 205 17 180 13 185 -198 186 -86 1 -221
-2 -301 -6z m395 -137 c-2 -21 -7 -63 -10 -93 l-6 -55 -242 -2 c-133 0 -289
-6 -347 -12 -58 -6 -144 -12 -191 -14 l-86 -2 -11 75 c-6 47 -7 77 -1 81 33
20 480 55 747 57 l152 2 -5 -37z m-29 -305 c-3 -29 -6 -62 -6 -74 0 -20 -8
-22 -138 -32 -76 -7 -192 -12 -258 -12 -65 0 -190 -5 -277 -11 -87 -6 -160
-10 -162 -8 -2 2 -5 38 -6 79 l-2 75 119 7 c65 4 173 12 239 16 66 5 205 9
309 10 l189 2 -7 -52z"/>
<path d="M1840 1639 c-294 -25 -459 -36 -880 -59 -511 -28 -674 -42 -695 -60
-24 -20 -15 -63 17 -78 21 -10 50 -11 130 -3 57 5 204 15 328 21 124 6 279 15
345 21 66 5 203 14 305 20 102 5 239 14 305 20 66 5 231 13 367 17 142 4 251
11 256 17 19 19 22 51 8 71 -13 18 -28 19 -198 20 -101 1 -230 -3 -288 -7z"/>
<path d="M750 1365 c-8 -10 -10 -30 -6 -57 3 -24 10 -152 16 -285 5 -133 14
-253 19 -266 17 -45 74 -46 91 -2 10 25 -6 441 -20 529 -5 32 -17 67 -26 77
-21 23 -57 25 -74 4z"/>
</g>
</svg>
