<?xml version="1.0" standalone="no"?>
<!DOCTYPE svg PUBLIC "-//W3C//DTD SVG 20010904//EN"
 "http://www.w3.org/TR/2001/REC-SVG-20010904/DTD/svg10.dtd">
<svg version="1.0" xmlns="http://www.w3.org/2000/svg"
 width="248.000000pt" height="248.000000pt" viewBox="0 0 248.000000 248.000000"
 preserveAspectRatio="xMidYMid meet">
<metadata>
Created by potrace 1.10, written by Peter Selinger 2001-2011
</metadata>
<g transform="translate(0.000000,248.000000) scale(0.100000,-0.100000)"
fill="#000000" stroke="none">
<path d="M1340 2390 c-80 -5 -224 -18 -321 -29 -97 -12 -195 -21 -218 -21 -60
0 -85 -28 -77 -88 3 -26 12 -147 19 -269 15 -240 24 -273 71 -273 41 0 48 22
47 131 -1 55 -3 106 -4 112 -1 8 35 14 113 19 63 3 180 11 260 17 80 5 220 10
313 10 146 1 167 -1 167 -15 0 -8 -5 -59 -11 -112 -11 -93 -11 -96 10 -113 32
-26 63 -11 79 37 15 42 25 123 44 339 16 186 14 213 -11 239 -20 19 -33 21
-179 22 -86 1 -222 -2 -302 -6z m395 -137 c-2 -21 -7 -63 -10 -93 l-6 -55
-242 -2 c-133 0 -289 -6 -347 -12 -58 -6 -144 -12 -191 -14 l-86 -2 -11 75
c-6 47 -7 77 -1 81 33 20 480 55 747 57 l152 2 -5 -37z"/>
</g>
</svg>
