<?xml version="1.0" standalone="no"?>
<!DOCTYPE svg PUBLIC "-//W3C//DTD SVG 20010904//EN"
 "http://www.w3.org/TR/2001/REC-SVG-20010904/DTD/svg10.dtd">
<svg version="1.0" xmlns="http://www.w3.org/2000/svg"
 width="248.000000pt" height="248.000000pt" viewBox="0 0 248.000000 248.000000"
 preserveAspectRatio="xMidYMid meet">
<metadata>
Created by potrace 1.10, written by Peter Selinger 2001-2011
</metadata>
<g transform="translate(0.000000,248.000000) scale(0.100000,-0.100000)"
fill="#000000" stroke="none">
<path d="M1340 2390 c-80 -5 -224 -18 -321 -29 -97 -12 -195 -21 -218 -21 -60
0 -85 -28 -77 -88 3 -26 12 -147 19 -269 15 -240 24 -273 71 -273 39 0 49 23
47 110 -2 112 -19 361 -27 387 -7 27 -7 27 171 48 158 18 446 35 614 35 123 0
123 0 118 -22 -3 -13 -8 -63 -12 -113 -3 -49 -13 -155 -22 -234 l-16 -145 22
-17 c32 -26 63 -11 79 37 15 42 25 123 44 339 16 186 14 213 -11 239 -20 19
-33 21 -179 22 -86 1 -222 -2 -302 -6z"/>
</g>
</svg>
