<?xml version="1.0" standalone="no"?>
<!DOCTYPE svg PUBLIC "-//W3C//DTD SVG 20010904//EN"
 "http://www.w3.org/TR/2001/REC-SVG-20010904/DTD/svg10.dtd">
<svg version="1.0" xmlns="http://www.w3.org/2000/svg"
 width="248.000000pt" height="248.000000pt" viewBox="0 0 248.000000 248.000000"
 preserveAspectRatio="xMidYMid meet">
<metadata>
Created by potrace 1.10, written by Peter Selinger 2001-2011
</metadata>
<g transform="translate(0.000000,248.000000) scale(0.100000,-0.100000)"
fill="#000000" stroke="none">
<path d="M698 2233 c-9 -10 -19 -29 -23 -43 -13 -44 -85 -180 -132 -251 -49
-73 -53 -111 -13 -124 38 -12 62 7 116 91 53 82 55 84 94 84 22 0 80 8 128 19
48 10 141 27 207 36 66 9 130 23 143 31 29 19 29 59 0 78 -20 12 -41 11 -173
-9 -82 -13 -178 -29 -212 -36 -34 -7 -65 -10 -69 -6 -3 3 -1 20 5 38 14 42 14
82 -1 97 -17 17 -53 15 -70 -5z"/>
</g>
</svg>
