<?xml version="1.0" standalone="no"?>
<!DOCTYPE svg PUBLIC "-//W3C//DTD SVG 20010904//EN"
 "http://www.w3.org/TR/2001/REC-SVG-20010904/DTD/svg10.dtd">
<svg version="1.0" xmlns="http://www.w3.org/2000/svg"
 width="248.000000pt" height="248.000000pt" viewBox="0 0 248.000000 248.000000"
 preserveAspectRatio="xMidYMid meet">
<metadata>
Created by potrace 1.10, written by Peter Selinger 2001-2011
</metadata>
<g transform="translate(0.000000,248.000000) scale(0.100000,-0.100000)"
fill="#000000" stroke="none">
<path d="M892 2308 c-8 -8 -12 -45 -12 -100 l0 -87 -37 -10 c-21 -6 -49 -11
-62 -11 -20 0 -22 4 -17 23 16 52 18 97 6 112 -28 34 -79 10 -95 -45 -13 -44
-85 -180 -132 -251 -49 -73 -53 -111 -13 -124 38 -12 62 7 115 89 l53 83 69 6
c37 3 76 9 87 13 17 7 18 2 14 -89 -2 -53 -6 -98 -9 -101 -2 -3 -52 -12 -109
-21 -146 -22 -291 -55 -317 -71 -30 -19 -30 -59 0 -79 22 -14 33 -13 133 9
127 28 230 46 268 46 23 0 26 -4 26 -35 0 -38 14 -33 -155 -55 -112 -14 -159
-26 -175 -45 -10 -12 -10 -48 -2 -171 12 -169 23 -204 66 -204 45 0 50 19 42
169 l-6 139 52 6 c29 3 79 8 110 12 l56 6 4 -132 c3 -117 5 -133 22 -146 25
-18 37 -18 62 0 17 13 19 29 22 155 l4 141 26 6 c15 3 41 10 57 14 17 5 63 11
104 15 l74 6 -7 -88 c-10 -128 -12 -133 -50 -133 -80 0 -73 -76 11 -119 34
-18 68 -13 92 13 25 27 47 140 57 296 8 132 5 136 -119 133 -52 -1 -125 -9
-161 -18 -37 -8 -69 -15 -72 -15 -2 0 -4 16 -4 35 0 28 4 36 23 39 129 27 184
37 251 46 107 14 144 50 99 96 -20 20 -96 15 -248 -16 -53 -11 -104 -20 -111
-20 -12 0 -13 17 -8 98 4 53 8 98 9 100 2 2 49 10 106 19 117 17 149 32 149
68 0 46 -33 55 -130 39 -125 -20 -116 -24 -123 57 -7 77 -25 109 -62 109 -11
0 -26 -5 -33 -12z"/>
<path d="M1446 2048 c-13 -18 -16 -52 -16 -183 0 -182 8 -210 55 -210 47 0 55
28 55 205 0 105 -4 163 -13 180 -17 34 -60 39 -81 8z"/>
</g>
</svg>
