<?xml version="1.0" standalone="no"?>
<!DOCTYPE svg PUBLIC "-//W3C//DTD SVG 20010904//EN"
 "http://www.w3.org/TR/2001/REC-SVG-20010904/DTD/svg10.dtd">
<svg version="1.0" xmlns="http://www.w3.org/2000/svg"
 width="248.000000pt" height="248.000000pt" viewBox="0 0 248.000000 248.000000"
 preserveAspectRatio="xMidYMid meet">
<metadata>
Created by potrace 1.10, written by Peter Selinger 2001-2011
</metadata>
<g transform="translate(0.000000,248.000000) scale(0.100000,-0.100000)"
fill="#000000" stroke="none">
<path d="M582 2288 c-22 -22 -12 -50 36 -103 27 -29 62 -79 78 -111 21 -43 35
-60 52 -62 89 -13 58 128 -53 243 -46 47 -87 59 -113 33z"/>
<path d="M2005 2159 c-22 -4 -60 -8 -85 -8 -24 -1 -87 -8 -140 -16 -231 -36
-307 -45 -403 -51 -60 -4 -111 -12 -124 -20 -31 -20 -30 -59 2 -80 30 -20 125
-15 320 15 223 35 454 61 547 61 81 0 113 16 113 55 0 21 -7 33 -25 42 -28 14
-142 15 -205 2z"/>
<path d="M920 1949 c-52 -4 -133 -15 -180 -24 -47 -9 -126 -22 -176 -30 -50
-8 -120 -21 -155 -29 -35 -8 -98 -20 -139 -26 -93 -15 -122 -32 -118 -68 4
-37 41 -53 98 -42 25 4 106 20 180 34 74 14 185 34 246 46 62 11 163 25 225
30 182 16 213 24 224 60 3 10 1 28 -5 40 -12 22 -32 23 -200 9z"/>
<path d="M1951 1886 c-7 -8 -19 -66 -27 -128 -8 -62 -26 -152 -39 -200 -29
-101 -31 -131 -9 -152 56 -57 103 41 146 303 19 119 20 137 7 160 -17 30 -60
39 -78 17z"/>
<path d="M1305 1747 c-16 -26 -13 -56 30 -272 13 -66 26 -137 30 -158 11 -65
83 -75 99 -13 3 14 -7 92 -23 173 -16 81 -33 171 -36 198 -4 28 -14 60 -21 73
-19 29 -59 29 -79 -1z"/>
<path d="M675 1565 c-60 -12 -137 -30 -170 -39 -32 -9 -67 -16 -76 -16 -21 0
-49 -32 -49 -56 0 -48 44 -55 161 -25 80 20 216 46 291 56 51 7 78 25 78 55 0
55 -60 62 -235 25z"/>
<path d="M2240 1276 c-3 -2 -93 -7 -200 -11 -107 -4 -198 -9 -201 -11 -3 -2
-66 -8 -140 -14 -346 -28 -583 -62 -611 -87 -22 -20 -23 -56 -2 -74 12 -10 37
-9 138 4 67 10 191 24 276 32 85 8 202 19 260 25 58 5 211 15 340 21 273 12
307 19 316 56 12 47 -5 58 -93 61 -43 1 -81 1 -83 -2z"/>
<path d="M805 1258 c-130 -20 -369 -81 -392 -99 -22 -19 -15 -57 13 -75 24
-16 30 -16 140 15 63 18 158 39 210 46 117 18 148 31 152 66 5 46 -32 61 -123
47z"/>
<path d="M710 955 c-90 -11 -178 -29 -314 -63 -16 -4 -38 -19 -49 -34 -19 -26
-20 -29 -4 -135 17 -109 27 -205 47 -413 18 -187 19 -188 85 -190 96 -1 343
12 372 21 64 20 86 152 87 521 1 249 0 258 -20 278 -28 28 -76 32 -204 15z
m120 -267 c0 -172 -14 -400 -25 -430 -5 -12 -30 -17 -123 -21 -64 -3 -129 -9
-144 -12 -33 -9 -37 2 -48 143 -14 162 -29 302 -40 355 -6 26 -10 54 -10 61 0
20 240 70 358 75 l32 1 0 -172z"/>
</g>
</svg>
