<?xml version="1.0" standalone="no"?>
<!DOCTYPE svg PUBLIC "-//W3C//DTD SVG 20010904//EN"
 "http://www.w3.org/TR/2001/REC-SVG-20010904/DTD/svg10.dtd">
<svg version="1.0" xmlns="http://www.w3.org/2000/svg"
 width="248.000000pt" height="248.000000pt" viewBox="0 0 248.000000 248.000000"
 preserveAspectRatio="xMidYMid meet">
<metadata>
Created by potrace 1.10, written by Peter Selinger 2001-2011
</metadata>
<g transform="translate(0.000000,248.000000) scale(0.100000,-0.100000)"
fill="#000000" stroke="none">
<path d="M406 2118 c-10 -18 -15 -94 -20 -338 -4 -173 -11 -380 -16 -460 -11
-180 -12 -786 -1 -938 6 -86 13 -117 26 -132 20 -22 55 -26 71 -10 7 7 9 157
6 453 -3 270 0 522 7 647 6 113 14 327 18 477 6 244 4 274 -11 297 -21 33 -60
34 -80 4z"/>
</g>
</svg>
