<?xml version="1.0" standalone="no"?>
<!DOCTYPE svg PUBLIC "-//W3C//DTD SVG 20010904//EN"
 "http://www.w3.org/TR/2001/REC-SVG-20010904/DTD/svg10.dtd">
<svg version="1.0" xmlns="http://www.w3.org/2000/svg"
 width="248.000000pt" height="248.000000pt" viewBox="0 0 248.000000 248.000000"
 preserveAspectRatio="xMidYMid meet">
<metadata>
Created by potrace 1.10, written by Peter Selinger 2001-2011
</metadata>
<g transform="translate(0.000000,248.000000) scale(0.100000,-0.100000)"
fill="#000000" stroke="none">
<path d="M582 2288 c-22 -22 -12 -50 36 -103 27 -29 62 -79 78 -111 21 -43 35
-60 52 -62 89 -13 58 128 -53 243 -46 47 -87 59 -113 33z"/>
<path d="M920 1949 c-52 -4 -133 -15 -180 -24 -47 -9 -126 -22 -176 -30 -50
-8 -120 -21 -155 -29 -35 -8 -98 -20 -139 -26 -93 -15 -122 -32 -118 -68 4
-37 41 -53 98 -42 25 4 106 20 180 34 74 14 185 34 246 46 62 11 163 25 225
30 182 16 213 24 224 60 3 10 1 28 -5 40 -12 22 -32 23 -200 9z"/>
<path d="M675 1565 c-60 -12 -137 -30 -170 -39 -32 -9 -67 -16 -76 -16 -21 0
-49 -32 -49 -56 0 -48 44 -55 161 -25 80 20 216 46 291 56 51 7 78 25 78 55 0
55 -60 62 -235 25z"/>
<path d="M805 1258 c-130 -20 -369 -81 -392 -99 -22 -19 -15 -57 13 -75 24
-16 30 -16 140 15 63 18 158 39 210 46 117 18 148 31 152 66 5 46 -32 61 -123
47z"/>
</g>
</svg>
