<?xml version="1.0" standalone="no"?>
<!DOCTYPE svg PUBLIC "-//W3C//DTD SVG 20010904//EN"
 "http://www.w3.org/TR/2001/REC-SVG-20010904/DTD/svg10.dtd">
<svg version="1.0" xmlns="http://www.w3.org/2000/svg"
 width="248.000000pt" height="248.000000pt" viewBox="0 0 248.000000 248.000000"
 preserveAspectRatio="xMidYMid meet">
<metadata>
Created by potrace 1.10, written by Peter Selinger 2001-2011
</metadata>
<g transform="translate(0.000000,248.000000) scale(0.100000,-0.100000)"
fill="#000000" stroke="none">
<path d="M1535 2275 c-104 -7 -239 -20 -300 -28 -155 -22 -358 -45 -505 -57
-269 -23 -311 -33 -329 -83 -4 -12 -11 -155 -14 -317 -4 -162 -12 -383 -18
-490 -7 -121 -9 -344 -6 -590 6 -416 14 -488 52 -517 17 -12 140 -13 868 -9
466 3 852 8 857 11 19 12 31 122 47 430 33 626 28 1139 -13 1435 -20 141 -29
172 -60 201 -25 23 -30 24 -207 26 -100 0 -267 -5 -372 -12z m519 -122 c50
-252 59 -901 23 -1548 -9 -154 -16 -287 -17 -295 0 -13 -96 -15 -788 -18
l-789 -4 -6 99 c-12 173 -7 778 8 1088 8 165 15 364 15 441 l0 142 33 5 c17 4
88 11 157 17 69 6 179 17 245 25 66 8 149 17 185 20 l65 5 -3 -137 c-2 -76 -7
-142 -12 -146 -4 -5 -54 -13 -111 -19 -127 -12 -154 -23 -154 -63 0 -23 7 -33
29 -44 25 -12 44 -12 132 0 l103 14 3 -67 3 -68 -40 -4 c-68 -8 -285 -26 -385
-32 -110 -7 -143 -22 -138 -62 5 -47 41 -55 176 -43 64 7 205 18 312 26 107 8
238 19 290 24 52 6 156 15 230 22 144 12 255 33 277 50 18 15 16 54 -2 69 -20
16 -42 16 -200 -3 -147 -18 -349 -37 -389 -37 -26 0 -26 1 -26 70 l0 69 33 5
c17 3 59 8 92 11 213 23 225 27 225 71 0 14 -10 30 -26 41 -23 15 -36 15 -112
5 -48 -6 -113 -14 -144 -18 l-56 -6 -4 128 c-2 71 -7 136 -12 146 -6 14 3 17
76 23 187 15 342 22 515 24 l181 1 6 -27z"/>
<path d="M1450 1429 c-80 -4 -172 -13 -206 -19 -33 -5 -112 -10 -175 -10 -142
0 -163 -9 -167 -68 -3 -42 29 -227 48 -276 11 -29 42 -41 69 -27 11 6 54 11
96 11 l76 0 -18 -31 c-32 -54 -259 -251 -361 -312 -76 -46 -84 -108 -16 -115
41 -4 166 81 313 212 l66 59 3 -29 c1 -16 -1 -126 -6 -244 -11 -243 -7 -265
43 -265 50 0 56 28 67 309 6 138 12 253 14 255 1 2 26 -18 53 -44 28 -26 61
-55 73 -63 13 -9 56 -46 97 -84 80 -74 215 -179 263 -204 35 -18 77 -15 91 7
15 25 0 64 -30 78 -39 18 -200 142 -248 191 -39 40 -39 42 -20 56 117 84 151
127 128 163 -20 31 -56 24 -118 -25 -33 -25 -74 -53 -92 -62 -30 -14 -32 -14
-75 21 -39 32 -108 109 -108 120 0 3 53 8 118 11 150 8 182 17 204 56 23 40
60 191 61 252 3 84 -17 91 -243 77z m130 -124 c0 -27 -26 -135 -35 -144 -3 -3
-120 -7 -259 -9 l-254 -4 -11 51 c-20 93 -21 91 62 91 40 0 100 5 133 11 32 6
124 14 204 18 80 5 148 9 153 9 4 1 7 -9 7 -23z"/>
</g>
</svg>
