<?xml version="1.0" standalone="no"?>
<!DOCTYPE svg PUBLIC "-//W3C//DTD SVG 20010904//EN"
 "http://www.w3.org/TR/2001/REC-SVG-20010904/DTD/svg10.dtd">
<svg version="1.0" xmlns="http://www.w3.org/2000/svg"
 width="248.000000pt" height="248.000000pt" viewBox="0 0 248.000000 248.000000"
 preserveAspectRatio="xMidYMid meet">
<metadata>
Created by potrace 1.10, written by Peter Selinger 2001-2011
</metadata>
<g transform="translate(0.000000,248.000000) scale(0.100000,-0.100000)"
fill="#000000" stroke="none">
<path d="M619 2353 c-11 -12 -15 -69 -19 -227 l-5 -210 -95 -17 c-52 -10 -118
-18 -145 -18 -59 -1 -95 -22 -95 -56 0 -53 71 -68 192 -41 35 8 80 17 101 20
l37 7 0 -128 c0 -70 -3 -206 -7 -302 l-6 -174 -166 -79 c-263 -125 -256 -121
-259 -146 -5 -31 15 -52 47 -52 42 0 148 44 312 131 31 16 60 29 63 29 8 0 -2
-590 -10 -629 -4 -18 -8 -21 -17 -12 -21 21 -66 13 -79 -14 -9 -21 -7 -36 17
-95 33 -81 66 -120 104 -120 73 1 78 25 91 451 5 200 10 390 10 421 l0 57 60
32 c74 39 140 95 140 118 0 21 -30 51 -50 51 -8 0 -42 -19 -77 -41 -35 -23
-66 -39 -69 -36 -3 2 -2 129 2 281 l7 276 36 5 c175 27 204 39 199 83 -5 42
-36 51 -116 36 -37 -7 -77 -13 -89 -14 l-23 0 0 193 c0 158 -3 197 -16 215
-18 26 -56 29 -75 5z"/>
</g>
</svg>
