<?xml version="1.0" standalone="no"?>
<!DOCTYPE svg PUBLIC "-//W3C//DTD SVG 20010904//EN"
 "http://www.w3.org/TR/2001/REC-SVG-20010904/DTD/svg10.dtd">
<svg version="1.0" xmlns="http://www.w3.org/2000/svg"
 width="248.000000pt" height="248.000000pt" viewBox="0 0 248.000000 248.000000"
 preserveAspectRatio="xMidYMid meet">
<metadata>
Created by potrace 1.10, written by Peter Selinger 2001-2011
</metadata>
<g transform="translate(0.000000,248.000000) scale(0.100000,-0.100000)"
fill="#000000" stroke="none">
<path d="M582 2288 c-22 -22 -12 -50 36 -103 27 -29 62 -79 78 -111 21 -43 35
-60 52 -62 89 -13 58 128 -53 243 -46 47 -87 59 -113 33z"/>
<path d="M920 1949 c-52 -4 -133 -15 -180 -24 -47 -9 -126 -22 -176 -30 -50
-8 -120 -21 -155 -29 -35 -8 -98 -20 -139 -26 -93 -15 -122 -32 -118 -68 4
-37 41 -53 98 -42 25 4 106 20 180 34 74 14 185 34 246 46 62 11 163 25 225
30 182 16 213 24 224 60 3 10 1 28 -5 40 -12 22 -32 23 -200 9z"/>
</g>
</svg>
