<?xml version="1.0" standalone="no"?>
<!DOCTYPE svg PUBLIC "-//W3C//DTD SVG 20010904//EN"
 "http://www.w3.org/TR/2001/REC-SVG-20010904/DTD/svg10.dtd">
<svg version="1.0" xmlns="http://www.w3.org/2000/svg"
 width="248.000000pt" height="248.000000pt" viewBox="0 0 248.000000 248.000000"
 preserveAspectRatio="xMidYMid meet">
<metadata>
Created by potrace 1.10, written by Peter Selinger 2001-2011
</metadata>
<g transform="translate(0.000000,248.000000) scale(0.100000,-0.100000)"
fill="#000000" stroke="none">
<path d="M565 2280 c-38 -5 -130 -14 -203 -21 -73 -7 -141 -18 -149 -24 -15
-11 -16 -114 -14 -1056 2 -896 4 -1047 17 -1067 19 -30 59 -29 79 2 14 22 16
128 14 1028 l-1 1003 43 6 c24 4 88 10 142 14 l98 7 -46 -65 c-25 -36 -65 -87
-89 -114 -49 -55 -76 -102 -76 -134 0 -14 22 -43 59 -78 78 -75 104 -148 105
-301 1 -95 -2 -111 -27 -164 -30 -65 -38 -65 -77 0 -23 36 -49 49 -80 39 -49
-15 -27 -86 55 -183 68 -79 121 -53 191 91 48 101 59 180 40 304 -18 119 -59
220 -113 275 l-36 37 44 52 c67 80 219 292 219 307 0 6 -9 21 -20 32 -22 22
-51 23 -175 10z"/>
<path d="M1290 1908 c-47 -4 -153 -14 -237 -22 -89 -8 -159 -18 -168 -26 -23
-19 -18 -57 10 -76 22 -14 40 -15 172 -4 81 6 184 15 227 21 44 5 107 9 140 9
79 0 111 16 111 55 0 54 -56 64 -255 43z"/>
</g>
</svg>
