<?xml version="1.0" standalone="no"?>
<!DOCTYPE svg PUBLIC "-//W3C//DTD SVG 20010904//EN"
 "http://www.w3.org/TR/2001/REC-SVG-20010904/DTD/svg10.dtd">
<svg version="1.0" xmlns="http://www.w3.org/2000/svg"
 width="248.000000pt" height="248.000000pt" viewBox="0 0 248.000000 248.000000"
 preserveAspectRatio="xMidYMid meet">
<metadata>
Created by potrace 1.10, written by Peter Selinger 2001-2011
</metadata>
<g transform="translate(0.000000,248.000000) scale(0.100000,-0.100000)"
fill="#000000" stroke="none">
<path d="M565 2280 c-38 -5 -128 -14 -200 -20 -146 -14 -178 -27 -173 -68 5
-45 45 -57 147 -43 47 6 123 14 169 17 l83 7 -45 -66 c-26 -36 -66 -87 -90
-114 -49 -55 -76 -102 -76 -134 0 -14 22 -43 59 -78 78 -75 104 -148 105 -301
1 -95 -2 -111 -27 -164 -30 -65 -38 -65 -77 0 -23 36 -49 49 -80 39 -49 -15
-27 -86 55 -183 68 -79 121 -53 191 91 48 101 59 180 40 304 -18 119 -59 220
-113 275 l-36 37 44 52 c67 80 219 292 219 307 0 6 -9 21 -20 32 -22 22 -51
23 -175 10z"/>
</g>
</svg>
