<?xml version="1.0" standalone="no"?>
<!DOCTYPE svg PUBLIC "-//W3C//DTD SVG 20010904//EN"
 "http://www.w3.org/TR/2001/REC-SVG-20010904/DTD/svg10.dtd">
<svg version="1.0" xmlns="http://www.w3.org/2000/svg"
 width="248.000000pt" height="248.000000pt" viewBox="0 0 248.000000 248.000000"
 preserveAspectRatio="xMidYMid meet">
<metadata>
Created by potrace 1.10, written by Peter Selinger 2001-2011
</metadata>
<g transform="translate(0.000000,248.000000) scale(0.100000,-0.100000)"
fill="#000000" stroke="none">
<path d="M1005 2420 c-60 -5 -184 -14 -275 -20 -117 -8 -172 -16 -189 -27
l-24 -15 8 -372 c4 -239 11 -376 18 -384 5 -7 24 -12 41 -10 53 5 58 28 52
249 l-5 197 32 5 c18 4 86 11 152 17 66 6 138 15 160 20 22 5 63 10 91 10 l51
0 -5 -78 c-5 -85 6 -107 50 -100 37 5 58 62 61 162 3 118 -1 121 -143 121
l-110 -1 0 57 0 56 102 7 c119 8 152 20 156 57 6 52 -44 63 -223 49z m-145
-184 l0 -64 -52 -6 c-29 -3 -81 -9 -115 -12 l-63 -7 0 71 0 71 68 4 c37 2 88
4 115 5 l47 2 0 -64z"/>
</g>
</svg>
