<?xml version="1.0" standalone="no"?>
<!DOCTYPE svg PUBLIC "-//W3C//DTD SVG 20010904//EN"
 "http://www.w3.org/TR/2001/REC-SVG-20010904/DTD/svg10.dtd">
<svg version="1.0" xmlns="http://www.w3.org/2000/svg"
 width="248.000000pt" height="248.000000pt" viewBox="0 0 248.000000 248.000000"
 preserveAspectRatio="xMidYMid meet">
<metadata>
Created by potrace 1.10, written by Peter Selinger 2001-2011
</metadata>
<g transform="translate(0.000000,248.000000) scale(0.100000,-0.100000)"
fill="#000000" stroke="none">
<path d="M841 2409 c-211 -14 -279 -22 -298 -35 l-25 -16 6 -376 c5 -343 8
-378 23 -390 14 -11 41 -12 113 -8 52 4 197 11 321 16 124 5 238 14 252 19 48
19 43 84 -7 93 -14 3 -81 3 -150 0 l-126 -5 0 75 0 75 99 10 c58 5 107 16 117
24 34 28 55 95 57 183 3 118 -1 121 -143 121 l-110 -1 0 57 0 56 102 7 c125 9
153 20 153 61 0 21 -7 33 -25 42 -29 15 -11 15 -359 -8z m19 -173 l0 -63 -47
-6 c-27 -4 -78 -9 -115 -13 l-68 -7 0 71 0 71 68 4 c37 2 88 4 115 5 l47 2 0
-64z m253 -198 c-3 -29 -7 -54 -8 -55 -1 -2 -24 -5 -51 -8 -27 -3 -85 -10
-129 -15 -44 -5 -128 -11 -187 -14 l-108 -4 0 48 0 49 43 6 c23 3 105 12 181
20 77 8 142 17 144 20 3 3 31 5 63 5 l58 0 -6 -52z m-273 -268 l0 -70 -47 0
c-27 0 -72 -3 -100 -6 l-53 -7 0 70 c0 38 3 73 7 76 3 4 48 7 100 7 l93 0 0
-70z"/>
<path d="M1376 2368 c-7 -13 -17 -50 -20 -82 -7 -64 -65 -207 -98 -243 -43
-46 8 -102 69 -74 17 8 35 34 56 82 22 47 38 71 52 73 11 3 92 9 179 16 88 6
192 15 230 20 39 6 117 14 174 18 110 10 142 25 142 67 0 41 -22 48 -127 41
-54 -4 -147 -13 -208 -21 -60 -7 -157 -16 -215 -20 -58 -3 -116 -8 -129 -11
-23 -5 -24 -4 -17 53 7 68 -9 103 -49 103 -15 0 -30 -9 -39 -22z"/>
<path d="M1810 1950 c-41 -4 -120 -12 -175 -19 -209 -25 -245 -38 -245 -86 0
-45 18 -48 172 -30 79 9 208 22 288 29 80 7 155 18 168 25 24 13 30 59 10 79
-13 13 -89 13 -218 2z"/>
<path d="M1700 1606 c-3 -3 -78 -12 -165 -21 -88 -9 -196 -20 -240 -25 -105
-13 -277 -28 -393 -37 -51 -3 -95 -10 -97 -14 -3 -4 -7 -224 -9 -488 -3 -453
-2 -482 15 -497 25 -22 67 -11 79 22 6 14 10 71 10 128 l0 102 103 12 c56 6
163 18 237 26 74 9 199 18 278 22 l142 7 0 -144 c0 -115 3 -149 16 -167 19
-28 69 -30 83 -3 7 11 10 133 9 317 -1 196 2 325 10 374 7 41 14 137 15 212 2
111 -1 140 -13 152 -16 16 -71 31 -80 22z m-15 -218 c-4 -62 -9 -115 -11 -117
-2 -2 -90 -10 -196 -17 -210 -14 -420 -31 -510 -40 l-57 -6 -3 102 c-2 63 1
104 7 106 6 1 69 8 140 14 72 6 166 15 210 20 44 5 152 17 240 26 88 8 162 17
164 20 19 19 23 -8 16 -108z m-25 -302 c0 -40 -3 -87 -6 -103 l-6 -30 -106 -7
c-174 -12 -424 -36 -472 -46 -25 -5 -71 -9 -102 -10 l-58 0 0 104 0 103 43 7
c49 9 204 21 442 36 94 6 181 12 195 14 74 9 70 13 70 -68z"/>
</g>
</svg>
