<?xml version="1.0" standalone="no"?>
<!DOCTYPE svg PUBLIC "-//W3C//DTD SVG 20010904//EN"
 "http://www.w3.org/TR/2001/REC-SVG-20010904/DTD/svg10.dtd">
<svg version="1.0" xmlns="http://www.w3.org/2000/svg"
 width="248.000000pt" height="248.000000pt" viewBox="0 0 248.000000 248.000000"
 preserveAspectRatio="xMidYMid meet">
<metadata>
Created by potrace 1.10, written by Peter Selinger 2001-2011
</metadata>
<g transform="translate(0.000000,248.000000) scale(0.100000,-0.100000)"
fill="#000000" stroke="none">
<path d="M1005 2420 c-60 -5 -184 -14 -275 -20 -117 -8 -172 -16 -189 -27
l-24 -15 8 -372 c4 -239 11 -376 18 -384 5 -7 24 -12 41 -10 56 5 57 18 50
376 l-7 322 34 0 c109 0 517 33 538 43 30 14 40 57 18 75 -21 18 -89 21 -212
12z"/>
</g>
</svg>
