<?xml version="1.0" standalone="no"?>
<!DOCTYPE svg PUBLIC "-//W3C//DTD SVG 20010904//EN"
 "http://www.w3.org/TR/2001/REC-SVG-20010904/DTD/svg10.dtd">
<svg version="1.0" xmlns="http://www.w3.org/2000/svg"
 width="248.000000pt" height="248.000000pt" viewBox="0 0 248.000000 248.000000"
 preserveAspectRatio="xMidYMid meet">
<metadata>
Created by potrace 1.10, written by Peter Selinger 2001-2011
</metadata>
<g transform="translate(0.000000,248.000000) scale(0.100000,-0.100000)"
fill="#000000" stroke="none">
<path d="M1005 2420 c-60 -5 -184 -14 -275 -20 -115 -8 -172 -16 -188 -26
l-24 -16 6 -376 c5 -343 8 -378 23 -390 14 -11 41 -12 113 -8 52 4 197 11 321
16 124 5 238 14 252 19 44 17 46 74 3 91 -12 4 -81 5 -154 2 l-133 -5 3 74 3
74 96 10 c56 6 104 17 115 25 34 29 55 96 57 184 3 118 -1 121 -143 121 l-110
-1 0 57 0 56 102 7 c119 8 152 20 156 57 6 52 -44 63 -223 49z m-145 -184 l0
-64 -52 -6 c-29 -3 -81 -9 -115 -12 l-63 -7 0 71 0 71 68 4 c37 2 88 4 115 5
l47 2 0 -64z m253 -198 c-3 -29 -7 -55 -9 -57 -6 -7 -217 -26 -386 -35 l-88
-5 0 48 c0 57 -11 53 185 71 66 7 136 15 155 20 19 4 61 8 92 9 l57 1 -6 -52z
m-273 -268 l0 -70 -47 0 c-27 0 -72 -3 -100 -6 l-53 -7 0 70 c0 38 3 73 7 76
3 4 48 7 100 7 l93 0 0 -70z"/>
<path d="M1381 2376 c-7 -8 -17 -45 -22 -83 -12 -75 -68 -215 -102 -251 -46
-49 19 -107 77 -68 13 8 36 44 52 81 20 45 35 67 49 70 11 2 92 8 179 15 88 6
192 15 230 20 39 6 118 14 175 19 110 10 141 25 141 66 0 41 -21 48 -132 40
-57 -3 -148 -12 -203 -20 -55 -8 -152 -17 -215 -20 -63 -4 -123 -9 -133 -12
-16 -4 -17 2 -15 60 3 71 -9 97 -47 97 -12 0 -28 -6 -34 -14z"/>
<path d="M1810 1950 c-124 -11 -347 -39 -367 -46 -31 -12 -53 -36 -53 -59 0
-45 18 -48 172 -30 79 9 208 22 288 29 80 7 155 18 168 25 24 13 30 59 10 79
-13 13 -90 13 -218 2z"/>
</g>
</svg>
