<?xml version="1.0" standalone="no"?>
<!DOCTYPE svg PUBLIC "-//W3C//DTD SVG 20010904//EN"
 "http://www.w3.org/TR/2001/REC-SVG-20010904/DTD/svg10.dtd">
<svg version="1.0" xmlns="http://www.w3.org/2000/svg"
 width="248.000000pt" height="248.000000pt" viewBox="0 0 248.000000 248.000000"
 preserveAspectRatio="xMidYMid meet">
<metadata>
Created by potrace 1.10, written by Peter Selinger 2001-2011
</metadata>
<g transform="translate(0.000000,248.000000) scale(0.100000,-0.100000)"
fill="#000000" stroke="none">
<path d="M1540 2290 c-36 -5 -153 -21 -260 -35 -107 -14 -262 -33 -345 -41
-82 -9 -155 -20 -162 -26 -19 -16 -16 -53 7 -73 16 -15 32 -17 99 -13 l79 5 7
-55 c4 -29 5 -55 3 -57 -2 -2 -44 -9 -93 -14 -50 -6 -159 -21 -244 -33 -196
-29 -190 -22 -157 -184 49 -239 66 -284 107 -284 26 0 49 28 49 59 0 16 -11
62 -24 103 -14 41 -26 101 -28 133 l-3 60 110 16 c61 10 151 20 201 24 l92 7
4 -148 c2 -91 8 -158 16 -171 15 -28 45 -37 73 -23 20 11 21 17 17 181 l-3
169 40 4 c22 3 74 8 115 11 41 4 86 9 98 12 l24 6 -4 -145 c-3 -160 3 -182 51
-176 40 5 51 42 58 191 l6 134 66 7 c36 3 109 10 161 16 52 5 131 10 175 10
l80 0 -7 -102 c-5 -74 -14 -121 -33 -167 -14 -36 -25 -72 -25 -81 0 -40 53
-53 88 -22 33 28 72 172 81 301 10 129 4 156 -36 172 -35 14 -264 5 -418 -16
-60 -8 -116 -15 -122 -15 -9 0 -13 21 -13 74 l0 74 88 7 c126 10 160 20 168
52 11 43 -6 58 -67 59 -30 1 -83 -2 -119 -6z m-180 -199 l0 -69 -67 -6 c-38
-3 -100 -8 -139 -12 -69 -6 -71 -5 -77 18 -4 12 -7 40 -7 60 0 36 0 37 53 47
46 8 173 26 220 30 15 1 17 -8 17 -68z"/>
</g>
</svg>
