<?xml version="1.0" standalone="no"?>
<!DOCTYPE svg PUBLIC "-//W3C//DTD SVG 20010904//EN"
 "http://www.w3.org/TR/2001/REC-SVG-20010904/DTD/svg10.dtd">
<svg version="1.0" xmlns="http://www.w3.org/2000/svg"
 width="248.000000pt" height="248.000000pt" viewBox="0 0 248.000000 248.000000"
 preserveAspectRatio="xMidYMid meet">
<metadata>
Created by potrace 1.10, written by Peter Selinger 2001-2011
</metadata>
<g transform="translate(0.000000,248.000000) scale(0.100000,-0.100000)"
fill="#000000" stroke="none">
<path d="M1540 2290 c-36 -5 -153 -21 -260 -35 -107 -14 -262 -33 -345 -41
-82 -9 -155 -20 -162 -26 -19 -16 -16 -53 7 -73 16 -15 32 -17 99 -13 l79 5 7
-55 c4 -29 5 -55 3 -57 -2 -2 -44 -9 -93 -14 -50 -6 -159 -21 -244 -33 -196
-29 -190 -22 -157 -184 36 -176 56 -247 75 -268 26 -29 58 -37 102 -26 22 6
101 15 177 20 75 5 205 14 287 19 83 6 292 15 466 21 174 6 332 15 352 21 43
12 57 32 91 138 30 93 51 297 35 338 -5 13 -21 28 -36 34 -35 14 -264 5 -418
-16 -60 -8 -116 -15 -122 -15 -9 0 -13 21 -13 74 l0 74 88 7 c126 10 160 20
168 52 11 43 -6 58 -67 59 -30 1 -83 -2 -119 -6z m-180 -199 l0 -69 -67 -6
c-38 -3 -100 -8 -139 -12 -69 -6 -71 -5 -77 18 -4 12 -7 40 -7 60 0 36 0 37
53 47 46 8 173 26 220 30 15 1 17 -8 17 -68z m588 -233 c-4 -61 -15 -123 -27
-153 l-19 -50 -78 -6 c-44 -4 -146 -9 -227 -12 -137 -6 -148 -5 -142 10 3 10
9 77 12 149 l6 131 76 8 c42 4 108 10 146 15 39 4 113 8 165 9 l95 1 -7 -102z
m-590 -82 l-3 -143 -129 -7 c-71 -4 -130 -6 -131 -4 -2 2 -5 62 -7 135 l-4
132 41 5 c22 3 78 9 125 14 47 5 91 10 98 11 11 1 13 -27 10 -143z m-378 -15
c0 -66 3 -126 6 -135 8 -20 -11 -23 -167 -31 -70 -3 -141 -10 -158 -15 -23 -6
-33 -5 -36 3 -34 99 -44 142 -47 192 l-3 60 80 12 c111 18 221 30 278 32 l47
1 0 -119z"/>
<path d="M1515 1395 c-44 -8 -163 -19 -265 -25 -383 -22 -429 -27 -455 -44
-30 -20 -33 -59 -6 -78 15 -10 43 -12 123 -7 56 4 189 13 293 19 245 14 445
43 463 67 16 22 15 48 -1 62 -23 18 -68 20 -152 6z"/>
<path d="M1825 1135 c-71 -7 -200 -22 -285 -34 -85 -11 -249 -26 -365 -31
-115 -6 -253 -15 -305 -20 -52 -5 -169 -12 -260 -16 -115 -4 -172 -10 -187
-20 -31 -20 -30 -59 2 -80 22 -14 44 -16 158 -10 73 3 177 10 232 16 55 5 219
17 365 25 146 9 292 20 325 25 33 5 125 16 205 24 314 34 320 36 320 81 0 50
-36 57 -205 40z"/>
</g>
</svg>
