<?xml version="1.0" standalone="no"?>
<!DOCTYPE svg PUBLIC "-//W3C//DTD SVG 20010904//EN"
 "http://www.w3.org/TR/2001/REC-SVG-20010904/DTD/svg10.dtd">
<svg version="1.0" xmlns="http://www.w3.org/2000/svg"
 width="248.000000pt" height="248.000000pt" viewBox="0 0 248.000000 248.000000"
 preserveAspectRatio="xMidYMid meet">
<metadata>
Created by potrace 1.10, written by Peter Selinger 2001-2011
</metadata>
<g transform="translate(0.000000,248.000000) scale(0.100000,-0.100000)"
fill="#000000" stroke="none">
<path d="M930 2175 c-58 -7 -166 -23 -240 -35 -74 -12 -158 -25 -187 -29 -28
-4 -59 -13 -67 -20 -25 -21 -20 -58 10 -77 24 -16 31 -16 117 -1 134 25 340
55 431 63 l79 7 -6 -49 c-13 -98 -28 -188 -31 -192 -2 -2 -133 -14 -290 -27
-157 -14 -325 -30 -373 -36 -49 -6 -120 -14 -159 -17 -39 -4 -79 -13 -88 -21
-23 -19 -20 -57 6 -75 28 -20 60 -20 168 -1 96 16 710 69 717 61 3 -3 -1 -37
-8 -76 -10 -58 -16 -71 -33 -75 -64 -14 -168 -25 -339 -36 -131 -7 -199 -16
-214 -25 -31 -19 -30 -59 1 -79 22 -15 44 -15 198 -5 183 11 403 41 436 59 20
10 52 111 67 209 4 23 12 42 18 42 59 1 251 31 263 41 23 19 13 62 -19 77 -22
11 -46 11 -127 1 -55 -7 -103 -10 -106 -7 -3 3 1 44 8 89 18 118 17 204 -3
224 -22 23 -106 26 -229 10z"/>
</g>
</svg>
