<?xml version="1.0" standalone="no"?>
<!DOCTYPE svg PUBLIC "-//W3C//DTD SVG 20010904//EN"
 "http://www.w3.org/TR/2001/REC-SVG-20010904/DTD/svg10.dtd">
<svg version="1.0" xmlns="http://www.w3.org/2000/svg"
 width="248.000000pt" height="248.000000pt" viewBox="0 0 248.000000 248.000000"
 preserveAspectRatio="xMidYMid meet">
<metadata>
Created by potrace 1.10, written by Peter Selinger 2001-2011
</metadata>
<g transform="translate(0.000000,248.000000) scale(0.100000,-0.100000)"
fill="#000000" stroke="none">
<path d="M2080 2204 c-55 -4 -240 -27 -356 -45 -33 -5 -92 -9 -130 -9 -79 0
-114 -17 -114 -55 0 -34 36 -55 92 -55 46 0 83 4 308 35 58 8 137 16 175 19
l70 4 -36 -32 c-20 -17 -69 -61 -110 -97 -41 -36 -116 -96 -166 -134 -79 -58
-93 -72 -93 -97 0 -30 -4 -27 153 -130 120 -79 195 -182 252 -344 30 -86 44
-243 31 -347 -8 -58 -56 -147 -81 -147 -25 0 -209 217 -290 343 -29 46 -95 33
-95 -20 0 -51 212 -325 309 -399 59 -45 95 -45 149 2 56 48 89 107 107 190 28
133 17 257 -36 420 -52 160 -140 285 -266 376 -46 33 -83 63 -83 67 0 3 23 21
51 40 150 102 349 305 349 356 0 55 -43 68 -190 59z"/>
<path d="M930 2175 c-58 -7 -166 -23 -240 -35 -74 -12 -158 -25 -187 -29 -28
-4 -59 -13 -67 -20 -25 -21 -20 -58 10 -77 27 -18 33 -18 247 22 l27 6 0 -115
0 -115 -87 -7 c-49 -3 -146 -13 -218 -22 -71 -8 -162 -18 -201 -21 -39 -4 -79
-13 -88 -21 -23 -19 -20 -57 6 -75 28 -20 60 -20 164 -2 97 17 401 42 410 34
5 -6 -8 -92 -22 -140 -4 -13 -25 -17 -122 -23 -128 -8 -162 -20 -162 -60 0
-46 36 -58 149 -50 l100 8 -8 -29 c-66 -224 -296 -628 -468 -822 -58 -65 -73
-89 -71 -109 4 -33 27 -48 61 -39 34 8 150 142 235 271 l66 100 13 -100 c38
-313 63 -450 86 -472 23 -24 93 -32 275 -32 174 -1 197 4 213 46 15 40 41 466
37 598 -5 141 -17 175 -66 187 -34 9 -146 0 -325 -27 -60 -9 -111 -15 -113
-12 -3 3 11 37 30 76 38 74 102 231 130 317 l17 51 127 18 c184 26 185 26 210
121 11 44 23 98 27 122 4 23 12 42 18 42 59 1 251 31 263 41 23 19 13 62 -19
77 -22 11 -46 11 -127 1 -55 -7 -103 -10 -106 -7 -3 3 1 44 8 89 18 118 17
204 -3 224 -22 23 -106 26 -229 10z m140 -120 c0 -13 -4 -46 -9 -72 -6 -26
-13 -69 -16 -95 l-6 -47 -57 -6 c-31 -3 -78 -8 -104 -11 l-48 -5 0 120 0 119
68 7 c37 3 74 8 82 9 8 2 32 4 53 5 33 1 37 -2 37 -24z m-50 -336 c0 -46 -26
-139 -39 -143 -33 -10 -182 -28 -187 -23 -3 3 -1 22 5 44 6 21 11 52 11 69 0
50 11 54 173 62 22 1 37 -3 37 -9z m-40 -906 c0 -65 -5 -205 -12 -310 l-12
-193 -152 0 c-103 0 -155 4 -160 11 -11 18 -33 142 -48 274 -17 145 -30 257
-31 269 0 5 14 13 30 18 45 12 286 44 348 47 l37 1 0 -117z"/>
</g>
</svg>
