<?xml version="1.0" standalone="no"?>
<!DOCTYPE svg PUBLIC "-//W3C//DTD SVG 20010904//EN"
 "http://www.w3.org/TR/2001/REC-SVG-20010904/DTD/svg10.dtd">
<svg version="1.0" xmlns="http://www.w3.org/2000/svg"
 width="248.000000pt" height="248.000000pt" viewBox="0 0 248.000000 248.000000"
 preserveAspectRatio="xMidYMid meet">
<metadata>
Created by potrace 1.10, written by Peter Selinger 2001-2011
</metadata>
<g transform="translate(0.000000,248.000000) scale(0.100000,-0.100000)"
fill="#000000" stroke="none">
<path d="M1540 2290 c-36 -5 -153 -21 -260 -35 -107 -14 -262 -33 -345 -41
-82 -9 -155 -20 -162 -26 -19 -16 -16 -53 7 -73 18 -16 32 -17 122 -11 57 3
146 13 198 21 102 16 271 38 465 60 66 7 128 17 138 20 21 9 33 53 20 74 -12
19 -84 23 -183 11z"/>
<path d="M472 1898 c-17 -17 -15 -51 7 -159 45 -213 62 -259 102 -259 26 0 49
28 49 59 0 16 -10 62 -23 102 -13 41 -29 110 -36 154 -7 44 -20 88 -28 98 -19
20 -54 22 -71 5z"/>
</g>
</svg>
