<?xml version="1.0" standalone="no"?>
<!DOCTYPE svg PUBLIC "-//W3C//DTD SVG 20010904//EN"
 "http://www.w3.org/TR/2001/REC-SVG-20010904/DTD/svg10.dtd">
<svg version="1.0" xmlns="http://www.w3.org/2000/svg"
 width="248.000000pt" height="248.000000pt" viewBox="0 0 248.000000 248.000000"
 preserveAspectRatio="xMidYMid meet">
<metadata>
Created by potrace 1.10, written by Peter Selinger 2001-2011
</metadata>
<g transform="translate(0.000000,248.000000) scale(0.100000,-0.100000)"
fill="#000000" stroke="none">
<path d="M1540 2290 c-36 -5 -153 -21 -260 -35 -107 -14 -262 -33 -345 -41
-82 -9 -155 -20 -162 -26 -19 -16 -16 -53 7 -73 18 -16 32 -17 122 -11 57 3
146 13 198 21 102 16 271 38 465 60 66 7 128 17 138 20 21 9 33 53 20 74 -12
19 -84 23 -183 11z"/>
<path d="M1735 2060 c-230 -24 -355 -36 -630 -60 -268 -24 -336 -31 -479 -53
-191 -28 -185 -21 -152 -183 49 -239 66 -284 107 -284 26 0 49 28 49 59 0 16
-11 62 -24 103 -14 41 -26 101 -28 133 l-3 60 112 16 c62 10 174 22 250 28 76
6 185 16 243 21 58 5 164 14 235 20 72 6 157 15 190 21 33 5 125 12 205 15
l146 7 -8 -104 c-5 -75 -14 -122 -33 -168 -14 -36 -25 -72 -25 -81 0 -40 53
-53 88 -22 33 28 72 172 81 301 10 128 4 157 -34 171 -29 11 -183 11 -290 0z"/>
</g>
</svg>
