<?xml version="1.0" standalone="no"?>
<!DOCTYPE svg PUBLIC "-//W3C//DTD SVG 20010904//EN"
 "http://www.w3.org/TR/2001/REC-SVG-20010904/DTD/svg10.dtd">
<svg version="1.0" xmlns="http://www.w3.org/2000/svg"
 width="248.000000pt" height="248.000000pt" viewBox="0 0 248.000000 248.000000"
 preserveAspectRatio="xMidYMid meet">
<metadata>
Created by potrace 1.10, written by Peter Selinger 2001-2011
</metadata>
<g transform="translate(0.000000,248.000000) scale(0.100000,-0.100000)"
fill="#000000" stroke="none">
<path d="M690 2190 c-150 -7 -346 -30 -383 -45 -38 -16 -45 -52 -32 -160 37
-292 48 -347 74 -378 l25 -30 103 6 c96 4 103 4 109 -15 3 -11 3 -223 -1 -472
-7 -491 -6 -498 47 -504 18 -2 31 4 42 20 14 19 16 58 16 255 l0 232 48 6
c205 27 263 59 218 120 -13 18 -16 18 -130 0 -64 -10 -118 -16 -120 -14 -2 2
-6 90 -8 195 l-3 191 91 6 c50 4 103 11 117 16 45 17 56 54 108 366 25 147 25
173 4 195 -19 18 -103 21 -325 10z m230 -108 c0 -25 -62 -358 -68 -364 -4 -3
-59 -9 -122 -12 -63 -3 -158 -8 -211 -12 l-96 -6 -21 138 c-31 205 -32 224 -7
229 69 13 116 18 255 24 236 11 270 12 270 3z"/>
</g>
</svg>
