<?xml version="1.0" standalone="no"?>
<!DOCTYPE svg PUBLIC "-//W3C//DTD SVG 20010904//EN"
 "http://www.w3.org/TR/2001/REC-SVG-20010904/DTD/svg10.dtd">
<svg version="1.0" xmlns="http://www.w3.org/2000/svg"
 width="248.000000pt" height="248.000000pt" viewBox="0 0 248.000000 248.000000"
 preserveAspectRatio="xMidYMid meet">
<metadata>
Created by potrace 1.10, written by Peter Selinger 2001-2011
</metadata>
<g transform="translate(0.000000,248.000000) scale(0.100000,-0.100000)"
fill="#000000" stroke="none">
<path d="M690 2190 c-150 -7 -346 -30 -383 -45 -38 -16 -45 -52 -32 -160 37
-292 48 -347 74 -378 l25 -30 103 6 c99 5 103 4 109 -17 2 -11 4 -234 2 -494
l-3 -472 -45 -17 c-25 -9 -59 -22 -77 -29 l-31 -12 -4 232 c-3 201 -5 235 -21
259 -19 30 -57 36 -76 13 -8 -10 -13 -95 -14 -281 l-2 -267 -74 -24 c-86 -28
-101 -38 -101 -68 0 -31 19 -46 56 -46 44 0 362 111 499 175 28 12 79 33 115
45 76 27 100 45 100 75 0 51 -52 58 -145 20 -33 -14 -63 -25 -67 -25 -5 0 -8
101 -8 224 l0 225 48 6 c205 27 263 59 218 120 -13 18 -16 18 -130 0 -64 -10
-118 -16 -120 -14 -2 2 -6 90 -8 195 l-3 191 91 6 c50 4 103 11 117 16 45 17
56 54 108 366 25 147 25 173 4 195 -19 18 -103 21 -325 10z m230 -108 c0 -25
-62 -358 -68 -364 -4 -3 -59 -9 -122 -12 -63 -3 -158 -8 -211 -12 l-96 -6 -21
138 c-31 205 -32 224 -7 229 69 13 116 18 255 24 236 11 270 12 270 3z"/>
<path d="M1655 2191 l-170 -6 -47 -89 c-26 -49 -64 -109 -85 -135 -22 -25 -72
-91 -113 -146 -40 -55 -110 -138 -156 -185 -45 -47 -85 -95 -88 -107 -8 -25
23 -63 51 -63 25 0 178 159 263 275 41 55 92 120 113 145 22 25 59 79 84 121
l44 76 147 6 c81 3 149 4 150 2 8 -8 -179 -359 -232 -435 -50 -74 -207 -252
-281 -320 -33 -30 -91 -85 -130 -121 -91 -85 -170 -150 -221 -182 -23 -14 -44
-35 -47 -46 -7 -27 19 -61 48 -61 90 0 567 450 725 685 30 44 71 116 93 160
21 44 54 106 73 137 47 77 94 194 94 233 0 63 -18 66 -315 56z"/>
</g>
</svg>
