<?xml version="1.0" standalone="no"?>
<!DOCTYPE svg PUBLIC "-//W3C//DTD SVG 20010904//EN"
 "http://www.w3.org/TR/2001/REC-SVG-20010904/DTD/svg10.dtd">
<svg version="1.0" xmlns="http://www.w3.org/2000/svg"
 width="248.000000pt" height="248.000000pt" viewBox="0 0 248.000000 248.000000"
 preserveAspectRatio="xMidYMid meet">
<metadata>
Created by potrace 1.10, written by Peter Selinger 2001-2011
</metadata>
<g transform="translate(0.000000,248.000000) scale(0.100000,-0.100000)"
fill="#000000" stroke="none">
<path d="M690 2190 c-150 -7 -346 -30 -383 -45 -38 -16 -45 -52 -32 -160 45
-352 55 -389 103 -383 48 5 53 37 31 173 -11 66 -23 155 -27 198 -9 89 -21 79
113 96 44 6 158 13 253 16 135 4 172 3 171 -7 0 -7 -15 -98 -33 -203 -37 -207
-35 -227 16 -233 47 -6 51 7 104 318 30 173 31 198 9 220 -19 18 -103 21 -325
10z"/>
</g>
</svg>
