<?xml version="1.0" standalone="no"?>
<!DOCTYPE svg PUBLIC "-//W3C//DTD SVG 20010904//EN"
 "http://www.w3.org/TR/2001/REC-SVG-20010904/DTD/svg10.dtd">
<svg version="1.0" xmlns="http://www.w3.org/2000/svg"
 width="248.000000pt" height="248.000000pt" viewBox="0 0 248.000000 248.000000"
 preserveAspectRatio="xMidYMid meet">
<metadata>
Created by potrace 1.10, written by Peter Selinger 2001-2011
</metadata>
<g transform="translate(0.000000,248.000000) scale(0.100000,-0.100000)"
fill="#000000" stroke="none">
<path d="M690 2190 c-150 -7 -346 -30 -383 -45 -38 -16 -45 -52 -32 -160 37
-292 48 -347 74 -378 l25 -30 103 6 c99 5 103 4 109 -17 2 -11 4 -234 2 -494
l-3 -472 -45 -17 c-25 -9 -59 -22 -77 -29 l-31 -12 -4 232 c-3 201 -5 235 -21
259 -19 30 -57 36 -76 13 -8 -10 -13 -95 -14 -281 l-2 -267 -74 -24 c-86 -28
-101 -38 -101 -68 0 -31 19 -46 56 -46 44 0 362 111 499 175 28 12 79 33 115
45 76 27 100 45 100 75 0 51 -52 58 -145 20 -33 -14 -63 -25 -67 -25 -5 0 -8
101 -8 224 l0 225 48 6 c205 27 263 59 218 120 -13 18 -16 18 -130 0 -64 -10
-118 -16 -120 -14 -2 2 -6 90 -8 195 l-3 191 91 6 c50 4 103 11 117 16 45 17
56 54 108 366 25 147 25 173 4 195 -19 18 -103 21 -325 10z m230 -108 c0 -25
-62 -358 -68 -364 -4 -3 -59 -9 -122 -12 -63 -3 -158 -8 -211 -12 l-96 -6 -21
138 c-31 205 -32 224 -7 229 69 13 116 18 255 24 236 11 270 12 270 3z"/>
<path d="M1655 2191 l-170 -6 -47 -89 c-26 -49 -64 -109 -85 -135 -22 -25 -72
-91 -113 -146 -40 -55 -110 -138 -156 -185 -45 -47 -85 -95 -88 -107 -8 -25
23 -63 50 -63 21 0 146 121 209 204 28 36 55 65 62 65 7 1 26 -12 42 -28 16
-15 63 -54 105 -86 75 -56 85 -68 66 -80 -5 -3 -42 -43 -82 -88 -107 -121
-360 -351 -454 -413 -56 -36 -69 -62 -47 -93 22 -32 55 -25 131 27 94 64 357
306 462 425 46 54 87 97 90 97 3 0 32 -22 65 -48 33 -27 83 -64 110 -83 28
-19 80 -56 115 -82 136 -100 380 -237 424 -237 31 0 48 22 44 57 -2 21 -12 32
-43 47 -59 27 -272 153 -335 197 -30 22 -82 58 -115 81 -88 61 -195 149 -195
160 0 5 14 30 31 55 18 25 50 82 71 127 22 44 55 107 74 138 47 77 94 194 94
233 0 63 -18 66 -315 56z m195 -108 c0 -5 -15 -36 -33 -70 -17 -33 -62 -119
-100 -190 -37 -70 -77 -140 -90 -156 l-23 -27 -92 71 c-51 38 -92 74 -92 79 0
5 -9 12 -20 15 -29 9 -25 21 21 73 23 26 61 81 85 122 l44 75 113 6 c61 3 129
6 150 7 20 1 37 -1 37 -5z"/>
<path d="M1359 1006 c-129 -8 -191 -15 -203 -25 -20 -17 -20 -51 -1 -116 9
-27 20 -117 25 -200 11 -177 17 -213 36 -242 17 -26 55 -30 74 -8 14 17 6 236
-15 380 -8 49 -12 91 -10 93 9 9 325 22 563 22 l272 0 -4 -22 c-3 -13 -8 -48
-11 -78 -6 -53 -22 -117 -71 -289 -36 -127 -31 -171 23 -171 34 0 47 29 97
215 54 200 65 253 68 340 3 56 0 67 -20 87 -22 23 -24 23 -330 24 -169 1 -391
-4 -493 -10z"/>
</g>
</svg>
