<?xml version="1.0" standalone="no"?>
<!DOCTYPE svg PUBLIC "-//W3C//DTD SVG 20010904//EN"
 "http://www.w3.org/TR/2001/REC-SVG-20010904/DTD/svg10.dtd">
<svg version="1.0" xmlns="http://www.w3.org/2000/svg"
 width="248.000000pt" height="248.000000pt" viewBox="0 0 248.000000 248.000000"
 preserveAspectRatio="xMidYMid meet">
<metadata>
Created by potrace 1.10, written by Peter Selinger 2001-2011
</metadata>
<g transform="translate(0.000000,248.000000) scale(0.100000,-0.100000)"
fill="#000000" stroke="none">
<path d="M1596 2418 c-9 -12 -16 -32 -16 -44 0 -12 -9 -42 -19 -67 l-19 -44
-68 -6 c-38 -4 -112 -11 -164 -17 -211 -21 -304 -29 -308 -26 -2 3 -8 35 -12
72 -10 76 -34 117 -72 122 -46 6 -53 -18 -36 -119 9 -62 11 -92 4 -95 -6 -2
-63 -8 -126 -14 -125 -12 -160 -26 -160 -65 0 -35 35 -55 84 -50 23 3 83 10
135 16 107 13 104 14 122 -69 12 -61 44 -91 78 -73 27 15 33 41 22 92 -18 77
-19 75 67 83 42 4 115 11 162 16 47 5 120 12 163 16 l79 7 -21 -41 c-35 -69
-22 -118 31 -110 26 4 72 66 90 122 6 21 17 40 22 42 6 2 58 8 116 14 227 22
268 38 242 95 -13 27 -52 36 -112 25 -25 -4 -84 -11 -132 -15 l-86 -7 13 38
c8 22 14 48 15 59 0 31 -28 65 -55 65 -13 0 -31 -10 -39 -22z"/>
<path d="M1575 1969 c-38 -5 -117 -13 -175 -19 -482 -45 -612 -60 -638 -76
-21 -14 -22 -20 -17 -77 3 -34 10 -153 14 -263 12 -275 20 -290 161 -274 41 5
76 7 78 6 5 -6 -49 -94 -82 -132 l-34 -39 -98 -8 c-55 -4 -176 -11 -270 -15
-182 -7 -204 -14 -204 -58 0 -42 33 -54 158 -54 62 0 144 5 182 11 38 6 84 9
102 7 l33 -3 -120 -118 c-133 -132 -226 -210 -327 -277 -69 -46 -90 -78 -71
-109 20 -33 59 -24 140 30 97 65 202 151 268 218 l50 52 12 -98 c7 -54 12
-150 13 -213 0 -134 11 -165 55 -165 49 0 57 29 51 190 -4 77 -9 168 -12 201
-6 58 -5 62 17 67 40 10 321 28 328 22 3 -4 8 -168 11 -364 5 -388 7 -395 59
-389 51 6 52 22 48 410 l-3 357 75 6 c42 4 101 10 131 15 30 5 88 12 128 16
l72 7 0 -120 c0 -103 -10 -207 -25 -250 -3 -9 -15 -5 -41 12 -90 61 -163 -8
-76 -72 20 -15 52 -40 70 -55 36 -30 76 -36 105 -14 41 31 82 257 75 414 -3
56 -3 102 -1 102 2 0 29 -16 59 -35 82 -53 232 -131 286 -149 54 -18 92 -9
103 23 9 31 -10 56 -53 69 -104 31 -517 280 -517 311 0 3 34 9 75 13 268 25
378 38 402 47 28 10 46 50 33 71 -18 30 -34 29 -405 -10 -245 -26 -217 -28
-254 14 -52 56 -114 44 -104 -22 l4 -28 -156 -17 c-212 -23 -250 -26 -250 -18
0 4 13 28 29 53 16 25 32 59 35 75 7 31 7 31 94 37 48 4 159 13 247 21 88 8
186 16 218 18 35 2 64 10 73 19 25 24 38 163 39 390 0 181 -2 209 -17 224 -20
21 -88 26 -183 13z m95 -168 c0 -68 -1 -70 -27 -75 -16 -3 -167 -15 -338 -26
-170 -10 -340 -22 -377 -25 l-68 -5 0 58 0 59 83 12 c45 6 134 16 197 21 110
9 253 23 405 39 137 15 125 21 125 -58z m0 -208 c0 -16 -3 -58 -6 -94 l-7 -66
-106 -12 c-58 -6 -198 -18 -311 -27 -113 -8 -239 -19 -280 -23 -41 -4 -78 -6
-82 -4 -14 7 -9 193 5 197 6 2 172 14 367 26 195 12 357 24 359 26 2 2 17 4
33 4 24 0 28 -4 28 -27z m-109 -559 c13 -14 46 -40 72 -57 40 -26 46 -33 30
-38 -24 -9 -179 -29 -280 -36 l-81 -6 -4 67 c-1 36 -1 66 2 67 11 2 206 26
221 28 8 0 26 -11 40 -25z m-371 -79 l0 -64 -32 -5 c-18 -3 -73 -7 -123 -10
-49 -3 -119 -9 -155 -12 l-65 -7 56 64 c62 70 71 74 214 88 44 5 86 9 93 10 8
1 12 -18 12 -64z"/>
</g>
</svg>
