<?xml version="1.0" standalone="no"?>
<!DOCTYPE svg PUBLIC "-//W3C//DTD SVG 20010904//EN"
 "http://www.w3.org/TR/2001/REC-SVG-20010904/DTD/svg10.dtd">
<svg version="1.0" xmlns="http://www.w3.org/2000/svg"
 width="248.000000pt" height="248.000000pt" viewBox="0 0 248.000000 248.000000"
 preserveAspectRatio="xMidYMid meet">
<metadata>
Created by potrace 1.10, written by Peter Selinger 2001-2011
</metadata>
<g transform="translate(0.000000,248.000000) scale(0.100000,-0.100000)"
fill="#000000" stroke="none">
<path d="M880 2395 c-11 -13 -10 -31 2 -106 9 -62 11 -92 4 -95 -6 -2 -62 -8
-125 -13 -70 -7 -123 -17 -138 -26 -30 -20 -30 -60 0 -79 19 -13 39 -13 156 0
152 17 144 20 162 -64 12 -61 44 -91 78 -73 27 15 33 41 22 92 -18 77 -19 75
67 83 42 3 118 11 167 16 162 17 278 29 430 44 83 9 177 20 210 26 33 5 61 10
62 10 10 0 23 45 18 61 -10 31 -49 41 -114 30 -31 -6 -92 -13 -136 -16 -44 -3
-111 -10 -150 -15 -38 -5 -122 -14 -185 -20 -63 -6 -151 -15 -195 -20 -44 -5
-110 -12 -147 -15 l-67 -6 -5 33 c-3 18 -7 51 -10 73 -10 73 -72 120 -106 80z"/>
</g>
</svg>
