<?xml version="1.0" standalone="no"?>
<!DOCTYPE svg PUBLIC "-//W3C//DTD SVG 20010904//EN"
 "http://www.w3.org/TR/2001/REC-SVG-20010904/DTD/svg10.dtd">
<svg version="1.0" xmlns="http://www.w3.org/2000/svg"
 width="248.000000pt" height="248.000000pt" viewBox="0 0 248.000000 248.000000"
 preserveAspectRatio="xMidYMid meet">
<metadata>
Created by potrace 1.10, written by Peter Selinger 2001-2011
</metadata>
<g transform="translate(0.000000,248.000000) scale(0.100000,-0.100000)"
fill="#000000" stroke="none">
<path d="M382 2218 c-29 -29 -13 -62 65 -137 132 -125 186 -154 221 -119 16
16 15 54 0 67 -64 52 -163 138 -191 166 -36 36 -73 45 -95 23z"/>
<path d="M2170 2083 c-262 -20 -292 -23 -705 -83 -110 -16 -245 -34 -300 -40
-239 -27 -255 -32 -255 -76 0 -43 36 -56 131 -45 169 19 198 23 424 56 368 53
453 64 575 70 193 11 250 27 250 70 0 38 -41 54 -120 48z"/>
<path d="M172 1598 c-17 -17 -15 -53 6 -70 31 -27 267 -138 293 -138 31 0 49
17 49 45 0 30 -18 43 -161 113 -125 62 -165 72 -187 50z"/>
<path d="M444 701 c-18 -20 -62 -117 -130 -286 -25 -60 -52 -120 -60 -132 -28
-44 -12 -93 31 -93 44 0 58 25 189 337 31 72 56 137 56 142 0 16 -38 51 -55
51 -8 0 -22 -8 -31 -19z"/>
</g>
</svg>
