<?xml version="1.0" standalone="no"?>
<!DOCTYPE svg PUBLIC "-//W3C//DTD SVG 20010904//EN"
 "http://www.w3.org/TR/2001/REC-SVG-20010904/DTD/svg10.dtd">
<svg version="1.0" xmlns="http://www.w3.org/2000/svg"
 width="248.000000pt" height="248.000000pt" viewBox="0 0 248.000000 248.000000"
 preserveAspectRatio="xMidYMid meet">
<metadata>
Created by potrace 1.10, written by Peter Selinger 2001-2011
</metadata>
<g transform="translate(0.000000,248.000000) scale(0.100000,-0.100000)"
fill="#000000" stroke="none">
<path d="M1676 2378 c-8 -13 -22 -48 -31 -79 l-18 -57 -68 -11 c-37 -6 -89
-11 -115 -11 -48 0 -212 -15 -334 -30 -36 -4 -66 -7 -68 -5 -1 1 -9 37 -17 80
-18 90 -28 107 -64 103 -43 -5 -55 -45 -38 -127 l14 -69 -36 -7 c-20 -4 -86
-10 -148 -14 -121 -8 -146 -18 -141 -60 5 -43 40 -53 148 -45 52 4 119 7 149
8 l54 1 24 -77 c25 -81 46 -105 83 -93 38 12 43 40 19 115 -13 38 -19 73 -15
77 7 7 46 11 316 32 69 5 140 13 158 17 17 3 32 4 32 0 0 -4 -11 -29 -25 -56
-30 -59 -31 -72 -5 -95 13 -12 27 -15 45 -11 21 5 35 24 66 91 l40 85 52 0
c71 0 226 27 244 41 22 19 12 62 -19 77 -22 10 -41 11 -85 3 -31 -6 -79 -11
-106 -11 -43 0 -48 2 -42 18 15 35 18 102 5 117 -19 22 -57 18 -74 -7z"/>
<path d="M1365 1914 c-30 -24 -151 -78 -230 -103 -101 -32 -169 -71 -173 -99
-7 -48 48 -68 106 -38 15 7 63 26 107 41 180 61 285 124 285 170 0 44 -55 60
-95 29z"/>
<path d="M1240 1635 c-16 -19 5 -239 26 -272 17 -27 56 -30 75 -6 26 30 7 216
-27 271 -17 25 -55 29 -74 7z"/>
<path d="M702 1588 c-20 -20 -14 -56 16 -90 16 -18 43 -61 61 -95 45 -84 73
-110 109 -97 39 14 41 53 4 112 -16 26 -41 68 -55 94 -43 75 -102 109 -135 76z"/>
</g>
</svg>
