<?xml version="1.0" standalone="no"?>
<!DOCTYPE svg PUBLIC "-//W3C//DTD SVG 20010904//EN"
 "http://www.w3.org/TR/2001/REC-SVG-20010904/DTD/svg10.dtd">
<svg version="1.0" xmlns="http://www.w3.org/2000/svg"
 width="248.000000pt" height="248.000000pt" viewBox="0 0 248.000000 248.000000"
 preserveAspectRatio="xMidYMid meet">
<metadata>
Created by potrace 1.10, written by Peter Selinger 2001-2011
</metadata>
<g transform="translate(0.000000,248.000000) scale(0.100000,-0.100000)"
fill="#000000" stroke="none">
<path d="M789 2383 c-72 -106 -151 -196 -306 -350 -90 -89 -163 -166 -163
-170 0 -20 33 -53 54 -53 22 0 156 111 207 172 l26 31 6 -153 c4 -84 7 -192 7
-239 0 -99 13 -135 52 -139 20 -2 31 4 44 22 15 24 16 52 7 319 l-9 292 71 90
c98 123 105 135 105 170 0 71 -55 75 -101 8z"/>
<path d="M1529 2356 c-52 -35 -140 -87 -196 -116 -102 -52 -117 -68 -102 -108
12 -32 63 -29 135 8 32 16 62 30 67 30 4 0 7 -36 7 -80 0 -54 -4 -80 -12 -80
-6 0 -72 -7 -147 -15 -75 -8 -178 -19 -228 -23 -102 -10 -126 -22 -121 -61 5
-45 43 -55 166 -42 192 19 297 31 320 36 23 6 23 5 20 -97 l-3 -103 -165 -13
c-91 -8 -171 -19 -177 -24 -19 -16 -16 -53 7 -73 18 -16 33 -17 137 -12 349
20 606 44 643 61 35 16 35 66 0 83 -25 12 -65 10 -267 -13 l-63 -7 0 106 0
105 28 6 c25 4 78 12 364 52 133 19 159 34 142 82 -8 22 -16 28 -49 30 -22 2
-69 -1 -105 -7 -65 -11 -243 -37 -332 -48 l-48 -6 0 65 c0 36 3 86 6 112 6 43
11 50 75 96 70 51 85 80 57 108 -25 25 -65 12 -159 -52z"/>
<path d="M1510 1530 c-222 -23 -315 -30 -512 -36 -182 -6 -220 -9 -231 -23
-11 -13 -16 -88 -21 -366 -3 -192 -9 -409 -12 -481 l-7 -132 27 -27 28 -28
151 7 c84 3 304 7 489 7 297 1 339 4 351 18 26 30 50 952 26 1019 -7 20 -21
34 -41 41 -34 12 -133 12 -248 1z m190 -221 c0 -66 -4 -118 -8 -115 -5 3 -103
-1 -218 -9 -115 -7 -300 -15 -411 -18 l-203 -4 0 108 0 107 128 6 c149 7 411
26 497 36 33 4 95 8 138 8 l77 2 0 -121z m0 -271 c0 -29 -3 -69 -6 -89 l-6
-37 -197 -6 c-108 -4 -243 -11 -301 -16 -58 -5 -159 -12 -224 -15 l-119 -5 6
85 c2 48 8 89 12 93 3 4 126 10 273 14 147 5 312 12 367 17 55 4 121 9 148 10
l47 1 0 -52z m-16 -355 c-4 -65 -7 -119 -8 -119 0 -1 -189 -4 -420 -6 l-419
-4 6 99 c3 54 8 101 12 105 8 9 518 37 728 40 l108 2 -7 -117z"/>
<path d="M849 337 c-62 -67 -96 -94 -188 -146 -62 -35 -117 -73 -122 -83 -14
-26 13 -68 44 -68 12 0 71 28 131 62 110 61 232 164 262 220 17 33 18 70 2 86
-26 26 -54 11 -129 -71z"/>
<path d="M1522 398 c-26 -26 -13 -56 42 -100 64 -51 179 -137 210 -157 11 -8
52 -34 89 -59 59 -40 71 -44 95 -36 20 7 28 17 30 41 3 28 -3 36 -50 71 -29
21 -64 45 -78 52 -13 7 -80 55 -148 107 -124 94 -161 110 -190 81z"/>
</g>
</svg>
