<?xml version="1.0" standalone="no"?>
<!DOCTYPE svg PUBLIC "-//W3C//DTD SVG 20010904//EN"
 "http://www.w3.org/TR/2001/REC-SVG-20010904/DTD/svg10.dtd">
<svg version="1.0" xmlns="http://www.w3.org/2000/svg"
 width="248.000000pt" height="248.000000pt" viewBox="0 0 248.000000 248.000000"
 preserveAspectRatio="xMidYMid meet">
<metadata>
Created by potrace 1.10, written by Peter Selinger 2001-2011
</metadata>
<g transform="translate(0.000000,248.000000) scale(0.100000,-0.100000)"
fill="#000000" stroke="none">
<path d="M1919 2265 c-6 -5 -75 -12 -489 -45 -227 -18 -355 -30 -370 -35 -29
-8 -282 -35 -338 -35 -75 0 -107 -17 -107 -55 0 -53 72 -67 223 -45 127 18
307 39 437 50 72 6 173 15 225 20 52 5 142 12 200 16 132 7 278 30 296 45 18
15 18 53 1 68 -17 13 -70 25 -78 16z"/>
</g>
</svg>
