<?xml version="1.0" standalone="no"?>
<!DOCTYPE svg PUBLIC "-//W3C//DTD SVG 20010904//EN"
 "http://www.w3.org/TR/2001/REC-SVG-20010904/DTD/svg10.dtd">
<svg version="1.0" xmlns="http://www.w3.org/2000/svg"
 width="248.000000pt" height="248.000000pt" viewBox="0 0 248.000000 248.000000"
 preserveAspectRatio="xMidYMid meet">
<metadata>
Created by potrace 1.10, written by Peter Selinger 2001-2011
</metadata>
<g transform="translate(0.000000,248.000000) scale(0.100000,-0.100000)"
fill="#000000" stroke="none">
<path d="M1676 2378 c-8 -13 -22 -48 -31 -79 l-18 -57 -68 -11 c-37 -6 -89
-11 -115 -11 -48 0 -212 -15 -334 -30 -36 -4 -66 -7 -68 -5 -1 1 -9 37 -17 80
-18 90 -28 107 -64 103 -43 -5 -55 -45 -38 -127 l14 -69 -36 -7 c-20 -4 -86
-10 -148 -14 -121 -8 -146 -18 -141 -60 5 -43 40 -53 148 -45 52 4 119 7 149
8 l54 1 24 -77 c25 -81 46 -105 83 -93 38 12 43 40 19 115 -13 38 -19 73 -15
77 7 7 46 11 316 32 69 5 140 13 158 17 17 3 32 4 32 0 0 -4 -11 -29 -25 -56
-30 -59 -31 -72 -5 -95 13 -12 27 -15 45 -11 21 5 35 24 66 91 l40 85 52 0
c71 0 226 27 244 41 22 19 12 62 -19 77 -22 10 -41 11 -85 3 -31 -6 -79 -11
-106 -11 -43 0 -48 2 -42 18 15 35 18 102 5 117 -19 22 -57 18 -74 -7z"/>
<path d="M1365 1914 c-30 -24 -151 -78 -230 -103 -101 -32 -169 -71 -173 -99
-7 -48 48 -68 106 -38 15 7 63 26 107 41 180 61 285 124 285 170 0 44 -55 60
-95 29z"/>
<path d="M1747 1633 c-27 -43 -77 -97 -135 -148 -96 -83 -108 -101 -98 -141 5
-19 13 -24 39 -24 26 0 50 17 135 93 151 136 203 223 162 271 -27 34 -57 19
-103 -51z"/>
<path d="M1240 1635 c-16 -19 5 -239 26 -272 17 -27 56 -30 75 -6 26 30 7 216
-27 271 -17 25 -55 29 -74 7z"/>
<path d="M702 1588 c-20 -20 -14 -56 16 -90 16 -18 43 -61 61 -95 45 -84 73
-110 109 -97 39 14 41 53 4 112 -16 26 -41 68 -55 94 -43 75 -102 109 -135 76z"/>
<path d="M1246 1258 c-11 -15 -16 -45 -16 -89 l0 -66 -307 -17 c-189 -10 -318
-22 -333 -29 -37 -19 -35 -67 4 -86 24 -11 68 -11 307 5 153 9 282 15 285 11
4 -3 0 -17 -8 -29 -30 -44 -203 -213 -260 -253 -31 -22 -94 -66 -140 -99 -46
-32 -134 -86 -196 -119 -63 -33 -116 -66 -119 -73 -10 -26 7 -64 31 -70 32 -8
199 77 330 167 176 121 209 148 313 252 l103 101 -7 -346 c-6 -318 -5 -349 11
-373 13 -19 24 -25 44 -23 46 5 52 34 52 243 0 105 3 260 7 346 l6 156 61 -40
c34 -23 98 -69 143 -104 45 -34 108 -79 140 -98 32 -20 92 -58 133 -85 100
-65 162 -97 306 -158 180 -76 234 -79 234 -11 0 33 -6 37 -90 65 -123 41 -285
120 -400 196 -63 41 -126 81 -140 88 -14 7 -61 41 -105 75 -44 33 -107 80
-140 103 -85 59 -131 99 -122 108 4 4 44 11 89 15 401 38 460 46 481 68 23 22
17 68 -9 78 -17 6 -223 -10 -349 -27 -38 -5 -109 -12 -157 -16 l-88 -7 0 59
c0 69 -19 104 -55 104 -13 0 -31 -10 -39 -22z"/>
</g>
</svg>
