<?xml version="1.0" standalone="no"?>
<!DOCTYPE svg PUBLIC "-//W3C//DTD SVG 20010904//EN"
 "http://www.w3.org/TR/2001/REC-SVG-20010904/DTD/svg10.dtd">
<svg version="1.0" xmlns="http://www.w3.org/2000/svg"
 width="248.000000pt" height="248.000000pt" viewBox="0 0 248.000000 248.000000"
 preserveAspectRatio="xMidYMid meet">
<metadata>
Created by potrace 1.10, written by Peter Selinger 2001-2011
</metadata>
<g transform="translate(0.000000,248.000000) scale(0.100000,-0.100000)"
fill="#000000" stroke="none">
<path d="M803 2404 c-95 -134 -163 -213 -311 -361 -94 -94 -172 -176 -172
-180 0 -18 32 -53 49 -53 25 0 83 44 169 128 47 46 72 65 72 54 1 -173 15
-463 24 -482 8 -18 19 -25 41 -25 55 0 58 21 48 344 l-9 286 56 70 c98 121
120 156 120 190 0 58 -54 76 -87 29z"/>
<path d="M1529 2356 c-52 -36 -140 -88 -196 -117 -102 -52 -117 -67 -102 -107
12 -32 63 -29 135 8 32 16 62 30 67 30 4 0 7 -36 7 -80 0 -58 -4 -80 -13 -80
-6 0 -68 -6 -137 -14 -69 -8 -168 -18 -220 -21 -110 -8 -143 -23 -138 -63 5
-46 41 -55 166 -43 167 17 295 31 320 36 22 5 22 4 22 -95 0 -72 -4 -102 -12
-105 -7 -2 -83 -9 -168 -15 -85 -7 -161 -16 -167 -22 -19 -16 -16 -53 7 -73
18 -16 32 -17 142 -11 384 22 600 42 638 60 31 14 38 57 14 77 -19 16 -127 15
-229 -1 -33 -6 -72 -10 -87 -10 l-28 0 0 105 0 104 38 6 c20 3 64 10 97 16 33
5 98 14 145 19 237 27 274 41 255 96 -14 37 -38 43 -130 28 -83 -13 -289 -42
-362 -51 l-43 -6 1 84 c2 129 5 136 79 189 66 47 83 77 60 106 -24 28 -65 15
-161 -50z"/>
<path d="M762 1458 c-8 -8 -12 -65 -12 -192 0 -99 -5 -310 -11 -469 -9 -259
-9 -291 5 -313 10 -14 26 -24 41 -24 50 0 53 18 66 405 14 437 11 555 -15 584
-21 23 -56 27 -74 9z"/>
</g>
</svg>
