<?xml version="1.0" standalone="no"?>
<!DOCTYPE svg PUBLIC "-//W3C//DTD SVG 20010904//EN"
 "http://www.w3.org/TR/2001/REC-SVG-20010904/DTD/svg10.dtd">
<svg version="1.0" xmlns="http://www.w3.org/2000/svg"
 width="248.000000pt" height="248.000000pt" viewBox="0 0 248.000000 248.000000"
 preserveAspectRatio="xMidYMid meet">
<metadata>
Created by potrace 1.10, written by Peter Selinger 2001-2011
</metadata>
<g transform="translate(0.000000,248.000000) scale(0.100000,-0.100000)"
fill="#000000" stroke="none">
<path d="M666 2178 c-13 -18 -16 -53 -16 -169 l0 -147 -47 -7 c-110 -15 -397
-76 -410 -86 -17 -15 -17 -54 2 -69 22 -18 80 -16 185 7 52 12 163 33 245 47
251 43 545 104 561 117 22 18 13 62 -16 76 -21 9 -58 5 -215 -26 l-190 -37 -5
142 c-5 151 -13 174 -56 174 -12 0 -30 -10 -38 -22z"/>
<path d="M882 1618 c-26 -26 -13 -56 46 -100 104 -79 269 -178 295 -178 30 0
57 33 50 60 -3 11 -55 51 -117 90 -61 39 -133 86 -160 105 -49 36 -93 44 -114
23z"/>
<path d="M390 1566 c-6 -8 -18 -39 -25 -68 -18 -73 -68 -190 -103 -241 -38
-54 -46 -81 -32 -107 9 -16 19 -20 43 -18 27 3 39 13 74 68 42 63 114 232 128
298 13 61 -49 110 -85 68z"/>
<path d="M851 1336 c-7 -8 -16 -36 -20 -63 -11 -61 -44 -185 -66 -243 -9 -25
-24 -67 -34 -95 -30 -80 -65 -155 -111 -235 -24 -41 -50 -88 -58 -105 -8 -16
-21 -37 -28 -45 -7 -8 -29 -42 -49 -75 -19 -33 -76 -104 -125 -157 -64 -69
-90 -104 -90 -122 0 -26 24 -46 56 -46 23 0 189 172 222 230 14 25 36 60 49
78 101 137 275 511 300 644 3 18 14 60 25 93 20 61 19 114 -3 141 -15 18 -53
18 -68 0z"/>
</g>
</svg>
