<?xml version="1.0" standalone="no"?>
<!DOCTYPE svg PUBLIC "-//W3C//DTD SVG 20010904//EN"
 "http://www.w3.org/TR/2001/REC-SVG-20010904/DTD/svg10.dtd">
<svg version="1.0" xmlns="http://www.w3.org/2000/svg"
 width="248.000000pt" height="248.000000pt" viewBox="0 0 248.000000 248.000000"
 preserveAspectRatio="xMidYMid meet">
<metadata>
Created by potrace 1.10, written by Peter Selinger 2001-2011
</metadata>
<g transform="translate(0.000000,248.000000) scale(0.100000,-0.100000)"
fill="#000000" stroke="none">
<path d="M666 2178 c-13 -18 -16 -53 -16 -169 l0 -147 -47 -7 c-110 -15 -397
-76 -410 -86 -17 -15 -17 -54 2 -69 22 -18 80 -16 185 7 52 12 163 33 245 47
251 43 545 104 561 117 22 18 13 62 -16 76 -21 9 -58 5 -215 -26 l-190 -37 -5
142 c-5 151 -13 174 -56 174 -12 0 -30 -10 -38 -22z"/>
<path d="M2170 1800 c-19 -6 -90 -19 -157 -29 -67 -11 -173 -29 -235 -41 -177
-33 -259 -48 -308 -55 -59 -9 -90 -29 -90 -60 0 -15 9 -30 23 -39 25 -16 65
-12 252 24 145 28 193 36 360 65 77 13 155 27 173 30 l32 8 0 -179 c0 -316
-34 -720 -76 -889 -37 -150 -110 -325 -136 -325 -6 0 -40 29 -76 65 -65 67
-89 77 -116 49 -37 -36 -9 -83 105 -183 86 -75 113 -79 157 -23 89 113 179
371 202 579 5 48 13 124 19 168 18 147 33 488 30 647 -3 129 -7 160 -20 174
-20 20 -91 27 -139 14z"/>
<path d="M882 1618 c-26 -26 -13 -56 46 -100 104 -79 269 -178 295 -178 30 0
57 33 50 60 -3 11 -55 51 -117 90 -61 39 -133 86 -160 105 -49 36 -93 44 -114
23z"/>
<path d="M390 1566 c-6 -8 -18 -39 -25 -68 -18 -73 -68 -190 -103 -241 -38
-54 -46 -81 -32 -107 9 -16 19 -20 43 -18 27 3 39 13 74 68 42 63 114 232 128
298 13 61 -49 110 -85 68z"/>
<path d="M851 1336 c-7 -8 -15 -31 -18 -53 -5 -36 -23 -107 -60 -230 -8 -29
-19 -55 -24 -59 -5 -3 -38 17 -75 43 -145 106 -202 131 -232 101 -29 -29 -4
-76 58 -108 14 -8 65 -43 113 -79 106 -78 105 -72 21 -225 -31 -55 -63 -114
-72 -131 -8 -16 -21 -37 -28 -45 -7 -8 -29 -42 -49 -75 -19 -33 -76 -104 -125
-157 -99 -106 -112 -139 -65 -160 20 -9 31 -8 52 3 30 16 169 166 197 212 10
18 38 61 61 97 55 86 104 170 146 252 19 38 36 68 39 68 3 -1 28 -20 57 -43
216 -176 258 -207 277 -207 30 0 46 18 46 52 0 21 -11 36 -52 68 -65 50 -185
151 -244 206 l-44 41 26 69 c15 38 31 87 36 109 5 22 19 70 30 107 21 69 20
117 -3 145 -15 17 -53 17 -68 -1z"/>
</g>
</svg>
