<?xml version="1.0" standalone="no"?>
<!DOCTYPE svg PUBLIC "-//W3C//DTD SVG 20010904//EN"
 "http://www.w3.org/TR/2001/REC-SVG-20010904/DTD/svg10.dtd">
<svg version="1.0" xmlns="http://www.w3.org/2000/svg"
 width="248.000000pt" height="248.000000pt" viewBox="0 0 248.000000 248.000000"
 preserveAspectRatio="xMidYMid meet">
<metadata>
Created by potrace 1.10, written by Peter Selinger 2001-2011
</metadata>
<g transform="translate(0.000000,248.000000) scale(0.100000,-0.100000)"
fill="#000000" stroke="none">
<path d="M1227 2352 c-10 -10 -17 -22 -17 -25 0 -18 -206 -250 -276 -311 -43
-38 -93 -84 -111 -101 -28 -29 -40 -33 -109 -39 -87 -8 -138 -26 -152 -53 -12
-24 20 -803 41 -967 2 -23 -17 -28 -190 -51 -132 -17 -166 -33 -161 -72 5 -46
25 -49 170 -30 73 10 183 23 243 28 61 5 177 16 260 24 82 8 151 12 154 9 9
-9 -31 -116 -66 -177 -90 -154 -334 -334 -517 -381 -68 -18 -86 -30 -86 -60 0
-113 292 -6 520 191 123 107 187 200 239 346 l29 82 113 7 c125 7 409 17 674
23 93 3 174 6 181 9 16 6 22 38 13 63 -12 34 -74 46 -200 38 -60 -4 -109 -5
-109 -3 0 1 9 48 20 103 11 55 27 142 35 194 9 51 17 97 20 101 6 9 54 298 66
390 5 41 14 107 19 147 12 77 5 107 -27 117 -47 15 -214 26 -310 20 -59 -3
-216 -17 -348 -30 -132 -14 -269 -27 -305 -30 l-65 -5 66 63 c76 72 214 232
246 286 37 61 27 112 -22 112 -12 0 -29 -8 -38 -18z m672 -488 c23 -5 23 -6
17 -92 -4 -48 -12 -111 -17 -139 -6 -29 -19 -103 -29 -165 -40 -249 -100 -541
-114 -560 -10 -14 -50 -17 -274 -24 -152 -4 -262 -3 -261 2 8 47 -21 104 -54
104 -32 0 -52 -28 -52 -72 l0 -43 -185 -17 c-214 -20 -225 -20 -226 7 -4 68
-16 283 -24 420 -13 220 -19 475 -10 480 6 4 180 24 625 71 322 35 530 44 604
28z"/>
<path d="M1401 1738 c-111 -113 -129 -146 -100 -175 7 -7 3 -12 -16 -17 -15
-4 -29 -5 -31 -4 -1 2 -5 47 -7 101 -4 105 -19 137 -62 137 -37 0 -44 -21 -47
-141 l-3 -114 -37 -3 c-30 -3 -37 0 -32 12 15 38 -104 196 -148 196 -59 0 -63
-48 -10 -116 52 -67 73 -102 64 -107 -4 -3 -47 -10 -97 -17 -49 -7 -100 -18
-112 -26 -30 -19 -30 -59 0 -79 21 -13 35 -13 142 5 66 12 126 19 134 18 28
-6 -123 -180 -216 -249 -54 -40 -67 -71 -41 -97 47 -47 163 39 321 238 l28 35
-2 -144 c-2 -139 -1 -145 21 -163 28 -23 32 -22 61 1 23 18 24 27 28 150 l3
131 27 -19 c70 -49 290 -164 323 -169 87 -11 94 78 8 103 -14 4 -29 11 -35 15
-5 4 -37 22 -70 40 -128 70 -191 109 -214 134 -14 14 -20 26 -15 26 5 0 70 7
144 15 74 8 162 15 196 15 34 0 68 6 78 13 24 18 24 66 0 85 -19 14 -38 14
-234 -4 l-75 -7 103 111 c56 62 102 119 102 127 0 19 -36 55 -55 55 -8 0 -64
-51 -124 -112z"/>
</g>
</svg>
