<?xml version="1.0" standalone="no"?>
<!DOCTYPE svg PUBLIC "-//W3C//DTD SVG 20010904//EN"
 "http://www.w3.org/TR/2001/REC-SVG-20010904/DTD/svg10.dtd">
<svg version="1.0" xmlns="http://www.w3.org/2000/svg"
 width="248.000000pt" height="248.000000pt" viewBox="0 0 248.000000 248.000000"
 preserveAspectRatio="xMidYMid meet">
<metadata>
Created by potrace 1.10, written by Peter Selinger 2001-2011
</metadata>
<g transform="translate(0.000000,248.000000) scale(0.100000,-0.100000)"
fill="#000000" stroke="none">
<path d="M1227 2352 c-10 -10 -17 -22 -17 -25 0 -21 -214 -258 -300 -333 -100
-87 -123 -121 -103 -153 6 -9 22 -17 36 -19 49 -6 362 302 444 436 37 61 27
112 -22 112 -12 0 -29 -8 -38 -18z"/>
<path d="M567 1828 c-16 -26 -11 -236 17 -706 16 -271 24 -305 67 -310 51 -6
58 29 44 213 -11 154 -25 439 -29 597 -5 186 -14 221 -58 226 -19 2 -31 -3
-41 -20z"/>
</g>
</svg>
