<?xml version="1.0" standalone="no"?>
<!DOCTYPE svg PUBLIC "-//W3C//DTD SVG 20010904//EN"
 "http://www.w3.org/TR/2001/REC-SVG-20010904/DTD/svg10.dtd">
<svg version="1.0" xmlns="http://www.w3.org/2000/svg"
 width="248.000000pt" height="248.000000pt" viewBox="0 0 248.000000 248.000000"
 preserveAspectRatio="xMidYMid meet">
<metadata>
Created by potrace 1.10, written by Peter Selinger 2001-2011
</metadata>
<g transform="translate(0.000000,248.000000) scale(0.100000,-0.100000)"
fill="#000000" stroke="none">
<path d="M987 1992 c-9 -10 -17 -21 -17 -25 0 -4 -24 -41 -52 -84 -121 -179
-252 -337 -431 -517 -113 -114 -137 -144 -135 -164 4 -32 28 -47 63 -38 55 14
388 374 528 571 31 44 62 87 69 97 12 14 53 17 365 21 l353 5 -15 -33 c-7 -19
-34 -67 -58 -107 -24 -40 -54 -92 -65 -115 -12 -23 -45 -72 -73 -110 -29 -37
-97 -133 -151 -213 -101 -150 -214 -303 -226 -307 -4 -1 -25 11 -47 27 -22 16
-72 52 -112 80 -39 27 -74 54 -78 60 -9 14 -58 13 -73 -2 -7 -7 -12 -24 -12
-40 0 -26 24 -49 126 -119 76 -52 292 -236 374 -320 104 -106 170 -159 198
-159 34 0 52 16 52 46 0 20 -119 144 -221 229 -19 17 -57 49 -83 72 l-49 43
32 42 c92 123 145 198 231 323 52 76 113 163 135 194 111 158 214 360 222 435
l6 56 -34 14 c-28 12 -93 14 -384 9 l-350 -6 -10 24 c-13 31 -55 37 -78 11z"/>
</g>
</svg>
