<?xml version="1.0" standalone="no"?>
<!DOCTYPE svg PUBLIC "-//W3C//DTD SVG 20010904//EN"
 "http://www.w3.org/TR/2001/REC-SVG-20010904/DTD/svg10.dtd">
<svg version="1.0" xmlns="http://www.w3.org/2000/svg"
 width="248.000000pt" height="248.000000pt" viewBox="0 0 248.000000 248.000000"
 preserveAspectRatio="xMidYMid meet">
<metadata>
Created by potrace 1.10, written by Peter Selinger 2001-2011
</metadata>
<g transform="translate(0.000000,248.000000) scale(0.100000,-0.100000)"
fill="#000000" stroke="none">
<path d="M987 1992 c-9 -10 -17 -21 -17 -25 0 -4 -24 -41 -52 -84 -121 -179
-252 -337 -431 -517 -113 -114 -137 -144 -135 -164 4 -32 28 -47 63 -38 55 14
388 374 528 571 31 44 62 87 69 97 12 14 53 17 365 21 l353 5 -15 -33 c-7 -19
-34 -67 -58 -107 -24 -40 -54 -92 -65 -115 -12 -23 -45 -72 -73 -110 -29 -37
-93 -129 -142 -203 -50 -74 -107 -155 -127 -180 -122 -152 -151 -217 -109
-243 28 -17 63 2 102 56 21 28 61 84 90 123 29 39 95 133 147 209 52 76 113
163 135 194 111 158 214 360 222 435 l6 56 -34 14 c-28 12 -93 14 -384 9
l-350 -6 -10 24 c-13 31 -55 37 -78 11z"/>
</g>
</svg>
