<?xml version="1.0" standalone="no"?>
<!DOCTYPE svg PUBLIC "-//W3C//DTD SVG 20010904//EN"
 "http://www.w3.org/TR/2001/REC-SVG-20010904/DTD/svg10.dtd">
<svg version="1.0" xmlns="http://www.w3.org/2000/svg"
 width="248.000000pt" height="248.000000pt" viewBox="0 0 248.000000 248.000000"
 preserveAspectRatio="xMidYMid meet">
<metadata>
Created by potrace 1.10, written by Peter Selinger 2001-2011
</metadata>
<g transform="translate(0.000000,248.000000) scale(0.100000,-0.100000)"
fill="#000000" stroke="none">
<path d="M1227 2352 c-10 -10 -17 -22 -17 -25 0 -18 -206 -250 -276 -311 -43
-38 -93 -84 -111 -101 -28 -29 -40 -33 -109 -39 -87 -8 -138 -26 -152 -53 -18
-36 27 -933 50 -981 15 -32 58 -41 78 -17 13 15 15 84 5 200 -20 248 -36 733
-25 740 4 2 115 16 246 30 131 14 253 28 269 30 17 3 80 10 140 15 61 6 157
15 215 20 120 12 339 14 365 4 15 -6 16 -17 11 -93 -4 -47 -12 -110 -17 -138
-6 -29 -19 -103 -29 -165 -38 -235 -100 -540 -111 -552 -14 -16 -10 -63 7 -80
21 -21 57 -20 78 3 17 18 52 176 82 360 8 51 16 97 19 101 6 9 54 298 66 390
5 41 14 107 19 147 12 77 5 107 -27 117 -47 15 -214 26 -310 20 -59 -3 -216
-17 -348 -30 -132 -14 -269 -27 -305 -30 l-65 -5 66 63 c76 72 214 232 246
286 37 61 27 112 -22 112 -12 0 -29 -8 -38 -18z"/>
<path d="M1401 1738 c-111 -114 -129 -146 -100 -175 12 -12 10 -13 -128 -33
-98 -14 -114 -13 -107 5 15 37 -105 195 -148 195 -59 0 -63 -48 -10 -116 52
-67 73 -102 64 -107 -4 -3 -47 -10 -97 -17 -49 -7 -100 -18 -112 -26 -30 -19
-30 -59 0 -79 21 -13 35 -13 137 4 215 36 610 81 709 81 32 0 65 6 75 13 24
18 24 66 0 85 -19 14 -38 14 -234 -4 l-75 -7 103 111 c56 62 102 119 102 127
0 19 -36 55 -55 55 -8 0 -64 -51 -124 -112z"/>
</g>
</svg>
