<?xml version="1.0" standalone="no"?>
<!DOCTYPE svg PUBLIC "-//W3C//DTD SVG 20010904//EN"
 "http://www.w3.org/TR/2001/REC-SVG-20010904/DTD/svg10.dtd">
<svg version="1.0" xmlns="http://www.w3.org/2000/svg"
 width="248.000000pt" height="248.000000pt" viewBox="0 0 248.000000 248.000000"
 preserveAspectRatio="xMidYMid meet">
<metadata>
Created by potrace 1.10, written by Peter Selinger 2001-2011
</metadata>
<g transform="translate(0.000000,248.000000) scale(0.100000,-0.100000)"
fill="#000000" stroke="none">
<path d="M1227 2352 c-10 -10 -17 -22 -17 -25 0 -18 -206 -250 -276 -311 -43
-38 -93 -84 -111 -101 -28 -29 -40 -33 -109 -39 -87 -8 -138 -26 -152 -53 -18
-36 27 -933 50 -981 15 -32 58 -41 78 -17 13 15 15 84 5 200 -20 248 -36 733
-25 740 9 6 609 71 870 95 128 12 338 14 365 4 15 -6 16 -17 11 -93 -4 -47
-12 -110 -17 -138 -6 -29 -19 -103 -29 -165 -38 -235 -100 -540 -111 -552 -14
-16 -10 -63 7 -80 21 -21 57 -20 78 3 17 18 52 176 82 360 8 51 16 97 19 101
6 9 54 298 66 390 5 41 14 107 19 147 12 77 5 107 -27 117 -47 15 -214 26
-310 20 -59 -3 -216 -17 -348 -30 -132 -14 -269 -27 -305 -30 l-65 -5 66 63
c76 72 214 232 246 286 37 61 27 112 -22 112 -12 0 -29 -8 -38 -18z"/>
<path d="M1401 1738 c-111 -113 -129 -146 -100 -175 7 -7 3 -12 -16 -17 -15
-4 -29 -5 -31 -4 -1 2 -5 47 -7 101 -4 105 -19 137 -62 137 -37 0 -44 -21 -47
-141 l-3 -114 -37 -3 c-30 -3 -37 0 -32 12 15 38 -104 196 -148 196 -59 0 -63
-48 -10 -116 52 -67 73 -102 64 -107 -4 -3 -47 -10 -97 -17 -49 -7 -100 -18
-112 -26 -30 -19 -30 -59 0 -79 21 -13 35 -13 142 5 66 12 126 19 134 18 28
-6 -123 -180 -216 -249 -54 -40 -67 -71 -41 -97 47 -47 163 39 321 238 l28 35
-2 -144 c-2 -139 -1 -145 21 -163 28 -23 32 -22 61 1 23 18 24 27 28 150 l3
131 27 -19 c70 -49 290 -164 323 -169 87 -11 94 78 8 103 -14 4 -29 11 -35 15
-5 4 -37 22 -70 40 -128 70 -191 109 -214 134 -14 14 -20 26 -15 26 5 0 70 7
144 15 74 8 162 15 196 15 34 0 68 6 78 13 24 18 24 66 0 85 -19 14 -38 14
-234 -4 l-75 -7 103 111 c56 62 102 119 102 127 0 19 -36 55 -55 55 -8 0 -64
-51 -124 -112z"/>
</g>
</svg>
