<?xml version="1.0" standalone="no"?>
<!DOCTYPE svg PUBLIC "-//W3C//DTD SVG 20010904//EN"
 "http://www.w3.org/TR/2001/REC-SVG-20010904/DTD/svg10.dtd">
<svg version="1.0" xmlns="http://www.w3.org/2000/svg"
 width="248.000000pt" height="248.000000pt" viewBox="0 0 248.000000 248.000000"
 preserveAspectRatio="xMidYMid meet">
<metadata>
Created by potrace 1.10, written by Peter Selinger 2001-2011
</metadata>
<g transform="translate(0.000000,248.000000) scale(0.100000,-0.100000)"
fill="#000000" stroke="none">
<path d="M625 2347 c-13 -21 -15 -53 -13 -200 3 -204 19 -180 -132 -197 -173
-19 -200 -29 -200 -75 0 -44 21 -49 148 -37 64 7 134 15 155 18 l37 7 0 -39
c0 -22 3 -75 6 -119 l7 -81 -184 -28 c-101 -16 -209 -32 -240 -35 -31 -4 -64
-13 -73 -20 -24 -20 -20 -58 9 -77 28 -18 36 -18 235 14 74 12 162 27 195 32
33 5 116 19 185 30 69 12 157 26 195 32 148 22 279 49 292 60 22 18 12 61 -17
75 -19 9 -43 8 -105 -2 -44 -7 -129 -21 -190 -30 -60 -9 -129 -20 -151 -24
l-42 -8 -6 51 c-3 28 -6 79 -6 113 0 72 -14 64 154 88 133 19 148 26 144 67
-5 49 -24 54 -135 39 -54 -8 -115 -16 -135 -18 l-38 -5 0 168 c0 187 -7 217
-52 222 -19 2 -31 -4 -43 -21z"/>
</g>
</svg>
