<?xml version="1.0" standalone="no"?>
<!DOCTYPE svg PUBLIC "-//W3C//DTD SVG 20010904//EN"
 "http://www.w3.org/TR/2001/REC-SVG-20010904/DTD/svg10.dtd">
<svg version="1.0" xmlns="http://www.w3.org/2000/svg"
 width="248.000000pt" height="248.000000pt" viewBox="0 0 248.000000 248.000000"
 preserveAspectRatio="xMidYMid meet">
<metadata>
Created by potrace 1.10, written by Peter Selinger 2001-2011
</metadata>
<g transform="translate(0.000000,248.000000) scale(0.100000,-0.100000)"
fill="#000000" stroke="none">
<path d="M672 2328 c-9 -9 -12 -70 -12 -214 0 -149 -3 -204 -12 -212 -21 -16
-226 -53 -328 -59 -102 -5 -120 -13 -120 -48 0 -39 22 -47 129 -46 89 1 260
23 282 37 17 10 9 -13 -37 -112 -72 -153 -155 -272 -296 -421 -32 -34 -58 -70
-58 -82 0 -28 43 -56 67 -43 59 32 265 283 324 395 20 39 39 64 43 58 4 -6 4
-71 1 -143 -6 -148 -17 -441 -17 -476 0 -53 65 -71 88 -24 8 16 14 141 19 363
4 187 11 342 16 345 5 2 28 -13 51 -34 60 -54 163 -122 186 -122 27 0 44 24
40 57 -2 22 -18 38 -71 75 -87 59 -207 165 -207 183 0 8 28 20 73 30 92 23
206 61 223 76 19 15 18 53 -1 69 -19 16 -60 9 -190 -29 -75 -23 -101 -27 -107
-18 -4 7 -8 95 -8 198 0 194 -3 209 -45 209 -12 0 -26 -5 -33 -12z"/>
<path d="M1700 2273 c-194 -8 -380 -37 -417 -66 -17 -12 -16 -47 1 -69 9 -12
11 -35 5 -80 -3 -35 -10 -262 -13 -505 -7 -461 -4 -522 32 -524 29 -2 47 2 54
14 3 6 6 86 6 179 -1 106 3 173 9 179 17 17 153 36 298 43 72 4 145 9 163 13
l33 5 -5 -153 c-2 -85 -6 -171 -8 -193 -2 -32 1 -42 24 -59 25 -19 28 -19 52
-3 23 14 26 24 28 74 0 31 0 64 0 72 -1 8 3 132 10 275 6 143 11 269 11 280 0
11 6 125 13 253 10 163 11 239 4 253 -11 20 -57 22 -300 12z m202 -173 c-1
-41 -5 -102 -8 -136 l-5 -60 -192 -19 c-106 -10 -221 -21 -256 -24 l-64 -7 7
136 c7 154 8 155 90 165 95 12 270 22 351 21 l80 -1 -3 -75z m-20 -431 l-7
-114 -30 -2 c-257 -16 -388 -26 -422 -33 -32 -6 -43 -4 -47 7 -12 30 -6 210 7
221 6 5 44 12 82 15 114 9 389 37 400 41 20 6 24 -24 17 -135z"/>
</g>
</svg>
