<?xml version="1.0" standalone="no"?>
<!DOCTYPE svg PUBLIC "-//W3C//DTD SVG 20010904//EN"
 "http://www.w3.org/TR/2001/REC-SVG-20010904/DTD/svg10.dtd">
<svg version="1.0" xmlns="http://www.w3.org/2000/svg"
 width="248.000000pt" height="248.000000pt" viewBox="0 0 248.000000 248.000000"
 preserveAspectRatio="xMidYMid meet">
<metadata>
Created by potrace 1.10, written by Peter Selinger 2001-2011
</metadata>
<g transform="translate(0.000000,248.000000) scale(0.100000,-0.100000)"
fill="#000000" stroke="none">
<path d="M625 2347 c-13 -21 -15 -53 -13 -200 3 -204 19 -180 -132 -197 -173
-19 -200 -29 -200 -75 0 -44 21 -49 148 -37 64 7 134 15 155 18 l37 7 0 -39
c0 -22 3 -75 6 -119 l7 -81 -184 -28 c-101 -16 -209 -32 -240 -35 -31 -4 -64
-13 -73 -20 -24 -20 -20 -58 9 -77 28 -18 37 -18 235 15 74 12 167 26 205 33
39 6 115 19 170 29 55 11 115 19 134 19 31 0 33 -1 20 -17 -8 -10 -26 -43 -38
-73 -49 -115 -83 -180 -131 -254 -30 -46 -50 -88 -50 -105 0 -26 -4 -29 -42
-34 -24 -3 -63 -9 -88 -13 -37 -5 -43 -4 -32 7 19 21 14 55 -18 116 -17 31
-42 95 -57 142 -29 95 -46 121 -78 121 -53 0 -57 -41 -15 -171 33 -100 72
-178 102 -206 19 -17 17 -18 -59 -35 -43 -9 -96 -17 -118 -17 -75 -1 -114 -60
-63 -95 29 -21 50 -20 177 4 58 11 160 29 226 40 357 61 382 67 396 91 14 26
2 58 -24 68 -13 5 -56 2 -105 -7 -45 -8 -85 -12 -88 -9 -3 3 7 25 23 49 78
115 151 271 160 339 4 30 1 40 -18 52 l-22 16 24 5 c13 2 78 14 143 25 65 11
125 26 133 33 22 18 12 61 -17 75 -19 9 -43 8 -105 -2 -44 -7 -129 -21 -190
-30 -60 -9 -129 -20 -151 -24 l-42 -8 -6 51 c-3 28 -6 79 -6 113 0 72 -14 64
154 88 133 19 148 26 144 67 -5 49 -24 54 -135 39 -54 -8 -115 -16 -135 -18
l-38 -5 0 168 c0 187 -7 217 -52 222 -19 2 -31 -4 -43 -21z"/>
</g>
</svg>
