<?xml version="1.0" standalone="no"?>
<!DOCTYPE svg PUBLIC "-//W3C//DTD SVG 20010904//EN"
 "http://www.w3.org/TR/2001/REC-SVG-20010904/DTD/svg10.dtd">
<svg version="1.0" xmlns="http://www.w3.org/2000/svg"
 width="248.000000pt" height="248.000000pt" viewBox="0 0 248.000000 248.000000"
 preserveAspectRatio="xMidYMid meet">
<metadata>
Created by potrace 1.10, written by Peter Selinger 2001-2011
</metadata>
<g transform="translate(0.000000,248.000000) scale(0.100000,-0.100000)"
fill="#000000" stroke="none">
<path d="M625 2346 c-13 -20 -15 -53 -13 -200 3 -199 12 -181 -87 -191 -205
-21 -245 -34 -245 -80 0 -40 23 -48 108 -41 42 3 110 11 150 18 40 6 74 9 76
7 2 -2 7 -56 11 -120 l7 -116 -58 -8 c-33 -4 -122 -18 -199 -31 -77 -13 -156
-24 -175 -24 -73 0 -107 -62 -55 -96 28 -18 44 -17 200 10 50 9 122 21 160 25
39 5 134 21 213 35 78 14 157 26 174 26 28 0 30 -1 17 -17 -8 -10 -26 -43 -38
-73 -50 -116 -82 -179 -131 -253 -31 -47 -50 -87 -50 -105 0 -27 -4 -30 -42
-35 -24 -3 -63 -9 -88 -13 -37 -5 -43 -4 -32 7 19 21 14 55 -18 116 -17 31
-42 95 -57 142 -29 95 -46 121 -78 121 -53 0 -57 -41 -15 -171 35 -105 74
-183 106 -208 22 -17 20 -18 -69 -34 -51 -10 -106 -17 -122 -17 -40 0 -75 -25
-75 -55 0 -28 34 -55 71 -55 14 0 68 9 120 19 52 11 115 22 142 26 l47 6 -1
-73 c-1 -40 -4 -100 -8 -133 l-6 -60 -85 -17 c-285 -57 -300 -62 -300 -103 0
-45 45 -59 130 -39 30 7 91 20 135 28 44 9 90 18 103 21 l22 5 0 -233 c0 -252
5 -277 54 -277 48 0 51 16 56 284 l5 251 45 8 c107 20 297 70 318 83 24 16 29
53 10 72 -14 14 -64 16 -104 3 -24 -8 -159 -38 -251 -57 -22 -4 -22 -3 -18
123 4 149 -12 133 165 163 66 11 131 25 144 30 46 17 42 85 -6 92 -13 2 -58
-3 -100 -11 -43 -8 -80 -12 -84 -8 -3 3 3 18 14 34 45 64 110 181 122 218 7
22 21 57 31 77 23 46 24 86 3 110 -20 22 -25 20 121 43 139 21 160 31 160 70
0 22 -7 33 -25 41 -25 12 -75 6 -406 -48 l-82 -14 -6 44 c-3 25 -6 76 -6 113
0 79 -15 70 154 94 129 19 146 26 146 63 0 56 -33 63 -180 37 -144 -25 -130
-43 -130 158 0 140 -3 177 -16 195 -20 29 -59 29 -79 -2z"/>
<path d="M2150 2263 c-88 -7 -427 -54 -570 -79 -80 -14 -159 -27 -176 -30 -64
-9 -66 -17 -53 -245 9 -157 9 -288 0 -569 -7 -201 -11 -562 -9 -803 3 -421 4
-439 22 -453 25 -18 37 -18 62 0 18 14 19 32 22 462 2 424 4 446 20 423 27
-40 173 -221 219 -273 24 -27 48 -57 53 -66 14 -27 -88 -179 -191 -287 -51
-52 -89 -101 -89 -112 0 -26 26 -51 54 -51 31 0 198 175 260 273 26 42 52 75
57 72 4 -3 45 -51 91 -106 127 -157 339 -319 449 -344 38 -9 74 23 65 58 -5
21 -24 35 -89 66 -114 55 -250 171 -369 313 l-98 116 26 46 c35 63 137 299
190 441 55 147 57 201 9 224 -37 18 -196 5 -420 -35 -82 -15 -166 -29 -186
-31 l-36 -5 1 329 c0 180 -3 358 -7 394 l-8 67 58 6 c32 4 74 11 93 16 46 12
279 46 405 60 55 6 119 13 143 15 l42 5 0 -93 c0 -50 -4 -121 -9 -157 -5 -36
-12 -108 -16 -161 -4 -52 -10 -101 -15 -109 -7 -11 -23 -8 -86 14 -92 33 -124
27 -124 -23 0 -37 22 -53 107 -82 34 -11 65 -25 68 -30 10 -15 91 -11 105 6
31 38 56 202 76 505 7 99 -7 200 -29 218 -17 13 -63 19 -117 15z m-125 -1040
c-4 -10 -22 -58 -40 -108 -34 -91 -159 -382 -169 -392 -10 -10 -216 235 -295
351 -19 27 -42 51 -52 53 -39 11 -18 30 44 41 34 6 103 18 152 27 123 23 271
43 324 44 37 1 42 -1 36 -16z"/>
</g>
</svg>
