<?xml version="1.0" standalone="no"?>
<!DOCTYPE svg PUBLIC "-//W3C//DTD SVG 20010904//EN"
 "http://www.w3.org/TR/2001/REC-SVG-20010904/DTD/svg10.dtd">
<svg version="1.0" xmlns="http://www.w3.org/2000/svg"
 width="248.000000pt" height="248.000000pt" viewBox="0 0 248.000000 248.000000"
 preserveAspectRatio="xMidYMid meet">
<metadata>
Created by potrace 1.10, written by Peter Selinger 2001-2011
</metadata>
<g transform="translate(0.000000,248.000000) scale(0.100000,-0.100000)"
fill="#000000" stroke="none">
<path d="M672 2328 c-9 -9 -12 -70 -12 -214 0 -149 -3 -204 -12 -212 -21 -16
-226 -53 -328 -59 -102 -5 -120 -13 -120 -48 0 -39 22 -47 129 -46 89 1 260
23 282 37 17 10 9 -13 -37 -112 -72 -153 -155 -272 -296 -421 -32 -34 -58 -70
-58 -82 0 -28 43 -56 67 -43 59 32 265 283 324 395 20 39 39 64 43 58 4 -6 4
-71 1 -143 -6 -148 -17 -441 -17 -476 0 -53 65 -71 88 -24 8 16 14 141 19 363
4 187 11 342 16 345 5 2 28 -13 51 -34 60 -54 163 -122 186 -122 27 0 44 24
40 57 -2 22 -18 38 -71 75 -87 59 -207 165 -207 183 0 8 28 20 73 30 92 23
206 61 223 76 19 15 18 53 -1 69 -19 16 -60 9 -190 -29 -75 -23 -101 -27 -107
-18 -4 7 -8 95 -8 198 0 194 -3 209 -45 209 -12 0 -26 -5 -33 -12z"/>
<path d="M1312 2178 c-20 -25 -31 -217 -37 -640 -7 -445 -3 -507 33 -509 28
-2 47 2 53 13 3 5 7 168 7 361 1 194 7 443 13 554 10 163 10 205 -1 218 -15
18 -54 20 -68 3z"/>
</g>
</svg>
