<?xml version="1.0" standalone="no"?>
<!DOCTYPE svg PUBLIC "-//W3C//DTD SVG 20010904//EN"
 "http://www.w3.org/TR/2001/REC-SVG-20010904/DTD/svg10.dtd">
<svg version="1.0" xmlns="http://www.w3.org/2000/svg"
 width="248.000000pt" height="248.000000pt" viewBox="0 0 248.000000 248.000000"
 preserveAspectRatio="xMidYMid meet">
<metadata>
Created by potrace 1.10, written by Peter Selinger 2001-2011
</metadata>
<g transform="translate(0.000000,248.000000) scale(0.100000,-0.100000)"
fill="#000000" stroke="none">
<path d="M471 2301 c-16 -16 -19 -39 -23 -180 -2 -88 -7 -163 -10 -166 -3 -3
-49 -12 -103 -20 -109 -17 -145 -34 -145 -69 0 -50 16 -52 188 -30 l53 7 -6
-384 c-6 -387 -19 -685 -31 -727 -3 -12 -16 -24 -28 -27 -213 -43 -246 -57
-246 -100 0 -48 21 -51 168 -22 75 15 180 34 232 43 52 8 132 24 177 35 45 10
144 28 220 39 303 43 303 44 303 96 0 28 -5 36 -25 44 -15 6 -34 6 -48 1 -13
-5 -49 -12 -80 -16 l-56 -7 6 558 c3 308 7 560 8 561 1 2 43 11 93 22 100 20
122 32 122 65 0 48 -42 57 -159 32 l-64 -13 7 111 c7 127 -2 159 -46 164 -38
5 -55 -29 -57 -108 -1 -36 -4 -93 -7 -127 l-6 -61 -62 -11 c-117 -19 -297 -43
-300 -40 -2 2 1 38 5 79 4 41 8 110 8 153 1 64 -2 80 -19 97 -25 25 -45 25
-69 1z m439 -515 l0 -135 -52 -9 c-29 -6 -102 -18 -163 -27 -60 -9 -122 -19
-137 -22 l-28 -5 6 133 c4 74 8 136 10 138 2 2 83 16 181 31 98 15 179 28 181
29 1 0 2 -59 2 -133z m0 -385 l0 -140 -57 -6 c-56 -6 -222 -30 -290 -41 l-33
-5 0 139 0 138 123 18 c67 10 145 21 172 26 93 15 85 27 85 -129z m-4 -303
c-3 -29 -6 -108 -6 -174 l0 -121 -42 -7 c-24 -3 -112 -20 -195 -38 -84 -17
-155 -30 -157 -27 -3 2 -1 50 4 105 5 55 10 135 11 177 1 41 5 80 8 85 3 5 31
13 61 17 30 3 91 12 135 19 44 7 104 14 134 15 l54 1 -7 -52z"/>
<path d="M1494 2058 c-5 -7 -9 -168 -9 -358 -3 -650 -57 -1095 -161 -1312 -48
-99 -53 -139 -19 -152 39 -15 66 13 117 120 40 85 56 134 78 243 27 135 54
343 65 511 3 47 7 114 10 150 31 439 27 750 -11 792 -19 21 -59 24 -70 6z"/>
<path d="M792 598 c-23 -23 -13 -56 28 -88 21 -17 73 -73 115 -125 41 -52 80
-97 85 -100 6 -4 28 -31 51 -61 28 -38 46 -54 62 -54 58 0 62 58 10 127 -76
100 -240 285 -267 300 -27 16 -69 16 -84 1z"/>
<path d="M532 583 c-7 -3 -24 -30 -38 -61 -37 -83 -123 -191 -208 -262 -76
-63 -91 -91 -64 -118 33 -33 96 0 204 105 56 54 129 159 159 227 30 68 30 71
5 96 -20 20 -33 23 -58 13z"/>
</g>
</svg>
