<?xml version="1.0" standalone="no"?>
<!DOCTYPE svg PUBLIC "-//W3C//DTD SVG 20010904//EN"
 "http://www.w3.org/TR/2001/REC-SVG-20010904/DTD/svg10.dtd">
<svg version="1.0" xmlns="http://www.w3.org/2000/svg"
 width="248.000000pt" height="248.000000pt" viewBox="0 0 248.000000 248.000000"
 preserveAspectRatio="xMidYMid meet">
<metadata>
Created by potrace 1.10, written by Peter Selinger 2001-2011
</metadata>
<g transform="translate(0.000000,248.000000) scale(0.100000,-0.100000)"
fill="#000000" stroke="none">
<path d="M471 2301 c-16 -16 -19 -39 -23 -180 -2 -88 -7 -163 -10 -166 -3 -3
-49 -12 -103 -20 -109 -17 -145 -34 -145 -69 0 -50 16 -52 188 -30 l53 7 -6
-389 c-6 -361 -18 -649 -31 -735 -4 -26 -1 -40 11 -52 36 -37 81 -5 94 68 15
80 30 432 35 788 2 181 7 331 10 334 2 3 78 16 168 29 224 33 478 84 506 101
24 15 29 52 10 71 -18 18 -62 15 -225 -17 -154 -31 -452 -76 -457 -70 -2 2 1
38 5 79 4 41 8 110 8 153 1 64 -2 80 -19 97 -25 25 -45 25 -69 1z"/>
</g>
</svg>
