<?xml version="1.0" standalone="no"?>
<!DOCTYPE svg PUBLIC "-//W3C//DTD SVG 20010904//EN"
 "http://www.w3.org/TR/2001/REC-SVG-20010904/DTD/svg10.dtd">
<svg version="1.0" xmlns="http://www.w3.org/2000/svg"
 width="248.000000pt" height="248.000000pt" viewBox="0 0 248.000000 248.000000"
 preserveAspectRatio="xMidYMid meet">
<metadata>
Created by potrace 1.10, written by Peter Selinger 2001-2011
</metadata>
<g transform="translate(0.000000,248.000000) scale(0.100000,-0.100000)"
fill="#000000" stroke="none">
<path d="M403 2040 c-25 -10 -37 -41 -28 -70 9 -29 -13 -717 -31 -960 -8 -113
-22 -248 -30 -300 -16 -103 -65 -266 -95 -316 -47 -77 9 -128 73 -67 32 30 99
220 118 333 30 183 54 631 62 1168 2 181 1 195 -17 208 -21 16 -22 16 -52 4z"/>
</g>
</svg>
