<?xml version="1.0" standalone="no"?>
<!DOCTYPE svg PUBLIC "-//W3C//DTD SVG 20010904//EN"
 "http://www.w3.org/TR/2001/REC-SVG-20010904/DTD/svg10.dtd">
<svg version="1.0" xmlns="http://www.w3.org/2000/svg"
 width="248.000000pt" height="248.000000pt" viewBox="0 0 248.000000 248.000000"
 preserveAspectRatio="xMidYMid meet">
<metadata>
Created by potrace 1.10, written by Peter Selinger 2001-2011
</metadata>
<g transform="translate(0.000000,248.000000) scale(0.100000,-0.100000)"
fill="#000000" stroke="none">
<path d="M1990 2249 c-166 -8 -241 -16 -560 -55 -122 -15 -214 -31 -227 -40
-27 -17 -30 -56 -7 -75 16 -13 27 -13 386 32 169 21 489 48 500 42 3 -2 3 -16
-2 -31 -51 -173 -120 -396 -124 -399 -3 -3 -30 7 -60 21 -79 37 -112 42 -136
21 -38 -35 -18 -72 51 -94 20 -6 54 -25 75 -41 38 -28 86 -38 110 -22 30 20
67 104 113 258 28 93 62 202 76 243 50 148 44 152 -195 140z"/>
<path d="M890 2123 c-79 -3 -382 -29 -462 -39 -26 -4 -55 -12 -64 -19 -21 -15
-21 -61 1 -85 15 -17 16 -45 5 -397 -12 -405 -32 -720 -56 -873 -16 -103 -65
-266 -95 -316 -31 -52 -20 -94 25 -94 42 0 75 49 115 174 47 143 65 251 82
481 7 94 13 171 14 173 2 2 20 5 41 7 22 3 115 13 208 24 93 11 173 18 178 15
12 -7 10 -771 -1 -779 -6 -3 -15 4 -21 15 -16 29 -60 49 -87 39 -22 -8 -28
-25 -23 -58 1 -13 60 -86 117 -147 38 -41 113 -24 113 24 0 9 1 260 3 557 4
549 15 834 43 1095 18 166 18 180 7 191 -12 12 -57 16 -143 12z m28 -102 c11
-6 11 -33 2 -137 -5 -71 -11 -147 -13 -169 l-2 -40 -105 -12 c-120 -13 -263
-26 -300 -27 l-25 -1 0 172 c0 94 3 174 6 177 3 3 61 11 130 17 109 10 255 24
284 27 6 1 16 -2 23 -7z m-23 -588 c-4 -76 -10 -141 -13 -145 -9 -9 -393 -56
-409 -50 -10 3 -13 38 -13 131 0 69 3 135 6 147 5 20 15 22 132 29 70 4 150
10 177 15 28 4 67 8 89 9 l38 1 -7 -137z"/>
</g>
</svg>
