<?xml version="1.0" standalone="no"?>
<!DOCTYPE svg PUBLIC "-//W3C//DTD SVG 20010904//EN"
 "http://www.w3.org/TR/2001/REC-SVG-20010904/DTD/svg10.dtd">
<svg version="1.0" xmlns="http://www.w3.org/2000/svg"
 width="248.000000pt" height="248.000000pt" viewBox="0 0 248.000000 248.000000"
 preserveAspectRatio="xMidYMid meet">
<metadata>
Created by potrace 1.10, written by Peter Selinger 2001-2011
</metadata>
<g transform="translate(0.000000,248.000000) scale(0.100000,-0.100000)"
fill="#000000" stroke="none">
<path d="M1990 2249 c-85 -4 -200 -13 -255 -19 -254 -28 -511 -62 -527 -71
-33 -18 -39 -44 -22 -91 12 -32 18 -108 24 -293 18 -520 8 -989 -29 -1388 -11
-117 -3 -147 40 -147 36 0 57 31 58 85 0 22 5 103 11 180 6 77 14 265 17 418
3 152 8 277 12 277 12 -1 37 -26 81 -80 47 -58 121 -145 203 -237 l47 -53 -25
-50 c-27 -53 -160 -223 -219 -279 -52 -50 -45 -101 14 -101 32 0 162 133 239
246 30 43 56 81 57 83 2 2 56 -45 120 -105 220 -205 340 -288 467 -321 75 -20
97 -11 97 38 0 21 -7 32 -30 44 -16 8 -36 15 -44 15 -28 0 -170 81 -236 134
-36 29 -122 108 -192 175 l-127 122 64 127 c35 70 78 163 95 207 17 44 47 115
67 158 32 68 35 80 23 101 -7 13 -20 26 -30 29 -9 2 -159 -16 -333 -40 -174
-25 -323 -43 -330 -40 -11 4 -15 72 -21 334 -4 180 -8 337 -9 348 -2 22 -6 21
272 55 186 23 502 49 513 43 3 -2 3 -16 -2 -31 -51 -173 -120 -396 -124 -399
-3 -3 -30 7 -60 21 -79 37 -112 42 -136 21 -38 -35 -18 -72 51 -94 20 -6 54
-25 75 -41 38 -28 86 -38 110 -22 30 20 67 104 113 258 28 93 62 202 76 243
50 148 44 152 -195 140z m-100 -912 c0 -26 -175 -407 -187 -406 -9 1 -131 137
-208 233 -28 35 -58 70 -68 80 -9 10 -17 21 -17 25 0 3 91 19 203 34 111 16
209 30 217 31 21 5 60 7 60 3z"/>
<path d="M890 2123 c-79 -3 -382 -29 -462 -39 -26 -4 -55 -12 -64 -19 -21 -15
-21 -61 1 -85 15 -17 16 -45 5 -397 -12 -405 -32 -720 -56 -873 -16 -103 -65
-266 -95 -316 -31 -52 -20 -94 25 -94 42 0 75 49 115 174 47 143 65 251 82
481 7 94 13 171 14 173 2 2 20 5 41 7 22 3 115 13 208 24 93 11 173 18 178 15
12 -7 10 -771 -1 -779 -6 -3 -15 4 -21 15 -16 29 -60 49 -87 39 -22 -8 -28
-25 -23 -58 1 -13 60 -86 117 -147 38 -41 113 -24 113 24 0 9 1 260 3 557 4
549 15 834 43 1095 18 166 18 180 7 191 -12 12 -57 16 -143 12z m28 -102 c11
-6 11 -33 2 -137 -5 -71 -11 -147 -13 -169 l-2 -40 -105 -12 c-120 -13 -263
-26 -300 -27 l-25 -1 0 172 c0 94 3 174 6 177 3 3 61 11 130 17 109 10 255 24
284 27 6 1 16 -2 23 -7z m-23 -588 c-4 -76 -10 -141 -13 -145 -9 -9 -393 -56
-409 -50 -10 3 -13 38 -13 131 0 69 3 135 6 147 5 20 15 22 132 29 70 4 150
10 177 15 28 4 67 8 89 9 l38 1 -7 -137z"/>
</g>
</svg>
