<?xml version="1.0" standalone="no"?>
<!DOCTYPE svg PUBLIC "-//W3C//DTD SVG 20010904//EN"
 "http://www.w3.org/TR/2001/REC-SVG-20010904/DTD/svg10.dtd">
<svg version="1.0" xmlns="http://www.w3.org/2000/svg"
 width="248.000000pt" height="248.000000pt" viewBox="0 0 248.000000 248.000000"
 preserveAspectRatio="xMidYMid meet">
<metadata>
Created by potrace 1.10, written by Peter Selinger 2001-2011
</metadata>
<g transform="translate(0.000000,248.000000) scale(0.100000,-0.100000)"
fill="#000000" stroke="none">
<path d="M1815 2343 c-16 -2 -111 -17 -210 -33 -99 -16 -211 -31 -250 -34 -38
-4 -158 -19 -265 -36 -107 -16 -244 -36 -305 -45 -172 -24 -215 -36 -237 -66
-18 -23 -19 -32 -8 -85 18 -92 9 -563 -13 -689 -10 -55 -27 -155 -38 -223 -22
-128 -67 -300 -92 -349 -8 -15 -20 -46 -27 -68 -19 -61 -85 -214 -119 -275
-39 -70 -40 -106 -5 -122 35 -16 52 -4 91 66 35 62 105 221 134 305 10 30 23
59 28 65 14 18 69 224 87 329 14 74 21 97 33 97 20 0 313 55 398 75 67 16 529
87 713 110 63 8 130 17 148 20 l32 6 0 -78 c0 -48 -10 -118 -25 -183 -14 -58
-36 -154 -49 -215 -49 -229 -123 -417 -231 -585 -69 -107 -114 -151 -160 -157
-35 -4 -44 -1 -70 27 -16 17 -44 57 -60 88 -26 49 -35 57 -62 60 -71 7 -66
-71 11 -176 58 -79 103 -106 172 -104 75 2 113 21 166 83 155 185 270 435 333
729 14 63 38 176 55 250 31 141 38 263 20 317 -22 61 -41 61 -425 3 -71 -11
-209 -31 -305 -45 -96 -14 -218 -34 -270 -45 -179 -38 -349 -70 -371 -70 -24
0 -24 -9 6 155 8 44 14 110 15 148 0 37 2 67 5 67 3 0 139 22 303 49 163 27
374 56 467 65 304 30 370 38 385 45 8 5 47 103 88 226 70 209 73 220 60 254
-18 46 -56 57 -153 44z m45 -109 c0 -9 -102 -308 -107 -313 -6 -8 -256 -40
-363 -47 -58 -3 -238 -28 -401 -55 -163 -27 -304 -49 -313 -49 -14 0 -16 15
-16 103 -1 56 -5 121 -9 145 -5 23 -5 45 -1 47 16 10 625 100 740 110 41 3
152 19 245 35 177 29 225 34 225 24z"/>
<path d="M830 995 c-9 -10 -10 -35 -5 -87 11 -109 43 -279 57 -295 18 -22 61
-12 75 18 10 21 10 43 -1 110 -8 46 -19 118 -25 159 -7 41 -19 82 -28 92 -20
22 -56 23 -73 3z"/>
</g>
</svg>
