<?xml version="1.0" standalone="no"?>
<!DOCTYPE svg PUBLIC "-//W3C//DTD SVG 20010904//EN"
 "http://www.w3.org/TR/2001/REC-SVG-20010904/DTD/svg10.dtd">
<svg version="1.0" xmlns="http://www.w3.org/2000/svg"
 width="248.000000pt" height="248.000000pt" viewBox="0 0 248.000000 248.000000"
 preserveAspectRatio="xMidYMid meet">
<metadata>
Created by potrace 1.10, written by Peter Selinger 2001-2011
</metadata>
<g transform="translate(0.000000,248.000000) scale(0.100000,-0.100000)"
fill="#000000" stroke="none">
<path d="M1815 2343 c-16 -2 -111 -17 -210 -33 -99 -16 -211 -31 -250 -34 -38
-4 -158 -19 -265 -36 -107 -16 -244 -36 -305 -45 -172 -24 -215 -36 -237 -66
-18 -23 -19 -32 -8 -85 18 -92 9 -563 -13 -689 -10 -55 -27 -155 -38 -223 -22
-128 -67 -300 -92 -349 -8 -15 -20 -46 -27 -68 -19 -61 -85 -214 -119 -275
-39 -70 -40 -106 -5 -122 35 -16 52 -4 91 66 35 62 105 221 134 305 10 30 23
59 28 65 25 32 97 346 120 531 6 44 17 116 26 160 8 44 14 110 15 148 0 37 2
67 5 67 3 0 139 22 303 49 163 27 374 56 467 65 304 30 370 38 385 45 8 5 47
103 88 226 70 209 73 220 60 254 -18 46 -56 57 -153 44z m45 -109 c0 -9 -102
-308 -107 -313 -6 -8 -256 -40 -363 -47 -58 -3 -238 -28 -401 -55 -163 -27
-304 -49 -313 -49 -14 0 -16 15 -16 103 -1 56 -5 121 -9 145 -5 23 -5 45 -1
47 16 10 625 100 740 110 41 3 152 19 245 35 177 29 225 34 225 24z"/>
</g>
</svg>
