<?xml version="1.0" standalone="no"?>
<!DOCTYPE svg PUBLIC "-//W3C//DTD SVG 20010904//EN"
 "http://www.w3.org/TR/2001/REC-SVG-20010904/DTD/svg10.dtd">
<svg version="1.0" xmlns="http://www.w3.org/2000/svg"
 width="248.000000pt" height="248.000000pt" viewBox="0 0 248.000000 248.000000"
 preserveAspectRatio="xMidYMid meet">
<metadata>
Created by potrace 1.10, written by Peter Selinger 2001-2011
</metadata>
<g transform="translate(0.000000,248.000000) scale(0.100000,-0.100000)"
fill="#000000" stroke="none">
<path d="M1233 2408 c-4 -7 -8 -80 -8 -163 l0 -150 -55 -7 c-30 -4 -130 -16
-221 -28 -91 -12 -216 -24 -277 -27 -62 -3 -120 -11 -128 -18 -22 -16 -21 -65
2 -82 11 -8 30 -12 44 -8 14 3 84 9 155 15 72 5 175 15 230 24 55 8 138 17
185 21 47 3 121 10 165 15 163 19 466 40 665 46 220 7 250 14 250 58 0 42 -32
60 -96 52 -30 -3 -158 -11 -282 -16 -125 -6 -274 -15 -332 -20 -58 -5 -127
-11 -155 -12 l-50 -3 -5 141 c-3 99 -9 146 -19 158 -16 19 -56 21 -68 4z"/>
</g>
</svg>
