<?xml version="1.0" standalone="no"?>
<!DOCTYPE svg PUBLIC "-//W3C//DTD SVG 20010904//EN"
 "http://www.w3.org/TR/2001/REC-SVG-20010904/DTD/svg10.dtd">
<svg version="1.0" xmlns="http://www.w3.org/2000/svg"
 width="248.000000pt" height="248.000000pt" viewBox="0 0 248.000000 248.000000"
 preserveAspectRatio="xMidYMid meet">
<metadata>
Created by potrace 1.10, written by Peter Selinger 2001-2011
</metadata>
<g transform="translate(0.000000,248.000000) scale(0.100000,-0.100000)"
fill="#000000" stroke="none">
<path d="M1233 2408 c-4 -7 -8 -80 -8 -163 l0 -150 -55 -7 c-30 -4 -131 -17
-225 -29 -93 -12 -226 -24 -295 -26 -69 -3 -131 -10 -137 -16 -17 -13 -16 -47
1 -83 25 -52 49 -251 42 -349 -19 -270 -111 -721 -182 -893 -39 -95 -103 -211
-139 -254 -40 -47 -29 -98 21 -98 49 0 160 173 227 355 43 115 114 420 141
610 29 199 35 424 14 545 -15 87 -12 90 90 90 39 0 136 9 215 19 78 11 178 23
222 26 44 4 116 10 160 15 165 19 467 40 665 46 220 7 250 14 250 58 0 42 -32
60 -96 52 -30 -3 -158 -11 -282 -16 -125 -6 -274 -15 -332 -20 -58 -5 -127
-11 -155 -12 l-50 -3 -5 141 c-3 99 -9 146 -19 158 -16 19 -56 21 -68 4z"/>
<path d="M992 1888 c-16 -16 -15 -47 2 -89 7 -19 17 -55 20 -81 7 -44 5 -48
-16 -52 -44 -8 -206 -26 -240 -26 -19 0 -39 -5 -46 -12 -15 -15 -15 -51 0 -66
14 -14 141 -15 243 -2 45 6 74 5 80 -1 6 -6 15 -62 21 -125 9 -84 17 -120 30
-135 20 -22 43 -24 68 -6 16 12 16 21 3 142 -10 95 -11 132 -3 137 6 4 34 8
61 8 28 0 76 4 108 10 32 5 170 16 305 25 487 30 512 34 512 90 0 38 -39 59
-87 45 -21 -5 -105 -15 -188 -20 -82 -5 -222 -14 -310 -19 -88 -6 -194 -15
-235 -20 -41 -6 -102 -11 -135 -13 l-60 -3 -16 83 c-9 46 -25 96 -36 110 -22
30 -61 40 -81 20z"/>
</g>
</svg>
