<?xml version="1.0" standalone="no"?>
<!DOCTYPE svg PUBLIC "-//W3C//DTD SVG 20010904//EN"
 "http://www.w3.org/TR/2001/REC-SVG-20010904/DTD/svg10.dtd">
<svg version="1.0" xmlns="http://www.w3.org/2000/svg"
 width="248.000000pt" height="248.000000pt" viewBox="0 0 248.000000 248.000000"
 preserveAspectRatio="xMidYMid meet">
<metadata>
Created by potrace 1.10, written by Peter Selinger 2001-2011
</metadata>
<g transform="translate(0.000000,248.000000) scale(0.100000,-0.100000)"
fill="#000000" stroke="none">
<path d="M1117 2282 c-9 -10 -17 -26 -17 -36 0 -15 -63 -122 -159 -266 -45
-69 -139 -194 -181 -240 -17 -19 -43 -51 -58 -70 -14 -19 -53 -64 -87 -100
-33 -36 -95 -105 -138 -155 -43 -49 -93 -101 -112 -115 -60 -43 -58 -102 3
-108 27 -3 42 7 119 85 103 103 233 247 282 312 19 25 57 71 85 102 54 59 168
216 222 305 70 116 97 153 108 147 31 -19 195 -143 201 -152 3 -6 34 -30 67
-54 83 -58 104 -73 189 -138 102 -77 409 -279 492 -323 103 -54 187 -49 187
11 0 26 -30 48 -79 57 -18 3 -72 29 -120 58 -116 70 -385 251 -441 297 -25 20
-65 51 -90 69 -25 18 -65 48 -90 67 -25 19 -94 73 -155 119 -60 45 -121 95
-135 109 -36 36 -71 43 -93 19z"/>
<path d="M1379 1735 c-5 -4 -93 -19 -272 -45 -67 -10 -87 -23 -87 -56 0 -34
41 -58 88 -51 130 20 283 48 305 56 39 15 52 47 32 77 -14 21 -53 33 -66 19z"/>
</g>
</svg>
