<?xml version="1.0" standalone="no"?>
<!DOCTYPE svg PUBLIC "-//W3C//DTD SVG 20010904//EN"
 "http://www.w3.org/TR/2001/REC-SVG-20010904/DTD/svg10.dtd">
<svg version="1.0" xmlns="http://www.w3.org/2000/svg"
 width="248.000000pt" height="248.000000pt" viewBox="0 0 248.000000 248.000000"
 preserveAspectRatio="xMidYMid meet">
<metadata>
Created by potrace 1.10, written by Peter Selinger 2001-2011
</metadata>
<g transform="translate(0.000000,248.000000) scale(0.100000,-0.100000)"
fill="#000000" stroke="none">
<path d="M1116 2268 c-9 -12 -16 -26 -16 -31 0 -7 -85 -145 -159 -257 -45 -69
-139 -194 -181 -240 -17 -19 -43 -51 -58 -70 -14 -19 -53 -64 -87 -100 -33
-36 -95 -105 -138 -155 -43 -49 -93 -101 -112 -115 -60 -43 -58 -102 3 -108
27 -3 42 7 119 85 103 103 233 247 282 312 19 25 57 71 85 102 51 55 181 232
206 279 7 14 41 68 75 120 34 52 65 108 69 124 15 61 -54 103 -88 54z"/>
</g>
</svg>
