<?xml version="1.0" standalone="no"?>
<!DOCTYPE svg PUBLIC "-//W3C//DTD SVG 20010904//EN"
 "http://www.w3.org/TR/2001/REC-SVG-20010904/DTD/svg10.dtd">
<svg version="1.0" xmlns="http://www.w3.org/2000/svg"
 width="248.000000pt" height="248.000000pt" viewBox="0 0 248.000000 248.000000"
 preserveAspectRatio="xMidYMid meet">
<metadata>
Created by potrace 1.10, written by Peter Selinger 2001-2011
</metadata>
<g transform="translate(0.000000,248.000000) scale(0.100000,-0.100000)"
fill="#000000" stroke="none">
<path d="M879 2234 c-10 -13 -15 -56 -17 -164 l-3 -148 -262 -4 c-287 -5 -319
-10 -325 -59 -6 -52 6 -54 311 -50 l280 3 -7 -209 c-4 -114 -11 -255 -16 -313
-5 -58 -14 -179 -20 -270 -20 -305 -74 -572 -149 -735 -43 -92 -49 -123 -29
-143 17 -17 53 -15 70 6 39 45 98 183 127 297 27 108 68 346 81 475 43 429 66
1242 37 1300 -15 31 -58 38 -78 14z"/>
</g>
</svg>
