<?xml version="1.0" standalone="no"?>
<!DOCTYPE svg PUBLIC "-//W3C//DTD SVG 20010904//EN"
 "http://www.w3.org/TR/2001/REC-SVG-20010904/DTD/svg10.dtd">
<svg version="1.0" xmlns="http://www.w3.org/2000/svg"
 width="248.000000pt" height="248.000000pt" viewBox="0 0 248.000000 248.000000"
 preserveAspectRatio="xMidYMid meet">
<metadata>
Created by potrace 1.10, written by Peter Selinger 2001-2011
</metadata>
<g transform="translate(0.000000,248.000000) scale(0.100000,-0.100000)"
fill="#000000" stroke="none">
<path d="M1419 2264 c-20 -25 -33 -567 -34 -1413 0 -615 2 -685 16 -694 27
-17 66 0 78 34 8 22 11 223 11 639 l0 607 113 6 c61 4 141 7 177 7 83 0 115
16 115 55 0 51 -26 57 -224 49 l-173 -7 3 121 c2 66 6 123 9 125 10 10 167 27
328 36 122 7 168 13 187 25 28 19 33 57 10 76 -23 19 -183 14 -462 -16 l-63
-7 0 159 c0 108 -4 167 -13 184 -15 31 -58 38 -78 14z"/>
<path d="M879 2234 c-10 -13 -15 -56 -17 -164 l-3 -148 -262 -4 c-287 -5 -319
-10 -325 -59 -6 -52 6 -54 309 -50 l279 3 0 -80 c0 -43 -3 -113 -6 -154 l-7
-75 -231 -7 c-250 -8 -276 -13 -276 -61 0 -51 21 -54 278 -48 l235 6 -6 -39
c-3 -22 -9 -73 -13 -115 l-6 -75 -72 -26 c-99 -36 -154 -52 -276 -83 -152 -38
-169 -44 -181 -66 -5 -11 -7 -29 -4 -39 13 -41 36 -41 191 0 178 46 234 63
293 84 l44 16 -7 -97 c-9 -129 -49 -375 -80 -489 -14 -50 -43 -131 -65 -179
-43 -92 -49 -123 -29 -143 17 -17 53 -15 70 6 39 45 98 183 127 297 27 108 68
346 81 475 43 429 66 1242 37 1300 -15 31 -58 38 -78 14z"/>
</g>
</svg>
