<?xml version="1.0" standalone="no"?>
<!DOCTYPE svg PUBLIC "-//W3C//DTD SVG 20010904//EN"
 "http://www.w3.org/TR/2001/REC-SVG-20010904/DTD/svg10.dtd">
<svg version="1.0" xmlns="http://www.w3.org/2000/svg"
 width="248.000000pt" height="248.000000pt" viewBox="0 0 248.000000 248.000000"
 preserveAspectRatio="xMidYMid meet">
<metadata>
Created by potrace 1.10, written by Peter Selinger 2001-2011
</metadata>
<g transform="translate(0.000000,248.000000) scale(0.100000,-0.100000)"
fill="#000000" stroke="none">
<path d="M879 2234 c-10 -13 -15 -56 -17 -164 l-3 -148 -262 -4 c-287 -5 -319
-10 -325 -59 -6 -52 6 -54 309 -50 l279 3 0 -80 c0 -43 -3 -113 -6 -154 l-7
-75 -231 -7 c-250 -8 -276 -13 -276 -61 0 -51 21 -54 278 -48 l235 6 -6 -39
c-7 -46 -13 -120 -27 -339 -20 -302 -75 -569 -149 -730 -43 -92 -49 -123 -29
-143 17 -17 53 -15 70 6 39 45 98 183 127 297 27 108 68 346 81 475 43 429 66
1242 37 1300 -15 31 -58 38 -78 14z"/>
</g>
</svg>
