<?xml version="1.0" standalone="no"?>
<!DOCTYPE svg PUBLIC "-//W3C//DTD SVG 20010904//EN"
 "http://www.w3.org/TR/2001/REC-SVG-20010904/DTD/svg10.dtd">
<svg version="1.0" xmlns="http://www.w3.org/2000/svg"
 width="248.000000pt" height="248.000000pt" viewBox="0 0 248.000000 248.000000"
 preserveAspectRatio="xMidYMid meet">
<metadata>
Created by potrace 1.10, written by Peter Selinger 2001-2011
</metadata>
<g transform="translate(0.000000,248.000000) scale(0.100000,-0.100000)"
fill="#000000" stroke="none">
<path d="M1427 2398 c-8 -13 -20 -52 -27 -88 -8 -36 -19 -74 -26 -85 -6 -11
-14 -32 -18 -47 -3 -14 -29 -60 -57 -102 -36 -54 -49 -82 -44 -96 9 -28 39
-42 68 -31 22 9 91 104 117 162 11 25 18 27 99 34 47 3 114 11 148 17 34 5 67
8 72 6 15 -5 -23 -83 -69 -140 -22 -28 -40 -58 -40 -68 0 -28 36 -53 65 -46
34 9 106 108 142 196 32 78 23 74 168 85 90 7 125 24 125 60 0 45 -32 55 -140
45 -189 -19 -297 -30 -380 -40 -47 -5 -97 -10 -112 -10 l-26 0 14 61 c13 55
13 65 -1 85 -20 31 -60 31 -78 2z"/>
<path d="M583 2358 c-6 -7 -16 -31 -23 -53 -20 -63 -128 -270 -171 -327 -42
-57 -47 -78 -23 -102 39 -40 86 -3 161 125 50 86 35 80 218 94 l80 7 28 -87
c15 -48 39 -105 53 -127 22 -34 29 -39 57 -36 51 5 56 39 19 118 -33 73 -53
136 -44 144 3 3 19 6 36 6 44 0 224 21 267 31 27 7 40 17 49 40 12 27 11 33
-7 50 -19 20 -22 20 -139 4 -114 -15 -507 -55 -511 -51 -1 0 7 27 18 59 17 50
18 62 7 85 -15 30 -58 42 -75 20z"/>
<path d="M1249 1904 c-8 -10 -15 -47 -17 -89 l-4 -72 -62 -6 c-33 -3 -135 -13
-226 -21 -238 -23 -280 -35 -280 -82 0 -39 40 -58 97 -46 26 6 91 13 143 17
52 3 124 10 160 15 36 5 89 12 118 15 l52 6 0 -73 0 -74 -207 -27 c-115 -15
-238 -30 -275 -33 -45 -4 -76 -12 -93 -25 l-25 -20 0 -278 c0 -237 2 -280 16
-299 21 -31 64 -26 81 8 9 18 13 93 13 268 l0 242 36 0 c19 0 68 5 107 10 105
15 277 40 315 46 l32 5 0 -79 c0 -59 -4 -83 -15 -92 -9 -7 -32 -43 -52 -79
-57 -102 -121 -200 -172 -262 -194 -237 -344 -394 -496 -523 -44 -37 -83 -76
-87 -86 -9 -24 18 -60 46 -60 91 0 622 560 744 784 l27 49 7 -439 c4 -261 10
-450 17 -466 5 -14 19 -29 30 -33 26 -8 61 10 62 33 1 9 0 299 -1 643 l-2 626
45 7 c78 12 257 27 385 33 l122 5 0 -38 c0 -22 -5 -66 -10 -99 -6 -33 -15
-118 -20 -190 -6 -71 -13 -149 -16 -172 l-6 -43 -49 44 c-56 51 -80 59 -108
39 -33 -23 -25 -52 32 -114 28 -32 65 -74 80 -93 29 -35 65 -47 93 -28 36 24
68 166 79 357 3 55 13 146 22 203 18 118 14 205 -11 230 -13 13 -33 16 -104
14 -99 -2 -281 -18 -425 -36 -54 -6 -100 -10 -102 -7 -3 2 -5 33 -5 67 0 73
-6 69 115 78 39 3 111 10 160 16 50 5 134 14 188 20 54 5 111 15 125 22 32 16
41 58 16 78 -18 16 -100 16 -204 0 -62 -9 -189 -23 -332 -35 l-68 -7 0 54 c0
29 -6 64 -13 78 -15 30 -58 38 -78 14z"/>
</g>
</svg>
