<?xml version="1.0" standalone="no"?>
<!DOCTYPE svg PUBLIC "-//W3C//DTD SVG 20010904//EN"
 "http://www.w3.org/TR/2001/REC-SVG-20010904/DTD/svg10.dtd">
<svg version="1.0" xmlns="http://www.w3.org/2000/svg"
 width="248.000000pt" height="248.000000pt" viewBox="0 0 248.000000 248.000000"
 preserveAspectRatio="xMidYMid meet">
<metadata>
Created by potrace 1.10, written by Peter Selinger 2001-2011
</metadata>
<g transform="translate(0.000000,248.000000) scale(0.100000,-0.100000)"
fill="#000000" stroke="none">
<path d="M632 2238 c-21 -21 -13 -57 21 -95 18 -21 60 -73 91 -116 53 -71 61
-78 89 -75 39 4 55 29 41 65 -13 35 -129 187 -162 214 -28 22 -62 25 -80 7z"/>
<path d="M1119 1875 c-3 -3 -67 -12 -142 -20 -283 -31 -756 -103 -774 -118
-22 -16 -15 -55 12 -73 19 -12 36 -15 68 -10 23 4 74 11 112 16 39 5 178 25
310 44 132 20 260 36 285 36 58 1 166 24 185 40 18 15 20 54 3 68 -17 13 -53
24 -59 17z"/>
</g>
</svg>
