<?xml version="1.0" standalone="no"?>
<!DOCTYPE svg PUBLIC "-//W3C//DTD SVG 20010904//EN"
 "http://www.w3.org/TR/2001/REC-SVG-20010904/DTD/svg10.dtd">
<svg version="1.0" xmlns="http://www.w3.org/2000/svg"
 width="248.000000pt" height="248.000000pt" viewBox="0 0 248.000000 248.000000"
 preserveAspectRatio="xMidYMid meet">
<metadata>
Created by potrace 1.10, written by Peter Selinger 2001-2011
</metadata>
<g transform="translate(0.000000,248.000000) scale(0.100000,-0.100000)"
fill="#000000" stroke="none">
<path d="M583 2358 c-6 -7 -16 -31 -23 -53 -20 -63 -128 -270 -171 -327 -42
-57 -47 -78 -23 -102 39 -40 86 -3 161 125 50 86 35 80 218 94 l80 7 28 -87
c15 -48 39 -105 53 -127 22 -34 29 -39 57 -36 51 5 56 39 19 118 -33 73 -53
136 -44 144 3 3 19 6 36 6 44 0 224 21 267 31 27 7 40 17 49 40 12 27 11 33
-7 50 -19 20 -22 20 -139 4 -114 -15 -507 -55 -511 -51 -1 0 7 27 18 59 17 50
18 62 7 85 -15 30 -58 42 -75 20z"/>
</g>
</svg>
