<?xml version="1.0" standalone="no"?>
<!DOCTYPE svg PUBLIC "-//W3C//DTD SVG 20010904//EN"
 "http://www.w3.org/TR/2001/REC-SVG-20010904/DTD/svg10.dtd">
<svg version="1.0" xmlns="http://www.w3.org/2000/svg"
 width="248.000000pt" height="248.000000pt" viewBox="0 0 248.000000 248.000000"
 preserveAspectRatio="xMidYMid meet">
<metadata>
Created by potrace 1.10, written by Peter Selinger 2001-2011
</metadata>
<g transform="translate(0.000000,248.000000) scale(0.100000,-0.100000)"
fill="#000000" stroke="none">
<path d="M1427 2398 c-8 -13 -20 -52 -27 -88 -8 -36 -19 -74 -26 -85 -6 -11
-14 -32 -18 -47 -3 -14 -29 -60 -57 -102 -52 -79 -57 -106 -20 -125 33 -18 61
0 110 75 27 40 52 82 56 93 5 16 19 20 93 25 48 4 115 12 149 18 34 5 67 8 72
6 15 -5 -23 -83 -69 -140 -22 -28 -40 -58 -40 -68 0 -28 36 -53 65 -46 34 9
106 108 142 196 32 78 23 74 168 85 90 7 125 24 125 60 0 45 -32 55 -140 45
-189 -19 -297 -30 -380 -40 -47 -5 -97 -10 -112 -10 l-26 0 14 61 c13 55 13
65 -1 85 -20 31 -60 31 -78 2z"/>
<path d="M583 2358 c-6 -7 -16 -31 -23 -53 -20 -63 -128 -270 -171 -327 -42
-57 -47 -78 -23 -102 39 -40 86 -3 161 125 50 86 35 80 218 94 l80 7 28 -87
c15 -48 39 -105 53 -127 22 -34 29 -39 57 -36 51 5 56 39 19 118 -33 73 -53
136 -44 144 3 3 19 6 36 6 44 0 224 21 267 31 27 7 40 17 49 40 12 27 11 33
-7 50 -19 20 -22 20 -139 4 -114 -15 -507 -55 -511 -51 -1 0 7 27 18 59 17 50
18 62 7 85 -15 30 -58 42 -75 20z"/>
<path d="M1860 1814 c-19 -2 -69 -8 -110 -13 -41 -6 -124 -15 -185 -21 -173
-17 -383 -40 -465 -50 -41 -5 -120 -12 -175 -16 -112 -7 -232 -29 -252 -45
-21 -18 -15 -57 11 -75 21 -13 34 -14 78 -5 29 6 91 13 138 16 47 3 119 10
160 15 75 9 280 32 465 50 419 43 435 46 435 95 0 38 -34 54 -100 49z"/>
<path d="M642 1388 c-9 -9 -12 -86 -12 -283 0 -232 2 -274 16 -293 11 -16 24
-22 42 -20 49 6 53 29 50 309 -3 236 -5 259 -22 278 -21 23 -56 27 -74 9z"/>
</g>
</svg>
