<?xml version="1.0" standalone="no"?>
<!DOCTYPE svg PUBLIC "-//W3C//DTD SVG 20010904//EN"
 "http://www.w3.org/TR/2001/REC-SVG-20010904/DTD/svg10.dtd">
<svg version="1.0" xmlns="http://www.w3.org/2000/svg"
 width="248.000000pt" height="248.000000pt" viewBox="0 0 248.000000 248.000000"
 preserveAspectRatio="xMidYMid meet">
<metadata>
Created by potrace 1.10, written by Peter Selinger 2001-2011
</metadata>
<g transform="translate(0.000000,248.000000) scale(0.100000,-0.100000)"
fill="#000000" stroke="none">
<path d="M583 2358 c-6 -7 -16 -31 -23 -53 -20 -63 -128 -270 -171 -327 -42
-57 -47 -78 -23 -102 39 -40 86 -3 162 126 24 43 50 78 56 78 6 0 54 5 106 11
52 5 163 16 245 24 200 19 306 32 327 40 9 4 22 20 29 36 11 27 10 33 -8 50
-19 20 -22 20 -139 4 -114 -15 -507 -55 -511 -51 -1 0 7 27 18 59 17 50 18 62
7 85 -15 30 -58 42 -75 20z"/>
</g>
</svg>
