<?xml version="1.0" standalone="no"?>
<!DOCTYPE svg PUBLIC "-//W3C//DTD SVG 20010904//EN"
 "http://www.w3.org/TR/2001/REC-SVG-20010904/DTD/svg10.dtd">
<svg version="1.0" xmlns="http://www.w3.org/2000/svg"
 width="248.000000pt" height="248.000000pt" viewBox="0 0 248.000000 248.000000"
 preserveAspectRatio="xMidYMid meet">
<metadata>
Created by potrace 1.10, written by Peter Selinger 2001-2011
</metadata>
<g transform="translate(0.000000,248.000000) scale(0.100000,-0.100000)"
fill="#000000" stroke="none">
<path d="M675 2295 c-33 -8 -87 -19 -120 -25 -147 -28 -260 -61 -280 -80 -19
-20 -20 -36 -27 -428 -3 -224 -11 -465 -17 -537 -19 -237 -32 -379 -36 -385
-2 -3 -9 -62 -15 -131 -6 -68 -21 -180 -34 -249 -41 -214 -52 -306 -37 -324
18 -21 54 -20 74 2 9 10 22 60 31 117 9 55 27 156 41 225 13 69 26 159 30 200
13 172 29 272 45 280 8 4 51 14 95 21 44 7 125 22 180 35 55 13 100 22 101 21
1 -1 5 -186 9 -412 l7 -410 -21 19 c-22 20 -66 25 -83 8 -21 -21 -11 -63 23
-98 77 -80 141 -95 169 -39 13 26 14 134 11 836 -4 1032 -11 1323 -31 1343
-24 22 -51 25 -115 11z m25 -182 c0 -43 3 -181 7 -308 l6 -230 -94 -22 c-145
-34 -259 -56 -262 -52 -1 2 -1 142 1 311 l3 306 92 22 c171 39 212 48 230 49
15 1 17 -9 17 -76z m10 -811 l0 -158 -107 -22 c-60 -13 -133 -27 -163 -32 -30
-5 -69 -12 -85 -15 l-30 -7 8 109 c4 59 10 131 13 158 l5 51 67 16 c37 10 92
22 122 27 30 5 66 14 80 20 14 5 40 10 58 10 l32 1 0 -158z"/>
<path d="M2242 2228 c-5 -7 -20 -42 -32 -78 -12 -36 -53 -127 -91 -203 -38
-76 -69 -149 -69 -161 0 -54 57 -62 94 -13 31 41 137 263 165 345 18 54 20 67
9 90 -15 30 -58 41 -76 20z"/>
<path d="M1562 2188 c-16 -16 -15 -39 4 -106 48 -172 111 -328 152 -374 17
-21 53 -23 70 -6 20 20 14 52 -26 140 -36 77 -52 120 -97 268 -9 30 -24 63
-32 73 -19 20 -54 22 -71 5z"/>
<path d="M1060 2125 c-20 -24 -7 -81 40 -180 23 -49 49 -108 58 -129 53 -123
88 -181 115 -190 61 -22 84 29 43 98 -14 24 -34 65 -45 92 -10 27 -39 92 -64
144 -24 52 -48 106 -52 120 -16 55 -67 79 -95 45z"/>
<path d="M1853 1368 c-6 -7 -65 -121 -133 -253 -67 -132 -152 -286 -188 -342
-37 -57 -79 -122 -94 -146 -15 -23 -63 -82 -107 -129 -45 -47 -81 -95 -81
-105 0 -27 20 -43 53 -43 22 0 44 16 101 75 130 133 267 355 473 767 53 107
64 153 41 176 -16 16 -53 15 -65 0z"/>
</g>
</svg>
