<?xml version="1.0" standalone="no"?>
<!DOCTYPE svg PUBLIC "-//W3C//DTD SVG 20010904//EN"
 "http://www.w3.org/TR/2001/REC-SVG-20010904/DTD/svg10.dtd">
<svg version="1.0" xmlns="http://www.w3.org/2000/svg"
 width="248.000000pt" height="248.000000pt" viewBox="0 0 248.000000 248.000000"
 preserveAspectRatio="xMidYMid meet">
<metadata>
Created by potrace 1.10, written by Peter Selinger 2001-2011
</metadata>
<g transform="translate(0.000000,248.000000) scale(0.100000,-0.100000)"
fill="#000000" stroke="none">
<path d="M675 2295 c-33 -8 -87 -19 -120 -25 -147 -28 -260 -61 -280 -80 -19
-20 -20 -36 -27 -428 -3 -224 -11 -465 -17 -537 -19 -237 -32 -379 -36 -385
-2 -3 -9 -62 -15 -131 -6 -68 -21 -180 -34 -249 -41 -214 -52 -306 -37 -324
18 -21 54 -20 74 2 9 10 22 60 31 117 9 55 27 156 40 225 14 69 27 157 31 195
15 190 29 277 44 285 9 4 52 14 96 21 44 7 125 22 180 35 55 13 100 22 101 21
1 -1 5 -186 9 -412 l7 -410 -21 19 c-22 20 -66 25 -83 8 -21 -21 -11 -63 23
-98 77 -80 141 -95 169 -39 13 26 14 134 11 836 -4 1032 -11 1323 -31 1343
-24 22 -51 25 -115 11z m25 -182 c0 -43 3 -181 7 -308 l6 -230 -94 -22 c-145
-34 -259 -56 -262 -52 -1 2 -1 142 1 311 l3 306 92 22 c171 39 212 48 230 49
15 1 17 -9 17 -76z m10 -811 l0 -158 -107 -22 c-60 -13 -133 -27 -163 -32 -30
-5 -69 -12 -85 -15 l-30 -7 8 109 c4 59 10 131 13 158 l5 51 67 16 c37 10 92
22 122 27 30 5 66 14 80 20 14 5 40 10 58 10 l32 1 0 -158z"/>
<path d="M2242 2228 c-5 -7 -20 -42 -32 -78 -12 -36 -53 -127 -91 -203 -38
-76 -69 -149 -69 -161 0 -54 57 -62 94 -13 31 41 137 263 165 345 18 54 20 67
9 90 -15 30 -58 41 -76 20z"/>
<path d="M1562 2188 c-16 -16 -15 -39 4 -106 48 -172 111 -328 152 -374 17
-21 53 -23 70 -6 20 20 14 52 -26 140 -36 77 -52 120 -97 268 -9 30 -24 63
-32 73 -19 20 -54 22 -71 5z"/>
<path d="M1060 2125 c-20 -24 -7 -81 40 -180 23 -49 49 -108 58 -129 53 -123
88 -181 115 -190 61 -22 84 29 43 98 -14 24 -34 65 -45 92 -10 27 -39 92 -64
144 -24 52 -48 106 -52 120 -16 55 -67 79 -95 45z"/>
<path d="M1852 1368 c-5 -7 -54 -100 -107 -205 -53 -106 -100 -193 -104 -193
-8 1 -111 177 -152 260 -38 79 -56 100 -84 100 -48 0 -57 -40 -24 -114 25 -57
165 -305 185 -327 22 -25 18 -39 -43 -131 -32 -48 -70 -107 -85 -131 -15 -23
-63 -82 -107 -129 -45 -47 -81 -95 -81 -105 0 -27 20 -43 53 -43 22 0 44 16
101 75 67 68 103 116 205 275 19 30 37 57 39 60 4 6 42 -37 97 -111 55 -74
100 -119 118 -119 23 0 47 28 47 53 -1 22 -30 65 -143 211 l-58 75 52 98 c161
304 187 371 157 401 -16 16 -53 15 -66 0z"/>
<path d="M1020 1335 c-7 -8 -12 -25 -12 -37 0 -13 3 -158 7 -323 4 -173 3
-384 -3 -498 -10 -201 -6 -253 23 -277 11 -9 74 -9 282 0 147 7 392 15 544 19
299 7 313 9 307 60 -2 15 -13 31 -28 38 -31 16 -252 17 -536 4 -109 -6 -266
-13 -348 -16 l-149 -6 6 54 c4 29 10 177 13 328 7 319 -7 608 -31 645 -18 27
-56 32 -75 9z"/>
</g>
</svg>
