<?xml version="1.0" standalone="no"?>
<!DOCTYPE svg PUBLIC "-//W3C//DTD SVG 20010904//EN"
 "http://www.w3.org/TR/2001/REC-SVG-20010904/DTD/svg10.dtd">
<svg version="1.0" xmlns="http://www.w3.org/2000/svg"
 width="248.000000pt" height="248.000000pt" viewBox="0 0 248.000000 248.000000"
 preserveAspectRatio="xMidYMid meet">
<metadata>
Created by potrace 1.10, written by Peter Selinger 2001-2011
</metadata>
<g transform="translate(0.000000,248.000000) scale(0.100000,-0.100000)"
fill="#000000" stroke="none">
<path d="M675 2295 c-33 -8 -87 -19 -120 -25 -147 -28 -260 -61 -280 -80 -19
-20 -20 -36 -27 -428 -3 -224 -11 -465 -17 -537 -19 -237 -32 -379 -36 -385
-2 -3 -9 -62 -15 -131 -6 -68 -21 -180 -34 -249 -41 -214 -52 -306 -37 -324
18 -21 54 -20 74 2 9 10 22 60 31 117 9 55 27 156 41 225 13 69 27 159 30 200
3 41 12 129 20 195 36 307 55 645 55 985 l0 258 63 15 c96 24 269 58 273 54 4
-4 9 -356 19 -1446 5 -520 5 -524 -15 -506 -21 19 -66 23 -82 7 -21 -21 -11
-63 23 -98 77 -80 141 -95 169 -39 13 26 14 134 11 836 -4 1032 -11 1323 -31
1343 -24 22 -51 25 -115 11z"/>
</g>
</svg>
