<?xml version="1.0" standalone="no"?>
<!DOCTYPE svg PUBLIC "-//W3C//DTD SVG 20010904//EN"
 "http://www.w3.org/TR/2001/REC-SVG-20010904/DTD/svg10.dtd">
<svg version="1.0" xmlns="http://www.w3.org/2000/svg"
 width="248.000000pt" height="248.000000pt" viewBox="0 0 248.000000 248.000000"
 preserveAspectRatio="xMidYMid meet">
<metadata>
Created by potrace 1.10, written by Peter Selinger 2001-2011
</metadata>
<g transform="translate(0.000000,248.000000) scale(0.100000,-0.100000)"
fill="#000000" stroke="none">
<path d="M1900 1469 c-384 -8 -542 -18 -755 -49 -71 -11 -206 -26 -300 -35
-93 -9 -224 -22 -290 -30 -66 -8 -154 -15 -195 -15 -77 0 -107 -11 -110 -40
-5 -33 1 -50 20 -60 21 -11 44 -9 430 30 102 10 219 21 260 25 41 3 129 15
195 25 204 32 466 49 819 55 191 2 344 9 349 14 12 12 12 60 1 71 -17 16 -60
17 -424 9z"/>
</g>
</svg>
