<?xml version="1.0" standalone="no"?>
<!DOCTYPE svg PUBLIC "-//W3C//DTD SVG 20010904//EN"
 "http://www.w3.org/TR/2001/REC-SVG-20010904/DTD/svg10.dtd">
<svg version="1.0" xmlns="http://www.w3.org/2000/svg"
 width="248.000000pt" height="248.000000pt" viewBox="0 0 248.000000 248.000000"
 preserveAspectRatio="xMidYMid meet">
<metadata>
Created by potrace 1.10, written by Peter Selinger 2001-2011
</metadata>
<g transform="translate(0.000000,248.000000) scale(0.100000,-0.100000)"
fill="#000000" stroke="none">
<path d="M1203 2410 c-13 -5 -23 -17 -23 -27 -1 -10 -1 -205 -1 -433 0 -228
-4 -440 -7 -470 l-7 -55 -70 -12 c-39 -6 -149 -19 -245 -28 -96 -8 -229 -22
-295 -30 -66 -8 -154 -15 -195 -15 -77 0 -107 -11 -110 -40 -9 -65 12 -73 152
-60 188 18 497 49 608 62 58 6 116 11 130 12 l25 1 1 -593 c1 -453 5 -596 14
-607 15 -18 39 -19 63 -1 16 12 17 54 17 614 0 330 3 603 8 605 22 14 412 37
706 42 191 2 344 9 349 14 13 13 12 60 -1 73 -17 17 -834 2 -1000 -18 l-52 -7
1 479 c1 449 0 479 -17 491 -20 15 -21 15 -51 3z"/>
</g>
</svg>
