<?xml version="1.0" standalone="no"?>
<!DOCTYPE svg PUBLIC "-//W3C//DTD SVG 20010904//EN"
 "http://www.w3.org/TR/2001/REC-SVG-20010904/DTD/svg10.dtd">
<svg version="1.0" xmlns="http://www.w3.org/2000/svg"
 width="248.000000pt" height="248.000000pt" viewBox="0 0 248.000000 248.000000"
 preserveAspectRatio="xMidYMid meet">
<metadata>
Created by potrace 1.10, written by Peter Selinger 2001-2011
</metadata>
<g transform="translate(0.000000,248.000000) scale(0.100000,-0.100000)"
fill="#000000" stroke="none">
<path d="M1295 1415 c-238 -16 -607 -51 -745 -69 -252 -34 -346 -49 -357 -59
-16 -12 -17 -49 -1 -65 17 -17 84 -15 254 8 591 80 1406 128 1712 101 144 -13
162 -9 162 34 0 12 -9 30 -21 41 -20 18 -43 19 -418 20 -239 1 -471 -3 -586
-11z"/>
</g>
</svg>
