<?xml version="1.0" standalone="no"?>
<!DOCTYPE svg PUBLIC "-//W3C//DTD SVG 20010904//EN"
 "http://www.w3.org/TR/2001/REC-SVG-20010904/DTD/svg10.dtd">
<svg version="1.0" xmlns="http://www.w3.org/2000/svg"
 width="248.000000pt" height="248.000000pt" viewBox="0 0 248.000000 248.000000"
 preserveAspectRatio="xMidYMid meet">
<metadata>
Created by potrace 1.10, written by Peter Selinger 2001-2011
</metadata>
<g transform="translate(0.000000,248.000000) scale(0.100000,-0.100000)"
fill="#000000" stroke="none">
<path d="M1707 1924 c-2 -3 -80 -16 -173 -29 -93 -14 -179 -27 -192 -30 -12
-3 -109 -14 -214 -25 -218 -23 -376 -25 -459 -8 -47 9 -61 9 -74 -2 -25 -21
-15 -61 22 -83 29 -16 54 -18 232 -17 186 0 410 17 526 39 28 5 106 17 175 26
166 22 199 31 209 58 4 12 6 29 4 38 -5 17 -47 42 -56 33z"/>
<path d="M790 744 c-313 -28 -625 -70 -648 -87 -15 -12 -16 -49 0 -65 15 -15
96 -16 167 -2 29 5 121 17 204 25 84 9 195 20 247 26 260 27 1236 19 1405 -11
203 -37 216 -36 228 10 11 43 -21 59 -153 81 -115 19 -174 21 -765 24 -352 1
-660 1 -685 -1z"/>
</g>
</svg>
