<?xml version="1.0" standalone="no"?>
<!DOCTYPE svg PUBLIC "-//W3C//DTD SVG 20010904//EN"
 "http://www.w3.org/TR/2001/REC-SVG-20010904/DTD/svg10.dtd">
<svg version="1.0" xmlns="http://www.w3.org/2000/svg"
 width="248.000000pt" height="248.000000pt" viewBox="0 0 248.000000 248.000000"
 preserveAspectRatio="xMidYMid meet">
<metadata>
Created by potrace 1.10, written by Peter Selinger 2001-2011
</metadata>
<g transform="translate(0.000000,248.000000) scale(0.100000,-0.100000)"
fill="#000000" stroke="none">
<path d="M1890 2064 c-127 -33 -520 -94 -700 -109 -41 -4 -124 -13 -185 -20
-74 -10 -158 -12 -257 -8 -159 7 -178 2 -178 -43 0 -14 10 -30 25 -40 21 -14
54 -15 242 -11 332 7 799 66 1117 141 61 14 76 27 76 62 0 46 -39 53 -140 28z"/>
</g>
</svg>
