<?xml version="1.0" standalone="no"?>
<!DOCTYPE svg PUBLIC "-//W3C//DTD SVG 20010904//EN"
 "http://www.w3.org/TR/2001/REC-SVG-20010904/DTD/svg10.dtd">
<svg version="1.0" xmlns="http://www.w3.org/2000/svg"
 width="248.000000pt" height="248.000000pt" viewBox="0 0 248.000000 248.000000"
 preserveAspectRatio="xMidYMid meet">
<metadata>
Created by potrace 1.10, written by Peter Selinger 2001-2011
</metadata>
<g transform="translate(0.000000,248.000000) scale(0.100000,-0.100000)"
fill="#000000" stroke="none">
<path d="M1890 2064 c-127 -33 -520 -94 -700 -109 -41 -4 -124 -13 -185 -20
-74 -10 -158 -12 -257 -8 -159 7 -178 2 -178 -43 0 -14 10 -30 25 -40 21 -14
54 -15 242 -11 332 7 799 66 1117 141 61 14 76 27 76 62 0 46 -39 53 -140 28z"/>
<path d="M1639 1276 c-8 -8 -411 -62 -529 -71 -41 -3 -119 -11 -173 -16 -54
-6 -129 -7 -167 -3 -50 5 -74 3 -85 -6 -23 -19 -18 -57 11 -76 22 -15 47 -16
207 -11 176 6 394 26 527 47 36 6 121 19 189 30 68 11 129 25 137 31 17 14 18
51 2 67 -11 11 -109 17 -119 8z"/>
</g>
</svg>
