<?xml version="1.0" standalone="no"?>
<!DOCTYPE svg PUBLIC "-//W3C//DTD SVG 20010904//EN"
 "http://www.w3.org/TR/2001/REC-SVG-20010904/DTD/svg10.dtd">
<svg version="1.0" xmlns="http://www.w3.org/2000/svg"
 width="248.000000pt" height="248.000000pt" viewBox="0 0 248.000000 248.000000"
 preserveAspectRatio="xMidYMid meet">
<metadata>
Created by potrace 1.10, written by Peter Selinger 2001-2011
</metadata>
<g transform="translate(0.000000,248.000000) scale(0.100000,-0.100000)"
fill="#000000" stroke="none">
<path d="M1635 1719 c-220 -4 -458 -12 -530 -18 -71 -6 -197 -16 -280 -21
-154 -10 -272 -20 -475 -39 -63 -6 -137 -12 -164 -14 -65 -3 -76 -20 -54 -84
22 -65 34 -140 53 -328 8 -88 27 -271 40 -406 14 -135 25 -259 25 -276 0 -34
26 -63 57 -63 40 0 44 20 34 146 -27 335 -79 836 -93 906 -2 8 9 13 32 15 38
1 77 5 332 27 92 9 213 18 270 21 57 3 157 10 223 15 541 43 1092 36 1142 -14
9 -8 -16 -112 -72 -301 -26 -88 -67 -234 -92 -325 -24 -90 -63 -216 -85 -280
-55 -155 -57 -174 -24 -195 24 -16 28 -16 50 -1 14 8 28 26 31 38 4 13 29 93
55 178 27 85 61 200 75 255 15 55 53 188 85 295 106 358 114 409 63 424 -177
49 -229 52 -698 45z"/>
</g>
</svg>
