<?xml version="1.0" standalone="no"?>
<!DOCTYPE svg PUBLIC "-//W3C//DTD SVG 20010904//EN"
 "http://www.w3.org/TR/2001/REC-SVG-20010904/DTD/svg10.dtd">
<svg version="1.0" xmlns="http://www.w3.org/2000/svg"
 width="248.000000pt" height="248.000000pt" viewBox="0 0 248.000000 248.000000"
 preserveAspectRatio="xMidYMid meet">
<metadata>
Created by potrace 1.10, written by Peter Selinger 2001-2011
</metadata>
<g transform="translate(0.000000,248.000000) scale(0.100000,-0.100000)"
fill="#000000" stroke="none">
<path d="M1635 1719 c-220 -4 -458 -12 -530 -18 -71 -6 -197 -16 -280 -21
-154 -10 -272 -20 -475 -39 -63 -6 -137 -12 -164 -14 -65 -3 -76 -20 -54 -84
22 -65 34 -140 53 -328 8 -88 27 -271 40 -406 14 -135 25 -259 25 -276 0 -34
26 -63 57 -63 40 0 44 20 34 146 -27 335 -79 836 -93 906 -2 8 9 13 32 15 38
1 80 5 335 28 94 8 184 15 201 15 l31 0 -12 -52 c-20 -85 -96 -309 -123 -363
-36 -73 -141 -220 -211 -297 -61 -66 -72 -93 -49 -116 24 -24 58 -12 109 35
55 52 180 218 227 303 32 60 112 286 146 415 l21 80 60 7 c334 38 1043 47
1168 15 32 -8 61 -17 64 -21 9 -8 -16 -112 -72 -301 -26 -88 -67 -234 -92
-325 -24 -90 -63 -216 -85 -280 -55 -155 -57 -174 -24 -195 24 -16 28 -16 51
-1 14 9 28 29 31 44 4 15 25 81 46 147 22 66 57 183 78 260 21 77 63 223 93
325 103 348 110 399 60 414 -177 49 -229 52 -698 45z"/>
</g>
</svg>
