<?xml version="1.0" standalone="no"?>
<!DOCTYPE svg PUBLIC "-//W3C//DTD SVG 20010904//EN"
 "http://www.w3.org/TR/2001/REC-SVG-20010904/DTD/svg10.dtd">
<svg version="1.0" xmlns="http://www.w3.org/2000/svg"
 width="248.000000pt" height="248.000000pt" viewBox="0 0 248.000000 248.000000"
 preserveAspectRatio="xMidYMid meet">
<metadata>
Created by potrace 1.10, written by Peter Selinger 2001-2011
</metadata>
<g transform="translate(0.000000,248.000000) scale(0.100000,-0.100000)"
fill="#000000" stroke="none">
<path d="M1730 2165 c-31 -7 -103 -19 -160 -25 -58 -6 -127 -16 -155 -21 -87
-17 -457 -54 -625 -64 -175 -9 -200 -17 -200 -60 0 -43 19 -47 167 -40 76 3
228 15 338 26 218 21 237 23 370 44 50 7 119 17 155 20 112 12 254 45 268 62
15 20 15 29 2 54 -13 23 -75 25 -160 4z"/>
</g>
</svg>
