<?xml version="1.0" standalone="no"?>
<!DOCTYPE svg PUBLIC "-//W3C//DTD SVG 20010904//EN"
 "http://www.w3.org/TR/2001/REC-SVG-20010904/DTD/svg10.dtd">
<svg version="1.0" xmlns="http://www.w3.org/2000/svg"
 width="248.000000pt" height="248.000000pt" viewBox="0 0 248.000000 248.000000"
 preserveAspectRatio="xMidYMid meet">
<metadata>
Created by potrace 1.10, written by Peter Selinger 2001-2011
</metadata>
<g transform="translate(0.000000,248.000000) scale(0.100000,-0.100000)"
fill="#000000" stroke="none">
<path d="M1730 2165 c-31 -7 -103 -19 -160 -25 -58 -6 -127 -16 -155 -21 -87
-17 -457 -54 -625 -64 -175 -9 -200 -17 -200 -60 0 -46 15 -48 227 -36 109 6
222 14 252 18 l54 6 -7 -38 c-4 -21 -23 -93 -43 -159 -19 -67 -48 -175 -64
-241 -16 -66 -39 -148 -50 -182 l-20 -61 -62 -7 c-34 -3 -113 -13 -175 -21
-62 -8 -136 -17 -165 -20 -28 -3 -63 -11 -77 -17 -30 -15 -38 -58 -15 -77 17
-14 7 -15 343 23 62 8 115 11 117 7 5 -8 -132 -424 -187 -570 -48 -125 -54
-155 -38 -175 15 -18 64 -20 78 -2 5 6 23 50 40 97 16 47 35 96 40 110 9 21
167 508 178 547 3 14 24 17 189 33 66 6 181 18 255 25 164 17 260 19 260 4 0
-5 -6 -31 -14 -57 -8 -26 -31 -108 -51 -182 -52 -193 -61 -219 -121 -371 -30
-76 -54 -145 -54 -156 0 -42 54 -58 82 -25 27 31 137 317 163 422 7 30 20 80
28 110 62 219 77 279 77 311 0 38 -16 59 -47 61 -54 3 -330 -15 -481 -32 -95
-11 -190 -20 -212 -20 l-39 0 15 48 c8 26 26 94 40 152 14 58 46 174 70 259
24 85 44 167 44 183 0 31 6 33 100 43 30 3 96 12 145 20 50 7 119 17 155 20
112 12 254 45 268 62 15 20 15 29 2 54 -13 23 -75 25 -160 4z"/>
</g>
</svg>
