<?xml version="1.0" standalone="no"?>
<!DOCTYPE svg PUBLIC "-//W3C//DTD SVG 20010904//EN"
 "http://www.w3.org/TR/2001/REC-SVG-20010904/DTD/svg10.dtd">
<svg version="1.0" xmlns="http://www.w3.org/2000/svg"
 width="248.000000pt" height="248.000000pt" viewBox="0 0 248.000000 248.000000"
 preserveAspectRatio="xMidYMid meet">
<metadata>
Created by potrace 1.10, written by Peter Selinger 2001-2011
</metadata>
<g transform="translate(0.000000,248.000000) scale(0.100000,-0.100000)"
fill="#000000" stroke="none">
<path d="M1730 2165 c-31 -7 -103 -19 -160 -25 -58 -6 -127 -16 -155 -21 -87
-17 -457 -54 -625 -64 -175 -9 -200 -17 -200 -60 0 -46 15 -48 227 -36 109 6
222 14 252 18 l54 6 -7 -38 c-4 -21 -23 -93 -43 -159 -19 -67 -48 -175 -64
-241 -16 -66 -39 -148 -50 -182 l-20 -61 -62 -7 c-34 -3 -113 -13 -175 -21
-62 -8 -136 -17 -165 -20 -28 -3 -63 -11 -77 -17 -30 -15 -38 -58 -15 -77 17
-14 7 -15 343 23 62 8 115 11 117 7 7 -11 -188 -590 -226 -674 -16 -33 -5 -31
-304 -71 -212 -28 -235 -36 -235 -79 0 -50 24 -54 170 -31 447 70 442 69 925
70 268 0 501 -5 575 -12 69 -6 221 -19 338 -27 117 -9 217 -18 222 -21 4 -3
18 4 31 14 20 16 22 23 14 47 -13 36 -31 40 -240 54 -93 6 -215 16 -270 20
-55 5 -146 12 -203 16 -56 4 -104 10 -107 13 -2 4 21 71 51 149 30 79 63 175
74 215 10 40 25 97 34 127 8 30 28 105 45 165 43 156 40 204 -16 207 -54 3
-330 -15 -481 -32 -95 -11 -190 -20 -212 -20 l-39 0 15 48 c8 26 26 94 40 152
14 58 46 174 70 259 24 85 44 167 44 183 0 31 6 33 100 43 30 3 96 12 145 20
50 7 119 17 155 20 112 12 254 45 268 62 15 20 15 29 2 54 -13 23 -75 25 -160
4z m-10 -906 c0 -5 -6 -31 -14 -57 -8 -26 -31 -108 -51 -182 -56 -206 -123
-399 -171 -491 l-15 -29 -340 0 -341 0 7 27 c3 16 17 55 30 88 18 47 176 529
191 582 4 14 17 16 239 38 94 9 202 20 240 25 109 12 225 12 225 -1z"/>
</g>
</svg>
