<?xml version="1.0" standalone="no"?>
<!DOCTYPE svg PUBLIC "-//W3C//DTD SVG 20010904//EN"
 "http://www.w3.org/TR/2001/REC-SVG-20010904/DTD/svg10.dtd">
<svg version="1.0" xmlns="http://www.w3.org/2000/svg"
 width="248.000000pt" height="248.000000pt" viewBox="0 0 248.000000 248.000000"
 preserveAspectRatio="xMidYMid meet">
<metadata>
Created by potrace 1.10, written by Peter Selinger 2001-2011
</metadata>
<g transform="translate(0.000000,248.000000) scale(0.100000,-0.100000)"
fill="#000000" stroke="none">
<path d="M1174 2280 c-30 -11 -35 -33 -23 -90 13 -62 8 -425 -6 -439 -15 -15
-310 -52 -730 -92 -66 -6 -126 -16 -133 -22 -16 -13 -15 -52 2 -66 16 -13 148
-13 256 0 36 4 157 17 270 29 113 11 232 25 265 30 269 42 664 82 995 101 113
7 211 16 218 22 17 13 15 52 -3 67 -30 25 -485 1 -882 -46 -73 -8 -137 -13
-143 -9 -6 4 -10 94 -10 244 0 243 -3 261 -40 273 -8 3 -24 2 -36 -2z"/>
<path d="M1652 1218 c-29 -29 -10 -56 184 -259 187 -195 282 -314 353 -440 33
-59 52 -71 88 -58 53 20 34 72 -95 259 -69 99 -122 159 -337 378 -133 134
-161 152 -193 120z"/>
<path d="M712 1128 c-5 -7 -22 -57 -37 -111 -15 -53 -44 -125 -64 -159 -51
-88 -149 -188 -260 -266 -100 -70 -116 -95 -86 -126 28 -28 60 -18 150 46 117
83 189 156 257 258 82 122 141 316 108 355 -15 18 -54 20 -68 3z"/>
</g>
</svg>
