<?xml version="1.0" standalone="no"?>
<!DOCTYPE svg PUBLIC "-//W3C//DTD SVG 20010904//EN"
 "http://www.w3.org/TR/2001/REC-SVG-20010904/DTD/svg10.dtd">
<svg version="1.0" xmlns="http://www.w3.org/2000/svg"
 width="248.000000pt" height="248.000000pt" viewBox="0 0 248.000000 248.000000"
 preserveAspectRatio="xMidYMid meet">
<metadata>
Created by potrace 1.10, written by Peter Selinger 2001-2011
</metadata>
<g transform="translate(0.000000,248.000000) scale(0.100000,-0.100000)"
fill="#000000" stroke="none">
<path d="M846 2207 c-17 -13 -18 -37 -17 -418 1 -222 -2 -409 -7 -416 -13 -20
-555 -134 -621 -131 -33 2 -46 -2 -57 -17 -19 -26 -18 -41 6 -65 27 -27 88
-26 235 6 66 14 165 34 220 45 55 11 124 27 154 35 30 8 58 11 62 6 4 -4 11
-116 17 -249 11 -232 12 -244 41 -320 76 -196 247 -292 564 -316 130 -10 171
-10 282 4 210 27 265 49 251 103 -9 38 -29 42 -110 22 -175 -44 -406 -48 -572
-11 -94 21 -206 76 -250 122 -40 42 -75 112 -93 188 -15 60 -32 454 -21 475 6
10 76 29 222 58 117 24 231 47 253 52 256 57 452 85 777 114 76 6 143 17 149
23 14 14 15 61 1 75 -15 15 -59 13 -352 -18 -223 -23 -317 -39 -693 -115 -191
-38 -352 -67 -358 -64 -7 5 -9 138 -8 402 1 217 -2 398 -7 403 -18 16 -51 20
-68 7z"/>
</g>
</svg>
