<?xml version="1.0" standalone="no"?>
<!DOCTYPE svg PUBLIC "-//W3C//DTD SVG 20010904//EN"
 "http://www.w3.org/TR/2001/REC-SVG-20010904/DTD/svg10.dtd">
<svg version="1.0" xmlns="http://www.w3.org/2000/svg"
 width="248.000000pt" height="248.000000pt" viewBox="0 0 248.000000 248.000000"
 preserveAspectRatio="xMidYMid meet">
<metadata>
Created by potrace 1.10, written by Peter Selinger 2001-2011
</metadata>
<g transform="translate(0.000000,248.000000) scale(0.100000,-0.100000)"
fill="#000000" stroke="none">
<path d="M1043 2280 c-13 -5 -23 -13 -24 -17 0 -4 -2 -66 -3 -138 -3 -217 -51
-401 -188 -725 -133 -315 -287 -572 -445 -746 -107 -117 -130 -137 -200 -173
-55 -28 -70 -54 -48 -87 22 -33 48 -30 125 15 74 44 239 208 313 313 132 185
270 442 370 688 125 310 164 469 169 703 3 138 2 150 -16 163 -22 16 -23 16
-53 4z"/>
</g>
</svg>
