<?xml version="1.0" standalone="no"?>
<!DOCTYPE svg PUBLIC "-//W3C//DTD SVG 20010904//EN"
 "http://www.w3.org/TR/2001/REC-SVG-20010904/DTD/svg10.dtd">
<svg version="1.0" xmlns="http://www.w3.org/2000/svg"
 width="248.000000pt" height="248.000000pt" viewBox="0 0 248.000000 248.000000"
 preserveAspectRatio="xMidYMid meet">
<metadata>
Created by potrace 1.10, written by Peter Selinger 2001-2011
</metadata>
<g transform="translate(0.000000,248.000000) scale(0.100000,-0.100000)"
fill="#000000" stroke="none">
<path d="M1043 2280 c-13 -5 -23 -13 -24 -17 0 -4 -2 -69 -3 -143 -2 -101 -10
-165 -29 -254 -15 -66 -30 -123 -34 -127 -5 -3 -37 -12 -73 -18 -163 -29 -360
-60 -415 -66 -72 -8 -105 -27 -105 -59 0 -45 20 -51 142 -37 62 7 159 22 217
32 58 11 126 22 150 26 l44 6 -7 -29 c-14 -53 -147 -357 -203 -463 -107 -201
-213 -360 -320 -477 -107 -117 -130 -137 -200 -173 -55 -28 -70 -54 -48 -87
22 -33 48 -30 125 15 74 44 239 208 313 313 139 194 275 450 377 708 34 85 67
169 75 186 l13 31 169 27 c92 15 212 37 266 48 54 11 101 18 103 15 4 -4 -68
-148 -86 -172 -20 -28 -116 -274 -178 -460 -78 -233 -96 -321 -91 -446 5 -107
45 -196 112 -246 128 -96 220 -122 442 -129 149 -5 170 -3 306 24 101 21 168
40 215 64 61 29 71 38 82 73 20 60 11 172 -19 225 -30 53 -59 66 -91 40 l-23
-18 23 -64 c12 -35 22 -82 22 -106 0 -42 -1 -44 -52 -67 -29 -13 -125 -38
-213 -55 -140 -28 -171 -31 -250 -25 -116 9 -129 10 -196 28 -156 42 -243 124
-262 246 -11 65 22 219 87 413 81 244 142 394 219 533 33 61 74 134 89 162 32
57 31 85 -4 104 -15 8 -32 8 -62 0 -155 -41 -576 -111 -576 -96 0 6 9 54 19
106 13 61 21 147 23 242 3 138 2 150 -16 163 -22 16 -23 16 -53 4z"/>
</g>
</svg>
