<?xml version="1.0" standalone="no"?>
<!DOCTYPE svg PUBLIC "-//W3C//DTD SVG 20010904//EN"
 "http://www.w3.org/TR/2001/REC-SVG-20010904/DTD/svg10.dtd">
<svg version="1.0" xmlns="http://www.w3.org/2000/svg"
 width="248.000000pt" height="248.000000pt" viewBox="0 0 248.000000 248.000000"
 preserveAspectRatio="xMidYMid meet">
<metadata>
Created by potrace 1.10, written by Peter Selinger 2001-2011
</metadata>
<g transform="translate(0.000000,248.000000) scale(0.100000,-0.100000)"
fill="#000000" stroke="none">
<path d="M282 2088 c-27 -27 -12 -56 56 -117 99 -89 220 -171 253 -171 28 0
49 23 49 54 0 8 -35 41 -77 73 -43 31 -110 83 -149 115 -71 58 -107 71 -132
46z"/>
<path d="M1238 2073 c-8 -10 -20 -32 -25 -48 -11 -31 -54 -100 -120 -192 -21
-28 -51 -70 -68 -93 -16 -22 -45 -59 -63 -82 -36 -45 -40 -83 -10 -102 27 -17
69 5 104 54 18 25 48 63 66 84 18 21 42 54 53 72 11 18 32 47 46 66 44 54 99
167 99 202 0 18 -5 37 -12 44 -17 17 -53 15 -70 -5z"/>
<path d="M1642 2038 c-17 -17 -15 -53 6 -70 24 -21 210 -148 218 -148 3 0 36
-19 72 -43 117 -74 151 -83 177 -43 24 36 9 55 -87 111 -46 26 -137 83 -204
126 -118 77 -157 92 -182 67z"/>
<path d="M1375 1598 c-18 -25 -62 -92 -142 -214 -47 -72 -81 -118 -224 -308
-25 -34 -94 -107 -152 -162 -59 -56 -107 -109 -107 -117 0 -22 28 -47 52 -47
41 0 209 151 289 261 19 25 62 82 96 126 34 45 76 105 94 134 17 30 48 77 69
104 94 123 128 203 98 233 -19 19 -56 14 -73 -10z"/>
<path d="M112 1438 c-16 -16 -15 -53 1 -66 29 -24 318 -162 339 -162 30 0 48
17 48 45 0 30 -21 46 -125 98 -49 24 -112 56 -139 71 -52 28 -104 34 -124 14z"/>
<path d="M447 618 c-114 -156 -208 -293 -238 -348 -9 -16 -23 -40 -32 -54 -50
-75 20 -133 77 -65 15 17 34 45 43 63 9 17 24 42 35 56 10 14 38 54 61 90 24
36 67 98 95 139 52 75 64 115 40 139 -22 22 -56 13 -81 -20z"/>
</g>
</svg>
