<?xml version="1.0" standalone="no"?>
<!DOCTYPE svg PUBLIC "-//W3C//DTD SVG 20010904//EN"
 "http://www.w3.org/TR/2001/REC-SVG-20010904/DTD/svg10.dtd">
<svg version="1.0" xmlns="http://www.w3.org/2000/svg"
 width="248.000000pt" height="248.000000pt" viewBox="0 0 248.000000 248.000000"
 preserveAspectRatio="xMidYMid meet">
<metadata>
Created by potrace 1.10, written by Peter Selinger 2001-2011
</metadata>
<g transform="translate(0.000000,248.000000) scale(0.100000,-0.100000)"
fill="#000000" stroke="none">
<path d="M282 2088 c-27 -27 -12 -56 56 -117 99 -89 220 -171 253 -171 28 0
49 23 49 54 0 8 -35 41 -77 73 -43 31 -110 83 -149 115 -71 58 -107 71 -132
46z"/>
<path d="M112 1438 c-16 -16 -15 -53 1 -66 29 -24 318 -162 339 -162 30 0 48
17 48 45 0 30 -21 46 -125 98 -49 24 -112 56 -139 71 -52 28 -104 34 -124 14z"/>
</g>
</svg>
