<?xml version="1.0" standalone="no"?>
<!DOCTYPE svg PUBLIC "-//W3C//DTD SVG 20010904//EN"
 "http://www.w3.org/TR/2001/REC-SVG-20010904/DTD/svg10.dtd">
<svg version="1.0" xmlns="http://www.w3.org/2000/svg"
 width="248.000000pt" height="248.000000pt" viewBox="0 0 248.000000 248.000000"
 preserveAspectRatio="xMidYMid meet">
<metadata>
Created by potrace 1.10, written by Peter Selinger 2001-2011
</metadata>
<g transform="translate(0.000000,248.000000) scale(0.100000,-0.100000)"
fill="#000000" stroke="none">
<path d="M282 2088 c-27 -27 -12 -56 56 -117 99 -89 220 -171 253 -171 28 0
49 23 49 54 0 8 -35 41 -77 73 -43 31 -110 83 -149 115 -71 58 -107 71 -132
46z"/>
<path d="M1238 2073 c-8 -10 -20 -32 -25 -48 -11 -31 -54 -100 -120 -192 -21
-28 -51 -70 -68 -93 -16 -22 -45 -59 -63 -82 -36 -45 -40 -83 -10 -102 27 -17
69 5 104 54 18 25 48 63 66 84 18 21 42 54 53 72 11 18 32 47 46 66 44 54 99
167 99 202 0 18 -5 37 -12 44 -17 17 -53 15 -70 -5z"/>
<path d="M1642 2038 c-17 -17 -15 -53 6 -70 24 -21 210 -148 218 -148 3 0 36
-19 72 -43 117 -74 151 -83 177 -43 24 36 9 55 -87 111 -46 26 -137 83 -204
126 -118 77 -157 92 -182 67z"/>
<path d="M1375 1598 c-18 -25 -62 -92 -142 -214 -47 -72 -81 -118 -224 -308
-25 -34 -94 -107 -152 -162 -59 -56 -107 -109 -107 -117 0 -22 28 -47 52 -47
41 0 208 150 289 261 19 25 68 91 109 147 41 55 91 125 110 155 64 99 125 187
131 187 4 0 42 -28 85 -62 43 -35 98 -76 121 -93 23 -16 88 -66 144 -109 204
-158 446 -306 502 -306 31 0 47 18 47 52 0 24 -8 32 -67 62 -119 60 -306 183
-433 285 -41 33 -95 75 -120 92 -25 18 -84 63 -131 100 -133 104 -182 122
-214 77z"/>
<path d="M112 1438 c-16 -16 -15 -53 1 -66 29 -24 318 -162 339 -162 30 0 48
17 48 45 0 30 -21 46 -125 98 -49 24 -112 56 -139 71 -52 28 -104 34 -124 14z"/>
<path d="M1929 976 c-2 -3 -56 -7 -119 -11 -132 -7 -271 -21 -415 -42 -55 -8
-131 -19 -170 -24 -107 -16 -125 -36 -117 -129 16 -181 59 -444 82 -505 5 -13
20 -27 32 -30 13 -3 173 -5 355 -3 318 3 333 4 353 23 22 23 60 122 60 159 0
13 9 75 20 137 23 133 36 310 26 363 -6 30 -14 40 -41 52 -35 14 -58 18 -66
10z m-2 -218 c-4 -62 -18 -180 -32 -263 -14 -82 -25 -151 -25 -153 0 -1 -134
-1 -297 0 l-298 3 -17 85 c-10 47 -22 135 -28 195 -6 61 -13 122 -16 136 -6
26 -5 26 83 42 121 22 427 55 607 65 l29 2 -6 -112z"/>
<path d="M447 618 c-114 -156 -208 -293 -238 -348 -9 -16 -23 -40 -32 -54 -50
-75 20 -133 77 -65 15 17 34 45 43 63 9 17 24 42 35 56 10 14 38 54 61 90 24
36 67 98 95 139 52 75 64 115 40 139 -22 22 -56 13 -81 -20z"/>
</g>
</svg>
