<?xml version="1.0" standalone="no"?>
<!DOCTYPE svg PUBLIC "-//W3C//DTD SVG 20010904//EN"
 "http://www.w3.org/TR/2001/REC-SVG-20010904/DTD/svg10.dtd">
<svg version="1.0" xmlns="http://www.w3.org/2000/svg"
 width="248.000000pt" height="248.000000pt" viewBox="0 0 248.000000 248.000000"
 preserveAspectRatio="xMidYMid meet">
<metadata>
Created by potrace 1.10, written by Peter Selinger 2001-2011
</metadata>
<g transform="translate(0.000000,248.000000) scale(0.100000,-0.100000)"
fill="#000000" stroke="none">
<path d="M813 2302 c-39 -27 -111 -80 -160 -119 -48 -39 -164 -127 -258 -197
-169 -127 -201 -160 -190 -195 12 -40 263 -261 295 -261 26 0 50 27 50 55 0
16 -20 39 -67 78 -38 31 -87 75 -111 99 l-42 44 62 46 c57 41 125 94 276 211
72 57 114 88 197 145 74 51 98 89 79 120 -20 31 -56 24 -131 -26z"/>
</g>
</svg>
