<?xml version="1.0" standalone="no"?>
<!DOCTYPE svg PUBLIC "-//W3C//DTD SVG 20010904//EN"
 "http://www.w3.org/TR/2001/REC-SVG-20010904/DTD/svg10.dtd">
<svg version="1.0" xmlns="http://www.w3.org/2000/svg"
 width="248.000000pt" height="248.000000pt" viewBox="0 0 248.000000 248.000000"
 preserveAspectRatio="xMidYMid meet">
<metadata>
Created by potrace 1.10, written by Peter Selinger 2001-2011
</metadata>
<g transform="translate(0.000000,248.000000) scale(0.100000,-0.100000)"
fill="#000000" stroke="none">
<path d="M813 2302 c-39 -27 -111 -80 -160 -119 -48 -39 -164 -127 -258 -197
-169 -127 -201 -160 -190 -195 5 -18 126 -138 203 -201 l43 -36 -28 -35 c-15
-19 -68 -81 -118 -137 -49 -57 -100 -117 -113 -135 -30 -41 -26 -78 12 -96 25
-12 45 -10 175 18 81 17 150 31 154 31 4 0 8 -234 9 -521 3 -502 4 -521 22
-535 25 -18 37 -18 62 0 18 14 19 34 24 551 l5 538 120 33 c66 19 123 34 126
34 3 0 27 -29 53 -65 49 -66 71 -81 106 -70 38 12 36 51 -6 111 -47 65 -111
161 -139 206 -37 60 -100 45 -92 -21 2 -20 7 -43 11 -52 6 -13 -9 -21 -86 -42
-103 -29 -377 -97 -391 -97 -5 0 15 28 45 61 29 34 71 85 94 113 23 28 103
112 178 186 184 181 223 239 184 278 -27 27 -53 8 -190 -133 l-140 -145 -32
22 c-17 13 -62 52 -99 88 l-69 65 64 46 c57 42 125 94 276 212 72 57 114 88
197 145 74 51 98 89 79 120 -20 31 -56 24 -131 -26z"/>
<path d="M1955 2320 c-22 -5 -110 -18 -195 -30 -335 -45 -364 -50 -382 -67
-22 -20 -23 -56 -3 -73 13 -11 36 -11 118 -1 260 31 550 77 578 92 12 6 19 21
19 39 0 47 -40 59 -135 40z"/>
<path d="M276 828 c-9 -12 -16 -35 -16 -51 0 -30 -49 -239 -75 -318 -26 -79
-16 -109 36 -109 33 0 42 11 63 75 23 70 86 334 86 359 0 32 -28 66 -55 66
-13 0 -31 -10 -39 -22z"/>
<path d="M762 818 c-29 -29 -12 -77 55 -152 24 -27 69 -87 99 -133 59 -89 70
-99 108 -89 65 16 25 99 -152 319 -55 68 -83 82 -110 55z"/>
</g>
</svg>
