<?xml version="1.0" standalone="no"?>
<!DOCTYPE svg PUBLIC "-//W3C//DTD SVG 20010904//EN"
 "http://www.w3.org/TR/2001/REC-SVG-20010904/DTD/svg10.dtd">
<svg version="1.0" xmlns="http://www.w3.org/2000/svg"
 width="248.000000pt" height="248.000000pt" viewBox="0 0 248.000000 248.000000"
 preserveAspectRatio="xMidYMid meet">
<metadata>
Created by potrace 1.10, written by Peter Selinger 2001-2011
</metadata>
<g transform="translate(0.000000,248.000000) scale(0.100000,-0.100000)"
fill="#000000" stroke="none">
<path d="M680 2385 c-9 -11 -11 -38 -6 -100 l6 -85 -77 0 c-96 0 -128 -14
-128 -55 0 -45 32 -57 137 -52 75 4 88 2 92 -12 2 -9 10 -39 16 -68 13 -59 28
-76 62 -71 35 5 48 43 36 106 -6 29 -8 55 -5 59 4 3 46 10 94 14 130 11 469
47 623 65 74 8 192 21 262 28 72 7 134 19 143 26 25 20 15 63 -18 78 -25 12
-60 10 -260 -13 -128 -15 -275 -31 -327 -36 -52 -5 -138 -14 -190 -19 -52 -6
-147 -15 -210 -20 -63 -6 -121 -13 -127 -15 -14 -5 -18 11 -28 95 -4 30 -13
63 -22 72 -20 22 -56 23 -73 3z"/>
</g>
</svg>
