<?xml version="1.0" standalone="no"?>
<!DOCTYPE svg PUBLIC "-//W3C//DTD SVG 20010904//EN"
 "http://www.w3.org/TR/2001/REC-SVG-20010904/DTD/svg10.dtd">
<svg version="1.0" xmlns="http://www.w3.org/2000/svg"
 width="248.000000pt" height="248.000000pt" viewBox="0 0 248.000000 248.000000"
 preserveAspectRatio="xMidYMid meet">
<metadata>
Created by potrace 1.10, written by Peter Selinger 2001-2011
</metadata>
<g transform="translate(0.000000,248.000000) scale(0.100000,-0.100000)"
fill="#000000" stroke="none">
<path d="M1520 2425 c-7 -9 -16 -44 -19 -78 l-6 -62 -70 -7 c-236 -23 -301
-30 -395 -39 -58 -6 -135 -14 -173 -18 -76 -8 -70 -15 -82 89 -7 61 -27 90
-60 90 -40 0 -49 -23 -41 -115 l6 -85 -77 0 c-96 0 -128 -14 -128 -55 0 -45
32 -57 137 -52 75 4 88 2 92 -12 2 -9 10 -39 16 -68 13 -59 28 -76 62 -71 35
5 48 43 36 106 -6 29 -8 55 -5 59 4 3 48 10 99 14 51 5 199 20 328 33 129 13
237 23 239 20 2 -2 -4 -34 -13 -71 -26 -110 -19 -143 31 -143 36 0 58 47 83
172 13 67 1 62 202 82 80 7 144 19 153 26 25 20 15 63 -18 78 -28 13 -117 8
-269 -15 l-38 -6 0 44 c0 24 -6 55 -13 69 -15 30 -58 38 -77 15z"/>
</g>
</svg>
