<?xml version="1.0" standalone="no"?>
<!DOCTYPE svg PUBLIC "-//W3C//DTD SVG 20010904//EN"
 "http://www.w3.org/TR/2001/REC-SVG-20010904/DTD/svg10.dtd">
<svg version="1.0" xmlns="http://www.w3.org/2000/svg"
 width="248.000000pt" height="248.000000pt" viewBox="0 0 248.000000 248.000000"
 preserveAspectRatio="xMidYMid meet">
<metadata>
Created by potrace 1.10, written by Peter Selinger 2001-2011
</metadata>
<g transform="translate(0.000000,248.000000) scale(0.100000,-0.100000)"
fill="#000000" stroke="none">
<path d="M1520 2425 c-7 -9 -16 -44 -19 -78 l-6 -62 -70 -7 c-236 -23 -301
-30 -395 -39 -58 -6 -135 -14 -173 -18 -76 -8 -70 -15 -82 89 -7 61 -27 90
-60 90 -40 0 -49 -23 -41 -115 l6 -85 -77 0 c-96 0 -128 -14 -128 -55 0 -45
32 -57 137 -52 75 4 88 2 92 -12 2 -9 10 -39 16 -68 13 -59 28 -76 62 -71 35
5 48 43 36 106 -6 29 -8 55 -5 59 4 3 48 10 99 14 51 5 199 20 328 33 129 13
237 23 239 20 2 -2 -4 -34 -13 -71 -26 -110 -19 -143 31 -143 36 0 58 47 83
172 13 67 1 62 202 82 80 7 144 19 153 26 25 20 15 63 -18 78 -28 13 -117 8
-269 -15 l-38 -6 0 44 c0 24 -6 55 -13 69 -15 30 -58 38 -77 15z"/>
<path d="M1056 2058 c-12 -17 -16 -48 -16 -120 l0 -97 -47 -5 c-27 -4 -97 -13
-158 -21 -60 -8 -157 -17 -215 -21 -121 -7 -153 -21 -148 -62 5 -41 40 -54
129 -46 l76 6 7 -127 c10 -199 45 -263 160 -297 71 -22 499 -15 696 11 267 35
350 51 371 72 25 25 24 51 -1 74 -19 17 -24 17 -93 2 -185 -42 -383 -60 -672
-61 -296 -1 -312 1 -336 46 -7 12 -14 84 -17 159 l-5 137 79 7 c44 3 102 10
130 15 28 5 118 14 200 20 82 6 196 17 254 25 58 8 166 19 240 25 159 12 185
17 205 37 19 19 19 57 0 73 -16 13 -233 0 -405 -25 -52 -7 -150 -17 -217 -21
l-123 -7 0 89 c0 100 -14 134 -55 134 -13 0 -31 -10 -39 -22z"/>
<path d="M1609 1143 c-11 -13 -15 -97 -21 -402 -8 -494 -2 -538 85 -580 129
-62 607 -46 676 24 13 13 16 40 15 154 0 153 -12 191 -58 191 -42 0 -50 -22
-50 -152 l-1 -121 -30 -9 c-47 -13 -290 -22 -395 -14 -149 12 -136 -35 -131
456 3 377 2 422 -13 445 -19 29 -57 33 -77 8z"/>
<path d="M670 1115 c-9 -10 -17 -62 -22 -138 -9 -136 -37 -279 -73 -377 -100
-267 -129 -327 -214 -440 -45 -60 -46 -62 -31 -91 12 -21 50 -25 80 -9 44 24
182 264 220 385 7 22 23 65 36 96 43 103 94 372 94 489 0 25 -6 56 -13 70 -15
30 -58 38 -77 15z"/>
<path d="M1116 1098 c-20 -33 -8 -926 13 -951 20 -25 58 -21 77 9 15 23 17 65
12 470 -5 388 -8 447 -22 469 -21 32 -60 33 -80 3z"/>
</g>
</svg>
