<?xml version="1.0" standalone="no"?>
<!DOCTYPE svg PUBLIC "-//W3C//DTD SVG 20010904//EN"
 "http://www.w3.org/TR/2001/REC-SVG-20010904/DTD/svg10.dtd">
<svg version="1.0" xmlns="http://www.w3.org/2000/svg"
 width="248.000000pt" height="248.000000pt" viewBox="0 0 248.000000 248.000000"
 preserveAspectRatio="xMidYMid meet">
<metadata>
Created by potrace 1.10, written by Peter Selinger 2001-2011
</metadata>
<g transform="translate(0.000000,248.000000) scale(0.100000,-0.100000)"
fill="#000000" stroke="none">
<path d="M1153 2335 c-15 -11 -17 -34 -19 -191 -6 -454 -6 -853 0 -872 8 -25
47 -38 71 -25 15 9 17 51 21 414 6 564 5 651 -7 665 -15 19 -46 23 -66 9z"/>
<path d="M423 1918 c-20 -26 -20 -45 -2 -84 10 -21 18 -44 19 -51 0 -12 104
-338 121 -381 5 -12 20 -27 34 -34 21 -9 28 -8 45 7 11 10 20 26 20 36 0 11
-27 101 -60 201 -33 101 -64 202 -70 224 -19 75 -77 120 -107 82z"/>
</g>
</svg>
