<?xml version="1.0" standalone="no"?>
<!DOCTYPE svg PUBLIC "-//W3C//DTD SVG 20010904//EN"
 "http://www.w3.org/TR/2001/REC-SVG-20010904/DTD/svg10.dtd">
<svg version="1.0" xmlns="http://www.w3.org/2000/svg"
 width="248.000000pt" height="248.000000pt" viewBox="0 0 248.000000 248.000000"
 preserveAspectRatio="xMidYMid meet">
<metadata>
Created by potrace 1.10, written by Peter Selinger 2001-2011
</metadata>
<g transform="translate(0.000000,248.000000) scale(0.100000,-0.100000)"
fill="#000000" stroke="none">
<path d="M1154 2335 c-19 -13 -21 -72 -27 -745 l-2 -295 -65 -7 c-108 -12
-445 -59 -530 -75 -36 -6 -51 -23 -48 -52 4 -37 37 -49 105 -39 201 29 364 51
468 63 66 7 172 20 235 29 256 35 618 65 638 52 5 -3 3 -28 -6 -63 -8 -31 -26
-113 -41 -182 l-26 -124 -35 -12 c-19 -7 -126 -18 -237 -24 -112 -7 -213 -14
-225 -16 -13 -2 -75 -9 -138 -15 -186 -18 -440 -51 -510 -65 -36 -7 -85 -16
-110 -20 -54 -8 -70 -20 -70 -50 0 -42 48 -59 125 -43 206 41 680 95 1005 113
58 3 117 8 133 11 19 4 29 1 33 -10 9 -23 -22 -161 -65 -293 -34 -105 -40
-118 -65 -124 -14 -4 -120 -10 -234 -13 -182 -5 -331 -16 -427 -31 -16 -3 -57
-7 -90 -10 -33 -3 -100 -12 -150 -20 -49 -8 -106 -15 -126 -15 -19 0 -40 -5
-47 -12 -18 -18 -14 -53 8 -73 21 -19 65 -18 210 4 36 5 92 13 125 16 33 3 71
8 85 11 68 12 255 25 429 30 107 2 197 7 201 9 4 2 16 -2 26 -10 26 -20 58
-19 76 3 30 32 118 333 154 522 49 260 62 322 89 433 44 172 48 167 -178 167
-149 0 -430 -23 -573 -45 -34 -6 -42 -4 -48 10 -4 10 -4 180 -1 379 8 477 6
607 -6 622 -15 19 -46 23 -65 9z"/>
<path d="M1986 2067 c-15 -19 -26 -39 -26 -44 0 -26 -142 -208 -241 -308 -107
-109 -124 -136 -97 -163 28 -28 63 -13 150 68 96 89 208 232 275 352 43 76 44
80 29 103 -24 36 -59 32 -90 -8z"/>
<path d="M423 1918 c-20 -26 -20 -45 -2 -84 10 -21 18 -44 19 -51 0 -12 104
-338 121 -381 5 -12 20 -27 34 -34 21 -9 28 -8 45 7 11 10 20 26 20 36 0 11
-27 101 -60 201 -33 101 -64 202 -70 224 -19 75 -77 120 -107 82z"/>
</g>
</svg>
