<?xml version="1.0" standalone="no"?>
<!DOCTYPE svg PUBLIC "-//W3C//DTD SVG 20010904//EN"
 "http://www.w3.org/TR/2001/REC-SVG-20010904/DTD/svg10.dtd">
<svg version="1.0" xmlns="http://www.w3.org/2000/svg"
 width="248.000000pt" height="248.000000pt" viewBox="0 0 248.000000 248.000000"
 preserveAspectRatio="xMidYMid meet">
<metadata>
Created by potrace 1.10, written by Peter Selinger 2001-2011
</metadata>
<g transform="translate(0.000000,248.000000) scale(0.100000,-0.100000)"
fill="#000000" stroke="none">
<path d="M1295 2358 c-229 -19 -334 -29 -397 -38 -37 -6 -97 -10 -133 -10 -57
0 -69 -3 -90 -25 -24 -23 -25 -29 -25 -157 0 -73 7 -194 15 -268 13 -125 16
-137 40 -157 17 -15 39 -23 64 -23 l37 0 12 -70 c7 -39 12 -76 12 -84 0 -10
-43 -15 -197 -20 -214 -8 -243 -15 -243 -61 0 -15 9 -31 24 -40 21 -14 48 -15
218 -7 106 5 194 8 195 8 1 -1 5 -43 9 -94 l7 -92 -64 0 c-35 0 -95 -5 -134
-10 -38 -5 -153 -12 -255 -15 -132 -5 -191 -11 -208 -21 -31 -20 -29 -59 4
-81 24 -15 42 -16 242 -3 403 25 376 25 360 1 -37 -53 -133 -145 -324 -313
-34 -29 -104 -75 -157 -102 -99 -51 -116 -70 -97 -106 10 -19 31 -25 73 -20
33 3 199 104 261 159 162 142 296 275 341 339 l50 71 65 0 c36 1 134 8 219 17
l154 17 19 -26 c23 -31 192 -172 250 -207 22 -14 110 -71 194 -127 230 -153
391 -217 450 -178 27 17 32 56 11 74 -8 6 -36 15 -64 20 -27 6 -84 26 -127 45
-88 40 -367 222 -497 324 l-86 67 136 7 c75 5 232 11 349 16 195 7 215 9 228
27 18 25 18 59 -1 75 -16 13 -23 13 -562 -6 l-183 -7 0 28 c0 16 5 57 11 92
10 59 13 63 38 63 14 0 89 5 166 10 317 22 345 28 345 75 0 51 -46 64 -165 46
-33 -5 -129 -13 -212 -16 l-153 -7 3 80 2 80 72 4 c78 5 118 24 132 61 11 29
43 185 71 342 29 164 19 221 -44 245 -32 12 -314 11 -461 -2z m411 -165 c-4
-38 -11 -72 -16 -77 -5 -5 -105 -13 -222 -17 -117 -5 -289 -14 -383 -20 -93
-6 -205 -13 -247 -16 l-78 -5 0 69 0 70 83 11 c45 6 138 16 207 22 69 6 166
15 215 19 50 5 170 9 269 10 l179 1 -7 -67z m-37 -215 c0 -13 -8 -52 -17 -88
l-17 -64 -95 -12 c-52 -7 -244 -16 -427 -20 l-332 -7 -5 24 c-3 13 -7 49 -9
80 l-5 56 121 11 c106 10 405 27 647 35 41 2 90 4 108 5 27 2 32 -1 31 -20z
m-249 -312 c0 -13 -3 -43 -6 -68 l-6 -45 -162 -12 c-266 -19 -305 -19 -311 -1
-4 8 -9 43 -12 77 l-6 62 114 4 c63 1 176 4 252 5 l137 2 0 -24z m-20 -246 c0
-11 -5 -51 -12 -90 -12 -67 -13 -70 -43 -75 -76 -12 -232 -25 -308 -25 l-84 0
-7 53 c-3 28 -6 71 -6 95 l0 42 98 1 c53 1 124 5 157 9 33 4 93 8 133 9 66 1
72 -1 72 -19z"/>
<path d="M1109 1043 c-11 -13 -15 -92 -17 -400 l-3 -384 -30 25 c-49 42 -99
30 -99 -23 0 -17 21 -45 68 -93 55 -54 75 -68 99 -68 35 0 49 13 59 55 4 17 9
216 11 443 4 366 3 416 -12 438 -18 28 -56 32 -76 7z"/>
<path d="M796 744 c-95 -15 -126 -32 -126 -69 0 -45 20 -49 148 -35 148 16
182 29 182 67 0 57 -35 63 -204 37z"/>
<path d="M770 489 c-41 -23 -85 -50 -99 -60 -13 -10 -29 -19 -36 -19 -18 0
-45 -34 -45 -56 0 -49 61 -58 125 -19 41 25 118 67 170 94 33 18 45 61 24 87
-19 23 -60 15 -139 -27z"/>
</g>
</svg>
