<?xml version="1.0" standalone="no"?>
<!DOCTYPE svg PUBLIC "-//W3C//DTD SVG 20010904//EN"
 "http://www.w3.org/TR/2001/REC-SVG-20010904/DTD/svg10.dtd">
<svg version="1.0" xmlns="http://www.w3.org/2000/svg"
 width="248.000000pt" height="248.000000pt" viewBox="0 0 248.000000 248.000000"
 preserveAspectRatio="xMidYMid meet">
<metadata>
Created by potrace 1.10, written by Peter Selinger 2001-2011
</metadata>
<g transform="translate(0.000000,248.000000) scale(0.100000,-0.100000)"
fill="#000000" stroke="none">
<path d="M1295 2358 c-229 -19 -334 -29 -397 -38 -37 -6 -97 -10 -133 -10 -57
0 -69 -3 -90 -25 -24 -23 -25 -29 -25 -157 0 -73 7 -194 15 -268 19 -187 11
-180 238 -179 380 1 751 26 793 54 31 20 37 35 62 160 76 367 76 435 -2 465
-32 12 -314 11 -461 -2z m411 -165 c-4 -38 -11 -72 -16 -77 -5 -5 -107 -13
-227 -17 -120 -5 -292 -14 -383 -20 -91 -6 -200 -13 -242 -16 l-78 -5 0 69 0
70 83 11 c45 6 138 16 207 22 69 6 166 15 215 19 50 5 170 9 269 10 l179 1 -7
-67z m-37 -215 c0 -13 -8 -52 -17 -88 l-17 -64 -95 -12 c-52 -7 -244 -16 -427
-20 l-332 -7 -5 24 c-3 13 -7 49 -9 80 l-5 56 121 11 c106 10 405 27 647 35
41 2 90 4 108 5 27 2 32 -1 31 -20z"/>
</g>
</svg>
