<?xml version="1.0" standalone="no"?>
<!DOCTYPE svg PUBLIC "-//W3C//DTD SVG 20010904//EN"
 "http://www.w3.org/TR/2001/REC-SVG-20010904/DTD/svg10.dtd">
<svg version="1.0" xmlns="http://www.w3.org/2000/svg"
 width="248.000000pt" height="248.000000pt" viewBox="0 0 248.000000 248.000000"
 preserveAspectRatio="xMidYMid meet">
<metadata>
Created by potrace 1.10, written by Peter Selinger 2001-2011
</metadata>
<g transform="translate(0.000000,248.000000) scale(0.100000,-0.100000)"
fill="#000000" stroke="none">
<path d="M1295 2358 c-229 -19 -334 -29 -397 -38 -37 -6 -97 -10 -133 -10 -57
0 -69 -3 -90 -25 -24 -23 -25 -29 -25 -157 0 -73 7 -194 15 -268 13 -125 16
-137 40 -157 17 -15 39 -23 64 -23 l37 0 12 -70 c7 -39 12 -76 12 -84 0 -10
-43 -15 -197 -20 -214 -8 -243 -15 -243 -61 0 -15 9 -31 24 -40 21 -14 48 -15
218 -7 106 5 194 8 195 8 0 -1 5 -49 11 -108 10 -116 21 -141 61 -136 42 5 52
39 45 154 l-7 101 134 6 c74 4 179 10 233 13 l99 7 -7 -54 c-24 -181 -25 -194
-10 -216 17 -27 56 -30 74 -7 8 8 21 72 31 141 10 69 20 127 21 128 2 2 80 8
173 14 340 23 365 28 365 76 0 51 -46 64 -165 46 -33 -5 -129 -13 -212 -16
l-153 -7 3 80 2 80 72 4 c78 5 118 24 132 61 11 29 43 185 71 342 29 164 19
221 -44 245 -32 12 -314 11 -461 -2z m411 -165 c-4 -38 -11 -72 -16 -77 -5 -5
-105 -13 -222 -17 -117 -5 -289 -14 -383 -20 -93 -6 -205 -13 -247 -16 l-78
-5 0 69 0 70 83 11 c45 6 138 16 207 22 69 6 166 15 215 19 50 5 170 9 269 10
l179 1 -7 -67z m-37 -215 c0 -13 -8 -52 -17 -88 l-17 -64 -95 -12 c-52 -7
-244 -16 -427 -20 l-332 -7 -5 24 c-3 13 -7 49 -9 80 l-5 56 121 11 c106 10
405 27 647 35 41 2 90 4 108 5 27 2 32 -1 31 -20z m-249 -312 c0 -13 -3 -43
-6 -68 l-6 -45 -162 -12 c-266 -19 -305 -19 -311 -1 -4 8 -9 43 -12 77 l-6 62
114 4 c63 1 176 4 252 5 l137 2 0 -24z"/>
</g>
</svg>
