<?xml version="1.0" standalone="no"?>
<!DOCTYPE svg PUBLIC "-//W3C//DTD SVG 20010904//EN"
 "http://www.w3.org/TR/2001/REC-SVG-20010904/DTD/svg10.dtd">
<svg version="1.0" xmlns="http://www.w3.org/2000/svg"
 width="248.000000pt" height="248.000000pt" viewBox="0 0 248.000000 248.000000"
 preserveAspectRatio="xMidYMid meet">
<metadata>
Created by potrace 1.10, written by Peter Selinger 2001-2011
</metadata>
<g transform="translate(0.000000,248.000000) scale(0.100000,-0.100000)"
fill="#000000" stroke="none">
<path d="M1196 2346 c-166 -10 -190 -13 -200 -30 -51 -85 -272 -324 -401 -433
-131 -110 -280 -244 -288 -258 -12 -23 18 -65 46 -65 58 1 482 386 647 587
l65 80 95 6 c52 4 144 10 203 13 l108 7 -28 -64 c-24 -57 -64 -122 -128 -209
-11 -14 -37 -51 -57 -81 -20 -30 -54 -76 -75 -104 l-39 -50 -89 -12 c-50 -7
-171 -22 -270 -33 -99 -12 -195 -26 -213 -31 -53 -17 -59 -38 -65 -209 -3 -85
-9 -177 -15 -205 -5 -27 -15 -81 -22 -120 -27 -157 -97 -447 -160 -665 -33
-115 -53 -164 -97 -237 -57 -96 -61 -122 -22 -143 13 -8 25 -7 39 0 21 11 85
100 118 166 33 66 111 344 176 629 61 273 86 422 93 572 7 128 -1 118 108 128
39 4 111 13 160 20 50 8 124 17 165 20 41 4 129 13 195 21 145 17 251 29 455
49 309 32 340 40 340 89 0 53 -15 54 -320 21 -74 -8 -175 -19 -225 -25 -49 -5
-117 -12 -149 -16 l-59 -7 34 49 c18 27 64 91 101 143 79 108 127 203 165 323
11 37 -6 67 -45 77 -42 12 -84 12 -346 -3z"/>
</g>
</svg>
