<?xml version="1.0" standalone="no"?>
<!DOCTYPE svg PUBLIC "-//W3C//DTD SVG 20010904//EN"
 "http://www.w3.org/TR/2001/REC-SVG-20010904/DTD/svg10.dtd">
<svg version="1.0" xmlns="http://www.w3.org/2000/svg"
 width="248.000000pt" height="248.000000pt" viewBox="0 0 248.000000 248.000000"
 preserveAspectRatio="xMidYMid meet">
<metadata>
Created by potrace 1.10, written by Peter Selinger 2001-2011
</metadata>
<g transform="translate(0.000000,248.000000) scale(0.100000,-0.100000)"
fill="#000000" stroke="none">
<path d="M1196 2346 c-166 -10 -190 -13 -200 -30 -51 -85 -272 -324 -401 -433
-131 -110 -280 -244 -288 -258 -12 -23 18 -65 46 -65 58 1 482 386 647 587
l65 80 95 6 c52 4 144 10 203 13 l108 7 -28 -64 c-24 -57 -64 -122 -128 -209
-11 -14 -37 -51 -57 -81 -20 -30 -54 -76 -75 -104 l-39 -50 -89 -12 c-50 -7
-171 -22 -270 -33 -207 -25 -230 -32 -230 -75 0 -50 29 -57 180 -39 72 8 155
19 185 24 30 5 89 12 130 15 41 4 129 13 195 21 145 17 251 29 455 49 309 32
340 40 340 89 0 53 -15 54 -320 21 -74 -8 -175 -19 -225 -25 -49 -5 -117 -12
-149 -16 l-59 -7 34 49 c18 27 64 91 101 143 79 108 127 203 165 323 11 37 -6
67 -45 77 -42 12 -84 12 -346 -3z"/>
</g>
</svg>
