<?xml version="1.0" standalone="no"?>
<!DOCTYPE svg PUBLIC "-//W3C//DTD SVG 20010904//EN"
 "http://www.w3.org/TR/2001/REC-SVG-20010904/DTD/svg10.dtd">
<svg version="1.0" xmlns="http://www.w3.org/2000/svg"
 width="248.000000pt" height="248.000000pt" viewBox="0 0 248.000000 248.000000"
 preserveAspectRatio="xMidYMid meet">
<metadata>
Created by potrace 1.10, written by Peter Selinger 2001-2011
</metadata>
<g transform="translate(0.000000,248.000000) scale(0.100000,-0.100000)"
fill="#000000" stroke="none">
<path d="M915 2270 c-55 -5 -143 -15 -195 -23 -82 -13 -137 -20 -270 -33 -14
-1 -37 -3 -52 -3 -31 -1 -68 -32 -68 -56 0 -9 12 -27 28 -41 l27 -26 3 -306
c2 -169 -1 -532 -7 -807 -16 -734 -16 -764 -4 -776 14 -14 61 -15 73 -3 12 12
20 388 29 1239 l6 680 135 17 c74 9 184 23 245 32 63 9 114 11 119 6 8 -8 3
-86 -24 -355 -22 -223 -40 -422 -40 -453 0 -39 34 -61 68 -43 21 11 29 40 37
141 10 121 27 286 52 510 28 258 29 278 16 291 -15 15 -69 18 -178 9z"/>
</g>
</svg>
