<?xml version="1.0" standalone="no"?>
<!DOCTYPE svg PUBLIC "-//W3C//DTD SVG 20010904//EN"
 "http://www.w3.org/TR/2001/REC-SVG-20010904/DTD/svg10.dtd">
<svg version="1.0" xmlns="http://www.w3.org/2000/svg"
 width="248.000000pt" height="248.000000pt" viewBox="0 0 248.000000 248.000000"
 preserveAspectRatio="xMidYMid meet">
<metadata>
Created by potrace 1.10, written by Peter Selinger 2001-2011
</metadata>
<g transform="translate(0.000000,248.000000) scale(0.100000,-0.100000)"
fill="#000000" stroke="none">
<path d="M1785 2309 c-66 -5 -180 -10 -254 -12 -159 -4 -168 -9 -154 -92 4
-27 8 -231 8 -453 0 -383 1 -404 19 -414 12 -7 25 -7 41 0 27 13 35 72 35 272
0 98 4 140 13 147 7 6 128 13 285 16 l272 5 -1 -332 c-1 -487 -14 -1224 -22
-1232 -4 -4 -24 1 -46 10 -48 22 -71 18 -90 -16 -20 -35 -7 -49 81 -94 119
-60 144 -45 153 91 3 50 7 245 9 435 8 820 15 1250 20 1315 3 39 8 99 11 135
2 36 8 95 11 132 l6 66 -30 16 c-35 18 -155 19 -367 5z m284 -88 c8 -5 11 -16
8 -24 -3 -8 -8 -73 -12 -143 -8 -163 -9 -169 -37 -170 -169 -11 -523 -24 -534
-20 -11 4 -14 37 -14 165 0 140 2 160 17 165 9 4 132 11 272 17 141 6 258 12
260 15 7 7 25 4 40 -5z"/>
<path d="M915 2270 c-55 -5 -143 -15 -195 -23 -82 -13 -137 -20 -270 -33 -14
-1 -37 -3 -52 -3 -31 -1 -68 -32 -68 -56 0 -9 12 -27 28 -41 l27 -26 3 -306
c2 -169 -1 -532 -7 -807 -19 -857 -22 -787 34 -787 34 -1 48 14 47 49 -1 88
21 1009 25 1013 2 2 37 8 76 11 40 4 115 12 167 19 52 6 130 15 172 19 43 5
84 14 92 20 17 14 24 50 31 151 3 41 8 89 10 105 3 17 9 82 15 145 5 63 19
198 31 300 24 207 25 228 12 241 -15 15 -69 18 -178 9z m71 -104 c7 -18 -15
-271 -25 -300 -7 -16 -26 -23 -112 -38 -145 -24 -349 -42 -360 -31 -5 5 -8 79
-7 164 l3 154 135 17 c74 9 180 23 235 31 130 19 125 19 131 3z m-36 -438 c0
-31 -29 -320 -32 -323 -5 -4 -351 -48 -393 -49 l-40 -1 -3 162 c-2 162 -2 163
20 168 13 3 93 12 178 20 85 9 171 20 190 24 52 13 80 13 80 -1z"/>
</g>
</svg>
