<?xml version="1.0" standalone="no"?>
<!DOCTYPE svg PUBLIC "-//W3C//DTD SVG 20010904//EN"
 "http://www.w3.org/TR/2001/REC-SVG-20010904/DTD/svg10.dtd">
<svg version="1.0" xmlns="http://www.w3.org/2000/svg"
 width="248.000000pt" height="248.000000pt" viewBox="0 0 248.000000 248.000000"
 preserveAspectRatio="xMidYMid meet">
<metadata>
Created by potrace 1.10, written by Peter Selinger 2001-2011
</metadata>
<g transform="translate(0.000000,248.000000) scale(0.100000,-0.100000)"
fill="#000000" stroke="none">
<path d="M915 2270 c-55 -5 -143 -15 -195 -23 -82 -13 -137 -20 -270 -33 -14
-1 -37 -3 -52 -3 -31 -1 -68 -32 -68 -56 0 -9 12 -27 28 -41 l27 -26 3 -306
c2 -169 -1 -532 -7 -807 -19 -857 -22 -787 34 -787 51 -1 46 -81 61 969 6 465
9 523 23 527 9 3 72 10 141 16 69 6 165 18 213 27 48 8 90 13 93 10 3 -2 -2
-81 -10 -175 -21 -227 -21 -230 8 -243 17 -8 29 -8 44 0 21 11 29 40 37 141
10 121 27 286 52 510 28 258 29 278 16 291 -15 15 -69 18 -178 9z m71 -104 c7
-18 -15 -271 -25 -300 -7 -16 -26 -23 -112 -38 -145 -24 -349 -42 -360 -31 -5
5 -8 79 -7 164 l3 154 135 17 c74 9 180 23 235 31 130 19 125 19 131 3z"/>
</g>
</svg>
