<?xml version="1.0" standalone="no"?>
<!DOCTYPE svg PUBLIC "-//W3C//DTD SVG 20010904//EN"
 "http://www.w3.org/TR/2001/REC-SVG-20010904/DTD/svg10.dtd">
<svg version="1.0" xmlns="http://www.w3.org/2000/svg"
 width="248.000000pt" height="248.000000pt" viewBox="0 0 248.000000 248.000000"
 preserveAspectRatio="xMidYMid meet">
<metadata>
Created by potrace 1.10, written by Peter Selinger 2001-2011
</metadata>
<g transform="translate(0.000000,248.000000) scale(0.100000,-0.100000)"
fill="#000000" stroke="none">
<path d="M1785 2309 c-66 -5 -180 -10 -254 -12 -155 -4 -167 -10 -156 -82 11
-70 16 -605 7 -724 -5 -63 -7 -122 -5 -132 8 -29 46 -39 110 -29 32 5 128 11
213 15 85 3 194 8 242 10 64 3 89 1 98 -9 8 -11 9 -159 2 -570 -5 -306 -11
-559 -15 -562 -4 -4 -24 1 -46 10 -48 22 -71 18 -90 -16 -20 -35 -7 -49 81
-94 119 -60 144 -45 153 91 3 50 7 245 9 435 8 820 15 1250 20 1315 3 39 8 99
11 135 2 36 8 95 11 132 l6 66 -30 16 c-35 18 -155 19 -367 5z m284 -88 c8 -5
11 -16 8 -24 -3 -8 -8 -73 -12 -143 -8 -163 -9 -169 -37 -170 -169 -11 -523
-24 -534 -20 -11 4 -14 37 -14 165 0 140 2 160 17 165 9 4 132 11 272 17 141
6 258 12 260 15 7 7 25 4 40 -5z m-19 -593 c0 -84 -4 -158 -8 -164 -4 -7 -74
-14 -192 -18 -102 -3 -227 -9 -277 -12 l-93 -7 0 160 c0 121 3 163 13 172 9 7
89 12 223 14 115 1 237 3 272 5 l62 2 0 -152z"/>
<path d="M915 2270 c-55 -5 -143 -15 -195 -23 -82 -13 -137 -20 -270 -33 -14
-1 -37 -3 -52 -3 -31 -1 -68 -32 -68 -56 0 -9 12 -27 28 -41 l27 -26 3 -306
c2 -169 -1 -532 -7 -807 -19 -857 -22 -787 34 -787 34 -1 48 14 47 49 -1 88
21 1009 25 1013 2 2 37 8 76 11 40 4 115 12 167 19 52 6 130 15 172 19 43 5
84 14 92 20 17 14 24 50 31 151 3 41 8 89 10 105 3 17 9 82 15 145 5 63 19
198 31 300 24 207 25 228 12 241 -15 15 -69 18 -178 9z m71 -104 c7 -18 -15
-271 -25 -300 -7 -16 -26 -23 -112 -38 -145 -24 -349 -42 -360 -31 -5 5 -8 79
-7 164 l3 154 135 17 c74 9 180 23 235 31 130 19 125 19 131 3z m-36 -438 c0
-31 -29 -320 -32 -323 -5 -4 -351 -48 -393 -49 l-40 -1 -3 162 c-2 162 -2 163
20 168 13 3 93 12 178 20 85 9 171 20 190 24 52 13 80 13 80 -1z"/>
<path d="M1340 1109 c-117 -7 -387 -35 -437 -45 -39 -8 -45 -36 -28 -127 20
-106 36 -343 35 -527 -1 -80 -1 -153 -1 -163 1 -28 45 -43 74 -24 18 11 70 17
228 22 182 7 206 6 218 -9 19 -23 58 -20 75 7 15 23 21 51 31 147 3 30 11 91
16 135 16 128 29 243 39 345 5 52 12 120 16 151 4 35 2 64 -5 77 -13 25 -32
26 -261 11z m156 -171 c-4 -46 -10 -108 -14 -138 l-7 -55 -70 -6 c-286 -24
-396 -31 -399 -28 -3 2 -10 60 -16 128 -8 89 -8 126 -1 131 6 3 91 14 189 24
97 9 186 19 197 20 11 2 44 4 74 5 l53 1 -6 -82z m-40 -367 c-11 -122 -24
-203 -34 -213 -9 -9 -328 -30 -387 -25 l-30 2 -3 133 c-3 130 -2 132 20 141
13 4 91 11 173 16 83 4 170 10 195 14 70 11 74 8 66 -68z"/>
</g>
</svg>
