<?xml version="1.0" standalone="no"?>
<!DOCTYPE svg PUBLIC "-//W3C//DTD SVG 20010904//EN"
 "http://www.w3.org/TR/2001/REC-SVG-20010904/DTD/svg10.dtd">
<svg version="1.0" xmlns="http://www.w3.org/2000/svg"
 width="248.000000pt" height="248.000000pt" viewBox="0 0 248.000000 248.000000"
 preserveAspectRatio="xMidYMid meet">
<metadata>
Created by potrace 1.10, written by Peter Selinger 2001-2011
</metadata>
<g transform="translate(0.000000,248.000000) scale(0.100000,-0.100000)"
fill="#000000" stroke="none">
<path d="M915 2270 c-55 -5 -143 -15 -195 -23 -82 -13 -137 -20 -270 -33 -14
-1 -37 -3 -52 -3 -31 -1 -68 -32 -68 -56 0 -9 12 -27 28 -41 l27 -26 3 -306
c2 -169 -1 -532 -7 -807 -19 -857 -22 -787 34 -787 34 -1 48 14 47 49 -1 88
21 1009 25 1013 2 2 37 8 76 11 40 4 115 12 167 19 52 6 130 15 172 19 43 5
84 14 92 20 17 14 24 50 31 151 3 41 8 89 10 105 3 17 9 82 15 145 5 63 19
198 31 300 24 207 25 228 12 241 -15 15 -69 18 -178 9z m71 -104 c7 -18 -15
-271 -25 -300 -7 -16 -26 -23 -112 -38 -145 -24 -349 -42 -360 -31 -5 5 -8 79
-7 164 l3 154 135 17 c74 9 180 23 235 31 130 19 125 19 131 3z m-36 -438 c0
-31 -29 -320 -32 -323 -5 -4 -351 -48 -393 -49 l-40 -1 -3 162 c-2 162 -2 163
20 168 13 3 93 12 178 20 85 9 171 20 190 24 52 13 80 13 80 -1z"/>
</g>
</svg>
