<?xml version="1.0" standalone="no"?>
<!DOCTYPE svg PUBLIC "-//W3C//DTD SVG 20010904//EN"
 "http://www.w3.org/TR/2001/REC-SVG-20010904/DTD/svg10.dtd">
<svg version="1.0" xmlns="http://www.w3.org/2000/svg"
 width="248.000000pt" height="248.000000pt" viewBox="0 0 248.000000 248.000000"
 preserveAspectRatio="xMidYMid meet">
<metadata>
Created by potrace 1.10, written by Peter Selinger 2001-2011
</metadata>
<g transform="translate(0.000000,248.000000) scale(0.100000,-0.100000)"
fill="#000000" stroke="none">
<path d="M595 1769 c-66 -5 -145 -15 -176 -23 -31 -8 -87 -16 -125 -17 -87 -3
-118 -13 -133 -46 -9 -20 -9 -34 3 -67 12 -35 38 -302 49 -515 3 -49 8 -67 23
-78 27 -20 56 -12 73 19 14 23 13 53 -7 280 -12 139 -22 263 -22 275 0 18 8
22 53 28 28 4 79 13 112 20 33 8 112 17 175 20 63 4 134 8 157 10 68 4 69 3
44 -142 -12 -70 -29 -177 -37 -238 -9 -60 -19 -125 -21 -143 -3 -18 0 -39 7
-47 17 -21 53 -19 74 4 16 18 46 134 46 181 -1 14 14 113 31 220 18 109 29
207 26 222 -4 16 -17 30 -34 36 -35 12 -164 12 -318 1z"/>
</g>
</svg>
