<?xml version="1.0" standalone="no"?>
<!DOCTYPE svg PUBLIC "-//W3C//DTD SVG 20010904//EN"
 "http://www.w3.org/TR/2001/REC-SVG-20010904/DTD/svg10.dtd">
<svg version="1.0" xmlns="http://www.w3.org/2000/svg"
 width="248.000000pt" height="248.000000pt" viewBox="0 0 248.000000 248.000000"
 preserveAspectRatio="xMidYMid meet">
<metadata>
Created by potrace 1.10, written by Peter Selinger 2001-2011
</metadata>
<g transform="translate(0.000000,248.000000) scale(0.100000,-0.100000)"
fill="#000000" stroke="none">
<path d="M595 1769 c-66 -5 -145 -15 -176 -23 -31 -8 -87 -16 -125 -17 -38 -1
-81 -6 -96 -11 -35 -12 -54 -58 -37 -89 13 -26 48 -370 49 -486 0 -39 4 -83
10 -97 12 -32 54 -44 78 -23 18 16 129 31 327 42 226 13 234 18 255 163 5 37
23 160 41 273 18 113 29 217 26 231 -4 16 -17 30 -34 36 -35 12 -164 12 -318
1z m241 -102 c4 -4 -3 -64 -15 -134 -12 -71 -28 -177 -36 -237 -8 -60 -17
-112 -20 -115 -3 -3 -74 -9 -157 -13 -83 -4 -181 -12 -219 -16 l-68 -8 -6 40
c-8 60 -35 371 -35 405 0 28 3 29 53 36 28 4 70 11 92 17 41 11 300 34 367 32
21 0 41 -3 44 -7z"/>
</g>
</svg>
