<?xml version="1.0" standalone="no"?>
<!DOCTYPE svg PUBLIC "-//W3C//DTD SVG 20010904//EN"
 "http://www.w3.org/TR/2001/REC-SVG-20010904/DTD/svg10.dtd">
<svg version="1.0" xmlns="http://www.w3.org/2000/svg"
 width="248.000000pt" height="248.000000pt" viewBox="0 0 248.000000 248.000000"
 preserveAspectRatio="xMidYMid meet">
<metadata>
Created by potrace 1.10, written by Peter Selinger 2001-2011
</metadata>
<g transform="translate(0.000000,248.000000) scale(0.100000,-0.100000)"
fill="#000000" stroke="none">
<path d="M1820 2250 c-183 -6 -398 -29 -482 -51 -20 -5 -46 -17 -58 -27 -23
-18 -23 -20 -10 -99 17 -103 2 -407 -40 -842 -32 -329 -59 -508 -91 -611 -34
-106 -97 -246 -145 -321 -58 -90 -57 -139 2 -139 53 0 164 200 238 427 59 181
124 779 135 1233 l6 284 40 7 c158 26 429 51 510 47 l60 -3 -5 -155 c-3 -85
-5 -380 -5 -655 0 -391 4 -556 19 -759 17 -240 18 -359 1 -385 -4 -7 -27 0
-65 19 -33 17 -71 30 -84 30 -29 0 -50 -31 -41 -60 9 -28 121 -88 189 -102 54
-10 59 -10 79 11 21 20 22 32 25 199 3 108 -3 276 -15 432 -13 180 -18 364
-18 625 0 336 16 770 31 837 7 32 -25 69 -58 66 -13 -1 -111 -5 -218 -8z"/>
<path d="M875 2059 c-587 -48 -688 -78 -613 -180 21 -27 23 -46 30 -232 5
-111 10 -341 13 -512 4 -292 5 -311 23 -323 15 -9 26 -10 48 -2 106 41 435 87
541 76 75 -8 93 5 93 67 1 151 31 863 41 962 11 118 11 119 -11 137 -12 10
-32 17 -44 17 -11 -1 -66 -5 -121 -10z m77 -118 c-2 -8 -7 -99 -11 -203 -4
-104 -11 -191 -14 -195 -6 -5 -107 -19 -414 -55 l-113 -14 -4 31 c-3 16 -8
106 -11 199 -4 92 -9 174 -11 181 -8 19 67 32 293 55 221 21 289 22 285 1z
m-28 -626 c0 -60 -1 -156 -3 -213 -2 -96 -4 -102 -24 -106 -12 -2 -93 -11
-179 -20 -86 -9 -189 -23 -228 -31 -40 -8 -76 -13 -81 -9 -5 3 -9 99 -9 215 0
208 0 210 23 219 27 12 406 58 462 56 l40 -1 -1 -110z"/>
</g>
</svg>
