<?xml version="1.0" standalone="no"?>
<!DOCTYPE svg PUBLIC "-//W3C//DTD SVG 20010904//EN"
 "http://www.w3.org/TR/2001/REC-SVG-20010904/DTD/svg10.dtd">
<svg version="1.0" xmlns="http://www.w3.org/2000/svg"
 width="248.000000pt" height="248.000000pt" viewBox="0 0 248.000000 248.000000"
 preserveAspectRatio="xMidYMid meet">
<metadata>
Created by potrace 1.10, written by Peter Selinger 2001-2011
</metadata>
<g transform="translate(0.000000,248.000000) scale(0.100000,-0.100000)"
fill="#000000" stroke="none">
<path d="M875 2059 c-587 -48 -688 -78 -613 -180 21 -28 23 -46 30 -227 4
-108 10 -338 13 -510 2 -172 7 -317 10 -323 11 -17 64 -10 75 10 6 12 10 118
10 275 0 234 1 256 18 265 24 13 479 64 499 57 14 -6 15 -26 9 -179 -13 -321
-13 -349 5 -360 20 -13 65 -2 72 17 3 8 11 176 17 373 6 197 17 448 26 558
l15 200 -21 17 c-12 10 -32 17 -44 17 -11 -1 -66 -5 -121 -10z m77 -118 c-2
-8 -7 -99 -11 -203 -4 -104 -11 -191 -14 -195 -6 -5 -107 -19 -414 -55 l-113
-14 -4 31 c-3 16 -8 106 -11 199 -4 92 -9 174 -11 181 -8 19 67 32 293 55 221
21 289 22 285 1z"/>
</g>
</svg>
