<?xml version="1.0" standalone="no"?>
<!DOCTYPE svg PUBLIC "-//W3C//DTD SVG 20010904//EN"
 "http://www.w3.org/TR/2001/REC-SVG-20010904/DTD/svg10.dtd">
<svg version="1.0" xmlns="http://www.w3.org/2000/svg"
 width="248.000000pt" height="248.000000pt" viewBox="0 0 248.000000 248.000000"
 preserveAspectRatio="xMidYMid meet">
<metadata>
Created by potrace 1.10, written by Peter Selinger 2001-2011
</metadata>
<g transform="translate(0.000000,248.000000) scale(0.100000,-0.100000)"
fill="#000000" stroke="none">
<path d="M684 2133 c-64 -71 -252 -229 -364 -305 -55 -37 -65 -48 -65 -73 0
-23 6 -32 27 -39 33 -12 67 5 175 86 42 31 81 54 86 51 9 -5 1 -378 -8 -393
-3 -5 -71 -29 -153 -55 -190 -61 -302 -104 -325 -123 -22 -19 -19 -61 5 -76
19 -12 11 -14 268 73 96 32 177 57 179 55 2 -2 -1 -9 -6 -16 -5 -7 -27 -53
-48 -103 -20 -49 -58 -130 -83 -180 -51 -103 -217 -358 -256 -394 -49 -45 -24
-109 36 -93 48 12 228 272 316 454 31 65 60 118 64 118 7 0 4 -125 -7 -245 -4
-55 -7 -119 -20 -435 -2 -63 -8 -135 -13 -160 -10 -56 2 -107 28 -115 27 -9
57 2 65 23 3 9 11 116 16 237 5 121 13 281 19 356 5 74 10 192 10 262 0 70 2
127 4 127 3 0 40 -25 83 -56 43 -31 96 -65 118 -76 22 -12 51 -29 64 -39 45
-35 91 -19 91 32 0 27 -2 29 -135 114 -116 73 -214 150 -221 173 -16 55 -4 64
142 107 76 22 148 48 161 58 26 21 30 59 8 77 -18 15 -40 11 -185 -34 -63 -20
-116 -36 -118 -36 -1 0 -1 102 0 228 l2 227 83 84 c46 47 86 96 90 109 8 34
-8 56 -43 60 -25 2 -38 -7 -90 -65z"/>
<path d="M1512 2177 c-8 -9 -11 -48 -10 -108 4 -168 -21 -397 -82 -760 -37
-214 -94 -406 -160 -539 -59 -117 -196 -283 -282 -341 -59 -41 -73 -70 -46
-97 49 -49 180 49 321 239 143 195 211 390 281 814 64 388 86 705 54 772 -15
32 -57 43 -76 20z"/>
<path d="M2072 1828 c-7 -7 -12 -20 -12 -29 0 -29 -66 -183 -110 -260 -23 -39
-64 -95 -91 -125 -35 -39 -49 -62 -49 -84 0 -29 22 -50 53 -50 21 0 135 140
183 225 52 92 114 243 114 278 0 47 -57 76 -88 45z"/>
<path d="M1079 1507 c-40 -21 -39 -29 17 -207 15 -47 30 -116 34 -154 10 -92
45 -121 90 -76 25 25 25 73 0 160 -10 36 -30 107 -44 158 -14 51 -28 97 -31
103 -13 21 -41 28 -66 16z"/>
</g>
</svg>
