<?xml version="1.0" standalone="no"?>
<!DOCTYPE svg PUBLIC "-//W3C//DTD SVG 20010904//EN"
 "http://www.w3.org/TR/2001/REC-SVG-20010904/DTD/svg10.dtd">
<svg version="1.0" xmlns="http://www.w3.org/2000/svg"
 width="248.000000pt" height="248.000000pt" viewBox="0 0 248.000000 248.000000"
 preserveAspectRatio="xMidYMid meet">
<metadata>
Created by potrace 1.10, written by Peter Selinger 2001-2011
</metadata>
<g transform="translate(0.000000,248.000000) scale(0.100000,-0.100000)"
fill="#000000" stroke="none">
<path d="M1229 2373 c-11 -13 -13 -50 -11 -164 l3 -147 -63 -11 c-35 -5 -126
-17 -203 -26 -77 -9 -203 -25 -280 -36 -77 -10 -156 -19 -175 -19 -70 0 -107
-60 -58 -94 23 -16 26 -16 228 9 63 8 147 19 187 23 l72 8 10 -40 c5 -23 18
-77 29 -121 11 -44 23 -101 26 -126 l7 -45 -93 -12 c-51 -7 -147 -17 -213 -22
-255 -20 -260 -25 -248 -174 4 -56 7 -328 5 -606 -2 -554 -2 -555 53 -555 54
0 54 5 57 556 2 277 -1 539 -5 581 l-9 77 34 5 c18 3 92 10 163 15 72 6 165
15 208 22 43 6 81 8 84 5 12 -12 -18 -138 -49 -204 -36 -75 -118 -163 -221
-235 -56 -38 -62 -46 -62 -77 0 -29 5 -36 27 -44 24 -8 36 -4 99 40 118 81
201 169 243 258 44 93 69 185 64 237 -2 26 1 40 10 44 8 3 79 10 159 17 124
10 146 10 154 -3 5 -8 9 -67 9 -131 0 -113 10 -194 32 -250 20 -53 128 -80
324 -82 116 -1 134 1 153 18 23 21 28 58 9 73 -7 6 -87 13 -178 16 -91 3 -177
10 -192 16 -32 12 -35 28 -42 232 l-5 136 57 6 c31 4 120 13 197 21 77 9 159
16 181 16 l42 0 11 -77 c32 -228 48 -749 33 -1056 -5 -109 -13 -201 -16 -204
-3 -3 -23 2 -45 11 -43 20 -69 19 -84 -5 -32 -50 44 -112 140 -113 92 -2 98
15 114 329 12 243 6 562 -17 835 -24 297 -41 361 -102 381 -35 12 -186 2 -360
-22 -41 -6 -76 -9 -78 -7 -2 3 14 58 36 124 21 65 44 144 50 175 l11 56 82 7
c302 23 333 30 343 71 15 61 -27 67 -281 40 -239 -26 -548 -55 -551 -52 -2 1
-6 63 -10 137 -4 88 -11 143 -20 158 -17 26 -56 29 -75 5z m396 -415 c-3 -18
-24 -88 -46 -156 -21 -67 -39 -131 -39 -141 0 -22 -21 -27 -160 -36 -47 -3
-125 -11 -173 -17 -72 -9 -90 -9 -97 2 -4 7 -16 54 -26 104 -9 50 -23 108 -31
130 -25 74 -21 82 50 95 34 6 121 16 192 22 72 5 164 14 205 18 137 15 133 16
125 -21z"/>
<path d="M1360 993 c-66 -7 -295 -44 -332 -54 -21 -5 -47 -20 -59 -32 -18 -19
-20 -30 -14 -87 4 -36 11 -85 16 -110 6 -24 14 -78 19 -119 11 -80 29 -111 65
-111 52 0 54 37 15 289 -12 76 -11 77 70 87 30 3 74 10 97 15 23 5 94 12 157
15 l116 7 0 -29 c0 -37 -33 -209 -55 -292 -15 -58 -15 -65 -1 -88 18 -26 57
-32 74 -11 30 36 97 369 86 428 -17 89 -77 111 -254 92z"/>
</g>
</svg>
