<?xml version="1.0" standalone="no"?>
<!DOCTYPE svg PUBLIC "-//W3C//DTD SVG 20010904//EN"
 "http://www.w3.org/TR/2001/REC-SVG-20010904/DTD/svg10.dtd">
<svg version="1.0" xmlns="http://www.w3.org/2000/svg"
 width="248.000000pt" height="248.000000pt" viewBox="0 0 248.000000 248.000000"
 preserveAspectRatio="xMidYMid meet">
<metadata>
Created by potrace 1.10, written by Peter Selinger 2001-2011
</metadata>
<g transform="translate(0.000000,248.000000) scale(0.100000,-0.100000)"
fill="#000000" stroke="none">
<path d="M2050 1814 c-19 -2 -87 -11 -150 -19 -63 -8 -153 -17 -200 -20 -107
-7 -408 -41 -635 -71 -270 -36 -342 -45 -540 -64 -316 -31 -319 -31 -333 -42
-18 -15 -15 -52 6 -71 28 -26 52 -25 567 33 50 6 140 17 200 26 177 24 519 63
835 94 63 7 172 17 242 24 70 7 134 19 143 26 19 16 19 54 0 70 -16 14 -80 20
-135 14z"/>
</g>
</svg>
