<?xml version="1.0" standalone="no"?>
<!DOCTYPE svg PUBLIC "-//W3C//DTD SVG 20010904//EN"
 "http://www.w3.org/TR/2001/REC-SVG-20010904/DTD/svg10.dtd">
<svg version="1.0" xmlns="http://www.w3.org/2000/svg"
 width="248.000000pt" height="248.000000pt" viewBox="0 0 248.000000 248.000000"
 preserveAspectRatio="xMidYMid meet">
<metadata>
Created by potrace 1.10, written by Peter Selinger 2001-2011
</metadata>
<g transform="translate(0.000000,248.000000) scale(0.100000,-0.100000)"
fill="#000000" stroke="none">
<path d="M689 2203 c-11 -12 -15 -77 -19 -282 l-5 -266 -60 -6 c-33 -4 -136
-14 -230 -23 -93 -9 -175 -22 -182 -28 -19 -15 -16 -52 5 -71 25 -22 81 -22
278 3 87 11 172 20 188 20 l29 0 -9 -357 c-11 -447 -7 -898 9 -933 15 -31 58
-38 78 -14 11 14 14 78 14 353 0 185 4 477 9 648 8 273 11 313 25 317 43 13
569 75 981 116 63 7 172 17 242 24 72 8 134 19 143 26 23 19 15 62 -15 78 -27
14 -89 11 -270 -13 -58 -7 -145 -16 -195 -20 -141 -9 -561 -58 -817 -95 -121
-18 -108 -47 -108 243 0 212 -2 256 -16 275 -18 26 -56 29 -75 5z"/>
</g>
</svg>
