<?xml version="1.0" standalone="no"?>
<!DOCTYPE svg PUBLIC "-//W3C//DTD SVG 20010904//EN"
 "http://www.w3.org/TR/2001/REC-SVG-20010904/DTD/svg10.dtd">
<svg version="1.0" xmlns="http://www.w3.org/2000/svg"
 width="248.000000pt" height="248.000000pt" viewBox="0 0 248.000000 248.000000"
 preserveAspectRatio="xMidYMid meet">
<metadata>
Created by potrace 1.10, written by Peter Selinger 2001-2011
</metadata>
<g transform="translate(0.000000,248.000000) scale(0.100000,-0.100000)"
fill="#000000" stroke="none">
<path d="M1705 2258 c-13 -20 -15 -52 -9 -250 l7 -227 -24 -5 c-13 -2 -94 -12
-179 -20 -85 -9 -189 -21 -230 -26 -177 -22 -329 -42 -386 -51 -116 -17 -104
-46 -104 244 0 274 -4 297 -54 297 -48 0 -51 -15 -56 -299 l-5 -266 -60 -6
c-33 -4 -136 -14 -230 -23 -93 -9 -175 -22 -182 -28 -19 -15 -16 -52 5 -71 25
-22 81 -22 278 3 87 11 172 20 188 20 l29 0 -9 -357 c-10 -412 -6 -930 8 -956
5 -10 20 -22 34 -27 28 -11 490 -12 796 -2 167 6 200 10 214 24 15 14 20 61
35 280 15 228 39 904 39 1099 l0 67 48 7 c26 4 107 13 179 20 142 13 166 23
161 64 -5 39 -41 53 -123 46 -75 -6 -206 -23 -241 -30 -21 -5 -21 -1 -28 223
-8 245 -14 272 -61 272 -13 0 -31 -10 -40 -22z m-5 -691 c0 -57 -3 -186 -7
-285 l-6 -182 -38 0 c-21 0 -71 -4 -111 -10 -121 -15 -326 -39 -448 -50 -63
-6 -142 -16 -176 -21 -33 -5 -76 -9 -94 -9 l-33 0 6 137 c4 75 7 198 7 274 0
122 2 138 18 143 17 5 181 28 347 48 340 40 474 56 503 57 l32 1 0 -103z m-18
-699 c-3 -148 -29 -538 -36 -545 -2 -3 -195 -7 -429 -10 l-425 -6 -7 234 c-4
129 -5 261 -3 294 3 59 3 59 38 67 19 4 82 12 140 18 304 33 373 40 460 50 52
7 129 15 170 19 41 5 80 9 85 10 6 1 9 -47 7 -131z"/>
</g>
</svg>
