<?xml version="1.0" standalone="no"?>
<!DOCTYPE svg PUBLIC "-//W3C//DTD SVG 20010904//EN"
 "http://www.w3.org/TR/2001/REC-SVG-20010904/DTD/svg10.dtd">
<svg version="1.0" xmlns="http://www.w3.org/2000/svg"
 width="248.000000pt" height="248.000000pt" viewBox="0 0 248.000000 248.000000"
 preserveAspectRatio="xMidYMid meet">
<metadata>
Created by potrace 1.10, written by Peter Selinger 2001-2011
</metadata>
<g transform="translate(0.000000,248.000000) scale(0.100000,-0.100000)"
fill="#000000" stroke="none">
<path d="M1169 2203 c-10 -11 -15 -55 -17 -153 l-3 -136 -122 -13 c-67 -7
-198 -24 -292 -38 -93 -13 -212 -30 -263 -37 -105 -14 -127 -28 -124 -78 4
-89 31 -270 43 -284 19 -24 62 -13 77 19 11 22 11 46 3 115 -6 48 -11 94 -11
102 0 16 29 23 285 59 239 35 321 42 571 51 312 12 751 13 758 2 6 -10 -104
-138 -151 -177 -37 -30 -42 -54 -15 -78 38 -34 61 -22 165 85 116 119 137 149
137 201 0 36 -3 40 -47 60 -47 22 -55 22 -475 21 l-428 -2 0 127 c0 98 -3 131
-16 149 -18 26 -56 29 -75 5z"/>
</g>
</svg>
