<?xml version="1.0" standalone="no"?>
<!DOCTYPE svg PUBLIC "-//W3C//DTD SVG 20010904//EN"
 "http://www.w3.org/TR/2001/REC-SVG-20010904/DTD/svg10.dtd">
<svg version="1.0" xmlns="http://www.w3.org/2000/svg"
 width="248.000000pt" height="248.000000pt" viewBox="0 0 248.000000 248.000000"
 preserveAspectRatio="xMidYMid meet">
<metadata>
Created by potrace 1.10, written by Peter Selinger 2001-2011
</metadata>
<g transform="translate(0.000000,248.000000) scale(0.100000,-0.100000)"
fill="#000000" stroke="none">
<path d="M1169 2203 c-10 -11 -15 -55 -17 -153 l-3 -136 -122 -13 c-67 -7
-198 -24 -292 -38 -93 -13 -212 -30 -263 -37 -105 -14 -127 -28 -124 -78 4
-89 31 -270 43 -284 19 -24 62 -13 77 19 11 22 11 46 3 115 -6 48 -11 94 -11
102 0 16 29 23 285 59 239 35 321 42 571 51 312 12 751 13 758 2 6 -10 -104
-138 -151 -177 -37 -30 -42 -54 -15 -78 38 -34 61 -22 165 85 116 119 137 149
137 201 0 36 -3 40 -47 60 -47 22 -55 22 -475 21 l-428 -2 0 127 c0 98 -3 131
-16 149 -18 26 -56 29 -75 5z"/>
<path d="M1442 1348 c-19 -19 -14 -54 12 -85 13 -16 71 -99 129 -185 144 -214
240 -338 365 -469 122 -128 212 -206 248 -215 27 -7 64 18 64 42 0 8 -78 92
-173 186 -182 182 -266 286 -436 543 -51 77 -106 152 -122 168 -31 29 -67 35
-87 15z"/>
<path d="M766 1228 c-9 -12 -16 -36 -16 -52 0 -39 -45 -119 -184 -326 -70
-106 -93 -136 -139 -191 -53 -61 -47 -109 14 -109 27 0 56 28 137 128 45 56
187 280 236 372 58 110 54 200 -10 200 -12 0 -30 -10 -38 -22z"/>
</g>
</svg>
