<?xml version="1.0" standalone="no"?>
<!DOCTYPE svg PUBLIC "-//W3C//DTD SVG 20010904//EN"
 "http://www.w3.org/TR/2001/REC-SVG-20010904/DTD/svg10.dtd">
<svg version="1.0" xmlns="http://www.w3.org/2000/svg"
 width="248.000000pt" height="248.000000pt" viewBox="0 0 248.000000 248.000000"
 preserveAspectRatio="xMidYMid meet">
<metadata>
Created by potrace 1.10, written by Peter Selinger 2001-2011
</metadata>
<g transform="translate(0.000000,248.000000) scale(0.100000,-0.100000)"
fill="#000000" stroke="none">
<path d="M706 2311 c-9 -10 -41 -65 -70 -122 -61 -122 -84 -160 -192 -322 -77
-118 -240 -340 -307 -421 -48 -59 -50 -65 -33 -92 31 -47 86 -25 142 58 16 23
53 74 82 111 l52 69 0 -714 c0 -777 -1 -758 55 -758 57 0 55 -26 55 833 0 540
3 794 10 807 6 11 39 63 73 115 77 117 87 133 159 273 32 62 58 123 58 136 0
45 -52 62 -84 27z"/>
<path d="M1021 2316 c-7 -8 -16 -42 -22 -77 -26 -159 -139 -489 -194 -564 -30
-41 -37 -63 -25 -84 22 -43 77 -30 114 26 23 36 146 331 146 352 0 5 21 11 48
14 26 2 112 14 192 26 80 12 197 28 260 37 63 8 166 24 227 35 103 18 149 25
346 48 75 10 97 22 97 57 0 37 -41 58 -98 50 -26 -3 -98 -13 -161 -21 -63 -8
-153 -21 -200 -30 -165 -29 -266 -44 -336 -50 -38 -4 -110 -14 -160 -22 -49
-8 -111 -17 -137 -20 l-47 -5 9 33 c6 19 15 62 21 97 10 53 9 66 -5 87 -18 28
-57 33 -75 11z"/>
<path d="M1940 1783 c-49 -4 -359 -45 -511 -68 -53 -8 -145 -18 -204 -22 -75
-4 -113 -11 -126 -22 -23 -18 -38 -75 -39 -139 0 -41 -7 -73 -65 -277 l-22
-80 -124 -17 c-68 -9 -158 -17 -199 -17 -85 -1 -120 -17 -120 -56 0 -56 69
-67 255 -39 58 8 118 14 134 12 l28 -3 -12 -45 c-119 -429 -134 -505 -107
-532 10 -10 55 -12 190 -10 196 3 518 -18 655 -44 82 -15 87 -18 81 -38 -7
-23 -51 -107 -90 -173 l-25 -43 -45 26 c-50 29 -89 27 -99 -6 -11 -34 4 -57
54 -89 55 -35 108 -42 143 -19 27 18 127 182 153 251 13 35 22 46 34 43 9 -3
48 -13 86 -22 39 -9 82 -23 97 -30 38 -20 72 -17 93 6 15 16 16 25 7 44 -14
31 -54 50 -167 79 -62 17 -89 28 -88 38 1 8 17 77 36 154 57 228 68 275 88
375 11 52 21 104 24 116 4 20 13 22 137 28 154 9 183 18 183 61 0 48 -29 56
-173 48 l-123 -6 5 34 c3 19 10 61 16 94 14 77 25 314 17 347 -5 17 -18 30
-38 37 -31 11 -47 11 -139 4z m67 -225 c-6 -129 -25 -277 -37 -291 -4 -5 -79
-12 -166 -17 -87 -5 -193 -12 -235 -16 l-76 -6 28 122 c15 67 31 157 35 200
l6 78 82 11 c196 28 248 34 340 39 l29 2 -6 -122z m-561 -25 c-5 -57 -49 -282
-60 -310 -4 -8 -296 -39 -296 -30 0 1 18 74 40 161 22 87 40 173 40 191 l0 33
68 7 c37 4 87 10 112 15 25 4 58 8 74 9 l29 1 -7 -77z m504 -385 c0 -10 -41
-206 -55 -263 -10 -38 -28 -117 -42 -175 -13 -58 -31 -127 -40 -154 -15 -48
-15 -48 -52 -42 -147 27 -284 46 -328 46 -52 0 -53 1 -53 29 0 26 45 276 83
466 l12 60 50 7 c69 11 425 32 425 26z m-597 -110 c-7 -40 -22 -120 -33 -178
-11 -58 -27 -146 -36 -195 l-16 -91 -166 4 c-92 2 -169 6 -171 7 -4 4 24 121
44 185 30 94 74 256 77 280 3 24 7 26 128 41 69 9 139 17 156 18 l30 1 -13
-72z"/>
</g>
</svg>
