<?xml version="1.0" standalone="no"?>
<!DOCTYPE svg PUBLIC "-//W3C//DTD SVG 20010904//EN"
 "http://www.w3.org/TR/2001/REC-SVG-20010904/DTD/svg10.dtd">
<svg version="1.0" xmlns="http://www.w3.org/2000/svg"
 width="248.000000pt" height="248.000000pt" viewBox="0 0 248.000000 248.000000"
 preserveAspectRatio="xMidYMid meet">
<metadata>
Created by potrace 1.10, written by Peter Selinger 2001-2011
</metadata>
<g transform="translate(0.000000,248.000000) scale(0.100000,-0.100000)"
fill="#000000" stroke="none">
<path d="M706 2311 c-9 -10 -41 -65 -70 -122 -61 -122 -84 -160 -192 -322 -77
-118 -240 -340 -307 -421 -48 -59 -50 -65 -33 -92 31 -47 87 -24 143 58 15 24
73 104 129 178 88 120 210 298 271 400 51 84 143 274 143 294 0 45 -52 62 -84
27z"/>
</g>
</svg>
