<?xml version="1.0" standalone="no"?>
<!DOCTYPE svg PUBLIC "-//W3C//DTD SVG 20010904//EN"
 "http://www.w3.org/TR/2001/REC-SVG-20010904/DTD/svg10.dtd">
<svg version="1.0" xmlns="http://www.w3.org/2000/svg"
 width="248.000000pt" height="248.000000pt" viewBox="0 0 248.000000 248.000000"
 preserveAspectRatio="xMidYMid meet">
<metadata>
Created by potrace 1.10, written by Peter Selinger 2001-2011
</metadata>
<g transform="translate(0.000000,248.000000) scale(0.100000,-0.100000)"
fill="#000000" stroke="none">
<path d="M706 2311 c-9 -10 -41 -65 -70 -122 -61 -122 -84 -160 -192 -322 -77
-118 -240 -340 -307 -421 -48 -59 -50 -65 -33 -92 31 -47 86 -25 142 58 16 23
53 74 82 111 l52 69 0 -714 c0 -777 -1 -758 55 -758 57 0 55 -26 55 833 0 540
3 794 10 807 6 11 39 63 73 115 77 117 87 133 159 273 32 62 58 123 58 136 0
45 -52 62 -84 27z"/>
<path d="M1021 2316 c-7 -8 -16 -42 -22 -77 -26 -159 -139 -489 -194 -564 -30
-41 -37 -63 -25 -84 22 -43 77 -30 114 26 23 36 146 331 146 352 0 5 21 11 48
14 26 2 112 14 192 26 80 12 197 28 260 37 63 8 166 24 227 35 103 18 149 25
346 48 75 10 97 22 97 57 0 37 -41 58 -98 50 -26 -3 -98 -13 -161 -21 -63 -8
-153 -21 -200 -30 -165 -29 -266 -44 -336 -50 -38 -4 -110 -14 -160 -22 -49
-8 -111 -17 -137 -20 l-47 -5 9 33 c6 19 15 62 21 97 10 53 9 66 -5 87 -18 28
-57 33 -75 11z"/>
<path d="M1940 1783 c-48 -4 -350 -44 -510 -68 -52 -8 -138 -17 -190 -20 -52
-4 -105 -8 -117 -11 -36 -7 -53 -45 -63 -140 -5 -49 -23 -141 -40 -204 -18
-63 -43 -160 -56 -215 -13 -55 -35 -138 -48 -185 -87 -304 -109 -410 -96 -445
11 -30 -4 -28 205 -26 192 3 516 -20 648 -45 82 -15 87 -18 81 -38 -7 -23 -51
-107 -90 -173 l-25 -43 -45 26 c-50 29 -89 27 -99 -6 -11 -34 4 -57 54 -89 55
-35 108 -42 143 -19 27 18 127 182 153 251 13 35 22 46 34 43 9 -3 48 -13 86
-22 39 -9 82 -23 97 -30 38 -20 72 -17 93 6 15 16 16 25 7 44 -14 31 -54 50
-167 79 -62 17 -89 28 -88 38 1 8 17 77 36 154 57 228 65 263 96 415 48 230
72 395 78 531 7 154 3 174 -38 188 -31 11 -47 11 -139 4z m67 -230 c-8 -154
-53 -424 -112 -668 -10 -38 -28 -117 -42 -175 -13 -58 -31 -127 -40 -154 -15
-48 -15 -48 -52 -42 -169 30 -230 38 -401 51 -107 8 -248 15 -312 15 -65 0
-118 4 -118 9 0 13 29 128 45 181 24 76 72 250 93 340 12 47 39 156 61 244 23
87 41 173 41 191 l0 33 63 7 c34 3 109 13 167 21 58 8 155 21 215 30 229 32
275 37 369 42 l29 2 -6 -127z"/>
</g>
</svg>
