<?xml version="1.0" standalone="no"?>
<!DOCTYPE svg PUBLIC "-//W3C//DTD SVG 20010904//EN"
 "http://www.w3.org/TR/2001/REC-SVG-20010904/DTD/svg10.dtd">
<svg version="1.0" xmlns="http://www.w3.org/2000/svg"
 width="248.000000pt" height="248.000000pt" viewBox="0 0 248.000000 248.000000"
 preserveAspectRatio="xMidYMid meet">
<metadata>
Created by potrace 1.10, written by Peter Selinger 2001-2011
</metadata>
<g transform="translate(0.000000,248.000000) scale(0.100000,-0.100000)"
fill="#000000" stroke="none">
<path d="M706 2311 c-9 -10 -41 -65 -70 -122 -61 -122 -84 -160 -192 -322 -77
-118 -240 -340 -307 -421 -48 -59 -50 -65 -33 -92 31 -47 86 -25 142 58 16 23
53 74 82 111 l52 69 0 -714 c0 -777 -1 -758 55 -758 57 0 55 -26 55 833 0 540
3 794 10 807 6 11 39 63 73 115 77 117 87 133 159 273 32 62 58 123 58 136 0
45 -52 62 -84 27z"/>
</g>
</svg>
