<?xml version="1.0" standalone="no"?>
<!DOCTYPE svg PUBLIC "-//W3C//DTD SVG 20010904//EN"
 "http://www.w3.org/TR/2001/REC-SVG-20010904/DTD/svg10.dtd">
<svg version="1.0" xmlns="http://www.w3.org/2000/svg"
 width="248.000000pt" height="248.000000pt" viewBox="0 0 248.000000 248.000000"
 preserveAspectRatio="xMidYMid meet">
<metadata>
Created by potrace 1.10, written by Peter Selinger 2001-2011
</metadata>
<g transform="translate(0.000000,248.000000) scale(0.100000,-0.100000)"
fill="#000000" stroke="none">
<path d="M706 2311 c-9 -10 -41 -65 -70 -122 -61 -122 -84 -160 -192 -322 -77
-118 -240 -340 -307 -421 -48 -59 -50 -65 -33 -92 31 -47 86 -25 142 58 16 23
53 74 82 111 l52 69 0 -714 c0 -777 -1 -758 55 -758 57 0 55 -26 55 833 0 540
3 794 10 807 6 11 39 63 73 115 77 117 87 133 159 273 32 62 58 123 58 136 0
45 -52 62 -84 27z"/>
<path d="M1021 2316 c-7 -8 -16 -42 -22 -77 -26 -159 -139 -489 -194 -564 -30
-41 -37 -63 -25 -84 22 -43 77 -30 114 26 23 36 146 331 146 352 0 5 21 11 48
14 26 2 112 14 192 26 80 12 197 28 260 37 63 8 166 24 227 35 103 18 149 25
346 48 75 10 97 22 97 57 0 37 -41 58 -98 50 -26 -3 -98 -13 -161 -21 -63 -8
-153 -21 -200 -30 -165 -29 -266 -44 -336 -50 -38 -4 -110 -14 -160 -22 -49
-8 -111 -17 -137 -20 l-47 -5 9 33 c6 19 15 62 21 97 10 53 9 66 -5 87 -18 28
-57 33 -75 11z"/>
<path d="M1079 1623 c-8 -9 -17 -48 -20 -87 -3 -39 -20 -125 -38 -191 -18 -66
-44 -165 -57 -220 -13 -55 -35 -138 -48 -185 -87 -304 -109 -410 -96 -445 11
-30 -4 -28 205 -26 209 3 527 -21 666 -49 130 -27 349 -84 377 -99 32 -17 67
-13 87 9 24 27 8 63 -37 84 -55 26 -335 98 -478 122 -113 19 -446 44 -592 44
-65 0 -118 4 -118 9 0 13 29 128 45 181 24 76 72 250 93 340 12 47 39 156 61
244 44 171 50 229 25 264 -18 26 -56 29 -75 5z"/>
</g>
</svg>
