<?xml version="1.0" standalone="no"?>
<!DOCTYPE svg PUBLIC "-//W3C//DTD SVG 20010904//EN"
 "http://www.w3.org/TR/2001/REC-SVG-20010904/DTD/svg10.dtd">
<svg version="1.0" xmlns="http://www.w3.org/2000/svg"
 width="248.000000pt" height="248.000000pt" viewBox="0 0 248.000000 248.000000"
 preserveAspectRatio="xMidYMid meet">
<metadata>
Created by potrace 1.10, written by Peter Selinger 2001-2011
</metadata>
<g transform="translate(0.000000,248.000000) scale(0.100000,-0.100000)"
fill="#000000" stroke="none">
<path d="M1730 2245 c-8 -10 -10 -44 -5 -122 6 -89 4 -115 -10 -149 -19 -48
-1 -43 -268 -69 -174 -16 -222 -33 -222 -79 0 -43 22 -52 97 -38 35 7 115 17
178 22 63 6 131 13 151 16 48 7 51 -3 43 -143 -8 -133 12 -118 -187 -133 -168
-12 -262 -27 -278 -46 -9 -11 -9 -49 0 -161 7 -82 13 -231 16 -333 2 -102 4
-190 4 -197 1 -18 39 -35 62 -28 11 4 24 16 28 28 4 12 3 154 -3 315 -10 265
-9 295 5 302 21 12 312 35 333 27 15 -6 16 -67 16 -710 0 -533 3 -706 12 -715
16 -16 53 -15 67 1 7 9 11 227 13 724 2 391 6 715 10 719 17 16 486 40 507 25
27 -18 -16 -358 -65 -516 -35 -114 -32 -112 -93 -70 -60 40 -81 43 -104 17
-33 -37 -19 -58 83 -126 105 -69 147 -42 203 129 38 118 60 235 77 410 6 61
13 133 16 162 5 44 2 55 -17 74 -22 22 -23 22 -293 16 -149 -4 -280 -8 -291
-9 -19 -3 -20 4 -23 116 -1 67 2 124 7 129 12 12 310 37 465 38 102 1 121 4
137 20 23 23 24 39 5 65 -13 17 -25 19 -118 16 -86 -2 -420 -21 -453 -26 -6 0
-12 55 -15 140 -5 150 -13 174 -55 174 -12 0 -28 -7 -35 -15z"/>
<path d="M513 2028 c-6 -7 -13 -50 -16 -95 -7 -95 -64 -362 -81 -380 -6 -7
-91 -32 -189 -57 -98 -24 -184 -50 -192 -56 -18 -15 -19 -52 -3 -68 21 -21 82
-12 276 40 41 11 76 18 78 15 6 -5 -74 -295 -90 -326 -7 -14 -21 -49 -30 -78
-9 -28 -24 -57 -32 -63 -7 -7 -14 -27 -14 -45 0 -34 8 -40 85 -65 57 -19 165
-80 165 -94 0 -14 -172 -184 -217 -215 -42 -28 -46 -75 -9 -92 38 -18 100 22
218 141 l106 108 109 -71 c59 -39 150 -104 202 -144 93 -72 125 -85 149 -61
28 28 5 107 -31 108 -7 0 -32 16 -57 35 -69 53 -190 137 -240 167 -88 53 -86
47 -44 118 55 94 141 289 175 398 49 154 109 326 117 333 4 4 59 21 122 39 63
18 123 39 133 48 33 29 16 82 -28 82 -11 0 -67 -13 -125 -30 -58 -16 -119 -30
-137 -30 -17 0 -34 -4 -38 -9 -9 -16 -323 -106 -333 -96 -3 3 4 49 16 102 45
204 52 294 26 331 -17 24 -56 29 -71 10z m307 -484 c0 -12 -93 -292 -123 -369
-32 -84 -125 -277 -149 -309 -14 -17 -18 -16 -104 30 -49 26 -91 49 -93 50 -2
2 13 47 32 101 20 54 48 143 63 198 15 55 34 127 43 160 l16 59 135 36 c74 20
142 39 150 42 20 9 30 9 30 2z"/>
</g>
</svg>
