<?xml version="1.0" standalone="no"?>
<!DOCTYPE svg PUBLIC "-//W3C//DTD SVG 20010904//EN"
 "http://www.w3.org/TR/2001/REC-SVG-20010904/DTD/svg10.dtd">
<svg version="1.0" xmlns="http://www.w3.org/2000/svg"
 width="248.000000pt" height="248.000000pt" viewBox="0 0 248.000000 248.000000"
 preserveAspectRatio="xMidYMid meet">
<metadata>
Created by potrace 1.10, written by Peter Selinger 2001-2011
</metadata>
<g transform="translate(0.000000,248.000000) scale(0.100000,-0.100000)"
fill="#000000" stroke="none">
<path d="M512 2028 c-7 -7 -12 -33 -12 -59 0 -87 -37 -265 -129 -614 -56 -210
-109 -365 -137 -396 -8 -8 -14 -29 -14 -46 0 -32 10 -39 85 -63 57 -19 165
-80 165 -94 0 -14 -172 -184 -217 -215 -42 -28 -46 -75 -9 -92 38 -18 100 22
218 141 l106 108 109 -71 c59 -39 150 -104 202 -144 93 -72 125 -85 149 -61
28 28 5 107 -31 108 -7 0 -32 16 -57 35 -69 53 -190 137 -240 167 -88 53 -86
47 -44 118 55 94 141 289 175 398 17 53 51 155 75 226 45 131 53 183 32 204
-16 16 -53 15 -66 0 -5 -7 -40 -105 -77 -218 -84 -257 -115 -338 -181 -470
-79 -159 -64 -151 -170 -94 -49 26 -91 49 -93 50 -2 2 12 47 32 101 20 54 47
139 61 188 147 549 179 727 140 783 -17 24 -53 29 -72 10z"/>
</g>
</svg>
