<?xml version="1.0" standalone="no"?>
<!DOCTYPE svg PUBLIC "-//W3C//DTD SVG 20010904//EN"
 "http://www.w3.org/TR/2001/REC-SVG-20010904/DTD/svg10.dtd">
<svg version="1.0" xmlns="http://www.w3.org/2000/svg"
 width="248.000000pt" height="248.000000pt" viewBox="0 0 248.000000 248.000000"
 preserveAspectRatio="xMidYMid meet">
<metadata>
Created by potrace 1.10, written by Peter Selinger 2001-2011
</metadata>
<g transform="translate(0.000000,248.000000) scale(0.100000,-0.100000)"
fill="#000000" stroke="none">
<path d="M1215 2263 c-121 -6 -240 -14 -265 -17 -25 -3 -106 -13 -180 -21
-219 -25 -232 -34 -201 -137 11 -35 22 -83 26 -108 3 -25 12 -85 20 -135 8
-49 21 -146 30 -215 23 -174 30 -198 61 -206 19 -5 32 -1 46 14 l20 20 -21
153 c-37 259 -69 463 -76 481 -8 21 1 23 140 38 214 23 471 40 708 46 277 8
260 13 231 -67 -9 -24 -29 -87 -44 -139 -51 -170 -127 -365 -161 -411 -16 -21
-4 -66 20 -74 34 -10 70 16 95 69 55 116 89 208 146 396 21 69 43 138 49 154
7 16 13 56 14 88 3 90 3 90 -238 86 -110 -2 -299 -8 -420 -15z"/>
</g>
</svg>
