<?xml version="1.0" standalone="no"?>
<!DOCTYPE svg PUBLIC "-//W3C//DTD SVG 20010904//EN"
 "http://www.w3.org/TR/2001/REC-SVG-20010904/DTD/svg10.dtd">
<svg version="1.0" xmlns="http://www.w3.org/2000/svg"
 width="248.000000pt" height="248.000000pt" viewBox="0 0 248.000000 248.000000"
 preserveAspectRatio="xMidYMid meet">
<metadata>
Created by potrace 1.10, written by Peter Selinger 2001-2011
</metadata>
<g transform="translate(0.000000,248.000000) scale(0.100000,-0.100000)"
fill="#000000" stroke="none">
<path d="M592 2163 c-24 -9 -32 -50 -18 -90 7 -21 16 -60 20 -88 4 -27 13 -90
21 -140 8 -49 21 -146 30 -215 23 -174 30 -198 61 -206 19 -5 32 -1 46 14 l20
20 -21 153 c-43 299 -71 477 -82 508 -15 41 -43 58 -77 44z"/>
</g>
</svg>
