<?xml version="1.0" standalone="no"?>
<!DOCTYPE svg PUBLIC "-//W3C//DTD SVG 20010904//EN"
 "http://www.w3.org/TR/2001/REC-SVG-20010904/DTD/svg10.dtd">
<svg version="1.0" xmlns="http://www.w3.org/2000/svg"
 width="248.000000pt" height="248.000000pt" viewBox="0 0 248.000000 248.000000"
 preserveAspectRatio="xMidYMid meet">
<metadata>
Created by potrace 1.10, written by Peter Selinger 2001-2011
</metadata>
<g transform="translate(0.000000,248.000000) scale(0.100000,-0.100000)"
fill="#000000" stroke="none">
<path d="M1215 2263 c-121 -6 -240 -14 -265 -17 -25 -3 -106 -13 -180 -21
-219 -25 -232 -34 -201 -137 11 -35 22 -83 26 -108 3 -25 12 -85 20 -135 8
-49 21 -146 30 -215 24 -186 28 -197 73 -209 24 -7 51 -7 77 -1 22 5 55 10 73
10 28 0 32 -3 34 -27 7 -120 -49 -326 -136 -503 -107 -216 -298 -424 -473
-514 -55 -28 -42 -96 18 -96 28 0 163 85 223 139 61 56 201 219 242 283 129
201 224 474 224 644 l0 91 108 13 c59 7 118 13 132 14 29 1 28 10 5 -169 -71
-546 -74 -700 -11 -822 39 -76 143 -165 241 -206 106 -44 163 -52 380 -52 204
0 213 1 300 29 95 30 159 58 188 84 22 20 23 103 1 197 -10 39 -21 87 -26 107
-7 29 -15 39 -35 44 -64 16 -74 -27 -40 -168 13 -53 21 -101 18 -106 -10 -15
-61 -38 -136 -62 -56 -17 -103 -23 -235 -27 -240 -8 -354 18 -473 106 -148
109 -157 190 -83 775 21 165 38 271 46 276 23 14 157 21 182 9 31 -14 78 7 95
43 38 76 103 252 153 418 21 69 43 138 49 154 7 16 13 56 14 88 3 90 3 90
-238 86 -110 -2 -299 -8 -420 -15z m555 -97 c0 -7 -7 -33 -16 -57 -9 -24 -29
-87 -44 -139 -49 -165 -124 -360 -138 -360 -5 0 -55 -7 -113 -14 -57 -8 -149
-18 -204 -21 -55 -3 -113 -8 -130 -10 -136 -21 -351 -43 -357 -37 -4 4 -14 59
-23 122 -31 218 -63 425 -70 442 -8 20 1 23 135 38 263 28 546 45 798 48 132
2 162 -1 162 -12z"/>
</g>
</svg>
