<?xml version="1.0" standalone="no"?>
<!DOCTYPE svg PUBLIC "-//W3C//DTD SVG 20010904//EN"
 "http://www.w3.org/TR/2001/REC-SVG-20010904/DTD/svg10.dtd">
<svg version="1.0" xmlns="http://www.w3.org/2000/svg"
 width="248.000000pt" height="248.000000pt" viewBox="0 0 248.000000 248.000000"
 preserveAspectRatio="xMidYMid meet">
<metadata>
Created by potrace 1.10, written by Peter Selinger 2001-2011
</metadata>
<g transform="translate(0.000000,248.000000) scale(0.100000,-0.100000)"
fill="#000000" stroke="none">
<path d="M1199 2374 c-9 -11 -16 -53 -19 -128 l-5 -111 -115 -12 c-63 -6 -153
-12 -200 -13 -96 -1 -122 -13 -122 -56 0 -59 40 -63 315 -34 60 6 110 10 112
8 2 -2 -3 -120 -10 -262 -7 -143 -11 -265 -8 -273 7 -19 47 -27 71 -14 27 15
30 35 42 301 6 129 13 240 15 246 2 6 54 16 117 23 178 18 370 57 385 77 18
24 16 49 -4 69 -18 19 -10 19 -218 -18 -77 -14 -169 -27 -205 -29 l-65 -3 3
95 c2 64 -2 103 -10 120 -16 31 -59 38 -79 14z"/>
</g>
</svg>
