<?xml version="1.0" standalone="no"?>
<!DOCTYPE svg PUBLIC "-//W3C//DTD SVG 20010904//EN"
 "http://www.w3.org/TR/2001/REC-SVG-20010904/DTD/svg10.dtd">
<svg version="1.0" xmlns="http://www.w3.org/2000/svg"
 width="248.000000pt" height="248.000000pt" viewBox="0 0 248.000000 248.000000"
 preserveAspectRatio="xMidYMid meet">
<metadata>
Created by potrace 1.10, written by Peter Selinger 2001-2011
</metadata>
<g transform="translate(0.000000,248.000000) scale(0.100000,-0.100000)"
fill="#000000" stroke="none">
<path d="M1199 2374 c-9 -11 -16 -53 -19 -128 l-5 -111 -115 -12 c-63 -6 -153
-12 -200 -13 -57 0 -91 -5 -104 -15 -24 -18 -24 -64 0 -82 21 -15 100 -17 194
-4 36 5 100 12 142 16 l78 7 -7 -99 c-3 -54 -7 -99 -8 -100 -2 -4 -209 -31
-290 -38 -85 -8 -117 -26 -113 -62 6 -51 29 -52 347 -16 l54 6 -6 -113 c-3
-61 -7 -114 -9 -116 -3 -2 -67 -10 -144 -18 -240 -26 -551 -83 -580 -106 -22
-19 -17 -58 10 -75 23 -15 31 -15 113 4 291 67 870 125 1372 138 228 6 256 8
273 25 24 24 23 43 -3 69 -21 21 -26 22 -223 15 -207 -7 -583 -31 -670 -42
-47 -6 -49 -6 -43 17 3 13 9 66 13 117 8 107 -5 98 149 107 204 13 223 17 234
48 21 58 -14 81 -101 68 -35 -5 -111 -13 -169 -16 l-106 -7 4 88 c3 49 6 94 8
100 2 6 53 16 117 23 178 18 370 57 385 77 18 24 16 49 -4 69 -18 19 -10 19
-218 -18 -77 -14 -169 -27 -205 -29 l-65 -3 3 95 c2 64 -2 103 -10 120 -16 31
-59 38 -79 14z"/>
</g>
</svg>
