<?xml version="1.0" standalone="no"?>
<!DOCTYPE svg PUBLIC "-//W3C//DTD SVG 20010904//EN"
 "http://www.w3.org/TR/2001/REC-SVG-20010904/DTD/svg10.dtd">
<svg version="1.0" xmlns="http://www.w3.org/2000/svg"
 width="248.000000pt" height="248.000000pt" viewBox="0 0 248.000000 248.000000"
 preserveAspectRatio="xMidYMid meet">
<metadata>
Created by potrace 1.10, written by Peter Selinger 2001-2011
</metadata>
<g transform="translate(0.000000,248.000000) scale(0.100000,-0.100000)"
fill="#000000" stroke="none">
<path d="M1400 2205 c-7 -9 -17 -60 -21 -113 -18 -224 -90 -500 -166 -641 -39
-71 -44 -87 -34 -107 17 -37 63 -33 95 9 38 50 91 170 125 286 17 57 31 104
31 105 0 1 48 8 108 15 59 7 143 16 186 22 120 14 116 15 116 -29 0 -46 -43
-274 -75 -399 -29 -110 -85 -257 -95 -246 -14 16 -105 160 -151 238 -26 44
-55 94 -66 110 -31 51 -93 42 -93 -12 0 -35 59 -143 173 -317 l99 -150 -61
-124 c-64 -128 -132 -241 -198 -326 -64 -82 -212 -219 -271 -251 -68 -37 -80
-54 -64 -89 16 -36 50 -34 133 10 52 28 94 63 176 148 59 61 120 129 134 151
94 144 122 191 165 278 27 53 52 97 55 97 4 0 16 -15 27 -32 11 -18 43 -64 71
-103 27 -38 75 -107 106 -152 31 -46 61 -86 67 -89 5 -3 42 -49 81 -103 114
-153 250 -274 301 -269 56 6 61 69 9 100 -51 30 -177 161 -236 245 -32 46 -63
86 -70 90 -7 5 -30 35 -52 68 -21 33 -55 80 -75 105 -40 51 -76 103 -136 198
l-42 65 21 61 c11 34 23 66 27 71 40 55 157 573 144 640 l-6 33 49 6 c164 20
229 57 191 109 -16 21 -45 23 -128 8 -36 -7 -112 -16 -170 -21 -102 -9 -239
-22 -369 -36 -64 -7 -64 -7 -58 17 3 13 13 68 23 123 17 103 15 176 -6 201
-16 19 -54 19 -70 0z"/>
<path d="M960 1939 c-146 -20 -374 -53 -510 -75 -47 -7 -105 -13 -130 -14 -51
0 -70 -13 -70 -45 0 -30 28 -53 70 -56 44 -4 157 9 235 26 71 16 475 69 480
63 2 -2 -10 -64 -26 -138 -17 -74 -38 -169 -47 -210 l-17 -75 -50 -6 c-427
-50 -628 -79 -644 -94 -11 -11 -14 -76 -16 -327 -1 -172 2 -335 8 -362 14 -74
65 -119 153 -137 128 -26 595 -11 655 21 24 13 33 45 18 71 -11 21 -16 22
-103 15 -188 -14 -404 -19 -490 -11 -73 6 -93 11 -112 30 l-22 22 3 299 3 299
78 11 c44 6 131 17 194 23 63 6 149 16 190 22 211 29 221 34 245 143 36 162
67 296 86 373 18 71 19 86 7 109 -7 15 -22 30 -33 34 -11 3 -81 -2 -155 -11z"/>
</g>
</svg>
