<?xml version="1.0" standalone="no"?>
<!DOCTYPE svg PUBLIC "-//W3C//DTD SVG 20010904//EN"
 "http://www.w3.org/TR/2001/REC-SVG-20010904/DTD/svg10.dtd">
<svg version="1.0" xmlns="http://www.w3.org/2000/svg"
 width="248.000000pt" height="248.000000pt" viewBox="0 0 248.000000 248.000000"
 preserveAspectRatio="xMidYMid meet">
<metadata>
Created by potrace 1.10, written by Peter Selinger 2001-2011
</metadata>
<g transform="translate(0.000000,248.000000) scale(0.100000,-0.100000)"
fill="#000000" stroke="none">
<path d="M960 1939 c-146 -20 -374 -53 -510 -75 -47 -7 -105 -13 -130 -14 -51
0 -70 -13 -70 -45 0 -30 28 -53 70 -56 44 -4 157 9 235 26 71 16 475 69 480
63 2 -2 -9 -62 -25 -133 -69 -303 -75 -335 -64 -353 15 -24 52 -27 74 -7 11
10 26 48 35 89 36 162 67 296 86 373 18 71 19 86 7 109 -7 15 -22 30 -33 34
-11 3 -81 -2 -155 -11z"/>
</g>
</svg>
