<?xml version="1.0" standalone="no"?>
<!DOCTYPE svg PUBLIC "-//W3C//DTD SVG 20010904//EN"
 "http://www.w3.org/TR/2001/REC-SVG-20010904/DTD/svg10.dtd">
<svg version="1.0" xmlns="http://www.w3.org/2000/svg"
 width="248.000000pt" height="248.000000pt" viewBox="0 0 248.000000 248.000000"
 preserveAspectRatio="xMidYMid meet">
<metadata>
Created by potrace 1.10, written by Peter Selinger 2001-2011
</metadata>
<g transform="translate(0.000000,248.000000) scale(0.100000,-0.100000)"
fill="#000000" stroke="none">
<path d="M1163 2388 c-4 -7 -7 -137 -6 -288 1 -151 -1 -290 -4 -308 -6 -37 -1
-35 -157 -52 -60 -6 -150 -18 -199 -27 -49 -8 -90 -13 -92 -11 -2 1 -6 39 -9
83 -13 161 -18 193 -37 223 -20 34 -63 51 -88 35 -23 -14 -25 -50 -6 -80 13
-19 18 -58 22 -157 l6 -132 -124 -17 c-139 -20 -192 -40 -197 -75 -6 -37 16
-54 62 -49 95 9 288 39 371 57 133 29 277 49 436 60 78 6 145 12 149 15 4 3
86 9 182 15 95 5 209 12 253 15 44 2 166 7 270 11 105 3 196 11 203 16 29 24
6 75 -41 91 -9 4 -101 2 -205 -4 -103 -5 -272 -14 -377 -19 -104 -5 -219 -12
-255 -16 l-66 -7 8 104 c5 57 12 107 16 110 4 4 75 16 157 29 187 27 285 47
302 61 21 18 15 57 -10 74 -20 13 -32 13 -99 0 -42 -8 -120 -21 -174 -29 -55
-8 -118 -18 -141 -22 l-43 -7 0 64 c-1 101 -18 210 -36 231 -20 21 -59 24 -71
6z"/>
</g>
</svg>
