<?xml version="1.0" standalone="no"?>
<!DOCTYPE svg PUBLIC "-//W3C//DTD SVG 20010904//EN"
 "http://www.w3.org/TR/2001/REC-SVG-20010904/DTD/svg10.dtd">
<svg version="1.0" xmlns="http://www.w3.org/2000/svg"
 width="248.000000pt" height="248.000000pt" viewBox="0 0 248.000000 248.000000"
 preserveAspectRatio="xMidYMid meet">
<metadata>
Created by potrace 1.10, written by Peter Selinger 2001-2011
</metadata>
<g transform="translate(0.000000,248.000000) scale(0.100000,-0.100000)"
fill="#000000" stroke="none">
<path d="M1163 2388 c-4 -7 -7 -137 -6 -288 1 -151 -1 -290 -4 -308 -6 -37 -1
-35 -157 -52 -60 -6 -150 -18 -199 -27 -49 -8 -90 -13 -92 -11 -2 1 -6 39 -9
83 -13 161 -18 193 -37 223 -20 34 -63 51 -88 35 -23 -14 -25 -50 -6 -80 13
-19 18 -58 22 -157 l6 -132 -124 -17 c-139 -20 -192 -40 -197 -75 -6 -37 16
-54 62 -49 95 9 288 39 371 57 110 24 263 47 371 56 l82 7 -4 -104 c-2 -57 -7
-188 -10 -291 l-6 -187 -43 29 c-46 32 -83 38 -103 18 -25 -25 -13 -56 36 -95
26 -20 64 -52 85 -70 40 -35 86 -43 106 -19 21 25 31 135 37 429 6 264 8 288
24 297 10 6 97 14 192 20 95 5 209 12 253 15 44 2 166 7 270 11 105 3 196 11
203 16 29 24 6 75 -41 91 -9 4 -101 2 -205 -3 -103 -6 -270 -15 -372 -20 -102
-5 -217 -12 -255 -16 l-71 -6 8 103 c5 57 12 107 16 110 4 4 75 16 157 29 187
27 285 47 302 61 21 18 15 57 -10 74 -20 13 -32 13 -99 0 -42 -8 -120 -21
-174 -29 -55 -8 -118 -18 -141 -22 l-43 -7 0 64 c-1 101 -18 210 -36 231 -20
21 -59 24 -71 6z"/>
<path d="M1640 1506 c-24 -30 -6 -60 65 -114 102 -77 205 -147 250 -170 22
-11 64 -39 94 -61 63 -48 107 -54 120 -18 5 12 5 31 1 42 -8 21 -99 89 -227
168 -43 27 -114 75 -158 107 -82 60 -122 73 -145 46z"/>
<path d="M591 1342 c-58 -59 -135 -127 -171 -152 -116 -81 -138 -111 -104
-144 29 -29 61 -18 161 58 120 90 153 121 232 212 61 70 72 99 49 122 -30 30
-59 13 -167 -96z"/>
<path d="M1533 1298 c-5 -7 -20 -48 -32 -91 -53 -181 -156 -374 -286 -532
-116 -142 -163 -190 -279 -289 -140 -118 -243 -181 -371 -231 -93 -36 -125
-58 -125 -87 0 -18 31 -48 50 -48 30 0 228 87 306 134 287 175 583 509 727
821 71 153 102 267 84 304 -14 29 -57 40 -74 19z"/>
</g>
</svg>
