<?xml version="1.0" standalone="no"?>
<!DOCTYPE svg PUBLIC "-//W3C//DTD SVG 20010904//EN"
 "http://www.w3.org/TR/2001/REC-SVG-20010904/DTD/svg10.dtd">
<svg version="1.0" xmlns="http://www.w3.org/2000/svg"
 width="248.000000pt" height="248.000000pt" viewBox="0 0 248.000000 248.000000"
 preserveAspectRatio="xMidYMid meet">
<metadata>
Created by potrace 1.10, written by Peter Selinger 2001-2011
</metadata>
<g transform="translate(0.000000,248.000000) scale(0.100000,-0.100000)"
fill="#000000" stroke="none">
<path d="M342 2168 c-13 -13 -16 -47 -4 -63 23 -32 263 -155 303 -155 22 0 32
6 38 23 15 41 -3 60 -110 115 -57 30 -118 62 -135 73 -36 22 -74 25 -92 7z"/>
<path d="M1620 2076 c-91 -19 -235 -48 -320 -64 -220 -44 -332 -71 -348 -84
-21 -18 -10 -61 19 -77 24 -13 40 -11 180 22 85 21 217 48 294 62 168 30 328
63 373 77 58 18 55 91 -4 95 -16 1 -103 -13 -194 -31z"/>
<path d="M1690 1692 c-14 -2 -90 -17 -170 -33 -80 -16 -170 -34 -200 -40 -30
-6 -89 -17 -130 -26 -41 -8 -100 -20 -130 -25 -62 -12 -90 -31 -90 -63 0 -50
50 -57 189 -25 47 10 122 26 166 34 230 44 417 85 430 96 8 7 15 23 15 35 0
35 -33 54 -80 47z"/>
<path d="M152 1548 c-17 -17 -15 -53 3 -68 9 -7 71 -33 138 -56 67 -24 143
-51 168 -61 61 -22 99 -9 99 36 0 16 -6 33 -12 38 -15 11 -173 73 -186 73 -5
0 -36 11 -70 25 -67 27 -121 32 -140 13z"/>
<path d="M476 728 c-11 -6 -30 -23 -43 -37 -27 -31 -207 -295 -246 -362 -41
-69 -33 -119 19 -119 26 0 34 9 99 110 85 134 166 252 207 303 44 56 47 79 16
101 -26 19 -27 19 -52 4z"/>
</g>
</svg>
