<?xml version="1.0" standalone="no"?>
<!DOCTYPE svg PUBLIC "-//W3C//DTD SVG 20010904//EN"
 "http://www.w3.org/TR/2001/REC-SVG-20010904/DTD/svg10.dtd">
<svg version="1.0" xmlns="http://www.w3.org/2000/svg"
 width="248.000000pt" height="248.000000pt" viewBox="0 0 248.000000 248.000000"
 preserveAspectRatio="xMidYMid meet">
<metadata>
Created by potrace 1.10, written by Peter Selinger 2001-2011
</metadata>
<g transform="translate(0.000000,248.000000) scale(0.100000,-0.100000)"
fill="#000000" stroke="none">
<path d="M1295 2367 c-13 -21 -13 -39 9 -183 13 -87 22 -160 21 -162 -2 -2
-41 -11 -86 -21 -194 -42 -274 -63 -287 -73 -21 -18 -10 -61 19 -77 24 -13 39
-12 177 22 186 46 202 46 202 10 0 -16 9 -70 20 -122 28 -132 29 -128 -32
-139 -29 -6 -91 -18 -138 -27 -47 -9 -110 -21 -140 -27 -30 -6 -63 -17 -72
-26 -21 -17 -23 -53 -6 -70 17 -17 82 -15 153 4 33 8 101 22 150 30 50 7 100
16 112 20 19 5 22 0 33 -53 6 -32 20 -89 30 -127 11 -39 18 -71 16 -74 -7 -7
-508 -120 -658 -148 -93 -18 -128 -39 -128 -78 0 -32 24 -50 57 -43 16 4 84
17 153 31 111 22 360 77 538 120 73 17 60 29 107 -104 89 -251 140 -371 194
-458 90 -146 128 -197 214 -280 86 -84 99 -93 129 -90 30 3 37 10 78 89 25 47
61 108 81 135 54 74 109 178 109 206 0 57 -62 64 -95 10 -11 -18 -57 -89 -102
-159 -45 -69 -84 -131 -86 -137 -5 -13 -98 71 -144 129 -17 22 -48 69 -69 105
-20 36 -48 84 -61 107 -24 42 -88 199 -123 303 -10 30 -28 81 -40 114 -12 32
-19 60 -17 62 6 6 285 70 451 104 82 17 156 35 163 42 22 18 12 61 -19 76 -23
11 -48 8 -178 -17 -83 -17 -155 -33 -159 -35 -5 -3 -64 -17 -132 -31 -68 -14
-131 -28 -140 -31 -12 -3 -20 10 -33 53 -21 73 -46 195 -41 203 2 4 48 15 102
25 113 21 143 36 143 69 0 52 -46 59 -183 30 -46 -10 -81 -13 -86 -8 -8 9 -51
224 -51 254 0 11 41 23 173 49 94 19 184 38 200 43 42 15 50 80 11 95 -9 3
-102 -11 -206 -32 -104 -20 -191 -35 -194 -32 -3 2 -10 36 -15 73 -28 190 -39
247 -50 260 -18 22 -57 17 -74 -9z"/>
<path d="M342 2168 c-13 -13 -16 -47 -4 -63 23 -32 263 -155 303 -155 22 0 32
6 38 23 15 41 -3 60 -110 115 -57 30 -118 62 -135 73 -36 22 -74 25 -92 7z"/>
<path d="M152 1548 c-17 -17 -15 -53 3 -68 9 -7 71 -33 138 -56 67 -24 143
-51 168 -61 61 -22 99 -9 99 36 0 16 -6 33 -12 38 -15 11 -173 73 -186 73 -5
0 -36 11 -70 25 -67 27 -121 32 -140 13z"/>
<path d="M476 728 c-11 -6 -30 -23 -43 -37 -27 -31 -207 -295 -246 -362 -41
-69 -33 -119 19 -119 26 0 34 9 99 110 85 134 166 252 207 303 44 56 47 79 16
101 -26 19 -27 19 -52 4z"/>
</g>
</svg>
