<?xml version="1.0" standalone="no"?>
<!DOCTYPE svg PUBLIC "-//W3C//DTD SVG 20010904//EN"
 "http://www.w3.org/TR/2001/REC-SVG-20010904/DTD/svg10.dtd">
<svg version="1.0" xmlns="http://www.w3.org/2000/svg"
 width="248.000000pt" height="248.000000pt" viewBox="0 0 248.000000 248.000000"
 preserveAspectRatio="xMidYMid meet">
<metadata>
Created by potrace 1.10, written by Peter Selinger 2001-2011
</metadata>
<g transform="translate(0.000000,248.000000) scale(0.100000,-0.100000)"
fill="#000000" stroke="none">
<path d="M300 2156 c-22 -28 -7 -60 45 -94 91 -59 292 -162 319 -162 32 0 56
41 39 68 -9 16 -122 85 -188 116 -16 8 -57 30 -89 50 -63 38 -106 45 -126 22z"/>
<path d="M122 1498 c-18 -18 -15 -52 6 -71 35 -32 297 -137 343 -137 31 0 49
17 49 45 0 31 -27 52 -106 79 -38 13 -107 40 -154 60 -90 38 -119 43 -138 24z"/>
<path d="M448 673 c-8 -10 -39 -72 -68 -138 -60 -137 -133 -296 -155 -338 -28
-53 -14 -97 30 -97 31 0 60 35 95 115 17 39 42 93 55 120 64 135 125 284 125
306 0 47 -52 67 -82 32z"/>
</g>
</svg>
