<?xml version="1.0" standalone="no"?>
<!DOCTYPE svg PUBLIC "-//W3C//DTD SVG 20010904//EN"
 "http://www.w3.org/TR/2001/REC-SVG-20010904/DTD/svg10.dtd">
<svg version="1.0" xmlns="http://www.w3.org/2000/svg"
 width="248.000000pt" height="248.000000pt" viewBox="0 0 248.000000 248.000000"
 preserveAspectRatio="xMidYMid meet">
<metadata>
Created by potrace 1.10, written by Peter Selinger 2001-2011
</metadata>
<g transform="translate(0.000000,248.000000) scale(0.100000,-0.100000)"
fill="#000000" stroke="none">
<path d="M1746 2278 c-8 -13 -32 -70 -54 -128 -46 -124 -120 -273 -173 -352
-53 -78 -50 -128 8 -128 25 0 74 61 136 170 l32 55 70 7 c39 4 176 14 305 23
293 19 310 23 310 70 0 40 -22 48 -118 42 -48 -4 -163 -11 -257 -17 -93 -5
-189 -12 -212 -15 -24 -2 -43 -1 -43 3 0 5 18 56 40 115 42 111 48 145 28 165
-19 19 -56 14 -72 -10z"/>
<path d="M1110 2265 c-9 -11 -10 -38 -5 -100 4 -47 4 -102 0 -124 l-6 -39 -87
-12 c-143 -19 -206 -32 -229 -46 -26 -17 -30 -55 -8 -74 16 -13 22 -13 213 15
63 9 115 15 117 13 12 -12 -119 -414 -218 -668 -40 -103 -119 -243 -199 -354
-33 -45 -35 -67 -10 -89 26 -24 44 -21 74 11 29 31 144 206 175 267 26 50 108
264 158 410 20 61 41 114 45 118 8 9 123 -10 153 -25 22 -11 23 -97 3 -283
-15 -134 -33 -222 -66 -312 -24 -65 -96 -209 -109 -217 -5 -3 -28 23 -51 59
-44 68 -67 83 -100 65 -31 -17 -25 -55 23 -133 89 -147 129 -163 196 -74 44
58 118 208 149 302 44 132 56 220 56 440 l1 209 -32 22 c-18 12 -61 27 -96 34
-98 18 -95 14 -67 125 27 111 24 109 145 120 150 13 227 31 247 55 16 20 17
25 4 44 -17 26 -61 26 -246 3 -68 -9 -128 -13 -132 -11 -4 3 -8 53 -8 112 0
81 -4 113 -16 130 -17 25 -56 29 -74 7z"/>
<path d="M292 2198 c-28 -28 -13 -57 51 -104 34 -25 81 -57 105 -71 31 -18 40
-29 33 -36 -19 -19 -12 -56 12 -72 21 -13 29 -13 87 3 45 13 66 25 73 40 17
38 -7 67 -100 123 -48 28 -112 69 -142 90 -55 40 -97 49 -119 27z"/>
<path d="M1945 1734 c-66 -7 -152 -13 -190 -13 -75 -1 -95 -11 -95 -47 0 -42
19 -47 192 -42 l161 4 -69 -64 c-38 -36 -86 -76 -107 -89 -51 -32 -49 -70 5
-96 48 -23 101 -73 93 -87 -3 -5 -39 -10 -78 -10 -114 -1 -327 -27 -353 -45
-27 -18 -32 -56 -9 -75 13 -11 35 -11 113 -1 317 38 357 39 371 13 5 -10 13
-52 16 -93 6 -66 4 -85 -24 -170 -30 -92 -100 -219 -121 -219 -5 0 -10 3 -10
8 0 17 -81 92 -99 92 -25 0 -51 -26 -51 -50 0 -11 27 -51 60 -90 56 -64 64
-70 99 -70 33 0 45 7 84 49 51 54 98 141 133 245 20 58 24 90 24 193 l0 124
161 -2 c169 -1 189 4 189 45 0 42 -15 46 -194 46 -94 0 -176 4 -181 8 -6 4
-19 24 -30 46 -11 21 -33 51 -48 66 l-29 28 121 124 c186 189 173 206 -134
172z"/>
<path d="M452 1434 c-24 -7 -100 -23 -170 -34 -156 -26 -160 -27 -172 -50 -12
-23 2 -65 24 -73 8 -3 65 4 125 16 61 11 113 19 116 16 3 -4 -9 -36 -26 -73
-27 -58 -31 -75 -27 -130 4 -62 19 -93 92 -191 27 -36 -48 -135 -157 -207 -46
-32 -82 -48 -102 -48 -40 0 -75 -25 -75 -54 0 -36 18 -44 105 -44 153 -1 389
-48 680 -137 174 -53 440 -114 584 -135 118 -17 387 -40 480 -40 104 0 329 37
354 58 10 9 17 26 15 40 -6 46 -25 48 -183 23 -128 -21 -165 -23 -284 -16 -75
4 -143 7 -151 7 -70 0 -413 60 -535 94 -33 9 -80 20 -105 25 -24 5 -105 27
-178 50 -145 43 -348 93 -426 104 -77 11 -78 13 -26 61 91 85 136 211 96 267
-9 12 -32 44 -51 71 -24 33 -35 59 -35 83 0 49 41 128 105 201 30 35 55 69 55
75 0 7 -7 23 -16 35 -17 25 -47 27 -112 6z"/>
</g>
</svg>
