<?xml version="1.0" standalone="no"?>
<!DOCTYPE svg PUBLIC "-//W3C//DTD SVG 20010904//EN"
 "http://www.w3.org/TR/2001/REC-SVG-20010904/DTD/svg10.dtd">
<svg version="1.0" xmlns="http://www.w3.org/2000/svg"
 width="248.000000pt" height="248.000000pt" viewBox="0 0 248.000000 248.000000"
 preserveAspectRatio="xMidYMid meet">
<metadata>
Created by potrace 1.10, written by Peter Selinger 2001-2011
</metadata>
<g transform="translate(0.000000,248.000000) scale(0.100000,-0.100000)"
fill="#000000" stroke="none">
<path d="M1110 2265 c-9 -11 -11 -37 -6 -95 4 -44 4 -99 1 -124 l-7 -44 -87
-12 c-216 -29 -254 -42 -249 -87 5 -44 25 -48 145 -30 59 10 194 26 298 37
322 34 379 46 388 80 3 10 -2 29 -11 41 -17 24 -10 24 -247 -5 -65 -8 -123
-12 -127 -10 -4 3 -8 53 -8 112 0 81 -4 113 -16 130 -17 25 -56 29 -74 7z"/>
</g>
</svg>
