<?xml version="1.0" standalone="no"?>
<!DOCTYPE svg PUBLIC "-//W3C//DTD SVG 20010904//EN"
 "http://www.w3.org/TR/2001/REC-SVG-20010904/DTD/svg10.dtd">
<svg version="1.0" xmlns="http://www.w3.org/2000/svg"
 width="248.000000pt" height="248.000000pt" viewBox="0 0 248.000000 248.000000"
 preserveAspectRatio="xMidYMid meet">
<metadata>
Created by potrace 1.10, written by Peter Selinger 2001-2011
</metadata>
<g transform="translate(0.000000,248.000000) scale(0.100000,-0.100000)"
fill="#000000" stroke="none">
<path d="M1746 2278 c-8 -13 -33 -71 -55 -130 -45 -122 -116 -266 -173 -350
-52 -78 -49 -128 9 -128 45 0 154 181 244 402 56 138 68 190 49 213 -19 22
-57 18 -74 -7z"/>
<path d="M1110 2265 c-9 -11 -11 -37 -6 -95 4 -44 4 -99 1 -124 l-7 -44 -87
-12 c-142 -19 -205 -32 -228 -46 -26 -17 -30 -55 -8 -74 16 -13 22 -13 213 15
63 9 115 15 117 13 12 -12 -114 -401 -210 -648 -49 -125 -119 -253 -203 -369
-37 -50 -40 -71 -14 -94 34 -31 59 -17 123 73 103 144 176 300 274 588 26 75
51 141 55 145 8 9 123 -10 153 -25 14 -7 17 -22 17 -77 0 -109 -28 -342 -51
-428 -21 -78 -117 -295 -136 -306 -6 -4 -29 22 -52 58 -44 68 -67 83 -101 65
-31 -17 -24 -58 25 -135 71 -114 82 -125 120 -125 30 0 40 7 74 53 44 58 118
208 149 302 44 132 56 220 56 440 l1 209 -32 22 c-18 12 -61 27 -96 34 -98 18
-95 14 -67 125 27 111 25 109 140 119 101 9 199 25 232 38 32 12 41 40 20 69
-17 24 -10 24 -247 -5 -65 -8 -123 -12 -127 -10 -4 3 -8 53 -8 112 0 81 -4
113 -16 130 -17 25 -56 29 -74 7z"/>
</g>
</svg>
