<?xml version="1.0" standalone="no"?>
<!DOCTYPE svg PUBLIC "-//W3C//DTD SVG 20010904//EN"
 "http://www.w3.org/TR/2001/REC-SVG-20010904/DTD/svg10.dtd">
<svg version="1.0" xmlns="http://www.w3.org/2000/svg"
 width="248.000000pt" height="248.000000pt" viewBox="0 0 248.000000 248.000000"
 preserveAspectRatio="xMidYMid meet">
<metadata>
Created by potrace 1.10, written by Peter Selinger 2001-2011
</metadata>
<g transform="translate(0.000000,248.000000) scale(0.100000,-0.100000)"
fill="#000000" stroke="none">
<path d="M1624 2384 c-14 -21 -18 -59 -22 -209 l-5 -183 -41 -10 c-22 -6 -108
-18 -191 -27 -199 -21 -211 -23 -225 -40 -18 -21 -8 -58 20 -72 29 -15 65 -12
282 19 81 12 150 20 152 17 3 -3 2 -53 -1 -111 l-6 -106 -41 -7 c-23 -3 -94
-15 -159 -25 -65 -10 -124 -23 -131 -29 -11 -9 -13 -93 -9 -469 3 -251 1 -499
-4 -550 -10 -107 -2 -135 39 -140 19 -2 31 3 42 20 21 33 36 217 36 445 l0
192 53 5 c28 4 135 15 237 27 102 11 194 22 205 24 11 2 38 6 60 9 l40 5 0
-380 c0 -365 1 -381 19 -395 25 -18 37 -18 62 0 18 14 19 36 27 538 9 578 4
739 -21 764 -13 14 -29 15 -91 10 -42 -4 -96 -11 -121 -16 -25 -5 -65 -11 -89
-14 l-43 -4 4 108 c2 60 8 114 13 119 6 5 78 19 160 31 315 44 325 47 325 90
0 48 -18 54 -133 42 -92 -10 -238 -31 -325 -47 l-34 -6 3 184 c4 199 0 217
-47 217 -14 0 -30 -10 -40 -26z m336 -948 l0 -163 -52 -6 c-29 -4 -109 -13
-178 -21 -206 -25 -360 -40 -364 -35 -3 2 -8 73 -12 156 l-7 152 34 5 c19 3
77 12 129 20 52 9 133 18 180 22 47 4 114 12 150 19 36 7 77 14 93 14 l27 1 0
-164z"/>
<path d="M718 2243 c-9 -10 -19 -28 -22 -41 -4 -12 -37 -62 -74 -112 -37 -49
-79 -109 -94 -132 -73 -116 -275 -375 -360 -463 -67 -69 -80 -99 -56 -123 7
-7 25 -12 42 -12 23 0 43 15 102 77 41 42 93 102 116 134 23 32 42 57 43 56 0
-1 -2 -321 -5 -712 -4 -493 -3 -718 4 -735 15 -35 60 -39 79 -8 22 34 27 189
29 937 l2 664 23 31 c12 17 48 69 79 116 31 47 74 106 95 131 66 80 96 168 67
197 -17 17 -53 15 -70 -5z"/>
</g>
</svg>
