<?xml version="1.0" standalone="no"?>
<!DOCTYPE svg PUBLIC "-//W3C//DTD SVG 20010904//EN"
 "http://www.w3.org/TR/2001/REC-SVG-20010904/DTD/svg10.dtd">
<svg version="1.0" xmlns="http://www.w3.org/2000/svg"
 width="248.000000pt" height="248.000000pt" viewBox="0 0 248.000000 248.000000"
 preserveAspectRatio="xMidYMid meet">
<metadata>
Created by potrace 1.10, written by Peter Selinger 2001-2011
</metadata>
<g transform="translate(0.000000,248.000000) scale(0.100000,-0.100000)"
fill="#000000" stroke="none">
<path d="M925 2129 c-138 -43 -498 -109 -597 -109 -50 0 -88 -24 -88 -55 0
-26 38 -55 73 -55 45 0 332 46 442 71 172 38 240 59 253 76 34 47 -18 92 -83
72z"/>
<path d="M915 1734 c-44 -7 -129 -20 -190 -29 -228 -32 -478 -91 -557 -131
-34 -18 -43 -46 -25 -81 18 -36 37 -133 48 -252 11 -123 22 -135 104 -128 33
3 89 13 125 21 36 9 146 29 244 46 99 17 182 33 184 35 3 2 14 -2 26 -10 25
-18 60 -19 73 -2 28 35 123 407 123 482 0 39 -22 66 -53 64 -12 -1 -58 -7
-102 -15z m30 -166 c-7 -35 -22 -104 -35 -155 l-23 -91 -36 -5 c-76 -10 -399
-68 -473 -86 l-76 -18 -6 46 c-4 25 -14 88 -23 139 -8 51 -13 96 -9 99 25 25
532 127 657 132 l36 1 -12 -62z"/>
<path d="M300 935 c-9 -11 -10 -31 -6 -68 4 -28 16 -117 26 -196 21 -152 33
-181 75 -181 38 0 48 23 40 92 -23 209 -44 331 -61 349 -21 23 -57 25 -74 4z"/>
</g>
</svg>
