<?xml version="1.0" standalone="no"?>
<!DOCTYPE svg PUBLIC "-//W3C//DTD SVG 20010904//EN"
 "http://www.w3.org/TR/2001/REC-SVG-20010904/DTD/svg10.dtd">
<svg version="1.0" xmlns="http://www.w3.org/2000/svg"
 width="248.000000pt" height="248.000000pt" viewBox="0 0 248.000000 248.000000"
 preserveAspectRatio="xMidYMid meet">
<metadata>
Created by potrace 1.10, written by Peter Selinger 2001-2011
</metadata>
<g transform="translate(0.000000,248.000000) scale(0.100000,-0.100000)"
fill="#000000" stroke="none">
<path d="M925 2129 c-138 -43 -498 -109 -597 -109 -50 0 -88 -24 -88 -55 0
-26 38 -55 73 -55 45 0 332 46 442 71 172 38 240 59 253 76 34 47 -18 92 -83
72z"/>
<path d="M915 1734 c-44 -7 -129 -20 -190 -29 -228 -32 -478 -91 -557 -131
-34 -18 -43 -46 -25 -81 18 -36 37 -133 48 -252 9 -101 24 -131 64 -131 41 0
49 23 42 118 -4 48 -14 122 -22 165 -8 43 -15 85 -15 92 0 32 351 108 652 142
l46 5 -10 -48 c-17 -90 -39 -178 -64 -262 -14 -46 -22 -92 -19 -103 7 -22 52
-36 73 -22 22 13 57 123 97 301 39 171 42 213 19 236 -18 18 -30 18 -139 0z"/>
</g>
</svg>
