<?xml version="1.0" standalone="no"?>
<!DOCTYPE svg PUBLIC "-//W3C//DTD SVG 20010904//EN"
 "http://www.w3.org/TR/2001/REC-SVG-20010904/DTD/svg10.dtd">
<svg version="1.0" xmlns="http://www.w3.org/2000/svg"
 width="248.000000pt" height="248.000000pt" viewBox="0 0 248.000000 248.000000"
 preserveAspectRatio="xMidYMid meet">
<metadata>
Created by potrace 1.10, written by Peter Selinger 2001-2011
</metadata>
<g transform="translate(0.000000,248.000000) scale(0.100000,-0.100000)"
fill="#000000" stroke="none">
<path d="M2055 2219 c-33 -5 -175 -20 -315 -34 -303 -30 -448 -55 -467 -81
-18 -25 -16 -41 8 -65 17 -17 28 -20 53 -14 143 32 236 42 236 26 0 -18 -119
-187 -156 -222 -22 -20 -51 -39 -66 -43 -15 -3 -35 -21 -48 -41 -19 -31 -21
-40 -10 -65 7 -16 10 -33 7 -37 -7 -11 -14 -162 -28 -578 -10 -303 -10 -344 4
-377 20 -47 47 -55 136 -39 58 10 233 28 474 48 71 5 79 4 101 -16 30 -29 67
-24 83 9 21 44 40 310 63 865 11 260 8 290 -36 301 -27 7 -251 -11 -399 -32
-55 -7 -113 -14 -128 -14 l-28 0 49 73 c27 39 61 96 77 125 16 29 33 56 39 62
11 8 356 49 429 50 21 0 57 35 57 55 0 21 -37 55 -57 54 -10 -1 -45 -5 -78
-10z m-25 -512 c0 -24 -3 -78 -6 -119 l-7 -75 -76 -7 c-247 -21 -313 -27 -376
-36 -38 -5 -94 -11 -122 -14 l-53 -5 1 67 c0 37 4 87 7 112 l7 45 55 12 c30 7
132 21 225 32 216 26 229 27 293 29 l52 2 0 -43z m-15 -399 c-4 -57 -9 -106
-11 -110 -5 -9 -101 -23 -359 -53 -121 -14 -230 -28 -242 -30 -23 -5 -23 -4
-23 102 0 60 4 113 8 119 9 13 233 40 517 63 55 5 104 9 108 10 5 0 5 -45 2
-101z m-19 -360 c-4 -73 -9 -135 -12 -137 -3 -3 -21 -6 -42 -7 -78 -2 -463
-39 -534 -51 l-38 -6 0 126 c0 69 4 128 8 131 8 5 72 14 262 37 134 17 313 37
339 38 l24 1 -7 -132z"/>
<path d="M925 2129 c-138 -43 -498 -109 -597 -109 -50 0 -88 -24 -88 -55 0
-26 38 -55 73 -55 45 0 332 46 442 71 172 38 240 59 253 76 34 47 -18 92 -83
72z"/>
<path d="M915 1734 c-44 -7 -129 -20 -190 -29 -228 -32 -478 -91 -557 -131
-34 -18 -43 -46 -25 -81 18 -36 37 -133 48 -252 11 -123 22 -135 104 -128 33
3 89 13 125 21 36 9 146 29 244 46 99 17 182 33 184 35 3 2 14 -2 26 -10 25
-18 60 -19 73 -2 28 35 123 407 123 482 0 39 -22 66 -53 64 -12 -1 -58 -7
-102 -15z m30 -166 c-7 -35 -22 -104 -35 -155 l-23 -91 -36 -5 c-76 -10 -399
-68 -473 -86 l-76 -18 -6 46 c-4 25 -14 88 -23 139 -8 51 -13 96 -9 99 25 25
532 127 657 132 l36 1 -12 -62z"/>
<path d="M827 1098 c-10 -8 -27 -54 -41 -110 -14 -53 -45 -141 -70 -196 -26
-54 -46 -105 -46 -112 0 -8 9 -24 21 -36 l21 -22 -45 -26 c-24 -14 -86 -43
-138 -64 l-94 -39 -2 71 c-1 39 -11 133 -22 209 -20 146 -34 177 -76 177 -37
0 -48 -24 -41 -83 4 -28 16 -117 26 -197 19 -140 20 -146 51 -172 l31 -26 -88
-42 c-245 -115 -263 -127 -249 -171 4 -11 17 -25 29 -30 23 -11 98 22 326 140
41 22 111 53 154 71 75 29 298 149 356 190 34 24 42 52 23 79 -20 29 -43 26
-113 -15 -34 -20 -63 -34 -65 -32 -2 2 16 48 41 102 47 104 98 284 88 311 -6
15 -35 35 -51 35 -5 0 -17 -6 -26 -12z"/>
<path d="M1780 636 c-22 -28 -7 -59 40 -85 48 -26 327 -300 357 -351 41 -70
118 -42 99 36 -7 28 -174 204 -313 330 -83 75 -97 84 -132 84 -21 0 -44 -6
-51 -14z"/>
<path d="M1424 598 c-11 -13 -47 -61 -80 -107 -32 -47 -98 -124 -146 -171 -95
-93 -105 -118 -63 -146 30 -20 38 -16 134 72 54 50 113 121 226 273 30 41 31
62 7 84 -26 23 -55 21 -78 -5z"/>
</g>
</svg>
