<?xml version="1.0" standalone="no"?>
<!DOCTYPE svg PUBLIC "-//W3C//DTD SVG 20010904//EN"
 "http://www.w3.org/TR/2001/REC-SVG-20010904/DTD/svg10.dtd">
<svg version="1.0" xmlns="http://www.w3.org/2000/svg"
 width="248.000000pt" height="248.000000pt" viewBox="0 0 248.000000 248.000000"
 preserveAspectRatio="xMidYMid meet">
<metadata>
Created by potrace 1.10, written by Peter Selinger 2001-2011
</metadata>
<g transform="translate(0.000000,248.000000) scale(0.100000,-0.100000)"
fill="#000000" stroke="none">
<path d="M582 2218 c-8 -8 -12 -63 -12 -182 0 -94 -4 -176 -8 -183 -4 -6 -25
-14 -47 -18 -186 -33 -354 -69 -373 -81 -17 -11 -22 -23 -20 -42 5 -42 35 -51
123 -34 41 8 77 13 79 11 2 -2 8 -87 13 -189 5 -102 12 -192 16 -200 6 -12
-19 -22 -130 -53 -155 -43 -183 -57 -183 -90 0 -57 33 -59 206 -12 71 20 168
45 215 55 47 11 93 22 102 26 15 6 17 -6 17 -123 l0 -129 -42 -12 c-24 -7
-101 -28 -173 -46 -207 -54 -254 -82 -225 -136 16 -31 54 -35 102 -11 35 16
186 60 306 88 l22 5 -1 -228 c0 -126 -4 -294 -9 -374 -7 -120 -6 -149 6 -168
19 -30 59 -29 79 2 19 29 34 289 35 593 0 111 4 204 9 207 4 3 70 21 146 40
75 20 143 41 151 47 22 18 17 57 -10 74 -23 15 -32 14 -142 -14 -64 -17 -123
-31 -130 -31 -11 0 -14 27 -14 125 l0 124 38 10 c20 5 98 22 172 36 148 30
180 44 180 78 0 50 -45 59 -159 32 -35 -9 -65 -14 -67 -12 -2 2 3 44 10 93 8
49 17 118 21 154 13 144 10 138 68 149 29 6 78 13 111 17 83 9 115 44 82 89
-19 26 -60 23 -278 -15 -95 -16 -177 -30 -183 -30 -6 0 -10 59 -10 164 0 147
-2 166 -19 185 -21 23 -56 27 -74 9z m204 -525 c-9 -94 -22 -189 -38 -261 -11
-50 -13 -53 -52 -62 -23 -6 -81 -22 -129 -35 -48 -14 -94 -25 -101 -25 -14 0
-26 144 -26 317 l0 92 43 6 c23 3 94 14 157 24 170 27 153 34 146 -56z"/>
</g>
</svg>
