<?xml version="1.0" standalone="no"?>
<!DOCTYPE svg PUBLIC "-//W3C//DTD SVG 20010904//EN"
 "http://www.w3.org/TR/2001/REC-SVG-20010904/DTD/svg10.dtd">
<svg version="1.0" xmlns="http://www.w3.org/2000/svg"
 width="248.000000pt" height="248.000000pt" viewBox="0 0 248.000000 248.000000"
 preserveAspectRatio="xMidYMid meet">
<metadata>
Created by potrace 1.10, written by Peter Selinger 2001-2011
</metadata>
<g transform="translate(0.000000,248.000000) scale(0.100000,-0.100000)"
fill="#000000" stroke="none">
<path d="M582 2218 c-8 -8 -12 -63 -12 -182 0 -94 -4 -176 -8 -183 -4 -6 -25
-14 -47 -18 -186 -33 -354 -69 -373 -81 -17 -11 -22 -23 -20 -42 5 -42 35 -51
123 -34 41 8 77 13 79 11 2 -2 7 -86 11 -187 7 -159 10 -186 27 -207 22 -29
50 -32 73 -9 14 14 15 41 9 225 -4 115 -4 209 -1 209 16 0 299 43 422 65 77
13 166 27 199 31 83 9 115 44 82 89 -19 26 -60 23 -278 -15 -95 -16 -177 -30
-183 -30 -6 0 -10 59 -10 164 0 147 -2 166 -19 185 -21 23 -56 27 -74 9z"/>
</g>
</svg>
