<?xml version="1.0" standalone="no"?>
<!DOCTYPE svg PUBLIC "-//W3C//DTD SVG 20010904//EN"
 "http://www.w3.org/TR/2001/REC-SVG-20010904/DTD/svg10.dtd">
<svg version="1.0" xmlns="http://www.w3.org/2000/svg"
 width="248.000000pt" height="248.000000pt" viewBox="0 0 248.000000 248.000000"
 preserveAspectRatio="xMidYMid meet">
<metadata>
Created by potrace 1.10, written by Peter Selinger 2001-2011
</metadata>
<g transform="translate(0.000000,248.000000) scale(0.100000,-0.100000)"
fill="#000000" stroke="none">
<path d="M582 2218 c-8 -8 -12 -63 -12 -182 0 -94 -4 -176 -8 -183 -4 -6 -25
-14 -47 -18 -185 -32 -354 -69 -372 -81 -43 -27 -22 -87 30 -86 12 0 83 12
157 27 74 14 207 37 295 50 88 14 209 34 270 44 60 11 136 23 169 27 83 9 115
44 82 89 -19 26 -60 23 -278 -15 -95 -16 -177 -30 -183 -30 -6 0 -10 59 -10
164 0 147 -2 166 -19 185 -21 23 -56 27 -74 9z"/>
</g>
</svg>
