<?xml version="1.0" standalone="no"?>
<!DOCTYPE svg PUBLIC "-//W3C//DTD SVG 20010904//EN"
 "http://www.w3.org/TR/2001/REC-SVG-20010904/DTD/svg10.dtd">
<svg version="1.0" xmlns="http://www.w3.org/2000/svg"
 width="248.000000pt" height="248.000000pt" viewBox="0 0 248.000000 248.000000"
 preserveAspectRatio="xMidYMid meet">
<metadata>
Created by potrace 1.10, written by Peter Selinger 2001-2011
</metadata>
<g transform="translate(0.000000,248.000000) scale(0.100000,-0.100000)"
fill="#000000" stroke="none">
<path d="M1925 2263 c-22 -2 -123 -13 -225 -24 -182 -20 -354 -36 -620 -58
-74 -6 -169 -16 -210 -21 -41 -6 -116 -10 -165 -10 -66 0 -97 -4 -113 -16 -30
-21 -29 -59 3 -80 28 -19 109 -17 390 10 88 8 221 20 295 26 74 6 185 17 245
25 61 8 162 19 225 25 328 32 350 37 350 83 0 46 -33 53 -175 40z"/>
</g>
</svg>
