<?xml version="1.0" standalone="no"?>
<!DOCTYPE svg PUBLIC "-//W3C//DTD SVG 20010904//EN"
 "http://www.w3.org/TR/2001/REC-SVG-20010904/DTD/svg10.dtd">
<svg version="1.0" xmlns="http://www.w3.org/2000/svg"
 width="248.000000pt" height="248.000000pt" viewBox="0 0 248.000000 248.000000"
 preserveAspectRatio="xMidYMid meet">
<metadata>
Created by potrace 1.10, written by Peter Selinger 2001-2011
</metadata>
<g transform="translate(0.000000,248.000000) scale(0.100000,-0.100000)"
fill="#000000" stroke="none">
<path d="M1925 2263 c-22 -2 -123 -13 -225 -24 -102 -11 -255 -26 -340 -34
-85 -7 -177 -16 -205 -19 -86 -11 -304 -28 -446 -35 -92 -4 -141 -10 -152 -20
-14 -11 -17 -36 -18 -150 0 -154 -13 -377 -28 -496 -53 -427 -72 -540 -116
-703 -37 -139 -119 -391 -141 -434 -27 -53 -13 -98 31 -98 46 0 70 49 164 340
68 213 109 417 151 765 11 94 25 204 30 245 5 41 12 157 16 256 l7 182 86 5
c47 3 158 13 246 21 88 8 221 20 295 26 74 6 185 17 245 25 61 8 162 19 225
25 328 32 350 37 350 83 0 46 -33 53 -175 40z"/>
</g>
</svg>
