<?xml version="1.0" standalone="no"?>
<!DOCTYPE svg PUBLIC "-//W3C//DTD SVG 20010904//EN"
 "http://www.w3.org/TR/2001/REC-SVG-20010904/DTD/svg10.dtd">
<svg version="1.0" xmlns="http://www.w3.org/2000/svg"
 width="248.000000pt" height="248.000000pt" viewBox="0 0 248.000000 248.000000"
 preserveAspectRatio="xMidYMid meet">
<metadata>
Created by potrace 1.10, written by Peter Selinger 2001-2011
</metadata>
<g transform="translate(0.000000,248.000000) scale(0.100000,-0.100000)"
fill="#000000" stroke="none">
<path d="M1835 2354 c-66 -4 -232 -18 -400 -36 -94 -10 -112 -15 -133 -35 -24
-24 -25 -27 -18 -133 4 -60 11 -123 16 -142 6 -18 10 -61 10 -95 0 -67 20
-103 58 -103 22 0 499 38 579 46 94 10 95 11 105 155 13 177 8 304 -14 326
-19 18 -83 23 -203 17z m112 -245 c-3 -77 -7 -142 -9 -144 -4 -4 -512 -45
-515 -41 -6 6 -33 204 -33 243 l0 41 68 7 c37 3 112 10 167 16 96 9 156 13
274 17 l54 2 -6 -141z"/>
<path d="M526 2308 c-14 -20 -15 -51 -10 -255 l7 -232 -24 -5 c-54 -13 -178
-38 -234 -48 -33 -5 -70 -17 -82 -24 -25 -16 -30 -53 -11 -72 17 -17 92 -15
183 7 44 11 101 22 128 26 l47 7 0 -58 c0 -33 3 -136 7 -229 l6 -171 -64 -29
c-35 -15 -102 -41 -149 -57 -104 -36 -130 -52 -130 -81 0 -30 18 -47 51 -47
27 0 211 61 262 87 l27 14 0 -402 0 -402 -30 38 c-16 21 -30 41 -30 44 0 3
-20 27 -44 54 -46 49 -74 58 -100 31 -23 -23 -20 -48 12 -85 28 -34 61 -80
136 -191 46 -68 74 -86 114 -74 45 15 47 33 50 542 l3 481 51 24 c70 33 98 56
98 83 0 48 -45 59 -109 26 l-38 -19 -7 132 c-3 73 -7 172 -7 222 l-2 89 29 8
c16 4 62 12 103 18 80 11 111 29 111 65 0 31 -19 45 -60 45 -34 0 -135 -15
-171 -26 -14 -4 -17 20 -23 213 -5 131 -12 228 -19 243 -17 34 -60 39 -81 8z"/>
<path d="M1024 1665 c-14 -21 -16 -43 -10 -133 12 -218 23 -322 36 -337 7 -8
25 -15 40 -15 47 0 53 19 46 133 -4 56 -10 156 -14 223 -5 79 -12 127 -21 137
-20 25 -58 21 -77 -8z"/>
</g>
</svg>
