<?xml version="1.0" standalone="no"?>
<!DOCTYPE svg PUBLIC "-//W3C//DTD SVG 20010904//EN"
 "http://www.w3.org/TR/2001/REC-SVG-20010904/DTD/svg10.dtd">
<svg version="1.0" xmlns="http://www.w3.org/2000/svg"
 width="248.000000pt" height="248.000000pt" viewBox="0 0 248.000000 248.000000"
 preserveAspectRatio="xMidYMid meet">
<metadata>
Created by potrace 1.10, written by Peter Selinger 2001-2011
</metadata>
<g transform="translate(0.000000,248.000000) scale(0.100000,-0.100000)"
fill="#000000" stroke="none">
<path d="M526 2308 c-14 -20 -15 -51 -10 -255 l7 -232 -24 -5 c-54 -13 -178
-38 -234 -48 -33 -5 -70 -17 -82 -24 -25 -16 -30 -53 -11 -72 17 -17 92 -15
183 7 44 11 101 22 126 26 l46 7 6 -174 c4 -95 7 -404 7 -687 l0 -514 -30 38
c-16 21 -30 41 -30 44 0 3 -20 27 -44 54 -46 49 -74 58 -100 31 -23 -23 -20
-48 12 -85 28 -34 61 -80 136 -191 46 -68 74 -86 114 -74 46 15 47 34 47 681
0 336 -2 675 -4 755 l-3 144 28 8 c16 4 62 12 103 18 80 11 111 29 111 65 0
31 -19 45 -60 45 -34 0 -135 -15 -171 -26 -14 -4 -17 20 -23 213 -5 131 -12
228 -19 243 -17 34 -60 39 -81 8z"/>
</g>
</svg>
