<?xml version="1.0" standalone="no"?>
<!DOCTYPE svg PUBLIC "-//W3C//DTD SVG 20010904//EN"
 "http://www.w3.org/TR/2001/REC-SVG-20010904/DTD/svg10.dtd">
<svg version="1.0" xmlns="http://www.w3.org/2000/svg"
 width="248.000000pt" height="248.000000pt" viewBox="0 0 248.000000 248.000000"
 preserveAspectRatio="xMidYMid meet">
<metadata>
Created by potrace 1.10, written by Peter Selinger 2001-2011
</metadata>
<g transform="translate(0.000000,248.000000) scale(0.100000,-0.100000)"
fill="#000000" stroke="none">
<path d="M860 2229 c-30 -5 -134 -18 -230 -30 -196 -24 -308 -45 -328 -61 -22
-19 -10 -61 22 -77 26 -12 39 -12 100 2 63 14 141 25 409 55 37 5 67 6 67 3 0
-3 -33 -31 -72 -61 -40 -30 -105 -84 -146 -119 l-74 -63 -30 36 c-30 37 -64
46 -86 24 -27 -27 -6 -81 78 -203 15 -22 39 -64 54 -92 28 -57 58 -73 95 -53
29 15 26 39 -15 123 l-37 73 28 28 c28 28 198 168 269 222 22 18 60 52 84 77
51 52 55 92 12 114 -27 14 -115 15 -200 2z"/>
</g>
</svg>
