<?xml version="1.0" standalone="no"?>
<!DOCTYPE svg PUBLIC "-//W3C//DTD SVG 20010904//EN"
 "http://www.w3.org/TR/2001/REC-SVG-20010904/DTD/svg10.dtd">
<svg version="1.0" xmlns="http://www.w3.org/2000/svg"
 width="248.000000pt" height="248.000000pt" viewBox="0 0 248.000000 248.000000"
 preserveAspectRatio="xMidYMid meet">
<metadata>
Created by potrace 1.10, written by Peter Selinger 2001-2011
</metadata>
<g transform="translate(0.000000,248.000000) scale(0.100000,-0.100000)"
fill="#000000" stroke="none">
<path d="M860 2229 c-30 -5 -134 -18 -230 -30 -196 -24 -308 -45 -328 -61 -22
-19 -10 -61 22 -77 26 -12 39 -12 100 2 63 14 141 25 409 55 37 5 67 6 67 4 0
-6 -3 -8 -110 -91 -46 -35 -114 -93 -152 -129 -60 -57 -69 -69 -66 -96 2 -23
10 -33 30 -40 24 -8 33 -4 83 40 77 67 210 177 270 223 90 70 137 125 133 157
-2 18 -12 33 -28 41 -27 14 -115 15 -200 2z"/>
</g>
</svg>
