<?xml version="1.0" standalone="no"?>
<!DOCTYPE svg PUBLIC "-//W3C//DTD SVG 20010904//EN"
 "http://www.w3.org/TR/2001/REC-SVG-20010904/DTD/svg10.dtd">
<svg version="1.0" xmlns="http://www.w3.org/2000/svg"
 width="248.000000pt" height="248.000000pt" viewBox="0 0 248.000000 248.000000"
 preserveAspectRatio="xMidYMid meet">
<metadata>
Created by potrace 1.10, written by Peter Selinger 2001-2011
</metadata>
<g transform="translate(0.000000,248.000000) scale(0.100000,-0.100000)"
fill="#000000" stroke="none">
<path d="M1895 2264 c-27 -2 -86 -9 -130 -14 -130 -16 -386 -40 -435 -40 -64
0 -95 -18 -95 -55 0 -45 32 -57 135 -50 47 3 102 9 123 12 l39 6 -22 -44 c-13
-24 -56 -87 -98 -139 -77 -98 -90 -106 -163 -109 -68 -2 -68 -5 -48 -271 6
-80 14 -305 18 -501 6 -379 8 -389 56 -389 12 0 30 8 39 19 15 17 17 48 13
337 -2 176 -9 404 -16 507 -7 103 -11 191 -8 194 3 3 61 16 129 28 128 24 370
45 509 45 l80 0 -5 -47 c-3 -27 -8 -276 -11 -556 -7 -525 -4 -571 33 -579 34
-8 52 5 62 41 5 20 14 298 18 626 7 483 6 593 -4 604 -8 9 -39 17 -75 19 -68
5 -419 -15 -489 -28 -25 -5 -47 -7 -48 -5 -2 2 14 27 36 57 50 67 92 146 92
174 0 16 8 23 29 27 32 7 286 25 404 30 64 2 82 6 93 22 18 24 18 36 0 61 -12
16 -28 19 -113 20 -54 1 -120 0 -148 -2z"/>
<path d="M860 2229 c-30 -5 -134 -18 -230 -30 -196 -24 -308 -45 -328 -61 -22
-19 -10 -61 22 -77 26 -12 39 -12 100 2 63 14 141 25 409 55 37 5 67 6 67 3 0
-3 -33 -31 -72 -61 -40 -30 -105 -84 -146 -119 l-74 -63 -30 36 c-30 37 -64
46 -86 24 -21 -21 -13 -57 30 -126 96 -156 108 -176 108 -183 0 -4 -26 -12
-57 -18 -32 -6 -96 -20 -143 -30 -47 -11 -116 -24 -155 -31 -38 -6 -80 -18
-92 -26 -30 -19 -30 -59 -1 -78 20 -12 37 -11 133 5 61 11 124 23 140 28 58
18 301 60 385 66 l85 7 -30 -33 c-16 -17 -75 -68 -130 -112 l-100 -80 -5 55
c-6 62 -22 88 -56 88 -54 0 -54 1 -54 -578 0 -597 5 -566 -67 -455 -18 29 -45
60 -58 69 -23 15 -27 15 -50 0 -14 -9 -25 -25 -25 -35 0 -54 210 -301 256
-301 26 0 54 24 54 48 0 9 0 239 0 510 -1 480 0 492 19 492 10 0 37 15 59 33
22 17 73 58 114 89 40 32 118 102 172 157 83 85 97 103 91 123 -13 43 -33 50
-120 43 -44 -3 -118 -9 -164 -13 -57 -5 -88 -4 -95 4 -6 6 -24 38 -40 71 l-28
60 27 27 c28 28 198 169 269 222 22 18 60 52 84 77 51 52 55 92 12 114 -27 14
-115 15 -200 2z"/>
</g>
</svg>
