<?xml version="1.0" standalone="no"?>
<!DOCTYPE svg PUBLIC "-//W3C//DTD SVG 20010904//EN"
 "http://www.w3.org/TR/2001/REC-SVG-20010904/DTD/svg10.dtd">
<svg version="1.0" xmlns="http://www.w3.org/2000/svg"
 width="248.000000pt" height="248.000000pt" viewBox="0 0 248.000000 248.000000"
 preserveAspectRatio="xMidYMid meet">
<metadata>
Created by potrace 1.10, written by Peter Selinger 2001-2011
</metadata>
<g transform="translate(0.000000,248.000000) scale(0.100000,-0.100000)"
fill="#000000" stroke="none">
<path d="M1293 2198 c-6 -7 -13 -42 -16 -78 -3 -36 -14 -146 -23 -245 -26
-262 -27 -1027 -1 -1163 21 -114 50 -174 114 -233 115 -107 300 -159 575 -159
169 0 328 42 397 106 l36 32 5 114 c3 62 4 123 2 136 -7 46 -76 53 -87 9 -3
-12 -7 -64 -8 -114 -3 -102 -6 -108 -77 -139 -43 -19 -218 -54 -269 -54 -57 0
-260 29 -321 46 -152 43 -237 121 -262 239 -29 141 -51 571 -32 642 3 12 16
24 27 27 45 11 288 157 432 259 309 218 435 320 435 351 0 29 -18 46 -51 46
-28 0 -46 -12 -151 -102 -37 -31 -102 -80 -145 -109 -43 -29 -117 -81 -165
-116 -48 -35 -151 -102 -230 -149 l-143 -84 -4 47 c-3 46 10 238 30 430 13
129 12 246 -3 261 -16 16 -53 15 -65 0z"/>
<path d="M740 2170 c-11 -11 -20 -29 -20 -40 0 -11 -16 -60 -36 -108 -20 -48
-47 -115 -60 -150 -92 -243 -233 -470 -422 -680 -71 -78 -83 -96 -78 -117 9
-35 50 -43 84 -18 15 11 65 63 112 116 l85 97 8 -67 c11 -87 1 -585 -14 -723
-17 -147 -16 -170 6 -186 25 -19 41 -18 64 5 15 15 21 42 27 127 11 135 12
886 1 934 -6 32 -2 44 44 115 59 94 122 220 177 360 22 55 53 134 70 175 44
110 47 135 23 159 -26 26 -46 26 -71 1z"/>
</g>
</svg>
