<?xml version="1.0" standalone="no"?>
<!DOCTYPE svg PUBLIC "-//W3C//DTD SVG 20010904//EN"
 "http://www.w3.org/TR/2001/REC-SVG-20010904/DTD/svg10.dtd">
<svg version="1.0" xmlns="http://www.w3.org/2000/svg"
 width="248.000000pt" height="248.000000pt" viewBox="0 0 248.000000 248.000000"
 preserveAspectRatio="xMidYMid meet">
<metadata>
Created by potrace 1.10, written by Peter Selinger 2001-2011
</metadata>
<g transform="translate(0.000000,248.000000) scale(0.100000,-0.100000)"
fill="#000000" stroke="none">
<path d="M850 2185 c-13 -16 -24 -35 -74 -126 -15 -29 -36 -64 -46 -79 -9 -14
-43 -72 -75 -130 -32 -58 -72 -125 -90 -150 -17 -25 -44 -67 -60 -95 -57 -98
-177 -256 -296 -388 -43 -48 -79 -96 -79 -107 0 -25 26 -50 52 -50 26 0 103
78 213 213 119 146 284 398 392 597 10 19 45 79 76 133 61 103 78 156 57 182
-16 19 -54 19 -70 0z"/>
</g>
</svg>
