<?xml version="1.0" standalone="no"?>
<!DOCTYPE svg PUBLIC "-//W3C//DTD SVG 20010904//EN"
 "http://www.w3.org/TR/2001/REC-SVG-20010904/DTD/svg10.dtd">
<svg version="1.0" xmlns="http://www.w3.org/2000/svg"
 width="248.000000pt" height="248.000000pt" viewBox="0 0 248.000000 248.000000"
 preserveAspectRatio="xMidYMid meet">
<metadata>
Created by potrace 1.10, written by Peter Selinger 2001-2011
</metadata>
<g transform="translate(0.000000,248.000000) scale(0.100000,-0.100000)"
fill="#000000" stroke="none">
<path d="M1436 2198 c-13 -18 -16 -55 -16 -200 0 -176 0 -178 -22 -182 -61
-12 -260 -36 -304 -36 -58 0 -94 -21 -94 -55 0 -45 38 -59 140 -51 l89 7 15
-50 c8 -27 20 -85 26 -128 6 -43 16 -100 21 -127 5 -27 8 -50 7 -52 -3 -2
-105 -11 -403 -35 -157 -13 -188 -24 -183 -67 5 -46 39 -54 170 -42 62 6 192
18 288 26 163 13 355 30 610 54 58 6 200 14 315 19 220 10 259 17 270 50 8 26
-10 61 -33 62 -51 4 -291 -3 -377 -11 -55 -5 -138 -12 -184 -15 l-83 -7 46 64
c63 85 125 214 139 286 l11 59 99 11 c108 12 147 29 147 66 0 51 -11 52 -283
22 -139 -15 -267 -30 -284 -33 l-33 -5 0 174 c0 189 -7 218 -55 218 -13 0 -31
-10 -39 -22z m331 -482 c-12 -74 -79 -194 -159 -283 -21 -24 -38 -51 -38 -62
0 -25 -19 -31 -100 -31 l-69 0 -6 48 c-8 64 -45 252 -57 281 -4 13 -6 26 -3
29 5 6 352 48 409 51 27 1 28 -1 23 -33z"/>
<path d="M850 2185 c-13 -16 -24 -35 -74 -126 -15 -29 -36 -64 -46 -79 -9 -14
-47 -77 -82 -140 -148 -262 -271 -437 -439 -623 -80 -89 -91 -113 -63 -141 28
-28 55 -18 113 42 47 48 170 193 225 267 14 18 15 -12 15 -295 0 -316 -6 -460
-30 -753 -9 -112 -10 -163 -3 -175 14 -22 67 -27 83 -9 6 9 16 77 22 158 5 79
14 173 20 209 6 36 13 290 16 565 5 497 5 500 28 530 21 29 112 181 152 255
10 19 45 79 76 133 61 103 78 156 57 182 -16 19 -54 19 -70 0z"/>
</g>
</svg>
