<?xml version="1.0" standalone="no"?>
<!DOCTYPE svg PUBLIC "-//W3C//DTD SVG 20010904//EN"
 "http://www.w3.org/TR/2001/REC-SVG-20010904/DTD/svg10.dtd">
<svg version="1.0" xmlns="http://www.w3.org/2000/svg"
 width="248.000000pt" height="248.000000pt" viewBox="0 0 248.000000 248.000000"
 preserveAspectRatio="xMidYMid meet">
<metadata>
Created by potrace 1.10, written by Peter Selinger 2001-2011
</metadata>
<g transform="translate(0.000000,248.000000) scale(0.100000,-0.100000)"
fill="#000000" stroke="none">
<path d="M1575 2363 c-70 -2 -158 -8 -455 -29 -247 -17 -512 -60 -557 -89 -32
-22 -38 -59 -19 -118 9 -29 29 -99 45 -157 16 -58 36 -125 45 -150 9 -25 16
-54 16 -65 0 -11 7 -31 16 -44 18 -25 12 -25 134 3 67 15 278 41 410 51 41 3
140 10 220 15 149 11 366 8 410 -4 44 -13 74 24 154 188 143 294 151 374 40
392 -43 6 -320 11 -459 7z m388 -100 c38 -6 39 -6 32 -42 -7 -39 -141 -322
-156 -332 -5 -3 -100 -6 -210 -7 l-200 -1 6 67 c6 66 22 209 29 267 3 17 5 33
5 37 2 14 418 23 494 11z m-601 -43 c-25 -250 -33 -313 -42 -330 -7 -12 -21
-20 -38 -20 -15 -1 -66 -3 -114 -6 l-87 -6 2 180 c1 99 5 183 8 187 4 3 47 9
95 12 49 3 91 8 94 10 2 2 22 3 45 1 36 -3 40 -5 37 -28z m-377 -190 l0 -184
-115 -18 c-63 -9 -118 -17 -121 -18 -6 0 -49 132 -77 240 -34 131 -37 117 27
131 100 21 215 38 251 36 l35 -2 0 -185z"/>
<path d="M1567 1654 c-1 -1 -69 -5 -152 -8 -212 -8 -491 -35 -553 -52 -64 -18
-97 -47 -87 -77 17 -58 21 -168 21 -510 -1 -331 -3 -376 -19 -406 -22 -44 -22
-74 2 -95 21 -19 18 -19 149 -10 l94 7 -20 -40 c-19 -37 -87 -108 -160 -168
-18 -15 -79 -53 -135 -84 -93 -52 -102 -60 -105 -89 -3 -26 1 -34 20 -41 32
-12 65 0 170 62 168 100 310 243 328 331 l6 31 89 7 c89 6 391 19 451 18 17 0
36 6 43 13 7 10 12 153 14 483 2 258 5 474 7 479 1 6 2 36 1 67 -1 48 -4 59
-23 69 -18 10 -133 20 -141 13z m65 -200 c-2 -74 -7 -102 -18 -111 -10 -7 -64
-12 -147 -13 -73 -1 -163 -3 -202 -5 -198 -8 -332 -17 -347 -21 -20 -6 -19 -6
-23 51 -8 108 -8 135 -3 140 7 7 105 22 193 29 39 3 126 10 195 16 126 11 269
17 325 15 l30 -1 -3 -100z m-22 -224 c16 -9 18 -22 18 -99 0 -73 -3 -91 -16
-96 -9 -3 -82 -8 -162 -10 -80 -3 -183 -7 -230 -10 -47 -2 -139 -7 -205 -11
l-120 -6 -2 96 c-2 94 -1 97 23 106 23 9 281 27 474 33 47 2 111 4 143 5 32 1
67 -2 77 -8z m-7 -309 c25 -10 25 -10 26 -138 0 -70 -3 -133 -7 -140 -8 -13
-107 -23 -277 -28 -60 -2 -190 -7 -288 -11 l-178 -6 6 25 c4 14 8 81 8 149 l2
123 45 6 c25 4 126 10 225 14 99 4 181 8 182 9 8 7 235 5 256 -3z"/>
</g>
</svg>
