<?xml version="1.0" standalone="no"?>
<!DOCTYPE svg PUBLIC "-//W3C//DTD SVG 20010904//EN"
 "http://www.w3.org/TR/2001/REC-SVG-20010904/DTD/svg10.dtd">
<svg version="1.0" xmlns="http://www.w3.org/2000/svg"
 width="248.000000pt" height="248.000000pt" viewBox="0 0 248.000000 248.000000"
 preserveAspectRatio="xMidYMid meet">
<metadata>
Created by potrace 1.10, written by Peter Selinger 2001-2011
</metadata>
<g transform="translate(0.000000,248.000000) scale(0.100000,-0.100000)"
fill="#000000" stroke="none">
<path d="M1575 2363 c-70 -2 -158 -8 -455 -29 -247 -17 -512 -60 -557 -89 -32
-22 -38 -59 -19 -118 9 -29 30 -99 46 -157 16 -58 35 -127 43 -155 8 -27 18
-62 21 -77 8 -36 41 -54 72 -39 33 15 32 66 -6 183 -32 101 -80 281 -75 286 1
1 47 11 101 21 97 19 234 34 404 46 47 4 132 11 190 16 145 13 540 23 607 14
l55 -7 -7 -36 c-8 -45 -135 -311 -170 -356 -30 -39 -31 -57 -7 -79 49 -45 87
-7 176 177 143 294 151 374 40 392 -43 6 -320 11 -459 7z"/>
</g>
</svg>
