<?xml version="1.0" standalone="no"?>
<!DOCTYPE svg PUBLIC "-//W3C//DTD SVG 20010904//EN"
 "http://www.w3.org/TR/2001/REC-SVG-20010904/DTD/svg10.dtd">
<svg version="1.0" xmlns="http://www.w3.org/2000/svg"
 width="248.000000pt" height="248.000000pt" viewBox="0 0 248.000000 248.000000"
 preserveAspectRatio="xMidYMid meet">
<metadata>
Created by potrace 1.10, written by Peter Selinger 2001-2011
</metadata>
<g transform="translate(0.000000,248.000000) scale(0.100000,-0.100000)"
fill="#000000" stroke="none">
<path d="M1174 2426 c-17 -13 -19 -26 -17 -138 2 -68 0 -133 -2 -145 -6 -27
-12 -28 -240 -43 -93 -6 -199 -15 -235 -20 -36 -5 -90 -12 -120 -15 -60 -6
-90 -26 -90 -60 0 -45 17 -47 177 -30 169 19 495 44 505 38 9 -4 7 -298 -2
-312 -9 -16 -36 -20 -179 -26 -70 -3 -135 -8 -146 -12 -50 -14 -72 -66 -40
-93 11 -9 34 -10 97 -1 46 5 133 13 193 16 120 6 263 19 423 37 100 11 132 23
132 51 -1 43 -42 55 -153 44 -51 -5 -121 -10 -157 -11 l-65 -1 -3 152 c-3 140
-2 152 15 162 11 5 93 12 184 16 90 3 173 8 184 10 18 3 222 15 348 20 73 3
76 4 87 25 15 27 4 59 -24 70 -13 4 -151 0 -326 -10 -168 -10 -341 -20 -385
-21 l-80 -2 0 142 c0 129 -2 144 -20 157 -24 18 -36 18 -61 0z"/>
</g>
</svg>
