<?xml version="1.0" standalone="no"?>
<!DOCTYPE svg PUBLIC "-//W3C//DTD SVG 20010904//EN"
 "http://www.w3.org/TR/2001/REC-SVG-20010904/DTD/svg10.dtd">
<svg version="1.0" xmlns="http://www.w3.org/2000/svg"
 width="248.000000pt" height="248.000000pt" viewBox="0 0 248.000000 248.000000"
 preserveAspectRatio="xMidYMid meet">
<metadata>
Created by potrace 1.10, written by Peter Selinger 2001-2011
</metadata>
<g transform="translate(0.000000,248.000000) scale(0.100000,-0.100000)"
fill="#000000" stroke="none">
<path d="M1174 2426 c-17 -13 -19 -26 -17 -155 2 -82 -1 -143 -7 -146 -12 -7
-47 -11 -245 -25 -82 -6 -181 -15 -220 -20 -38 -5 -95 -12 -125 -15 -60 -6
-90 -26 -90 -60 0 -45 17 -47 177 -30 175 20 495 44 506 38 10 -6 9 -295 -1
-311 -11 -17 -28 -19 -172 -26 -68 -4 -135 -9 -149 -13 -36 -8 -61 -32 -61
-58 0 -42 20 -48 122 -36 51 6 196 18 321 27 352 25 416 37 417 81 0 16 -28
43 -48 44 -34 3 -128 -3 -167 -10 -22 -4 -67 -7 -100 -6 l-60 0 -3 152 c-3
138 -2 152 15 161 10 6 122 15 248 22 127 6 247 13 268 15 21 2 79 4 130 6 50
1 104 4 120 6 51 9 60 75 13 93 -13 5 -119 3 -252 -5 -312 -19 -409 -24 -479
-27 l-60 -2 -1 143 c0 129 -2 145 -19 157 -24 18 -36 18 -61 0z"/>
<path d="M1664 1488 c-126 -9 -332 -24 -459 -33 -228 -16 -357 -31 -530 -59
-49 -8 -142 -22 -205 -32 -71 -10 -122 -23 -132 -33 -17 -16 -25 -69 -42 -286
-4 -38 -7 -77 -8 -85 -3 -34 3 -49 24 -56 50 -17 78 8 78 70 0 22 5 91 12 153
9 94 14 116 30 124 10 5 76 18 146 29 70 10 172 26 227 34 133 20 376 42 675
61 135 8 259 17 275 20 78 12 355 18 355 7 0 -13 -66 -80 -148 -151 -62 -54
-76 -83 -50 -109 17 -17 48 -15 83 7 90 54 255 247 255 296 0 12 -8 29 -18 38
-26 24 -284 26 -568 5z"/>
<path d="M1017 1202 c-25 -5 -38 -44 -31 -92 6 -42 -24 -213 -53 -305 -21 -66
-86 -196 -134 -267 -46 -67 -165 -176 -257 -236 -36 -23 -70 -48 -74 -55 -14
-22 -8 -46 16 -62 22 -15 27 -15 58 1 179 92 347 273 444 477 64 137 120 443
94 512 -9 23 -33 34 -63 27z"/>
</g>
</svg>
