<?xml version="1.0" standalone="no"?>
<!DOCTYPE svg PUBLIC "-//W3C//DTD SVG 20010904//EN"
 "http://www.w3.org/TR/2001/REC-SVG-20010904/DTD/svg10.dtd">
<svg version="1.0" xmlns="http://www.w3.org/2000/svg"
 width="248.000000pt" height="248.000000pt" viewBox="0 0 248.000000 248.000000"
 preserveAspectRatio="xMidYMid meet">
<metadata>
Created by potrace 1.10, written by Peter Selinger 2001-2011
</metadata>
<g transform="translate(0.000000,248.000000) scale(0.100000,-0.100000)"
fill="#000000" stroke="none">
<path d="M1695 2150 c-159 -10 -378 -23 -485 -29 -230 -13 -414 -28 -525 -41
-44 -5 -102 -12 -130 -15 -56 -7 -85 -27 -85 -60 0 -44 18 -47 172 -30 156 18
620 52 818 60 69 3 148 7 175 10 57 5 223 15 339 19 63 2 82 7 93 21 27 37 5
74 -47 79 -19 2 -165 -4 -325 -14z"/>
</g>
</svg>
