<?xml version="1.0" standalone="no"?>
<!DOCTYPE svg PUBLIC "-//W3C//DTD SVG 20010904//EN"
 "http://www.w3.org/TR/2001/REC-SVG-20010904/DTD/svg10.dtd">
<svg version="1.0" xmlns="http://www.w3.org/2000/svg"
 width="248.000000pt" height="248.000000pt" viewBox="0 0 248.000000 248.000000"
 preserveAspectRatio="xMidYMid meet">
<metadata>
Created by potrace 1.10, written by Peter Selinger 2001-2011
</metadata>
<g transform="translate(0.000000,248.000000) scale(0.100000,-0.100000)"
fill="#000000" stroke="none">
<path d="M1575 2363 c-70 -2 -158 -8 -455 -29 -247 -17 -512 -60 -557 -89 -32
-22 -38 -59 -19 -118 9 -29 29 -99 45 -157 16 -58 36 -125 45 -150 9 -25 16
-54 16 -65 0 -11 7 -31 16 -44 18 -25 12 -25 134 3 67 15 278 41 410 51 41 3
140 10 220 15 149 11 366 8 410 -4 44 -13 74 24 154 188 143 294 151 374 40
392 -43 6 -320 11 -459 7z m388 -100 c38 -6 39 -6 32 -42 -7 -39 -141 -322
-156 -332 -5 -3 -100 -6 -210 -7 l-200 -1 6 67 c6 66 22 209 29 267 3 17 5 33
5 37 2 14 418 23 494 11z m-601 -43 c-25 -250 -33 -313 -42 -330 -7 -12 -21
-20 -38 -20 -15 -1 -66 -3 -114 -6 l-87 -6 2 180 c1 99 5 183 8 187 4 3 47 9
95 12 49 3 91 8 94 10 2 2 22 3 45 1 36 -3 40 -5 37 -28z m-377 -190 l0 -184
-115 -18 c-63 -9 -118 -17 -121 -18 -6 0 -49 132 -77 240 -34 131 -37 117 27
131 100 21 215 38 251 36 l35 -2 0 -185z"/>
<path d="M1567 1654 c-1 -1 -69 -5 -152 -8 -212 -8 -491 -35 -553 -52 -64 -18
-97 -47 -87 -77 17 -59 22 -173 20 -512 -1 -256 -5 -379 -13 -398 -16 -37 -15
-92 1 -104 51 -40 84 -12 98 82 11 70 15 866 6 883 -18 28 40 44 208 57 44 3
125 10 180 15 55 5 158 10 230 12 l129 3 -3 -155 c-1 -85 -3 -308 -5 -495 -2
-286 0 -343 12 -358 18 -21 55 -22 71 -3 9 10 12 129 13 428 1 227 4 442 7
478 3 36 5 91 3 122 -4 69 -18 80 -105 83 -32 0 -59 0 -60 -1z"/>
</g>
</svg>
