<?xml version="1.0" standalone="no"?>
<!DOCTYPE svg PUBLIC "-//W3C//DTD SVG 20010904//EN"
 "http://www.w3.org/TR/2001/REC-SVG-20010904/DTD/svg10.dtd">
<svg version="1.0" xmlns="http://www.w3.org/2000/svg"
 width="248.000000pt" height="248.000000pt" viewBox="0 0 248.000000 248.000000"
 preserveAspectRatio="xMidYMid meet">
<metadata>
Created by potrace 1.10, written by Peter Selinger 2001-2011
</metadata>
<g transform="translate(0.000000,248.000000) scale(0.100000,-0.100000)"
fill="#000000" stroke="none">
<path d="M1865 2414 c-16 -2 -102 -11 -190 -20 -88 -9 -224 -24 -303 -35 -79
-10 -156 -19 -172 -19 -40 0 -77 -19 -83 -42 -3 -11 -1 -46 4 -79 5 -32 13
-143 18 -247 4 -106 13 -197 19 -209 15 -28 45 -37 73 -22 22 11 22 13 15 203
-3 105 -9 214 -12 242 l-6 51 53 6 c30 3 92 10 139 16 171 21 358 41 462 47
l107 7 7 -28 c4 -15 2 -56 -5 -90 -6 -34 -11 -89 -11 -121 0 -33 -6 -97 -13
-144 -14 -100 -12 -127 13 -140 27 -14 66 3 74 33 18 75 36 258 36 379 0 147
-9 186 -49 208 -18 9 -108 11 -176 4z"/>
<path d="M400 2245 c-10 -12 -12 -96 -6 -398 13 -752 -62 -1333 -210 -1635
-31 -62 -35 -77 -25 -98 13 -29 60 -33 82 -6 59 69 135 295 173 512 14 80 30
170 36 200 5 30 11 64 12 74 3 17 38 -49 171 -324 24 -48 55 -63 84 -39 28 24
9 89 -85 285 -49 104 -93 200 -97 214 -4 14 -18 44 -32 68 -23 41 -24 48 -15
105 17 102 23 393 14 714 -7 274 -9 303 -26 322 -22 25 -58 27 -76 6z"/>
<path d="M766 1998 c-9 -12 -16 -31 -16 -42 0 -11 -8 -38 -19 -60 -125 -270
-125 -270 -90 -302 37 -33 63 -5 135 149 77 165 92 219 69 253 -20 31 -59 31
-79 2z"/>
<path d="M60 1545 c-9 -10 -10 -34 -6 -78 9 -79 70 -323 86 -342 18 -21 56
-18 73 6 13 18 12 30 -4 102 -10 45 -28 129 -40 187 -12 58 -28 113 -37 123
-19 21 -55 22 -72 2z"/>
</g>
</svg>
