<?xml version="1.0" standalone="no"?>
<!DOCTYPE svg PUBLIC "-//W3C//DTD SVG 20010904//EN"
 "http://www.w3.org/TR/2001/REC-SVG-20010904/DTD/svg10.dtd">
<svg version="1.0" xmlns="http://www.w3.org/2000/svg"
 width="248.000000pt" height="248.000000pt" viewBox="0 0 248.000000 248.000000"
 preserveAspectRatio="xMidYMid meet">
<metadata>
Created by potrace 1.10, written by Peter Selinger 2001-2011
</metadata>
<g transform="translate(0.000000,248.000000) scale(0.100000,-0.100000)"
fill="#000000" stroke="none">
<path d="M400 2245 c-10 -12 -12 -96 -6 -398 13 -752 -62 -1333 -210 -1635
-31 -62 -35 -77 -25 -98 13 -29 60 -33 82 -6 60 70 135 296 174 517 14 83 30
168 35 190 4 22 13 99 19 170 7 72 16 168 21 215 17 149 21 396 13 712 -8 279
-10 308 -27 327 -22 25 -58 27 -76 6z"/>
<path d="M766 1998 c-9 -12 -16 -31 -16 -42 0 -11 -8 -38 -19 -60 -125 -270
-125 -270 -90 -302 37 -33 63 -5 135 149 77 165 92 219 69 253 -20 31 -59 31
-79 2z"/>
<path d="M60 1545 c-9 -10 -10 -34 -6 -78 9 -79 70 -323 86 -342 18 -21 56
-18 73 6 13 18 12 30 -4 102 -10 45 -28 129 -40 187 -12 58 -28 113 -37 123
-19 21 -55 22 -72 2z"/>
</g>
</svg>
