<?xml version="1.0" standalone="no"?>
<!DOCTYPE svg PUBLIC "-//W3C//DTD SVG 20010904//EN"
 "http://www.w3.org/TR/2001/REC-SVG-20010904/DTD/svg10.dtd">
<svg version="1.0" xmlns="http://www.w3.org/2000/svg"
 width="248.000000pt" height="248.000000pt" viewBox="0 0 248.000000 248.000000"
 preserveAspectRatio="xMidYMid meet">
<metadata>
Created by potrace 1.10, written by Peter Selinger 2001-2011
</metadata>
<g transform="translate(0.000000,248.000000) scale(0.100000,-0.100000)"
fill="#000000" stroke="none">
<path d="M1860 2413 c-80 -7 -331 -35 -415 -45 -105 -12 -299 -36 -302 -37 -2
-1 -9 -11 -18 -24 -12 -19 -13 -34 -5 -82 5 -33 14 -159 20 -280 8 -172 13
-223 25 -234 10 -10 41 -17 85 -19 l69 -4 -15 -24 c-13 -19 -14 -40 -9 -108 7
-84 7 -85 -16 -89 -71 -14 -174 -27 -207 -27 -46 0 -82 -24 -82 -54 0 -51 56
-64 184 -42 139 25 126 39 126 -129 0 -108 -3 -147 -12 -150 -7 -2 -87 -9
-178 -16 -341 -23 -350 -25 -350 -75 0 -49 58 -64 171 -45 30 5 117 13 193 16
l139 7 -34 -43 c-134 -169 -350 -352 -596 -505 -27 -17 -37 -48 -23 -74 13
-24 49 -26 91 -5 109 57 321 219 468 359 47 45 191 218 209 252 9 18 23 22 84
27 40 3 120 11 178 17 l105 12 35 -42 c82 -101 369 -375 477 -456 40 -30 89
-62 109 -70 32 -14 38 -13 60 1 42 27 32 59 -33 101 -90 57 -214 165 -373 324
l-145 145 110 7 c211 14 316 27 331 38 18 16 18 64 -1 80 -14 12 -144 7 -433
-15 l-54 -4 6 37 c3 20 8 92 12 158 l6 122 32 7 c17 3 82 10 145 14 94 6 116
11 127 26 18 24 18 36 0 61 -12 16 -27 19 -93 19 -43 0 -106 -4 -140 -8 l-61
-9 -4 79 c-2 43 -6 85 -8 93 -4 11 10 16 59 22 98 11 118 22 135 77 43 129 63
509 31 572 -9 16 -27 34 -41 39 -24 10 -98 11 -174 3z m138 -143 c2 -19 -1
-53 -6 -75 l-8 -40 -64 -7 c-176 -19 -348 -41 -470 -59 -74 -11 -152 -22 -172
-25 -37 -6 -38 -5 -38 24 0 16 -3 57 -6 91 l-7 61 39 0 c21 0 57 5 79 10 22 5
92 14 155 20 63 6 169 17 235 24 66 8 152 13 190 13 l70 -2 3 -35z m-21 -260
c-4 -16 -9 -58 -13 -94 -4 -35 -9 -69 -13 -74 -9 -15 -239 -33 -488 -39 l-213
-5 0 79 0 78 128 19 c70 10 179 25 242 32 63 8 144 19 180 23 36 5 91 9 124
10 l59 1 -6 -30z m-217 -319 c-5 -11 -10 -53 -10 -94 l0 -73 -107 -12 c-243
-26 -230 -26 -236 0 -4 13 -7 46 -7 73 0 28 -7 62 -14 78 l-15 27 107 1 c59 1
132 4 162 9 30 4 72 8 93 9 34 1 37 -1 27 -18z m-25 -428 c-4 -82 -11 -153
-16 -159 -5 -6 -66 -16 -136 -23 -71 -6 -139 -14 -153 -16 l-25 -4 4 157 c1
86 5 159 7 161 2 2 52 8 111 13 59 5 109 11 112 13 2 3 27 5 54 5 l49 0 -7
-147z"/>
<path d="M400 2245 c-10 -12 -12 -96 -6 -398 4 -235 3 -438 -4 -527 -19 -271
-38 -475 -49 -520 -5 -25 -20 -101 -31 -170 -26 -148 -74 -309 -125 -415 -32
-65 -36 -81 -26 -101 13 -29 60 -33 82 -6 32 38 78 144 113 257 29 96 90 395
108 524 3 24 12 7 171 -319 23 -48 55 -63 83 -40 30 25 15 78 -67 248 -45 92
-92 196 -106 232 -13 36 -33 79 -44 96 -17 28 -18 40 -10 100 17 120 22 389
14 705 -7 281 -10 309 -27 328 -22 25 -58 27 -76 6z"/>
<path d="M766 1998 c-9 -12 -16 -31 -16 -42 0 -11 -9 -38 -19 -60 -70 -148
-111 -246 -111 -264 0 -23 25 -52 44 -52 28 0 50 32 111 163 78 165 93 219 70
253 -20 31 -59 31 -79 2z"/>
<path d="M60 1545 c-17 -20 -7 -107 32 -265 35 -147 48 -172 86 -168 49 6 52
35 21 166 -15 64 -33 146 -39 182 -6 36 -19 73 -27 83 -20 21 -56 22 -73 2z"/>
<path d="M1532 918 c-9 -9 -10 -95 -5 -357 l6 -345 -30 22 c-54 38 -98 22 -91
-35 4 -39 126 -133 174 -133 62 0 63 3 53 390 -8 374 -13 426 -36 453 -18 20
-54 22 -71 5z"/>
<path d="M1152 648 c-19 -19 -14 -56 11 -72 27 -17 193 -53 225 -48 30 5 47
38 34 67 -9 19 -28 27 -100 44 -101 24 -153 26 -170 9z"/>
</g>
</svg>
