<?xml version="1.0" standalone="no"?>
<!DOCTYPE svg PUBLIC "-//W3C//DTD SVG 20010904//EN"
 "http://www.w3.org/TR/2001/REC-SVG-20010904/DTD/svg10.dtd">
<svg version="1.0" xmlns="http://www.w3.org/2000/svg"
 width="248.000000pt" height="248.000000pt" viewBox="0 0 248.000000 248.000000"
 preserveAspectRatio="xMidYMid meet">
<metadata>
Created by potrace 1.10, written by Peter Selinger 2001-2011
</metadata>
<g transform="translate(0.000000,248.000000) scale(0.100000,-0.100000)"
fill="#000000" stroke="none">
<path d="M766 1998 c-9 -12 -16 -31 -16 -42 0 -11 -8 -38 -19 -60 -125 -270
-125 -270 -90 -302 37 -33 63 -5 135 149 77 165 92 219 69 253 -20 31 -59 31
-79 2z"/>
<path d="M60 1545 c-9 -10 -10 -34 -6 -78 9 -79 70 -323 86 -342 18 -21 56
-18 73 6 13 18 12 30 -4 102 -10 45 -28 129 -40 187 -12 58 -28 113 -37 123
-19 21 -55 22 -72 2z"/>
</g>
</svg>
