<?xml version="1.0" standalone="no"?>
<!DOCTYPE svg PUBLIC "-//W3C//DTD SVG 20010904//EN"
 "http://www.w3.org/TR/2001/REC-SVG-20010904/DTD/svg10.dtd">
<svg version="1.0" xmlns="http://www.w3.org/2000/svg"
 width="248.000000pt" height="248.000000pt" viewBox="0 0 248.000000 248.000000"
 preserveAspectRatio="xMidYMid meet">
<metadata>
Created by potrace 1.10, written by Peter Selinger 2001-2011
</metadata>
<g transform="translate(0.000000,248.000000) scale(0.100000,-0.100000)"
fill="#000000" stroke="none">
<path d="M1359 2365 c-64 -29 -136 -60 -160 -68 -24 -9 -120 -52 -214 -96
-174 -81 -199 -101 -182 -145 14 -35 51 -28 181 34 70 33 131 58 136 55 5 -3
9 -105 9 -230 0 -202 -2 -226 -17 -233 -19 -10 -61 -16 -252 -37 -156 -17
-459 -67 -477 -78 -16 -10 -17 -49 -1 -65 17 -17 110 -15 209 4 46 9 154 24
239 34 137 16 174 17 159 7 -2 -1 -29 -23 -59 -48 -30 -26 -80 -62 -110 -81
-106 -67 -426 -226 -510 -254 -99 -32 -110 -39 -110 -68 0 -87 130 -54 460
118 193 101 257 142 374 240 43 36 82 64 86 61 5 -3 6 -95 3 -205 l-6 -199 25
-12 c18 -8 31 -8 46 0 18 9 20 25 27 163 4 84 8 176 9 203 1 28 5 49 11 48 6
-1 44 -21 85 -44 277 -158 927 -378 1001 -339 15 9 19 19 17 43 -4 40 -25 51
-143 71 -81 14 -329 95 -520 171 -99 39 -351 160 -359 173 -7 12 15 15 289 38
105 8 271 17 370 19 170 4 181 5 197 25 20 24 11 53 -20 67 -25 12 -434 -1
-668 -21 -110 -9 -214 -18 -230 -19 l-29 -2 -2 247 c-2 188 0 249 10 255 15 9
140 65 222 100 73 30 78 34 78 68 0 63 -39 63 -174 0z"/>
<path d="M1793 2103 c-7 -2 -44 -46 -82 -96 -38 -51 -78 -101 -90 -111 -12
-11 -31 -35 -43 -54 -27 -44 -13 -82 31 -82 30 0 73 45 210 219 49 62 57 88
32 112 -10 11 -45 18 -58 12z"/>
<path d="M578 1938 c-35 -28 -30 -51 27 -128 30 -41 63 -91 74 -111 27 -48 46
-62 76 -55 46 12 42 74 -9 141 -13 16 -40 55 -61 85 -39 58 -62 80 -80 80 -6
0 -18 -6 -27 -12z"/>
</g>
</svg>
