<?xml version="1.0" standalone="no"?>
<!DOCTYPE svg PUBLIC "-//W3C//DTD SVG 20010904//EN"
 "http://www.w3.org/TR/2001/REC-SVG-20010904/DTD/svg10.dtd">
<svg version="1.0" xmlns="http://www.w3.org/2000/svg"
 width="248.000000pt" height="248.000000pt" viewBox="0 0 248.000000 248.000000"
 preserveAspectRatio="xMidYMid meet">
<metadata>
Created by potrace 1.10, written by Peter Selinger 2001-2011
</metadata>
<g transform="translate(0.000000,248.000000) scale(0.100000,-0.100000)"
fill="#000000" stroke="none">
<path d="M1400 2384 c-41 -20 -127 -57 -190 -84 -258 -108 -395 -177 -404
-203 -25 -68 27 -81 126 -32 63 32 275 126 513 227 84 36 88 39 88 73 0 57
-40 63 -133 19z"/>
<path d="M578 1938 c-35 -28 -30 -51 27 -128 30 -41 63 -91 74 -111 27 -48 46
-62 76 -55 46 12 42 74 -9 141 -13 16 -40 55 -61 85 -39 58 -62 80 -80 80 -6
0 -18 -6 -27 -12z"/>
</g>
</svg>
