<?xml version="1.0" standalone="no"?>
<!DOCTYPE svg PUBLIC "-//W3C//DTD SVG 20010904//EN"
 "http://www.w3.org/TR/2001/REC-SVG-20010904/DTD/svg10.dtd">
<svg version="1.0" xmlns="http://www.w3.org/2000/svg"
 width="248.000000pt" height="248.000000pt" viewBox="0 0 248.000000 248.000000"
 preserveAspectRatio="xMidYMid meet">
<metadata>
Created by potrace 1.10, written by Peter Selinger 2001-2011
</metadata>
<g transform="translate(0.000000,248.000000) scale(0.100000,-0.100000)"
fill="#000000" stroke="none">
<path d="M1112 2391 c-8 -4 -21 -20 -30 -34 -130 -197 -338 -460 -499 -628
-62 -65 -113 -124 -113 -132 0 -24 25 -49 51 -50 27 0 243 37 334 58 176 41
294 66 425 89 204 37 292 61 313 87 21 27 21 31 -1 59 l-18 22 -90 -22 c-49
-12 -161 -35 -248 -51 -87 -16 -184 -35 -215 -43 -140 -34 -321 -69 -328 -63
-4 4 12 26 34 50 62 64 299 362 360 452 29 44 62 91 72 105 27 35 33 63 19 82
-16 20 -49 30 -66 19z"/>
</g>
</svg>
