<?xml version="1.0" standalone="no"?>
<!DOCTYPE svg PUBLIC "-//W3C//DTD SVG 20010904//EN"
 "http://www.w3.org/TR/2001/REC-SVG-20010904/DTD/svg10.dtd">
<svg version="1.0" xmlns="http://www.w3.org/2000/svg"
 width="248.000000pt" height="248.000000pt" viewBox="0 0 248.000000 248.000000"
 preserveAspectRatio="xMidYMid meet">
<metadata>
Created by potrace 1.10, written by Peter Selinger 2001-2011
</metadata>
<g transform="translate(0.000000,248.000000) scale(0.100000,-0.100000)"
fill="#000000" stroke="none">
<path d="M1112 2391 c-8 -4 -21 -20 -30 -34 -130 -197 -338 -460 -499 -628
-62 -65 -113 -124 -113 -132 0 -24 25 -49 51 -50 13 0 78 10 145 21 67 12 126
22 131 22 16 0 26 -119 24 -270 -1 -74 -3 -135 -4 -137 -2 -1 -99 -9 -217 -18
-118 -9 -222 -18 -230 -20 -8 -2 -44 -7 -80 -10 -76 -8 -110 -26 -110 -59 0
-48 17 -51 188 -33 86 9 195 19 242 22 47 3 109 8 138 10 50 5 52 4 52 -19 0
-41 -58 -316 -81 -386 -36 -111 -148 -307 -211 -373 -62 -64 -64 -68 -48 -98
12 -22 53 -25 87 -6 47 26 127 145 199 292 77 159 102 245 144 480 11 65 22
121 24 122 4 5 308 31 396 35 l75 3 2 -35 c1 -19 7 -246 14 -505 7 -276 16
-475 22 -483 13 -17 52 -15 67 3 15 18 14 154 -1 637 -6 191 -9 358 -5 372 6
26 7 26 286 41 47 3 121 7 165 10 44 3 125 8 179 10 55 3 105 10 113 16 39 33
-9 105 -62 94 -33 -7 -67 -10 -235 -20 -63 -3 -140 -8 -170 -10 -30 -2 -103
-7 -162 -11 l-108 -6 1 34 c2 135 18 446 24 461 4 9 15 17 24 17 9 0 27 7 40
17 24 16 25 16 135 -101 118 -125 142 -137 171 -92 26 39 18 50 -287 357 -149
150 -175 168 -206 137 -27 -27 -13 -60 64 -139 l76 -78 -28 -7 c-16 -3 -54
-12 -84 -19 -30 -8 -119 -25 -196 -39 -78 -14 -168 -31 -200 -39 -142 -35
-324 -70 -331 -64 -4 4 12 26 34 50 62 64 299 362 360 452 29 44 62 91 72 105
27 35 33 63 19 82 -16 20 -49 30 -66 19z m290 -828 c-2 -87 -7 -196 -10 -242
-7 -84 -7 -85 -37 -92 -24 -5 -275 -26 -400 -32 l-30 -2 -1 165 c0 126 -4 175
-16 208 -12 31 -13 44 -5 47 21 7 289 64 392 84 55 10 102 19 105 20 3 0 4
-70 2 -156z"/>
</g>
</svg>
