<?xml version="1.0" standalone="no"?>
<!DOCTYPE svg PUBLIC "-//W3C//DTD SVG 20010904//EN"
 "http://www.w3.org/TR/2001/REC-SVG-20010904/DTD/svg10.dtd">
<svg version="1.0" xmlns="http://www.w3.org/2000/svg"
 width="248.000000pt" height="248.000000pt" viewBox="0 0 248.000000 248.000000"
 preserveAspectRatio="xMidYMid meet">
<metadata>
Created by potrace 1.10, written by Peter Selinger 2001-2011
</metadata>
<g transform="translate(0.000000,248.000000) scale(0.100000,-0.100000)"
fill="#000000" stroke="none">
<path d="M624 2255 c-77 -113 -184 -241 -283 -340 -120 -118 -137 -145 -109
-173 7 -7 24 -12 38 -12 50 0 291 247 392 403 l31 47 194 0 c106 0 193 -2 193
-5 0 -19 -185 -243 -281 -341 -87 -88 -119 -127 -119 -145 0 -30 17 -49 45
-49 31 0 239 209 343 345 50 66 109 143 131 172 42 53 51 92 28 111 -8 7 -109
10 -301 9 -276 -2 -289 -3 -302 -22z"/>
</g>
</svg>
