<?xml version="1.0" standalone="no"?>
<!DOCTYPE svg PUBLIC "-//W3C//DTD SVG 20010904//EN"
 "http://www.w3.org/TR/2001/REC-SVG-20010904/DTD/svg10.dtd">
<svg version="1.0" xmlns="http://www.w3.org/2000/svg"
 width="248.000000pt" height="248.000000pt" viewBox="0 0 248.000000 248.000000"
 preserveAspectRatio="xMidYMid meet">
<metadata>
Created by potrace 1.10, written by Peter Selinger 2001-2011
</metadata>
<g transform="translate(0.000000,248.000000) scale(0.100000,-0.100000)"
fill="#000000" stroke="none">
<path d="M624 2255 c-77 -113 -184 -241 -283 -340 -120 -118 -137 -145 -109
-173 7 -7 24 -12 38 -12 50 0 291 247 392 403 l31 47 194 0 c106 0 193 -2 193
-5 0 -19 -184 -242 -276 -335 -70 -71 -118 -127 -123 -145 l-7 -30 -160 -23
c-126 -19 -166 -21 -191 -12 -53 18 -98 -22 -75 -67 14 -27 20 -83 28 -259 4
-88 11 -165 17 -171 13 -17 52 -16 66 1 8 10 11 71 11 196 -1 100 0 184 3 186
10 10 564 86 726 99 78 7 83 6 78 -11 -3 -11 -13 -50 -22 -87 -9 -38 -35 -114
-56 -169 -22 -57 -37 -109 -34 -119 8 -24 47 -34 73 -20 50 27 169 431 141
482 -19 37 -39 39 -245 19 -109 -11 -207 -22 -216 -24 -10 -2 -18 -2 -18 1 0
3 40 44 88 92 49 47 129 140 180 206 50 66 109 143 131 172 42 53 51 92 28
111 -8 7 -109 10 -301 9 -276 -2 -289 -3 -302 -22z"/>
</g>
</svg>
