<?xml version="1.0" standalone="no"?>
<!DOCTYPE svg PUBLIC "-//W3C//DTD SVG 20010904//EN"
 "http://www.w3.org/TR/2001/REC-SVG-20010904/DTD/svg10.dtd">
<svg version="1.0" xmlns="http://www.w3.org/2000/svg"
 width="248.000000pt" height="248.000000pt" viewBox="0 0 248.000000 248.000000"
 preserveAspectRatio="xMidYMid meet">
<metadata>
Created by potrace 1.10, written by Peter Selinger 2001-2011
</metadata>
<g transform="translate(0.000000,248.000000) scale(0.100000,-0.100000)"
fill="#000000" stroke="none">
<path d="M1112 2391 c-8 -4 -21 -20 -30 -34 -130 -197 -338 -460 -499 -628
-62 -65 -113 -124 -113 -132 0 -24 25 -49 51 -50 13 0 78 10 145 21 67 12 126
22 131 22 16 0 26 -119 24 -270 -1 -74 -3 -135 -4 -137 -1 -1 -72 -7 -157 -13
-251 -18 -433 -40 -457 -56 -27 -17 -30 -56 -7 -75 12 -10 43 -9 172 4 86 9
195 19 242 22 47 3 109 8 138 10 50 5 52 4 52 -19 0 -41 -58 -316 -81 -386
-36 -111 -148 -307 -211 -373 -62 -64 -64 -68 -48 -98 12 -22 53 -25 87 -6 47
26 127 145 199 292 77 159 102 245 144 480 11 65 22 121 24 122 3 4 283 29
421 38 50 3 135 10 190 15 55 5 159 11 230 15 72 3 157 8 190 10 33 3 107 8
164 10 57 3 110 10 118 16 39 33 -9 105 -62 94 -35 -8 -108 -13 -415 -30 -92
-6 -290 -20 -625 -47 -88 -7 -169 -12 -180 -13 -19 0 -20 7 -21 165 0 126 -4
175 -16 208 -12 31 -13 44 -5 47 39 12 254 57 377 79 172 31 285 59 306 77 14
11 31 -3 128 -104 118 -126 142 -138 171 -93 26 39 18 50 -287 357 -149 150
-175 168 -206 137 -27 -27 -13 -60 64 -139 l76 -78 -28 -6 c-16 -4 -46 -11
-68 -17 -21 -5 -110 -23 -198 -39 -89 -16 -186 -35 -217 -43 -140 -34 -321
-69 -328 -63 -4 4 12 26 34 50 62 64 299 362 360 452 29 44 62 91 72 105 27
35 33 63 19 82 -16 20 -49 30 -66 19z"/>
</g>
</svg>
