<?xml version="1.0" standalone="no"?>
<!DOCTYPE svg PUBLIC "-//W3C//DTD SVG 20010904//EN"
 "http://www.w3.org/TR/2001/REC-SVG-20010904/DTD/svg10.dtd">
<svg version="1.0" xmlns="http://www.w3.org/2000/svg"
 width="248.000000pt" height="248.000000pt" viewBox="0 0 248.000000 248.000000"
 preserveAspectRatio="xMidYMid meet">
<metadata>
Created by potrace 1.10, written by Peter Selinger 2001-2011
</metadata>
<g transform="translate(0.000000,248.000000) scale(0.100000,-0.100000)"
fill="#000000" stroke="none">
<path d="M1112 2391 c-8 -4 -21 -20 -30 -34 -130 -197 -338 -460 -499 -628
-62 -65 -113 -124 -113 -132 0 -24 25 -49 51 -50 27 0 243 37 334 58 176 41
294 66 425 89 172 31 285 59 306 77 14 11 31 -3 128 -104 118 -126 142 -138
171 -93 26 39 18 50 -287 357 -149 150 -175 168 -206 137 -27 -27 -13 -60 64
-139 l76 -78 -28 -6 c-16 -4 -46 -11 -68 -17 -21 -5 -110 -23 -198 -39 -89
-16 -186 -35 -217 -43 -140 -34 -321 -69 -328 -63 -4 4 12 26 34 50 62 64 299
362 360 452 29 44 62 91 72 105 27 35 33 63 19 82 -16 20 -49 30 -66 19z"/>
<path d="M2158 1284 c-3 -3 -37 -7 -74 -9 -38 -3 -107 -7 -154 -10 -47 -3
-125 -7 -175 -10 -150 -9 -484 -34 -790 -60 -159 -14 -355 -30 -435 -35 -80
-6 -152 -13 -160 -15 -8 -2 -44 -7 -80 -10 -76 -8 -110 -26 -110 -59 0 -48 17
-51 188 -33 86 10 227 22 312 27 85 5 171 12 190 15 41 6 336 31 465 40 50 3
135 10 190 15 55 5 159 11 230 15 72 3 157 8 190 10 33 3 107 8 164 10 111 5
131 13 131 51 0 38 -60 81 -82 58z"/>
</g>
</svg>
