<?xml version="1.0" standalone="no"?>
<!DOCTYPE svg PUBLIC "-//W3C//DTD SVG 20010904//EN"
 "http://www.w3.org/TR/2001/REC-SVG-20010904/DTD/svg10.dtd">
<svg version="1.0" xmlns="http://www.w3.org/2000/svg"
 width="248.000000pt" height="248.000000pt" viewBox="0 0 248.000000 248.000000"
 preserveAspectRatio="xMidYMid meet">
<metadata>
Created by potrace 1.10, written by Peter Selinger 2001-2011
</metadata>
<g transform="translate(0.000000,248.000000) scale(0.100000,-0.100000)"
fill="#000000" stroke="none">
<path d="M768 2243 c-8 -10 -35 -49 -60 -88 -63 -98 -208 -256 -335 -365 -183
-157 -204 -179 -201 -208 4 -31 27 -47 60 -39 13 4 56 34 94 68 38 33 86 74
107 91 l37 30 -1 -384 c0 -426 -11 -795 -29 -1026 -12 -142 -11 -154 5 -172
23 -25 47 -25 70 0 14 15 21 53 31 177 20 227 34 709 33 1142 l-1 374 65 66
c156 161 235 299 195 339 -17 17 -53 15 -70 -5z"/>
</g>
</svg>
