<?xml version="1.0" standalone="no"?>
<!DOCTYPE svg PUBLIC "-//W3C//DTD SVG 20010904//EN"
 "http://www.w3.org/TR/2001/REC-SVG-20010904/DTD/svg10.dtd">
<svg version="1.0" xmlns="http://www.w3.org/2000/svg"
 width="248.000000pt" height="248.000000pt" viewBox="0 0 248.000000 248.000000"
 preserveAspectRatio="xMidYMid meet">
<metadata>
Created by potrace 1.10, written by Peter Selinger 2001-2011
</metadata>
<g transform="translate(0.000000,248.000000) scale(0.100000,-0.100000)"
fill="#000000" stroke="none">
<path d="M768 2243 c-8 -10 -35 -49 -60 -88 -63 -98 -208 -256 -335 -365 -183
-157 -204 -179 -201 -208 4 -31 27 -47 60 -39 13 4 56 34 94 68 38 33 86 74
107 91 l37 30 -1 -384 c0 -426 -11 -795 -29 -1026 -12 -142 -11 -154 5 -172
23 -25 47 -25 70 0 14 15 21 53 31 177 20 227 34 709 33 1142 l-1 374 65 66
c156 161 235 299 195 339 -17 17 -53 15 -70 -5z"/>
<path d="M1888 2215 c-2 -1 -46 -5 -98 -8 -52 -3 -129 -11 -170 -16 -133 -18
-279 -31 -343 -31 -36 0 -68 -5 -75 -12 -17 -17 -15 -53 6 -70 38 -34 59 -33
408 8 67 8 193 17 280 20 178 7 207 16 202 62 -4 39 -40 52 -130 51 -43 -1
-79 -3 -80 -4z"/>
<path d="M1895 1866 c-152 -17 -563 -36 -767 -36 -155 0 -158 0 -173 -24 -14
-21 -14 -29 0 -82 11 -43 15 -113 15 -274 0 -232 2 -240 51 -240 48 0 59 30
59 161 l0 117 113 6 c61 4 270 10 462 15 193 5 359 12 369 16 18 8 19 4 11
-101 -11 -141 -9 -166 12 -181 21 -16 35 -16 57 0 14 10 21 40 32 128 7 63 18
153 24 200 16 138 13 253 -7 278 -24 29 -103 34 -258 17z m181 -123 c-4 -16
-9 -47 -12 -69 -6 -41 -6 -41 -58 -48 -28 -3 -114 -6 -191 -6 -77 0 -272 -5
-434 -10 -161 -6 -296 -8 -299 -5 -3 3 -7 29 -10 59 l-4 53 178 7 c281 10 593
26 664 35 36 4 89 9 119 9 l53 2 -6 -27z"/>
</g>
</svg>
