<?xml version="1.0" standalone="no"?>
<!DOCTYPE svg PUBLIC "-//W3C//DTD SVG 20010904//EN"
 "http://www.w3.org/TR/2001/REC-SVG-20010904/DTD/svg10.dtd">
<svg version="1.0" xmlns="http://www.w3.org/2000/svg"
 width="248.000000pt" height="248.000000pt" viewBox="0 0 248.000000 248.000000"
 preserveAspectRatio="xMidYMid meet">
<metadata>
Created by potrace 1.10, written by Peter Selinger 2001-2011
</metadata>
<g transform="translate(0.000000,248.000000) scale(0.100000,-0.100000)"
fill="#000000" stroke="none">
<path d="M661 2188 c-348 -340 -391 -386 -391 -416 0 -23 18 -45 98 -118 53
-50 111 -100 129 -112 52 -37 103 -25 103 24 0 15 -30 48 -100 109 -55 48
-100 92 -100 99 0 6 113 120 250 254 206 201 250 248 250 271 0 34 -17 51 -49
51 -18 0 -67 -42 -190 -162z"/>
</g>
</svg>
