<?xml version="1.0" standalone="no"?>
<!DOCTYPE svg PUBLIC "-//W3C//DTD SVG 20010904//EN"
 "http://www.w3.org/TR/2001/REC-SVG-20010904/DTD/svg10.dtd">
<svg version="1.0" xmlns="http://www.w3.org/2000/svg"
 width="248.000000pt" height="248.000000pt" viewBox="0 0 248.000000 248.000000"
 preserveAspectRatio="xMidYMid meet">
<metadata>
Created by potrace 1.10, written by Peter Selinger 2001-2011
</metadata>
<g transform="translate(0.000000,248.000000) scale(0.100000,-0.100000)"
fill="#000000" stroke="none">
<path d="M661 2188 c-349 -342 -391 -386 -391 -417 0 -23 19 -46 113 -131 61
-56 113 -105 114 -109 2 -3 -40 -58 -93 -121 -53 -63 -113 -140 -135 -170 -21
-30 -52 -73 -68 -95 -44 -60 -47 -80 -17 -110 29 -29 47 -29 166 5 174 48 231
62 235 58 3 -3 10 -214 15 -469 6 -255 15 -481 21 -502 9 -35 13 -38 42 -35
60 6 60 7 48 517 -6 251 -11 473 -11 493 0 36 1 37 57 53 31 9 78 27 104 41
l47 23 60 -64 c69 -74 103 -85 124 -39 14 31 8 42 -71 136 -109 129 -170 188
-194 188 -51 0 -62 -50 -22 -98 14 -17 25 -35 25 -40 0 -6 -24 -19 -52 -30
-96 -35 -427 -126 -434 -119 -4 4 20 40 52 81 94 118 269 335 330 407 128 153
197 252 197 280 0 60 -58 81 -90 32 -34 -54 -107 -149 -163 -213 -31 -36 -65
-77 -74 -92 -10 -16 -22 -28 -26 -28 -13 0 -170 142 -170 153 0 7 113 121 250
255 206 201 250 248 250 271 0 34 -17 51 -49 51 -18 0 -67 -42 -190 -162z"/>
</g>
</svg>
