<?xml version="1.0" standalone="no"?>
<!DOCTYPE svg PUBLIC "-//W3C//DTD SVG 20010904//EN"
 "http://www.w3.org/TR/2001/REC-SVG-20010904/DTD/svg10.dtd">
<svg version="1.0" xmlns="http://www.w3.org/2000/svg"
 width="248.000000pt" height="248.000000pt" viewBox="0 0 248.000000 248.000000"
 preserveAspectRatio="xMidYMid meet">
<metadata>
Created by potrace 1.10, written by Peter Selinger 2001-2011
</metadata>
<g transform="translate(0.000000,248.000000) scale(0.100000,-0.100000)"
fill="#000000" stroke="none">
<path d="M940 2153 c-88 -4 -366 -24 -400 -29 -108 -14 -237 -37 -252 -45 -26
-14 -32 -47 -13 -75 15 -24 46 -233 74 -507 5 -54 15 -105 22 -114 15 -17 66
-15 234 11 61 9 170 26 243 37 89 14 151 18 187 14 61 -8 80 1 97 45 14 36 93
303 113 380 9 36 27 96 41 133 47 133 36 143 -156 146 -74 1 -137 3 -140 4 -3
1 -25 1 -50 0z m242 -111 c4 -4 -1 -36 -12 -72 -138 -474 -116 -430 -215 -430
-46 0 -233 -24 -418 -54 -56 -9 -80 -10 -83 -2 -2 6 -15 110 -29 231 -14 121
-28 234 -31 252 -6 30 -4 32 33 38 21 4 52 9 68 12 158 30 663 49 687 25z"/>
</g>
</svg>
