<?xml version="1.0" standalone="no"?>
<!DOCTYPE svg PUBLIC "-//W3C//DTD SVG 20010904//EN"
 "http://www.w3.org/TR/2001/REC-SVG-20010904/DTD/svg10.dtd">
<svg version="1.0" xmlns="http://www.w3.org/2000/svg"
 width="248.000000pt" height="248.000000pt" viewBox="0 0 248.000000 248.000000"
 preserveAspectRatio="xMidYMid meet">
<metadata>
Created by potrace 1.10, written by Peter Selinger 2001-2011
</metadata>
<g transform="translate(0.000000,248.000000) scale(0.100000,-0.100000)"
fill="#000000" stroke="none">
<path d="M1175 2376 c-98 -66 -330 -196 -349 -196 -35 0 -40 -26 -28 -158 6
-70 17 -201 23 -292 12 -178 22 -210 64 -210 39 0 59 40 51 103 -4 28 -11 122
-16 207 -5 85 -12 181 -16 212 -6 51 -4 58 12 65 56 21 339 190 375 224 44 41
35 100 -15 99 -12 -1 -57 -25 -101 -54z"/>
</g>
</svg>
