<?xml version="1.0" standalone="no"?>
<!DOCTYPE svg PUBLIC "-//W3C//DTD SVG 20010904//EN"
 "http://www.w3.org/TR/2001/REC-SVG-20010904/DTD/svg10.dtd">
<svg version="1.0" xmlns="http://www.w3.org/2000/svg"
 width="248.000000pt" height="248.000000pt" viewBox="0 0 248.000000 248.000000"
 preserveAspectRatio="xMidYMid meet">
<metadata>
Created by potrace 1.10, written by Peter Selinger 2001-2011
</metadata>
<g transform="translate(0.000000,248.000000) scale(0.100000,-0.100000)"
fill="#000000" stroke="none">
<path d="M1175 2376 c-98 -66 -330 -196 -349 -196 -7 0 -19 -7 -27 -16 -10
-13 -11 -36 -1 -123 7 -59 12 -134 12 -166 0 -97 27 -325 40 -340 19 -23 58
-18 76 10 11 18 15 38 11 65 -3 22 -2 42 1 44 15 9 255 38 500 60 l52 5 -6
-64 c-5 -51 -3 -70 10 -90 18 -28 56 -33 75 -11 27 32 58 606 36 659 -4 9 -19
20 -33 24 -32 8 -262 -4 -353 -18 -108 -17 -113 -9 -31 40 40 24 86 56 102 71
45 42 36 101 -14 100 -12 -1 -57 -25 -101 -54z m329 -288 c-4 -24 -9 -46 -13
-49 -3 -4 -96 -14 -206 -23 -110 -10 -230 -22 -267 -27 -104 -14 -105 -14
-113 27 -3 20 -3 40 2 45 5 5 85 20 178 33 201 30 223 32 338 34 l87 2 -6 -42z
m-4 -208 c0 -32 -5 -52 -12 -55 -7 -2 -51 -6 -98 -9 -95 -7 -234 -22 -325 -36
-33 -5 -79 -11 -102 -15 l-43 -5 0 54 c0 39 4 55 15 60 8 3 72 10 142 16 71 7
187 17 258 25 72 7 138 13 148 14 14 1 17 -8 17 -49z"/>
</g>
</svg>
