<?xml version="1.0" standalone="no"?>
<!DOCTYPE svg PUBLIC "-//W3C//DTD SVG 20010904//EN"
 "http://www.w3.org/TR/2001/REC-SVG-20010904/DTD/svg10.dtd">
<svg version="1.0" xmlns="http://www.w3.org/2000/svg"
 width="248.000000pt" height="248.000000pt" viewBox="0 0 248.000000 248.000000"
 preserveAspectRatio="xMidYMid meet">
<metadata>
Created by potrace 1.10, written by Peter Selinger 2001-2011
</metadata>
<g transform="translate(0.000000,248.000000) scale(0.100000,-0.100000)"
fill="#000000" stroke="none">
<path d="M1175 2376 c-98 -66 -330 -196 -349 -196 -35 0 -40 -26 -28 -158 15
-169 31 -438 29 -482 -2 -29 2 -37 28 -49 25 -12 57 -13 220 -3 104 7 237 17
295 23 219 22 206 11 225 189 15 148 22 485 10 513 -4 9 -19 20 -33 24 -32 8
-262 -4 -353 -18 -108 -17 -113 -9 -31 40 40 24 86 56 102 71 45 42 36 101
-14 100 -12 -1 -57 -25 -101 -54z m329 -288 c-4 -24 -9 -46 -13 -49 -3 -4 -96
-14 -206 -23 -110 -10 -230 -22 -267 -27 -104 -14 -105 -14 -113 27 -3 20 -3
40 2 45 5 5 85 20 178 33 201 30 223 32 338 34 l87 2 -6 -42z m-4 -208 c0 -32
-5 -52 -12 -55 -7 -2 -51 -6 -98 -9 -95 -7 -234 -22 -325 -36 -33 -5 -79 -11
-102 -15 l-43 -5 0 54 c0 39 4 55 15 60 8 3 72 10 142 16 71 7 187 17 258 25
72 7 138 13 148 14 14 1 17 -8 17 -49z m-10 -174 c0 -7 -3 -27 -6 -44 -7 -37
-10 -37 -279 -57 -274 -20 -262 -21 -268 13 -3 15 -2 30 1 34 12 11 230 38
492 62 19 1 41 4 48 4 6 1 12 -4 12 -12z"/>
<path d="M1480 1434 c-102 -8 -261 -21 -355 -29 -93 -8 -252 -15 -353 -15
-200 0 -236 -8 -248 -55 -3 -14 4 -94 16 -178 12 -83 27 -200 34 -260 8 -74
17 -112 28 -124 15 -15 57 -16 430 -14 477 3 744 13 775 29 27 15 27 14 58
192 15 84 28 206 32 290 5 132 4 147 -12 160 -24 20 -169 22 -405 4z m310
-178 c0 -67 -3 -85 -16 -90 -9 -3 -58 -6 -109 -6 -51 0 -127 -4 -167 -9 -40
-6 -108 -13 -150 -16 l-78 -7 0 91 0 91 38 1 c20 0 100 6 177 13 77 7 177 14
223 15 l82 1 0 -84z m-630 -35 l0 -89 -167 -6 c-93 -4 -207 -9 -254 -12 l-87
-6 -6 39 c-3 21 -8 59 -12 86 l-6 47 158 1 c123 1 354 18 372 28 1 0 2 -39 2
-88z m607 -193 c-3 -18 -9 -54 -12 -79 -4 -25 -10 -51 -14 -57 -4 -7 -86 -13
-239 -18 l-233 -7 3 79 3 79 85 7 c47 5 153 12 235 16 83 5 156 9 164 10 10 2
12 -7 8 -30z m-607 -83 l0 -75 -200 -2 c-110 -1 -217 -2 -237 -2 l-38 -1 -7
65 c-4 35 -5 67 -2 70 6 6 194 15 367 18 l117 2 0 -75z"/>
</g>
</svg>
