<?xml version="1.0" standalone="no"?>
<!DOCTYPE svg PUBLIC "-//W3C//DTD SVG 20010904//EN"
 "http://www.w3.org/TR/2001/REC-SVG-20010904/DTD/svg10.dtd">
<svg version="1.0" xmlns="http://www.w3.org/2000/svg"
 width="248.000000pt" height="248.000000pt" viewBox="0 0 248.000000 248.000000"
 preserveAspectRatio="xMidYMid meet">
<metadata>
Created by potrace 1.10, written by Peter Selinger 2001-2011
</metadata>
<g transform="translate(0.000000,248.000000) scale(0.100000,-0.100000)"
fill="#000000" stroke="none">
<path d="M1175 2376 c-98 -66 -330 -196 -349 -196 -35 0 -40 -26 -28 -158 6
-70 17 -201 23 -292 7 -107 16 -173 25 -187 19 -31 59 -30 80 2 14 21 15 37 5
125 -6 55 -11 133 -11 173 0 40 -5 103 -10 141 -6 38 -7 73 -2 78 13 13 340
58 472 65 l125 6 -2 -144 c-2 -79 -8 -201 -14 -271 -10 -114 -10 -130 5 -153
18 -28 57 -33 75 -11 27 32 58 606 36 659 -4 9 -19 20 -33 24 -32 8 -262 -4
-353 -18 -108 -17 -113 -9 -31 40 40 24 86 56 102 71 45 42 36 101 -14 100
-12 -1 -57 -25 -101 -54z"/>
</g>
</svg>
