<?xml version="1.0" standalone="no"?>
<!DOCTYPE svg PUBLIC "-//W3C//DTD SVG 20010904//EN"
 "http://www.w3.org/TR/2001/REC-SVG-20010904/DTD/svg10.dtd">
<svg version="1.0" xmlns="http://www.w3.org/2000/svg"
 width="248.000000pt" height="248.000000pt" viewBox="0 0 248.000000 248.000000"
 preserveAspectRatio="xMidYMid meet">
<metadata>
Created by potrace 1.10, written by Peter Selinger 2001-2011
</metadata>
<g transform="translate(0.000000,248.000000) scale(0.100000,-0.100000)"
fill="#000000" stroke="none">
<path d="M1175 2376 c-98 -66 -330 -196 -349 -196 -35 0 -40 -26 -28 -158 6
-70 17 -201 23 -292 7 -107 16 -173 25 -187 19 -31 59 -30 80 2 14 21 15 37 5
125 -16 149 -15 197 7 204 9 3 71 10 137 16 133 11 304 27 378 35 l47 6 0 -63
c0 -35 -5 -111 -12 -170 -10 -95 -9 -109 6 -132 18 -29 56 -35 75 -12 27 32
58 606 36 659 -4 9 -19 20 -33 24 -32 8 -262 -4 -353 -18 -108 -17 -113 -9
-31 40 40 24 86 56 102 71 45 42 36 101 -14 100 -12 -1 -57 -25 -101 -54z
m329 -288 c-4 -24 -9 -46 -13 -49 -3 -4 -96 -14 -206 -23 -110 -10 -230 -22
-267 -27 -104 -14 -105 -14 -113 27 -3 20 -3 40 2 45 5 5 85 20 178 33 201 30
223 32 338 34 l87 2 -6 -42z"/>
</g>
</svg>
