<?xml version="1.0" standalone="no"?>
<!DOCTYPE svg PUBLIC "-//W3C//DTD SVG 20010904//EN"
 "http://www.w3.org/TR/2001/REC-SVG-20010904/DTD/svg10.dtd">
<svg version="1.0" xmlns="http://www.w3.org/2000/svg"
 width="248.000000pt" height="248.000000pt" viewBox="0 0 248.000000 248.000000"
 preserveAspectRatio="xMidYMid meet">
<metadata>
Created by potrace 1.10, written by Peter Selinger 2001-2011
</metadata>
<g transform="translate(0.000000,248.000000) scale(0.100000,-0.100000)"
fill="#000000" stroke="none">
<path d="M690 2270 c-11 -11 -20 -32 -20 -46 0 -48 -49 -219 -121 -419 -116
-324 -148 -389 -314 -645 -34 -52 -76 -112 -94 -134 -36 -44 -39 -66 -13 -89
27 -25 50 -21 83 16 32 34 140 191 204 297 l40 65 3 -125 c3 -155 -13 -617
-29 -807 -13 -155 -9 -173 37 -173 49 0 57 37 83 400 6 74 13 252 16 395 6
259 -2 395 -26 433 -9 15 -5 35 24 108 98 249 195 550 212 661 5 34 3 45 -14
62 -26 26 -46 26 -71 1z"/>
<path d="M1052 2218 c-8 -8 -12 -51 -12 -129 l0 -116 -87 -7 c-98 -8 -133 -24
-133 -61 0 -42 29 -52 122 -43 46 4 89 6 96 3 10 -3 12 -48 12 -192 -1 -168 0
-188 16 -200 22 -16 36 -16 58 0 25 18 35 114 30 274 -4 131 -4 133 18 137 13
3 128 15 257 26 406 37 709 89 739 127 16 22 15 34 -4 62 -18 26 -36 25 -134
-3 -100 -28 -476 -76 -801 -103 l-76 -6 -6 97 c-6 107 -22 146 -60 146 -13 0
-28 -5 -35 -12z"/>
</g>
</svg>
