<?xml version="1.0" standalone="no"?>
<!DOCTYPE svg PUBLIC "-//W3C//DTD SVG 20010904//EN"
 "http://www.w3.org/TR/2001/REC-SVG-20010904/DTD/svg10.dtd">
<svg version="1.0" xmlns="http://www.w3.org/2000/svg"
 width="248.000000pt" height="248.000000pt" viewBox="0 0 248.000000 248.000000"
 preserveAspectRatio="xMidYMid meet">
<metadata>
Created by potrace 1.10, written by Peter Selinger 2001-2011
</metadata>
<g transform="translate(0.000000,248.000000) scale(0.100000,-0.100000)"
fill="#000000" stroke="none">
<path d="M690 2270 c-11 -11 -20 -32 -20 -46 0 -48 -49 -219 -121 -419 -116
-324 -148 -389 -314 -645 -34 -52 -76 -112 -94 -134 -36 -44 -39 -66 -13 -89
27 -25 50 -21 83 16 32 34 140 191 204 297 l40 65 3 -125 c3 -155 -13 -617
-29 -807 -13 -155 -9 -173 37 -173 49 0 57 37 83 400 6 74 13 252 16 395 6
259 -2 395 -26 433 -9 15 -5 35 24 108 98 249 195 550 212 661 5 34 3 45 -14
62 -26 26 -46 26 -71 1z"/>
<path d="M1769 2264 c-7 -9 -23 -62 -34 -117 l-20 -101 -42 -8 c-42 -7 -312
-34 -449 -45 l-71 -6 -6 97 c-6 107 -22 146 -60 146 -41 0 -47 -17 -47 -141
l0 -116 -87 -7 c-98 -8 -133 -24 -133 -61 0 -42 29 -52 122 -43 46 4 89 6 96
3 9 -3 12 -43 12 -154 0 -171 11 -154 -110 -170 -123 -17 -223 -40 -242 -58
-22 -20 -23 -56 -3 -73 16 -14 26 -13 203 19 68 12 126 20 129 17 9 -8 -33
-103 -106 -244 -67 -128 -140 -230 -220 -307 -23 -21 -41 -46 -41 -55 0 -20
31 -50 50 -50 30 0 84 47 156 136 42 52 78 93 80 91 2 -1 -1 -70 -6 -152 -5
-83 -11 -204 -15 -270 -8 -165 -15 -241 -26 -303 -13 -63 5 -102 46 -102 41 0
54 35 67 180 11 118 15 133 33 141 11 4 77 15 146 23 70 9 134 19 143 22 18 7
18 16 16 -243 -1 -169 -1 -172 22 -187 13 -8 33 -13 45 -10 38 10 44 45 43
258 l-2 201 49 7 c103 14 376 39 380 35 11 -12 -2 -407 -14 -407 -2 0 -21 11
-41 25 -61 41 -118 27 -110 -27 2 -16 26 -38 73 -70 56 -38 79 -48 112 -48 60
0 71 25 83 197 11 155 15 1019 5 1045 -8 21 -25 27 -94 34 -66 7 -454 -35
-668 -72 -80 -14 -147 -23 -150 -20 -2 2 12 47 33 99 l38 95 60 7 c34 4 81 11
106 17 92 20 425 45 755 57 136 4 228 12 242 19 27 15 37 45 23 72 -10 18 -20
20 -111 20 -56 0 -176 -5 -267 -11 -92 -6 -183 -9 -202 -7 l-36 3 36 147 c19
80 38 149 41 152 3 3 57 15 121 25 234 40 283 66 244 126 -19 29 -43 31 -102
10 -36 -12 -202 -45 -229 -45 -7 0 -6 31 4 90 17 101 12 123 -31 128 -14 2
-31 -4 -39 -14z m-89 -348 c0 -18 -45 -206 -60 -252 -13 -37 -19 -40 -155 -49
-49 -4 -110 -11 -135 -16 -64 -15 -170 -26 -170 -20 -4 93 -9 301 -7 302 6 3
457 47 490 48 26 1 37 -3 37 -13z m212 -753 c-2 -54 -4 -104 -5 -112 -2 -11
-45 -20 -178 -37 -97 -12 -191 -25 -209 -29 l-32 -7 7 123 c4 68 8 125 9 126
5 6 262 31 331 32 l81 1 -4 -97z m-524 -70 l-3 -117 -30 -8 c-27 -6 -259 -38
-278 -38 -4 0 -6 50 -5 112 l4 112 35 9 c39 10 235 45 262 46 17 1 18 -8 15
-116z m522 -262 c0 -80 -3 -100 -16 -105 -8 -3 -75 -10 -147 -16 -73 -6 -159
-15 -192 -20 -33 -5 -63 -10 -67 -10 -11 0 -10 188 0 194 9 5 266 43 337 49
95 9 85 19 85 -92z m-533 -67 c-4 -54 -8 -98 -9 -99 -5 -5 -189 -33 -257 -41
l-64 -6 7 98 c4 55 10 101 12 103 7 7 222 38 273 40 l44 1 -6 -96z"/>
</g>
</svg>
