<?xml version="1.0" standalone="no"?>
<!DOCTYPE svg PUBLIC "-//W3C//DTD SVG 20010904//EN"
 "http://www.w3.org/TR/2001/REC-SVG-20010904/DTD/svg10.dtd">
<svg version="1.0" xmlns="http://www.w3.org/2000/svg"
 width="248.000000pt" height="248.000000pt" viewBox="0 0 248.000000 248.000000"
 preserveAspectRatio="xMidYMid meet">
<metadata>
Created by potrace 1.10, written by Peter Selinger 2001-2011
</metadata>
<g transform="translate(0.000000,248.000000) scale(0.100000,-0.100000)"
fill="#000000" stroke="none">
<path d="M690 2270 c-11 -11 -20 -32 -20 -46 0 -48 -49 -219 -121 -419 -116
-324 -148 -389 -314 -645 -34 -52 -76 -112 -94 -134 -36 -44 -39 -66 -13 -89
27 -25 50 -21 83 16 32 34 140 191 204 297 l40 65 3 -125 c3 -155 -13 -617
-29 -807 -13 -155 -9 -173 37 -173 49 0 57 37 83 400 6 74 13 252 16 395 6
259 -2 395 -26 433 -9 15 -5 35 24 108 98 249 195 550 212 661 5 34 3 45 -14
62 -26 26 -46 26 -71 1z"/>
</g>
</svg>
