<?xml version="1.0" standalone="no"?>
<!DOCTYPE svg PUBLIC "-//W3C//DTD SVG 20010904//EN"
 "http://www.w3.org/TR/2001/REC-SVG-20010904/DTD/svg10.dtd">
<svg version="1.0" xmlns="http://www.w3.org/2000/svg"
 width="248.000000pt" height="248.000000pt" viewBox="0 0 248.000000 248.000000"
 preserveAspectRatio="xMidYMid meet">
<metadata>
Created by potrace 1.10, written by Peter Selinger 2001-2011
</metadata>
<g transform="translate(0.000000,248.000000) scale(0.100000,-0.100000)"
fill="#000000" stroke="none">
<path d="M690 2270 c-11 -11 -20 -32 -20 -46 0 -48 -49 -219 -121 -419 -116
-324 -148 -389 -314 -645 -34 -52 -76 -112 -94 -134 -36 -44 -39 -66 -13 -89
42 -38 72 -13 181 148 164 244 209 334 318 635 79 216 136 403 147 482 6 40 4
50 -13 67 -26 26 -46 26 -71 1z"/>
</g>
</svg>
