<?xml version="1.0" standalone="no"?>
<!DOCTYPE svg PUBLIC "-//W3C//DTD SVG 20010904//EN"
 "http://www.w3.org/TR/2001/REC-SVG-20010904/DTD/svg10.dtd">
<svg version="1.0" xmlns="http://www.w3.org/2000/svg"
 width="248.000000pt" height="248.000000pt" viewBox="0 0 248.000000 248.000000"
 preserveAspectRatio="xMidYMid meet">
<metadata>
Created by potrace 1.10, written by Peter Selinger 2001-2011
</metadata>
<g transform="translate(0.000000,248.000000) scale(0.100000,-0.100000)"
fill="#000000" stroke="none">
<path d="M690 2270 c-11 -11 -20 -32 -20 -46 0 -48 -49 -219 -121 -419 -116
-324 -148 -389 -314 -645 -34 -52 -76 -112 -94 -134 -36 -44 -39 -66 -13 -89
27 -25 50 -21 83 16 32 34 140 191 204 297 l40 65 3 -125 c3 -155 -13 -617
-29 -807 -13 -155 -9 -173 37 -173 49 0 57 37 83 400 6 74 13 252 16 395 6
259 -2 395 -26 433 -9 15 -5 35 24 108 98 249 195 550 212 661 5 34 3 45 -14
62 -26 26 -46 26 -71 1z"/>
<path d="M1769 2264 c-7 -9 -23 -62 -34 -117 l-20 -101 -42 -8 c-42 -7 -312
-34 -449 -45 l-71 -6 -6 97 c-6 107 -22 146 -60 146 -41 0 -47 -17 -47 -141
l0 -116 -87 -7 c-98 -8 -133 -24 -133 -61 0 -42 29 -52 122 -43 46 4 89 6 96
3 9 -3 12 -43 12 -154 0 -171 11 -154 -110 -170 -124 -17 -223 -41 -243 -58
-10 -10 -17 -27 -15 -41 5 -44 26 -48 150 -25 187 36 198 37 198 20 0 -8 -38
-90 -84 -183 -84 -169 -154 -271 -245 -359 -46 -43 -50 -63 -21 -90 41 -37
103 10 222 166 57 76 188 326 228 436 l22 61 62 7 c33 4 81 11 106 17 92 20
425 45 755 57 136 4 228 12 242 19 27 15 37 45 23 72 -10 18 -20 20 -111 20
-56 0 -176 -5 -267 -11 -92 -6 -183 -9 -202 -7 l-36 3 36 147 c19 80 38 149
41 152 3 3 57 15 121 25 234 40 283 66 244 126 -19 29 -43 31 -102 10 -36 -12
-202 -45 -229 -45 -7 0 -6 31 4 90 17 101 12 123 -31 128 -14 2 -31 -4 -39
-14z m-89 -348 c0 -18 -45 -206 -60 -252 -13 -37 -19 -40 -155 -49 -49 -4
-110 -11 -135 -16 -64 -15 -170 -26 -170 -20 -4 93 -9 301 -7 302 6 3 457 47
490 48 26 1 37 -3 37 -13z"/>
</g>
</svg>
