<?xml version="1.0" standalone="no"?>
<!DOCTYPE svg PUBLIC "-//W3C//DTD SVG 20010904//EN"
 "http://www.w3.org/TR/2001/REC-SVG-20010904/DTD/svg10.dtd">
<svg version="1.0" xmlns="http://www.w3.org/2000/svg"
 width="248.000000pt" height="248.000000pt" viewBox="0 0 248.000000 248.000000"
 preserveAspectRatio="xMidYMid meet">
<metadata>
Created by potrace 1.10, written by Peter Selinger 2001-2011
</metadata>
<g transform="translate(0.000000,248.000000) scale(0.100000,-0.100000)"
fill="#000000" stroke="none">
<path d="M880 2303 c-12 -16 -64 -93 -117 -173 -92 -141 -97 -145 -137 -152
-22 -4 -98 -17 -168 -28 -285 -47 -301 -52 -296 -99 4 -37 41 -51 106 -41 29
5 62 12 72 15 19 6 20 1 20 -159 l0 -165 -48 -6 c-124 -18 -216 -36 -229 -47
-23 -19 -12 -61 20 -76 24 -12 42 -11 115 2 48 9 99 16 113 16 27 0 27 0 22
-67 -12 -197 -40 -418 -68 -538 -8 -33 -24 -107 -35 -165 -12 -58 -42 -177
-66 -265 -24 -87 -44 -171 -44 -185 0 -32 17 -50 45 -50 31 0 51 27 69 95 30
110 103 409 124 505 39 177 82 499 82 612 0 64 16 88 58 88 15 1 63 7 107 15
44 9 116 20 160 25 69 9 189 30 263 46 31 6 48 45 33 73 -18 32 -34 31 -401
-29 -63 -11 -136 -22 -162 -25 l-48 -6 0 165 0 165 48 5 c47 6 94 15 312 61
138 29 169 56 120 105 -22 22 -29 23 -85 10 -22 -5 -41 -8 -42 -6 -1 1 31 53
72 116 74 112 88 153 63 178 -20 20 -55 13 -78 -15z"/>
<path d="M290 2275 c-8 -9 -11 -31 -8 -58 7 -53 81 -215 103 -223 9 -4 27 -2
41 4 34 16 31 52 -11 149 -19 45 -35 88 -35 95 0 39 -66 62 -90 33z"/>
</g>
</svg>
