<?xml version="1.0" standalone="no"?>
<!DOCTYPE svg PUBLIC "-//W3C//DTD SVG 20010904//EN"
 "http://www.w3.org/TR/2001/REC-SVG-20010904/DTD/svg10.dtd">
<svg version="1.0" xmlns="http://www.w3.org/2000/svg"
 width="248.000000pt" height="248.000000pt" viewBox="0 0 248.000000 248.000000"
 preserveAspectRatio="xMidYMid meet">
<metadata>
Created by potrace 1.10, written by Peter Selinger 2001-2011
</metadata>
<g transform="translate(0.000000,248.000000) scale(0.100000,-0.100000)"
fill="#000000" stroke="none">
<path d="M880 2303 c-12 -16 -64 -93 -117 -173 -92 -141 -97 -145 -137 -152
-22 -4 -98 -17 -168 -28 -285 -47 -301 -52 -296 -99 4 -37 41 -51 106 -41 29
5 62 12 72 15 19 6 20 1 20 -159 l0 -165 -48 -6 c-124 -18 -216 -36 -229 -47
-23 -19 -12 -61 20 -76 24 -12 42 -11 115 2 48 9 99 16 113 16 27 0 27 0 22
-67 -12 -197 -40 -418 -68 -538 -8 -33 -24 -107 -35 -165 -12 -58 -42 -177
-66 -265 -46 -168 -52 -203 -32 -223 17 -17 53 -15 70 5 17 20 27 53 92 313
57 227 81 342 101 465 22 145 45 351 45 415 0 30 4 61 9 69 5 8 45 19 98 27
48 7 98 16 111 19 l22 5 0 -638 c0 -568 2 -640 16 -660 21 -31 64 -26 81 8 10
19 13 170 13 663 0 501 3 638 13 641 6 2 59 12 117 22 58 9 113 21 122 26 23
11 31 43 18 68 -13 25 -61 26 -173 5 -43 -8 -83 -15 -88 -15 -6 0 -8 70 -7
172 l3 172 64 12 c87 15 114 51 71 94 -22 22 -29 23 -85 10 -22 -5 -41 -8 -42
-6 -1 1 31 53 72 116 74 112 88 153 63 178 -20 20 -55 13 -78 -15z m-180 -586
l0 -164 -67 -11 c-38 -6 -89 -14 -115 -17 l-48 -6 0 165 0 165 48 6 c26 3 67
9 92 14 99 18 90 33 90 -152z"/>
<path d="M290 2275 c-8 -9 -11 -31 -8 -58 7 -53 81 -215 103 -223 9 -4 27 -2
41 4 34 16 31 52 -11 149 -19 45 -35 88 -35 95 0 39 -66 62 -90 33z"/>
<path d="M1950 2250 c-69 -9 -165 -24 -215 -33 -49 -9 -198 -30 -330 -47 -148
-19 -248 -36 -262 -46 -30 -19 -30 -59 0 -78 20 -13 32 -13 111 0 48 9 90 13
93 10 5 -5 -12 -176 -38 -384 -5 -40 -9 -94 -9 -118 0 -25 -11 -109 -25 -187
-13 -78 -39 -225 -56 -327 -17 -102 -37 -216 -44 -255 -28 -157 -64 -373 -70
-427 l-6 -56 -87 -27 c-96 -30 -122 -47 -122 -80 0 -48 39 -56 135 -26 190 60
666 233 760 277 33 15 64 28 69 29 4 0 23 -42 42 -94 18 -51 40 -103 48 -115
9 -11 31 -43 50 -71 18 -27 43 -58 54 -69 26 -22 94 -24 127 -2 31 20 102 128
117 177 10 36 9 42 -9 61 -33 32 -66 18 -93 -39 -28 -60 -69 -115 -80 -108
-12 8 -66 89 -89 133 -28 56 -67 187 -82 277 -11 60 -14 209 -14 596 0 503 -1
517 -20 539 -18 20 -26 22 -85 17 -36 -4 -87 -12 -115 -20 -218 -62 -285 -76
-285 -59 2 66 41 364 49 374 3 4 56 12 116 18 61 6 142 17 180 25 39 8 138 23
220 34 83 11 158 23 168 26 27 11 39 40 27 69 -8 23 -15 26 -57 25 -27 -1
-104 -9 -173 -19z m-133 -1005 c-5 -380 0 -548 19 -633 4 -21 -5 -28 -89 -67
-92 -44 -170 -74 -415 -160 l-123 -44 7 52 c3 29 15 106 26 172 11 66 24 143
28 170 5 28 17 95 28 150 11 55 42 233 68 396 l48 297 106 22 c58 12 128 31
155 41 52 18 82 25 124 28 l24 1 -6 -425z"/>
</g>
</svg>
