<?xml version="1.0" standalone="no"?>
<!DOCTYPE svg PUBLIC "-//W3C//DTD SVG 20010904//EN"
 "http://www.w3.org/TR/2001/REC-SVG-20010904/DTD/svg10.dtd">
<svg version="1.0" xmlns="http://www.w3.org/2000/svg"
 width="248.000000pt" height="248.000000pt" viewBox="0 0 248.000000 248.000000"
 preserveAspectRatio="xMidYMid meet">
<metadata>
Created by potrace 1.10, written by Peter Selinger 2001-2011
</metadata>
<g transform="translate(0.000000,248.000000) scale(0.100000,-0.100000)"
fill="#000000" stroke="none">
<path d="M880 2303 c-12 -16 -64 -93 -117 -173 -92 -141 -97 -145 -137 -152
-22 -4 -98 -17 -168 -28 -285 -47 -301 -52 -296 -99 4 -36 41 -51 98 -41 25 4
104 17 175 29 294 49 507 96 522 117 18 25 16 41 -7 64 -22 22 -29 23 -85 10
-22 -5 -41 -8 -42 -6 -1 1 31 53 72 116 74 112 88 153 63 178 -20 20 -55 13
-78 -15z"/>
<path d="M290 2275 c-8 -9 -11 -31 -8 -58 7 -53 81 -215 103 -223 9 -4 27 -2
41 4 34 16 31 52 -11 149 -19 45 -35 88 -35 95 0 39 -66 62 -90 33z"/>
<path d="M885 1584 c-145 -25 -406 -66 -565 -89 -239 -34 -250 -38 -250 -80 0
-53 41 -59 220 -32 63 10 160 25 215 33 55 9 134 21 175 29 41 7 100 16 130
20 47 5 165 25 237 40 32 7 48 41 34 71 -9 21 -17 24 -63 23 -29 -1 -89 -8
-133 -15z"/>
</g>
</svg>
