<?xml version="1.0" standalone="no"?>
<!DOCTYPE svg PUBLIC "-//W3C//DTD SVG 20010904//EN"
 "http://www.w3.org/TR/2001/REC-SVG-20010904/DTD/svg10.dtd">
<svg version="1.0" xmlns="http://www.w3.org/2000/svg"
 width="248.000000pt" height="248.000000pt" viewBox="0 0 248.000000 248.000000"
 preserveAspectRatio="xMidYMid meet">
<metadata>
Created by potrace 1.10, written by Peter Selinger 2001-2011
</metadata>
<g transform="translate(0.000000,248.000000) scale(0.100000,-0.100000)"
fill="#000000" stroke="none">
<path d="M1655 2228 c-127 -8 -344 -30 -535 -54 -63 -7 -160 -19 -215 -25 -55
-6 -103 -13 -106 -15 -4 -2 -51 -9 -105 -14 -104 -11 -134 -25 -134 -65 0 -51
50 -57 255 -26 72 11 191 27 265 36 74 9 169 20 210 26 41 5 145 14 230 20
367 23 423 28 446 44 26 17 32 53 12 73 -14 14 -131 14 -323 0z"/>
</g>
</svg>
