<?xml version="1.0" standalone="no"?>
<!DOCTYPE svg PUBLIC "-//W3C//DTD SVG 20010904//EN"
 "http://www.w3.org/TR/2001/REC-SVG-20010904/DTD/svg10.dtd">
<svg version="1.0" xmlns="http://www.w3.org/2000/svg"
 width="248.000000pt" height="248.000000pt" viewBox="0 0 248.000000 248.000000"
 preserveAspectRatio="xMidYMid meet">
<metadata>
Created by potrace 1.10, written by Peter Selinger 2001-2011
</metadata>
<g transform="translate(0.000000,248.000000) scale(0.100000,-0.100000)"
fill="#000000" stroke="none">
<path d="M1639 2374 c-8 -9 -25 -46 -39 -83 l-26 -66 -109 -12 c-61 -6 -159
-17 -219 -23 -61 -7 -132 -15 -158 -19 -56 -9 -58 -7 -78 79 -14 63 -34 90
-65 90 -46 0 -52 -30 -30 -150 l7 -35 -109 -17 c-59 -10 -133 -20 -163 -23
-30 -4 -63 -13 -72 -22 -21 -19 -23 -54 -6 -71 18 -18 107 -15 237 8 62 11
119 20 125 20 11 0 36 -80 36 -115 0 -15 -79 -35 -141 -35 -52 0 -97 -24 -105
-55 -3 -13 5 -82 19 -152 14 -70 29 -168 32 -218 11 -149 13 -159 37 -179 20
-16 33 -18 98 -12 229 20 347 25 545 26 193 0 225 3 261 19 32 14 43 26 47 48
6 26 26 158 47 303 14 97 22 247 15 269 -9 28 -57 41 -153 41 -63 0 -83 3 -79
13 45 107 51 117 71 117 11 0 79 5 150 10 140 10 176 23 176 64 0 44 -20 50
-165 43 -74 -3 -135 -4 -135 -1 0 2 7 21 15 41 18 43 19 85 3 101 -17 17 -53
15 -69 -4z m-119 -274 c0 -5 -12 -34 -27 -64 l-26 -54 -66 -6 c-36 -4 -97 -11
-136 -16 -38 -5 -97 -11 -130 -12 l-59 -3 -12 55 c-7 30 -11 56 -9 58 3 4 28
7 260 36 135 17 205 19 205 6z m196 -272 c-3 -29 -6 -70 -6 -90 l0 -36 -30 14
c-25 13 -52 13 -182 4 -84 -6 -189 -15 -233 -20 -44 -6 -139 -14 -211 -20 -72
-5 -144 -14 -159 -20 -15 -6 -30 -8 -33 -6 -5 6 -32 130 -28 133 7 7 225 45
311 54 292 32 350 37 459 38 l119 1 -7 -52z m-26 -225 c0 -15 -5 -62 -12 -104
l-12 -76 -285 -6 c-158 -3 -295 -8 -306 -10 -11 -3 -56 -8 -101 -12 l-81 -7
-6 39 c-4 21 -7 57 -7 79 0 51 4 53 155 64 61 5 151 14 200 20 50 6 167 17
260 24 94 7 176 14 183 15 7 0 12 -10 12 -26z"/>
<path d="M1977 1150 c-31 -4 -164 -11 -295 -15 -130 -4 -246 -9 -257 -11 -11
-3 -123 -9 -250 -14 -680 -29 -755 -40 -755 -105 0 -43 21 -49 133 -37 56 6
212 16 347 22 135 5 317 15 405 20 88 6 273 15 410 21 318 12 429 23 460 43
27 18 33 54 13 74 -13 13 -116 14 -211 2z"/>
</g>
</svg>
