<?xml version="1.0" standalone="no"?>
<!DOCTYPE svg PUBLIC "-//W3C//DTD SVG 20010904//EN"
 "http://www.w3.org/TR/2001/REC-SVG-20010904/DTD/svg10.dtd">
<svg version="1.0" xmlns="http://www.w3.org/2000/svg"
 width="248.000000pt" height="248.000000pt" viewBox="0 0 248.000000 248.000000"
 preserveAspectRatio="xMidYMid meet">
<metadata>
Created by potrace 1.10, written by Peter Selinger 2001-2011
</metadata>
<g transform="translate(0.000000,248.000000) scale(0.100000,-0.100000)"
fill="#000000" stroke="none">
<path d="M1639 2374 c-8 -9 -25 -46 -39 -83 l-26 -66 -109 -12 c-61 -6 -159
-17 -219 -23 -61 -7 -132 -15 -158 -19 -56 -9 -58 -7 -78 79 -14 63 -34 90
-65 90 -46 0 -52 -30 -30 -150 l7 -35 -109 -17 c-59 -10 -133 -20 -163 -23
-30 -4 -63 -13 -72 -22 -21 -19 -23 -54 -6 -71 18 -18 107 -15 237 8 62 11
119 20 126 20 7 0 18 -26 25 -62 7 -35 17 -71 21 -80 12 -23 44 -31 70 -18 20
11 21 18 16 74 -3 33 -8 68 -12 78 -8 19 9 24 140 38 50 5 141 15 202 21 62 7
116 9 120 6 4 -4 -5 -32 -20 -63 -32 -65 -33 -76 -8 -98 38 -35 63 -18 108 74
24 47 44 88 45 92 2 4 70 11 152 17 161 11 196 23 196 65 0 44 -20 50 -165 43
-74 -3 -135 -4 -135 -1 0 2 7 21 15 41 18 43 19 85 3 101 -17 17 -53 15 -69
-4z"/>
</g>
</svg>
