<?xml version="1.0" standalone="no"?>
<!DOCTYPE svg PUBLIC "-//W3C//DTD SVG 20010904//EN"
 "http://www.w3.org/TR/2001/REC-SVG-20010904/DTD/svg10.dtd">
<svg version="1.0" xmlns="http://www.w3.org/2000/svg"
 width="248.000000pt" height="248.000000pt" viewBox="0 0 248.000000 248.000000"
 preserveAspectRatio="xMidYMid meet">
<metadata>
Created by potrace 1.10, written by Peter Selinger 2001-2011
</metadata>
<g transform="translate(0.000000,248.000000) scale(0.100000,-0.100000)"
fill="#000000" stroke="none">
<path d="M699 2354 c-14 -18 -27 -177 -28 -375 l-1 -106 -62 -7 c-35 -3 -99
-11 -142 -16 -44 -5 -81 -8 -82 -7 -1 1 9 36 22 77 13 41 28 109 34 150 6 41
16 96 22 122 10 39 9 50 -6 72 -18 29 -56 35 -76 11 -6 -8 -22 -74 -36 -147
-44 -249 -142 -530 -219 -633 -35 -48 -39 -71 -15 -95 23 -23 51 -20 82 8 20
17 104 178 137 264 23 56 24 57 69 63 26 3 74 10 108 15 33 6 85 10 114 10
l53 0 -7 -52 c-3 -29 -6 -168 -6 -308 l0 -255 -118 -52 c-64 -29 -145 -63
-180 -76 -35 -13 -72 -31 -82 -40 -22 -19 -26 -57 -8 -75 25 -25 59 -15 273
80 50 22 96 43 104 46 11 4 12 -64 6 -414 -5 -289 -4 -427 4 -446 13 -35 56
-48 79 -24 15 15 18 55 23 314 4 163 7 370 8 460 l1 162 147 70 c81 39 155 78
165 87 34 31 17 83 -28 83 -12 0 -77 -27 -145 -60 -68 -33 -128 -60 -132 -60
-12 0 -4 567 8 579 6 5 72 19 149 30 76 11 145 26 153 32 23 20 12 62 -20 77
-24 12 -45 11 -152 -7 -67 -12 -126 -21 -131 -21 -4 0 -4 96 0 213 5 163 3
218 -7 237 -15 30 -58 38 -78 14z"/>
</g>
</svg>
