<?xml version="1.0" standalone="no"?>
<!DOCTYPE svg PUBLIC "-//W3C//DTD SVG 20010904//EN"
 "http://www.w3.org/TR/2001/REC-SVG-20010904/DTD/svg10.dtd">
<svg version="1.0" xmlns="http://www.w3.org/2000/svg"
 width="248.000000pt" height="248.000000pt" viewBox="0 0 248.000000 248.000000"
 preserveAspectRatio="xMidYMid meet">
<metadata>
Created by potrace 1.10, written by Peter Selinger 2001-2011
</metadata>
<g transform="translate(0.000000,248.000000) scale(0.100000,-0.100000)"
fill="#000000" stroke="none">
<path d="M380 2275 c-6 -8 -22 -74 -36 -147 -44 -249 -142 -530 -219 -633 -35
-48 -39 -71 -15 -95 23 -23 51 -20 82 8 20 17 104 178 137 264 23 56 24 57 69
63 26 3 76 10 112 15 36 5 99 12 140 15 41 4 95 11 119 16 24 5 102 18 173 29
72 11 137 25 145 31 23 20 12 62 -20 77 -25 12 -51 10 -210 -16 -100 -17 -211
-33 -247 -36 -36 -4 -101 -11 -144 -16 -44 -5 -81 -8 -82 -7 -1 1 9 36 22 77
13 41 28 109 34 150 6 41 16 96 22 122 10 39 9 50 -6 72 -18 29 -56 35 -76 11z"/>
</g>
</svg>
