<?xml version="1.0" standalone="no"?>
<!DOCTYPE svg PUBLIC "-//W3C//DTD SVG 20010904//EN"
 "http://www.w3.org/TR/2001/REC-SVG-20010904/DTD/svg10.dtd">
<svg version="1.0" xmlns="http://www.w3.org/2000/svg"
 width="248.000000pt" height="248.000000pt" viewBox="0 0 248.000000 248.000000"
 preserveAspectRatio="xMidYMid meet">
<metadata>
Created by potrace 1.10, written by Peter Selinger 2001-2011
</metadata>
<g transform="translate(0.000000,248.000000) scale(0.100000,-0.100000)"
fill="#000000" stroke="none">
<path d="M1592 2328 c-5 -7 -12 -53 -15 -103 -22 -363 -28 -430 -34 -436 -5
-4 -35 -9 -68 -10 l-60 -3 4 232 c3 203 2 234 -13 257 -18 27 -59 34 -73 13
-4 -7 -8 -65 -9 -128 0 -63 -1 -176 -2 -251 l-2 -136 -88 -12 c-48 -6 -145
-18 -215 -27 -138 -18 -177 -35 -177 -79 0 -32 24 -48 62 -41 186 34 546 74
763 86 403 22 518 33 543 53 15 12 16 49 0 65 -14 14 -81 15 -198 3 -47 -5
-148 -12 -225 -16 l-140 -6 7 103 c18 271 21 417 8 433 -15 18 -54 20 -68 3z"/>
<path d="M2048 2232 c-9 -2 -37 -31 -61 -65 -25 -34 -79 -99 -121 -145 -42
-45 -76 -90 -76 -101 0 -28 36 -56 59 -45 34 15 110 93 185 188 90 114 88 109
77 139 -10 25 -33 36 -63 29z"/>
<path d="M702 2198 c-7 -7 -12 -20 -12 -31 0 -10 -32 -114 -71 -230 -111 -333
-294 -684 -448 -859 -49 -55 -54 -92 -16 -110 21 -10 30 -8 53 9 38 28 154
182 219 291 31 50 59 92 63 92 10 0 21 -192 20 -351 -2 -255 -21 -694 -32
-737 -9 -37 -8 -45 7 -62 22 -25 46 -25 73 -2 20 16 22 34 31 252 14 299 14
847 1 924 -5 32 -16 69 -24 81 -14 21 -11 32 39 148 30 69 82 207 115 306 75
225 78 291 15 291 -12 0 -26 -5 -33 -12z"/>
<path d="M932 2088 c-18 -18 -14 -52 9 -82 11 -15 35 -62 53 -106 38 -93 51
-110 80 -110 56 0 59 41 10 158 -51 123 -112 180 -152 140z"/>
</g>
</svg>
