<?xml version="1.0" standalone="no"?>
<!DOCTYPE svg PUBLIC "-//W3C//DTD SVG 20010904//EN"
 "http://www.w3.org/TR/2001/REC-SVG-20010904/DTD/svg10.dtd">
<svg version="1.0" xmlns="http://www.w3.org/2000/svg"
 width="248.000000pt" height="248.000000pt" viewBox="0 0 248.000000 248.000000"
 preserveAspectRatio="xMidYMid meet">
<metadata>
Created by potrace 1.10, written by Peter Selinger 2001-2011
</metadata>
<g transform="translate(0.000000,248.000000) scale(0.100000,-0.100000)"
fill="#000000" stroke="none">
<path d="M1592 2328 c-5 -7 -12 -53 -15 -103 -22 -363 -28 -430 -34 -436 -5
-4 -35 -9 -68 -10 l-60 -3 4 232 c3 203 2 234 -13 257 -18 27 -59 34 -73 13
-4 -7 -8 -65 -9 -128 0 -63 -1 -176 -2 -251 l-2 -136 -88 -12 c-48 -6 -145
-18 -215 -27 -138 -18 -177 -35 -177 -79 0 -32 24 -48 62 -41 172 31 240 38
252 25 12 -13 57 -142 70 -201 7 -31 16 -28 -152 -47 -52 -5 -100 -15 -108
-22 -18 -15 -18 -53 1 -69 16 -13 15 -13 299 10 103 8 131 8 138 -2 9 -12 3
-136 -6 -145 -2 -2 -88 -13 -192 -24 -200 -20 -234 -31 -234 -73 0 -48 15 -50
217 -29 104 11 191 17 195 14 8 -6 -14 -160 -25 -178 -3 -5 -55 -13 -114 -17
-131 -8 -303 -34 -320 -48 -18 -14 -16 -53 2 -68 16 -14 73 -11 272 11 62 7
115 10 118 7 9 -9 -41 -136 -71 -181 -55 -82 -170 -186 -245 -222 -38 -18 -76
-39 -84 -45 -31 -26 -6 -80 37 -80 44 0 165 70 238 137 84 78 138 148 177 230
15 32 29 60 30 62 1 2 59 -47 129 -108 69 -61 158 -132 198 -156 297 -189 378
-228 486 -233 93 -4 120 10 105 55 -10 26 -16 29 -87 40 -90 13 -189 58 -358
163 -142 88 -176 115 -316 243 -85 78 -107 103 -95 108 23 9 312 31 445 35 92
2 112 5 123 20 17 23 16 36 -1 59 -12 16 -26 18 -127 17 -63 -1 -183 -7 -267
-13 -84 -7 -156 -9 -159 -5 -4 3 0 46 8 94 l14 87 55 7 c30 4 118 14 194 23
150 16 186 30 186 69 0 47 -16 49 -192 30 -90 -10 -179 -18 -198 -18 l-35 -1
-3 72 c-3 61 -1 73 15 81 20 11 284 40 406 45 89 4 114 18 103 62 -10 38 -40
45 -167 35 -63 -4 -116 -7 -118 -5 -2 2 15 37 38 77 23 40 52 94 64 120 25 52
39 58 138 58 76 0 211 19 227 32 15 13 16 50 0 66 -14 14 -81 15 -198 3 -47
-5 -148 -12 -225 -16 l-140 -6 7 103 c18 271 21 417 8 433 -15 18 -54 20 -68
3z m127 -695 c-68 -123 -114 -193 -129 -198 -26 -8 -183 -25 -227 -25 -41 0
-43 1 -43 30 0 16 -13 69 -29 117 -19 56 -26 90 -20 94 6 3 65 12 132 18 67 7
131 14 142 15 11 2 62 4 113 5 l93 1 -32 -57z"/>
<path d="M2048 2232 c-9 -2 -37 -31 -61 -65 -25 -34 -79 -99 -121 -145 -42
-45 -76 -90 -76 -101 0 -28 36 -56 59 -45 34 15 110 93 185 188 90 114 88 109
77 139 -10 25 -33 36 -63 29z"/>
<path d="M702 2198 c-7 -7 -12 -20 -12 -31 0 -10 -32 -114 -71 -230 -111 -333
-294 -684 -448 -859 -49 -55 -54 -92 -16 -110 21 -10 30 -8 53 9 38 28 154
182 219 291 31 50 59 92 63 92 10 0 21 -192 20 -351 -2 -255 -21 -694 -32
-737 -9 -37 -8 -45 7 -62 22 -25 46 -25 73 -2 20 16 22 34 31 252 14 299 14
847 1 924 -5 32 -16 69 -24 81 -14 21 -11 32 39 148 30 69 82 207 115 306 75
225 78 291 15 291 -12 0 -26 -5 -33 -12z"/>
<path d="M932 2088 c-18 -18 -14 -52 9 -82 11 -15 35 -62 53 -106 38 -93 51
-110 80 -110 56 0 59 41 10 158 -51 123 -112 180 -152 140z"/>
</g>
</svg>
