<?xml version="1.0" standalone="no"?>
<!DOCTYPE svg PUBLIC "-//W3C//DTD SVG 20010904//EN"
 "http://www.w3.org/TR/2001/REC-SVG-20010904/DTD/svg10.dtd">
<svg version="1.0" xmlns="http://www.w3.org/2000/svg"
 width="248.000000pt" height="248.000000pt" viewBox="0 0 248.000000 248.000000"
 preserveAspectRatio="xMidYMid meet">
<metadata>
Created by potrace 1.10, written by Peter Selinger 2001-2011
</metadata>
<g transform="translate(0.000000,248.000000) scale(0.100000,-0.100000)"
fill="#000000" stroke="none">
<path d="M380 2275 c-6 -8 -22 -74 -36 -147 -44 -249 -142 -530 -219 -633 -35
-48 -39 -71 -15 -95 23 -23 51 -20 82 8 20 17 105 182 136 262 38 100 102 328
112 402 6 40 16 94 22 120 10 39 9 50 -6 72 -18 29 -56 35 -76 11z"/>
</g>
</svg>
