<?xml version="1.0" standalone="no"?>
<!DOCTYPE svg PUBLIC "-//W3C//DTD SVG 20010904//EN"
 "http://www.w3.org/TR/2001/REC-SVG-20010904/DTD/svg10.dtd">
<svg version="1.0" xmlns="http://www.w3.org/2000/svg"
 width="248.000000pt" height="248.000000pt" viewBox="0 0 248.000000 248.000000"
 preserveAspectRatio="xMidYMid meet">
<metadata>
Created by potrace 1.10, written by Peter Selinger 2001-2011
</metadata>
<g transform="translate(0.000000,248.000000) scale(0.100000,-0.100000)"
fill="#000000" stroke="none">
<path d="M1333 2278 c-4 -7 -8 -67 -9 -133 0 -66 -2 -176 -3 -244 -1 -131 4
-151 44 -151 42 0 46 17 52 259 5 205 4 233 -11 255 -18 28 -59 35 -73 14z"/>
<path d="M702 2198 c-7 -7 -12 -20 -12 -31 0 -10 -32 -114 -71 -230 -111 -333
-294 -684 -448 -859 -49 -55 -54 -92 -16 -110 21 -10 30 -8 53 9 38 28 154
182 219 291 31 50 59 92 63 92 10 0 21 -192 20 -351 -2 -255 -21 -694 -32
-737 -9 -37 -8 -45 7 -62 22 -25 46 -25 73 -2 20 16 22 34 31 252 14 299 14
847 1 924 -5 32 -16 69 -24 81 -14 21 -11 32 39 148 30 69 82 207 115 306 75
225 78 291 15 291 -12 0 -26 -5 -33 -12z"/>
</g>
</svg>
