<?xml version="1.0" standalone="no"?>
<!DOCTYPE svg PUBLIC "-//W3C//DTD SVG 20010904//EN"
 "http://www.w3.org/TR/2001/REC-SVG-20010904/DTD/svg10.dtd">
<svg version="1.0" xmlns="http://www.w3.org/2000/svg"
 width="248.000000pt" height="248.000000pt" viewBox="0 0 248.000000 248.000000"
 preserveAspectRatio="xMidYMid meet">
<metadata>
Created by potrace 1.10, written by Peter Selinger 2001-2011
</metadata>
<g transform="translate(0.000000,248.000000) scale(0.100000,-0.100000)"
fill="#000000" stroke="none">
<path d="M1199 2093 c-10 -12 -15 -60 -17 -184 l-3 -168 -42 -5 c-23 -3 -103
-10 -177 -16 -74 -6 -173 -15 -220 -21 -210 -24 -259 -31 -322 -39 -37 -6 -82
-10 -100 -10 -70 0 -105 -62 -54 -96 22 -14 37 -14 123 -4 54 6 122 15 152 21
30 5 60 9 66 9 10 0 14 -119 18 -507 7 -645 16 -712 103 -793 59 -54 129 -85
229 -102 100 -16 501 -16 640 0 55 6 163 16 240 22 142 12 248 31 272 51 18
16 16 54 -4 74 -12 12 -25 15 -47 10 -55 -12 -159 -24 -251 -30 -49 -3 -128
-11 -175 -17 -47 -7 -211 -12 -370 -12 -247 -1 -293 2 -345 17 -81 25 -130 60
-149 108 -23 57 -36 322 -39 792 l-2 397 30 5 c17 3 109 12 205 20 188 15 371
35 595 65 77 10 194 24 260 30 270 23 379 38 398 53 47 37 13 105 -47 93 -55
-12 -267 -36 -402 -46 -72 -5 -166 -16 -210 -24 -43 -8 -121 -17 -171 -21
l-93 -7 0 154 c0 123 -3 158 -16 176 -18 26 -56 29 -75 5z"/>
</g>
</svg>
