<?xml version="1.0" standalone="no"?>
<!DOCTYPE svg PUBLIC "-//W3C//DTD SVG 20010904//EN"
 "http://www.w3.org/TR/2001/REC-SVG-20010904/DTD/svg10.dtd">
<svg version="1.0" xmlns="http://www.w3.org/2000/svg"
 width="248.000000pt" height="248.000000pt" viewBox="0 0 248.000000 248.000000"
 preserveAspectRatio="xMidYMid meet">
<metadata>
Created by potrace 1.10, written by Peter Selinger 2001-2011
</metadata>
<g transform="translate(0.000000,248.000000) scale(0.100000,-0.100000)"
fill="#000000" stroke="none">
<path d="M895 2339 c-62 -52 -261 -186 -375 -254 -124 -73 -130 -79 -130 -137
0 -29 5 -90 10 -137 6 -47 14 -154 18 -238 7 -127 11 -155 27 -173 26 -29 63
-25 131 16 32 20 68 42 79 48 42 24 112 73 163 113 29 24 60 43 68 43 8 0 46
-29 84 -65 71 -67 97 -77 124 -49 31 30 17 54 -91 162 -60 59 -122 124 -139
145 -20 24 -40 37 -56 37 -53 0 -62 -44 -22 -104 l26 -39 -48 -41 c-26 -22
-89 -67 -138 -98 l-91 -58 -7 78 c-4 42 -12 122 -18 177 -5 55 -10 119 -10
142 l0 42 133 82 c319 197 432 300 385 347 -24 24 -62 12 -123 -39z"/>
<path d="M1873 2269 c-57 -4 -158 -15 -225 -24 -68 -9 -169 -20 -225 -24 -111
-8 -136 -19 -131 -60 5 -41 40 -53 136 -47 45 3 82 3 82 1 0 -2 -15 -39 -34
-82 -57 -133 -126 -265 -183 -347 -56 -82 -64 -119 -32 -139 34 -21 63 1 125
95 91 138 209 378 228 465 l7 31 112 10 c62 6 138 13 170 16 l57 5 0 -44 c0
-58 -22 -159 -61 -281 -31 -98 -94 -240 -112 -251 -5 -3 -15 4 -23 15 -34 49
-115 77 -142 50 -24 -24 -11 -51 51 -113 96 -95 118 -102 167 -57 110 101 258
582 221 718 -19 69 -36 75 -188 63z"/>
<path d="M765 1396 c-14 -20 -14 -41 -5 -151 13 -161 13 -370 0 -549 -9 -121
-8 -142 6 -163 20 -32 64 -28 81 7 13 30 33 286 33 436 0 165 -20 396 -36 422
-19 30 -59 29 -79 -2z"/>
</g>
</svg>
