<?xml version="1.0" standalone="no"?>
<!DOCTYPE svg PUBLIC "-//W3C//DTD SVG 20010904//EN"
 "http://www.w3.org/TR/2001/REC-SVG-20010904/DTD/svg10.dtd">
<svg version="1.0" xmlns="http://www.w3.org/2000/svg"
 width="248.000000pt" height="248.000000pt" viewBox="0 0 248.000000 248.000000"
 preserveAspectRatio="xMidYMid meet">
<metadata>
Created by potrace 1.10, written by Peter Selinger 2001-2011
</metadata>
<g transform="translate(0.000000,248.000000) scale(0.100000,-0.100000)"
fill="#000000" stroke="none">
<path d="M683 2208 c-86 -98 -398 -399 -470 -454 -54 -41 -73 -61 -73 -78 0
-31 16 -43 72 -55 45 -10 205 -76 221 -91 11 -10 -80 -107 -192 -205 -82 -71
-92 -83 -89 -110 5 -52 37 -54 186 -12 71 20 136 37 144 37 13 0 14 -48 12
-368 -2 -203 -8 -435 -14 -516 -11 -160 -6 -186 34 -186 52 0 56 18 66 281 5
134 10 371 10 526 0 326 -15 288 128 326 l93 25 60 -74 c48 -59 66 -74 88 -74
32 0 51 16 51 45 0 11 -26 52 -57 90 -32 38 -87 107 -123 154 -68 89 -106 115
-138 95 -31 -20 -26 -59 12 -102 20 -22 36 -42 36 -45 0 -2 -10 -7 -22 -10
-13 -3 -84 -21 -158 -41 -74 -20 -141 -36 -148 -36 -8 0 58 76 146 169 324
344 368 404 321 434 -35 22 -68 -3 -205 -158 -86 -97 -144 -155 -156 -155 -19
0 -161 53 -188 69 -11 8 11 33 100 117 226 212 370 367 370 400 0 19 -36 54
-55 54 -9 0 -37 -24 -62 -52z"/>
<path d="M682 1058 c-7 -7 -12 -20 -12 -30 0 -20 115 -194 169 -254 20 -22 53
-62 74 -87 21 -26 46 -47 56 -47 21 0 51 30 51 52 0 18 -49 89 -100 143 -21
22 -63 79 -95 128 -31 48 -65 92 -75 97 -25 13 -53 13 -68 -2z"/>
<path d="M316 988 c-8 -13 -38 -88 -66 -168 -35 -101 -67 -171 -105 -231 -30
-48 -55 -93 -55 -101 0 -19 32 -48 53 -48 22 0 78 71 125 160 43 80 132 326
132 364 0 47 -58 64 -84 24z"/>
</g>
</svg>
