<?xml version="1.0" standalone="no"?>
<!DOCTYPE svg PUBLIC "-//W3C//DTD SVG 20010904//EN"
 "http://www.w3.org/TR/2001/REC-SVG-20010904/DTD/svg10.dtd">
<svg version="1.0" xmlns="http://www.w3.org/2000/svg"
 width="248.000000pt" height="248.000000pt" viewBox="0 0 248.000000 248.000000"
 preserveAspectRatio="xMidYMid meet">
<metadata>
Created by potrace 1.10, written by Peter Selinger 2001-2011
</metadata>
<g transform="translate(0.000000,248.000000) scale(0.100000,-0.100000)"
fill="#000000" stroke="none">
<path d="M1199 2093 c-10 -12 -15 -60 -17 -184 l-3 -168 -42 -5 c-23 -3 -103
-10 -177 -16 -74 -6 -173 -15 -220 -21 -210 -24 -259 -31 -322 -39 -37 -6 -82
-10 -100 -10 -71 0 -105 -62 -53 -96 22 -14 36 -15 112 -5 49 6 124 15 168 21
44 5 121 14 170 20 50 6 164 18 255 25 180 15 368 36 585 65 77 10 194 24 260
30 270 23 379 38 398 53 47 37 13 105 -47 93 -55 -12 -267 -36 -402 -46 -72
-5 -166 -16 -210 -24 -43 -8 -121 -17 -171 -21 l-93 -7 0 154 c0 123 -3 158
-16 176 -18 26 -56 29 -75 5z"/>
</g>
</svg>
