<?xml version="1.0" standalone="no"?>
<!DOCTYPE svg PUBLIC "-//W3C//DTD SVG 20010904//EN"
 "http://www.w3.org/TR/2001/REC-SVG-20010904/DTD/svg10.dtd">
<svg version="1.0" xmlns="http://www.w3.org/2000/svg"
 width="248.000000pt" height="248.000000pt" viewBox="0 0 248.000000 248.000000"
 preserveAspectRatio="xMidYMid meet">
<metadata>
Created by potrace 1.10, written by Peter Selinger 2001-2011
</metadata>
<g transform="translate(0.000000,248.000000) scale(0.100000,-0.100000)"
fill="#000000" stroke="none">
<path d="M683 2208 c-86 -98 -398 -399 -470 -454 -54 -41 -73 -61 -73 -78 0
-31 16 -43 71 -55 25 -6 92 -31 149 -55 123 -53 174 -59 191 -22 18 38 0 54
-114 100 -59 24 -110 46 -114 49 -3 4 45 55 108 114 225 211 369 367 369 399
0 19 -36 54 -55 54 -9 0 -37 -24 -62 -52z"/>
</g>
</svg>
