<?xml version="1.0" standalone="no"?>
<!DOCTYPE svg PUBLIC "-//W3C//DTD SVG 20010904//EN"
 "http://www.w3.org/TR/2001/REC-SVG-20010904/DTD/svg10.dtd">
<svg version="1.0" xmlns="http://www.w3.org/2000/svg"
 width="248.000000pt" height="248.000000pt" viewBox="0 0 248.000000 248.000000"
 preserveAspectRatio="xMidYMid meet">
<metadata>
Created by potrace 1.10, written by Peter Selinger 2001-2011
</metadata>
<g transform="translate(0.000000,248.000000) scale(0.100000,-0.100000)"
fill="#000000" stroke="none">
<path d="M1549 2363 c-10 -11 -15 -61 -19 -172 l-5 -156 -45 -6 c-25 -4 -106
-12 -180 -19 -74 -7 -141 -17 -147 -22 -16 -13 -17 -50 -1 -66 15 -15 136 -16
267 -2 52 6 98 7 101 3 3 -5 4 -36 2 -70 l-4 -62 -46 -6 c-159 -22 -286 -46
-298 -56 -17 -14 -18 -51 -2 -67 16 -16 70 -14 213 7 72 11 122 15 126 9 7
-12 -1 -161 -10 -169 -7 -7 -163 -32 -335 -54 -110 -14 -123 -18 -126 -45 -8
-60 15 -74 107 -60 37 5 145 21 238 35 223 33 467 54 808 70 76 3 99 17 95 54
-5 46 -32 49 -268 36 -118 -7 -259 -16 -312 -20 l-98 -7 0 75 c0 99 4 107 51
107 37 0 233 24 292 36 51 10 60 76 13 94 -14 5 -70 1 -147 -11 -68 -10 -141
-18 -161 -19 l-38 0 0 63 c0 34 4 67 8 73 4 6 110 23 241 38 248 27 281 37
281 80 0 45 -20 51 -138 37 -249 -29 -375 -41 -384 -35 -7 5 -8 55 -3 151 7
155 3 173 -40 173 -12 0 -29 -7 -36 -17z"/>
<path d="M683 2208 c-86 -98 -398 -399 -470 -454 -54 -41 -73 -61 -73 -78 0
-31 16 -43 72 -55 45 -10 205 -76 221 -91 11 -10 -80 -107 -192 -205 -82 -71
-92 -83 -89 -110 5 -52 37 -54 186 -12 71 20 136 37 144 37 13 0 14 -48 12
-368 -2 -203 -8 -435 -14 -516 -11 -160 -6 -186 34 -186 52 0 56 18 66 281 5
134 10 371 10 526 0 326 -15 288 128 326 l93 25 60 -74 c48 -59 66 -74 88 -74
32 0 51 16 51 45 0 11 -26 52 -57 90 -32 38 -87 107 -123 154 -68 89 -106 115
-138 95 -31 -20 -26 -59 12 -102 20 -22 36 -42 36 -45 0 -2 -10 -7 -22 -10
-13 -3 -84 -21 -158 -41 -74 -20 -141 -36 -148 -36 -8 0 58 76 146 169 324
344 368 404 321 434 -35 22 -68 -3 -205 -158 -86 -97 -144 -155 -156 -155 -19
0 -161 53 -188 69 -11 8 11 33 100 117 226 212 370 367 370 400 0 19 -36 54
-55 54 -9 0 -37 -24 -62 -52z"/>
<path d="M1890 1297 c-3 -3 -97 -10 -210 -16 -180 -10 -288 -21 -368 -37 -35
-7 -47 -44 -28 -82 14 -27 16 -82 16 -400 0 -387 1 -392 45 -392 44 0 45 5 45
395 0 203 4 375 8 381 8 14 156 31 341 40 l134 7 -6 -24 c-4 -13 -12 -130 -17
-259 -6 -129 -15 -272 -20 -318 -10 -90 -3 -127 28 -136 61 -20 69 12 82 332
5 119 14 267 21 327 12 121 13 155 1 167 -10 10 -66 21 -72 15z"/>
<path d="M682 1058 c-7 -7 -12 -20 -12 -30 0 -20 115 -194 169 -254 20 -22 53
-62 74 -87 21 -26 46 -47 56 -47 21 0 51 30 51 52 0 18 -49 89 -100 143 -21
22 -63 79 -95 128 -31 48 -65 92 -75 97 -25 13 -53 13 -68 -2z"/>
<path d="M316 988 c-8 -13 -38 -88 -66 -168 -35 -101 -67 -171 -105 -231 -30
-48 -55 -93 -55 -101 0 -19 32 -48 53 -48 22 0 78 71 125 160 43 80 132 326
132 364 0 47 -58 64 -84 24z"/>
</g>
</svg>
