<?xml version="1.0" standalone="no"?>
<!DOCTYPE svg PUBLIC "-//W3C//DTD SVG 20010904//EN"
 "http://www.w3.org/TR/2001/REC-SVG-20010904/DTD/svg10.dtd">
<svg version="1.0" xmlns="http://www.w3.org/2000/svg"
 width="248.000000pt" height="248.000000pt" viewBox="0 0 248.000000 248.000000"
 preserveAspectRatio="xMidYMid meet">
<metadata>
Created by potrace 1.10, written by Peter Selinger 2001-2011
</metadata>
<g transform="translate(0.000000,248.000000) scale(0.100000,-0.100000)"
fill="#000000" stroke="none">
<path d="M1600 2324 c-14 -2 -113 -8 -220 -14 -107 -5 -265 -17 -350 -25 -85
-9 -206 -19 -268 -24 -136 -9 -147 -16 -144 -94 1 -28 13 -126 27 -217 14 -91
30 -199 36 -240 18 -131 32 -195 45 -209 11 -12 35 -13 161 -2 81 6 182 16
223 21 122 16 359 30 499 30 101 0 138 -4 165 -17 49 -23 81 -7 95 44 17 63
58 288 87 471 42 269 32 283 -198 281 -73 -1 -144 -4 -158 -5z m270 -131 c0
-20 -24 -173 -30 -189 0 -1 -23 1 -52 4 -28 3 -126 -2 -217 -11 -91 -9 -242
-21 -336 -27 -93 -6 -240 -17 -325 -25 -85 -7 -156 -13 -157 -12 -5 5 -26 207
-22 211 20 21 700 72 987 74 l152 2 0 -27z m-50 -320 c0 -13 -4 -43 -10 -66
-5 -23 -14 -67 -20 -98 l-11 -57 -127 5 c-127 5 -382 -12 -778 -52 l-71 -8
-12 84 c-7 46 -14 98 -17 115 l-4 30 197 18 c109 10 272 21 363 26 91 5 208
13 260 19 128 15 159 17 198 12 26 -3 32 -7 32 -28z"/>
<path d="M1400 1419 c-113 -4 -232 -13 -265 -20 -33 -6 -117 -14 -187 -18
-155 -8 -174 -19 -164 -91 3 -25 10 -82 15 -127 5 -45 13 -276 17 -513 6 -390
9 -434 25 -453 16 -21 28 -22 226 -28 114 -4 296 -7 404 -8 125 -1 199 -5 206
-12 6 -6 21 -9 34 -7 50 7 52 28 61 518 4 250 12 509 17 575 9 136 5 165 -30
182 -26 14 -53 14 -359 2z m286 -136 c-3 -21 -8 -73 -12 -115 l-6 -78 -86 0
c-48 0 -215 -9 -371 -20 -157 -11 -287 -18 -289 -15 -3 2 -8 42 -12 89 -5 46
-11 93 -14 104 -6 17 3 20 111 32 164 18 404 34 556 38 l127 3 -4 -38z m-17
-415 c-2 -147 -6 -163 -44 -164 -16 -1 -136 -7 -265 -12 -129 -6 -251 -16
-270 -21 -19 -5 -62 -12 -96 -16 l-61 -7 -7 32 c-6 30 -9 259 -3 261 16 6 506
37 610 38 l137 1 -1 -112z m-9 -433 l0 -165 -183 0 c-101 0 -266 3 -365 7
l-182 6 0 128 c0 125 1 129 23 133 120 22 250 37 337 37 58 1 148 5 200 9 52
3 112 7 133 8 l37 2 0 -165z"/>
</g>
</svg>
