<?xml version="1.0" standalone="no"?>
<!DOCTYPE svg PUBLIC "-//W3C//DTD SVG 20010904//EN"
 "http://www.w3.org/TR/2001/REC-SVG-20010904/DTD/svg10.dtd">
<svg version="1.0" xmlns="http://www.w3.org/2000/svg"
 width="248.000000pt" height="248.000000pt" viewBox="0 0 248.000000 248.000000"
 preserveAspectRatio="xMidYMid meet">
<metadata>
Created by potrace 1.10, written by Peter Selinger 2001-2011
</metadata>
<g transform="translate(0.000000,248.000000) scale(0.100000,-0.100000)"
fill="#000000" stroke="none">
<path d="M1600 2324 c-14 -2 -113 -8 -220 -14 -107 -5 -265 -17 -350 -25 -85
-9 -206 -19 -268 -24 -136 -9 -147 -16 -144 -94 1 -28 13 -124 26 -212 14 -88
32 -209 41 -270 17 -118 32 -148 73 -143 42 5 47 26 33 135 -7 54 -14 110 -17
124 l-5 25 198 18 c109 10 275 21 368 26 94 5 204 13 245 19 74 9 145 14 208
12 41 -1 41 -3 1 -195 l-30 -149 20 -21 c31 -31 72 -13 88 39 17 54 56 263 89
473 42 269 32 283 -198 281 -73 -1 -144 -4 -158 -5z m270 -131 c0 -20 -24
-173 -30 -189 0 -1 -23 1 -52 4 -28 3 -126 -2 -217 -11 -91 -9 -242 -21 -336
-27 -93 -6 -240 -17 -325 -25 -85 -7 -156 -13 -157 -12 -5 5 -26 207 -22 211
20 21 700 72 987 74 l152 2 0 -27z"/>
</g>
</svg>
