<?xml version="1.0" standalone="no"?>
<!DOCTYPE svg PUBLIC "-//W3C//DTD SVG 20010904//EN"
 "http://www.w3.org/TR/2001/REC-SVG-20010904/DTD/svg10.dtd">
<svg version="1.0" xmlns="http://www.w3.org/2000/svg"
 width="248.000000pt" height="248.000000pt" viewBox="0 0 248.000000 248.000000"
 preserveAspectRatio="xMidYMid meet">
<metadata>
Created by potrace 1.10, written by Peter Selinger 2001-2011
</metadata>
<g transform="translate(0.000000,248.000000) scale(0.100000,-0.100000)"
fill="#000000" stroke="none">
<path d="M620 2310 c-17 -17 -19 -27 -13 -58 9 -42 5 -220 -5 -272 l-8 -34
-223 -42 c-176 -32 -227 -45 -238 -60 -7 -10 -11 -25 -8 -32 3 -8 5 -18 5 -23
0 -18 47 -28 82 -18 18 5 177 34 353 65 594 102 589 101 583 151 -6 54 2 54
-365 -11 -40 -7 -73 -10 -74 -7 0 3 0 77 1 163 1 146 0 158 -19 177 -26 26
-46 26 -71 1z"/>
</g>
</svg>
