<?xml version="1.0" standalone="no"?>
<!DOCTYPE svg PUBLIC "-//W3C//DTD SVG 20010904//EN"
 "http://www.w3.org/TR/2001/REC-SVG-20010904/DTD/svg10.dtd">
<svg version="1.0" xmlns="http://www.w3.org/2000/svg"
 width="248.000000pt" height="248.000000pt" viewBox="0 0 248.000000 248.000000"
 preserveAspectRatio="xMidYMid meet">
<metadata>
Created by potrace 1.10, written by Peter Selinger 2001-2011
</metadata>
<g transform="translate(0.000000,248.000000) scale(0.100000,-0.100000)"
fill="#000000" stroke="none">
<path d="M1045 1958 c-27 -5 -104 -20 -170 -33 -66 -13 -140 -26 -165 -30 -25
-3 -103 -15 -174 -25 -70 -11 -134 -25 -142 -31 -22 -18 -17 -57 11 -75 19
-12 37 -15 72 -10 108 15 246 38 378 62 293 53 305 57 305 99 0 42 -40 57
-115 43z"/>
<path d="M1950 1707 c-3 -2 -39 -7 -80 -11 -156 -12 -412 -47 -665 -90 -110
-19 -238 -39 -285 -45 -377 -48 -631 -91 -657 -112 -22 -19 -12 -62 17 -75 20
-9 48 -8 135 7 316 54 281 62 277 -63 -6 -167 18 -770 31 -798 14 -30 44 -36
72 -16 19 14 20 24 17 198 -10 555 -17 686 -35 705 -9 11 -17 22 -17 25 0 3
26 8 58 11 116 12 232 29 422 63 107 19 236 39 285 45 50 6 122 15 160 20 39
5 142 15 229 23 133 11 162 16 173 32 32 44 3 76 -73 82 -33 2 -61 2 -64 -1z"/>
</g>
</svg>
