<?xml version="1.0" standalone="no"?>
<!DOCTYPE svg PUBLIC "-//W3C//DTD SVG 20010904//EN"
 "http://www.w3.org/TR/2001/REC-SVG-20010904/DTD/svg10.dtd">
<svg version="1.0" xmlns="http://www.w3.org/2000/svg"
 width="248.000000pt" height="248.000000pt" viewBox="0 0 248.000000 248.000000"
 preserveAspectRatio="xMidYMid meet">
<metadata>
Created by potrace 1.10, written by Peter Selinger 2001-2011
</metadata>
<g transform="translate(0.000000,248.000000) scale(0.100000,-0.100000)"
fill="#000000" stroke="none">
<path d="M1045 1958 c-27 -5 -104 -20 -170 -33 -66 -13 -140 -26 -165 -30 -25
-3 -103 -15 -174 -25 -70 -11 -134 -25 -142 -31 -22 -18 -17 -57 11 -75 19
-12 37 -15 72 -10 108 15 246 38 378 62 293 53 305 57 305 99 0 42 -40 57
-115 43z"/>
</g>
</svg>
