<?xml version="1.0" standalone="no"?>
<!DOCTYPE svg PUBLIC "-//W3C//DTD SVG 20010904//EN"
 "http://www.w3.org/TR/2001/REC-SVG-20010904/DTD/svg10.dtd">
<svg version="1.0" xmlns="http://www.w3.org/2000/svg"
 width="248.000000pt" height="248.000000pt" viewBox="0 0 248.000000 248.000000"
 preserveAspectRatio="xMidYMid meet">
<metadata>
Created by potrace 1.10, written by Peter Selinger 2001-2011
</metadata>
<g transform="translate(0.000000,248.000000) scale(0.100000,-0.100000)"
fill="#000000" stroke="none">
<path d="M1601 2295 c-84 -7 -158 -18 -164 -24 -7 -7 -10 -127 -9 -383 1 -342
2 -374 18 -385 23 -17 36 -16 59 1 17 12 19 27 17 180 -2 126 1 168 10 171 48
16 499 42 543 31 l28 -7 -8 -181 c-4 -99 -7 -382 -7 -627 -1 -496 -10 -827
-24 -841 -9 -9 -136 48 -159 71 -13 13 -59 11 -73 -3 -22 -22 -13 -56 21 -82
88 -67 234 -114 273 -88 43 28 53 190 54 877 1 248 6 556 12 685 5 129 9 253
9 275 -1 22 6 95 15 163 13 89 15 128 8 140 -6 9 -35 22 -65 29 -71 15 -365
14 -558 -2z m506 -94 c18 -9 20 -15 12 -48 -5 -21 -9 -63 -9 -93 0 -30 -4 -60
-8 -66 -4 -7 -85 -13 -232 -17 -124 -4 -253 -10 -287 -13 l-62 -7 2 114 2 114
40 7 c136 25 502 31 542 9z"/>
<path d="M940 2250 c-222 -10 -508 -48 -536 -71 -10 -8 -14 -22 -10 -38 24
-116 26 -167 22 -519 -3 -207 -10 -451 -16 -542 -18 -273 -24 -818 -10 -835
15 -18 54 -20 68 -2 6 7 12 122 15 277 4 146 11 335 16 420 6 85 13 226 17
313 6 130 10 159 23 166 49 26 370 80 472 81 26 0 51 6 57 13 13 16 38 171 47
292 3 50 16 155 27 235 11 80 21 155 20 168 0 25 -28 52 -52 50 -8 -1 -80 -5
-160 -8z m96 -104 c3 -8 0 -61 -8 -117 l-13 -103 -60 -13 c-52 -10 -345 -44
-415 -47 l-25 -1 -3 114 c-1 63 1 118 6 123 4 4 71 15 147 23 77 9 165 19 195
24 93 14 170 13 176 -3z m-32 -334 c4 -7 -21 -202 -27 -208 -1 -1 -47 -7 -102
-14 -55 -6 -156 -23 -224 -36 -96 -20 -126 -23 -132 -13 -10 18 -11 207 0 213
12 8 119 22 300 41 79 8 146 17 149 20 8 8 30 6 36 -3z"/>
</g>
</svg>
