<?xml version="1.0" standalone="no"?>
<!DOCTYPE svg PUBLIC "-//W3C//DTD SVG 20010904//EN"
 "http://www.w3.org/TR/2001/REC-SVG-20010904/DTD/svg10.dtd">
<svg version="1.0" xmlns="http://www.w3.org/2000/svg"
 width="248.000000pt" height="248.000000pt" viewBox="0 0 248.000000 248.000000"
 preserveAspectRatio="xMidYMid meet">
<metadata>
Created by potrace 1.10, written by Peter Selinger 2001-2011
</metadata>
<g transform="translate(0.000000,248.000000) scale(0.100000,-0.100000)"
fill="#000000" stroke="none">
<path d="M940 2250 c-222 -10 -508 -48 -536 -71 -10 -8 -14 -22 -10 -38 24
-116 26 -167 22 -519 -3 -207 -10 -451 -16 -542 -18 -273 -24 -818 -10 -835
15 -18 54 -19 68 -2 7 8 12 94 13 234 1 121 5 263 10 314 15 185 29 528 30
741 0 120 4 220 9 223 10 6 197 30 310 40 41 4 95 11 119 16 24 6 48 6 52 2 5
-5 -1 -70 -12 -146 -17 -110 -19 -140 -9 -152 15 -18 64 -20 78 -2 13 16 38
171 47 292 3 50 16 155 27 235 11 80 21 155 20 168 0 25 -28 52 -52 50 -8 -1
-80 -5 -160 -8z m96 -104 c3 -8 0 -61 -8 -117 l-13 -103 -60 -13 c-52 -10
-345 -44 -415 -47 l-25 -1 -3 114 c-1 63 1 118 6 123 4 4 71 15 147 23 77 9
165 19 195 24 93 14 170 13 176 -3z"/>
</g>
</svg>
