<?xml version="1.0" standalone="no"?>
<!DOCTYPE svg PUBLIC "-//W3C//DTD SVG 20010904//EN"
 "http://www.w3.org/TR/2001/REC-SVG-20010904/DTD/svg10.dtd">
<svg version="1.0" xmlns="http://www.w3.org/2000/svg"
 width="248.000000pt" height="248.000000pt" viewBox="0 0 248.000000 248.000000"
 preserveAspectRatio="xMidYMid meet">
<metadata>
Created by potrace 1.10, written by Peter Selinger 2001-2011
</metadata>
<g transform="translate(0.000000,248.000000) scale(0.100000,-0.100000)"
fill="#000000" stroke="none">
<path d="M424 2178 c-5 -7 -9 -218 -10 -468 -1 -250 -7 -531 -13 -625 -19
-269 -26 -822 -11 -840 15 -18 54 -19 68 -2 7 8 12 94 13 234 1 121 5 263 10
314 19 227 30 554 30 943 0 380 -2 420 -17 437 -19 22 -59 25 -70 7z"/>
</g>
</svg>
