<?xml version="1.0" standalone="no"?>
<!DOCTYPE svg PUBLIC "-//W3C//DTD SVG 20010904//EN"
 "http://www.w3.org/TR/2001/REC-SVG-20010904/DTD/svg10.dtd">
<svg version="1.0" xmlns="http://www.w3.org/2000/svg"
 width="248.000000pt" height="248.000000pt" viewBox="0 0 248.000000 248.000000"
 preserveAspectRatio="xMidYMid meet">
<metadata>
Created by potrace 1.10, written by Peter Selinger 2001-2011
</metadata>
<g transform="translate(0.000000,248.000000) scale(0.100000,-0.100000)"
fill="#000000" stroke="none">
<path d="M1124 2349 c-28 -10 -36 -33 -29 -83 6 -45 -18 -352 -28 -363 -4 -3
-55 -10 -114 -15 -253 -20 -699 -71 -710 -80 -22 -18 -15 -56 12 -74 23 -15
36 -15 113 -5 139 18 355 39 682 67 168 14 333 28 368 31 44 4 62 2 62 -6 0
-28 -45 -143 -89 -226 -56 -107 -262 -413 -341 -505 -31 -36 -71 -85 -90 -110
-99 -130 -328 -333 -440 -390 -61 -31 -232 -78 -311 -86 -82 -7 -99 -16 -99
-49 0 -37 23 -47 105 -46 87 1 222 36 330 86 142 65 350 241 480 405 32 41 82
102 111 135 81 95 319 455 367 557 25 51 55 128 67 170 21 73 25 78 54 83 71
11 250 26 376 32 74 3 141 10 148 16 15 12 16 49 0 65 -27 27 -347 11 -805
-38 -50 -6 -110 -10 -133 -10 -41 0 -41 0 -35 33 11 57 22 361 14 383 -9 25
-36 34 -65 23z"/>
</g>
</svg>
