<?xml version="1.0" standalone="no"?>
<!DOCTYPE svg PUBLIC "-//W3C//DTD SVG 20010904//EN"
 "http://www.w3.org/TR/2001/REC-SVG-20010904/DTD/svg10.dtd">
<svg version="1.0" xmlns="http://www.w3.org/2000/svg"
 width="248.000000pt" height="248.000000pt" viewBox="0 0 248.000000 248.000000"
 preserveAspectRatio="xMidYMid meet">
<metadata>
Created by potrace 1.10, written by Peter Selinger 2001-2011
</metadata>
<g transform="translate(0.000000,248.000000) scale(0.100000,-0.100000)"
fill="#000000" stroke="none">
<path d="M610 2320 c-30 -5 -118 -16 -195 -25 -77 -10 -149 -23 -160 -30 -19
-12 -20 -21 -16 -232 2 -121 -2 -287 -8 -369 -6 -82 -16 -207 -22 -279 -5 -71
-14 -211 -19 -310 -21 -399 -33 -488 -97 -772 -14 -61 -23 -118 -20 -127 15
-37 77 -32 95 8 12 28 47 169 57 236 4 25 15 89 26 143 11 54 24 173 30 265 6
92 12 168 14 170 8 9 314 66 320 60 2 -2 1 -179 -2 -394 l-6 -391 -27 15 c-25
15 -30 14 -54 -1 -40 -27 -33 -54 32 -119 64 -63 97 -73 131 -39 11 11 22 39
25 63 5 46 27 1603 26 1919 0 137 -3 189 -13 197 -20 17 -58 21 -117 12z m9
-730 c-10 -7 -261 -51 -283 -50 -5 0 -5 44 0 108 5 59 9 202 9 319 l0 212 80
11 c44 6 107 14 140 18 l60 7 3 -309 c2 -217 -1 -312 -9 -316z m1 -264 l0
-155 -52 -10 c-177 -34 -263 -49 -266 -46 -5 4 17 307 22 312 2 2 59 13 127
24 68 11 126 22 128 25 2 2 13 4 23 4 17 0 18 -11 18 -154z"/>
</g>
</svg>
