<?xml version="1.0" standalone="no"?>
<!DOCTYPE svg PUBLIC "-//W3C//DTD SVG 20010904//EN"
 "http://www.w3.org/TR/2001/REC-SVG-20010904/DTD/svg10.dtd">
<svg version="1.0" xmlns="http://www.w3.org/2000/svg"
 width="248.000000pt" height="248.000000pt" viewBox="0 0 248.000000 248.000000"
 preserveAspectRatio="xMidYMid meet">
<metadata>
Created by potrace 1.10, written by Peter Selinger 2001-2011
</metadata>
<g transform="translate(0.000000,248.000000) scale(0.100000,-0.100000)"
fill="#000000" stroke="none">
<path d="M610 2320 c-30 -5 -118 -16 -195 -25 -77 -10 -149 -23 -160 -30 -19
-12 -20 -21 -16 -232 2 -121 -2 -287 -8 -369 -6 -82 -16 -207 -22 -279 -5 -71
-14 -211 -19 -310 -21 -399 -33 -488 -97 -772 -14 -61 -23 -118 -20 -127 15
-37 77 -32 95 8 12 28 47 169 57 236 4 25 15 89 26 142 19 94 29 213 49 563 9
166 19 306 42 590 6 77 9 213 7 302 l-4 162 85 11 c47 6 112 15 144 19 l59 8
-6 -546 c-4 -300 -10 -738 -14 -972 l-6 -426 -27 15 c-25 15 -30 14 -54 -1
-40 -27 -33 -54 32 -119 64 -63 97 -73 131 -39 11 11 22 39 25 63 5 46 27
1603 26 1919 0 137 -3 189 -13 197 -20 17 -58 21 -117 12z"/>
</g>
</svg>
