<?xml version="1.0" standalone="no"?>
<!DOCTYPE svg PUBLIC "-//W3C//DTD SVG 20010904//EN"
 "http://www.w3.org/TR/2001/REC-SVG-20010904/DTD/svg10.dtd">
<svg version="1.0" xmlns="http://www.w3.org/2000/svg"
 width="248.000000pt" height="248.000000pt" viewBox="0 0 248.000000 248.000000"
 preserveAspectRatio="xMidYMid meet">
<metadata>
Created by potrace 1.10, written by Peter Selinger 2001-2011
</metadata>
<g transform="translate(0.000000,248.000000) scale(0.100000,-0.100000)"
fill="#000000" stroke="none">
<path d="M451 2217 c-6 -8 -24 -65 -40 -128 -16 -63 -40 -145 -54 -184 -34
-99 -127 -279 -180 -351 -75 -102 -91 -146 -65 -172 7 -7 24 -12 39 -12 23 0
37 16 99 107 121 177 207 369 261 578 25 100 27 138 9 160 -15 19 -54 19 -69
2z"/>
</g>
</svg>
