<?xml version="1.0" standalone="no"?>
<!DOCTYPE svg PUBLIC "-//W3C//DTD SVG 20010904//EN"
 "http://www.w3.org/TR/2001/REC-SVG-20010904/DTD/svg10.dtd">
<svg version="1.0" xmlns="http://www.w3.org/2000/svg"
 width="248.000000pt" height="248.000000pt" viewBox="0 0 248.000000 248.000000"
 preserveAspectRatio="xMidYMid meet">
<metadata>
Created by potrace 1.10, written by Peter Selinger 2001-2011
</metadata>
<g transform="translate(0.000000,248.000000) scale(0.100000,-0.100000)"
fill="#000000" stroke="none">
<path d="M696 2334 c-14 -13 -16 -54 -16 -298 l0 -282 -141 -27 c-78 -16 -143
-26 -146 -23 -3 3 11 42 30 88 57 134 117 346 110 388 -5 33 -22 50 -48 50
-34 0 -42 -16 -74 -141 -16 -63 -40 -145 -54 -184 -34 -99 -127 -279 -180
-351 -75 -102 -91 -146 -65 -172 7 -7 24 -12 39 -12 23 0 37 15 101 109 l73
109 55 7 c30 4 109 17 175 30 66 13 122 21 124 19 2 -2 -1 -133 -7 -291 -7
-159 -15 -425 -18 -593 -3 -168 -9 -352 -14 -410 -8 -117 -1 -147 38 -157 20
-5 31 0 48 20 24 28 24 22 44 874 5 216 13 435 16 487 l7 94 88 17 c94 17 222
57 246 76 22 19 12 61 -19 78 -24 14 -31 13 -82 -8 -30 -12 -95 -31 -143 -40
l-88 -18 -5 272 c-5 290 -8 305 -56 305 -12 0 -30 -7 -38 -16z"/>
</g>
</svg>
