<?xml version="1.0" standalone="no"?>
<!DOCTYPE svg PUBLIC "-//W3C//DTD SVG 20010904//EN"
 "http://www.w3.org/TR/2001/REC-SVG-20010904/DTD/svg10.dtd">
<svg version="1.0" xmlns="http://www.w3.org/2000/svg"
 width="248.000000pt" height="248.000000pt" viewBox="0 0 248.000000 248.000000"
 preserveAspectRatio="xMidYMid meet">
<metadata>
Created by potrace 1.10, written by Peter Selinger 2001-2011
</metadata>
<g transform="translate(0.000000,248.000000) scale(0.100000,-0.100000)"
fill="#000000" stroke="none">
<path d="M696 2334 c-14 -13 -16 -54 -16 -298 l0 -282 -141 -27 c-78 -16 -143
-26 -146 -23 -3 3 11 42 30 88 57 134 117 346 110 388 -5 33 -22 50 -48 50
-34 0 -42 -16 -74 -141 -16 -63 -40 -145 -54 -184 -34 -99 -127 -279 -180
-351 -75 -102 -91 -146 -65 -172 7 -7 24 -12 39 -12 23 0 37 15 101 109 l73
109 55 7 c30 4 109 17 175 30 66 13 122 21 124 19 5 -5 -19 -576 -25 -586 -10
-16 -171 -124 -281 -187 -196 -113 -290 -177 -296 -202 -8 -29 17 -69 42 -69
11 0 55 25 99 55 44 30 139 89 212 131 73 42 155 92 181 111 l48 34 -5 -233
c-3 -128 -9 -282 -13 -343 -9 -122 -2 -152 37 -162 19 -5 31 0 47 19 20 23 22
41 28 199 4 96 8 237 8 314 1 77 4 173 8 213 l6 72 95 68 c82 59 95 73 98 100
3 26 -1 34 -22 43 -27 12 -38 8 -150 -66 l-29 -19 7 169 c3 94 9 214 13 267
l6 96 88 17 c94 17 222 57 246 76 22 19 12 61 -19 78 -24 14 -31 13 -82 -8
-30 -12 -95 -31 -143 -40 l-88 -18 -5 272 c-5 290 -8 305 -56 305 -12 0 -30
-7 -38 -16z"/>
</g>
</svg>
