<?xml version="1.0" standalone="no"?>
<!DOCTYPE svg PUBLIC "-//W3C//DTD SVG 20010904//EN"
 "http://www.w3.org/TR/2001/REC-SVG-20010904/DTD/svg10.dtd">
<svg version="1.0" xmlns="http://www.w3.org/2000/svg"
 width="248.000000pt" height="248.000000pt" viewBox="0 0 248.000000 248.000000"
 preserveAspectRatio="xMidYMid meet">
<metadata>
Created by potrace 1.10, written by Peter Selinger 2001-2011
</metadata>
<g transform="translate(0.000000,248.000000) scale(0.100000,-0.100000)"
fill="#000000" stroke="none">
<path d="M576 2278 c-11 -16 -16 -46 -16 -104 0 -44 -3 -142 -7 -217 l-6 -137
-41 0 c-68 0 -250 -23 -263 -33 -19 -14 -16 -52 7 -72 18 -16 31 -17 157 -8
76 6 138 10 138 9 0 -1 -1 -136 -3 -302 l-3 -301 -142 -48 c-78 -26 -148 -52
-155 -58 -22 -17 -10 -60 20 -75 24 -11 40 -8 148 28 67 22 124 40 126 40 2 0
4 -129 4 -287 l0 -288 -30 -17 c-17 -9 -30 -25 -30 -35 1 -23 60 -123 81 -136
25 -16 68 0 79 29 6 15 10 183 10 397 l0 372 43 17 c23 9 76 27 117 40 68 21
75 26 78 51 4 36 -13 57 -48 57 -23 0 -124 -27 -176 -47 -20 -7 -21 559 -1
575 6 5 44 13 82 16 163 16 206 36 190 87 -10 29 -42 38 -110 29 -33 -4 -84
-11 -113 -14 l-54 -7 7 205 c7 182 6 208 -9 231 -21 32 -59 33 -80 3z"/>
<path d="M1334 2175 c-17 -27 -16 -73 5 -205 5 -30 5 -59 1 -63 -4 -5 -55 -12
-113 -16 -115 -8 -140 -19 -135 -60 6 -48 81 -63 198 -41 29 6 55 9 57 7 1 -2
11 -77 20 -167 19 -176 25 -189 76 -176 38 9 45 48 30 169 -14 121 -16 187 -5
187 4 0 70 7 147 15 77 8 170 15 206 15 l65 0 -26 -147 c-15 -82 -24 -157 -20
-167 4 -11 16 -26 27 -33 17 -12 23 -11 43 5 19 15 27 44 52 178 16 87 33 163
38 168 5 5 52 12 104 17 52 4 104 13 115 18 26 14 35 45 20 72 -11 21 -16 22
-120 17 l-110 -6 8 62 c16 124 5 166 -42 166 -35 0 -46 -23 -56 -112 -16 -138
4 -123 -176 -137 -87 -7 -187 -15 -223 -18 l-65 -5 -13 78 c-6 44 -12 97 -12
119 0 77 -60 114 -96 60z"/>
<path d="M1635 1364 c-386 -33 -605 -60 -622 -77 -15 -15 -15 -34 6 -254 43
-458 73 -732 87 -781 7 -25 52 -29 219 -21 247 12 713 11 720 -1 11 -18 54
-11 69 13 9 12 36 137 61 277 43 246 66 362 98 500 22 91 40 255 32 289 -3 16
-15 37 -27 47 -18 17 -41 19 -252 20 -127 1 -303 -4 -391 -12z m565 -121 c0
-42 -28 -212 -43 -268 l-14 -50 -154 -6 c-85 -3 -182 -9 -215 -13 l-62 -8 -7
101 c-10 135 1 258 23 264 10 3 119 5 245 6 l227 1 0 -27z m-603 -173 l0 -180
-31 -1 c-17 0 -40 -2 -51 -5 -37 -7 -366 -37 -369 -33 -4 3 -36 322 -36 350 0
5 15 9 33 9 38 0 222 19 292 30 28 4 75 8 106 9 l55 1 1 -180z m523 -264 c0
-2 -5 -28 -10 -57 -6 -30 -22 -119 -36 -199 -13 -80 -27 -157 -30 -172 l-6
-28 -158 0 -157 0 -7 31 c-3 17 -6 116 -6 220 0 215 -9 195 95 202 75 5 315 8
315 3z m-520 -188 c0 -90 3 -186 6 -214 l6 -51 -118 -7 c-66 -3 -157 -7 -204
-8 l-85 -3 -11 45 c-14 56 -40 348 -32 356 4 3 75 12 159 20 84 8 155 17 158
19 2 3 31 5 63 5 l58 0 0 -162z"/>
</g>
</svg>
