<?xml version="1.0" standalone="no"?>
<!DOCTYPE svg PUBLIC "-//W3C//DTD SVG 20010904//EN"
 "http://www.w3.org/TR/2001/REC-SVG-20010904/DTD/svg10.dtd">
<svg version="1.0" xmlns="http://www.w3.org/2000/svg"
 width="248.000000pt" height="248.000000pt" viewBox="0 0 248.000000 248.000000"
 preserveAspectRatio="xMidYMid meet">
<metadata>
Created by potrace 1.10, written by Peter Selinger 2001-2011
</metadata>
<g transform="translate(0.000000,248.000000) scale(0.100000,-0.100000)"
fill="#000000" stroke="none">
<path d="M695 1845 c-99 -12 -238 -28 -310 -35 -71 -7 -136 -17 -142 -23 -19
-14 -16 -52 7 -72 17 -15 32 -16 132 -10 62 3 158 13 213 20 55 8 142 19 192
25 110 12 139 22 148 49 6 21 -9 61 -25 61 -4 0 -14 2 -22 4 -7 2 -94 -6 -193
-19z"/>
</g>
</svg>
