<?xml version="1.0" standalone="no"?>
<!DOCTYPE svg PUBLIC "-//W3C//DTD SVG 20010904//EN"
 "http://www.w3.org/TR/2001/REC-SVG-20010904/DTD/svg10.dtd">
<svg version="1.0" xmlns="http://www.w3.org/2000/svg"
 width="248.000000pt" height="248.000000pt" viewBox="0 0 248.000000 248.000000"
 preserveAspectRatio="xMidYMid meet">
<metadata>
Created by potrace 1.10, written by Peter Selinger 2001-2011
</metadata>
<g transform="translate(0.000000,248.000000) scale(0.100000,-0.100000)"
fill="#000000" stroke="none">
<path d="M1652 2268 c-5 -7 -24 -83 -42 -168 -18 -85 -37 -158 -42 -161 -6 -4
-89 -9 -186 -13 -249 -9 -354 -16 -451 -27 -46 -5 -85 -8 -87 -6 -2 1 -10 75
-19 162 -15 157 -22 181 -55 185 -51 7 -72 -22 -59 -80 4 -19 11 -89 15 -156
l7 -121 -24 -6 c-13 -3 -76 -11 -139 -17 -143 -14 -187 -25 -200 -51 -13 -24
-5 -56 18 -68 11 -6 63 -3 142 9 69 10 145 20 170 21 43 3 45 2 51 -26 4 -17
7 -72 8 -122 1 -79 4 -96 21 -113 26 -26 45 -25 71 1 20 20 21 28 14 123 -4
55 -8 112 -8 126 -2 21 4 25 38 32 34 6 544 37 626 38 l27 0 -44 -136 c-24
-75 -44 -146 -44 -158 0 -45 52 -62 83 -28 9 10 32 67 51 128 61 196 57 188
107 195 24 4 113 10 198 14 130 7 157 11 173 27 24 24 23 43 -3 69 -18 18 -29
20 -73 15 -28 -3 -111 -9 -185 -12 -128 -7 -133 -6 -127 12 14 46 59 261 58
283 0 13 -6 27 -14 32 -20 13 -64 11 -76 -3z"/>
<path d="M1083 1623 c-25 -39 -127 -172 -262 -343 -134 -170 -325 -360 -465
-462 -135 -99 -166 -130 -159 -156 8 -31 29 -45 56 -38 22 5 199 132 277 198
144 123 325 327 529 596 35 46 68 85 75 88 6 2 50 -32 96 -77 154 -148 422
-390 459 -413 20 -13 101 -65 180 -116 143 -93 339 -190 384 -190 51 0 64 55
21 89 -14 11 -50 29 -80 41 -89 33 -142 63 -325 183 -178 117 -292 215 -605
519 -123 120 -149 131 -181 81z"/>
</g>
</svg>
