<?xml version="1.0" standalone="no"?>
<!DOCTYPE svg PUBLIC "-//W3C//DTD SVG 20010904//EN"
 "http://www.w3.org/TR/2001/REC-SVG-20010904/DTD/svg10.dtd">
<svg version="1.0" xmlns="http://www.w3.org/2000/svg"
 width="248.000000pt" height="248.000000pt" viewBox="0 0 248.000000 248.000000"
 preserveAspectRatio="xMidYMid meet">
<metadata>
Created by potrace 1.10, written by Peter Selinger 2001-2011
</metadata>
<g transform="translate(0.000000,248.000000) scale(0.100000,-0.100000)"
fill="#000000" stroke="none">
<path d="M1529 2354 c-41 -48 -102 -119 -137 -158 -71 -81 -82 -108 -57 -136
27 -30 46 -25 92 23 80 83 234 272 240 296 8 32 -8 55 -39 59 -22 3 -38 -11
-99 -84z"/>
<path d="M850 2320 c-11 -11 -20 -26 -20 -32 1 -24 125 -251 145 -264 16 -11
25 -11 45 -1 38 19 36 49 -9 126 -23 38 -50 92 -62 118 -31 73 -62 90 -99 53z"/>
</g>
</svg>
