<?xml version="1.0" standalone="no"?>
<!DOCTYPE svg PUBLIC "-//W3C//DTD SVG 20010904//EN"
 "http://www.w3.org/TR/2001/REC-SVG-20010904/DTD/svg10.dtd">
<svg version="1.0" xmlns="http://www.w3.org/2000/svg"
 width="248.000000pt" height="248.000000pt" viewBox="0 0 248.000000 248.000000"
 preserveAspectRatio="xMidYMid meet">
<metadata>
Created by potrace 1.10, written by Peter Selinger 2001-2011
</metadata>
<g transform="translate(0.000000,248.000000) scale(0.100000,-0.100000)"
fill="#000000" stroke="none">
<path d="M1529 2354 c-41 -48 -102 -119 -137 -158 -34 -39 -66 -84 -70 -100
-7 -25 -14 -30 -42 -33 -19 -2 -62 -7 -95 -13 -33 -5 -77 -12 -97 -15 -36 -6
-38 -4 -38 20 0 15 -18 57 -39 94 -22 36 -50 92 -64 123 -27 59 -52 77 -86 59
-37 -20 -34 -46 15 -142 25 -51 57 -109 70 -130 l23 -38 -27 -5 c-26 -5 -47
-8 -152 -22 -62 -8 -92 -29 -88 -61 6 -47 23 -49 206 -24 94 13 175 20 181 17
16 -10 15 -198 -1 -214 -7 -7 -24 -12 -39 -12 -22 0 -187 -27 -278 -45 -33 -6
-51 -24 -51 -49 0 -49 45 -57 167 -32 37 8 98 17 136 21 l67 7 0 -41 c0 -23
-5 -73 -11 -111 l-12 -68 -51 -7 c-149 -19 -335 -47 -366 -55 -19 -6 -53 -10
-75 -10 -76 0 -114 -60 -61 -95 22 -15 32 -15 118 1 134 24 262 42 267 38 7
-7 -54 -128 -107 -214 -69 -114 -144 -200 -311 -361 -83 -81 -151 -152 -151
-159 0 -26 22 -50 46 -50 52 0 305 240 429 409 33 44 98 151 145 238 l85 157
90 13 c50 7 151 19 225 27 130 14 211 22 495 47 146 12 178 25 173 67 -5 41
-45 56 -111 43 -28 -6 -110 -15 -182 -21 -133 -10 -385 -34 -487 -46 l-58 -7
1 59 c0 33 4 81 7 109 l7 50 180 22 c99 12 190 25 202 28 49 12 54 79 7 91
-14 4 -101 -4 -194 -16 -92 -13 -175 -20 -184 -17 -13 5 -16 24 -16 111 0 124
-3 120 115 130 44 4 132 16 195 26 63 11 158 24 210 30 111 13 143 29 138 68
-4 39 -44 55 -100 42 -24 -5 -95 -17 -158 -25 -63 -9 -126 -19 -139 -22 -19
-5 2 25 93 133 64 76 119 150 123 163 8 32 -8 55 -39 59 -22 3 -38 -11 -99
-84z"/>
</g>
</svg>
