<?xml version="1.0" standalone="no"?>
<!DOCTYPE svg PUBLIC "-//W3C//DTD SVG 20010904//EN"
 "http://www.w3.org/TR/2001/REC-SVG-20010904/DTD/svg10.dtd">
<svg version="1.0" xmlns="http://www.w3.org/2000/svg"
 width="248.000000pt" height="248.000000pt" viewBox="0 0 248.000000 248.000000"
 preserveAspectRatio="xMidYMid meet">
<metadata>
Created by potrace 1.10, written by Peter Selinger 2001-2011
</metadata>
<g transform="translate(0.000000,248.000000) scale(0.100000,-0.100000)"
fill="#000000" stroke="none">
<path d="M1529 2354 c-41 -48 -102 -119 -137 -158 -34 -39 -66 -84 -70 -100
-7 -25 -14 -30 -42 -33 -19 -2 -62 -7 -95 -13 -33 -5 -77 -12 -97 -15 -36 -6
-38 -4 -38 20 0 15 -18 57 -39 94 -22 36 -50 92 -64 123 -27 59 -52 77 -86 59
-37 -20 -34 -46 15 -142 25 -51 57 -109 70 -130 l23 -38 -27 -5 c-26 -5 -47
-8 -152 -22 -62 -8 -92 -29 -88 -61 6 -49 20 -50 270 -14 128 18 285 39 348
46 63 7 156 20 205 29 50 8 133 20 185 26 111 13 143 29 138 68 -4 39 -44 55
-100 42 -24 -5 -95 -17 -158 -25 -63 -9 -126 -19 -139 -22 -19 -5 2 25 93 133
64 76 119 150 123 163 8 32 -8 55 -39 59 -22 3 -38 -11 -99 -84z"/>
</g>
</svg>
