<?xml version="1.0" standalone="no"?>
<!DOCTYPE svg PUBLIC "-//W3C//DTD SVG 20010904//EN"
 "http://www.w3.org/TR/2001/REC-SVG-20010904/DTD/svg10.dtd">
<svg version="1.0" xmlns="http://www.w3.org/2000/svg"
 width="248.000000pt" height="248.000000pt" viewBox="0 0 248.000000 248.000000"
 preserveAspectRatio="xMidYMid meet">
<metadata>
Created by potrace 1.10, written by Peter Selinger 2001-2011
</metadata>
<g transform="translate(0.000000,248.000000) scale(0.100000,-0.100000)"
fill="#000000" stroke="none">
<path d="M1560 2275 c-7 -8 -18 -65 -25 -127 -8 -62 -20 -156 -28 -208 -9 -52
-18 -137 -22 -188 l-7 -93 -57 -26 c-31 -13 -112 -49 -180 -79 l-124 -53 7 72
c17 186 19 297 6 312 -15 18 -54 20 -68 2 -6 -7 -13 -44 -16 -82 -4 -39 -13
-128 -21 -200 -8 -71 -15 -136 -15 -143 0 -7 -44 -34 -97 -60 -77 -37 -99 -52
-101 -70 -8 -56 48 -66 138 -24 25 11 48 18 52 16 5 -3 8 -128 8 -277 0 -291
6 -345 53 -436 28 -56 127 -135 211 -168 118 -46 278 -74 531 -91 216 -15 504
22 563 73 26 22 27 28 30 132 4 139 -5 185 -40 197 -50 17 -58 -2 -58 -135 0
-65 -4 -120 -8 -123 -5 -3 -55 -15 -113 -27 -228 -47 -653 -14 -861 67 -96 37
-160 97 -189 177 -21 58 -23 81 -26 357 -2 162 0 300 4 306 7 10 342 164 356
164 6 0 3 -41 -19 -260 -8 -80 -19 -169 -25 -198 -9 -44 -8 -57 5 -78 21 -31
61 -32 80 -1 13 21 34 186 56 442 6 66 13 127 15 135 3 8 56 36 118 62 61 26
179 76 261 112 82 36 152 64 154 61 10 -10 -97 -400 -148 -540 -18 -47 -40
-124 -54 -188 l-6 -27 -51 35 c-56 39 -80 43 -103 19 -26 -25 -19 -51 21 -81
21 -15 56 -47 79 -70 45 -47 74 -53 103 -24 20 20 34 59 101 286 23 77 55 178
70 225 16 47 33 108 39 135 11 56 73 263 92 311 15 37 7 62 -23 73 -25 9 -21
11 -193 -67 -222 -100 -434 -192 -445 -192 -13 0 -7 65 21 248 28 178 35 298
19 317 -16 19 -54 19 -70 0z"/>
<path d="M479 2049 c-17 -17 -19 -27 -13 -65 9 -60 -17 -472 -30 -483 -19 -15
-188 -61 -226 -61 -20 0 -41 -5 -48 -12 -15 -15 -15 -51 0 -66 19 -19 135 -14
208 8 36 11 69 20 74 20 10 0 3 -196 -16 -462 l-12 -167 -105 -62 c-58 -35
-126 -70 -151 -78 -57 -18 -70 -28 -70 -55 0 -32 19 -46 65 -46 45 0 94 21
175 72 30 19 89 53 130 75 133 72 294 182 304 210 9 22 -20 63 -45 63 -12 0
-55 -24 -97 -53 -43 -30 -83 -57 -91 -62 -11 -6 -12 5 -6 66 4 41 11 175 14
299 l6 225 70 22 c112 36 214 85 221 105 18 58 -31 80 -103 48 -62 -28 -152
-60 -170 -60 -11 0 -13 33 -8 198 3 108 8 221 10 249 4 44 2 56 -15 73 -25 25
-45 25 -71 -1z"/>
</g>
</svg>
