<?xml version="1.0" standalone="no"?>
<!DOCTYPE svg PUBLIC "-//W3C//DTD SVG 20010904//EN"
 "http://www.w3.org/TR/2001/REC-SVG-20010904/DTD/svg10.dtd">
<svg version="1.0" xmlns="http://www.w3.org/2000/svg"
 width="248.000000pt" height="248.000000pt" viewBox="0 0 248.000000 248.000000"
 preserveAspectRatio="xMidYMid meet">
<metadata>
Created by potrace 1.10, written by Peter Selinger 2001-2011
</metadata>
<g transform="translate(0.000000,248.000000) scale(0.100000,-0.100000)"
fill="#000000" stroke="none">
<path d="M708 1580 c-36 -17 -110 -42 -165 -56 -54 -14 -142 -39 -197 -55 -54
-16 -115 -29 -135 -29 -20 0 -42 -5 -49 -12 -15 -15 -15 -51 0 -66 21 -21 138
-14 219 12 41 13 120 35 175 49 103 26 263 89 276 110 20 31 -5 77 -40 77 -9
0 -47 -14 -84 -30z"/>
</g>
</svg>
