<?xml version="1.0" standalone="no"?>
<!DOCTYPE svg PUBLIC "-//W3C//DTD SVG 20010904//EN"
 "http://www.w3.org/TR/2001/REC-SVG-20010904/DTD/svg10.dtd">
<svg version="1.0" xmlns="http://www.w3.org/2000/svg"
 width="248.000000pt" height="248.000000pt" viewBox="0 0 248.000000 248.000000"
 preserveAspectRatio="xMidYMid meet">
<metadata>
Created by potrace 1.10, written by Peter Selinger 2001-2011
</metadata>
<g transform="translate(0.000000,248.000000) scale(0.100000,-0.100000)"
fill="#000000" stroke="none">
<path d="M859 2353 c-10 -12 -14 -49 -14 -137 l0 -120 -107 -12 c-59 -7 -125
-15 -146 -19 l-40 -6 -4 125 c-4 135 -16 166 -63 166 -40 0 -45 -17 -45 -166
0 -161 4 -153 -90 -154 -64 0 -95 -18 -95 -55 0 -43 33 -57 118 -50 l67 5 0
-100 c0 -97 -1 -100 -22 -100 -50 0 -309 -48 -323 -60 -23 -19 -18 -57 9 -75
22 -15 32 -15 113 0 48 8 131 20 183 26 101 10 189 22 527 69 117 17 232 30
255 30 62 0 93 19 93 55 0 58 -72 65 -287 29 l-38 -7 0 102 c0 73 4 103 13
105 6 2 55 12 107 21 52 9 101 22 108 27 17 15 15 63 -4 79 -13 11 -32 10
-112 -3 -53 -9 -98 -16 -99 -14 -1 1 -6 52 -11 114 -5 63 -14 118 -22 127 -16
20 -54 19 -71 -2z m-21 -465 l-3 -102 -35 -7 c-19 -4 -73 -12 -120 -18 -47 -6
-95 -14 -107 -17 -23 -6 -23 -5 -23 100 0 76 4 108 13 111 10 4 212 29 265 34
10 1 12 -23 10 -101z"/>
<path d="M997 1604 c-3 -3 -36 -7 -74 -10 -37 -2 -106 -10 -153 -18 -47 -8
-125 -20 -175 -25 -118 -14 -196 -35 -212 -58 -12 -15 -13 -118 -8 -603 4
-322 11 -612 16 -645 11 -77 41 -103 83 -72 17 13 18 38 17 388 -1 206 -4 391
-8 411 -6 42 -5 43 102 53 87 7 367 45 388 51 18 6 18 -3 13 -173 -3 -98 -9
-280 -12 -404 l-6 -226 -29 11 c-38 14 -63 -1 -67 -41 -2 -24 7 -40 43 -81 38
-43 53 -52 80 -52 18 0 38 6 44 13 29 35 40 178 50 622 6 248 13 523 17 612 7
189 0 226 -48 242 -35 12 -52 14 -61 5z m-2 -261 c-4 -87 -8 -159 -9 -160 -2
-2 -372 -51 -443 -58 l-63 -6 0 154 c0 180 -18 159 150 177 58 6 148 20 200
30 52 9 112 18 134 19 l38 1 -7 -157z"/>
</g>
</svg>
