<?xml version="1.0" standalone="no"?>
<!DOCTYPE svg PUBLIC "-//W3C//DTD SVG 20010904//EN"
 "http://www.w3.org/TR/2001/REC-SVG-20010904/DTD/svg10.dtd">
<svg version="1.0" xmlns="http://www.w3.org/2000/svg"
 width="248.000000pt" height="248.000000pt" viewBox="0 0 248.000000 248.000000"
 preserveAspectRatio="xMidYMid meet">
<metadata>
Created by potrace 1.10, written by Peter Selinger 2001-2011
</metadata>
<g transform="translate(0.000000,248.000000) scale(0.100000,-0.100000)"
fill="#000000" stroke="none">
<path d="M859 2353 c-10 -12 -14 -49 -14 -137 l0 -120 -107 -12 c-59 -7 -125
-15 -146 -19 l-40 -6 -4 125 c-4 135 -16 166 -63 166 -40 0 -45 -17 -45 -166
0 -161 4 -153 -90 -154 -64 0 -95 -18 -95 -55 0 -43 33 -57 117 -51 l66 6 4
-111 c3 -96 6 -113 22 -125 25 -18 37 -18 62 0 16 12 20 31 24 138 l5 123 85
11 c47 6 111 14 143 17 l57 6 0 -128 c0 -85 4 -131 12 -139 18 -18 53 -14 74
9 16 18 20 40 23 146 2 82 7 126 15 128 6 1 54 11 106 20 52 9 101 22 108 27
17 15 15 63 -4 79 -13 11 -32 10 -112 -3 -53 -9 -98 -16 -99 -14 -1 1 -6 52
-11 114 -5 63 -14 118 -22 127 -16 20 -54 19 -71 -2z"/>
</g>
</svg>
