<?xml version="1.0" standalone="no"?>
<!DOCTYPE svg PUBLIC "-//W3C//DTD SVG 20010904//EN"
 "http://www.w3.org/TR/2001/REC-SVG-20010904/DTD/svg10.dtd">
<svg version="1.0" xmlns="http://www.w3.org/2000/svg"
 width="248.000000pt" height="248.000000pt" viewBox="0 0 248.000000 248.000000"
 preserveAspectRatio="xMidYMid meet">
<metadata>
Created by potrace 1.10, written by Peter Selinger 2001-2011
</metadata>
<g transform="translate(0.000000,248.000000) scale(0.100000,-0.100000)"
fill="#000000" stroke="none">
<path d="M854 2345 c-13 -20 -15 -42 -9 -134 6 -90 5 -111 -6 -115 -8 -2 -61
-9 -119 -15 -58 -7 -119 -14 -136 -17 l-32 -6 -4 126 c-4 135 -16 166 -63 166
-40 0 -45 -17 -45 -166 0 -161 4 -153 -90 -154 -64 0 -95 -18 -95 -55 0 -43
33 -57 118 -50 l67 5 0 -100 0 -100 -27 0 c-52 -1 -304 -48 -318 -60 -23 -19
-18 -58 9 -75 22 -15 32 -15 113 0 48 8 131 20 183 26 52 5 142 16 200 24 436
61 545 75 582 75 62 0 93 19 93 55 0 50 -36 60 -164 46 -58 -7 -118 -15 -133
-18 l-28 -5 0 106 0 106 27 0 c39 0 186 31 201 42 17 15 15 63 -4 79 -13 11
-32 10 -112 -3 -53 -9 -98 -15 -100 -14 -1 2 -5 50 -9 107 -3 62 -11 113 -19
127 -19 30 -59 29 -80 -3z m-14 -454 c0 -55 -4 -102 -9 -105 -5 -3 -58 -12
-117 -20 -60 -8 -122 -18 -137 -21 l-28 -7 3 108 3 109 60 8 c49 7 149 19 213
26 9 1 12 -25 12 -98z"/>
<path d="M1409 2184 c-7 -9 -16 -60 -20 -121 -22 -308 -59 -495 -133 -670 -25
-60 -46 -118 -46 -129 0 -46 53 -59 87 -21 47 50 140 331 159 474 3 28 12 54
19 57 7 2 51 10 97 16 82 11 204 33 285 51 64 14 63 14 63 -53 -1 -114 -63
-388 -155 -683 -51 -163 -51 -163 -112 -68 -29 43 -77 131 -108 195 -46 97
-60 119 -82 124 -34 9 -57 -6 -61 -39 -4 -35 92 -228 187 -376 l73 -113 -27
-72 c-50 -128 -143 -327 -182 -389 -21 -33 -55 -77 -75 -99 -41 -42 -47 -68
-22 -92 35 -36 93 -4 150 80 51 77 144 259 185 362 17 45 35 82 38 82 4 0 21
-19 37 -42 145 -204 183 -250 281 -342 131 -123 280 -226 327 -226 60 0 78 56
29 86 -143 86 -365 277 -423 362 -14 21 -45 64 -70 97 -51 67 -89 125 -113
171 -15 29 -14 34 14 115 110 309 200 664 215 850 l6 86 122 17 c136 19 169
34 164 74 -4 37 -37 51 -95 41 -25 -5 -116 -16 -201 -24 -86 -9 -187 -23 -226
-31 -90 -19 -310 -53 -315 -48 -2 2 1 43 8 92 15 120 14 173 -5 200 -18 26
-56 29 -75 6z"/>
<path d="M997 1604 c-3 -3 -34 -7 -69 -10 -35 -2 -108 -10 -163 -19 -55 -8
-152 -22 -215 -31 -120 -16 -163 -32 -174 -61 -10 -25 4 -1165 15 -1238 11
-77 41 -103 84 -72 17 13 18 32 16 275 l-2 261 33 5 c18 2 65 9 103 15 39 6
126 15 195 21 69 6 133 13 143 16 15 5 17 -3 17 -79 0 -46 -3 -158 -7 -249
l-6 -165 -29 11 c-37 14 -62 -1 -66 -41 -2 -24 7 -40 43 -81 38 -43 53 -52 80
-52 18 0 37 6 43 13 30 37 42 177 52 622 5 248 12 523 16 612 7 189 0 226 -48
242 -35 12 -52 14 -61 5z m-2 -261 c-4 -87 -8 -159 -9 -160 -2 -2 -368 -51
-443 -58 l-62 -7 -3 152 c-4 179 -18 162 148 180 60 6 152 20 204 30 52 10
112 18 134 19 l38 1 -7 -157z m-7 -363 c-3 -55 -7 -102 -10 -105 -2 -3 -63 -9
-134 -15 -71 -6 -169 -17 -218 -25 -143 -24 -132 -30 -139 78 -3 63 -1 94 7
99 6 4 31 8 56 9 25 0 131 13 235 28 105 16 194 29 199 30 5 0 7 -44 4 -99z"/>
</g>
</svg>
