<?xml version="1.0" standalone="no"?>
<!DOCTYPE svg PUBLIC "-//W3C//DTD SVG 20010904//EN"
 "http://www.w3.org/TR/2001/REC-SVG-20010904/DTD/svg10.dtd">
<svg version="1.0" xmlns="http://www.w3.org/2000/svg"
 width="248.000000pt" height="248.000000pt" viewBox="0 0 248.000000 248.000000"
 preserveAspectRatio="xMidYMid meet">
<metadata>
Created by potrace 1.10, written by Peter Selinger 2001-2011
</metadata>
<g transform="translate(0.000000,248.000000) scale(0.100000,-0.100000)"
fill="#000000" stroke="none">
<path d="M1307 2289 c-108 -4 -205 -10 -214 -13 -15 -6 -519 -30 -588 -28 -80
2 -107 -27 -81 -87 9 -20 25 -94 36 -165 20 -135 34 -166 75 -166 44 0 48 20
31 137 -8 60 -18 123 -22 140 -5 23 -2 34 7 38 8 2 75 9 149 14 108 8 138 8
148 -3 8 -7 20 -64 28 -127 19 -156 22 -169 50 -181 19 -9 28 -8 44 7 23 20
25 52 11 153 -5 37 -12 88 -15 113 l-5 46 97 6 c53 4 151 11 217 16 202 16
701 25 709 13 3 -6 -16 -66 -44 -134 -55 -136 -60 -162 -30 -178 37 -20 60 -2
95 73 119 257 130 295 94 321 -20 14 -60 16 -309 14 -157 0 -374 -4 -483 -9z"/>
</g>
</svg>
