<?xml version="1.0" standalone="no"?>
<!DOCTYPE svg PUBLIC "-//W3C//DTD SVG 20010904//EN"
 "http://www.w3.org/TR/2001/REC-SVG-20010904/DTD/svg10.dtd">
<svg version="1.0" xmlns="http://www.w3.org/2000/svg"
 width="248.000000pt" height="248.000000pt" viewBox="0 0 248.000000 248.000000"
 preserveAspectRatio="xMidYMid meet">
<metadata>
Created by potrace 1.10, written by Peter Selinger 2001-2011
</metadata>
<g transform="translate(0.000000,248.000000) scale(0.100000,-0.100000)"
fill="#000000" stroke="none">
<path d="M1302 2289 c-106 -4 -200 -10 -210 -14 -9 -4 -136 -11 -282 -17 -262
-10 -328 -13 -363 -16 -28 -3 -43 -46 -25 -74 8 -13 23 -77 32 -143 18 -124
41 -210 62 -234 11 -12 31 -12 126 -2 62 7 143 16 180 22 37 5 123 12 189 16
l122 6 -6 -92 c-3 -51 -8 -95 -10 -97 -4 -5 -176 -24 -386 -44 -110 -10 -131
-19 -131 -55 0 -43 21 -49 153 -41 67 4 151 11 187 16 36 5 90 10 120 11 l55
3 0 -75 c0 -40 -4 -95 -8 -121 l-8 -46 -52 -7 c-60 -7 -182 -25 -214 -31 -35
-7 -44 -34 -32 -100 6 -35 9 -210 7 -428 l-3 -369 27 -20 c23 -17 30 -18 60
-7 33 12 103 18 473 40 251 15 240 5 252 208 4 81 7 164 5 185 -1 21 4 123 13
227 20 249 20 283 -3 303 -16 15 -41 16 -220 10 l-202 -6 0 114 c0 63 4 119 8
125 4 6 65 16 137 22 403 35 424 38 434 65 11 30 2 57 -23 67 -12 4 -79 2
-151 -6 -341 -35 -376 -37 -387 -26 -7 7 -8 39 -3 96 l7 85 31 6 c18 3 169 10
337 15 301 10 343 13 368 33 13 11 41 69 77 162 12 34 34 84 49 113 32 63 33
96 4 116 -19 14 -64 16 -313 14 -159 0 -377 -5 -483 -9z m682 -88 c3 -5 -14
-58 -38 -118 -43 -108 -43 -108 -82 -115 -59 -10 -407 -22 -436 -15 l-25 7 28
96 c16 53 29 105 29 115 0 11 9 21 23 24 54 12 494 18 501 6z m-629 -43 c-4
-18 -19 -71 -34 -117 -31 -100 -22 -95 -203 -106 l-126 -7 -6 39 c-12 68 -23
188 -19 193 6 7 226 27 316 28 l79 2 -7 -32z m-505 -3 c11 -14 43 -225 35
-233 -6 -7 -209 -31 -257 -32 -54 0 -52 -3 -67 110 -6 41 -13 90 -17 107 -5
23 -2 34 7 38 11 4 132 15 265 24 12 0 27 -6 34 -14z m696 -1007 c-3 -34 -9
-65 -14 -69 -10 -10 -272 -31 -459 -36 l-162 -5 -6 25 c-4 13 -5 39 -3 58 3
30 8 35 43 46 56 18 314 40 474 42 l134 1 -7 -62z m-18 -260 l-3 -83 -120 -7
c-66 -4 -156 -12 -199 -17 -119 -16 -281 -14 -295 3 -7 9 -11 41 -9 83 l3 68
180 7 c99 4 218 11 265 16 47 5 107 10 133 11 l48 1 -3 -82z m-8 -278 c0 -146
20 -134 -247 -150 -125 -8 -259 -14 -298 -14 l-70 -1 -3 107 c-2 94 -1 108 15
116 10 6 81 10 158 11 77 1 187 6 245 11 137 13 183 16 193 12 4 -2 7 -43 7
-92z"/>
<path d="M423 1030 c-27 -11 -37 -43 -23 -71 7 -11 16 -73 20 -137 5 -65 18
-213 29 -331 12 -118 21 -256 21 -307 0 -105 9 -120 62 -110 18 4 96 11 172
17 77 5 174 13 215 18 199 22 605 20 781 -3 160 -22 205 -23 225 -6 19 16 19
54 0 70 -8 7 -88 21 -177 32 -143 18 -202 19 -483 14 -176 -3 -396 -12 -488
-21 -93 -9 -179 -14 -193 -11 -24 6 -24 8 -24 116 0 61 -9 199 -19 308 -11
108 -22 231 -26 272 -7 92 -21 137 -45 150 -21 11 -18 11 -47 0z"/>
</g>
</svg>
