<?xml version="1.0" standalone="no"?>
<!DOCTYPE svg PUBLIC "-//W3C//DTD SVG 20010904//EN"
 "http://www.w3.org/TR/2001/REC-SVG-20010904/DTD/svg10.dtd">
<svg version="1.0" xmlns="http://www.w3.org/2000/svg"
 width="248.000000pt" height="248.000000pt" viewBox="0 0 248.000000 248.000000"
 preserveAspectRatio="xMidYMid meet">
<metadata>
Created by potrace 1.10, written by Peter Selinger 2001-2011
</metadata>
<g transform="translate(0.000000,248.000000) scale(0.100000,-0.100000)"
fill="#000000" stroke="none">
<path d="M1313 2290 c-105 -4 -203 -10 -217 -14 -24 -6 -526 -30 -591 -28 -80
2 -107 -27 -81 -87 9 -20 25 -94 36 -165 20 -135 34 -166 75 -166 45 0 48 20
29 147 -27 180 -30 167 46 175 36 4 175 12 310 18 135 5 297 14 360 19 193 16
696 25 704 13 3 -6 -16 -66 -44 -134 -55 -136 -60 -162 -30 -178 37 -20 60 -2
95 73 119 257 130 295 94 321 -20 14 -60 16 -309 14 -157 0 -371 -4 -477 -8z"/>
</g>
</svg>
