<?xml version="1.0" standalone="no"?>
<!DOCTYPE svg PUBLIC "-//W3C//DTD SVG 20010904//EN"
 "http://www.w3.org/TR/2001/REC-SVG-20010904/DTD/svg10.dtd">
<svg version="1.0" xmlns="http://www.w3.org/2000/svg"
 width="248.000000pt" height="248.000000pt" viewBox="0 0 248.000000 248.000000"
 preserveAspectRatio="xMidYMid meet">
<metadata>
Created by potrace 1.10, written by Peter Selinger 2001-2011
</metadata>
<g transform="translate(0.000000,248.000000) scale(0.100000,-0.100000)"
fill="#000000" stroke="none">
<path d="M1179 2329 c-18 -18 -20 -28 -13 -77 8 -68 8 -1848 -1 -1862 -7 -12
-59 48 -97 114 -32 53 -49 63 -84 48 -50 -24 -23 -91 97 -238 84 -103 126
-125 163 -85 16 17 17 96 20 1051 3 991 2 1034 -16 1052 -24 24 -43 23 -69 -3z"/>
<path d="M577 1478 c-8 -13 -31 -54 -52 -93 -96 -179 -224 -334 -400 -482 -57
-48 -59 -52 -47 -77 26 -58 66 -45 185 64 134 122 217 222 304 366 105 174
118 234 50 242 -18 2 -30 -4 -40 -20z"/>
</g>
</svg>
