<?xml version="1.0" standalone="no"?>
<!DOCTYPE svg PUBLIC "-//W3C//DTD SVG 20010904//EN"
 "http://www.w3.org/TR/2001/REC-SVG-20010904/DTD/svg10.dtd">
<svg version="1.0" xmlns="http://www.w3.org/2000/svg"
 width="248.000000pt" height="248.000000pt" viewBox="0 0 248.000000 248.000000"
 preserveAspectRatio="xMidYMid meet">
<metadata>
Created by potrace 1.10, written by Peter Selinger 2001-2011
</metadata>
<g transform="translate(0.000000,248.000000) scale(0.100000,-0.100000)"
fill="#000000" stroke="none">
<path d="M701 2373 c-12 -14 -99 -106 -194 -203 -94 -98 -202 -212 -239 -254
-98 -111 -96 -123 52 -229 36 -26 87 -65 113 -87 27 -22 55 -40 63 -40 19 0
54 36 54 56 0 20 -62 78 -157 146 l-71 51 47 56 c68 80 180 200 297 316 107
106 124 129 124 167 0 52 -55 65 -89 21z"/>
</g>
</svg>
