<?xml version="1.0" standalone="no"?>
<!DOCTYPE svg PUBLIC "-//W3C//DTD SVG 20010904//EN"
 "http://www.w3.org/TR/2001/REC-SVG-20010904/DTD/svg10.dtd">
<svg version="1.0" xmlns="http://www.w3.org/2000/svg"
 width="248.000000pt" height="248.000000pt" viewBox="0 0 248.000000 248.000000"
 preserveAspectRatio="xMidYMid meet">
<metadata>
Created by potrace 1.10, written by Peter Selinger 2001-2011
</metadata>
<g transform="translate(0.000000,248.000000) scale(0.100000,-0.100000)"
fill="#000000" stroke="none">
<path d="M701 2373 c-12 -14 -99 -106 -194 -203 -94 -98 -202 -212 -239 -254
-98 -111 -96 -123 52 -229 36 -26 83 -63 104 -82 l40 -35 -22 -28 c-11 -15
-42 -58 -69 -97 -26 -38 -60 -86 -74 -105 -15 -19 -48 -75 -74 -125 -26 -49
-60 -109 -76 -132 -33 -47 -36 -74 -13 -97 21 -21 44 -20 128 5 176 53 589
208 644 242 28 18 0 87 -36 87 -17 0 -152 -48 -166 -59 -6 -5 -42 -20 -81 -34
-259 -96 -318 -117 -326 -117 -20 0 47 115 160 275 46 66 98 140 114 165 17
25 47 64 66 86 52 60 101 121 143 178 21 28 43 57 50 65 63 70 64 141 2 141
-21 0 -85 -66 -111 -113 -11 -21 -102 -132 -160 -196 -32 -35 -45 -44 -56 -36
-7 6 -52 39 -99 74 l-86 65 47 55 c68 80 181 200 297 316 107 106 124 129 124
167 0 52 -55 65 -89 21z"/>
</g>
</svg>
