<?xml version="1.0" standalone="no"?>
<!DOCTYPE svg PUBLIC "-//W3C//DTD SVG 20010904//EN"
 "http://www.w3.org/TR/2001/REC-SVG-20010904/DTD/svg10.dtd">
<svg version="1.0" xmlns="http://www.w3.org/2000/svg"
 width="248.000000pt" height="248.000000pt" viewBox="0 0 248.000000 248.000000"
 preserveAspectRatio="xMidYMid meet">
<metadata>
Created by potrace 1.10, written by Peter Selinger 2001-2011
</metadata>
<g transform="translate(0.000000,248.000000) scale(0.100000,-0.100000)"
fill="#000000" stroke="none">
<path d="M701 2374 c-11 -14 -96 -103 -188 -199 -92 -95 -201 -209 -240 -254
-104 -117 -102 -128 47 -234 36 -26 83 -62 104 -81 l39 -33 -66 -94 c-37 -52
-79 -112 -95 -134 -16 -22 -53 -85 -83 -140 -29 -55 -63 -114 -76 -131 -13
-17 -23 -40 -23 -52 0 -26 25 -52 51 -52 25 0 210 54 294 85 36 14 67 25 69
25 2 0 2 -215 -1 -477 -5 -527 -5 -528 52 -528 52 0 55 18 55 356 0 168 3 393
7 500 l6 195 101 42 c56 23 108 42 117 42 8 0 35 -27 60 -61 72 -100 86 -112
120 -105 32 6 32 5 -3 -46 -33 -48 -19 -98 28 -98 27 0 48 24 139 160 l70 104
6 -476 c7 -515 9 -530 60 -536 55 -6 54 -19 50 609 l-3 578 43 73 c69 118 139
267 139 297 0 33 -16 51 -46 51 -28 0 -36 -11 -89 -118 -73 -150 -151 -280
-313 -520 -34 -50 -37 -52 -43 -29 -8 30 -31 66 -87 137 -23 30 -62 79 -85
109 -80 102 -109 131 -131 131 -56 0 -61 -56 -10 -120 l35 -45 -23 -9 c-13 -5
-41 -17 -63 -27 -112 -50 -424 -164 -430 -157 -12 11 85 167 224 361 89 123
108 149 156 207 25 30 68 84 95 120 27 36 55 71 62 79 63 71 64 141 2 141 -21
0 -85 -66 -111 -113 -11 -21 -102 -132 -160 -196 -32 -35 -45 -44 -56 -36 -7
6 -52 39 -99 74 l-86 65 47 55 c69 82 184 205 272 291 109 106 149 157 149
189 0 54 -54 70 -89 25z"/>
<path d="M1676 2378 c-12 -17 -16 -50 -16 -145 0 -69 -4 -124 -10 -128 -9 -6
-267 -31 -425 -41 -86 -6 -121 -19 -129 -47 -3 -11 2 -51 9 -89 8 -38 15 -100
15 -136 0 -77 17 -112 55 -112 44 0 59 39 51 133 -3 45 -9 94 -12 108 -6 25
-4 26 68 38 40 6 129 16 198 22 69 5 172 14 230 19 58 6 177 14 265 20 88 5
195 12 239 16 l78 6 -18 -32 c-11 -17 -47 -63 -81 -101 -63 -69 -76 -102 -51
-127 28 -28 62 -13 126 56 142 150 184 287 95 306 -26 6 -455 -18 -550 -31
l-43 -5 0 124 c0 136 -11 168 -55 168 -13 0 -31 -10 -39 -22z"/>
<path d="M2090 1654 c-58 -8 -141 -18 -185 -23 -280 -33 -309 -41 -303 -89 4
-39 39 -51 118 -41 146 18 200 22 200 13 0 -10 -84 -134 -147 -217 -40 -52
-47 -57 -103 -68 -100 -19 -92 9 -91 -352 2 -324 20 -617 40 -655 6 -12 20
-26 30 -32 12 -6 131 -9 315 -7 266 2 297 4 313 20 15 15 19 53 30 280 6 144
12 373 12 508 1 303 5 292 -115 290 -104 -1 -273 -11 -301 -17 -19 -4 -11 14
52 110 42 63 80 127 86 144 9 27 14 30 77 36 37 3 86 6 108 6 72 0 117 55 78
94 -19 19 -68 19 -214 0z m120 -659 l0 -175 -37 -1 c-67 0 -356 -18 -420 -25
l-63 -7 0 172 0 171 38 0 c20 0 57 5 82 11 60 15 183 26 303 28 l97 1 0 -175z
m-4 -347 c-5 -48 -16 -290 -16 -350 0 -5 -107 -8 -239 -8 l-238 0 -7 48 c-3
26 -9 113 -13 193 l-6 146 89 12 c49 6 132 13 184 14 52 2 130 4 173 5 l79 2
-6 -62z"/>
<path d="M260 735 c-6 -8 -16 -43 -20 -77 -14 -110 -57 -294 -87 -374 -20 -56
-6 -87 40 -82 53 5 74 60 133 337 25 121 26 169 3 198 -15 17 -53 17 -69 -2z"/>
<path d="M782 728 c-18 -18 -14 -54 12 -106 13 -26 31 -71 41 -100 25 -76 116
-232 143 -245 30 -14 72 5 72 33 0 11 -24 64 -54 117 -29 54 -59 116 -66 138
-16 50 -57 135 -78 158 -17 20 -53 22 -70 5z"/>
</g>
</svg>
