<?xml version="1.0" standalone="no"?>
<!DOCTYPE svg PUBLIC "-//W3C//DTD SVG 20010904//EN"
 "http://www.w3.org/TR/2001/REC-SVG-20010904/DTD/svg10.dtd">
<svg version="1.0" xmlns="http://www.w3.org/2000/svg"
 width="248.000000pt" height="248.000000pt" viewBox="0 0 248.000000 248.000000"
 preserveAspectRatio="xMidYMid meet">
<metadata>
Created by potrace 1.10, written by Peter Selinger 2001-2011
</metadata>
<g transform="translate(0.000000,248.000000) scale(0.100000,-0.100000)"
fill="#000000" stroke="none">
<path d="M701 2373 c-12 -14 -99 -106 -194 -203 -94 -98 -202 -212 -239 -254
-98 -111 -96 -123 52 -229 36 -26 83 -63 104 -82 l40 -35 -22 -28 c-11 -15
-42 -58 -69 -97 -26 -38 -60 -86 -74 -105 -15 -19 -48 -75 -74 -125 -26 -49
-60 -109 -76 -132 -16 -23 -29 -51 -29 -62 0 -26 26 -51 53 -51 26 0 221 59
354 107 9 3 10 -112 6 -474 -5 -520 -4 -525 49 -531 18 -2 31 4 42 20 14 19
16 66 16 343 0 176 3 403 7 505 l6 186 101 42 c56 23 108 42 117 42 8 0 39
-33 69 -72 68 -92 78 -101 113 -94 30 6 30 4 -5 -46 -33 -47 -19 -98 27 -98
28 0 48 23 137 156 l75 112 5 -478 c6 -518 8 -532 59 -538 55 -6 54 -20 51
612 l-3 581 50 84 c64 106 131 250 131 282 0 31 -17 49 -46 49 -28 0 -36 -11
-89 -118 -73 -150 -151 -280 -313 -520 -34 -50 -37 -52 -43 -29 -8 30 -31 66
-87 137 -23 30 -62 79 -85 109 -80 102 -109 131 -131 131 -56 0 -61 -56 -10
-120 l35 -45 -23 -9 c-13 -5 -46 -20 -74 -32 -29 -13 -83 -35 -120 -49 -153
-57 -288 -105 -295 -105 -20 0 48 117 160 275 46 66 98 140 114 165 17 25 47
64 66 86 52 60 101 121 143 178 21 28 43 57 50 65 63 70 64 141 2 141 -21 0
-85 -66 -111 -113 -11 -21 -102 -132 -160 -196 -32 -35 -45 -44 -56 -36 -7 6
-52 39 -99 74 l-86 65 47 55 c68 80 181 200 297 316 107 106 124 129 124 167
0 52 -55 65 -89 21z"/>
<path d="M1676 2378 c-13 -18 -16 -49 -16 -145 0 -67 -4 -124 -9 -128 -9 -5
-274 -31 -421 -41 -92 -7 -108 -11 -125 -38 -14 -21 -14 -31 0 -95 8 -40 15
-100 15 -134 0 -80 16 -112 55 -112 45 0 57 33 50 130 -3 44 -8 92 -11 106 -8
36 -33 32 496 80 58 5 177 13 265 19 88 5 195 12 239 16 l78 6 -18 -32 c-11
-17 -47 -63 -81 -101 -63 -69 -76 -102 -51 -127 28 -28 62 -13 126 56 142 150
184 287 94 306 -27 6 -466 -18 -549 -30 l-43 -7 0 119 c0 75 -5 128 -13 144
-17 34 -60 39 -81 8z"/>
<path d="M2090 1654 c-58 -8 -141 -18 -185 -23 -190 -22 -261 -34 -282 -47
-27 -17 -30 -56 -7 -75 24 -20 76 -16 364 27 52 7 139 17 193 20 104 7 147 26
147 64 0 52 -43 58 -230 34z"/>
<path d="M256 728 c-9 -12 -16 -38 -16 -58 0 -58 -54 -300 -86 -386 -21 -56
-7 -87 39 -82 40 4 61 39 91 155 61 231 75 344 45 380 -17 20 -56 16 -73 -9z"/>
<path d="M782 728 c-18 -18 -14 -54 12 -106 13 -26 31 -71 41 -101 28 -87 118
-234 149 -246 32 -11 60 3 64 32 2 12 -21 65 -51 119 -30 55 -60 117 -67 139
-16 50 -57 135 -78 158 -17 20 -53 22 -70 5z"/>
</g>
</svg>
