<?xml version="1.0" standalone="no"?>
<!DOCTYPE svg PUBLIC "-//W3C//DTD SVG 20010904//EN"
 "http://www.w3.org/TR/2001/REC-SVG-20010904/DTD/svg10.dtd">
<svg version="1.0" xmlns="http://www.w3.org/2000/svg"
 width="248.000000pt" height="248.000000pt" viewBox="0 0 248.000000 248.000000"
 preserveAspectRatio="xMidYMid meet">
<metadata>
Created by potrace 1.10, written by Peter Selinger 2001-2011
</metadata>
<g transform="translate(0.000000,248.000000) scale(0.100000,-0.100000)"
fill="#000000" stroke="none">
<path d="M1893 1808 c-112 -8 -486 -43 -613 -58 -47 -5 -137 -14 -200 -20 -63
-5 -182 -16 -265 -25 -82 -9 -181 -18 -220 -21 -38 -4 -76 -11 -82 -16 -16
-13 -17 -50 -1 -66 16 -16 130 -15 310 3 81 8 218 22 305 30 87 8 246 24 353
35 266 26 499 45 504 39 7 -6 -20 -194 -49 -352 -60 -316 -183 -752 -243 -857
-54 -97 -85 -140 -98 -140 -20 0 -108 45 -157 81 -62 45 -107 36 -107 -23 0
-22 11 -35 58 -66 137 -94 231 -117 281 -71 28 27 79 105 118 184 95 190 229
712 283 1105 28 199 28 209 0 232 -12 10 -35 17 -51 16 -15 -2 -72 -6 -126
-10z"/>
</g>
</svg>
