<?xml version="1.0" standalone="no"?>
<!DOCTYPE svg PUBLIC "-//W3C//DTD SVG 20010904//EN"
 "http://www.w3.org/TR/2001/REC-SVG-20010904/DTD/svg10.dtd">
<svg version="1.0" xmlns="http://www.w3.org/2000/svg"
 width="248.000000pt" height="248.000000pt" viewBox="0 0 248.000000 248.000000"
 preserveAspectRatio="xMidYMid meet">
<metadata>
Created by potrace 1.10, written by Peter Selinger 2001-2011
</metadata>
<g transform="translate(0.000000,248.000000) scale(0.100000,-0.100000)"
fill="#000000" stroke="none">
<path d="M1750 2224 c-87 -54 -523 -281 -590 -308 -106 -41 -142 -85 -105
-126 36 -40 37 -298 1 -495 -50 -274 -93 -412 -156 -498 -32 -43 -38 -75 -18
-95 39 -39 99 14 158 140 49 105 103 327 128 530 10 75 20 139 23 143 10 9
371 66 399 63 l25 -3 -3 -470 c-1 -259 -7 -521 -13 -583 -12 -126 -7 -142 41
-142 15 0 33 7 40 16 15 17 28 427 29 900 1 213 4 284 14 291 14 12 241 39
397 49 58 4 111 11 118 16 15 13 16 50 0 66 -17 17 -221 15 -360 -3 -62 -8
-178 -22 -258 -30 -80 -9 -208 -26 -285 -39 -102 -17 -142 -21 -147 -12 -7 9
-10 46 -12 150 -1 21 26 37 239 144 242 123 452 241 467 264 11 18 10 32 -4
50 -26 33 -52 29 -128 -18z"/>
<path d="M332 2178 c-40 -40 35 -133 180 -224 48 -31 88 -59 88 -63 0 -4 -16
-22 -35 -41 -50 -48 -44 -100 11 -100 23 0 139 93 157 125 15 28 -11 71 -61
99 -115 66 -171 105 -228 158 -61 58 -89 69 -112 46z"/>
<path d="M491 1349 c-30 -10 -118 -30 -194 -44 -77 -14 -151 -32 -164 -40 -26
-18 -31 -56 -8 -75 16 -14 20 -13 210 19 66 12 121 21 122 21 0 0 -7 -23 -18
-50 -25 -66 -25 -180 0 -235 10 -22 37 -62 59 -88 80 -92 50 -157 -112 -238
-97 -48 -106 -55 -106 -83 0 -29 18 -46 48 -46 36 0 161 62 219 109 67 52 93
103 93 176 0 63 -7 81 -60 145 -52 64 -60 82 -60 142 0 58 40 156 85 210 29
34 32 60 9 82 -20 21 -56 19 -123 -5z"/>
</g>
</svg>
