<?xml version="1.0" standalone="no"?>
<!DOCTYPE svg PUBLIC "-//W3C//DTD SVG 20010904//EN"
 "http://www.w3.org/TR/2001/REC-SVG-20010904/DTD/svg10.dtd">
<svg version="1.0" xmlns="http://www.w3.org/2000/svg"
 width="248.000000pt" height="248.000000pt" viewBox="0 0 248.000000 248.000000"
 preserveAspectRatio="xMidYMid meet">
<metadata>
Created by potrace 1.10, written by Peter Selinger 2001-2011
</metadata>
<g transform="translate(0.000000,248.000000) scale(0.100000,-0.100000)"
fill="#000000" stroke="none">
<path d="M477 2328 c-8 -13 -18 -43 -22 -68 -4 -25 -45 -158 -90 -296 -80
-243 -185 -490 -257 -603 -32 -51 -35 -82 -12 -106 44 -44 92 14 197 240 l65
139 99 18 c54 10 131 25 171 33 114 24 106 30 98 -82 -39 -572 -63 -1389 -42
-1433 8 -18 19 -25 41 -25 54 0 56 15 65 458 5 221 17 533 26 692 10 160 18
320 18 357 0 49 3 69 14 73 7 3 68 12 135 21 67 8 125 18 129 20 3 2 41 9 84
14 93 12 124 29 124 69 0 52 -16 55 -157 32 -71 -12 -211 -35 -313 -52 -102
-16 -205 -35 -230 -40 -81 -18 -204 -38 -208 -34 -3 2 27 102 67 222 82 254
95 307 78 343 -17 35 -61 39 -80 8z"/>
<path d="M1483 2338 c-6 -7 -13 -62 -16 -123 -10 -194 -82 -430 -223 -733 -19
-40 -34 -76 -34 -80 0 -4 -9 -18 -20 -32 -36 -46 -21 -100 27 -100 26 0 56 29
79 79 9 20 27 59 41 86 28 58 97 221 119 282 17 46 13 45 249 78 60 9 119 18
133 22 l25 6 -7 -119 c-11 -200 -26 -783 -26 -1079 0 -154 -3 -297 -6 -317
l-6 -37 -34 14 c-19 8 -54 28 -78 44 -25 17 -54 31 -65 31 -23 0 -51 -25 -51
-47 0 -25 70 -84 130 -110 30 -13 68 -30 83 -38 31 -16 75 -19 94 -7 32 20 35
71 44 637 8 530 25 1024 35 1035 9 8 197 49 277 60 43 6 88 15 101 20 29 11
38 42 19 69 -21 31 -97 27 -282 -13 -86 -19 -201 -39 -256 -46 -55 -7 -149
-21 -209 -31 -61 -10 -111 -17 -113 -15 -2 2 7 48 21 102 49 191 55 316 19
357 -19 20 -56 23 -70 5z"/>
</g>
</svg>
