<?xml version="1.0" standalone="no"?>
<!DOCTYPE svg PUBLIC "-//W3C//DTD SVG 20010904//EN"
 "http://www.w3.org/TR/2001/REC-SVG-20010904/DTD/svg10.dtd">
<svg version="1.0" xmlns="http://www.w3.org/2000/svg"
 width="248.000000pt" height="248.000000pt" viewBox="0 0 248.000000 248.000000"
 preserveAspectRatio="xMidYMid meet">
<metadata>
Created by potrace 1.10, written by Peter Selinger 2001-2011
</metadata>
<g transform="translate(0.000000,248.000000) scale(0.100000,-0.100000)"
fill="#000000" stroke="none">
<path d="M1192 2338 c-7 -7 -12 -39 -12 -72 0 -96 -29 -310 -58 -425 l-27
-106 -65 -7 c-105 -12 -359 -38 -435 -44 -38 -4 -76 -11 -82 -16 -16 -13 -17
-50 -1 -66 17 -17 142 -15 358 7 101 11 188 17 192 15 9 -6 -40 -146 -92 -264
-131 -295 -340 -612 -548 -832 -54 -56 -73 -83 -70 -99 4 -29 29 -44 59 -36
57 14 294 298 436 522 114 179 253 469 308 643 l25 79 52 7 c191 24 745 72
752 65 7 -6 -20 -194 -49 -352 -60 -316 -183 -752 -243 -857 -54 -97 -85 -140
-98 -140 -20 0 -108 45 -157 81 -62 45 -107 36 -107 -23 0 -22 11 -35 58 -66
137 -94 231 -117 281 -71 28 27 79 105 118 184 95 190 229 712 283 1105 28
199 28 209 0 232 -18 15 -34 17 -79 13 -31 -2 -90 -7 -131 -10 -113 -8 -485
-44 -570 -54 -41 -5 -77 -8 -81 -5 -4 2 2 36 13 76 24 90 58 339 58 422 0 40
-6 69 -16 84 -17 24 -53 29 -72 10z"/>
</g>
</svg>
