<?xml version="1.0" standalone="no"?>
<!DOCTYPE svg PUBLIC "-//W3C//DTD SVG 20010904//EN"
 "http://www.w3.org/TR/2001/REC-SVG-20010904/DTD/svg10.dtd">
<svg version="1.0" xmlns="http://www.w3.org/2000/svg"
 width="248.000000pt" height="248.000000pt" viewBox="0 0 248.000000 248.000000"
 preserveAspectRatio="xMidYMid meet">
<metadata>
Created by potrace 1.10, written by Peter Selinger 2001-2011
</metadata>
<g transform="translate(0.000000,248.000000) scale(0.100000,-0.100000)"
fill="#000000" stroke="none">
<path d="M749 2209 c-79 -11 -403 -93 -450 -113 -14 -6 -15 -28 -11 -179 2
-95 -1 -275 -7 -402 -19 -376 -25 -806 -12 -838 7 -17 25 -34 48 -43 33 -14
45 -14 127 1 50 9 119 23 153 31 35 8 104 18 155 24 138 14 130 -3 146 307 17
328 30 1139 18 1176 -14 45 -51 53 -167 36z m61 -264 l0 -165 -24 0 c-29 0
-236 -34 -292 -48 -21 -6 -51 -13 -66 -16 l-28 -6 0 155 0 155 28 6 c15 3 68
17 117 31 98 27 207 51 243 52 22 1 22 1 22 -164z m-2 -447 l-3 -173 -40 -7
c-22 -4 -87 -14 -145 -23 -58 -10 -133 -24 -168 -32 -34 -9 -65 -13 -69 -10
-3 3 -2 82 2 176 l7 169 42 10 c171 43 256 59 329 61 l47 1 -2 -172z m-12
-330 c-3 -29 -8 -123 -12 -209 l-6 -156 -91 -16 c-51 -9 -139 -26 -197 -37
-58 -11 -108 -20 -112 -20 -5 0 -8 90 -8 200 0 198 0 201 23 210 36 15 195 48
292 60 49 6 92 13 94 16 15 15 22 -3 17 -48z"/>
</g>
</svg>
