<?xml version="1.0" standalone="no"?>
<!DOCTYPE svg PUBLIC "-//W3C//DTD SVG 20010904//EN"
 "http://www.w3.org/TR/2001/REC-SVG-20010904/DTD/svg10.dtd">
<svg version="1.0" xmlns="http://www.w3.org/2000/svg"
 width="248.000000pt" height="248.000000pt" viewBox="0 0 248.000000 248.000000"
 preserveAspectRatio="xMidYMid meet">
<metadata>
Created by potrace 1.10, written by Peter Selinger 2001-2011
</metadata>
<g transform="translate(0.000000,248.000000) scale(0.100000,-0.100000)"
fill="#000000" stroke="none">
<path d="M296 2091 c-4 -6 -9 -151 -11 -323 -2 -172 -8 -407 -14 -523 -15
-298 -14 -544 2 -575 17 -33 66 -35 83 -3 7 15 13 142 17 350 4 181 12 422 18
536 6 115 9 271 7 347 -3 122 -6 142 -24 167 -21 28 -67 43 -78 24z"/>
</g>
</svg>
