<?xml version="1.0" standalone="no"?>
<!DOCTYPE svg PUBLIC "-//W3C//DTD SVG 20010904//EN"
 "http://www.w3.org/TR/2001/REC-SVG-20010904/DTD/svg10.dtd">
<svg version="1.0" xmlns="http://www.w3.org/2000/svg"
 width="248.000000pt" height="248.000000pt" viewBox="0 0 248.000000 248.000000"
 preserveAspectRatio="xMidYMid meet">
<metadata>
Created by potrace 1.10, written by Peter Selinger 2001-2011
</metadata>
<g transform="translate(0.000000,248.000000) scale(0.100000,-0.100000)"
fill="#000000" stroke="none">
<path d="M1544 2305 c-14 -22 -16 -43 -10 -143 l7 -117 -143 -18 c-79 -10
-176 -23 -217 -27 -96 -12 -116 -28 -106 -90 4 -25 10 -90 14 -144 6 -79 11
-102 26 -112 24 -18 36 -18 61 0 17 13 19 26 17 125 -1 95 1 111 15 115 42 12
298 41 577 66 61 5 152 15 203 20 51 6 109 10 128 8 l36 -3 -56 -85 c-31 -46
-56 -92 -56 -102 0 -10 11 -25 25 -34 23 -15 27 -15 49 -1 23 15 116 140 116
156 0 4 11 22 25 41 28 39 33 91 10 114 -26 25 -83 30 -210 18 -265 -26 -395
-35 -402 -29 -4 4 -9 58 -12 121 -4 74 -11 119 -20 129 -20 25 -58 21 -77 -8z"/>
<path d="M749 2209 c-79 -11 -403 -93 -450 -113 -14 -6 -15 -28 -11 -179 2
-95 -1 -275 -7 -402 -19 -376 -25 -806 -12 -838 7 -17 25 -34 48 -43 33 -14
45 -14 127 1 50 9 119 23 153 31 35 8 104 18 155 24 138 14 130 -3 146 307 17
328 30 1139 18 1176 -14 45 -51 53 -167 36z m61 -264 l0 -165 -24 0 c-29 0
-236 -34 -292 -48 -21 -6 -51 -13 -66 -16 l-28 -6 0 155 0 155 28 6 c15 3 68
17 117 31 98 27 207 51 243 52 22 1 22 1 22 -164z m0 -444 c0 -94 -4 -172 -8
-175 -5 -3 -70 -14 -145 -25 -75 -11 -166 -28 -202 -37 -36 -9 -68 -14 -72
-11 -3 3 -2 82 2 176 l7 169 42 10 c171 43 256 59 329 61 l47 1 0 -169z m-14
-333 c-3 -29 -8 -123 -12 -209 l-6 -156 -91 -16 c-51 -9 -139 -26 -197 -37
-58 -11 -108 -20 -112 -20 -5 0 -8 90 -8 200 0 198 0 201 23 210 36 15 195 48
292 60 49 6 92 13 94 16 15 15 22 -3 17 -48z"/>
<path d="M2030 1629 c-36 -5 -150 -18 -255 -30 -104 -12 -215 -25 -245 -29
-30 -4 -147 -17 -260 -30 -223 -25 -253 -34 -248 -78 6 -49 39 -55 190 -37
217 25 300 35 356 44 28 4 54 6 56 4 5 -5 -5 -1187 -10 -1192 -2 -3 -28 21
-57 52 -55 59 -83 70 -111 41 -9 -8 -16 -25 -16 -36 0 -25 146 -177 195 -204
44 -23 85 -11 96 28 4 14 8 319 10 677 l4 651 40 5 c22 3 127 14 233 25 106
11 201 24 212 30 25 13 34 44 20 70 -9 17 -20 20 -78 19 -37 -1 -96 -6 -132
-10z"/>
<path d="M682 538 c-28 -28 -15 -59 101 -242 76 -121 106 -156 131 -156 60 0
60 56 0 146 -26 38 -67 103 -92 144 -24 41 -54 85 -65 98 -22 24 -56 29 -75
10z"/>
<path d="M376 478 c-9 -12 -16 -29 -16 -38 0 -8 -29 -69 -65 -135 -36 -66 -65
-129 -65 -140 0 -51 55 -60 93 -16 14 17 50 79 81 140 57 112 71 172 44 199
-19 19 -55 14 -72 -10z"/>
</g>
</svg>
