<?xml version="1.0" standalone="no"?>
<!DOCTYPE svg PUBLIC "-//W3C//DTD SVG 20010904//EN"
 "http://www.w3.org/TR/2001/REC-SVG-20010904/DTD/svg10.dtd">
<svg version="1.0" xmlns="http://www.w3.org/2000/svg"
 width="248.000000pt" height="248.000000pt" viewBox="0 0 248.000000 248.000000"
 preserveAspectRatio="xMidYMid meet">
<metadata>
Created by potrace 1.10, written by Peter Selinger 2001-2011
</metadata>
<g transform="translate(0.000000,248.000000) scale(0.100000,-0.100000)"
fill="#000000" stroke="none">
<path d="M749 2209 c-79 -11 -403 -93 -450 -113 -14 -6 -15 -28 -11 -179 2
-95 -1 -275 -7 -402 -6 -126 -14 -363 -17 -525 -6 -328 -4 -345 51 -345 50 0
55 24 55 267 0 139 4 219 10 223 20 13 176 46 280 61 58 8 113 17 124 20 16 5
18 2 12 -42 -3 -27 -8 -130 -11 -229 -7 -199 -1 -228 46 -233 48 -6 52 12 67
287 17 326 30 1137 18 1174 -14 45 -51 53 -167 36z m61 -264 l0 -165 -24 0
c-29 0 -236 -34 -292 -48 -21 -6 -51 -13 -66 -16 l-28 -6 0 155 0 155 28 6
c15 3 68 17 117 31 98 27 207 51 243 52 22 1 22 1 22 -164z m-2 -447 l-3 -173
-40 -7 c-22 -4 -87 -14 -145 -23 -58 -10 -133 -24 -168 -32 -34 -9 -65 -13
-69 -10 -3 3 -2 82 2 176 l7 169 42 10 c171 43 256 59 329 61 l47 1 -2 -172z"/>
</g>
</svg>
