<?xml version="1.0" standalone="no"?>
<!DOCTYPE svg PUBLIC "-//W3C//DTD SVG 20010904//EN"
 "http://www.w3.org/TR/2001/REC-SVG-20010904/DTD/svg10.dtd">
<svg version="1.0" xmlns="http://www.w3.org/2000/svg"
 width="248.000000pt" height="248.000000pt" viewBox="0 0 248.000000 248.000000"
 preserveAspectRatio="xMidYMid meet">
<metadata>
Created by potrace 1.10, written by Peter Selinger 2001-2011
</metadata>
<g transform="translate(0.000000,248.000000) scale(0.100000,-0.100000)"
fill="#000000" stroke="none">
<path d="M1179 2379 c-15 -15 -19 -27 -14 -42 4 -12 10 -86 12 -164 6 -167 13
-157 -127 -168 -52 -3 -140 -13 -195 -21 -55 -7 -124 -14 -152 -14 -81 0 -117
-46 -72 -91 16 -16 29 -19 57 -15 49 7 286 34 392 45 59 5 87 5 93 -3 9 -11 1
-301 -8 -316 -3 -4 -53 -11 -112 -15 -60 -4 -139 -13 -176 -21 -38 -8 -81 -14
-96 -14 -60 0 -86 -61 -42 -101 18 -17 21 -31 21 -93 0 -40 4 -142 10 -227 5
-85 11 -263 13 -397 3 -203 6 -246 19 -259 18 -17 20 -17 623 -7 401 6 376 0
374 99 -3 125 21 823 31 880 15 90 13 151 -6 170 -17 17 -56 17 -437 -1 l-118
-5 3 163 3 163 65 7 c36 3 101 9 145 13 44 3 143 13 220 21 77 9 162 13 190 9
35 -4 56 -2 69 8 23 17 24 66 1 83 -19 14 -124 11 -370 -12 -88 -8 -196 -16
-240 -17 l-80 -2 -2 105 c-1 58 -2 131 -2 163 -1 86 -45 123 -92 76z m556
-911 c-2 -29 -7 -83 -11 -121 -7 -79 14 -71 -214 -87 -91 -6 -201 -15 -245
-20 -77 -9 -393 -16 -400 -8 -1 1 -6 49 -10 105 l-7 103 25 9 c32 12 307 41
542 57 50 4 92 8 94 10 2 2 55 4 118 4 l113 0 -5 -52z m-26 -302 c8 -9 11 -56
9 -142 l-3 -129 -393 -7 c-216 -3 -405 -3 -420 1 l-27 7 0 114 c0 105 1 113
20 117 11 2 121 8 245 13 232 9 512 29 519 36 9 9 39 3 50 -10z m-3 -381 c8
-20 -11 -214 -22 -224 -5 -5 -185 -12 -401 -15 -373 -7 -391 -6 -396 11 -3 10
-7 65 -9 123 l-3 105 185 5 c102 3 288 7 413 8 193 2 228 0 233 -13z"/>
<path d="M330 1206 c-12 -16 -11 -64 5 -311 4 -54 8 -176 20 -635 2 -80 4
-151 5 -158 0 -19 41 -30 75 -20 16 5 66 11 110 13 45 3 102 9 128 14 137 25
726 21 997 -8 52 -6 145 -15 205 -21 61 -6 120 -13 132 -16 14 -4 28 1 42 15
26 26 27 45 2 70 -15 15 -41 20 -127 25 -60 4 -139 12 -175 17 -207 28 -768
38 -1019 18 -80 -6 -174 -12 -210 -13 l-65 -1 -7 175 c-4 96 -12 314 -17 483
-7 211 -14 317 -23 335 -15 32 -58 41 -78 18z"/>
</g>
</svg>
