<?xml version="1.0" standalone="no"?>
<!DOCTYPE svg PUBLIC "-//W3C//DTD SVG 20010904//EN"
 "http://www.w3.org/TR/2001/REC-SVG-20010904/DTD/svg10.dtd">
<svg version="1.0" xmlns="http://www.w3.org/2000/svg"
 width="248.000000pt" height="248.000000pt" viewBox="0 0 248.000000 248.000000"
 preserveAspectRatio="xMidYMid meet">
<metadata>
Created by potrace 1.10, written by Peter Selinger 2001-2011
</metadata>
<g transform="translate(0.000000,248.000000) scale(0.100000,-0.100000)"
fill="#000000" stroke="none">
<path d="M1186 2387 c-10 -7 -17 -24 -17 -38 0 -13 4 -90 7 -171 7 -173 15
-162 -126 -173 -52 -3 -140 -13 -195 -21 -55 -7 -124 -14 -152 -14 -81 0 -117
-46 -72 -91 16 -16 28 -19 57 -15 53 9 206 26 356 40 104 9 129 9 133 -1 8
-19 -6 -306 -15 -315 -4 -4 -54 -10 -112 -14 -58 -3 -136 -13 -173 -20 -38 -8
-81 -14 -96 -14 -60 0 -86 -61 -42 -101 18 -17 21 -31 21 -92 0 -40 4 -144 10
-232 5 -88 11 -266 14 -395 2 -129 7 -242 11 -252 13 -33 72 -29 84 5 4 12 4
83 0 157 -10 196 -10 488 0 494 5 4 123 11 263 16 250 10 326 15 463 28 39 4
81 6 94 4 l24 -4 -7 -221 c-3 -122 -11 -264 -16 -315 -12 -108 -4 -132 39
-132 37 0 55 23 57 74 1 22 7 212 13 421 6 209 15 407 21 440 16 95 13 149 -9
169 -20 18 -25 18 -429 0 l-123 -5 3 163 3 163 135 12 c74 7 203 19 285 28 83
9 176 14 207 13 34 -2 62 2 69 9 17 17 14 65 -6 79 -19 14 -124 11 -370 -12
-88 -8 -196 -16 -240 -17 l-80 -2 -2 55 c-1 30 -2 103 -2 163 -1 93 -4 110
-21 127 -23 23 -39 25 -64 7z m549 -919 c-2 -29 -7 -83 -11 -121 -7 -80 13
-71 -214 -87 -91 -6 -201 -15 -245 -20 -76 -9 -393 -16 -400 -8 -2 2 -5 50 -7
108 l-3 104 55 13 c30 6 91 15 135 18 69 5 331 28 435 38 19 2 86 5 148 5
l112 2 -5 -52z"/>
</g>
</svg>
