<?xml version="1.0" standalone="no"?>
<!DOCTYPE svg PUBLIC "-//W3C//DTD SVG 20010904//EN"
 "http://www.w3.org/TR/2001/REC-SVG-20010904/DTD/svg10.dtd">
<svg version="1.0" xmlns="http://www.w3.org/2000/svg"
 width="248.000000pt" height="248.000000pt" viewBox="0 0 248.000000 248.000000"
 preserveAspectRatio="xMidYMid meet">
<metadata>
Created by potrace 1.10, written by Peter Selinger 2001-2011
</metadata>
<g transform="translate(0.000000,248.000000) scale(0.100000,-0.100000)"
fill="#000000" stroke="none">
<path d="M1780 2069 c-151 -8 -869 -75 -960 -89 -36 -5 -89 -10 -117 -10 -81
0 -117 -46 -72 -91 16 -16 28 -19 57 -15 88 14 305 36 697 71 154 14 317 30
362 35 45 6 111 9 147 8 72 -3 89 6 89 48 0 31 -26 55 -57 52 -12 0 -77 -5
-146 -9z"/>
</g>
</svg>
