<?xml version="1.0" standalone="no"?>
<!DOCTYPE svg PUBLIC "-//W3C//DTD SVG 20010904//EN"
 "http://www.w3.org/TR/2001/REC-SVG-20010904/DTD/svg10.dtd">
<svg version="1.0" xmlns="http://www.w3.org/2000/svg"
 width="248.000000pt" height="248.000000pt" viewBox="0 0 248.000000 248.000000"
 preserveAspectRatio="xMidYMid meet">
<metadata>
Created by potrace 1.10, written by Peter Selinger 2001-2011
</metadata>
<g transform="translate(0.000000,248.000000) scale(0.100000,-0.100000)"
fill="#000000" stroke="none">
<path d="M1186 2387 c-10 -7 -17 -24 -17 -38 0 -13 4 -90 7 -171 7 -173 15
-162 -126 -173 -52 -3 -140 -13 -195 -21 -55 -7 -124 -14 -152 -14 -81 0 -117
-46 -72 -91 16 -16 28 -19 57 -15 145 23 483 53 489 43 2 -4 2 -91 -2 -193 -7
-198 -4 -214 40 -214 44 0 49 20 53 219 2 102 5 191 7 197 2 6 64 16 152 23
81 7 206 19 276 27 71 8 157 13 192 12 39 -2 69 2 76 9 17 17 14 65 -6 79 -19
14 -124 11 -370 -12 -88 -8 -196 -16 -240 -17 l-80 -2 -2 55 c-1 30 -2 103 -2
163 -1 93 -4 110 -21 127 -23 23 -39 25 -64 7z"/>
<path d="M772 1508 c-15 -15 -16 -171 -2 -393 5 -88 11 -266 14 -395 2 -129 7
-243 11 -252 13 -33 72 -29 84 6 4 11 4 82 0 156 -4 74 -8 212 -8 305 -1 217
-21 556 -34 573 -12 15 -49 16 -65 0z"/>
</g>
</svg>
