<?xml version="1.0" standalone="no"?>
<!DOCTYPE svg PUBLIC "-//W3C//DTD SVG 20010904//EN"
 "http://www.w3.org/TR/2001/REC-SVG-20010904/DTD/svg10.dtd">
<svg version="1.0" xmlns="http://www.w3.org/2000/svg"
 width="248.000000pt" height="248.000000pt" viewBox="0 0 248.000000 248.000000"
 preserveAspectRatio="xMidYMid meet">
<metadata>
Created by potrace 1.10, written by Peter Selinger 2001-2011
</metadata>
<g transform="translate(0.000000,248.000000) scale(0.100000,-0.100000)"
fill="#000000" stroke="none">
<path d="M652 2407 c-7 -8 -11 -61 -11 -130 0 -65 -3 -122 -6 -127 -3 -5 -24
-11 -48 -14 -23 -3 -78 -10 -122 -16 -44 -5 -111 -13 -150 -16 -38 -3 -76 -11
-82 -16 -16 -13 -17 -50 -1 -66 14 -14 147 -16 233 -3 33 6 85 11 115 13 l55
3 -4 -100 c-1 -55 -6 -118 -10 -140 l-6 -40 -120 -17 c-65 -9 -141 -22 -167
-28 -27 -5 -61 -10 -77 -10 -31 0 -71 -36 -71 -65 0 -10 7 -26 15 -36 15 -16
40 -183 30 -199 -3 -4 0 -47 6 -96 5 -49 10 -115 10 -146 1 -40 6 -65 18 -79
l17 -22 250 41 c319 52 434 66 494 59 31 -4 54 -1 65 7 22 16 75 265 100 470
17 138 17 148 1 164 -21 22 -98 19 -286 -8 -201 -29 -180 -42 -174 108 3 70 7
132 9 138 2 6 25 14 52 17 26 3 129 15 228 27 99 11 192 26 208 32 37 14 46
53 19 81 -20 19 -25 20 -89 8 -62 -10 -380 -51 -403 -51 -6 0 -10 46 -10 113
0 86 -4 118 -16 135 -17 24 -56 29 -72 9z m432 -764 c-12 -115 -4 -109 -143
-116 -66 -4 -141 -11 -165 -17 -52 -11 -288 -45 -388 -55 l-68 -7 -2 56 c-1
31 -2 66 -2 78 -1 19 7 24 59 34 33 7 123 20 200 30 77 9 210 27 295 39 85 13
170 24 188 24 l34 1 -8 -67z m-42 -251 c-2 -23 -9 -61 -16 -85 l-12 -42 -79
-7 c-106 -10 -344 -44 -475 -67 -58 -11 -108 -16 -112 -12 -3 3 -8 42 -10 86
l-3 80 200 26 c110 15 227 32 260 38 71 14 201 29 230 27 17 -1 20 -7 17 -44z"/>
</g>
</svg>
