<?xml version="1.0" standalone="no"?>
<!DOCTYPE svg PUBLIC "-//W3C//DTD SVG 20010904//EN"
 "http://www.w3.org/TR/2001/REC-SVG-20010904/DTD/svg10.dtd">
<svg version="1.0" xmlns="http://www.w3.org/2000/svg"
 width="248.000000pt" height="248.000000pt" viewBox="0 0 248.000000 248.000000"
 preserveAspectRatio="xMidYMid meet">
<metadata>
Created by potrace 1.10, written by Peter Selinger 2001-2011
</metadata>
<g transform="translate(0.000000,248.000000) scale(0.100000,-0.100000)"
fill="#000000" stroke="none">
<path d="M1645 2319 c-184 -13 -276 -26 -290 -40 -28 -31 -35 -136 -36 -513 0
-210 -4 -401 -7 -425 l-7 -45 -115 -17 c-132 -19 -161 -29 -185 -61 l-17 -23
6 30 c4 17 10 66 15 109 10 84 2 119 -28 132 -29 12 -403 3 -500 -12 -51 -8
-95 -13 -97 -12 -1 2 6 37 16 78 10 41 21 92 25 112 l6 36 62 7 c34 3 155 11
269 18 132 8 211 17 221 25 8 7 32 56 52 110 21 53 62 155 91 226 82 197 80
202 -102 198 -69 -2 -150 -7 -182 -12 -31 -6 -100 -10 -152 -10 -107 -1 -231
-20 -255 -40 -8 -7 -15 -23 -15 -35 0 -45 15 -48 217 -34 103 6 238 14 300 16
l111 5 -65 -165 -66 -165 -81 -6 c-45 -3 -166 -12 -269 -19 -227 -16 -220 -12
-247 -148 -10 -52 -26 -121 -36 -154 -9 -33 -17 -76 -18 -95 -2 -61 50 -70
224 -40 30 6 135 11 234 13 l179 2 -6 -70 c-15 -193 -143 -596 -242 -760 -64
-105 -182 -258 -194 -251 -5 3 -14 27 -20 52 -20 77 -38 104 -69 104 -60 0
-64 -30 -23 -154 50 -150 100 -174 183 -88 62 65 167 204 219 293 70 120 151
336 199 534 44 182 39 171 57 145 17 -24 25 -24 156 1 58 10 70 10 78 -2 14
-20 6 -316 -16 -616 -19 -261 -17 -316 16 -336 36 -22 88 14 246 170 66 64 75
89 45 116 -30 27 -50 20 -115 -41 -108 -101 -101 -102 -93 13 4 55 14 183 23
285 9 113 13 232 10 307 l-6 121 72 6 c40 3 191 13 337 21 462 27 499 31 521
51 10 9 19 27 19 39 0 50 -4 51 -403 27 -205 -12 -398 -25 -431 -28 -58 -5
-59 -5 -52 18 4 13 10 78 13 145 l6 121 31 6 c17 4 127 9 244 13 190 5 215 8
237 25 30 23 32 49 5 73 -18 16 -36 17 -212 11 -106 -3 -219 -9 -250 -12 l-58
-6 0 95 c0 82 2 96 18 101 9 3 115 12 235 20 234 15 267 24 267 69 0 38 -19
47 -99 47 -80 0 -293 -15 -373 -26 l-48 -6 0 95 c0 83 2 96 18 101 9 3 119 13
242 21 264 18 311 24 328 37 15 13 16 50 0 66 -14 14 -191 14 -373 1z"/>
<path d="M2074 1067 c-54 -40 -142 -98 -194 -129 -107 -64 -130 -82 -130 -102
0 -22 29 -46 56 -46 43 0 170 75 337 199 89 65 111 97 90 130 -22 35 -56 24
-159 -52z"/>
</g>
</svg>
