<?xml version="1.0" standalone="no"?>
<!DOCTYPE svg PUBLIC "-//W3C//DTD SVG 20010904//EN"
 "http://www.w3.org/TR/2001/REC-SVG-20010904/DTD/svg10.dtd">
<svg version="1.0" xmlns="http://www.w3.org/2000/svg"
 width="248.000000pt" height="248.000000pt" viewBox="0 0 248.000000 248.000000"
 preserveAspectRatio="xMidYMid meet">
<metadata>
Created by potrace 1.10, written by Peter Selinger 2001-2011
</metadata>
<g transform="translate(0.000000,248.000000) scale(0.100000,-0.100000)"
fill="#000000" stroke="none">
<path d="M1014 2335 c-13 -21 -15 -43 -9 -153 4 -72 4 -132 -1 -135 -5 -3 -70
-13 -144 -22 -151 -19 -183 -32 -178 -73 6 -52 60 -56 284 -18 38 7 42 5 48
-16 3 -13 6 -82 6 -154 l0 -131 -67 -12 c-38 -7 -108 -19 -157 -26 -49 -8 -96
-21 -104 -29 -13 -13 -14 -29 -4 -113 6 -54 14 -159 18 -233 7 -147 24 -209
64 -230 17 -9 42 -9 104 -1 44 7 98 14 119 16 l37 5 0 -103 0 -104 -132 -17
c-73 -9 -169 -21 -213 -27 -91 -12 -125 -29 -125 -63 0 -40 23 -49 103 -43 67
5 262 30 334 42 l32 6 -6 -288 c-6 -317 -4 -326 52 -325 51 0 55 17 55 231 0
108 3 239 6 292 l7 95 91 12 c50 7 103 12 117 12 73 0 115 42 89 89 -12 24
-61 28 -133 11 -23 -5 -70 -11 -104 -13 l-63 -3 0 97 0 96 46 7 c26 3 60 6 75
6 39 0 108 29 119 50 34 64 58 483 31 552 -16 41 -69 53 -183 41 -51 -5 -94
-9 -94 -9 -1 1 -4 69 -7 151 l-6 151 118 18 c143 21 166 31 166 71 0 50 -30
56 -164 34 -63 -10 -116 -17 -117 -16 -2 2 -6 59 -10 127 -4 80 -11 133 -20
148 -19 30 -59 29 -80 -3z m301 -836 c4 -33 6 -62 4 -64 -2 -1 -56 -8 -119
-15 -63 -6 -173 -23 -244 -36 -71 -14 -135 -23 -142 -20 -10 4 -14 24 -14 65
l0 59 43 7 c23 3 74 13 112 21 108 22 244 42 302 43 l51 1 7 -61z m-5 -209 c0
-17 -5 -59 -12 -95 -14 -74 -9 -71 -156 -74 -53 -1 -106 -4 -117 -6 -11 -3
-44 -7 -73 -10 -29 -2 -69 -8 -91 -11 l-38 -6 -6 78 c-3 43 -5 80 -4 81 15 14
361 70 450 72 46 1 47 0 47 -29z"/>
<path d="M232 2168 c-30 -30 -13 -59 97 -168 61 -61 121 -112 135 -116 31 -7
66 18 66 47 0 17 -141 167 -209 222 -36 29 -69 35 -89 15z"/>
<path d="M122 1688 c-13 -13 -16 -47 -4 -63 4 -6 27 -26 52 -45 25 -19 87 -70
138 -112 91 -77 124 -92 150 -66 7 7 12 23 12 36 0 28 -43 70 -192 188 -93 74
-129 89 -156 62z"/>
<path d="M342 677 c-28 -33 -172 -453 -172 -499 0 -30 17 -48 45 -48 33 0 50
26 80 120 46 144 72 222 106 307 27 70 31 86 21 108 -9 18 -19 25 -41 25 -16
0 -33 -6 -39 -13z"/>
</g>
</svg>
