<?xml version="1.0" standalone="no"?>
<!DOCTYPE svg PUBLIC "-//W3C//DTD SVG 20010904//EN"
 "http://www.w3.org/TR/2001/REC-SVG-20010904/DTD/svg10.dtd">
<svg version="1.0" xmlns="http://www.w3.org/2000/svg"
 width="248.000000pt" height="248.000000pt" viewBox="0 0 248.000000 248.000000"
 preserveAspectRatio="xMidYMid meet">
<metadata>
Created by potrace 1.10, written by Peter Selinger 2001-2011
</metadata>
<g transform="translate(0.000000,248.000000) scale(0.100000,-0.100000)"
fill="#000000" stroke="none">
<path d="M854 2215 c-15 -23 -15 -34 -5 -98 18 -106 26 -712 12 -882 -25 -300
-39 -383 -104 -585 -54 -171 -101 -254 -212 -382 -56 -64 -68 -101 -43 -126
24 -24 56 -12 102 36 123 130 190 245 249 427 97 303 122 510 121 1015 0 365
-13 553 -40 598 -20 30 -59 29 -80 -3z"/>
<path d="M352 1668 c-17 -17 -15 -53 6 -70 9 -9 74 -37 143 -63 157 -59 204
-54 185 19 -5 20 -28 32 -141 75 -139 53 -172 60 -193 39z"/>
</g>
</svg>
