<?xml version="1.0" standalone="no"?>
<!DOCTYPE svg PUBLIC "-//W3C//DTD SVG 20010904//EN"
 "http://www.w3.org/TR/2001/REC-SVG-20010904/DTD/svg10.dtd">
<svg version="1.0" xmlns="http://www.w3.org/2000/svg"
 width="248.000000pt" height="248.000000pt" viewBox="0 0 248.000000 248.000000"
 preserveAspectRatio="xMidYMid meet">
<metadata>
Created by potrace 1.10, written by Peter Selinger 2001-2011
</metadata>
<g transform="translate(0.000000,248.000000) scale(0.100000,-0.100000)"
fill="#000000" stroke="none">
<path d="M232 2168 c-30 -30 -13 -59 97 -168 61 -61 121 -112 135 -116 31 -7
66 18 66 47 0 17 -141 167 -209 222 -36 29 -69 35 -89 15z"/>
<path d="M122 1688 c-13 -13 -16 -47 -4 -63 4 -6 27 -26 52 -45 25 -19 87 -70
138 -112 91 -77 124 -92 150 -66 7 7 12 23 12 36 0 28 -43 70 -192 188 -93 74
-129 89 -156 62z"/>
<path d="M342 677 c-28 -33 -172 -453 -172 -499 0 -30 17 -48 45 -48 33 0 50
26 80 120 46 144 72 222 106 307 27 70 31 86 21 108 -9 18 -19 25 -41 25 -16
0 -33 -6 -39 -13z"/>
</g>
</svg>
