<?xml version="1.0" standalone="no"?>
<!DOCTYPE svg PUBLIC "-//W3C//DTD SVG 20010904//EN"
 "http://www.w3.org/TR/2001/REC-SVG-20010904/DTD/svg10.dtd">
<svg version="1.0" xmlns="http://www.w3.org/2000/svg"
 width="248.000000pt" height="248.000000pt" viewBox="0 0 248.000000 248.000000"
 preserveAspectRatio="xMidYMid meet">
<metadata>
Created by potrace 1.10, written by Peter Selinger 2001-2011
</metadata>
<g transform="translate(0.000000,248.000000) scale(0.100000,-0.100000)"
fill="#000000" stroke="none">
<path d="M636 2298 c-13 -19 -16 -54 -16 -205 l0 -182 -47 -6 c-27 -4 -80 -13
-120 -21 -40 -8 -96 -14 -125 -14 -62 0 -98 -20 -98 -55 0 -30 35 -55 78 -55
19 0 89 9 155 20 67 11 132 22 145 24 22 3 22 3 22 -145 l0 -147 -27 -6 c-32
-7 -119 -19 -308 -41 -148 -18 -179 -29 -183 -66 -7 -60 35 -63 315 -24 97 14
177 25 179 25 2 0 4 -182 4 -405 0 -223 -2 -405 -3 -405 -13 0 -245 105 -256
116 -13 12 -12 32 8 154 22 132 23 141 7 165 -13 19 -24 25 -44 23 -35 -4 -48
-33 -62 -138 -18 -129 -69 -377 -92 -445 -11 -33 -33 -88 -49 -121 -16 -34
-29 -70 -29 -81 0 -45 55 -58 89 -22 28 30 84 168 111 270 12 46 23 85 25 88
3 2 28 -8 57 -22 29 -14 76 -35 103 -45 71 -28 180 -77 245 -111 72 -37 345
-125 451 -146 46 -8 149 -31 229 -50 80 -19 163 -36 185 -39 240 -32 609 -42
638 -17 20 16 22 64 5 78 -7 6 -119 13 -248 17 -272 8 -389 21 -590 70 -80 19
-174 40 -209 46 -88 16 -367 107 -418 137 l-43 25 0 193 0 193 68 12 c37 6
108 16 157 21 50 5 105 12 122 15 67 10 67 85 0 98 -18 3 -85 -1 -148 -10 -63
-8 -133 -18 -156 -21 l-43 -6 0 186 c0 183 0 185 23 190 31 8 176 25 282 32
50 4 100 13 113 21 29 19 29 59 -2 79 -20 13 -39 14 -142 5 -66 -6 -146 -15
-179 -20 -33 -6 -63 -10 -67 -10 -5 0 -8 70 -8 155 0 85 3 155 8 155 48 1 276
41 287 50 22 19 18 57 -8 75 -20 13 -35 13 -136 0 -62 -8 -124 -18 -137 -21
l-24 -6 0 168 c0 116 -4 177 -13 194 -17 34 -60 39 -81 8z"/>
<path d="M2050 2088 c-25 -3 -70 -7 -100 -7 -30 -1 -107 -8 -170 -16 -63 -8
-177 -21 -253 -29 -148 -15 -177 -27 -177 -71 0 -46 17 -49 201 -31 95 9 174
14 177 12 10 -11 -30 -90 -105 -206 -43 -66 -91 -142 -108 -168 -16 -26 -51
-71 -77 -100 -64 -70 -65 -132 -2 -132 26 0 104 82 160 169 156 240 193 301
225 374 l35 82 90 7 c49 4 111 12 137 18 26 5 66 10 87 10 38 0 40 -1 40 -32
-1 -128 -92 -427 -162 -533 -33 -49 -42 -49 -87 -1 -32 35 -77 35 -93 2 -13
-30 6 -64 68 -119 43 -39 85 -48 124 -27 75 40 209 351 243 564 17 103 15 202
-3 220 -17 16 -176 26 -250 14z"/>
</g>
</svg>
