<?xml version="1.0" standalone="no"?>
<!DOCTYPE svg PUBLIC "-//W3C//DTD SVG 20010904//EN"
 "http://www.w3.org/TR/2001/REC-SVG-20010904/DTD/svg10.dtd">
<svg version="1.0" xmlns="http://www.w3.org/2000/svg"
 width="248.000000pt" height="248.000000pt" viewBox="0 0 248.000000 248.000000"
 preserveAspectRatio="xMidYMid meet">
<metadata>
Created by potrace 1.10, written by Peter Selinger 2001-2011
</metadata>
<g transform="translate(0.000000,248.000000) scale(0.100000,-0.100000)"
fill="#000000" stroke="none">
<path d="M854 2215 c-15 -23 -15 -34 -5 -98 18 -106 26 -712 12 -882 -25 -300
-39 -383 -104 -585 -54 -171 -101 -254 -212 -382 -56 -64 -68 -101 -43 -126
24 -24 56 -12 102 36 123 130 190 245 249 427 97 303 122 510 121 1015 0 365
-13 553 -40 598 -20 30 -59 29 -80 -3z"/>
<path d="M1382 2218 c-9 -9 -12 -81 -12 -262 0 -138 -5 -472 -12 -743 -12
-497 -7 -641 23 -784 13 -61 69 -129 133 -161 102 -52 442 -74 669 -44 146 19
142 12 142 245 0 172 -2 191 -19 210 -21 23 -56 27 -74 9 -8 -8 -12 -63 -12
-179 0 -123 -3 -170 -12 -176 -22 -13 -431 -16 -521 -3 -91 13 -162 43 -185
78 -39 59 -49 268 -36 744 5 196 10 276 17 269 21 -21 62 -11 112 27 28 21 91
69 140 107 50 37 134 109 188 158 76 70 97 95 97 116 0 15 -5 32 -12 39 -29
29 -57 11 -217 -134 -31 -28 -83 -71 -116 -95 -33 -25 -87 -66 -120 -90 -33
-25 -64 -48 -70 -51 -7 -4 -10 113 -10 342 0 328 -1 349 -19 369 -21 23 -56
27 -74 9z"/>
<path d="M352 1668 c-17 -17 -15 -53 6 -70 9 -9 74 -37 143 -63 157 -59 204
-54 185 19 -5 20 -28 32 -141 75 -139 53 -172 60 -193 39z"/>
<path d="M1532 1218 c-7 -7 -12 -25 -12 -40 0 -23 10 -35 47 -61 26 -17 63
-46 82 -63 20 -17 53 -42 73 -55 20 -13 82 -61 138 -106 75 -62 109 -83 130
-83 33 0 55 29 45 60 -6 19 -166 157 -243 210 -20 14 -75 53 -120 88 -83 61
-117 73 -140 50z"/>
<path d="M468 989 c-185 -187 -228 -236 -228 -258 0 -32 16 -51 45 -51 34 0
485 454 485 488 0 27 -26 52 -53 52 -15 0 -92 -71 -249 -231z"/>
</g>
</svg>
