<?xml version="1.0" standalone="no"?>
<!DOCTYPE svg PUBLIC "-//W3C//DTD SVG 20010904//EN"
 "http://www.w3.org/TR/2001/REC-SVG-20010904/DTD/svg10.dtd">
<svg version="1.0" xmlns="http://www.w3.org/2000/svg"
 width="248.000000pt" height="248.000000pt" viewBox="0 0 248.000000 248.000000"
 preserveAspectRatio="xMidYMid meet">
<metadata>
Created by potrace 1.10, written by Peter Selinger 2001-2011
</metadata>
<g transform="translate(0.000000,248.000000) scale(0.100000,-0.100000)"
fill="#000000" stroke="none">
<path d="M636 2298 c-13 -19 -16 -54 -16 -205 l0 -182 -47 -6 c-27 -4 -80 -13
-120 -21 -40 -8 -96 -14 -125 -14 -62 0 -98 -20 -98 -55 0 -30 35 -55 78 -55
19 0 89 9 155 20 67 11 132 22 145 24 22 3 22 3 22 -145 l0 -147 -27 -6 c-32
-7 -119 -19 -308 -41 -148 -18 -179 -29 -183 -66 -7 -60 35 -63 315 -24 97 14
177 25 179 25 2 0 4 -205 4 -455 0 -445 0 -455 21 -476 14 -14 27 -18 42 -14
45 14 47 27 47 256 l0 217 68 12 c37 6 108 16 157 21 50 5 105 12 122 15 67
10 67 85 0 98 -18 3 -85 -1 -148 -10 -63 -8 -133 -18 -156 -21 l-43 -6 0 186
c0 183 0 185 23 190 31 8 176 25 282 32 50 4 100 13 113 21 29 19 29 59 -2 79
-20 13 -39 14 -142 5 -66 -6 -146 -15 -179 -20 -33 -6 -63 -10 -67 -10 -5 0
-8 70 -8 155 0 85 3 155 8 155 48 1 276 41 287 50 22 19 18 57 -8 75 -20 13
-35 13 -136 0 -62 -8 -124 -18 -137 -21 l-24 -6 0 168 c0 116 -4 177 -13 194
-17 34 -60 39 -81 8z"/>
</g>
</svg>
