<?xml version="1.0" standalone="no"?>
<!DOCTYPE svg PUBLIC "-//W3C//DTD SVG 20010904//EN"
 "http://www.w3.org/TR/2001/REC-SVG-20010904/DTD/svg10.dtd">
<svg version="1.0" xmlns="http://www.w3.org/2000/svg"
 width="248.000000pt" height="248.000000pt" viewBox="0 0 248.000000 248.000000"
 preserveAspectRatio="xMidYMid meet">
<metadata>
Created by potrace 1.10, written by Peter Selinger 2001-2011
</metadata>
<g transform="translate(0.000000,248.000000) scale(0.100000,-0.100000)"
fill="#000000" stroke="none">
<path d="M1005 2178 c-71 -5 -227 -18 -345 -29 -118 -11 -279 -26 -357 -33
-83 -8 -149 -18 -158 -26 -20 -17 -19 -43 4 -121 27 -87 70 -595 71 -834 0
-150 10 -180 55 -180 52 0 57 25 50 235 -3 102 -10 223 -15 270 -5 47 -17 174
-25 283 -9 110 -21 211 -26 225 -5 14 -6 28 -2 32 19 16 848 87 862 74 2 -2
-3 -70 -13 -151 -21 -187 -32 -294 -46 -458 -6 -71 -21 -191 -32 -265 -11 -74
-23 -150 -25 -168 -4 -23 0 -39 12 -52 39 -43 81 -17 95 60 17 88 47 334 60
480 11 141 33 338 54 500 15 113 8 144 -36 159 -17 6 -36 10 -42 9 -6 -1 -69
-5 -141 -10z"/>
</g>
</svg>
