<?xml version="1.0" standalone="no"?>
<!DOCTYPE svg PUBLIC "-//W3C//DTD SVG 20010904//EN"
 "http://www.w3.org/TR/2001/REC-SVG-20010904/DTD/svg10.dtd">
<svg version="1.0" xmlns="http://www.w3.org/2000/svg"
 width="248.000000pt" height="248.000000pt" viewBox="0 0 248.000000 248.000000"
 preserveAspectRatio="xMidYMid meet">
<metadata>
Created by potrace 1.10, written by Peter Selinger 2001-2011
</metadata>
<g transform="translate(0.000000,248.000000) scale(0.100000,-0.100000)"
fill="#000000" stroke="none">
<path d="M915 1959 c-137 -20 -395 -62 -462 -75 -40 -8 -96 -14 -125 -14 -62
0 -98 -20 -98 -55 0 -50 61 -66 171 -45 30 6 95 17 144 25 50 8 119 19 155 25
36 7 122 20 193 30 70 10 134 23 142 30 22 18 18 57 -7 74 -25 17 -26 18 -113
5z"/>
</g>
</svg>
