<?xml version="1.0" standalone="no"?>
<!DOCTYPE svg PUBLIC "-//W3C//DTD SVG 20010904//EN"
 "http://www.w3.org/TR/2001/REC-SVG-20010904/DTD/svg10.dtd">
<svg version="1.0" xmlns="http://www.w3.org/2000/svg"
 width="248.000000pt" height="248.000000pt" viewBox="0 0 248.000000 248.000000"
 preserveAspectRatio="xMidYMid meet">
<metadata>
Created by potrace 1.10, written by Peter Selinger 2001-2011
</metadata>
<g transform="translate(0.000000,248.000000) scale(0.100000,-0.100000)"
fill="#000000" stroke="none">
<path d="M1495 2250 c-38 -4 -128 -8 -200 -9 -115 -1 -302 -16 -506 -39 -96
-11 -121 -40 -83 -98 15 -23 16 -61 6 -447 -6 -232 -11 -436 -11 -453 0 -20
-7 -34 -17 -38 -8 -3 -106 -19 -217 -36 -320 -47 -327 -49 -327 -96 0 -37 40
-58 87 -45 21 6 117 22 213 36 96 14 186 27 198 29 l24 4 -6 -137 c-7 -143
-10 -198 -26 -456 -16 -252 -14 -339 8 -358 10 -10 23 -17 28 -17 10 0 163 98
261 167 29 20 89 73 133 118 81 83 96 115 68 143 -27 27 -57 12 -135 -69 -46
-47 -118 -108 -175 -145 -53 -35 -99 -64 -102 -64 -3 0 -4 15 -2 33 3 17 10
118 16 222 6 105 16 275 23 380 l12 190 40 7 c22 4 130 14 240 22 110 9 252
21 315 26 221 20 533 29 576 18 51 -14 89 -5 110 27 15 23 15 27 -1 52 l-17
26 -277 -7 c-240 -6 -852 -46 -935 -61 -27 -5 -28 -3 -21 23 4 15 6 73 6 130
-1 75 2 103 11 106 79 22 357 45 574 47 205 2 229 8 229 54 0 46 -30 55 -150
45 -55 -5 -174 -9 -265 -10 -100 0 -198 -6 -250 -15 -47 -8 -97 -15 -112 -15
l-28 0 0 95 c0 52 1 95 3 96 28 9 303 30 502 39 143 6 270 15 283 20 53 22 9
109 -49 96 -13 -3 -154 -13 -314 -22 -159 -8 -315 -19 -345 -23 -30 -5 -61 -6
-68 -4 -9 4 -12 39 -11 133 l0 129 27 5 c63 12 107 17 292 31 107 8 238 15
290 15 52 0 139 3 193 7 89 5 100 8 114 30 14 21 14 25 -1 48 -15 23 -22 25
-89 23 -39 0 -103 -4 -142 -8z"/>
</g>
</svg>
