<?xml version="1.0" standalone="no"?>
<!DOCTYPE svg PUBLIC "-//W3C//DTD SVG 20010904//EN"
 "http://www.w3.org/TR/2001/REC-SVG-20010904/DTD/svg10.dtd">
<svg version="1.0" xmlns="http://www.w3.org/2000/svg"
 width="248.000000pt" height="248.000000pt" viewBox="0 0 248.000000 248.000000"
 preserveAspectRatio="xMidYMid meet">
<metadata>
Created by potrace 1.10, written by Peter Selinger 2001-2011
</metadata>
<g transform="translate(0.000000,248.000000) scale(0.100000,-0.100000)"
fill="#000000" stroke="none">
<path d="M1735 2323 c-287 -18 -349 -25 -371 -38 -36 -23 -44 -111 -45 -526 0
-211 -3 -402 -7 -423 l-7 -40 -115 -17 c-132 -19 -162 -29 -185 -61 -16 -23
-16 -23 -10 12 27 162 24 220 -14 235 -31 13 -404 4 -500 -11 -51 -8 -95 -13
-97 -12 -1 2 6 37 16 78 10 41 21 92 25 113 3 20 11 37 18 38 190 8 529 38
540 48 9 6 34 60 57 119 23 59 64 162 91 228 78 188 71 197 -151 183 -80 -5
-212 -14 -295 -19 -221 -14 -265 -27 -265 -75 0 -45 14 -47 217 -34 103 6 239
14 300 16 l113 5 -29 -69 c-15 -37 -45 -111 -66 -165 l-37 -96 -97 -7 c-446
-31 -443 -30 -466 -57 -13 -15 -25 -47 -29 -74 -3 -27 -18 -94 -33 -149 -14
-55 -26 -116 -27 -135 -2 -61 50 -70 224 -40 30 6 135 11 234 13 l179 2 -6
-70 c-15 -193 -143 -596 -242 -760 -64 -105 -182 -258 -194 -251 -5 3 -14 27
-20 52 -20 77 -38 104 -69 104 -60 0 -65 -31 -23 -155 34 -100 61 -135 106
-135 37 0 88 49 188 181 143 190 225 374 302 679 52 206 44 186 62 160 17 -24
25 -24 156 1 58 10 70 10 78 -2 14 -20 6 -323 -16 -616 -20 -260 -17 -315 16
-336 36 -22 89 14 247 170 65 64 74 89 44 116 -30 27 -50 20 -115 -41 -108
-100 -101 -101 -93 8 4 52 14 183 23 290 9 119 13 240 10 311 l-6 116 52 7
c29 3 80 6 115 6 55 0 62 -2 62 -19 0 -33 69 -219 126 -339 59 -125 105 -192
264 -382 105 -126 166 -186 250 -250 25 -19 62 -49 83 -67 44 -39 88 -44 111
-12 8 12 12 29 8 39 -4 10 -64 64 -133 120 -98 78 -153 133 -241 238 -128 154
-198 246 -198 261 0 6 14 18 30 26 52 27 171 105 263 174 89 65 111 97 90 130
-23 36 -58 25 -160 -52 -90 -67 -260 -177 -275 -177 -13 0 -108 261 -108 296
0 26 9 27 357 48 182 10 215 15 232 30 25 23 27 58 5 77 -13 10 -66 10 -307
-5 -468 -29 -562 -34 -564 -32 -2 1 2 29 7 62 6 32 10 96 10 140 l0 82 33 6
c17 3 128 9 245 12 189 6 216 9 237 26 30 24 32 49 5 73 -18 16 -36 17 -212
11 -106 -3 -219 -9 -250 -12 l-58 -6 0 95 c0 71 3 96 14 100 7 3 85 10 172 16
88 6 188 13 223 16 78 6 113 26 109 62 -5 46 -21 48 -240 34 -112 -7 -220 -15
-240 -18 l-38 -5 0 95 c0 83 2 96 18 101 10 4 119 13 243 22 333 22 339 24
339 69 0 50 -40 55 -295 38z"/>
</g>
</svg>
