<?xml version="1.0" standalone="no"?>
<!DOCTYPE svg PUBLIC "-//W3C//DTD SVG 20010904//EN"
 "http://www.w3.org/TR/2001/REC-SVG-20010904/DTD/svg10.dtd">
<svg version="1.0" xmlns="http://www.w3.org/2000/svg"
 width="248.000000pt" height="248.000000pt" viewBox="0 0 248.000000 248.000000"
 preserveAspectRatio="xMidYMid meet">
<metadata>
Created by potrace 1.10, written by Peter Selinger 2001-2011
</metadata>
<g transform="translate(0.000000,248.000000) scale(0.100000,-0.100000)"
fill="#000000" stroke="none">
<path d="M652 2407 c-7 -8 -11 -61 -11 -130 0 -65 -3 -122 -6 -127 -3 -5 -24
-11 -48 -14 -23 -3 -78 -10 -122 -16 -44 -5 -111 -13 -150 -16 -38 -3 -76 -11
-82 -16 -16 -13 -17 -50 -1 -66 14 -14 147 -16 233 -3 33 6 85 11 115 13 49 3
55 1 55 -17 -1 -11 -4 -78 -8 -149 -7 -139 -3 -156 39 -156 43 0 54 35 60 181
3 74 7 139 9 145 2 6 25 14 52 17 26 3 129 15 228 27 99 11 192 26 208 32 37
14 46 53 19 81 -20 19 -25 20 -89 8 -62 -10 -380 -51 -403 -51 -6 0 -10 46
-10 113 0 86 -4 118 -16 135 -17 24 -56 29 -72 9z"/>
</g>
</svg>
