<?xml version="1.0" standalone="no"?>
<!DOCTYPE svg PUBLIC "-//W3C//DTD SVG 20010904//EN"
 "http://www.w3.org/TR/2001/REC-SVG-20010904/DTD/svg10.dtd">
<svg version="1.0" xmlns="http://www.w3.org/2000/svg"
 width="248.000000pt" height="248.000000pt" viewBox="0 0 248.000000 248.000000"
 preserveAspectRatio="xMidYMid meet">
<metadata>
Created by potrace 1.10, written by Peter Selinger 2001-2011
</metadata>
<g transform="translate(0.000000,248.000000) scale(0.100000,-0.100000)"
fill="#000000" stroke="none">
<path d="M1980 2274 c-8 -1 -60 -7 -115 -14 -55 -7 -152 -20 -215 -31 -63 -10
-167 -23 -230 -29 -205 -18 -260 -36 -260 -85 0 -38 24 -49 88 -41 131 16 307
34 310 31 12 -12 -178 -222 -225 -248 -8 -5 -50 -10 -94 -11 -49 0 -83 -6 -91
-14 -10 -10 -13 -61 -13 -205 0 -106 -2 -398 -3 -650 -2 -341 0 -462 9 -473
14 -17 275 -20 403 -4 45 5 188 16 319 23 199 11 240 16 255 31 21 21 21 99 3
841 -8 350 -16 518 -24 535 -7 14 -23 27 -37 29 -34 5 -193 -16 -375 -49 -82
-15 -152 -26 -154 -24 -3 2 10 21 27 42 33 38 129 178 135 195 3 10 54 19 222
37 110 12 145 28 145 64 0 33 -36 56 -80 50z m20 -506 c0 -46 3 -126 6 -179
l7 -95 -104 -13 c-57 -7 -135 -17 -174 -21 -38 -5 -110 -12 -160 -15 -49 -3
-115 -10 -145 -15 -30 -5 -85 -11 -121 -15 l-65 -6 0 164 1 164 75 12 c41 7
120 19 175 26 55 7 168 25 250 39 83 14 161 27 175 29 14 2 37 5 53 6 l27 1 0
-82z m10 -532 l0 -144 -72 -6 c-135 -12 -283 -27 -393 -41 -60 -8 -154 -17
-207 -20 l-98 -7 0 141 0 140 33 5 c81 12 211 27 307 36 235 21 313 30 318 35
3 3 29 5 59 5 l53 0 0 -144z m14 -302 c3 -26 6 -102 6 -170 l0 -122 -72 -7
c-131 -11 -410 -27 -565 -32 l-153 -4 0 155 0 155 58 5 c31 3 100 11 152 17
52 5 140 15 195 21 55 5 134 13 175 18 41 4 103 8 136 9 l61 1 7 -46z"/>
<path d="M899 1985 c-5 -4 -80 -15 -254 -35 -94 -11 -304 -46 -355 -60 -19 -5
-66 -12 -105 -16 -38 -3 -80 -13 -92 -20 -31 -20 -30 -59 2 -80 22 -14 35 -15
108 -5 45 7 100 17 121 22 37 10 200 38 202 35 1 0 4 -340 7 -754 l6 -753
-104 95 c-56 53 -111 96 -122 96 -27 0 -43 -19 -43 -53 0 -24 21 -49 121 -145
131 -127 156 -145 197 -140 59 7 57 -15 53 864 l-3 800 68 12 c38 7 111 19
163 27 52 8 100 20 107 26 21 17 17 66 -5 79 -20 10 -64 14 -72 5z"/>
<path d="M1296 401 c-47 -61 -170 -160 -263 -213 -30 -17 -58 -39 -64 -49 -22
-42 15 -78 66 -65 13 3 72 38 130 77 190 127 284 246 233 297 -27 27 -56 13
-102 -47z"/>
</g>
</svg>
