<?xml version="1.0" standalone="no"?>
<!DOCTYPE svg PUBLIC "-//W3C//DTD SVG 20010904//EN"
 "http://www.w3.org/TR/2001/REC-SVG-20010904/DTD/svg10.dtd">
<svg version="1.0" xmlns="http://www.w3.org/2000/svg"
 width="248.000000pt" height="248.000000pt" viewBox="0 0 248.000000 248.000000"
 preserveAspectRatio="xMidYMid meet">
<metadata>
Created by potrace 1.10, written by Peter Selinger 2001-2011
</metadata>
<g transform="translate(0.000000,248.000000) scale(0.100000,-0.100000)"
fill="#000000" stroke="none">
<path d="M1645 2319 c-184 -13 -276 -26 -290 -40 -28 -31 -35 -135 -35 -508 0
-208 -5 -404 -10 -439 -8 -48 -8 -69 2 -90 15 -31 58 -41 77 -18 17 20 41 184
41 282 l0 82 33 6 c17 4 128 9 245 13 190 5 215 8 237 25 30 23 32 49 5 73
-18 16 -36 17 -212 11 -106 -3 -219 -9 -250 -12 l-58 -6 0 95 c0 82 2 96 18
101 9 3 115 12 235 20 234 15 267 24 267 69 0 38 -19 47 -99 47 -80 0 -293
-15 -373 -26 l-48 -6 0 95 c0 83 2 96 18 101 9 3 119 13 242 21 264 18 311 24
328 37 15 13 16 50 0 66 -14 14 -191 14 -373 1z"/>
<path d="M975 2249 c-60 -4 -184 -12 -275 -18 -237 -15 -280 -27 -280 -76 0
-45 15 -48 217 -34 103 6 238 14 300 16 l111 5 -65 -165 -66 -165 -81 -6 c-45
-3 -166 -12 -269 -19 -227 -16 -220 -12 -247 -148 -10 -52 -26 -121 -36 -154
-9 -33 -17 -76 -18 -95 -2 -61 50 -70 224 -40 30 6 135 11 234 13 l179 2 -6
-70 c-15 -193 -143 -596 -242 -760 -64 -105 -182 -258 -194 -251 -5 3 -14 27
-20 52 -20 77 -38 104 -69 104 -60 0 -64 -30 -23 -154 34 -102 61 -136 106
-136 37 0 88 49 188 181 149 198 232 389 312 719 69 283 76 395 26 416 -29 12
-403 3 -500 -12 -51 -8 -95 -13 -97 -12 -1 2 6 37 16 78 10 41 21 92 25 112
l6 36 62 7 c34 3 155 11 269 18 132 8 211 17 221 25 8 7 32 56 52 110 21 53
62 155 91 226 30 71 54 139 54 151 0 47 -41 56 -205 44z"/>
</g>
</svg>
