<?xml version="1.0" standalone="no"?>
<!DOCTYPE svg PUBLIC "-//W3C//DTD SVG 20010904//EN"
 "http://www.w3.org/TR/2001/REC-SVG-20010904/DTD/svg10.dtd">
<svg version="1.0" xmlns="http://www.w3.org/2000/svg"
 width="248.000000pt" height="248.000000pt" viewBox="0 0 248.000000 248.000000"
 preserveAspectRatio="xMidYMid meet">
<metadata>
Created by potrace 1.10, written by Peter Selinger 2001-2011
</metadata>
<g transform="translate(0.000000,248.000000) scale(0.100000,-0.100000)"
fill="#000000" stroke="none">
<path d="M975 2249 c-60 -4 -184 -12 -275 -18 -237 -15 -280 -27 -280 -76 0
-45 15 -48 217 -34 103 6 238 14 300 16 l111 5 -65 -164 c-71 -179 -82 -220
-63 -243 17 -20 53 -19 72 3 9 9 31 55 48 102 18 47 57 143 86 214 30 71 54
139 54 151 0 47 -41 56 -205 44z"/>
</g>
</svg>
