<?xml version="1.0" standalone="no"?>
<!DOCTYPE svg PUBLIC "-//W3C//DTD SVG 20010904//EN"
 "http://www.w3.org/TR/2001/REC-SVG-20010904/DTD/svg10.dtd">
<svg version="1.0" xmlns="http://www.w3.org/2000/svg"
 width="248.000000pt" height="248.000000pt" viewBox="0 0 248.000000 248.000000"
 preserveAspectRatio="xMidYMid meet">
<metadata>
Created by potrace 1.10, written by Peter Selinger 2001-2011
</metadata>
<g transform="translate(0.000000,248.000000) scale(0.100000,-0.100000)"
fill="#000000" stroke="none">
<path d="M652 2407 c-7 -8 -11 -61 -11 -130 0 -65 -3 -122 -6 -127 -3 -5 -24
-11 -48 -14 -23 -3 -78 -10 -122 -16 -44 -5 -111 -13 -150 -16 -38 -3 -76 -11
-82 -16 -16 -13 -17 -50 -1 -66 14 -14 147 -16 233 -3 33 6 85 11 115 13 l55
3 -4 -100 c-1 -55 -6 -118 -10 -140 l-6 -40 -120 -17 c-65 -9 -141 -22 -167
-28 -27 -5 -61 -10 -77 -10 -31 0 -71 -36 -71 -65 0 -10 7 -26 15 -36 15 -16
40 -183 30 -199 -3 -4 0 -47 6 -96 5 -49 10 -115 10 -146 1 -40 6 -65 18 -80
l18 -21 158 27 c86 15 159 25 161 23 9 -9 22 -209 15 -234 -8 -31 -27 -37
-304 -89 -106 -20 -202 -42 -214 -50 -25 -16 -30 -53 -11 -72 21 -21 83 -13
398 54 63 13 119 24 124 24 5 0 6 -55 2 -132 -26 -500 -26 -491 -9 -510 19
-21 56 -24 71 -5 6 7 13 66 16 132 3 66 10 212 15 324 5 111 13 206 18 211 13
12 89 27 248 50 83 12 161 27 175 34 35 17 39 60 7 81 -23 15 -32 15 -114 0
-79 -14 -247 -41 -298 -48 -15 -1 -19 5 -21 28 -1 17 -5 73 -8 126 l-5 96 131
18 c73 10 156 15 184 12 34 -3 58 -1 69 7 22 16 75 267 100 470 17 138 17 148
1 164 -21 22 -98 19 -286 -8 -201 -29 -180 -42 -174 108 3 70 7 132 9 138 2 6
25 14 52 17 26 3 129 15 228 27 99 11 192 26 208 32 37 14 46 53 19 81 -20 19
-25 20 -89 8 -62 -10 -380 -51 -403 -51 -6 0 -10 46 -10 113 0 86 -4 118 -16
135 -17 24 -56 29 -72 9z m432 -764 c-12 -115 -4 -109 -143 -116 -66 -4 -141
-11 -165 -17 -52 -11 -288 -45 -388 -55 l-68 -7 -2 56 c-1 31 -2 66 -2 78 -1
19 7 24 59 34 33 7 123 20 200 30 77 9 210 27 295 39 85 13 170 24 188 24 l34
1 -8 -67z m-42 -251 c-2 -23 -9 -61 -16 -85 l-12 -42 -79 -7 c-106 -10 -344
-44 -475 -67 -58 -11 -108 -16 -112 -12 -3 3 -8 42 -10 86 l-3 80 200 26 c110
15 227 32 260 38 71 14 201 29 230 27 17 -1 20 -7 17 -44z"/>
<path d="M2158 2274 c-3 -3 -113 -9 -245 -14 -204 -7 -254 -12 -353 -35 -63
-14 -120 -31 -127 -37 -18 -14 -16 -44 4 -74 15 -23 15 -46 4 -272 -7 -136
-17 -294 -22 -352 -4 -58 -13 -184 -19 -280 -32 -542 -59 -780 -101 -915 -29
-93 -22 -125 26 -125 49 0 79 79 114 298 18 115 28 229 61 732 5 85 15 218 21
295 6 77 14 248 17 380 l7 240 65 16 c95 24 251 39 402 39 l130 0 -6 -32 c-3
-18 -11 -337 -17 -708 -8 -517 -8 -736 1 -938 8 -183 9 -267 2 -274 -7 -7 -37
6 -98 42 -75 45 -90 51 -110 41 -17 -8 -24 -19 -24 -40 0 -39 33 -65 170 -136
107 -54 112 -56 136 -41 13 9 25 24 25 34 4 44 -3 326 -11 492 -11 220 4 1276
20 1490 11 143 11 145 -10 162 -22 18 -51 23 -62 12z"/>
</g>
</svg>
