<?xml version="1.0" standalone="no"?>
<!DOCTYPE svg PUBLIC "-//W3C//DTD SVG 20010904//EN"
 "http://www.w3.org/TR/2001/REC-SVG-20010904/DTD/svg10.dtd">
<svg version="1.0" xmlns="http://www.w3.org/2000/svg"
 width="248.000000pt" height="248.000000pt" viewBox="0 0 248.000000 248.000000"
 preserveAspectRatio="xMidYMid meet">
<metadata>
Created by potrace 1.10, written by Peter Selinger 2001-2011
</metadata>
<g transform="translate(0.000000,248.000000) scale(0.100000,-0.100000)"
fill="#000000" stroke="none">
<path d="M636 2298 c-13 -19 -16 -54 -16 -205 l0 -182 -47 -6 c-27 -4 -80 -13
-120 -21 -40 -8 -96 -14 -125 -14 -62 0 -98 -20 -98 -55 0 -30 35 -55 78 -55
19 0 89 9 155 20 67 11 132 22 145 24 l22 3 0 -163 c0 -151 2 -166 20 -184 11
-11 27 -20 35 -20 8 0 24 9 35 20 18 18 20 33 20 195 0 96 3 175 8 175 48 1
276 41 287 50 22 19 18 57 -8 75 -20 13 -35 13 -136 0 -62 -8 -124 -18 -137
-21 l-24 -6 0 168 c0 116 -4 177 -13 194 -17 34 -60 39 -81 8z"/>
</g>
</svg>
