<?xml version="1.0" standalone="no"?>
<!DOCTYPE svg PUBLIC "-//W3C//DTD SVG 20010904//EN"
 "http://www.w3.org/TR/2001/REC-SVG-20010904/DTD/svg10.dtd">
<svg version="1.0" xmlns="http://www.w3.org/2000/svg"
 width="248.000000pt" height="248.000000pt" viewBox="0 0 248.000000 248.000000"
 preserveAspectRatio="xMidYMid meet">
<metadata>
Created by potrace 1.10, written by Peter Selinger 2001-2011
</metadata>
<g transform="translate(0.000000,248.000000) scale(0.100000,-0.100000)"
fill="#000000" stroke="none">
<path d="M1140 2200 c-40 -10 -435 -56 -555 -65 -44 -4 -105 -10 -135 -15 -30
-5 -89 -12 -130 -16 -41 -3 -81 -11 -87 -16 -18 -14 -16 -53 2 -68 24 -20 258
-3 695 50 91 11 188 23 215 26 28 3 62 10 78 16 35 14 46 52 22 78 -19 21 -47
23 -105 10z"/>
</g>
</svg>
