<?xml version="1.0" standalone="no"?>
<!DOCTYPE svg PUBLIC "-//W3C//DTD SVG 20010904//EN"
 "http://www.w3.org/TR/2001/REC-SVG-20010904/DTD/svg10.dtd">
<svg version="1.0" xmlns="http://www.w3.org/2000/svg"
 width="248.000000pt" height="248.000000pt" viewBox="0 0 248.000000 248.000000"
 preserveAspectRatio="xMidYMid meet">
<metadata>
Created by potrace 1.10, written by Peter Selinger 2001-2011
</metadata>
<g transform="translate(0.000000,248.000000) scale(0.100000,-0.100000)"
fill="#000000" stroke="none">
<path d="M899 1985 c-5 -4 -80 -15 -254 -35 -94 -11 -304 -46 -355 -60 -19 -5
-66 -12 -105 -16 -38 -3 -80 -13 -92 -20 -31 -20 -30 -59 2 -80 22 -14 35 -15
108 -5 45 7 100 17 121 22 37 10 200 38 202 35 1 0 4 -340 7 -754 l6 -753
-104 95 c-56 53 -111 96 -122 96 -27 0 -43 -19 -43 -53 0 -24 21 -49 121 -145
131 -127 156 -145 197 -140 59 7 57 -15 53 864 l-3 800 68 12 c38 7 111 19
163 27 52 8 100 20 107 26 21 17 17 66 -5 79 -20 10 -64 14 -72 5z"/>
</g>
</svg>
