<?xml version="1.0" standalone="no"?>
<!DOCTYPE svg PUBLIC "-//W3C//DTD SVG 20010904//EN"
 "http://www.w3.org/TR/2001/REC-SVG-20010904/DTD/svg10.dtd">
<svg version="1.0" xmlns="http://www.w3.org/2000/svg"
 width="248.000000pt" height="248.000000pt" viewBox="0 0 248.000000 248.000000"
 preserveAspectRatio="xMidYMid meet">
<metadata>
Created by potrace 1.10, written by Peter Selinger 2001-2011
</metadata>
<g transform="translate(0.000000,248.000000) scale(0.100000,-0.100000)"
fill="#000000" stroke="none">
<path d="M720 2349 c-69 -4 -147 -12 -175 -18 -27 -6 -97 -15 -155 -21 -138
-15 -150 -18 -161 -47 -5 -14 -9 -292 -9 -656 0 -690 0 -682 55 -682 53 0 55
10 55 456 l0 406 93 18 c50 9 115 19 144 22 l51 6 4 -385 c3 -347 5 -386 21
-411 19 -30 57 -36 77 -12 9 11 12 113 11 419 l-2 404 28 6 c15 3 62 8 103 12
104 9 140 25 140 62 0 51 -16 56 -141 43 -61 -7 -113 -10 -115 -8 -2 1 -6 64
-10 138 l-7 136 63 6 c35 4 81 7 104 7 61 0 86 10 96 36 13 33 4 51 -32 63
-34 12 -53 12 -238 0z m-97 -226 c4 -58 7 -123 7 -143 l0 -37 -112 -18 c-62
-10 -130 -20 -150 -22 l-38 -5 0 150 0 150 81 7 c45 4 93 11 107 15 15 5 43 9
63 9 l36 1 6 -107z"/>
</g>
</svg>
