<?xml version="1.0" standalone="no"?>
<!DOCTYPE svg PUBLIC "-//W3C//DTD SVG 20010904//EN"
 "http://www.w3.org/TR/2001/REC-SVG-20010904/DTD/svg10.dtd">
<svg version="1.0" xmlns="http://www.w3.org/2000/svg"
 width="248.000000pt" height="248.000000pt" viewBox="0 0 248.000000 248.000000"
 preserveAspectRatio="xMidYMid meet">
<metadata>
Created by potrace 1.10, written by Peter Selinger 2001-2011
</metadata>
<g transform="translate(0.000000,248.000000) scale(0.100000,-0.100000)"
fill="#000000" stroke="none">
<path d="M1206 2337 c-11 -16 -15 -56 -17 -150 -1 -135 5 -157 45 -157 52 1
66 38 66 178 0 81 -4 113 -16 130 -20 29 -59 29 -78 -1z"/>
<path d="M274 1979 c-17 -19 -19 -35 -16 -167 3 -167 12 -197 57 -197 50 0 56
27 49 205 -4 85 -11 161 -17 168 -15 19 -52 14 -73 -9z"/>
</g>
</svg>
