<?xml version="1.0" standalone="no"?>
<!DOCTYPE svg PUBLIC "-//W3C//DTD SVG 20010904//EN"
 "http://www.w3.org/TR/2001/REC-SVG-20010904/DTD/svg10.dtd">
<svg version="1.0" xmlns="http://www.w3.org/2000/svg"
 width="248.000000pt" height="248.000000pt" viewBox="0 0 248.000000 248.000000"
 preserveAspectRatio="xMidYMid meet">
<metadata>
Created by potrace 1.10, written by Peter Selinger 2001-2011
</metadata>
<g transform="translate(0.000000,248.000000) scale(0.100000,-0.100000)"
fill="#000000" stroke="none">
<path d="M720 2349 c-69 -4 -147 -12 -175 -18 -27 -6 -99 -16 -160 -22 -139
-14 -152 -20 -160 -61 -3 -18 -5 -318 -3 -666 l3 -634 25 -20 c27 -22 72 -22
235 1 166 23 237 31 358 41 70 6 134 13 142 16 13 5 15 -10 15 -97 0 -109 -30
-281 -71 -402 -32 -97 -104 -238 -143 -281 l-35 -38 -27 32 c-45 53 -54 60
-78 60 -29 0 -46 -18 -46 -48 0 -29 101 -158 132 -167 34 -11 63 3 95 47 18
24 44 57 59 73 33 36 115 206 143 295 47 146 81 337 81 449 0 172 -20 200
-129 182 -31 -5 -97 -12 -147 -16 -111 -8 -104 -22 -104 203 0 161 0 162 23
162 77 1 224 22 244 35 28 19 30 59 4 77 -14 10 -40 12 -102 7 -46 -4 -103 -8
-126 -8 l-43 -1 0 149 0 149 28 6 c15 3 61 8 102 12 104 9 140 25 140 62 0 51
-16 56 -141 43 -61 -7 -113 -10 -115 -8 -2 1 -6 64 -10 138 l-7 136 63 6 c35
4 82 7 106 7 57 0 90 14 97 40 8 32 -1 47 -35 59 -34 12 -53 12 -238 0z m-97
-226 c4 -58 7 -123 7 -143 l0 -37 -112 -18 c-62 -10 -130 -20 -150 -22 l-38
-5 0 150 0 150 81 7 c45 4 93 11 107 15 15 5 43 9 63 9 l36 1 6 -107z m-3
-441 l0 -148 -132 -17 c-73 -10 -139 -17 -145 -17 -10 0 -13 36 -13 144 l0
144 98 17 c53 9 102 18 107 20 6 2 27 4 48 4 l37 1 0 -148z m2 -407 c1 -80 2
-162 3 -182 l0 -38 -115 -17 c-63 -9 -130 -17 -147 -17 l-33 -1 0 185 c0 183
0 185 23 189 49 10 165 23 215 24 l52 2 2 -145z"/>
<path d="M1542 2348 c-35 -35 12 -111 139 -227 63 -57 91 -63 114 -27 22 34
14 47 -105 167 -96 96 -123 112 -148 87z"/>
<path d="M2135 1979 c-27 -4 -120 -15 -205 -24 -85 -8 -211 -24 -280 -35 -149
-23 -311 -40 -389 -40 -35 0 -65 -6 -79 -16 -30 -21 -29 -59 4 -81 24 -15 39
-16 177 -4 83 6 184 19 226 27 42 8 166 24 276 34 227 23 361 44 381 61 17 14
18 53 1 67 -19 16 -58 20 -112 11z"/>
<path d="M742 768 c-7 -7 -12 -21 -12 -32 0 -18 18 -119 35 -193 11 -48 78
-53 95 -8 12 31 -23 201 -46 226 -19 22 -54 25 -72 7z"/>
<path d="M552 728 c-17 -17 -15 -69 9 -169 22 -94 39 -117 80 -104 28 9 40 46
28 87 -5 18 -14 60 -20 93 -6 33 -17 70 -25 83 -16 24 -53 29 -72 10z"/>
<path d="M122 718 c-8 -8 -12 -54 -12 -142 0 -151 9 -181 55 -181 47 0 56 30
53 171 -3 103 -6 125 -22 143 -21 23 -56 27 -74 9z"/>
<path d="M320 706 c-15 -19 -11 -45 25 -151 37 -111 47 -130 73 -133 40 -6 55
16 49 73 -6 60 -40 160 -66 195 -21 29 -62 37 -81 16z"/>
</g>
</svg>
