<?xml version="1.0" standalone="no"?>
<!DOCTYPE svg PUBLIC "-//W3C//DTD SVG 20010904//EN"
 "http://www.w3.org/TR/2001/REC-SVG-20010904/DTD/svg10.dtd">
<svg version="1.0" xmlns="http://www.w3.org/2000/svg"
 width="248.000000pt" height="248.000000pt" viewBox="0 0 248.000000 248.000000"
 preserveAspectRatio="xMidYMid meet">
<metadata>
Created by potrace 1.10, written by Peter Selinger 2001-2011
</metadata>
<g transform="translate(0.000000,248.000000) scale(0.100000,-0.100000)"
fill="#000000" stroke="none">
<path d="M1604 2155 c-72 -7 -146 -15 -165 -18 -76 -14 -302 -37 -424 -42 -71
-4 -197 -13 -279 -21 -82 -8 -181 -14 -220 -14 -114 0 -118 -8 -100 -195 8
-77 19 -171 25 -210 7 -38 15 -103 19 -144 5 -55 12 -78 25 -88 24 -17 36 -16
60 1 16 11 20 27 20 78 0 34 -5 88 -12 118 -17 74 -40 321 -31 326 11 7 188
23 434 39 128 8 321 26 430 41 110 14 272 28 362 31 l163 6 -6 -39 c-10 -56
-31 -154 -58 -274 -43 -186 -52 -247 -37 -265 16 -19 64 -20 79 -1 6 7 18 47
26 87 23 120 54 259 59 268 3 4 14 61 25 128 24 135 18 177 -26 194 -32 12
-207 9 -369 -6z"/>
</g>
</svg>
