<?xml version="1.0" standalone="no"?>
<!DOCTYPE svg PUBLIC "-//W3C//DTD SVG 20010904//EN"
 "http://www.w3.org/TR/2001/REC-SVG-20010904/DTD/svg10.dtd">
<svg version="1.0" xmlns="http://www.w3.org/2000/svg"
 width="248.000000pt" height="248.000000pt" viewBox="0 0 248.000000 248.000000"
 preserveAspectRatio="xMidYMid meet">
<metadata>
Created by potrace 1.10, written by Peter Selinger 2001-2011
</metadata>
<g transform="translate(0.000000,248.000000) scale(0.100000,-0.100000)"
fill="#000000" stroke="none">
<path d="M1206 2338 c-12 -17 -16 -49 -16 -129 l0 -106 -112 -6 c-62 -4 -213
-20 -335 -36 -122 -17 -272 -33 -333 -37 -161 -10 -156 -3 -152 -200 3 -179
11 -209 57 -209 48 0 57 30 49 172 l-6 122 34 5 c55 8 384 46 528 61 334 36
520 47 879 52 l385 6 -21 -29 c-12 -16 -44 -55 -73 -88 -54 -62 -63 -98 -28
-120 30 -18 70 6 135 84 79 94 105 145 97 189 -13 65 -20 66 -389 66 -181 0
-392 -4 -467 -8 l-138 -8 0 99 c0 108 -13 142 -55 142 -13 0 -31 -10 -39 -22z"/>
</g>
</svg>
