<?xml version="1.0" standalone="no"?>
<!DOCTYPE svg PUBLIC "-//W3C//DTD SVG 20010904//EN"
 "http://www.w3.org/TR/2001/REC-SVG-20010904/DTD/svg10.dtd">
<svg version="1.0" xmlns="http://www.w3.org/2000/svg"
 width="248.000000pt" height="248.000000pt" viewBox="0 0 248.000000 248.000000"
 preserveAspectRatio="xMidYMid meet">
<metadata>
Created by potrace 1.10, written by Peter Selinger 2001-2011
</metadata>
<g transform="translate(0.000000,248.000000) scale(0.100000,-0.100000)"
fill="#000000" stroke="none">
<path d="M720 2349 c-69 -4 -147 -12 -175 -18 -27 -6 -97 -15 -155 -21 -138
-15 -150 -18 -161 -47 -5 -14 -9 -292 -9 -656 0 -690 0 -682 55 -682 49 0 55
25 55 257 0 207 0 208 23 212 51 10 196 26 229 26 l35 0 5 -179 c5 -196 15
-231 62 -231 46 0 50 17 47 231 l-2 199 23 0 c78 1 225 22 245 35 28 19 30 59
4 77 -14 10 -40 12 -102 7 -46 -4 -103 -8 -126 -8 l-43 -1 0 149 0 149 28 6
c15 3 61 8 102 12 104 9 140 25 140 62 0 51 -16 56 -141 43 -61 -7 -113 -10
-115 -8 -2 1 -6 64 -10 138 l-7 136 63 6 c35 4 82 7 106 7 57 0 90 14 97 40 8
32 -1 47 -35 59 -34 12 -53 12 -238 0z m-97 -226 c4 -58 7 -123 7 -143 l0 -37
-112 -18 c-62 -10 -130 -20 -150 -22 l-38 -5 0 150 0 150 81 7 c45 4 93 11
107 15 15 5 43 9 63 9 l36 1 6 -107z m-3 -441 l0 -148 -132 -17 c-73 -10 -139
-17 -145 -17 -10 0 -13 36 -13 144 l0 144 98 17 c53 9 102 18 107 20 6 2 27 4
48 4 l37 1 0 -148z"/>
</g>
</svg>
