<?xml version="1.0" standalone="no"?>
<!DOCTYPE svg PUBLIC "-//W3C//DTD SVG 20010904//EN"
 "http://www.w3.org/TR/2001/REC-SVG-20010904/DTD/svg10.dtd">
<svg version="1.0" xmlns="http://www.w3.org/2000/svg"
 width="248.000000pt" height="248.000000pt" viewBox="0 0 248.000000 248.000000"
 preserveAspectRatio="xMidYMid meet">
<metadata>
Created by potrace 1.10, written by Peter Selinger 2001-2011
</metadata>
<g transform="translate(0.000000,248.000000) scale(0.100000,-0.100000)"
fill="#000000" stroke="none">
<path d="M1206 2338 c-12 -17 -16 -49 -16 -129 l0 -106 -112 -6 c-62 -4 -213
-20 -335 -36 -122 -17 -272 -33 -333 -37 -161 -10 -156 -3 -152 -200 3 -179
11 -209 57 -209 48 0 57 30 49 172 l-6 122 34 5 c55 8 384 46 528 61 334 36
520 47 879 52 l385 6 -21 -29 c-12 -16 -44 -55 -73 -88 -54 -62 -63 -98 -28
-120 30 -18 70 6 135 84 79 94 105 145 97 189 -13 65 -20 66 -389 66 -181 0
-392 -4 -467 -8 l-138 -8 0 99 c0 108 -13 142 -55 142 -13 0 -31 -10 -39 -22z"/>
<path d="M1226 1808 c-13 -19 -16 -56 -16 -230 0 -160 -3 -208 -12 -208 -54 0
-381 -38 -507 -59 -92 -15 -91 -11 -90 -305 0 -138 6 -363 13 -500 11 -224 14
-250 31 -262 24 -18 36 -18 61 0 17 13 19 27 17 168 -1 84 -5 188 -8 230 l-6
77 43 5 c67 8 254 25 350 32 l86 6 4 -193 c4 -199 12 -243 47 -251 26 -6 49 2
56 20 3 9 6 110 5 223 l-1 207 48 6 c26 3 159 8 295 12 l247 7 -5 -74 c-3 -41
-15 -139 -26 -219 -32 -233 -32 -225 -13 -243 21 -22 37 -21 65 1 20 16 26 42
52 213 25 169 29 234 35 510 3 174 3 333 -1 353 -10 55 -46 69 -186 74 -74 3
-154 -2 -223 -12 -59 -9 -143 -16 -187 -16 l-80 0 0 198 c0 216 -6 245 -52
250 -18 2 -31 -4 -42 -20z m664 -710 l0 -203 -182 0 c-101 0 -234 -4 -297 -9
l-114 -9 6 78 c4 43 7 131 7 195 l0 117 118 7 c64 4 133 11 152 16 19 4 97 8
173 9 l137 1 0 -202z m-692 -28 c-2 -104 -6 -192 -10 -195 -3 -3 -57 -10 -119
-16 -63 -5 -161 -13 -219 -19 -58 -5 -113 -9 -122 -10 -17 0 -18 15 -18 189
l0 189 28 5 c76 15 340 44 411 46 l53 1 -4 -190z"/>
</g>
</svg>
