<?xml version="1.0" standalone="no"?>
<!DOCTYPE svg PUBLIC "-//W3C//DTD SVG 20010904//EN"
 "http://www.w3.org/TR/2001/REC-SVG-20010904/DTD/svg10.dtd">
<svg version="1.0" xmlns="http://www.w3.org/2000/svg"
 width="248.000000pt" height="248.000000pt" viewBox="0 0 248.000000 248.000000"
 preserveAspectRatio="xMidYMid meet">
<metadata>
Created by potrace 1.10, written by Peter Selinger 2001-2011
</metadata>
<g transform="translate(0.000000,248.000000) scale(0.100000,-0.100000)"
fill="#000000" stroke="none">
<path d="M352 2198 c-21 -21 -13 -55 21 -84 39 -34 270 -144 301 -144 28 0 46
18 46 45 0 34 -33 56 -183 124 -38 17 -81 40 -97 51 -32 22 -70 26 -88 8z"/>
<path d="M1392 2188 c-22 -22 -13 -62 29 -133 23 -39 54 -96 70 -127 32 -63
60 -88 90 -81 31 9 43 40 28 76 -17 44 -127 238 -146 260 -19 20 -54 22 -71 5z"/>
<path d="M1975 1819 c-125 -19 -429 -53 -575 -64 -47 -3 -114 -10 -150 -15
-36 -5 -119 -17 -185 -26 -125 -17 -155 -31 -155 -69 0 -49 34 -54 191 -31 52
8 148 19 214 26 370 35 528 52 600 65 44 7 107 17 140 20 72 8 105 27 105 59
0 52 -36 58 -185 35z"/>
<path d="M102 1484 c-51 -35 -12 -94 63 -94 22 0 90 -7 150 -16 61 -8 129 -18
152 -21 49 -6 73 7 73 43 0 44 -50 61 -285 93 -105 15 -126 14 -153 -5z"/>
<path d="M459 632 c-30 -33 -70 -84 -89 -115 -19 -32 -70 -105 -113 -163 -81
-109 -93 -144 -56 -167 33 -21 63 2 139 104 41 56 84 117 95 135 34 55 58 87
102 140 43 52 54 89 31 112 -25 25 -56 12 -109 -46z"/>
</g>
</svg>
