<?xml version="1.0" standalone="no"?>
<!DOCTYPE svg PUBLIC "-//W3C//DTD SVG 20010904//EN"
 "http://www.w3.org/TR/2001/REC-SVG-20010904/DTD/svg10.dtd">
<svg version="1.0" xmlns="http://www.w3.org/2000/svg"
 width="248.000000pt" height="248.000000pt" viewBox="0 0 248.000000 248.000000"
 preserveAspectRatio="xMidYMid meet">
<metadata>
Created by potrace 1.10, written by Peter Selinger 2001-2011
</metadata>
<g transform="translate(0.000000,248.000000) scale(0.100000,-0.100000)"
fill="#000000" stroke="none">
<path d="M715 2349 c-71 -4 -150 -13 -175 -19 -25 -5 -94 -15 -155 -21 -116
-11 -151 -25 -160 -62 -3 -12 -4 -309 -3 -660 l3 -639 25 -20 c22 -18 34 -20
95 -15 39 3 99 10 135 16 120 17 234 30 363 41 70 6 134 13 142 16 13 5 15
-10 15 -97 0 -109 -30 -281 -71 -402 -32 -96 -104 -238 -143 -280 l-34 -38
-42 45 c-43 46 -75 57 -98 34 -25 -25 -13 -63 45 -131 87 -104 112 -102 205
18 102 131 161 270 212 503 29 131 36 182 36 270 0 173 -18 199 -127 182 -32
-4 -99 -11 -149 -15 -111 -8 -104 -22 -104 203 0 161 0 162 23 162 77 1 224
22 244 35 40 27 24 84 -24 87 -10 1 -69 -2 -130 -6 l-113 -8 0 150 0 150 28 6
c15 3 61 8 102 12 125 11 172 45 131 95 -17 21 -20 21 -131 10 -62 -6 -115 -9
-117 -8 -2 2 -6 65 -10 140 -6 130 -5 137 13 137 71 2 227 20 234 27 17 17 20
50 6 68 -17 23 -84 27 -271 14z m-92 -226 c4 -58 7 -123 7 -143 l0 -37 -112
-18 c-62 -10 -130 -20 -150 -22 l-38 -5 0 150 0 150 73 7 c39 3 88 10 107 15
19 4 51 8 71 9 l36 1 6 -107z m-3 -441 l0 -148 -92 -12 c-51 -6 -117 -15 -145
-18 l-53 -7 0 146 0 145 98 17 c53 9 102 18 107 20 6 2 27 4 48 4 l37 1 0
-148z m2 -439 c3 -98 2 -181 -1 -185 -5 -6 -90 -18 -238 -35 l-53 -6 0 187 c0
102 1 186 3 187 18 6 195 27 233 28 l52 1 4 -177z"/>
<path d="M1542 2348 c-35 -35 17 -119 140 -228 68 -60 103 -65 121 -17 10 28
-5 49 -113 158 -96 96 -123 112 -148 87z"/>
<path d="M2160 1984 c-14 -2 -50 -9 -80 -14 -30 -5 -116 -14 -190 -20 -74 -6
-187 -20 -250 -31 -134 -22 -298 -39 -379 -39 -70 0 -104 -20 -99 -58 6 -49
42 -57 205 -43 79 7 180 19 226 26 45 8 86 15 90 15 11 0 -4 -684 -15 -691 -5
-3 -79 -9 -165 -13 -178 -7 -208 -16 -208 -61 0 -51 28 -57 217 -46 89 6 163
9 163 8 2 -4 -15 -741 -18 -743 -2 -2 -150 -16 -377 -35 -148 -12 -175 -22
-175 -64 0 -59 18 -60 370 -25 190 18 442 28 660 24 237 -3 258 1 263 53 5 54
-9 56 -336 56 l-292 -1 6 362 c3 198 7 366 9 372 3 11 59 19 229 33 69 6 92
12 102 26 18 24 18 36 0 61 -16 22 -73 24 -235 9 l-93 -8 5 349 6 349 128 12
c156 14 300 38 319 54 17 14 18 53 1 67 -16 14 -56 21 -87 16z"/>
<path d="M742 768 c-7 -7 -12 -21 -12 -32 0 -18 18 -119 35 -193 11 -48 78
-53 95 -8 12 31 -23 201 -46 226 -19 22 -54 25 -72 7z"/>
<path d="M552 728 c-17 -17 -15 -69 9 -169 22 -94 39 -117 80 -104 28 9 40 46
28 87 -5 18 -14 60 -20 93 -6 33 -17 70 -25 83 -16 24 -53 29 -72 10z"/>
<path d="M122 718 c-8 -8 -12 -54 -12 -142 0 -151 9 -181 55 -181 47 0 56 30
53 171 -3 103 -6 125 -22 143 -21 23 -56 27 -74 9z"/>
<path d="M320 705 c-15 -18 -10 -45 25 -150 37 -111 47 -130 73 -133 42 -6 55
16 48 80 -6 60 -46 170 -74 201 -19 21 -55 22 -72 2z"/>
</g>
</svg>
