<?xml version="1.0" standalone="no"?>
<!DOCTYPE svg PUBLIC "-//W3C//DTD SVG 20010904//EN"
 "http://www.w3.org/TR/2001/REC-SVG-20010904/DTD/svg10.dtd">
<svg version="1.0" xmlns="http://www.w3.org/2000/svg"
 width="248.000000pt" height="248.000000pt" viewBox="0 0 248.000000 248.000000"
 preserveAspectRatio="xMidYMid meet">
<metadata>
Created by potrace 1.10, written by Peter Selinger 2001-2011
</metadata>
<g transform="translate(0.000000,248.000000) scale(0.100000,-0.100000)"
fill="#000000" stroke="none">
<path d="M1275 1789 c-271 -11 -977 -101 -1010 -129 -20 -17 -17 -48 15 -135
24 -65 44 -163 90 -434 16 -96 32 -176 34 -178 17 -17 92 -20 195 -8 371 43
677 62 1051 63 272 1 296 2 308 19 7 10 11 26 8 37 -3 10 8 46 24 80 69 148
211 532 226 610 4 26 1 43 -10 61 l-16 25 -368 -2 c-202 -1 -448 -5 -547 -9z
m825 -97 c0 -23 -47 -160 -99 -292 -24 -58 -51 -127 -61 -155 -10 -27 -32 -80
-49 -118 l-31 -67 -308 0 c-313 0 -485 -8 -762 -35 -319 -31 -298 -31 -304 -4
-3 13 -21 114 -41 224 -19 110 -43 231 -54 268 -13 49 -15 70 -7 72 21 8 451
65 636 85 102 12 280 23 395 27 116 3 212 7 214 9 2 2 109 4 238 4 217 0 233
-1 233 -18z"/>
</g>
</svg>
