<?xml version="1.0" standalone="no"?>
<!DOCTYPE svg PUBLIC "-//W3C//DTD SVG 20010904//EN"
 "http://www.w3.org/TR/2001/REC-SVG-20010904/DTD/svg10.dtd">
<svg version="1.0" xmlns="http://www.w3.org/2000/svg"
 width="248.000000pt" height="248.000000pt" viewBox="0 0 248.000000 248.000000"
 preserveAspectRatio="xMidYMid meet">
<metadata>
Created by potrace 1.10, written by Peter Selinger 2001-2011
</metadata>
<g transform="translate(0.000000,248.000000) scale(0.100000,-0.100000)"
fill="#000000" stroke="none">
<path d="M1131 2396 c-8 -10 -9 -55 -5 -155 6 -118 5 -141 -7 -141 -62 -1
-251 -14 -378 -26 -85 -8 -186 -14 -225 -14 -115 0 -118 -7 -100 -200 8 -80
21 -182 29 -226 8 -45 15 -99 15 -121 0 -55 17 -98 43 -112 31 -16 68 -17 252
-8 88 4 215 10 283 13 l122 6 0 -116 c0 -131 8 -163 45 -172 50 -13 60 11 63
160 l4 134 76 6 c42 3 127 8 187 11 147 8 337 34 353 49 7 7 19 45 27 86 23
121 54 260 59 269 3 4 14 61 25 128 24 135 18 177 -26 194 -50 19 -279 8 -548
-26 -66 -9 -135 -17 -152 -20 l-33 -4 0 47 c0 93 -19 214 -36 233 -20 22 -57
25 -73 5z m773 -373 c-9 -54 -30 -152 -57 -273 -13 -58 -27 -122 -31 -142 -5
-29 -12 -38 -34 -42 -52 -10 -118 -16 -278 -26 -89 -5 -179 -12 -201 -16 l-40
-6 -7 242 c-4 133 -6 244 -4 245 3 3 273 38 378 48 19 2 90 5 158 5 l123 2 -7
-37z m-763 -80 c1 -32 4 -140 8 -241 l6 -182 -30 -5 c-16 -2 -120 -6 -230 -10
-110 -3 -227 -8 -261 -11 l-60 -6 -12 68 c-7 38 -19 132 -27 209 -8 77 -17
148 -19 157 -2 10 0 20 4 23 12 8 195 25 415 40 105 7 193 13 198 14 4 0 8
-25 8 -56z"/>
</g>
</svg>
