<?xml version="1.0" standalone="no"?>
<!DOCTYPE svg PUBLIC "-//W3C//DTD SVG 20010904//EN"
 "http://www.w3.org/TR/2001/REC-SVG-20010904/DTD/svg10.dtd">
<svg version="1.0" xmlns="http://www.w3.org/2000/svg"
 width="248.000000pt" height="248.000000pt" viewBox="0 0 248.000000 248.000000"
 preserveAspectRatio="xMidYMid meet">
<metadata>
Created by potrace 1.10, written by Peter Selinger 2001-2011
</metadata>
<g transform="translate(0.000000,248.000000) scale(0.100000,-0.100000)"
fill="#000000" stroke="none">
<path d="M352 2198 c-21 -21 -13 -55 21 -84 39 -34 270 -144 301 -144 28 0 46
18 46 45 0 34 -33 56 -183 124 -38 17 -81 40 -97 51 -32 22 -70 26 -88 8z"/>
<path d="M1392 2188 c-22 -22 -13 -62 29 -133 23 -39 54 -96 70 -127 32 -63
60 -88 90 -81 31 9 43 40 28 76 -17 44 -127 238 -146 260 -19 20 -54 22 -71 5z"/>
<path d="M1975 1819 c-125 -19 -429 -53 -575 -64 -47 -3 -114 -10 -150 -15
-36 -5 -119 -17 -185 -26 -125 -17 -155 -31 -155 -69 0 -49 32 -54 201 -29 59
8 167 21 240 27 131 12 134 12 141 -8 8 -26 8 -342 -1 -420 l-6 -59 -84 -12
c-46 -7 -138 -15 -205 -19 -77 -4 -129 -12 -143 -21 -31 -19 -30 -59 1 -79 28
-19 142 -15 322 11 56 8 105 14 108 14 7 0 -1 -449 -10 -537 l-5 -52 -77 -4
c-42 -2 -191 -10 -331 -16 -281 -13 -306 -18 -306 -66 0 -52 22 -55 275 -44
124 5 288 14 365 18 77 5 331 7 565 4 469 -5 475 -4 475 52 0 51 -20 55 -325
55 -151 0 -332 3 -402 7 l-127 6 4 126 c3 69 8 201 11 292 l6 166 111 12 c155
18 267 38 283 52 19 15 18 53 -1 69 -21 17 -48 17 -190 -3 -65 -9 -138 -17
-160 -17 l-41 0 1 249 0 249 120 12 c66 6 154 18 195 25 41 8 102 17 135 20
72 8 105 27 105 59 0 52 -36 58 -185 35z"/>
<path d="M102 1484 c-51 -35 -12 -94 63 -94 22 0 90 -7 150 -16 61 -8 129 -18
152 -21 49 -6 73 7 73 43 0 44 -50 61 -285 93 -105 15 -126 14 -153 -5z"/>
<path d="M459 632 c-30 -33 -70 -84 -89 -115 -19 -32 -70 -105 -113 -163 -81
-109 -93 -144 -56 -167 33 -21 63 2 139 104 41 56 84 117 95 135 34 55 58 87
102 140 43 52 54 89 31 112 -25 25 -56 12 -109 -46z"/>
</g>
</svg>
