<?xml version="1.0" standalone="no"?>
<!DOCTYPE svg PUBLIC "-//W3C//DTD SVG 20010904//EN"
 "http://www.w3.org/TR/2001/REC-SVG-20010904/DTD/svg10.dtd">
<svg version="1.0" xmlns="http://www.w3.org/2000/svg"
 width="248.000000pt" height="248.000000pt" viewBox="0 0 248.000000 248.000000"
 preserveAspectRatio="xMidYMid meet">
<metadata>
Created by potrace 1.10, written by Peter Selinger 2001-2011
</metadata>
<g transform="translate(0.000000,248.000000) scale(0.100000,-0.100000)"
fill="#000000" stroke="none">
<path d="M1206 2338 c-12 -17 -16 -49 -16 -129 l0 -106 -112 -6 c-62 -4 -213
-20 -335 -36 -122 -17 -272 -33 -333 -37 -161 -10 -156 -3 -152 -200 3 -179
11 -209 57 -209 48 0 57 30 49 172 l-6 122 34 5 c55 8 384 46 528 61 334 36
520 47 879 52 l385 6 -21 -29 c-12 -16 -44 -55 -73 -88 -54 -62 -63 -98 -28
-120 30 -18 70 6 135 84 79 94 105 145 97 189 -13 65 -20 66 -389 66 -181 0
-392 -4 -467 -8 l-138 -8 0 99 c0 108 -13 142 -55 142 -13 0 -31 -10 -39 -22z"/>
<path d="M1226 1808 c-13 -19 -16 -56 -16 -230 0 -160 -3 -208 -12 -208 -54 0
-381 -38 -507 -59 -92 -15 -91 -11 -90 -305 0 -138 6 -363 13 -500 11 -224 14
-250 31 -262 24 -18 36 -18 61 0 22 17 22 -1 9 582 l-8 381 34 6 c99 17 366
47 423 47 l36 0 -3 -437 c-2 -459 1 -497 41 -505 27 -6 50 3 57 20 3 10 6 116
5 237 0 121 2 326 6 456 l7 236 116 7 c64 4 134 11 156 16 22 5 100 10 174 10
l134 0 -6 -332 c-5 -267 -10 -360 -27 -468 -34 -222 -34 -224 -15 -243 21 -22
37 -21 65 1 20 16 26 42 52 213 25 169 29 234 35 510 3 174 3 333 -1 353 -10
55 -46 69 -186 74 -74 3 -154 -2 -223 -12 -59 -9 -143 -16 -187 -16 l-80 0 0
198 c0 216 -6 245 -52 250 -18 2 -31 -4 -42 -20z"/>
</g>
</svg>
