<?xml version="1.0" standalone="no"?>
<!DOCTYPE svg PUBLIC "-//W3C//DTD SVG 20010904//EN"
 "http://www.w3.org/TR/2001/REC-SVG-20010904/DTD/svg10.dtd">
<svg version="1.0" xmlns="http://www.w3.org/2000/svg"
 width="248.000000pt" height="248.000000pt" viewBox="0 0 248.000000 248.000000"
 preserveAspectRatio="xMidYMid meet">
<metadata>
Created by potrace 1.10, written by Peter Selinger 2001-2011
</metadata>
<g transform="translate(0.000000,248.000000) scale(0.100000,-0.100000)"
fill="#000000" stroke="none">
<path d="M805 1823 c-16 -2 -93 -13 -170 -25 -77 -11 -188 -24 -246 -27 -68
-4 -113 -12 -123 -20 -24 -20 -16 -63 14 -78 30 -15 128 -17 201 -3 60 12 146
24 323 45 125 15 156 29 156 70 0 11 -5 26 -12 33 -11 11 -78 14 -143 5z"/>
</g>
</svg>
