<?xml version="1.0" standalone="no"?>
<!DOCTYPE svg PUBLIC "-//W3C//DTD SVG 20010904//EN"
 "http://www.w3.org/TR/2001/REC-SVG-20010904/DTD/svg10.dtd">
<svg version="1.0" xmlns="http://www.w3.org/2000/svg"
 width="248.000000pt" height="248.000000pt" viewBox="0 0 248.000000 248.000000"
 preserveAspectRatio="xMidYMid meet">
<metadata>
Created by potrace 1.10, written by Peter Selinger 2001-2011
</metadata>
<g transform="translate(0.000000,248.000000) scale(0.100000,-0.100000)"
fill="#000000" stroke="none">
<path d="M611 2276 c-8 -10 -14 -91 -18 -248 l-6 -234 -69 -12 c-37 -7 -101
-12 -141 -12 -90 0 -122 -15 -122 -55 0 -21 7 -33 25 -42 34 -17 128 -16 223
2 43 8 81 15 83 15 2 0 4 -288 4 -641 l0 -640 -22 15 c-29 21 -51 20 -71 -2
-26 -28 -21 -43 39 -125 57 -78 74 -88 119 -71 38 15 40 39 45 769 l5 710 109
12 c115 13 146 27 146 68 0 41 -22 48 -117 41 -48 -4 -100 -10 -115 -13 l-28
-5 0 219 c0 182 -3 222 -16 241 -17 25 -56 29 -73 8z"/>
</g>
</svg>
