<?xml version="1.0" standalone="no"?>
<!DOCTYPE svg PUBLIC "-//W3C//DTD SVG 20010904//EN"
 "http://www.w3.org/TR/2001/REC-SVG-20010904/DTD/svg10.dtd">
<svg version="1.0" xmlns="http://www.w3.org/2000/svg"
 width="248.000000pt" height="248.000000pt" viewBox="0 0 248.000000 248.000000"
 preserveAspectRatio="xMidYMid meet">
<metadata>
Created by potrace 1.10, written by Peter Selinger 2001-2011
</metadata>
<g transform="translate(0.000000,248.000000) scale(0.100000,-0.100000)"
fill="#000000" stroke="none">
<path d="M848 2250 c-15 -5 -76 -13 -135 -20 -122 -12 -317 -55 -350 -76 -25
-16 -31 -62 -12 -81 12 -12 16 -74 23 -351 4 -145 8 -189 21 -208 19 -29 55
-31 80 -4 10 11 28 20 40 20 12 0 59 11 104 25 45 13 115 27 156 31 49 4 79
12 88 23 21 24 45 174 63 391 13 153 13 197 4 221 -7 16 -16 29 -20 29 -5 0
-14 2 -22 4 -7 2 -25 1 -40 -4z m-23 -192 c-4 -46 -8 -84 -10 -86 -3 -3 -315
-72 -327 -72 -9 0 -17 45 -20 115 l-2 60 55 18 c47 15 218 43 288 46 24 1 24
1 16 -81z m-16 -210 c0 -7 -6 -44 -12 -83 l-12 -70 -85 -16 c-47 -9 -96 -21
-110 -26 -14 -6 -44 -13 -67 -17 l-43 -6 0 82 0 83 118 23 c64 13 133 27 152
32 52 12 60 11 59 -2z"/>
<path d="M770 1409 c-52 -16 -135 -38 -185 -49 -49 -10 -153 -34 -230 -54 -77
-19 -153 -37 -168 -41 -53 -11 -58 -84 -8 -100 10 -3 98 14 195 39 97 24 178
41 179 37 2 -3 -2 -139 -8 -301 -13 -322 -11 -340 40 -340 50 0 57 30 66 278
4 125 8 259 8 299 1 48 6 76 15 86 8 8 65 29 128 46 120 35 154 57 142 95 -14
45 -43 46 -174 5z"/>
</g>
</svg>
