<?xml version="1.0" standalone="no"?>
<!DOCTYPE svg PUBLIC "-//W3C//DTD SVG 20010904//EN"
 "http://www.w3.org/TR/2001/REC-SVG-20010904/DTD/svg10.dtd">
<svg version="1.0" xmlns="http://www.w3.org/2000/svg"
 width="248.000000pt" height="248.000000pt" viewBox="0 0 248.000000 248.000000"
 preserveAspectRatio="xMidYMid meet">
<metadata>
Created by potrace 1.10, written by Peter Selinger 2001-2011
</metadata>
<g transform="translate(0.000000,248.000000) scale(0.100000,-0.100000)"
fill="#000000" stroke="none">
<path d="M1113 2233 c-128 -192 -121 -181 -174 -244 -25 -30 -56 -70 -69 -89
-13 -19 -67 -88 -120 -154 -52 -65 -115 -146 -140 -181 -25 -35 -84 -109 -132
-165 -87 -101 -102 -132 -76 -158 18 -18 63 -15 209 17 181 40 386 78 489 91
172 21 453 74 720 136 58 13 112 24 120 23 8 0 35 -24 59 -52 127 -150 165
-187 191 -187 14 0 31 5 38 12 24 24 12 57 -46 120 -32 35 -70 79 -86 98 -16
19 -104 117 -198 218 -152 164 -172 182 -201 182 -36 0 -57 -15 -57 -41 0 -9
50 -68 110 -129 61 -62 109 -118 107 -124 -3 -10 -68 -26 -352 -85 -49 -11
-178 -33 -285 -50 -239 -38 -404 -67 -534 -92 -54 -11 -100 -19 -101 -17 -3 3
49 72 172 226 32 41 98 126 147 190 49 65 112 146 141 183 67 83 245 347 245
363 0 23 -32 56 -55 56 -19 0 -41 -27 -122 -147z"/>
<path d="M482 994 c-24 -16 -28 -47 -12 -88 9 -25 26 -111 90 -473 35 -194 46
-237 65 -253 18 -15 64 -5 72 16 6 16 -29 234 -68 424 -10 52 -30 153 -43 225
-20 103 -29 134 -47 147 -26 22 -29 22 -57 2z"/>
</g>
</svg>
