<?xml version="1.0" standalone="no"?>
<!DOCTYPE svg PUBLIC "-//W3C//DTD SVG 20010904//EN"
 "http://www.w3.org/TR/2001/REC-SVG-20010904/DTD/svg10.dtd">
<svg version="1.0" xmlns="http://www.w3.org/2000/svg"
 width="248.000000pt" height="248.000000pt" viewBox="0 0 248.000000 248.000000"
 preserveAspectRatio="xMidYMid meet">
<metadata>
Created by potrace 1.10, written by Peter Selinger 2001-2011
</metadata>
<g transform="translate(0.000000,248.000000) scale(0.100000,-0.100000)"
fill="#000000" stroke="none">
<path d="M1552 2358 c-5 -7 -30 -56 -56 -108 -66 -137 -96 -187 -143 -240 -58
-65 -55 -110 7 -110 44 0 60 16 145 147 7 12 265 27 265 15 0 -15 -73 -123
-122 -180 -26 -30 -48 -62 -51 -72 -7 -27 20 -60 48 -60 30 0 133 119 200 232
25 43 54 82 63 87 17 9 86 17 215 25 67 5 89 19 85 55 -5 42 -38 50 -158 40
-172 -14 -472 -30 -477 -26 -2 2 10 33 27 68 32 68 38 107 18 127 -16 16 -53
15 -66 0z"/>
<path d="M668 2348 c-9 -7 -37 -52 -61 -100 -62 -120 -158 -265 -206 -313 -24
-23 -41 -48 -41 -61 0 -27 35 -55 59 -47 23 8 99 82 122 120 20 32 22 32 94
32 40 0 93 2 118 6 l44 7 25 -74 c15 -40 29 -93 33 -118 4 -25 12 -51 17 -57
17 -21 56 -15 73 11 14 21 14 34 5 85 -6 33 -17 76 -25 95 -27 64 -22 73 43
80 87 11 261 45 281 56 27 14 32 47 11 72 l-17 22 -124 -22 c-116 -21 -371
-57 -448 -64 -18 -2 -32 1 -32 7 1 5 26 55 56 112 30 56 55 107 55 113 0 14
-38 50 -53 50 -7 0 -21 -6 -29 -12z"/>
</g>
</svg>
