<?xml version="1.0" standalone="no"?>
<!DOCTYPE svg PUBLIC "-//W3C//DTD SVG 20010904//EN"
 "http://www.w3.org/TR/2001/REC-SVG-20010904/DTD/svg10.dtd">
<svg version="1.0" xmlns="http://www.w3.org/2000/svg"
 width="248.000000pt" height="248.000000pt" viewBox="0 0 248.000000 248.000000"
 preserveAspectRatio="xMidYMid meet">
<metadata>
Created by potrace 1.10, written by Peter Selinger 2001-2011
</metadata>
<g transform="translate(0.000000,248.000000) scale(0.100000,-0.100000)"
fill="#000000" stroke="none">
<path d="M1113 2233 c-128 -192 -121 -181 -174 -244 -25 -30 -56 -70 -69 -89
-13 -19 -67 -88 -120 -154 -52 -65 -115 -146 -140 -181 -25 -35 -84 -109 -132
-165 -87 -101 -102 -132 -76 -158 18 -18 63 -15 209 17 181 40 386 78 489 91
172 21 453 74 720 136 58 13 112 24 120 23 8 0 35 -24 59 -52 127 -150 165
-187 191 -187 14 0 31 5 38 12 24 24 12 57 -46 120 -32 35 -70 79 -86 98 -16
19 -104 117 -198 218 -152 164 -172 182 -201 182 -36 0 -57 -15 -57 -41 0 -9
50 -68 110 -129 61 -62 109 -118 107 -124 -3 -10 -68 -26 -352 -85 -49 -11
-178 -33 -285 -50 -239 -38 -404 -67 -534 -92 -54 -11 -100 -19 -101 -17 -3 3
49 72 172 226 32 41 98 126 147 190 49 65 112 146 141 183 67 83 245 347 245
363 0 23 -32 56 -55 56 -19 0 -41 -27 -122 -147z"/>
<path d="M1807 1184 c-1 -1 -60 -4 -132 -8 -224 -9 -560 -42 -740 -71 -49 -8
-110 -17 -135 -20 -131 -18 -322 -66 -346 -86 -19 -15 -18 -48 2 -70 8 -9 24
-63 35 -120 10 -57 30 -162 44 -234 14 -71 32 -170 40 -219 31 -182 40 -197
111 -178 25 7 150 14 287 17 133 3 298 10 367 15 69 5 189 12 268 16 138 7
144 6 163 -15 23 -25 51 -27 72 -6 20 19 90 234 116 355 73 336 93 448 89 523
-4 83 -23 96 -146 100 -51 2 -93 3 -95 1z m122 -101 c22 -5 23 -9 18 -62 -3
-31 -15 -96 -27 -146 -11 -49 -25 -117 -31 -150 -19 -109 -49 -239 -76 -322
l-27 -83 -151 0 c-82 0 -197 -4 -255 -10 -58 -5 -190 -11 -295 -14 -104 -3
-233 -9 -285 -12 -75 -5 -98 -3 -106 7 -5 8 -18 64 -28 124 -9 61 -26 153 -37
205 -30 145 -59 313 -55 317 8 8 417 79 511 89 28 2 86 9 130 14 111 14 304
29 465 36 74 4 137 8 139 10 7 6 84 4 110 -3z"/>
</g>
</svg>
