<?xml version="1.0" standalone="no"?>
<!DOCTYPE svg PUBLIC "-//W3C//DTD SVG 20010904//EN"
 "http://www.w3.org/TR/2001/REC-SVG-20010904/DTD/svg10.dtd">
<svg version="1.0" xmlns="http://www.w3.org/2000/svg"
 width="248.000000pt" height="248.000000pt" viewBox="0 0 248.000000 248.000000"
 preserveAspectRatio="xMidYMid meet">
<metadata>
Created by potrace 1.10, written by Peter Selinger 2001-2011
</metadata>
<g transform="translate(0.000000,248.000000) scale(0.100000,-0.100000)"
fill="#000000" stroke="none">
<path d="M848 2250 c-15 -5 -76 -13 -135 -20 -122 -12 -317 -55 -350 -76 -25
-16 -31 -62 -12 -81 12 -12 16 -74 23 -351 4 -145 8 -189 21 -208 19 -29 55
-31 80 -4 10 11 28 20 40 20 12 0 59 11 104 25 45 13 115 27 156 31 49 4 79
12 89 23 14 15 40 150 50 256 25 255 28 327 16 355 -7 17 -16 30 -20 30 -5 0
-14 2 -22 4 -7 2 -25 1 -40 -4z m-23 -192 c-4 -46 -8 -84 -10 -86 -3 -3 -315
-72 -327 -72 -9 0 -17 45 -20 115 l-2 60 55 18 c44 15 216 42 293 46 17 1 18
-5 11 -81z m-16 -210 c0 -7 -6 -44 -12 -83 l-12 -70 -92 -16 c-50 -10 -100
-22 -110 -27 -10 -5 -37 -12 -60 -16 l-43 -6 0 82 0 83 118 23 c64 13 133 27
152 32 52 12 60 11 59 -2z"/>
</g>
</svg>
