<?xml version="1.0" standalone="no"?>
<!DOCTYPE svg PUBLIC "-//W3C//DTD SVG 20010904//EN"
 "http://www.w3.org/TR/2001/REC-SVG-20010904/DTD/svg10.dtd">
<svg version="1.0" xmlns="http://www.w3.org/2000/svg"
 width="248.000000pt" height="248.000000pt" viewBox="0 0 248.000000 248.000000"
 preserveAspectRatio="xMidYMid meet">
<metadata>
Created by potrace 1.10, written by Peter Selinger 2001-2011
</metadata>
<g transform="translate(0.000000,248.000000) scale(0.100000,-0.100000)"
fill="#000000" stroke="none">
<path d="M848 2250 c-15 -5 -76 -13 -135 -20 -122 -12 -317 -55 -350 -76 -25
-16 -31 -62 -12 -81 12 -12 16 -74 23 -351 5 -201 13 -232 61 -232 50 0 53 21
44 301 -4 141 -9 262 -11 270 -5 21 93 48 231 64 69 8 126 13 129 11 6 -7 -16
-257 -35 -393 -14 -101 -15 -124 -4 -137 18 -21 54 -20 74 2 15 16 41 148 51
257 25 255 28 327 16 355 -7 17 -16 30 -20 30 -5 0 -14 2 -22 4 -7 2 -25 1
-40 -4z"/>
</g>
</svg>
