<?xml version="1.0" standalone="no"?>
<!DOCTYPE svg PUBLIC "-//W3C//DTD SVG 20010904//EN"
 "http://www.w3.org/TR/2001/REC-SVG-20010904/DTD/svg10.dtd">
<svg version="1.0" xmlns="http://www.w3.org/2000/svg"
 width="248.000000pt" height="248.000000pt" viewBox="0 0 248.000000 248.000000"
 preserveAspectRatio="xMidYMid meet">
<metadata>
Created by potrace 1.10, written by Peter Selinger 2001-2011
</metadata>
<g transform="translate(0.000000,248.000000) scale(0.100000,-0.100000)"
fill="#000000" stroke="none">
<path d="M1552 2358 c-5 -7 -30 -56 -56 -108 -66 -137 -96 -187 -143 -240 -58
-65 -55 -110 7 -110 44 0 60 16 145 147 7 12 265 27 265 15 0 -15 -73 -123
-122 -180 -26 -30 -48 -62 -51 -72 -7 -27 20 -60 48 -60 30 0 133 119 200 232
25 43 54 82 63 87 17 9 86 17 215 25 67 5 89 19 85 55 -5 42 -38 50 -158 40
-172 -14 -472 -30 -477 -26 -2 2 10 33 27 68 32 68 38 107 18 127 -16 16 -53
15 -66 0z"/>
<path d="M668 2348 c-9 -7 -37 -52 -61 -100 -62 -120 -158 -265 -206 -313 -24
-23 -41 -48 -41 -61 0 -27 35 -55 59 -47 23 8 99 82 122 120 20 32 22 32 94
32 40 0 93 2 118 6 l44 7 25 -74 c15 -40 29 -93 33 -118 4 -25 12 -51 17 -57
17 -21 56 -15 73 11 14 21 14 34 5 85 -6 33 -17 76 -25 95 -27 64 -22 73 43
80 87 11 261 45 281 56 27 14 32 47 11 72 l-17 22 -124 -22 c-116 -21 -371
-57 -448 -64 -18 -2 -32 1 -32 7 1 5 26 55 56 112 30 56 55 107 55 113 0 14
-38 50 -53 50 -7 0 -21 -6 -29 -12z"/>
<path d="M1749 1705 c-3 -2 -79 -11 -169 -20 -91 -8 -266 -27 -390 -40 -124
-14 -252 -27 -285 -30 -130 -13 -215 -28 -225 -41 -15 -18 -9 -55 12 -67 16
-10 261 5 383 23 34 5 52 4 57 -3 4 -6 5 -41 2 -77 -9 -117 7 -105 -166 -125
-84 -9 -191 -27 -238 -39 -74 -18 -86 -24 -92 -46 -49 -185 -75 -269 -104
-342 -29 -72 -33 -91 -24 -109 15 -27 43 -24 219 25 131 37 273 66 318 66 22
0 21 -2 -14 -62 -20 -35 -54 -90 -76 -123 -61 -90 -264 -284 -401 -381 -72
-51 -90 -80 -66 -110 20 -23 57 -16 114 20 122 78 356 298 433 409 30 42 57
77 59 77 5 0 -4 -395 -11 -475 -2 -27 -7 -64 -11 -82 -12 -58 59 -102 95 -59
5 6 10 61 11 121 3 182 32 679 40 688 6 7 196 24 470 41 52 4 128 9 167 12 62
5 74 4 79 -11 8 -20 -67 -251 -112 -346 -19 -39 -54 -97 -80 -130 l-46 -60
-46 39 c-26 22 -67 52 -92 68 -25 15 -58 39 -73 51 -37 30 -63 29 -83 -3 -16
-24 -16 -27 3 -52 11 -15 51 -49 89 -75 38 -26 85 -63 104 -81 82 -79 110 -76
195 17 96 104 184 298 244 534 40 156 44 153 -229 142 -182 -7 -352 -18 -532
-35 -44 -4 -58 -2 -59 8 -4 89 4 225 14 235 13 12 196 36 284 37 76 1 88 15
262 290 17 26 31 59 31 72 0 28 -46 65 -61 49z m-99 -129 c0 -8 -22 -48 -50
-89 l-49 -74 -98 -16 c-54 -9 -126 -20 -160 -23 l-63 -7 0 87 c0 67 3 88 15
92 14 6 324 41 378 43 17 1 27 -4 27 -13z m-528 -352 c2 -9 1 -64 -2 -123 l-5
-106 -138 -22 c-76 -12 -180 -33 -230 -47 -50 -14 -93 -23 -95 -21 -2 2 15 64
39 139 49 158 37 148 209 170 63 9 126 17 140 20 58 8 79 6 82 -10z"/>
</g>
</svg>
