<?xml version="1.0" standalone="no"?>
<!DOCTYPE svg PUBLIC "-//W3C//DTD SVG 20010904//EN"
 "http://www.w3.org/TR/2001/REC-SVG-20010904/DTD/svg10.dtd">
<svg version="1.0" xmlns="http://www.w3.org/2000/svg"
 width="248.000000pt" height="248.000000pt" viewBox="0 0 248.000000 248.000000"
 preserveAspectRatio="xMidYMid meet">
<metadata>
Created by potrace 1.10, written by Peter Selinger 2001-2011
</metadata>
<g transform="translate(0.000000,248.000000) scale(0.100000,-0.100000)"
fill="#000000" stroke="none">
<path d="M668 2348 c-9 -7 -37 -52 -61 -100 -62 -120 -158 -265 -206 -313 -24
-23 -41 -48 -41 -61 0 -27 35 -55 59 -47 23 8 99 82 122 120 20 32 22 32 92
32 118 0 571 66 616 91 27 14 32 47 11 72 l-17 22 -124 -22 c-116 -21 -371
-57 -448 -64 -18 -2 -32 1 -32 7 1 5 26 55 56 112 30 56 55 107 55 113 0 14
-38 50 -53 50 -7 0 -21 -6 -29 -12z"/>
</g>
</svg>
