<?xml version="1.0" standalone="no"?>
<!DOCTYPE svg PUBLIC "-//W3C//DTD SVG 20010904//EN"
 "http://www.w3.org/TR/2001/REC-SVG-20010904/DTD/svg10.dtd">
<svg version="1.0" xmlns="http://www.w3.org/2000/svg"
 width="248.000000pt" height="248.000000pt" viewBox="0 0 248.000000 248.000000"
 preserveAspectRatio="xMidYMid meet">
<metadata>
Created by potrace 1.10, written by Peter Selinger 2001-2011
</metadata>
<g transform="translate(0.000000,248.000000) scale(0.100000,-0.100000)"
fill="#000000" stroke="none">
<path d="M2065 2285 c-5 -3 -93 -14 -195 -25 -286 -31 -629 -77 -707 -95 -44
-10 -54 -73 -14 -94 11 -6 60 -3 142 10 68 11 153 23 188 26 l64 6 -33 -49
c-19 -27 -62 -79 -97 -115 -50 -52 -72 -68 -102 -73 -50 -8 -85 -46 -78 -83 3
-15 8 -206 12 -423 5 -321 9 -399 21 -418 15 -23 44 -28 73 -12 25 13 124 27
276 40 236 19 260 21 288 26 31 6 51 36 44 65 -3 10 -1 37 4 59 17 74 29 178
39 337 6 87 12 181 15 208 19 214 15 258 -28 274 -14 6 -80 2 -177 -10 -85
-10 -183 -22 -218 -25 l-63 -7 48 64 c27 35 64 88 82 117 19 28 39 52 45 52 7
0 47 4 91 9 44 5 140 15 213 22 74 7 141 18 149 24 17 13 21 61 6 76 -11 11
-73 21 -88 14z m-155 -462 c0 -16 -3 -58 -7 -96 -5 -58 -9 -68 -27 -72 -12 -3
-127 -18 -258 -35 -130 -16 -243 -33 -252 -36 -15 -6 -16 3 -14 81 l3 88 35
18 c20 10 91 25 165 35 114 14 307 39 343 43 7 0 12 -10 12 -26z m-27 -355
c-3 -46 -6 -84 -7 -85 -1 -2 -240 -27 -463 -49 l-63 -6 0 75 0 75 68 11 c37 6
135 20 217 30 83 11 164 22 180 24 80 11 75 16 68 -75z m-13 -215 c-1 -31 -24
-108 -41 -131 -14 -20 -29 -23 -145 -32 -71 -5 -163 -14 -204 -20 -131 -17
-121 -23 -118 73 l3 82 75 7 c41 4 129 14 195 21 66 8 146 15 178 16 48 1 57
-2 57 -16z"/>
<path d="M848 2250 c-15 -5 -76 -13 -135 -20 -122 -12 -317 -55 -350 -76 -25
-16 -31 -62 -12 -81 12 -12 16 -74 23 -351 4 -145 8 -189 21 -208 19 -29 55
-31 80 -4 10 11 28 20 40 20 12 0 59 11 104 25 45 13 115 27 156 31 49 4 79
12 88 23 21 24 45 174 63 391 13 153 13 197 4 221 -7 16 -16 29 -20 29 -5 0
-14 2 -22 4 -7 2 -25 1 -40 -4z m-23 -192 c-4 -46 -8 -84 -10 -86 -3 -3 -315
-72 -327 -72 -9 0 -17 45 -20 115 l-2 60 55 18 c47 15 218 43 288 46 24 1 24
1 16 -81z m-16 -210 c0 -7 -6 -44 -12 -83 l-12 -70 -85 -16 c-47 -9 -96 -21
-110 -26 -14 -6 -44 -13 -67 -17 l-43 -6 0 82 0 83 118 23 c64 13 133 27 152
32 52 12 60 11 59 -2z"/>
<path d="M770 1409 c-52 -16 -135 -38 -185 -49 -49 -10 -153 -34 -230 -54 -77
-19 -153 -37 -168 -41 -53 -11 -58 -84 -8 -100 10 -3 98 14 195 39 97 24 177
41 179 37 2 -3 0 -71 -4 -151 -4 -80 -7 -198 -8 -262 0 -65 -4 -118 -8 -118
-7 0 -206 61 -211 65 -1 1 20 67 48 146 27 79 47 152 44 161 -7 24 -40 41 -65
33 -25 -8 -31 -22 -107 -246 -76 -222 -109 -298 -160 -378 -56 -86 -54 -141 5
-141 30 0 111 120 160 235 23 56 40 85 51 85 20 0 194 -54 282 -88 152 -58
465 -162 590 -197 74 -20 158 -43 185 -51 28 -8 113 -28 190 -45 77 -17 181
-39 230 -50 66 -15 146 -22 297 -26 223 -6 238 -4 238 43 0 46 -32 55 -237 60
-103 3 -217 12 -253 19 -395 83 -676 158 -989 267 l-184 64 2 125 c1 68 4 126
7 128 5 5 148 38 223 51 29 5 64 16 77 25 31 20 31 60 0 80 -21 14 -32 13
-127 -9 -57 -13 -119 -27 -136 -30 l-33 -5 0 109 c0 80 4 112 14 123 8 8 65
29 128 46 120 35 154 57 142 95 -14 45 -43 46 -174 5z"/>
<path d="M1705 942 c-58 -12 -62 -61 -7 -95 62 -40 334 -236 384 -278 65 -54
108 -50 108 12 0 31 -48 79 -155 154 -38 26 -115 82 -169 123 -106 79 -129 91
-161 84z"/>
<path d="M1377 897 c-12 -13 -43 -48 -69 -79 -31 -37 -76 -73 -129 -104 -92
-54 -113 -82 -84 -114 10 -11 27 -20 38 -20 26 0 131 59 190 107 52 43 147
158 147 179 0 19 -36 54 -55 54 -9 0 -26 -10 -38 -23z"/>
</g>
</svg>
