<?xml version="1.0" standalone="no"?>
<!DOCTYPE svg PUBLIC "-//W3C//DTD SVG 20010904//EN"
 "http://www.w3.org/TR/2001/REC-SVG-20010904/DTD/svg10.dtd">
<svg version="1.0" xmlns="http://www.w3.org/2000/svg"
 width="248.000000pt" height="248.000000pt" viewBox="0 0 248.000000 248.000000"
 preserveAspectRatio="xMidYMid meet">
<metadata>
Created by potrace 1.10, written by Peter Selinger 2001-2011
</metadata>
<g transform="translate(0.000000,248.000000) scale(0.100000,-0.100000)"
fill="#000000" stroke="none">
<path d="M1852 2198 c-28 -28 -15 -63 76 -208 38 -60 53 -76 75 -78 33 -4 57
13 57 39 0 22 -46 107 -105 194 -43 62 -76 80 -103 53z"/>
<path d="M799 2093 c-8 -10 -23 -36 -33 -58 -19 -41 -123 -194 -228 -333 -35
-45 -79 -105 -98 -132 -19 -28 -63 -88 -98 -133 -35 -45 -82 -107 -104 -137
-23 -30 -59 -74 -80 -98 -42 -46 -48 -85 -17 -105 44 -28 95 22 284 278 13 18
14 -25 15 -375 0 -217 -5 -491 -11 -608 -11 -235 -7 -264 42 -270 42 -5 51 19
60 151 14 204 22 1146 11 1196 -12 52 -9 57 117 225 197 260 250 363 209 404
-17 17 -53 15 -69 -5z"/>
<path d="M1363 2098 c-6 -7 -12 -20 -15 -28 -8 -23 9 -268 27 -383 21 -140 23
-134 -32 -142 -27 -3 -91 -15 -143 -26 -52 -11 -139 -26 -193 -34 -54 -7 -105
-19 -113 -26 -22 -18 -17 -57 10 -75 30 -19 77 -15 281 26 77 16 161 32 187
35 l47 7 10 -38 c6 -22 15 -59 20 -84 22 -98 145 -441 197 -548 30 -62 54
-114 54 -116 0 -7 125 -215 192 -320 35 -54 95 -132 134 -173 105 -111 112
-108 239 105 126 213 147 302 70 302 -21 0 -55 -28 -55 -44 0 -24 -133 -263
-161 -291 -20 -19 -128 122 -209 270 -18 33 -45 78 -60 100 -38 57 -121 224
-163 332 -74 187 -169 504 -155 518 6 6 331 61 474 80 192 25 224 37 224 86 0
38 -25 43 -137 30 -107 -12 -149 -19 -432 -66 -85 -14 -156 -23 -159 -20 -11
11 -32 162 -43 320 -7 109 -16 178 -25 193 -16 24 -56 30 -71 10z"/>
</g>
</svg>
