<?xml version="1.0" standalone="no"?>
<!DOCTYPE svg PUBLIC "-//W3C//DTD SVG 20010904//EN"
 "http://www.w3.org/TR/2001/REC-SVG-20010904/DTD/svg10.dtd">
<svg version="1.0" xmlns="http://www.w3.org/2000/svg"
 width="248.000000pt" height="248.000000pt" viewBox="0 0 248.000000 248.000000"
 preserveAspectRatio="xMidYMid meet">
<metadata>
Created by potrace 1.10, written by Peter Selinger 2001-2011
</metadata>
<g transform="translate(0.000000,248.000000) scale(0.100000,-0.100000)"
fill="#000000" stroke="none">
<path d="M504 2269 c-68 -24 -24 -95 125 -203 64 -46 97 -56 119 -34 30 30 13
57 -75 127 -49 38 -93 78 -100 89 -14 23 -41 32 -69 21z"/>
<path d="M755 1875 c-127 -35 -318 -72 -470 -91 -140 -17 -175 -31 -175 -68 0
-48 18 -51 178 -32 155 18 414 67 479 90 21 7 59 16 85 20 64 10 89 54 52 90
-20 21 -42 20 -149 -9z"/>
<path d="M563 1436 c-61 -18 -147 -39 -190 -45 -90 -15 -123 -32 -123 -64 0
-50 34 -57 162 -32 70 13 213 50 294 76 41 13 58 49 38 78 -20 28 -47 26 -181
-13z"/>
<path d="M635 1105 c-27 -8 -99 -26 -160 -40 -222 -52 -245 -62 -245 -99 0
-48 50 -59 144 -31 28 8 92 24 141 35 177 42 225 59 237 86 9 19 8 28 -7 44
-21 23 -41 24 -110 5z"/>
</g>
</svg>
