<?xml version="1.0" standalone="no"?>
<!DOCTYPE svg PUBLIC "-//W3C//DTD SVG 20010904//EN"
 "http://www.w3.org/TR/2001/REC-SVG-20010904/DTD/svg10.dtd">
<svg version="1.0" xmlns="http://www.w3.org/2000/svg"
 width="248.000000pt" height="248.000000pt" viewBox="0 0 248.000000 248.000000"
 preserveAspectRatio="xMidYMid meet">
<metadata>
Created by potrace 1.10, written by Peter Selinger 2001-2011
</metadata>
<g transform="translate(0.000000,248.000000) scale(0.100000,-0.100000)"
fill="#000000" stroke="none">
<path d="M504 2269 c-68 -24 -24 -95 125 -203 64 -46 97 -56 119 -34 30 30 13
57 -75 127 -49 38 -93 78 -100 89 -14 23 -41 32 -69 21z"/>
<path d="M1959 2063 c-24 -32 -66 -90 -95 -129 -28 -39 -79 -95 -113 -125 -61
-53 -74 -82 -49 -107 7 -7 25 -12 42 -12 24 0 45 17 115 88 93 95 211 260 211
296 0 28 -18 46 -47 46 -16 0 -35 -17 -64 -57z"/>
<path d="M1142 1958 c-18 -18 -15 -52 7 -79 10 -13 26 -40 35 -59 10 -19 36
-63 59 -98 43 -64 76 -84 106 -65 30 19 24 53 -21 121 -24 37 -49 79 -55 93
-32 73 -100 118 -131 87z"/>
<path d="M755 1875 c-127 -35 -318 -72 -470 -91 -140 -17 -175 -31 -175 -68 0
-48 18 -51 178 -32 155 18 414 67 479 90 21 7 59 16 85 20 64 10 89 54 52 90
-20 21 -42 20 -149 -9z"/>
<path d="M563 1436 c-61 -18 -147 -39 -190 -45 -90 -15 -123 -32 -123 -64 0
-50 34 -57 162 -32 70 13 213 50 294 76 41 13 58 49 38 78 -20 28 -47 26 -181
-13z"/>
<path d="M635 1105 c-27 -8 -99 -26 -160 -40 -222 -52 -245 -62 -245 -99 0
-48 50 -59 144 -31 28 8 92 24 141 35 177 42 225 59 237 86 9 19 8 28 -7 44
-21 23 -41 24 -110 5z"/>
<path d="M680 800 c-52 -10 -162 -32 -245 -50 -82 -18 -161 -35 -175 -37 -61
-10 -71 -15 -80 -38 -6 -16 -5 -40 4 -72 8 -26 24 -124 36 -218 13 -93 29
-180 37 -192 14 -24 66 -32 78 -14 5 9 29 14 135 25 38 5 184 28 257 42 38 7
55 49 89 216 39 193 51 306 35 336 -14 26 -36 26 -171 2z m72 -131 c-3 -28
-27 -154 -58 -300 -6 -24 -13 -28 -73 -38 -36 -6 -86 -15 -111 -20 -25 -5 -74
-11 -110 -13 l-64 -3 -23 150 c-12 83 -21 155 -19 161 4 10 26 16 261 68 108
24 170 34 190 31 6 -1 9 -17 7 -36z"/>
</g>
</svg>
