<?xml version="1.0" standalone="no"?>
<!DOCTYPE svg PUBLIC "-//W3C//DTD SVG 20010904//EN"
 "http://www.w3.org/TR/2001/REC-SVG-20010904/DTD/svg10.dtd">
<svg version="1.0" xmlns="http://www.w3.org/2000/svg"
 width="248.000000pt" height="248.000000pt" viewBox="0 0 248.000000 248.000000"
 preserveAspectRatio="xMidYMid meet">
<metadata>
Created by potrace 1.10, written by Peter Selinger 2001-2011
</metadata>
<g transform="translate(0.000000,248.000000) scale(0.100000,-0.100000)"
fill="#000000" stroke="none">
<path d="M478 2288 c-17 -13 -21 -28 -19 -60 1 -17 58 -51 181 -109 36 -16 84
-39 107 -51 48 -23 88 -19 98 12 15 46 -20 78 -117 109 -20 7 -77 34 -125 62
-96 53 -101 55 -125 37z"/>
<path d="M1843 2158 c-5 -7 -15 -47 -22 -88 -33 -213 -40 -251 -57 -329 -14
-64 -23 -85 -38 -92 -24 -10 -337 -69 -367 -69 -10 0 -19 7 -19 15 0 8 28 70
61 138 105 208 149 316 139 342 -10 26 -45 38 -71 25 -10 -6 -26 -34 -37 -62
-11 -29 -69 -155 -130 -279 -105 -218 -152 -299 -234 -402 -21 -27 -38 -57
-38 -66 0 -21 30 -51 51 -51 17 0 60 43 111 113 38 51 51 46 42 -15 -2 -18
-13 -193 -24 -388 -21 -378 -35 -574 -50 -655 -11 -63 6 -95 50 -95 23 0 33 6
42 24 6 14 17 27 25 30 33 13 346 53 638 81 182 18 274 19 366 3 87 -14 119
-3 119 41 0 54 -11 56 -264 56 -127 0 -258 -2 -291 -5 l-60 -5 2 100 c1 55 6
138 10 185 l8 85 83 11 c45 7 138 18 207 24 98 10 128 17 141 31 14 16 15 24
6 44 -11 24 -16 25 -95 25 -45 0 -137 -7 -202 -15 -66 -8 -123 -15 -127 -15
-9 0 -9 142 0 220 l7 55 120 22 c66 12 138 22 161 22 82 2 133 36 119 80 -9
28 -46 40 -96 30 -129 -25 -291 -49 -299 -44 -12 7 -13 244 -2 263 15 23 200
62 327 68 129 7 155 17 155 60 0 14 -10 30 -24 39 -21 14 -37 14 -167 0 -79
-8 -169 -22 -199 -30 -72 -19 -69 -21 -59 23 22 101 59 339 59 386 0 28 -5 57
-12 64 -16 16 -53 15 -65 0z m-118 -758 l0 -135 -160 -27 c-88 -15 -177 -31
-198 -37 l-38 -9 2 131 c0 72 3 137 6 144 3 7 17 13 32 13 14 1 91 14 171 29
80 16 154 28 165 27 19 -1 20 -8 20 -136z m-9 -372 c-5 -98 -11 -136 -22 -144
-17 -14 -270 -57 -338 -58 l-49 -1 2 85 c3 139 9 170 40 182 23 9 323 65 360
67 11 1 13 -22 7 -131z m-20 -335 c-3 -43 -9 -121 -12 -173 -3 -52 -9 -99 -14
-103 -4 -5 -61 -15 -126 -22 -66 -8 -152 -19 -193 -25 -41 -5 -76 -8 -79 -5
-3 3 0 49 6 103 7 53 12 115 12 137 0 22 3 56 6 76 l6 36 72 7 c39 4 116 15
171 25 55 10 113 19 129 20 l29 1 -7 -77z"/>
<path d="M755 1824 c-274 -54 -528 -94 -594 -94 -79 0 -115 -46 -70 -91 16
-16 29 -19 57 -15 20 3 107 15 192 26 85 12 214 32 285 46 315 58 335 65 335
107 0 54 -26 56 -205 21z"/>
<path d="M620 1425 c-52 -12 -149 -35 -215 -50 -66 -15 -130 -34 -142 -41 -27
-17 -30 -56 -7 -75 19 -15 59 -9 291 45 235 54 232 53 239 83 16 63 -26 73
-166 38z"/>
<path d="M615 1079 c-123 -24 -345 -86 -361 -100 -17 -14 -18 -51 -2 -67 19
-19 51 -15 192 22 72 19 174 42 226 52 52 9 103 20 112 25 23 12 31 44 18 69
-13 25 -58 25 -185 -1z"/>
<path d="M675 790 c-22 -4 -85 -13 -140 -19 -127 -16 -263 -47 -294 -67 -23
-16 -24 -18 -18 -123 12 -212 29 -397 41 -421 12 -28 49 -38 71 -20 8 6 17 24
20 40 7 34 24 38 230 65 72 10 137 21 145 25 8 4 18 27 21 51 3 24 15 96 27
159 11 63 24 152 27 198 10 119 -8 135 -130 112z m27 -145 c-6 -69 -43 -270
-52 -279 -8 -8 -301 -58 -307 -52 -3 2 -23 259 -23 292 0 17 10 24 47 34 63
18 260 48 303 46 35 -1 35 -2 32 -41z"/>
</g>
</svg>
