<?xml version="1.0" standalone="no"?>
<!DOCTYPE svg PUBLIC "-//W3C//DTD SVG 20010904//EN"
 "http://www.w3.org/TR/2001/REC-SVG-20010904/DTD/svg10.dtd">
<svg version="1.0" xmlns="http://www.w3.org/2000/svg"
 width="248.000000pt" height="248.000000pt" viewBox="0 0 248.000000 248.000000"
 preserveAspectRatio="xMidYMid meet">
<metadata>
Created by potrace 1.10, written by Peter Selinger 2001-2011
</metadata>
<g transform="translate(0.000000,248.000000) scale(0.100000,-0.100000)"
fill="#000000" stroke="none">
<path d="M478 2288 c-17 -13 -21 -28 -19 -60 1 -17 58 -51 181 -109 36 -16 84
-39 107 -51 48 -23 88 -19 98 12 15 46 -20 78 -117 109 -20 7 -77 34 -125 62
-96 53 -101 55 -125 37z"/>
<path d="M1468 2100 c-9 -6 -26 -34 -36 -63 -11 -28 -69 -154 -130 -278 -105
-218 -152 -299 -234 -402 -21 -27 -38 -57 -38 -66 0 -21 30 -51 51 -51 17 0
60 43 111 113 38 51 51 46 42 -15 -2 -18 -13 -193 -24 -388 -21 -378 -35 -574
-50 -655 -10 -63 6 -95 50 -95 39 0 46 17 54 125 4 50 11 124 16 165 12 94 49
775 53 970 l3 145 63 125 c108 211 151 318 141 346 -5 13 -14 24 -19 24 -5 0
-15 2 -23 5 -7 2 -21 0 -30 -5z"/>
<path d="M755 1824 c-274 -54 -528 -94 -594 -94 -79 0 -115 -46 -70 -91 16
-16 29 -19 57 -15 20 3 107 15 192 26 85 12 214 32 285 46 315 58 335 65 335
107 0 54 -26 56 -205 21z"/>
<path d="M620 1425 c-52 -12 -149 -35 -215 -50 -66 -15 -130 -34 -142 -41 -27
-17 -30 -56 -7 -75 19 -15 59 -9 291 45 235 54 232 53 239 83 16 63 -26 73
-166 38z"/>
<path d="M615 1079 c-123 -24 -345 -86 -361 -100 -17 -14 -18 -51 -2 -67 19
-19 51 -15 192 22 72 19 174 42 226 52 52 9 103 20 112 25 23 12 31 44 18 69
-13 25 -58 25 -185 -1z"/>
<path d="M675 790 c-22 -4 -85 -13 -140 -19 -127 -16 -263 -47 -294 -67 -23
-16 -24 -18 -18 -123 12 -212 29 -397 41 -421 12 -28 49 -38 71 -20 8 6 17 24
20 40 7 34 24 38 230 65 72 10 137 21 145 25 8 4 18 27 21 51 3 24 15 96 27
159 11 63 24 152 27 198 10 119 -8 135 -130 112z m27 -145 c-6 -69 -43 -270
-52 -279 -8 -8 -301 -58 -307 -52 -3 2 -23 259 -23 292 0 17 10 24 47 34 63
18 260 48 303 46 35 -1 35 -2 32 -41z"/>
</g>
</svg>
