<?xml version="1.0" standalone="no"?>
<!DOCTYPE svg PUBLIC "-//W3C//DTD SVG 20010904//EN"
 "http://www.w3.org/TR/2001/REC-SVG-20010904/DTD/svg10.dtd">
<svg version="1.0" xmlns="http://www.w3.org/2000/svg"
 width="248.000000pt" height="248.000000pt" viewBox="0 0 248.000000 248.000000"
 preserveAspectRatio="xMidYMid meet">
<metadata>
Created by potrace 1.10, written by Peter Selinger 2001-2011
</metadata>
<g transform="translate(0.000000,248.000000) scale(0.100000,-0.100000)"
fill="#000000" stroke="none">
<path d="M478 2288 c-17 -13 -21 -28 -19 -60 1 -17 58 -51 181 -109 36 -16 84
-39 107 -51 48 -23 88 -19 98 12 15 46 -20 78 -117 109 -20 7 -77 34 -125 62
-96 53 -101 55 -125 37z"/>
<path d="M755 1824 c-274 -54 -528 -94 -594 -94 -79 0 -115 -46 -70 -91 16
-16 29 -19 57 -15 20 3 107 15 192 26 85 12 214 32 285 46 315 58 335 65 335
107 0 54 -26 56 -205 21z"/>
<path d="M620 1425 c-52 -12 -149 -35 -215 -50 -66 -15 -130 -34 -142 -41 -27
-17 -30 -56 -7 -75 19 -15 59 -9 291 45 235 54 232 53 239 83 16 63 -26 73
-166 38z"/>
</g>
</svg>
