<?xml version="1.0" standalone="no"?>
<!DOCTYPE svg PUBLIC "-//W3C//DTD SVG 20010904//EN"
 "http://www.w3.org/TR/2001/REC-SVG-20010904/DTD/svg10.dtd">
<svg version="1.0" xmlns="http://www.w3.org/2000/svg"
 width="248.000000pt" height="248.000000pt" viewBox="0 0 248.000000 248.000000"
 preserveAspectRatio="xMidYMid meet">
<metadata>
Created by potrace 1.10, written by Peter Selinger 2001-2011
</metadata>
<g transform="translate(0.000000,248.000000) scale(0.100000,-0.100000)"
fill="#000000" stroke="none">
<path d="M1183 2183 c-3 -9 -7 -147 -7 -307 l-1 -291 -115 -12 c-63 -6 -183
-16 -267 -23 -84 -6 -175 -17 -203 -24 -37 -10 -53 -10 -55 -2 -2 6 -8 98 -14
203 -11 216 -19 248 -65 248 -46 0 -51 -19 -38 -152 6 -65 14 -180 18 -256 7
-149 14 -167 62 -167 15 0 54 9 88 19 60 19 403 55 529 56 l60 0 -1 -125 c-1
-257 -5 -461 -14 -733 -10 -302 -9 -311 39 -305 46 5 49 29 57 403 4 193 8
359 9 370 1 11 3 106 4 212 l1 191 63 6 c82 7 366 26 492 33 55 3 106 10 113
15 15 13 16 50 0 66 -15 15 -203 16 -344 3 -55 -6 -148 -11 -209 -13 l-110 -3
-1 285 c0 157 -3 293 -7 303 -9 23 -75 24 -84 0z"/>
</g>
</svg>
