<?xml version="1.0" standalone="no"?>
<!DOCTYPE svg PUBLIC "-//W3C//DTD SVG 20010904//EN"
 "http://www.w3.org/TR/2001/REC-SVG-20010904/DTD/svg10.dtd">
<svg version="1.0" xmlns="http://www.w3.org/2000/svg"
 width="248.000000pt" height="248.000000pt" viewBox="0 0 248.000000 248.000000"
 preserveAspectRatio="xMidYMid meet">
<metadata>
Created by potrace 1.10, written by Peter Selinger 2001-2011
</metadata>
<g transform="translate(0.000000,248.000000) scale(0.100000,-0.100000)"
fill="#000000" stroke="none">
<path d="M1183 2183 c-3 -9 -7 -147 -7 -307 l-1 -291 -115 -12 c-63 -6 -183
-16 -267 -23 -84 -6 -175 -17 -203 -24 -37 -10 -53 -10 -55 -2 -2 6 -8 98 -14
203 -11 216 -19 248 -65 248 -46 0 -51 -19 -38 -152 6 -65 14 -180 18 -256 7
-149 14 -167 62 -167 15 0 54 9 88 19 60 19 403 55 529 56 l60 0 -1 -125 c-1
-257 -5 -461 -14 -733 -10 -302 -9 -311 39 -305 51 6 50 -1 67 848 4 179 8
326 9 328 2 2 72 7 156 12 85 5 213 15 285 21 147 13 175 10 189 -23 7 -16 20
-24 41 -26 41 -4 48 13 80 196 14 81 36 200 49 265 29 141 24 167 -29 167 -19
0 -37 -4 -40 -8 -6 -10 -23 -94 -56 -277 -13 -66 -26 -136 -29 -155 l-7 -35
-74 -2 c-41 -1 -149 -7 -240 -13 -91 -6 -201 -12 -245 -13 l-80 -2 -1 285 c0
157 -3 293 -7 303 -9 23 -75 24 -84 0z"/>
</g>
</svg>
