<?xml version="1.0" standalone="no"?>
<!DOCTYPE svg PUBLIC "-//W3C//DTD SVG 20010904//EN"
 "http://www.w3.org/TR/2001/REC-SVG-20010904/DTD/svg10.dtd">
<svg version="1.0" xmlns="http://www.w3.org/2000/svg"
 width="248.000000pt" height="248.000000pt" viewBox="0 0 248.000000 248.000000"
 preserveAspectRatio="xMidYMid meet">
<metadata>
Created by potrace 1.10, written by Peter Selinger 2001-2011
</metadata>
<g transform="translate(0.000000,248.000000) scale(0.100000,-0.100000)"
fill="#000000" stroke="none">
<path d="M1183 2183 c-3 -9 -7 -147 -7 -307 l-1 -291 -115 -12 c-63 -6 -183
-16 -267 -23 -84 -6 -175 -17 -203 -24 -37 -10 -53 -10 -55 -2 -2 6 -8 98 -14
203 -11 216 -19 248 -65 248 -46 0 -51 -19 -38 -152 6 -65 14 -180 18 -256 7
-149 14 -167 62 -167 15 0 54 9 88 19 60 19 403 55 529 56 l60 0 0 -120 c0
-248 -17 -888 -24 -936 -5 -28 -15 -55 -22 -60 -8 -5 -43 -9 -78 -9 -35 0
-102 -6 -150 -14 -205 -34 -312 -49 -317 -43 -3 3 -10 88 -15 189 -15 284 -24
359 -45 375 -23 17 -35 16 -59 -1 -22 -16 -23 -38 -7 -216 15 -176 21 -269 23
-355 3 -113 21 -135 93 -111 37 13 177 37 376 66 190 27 853 45 950 26 25 -5
51 -17 58 -28 15 -21 55 -24 70 -5 14 16 57 234 83 417 11 79 27 172 35 206
16 70 8 108 -25 119 -27 8 -60 -10 -65 -38 -15 -76 -29 -162 -51 -307 -33
-230 -43 -273 -62 -266 -21 9 -423 8 -572 0 l-124 -7 6 244 c4 134 10 388 13
564 4 176 8 321 9 323 2 2 72 7 156 12 85 5 213 15 285 21 147 13 175 10 189
-23 7 -16 20 -24 41 -26 41 -4 48 13 80 196 14 81 36 200 49 265 29 141 24
167 -29 167 -19 0 -37 -4 -40 -8 -6 -10 -23 -94 -56 -277 -13 -66 -26 -136
-29 -155 l-7 -35 -74 -2 c-41 -1 -149 -7 -240 -13 -91 -6 -201 -12 -245 -13
l-80 -2 -1 285 c0 157 -3 293 -7 303 -9 23 -75 24 -84 0z"/>
</g>
</svg>
