<?xml version="1.0" standalone="no"?>
<!DOCTYPE svg PUBLIC "-//W3C//DTD SVG 20010904//EN"
 "http://www.w3.org/TR/2001/REC-SVG-20010904/DTD/svg10.dtd">
<svg version="1.0" xmlns="http://www.w3.org/2000/svg"
 width="248.000000pt" height="248.000000pt" viewBox="0 0 248.000000 248.000000"
 preserveAspectRatio="xMidYMid meet">
<metadata>
Created by potrace 1.10, written by Peter Selinger 2001-2011
</metadata>
<g transform="translate(0.000000,248.000000) scale(0.100000,-0.100000)"
fill="#000000" stroke="none">
<path d="M1510 2309 c-52 -4 -129 -13 -170 -19 -41 -6 -203 -19 -359 -29 -256
-15 -285 -19 -297 -36 -31 -42 10 -89 68 -80 69 12 293 22 302 14 15 -13 21
-205 7 -214 -17 -10 -233 -41 -386 -55 -71 -6 -182 -18 -245 -25 -63 -8 -130
-13 -148 -13 -18 1 -37 -3 -43 -9 -5 -5 -12 -88 -15 -184 -3 -96 -6 -189 -6
-208 -2 -52 38 -76 78 -47 17 13 19 30 22 173 3 118 7 161 17 169 12 9 123 23
315 40 30 3 127 14 215 25 88 11 169 21 180 22 19 2 20 -5 23 -267 1 -178 6
-274 13 -283 15 -17 53 -17 68 0 7 9 12 106 13 288 l3 274 80 8 c216 21 791 8
874 -19 10 -3 -18 -38 -85 -105 l-99 -99 15 -28 c9 -15 25 -28 37 -30 26 -4
135 89 227 193 103 119 91 145 -79 172 -91 14 -184 17 -540 17 l-430 1 0 110
0 110 85 6 c75 5 150 13 365 37 50 6 61 11 72 32 10 20 10 29 -1 45 -16 24
-43 26 -176 14z"/>
<path d="M1351 1801 c-43 -43 -26 -63 115 -131 153 -74 204 -77 204 -15 0 21
-28 55 -44 55 -4 0 -54 22 -109 49 -137 65 -142 66 -166 42z"/>
<path d="M632 1728 c-28 -28 -11 -69 33 -80 11 -3 60 -18 109 -32 49 -14 98
-24 108 -20 44 14 44 76 0 92 -138 49 -227 63 -250 40z"/>
<path d="M1320 1546 c-22 -27 -7 -58 40 -86 51 -30 193 -80 226 -80 29 0 46
23 42 57 -3 26 -11 31 -103 63 -55 20 -110 41 -122 48 -29 16 -68 15 -83 -2z"/>
<path d="M572 1518 c-19 -19 -14 -56 11 -72 12 -8 71 -29 130 -47 120 -37 140
-34 145 19 4 37 0 39 -128 81 -102 33 -139 38 -158 19z"/>
<path d="M1270 1225 c-96 -8 -240 -18 -320 -23 -160 -11 -358 -40 -377 -55
-19 -14 -16 -48 6 -71 15 -16 24 -52 36 -141 9 -66 18 -122 20 -125 2 -3 6
-45 10 -95 11 -137 25 -154 113 -132 13 4 104 11 202 17 99 6 185 12 192 15
22 7 203 25 321 31 80 4 115 10 123 20 7 8 21 52 33 97 12 45 30 114 41 152
35 120 60 229 60 257 0 17 -10 34 -26 47 -24 19 -39 21 -143 20 -64 -1 -195
-7 -291 -14z m348 -99 c2 -9 -6 -48 -17 -86 -22 -70 -22 -70 -59 -71 -20 0
-44 -2 -52 -3 -8 -2 -87 -7 -175 -11 -236 -10 -276 -13 -433 -26 -106 -9 -146
-9 -154 -1 -12 12 -31 129 -23 141 2 5 53 13 112 20 59 7 124 14 143 16 19 2
94 7 165 10 72 3 148 8 170 10 22 2 94 7 160 11 66 3 121 8 123 9 10 9 37 -4
40 -19z m-68 -261 c0 -3 -7 -32 -16 -64 l-16 -58 -142 -6 c-77 -4 -186 -13
-241 -22 -55 -8 -149 -17 -210 -20 -60 -3 -119 -8 -130 -10 -37 -8 -49 10 -53
78 l-4 65 83 1 c45 1 132 5 193 11 61 5 190 12 286 16 96 3 177 8 179 10 6 6
71 5 71 -1z"/>
</g>
</svg>
