<?xml version="1.0" standalone="no"?>
<!DOCTYPE svg PUBLIC "-//W3C//DTD SVG 20010904//EN"
 "http://www.w3.org/TR/2001/REC-SVG-20010904/DTD/svg10.dtd">
<svg version="1.0" xmlns="http://www.w3.org/2000/svg"
 width="248.000000pt" height="248.000000pt" viewBox="0 0 248.000000 248.000000"
 preserveAspectRatio="xMidYMid meet">
<metadata>
Created by potrace 1.10, written by Peter Selinger 2001-2011
</metadata>
<g transform="translate(0.000000,248.000000) scale(0.100000,-0.100000)"
fill="#000000" stroke="none">
<path d="M1515 2309 c-49 -4 -128 -12 -175 -18 -125 -16 -154 -18 -390 -31
-118 -7 -226 -15 -240 -19 -19 -6 -26 -15 -28 -38 -4 -42 22 -67 62 -59 28 6
149 14 456 31 58 4 130 10 160 15 55 10 92 14 230 25 84 7 100 16 100 54 0 53
-8 55 -175 40z"/>
<path d="M1220 1950 c-80 -4 -192 -15 -250 -23 -160 -24 -267 -36 -355 -42
-44 -3 -127 -13 -184 -21 -57 -9 -118 -13 -135 -10 -63 12 -67 2 -72 -204 -6
-243 -6 -233 13 -247 22 -17 35 -16 59 1 17 13 19 29 22 163 3 197 2 193 55
193 23 0 67 4 97 9 30 5 100 12 155 16 55 4 165 16 245 26 245 33 298 38 505
48 222 12 485 7 645 -11 58 -6 107 -13 109 -15 3 -2 -39 -48 -92 -102 -53 -54
-97 -105 -97 -113 0 -27 37 -51 66 -44 34 9 262 239 270 273 14 53 -21 72
-166 93 -104 15 -690 21 -890 10z"/>
</g>
</svg>
