<?xml version="1.0" standalone="no"?>
<!DOCTYPE svg PUBLIC "-//W3C//DTD SVG 20010904//EN"
 "http://www.w3.org/TR/2001/REC-SVG-20010904/DTD/svg10.dtd">
<svg version="1.0" xmlns="http://www.w3.org/2000/svg"
 width="248.000000pt" height="248.000000pt" viewBox="0 0 248.000000 248.000000"
 preserveAspectRatio="xMidYMid meet">
<metadata>
Created by potrace 1.10, written by Peter Selinger 2001-2011
</metadata>
<g transform="translate(0.000000,248.000000) scale(0.100000,-0.100000)"
fill="#000000" stroke="none">
<path d="M1510 2309 c-52 -4 -129 -13 -170 -19 -41 -6 -203 -19 -359 -29 -256
-15 -285 -19 -297 -36 -31 -42 10 -89 68 -80 69 12 293 22 302 14 15 -13 21
-205 7 -214 -17 -10 -233 -41 -386 -55 -71 -6 -182 -18 -245 -25 -63 -8 -130
-13 -148 -13 -18 1 -37 -3 -43 -9 -5 -5 -12 -88 -15 -184 -3 -96 -6 -189 -6
-208 -2 -52 38 -76 78 -47 17 13 19 30 22 173 3 118 7 161 17 169 12 9 123 23
315 40 30 3 127 14 215 25 88 11 169 21 180 22 19 2 20 -5 23 -267 1 -178 6
-274 13 -283 15 -17 53 -17 68 0 7 9 12 106 13 288 l3 274 80 8 c216 21 791 8
874 -19 10 -3 -18 -38 -85 -105 l-99 -99 15 -28 c9 -15 25 -28 37 -30 26 -4
135 89 227 193 103 119 91 145 -79 172 -91 14 -184 17 -540 17 l-430 1 0 110
0 110 85 6 c75 5 150 13 365 37 50 6 61 11 72 32 10 20 10 29 -1 45 -16 24
-43 26 -176 14z"/>
<path d="M1351 1801 c-43 -43 -26 -63 115 -131 153 -74 204 -77 204 -15 0 21
-28 55 -44 55 -4 0 -54 22 -109 49 -137 65 -142 66 -166 42z"/>
<path d="M632 1728 c-28 -28 -11 -69 33 -80 11 -3 60 -18 109 -32 49 -14 98
-24 108 -20 44 14 44 76 0 92 -138 49 -227 63 -250 40z"/>
<path d="M1320 1546 c-22 -27 -7 -58 40 -86 51 -30 193 -80 226 -80 29 0 46
23 42 57 -3 26 -11 31 -103 63 -55 20 -110 41 -122 48 -29 16 -68 15 -83 -2z"/>
<path d="M572 1518 c-19 -19 -14 -56 11 -72 12 -8 71 -29 130 -47 120 -37 140
-34 145 19 4 37 0 39 -128 81 -102 33 -139 38 -158 19z"/>
<path d="M1350 1230 c-58 -5 -148 -11 -200 -14 -304 -19 -550 -48 -577 -69
-19 -14 -16 -48 6 -71 20 -22 56 -226 70 -398 8 -100 22 -117 85 -100 24 6 98
14 165 18 l121 7 0 -154 0 -154 36 -51 c36 -54 65 -71 194 -116 107 -37 403
-49 570 -23 142 23 181 39 234 95 51 54 56 70 59 159 2 54 -1 65 -19 77 -20
14 -24 13 -49 -9 -23 -19 -27 -31 -27 -68 1 -37 -5 -53 -29 -82 -36 -44 -87
-61 -244 -82 -204 -27 -485 11 -579 78 -53 37 -66 114 -50 275 6 52 10 61 29
66 35 9 331 36 391 36 41 0 56 4 63 18 8 15 20 58 78 272 61 229 64 267 18
288 -28 13 -176 14 -345 2z m268 -103 c4 -22 -27 -127 -43 -145 -13 -14 -400
-40 -430 -28 -12 4 -15 20 -13 76 1 39 5 74 8 79 3 5 102 14 220 21 118 7 217
14 220 16 10 10 35 -3 38 -19z m-580 -82 c6 -106 13 -101 -153 -115 -108 -10
-149 -10 -157 -2 -14 14 -31 133 -21 143 10 9 245 38 293 36 l35 -2 3 -60z
m506 -183 c2 -4 -2 -33 -11 -63 l-15 -56 -142 -7 c-77 -3 -165 -9 -194 -13
l-53 -6 3 64 3 64 155 11 c204 15 248 16 254 6z m-514 -31 c7 -12 -3 -117 -12
-126 -3 -4 -61 -10 -129 -14 -146 -10 -149 -8 -149 81 l0 57 98 3 c53 2 117 4
141 6 24 2 47 -2 51 -7z"/>
</g>
</svg>
