<?xml version="1.0" standalone="no"?>
<!DOCTYPE svg PUBLIC "-//W3C//DTD SVG 20010904//EN"
 "http://www.w3.org/TR/2001/REC-SVG-20010904/DTD/svg10.dtd">
<svg version="1.0" xmlns="http://www.w3.org/2000/svg"
 width="248.000000pt" height="248.000000pt" viewBox="0 0 248.000000 248.000000"
 preserveAspectRatio="xMidYMid meet">
<metadata>
Created by potrace 1.10, written by Peter Selinger 2001-2011
</metadata>
<g transform="translate(0.000000,248.000000) scale(0.100000,-0.100000)"
fill="#000000" stroke="none">
<path d="M1515 2309 c-49 -4 -128 -12 -175 -18 -125 -16 -154 -18 -390 -31
-118 -7 -226 -15 -240 -19 -19 -6 -26 -15 -28 -38 -4 -42 22 -67 62 -59 28 6
149 14 456 31 58 4 130 10 160 15 55 10 92 14 230 25 84 7 100 16 100 54 0 53
-8 55 -175 40z"/>
<path d="M252 1849 c-12 -5 -22 -12 -22 -16 -2 -29 -10 -373 -10 -393 0 -25
23 -50 45 -50 6 0 20 6 31 14 17 13 19 32 25 213 3 109 2 205 -2 214 -11 21
-39 28 -67 18z"/>
</g>
</svg>
