<?xml version="1.0" standalone="no"?>
<!DOCTYPE svg PUBLIC "-//W3C//DTD SVG 20010904//EN"
 "http://www.w3.org/TR/2001/REC-SVG-20010904/DTD/svg10.dtd">
<svg version="1.0" xmlns="http://www.w3.org/2000/svg"
 width="248.000000pt" height="248.000000pt" viewBox="0 0 248.000000 248.000000"
 preserveAspectRatio="xMidYMid meet">
<metadata>
Created by potrace 1.10, written by Peter Selinger 2001-2011
</metadata>
<g transform="translate(0.000000,248.000000) scale(0.100000,-0.100000)"
fill="#000000" stroke="none">
<path d="M1380 2050 c-266 -8 -327 -13 -565 -46 -334 -45 -410 -57 -422 -67
-15 -11 -17 -67 -4 -117 5 -19 12 -116 15 -215 7 -197 23 -482 31 -530 2 -16
9 -139 15 -272 7 -133 13 -250 15 -260 2 -10 4 -62 4 -115 1 -89 3 -98 22
-109 16 -8 28 -8 45 0 24 10 24 13 24 148 0 145 -10 356 -35 733 -19 291 -35
570 -35 619 l0 39 78 11 c450 66 603 80 1002 88 323 6 487 -1 516 -21 16 -12
16 -21 6 -97 -15 -105 -34 -375 -52 -720 -5 -103 -12 -193 -14 -200 -3 -8 -7
-59 -11 -113 -3 -55 -8 -103 -10 -106 -2 -4 -9 -49 -15 -101 -5 -52 -15 -129
-21 -172 -13 -88 -6 -107 43 -107 38 0 53 36 62 145 4 44 13 121 21 170 15 98
28 260 45 540 6 99 18 270 26 380 9 110 20 252 24 315 13 159 12 159 -145 179
-83 10 -353 11 -665 1z"/>
</g>
</svg>
