<?xml version="1.0" standalone="no"?>
<!DOCTYPE svg PUBLIC "-//W3C//DTD SVG 20010904//EN"
 "http://www.w3.org/TR/2001/REC-SVG-20010904/DTD/svg10.dtd">
<svg version="1.0" xmlns="http://www.w3.org/2000/svg"
 width="248.000000pt" height="248.000000pt" viewBox="0 0 248.000000 248.000000"
 preserveAspectRatio="xMidYMid meet">
<metadata>
Created by potrace 1.10, written by Peter Selinger 2001-2011
</metadata>
<g transform="translate(0.000000,248.000000) scale(0.100000,-0.100000)"
fill="#000000" stroke="none">
<path d="M1375 2050 c-261 -8 -310 -12 -560 -46 -332 -45 -410 -57 -422 -67
-15 -11 -17 -67 -4 -117 5 -19 12 -116 15 -215 7 -197 23 -482 31 -530 2 -16
9 -139 15 -272 7 -133 13 -250 15 -260 2 -10 4 -62 4 -115 1 -89 3 -98 22
-109 16 -8 28 -8 47 0 l25 12 -6 222 c-4 122 -10 292 -13 378 l-7 156 209 6
c115 4 258 11 318 17 62 6 113 7 118 2 9 -9 -6 -388 -22 -565 -11 -118 -3
-147 37 -147 47 0 56 13 59 81 6 149 25 577 27 609 l2 35 115 13 c63 7 232 14
375 15 l260 2 3 -40 c2 -22 -1 -87 -7 -145 -6 -58 -14 -141 -17 -185 -3 -44
-8 -83 -10 -87 -2 -3 -11 -68 -19 -144 -9 -76 -19 -149 -22 -163 -15 -55 1
-81 49 -81 39 0 46 20 63 172 9 73 20 158 25 188 10 61 24 234 40 505 6 99 18
270 26 380 9 110 20 252 24 315 13 159 12 159 -145 179 -83 10 -349 11 -670 1z
m648 -99 c80 -10 82 -14 69 -113 -12 -83 -25 -256 -37 -463 -4 -60 -9 -113
-13 -117 -4 -3 -153 -9 -332 -12 -179 -4 -347 -7 -375 -9 l-50 -2 -2 155 c-1
85 1 245 5 355 l7 200 60 6 c88 8 600 9 668 0z m-832 -23 c6 -44 -4 -694 -10
-701 -9 -9 -482 -47 -583 -47 -62 0 -68 2 -73 23 -2 12 -9 112 -15 222 -5 110
-13 252 -16 316 l-7 116 74 11 c87 13 438 60 489 65 86 9 140 7 141 -5z"/>
</g>
</svg>
