<?xml version="1.0" standalone="no"?>
<!DOCTYPE svg PUBLIC "-//W3C//DTD SVG 20010904//EN"
 "http://www.w3.org/TR/2001/REC-SVG-20010904/DTD/svg10.dtd">
<svg version="1.0" xmlns="http://www.w3.org/2000/svg"
 width="248.000000pt" height="248.000000pt" viewBox="0 0 248.000000 248.000000"
 preserveAspectRatio="xMidYMid meet">
<metadata>
Created by potrace 1.10, written by Peter Selinger 2001-2011
</metadata>
<g transform="translate(0.000000,248.000000) scale(0.100000,-0.100000)"
fill="#000000" stroke="none">
<path d="M401 1891 c-24 -24 -24 -24 -12 -71 5 -19 12 -116 15 -215 7 -197 23
-482 31 -530 2 -16 9 -139 15 -272 7 -133 13 -250 15 -260 2 -10 4 -62 4 -115
1 -89 3 -98 22 -109 16 -8 28 -8 45 0 24 10 24 13 24 148 0 148 -12 393 -35
728 -8 116 -20 315 -26 443 -7 133 -17 239 -23 246 -20 26 -54 28 -75 7z"/>
</g>
</svg>
