<?xml version="1.0" standalone="no"?>
<!DOCTYPE svg PUBLIC "-//W3C//DTD SVG 20010904//EN"
 "http://www.w3.org/TR/2001/REC-SVG-20010904/DTD/svg10.dtd">
<svg version="1.0" xmlns="http://www.w3.org/2000/svg"
 width="248.000000pt" height="248.000000pt" viewBox="0 0 248.000000 248.000000"
 preserveAspectRatio="xMidYMid meet">
<metadata>
Created by potrace 1.10, written by Peter Selinger 2001-2011
</metadata>
<g transform="translate(0.000000,248.000000) scale(0.100000,-0.100000)"
fill="#000000" stroke="none">
<path d="M681 2376 c-7 -9 -17 -49 -21 -89 -10 -87 -46 -237 -101 -419 -41
-137 -47 -189 -26 -206 6 -5 41 -17 77 -26 36 -9 90 -32 120 -50 30 -18 87
-50 125 -71 39 -21 92 -56 119 -77 57 -45 88 -55 122 -39 17 8 24 19 24 40 0
25 -10 36 -61 71 -69 47 -207 130 -217 130 -4 0 -31 16 -61 35 -30 19 -76 42
-103 51 -37 12 -48 20 -44 32 3 10 16 53 30 97 40 128 94 355 101 420 7 72 -8
109 -46 113 -14 2 -31 -4 -38 -12z"/>
</g>
</svg>
