<?xml version="1.0" standalone="no"?>
<!DOCTYPE svg PUBLIC "-//W3C//DTD SVG 20010904//EN"
 "http://www.w3.org/TR/2001/REC-SVG-20010904/DTD/svg10.dtd">
<svg version="1.0" xmlns="http://www.w3.org/2000/svg"
 width="248.000000pt" height="248.000000pt" viewBox="0 0 248.000000 248.000000"
 preserveAspectRatio="xMidYMid meet">
<metadata>
Created by potrace 1.10, written by Peter Selinger 2001-2011
</metadata>
<g transform="translate(0.000000,248.000000) scale(0.100000,-0.100000)"
fill="#000000" stroke="none">
<path d="M681 2376 c-7 -9 -17 -49 -21 -89 -10 -87 -46 -237 -101 -419 -41
-137 -47 -189 -26 -206 6 -5 41 -17 77 -26 58 -15 189 -82 190 -97 0 -3 -25
-33 -55 -66 -55 -61 -68 -96 -43 -121 26 -26 57 -12 125 58 37 38 74 70 82 70
7 0 36 -18 64 -40 58 -47 89 -57 123 -41 17 8 24 19 24 40 0 25 -10 36 -77 82
-43 28 -80 53 -82 55 -2 2 10 26 26 53 17 27 36 66 43 87 7 22 19 48 26 59 21
33 112 315 125 386 10 54 9 71 -2 95 -30 62 -99 32 -99 -44 0 -37 -20 -123
-52 -217 -40 -122 -141 -350 -160 -361 -5 -3 -39 13 -76 35 -38 22 -89 48
-115 57 -36 12 -46 20 -43 33 3 9 16 52 30 96 40 128 94 355 101 420 7 72 -8
109 -46 113 -14 2 -31 -4 -38 -12z"/>
</g>
</svg>
