<?xml version="1.0" standalone="no"?>
<!DOCTYPE svg PUBLIC "-//W3C//DTD SVG 20010904//EN"
 "http://www.w3.org/TR/2001/REC-SVG-20010904/DTD/svg10.dtd">
<svg version="1.0" xmlns="http://www.w3.org/2000/svg"
 width="248.000000pt" height="248.000000pt" viewBox="0 0 248.000000 248.000000"
 preserveAspectRatio="xMidYMid meet">
<metadata>
Created by potrace 1.10, written by Peter Selinger 2001-2011
</metadata>
<g transform="translate(0.000000,248.000000) scale(0.100000,-0.100000)"
fill="#000000" stroke="none">
<path d="M681 2376 c-7 -9 -17 -48 -21 -88 -10 -84 -35 -197 -47 -209 -10 -9
-162 -49 -225 -58 -25 -4 -54 -13 -63 -21 -25 -21 -15 -62 19 -79 30 -14 62
-10 181 23 28 7 51 10 53 5 2 -4 -11 -54 -27 -110 -33 -110 -38 -161 -18 -177
6 -5 41 -17 77 -26 58 -15 189 -82 190 -97 0 -3 -25 -33 -55 -66 -55 -61 -68
-96 -43 -121 26 -26 57 -12 125 58 37 38 74 70 82 70 7 0 36 -18 64 -40 58
-47 89 -57 123 -41 17 8 24 19 24 40 0 25 -10 36 -77 82 -43 28 -80 53 -82 55
-2 2 10 26 26 53 17 27 36 66 43 87 7 22 19 48 26 59 7 11 35 86 62 166 27 81
52 151 56 157 3 5 23 13 43 17 52 9 83 31 83 58 0 34 -19 47 -65 47 -37 0 -43
3 -56 33 -28 65 -99 37 -99 -39 l0 -32 -137 -32 c-76 -18 -153 -36 -172 -41
-19 -5 -36 -7 -38 -6 -1 2 4 27 12 56 22 84 28 172 13 201 -16 29 -59 38 -77
16z m364 -333 c-4 -10 -14 -38 -21 -62 -30 -95 -138 -336 -156 -347 -5 -3 -39
13 -76 35 -38 22 -89 48 -115 57 -26 9 -47 17 -47 18 0 1 13 45 30 96 16 52
30 102 30 110 1 31 19 40 131 64 63 14 126 30 140 35 13 5 39 10 58 10 28 1
32 -2 26 -16z"/>
</g>
</svg>
