<?xml version="1.0" standalone="no"?>
<!DOCTYPE svg PUBLIC "-//W3C//DTD SVG 20010904//EN"
 "http://www.w3.org/TR/2001/REC-SVG-20010904/DTD/svg10.dtd">
<svg version="1.0" xmlns="http://www.w3.org/2000/svg"
 width="248.000000pt" height="248.000000pt" viewBox="0 0 248.000000 248.000000"
 preserveAspectRatio="xMidYMid meet">
<metadata>
Created by potrace 1.10, written by Peter Selinger 2001-2011
</metadata>
<g transform="translate(0.000000,248.000000) scale(0.100000,-0.100000)"
fill="#000000" stroke="none">
<path d="M681 2376 c-7 -9 -17 -48 -21 -88 -10 -84 -35 -197 -47 -209 -10 -9
-162 -49 -225 -58 -25 -4 -54 -13 -63 -21 -25 -21 -15 -62 19 -79 30 -14 62
-10 181 23 28 7 51 10 53 5 2 -4 -11 -54 -27 -110 -33 -110 -38 -161 -18 -177
6 -5 41 -17 77 -26 58 -15 189 -82 190 -97 0 -3 -25 -33 -55 -66 -55 -61 -68
-96 -43 -121 26 -26 57 -12 125 58 37 38 74 70 82 70 7 0 36 -18 64 -40 58
-47 89 -57 123 -41 17 8 24 19 24 40 0 25 -10 36 -77 82 -43 28 -80 53 -82 55
-2 2 10 26 26 53 17 27 36 66 43 87 7 22 19 48 26 59 7 11 35 86 62 166 27 81
52 151 56 157 3 5 23 13 43 17 52 9 83 31 83 58 0 34 -19 47 -65 47 -37 0 -43
3 -56 33 -28 65 -99 37 -99 -39 l0 -32 -137 -32 c-76 -18 -153 -36 -172 -41
-19 -5 -36 -7 -38 -6 -1 2 4 27 12 56 22 84 28 172 13 201 -16 29 -59 38 -77
16z m364 -333 c-4 -10 -14 -38 -21 -62 -30 -95 -138 -336 -156 -347 -5 -3 -39
13 -76 35 -38 22 -89 48 -115 57 -26 9 -47 17 -47 18 0 1 13 45 30 96 16 52
30 102 30 110 1 31 19 40 131 64 63 14 126 30 140 35 13 5 39 10 58 10 28 1
32 -2 26 -16z"/>
<path d="M1860 2280 c-201 -32 -264 -41 -323 -50 -32 -5 -65 -14 -73 -21 -23
-19 -17 -57 12 -76 28 -18 10 -19 269 22 204 33 205 33 205 19 0 -14 -123
-240 -164 -301 -17 -25 -33 -40 -40 -36 -36 22 -125 96 -148 122 -42 49 -98
38 -98 -20 0 -30 51 -86 139 -153 l54 -41 -83 -77 c-46 -43 -116 -97 -157
-121 -121 -69 -138 -82 -141 -105 -5 -30 14 -52 45 -52 57 0 219 101 334 208
l76 71 86 -73 c89 -75 292 -186 339 -186 30 0 48 17 48 45 0 29 -21 46 -108
88 -103 50 -137 72 -224 145 l-77 64 27 42 c14 22 32 48 39 57 8 9 28 45 47
80 18 35 61 117 95 181 67 126 72 154 31 175 -32 16 -67 15 -210 -7z"/>
<path d="M1179 1634 c-8 -9 -16 -61 -20 -132 -5 -64 -12 -137 -18 -162 -15
-71 -33 -134 -40 -142 -8 -8 -279 -45 -401 -53 -102 -7 -120 -15 -120 -50 0
-60 85 -70 320 -35 74 11 141 20 149 20 23 0 6 -50 -63 -193 -82 -169 -164
-291 -293 -439 -45 -51 -50 -66 -33 -99 18 -33 58 -24 104 24 45 46 156 190
212 275 51 77 143 265 174 357 l28 80 48 7 c195 27 290 37 558 55 l89 6 -7
-49 c-21 -145 -102 -404 -169 -539 -35 -70 -139 -226 -180 -270 -24 -26 -29
-28 -37 -13 -30 50 -94 118 -117 124 -65 17 -83 -46 -29 -106 19 -22 46 -56
59 -77 37 -59 52 -67 116 -64 33 1 97 71 181 196 117 174 174 306 238 555 83
318 69 360 -113 347 -193 -14 -442 -36 -455 -41 -8 -2 -45 -7 -82 -10 l-67 -6
14 47 c41 138 57 342 29 381 -18 26 -56 29 -75 6z"/>
</g>
</svg>
