<?xml version="1.0" standalone="no"?>
<!DOCTYPE svg PUBLIC "-//W3C//DTD SVG 20010904//EN"
 "http://www.w3.org/TR/2001/REC-SVG-20010904/DTD/svg10.dtd">
<svg version="1.0" xmlns="http://www.w3.org/2000/svg"
 width="248.000000pt" height="248.000000pt" viewBox="0 0 248.000000 248.000000"
 preserveAspectRatio="xMidYMid meet">
<metadata>
Created by potrace 1.10, written by Peter Selinger 2001-2011
</metadata>
<g transform="translate(0.000000,248.000000) scale(0.100000,-0.100000)"
fill="#000000" stroke="none">
<path d="M1252 2378 c-8 -8 -12 -47 -12 -111 0 -97 -16 -236 -28 -249 -6 -6
-128 -24 -322 -48 -203 -25 -314 -42 -331 -50 -30 -17 -34 -49 -9 -82 22 -29
22 -36 18 -222 -5 -206 -18 -290 -85 -566 -77 -313 -188 -572 -295 -686 -49
-52 -26 -116 35 -100 60 15 192 238 272 461 49 139 98 322 134 510 40 204 50
308 46 473 -3 98 -1 132 8 132 7 0 44 5 82 10 39 5 122 16 185 24 261 35 625
75 770 85 375 27 401 30 426 46 32 21 32 60 -1 81 -20 13 -33 14 -72 6 -27 -6
-102 -13 -168 -16 -104 -4 -250 -17 -509 -42 l-69 -7 9 79 c14 125 10 228 -9
258 -19 28 -55 34 -75 14z"/>
<path d="M1586 1848 c-9 -12 -16 -38 -17 -58 0 -19 -8 -66 -17 -105 l-17 -70
-90 -7 c-50 -4 -133 -15 -186 -23 -53 -8 -101 -15 -106 -15 -6 0 -14 42 -17
93 -8 100 -24 137 -59 137 -41 0 -47 -17 -47 -135 l0 -111 -131 -22 c-138 -22
-169 -36 -169 -77 0 -46 21 -50 148 -31 64 9 127 20 140 23 22 5 22 4 22 -89
0 -149 22 -184 102 -160 18 6 62 13 98 16 36 4 88 11 115 16 28 5 80 12 117
15 36 4 74 12 83 19 11 8 27 56 45 134 15 68 29 124 31 126 2 2 45 9 94 15
227 29 229 29 246 50 32 40 -5 80 -68 75 -32 -2 -216 -25 -236 -29 -17 -3 -18
1 -12 33 22 115 24 157 9 179 -19 30 -58 30 -78 1z m-73 -345 c2 -5 -3 -39
-12 -78 l-16 -70 -105 -17 c-58 -9 -133 -19 -167 -23 l-63 -7 0 79 0 79 128
17 c210 28 229 30 235 20z"/>
</g>
</svg>
