<?xml version="1.0" standalone="no"?>
<!DOCTYPE svg PUBLIC "-//W3C//DTD SVG 20010904//EN"
 "http://www.w3.org/TR/2001/REC-SVG-20010904/DTD/svg10.dtd">
<svg version="1.0" xmlns="http://www.w3.org/2000/svg"
 width="248.000000pt" height="248.000000pt" viewBox="0 0 248.000000 248.000000"
 preserveAspectRatio="xMidYMid meet">
<metadata>
Created by potrace 1.10, written by Peter Selinger 2001-2011
</metadata>
<g transform="translate(0.000000,248.000000) scale(0.100000,-0.100000)"
fill="#000000" stroke="none">
<path d="M1252 2378 c-8 -8 -12 -47 -12 -111 0 -97 -16 -236 -28 -249 -6 -6
-128 -24 -322 -48 -203 -25 -314 -42 -331 -50 -30 -17 -34 -49 -9 -82 22 -29
22 -36 18 -222 -5 -206 -18 -290 -85 -566 -77 -313 -188 -572 -295 -686 -49
-52 -26 -116 35 -100 60 15 192 238 272 461 49 139 98 322 134 510 40 204 50
308 46 473 -3 98 -1 132 8 132 7 0 44 5 82 10 39 5 122 16 185 24 261 35 625
75 770 85 375 27 401 30 426 46 32 21 32 60 -1 81 -20 13 -33 14 -72 6 -27 -6
-102 -13 -168 -16 -104 -4 -250 -17 -509 -42 l-69 -7 9 79 c14 125 10 228 -9
258 -19 28 -55 34 -75 14z"/>
</g>
</svg>
