<?xml version="1.0" standalone="no"?>
<!DOCTYPE svg PUBLIC "-//W3C//DTD SVG 20010904//EN"
 "http://www.w3.org/TR/2001/REC-SVG-20010904/DTD/svg10.dtd">
<svg version="1.0" xmlns="http://www.w3.org/2000/svg"
 width="248.000000pt" height="248.000000pt" viewBox="0 0 248.000000 248.000000"
 preserveAspectRatio="xMidYMid meet">
<metadata>
Created by potrace 1.10, written by Peter Selinger 2001-2011
</metadata>
<g transform="translate(0.000000,248.000000) scale(0.100000,-0.100000)"
fill="#000000" stroke="none">
<path d="M1252 2378 c-8 -8 -12 -47 -12 -111 0 -97 -16 -236 -28 -249 -6 -6
-128 -24 -322 -48 -203 -25 -314 -42 -331 -50 -30 -17 -34 -49 -9 -82 22 -29
22 -36 18 -222 -5 -206 -18 -290 -85 -566 -77 -313 -188 -572 -295 -686 -49
-52 -26 -116 35 -100 60 15 192 238 272 461 49 139 98 322 134 510 40 204 50
308 46 473 -3 98 -1 132 8 132 7 0 44 5 82 10 39 5 122 16 185 24 261 35 625
75 770 85 375 27 401 30 426 46 32 21 32 60 -1 81 -20 13 -33 14 -72 6 -27 -6
-102 -13 -168 -16 -104 -4 -250 -17 -509 -42 l-69 -7 9 79 c14 125 10 228 -9
258 -19 28 -55 34 -75 14z"/>
<path d="M1586 1848 c-9 -12 -16 -38 -17 -58 0 -19 -8 -66 -17 -105 l-17 -70
-90 -7 c-50 -4 -133 -15 -186 -23 -53 -8 -101 -15 -106 -15 -6 0 -14 42 -17
93 -8 100 -24 137 -59 137 -41 0 -47 -17 -47 -135 l0 -111 -131 -22 c-138 -22
-169 -36 -169 -77 0 -46 21 -50 148 -31 64 9 127 20 140 23 22 5 22 4 22 -89
0 -52 5 -109 11 -127 12 -33 45 -49 76 -36 18 7 155 27 318 45 119 14 133 20
140 67 12 77 38 202 44 211 3 6 47 15 96 21 228 29 229 29 246 50 32 40 -5 80
-68 75 -32 -2 -216 -25 -236 -29 -17 -3 -18 1 -12 33 22 115 24 157 9 179 -19
30 -58 30 -78 1z m-73 -345 c2 -5 -3 -39 -12 -78 l-16 -70 -105 -17 c-58 -9
-133 -19 -167 -23 l-63 -7 0 79 0 79 128 17 c210 28 229 30 235 20z"/>
<path d="M1480 1075 c-30 -7 -69 -14 -87 -14 -17 -1 -77 -10 -133 -21 -56 -11
-127 -20 -158 -20 -75 0 -107 -17 -107 -55 0 -61 71 -66 293 -25 57 11 121 20
142 20 l39 0 -21 -47 c-20 -47 -126 -223 -134 -223 -3 0 -95 63 -209 145 -53
38 -90 43 -109 13 -22 -36 5 -69 124 -150 63 -42 119 -84 124 -92 14 -20 -115
-159 -202 -219 -67 -45 -165 -86 -245 -101 -23 -4 -43 -16 -53 -31 -15 -23
-15 -27 0 -50 10 -15 26 -25 39 -25 32 0 194 48 237 70 73 38 174 120 247 201
41 46 79 85 83 87 4 2 50 -26 101 -61 103 -70 263 -164 375 -220 112 -56 388
-142 434 -135 34 5 52 37 37 67 -10 20 -31 29 -117 52 -199 52 -306 98 -514
224 -168 101 -255 158 -255 170 0 6 20 41 45 80 58 89 154 289 154 320 0 25
-34 56 -60 54 -8 -1 -40 -7 -70 -14z"/>
</g>
</svg>
