<?xml version="1.0" standalone="no"?>
<!DOCTYPE svg PUBLIC "-//W3C//DTD SVG 20010904//EN"
 "http://www.w3.org/TR/2001/REC-SVG-20010904/DTD/svg10.dtd">
<svg version="1.0" xmlns="http://www.w3.org/2000/svg"
 width="248.000000pt" height="248.000000pt" viewBox="0 0 248.000000 248.000000"
 preserveAspectRatio="xMidYMid meet">
<metadata>
Created by potrace 1.10, written by Peter Selinger 2001-2011
</metadata>
<g transform="translate(0.000000,248.000000) scale(0.100000,-0.100000)"
fill="#000000" stroke="none">
<path d="M362 2158 c-17 -17 -15 -58 3 -78 16 -18 129 -242 139 -277 6 -17 -6
-40 -50 -100 -82 -112 -234 -273 -309 -328 -69 -50 -83 -72 -65 -105 12 -23
49 -26 83 -8 73 38 260 225 352 349 l44 60 24 -78 c13 -43 32 -117 42 -165 17
-82 17 -89 2 -106 -9 -10 -30 -45 -47 -78 -46 -91 -258 -349 -340 -414 -21
-17 -42 -40 -45 -51 -9 -26 20 -69 45 -69 39 0 206 171 347 356 l72 94 7 -38
c4 -20 2 -125 -4 -232 -8 -153 -17 -226 -42 -335 -36 -163 -68 -275 -78 -275
-4 0 -17 16 -30 35 -17 26 -29 35 -50 35 -62 0 -67 -42 -15 -120 45 -68 60
-79 99 -80 68 0 109 85 168 351 40 182 43 201 56 389 17 247 -22 539 -103 778
l-33 99 57 79 c67 91 139 232 139 273 0 33 -16 51 -45 51 -29 0 -45 -21 -80
-100 -27 -61 -95 -173 -113 -184 -5 -3 -32 44 -60 104 -74 156 -128 210 -170
168z"/>
<path d="M1496 2138 c-14 -19 -16 -64 -16 -285 0 -152 -4 -263 -9 -263 -13 0
-231 -28 -313 -40 -37 -6 -86 -10 -109 -10 -33 0 -50 -6 -71 -27 -30 -28 -34
-55 -19 -113 6 -19 15 -105 21 -190 6 -85 17 -166 23 -180 12 -24 15 -25 102
-22 50 2 137 10 194 18 58 8 122 14 144 14 l40 0 -7 -92 c-3 -51 -9 -186 -13
-301 l-6 -207 -36 -9 c-20 -5 -99 -26 -176 -47 -318 -83 -308 -80 -303 -123 2
-17 13 -31 31 -39 25 -12 39 -10 120 13 146 43 304 83 412 105 55 11 141 31
190 45 50 13 158 40 240 61 83 20 158 43 168 52 20 17 22 53 5 70 -22 22 -36
19 -403 -74 -55 -14 -108 -28 -117 -30 -17 -5 -18 6 -18 138 1 212 16 429 32
439 7 5 33 9 58 9 25 0 100 5 168 12 120 11 123 11 143 -10 43 -47 90 -11 109
83 6 33 22 105 36 160 13 55 28 132 33 170 6 39 13 84 17 102 5 26 1 36 -19
57 -23 23 -34 26 -94 26 -65 0 -332 -23 -420 -36 l-43 -6 0 254 c0 276 -4 298
-55 298 -13 0 -31 -10 -39 -22z m549 -659 c-4 -33 -19 -113 -35 -177 l-27
-117 -99 -11 c-54 -6 -143 -14 -196 -18 l-98 -6 0 174 0 174 33 8 c53 12 256
31 345 33 l84 1 -7 -61z m-565 -159 c0 -155 -2 -170 -17 -171 -10 0 -31 -2
-48 -4 -16 -2 -66 -9 -110 -14 -44 -6 -109 -11 -145 -12 l-65 -3 -11 135 c-6
74 -15 145 -18 157 -4 12 -6 22 -4 23 2 0 93 13 203 29 110 15 203 28 208 29
4 0 7 -75 7 -169z"/>
</g>
</svg>
