<?xml version="1.0" standalone="no"?>
<!DOCTYPE svg PUBLIC "-//W3C//DTD SVG 20010904//EN"
 "http://www.w3.org/TR/2001/REC-SVG-20010904/DTD/svg10.dtd">
<svg version="1.0" xmlns="http://www.w3.org/2000/svg"
 width="248.000000pt" height="248.000000pt" viewBox="0 0 248.000000 248.000000"
 preserveAspectRatio="xMidYMid meet">
<metadata>
Created by potrace 1.10, written by Peter Selinger 2001-2011
</metadata>
<g transform="translate(0.000000,248.000000) scale(0.100000,-0.100000)"
fill="#000000" stroke="none">
<path d="M362 2158 c-17 -17 -15 -58 3 -78 16 -18 129 -242 139 -277 6 -17 -6
-40 -50 -100 -82 -112 -234 -273 -309 -328 -69 -50 -83 -72 -65 -105 12 -23
49 -26 83 -8 73 38 260 225 352 349 l44 60 24 -78 c13 -43 32 -117 42 -165 17
-82 17 -89 2 -106 -9 -10 -30 -45 -47 -78 -46 -91 -258 -349 -340 -414 -21
-17 -42 -40 -45 -51 -9 -26 20 -69 45 -69 39 0 206 171 347 356 l72 94 7 -38
c4 -20 2 -125 -4 -232 -8 -153 -17 -226 -42 -335 -36 -163 -68 -275 -78 -275
-4 0 -17 16 -30 35 -17 26 -29 35 -50 35 -62 0 -67 -42 -15 -120 45 -68 60
-79 99 -80 68 0 109 85 168 351 40 182 43 201 56 389 17 247 -22 539 -103 778
l-33 99 57 79 c67 91 139 232 139 273 0 33 -16 51 -45 51 -29 0 -45 -21 -80
-100 -27 -61 -95 -173 -113 -184 -5 -3 -32 44 -60 104 -74 156 -128 210 -170
168z"/>
<path d="M962 1498 c-14 -14 -15 -50 -3 -98 6 -19 15 -105 21 -190 13 -177 22
-205 65 -205 50 0 55 25 40 220 -14 177 -26 238 -53 268 -17 20 -53 22 -70 5z"/>
</g>
</svg>
