<?xml version="1.0" standalone="no"?>
<!DOCTYPE svg PUBLIC "-//W3C//DTD SVG 20010904//EN"
 "http://www.w3.org/TR/2001/REC-SVG-20010904/DTD/svg10.dtd">
<svg version="1.0" xmlns="http://www.w3.org/2000/svg"
 width="248.000000pt" height="248.000000pt" viewBox="0 0 248.000000 248.000000"
 preserveAspectRatio="xMidYMid meet">
<metadata>
Created by potrace 1.10, written by Peter Selinger 2001-2011
</metadata>
<g transform="translate(0.000000,248.000000) scale(0.100000,-0.100000)"
fill="#000000" stroke="none">
<path d="M362 2158 c-17 -17 -15 -58 3 -78 16 -18 129 -242 139 -277 6 -17 -6
-40 -50 -100 -82 -112 -234 -273 -309 -328 -69 -50 -83 -72 -65 -105 12 -23
49 -26 83 -8 73 38 260 225 352 349 l44 60 24 -78 c13 -43 32 -117 42 -165 17
-82 17 -89 2 -106 -9 -10 -30 -45 -47 -78 -46 -91 -258 -349 -340 -414 -21
-17 -42 -40 -45 -51 -9 -26 20 -69 45 -69 39 0 206 171 347 356 l72 94 7 -38
c4 -20 2 -125 -4 -232 -8 -153 -17 -226 -42 -335 -36 -163 -68 -275 -78 -275
-4 0 -17 16 -30 35 -17 26 -29 35 -50 35 -62 0 -67 -42 -15 -120 45 -68 60
-79 99 -80 68 0 109 85 168 351 40 182 43 201 56 389 17 247 -22 539 -103 778
l-33 99 57 79 c67 91 139 232 139 273 0 33 -16 51 -45 51 -29 0 -45 -21 -80
-100 -27 -61 -95 -173 -113 -184 -5 -3 -32 44 -60 104 -74 156 -128 210 -170
168z"/>
<path d="M1810 1634 c-74 -7 -160 -17 -190 -23 -30 -6 -134 -20 -230 -31 -96
-11 -202 -25 -236 -30 -33 -6 -81 -10 -105 -10 -37 0 -50 -5 -73 -29 -24 -25
-27 -35 -22 -68 3 -21 10 -85 16 -143 6 -58 14 -143 19 -189 5 -47 15 -89 23
-97 11 -12 36 -12 148 -3 74 6 138 13 142 16 5 2 95 9 201 13 106 5 249 15
320 21 125 12 128 12 148 -9 43 -47 90 -11 109 83 6 33 22 105 36 160 13 55
28 132 33 170 6 39 13 84 17 102 5 26 1 36 -19 57 -24 24 -32 26 -114 25 -48
-1 -149 -7 -223 -15z m235 -155 c-4 -33 -19 -113 -35 -177 l-27 -117 -54 -7
c-85 -11 -316 -27 -414 -29 -49 -1 -132 -8 -184 -15 -52 -7 -126 -14 -165 -15
l-71 -2 -11 134 c-6 74 -14 145 -18 157 -9 27 -17 25 244 57 113 14 237 30
275 36 117 19 295 36 383 38 l84 1 -7 -61z"/>
</g>
</svg>
