<?xml version="1.0" standalone="no"?>
<!DOCTYPE svg PUBLIC "-//W3C//DTD SVG 20010904//EN"
 "http://www.w3.org/TR/2001/REC-SVG-20010904/DTD/svg10.dtd">
<svg version="1.0" xmlns="http://www.w3.org/2000/svg"
 width="248.000000pt" height="248.000000pt" viewBox="0 0 248.000000 248.000000"
 preserveAspectRatio="xMidYMid meet">
<metadata>
Created by potrace 1.10, written by Peter Selinger 2001-2011
</metadata>
<g transform="translate(0.000000,248.000000) scale(0.100000,-0.100000)"
fill="#000000" stroke="none">
<path d="M1835 2209 c-33 -4 -127 -15 -208 -23 -82 -9 -179 -21 -215 -27 -37
-5 -112 -14 -167 -20 -200 -19 -220 -21 -245 -33 -36 -16 -39 -60 -6 -81 27
-18 60 -16 386 26 267 34 422 51 519 56 l93 6 -6 -29 c-3 -16 -10 -71 -16
-123 -5 -51 -11 -95 -13 -98 -3 -2 -76 -13 -163 -23 -88 -11 -202 -27 -254
-35 -109 -17 -384 -45 -450 -45 -64 0 -95 -18 -95 -55 0 -21 7 -33 27 -44 24
-14 46 -13 210 3 101 10 212 22 248 27 36 5 135 18 220 29 300 39 337 46 350
70 5 10 18 94 30 188 22 187 19 215 -25 232 -30 12 -133 11 -220 -1z"/>
<path d="M292 2108 c-32 -32 -18 -51 185 -248 45 -44 71 -50 96 -22 32 35 20
55 -100 169 -119 114 -150 132 -181 101z"/>
<path d="M130 1556 c-24 -30 -6 -59 90 -138 134 -111 165 -131 189 -123 26 8
44 40 36 65 -3 10 -27 35 -53 54 -26 19 -81 62 -122 95 -77 62 -116 75 -140
47z"/>
<path d="M405 664 c-36 -37 -225 -441 -225 -482 0 -34 16 -52 45 -52 30 0 44
20 95 135 24 55 70 153 102 217 62 125 71 170 39 188 -27 14 -37 13 -56 -6z"/>
</g>
</svg>
