<?xml version="1.0" standalone="no"?>
<!DOCTYPE svg PUBLIC "-//W3C//DTD SVG 20010904//EN"
 "http://www.w3.org/TR/2001/REC-SVG-20010904/DTD/svg10.dtd">
<svg version="1.0" xmlns="http://www.w3.org/2000/svg"
 width="248.000000pt" height="248.000000pt" viewBox="0 0 248.000000 248.000000"
 preserveAspectRatio="xMidYMid meet">
<metadata>
Created by potrace 1.10, written by Peter Selinger 2001-2011
</metadata>
<g transform="translate(0.000000,248.000000) scale(0.100000,-0.100000)"
fill="#000000" stroke="none">
<path d="M292 2108 c-32 -32 -18 -51 185 -248 45 -44 71 -50 96 -22 32 35 20
55 -100 169 -119 114 -150 132 -181 101z"/>
<path d="M130 1556 c-24 -30 -6 -59 90 -138 134 -111 165 -131 189 -123 26 8
44 40 36 65 -3 10 -27 35 -53 54 -26 19 -81 62 -122 95 -77 62 -116 75 -140
47z"/>
<path d="M405 664 c-36 -37 -225 -441 -225 -482 0 -34 16 -52 45 -52 30 0 44
20 95 135 24 55 70 153 102 217 62 125 71 170 39 188 -27 14 -37 13 -56 -6z"/>
</g>
</svg>
