<?xml version="1.0" standalone="no"?>
<!DOCTYPE svg PUBLIC "-//W3C//DTD SVG 20010904//EN"
 "http://www.w3.org/TR/2001/REC-SVG-20010904/DTD/svg10.dtd">
<svg version="1.0" xmlns="http://www.w3.org/2000/svg"
 width="248.000000pt" height="248.000000pt" viewBox="0 0 248.000000 248.000000"
 preserveAspectRatio="xMidYMid meet">
<metadata>
Created by potrace 1.10, written by Peter Selinger 2001-2011
</metadata>
<g transform="translate(0.000000,248.000000) scale(0.100000,-0.100000)"
fill="#000000" stroke="none">
<path d="M1840 2210 c-30 -4 -104 -13 -165 -19 -60 -6 -177 -20 -260 -31 -82
-10 -202 -24 -265 -30 -137 -14 -195 -27 -212 -48 -10 -11 -13 -73 -13 -241
-1 -313 -46 -704 -110 -951 -8 -32 -15 -67 -15 -77 0 -39 -110 -351 -165 -467
-69 -145 -74 -186 -25 -199 35 -9 59 24 124 168 122 270 177 467 241 855 22
139 45 322 45 365 0 22 3 57 6 78 6 35 9 37 43 37 47 0 399 37 476 50 33 5
114 16 180 25 341 42 342 42 343 128 1 25 8 102 17 171 17 139 12 170 -30 186
-30 11 -133 11 -215 0z m146 -127 c-3 -16 -10 -70 -16 -122 -5 -51 -11 -95
-13 -98 -3 -2 -76 -13 -163 -23 -88 -11 -202 -27 -254 -35 -111 -18 -385 -45
-451 -45 l-46 0 -6 83 c-4 45 -7 101 -7 123 0 49 -5 47 180 64 63 6 158 17
210 25 52 8 167 22 255 31 88 9 162 18 164 20 2 2 38 4 78 4 l75 0 -6 -27z"/>
<path d="M292 2108 c-32 -32 -18 -51 185 -248 45 -44 71 -50 96 -22 32 35 20
55 -100 169 -119 114 -150 132 -181 101z"/>
<path d="M130 1556 c-24 -30 -6 -59 90 -138 134 -111 165 -131 189 -123 26 8
44 40 36 65 -3 10 -27 35 -53 54 -26 19 -81 62 -122 95 -77 62 -116 75 -140
47z"/>
<path d="M1186 1508 c-11 -19 -15 -116 -19 -517 -4 -320 -2 -514 5 -552 8 -48
18 -68 53 -107 60 -66 124 -98 244 -122 135 -26 266 -25 465 4 168 25 204 40
217 87 4 13 7 80 8 149 1 137 -9 170 -53 170 -42 0 -50 -24 -56 -159 l-5 -126
-90 -13 c-158 -22 -390 -27 -478 -8 -92 19 -121 33 -167 81 l-35 36 -3 127
c-2 70 -1 178 3 240 6 103 9 114 29 122 35 13 369 161 396 175 14 7 55 28 93
46 132 65 189 125 157 165 -20 23 -59 16 -114 -20 -61 -40 -187 -102 -396
-194 l-155 -69 -5 237 c-5 253 -9 270 -56 270 -14 0 -30 -10 -38 -22z"/>
<path d="M405 664 c-36 -37 -225 -441 -225 -482 0 -34 16 -52 45 -52 30 0 44
20 95 135 24 55 70 153 102 217 62 125 71 170 39 188 -27 14 -37 13 -56 -6z"/>
</g>
</svg>
