<?xml version="1.0" standalone="no"?>
<!DOCTYPE svg PUBLIC "-//W3C//DTD SVG 20010904//EN"
 "http://www.w3.org/TR/2001/REC-SVG-20010904/DTD/svg10.dtd">
<svg version="1.0" xmlns="http://www.w3.org/2000/svg"
 width="248.000000pt" height="248.000000pt" viewBox="0 0 248.000000 248.000000"
 preserveAspectRatio="xMidYMid meet">
<metadata>
Created by potrace 1.10, written by Peter Selinger 2001-2011
</metadata>
<g transform="translate(0.000000,248.000000) scale(0.100000,-0.100000)"
fill="#000000" stroke="none">
<path d="M702 2217 c-6 -7 -20 -37 -31 -67 -34 -89 -128 -264 -202 -376 -19
-28 -46 -71 -61 -95 -57 -93 -310 -474 -334 -502 -29 -35 -30 -58 -4 -82 42
-38 84 2 215 205 26 41 85 131 130 200 172 263 193 297 220 350 15 30 38 69
50 85 13 17 26 41 30 55 4 14 23 55 41 92 19 37 34 76 34 86 0 47 -61 82 -88
49z"/>
</g>
</svg>
