<?xml version="1.0" standalone="no"?>
<!DOCTYPE svg PUBLIC "-//W3C//DTD SVG 20010904//EN"
 "http://www.w3.org/TR/2001/REC-SVG-20010904/DTD/svg10.dtd">
<svg version="1.0" xmlns="http://www.w3.org/2000/svg"
 width="248.000000pt" height="248.000000pt" viewBox="0 0 248.000000 248.000000"
 preserveAspectRatio="xMidYMid meet">
<metadata>
Created by potrace 1.10, written by Peter Selinger 2001-2011
</metadata>
<g transform="translate(0.000000,248.000000) scale(0.100000,-0.100000)"
fill="#000000" stroke="none">
<path d="M702 2217 c-6 -7 -20 -37 -31 -67 -34 -89 -128 -264 -202 -376 -19
-28 -46 -71 -61 -95 -57 -93 -310 -474 -334 -502 -29 -35 -30 -58 -4 -82 42
-38 84 2 215 205 26 41 85 131 130 200 172 263 193 297 220 350 15 30 38 69
51 85 12 17 26 42 29 58 4 15 10 27 14 27 3 0 20 -20 36 -44 114 -168 322
-413 407 -478 66 -52 101 -60 118 -27 18 33 3 65 -46 101 -76 54 -362 400
-431 521 -13 21 -23 51 -23 66 0 55 -59 94 -88 58z"/>
<path d="M815 1604 c-33 -8 -121 -28 -195 -45 -158 -37 -183 -49 -178 -87 5
-46 42 -55 126 -32 109 30 102 36 102 -89 l0 -109 -97 -22 c-54 -12 -114 -26
-133 -31 -19 -5 -49 -9 -65 -9 -73 0 -102 -70 -41 -99 26 -12 43 -11 155 14
69 15 138 30 154 32 l27 5 0 -394 c0 -426 1 -438 54 -438 49 0 56 24 56 188
l0 152 23 -9 c43 -16 85 17 150 119 100 158 114 240 42 240 -28 0 -41 -16 -90
-114 -22 -43 -59 -99 -82 -125 l-42 -46 -1 231 0 231 103 23 c127 29 146 37
154 68 14 59 -24 68 -157 39 -41 -9 -81 -17 -87 -17 -10 0 -13 27 -13 104 l0
104 48 10 c26 6 65 14 87 17 22 4 48 14 58 22 20 19 22 54 5 71 -16 16 -88 14
-163 -4z"/>
<path d="M370 775 c-30 -36 5 -112 95 -208 36 -38 51 -48 72 -45 63 7 56 58
-22 148 -30 35 -55 69 -55 75 0 18 -34 45 -57 45 -11 0 -26 -7 -33 -15z"/>
</g>
</svg>
