<?xml version="1.0" standalone="no"?>
<!DOCTYPE svg PUBLIC "-//W3C//DTD SVG 20010904//EN"
 "http://www.w3.org/TR/2001/REC-SVG-20010904/DTD/svg10.dtd">
<svg version="1.0" xmlns="http://www.w3.org/2000/svg"
 width="248.000000pt" height="248.000000pt" viewBox="0 0 248.000000 248.000000"
 preserveAspectRatio="xMidYMid meet">
<metadata>
Created by potrace 1.10, written by Peter Selinger 2001-2011
</metadata>
<g transform="translate(0.000000,248.000000) scale(0.100000,-0.100000)"
fill="#000000" stroke="none">
<path d="M1948 2390 c-9 -6 -37 -43 -64 -82 -26 -40 -105 -131 -175 -202 -128
-128 -145 -156 -117 -184 9 -9 9 -12 0 -12 -37 0 -431 -55 -505 -70 -97 -20
-117 -31 -117 -65 0 -41 23 -50 103 -37 40 6 155 23 257 36 102 14 246 35 320
46 200 29 350 41 484 38 106 -2 120 0 132 17 17 24 18 36 1 60 -13 16 -30 18
-213 16 -109 -1 -230 -6 -269 -11 -114 -15 -113 -16 -28 64 98 93 273 312 273
341 0 33 -52 62 -82 45z"/>
<path d="M1202 2258 c-22 -22 -13 -47 56 -163 37 -62 75 -127 84 -144 29 -53
88 -37 88 23 0 30 -111 228 -153 274 -22 24 -56 29 -75 10z"/>
</g>
</svg>
