<?xml version="1.0" standalone="no"?>
<!DOCTYPE svg PUBLIC "-//W3C//DTD SVG 20010904//EN"
 "http://www.w3.org/TR/2001/REC-SVG-20010904/DTD/svg10.dtd">
<svg version="1.0" xmlns="http://www.w3.org/2000/svg"
 width="248.000000pt" height="248.000000pt" viewBox="0 0 248.000000 248.000000"
 preserveAspectRatio="xMidYMid meet">
<metadata>
Created by potrace 1.10, written by Peter Selinger 2001-2011
</metadata>
<g transform="translate(0.000000,248.000000) scale(0.100000,-0.100000)"
fill="#000000" stroke="none">
<path d="M1734 2350 c-20 -8 -42 -62 -95 -226 l-19 -61 -88 -7 c-132 -9 -578
-30 -652 -31 l-65 0 -6 65 c-4 36 -9 96 -13 134 -7 76 -17 96 -51 96 -43 0
-49 -20 -41 -160 3 -72 7 -136 9 -142 1 -9 -33 -16 -115 -24 -212 -22 -278
-43 -278 -88 0 -46 20 -50 138 -32 59 9 144 19 188 23 l82 6 6 -49 c3 -27 9
-71 12 -99 7 -58 18 -75 49 -75 42 0 48 22 42 135 l-6 105 25 0 c14 0 89 4
167 10 188 13 551 30 555 25 2 -2 -8 -35 -22 -75 -38 -104 -32 -140 21 -140
30 0 54 39 83 133 12 40 27 78 32 85 8 9 66 12 227 12 236 0 261 5 261 55 0
41 -34 54 -112 44 -36 -5 -126 -8 -200 -7 l-133 3 3 27 c1 16 18 68 37 118 19
49 35 94 35 100 0 12 -37 50 -47 49 -5 0 -17 -4 -29 -9z"/>
<path d="M1330 1549 c-85 -3 -218 -13 -295 -22 -77 -9 -214 -23 -305 -32 -91
-10 -173 -21 -183 -27 -10 -5 -22 -21 -28 -36 -8 -20 -6 -31 9 -51 19 -26 51
-198 55 -291 l2 -45 -40 -7 c-22 -3 -80 -13 -128 -21 -65 -11 -94 -21 -112
-37 -43 -40 -24 -99 27 -87 13 3 41 10 63 16 272 68 1030 121 1524 107 248 -7
261 -5 261 39 0 44 -19 49 -233 53 -111 2 -207 5 -214 7 -12 4 15 94 88 285
33 88 38 125 21 142 -12 12 -285 16 -512 7z m394 -97 c3 -5 -11 -51 -30 -103
-19 -52 -44 -121 -55 -154 -12 -33 -25 -65 -30 -71 -6 -7 -98 -14 -267 -18
-141 -4 -342 -16 -446 -27 -104 -11 -192 -17 -196 -12 -10 11 -58 313 -51 318
3 1 80 10 171 19 91 9 230 23 310 31 184 19 218 21 422 23 92 1 169 -2 172 -6z"/>
</g>
</svg>
