<?xml version="1.0" standalone="no"?>
<!DOCTYPE svg PUBLIC "-//W3C//DTD SVG 20010904//EN"
 "http://www.w3.org/TR/2001/REC-SVG-20010904/DTD/svg10.dtd">
<svg version="1.0" xmlns="http://www.w3.org/2000/svg"
 width="248.000000pt" height="248.000000pt" viewBox="0 0 248.000000 248.000000"
 preserveAspectRatio="xMidYMid meet">
<metadata>
Created by potrace 1.10, written by Peter Selinger 2001-2011
</metadata>
<g transform="translate(0.000000,248.000000) scale(0.100000,-0.100000)"
fill="#000000" stroke="none">
<path d="M1734 2350 c-20 -8 -42 -62 -95 -226 l-19 -61 -88 -7 c-132 -9 -578
-30 -652 -31 l-65 0 -6 65 c-4 36 -9 96 -13 134 -7 76 -17 96 -51 96 -43 0
-49 -20 -41 -160 3 -72 7 -136 9 -142 1 -9 -33 -16 -115 -24 -212 -22 -278
-43 -278 -88 0 -46 20 -50 138 -32 59 9 144 19 188 23 l82 6 6 -49 c3 -27 9
-71 12 -99 7 -58 18 -75 49 -75 42 0 48 22 42 135 l-6 105 25 0 c14 0 89 4
167 10 188 13 551 30 555 25 2 -2 -8 -35 -22 -75 -38 -104 -32 -140 21 -140
30 0 54 39 83 133 12 40 27 78 32 85 8 9 66 12 227 12 236 0 261 5 261 55 0
41 -34 54 -112 44 -36 -5 -126 -8 -200 -7 l-133 3 3 27 c1 16 18 68 37 118 19
49 35 94 35 100 0 12 -37 50 -47 49 -5 0 -17 -4 -29 -9z"/>
<path d="M1130 1806 c-6 -9 -15 -68 -19 -140 -4 -69 -9 -128 -12 -130 -2 -3
-51 -9 -109 -15 -345 -34 -427 -44 -443 -53 -10 -5 -22 -21 -28 -36 -8 -20 -6
-31 9 -51 19 -26 51 -198 55 -291 l2 -45 -40 -7 c-22 -3 -80 -13 -128 -21 -65
-11 -94 -21 -112 -37 -43 -40 -24 -99 27 -87 13 3 41 10 63 15 63 16 159 32
248 43 157 19 352 38 355 34 6 -5 -78 -196 -105 -239 -15 -23 -64 -89 -110
-148 -79 -100 -158 -173 -263 -245 -52 -35 -198 -93 -234 -93 -27 0 -56 -24
-56 -46 0 -24 38 -54 69 -54 40 0 162 44 236 85 93 52 218 157 287 241 148
180 197 261 254 419 l32 90 83 8 c46 4 282 9 525 10 242 2 445 7 452 11 17 10
15 51 -4 67 -11 9 -70 14 -217 17 -111 2 -207 5 -214 7 -12 4 15 94 88 285 33
88 38 125 21 142 -7 7 -113 10 -312 9 -166 -1 -306 -2 -313 -4 -9 -1 -11 29
-8 120 4 132 -2 153 -44 153 -12 0 -28 -6 -35 -14z m594 -354 c3 -5 -11 -51
-30 -103 -19 -52 -44 -121 -55 -154 -11 -33 -26 -65 -32 -71 -11 -10 -467 -31
-467 -22 0 2 11 53 25 113 14 61 25 130 25 155 0 69 7 74 107 81 143 9 421 10
427 1z m-637 -94 c-8 -85 -44 -238 -61 -255 -13 -14 -316 -48 -326 -36 -10 11
-58 313 -51 318 4 2 80 10 171 19 91 9 179 18 195 19 84 10 79 15 72 -65z"/>
</g>
</svg>
