<?xml version="1.0" standalone="no"?>
<!DOCTYPE svg PUBLIC "-//W3C//DTD SVG 20010904//EN"
 "http://www.w3.org/TR/2001/REC-SVG-20010904/DTD/svg10.dtd">
<svg version="1.0" xmlns="http://www.w3.org/2000/svg"
 width="248.000000pt" height="248.000000pt" viewBox="0 0 248.000000 248.000000"
 preserveAspectRatio="xMidYMid meet">
<metadata>
Created by potrace 1.10, written by Peter Selinger 2001-2011
</metadata>
<g transform="translate(0.000000,248.000000) scale(0.100000,-0.100000)"
fill="#000000" stroke="none">
<path d="M992 2358 c-17 -17 -15 -53 3 -68 19 -16 60 -39 149 -85 38 -20 93
-52 121 -71 76 -50 125 -43 125 18 0 31 -30 53 -217 156 -110 61 -157 74 -181
50z"/>
<path d="M1231 1939 c-33 -13 -307 -87 -411 -111 -94 -21 -110 -30 -110 -63 0
-31 26 -50 69 -49 28 1 326 75 444 110 16 5 17 -35 17 -753 l0 -758 -73 79
c-65 71 -75 79 -100 72 -36 -9 -45 -47 -21 -84 10 -15 44 -57 76 -95 32 -37
67 -85 78 -107 25 -48 59 -73 97 -68 53 6 53 4 53 636 0 514 2 582 15 582 21
0 88 44 160 105 33 28 87 70 120 95 89 66 238 195 263 229 36 50 25 101 -22
101 -12 0 -57 -34 -106 -81 -47 -44 -125 -111 -175 -149 -49 -38 -124 -96
-165 -130 -41 -33 -78 -60 -82 -60 -5 0 -8 102 -8 228 0 258 -4 276 -60 279
-19 1 -46 -2 -59 -8z"/>
<path d="M840 1305 c-102 -24 -326 -70 -400 -80 -64 -10 -92 -30 -88 -63 4
-39 40 -53 108 -41 83 15 256 48 338 66 40 8 76 13 79 10 3 -3 -7 -28 -23 -54
-15 -26 -42 -75 -59 -108 -37 -74 -167 -266 -243 -361 -58 -72 -164 -174 -182
-174 -5 0 -17 -11 -26 -25 -14 -21 -15 -31 -6 -50 23 -51 91 -25 198 75 84 78
299 376 353 490 12 25 40 77 62 115 68 117 84 179 53 209 -20 21 -48 19 -164
-9z"/>
</g>
</svg>
