<?xml version="1.0" standalone="no"?>
<!DOCTYPE svg PUBLIC "-//W3C//DTD SVG 20010904//EN"
 "http://www.w3.org/TR/2001/REC-SVG-20010904/DTD/svg10.dtd">
<svg version="1.0" xmlns="http://www.w3.org/2000/svg"
 width="248.000000pt" height="248.000000pt" viewBox="0 0 248.000000 248.000000"
 preserveAspectRatio="xMidYMid meet">
<metadata>
Created by potrace 1.10, written by Peter Selinger 2001-2011
</metadata>
<g transform="translate(0.000000,248.000000) scale(0.100000,-0.100000)"
fill="#000000" stroke="none">
<path d="M730 2295 c-241 -20 -342 -43 -357 -81 -3 -9 -1 -37 6 -63 12 -49 20
-106 51 -379 10 -96 25 -180 31 -188 16 -19 59 -14 72 8 8 11 8 57 0 150 -6
73 -10 134 -8 136 2 2 63 10 136 18 74 7 170 18 214 24 44 5 127 13 184 16
l104 7 -7 -34 c-7 -31 -18 -94 -33 -191 -7 -44 8 -68 43 -68 46 0 63 53 99
315 17 126 23 159 42 217 19 63 14 99 -17 115 -33 17 -348 15 -560 -2z m465
-87 c10 -9 -14 -133 -29 -152 -8 -12 -38 -17 -111 -21 -55 -3 -140 -10 -190
-16 -49 -5 -148 -16 -220 -24 -71 -8 -133 -11 -137 -7 -3 4 -8 45 -10 92 l-3
84 70 12 c39 7 153 18 255 24 102 6 192 12 200 13 37 5 169 1 175 -5z"/>
</g>
</svg>
