<?xml version="1.0" standalone="no"?>
<!DOCTYPE svg PUBLIC "-//W3C//DTD SVG 20010904//EN"
 "http://www.w3.org/TR/2001/REC-SVG-20010904/DTD/svg10.dtd">
<svg version="1.0" xmlns="http://www.w3.org/2000/svg"
 width="248.000000pt" height="248.000000pt" viewBox="0 0 248.000000 248.000000"
 preserveAspectRatio="xMidYMid meet">
<metadata>
Created by potrace 1.10, written by Peter Selinger 2001-2011
</metadata>
<g transform="translate(0.000000,248.000000) scale(0.100000,-0.100000)"
fill="#000000" stroke="none">
<path d="M730 2295 c-241 -20 -342 -43 -357 -81 -3 -9 -1 -37 6 -63 12 -49 20
-106 51 -379 10 -96 24 -180 31 -188 15 -19 53 -18 69 1 15 18 8 163 -15 335
-8 58 -16 136 -17 175 l-3 69 70 12 c68 12 298 29 518 38 125 5 125 5 108 -76
-7 -28 -19 -102 -27 -162 -9 -61 -20 -131 -24 -156 -21 -123 -23 -140 -10
-155 19 -23 57 -18 76 10 17 26 34 110 59 290 17 126 23 159 42 217 19 63 14
99 -17 115 -33 17 -348 15 -560 -2z"/>
</g>
</svg>
