<?xml version="1.0" standalone="no"?>
<!DOCTYPE svg PUBLIC "-//W3C//DTD SVG 20010904//EN"
 "http://www.w3.org/TR/2001/REC-SVG-20010904/DTD/svg10.dtd">
<svg version="1.0" xmlns="http://www.w3.org/2000/svg"
 width="248.000000pt" height="248.000000pt" viewBox="0 0 248.000000 248.000000"
 preserveAspectRatio="xMidYMid meet">
<metadata>
Created by potrace 1.10, written by Peter Selinger 2001-2011
</metadata>
<g transform="translate(0.000000,248.000000) scale(0.100000,-0.100000)"
fill="#000000" stroke="none">
<path d="M567 2243 c-8 -10 -19 -31 -23 -48 -4 -16 -19 -52 -34 -80 -26 -47
-92 -171 -167 -314 -39 -75 -63 -116 -108 -186 -18 -27 -49 -79 -69 -115 -20
-36 -46 -80 -58 -98 -19 -30 -19 -34 -4 -57 37 -57 89 -20 166 121 24 43 53
93 65 109 22 29 38 59 175 320 34 66 74 139 87 163 l24 43 72 -100 c40 -56 84
-120 99 -143 141 -219 230 -302 276 -256 23 23 13 57 -29 100 -23 24 -57 66
-75 93 -31 47 -61 90 -131 190 -15 22 -54 78 -86 125 -32 47 -71 100 -87 118
-32 36 -68 42 -93 15z"/>
</g>
</svg>
