<?xml version="1.0" standalone="no"?>
<!DOCTYPE svg PUBLIC "-//W3C//DTD SVG 20010904//EN"
 "http://www.w3.org/TR/2001/REC-SVG-20010904/DTD/svg10.dtd">
<svg version="1.0" xmlns="http://www.w3.org/2000/svg"
 width="248.000000pt" height="248.000000pt" viewBox="0 0 248.000000 248.000000"
 preserveAspectRatio="xMidYMid meet">
<metadata>
Created by potrace 1.10, written by Peter Selinger 2001-2011
</metadata>
<g transform="translate(0.000000,248.000000) scale(0.100000,-0.100000)"
fill="#000000" stroke="none">
<path d="M567 2243 c-8 -10 -19 -31 -23 -48 -4 -16 -19 -52 -34 -80 -26 -47
-92 -171 -167 -314 -39 -75 -63 -116 -108 -186 -18 -27 -49 -79 -69 -115 -20
-36 -46 -80 -58 -98 -19 -30 -19 -34 -4 -57 37 -57 89 -20 166 121 24 43 53
93 65 109 13 17 43 68 67 115 25 47 85 162 135 255 95 181 113 222 113 264 0
49 -50 69 -83 34z"/>
</g>
</svg>
