<?xml version="1.0" standalone="no"?>
<!DOCTYPE svg PUBLIC "-//W3C//DTD SVG 20010904//EN"
 "http://www.w3.org/TR/2001/REC-SVG-20010904/DTD/svg10.dtd">
<svg version="1.0" xmlns="http://www.w3.org/2000/svg"
 width="248.000000pt" height="248.000000pt" viewBox="0 0 248.000000 248.000000"
 preserveAspectRatio="xMidYMid meet">
<metadata>
Created by potrace 1.10, written by Peter Selinger 2001-2011
</metadata>
<g transform="translate(0.000000,248.000000) scale(0.100000,-0.100000)"
fill="#000000" stroke="none">
<path d="M567 2243 c-8 -10 -19 -31 -23 -48 -4 -16 -19 -52 -34 -80 -26 -47
-92 -171 -167 -314 -39 -75 -63 -116 -108 -186 -18 -27 -49 -79 -69 -115 -20
-36 -46 -80 -58 -98 -19 -30 -19 -34 -4 -57 36 -55 89 -18 160 111 27 49 59
103 71 119 12 17 29 44 37 60 9 17 36 68 62 115 25 47 71 134 102 195 91 177
74 171 158 55 39 -55 83 -119 98 -142 141 -219 230 -302 276 -256 23 23 13 57
-29 100 -23 24 -57 66 -75 93 -31 47 -61 90 -131 190 -15 22 -54 78 -86 125
-32 47 -71 100 -87 118 -32 36 -68 42 -93 15z"/>
<path d="M680 1683 c-95 -16 -259 -57 -277 -69 -26 -17 -30 -55 -8 -74 15 -13
90 -9 143 6 22 6 22 6 22 -115 0 -117 -1 -121 -22 -126 -13 -3 -85 -18 -161
-34 -75 -16 -144 -34 -153 -42 -22 -18 -14 -62 16 -76 21 -10 48 -7 160 17 74
16 141 30 148 30 9 0 12 -86 12 -398 0 -296 3 -401 12 -410 7 -7 25 -12 41
-12 54 0 57 24 57 459 l0 389 33 10 c17 6 76 20 130 32 78 17 101 26 113 45
12 18 13 28 4 44 -16 30 -52 35 -123 18 -90 -23 -151 -36 -153 -34 -1 1 -4 54
-5 117 l-4 115 55 8 c30 5 63 16 73 25 20 17 22 53 5 70 -12 12 -66 14 -118 5z"/>
</g>
</svg>
