<?xml version="1.0" standalone="no"?>
<!DOCTYPE svg PUBLIC "-//W3C//DTD SVG 20010904//EN"
 "http://www.w3.org/TR/2001/REC-SVG-20010904/DTD/svg10.dtd">
<svg version="1.0" xmlns="http://www.w3.org/2000/svg"
 width="248.000000pt" height="248.000000pt" viewBox="0 0 248.000000 248.000000"
 preserveAspectRatio="xMidYMid meet">
<metadata>
Created by potrace 1.10, written by Peter Selinger 2001-2011
</metadata>
<g transform="translate(0.000000,248.000000) scale(0.100000,-0.100000)"
fill="#000000" stroke="none">
<path d="M635 1853 c-261 -22 -392 -36 -410 -43 -33 -13 -40 -45 -18 -78 17
-25 18 -55 18 -412 0 -212 -3 -430 -7 -485 -3 -55 -2 -110 3 -121 10 -28 42
-39 69 -24 12 6 58 16 103 21 45 5 124 15 176 24 74 11 102 12 137 3 71 -19
74 -12 94 214 10 106 21 240 24 298 19 302 27 432 33 502 8 104 3 108 -101
106 -44 -1 -99 -3 -121 -5z m121 -125 c-3 -18 -8 -87 -12 -153 -4 -66 -8 -133
-9 -150 -2 -16 -4 -38 -4 -47 -1 -12 -13 -18 -43 -22 -24 -3 -99 -12 -168 -21
-69 -9 -141 -15 -160 -13 l-35 3 -5 199 c-3 128 -1 200 5 201 20 6 321 32 379
34 l58 1 -6 -32z m-33 -485 c2 -5 -2 -60 -9 -123 -7 -63 -13 -147 -13 -185 -1
-41 -6 -76 -13 -83 -7 -7 -38 -12 -69 -12 -31 0 -92 -7 -135 -14 -132 -25
-143 -25 -159 -10 -7 8 -12 27 -11 42 2 15 4 97 5 182 1 85 5 160 9 166 4 7
48 15 97 19 50 4 108 10 130 15 53 10 163 12 168 3z"/>
<path d="M1795 1700 c-272 -23 -477 -42 -530 -50 -33 -5 -100 -12 -148 -16
-106 -8 -121 -21 -107 -94 8 -44 12 -104 26 -322 l7 -108 -51 0 c-85 0 -121
-25 -106 -72 10 -33 44 -37 190 -23 77 8 204 19 284 25 163 12 194 15 335 30
55 6 212 13 349 15 167 3 253 8 262 16 21 18 17 57 -8 73 -18 11 -52 13 -145
11 -70 -2 -123 0 -123 5 0 5 7 28 16 51 29 70 96 322 101 376 8 89 2 93 -140
91 -67 0 -162 -4 -212 -8z m235 -152 c-10 -35 -30 -109 -45 -165 -16 -59 -40
-122 -58 -151 l-32 -50 -85 -6 c-47 -3 -141 -11 -210 -16 -69 -6 -159 -13
-200 -16 -41 -3 -111 -10 -155 -15 -43 -5 -83 -5 -87 -1 -20 20 -51 402 -33
402 5 0 55 7 110 15 55 7 186 21 290 30 105 9 222 20 260 24 39 4 113 8 166 9
l97 2 -18 -62z"/>
</g>
</svg>
