<?xml version="1.0" standalone="no"?>
<!DOCTYPE svg PUBLIC "-//W3C//DTD SVG 20010904//EN"
 "http://www.w3.org/TR/2001/REC-SVG-20010904/DTD/svg10.dtd">
<svg version="1.0" xmlns="http://www.w3.org/2000/svg"
 width="248.000000pt" height="248.000000pt" viewBox="0 0 248.000000 248.000000"
 preserveAspectRatio="xMidYMid meet">
<metadata>
Created by potrace 1.10, written by Peter Selinger 2001-2011
</metadata>
<g transform="translate(0.000000,248.000000) scale(0.100000,-0.100000)"
fill="#000000" stroke="none">
<path d="M635 1853 c-261 -22 -392 -36 -410 -43 -33 -13 -40 -45 -18 -78 17
-25 18 -54 18 -377 0 -192 -2 -417 -5 -498 -5 -139 -4 -150 14 -163 25 -18 37
-18 62 0 16 12 19 27 20 98 3 311 5 404 12 414 4 6 48 15 97 19 50 4 112 11
139 16 27 5 75 9 108 9 l59 0 -5 -32 c-9 -53 -25 -235 -32 -351 -6 -116 0
-137 41 -137 12 0 28 7 35 15 12 15 40 273 54 505 19 302 27 432 33 502 8 104
3 108 -101 106 -44 -1 -99 -3 -121 -5z m121 -125 c-3 -18 -8 -87 -12 -153 -4
-66 -8 -133 -9 -150 -2 -16 -4 -40 -4 -52 -1 -21 -6 -23 -58 -23 -32 0 -106
-7 -164 -16 -59 -8 -125 -14 -146 -12 l-38 3 -5 199 c-3 128 -1 200 5 201 20
6 321 32 379 34 l58 1 -6 -32z"/>
</g>
</svg>
