<?xml version="1.0" standalone="no"?>
<!DOCTYPE svg PUBLIC "-//W3C//DTD SVG 20010904//EN"
 "http://www.w3.org/TR/2001/REC-SVG-20010904/DTD/svg10.dtd">
<svg version="1.0" xmlns="http://www.w3.org/2000/svg"
 width="248.000000pt" height="248.000000pt" viewBox="0 0 248.000000 248.000000"
 preserveAspectRatio="xMidYMid meet">
<metadata>
Created by potrace 1.10, written by Peter Selinger 2001-2011
</metadata>
<g transform="translate(0.000000,248.000000) scale(0.100000,-0.100000)"
fill="#000000" stroke="none">
<path d="M1491 2196 c-9 -11 -13 -89 -14 -268 l-2 -253 -135 -16 c-74 -9 -175
-20 -223 -24 -106 -9 -121 -22 -107 -95 8 -44 12 -104 26 -322 l7 -108 -51 0
c-85 0 -124 -27 -106 -74 11 -29 48 -36 127 -26 112 14 388 33 393 27 11 -11
-77 -271 -122 -361 -54 -107 -141 -220 -243 -317 -92 -86 -103 -100 -97 -123
10 -39 48 -44 97 -12 97 65 261 261 327 392 40 78 99 239 122 329 13 50 26 94
30 98 4 5 20 10 36 12 131 18 285 27 493 31 256 4 271 6 271 50 0 43 -32 52
-167 49 -70 -2 -123 0 -123 5 0 5 7 28 16 51 29 70 96 322 101 376 3 30 0 60
-7 74 -12 22 -13 22 -194 16 -99 -4 -219 -12 -265 -17 -46 -6 -90 -9 -98 -6
-12 5 -14 47 -11 251 3 217 2 247 -12 260 -21 19 -54 19 -69 1z m539 -648
c-10 -35 -30 -109 -45 -165 -16 -59 -40 -122 -58 -151 l-32 -50 -75 -6 c-41
-3 -122 -8 -178 -12 l-104 -6 7 68 c4 38 9 80 11 94 2 14 7 76 11 138 3 68 11
115 17 118 24 8 276 31 367 32 l97 2 -18 -62z m-558 11 c3 -10 -12 -201 -27
-329 -4 -34 -13 -67 -20 -74 -8 -8 -53 -16 -112 -21 -168 -13 -155 -14 -166
25 -6 26 -36 357 -33 367 1 1 166 23 271 36 61 8 83 7 87 -4z"/>
<path d="M635 1853 c-261 -22 -392 -36 -410 -43 -33 -13 -40 -45 -18 -78 17
-25 18 -55 18 -412 0 -212 -3 -430 -7 -485 -3 -55 -2 -110 3 -121 10 -28 42
-39 69 -24 12 6 58 16 103 21 45 5 124 15 176 24 74 11 102 12 137 3 71 -19
74 -12 94 214 10 106 21 240 24 298 19 302 27 432 33 502 8 104 3 108 -101
106 -44 -1 -99 -3 -121 -5z m121 -125 c-3 -18 -8 -87 -12 -153 -4 -66 -8 -133
-9 -150 -2 -16 -4 -38 -4 -47 -1 -12 -13 -18 -43 -22 -24 -3 -99 -12 -168 -21
-69 -9 -141 -15 -160 -13 l-35 3 -5 199 c-3 128 -1 200 5 201 20 6 321 32 379
34 l58 1 -6 -32z m-33 -485 c2 -5 -2 -60 -9 -123 -7 -63 -13 -147 -13 -185 -1
-41 -6 -76 -13 -83 -7 -7 -38 -12 -69 -12 -31 0 -92 -7 -135 -14 -132 -25
-143 -25 -159 -10 -7 8 -12 27 -11 42 2 15 4 97 5 182 1 85 5 160 9 166 4 7
48 15 97 19 50 4 108 10 130 15 53 10 163 12 168 3z"/>
</g>
</svg>
