<?xml version="1.0" standalone="no"?>
<!DOCTYPE svg PUBLIC "-//W3C//DTD SVG 20010904//EN"
 "http://www.w3.org/TR/2001/REC-SVG-20010904/DTD/svg10.dtd">
<svg version="1.0" xmlns="http://www.w3.org/2000/svg"
 width="248.000000pt" height="248.000000pt" viewBox="0 0 248.000000 248.000000"
 preserveAspectRatio="xMidYMid meet">
<metadata>
Created by potrace 1.10, written by Peter Selinger 2001-2011
</metadata>
<g transform="translate(0.000000,248.000000) scale(0.100000,-0.100000)"
fill="#000000" stroke="none">
<path d="M1414 2359 c-17 -19 -19 -37 -19 -164 l0 -144 -75 -4 c-41 -2 -160
-12 -265 -21 -209 -19 -238 -29 -233 -74 5 -44 39 -53 154 -42 153 15 147 16
131 -22 -20 -47 -132 -232 -183 -303 -84 -115 -154 -216 -165 -237 -13 -25
-164 -207 -189 -228 -25 -21 -41 -56 -34 -75 7 -16 35 -35 53 -35 29 0 199
191 274 308 15 23 30 42 33 42 4 0 3 -254 -1 -564 -4 -310 -4 -578 0 -595 12
-55 76 -66 95 -16 5 13 12 320 15 682 l6 658 48 75 c111 171 156 265 149 305
-4 17 0 26 11 29 9 3 111 8 227 12 l212 7 -9 -47 c-5 -26 -24 -77 -42 -114
-19 -37 -38 -78 -42 -91 -23 -74 -200 -379 -327 -564 -47 -68 -49 -106 -6
-121 38 -13 53 3 156 159 197 299 386 689 368 760 -4 14 -3 25 1 25 522 19
535 21 541 71 6 49 -15 54 -192 51 -89 -2 -235 -7 -326 -12 -91 -6 -191 -10
-222 -10 l-58 0 0 148 c0 102 -4 152 -12 160 -18 18 -53 14 -74 -9z"/>
<path d="M232 2248 c-40 -40 2 -86 213 -226 116 -77 156 -80 163 -14 3 29 -2
35 -43 59 -25 16 -97 65 -161 111 -112 80 -148 94 -172 70z"/>
<path d="M132 1638 c-26 -26 -13 -57 41 -97 28 -21 70 -48 93 -59 22 -11 67
-38 100 -60 78 -52 100 -58 125 -36 46 41 18 76 -120 154 -34 19 -88 52 -119
72 -58 39 -99 47 -120 26z"/>
<path d="M427 729 c-10 -6 -31 -39 -46 -72 -16 -34 -46 -100 -68 -147 -22 -47
-48 -110 -58 -140 -10 -30 -31 -80 -48 -112 -27 -51 -28 -58 -15 -85 10 -21
20 -28 43 -28 26 0 34 7 62 60 18 33 42 88 52 122 11 34 48 119 81 189 74 154
79 175 51 203 -24 24 -29 25 -54 10z"/>
</g>
</svg>
