<?xml version="1.0" standalone="no"?>
<!DOCTYPE svg PUBLIC "-//W3C//DTD SVG 20010904//EN"
 "http://www.w3.org/TR/2001/REC-SVG-20010904/DTD/svg10.dtd">
<svg version="1.0" xmlns="http://www.w3.org/2000/svg"
 width="248.000000pt" height="248.000000pt" viewBox="0 0 248.000000 248.000000"
 preserveAspectRatio="xMidYMid meet">
<metadata>
Created by potrace 1.10, written by Peter Selinger 2001-2011
</metadata>
<g transform="translate(0.000000,248.000000) scale(0.100000,-0.100000)"
fill="#000000" stroke="none">
<path d="M1414 2359 c-17 -19 -19 -37 -19 -164 l0 -144 -75 -4 c-41 -2 -160
-12 -265 -21 -209 -19 -238 -29 -233 -74 5 -44 39 -53 154 -42 153 15 147 16
131 -22 -20 -47 -132 -232 -183 -303 -84 -115 -154 -216 -165 -237 -13 -25
-164 -207 -189 -228 -10 -8 -23 -25 -29 -37 -22 -42 25 -87 66 -64 47 25 191
199 303 365 36 53 84 122 106 153 49 65 124 190 166 275 20 39 29 69 26 89 -4
24 -1 30 16 34 21 4 341 18 784 35 252 10 285 17 290 61 6 49 -15 54 -192 51
-89 -2 -235 -7 -326 -12 -91 -6 -191 -10 -222 -10 l-58 0 0 148 c0 102 -4 152
-12 160 -18 18 -53 14 -74 -9z"/>
<path d="M232 2248 c-40 -40 2 -86 213 -226 116 -77 156 -80 163 -14 3 29 -2
35 -43 59 -25 16 -97 65 -161 111 -112 80 -148 94 -172 70z"/>
<path d="M132 1638 c-26 -26 -13 -57 41 -97 28 -21 70 -48 93 -59 22 -11 67
-38 100 -60 78 -52 100 -58 125 -36 46 41 18 76 -120 154 -34 19 -88 52 -119
72 -58 39 -99 47 -120 26z"/>
<path d="M427 729 c-10 -6 -31 -39 -46 -72 -16 -34 -46 -100 -68 -147 -22 -47
-48 -110 -58 -140 -10 -30 -31 -80 -48 -112 -27 -51 -28 -58 -15 -85 10 -21
20 -28 43 -28 26 0 34 7 62 60 18 33 42 88 52 122 11 34 48 119 81 189 74 154
79 175 51 203 -24 24 -29 25 -54 10z"/>
</g>
</svg>
