<?xml version="1.0" standalone="no"?>
<!DOCTYPE svg PUBLIC "-//W3C//DTD SVG 20010904//EN"
 "http://www.w3.org/TR/2001/REC-SVG-20010904/DTD/svg10.dtd">
<svg version="1.0" xmlns="http://www.w3.org/2000/svg"
 width="248.000000pt" height="248.000000pt" viewBox="0 0 248.000000 248.000000"
 preserveAspectRatio="xMidYMid meet">
<metadata>
Created by potrace 1.10, written by Peter Selinger 2001-2011
</metadata>
<g transform="translate(0.000000,248.000000) scale(0.100000,-0.100000)"
fill="#000000" stroke="none">
<path d="M1609 2143 c-8 -10 -32 -45 -54 -78 -22 -33 -60 -87 -85 -120 -109
-142 -121 -176 -75 -197 37 -17 60 0 130 95 151 204 185 273 153 305 -17 17
-53 15 -69 -5z"/>
<path d="M732 1998 c-7 -7 -12 -25 -12 -40 0 -35 103 -254 137 -289 l24 -26
-73 -11 c-70 -11 -262 -29 -321 -30 -58 0 -79 -57 -32 -88 22 -14 43 -16 139
-10 63 4 140 11 172 16 32 5 60 7 62 5 8 -8 -30 -72 -72 -123 -21 -26 -62 -80
-90 -120 -28 -40 -67 -95 -86 -121 -19 -27 -57 -79 -84 -117 -103 -142 -212
-266 -314 -355 -41 -35 -51 -50 -46 -65 19 -53 47 -57 107 -15 46 32 150 137
216 219 24 28 46 50 50 47 13 -7 52 -352 55 -485 l1 -35 -126 -10 c-79 -6
-132 -15 -142 -24 -25 -20 -21 -58 7 -77 22 -14 41 -14 158 -5 131 11 1100 41
1312 41 115 0 234 -12 350 -36 95 -20 115 -18 125 8 12 32 2 57 -29 73 -31 16
-152 38 -303 56 -92 10 -107 14 -102 28 28 72 78 330 92 474 l8 78 55 -42 c61
-46 247 -139 279 -139 11 0 28 11 36 24 26 39 5 60 -118 121 -179 87 -312 201
-551 473 -113 129 -161 190 -153 199 3 3 99 19 214 35 114 17 218 36 231 44
24 16 29 53 10 72 -20 20 -107 12 -388 -33 -52 -8 -156 -22 -230 -30 -74 -8
-173 -19 -220 -25 -119 -14 -167 -13 -152 2 21 21 13 49 -48 175 -33 67 -60
126 -60 131 0 15 -36 42 -56 42 -11 0 -25 -5 -32 -12z m625 -435 c9 -26 97
-144 128 -173 15 -14 59 -63 98 -110 39 -47 95 -110 124 -141 l54 -56 -233 -7
c-128 -4 -260 -12 -293 -17 -33 -6 -107 -14 -165 -19 -58 -5 -172 -18 -255
-30 -165 -22 -225 -25 -225 -11 0 6 4 12 9 15 5 3 58 74 117 156 205 285 214
298 214 335 0 33 1 34 53 40 28 3 102 12 162 19 161 20 204 20 212 -1z m439
-695 c-7 -108 -44 -314 -75 -413 l-19 -60 -88 -6 c-49 -4 -121 -7 -159 -8
l-71 -1 3 63 c1 34 6 164 9 289 l6 227 37 4 c20 2 110 4 200 5 l164 2 -7 -102z
m-507 -55 c-4 -82 -7 -211 -8 -289 l-1 -141 -52 -7 c-29 -3 -72 -6 -95 -6
l-42 0 -3 280 c-2 154 -3 280 -3 281 0 2 164 26 185 28 l25 1 -6 -147z m-309
-162 l0 -278 -77 -7 c-42 -3 -109 -6 -148 -6 l-73 0 -11 63 c-6 34 -13 109
-17 167 -3 58 -12 145 -20 194 -8 48 -13 90 -11 93 3 2 80 14 173 27 93 13
172 24 177 25 4 0 7 -124 7 -278z"/>
</g>
</svg>
