<?xml version="1.0" standalone="no"?>
<!DOCTYPE svg PUBLIC "-//W3C//DTD SVG 20010904//EN"
 "http://www.w3.org/TR/2001/REC-SVG-20010904/DTD/svg10.dtd">
<svg version="1.0" xmlns="http://www.w3.org/2000/svg"
 width="248.000000pt" height="248.000000pt" viewBox="0 0 248.000000 248.000000"
 preserveAspectRatio="xMidYMid meet">
<metadata>
Created by potrace 1.10, written by Peter Selinger 2001-2011
</metadata>
<g transform="translate(0.000000,248.000000) scale(0.100000,-0.100000)"
fill="#000000" stroke="none">
<path d="M1618 2375 c-2 -3 -87 -12 -189 -20 -101 -8 -193 -17 -204 -20 -11
-2 -81 -11 -155 -19 -180 -21 -280 -36 -308 -47 -32 -13 -40 -44 -31 -127 4
-40 11 -117 14 -170 14 -216 35 -443 42 -456 4 -8 26 -29 48 -46 l40 -32 90 6
c50 3 173 13 275 21 102 8 249 18 327 22 112 5 146 9 157 22 8 9 21 68 30 141
9 69 21 153 26 186 6 34 10 79 10 102 0 22 7 75 16 118 11 54 15 104 11 159
-10 142 -28 165 -126 165 -37 0 -70 -2 -73 -5z m91 -197 c0 -51 -6 -113 -12
-138 l-12 -45 -175 -17 c-96 -9 -258 -24 -360 -34 -102 -10 -210 -18 -240 -18
l-55 -1 -9 123 c-4 68 -6 125 -4 128 3 2 52 11 109 18 239 33 362 47 493 56
77 5 141 12 144 15 3 3 32 5 64 5 l58 0 -1 -92z m-33 -320 c-4 -18 -11 -76
-16 -128 -14 -126 -15 -130 -53 -131 -18 0 -48 -2 -67 -4 -53 -7 -431 -35
-551 -42 l-106 -6 -7 99 c-4 54 -9 113 -12 130 -5 30 -4 31 33 37 21 4 92 11
158 17 66 6 188 17 270 25 264 27 320 32 339 34 16 1 18 -4 12 -31z"/>
</g>
</svg>
