<?xml version="1.0" standalone="no"?>
<!DOCTYPE svg PUBLIC "-//W3C//DTD SVG 20010904//EN"
 "http://www.w3.org/TR/2001/REC-SVG-20010904/DTD/svg10.dtd">
<svg version="1.0" xmlns="http://www.w3.org/2000/svg"
 width="248.000000pt" height="248.000000pt" viewBox="0 0 248.000000 248.000000"
 preserveAspectRatio="xMidYMid meet">
<metadata>
Created by potrace 1.10, written by Peter Selinger 2001-2011
</metadata>
<g transform="translate(0.000000,248.000000) scale(0.100000,-0.100000)"
fill="#000000" stroke="none">
<path d="M1609 2143 c-8 -10 -32 -45 -54 -78 -22 -33 -60 -87 -85 -120 -109
-142 -121 -176 -75 -197 37 -17 60 0 130 95 151 204 185 273 153 305 -17 17
-53 15 -69 -5z"/>
<path d="M732 1998 c-7 -7 -12 -25 -12 -40 0 -35 103 -254 137 -289 l24 -26
-73 -11 c-70 -11 -262 -29 -321 -30 -58 0 -79 -57 -32 -88 22 -14 43 -16 139
-10 63 4 140 11 172 16 32 5 60 7 62 5 8 -8 -30 -72 -72 -123 -21 -26 -62 -80
-90 -120 -28 -40 -67 -95 -86 -121 -19 -27 -57 -79 -84 -117 -27 -38 -63 -85
-80 -105 -17 -20 -58 -68 -91 -108 -33 -39 -86 -93 -118 -119 -71 -56 -80 -70
-64 -103 25 -49 72 -32 171 59 84 77 193 214 422 530 177 245 194 271 194 306
0 39 -19 34 240 61 85 9 259 32 385 50 127 18 253 36 280 40 62 8 95 28 95 58
0 59 -42 60 -400 2 -52 -8 -156 -22 -230 -30 -74 -8 -173 -19 -220 -25 -119
-14 -167 -13 -152 2 21 21 13 49 -48 175 -33 67 -60 126 -60 131 0 15 -36 42
-56 42 -11 0 -25 -5 -32 -12z"/>
</g>
</svg>
