<?xml version="1.0" standalone="no"?>
<!DOCTYPE svg PUBLIC "-//W3C//DTD SVG 20010904//EN"
 "http://www.w3.org/TR/2001/REC-SVG-20010904/DTD/svg10.dtd">
<svg version="1.0" xmlns="http://www.w3.org/2000/svg"
 width="248.000000pt" height="248.000000pt" viewBox="0 0 248.000000 248.000000"
 preserveAspectRatio="xMidYMid meet">
<metadata>
Created by potrace 1.10, written by Peter Selinger 2001-2011
</metadata>
<g transform="translate(0.000000,248.000000) scale(0.100000,-0.100000)"
fill="#000000" stroke="none">
<path d="M1618 2375 c-2 -3 -87 -12 -189 -20 -101 -8 -193 -17 -204 -20 -11
-2 -81 -11 -155 -19 -180 -21 -280 -36 -308 -47 -32 -13 -40 -44 -31 -127 4
-40 11 -117 14 -170 14 -216 35 -443 42 -456 4 -8 25 -28 47 -45 30 -24 49
-31 82 -31 24 0 44 -4 44 -10 0 -23 -37 -101 -83 -175 -145 -234 -186 -282
-367 -447 -80 -73 -84 -79 -74 -105 14 -40 53 -42 106 -4 107 74 307 301 378
429 22 40 26 42 69 43 25 0 79 6 119 13 84 15 88 11 46 -57 -79 -126 -425
-523 -495 -568 -42 -27 -49 -36 -49 -64 0 -34 13 -45 54 -45 54 0 220 166 442
442 121 150 160 210 175 269 l12 47 106 7 c58 3 144 10 191 16 92 10 351 29
413 29 36 0 37 -1 37 -36 0 -56 -73 -420 -121 -604 -41 -155 -126 -335 -201
-423 -26 -32 -26 -32 -56 -15 -41 24 -79 23 -92 -2 -16 -29 -5 -55 39 -90 50
-39 100 -41 149 -4 38 30 118 147 162 238 67 142 138 384 175 601 7 44 23 129
34 189 24 124 25 146 11 197 -15 53 -46 63 -173 55 -218 -14 -255 -17 -342
-26 -49 -5 -155 -14 -235 -20 -80 -6 -194 -18 -253 -26 -59 -9 -110 -15 -112
-13 -2 3 8 41 23 87 25 76 29 82 57 86 55 9 469 36 536 36 50 0 70 4 82 18 10
11 21 62 31 142 9 69 21 153 26 186 6 34 10 79 10 102 0 22 7 75 16 118 11 54
15 104 11 159 -10 142 -28 165 -126 165 -37 0 -70 -2 -73 -5z m91 -197 c0 -51
-6 -113 -12 -138 l-12 -45 -175 -17 c-96 -9 -258 -24 -360 -34 -102 -10 -210
-18 -240 -18 l-55 -1 -9 123 c-4 68 -6 125 -4 128 3 2 52 11 109 18 239 33
362 47 493 56 77 5 141 12 144 15 3 3 32 5 64 5 l58 0 -1 -92z m-33 -320 c-4
-18 -11 -76 -16 -128 -14 -126 -15 -130 -53 -131 -18 0 -48 -2 -67 -4 -53 -7
-431 -35 -551 -42 l-106 -6 -7 99 c-4 54 -9 113 -12 130 -5 30 -4 31 33 37 21
4 92 11 158 17 66 6 188 17 270 25 264 27 320 32 339 34 16 1 18 -4 12 -31z"/>
</g>
</svg>
