<?xml version="1.0" standalone="no"?>
<!DOCTYPE svg PUBLIC "-//W3C//DTD SVG 20010904//EN"
 "http://www.w3.org/TR/2001/REC-SVG-20010904/DTD/svg10.dtd">
<svg version="1.0" xmlns="http://www.w3.org/2000/svg"
 width="248.000000pt" height="248.000000pt" viewBox="0 0 248.000000 248.000000"
 preserveAspectRatio="xMidYMid meet">
<metadata>
Created by potrace 1.10, written by Peter Selinger 2001-2011
</metadata>
<g transform="translate(0.000000,248.000000) scale(0.100000,-0.100000)"
fill="#000000" stroke="none">
<path d="M1609 2143 c-8 -10 -32 -45 -54 -78 -22 -33 -60 -87 -85 -120 -109
-142 -121 -176 -75 -197 37 -17 60 0 130 95 151 204 185 273 153 305 -17 17
-53 15 -69 -5z"/>
<path d="M732 1998 c-7 -7 -12 -25 -12 -40 0 -32 102 -252 133 -285 34 -38 87
-25 87 21 0 11 -27 75 -60 143 -33 67 -60 126 -60 131 0 15 -36 42 -56 42 -11
0 -25 -5 -32 -12z"/>
</g>
</svg>
