<?xml version="1.0" standalone="no"?>
<!DOCTYPE svg PUBLIC "-//W3C//DTD SVG 20010904//EN"
 "http://www.w3.org/TR/2001/REC-SVG-20010904/DTD/svg10.dtd">
<svg version="1.0" xmlns="http://www.w3.org/2000/svg"
 width="248.000000pt" height="248.000000pt" viewBox="0 0 248.000000 248.000000"
 preserveAspectRatio="xMidYMid meet">
<metadata>
Created by potrace 1.10, written by Peter Selinger 2001-2011
</metadata>
<g transform="translate(0.000000,248.000000) scale(0.100000,-0.100000)"
fill="#000000" stroke="none">
<path d="M1416 2258 c-13 -18 -16 -50 -16 -159 l0 -136 -122 -17 c-68 -10
-150 -25 -183 -33 -33 -8 -100 -17 -148 -20 -121 -8 -118 -1 -111 -227 3 -104
10 -186 16 -193 18 -22 56 -15 75 14 15 23 18 48 17 160 -1 128 -1 133 20 137
261 50 394 66 656 81 151 8 311 20 355 26 44 6 120 9 168 7 l88 -3 -57 -69
c-31 -37 -74 -85 -95 -106 -56 -54 -51 -110 10 -110 47 0 245 224 261 296 19
81 -27 109 -165 101 -162 -10 -423 -26 -547 -32 l-128 -7 0 128 c0 84 -5 138
-13 154 -17 34 -60 39 -81 8z"/>
<path d="M402 2078 c-21 -21 -13 -66 16 -100 15 -18 52 -69 81 -113 77 -115
102 -133 135 -99 27 27 18 56 -50 159 -102 154 -145 190 -182 153z"/>
<path d="M92 1528 c-30 -30 -13 -55 108 -159 67 -57 131 -109 143 -116 48 -27
87 -10 87 38 0 19 -11 35 -37 55 -54 40 -131 105 -162 134 -60 58 -111 76
-139 48z"/>
<path d="M417 618 c-29 -40 -80 -117 -113 -171 -32 -53 -78 -127 -101 -164
-57 -90 -56 -143 4 -143 25 0 83 72 127 157 14 29 69 115 121 193 52 78 95
146 95 152 0 26 -23 48 -50 48 -25 0 -37 -11 -83 -72z"/>
</g>
</svg>
