<?xml version="1.0" standalone="no"?>
<!DOCTYPE svg PUBLIC "-//W3C//DTD SVG 20010904//EN"
 "http://www.w3.org/TR/2001/REC-SVG-20010904/DTD/svg10.dtd">
<svg version="1.0" xmlns="http://www.w3.org/2000/svg"
 width="248.000000pt" height="248.000000pt" viewBox="0 0 248.000000 248.000000"
 preserveAspectRatio="xMidYMid meet">
<metadata>
Created by potrace 1.10, written by Peter Selinger 2001-2011
</metadata>
<g transform="translate(0.000000,248.000000) scale(0.100000,-0.100000)"
fill="#000000" stroke="none">
<path d="M1416 2258 c-13 -18 -16 -51 -16 -168 0 -166 8 -195 55 -195 46 0 55
29 55 190 0 93 -5 148 -13 165 -17 34 -60 39 -81 8z"/>
<path d="M402 2078 c-21 -21 -13 -66 16 -100 15 -18 52 -69 81 -113 77 -115
102 -133 135 -99 27 27 18 56 -50 159 -102 154 -145 190 -182 153z"/>
<path d="M847 1849 c-13 -18 -15 -49 -11 -193 3 -97 10 -176 16 -183 18 -22
56 -15 75 14 15 23 18 48 16 175 -2 165 -11 201 -55 206 -18 2 -31 -4 -41 -19z"/>
<path d="M92 1528 c-30 -30 -13 -55 108 -159 67 -57 131 -109 143 -116 48 -27
87 -10 87 38 0 19 -11 35 -37 55 -54 40 -131 105 -162 134 -60 58 -111 76
-139 48z"/>
<path d="M417 618 c-29 -40 -80 -117 -113 -171 -32 -53 -78 -127 -101 -164
-57 -90 -56 -143 4 -143 25 0 83 72 127 157 14 29 69 115 121 193 52 78 95
146 95 152 0 26 -23 48 -50 48 -25 0 -37 -11 -83 -72z"/>
</g>
</svg>
