<?xml version="1.0" standalone="no"?>
<!DOCTYPE svg PUBLIC "-//W3C//DTD SVG 20010904//EN"
 "http://www.w3.org/TR/2001/REC-SVG-20010904/DTD/svg10.dtd">
<svg version="1.0" xmlns="http://www.w3.org/2000/svg"
 width="248.000000pt" height="248.000000pt" viewBox="0 0 248.000000 248.000000"
 preserveAspectRatio="xMidYMid meet">
<metadata>
Created by potrace 1.10, written by Peter Selinger 2001-2011
</metadata>
<g transform="translate(0.000000,248.000000) scale(0.100000,-0.100000)"
fill="#000000" stroke="none">
<path d="M1416 2258 c-13 -18 -16 -50 -16 -159 l0 -136 -122 -17 c-68 -10
-150 -25 -183 -33 -33 -8 -100 -17 -148 -20 -121 -8 -118 -1 -111 -227 3 -104
10 -186 16 -193 18 -22 56 -15 75 14 15 23 18 48 17 160 -1 128 -1 133 20 137
261 50 394 66 656 81 151 8 311 20 355 26 44 6 120 9 168 7 l88 -3 -57 -69
c-31 -37 -74 -85 -95 -106 -56 -54 -51 -110 10 -110 47 0 245 224 261 296 19
81 -27 109 -165 101 -162 -10 -423 -26 -547 -32 l-128 -7 0 128 c0 84 -5 138
-13 154 -17 34 -60 39 -81 8z"/>
<path d="M402 2078 c-21 -21 -13 -66 16 -100 15 -18 52 -69 81 -113 77 -115
102 -133 135 -99 27 27 18 56 -50 159 -102 154 -145 190 -182 153z"/>
<path d="M1745 1663 c-22 -1 -71 -7 -110 -13 -38 -5 -90 -12 -115 -15 -42 -6
-88 -14 -299 -50 -46 -9 -90 -20 -98 -27 -23 -19 -12 -61 21 -77 25 -11 43
-10 145 8 203 38 357 61 404 61 53 0 135 20 152 37 34 33 7 86 -42 81 -10 -1
-36 -3 -58 -5z"/>
<path d="M92 1528 c-30 -30 -13 -55 108 -159 67 -57 131 -109 143 -116 48 -27
87 -10 87 38 0 19 -11 35 -37 55 -54 40 -131 105 -162 134 -60 58 -111 76
-139 48z"/>
<path d="M1825 1394 c-89 -7 -397 -44 -525 -64 -69 -10 -163 -22 -210 -26
-102 -8 -117 -15 -136 -61 -13 -30 -14 -68 -4 -267 13 -274 18 -324 36 -353
17 -27 56 -30 74 -7 16 18 16 2 1 318 -6 137 -9 251 -7 254 12 11 594 84 774
97 l92 7 0 -49 c0 -26 -5 -86 -10 -133 -6 -47 -15 -128 -21 -180 -5 -52 -17
-117 -24 -143 -8 -27 -12 -62 -8 -78 13 -66 87 -60 98 8 4 21 13 61 20 88 8
28 18 95 24 150 6 55 15 138 21 185 17 150 16 218 -3 237 -18 18 -91 24 -192
17z"/>
<path d="M417 618 c-29 -40 -80 -117 -113 -171 -32 -53 -78 -127 -101 -164
-57 -90 -56 -143 4 -143 25 0 83 72 127 157 14 29 69 115 121 193 52 78 95
146 95 152 0 26 -23 48 -50 48 -25 0 -37 -11 -83 -72z"/>
</g>
</svg>
