<?xml version="1.0" standalone="no"?>
<!DOCTYPE svg PUBLIC "-//W3C//DTD SVG 20010904//EN"
 "http://www.w3.org/TR/2001/REC-SVG-20010904/DTD/svg10.dtd">
<svg version="1.0" xmlns="http://www.w3.org/2000/svg"
 width="248.000000pt" height="248.000000pt" viewBox="0 0 248.000000 248.000000"
 preserveAspectRatio="xMidYMid meet">
<metadata>
Created by potrace 1.10, written by Peter Selinger 2001-2011
</metadata>
<g transform="translate(0.000000,248.000000) scale(0.100000,-0.100000)"
fill="#000000" stroke="none">
<path d="M1270 2148 c-229 -17 -394 -40 -585 -83 -118 -26 -210 -52 -225 -63
-33 -25 -36 -56 -11 -88 12 -15 19 -35 16 -48 -14 -67 -24 -1462 -10 -1505 8
-27 40 -44 66 -36 29 10 41 48 29 99 -6 26 -8 255 -5 582 6 751 13 934 34 934
4 0 77 16 162 35 144 33 408 70 419 58 3 -2 5 -165 5 -360 0 -315 2 -357 16
-366 24 -15 67 0 75 25 4 12 6 174 6 358 0 185 3 343 8 350 8 13 63 15 332 17
178 1 341 -1 363 -5 l40 -7 2 -210 c3 -429 13 -900 22 -1003 11 -134 8 -270
-9 -389 -11 -79 -16 -93 -31 -93 -26 0 -135 42 -230 89 -92 46 -133 51 -149
21 -21 -40 -2 -59 113 -115 147 -72 218 -95 288 -95 53 0 89 15 89 38 0 4 7
52 16 107 16 100 22 450 9 505 -8 32 -17 423 -20 868 -2 385 2 365 -80 377
-60 9 -635 11 -755 3z"/>
</g>
</svg>
