<?xml version="1.0" standalone="no"?>
<!DOCTYPE svg PUBLIC "-//W3C//DTD SVG 20010904//EN"
 "http://www.w3.org/TR/2001/REC-SVG-20010904/DTD/svg10.dtd">
<svg version="1.0" xmlns="http://www.w3.org/2000/svg"
 width="248.000000pt" height="248.000000pt" viewBox="0 0 248.000000 248.000000"
 preserveAspectRatio="xMidYMid meet">
<metadata>
Created by potrace 1.10, written by Peter Selinger 2001-2011
</metadata>
<g transform="translate(0.000000,248.000000) scale(0.100000,-0.100000)"
fill="#000000" stroke="none">
<path d="M1270 2148 c-229 -17 -394 -40 -585 -83 -118 -26 -210 -52 -225 -63
-33 -25 -36 -56 -11 -88 12 -15 19 -35 16 -48 -15 -72 -25 -1460 -10 -1506 8
-26 40 -43 66 -35 29 9 41 48 30 98 -5 23 -9 212 -9 420 1 392 2 406 41 407 7
1 28 3 47 5 64 8 434 36 515 39 44 2 132 9 195 15 128 13 207 17 487 27 l192
7 0 -199 c0 -109 4 -248 9 -309 12 -136 9 -271 -8 -392 -11 -79 -16 -93 -31
-93 -26 0 -135 42 -230 89 -92 46 -133 51 -149 21 -21 -40 -2 -59 113 -115
147 -72 218 -95 288 -95 53 0 89 15 89 38 0 4 7 52 16 107 16 100 22 450 9
505 -8 32 -17 423 -20 868 -2 385 2 365 -80 377 -60 9 -635 11 -755 3z m695
-97 l40 -6 2 -308 2 -307 -222 0 c-122 -1 -233 -2 -247 -4 -14 -2 -80 -7 -147
-11 -112 -6 -122 -5 -126 12 -8 28 -7 597 1 610 4 7 32 13 62 16 96 6 593 5
635 -2z m-801 -38 c3 -16 5 -160 4 -320 l-2 -293 -30 -4 c-17 -3 -71 -7 -121
-10 -49 -3 -170 -13 -268 -21 -98 -9 -185 -14 -193 -11 -9 4 -13 14 -9 28 3
13 7 124 9 246 5 224 12 312 25 312 4 0 79 16 167 36 129 29 248 48 401 63 6
0 14 -11 17 -26z"/>
</g>
</svg>
