<?xml version="1.0" standalone="no"?>
<!DOCTYPE svg PUBLIC "-//W3C//DTD SVG 20010904//EN"
 "http://www.w3.org/TR/2001/REC-SVG-20010904/DTD/svg10.dtd">
<svg version="1.0" xmlns="http://www.w3.org/2000/svg"
 width="248.000000pt" height="248.000000pt" viewBox="0 0 248.000000 248.000000"
 preserveAspectRatio="xMidYMid meet">
<metadata>
Created by potrace 1.10, written by Peter Selinger 2001-2011
</metadata>
<g transform="translate(0.000000,248.000000) scale(0.100000,-0.100000)"
fill="#000000" stroke="none">
<path d="M1822 2055 c-83 -56 -188 -109 -367 -183 -193 -81 -341 -146 -352
-154 -16 -13 -17 -50 -1 -66 29 -29 89 -12 294 82 56 25 105 46 110 46 10 0 7
-541 -4 -815 l-7 -160 -107 -3 -108 -3 -1 38 c0 21 -4 133 -8 250 -6 186 -9
215 -26 233 -10 11 -28 20 -40 20 -46 0 -48 -13 -44 -293 l4 -262 -76 -5 c-82
-5 -109 -19 -109 -56 0 -46 31 -54 170 -43 69 6 319 13 555 17 388 6 434 9
458 25 29 19 36 54 15 75 -9 9 -87 12 -290 12 l-278 0 0 83 c0 45 3 152 7 239
l6 156 81 7 c114 9 246 33 263 47 23 19 12 61 -20 76 -21 10 -39 11 -75 3 -26
-5 -94 -13 -150 -17 l-103 -7 3 218 3 219 50 20 c66 28 205 110 239 141 41 38
31 95 -19 95 -11 0 -44 -16 -73 -35z"/>
<path d="M838 1995 c-9 -10 -157 -26 -310 -34 -160 -9 -198 -21 -198 -65 0
-45 18 -49 182 -42 84 3 180 10 213 14 33 5 61 9 61 8 1 -1 -15 -29 -35 -63
-55 -94 -144 -221 -205 -293 -93 -109 -73 -140 91 -140 115 0 118 -2 84 -68
-10 -20 -26 -62 -36 -92 -23 -72 -124 -280 -136 -280 -10 0 -130 103 -173 149
-45 47 -106 39 -106 -14 0 -23 54 -83 154 -172 l70 -61 -75 -118 c-48 -78 -99
-143 -146 -189 -69 -68 -77 -80 -74 -118 1 -21 38 -37 63 -28 41 15 149 134
222 246 44 66 83 124 87 129 4 5 34 -13 66 -41 54 -46 77 -61 209 -134 65 -37
292 -121 466 -174 91 -27 362 -78 508 -95 47 -6 112 -15 145 -21 33 -7 130
-12 215 -13 134 -1 160 2 183 17 29 19 36 57 13 76 -15 12 -19 13 -161 11
-162 -1 -370 26 -745 94 -81 15 -248 65 -355 106 -27 10 -84 32 -127 49 -96
37 -192 93 -285 167 l-72 57 33 61 c73 132 199 444 198 490 -1 44 -22 57 -114
70 l-85 11 64 90 c34 50 82 123 105 163 24 41 55 93 70 115 29 44 36 98 16
115 -16 12 -72 25 -80 17z"/>
</g>
</svg>
