<?xml version="1.0" standalone="no"?>
<!DOCTYPE svg PUBLIC "-//W3C//DTD SVG 20010904//EN"
 "http://www.w3.org/TR/2001/REC-SVG-20010904/DTD/svg10.dtd">
<svg version="1.0" xmlns="http://www.w3.org/2000/svg"
 width="248.000000pt" height="248.000000pt" viewBox="0 0 248.000000 248.000000"
 preserveAspectRatio="xMidYMid meet">
<metadata>
Created by potrace 1.10, written by Peter Selinger 2001-2011
</metadata>
<g transform="translate(0.000000,248.000000) scale(0.100000,-0.100000)"
fill="#000000" stroke="none">
<path d="M446 1998 c-13 -19 -16 -57 -16 -243 l0 -222 -102 -22 c-57 -13 -132
-30 -168 -38 -35 -7 -70 -19 -77 -25 -21 -17 -15 -56 12 -74 27 -17 24 -18
253 35 l82 19 0 -252 c0 -138 -3 -301 -6 -361 l-7 -110 -125 -65 c-69 -36
-136 -73 -149 -83 -39 -31 -25 -87 22 -87 12 0 136 58 276 129 357 181 401
205 423 234 18 25 18 27 2 52 -24 36 -43 31 -192 -49 -67 -36 -127 -66 -134
-66 -10 0 -11 19 -7 83 4 45 7 200 7 344 l0 261 48 16 c26 9 83 24 127 35 44
10 87 22 97 26 36 15 26 78 -15 88 -20 6 -188 -28 -239 -48 -17 -7 -18 6 -18
191 0 218 -6 247 -52 252 -18 2 -31 -4 -42 -20z"/>
</g>
</svg>
