<?xml version="1.0" standalone="no"?>
<!DOCTYPE svg PUBLIC "-//W3C//DTD SVG 20010904//EN"
 "http://www.w3.org/TR/2001/REC-SVG-20010904/DTD/svg10.dtd">
<svg version="1.0" xmlns="http://www.w3.org/2000/svg"
 width="248.000000pt" height="248.000000pt" viewBox="0 0 248.000000 248.000000"
 preserveAspectRatio="xMidYMid meet">
<metadata>
Created by potrace 1.10, written by Peter Selinger 2001-2011
</metadata>
<g transform="translate(0.000000,248.000000) scale(0.100000,-0.100000)"
fill="#000000" stroke="none">
<path d="M1120 2205 c-7 -9 -13 -53 -15 -108 -3 -117 -33 -239 -92 -370 -52
-117 -60 -151 -43 -172 17 -20 54 -19 72 3 8 9 30 49 48 87 17 39 37 79 43 90
6 11 16 38 22 60 12 40 12 40 81 52 38 7 107 17 154 22 102 12 271 36 395 56
50 8 148 22 219 31 72 8 138 20 147 25 24 12 32 44 19 69 -14 26 -51 26 -235
1 -432 -60 -520 -72 -618 -87 -59 -9 -110 -14 -113 -11 -3 2 -1 38 4 80 10 79
3 147 -18 172 -16 19 -54 19 -70 0z"/>
<path d="M446 1998 c-13 -19 -16 -57 -16 -243 l0 -222 -102 -22 c-57 -13 -132
-30 -168 -38 -35 -7 -70 -19 -77 -25 -21 -17 -15 -56 12 -74 27 -17 24 -18
253 35 l82 19 0 -252 c0 -138 -3 -301 -6 -361 l-7 -110 -125 -65 c-69 -36
-136 -73 -149 -83 -39 -31 -25 -87 22 -87 12 0 136 58 276 129 357 181 401
205 423 234 18 25 18 27 2 52 -24 36 -43 31 -192 -49 -67 -36 -127 -66 -134
-66 -10 0 -11 19 -7 83 4 45 7 200 7 344 l0 261 48 16 c26 9 83 24 127 35 44
10 87 22 97 26 36 15 26 78 -15 88 -20 6 -188 -28 -239 -48 -17 -7 -18 6 -18
191 0 218 -6 247 -52 252 -18 2 -31 -4 -42 -20z"/>
<path d="M1770 1774 c-69 -12 -171 -30 -228 -39 -57 -8 -131 -22 -165 -30 -34
-8 -74 -15 -89 -15 -18 0 -33 -9 -44 -26 -16 -23 -16 -36 -5 -137 22 -190 30
-231 48 -244 25 -19 26 -19 348 22 66 8 155 19 197 25 43 5 86 14 96 19 19 10
30 45 78 246 22 93 24 115 14 147 -19 65 -50 69 -250 32z m150 -90 c0 -4 -9
-41 -20 -83 -10 -42 -23 -94 -27 -116 -8 -34 -13 -40 -43 -47 -39 -8 -416 -57
-451 -58 -12 0 -18 21 -27 102 -7 55 -11 103 -9 105 6 6 182 41 322 64 72 12
148 25 170 29 52 10 85 12 85 4z"/>
<path d="M1980 1149 c-183 -22 -306 -36 -450 -49 -58 -5 -150 -14 -205 -20
-55 -6 -142 -15 -193 -19 -66 -6 -98 -13 -110 -24 -15 -15 -16 -42 -13 -236 3
-259 22 -493 41 -516 20 -25 63 -15 78 18 11 23 11 53 3 155 -6 70 -12 209
-14 309 l-2 182 80 10 c44 6 104 12 132 14 l52 2 6 -170 c12 -317 20 -432 34
-449 20 -24 58 -20 77 9 14 22 15 51 3 320 -7 162 -10 298 -6 301 3 3 70 12
149 19 79 8 195 20 258 28 177 23 250 28 250 19 0 -27 -32 -307 -35 -313 -3
-4 -16 -86 -30 -184 -28 -196 -25 -227 26 -233 36 -4 49 17 59 90 22 164 42
296 50 328 5 19 16 103 25 187 19 171 13 211 -31 232 -31 14 -43 13 -234 -10z"/>
</g>
</svg>
