<?xml version="1.0" standalone="no"?>
<!DOCTYPE svg PUBLIC "-//W3C//DTD SVG 20010904//EN"
 "http://www.w3.org/TR/2001/REC-SVG-20010904/DTD/svg10.dtd">
<svg version="1.0" xmlns="http://www.w3.org/2000/svg"
 width="248.000000pt" height="248.000000pt" viewBox="0 0 248.000000 248.000000"
 preserveAspectRatio="xMidYMid meet">
<metadata>
Created by potrace 1.10, written by Peter Selinger 2001-2011
</metadata>
<g transform="translate(0.000000,248.000000) scale(0.100000,-0.100000)"
fill="#000000" stroke="none">
<path d="M212 1878 c-17 -17 -15 -53 6 -70 20 -17 114 -58 134 -58 7 0 54 -21
103 -46 154 -79 192 -86 216 -43 13 25 -10 65 -46 79 -12 5 -56 25 -97 45 -85
43 -254 105 -283 105 -12 0 -26 -5 -33 -12z"/>
<path d="M162 1284 c-24 -17 -29 -56 -9 -72 15 -13 179 -66 297 -97 89 -24
119 -21 130 11 15 41 -4 59 -87 83 -43 13 -126 38 -185 57 -125 39 -117 38
-146 18z"/>
</g>
</svg>
