<?xml version="1.0" standalone="no"?>
<!DOCTYPE svg PUBLIC "-//W3C//DTD SVG 20010904//EN"
 "http://www.w3.org/TR/2001/REC-SVG-20010904/DTD/svg10.dtd">
<svg version="1.0" xmlns="http://www.w3.org/2000/svg"
 width="248.000000pt" height="248.000000pt" viewBox="0 0 248.000000 248.000000"
 preserveAspectRatio="xMidYMid meet">
<metadata>
Created by potrace 1.10, written by Peter Selinger 2001-2011
</metadata>
<g transform="translate(0.000000,248.000000) scale(0.100000,-0.100000)"
fill="#000000" stroke="none">
<path d="M670 1605 c-52 -14 -122 -34 -155 -45 -54 -18 -160 -44 -355 -87 -35
-8 -70 -19 -77 -25 -21 -17 -15 -56 12 -74 22 -14 31 -14 92 -1 208 45 278 62
373 92 58 18 130 38 160 44 104 23 117 32 110 81 -5 40 -48 44 -160 15z"/>
</g>
</svg>
