<?xml version="1.0" standalone="no"?>
<!DOCTYPE svg PUBLIC "-//W3C//DTD SVG 20010904//EN"
 "http://www.w3.org/TR/2001/REC-SVG-20010904/DTD/svg10.dtd">
<svg version="1.0" xmlns="http://www.w3.org/2000/svg"
 width="248.000000pt" height="248.000000pt" viewBox="0 0 248.000000 248.000000"
 preserveAspectRatio="xMidYMid meet">
<metadata>
Created by potrace 1.10, written by Peter Selinger 2001-2011
</metadata>
<g transform="translate(0.000000,248.000000) scale(0.100000,-0.100000)"
fill="#000000" stroke="none">
<path d="M827 2252 c-10 -10 -17 -22 -17 -27 0 -17 -65 -133 -108 -193 -210
-289 -334 -444 -454 -563 -51 -52 -88 -96 -88 -108 0 -25 26 -51 50 -51 27 0
134 97 220 199 41 49 76 88 77 87 5 -5 -18 -1011 -28 -1178 -12 -226 -7 -253
46 -253 22 0 33 7 41 25 7 14 17 124 23 245 11 201 35 1177 32 1269 -1 33 9
52 63 125 197 267 257 386 214 429 -18 18 -53 15 -71 -6z"/>
</g>
</svg>
