<?xml version="1.0" standalone="no"?>
<!DOCTYPE svg PUBLIC "-//W3C//DTD SVG 20010904//EN"
 "http://www.w3.org/TR/2001/REC-SVG-20010904/DTD/svg10.dtd">
<svg version="1.0" xmlns="http://www.w3.org/2000/svg"
 width="248.000000pt" height="248.000000pt" viewBox="0 0 248.000000 248.000000"
 preserveAspectRatio="xMidYMid meet">
<metadata>
Created by potrace 1.10, written by Peter Selinger 2001-2011
</metadata>
<g transform="translate(0.000000,248.000000) scale(0.100000,-0.100000)"
fill="#000000" stroke="none">
<path d="M827 2252 c-10 -10 -17 -22 -17 -27 0 -17 -65 -133 -108 -193 -210
-289 -334 -444 -454 -563 -51 -52 -88 -96 -88 -108 0 -25 26 -51 50 -51 27 0
134 97 220 199 41 49 76 88 77 87 5 -5 -18 -1011 -28 -1178 -12 -226 -7 -253
46 -253 22 0 33 7 41 25 7 14 17 124 23 245 11 201 35 1177 32 1269 -1 33 9
52 63 125 197 267 257 386 214 429 -18 18 -53 15 -71 -6z"/>
<path d="M1429 2254 c-7 -8 -15 -45 -18 -82 l-6 -66 -36 -8 c-20 -4 -71 -11
-113 -17 -87 -10 -108 -23 -104 -60 5 -46 43 -57 137 -42 45 8 84 11 86 9 9
-9 -80 -257 -94 -263 -8 -3 -114 -10 -235 -16 -124 -6 -232 -16 -246 -23 -18
-8 -25 -19 -25 -41 0 -49 29 -56 185 -50 74 4 221 15 325 25 315 31 429 39
690 51 138 6 260 15 272 20 47 18 36 82 -15 94 -16 3 -103 1 -193 -4 -90 -6
-178 -11 -195 -11 l-31 0 13 43 c86 283 90 310 54 339 -25 20 -17 21 -220 -8
-58 -8 -114 -16 -125 -17 -17 -2 -19 4 -16 46 3 58 -18 97 -53 97 -13 0 -29
-7 -37 -16z m318 -343 c-35 -121 -43 -140 -63 -145 -32 -9 -266 -27 -272 -22
-2 3 10 42 27 88 16 46 35 104 42 130 11 46 12 47 63 57 87 18 159 29 202 30
l41 1 -40 -139z"/>
<path d="M1717 1584 c-81 -7 -170 -17 -198 -23 -27 -6 -135 -14 -239 -18 -105
-3 -200 -11 -211 -17 -36 -18 -37 -45 -8 -176 16 -69 29 -137 29 -151 0 -35
22 -61 51 -60 204 4 640 31 745 47 39 6 55 24 89 99 60 135 82 248 55 281 -16
18 -76 34 -125 33 -22 -1 -106 -8 -188 -15z m223 -96 c0 -3 -44 -123 -61 -169
-10 -25 -16 -27 -117 -38 -93 -11 -562 -32 -570 -26 -3 2 -42 161 -42 169 0 2
64 7 143 10 78 4 169 12 202 17 111 20 446 47 445 37z"/>
<path d="M2030 1117 c-3 -3 -78 -11 -168 -17 -89 -6 -187 -15 -218 -20 -30 -5
-202 -17 -382 -26 -180 -9 -333 -21 -339 -27 -18 -13 -16 -52 2 -67 8 -6 31
-16 50 -20 40 -9 510 14 615 30 36 5 135 14 221 20 203 13 296 25 314 40 19
16 19 54 0 70 -15 13 -87 25 -95 17z"/>
</g>
</svg>
