<?xml version="1.0" standalone="no"?>
<!DOCTYPE svg PUBLIC "-//W3C//DTD SVG 20010904//EN"
 "http://www.w3.org/TR/2001/REC-SVG-20010904/DTD/svg10.dtd">
<svg version="1.0" xmlns="http://www.w3.org/2000/svg"
 width="248.000000pt" height="248.000000pt" viewBox="0 0 248.000000 248.000000"
 preserveAspectRatio="xMidYMid meet">
<metadata>
Created by potrace 1.10, written by Peter Selinger 2001-2011
</metadata>
<g transform="translate(0.000000,248.000000) scale(0.100000,-0.100000)"
fill="#000000" stroke="none">
<path d="M827 2252 c-10 -10 -17 -22 -17 -27 0 -17 -65 -133 -108 -193 -210
-289 -334 -444 -454 -563 -51 -52 -88 -96 -88 -108 0 -25 26 -51 50 -51 27 0
134 97 220 199 41 49 76 88 77 87 5 -5 -18 -1011 -28 -1178 -12 -226 -7 -253
46 -253 22 0 33 7 41 25 7 14 17 124 23 245 11 201 35 1177 32 1269 -1 33 9
52 63 125 197 267 257 386 214 429 -18 18 -53 15 -71 -6z"/>
<path d="M1429 2254 c-7 -8 -15 -45 -18 -82 l-6 -66 -36 -8 c-20 -4 -71 -11
-113 -17 -87 -10 -108 -23 -104 -60 5 -46 43 -57 137 -42 45 8 84 11 87 9 2
-3 -14 -56 -36 -118 -42 -118 -48 -158 -28 -178 19 -19 56 -14 72 11 20 29 81
193 96 256 9 41 16 50 38 56 41 10 212 35 242 35 l28 0 -44 -147 c-57 -194
-56 -233 3 -233 31 0 46 28 81 150 17 58 42 144 56 193 27 94 25 126 -13 146
-19 11 -74 6 -232 -18 -133 -20 -124 -23 -120 32 3 58 -18 97 -53 97 -13 0
-29 -7 -37 -16z"/>
</g>
</svg>
