<?xml version="1.0" standalone="no"?>
<!DOCTYPE svg PUBLIC "-//W3C//DTD SVG 20010904//EN"
 "http://www.w3.org/TR/2001/REC-SVG-20010904/DTD/svg10.dtd">
<svg version="1.0" xmlns="http://www.w3.org/2000/svg"
 width="248.000000pt" height="248.000000pt" viewBox="0 0 248.000000 248.000000"
 preserveAspectRatio="xMidYMid meet">
<metadata>
Created by potrace 1.10, written by Peter Selinger 2001-2011
</metadata>
<g transform="translate(0.000000,248.000000) scale(0.100000,-0.100000)"
fill="#000000" stroke="none">
<path d="M532 2258 c-8 -8 -12 -66 -12 -192 0 -100 -3 -191 -6 -203 -7 -25
-51 -38 -159 -49 -38 -4 -76 -11 -82 -17 -16 -12 -17 -49 -1 -65 14 -14 144
-16 201 -3 20 5 39 6 42 2 8 -14 18 -288 11 -333 l-7 -45 -97 -26 c-53 -14
-124 -31 -157 -37 -100 -18 -104 -20 -115 -40 -6 -12 -8 -30 -5 -40 13 -40 36
-41 176 -10 74 16 157 35 184 41 28 6 79 19 115 29 36 11 119 31 185 46 121
27 155 43 155 74 0 21 -31 50 -55 50 -9 0 -74 -14 -142 -30 -69 -17 -129 -28
-134 -25 -5 4 -9 89 -9 190 0 183 0 185 23 190 12 3 64 14 116 25 141 30 201
66 175 107 -22 35 -39 37 -105 16 -78 -26 -186 -46 -205 -39 -11 4 -14 42 -14
189 0 192 -3 207 -45 207 -12 0 -26 -5 -33 -12z"/>
</g>
</svg>
