<?xml version="1.0" standalone="no"?>
<!DOCTYPE svg PUBLIC "-//W3C//DTD SVG 20010904//EN"
 "http://www.w3.org/TR/2001/REC-SVG-20010904/DTD/svg10.dtd">
<svg version="1.0" xmlns="http://www.w3.org/2000/svg"
 width="248.000000pt" height="248.000000pt" viewBox="0 0 248.000000 248.000000"
 preserveAspectRatio="xMidYMid meet">
<metadata>
Created by potrace 1.10, written by Peter Selinger 2001-2011
</metadata>
<g transform="translate(0.000000,248.000000) scale(0.100000,-0.100000)"
fill="#000000" stroke="none">
<path d="M532 2258 c-8 -8 -12 -66 -12 -192 0 -100 -3 -191 -6 -203 -7 -25
-51 -38 -159 -49 -38 -4 -76 -11 -82 -17 -16 -12 -17 -49 -1 -65 14 -14 144
-16 201 -3 20 5 39 6 42 2 8 -14 18 -288 11 -333 l-7 -45 -97 -26 c-53 -14
-124 -31 -157 -37 -100 -18 -104 -20 -115 -40 -6 -12 -8 -30 -5 -40 13 -40 36
-41 181 -9 77 17 151 33 166 36 26 5 26 5 30 -63 2 -38 5 -167 7 -286 2 -193
0 -218 -14 -218 -8 0 -56 17 -106 37 l-90 37 5 35 c3 20 8 78 12 129 7 101 0
122 -42 122 -36 0 -52 -36 -59 -130 -19 -243 -91 -486 -171 -571 -28 -29 -31
-61 -8 -83 22 -23 39 -20 78 14 47 41 111 169 140 280 14 51 27 95 30 97 2 2
17 -2 33 -10 28 -15 122 -45 413 -132 85 -26 195 -64 245 -84 137 -57 356
-135 490 -175 188 -55 338 -76 591 -83 217 -6 222 -5 243 16 25 25 27 44 7 64
-12 11 -62 15 -233 20 -370 8 -553 52 -1043 246 -63 25 -182 66 -265 91 l-150
47 -7 44 c-3 24 -7 81 -7 126 -1 93 -12 83 106 102 93 15 200 49 207 66 9 25
-11 62 -37 67 -14 3 -55 -3 -93 -13 -107 -28 -165 -34 -175 -18 -5 8 -9 69 -9
136 l0 122 53 15 c28 8 97 25 152 37 102 22 135 39 135 69 0 21 -31 50 -55 50
-9 0 -74 -14 -142 -30 -69 -17 -129 -28 -134 -25 -5 4 -9 89 -9 190 0 183 0
185 23 190 12 3 64 14 116 25 141 30 201 66 175 107 -22 35 -39 37 -105 16
-78 -26 -186 -46 -205 -39 -11 4 -14 42 -14 189 0 192 -3 207 -45 207 -12 0
-26 -5 -33 -12z"/>
<path d="M1112 1668 c-6 -8 -12 -120 -15 -278 -3 -146 -10 -321 -16 -390 -6
-69 -13 -168 -15 -220 -3 -52 -8 -109 -11 -127 -6 -26 -3 -34 18 -47 18 -12
31 -14 49 -7 41 15 184 202 271 352 33 56 35 104 7 119 -31 17 -54 4 -80 -43
-13 -23 -52 -85 -88 -137 l-63 -95 5 85 c3 47 9 239 12 428 5 264 3 346 -6
357 -15 18 -54 20 -68 3z"/>
</g>
</svg>
