<?xml version="1.0" standalone="no"?>
<!DOCTYPE svg PUBLIC "-//W3C//DTD SVG 20010904//EN"
 "http://www.w3.org/TR/2001/REC-SVG-20010904/DTD/svg10.dtd">
<svg version="1.0" xmlns="http://www.w3.org/2000/svg"
 width="248.000000pt" height="248.000000pt" viewBox="0 0 248.000000 248.000000"
 preserveAspectRatio="xMidYMid meet">
<metadata>
Created by potrace 1.10, written by Peter Selinger 2001-2011
</metadata>
<g transform="translate(0.000000,248.000000) scale(0.100000,-0.100000)"
fill="#000000" stroke="none">
<path d="M532 2258 c-8 -8 -12 -66 -12 -192 0 -100 -3 -191 -6 -203 -7 -25
-51 -38 -159 -49 -38 -4 -76 -11 -82 -17 -16 -12 -17 -49 -1 -65 14 -14 144
-16 201 -3 20 5 39 6 42 2 8 -14 18 -288 11 -333 l-7 -45 -97 -26 c-53 -14
-124 -31 -157 -37 -100 -18 -104 -20 -115 -40 -6 -12 -8 -30 -5 -40 13 -40 36
-41 181 -9 77 17 151 33 166 36 26 5 26 5 30 -63 2 -38 5 -167 7 -286 2 -193
0 -218 -14 -218 -8 0 -56 17 -106 37 l-90 37 5 35 c3 20 8 78 12 129 7 101 0
122 -42 122 -36 0 -52 -36 -59 -130 -19 -243 -91 -486 -171 -571 -28 -29 -31
-61 -8 -83 22 -23 39 -20 78 14 47 41 111 169 140 280 14 51 27 95 30 97 2 2
17 -2 33 -10 28 -15 122 -45 413 -132 85 -26 195 -64 245 -84 137 -57 356
-135 490 -175 188 -55 338 -76 591 -83 217 -6 222 -5 243 16 25 25 27 44 7 64
-12 11 -62 15 -233 20 -370 8 -553 52 -1043 246 -63 25 -182 66 -265 91 l-150
47 -7 44 c-3 24 -7 81 -7 126 -1 93 -12 83 106 102 93 15 200 49 207 66 9 25
-11 62 -37 67 -14 3 -55 -3 -93 -13 -107 -28 -165 -34 -175 -18 -5 8 -9 69 -9
136 l0 122 53 15 c28 8 97 25 152 37 102 22 135 39 135 69 0 21 -31 50 -55 50
-9 0 -74 -14 -142 -30 -69 -17 -129 -28 -134 -25 -5 4 -9 89 -9 190 0 183 0
185 23 190 12 3 64 14 116 25 141 30 201 66 175 107 -22 35 -39 37 -105 16
-78 -26 -186 -46 -205 -39 -11 4 -14 42 -14 189 0 192 -3 207 -45 207 -12 0
-26 -5 -33 -12z"/>
<path d="M1554 2245 c-13 -21 -15 -39 -10 -98 7 -75 43 -316 52 -354 7 -27
-24 -37 -191 -59 -167 -21 -283 -45 -295 -59 -6 -8 -12 -120 -14 -281 -2 -148
-8 -325 -14 -394 -7 -69 -14 -168 -16 -220 -3 -52 -8 -109 -11 -127 -6 -26 -3
-34 18 -47 18 -12 31 -14 49 -7 41 15 184 202 271 352 33 56 35 104 7 119 -31
17 -54 4 -80 -43 -13 -23 -52 -85 -88 -137 l-63 -95 5 85 c3 47 8 218 11 380
3 162 8 305 10 316 6 26 49 38 195 54 52 6 124 17 160 24 36 8 68 12 71 10 4
-2 9 -20 12 -41 18 -121 81 -366 128 -502 l30 -83 -33 -52 c-36 -55 -107 -144
-175 -218 -24 -26 -43 -52 -43 -58 0 -5 9 -19 21 -31 37 -37 89 -1 206 149 36
46 66 82 68 80 3 -5 104 -233 114 -261 17 -45 132 -242 149 -255 23 -18 56
-15 76 7 18 20 35 83 83 314 30 139 27 159 -19 165 -38 5 -54 -25 -77 -138
-11 -58 -27 -123 -34 -145 l-14 -39 -28 48 c-15 26 -40 78 -55 114 -15 37 -42
99 -60 137 -18 39 -40 93 -50 120 -17 50 -17 52 3 90 32 64 148 347 154 378
10 52 -45 78 -81 38 -9 -10 -43 -83 -76 -162 -32 -79 -62 -143 -66 -143 -14 2
-111 380 -126 488 -4 24 35 37 201 66 64 11 129 23 144 26 15 3 35 17 43 30
15 22 15 26 0 49 -9 14 -25 25 -36 25 -11 0 -99 -16 -196 -35 -98 -19 -179
-33 -182 -31 -7 8 -50 277 -57 366 -4 47 -12 91 -17 98 -17 21 -56 14 -74 -13z"/>
<path d="M1822 2248 c-28 -28 -12 -56 73 -135 47 -43 110 -93 140 -112 53 -33
55 -33 80 -17 40 26 31 63 -25 100 -25 16 -82 63 -128 103 -82 72 -114 87
-140 61z"/>
</g>
</svg>
