<?xml version="1.0" standalone="no"?>
<!DOCTYPE svg PUBLIC "-//W3C//DTD SVG 20010904//EN"
 "http://www.w3.org/TR/2001/REC-SVG-20010904/DTD/svg10.dtd">
<svg version="1.0" xmlns="http://www.w3.org/2000/svg"
 width="248.000000pt" height="248.000000pt" viewBox="0 0 248.000000 248.000000"
 preserveAspectRatio="xMidYMid meet">
<metadata>
Created by potrace 1.10, written by Peter Selinger 2001-2011
</metadata>
<g transform="translate(0.000000,248.000000) scale(0.100000,-0.100000)"
fill="#000000" stroke="none">
<path d="M532 2258 c-8 -8 -12 -66 -12 -192 0 -100 -3 -191 -6 -203 -7 -25
-51 -38 -159 -49 -38 -4 -76 -11 -82 -17 -16 -12 -17 -49 -1 -65 14 -14 144
-16 201 -3 20 5 39 6 42 2 8 -14 18 -288 11 -333 l-7 -45 -97 -26 c-53 -14
-124 -31 -157 -37 -100 -18 -104 -20 -115 -40 -6 -12 -8 -30 -5 -40 13 -40 36
-41 181 -9 77 17 151 33 165 36 l26 5 8 -142 c4 -78 5 -227 3 -331 -3 -206 -3
-209 53 -209 47 0 51 15 43 179 l-7 150 24 5 c13 3 52 9 86 15 93 15 200 49
207 66 9 25 -11 62 -37 67 -14 3 -55 -3 -93 -13 -107 -28 -165 -34 -175 -18
-5 8 -9 69 -9 136 l0 122 53 15 c28 8 97 25 152 37 102 22 135 39 135 69 0 21
-31 50 -55 50 -9 0 -74 -14 -142 -30 -69 -17 -129 -28 -134 -25 -5 4 -9 89 -9
190 0 183 0 185 23 190 12 3 64 14 116 25 141 30 201 66 175 107 -22 35 -39
37 -105 16 -78 -26 -186 -46 -205 -39 -11 4 -14 42 -14 189 0 192 -3 207 -45
207 -12 0 -26 -5 -33 -12z"/>
<path d="M256 1008 c-8 -13 -17 -61 -21 -108 -19 -243 -91 -486 -171 -571 -28
-29 -31 -61 -8 -83 22 -23 39 -20 78 14 64 57 128 205 170 398 25 113 41 338
26 357 -19 22 -57 18 -74 -7z"/>
</g>
</svg>
