<?xml version="1.0" standalone="no"?>
<!DOCTYPE svg PUBLIC "-//W3C//DTD SVG 20010904//EN"
 "http://www.w3.org/TR/2001/REC-SVG-20010904/DTD/svg10.dtd">
<svg version="1.0" xmlns="http://www.w3.org/2000/svg"
 width="248.000000pt" height="248.000000pt" viewBox="0 0 248.000000 248.000000"
 preserveAspectRatio="xMidYMid meet">
<metadata>
Created by potrace 1.10, written by Peter Selinger 2001-2011
</metadata>
<g transform="translate(0.000000,248.000000) scale(0.100000,-0.100000)"
fill="#000000" stroke="none">
<path d="M1682 2411 c-8 -5 -46 -48 -86 -97 -47 -59 -99 -108 -150 -145 -91
-65 -103 -81 -87 -115 32 -71 181 30 354 240 46 56 53 83 28 107 -12 13 -46
18 -59 10z"/>
<path d="M692 2328 c-21 -21 -13 -43 47 -134 106 -161 162 -209 199 -172 22
22 12 56 -33 111 -24 30 -60 82 -80 116 -49 83 -99 113 -133 79z"/>
</g>
</svg>
