<?xml version="1.0" standalone="no"?>
<!DOCTYPE svg PUBLIC "-//W3C//DTD SVG 20010904//EN"
 "http://www.w3.org/TR/2001/REC-SVG-20010904/DTD/svg10.dtd">
<svg version="1.0" xmlns="http://www.w3.org/2000/svg"
 width="248.000000pt" height="248.000000pt" viewBox="0 0 248.000000 248.000000"
 preserveAspectRatio="xMidYMid meet">
<metadata>
Created by potrace 1.10, written by Peter Selinger 2001-2011
</metadata>
<g transform="translate(0.000000,248.000000) scale(0.100000,-0.100000)"
fill="#000000" stroke="none">
<path d="M1682 2411 c-8 -5 -46 -48 -86 -97 -47 -59 -99 -108 -150 -145 -91
-65 -103 -81 -87 -115 32 -71 181 30 354 240 46 56 53 83 28 107 -12 13 -46
18 -59 10z"/>
<path d="M692 2328 c-21 -21 -13 -43 47 -134 106 -161 162 -209 199 -172 22
22 12 56 -33 111 -24 30 -60 82 -80 116 -49 83 -99 113 -133 79z"/>
<path d="M1825 2039 c-35 -7 -221 -26 -745 -74 -85 -8 -232 -15 -326 -15 -178
0 -194 -4 -194 -45 0 -41 16 -45 182 -45 155 0 159 0 168 -22 4 -13 8 -152 7
-309 l-2 -287 -100 -6 c-55 -4 -161 -13 -235 -21 -74 -8 -198 -19 -275 -25
-77 -7 -147 -15 -155 -19 -20 -11 -24 -55 -6 -70 14 -12 207 -18 225 -7 4 3
45 7 91 11 47 3 126 10 175 15 142 15 381 29 485 29 52 1 172 6 265 13 169 12
697 17 829 8 59 -4 70 -2 82 15 18 24 18 36 0 61 -14 18 -31 19 -465 19 l-451
0 1 302 c0 213 4 306 12 317 9 11 62 19 237 32 256 20 290 28 290 73 0 26 -31
64 -50 60 -3 -1 -23 -5 -45 -10z m-540 -424 c0 -143 -3 -282 -6 -310 l-7 -50
-126 -9 c-69 -4 -132 -6 -139 -3 -9 3 -11 22 -6 73 3 38 7 172 8 299 1 126 5
233 9 237 8 8 182 26 232 24 l35 -1 0 -260z"/>
<path d="M1753 1789 c-12 -4 -24 -18 -28 -31 -10 -30 -108 -173 -150 -218 -58
-62 -65 -103 -21 -120 43 -16 86 24 189 173 72 104 91 146 79 172 -12 26 -39
35 -69 24z"/>
<path d="M472 1688 c-18 -18 -15 -45 12 -91 13 -23 41 -84 61 -136 41 -108 49
-121 79 -121 29 0 46 18 46 50 0 38 -81 237 -113 276 -29 35 -63 44 -85 22z"/>
<path d="M1298 1045 c-2 -1 -64 -5 -138 -9 -74 -4 -157 -9 -185 -12 -158 -16
-211 -25 -223 -38 -11 -11 -11 -31 -2 -112 6 -54 17 -243 23 -419 l12 -320 36
-18 c30 -14 44 -15 90 -6 30 6 179 12 332 14 177 3 283 8 292 15 11 9 24 86
40 235 3 28 12 111 20 185 8 74 18 210 21 301 7 164 7 167 -15 178 -18 10
-292 16 -303 6z m227 -120 c-1 -61 -15 -237 -21 -260 -5 -21 -13 -24 -87 -29
-45 -4 -102 -9 -127 -11 -25 -2 -130 -5 -235 -7 l-190 -3 -8 143 c-5 79 -6
146 -3 149 10 11 502 49 611 49 60 -1 60 -1 60 -31z m-35 -411 c0 -46 -31
-279 -38 -286 -4 -3 -135 -8 -292 -10 l-285 -3 -3 148 -3 147 28 1 c16 1 39 3
53 5 14 2 124 8 245 12 121 5 237 10 258 10 34 2 37 0 37 -24z"/>
</g>
</svg>
