<?xml version="1.0" standalone="no"?>
<!DOCTYPE svg PUBLIC "-//W3C//DTD SVG 20010904//EN"
 "http://www.w3.org/TR/2001/REC-SVG-20010904/DTD/svg10.dtd">
<svg version="1.0" xmlns="http://www.w3.org/2000/svg"
 width="248.000000pt" height="248.000000pt" viewBox="0 0 248.000000 248.000000"
 preserveAspectRatio="xMidYMid meet">
<metadata>
Created by potrace 1.10, written by Peter Selinger 2001-2011
</metadata>
<g transform="translate(0.000000,248.000000) scale(0.100000,-0.100000)"
fill="#000000" stroke="none">
<path d="M1682 2411 c-8 -5 -46 -48 -86 -97 -47 -59 -99 -108 -150 -145 -91
-65 -103 -81 -87 -115 32 -71 181 30 354 240 46 56 53 83 28 107 -12 13 -46
18 -59 10z"/>
<path d="M692 2328 c-21 -21 -13 -43 47 -134 106 -161 162 -209 199 -172 22
22 12 56 -33 111 -24 30 -60 82 -80 116 -49 83 -99 113 -133 79z"/>
<path d="M1825 2039 c-35 -7 -221 -26 -745 -74 -85 -8 -232 -15 -326 -15 -178
0 -194 -4 -194 -45 0 -41 16 -45 182 -45 155 0 159 0 168 -22 5 -13 7 -146 5
-297 -5 -289 -3 -301 40 -301 46 0 48 14 53 318 2 158 7 290 11 293 7 7 344
43 651 68 113 10 215 23 228 30 30 16 30 64 0 85 -12 9 -25 16 -28 15 -3 -1
-23 -5 -45 -10z"/>
</g>
</svg>
