<?xml version="1.0" standalone="no"?>
<!DOCTYPE svg PUBLIC "-//W3C//DTD SVG 20010904//EN"
 "http://www.w3.org/TR/2001/REC-SVG-20010904/DTD/svg10.dtd">
<svg version="1.0" xmlns="http://www.w3.org/2000/svg"
 width="248.000000pt" height="248.000000pt" viewBox="0 0 248.000000 248.000000"
 preserveAspectRatio="xMidYMid meet">
<metadata>
Created by potrace 1.10, written by Peter Selinger 2001-2011
</metadata>
<g transform="translate(0.000000,248.000000) scale(0.100000,-0.100000)"
fill="#000000" stroke="none">
<path d="M593 2301 c-16 -22 -47 -75 -71 -118 -23 -43 -83 -125 -132 -183 -90
-105 -106 -140 -78 -168 25 -25 53 -12 113 52 l60 65 115 16 c152 20 147 21
159 -17 5 -18 24 -73 41 -123 41 -116 67 -138 111 -94 24 24 21 48 -22 157
-44 111 -48 106 89 125 64 10 129 17 145 17 29 0 67 31 67 55 0 8 -9 24 -21
36 -16 16 -29 19 -52 15 -64 -12 -519 -67 -526 -64 -5 2 16 46 45 98 53 96 64
136 42 158 -24 24 -57 13 -85 -27z"/>
</g>
</svg>
