<?xml version="1.0" standalone="no"?>
<!DOCTYPE svg PUBLIC "-//W3C//DTD SVG 20010904//EN"
 "http://www.w3.org/TR/2001/REC-SVG-20010904/DTD/svg10.dtd">
<svg version="1.0" xmlns="http://www.w3.org/2000/svg"
 width="248.000000pt" height="248.000000pt" viewBox="0 0 248.000000 248.000000"
 preserveAspectRatio="xMidYMid meet">
<metadata>
Created by potrace 1.10, written by Peter Selinger 2001-2011
</metadata>
<g transform="translate(0.000000,248.000000) scale(0.100000,-0.100000)"
fill="#000000" stroke="none">
<path d="M1605 2065 c-317 -14 -568 -30 -685 -45 -41 -5 -131 -14 -200 -20
-220 -19 -353 -40 -372 -57 -22 -20 -23 -56 -2 -74 13 -11 40 -10 157 4 78 10
196 22 262 27 66 6 152 14 190 20 179 25 837 53 1111 48 177 -3 198 2 192 51
-5 44 -44 54 -213 56 -82 2 -280 -3 -440 -10z"/>
</g>
</svg>
