<?xml version="1.0" standalone="no"?>
<!DOCTYPE svg PUBLIC "-//W3C//DTD SVG 20010904//EN"
 "http://www.w3.org/TR/2001/REC-SVG-20010904/DTD/svg10.dtd">
<svg version="1.0" xmlns="http://www.w3.org/2000/svg"
 width="248.000000pt" height="248.000000pt" viewBox="0 0 248.000000 248.000000"
 preserveAspectRatio="xMidYMid meet">
<metadata>
Created by potrace 1.10, written by Peter Selinger 2001-2011
</metadata>
<g transform="translate(0.000000,248.000000) scale(0.100000,-0.100000)"
fill="#000000" stroke="none">
<path d="M1605 2065 c-317 -14 -568 -30 -685 -45 -41 -5 -131 -14 -200 -20
-220 -19 -353 -40 -372 -57 -22 -20 -23 -56 -2 -74 13 -11 40 -10 157 4 78 10
196 22 262 27 66 6 152 14 190 20 90 12 385 33 391 27 7 -7 -104 -213 -159
-297 -174 -262 -371 -460 -660 -662 -68 -48 -131 -82 -287 -158 -24 -11 -24
-54 0 -75 20 -18 23 -18 71 -3 121 39 340 184 554 369 149 128 240 232 387
439 55 78 208 358 208 381 0 15 33 17 316 24 174 4 344 5 378 1 48 -5 67 -3
84 10 33 23 26 64 -13 83 -41 20 -258 22 -620 6z"/>
</g>
</svg>
