<?xml version="1.0" standalone="no"?>
<!DOCTYPE svg PUBLIC "-//W3C//DTD SVG 20010904//EN"
 "http://www.w3.org/TR/2001/REC-SVG-20010904/DTD/svg10.dtd">
<svg version="1.0" xmlns="http://www.w3.org/2000/svg"
 width="248.000000pt" height="248.000000pt" viewBox="0 0 248.000000 248.000000"
 preserveAspectRatio="xMidYMid meet">
<metadata>
Created by potrace 1.10, written by Peter Selinger 2001-2011
</metadata>
<g transform="translate(0.000000,248.000000) scale(0.100000,-0.100000)"
fill="#000000" stroke="none">
<path d="M1250 2380 l-184 -5 -30 -44 c-51 -76 -218 -234 -366 -346 -29 -22
-80 -62 -114 -88 -33 -27 -95 -69 -138 -94 -95 -56 -112 -74 -104 -107 10 -39
49 -44 104 -15 81 44 234 153 384 276 158 128 194 161 255 233 l68 79 105 1
c58 0 143 3 189 7 l83 6 -23 -35 c-44 -66 -160 -203 -258 -303 l-97 -101 -79
-13 c-44 -8 -126 -19 -182 -25 -56 -6 -107 -16 -113 -22 -6 -6 -12 -133 -14
-350 -3 -186 -9 -357 -14 -379 -6 -22 -13 -111 -17 -197 l-7 -157 30 -31 c29
-29 34 -30 119 -30 119 0 538 29 588 40 60 14 169 12 199 -4 36 -18 62 -10 75
22 14 38 26 1119 12 1154 -20 53 -113 59 -326 24 -49 -9 -94 -15 -99 -16 -4 0
19 29 52 64 78 84 168 194 212 260 19 29 48 68 63 86 20 24 27 41 25 64 -4 43
-36 56 -133 54 -44 -1 -163 -5 -265 -8z m370 -720 l0 -129 -28 5 c-16 3 -84
-4 -153 -16 -68 -12 -196 -32 -284 -45 -88 -13 -180 -28 -205 -34 -25 -6 -57
-11 -72 -11 l-28 0 0 133 0 132 118 17 c64 10 153 22 197 28 177 22 320 42
324 46 2 2 33 4 68 4 l63 0 0 -130z m0 -273 c0 -30 -3 -88 -6 -128 l-7 -75
-231 -33 c-127 -18 -287 -41 -356 -51 -69 -11 -139 -19 -156 -20 l-31 0 4 98
c6 150 -5 136 130 161 65 12 154 26 198 32 44 5 143 21 220 34 77 13 158 26
180 28 22 2 43 4 48 5 4 1 7 -22 7 -51z m-10 -452 l0 -135 -44 0 c-24 0 -67
-4 -96 -10 -67 -13 -465 -40 -582 -40 l-89 0 5 33 c3 17 8 66 11 108 l6 75 92
13 c51 6 148 21 217 31 292 46 378 58 428 59 l52 1 0 -135z"/>
</g>
</svg>
