<?xml version="1.0" standalone="no"?>
<!DOCTYPE svg PUBLIC "-//W3C//DTD SVG 20010904//EN"
 "http://www.w3.org/TR/2001/REC-SVG-20010904/DTD/svg10.dtd">
<svg version="1.0" xmlns="http://www.w3.org/2000/svg"
 width="248.000000pt" height="248.000000pt" viewBox="0 0 248.000000 248.000000"
 preserveAspectRatio="xMidYMid meet">
<metadata>
Created by potrace 1.10, written by Peter Selinger 2001-2011
</metadata>
<g transform="translate(0.000000,248.000000) scale(0.100000,-0.100000)"
fill="#000000" stroke="none">
<path d="M1008 2292 c-36 -43 -89 -98 -117 -123 -29 -24 -78 -66 -110 -94 -32
-27 -82 -68 -111 -90 -29 -22 -78 -60 -108 -84 -30 -24 -91 -66 -135 -92 -96
-59 -117 -76 -117 -100 0 -24 27 -49 52 -49 25 0 172 86 248 146 30 24 84 66
120 93 179 138 320 270 380 353 45 61 37 118 -15 118 -15 0 -43 -25 -87 -78z"/>
</g>
</svg>
