<?xml version="1.0" standalone="no"?>
<!DOCTYPE svg PUBLIC "-//W3C//DTD SVG 20010904//EN"
 "http://www.w3.org/TR/2001/REC-SVG-20010904/DTD/svg10.dtd">
<svg version="1.0" xmlns="http://www.w3.org/2000/svg"
 width="248.000000pt" height="248.000000pt" viewBox="0 0 248.000000 248.000000"
 preserveAspectRatio="xMidYMid meet">
<metadata>
Created by potrace 1.10, written by Peter Selinger 2001-2011
</metadata>
<g transform="translate(0.000000,248.000000) scale(0.100000,-0.100000)"
fill="#000000" stroke="none">
<path d="M1250 2380 l-184 -5 -30 -44 c-51 -76 -218 -234 -366 -346 -29 -22
-80 -62 -114 -88 -33 -27 -95 -69 -138 -94 -95 -56 -112 -74 -104 -107 10 -39
49 -44 104 -15 81 44 234 153 384 276 158 128 194 161 255 233 l68 79 105 1
c58 0 143 3 189 7 l83 6 -23 -35 c-45 -67 -160 -203 -259 -305 -86 -88 -98
-106 -91 -125 12 -34 34 -43 69 -29 54 22 274 263 362 395 19 29 48 68 63 86
20 24 27 41 25 64 -4 43 -36 56 -133 54 -44 -1 -163 -5 -265 -8z"/>
</g>
</svg>
