<?xml version="1.0" standalone="no"?>
<!DOCTYPE svg PUBLIC "-//W3C//DTD SVG 20010904//EN"
 "http://www.w3.org/TR/2001/REC-SVG-20010904/DTD/svg10.dtd">
<svg version="1.0" xmlns="http://www.w3.org/2000/svg"
 width="248.000000pt" height="248.000000pt" viewBox="0 0 248.000000 248.000000"
 preserveAspectRatio="xMidYMid meet">
<metadata>
Created by potrace 1.10, written by Peter Selinger 2001-2011
</metadata>
<g transform="translate(0.000000,248.000000) scale(0.100000,-0.100000)"
fill="#000000" stroke="none">
<path d="M1250 2380 l-184 -5 -30 -44 c-51 -76 -218 -234 -366 -346 -29 -22
-80 -62 -114 -88 -33 -27 -95 -69 -138 -94 -95 -56 -112 -74 -104 -107 10 -39
49 -44 104 -15 81 44 234 153 384 276 158 128 194 161 255 233 l68 79 105 1
c58 0 143 3 189 7 l83 6 -23 -35 c-44 -66 -160 -203 -258 -303 l-97 -101 -79
-13 c-44 -8 -126 -19 -182 -25 -56 -6 -108 -17 -115 -23 -9 -10 -11 -72 -10
-245 1 -128 -2 -285 -7 -348 -29 -359 -34 -480 -21 -495 19 -23 57 -18 75 9
13 19 33 162 35 247 0 12 21 18 98 28 53 7 122 17 152 22 138 24 467 69 502
69 l38 0 0 -175 c0 -109 4 -183 11 -199 20 -43 71 -41 88 2 14 38 26 1119 12
1154 -20 53 -113 59 -326 24 -49 -9 -94 -15 -99 -16 -4 0 19 29 52 64 78 84
168 194 212 260 19 29 48 68 63 86 20 24 27 41 25 64 -4 43 -36 56 -133 54
-44 -1 -163 -5 -265 -8z m370 -720 l0 -129 -28 5 c-16 3 -84 -4 -153 -16 -68
-12 -196 -32 -284 -45 -88 -13 -180 -28 -205 -34 -25 -6 -57 -11 -72 -11 l-28
0 0 133 0 132 118 17 c64 10 153 22 197 28 177 22 320 42 324 46 2 2 33 4 68
4 l63 0 0 -130z m0 -273 c0 -30 -3 -88 -6 -128 l-7 -75 -231 -33 c-127 -18
-287 -41 -356 -51 -69 -11 -139 -19 -156 -20 l-31 0 4 98 c6 150 -5 136 130
161 65 12 154 26 198 32 44 5 143 21 220 34 77 13 158 26 180 28 22 2 43 4 48
5 4 1 7 -22 7 -51z"/>
</g>
</svg>
