<?xml version="1.0" standalone="no"?>
<!DOCTYPE svg PUBLIC "-//W3C//DTD SVG 20010904//EN"
 "http://www.w3.org/TR/2001/REC-SVG-20010904/DTD/svg10.dtd">
<svg version="1.0" xmlns="http://www.w3.org/2000/svg"
 width="248.000000pt" height="248.000000pt" viewBox="0 0 248.000000 248.000000"
 preserveAspectRatio="xMidYMid meet">
<metadata>
Created by potrace 1.10, written by Peter Selinger 2001-2011
</metadata>
<g transform="translate(0.000000,248.000000) scale(0.100000,-0.100000)"
fill="#000000" stroke="none">
<path d="M1502 2258 c-25 -25 -13 -56 34 -92 26 -20 163 -146 305 -281 260
-246 285 -265 317 -233 36 36 10 70 -228 293 -69 65 -152 143 -185 175 -143
136 -208 173 -243 138z"/>
<path d="M646 2218 c-9 -12 -16 -29 -16 -36 0 -21 -97 -190 -145 -252 -46 -59
-211 -221 -288 -283 -37 -30 -47 -44 -47 -68 0 -22 6 -32 23 -38 30 -12 40 -7
133 65 239 185 482 552 412 622 -19 19 -55 14 -72 -10z"/>
</g>
</svg>
