<?xml version="1.0" standalone="no"?>
<!DOCTYPE svg PUBLIC "-//W3C//DTD SVG 20010904//EN"
 "http://www.w3.org/TR/2001/REC-SVG-20010904/DTD/svg10.dtd">
<svg version="1.0" xmlns="http://www.w3.org/2000/svg"
 width="248.000000pt" height="248.000000pt" viewBox="0 0 248.000000 248.000000"
 preserveAspectRatio="xMidYMid meet">
<metadata>
Created by potrace 1.10, written by Peter Selinger 2001-2011
</metadata>
<g transform="translate(0.000000,248.000000) scale(0.100000,-0.100000)"
fill="#000000" stroke="none">
<path d="M509 2363 c-11 -13 -15 -145 -21 -717 -15 -1633 -15 -1456 6 -1472
25 -18 37 -18 62 0 18 13 19 33 25 263 4 136 10 618 15 1070 7 761 6 823 -10
847 -19 30 -57 34 -77 9z"/>
<path d="M1406 2278 c-9 -12 -16 -37 -16 -54 0 -38 -38 -195 -51 -210 -5 -7
-40 -15 -77 -18 -128 -13 -327 -48 -349 -62 -27 -17 -30 -55 -8 -74 20 -16 56
-15 170 5 49 8 120 18 157 22 l68 6 -6 -34 c-11 -56 -120 -378 -159 -469 -61
-143 -185 -374 -247 -460 -62 -87 -67 -100 -42 -124 51 -52 120 24 258 284
l66 125 1 -120 c0 -66 4 -171 8 -234 6 -94 10 -116 26 -127 19 -14 51 -10 70
8 6 6 9 114 6 298 -2 237 -1 291 10 294 30 9 256 46 278 46 l24 0 -6 -562 c-3
-313 -1 -587 4 -618 11 -71 43 -97 82 -67 15 11 17 47 21 312 3 165 5 447 5
626 1 294 3 327 18 333 17 7 253 36 291 36 l23 0 -5 -272 c-2 -150 -8 -294
-11 -320 -7 -45 -9 -47 -31 -42 -29 7 -64 -19 -64 -48 0 -22 64 -95 91 -103
36 -12 67 3 78 37 6 18 18 80 28 138 20 127 30 629 14 673 -18 47 -48 51 -221
33 -85 -9 -167 -19 -182 -22 l-28 -6 0 83 c-1 174 -15 219 -65 219 -41 0 -45
-16 -45 -172 0 -81 -2 -148 -3 -148 -2 0 -70 -11 -152 -25 -81 -14 -151 -25
-155 -23 -4 2 19 86 52 188 32 102 64 202 70 224 7 22 20 42 32 46 36 14 449
62 688 80 75 6 148 14 161 19 44 17 46 69 4 88 -32 14 -440 -20 -727 -61 -52
-8 -97 -12 -99 -10 -3 2 4 39 14 82 27 119 29 149 11 177 -21 32 -59 33 -80 3z"/>
<path d="M682 1838 c-27 -27 -8 -92 51 -174 20 -28 49 -80 65 -116 32 -70 56
-86 91 -61 37 26 20 101 -46 199 -21 31 -48 74 -60 96 -12 21 -27 46 -33 54
-15 17 -52 18 -68 2z"/>
<path d="M312 1818 c-7 -7 -12 -22 -12 -35 0 -26 -83 -220 -166 -387 -30 -59
-54 -118 -54 -130 0 -28 18 -46 45 -46 36 0 63 42 152 234 129 281 142 326
105 359 -22 20 -53 22 -70 5z"/>
</g>
</svg>
