<?xml version="1.0" standalone="no"?>
<!DOCTYPE svg PUBLIC "-//W3C//DTD SVG 20010904//EN"
 "http://www.w3.org/TR/2001/REC-SVG-20010904/DTD/svg10.dtd">
<svg version="1.0" xmlns="http://www.w3.org/2000/svg"
 width="248.000000pt" height="248.000000pt" viewBox="0 0 248.000000 248.000000"
 preserveAspectRatio="xMidYMid meet">
<metadata>
Created by potrace 1.10, written by Peter Selinger 2001-2011
</metadata>
<g transform="translate(0.000000,248.000000) scale(0.100000,-0.100000)"
fill="#000000" stroke="none">
<path d="M509 2363 c-11 -13 -15 -145 -21 -717 -15 -1633 -15 -1456 6 -1472
25 -18 37 -18 62 0 18 13 19 33 25 263 4 136 10 618 15 1070 7 761 6 823 -10
847 -19 30 -57 34 -77 9z"/>
<path d="M1406 2278 c-9 -12 -16 -37 -16 -54 0 -40 -20 -123 -66 -274 -78
-253 -150 -470 -187 -555 -63 -148 -186 -378 -249 -465 -62 -87 -67 -100 -42
-124 54 -54 122 25 279 325 47 90 88 173 91 184 4 11 17 41 29 66 21 44 101
285 178 539 44 143 77 276 77 310 0 36 -27 70 -55 70 -13 0 -31 -10 -39 -22z"/>
<path d="M682 1838 c-27 -27 -8 -92 51 -174 20 -28 49 -80 65 -116 32 -70 56
-86 91 -61 37 26 20 101 -46 199 -21 31 -48 74 -60 96 -12 21 -27 46 -33 54
-15 17 -52 18 -68 2z"/>
<path d="M312 1818 c-7 -7 -12 -22 -12 -35 0 -26 -83 -220 -166 -387 -30 -59
-54 -118 -54 -130 0 -28 18 -46 45 -46 36 0 63 42 152 234 129 281 142 326
105 359 -22 20 -53 22 -70 5z"/>
</g>
</svg>
