<?xml version="1.0" standalone="no"?>
<!DOCTYPE svg PUBLIC "-//W3C//DTD SVG 20010904//EN"
 "http://www.w3.org/TR/2001/REC-SVG-20010904/DTD/svg10.dtd">
<svg version="1.0" xmlns="http://www.w3.org/2000/svg"
 width="248.000000pt" height="248.000000pt" viewBox="0 0 248.000000 248.000000"
 preserveAspectRatio="xMidYMid meet">
<metadata>
Created by potrace 1.10, written by Peter Selinger 2001-2011
</metadata>
<g transform="translate(0.000000,248.000000) scale(0.100000,-0.100000)"
fill="#000000" stroke="none">
<path d="M716 2218 c-9 -12 -16 -28 -16 -34 0 -16 -34 -87 -71 -149 -16 -27
-42 -77 -58 -110 -31 -64 -206 -357 -245 -409 -13 -17 -33 -49 -44 -71 -11
-22 -44 -69 -73 -105 -102 -125 -112 -146 -83 -174 35 -36 60 -21 145 85 44
56 94 126 111 156 17 30 31 53 33 51 1 -2 -1 -295 -5 -653 -8 -713 -9 -700 48
-693 55 6 54 1 62 762 5 386 6 713 3 729 -4 20 3 41 29 80 19 28 54 88 78 132
23 44 66 123 96 175 29 52 60 119 69 147 16 49 16 55 1 78 -21 32 -59 33 -80
3z"/>
</g>
</svg>
