<?xml version="1.0" standalone="no"?>
<!DOCTYPE svg PUBLIC "-//W3C//DTD SVG 20010904//EN"
 "http://www.w3.org/TR/2001/REC-SVG-20010904/DTD/svg10.dtd">
<svg version="1.0" xmlns="http://www.w3.org/2000/svg"
 width="248.000000pt" height="248.000000pt" viewBox="0 0 248.000000 248.000000"
 preserveAspectRatio="xMidYMid meet">
<metadata>
Created by potrace 1.10, written by Peter Selinger 2001-2011
</metadata>
<g transform="translate(0.000000,248.000000) scale(0.100000,-0.100000)"
fill="#000000" stroke="none">
<path d="M1753 2298 c-6 -7 -14 -119 -18 -248 -4 -129 -10 -291 -14 -360 l-6
-125 -160 -21 c-88 -12 -187 -24 -220 -28 -33 -3 -116 -16 -185 -27 -69 -11
-170 -25 -225 -31 -110 -10 -145 -26 -145 -63 0 -45 32 -55 153 -45 59 5 111
11 116 15 14 8 162 32 311 50 172 20 276 33 319 41 l34 7 -7 -254 c-3 -140 -9
-415 -12 -612 -4 -197 -10 -359 -13 -362 -4 -2 -33 19 -65 46 -60 51 -74 56
-107 39 -37 -21 -24 -59 44 -123 89 -84 136 -117 167 -117 65 0 70 33 81 525
6 237 13 529 17 650 l7 219 65 12 c36 7 97 17 135 22 165 25 248 42 262 53 22
19 12 62 -18 76 -22 11 -42 10 -110 -2 -46 -8 -131 -22 -189 -30 -58 -9 -114
-18 -124 -21 -19 -6 -19 -1 -10 197 5 112 9 268 9 345 0 126 -2 144 -19 163
-21 23 -58 28 -73 9z"/>
<path d="M716 2218 c-9 -12 -16 -28 -16 -34 0 -16 -34 -87 -71 -149 -16 -27
-42 -77 -58 -110 -31 -64 -206 -357 -245 -409 -13 -17 -33 -49 -44 -71 -11
-22 -44 -69 -73 -105 -102 -125 -112 -146 -83 -174 35 -36 60 -21 145 85 44
56 94 126 111 156 17 30 31 53 33 51 1 -2 -1 -295 -5 -653 -8 -713 -9 -700 48
-693 55 6 54 1 62 762 5 386 6 713 3 729 -4 20 3 41 29 80 19 28 54 88 78 132
23 44 66 123 96 175 29 52 60 119 69 147 16 49 16 55 1 78 -21 32 -59 33 -80
3z"/>
<path d="M1112 1028 c-24 -24 -13 -60 30 -97 22 -20 83 -73 134 -119 96 -86
114 -93 144 -57 21 26 1 63 -68 129 -152 145 -207 177 -240 144z"/>
</g>
</svg>
