<?xml version="1.0" standalone="no"?>
<!DOCTYPE svg PUBLIC "-//W3C//DTD SVG 20010904//EN"
 "http://www.w3.org/TR/2001/REC-SVG-20010904/DTD/svg10.dtd">
<svg version="1.0" xmlns="http://www.w3.org/2000/svg"
 width="248.000000pt" height="248.000000pt" viewBox="0 0 248.000000 248.000000"
 preserveAspectRatio="xMidYMid meet">
<metadata>
Created by potrace 1.10, written by Peter Selinger 2001-2011
</metadata>
<g transform="translate(0.000000,248.000000) scale(0.100000,-0.100000)"
fill="#000000" stroke="none">
<path d="M1316 2398 c-9 -12 -16 -35 -16 -51 0 -34 -47 -171 -84 -243 -14 -29
-26 -55 -26 -58 0 -3 -13 -28 -30 -54 -46 -75 -37 -122 22 -122 32 0 47 19
105 140 20 41 40 78 45 81 5 3 55 12 111 19 56 7 135 18 175 25 91 15 92 12
12 -114 -69 -110 -78 -153 -34 -173 16 -8 31 -9 40 -2 26 16 144 218 160 270
15 51 15 52 62 58 26 4 93 16 150 27 57 10 105 19 107 19 11 0 25 43 20 61
-12 37 -46 40 -187 15 -73 -13 -196 -34 -273 -46 -77 -12 -164 -26 -194 -31
-30 -5 -67 -9 -82 -9 l-27 0 19 55 c10 30 19 67 19 83 0 38 -26 72 -55 72 -13
0 -31 -10 -39 -22z"/>
<path d="M498 2373 c-18 -21 -50 -99 -71 -168 -36 -122 -111 -293 -167 -382
-45 -71 -37 -113 22 -113 22 0 34 10 61 53 40 62 66 112 101 189 14 31 34 59
43 62 31 9 224 39 226 35 6 -8 66 -136 80 -171 17 -40 46 -55 77 -38 32 17 26
76 -16 156 -19 36 -32 70 -27 74 4 4 75 23 156 43 170 41 197 54 197 97 0 45
-33 57 -96 36 -134 -43 -548 -126 -562 -112 -4 4 8 49 26 99 18 51 32 101 32
113 0 43 -53 60 -82 27z"/>
<path d="M1112 1838 c-7 -7 -12 -45 -12 -99 l0 -87 -67 -7 c-38 -4 -112 -13
-165 -21 -54 -8 -115 -14 -136 -14 -46 0 -82 -24 -82 -54 0 -51 53 -64 181
-43 52 9 126 18 164 22 39 3 78 9 88 11 16 5 18 -2 15 -88 l-3 -93 -150 -22
c-82 -13 -184 -27 -225 -33 -127 -17 -322 -41 -386 -49 -34 -4 -69 -13 -78
-21 -25 -20 -16 -62 16 -79 24 -14 38 -13 130 2 57 9 162 24 233 31 72 8 171
21 220 30 133 22 237 37 240 34 1 -2 -1 -39 -4 -83 l-6 -80 -90 -7 c-155 -11
-279 -30 -302 -44 -27 -17 -30 -56 -7 -75 21 -17 91 -14 357 16 l48 6 -3 -63
-3 -62 -35 -7 c-19 -4 -55 -9 -80 -12 -214 -26 -253 -40 -248 -85 4 -39 39
-52 113 -41 33 5 92 13 132 19 40 5 84 12 98 16 l25 6 0 -85 0 -85 -62 -7
c-35 -3 -88 -10 -118 -15 -30 -5 -98 -11 -150 -15 -52 -3 -149 -13 -215 -21
-66 -8 -142 -17 -170 -21 -59 -7 -75 -17 -75 -48 0 -52 52 -65 175 -45 33 5
137 17 230 25 94 8 204 19 245 25 41 5 89 10 107 10 l32 0 3 -211 c3 -195 4
-212 22 -225 25 -18 37 -18 62 0 18 13 19 30 22 230 4 250 -14 220 142 231 52
4 133 11 180 15 47 4 162 13 255 19 337 24 365 31 365 92 0 38 -28 53 -78 40
-20 -5 -95 -12 -167 -15 -71 -3 -173 -10 -225 -16 -142 -14 -305 -29 -392 -35
l-78 -6 0 85 0 85 48 6 c26 4 85 13 132 20 110 18 211 30 228 26 8 -1 25 5 38
14 33 21 29 64 -6 83 -29 14 -81 11 -268 -19 -181 -28 -172 -30 -172 40 l0 58
53 7 c154 19 369 48 416 56 81 15 96 28 116 107 9 37 24 96 32 129 l15 61 61
7 c33 3 97 6 143 6 151 0 216 26 199 81 -11 33 -41 36 -214 27 -90 -5 -166 -7
-169 -4 -3 3 1 32 8 63 21 93 23 165 6 188 -13 18 -25 20 -103 18 -48 0 -184
-17 -301 -37 -117 -20 -221 -36 -231 -36 -15 0 -19 11 -24 71 -7 77 -25 109
-62 109 -11 0 -26 -5 -33 -12z m655 -230 c-3 -18 -11 -59 -16 -92 -6 -32 -12
-60 -13 -61 -2 -2 -79 -13 -173 -24 -93 -12 -203 -26 -243 -31 -121 -17 -112
-22 -112 75 l0 84 33 5 c36 6 388 63 427 69 14 2 42 5 64 6 38 1 39 1 33 -31z
m-62 -334 c-25 -113 -19 -108 -131 -122 -159 -21 -317 -42 -346 -47 l-28 -4 0
84 c0 46 4 86 9 89 10 7 159 28 356 52 77 9 142 18 144 20 11 10 10 -9 -4 -72z"/>
</g>
</svg>
