<?xml version="1.0" standalone="no"?>
<!DOCTYPE svg PUBLIC "-//W3C//DTD SVG 20010904//EN"
 "http://www.w3.org/TR/2001/REC-SVG-20010904/DTD/svg10.dtd">
<svg version="1.0" xmlns="http://www.w3.org/2000/svg"
 width="248.000000pt" height="248.000000pt" viewBox="0 0 248.000000 248.000000"
 preserveAspectRatio="xMidYMid meet">
<metadata>
Created by potrace 1.10, written by Peter Selinger 2001-2011
</metadata>
<g transform="translate(0.000000,248.000000) scale(0.100000,-0.100000)"
fill="#000000" stroke="none">
<path d="M1416 2278 c-9 -12 -16 -42 -16 -66 0 -47 -26 -160 -40 -177 -5 -6
-13 -31 -19 -55 -14 -62 -65 -173 -96 -206 -14 -15 -25 -33 -25 -41 0 -30 21
-53 48 -53 49 0 103 72 156 209 l22 55 102 17 c137 23 228 27 224 8 -10 -50
-52 -141 -98 -211 -56 -85 -66 -124 -38 -152 33 -34 47 -23 125 94 43 65 74
128 99 200 l36 105 135 18 c160 22 183 31 187 73 6 58 -5 59 -245 25 -120 -16
-243 -32 -273 -34 -30 -3 -90 -11 -132 -18 -43 -7 -80 -11 -82 -8 -3 3 2 32
10 64 17 64 14 136 -6 160 -18 22 -57 18 -74 -7z"/>
<path d="M476 2218 c-8 -13 -17 -61 -21 -108 -15 -182 -62 -358 -126 -468 -21
-37 -39 -74 -39 -83 0 -26 36 -52 63 -45 32 8 101 125 135 233 l27 82 70 15
c102 23 218 38 225 29 9 -11 36 -102 56 -188 20 -89 36 -115 73 -115 55 0 58
18 21 158 -47 182 -47 180 -19 186 13 3 56 12 94 20 39 8 105 22 149 30 109
21 144 58 96 101 -20 18 -25 17 -188 -14 -92 -18 -201 -41 -242 -51 -41 -10
-100 -21 -130 -25 -30 -4 -81 -13 -114 -21 -32 -8 -60 -14 -61 -12 -2 2 3 56
11 121 12 97 12 123 2 145 -18 37 -61 42 -82 10z"/>
</g>
</svg>
