<?xml version="1.0" standalone="no"?>
<!DOCTYPE svg PUBLIC "-//W3C//DTD SVG 20010904//EN"
 "http://www.w3.org/TR/2001/REC-SVG-20010904/DTD/svg10.dtd">
<svg version="1.0" xmlns="http://www.w3.org/2000/svg"
 width="248.000000pt" height="248.000000pt" viewBox="0 0 248.000000 248.000000"
 preserveAspectRatio="xMidYMid meet">
<metadata>
Created by potrace 1.10, written by Peter Selinger 2001-2011
</metadata>
<g transform="translate(0.000000,248.000000) scale(0.100000,-0.100000)"
fill="#000000" stroke="none">
<path d="M492 2203 c-17 -7 -33 -49 -26 -67 13 -34 272 -156 330 -156 27 0 37
5 45 24 17 37 -3 60 -73 86 -35 12 -105 44 -157 71 -96 51 -97 51 -119 42z"/>
<path d="M192 1488 c-16 -16 -15 -53 1 -66 22 -19 127 -54 205 -68 152 -29
149 -29 162 -4 17 31 5 66 -27 78 -16 6 -59 17 -98 23 -38 6 -92 20 -120 30
-57 22 -106 24 -123 7z"/>
<path d="M621 1053 c-12 -10 -39 -63 -60 -118 -144 -373 -184 -471 -224 -552
-25 -50 -52 -102 -61 -115 -52 -73 24 -137 77 -65 34 44 112 203 147 296 15
42 67 173 114 292 47 120 86 222 86 228 0 13 -36 51 -49 51 -5 0 -18 -8 -30
-17z"/>
</g>
</svg>
