<?xml version="1.0" standalone="no"?>
<!DOCTYPE svg PUBLIC "-//W3C//DTD SVG 20010904//EN"
 "http://www.w3.org/TR/2001/REC-SVG-20010904/DTD/svg10.dtd">
<svg version="1.0" xmlns="http://www.w3.org/2000/svg"
 width="248.000000pt" height="248.000000pt" viewBox="0 0 248.000000 248.000000"
 preserveAspectRatio="xMidYMid meet">
<metadata>
Created by potrace 1.10, written by Peter Selinger 2001-2011
</metadata>
<g transform="translate(0.000000,248.000000) scale(0.100000,-0.100000)"
fill="#000000" stroke="none">
<path d="M887 1894 c-1 -2 -54 -8 -117 -14 -200 -19 -532 -80 -555 -101 -18
-18 -20 -38 -28 -252 -4 -127 -6 -305 -5 -395 3 -149 5 -165 22 -178 25 -18
37 -18 62 0 18 14 19 34 27 377 5 261 11 365 19 370 7 4 35 11 63 14 27 4 77
13 110 21 33 8 129 21 214 29 85 9 159 19 164 22 6 4 7 -11 4 -38 -3 -24 -9
-180 -13 -347 l-7 -303 -26 32 c-19 22 -35 32 -56 32 -28 -1 -55 -24 -55 -49
0 -19 129 -174 155 -186 37 -17 71 -3 84 34 7 20 11 116 11 260 -1 125 1 232
4 236 2 4 6 94 7 199 3 172 1 194 -15 211 -15 18 -60 34 -69 26z"/>
</g>
</svg>
