<?xml version="1.0" standalone="no"?>
<!DOCTYPE svg PUBLIC "-//W3C//DTD SVG 20010904//EN"
 "http://www.w3.org/TR/2001/REC-SVG-20010904/DTD/svg10.dtd">
<svg version="1.0" xmlns="http://www.w3.org/2000/svg"
 width="248.000000pt" height="248.000000pt" viewBox="0 0 248.000000 248.000000"
 preserveAspectRatio="xMidYMid meet">
<metadata>
Created by potrace 1.10, written by Peter Selinger 2001-2011
</metadata>
<g transform="translate(0.000000,248.000000) scale(0.100000,-0.100000)"
fill="#000000" stroke="none">
<path d="M620 2240 c-11 -11 -20 -25 -20 -30 0 -6 -28 -47 -62 -91 -35 -44
-82 -107 -104 -140 -23 -32 -60 -79 -82 -103 -57 -62 -77 -103 -63 -132 7 -17
19 -24 38 -24 22 0 41 14 84 63 30 34 74 89 97 122 23 33 60 83 82 110 112
139 135 190 101 224 -26 26 -45 27 -71 1z"/>
<path d="M580 1580 c-11 -11 -20 -32 -20 -46 0 -48 -160 -249 -331 -415 -89
-86 -119 -121 -119 -140 0 -31 17 -49 47 -49 34 0 203 157 310 287 165 201
203 261 203 318 0 28 -31 65 -55 65 -8 0 -24 -9 -35 -20z"/>
</g>
</svg>
