<?xml version="1.0" standalone="no"?>
<!DOCTYPE svg PUBLIC "-//W3C//DTD SVG 20010904//EN"
 "http://www.w3.org/TR/2001/REC-SVG-20010904/DTD/svg10.dtd">
<svg version="1.0" xmlns="http://www.w3.org/2000/svg"
 width="248.000000pt" height="248.000000pt" viewBox="0 0 248.000000 248.000000"
 preserveAspectRatio="xMidYMid meet">
<metadata>
Created by potrace 1.10, written by Peter Selinger 2001-2011
</metadata>
<g transform="translate(0.000000,248.000000) scale(0.100000,-0.100000)"
fill="#000000" stroke="none">
<path d="M1106 2258 c-9 -13 -16 -43 -16 -70 0 -61 -61 -253 -106 -334 -35
-64 -42 -102 -22 -122 19 -19 53 -14 75 11 27 28 75 127 98 197 9 30 22 60 29
67 14 15 118 30 266 38 63 3 151 10 195 16 44 5 151 15 237 22 96 8 163 19
172 26 24 20 20 58 -8 76 -22 14 -41 15 -168 5 -79 -6 -149 -13 -157 -16 -8
-3 -114 -11 -235 -19 -122 -9 -234 -18 -249 -21 l-28 -6 7 51 c5 39 3 57 -10
76 -21 32 -59 33 -80 3z"/>
<path d="M620 2240 c-11 -11 -20 -25 -20 -30 0 -6 -28 -47 -62 -91 -35 -44
-82 -107 -104 -140 -23 -32 -60 -79 -82 -103 -57 -62 -77 -103 -63 -132 7 -17
19 -24 38 -24 22 0 41 14 84 63 30 34 74 89 97 122 23 33 60 83 82 110 112
139 135 190 101 224 -26 26 -45 27 -71 1z"/>
<path d="M1695 1894 c-22 -2 -107 -9 -190 -15 -200 -15 -295 -32 -312 -55 -10
-13 -13 -69 -13 -225 0 -189 2 -208 19 -231 l20 -24 278 4 c153 2 286 8 295
13 10 5 24 22 32 38 24 45 47 207 49 333 2 108 0 119 -20 139 -22 23 -76 30
-158 23z m75 -158 l0 -54 -112 -6 c-62 -3 -171 -8 -241 -12 l-128 -6 3 49 3
48 90 8 c127 11 303 24 348 26 l37 1 0 -54z m-13 -183 c-3 -10 -8 -35 -12 -55
l-6 -38 -178 0 c-98 0 -199 -3 -225 -6 l-46 -7 0 52 c0 33 4 51 13 52 20 2
316 15 390 17 61 2 68 0 64 -15z"/>
<path d="M580 1580 c-11 -11 -20 -32 -20 -46 0 -48 -160 -249 -332 -415 -103
-101 -119 -120 -116 -144 4 -36 29 -52 62 -40 14 6 76 57 138 115 l111 105 -7
-100 c-4 -55 -11 -219 -17 -365 -5 -146 -12 -313 -15 -372 -4 -58 -4 -118 0
-131 10 -43 73 -43 91 0 14 33 40 530 50 960 l3 142 57 77 c62 83 85 129 85
169 0 28 -31 65 -55 65 -8 0 -24 -9 -35 -20z"/>
</g>
</svg>
