<?xml version="1.0" standalone="no"?>
<!DOCTYPE svg PUBLIC "-//W3C//DTD SVG 20010904//EN"
 "http://www.w3.org/TR/2001/REC-SVG-20010904/DTD/svg10.dtd">
<svg version="1.0" xmlns="http://www.w3.org/2000/svg"
 width="248.000000pt" height="248.000000pt" viewBox="0 0 248.000000 248.000000"
 preserveAspectRatio="xMidYMid meet">
<metadata>
Created by potrace 1.10, written by Peter Selinger 2001-2011
</metadata>
<g transform="translate(0.000000,248.000000) scale(0.100000,-0.100000)"
fill="#000000" stroke="none">
<path d="M1158 2348 c-59 -74 -239 -251 -368 -361 -199 -169 -481 -399 -582
-475 -57 -43 -76 -76 -64 -107 7 -20 31 -29 59 -21 12 3 78 51 147 106 407
325 563 459 745 640 l120 120 95 -81 c52 -44 129 -105 170 -136 41 -31 111
-86 155 -123 176 -144 276 -209 469 -301 135 -64 195 -80 221 -59 34 28 10 79
-45 95 -88 26 -357 171 -440 237 -19 15 -82 65 -138 110 -57 46 -126 99 -152
118 -86 62 -192 152 -255 217 -37 38 -70 63 -82 63 -13 0 -34 -17 -55 -42z"/>
<path d="M1479 1776 c-2 -2 -62 -9 -134 -15 -71 -7 -170 -19 -220 -27 -49 -8
-130 -17 -179 -19 -94 -5 -116 -14 -116 -51 0 -56 95 -71 262 -41 46 9 144 21
218 27 74 6 153 16 175 22 69 17 94 57 59 92 -14 15 -55 22 -65 12z"/>
<path d="M1529 1556 c-2 -3 -43 -10 -89 -16 -47 -6 -132 -18 -190 -26 -58 -7
-166 -21 -240 -29 -230 -26 -258 -31 -274 -44 -25 -21 -20 -58 10 -78 23 -15
34 -15 98 -4 40 6 115 16 167 21 113 11 298 34 433 55 55 8 102 13 105 10 4
-5 -62 -78 -155 -170 -43 -43 -197 -172 -274 -230 -79 -59 -81 -63 -77 -97 4
-34 8 -33 -221 -46 -106 -6 -167 -14 -178 -23 -17 -14 -17 -17 5 -274 16 -188
29 -282 50 -365 21 -80 34 -100 65 -100 48 0 57 40 30 145 -8 33 -21 139 -29
235 -8 96 -18 196 -21 221 l-6 46 47 6 c26 4 73 7 104 7 31 0 126 7 211 15
290 27 385 35 513 40 l127 5 0 -34 c0 -44 -50 -268 -96 -428 -56 -198 -56
-248 2 -248 40 0 47 18 130 338 48 184 67 288 68 364 1 115 4 114 -207 110
-95 -2 -199 -7 -232 -12 -33 -5 -107 -12 -165 -15 l-105 -7 65 48 c162 118
410 357 470 453 57 90 36 131 -69 131 -37 0 -70 -2 -72 -4z"/>
</g>
</svg>
