<?xml version="1.0" standalone="no"?>
<!DOCTYPE svg PUBLIC "-//W3C//DTD SVG 20010904//EN"
 "http://www.w3.org/TR/2001/REC-SVG-20010904/DTD/svg10.dtd">
<svg version="1.0" xmlns="http://www.w3.org/2000/svg"
 width="248.000000pt" height="248.000000pt" viewBox="0 0 248.000000 248.000000"
 preserveAspectRatio="xMidYMid meet">
<metadata>
Created by potrace 1.10, written by Peter Selinger 2001-2011
</metadata>
<g transform="translate(0.000000,248.000000) scale(0.100000,-0.100000)"
fill="#000000" stroke="none">
<path d="M1166 2298 c-7 -13 -16 -55 -18 -93 -3 -39 -12 -86 -21 -105 -9 -19
-23 -57 -31 -85 -17 -61 -96 -251 -120 -288 -31 -47 6 -97 57 -78 30 12 56 53
91 146 15 39 33 81 40 95 7 14 19 42 26 63 14 45 28 52 125 61 39 4 86 11 105
16 36 10 284 43 452 60 178 19 305 38 326 49 27 14 36 45 22 72 -11 20 -17 21
-99 15 -47 -4 -111 -11 -141 -16 -30 -5 -122 -16 -205 -25 -82 -9 -206 -26
-275 -37 -120 -19 -253 -37 -257 -34 -1 1 2 19 7 41 14 60 12 118 -6 143 -20
29 -59 29 -78 0z"/>
<path d="M695 2258 c-33 -5 -136 -23 -228 -40 -156 -29 -172 -34 -203 -63
l-34 -32 0 -410 c0 -483 -21 -858 -65 -1138 -8 -49 -17 -110 -21 -135 -3 -25
-20 -90 -36 -144 -32 -109 -33 -132 -3 -152 16 -11 25 -11 45 -1 57 28 126
370 159 780 5 59 11 110 13 112 4 5 354 65 376 65 14 0 17 -272 5 -628 l-6
-211 -25 20 c-31 24 -54 24 -75 1 -25 -27 -21 -48 16 -89 19 -21 44 -57 57
-81 36 -64 88 -69 117 -11 19 39 32 536 35 1371 3 663 1 759 -12 772 -22 21
-48 24 -115 14z m25 -355 c0 -137 -3 -257 -6 -269 -5 -18 -26 -25 -172 -53
-92 -18 -175 -35 -184 -37 -17 -5 -18 13 -18 270 0 152 2 276 4 276 2 0 48 9
102 21 84 17 182 32 257 38 16 1 17 -17 17 -246z m-10 -547 l0 -144 -50 -11
c-27 -6 -69 -13 -92 -16 -24 -4 -85 -13 -135 -22 -51 -9 -95 -14 -99 -11 -3 4
-3 69 1 146 l7 139 127 23 c69 12 140 26 156 30 17 5 42 9 58 9 l27 1 0 -144z"/>
<path d="M1835 1959 c-371 -52 -554 -85 -575 -104 -30 -27 -32 -59 -15 -261
16 -193 28 -268 47 -291 14 -18 53 -16 68 2 16 19 15 24 -4 250 -9 105 -16
197 -16 207 0 11 11 18 38 22 20 3 93 15 162 26 158 25 346 50 384 50 l29 0
-7 -117 c-4 -65 -11 -136 -16 -158 -5 -23 -10 -80 -12 -129 -3 -77 -1 -89 16
-102 24 -17 37 -18 60 -1 19 14 35 122 57 382 11 127 11 143 -5 176 -28 58
-70 68 -211 48z"/>
</g>
</svg>
