<?xml version="1.0" standalone="no"?>
<!DOCTYPE svg PUBLIC "-//W3C//DTD SVG 20010904//EN"
 "http://www.w3.org/TR/2001/REC-SVG-20010904/DTD/svg10.dtd">
<svg version="1.0" xmlns="http://www.w3.org/2000/svg"
 width="248.000000pt" height="248.000000pt" viewBox="0 0 248.000000 248.000000"
 preserveAspectRatio="xMidYMid meet">
<metadata>
Created by potrace 1.10, written by Peter Selinger 2001-2011
</metadata>
<g transform="translate(0.000000,248.000000) scale(0.100000,-0.100000)"
fill="#000000" stroke="none">
<path d="M532 2318 c-20 -20 -13 -54 21 -96 116 -144 161 -192 181 -192 43 0
59 45 35 93 -11 21 -82 105 -147 175 -31 33 -68 42 -90 20z"/>
<path d="M755 1913 c-140 -31 -295 -66 -369 -84 -44 -10 -98 -19 -121 -19 -53
0 -87 -24 -83 -58 6 -56 65 -62 228 -23 47 11 121 27 165 37 44 9 92 20 108
25 35 10 34 1 -6 -47 -18 -21 -64 -79 -102 -129 -38 -49 -172 -193 -298 -318
-193 -194 -228 -232 -225 -254 4 -32 27 -48 60 -40 29 8 430 403 503 496 28
35 74 93 104 129 98 118 161 213 161 242 0 50 -37 62 -125 43z"/>
</g>
</svg>
