<?xml version="1.0" standalone="no"?>
<!DOCTYPE svg PUBLIC "-//W3C//DTD SVG 20010904//EN"
 "http://www.w3.org/TR/2001/REC-SVG-20010904/DTD/svg10.dtd">
<svg version="1.0" xmlns="http://www.w3.org/2000/svg"
 width="248.000000pt" height="248.000000pt" viewBox="0 0 248.000000 248.000000"
 preserveAspectRatio="xMidYMid meet">
<metadata>
Created by potrace 1.10, written by Peter Selinger 2001-2011
</metadata>
<g transform="translate(0.000000,248.000000) scale(0.100000,-0.100000)"
fill="#000000" stroke="none">
<path d="M695 2258 c-33 -5 -136 -23 -228 -40 -156 -29 -172 -34 -203 -63
l-34 -32 0 -410 c0 -483 -21 -858 -65 -1138 -8 -49 -17 -110 -21 -135 -3 -25
-20 -90 -36 -144 -32 -109 -33 -132 -3 -152 16 -11 25 -11 45 -1 35 18 81 175
113 392 36 239 44 323 64 631 l17 271 121 22 c66 12 139 26 162 32 23 5 51 9
62 9 21 0 21 -3 21 -408 0 -225 -3 -504 -7 -620 l-6 -211 -25 20 c-31 24 -54
24 -75 1 -25 -27 -21 -48 16 -89 19 -21 44 -57 57 -81 36 -64 88 -69 117 -11
19 39 32 536 35 1371 3 663 1 759 -12 772 -22 21 -48 24 -115 14z m25 -355 c0
-137 -3 -257 -6 -269 -5 -18 -26 -25 -172 -53 -92 -18 -175 -35 -184 -37 -17
-5 -18 13 -18 270 0 152 2 276 4 276 2 0 48 9 102 21 84 17 182 32 257 38 16
1 17 -17 17 -246z"/>
</g>
</svg>
