<?xml version="1.0" standalone="no"?>
<!DOCTYPE svg PUBLIC "-//W3C//DTD SVG 20010904//EN"
 "http://www.w3.org/TR/2001/REC-SVG-20010904/DTD/svg10.dtd">
<svg version="1.0" xmlns="http://www.w3.org/2000/svg"
 width="248.000000pt" height="248.000000pt" viewBox="0 0 248.000000 248.000000"
 preserveAspectRatio="xMidYMid meet">
<metadata>
Created by potrace 1.10, written by Peter Selinger 2001-2011
</metadata>
<g transform="translate(0.000000,248.000000) scale(0.100000,-0.100000)"
fill="#000000" stroke="none">
<path d="M1315 2386 c-17 -26 -18 -21 40 -240 19 -71 23 -101 15 -106 -12 -7
-78 -19 -250 -45 -193 -29 -230 -44 -230 -90 0 -47 19 -50 173 -26 78 12 189
31 246 42 57 11 105 18 106 17 1 -2 22 -55 45 -118 24 -63 59 -146 78 -185 58
-115 175 -286 253 -368 62 -65 79 -77 106 -77 30 0 63 21 63 40 0 5 16 44 36
87 59 126 55 179 -13 171 -24 -3 -32 -13 -62 -87 l-35 -84 -44 49 c-57 65
-156 210 -199 293 -46 86 -125 294 -115 302 4 3 84 20 177 38 94 17 182 37
198 43 48 19 48 89 0 96 -11 2 -109 -15 -218 -37 -109 -22 -200 -40 -201 -38
-1 1 -14 49 -29 107 -49 197 -53 211 -65 226 -19 22 -58 17 -75 -10z"/>
<path d="M842 2378 c-6 -7 -26 -37 -45 -66 -70 -103 -361 -405 -482 -499 -30
-24 -45 -43 -45 -59 0 -27 25 -54 50 -54 25 0 99 57 194 149 l78 76 -6 -295
c-7 -329 -5 -345 49 -345 50 0 53 17 61 401 l7 351 79 89 c120 135 161 217
126 252 -16 16 -53 15 -66 0z"/>
</g>
</svg>
