<?xml version="1.0" standalone="no"?>
<!DOCTYPE svg PUBLIC "-//W3C//DTD SVG 20010904//EN"
 "http://www.w3.org/TR/2001/REC-SVG-20010904/DTD/svg10.dtd">
<svg version="1.0" xmlns="http://www.w3.org/2000/svg"
 width="248.000000pt" height="248.000000pt" viewBox="0 0 248.000000 248.000000"
 preserveAspectRatio="xMidYMid meet">
<metadata>
Created by potrace 1.10, written by Peter Selinger 2001-2011
</metadata>
<g transform="translate(0.000000,248.000000) scale(0.100000,-0.100000)"
fill="#000000" stroke="none">
<path d="M246 2138 c-14 -19 -16 -78 -16 -433 0 -310 -5 -474 -20 -670 -20
-263 -38 -454 -45 -465 -2 -3 -9 -43 -15 -88 -6 -46 -25 -129 -41 -184 -33
-111 -34 -134 -4 -154 16 -11 25 -11 45 -1 19 10 31 32 52 102 84 268 138 844
138 1485 0 419 -1 430 -55 430 -13 0 -31 -10 -39 -22z"/>
</g>
</svg>
