<?xml version="1.0" standalone="no"?>
<!DOCTYPE svg PUBLIC "-//W3C//DTD SVG 20010904//EN"
 "http://www.w3.org/TR/2001/REC-SVG-20010904/DTD/svg10.dtd">
<svg version="1.0" xmlns="http://www.w3.org/2000/svg"
 width="248.000000pt" height="248.000000pt" viewBox="0 0 248.000000 248.000000"
 preserveAspectRatio="xMidYMid meet">
<metadata>
Created by potrace 1.10, written by Peter Selinger 2001-2011
</metadata>
<g transform="translate(0.000000,248.000000) scale(0.100000,-0.100000)"
fill="#000000" stroke="none">
<path d="M532 2318 c-20 -20 -13 -54 21 -96 116 -144 161 -192 181 -192 43 0
59 45 35 93 -11 21 -82 105 -147 175 -31 33 -68 42 -90 20z"/>
<path d="M1210 2295 c-8 -10 -17 -57 -21 -113 -7 -103 -38 -206 -98 -332 -17
-36 -31 -75 -31 -86 0 -29 23 -46 57 -42 24 3 34 14 70 88 23 47 45 99 48 117
4 18 12 36 19 41 10 9 133 24 306 37 110 9 224 23 320 40 47 8 118 19 158 24
83 11 104 23 100 60 -5 46 -43 55 -161 37 -56 -9 -145 -22 -197 -30 -52 -8
-156 -19 -230 -25 -74 -6 -163 -14 -198 -18 l-63 -6 6 84 c4 61 2 91 -7 109
-16 30 -59 38 -78 15z"/>
<path d="M755 1913 c-140 -31 -295 -66 -369 -84 -44 -10 -98 -19 -121 -19 -53
0 -87 -24 -83 -58 6 -56 65 -62 228 -23 47 11 121 27 165 37 44 9 92 20 108
25 35 10 34 1 -6 -47 -18 -21 -64 -79 -102 -129 -38 -49 -172 -192 -297 -318
-229 -229 -248 -253 -216 -285 31 -31 58 -13 231 152 l172 164 7 -137 c3 -75
7 -341 7 -591 0 -250 1 -463 1 -473 0 -25 42 -42 68 -28 41 22 45 88 40 652
l-5 526 76 -80 c41 -43 82 -89 90 -100 23 -34 154 -191 166 -199 5 -4 23 -8
38 -8 29 0 49 31 39 60 -5 14 -141 185 -228 287 l-35 41 46 52 c95 107 128
183 99 228 -27 41 -94 15 -94 -38 0 -18 -28 -58 -84 -120 l-39 -44 -39 45
c-21 24 -37 47 -35 51 3 10 71 98 136 176 98 117 161 213 161 242 0 50 -37 62
-125 43z"/>
<path d="M1895 1913 c-177 -17 -617 -96 -642 -116 -16 -12 -17 -155 -3 -314
17 -187 22 -192 193 -174 61 6 184 18 272 26 170 16 246 32 270 56 15 15 46
207 61 371 8 94 -4 132 -48 147 -17 6 -38 10 -47 9 -9 -1 -34 -3 -56 -5z m45
-135 c0 -18 -3 -49 -6 -69 l-6 -36 -62 -2 c-33 -1 -113 -10 -177 -21 -64 -11
-154 -22 -200 -25 -46 -3 -96 -8 -111 -10 -28 -4 -28 -4 -28 49 l0 53 128 26
c126 27 296 53 382 60 25 2 53 4 63 5 13 2 17 -6 17 -30z m-24 -230 c-3 -13
-8 -40 -11 -61 -3 -21 -9 -36 -13 -33 -8 4 -270 -18 -382 -33 -41 -6 -92 -11
-112 -11 l-38 0 0 49 0 49 98 6 c53 4 133 14 177 23 44 9 116 19 160 23 133
12 126 13 121 -12z"/>
<path d="M1735 1259 c-44 -5 -136 -12 -205 -17 -69 -4 -131 -11 -139 -16 -7
-5 -19 -23 -27 -42 -17 -41 -47 -85 -104 -154 -52 -61 -60 -71 -192 -207 -99
-103 -112 -127 -82 -157 33 -33 56 -19 176 104 65 66 120 120 123 120 3 0 25
-19 49 -42 24 -24 71 -69 105 -101 33 -31 61 -61 61 -65 0 -5 -24 -40 -53 -78
-105 -137 -280 -270 -502 -383 -66 -34 -70 -38 -70 -71 0 -28 5 -36 25 -43 20
-7 43 0 115 35 212 105 411 258 507 390 l51 70 46 -44 c25 -23 84 -79 131
-124 197 -189 296 -264 445 -335 88 -42 115 -47 139 -23 36 35 13 64 -94 118
-166 83 -234 136 -467 364 -81 79 -133 136 -126 140 33 21 121 156 186 287 81
163 98 235 64 264 -19 15 -77 19 -162 10z m55 -111 c-1 -45 -192 -378 -217
-378 -2 0 -54 46 -113 101 l-109 101 40 54 c21 29 44 64 50 77 10 22 19 25
102 31 85 7 222 21 240 24 4 1 7 -4 7 -10z"/>
</g>
</svg>
