<?xml version="1.0" standalone="no"?>
<!DOCTYPE svg PUBLIC "-//W3C//DTD SVG 20010904//EN"
 "http://www.w3.org/TR/2001/REC-SVG-20010904/DTD/svg10.dtd">
<svg version="1.0" xmlns="http://www.w3.org/2000/svg"
 width="248.000000pt" height="248.000000pt" viewBox="0 0 248.000000 248.000000"
 preserveAspectRatio="xMidYMid meet">
<metadata>
Created by potrace 1.10, written by Peter Selinger 2001-2011
</metadata>
<g transform="translate(0.000000,248.000000) scale(0.100000,-0.100000)"
fill="#000000" stroke="none">
<path d="M1158 2348 c-59 -74 -239 -251 -368 -361 -199 -169 -481 -399 -582
-475 -57 -43 -76 -76 -64 -107 7 -20 31 -29 59 -21 12 3 78 51 147 106 407
325 563 459 745 640 l120 120 95 -81 c52 -44 129 -105 170 -136 41 -31 111
-86 155 -123 176 -144 276 -209 469 -301 135 -64 195 -80 221 -59 34 28 10 79
-45 95 -88 26 -357 171 -440 237 -19 15 -82 65 -138 110 -57 46 -126 99 -152
118 -86 62 -192 152 -255 217 -37 38 -70 63 -82 63 -13 0 -34 -17 -55 -42z"/>
</g>
</svg>
