<?xml version="1.0" standalone="no"?>
<!DOCTYPE svg PUBLIC "-//W3C//DTD SVG 20010904//EN"
 "http://www.w3.org/TR/2001/REC-SVG-20010904/DTD/svg10.dtd">
<svg version="1.0" xmlns="http://www.w3.org/2000/svg"
 width="248.000000pt" height="248.000000pt" viewBox="0 0 248.000000 248.000000"
 preserveAspectRatio="xMidYMid meet">
<metadata>
Created by potrace 1.10, written by Peter Selinger 2001-2011
</metadata>
<g transform="translate(0.000000,248.000000) scale(0.100000,-0.100000)"
fill="#000000" stroke="none">
<path d="M1166 2298 c-10 -14 -16 -44 -16 -76 0 -77 -116 -405 -174 -495 -31
-47 6 -97 57 -78 30 12 56 53 91 146 15 39 33 81 40 95 26 48 87 256 93 317 5
49 2 68 -11 88 -21 32 -59 33 -80 3z"/>
<path d="M695 2258 c-33 -5 -136 -23 -228 -40 -156 -29 -172 -34 -203 -63
l-34 -32 0 -410 c0 -483 -21 -858 -65 -1138 -8 -49 -17 -110 -21 -135 -3 -25
-20 -90 -36 -144 -32 -109 -33 -132 -3 -152 16 -11 25 -11 45 -1 57 28 126
370 159 780 5 59 11 110 13 112 4 5 354 65 376 65 14 0 17 -272 5 -628 l-6
-211 -25 20 c-31 24 -54 24 -75 1 -25 -27 -21 -48 16 -89 19 -21 44 -57 57
-81 36 -64 88 -69 117 -11 19 39 32 536 35 1371 3 663 1 759 -12 772 -22 21
-48 24 -115 14z m25 -355 c0 -137 -3 -257 -6 -269 -5 -18 -26 -25 -172 -53
-92 -18 -175 -35 -184 -37 -17 -5 -18 13 -18 270 0 152 2 276 4 276 2 0 48 9
102 21 84 17 182 32 257 38 16 1 17 -17 17 -246z m-10 -547 l0 -144 -50 -11
c-27 -6 -69 -13 -92 -16 -24 -4 -85 -13 -135 -22 -51 -9 -95 -14 -99 -11 -3 4
-3 69 1 146 l7 139 127 23 c69 12 140 26 156 30 17 5 42 9 58 9 l27 1 0 -144z"/>
</g>
</svg>
