<?xml version="1.0" standalone="no"?>
<!DOCTYPE svg PUBLIC "-//W3C//DTD SVG 20010904//EN"
 "http://www.w3.org/TR/2001/REC-SVG-20010904/DTD/svg10.dtd">
<svg version="1.0" xmlns="http://www.w3.org/2000/svg"
 width="248.000000pt" height="248.000000pt" viewBox="0 0 248.000000 248.000000"
 preserveAspectRatio="xMidYMid meet">
<metadata>
Created by potrace 1.10, written by Peter Selinger 2001-2011
</metadata>
<g transform="translate(0.000000,248.000000) scale(0.100000,-0.100000)"
fill="#000000" stroke="none">
<path d="M546 2308 c-13 -19 -16 -59 -16 -239 l0 -217 -48 -11 c-26 -5 -92
-17 -147 -26 -147 -25 -138 -8 -148 -288 -4 -127 -6 -305 -5 -395 3 -149 5
-165 22 -178 25 -18 37 -18 62 0 18 14 19 34 27 377 5 251 11 365 19 370 6 4
45 12 87 19 42 7 89 15 105 18 l29 5 -7 -797 c-6 -618 -5 -800 4 -811 20 -24
58 -18 77 12 16 24 19 68 24 433 4 223 7 579 8 792 l1 387 58 6 c31 3 83 9
115 14 l59 8 -6 -41 c-3 -23 -8 -177 -12 -344 l-7 -303 -26 32 c-19 22 -35 32
-56 32 -28 0 -55 -24 -55 -49 0 -19 129 -174 155 -186 37 -17 71 -3 84 34 7
20 11 116 11 260 -1 125 1 232 4 236 2 4 6 94 7 200 4 253 9 247 -186 223 -49
-6 -102 -11 -117 -11 l-28 0 0 208 c0 226 -6 252 -55 252 -13 0 -31 -10 -39
-22z"/>
<path d="M2018 2255 c-2 -3 -63 -9 -134 -15 -71 -5 -169 -14 -219 -20 -49 -5
-157 -17 -240 -25 -166 -17 -198 -29 -193 -73 5 -40 39 -52 123 -41 91 12 241
27 440 44 232 20 325 33 341 46 21 17 18 66 -5 79 -20 10 -104 14 -113 5z"/>
</g>
</svg>
