<?xml version="1.0" standalone="no"?>
<!DOCTYPE svg PUBLIC "-//W3C//DTD SVG 20010904//EN"
 "http://www.w3.org/TR/2001/REC-SVG-20010904/DTD/svg10.dtd">
<svg version="1.0" xmlns="http://www.w3.org/2000/svg"
 width="248.000000pt" height="248.000000pt" viewBox="0 0 248.000000 248.000000"
 preserveAspectRatio="xMidYMid meet">
<metadata>
Created by potrace 1.10, written by Peter Selinger 2001-2011
</metadata>
<g transform="translate(0.000000,248.000000) scale(0.100000,-0.100000)"
fill="#000000" stroke="none">
<path d="M695 2258 c-33 -5 -136 -23 -228 -40 -156 -29 -172 -34 -203 -63
l-34 -32 0 -410 c0 -483 -21 -858 -65 -1138 -8 -49 -17 -110 -21 -135 -3 -25
-20 -90 -36 -144 -32 -109 -33 -132 -3 -152 16 -11 25 -11 45 -1 19 10 31 32
52 102 83 265 138 845 138 1471 l0 372 23 5 c70 17 241 46 295 51 l63 6 -6
-663 c-3 -364 -8 -789 -11 -944 l-6 -283 -25 20 c-32 25 -55 25 -76 2 -25 -27
-21 -48 16 -89 19 -21 44 -57 57 -81 36 -64 88 -69 117 -11 19 39 32 536 35
1371 3 663 1 759 -12 772 -22 21 -48 24 -115 14z"/>
</g>
</svg>
