<?xml version="1.0" standalone="no"?>
<!DOCTYPE svg PUBLIC "-//W3C//DTD SVG 20010904//EN"
 "http://www.w3.org/TR/2001/REC-SVG-20010904/DTD/svg10.dtd">
<svg version="1.0" xmlns="http://www.w3.org/2000/svg"
 width="248.000000pt" height="248.000000pt" viewBox="0 0 248.000000 248.000000"
 preserveAspectRatio="xMidYMid meet">
<metadata>
Created by potrace 1.10, written by Peter Selinger 2001-2011
</metadata>
<g transform="translate(0.000000,248.000000) scale(0.100000,-0.100000)"
fill="#000000" stroke="none">
<path d="M1059 2116 c-2 -2 -85 -18 -184 -35 -437 -76 -505 -89 -520 -101 -23
-19 -18 -57 8 -75 25 -16 15 -17 277 30 75 13 333 57 416 70 44 7 67 27 67 60
0 35 -44 70 -64 51z"/>
<path d="M990 1836 c-118 -16 -365 -62 -445 -83 -33 -8 -112 -26 -175 -38
-123 -25 -158 -46 -145 -89 3 -12 10 -62 15 -113 5 -51 12 -105 15 -120 4 -15
8 -38 11 -50 2 -13 15 -30 29 -39 22 -14 37 -14 192 6 400 51 521 68 541 75 7
3 22 0 33 -6 29 -15 59 -1 74 35 42 99 70 372 42 410 -17 24 -73 27 -187 12z
m90 -149 c0 -66 -19 -168 -34 -184 -6 -7 -67 -21 -136 -32 -157 -25 -543 -71
-549 -66 -6 6 -20 188 -15 196 2 4 25 10 51 13 27 4 80 15 118 26 85 22 432
88 495 93 25 2 51 4 58 5 8 1 12 -14 12 -51z"/>
<path d="M930 1189 c-71 -9 -235 -37 -431 -75 -69 -13 -141 -24 -161 -24 -42
0 -72 -23 -86 -66 -6 -19 -7 -100 -1 -230 28 -627 28 -626 68 -639 26 -8 61
10 62 33 2 30 -1 164 -7 275 -5 107 -5 107 18 107 30 0 181 17 236 26 l42 7 0
-176 c0 -97 4 -187 9 -200 11 -27 39 -41 63 -32 31 12 38 54 38 235 0 161 2
179 18 184 21 7 285 26 290 21 2 -2 2 -95 1 -207 -3 -272 -4 -259 12 -269 27
-17 58 -9 76 18 36 55 39 883 3 978 -16 43 -97 54 -250 34z m155 -109 c3 -5 8
-83 12 -173 l6 -164 -124 -6 c-68 -4 -141 -9 -161 -13 l-37 -6 -3 167 c-3 166
-3 167 20 176 60 23 276 37 287 19z m-415 -204 c0 -148 -2 -165 -18 -170 -16
-6 -286 -36 -288 -33 -1 1 -4 71 -7 154 -5 151 -5 153 16 158 149 30 253 50
285 54 9 1 12 -38 12 -163z"/>
</g>
</svg>
