<?xml version="1.0" standalone="no"?>
<!DOCTYPE svg PUBLIC "-//W3C//DTD SVG 20010904//EN"
 "http://www.w3.org/TR/2001/REC-SVG-20010904/DTD/svg10.dtd">
<svg version="1.0" xmlns="http://www.w3.org/2000/svg"
 width="248.000000pt" height="248.000000pt" viewBox="0 0 248.000000 248.000000"
 preserveAspectRatio="xMidYMid meet">
<metadata>
Created by potrace 1.10, written by Peter Selinger 2001-2011
</metadata>
<g transform="translate(0.000000,248.000000) scale(0.100000,-0.100000)"
fill="#000000" stroke="none">
<path d="M546 2308 c-13 -19 -16 -59 -16 -239 l0 -217 -48 -11 c-26 -5 -92
-17 -147 -26 -147 -25 -138 -8 -148 -288 -4 -127 -6 -305 -5 -395 3 -149 5
-165 22 -178 25 -18 37 -18 62 0 18 13 19 35 27 377 4 200 10 365 12 367 4 4
44 12 188 38 l37 7 -1 -399 c-1 -220 -4 -574 -8 -788 -4 -258 -3 -397 4 -410
16 -33 60 -33 82 0 16 26 19 65 24 434 4 223 7 579 8 792 l1 386 68 7 c37 4
89 10 115 15 l49 8 -6 -42 c-3 -22 -8 -177 -12 -344 l-7 -303 -26 32 c-19 22
-35 32 -56 32 -28 0 -55 -24 -55 -49 0 -19 129 -174 155 -186 38 -17 72 -3 83
34 9 27 28 696 25 845 -1 71 -42 100 -116 84 -23 -5 -81 -12 -129 -16 l-88 -7
0 209 c0 227 -6 253 -55 253 -13 0 -31 -10 -39 -22z"/>
<path d="M2018 2255 c-2 -3 -85 -12 -184 -21 -98 -8 -226 -19 -283 -24 -274
-25 -321 -37 -321 -85 0 -43 34 -55 120 -44 94 11 240 26 445 44 232 20 325
33 341 46 21 17 18 66 -5 79 -20 10 -104 14 -113 5z"/>
<path d="M1950 1929 c-58 -4 -179 -12 -270 -18 -229 -15 -479 -48 -507 -67
-25 -16 -25 -24 -8 -321 8 -138 35 -164 147 -145 35 6 81 14 103 18 22 4 190
9 373 13 327 6 334 6 351 28 15 18 19 52 24 223 3 117 2 212 -4 226 -9 24 -64
56 -91 52 -7 0 -60 -5 -118 -9z m107 -181 c-4 -46 -7 -116 -7 -155 l0 -73
-217 0 c-190 0 -454 -18 -534 -36 l-27 -6 -4 139 c-3 76 -4 139 -2 141 1 2 46
9 100 17 88 12 178 19 564 45 58 3 111 7 119 8 11 2 13 -13 8 -80z"/>
<path d="M1600 1230 c-47 -4 -134 -14 -195 -23 -60 -9 -144 -19 -185 -22 -124
-11 -120 -3 -121 -223 0 -103 -4 -308 -9 -457 -9 -301 -6 -320 45 -320 47 0
55 31 62 234 l6 179 111 6 c61 4 157 9 214 12 l102 6 0 -208 c0 -229 6 -257
52 -262 50 -6 59 25 58 209 0 90 -1 183 0 207 l0 42 190 0 190 0 0 -197 c0
-216 6 -246 51 -251 54 -6 54 -11 57 533 3 501 3 501 -19 521 -20 18 -39 19
-273 20 -138 1 -289 -2 -336 -6z m540 -289 c0 -104 -3 -196 -6 -205 -5 -14
-32 -16 -200 -16 l-194 0 -1 83 c-1 45 -1 85 -1 88 1 3 4 58 8 123 l7 116 193
0 194 0 0 -189z m-503 67 c-4 -62 -7 -151 -7 -198 l0 -86 -42 1 c-24 0 -119
-4 -213 -8 l-170 -8 3 184 3 184 117 13 c64 6 133 16 152 20 19 4 64 8 99 9
l64 1 -6 -112z"/>
</g>
</svg>
