<?xml version="1.0" standalone="no"?>
<!DOCTYPE svg PUBLIC "-//W3C//DTD SVG 20010904//EN"
 "http://www.w3.org/TR/2001/REC-SVG-20010904/DTD/svg10.dtd">
<svg version="1.0" xmlns="http://www.w3.org/2000/svg"
 width="248.000000pt" height="248.000000pt" viewBox="0 0 248.000000 248.000000"
 preserveAspectRatio="xMidYMid meet">
<metadata>
Created by potrace 1.10, written by Peter Selinger 2001-2011
</metadata>
<g transform="translate(0.000000,248.000000) scale(0.100000,-0.100000)"
fill="#000000" stroke="none">
<path d="M532 2318 c-20 -20 -13 -54 21 -96 116 -144 161 -192 181 -192 43 0
59 45 35 93 -11 21 -82 105 -147 175 -31 33 -68 42 -90 20z"/>
<path d="M755 1913 c-140 -31 -295 -66 -369 -84 -44 -10 -98 -19 -121 -19 -53
0 -87 -24 -83 -58 6 -56 65 -62 228 -23 47 11 121 27 165 37 44 9 92 20 108
25 35 10 34 1 -6 -47 -18 -21 -64 -79 -102 -129 -38 -49 -172 -192 -297 -318
-229 -229 -248 -253 -216 -285 31 -31 58 -13 231 152 l172 164 7 -137 c3 -75
7 -341 7 -591 0 -250 1 -463 1 -473 0 -9 11 -22 24 -28 38 -18 63 3 75 61 13
61 14 713 2 1055 l-9 230 47 59 c25 32 70 88 100 124 98 118 161 213 161 242
0 50 -37 62 -125 43z"/>
</g>
</svg>
