<?xml version="1.0" standalone="no"?>
<!DOCTYPE svg PUBLIC "-//W3C//DTD SVG 20010904//EN"
 "http://www.w3.org/TR/2001/REC-SVG-20010904/DTD/svg10.dtd">
<svg version="1.0" xmlns="http://www.w3.org/2000/svg"
 width="248.000000pt" height="248.000000pt" viewBox="0 0 248.000000 248.000000"
 preserveAspectRatio="xMidYMid meet">
<metadata>
Created by potrace 1.10, written by Peter Selinger 2001-2011
</metadata>
<g transform="translate(0.000000,248.000000) scale(0.100000,-0.100000)"
fill="#000000" stroke="none">
<path d="M1222 2438 c-7 -7 -12 -26 -12 -42 -1 -45 -21 -93 -71 -167 -24 -37
-48 -74 -54 -82 -8 -13 -42 -18 -163 -27 -85 -5 -186 -10 -225 -10 -85 0 -121
-15 -125 -52 -7 -58 58 -68 298 -48 58 4 106 7 108 6 3 -4 -62 -70 -184 -186
-122 -117 -272 -236 -393 -312 -97 -61 -112 -86 -73 -121 24 -22 37 -21 81 5
154 93 278 186 406 308 56 52 125 118 156 145 30 28 80 78 111 113 l57 62 63
0 c57 0 67 -3 108 -36 25 -20 65 -47 90 -62 25 -14 54 -33 65 -43 27 -23 182
-111 273 -155 41 -19 94 -48 119 -65 75 -52 420 -209 459 -209 28 0 44 19 44
51 0 31 -6 36 -85 71 -224 99 -313 142 -358 172 -29 18 -88 51 -132 73 -107
53 -225 120 -250 142 -11 11 -39 28 -63 40 -23 12 -41 25 -38 30 5 7 102 18
399 46 158 14 187 25 187 70 0 45 -18 48 -182 36 -84 -7 -209 -18 -278 -26
-159 -18 -350 -29 -350 -20 0 3 14 27 32 52 64 94 87 203 50 236 -22 20 -53
22 -70 5z"/>
<path d="M1222 1858 c-8 -8 -12 -46 -12 -104 0 -158 7 -149 -124 -168 -61 -9
-129 -19 -151 -22 l-40 -6 21 23 c82 92 98 199 29 199 -23 0 -55 -28 -55 -48
0 -15 -93 -137 -149 -195 -25 -26 -67 -62 -94 -79 -49 -32 -68 -68 -50 -97 20
-31 58 -24 127 24 l66 47 0 -226 c0 -213 1 -227 20 -246 42 -42 90 -8 90 64
l0 43 53 7 c97 11 278 7 276 -6 -7 -57 24 -89 67 -69 17 7 25 22 30 51 5 32
11 40 28 41 340 12 366 17 366 64 0 45 -20 50 -207 48 l-173 -2 0 43 0 43 155
6 c165 7 218 20 230 56 3 11 1 30 -5 41 -11 21 -16 21 -163 15 -84 -3 -166 -8
-184 -11 l-32 -5 6 58 c3 32 8 60 10 63 2 2 90 12 195 22 212 20 238 28 238
78 0 22 -6 33 -22 39 -14 5 -99 1 -208 -10 -102 -10 -199 -18 -215 -19 l-31 0
1 104 c0 88 -3 107 -19 125 -21 23 -56 27 -74 9z m16 -415 l-3 -58 -50 -6
c-27 -4 -103 -9 -167 -12 l-118 -5 0 44 c0 27 5 46 13 48 11 4 210 32 272 40
17 1 36 4 43 5 10 1 12 -14 10 -56z m-8 -213 l0 -40 -82 0 c-46 0 -120 -3
-165 -7 l-83 -6 0 36 c0 44 5 46 135 50 50 2 114 4 143 5 l52 2 0 -40z"/>
</g>
</svg>
