<?xml version="1.0" standalone="no"?>
<!DOCTYPE svg PUBLIC "-//W3C//DTD SVG 20010904//EN"
 "http://www.w3.org/TR/2001/REC-SVG-20010904/DTD/svg10.dtd">
<svg version="1.0" xmlns="http://www.w3.org/2000/svg"
 width="248.000000pt" height="248.000000pt" viewBox="0 0 248.000000 248.000000"
 preserveAspectRatio="xMidYMid meet">
<metadata>
Created by potrace 1.10, written by Peter Selinger 2001-2011
</metadata>
<g transform="translate(0.000000,248.000000) scale(0.100000,-0.100000)"
fill="#000000" stroke="none">
<path d="M1222 2438 c-7 -7 -12 -26 -12 -42 -1 -45 -21 -93 -71 -167 -24 -37
-48 -74 -54 -82 -8 -13 -42 -18 -163 -27 -85 -5 -186 -10 -225 -10 -85 0 -121
-15 -125 -52 -7 -58 58 -68 298 -48 58 4 106 7 108 6 3 -4 -62 -70 -184 -186
-122 -117 -272 -236 -393 -312 -97 -61 -112 -86 -73 -121 24 -22 37 -21 81 5
154 93 278 186 406 308 56 52 125 118 156 145 30 28 80 78 110 111 l56 61 129
7 c71 4 190 13 264 21 74 8 206 21 293 29 169 15 197 25 197 71 0 45 -18 48
-182 36 -84 -7 -209 -18 -278 -26 -159 -18 -350 -29 -350 -20 0 3 14 27 32 52
64 94 87 203 50 236 -22 20 -53 22 -70 5z"/>
</g>
</svg>
