<?xml version="1.0" standalone="no"?>
<!DOCTYPE svg PUBLIC "-//W3C//DTD SVG 20010904//EN"
 "http://www.w3.org/TR/2001/REC-SVG-20010904/DTD/svg10.dtd">
<svg version="1.0" xmlns="http://www.w3.org/2000/svg"
 width="248.000000pt" height="248.000000pt" viewBox="0 0 248.000000 248.000000"
 preserveAspectRatio="xMidYMid meet">
<metadata>
Created by potrace 1.10, written by Peter Selinger 2001-2011
</metadata>
<g transform="translate(0.000000,248.000000) scale(0.100000,-0.100000)"
fill="#000000" stroke="none">
<path d="M1805 2189 c-55 -5 -163 -15 -240 -23 -77 -9 -228 -20 -335 -26 -107
-6 -251 -15 -320 -20 -69 -5 -161 -10 -205 -10 -44 0 -91 -6 -105 -13 -34 -17
-39 -60 -8 -81 28 -20 91 -20 348 -2 107 8 254 17 325 21 72 3 191 12 265 20
74 8 206 21 293 29 168 15 197 25 197 71 0 47 -19 50 -215 34z"/>
</g>
</svg>
