<?xml version="1.0" standalone="no"?>
<!DOCTYPE svg PUBLIC "-//W3C//DTD SVG 20010904//EN"
 "http://www.w3.org/TR/2001/REC-SVG-20010904/DTD/svg10.dtd">
<svg version="1.0" xmlns="http://www.w3.org/2000/svg"
 width="248.000000pt" height="248.000000pt" viewBox="0 0 248.000000 248.000000"
 preserveAspectRatio="xMidYMid meet">
<metadata>
Created by potrace 1.10, written by Peter Selinger 2001-2011
</metadata>
<g transform="translate(0.000000,248.000000) scale(0.100000,-0.100000)"
fill="#000000" stroke="none">
<path d="M1222 2438 c-7 -7 -12 -26 -12 -42 -1 -45 -21 -93 -71 -167 -24 -37
-48 -73 -54 -82 -8 -12 -44 -18 -156 -26 -81 -6 -182 -11 -225 -11 -92 0 -128
-14 -132 -52 -7 -58 58 -68 298 -48 58 4 106 7 108 6 3 -4 -66 -74 -184 -186
-102 -98 -258 -226 -329 -271 -22 -14 -66 -42 -97 -62 -63 -40 -74 -69 -40
-100 25 -23 36 -22 90 10 124 71 271 183 397 303 56 52 125 118 156 145 30 28
80 78 111 113 l57 62 63 0 c57 0 67 -3 108 -36 25 -20 65 -47 90 -62 25 -14
54 -33 65 -43 24 -21 130 -82 270 -154 55 -28 123 -66 151 -84 66 -42 400
-191 428 -191 30 0 46 19 46 52 0 32 -5 34 -275 154 -60 27 -136 66 -169 87
-32 21 -93 55 -135 76 -104 51 -222 118 -246 140 -11 11 -40 29 -64 41 -24 12
-39 25 -35 29 10 9 153 25 359 41 156 12 185 18 208 38 21 19 22 55 2 72 -17
14 -184 4 -440 -25 -150 -17 -355 -29 -355 -20 0 4 14 27 32 52 64 94 87 203
50 236 -22 20 -53 22 -70 5z"/>
<path d="M1222 1858 c-8 -8 -12 -48 -12 -112 0 -141 -1 -143 -63 -151 -29 -3
-74 -10 -102 -15 -27 -5 -72 -12 -99 -15 l-49 -7 30 39 c77 98 85 183 18 183
-22 0 -55 -28 -55 -47 0 -16 -86 -130 -142 -189 -26 -28 -71 -66 -98 -85 -52
-35 -71 -70 -53 -98 20 -31 58 -24 127 24 l66 47 0 -224 c0 -247 1 -252 64
-282 42 -20 217 -21 586 -5 183 8 261 16 278 26 30 18 29 58 -3 79 -22 14 -46
15 -197 8 -95 -5 -177 -9 -183 -9 -8 0 -9 54 0 63 1 1 81 6 177 10 190 8 211
15 206 61 -5 46 -36 53 -215 46 l-163 -6 0 44 0 44 156 7 c165 7 217 19 229
55 3 11 1 30 -5 41 -11 20 -16 21 -158 15 -81 -3 -164 -8 -184 -10 l-37 -5 6
57 c3 32 10 61 15 64 5 3 92 13 194 22 207 18 234 27 234 77 0 22 -6 33 -22
39 -14 5 -101 1 -213 -10 -104 -10 -201 -18 -215 -19 l-26 0 1 104 c0 88 -3
107 -19 125 -21 23 -56 27 -74 9z m16 -415 l-3 -58 -50 -6 c-27 -4 -103 -9
-168 -12 l-118 -5 3 46 3 47 55 8 c197 27 257 35 268 36 10 1 12 -14 10 -56z
m-8 -213 l0 -40 -82 0 c-46 0 -120 -3 -165 -7 l-83 -6 0 36 c0 44 5 46 135 50
50 2 114 4 143 5 l52 2 0 -40z m-3 -180 l0 -30 -164 0 -163 0 0 24 c0 29 14
31 206 34 l121 2 0 -30z"/>
<path d="M1240 819 c-484 -12 -618 -20 -633 -38 -21 -24 -27 -58 -16 -93 5
-18 14 -113 19 -212 12 -195 32 -340 51 -363 19 -22 62 -12 76 18 9 19 10 41
3 80 -5 30 -14 135 -20 234 -6 99 -13 194 -16 211 l-6 31 89 7 c48 3 168 9
267 13 l179 6 -6 -54 c-4 -30 -8 -161 -9 -293 -2 -223 -1 -239 17 -252 26 -19
49 -17 70 6 16 18 19 49 24 299 3 154 9 282 13 286 4 4 109 9 234 13 l227 5
-7 -49 c-3 -28 -26 -140 -51 -249 -25 -110 -45 -214 -45 -230 0 -36 16 -55 45
-55 33 0 55 31 65 91 5 30 28 135 51 234 48 212 54 294 23 325 -42 42 -83 44
-644 29z"/>
</g>
</svg>
