<?xml version="1.0" standalone="no"?>
<!DOCTYPE svg PUBLIC "-//W3C//DTD SVG 20010904//EN"
 "http://www.w3.org/TR/2001/REC-SVG-20010904/DTD/svg10.dtd">
<svg version="1.0" xmlns="http://www.w3.org/2000/svg"
 width="248.000000pt" height="248.000000pt" viewBox="0 0 248.000000 248.000000"
 preserveAspectRatio="xMidYMid meet">
<metadata>
Created by potrace 1.10, written by Peter Selinger 2001-2011
</metadata>
<g transform="translate(0.000000,248.000000) scale(0.100000,-0.100000)"
fill="#000000" stroke="none">
<path d="M653 2278 c-6 -7 -15 -150 -22 -318 -6 -168 -14 -335 -17 -371 l-6
-65 -127 -27 c-170 -36 -323 -76 -338 -89 -18 -15 -16 -53 3 -69 22 -18 73
-14 169 12 44 12 127 32 184 44 l104 23 -7 -307 c-4 -168 -11 -396 -16 -506
-13 -282 -12 -435 3 -465 9 -18 21 -25 42 -25 46 0 55 29 55 190 0 77 5 230
10 340 5 110 12 333 16 496 l7 296 71 16 c152 36 372 101 389 115 21 18 22 55
2 72 -20 17 -77 9 -202 -28 -125 -37 -243 -66 -248 -60 -2 2 2 150 11 328 8
179 12 336 9 350 -13 51 -67 79 -92 48z"/>
<path d="M1012 2108 c-5 -7 -23 -41 -40 -74 -17 -34 -56 -96 -86 -139 -60 -83
-66 -103 -38 -128 36 -33 59 -18 139 93 90 124 122 203 96 239 -16 23 -55 28
-71 9z"/>
<path d="M282 1988 c-19 -19 -14 -61 18 -145 41 -108 97 -211 122 -224 14 -8
27 -8 43 -1 39 18 39 44 -4 123 -22 41 -52 108 -67 149 -15 41 -34 83 -42 93
-17 20 -53 22 -70 5z"/>
</g>
</svg>
