<?xml version="1.0" standalone="no"?>
<!DOCTYPE svg PUBLIC "-//W3C//DTD SVG 20010904//EN"
 "http://www.w3.org/TR/2001/REC-SVG-20010904/DTD/svg10.dtd">
<svg version="1.0" xmlns="http://www.w3.org/2000/svg"
 width="248.000000pt" height="248.000000pt" viewBox="0 0 248.000000 248.000000"
 preserveAspectRatio="xMidYMid meet">
<metadata>
Created by potrace 1.10, written by Peter Selinger 2001-2011
</metadata>
<g transform="translate(0.000000,248.000000) scale(0.100000,-0.100000)"
fill="#000000" stroke="none">
<path d="M1160 2385 c-9 -10 -13 -109 -17 -357 -2 -189 -6 -352 -8 -364 -4
-18 -14 -22 -82 -27 -91 -8 -493 -50 -673 -71 -247 -29 -250 -30 -250 -70 0
-54 35 -57 330 -22 294 35 556 60 620 61 l55 0 -2 -195 c-3 -187 -8 -284 -18
-300 -2 -4 -53 -12 -112 -19 -264 -29 -512 -69 -540 -87 -27 -17 -30 -54 -9
-87 8 -12 26 -85 40 -162 23 -130 32 -196 55 -415 10 -90 26 -117 66 -105 51
14 456 37 920 51 116 3 214 10 219 14 4 5 19 40 32 80 13 39 40 104 60 143 20
40 55 145 79 233 25 89 48 172 54 185 5 13 19 48 31 77 19 49 20 56 6 77 -14
21 -24 23 -142 30 -70 4 -246 6 -390 3 l-262 -5 5 241 c3 133 9 245 14 250 10
11 379 41 619 50 324 12 425 19 438 29 15 12 16 49 0 65 -21 21 -534 9 -898
-22 -111 -9 -157 -10 -163 -2 -5 6 -6 168 -2 359 5 263 3 352 -6 363 -15 18
-53 18 -69 -1z m732 -1433 c5 -5 0 -31 -11 -58 -11 -27 -36 -112 -56 -189 -20
-76 -46 -157 -58 -180 -11 -22 -35 -76 -53 -120 -25 -60 -39 -82 -56 -87 -13
-4 -183 -12 -378 -19 -195 -6 -413 -14 -483 -18 -71 -3 -133 -3 -138 0 -6 3
-15 48 -20 100 -6 52 -24 179 -41 283 -20 127 -27 191 -20 195 20 12 343 53
827 105 66 7 478 -3 487 -12z"/>
</g>
</svg>
