<?xml version="1.0" standalone="no"?>
<!DOCTYPE svg PUBLIC "-//W3C//DTD SVG 20010904//EN"
 "http://www.w3.org/TR/2001/REC-SVG-20010904/DTD/svg10.dtd">
<svg version="1.0" xmlns="http://www.w3.org/2000/svg"
 width="248.000000pt" height="248.000000pt" viewBox="0 0 248.000000 248.000000"
 preserveAspectRatio="xMidYMid meet">
<metadata>
Created by potrace 1.10, written by Peter Selinger 2001-2011
</metadata>
<g transform="translate(0.000000,248.000000) scale(0.100000,-0.100000)"
fill="#000000" stroke="none">
<path d="M1510 2324 c-91 -13 -239 -32 -330 -43 -91 -12 -205 -26 -255 -32
-102 -12 -135 -28 -135 -64 0 -29 40 -59 67 -51 10 3 83 12 163 21 80 9 155
19 168 22 21 5 22 3 22 -61 l0 -66 -47 -1 c-27 0 -57 -2 -68 -4 -11 -2 -76
-11 -145 -20 -69 -9 -177 -24 -240 -35 -63 -10 -154 -21 -202 -25 -121 -10
-123 -13 -114 -157 4 -62 14 -144 22 -183 8 -38 14 -85 14 -102 0 -89 58 -149
102 -105 l21 20 -21 124 c-12 67 -24 162 -28 211 l-6 87 31 0 c17 0 98 11 179
25 81 13 185 29 232 34 47 6 123 15 170 21 47 5 88 10 93 10 4 0 7 -116 7
-258 0 -280 4 -302 55 -302 51 0 55 21 55 311 l0 267 53 5 c28 2 97 10 152 16
224 26 287 31 438 37 102 4 157 3 157 -4 0 -13 -105 -130 -177 -198 -45 -42
-54 -56 -51 -79 4 -34 27 -50 60 -42 31 8 191 170 258 261 72 99 78 139 25
165 -46 22 -536 -5 -801 -44 -56 -8 -104 -15 -108 -15 -3 0 -6 27 -6 60 0 54
2 60 23 65 42 9 323 45 352 45 87 0 141 42 116 89 -10 18 -20 21 -74 20 -34
-1 -136 -12 -227 -25z"/>
<path d="M722 1758 c-18 -18 -15 -53 7 -72 13 -12 48 -20 113 -26 51 -5 117
-14 147 -20 84 -16 119 -13 131 11 15 26 5 65 -17 74 -27 11 -262 44 -318 45
-28 0 -56 -5 -63 -12z"/>
<path d="M703 1545 c-13 -9 -23 -27 -23 -39 0 -45 22 -52 225 -71 72 -7 109 8
113 46 4 38 -19 51 -111 60 -45 4 -104 11 -132 14 -38 5 -55 2 -72 -10z"/>
</g>
</svg>
