<?xml version="1.0" standalone="no"?>
<!DOCTYPE svg PUBLIC "-//W3C//DTD SVG 20010904//EN"
 "http://www.w3.org/TR/2001/REC-SVG-20010904/DTD/svg10.dtd">
<svg version="1.0" xmlns="http://www.w3.org/2000/svg"
 width="248.000000pt" height="248.000000pt" viewBox="0 0 248.000000 248.000000"
 preserveAspectRatio="xMidYMid meet">
<metadata>
Created by potrace 1.10, written by Peter Selinger 2001-2011
</metadata>
<g transform="translate(0.000000,248.000000) scale(0.100000,-0.100000)"
fill="#000000" stroke="none">
<path d="M1160 2385 c-9 -10 -13 -109 -17 -357 -2 -189 -6 -352 -8 -364 -4
-18 -14 -22 -82 -27 -91 -8 -493 -50 -673 -71 -247 -29 -250 -30 -250 -70 0
-54 35 -57 330 -22 294 35 556 60 620 61 l55 0 -2 -195 c-3 -187 -8 -284 -18
-300 -2 -4 -53 -12 -112 -19 -264 -29 -512 -69 -540 -87 -26 -17 -30 -54 -9
-87 24 -37 75 -339 91 -542 4 -44 9 -90 12 -103 11 -45 71 -53 93 -12 12 23
-3 163 -51 469 -21 130 -27 196 -20 200 12 8 260 42 566 79 197 23 267 27 483
26 150 -1 257 -5 263 -11 6 -6 2 -27 -10 -59 -11 -27 -36 -112 -56 -189 -20
-76 -46 -157 -58 -180 -42 -81 -104 -249 -99 -267 5 -22 49 -35 71 -21 9 5 30
43 48 84 18 41 48 108 67 149 19 41 51 138 71 215 37 138 48 174 87 268 17 44
18 51 4 72 -14 21 -24 23 -142 30 -70 4 -246 6 -390 3 l-262 -5 5 241 c3 133
9 245 14 250 10 11 379 41 619 50 324 12 425 19 438 29 15 12 16 49 0 65 -21
21 -534 9 -898 -22 -111 -9 -157 -10 -163 -2 -5 6 -6 168 -2 359 5 263 3 352
-6 363 -15 18 -53 18 -69 -1z"/>
</g>
</svg>
