<?xml version="1.0" standalone="no"?>
<!DOCTYPE svg PUBLIC "-//W3C//DTD SVG 20010904//EN"
 "http://www.w3.org/TR/2001/REC-SVG-20010904/DTD/svg10.dtd">
<svg version="1.0" xmlns="http://www.w3.org/2000/svg"
 width="248.000000pt" height="248.000000pt" viewBox="0 0 248.000000 248.000000"
 preserveAspectRatio="xMidYMid meet">
<metadata>
Created by potrace 1.10, written by Peter Selinger 2001-2011
</metadata>
<g transform="translate(0.000000,248.000000) scale(0.100000,-0.100000)"
fill="#000000" stroke="none">
<path d="M700 2280 c-30 -4 -107 -15 -170 -24 -63 -9 -133 -20 -155 -26 -22
-5 -56 -10 -75 -10 -73 0 -107 -62 -54 -96 23 -15 33 -16 92 -5 69 13 226 37
322 48 53 6 54 6 40 -13 -44 -57 -204 -223 -239 -249 -51 -37 -62 -69 -33 -97
27 -28 56 -19 124 36 102 83 328 354 328 394 0 50 -46 60 -180 42z"/>
</g>
</svg>
