<?xml version="1.0" standalone="no"?>
<!DOCTYPE svg PUBLIC "-//W3C//DTD SVG 20010904//EN"
 "http://www.w3.org/TR/2001/REC-SVG-20010904/DTD/svg10.dtd">
<svg version="1.0" xmlns="http://www.w3.org/2000/svg"
 width="248.000000pt" height="248.000000pt" viewBox="0 0 248.000000 248.000000"
 preserveAspectRatio="xMidYMid meet">
<metadata>
Created by potrace 1.10, written by Peter Selinger 2001-2011
</metadata>
<g transform="translate(0.000000,248.000000) scale(0.100000,-0.100000)"
fill="#000000" stroke="none">
<path d="M1496 2318 c-13 -18 -16 -51 -16 -170 l0 -148 -42 0 c-24 -1 -88 -7
-143 -15 -55 -8 -170 -20 -255 -26 -85 -5 -166 -16 -180 -22 -35 -17 -39 -61
-7 -81 20 -14 42 -15 163 -7 76 6 186 16 244 25 58 8 131 17 163 20 l57 6 0
-53 c0 -63 -70 -311 -123 -435 -45 -105 -117 -239 -174 -322 -117 -170 -332
-449 -415 -537 -58 -62 -71 -96 -46 -121 21 -21 56 -13 94 20 39 35 163 184
234 282 25 34 68 91 95 126 127 162 232 336 306 508 24 54 43 98 44 100 1 1
14 -2 29 -8 26 -9 141 -31 346 -65 145 -24 141 -22 136 -48 -67 -315 -208
-677 -316 -812 -22 -27 -57 -72 -78 -100 -89 -114 -200 -222 -247 -239 -25
-10 -52 -16 -59 -13 -7 3 -25 36 -40 74 -15 37 -34 78 -42 90 -24 39 -94 26
-94 -16 0 -18 48 -141 72 -186 39 -73 82 -84 193 -50 67 20 127 71 231 196 32
39 75 90 95 113 133 153 260 428 348 756 27 100 51 219 51 251 0 47 -5 49
-330 104 -154 26 -249 44 -261 51 -4 2 7 48 23 101 16 54 32 132 35 174 l6 76
91 7 c50 3 165 8 256 11 212 8 297 20 311 46 14 26 2 58 -24 68 -22 9 -558
-13 -609 -25 l-28 -6 0 134 c0 87 -5 142 -13 158 -17 34 -60 39 -81 8z"/>
<path d="M700 2280 c-30 -4 -107 -15 -170 -24 -63 -9 -133 -20 -155 -26 -22
-5 -57 -10 -78 -10 -27 0 -45 -7 -62 -25 l-25 -24 0 -348 c-1 -317 -7 -678
-26 -1440 -6 -245 -5 -274 10 -297 21 -33 59 -34 80 -4 13 18 16 56 16 208 0
102 5 275 10 385 5 110 12 480 16 821 l7 622 41 7 c57 9 230 34 295 42 l55 6
-22 -29 c-26 -36 -205 -220 -249 -257 -41 -34 -45 -81 -9 -124 29 -35 111
-179 130 -230 27 -70 47 -167 53 -254 5 -75 2 -97 -21 -170 -14 -46 -36 -101
-49 -122 -23 -38 -23 -38 -46 -20 -14 12 -28 44 -41 91 -22 86 -34 104 -69
100 -41 -5 -51 -38 -34 -116 18 -79 45 -128 95 -172 54 -46 101 -46 140 0 40
47 80 129 109 220 30 96 30 217 0 345 -24 97 -67 222 -81 230 -5 3 -28 40 -51
82 l-42 76 39 32 c47 40 204 216 268 301 87 117 52 150 -134 124z"/>
</g>
</svg>
