<?xml version="1.0" standalone="no"?>
<!DOCTYPE svg PUBLIC "-//W3C//DTD SVG 20010904//EN"
 "http://www.w3.org/TR/2001/REC-SVG-20010904/DTD/svg10.dtd">
<svg version="1.0" xmlns="http://www.w3.org/2000/svg"
 width="248.000000pt" height="248.000000pt" viewBox="0 0 248.000000 248.000000"
 preserveAspectRatio="xMidYMid meet">
<metadata>
Created by potrace 1.10, written by Peter Selinger 2001-2011
</metadata>
<g transform="translate(0.000000,248.000000) scale(0.100000,-0.100000)"
fill="#000000" stroke="none">
<path d="M502 2327 c-6 -7 -18 -48 -27 -92 -9 -43 -24 -97 -33 -119 -13 -34
-90 -155 -150 -237 -17 -22 -8 -55 18 -69 36 -19 67 6 136 109 37 55 74 103
83 106 9 3 66 11 126 19 98 13 226 37 423 79 34 8 68 19 74 25 15 15 13 63 -3
73 -23 14 -86 10 -167 -10 -76 -20 -264 -53 -371 -67 -47 -5 -53 -4 -48 9 3 9
12 43 18 76 11 52 11 62 -4 85 -19 28 -57 35 -75 13z"/>
</g>
</svg>
