<?xml version="1.0" standalone="no"?>
<!DOCTYPE svg PUBLIC "-//W3C//DTD SVG 20010904//EN"
 "http://www.w3.org/TR/2001/REC-SVG-20010904/DTD/svg10.dtd">
<svg version="1.0" xmlns="http://www.w3.org/2000/svg"
 width="248.000000pt" height="248.000000pt" viewBox="0 0 248.000000 248.000000"
 preserveAspectRatio="xMidYMid meet">
<metadata>
Created by potrace 1.10, written by Peter Selinger 2001-2011
</metadata>
<g transform="translate(0.000000,248.000000) scale(0.100000,-0.100000)"
fill="#000000" stroke="none">
<path d="M1361 2357 c-6 -8 -16 -38 -21 -68 -18 -91 -89 -259 -110 -259 -16 0
-23 -46 -10 -69 7 -14 21 -21 40 -21 34 0 89 59 117 126 l18 44 60 0 c33 0 78
5 100 9 22 5 71 13 108 16 l69 8 -22 -44 c-13 -24 -38 -70 -57 -101 -24 -39
-33 -63 -28 -77 9 -29 40 -44 63 -32 38 20 110 134 137 217 16 50 17 51 63 58
274 35 282 38 282 82 0 34 -40 57 -87 51 -21 -3 -87 -13 -148 -21 -216 -31
-361 -49 -431 -53 l-71 -5 10 50 c9 42 8 54 -6 76 -19 28 -57 35 -76 13z"/>
<path d="M497 2318 c-8 -13 -17 -44 -21 -70 -13 -105 -62 -203 -184 -369 -17
-22 -8 -55 18 -69 36 -19 67 6 136 109 37 55 74 103 83 106 9 3 68 12 131 20
63 8 122 18 132 21 13 4 19 -4 27 -33 5 -21 14 -56 20 -78 14 -54 38 -85 65
-85 50 0 57 36 27 143 l-19 68 25 10 c13 5 62 16 109 26 99 19 117 29 117 67
0 51 -46 58 -178 27 -93 -22 -284 -57 -369 -66 -47 -5 -58 -4 -54 7 3 7 11 38
18 69 10 46 10 61 -1 85 -19 39 -62 45 -82 12z"/>
<path d="M2059 1736 c-2 -2 -74 -14 -159 -26 -85 -13 -177 -27 -205 -31 -27
-5 -106 -14 -175 -20 -163 -14 -167 -15 -185 -43 -20 -30 -21 -62 -5 -161 10
-62 11 -223 6 -705 -6 -559 -5 -627 9 -648 21 -29 60 -29 80 2 14 21 16 105
18 692 1 482 -1 679 -10 706 l-11 37 56 6 c71 7 181 23 292 41 47 8 121 18
165 23 44 6 89 13 99 17 17 6 18 3 13 -27 -3 -19 -11 -162 -17 -319 -6 -157
-16 -318 -22 -358 l-11 -73 -61 58 c-81 78 -129 113 -158 113 -52 0 -65 -57
-22 -93 15 -12 69 -61 120 -109 97 -91 128 -107 173 -92 53 19 66 89 81 434 5
124 14 288 20 366 12 156 6 188 -35 204 -28 11 -49 13 -56 6z"/>
<path d="M970 1670 c-30 -4 -101 -12 -158 -19 -57 -6 -106 -13 -110 -15 -14
-8 -198 -37 -276 -43 -113 -9 -133 -33 -101 -122 17 -50 32 -331 45 -879 7
-322 12 -388 25 -408 20 -31 53 -31 96 0 19 14 90 62 159 109 69 46 152 105
184 131 33 25 62 46 65 46 3 0 21 -25 39 -55 48 -80 81 -115 106 -115 57 0 60
54 9 130 -42 63 -70 111 -108 190 -47 98 -118 153 -153 118 -21 -21 -13 -56
23 -104 19 -25 35 -49 35 -54 0 -14 -121 -108 -247 -193 -105 -70 -113 -74
-118 -54 -10 47 -10 527 0 527 6 0 53 6 105 14 52 8 131 17 175 21 153 13 269
34 281 50 15 20 41 191 59 385 8 85 21 184 29 219 26 120 -4 142 -164 121z
m56 -127 c-3 -16 -11 -65 -17 -110 -13 -93 -4 -87 -139 -98 -41 -4 -106 -13
-145 -21 -76 -15 -246 -32 -264 -26 -6 2 -11 27 -11 55 -1 29 -5 71 -9 95 -6
30 -5 44 3 47 25 6 286 48 356 57 93 12 200 25 219 27 10 1 12 -7 7 -26z m-36
-315 c0 -30 -23 -187 -29 -196 -4 -6 -58 -16 -121 -22 -120 -12 -310 -37 -346
-46 -19 -5 -22 0 -28 57 -3 34 -6 83 -6 109 l0 47 90 6 c50 4 121 14 159 22
59 14 173 28 259 34 12 0 22 -4 22 -11z"/>
</g>
</svg>
