<?xml version="1.0" standalone="no"?>
<!DOCTYPE svg PUBLIC "-//W3C//DTD SVG 20010904//EN"
 "http://www.w3.org/TR/2001/REC-SVG-20010904/DTD/svg10.dtd">
<svg version="1.0" xmlns="http://www.w3.org/2000/svg"
 width="248.000000pt" height="248.000000pt" viewBox="0 0 248.000000 248.000000"
 preserveAspectRatio="xMidYMid meet">
<metadata>
Created by potrace 1.10, written by Peter Selinger 2001-2011
</metadata>
<g transform="translate(0.000000,248.000000) scale(0.100000,-0.100000)"
fill="#000000" stroke="none">
<path d="M1362 2357 c-7 -8 -17 -38 -22 -68 -18 -91 -89 -259 -110 -259 -16 0
-23 -46 -10 -69 29 -55 114 1 156 102 l19 47 60 0 c33 0 78 5 100 9 22 5 71
13 108 16 l69 7 -31 -60 c-17 -33 -42 -77 -56 -97 -14 -21 -25 -44 -25 -51 0
-17 36 -54 51 -54 34 0 123 132 154 226 19 58 -6 49 212 77 56 7 109 19 117
26 24 20 20 58 -8 76 -26 18 -27 17 -226 -11 -236 -33 -349 -47 -416 -51 l-72
-5 10 44 c8 35 7 52 -3 74 -16 33 -58 44 -77 21z"/>
<path d="M502 2327 c-6 -7 -18 -48 -27 -92 -9 -43 -24 -97 -33 -119 -13 -34
-90 -155 -150 -237 -17 -22 -8 -55 18 -69 36 -19 67 6 136 109 37 55 74 103
83 106 9 3 68 12 131 20 63 8 122 18 132 21 13 4 19 -4 27 -33 5 -21 14 -56
20 -78 14 -54 38 -85 65 -85 50 0 57 36 27 143 l-19 68 25 10 c13 5 62 16 109
26 46 9 92 21 101 28 19 14 21 64 2 76 -23 14 -86 10 -167 -10 -76 -20 -264
-53 -371 -67 -47 -5 -53 -4 -48 9 3 9 12 43 18 76 11 52 11 62 -4 85 -19 28
-57 35 -75 13z"/>
<path d="M2049 1735 c-3 -2 -68 -13 -145 -24 -76 -11 -184 -27 -239 -36 -55
-9 -143 -18 -195 -21 -110 -7 -143 -22 -138 -62 5 -42 39 -54 138 -47 47 3
108 10 135 15 28 5 118 18 200 30 83 12 170 25 195 30 25 5 46 7 47 6 2 -1 -2
-51 -7 -112 -5 -60 -12 -203 -15 -319 -3 -115 -11 -241 -17 -278 l-11 -68 -61
59 c-81 77 -129 112 -158 112 -53 0 -65 -56 -21 -93 15 -12 69 -61 120 -109
94 -89 123 -105 168 -94 57 15 69 74 85 436 5 124 14 288 20 366 12 156 6 188
-35 204 -28 11 -59 13 -66 5z"/>
<path d="M975 1670 c-33 -4 -106 -12 -163 -18 -57 -7 -106 -14 -110 -16 -13
-8 -195 -36 -271 -43 -42 -3 -84 -10 -93 -14 -26 -14 -31 -45 -14 -102 18 -64
33 -339 46 -879 6 -277 12 -385 22 -405 18 -38 54 -41 98 -9 19 14 94 64 165
112 72 48 154 107 183 131 30 23 57 43 60 43 4 0 22 -25 40 -55 48 -80 81
-115 106 -115 57 0 60 54 9 130 -47 69 -76 120 -108 190 -46 97 -118 153 -153
118 -21 -21 -13 -56 23 -104 19 -25 35 -49 35 -54 0 -14 -121 -108 -247 -193
-105 -70 -113 -74 -118 -54 -2 12 -6 135 -7 273 l-3 251 115 17 c63 9 162 21
220 26 156 15 224 28 236 45 15 20 42 192 59 385 8 85 21 184 29 219 17 75 9
107 -29 121 -28 11 -38 11 -130 0z m51 -127 c-3 -16 -11 -65 -17 -110 -13 -93
-4 -87 -139 -98 -41 -4 -107 -13 -146 -21 -76 -15 -262 -33 -269 -25 -3 2 -5
27 -5 55 -1 28 -5 70 -9 94 -6 30 -5 44 3 47 25 6 286 48 351 56 39 5 102 13
140 17 39 5 76 10 84 11 10 1 12 -7 7 -26z m-36 -315 c0 -30 -23 -187 -29
-196 -4 -6 -76 -18 -161 -27 -85 -9 -193 -22 -240 -29 -47 -7 -86 -12 -87 -11
-2 1 -6 50 -10 108 l-6 107 49 0 c27 0 90 7 139 16 101 17 276 41 318 43 15 0
27 -4 27 -11z"/>
</g>
</svg>
