<?xml version="1.0" standalone="no"?>
<!DOCTYPE svg PUBLIC "-//W3C//DTD SVG 20010904//EN"
 "http://www.w3.org/TR/2001/REC-SVG-20010904/DTD/svg10.dtd">
<svg version="1.0" xmlns="http://www.w3.org/2000/svg"
 width="248.000000pt" height="248.000000pt" viewBox="0 0 248.000000 248.000000"
 preserveAspectRatio="xMidYMid meet">
<metadata>
Created by potrace 1.10, written by Peter Selinger 2001-2011
</metadata>
<g transform="translate(0.000000,248.000000) scale(0.100000,-0.100000)"
fill="#000000" stroke="none">
<path d="M1978 2295 c-7 -7 -317 -34 -523 -46 -93 -5 -206 -13 -250 -19 -44
-5 -152 -14 -240 -20 -88 -6 -194 -15 -235 -20 -41 -6 -95 -10 -120 -10 -54 0
-90 -22 -90 -55 0 -38 39 -58 102 -52 29 3 123 10 208 16 85 6 196 16 245 21
50 6 111 13 138 15 l47 6 0 -116 0 -115 -51 0 c-50 0 -122 -9 -279 -36 -47 -8
-110 -14 -141 -14 -34 0 -61 -5 -67 -13 -7 -8 -13 -145 -16 -386 -3 -206 -9
-378 -14 -383 -4 -4 -58 -13 -118 -19 -60 -5 -151 -14 -202 -19 -101 -9 -132
-25 -132 -65 0 -51 12 -52 313 -25 71 7 130 10 133 8 2 -3 -1 -157 -7 -344 -6
-186 -11 -350 -10 -363 3 -58 65 -69 90 -16 16 34 29 223 30 435 1 74 4 171 7
216 l7 81 91 11 c242 31 563 52 814 52 l142 0 0 -253 c0 -140 -3 -302 -6 -360
l-7 -106 -23 16 c-45 29 -93 1 -81 -48 10 -37 122 -129 158 -129 55 0 58 22
66 475 5 357 8 405 22 409 9 3 93 8 186 11 94 4 176 12 183 17 19 16 14 53 -9
74 -19 17 -36 19 -138 17 -64 -1 -144 -5 -178 -8 l-63 -7 -1 249 c-1 136 -4
320 -8 408 l-6 160 -30 14 c-25 12 -44 12 -120 2 -49 -7 -135 -18 -190 -26
-55 -7 -130 -17 -167 -20 l-68 -7 0 115 0 114 113 6 c298 17 580 51 615 73 24
16 29 53 10 72 -12 12 -119 17 -130 7z m-138 -483 c0 -27 3 -90 6 -140 l7 -92
-72 0 c-63 0 -209 -10 -363 -25 l-48 -4 0 123 c0 137 0 136 67 136 35 0 223
24 313 40 90 16 90 16 90 -38z m-580 -142 l0 -130 -87 0 c-49 0 -115 -4 -148
-9 -33 -5 -93 -12 -132 -16 l-73 -6 0 115 c0 101 2 115 18 120 29 8 293 45
352 49 30 2 58 4 63 5 4 1 7 -56 7 -128z m590 -370 l0 -170 -118 0 c-66 0
-172 -3 -238 -6 l-119 -7 0 165 -1 166 121 9 c66 5 173 11 238 11 l117 2 0
-170z m-586 124 c3 -9 6 -81 6 -160 0 -107 -3 -146 -12 -149 -11 -4 -194 -23
-399 -42 l-56 -5 4 123 c6 183 10 208 36 213 33 7 147 17 282 25 66 4 123 8
126 9 4 1 10 -5 13 -14z"/>
</g>
</svg>
