<?xml version="1.0" standalone="no"?>
<!DOCTYPE svg PUBLIC "-//W3C//DTD SVG 20010904//EN"
 "http://www.w3.org/TR/2001/REC-SVG-20010904/DTD/svg10.dtd">
<svg version="1.0" xmlns="http://www.w3.org/2000/svg"
 width="248.000000pt" height="248.000000pt" viewBox="0 0 248.000000 248.000000"
 preserveAspectRatio="xMidYMid meet">
<metadata>
Created by potrace 1.10, written by Peter Selinger 2001-2011
</metadata>
<g transform="translate(0.000000,248.000000) scale(0.100000,-0.100000)"
fill="#000000" stroke="none">
<path d="M840 2054 c-345 -49 -492 -75 -518 -91 -31 -19 -27 -63 8 -80 20 -9
44 -8 120 6 52 10 115 21 140 24 25 4 145 20 268 38 123 17 226 28 229 25 3
-3 -8 -41 -26 -85 -17 -44 -31 -83 -31 -86 0 -4 -21 -59 -46 -123 -26 -65 -57
-144 -69 -177 -74 -195 -195 -444 -323 -660 -182 -308 -305 -474 -395 -531
-45 -29 -50 -65 -13 -89 21 -14 28 -14 58 -2 18 8 48 26 66 41 33 29 162 192
222 281 54 82 235 385 267 450 17 33 38 74 47 90 23 42 176 395 176 405 0 5
18 53 41 107 22 54 53 134 69 178 16 44 42 116 59 160 33 86 38 124 19 143
-19 19 -112 13 -368 -24z"/>
</g>
</svg>
