<?xml version="1.0" standalone="no"?>
<!DOCTYPE svg PUBLIC "-//W3C//DTD SVG 20010904//EN"
 "http://www.w3.org/TR/2001/REC-SVG-20010904/DTD/svg10.dtd">
<svg version="1.0" xmlns="http://www.w3.org/2000/svg"
 width="248.000000pt" height="248.000000pt" viewBox="0 0 248.000000 248.000000"
 preserveAspectRatio="xMidYMid meet">
<metadata>
Created by potrace 1.10, written by Peter Selinger 2001-2011
</metadata>
<g transform="translate(0.000000,248.000000) scale(0.100000,-0.100000)"
fill="#000000" stroke="none">
<path d="M1978 2295 c-7 -7 -317 -34 -523 -46 -93 -5 -206 -13 -250 -19 -44
-5 -152 -14 -240 -20 -88 -6 -194 -15 -235 -20 -41 -6 -95 -10 -120 -10 -25 0
-56 -7 -68 -16 -47 -32 -13 -94 52 -94 17 0 66 4 110 10 45 5 149 15 231 20
83 6 186 15 230 20 44 6 157 14 250 19 357 21 645 53 683 77 24 16 29 53 10
72 -12 12 -119 17 -130 7z"/>
<path d="M1780 1960 c-107 -20 -288 -41 -436 -50 -174 -11 -297 -24 -418 -46
-43 -8 -104 -14 -136 -14 -39 0 -62 -5 -70 -15 -10 -12 -12 -66 -11 -213 1
-108 -3 -298 -8 -422 -12 -245 -34 -920 -32 -959 2 -34 20 -52 50 -49 44 5 54
44 62 238 12 262 30 793 36 1067 5 211 8 243 22 247 47 14 319 46 471 56 96 6
202 15 235 20 178 27 288 40 294 35 9 -9 14 -1244 6 -1412 l-7 -142 -23 15
c-46 30 -94 2 -82 -47 4 -13 34 -48 68 -76 78 -68 112 -71 137 -15 15 34 17
112 17 894 0 969 7 888 -82 894 -26 1 -68 -1 -93 -6z"/>
</g>
</svg>
