<?xml version="1.0" standalone="no"?>
<!DOCTYPE svg PUBLIC "-//W3C//DTD SVG 20010904//EN"
 "http://www.w3.org/TR/2001/REC-SVG-20010904/DTD/svg10.dtd">
<svg version="1.0" xmlns="http://www.w3.org/2000/svg"
 width="248.000000pt" height="248.000000pt" viewBox="0 0 248.000000 248.000000"
 preserveAspectRatio="xMidYMid meet">
<metadata>
Created by potrace 1.10, written by Peter Selinger 2001-2011
</metadata>
<g transform="translate(0.000000,248.000000) scale(0.100000,-0.100000)"
fill="#000000" stroke="none">
<path d="M1978 2295 c-7 -7 -317 -34 -523 -46 -93 -5 -206 -13 -250 -19 -44
-5 -152 -14 -240 -20 -88 -6 -194 -15 -235 -20 -41 -6 -95 -10 -120 -10 -25 0
-56 -7 -68 -16 -47 -32 -13 -94 52 -94 17 0 66 4 110 10 45 5 149 15 231 20
83 6 186 15 230 20 44 6 157 14 250 19 357 21 645 53 683 77 24 16 29 53 10
72 -12 12 -119 17 -130 7z"/>
</g>
</svg>
