<?xml version="1.0" standalone="no"?>
<!DOCTYPE svg PUBLIC "-//W3C//DTD SVG 20010904//EN"
 "http://www.w3.org/TR/2001/REC-SVG-20010904/DTD/svg10.dtd">
<svg version="1.0" xmlns="http://www.w3.org/2000/svg"
 width="248.000000pt" height="248.000000pt" viewBox="0 0 248.000000 248.000000"
 preserveAspectRatio="xMidYMid meet">
<metadata>
Created by potrace 1.10, written by Peter Selinger 2001-2011
</metadata>
<g transform="translate(0.000000,248.000000) scale(0.100000,-0.100000)"
fill="#000000" stroke="none">
<path d="M840 2054 c-345 -49 -492 -75 -518 -91 -31 -19 -27 -63 8 -80 20 -9
44 -8 120 6 52 10 115 21 140 24 25 4 145 20 268 38 123 17 226 28 229 25 3
-3 -8 -41 -26 -85 -17 -44 -31 -83 -31 -86 0 -4 -21 -59 -46 -123 -26 -65 -57
-144 -69 -177 -26 -69 -152 -353 -179 -405 l-19 -34 -23 29 c-13 17 -61 81
-107 142 -83 114 -112 137 -146 116 -36 -23 -25 -60 45 -156 38 -51 82 -109
99 -129 16 -20 40 -54 52 -76 l22 -39 -51 -84 c-214 -354 -321 -497 -411 -555
-45 -29 -50 -65 -13 -89 21 -14 28 -14 58 -2 52 22 92 61 176 170 95 124 136
186 232 346 l74 125 25 -35 c15 -18 60 -69 102 -111 76 -79 109 -94 137 -66
26 26 12 59 -57 131 -92 95 -141 161 -141 188 0 12 13 43 28 68 49 80 214 467
308 726 18 50 47 126 63 170 33 86 38 124 19 143 -19 19 -112 13 -368 -24z"/>
</g>
</svg>
