<?xml version="1.0" standalone="no"?>
<!DOCTYPE svg PUBLIC "-//W3C//DTD SVG 20010904//EN"
 "http://www.w3.org/TR/2001/REC-SVG-20010904/DTD/svg10.dtd">
<svg version="1.0" xmlns="http://www.w3.org/2000/svg"
 width="248.000000pt" height="248.000000pt" viewBox="0 0 248.000000 248.000000"
 preserveAspectRatio="xMidYMid meet">
<metadata>
Created by potrace 1.10, written by Peter Selinger 2001-2011
</metadata>
<g transform="translate(0.000000,248.000000) scale(0.100000,-0.100000)"
fill="#000000" stroke="none">
<path d="M1978 2295 c-7 -7 -317 -34 -523 -46 -93 -5 -206 -13 -250 -19 -44
-5 -152 -14 -240 -20 -88 -6 -194 -15 -235 -20 -41 -6 -95 -10 -120 -10 -54 0
-90 -22 -90 -55 0 -38 39 -58 102 -52 29 3 123 10 208 16 85 6 196 16 245 21
50 6 111 13 138 15 l47 6 0 -116 0 -115 -51 0 c-50 0 -122 -9 -279 -36 -47 -8
-110 -14 -141 -14 -39 0 -61 -5 -69 -15 -10 -12 -12 -66 -11 -213 1 -108 -3
-298 -8 -422 -12 -245 -34 -920 -32 -959 1 -32 19 -51 46 -51 55 0 62 46 75
480 15 508 25 718 34 727 17 18 427 44 439 28 4 -5 7 -89 6 -185 -1 -96 2
-183 6 -192 9 -23 40 -32 64 -18 29 15 36 64 36 251 l0 166 175 12 c96 6 203
12 238 14 l62 3 0 -481 c0 -265 -3 -530 -6 -588 l-7 -106 -23 16 c-45 29 -93
1 -81 -48 10 -37 122 -129 158 -129 25 0 33 6 46 38 14 32 16 123 20 702 2
366 0 755 -4 865 l-8 200 -30 14 c-25 12 -44 12 -120 2 -49 -7 -135 -18 -190
-26 -55 -7 -130 -17 -167 -20 l-68 -7 0 115 0 114 113 6 c298 17 580 51 615
73 24 16 29 53 10 72 -12 12 -119 17 -130 7z m-138 -482 c0 -27 3 -92 7 -145
l6 -96 -43 5 c-39 5 -332 -11 -407 -23 l-33 -5 0 124 c0 138 0 137 67 137 35
0 223 24 313 40 90 16 90 16 90 -37z m-580 -143 l0 -130 -87 0 c-49 0 -115 -4
-148 -9 -33 -5 -93 -12 -132 -16 l-73 -6 0 115 c0 101 2 115 18 120 29 8 293
45 352 49 30 2 58 4 63 5 4 1 7 -56 7 -128z"/>
</g>
</svg>
