<?xml version="1.0" standalone="no"?>
<!DOCTYPE svg PUBLIC "-//W3C//DTD SVG 20010904//EN"
 "http://www.w3.org/TR/2001/REC-SVG-20010904/DTD/svg10.dtd">
<svg version="1.0" xmlns="http://www.w3.org/2000/svg"
 width="248.000000pt" height="248.000000pt" viewBox="0 0 248.000000 248.000000"
 preserveAspectRatio="xMidYMid meet">
<metadata>
Created by potrace 1.10, written by Peter Selinger 2001-2011
</metadata>
<g transform="translate(0.000000,248.000000) scale(0.100000,-0.100000)"
fill="#000000" stroke="none">
<path d="M1978 2295 c-7 -7 -317 -34 -523 -46 -93 -5 -206 -13 -250 -19 -44
-5 -152 -14 -240 -20 -88 -6 -194 -15 -235 -20 -41 -6 -95 -10 -120 -10 -54 0
-90 -22 -90 -55 0 -38 39 -58 102 -52 29 3 123 10 208 16 85 6 196 16 245 21
50 6 111 13 138 15 l47 6 0 -116 0 -115 -51 0 c-50 0 -122 -9 -279 -36 -47 -8
-110 -14 -141 -14 -39 0 -61 -5 -69 -15 -10 -12 -12 -66 -11 -213 1 -108 -3
-298 -8 -422 -12 -245 -34 -920 -32 -959 2 -34 20 -52 50 -49 44 5 54 44 62
238 12 262 30 793 36 1067 5 211 8 243 22 247 29 9 295 45 359 48 l62 4 1
-135 c2 -291 9 -587 14 -608 12 -50 78 -36 92 19 4 18 6 189 5 380 l-4 347 24
5 c12 3 50 7 83 10 57 4 233 27 321 41 l41 7 6 -123 c9 -158 9 -1193 1 -1332
l-7 -106 -23 16 c-45 29 -93 1 -81 -48 10 -37 122 -129 158 -129 25 0 33 6 46
38 14 32 16 123 20 702 2 366 0 755 -4 865 l-8 200 -30 14 c-25 12 -44 12
-120 2 -49 -7 -135 -18 -190 -26 -55 -7 -130 -17 -167 -20 l-68 -7 0 115 0
114 113 6 c298 17 580 51 615 73 24 16 29 53 10 72 -12 12 -119 17 -130 7z"/>
</g>
</svg>
