<?xml version="1.0" standalone="no"?>
<!DOCTYPE svg PUBLIC "-//W3C//DTD SVG 20010904//EN"
 "http://www.w3.org/TR/2001/REC-SVG-20010904/DTD/svg10.dtd">
<svg version="1.0" xmlns="http://www.w3.org/2000/svg"
 width="248.000000pt" height="248.000000pt" viewBox="0 0 248.000000 248.000000"
 preserveAspectRatio="xMidYMid meet">
<metadata>
Created by potrace 1.10, written by Peter Selinger 2001-2011
</metadata>
<g transform="translate(0.000000,248.000000) scale(0.100000,-0.100000)"
fill="#000000" stroke="none">
<path d="M1153 2340 c-13 -5 -23 -15 -24 -22 0 -7 0 -89 1 -183 1 -152 -19
-415 -35 -457 -5 -12 -44 -19 -183 -32 -97 -9 -216 -21 -263 -26 -48 -6 -105
-10 -128 -10 -28 0 -47 -6 -61 -20 -26 -26 -25 -45 1 -71 18 -18 29 -21 73
-15 28 3 148 15 266 26 118 11 225 23 238 25 29 7 29 0 -14 -141 -74 -246
-167 -419 -323 -606 -125 -149 -247 -222 -423 -252 -46 -8 -65 -37 -49 -72 33
-74 298 15 450 152 62 56 191 213 251 305 76 118 140 269 205 484 l42 140 84
12 c126 19 382 42 583 53 195 11 226 20 226 65 0 47 -30 55 -175 44 -372 -27
-602 -49 -674 -65 -22 -5 -23 -3 -17 29 15 79 36 330 35 427 0 126 -11 189
-35 207 -20 15 -21 15 -51 3z"/>
</g>
</svg>
