<?xml version="1.0" standalone="no"?>
<!DOCTYPE svg PUBLIC "-//W3C//DTD SVG 20010904//EN"
 "http://www.w3.org/TR/2001/REC-SVG-20010904/DTD/svg10.dtd">
<svg version="1.0" xmlns="http://www.w3.org/2000/svg"
 width="248.000000pt" height="248.000000pt" viewBox="0 0 248.000000 248.000000"
 preserveAspectRatio="xMidYMid meet">
<metadata>
Created by potrace 1.10, written by Peter Selinger 2001-2011
</metadata>
<g transform="translate(0.000000,248.000000) scale(0.100000,-0.100000)"
fill="#000000" stroke="none">
<path d="M1153 2340 c-13 -5 -23 -15 -24 -22 0 -7 0 -89 1 -183 1 -152 -19
-415 -35 -457 -5 -12 -44 -19 -183 -32 -97 -9 -216 -21 -263 -26 -48 -6 -105
-10 -128 -10 -28 0 -47 -6 -61 -20 -26 -26 -25 -45 1 -71 19 -19 29 -21 78
-15 93 11 454 46 478 46 37 0 38 -38 3 -151 -72 -233 -166 -408 -319 -591
-125 -149 -247 -222 -423 -252 -46 -8 -65 -37 -49 -72 34 -74 298 15 451 153
71 64 215 244 272 341 52 88 114 229 153 350 15 45 30 82 33 82 4 0 21 -24 39
-53 69 -113 523 -584 668 -694 131 -98 206 -132 476 -210 22 -6 49 23 49 53 0
33 -40 56 -157 88 -103 29 -215 81 -278 129 -117 91 -225 191 -355 332 -80 86
-171 185 -204 218 -60 64 -196 258 -196 281 0 20 325 57 664 76 195 11 226 20
226 65 0 47 -30 55 -175 44 -372 -27 -602 -49 -674 -65 -22 -5 -23 -3 -17 29
15 79 36 330 35 427 0 126 -11 189 -35 207 -20 15 -21 15 -51 3z"/>
<path d="M1052 888 c-24 -24 -10 -53 74 -144 94 -103 217 -224 240 -237 23
-13 64 19 64 49 0 19 -27 52 -107 133 -60 59 -128 130 -153 159 -36 41 -52 52
-76 52 -16 0 -35 -5 -42 -12z"/>
</g>
</svg>
