<?xml version="1.0" standalone="no"?>
<!DOCTYPE svg PUBLIC "-//W3C//DTD SVG 20010904//EN"
 "http://www.w3.org/TR/2001/REC-SVG-20010904/DTD/svg10.dtd">
<svg version="1.0" xmlns="http://www.w3.org/2000/svg"
 width="248.000000pt" height="248.000000pt" viewBox="0 0 248.000000 248.000000"
 preserveAspectRatio="xMidYMid meet">
<metadata>
Created by potrace 1.10, written by Peter Selinger 2001-2011
</metadata>
<g transform="translate(0.000000,248.000000) scale(0.100000,-0.100000)"
fill="#000000" stroke="none">
<path d="M220 2146 c-27 -33 -7 -59 101 -131 59 -38 129 -83 155 -98 27 -15
61 -35 76 -44 38 -24 78 -5 78 36 0 33 -41 71 -120 112 -25 13 -85 49 -134 81
-90 59 -133 71 -156 44z"/>
<path d="M122 1558 c-17 -17 -15 -53 3 -68 39 -32 351 -160 391 -160 37 0 57
43 35 78 -4 7 -73 39 -152 71 -79 32 -158 65 -176 74 -38 20 -84 22 -101 5z"/>
</g>
</svg>
