<?xml version="1.0" standalone="no"?>
<!DOCTYPE svg PUBLIC "-//W3C//DTD SVG 20010904//EN"
 "http://www.w3.org/TR/2001/REC-SVG-20010904/DTD/svg10.dtd">
<svg version="1.0" xmlns="http://www.w3.org/2000/svg"
 width="248.000000pt" height="248.000000pt" viewBox="0 0 248.000000 248.000000"
 preserveAspectRatio="xMidYMid meet">
<metadata>
Created by potrace 1.10, written by Peter Selinger 2001-2011
</metadata>
<g transform="translate(0.000000,248.000000) scale(0.100000,-0.100000)"
fill="#000000" stroke="none">
<path d="M220 2146 c-27 -33 -7 -59 101 -131 59 -38 129 -83 155 -98 27 -15
61 -35 76 -44 38 -24 78 -5 78 36 0 33 -41 71 -120 112 -25 13 -85 49 -134 81
-90 59 -133 71 -156 44z"/>
<path d="M1940 2048 c-52 -5 -144 -15 -205 -23 -60 -8 -150 -19 -200 -24 -49
-6 -200 -26 -334 -46 -256 -37 -281 -45 -281 -90 0 -44 22 -50 128 -37 115 13
272 36 398 57 49 8 110 15 134 15 24 0 85 7 134 15 106 17 354 40 360 34 6 -6
-40 -222 -61 -289 l-18 -54 -65 -12 c-36 -7 -117 -20 -180 -29 -63 -9 -149
-22 -190 -30 -80 -15 -111 -19 -425 -60 -110 -14 -210 -30 -222 -36 -11 -6
-29 -32 -38 -58 -10 -25 -48 -104 -86 -174 -38 -71 -69 -136 -69 -146 0 -27
37 -54 73 -55 17 0 73 6 122 12 50 7 128 17 175 23 47 6 108 15 135 20 61 11
405 56 530 69 50 6 101 12 115 15 21 4 374 35 404 35 5 0 6 -31 3 -69 -9 -104
-105 -334 -184 -440 -41 -55 -144 -171 -152 -171 -4 0 -21 20 -39 45 -37 52
-73 66 -102 40 -29 -26 -25 -44 25 -113 51 -70 69 -82 121 -82 34 0 46 8 100
63 64 66 184 221 184 239 0 5 9 22 20 37 32 46 109 246 126 328 18 86 15 187
-7 208 -8 8 -27 16 -44 19 -49 9 -441 -26 -665 -59 -52 -8 -169 -24 -260 -35
-91 -12 -196 -26 -235 -31 -143 -21 -290 -37 -294 -33 -3 2 20 53 51 112 l55
107 134 18 c74 9 175 24 224 32 50 8 137 21 195 30 456 69 528 83 550 110 23
27 110 400 110 469 0 18 -5 37 -12 44 -14 14 -93 14 -238 0z"/>
<path d="M122 1558 c-17 -17 -15 -53 3 -68 39 -32 351 -160 391 -160 37 0 57
43 35 78 -4 7 -73 39 -152 71 -79 32 -158 65 -176 74 -38 20 -84 22 -101 5z"/>
<path d="M422 703 c-12 -10 -51 -79 -87 -153 -37 -74 -87 -175 -111 -224 -58
-117 -58 -176 1 -176 21 0 55 28 55 45 0 5 47 104 104 219 58 116 108 223 111
238 5 19 1 32 -14 47 -26 26 -33 26 -59 4z"/>
</g>
</svg>
