<?xml version="1.0" standalone="no"?>
<!DOCTYPE svg PUBLIC "-//W3C//DTD SVG 20010904//EN"
 "http://www.w3.org/TR/2001/REC-SVG-20010904/DTD/svg10.dtd">
<svg version="1.0" xmlns="http://www.w3.org/2000/svg"
 width="248.000000pt" height="248.000000pt" viewBox="0 0 248.000000 248.000000"
 preserveAspectRatio="xMidYMid meet">
<metadata>
Created by potrace 1.10, written by Peter Selinger 2001-2011
</metadata>
<g transform="translate(0.000000,248.000000) scale(0.100000,-0.100000)"
fill="#000000" stroke="none">
<path d="M1995 2376 c-15 -23 -17 -56 -14 -286 l4 -260 -45 0 c-25 -1 -76 -5
-115 -10 -38 -5 -113 -14 -165 -20 -52 -6 -133 -18 -179 -26 -46 -8 -105 -14
-130 -14 -26 0 -56 -7 -69 -16 -30 -21 -29 -59 4 -80 27 -18 16 -19 274 16
221 29 311 40 366 43 l62 3 7 -680 c4 -375 5 -698 3 -718 l-3 -38 -73 65 c-75
67 -99 76 -126 49 -30 -29 -18 -56 57 -129 39 -39 90 -93 112 -120 34 -40 46
-48 73 -48 18 0 41 7 50 17 16 16 17 74 14 815 l-3 798 83 16 c46 8 101 18
123 22 51 9 65 21 65 54 0 55 -31 62 -167 35 -45 -9 -89 -14 -97 -11 -14 6
-16 39 -16 249 0 265 -5 291 -52 296 -20 2 -31 -4 -43 -22z"/>
<path d="M657 2328 c-11 -17 -17 -70 -22 -193 -9 -241 0 -220 -103 -239 -48
-9 -125 -21 -172 -27 -50 -6 -92 -17 -102 -26 -22 -20 -23 -56 -3 -73 18 -15
119 -8 269 19 l99 18 -7 -111 c-3 -61 -6 -147 -6 -191 l0 -81 -152 -28 c-84
-16 -195 -34 -246 -42 -103 -14 -124 -25 -120 -63 7 -59 55 -60 308 -11 80 15
160 31 178 34 l32 6 0 -163 c0 -89 -3 -178 -6 -198 l-6 -36 -97 -12 c-53 -6
-132 -16 -175 -22 -99 -12 -130 -26 -134 -60 -6 -56 48 -64 232 -34 50 8 109
15 131 15 l40 0 -3 -223 c-2 -122 1 -234 6 -247 9 -24 5 -27 -103 -81 -62 -31
-148 -68 -192 -83 -88 -31 -113 -49 -113 -81 0 -29 19 -45 53 -45 33 0 244 84
351 140 41 21 103 51 138 66 80 33 147 64 275 125 84 40 104 55 109 76 8 32
-6 57 -35 61 -13 2 -53 -12 -89 -31 -65 -34 -275 -127 -286 -127 -3 0 -6 103
-6 229 0 171 3 231 13 239 6 5 88 24 182 41 124 22 173 35 182 47 17 23 16 36
-1 59 -19 27 -91 20 -336 -30 l-26 -6 4 193 c2 106 5 194 7 196 2 2 51 11 260
47 119 21 147 35 143 73 -5 47 -38 54 -153 33 -144 -27 -230 -41 -245 -41 -11
0 -12 38 -7 191 4 106 8 193 9 194 2 1 61 10 131 19 153 19 197 36 197 76 0
52 -15 54 -177 32 -82 -11 -149 -20 -149 -19 -1 1 3 81 8 178 9 145 8 181 -3
205 -19 39 -62 45 -82 12z"/>
<path d="M1352 1288 c-25 -25 -12 -60 51 -133 34 -40 81 -99 104 -131 61 -87
95 -116 128 -112 56 6 59 60 7 113 -16 17 -57 66 -90 111 -112 149 -164 188
-200 152z"/>
</g>
</svg>
