<?xml version="1.0" standalone="no"?>
<!DOCTYPE svg PUBLIC "-//W3C//DTD SVG 20010904//EN"
 "http://www.w3.org/TR/2001/REC-SVG-20010904/DTD/svg10.dtd">
<svg version="1.0" xmlns="http://www.w3.org/2000/svg"
 width="248.000000pt" height="248.000000pt" viewBox="0 0 248.000000 248.000000"
 preserveAspectRatio="xMidYMid meet">
<metadata>
Created by potrace 1.10, written by Peter Selinger 2001-2011
</metadata>
<g transform="translate(0.000000,248.000000) scale(0.100000,-0.100000)"
fill="#000000" stroke="none">
<path d="M657 2328 c-11 -17 -17 -70 -22 -193 -9 -241 0 -220 -103 -239 -48
-9 -125 -21 -172 -27 -50 -6 -92 -17 -102 -26 -22 -20 -23 -56 -3 -73 18 -15
119 -8 269 19 l99 18 -7 -111 c-3 -61 -6 -147 -6 -191 l0 -81 -152 -28 c-84
-16 -195 -34 -246 -42 -103 -14 -124 -25 -120 -63 7 -59 57 -61 308 -11 80 16
186 34 235 40 50 6 128 17 175 25 47 8 128 22 180 31 114 20 142 35 138 72 -5
47 -38 54 -153 33 -144 -27 -230 -41 -245 -41 -11 0 -12 38 -7 191 4 106 8
193 9 194 2 1 61 10 131 19 153 19 197 36 197 76 0 52 -15 54 -177 32 -82 -11
-149 -20 -149 -19 -1 1 3 81 8 178 9 145 8 181 -3 205 -19 39 -62 45 -82 12z"/>
<path d="M1005 992 c-16 -2 -113 -18 -215 -37 -102 -18 -230 -38 -285 -45
-291 -33 -308 -37 -313 -81 -7 -57 31 -62 243 -34 343 45 626 99 642 121 16
22 16 36 1 56 -16 19 -35 25 -73 20z"/>
</g>
</svg>
