<?xml version="1.0" standalone="no"?>
<!DOCTYPE svg PUBLIC "-//W3C//DTD SVG 20010904//EN"
 "http://www.w3.org/TR/2001/REC-SVG-20010904/DTD/svg10.dtd">
<svg version="1.0" xmlns="http://www.w3.org/2000/svg"
 width="248.000000pt" height="248.000000pt" viewBox="0 0 248.000000 248.000000"
 preserveAspectRatio="xMidYMid meet">
<metadata>
Created by potrace 1.10, written by Peter Selinger 2001-2011
</metadata>
<g transform="translate(0.000000,248.000000) scale(0.100000,-0.100000)"
fill="#000000" stroke="none">
<path d="M657 2328 c-11 -17 -17 -70 -22 -193 -9 -241 0 -220 -103 -239 -48
-9 -125 -21 -172 -27 -90 -11 -120 -27 -120 -64 0 -40 23 -48 108 -41 42 4
121 15 175 25 l98 18 -6 -191 c-7 -211 -2 -238 47 -244 48 -6 55 21 61 247 4
112 8 205 9 206 2 1 61 10 131 19 153 19 197 36 197 76 0 52 -15 54 -177 32
-82 -11 -149 -20 -149 -19 -1 1 3 81 8 178 9 145 8 181 -3 205 -19 39 -62 45
-82 12z"/>
</g>
</svg>
