<?xml version="1.0" standalone="no"?>
<!DOCTYPE svg PUBLIC "-//W3C//DTD SVG 20010904//EN"
 "http://www.w3.org/TR/2001/REC-SVG-20010904/DTD/svg10.dtd">
<svg version="1.0" xmlns="http://www.w3.org/2000/svg"
 width="248.000000pt" height="248.000000pt" viewBox="0 0 248.000000 248.000000"
 preserveAspectRatio="xMidYMid meet">
<metadata>
Created by potrace 1.10, written by Peter Selinger 2001-2011
</metadata>
<g transform="translate(0.000000,248.000000) scale(0.100000,-0.100000)"
fill="#000000" stroke="none">
<path d="M1559 2296 c-2 -2 -62 -7 -134 -10 -381 -18 -415 -24 -415 -68 0 -28
-20 -62 -99 -168 -90 -119 -258 -300 -326 -350 -58 -43 -70 -68 -48 -99 27
-39 68 -22 179 75 l74 65 82 -77 c80 -75 211 -183 246 -203 15 -9 6 -21 -68
-96 -206 -210 -486 -394 -676 -446 -90 -24 -104 -33 -104 -63 0 -55 67 -61
196 -15 104 37 187 82 338 186 134 91 201 147 327 271 l97 94 118 -78 c186
-122 520 -287 694 -343 81 -26 284 -71 320 -71 32 0 50 17 50 46 0 37 -23 49
-141 74 -183 37 -314 85 -531 193 -205 103 -438 242 -438 263 0 7 34 56 76
110 84 110 270 387 357 535 89 150 77 179 -79 179 -50 0 -93 -2 -95 -4z m59
-163 c-53 -96 -251 -392 -321 -481 -36 -45 -71 -92 -79 -104 l-14 -21 -47 32
c-58 39 -119 92 -220 188 l-78 74 38 46 c61 73 122 153 170 224 l44 66 132 12
c159 14 206 17 320 19 l87 2 -32 -57z"/>
<path d="M1063 1019 c-26 -26 -2 -89 33 -89 5 0 43 -21 84 -47 41 -25 107 -61
145 -80 39 -19 83 -41 99 -50 48 -26 96 8 82 60 -4 17 -31 35 -104 70 -54 26
-133 68 -175 93 -82 49 -143 65 -164 43z"/>
<path d="M1019 436 c-17 -8 -24 -20 -24 -41 0 -26 6 -33 50 -53 54 -26 237
-133 323 -190 45 -29 57 -33 77 -24 28 13 40 44 26 69 -5 10 -42 39 -83 64
-292 180 -326 197 -369 175z"/>
</g>
</svg>
