<?xml version="1.0" standalone="no"?>
<!DOCTYPE svg PUBLIC "-//W3C//DTD SVG 20010904//EN"
 "http://www.w3.org/TR/2001/REC-SVG-20010904/DTD/svg10.dtd">
<svg version="1.0" xmlns="http://www.w3.org/2000/svg"
 width="248.000000pt" height="248.000000pt" viewBox="0 0 248.000000 248.000000"
 preserveAspectRatio="xMidYMid meet">
<metadata>
Created by potrace 1.10, written by Peter Selinger 2001-2011
</metadata>
<g transform="translate(0.000000,248.000000) scale(0.100000,-0.100000)"
fill="#000000" stroke="none">
<path d="M1556 2338 c-9 -12 -17 -41 -17 -63 -2 -76 -12 -98 -44 -106 -24 -7
-389 -52 -495 -62 -21 -2 -25 3 -28 28 -6 70 -25 151 -39 168 -20 21 -56 22
-73 2 -12 -14 -9 -90 6 -181 l5 -30 -153 -18 c-84 -10 -163 -25 -175 -33 -31
-18 -30 -58 1 -78 22 -15 34 -15 135 -1 62 9 134 16 160 16 l49 0 7 -47 c12
-82 30 -113 63 -113 54 0 59 19 36 146 l-6 32 84 11 c69 9 423 51 433 51 2 0
-3 -21 -11 -46 -16 -55 -9 -93 19 -103 48 -18 64 2 90 109 8 30 20 57 28 61 8
5 84 20 169 34 96 16 162 32 172 42 22 20 23 56 2 74 -16 13 -37 11 -258 -25
l-78 -13 6 59 c6 46 4 65 -9 84 -20 31 -59 31 -79 2z"/>
<path d="M1670 1784 c-461 -76 -762 -118 -935 -130 -100 -7 -135 -22 -135 -59
0 -43 39 -59 127 -51 l76 7 -6 -194 c-6 -219 -1 -242 48 -242 48 0 55 29 62
249 5 167 8 196 22 200 9 3 54 10 101 16 47 6 123 18 170 26 47 7 148 23 225
35 77 12 163 25 190 29 28 4 99 15 160 25 115 17 145 31 145 70 0 52 -34 55
-250 19z"/>
</g>
</svg>
