<?xml version="1.0" standalone="no"?>
<!DOCTYPE svg PUBLIC "-//W3C//DTD SVG 20010904//EN"
 "http://www.w3.org/TR/2001/REC-SVG-20010904/DTD/svg10.dtd">
<svg version="1.0" xmlns="http://www.w3.org/2000/svg"
 width="248.000000pt" height="248.000000pt" viewBox="0 0 248.000000 248.000000"
 preserveAspectRatio="xMidYMid meet">
<metadata>
Created by potrace 1.10, written by Peter Selinger 2001-2011
</metadata>
<g transform="translate(0.000000,248.000000) scale(0.100000,-0.100000)"
fill="#000000" stroke="none">
<path d="M1556 2338 c-9 -12 -17 -41 -17 -63 -2 -76 -12 -98 -44 -106 -24 -7
-389 -52 -495 -62 -21 -2 -25 3 -28 28 -6 70 -25 151 -39 168 -20 21 -56 22
-73 2 -12 -14 -9 -90 6 -181 l5 -30 -153 -18 c-84 -10 -163 -25 -175 -33 -31
-18 -30 -58 1 -78 22 -15 34 -15 135 -1 62 9 134 16 160 16 l49 0 7 -47 c12
-82 30 -113 63 -113 54 0 59 19 36 146 l-6 32 84 11 c69 9 423 51 433 51 2 0
-3 -21 -11 -46 -16 -55 -9 -93 19 -103 48 -18 64 2 90 109 8 30 20 57 28 61 8
5 84 20 169 34 96 16 162 32 172 42 22 20 23 56 2 74 -16 13 -37 11 -258 -25
l-78 -13 6 59 c6 46 4 65 -9 84 -20 31 -59 31 -79 2z"/>
<path d="M1670 1784 c-461 -76 -762 -118 -935 -130 -100 -7 -135 -22 -135 -59
0 -43 39 -59 127 -51 l76 7 -5 -191 c-3 -105 -8 -193 -10 -195 -2 -2 -62 -9
-133 -15 -83 -6 -137 -15 -152 -25 -30 -20 -30 -60 -1 -79 20 -12 47 -12 203
0 99 8 239 21 310 29 142 16 358 33 364 29 12 -10 -255 -284 -358 -368 -95
-76 -305 -217 -384 -257 -111 -56 -153 -109 -115 -147 20 -20 47 -14 121 30
40 23 91 52 115 65 167 89 467 339 641 533 l78 86 7 -389 c3 -215 4 -392 2
-395 -3 -2 -29 10 -59 27 -79 45 -127 39 -127 -15 0 -24 31 -52 112 -97 25
-15 56 -42 68 -61 11 -19 30 -38 41 -41 29 -10 65 19 73 57 4 18 4 233 1 478
-4 245 -3 465 2 490 10 53 -1 50 256 74 169 16 197 26 197 71 0 42 -22 48
-138 41 -59 -4 -150 -13 -202 -21 -52 -8 -98 -15 -102 -15 -5 0 -8 94 -8 209
l0 208 43 7 c23 4 87 14 142 22 104 16 135 31 135 69 0 52 -34 55 -250 19z
m-185 -552 c-5 -5 -165 -24 -365 -42 -69 -7 -146 -14 -172 -17 l-48 -6 7 194
c3 107 10 197 15 200 6 4 51 12 101 18 51 7 128 18 172 26 65 11 184 28 275
39 13 1 15 -28 18 -203 1 -112 0 -206 -3 -209z"/>
</g>
</svg>
