<?xml version="1.0" standalone="no"?>
<!DOCTYPE svg PUBLIC "-//W3C//DTD SVG 20010904//EN"
 "http://www.w3.org/TR/2001/REC-SVG-20010904/DTD/svg10.dtd">
<svg version="1.0" xmlns="http://www.w3.org/2000/svg"
 width="248.000000pt" height="248.000000pt" viewBox="0 0 248.000000 248.000000"
 preserveAspectRatio="xMidYMid meet">
<metadata>
Created by potrace 1.10, written by Peter Selinger 2001-2011
</metadata>
<g transform="translate(0.000000,248.000000) scale(0.100000,-0.100000)"
fill="#000000" stroke="none">
<path d="M1556 2338 c-9 -12 -17 -41 -17 -63 -2 -76 -12 -98 -44 -106 -24 -7
-389 -52 -495 -62 -21 -2 -25 3 -28 28 -6 70 -25 151 -39 168 -20 21 -56 22
-73 2 -12 -14 -9 -90 6 -181 l5 -30 -153 -18 c-84 -10 -163 -25 -175 -33 -31
-18 -30 -58 1 -78 22 -15 34 -15 135 -1 62 9 134 16 160 16 l49 0 7 -47 c12
-82 30 -113 63 -113 54 0 59 19 36 146 l-6 32 84 11 c69 9 423 51 433 51 2 0
-3 -21 -11 -46 -16 -55 -9 -93 19 -103 48 -18 64 2 90 109 8 30 20 57 28 61 8
5 84 20 169 34 96 16 162 32 172 42 22 20 23 56 2 74 -16 13 -37 11 -258 -25
l-78 -13 6 59 c6 46 4 65 -9 84 -20 31 -59 31 -79 2z"/>
<path d="M1670 1784 c-461 -76 -762 -118 -935 -130 -100 -7 -135 -22 -135 -59
0 -43 39 -59 127 -51 l76 7 -5 -191 c-3 -105 -8 -193 -10 -195 -2 -2 -62 -9
-133 -15 -83 -6 -137 -15 -152 -25 -30 -20 -30 -60 -1 -79 20 -12 47 -12 203
0 99 8 236 21 305 29 69 8 170 17 225 20 55 3 165 16 245 29 209 34 291 45
418 55 86 7 118 14 133 27 23 21 22 62 -3 78 -22 13 -252 -6 -453 -39 -82 -14
-202 -30 -265 -36 -63 -5 -173 -17 -245 -25 -71 -8 -138 -14 -147 -14 -16 0
-17 14 -11 193 3 105 10 195 15 198 6 4 51 12 101 18 51 7 130 19 177 26 47 8
148 24 225 36 77 12 163 25 190 29 28 4 99 15 160 25 115 17 145 31 145 70 0
52 -34 55 -250 19z"/>
</g>
</svg>
