<?xml version="1.0" standalone="no"?>
<!DOCTYPE svg PUBLIC "-//W3C//DTD SVG 20010904//EN"
 "http://www.w3.org/TR/2001/REC-SVG-20010904/DTD/svg10.dtd">
<svg version="1.0" xmlns="http://www.w3.org/2000/svg"
 width="248.000000pt" height="248.000000pt" viewBox="0 0 248.000000 248.000000"
 preserveAspectRatio="xMidYMid meet">
<metadata>
Created by potrace 1.10, written by Peter Selinger 2001-2011
</metadata>
<g transform="translate(0.000000,248.000000) scale(0.100000,-0.100000)"
fill="#000000" stroke="none">
<path d="M429 2314 c-15 -18 -21 -105 -35 -457 -7 -189 -8 -198 -28 -202 -12
-3 -41 -9 -66 -15 -25 -6 -84 -17 -133 -24 -95 -15 -117 -27 -117 -61 0 -54
69 -61 231 -25 49 11 91 20 93 20 3 0 6 -296 8 -657 3 -562 5 -662 18 -688 17
-34 59 -45 79 -21 10 11 13 174 14 703 l2 687 94 18 c98 18 131 36 131 73 0
42 -23 50 -108 36 -42 -7 -86 -15 -96 -18 -18 -5 -19 1 -13 183 4 104 10 239
13 301 6 95 4 116 -10 138 -19 29 -57 33 -77 9z"/>
</g>
</svg>
