<?xml version="1.0" standalone="no"?>
<!DOCTYPE svg PUBLIC "-//W3C//DTD SVG 20010904//EN"
 "http://www.w3.org/TR/2001/REC-SVG-20010904/DTD/svg10.dtd">
<svg version="1.0" xmlns="http://www.w3.org/2000/svg"
 width="248.000000pt" height="248.000000pt" viewBox="0 0 248.000000 248.000000"
 preserveAspectRatio="xMidYMid meet">
<metadata>
Created by potrace 1.10, written by Peter Selinger 2001-2011
</metadata>
<g transform="translate(0.000000,248.000000) scale(0.100000,-0.100000)"
fill="#000000" stroke="none">
<path d="M427 2308 c-15 -24 -20 -97 -34 -471 l-6 -177 -26 -6 c-14 -3 -53
-11 -86 -19 -33 -8 -87 -17 -120 -20 -33 -4 -70 -13 -83 -21 -29 -19 -29 -59
1 -78 20 -13 33 -13 117 -1 52 8 109 18 126 21 l32 6 -14 -79 c-24 -145 -54
-285 -81 -377 -14 -50 -32 -118 -39 -151 -7 -33 -20 -82 -29 -110 -86 -265
-88 -275 -54 -299 48 -33 82 17 130 194 11 41 29 99 40 128 10 29 19 62 19 72
0 11 12 64 28 118 l27 97 5 -450 c5 -491 7 -507 61 -513 52 -6 51 -16 49 605
-1 657 -12 599 90 450 54 -79 86 -101 119 -80 9 6 17 21 19 35 3 24 -20 61
-143 231 -48 65 -89 148 -78 157 4 4 48 14 97 23 93 17 126 36 126 72 0 42
-23 50 -108 36 -42 -7 -86 -15 -96 -18 -18 -5 -19 1 -13 183 4 104 9 239 12
299 7 125 -3 158 -47 163 -19 2 -31 -3 -41 -20z"/>
<path d="M1240 2000 c-47 -10 -124 -29 -172 -43 -49 -14 -120 -29 -159 -33
-119 -11 -113 4 -121 -311 -3 -147 -6 -475 -7 -728 -1 -501 0 -507 53 -513 26
-3 45 13 169 140 77 78 142 137 145 130 2 -6 26 -46 52 -87 51 -77 85 -99 119
-78 29 18 24 53 -17 111 -36 52 -69 115 -158 297 -26 53 -32 60 -59 60 -23 0
-33 -7 -43 -28 -12 -24 -11 -33 7 -70 47 -99 51 -85 -59 -198 l-100 -103 0
287 0 287 23 4 c12 2 81 14 152 27 230 39 254 44 266 56 12 12 51 306 79 600
14 139 6 183 -36 202 -30 13 -28 13 -134 -9z m70 -110 c0 -10 -5 -64 -11 -118
l-11 -98 -67 -12 c-36 -7 -119 -26 -184 -42 -65 -17 -123 -30 -128 -30 -5 0
-9 50 -9 114 l0 114 53 7 c28 4 108 22 177 40 116 31 154 41 173 44 4 0 7 -8
7 -19z m-38 -377 c-6 -26 -14 -85 -18 -131 -7 -89 -10 -93 -74 -106 -61 -12
-265 -46 -277 -46 -10 0 -13 29 -13 113 0 61 4 118 8 124 10 15 368 106 380
97 2 -1 -1 -24 -6 -51z"/>
<path d="M2210 1997 c-4 -4 -171 -32 -400 -67 -41 -7 -115 -18 -164 -26 -48
-7 -94 -18 -102 -25 -20 -17 -17 -56 6 -72 16 -11 22 -29 26 -93 6 -69 3 -93
-25 -194 -18 -63 -37 -120 -42 -126 -5 -6 -27 -14 -50 -17 -22 -3 -46 -11 -54
-17 -23 -19 -18 -58 9 -76 22 -14 37 -14 113 -4 48 6 126 15 173 21 47 5 100
12 118 15 41 8 41 0 2 -156 -50 -197 -93 -302 -206 -497 -105 -182 -206 -303
-309 -369 -63 -40 -72 -55 -57 -90 27 -57 126 -10 245 116 85 90 145 174 228
320 l54 95 6 -220 c8 -288 21 -320 137 -344 70 -15 312 -10 399 8 90 19 98 31
98 156 -1 115 -16 155 -59 155 -37 0 -45 -19 -48 -115 -3 -85 -4 -89 -28 -96
-38 -11 -353 -10 -370 1 -13 8 -16 63 -21 357 l-5 348 32 130 c18 72 35 149
39 172 l6 41 62 6 c191 19 322 43 337 61 16 19 8 76 -12 88 -11 8 -28 7 -55 0
-43 -13 -147 -29 -244 -39 l-66 -6 13 68 c31 168 44 254 44 302 0 29 1 52 3
52 32 0 243 43 253 51 18 15 18 53 0 68 -15 13 -78 26 -86 18z m-280 -208 c0
-47 -14 -147 -42 -292 -9 -46 -16 -61 -33 -67 -28 -10 -216 -32 -222 -26 -3 3
8 49 23 103 24 81 29 115 27 195 -1 109 -9 100 92 117 163 29 155 30 155 -30z"/>
</g>
</svg>
