<?xml version="1.0" standalone="no"?>
<!DOCTYPE svg PUBLIC "-//W3C//DTD SVG 20010904//EN"
 "http://www.w3.org/TR/2001/REC-SVG-20010904/DTD/svg10.dtd">
<svg version="1.0" xmlns="http://www.w3.org/2000/svg"
 width="248.000000pt" height="248.000000pt" viewBox="0 0 248.000000 248.000000"
 preserveAspectRatio="xMidYMid meet">
<metadata>
Created by potrace 1.10, written by Peter Selinger 2001-2011
</metadata>
<g transform="translate(0.000000,248.000000) scale(0.100000,-0.100000)"
fill="#000000" stroke="none">
<path d="M429 2314 c-15 -18 -21 -105 -35 -457 -7 -189 -8 -198 -28 -202 -12
-3 -41 -9 -66 -15 -25 -6 -84 -17 -133 -24 -48 -8 -94 -20 -102 -26 -20 -16
-19 -54 1 -71 20 -17 105 -14 192 6 90 21 93 21 86 -17 -22 -126 -69 -344 -85
-401 -11 -37 -28 -104 -39 -150 -10 -45 -26 -104 -35 -132 -9 -27 -29 -91 -46
-142 -35 -109 -36 -137 -8 -157 48 -33 82 17 130 194 11 41 29 99 40 128 10
29 19 62 19 72 0 11 12 64 28 118 l27 97 5 -450 c5 -491 7 -507 61 -513 52 -6
51 -16 49 605 -1 657 -12 599 90 450 54 -79 86 -101 119 -80 9 6 17 21 19 35
3 24 -20 61 -143 231 -48 65 -89 148 -78 157 4 4 48 14 97 23 93 17 126 36
126 72 0 42 -23 50 -108 36 -42 -7 -86 -15 -96 -18 -18 -5 -19 1 -13 183 4
104 10 239 13 301 6 95 4 116 -10 138 -19 29 -57 33 -77 9z"/>
</g>
</svg>
