<?xml version="1.0" standalone="no"?>
<!DOCTYPE svg PUBLIC "-//W3C//DTD SVG 20010904//EN"
 "http://www.w3.org/TR/2001/REC-SVG-20010904/DTD/svg10.dtd">
<svg version="1.0" xmlns="http://www.w3.org/2000/svg"
 width="248.000000pt" height="248.000000pt" viewBox="0 0 248.000000 248.000000"
 preserveAspectRatio="xMidYMid meet">
<metadata>
Created by potrace 1.10, written by Peter Selinger 2001-2011
</metadata>
<g transform="translate(0.000000,248.000000) scale(0.100000,-0.100000)"
fill="#000000" stroke="none">
<path d="M608 2273 c-8 -10 -29 -43 -48 -73 -46 -77 -111 -158 -210 -264 -163
-174 -189 -213 -158 -244 25 -25 65 -14 105 30 21 23 74 81 119 128 44 47 93
103 110 124 16 22 45 60 64 85 89 117 117 184 90 216 -17 20 -54 19 -72 -2z"/>
<path d="M1315 1910 c-27 -4 -91 -12 -140 -18 -50 -7 -115 -16 -144 -22 -30
-5 -86 -10 -125 -10 -81 0 -116 -17 -116 -55 0 -56 64 -66 243 -40 56 8 172
24 257 36 85 12 164 25 176 30 28 10 39 42 24 69 -9 17 -20 20 -68 19 -31 -1
-79 -5 -107 -9z"/>
<path d="M518 1592 c-116 -145 -301 -356 -376 -430 -58 -59 -73 -79 -70 -99 8
-68 71 -54 158 36 l65 67 -3 -525 c-1 -289 0 -536 3 -548 7 -28 49 -41 71 -22
9 7 20 23 25 35 4 13 9 286 10 608 l1 585 67 73 c173 190 207 248 169 286 -28
28 -56 13 -120 -66z"/>
</g>
</svg>
