<?xml version="1.0" standalone="no"?>
<!DOCTYPE svg PUBLIC "-//W3C//DTD SVG 20010904//EN"
 "http://www.w3.org/TR/2001/REC-SVG-20010904/DTD/svg10.dtd">
<svg version="1.0" xmlns="http://www.w3.org/2000/svg"
 width="248.000000pt" height="248.000000pt" viewBox="0 0 248.000000 248.000000"
 preserveAspectRatio="xMidYMid meet">
<metadata>
Created by potrace 1.10, written by Peter Selinger 2001-2011
</metadata>
<g transform="translate(0.000000,248.000000) scale(0.100000,-0.100000)"
fill="#000000" stroke="none">
<path d="M608 2273 c-8 -10 -29 -43 -48 -73 -46 -77 -111 -158 -210 -264 -163
-174 -189 -213 -158 -244 25 -25 65 -14 105 30 21 23 74 81 119 128 44 47 93
103 110 124 16 22 45 60 64 85 89 117 117 184 90 216 -17 20 -54 19 -72 -2z"/>
<path d="M1116 2218 c-13 -18 -16 -52 -16 -179 l0 -157 -63 -11 c-35 -6 -95
-11 -133 -11 -79 0 -114 -17 -114 -55 0 -54 74 -67 233 -41 l77 12 0 -126 c0
-70 -3 -154 -6 -187 l-7 -60 -81 -7 c-119 -10 -308 -47 -328 -64 -22 -19 -23
-55 -3 -72 17 -14 74 -11 213 14 51 10 111 16 134 14 l41 -3 -2 -95 c-1 -52
-4 -125 -7 -161 l-6 -66 -97 -16 c-53 -9 -121 -19 -151 -23 -68 -7 -100 -26
-100 -59 0 -44 33 -55 130 -44 47 5 101 14 120 19 19 6 50 10 69 10 l34 0 -6
-143 c-4 -78 -7 -173 -7 -212 l-1 -70 -87 -43 c-48 -23 -125 -55 -171 -72 -46
-16 -92 -37 -102 -46 -34 -31 -19 -84 24 -84 31 0 211 67 327 122 319 150 544
260 563 276 20 17 22 53 5 70 -22 22 -66 13 -145 -29 -65 -35 -290 -139 -300
-139 -5 0 -3 131 3 257 l7 121 76 10 c42 6 121 16 176 23 80 11 105 18 123 36
27 27 27 34 3 64 -20 25 -18 25 -257 -12 -33 -5 -74 -9 -91 -9 l-31 0 2 164 1
164 45 7 c25 4 102 12 172 19 138 14 178 29 178 70 0 46 -19 51 -163 37 -73
-6 -146 -14 -164 -18 l-32 -5 6 188 c3 104 7 190 8 192 1 1 53 9 115 18 62 8
123 19 136 24 28 11 39 43 23 71 -11 21 -16 22 -98 16 -47 -4 -107 -10 -133
-13 l-48 -7 0 144 c0 96 -5 152 -13 169 -17 34 -60 39 -81 8z"/>
<path d="M2149 2236 c-2 -3 -47 -10 -99 -15 -194 -22 -371 -50 -385 -61 -23
-19 -18 -58 10 -76 23 -15 34 -15 142 1 213 30 267 36 389 44 79 4 128 12 138
21 24 19 16 62 -14 77 -23 12 -171 19 -181 9z"/>
<path d="M2125 1679 c-55 -4 -167 -13 -250 -19 -171 -13 -312 -35 -332 -52
-23 -19 -12 -61 21 -77 23 -11 40 -11 80 -3 71 15 306 35 314 27 4 -4 10 -228
13 -498 4 -271 10 -567 14 -659 4 -95 4 -168 -1 -168 -5 0 -27 14 -48 30 -22
17 -50 30 -63 30 -27 0 -56 -40 -47 -64 3 -9 42 -43 85 -76 60 -46 86 -60 113
-60 74 0 78 29 66 480 -6 206 -11 515 -12 687 l-3 311 125 7 c160 8 194 19
198 64 2 20 -2 37 -10 42 -16 10 -125 9 -263 -2z"/>
<path d="M518 1592 c-116 -145 -301 -356 -376 -430 -58 -59 -73 -79 -70 -99 8
-68 71 -54 158 36 l65 67 -3 -525 c-1 -289 0 -536 3 -548 7 -28 49 -41 71 -22
9 7 20 23 25 35 4 13 9 286 10 608 l1 585 67 73 c173 190 207 248 169 286 -28
28 -56 13 -120 -66z"/>
</g>
</svg>
