<?xml version="1.0" standalone="no"?>
<!DOCTYPE svg PUBLIC "-//W3C//DTD SVG 20010904//EN"
 "http://www.w3.org/TR/2001/REC-SVG-20010904/DTD/svg10.dtd">
<svg version="1.0" xmlns="http://www.w3.org/2000/svg"
 width="248.000000pt" height="248.000000pt" viewBox="0 0 248.000000 248.000000"
 preserveAspectRatio="xMidYMid meet">
<metadata>
Created by potrace 1.10, written by Peter Selinger 2001-2011
</metadata>
<g transform="translate(0.000000,248.000000) scale(0.100000,-0.100000)"
fill="#000000" stroke="none">
<path d="M608 2273 c-8 -10 -29 -43 -48 -73 -46 -77 -111 -158 -210 -264 -163
-174 -189 -213 -158 -244 25 -25 65 -14 105 30 21 23 74 81 119 128 44 47 93
103 110 124 16 22 45 60 64 85 89 117 117 184 90 216 -17 20 -54 19 -72 -2z"/>
<path d="M1116 2218 c-13 -18 -16 -52 -16 -179 l0 -157 -63 -11 c-35 -6 -95
-11 -133 -11 -79 0 -114 -17 -114 -55 0 -54 74 -67 233 -41 l77 12 0 -126 c0
-70 -3 -154 -6 -187 l-7 -60 -81 -7 c-119 -10 -308 -47 -328 -64 -22 -19 -23
-55 -3 -72 17 -14 61 -11 220 13 55 9 161 21 235 28 397 34 430 41 430 93 0
46 -19 51 -163 37 -73 -6 -146 -14 -164 -18 l-32 -5 6 188 c3 104 7 190 8 192
1 1 53 9 115 18 62 8 123 19 136 24 28 11 39 43 23 71 -11 21 -16 22 -98 16
-47 -4 -107 -10 -133 -13 l-48 -7 0 144 c0 96 -5 152 -13 169 -17 34 -60 39
-81 8z"/>
<path d="M518 1592 c-116 -145 -301 -356 -376 -430 -58 -59 -73 -79 -70 -99 8
-68 71 -54 158 36 l65 67 -3 -525 c-1 -289 0 -536 3 -548 7 -28 49 -41 71 -22
9 7 20 23 25 35 4 13 9 286 10 608 l1 585 67 73 c173 190 207 248 169 286 -28
28 -56 13 -120 -66z"/>
<path d="M1459 1005 c-7 -6 -158 -24 -346 -40 -89 -7 -167 -16 -172 -20 -6 -3
-52 -11 -103 -16 -104 -12 -138 -27 -138 -64 0 -44 33 -55 130 -44 47 5 101
14 120 19 19 5 76 11 125 15 124 8 397 40 438 52 10 2 25 15 33 29 15 22 15
26 0 49 -12 18 -25 25 -50 25 -18 0 -35 -2 -37 -5z"/>
</g>
</svg>
