<?xml version="1.0" standalone="no"?>
<!DOCTYPE svg PUBLIC "-//W3C//DTD SVG 20010904//EN"
 "http://www.w3.org/TR/2001/REC-SVG-20010904/DTD/svg10.dtd">
<svg version="1.0" xmlns="http://www.w3.org/2000/svg"
 width="248.000000pt" height="248.000000pt" viewBox="0 0 248.000000 248.000000"
 preserveAspectRatio="xMidYMid meet">
<metadata>
Created by potrace 1.10, written by Peter Selinger 2001-2011
</metadata>
<g transform="translate(0.000000,248.000000) scale(0.100000,-0.100000)"
fill="#000000" stroke="none">
<path d="M608 2273 c-8 -10 -29 -43 -48 -73 -46 -77 -111 -158 -210 -264 -163
-174 -189 -213 -158 -244 25 -25 65 -14 105 30 21 23 74 81 119 128 44 47 93
103 110 124 16 22 45 60 64 85 89 117 117 184 90 216 -17 20 -54 19 -72 -2z"/>
<path d="M518 1592 c-116 -145 -301 -356 -376 -430 -58 -59 -73 -79 -70 -99 4
-33 28 -48 64 -39 33 9 125 100 263 264 53 62 122 143 154 180 96 111 117 158
85 190 -28 28 -56 13 -120 -66z"/>
</g>
</svg>
