<?xml version="1.0" standalone="no"?>
<!DOCTYPE svg PUBLIC "-//W3C//DTD SVG 20010904//EN"
 "http://www.w3.org/TR/2001/REC-SVG-20010904/DTD/svg10.dtd">
<svg version="1.0" xmlns="http://www.w3.org/2000/svg"
 width="248.000000pt" height="248.000000pt" viewBox="0 0 248.000000 248.000000"
 preserveAspectRatio="xMidYMid meet">
<metadata>
Created by potrace 1.10, written by Peter Selinger 2001-2011
</metadata>
<g transform="translate(0.000000,248.000000) scale(0.100000,-0.100000)"
fill="#000000" stroke="none">
<path d="M1195 2346 c-14 -20 -15 -68 -13 -349 l3 -325 -55 -7 c-228 -26 -404
-47 -456 -55 -33 -6 -75 -10 -92 -10 l-32 0 0 168 c0 183 -8 212 -55 212 -48
0 -55 -29 -55 -215 0 -184 8 -237 38 -268 19 -18 23 -19 123 -4 57 9 163 23
234 32 72 8 162 20 200 26 67 10 292 21 762 37 184 6 215 10 230 25 16 15 19
46 24 245 6 249 2 275 -43 280 -20 2 -31 -4 -44 -23 -14 -22 -18 -59 -22 -219
l-5 -193 -271 -12 c-149 -6 -296 -11 -326 -11 l-55 0 3 321 c2 278 1 325 -13
345 -20 32 -60 32 -80 0z"/>
<path d="M1845 1340 c-96 -9 -286 -32 -530 -66 -284 -39 -462 -62 -570 -73
-55 -6 -145 -15 -199 -21 -105 -10 -136 -25 -136 -65 0 -53 22 -55 326 -20
120 14 220 25 221 25 17 0 -14 -45 -99 -141 -57 -64 -139 -158 -182 -208 -141
-163 -330 -330 -469 -415 -44 -27 -33 -96 15 -96 51 0 204 112 358 260 75 73
116 106 121 98 4 -7 10 -40 14 -73 3 -33 13 -100 21 -150 34 -214 47 -248 92
-243 41 5 52 37 37 111 -7 34 -21 116 -30 182 -9 66 -21 142 -26 168 -5 26 -9
70 -9 97 0 46 4 53 58 112 169 183 227 266 207 298 -3 5 -4 10 -2 10 3 0 40 6
83 14 44 8 133 21 199 30 375 48 463 58 589 65 118 6 141 10 152 26 18 25 18
50 -2 69 -17 17 -91 19 -239 6z"/>
</g>
</svg>
