<?xml version="1.0" standalone="no"?>
<!DOCTYPE svg PUBLIC "-//W3C//DTD SVG 20010904//EN"
 "http://www.w3.org/TR/2001/REC-SVG-20010904/DTD/svg10.dtd">
<svg version="1.0" xmlns="http://www.w3.org/2000/svg"
 width="248.000000pt" height="248.000000pt" viewBox="0 0 248.000000 248.000000"
 preserveAspectRatio="xMidYMid meet">
<metadata>
Created by potrace 1.10, written by Peter Selinger 2001-2011
</metadata>
<g transform="translate(0.000000,248.000000) scale(0.100000,-0.100000)"
fill="#000000" stroke="none">
<path d="M1970 2074 c-19 -1 -204 -8 -410 -14 -336 -10 -552 -22 -895 -51 -60
-5 -176 -13 -258 -18 -90 -5 -153 -14 -162 -21 -19 -15 -20 -54 -2 -68 23 -19
122 -25 234 -14 404 42 867 66 1438 78 430 8 415 7 431 29 19 26 18 41 -5 64
-18 18 -34 20 -178 19 -87 -1 -174 -2 -193 -4z"/>
</g>
</svg>
