<?xml version="1.0" standalone="no"?>
<!DOCTYPE svg PUBLIC "-//W3C//DTD SVG 20010904//EN"
 "http://www.w3.org/TR/2001/REC-SVG-20010904/DTD/svg10.dtd">
<svg version="1.0" xmlns="http://www.w3.org/2000/svg"
 width="248.000000pt" height="248.000000pt" viewBox="0 0 248.000000 248.000000"
 preserveAspectRatio="xMidYMid meet">
<metadata>
Created by potrace 1.10, written by Peter Selinger 2001-2011
</metadata>
<g transform="translate(0.000000,248.000000) scale(0.100000,-0.100000)"
fill="#000000" stroke="none">
<path d="M1970 2074 c-19 -1 -204 -8 -410 -14 -336 -10 -552 -22 -895 -51 -60
-5 -176 -13 -258 -18 -90 -5 -153 -14 -162 -21 -18 -15 -20 -54 -2 -68 23 -20
117 -25 240 -13 339 32 572 51 623 51 l57 0 -7 -562 c-6 -556 -8 -608 -26
-923 -16 -259 -14 -331 10 -355 25 -25 45 -25 69 -1 16 16 19 42 24 242 3 123
10 316 16 429 12 260 21 639 21 936 l0 232 23 6 c20 5 556 22 915 29 109 2
125 4 138 21 19 27 18 42 -5 65 -18 18 -34 20 -178 19 -87 -1 -174 -2 -193 -4z"/>
</g>
</svg>
