<?xml version="1.0" standalone="no"?>
<!DOCTYPE svg PUBLIC "-//W3C//DTD SVG 20010904//EN"
 "http://www.w3.org/TR/2001/REC-SVG-20010904/DTD/svg10.dtd">
<svg version="1.0" xmlns="http://www.w3.org/2000/svg"
 width="248.000000pt" height="248.000000pt" viewBox="0 0 248.000000 248.000000"
 preserveAspectRatio="xMidYMid meet">
<metadata>
Created by potrace 1.10, written by Peter Selinger 2001-2011
</metadata>
<g transform="translate(0.000000,248.000000) scale(0.100000,-0.100000)"
fill="#000000" stroke="none">
<path d="M1672 2387 c-6 -6 -13 -26 -17 -42 -11 -51 -67 -219 -77 -231 -9 -12
-65 -20 -208 -30 -47 -3 -134 -12 -195 -19 -60 -8 -156 -17 -212 -21 l-101 -7
-12 44 c-32 125 -62 217 -79 239 -31 43 -91 35 -91 -13 0 -11 11 -51 25 -88
37 -102 55 -190 41 -194 -14 -5 -313 -43 -344 -43 -46 -1 -70 -50 -40 -80 17
-17 140 -14 291 7 116 16 129 16 137 2 7 -14 17 -70 36 -209 7 -44 42 -62 79
-38 31 20 32 47 6 171 -10 50 -17 93 -15 96 2 4 41 10 86 14 46 3 119 11 163
16 105 13 385 36 389 32 2 -2 -19 -62 -47 -133 -54 -141 -57 -175 -11 -186 39
-10 56 15 114 171 29 77 58 146 64 152 8 9 80 15 246 19 129 4 241 11 248 17
15 12 16 49 0 65 -9 9 -75 12 -235 12 -123 0 -223 1 -223 3 0 2 14 43 30 92
31 93 38 163 18 183 -16 16 -53 15 -66 -1z"/>
<path d="M1555 1519 c-353 -47 -397 -51 -621 -53 -127 -2 -236 -6 -242 -10
-21 -13 -13 -55 13 -72 23 -15 56 -16 308 -11 182 3 316 11 378 21 52 8 158
23 235 32 76 8 145 20 152 26 17 14 15 53 -4 72 -19 19 -41 19 -219 -5z"/>
<path d="M1400 1073 c-128 -4 -370 -23 -485 -38 -60 -8 -162 -19 -225 -25
-151 -14 -322 -41 -337 -53 -16 -12 -17 -49 -1 -65 16 -16 87 -15 222 2 61 8
179 22 261 31 83 9 162 18 178 21 35 7 34 -4 -5 -68 -64 -106 -155 -218 -384
-475 -64 -72 -78 -105 -52 -131 22 -22 77 -17 328 33 41 9 190 36 330 61 140
24 293 52 340 60 110 20 154 41 158 75 6 48 -17 54 -131 35 -56 -10 -118 -22
-137 -27 -19 -5 -116 -23 -215 -39 -99 -17 -249 -44 -332 -60 -84 -17 -155
-30 -158 -30 -14 0 0 20 55 80 100 108 221 265 296 383 66 106 72 112 110 119
71 12 706 30 829 24 169 -10 167 -10 182 10 18 25 16 41 -7 64 -19 19 -32 20
-382 18 -200 -1 -397 -3 -438 -5z"/>
</g>
</svg>
