<?xml version="1.0" standalone="no"?>
<!DOCTYPE svg PUBLIC "-//W3C//DTD SVG 20010904//EN"
 "http://www.w3.org/TR/2001/REC-SVG-20010904/DTD/svg10.dtd">
<svg version="1.0" xmlns="http://www.w3.org/2000/svg"
 width="248.000000pt" height="248.000000pt" viewBox="0 0 248.000000 248.000000"
 preserveAspectRatio="xMidYMid meet">
<metadata>
Created by potrace 1.10, written by Peter Selinger 2001-2011
</metadata>
<g transform="translate(0.000000,248.000000) scale(0.100000,-0.100000)"
fill="#000000" stroke="none">
<path d="M452 2158 c-35 -35 -4 -80 108 -157 19 -14 52 -40 73 -58 56 -50 107
-41 107 18 0 29 -37 64 -167 161 -66 48 -99 58 -121 36z"/>
<path d="M232 1548 c-17 -17 -15 -53 6 -70 9 -8 61 -36 115 -62 53 -26 114
-58 134 -71 58 -40 113 -30 113 22 0 31 -59 73 -197 139 -113 55 -149 64 -171
42z"/>
<path d="M192 288 c-28 -28 -7 -78 33 -78 40 0 61 50 33 78 -15 15 -51 15 -66
0z"/>
</g>
</svg>
