<?xml version="1.0" standalone="no"?>
<!DOCTYPE svg PUBLIC "-//W3C//DTD SVG 20010904//EN"
 "http://www.w3.org/TR/2001/REC-SVG-20010904/DTD/svg10.dtd">
<svg version="1.0" xmlns="http://www.w3.org/2000/svg"
 width="248.000000pt" height="248.000000pt" viewBox="0 0 248.000000 248.000000"
 preserveAspectRatio="xMidYMid meet">
<metadata>
Created by potrace 1.10, written by Peter Selinger 2001-2011
</metadata>
<g transform="translate(0.000000,248.000000) scale(0.100000,-0.100000)"
fill="#000000" stroke="none">
<path d="M1108 2239 c-13 -17 -41 -52 -63 -77 -177 -207 -163 -160 -156 -525
8 -358 3 -342 104 -342 l62 0 6 -72 c6 -80 20 -105 58 -101 40 5 53 41 46 125
-7 82 -18 71 97 93 32 6 62 18 66 26 5 9 20 21 33 28 l24 12 0 292 c0 289 0
292 -22 314 -29 28 -91 27 -210 -3 -120 -31 -125 -26 -52 56 75 84 99 122 99
156 0 56 -55 67 -92 18z m173 -346 c0 -21 1 -65 2 -97 l1 -60 -89 -17 c-50 -9
-114 -20 -142 -24 l-53 -7 -2 76 c-1 42 -2 84 -2 94 -1 12 8 18 29 20 17 1 68
11 115 22 112 25 124 27 133 29 4 0 7 -16 8 -36z m19 -342 c0 -80 -12 -111
-44 -111 -20 0 -219 -30 -238 -36 -16 -5 -18 4 -18 85 l0 90 53 10 c28 5 86
16 127 24 127 26 120 29 120 -62z"/>
<path d="M452 2158 c-35 -35 -4 -80 108 -157 19 -14 52 -40 73 -58 56 -50 107
-41 107 18 0 29 -37 64 -167 161 -66 48 -99 58 -121 36z"/>
<path d="M232 1548 c-17 -17 -15 -53 6 -70 9 -8 61 -36 115 -62 53 -26 114
-58 134 -71 58 -40 113 -30 113 22 0 31 -59 73 -197 139 -113 55 -149 64 -171
42z"/>
<path d="M486 773 c-13 -21 -75 -117 -138 -213 -162 -247 -189 -305 -156 -338
17 -17 53 -15 70 6 8 9 30 44 48 77 18 33 55 92 81 130 66 98 152 232 180 281
20 36 21 46 11 68 -9 20 -19 26 -42 26 -23 0 -35 -8 -54 -37z"/>
</g>
</svg>
