<?xml version="1.0" standalone="no"?>
<!DOCTYPE svg PUBLIC "-//W3C//DTD SVG 20010904//EN"
 "http://www.w3.org/TR/2001/REC-SVG-20010904/DTD/svg10.dtd">
<svg version="1.0" xmlns="http://www.w3.org/2000/svg"
 width="248.000000pt" height="248.000000pt" viewBox="0 0 248.000000 248.000000"
 preserveAspectRatio="xMidYMid meet">
<metadata>
Created by potrace 1.10, written by Peter Selinger 2001-2011
</metadata>
<g transform="translate(0.000000,248.000000) scale(0.100000,-0.100000)"
fill="#000000" stroke="none">
<path d="M1940 2224 c-14 -2 -142 -8 -285 -14 -297 -12 -384 -25 -423 -63 -25
-26 -25 -26 -13 -94 11 -55 11 -132 2 -393 -7 -179 -18 -385 -26 -459 -8 -80
-10 -143 -5 -156 17 -45 82 -40 93 7 6 27 25 322 33 530 l6 147 27 5 c14 3 98
10 186 16 88 6 212 15 275 20 63 5 118 6 122 2 8 -8 -10 -312 -33 -569 -13
-144 -9 -163 36 -163 35 0 53 30 59 100 20 216 43 655 48 903 3 147 2 160 -16
173 -19 14 -32 15 -86 8z m0 -109 c9 -10 11 -46 8 -119 -2 -58 -6 -107 -8
-110 -3 -2 -122 -14 -265 -25 -143 -12 -279 -23 -302 -26 -53 -6 -55 0 -51
145 l3 105 95 13 c52 7 183 16 290 21 107 4 200 9 206 9 6 1 17 -5 24 -13z"/>
<path d="M935 2104 c-63 -18 -410 -79 -570 -101 -66 -9 -126 -20 -133 -26 -15
-12 -16 -49 0 -65 17 -17 124 -15 241 4 76 13 101 14 106 5 9 -13 8 -65 -4
-254 -7 -118 -10 -129 -29 -138 -12 -4 -88 -23 -171 -40 -82 -17 -160 -38
-173 -45 -41 -26 -23 -84 26 -84 21 0 196 35 296 59 l39 10 -7 -187 c-9 -263
-2 -243 -105 -298 -47 -26 -122 -67 -166 -92 -44 -25 -96 -53 -116 -63 -39
-19 -54 -51 -38 -80 21 -41 49 -35 169 36 30 18 160 88 289 156 222 118 331
193 331 227 0 16 -37 52 -54 52 -7 0 -33 -15 -57 -34 -24 -18 -71 -48 -103
-66 l-59 -33 7 189 c4 104 9 196 12 205 3 10 39 25 107 43 167 45 172 47 175
84 3 26 -1 34 -22 44 -22 9 -45 6 -142 -19 l-117 -31 7 81 c3 45 6 133 6 194
0 109 1 113 23 117 12 3 85 17 162 32 153 29 169 35 185 65 9 16 8 26 -5 45
-18 27 -37 29 -110 8z"/>
</g>
</svg>
