<?xml version="1.0" standalone="no"?>
<!DOCTYPE svg PUBLIC "-//W3C//DTD SVG 20010904//EN"
 "http://www.w3.org/TR/2001/REC-SVG-20010904/DTD/svg10.dtd">
<svg version="1.0" xmlns="http://www.w3.org/2000/svg"
 width="248.000000pt" height="248.000000pt" viewBox="0 0 248.000000 248.000000"
 preserveAspectRatio="xMidYMid meet">
<metadata>
Created by potrace 1.10, written by Peter Selinger 2001-2011
</metadata>
<g transform="translate(0.000000,248.000000) scale(0.100000,-0.100000)"
fill="#000000" stroke="none">
<path d="M1229 2129 c-13 -13 -19 -28 -15 -42 3 -12 8 -40 12 -63 8 -56 -14
-656 -31 -823 -8 -80 -10 -143 -5 -156 19 -51 85 -38 94 18 15 93 27 342 33
673 6 371 6 371 -15 392 -28 28 -46 28 -73 1z"/>
<path d="M935 2104 c-63 -18 -410 -79 -570 -101 -66 -9 -126 -20 -133 -26 -15
-12 -16 -49 0 -65 17 -17 124 -15 241 4 76 13 101 14 106 5 9 -13 8 -65 -4
-254 -7 -118 -10 -129 -29 -138 -12 -4 -88 -23 -171 -40 -82 -17 -160 -38
-173 -45 -41 -26 -23 -84 26 -84 21 0 196 35 296 59 l39 10 -7 -187 c-9 -263
-2 -243 -105 -298 -47 -26 -122 -67 -166 -92 -44 -25 -96 -53 -116 -63 -39
-19 -54 -51 -38 -80 21 -41 49 -35 169 36 30 18 160 88 289 156 222 118 331
193 331 227 0 16 -37 52 -54 52 -7 0 -33 -15 -57 -34 -24 -18 -71 -48 -103
-66 l-59 -33 7 189 c4 104 9 196 12 205 3 10 39 25 107 43 167 45 172 47 175
84 3 26 -1 34 -22 44 -22 9 -45 6 -142 -19 l-117 -31 7 81 c3 45 6 133 6 194
0 109 1 113 23 117 12 3 85 17 162 32 153 29 169 35 185 65 9 16 8 26 -5 45
-18 27 -37 29 -110 8z"/>
</g>
</svg>
