<?xml version="1.0" standalone="no"?>
<!DOCTYPE svg PUBLIC "-//W3C//DTD SVG 20010904//EN"
 "http://www.w3.org/TR/2001/REC-SVG-20010904/DTD/svg10.dtd">
<svg version="1.0" xmlns="http://www.w3.org/2000/svg"
 width="248.000000pt" height="248.000000pt" viewBox="0 0 248.000000 248.000000"
 preserveAspectRatio="xMidYMid meet">
<metadata>
Created by potrace 1.10, written by Peter Selinger 2001-2011
</metadata>
<g transform="translate(0.000000,248.000000) scale(0.100000,-0.100000)"
fill="#000000" stroke="none">
<path d="M1410 2089 c-186 -42 -477 -79 -619 -79 -108 0 -123 -2 -141 -20 -11
-11 -20 -27 -20 -35 0 -8 9 -24 20 -35 17 -17 33 -20 118 -20 116 0 439 40
602 75 63 13 131 27 151 30 45 7 62 25 57 61 -6 51 -30 54 -168 23z"/>
<path d="M1847 1503 c-2 -1 -98 -12 -214 -23 -116 -11 -217 -22 -224 -24 -8
-3 -68 -10 -134 -16 -114 -10 -513 -65 -545 -75 -8 -2 -82 -14 -165 -25 -219
-31 -275 -50 -275 -94 0 -44 43 -57 120 -36 19 5 112 20 205 34 94 15 242 37
330 51 88 13 210 29 270 35 61 6 157 17 215 25 58 8 164 19 235 25 278 23 286
25 301 45 19 26 18 41 -6 65 -16 16 -32 20 -66 19 -24 -2 -46 -4 -47 -6z"/>
</g>
</svg>
