<?xml version="1.0" standalone="no"?>
<!DOCTYPE svg PUBLIC "-//W3C//DTD SVG 20010904//EN"
 "http://www.w3.org/TR/2001/REC-SVG-20010904/DTD/svg10.dtd">
<svg version="1.0" xmlns="http://www.w3.org/2000/svg"
 width="248.000000pt" height="248.000000pt" viewBox="0 0 248.000000 248.000000"
 preserveAspectRatio="xMidYMid meet">
<metadata>
Created by potrace 1.10, written by Peter Selinger 2001-2011
</metadata>
<g transform="translate(0.000000,248.000000) scale(0.100000,-0.100000)"
fill="#000000" stroke="none">
<path d="M1585 2300 c-132 -10 -345 -26 -474 -35 -128 -9 -256 -20 -283 -25
-28 -6 -79 -10 -113 -10 -46 0 -69 -5 -86 -19 -21 -17 -22 -24 -20 -122 2
-124 -37 -444 -74 -604 -70 -309 -173 -559 -327 -797 -64 -99 -70 -111 -59
-134 9 -21 17 -25 43 -22 25 2 40 14 69 51 140 186 284 512 357 807 l36 145
13 -45 c23 -77 43 -229 49 -370 7 -148 17 -180 59 -180 46 0 58 37 51 153 -10
138 -33 313 -56 416 -10 47 -20 102 -22 121 -3 32 -1 35 32 41 19 4 63 10 98
13 35 4 107 13 160 21 125 18 379 33 656 40 l219 5 -7 -68 c-4 -37 -16 -98
-26 -137 -11 -38 -36 -135 -56 -215 -19 -80 -45 -165 -56 -189 -28 -62 -17
-96 32 -96 30 0 37 5 56 40 20 37 56 160 118 410 34 138 52 279 38 309 -6 15
-27 29 -55 39 -38 13 -85 13 -342 5 -163 -5 -299 -8 -300 -6 -2 2 5 46 15 98
11 52 22 128 26 168 4 42 11 72 18 72 6 0 97 7 201 15 105 9 257 15 339 15
117 0 155 3 173 15 30 20 30 59 1 79 -30 21 -183 20 -503 -4z m-329 -177 c-12
-86 -48 -270 -55 -282 -4 -6 -56 -18 -117 -26 -209 -29 -385 -48 -391 -42 -3
4 2 66 11 139 9 73 15 148 12 166 -3 27 1 35 18 41 43 16 327 46 475 50 l53 1
-6 -47z"/>
</g>
</svg>
