<?xml version="1.0" standalone="no"?>
<!DOCTYPE svg PUBLIC "-//W3C//DTD SVG 20010904//EN"
 "http://www.w3.org/TR/2001/REC-SVG-20010904/DTD/svg10.dtd">
<svg version="1.0" xmlns="http://www.w3.org/2000/svg"
 width="248.000000pt" height="248.000000pt" viewBox="0 0 248.000000 248.000000"
 preserveAspectRatio="xMidYMid meet">
<metadata>
Created by potrace 1.10, written by Peter Selinger 2001-2011
</metadata>
<g transform="translate(0.000000,248.000000) scale(0.100000,-0.100000)"
fill="#000000" stroke="none">
<path d="M1655 2304 c-93 -7 -307 -22 -474 -34 -167 -11 -326 -25 -353 -30
-28 -6 -79 -10 -113 -10 -46 0 -69 -5 -86 -19 -21 -17 -22 -24 -20 -122 2
-124 -37 -444 -74 -604 -70 -309 -173 -559 -327 -797 -64 -99 -70 -111 -59
-134 9 -21 17 -25 43 -22 37 3 74 47 150 176 189 320 293 646 348 1092 17 135
29 260 26 278 -2 18 1 35 6 38 20 13 207 34 428 49 129 9 321 23 425 31 105 8
257 14 339 14 117 0 155 3 173 15 30 20 30 59 1 79 -28 20 -181 20 -433 0z"/>
</g>
</svg>
