<?xml version="1.0" standalone="no"?>
<!DOCTYPE svg PUBLIC "-//W3C//DTD SVG 20010904//EN"
 "http://www.w3.org/TR/2001/REC-SVG-20010904/DTD/svg10.dtd">
<svg version="1.0" xmlns="http://www.w3.org/2000/svg"
 width="248.000000pt" height="248.000000pt" viewBox="0 0 248.000000 248.000000"
 preserveAspectRatio="xMidYMid meet">
<metadata>
Created by potrace 1.10, written by Peter Selinger 2001-2011
</metadata>
<g transform="translate(0.000000,248.000000) scale(0.100000,-0.100000)"
fill="#000000" stroke="none">
<path d="M1585 2300 c-132 -10 -345 -26 -474 -35 -128 -9 -256 -20 -283 -25
-28 -6 -79 -10 -113 -10 -46 0 -69 -5 -86 -19 -21 -17 -22 -24 -20 -122 2
-124 -37 -444 -74 -604 -70 -309 -173 -559 -327 -797 -64 -99 -70 -111 -59
-134 9 -21 17 -25 43 -22 25 2 40 14 69 51 140 186 284 512 357 807 l36 145
13 -45 c23 -77 43 -229 49 -370 7 -144 18 -180 56 -180 12 0 29 6 37 14 22 20
167 38 279 34 l93 -3 -1 -364 c0 -201 -3 -367 -5 -370 -3 -2 -19 8 -35 24 -26
25 -34 27 -58 19 -21 -7 -28 -17 -30 -42 -3 -27 5 -41 61 -98 60 -61 67 -65
103 -62 67 5 67 5 72 488 2 234 6 427 9 430 2 2 113 7 246 10 144 4 253 11
269 18 37 15 60 64 101 222 67 252 86 335 98 428 14 114 8 134 -54 155 -38 13
-85 13 -342 5 -163 -5 -299 -8 -300 -6 -2 2 5 46 15 98 11 52 22 128 26 168 4
42 11 72 18 72 6 0 97 7 201 15 105 9 257 15 339 15 117 0 155 3 173 15 30 20
30 59 1 79 -30 21 -183 20 -503 -4z m-329 -177 c-12 -86 -48 -270 -55 -282 -4
-6 -56 -18 -117 -26 -209 -29 -385 -48 -391 -42 -3 4 2 66 11 139 9 73 15 148
12 166 -3 27 1 35 18 41 43 16 327 46 475 50 l53 1 -6 -47z m650 -440 c-4 -37
-12 -85 -18 -105 -12 -42 -2 -40 -248 -58 -80 -6 -183 -15 -230 -21 -47 -5
-129 -9 -182 -9 -54 0 -141 -4 -195 -9 -54 -6 -133 -12 -175 -15 l-76 -6 -16
68 c-8 37 -16 83 -18 102 -3 32 -1 35 32 41 19 4 63 10 98 13 35 4 107 13 160
21 141 20 432 38 716 43 l159 3 -7 -68z m-56 -257 c0 -11 -53 -207 -68 -248
l-16 -48 -135 0 c-75 0 -217 -6 -316 -14 -408 -33 -475 -37 -483 -32 -5 3 -12
49 -16 103 -3 54 -9 114 -12 134 l-6 36 88 7 c49 4 170 11 269 15 99 5 228 15
288 21 59 6 171 15 250 19 78 5 145 9 150 10 4 0 7 -1 7 -3z"/>
<path d="M1682 818 c-7 -7 -12 -22 -12 -34 0 -31 85 -131 170 -200 39 -31 89
-80 111 -108 22 -28 70 -82 106 -119 52 -55 69 -68 90 -65 64 8 55 62 -22 144
-31 32 -73 79 -93 104 -20 25 -55 60 -77 79 -22 19 -79 74 -127 123 -88 88
-118 104 -146 76z"/>
<path d="M723 768 c-11 -13 -37 -48 -58 -78 -63 -89 -140 -174 -220 -242 -58
-48 -75 -68 -75 -88 0 -32 17 -50 47 -50 70 0 393 354 393 432 0 50 -52 65
-87 26z"/>
</g>
</svg>
