<?xml version="1.0" standalone="no"?>
<!DOCTYPE svg PUBLIC "-//W3C//DTD SVG 20010904//EN"
 "http://www.w3.org/TR/2001/REC-SVG-20010904/DTD/svg10.dtd">
<svg version="1.0" xmlns="http://www.w3.org/2000/svg"
 width="248.000000pt" height="248.000000pt" viewBox="0 0 248.000000 248.000000"
 preserveAspectRatio="xMidYMid meet">
<metadata>
Created by potrace 1.10, written by Peter Selinger 2001-2011
</metadata>
<g transform="translate(0.000000,248.000000) scale(0.100000,-0.100000)"
fill="#000000" stroke="none">
<path d="M1610 2309 c-128 -17 -482 -49 -548 -50 -102 -1 -269 -22 -284 -37
-10 -10 -10 -24 1 -70 19 -83 25 -338 12 -477 -6 -66 -18 -194 -26 -285 -16
-168 -58 -421 -95 -564 -44 -171 -153 -408 -214 -465 -44 -42 -30 -91 27 -91
40 0 82 48 139 158 98 186 152 358 202 643 42 236 59 446 63 774 l3 300 102
12 c57 6 139 12 183 12 75 1 279 19 460 41 94 11 183 15 189 9 3 -3 0 -49 -5
-104 -10 -103 -4 -1557 7 -1787 4 -78 3 -118 -4 -118 -6 0 -44 23 -85 50 -41
28 -81 50 -89 50 -19 0 -48 -32 -48 -52 0 -27 90 -97 185 -144 76 -38 95 -44
116 -35 35 13 38 31 28 168 -26 356 -28 1677 -3 1965 10 108 9 108 -135 107
-64 -1 -145 -5 -181 -10z"/>
</g>
</svg>
