<?xml version="1.0" standalone="no"?>
<!DOCTYPE svg PUBLIC "-//W3C//DTD SVG 20010904//EN"
 "http://www.w3.org/TR/2001/REC-SVG-20010904/DTD/svg10.dtd">
<svg version="1.0" xmlns="http://www.w3.org/2000/svg"
 width="248.000000pt" height="248.000000pt" viewBox="0 0 248.000000 248.000000"
 preserveAspectRatio="xMidYMid meet">
<metadata>
Created by potrace 1.10, written by Peter Selinger 2001-2011
</metadata>
<g transform="translate(0.000000,248.000000) scale(0.100000,-0.100000)"
fill="#000000" stroke="none">
<path d="M1610 2309 c-128 -17 -482 -49 -548 -50 -102 -1 -269 -22 -284 -37
-10 -10 -10 -24 1 -70 19 -83 25 -338 12 -477 -6 -66 -18 -194 -26 -285 -16
-168 -58 -421 -95 -564 -44 -171 -153 -408 -214 -465 -44 -42 -30 -91 27 -91
44 0 89 56 157 195 68 139 119 286 150 435 34 161 24 150 132 150 51 0 122 5
158 10 36 5 135 12 220 16 85 3 187 9 225 13 39 4 117 7 174 6 l105 0 7 -35
c9 -46 16 -850 8 -850 -4 0 -41 23 -82 50 -41 28 -81 50 -89 50 -19 0 -48 -32
-48 -52 0 -27 90 -97 185 -144 142 -70 158 -56 144 132 -26 356 -28 1678 -3
1966 10 108 9 108 -135 107 -64 -1 -145 -5 -181 -10z m216 -118 c-3 -14 -9
-113 -12 -219 -7 -185 -8 -193 -28 -197 -78 -15 -862 -76 -882 -68 -10 4 -14
51 -16 220 -2 118 -1 216 2 218 5 3 83 9 445 36 77 5 196 16 265 24 227 26
235 26 226 -14z m-16 -756 c3 -126 4 -232 3 -234 -2 -2 -56 -5 -120 -7 -65 -2
-152 -5 -193 -8 -41 -3 -129 -8 -195 -11 -66 -3 -187 -12 -270 -20 -177 -18
-190 -17 -189 16 4 94 37 406 45 421 7 14 22 18 62 18 78 0 357 19 567 40 102
10 208 17 235 17 l50 -2 5 -230z"/>
</g>
</svg>
