<?xml version="1.0" standalone="no"?>
<!DOCTYPE svg PUBLIC "-//W3C//DTD SVG 20010904//EN"
 "http://www.w3.org/TR/2001/REC-SVG-20010904/DTD/svg10.dtd">
<svg version="1.0" xmlns="http://www.w3.org/2000/svg"
 width="248.000000pt" height="248.000000pt" viewBox="0 0 248.000000 248.000000"
 preserveAspectRatio="xMidYMid meet">
<metadata>
Created by potrace 1.10, written by Peter Selinger 2001-2011
</metadata>
<g transform="translate(0.000000,248.000000) scale(0.100000,-0.100000)"
fill="#000000" stroke="none">
<path d="M790 2195 c-10 -12 -10 -34 -1 -103 13 -107 14 -303 1 -432 -5 -52
-17 -171 -25 -265 -16 -172 -57 -424 -95 -569 -44 -171 -153 -408 -214 -465
-44 -42 -30 -91 27 -91 44 0 89 56 157 195 94 193 133 322 186 614 41 234 59
466 59 786 0 262 -2 294 -18 318 -20 30 -57 36 -77 12z"/>
</g>
</svg>
