<?xml version="1.0" standalone="no"?>
<!DOCTYPE svg PUBLIC "-//W3C//DTD SVG 20010904//EN"
 "http://www.w3.org/TR/2001/REC-SVG-20010904/DTD/svg10.dtd">
<svg version="1.0" xmlns="http://www.w3.org/2000/svg"
 width="248.000000pt" height="248.000000pt" viewBox="0 0 248.000000 248.000000"
 preserveAspectRatio="xMidYMid meet">
<metadata>
Created by potrace 1.10, written by Peter Selinger 2001-2011
</metadata>
<g transform="translate(0.000000,248.000000) scale(0.100000,-0.100000)"
fill="#000000" stroke="none">
<path d="M945 1843 c-28 -4 -231 -33 -370 -53 -33 -5 -124 -18 -202 -28 -78
-11 -149 -25 -158 -32 -20 -16 -19 -54 2 -71 21 -18 101 -15 258 10 66 11 208
31 315 46 107 14 212 30 232 36 46 12 65 41 49 75 -11 25 -40 29 -126 17z"/>
</g>
</svg>
