<?xml version="1.0" standalone="no"?>
<!DOCTYPE svg PUBLIC "-//W3C//DTD SVG 20010904//EN"
 "http://www.w3.org/TR/2001/REC-SVG-20010904/DTD/svg10.dtd">
<svg version="1.0" xmlns="http://www.w3.org/2000/svg"
 width="248.000000pt" height="248.000000pt" viewBox="0 0 248.000000 248.000000"
 preserveAspectRatio="xMidYMid meet">
<metadata>
Created by potrace 1.10, written by Peter Selinger 2001-2011
</metadata>
<g transform="translate(0.000000,248.000000) scale(0.100000,-0.100000)"
fill="#000000" stroke="none">
<path d="M622 2303 c-22 -32 -49 -78 -62 -103 -51 -101 -246 -355 -375 -490
-85 -88 -100 -112 -86 -139 37 -69 103 -14 345 287 108 135 167 220 221 320
15 28 31 52 35 52 4 0 25 -14 46 -31 22 -17 66 -50 99 -72 33 -23 87 -63 120
-90 101 -81 141 -93 165 -46 14 25 0 51 -42 80 -18 12 -46 34 -63 49 -16 15
-68 54 -115 86 -47 31 -108 79 -137 106 -74 68 -100 67 -151 -9z"/>
<path d="M2055 2323 c-27 -2 -160 -17 -295 -33 -444 -55 -490 -65 -490 -114 0
-44 22 -51 113 -38 132 20 536 72 610 79 54 5 67 3 66 -8 0 -8 -10 -72 -22
-143 l-22 -130 -56 3 c-60 2 -379 -39 -494 -64 -38 -9 -88 -19 -110 -22 -22
-3 -46 -10 -52 -16 -20 -15 -15 -54 9 -71 28 -20 51 -20 125 -1 79 20 205 41
354 59 68 9 143 18 167 22 49 7 49 10 27 -102 -9 -44 -20 -105 -26 -136 -16
-78 -7 -108 31 -108 20 0 35 8 45 24 16 24 49 198 95 491 12 77 29 162 37 189
9 27 16 60 16 74 0 29 -27 53 -57 50 -12 -1 -43 -3 -71 -5z"/>
<path d="M680 1814 c-85 -18 -169 -33 -185 -33 -41 -1 -75 -27 -75 -55 0 -39
22 -48 102 -45 l73 4 2 -150 c4 -189 3 -191 -44 -199 -80 -14 -339 -80 -350
-89 -16 -12 -17 -49 -1 -65 20 -20 86 -13 232 23 86 22 143 32 149 26 11 -11
4 -329 -12 -534 -7 -95 -8 -145 -1 -158 9 -17 3 -22 -52 -48 -92 -44 -359
-158 -386 -166 -29 -8 -46 -49 -32 -76 16 -29 61 -29 125 1 107 50 246 110
253 110 4 -1 107 50 230 112 175 89 224 118 229 136 6 27 -21 62 -48 62 -10 0
-63 -23 -118 -52 -55 -29 -103 -49 -107 -46 -3 4 -1 64 5 133 6 69 11 201 11
294 0 92 3 188 6 213 l6 45 122 28 c66 15 134 30 150 34 39 9 53 32 40 68 -13
39 -54 51 -96 30 -37 -18 -199 -57 -210 -50 -10 5 -10 325 0 339 4 5 36 16 72
22 36 7 82 17 103 23 45 12 65 45 48 78 -16 28 -47 26 -241 -15z"/>
<path d="M918 1142 c-9 -2 -41 -52 -75 -118 -32 -63 -75 -136 -95 -161 -39
-46 -47 -80 -26 -101 43 -43 122 36 210 213 50 101 58 125 49 142 -11 22 -35
31 -63 25z"/>
<path d="M212 928 c-18 -18 -15 -52 7 -80 11 -14 31 -54 44 -90 51 -134 78
-168 121 -152 32 12 29 49 -15 160 -59 148 -114 205 -157 162z"/>
</g>
</svg>
