<?xml version="1.0" standalone="no"?>
<!DOCTYPE svg PUBLIC "-//W3C//DTD SVG 20010904//EN"
 "http://www.w3.org/TR/2001/REC-SVG-20010904/DTD/svg10.dtd">
<svg version="1.0" xmlns="http://www.w3.org/2000/svg"
 width="248.000000pt" height="248.000000pt" viewBox="0 0 248.000000 248.000000"
 preserveAspectRatio="xMidYMid meet">
<metadata>
Created by potrace 1.10, written by Peter Selinger 2001-2011
</metadata>
<g transform="translate(0.000000,248.000000) scale(0.100000,-0.100000)"
fill="#000000" stroke="none">
<path d="M622 2303 c-22 -32 -49 -78 -62 -103 -51 -101 -246 -355 -375 -490
-85 -88 -100 -112 -86 -139 37 -69 103 -14 345 287 108 135 167 220 221 320
15 28 31 52 35 52 4 0 25 -14 46 -31 22 -17 66 -50 99 -72 33 -23 87 -63 120
-90 101 -81 141 -93 165 -46 14 25 0 51 -42 80 -18 13 -55 41 -83 64 -27 22
-79 60 -115 85 -36 24 -88 65 -117 92 -74 68 -100 67 -151 -9z"/>
<path d="M680 1814 c-85 -18 -169 -33 -185 -33 -44 -1 -77 -27 -73 -58 5 -42
27 -48 120 -36 97 14 265 46 325 62 51 14 70 42 54 77 -14 32 -43 30 -241 -12z"/>
<path d="M913 1419 c-12 -12 -67 -25 -288 -69 -185 -36 -406 -90 -422 -103
-16 -12 -17 -49 -1 -65 19 -19 86 -14 193 14 55 14 154 36 220 49 186 35 369
77 383 88 18 14 14 55 -8 77 -22 22 -60 26 -77 9z"/>
</g>
</svg>
