<?xml version="1.0" standalone="no"?>
<!DOCTYPE svg PUBLIC "-//W3C//DTD SVG 20010904//EN"
 "http://www.w3.org/TR/2001/REC-SVG-20010904/DTD/svg10.dtd">
<svg version="1.0" xmlns="http://www.w3.org/2000/svg"
 width="248.000000pt" height="248.000000pt" viewBox="0 0 248.000000 248.000000"
 preserveAspectRatio="xMidYMid meet">
<metadata>
Created by potrace 1.10, written by Peter Selinger 2001-2011
</metadata>
<g transform="translate(0.000000,248.000000) scale(0.100000,-0.100000)"
fill="#000000" stroke="none">
<path d="M648 2353 c-9 -10 -28 -40 -42 -68 -37 -70 -84 -133 -209 -276 -59
-68 -110 -135 -114 -148 -8 -33 8 -55 43 -59 25 -2 36 4 64 40 19 24 70 83
114 131 84 92 114 133 190 256 51 81 55 100 28 124 -24 22 -55 22 -74 0z"/>
<path d="M942 2292 c-13 -13 -21 -41 -25 -93 -7 -81 -63 -287 -102 -376 -31
-70 -31 -88 1 -109 42 -28 72 3 113 117 19 52 35 95 35 96 1 1 29 5 64 9 l62
7 0 -84 c0 -46 -3 -120 -6 -164 l-7 -80 -141 -28 c-77 -15 -153 -27 -168 -27
-30 0 -68 -31 -68 -55 0 -25 38 -55 69 -55 15 0 78 11 139 25 61 14 123 25
138 25 l27 0 -7 -87 c-4 -49 -11 -180 -16 -293 -5 -113 -11 -214 -14 -225 -2
-11 -5 -32 -5 -47 -1 -20 -6 -28 -18 -28 -10 0 -46 -9 -81 -19 l-64 -20 9 77
c4 42 8 125 8 184 0 90 -3 109 -19 127 -21 23 -56 27 -74 9 -8 -8 -12 -52 -12
-132 0 -66 -5 -159 -11 -207 l-12 -88 -56 -11 c-31 -7 -66 -14 -79 -16 -30 -6
-48 -44 -33 -73 24 -44 61 -40 326 35 66 18 206 54 310 80 105 26 198 51 208
56 20 10 23 58 5 76 -18 18 -62 14 -183 -18 -60 -15 -112 -26 -114 -24 -3 3 0
42 7 87 7 46 12 104 12 130 l0 46 115 36 c63 20 121 43 130 51 18 18 20 55 3
72 -18 18 -43 15 -148 -18 -51 -17 -96 -30 -98 -30 -3 0 3 97 14 228 7 77 0
73 210 112 159 30 209 47 219 78 15 49 -28 72 -98 53 -23 -6 -92 -20 -153 -30
-61 -11 -123 -23 -139 -27 l-28 -7 6 93 c4 51 7 125 7 165 l0 72 83 21 c45 12
115 28 156 37 87 18 101 27 101 66 0 61 -66 58 -322 -12 -116 -31 -218 -47
-218 -33 0 5 7 47 15 94 19 110 19 126 -5 150 -25 25 -45 25 -68 2z"/>
<path d="M1960 2114 c-140 -29 -258 -53 -263 -53 -4 -1 -12 -12 -18 -25 -13
-28 1 -61 30 -71 10 -3 129 17 264 45 249 51 307 58 307 40 0 -81 -23 -523
-30 -575 -5 -38 -12 -96 -15 -128 l-7 -58 -41 6 c-64 11 -131 43 -168 81 -69
72 -145 22 -88 -58 48 -67 212 -138 319 -138 65 0 78 33 104 280 21 194 37
580 27 617 -15 51 -29 71 -62 82 -49 17 -84 12 -359 -45z"/>
<path d="M608 1783 c-9 -10 -34 -48 -56 -84 -22 -37 -66 -99 -98 -139 -33 -40
-88 -110 -124 -155 -36 -46 -102 -129 -147 -184 -85 -104 -95 -128 -67 -155
35 -35 58 -22 142 84 33 41 72 89 86 105 l26 30 -1 -567 c-2 -612 -3 -602 50
-596 56 6 56 8 59 655 2 363 0 599 -6 609 -8 14 5 35 58 103 89 112 160 228
160 261 0 48 -51 68 -82 33z"/>
</g>
</svg>
