<?xml version="1.0" standalone="no"?>
<!DOCTYPE svg PUBLIC "-//W3C//DTD SVG 20010904//EN"
 "http://www.w3.org/TR/2001/REC-SVG-20010904/DTD/svg10.dtd">
<svg version="1.0" xmlns="http://www.w3.org/2000/svg"
 width="248.000000pt" height="248.000000pt" viewBox="0 0 248.000000 248.000000"
 preserveAspectRatio="xMidYMid meet">
<metadata>
Created by potrace 1.10, written by Peter Selinger 2001-2011
</metadata>
<g transform="translate(0.000000,248.000000) scale(0.100000,-0.100000)"
fill="#000000" stroke="none">
<path d="M648 2353 c-9 -10 -28 -40 -42 -68 -37 -70 -84 -133 -209 -276 -59
-68 -110 -135 -114 -148 -8 -33 8 -55 44 -59 24 -2 35 4 58 34 16 21 70 83
121 140 51 56 98 113 105 126 6 12 23 37 36 53 34 41 93 144 93 161 0 20 -37
54 -58 54 -11 0 -26 -8 -34 -17z"/>
<path d="M942 2292 c-13 -13 -21 -40 -25 -90 -6 -79 -65 -293 -103 -380 -30
-69 -30 -87 2 -108 42 -28 72 3 113 117 19 52 35 95 35 95 1 1 30 5 65 9 l64
7 -6 -162 c-4 -90 -8 -164 -9 -166 -3 -2 -145 -29 -248 -45 -36 -6 -75 -13
-87 -15 -53 -10 -51 -87 3 -100 16 -4 78 4 153 20 69 14 137 26 150 26 24 0
24 -1 17 -77 -3 -43 -9 -145 -11 -228 -8 -232 -25 -375 -44 -375 -9 0 -44 -9
-79 -19 l-63 -19 8 76 c4 42 8 125 8 183 0 91 -3 110 -19 128 -21 23 -58 28
-73 9 -6 -7 -13 -92 -17 -188 -3 -96 -9 -189 -12 -207 -6 -34 -2 -32 -142 -59
-53 -10 -49 -87 4 -100 27 -7 139 17 304 65 52 16 185 50 294 77 110 27 205
55 213 62 16 17 17 54 1 70 -7 7 -23 12 -38 12 -23 0 -180 -36 -239 -55 -24
-7 -24 -7 -18 51 4 33 10 94 13 137 l7 77 113 36 c63 19 120 42 129 50 18 18
20 55 3 72 -18 18 -43 15 -147 -18 -52 -16 -96 -28 -98 -26 -6 6 17 280 24
287 15 13 79 29 198 49 184 31 237 57 220 110 -8 27 -47 35 -98 21 -23 -6 -92
-20 -153 -30 -61 -11 -123 -23 -139 -27 l-28 -7 6 93 c4 51 7 125 7 165 l0 72
83 21 c45 12 116 29 157 37 87 19 100 27 100 66 0 61 -66 58 -322 -12 -116
-31 -218 -47 -218 -33 0 5 7 47 15 94 19 110 19 126 -5 150 -25 25 -45 25 -68
2z"/>
<path d="M1965 2116 c-137 -28 -264 -57 -282 -65 -71 -29 -65 54 -69 -1008 -4
-771 -2 -963 9 -983 18 -35 67 -35 84 0 9 20 13 251 15 963 2 515 4 937 6 937
2 0 113 23 247 50 282 58 305 60 305 28 -1 -109 -23 -499 -35 -603 -8 -71 -15
-134 -15 -138 0 -13 -78 2 -131 25 -26 11 -61 35 -80 54 -34 35 -74 45 -97 22
-52 -52 60 -155 218 -199 96 -26 145 -25 164 4 33 49 60 279 76 630 9 203 8
231 -7 268 -18 47 -59 70 -120 68 -21 -1 -150 -25 -288 -53z"/>
<path d="M608 1783 c-9 -10 -34 -48 -56 -84 -22 -37 -66 -99 -98 -139 -33 -40
-88 -110 -124 -155 -36 -46 -102 -129 -147 -184 -85 -104 -95 -128 -67 -155
33 -34 61 -20 126 65 24 31 62 78 86 104 l43 49 -2 -567 c-2 -611 -3 -601 50
-595 56 6 56 8 59 655 2 358 0 599 -6 609 -7 13 8 38 70 118 126 162 169 251
136 284 -17 17 -53 15 -70 -5z"/>
</g>
</svg>
