<?xml version="1.0" standalone="no"?>
<!DOCTYPE svg PUBLIC "-//W3C//DTD SVG 20010904//EN"
 "http://www.w3.org/TR/2001/REC-SVG-20010904/DTD/svg10.dtd">
<svg version="1.0" xmlns="http://www.w3.org/2000/svg"
 width="248.000000pt" height="248.000000pt" viewBox="0 0 248.000000 248.000000"
 preserveAspectRatio="xMidYMid meet">
<metadata>
Created by potrace 1.10, written by Peter Selinger 2001-2011
</metadata>
<g transform="translate(0.000000,248.000000) scale(0.100000,-0.100000)"
fill="#000000" stroke="none">
<path d="M648 2353 c-9 -10 -28 -40 -42 -68 -37 -70 -84 -133 -209 -276 -59
-68 -110 -135 -114 -148 -8 -33 8 -55 43 -59 25 -2 36 4 64 40 19 24 70 83
114 131 84 92 114 133 190 256 51 81 55 100 28 124 -24 22 -55 22 -74 0z"/>
<path d="M608 1783 c-9 -10 -34 -48 -56 -84 -22 -37 -66 -99 -98 -139 -33 -40
-88 -110 -124 -155 -36 -46 -102 -129 -147 -184 -85 -104 -95 -128 -67 -155
35 -36 57 -22 146 88 275 341 334 418 383 497 45 73 55 115 33 137 -17 17 -53
15 -70 -5z"/>
</g>
</svg>
