<?xml version="1.0" standalone="no"?>
<!DOCTYPE svg PUBLIC "-//W3C//DTD SVG 20010904//EN"
 "http://www.w3.org/TR/2001/REC-SVG-20010904/DTD/svg10.dtd">
<svg version="1.0" xmlns="http://www.w3.org/2000/svg"
 width="248.000000pt" height="248.000000pt" viewBox="0 0 248.000000 248.000000"
 preserveAspectRatio="xMidYMid meet">
<metadata>
Created by potrace 1.10, written by Peter Selinger 2001-2011
</metadata>
<g transform="translate(0.000000,248.000000) scale(0.100000,-0.100000)"
fill="#000000" stroke="none">
<path d="M472 2198 c-7 -7 -12 -24 -12 -40 0 -26 24 -55 183 -220 19 -21 57
-24 75 -6 31 31 14 64 -89 172 -101 106 -129 122 -157 94z"/>
<path d="M2019 2166 c-2 -2 -53 -9 -114 -15 -60 -6 -132 -14 -160 -17 -49 -5
-343 -60 -378 -70 -10 -3 -24 -16 -33 -29 -13 -20 -13 -33 1 -121 21 -134 54
-294 65 -322 15 -34 87 -63 141 -57 24 3 114 12 199 20 268 26 314 33 327 51
12 16 54 146 109 334 15 52 28 120 28 150 1 48 -2 56 -24 67 -23 11 -151 19
-161 9z m45 -233 c-19 -71 -43 -154 -55 -185 l-21 -57 -66 -10 c-60 -10 -198
-24 -369 -38 -35 -3 -63 -3 -63 0 0 3 -14 76 -30 163 -21 111 -27 160 -19 164
21 14 295 60 413 70 66 6 122 13 125 15 2 3 30 5 61 5 l57 0 -33 -127z"/>
<path d="M865 1824 c-33 -7 -163 -33 -290 -58 -126 -25 -266 -55 -309 -66 -44
-11 -89 -20 -100 -20 -32 0 -66 -28 -66 -54 0 -55 60 -63 192 -26 42 11 100
25 130 30 50 9 154 29 328 64 251 51 270 58 270 99 0 49 -40 57 -155 31z"/>
<path d="M1142 1748 c-15 -15 -15 -44 -2 -117 5 -31 19 -126 30 -211 26 -194
31 -205 90 -204 25 1 63 6 85 12 36 11 131 23 395 53 52 5 125 14 162 20 37 5
85 9 108 9 35 0 41 -3 36 -17 -3 -10 -10 -56 -16 -101 -6 -46 -15 -94 -20
-107 -10 -27 -26 -31 -175 -40 -55 -4 -203 -17 -330 -31 -126 -13 -277 -29
-335 -35 -120 -13 -153 -27 -148 -67 7 -57 2 -57 563 7 50 6 155 15 235 21
319 23 550 47 565 60 25 21 15 63 -19 79 -23 10 -49 11 -135 3 -58 -5 -107 -9
-109 -7 -2 1 6 63 16 137 31 209 21 224 -123 206 -147 -18 -243 -29 -340 -38
-55 -6 -163 -20 -239 -31 -77 -11 -143 -16 -147 -12 -4 4 -15 71 -24 148 -19
169 -33 234 -53 258 -17 20 -53 22 -70 5z"/>
<path d="M670 1409 c-58 -16 -156 -40 -218 -53 -62 -13 -119 -29 -127 -36 -22
-19 -18 -57 8 -74 19 -13 33 -12 117 4 105 20 364 85 380 95 12 7 13 55 2 72
-14 23 -59 21 -162 -8z"/>
<path d="M670 1109 c-126 -32 -253 -59 -280 -59 -67 0 -93 -69 -38 -99 29 -17
18 -18 316 51 110 26 137 36 149 55 14 21 14 25 -1 48 -20 30 -42 31 -146 4z"/>
<path d="M815 883 c-154 -20 -301 -46 -350 -61 -33 -11 -84 -25 -112 -32 -63
-14 -103 -55 -103 -103 0 -31 18 -203 40 -389 13 -112 21 -131 64 -158 35 -21
39 -21 174 -11 263 21 282 24 293 37 12 14 30 96 75 329 31 158 38 346 14 369
-18 17 -54 25 -95 19z m1 -200 c-4 -53 -18 -153 -32 -222 -15 -69 -28 -140
-31 -158 -3 -18 -10 -37 -17 -42 -11 -9 -323 -37 -330 -30 -4 3 -42 341 -49
423 -2 27 0 29 98 57 55 16 132 34 170 40 39 6 93 14 120 19 28 4 56 8 64 9
11 1 13 -16 7 -96z"/>
</g>
</svg>
