<?xml version="1.0" standalone="no"?>
<!DOCTYPE svg PUBLIC "-//W3C//DTD SVG 20010904//EN"
 "http://www.w3.org/TR/2001/REC-SVG-20010904/DTD/svg10.dtd">
<svg version="1.0" xmlns="http://www.w3.org/2000/svg"
 width="248.000000pt" height="248.000000pt" viewBox="0 0 248.000000 248.000000"
 preserveAspectRatio="xMidYMid meet">
<metadata>
Created by potrace 1.10, written by Peter Selinger 2001-2011
</metadata>
<g transform="translate(0.000000,248.000000) scale(0.100000,-0.100000)"
fill="#000000" stroke="none">
<path d="M472 2198 c-7 -7 -12 -24 -12 -40 0 -26 24 -55 183 -220 19 -21 57
-24 75 -6 31 31 14 64 -89 172 -101 106 -129 122 -157 94z"/>
<path d="M865 1824 c-33 -7 -163 -33 -290 -58 -126 -25 -266 -55 -309 -66 -44
-11 -89 -20 -100 -20 -32 0 -66 -28 -66 -54 0 -55 60 -63 192 -26 42 11 100
25 130 30 50 9 154 29 328 64 251 51 270 58 270 99 0 49 -40 57 -155 31z"/>
<path d="M670 1409 c-58 -16 -156 -40 -218 -53 -62 -13 -119 -29 -127 -36 -22
-19 -18 -57 8 -74 19 -13 33 -12 117 4 105 20 364 85 380 95 12 7 13 55 2 72
-14 23 -59 21 -162 -8z"/>
<path d="M670 1109 c-126 -32 -253 -59 -280 -59 -67 0 -93 -69 -38 -99 29 -17
18 -18 316 51 110 26 137 36 149 55 14 21 14 25 -1 48 -20 30 -42 31 -146 4z"/>
<path d="M815 883 c-154 -20 -301 -46 -350 -61 -33 -11 -84 -25 -112 -32 -63
-14 -103 -55 -103 -103 0 -18 7 -93 15 -167 37 -338 40 -354 74 -365 11 -3 29
-1 41 5 26 14 26 48 -4 310 -13 113 -21 208 -17 211 12 12 239 67 321 79 47 6
98 14 114 17 l29 5 -7 -98 c-6 -83 -27 -208 -66 -389 -13 -58 -12 -119 2 -133
17 -17 53 -15 68 3 13 15 31 95 76 330 30 158 37 346 14 369 -18 17 -54 25
-95 19z"/>
</g>
</svg>
