<?xml version="1.0" standalone="no"?>
<!DOCTYPE svg PUBLIC "-//W3C//DTD SVG 20010904//EN"
 "http://www.w3.org/TR/2001/REC-SVG-20010904/DTD/svg10.dtd">
<svg version="1.0" xmlns="http://www.w3.org/2000/svg"
 width="248.000000pt" height="248.000000pt" viewBox="0 0 248.000000 248.000000"
 preserveAspectRatio="xMidYMid meet">
<metadata>
Created by potrace 1.10, written by Peter Selinger 2001-2011
</metadata>
<g transform="translate(0.000000,248.000000) scale(0.100000,-0.100000)"
fill="#000000" stroke="none">
<path d="M472 2198 c-7 -7 -12 -24 -12 -40 0 -26 24 -55 183 -220 19 -21 57
-24 75 -6 31 31 14 64 -89 172 -101 106 -129 122 -157 94z"/>
<path d="M2019 2166 c-2 -2 -53 -9 -114 -15 -60 -6 -132 -14 -160 -17 -49 -5
-343 -60 -378 -70 -38 -12 -49 -46 -37 -120 23 -150 63 -340 76 -361 17 -27
55 -30 74 -8 18 21 16 46 -20 229 -21 112 -27 162 -19 166 34 22 367 71 590
87 l67 5 -33 -124 c-18 -69 -43 -154 -55 -190 -32 -96 -17 -140 42 -125 21 6
31 21 53 79 14 40 33 102 41 138 8 36 26 100 40 144 32 99 30 155 -6 173 -23
12 -151 19 -161 9z"/>
<path d="M865 1824 c-33 -7 -163 -33 -290 -58 -126 -25 -266 -55 -309 -66 -44
-11 -89 -20 -100 -20 -32 0 -66 -28 -66 -54 0 -55 60 -63 192 -26 42 11 100
25 130 30 50 9 154 29 328 64 251 51 270 58 270 99 0 49 -40 57 -155 31z"/>
<path d="M670 1409 c-58 -16 -156 -40 -218 -53 -62 -13 -119 -29 -127 -36 -22
-19 -18 -57 8 -74 19 -13 33 -12 117 4 105 20 364 85 380 95 12 7 13 55 2 72
-14 23 -59 21 -162 -8z"/>
<path d="M670 1109 c-126 -32 -253 -59 -280 -59 -67 0 -93 -69 -38 -99 29 -17
18 -18 316 51 110 26 137 36 149 55 14 21 14 25 -1 48 -20 30 -42 31 -146 4z"/>
<path d="M815 883 c-154 -20 -301 -46 -350 -61 -33 -11 -84 -25 -112 -32 -63
-14 -103 -55 -103 -103 0 -31 18 -203 40 -389 13 -112 21 -131 64 -158 35 -21
39 -21 174 -11 263 21 282 24 293 37 12 14 31 98 75 329 30 158 37 346 14 369
-18 17 -54 25 -95 19z m1 -200 c-4 -53 -18 -153 -32 -222 -15 -69 -28 -140
-31 -158 -3 -18 -10 -37 -17 -42 -11 -9 -323 -37 -330 -30 -4 3 -42 341 -49
423 -2 27 0 29 98 57 55 16 132 34 170 40 39 6 93 14 120 19 28 4 56 8 64 9
11 1 13 -16 7 -96z"/>
</g>
</svg>
