<?xml version="1.0" standalone="no"?>
<!DOCTYPE svg PUBLIC "-//W3C//DTD SVG 20010904//EN"
 "http://www.w3.org/TR/2001/REC-SVG-20010904/DTD/svg10.dtd">
<svg version="1.0" xmlns="http://www.w3.org/2000/svg"
 width="248.000000pt" height="248.000000pt" viewBox="0 0 248.000000 248.000000"
 preserveAspectRatio="xMidYMid meet">
<metadata>
Created by potrace 1.10, written by Peter Selinger 2001-2011
</metadata>
<g transform="translate(0.000000,248.000000) scale(0.100000,-0.100000)"
fill="#000000" stroke="none">
<path d="M461 2276 c-10 -12 -14 -237 -18 -1042 -3 -564 -2 -1041 2 -1060 13
-70 88 -68 99 3 3 21 7 490 8 1043 3 879 1 1009 -12 1035 -17 34 -59 45 -79
21z"/>
<path d="M662 1908 c-27 -27 -6 -91 60 -179 18 -24 55 -78 82 -119 75 -114
125 -170 150 -170 55 0 61 56 14 120 -18 24 -81 114 -139 199 -82 122 -110
157 -130 159 -13 2 -30 -3 -37 -10z"/>
<path d="M252 1858 c-7 -7 -12 -22 -12 -35 0 -43 -90 -368 -120 -432 -35 -74
-37 -92 -10 -116 57 -51 116 47 176 294 14 58 32 125 40 149 20 60 18 115 -4
135 -22 20 -53 22 -70 5z"/>
</g>
</svg>
