<?xml version="1.0" standalone="no"?>
<!DOCTYPE svg PUBLIC "-//W3C//DTD SVG 20010904//EN"
 "http://www.w3.org/TR/2001/REC-SVG-20010904/DTD/svg10.dtd">
<svg version="1.0" xmlns="http://www.w3.org/2000/svg"
 width="248.000000pt" height="248.000000pt" viewBox="0 0 248.000000 248.000000"
 preserveAspectRatio="xMidYMid meet">
<metadata>
Created by potrace 1.10, written by Peter Selinger 2001-2011
</metadata>
<g transform="translate(0.000000,248.000000) scale(0.100000,-0.100000)"
fill="#000000" stroke="none">
<path d="M1928 2215 c-11 -12 -288 -47 -548 -70 -151 -14 -390 -36 -530 -50
-140 -14 -275 -25 -300 -25 -82 0 -121 -59 -64 -96 23 -16 36 -16 192 0 234
23 212 28 212 -48 0 -35 -6 -94 -14 -132 -8 -38 -22 -112 -32 -164 -9 -52 -24
-124 -34 -160 -32 -114 -70 -283 -91 -406 -11 -65 -23 -133 -26 -150 -4 -24 0
-37 16 -53 19 -19 32 -21 119 -20 53 0 149 4 212 10 63 5 171 13 240 19 182
14 328 36 345 50 23 19 15 63 -15 77 -18 8 -46 9 -105 2 -75 -9 -160 -17 -430
-39 -60 -5 -145 -9 -187 -9 -68 -1 -78 1 -78 17 0 23 29 188 40 232 5 19 19
76 30 125 12 50 28 110 35 135 8 25 26 110 40 190 13 80 29 163 35 185 5 22
10 68 10 102 0 77 -29 69 385 103 257 22 415 42 535 68 67 15 76 20 85 46 8
24 6 31 -14 47 -22 18 -52 25 -63 14z"/>
</g>
</svg>
