<?xml version="1.0" standalone="no"?>
<!DOCTYPE svg PUBLIC "-//W3C//DTD SVG 20010904//EN"
 "http://www.w3.org/TR/2001/REC-SVG-20010904/DTD/svg10.dtd">
<svg version="1.0" xmlns="http://www.w3.org/2000/svg"
 width="248.000000pt" height="248.000000pt" viewBox="0 0 248.000000 248.000000"
 preserveAspectRatio="xMidYMid meet">
<metadata>
Created by potrace 1.10, written by Peter Selinger 2001-2011
</metadata>
<g transform="translate(0.000000,248.000000) scale(0.100000,-0.100000)"
fill="#000000" stroke="none">
<path d="M1928 2215 c-11 -12 -288 -47 -548 -70 -151 -14 -390 -36 -530 -50
-140 -14 -275 -25 -300 -25 -82 0 -121 -59 -64 -96 23 -16 36 -16 192 0 234
23 212 28 212 -48 0 -35 -6 -94 -14 -132 -8 -38 -22 -112 -32 -164 -9 -52 -24
-124 -34 -160 -32 -114 -70 -283 -91 -406 -11 -65 -23 -133 -26 -150 -4 -24 0
-37 16 -53 18 -18 32 -21 114 -21 50 0 148 5 217 11 69 5 175 14 235 18 61 5
154 14 208 21 54 7 100 10 102 8 2 -2 -8 -75 -23 -161 l-27 -157 -190 0 c-104
0 -237 -4 -295 -9 -58 -5 -241 -15 -408 -22 -174 -7 -312 -17 -325 -24 -15 -7
-22 -20 -22 -40 0 -55 23 -59 314 -46 141 6 315 16 386 22 76 6 390 9 752 8
495 -2 625 0 638 11 23 19 18 57 -11 76 -22 15 -70 18 -375 22 l-349 5 0 31
c0 17 18 128 40 246 40 215 63 368 75 510 3 41 13 115 20 164 25 152 2 168
-210 142 -71 -8 -182 -20 -245 -27 -63 -6 -155 -17 -205 -25 -49 -8 -109 -14
-133 -14 -42 0 -43 1 -38 28 2 15 8 50 11 77 4 28 13 75 21 105 8 30 14 82 14
116 0 78 -30 70 385 104 257 22 415 42 535 68 67 15 76 20 85 46 8 24 6 31
-14 47 -22 18 -52 25 -63 14z m-249 -682 c-5 -27 -16 -115 -24 -198 -15 -150
-31 -269 -41 -309 -4 -17 -13 -22 -45 -22 -22 -1 -90 -7 -152 -13 -62 -6 -155
-16 -207 -21 -52 -5 -164 -13 -247 -16 -146 -7 -153 -6 -153 12 0 25 28 189
40 234 6 19 21 83 35 143 39 166 26 151 151 166 60 7 138 16 174 21 36 5 139
16 230 25 90 9 167 18 169 21 2 2 21 4 41 4 l37 0 -8 -47z"/>
</g>
</svg>
