<?xml version="1.0" standalone="no"?>
<!DOCTYPE svg PUBLIC "-//W3C//DTD SVG 20010904//EN"
 "http://www.w3.org/TR/2001/REC-SVG-20010904/DTD/svg10.dtd">
<svg version="1.0" xmlns="http://www.w3.org/2000/svg"
 width="248.000000pt" height="248.000000pt" viewBox="0 0 248.000000 248.000000"
 preserveAspectRatio="xMidYMid meet">
<metadata>
Created by potrace 1.10, written by Peter Selinger 2001-2011
</metadata>
<g transform="translate(0.000000,248.000000) scale(0.100000,-0.100000)"
fill="#000000" stroke="none">
<path d="M1928 2215 c-11 -12 -288 -47 -548 -70 -151 -14 -390 -36 -530 -50
-140 -14 -275 -25 -300 -25 -82 0 -121 -59 -65 -96 23 -15 38 -15 148 -5 67 7
193 18 279 26 87 8 172 16 190 19 18 3 143 15 278 26 261 21 419 41 540 68 67
15 76 20 85 46 8 24 6 31 -14 47 -22 18 -52 25 -63 14z"/>
</g>
</svg>
