<?xml version="1.0" standalone="no"?>
<!DOCTYPE svg PUBLIC "-//W3C//DTD SVG 20010904//EN"
 "http://www.w3.org/TR/2001/REC-SVG-20010904/DTD/svg10.dtd">
<svg version="1.0" xmlns="http://www.w3.org/2000/svg"
 width="248.000000pt" height="248.000000pt" viewBox="0 0 248.000000 248.000000"
 preserveAspectRatio="xMidYMid meet">
<metadata>
Created by potrace 1.10, written by Peter Selinger 2001-2011
</metadata>
<g transform="translate(0.000000,248.000000) scale(0.100000,-0.100000)"
fill="#000000" stroke="none">
<path d="M890 2393 c-25 -9 -40 -35 -40 -69 0 -41 -101 -244 -179 -362 -33
-48 -91 -124 -131 -170 -56 -64 -71 -88 -68 -109 4 -32 36 -46 69 -30 32 16
166 174 215 252 21 35 48 66 59 69 11 3 84 6 162 6 82 0 238 10 370 25 125 14
298 32 383 41 85 8 166 21 180 28 29 13 38 50 18 73 -13 17 -94 15 -273 -7
-374 -46 -751 -78 -779 -67 -15 6 -14 12 8 54 41 83 76 175 76 205 0 15 -9 37
-20 48 -21 21 -25 22 -50 13z"/>
<path d="M1124 1795 c-121 -13 -238 -28 -260 -34 -21 -6 -53 -11 -70 -11 -38
0 -84 -34 -84 -61 0 -11 7 -31 17 -45 24 -38 3 -159 -55 -314 -54 -143 -33
-129 -217 -150 -165 -19 -328 -49 -352 -65 -27 -18 -30 -56 -7 -76 13 -10 45
-8 187 14 95 15 200 30 234 34 l62 6 -30 -79 c-51 -132 -105 -240 -138 -274
-17 -18 -31 -43 -31 -56 0 -29 35 -54 75 -54 44 0 425 -59 455 -70 14 -5 41
-9 60 -8 79 1 447 -78 474 -103 9 -8 -61 -169 -74 -169 -3 0 -15 7 -26 15 -25
19 -68 19 -84 1 -20 -25 -7 -59 38 -93 43 -33 87 -42 128 -26 16 6 114 194
114 220 0 6 4 14 9 17 5 4 83 -22 173 -55 219 -83 278 -88 278 -24 0 32 -10
38 -145 84 -176 59 -261 96 -257 112 2 8 16 48 32 89 31 83 100 338 126 470 9
47 22 88 28 92 18 12 461 9 559 -4 84 -11 90 -11 103 7 21 29 17 53 -13 72
-24 16 -62 19 -333 23 l-305 5 3 40 c2 22 10 69 17 105 7 36 21 124 30 197 20
157 17 167 -55 182 -85 18 -422 11 -666 -14z m619 -82 c13 -8 2 -107 -31 -283
l-27 -145 -230 -7 c-126 -4 -231 -5 -233 -4 -2 2 4 32 13 67 23 88 55 274 55
320 0 21 5 41 11 44 31 20 413 26 442 8z m-553 -45 c0 -84 -64 -386 -86 -404
-7 -5 -34 -11 -61 -12 -26 -2 -99 -9 -161 -17 -62 -8 -119 -15 -127 -15 -10 0
-3 31 27 118 34 96 43 135 47 217 l6 100 45 8 c48 9 249 34 288 36 18 1 22 -4
22 -31z m468 -486 c10 -7 9 -23 -3 -83 -30 -145 -85 -345 -122 -447 -33 -90
-40 -103 -58 -99 -11 3 -65 17 -120 30 -55 14 -143 33 -196 42 -53 9 -101 20
-109 25 -10 6 -6 26 18 91 17 46 42 122 56 169 70 240 72 244 103 252 16 4
110 11 208 16 99 5 187 10 195 10 8 1 21 -2 28 -6z m-568 -36 c0 -3 -15 -49
-33 -103 -19 -54 -39 -122 -46 -150 -7 -29 -28 -90 -45 -135 l-33 -83 -49 2
c-69 2 -344 45 -344 53 0 4 20 50 43 101 24 52 52 119 62 149 16 48 51 129 58
131 70 16 387 45 387 35z"/>
</g>
</svg>
