<?xml version="1.0" standalone="no"?>
<!DOCTYPE svg PUBLIC "-//W3C//DTD SVG 20010904//EN"
 "http://www.w3.org/TR/2001/REC-SVG-20010904/DTD/svg10.dtd">
<svg version="1.0" xmlns="http://www.w3.org/2000/svg"
 width="248.000000pt" height="248.000000pt" viewBox="0 0 248.000000 248.000000"
 preserveAspectRatio="xMidYMid meet">
<metadata>
Created by potrace 1.10, written by Peter Selinger 2001-2011
</metadata>
<g transform="translate(0.000000,248.000000) scale(0.100000,-0.100000)"
fill="#000000" stroke="none">
<path d="M890 2393 c-25 -9 -40 -35 -40 -69 0 -41 -101 -244 -179 -362 -33
-48 -91 -124 -131 -170 -56 -64 -71 -88 -68 -109 4 -32 36 -46 69 -30 32 16
166 174 215 252 21 35 48 66 59 69 11 3 84 6 162 6 82 0 238 10 370 25 125 14
298 32 383 41 85 8 166 21 180 28 29 13 38 50 18 73 -13 17 -94 15 -273 -7
-374 -46 -751 -78 -779 -67 -15 6 -14 12 8 54 41 83 76 175 76 205 0 15 -9 37
-20 48 -21 21 -25 22 -50 13z"/>
<path d="M1124 1795 c-121 -13 -238 -28 -260 -34 -21 -6 -53 -11 -70 -11 -38
0 -84 -34 -84 -61 0 -11 7 -31 16 -44 13 -20 15 -37 9 -81 -11 -92 -29 -150
-125 -395 -112 -287 -158 -387 -199 -429 -17 -18 -31 -43 -31 -56 0 -29 35
-54 75 -54 41 0 518 -73 720 -110 155 -29 250 -54 269 -71 9 -8 -61 -169 -74
-169 -3 0 -15 7 -26 15 -25 19 -68 19 -84 1 -20 -25 -7 -59 38 -93 43 -33 87
-42 128 -26 16 6 114 194 114 220 0 6 4 14 9 17 5 4 83 -22 173 -55 219 -83
278 -88 278 -24 0 32 -10 38 -145 84 -176 59 -261 96 -257 112 2 8 16 48 32
90 45 117 116 407 150 610 17 101 35 202 40 224 5 22 16 99 25 172 20 157 17
167 -55 182 -85 18 -422 11 -666 -14z m621 -86 c10 -10 -3 -111 -60 -439 -42
-239 -99 -472 -152 -618 -33 -90 -40 -103 -58 -99 -11 3 -65 16 -120 30 -95
24 -297 62 -450 86 -38 6 -136 20 -217 32 -82 13 -148 26 -148 30 0 3 20 49
43 100 24 52 50 112 57 134 7 22 37 99 65 170 96 237 118 310 124 419 l6 100
66 12 c58 11 428 48 579 58 84 5 254 -4 265 -15z"/>
</g>
</svg>
