<?xml version="1.0" standalone="no"?>
<!DOCTYPE svg PUBLIC "-//W3C//DTD SVG 20010904//EN"
 "http://www.w3.org/TR/2001/REC-SVG-20010904/DTD/svg10.dtd">
<svg version="1.0" xmlns="http://www.w3.org/2000/svg"
 width="248.000000pt" height="248.000000pt" viewBox="0 0 248.000000 248.000000"
 preserveAspectRatio="xMidYMid meet">
<metadata>
Created by potrace 1.10, written by Peter Selinger 2001-2011
</metadata>
<g transform="translate(0.000000,248.000000) scale(0.100000,-0.100000)"
fill="#000000" stroke="none">
<path d="M890 2393 c-25 -9 -40 -35 -40 -69 0 -41 -101 -244 -179 -362 -33
-48 -91 -124 -131 -170 -56 -64 -71 -88 -68 -109 4 -32 36 -46 69 -30 27 14
146 149 200 228 54 80 154 265 189 349 35 85 38 122 10 150 -21 21 -25 22 -50
13z"/>
</g>
</svg>
