<?xml version="1.0" standalone="no"?>
<!DOCTYPE svg PUBLIC "-//W3C//DTD SVG 20010904//EN"
 "http://www.w3.org/TR/2001/REC-SVG-20010904/DTD/svg10.dtd">
<svg version="1.0" xmlns="http://www.w3.org/2000/svg"
 width="248.000000pt" height="248.000000pt" viewBox="0 0 248.000000 248.000000"
 preserveAspectRatio="xMidYMid meet">
<metadata>
Created by potrace 1.10, written by Peter Selinger 2001-2011
</metadata>
<g transform="translate(0.000000,248.000000) scale(0.100000,-0.100000)"
fill="#000000" stroke="none">
<path d="M1077 2289 c-15 -9 -145 -199 -262 -384 -81 -128 -299 -386 -550
-647 -82 -87 -154 -169 -160 -184 -8 -22 -6 -29 14 -45 13 -10 30 -19 38 -19
45 0 666 698 745 837 43 75 203 313 209 310 3 -1 55 -58 115 -127 59 -69 221
-238 359 -375 201 -201 280 -273 405 -366 182 -136 377 -259 412 -259 30 0 48
17 48 45 0 28 -13 39 -149 124 -244 153 -369 256 -656 545 -149 149 -312 321
-363 381 -138 165 -148 175 -168 175 -10 0 -27 -5 -37 -11z"/>
<path d="M1505 1309 c-117 -7 -273 -23 -420 -40 -49 -6 -183 -14 -296 -17
-223 -8 -243 -13 -237 -61 5 -46 35 -52 223 -47 94 2 253 14 355 25 102 12
255 26 341 31 190 12 233 23 237 63 2 16 -2 35 -9 43 -12 15 -21 15 -194 3z"/>
<path d="M1435 943 c-131 -7 -346 -26 -505 -44 -96 -11 -229 -26 -294 -33
-103 -11 -121 -15 -137 -35 -25 -31 -24 -60 6 -118 28 -54 86 -312 105 -472
14 -117 31 -147 78 -138 15 4 86 11 157 17 72 6 177 15 235 20 58 6 182 10
275 11 219 0 227 3 276 94 59 109 248 598 249 643 0 7 -11 24 -25 37 -24 25
-26 25 -197 23 -95 -1 -195 -3 -223 -5z m284 -214 c-47 -133 -108 -286 -156
-390 l-35 -77 -182 -5 c-99 -3 -279 -12 -399 -21 -120 -9 -222 -14 -226 -11
-5 2 -11 37 -15 76 -7 76 -72 382 -87 411 -22 40 -14 44 134 62 78 9 176 21
217 26 72 9 290 27 395 33 28 2 127 4 221 5 l172 2 -39 -111z"/>
</g>
</svg>
