<?xml version="1.0" standalone="no"?>
<!DOCTYPE svg PUBLIC "-//W3C//DTD SVG 20010904//EN"
 "http://www.w3.org/TR/2001/REC-SVG-20010904/DTD/svg10.dtd">
<svg version="1.0" xmlns="http://www.w3.org/2000/svg"
 width="248.000000pt" height="248.000000pt" viewBox="0 0 248.000000 248.000000"
 preserveAspectRatio="xMidYMid meet">
<metadata>
Created by potrace 1.10, written by Peter Selinger 2001-2011
</metadata>
<g transform="translate(0.000000,248.000000) scale(0.100000,-0.100000)"
fill="#000000" stroke="none">
<path d="M1077 2289 c-15 -9 -145 -199 -262 -384 -81 -128 -299 -386 -550
-647 -82 -87 -154 -169 -160 -184 -8 -22 -6 -29 14 -45 13 -10 30 -19 38 -19
46 0 658 690 750 845 38 64 204 315 232 351 26 33 26 49 1 74 -22 22 -37 24
-63 9z"/>
</g>
</svg>
