<?xml version="1.0" standalone="no"?>
<!DOCTYPE svg PUBLIC "-//W3C//DTD SVG 20010904//EN"
 "http://www.w3.org/TR/2001/REC-SVG-20010904/DTD/svg10.dtd">
<svg version="1.0" xmlns="http://www.w3.org/2000/svg"
 width="248.000000pt" height="248.000000pt" viewBox="0 0 248.000000 248.000000"
 preserveAspectRatio="xMidYMid meet">
<metadata>
Created by potrace 1.10, written by Peter Selinger 2001-2011
</metadata>
<g transform="translate(0.000000,248.000000) scale(0.100000,-0.100000)"
fill="#000000" stroke="none">
<path d="M1077 2289 c-15 -9 -145 -199 -262 -384 -81 -128 -299 -386 -550
-647 -82 -87 -154 -169 -160 -184 -8 -22 -6 -29 14 -45 13 -10 30 -19 38 -19
45 0 666 698 745 837 43 75 203 313 209 310 3 -1 55 -58 115 -127 59 -69 221
-238 359 -375 201 -201 280 -273 405 -366 182 -136 377 -259 412 -259 30 0 48
17 48 45 0 28 -13 39 -149 124 -244 153 -369 256 -656 545 -149 149 -312 321
-363 381 -138 165 -148 175 -168 175 -10 0 -27 -5 -37 -11z"/>
<path d="M1505 1309 c-117 -7 -273 -23 -420 -40 -49 -6 -183 -14 -296 -17
-223 -8 -243 -13 -237 -61 5 -46 35 -52 223 -47 94 2 253 14 355 25 102 12
255 26 341 31 190 12 233 23 237 63 2 16 -2 35 -9 43 -12 15 -21 15 -194 3z"/>
<path d="M492 808 c-18 -18 -15 -41 13 -95 29 -56 79 -274 101 -442 17 -135
29 -165 65 -169 30 -3 48 15 50 49 6 85 -72 494 -111 584 -32 75 -84 107 -118
73z"/>
</g>
</svg>
