<?xml version="1.0" standalone="no"?>
<!DOCTYPE svg PUBLIC "-//W3C//DTD SVG 20010904//EN"
 "http://www.w3.org/TR/2001/REC-SVG-20010904/DTD/svg10.dtd">
<svg version="1.0" xmlns="http://www.w3.org/2000/svg"
 width="248.000000pt" height="248.000000pt" viewBox="0 0 248.000000 248.000000"
 preserveAspectRatio="xMidYMid meet">
<metadata>
Created by potrace 1.10, written by Peter Selinger 2001-2011
</metadata>
<g transform="translate(0.000000,248.000000) scale(0.100000,-0.100000)"
fill="#000000" stroke="none">
<path d="M1635 2399 c-60 -5 -265 -15 -455 -24 -484 -22 -767 -52 -802 -87
-21 -21 -23 -63 -8 -223 22 -228 36 -275 85 -275 45 0 48 17 30 193 -9 90 -15
179 -13 197 l3 35 145 16 c80 9 303 24 495 33 193 9 413 21 490 26 147 11 575
14 575 4 0 -17 -118 -159 -184 -222 -76 -73 -91 -103 -64 -130 7 -7 24 -12 38
-12 67 0 330 308 330 386 0 45 -26 69 -89 83 -58 12 -404 12 -576 0z"/>
<path d="M1219 2234 c-10 -12 -15 -53 -17 -146 l-4 -128 -76 -1 c-194 -2 -370
-15 -386 -28 -24 -20 -20 -58 9 -77 21 -14 50 -15 241 -8 l217 7 -7 -84 c-4
-46 -10 -86 -12 -89 -3 -2 -73 -8 -157 -11 -84 -4 -181 -12 -217 -18 -36 -6
-96 -11 -135 -11 -38 0 -81 -6 -95 -13 -23 -12 -25 -18 -24 -77 2 -90 24 -359
33 -394 4 -16 19 -39 35 -50 26 -20 40 -21 292 -21 l264 0 0 -92 0 -93 -137 0
c-282 -1 -672 -19 -701 -32 -37 -18 -42 -61 -10 -82 20 -13 57 -14 268 -6 135
5 320 9 413 10 l167 0 0 -312 c0 -346 3 -363 55 -363 52 0 55 17 55 362 l0
312 431 3 c413 3 431 4 445 22 8 11 14 25 14 31 0 6 -6 20 -14 31 -14 18 -32
19 -445 22 l-431 3 0 93 c0 89 1 94 23 99 12 3 121 9 242 13 121 3 230 10 243
15 12 5 26 19 31 31 14 37 70 337 77 413 13 146 -3 153 -323 136 -125 -6 -241
-14 -257 -18 l-29 -6 7 88 c3 49 8 90 10 93 2 2 100 7 218 11 235 9 271 17
276 62 5 46 -17 53 -156 51 -70 -1 -175 -5 -234 -8 l-108 -7 0 114 c0 71 -5
123 -13 139 -15 31 -58 38 -78 14z m575 -706 c-3 -40 -10 -77 -15 -82 -5 -6
-115 -12 -244 -14 l-235 -5 0 77 c0 76 0 76 28 77 15 1 81 5 147 9 66 3 166 7
223 8 l103 2 -7 -72z m-604 -27 c0 -68 -1 -70 -27 -75 -55 -10 -480 -18 -486
-9 -3 5 -9 32 -12 59 l-7 50 98 14 c93 12 264 25 382 28 l52 2 0 -69z m566
-197 c-4 -15 -9 -39 -12 -54 l-6 -28 -162 -6 c-88 -4 -190 -9 -225 -13 l-64
-6 6 33 c4 18 7 45 7 61 l0 29 168 3 c92 1 196 4 231 5 l63 2 -6 -26z m-566
-43 l0 -58 -46 -7 c-26 -3 -138 -6 -249 -6 l-202 0 -7 51 c-4 28 -6 53 -4 54
3 3 333 20 456 23 l52 2 0 -59z"/>
</g>
</svg>
