<?xml version="1.0" standalone="no"?>
<!DOCTYPE svg PUBLIC "-//W3C//DTD SVG 20010904//EN"
 "http://www.w3.org/TR/2001/REC-SVG-20010904/DTD/svg10.dtd">
<svg version="1.0" xmlns="http://www.w3.org/2000/svg"
 width="248.000000pt" height="248.000000pt" viewBox="0 0 248.000000 248.000000"
 preserveAspectRatio="xMidYMid meet">
<metadata>
Created by potrace 1.10, written by Peter Selinger 2001-2011
</metadata>
<g transform="translate(0.000000,248.000000) scale(0.100000,-0.100000)"
fill="#000000" stroke="none">
<path d="M1635 2399 c-60 -5 -265 -15 -455 -24 -484 -22 -767 -52 -802 -87
-21 -21 -23 -63 -8 -223 22 -228 36 -275 85 -275 45 0 48 17 30 193 -9 90 -15
179 -13 197 l3 35 145 16 c80 9 303 24 495 33 193 9 413 21 490 26 148 11 575
14 575 4 0 -17 -118 -159 -184 -222 -76 -73 -91 -103 -64 -130 7 -7 24 -12 38
-12 67 0 330 308 330 386 0 45 -26 69 -89 83 -58 12 -404 12 -576 0z"/>
<path d="M1570 1980 c-91 -4 -307 -13 -480 -20 -185 -7 -325 -17 -340 -24 -36
-16 -39 -60 -5 -82 24 -15 47 -16 313 -5 158 7 377 16 487 20 221 9 258 17
263 62 6 53 -19 58 -238 49z"/>
<path d="M1540 1700 c-63 -4 -207 -12 -320 -19 -113 -6 -257 -16 -320 -23 -63
-6 -161 -14 -216 -17 -61 -4 -108 -12 -118 -20 -19 -16 -21 -68 -6 -168 5 -38
14 -123 19 -191 9 -132 22 -162 66 -162 45 0 48 17 36 193 -6 89 -14 178 -17
198 l-6 35 94 13 c141 19 1033 69 1044 59 9 -10 -13 -166 -41 -294 -32 -139
-27 -167 28 -162 42 4 49 20 85 198 35 168 46 267 37 311 -13 59 -68 66 -365
49z"/>
</g>
</svg>
