<?xml version="1.0" standalone="no"?>
<!DOCTYPE svg PUBLIC "-//W3C//DTD SVG 20010904//EN"
 "http://www.w3.org/TR/2001/REC-SVG-20010904/DTD/svg10.dtd">
<svg version="1.0" xmlns="http://www.w3.org/2000/svg"
 width="248.000000pt" height="248.000000pt" viewBox="0 0 248.000000 248.000000"
 preserveAspectRatio="xMidYMid meet">
<metadata>
Created by potrace 1.10, written by Peter Selinger 2001-2011
</metadata>
<g transform="translate(0.000000,248.000000) scale(0.100000,-0.100000)"
fill="#000000" stroke="none">
<path d="M1635 2399 c-60 -5 -265 -15 -455 -24 -484 -22 -767 -52 -802 -87
-21 -21 -23 -63 -8 -223 22 -228 36 -275 85 -275 45 0 48 17 30 193 -9 90 -15
179 -13 197 l3 35 145 16 c80 9 303 24 495 33 193 9 413 21 490 26 147 11 575
14 575 4 0 -17 -118 -159 -184 -222 -76 -73 -91 -103 -64 -130 7 -7 24 -12 38
-12 67 0 330 308 330 386 0 45 -26 69 -89 83 -58 12 -404 12 -576 0z"/>
<path d="M1570 1980 c-91 -4 -307 -13 -480 -20 -185 -7 -325 -17 -340 -24 -36
-16 -39 -60 -5 -82 24 -15 47 -16 313 -5 158 7 377 16 487 20 221 9 258 17
263 62 6 53 -19 58 -238 49z"/>
<path d="M1540 1700 c-63 -4 -207 -12 -320 -19 -113 -6 -257 -16 -320 -23 -63
-6 -161 -14 -216 -17 -129 -8 -137 -14 -131 -95 19 -250 29 -365 36 -390 13
-53 44 -66 173 -73 130 -7 1000 25 1036 38 30 11 35 26 70 214 37 191 46 273
37 315 -13 60 -67 67 -365 50z m254 -172 c-3 -40 -10 -77 -15 -82 -5 -5 -174
-13 -376 -17 -203 -4 -447 -11 -544 -15 -110 -4 -178 -3 -182 3 -3 5 -9 32
-12 59 l-7 50 88 12 c49 7 206 20 349 28 143 9 314 19 380 23 66 4 166 8 223
9 l103 2 -7 -72z m-38 -224 c-4 -15 -10 -39 -13 -55 -5 -27 -9 -29 -52 -29
-25 0 -176 -7 -336 -15 -159 -8 -374 -15 -477 -15 -172 0 -188 1 -188 18 0 9
-3 33 -6 53 l-6 36 153 8 c85 4 300 11 479 15 179 3 354 7 389 8 l63 2 -6 -26z"/>
<path d="M594 890 c-244 -9 -277 -16 -282 -62 -5 -45 33 -62 121 -53 39 4 442
11 895 14 800 6 824 7 838 25 18 25 18 37 0 62 -14 18 -33 19 -683 20 -367 1
-768 -2 -889 -6z"/>
</g>
</svg>
