<?xml version="1.0" standalone="no"?>
<!DOCTYPE svg PUBLIC "-//W3C//DTD SVG 20010904//EN"
 "http://www.w3.org/TR/2001/REC-SVG-20010904/DTD/svg10.dtd">
<svg version="1.0" xmlns="http://www.w3.org/2000/svg"
 width="248.000000pt" height="248.000000pt" viewBox="0 0 248.000000 248.000000"
 preserveAspectRatio="xMidYMid meet">
<metadata>
Created by potrace 1.10, written by Peter Selinger 2001-2011
</metadata>
<g transform="translate(0.000000,248.000000) scale(0.100000,-0.100000)"
fill="#000000" stroke="none">
<path d="M865 2140 c-60 -10 -181 -34 -267 -54 -87 -20 -188 -40 -224 -45 -73
-11 -94 -23 -94 -56 0 -55 60 -64 209 -31 63 15 116 24 119 22 2 -3 1 -48 -3
-100 l-7 -96 -37 -6 c-20 -3 -79 -14 -133 -25 -53 -10 -115 -19 -139 -19 -66
0 -172 -21 -192 -38 -21 -18 -22 -55 -3 -72 21 -16 165 -5 339 26 77 14 140
24 142 22 8 -7 -18 -148 -29 -162 -7 -10 -50 -20 -119 -30 -116 -16 -137 -25
-137 -61 0 -47 36 -57 163 -41 87 10 87 24 8 -204 -66 -188 -142 -339 -273
-538 -62 -95 -62 -142 -1 -142 32 0 55 27 137 159 38 62 70 110 71 109 2 -2
12 -68 24 -148 36 -242 40 -262 57 -281 21 -23 57 -25 74 -4 14 17 5 112 -31
322 -10 61 -19 132 -19 158 0 25 -5 66 -11 89 -10 40 -8 50 23 122 50 114 118
325 118 365 0 25 23 34 150 54 133 22 204 41 219 59 14 17 40 152 41 212 l0
41 73 12 c84 14 117 32 117 65 0 40 -22 49 -105 41 l-75 -7 0 135 c0 96 -4
138 -13 145 -23 20 -62 20 -172 2z m75 -199 l0 -100 -52 -10 c-55 -11 -169
-31 -175 -31 -5 0 -3 70 3 141 l7 67 56 11 c31 6 65 12 76 15 11 2 35 4 53 5
l32 1 0 -99z m-11 -263 c-3 -114 2 -110 -134 -134 -66 -12 -123 -20 -126 -19
-7 5 16 153 25 162 6 6 181 40 219 42 14 1 17 -7 16 -51z"/>
</g>
</svg>
