<?xml version="1.0" standalone="no"?>
<!DOCTYPE svg PUBLIC "-//W3C//DTD SVG 20010904//EN"
 "http://www.w3.org/TR/2001/REC-SVG-20010904/DTD/svg10.dtd">
<svg version="1.0" xmlns="http://www.w3.org/2000/svg"
 width="248.000000pt" height="248.000000pt" viewBox="0 0 248.000000 248.000000"
 preserveAspectRatio="xMidYMid meet">
<metadata>
Created by potrace 1.10, written by Peter Selinger 2001-2011
</metadata>
<g transform="translate(0.000000,248.000000) scale(0.100000,-0.100000)"
fill="#000000" stroke="none">
<path d="M2097 2252 c-10 -10 -17 -23 -17 -28 0 -6 -12 -26 -26 -45 -14 -19
-36 -55 -49 -80 -25 -48 -106 -159 -164 -224 -33 -38 -36 -39 -185 -67 -83
-16 -191 -35 -241 -44 -109 -19 -137 -35 -133 -72 5 -46 38 -53 158 -31 58 10
110 21 117 24 7 2 108 20 225 40 382 63 403 67 426 81 24 16 29 53 10 72 -15
15 -72 14 -163 -2 -38 -7 -71 -9 -73 -5 -2 4 17 34 41 66 24 32 52 73 61 91 9
18 35 60 56 94 41 63 51 113 28 136 -18 18 -53 15 -71 -6z"/>
<path d="M1422 2178 c-16 -16 -15 -44 2 -76 8 -15 32 -65 54 -112 46 -97 73
-130 105 -130 49 0 62 51 26 102 -12 16 -37 66 -56 111 -18 45 -43 90 -54 100
-24 20 -60 22 -77 5z"/>
<path d="M865 2140 c-60 -10 -181 -34 -267 -54 -87 -20 -188 -40 -224 -45 -73
-11 -94 -23 -94 -56 0 -55 60 -64 209 -31 63 15 116 24 119 22 2 -3 1 -48 -3
-100 l-7 -96 -37 -6 c-20 -3 -79 -14 -133 -25 -53 -10 -115 -19 -139 -19 -66
0 -172 -21 -192 -38 -21 -18 -22 -55 -3 -72 21 -16 165 -5 339 26 77 14 140
24 142 22 8 -7 -18 -148 -29 -162 -7 -10 -50 -20 -119 -30 -116 -16 -137 -25
-137 -61 0 -47 36 -57 163 -41 87 10 87 24 8 -204 -66 -188 -142 -339 -273
-538 -62 -95 -62 -142 -1 -142 32 0 55 27 137 159 38 62 70 110 71 109 2 -2
12 -68 24 -148 38 -253 40 -264 58 -281 16 -16 31 -17 153 -9 291 18 310 25
310 113 0 29 9 101 20 160 10 59 21 165 24 235 10 200 -9 228 -147 217 -43 -3
-130 -19 -193 -35 -136 -35 -149 -37 -139 -12 49 113 125 347 125 385 0 23 25
32 150 52 133 22 204 41 219 59 14 17 40 152 41 212 l0 41 73 12 c84 14 117
32 117 65 0 40 -22 49 -105 41 l-75 -7 0 135 c0 96 -4 138 -13 145 -23 20 -62
20 -172 2z m75 -199 l0 -100 -52 -10 c-55 -11 -169 -31 -175 -31 -5 0 -3 70 3
141 l7 67 56 11 c31 6 65 12 76 15 11 2 35 4 53 5 l32 1 0 -99z m-11 -263 c-3
-114 2 -110 -134 -134 -66 -12 -123 -20 -126 -19 -7 5 16 153 25 162 6 6 181
40 219 42 14 1 17 -7 16 -51z m-53 -869 c-5 -111 -40 -356 -51 -368 -3 -2 -65
-6 -139 -9 l-134 -5 -7 49 c-3 27 -15 102 -26 166 -10 64 -19 142 -19 172 0
53 2 56 28 62 15 3 79 18 142 34 63 16 137 29 164 30 l49 0 -7 -131z"/>
<path d="M1895 1476 c-71 -13 -148 -28 -170 -34 -22 -6 -98 -19 -170 -28 -71
-8 -140 -22 -152 -30 -43 -27 -23 -85 29 -87 41 -1 292 34 343 49 28 7 108 23
178 33 71 11 135 25 143 32 18 15 18 53 1 68 -26 21 -72 20 -202 -3z"/>
</g>
</svg>
