<?xml version="1.0" standalone="no"?>
<!DOCTYPE svg PUBLIC "-//W3C//DTD SVG 20010904//EN"
 "http://www.w3.org/TR/2001/REC-SVG-20010904/DTD/svg10.dtd">
<svg version="1.0" xmlns="http://www.w3.org/2000/svg"
 width="248.000000pt" height="248.000000pt" viewBox="0 0 248.000000 248.000000"
 preserveAspectRatio="xMidYMid meet">
<metadata>
Created by potrace 1.10, written by Peter Selinger 2001-2011
</metadata>
<g transform="translate(0.000000,248.000000) scale(0.100000,-0.100000)"
fill="#000000" stroke="none">
<path d="M728 2383 c-8 -10 -19 -30 -25 -44 -12 -28 -135 -205 -201 -289 -23
-30 -62 -81 -86 -112 -24 -31 -66 -83 -94 -115 -126 -143 -231 -280 -232 -299
0 -11 9 -29 21 -40 19 -17 23 -17 47 -3 15 8 62 57 105 109 43 52 100 120 127
150 l49 55 -1 -355 c0 -195 -4 -564 -7 -820 -4 -310 -3 -473 4 -490 11 -28 48
-38 70 -20 31 26 35 122 40 973 l5 859 43 56 c96 127 177 242 201 289 19 38
21 84 4 101 -17 17 -53 15 -70 -5z"/>
</g>
</svg>
