<?xml version="1.0" standalone="no"?>
<!DOCTYPE svg PUBLIC "-//W3C//DTD SVG 20010904//EN"
 "http://www.w3.org/TR/2001/REC-SVG-20010904/DTD/svg10.dtd">
<svg version="1.0" xmlns="http://www.w3.org/2000/svg"
 width="248.000000pt" height="248.000000pt" viewBox="0 0 248.000000 248.000000"
 preserveAspectRatio="xMidYMid meet">
<metadata>
Created by potrace 1.10, written by Peter Selinger 2001-2011
</metadata>
<g transform="translate(0.000000,248.000000) scale(0.100000,-0.100000)"
fill="#000000" stroke="none">
<path d="M728 2383 c-8 -10 -19 -30 -25 -44 -12 -28 -135 -205 -201 -289 -23
-30 -62 -81 -86 -112 -24 -31 -66 -83 -94 -115 -126 -143 -231 -280 -232 -299
0 -11 9 -29 21 -40 19 -17 23 -17 47 -3 15 8 62 57 105 109 43 52 100 120 128
150 l50 55 -8 -810 c-3 -445 -6 -820 -6 -833 1 -31 21 -52 49 -52 31 0 51 32
58 95 3 28 8 432 11 898 l5 849 43 56 c96 127 177 242 201 289 19 38 21 84 4
101 -17 17 -53 15 -70 -5z"/>
<path d="M1700 2279 c-196 -21 -578 -70 -647 -85 -12 -2 -26 -12 -31 -22 -14
-26 -21 -802 -8 -843 18 -55 45 -61 188 -48 68 6 150 13 183 16 l60 5 -3 -76
c-2 -42 -7 -76 -11 -76 -4 0 -88 -9 -187 -19 -98 -11 -230 -23 -291 -27 -73
-4 -116 -11 -124 -20 -14 -18 -1 -805 15 -836 8 -16 20 -23 41 -23 56 0 57 11
50 411 l-6 361 88 6 c48 4 151 13 228 22 77 8 152 15 167 15 l27 0 3 -239 c3
-218 5 -241 22 -260 21 -23 56 -27 74 -9 9 9 12 82 12 265 l0 253 23 4 c46 9
258 26 416 32 l164 7 -7 -114 c-3 -63 -11 -217 -16 -344 -5 -126 -12 -245 -15
-262 l-6 -33 -29 34 c-34 38 -56 47 -88 35 -16 -6 -22 -16 -22 -40 0 -23 13
-46 55 -94 81 -92 145 -111 174 -51 23 49 70 861 53 921 -15 52 -36 57 -242
50 -102 -4 -212 -10 -245 -15 -33 -5 -95 -11 -137 -14 -88 -6 -86 -8 -80 90
l4 51 81 12 c45 7 147 14 226 16 83 2 148 8 155 15 5 5 14 79 18 163 4 83 12
231 17 327 14 228 14 373 0 403 -6 14 -22 30 -36 36 -27 13 -187 12 -313 0z
m250 -234 c0 -150 -2 -155 -73 -155 -19 0 -68 -6 -108 -14 -41 -8 -102 -17
-136 -19 l-63 -5 0 153 0 153 88 9 c48 6 133 11 190 12 l102 1 0 -135z m-490
-58 l0 -153 -77 -12 c-43 -6 -109 -14 -148 -17 -38 -4 -80 -9 -92 -12 l-23 -5
0 155 0 154 73 12 c148 24 183 29 225 30 l42 1 0 -153z m477 -269 c-4 -40 -9
-117 -13 -170 -4 -61 -11 -98 -18 -99 -43 -2 -242 -19 -289 -25 l-58 -7 3 164
3 164 45 2 c25 2 86 10 135 18 81 13 122 19 179 23 17 2 18 -4 13 -70z m-487
-146 l0 -158 -102 -12 c-57 -6 -134 -14 -172 -18 l-69 -6 7 148 c4 82 10 152
14 156 4 3 57 12 117 18 93 10 193 24 203 29 1 0 2 -70 2 -157z"/>
</g>
</svg>
