<?xml version="1.0" standalone="no"?>
<!DOCTYPE svg PUBLIC "-//W3C//DTD SVG 20010904//EN"
 "http://www.w3.org/TR/2001/REC-SVG-20010904/DTD/svg10.dtd">
<svg version="1.0" xmlns="http://www.w3.org/2000/svg"
 width="248.000000pt" height="248.000000pt" viewBox="0 0 248.000000 248.000000"
 preserveAspectRatio="xMidYMid meet">
<metadata>
Created by potrace 1.10, written by Peter Selinger 2001-2011
</metadata>
<g transform="translate(0.000000,248.000000) scale(0.100000,-0.100000)"
fill="#000000" stroke="none">
<path d="M728 2383 c-8 -10 -19 -30 -25 -44 -12 -28 -135 -205 -201 -289 -23
-30 -62 -81 -86 -112 -24 -31 -66 -83 -94 -115 -126 -143 -231 -280 -232 -299
0 -11 9 -29 21 -40 19 -17 23 -17 47 -3 15 8 62 57 105 109 43 52 100 120 128
150 l50 55 -8 -810 c-3 -445 -6 -820 -6 -833 1 -31 21 -52 49 -52 31 0 51 32
58 95 3 28 8 432 11 898 l5 849 43 56 c96 127 177 242 201 289 19 38 21 84 4
101 -17 17 -53 15 -70 -5z"/>
<path d="M1700 2279 c-196 -21 -578 -70 -647 -85 -12 -2 -26 -12 -31 -22 -14
-26 -21 -802 -8 -843 18 -55 45 -61 188 -49 626 57 698 62 744 56 73 -9 77 0
86 175 4 85 12 233 17 329 14 228 14 373 0 403 -6 14 -22 30 -36 36 -27 13
-187 12 -313 0z m250 -234 c0 -149 -3 -155 -71 -155 -18 0 -71 -6 -118 -14
-128 -22 -394 -58 -491 -67 -47 -5 -100 -11 -117 -14 l-33 -6 0 154 0 154 68
11 c199 34 521 69 660 71 l102 1 0 -135z m-13 -327 c-4 -40 -9 -117 -13 -170
-4 -61 -11 -98 -18 -99 -72 -4 -454 -37 -561 -49 -49 -5 -123 -12 -164 -15
l-74 -7 7 148 c4 81 9 150 11 154 3 4 35 10 72 14 38 3 147 17 243 31 196 27
328 45 410 55 102 13 94 19 87 -62z"/>
</g>
</svg>
