<?xml version="1.0" standalone="no"?>
<!DOCTYPE svg PUBLIC "-//W3C//DTD SVG 20010904//EN"
 "http://www.w3.org/TR/2001/REC-SVG-20010904/DTD/svg10.dtd">
<svg version="1.0" xmlns="http://www.w3.org/2000/svg"
 width="248.000000pt" height="248.000000pt" viewBox="0 0 248.000000 248.000000"
 preserveAspectRatio="xMidYMid meet">
<metadata>
Created by potrace 1.10, written by Peter Selinger 2001-2011
</metadata>
<g transform="translate(0.000000,248.000000) scale(0.100000,-0.100000)"
fill="#000000" stroke="none">
<path d="M595 2274 c-242 -37 -298 -48 -316 -63 -20 -16 -20 -29 -18 -641 1
-344 3 -810 3 -1036 1 -446 2 -448 55 -442 57 7 55 -27 56 1053 l0 990 45 7
c133 21 263 38 266 35 2 -1 -24 -38 -58 -82 -93 -120 -118 -166 -118 -213 0
-35 6 -47 39 -77 64 -59 142 -242 170 -399 21 -113 5 -298 -24 -287 -6 2 -30
29 -55 60 -47 57 -79 73 -106 51 -21 -18 -17 -63 8 -96 38 -51 112 -125 140
-140 33 -17 72 -18 86 -1 5 6 20 41 31 77 64 194 50 329 -66 635 -27 71 -49
109 -85 151 l-31 36 18 31 c10 18 46 68 80 112 115 148 144 212 113 243 -16
16 -117 14 -233 -4z"/>
</g>
</svg>
