<?xml version="1.0" standalone="no"?>
<!DOCTYPE svg PUBLIC "-//W3C//DTD SVG 20010904//EN"
 "http://www.w3.org/TR/2001/REC-SVG-20010904/DTD/svg10.dtd">
<svg version="1.0" xmlns="http://www.w3.org/2000/svg"
 width="248.000000pt" height="248.000000pt" viewBox="0 0 248.000000 248.000000"
 preserveAspectRatio="xMidYMid meet">
<metadata>
Created by potrace 1.10, written by Peter Selinger 2001-2011
</metadata>
<g transform="translate(0.000000,248.000000) scale(0.100000,-0.100000)"
fill="#000000" stroke="none">
<path d="M755 2293 c-169 -16 -446 -62 -472 -79 -30 -19 -30 -59 0 -79 21 -13
32 -13 103 0 107 19 296 46 300 42 2 -1 -24 -38 -58 -82 -117 -151 -139 -203
-97 -225 33 -18 64 -4 95 42 16 24 56 79 90 123 82 107 124 177 124 207 0 38
-30 56 -85 51z"/>
</g>
</svg>
