<?xml version="1.0" standalone="no"?>
<!DOCTYPE svg PUBLIC "-//W3C//DTD SVG 20010904//EN"
 "http://www.w3.org/TR/2001/REC-SVG-20010904/DTD/svg10.dtd">
<svg version="1.0" xmlns="http://www.w3.org/2000/svg"
 width="248.000000pt" height="248.000000pt" viewBox="0 0 248.000000 248.000000"
 preserveAspectRatio="xMidYMid meet">
<metadata>
Created by potrace 1.10, written by Peter Selinger 2001-2011
</metadata>
<g transform="translate(0.000000,248.000000) scale(0.100000,-0.100000)"
fill="#000000" stroke="none">
<path d="M1770 2300 c-36 -4 -108 -10 -160 -14 -52 -4 -124 -11 -160 -16 -36
-5 -114 -12 -174 -16 -83 -5 -113 -11 -126 -24 -37 -37 -41 -671 -6 -725 20
-31 59 -33 79 -5 11 17 13 48 9 154 l-5 133 114 11 c175 17 386 41 469 51 41
6 100 11 130 11 l55 0 -9 -128 c-10 -152 -1 -187 49 -187 21 0 33 7 41 23 15
30 29 274 29 509 0 241 9 227 -153 230 -64 0 -146 -2 -182 -7z m230 -213 l0
-113 -122 -13 c-68 -7 -179 -19 -248 -26 -69 -8 -172 -19 -230 -24 -58 -6
-120 -13 -137 -16 l-33 -4 0 72 c0 40 3 96 6 125 6 43 11 53 28 56 35 7 324
35 426 42 52 4 97 8 99 10 2 2 51 4 108 4 l103 0 0 -113z"/>
<path d="M595 2274 c-242 -37 -298 -48 -316 -63 -20 -16 -20 -29 -18 -641 1
-344 3 -810 3 -1036 1 -446 2 -448 55 -442 57 7 55 -27 56 1053 l0 990 45 7
c133 21 263 38 266 35 2 -1 -24 -38 -58 -82 -93 -120 -118 -166 -118 -213 0
-35 6 -47 39 -77 64 -59 142 -242 170 -399 21 -113 5 -298 -24 -287 -6 2 -30
29 -55 60 -47 57 -79 73 -106 51 -21 -18 -17 -63 8 -96 38 -51 112 -125 140
-140 33 -17 72 -18 86 -1 5 6 20 41 31 77 64 194 50 329 -66 635 -27 71 -49
109 -85 151 l-31 36 18 31 c10 18 46 68 80 112 115 148 144 212 113 243 -16
16 -117 14 -233 -4z"/>
</g>
</svg>
