<?xml version="1.0" standalone="no"?>
<!DOCTYPE svg PUBLIC "-//W3C//DTD SVG 20010904//EN"
 "http://www.w3.org/TR/2001/REC-SVG-20010904/DTD/svg10.dtd">
<svg version="1.0" xmlns="http://www.w3.org/2000/svg"
 width="248.000000pt" height="248.000000pt" viewBox="0 0 248.000000 248.000000"
 preserveAspectRatio="xMidYMid meet">
<metadata>
Created by potrace 1.10, written by Peter Selinger 2001-2011
</metadata>
<g transform="translate(0.000000,248.000000) scale(0.100000,-0.100000)"
fill="#000000" stroke="none">
<path d="M1790 2247 c-3 -3 -109 -17 -235 -32 -127 -14 -237 -28 -245 -30 -9
-3 -28 -31 -43 -63 -36 -78 -175 -267 -294 -403 -53 -59 -65 -93 -41 -117 19
-19 54 -14 87 13 46 39 247 301 312 407 46 76 23 67 239 88 63 7 134 15 158
20 23 4 42 4 42 -1 0 -10 -79 -163 -129 -249 -17 -30 -54 -86 -82 -125 -89
-123 -83 -112 -65 -140 23 -34 56 -32 93 8 97 102 305 478 305 551 0 21 -6 45
-14 52 -15 15 -79 30 -88 21z"/>
<path d="M362 2128 c-23 -23 -12 -58 32 -106 24 -26 64 -78 89 -117 72 -110
77 -115 100 -115 55 0 61 48 15 129 -95 167 -192 253 -236 209z"/>
<path d="M930 1505 c-13 -16 -11 -34 15 -130 10 -39 20 -154 29 -332 11 -220
17 -278 30 -298 28 -42 86 -28 88 22 1 10 -2 110 -6 223 -7 196 -24 359 -46
440 -20 75 -77 114 -110 75z"/>
<path d="M202 1488 c-24 -24 -13 -56 31 -90 23 -18 76 -65 118 -105 81 -76
107 -84 130 -41 16 29 -3 66 -64 125 -112 109 -181 145 -215 111z"/>
<path d="M497 672 c-138 -159 -317 -426 -317 -472 0 -58 55 -68 94 -17 13 17
46 66 73 109 81 128 153 228 207 287 93 102 115 148 84 179 -29 29 -55 12
-141 -86z"/>
</g>
</svg>
