<?xml version="1.0" standalone="no"?>
<!DOCTYPE svg PUBLIC "-//W3C//DTD SVG 20010904//EN"
 "http://www.w3.org/TR/2001/REC-SVG-20010904/DTD/svg10.dtd">
<svg version="1.0" xmlns="http://www.w3.org/2000/svg"
 width="248.000000pt" height="248.000000pt" viewBox="0 0 248.000000 248.000000"
 preserveAspectRatio="xMidYMid meet">
<metadata>
Created by potrace 1.10, written by Peter Selinger 2001-2011
</metadata>
<g transform="translate(0.000000,248.000000) scale(0.100000,-0.100000)"
fill="#000000" stroke="none">
<path d="M362 2128 c-23 -23 -12 -58 32 -106 24 -26 64 -78 89 -117 72 -110
77 -115 100 -115 55 0 61 48 15 129 -95 167 -192 253 -236 209z"/>
<path d="M202 1488 c-24 -24 -13 -56 31 -90 23 -18 76 -65 118 -105 81 -76
107 -84 130 -41 16 29 -3 66 -64 125 -112 109 -181 145 -215 111z"/>
</g>
</svg>
