<?xml version="1.0" standalone="no"?>
<!DOCTYPE svg PUBLIC "-//W3C//DTD SVG 20010904//EN"
 "http://www.w3.org/TR/2001/REC-SVG-20010904/DTD/svg10.dtd">
<svg version="1.0" xmlns="http://www.w3.org/2000/svg"
 width="248.000000pt" height="248.000000pt" viewBox="0 0 248.000000 248.000000"
 preserveAspectRatio="xMidYMid meet">
<metadata>
Created by potrace 1.10, written by Peter Selinger 2001-2011
</metadata>
<g transform="translate(0.000000,248.000000) scale(0.100000,-0.100000)"
fill="#000000" stroke="none">
<path d="M1878 2185 c-5 -5 -32 -8 -358 -44 -102 -11 -241 -27 -310 -35 -69
-9 -183 -23 -255 -31 -71 -9 -194 -19 -272 -24 -153 -8 -176 -16 -171 -60 5
-44 38 -53 178 -46 69 3 170 12 225 19 55 8 132 17 172 20 39 3 78 9 87 12 14
5 16 -13 16 -162 0 -93 -3 -260 -7 -370 l-6 -201 -86 -6 c-47 -4 -124 -14
-171 -22 -47 -8 -117 -15 -155 -15 -75 0 -95 -9 -95 -45 0 -61 77 -75 250 -46
69 12 154 21 190 21 l65 0 -3 -407 c-2 -449 -1 -458 53 -458 54 0 55 9 55 467
l0 417 43 5 c185 23 249 32 454 62 39 6 63 28 63 58 0 54 -28 55 -310 12 -52
-8 -128 -17 -168 -21 l-73 -7 7 363 c4 200 8 366 10 368 2 2 82 12 176 22 380
40 439 49 465 71 20 16 16 66 -6 78 -21 11 -54 13 -63 5z"/>
</g>
</svg>
