<?xml version="1.0" standalone="no"?>
<!DOCTYPE svg PUBLIC "-//W3C//DTD SVG 20010904//EN"
 "http://www.w3.org/TR/2001/REC-SVG-20010904/DTD/svg10.dtd">
<svg version="1.0" xmlns="http://www.w3.org/2000/svg"
 width="248.000000pt" height="248.000000pt" viewBox="0 0 248.000000 248.000000"
 preserveAspectRatio="xMidYMid meet">
<metadata>
Created by potrace 1.10, written by Peter Selinger 2001-2011
</metadata>
<g transform="translate(0.000000,248.000000) scale(0.100000,-0.100000)"
fill="#000000" stroke="none">
<path d="M1350 2365 c-15 -19 -27 -159 -35 -425 -3 -118 -8 -224 -10 -236 -4
-19 -14 -22 -102 -27 -53 -4 -99 -4 -102 -1 -7 7 -8 229 -1 462 4 163 3 175
-15 188 -24 18 -36 18 -60 0 -21 -15 -20 -5 -24 -401 -2 -104 -6 -208 -9 -230
l-7 -40 -180 -22 c-317 -38 -406 -54 -426 -74 -22 -22 -24 -39 -6 -63 17 -23
39 -23 162 -2 218 36 289 44 303 31 7 -6 17 -40 23 -76 13 -85 38 -181 51
-196 6 -7 23 -13 39 -13 47 0 54 31 31 126 -25 98 -37 184 -25 184 4 0 35 4
68 10 33 5 182 16 330 25 149 9 344 22 435 30 91 8 197 15 235 15 42 0 76 5
83 12 16 16 15 53 -2 67 -19 16 -267 12 -498 -7 -97 -8 -184 -12 -193 -8 -15
5 -16 19 -11 114 4 59 9 139 11 177 16 265 17 366 5 380 -16 19 -54 19 -70 0z"/>
<path d="M1822 2138 c-55 -68 -123 -145 -151 -173 -51 -49 -62 -80 -39 -103
39 -39 113 17 253 192 105 130 122 165 93 194 -30 30 -55 13 -156 -110z"/>
<path d="M482 2098 c-14 -14 -16 -60 -3 -73 5 -6 23 -46 40 -90 16 -44 43
-111 59 -150 27 -66 31 -70 64 -73 29 -3 36 1 46 24 11 22 9 34 -14 83 -14 31
-41 98 -60 150 -19 52 -41 105 -49 118 -17 25 -62 32 -83 11z"/>
</g>
</svg>
