<?xml version="1.0" standalone="no"?>
<!DOCTYPE svg PUBLIC "-//W3C//DTD SVG 20010904//EN"
 "http://www.w3.org/TR/2001/REC-SVG-20010904/DTD/svg10.dtd">
<svg version="1.0" xmlns="http://www.w3.org/2000/svg"
 width="248.000000pt" height="248.000000pt" viewBox="0 0 248.000000 248.000000"
 preserveAspectRatio="xMidYMid meet">
<metadata>
Created by potrace 1.10, written by Peter Selinger 2001-2011
</metadata>
<g transform="translate(0.000000,248.000000) scale(0.100000,-0.100000)"
fill="#000000" stroke="none">
<path d="M1350 2365 c-15 -19 -27 -159 -35 -425 -3 -118 -8 -224 -10 -236 -4
-19 -14 -22 -102 -27 -53 -4 -99 -4 -102 -1 -7 7 -8 229 -1 462 4 163 3 175
-15 188 -24 18 -36 18 -60 0 -21 -15 -20 -5 -24 -401 -2 -104 -6 -208 -9 -230
l-7 -40 -180 -22 c-317 -38 -406 -54 -426 -74 -22 -22 -24 -39 -6 -63 17 -23
39 -23 162 -2 215 36 289 44 302 32 7 -6 19 -47 27 -91 8 -44 18 -95 21 -112
l7 -33 -66 0 c-58 0 -70 -3 -92 -25 -20 -20 -23 -29 -14 -45 14 -27 45 -42 72
-35 13 3 124 14 248 25 124 11 279 27 345 35 66 8 160 19 209 24 96 11 116 21
116 56 0 41 -22 49 -121 42 l-91 -7 18 28 c23 34 64 104 98 164 21 38 33 48
59 52 59 9 287 26 355 26 40 0 73 5 80 12 16 16 15 53 -2 67 -19 16 -267 12
-498 -7 -97 -8 -184 -12 -193 -8 -15 5 -16 19 -11 114 4 59 9 139 11 177 16
265 17 366 5 380 -16 19 -54 19 -70 0z m160 -786 c0 -16 -133 -228 -147 -233
-22 -9 -341 -39 -355 -33 -16 6 -41 95 -53 183 l-6 51 32 7 c18 3 84 11 148
16 242 21 381 24 381 9z"/>
<path d="M1822 2138 c-55 -68 -123 -145 -151 -173 -51 -49 -62 -80 -39 -103
39 -39 113 17 253 192 105 130 122 165 93 194 -30 30 -55 13 -156 -110z"/>
<path d="M482 2098 c-14 -14 -16 -60 -3 -73 5 -6 23 -46 40 -90 16 -44 43
-111 59 -150 27 -66 31 -70 64 -73 29 -3 36 1 46 24 11 22 9 34 -14 83 -14 31
-41 98 -60 150 -19 52 -41 105 -49 118 -17 25 -62 32 -83 11z"/>
<path d="M1539 1076 c-4 -5 -107 -18 -384 -51 -66 -8 -167 -17 -225 -20 -120
-7 -154 -19 -158 -56 -6 -52 9 -54 236 -36 407 34 556 54 599 83 25 16 30 53
11 72 -11 11 -70 17 -79 8z"/>
</g>
</svg>
