<?xml version="1.0" standalone="no"?>
<!DOCTYPE svg PUBLIC "-//W3C//DTD SVG 20010904//EN"
 "http://www.w3.org/TR/2001/REC-SVG-20010904/DTD/svg10.dtd">
<svg version="1.0" xmlns="http://www.w3.org/2000/svg"
 width="248.000000pt" height="248.000000pt" viewBox="0 0 248.000000 248.000000"
 preserveAspectRatio="xMidYMid meet">
<metadata>
Created by potrace 1.10, written by Peter Selinger 2001-2011
</metadata>
<g transform="translate(0.000000,248.000000) scale(0.100000,-0.100000)"
fill="#000000" stroke="none">
<path d="M1350 2365 c-15 -19 -27 -159 -35 -425 -3 -118 -8 -224 -10 -236 -4
-19 -14 -22 -102 -27 -53 -4 -99 -4 -102 -1 -7 7 -8 229 -1 462 4 163 3 175
-15 188 -24 18 -36 18 -60 0 -21 -15 -20 -5 -24 -401 -2 -104 -6 -208 -9 -230
l-7 -40 -180 -22 c-317 -38 -406 -54 -426 -74 -22 -22 -24 -39 -6 -63 17 -23
39 -23 162 -2 215 36 289 44 302 32 7 -6 19 -47 27 -91 8 -44 18 -95 21 -112
l7 -33 -66 0 c-58 0 -70 -3 -92 -25 -20 -20 -23 -29 -14 -45 15 -28 44 -41 77
-35 15 3 96 12 178 19 113 11 152 11 157 3 11 -16 10 -159 -1 -175 -6 -10 -53
-17 -157 -23 -164 -11 -197 -21 -202 -60 -6 -50 13 -54 189 -40 87 7 163 9
169 6 5 -3 9 -47 8 -101 -1 -109 10 -99 -128 -109 -97 -6 -394 -52 -426 -65
-33 -13 -37 -48 -9 -76 13 -13 30 -22 37 -19 7 3 42 9 78 14 36 6 106 17 155
25 50 8 119 17 155 21 l65 7 -25 -28 c-145 -169 -339 -330 -453 -376 -38 -15
-75 -28 -81 -28 -24 0 -49 -38 -42 -64 12 -46 71 -44 188 8 108 48 351 247
435 357 20 27 41 49 45 49 5 0 7 -108 5 -240 -2 -154 0 -243 7 -250 15 -15 62
-12 76 4 8 11 11 80 11 242 0 125 2 231 5 235 3 5 35 -12 72 -38 121 -84 136
-95 192 -124 30 -17 80 -45 110 -62 88 -52 355 -153 455 -171 50 -9 109 -21
132 -26 93 -22 138 -7 131 42 -3 25 -34 44 -88 53 -155 27 -263 55 -370 97
-120 46 -276 120 -323 153 -12 8 -65 43 -117 77 -52 34 -107 71 -121 83 l-26
22 131 13 c72 7 214 14 315 16 165 1 186 4 198 20 17 23 16 35 -1 60 -13 18
-26 19 -203 17 -103 -2 -249 -8 -324 -14 -75 -7 -143 -10 -151 -6 -12 4 -16
24 -17 81 -2 125 -5 122 102 131 128 9 244 31 273 50 27 18 32 56 9 75 -11 9
-30 10 -63 6 -151 -23 -251 -35 -284 -36 l-37 0 0 83 c0 46 3 88 7 94 6 10 93
22 356 52 96 11 116 21 116 56 0 41 -22 49 -121 42 l-91 -7 18 28 c23 34 64
104 98 164 21 38 33 48 59 52 59 9 287 26 355 26 40 0 73 5 80 12 16 16 15 53
-2 67 -19 16 -267 12 -498 -7 -97 -8 -184 -12 -193 -8 -15 5 -16 19 -11 114 4
59 9 139 11 177 16 265 17 366 5 380 -16 19 -54 19 -70 0z m160 -786 c0 -16
-133 -228 -147 -233 -22 -9 -341 -39 -355 -33 -16 6 -41 95 -53 183 l-6 51 32
7 c18 3 84 11 148 16 242 21 381 24 381 9z"/>
<path d="M1822 2138 c-55 -68 -123 -145 -151 -173 -51 -49 -62 -80 -39 -103
39 -39 113 17 253 192 105 130 122 165 93 194 -30 30 -55 13 -156 -110z"/>
<path d="M482 2098 c-14 -14 -16 -60 -3 -73 5 -6 23 -46 40 -90 16 -44 43
-111 59 -150 27 -66 31 -70 64 -73 29 -3 36 1 46 24 11 22 9 34 -14 83 -14 31
-41 98 -60 150 -19 52 -41 105 -49 118 -17 25 -62 32 -83 11z"/>
</g>
</svg>
