<?xml version="1.0" standalone="no"?>
<!DOCTYPE svg PUBLIC "-//W3C//DTD SVG 20010904//EN"
 "http://www.w3.org/TR/2001/REC-SVG-20010904/DTD/svg10.dtd">
<svg version="1.0" xmlns="http://www.w3.org/2000/svg"
 width="248.000000pt" height="248.000000pt" viewBox="0 0 248.000000 248.000000"
 preserveAspectRatio="xMidYMid meet">
<metadata>
Created by potrace 1.10, written by Peter Selinger 2001-2011
</metadata>
<g transform="translate(0.000000,248.000000) scale(0.100000,-0.100000)"
fill="#000000" stroke="none">
<path d="M772 2187 c-6 -7 -17 -42 -26 -78 -15 -67 -82 -232 -141 -349 -38
-75 -97 -158 -178 -248 -32 -34 -57 -67 -57 -72 0 -16 39 -50 57 -50 26 0 142
125 206 222 60 90 152 282 192 402 27 80 32 155 13 174 -16 16 -53 15 -66 -1z"/>
</g>
</svg>
