<?xml version="1.0" standalone="no"?>
<!DOCTYPE svg PUBLIC "-//W3C//DTD SVG 20010904//EN"
 "http://www.w3.org/TR/2001/REC-SVG-20010904/DTD/svg10.dtd">
<svg version="1.0" xmlns="http://www.w3.org/2000/svg"
 width="248.000000pt" height="248.000000pt" viewBox="0 0 248.000000 248.000000"
 preserveAspectRatio="xMidYMid meet">
<metadata>
Created by potrace 1.10, written by Peter Selinger 2001-2011
</metadata>
<g transform="translate(0.000000,248.000000) scale(0.100000,-0.100000)"
fill="#000000" stroke="none">
<path d="M1238 2224 c-129 -123 -264 -224 -300 -224 -37 0 -49 -41 -43 -136 4
-49 2 -152 -4 -229 -6 -77 -16 -212 -21 -300 -15 -247 -30 -408 -51 -545 -39
-252 -67 -344 -141 -463 -26 -43 -51 -89 -54 -101 -7 -29 18 -56 52 -56 20 0
35 17 80 85 81 125 112 211 150 420 34 188 48 320 69 635 8 124 20 284 25 355
6 72 7 155 4 185 l-6 55 49 29 c85 53 163 116 279 231 115 113 133 142 102
173 -30 30 -58 12 -190 -114z"/>
<path d="M392 2168 c-30 -30 -13 -56 94 -143 108 -87 138 -99 168 -69 33 32
19 54 -96 145 -100 80 -138 95 -166 67z"/>
<path d="M1578 2068 c-74 -94 -195 -195 -285 -239 -24 -11 -45 -24 -48 -29 -3
-4 -7 -178 -10 -387 -2 -208 -9 -416 -15 -463 -5 -47 -10 -228 -10 -403 l0
-318 24 -24 c29 -29 60 -24 75 13 6 16 12 179 15 407 5 305 18 724 25 744 5
15 196 -258 342 -489 44 -70 183 -296 215 -351 106 -179 229 -309 354 -373 91
-47 139 -57 160 -32 28 35 8 59 -90 110 -144 74 -237 180 -394 446 -81 139
-179 294 -281 449 -50 75 -94 141 -98 147 -4 7 2 10 19 6 39 -7 104 44 337
267 91 86 127 157 95 189 -28 28 -56 13 -119 -63 -34 -41 -65 -75 -69 -75 -4
0 -52 -42 -107 -92 -55 -51 -116 -105 -136 -120 -21 -17 -37 -38 -39 -54 -3
-24 -7 -21 -53 38 -52 65 -90 83 -121 57 -12 -10 -14 7 -14 119 0 71 -2 142
-5 158 -5 27 1 33 66 74 105 67 181 136 249 224 60 79 74 118 48 144 -30 30
-57 13 -130 -80z"/>
<path d="M133 1499 c-18 -19 -16 -53 5 -71 20 -17 274 -118 297 -118 44 0 69
42 47 77 -11 17 -256 114 -301 120 -22 3 -41 0 -48 -8z"/>
<path d="M378 513 c-8 -10 -36 -54 -63 -98 -27 -44 -72 -114 -102 -157 -29
-42 -53 -87 -53 -100 0 -53 51 -64 92 -20 34 36 112 153 196 293 25 41 28 69
10 87 -18 18 -63 15 -80 -5z"/>
</g>
</svg>
