<?xml version="1.0" standalone="no"?>
<!DOCTYPE svg PUBLIC "-//W3C//DTD SVG 20010904//EN"
 "http://www.w3.org/TR/2001/REC-SVG-20010904/DTD/svg10.dtd">
<svg version="1.0" xmlns="http://www.w3.org/2000/svg"
 width="248.000000pt" height="248.000000pt" viewBox="0 0 248.000000 248.000000"
 preserveAspectRatio="xMidYMid meet">
<metadata>
Created by potrace 1.10, written by Peter Selinger 2001-2011
</metadata>
<g transform="translate(0.000000,248.000000) scale(0.100000,-0.100000)"
fill="#000000" stroke="none">
<path d="M392 2168 c-30 -30 -13 -56 94 -143 108 -87 138 -99 168 -69 33 32
19 54 -96 145 -100 80 -138 95 -166 67z"/>
<path d="M133 1499 c-18 -19 -16 -53 5 -71 20 -17 274 -118 297 -118 44 0 69
42 47 77 -11 17 -256 114 -301 120 -22 3 -41 0 -48 -8z"/>
<path d="M378 513 c-8 -10 -36 -54 -63 -98 -27 -44 -72 -114 -102 -157 -29
-42 -53 -87 -53 -100 0 -53 51 -64 92 -20 34 36 112 153 196 293 25 41 28 69
10 87 -18 18 -63 15 -80 -5z"/>
</g>
</svg>
