<?xml version="1.0" standalone="no"?>
<!DOCTYPE svg PUBLIC "-//W3C//DTD SVG 20010904//EN"
 "http://www.w3.org/TR/2001/REC-SVG-20010904/DTD/svg10.dtd">
<svg version="1.0" xmlns="http://www.w3.org/2000/svg"
 width="248.000000pt" height="248.000000pt" viewBox="0 0 248.000000 248.000000"
 preserveAspectRatio="xMidYMid meet">
<metadata>
Created by potrace 1.10, written by Peter Selinger 2001-2011
</metadata>
<g transform="translate(0.000000,248.000000) scale(0.100000,-0.100000)"
fill="#000000" stroke="none">
<path d="M1678 2341 c-12 -17 -14 -51 -10 -170 3 -86 1 -151 -5 -154 -15 -9
-233 -40 -297 -42 -66 -1 -91 -21 -82 -65 3 -14 9 -115 12 -225 7 -202 -1
-325 -31 -485 -8 -41 -21 -129 -31 -195 -16 -119 -99 -494 -129 -580 -26 -79
-64 -162 -90 -201 -40 -59 -30 -114 21 -114 42 0 98 93 160 262 38 103 120
466 144 633 12 83 22 154 24 160 1 5 29 -27 61 -70 33 -44 76 -101 97 -126 21
-25 54 -75 74 -110 19 -35 54 -88 76 -117 l41 -53 -16 -40 c-30 -76 -132 -214
-249 -336 -87 -90 -118 -128 -118 -147 0 -30 31 -50 65 -42 49 12 283 279 359
409 15 27 31 47 36 45 8 -3 38 -40 142 -173 76 -98 164 -199 243 -277 96 -95
169 -122 200 -74 22 33 11 51 -50 85 -30 17 -78 59 -111 97 -33 37 -84 96
-114 130 -59 67 -162 196 -222 277 l-37 50 24 46 c97 190 218 542 219 635 1
77 11 76 -266 41 l-38 -5 0 260 c0 143 3 260 8 260 4 0 50 7 102 14 135 21
240 30 240 21 0 -11 -69 -94 -147 -177 -73 -78 -87 -110 -61 -136 7 -7 24 -12
38 -12 31 0 130 98 238 236 85 108 97 135 80 172 -12 25 -18 27 -87 30 -40 2
-139 -6 -220 -18 -211 -29 -187 -42 -193 109 -4 78 -11 140 -19 157 -18 37
-61 44 -81 15z m-10 -688 l-3 -256 -100 -23 c-55 -13 -117 -24 -138 -24 -36 0
-37 1 -30 28 5 15 8 132 7 260 -1 162 2 232 10 233 6 0 63 9 126 19 63 10 118
18 123 19 4 0 6 -115 5 -256z m302 -335 c0 -46 -182 -528 -199 -528 -8 1 -44
52 -89 127 -20 35 -58 91 -85 125 -126 166 -145 193 -139 199 8 7 200 46 257
53 183 22 221 27 230 31 19 7 25 5 25 -7z"/>
<path d="M1050 1909 c-19 -5 -87 -18 -150 -29 -63 -11 -162 -29 -220 -40 -182
-34 -296 -50 -352 -50 -62 0 -98 -20 -98 -54 0 -56 66 -66 245 -37 72 12 147
24 168 27 l39 6 -15 -28 c-8 -16 -20 -47 -27 -69 -7 -22 -34 -83 -60 -135 -26
-52 -59 -126 -75 -165 -51 -129 -267 -458 -376 -572 -52 -55 -69 -80 -69 -101
0 -34 16 -52 46 -52 25 0 138 111 194 192 20 29 53 77 73 106 l36 52 5 -42
c11 -78 36 -406 36 -460 0 -72 16 -123 50 -161 l28 -32 114 1 c175 1 317 19
341 42 26 26 45 208 53 522 7 247 -1 337 -33 372 -27 30 -137 21 -373 -31 -52
-12 -96 -21 -98 -21 -2 0 5 15 16 33 11 17 32 61 47 97 14 36 48 110 75 165
27 55 61 132 75 170 15 39 33 86 40 105 11 29 19 36 52 42 203 36 322 62 341
74 24 16 29 53 10 72 -14 14 -86 14 -138 1z m-120 -966 c0 -174 -14 -442 -25
-514 l-6 -37 -97 -12 c-53 -6 -128 -10 -167 -8 l-70 3 -7 105 c-15 216 -39
468 -48 501 -6 19 -10 39 -10 44 0 11 338 86 418 94 9 1 12 -40 12 -176z"/>
</g>
</svg>
