<?xml version="1.0" standalone="no"?>
<!DOCTYPE svg PUBLIC "-//W3C//DTD SVG 20010904//EN"
 "http://www.w3.org/TR/2001/REC-SVG-20010904/DTD/svg10.dtd">
<svg version="1.0" xmlns="http://www.w3.org/2000/svg"
 width="248.000000pt" height="248.000000pt" viewBox="0 0 248.000000 248.000000"
 preserveAspectRatio="xMidYMid meet">
<metadata>
Created by potrace 1.10, written by Peter Selinger 2001-2011
</metadata>
<g transform="translate(0.000000,248.000000) scale(0.100000,-0.100000)"
fill="#000000" stroke="none">
<path d="M1050 1909 c-19 -5 -87 -18 -150 -29 -63 -11 -162 -29 -220 -40 -182
-34 -296 -50 -352 -50 -62 0 -98 -20 -98 -54 0 -56 66 -66 245 -37 72 12 147
24 168 27 l39 6 -15 -28 c-8 -16 -20 -47 -27 -69 -7 -22 -34 -83 -60 -135 -26
-52 -59 -126 -75 -165 -51 -129 -267 -458 -376 -572 -52 -55 -69 -80 -69 -101
0 -34 16 -52 46 -52 25 0 138 111 194 192 20 29 53 77 73 106 l36 52 5 -42 c6
-41 30 -348 39 -492 5 -77 28 -119 69 -124 47 -6 49 9 33 224 -23 298 -33 401
-50 482 l-15 73 39 67 c21 37 51 96 66 132 14 36 48 110 75 165 27 55 61 132
75 170 15 39 33 86 40 105 11 29 19 36 52 42 203 36 322 62 341 74 24 16 29
53 10 72 -14 14 -86 14 -138 1z"/>
</g>
</svg>
