<?xml version="1.0" standalone="no"?>
<!DOCTYPE svg PUBLIC "-//W3C//DTD SVG 20010904//EN"
 "http://www.w3.org/TR/2001/REC-SVG-20010904/DTD/svg10.dtd">
<svg version="1.0" xmlns="http://www.w3.org/2000/svg"
 width="248.000000pt" height="248.000000pt" viewBox="0 0 248.000000 248.000000"
 preserveAspectRatio="xMidYMid meet">
<metadata>
Created by potrace 1.10, written by Peter Selinger 2001-2011
</metadata>
<g transform="translate(0.000000,248.000000) scale(0.100000,-0.100000)"
fill="#000000" stroke="none">
<path d="M1345 2244 c-143 -7 -298 -17 -345 -23 -46 -6 -114 -11 -150 -11
-125 0 -138 -27 -121 -250 6 -74 16 -202 21 -285 12 -178 17 -186 101 -188
141 -4 826 16 841 24 24 13 35 62 48 214 37 417 37 420 26 455 -13 40 -55 65
-121 72 -22 2 -157 -2 -300 -8z m312 -102 c9 -6 10 -31 3 -102 -5 -52 -10 -98
-10 -102 0 -5 -73 -8 -162 -8 -90 -1 -269 -7 -398 -15 -129 -7 -238 -10 -242
-6 -5 4 -11 47 -14 97 l-7 90 119 13 c66 8 234 19 374 26 338 16 323 16 337 7z
m-17 -344 c0 -12 -5 -60 -11 -107 l-11 -86 -166 1 c-92 0 -261 -2 -377 -6
-115 -4 -211 -7 -212 -6 0 0 -4 46 -8 101 l-7 101 78 3 c44 2 129 6 189 10 61
5 203 9 318 9 207 2 207 2 207 -20z"/>
<path d="M1790 1299 c-96 -5 -245 -13 -330 -18 -85 -6 -238 -15 -340 -21 -524
-29 -750 -49 -778 -66 -29 -19 -29 -59 1 -79 20 -13 40 -14 133 -5 141 12 361
28 594 40 102 6 253 15 335 21 83 5 299 15 481 22 250 9 335 16 348 26 23 19
20 57 -6 75 -25 18 -128 19 -438 5z"/>
</g>
</svg>
