<?xml version="1.0" standalone="no"?>
<!DOCTYPE svg PUBLIC "-//W3C//DTD SVG 20010904//EN"
 "http://www.w3.org/TR/2001/REC-SVG-20010904/DTD/svg10.dtd">
<svg version="1.0" xmlns="http://www.w3.org/2000/svg"
 width="248.000000pt" height="248.000000pt" viewBox="0 0 248.000000 248.000000"
 preserveAspectRatio="xMidYMid meet">
<metadata>
Created by potrace 1.10, written by Peter Selinger 2001-2011
</metadata>
<g transform="translate(0.000000,248.000000) scale(0.100000,-0.100000)"
fill="#000000" stroke="none">
<path d="M1345 2244 c-143 -7 -298 -17 -345 -23 -46 -6 -114 -11 -150 -11
-125 0 -138 -27 -121 -250 6 -74 16 -202 21 -285 14 -204 -4 -190 246 -187
l195 3 -7 -113 c-4 -62 -7 -114 -8 -114 0 -1 -125 -9 -276 -18 -553 -34 -580
-38 -580 -91 0 -47 33 -57 161 -45 147 13 339 27 508 35 l133 7 -7 -23 c-18
-59 -49 -96 -234 -280 -180 -179 -291 -274 -454 -386 -65 -45 -83 -73 -67
-103 25 -48 81 -26 220 84 36 28 92 71 125 96 64 47 418 395 453 445 l21 30 1
-406 c0 -443 -1 -434 57 -427 51 6 53 18 53 458 l1 405 137 -140 c75 -77 175
-171 222 -208 47 -37 114 -92 150 -122 36 -30 121 -94 190 -141 69 -48 142
-100 162 -115 45 -35 73 -37 93 -5 27 41 4 68 -134 160 -69 46 -162 114 -206
150 -44 36 -118 96 -165 133 -47 37 -160 144 -253 238 l-167 170 112 8 c62 4
264 13 449 20 253 9 340 16 353 26 24 20 20 58 -9 77 -23 15 -51 16 -248 10
-122 -4 -292 -11 -377 -16 -85 -6 -190 -12 -232 -15 l-78 -4 0 68 c0 37 3 89
6 115 l7 47 183 -1 c115 -1 190 3 203 9 27 15 38 60 51 216 37 417 37 420 26
455 -13 40 -55 65 -121 72 -22 2 -157 -2 -300 -8z m312 -102 c9 -6 10 -31 3
-102 -5 -52 -10 -98 -10 -102 0 -5 -79 -8 -175 -8 l-175 0 0 100 c0 55 1 101
3 101 2 1 218 13 307 17 19 1 40 -2 47 -6z m-467 -117 c0 -102 -1 -105 -22
-105 -13 0 -88 -5 -168 -10 -80 -5 -148 -6 -152 -2 -5 5 -11 49 -14 98 l-7 90
134 13 c74 7 139 14 144 16 6 2 27 4 48 4 l37 1 0 -105z m450 -227 c0 -12 -5
-62 -11 -110 -9 -71 -15 -88 -26 -84 -8 4 -80 6 -159 6 l-144 0 0 105 0 105
170 0 c168 0 170 0 170 -22z m-450 -92 l0 -103 -162 -5 c-90 -3 -164 -5 -165
-4 0 0 -4 46 -8 102 l-7 100 98 3 c54 1 101 4 103 7 2 2 35 4 73 4 l68 0 0
-104z"/>
</g>
</svg>
