<?xml version="1.0" standalone="no"?>
<!DOCTYPE svg PUBLIC "-//W3C//DTD SVG 20010904//EN"
 "http://www.w3.org/TR/2001/REC-SVG-20010904/DTD/svg10.dtd">
<svg version="1.0" xmlns="http://www.w3.org/2000/svg"
 width="248.000000pt" height="248.000000pt" viewBox="0 0 248.000000 248.000000"
 preserveAspectRatio="xMidYMid meet">
<metadata>
Created by potrace 1.10, written by Peter Selinger 2001-2011
</metadata>
<g transform="translate(0.000000,248.000000) scale(0.100000,-0.100000)"
fill="#000000" stroke="none">
<path d="M945 2033 c-55 -8 -418 -82 -550 -113 -71 -16 -139 -30 -150 -30 -32
0 -65 -28 -65 -55 0 -49 70 -67 146 -38 16 6 16 -26 10 -568 -3 -316 -9 -604
-12 -641 -6 -67 -6 -67 -48 -87 -22 -10 -52 -22 -66 -26 -36 -10 -60 -35 -60
-60 0 -57 67 -62 167 -12 71 35 236 100 359 139 l71 23 -5 -177 c-4 -154 -2
-181 12 -203 21 -32 60 -33 79 -3 19 31 39 780 31 1138 -4 146 -4 340 1 431
l7 165 74 11 c41 6 81 16 89 23 22 18 18 57 -7 74 -23 16 -28 17 -83 9z m-188
-280 c-4 -75 -7 -167 -7 -204 l0 -68 -37 -11 c-157 -43 -257 -70 -259 -67 -1
1 -4 96 -5 211 l-3 210 54 13 c70 17 231 50 249 52 12 1 13 -22 8 -136z m-3
-460 c11 -134 8 -183 -10 -183 -19 0 -205 -65 -246 -86 -15 -8 -32 -14 -38
-14 -6 0 -10 50 -10 145 0 133 2 145 18 145 10 0 72 15 137 34 66 19 125 35
131 35 7 1 14 -30 18 -76z m5 -365 c-1 -46 -4 -121 -7 -167 l-7 -85 -110 -37
c-60 -20 -132 -46 -159 -58 l-49 -22 7 77 c3 42 6 116 6 164 l0 87 98 40 c106
44 203 81 215 82 4 1 7 -36 6 -81z"/>
<path d="M1042 1328 c-8 -8 -12 -47 -13 -107 0 -111 -7 -168 -43 -384 -25
-147 -26 -161 -11 -183 17 -27 56 -32 74 -10 6 7 22 78 36 157 13 79 29 170
35 202 6 32 12 108 13 170 2 93 -1 117 -16 140 -19 29 -54 36 -75 15z"/>
</g>
</svg>
