<?xml version="1.0" standalone="no"?>
<!DOCTYPE svg PUBLIC "-//W3C//DTD SVG 20010904//EN"
 "http://www.w3.org/TR/2001/REC-SVG-20010904/DTD/svg10.dtd">
<svg version="1.0" xmlns="http://www.w3.org/2000/svg"
 width="248.000000pt" height="248.000000pt" viewBox="0 0 248.000000 248.000000"
 preserveAspectRatio="xMidYMid meet">
<metadata>
Created by potrace 1.10, written by Peter Selinger 2001-2011
</metadata>
<g transform="translate(0.000000,248.000000) scale(0.100000,-0.100000)"
fill="#000000" stroke="none">
<path d="M945 2033 c-55 -8 -418 -82 -550 -113 -71 -16 -139 -30 -150 -30 -32
0 -65 -28 -65 -55 0 -49 70 -67 144 -39 14 6 16 -34 16 -412 0 -231 -5 -517
-10 -637 -12 -249 -8 -270 47 -275 23 -2 34 2 42 15 15 30 32 558 30 963 l-2
374 54 13 c88 21 348 73 437 88 46 8 90 19 98 26 21 17 17 56 -8 73 -23 16
-28 17 -83 9z"/>
</g>
</svg>
