<?xml version="1.0" standalone="no"?>
<!DOCTYPE svg PUBLIC "-//W3C//DTD SVG 20010904//EN"
 "http://www.w3.org/TR/2001/REC-SVG-20010904/DTD/svg10.dtd">
<svg version="1.0" xmlns="http://www.w3.org/2000/svg"
 width="248.000000pt" height="248.000000pt" viewBox="0 0 248.000000 248.000000"
 preserveAspectRatio="xMidYMid meet">
<metadata>
Created by potrace 1.10, written by Peter Selinger 2001-2011
</metadata>
<g transform="translate(0.000000,248.000000) scale(0.100000,-0.100000)"
fill="#000000" stroke="none">
<path d="M945 2033 c-55 -8 -418 -82 -550 -113 -71 -16 -139 -30 -150 -30 -32
0 -65 -28 -65 -55 0 -49 70 -67 144 -39 14 6 16 -34 16 -412 0 -231 -5 -517
-10 -637 -12 -249 -8 -270 47 -275 23 -2 34 2 41 15 11 20 32 478 32 685 l0
123 73 18 c155 37 275 73 291 86 19 16 21 52 4 69 -23 23 -54 17 -292 -49 -38
-10 -71 -18 -72 -16 -1 1 -4 96 -5 211 l-3 210 54 13 c90 21 349 73 438 88 46
8 90 19 98 26 21 17 17 56 -8 73 -23 16 -28 17 -83 9z"/>
</g>
</svg>
