<?xml version="1.0" standalone="no"?>
<!DOCTYPE svg PUBLIC "-//W3C//DTD SVG 20010904//EN"
 "http://www.w3.org/TR/2001/REC-SVG-20010904/DTD/svg10.dtd">
<svg version="1.0" xmlns="http://www.w3.org/2000/svg"
 width="248.000000pt" height="248.000000pt" viewBox="0 0 248.000000 248.000000"
 preserveAspectRatio="xMidYMid meet">
<metadata>
Created by potrace 1.10, written by Peter Selinger 2001-2011
</metadata>
<g transform="translate(0.000000,248.000000) scale(0.100000,-0.100000)"
fill="#000000" stroke="none">
<path d="M945 2033 c-55 -8 -418 -82 -550 -113 -71 -16 -139 -30 -150 -30 -32
0 -65 -28 -65 -55 0 -49 70 -67 146 -38 16 6 16 -26 10 -568 -3 -316 -9 -604
-12 -641 -6 -67 -6 -67 -48 -87 -22 -10 -52 -22 -66 -26 -36 -10 -60 -35 -60
-60 0 -57 67 -62 167 -12 59 30 142 62 413 159 30 11 67 25 83 30 49 18 48 89
-1 96 -23 4 -242 -66 -331 -105 l-54 -24 6 77 c4 42 7 116 7 164 l0 87 78 33
c42 18 112 46 156 61 43 16 87 36 97 45 34 31 19 84 -24 84 -21 0 -205 -64
-249 -86 -15 -8 -32 -14 -38 -14 -6 0 -10 50 -10 143 l0 142 73 18 c155 37
275 73 291 86 19 16 21 52 4 69 -23 23 -54 17 -292 -49 -38 -10 -71 -18 -72
-16 -1 1 -4 96 -5 211 l-3 210 54 13 c90 21 349 73 438 88 46 8 90 19 98 26
21 17 17 56 -8 73 -23 16 -28 17 -83 9z"/>
</g>
</svg>
