<?xml version="1.0" standalone="no"?>
<!DOCTYPE svg PUBLIC "-//W3C//DTD SVG 20010904//EN"
 "http://www.w3.org/TR/2001/REC-SVG-20010904/DTD/svg10.dtd">
<svg version="1.0" xmlns="http://www.w3.org/2000/svg"
 width="248.000000pt" height="248.000000pt" viewBox="0 0 248.000000 248.000000"
 preserveAspectRatio="xMidYMid meet">
<metadata>
Created by potrace 1.10, written by Peter Selinger 2001-2011
</metadata>
<g transform="translate(0.000000,248.000000) scale(0.100000,-0.100000)"
fill="#000000" stroke="none">
<path d="M1214 2364 c-16 -23 -17 -55 -10 -343 l6 -318 -28 5 c-32 4 -62 -18
-62 -47 0 -9 26 -43 59 -75 48 -47 63 -57 87 -54 54 6 55 16 48 433 -7 410 -9
425 -59 425 -15 0 -31 -10 -41 -26z"/>
<path d="M820 2118 c-11 -12 -20 -25 -20 -28 0 -13 -261 -235 -344 -293 -44
-30 -29 -87 21 -87 39 0 82 28 212 139 193 165 221 195 221 241 0 51 -53 68
-90 28z"/>
</g>
</svg>
