<?xml version="1.0" standalone="no"?>
<!DOCTYPE svg PUBLIC "-//W3C//DTD SVG 20010904//EN"
 "http://www.w3.org/TR/2001/REC-SVG-20010904/DTD/svg10.dtd">
<svg version="1.0" xmlns="http://www.w3.org/2000/svg"
 width="248.000000pt" height="248.000000pt" viewBox="0 0 248.000000 248.000000"
 preserveAspectRatio="xMidYMid meet">
<metadata>
Created by potrace 1.10, written by Peter Selinger 2001-2011
</metadata>
<g transform="translate(0.000000,248.000000) scale(0.100000,-0.100000)"
fill="#000000" stroke="none">
<path d="M352 2277 c-7 -8 -12 -172 -15 -482 -3 -316 -9 -529 -20 -650 -27
-298 -81 -655 -128 -832 -32 -123 -35 -163 -17 -181 19 -19 56 -14 72 11 23
36 76 251 102 417 82 517 99 738 99 1271 0 396 -1 418 -19 438 -21 24 -58 28
-74 8z"/>
</g>
</svg>
