<?xml version="1.0" standalone="no"?>
<!DOCTYPE svg PUBLIC "-//W3C//DTD SVG 20010904//EN"
 "http://www.w3.org/TR/2001/REC-SVG-20010904/DTD/svg10.dtd">
<svg version="1.0" xmlns="http://www.w3.org/2000/svg"
 width="248.000000pt" height="248.000000pt" viewBox="0 0 248.000000 248.000000"
 preserveAspectRatio="xMidYMid meet">
<metadata>
Created by potrace 1.10, written by Peter Selinger 2001-2011
</metadata>
<g transform="translate(0.000000,248.000000) scale(0.100000,-0.100000)"
fill="#000000" stroke="none">
<path d="M1815 2373 c-22 -2 -85 -10 -140 -18 -145 -21 -273 -35 -331 -35 -95
0 -89 27 -90 -422 -1 -503 -16 -731 -70 -1083 -43 -281 -87 -495 -119 -578
-23 -58 -20 -95 9 -109 14 -6 32 -8 41 -4 48 18 107 257 181 726 49 320 79
818 68 1154 l-7 204 39 6 c21 3 82 11 134 16 52 6 120 15 150 20 30 5 77 11
103 13 40 4 47 2 43 -12 -12 -40 -28 -964 -24 -1441 3 -510 4 -526 24 -570 50
-106 114 -130 362 -137 l173 -4 29 30 c30 29 30 30 30 148 0 130 -11 163 -55
163 -41 0 -55 -34 -55 -137 l0 -92 -77 -3 c-94 -4 -210 6 -256 21 -65 22 -62
-18 -61 875 1 446 6 905 12 1020 6 114 8 214 5 221 -4 13 -58 37 -72 33 -3 -1
-24 -3 -46 -5z"/>
<path d="M840 2362 c-14 -1 -68 -11 -120 -22 -52 -10 -151 -24 -220 -30 -69
-6 -132 -15 -140 -19 -13 -7 -16 -75 -21 -482 -4 -309 -11 -539 -22 -659 -27
-302 -81 -658 -128 -837 -32 -123 -35 -163 -17 -181 19 -19 56 -14 72 10 37
58 109 413 148 730 9 72 16 99 28 103 32 10 258 45 328 52 l72 6 0 -154 c0
-85 3 -253 6 -374 5 -183 4 -218 -7 -207 -17 15 -61 16 -77 0 -24 -24 -12 -66
39 -142 53 -80 76 -99 112 -94 47 7 48 22 43 488 -4 239 -2 732 2 1095 7 590
6 680 -13 703 -6 8 -63 17 -85 14z m-10 -452 l-5 -345 -75 -17 c-41 -10 -113
-23 -160 -28 -47 -6 -97 -13 -112 -16 l-28 -6 0 351 c0 274 3 351 13 351 39 0
202 22 257 35 52 11 115 23 115 20 0 0 -2 -155 -5 -345z m0 -564 c0 -62 -3
-134 -6 -159 l-6 -45 -62 -7 c-33 -3 -86 -10 -116 -15 -116 -19 -186 -31 -204
-37 -18 -5 -18 0 -12 103 4 60 9 130 12 156 l6 47 51 10 c29 5 104 17 167 27
63 9 124 20 135 25 11 4 23 8 28 8 4 1 7 -50 7 -113z"/>
</g>
</svg>
