<?xml version="1.0" standalone="no"?>
<!DOCTYPE svg PUBLIC "-//W3C//DTD SVG 20010904//EN"
 "http://www.w3.org/TR/2001/REC-SVG-20010904/DTD/svg10.dtd">
<svg version="1.0" xmlns="http://www.w3.org/2000/svg"
 width="248.000000pt" height="248.000000pt" viewBox="0 0 248.000000 248.000000"
 preserveAspectRatio="xMidYMid meet">
<metadata>
Created by potrace 1.10, written by Peter Selinger 2001-2011
</metadata>
<g transform="translate(0.000000,248.000000) scale(0.100000,-0.100000)"
fill="#000000" stroke="none">
<path d="M840 2362 c-14 -1 -68 -11 -120 -22 -52 -10 -151 -24 -220 -30 -69
-6 -132 -15 -140 -19 -13 -7 -16 -75 -21 -482 -4 -309 -11 -539 -22 -659 -27
-302 -81 -658 -128 -837 -32 -123 -35 -163 -17 -181 19 -19 56 -14 72 10 23
37 76 252 102 418 78 495 96 713 101 1233 3 256 8 407 14 407 34 0 211 23 243
31 22 6 62 14 89 19 l49 7 -6 -56 c-4 -31 -8 -473 -9 -983 -1 -585 -6 -923
-12 -917 -13 13 -59 11 -73 -3 -24 -24 -12 -66 39 -142 53 -80 76 -99 112 -94
47 7 48 22 43 488 -4 239 -2 732 2 1095 7 590 6 680 -13 703 -6 8 -63 17 -85
14z"/>
</g>
</svg>
