<?xml version="1.0" standalone="no"?>
<!DOCTYPE svg PUBLIC "-//W3C//DTD SVG 20010904//EN"
 "http://www.w3.org/TR/2001/REC-SVG-20010904/DTD/svg10.dtd">
<svg version="1.0" xmlns="http://www.w3.org/2000/svg"
 width="248.000000pt" height="248.000000pt" viewBox="0 0 248.000000 248.000000"
 preserveAspectRatio="xMidYMid meet">
<metadata>
Created by potrace 1.10, written by Peter Selinger 2001-2011
</metadata>
<g transform="translate(0.000000,248.000000) scale(0.100000,-0.100000)"
fill="#000000" stroke="none">
<path d="M698 2293 c-9 -10 -32 -53 -51 -96 -32 -68 -76 -142 -226 -379 -38
-60 -53 -84 -147 -242 -32 -54 -87 -140 -121 -192 -62 -93 -74 -129 -51 -152
43 -43 98 16 234 246 27 45 61 101 76 125 15 23 37 60 49 81 12 22 40 69 64
105 131 203 156 243 177 285 12 25 24 46 27 46 4 0 19 -20 34 -44 15 -25 51
-73 79 -108 27 -35 62 -83 76 -108 47 -81 104 -154 196 -247 71 -73 97 -93
118 -93 32 0 53 30 43 61 -4 12 -28 42 -54 68 -88 86 -155 169 -241 301 -27
41 -72 104 -99 140 -28 36 -62 94 -77 130 -14 36 -30 71 -36 78 -15 18 -52 15
-70 -5z"/>
<path d="M2170 2219 c-36 -4 -114 -13 -175 -18 -60 -6 -168 -20 -240 -31 -71
-12 -184 -26 -250 -31 -72 -6 -129 -16 -142 -25 l-23 -14 -1 -448 c0 -246 -4
-658 -8 -917 -9 -514 -8 -520 44 -520 56 0 57 8 66 550 4 269 8 664 8 878 l1
387 43 0 c23 0 112 11 197 25 85 14 205 30 265 35 61 5 150 14 199 20 49 6 90
9 91 8 1 -2 5 -419 9 -927 5 -719 3 -922 -6 -913 -22 22 -67 14 -80 -13 -20
-44 36 -102 109 -112 53 -7 71 11 83 80 9 57 4 1897 -6 1944 -10 53 -41 60
-184 42z"/>
<path d="M2027 1882 c-10 -10 -17 -22 -17 -26 0 -20 -174 -358 -188 -364 -10
-5 -80 -23 -157 -41 -164 -39 -169 -41 -173 -70 -8 -50 53 -75 124 -51 16 5
57 16 92 24 l62 14 0 -248 0 -248 -65 -16 c-35 -9 -67 -16 -70 -16 -3 0 -5 69
-5 153 0 168 -8 200 -52 205 -51 6 -58 -21 -58 -228 0 -219 4 -233 68 -238 24
-2 66 3 95 11 29 8 95 20 147 27 157 20 244 39 258 58 10 13 12 67 10 233 -3
197 -5 219 -22 238 -21 23 -56 27 -74 9 -9 -9 -12 -69 -12 -209 0 -196 0 -197
-22 -203 -13 -3 -38 -6 -55 -6 l-33 0 0 255 c0 140 2 255 4 255 35 0 302 52
312 61 24 19 13 62 -19 77 -21 10 -40 11 -80 3 -102 -19 -129 -21 -124 -8 3 7
35 75 71 152 66 139 77 180 54 203 -18 18 -53 15 -71 -6z"/>
<path d="M1542 1788 c-7 -7 -12 -20 -12 -30 0 -18 84 -178 122 -230 31 -44 98
-34 98 13 0 23 -115 230 -137 247 -21 15 -55 16 -71 0z"/>
<path d="M785 1649 c-55 -11 -142 -26 -194 -34 -101 -16 -121 -25 -121 -60 0
-45 50 -60 148 -42 l42 7 0 -114 0 -113 -77 -12 c-43 -7 -112 -17 -153 -22
-95 -13 -124 -27 -128 -61 -2 -20 4 -31 22 -44 25 -15 34 -15 164 6 75 12 144
23 153 26 14 4 17 -36 22 -393 3 -219 9 -408 12 -419 6 -19 -2 -25 -67 -52
-41 -17 -109 -42 -153 -57 -90 -29 -105 -39 -105 -69 0 -65 63 -62 250 13 67
26 153 59 428 163 67 26 84 37 89 56 15 62 -33 75 -133 37 -104 -40 -195 -67
-202 -60 -3 3 -8 183 -10 399 -5 441 -13 396 68 411 110 20 221 49 231 61 18
21 6 58 -23 72 -23 11 -38 11 -90 -2 -75 -18 -165 -36 -178 -36 -6 0 -10 49
-10 114 l0 114 50 11 c28 6 68 11 88 11 50 0 82 23 82 60 0 55 -41 60 -205 29z"/>
<path d="M963 998 c-6 -7 -13 -29 -17 -48 -4 -19 -20 -60 -36 -90 -93 -174
-94 -177 -82 -204 9 -19 19 -26 41 -26 33 0 37 4 81 85 98 179 117 240 85 275
-20 23 -58 26 -72 8z"/>
<path d="M350 855 c-18 -22 -6 -77 34 -159 83 -167 108 -192 151 -149 23 23
14 72 -24 130 -17 25 -40 71 -52 102 -11 31 -28 64 -36 74 -20 21 -56 22 -73
2z"/>
</g>
</svg>
