<?xml version="1.0" standalone="no"?>
<!DOCTYPE svg PUBLIC "-//W3C//DTD SVG 20010904//EN"
 "http://www.w3.org/TR/2001/REC-SVG-20010904/DTD/svg10.dtd">
<svg version="1.0" xmlns="http://www.w3.org/2000/svg"
 width="248.000000pt" height="248.000000pt" viewBox="0 0 248.000000 248.000000"
 preserveAspectRatio="xMidYMid meet">
<metadata>
Created by potrace 1.10, written by Peter Selinger 2001-2011
</metadata>
<g transform="translate(0.000000,248.000000) scale(0.100000,-0.100000)"
fill="#000000" stroke="none">
<path d="M698 2293 c-9 -10 -32 -53 -51 -96 -32 -68 -76 -142 -226 -379 -47
-74 -72 -115 -166 -273 -43 -71 -98 -158 -122 -191 -57 -81 -56 -134 3 -134
38 0 79 56 249 340 51 85 115 189 141 230 26 41 57 91 69 110 12 19 40 62 62
96 21 33 45 75 52 92 8 18 16 32 20 32 3 0 19 -20 34 -44 15 -25 51 -73 79
-108 27 -35 62 -83 76 -108 47 -81 104 -154 196 -247 71 -73 97 -93 118 -93
30 0 53 30 44 58 -3 10 -42 56 -87 102 -78 83 -121 135 -156 194 -10 16 -46
67 -80 115 -108 149 -131 185 -153 241 -12 30 -26 61 -32 67 -15 19 -52 16
-70 -4z"/>
<path d="M870 1663 c-14 -2 -59 -10 -100 -18 -41 -8 -119 -22 -174 -30 -54 -8
-104 -20 -112 -26 -23 -19 -17 -57 11 -75 24 -16 35 -15 188 11 89 16 187 31
218 34 67 8 89 23 89 62 0 43 -36 56 -120 42z"/>
</g>
</svg>
