<?xml version="1.0" standalone="no"?>
<!DOCTYPE svg PUBLIC "-//W3C//DTD SVG 20010904//EN"
 "http://www.w3.org/TR/2001/REC-SVG-20010904/DTD/svg10.dtd">
<svg version="1.0" xmlns="http://www.w3.org/2000/svg"
 width="248.000000pt" height="248.000000pt" viewBox="0 0 248.000000 248.000000"
 preserveAspectRatio="xMidYMid meet">
<metadata>
Created by potrace 1.10, written by Peter Selinger 2001-2011
</metadata>
<g transform="translate(0.000000,248.000000) scale(0.100000,-0.100000)"
fill="#000000" stroke="none">
<path d="M698 2293 c-9 -10 -32 -53 -51 -96 -32 -68 -76 -142 -226 -379 -47
-74 -72 -115 -166 -273 -43 -71 -98 -158 -122 -191 -57 -81 -56 -134 3 -134
38 0 79 56 249 340 51 85 115 189 141 230 26 41 58 93 72 115 14 22 37 58 52
80 47 69 130 243 130 273 0 15 -5 33 -12 40 -17 17 -53 15 -70 -5z"/>
</g>
</svg>
