<?xml version="1.0" standalone="no"?>
<!DOCTYPE svg PUBLIC "-//W3C//DTD SVG 20010904//EN"
 "http://www.w3.org/TR/2001/REC-SVG-20010904/DTD/svg10.dtd">
<svg version="1.0" xmlns="http://www.w3.org/2000/svg"
 width="248.000000pt" height="248.000000pt" viewBox="0 0 248.000000 248.000000"
 preserveAspectRatio="xMidYMid meet">
<metadata>
Created by potrace 1.10, written by Peter Selinger 2001-2011
</metadata>
<g transform="translate(0.000000,248.000000) scale(0.100000,-0.100000)"
fill="#000000" stroke="none">
<path d="M698 2293 c-9 -10 -32 -53 -51 -96 -32 -68 -76 -142 -226 -379 -47
-74 -72 -115 -166 -273 -43 -71 -98 -158 -122 -191 -57 -81 -56 -134 3 -134
38 0 79 56 249 340 51 85 115 189 141 230 26 41 57 91 69 110 12 19 40 62 62
96 21 33 45 75 52 92 8 18 16 32 20 32 3 0 19 -20 34 -44 15 -25 51 -73 79
-108 27 -35 62 -83 76 -108 47 -81 104 -154 196 -247 71 -73 97 -93 118 -93
30 0 53 30 44 58 -3 10 -42 56 -87 102 -78 83 -121 135 -156 194 -10 16 -46
67 -80 115 -108 149 -131 185 -153 241 -12 30 -26 61 -32 67 -15 19 -52 16
-70 -4z"/>
<path d="M870 1663 c-14 -2 -59 -10 -100 -18 -41 -8 -119 -22 -174 -30 -54 -8
-104 -20 -112 -26 -22 -18 -17 -57 11 -75 25 -16 43 -16 133 2 l32 7 0 -115 0
-115 -67 -11 c-38 -6 -106 -16 -153 -22 -105 -14 -134 -27 -138 -62 -2 -20 4
-31 22 -44 25 -15 34 -15 159 5 72 12 142 24 155 26 l22 5 1 -277 c0 -347 11
-556 28 -577 19 -22 57 -20 74 5 13 17 14 84 9 439 -5 404 -4 418 14 423 10 3
57 13 104 23 151 29 159 31 175 44 24 20 15 63 -17 78 -23 11 -38 11 -90 -2
-75 -18 -165 -36 -178 -36 -6 0 -10 49 -10 114 l0 114 50 11 c28 6 68 11 88
11 50 0 82 23 82 60 0 44 -36 57 -120 43z"/>
<path d="M962 997 c-6 -7 -14 -28 -17 -45 -6 -34 -26 -79 -89 -194 -50 -92
-46 -128 15 -128 31 0 36 5 80 85 95 173 112 228 85 270 -18 27 -56 34 -74 12z"/>
<path d="M350 855 c-18 -22 -6 -77 34 -159 83 -167 108 -192 151 -149 23 23
14 72 -24 130 -17 25 -40 71 -52 102 -11 31 -28 64 -36 74 -20 21 -56 22 -73
2z"/>
</g>
</svg>
