<?xml version="1.0" standalone="no"?>
<!DOCTYPE svg PUBLIC "-//W3C//DTD SVG 20010904//EN"
 "http://www.w3.org/TR/2001/REC-SVG-20010904/DTD/svg10.dtd">
<svg version="1.0" xmlns="http://www.w3.org/2000/svg"
 width="248.000000pt" height="248.000000pt" viewBox="0 0 248.000000 248.000000"
 preserveAspectRatio="xMidYMid meet">
<metadata>
Created by potrace 1.10, written by Peter Selinger 2001-2011
</metadata>
<g transform="translate(0.000000,248.000000) scale(0.100000,-0.100000)"
fill="#000000" stroke="none">
<path d="M741 2091 c-11 -11 -21 -40 -25 -77 -10 -81 -70 -341 -111 -477 -18
-62 -59 -204 -90 -317 -31 -113 -81 -267 -111 -343 -56 -142 -63 -177 -41
-195 6 -5 57 -12 112 -15 206 -10 805 -188 1186 -353 125 -53 244 -94 276 -94
35 0 53 16 53 46 0 30 -15 40 -111 74 -46 16 -129 47 -184 70 -111 46 -340
132 -425 160 -30 10 -88 30 -127 44 -123 43 -541 146 -593 146 -72 0 -83 6
-66 38 25 50 74 196 116 347 23 83 68 245 100 360 78 281 128 508 122 560 -3
22 -28 45 -49 45 -7 0 -21 -8 -32 -19z"/>
</g>
</svg>
