<?xml version="1.0" standalone="no"?>
<!DOCTYPE svg PUBLIC "-//W3C//DTD SVG 20010904//EN"
 "http://www.w3.org/TR/2001/REC-SVG-20010904/DTD/svg10.dtd">
<svg version="1.0" xmlns="http://www.w3.org/2000/svg"
 width="248.000000pt" height="248.000000pt" viewBox="0 0 248.000000 248.000000"
 preserveAspectRatio="xMidYMid meet">
<metadata>
Created by potrace 1.10, written by Peter Selinger 2001-2011
</metadata>
<g transform="translate(0.000000,248.000000) scale(0.100000,-0.100000)"
fill="#000000" stroke="none">
<path d="M1039 1400 c-8 -5 -44 -59 -80 -120 -118 -204 -270 -400 -444 -575
-101 -100 -280 -240 -337 -263 -88 -35 -46 -123 44 -93 46 15 236 159 337 256
94 89 223 237 321 365 84 111 232 359 232 389 0 24 -25 51 -46 51 -6 0 -18 -5
-27 -10z"/>
</g>
</svg>
