<?xml version="1.0" standalone="no"?>
<!DOCTYPE svg PUBLIC "-//W3C//DTD SVG 20010904//EN"
 "http://www.w3.org/TR/2001/REC-SVG-20010904/DTD/svg10.dtd">
<svg version="1.0" xmlns="http://www.w3.org/2000/svg"
 width="248.000000pt" height="248.000000pt" viewBox="0 0 248.000000 248.000000"
 preserveAspectRatio="xMidYMid meet">
<metadata>
Created by potrace 1.10, written by Peter Selinger 2001-2011
</metadata>
<g transform="translate(0.000000,248.000000) scale(0.100000,-0.100000)"
fill="#000000" stroke="none">
<path d="M1596 2298 c-13 -18 -16 -52 -16 -159 l0 -136 -107 -12 c-60 -6 -146
-18 -193 -26 -47 -9 -121 -20 -165 -26 -97 -13 -127 -29 -123 -67 5 -44 37
-52 153 -36 55 8 107 17 115 20 22 8 245 32 407 44 78 5 148 12 155 15 7 3 83
12 168 20 333 31 374 42 368 93 -4 39 -39 51 -113 42 -33 -5 -112 -14 -175
-20 -63 -6 -156 -18 -206 -26 -50 -8 -110 -14 -133 -14 l-41 0 0 133 c0 145
-10 177 -55 177 -13 0 -31 -10 -39 -22z"/>
<path d="M735 2283 c-22 -2 -96 -14 -165 -28 -69 -13 -147 -26 -175 -30 -27
-3 -63 -11 -78 -17 -55 -21 -57 -37 -57 -390 0 -336 -13 -679 -29 -808 -5 -41
-15 -127 -21 -190 -28 -292 -43 -415 -66 -542 -27 -144 -26 -173 7 -183 31
-10 57 4 68 38 18 53 61 289 61 332 0 22 7 92 15 155 8 63 20 168 26 233 11
108 14 117 33 117 12 0 86 14 166 30 80 16 166 30 193 30 l47 0 0 -367 0 -368
-39 43 c-40 43 -75 54 -99 30 -22 -22 -13 -53 31 -111 23 -32 56 -76 72 -100
33 -46 75 -59 108 -35 31 23 37 120 37 578 0 245 5 551 10 680 5 129 10 378
11 553 3 279 1 319 -13 333 -17 17 -77 24 -143 17z m51 -140 c-3 -21 -6 -161
-6 -310 l0 -273 -26 0 c-15 0 -79 -11 -143 -25 -183 -39 -212 -45 -227 -45
-12 0 -14 49 -14 314 l0 313 53 7 c28 4 97 15 152 26 55 11 118 21 140 23 22
2 48 4 59 5 16 2 18 -3 12 -35z m-16 -805 c0 -68 -3 -140 -6 -160 -6 -36 -9
-38 -44 -38 -20 0 -101 -13 -178 -30 -163 -34 -207 -38 -198 -15 3 9 9 76 12
149 l7 134 106 21 c58 11 147 29 196 40 50 11 93 20 98 20 4 1 7 -54 7 -121z"/>
<path d="M2128 1574 c-3 -3 -89 -12 -190 -20 -100 -7 -194 -16 -208 -18 -14
-3 -54 -8 -90 -11 -36 -3 -126 -15 -200 -26 -74 -11 -177 -26 -229 -34 -52 -8
-101 -21 -109 -28 -16 -16 -16 -47 -6 -467 3 -140 10 -240 16 -247 18 -22 56
-15 75 14 16 25 18 53 15 323 l-4 297 134 21 c169 28 346 49 568 67 96 9 199
18 228 21 l53 7 -6 -99 c-14 -232 -37 -458 -51 -503 -3 -9 -27 8 -69 52 -66
68 -91 79 -119 51 -31 -31 -13 -71 60 -137 23 -20 53 -55 69 -77 30 -43 53
-55 91 -46 47 12 75 113 104 376 18 158 30 419 21 443 -6 14 -23 29 -42 36
-34 12 -102 15 -111 5z"/>
</g>
</svg>
