<?xml version="1.0" standalone="no"?>
<!DOCTYPE svg PUBLIC "-//W3C//DTD SVG 20010904//EN"
 "http://www.w3.org/TR/2001/REC-SVG-20010904/DTD/svg10.dtd">
<svg version="1.0" xmlns="http://www.w3.org/2000/svg"
 width="248.000000pt" height="248.000000pt" viewBox="0 0 248.000000 248.000000"
 preserveAspectRatio="xMidYMid meet">
<metadata>
Created by potrace 1.10, written by Peter Selinger 2001-2011
</metadata>
<g transform="translate(0.000000,248.000000) scale(0.100000,-0.100000)"
fill="#000000" stroke="none">
<path d="M661 2324 c-12 -15 -21 -31 -21 -37 0 -25 -138 -230 -211 -314 -32
-37 -74 -90 -92 -118 -18 -27 -77 -96 -130 -152 -97 -102 -113 -133 -85 -161
31 -31 61 -14 167 95 l104 108 -7 -200 c-19 -573 -25 -837 -25 -1105 -1 -322
2 -340 54 -340 52 0 52 2 59 602 4 307 11 615 16 685 5 71 10 214 12 318 l2
190 51 65 c80 99 195 298 195 335 0 58 -53 75 -89 29z"/>
<path d="M1557 2218 c-11 -19 -13 -206 -13 -1033 1 -1104 -1 -1066 57 -1073
14 -2 31 3 37 11 8 9 12 242 14 829 l3 816 165 7 c243 10 341 20 351 36 16 25
9 58 -13 73 -20 13 -56 13 -260 3 -131 -6 -240 -9 -242 -6 -3 3 -6 74 -6 159
-2 170 -10 200 -55 200 -15 0 -30 -9 -38 -22z"/>
<path d="M1156 2188 c-13 -18 -16 -53 -16 -179 0 -113 -3 -159 -12 -167 -7 -5
-74 -15 -148 -21 -74 -7 -154 -17 -177 -22 -23 -5 -61 -9 -85 -9 -56 0 -90
-23 -86 -58 4 -36 41 -54 98 -48 57 6 301 34 358 40 l42 6 0 -73 c0 -39 -3
-102 -6 -139 l-7 -67 -61 -5 c-33 -3 -137 -12 -230 -21 -188 -16 -219 -27
-214 -73 5 -45 35 -51 183 -37 72 7 172 16 224 20 l94 7 -7 -143 c-4 -79 -10
-153 -12 -165 -5 -19 -19 -22 -142 -37 -75 -10 -179 -21 -229 -26 -51 -5 -100
-14 -108 -21 -23 -19 -18 -57 10 -76 27 -17 48 -16 302 13 78 9 144 15 146 12
5 -5 -18 -209 -32 -289 -23 -128 -92 -344 -126 -393 -18 -26 -19 -59 -3 -75
21 -21 65 -14 87 14 43 54 126 313 151 469 48 296 81 747 96 1287 6 221 5 250
-10 273 -21 32 -59 33 -80 3z"/>
</g>
</svg>
