<?xml version="1.0" standalone="no"?>
<!DOCTYPE svg PUBLIC "-//W3C//DTD SVG 20010904//EN"
 "http://www.w3.org/TR/2001/REC-SVG-20010904/DTD/svg10.dtd">
<svg version="1.0" xmlns="http://www.w3.org/2000/svg"
 width="248.000000pt" height="248.000000pt" viewBox="0 0 248.000000 248.000000"
 preserveAspectRatio="xMidYMid meet">
<metadata>
Created by potrace 1.10, written by Peter Selinger 2001-2011
</metadata>
<g transform="translate(0.000000,248.000000) scale(0.100000,-0.100000)"
fill="#000000" stroke="none">
<path d="M547 2042 c-26 -28 -21 -51 19 -85 64 -56 464 -531 464 -551 0 -13
-143 -248 -202 -331 -85 -120 -203 -260 -313 -370 -101 -100 -280 -240 -337
-263 -88 -35 -46 -123 44 -93 46 15 236 159 337 256 171 163 360 401 471 593
36 62 70 111 76 110 6 -2 60 -59 119 -128 131 -151 366 -391 492 -501 173
-153 257 -201 468 -270 104 -34 126 -36 148 -11 41 45 16 68 -123 111 -180 57
-287 122 -467 284 -89 81 -378 379 -447 462 -28 34 -80 94 -114 134 -35 41
-88 106 -118 145 -101 133 -327 397 -414 484 -46 46 -77 53 -103 24z"/>
</g>
</svg>
