<?xml version="1.0" standalone="no"?>
<!DOCTYPE svg PUBLIC "-//W3C//DTD SVG 20010904//EN"
 "http://www.w3.org/TR/2001/REC-SVG-20010904/DTD/svg10.dtd">
<svg version="1.0" xmlns="http://www.w3.org/2000/svg"
 width="248.000000pt" height="248.000000pt" viewBox="0 0 248.000000 248.000000"
 preserveAspectRatio="xMidYMid meet">
<metadata>
Created by potrace 1.10, written by Peter Selinger 2001-2011
</metadata>
<g transform="translate(0.000000,248.000000) scale(0.100000,-0.100000)"
fill="#000000" stroke="none">
<path d="M661 2324 c-12 -15 -21 -31 -21 -37 0 -25 -138 -230 -211 -314 -32
-37 -74 -90 -92 -118 -18 -27 -77 -96 -130 -152 -97 -102 -113 -133 -85 -161
31 -31 61 -14 167 95 l104 108 -7 -200 c-19 -573 -25 -837 -25 -1105 -1 -322
2 -340 54 -340 52 0 52 2 59 602 4 307 11 615 16 685 5 71 10 214 12 318 l2
190 51 65 c80 99 195 298 195 335 0 58 -53 75 -89 29z"/>
<path d="M1156 2188 c-13 -18 -16 -53 -16 -179 0 -113 -3 -159 -12 -167 -7 -5
-74 -15 -148 -21 -74 -7 -154 -17 -177 -22 -23 -5 -61 -9 -85 -9 -56 0 -90
-23 -86 -58 4 -36 41 -54 98 -48 59 6 303 34 359 41 l44 5 -8 -178 c-12 -299
-47 -708 -76 -892 -24 -155 -94 -387 -135 -444 -17 -25 -18 -58 -2 -74 21 -21
65 -14 87 14 43 54 126 313 151 469 48 296 81 747 96 1287 6 221 5 250 -10
273 -21 32 -59 33 -80 3z"/>
</g>
</svg>
