<?xml version="1.0" standalone="no"?>
<!DOCTYPE svg PUBLIC "-//W3C//DTD SVG 20010904//EN"
 "http://www.w3.org/TR/2001/REC-SVG-20010904/DTD/svg10.dtd">
<svg version="1.0" xmlns="http://www.w3.org/2000/svg"
 width="248.000000pt" height="248.000000pt" viewBox="0 0 248.000000 248.000000"
 preserveAspectRatio="xMidYMid meet">
<metadata>
Created by potrace 1.10, written by Peter Selinger 2001-2011
</metadata>
<g transform="translate(0.000000,248.000000) scale(0.100000,-0.100000)"
fill="#000000" stroke="none">
<path d="M661 2324 c-12 -15 -21 -31 -21 -37 0 -25 -138 -230 -211 -314 -32
-37 -74 -90 -92 -118 -18 -27 -77 -96 -130 -152 -97 -102 -113 -133 -85 -161
31 -31 61 -14 167 95 l104 108 -7 -200 c-19 -573 -25 -837 -25 -1105 -1 -322
2 -340 54 -340 52 0 52 2 59 602 4 307 11 615 16 685 5 71 10 214 12 318 l2
190 51 65 c80 99 195 298 195 335 0 58 -53 75 -89 29z"/>
</g>
</svg>
