<?xml version="1.0" standalone="no"?>
<!DOCTYPE svg PUBLIC "-//W3C//DTD SVG 20010904//EN"
 "http://www.w3.org/TR/2001/REC-SVG-20010904/DTD/svg10.dtd">
<svg version="1.0" xmlns="http://www.w3.org/2000/svg"
 width="248.000000pt" height="248.000000pt" viewBox="0 0 248.000000 248.000000"
 preserveAspectRatio="xMidYMid meet">
<metadata>
Created by potrace 1.10, written by Peter Selinger 2001-2011
</metadata>
<g transform="translate(0.000000,248.000000) scale(0.100000,-0.100000)"
fill="#000000" stroke="none">
<path d="M661 2324 c-12 -15 -21 -31 -21 -37 0 -25 -138 -230 -211 -314 -32
-37 -74 -90 -92 -118 -18 -27 -77 -96 -130 -152 -97 -102 -113 -133 -85 -161
30 -30 62 -13 153 80 50 51 106 115 125 142 18 27 71 94 116 149 102 121 234
337 234 382 0 58 -53 75 -89 29z"/>
</g>
</svg>
