<?xml version="1.0" standalone="no"?>
<!DOCTYPE svg PUBLIC "-//W3C//DTD SVG 20010904//EN"
 "http://www.w3.org/TR/2001/REC-SVG-20010904/DTD/svg10.dtd">
<svg version="1.0" xmlns="http://www.w3.org/2000/svg"
 width="248.000000pt" height="248.000000pt" viewBox="0 0 248.000000 248.000000"
 preserveAspectRatio="xMidYMid meet">
<metadata>
Created by potrace 1.10, written by Peter Selinger 2001-2011
</metadata>
<g transform="translate(0.000000,248.000000) scale(0.100000,-0.100000)"
fill="#000000" stroke="none">
<path d="M796 2239 c-48 -5 -154 -20 -235 -33 -80 -13 -160 -22 -177 -19 -18
3 -34 -1 -41 -9 -15 -17 -34 -1302 -21 -1364 6 -28 17 -48 30 -55 25 -13 164
-8 363 15 77 9 169 19 205 22 99 8 128 14 142 28 10 10 13 144 13 647 0 652
-4 722 -40 758 -19 19 -115 23 -239 10z m168 -176 c3 -42 6 -100 6 -128 l0
-53 -82 -12 c-46 -6 -155 -25 -244 -41 -88 -16 -170 -29 -182 -29 -22 0 -22 3
-22 139 l0 140 53 10 c28 5 102 17 162 26 61 9 117 18 125 19 8 2 51 4 96 5
l81 1 7 -77z m4 -455 l-3 -163 -115 -17 c-63 -9 -162 -24 -220 -32 -58 -9
-126 -19 -152 -23 l-48 -6 0 160 0 160 103 17 c56 9 136 24 177 32 115 22 181
32 223 33 l37 1 -2 -162z m-6 -485 c-2 -120 -6 -220 -8 -222 -2 -3 -37 -6 -77
-8 -39 -2 -117 -8 -172 -14 -55 -6 -142 -13 -194 -16 l-94 -6 6 123 c4 68 7
160 7 204 0 77 1 81 23 82 12 0 90 11 172 24 83 12 186 28 230 35 44 7 87 13
95 14 13 1 15 -28 12 -216z"/>
<path d="M1282 2158 c-5 -7 -12 -85 -14 -173 -5 -175 -25 -284 -79 -431 -16
-45 -29 -86 -29 -92 0 -6 12 -19 26 -28 24 -16 27 -16 52 3 33 24 72 126 104
271 18 86 25 103 43 106 11 3 67 14 125 25 111 22 358 61 385 61 15 0 15 -2 1
-22 -9 -12 -16 -43 -16 -68 0 -25 -14 -90 -30 -145 -43 -142 -60 -202 -75
-265 -8 -30 -28 -95 -45 -143 l-32 -88 -60 128 c-33 70 -71 159 -85 196 -28
77 -85 201 -103 222 -15 18 -52 19 -68 3 -21 -21 -13 -58 33 -160 25 -55 45
-104 45 -110 0 -11 61 -153 105 -243 13 -27 38 -83 54 -124 l30 -74 -23 -56
c-59 -139 -112 -251 -151 -316 -23 -38 -49 -83 -58 -100 -8 -16 -38 -55 -66
-85 -60 -65 -68 -104 -25 -121 20 -7 32 -6 50 6 38 25 94 87 122 135 14 25 47
81 73 125 25 44 66 124 89 178 23 53 45 99 49 101 4 3 31 -38 61 -91 144 -250
315 -463 435 -541 22 -15 58 -41 81 -59 60 -48 114 -41 114 14 0 25 -34 61
-95 101 -93 61 -147 114 -261 255 -41 50 -114 159 -146 217 -20 36 -56 102
-82 148 -51 91 -52 98 -32 163 7 24 32 103 54 174 22 72 48 159 57 195 9 36
26 90 36 120 31 92 59 211 59 252 0 28 -7 46 -24 63 l-23 23 41 11 c22 6 85
20 139 32 80 18 100 26 107 43 8 23 2 47 -14 58 -20 14 -83 8 -188 -16 -56
-14 -168 -34 -248 -46 -80 -12 -199 -32 -265 -46 -66 -13 -123 -24 -126 -24
-3 0 -9 46 -12 101 -7 112 -22 149 -61 149 -13 0 -28 -6 -34 -12z"/>
<path d="M496 628 c-9 -12 -16 -30 -16 -38 0 -73 -86 -250 -157 -327 -37 -39
-41 -62 -15 -86 27 -24 47 -21 86 13 39 35 138 194 161 260 23 64 31 166 15
185 -18 22 -56 18 -74 -7z"/>
<path d="M792 598 c-23 -23 -12 -59 37 -131 27 -40 61 -99 76 -132 15 -33 34
-75 43 -93 26 -56 93 -55 100 1 4 35 -94 236 -150 307 -45 57 -81 73 -106 48z"/>
</g>
</svg>
