<?xml version="1.0" standalone="no"?>
<!DOCTYPE svg PUBLIC "-//W3C//DTD SVG 20010904//EN"
 "http://www.w3.org/TR/2001/REC-SVG-20010904/DTD/svg10.dtd">
<svg version="1.0" xmlns="http://www.w3.org/2000/svg"
 width="248.000000pt" height="248.000000pt" viewBox="0 0 248.000000 248.000000"
 preserveAspectRatio="xMidYMid meet">
<metadata>
Created by potrace 1.10, written by Peter Selinger 2001-2011
</metadata>
<g transform="translate(0.000000,248.000000) scale(0.100000,-0.100000)"
fill="#000000" stroke="none">
<path d="M796 2239 c-48 -5 -154 -20 -235 -33 -80 -13 -160 -22 -177 -19 -18
3 -34 -1 -41 -9 -15 -17 -34 -1302 -21 -1364 6 -28 17 -48 30 -55 25 -13 164
-8 363 15 77 9 169 19 205 22 99 8 128 14 142 28 10 10 13 144 13 647 0 652
-4 722 -40 758 -19 19 -115 23 -239 10z m168 -176 c3 -42 6 -100 6 -128 l0
-53 -82 -12 c-46 -6 -155 -25 -244 -41 -88 -16 -170 -29 -182 -29 -22 0 -22 3
-22 139 l0 140 53 10 c28 5 102 17 162 26 61 9 117 18 125 19 8 2 51 4 96 5
l81 1 7 -77z m4 -455 l-3 -163 -115 -17 c-63 -9 -162 -24 -220 -32 -58 -9
-126 -19 -152 -23 l-48 -6 0 160 0 160 103 17 c56 9 136 24 177 32 115 22 181
32 223 33 l37 1 -2 -162z m-6 -485 c-2 -120 -6 -220 -8 -222 -2 -3 -37 -6 -77
-8 -39 -2 -117 -8 -172 -14 -55 -6 -142 -13 -194 -16 l-94 -6 6 123 c4 68 7
160 7 204 0 77 1 81 23 82 12 0 90 11 172 24 83 12 186 28 230 35 44 7 87 13
95 14 13 1 15 -28 12 -216z"/>
</g>
</svg>
