<?xml version="1.0" standalone="no"?>
<!DOCTYPE svg PUBLIC "-//W3C//DTD SVG 20010904//EN"
 "http://www.w3.org/TR/2001/REC-SVG-20010904/DTD/svg10.dtd">
<svg version="1.0" xmlns="http://www.w3.org/2000/svg"
 width="248.000000pt" height="248.000000pt" viewBox="0 0 248.000000 248.000000"
 preserveAspectRatio="xMidYMid meet">
<metadata>
Created by potrace 1.10, written by Peter Selinger 2001-2011
</metadata>
<g transform="translate(0.000000,248.000000) scale(0.100000,-0.100000)"
fill="#000000" stroke="none">
<path d="M1661 2083 c-15 -16 -53 -77 -86 -138 -82 -154 -244 -387 -352 -509
-74 -83 -90 -135 -51 -160 20 -12 181 18 348 65 105 30 196 51 454 108 166 37
210 55 214 92 6 51 -52 76 -101 45 -12 -8 -76 -25 -142 -40 -200 -42 -323 -72
-465 -110 -74 -20 -138 -36 -142 -36 -5 0 30 51 75 113 115 154 195 275 252
382 27 50 57 101 67 114 24 32 23 67 -4 85 -30 21 -35 20 -67 -11z"/>
<path d="M540 2032 c-16 -14 -31 -67 -70 -261 -28 -134 -55 -261 -62 -283 -12
-41 -4 -37 -148 -73 -103 -25 -164 -46 -182 -63 -22 -19 -23 -55 -3 -72 17
-14 37 -12 168 24 55 15 101 25 104 23 6 -7 -61 -174 -109 -270 -55 -110 -51
-129 33 -187 94 -65 199 -152 199 -165 0 -6 -31 -45 -68 -86 -38 -41 -71 -82
-75 -92 -8 -21 24 -57 50 -57 10 0 53 36 96 81 l78 80 72 -67 c143 -133 213
-174 245 -142 28 28 12 55 -70 126 -46 39 -107 95 -137 126 l-54 55 41 63 c74
115 112 202 197 453 70 210 81 229 140 244 36 9 46 17 51 38 4 14 2 33 -3 42
-20 32 -32 30 -378 -58 -141 -36 -150 -37 -140 -13 4 9 15 60 26 112 10 52 32
159 48 238 24 112 28 148 19 166 -14 31 -43 39 -68 18z m254 -619 c-4 -16 -15
-47 -26 -71 -10 -24 -29 -81 -42 -126 -33 -114 -98 -266 -147 -345 -23 -36
-43 -68 -45 -70 -2 -2 -36 23 -76 56 -59 47 -104 81 -146 108 -1 1 10 28 24
61 15 32 53 122 84 198 l56 140 80 18 c43 10 111 27 149 37 95 26 97 26 89 -6z"/>
</g>
</svg>
