<?xml version="1.0" standalone="no"?>
<!DOCTYPE svg PUBLIC "-//W3C//DTD SVG 20010904//EN"
 "http://www.w3.org/TR/2001/REC-SVG-20010904/DTD/svg10.dtd">
<svg version="1.0" xmlns="http://www.w3.org/2000/svg"
 width="248.000000pt" height="248.000000pt" viewBox="0 0 248.000000 248.000000"
 preserveAspectRatio="xMidYMid meet">
<metadata>
Created by potrace 1.10, written by Peter Selinger 2001-2011
</metadata>
<g transform="translate(0.000000,248.000000) scale(0.100000,-0.100000)"
fill="#000000" stroke="none">
<path d="M540 2032 c-16 -14 -31 -67 -70 -261 -28 -134 -56 -265 -64 -292 -28
-93 -100 -276 -152 -388 -68 -144 -69 -161 -7 -204 116 -80 177 -131 307 -256
206 -197 278 -245 314 -209 26 26 13 55 -45 104 -32 27 -107 96 -168 154 -130
125 -254 228 -343 285 -1 1 19 49 44 106 103 233 156 388 188 554 8 44 29 144
45 223 24 112 28 148 19 166 -14 31 -43 39 -68 18z"/>
</g>
</svg>
