<?xml version="1.0" standalone="no"?>
<!DOCTYPE svg PUBLIC "-//W3C//DTD SVG 20010904//EN"
 "http://www.w3.org/TR/2001/REC-SVG-20010904/DTD/svg10.dtd">
<svg version="1.0" xmlns="http://www.w3.org/2000/svg"
 width="248.000000pt" height="248.000000pt" viewBox="0 0 248.000000 248.000000"
 preserveAspectRatio="xMidYMid meet">
<metadata>
Created by potrace 1.10, written by Peter Selinger 2001-2011
</metadata>
<g transform="translate(0.000000,248.000000) scale(0.100000,-0.100000)"
fill="#000000" stroke="none">
<path d="M1690 2264 c-103 -14 -261 -36 -390 -54 -36 -6 -128 -17 -205 -25
-371 -39 -378 -41 -383 -87 -2 -20 4 -31 23 -44 24 -15 35 -16 103 -6 42 6
140 18 217 27 174 19 295 34 360 46 96 17 380 49 435 49 73 0 105 17 105 55 0
57 -62 66 -265 39z"/>
</g>
</svg>
