<?xml version="1.0" standalone="no"?>
<!DOCTYPE svg PUBLIC "-//W3C//DTD SVG 20010904//EN"
 "http://www.w3.org/TR/2001/REC-SVG-20010904/DTD/svg10.dtd">
<svg version="1.0" xmlns="http://www.w3.org/2000/svg"
 width="248.000000pt" height="248.000000pt" viewBox="0 0 248.000000 248.000000"
 preserveAspectRatio="xMidYMid meet">
<metadata>
Created by potrace 1.10, written by Peter Selinger 2001-2011
</metadata>
<g transform="translate(0.000000,248.000000) scale(0.100000,-0.100000)"
fill="#000000" stroke="none">
<path d="M1606 2378 c-9 -12 -19 -44 -22 -70 -4 -27 -10 -51 -15 -53 -19 -12
-377 -63 -474 -67 l-60 -3 -11 67 c-13 78 -27 100 -63 96 -41 -5 -55 -46 -40
-114 15 -68 13 -70 -91 -79 -41 -4 -85 -13 -97 -21 -32 -20 -30 -59 3 -81 23
-15 34 -15 95 -5 95 16 117 15 123 -5 3 -10 12 -49 21 -88 17 -76 37 -105 70
-105 44 0 50 23 32 119 -9 48 -17 92 -17 98 0 6 34 14 78 17 78 7 163 18 307
41 44 7 82 12 83 10 2 -2 -8 -33 -23 -70 -32 -82 -30 -116 8 -129 38 -14 53 4
98 116 26 63 44 94 58 100 12 4 75 11 140 16 127 9 151 18 151 58 0 44 -39 58
-143 50 -51 -3 -102 -9 -115 -13 -22 -5 -23 -4 -16 33 4 22 7 47 6 57 -3 48
-59 64 -86 25z"/>
<path d="M1619 1906 c-2 -2 -58 -9 -124 -16 -66 -6 -174 -20 -240 -30 -66 -10
-190 -28 -275 -41 -93 -13 -162 -28 -172 -37 -15 -13 -17 -26 -12 -86 7 -91
43 -383 50 -399 8 -20 71 -57 101 -58 15 -1 102 4 193 9 91 6 250 14 355 18
104 3 200 10 212 15 31 12 52 58 63 141 5 40 19 127 30 193 33 195 25 264 -32
284 -30 11 -140 15 -149 7z m91 -158 c0 -94 0 -93 -93 -93 -45 0 -138 -8 -207
-18 -127 -17 -326 -41 -437 -53 l-61 -6 -4 57 c-3 50 0 59 17 66 19 9 284 49
450 70 44 5 109 13 145 18 36 5 93 9 128 10 l62 1 0 -52z m-30 -213 c0 -8 -5
-46 -12 -84 l-12 -69 -135 -6 c-258 -12 -496 -26 -537 -32 l-42 -6 -7 60 c-4
34 -4 66 0 71 3 6 21 11 38 11 18 0 86 7 152 15 66 8 167 19 225 26 58 6 121
15 140 19 19 5 70 8 113 9 62 1 77 -2 77 -14z"/>
</g>
</svg>
