<?xml version="1.0" standalone="no"?>
<!DOCTYPE svg PUBLIC "-//W3C//DTD SVG 20010904//EN"
 "http://www.w3.org/TR/2001/REC-SVG-20010904/DTD/svg10.dtd">
<svg version="1.0" xmlns="http://www.w3.org/2000/svg"
 width="248.000000pt" height="248.000000pt" viewBox="0 0 248.000000 248.000000"
 preserveAspectRatio="xMidYMid meet">
<metadata>
Created by potrace 1.10, written by Peter Selinger 2001-2011
</metadata>
<g transform="translate(0.000000,248.000000) scale(0.100000,-0.100000)"
fill="#000000" stroke="none">
<path d="M933 2338 c-20 -27 -23 -53 -12 -106 15 -66 13 -68 -91 -77 -41 -4
-85 -13 -97 -21 -32 -20 -30 -59 3 -81 23 -15 34 -15 95 -5 95 16 117 15 123
-5 3 -10 12 -49 21 -88 17 -76 37 -105 70 -105 45 0 50 22 31 126 -10 52 -17
97 -15 98 2 2 54 9 114 15 61 7 135 16 165 20 195 29 461 61 509 61 70 0 105
17 109 52 4 36 -30 58 -89 58 -47 0 -184 -16 -389 -45 -231 -33 -328 -45 -385
-47 l-60 -3 -11 67 c-6 37 -17 74 -24 83 -15 18 -54 20 -67 3z"/>
</g>
</svg>
