<?xml version="1.0" standalone="no"?>
<!DOCTYPE svg PUBLIC "-//W3C//DTD SVG 20010904//EN"
 "http://www.w3.org/TR/2001/REC-SVG-20010904/DTD/svg10.dtd">
<svg version="1.0" xmlns="http://www.w3.org/2000/svg"
 width="248.000000pt" height="248.000000pt" viewBox="0 0 248.000000 248.000000"
 preserveAspectRatio="xMidYMid meet">
<metadata>
Created by potrace 1.10, written by Peter Selinger 2001-2011
</metadata>
<g transform="translate(0.000000,248.000000) scale(0.100000,-0.100000)"
fill="#000000" stroke="none">
<path d="M1750 2311 c-215 -15 -295 -22 -350 -31 -30 -5 -86 -12 -125 -15 -80
-6 -239 -33 -272 -46 -25 -9 -33 -35 -57 -179 -9 -52 -21 -121 -28 -152 -13
-64 -3 -88 37 -88 45 0 61 38 94 229 l16 94 37 13 c20 7 80 17 135 23 54 6
148 18 208 26 252 33 783 51 806 28 11 -11 -54 -112 -120 -186 -28 -32 -51
-67 -51 -77 0 -24 26 -50 50 -50 26 0 99 78 172 184 90 131 105 191 57 217
-26 13 -452 20 -609 10z"/>
<path d="M1839 1916 c-2 -2 -105 -18 -229 -35 -385 -53 -449 -63 -466 -75 -39
-29 -5 -105 41 -91 18 6 164 28 355 55 292 40 355 51 372 67 21 18 24 53 6 71
-11 11 -69 17 -79 8z"/>
<path d="M1054 1489 c-12 -4 -24 -14 -27 -23 -7 -19 0 -144 13 -211 5 -27 14
-95 21 -150 6 -55 16 -106 22 -112 12 -16 49 -17 65 -1 18 18 15 118 -8 267
-11 72 -18 141 -15 154 14 52 -25 93 -71 76z"/>
</g>
</svg>
