<?xml version="1.0" standalone="no"?>
<!DOCTYPE svg PUBLIC "-//W3C//DTD SVG 20010904//EN"
 "http://www.w3.org/TR/2001/REC-SVG-20010904/DTD/svg10.dtd">
<svg version="1.0" xmlns="http://www.w3.org/2000/svg"
 width="248.000000pt" height="248.000000pt" viewBox="0 0 248.000000 248.000000"
 preserveAspectRatio="xMidYMid meet">
<metadata>
Created by potrace 1.10, written by Peter Selinger 2001-2011
</metadata>
<g transform="translate(0.000000,248.000000) scale(0.100000,-0.100000)"
fill="#000000" stroke="none">
<path d="M1750 2311 c-215 -15 -295 -22 -350 -31 -30 -5 -86 -12 -125 -15 -80
-6 -239 -33 -272 -46 -25 -9 -33 -35 -57 -179 -9 -52 -21 -121 -28 -152 -13
-64 -3 -88 37 -88 45 0 61 38 94 229 l16 94 37 13 c20 7 80 17 135 23 54 6
148 18 208 26 252 33 783 51 806 28 11 -11 -54 -112 -120 -186 -28 -32 -51
-67 -51 -77 0 -24 26 -50 50 -50 26 0 99 78 172 184 90 131 105 191 57 217
-26 13 -452 20 -609 10z"/>
<path d="M1472 2152 c-16 -16 -19 -37 -21 -143 -1 -68 -4 -132 -7 -141 -4 -14
-17 -18 -52 -18 -63 -1 -240 -34 -253 -47 -33 -33 3 -101 46 -88 40 12 191 35
228 35 l38 0 -3 -87 -3 -88 -45 -7 c-25 -3 -90 -12 -145 -18 -248 -29 -299
-54 -246 -121 14 -18 19 -42 20 -92 0 -38 3 -72 5 -76 9 -14 27 -146 28 -198
0 -29 6 -61 14 -70 15 -21 46 -21 224 0 68 9 128 13 132 11 4 -3 8 -54 8 -114
0 -127 13 -116 -140 -125 -58 -4 -157 -14 -220 -23 -63 -9 -153 -17 -199 -17
-70 -1 -86 -4 -97 -20 -19 -26 -18 -41 7 -66 19 -19 29 -20 112 -16 51 2 137
11 192 20 99 15 187 24 295 29 l55 3 -3 -110 c-1 -60 -5 -147 -8 -192 -6 -81
-6 -83 19 -94 35 -16 65 3 71 44 3 17 8 101 11 186 4 84 9 159 12 167 3 7 15
13 26 13 123 -4 765 16 775 24 17 13 15 52 -3 67 -16 13 -412 16 -665 4 -63
-2 -120 -1 -127 3 -13 10 -29 169 -19 206 6 24 10 25 108 31 57 4 149 8 206 8
57 1 110 7 117 12 30 24 165 440 165 511 0 15 -9 31 -25 41 -22 15 -50 16
-233 10 -114 -3 -235 -9 -269 -13 l-63 -6 0 87 c0 105 -14 96 199 125 162 21
191 33 191 76 0 35 -24 49 -73 42 -23 -4 -85 -13 -137 -21 -52 -8 -113 -16
-135 -18 l-40 -3 1 40 c1 22 3 82 5 133 4 84 2 95 -15 108 -26 19 -42 18 -64
-4z m538 -662 c0 -17 -6 -46 -14 -64 -14 -33 -14 -33 -97 -40 -46 -3 -142 -13
-214 -20 -71 -8 -133 -12 -137 -9 -13 7 -9 111 5 120 22 15 160 30 282 32 66
1 121 4 124 7 2 2 15 4 28 4 19 0 23 -5 23 -30z m-566 -36 c10 -26 7 -102 -5
-109 -13 -8 -298 -39 -304 -33 -9 9 -13 95 -5 109 6 9 51 20 132 30 161 22
175 22 182 3z m506 -178 c0 -19 -41 -118 -55 -134 -8 -9 -63 -15 -184 -19
l-172 -6 3 64 3 64 45 8 c65 10 279 34 323 36 25 1 37 -3 37 -13z m-505 -48
c2 -7 1 -38 -3 -68 l-7 -55 -85 -7 c-47 -4 -107 -8 -135 -10 l-49 -3 -9 59
c-4 32 -7 60 -5 62 2 2 62 10 133 17 72 8 136 15 143 16 7 0 15 -5 17 -11z"/>
<path d="M272 2148 c-7 -7 -12 -22 -12 -34 0 -31 103 -124 190 -170 38 -21 70
-41 70 -45 0 -4 -22 -23 -50 -43 -41 -30 -50 -41 -50 -66 0 -22 6 -33 24 -41
20 -9 31 -7 67 15 79 46 149 114 149 145 0 37 -17 51 -127 105 -50 25 -94 50
-98 56 -4 6 -29 29 -57 50 -51 41 -85 49 -106 28z"/>
</g>
</svg>
