<?xml version="1.0" standalone="no"?>
<!DOCTYPE svg PUBLIC "-//W3C//DTD SVG 20010904//EN"
 "http://www.w3.org/TR/2001/REC-SVG-20010904/DTD/svg10.dtd">
<svg version="1.0" xmlns="http://www.w3.org/2000/svg"
 width="248.000000pt" height="248.000000pt" viewBox="0 0 248.000000 248.000000"
 preserveAspectRatio="xMidYMid meet">
<metadata>
Created by potrace 1.10, written by Peter Selinger 2001-2011
</metadata>
<g transform="translate(0.000000,248.000000) scale(0.100000,-0.100000)"
fill="#000000" stroke="none">
<path d="M1750 2311 c-215 -15 -295 -22 -350 -31 -30 -5 -86 -12 -125 -15 -80
-6 -239 -33 -272 -46 -25 -9 -33 -35 -57 -179 -9 -52 -21 -121 -28 -152 -13
-64 -3 -88 37 -88 45 0 61 38 94 229 l16 94 37 13 c20 7 80 17 135 23 54 6
148 18 208 26 252 33 783 51 806 28 11 -11 -54 -112 -120 -186 -28 -32 -51
-67 -51 -77 0 -24 26 -50 50 -50 26 0 99 78 172 184 90 131 105 191 57 217
-26 13 -452 20 -609 10z"/>
<path d="M1839 1916 c-2 -2 -105 -18 -229 -35 -385 -53 -449 -63 -466 -75 -39
-29 -5 -105 41 -91 18 6 164 28 355 55 292 40 355 51 372 67 21 18 24 53 6 71
-11 11 -69 17 -79 8z"/>
<path d="M1710 1603 c-19 -2 -71 -7 -115 -12 -44 -6 -120 -15 -170 -21 -221
-26 -274 -33 -340 -46 -92 -17 -115 -46 -76 -95 14 -18 19 -42 20 -87 0 -35 5
-80 10 -100 5 -20 15 -82 22 -137 6 -55 16 -106 22 -112 12 -16 49 -17 65 -1
18 18 15 117 -7 262 -19 122 -20 162 -4 176 5 4 76 15 158 25 83 9 200 23 260
31 61 8 151 17 200 20 50 2 127 6 173 9 l82 4 0 -30 c0 -16 -7 -46 -15 -66 -8
-20 -22 -63 -31 -97 -8 -34 -28 -96 -45 -138 -31 -84 -36 -117 -17 -136 17
-17 53 -15 69 4 18 21 54 116 85 219 12 44 34 118 48 165 50 168 44 174 -191
169 -93 -2 -184 -5 -203 -6z"/>
</g>
</svg>
