<?xml version="1.0" standalone="no"?>
<!DOCTYPE svg PUBLIC "-//W3C//DTD SVG 20010904//EN"
 "http://www.w3.org/TR/2001/REC-SVG-20010904/DTD/svg10.dtd">
<svg version="1.0" xmlns="http://www.w3.org/2000/svg"
 width="248.000000pt" height="248.000000pt" viewBox="0 0 248.000000 248.000000"
 preserveAspectRatio="xMidYMid meet">
<metadata>
Created by potrace 1.10, written by Peter Selinger 2001-2011
</metadata>
<g transform="translate(0.000000,248.000000) scale(0.100000,-0.100000)"
fill="#000000" stroke="none">
<path d="M780 1624 c-41 -8 -122 -23 -180 -33 -58 -11 -132 -23 -165 -26 -95
-10 -268 -46 -293 -62 -31 -19 -27 -63 8 -80 20 -9 39 -9 90 3 36 8 115 21
175 28 61 8 155 23 210 34 55 11 143 27 195 37 108 20 140 35 140 68 0 50 -40
57 -180 31z"/>
</g>
</svg>
