<?xml version="1.0" standalone="no"?>
<!DOCTYPE svg PUBLIC "-//W3C//DTD SVG 20010904//EN"
 "http://www.w3.org/TR/2001/REC-SVG-20010904/DTD/svg10.dtd">
<svg version="1.0" xmlns="http://www.w3.org/2000/svg"
 width="248.000000pt" height="248.000000pt" viewBox="0 0 248.000000 248.000000"
 preserveAspectRatio="xMidYMid meet">
<metadata>
Created by potrace 1.10, written by Peter Selinger 2001-2011
</metadata>
<g transform="translate(0.000000,248.000000) scale(0.100000,-0.100000)"
fill="#000000" stroke="none">
<path d="M1423 2184 c-31 -45 -72 -86 -283 -284 -289 -271 -263 -237 -254
-328 4 -43 11 -90 16 -107 12 -39 45 -529 58 -860 13 -306 23 -419 40 -441 8
-8 25 -14 39 -12 45 5 51 34 41 228 -5 96 -11 241 -14 321 l-6 146 123 7 c67
4 165 11 217 16 145 13 722 41 728 35 3 -2 0 -98 -7 -212 -16 -304 -15 -458 5
-477 21 -22 47 -20 70 5 17 19 20 45 26 258 7 243 21 509 38 711 18 204 23
501 11 547 -16 59 -47 68 -220 59 -231 -11 -568 -45 -805 -82 -87 -14 -161
-22 -164 -19 -3 3 28 36 69 73 122 110 292 274 327 315 49 59 42 127 -15 127
-13 0 -30 -11 -40 -26z m743 -716 c-3 -123 -8 -250 -11 -283 -7 -83 -16 -165
-18 -165 -1 0 -135 -7 -297 -16 -162 -8 -338 -19 -390 -24 -52 -5 -164 -12
-247 -16 -128 -6 -153 -5 -153 7 -1 71 -34 459 -44 514 l-12 70 53 17 c30 9
93 21 141 28 48 6 123 17 167 25 93 16 221 30 430 45 83 6 159 13 170 14 11 2
64 4 119 5 l99 1 -7 -222z"/>
<path d="M292 2118 c-19 -19 -14 -53 11 -75 30 -27 159 -113 228 -152 80 -45
129 -39 129 15 0 26 -8 33 -114 98 -46 28 -109 68 -140 89 -58 38 -93 46 -114
25z"/>
<path d="M163 1429 c-21 -21 -15 -56 13 -78 15 -12 31 -21 35 -21 5 0 32 -15
61 -34 88 -56 196 -106 228 -106 22 0 33 6 41 24 17 36 1 54 -97 106 -49 25
-112 61 -140 79 -58 36 -122 50 -141 30z"/>
<path d="M453 585 c-30 -21 -124 -149 -165 -225 -19 -36 -50 -89 -67 -117 -34
-55 -37 -89 -10 -106 42 -27 90 23 169 176 14 27 53 86 88 132 66 88 73 112
44 138 -23 21 -32 21 -59 2z"/>
</g>
</svg>
