<?xml version="1.0" standalone="no"?>
<!DOCTYPE svg PUBLIC "-//W3C//DTD SVG 20010904//EN"
 "http://www.w3.org/TR/2001/REC-SVG-20010904/DTD/svg10.dtd">
<svg version="1.0" xmlns="http://www.w3.org/2000/svg"
 width="248.000000pt" height="248.000000pt" viewBox="0 0 248.000000 248.000000"
 preserveAspectRatio="xMidYMid meet">
<metadata>
Created by potrace 1.10, written by Peter Selinger 2001-2011
</metadata>
<g transform="translate(0.000000,248.000000) scale(0.100000,-0.100000)"
fill="#000000" stroke="none">
<path d="M526 2258 c-14 -19 -16 -70 -16 -354 l0 -332 -67 -6 c-98 -10 -274
-46 -300 -62 -27 -17 -30 -56 -7 -75 20 -16 64 -15 140 4 33 9 99 19 146 23
l85 6 -1 -628 c-1 -697 -2 -689 59 -689 53 0 55 19 48 320 -3 149 -2 440 2
647 l7 377 52 9 c270 49 286 54 286 95 0 53 -24 56 -195 27 -64 -11 -123 -20
-131 -20 -12 0 -14 52 -14 318 0 345 -3 362 -55 362 -13 0 -31 -10 -39 -22z"/>
<path d="M1800 2055 c-107 -12 -257 -37 -333 -54 -76 -17 -149 -31 -161 -31
-60 0 -88 -65 -40 -96 24 -16 32 -16 172 15 133 30 280 52 525 79 94 10 127
28 127 67 0 52 -12 53 -290 20z"/>
</g>
</svg>
