<?xml version="1.0" standalone="no"?>
<!DOCTYPE svg PUBLIC "-//W3C//DTD SVG 20010904//EN"
 "http://www.w3.org/TR/2001/REC-SVG-20010904/DTD/svg10.dtd">
<svg version="1.0" xmlns="http://www.w3.org/2000/svg"
 width="248.000000pt" height="248.000000pt" viewBox="0 0 248.000000 248.000000"
 preserveAspectRatio="xMidYMid meet">
<metadata>
Created by potrace 1.10, written by Peter Selinger 2001-2011
</metadata>
<g transform="translate(0.000000,248.000000) scale(0.100000,-0.100000)"
fill="#000000" stroke="none">
<path d="M526 2258 c-14 -19 -16 -70 -16 -354 l0 -332 -67 -6 c-99 -10 -274
-46 -301 -63 -31 -19 -27 -63 8 -80 21 -10 42 -8 114 7 49 11 124 23 166 26
l77 7 -1 -629 c-1 -697 -2 -689 59 -689 53 0 55 19 48 320 -3 149 -2 440 2
647 l7 377 52 9 c270 49 286 54 286 95 0 53 -24 56 -195 27 -64 -11 -123 -20
-131 -20 -12 0 -14 52 -14 318 0 345 -3 362 -55 362 -13 0 -31 -10 -39 -22z"/>
<path d="M1649 2264 c-9 -11 -16 -54 -19 -122 l-5 -106 -145 -33 c-80 -17
-156 -32 -170 -33 -64 -1 -93 -64 -44 -96 24 -16 32 -16 172 14 81 18 157 35
170 38 22 6 22 5 22 -80 0 -79 -2 -86 -20 -86 -20 0 -132 -20 -260 -47 -41 -9
-106 -19 -145 -23 -82 -10 -111 -33 -101 -85 4 -16 13 -79 22 -140 8 -60 19
-134 24 -164 6 -30 10 -68 10 -84 0 -44 28 -94 61 -107 22 -9 44 -10 91 -1 35
6 144 16 243 21 292 18 482 38 514 55 23 11 34 27 45 67 20 69 43 220 57 367
12 137 1 184 -44 193 -14 3 -98 -3 -188 -13 -90 -10 -172 -19 -182 -19 -16 0
-18 9 -15 83 l3 82 75 7 c241 24 270 33 270 83 0 50 -36 52 -302 18 l-48 -6 0
94 c0 69 -4 100 -16 117 -18 26 -56 29 -75 6z m416 -631 c-4 -43 -8 -79 -9
-79 0 -1 -59 -7 -131 -13 -71 -6 -142 -13 -157 -16 l-28 -4 0 74 c0 41 1 75 3
76 1 1 72 9 157 19 85 10 159 18 163 19 5 0 6 -34 2 -76z m-439 -120 c-2 -2
-44 -8 -93 -13 -48 -5 -124 -16 -168 -24 -132 -25 -132 -25 -140 40 -4 31 -3
59 2 63 4 4 51 15 103 25 52 10 127 24 165 31 39 8 84 15 100 17 l30 3 3 -69
c2 -37 1 -70 -2 -73z m407 -135 c-10 -104 -10 -104 -100 -112 -43 -3 -104 -9
-135 -13 l-58 -6 0 86 0 85 98 7 c53 3 102 8 107 10 6 2 29 4 52 4 l43 1 -7
-62z m-403 -56 l0 -78 -152 -12 c-84 -7 -165 -15 -179 -18 -25 -6 -28 -3 -38
46 -6 28 -11 59 -11 70 0 20 15 24 180 50 41 6 82 13 90 15 8 1 36 3 63 4 l47
1 0 -78z"/>
</g>
</svg>
