<?xml version="1.0" standalone="no"?>
<!DOCTYPE svg PUBLIC "-//W3C//DTD SVG 20010904//EN"
 "http://www.w3.org/TR/2001/REC-SVG-20010904/DTD/svg10.dtd">
<svg version="1.0" xmlns="http://www.w3.org/2000/svg"
 width="248.000000pt" height="248.000000pt" viewBox="0 0 248.000000 248.000000"
 preserveAspectRatio="xMidYMid meet">
<metadata>
Created by potrace 1.10, written by Peter Selinger 2001-2011
</metadata>
<g transform="translate(0.000000,248.000000) scale(0.100000,-0.100000)"
fill="#000000" stroke="none">
<path d="M292 2118 c-19 -19 -14 -53 11 -75 30 -27 159 -113 228 -152 80 -45
129 -39 129 15 0 26 -8 33 -114 98 -46 28 -109 68 -140 89 -58 38 -93 46 -114
25z"/>
<path d="M163 1429 c-21 -21 -15 -56 13 -78 15 -12 31 -21 35 -21 5 0 32 -15
61 -34 88 -56 196 -106 228 -106 22 0 33 6 41 24 17 36 1 54 -97 106 -49 25
-112 61 -140 79 -58 36 -122 50 -141 30z"/>
</g>
</svg>
