<?xml version="1.0" standalone="no"?>
<!DOCTYPE svg PUBLIC "-//W3C//DTD SVG 20010904//EN"
 "http://www.w3.org/TR/2001/REC-SVG-20010904/DTD/svg10.dtd">
<svg version="1.0" xmlns="http://www.w3.org/2000/svg"
 width="248.000000pt" height="248.000000pt" viewBox="0 0 248.000000 248.000000"
 preserveAspectRatio="xMidYMid meet">
<metadata>
Created by potrace 1.10, written by Peter Selinger 2001-2011
</metadata>
<g transform="translate(0.000000,248.000000) scale(0.100000,-0.100000)"
fill="#000000" stroke="none">
<path d="M1423 2184 c-31 -45 -72 -86 -283 -284 -289 -271 -263 -237 -254
-328 4 -43 11 -90 16 -107 12 -39 45 -529 58 -860 13 -306 23 -419 40 -441 8
-8 25 -14 39 -12 38 5 52 41 46 123 -3 39 -10 178 -15 310 -13 319 -48 813
-64 900 l-12 70 53 17 c30 9 93 21 141 28 48 6 121 17 162 24 41 8 131 19 200
26 69 6 170 15 224 21 55 5 167 12 249 16 l150 6 -6 -224 c-4 -123 -8 -240
-11 -259 -18 -150 -46 -659 -46 -848 0 -105 3 -134 16 -146 23 -23 50 -19 73
10 19 24 21 40 21 168 0 144 23 589 40 796 18 203 23 501 11 547 -16 59 -47
68 -220 59 -231 -11 -568 -45 -805 -82 -87 -14 -161 -22 -164 -19 -3 3 28 36
69 73 122 110 292 274 327 315 49 59 42 127 -15 127 -13 0 -30 -11 -40 -26z"/>
<path d="M292 2118 c-19 -19 -14 -53 11 -75 30 -27 159 -113 228 -152 80 -45
129 -39 129 15 0 26 -8 33 -114 98 -46 28 -109 68 -140 89 -58 38 -93 46 -114
25z"/>
<path d="M163 1429 c-21 -21 -15 -56 13 -78 15 -12 31 -21 35 -21 5 0 32 -15
61 -34 88 -56 196 -106 228 -106 22 0 33 6 41 24 17 36 1 54 -97 106 -49 25
-112 61 -140 79 -58 36 -122 50 -141 30z"/>
<path d="M453 585 c-30 -21 -124 -149 -165 -225 -19 -36 -50 -89 -67 -117 -34
-55 -37 -89 -10 -106 42 -27 90 23 169 176 14 27 53 86 88 132 66 88 73 112
44 138 -23 21 -32 21 -59 2z"/>
</g>
</svg>
