<?xml version="1.0" standalone="no"?>
<!DOCTYPE svg PUBLIC "-//W3C//DTD SVG 20010904//EN"
 "http://www.w3.org/TR/2001/REC-SVG-20010904/DTD/svg10.dtd">
<svg version="1.0" xmlns="http://www.w3.org/2000/svg"
 width="248.000000pt" height="248.000000pt" viewBox="0 0 248.000000 248.000000"
 preserveAspectRatio="xMidYMid meet">
<metadata>
Created by potrace 1.10, written by Peter Selinger 2001-2011
</metadata>
<g transform="translate(0.000000,248.000000) scale(0.100000,-0.100000)"
fill="#000000" stroke="none">
<path d="M526 2258 c-14 -19 -16 -70 -16 -354 l0 -332 -67 -6 c-99 -10 -274
-46 -301 -63 -31 -19 -27 -63 8 -80 21 -10 42 -8 114 7 49 11 124 23 166 26
l77 7 -1 -629 c-1 -697 -2 -689 59 -689 53 0 55 19 48 320 -3 149 -2 440 2
647 l7 377 52 9 c270 49 286 54 286 95 0 53 -24 56 -195 27 -64 -11 -123 -20
-131 -20 -12 0 -14 52 -14 318 0 345 -3 362 -55 362 -13 0 -31 -10 -39 -22z"/>
<path d="M1800 2055 c-107 -12 -257 -37 -333 -54 -76 -17 -149 -31 -161 -31
-60 0 -88 -65 -40 -96 24 -16 32 -16 172 15 133 30 280 52 525 79 94 10 127
28 127 67 0 52 -12 53 -290 20z"/>
<path d="M1975 1804 c-344 -38 -446 -53 -625 -91 -41 -9 -106 -19 -145 -23
-82 -10 -111 -33 -100 -85 3 -16 15 -93 25 -170 44 -311 42 -305 86 -305 14 0
30 10 40 25 16 24 16 34 0 143 -31 208 -38 274 -29 281 4 4 64 18 133 30 69
13 141 27 160 32 58 13 541 70 548 64 5 -4 -17 -233 -27 -290 -37 -198 -37
-211 6 -221 32 -8 58 16 71 69 17 67 41 228 53 356 9 100 8 124 -5 155 -8 20
-22 36 -30 36 -8 0 -20 2 -28 4 -7 2 -67 -2 -133 -10z"/>
</g>
</svg>
