<?xml version="1.0" standalone="no"?>
<!DOCTYPE svg PUBLIC "-//W3C//DTD SVG 20010904//EN"
 "http://www.w3.org/TR/2001/REC-SVG-20010904/DTD/svg10.dtd">
<svg version="1.0" xmlns="http://www.w3.org/2000/svg"
 width="248.000000pt" height="248.000000pt" viewBox="0 0 248.000000 248.000000"
 preserveAspectRatio="xMidYMid meet">
<metadata>
Created by potrace 1.10, written by Peter Selinger 2001-2011
</metadata>
<g transform="translate(0.000000,248.000000) scale(0.100000,-0.100000)"
fill="#000000" stroke="none">
<path d="M744 2229 c-99 -12 -408 -89 -424 -105 -20 -20 -25 -335 -15 -1021 5
-375 11 -517 19 -529 17 -22 66 -21 83 2 10 13 13 72 13 244 l0 226 78 13 c42
8 106 19 142 26 36 7 95 16 131 20 l67 6 4 -243 c3 -147 9 -254 16 -270 19
-45 76 -48 90 -4 4 11 5 380 2 819 -5 776 -6 799 -24 813 -21 15 -83 16 -182
3z m96 -309 c0 -209 0 -210 -22 -215 -34 -8 -380 -65 -395 -65 -10 0 -13 42
-13 204 l0 204 73 17 c39 9 92 23 117 31 50 16 144 31 203 33 l37 1 0 -210z
m0 -509 c0 -187 0 -189 -22 -195 -13 -3 -37 -6 -54 -6 -18 0 -65 -6 -105 -14
-41 -7 -103 -19 -139 -26 -36 -6 -75 -14 -87 -17 l-23 -5 0 190 0 191 33 6
c118 22 356 63 375 64 l22 1 0 -189z"/>
</g>
</svg>
