<?xml version="1.0" standalone="no"?>
<!DOCTYPE svg PUBLIC "-//W3C//DTD SVG 20010904//EN"
 "http://www.w3.org/TR/2001/REC-SVG-20010904/DTD/svg10.dtd">
<svg version="1.0" xmlns="http://www.w3.org/2000/svg"
 width="248.000000pt" height="248.000000pt" viewBox="0 0 248.000000 248.000000"
 preserveAspectRatio="xMidYMid meet">
<metadata>
Created by potrace 1.10, written by Peter Selinger 2001-2011
</metadata>
<g transform="translate(0.000000,248.000000) scale(0.100000,-0.100000)"
fill="#000000" stroke="none">
<path d="M2165 2185 c-44 -7 -134 -21 -200 -29 -339 -45 -375 -54 -375 -100 0
-48 30 -56 145 -38 39 6 91 13 118 16 l47 6 -2 -367 -3 -367 -35 -8 c-19 -4
-73 -13 -120 -19 -102 -13 -133 -29 -128 -67 5 -44 38 -53 145 -37 50 8 103
17 118 21 l27 7 -6 -149 c-3 -82 -8 -297 -11 -479 -6 -355 -4 -376 44 -383 12
-2 31 4 41 13 16 15 18 48 24 393 3 207 9 432 12 499 l6 122 52 11 c28 7 95
15 148 19 106 8 131 20 126 60 -6 51 -76 62 -223 36 -44 -8 -86 -15 -92 -15
-10 0 -13 79 -13 364 l0 364 68 7 c109 11 234 34 249 46 17 15 17 53 -1 68
-22 18 -74 20 -161 6z"/>
<path d="M1339 2134 c-11 -14 -15 -95 -20 -423 -4 -240 -11 -428 -18 -461 -6
-30 -16 -100 -22 -155 -11 -115 -42 -287 -63 -360 -50 -172 -145 -366 -221
-453 -55 -63 -67 -96 -43 -120 64 -64 214 130 321 418 56 149 85 281 107 475
6 55 15 125 21 155 30 179 42 858 16 910 -15 31 -58 38 -78 14z"/>
<path d="M710 2104 c-41 -8 -111 -23 -155 -34 -44 -10 -156 -33 -250 -50 -93
-18 -180 -39 -192 -46 -30 -19 -30 -59 0 -78 20 -13 38 -12 172 15 83 16 156
29 163 29 9 0 12 -70 12 -318 l0 -319 -87 -21 c-49 -12 -117 -26 -151 -31 -35
-6 -71 -16 -79 -22 -23 -20 -12 -62 21 -78 25 -12 42 -11 135 9 58 12 118 24
134 27 l27 5 -1 -403 0 -404 -77 -48 c-187 -118 -207 -132 -217 -160 -11 -34
2 -61 34 -65 12 -2 49 15 89 41 37 24 81 52 98 63 102 63 143 90 291 188 193
129 253 179 253 210 0 56 -58 61 -117 11 -22 -19 -85 -64 -139 -100 l-99 -65
-3 382 c-1 209 0 383 2 385 2 2 48 13 101 24 110 22 127 31 123 68 -5 43 -40
52 -136 34 -46 -8 -85 -13 -87 -11 -5 5 -8 618 -3 624 6 6 145 34 222 45 75
10 106 29 106 64 0 48 -50 56 -190 29z"/>
<path d="M979 1814 c-19 -23 -33 -755 -15 -794 17 -38 66 -35 85 5 20 42 28
738 8 775 -15 31 -58 38 -78 14z"/>
</g>
</svg>
