<?xml version="1.0" standalone="no"?>
<!DOCTYPE svg PUBLIC "-//W3C//DTD SVG 20010904//EN"
 "http://www.w3.org/TR/2001/REC-SVG-20010904/DTD/svg10.dtd">
<svg version="1.0" xmlns="http://www.w3.org/2000/svg"
 width="248.000000pt" height="248.000000pt" viewBox="0 0 248.000000 248.000000"
 preserveAspectRatio="xMidYMid meet">
<metadata>
Created by potrace 1.10, written by Peter Selinger 2001-2011
</metadata>
<g transform="translate(0.000000,248.000000) scale(0.100000,-0.100000)"
fill="#000000" stroke="none">
<path d="M744 2229 c-99 -12 -408 -89 -424 -105 -20 -20 -25 -335 -15 -1021 5
-375 11 -517 19 -529 7 -9 25 -16 41 -16 58 0 57 -8 50 503 l-7 467 28 6 c41
8 385 66 395 66 4 0 9 -219 11 -487 2 -345 7 -496 15 -515 20 -45 77 -48 91
-4 4 11 5 380 2 819 -5 776 -6 799 -24 813 -21 15 -83 16 -182 3z m96 -309 c0
-209 0 -210 -22 -215 -34 -8 -380 -65 -395 -65 -10 0 -13 42 -13 204 l0 204
73 17 c39 9 92 23 117 31 50 16 144 31 203 33 l37 1 0 -210z"/>
</g>
</svg>
