<?xml version="1.0" standalone="no"?>
<!DOCTYPE svg PUBLIC "-//W3C//DTD SVG 20010904//EN"
 "http://www.w3.org/TR/2001/REC-SVG-20010904/DTD/svg10.dtd">
<svg version="1.0" xmlns="http://www.w3.org/2000/svg"
 width="248.000000pt" height="248.000000pt" viewBox="0 0 248.000000 248.000000"
 preserveAspectRatio="xMidYMid meet">
<metadata>
Created by potrace 1.10, written by Peter Selinger 2001-2011
</metadata>
<g transform="translate(0.000000,248.000000) scale(0.100000,-0.100000)"
fill="#000000" stroke="none">
<path d="M412 2268 c-20 -20 -14 -49 23 -103 34 -49 87 -178 115 -277 11 -41
10 -51 -2 -70 -20 -29 -293 -322 -342 -366 -39 -35 -45 -61 -20 -86 39 -40 85
-7 264 187 74 80 138 143 142 139 13 -13 36 -177 43 -307 6 -113 5 -133 -9
-144 -9 -7 -16 -18 -16 -23 0 -13 -55 -91 -104 -147 -22 -27 -61 -74 -86 -106
-25 -32 -84 -99 -132 -149 -62 -65 -88 -100 -88 -117 0 -32 17 -49 50 -49 30
0 135 103 253 250 42 52 90 111 107 130 l31 35 -5 -130 c-11 -310 -57 -534
-138 -675 l-31 -54 -16 24 c-65 100 -103 127 -137 100 -24 -21 -16 -57 30
-129 52 -80 77 -101 125 -101 26 0 42 8 69 37 46 49 117 199 137 289 59 267
70 386 69 734 -1 289 -9 376 -50 577 l-17 82 37 43 c69 81 217 309 223 344 7
40 -9 64 -43 64 -26 0 -24 2 -133 -165 -84 -129 -117 -167 -125 -144 -49 153
-78 215 -129 282 -30 39 -70 50 -95 25z"/>
<path d="M1925 2069 c-60 -10 -159 -27 -220 -38 -133 -24 -286 -49 -380 -62
-115 -15 -199 -31 -210 -39 -7 -6 -10 -266 -10 -747 0 -681 1 -742 18 -790 10
-29 29 -65 42 -81 32 -39 133 -79 258 -103 216 -42 786 -13 855 43 26 22 2
221 -33 274 -18 27 -56 32 -75 9 -9 -11 -11 -30 -5 -68 4 -28 8 -72 9 -97 1
-44 1 -45 -39 -53 -22 -4 -173 -11 -336 -14 -243 -4 -308 -3 -370 10 -121 25
-170 47 -194 87 -20 34 -20 47 -20 741 l0 706 110 17 c261 38 363 55 405 65
44 10 296 51 314 51 9 0 6 -49 -19 -315 -23 -252 -43 -398 -65 -494 l-22 -92
-53 50 c-39 37 -62 51 -82 51 -34 0 -53 -16 -53 -45 0 -21 107 -134 147 -154
56 -29 124 9 144 81 27 101 52 233 65 348 13 110 22 199 50 502 10 110 1 146
-41 164 -41 17 -50 17 -190 -7z"/>
</g>
</svg>
