<?xml version="1.0" standalone="no"?>
<!DOCTYPE svg PUBLIC "-//W3C//DTD SVG 20010904//EN"
 "http://www.w3.org/TR/2001/REC-SVG-20010904/DTD/svg10.dtd">
<svg version="1.0" xmlns="http://www.w3.org/2000/svg"
 width="248.000000pt" height="248.000000pt" viewBox="0 0 248.000000 248.000000"
 preserveAspectRatio="xMidYMid meet">
<metadata>
Created by potrace 1.10, written by Peter Selinger 2001-2011
</metadata>
<g transform="translate(0.000000,248.000000) scale(0.100000,-0.100000)"
fill="#000000" stroke="none">
<path d="M636 2258 c-13 -18 -16 -54 -16 -184 0 -88 -3 -208 -6 -267 l-7 -105
-81 -12 c-45 -6 -98 -14 -118 -17 l-38 -6 0 274 c0 298 -4 319 -55 319 -55 0
-55 2 -55 -570 0 -641 -17 -935 -66 -1147 -8 -34 -14 -72 -14 -84 0 -12 -13
-64 -30 -116 -44 -138 -38 -179 27 -171 26 3 30 10 60 98 17 52 37 127 43 165
7 39 16 84 21 100 16 56 58 441 59 536 0 37 5 72 13 81 8 11 66 23 202 42 105
15 201 29 214 32 l24 5 -6 -153 c-21 -546 -28 -854 -22 -894 7 -52 37 -74 73
-55 28 15 30 34 37 316 3 132 10 365 17 517 13 307 10 345 -34 366 -23 11 -57
8 -235 -18 -114 -16 -223 -33 -240 -36 l-33 -6 0 145 c0 166 -9 151 100 162
36 4 82 11 102 16 38 10 86 17 331 48 81 11 155 25 162 31 8 7 15 23 15 35 0
52 -51 61 -219 35 -73 -11 -135 -20 -136 -20 -2 0 -1 114 2 254 5 228 4 258
-11 280 -21 33 -59 34 -80 4z"/>
</g>
</svg>
