<?xml version="1.0" standalone="no"?>
<!DOCTYPE svg PUBLIC "-//W3C//DTD SVG 20010904//EN"
 "http://www.w3.org/TR/2001/REC-SVG-20010904/DTD/svg10.dtd">
<svg version="1.0" xmlns="http://www.w3.org/2000/svg"
 width="248.000000pt" height="248.000000pt" viewBox="0 0 248.000000 248.000000"
 preserveAspectRatio="xMidYMid meet">
<metadata>
Created by potrace 1.10, written by Peter Selinger 2001-2011
</metadata>
<g transform="translate(0.000000,248.000000) scale(0.100000,-0.100000)"
fill="#000000" stroke="none">
<path d="M829 2334 c-11 -14 -15 -93 -19 -418 l-5 -401 -75 -17 c-41 -9 -111
-24 -155 -34 -94 -19 -125 -36 -125 -67 0 -49 42 -58 153 -33 97 22 167 36
183 36 13 0 14 -18 9 -122 -10 -206 -13 -227 -38 -233 -12 -2 -96 -20 -187
-40 -91 -19 -176 -35 -190 -35 -63 0 -93 -64 -45 -96 28 -18 37 -17 260 31 66
14 133 29 149 32 l29 6 -7 -174 c-4 -96 -11 -230 -16 -299 -22 -290 -17 -330
35 -330 57 0 58 13 91 686 l6 131 72 12 c198 34 322 63 340 81 25 25 15 67
-19 76 -13 3 -84 -6 -157 -20 -73 -14 -155 -29 -181 -32 l-48 -7 7 129 c3 71
9 154 13 184 l6 54 100 16 c55 9 110 20 123 24 48 16 52 80 6 92 -22 6 -135
-7 -201 -23 -23 -5 -23 -3 -23 81 l0 86 21 -21 c21 -21 51 -19 76 5 34 33 213
384 213 419 0 45 -52 64 -82 30 -8 -10 -51 -89 -96 -175 -44 -86 -92 -174
-106 -195 l-26 -38 0 280 c0 205 -4 287 -13 305 -15 31 -58 38 -78 14z"/>
<path d="M2044 2259 c-18 -20 -19 -53 -22 -986 l-2 -965 -55 31 c-30 17 -63
31 -74 31 -26 0 -43 -24 -39 -57 3 -28 8 -32 113 -98 27 -16 58 -36 70 -44 30
-20 73 -7 85 25 16 40 13 2057 -2 2072 -18 18 -53 14 -74 -9z"/>
<path d="M432 1958 c-18 -18 -15 -56 7 -86 10 -15 27 -47 39 -72 37 -81 105
-175 130 -178 60 -9 68 49 17 128 -19 30 -45 78 -59 106 -46 97 -99 137 -134
102z"/>
<path d="M1469 1724 c-11 -13 -15 -70 -17 -272 -3 -278 1 -302 53 -302 51 0
55 23 55 290 0 177 -4 252 -13 270 -15 31 -58 38 -78 14z"/>
</g>
</svg>
