<?xml version="1.0" standalone="no"?>
<!DOCTYPE svg PUBLIC "-//W3C//DTD SVG 20010904//EN"
 "http://www.w3.org/TR/2001/REC-SVG-20010904/DTD/svg10.dtd">
<svg version="1.0" xmlns="http://www.w3.org/2000/svg"
 width="248.000000pt" height="248.000000pt" viewBox="0 0 248.000000 248.000000"
 preserveAspectRatio="xMidYMid meet">
<metadata>
Created by potrace 1.10, written by Peter Selinger 2001-2011
</metadata>
<g transform="translate(0.000000,248.000000) scale(0.100000,-0.100000)"
fill="#000000" stroke="none">
<path d="M710 2104 c-41 -8 -111 -23 -155 -34 -44 -10 -156 -33 -250 -50 -93
-18 -180 -39 -192 -46 -30 -19 -30 -59 0 -78 20 -13 38 -12 172 15 83 16 156
29 163 29 9 0 12 -160 12 -767 0 -837 -1 -818 55 -818 56 0 55 -20 55 829 -1
428 1 780 3 782 5 6 146 34 221 45 75 10 106 29 106 64 0 48 -50 56 -190 29z"/>
</g>
</svg>
