<?xml version="1.0" standalone="no"?>
<!DOCTYPE svg PUBLIC "-//W3C//DTD SVG 20010904//EN"
 "http://www.w3.org/TR/2001/REC-SVG-20010904/DTD/svg10.dtd">
<svg version="1.0" xmlns="http://www.w3.org/2000/svg"
 width="248.000000pt" height="248.000000pt" viewBox="0 0 248.000000 248.000000"
 preserveAspectRatio="xMidYMid meet">
<metadata>
Created by potrace 1.10, written by Peter Selinger 2001-2011
</metadata>
<g transform="translate(0.000000,248.000000) scale(0.100000,-0.100000)"
fill="#000000" stroke="none">
<path d="M1148 2143 c-9 -10 -45 -76 -81 -148 -36 -71 -85 -161 -107 -198 -43
-72 -45 -98 -9 -117 36 -20 69 8 125 110 80 142 154 298 154 323 0 45 -52 64
-82 30z"/>
<path d="M432 1958 c-18 -18 -15 -56 7 -86 10 -15 27 -47 39 -72 37 -81 105
-175 130 -178 60 -9 68 49 17 128 -19 30 -45 78 -59 106 -46 97 -99 137 -134
102z"/>
<path d="M980 1551 c-52 -10 -147 -29 -210 -44 -63 -14 -151 -33 -195 -43 -94
-19 -125 -36 -125 -67 0 -31 18 -47 55 -47 30 0 60 6 310 60 72 16 164 34 205
40 103 16 138 28 150 50 14 26 13 36 -6 54 -19 20 -61 19 -184 -3z"/>
<path d="M1160 1114 c-36 -7 -158 -29 -271 -48 -113 -19 -268 -49 -345 -65
-76 -17 -150 -31 -164 -31 -63 0 -93 -64 -45 -96 28 -18 39 -17 260 31 66 15
161 33 210 41 50 8 119 19 155 25 161 26 316 62 333 76 21 20 22 47 1 67 -18
19 -46 19 -134 0z"/>
</g>
</svg>
