<?xml version="1.0" standalone="no"?>
<!DOCTYPE svg PUBLIC "-//W3C//DTD SVG 20010904//EN"
 "http://www.w3.org/TR/2001/REC-SVG-20010904/DTD/svg10.dtd">
<svg version="1.0" xmlns="http://www.w3.org/2000/svg"
 width="248.000000pt" height="248.000000pt" viewBox="0 0 248.000000 248.000000"
 preserveAspectRatio="xMidYMid meet">
<metadata>
Created by potrace 1.10, written by Peter Selinger 2001-2011
</metadata>
<g transform="translate(0.000000,248.000000) scale(0.100000,-0.100000)"
fill="#000000" stroke="none">
<path d="M2030 2285 c-60 -12 -244 -40 -430 -66 -41 -6 -95 -14 -120 -19 -25
-5 -81 -12 -125 -16 -97 -8 -142 -25 -154 -57 -6 -14 -7 -126 -4 -263 5 -236
0 -364 -36 -844 -20 -273 -41 -442 -78 -630 -13 -69 -29 -130 -34 -137 -15
-17 -7 -64 12 -76 25 -15 62 -1 81 31 21 36 70 290 91 472 9 74 21 176 27 226
5 50 10 136 10 190 0 55 7 142 15 194 8 52 15 128 15 167 0 67 2 73 23 77 140
31 324 65 372 71 33 4 87 13 120 20 33 7 88 16 123 19 l64 6 -6 -28 c-3 -15
-10 -56 -16 -92 -15 -87 -66 -299 -92 -380 -33 -103 -124 -331 -153 -382 -26
-46 -78 -125 -162 -246 -55 -78 -197 -228 -245 -259 -30 -18 -38 -30 -38 -52
0 -40 22 -55 67 -46 30 5 58 27 143 113 58 59 122 132 143 162 21 30 58 84 83
120 101 145 167 282 243 506 51 150 107 383 131 549 19 123 -9 164 -96 145
-22 -4 -64 -11 -94 -14 -30 -4 -91 -13 -135 -21 -44 -9 -143 -27 -220 -41 -77
-14 -162 -30 -189 -35 -26 -6 -49 -9 -51 -7 -1 2 -5 98 -9 215 l-6 212 48 6
c26 4 103 15 172 25 69 10 193 28 275 40 333 49 385 63 385 105 0 22 -26 45
-55 49 -16 3 -59 -1 -95 -9z"/>
<path d="M744 2229 c-100 -12 -408 -89 -424 -105 -13 -13 -15 -110 -13 -770 2
-751 2 -755 23 -790 31 -48 50 -56 107 -43 96 21 389 46 469 39 14 -1 30 2 36
8 10 10 12 1569 1 1623 -3 16 -14 34 -24 39 -20 11 -86 11 -175 -1z m96 -309
c0 -209 0 -210 -22 -215 -34 -8 -380 -65 -395 -65 -10 0 -13 42 -13 204 l0
204 73 17 c39 9 92 23 117 31 50 16 144 31 203 33 l37 1 0 -210z m0 -509 c0
-187 0 -189 -22 -195 -13 -3 -37 -6 -54 -6 -18 0 -65 -6 -105 -14 -41 -7 -103
-19 -139 -26 -36 -6 -75 -14 -87 -17 l-23 -5 0 190 0 191 33 6 c118 22 356 63
375 64 l22 1 0 -189z m0 -515 c0 -194 -2 -214 -17 -221 -10 -4 -87 -13 -171
-21 -84 -8 -170 -18 -192 -23 l-40 -9 0 213 0 212 38 6 c20 3 78 13 127 22
102 19 187 32 228 34 l27 1 0 -214z"/>
<path d="M446 458 c-9 -12 -16 -28 -16 -34 0 -37 -92 -199 -157 -278 -44 -52
-15 -111 44 -90 19 6 47 38 86 94 112 163 153 272 118 314 -19 23 -57 20 -75
-6z"/>
<path d="M712 448 c-18 -18 -15 -54 9 -101 28 -55 167 -245 193 -263 30 -20
73 -18 86 5 15 29 13 36 -25 83 -70 85 -142 184 -160 218 -34 67 -72 89 -103
58z"/>
</g>
</svg>
