<?xml version="1.0" standalone="no"?>
<!DOCTYPE svg PUBLIC "-//W3C//DTD SVG 20010904//EN"
 "http://www.w3.org/TR/2001/REC-SVG-20010904/DTD/svg10.dtd">
<svg version="1.0" xmlns="http://www.w3.org/2000/svg"
 width="248.000000pt" height="248.000000pt" viewBox="0 0 248.000000 248.000000"
 preserveAspectRatio="xMidYMid meet">
<metadata>
Created by potrace 1.10, written by Peter Selinger 2001-2011
</metadata>
<g transform="translate(0.000000,248.000000) scale(0.100000,-0.100000)"
fill="#000000" stroke="none">
<path d="M1148 2143 c-9 -10 -45 -76 -81 -148 -36 -71 -85 -161 -107 -198 -43
-72 -45 -98 -9 -117 36 -20 69 8 125 110 80 142 154 298 154 323 0 45 -52 64
-82 30z"/>
<path d="M432 1958 c-18 -18 -15 -56 7 -86 10 -15 27 -47 39 -72 37 -81 105
-175 130 -178 60 -9 68 49 17 128 -19 30 -45 78 -59 106 -46 97 -99 137 -134
102z"/>
</g>
</svg>
