<?xml version="1.0" standalone="no"?>
<!DOCTYPE svg PUBLIC "-//W3C//DTD SVG 20010904//EN"
 "http://www.w3.org/TR/2001/REC-SVG-20010904/DTD/svg10.dtd">
<svg version="1.0" xmlns="http://www.w3.org/2000/svg"
 width="248.000000pt" height="248.000000pt" viewBox="0 0 248.000000 248.000000"
 preserveAspectRatio="xMidYMid meet">
<metadata>
Created by potrace 1.10, written by Peter Selinger 2001-2011
</metadata>
<g transform="translate(0.000000,248.000000) scale(0.100000,-0.100000)"
fill="#000000" stroke="none">
<path d="M1080 2416 c-8 -11 -11 -118 -10 -419 l1 -405 -38 -6 c-21 -3 -153
-9 -293 -12 -144 -4 -260 -11 -267 -16 -17 -14 -16 -53 1 -68 11 -8 91 -11
305 -9 160 1 293 0 296 -2 8 -9 14 -398 6 -403 -10 -6 -137 -21 -351 -41 -91
-9 -190 -20 -220 -25 -30 -5 -84 -12 -120 -15 -115 -11 -241 -33 -256 -46 -18
-15 -18 -53 1 -69 11 -9 34 -11 78 -7 115 12 241 27 352 42 61 8 187 22 280
30 94 8 184 18 201 21 30 5 31 4 37 -33 4 -21 7 -216 7 -434 0 -384 1 -396 20
-417 24 -26 30 -27 55 -8 17 12 18 35 16 451 -2 305 1 440 8 445 13 8 954 3
1063 -5 74 -6 77 -5 94 19 15 24 15 28 1 49 -15 24 -17 24 -273 30 -141 4
-396 7 -565 7 -169 0 -310 4 -313 8 -2 4 -8 100 -12 213 l-7 205 174 22 c96
12 226 27 289 32 193 17 230 29 230 74 0 44 -20 50 -133 38 -56 -6 -131 -14
-167 -17 -36 -4 -138 -15 -228 -26 -90 -12 -167 -18 -170 -14 -4 4 -8 185 -10
402 -1 271 -6 401 -13 410 -15 17 -54 17 -69 -1z"/>
<path d="M1742 2188 c-50 -57 -121 -128 -158 -158 -183 -149 -204 -170 -204
-201 0 -22 6 -32 25 -41 30 -13 33 -12 202 129 122 101 279 270 290 311 8 33
-7 56 -40 60 -21 3 -40 -13 -115 -100z"/>
<path d="M492 2188 c-24 -24 -10 -57 75 -184 128 -192 170 -244 197 -244 56 0
60 53 10 123 -20 28 -70 100 -112 161 -41 61 -84 121 -95 134 -22 24 -56 29
-75 10z"/>
</g>
</svg>
