<?xml version="1.0" standalone="no"?>
<!DOCTYPE svg PUBLIC "-//W3C//DTD SVG 20010904//EN"
 "http://www.w3.org/TR/2001/REC-SVG-20010904/DTD/svg10.dtd">
<svg version="1.0" xmlns="http://www.w3.org/2000/svg"
 width="248.000000pt" height="248.000000pt" viewBox="0 0 248.000000 248.000000"
 preserveAspectRatio="xMidYMid meet">
<metadata>
Created by potrace 1.10, written by Peter Selinger 2001-2011
</metadata>
<g transform="translate(0.000000,248.000000) scale(0.100000,-0.100000)"
fill="#000000" stroke="none">
<path d="M1855 2189 c-66 -4 -232 -12 -370 -18 -137 -6 -365 -20 -505 -31
-140 -11 -291 -20 -336 -20 -85 0 -104 -8 -104 -46 0 -44 16 -47 238 -41 114
3 302 12 417 21 116 8 320 20 455 26 329 15 381 19 408 36 24 16 28 35 12 65
-12 21 -12 21 -215 8z"/>
</g>
</svg>
