<?xml version="1.0" standalone="no"?>
<!DOCTYPE svg PUBLIC "-//W3C//DTD SVG 20010904//EN"
 "http://www.w3.org/TR/2001/REC-SVG-20010904/DTD/svg10.dtd">
<svg version="1.0" xmlns="http://www.w3.org/2000/svg"
 width="248.000000pt" height="248.000000pt" viewBox="0 0 248.000000 248.000000"
 preserveAspectRatio="xMidYMid meet">
<metadata>
Created by potrace 1.10, written by Peter Selinger 2001-2011
</metadata>
<g transform="translate(0.000000,248.000000) scale(0.100000,-0.100000)"
fill="#000000" stroke="none">
<path d="M1742 2188 c-50 -57 -121 -128 -158 -158 -183 -149 -204 -170 -204
-201 0 -22 6 -32 25 -41 30 -13 33 -12 202 129 122 101 279 270 290 311 8 33
-7 56 -40 60 -21 3 -40 -13 -115 -100z"/>
<path d="M492 2188 c-24 -24 -10 -57 75 -184 128 -192 170 -244 197 -244 56 0
60 53 10 123 -20 28 -70 100 -112 161 -41 61 -84 121 -95 134 -22 24 -56 29
-75 10z"/>
</g>
</svg>
