<?xml version="1.0" standalone="no"?>
<!DOCTYPE svg PUBLIC "-//W3C//DTD SVG 20010904//EN"
 "http://www.w3.org/TR/2001/REC-SVG-20010904/DTD/svg10.dtd">
<svg version="1.0" xmlns="http://www.w3.org/2000/svg"
 width="248.000000pt" height="248.000000pt" viewBox="0 0 248.000000 248.000000"
 preserveAspectRatio="xMidYMid meet">
<metadata>
Created by potrace 1.10, written by Peter Selinger 2001-2011
</metadata>
<g transform="translate(0.000000,248.000000) scale(0.100000,-0.100000)"
fill="#000000" stroke="none">
<path d="M1729 2353 c-9 -10 -26 -49 -39 -88 -13 -38 -31 -88 -41 -111 l-17
-41 -188 -17 c-104 -10 -245 -24 -314 -31 -189 -21 -300 -29 -300 -21 0 4 -10
55 -21 114 -22 112 -38 142 -74 142 -50 0 -55 -34 -25 -175 10 -49 16 -93 12
-96 -6 -6 -101 -22 -292 -50 -36 -5 -73 -12 -83 -15 -23 -7 -40 -40 -32 -64
12 -38 36 -40 181 -15 77 13 164 26 195 30 l56 7 16 -69 c9 -37 19 -85 22
-105 6 -42 33 -63 66 -53 34 11 40 47 23 138 -9 45 -16 86 -17 91 -1 6 52 15
118 22 232 24 431 43 523 50 l93 7 -16 -39 c-83 -195 -88 -228 -38 -240 14 -4
33 -3 41 2 13 9 72 140 108 241 19 51 14 50 243 59 151 6 176 9 192 25 23 23
24 39 5 65 -17 22 -47 23 -248 11 l-127 -7 30 87 c31 94 36 132 17 151 -17 17
-53 15 -69 -5z"/>
<path d="M1450 1555 c-11 -13 -31 -141 -45 -287 -4 -34 -11 -90 -17 -123 -5
-33 -10 -109 -9 -170 0 -60 -4 -135 -10 -167 -19 -99 11 -259 67 -349 77 -125
304 -200 564 -186 112 6 145 15 265 72 104 50 130 86 129 175 -2 82 -15 110
-53 110 -40 0 -49 -16 -53 -90 l-3 -65 -66 -36 c-103 -56 -137 -62 -316 -56
-169 6 -230 19 -309 70 -51 32 -69 53 -96 112 -20 46 -22 66 -22 230 l-1 180
23 3 c51 8 396 206 504 290 35 27 83 62 108 78 87 55 110 90 78 122 -31 31
-102 -5 -284 -143 -92 -71 -399 -243 -411 -231 -3 3 5 87 17 188 27 220 28
252 11 272 -17 20 -55 21 -71 1z"/>
<path d="M851 1533 c-11 -10 -36 -47 -54 -83 -149 -286 -208 -365 -450 -600
-147 -143 -160 -158 -154 -183 9 -32 44 -44 79 -27 12 7 83 72 157 144 l134
131 -6 -175 c-4 -96 -8 -185 -11 -197 -2 -12 -6 -73 -8 -136 -3 -124 4 -147
48 -147 44 0 52 31 64 240 5 107 13 245 16 306 5 73 3 128 -5 161 l-12 50 53
71 c29 38 86 133 127 209 41 76 83 149 93 162 23 30 23 46 -2 71 -25 25 -42
25 -69 3z"/>
</g>
</svg>
