<?xml version="1.0" standalone="no"?>
<!DOCTYPE svg PUBLIC "-//W3C//DTD SVG 20010904//EN"
 "http://www.w3.org/TR/2001/REC-SVG-20010904/DTD/svg10.dtd">
<svg version="1.0" xmlns="http://www.w3.org/2000/svg"
 width="248.000000pt" height="248.000000pt" viewBox="0 0 248.000000 248.000000"
 preserveAspectRatio="xMidYMid meet">
<metadata>
Created by potrace 1.10, written by Peter Selinger 2001-2011
</metadata>
<g transform="translate(0.000000,248.000000) scale(0.100000,-0.100000)"
fill="#000000" stroke="none">
<path d="M1885 2129 c-373 -23 -1079 -92 -1290 -125 -55 -8 -129 -20 -165 -25
-36 -5 -73 -12 -83 -15 -23 -7 -40 -40 -32 -64 12 -38 37 -41 152 -21 199 36
371 56 798 96 88 8 205 19 260 25 55 5 195 14 310 20 252 12 272 15 285 41 23
42 -16 81 -78 78 -15 -1 -85 -6 -157 -10z"/>
</g>
</svg>
