<?xml version="1.0" standalone="no"?>
<!DOCTYPE svg PUBLIC "-//W3C//DTD SVG 20010904//EN"
 "http://www.w3.org/TR/2001/REC-SVG-20010904/DTD/svg10.dtd">
<svg version="1.0" xmlns="http://www.w3.org/2000/svg"
 width="248.000000pt" height="248.000000pt" viewBox="0 0 248.000000 248.000000"
 preserveAspectRatio="xMidYMid meet">
<metadata>
Created by potrace 1.10, written by Peter Selinger 2001-2011
</metadata>
<g transform="translate(0.000000,248.000000) scale(0.100000,-0.100000)"
fill="#000000" stroke="none">
<path d="M1203 2388 c-6 -7 -13 -69 -17 -138 -8 -170 -14 -193 -51 -201 -17
-4 -119 -7 -227 -8 -184 -1 -199 -2 -218 -21 -11 -11 -20 -27 -20 -35 0 -8 9
-24 20 -35 18 -18 33 -20 178 -19 86 0 183 4 216 8 l58 7 -5 -45 c-3 -25 -16
-82 -29 -126 l-23 -80 -40 -7 c-22 -3 -99 -7 -171 -8 -151 -2 -179 -11 -179
-55 0 -49 28 -56 202 -50 l153 4 -26 -52 c-49 -101 -97 -192 -105 -201 -9 -10
-21 -12 -284 -46 -187 -24 -315 -48 -333 -62 -20 -17 -14 -56 11 -73 21 -14
33 -14 113 1 74 13 372 53 397 54 18 0 0 -24 -100 -138 -122 -137 -253 -245
-363 -300 -61 -30 -76 -42 -78 -63 -7 -59 49 -66 144 -19 137 67 339 255 493
457 34 45 69 84 79 87 39 10 73 16 187 30 212 28 178 38 382 -116 219 -166
233 -175 418 -283 162 -95 288 -155 328 -155 31 0 50 22 45 52 -2 17 -20 31
-73 57 -89 42 -328 179 -420 240 -96 63 -305 221 -305 231 0 10 223 20 436 21
158 0 173 2 190 20 23 26 9 70 -26 80 -42 12 -242 9 -495 -6 l-240 -14 -40 26
c-63 42 -199 185 -183 193 7 4 36 10 63 13 463 54 465 54 465 102 0 43 -37 58
-111 46 -122 -20 -410 -54 -415 -49 -2 3 4 39 15 79 10 41 23 94 27 119 9 45
9 45 59 52 28 4 124 19 215 33 91 13 190 27 220 31 30 3 65 13 78 20 29 19 29
59 -1 79 -25 16 -47 14 -352 -36 -66 -10 -136 -19 -156 -19 l-36 0 9 53 c15
92 12 224 -6 252 -18 27 -57 34 -73 13z m-4 -952 c61 -61 63 -65 40 -70 -37
-8 -183 -25 -186 -22 -5 4 71 155 77 156 3 0 34 -29 69 -64z"/>
<path d="M1380 1030 c-134 -10 -477 -58 -598 -85 -33 -8 -49 -48 -30 -77 17
-26 24 -118 34 -433 6 -217 13 -245 59 -245 15 0 31 10 41 25 18 27 17 73 -5
490 -4 83 -7 151 -6 152 6 10 435 63 548 69 l137 7 -1 -74 c0 -78 -8 -160 -34
-354 -29 -223 -31 -266 -10 -281 28 -20 53 -17 69 9 9 13 22 80 31 162 9 77
22 181 30 230 17 108 30 332 21 368 -11 46 -62 52 -286 37z"/>
</g>
</svg>
