<?xml version="1.0" standalone="no"?>
<!DOCTYPE svg PUBLIC "-//W3C//DTD SVG 20010904//EN"
 "http://www.w3.org/TR/2001/REC-SVG-20010904/DTD/svg10.dtd">
<svg version="1.0" xmlns="http://www.w3.org/2000/svg"
 width="248.000000pt" height="248.000000pt" viewBox="0 0 248.000000 248.000000"
 preserveAspectRatio="xMidYMid meet">
<metadata>
Created by potrace 1.10, written by Peter Selinger 2001-2011
</metadata>
<g transform="translate(0.000000,248.000000) scale(0.100000,-0.100000)"
fill="#000000" stroke="none">
<path d="M935 1932 c-16 -2 -95 -18 -175 -36 -80 -19 -176 -39 -215 -46 -167
-31 -390 -81 -402 -92 -22 -18 -11 -60 19 -77 24 -14 34 -13 95 1 92 22 179
41 358 77 223 45 378 81 393 93 6 6 12 21 12 33 0 36 -32 53 -85 47z"/>
</g>
</svg>
