<?xml version="1.0" standalone="no"?>
<!DOCTYPE svg PUBLIC "-//W3C//DTD SVG 20010904//EN"
 "http://www.w3.org/TR/2001/REC-SVG-20010904/DTD/svg10.dtd">
<svg version="1.0" xmlns="http://www.w3.org/2000/svg"
 width="248.000000pt" height="248.000000pt" viewBox="0 0 248.000000 248.000000"
 preserveAspectRatio="xMidYMid meet">
<metadata>
Created by potrace 1.10, written by Peter Selinger 2001-2011
</metadata>
<g transform="translate(0.000000,248.000000) scale(0.100000,-0.100000)"
fill="#000000" stroke="none">
<path d="M579 2373 c-11 -12 -16 -78 -21 -266 -8 -263 -9 -267 -55 -267 -39 0
-346 -70 -360 -82 -22 -18 -11 -60 19 -77 24 -14 34 -13 100 2 146 36 194 46
238 52 l45 5 -2 -242 c-2 -134 -5 -284 -9 -333 l-6 -90 -100 -48 c-55 -26
-128 -57 -162 -68 -33 -12 -67 -25 -74 -31 -20 -17 -14 -56 13 -74 23 -15 29
-15 95 5 39 12 104 40 146 61 41 22 77 40 79 40 3 0 5 -152 5 -337 l0 -337
-28 27 c-44 42 -92 32 -92 -19 0 -33 106 -183 135 -190 38 -9 59 -1 75 31 12
25 15 102 18 457 l4 428 81 38 c45 21 124 58 175 82 70 33 94 50 99 68 7 28
-21 62 -52 62 -12 0 -82 -29 -154 -65 -73 -36 -135 -65 -139 -65 -8 0 -4 570
3 606 4 16 17 24 57 32 153 32 284 65 296 74 17 14 15 53 -3 68 -23 19 -83 14
-223 -19 l-122 -28 6 233 c6 208 5 235 -10 258 -19 30 -57 34 -77 9z"/>
</g>
</svg>
