<?xml version="1.0" standalone="no"?>
<!DOCTYPE svg PUBLIC "-//W3C//DTD SVG 20010904//EN"
 "http://www.w3.org/TR/2001/REC-SVG-20010904/DTD/svg10.dtd">
<svg version="1.0" xmlns="http://www.w3.org/2000/svg"
 width="248.000000pt" height="248.000000pt" viewBox="0 0 248.000000 248.000000"
 preserveAspectRatio="xMidYMid meet">
<metadata>
Created by potrace 1.10, written by Peter Selinger 2001-2011
</metadata>
<g transform="translate(0.000000,248.000000) scale(0.100000,-0.100000)"
fill="#000000" stroke="none">
<path d="M579 2373 c-11 -12 -16 -78 -21 -266 -8 -263 -9 -267 -55 -267 -39 0
-346 -70 -360 -82 -22 -18 -11 -60 19 -77 24 -14 34 -13 100 2 148 36 194 46
242 52 41 6 48 4 43 -9 -3 -8 -9 -335 -13 -726 l-7 -711 -27 26 c-42 40 -90
29 -90 -21 0 -33 106 -183 135 -190 38 -9 59 -1 74 31 13 25 16 159 23 810 4
429 10 789 13 801 4 16 17 24 57 32 153 32 284 65 296 74 17 14 15 53 -3 68
-23 19 -83 14 -223 -19 l-122 -28 6 233 c6 208 5 235 -10 258 -19 30 -57 34
-77 9z"/>
</g>
</svg>
