<?xml version="1.0" standalone="no"?>
<!DOCTYPE svg PUBLIC "-//W3C//DTD SVG 20010904//EN"
 "http://www.w3.org/TR/2001/REC-SVG-20010904/DTD/svg10.dtd">
<svg version="1.0" xmlns="http://www.w3.org/2000/svg"
 width="248.000000pt" height="248.000000pt" viewBox="0 0 248.000000 248.000000"
 preserveAspectRatio="xMidYMid meet">
<metadata>
Created by potrace 1.10, written by Peter Selinger 2001-2011
</metadata>
<g transform="translate(0.000000,248.000000) scale(0.100000,-0.100000)"
fill="#000000" stroke="none">
<path d="M551 2386 c-18 -21 -20 -48 -20 -331 l-1 -261 -92 -16 c-178 -32
-263 -50 -288 -62 -36 -17 -39 -60 -5 -82 25 -16 31 -16 148 9 196 42 197 42
197 20 0 -24 -77 -250 -120 -353 -18 -41 -49 -118 -69 -170 -58 -146 -116
-277 -161 -363 -22 -43 -40 -89 -40 -102 0 -34 41 -60 69 -45 21 10 92 142
130 238 10 26 31 73 45 104 14 31 39 93 56 137 16 44 34 88 40 98 6 10 28 63
50 118 l39 100 1 -645 c0 -704 0 -695 55 -695 56 0 55 -20 55 837 l0 787 73
15 c39 9 117 25 171 36 54 11 105 25 113 32 22 18 12 61 -18 75 -23 11 -49 8
-174 -17 -82 -17 -152 -30 -157 -30 -4 0 -8 120 -8 268 0 226 -2 271 -16 290
-17 25 -56 29 -73 8z"/>
</g>
</svg>
