<?xml version="1.0" standalone="no"?>
<!DOCTYPE svg PUBLIC "-//W3C//DTD SVG 20010904//EN"
 "http://www.w3.org/TR/2001/REC-SVG-20010904/DTD/svg10.dtd">
<svg version="1.0" xmlns="http://www.w3.org/2000/svg"
 width="248.000000pt" height="248.000000pt" viewBox="0 0 248.000000 248.000000"
 preserveAspectRatio="xMidYMid meet">
<metadata>
Created by potrace 1.10, written by Peter Selinger 2001-2011
</metadata>
<g transform="translate(0.000000,248.000000) scale(0.100000,-0.100000)"
fill="#000000" stroke="none">
<path d="M1342 2208 c-35 -29 -238 -174 -402 -286 -57 -39 -72 -70 -50 -98 18
-21 61 -17 100 9 19 13 48 32 64 42 l28 19 -7 -85 c-4 -46 -10 -88 -15 -92
-11 -12 -106 -35 -195 -47 -86 -12 -200 -43 -222 -61 -16 -14 -17 -51 -1 -67
16 -16 59 -15 121 3 29 8 97 21 152 29 55 8 108 18 118 21 15 6 17 0 17 -61 0
-108 -2 -111 -73 -119 -34 -4 -93 -13 -132 -21 -38 -8 -86 -17 -105 -20 -50
-8 -73 -32 -66 -69 19 -102 47 -284 57 -370 6 -55 16 -108 20 -117 15 -27 46
-31 82 -10 17 11 67 27 111 35 l79 15 -5 -89 c-3 -50 -7 -92 -10 -94 -2 -2
-49 -14 -103 -25 -55 -12 -113 -26 -128 -32 -78 -30 -44 -125 36 -99 45 15
156 41 173 41 12 0 14 -17 12 -91 l-3 -92 -140 -37 c-77 -21 -159 -43 -182
-49 -46 -13 -68 -40 -58 -71 13 -41 39 -43 153 -11 59 16 167 46 240 66 167
45 370 112 400 131 24 16 29 53 10 72 -20 20 -62 14 -184 -28 -65 -22 -119
-40 -121 -40 -2 0 -2 39 -1 88 l3 87 40 9 c112 24 146 37 156 60 8 17 8 30 -1
46 -13 24 -25 24 -147 4 l-43 -7 0 45 c0 25 3 66 6 91 l6 45 91 16 c63 12 93
14 101 6 16 -16 61 -12 79 8 29 32 156 514 144 546 -13 32 -52 37 -180 20 -67
-8 -138 -19 -157 -24 -65 -18 -64 -19 -56 77 3 48 10 91 14 94 8 8 288 65 372
75 36 5 61 15 77 30 28 28 28 35 4 65 l-18 23 -94 -17 c-52 -9 -147 -26 -211
-38 -65 -13 -120 -21 -122 -18 -8 7 17 223 26 236 5 6 56 44 114 84 137 94
154 119 114 159 -27 27 -42 25 -88 -12z m83 -860 c-12 -52 -24 -80 -34 -74 -4
3 -62 -3 -127 -14 -66 -11 -120 -20 -122 -20 -2 0 -2 21 0 47 l3 48 45 8 c67
12 213 35 228 36 10 1 12 -7 7 -31z m-393 -39 c2 -5 2 -27 0 -47 l-4 -37 -111
-21 c-62 -12 -113 -21 -113 -20 -1 0 -4 20 -7 44 -5 40 -3 44 21 53 14 5 64
16 111 23 47 8 89 14 93 15 3 0 8 -4 10 -10z m343 -171 c-4 -18 -15 -53 -24
-77 l-16 -45 -103 -16 -103 -16 3 68 c1 38 5 73 8 77 5 8 167 38 213 40 27 1
28 -1 22 -31z m-345 -85 c0 -38 -4 -73 -8 -79 -7 -11 -179 -50 -187 -43 -2 2
-6 36 -10 76 l-7 71 78 17 c44 9 84 18 89 20 40 14 45 6 45 -62z"/>
<path d="M669 2209 c-14 -14 -19 -28 -15 -44 4 -15 -10 -69 -38 -147 -96 -268
-158 -436 -183 -493 -30 -70 -169 -306 -225 -382 -52 -72 -60 -95 -41 -122 35
-51 85 -11 184 149 l41 65 -6 -384 c-4 -254 -11 -428 -22 -513 -14 -118 -14
-131 1 -154 20 -31 60 -32 79 -2 7 13 16 57 20 98 3 41 10 120 15 175 6 55 13
266 16 470 6 301 5 377 -7 410 -13 38 -12 43 20 108 18 37 65 154 103 260 39
106 88 241 110 300 44 122 49 177 19 207 -26 26 -45 25 -71 -1z"/>
</g>
</svg>
