<?xml version="1.0" standalone="no"?>
<!DOCTYPE svg PUBLIC "-//W3C//DTD SVG 20010904//EN"
 "http://www.w3.org/TR/2001/REC-SVG-20010904/DTD/svg10.dtd">
<svg version="1.0" xmlns="http://www.w3.org/2000/svg"
 width="248.000000pt" height="248.000000pt" viewBox="0 0 248.000000 248.000000"
 preserveAspectRatio="xMidYMid meet">
<metadata>
Created by potrace 1.10, written by Peter Selinger 2001-2011
</metadata>
<g transform="translate(0.000000,248.000000) scale(0.100000,-0.100000)"
fill="#000000" stroke="none">
<path d="M561 2266 c-14 -16 -30 -227 -31 -391 0 -60 -4 -115 -8 -121 -9 -14
-287 -84 -333 -84 -19 0 -40 -5 -47 -12 -15 -15 -15 -51 0 -66 21 -21 141 -14
238 13 101 28 127 31 113 13 -6 -7 -40 -87 -77 -178 -76 -186 -164 -358 -240
-470 -62 -92 -66 -99 -55 -127 12 -33 58 -31 90 5 67 74 206 321 270 480 18
45 36 79 40 75 4 -5 1 -127 -6 -273 -8 -146 -15 -395 -16 -554 -2 -271 -1
-290 16 -302 23 -17 36 -18 58 -2 15 12 18 45 22 313 2 165 9 368 14 450 6 83
11 213 11 291 0 77 3 143 6 147 4 3 48 -32 98 -78 56 -53 99 -85 113 -85 26 0
53 25 53 48 0 9 -47 61 -105 117 -131 125 -169 173 -154 191 6 8 16 14 21 14
6 0 51 18 102 41 114 51 137 77 100 113 -24 24 -55 20 -139 -20 -42 -20 -80
-33 -84 -28 -4 5 -3 111 2 237 10 244 8 257 -38 257 -12 0 -28 -6 -34 -14z"/>
<path d="M1865 2233 c-15 -16 -52 -64 -81 -108 -29 -44 -80 -111 -113 -148
-61 -68 -75 -104 -48 -124 6 -5 51 -24 100 -43 48 -18 87 -37 87 -43 0 -5 -38
-63 -85 -128 -48 -67 -85 -129 -85 -142 0 -29 18 -47 47 -47 24 0 262 93 352
138 31 15 56 23 58 17 28 -71 61 -120 81 -123 32 -5 52 15 52 52 0 31 -106
253 -137 289 -20 21 -56 22 -74 1 -12 -15 -7 -53 15 -104 4 -10 -4 -21 -25
-33 -40 -22 -159 -70 -164 -65 -2 2 50 84 116 182 65 98 119 189 119 200 0 48
-52 62 -87 24 -11 -13 -42 -54 -68 -91 -53 -76 -58 -77 -140 -43 l-37 16 40
47 c22 27 56 73 75 103 19 30 49 72 66 94 32 41 39 74 19 94 -20 20 -54 14
-83 -15z"/>
<path d="M1158 2183 c-14 -16 -49 -64 -78 -108 -106 -161 -144 -216 -162 -232
-21 -19 -24 -56 -5 -70 6 -6 51 -22 100 -37 48 -15 87 -29 87 -33 0 -3 -33
-50 -72 -105 -105 -142 -104 -141 -90 -172 21 -47 74 -36 300 63 51 23 98 41
105 41 6 0 24 -21 39 -46 15 -24 38 -48 50 -53 47 -18 88 40 55 77 -8 9 -40
63 -71 118 -31 56 -65 104 -74 106 -47 13 -84 -31 -62 -72 6 -12 10 -25 8 -31
-3 -9 -158 -81 -158 -73 0 2 26 43 58 92 32 48 74 113 93 145 18 33 49 76 67
97 46 54 40 100 -14 100 -33 0 -67 -33 -120 -113 -26 -39 -48 -74 -50 -75 -1
-2 -28 4 -59 13 -40 11 -55 20 -51 30 2 7 48 79 100 159 53 80 96 153 96 164
0 47 -53 56 -92 15z"/>
</g>
</svg>
