<?xml version="1.0" standalone="no"?>
<!DOCTYPE svg PUBLIC "-//W3C//DTD SVG 20010904//EN"
 "http://www.w3.org/TR/2001/REC-SVG-20010904/DTD/svg10.dtd">
<svg version="1.0" xmlns="http://www.w3.org/2000/svg"
 width="248.000000pt" height="248.000000pt" viewBox="0 0 248.000000 248.000000"
 preserveAspectRatio="xMidYMid meet">
<metadata>
Created by potrace 1.10, written by Peter Selinger 2001-2011
</metadata>
<g transform="translate(0.000000,248.000000) scale(0.100000,-0.100000)"
fill="#000000" stroke="none">
<path d="M561 2266 c-14 -16 -30 -227 -31 -391 0 -60 -4 -115 -8 -121 -9 -14
-287 -84 -333 -84 -19 0 -40 -5 -47 -12 -15 -15 -15 -51 0 -66 21 -21 141 -14
238 13 101 28 127 31 113 13 -6 -7 -40 -87 -77 -178 -76 -186 -164 -358 -240
-470 -62 -92 -66 -99 -55 -127 12 -33 58 -31 90 5 67 74 206 321 270 480 18
45 36 79 40 75 4 -5 1 -127 -6 -273 -8 -146 -15 -395 -16 -554 -2 -271 -1
-290 16 -302 23 -17 36 -18 58 -2 15 12 18 45 22 313 2 165 9 368 14 450 6 83
11 213 11 291 0 77 3 143 6 147 4 3 48 -32 98 -78 56 -53 99 -85 113 -85 26 0
53 25 53 48 0 9 -47 61 -105 117 -131 125 -169 173 -154 191 6 8 16 14 21 14
6 0 51 18 102 41 114 51 137 77 100 113 -24 24 -55 20 -139 -20 -42 -20 -80
-33 -84 -28 -4 5 -3 111 2 237 10 244 8 257 -38 257 -12 0 -28 -6 -34 -14z"/>
</g>
</svg>
