<?xml version="1.0" standalone="no"?>
<!DOCTYPE svg PUBLIC "-//W3C//DTD SVG 20010904//EN"
 "http://www.w3.org/TR/2001/REC-SVG-20010904/DTD/svg10.dtd">
<svg version="1.0" xmlns="http://www.w3.org/2000/svg"
 width="248.000000pt" height="248.000000pt" viewBox="0 0 248.000000 248.000000"
 preserveAspectRatio="xMidYMid meet">
<metadata>
Created by potrace 1.10, written by Peter Selinger 2001-2011
</metadata>
<g transform="translate(0.000000,248.000000) scale(0.100000,-0.100000)"
fill="#000000" stroke="none">
<path d="M669 2209 c-14 -14 -19 -28 -15 -44 4 -15 -10 -69 -38 -147 -96 -268
-158 -436 -183 -493 -30 -70 -169 -306 -225 -382 -52 -72 -60 -95 -41 -122 25
-36 61 -24 106 34 47 62 216 342 246 410 20 44 77 196 202 538 44 122 49 177
19 207 -26 26 -45 25 -71 -1z"/>
</g>
</svg>
