<?xml version="1.0" standalone="no"?>
<!DOCTYPE svg PUBLIC "-//W3C//DTD SVG 20010904//EN"
 "http://www.w3.org/TR/2001/REC-SVG-20010904/DTD/svg10.dtd">
<svg version="1.0" xmlns="http://www.w3.org/2000/svg"
 width="248.000000pt" height="248.000000pt" viewBox="0 0 248.000000 248.000000"
 preserveAspectRatio="xMidYMid meet">
<metadata>
Created by potrace 1.10, written by Peter Selinger 2001-2011
</metadata>
<g transform="translate(0.000000,248.000000) scale(0.100000,-0.100000)"
fill="#000000" stroke="none">
<path d="M579 2344 c-10 -12 -16 -59 -19 -157 l-5 -141 -50 -13 c-76 -20 -233
-53 -303 -63 -35 -5 -70 -14 -78 -21 -24 -20 -13 -62 21 -78 27 -13 44 -11
185 17 85 18 165 35 178 38 20 6 22 3 22 -37 0 -94 -46 -385 -81 -509 -10 -36
-21 -87 -25 -115 -10 -73 -124 -411 -182 -545 -28 -63 -72 -151 -97 -195 -69
-122 -71 -157 -6 -163 26 -3 34 2 49 28 9 18 34 60 54 95 84 141 266 625 283
752 4 26 15 77 25 113 10 36 24 97 31 137 6 39 15 76 18 80 5 8 97 21 290 40
l54 6 -6 -124 c-13 -234 -47 -422 -135 -739 -44 -159 -198 -478 -237 -494 -17
-6 -61 48 -108 130 -28 51 -37 59 -65 62 -26 3 -34 -1 -43 -22 -15 -32 6 -83
70 -171 105 -144 140 -156 223 -73 34 34 121 183 160 273 22 50 45 101 52 115
16 30 54 162 95 330 65 273 87 410 98 621 10 196 -9 212 -223 185 -71 -9 -147
-16 -168 -16 l-39 0 7 58 c4 31 9 91 13 133 l6 77 196 37 c108 21 211 44 229
51 29 12 33 17 30 45 -5 55 -20 56 -205 21 -92 -18 -180 -35 -195 -39 l-28 -5
0 124 c0 96 -4 129 -16 146 -18 26 -56 29 -75 6z"/>
<path d="M1290 2335 c-7 -9 -19 -66 -26 -128 -15 -131 -50 -273 -91 -377 -32
-79 -32 -104 -1 -121 27 -15 56 -2 73 32 77 147 155 517 122 579 -15 30 -58
38 -77 15z"/>
</g>
</svg>
