<?xml version="1.0" standalone="no"?>
<!DOCTYPE svg PUBLIC "-//W3C//DTD SVG 20010904//EN"
 "http://www.w3.org/TR/2001/REC-SVG-20010904/DTD/svg10.dtd">
<svg version="1.0" xmlns="http://www.w3.org/2000/svg"
 width="248.000000pt" height="248.000000pt" viewBox="0 0 248.000000 248.000000"
 preserveAspectRatio="xMidYMid meet">
<metadata>
Created by potrace 1.10, written by Peter Selinger 2001-2011
</metadata>
<g transform="translate(0.000000,248.000000) scale(0.100000,-0.100000)"
fill="#000000" stroke="none">
<path d="M1342 2208 c-35 -29 -238 -174 -402 -286 -57 -39 -72 -70 -50 -98 26
-30 65 -15 193 74 350 242 367 255 367 289 0 17 -36 53 -54 53 -8 0 -32 -15
-54 -32z"/>
<path d="M669 2209 c-14 -14 -19 -28 -15 -44 4 -15 -10 -69 -38 -147 -96 -268
-158 -436 -183 -493 -30 -70 -169 -306 -225 -382 -52 -72 -60 -95 -41 -122 35
-51 85 -11 184 149 l41 65 -6 -384 c-4 -254 -11 -428 -22 -513 -14 -118 -14
-131 1 -154 20 -31 60 -32 79 -2 7 13 16 57 20 98 3 41 10 120 15 175 6 55 13
266 16 470 6 301 5 377 -7 410 -13 38 -12 43 20 108 18 37 65 154 103 260 39
106 88 241 110 300 44 122 49 177 19 207 -26 26 -45 25 -71 -1z"/>
<path d="M1535 1803 c-11 -2 -78 -15 -150 -28 -71 -14 -173 -34 -225 -46 -223
-49 -268 -57 -320 -64 -63 -7 -177 -40 -197 -56 -17 -15 -17 -54 2 -69 16 -14
51 -11 165 13 41 9 111 23 155 31 44 8 177 35 295 59 118 25 240 48 270 52 65
9 86 18 100 46 9 16 8 26 -5 45 -15 24 -39 28 -90 17z"/>
<path d="M1390 1479 c-36 -5 -117 -18 -180 -29 -63 -11 -166 -27 -229 -35 -63
-9 -134 -20 -158 -25 -24 -6 -60 -13 -81 -16 -52 -8 -75 -31 -68 -69 20 -107
47 -285 57 -374 13 -106 29 -141 64 -141 30 0 57 40 52 73 -17 97 -30 207 -25
212 7 7 173 40 273 54 44 7 124 19 177 28 54 9 101 13 104 10 4 -4 -10 -58
-30 -122 -29 -91 -34 -119 -26 -135 13 -25 61 -27 83 -2 29 32 156 514 144
546 -7 18 -48 37 -75 35 -9 -1 -46 -6 -82 -10z m35 -131 c-12 -52 -24 -80 -34
-74 -5 3 -47 -1 -92 -8 -46 -8 -146 -24 -221 -35 -75 -12 -167 -27 -205 -35
-37 -8 -68 -14 -69 -13 -1 1 -4 21 -7 45 -7 55 -11 54 247 93 110 17 237 37
281 44 114 19 108 20 100 -17z"/>
</g>
</svg>
