<?xml version="1.0" standalone="no"?>
<!DOCTYPE svg PUBLIC "-//W3C//DTD SVG 20010904//EN"
 "http://www.w3.org/TR/2001/REC-SVG-20010904/DTD/svg10.dtd">
<svg version="1.0" xmlns="http://www.w3.org/2000/svg"
 width="248.000000pt" height="248.000000pt" viewBox="0 0 248.000000 248.000000"
 preserveAspectRatio="xMidYMid meet">
<metadata>
Created by potrace 1.10, written by Peter Selinger 2001-2011
</metadata>
<g transform="translate(0.000000,248.000000) scale(0.100000,-0.100000)"
fill="#000000" stroke="none">
<path d="M1472 2288 c-23 -23 -9 -362 24 -581 8 -55 32 -181 54 -279 22 -99
40 -183 40 -187 0 -8 -45 -17 -295 -56 -194 -30 -345 -62 -362 -76 -16 -14
-17 -51 -1 -67 16 -16 77 -15 158 3 36 7 66 12 68 11 4 -4 -25 -139 -53 -243
-39 -148 -133 -317 -192 -345 -59 -28 -23 -103 43 -90 53 10 142 132 203 277
14 33 26 62 28 64 1 2 39 -29 83 -68 80 -71 113 -84 138 -59 22 22 13 59 -20
92 -18 17 -64 60 -102 94 l-69 64 17 71 c10 39 20 92 23 118 l6 48 46 6 c25 4
106 17 179 29 73 13 134 20 137 16 2 -3 17 -43 34 -89 17 -45 56 -138 87 -206
l56 -123 -30 -44 c-16 -24 -71 -81 -122 -127 -75 -68 -91 -88 -88 -109 4 -32
28 -47 61 -39 14 4 74 54 134 111 59 58 111 102 114 98 3 -4 27 -38 54 -75 99
-141 349 -377 399 -377 13 0 31 9 41 20 16 17 19 44 23 175 5 166 1 185 -43
185 -36 0 -45 -22 -52 -129 -3 -56 -8 -101 -10 -101 -3 0 -30 21 -61 48 -123
104 -308 346 -296 385 3 10 21 44 39 75 39 65 105 233 105 266 0 28 -18 46
-47 46 -28 0 -43 -22 -83 -123 -38 -98 -68 -157 -79 -157 -13 0 -131 280 -131
311 0 3 82 23 183 44 100 20 192 44 205 51 24 16 29 53 10 72 -7 7 -26 12 -44
12 -27 0 -32 4 -37 30 -5 21 -28 47 -82 91 -41 34 -75 65 -75 68 0 4 17 13 38
20 20 7 66 27 101 44 36 17 66 27 68 22 28 -71 61 -120 81 -123 32 -5 52 15
52 52 0 31 -106 253 -137 289 -20 21 -56 22 -74 1 -12 -15 -7 -53 15 -104 4
-10 -4 -21 -25 -33 -40 -22 -159 -70 -164 -65 -2 2 50 84 116 182 65 98 119
189 119 200 0 48 -52 62 -87 24 -11 -13 -42 -54 -68 -91 -53 -76 -58 -77 -140
-43 l-37 16 40 47 c22 27 56 73 75 103 19 30 49 72 66 94 45 56 38 106 -15
106 -29 0 -66 -39 -130 -135 -29 -44 -80 -111 -113 -148 -61 -68 -75 -104 -48
-124 6 -5 51 -24 100 -43 48 -18 87 -37 87 -42 0 -10 -157 -235 -170 -243 -19
-12 -57 242 -76 520 -9 127 -21 236 -27 243 -12 15 -49 16 -65 0z m338 -823
c0 -7 17 -28 38 -45 91 -80 113 -102 108 -107 -7 -8 -213 -52 -242 -53 -19 0
-24 11 -43 89 -11 49 -21 94 -21 98 0 5 15 8 33 6 17 -2 50 5 72 15 42 20 55
19 55 -3z"/>
<path d="M561 2266 c-14 -16 -30 -227 -31 -391 0 -60 -4 -115 -8 -121 -9 -14
-287 -84 -333 -84 -19 0 -40 -5 -47 -12 -15 -15 -15 -51 0 -66 21 -21 141 -14
238 13 101 28 127 31 113 13 -6 -7 -40 -87 -77 -178 -76 -186 -164 -358 -240
-470 -62 -92 -66 -99 -55 -127 12 -33 58 -31 90 5 67 74 206 321 270 480 18
45 36 79 40 75 4 -5 1 -127 -6 -273 -8 -146 -15 -395 -16 -554 -2 -271 -1
-290 16 -302 23 -17 36 -18 58 -2 15 12 18 45 22 313 2 165 9 368 14 450 6 83
11 213 11 291 0 77 3 143 6 147 4 3 48 -32 98 -78 56 -53 99 -85 113 -85 26 0
53 25 53 48 0 9 -47 61 -105 117 -131 125 -169 173 -154 191 6 8 16 14 21 14
6 0 51 18 102 41 114 51 137 77 100 113 -24 24 -55 20 -139 -20 -42 -20 -80
-33 -84 -28 -4 5 -3 111 2 237 10 244 8 257 -38 257 -12 0 -28 -6 -34 -14z"/>
<path d="M1158 2183 c-14 -16 -49 -64 -78 -108 -106 -161 -144 -216 -162 -232
-21 -19 -24 -56 -5 -70 6 -6 51 -22 100 -37 48 -15 87 -29 87 -33 0 -3 -33
-50 -72 -105 -105 -142 -104 -141 -90 -172 21 -47 74 -36 300 63 51 23 98 41
105 41 6 0 24 -21 39 -46 15 -24 38 -48 50 -53 47 -18 88 40 55 77 -8 9 -40
63 -71 118 -31 56 -65 104 -74 106 -47 13 -84 -31 -62 -72 6 -12 10 -25 8 -31
-3 -9 -158 -81 -158 -73 0 2 26 43 58 92 32 48 74 113 93 145 18 33 49 76 67
97 46 54 40 100 -14 100 -33 0 -67 -33 -120 -113 -26 -39 -48 -74 -50 -75 -1
-2 -28 4 -59 13 -40 11 -55 20 -51 30 2 7 48 79 100 159 53 80 96 153 96 164
0 47 -53 56 -92 15z"/>
</g>
</svg>
