<?xml version="1.0" standalone="no"?>
<!DOCTYPE svg PUBLIC "-//W3C//DTD SVG 20010904//EN"
 "http://www.w3.org/TR/2001/REC-SVG-20010904/DTD/svg10.dtd">
<svg version="1.0" xmlns="http://www.w3.org/2000/svg"
 width="248.000000pt" height="248.000000pt" viewBox="0 0 248.000000 248.000000"
 preserveAspectRatio="xMidYMid meet">
<metadata>
Created by potrace 1.10, written by Peter Selinger 2001-2011
</metadata>
<g transform="translate(0.000000,248.000000) scale(0.100000,-0.100000)"
fill="#000000" stroke="none">
<path d="M1060 2194 c-74 -12 -171 -30 -215 -38 -44 -9 -95 -16 -112 -16 -35
0 -73 -29 -73 -55 0 -8 9 -24 21 -36 22 -22 40 -22 189 6 173 32 180 33 180
18 0 -7 -42 -77 -94 -156 -93 -140 -181 -248 -235 -286 l-28 -20 -129 65 c-71
36 -141 74 -155 86 -32 24 -65 17 -81 -18 -15 -32 11 -69 72 -101 25 -13 82
-43 128 -67 l83 -43 -83 -73 c-97 -85 -234 -179 -333 -229 -63 -32 -70 -39
-73 -68 -3 -27 1 -35 22 -44 20 -10 34 -9 71 5 64 25 297 182 381 257 38 35
114 102 167 149 103 90 226 238 296 355 68 113 66 111 94 89 13 -11 73 -56
133 -101 60 -45 129 -97 154 -116 25 -19 86 -58 135 -87 50 -29 146 -90 215
-135 253 -167 329 -209 488 -275 85 -35 109 -42 130 -34 22 8 27 16 27 44 0
34 -2 35 -80 68 -86 35 -233 109 -305 153 -25 16 -66 40 -92 55 -27 15 -48 30
-48 33 0 4 52 58 115 121 117 116 134 147 103 178 -28 28 -56 11 -164 -94 -60
-59 -119 -113 -131 -121 -21 -14 -30 -10 -150 63 -153 92 -183 112 -183 124 0
5 26 26 58 46 72 46 253 182 270 202 6 9 12 22 12 29 0 17 -36 53 -54 53 -8 0
-61 -35 -118 -79 -57 -43 -131 -96 -164 -116 -32 -21 -68 -46 -80 -57 -20 -18
-21 -18 -90 33 -84 63 -134 109 -134 124 0 6 11 22 25 35 38 36 31 77 -15 91
-8 3 -76 -5 -150 -17z"/>
<path d="M1447 1444 c-127 -34 -479 -84 -601 -84 -69 0 -101 -17 -101 -55 0
-44 33 -57 119 -50 52 5 71 3 77 -7 20 -31 3 -284 -21 -311 -15 -17 -263 -58
-368 -61 -67 -2 -92 -46 -51 -87 20 -20 28 -21 98 -15 105 9 146 15 219 32 35
8 66 14 68 14 17 0 -80 -222 -131 -300 -23 -36 -64 -86 -91 -111 -57 -54 -152
-119 -174 -119 -26 0 -60 -30 -60 -54 0 -32 19 -46 60 -46 50 1 104 28 193 99
126 100 212 233 285 441 l37 104 80 12 c178 27 395 44 575 44 121 0 198 4 214
12 42 19 46 70 8 94 -25 16 -401 0 -642 -27 -101 -11 -187 -21 -190 -22 -11
-4 -11 21 1 102 6 46 9 115 7 152 l-5 68 46 7 c113 15 424 75 442 84 33 18 43
48 24 76 -18 27 -42 29 -118 8z"/>
</g>
</svg>
