<?xml version="1.0" standalone="no"?>
<!DOCTYPE svg PUBLIC "-//W3C//DTD SVG 20010904//EN"
 "http://www.w3.org/TR/2001/REC-SVG-20010904/DTD/svg10.dtd">
<svg version="1.0" xmlns="http://www.w3.org/2000/svg"
 width="248.000000pt" height="248.000000pt" viewBox="0 0 248.000000 248.000000"
 preserveAspectRatio="xMidYMid meet">
<metadata>
Created by potrace 1.10, written by Peter Selinger 2001-2011
</metadata>
<g transform="translate(0.000000,248.000000) scale(0.100000,-0.100000)"
fill="#000000" stroke="none">
<path d="M1070 2374 c-25 -2 -112 -13 -195 -24 -82 -11 -181 -25 -219 -30 -39
-5 -76 -16 -85 -25 -13 -13 -17 -55 -23 -248 -3 -128 -7 -287 -7 -353 l-1
-122 -42 -5 c-24 -2 -92 -10 -153 -16 -60 -7 -121 -18 -135 -25 -36 -17 -39
-60 -5 -82 28 -18 34 -18 308 21 65 9 121 14 124 11 8 -7 -31 -60 -115 -156
-35 -40 -68 -83 -74 -95 -15 -34 -2 -74 27 -81 27 -7 285 57 457 112 l108 35
32 -38 c56 -64 67 -73 91 -73 30 0 47 18 47 51 0 19 -28 58 -101 143 -101 117
-127 134 -157 104 -15 -15 -16 -64 -2 -73 21 -13 9 -32 -27 -44 -69 -22 -286
-81 -289 -78 -1 1 16 26 39 54 49 60 97 136 97 151 0 12 23 17 165 33 121 13
239 35 265 49 25 13 34 44 20 70 -12 22 -56 26 -125 10 -22 -5 -80 -14 -130
-19 -49 -6 -126 -15 -170 -21 -44 -6 -95 -13 -112 -15 l-33 -4 0 68 0 68 48 7
c26 4 83 11 127 16 271 29 305 38 305 83 0 13 -5 28 -12 35 -16 16 -105 15
-213 -4 -97 -17 -248 -34 -254 -28 -2 1 0 30 4 63 8 66 3 62 90 76 22 4 113
17 203 30 173 25 212 40 212 78 0 50 -32 56 -177 33 -49 -8 -126 -19 -173 -25
-47 -7 -100 -14 -117 -18 l-33 -5 0 74 0 74 138 18 c75 10 184 22 242 27 122
12 154 24 158 60 5 44 -34 60 -128 53z"/>
<path d="M1891 2335 c-36 -25 -68 -45 -73 -45 -5 0 -25 -11 -46 -24 -85 -53
-229 -134 -252 -141 -14 -4 -64 -28 -112 -52 -90 -46 -108 -66 -88 -103 17
-32 70 -26 156 20 42 22 81 40 87 40 7 1 46 20 87 45 41 24 120 68 175 99 175
97 229 150 195 192 -22 25 -63 15 -129 -31z"/>
<path d="M1873 1930 c-39 -28 -116 -73 -170 -101 -54 -28 -103 -55 -108 -60
-6 -4 -51 -29 -100 -54 -50 -26 -98 -54 -107 -62 -25 -23 -22 -60 6 -78 23
-15 29 -13 134 42 385 202 492 271 492 318 0 60 -54 58 -147 -5z"/>
<path d="M1925 1585 c-22 -13 -66 -37 -97 -54 -31 -16 -89 -49 -130 -74 -40
-24 -137 -76 -214 -116 -146 -73 -165 -91 -143 -133 6 -11 21 -18 39 -18 30 0
230 95 340 161 30 18 89 50 130 72 124 66 185 110 188 135 8 54 -47 68 -113
27z"/>
<path d="M1152 1138 c-5 -7 -24 -43 -42 -80 -17 -37 -35 -70 -41 -73 -5 -4
-66 -11 -136 -16 -71 -5 -184 -16 -253 -24 -69 -8 -170 -17 -225 -20 -60 -4
-109 -13 -122 -21 -31 -19 -30 -59 1 -79 20 -14 41 -14 157 -5 74 6 161 15
194 20 33 5 111 12 174 16 l114 7 -29 -37 c-95 -121 -438 -382 -617 -471 -42
-20 -83 -46 -93 -56 -17 -19 -17 -23 -3 -47 8 -15 24 -28 35 -30 57 -8 426
221 564 351 114 107 68 96 388 99 155 2 282 2 282 1 0 -1 -19 -23 -42 -50
-100 -116 -270 -232 -478 -327 -58 -26 -112 -52 -122 -56 -13 -7 -136 -54
-228 -87 -8 -3 -43 -9 -78 -13 -70 -9 -92 -22 -92 -55 0 -35 27 -50 89 -49 83
2 256 62 495 173 248 115 456 277 558 435 41 63 46 91 24 122 -14 18 -27 19
-298 15 l-283 -3 44 48 c25 27 45 50 46 52 1 1 62 7 136 12 74 5 215 16 314
25 188 16 354 30 517 43 103 9 128 20 128 58 0 42 -39 58 -128 50 -91 -7 -229
-19 -482 -41 -233 -20 -414 -33 -418 -30 -1 1 5 18 13 38 18 44 19 89 3 105
-16 16 -53 15 -66 0z"/>
</g>
</svg>
