<?xml version="1.0" standalone="no"?>
<!DOCTYPE svg PUBLIC "-//W3C//DTD SVG 20010904//EN"
 "http://www.w3.org/TR/2001/REC-SVG-20010904/DTD/svg10.dtd">
<svg version="1.0" xmlns="http://www.w3.org/2000/svg"
 width="248.000000pt" height="248.000000pt" viewBox="0 0 248.000000 248.000000"
 preserveAspectRatio="xMidYMid meet">
<metadata>
Created by potrace 1.10, written by Peter Selinger 2001-2011
</metadata>
<g transform="translate(0.000000,248.000000) scale(0.100000,-0.100000)"
fill="#000000" stroke="none">
<path d="M1035 2370 c-44 -4 -114 -13 -155 -19 -41 -7 -124 -18 -184 -25 -72
-9 -114 -19 -125 -30 -14 -14 -17 -62 -24 -348 -5 -181 -6 -346 -2 -364 10
-56 75 -71 94 -21 5 12 12 164 16 338 l7 315 137 18 c75 10 183 22 241 27 122
12 154 24 158 60 6 49 -34 61 -163 49z"/>
</g>
</svg>
