<?xml version="1.0" standalone="no"?>
<!DOCTYPE svg PUBLIC "-//W3C//DTD SVG 20010904//EN"
 "http://www.w3.org/TR/2001/REC-SVG-20010904/DTD/svg10.dtd">
<svg version="1.0" xmlns="http://www.w3.org/2000/svg"
 width="248.000000pt" height="248.000000pt" viewBox="0 0 248.000000 248.000000"
 preserveAspectRatio="xMidYMid meet">
<metadata>
Created by potrace 1.10, written by Peter Selinger 2001-2011
</metadata>
<g transform="translate(0.000000,248.000000) scale(0.100000,-0.100000)"
fill="#000000" stroke="none">
<path d="M1035 2370 c-44 -4 -114 -13 -155 -19 -41 -7 -124 -18 -184 -25 -72
-9 -114 -19 -125 -30 -13 -14 -17 -53 -23 -249 -3 -128 -6 -287 -7 -354 l-1
-121 -47 -5 c-279 -29 -306 -35 -311 -79 -2 -20 4 -31 23 -44 28 -18 48 -17
305 21 110 17 169 24 385 50 154 18 278 41 305 55 22 12 33 41 24 64 -10 26
-50 30 -153 13 -53 -9 -118 -19 -146 -22 -27 -3 -86 -10 -130 -16 -44 -5 -95
-12 -112 -14 l-33 -4 0 68 0 68 48 7 c26 4 83 11 127 16 271 29 305 38 305 83
0 13 -5 28 -12 35 -17 17 -103 15 -231 -7 -62 -11 -140 -21 -174 -24 -63 -5
-63 -5 -62 21 0 15 3 45 7 67 7 39 8 40 57 47 70 9 258 36 333 47 80 12 114
33 110 68 -5 46 -24 49 -175 29 -76 -10 -176 -25 -222 -32 -46 -8 -88 -14 -92
-14 -5 0 -9 33 -9 73 l0 73 138 18 c75 10 184 22 242 27 122 12 154 24 158 60
6 49 -34 61 -163 49z"/>
</g>
</svg>
