<?xml version="1.0" standalone="no"?>
<!DOCTYPE svg PUBLIC "-//W3C//DTD SVG 20010904//EN"
 "http://www.w3.org/TR/2001/REC-SVG-20010904/DTD/svg10.dtd">
<svg version="1.0" xmlns="http://www.w3.org/2000/svg"
 width="248.000000pt" height="248.000000pt" viewBox="0 0 248.000000 248.000000"
 preserveAspectRatio="xMidYMid meet">
<metadata>
Created by potrace 1.10, written by Peter Selinger 2001-2011
</metadata>
<g transform="translate(0.000000,248.000000) scale(0.100000,-0.100000)"
fill="#000000" stroke="none">
<path d="M1035 2370 c-44 -4 -114 -13 -155 -19 -41 -7 -124 -18 -184 -25 -72
-9 -114 -19 -125 -30 -13 -14 -17 -53 -23 -249 -3 -128 -6 -287 -7 -354 l-1
-121 -47 -5 c-279 -29 -306 -35 -311 -79 -2 -20 4 -31 23 -44 28 -18 31 -18
308 21 65 10 120 15 123 12 9 -9 -17 -49 -62 -97 -112 -120 -140 -164 -130
-204 9 -36 43 -42 124 -21 200 52 296 79 381 107 89 29 95 30 107 13 60 -82
112 -113 142 -83 28 28 13 64 -69 159 -45 52 -90 104 -100 117 -21 24 -58 29
-77 10 -15 -15 -16 -64 -2 -73 21 -13 9 -32 -27 -44 -69 -22 -286 -81 -289
-78 -1 1 16 26 39 54 48 60 97 136 97 151 0 12 29 18 120 27 90 9 248 34 288
46 57 18 68 82 15 95 -14 4 -68 -1 -122 -9 -53 -9 -118 -19 -146 -22 -27 -3
-86 -10 -130 -16 -44 -5 -95 -12 -112 -14 l-33 -4 0 68 0 68 48 7 c26 4 83 11
127 16 271 29 305 38 305 83 0 13 -5 28 -12 35 -17 17 -103 15 -231 -7 -62
-11 -140 -21 -174 -24 -63 -5 -63 -5 -62 21 0 15 3 45 7 67 7 39 8 40 57 47
70 9 258 36 333 47 80 12 114 33 110 68 -5 46 -24 49 -175 29 -76 -10 -176
-25 -222 -32 -46 -8 -88 -14 -92 -14 -5 0 -9 33 -9 73 l0 73 138 18 c75 10
184 22 242 27 122 12 154 24 158 60 6 49 -34 61 -163 49z"/>
<path d="M1891 2335 c-36 -25 -68 -45 -72 -45 -4 0 -29 -13 -56 -29 -146 -89
-239 -141 -251 -141 -7 0 -53 -20 -102 -45 -92 -47 -110 -68 -90 -105 17 -32
70 -26 156 20 42 22 81 40 87 40 7 1 46 20 87 45 41 24 120 68 175 99 175 97
229 150 195 192 -22 25 -63 15 -129 -31z"/>
<path d="M1870 1928 c-41 -28 -118 -73 -170 -100 -52 -28 -100 -54 -105 -59
-6 -4 -51 -29 -100 -54 -50 -26 -98 -54 -107 -62 -25 -23 -22 -60 6 -78 22
-15 29 -13 132 41 173 89 344 185 417 234 69 46 89 78 70 109 -20 32 -64 23
-143 -31z"/>
</g>
</svg>
