<?xml version="1.0" standalone="no"?>
<!DOCTYPE svg PUBLIC "-//W3C//DTD SVG 20010904//EN"
 "http://www.w3.org/TR/2001/REC-SVG-20010904/DTD/svg10.dtd">
<svg version="1.0" xmlns="http://www.w3.org/2000/svg"
 width="248.000000pt" height="248.000000pt" viewBox="0 0 248.000000 248.000000"
 preserveAspectRatio="xMidYMid meet">
<metadata>
Created by potrace 1.10, written by Peter Selinger 2001-2011
</metadata>
<g transform="translate(0.000000,248.000000) scale(0.100000,-0.100000)"
fill="#000000" stroke="none">
<path d="M1060 2194 c-74 -12 -171 -30 -215 -38 -44 -9 -95 -16 -112 -16 -35
0 -73 -29 -73 -55 0 -8 9 -24 21 -36 22 -22 45 -21 184 6 39 7 92 17 119 20
27 4 56 9 64 13 24 9 13 -12 -91 -170 -94 -141 -182 -249 -236 -287 l-28 -20
-129 65 c-71 36 -141 74 -155 86 -32 24 -65 17 -81 -18 -15 -32 11 -69 72
-101 25 -13 82 -43 128 -67 l83 -43 -83 -73 c-97 -85 -234 -179 -333 -229 -63
-32 -70 -39 -73 -68 -3 -27 1 -35 22 -44 38 -18 93 7 249 111 122 82 359 280
467 391 53 54 150 186 260 354 43 66 90 131 104 144 39 37 33 78 -14 92 -8 3
-76 -5 -150 -17z"/>
</g>
</svg>
