<?xml version="1.0" standalone="no"?>
<!DOCTYPE svg PUBLIC "-//W3C//DTD SVG 20010904//EN"
 "http://www.w3.org/TR/2001/REC-SVG-20010904/DTD/svg10.dtd">
<svg version="1.0" xmlns="http://www.w3.org/2000/svg"
 width="248.000000pt" height="248.000000pt" viewBox="0 0 248.000000 248.000000"
 preserveAspectRatio="xMidYMid meet">
<metadata>
Created by potrace 1.10, written by Peter Selinger 2001-2011
</metadata>
<g transform="translate(0.000000,248.000000) scale(0.100000,-0.100000)"
fill="#000000" stroke="none">
<path d="M634 2355 c-14 -21 -15 -40 -9 -116 3 -50 3 -176 -1 -280 -6 -161 -9
-189 -23 -193 -43 -14 -237 -39 -321 -43 -52 -3 -101 -10 -107 -15 -19 -15
-16 -52 5 -71 39 -35 106 -33 371 14 30 5 58 9 64 9 9 0 2 -1142 -8 -1370 -4
-84 -2 -122 7 -140 16 -31 59 -38 79 -14 21 26 28 208 35 912 3 342 7 622 8
622 7 0 292 52 334 60 56 13 78 36 67 71 -12 37 -43 38 -205 8 -85 -15 -165
-28 -177 -29 l-22 0 2 273 c2 246 0 276 -16 300 -23 35 -61 36 -83 2z"/>
</g>
</svg>
