<?xml version="1.0" standalone="no"?>
<!DOCTYPE svg PUBLIC "-//W3C//DTD SVG 20010904//EN"
 "http://www.w3.org/TR/2001/REC-SVG-20010904/DTD/svg10.dtd">
<svg version="1.0" xmlns="http://www.w3.org/2000/svg"
 width="248.000000pt" height="248.000000pt" viewBox="0 0 248.000000 248.000000"
 preserveAspectRatio="xMidYMid meet">
<metadata>
Created by potrace 1.10, written by Peter Selinger 2001-2011
</metadata>
<g transform="translate(0.000000,248.000000) scale(0.100000,-0.100000)"
fill="#000000" stroke="none">
<path d="M950 1814 c-69 -13 -181 -31 -250 -39 -69 -8 -168 -22 -220 -31 -52
-8 -140 -18 -195 -21 -107 -6 -125 -13 -125 -48 0 -57 80 -76 222 -52 160 27
230 37 325 47 81 9 328 51 391 67 48 12 52 76 5 94 -13 5 -25 8 -26 8 -1 -1
-58 -12 -127 -25z"/>
</g>
</svg>
