<?xml version="1.0" standalone="no"?>
<!DOCTYPE svg PUBLIC "-//W3C//DTD SVG 20010904//EN"
 "http://www.w3.org/TR/2001/REC-SVG-20010904/DTD/svg10.dtd">
<svg version="1.0" xmlns="http://www.w3.org/2000/svg"
 width="248.000000pt" height="248.000000pt" viewBox="0 0 248.000000 248.000000"
 preserveAspectRatio="xMidYMid meet">
<metadata>
Created by potrace 1.10, written by Peter Selinger 2001-2011
</metadata>
<g transform="translate(0.000000,248.000000) scale(0.100000,-0.100000)"
fill="#000000" stroke="none">
<path d="M634 2355 c-14 -21 -15 -40 -9 -116 3 -50 3 -176 -1 -280 -6 -161 -9
-189 -23 -193 -43 -14 -237 -39 -321 -43 -52 -3 -101 -10 -107 -15 -19 -15
-16 -52 5 -71 39 -35 99 -33 367 13 28 4 51 7 52 6 5 -5 -133 -374 -146 -391
-5 -5 -23 -48 -41 -95 -70 -183 -159 -350 -250 -464 -49 -63 -27 -123 37 -100
60 21 216 278 303 503 21 53 55 138 76 190 l39 95 3 -390 c2 -214 -2 -455 -8
-537 -13 -193 -13 -286 3 -317 15 -31 58 -38 78 -14 20 25 28 210 35 822 7
583 1 546 74 447 20 -27 73 -87 116 -132 81 -84 113 -100 142 -71 27 27 12 60
-61 137 -40 42 -100 109 -132 150 -33 40 -77 93 -97 118 -33 39 -46 63 -35 63
8 0 290 51 335 60 56 13 78 36 67 71 -12 37 -43 38 -205 8 -85 -15 -165 -28
-177 -29 l-22 0 2 273 c2 246 0 276 -16 300 -23 35 -61 36 -83 2z"/>
<path d="M2130 1939 c-193 -40 -614 -106 -747 -119 -89 -8 -113 -20 -113 -56
0 -39 40 -58 113 -51 71 6 338 47 542 83 77 14 180 31 229 39 49 8 95 20 103
26 16 14 17 53 1 67 -20 16 -79 21 -128 11z"/>
</g>
</svg>
