<?xml version="1.0" standalone="no"?>
<!DOCTYPE svg PUBLIC "-//W3C//DTD SVG 20010904//EN"
 "http://www.w3.org/TR/2001/REC-SVG-20010904/DTD/svg10.dtd">
<svg version="1.0" xmlns="http://www.w3.org/2000/svg"
 width="248.000000pt" height="248.000000pt" viewBox="0 0 248.000000 248.000000"
 preserveAspectRatio="xMidYMid meet">
<metadata>
Created by potrace 1.10, written by Peter Selinger 2001-2011
</metadata>
<g transform="translate(0.000000,248.000000) scale(0.100000,-0.100000)"
fill="#000000" stroke="none">
<path d="M2188 2353 c-9 -10 -19 -29 -23 -42 -10 -34 -61 -115 -127 -202 -60
-79 -69 -107 -42 -133 34 -34 52 -23 136 84 105 134 159 257 128 295 -17 20
-53 19 -72 -2z"/>
<path d="M1653 2318 c-18 -21 -18 -39 -5 -103 40 -182 55 -215 97 -215 46 0
50 21 26 143 -27 137 -46 181 -82 185 -14 2 -31 -3 -36 -10z"/>
<path d="M1245 2236 c-14 -22 -14 -30 0 -92 26 -116 77 -255 97 -265 25 -14
58 -2 67 24 8 23 -5 86 -32 150 -9 20 -21 65 -28 100 -6 34 -18 72 -25 85 -19
30 -59 29 -79 -2z"/>
<path d="M890 2247 c-3 -3 -55 -10 -115 -16 -538 -54 -539 -55 -533 -110 5
-40 45 -54 115 -42 32 6 108 15 168 21 163 14 305 29 342 36 29 6 33 4 33 -16
0 -12 -19 -93 -41 -179 -23 -86 -44 -168 -47 -184 -2 -15 -12 -31 -21 -36 -21
-12 -201 -30 -389 -39 -121 -7 -156 -11 -169 -25 -24 -23 -52 -334 -34 -373
12 -26 12 -26 99 -21 48 3 139 12 202 20 63 8 166 18 229 22 l113 8 -7 -74
c-3 -41 -13 -106 -21 -146 -8 -40 -14 -82 -14 -95 0 -48 -154 -487 -185 -528
-7 -8 -26 -40 -42 -71 -17 -31 -49 -82 -72 -113 l-40 -58 -35 74 c-19 40 -39
91 -45 113 -16 60 -38 87 -68 83 -61 -7 -55 -79 23 -248 55 -121 77 -150 114
-150 39 0 135 107 200 225 19 33 41 71 51 85 50 74 194 497 209 613 5 43 12
82 15 87 3 5 10 57 16 116 18 191 2 204 -227 185 -77 -6 -173 -16 -214 -20
-41 -5 -104 -13 -139 -17 l-64 -7 7 79 c12 132 1 121 129 129 62 3 153 11 202
17 50 5 118 13 152 17 71 8 98 27 113 80 58 206 102 390 107 452 5 70 4 78
-14 88 -24 12 -96 25 -103 18z"/>
<path d="M2040 1927 c-3 -3 -68 -8 -145 -12 -77 -3 -169 -10 -205 -15 -181
-25 -303 -43 -375 -57 -44 -8 -98 -17 -120 -19 -66 -7 -71 -18 -56 -136 6 -57
16 -152 21 -213 11 -136 25 -212 46 -242 28 -44 51 -47 201 -30 76 9 166 19
201 22 l62 6 0 -121 c0 -66 -1 -120 -2 -121 -2 0 -68 -4 -148 -9 -306 -17
-505 -33 -517 -43 -19 -15 -15 -52 7 -72 24 -21 104 -23 295 -6 61 6 167 13
236 16 l126 5 7 -350 c4 -205 11 -362 18 -381 16 -47 77 -60 97 -20 4 9 4 93
0 186 -4 94 -8 262 -10 375 l-2 205 54 2 c47 2 331 25 473 38 54 5 86 27 86
60 0 50 -41 55 -287 31 -82 -8 -187 -17 -235 -19 l-88 -5 0 97 c0 53 -3 105
-6 117 -5 20 0 21 138 31 107 8 156 16 189 31 71 33 70 30 94 227 8 66 20 154
26 195 14 96 8 185 -14 208 -12 12 -39 18 -90 20 -39 2 -74 2 -77 -1z m80
-156 c0 -27 -3 -63 -6 -80 -6 -29 -9 -31 -38 -26 -17 3 -89 1 -161 -4 -71 -6
-132 -8 -134 -5 -3 3 -7 36 -9 74 l-4 68 98 6 c55 4 108 8 119 10 11 2 46 4
78 5 l57 1 0 -49z m-455 -57 c4 -41 4 -78 1 -81 -3 -3 -50 -10 -103 -14 -54
-5 -143 -15 -198 -23 -55 -8 -101 -13 -103 -11 -8 7 -20 131 -14 136 7 7 122
28 267 49 44 6 87 13 95 15 46 9 47 8 55 -71z m421 -206 c-3 -29 -6 -66 -6
-83 -1 -55 -8 -58 -158 -70 l-140 -11 -6 29 c-3 16 -6 60 -6 98 l0 68 33 6
c34 5 110 10 221 13 l69 2 -7 -52z m-422 -74 c3 -47 4 -89 1 -94 -2 -4 -42
-10 -87 -13 -46 -3 -127 -11 -181 -17 -65 -8 -102 -9 -109 -2 -5 5 -12 46 -15
89 l-6 80 129 17 c119 15 164 20 235 24 26 2 26 1 33 -84z"/>
</g>
</svg>
