<?xml version="1.0" standalone="no"?>
<!DOCTYPE svg PUBLIC "-//W3C//DTD SVG 20010904//EN"
 "http://www.w3.org/TR/2001/REC-SVG-20010904/DTD/svg10.dtd">
<svg version="1.0" xmlns="http://www.w3.org/2000/svg"
 width="248.000000pt" height="248.000000pt" viewBox="0 0 248.000000 248.000000"
 preserveAspectRatio="xMidYMid meet">
<metadata>
Created by potrace 1.10, written by Peter Selinger 2001-2011
</metadata>
<g transform="translate(0.000000,248.000000) scale(0.100000,-0.100000)"
fill="#000000" stroke="none">
<path d="M1685 2374 c-110 -7 -238 -18 -285 -24 -88 -11 -416 -39 -792 -68
-62 -5 -113 -14 -122 -21 -13 -11 -16 -39 -16 -170 0 -143 -3 -167 -34 -291
-23 -93 -48 -164 -79 -227 -50 -99 -145 -250 -169 -271 -49 -40 -42 -112 11
-112 35 0 76 43 145 150 147 226 223 455 233 696 l6 132 51 7 c28 4 101 11
161 15 276 22 492 41 513 45 36 9 589 45 682 45 103 0 135 13 135 55 0 59 -55
64 -440 39z"/>
<path d="M1695 2149 c-27 -4 -124 -15 -215 -23 -91 -9 -176 -18 -190 -21 -14
-3 -83 -9 -155 -15 -345 -27 -357 -29 -376 -46 -22 -19 -25 -54 -7 -72 20 -20
88 -17 493 23 83 8 197 20 255 25 176 17 310 38 325 50 22 18 18 57 -7 74 -24
17 -44 18 -123 5z"/>
<path d="M1790 1919 c-47 -4 -147 -12 -222 -18 -76 -5 -142 -12 -147 -15 -5
-4 -58 -10 -118 -16 -59 -5 -187 -19 -283 -30 -96 -12 -218 -25 -271 -28 -106
-8 -132 -20 -127 -61 4 -33 39 -51 99 -51 l46 0 7 -46 c3 -26 6 -131 6 -233 0
-265 13 -280 162 -195 216 124 243 141 257 166 14 24 14 28 -3 47 -28 31 -49
26 -140 -28 -44 -27 -100 -58 -123 -70 l-43 -21 0 108 c0 60 -3 149 -6 199
l-7 90 99 12 c54 6 142 16 194 21 52 6 131 15 175 21 78 10 116 14 492 42 194
15 216 21 211 66 -6 50 -59 58 -258 40z"/>
<path d="M1833 1727 c-22 -18 -57 -40 -79 -49 -21 -9 -60 -26 -86 -36 -25 -11
-54 -32 -63 -46 -16 -24 -16 -28 -1 -51 20 -30 50 -32 91 -5 17 11 37 20 46
20 25 0 131 59 167 93 48 46 41 107 -14 107 -12 0 -40 -15 -61 -33z"/>
</g>
</svg>
