<?xml version="1.0" standalone="no"?>
<!DOCTYPE svg PUBLIC "-//W3C//DTD SVG 20010904//EN"
 "http://www.w3.org/TR/2001/REC-SVG-20010904/DTD/svg10.dtd">
<svg version="1.0" xmlns="http://www.w3.org/2000/svg"
 width="248.000000pt" height="248.000000pt" viewBox="0 0 248.000000 248.000000"
 preserveAspectRatio="xMidYMid meet">
<metadata>
Created by potrace 1.10, written by Peter Selinger 2001-2011
</metadata>
<g transform="translate(0.000000,248.000000) scale(0.100000,-0.100000)"
fill="#000000" stroke="none">
<path d="M1685 2374 c-110 -7 -238 -18 -285 -24 -77 -10 -260 -26 -570 -50
-231 -19 -299 -27 -315 -40 -23 -19 -18 -57 11 -76 27 -18 58 -17 389 16 55 6
163 15 240 21 77 5 147 12 156 15 25 7 587 44 679 44 103 0 135 13 135 55 0
59 -55 64 -440 39z"/>
</g>
</svg>
