<?xml version="1.0" standalone="no"?>
<!DOCTYPE svg PUBLIC "-//W3C//DTD SVG 20010904//EN"
 "http://www.w3.org/TR/2001/REC-SVG-20010904/DTD/svg10.dtd">
<svg version="1.0" xmlns="http://www.w3.org/2000/svg"
 width="248.000000pt" height="248.000000pt" viewBox="0 0 248.000000 248.000000"
 preserveAspectRatio="xMidYMid meet">
<metadata>
Created by potrace 1.10, written by Peter Selinger 2001-2011
</metadata>
<g transform="translate(0.000000,248.000000) scale(0.100000,-0.100000)"
fill="#000000" stroke="none">
<path d="M890 2247 c-3 -3 -55 -10 -115 -16 -538 -54 -539 -55 -533 -110 5
-40 45 -54 115 -42 32 6 108 15 168 21 163 14 305 29 342 36 29 6 33 4 33 -16
0 -12 -18 -93 -41 -179 -72 -274 -74 -281 -62 -299 27 -44 85 -17 103 47 58
206 102 390 107 452 5 70 4 78 -14 88 -24 12 -96 25 -103 18z"/>
</g>
</svg>
