<?xml version="1.0" standalone="no"?>
<!DOCTYPE svg PUBLIC "-//W3C//DTD SVG 20010904//EN"
 "http://www.w3.org/TR/2001/REC-SVG-20010904/DTD/svg10.dtd">
<svg version="1.0" xmlns="http://www.w3.org/2000/svg"
 width="248.000000pt" height="248.000000pt" viewBox="0 0 248.000000 248.000000"
 preserveAspectRatio="xMidYMid meet">
<metadata>
Created by potrace 1.10, written by Peter Selinger 2001-2011
</metadata>
<g transform="translate(0.000000,248.000000) scale(0.100000,-0.100000)"
fill="#000000" stroke="none">
<path d="M1685 2374 c-110 -7 -238 -18 -285 -24 -88 -11 -416 -39 -792 -68
-62 -5 -113 -14 -122 -21 -13 -11 -16 -39 -16 -170 0 -143 -3 -167 -34 -291
-23 -93 -48 -164 -79 -227 -50 -99 -145 -250 -169 -271 -49 -40 -42 -112 11
-112 35 0 76 43 145 150 147 226 223 455 233 696 l6 132 51 7 c28 4 101 11
161 15 276 22 492 41 513 45 36 9 589 45 682 45 103 0 135 13 135 55 0 59 -55
64 -440 39z"/>
<path d="M1695 2149 c-27 -4 -124 -15 -215 -23 -91 -9 -176 -18 -190 -21 -14
-3 -83 -9 -155 -15 -345 -27 -357 -29 -376 -46 -22 -19 -25 -54 -7 -72 20 -20
88 -17 493 23 83 8 197 20 255 25 176 17 310 38 325 50 22 18 18 57 -7 74 -24
17 -44 18 -123 5z"/>
<path d="M1790 1919 c-47 -4 -147 -12 -222 -18 -76 -5 -142 -12 -147 -15 -5
-4 -58 -10 -118 -16 -59 -5 -187 -19 -283 -30 -96 -12 -218 -25 -271 -28 -106
-8 -132 -20 -127 -61 4 -33 39 -51 99 -51 l46 0 7 -46 c3 -26 6 -131 6 -233 0
-265 13 -280 162 -195 216 124 243 141 257 166 14 24 14 28 -3 47 -28 31 -49
26 -140 -28 -44 -27 -100 -58 -123 -70 l-43 -21 0 108 c0 60 -3 150 -6 199
l-7 90 104 12 c57 6 138 16 179 21 41 5 103 11 138 14 60 4 63 3 48 -13 -35
-38 -10 -87 72 -143 26 -17 90 -73 142 -123 180 -172 245 -213 393 -240 93
-18 97 -18 117 0 46 42 11 80 -95 101 -96 19 -171 57 -245 124 l-55 50 24 20
c13 11 31 20 41 20 26 0 131 58 168 93 76 73 8 147 -71 77 -33 -29 -131 -80
-153 -80 -6 0 -28 -12 -49 -26 l-38 -25 -26 24 c-14 13 -42 34 -61 47 -19 13
-52 39 -73 57 -20 18 -45 33 -55 33 -16 1 -16 1 1 11 10 6 77 15 150 20 537
38 521 36 515 88 -6 50 -59 58 -258 40z"/>
<path d="M1410 1415 c-9 -10 -10 -53 -5 -168 l8 -155 -179 -6 c-99 -3 -235
-11 -304 -17 -310 -26 -501 -39 -570 -39 -41 0 -86 -6 -100 -13 -34 -17 -39
-60 -8 -81 34 -24 93 -22 558 19 91 8 262 17 381 21 l216 6 6 -107 c4 -60 7
-236 7 -393 l0 -285 -38 41 c-40 43 -76 54 -100 30 -27 -27 -13 -61 56 -130
73 -73 105 -84 149 -53 41 29 46 90 41 512 l-6 393 66 0 c36 0 104 5 151 10
47 6 170 14 273 18 201 9 218 14 218 62 0 50 -15 54 -196 46 -90 -4 -202 -11
-247 -16 -45 -6 -123 -10 -173 -10 l-90 0 -11 145 c-8 116 -13 149 -28 165
-21 23 -57 26 -75 5z"/>
</g>
</svg>
