<?xml version="1.0" standalone="no"?>
<!DOCTYPE svg PUBLIC "-//W3C//DTD SVG 20010904//EN"
 "http://www.w3.org/TR/2001/REC-SVG-20010904/DTD/svg10.dtd">
<svg version="1.0" xmlns="http://www.w3.org/2000/svg"
 width="248.000000pt" height="248.000000pt" viewBox="0 0 248.000000 248.000000"
 preserveAspectRatio="xMidYMid meet">
<metadata>
Created by potrace 1.10, written by Peter Selinger 2001-2011
</metadata>
<g transform="translate(0.000000,248.000000) scale(0.100000,-0.100000)"
fill="#000000" stroke="none">
<path d="M2188 2353 c-9 -10 -19 -29 -23 -42 -10 -34 -61 -115 -127 -202 -60
-79 -69 -107 -42 -133 34 -34 52 -23 136 84 105 134 159 257 128 295 -17 20
-53 19 -72 -2z"/>
<path d="M1653 2318 c-18 -21 -18 -39 -5 -103 40 -182 55 -215 97 -215 46 0
50 21 26 143 -27 137 -46 181 -82 185 -14 2 -31 -3 -36 -10z"/>
<path d="M1245 2236 c-14 -22 -14 -30 0 -92 26 -116 77 -255 97 -265 25 -14
58 -2 67 24 8 23 -5 86 -32 150 -9 20 -21 65 -28 100 -6 34 -18 72 -25 85 -19
30 -59 29 -79 -2z"/>
<path d="M890 2247 c-3 -3 -55 -10 -115 -16 -538 -54 -539 -55 -533 -110 5
-40 45 -54 115 -42 32 6 108 15 168 21 163 14 305 29 342 36 29 6 33 4 33 -16
0 -12 -19 -93 -41 -179 -23 -86 -44 -168 -47 -184 -2 -15 -12 -31 -21 -36 -21
-12 -201 -30 -389 -39 -121 -7 -156 -11 -169 -25 -24 -23 -52 -334 -34 -373
12 -26 12 -26 99 -21 48 3 139 12 202 20 63 8 166 18 229 22 l113 8 -7 -74
c-3 -41 -13 -106 -21 -146 -8 -40 -14 -82 -14 -95 0 -48 -154 -487 -185 -528
-7 -8 -26 -40 -42 -71 -17 -31 -49 -82 -72 -113 l-40 -58 -35 74 c-19 40 -39
91 -45 113 -16 60 -38 87 -68 83 -61 -7 -55 -79 23 -248 55 -121 77 -150 114
-150 39 0 135 107 200 225 19 33 41 71 51 85 50 74 194 497 209 613 5 43 12
82 15 87 3 5 10 57 16 116 18 191 2 204 -227 185 -77 -6 -173 -16 -214 -20
-41 -5 -104 -13 -139 -17 l-64 -7 7 79 c12 132 1 121 129 129 62 3 153 11 202
17 50 5 118 13 152 17 71 8 98 27 113 80 58 206 102 390 107 452 5 70 4 78
-14 88 -24 12 -96 25 -103 18z"/>
<path d="M1139 1804 c-10 -13 -10 -40 4 -157 10 -78 17 -160 17 -182 0 -57 27
-205 41 -221 18 -22 57 -17 75 11 13 20 14 32 5 75 -6 28 -11 72 -11 98 0 45
-24 268 -36 335 -3 17 -10 37 -16 44 -15 18 -63 16 -79 -3z"/>
</g>
</svg>
