<?xml version="1.0" standalone="no"?>
<!DOCTYPE svg PUBLIC "-//W3C//DTD SVG 20010904//EN"
 "http://www.w3.org/TR/2001/REC-SVG-20010904/DTD/svg10.dtd">
<svg version="1.0" xmlns="http://www.w3.org/2000/svg"
 width="248.000000pt" height="248.000000pt" viewBox="0 0 248.000000 248.000000"
 preserveAspectRatio="xMidYMid meet">
<metadata>
Created by potrace 1.10, written by Peter Selinger 2001-2011
</metadata>
<g transform="translate(0.000000,248.000000) scale(0.100000,-0.100000)"
fill="#000000" stroke="none">
<path d="M1572 2328 c-17 -17 -15 -68 8 -183 12 -55 26 -145 31 -200 18 -167
24 -149 -56 -157 -38 -4 -113 -11 -165 -17 -52 -6 -186 -14 -298 -18 -192 -6
-204 -7 -216 -27 -11 -17 -11 -54 -3 -177 7 -125 6 -198 -7 -363 -34 -431
-119 -758 -241 -928 -38 -53 -43 -93 -14 -111 45 -28 110 45 188 213 109 234
204 828 185 1160 l-7 117 139 7 c141 7 236 15 422 36 57 7 105 10 107 8 3 -2
9 -40 15 -84 39 -290 86 -507 156 -724 13 -42 24 -83 24 -93 0 -38 -177 -273
-303 -401 -37 -38 -70 -80 -73 -93 -7 -27 19 -63 45 -63 35 0 226 205 329 353
24 34 45 62 49 62 3 0 31 -60 63 -133 66 -150 104 -217 173 -303 85 -104 124
-99 171 21 23 59 26 76 17 96 -17 39 -66 33 -92 -11 -12 -19 -22 -35 -24 -35
-13 0 -103 165 -155 285 -53 121 -70 167 -70 187 0 13 14 46 31 74 75 117 133
216 188 319 23 44 28 104 9 123 -29 29 -79 4 -90 -44 -3 -12 -32 -67 -64 -123
-33 -56 -72 -124 -87 -152 -16 -27 -32 -49 -37 -49 -5 0 -11 15 -15 32 -3 18
-17 71 -30 118 -46 169 -76 314 -96 458 -10 81 -21 159 -25 173 -6 32 1 35
138 49 123 13 247 37 265 51 22 19 12 62 -17 76 -20 9 -43 9 -105 -2 -118 -19
-295 -39 -300 -33 -3 3 -9 47 -14 99 -13 137 -61 381 -79 402 -17 20 -53 22
-70 5z"/>
<path d="M1912 2198 c-26 -26 -13 -58 48 -114 33 -31 74 -67 92 -80 83 -61
153 10 73 73 -20 15 -62 52 -93 80 -58 53 -95 66 -120 41z"/>
<path d="M362 2028 c-24 -24 -12 -57 43 -121 117 -139 197 -191 233 -155 25
25 11 54 -66 133 -44 44 -95 97 -114 118 -37 38 -73 48 -96 25z"/>
<path d="M82 1388 c-26 -26 -12 -56 53 -117 36 -34 78 -69 93 -78 15 -9 42
-30 60 -45 52 -44 102 -34 102 22 0 27 -28 58 -90 100 -19 13 -62 48 -94 77
-60 54 -99 66 -124 41z"/>
<path d="M1385 1368 c-66 -16 -166 -37 -223 -48 -114 -20 -134 -31 -130 -69 6
-48 43 -55 160 -32 205 41 349 79 368 96 22 20 26 55 8 73 -17 17 -47 14 -183
-20z"/>
<path d="M1475 1123 c-16 -3 -114 -24 -217 -49 -103 -24 -198 -44 -212 -44
-13 0 -34 -8 -46 -18 -22 -18 -22 -20 -11 -108 20 -149 50 -277 70 -297 15
-16 34 -19 114 -18 53 0 136 7 184 16 48 9 111 21 140 26 81 16 88 27 117 171
28 136 33 226 15 276 -15 45 -61 58 -154 45z m55 -162 c0 -50 -16 -146 -36
-212 -5 -18 -172 -48 -288 -52 l-70 -2 -13 45 c-7 25 -16 77 -20 117 -6 70 -5
72 18 78 206 51 350 83 377 84 l32 1 0 -59z"/>
<path d="M398 573 c-21 -25 -109 -176 -148 -253 -18 -36 -41 -77 -51 -92 -52
-72 13 -135 73 -70 14 15 44 63 66 107 22 44 63 118 91 164 51 84 62 126 39
149 -17 17 -53 15 -70 -5z"/>
</g>
</svg>
