<?xml version="1.0" standalone="no"?>
<!DOCTYPE svg PUBLIC "-//W3C//DTD SVG 20010904//EN"
 "http://www.w3.org/TR/2001/REC-SVG-20010904/DTD/svg10.dtd">
<svg version="1.0" xmlns="http://www.w3.org/2000/svg"
 width="248.000000pt" height="248.000000pt" viewBox="0 0 248.000000 248.000000"
 preserveAspectRatio="xMidYMid meet">
<metadata>
Created by potrace 1.10, written by Peter Selinger 2001-2011
</metadata>
<g transform="translate(0.000000,248.000000) scale(0.100000,-0.100000)"
fill="#000000" stroke="none">
<path d="M649 2154 c-10 -12 -15 -55 -17 -161 -2 -78 -7 -143 -10 -143 -4 0
-68 -9 -142 -20 -74 -11 -153 -20 -175 -20 -59 0 -90 -19 -90 -54 0 -29 10
-39 56 -55 25 -9 26 -15 48 -168 12 -87 24 -174 26 -193 l5 -36 -102 -17 c-59
-10 -109 -24 -120 -34 -22 -20 -23 -56 -2 -74 16 -13 22 -13 384 46 80 13 172
26 205 30 33 3 85 10 115 15 30 5 113 16 185 25 139 17 175 31 175 69 0 50
-28 56 -163 36 -48 -7 -90 -11 -93 -8 -3 3 8 61 25 129 16 68 37 159 46 202 9
42 17 77 19 77 22 0 124 25 134 32 17 14 15 53 -3 68 -20 17 -71 16 -190 -4
-55 -9 -128 -20 -162 -23 l-63 -6 0 124 c0 79 -5 133 -13 149 -15 31 -58 38
-78 14z m255 -406 c-9 -47 -85 -372 -89 -376 -1 -1 -60 -9 -130 -18 -70 -8
-146 -19 -169 -24 -23 -5 -46 -10 -52 -10 -7 0 -16 39 -24 98 -6 53 -18 137
-26 186 -8 49 -13 94 -10 101 2 7 29 16 58 19 29 4 98 14 153 22 115 17 228
31 267 33 26 1 27 -1 22 -31z"/>
<path d="M2020 2084 c-14 -2 -124 -8 -245 -14 -374 -19 -399 -21 -417 -37 -16
-15 -18 -65 -18 -707 0 -380 -5 -811 -11 -959 -10 -242 -10 -270 5 -292 21
-32 61 -33 80 -3 21 35 37 566 36 1262 0 330 3 603 8 608 4 4 95 12 202 18
107 5 253 13 324 17 l129 6 -16 -24 c-42 -59 -260 -279 -294 -296 -31 -15 -38
-23 -38 -48 0 -26 7 -33 67 -65 52 -27 83 -53 132 -111 87 -103 114 -160 128
-266 9 -74 9 -96 -7 -162 -10 -42 -24 -89 -33 -106 -27 -55 -97 -144 -112
-145 -15 0 -116 55 -218 120 -46 29 -55 32 -78 21 -21 -9 -25 -17 -22 -44 3
-27 13 -39 71 -79 96 -65 222 -129 258 -130 34 -1 61 21 124 102 56 72 80 122
106 215 34 126 22 281 -32 387 -30 59 -135 194 -193 247 l-26 24 63 67 c177
188 287 320 287 344 0 43 -33 56 -140 55 -52 -1 -106 -3 -120 -5z"/>
<path d="M900 1072 c-77 -5 -477 -62 -550 -78 -105 -24 -146 -68 -106 -113 16
-18 38 -143 56 -321 7 -63 16 -123 21 -132 15 -28 44 -30 88 -7 36 18 67 22
227 30 219 9 286 25 310 71 16 31 95 332 113 431 14 76 3 103 -46 115 -21 6
-45 9 -53 8 -8 0 -35 -2 -60 -4z m54 -119 c-58 -250 -92 -376 -103 -383 -6 -3
-50 -7 -98 -9 -143 -4 -214 -8 -284 -16 l-66 -7 -7 90 c-3 49 -13 127 -21 173
-14 81 -12 98 16 99 3 0 64 9 135 19 188 29 334 47 401 50 25 1 30 -2 27 -16z"/>
</g>
</svg>
