<?xml version="1.0" standalone="no"?>
<!DOCTYPE svg PUBLIC "-//W3C//DTD SVG 20010904//EN"
 "http://www.w3.org/TR/2001/REC-SVG-20010904/DTD/svg10.dtd">
<svg version="1.0" xmlns="http://www.w3.org/2000/svg"
 width="248.000000pt" height="248.000000pt" viewBox="0 0 248.000000 248.000000"
 preserveAspectRatio="xMidYMid meet">
<metadata>
Created by potrace 1.10, written by Peter Selinger 2001-2011
</metadata>
<g transform="translate(0.000000,248.000000) scale(0.100000,-0.100000)"
fill="#000000" stroke="none">
<path d="M649 2154 c-10 -12 -15 -55 -17 -161 -2 -78 -7 -143 -10 -143 -4 0
-68 -9 -142 -20 -74 -11 -153 -20 -175 -20 -59 0 -90 -19 -90 -55 0 -23 7 -33
28 -43 30 -14 81 -10 367 33 52 8 138 19 190 25 154 17 343 50 357 61 18 15
17 54 -2 69 -20 17 -71 16 -190 -4 -55 -9 -128 -20 -162 -23 l-63 -6 0 124 c0
79 -5 133 -13 149 -15 31 -58 38 -78 14z"/>
</g>
</svg>
