<?xml version="1.0" standalone="no"?>
<!DOCTYPE svg PUBLIC "-//W3C//DTD SVG 20010904//EN"
 "http://www.w3.org/TR/2001/REC-SVG-20010904/DTD/svg10.dtd">
<svg version="1.0" xmlns="http://www.w3.org/2000/svg"
 width="248.000000pt" height="248.000000pt" viewBox="0 0 248.000000 248.000000"
 preserveAspectRatio="xMidYMid meet">
<metadata>
Created by potrace 1.10, written by Peter Selinger 2001-2011
</metadata>
<g transform="translate(0.000000,248.000000) scale(0.100000,-0.100000)"
fill="#000000" stroke="none">
<path d="M649 2154 c-10 -12 -15 -55 -17 -161 -2 -78 -7 -143 -10 -143 -4 0
-68 -9 -142 -20 -74 -11 -153 -20 -175 -20 -59 0 -90 -19 -90 -54 0 -29 10
-39 56 -55 25 -9 26 -15 48 -168 12 -87 24 -174 26 -193 l5 -36 -102 -17 c-59
-10 -109 -24 -120 -34 -22 -20 -23 -56 -2 -74 16 -13 22 -13 384 46 80 13 172
26 205 30 33 3 85 10 115 15 30 5 113 16 185 25 139 17 175 31 175 69 0 50
-28 56 -163 36 -48 -7 -90 -11 -93 -8 -3 3 8 61 25 129 16 68 37 159 46 202 9
42 17 77 19 77 22 0 124 25 134 32 17 14 15 53 -3 68 -20 17 -71 16 -190 -4
-55 -9 -128 -20 -162 -23 l-63 -6 0 124 c0 79 -5 133 -13 149 -15 31 -58 38
-78 14z m255 -406 c-9 -47 -85 -372 -89 -376 -1 -1 -60 -9 -130 -18 -70 -8
-146 -19 -169 -24 -23 -5 -46 -10 -52 -10 -7 0 -16 39 -24 98 -6 53 -18 137
-26 186 -8 49 -13 94 -10 101 2 7 29 16 58 19 29 4 98 14 153 22 115 17 228
31 267 33 26 1 27 -1 22 -31z"/>
<path d="M900 1072 c-77 -5 -477 -62 -550 -78 -105 -24 -146 -68 -106 -113 16
-18 38 -145 57 -325 9 -91 16 -123 30 -137 25 -25 44 -24 70 2 16 16 19 29 15
52 -3 18 -12 93 -21 167 -8 74 -19 159 -25 189 -5 29 -10 55 -10 56 0 9 68 21
345 60 67 10 247 26 250 23 3 -4 -43 -195 -75 -313 -34 -125 -35 -140 -10
-158 29 -20 58 -11 76 25 16 31 95 331 113 431 14 76 3 103 -46 115 -21 6 -45
9 -53 8 -8 0 -35 -2 -60 -4z"/>
</g>
</svg>
