<?xml version="1.0" standalone="no"?>
<!DOCTYPE svg PUBLIC "-//W3C//DTD SVG 20010904//EN"
 "http://www.w3.org/TR/2001/REC-SVG-20010904/DTD/svg10.dtd">
<svg version="1.0" xmlns="http://www.w3.org/2000/svg"
 width="248.000000pt" height="248.000000pt" viewBox="0 0 248.000000 248.000000"
 preserveAspectRatio="xMidYMid meet">
<metadata>
Created by potrace 1.10, written by Peter Selinger 2001-2011
</metadata>
<g transform="translate(0.000000,248.000000) scale(0.100000,-0.100000)"
fill="#000000" stroke="none">
<path d="M1240 2275 c-30 -25 -57 -45 -61 -45 -3 0 -38 -24 -77 -52 -39 -29
-100 -70 -134 -91 -35 -21 -103 -64 -153 -95 -49 -30 -123 -73 -162 -94 -55
-29 -73 -44 -73 -60 0 -19 4 -47 30 -213 12 -70 26 -254 36 -441 l6 -131 -73
-6 c-218 -19 -390 -45 -416 -63 -26 -17 -30 -55 -8 -74 16 -13 151 -7 249 11
26 5 107 14 180 19 72 6 183 15 246 20 63 6 252 17 420 25 298 15 432 24 675
44 66 6 158 11 205 11 103 0 135 13 135 55 0 23 -7 33 -30 44 -26 13 -57 13
-215 3 -293 -20 -442 -31 -484 -38 l-39 -6 7 113 c3 63 9 219 12 347 7 225 7
232 28 237 12 3 71 10 131 15 299 27 325 33 325 85 0 38 -24 48 -98 42 -347
-30 -529 -53 -712 -87 -398 -76 -489 -87 -497 -63 -2 7 15 22 39 34 24 12 75
43 113 69 39 26 89 57 111 68 23 12 72 42 110 68 38 26 98 67 134 92 156 107
188 142 163 181 -21 33 -65 24 -123 -24z m170 -662 c0 -93 -5 -245 -12 -339
l-11 -172 -51 -6 c-28 -3 -96 -6 -151 -6 -55 0 -138 -4 -185 -9 -47 -6 -119
-12 -161 -15 l-77 -4 -6 101 c-19 297 -28 406 -37 446 -5 24 -8 45 -6 47 2 3
71 16 153 30 82 15 226 41 319 59 94 18 182 33 198 34 l27 1 0 -167z"/>
</g>
</svg>
