<?xml version="1.0" standalone="no"?>
<!DOCTYPE svg PUBLIC "-//W3C//DTD SVG 20010904//EN"
 "http://www.w3.org/TR/2001/REC-SVG-20010904/DTD/svg10.dtd">
<svg version="1.0" xmlns="http://www.w3.org/2000/svg"
 width="248.000000pt" height="248.000000pt" viewBox="0 0 248.000000 248.000000"
 preserveAspectRatio="xMidYMid meet">
<metadata>
Created by potrace 1.10, written by Peter Selinger 2001-2011
</metadata>
<g transform="translate(0.000000,248.000000) scale(0.100000,-0.100000)"
fill="#000000" stroke="none">
<path d="M1240 2275 c-30 -25 -57 -45 -61 -45 -3 0 -38 -24 -77 -52 -39 -29
-100 -70 -134 -91 -35 -21 -103 -64 -153 -95 -49 -30 -123 -73 -162 -94 -55
-29 -73 -44 -73 -60 0 -20 10 -90 30 -208 9 -52 18 -163 40 -493 9 -150 20
-177 66 -177 45 0 52 31 42 180 -19 294 -41 516 -62 632 -5 25 0 30 37 49 23
12 74 43 112 69 39 26 89 57 111 68 23 12 72 42 110 68 38 26 98 67 134 92
156 107 188 142 163 181 -21 33 -65 24 -123 -24z"/>
</g>
</svg>
