<?xml version="1.0" standalone="no"?>
<!DOCTYPE svg PUBLIC "-//W3C//DTD SVG 20010904//EN"
 "http://www.w3.org/TR/2001/REC-SVG-20010904/DTD/svg10.dtd">
<svg version="1.0" xmlns="http://www.w3.org/2000/svg"
 width="248.000000pt" height="248.000000pt" viewBox="0 0 248.000000 248.000000"
 preserveAspectRatio="xMidYMid meet">
<metadata>
Created by potrace 1.10, written by Peter Selinger 2001-2011
</metadata>
<g transform="translate(0.000000,248.000000) scale(0.100000,-0.100000)"
fill="#000000" stroke="none">
<path d="M935 2178 c-49 -4 -155 -11 -235 -17 -217 -16 -343 -31 -357 -43 -17
-14 -16 -48 2 -68 8 -8 19 -47 25 -85 14 -95 6 -1493 -10 -1635 -14 -136 -14
-142 6 -157 24 -17 38 -16 62 4 19 16 22 36 32 174 6 86 11 403 11 706 1 302
4 555 8 561 4 6 70 18 146 26 77 8 182 22 233 31 52 9 97 14 100 11 8 -9 -18
-352 -30 -387 -21 -59 45 -106 86 -61 13 15 20 67 35 248 11 126 22 279 25
339 4 61 11 156 17 213 15 146 8 153 -156 140z m50 -211 c-3 -62 -8 -126 -10
-142 l-5 -30 -142 -23 c-170 -27 -336 -44 -349 -36 -8 4 -14 304 -6 304 1 0
40 4 85 10 46 5 123 12 170 16 48 4 88 7 89 8 1 0 40 2 88 3 l86 2 -6 -112z"/>
</g>
</svg>
