<?xml version="1.0" standalone="no"?>
<!DOCTYPE svg PUBLIC "-//W3C//DTD SVG 20010904//EN"
 "http://www.w3.org/TR/2001/REC-SVG-20010904/DTD/svg10.dtd">
<svg version="1.0" xmlns="http://www.w3.org/2000/svg"
 width="248.000000pt" height="248.000000pt" viewBox="0 0 248.000000 248.000000"
 preserveAspectRatio="xMidYMid meet">
<metadata>
Created by potrace 1.10, written by Peter Selinger 2001-2011
</metadata>
<g transform="translate(0.000000,248.000000) scale(0.100000,-0.100000)"
fill="#000000" stroke="none">
<path d="M1929 2275 c-3 -2 -81 -9 -174 -14 -237 -15 -346 -30 -369 -52 -19
-17 -19 -24 -8 -91 6 -40 14 -239 18 -443 4 -226 10 -375 16 -382 13 -16 50
-17 66 -1 8 8 12 66 12 194 0 100 3 195 6 211 l6 30 136 22 c126 19 331 41
394 41 l26 0 1 -437 c0 -241 3 -467 5 -503 3 -36 8 -121 11 -190 2 -69 8 -191
11 -271 7 -166 4 -175 -54 -136 -72 48 -178 107 -194 107 -19 0 -48 -31 -48
-52 0 -19 33 -49 95 -84 28 -15 83 -50 124 -76 105 -68 152 -63 167 19 8 42
-2 497 -16 733 -16 273 -5 1177 16 1302 5 29 2 40 -15 57 -19 19 -33 21 -124
21 -57 0 -106 -2 -108 -5z m139 -228 l2 -137 -25 -10 c-14 -5 -82 -14 -152
-20 -71 -5 -188 -19 -261 -31 -73 -12 -135 -19 -138 -16 -3 3 -7 72 -7 154
l-2 148 45 7 c25 3 148 14 275 23 126 9 232 18 234 21 19 19 26 -16 29 -139z"/>
<path d="M855 2173 c-180 -8 -496 -41 -512 -55 -17 -14 -16 -48 2 -68 8 -8 19
-47 25 -85 14 -95 6 -1492 -10 -1635 -14 -136 -14 -142 6 -157 24 -17 38 -16
62 5 18 15 22 36 31 172 6 85 11 308 12 496 0 187 4 346 8 352 4 7 34 15 67
18 32 3 113 12 179 20 153 18 199 18 215 -1 17 -21 53 -19 74 3 13 15 20 67
35 248 11 126 22 279 25 339 4 61 11 156 17 213 17 152 27 146 -236 135z m130
-216 c-4 -67 -8 -131 -10 -142 -4 -18 -22 -23 -147 -43 -170 -27 -336 -44
-349 -36 -8 4 -14 304 -6 304 1 0 40 5 87 10 47 5 126 13 175 16 50 4 91 7 92
8 1 0 38 2 82 3 l82 3 -6 -123z m-30 -394 c-4 -71 -10 -146 -14 -168 l-6 -40
-120 -11 c-66 -6 -166 -17 -223 -23 -56 -7 -106 -10 -111 -6 -11 6 -13 285 -3
302 5 7 66 18 152 28 80 8 179 22 220 29 125 23 114 35 105 -111z"/>
</g>
</svg>
