<?xml version="1.0" standalone="no"?>
<!DOCTYPE svg PUBLIC "-//W3C//DTD SVG 20010904//EN"
 "http://www.w3.org/TR/2001/REC-SVG-20010904/DTD/svg10.dtd">
<svg version="1.0" xmlns="http://www.w3.org/2000/svg"
 width="248.000000pt" height="248.000000pt" viewBox="0 0 248.000000 248.000000"
 preserveAspectRatio="xMidYMid meet">
<metadata>
Created by potrace 1.10, written by Peter Selinger 2001-2011
</metadata>
<g transform="translate(0.000000,248.000000) scale(0.100000,-0.100000)"
fill="#000000" stroke="none">
<path d="M1572 2298 c-11 -13 -53 -86 -92 -163 -40 -77 -87 -165 -106 -196
-19 -31 -34 -70 -34 -86 l0 -29 -102 -14 c-223 -29 -208 -29 -224 -4 -20 30
-92 206 -116 284 -26 84 -43 110 -72 110 -29 0 -49 -22 -48 -54 0 -38 46 -173
107 -310 14 -32 22 -62 18 -66 -7 -6 -87 -18 -359 -50 -44 -6 -96 -10 -115
-10 -71 0 -106 -62 -55 -96 22 -13 37 -14 118 -5 51 6 134 16 183 21 50 6 117
15 150 20 33 5 63 6 67 2 8 -9 41 -1222 34 -1229 -3 -3 -27 -7 -53 -9 -620
-40 -653 -45 -653 -99 0 -44 34 -56 131 -46 46 5 158 15 249 21 91 6 219 15
285 20 66 6 361 11 655 13 483 2 542 0 602 -16 96 -25 140 -4 124 58 -4 15
-15 27 -29 29 -193 40 -203 41 -480 41 l-277 0 0 355 c0 195 -5 484 -11 643
-6 159 -8 291 -6 294 11 10 91 23 234 38 81 8 163 17 180 20 57 10 69 76 17
95 -24 10 -212 -6 -372 -31 -40 -7 -75 -9 -78 -6 -3 3 7 25 22 49 15 23 55 97
89 163 34 66 72 136 84 155 23 39 27 80 9 98 -19 19 -53 14 -76 -10z m-218
-645 c3 -38 9 -328 13 -645 l6 -578 -165 0 -166 0 -6 153 c-4 83 -11 337 -16
562 -5 226 -12 438 -16 471 l-5 62 74 6 c41 4 108 13 148 21 130 23 125 25
133 -52z"/>
<path d="M1882 1298 c-5 -7 -24 -40 -41 -73 -17 -33 -74 -114 -126 -180 -94
-120 -110 -156 -83 -183 20 -20 53 -14 80 16 14 15 54 64 89 110 153 199 182
256 154 299 -17 25 -56 31 -73 11z"/>
<path d="M460 1196 c-15 -19 -10 -53 20 -126 12 -30 40 -98 62 -151 47 -116
116 -235 143 -247 11 -5 30 -6 43 -1 33 13 29 63 -13 127 -31 50 -92 188 -130
294 -34 98 -90 145 -125 104z"/>
</g>
</svg>
