<?xml version="1.0" standalone="no"?>
<!DOCTYPE svg PUBLIC "-//W3C//DTD SVG 20010904//EN"
 "http://www.w3.org/TR/2001/REC-SVG-20010904/DTD/svg10.dtd">
<svg version="1.0" xmlns="http://www.w3.org/2000/svg"
 width="248.000000pt" height="248.000000pt" viewBox="0 0 248.000000 248.000000"
 preserveAspectRatio="xMidYMid meet">
<metadata>
Created by potrace 1.10, written by Peter Selinger 2001-2011
</metadata>
<g transform="translate(0.000000,248.000000) scale(0.100000,-0.100000)"
fill="#000000" stroke="none">
<path d="M1929 2275 c-3 -2 -81 -9 -174 -14 -237 -15 -346 -30 -369 -52 -18
-17 -19 -24 -8 -96 18 -120 27 -712 11 -773 -22 -84 -35 -81 331 -74 267 6
318 5 326 -7 5 -8 9 -45 10 -84 1 -120 15 -508 19 -540 2 -16 7 -112 10 -211
5 -131 3 -184 -5 -189 -6 -4 -28 4 -48 18 -72 48 -178 107 -194 107 -19 0 -48
-31 -48 -52 0 -19 33 -49 95 -84 28 -15 83 -50 124 -76 105 -68 152 -63 167
19 8 42 -2 497 -16 733 -16 273 -5 1177 16 1302 5 29 2 40 -15 57 -19 19 -33
21 -124 21 -57 0 -106 -2 -108 -5z m139 -228 l2 -137 -25 -10 c-14 -5 -82 -14
-152 -20 -71 -5 -188 -19 -261 -31 -73 -12 -135 -19 -138 -16 -3 3 -7 72 -7
154 l-2 148 45 7 c25 3 148 14 275 23 126 9 232 18 234 21 19 19 26 -16 29
-139z m-10 -459 c1 -125 -3 -207 -10 -215 -7 -9 -73 -13 -262 -13 -138 0 -260
-2 -271 -3 -19 -2 -20 5 -23 143 -2 80 0 163 3 186 l6 41 142 22 c141 22 279
37 369 40 l46 1 0 -202z"/>
<path d="M855 2173 c-180 -8 -496 -41 -512 -55 -17 -14 -16 -48 2 -68 8 -8 19
-47 25 -85 14 -95 6 -1492 -10 -1635 -14 -136 -14 -142 6 -157 24 -17 38 -16
62 5 18 15 22 36 31 172 6 85 11 308 12 496 0 187 4 346 8 352 4 7 34 15 67
18 32 3 113 12 179 20 153 18 199 18 215 -1 17 -21 53 -19 74 3 13 15 20 67
35 248 11 126 22 279 25 339 4 61 11 156 17 213 17 152 27 146 -236 135z m130
-216 c-4 -67 -8 -131 -10 -142 -4 -18 -22 -23 -147 -43 -170 -27 -336 -44
-349 -36 -8 4 -14 304 -6 304 1 0 40 5 87 10 47 5 126 13 175 16 50 4 91 7 92
8 1 0 38 2 82 3 l82 3 -6 -123z m-30 -394 c-4 -71 -10 -146 -14 -168 l-6 -40
-120 -11 c-66 -6 -166 -17 -223 -23 -56 -7 -106 -10 -111 -6 -11 6 -13 285 -3
302 5 7 66 18 152 28 80 8 179 22 220 29 125 23 114 35 105 -111z"/>
<path d="M1470 1030 c-30 -5 -95 -13 -145 -19 -49 -6 -133 -17 -185 -25 -52
-9 -153 -22 -225 -30 -110 -13 -133 -19 -147 -37 -22 -27 -22 -31 0 -59 20
-25 13 -25 347 22 148 21 225 31 369 47 121 14 154 38 126 92 -12 21 -41 23
-140 9z"/>
</g>
</svg>
