<?xml version="1.0" standalone="no"?>
<!DOCTYPE svg PUBLIC "-//W3C//DTD SVG 20010904//EN"
 "http://www.w3.org/TR/2001/REC-SVG-20010904/DTD/svg10.dtd">
<svg version="1.0" xmlns="http://www.w3.org/2000/svg"
 width="248.000000pt" height="248.000000pt" viewBox="0 0 248.000000 248.000000"
 preserveAspectRatio="xMidYMid meet">
<metadata>
Created by potrace 1.10, written by Peter Selinger 2001-2011
</metadata>
<g transform="translate(0.000000,248.000000) scale(0.100000,-0.100000)"
fill="#000000" stroke="none">
<path d="M2025 2215 c-13 -5 -320 -51 -400 -60 -75 -8 -384 -54 -407 -61 -43
-13 -48 -30 -48 -165 0 -293 -110 -749 -245 -1019 -56 -111 -65 -146 -43 -168
17 -17 52 -15 71 6 31 35 136 270 181 407 75 229 146 601 146 767 0 75 0 76
28 82 54 11 220 36 347 51 297 35 448 62 462 81 12 17 9 50 -6 67 -9 9 -72 18
-86 12z"/>
</g>
</svg>
