<?xml version="1.0" standalone="no"?>
<!DOCTYPE svg PUBLIC "-//W3C//DTD SVG 20010904//EN"
 "http://www.w3.org/TR/2001/REC-SVG-20010904/DTD/svg10.dtd">
<svg version="1.0" xmlns="http://www.w3.org/2000/svg"
 width="248.000000pt" height="248.000000pt" viewBox="0 0 248.000000 248.000000"
 preserveAspectRatio="xMidYMid meet">
<metadata>
Created by potrace 1.10, written by Peter Selinger 2001-2011
</metadata>
<g transform="translate(0.000000,248.000000) scale(0.100000,-0.100000)"
fill="#000000" stroke="none">
<path d="M1142 2388 c-8 -8 -12 -47 -12 -120 0 -59 -5 -129 -11 -157 l-10 -49
-77 -7 c-147 -11 -529 -61 -584 -76 -41 -11 -63 -39 -53 -69 11 -35 37 -41
111 -26 149 30 414 60 425 49 8 -8 3 -53 -15 -161 -27 -156 -48 -226 -97 -319
-34 -65 -36 -84 -9 -108 37 -33 64 -14 109 80 56 116 77 187 101 345 12 74 23
145 26 157 5 26 19 30 117 36 l67 5 -6 -102 c-3 -55 -7 -197 -8 -315 -1 -186
1 -215 15 -224 25 -16 65 0 77 30 6 16 13 155 17 311 3 155 8 288 11 296 3 9
32 15 87 20 280 22 527 47 550 55 30 12 42 42 27 71 -13 24 -56 26 -203 10
-51 -5 -175 -16 -277 -25 -102 -8 -211 -17 -244 -20 l-59 -5 7 38 c15 86 17
237 4 262 -15 28 -65 39 -86 18z"/>
<path d="M1561 1861 c-12 -12 -21 -28 -21 -36 0 -18 35 -55 52 -55 16 0 265
-247 294 -292 19 -29 31 -38 52 -38 57 0 69 50 25 109 -33 44 -248 259 -294
294 -50 38 -83 43 -108 18z"/>
<path d="M501 1757 c-6 -8 -23 -37 -38 -65 -38 -70 -133 -198 -182 -247 -57
-55 -53 -105 9 -105 33 0 107 72 183 178 94 131 125 210 95 240 -16 16 -53 15
-67 -1z"/>
<path d="M1239 1246 c-2 -2 -69 -7 -149 -11 -80 -4 -154 -11 -166 -15 -13 -5
-43 -53 -84 -132 -34 -67 -80 -148 -100 -178 -41 -61 -170 -188 -268 -264 -34
-27 -65 -60 -68 -73 -7 -27 19 -63 46 -63 40 0 320 255 375 342 17 26 35 47
40 48 6 0 49 -41 97 -92 l87 -92 -22 -40 c-12 -23 -78 -98 -148 -167 -154
-155 -289 -248 -384 -264 -54 -10 -85 -31 -85 -58 0 -84 152 -54 332 66 97 64
299 258 351 336 l36 54 73 -74 c40 -41 98 -94 128 -116 30 -23 82 -63 115 -88
67 -52 211 -139 309 -188 82 -40 352 -117 412 -117 32 0 51 38 35 69 -12 21
-18 23 -246 87 -209 58 -465 218 -674 421 l-94 92 38 73 c21 40 46 84 55 98
10 14 40 70 68 125 28 55 60 114 71 130 26 38 26 50 1 75 -17 17 -33 20 -98
20 -43 0 -81 -2 -83 -4z m3 -198 c-113 -213 -127 -238 -138 -238 -5 0 -25 20
-43 44 -19 24 -58 65 -87 91 -30 25 -54 52 -54 59 0 17 48 104 63 113 11 7
150 19 250 21 l58 2 -49 -92z"/>
</g>
</svg>
