<?xml version="1.0" standalone="no"?>
<!DOCTYPE svg PUBLIC "-//W3C//DTD SVG 20010904//EN"
 "http://www.w3.org/TR/2001/REC-SVG-20010904/DTD/svg10.dtd">
<svg version="1.0" xmlns="http://www.w3.org/2000/svg"
 width="248.000000pt" height="248.000000pt" viewBox="0 0 248.000000 248.000000"
 preserveAspectRatio="xMidYMid meet">
<metadata>
Created by potrace 1.10, written by Peter Selinger 2001-2011
</metadata>
<g transform="translate(0.000000,248.000000) scale(0.100000,-0.100000)"
fill="#000000" stroke="none">
<path d="M1900 2194 c-80 -13 -188 -28 -240 -34 -108 -12 -416 -58 -442 -66
-43 -13 -48 -30 -48 -165 0 -293 -110 -749 -245 -1019 -56 -111 -65 -146 -43
-168 17 -17 53 -15 70 6 9 9 38 62 66 117 67 135 137 336 183 523 l10 44 157
-153 c86 -84 162 -160 168 -169 10 -13 4 -24 -30 -62 -22 -25 -60 -69 -84 -97
-24 -28 -80 -79 -125 -113 -187 -141 -221 -180 -185 -216 22 -22 59 -12 111
29 29 22 88 68 132 102 44 34 102 86 130 116 27 30 71 77 96 105 l47 50 116
-105 c150 -134 246 -200 422 -290 127 -65 145 -72 167 -62 30 14 43 48 27 68
-7 8 -73 46 -148 86 -76 39 -162 88 -192 107 -50 32 -277 227 -310 266 -11 15
-5 28 46 102 148 214 304 490 304 537 0 31 -29 57 -63 57 -14 0 -72 -9 -129
-19 -57 -11 -155 -27 -218 -36 -63 -9 -167 -25 -230 -36 -182 -32 -163 -34
-156 20 3 25 9 99 13 163 6 116 6 117 32 122 54 12 221 36 346 51 231 28 446
62 457 73 13 13 14 60 1 73 -18 18 -72 17 -213 -7z m18 -531 c-45 -99 -112
-211 -226 -376 l-74 -108 -187 183 c-102 101 -187 186 -189 190 -2 3 5 9 15
12 29 9 234 43 423 71 95 14 176 27 178 30 8 8 64 6 60 -2z"/>
<path d="M410 2063 c-20 -8 -30 -24 -30 -49 0 -22 106 -136 189 -204 40 -33
43 -38 32 -59 -10 -18 -10 -27 4 -47 18 -29 32 -29 104 -5 103 34 97 72 -24
155 -47 33 -113 89 -147 125 -55 59 -93 91 -108 90 -3 0 -12 -3 -20 -6z"/>
<path d="M585 1339 c-33 -11 -107 -31 -165 -45 -139 -33 -261 -73 -282 -92
-10 -8 -18 -25 -18 -37 0 -46 44 -57 121 -29 52 19 272 74 277 70 1 -2 -14
-39 -34 -82 -46 -99 -65 -175 -54 -214 5 -16 23 -47 41 -70 28 -35 31 -43 21
-65 -6 -13 -40 -45 -74 -70 -35 -25 -73 -54 -86 -65 -19 -16 -40 -19 -120 -20
-113 -2 -145 -15 -140 -58 5 -42 35 -50 206 -52 85 0 187 -7 226 -15 70 -13
362 -90 604 -159 68 -19 160 -40 205 -46 45 -6 120 -17 167 -25 368 -61 608
-66 810 -18 81 19 110 37 110 66 0 50 -46 59 -153 31 -151 -39 -413 -30 -767
25 -69 11 -147 23 -175 26 -27 3 -135 30 -240 60 -247 70 -481 132 -530 140
-69 11 -70 14 -28 44 55 40 103 115 103 162 0 30 -9 48 -41 85 -49 57 -48 70
12 200 27 59 57 105 95 144 102 107 60 159 -91 109z"/>
</g>
</svg>
