<?xml version="1.0" standalone="no"?>
<!DOCTYPE svg PUBLIC "-//W3C//DTD SVG 20010904//EN"
 "http://www.w3.org/TR/2001/REC-SVG-20010904/DTD/svg10.dtd">
<svg version="1.0" xmlns="http://www.w3.org/2000/svg"
 width="248.000000pt" height="248.000000pt" viewBox="0 0 248.000000 248.000000"
 preserveAspectRatio="xMidYMid meet">
<metadata>
Created by potrace 1.10, written by Peter Selinger 2001-2011
</metadata>
<g transform="translate(0.000000,248.000000) scale(0.100000,-0.100000)"
fill="#000000" stroke="none">
<path d="M2025 2215 c-13 -5 -320 -51 -400 -60 -75 -8 -384 -54 -407 -61 -43
-13 -48 -30 -48 -165 0 -293 -110 -749 -245 -1019 -56 -111 -65 -146 -43 -168
17 -17 52 -15 71 6 32 35 129 251 176 393 27 80 62 205 77 278 18 88 33 135
43 141 19 9 197 41 396 70 77 11 168 25 202 32 35 6 65 9 68 6 10 -10 -89
-182 -194 -338 -121 -181 -124 -184 -199 -265 -31 -35 -76 -85 -100 -114 -24
-28 -80 -79 -125 -113 -187 -141 -221 -180 -185 -216 22 -22 59 -12 111 29 29
22 88 68 132 102 79 61 107 89 243 240 120 133 278 370 392 584 73 138 82 169
52 196 -24 22 -48 21 -174 -2 -57 -11 -155 -27 -218 -36 -63 -9 -167 -25 -230
-36 -182 -32 -163 -34 -156 20 3 25 9 99 13 163 6 116 6 117 32 122 54 12 220
36 346 51 297 35 448 62 462 81 12 17 9 50 -6 67 -9 9 -72 18 -86 12z"/>
</g>
</svg>
