<?xml version="1.0" standalone="no"?>
<!DOCTYPE svg PUBLIC "-//W3C//DTD SVG 20010904//EN"
 "http://www.w3.org/TR/2001/REC-SVG-20010904/DTD/svg10.dtd">
<svg version="1.0" xmlns="http://www.w3.org/2000/svg"
 width="248.000000pt" height="248.000000pt" viewBox="0 0 248.000000 248.000000"
 preserveAspectRatio="xMidYMid meet">
<metadata>
Created by potrace 1.10, written by Peter Selinger 2001-2011
</metadata>
<g transform="translate(0.000000,248.000000) scale(0.100000,-0.100000)"
fill="#000000" stroke="none">
<path d="M1142 2388 c-8 -8 -12 -47 -12 -120 0 -59 -5 -129 -11 -157 l-10 -49
-77 -7 c-147 -11 -529 -61 -584 -76 -41 -11 -63 -39 -53 -69 11 -35 37 -41
111 -26 149 30 414 60 425 49 8 -8 3 -53 -15 -161 -27 -156 -48 -226 -97 -319
-34 -65 -36 -84 -9 -108 37 -33 64 -14 109 80 56 116 77 187 101 345 12 74 23
145 26 157 5 26 19 30 117 36 l67 5 -6 -102 c-3 -55 -7 -197 -8 -315 -1 -186
1 -215 15 -224 25 -16 65 0 77 30 6 16 13 155 17 311 3 155 8 288 11 296 3 9
32 15 87 20 280 22 527 47 550 55 30 12 42 42 27 71 -13 24 -56 26 -203 10
-51 -5 -175 -16 -277 -25 -102 -8 -211 -17 -244 -20 l-59 -5 7 38 c15 86 17
237 4 262 -15 28 -65 39 -86 18z"/>
</g>
</svg>
