<?xml version="1.0" standalone="no"?>
<!DOCTYPE svg PUBLIC "-//W3C//DTD SVG 20010904//EN"
 "http://www.w3.org/TR/2001/REC-SVG-20010904/DTD/svg10.dtd">
<svg version="1.0" xmlns="http://www.w3.org/2000/svg"
 width="248.000000pt" height="248.000000pt" viewBox="0 0 248.000000 248.000000"
 preserveAspectRatio="xMidYMid meet">
<metadata>
Created by potrace 1.10, written by Peter Selinger 2001-2011
</metadata>
<g transform="translate(0.000000,248.000000) scale(0.100000,-0.100000)"
fill="#000000" stroke="none">
<path d="M1494 2325 c-14 -22 -15 -49 -9 -234 l7 -209 -28 -6 c-101 -20 -221
-37 -429 -61 -66 -7 -138 -17 -161 -20 l-40 -7 0 239 c1 212 -1 242 -17 266
-11 17 -26 27 -41 27 -45 0 -50 -19 -47 -193 7 -494 -59 -1027 -165 -1330 -58
-169 -179 -413 -250 -507 -31 -41 -61 -85 -67 -97 -23 -50 22 -101 63 -71 42
29 157 202 225 339 41 81 96 211 124 290 52 151 110 415 131 594 6 55 16 130
21 167 5 37 9 89 9 116 0 58 -5 55 140 72 163 18 260 31 415 55 83 13 186 26
230 29 160 13 341 38 363 52 25 17 29 55 7 74 -16 14 -74 11 -269 -10 -54 -6
-100 -10 -101 -8 -2 2 -7 95 -10 208 -8 222 -15 250 -60 250 -15 0 -31 -10
-41 -25z"/>
</g>
</svg>
