<?xml version="1.0" standalone="no"?>
<!DOCTYPE svg PUBLIC "-//W3C//DTD SVG 20010904//EN"
 "http://www.w3.org/TR/2001/REC-SVG-20010904/DTD/svg10.dtd">
<svg version="1.0" xmlns="http://www.w3.org/2000/svg"
 width="248.000000pt" height="248.000000pt" viewBox="0 0 248.000000 248.000000"
 preserveAspectRatio="xMidYMid meet">
<metadata>
Created by potrace 1.10, written by Peter Selinger 2001-2011
</metadata>
<g transform="translate(0.000000,248.000000) scale(0.100000,-0.100000)"
fill="#000000" stroke="none">
<path d="M1142 2388 c-8 -8 -12 -47 -12 -120 0 -116 -15 -208 -33 -208 -75 -1
-380 -37 -601 -71 -98 -16 -131 -54 -85 -100 14 -14 28 -19 42 -15 38 11 357
56 467 67 58 5 211 18 340 29 502 42 688 60 713 69 31 12 42 43 26 72 -12 24
-32 24 -309 -1 -58 -5 -186 -16 -284 -25 -98 -8 -181 -14 -183 -11 -2 2 0 39
6 81 14 101 14 184 -2 215 -14 28 -64 39 -85 18z"/>
</g>
</svg>
