<?xml version="1.0" standalone="no"?>
<!DOCTYPE svg PUBLIC "-//W3C//DTD SVG 20010904//EN"
 "http://www.w3.org/TR/2001/REC-SVG-20010904/DTD/svg10.dtd">
<svg version="1.0" xmlns="http://www.w3.org/2000/svg"
 width="248.000000pt" height="248.000000pt" viewBox="0 0 248.000000 248.000000"
 preserveAspectRatio="xMidYMid meet">
<metadata>
Created by potrace 1.10, written by Peter Selinger 2001-2011
</metadata>
<g transform="translate(0.000000,248.000000) scale(0.100000,-0.100000)"
fill="#000000" stroke="none">
<path d="M510 2375 c-17 -21 -29 -148 -29 -331 l-1 -151 -32 -7 c-18 -4 -98
-15 -177 -26 -152 -20 -181 -33 -181 -75 0 -46 19 -49 173 -30 78 10 159 20
179 22 l37 5 -6 -324 c-3 -177 -8 -326 -12 -329 -3 -3 -62 -25 -131 -49 -179
-60 -220 -84 -220 -125 0 -48 43 -58 113 -25 23 10 88 35 145 54 l102 35 0
-331 0 -331 -29 39 c-28 39 -86 94 -100 94 -16 0 -51 -33 -51 -49 0 -9 18 -42
41 -72 22 -30 61 -83 87 -118 55 -75 70 -86 105 -77 51 12 52 21 57 466 l5
414 60 24 c107 42 110 44 110 81 0 59 -37 62 -164 13 -12 -4 -13 43 -9 302 4
230 8 310 17 316 7 4 58 15 114 24 118 20 147 34 147 75 0 51 -17 56 -137 32
-60 -12 -114 -21 -122 -21 -11 0 -12 41 -10 228 3 183 1 232 -10 245 -17 21
-55 22 -71 2z"/>
</g>
</svg>
