<?xml version="1.0" standalone="no"?>
<!DOCTYPE svg PUBLIC "-//W3C//DTD SVG 20010904//EN"
 "http://www.w3.org/TR/2001/REC-SVG-20010904/DTD/svg10.dtd">
<svg version="1.0" xmlns="http://www.w3.org/2000/svg"
 width="248.000000pt" height="248.000000pt" viewBox="0 0 248.000000 248.000000"
 preserveAspectRatio="xMidYMid meet">
<metadata>
Created by potrace 1.10, written by Peter Selinger 2001-2011
</metadata>
<g transform="translate(0.000000,248.000000) scale(0.100000,-0.100000)"
fill="#000000" stroke="none">
<path d="M510 2375 c-17 -21 -29 -148 -29 -331 l-1 -151 -32 -7 c-18 -4 -98
-15 -177 -26 -152 -20 -181 -33 -181 -75 0 -46 19 -49 173 -30 78 10 160 20
181 23 l39 4 -6 -137 c-4 -76 -7 -397 -7 -713 l0 -575 -29 39 c-28 39 -86 94
-100 94 -16 0 -51 -33 -51 -49 0 -9 18 -42 41 -72 22 -30 61 -83 87 -118 55
-75 70 -86 105 -77 53 13 52 -7 57 829 4 633 7 779 18 786 8 5 59 16 115 25
118 20 147 34 147 75 0 51 -17 56 -137 32 -60 -12 -114 -21 -122 -21 -11 0
-12 41 -10 228 3 183 1 232 -10 245 -17 21 -55 22 -71 2z"/>
</g>
</svg>
