<?xml version="1.0" standalone="no"?>
<!DOCTYPE svg PUBLIC "-//W3C//DTD SVG 20010904//EN"
 "http://www.w3.org/TR/2001/REC-SVG-20010904/DTD/svg10.dtd">
<svg version="1.0" xmlns="http://www.w3.org/2000/svg"
 width="248.000000pt" height="248.000000pt" viewBox="0 0 248.000000 248.000000"
 preserveAspectRatio="xMidYMid meet">
<metadata>
Created by potrace 1.10, written by Peter Selinger 2001-2011
</metadata>
<g transform="translate(0.000000,248.000000) scale(0.100000,-0.100000)"
fill="#000000" stroke="none">
<path d="M806 2311 c-29 -27 -80 -67 -112 -90 -152 -106 -312 -227 -336 -254
-22 -24 -23 -41 -2 -61 34 -35 51 -26 279 145 44 33 105 77 135 98 90 63 160
134 160 162 0 64 -53 65 -124 0z"/>
<path d="M920 1675 c-139 -41 -398 -108 -555 -145 -99 -23 -190 -49 -202 -56
-25 -16 -30 -53 -11 -72 17 -17 72 -14 158 9 41 11 118 29 170 40 52 11 192
47 310 80 203 57 240 73 240 104 0 18 -23 43 -45 48 -11 3 -40 -1 -65 -8z"/>
</g>
</svg>
