<?xml version="1.0" standalone="no"?>
<!DOCTYPE svg PUBLIC "-//W3C//DTD SVG 20010904//EN"
 "http://www.w3.org/TR/2001/REC-SVG-20010904/DTD/svg10.dtd">
<svg version="1.0" xmlns="http://www.w3.org/2000/svg"
 width="248.000000pt" height="248.000000pt" viewBox="0 0 248.000000 248.000000"
 preserveAspectRatio="xMidYMid meet">
<metadata>
Created by potrace 1.10, written by Peter Selinger 2001-2011
</metadata>
<g transform="translate(0.000000,248.000000) scale(0.100000,-0.100000)"
fill="#000000" stroke="none">
<path d="M806 2311 c-29 -27 -80 -67 -112 -90 -152 -106 -312 -227 -336 -254
-22 -24 -23 -41 -2 -61 27 -27 58 -18 135 39 41 30 93 68 117 85 l42 31 0
-230 0 -230 -52 -15 c-29 -8 -134 -33 -233 -56 -99 -23 -190 -49 -202 -56 -25
-16 -30 -53 -11 -72 19 -19 67 -14 195 17 153 38 233 54 240 48 2 -3 -3 -19
-11 -35 -15 -30 -37 -85 -96 -242 -81 -217 -126 -328 -251 -622 -42 -97 -37
-148 16 -148 31 0 46 22 89 125 131 315 175 426 228 570 16 44 35 95 44 113 8
18 22 50 30 70 13 34 14 23 9 -128 -3 -91 -6 -368 -7 -617 -1 -359 1 -455 11
-467 21 -25 58 -20 78 11 17 25 18 69 21 543 1 283 5 539 8 569 l6 54 48 -90
c113 -210 162 -266 209 -236 29 18 24 52 -17 116 -91 141 -248 455 -234 468 4
4 60 21 125 39 123 35 145 50 132 91 -12 36 -45 39 -141 14 -49 -13 -97 -27
-107 -30 -16 -7 -17 10 -17 252 l0 259 28 16 c57 34 142 123 142 149 0 64 -53
65 -124 0z"/>
<path d="M1973 2198 c-4 -7 -17 -58 -29 -113 -34 -160 -111 -433 -154 -550
-10 -27 -26 -75 -34 -106 -9 -31 -30 -90 -47 -130 -17 -41 -42 -103 -56 -139
-35 -92 -86 -200 -94 -200 -4 0 -16 28 -27 63 -12 34 -43 125 -71 202 -52 141
-95 288 -126 425 -19 82 -36 110 -70 110 -29 0 -45 -19 -45 -52 0 -61 76 -337
150 -538 23 -63 60 -167 82 -231 l41 -115 -35 -55 c-20 -29 -52 -84 -72 -121
-45 -82 -155 -252 -193 -297 -34 -40 -52 -71 -53 -88 0 -15 36 -53 50 -53 37
0 183 200 295 403 27 48 52 87 55 87 4 0 25 -42 49 -93 90 -198 240 -386 359
-450 97 -53 181 -33 198 47 8 38 102 273 151 379 31 67 35 80 25 103 -10 21
-18 25 -45 22 -29 -3 -35 -10 -72 -84 -48 -95 -155 -358 -155 -380 0 -38 -84
12 -167 100 -77 82 -143 183 -203 311 -80 174 -79 146 -15 276 31 63 67 145
81 183 13 38 28 74 32 80 47 59 282 857 282 955 0 47 -65 83 -87 49z"/>
<path d="M1374 2105 c-22 -33 -14 -69 43 -209 75 -183 97 -216 143 -216 51 0
65 41 30 90 -29 41 -111 237 -119 287 -4 23 -13 49 -21 57 -19 24 -57 20 -76
-9z"/>
<path d="M1136 968 c-8 -13 -17 -39 -21 -58 -3 -19 -44 -150 -91 -291 -69
-209 -83 -262 -75 -282 11 -29 43 -43 67 -29 26 15 203 546 206 619 1 18 -5
39 -12 48 -18 22 -57 19 -74 -7z"/>
</g>
</svg>
