<?xml version="1.0" standalone="no"?>
<!DOCTYPE svg PUBLIC "-//W3C//DTD SVG 20010904//EN"
 "http://www.w3.org/TR/2001/REC-SVG-20010904/DTD/svg10.dtd">
<svg version="1.0" xmlns="http://www.w3.org/2000/svg"
 width="248.000000pt" height="248.000000pt" viewBox="0 0 248.000000 248.000000"
 preserveAspectRatio="xMidYMid meet">
<metadata>
Created by potrace 1.10, written by Peter Selinger 2001-2011
</metadata>
<g transform="translate(0.000000,248.000000) scale(0.100000,-0.100000)"
fill="#000000" stroke="none">
<path d="M1889 2316 c-3 -3 -52 -10 -110 -15 -102 -10 -271 -30 -419 -51 -41
-5 -156 -17 -255 -25 -99 -8 -234 -22 -300 -30 -66 -8 -163 -15 -215 -15 -101
0 -120 -7 -120 -45 0 -59 90 -76 285 -51 174 21 339 36 398 36 l48 0 -43 -51
c-129 -154 -493 -421 -746 -548 -69 -35 -80 -50 -64 -87 16 -34 58 -31 135 7
78 40 198 112 258 155 26 19 51 34 57 34 10 0 162 117 300 232 86 71 197 198
211 241 l12 35 112 16 c111 15 184 24 387 47 58 6 115 18 128 26 24 15 30 54
9 71 -15 13 -61 25 -68 18z"/>
</g>
</svg>
