<?xml version="1.0" standalone="no"?>
<!DOCTYPE svg PUBLIC "-//W3C//DTD SVG 20010904//EN"
 "http://www.w3.org/TR/2001/REC-SVG-20010904/DTD/svg10.dtd">
<svg version="1.0" xmlns="http://www.w3.org/2000/svg"
 width="248.000000pt" height="248.000000pt" viewBox="0 0 248.000000 248.000000"
 preserveAspectRatio="xMidYMid meet">
<metadata>
Created by potrace 1.10, written by Peter Selinger 2001-2011
</metadata>
<g transform="translate(0.000000,248.000000) scale(0.100000,-0.100000)"
fill="#000000" stroke="none">
<path d="M1889 2316 c-3 -3 -52 -10 -110 -15 -102 -10 -271 -30 -419 -51 -41
-5 -156 -17 -255 -25 -99 -8 -234 -22 -300 -30 -66 -8 -163 -15 -215 -15 -101
0 -120 -7 -120 -45 0 -59 96 -76 280 -52 63 9 183 21 265 27 83 6 238 22 345
36 207 26 291 36 460 55 58 6 115 18 128 26 24 15 30 54 9 71 -15 13 -61 25
-68 18z"/>
</g>
</svg>
