<?xml version="1.0" standalone="no"?>
<!DOCTYPE svg PUBLIC "-//W3C//DTD SVG 20010904//EN"
 "http://www.w3.org/TR/2001/REC-SVG-20010904/DTD/svg10.dtd">
<svg version="1.0" xmlns="http://www.w3.org/2000/svg"
 width="248.000000pt" height="248.000000pt" viewBox="0 0 248.000000 248.000000"
 preserveAspectRatio="xMidYMid meet">
<metadata>
Created by potrace 1.10, written by Peter Selinger 2001-2011
</metadata>
<g transform="translate(0.000000,248.000000) scale(0.100000,-0.100000)"
fill="#000000" stroke="none">
<path d="M1889 2316 c-3 -3 -52 -10 -110 -15 -102 -10 -271 -30 -419 -51 -41
-5 -156 -17 -255 -25 -99 -8 -234 -22 -300 -30 -66 -8 -163 -15 -215 -15 -101
0 -120 -7 -120 -45 0 -59 90 -76 285 -51 174 21 339 36 398 36 l48 0 -43 -51
c-129 -154 -493 -421 -746 -548 -69 -35 -80 -50 -64 -87 16 -34 58 -31 135 7
78 40 198 112 258 155 26 19 51 34 57 34 11 0 197 144 286 222 l49 42 -5 -381
c-6 -420 -5 -428 50 -421 54 6 56 23 59 486 l2 424 30 33 c16 18 34 49 40 68
l12 35 112 16 c111 15 184 24 387 47 58 6 115 18 128 26 24 15 30 54 9 71 -15
13 -61 25 -68 18z"/>
<path d="M1312 1888 c-17 -17 -15 -53 6 -70 9 -9 44 -21 77 -28 33 -6 89 -20
125 -30 36 -10 110 -28 165 -40 55 -13 160 -43 233 -67 119 -40 135 -43 160
-31 30 15 42 58 20 75 -20 16 -282 100 -383 123 -49 11 -117 28 -150 36 -167
44 -233 52 -253 32z"/>
<path d="M1709 1116 c-2 -2 -85 -9 -184 -15 -99 -7 -216 -16 -260 -21 -44 -5
-188 -16 -320 -25 -273 -17 -287 -19 -310 -45 -15 -17 -16 -40 -6 -287 11
-288 33 -489 55 -511 11 -12 108 -14 542 -12 291 1 549 5 574 8 53 8 63 23 84
136 9 42 25 118 36 169 45 198 50 225 61 308 12 98 0 215 -25 254 -9 13 -33
29 -53 34 -36 10 -185 15 -194 7z m167 -142 c9 -49 -3 -205 -21 -273 -8 -31
-22 -94 -31 -141 -10 -47 -25 -121 -34 -165 l-17 -80 -504 0 -504 0 -7 40
c-14 81 -29 568 -17 575 6 4 70 10 142 14 73 4 175 11 227 17 52 5 196 16 320
24 124 9 230 17 235 20 6 2 54 4 107 4 l97 1 7 -36z"/>
</g>
</svg>
