<?xml version="1.0" standalone="no"?>
<!DOCTYPE svg PUBLIC "-//W3C//DTD SVG 20010904//EN"
 "http://www.w3.org/TR/2001/REC-SVG-20010904/DTD/svg10.dtd">
<svg version="1.0" xmlns="http://www.w3.org/2000/svg"
 width="248.000000pt" height="248.000000pt" viewBox="0 0 248.000000 248.000000"
 preserveAspectRatio="xMidYMid meet">
<metadata>
Created by potrace 1.10, written by Peter Selinger 2001-2011
</metadata>
<g transform="translate(0.000000,248.000000) scale(0.100000,-0.100000)"
fill="#000000" stroke="none">
<path d="M353 2138 c-6 -7 -14 -23 -17 -34 -12 -39 -25 -1727 -13 -1749 26
-50 59 -46 142 17 105 82 167 128 260 193 86 61 108 92 88 124 -6 9 -22 17
-37 19 -28 3 -121 -56 -279 -179 l-72 -56 3 496 c2 273 5 502 7 509 3 6 18 12
35 12 16 0 49 4 72 9 24 6 122 24 218 41 96 18 189 36 205 41 17 4 68 13 114
19 100 12 131 28 131 70 0 47 -24 53 -137 35 -54 -9 -116 -20 -138 -25 -22 -5
-103 -21 -180 -35 -77 -14 -177 -32 -221 -40 -45 -8 -86 -15 -92 -15 -8 0 -10
76 -6 253 4 200 3 257 -8 277 -15 28 -59 38 -75 18z"/>
<path d="M1996 1881 c-16 -16 -90 -62 -165 -102 -75 -40 -149 -82 -166 -94
-16 -12 -66 -41 -110 -65 -133 -72 -165 -97 -165 -128 0 -16 5 -33 12 -40 26
-26 35 -22 258 111 84 49 132 76 279 153 93 49 151 104 151 142 0 58 -49 70
-94 23z"/>
</g>
</svg>
