<?xml version="1.0" standalone="no"?>
<!DOCTYPE svg PUBLIC "-//W3C//DTD SVG 20010904//EN"
 "http://www.w3.org/TR/2001/REC-SVG-20010904/DTD/svg10.dtd">
<svg version="1.0" xmlns="http://www.w3.org/2000/svg"
 width="248.000000pt" height="248.000000pt" viewBox="0 0 248.000000 248.000000"
 preserveAspectRatio="xMidYMid meet">
<metadata>
Created by potrace 1.10, written by Peter Selinger 2001-2011
</metadata>
<g transform="translate(0.000000,248.000000) scale(0.100000,-0.100000)"
fill="#000000" stroke="none">
<path d="M1090 1708 c-30 -5 -86 -15 -125 -23 -62 -12 -160 -30 -431 -80 -45
-8 -97 -15 -116 -15 -75 0 -106 -69 -44 -98 23 -12 41 -12 100 -2 39 6 96 15
126 20 68 10 312 57 360 70 19 5 73 14 119 19 46 6 95 18 108 26 29 20 32 70
4 85 -22 11 -24 11 -101 -2z"/>
</g>
</svg>
