<?xml version="1.0" standalone="no"?>
<!DOCTYPE svg PUBLIC "-//W3C//DTD SVG 20010904//EN"
 "http://www.w3.org/TR/2001/REC-SVG-20010904/DTD/svg10.dtd">
<svg version="1.0" xmlns="http://www.w3.org/2000/svg"
 width="248.000000pt" height="248.000000pt" viewBox="0 0 248.000000 248.000000"
 preserveAspectRatio="xMidYMid meet">
<metadata>
Created by potrace 1.10, written by Peter Selinger 2001-2011
</metadata>
<g transform="translate(0.000000,248.000000) scale(0.100000,-0.100000)"
fill="#000000" stroke="none">
<path d="M849 2214 c-9 -11 -16 -52 -19 -108 l-5 -90 -160 -28 c-88 -15 -192
-27 -230 -28 -80 0 -115 -17 -115 -55 0 -32 35 -55 86 -55 45 0 180 19 317 45
49 9 91 14 94 11 3 -3 2 -30 -1 -60 l-7 -54 -72 -16 c-112 -23 -357 -66 -381
-66 -36 0 -68 -28 -64 -58 4 -39 40 -53 108 -41 169 29 348 61 369 66 l24 6
-7 -74 c-16 -156 -94 -396 -165 -508 -33 -50 -39 -89 -19 -109 82 -82 239 257
288 620 49 371 60 559 34 596 -18 26 -56 29 -75 6z"/>
</g>
</svg>
