<?xml version="1.0" standalone="no"?>
<!DOCTYPE svg PUBLIC "-//W3C//DTD SVG 20010904//EN"
 "http://www.w3.org/TR/2001/REC-SVG-20010904/DTD/svg10.dtd">
<svg version="1.0" xmlns="http://www.w3.org/2000/svg"
 width="248.000000pt" height="248.000000pt" viewBox="0 0 248.000000 248.000000"
 preserveAspectRatio="xMidYMid meet">
<metadata>
Created by potrace 1.10, written by Peter Selinger 2001-2011
</metadata>
<g transform="translate(0.000000,248.000000) scale(0.100000,-0.100000)"
fill="#000000" stroke="none">
<path d="M1355 2256 c-14 -21 -14 -87 -5 -622 6 -329 13 -611 16 -627 11 -53
76 -60 95 -10 6 16 7 150 3 359 l-7 333 24 5 c13 3 67 10 119 16 215 25 316
42 338 56 26 17 29 56 6 75 -16 13 -12 14 -347 -28 -70 -8 -130 -14 -132 -11
-2 2 -5 40 -7 83 l-3 80 100 6 c118 7 370 54 403 76 16 10 22 22 20 40 -6 52
-19 53 -263 9 -44 -8 -122 -17 -172 -19 l-93 -6 0 82 c0 59 -5 89 -16 105 -20
29 -59 29 -79 -2z"/>
<path d="M849 2214 c-9 -11 -16 -52 -19 -108 l-5 -90 -160 -28 c-88 -15 -192
-27 -230 -28 -80 0 -115 -17 -115 -55 0 -32 35 -55 86 -55 45 0 180 19 317 45
49 9 91 14 94 11 3 -3 2 -30 -1 -60 l-7 -54 -72 -16 c-112 -23 -357 -66 -381
-66 -36 0 -68 -28 -64 -58 4 -39 40 -53 108 -41 164 28 348 61 368 66 19 4 22
1 22 -23 0 -16 -3 -45 -6 -65 -5 -31 -11 -38 -38 -42 -17 -4 -103 -20 -191
-36 -88 -17 -173 -31 -190 -31 -49 0 -80 -21 -80 -55 0 -21 7 -33 26 -44 25
-14 45 -12 230 22 111 20 205 35 207 32 15 -15 -75 -253 -127 -334 -33 -50
-39 -89 -19 -109 82 -82 239 257 288 620 49 371 60 559 34 596 -18 26 -56 29
-75 6z"/>
</g>
</svg>
