<?xml version="1.0" standalone="no"?>
<!DOCTYPE svg PUBLIC "-//W3C//DTD SVG 20010904//EN"
 "http://www.w3.org/TR/2001/REC-SVG-20010904/DTD/svg10.dtd">
<svg version="1.0" xmlns="http://www.w3.org/2000/svg"
 width="248.000000pt" height="248.000000pt" viewBox="0 0 248.000000 248.000000"
 preserveAspectRatio="xMidYMid meet">
<metadata>
Created by potrace 1.10, written by Peter Selinger 2001-2011
</metadata>
<g transform="translate(0.000000,248.000000) scale(0.100000,-0.100000)"
fill="#000000" stroke="none">
<path d="M1825 2150 c-38 -4 -153 -15 -255 -24 -102 -9 -192 -19 -200 -21 -8
-3 -55 -9 -105 -15 -49 -5 -130 -14 -180 -19 -49 -6 -148 -15 -218 -21 -136
-10 -180 -25 -193 -62 -5 -13 -7 -59 -5 -103 1 -44 -3 -120 -8 -170 -6 -49
-16 -135 -21 -190 -11 -115 -12 -116 -116 -686 -24 -131 -97 -337 -173 -486
-17 -34 -31 -69 -31 -76 0 -22 36 -49 62 -45 29 4 76 91 147 268 59 150 80
227 125 470 62 328 77 423 92 555 7 72 18 173 24 225 6 52 10 115 8 140 l-2
45 129 11 c165 15 312 31 445 50 58 7 159 18 225 24 66 5 184 15 262 22 78 6
145 9 149 5 8 -7 -43 -69 -148 -183 -78 -83 -93 -115 -66 -142 7 -7 24 -12 39
-12 21 0 44 19 106 88 121 134 182 207 198 238 20 38 19 88 -1 105 -20 16
-182 21 -289 9z"/>
</g>
</svg>
