<?xml version="1.0" standalone="no"?>
<!DOCTYPE svg PUBLIC "-//W3C//DTD SVG 20010904//EN"
 "http://www.w3.org/TR/2001/REC-SVG-20010904/DTD/svg10.dtd">
<svg version="1.0" xmlns="http://www.w3.org/2000/svg"
 width="248.000000pt" height="248.000000pt" viewBox="0 0 248.000000 248.000000"
 preserveAspectRatio="xMidYMid meet">
<metadata>
Created by potrace 1.10, written by Peter Selinger 2001-2011
</metadata>
<g transform="translate(0.000000,248.000000) scale(0.100000,-0.100000)"
fill="#000000" stroke="none">
<path d="M1289 2373 c-10 -11 -15 -55 -17 -148 l-4 -132 -51 -7 c-98 -13 -222
-25 -350 -36 -136 -10 -180 -25 -193 -62 -5 -13 -7 -59 -5 -103 1 -44 -3 -120
-8 -170 -6 -49 -16 -135 -21 -190 -11 -115 -12 -116 -116 -686 -24 -131 -97
-337 -173 -486 -17 -34 -31 -69 -31 -76 0 -22 36 -49 62 -45 29 4 76 91 147
268 59 150 80 227 125 470 62 328 77 423 92 555 7 72 18 173 24 225 6 52 10
115 8 140 l-2 45 174 16 c96 9 205 20 243 24 l67 8 0 -184 c0 -101 -3 -200 -6
-220 -6 -34 -9 -37 -48 -43 -308 -46 -316 -49 -316 -91 0 -54 52 -59 242 -25
61 11 161 24 222 30 61 6 146 16 188 22 43 6 80 9 82 7 6 -5 -16 -77 -56 -184
-26 -70 -74 -159 -172 -324 -32 -52 -32 -51 -114 59 -31 41 -71 92 -89 113
-19 21 -54 69 -78 107 -31 49 -52 72 -71 76 -59 15 -80 -35 -41 -94 13 -20 32
-50 42 -67 10 -16 39 -55 64 -86 90 -111 181 -228 181 -234 0 -6 -56 -80 -117
-156 -71 -87 -198 -194 -345 -292 -118 -78 -148 -103 -148 -121 0 -46 45 -59
103 -29 33 17 130 80 227 147 30 21 86 68 125 105 68 64 215 237 215 253 0 20
24 0 131 -108 62 -65 147 -149 188 -188 41 -39 108 -104 149 -143 122 -120
167 -147 286 -178 53 -13 62 -13 83 0 30 20 30 60 1 78 -13 8 -52 22 -87 32
-35 9 -80 29 -100 43 -64 47 -512 488 -548 539 -14 20 -12 25 16 66 17 25 41
64 54 88 13 24 47 85 75 134 49 88 152 372 152 418 -1 50 -40 68 -120 56 -99
-14 -261 -32 -263 -28 -2 2 -1 102 1 221 l4 217 51 6 c51 6 138 14 414 37 78
6 145 9 149 5 8 -7 -43 -69 -148 -183 -78 -83 -93 -115 -66 -142 7 -7 24 -12
39 -12 21 0 44 19 106 88 121 134 182 207 198 238 19 37 19 88 0 104 -23 19
-136 24 -270 11 -152 -15 -436 -40 -452 -41 -10 0 -13 30 -13 118 0 90 -4 123
-16 140 -18 26 -56 29 -75 5z"/>
</g>
</svg>
