<?xml version="1.0" standalone="no"?>
<!DOCTYPE svg PUBLIC "-//W3C//DTD SVG 20010904//EN"
 "http://www.w3.org/TR/2001/REC-SVG-20010904/DTD/svg10.dtd">
<svg version="1.0" xmlns="http://www.w3.org/2000/svg"
 width="248.000000pt" height="248.000000pt" viewBox="0 0 248.000000 248.000000"
 preserveAspectRatio="xMidYMid meet">
<metadata>
Created by potrace 1.10, written by Peter Selinger 2001-2011
</metadata>
<g transform="translate(0.000000,248.000000) scale(0.100000,-0.100000)"
fill="#000000" stroke="none">
<path d="M679 1994 c-10 -12 -13 -41 -11 -103 2 -47 -2 -126 -8 -176 -5 -49
-15 -135 -20 -190 -11 -115 -12 -116 -116 -686 -24 -131 -97 -337 -173 -486
-17 -34 -31 -69 -31 -76 0 -22 36 -49 62 -45 29 4 76 91 147 268 59 150 80
227 125 470 62 328 77 423 92 555 7 72 18 175 25 230 12 111 6 198 -17 232
-17 27 -56 30 -75 7z"/>
</g>
</svg>
