<?xml version="1.0" standalone="no"?>
<!DOCTYPE svg PUBLIC "-//W3C//DTD SVG 20010904//EN"
 "http://www.w3.org/TR/2001/REC-SVG-20010904/DTD/svg10.dtd">
<svg version="1.0" xmlns="http://www.w3.org/2000/svg"
 width="248.000000pt" height="248.000000pt" viewBox="0 0 248.000000 248.000000"
 preserveAspectRatio="xMidYMid meet">
<metadata>
Created by potrace 1.10, written by Peter Selinger 2001-2011
</metadata>
<g transform="translate(0.000000,248.000000) scale(0.100000,-0.100000)"
fill="#000000" stroke="none">
<path d="M1869 2204 c-9 -12 -16 -55 -19 -135 -4 -66 -11 -124 -16 -129 -6 -6
-62 -15 -124 -20 -125 -11 -160 -26 -160 -65 0 -32 39 -58 73 -50 31 8 33 -2
43 -166 l6 -116 -77 -6 c-86 -6 -125 -25 -125 -61 0 -45 19 -49 165 -42 l135
8 0 -70 0 -69 -127 -7 c-144 -8 -177 -19 -181 -58 -6 -49 24 -58 170 -51 l128
6 0 -284 c0 -244 2 -288 16 -307 21 -31 64 -26 81 8 9 18 13 101 13 311 l0
286 107 6 c58 4 130 7 160 7 29 0 69 7 88 14 29 12 35 20 35 44 0 52 -14 56
-192 48 -88 -4 -167 -10 -174 -13 -11 -4 -14 10 -14 64 l0 70 113 6 c61 4 141
7 177 7 75 0 110 18 110 55 0 46 -37 59 -156 52 -117 -6 -111 -11 -79 69 7 17
22 74 34 126 l22 95 65 11 c74 12 94 24 94 57 0 50 -46 57 -242 39 l-67 -6 5
114 c4 84 2 119 -8 138 -16 31 -59 38 -79 14z m111 -437 c-6 -29 -26 -91 -43
-139 l-31 -86 -59 -7 c-32 -4 -60 -5 -62 -3 -6 6 -25 281 -20 286 8 9 220 17
223 9 2 -4 -1 -31 -8 -60z"/>
<path d="M1250 1920 c-47 -4 -139 -11 -205 -15 -185 -12 -196 -21 -206 -178
-18 -300 -91 -575 -215 -816 -41 -79 -74 -150 -74 -157 0 -8 12 -21 26 -30 24
-16 27 -16 52 3 15 11 54 71 89 139 37 72 64 113 67 104 3 -8 10 -66 15 -129
7 -82 14 -118 26 -130 13 -14 50 -16 253 -19 219 -3 239 -2 254 15 10 11 19
56 27 123 6 58 15 130 20 160 13 75 13 193 1 225 -17 44 -50 49 -195 30 -193
-25 -316 -37 -322 -32 -2 3 9 58 25 124 l30 118 204 11 c237 13 252 16 296 53
30 26 35 37 53 137 25 138 29 235 10 257 -15 19 -71 20 -231 7z m136 -122 c-2
-13 -10 -63 -17 -111 -11 -76 -16 -90 -34 -97 -13 -5 -109 -12 -215 -16 l-193
-7 6 25 c4 14 10 64 13 110 l7 86 146 12 c80 6 157 13 171 14 14 2 46 4 73 5
44 1 47 -1 43 -21z m-110 -765 c-3 -65 -11 -144 -17 -175 l-12 -58 -167 0
-168 0 -11 93 c-6 50 -12 119 -13 152 l-2 60 35 2 c18 2 84 10 144 18 133 18
163 22 194 24 l24 1 -7 -117z"/>
<path d="M198 1896 c-32 -16 -36 -59 -6 -80 12 -9 29 -16 37 -16 9 0 70 -27
138 -61 122 -61 157 -68 176 -38 29 46 -13 81 -183 157 -98 44 -133 52 -162
38z"/>
<path d="M307 1370 c-178 -88 -187 -94 -187 -124 0 -56 44 -59 147 -11 42 19
77 35 78 35 1 0 -6 -35 -16 -77 -28 -119 -25 -153 16 -207 41 -54 43 -71 12
-117 -27 -40 -218 -203 -267 -227 -41 -20 -52 -59 -24 -87 14 -13 28 -15 73
-10 31 3 116 8 190 11 204 8 275 -6 1096 -221 196 -51 326 -73 475 -81 101 -6
109 -5 205 29 207 72 273 113 261 161 -10 42 -46 43 -129 3 -39 -20 -108 -48
-152 -62 -75 -26 -88 -27 -205 -22 -166 8 -223 19 -640 128 -195 51 -391 101
-435 111 -148 34 -359 68 -430 68 l-69 0 66 63 c68 64 101 117 113 178 8 43
-4 76 -46 123 l-32 37 26 106 c16 66 38 126 57 156 41 66 39 92 -10 109 -9 3
-87 -29 -173 -72z"/>
</g>
</svg>
