<?xml version="1.0" standalone="no"?>
<!DOCTYPE svg PUBLIC "-//W3C//DTD SVG 20010904//EN"
 "http://www.w3.org/TR/2001/REC-SVG-20010904/DTD/svg10.dtd">
<svg version="1.0" xmlns="http://www.w3.org/2000/svg"
 width="248.000000pt" height="248.000000pt" viewBox="0 0 248.000000 248.000000"
 preserveAspectRatio="xMidYMid meet">
<metadata>
Created by potrace 1.10, written by Peter Selinger 2001-2011
</metadata>
<g transform="translate(0.000000,248.000000) scale(0.100000,-0.100000)"
fill="#000000" stroke="none">
<path d="M1230 1919 c-52 -4 -145 -12 -207 -17 -64 -5 -119 -14 -128 -22 -24
-20 -18 -57 11 -77 24 -15 39 -16 168 -5 77 7 180 15 228 18 l86 7 -5 -44 c-3
-24 -11 -80 -18 -123 -15 -87 -8 -120 24 -131 36 -11 59 11 70 67 37 188 44
295 22 321 -15 19 -82 21 -251 6z"/>
</g>
</svg>
