<?xml version="1.0" standalone="no"?>
<!DOCTYPE svg PUBLIC "-//W3C//DTD SVG 20010904//EN"
 "http://www.w3.org/TR/2001/REC-SVG-20010904/DTD/svg10.dtd">
<svg version="1.0" xmlns="http://www.w3.org/2000/svg"
 width="248.000000pt" height="248.000000pt" viewBox="0 0 248.000000 248.000000"
 preserveAspectRatio="xMidYMid meet">
<metadata>
Created by potrace 1.10, written by Peter Selinger 2001-2011
</metadata>
<g transform="translate(0.000000,248.000000) scale(0.100000,-0.100000)"
fill="#000000" stroke="none">
<path d="M1869 2203 c-9 -10 -16 -56 -19 -134 -4 -66 -11 -124 -16 -129 -6 -6
-62 -15 -123 -20 -125 -10 -161 -25 -161 -65 0 -30 40 -59 69 -50 30 9 38 -16
46 -156 l7 -126 -75 -5 c-86 -6 -127 -26 -127 -62 0 -48 12 -50 258 -37 125 7
293 16 373 20 156 7 179 15 179 57 0 45 -38 57 -156 51 -117 -6 -111 -11 -79
69 7 17 23 74 35 127 12 54 25 97 28 97 32 0 127 22 138 31 19 15 18 53 -2 70
-16 13 -115 15 -231 3 l-62 -6 6 115 c5 99 3 120 -11 141 -19 30 -57 34 -77 9z
m111 -436 c-6 -29 -25 -91 -43 -138 -30 -84 -32 -87 -66 -93 -90 -15 -88 -16
-95 82 -4 48 -9 113 -12 144 l-6 56 54 6 c88 10 173 12 176 3 2 -4 -1 -31 -8
-60z"/>
<path d="M1315 1925 c-5 -2 -91 -8 -190 -15 -216 -14 -217 -14 -252 -44 -27
-23 -28 -29 -34 -138 -11 -191 -45 -367 -111 -578 -29 -91 -120 -286 -159
-342 -26 -36 -24 -64 7 -84 24 -16 27 -16 52 3 15 11 54 71 89 139 38 74 64
113 67 104 3 -8 10 -66 15 -129 7 -82 14 -118 25 -130 14 -14 51 -16 254 -19
219 -3 239 -2 254 15 10 11 19 56 27 123 6 58 16 137 22 175 15 99 8 210 -14
232 -22 22 -122 22 -266 -1 -129 -20 -241 -29 -241 -19 0 4 13 60 29 123 l29
115 204 11 c237 13 252 16 296 53 30 26 35 37 53 137 25 138 29 235 10 257
-10 13 -30 17 -85 16 -39 0 -75 -2 -81 -4z m71 -127 c-3 -13 -10 -64 -17 -115
-15 -109 9 -99 -258 -109 l-184 -7 6 25 c4 14 10 64 13 110 l7 86 146 12 c80
6 157 13 171 14 14 2 46 4 73 5 44 1 47 -1 43 -21z m-110 -765 c-3 -65 -11
-144 -17 -175 l-12 -58 -167 0 -168 0 -7 63 c-12 98 -22 231 -19 238 2 3 38 9
81 13 43 4 121 13 173 20 52 8 106 14 119 15 l24 1 -7 -117z"/>
</g>
</svg>
