<?xml version="1.0" standalone="no"?>
<!DOCTYPE svg PUBLIC "-//W3C//DTD SVG 20010904//EN"
 "http://www.w3.org/TR/2001/REC-SVG-20010904/DTD/svg10.dtd">
<svg version="1.0" xmlns="http://www.w3.org/2000/svg"
 width="248.000000pt" height="248.000000pt" viewBox="0 0 248.000000 248.000000"
 preserveAspectRatio="xMidYMid meet">
<metadata>
Created by potrace 1.10, written by Peter Selinger 2001-2011
</metadata>
<g transform="translate(0.000000,248.000000) scale(0.100000,-0.100000)"
fill="#000000" stroke="none">
<path d="M1315 1925 c-5 -2 -91 -8 -190 -15 -216 -14 -217 -14 -252 -44 -27
-23 -28 -29 -34 -138 -11 -191 -45 -367 -111 -578 -29 -91 -120 -286 -159
-342 -26 -36 -24 -64 7 -84 24 -16 27 -16 52 3 35 26 152 251 193 372 17 51
46 153 64 225 l33 131 204 11 c237 13 252 16 296 53 30 26 35 37 53 137 25
138 29 235 10 257 -10 13 -30 17 -85 16 -39 0 -75 -2 -81 -4z m71 -127 c-3
-13 -10 -64 -17 -115 -15 -109 9 -99 -258 -109 l-184 -7 6 25 c4 14 10 64 13
110 l7 86 146 12 c80 6 157 13 171 14 14 2 46 4 73 5 44 1 47 -1 43 -21z"/>
</g>
</svg>
