<?xml version="1.0" standalone="no"?>
<!DOCTYPE svg PUBLIC "-//W3C//DTD SVG 20010904//EN"
 "http://www.w3.org/TR/2001/REC-SVG-20010904/DTD/svg10.dtd">
<svg version="1.0" xmlns="http://www.w3.org/2000/svg"
 width="248.000000pt" height="248.000000pt" viewBox="0 0 248.000000 248.000000"
 preserveAspectRatio="xMidYMid meet">
<metadata>
Created by potrace 1.10, written by Peter Selinger 2001-2011
</metadata>
<g transform="translate(0.000000,248.000000) scale(0.100000,-0.100000)"
fill="#000000" stroke="none">
<path d="M1580 2264 c-81 -13 -401 -54 -575 -75 -44 -5 -140 -14 -214 -19 -74
-6 -141 -15 -148 -21 -17 -15 -17 -54 2 -69 24 -20 262 -4 624 41 178 22 325
39 326 37 2 -2 -10 -46 -26 -98 -18 -61 -31 -130 -35 -191 -6 -87 -5 -103 17
-155 29 -74 50 -107 108 -167 86 -90 250 -167 355 -167 71 0 86 17 86 96 0 64
-11 84 -46 84 -26 0 -41 -16 -46 -50 -3 -22 -7 -25 -38 -22 -19 1 -68 19 -110
39 -144 69 -230 191 -230 325 0 74 59 268 99 325 33 47 38 72 19 91 -15 15
-56 14 -168 -4z"/>
<path d="M1871 2091 c-42 -43 -95 -91 -118 -106 -33 -21 -43 -34 -43 -54 0
-15 5 -32 12 -39 6 -6 12 -26 12 -44 1 -29 8 -38 66 -75 36 -22 97 -62 135
-87 78 -50 103 -56 129 -27 15 17 16 22 4 45 -13 24 -100 86 -224 160 l-49 29
25 15 c45 28 200 196 200 217 0 28 -19 45 -49 45 -18 0 -46 -22 -100 -79z"/>
</g>
</svg>
