<?xml version="1.0" standalone="no"?>
<!DOCTYPE svg PUBLIC "-//W3C//DTD SVG 20010904//EN"
 "http://www.w3.org/TR/2001/REC-SVG-20010904/DTD/svg10.dtd">
<svg version="1.0" xmlns="http://www.w3.org/2000/svg"
 width="248.000000pt" height="248.000000pt" viewBox="0 0 248.000000 248.000000"
 preserveAspectRatio="xMidYMid meet">
<metadata>
Created by potrace 1.10, written by Peter Selinger 2001-2011
</metadata>
<g transform="translate(0.000000,248.000000) scale(0.100000,-0.100000)"
fill="#000000" stroke="none">
<path d="M1119 2309 c-14 -14 -19 -27 -14 -42 15 -49 18 -216 4 -261 -14 -50
-18 -52 -104 -55 -33 -1 -91 -6 -130 -11 -38 -4 -133 -16 -210 -25 -180 -21
-238 -49 -220 -105 11 -35 41 -43 88 -26 59 22 318 54 580 71 122 9 256 19
297 24 41 5 183 15 315 21 132 6 259 13 282 16 49 6 73 25 73 58 0 47 -13 49
-247 37 -263 -14 -343 -19 -448 -32 -44 -5 -101 -9 -128 -9 l-48 0 8 38 c10
47 10 150 -1 225 -12 88 -53 120 -97 76z"/>
</g>
</svg>
