<?xml version="1.0" standalone="no"?>
<!DOCTYPE svg PUBLIC "-//W3C//DTD SVG 20010904//EN"
 "http://www.w3.org/TR/2001/REC-SVG-20010904/DTD/svg10.dtd">
<svg version="1.0" xmlns="http://www.w3.org/2000/svg"
 width="248.000000pt" height="248.000000pt" viewBox="0 0 248.000000 248.000000"
 preserveAspectRatio="xMidYMid meet">
<metadata>
Created by potrace 1.10, written by Peter Selinger 2001-2011
</metadata>
<g transform="translate(0.000000,248.000000) scale(0.100000,-0.100000)"
fill="#000000" stroke="none">
<path d="M1119 2309 c-14 -14 -19 -27 -14 -42 15 -49 18 -216 4 -261 -14 -50
-18 -52 -104 -55 -33 -1 -91 -6 -130 -11 -38 -4 -133 -16 -210 -25 -204 -24
-252 -55 -204 -132 23 -37 24 -45 27 -303 6 -381 -24 -588 -119 -845 -47 -124
-109 -246 -180 -352 -27 -40 -49 -83 -49 -96 0 -49 52 -64 87 -24 102 113 238
394 298 619 59 219 87 587 66 856 -7 85 -11 156 -8 158 10 10 319 45 527 59
124 9 259 19 300 24 41 5 183 15 315 21 132 6 259 13 282 16 49 6 73 25 73 58
0 47 -13 49 -247 37 -263 -14 -343 -19 -448 -32 -44 -5 -101 -9 -128 -9 l-48
0 8 38 c10 47 10 150 -1 225 -12 88 -53 120 -97 76z"/>
</g>
</svg>
