<?xml version="1.0" standalone="no"?>
<!DOCTYPE svg PUBLIC "-//W3C//DTD SVG 20010904//EN"
 "http://www.w3.org/TR/2001/REC-SVG-20010904/DTD/svg10.dtd">
<svg version="1.0" xmlns="http://www.w3.org/2000/svg"
 width="248.000000pt" height="248.000000pt" viewBox="0 0 248.000000 248.000000"
 preserveAspectRatio="xMidYMid meet">
<metadata>
Created by potrace 1.10, written by Peter Selinger 2001-2011
</metadata>
<g transform="translate(0.000000,248.000000) scale(0.100000,-0.100000)"
fill="#000000" stroke="none">
<path d="M671 2221 c-58 -59 -141 -136 -183 -171 -82 -66 -95 -92 -60 -122 18
-16 82 -41 150 -58 23 -6 42 -15 42 -19 0 -5 -45 -52 -100 -104 -107 -102
-118 -125 -75 -153 23 -15 29 -15 68 0 48 18 260 66 266 60 11 -11 -77 -161
-125 -213 -59 -64 -70 -102 -34 -121 31 -17 53 -5 119 65 106 114 156 252 144
397 -6 71 -16 88 -48 88 -29 0 -43 -17 -47 -60 -3 -39 -24 -53 -93 -66 l-40
-7 60 64 c33 36 93 105 133 154 72 90 87 126 60 153 -27 27 -55 12 -124 -69
-38 -45 -72 -87 -76 -92 -6 -10 -110 17 -131 34 -5 4 22 32 60 63 82 68 213
217 213 243 0 26 -19 43 -49 43 -18 0 -52 -28 -130 -109z"/>
</g>
</svg>
