<?xml version="1.0" standalone="no"?>
<!DOCTYPE svg PUBLIC "-//W3C//DTD SVG 20010904//EN"
 "http://www.w3.org/TR/2001/REC-SVG-20010904/DTD/svg10.dtd">
<svg version="1.0" xmlns="http://www.w3.org/2000/svg"
 width="248.000000pt" height="248.000000pt" viewBox="0 0 248.000000 248.000000"
 preserveAspectRatio="xMidYMid meet">
<metadata>
Created by potrace 1.10, written by Peter Selinger 2001-2011
</metadata>
<g transform="translate(0.000000,248.000000) scale(0.100000,-0.100000)"
fill="#000000" stroke="none">
<path d="M2076 2349 c-22 -5 -113 -15 -203 -22 -163 -13 -164 -13 -189 -43
-20 -24 -23 -37 -19 -74 2 -25 7 -225 11 -445 4 -243 10 -405 16 -412 14 -17
53 -16 68 1 9 11 11 119 8 436 -3 367 -1 421 12 424 8 3 47 7 85 11 39 3 82 8
98 11 15 3 27 2 27 -3 0 -5 -27 -40 -60 -79 -82 -96 -79 -137 13 -158 16 -4
55 -32 87 -64 66 -65 85 -110 68 -168 l-10 -37 -47 6 c-27 3 -77 17 -111 31
-79 32 -115 33 -131 5 -18 -34 15 -67 101 -102 87 -35 218 -49 246 -26 35 29
54 86 54 162 0 69 -3 78 -39 134 -25 39 -59 75 -95 99 -30 22 -55 42 -56 46 0
4 39 51 86 103 84 93 103 130 78 155 -15 15 -58 19 -98 9z"/>
<path d="M671 2221 c-58 -59 -141 -136 -183 -171 -82 -66 -95 -92 -60 -122 18
-16 82 -41 150 -58 23 -6 42 -15 42 -19 0 -5 -45 -52 -100 -104 -107 -102
-118 -125 -75 -153 23 -15 29 -15 68 0 48 18 260 66 266 60 11 -11 -77 -161
-125 -213 -59 -64 -70 -102 -34 -121 31 -17 53 -5 119 65 106 114 156 252 144
397 -6 71 -16 88 -48 88 -29 0 -43 -17 -47 -60 -3 -39 -24 -53 -93 -66 l-40
-7 60 64 c33 36 93 105 133 154 72 90 87 126 60 153 -27 27 -55 12 -124 -69
-38 -45 -72 -87 -76 -92 -6 -10 -110 17 -131 34 -5 4 22 32 60 63 82 68 213
217 213 243 0 26 -19 43 -49 43 -18 0 -52 -28 -130 -109z"/>
<path d="M1430 2279 c-52 -4 -160 -12 -239 -18 -197 -14 -185 -1 -178 -216 5
-130 1 -226 -14 -408 -23 -255 -22 -267 27 -267 12 0 26 5 29 11 4 6 63 37
131 69 68 32 138 68 154 80 l30 22 38 -30 c20 -16 46 -39 56 -51 35 -39 86
-22 86 29 0 36 -215 250 -251 250 -52 0 -65 -50 -25 -97 l24 -28 -26 -18 c-37
-25 -121 -64 -154 -72 -33 -8 -33 -11 -18 120 6 49 14 93 18 97 5 5 69 15 143
24 166 19 188 20 216 11 15 -6 28 -2 47 15 23 21 27 34 36 138 6 63 15 160 22
214 11 98 11 99 -11 117 -13 11 -28 18 -35 18 -6 -1 -54 -5 -106 -10z m50
-133 c0 -19 -5 -38 -11 -41 -5 -4 -54 -11 -107 -15 -53 -5 -131 -12 -173 -16
-70 -6 -77 -5 -83 12 -7 24 -3 51 10 63 8 9 195 26 317 30 l47 1 0 -34z m-20
-190 c0 -25 -4 -47 -9 -50 -19 -12 -325 -46 -333 -38 -5 5 -8 29 -6 53 l3 44
50 7 c28 4 97 12 155 16 58 5 113 10 123 11 14 1 17 -7 17 -43z"/>
<path d="M1190 1395 c-9 -10 -10 -37 -6 -92 4 -43 3 -83 -1 -89 -11 -16 -214
-35 -301 -28 -81 6 -102 -3 -102 -42 0 -34 36 -54 100 -54 30 0 60 -4 66 -8 6
-4 17 -54 24 -112 6 -57 14 -108 16 -112 8 -13 -15 -18 -148 -33 -73 -8 -182
-20 -241 -27 -121 -13 -167 -33 -167 -72 0 -42 22 -51 98 -38 37 7 117 16 177
22 61 6 169 17 240 25 163 18 340 33 470 40 289 15 688 25 748 19 77 -7 97 2
97 46 0 49 -14 52 -217 51 -104 0 -257 -4 -342 -7 l-154 -7 5 29 c6 36 39 204
44 222 2 8 25 12 69 12 85 0 105 11 105 56 0 28 -5 36 -26 44 -14 6 -30 8 -35
4 -5 -3 -93 -9 -197 -15 -103 -5 -196 -10 -207 -12 -18 -2 -20 5 -25 79 -3 47
-11 88 -19 98 -17 20 -54 21 -71 1z m296 -279 c8 -20 -45 -234 -59 -239 -7 -2
-41 -5 -77 -6 -36 -1 -105 -6 -155 -11 -74 -7 -92 -6 -101 6 -12 15 -40 211
-32 219 2 2 53 9 113 15 61 7 142 15 180 20 109 12 125 11 131 -4z"/>
</g>
</svg>
