<?xml version="1.0" standalone="no"?>
<!DOCTYPE svg PUBLIC "-//W3C//DTD SVG 20010904//EN"
 "http://www.w3.org/TR/2001/REC-SVG-20010904/DTD/svg10.dtd">
<svg version="1.0" xmlns="http://www.w3.org/2000/svg"
 width="248.000000pt" height="248.000000pt" viewBox="0 0 248.000000 248.000000"
 preserveAspectRatio="xMidYMid meet">
<metadata>
Created by potrace 1.10, written by Peter Selinger 2001-2011
</metadata>
<g transform="translate(0.000000,248.000000) scale(0.100000,-0.100000)"
fill="#000000" stroke="none">
<path d="M671 2221 c-58 -59 -141 -136 -183 -171 -82 -66 -95 -92 -60 -122 18
-16 82 -41 150 -58 23 -6 42 -15 42 -19 0 -5 -45 -52 -100 -104 -107 -101
-118 -125 -75 -153 23 -15 28 -14 82 4 32 11 85 25 118 32 92 18 209 51 223
62 15 13 16 50 0 66 -16 16 -61 15 -128 -3 -30 -8 -61 -15 -69 -15 -8 0 12 28
45 63 32 34 92 103 132 152 72 90 87 126 60 153 -27 27 -55 12 -124 -69 -38
-45 -72 -87 -76 -92 -6 -10 -110 17 -131 34 -5 4 22 32 60 63 82 68 213 217
213 243 0 26 -19 43 -49 43 -18 0 -52 -28 -130 -109z"/>
</g>
</svg>
