<?xml version="1.0" standalone="no"?>
<!DOCTYPE svg PUBLIC "-//W3C//DTD SVG 20010904//EN"
 "http://www.w3.org/TR/2001/REC-SVG-20010904/DTD/svg10.dtd">
<svg version="1.0" xmlns="http://www.w3.org/2000/svg"
 width="248.000000pt" height="248.000000pt" viewBox="0 0 248.000000 248.000000"
 preserveAspectRatio="xMidYMid meet">
<metadata>
Created by potrace 1.10, written by Peter Selinger 2001-2011
</metadata>
<g transform="translate(0.000000,248.000000) scale(0.100000,-0.100000)"
fill="#000000" stroke="none">
<path d="M671 2221 c-58 -59 -141 -136 -183 -171 -82 -66 -95 -92 -60 -122 18
-16 82 -41 150 -58 23 -6 42 -15 42 -19 0 -5 -45 -52 -100 -104 -107 -102
-118 -125 -75 -153 23 -15 29 -15 68 0 48 18 260 66 266 60 11 -11 -77 -161
-125 -213 -59 -64 -70 -102 -34 -121 31 -17 53 -5 119 65 106 114 156 252 144
397 -6 71 -16 88 -48 88 -29 0 -43 -17 -47 -60 -3 -39 -24 -53 -93 -66 l-40
-7 60 64 c33 36 93 105 133 154 72 90 87 126 60 153 -27 27 -55 12 -124 -69
-38 -45 -72 -87 -76 -92 -6 -10 -110 17 -131 34 -5 4 22 32 60 63 82 68 213
217 213 243 0 26 -19 43 -49 43 -18 0 -52 -28 -130 -109z"/>
<path d="M1430 2279 c-52 -4 -160 -12 -239 -18 -79 -6 -149 -16 -157 -22 -19
-15 -18 -53 1 -69 16 -13 173 -10 370 7 l75 6 0 -36 c0 -20 -5 -39 -11 -42
-11 -7 -141 -20 -304 -31 -114 -7 -149 -19 -153 -52 -7 -49 11 -55 153 -48 71
4 139 9 150 11 11 3 48 7 83 9 l64 5 -5 -62 c-3 -34 -8 -76 -12 -94 -6 -26 -3
-34 18 -48 27 -17 51 -12 75 17 6 8 16 65 22 128 5 63 15 160 22 214 11 98 11
99 -11 117 -13 11 -28 18 -35 18 -6 -1 -54 -5 -106 -10z"/>
</g>
</svg>
