<?xml version="1.0" standalone="no"?>
<!DOCTYPE svg PUBLIC "-//W3C//DTD SVG 20010904//EN"
 "http://www.w3.org/TR/2001/REC-SVG-20010904/DTD/svg10.dtd">
<svg version="1.0" xmlns="http://www.w3.org/2000/svg"
 width="248.000000pt" height="248.000000pt" viewBox="0 0 248.000000 248.000000"
 preserveAspectRatio="xMidYMid meet">
<metadata>
Created by potrace 1.10, written by Peter Selinger 2001-2011
</metadata>
<g transform="translate(0.000000,248.000000) scale(0.100000,-0.100000)"
fill="#000000" stroke="none">
<path d="M1121 2327 c-13 -17 -25 -75 -45 -231 -9 -64 -25 -157 -37 -206 -17
-76 -24 -91 -42 -95 -23 -4 -295 -31 -412 -39 -172 -13 -215 -27 -215 -70 0
-47 18 -51 183 -37 84 6 188 16 232 21 186 21 195 21 195 5 0 -32 -95 -277
-152 -389 -141 -283 -404 -606 -553 -681 -78 -39 -95 -53 -95 -80 0 -79 109
-51 253 64 178 144 432 503 545 771 41 98 98 257 107 297 3 17 12 36 18 41 7
5 55 12 107 16 52 3 176 13 275 21 99 9 252 20 340 26 315 19 346 23 367 48
24 30 23 37 -8 67 -19 20 -31 24 -50 20 -42 -11 -163 -24 -279 -31 -60 -3
-247 -17 -414 -31 -167 -14 -305 -24 -307 -22 -2 2 5 46 16 98 20 103 54 341
53 378 -2 46 -55 71 -82 39z"/>
</g>
</svg>
