<?xml version="1.0" standalone="no"?>
<!DOCTYPE svg PUBLIC "-//W3C//DTD SVG 20010904//EN"
 "http://www.w3.org/TR/2001/REC-SVG-20010904/DTD/svg10.dtd">
<svg version="1.0" xmlns="http://www.w3.org/2000/svg"
 width="248.000000pt" height="248.000000pt" viewBox="0 0 248.000000 248.000000"
 preserveAspectRatio="xMidYMid meet">
<metadata>
Created by potrace 1.10, written by Peter Selinger 2001-2011
</metadata>
<g transform="translate(0.000000,248.000000) scale(0.100000,-0.100000)"
fill="#000000" stroke="none">
<path d="M2129 1896 c-7 -8 -164 -25 -284 -31 -159 -9 -779 -62 -990 -84 -99
-11 -218 -22 -265 -25 -116 -8 -186 -20 -205 -36 -20 -16 -19 -54 1 -71 16
-13 163 -3 549 36 299 31 652 61 895 76 308 19 341 23 362 48 24 30 23 37 -7
66 -22 23 -45 31 -56 21z"/>
</g>
</svg>
