<?xml version="1.0" standalone="no"?>
<!DOCTYPE svg PUBLIC "-//W3C//DTD SVG 20010904//EN"
 "http://www.w3.org/TR/2001/REC-SVG-20010904/DTD/svg10.dtd">
<svg version="1.0" xmlns="http://www.w3.org/2000/svg"
 width="248.000000pt" height="248.000000pt" viewBox="0 0 248.000000 248.000000"
 preserveAspectRatio="xMidYMid meet">
<metadata>
Created by potrace 1.10, written by Peter Selinger 2001-2011
</metadata>
<g transform="translate(0.000000,248.000000) scale(0.100000,-0.100000)"
fill="#000000" stroke="none">
<path d="M1760 2041 c-8 -4 -76 -16 -150 -25 -74 -10 -180 -24 -235 -32 -186
-27 -519 -54 -585 -48 -53 5 -68 3 -79 -9 -19 -23 -10 -60 19 -74 48 -24 380
-8 665 31 61 9 175 24 254 35 104 14 151 25 170 39 29 21 38 56 21 78 -14 15
-56 18 -80 5z"/>
<path d="M1450 1644 c-325 -34 -579 -65 -630 -78 -30 -7 -82 -19 -115 -25
-114 -23 -131 -44 -100 -124 8 -23 37 -152 64 -286 41 -210 50 -247 69 -259
19 -13 25 -12 47 2 31 20 31 32 3 173 -12 62 -19 115 -17 117 8 8 190 35 301
46 62 6 178 17 258 25 80 8 174 17 210 20 110 9 173 16 208 22 l33 5 -7 -38
c-4 -22 -20 -70 -36 -109 -17 -38 -32 -79 -35 -90 -7 -30 29 -59 62 -51 33 8
69 83 113 236 17 58 46 150 63 205 40 126 47 186 23 206 -24 20 -337 22 -514
3z m416 -87 c5 -5 -37 -150 -47 -163 -4 -5 -61 -16 -126 -22 -192 -20 -417
-42 -588 -58 -88 -8 -199 -21 -248 -29 -48 -8 -93 -15 -101 -15 -9 0 -18 21
-25 63 -6 34 -14 71 -17 83 -5 19 3 23 118 47 123 26 335 53 653 82 94 8 186
16 205 18 39 4 171 -1 176 -6z"/>
</g>
</svg>
