<?xml version="1.0" standalone="no"?>
<!DOCTYPE svg PUBLIC "-//W3C//DTD SVG 20010904//EN"
 "http://www.w3.org/TR/2001/REC-SVG-20010904/DTD/svg10.dtd">
<svg version="1.0" xmlns="http://www.w3.org/2000/svg"
 width="248.000000pt" height="248.000000pt" viewBox="0 0 248.000000 248.000000"
 preserveAspectRatio="xMidYMid meet">
<metadata>
Created by potrace 1.10, written by Peter Selinger 2001-2011
</metadata>
<g transform="translate(0.000000,248.000000) scale(0.100000,-0.100000)"
fill="#000000" stroke="none">
<path d="M1760 2041 c-8 -4 -76 -16 -150 -25 -74 -10 -180 -24 -235 -32 -186
-27 -519 -54 -585 -48 -53 5 -68 3 -79 -9 -19 -23 -10 -60 19 -74 48 -24 380
-8 665 31 61 9 175 24 254 35 104 14 151 25 170 39 29 21 38 56 21 78 -14 15
-56 18 -80 5z"/>
<path d="M1450 1644 c-325 -34 -579 -65 -630 -78 -30 -7 -82 -19 -115 -25
-114 -23 -131 -44 -100 -124 8 -23 37 -152 64 -286 41 -210 50 -247 69 -259
19 -13 25 -12 47 2 31 20 31 37 6 164 -11 54 -27 133 -35 177 -9 44 -22 111
-31 149 -8 38 -14 71 -12 72 1 1 56 13 122 28 234 50 1003 121 1029 95 3 -3
-5 -41 -18 -85 -13 -43 -36 -119 -51 -169 -15 -49 -43 -132 -63 -183 l-35 -93
20 -21 c16 -15 28 -19 48 -14 33 8 66 76 111 231 18 61 47 155 65 210 40 125
47 186 23 206 -24 20 -337 22 -514 3z"/>
</g>
</svg>
