<?xml version="1.0" standalone="no"?>
<!DOCTYPE svg PUBLIC "-//W3C//DTD SVG 20010904//EN"
 "http://www.w3.org/TR/2001/REC-SVG-20010904/DTD/svg10.dtd">
<svg version="1.0" xmlns="http://www.w3.org/2000/svg"
 width="248.000000pt" height="248.000000pt" viewBox="0 0 248.000000 248.000000"
 preserveAspectRatio="xMidYMid meet">
<metadata>
Created by potrace 1.10, written by Peter Selinger 2001-2011
</metadata>
<g transform="translate(0.000000,248.000000) scale(0.100000,-0.100000)"
fill="#000000" stroke="none">
<path d="M1182 2398 c-6 -8 -12 -101 -14 -221 -3 -114 -7 -209 -10 -212 -11
-12 -305 -34 -367 -29 -54 5 -69 3 -80 -9 -19 -23 -10 -60 19 -74 29 -15 198
-16 330 -4 60 6 87 5 93 -3 9 -13 8 -209 -2 -224 -3 -5 -67 -17 -141 -26 -74
-9 -160 -23 -190 -30 -30 -7 -82 -19 -115 -25 -118 -24 -129 -40 -97 -137 11
-33 39 -160 62 -284 34 -175 47 -229 63 -242 25 -23 30 -23 64 6 30 25 65 34
165 41 36 3 93 9 126 13 34 5 64 7 67 4 7 -8 -5 -551 -15 -656 -15 -148 -14
-163 15 -182 29 -19 61 -11 70 17 4 12 8 58 10 102 13 308 18 489 19 599 1 69
4 130 8 134 14 14 441 53 461 42 11 -5 30 -7 44 -3 31 7 67 85 111 235 17 58
46 150 63 205 40 125 47 186 24 205 -27 22 -297 25 -479 6 -82 -9 -167 -16
-190 -16 l-41 0 2 107 c1 60 2 113 2 119 1 7 55 18 134 29 378 50 400 53 426
73 50 37 34 98 -23 88 -71 -12 -287 -44 -371 -55 -49 -6 -107 -14 -127 -17
l-37 -6 0 207 c0 143 -4 211 -12 221 -14 17 -53 18 -67 2z m684 -841 c5 -5
-37 -151 -47 -161 -4 -5 -34 -13 -66 -17 -70 -10 -390 -40 -453 -42 l-45 -2 2
89 c0 48 5 91 10 96 4 4 103 15 218 24 116 10 217 19 225 21 18 3 151 -3 156
-8z m-711 -142 l0 -90 -45 -7 c-25 -4 -103 -15 -175 -24 -71 -9 -144 -19 -161
-21 l-32 -5 -11 64 c-6 34 -14 72 -17 84 -5 19 3 22 98 44 110 25 277 49 318
47 25 -2 25 -3 25 -92z m619 -171 c-3 -19 -14 -57 -24 -82 l-18 -47 -58 -7
c-33 -4 -129 -14 -214 -22 -85 -9 -165 -18 -177 -21 -20 -5 -21 -1 -25 58 -6
107 -10 102 105 115 56 7 140 15 187 18 47 3 110 10 140 14 96 13 92 14 84
-26z m-623 -31 c7 -56 7 -141 0 -152 -9 -14 -55 -22 -216 -37 -149 -14 -137
-19 -154 63 -8 40 -13 74 -10 77 8 8 271 48 362 55 9 0 17 -2 18 -6z"/>
</g>
</svg>
