<?xml version="1.0" standalone="no"?>
<!DOCTYPE svg PUBLIC "-//W3C//DTD SVG 20010904//EN"
 "http://www.w3.org/TR/2001/REC-SVG-20010904/DTD/svg10.dtd">
<svg version="1.0" xmlns="http://www.w3.org/2000/svg"
 width="248.000000pt" height="248.000000pt" viewBox="0 0 248.000000 248.000000"
 preserveAspectRatio="xMidYMid meet">
<metadata>
Created by potrace 1.10, written by Peter Selinger 2001-2011
</metadata>
<g transform="translate(0.000000,248.000000) scale(0.100000,-0.100000)"
fill="#000000" stroke="none">
<path d="M1760 2041 c-13 -8 -178 -31 -325 -47 -27 -3 -72 -9 -100 -14 -93
-18 -389 -42 -502 -41 -120 0 -138 -6 -131 -51 5 -35 43 -48 148 -48 109 0
430 25 505 40 28 5 96 14 152 20 191 20 285 38 312 58 29 21 38 56 21 78 -14
15 -56 18 -80 5z"/>
</g>
</svg>
