<?xml version="1.0" standalone="no"?>
<!DOCTYPE svg PUBLIC "-//W3C//DTD SVG 20010904//EN"
 "http://www.w3.org/TR/2001/REC-SVG-20010904/DTD/svg10.dtd">
<svg version="1.0" xmlns="http://www.w3.org/2000/svg"
 width="248.000000pt" height="248.000000pt" viewBox="0 0 248.000000 248.000000"
 preserveAspectRatio="xMidYMid meet">
<metadata>
Created by potrace 1.10, written by Peter Selinger 2001-2011
</metadata>
<g transform="translate(0.000000,248.000000) scale(0.100000,-0.100000)"
fill="#000000" stroke="none">
<path d="M808 1875 c-3 -3 -63 -12 -134 -20 -71 -8 -167 -22 -214 -31 -47 -8
-121 -20 -165 -25 -107 -12 -162 -24 -180 -39 -23 -19 -18 -57 10 -76 22 -14
34 -15 83 -6 31 6 80 14 107 17 28 4 95 15 150 25 55 10 152 25 215 34 63 10
130 19 147 22 58 9 69 75 16 95 -29 11 -28 11 -35 4z"/>
</g>
</svg>
