<?xml version="1.0" standalone="no"?>
<!DOCTYPE svg PUBLIC "-//W3C//DTD SVG 20010904//EN"
 "http://www.w3.org/TR/2001/REC-SVG-20010904/DTD/svg10.dtd">
<svg version="1.0" xmlns="http://www.w3.org/2000/svg"
 width="248.000000pt" height="248.000000pt" viewBox="0 0 248.000000 248.000000"
 preserveAspectRatio="xMidYMid meet">
<metadata>
Created by potrace 1.10, written by Peter Selinger 2001-2011
</metadata>
<g transform="translate(0.000000,248.000000) scale(0.100000,-0.100000)"
fill="#000000" stroke="none">
<path d="M1101 2336 c-8 -9 -14 -159 -21 -467 -6 -250 -13 -475 -16 -500 -6
-52 11 -79 50 -79 49 0 49 0 59 531 8 396 7 502 -3 514 -16 19 -54 20 -69 1z"/>
<path d="M352 1928 c-15 -15 -16 -54 -2 -63 18 -11 184 -268 220 -340 26 -52
41 -71 58 -73 53 -8 69 56 32 127 -30 60 -185 292 -218 329 -31 33 -68 42 -90
20z"/>
</g>
</svg>
