<?xml version="1.0" standalone="no"?>
<!DOCTYPE svg PUBLIC "-//W3C//DTD SVG 20010904//EN"
 "http://www.w3.org/TR/2001/REC-SVG-20010904/DTD/svg10.dtd">
<svg version="1.0" xmlns="http://www.w3.org/2000/svg"
 width="248.000000pt" height="248.000000pt" viewBox="0 0 248.000000 248.000000"
 preserveAspectRatio="xMidYMid meet">
<metadata>
Created by potrace 1.10, written by Peter Selinger 2001-2011
</metadata>
<g transform="translate(0.000000,248.000000) scale(0.100000,-0.100000)"
fill="#000000" stroke="none">
<path d="M516 2318 c-13 -19 -16 -61 -16 -254 l0 -231 -84 -16 c-47 -10 -100
-17 -118 -17 -47 0 -166 -26 -184 -40 -42 -36 8 -98 69 -86 17 4 77 14 132 22
55 8 119 18 143 23 l42 8 0 -327 0 -328 -82 -35 c-46 -19 -114 -45 -153 -57
-38 -13 -76 -27 -83 -33 -21 -17 -14 -55 14 -73 25 -17 29 -16 127 18 56 19
119 43 140 52 l37 16 0 -311 0 -312 -50 47 c-65 61 -120 61 -120 -1 0 -53 159
-186 215 -181 57 6 59 22 65 433 l5 370 105 41 c115 46 141 70 116 109 -20 30
-49 29 -137 -4 -44 -17 -83 -31 -85 -31 -2 0 -4 139 -4 309 0 286 1 310 18
315 15 4 93 17 199 32 37 5 58 34 48 65 -9 27 -46 40 -87 29 -18 -4 -66 -11
-105 -15 l-73 -6 0 223 c0 243 -5 268 -55 268 -13 0 -31 -10 -39 -22z"/>
</g>
</svg>
