<?xml version="1.0" standalone="no"?>
<!DOCTYPE svg PUBLIC "-//W3C//DTD SVG 20010904//EN"
 "http://www.w3.org/TR/2001/REC-SVG-20010904/DTD/svg10.dtd">
<svg version="1.0" xmlns="http://www.w3.org/2000/svg"
 width="248.000000pt" height="248.000000pt" viewBox="0 0 248.000000 248.000000"
 preserveAspectRatio="xMidYMid meet">
<metadata>
Created by potrace 1.10, written by Peter Selinger 2001-2011
</metadata>
<g transform="translate(0.000000,248.000000) scale(0.100000,-0.100000)"
fill="#000000" stroke="none">
<path d="M1101 2336 c-8 -9 -14 -158 -21 -467 -9 -436 -13 -506 -28 -520 -9
-8 -158 -26 -332 -40 -183 -14 -332 -32 -347 -42 -18 -11 -16 -52 2 -67 17
-14 166 -10 349 9 54 6 102 8 107 5 25 -15 -3 -197 -47 -309 -40 -103 -130
-257 -188 -322 -99 -110 -257 -219 -346 -238 -45 -9 -60 -22 -60 -51 0 -33 41
-58 83 -50 99 19 262 129 389 264 153 163 278 458 278 657 0 45 4 65 13 65 6
0 82 9 167 20 85 10 158 16 162 12 4 -4 -1 -48 -12 -98 -34 -163 -54 -346 -54
-499 l-1 -150 38 -78 c21 -43 54 -96 73 -116 41 -46 156 -105 244 -126 88 -22
347 -31 432 -16 141 24 242 67 309 131 l42 40 -6 63 c-7 73 -41 173 -68 202
-15 15 -24 17 -46 9 -38 -13 -39 -39 -9 -128 34 -99 33 -108 -13 -139 -94 -62
-267 -96 -441 -86 -131 8 -218 28 -299 69 -70 35 -82 48 -123 135 -45 98 -49
197 -13 445 23 169 40 280 51 336 2 12 14 24 26 27 13 3 151 13 308 22 206 12
291 21 308 31 31 20 29 59 -4 81 -23 15 -35 15 -112 5 -48 -7 -172 -17 -277
-22 -104 -6 -250 -17 -324 -26 -73 -9 -136 -12 -140 -7 -4 4 -3 221 2 481 7
369 6 476 -3 487 -16 19 -54 19 -69 1z"/>
<path d="M1924 2048 c-27 -29 -80 -91 -116 -138 -37 -47 -118 -132 -180 -189
-62 -58 -117 -111 -122 -119 -15 -25 10 -62 43 -62 53 0 215 154 399 378 90
112 106 144 80 170 -24 24 -55 12 -104 -40z"/>
<path d="M352 1928 c-15 -15 -16 -54 -2 -63 18 -11 184 -268 220 -340 26 -52
41 -71 58 -73 53 -8 69 56 32 127 -30 60 -185 292 -218 329 -31 33 -68 42 -90
20z"/>
</g>
</svg>
