<?xml version="1.0" standalone="no"?>
<!DOCTYPE svg PUBLIC "-//W3C//DTD SVG 20010904//EN"
 "http://www.w3.org/TR/2001/REC-SVG-20010904/DTD/svg10.dtd">
<svg version="1.0" xmlns="http://www.w3.org/2000/svg"
 width="248.000000pt" height="248.000000pt" viewBox="0 0 248.000000 248.000000"
 preserveAspectRatio="xMidYMid meet">
<metadata>
Created by potrace 1.10, written by Peter Selinger 2001-2011
</metadata>
<g transform="translate(0.000000,248.000000) scale(0.100000,-0.100000)"
fill="#000000" stroke="none">
<path d="M1170 2385 c-10 -12 -10 -44 -2 -147 6 -73 9 -134 7 -136 -2 -2 -68
-8 -147 -12 -529 -33 -533 -33 -553 -50 -22 -19 -18 -57 8 -75 24 -16 -2 -16
507 15 91 5 182 12 203 14 20 2 37 1 37 -2 0 -13 -67 -92 -124 -146 -37 -36
-56 -63 -56 -78 0 -28 36 -65 102 -103 27 -15 50 -30 53 -34 2 -5 -45 -59
-105 -121 -61 -61 -113 -123 -116 -135 -22 -87 82 -105 321 -55 50 10 128 24
173 30 46 6 90 14 97 16 7 3 28 -16 48 -45 20 -27 45 -52 57 -56 53 -17 97 25
68 64 -7 10 -41 59 -75 108 -68 99 -113 143 -147 143 -47 0 -61 -48 -26 -93
l20 -25 -27 -6 c-16 -3 -66 -10 -111 -16 -46 -6 -94 -15 -106 -20 -12 -4 -49
-11 -82 -15 l-59 -7 80 81 c44 44 114 108 155 143 130 107 173 171 138 206
-27 27 -58 12 -129 -58 -39 -38 -75 -70 -79 -70 -17 0 -110 63 -110 75 0 6 14
24 31 41 44 42 139 159 139 172 0 15 50 20 336 32 360 15 469 36 449 88 -3 8
-5 17 -5 21 0 19 -51 30 -97 22 -59 -11 -416 -31 -613 -34 l-145 -2 -3 45 c-5
106 -23 204 -39 222 -20 22 -56 23 -73 3z"/>
</g>
</svg>
