<?xml version="1.0" standalone="no"?>
<!DOCTYPE svg PUBLIC "-//W3C//DTD SVG 20010904//EN"
 "http://www.w3.org/TR/2001/REC-SVG-20010904/DTD/svg10.dtd">
<svg version="1.0" xmlns="http://www.w3.org/2000/svg"
 width="248.000000pt" height="248.000000pt" viewBox="0 0 248.000000 248.000000"
 preserveAspectRatio="xMidYMid meet">
<metadata>
Created by potrace 1.10, written by Peter Selinger 2001-2011
</metadata>
<g transform="translate(0.000000,248.000000) scale(0.100000,-0.100000)"
fill="#000000" stroke="none">
<path d="M766 2198 c-9 -12 -16 -33 -16 -46 0 -30 -71 -209 -112 -281 -17 -30
-51 -93 -76 -140 -100 -191 -296 -463 -406 -569 -69 -65 -78 -88 -48 -115 29
-26 46 -21 108 36 80 72 103 99 217 255 180 248 366 598 413 775 14 53 14 61
-1 83 -20 31 -59 31 -79 2z"/>
</g>
</svg>
