<?xml version="1.0" standalone="no"?>
<!DOCTYPE svg PUBLIC "-//W3C//DTD SVG 20010904//EN"
 "http://www.w3.org/TR/2001/REC-SVG-20010904/DTD/svg10.dtd">
<svg version="1.0" xmlns="http://www.w3.org/2000/svg"
 width="248.000000pt" height="248.000000pt" viewBox="0 0 248.000000 248.000000"
 preserveAspectRatio="xMidYMid meet">
<metadata>
Created by potrace 1.10, written by Peter Selinger 2001-2011
</metadata>
<g transform="translate(0.000000,248.000000) scale(0.100000,-0.100000)"
fill="#000000" stroke="none">
<path d="M1595 2285 c-115 -7 -277 -16 -360 -20 -82 -3 -215 -12 -295 -20 -80
-8 -199 -17 -265 -20 -66 -4 -125 -11 -132 -17 -18 -14 -16 -53 2 -68 18 -15
296 -8 455 10 47 5 182 14 300 20 118 5 266 13 327 17 l113 6 -40 -91 c-21
-50 -50 -113 -64 -141 -39 -76 -31 -121 19 -121 32 0 48 23 110 160 31 69 67
148 81 176 32 68 32 102 -2 114 -14 6 -28 9 -32 9 -4 -1 -101 -8 -217 -14z"/>
</g>
</svg>
