<?xml version="1.0" standalone="no"?>
<!DOCTYPE svg PUBLIC "-//W3C//DTD SVG 20010904//EN"
 "http://www.w3.org/TR/2001/REC-SVG-20010904/DTD/svg10.dtd">
<svg version="1.0" xmlns="http://www.w3.org/2000/svg"
 width="248.000000pt" height="248.000000pt" viewBox="0 0 248.000000 248.000000"
 preserveAspectRatio="xMidYMid meet">
<metadata>
Created by potrace 1.10, written by Peter Selinger 2001-2011
</metadata>
<g transform="translate(0.000000,248.000000) scale(0.100000,-0.100000)"
fill="#000000" stroke="none">
<path d="M1595 2285 c-115 -7 -277 -16 -360 -20 -82 -3 -215 -12 -295 -20 -80
-8 -199 -17 -265 -20 -66 -4 -125 -11 -132 -17 -15 -12 -17 -42 -4 -67 17 -30
23 -200 12 -311 -14 -142 -65 -366 -108 -470 -66 -161 -173 -331 -299 -477
-30 -33 -54 -68 -54 -76 0 -34 13 -47 45 -47 27 0 42 10 83 55 80 88 208 276
267 392 66 132 95 219 130 390 26 124 29 131 54 137 31 6 192 20 484 42 247
18 215 26 279 -66 55 -79 130 -173 178 -225 26 -27 69 -79 97 -115 77 -99 266
-277 373 -352 129 -89 258 -153 293 -144 32 8 46 48 26 72 -7 9 -49 34 -93 56
-143 71 -243 148 -391 300 -154 158 -256 274 -346 394 -59 79 -70 104 -46 104
47 1 162 22 173 31 8 6 14 19 14 28 0 18 136 330 151 346 5 5 9 24 9 42 0 27
-5 35 -26 43 -14 6 -28 9 -32 9 -4 -1 -101 -8 -217 -14z m105 -184 c-22 -49
-50 -112 -64 -139 -24 -48 -27 -50 -78 -56 -29 -4 -114 -11 -188 -16 -177 -11
-534 -38 -634 -48 -53 -5 -80 -4 -82 3 -3 6 -3 72 -2 146 l3 134 160 12 c88 6
246 17 350 23 105 6 244 15 310 19 66 5 152 9 192 10 l72 1 -39 -89z"/>
<path d="M1285 1362 c-128 -7 -455 -44 -542 -62 -98 -21 -143 -40 -143 -63 0
-18 19 -160 36 -257 16 -97 30 -226 39 -350 6 -74 10 -89 33 -114 l27 -28 115
7 c63 3 187 13 275 21 88 8 214 17 280 20 134 7 155 17 155 69 0 32 15 137 44
315 27 162 46 313 46 372 0 48 -3 59 -20 68 -19 10 -184 11 -345 2z m260 -91
c8 -15 -16 -204 -29 -218 -6 -7 -68 -17 -141 -23 -168 -14 -538 -49 -592 -55
-34 -4 -43 -1 -47 13 -8 27 -27 194 -23 199 20 19 391 65 667 82 69 5 133 9
142 10 9 0 19 -3 23 -8z m-45 -349 c0 -10 -4 -43 -9 -73 -5 -30 -15 -88 -21
-129 -7 -41 -18 -78 -24 -82 -6 -4 -42 -8 -81 -8 -62 0 -271 -15 -499 -36 -93
-8 -95 -6 -97 86 0 36 -4 91 -8 123 -5 37 -3 61 3 66 6 5 52 11 101 15 50 4
180 16 290 26 110 11 223 21 250 23 28 2 60 4 73 5 15 1 22 -3 22 -16z"/>
</g>
</svg>
