<?xml version="1.0" standalone="no"?>
<!DOCTYPE svg PUBLIC "-//W3C//DTD SVG 20010904//EN"
 "http://www.w3.org/TR/2001/REC-SVG-20010904/DTD/svg10.dtd">
<svg version="1.0" xmlns="http://www.w3.org/2000/svg"
 width="248.000000pt" height="248.000000pt" viewBox="0 0 248.000000 248.000000"
 preserveAspectRatio="xMidYMid meet">
<metadata>
Created by potrace 1.10, written by Peter Selinger 2001-2011
</metadata>
<g transform="translate(0.000000,248.000000) scale(0.100000,-0.100000)"
fill="#000000" stroke="none">
<path d="M942 2208 c-5 -7 -30 -52 -55 -99 -24 -47 -60 -107 -79 -135 -19 -27
-61 -87 -93 -134 -85 -122 -157 -209 -280 -338 -79 -83 -107 -119 -107 -138 0
-33 14 -46 49 -47 67 0 429 437 578 696 59 104 77 165 55 192 -15 18 -54 20
-68 3z"/>
</g>
</svg>
