<?xml version="1.0" standalone="no"?>
<!DOCTYPE svg PUBLIC "-//W3C//DTD SVG 20010904//EN"
 "http://www.w3.org/TR/2001/REC-SVG-20010904/DTD/svg10.dtd">
<svg version="1.0" xmlns="http://www.w3.org/2000/svg"
 width="248.000000pt" height="248.000000pt" viewBox="0 0 248.000000 248.000000"
 preserveAspectRatio="xMidYMid meet">
<metadata>
Created by potrace 1.10, written by Peter Selinger 2001-2011
</metadata>
<g transform="translate(0.000000,248.000000) scale(0.100000,-0.100000)"
fill="#000000" stroke="none">
<path d="M616 2218 c-22 -30 -23 -253 -2 -302 16 -38 45 -52 76 -36 19 10 20
20 20 163 0 167 -8 197 -55 197 -13 0 -31 -10 -39 -22z"/>
<path d="M140 1855 c-15 -18 -15 -29 -6 -175 10 -163 13 -179 40 -191 35 -16
64 3 72 49 11 55 -11 279 -31 308 -18 27 -56 32 -75 9z"/>
</g>
</svg>
