<?xml version="1.0" standalone="no"?>
<!DOCTYPE svg PUBLIC "-//W3C//DTD SVG 20010904//EN"
 "http://www.w3.org/TR/2001/REC-SVG-20010904/DTD/svg10.dtd">
<svg version="1.0" xmlns="http://www.w3.org/2000/svg"
 width="248.000000pt" height="248.000000pt" viewBox="0 0 248.000000 248.000000"
 preserveAspectRatio="xMidYMid meet">
<metadata>
Created by potrace 1.10, written by Peter Selinger 2001-2011
</metadata>
<g transform="translate(0.000000,248.000000) scale(0.100000,-0.100000)"
fill="#000000" stroke="none">
<path d="M2020 2273 c-25 -2 -122 -15 -216 -28 -93 -14 -213 -25 -265 -25
-112 0 -144 -12 -144 -55 0 -21 7 -33 25 -42 30 -15 176 -17 250 -3 29 6 55 8
58 6 15 -15 -103 -200 -162 -254 -52 -49 -47 -112 9 -112 54 0 214 207 253
325 19 59 20 60 63 68 24 4 115 11 203 15 139 7 160 10 172 27 18 24 18 36 0
61 -12 16 -28 19 -108 20 -51 1 -113 0 -138 -3z"/>
<path d="M619 2224 c-10 -12 -16 -57 -19 -142 l-5 -126 -85 -17 c-83 -16 -182
-33 -289 -50 -71 -10 -96 -35 -93 -91 13 -241 19 -291 37 -304 24 -18 36 -18
61 0 17 13 19 27 19 152 l0 137 55 13 c30 7 69 13 85 14 17 0 82 11 145 24
204 43 387 67 623 81 l98 5 -12 -22 c-6 -12 -38 -48 -70 -80 -60 -60 -67 -75
-49 -109 16 -29 52 -23 104 18 59 46 146 174 146 214 0 80 -38 93 -236 79
-165 -11 -401 -37 -415 -46 -5 -3 -9 43 -9 108 0 87 -4 119 -16 136 -18 26
-56 29 -75 6z"/>
<path d="M755 1735 c-44 -8 -102 -14 -128 -14 -27 -1 -57 -5 -67 -11 -10 -5
-44 -47 -76 -92 -59 -85 -102 -139 -186 -234 -53 -60 -57 -75 -28 -104 31 -31
50 -25 108 36 l53 57 85 -44 c123 -63 121 -60 68 -149 -25 -41 -57 -88 -70
-105 -13 -16 -41 -55 -61 -85 -58 -85 -154 -199 -222 -262 -62 -57 -76 -89
-49 -116 25 -25 60 -12 124 43 l63 56 6 -48 c3 -27 12 -95 20 -153 8 -58 15
-128 15 -155 0 -31 6 -60 16 -74 15 -21 21 -23 68 -16 28 4 128 10 223 14 199
7 199 7 219 98 7 32 24 103 38 158 33 124 44 252 26 294 -18 44 -62 56 -158
42 -86 -13 -369 -51 -378 -51 -3 0 4 12 16 28 24 30 53 72 162 235 39 59 76
107 81 107 5 0 101 -61 212 -135 120 -80 213 -135 227 -135 50 0 65 51 26 87
-13 12 -112 80 -221 152 l-199 132 42 76 c24 42 60 126 82 186 33 95 37 114
28 142 -10 30 -46 57 -73 54 -7 -1 -48 -7 -92 -14z m26 -182 c-32 -86 -88
-193 -100 -193 -11 0 -170 90 -175 99 -3 3 16 33 41 66 24 33 48 65 51 72 7
12 103 29 174 32 l37 1 -28 -77z m119 -830 c-1 -57 -58 -317 -72 -328 -2 -1
-72 -5 -155 -9 l-153 -6 -4 22 c-8 41 -25 172 -32 244 l-6 71 138 17 c77 10
162 21 189 26 97 15 95 16 95 -37z"/>
</g>
</svg>
