<?xml version="1.0" standalone="no"?>
<!DOCTYPE svg PUBLIC "-//W3C//DTD SVG 20010904//EN"
 "http://www.w3.org/TR/2001/REC-SVG-20010904/DTD/svg10.dtd">
<svg version="1.0" xmlns="http://www.w3.org/2000/svg"
 width="248.000000pt" height="248.000000pt" viewBox="0 0 248.000000 248.000000"
 preserveAspectRatio="xMidYMid meet">
<metadata>
Created by potrace 1.10, written by Peter Selinger 2001-2011
</metadata>
<g transform="translate(0.000000,248.000000) scale(0.100000,-0.100000)"
fill="#000000" stroke="none">
<path d="M619 2224 c-10 -12 -16 -57 -19 -142 l-5 -126 -85 -17 c-83 -16 -182
-33 -289 -50 -71 -10 -96 -35 -93 -91 13 -241 19 -291 37 -304 24 -18 36 -18
61 0 17 13 19 27 19 152 l0 137 55 13 c30 7 69 13 85 14 17 0 82 11 145 24
204 43 387 67 623 81 l98 5 -12 -22 c-6 -12 -38 -48 -70 -80 -60 -60 -67 -75
-49 -109 16 -29 52 -23 104 18 59 46 146 174 146 214 0 80 -38 93 -236 79
-165 -11 -401 -37 -415 -46 -5 -3 -9 43 -9 108 0 87 -4 119 -16 136 -18 26
-56 29 -75 6z"/>
<path d="M755 1735 c-44 -8 -102 -14 -128 -14 -27 -1 -57 -5 -67 -11 -10 -5
-44 -47 -76 -92 -59 -85 -102 -139 -186 -234 -27 -30 -48 -61 -48 -69 0 -20
36 -55 56 -55 27 0 149 136 249 277 55 77 50 75 188 89 l68 7 -30 -79 c-38
-104 -191 -380 -260 -469 -17 -22 -48 -65 -68 -95 -58 -86 -155 -200 -222
-262 -62 -57 -76 -89 -49 -116 24 -24 60 -12 117 37 60 53 181 193 237 276
209 308 297 463 356 628 33 95 37 114 28 142 -10 30 -46 57 -73 54 -7 -1 -48
-7 -92 -14z"/>
</g>
</svg>
