<?xml version="1.0" standalone="no"?>
<!DOCTYPE svg PUBLIC "-//W3C//DTD SVG 20010904//EN"
 "http://www.w3.org/TR/2001/REC-SVG-20010904/DTD/svg10.dtd">
<svg version="1.0" xmlns="http://www.w3.org/2000/svg"
 width="248.000000pt" height="248.000000pt" viewBox="0 0 248.000000 248.000000"
 preserveAspectRatio="xMidYMid meet">
<metadata>
Created by potrace 1.10, written by Peter Selinger 2001-2011
</metadata>
<g transform="translate(0.000000,248.000000) scale(0.100000,-0.100000)"
fill="#000000" stroke="none">
<path d="M872 2108 c-7 -7 -12 -21 -12 -32 0 -34 224 -256 258 -256 48 0 57
64 15 108 -16 16 -67 66 -115 111 -87 81 -119 96 -146 69z"/>
<path d="M469 2063 c-14 -16 -52 -62 -84 -103 -33 -41 -85 -102 -116 -135 -31
-33 -61 -70 -68 -82 -24 -46 20 -84 68 -59 53 28 291 321 291 360 0 51 -52 62
-91 19z"/>
<path d="M649 1688 c-8 -7 -50 -65 -92 -128 -117 -176 -196 -271 -369 -442
-126 -123 -159 -161 -156 -179 4 -29 29 -44 60 -36 33 9 234 200 346 331 49
56 119 147 157 201 37 55 72 104 76 109 4 4 34 -14 66 -40 32 -27 81 -63 108
-80 148 -92 261 -154 280 -154 47 0 61 53 23 86 -13 11 -68 47 -123 79 -166
97 -236 151 -317 245 -21 23 -38 25 -59 8z"/>
</g>
</svg>
