<?xml version="1.0" standalone="no"?>
<!DOCTYPE svg PUBLIC "-//W3C//DTD SVG 20010904//EN"
 "http://www.w3.org/TR/2001/REC-SVG-20010904/DTD/svg10.dtd">
<svg version="1.0" xmlns="http://www.w3.org/2000/svg"
 width="248.000000pt" height="248.000000pt" viewBox="0 0 248.000000 248.000000"
 preserveAspectRatio="xMidYMid meet">
<metadata>
Created by potrace 1.10, written by Peter Selinger 2001-2011
</metadata>
<g transform="translate(0.000000,248.000000) scale(0.100000,-0.100000)"
fill="#000000" stroke="none">
<path d="M872 2108 c-7 -7 -12 -21 -12 -32 0 -34 224 -256 258 -256 48 0 57
64 15 108 -16 16 -67 66 -115 111 -87 81 -119 96 -146 69z"/>
<path d="M469 2063 c-14 -16 -52 -62 -84 -103 -33 -41 -85 -102 -116 -135 -31
-33 -61 -70 -68 -82 -24 -46 20 -84 68 -59 53 28 291 321 291 360 0 51 -52 62
-91 19z"/>
</g>
</svg>
