<?xml version="1.0" standalone="no"?>
<!DOCTYPE svg PUBLIC "-//W3C//DTD SVG 20010904//EN"
 "http://www.w3.org/TR/2001/REC-SVG-20010904/DTD/svg10.dtd">
<svg version="1.0" xmlns="http://www.w3.org/2000/svg"
 width="248.000000pt" height="248.000000pt" viewBox="0 0 248.000000 248.000000"
 preserveAspectRatio="xMidYMid meet">
<metadata>
Created by potrace 1.10, written by Peter Selinger 2001-2011
</metadata>
<g transform="translate(0.000000,248.000000) scale(0.100000,-0.100000)"
fill="#000000" stroke="none">
<path d="M872 2108 c-23 -23 -11 -54 46 -113 110 -114 179 -175 198 -175 50 0
60 63 17 108 -16 16 -67 66 -115 111 -87 81 -119 96 -146 69z"/>
<path d="M469 2063 c-14 -16 -52 -62 -84 -103 -33 -41 -85 -102 -116 -135 -31
-33 -61 -70 -68 -82 -24 -46 20 -84 68 -59 53 28 291 321 291 360 0 51 -52 62
-91 19z"/>
<path d="M649 1688 c-8 -7 -50 -65 -92 -128 -117 -176 -196 -271 -369 -441
-155 -153 -174 -179 -146 -207 24 -24 58 -12 125 47 158 137 312 308 428 476
37 55 72 104 76 109 4 4 34 -14 66 -40 32 -27 81 -63 108 -80 148 -92 261
-154 280 -154 47 0 61 53 23 86 -13 11 -68 47 -123 79 -166 97 -236 151 -317
245 -21 23 -38 25 -59 8z"/>
<path d="M730 1125 c-80 -7 -190 -22 -245 -33 -55 -10 -116 -17 -136 -15 -54
7 -65 -13 -51 -90 6 -34 18 -127 27 -207 26 -236 33 -274 52 -287 22 -17 35
-16 58 1 23 17 23 29 -4 248 -24 194 -26 238 -8 238 6 0 62 9 122 20 104 19
335 43 342 36 7 -7 -37 -234 -60 -314 -21 -72 -22 -84 -10 -102 19 -28 59 -26
78 4 22 34 50 139 80 298 29 161 30 181 9 202 -18 19 -49 19 -254 1z"/>
</g>
</svg>
