<?xml version="1.0" standalone="no"?>
<!DOCTYPE svg PUBLIC "-//W3C//DTD SVG 20010904//EN"
 "http://www.w3.org/TR/2001/REC-SVG-20010904/DTD/svg10.dtd">
<svg version="1.0" xmlns="http://www.w3.org/2000/svg"
 width="248.000000pt" height="248.000000pt" viewBox="0 0 248.000000 248.000000"
 preserveAspectRatio="xMidYMid meet">
<metadata>
Created by potrace 1.10, written by Peter Selinger 2001-2011
</metadata>
<g transform="translate(0.000000,248.000000) scale(0.100000,-0.100000)"
fill="#000000" stroke="none">
<path d="M1579 2403 c-10 -11 -15 -63 -19 -187 l-5 -170 -75 -13 c-41 -7 -125
-17 -187 -21 -119 -9 -143 -19 -143 -58 0 -44 39 -58 146 -50 52 3 116 11 142
16 26 5 64 11 85 15 l37 6 0 -116 c0 -136 8 -128 -135 -145 -49 -6 -129 -20
-177 -31 -48 -10 -110 -19 -137 -19 -33 0 -56 -6 -72 -19 l-24 -19 -7 -693
c-8 -757 -8 -744 47 -744 49 0 55 25 55 258 0 206 0 208 23 217 12 5 83 14
157 20 74 7 159 14 188 17 l52 5 0 -246 c0 -233 1 -247 20 -266 26 -26 55 -25
74 2 14 19 16 62 16 270 0 229 1 248 18 248 48 2 294 20 345 26 l57 7 0 -217
c0 -119 -2 -216 -4 -216 -2 0 -15 18 -29 39 -15 22 -35 42 -46 46 -30 9 -61
-12 -61 -42 0 -31 83 -166 123 -199 35 -30 78 -31 103 -3 18 20 19 49 25 538
4 284 10 626 14 761 9 342 0 367 -135 355 -36 -3 -134 -17 -219 -31 -84 -14
-155 -23 -158 -20 -6 6 -4 228 2 234 2 2 68 12 147 23 226 31 239 36 224 92
-9 38 -50 42 -208 18 -75 -12 -144 -21 -152 -21 -14 0 -16 20 -16 153 0 122
-3 157 -16 175 -18 26 -56 29 -75 5z m501 -920 c0 -104 -4 -193 -8 -199 -6 -9
-321 -44 -398 -44 -20 0 -21 3 -16 183 3 103 9 185 14 188 6 4 47 12 92 18 44
7 117 18 161 26 44 7 97 13 118 14 l37 1 0 -187z m-531 -72 c-3 -99 -7 -182
-10 -186 -9 -9 -337 -55 -392 -55 l-27 0 0 175 c0 96 3 175 6 175 3 0 52 9
107 21 120 25 250 46 291 48 l28 1 -3 -179z m515 -418 l-7 -171 -71 -10 c-39
-6 -133 -14 -208 -17 l-137 -7 6 169 c3 92 7 169 8 171 3 3 409 39 413 37 1
-1 -1 -79 -4 -172z m-526 -43 c-3 -88 -7 -162 -10 -165 -4 -5 -195 -27 -335
-40 l-73 -6 0 159 0 159 93 12 c50 7 133 18 182 25 50 8 103 14 119 15 l29 1
-5 -160z"/>
<path d="M516 2378 c-13 -19 -16 -60 -16 -244 l0 -222 -172 -42 c-95 -23 -183
-49 -196 -57 -31 -19 -27 -63 8 -80 21 -10 50 -5 187 29 90 23 165 39 167 37
2 -2 6 -148 10 -325 l6 -321 -82 -31 c-46 -16 -123 -43 -173 -58 -49 -15 -100
-37 -113 -48 -36 -32 -24 -86 20 -86 15 0 268 81 329 105 15 6 17 -27 24 -355
4 -198 5 -363 2 -366 -3 -3 -22 17 -42 45 -42 58 -76 73 -105 46 -11 -10 -20
-26 -20 -35 0 -17 44 -83 97 -142 18 -21 44 -55 57 -77 27 -42 54 -56 85 -46
42 13 44 40 36 523 l-7 457 74 35 c66 32 73 38 73 64 0 47 -29 59 -92 36 l-51
-18 -7 132 c-3 72 -5 214 -3 315 l3 184 40 13 c22 6 71 19 109 28 77 18 106
38 106 71 0 45 -23 50 -123 30 -51 -10 -102 -22 -114 -26 l-23 -9 0 208 c0
226 -6 252 -55 252 -13 0 -31 -10 -39 -22z"/>
</g>
</svg>
