<?xml version="1.0" standalone="no"?>
<!DOCTYPE svg PUBLIC "-//W3C//DTD SVG 20010904//EN"
 "http://www.w3.org/TR/2001/REC-SVG-20010904/DTD/svg10.dtd">
<svg version="1.0" xmlns="http://www.w3.org/2000/svg"
 width="248.000000pt" height="248.000000pt" viewBox="0 0 248.000000 248.000000"
 preserveAspectRatio="xMidYMid meet">
<metadata>
Created by potrace 1.10, written by Peter Selinger 2001-2011
</metadata>
<g transform="translate(0.000000,248.000000) scale(0.100000,-0.100000)"
fill="#000000" stroke="none">
<path d="M703 2222 c-79 -70 -176 -156 -218 -191 -76 -65 -87 -87 -59 -115 28
-28 61 -18 129 39 35 30 66 55 68 55 3 0 8 -73 12 -161 6 -131 4 -163 -6 -170
-8 -5 -41 -9 -74 -9 -100 -1 -373 -36 -390 -50 -23 -19 -18 -57 9 -75 22 -15
37 -15 167 -1 78 9 168 16 201 16 l59 0 -7 -37 c-9 -55 -67 -224 -109 -323
-20 -47 -42 -101 -50 -121 -7 -19 -24 -58 -38 -85 -13 -27 -41 -92 -62 -144
-20 -52 -64 -148 -97 -214 -65 -130 -68 -160 -21 -172 14 -4 33 -3 41 2 19 13
113 195 159 309 19 50 55 133 78 185 23 52 54 124 69 160 58 138 56 138 51 5
-3 -66 -6 -313 -8 -548 -2 -414 -1 -429 17 -443 25 -18 37 -18 62 0 18 14 19
34 26 408 4 216 11 493 14 616 l6 223 42 -58 c23 -32 76 -114 116 -183 86
-145 108 -170 148 -170 57 0 68 43 25 95 -16 18 -41 56 -58 85 -61 105 -137
226 -164 260 -32 40 -95 160 -88 166 3 3 69 12 148 20 79 8 159 17 176 20 65
10 67 85 4 97 -24 5 -248 -13 -326 -26 -5 -1 -9 7 -8 18 1 11 -2 105 -6 210
l-9 190 89 84 c69 65 89 89 89 110 0 32 -16 51 -44 51 -13 0 -79 -52 -163
-128z"/>
<path d="M1885 2290 c-33 -5 -151 -15 -262 -23 -131 -9 -207 -18 -217 -26 -26
-22 -30 -78 -16 -251 7 -91 13 -194 14 -230 2 -94 -3 -92 296 -85 309 7 453
17 473 33 42 35 51 80 55 281 5 224 -2 262 -51 288 -37 19 -197 26 -292 13z
m235 -272 c0 -95 -3 -182 -6 -194 -5 -19 -17 -22 -152 -32 -81 -7 -216 -12
-299 -12 l-153 0 0 43 c0 23 -7 105 -15 181 -8 77 -14 140 -12 142 1 1 72 7
157 14 85 6 182 15 215 19 33 5 106 9 163 10 l102 1 0 -172z"/>
<path d="M1960 1505 c-63 -7 -231 -18 -373 -23 -281 -12 -307 -17 -307 -67 0
-48 28 -55 200 -45 85 5 167 9 183 10 l27 0 -2 -202 -3 -203 -145 -8 c-80 -5
-151 -14 -157 -19 -20 -16 -15 -53 8 -74 18 -16 35 -18 132 -16 62 1 124 5
140 8 l27 6 0 -270 0 -269 -237 -7 c-131 -4 -282 -6 -335 -5 -105 3 -128 -6
-128 -47 0 -14 10 -30 26 -41 24 -15 80 -17 628 -20 630 -3 751 2 773 33 17
23 16 36 -1 59 -13 18 -30 18 -315 16 l-301 -2 0 280 0 281 103 1 c56 0 127 6
157 12 46 10 56 16 64 40 8 22 6 31 -7 45 -16 15 -36 17 -167 14 l-150 -4 0
196 c0 150 3 196 13 196 6 0 66 7 132 15 66 8 147 15 180 15 78 0 110 16 110
55 0 57 -54 64 -275 40z"/>
</g>
</svg>
