<?xml version="1.0" standalone="no"?>
<!DOCTYPE svg PUBLIC "-//W3C//DTD SVG 20010904//EN"
 "http://www.w3.org/TR/2001/REC-SVG-20010904/DTD/svg10.dtd">
<svg version="1.0" xmlns="http://www.w3.org/2000/svg"
 width="248.000000pt" height="248.000000pt" viewBox="0 0 248.000000 248.000000"
 preserveAspectRatio="xMidYMid meet">
<metadata>
Created by potrace 1.10, written by Peter Selinger 2001-2011
</metadata>
<g transform="translate(0.000000,248.000000) scale(0.100000,-0.100000)"
fill="#000000" stroke="none">
<path d="M703 2222 c-78 -70 -175 -156 -217 -191 -77 -65 -89 -87 -60 -115 27
-28 60 -18 126 37 35 29 73 60 85 68 12 8 78 68 147 133 100 94 126 124 126
145 0 32 -16 51 -44 51 -13 0 -79 -52 -163 -128z"/>
<path d="M915 1705 c-60 -8 -199 -21 -308 -30 -284 -23 -424 -40 -442 -55 -23
-19 -18 -57 9 -75 21 -14 37 -15 123 -5 54 6 181 17 283 26 353 28 522 50 537
70 16 22 16 36 0 58 -17 24 -71 27 -202 11z"/>
</g>
</svg>
