<?xml version="1.0" standalone="no"?>
<!DOCTYPE svg PUBLIC "-//W3C//DTD SVG 20010904//EN"
 "http://www.w3.org/TR/2001/REC-SVG-20010904/DTD/svg10.dtd">
<svg version="1.0" xmlns="http://www.w3.org/2000/svg"
 width="248.000000pt" height="248.000000pt" viewBox="0 0 248.000000 248.000000"
 preserveAspectRatio="xMidYMid meet">
<metadata>
Created by potrace 1.10, written by Peter Selinger 2001-2011
</metadata>
<g transform="translate(0.000000,248.000000) scale(0.100000,-0.100000)"
fill="#000000" stroke="none">
<path d="M703 2222 c-78 -70 -175 -156 -217 -191 -77 -65 -89 -87 -60 -115 28
-28 60 -18 129 40 36 31 68 55 69 53 2 -2 7 -77 11 -166 l7 -162 -23 -5 c-13
-3 -67 -8 -119 -11 -161 -10 -319 -32 -335 -45 -23 -19 -18 -57 9 -75 22 -15
38 -15 173 -1 81 8 179 17 217 20 l69 6 -6 -78 c-10 -127 -30 -1277 -23 -1316
8 -40 35 -61 67 -51 30 10 37 40 38 161 2 258 21 1136 27 1211 l6 81 46 6 c26
3 94 10 152 16 58 6 120 13 137 16 58 9 69 75 16 95 -20 7 -249 -9 -338 -24
-5 -1 -9 7 -8 18 1 11 -2 106 -6 210 l-8 190 88 84 c69 65 89 89 89 110 0 32
-16 51 -44 51 -13 0 -79 -52 -163 -128z"/>
</g>
</svg>
