<?xml version="1.0" standalone="no"?>
<!DOCTYPE svg PUBLIC "-//W3C//DTD SVG 20010904//EN"
 "http://www.w3.org/TR/2001/REC-SVG-20010904/DTD/svg10.dtd">
<svg version="1.0" xmlns="http://www.w3.org/2000/svg"
 width="248.000000pt" height="248.000000pt" viewBox="0 0 248.000000 248.000000"
 preserveAspectRatio="xMidYMid meet">
<metadata>
Created by potrace 1.10, written by Peter Selinger 2001-2011
</metadata>
<g transform="translate(0.000000,248.000000) scale(0.100000,-0.100000)"
fill="#000000" stroke="none">
<path d="M639 2364 c-10 -13 -15 -65 -19 -193 l-5 -175 -85 -17 c-47 -10 -139
-24 -204 -33 -70 -9 -125 -21 -133 -29 -12 -11 -14 -142 -13 -807 0 -436 3
-805 7 -819 3 -14 10 -32 16 -38 14 -19 68 -16 91 6 12 11 83 51 158 90 149
77 276 152 407 239 l83 56 19 -24 c94 -120 120 -138 153 -104 35 34 16 68
-139 250 -33 39 -79 96 -102 127 -26 35 -53 59 -69 63 -62 16 -83 -43 -37 -98
16 -18 46 -56 66 -84 l36 -51 -42 -30 c-77 -55 -287 -183 -360 -220 -40 -20
-92 -46 -117 -59 -25 -13 -48 -24 -52 -24 -5 0 -8 171 -8 380 0 209 3 380 8
380 18 1 235 32 422 60 113 17 238 34 279 39 110 13 110 13 132 233 11 100 24
261 29 357 14 230 16 226 -119 217 -88 -6 -251 -29 -293 -42 -17 -5 -18 7 -18
158 0 132 -3 168 -16 186 -18 26 -56 29 -75 6z m414 -526 c-2 -62 -6 -118 -8
-124 -2 -6 -37 -14 -78 -17 -42 -4 -120 -13 -174 -22 -183 -28 -398 -58 -450
-63 l-53 -4 0 106 c0 58 -1 109 -2 114 -1 4 25 10 57 14 33 5 121 19 195 33
255 46 408 69 487 73 l32 2 -6 -112z m-27 -340 c-4 -51 -10 -103 -13 -115 -6
-25 -13 -27 -158 -47 -196 -28 -259 -37 -345 -51 -47 -8 -115 -17 -152 -21
l-68 -6 0 119 0 120 78 11 c42 7 127 19 187 27 61 8 155 22 210 30 55 8 111
17 125 19 14 2 51 4 84 5 l59 1 -7 -92z"/>
<path d="M2125 2259 c-233 -41 -500 -78 -622 -85 -123 -8 -148 -21 -138 -72
16 -81 16 -499 0 -732 -27 -401 -43 -597 -54 -637 -6 -21 -17 -75 -26 -119 -8
-43 -37 -141 -65 -217 -27 -76 -50 -146 -50 -156 0 -21 30 -51 52 -51 8 0 22
8 31 18 23 25 115 285 131 372 8 41 22 105 31 143 14 62 28 213 59 657 l11
165 60 8 c33 4 134 18 225 32 225 35 368 50 377 41 5 -4 9 -317 11 -694 l3
-687 -39 43 c-41 43 -76 54 -100 30 -30 -30 -12 -61 128 -226 15 -17 28 -22
52 -20 63 6 62 3 66 583 1 286 -1 757 -5 1047 -9 571 -6 551 -63 561 -14 3
-47 1 -75 -4z m25 -309 c0 -115 -3 -210 -7 -210 -32 -1 -260 -32 -358 -48 -66
-12 -159 -24 -207 -27 l-86 -7 -4 198 c-2 110 -2 201 -1 203 1 2 35 7 75 11
162 18 493 66 543 80 17 4 33 8 38 9 4 1 7 -93 7 -209z"/>
</g>
</svg>
