<?xml version="1.0" standalone="no"?>
<!DOCTYPE svg PUBLIC "-//W3C//DTD SVG 20010904//EN"
 "http://www.w3.org/TR/2001/REC-SVG-20010904/DTD/svg10.dtd">
<svg version="1.0" xmlns="http://www.w3.org/2000/svg"
 width="248.000000pt" height="248.000000pt" viewBox="0 0 248.000000 248.000000"
 preserveAspectRatio="xMidYMid meet">
<metadata>
Created by potrace 1.10, written by Peter Selinger 2001-2011
</metadata>
<g transform="translate(0.000000,248.000000) scale(0.100000,-0.100000)"
fill="#000000" stroke="none">
<path d="M639 2364 c-10 -13 -15 -65 -19 -193 l-5 -175 -85 -17 c-47 -10 -139
-24 -204 -33 -70 -9 -125 -21 -133 -29 -12 -11 -14 -142 -13 -807 0 -436 3
-805 7 -819 3 -14 10 -32 16 -38 14 -19 68 -16 91 6 12 11 83 51 158 90 149
77 276 152 407 239 l83 56 19 -24 c94 -120 120 -138 153 -104 35 34 16 68
-139 250 -33 39 -79 96 -102 127 -26 35 -53 59 -69 63 -62 16 -83 -43 -37 -98
16 -18 46 -56 66 -84 l36 -51 -42 -30 c-77 -55 -287 -183 -360 -220 -40 -20
-92 -46 -117 -59 -25 -13 -48 -24 -52 -24 -5 0 -8 171 -8 380 0 209 3 380 8
380 18 1 235 32 422 60 113 17 238 34 279 39 110 13 110 13 132 233 11 100 24
261 29 357 14 230 16 226 -119 217 -88 -6 -251 -29 -293 -42 -17 -5 -18 7 -18
158 0 132 -3 168 -16 186 -18 26 -56 29 -75 6z m414 -526 c-2 -62 -6 -118 -8
-124 -2 -6 -37 -14 -78 -17 -42 -4 -120 -13 -174 -22 -183 -28 -398 -58 -450
-63 l-53 -4 0 106 c0 58 -1 109 -2 114 -1 4 25 10 57 14 33 5 121 19 195 33
255 46 408 69 487 73 l32 2 -6 -112z m-27 -340 c-4 -51 -10 -103 -13 -115 -6
-25 -13 -27 -158 -47 -196 -28 -259 -37 -345 -51 -47 -8 -115 -17 -152 -21
l-68 -6 0 119 0 120 78 11 c42 7 127 19 187 27 61 8 155 22 210 30 55 8 111
17 125 19 14 2 51 4 84 5 l59 1 -7 -92z"/>
</g>
</svg>
