<?xml version="1.0" standalone="no"?>
<!DOCTYPE svg PUBLIC "-//W3C//DTD SVG 20010904//EN"
 "http://www.w3.org/TR/2001/REC-SVG-20010904/DTD/svg10.dtd">
<svg version="1.0" xmlns="http://www.w3.org/2000/svg"
 width="248.000000pt" height="248.000000pt" viewBox="0 0 248.000000 248.000000"
 preserveAspectRatio="xMidYMid meet">
<metadata>
Created by potrace 1.10, written by Peter Selinger 2001-2011
</metadata>
<g transform="translate(0.000000,248.000000) scale(0.100000,-0.100000)"
fill="#000000" stroke="none">
<path d="M636 2358 c-13 -18 -16 -55 -16 -190 l0 -167 -37 -10 c-62 -16 -141
-29 -263 -46 -63 -9 -121 -21 -128 -29 -11 -10 -13 -163 -12 -806 0 -437 3
-805 7 -819 3 -14 10 -32 16 -38 14 -19 68 -16 91 6 12 11 84 52 161 92 157
81 245 132 389 228 l99 66 26 -34 c14 -19 42 -53 63 -75 33 -37 39 -40 65 -31
21 8 29 18 31 40 2 24 -10 45 -55 101 -32 40 -86 107 -121 150 -123 155 -132
164 -161 164 -57 0 -68 -50 -23 -102 15 -18 45 -56 65 -84 l36 -51 -52 -37
c-130 -92 -485 -294 -519 -296 -5 0 -8 174 -8 386 0 212 4 383 8 380 5 -3 53
1 108 9 116 15 595 83 640 90 59 10 65 27 86 233 16 165 36 425 37 505 1 16
-8 37 -22 51 -22 22 -23 22 -137 10 -111 -12 -226 -29 -262 -40 -17 -5 -18 7
-18 158 0 178 -8 208 -55 208 -13 0 -31 -10 -39 -22z m418 -520 c-3 -62 -7
-118 -9 -124 -2 -6 -37 -14 -78 -17 -42 -4 -120 -13 -174 -22 -183 -28 -398
-58 -450 -63 l-53 -4 0 106 c0 58 -1 109 -2 114 -1 4 25 10 57 15 33 4 121 18
195 32 241 44 416 71 482 74 l38 1 -6 -112z m-24 -285 c-1 -42 -18 -184 -23
-190 -6 -5 -151 -28 -332 -53 -44 -6 -118 -18 -165 -25 -47 -8 -115 -17 -152
-21 l-68 -6 0 119 0 120 83 13 c45 7 109 16 142 21 86 12 291 41 350 49 28 4
76 8 108 9 l57 1 0 -37z"/>
<path d="M2055 2249 c-147 -28 -363 -58 -505 -70 -194 -16 -202 -21 -180 -113
10 -43 12 -125 7 -373 -4 -175 -11 -365 -16 -423 -6 -58 -17 -195 -25 -305 -9
-110 -20 -215 -25 -233 -6 -19 -17 -71 -25 -115 -9 -45 -38 -144 -66 -220 -27
-75 -50 -146 -50 -156 0 -21 30 -51 52 -51 27 0 46 33 97 175 64 177 121 443
121 570 0 84 6 93 58 98 26 2 90 10 142 16 243 29 342 40 428 46 l92 7 0 -429
0 -428 -39 43 c-40 43 -75 54 -99 30 -30 -30 -12 -61 128 -226 15 -17 28 -22
52 -20 66 6 63 -49 61 1083 -1 561 -5 1035 -8 1052 -4 23 -15 38 -35 48 -35
18 -38 18 -165 -6z m95 -299 c0 -115 -3 -210 -7 -210 -35 -1 -280 -34 -368
-49 -60 -11 -149 -23 -197 -27 l-88 -6 0 170 c0 93 -3 183 -6 200 -7 35 -24
30 191 57 157 20 377 53 425 65 19 4 38 8 43 9 4 1 7 -93 7 -209z m4 -412 c6
-87 9 -328 4 -328 -18 0 -345 -34 -443 -46 -71 -8 -160 -18 -197 -21 -63 -5
-67 -5 -62 14 3 11 11 103 17 204 l12 184 60 8 c33 4 137 19 230 33 250 37
286 41 331 43 l41 1 7 -92z"/>
</g>
</svg>
