<?xml version="1.0" standalone="no"?>
<!DOCTYPE svg PUBLIC "-//W3C//DTD SVG 20010904//EN"
 "http://www.w3.org/TR/2001/REC-SVG-20010904/DTD/svg10.dtd">
<svg version="1.0" xmlns="http://www.w3.org/2000/svg"
 width="248.000000pt" height="248.000000pt" viewBox="0 0 248.000000 248.000000"
 preserveAspectRatio="xMidYMid meet">
<metadata>
Created by potrace 1.10, written by Peter Selinger 2001-2011
</metadata>
<g transform="translate(0.000000,248.000000) scale(0.100000,-0.100000)"
fill="#000000" stroke="none">
<path d="M522 2328 c-26 -26 -12 -56 61 -124 146 -138 183 -166 219 -162 30 3
33 6 36 38 3 34 -3 40 -127 148 -129 111 -161 128 -189 100z"/>
<path d="M900 1920 c-124 -23 -340 -58 -410 -65 -143 -16 -337 -49 -357 -62
-30 -17 -30 -57 -1 -77 23 -17 35 -16 183 10 44 7 121 18 170 24 155 17 469
69 547 91 53 14 73 53 42 83 -19 20 -54 19 -174 -4z"/>
<path d="M740 1536 c-57 -13 -306 -61 -371 -71 -21 -3 -42 -12 -49 -20 -19
-23 -8 -59 25 -74 27 -13 44 -12 175 14 342 66 370 75 370 118 0 48 -42 58
-150 33z"/>
</g>
</svg>
