<?xml version="1.0" standalone="no"?>
<!DOCTYPE svg PUBLIC "-//W3C//DTD SVG 20010904//EN"
 "http://www.w3.org/TR/2001/REC-SVG-20010904/DTD/svg10.dtd">
<svg version="1.0" xmlns="http://www.w3.org/2000/svg"
 width="248.000000pt" height="248.000000pt" viewBox="0 0 248.000000 248.000000"
 preserveAspectRatio="xMidYMid meet">
<metadata>
Created by potrace 1.10, written by Peter Selinger 2001-2011
</metadata>
<g transform="translate(0.000000,248.000000) scale(0.100000,-0.100000)"
fill="#000000" stroke="none">
<path d="M1112 2358 c-6 -8 -8 -113 -6 -289 2 -152 2 -284 -2 -292 -3 -8 -20
-18 -37 -21 -44 -8 -266 -33 -357 -40 -41 -4 -95 -8 -120 -11 -25 -3 -81 -7
-124 -10 -86 -6 -106 -15 -106 -49 0 -36 20 -46 91 -46 69 0 385 24 497 38 34
5 62 6 62 3 0 -12 -139 -213 -220 -317 -149 -191 -484 -513 -616 -590 -45 -26
-56 -47 -43 -82 17 -45 89 -21 200 68 263 211 521 492 704 768 26 39 52 72 57
72 9 0 3 -1131 -7 -1193 -5 -27 -2 -46 10 -63 17 -27 56 -32 74 -10 13 16 19
272 24 986 l2 385 85 7 c47 3 135 9 195 13 61 3 155 11 210 16 55 6 147 12
205 15 58 3 115 7 127 10 32 6 48 40 34 71 l-11 24 -133 -5 c-72 -4 -179 -11
-237 -16 -58 -5 -141 -12 -185 -14 -44 -3 -126 -8 -182 -12 l-102 -7 1 255 c1
312 -5 348 -57 348 -12 0 -27 -6 -33 -12z"/>
</g>
</svg>
