<?xml version="1.0" standalone="no"?>
<!DOCTYPE svg PUBLIC "-//W3C//DTD SVG 20010904//EN"
 "http://www.w3.org/TR/2001/REC-SVG-20010904/DTD/svg10.dtd">
<svg version="1.0" xmlns="http://www.w3.org/2000/svg"
 width="248.000000pt" height="248.000000pt" viewBox="0 0 248.000000 248.000000"
 preserveAspectRatio="xMidYMid meet">
<metadata>
Created by potrace 1.10, written by Peter Selinger 2001-2011
</metadata>
<g transform="translate(0.000000,248.000000) scale(0.100000,-0.100000)"
fill="#000000" stroke="none">
<path d="M1987 1823 c-3 -2 -53 -6 -113 -9 -60 -2 -152 -9 -204 -14 -52 -5
-147 -12 -210 -15 -63 -3 -126 -8 -140 -10 -14 -2 -74 -7 -135 -10 -60 -4
-117 -8 -125 -10 -18 -5 -255 -32 -350 -40 -36 -3 -90 -7 -120 -10 -30 -3 -89
-8 -130 -11 -81 -5 -100 -15 -100 -48 0 -37 20 -46 95 -46 91 0 389 25 535 45
63 8 151 17 195 20 44 3 107 7 140 10 33 3 105 7 160 11 55 3 143 10 195 15
52 5 145 12 205 15 138 7 152 9 166 35 15 29 -2 65 -35 71 -14 3 -27 3 -29 1z"/>
</g>
</svg>
