<?xml version="1.0" standalone="no"?>
<!DOCTYPE svg PUBLIC "-//W3C//DTD SVG 20010904//EN"
 "http://www.w3.org/TR/2001/REC-SVG-20010904/DTD/svg10.dtd">
<svg version="1.0" xmlns="http://www.w3.org/2000/svg"
 width="248.000000pt" height="248.000000pt" viewBox="0 0 248.000000 248.000000"
 preserveAspectRatio="xMidYMid meet">
<metadata>
Created by potrace 1.10, written by Peter Selinger 2001-2011
</metadata>
<g transform="translate(0.000000,248.000000) scale(0.100000,-0.100000)"
fill="#000000" stroke="none">
<path d="M1589 2296 c-5 -6 -424 -39 -640 -51 -42 -2 -115 -11 -164 -20 -48
-8 -105 -15 -127 -15 -29 0 -46 -7 -65 -26 l-26 -26 7 -201 c8 -227 30 -480
45 -519 17 -45 74 -48 90 -5 4 12 2 78 -4 147 -7 69 -16 214 -20 322 -6 164
-5 198 6 202 48 13 244 38 331 42 124 5 361 22 478 35 47 5 147 9 222 9 l137
0 7 -36 c11 -57 -2 -276 -24 -414 -30 -187 -34 -251 -19 -280 15 -29 58 -38
76 -16 7 9 19 69 26 133 8 65 21 165 31 223 22 127 24 375 5 433 -20 58 -51
67 -224 67 -79 0 -146 -2 -148 -4z"/>
</g>
</svg>
