<?xml version="1.0" standalone="no"?>
<!DOCTYPE svg PUBLIC "-//W3C//DTD SVG 20010904//EN"
 "http://www.w3.org/TR/2001/REC-SVG-20010904/DTD/svg10.dtd">
<svg version="1.0" xmlns="http://www.w3.org/2000/svg"
 width="248.000000pt" height="248.000000pt" viewBox="0 0 248.000000 248.000000"
 preserveAspectRatio="xMidYMid meet">
<metadata>
Created by potrace 1.10, written by Peter Selinger 2001-2011
</metadata>
<g transform="translate(0.000000,248.000000) scale(0.100000,-0.100000)"
fill="#000000" stroke="none">
<path d="M1589 2296 c-5 -6 -424 -39 -640 -51 -42 -2 -115 -11 -164 -20 -48
-8 -105 -15 -127 -15 -29 0 -46 -7 -65 -26 l-26 -26 7 -201 c8 -225 30 -480
44 -518 6 -13 22 -35 37 -49 26 -24 30 -25 163 -22 126 2 354 17 657 42 66 5
186 12 267 16 107 4 150 10 159 20 6 7 17 67 24 131 8 65 21 165 31 223 22
127 24 375 5 433 -20 58 -51 67 -224 67 -79 0 -146 -2 -148 -4z m276 -138 c3
-18 5 -82 3 -143 l-3 -110 -140 -12 c-77 -6 -207 -16 -289 -22 -82 -6 -224
-18 -315 -27 -91 -8 -225 -18 -297 -21 l-131 -6 -6 63 c-12 106 -9 220 6 224
49 14 243 38 329 42 118 4 360 22 463 34 39 4 138 8 222 9 l152 1 6 -32z m-20
-395 c-3 -16 -9 -55 -15 -87 -5 -33 -10 -74 -10 -92 0 -18 -6 -36 -12 -41 -7
-4 -74 -11 -148 -14 -74 -4 -256 -16 -405 -27 -148 -12 -331 -22 -405 -24
l-135 -3 -6 60 c-4 33 -9 86 -12 118 l-6 57 59 0 c33 0 103 4 157 9 192 19
340 32 493 42 85 6 191 15 235 19 44 4 110 8 147 8 l68 2 -5 -27z"/>
</g>
</svg>
