<?xml version="1.0" standalone="no"?>
<!DOCTYPE svg PUBLIC "-//W3C//DTD SVG 20010904//EN"
 "http://www.w3.org/TR/2001/REC-SVG-20010904/DTD/svg10.dtd">
<svg version="1.0" xmlns="http://www.w3.org/2000/svg"
 width="248.000000pt" height="248.000000pt" viewBox="0 0 248.000000 248.000000"
 preserveAspectRatio="xMidYMid meet">
<metadata>
Created by potrace 1.10, written by Peter Selinger 2001-2011
</metadata>
<g transform="translate(0.000000,248.000000) scale(0.100000,-0.100000)"
fill="#000000" stroke="none">
<path d="M598 2133 c-276 -279 -388 -413 -388 -465 0 -20 8 -33 28 -46 43 -26
192 -153 192 -162 0 -5 -5 -12 -10 -15 -10 -6 -87 -108 -165 -218 -22 -31 -57
-80 -78 -109 -58 -80 -61 -119 -12 -138 17 -6 39 -5 72 5 27 8 111 32 188 54
77 23 172 52 210 66 39 15 90 32 115 40 129 38 160 55 160 89 0 66 -56 62
-275 -20 -93 -35 -325 -102 -325 -95 0 11 127 185 209 286 23 28 56 70 73 94
18 24 86 105 151 180 118 135 147 179 147 224 0 64 -78 62 -103 -3 -3 -8 -57
-75 -121 -148 -63 -73 -124 -148 -136 -167 -12 -19 -24 -35 -26 -35 -8 0 -137
105 -153 123 -11 14 -11 20 2 40 27 41 199 227 350 379 121 121 147 152 147
175 0 16 -5 34 -12 41 -30 30 -55 11 -240 -175z"/>
</g>
</svg>
