<?xml version="1.0" standalone="no"?>
<!DOCTYPE svg PUBLIC "-//W3C//DTD SVG 20010904//EN"
 "http://www.w3.org/TR/2001/REC-SVG-20010904/DTD/svg10.dtd">
<svg version="1.0" xmlns="http://www.w3.org/2000/svg"
 width="248.000000pt" height="248.000000pt" viewBox="0 0 248.000000 248.000000"
 preserveAspectRatio="xMidYMid meet">
<metadata>
Created by potrace 1.10, written by Peter Selinger 2001-2011
</metadata>
<g transform="translate(0.000000,248.000000) scale(0.100000,-0.100000)"
fill="#000000" stroke="none">
<path d="M598 2133 c-276 -279 -388 -413 -388 -465 0 -20 8 -33 28 -46 43 -26
192 -153 192 -162 0 -5 -5 -12 -10 -15 -10 -6 -87 -108 -165 -218 -22 -31 -57
-80 -78 -109 -58 -80 -61 -119 -12 -138 17 -6 39 -5 72 5 27 8 111 32 187 54
l139 40 -6 -458 c-7 -499 -7 -501 48 -501 53 0 54 7 61 522 l7 477 26 9 c100
37 194 63 200 55 68 -96 116 -153 129 -154 46 -3 62 9 62 50 0 28 -41 86 -169
239 -66 79 -100 112 -115 112 -50 0 -61 -54 -21 -106 14 -18 25 -37 25 -41 0
-10 -217 -86 -392 -138 -60 -18 -108 -29 -108 -26 0 11 128 185 209 286 23 28
56 70 73 94 18 24 86 105 151 180 118 135 147 179 147 224 0 64 -78 62 -103
-3 -3 -8 -57 -75 -121 -148 -63 -73 -124 -148 -136 -167 -12 -19 -24 -35 -26
-35 -8 0 -137 105 -153 123 -11 14 -11 20 2 40 27 41 199 227 350 379 121 121
147 152 147 175 0 16 -5 34 -12 41 -30 30 -55 11 -240 -175z"/>
<path d="M1975 1730 c-22 -5 -87 -11 -145 -14 -58 -4 -143 -11 -190 -16 -47
-5 -148 -14 -225 -20 -145 -12 -190 -22 -199 -46 -10 -26 13 -1097 25 -1154
16 -79 16 -80 41 -89 13 -5 218 -6 457 -3 396 5 434 4 443 -11 14 -26 65 -22
83 7 15 22 16 92 13 648 -4 666 -5 674 -54 697 -28 12 -187 13 -249 1z m193
-346 l2 -241 -121 -6 c-67 -4 -158 -7 -201 -7 l-80 0 4 233 c2 139 7 235 13
239 6 4 35 8 65 8 30 1 73 5 95 10 22 4 81 7 130 7 l90 -2 3 -241z m-499 88
c-1 -64 -4 -171 -8 -237 l-6 -120 -120 -11 c-66 -6 -138 -14 -161 -18 l-41 -7
-6 237 c-5 179 -4 240 5 245 6 4 55 11 107 14 53 4 123 10 156 14 33 4 63 6
68 4 4 -3 6 -57 6 -121z m501 -707 l0 -265 -210 0 -210 0 0 208 c0 114 3 230
6 259 l7 52 106 4 c58 1 150 4 204 5 l97 2 0 -265z m-525 -9 l0 -253 -80 -7
c-44 -3 -114 -6 -155 -6 l-75 0 0 242 0 242 45 8 c25 4 90 12 145 16 55 5 105
10 110 11 7 1 10 -87 10 -253z"/>
<path d="M782 778 c-7 -7 -12 -24 -12 -38 0 -26 78 -172 131 -245 17 -22 40
-56 52 -75 35 -55 97 -50 97 7 0 29 -30 89 -64 130 -14 16 -44 65 -67 109 -23
43 -51 89 -62 102 -22 24 -56 29 -75 10z"/>
<path d="M292 768 c-7 -7 -12 -32 -12 -56 0 -50 -40 -207 -76 -299 -29 -74
-30 -95 -4 -118 28 -25 65 -13 80 27 7 18 20 53 30 78 35 85 80 278 73 313
-11 58 -59 87 -91 55z"/>
</g>
</svg>
