<?xml version="1.0" standalone="no"?>
<!DOCTYPE svg PUBLIC "-//W3C//DTD SVG 20010904//EN"
 "http://www.w3.org/TR/2001/REC-SVG-20010904/DTD/svg10.dtd">
<svg version="1.0" xmlns="http://www.w3.org/2000/svg"
 width="248.000000pt" height="248.000000pt" viewBox="0 0 248.000000 248.000000"
 preserveAspectRatio="xMidYMid meet">
<metadata>
Created by potrace 1.10, written by Peter Selinger 2001-2011
</metadata>
<g transform="translate(0.000000,248.000000) scale(0.100000,-0.100000)"
fill="#000000" stroke="none">
<path d="M598 2133 c-276 -279 -388 -413 -388 -465 0 -20 8 -33 28 -46 43 -26
192 -153 192 -162 0 -5 -5 -12 -10 -15 -10 -6 -87 -108 -165 -218 -22 -31 -57
-80 -78 -109 -58 -80 -61 -119 -12 -138 17 -6 39 -5 72 5 27 8 111 32 187 54
l139 40 -6 -458 c-7 -499 -7 -501 48 -501 53 0 54 7 61 522 l7 477 26 9 c100
37 194 63 200 55 68 -96 116 -153 129 -154 46 -3 62 9 62 50 0 28 -41 86 -169
239 -66 79 -100 112 -115 112 -50 0 -61 -54 -21 -106 14 -18 25 -37 25 -42 0
-5 -26 -17 -57 -27 -32 -10 -85 -28 -118 -41 -91 -34 -325 -102 -325 -95 0 11
127 185 209 286 23 28 56 70 73 94 18 24 86 105 151 180 118 135 147 179 147
224 0 64 -78 62 -103 -3 -3 -8 -57 -75 -121 -148 -63 -73 -124 -148 -136 -167
-12 -19 -24 -35 -26 -35 -8 0 -137 105 -153 123 -11 14 -11 20 2 40 27 41 199
227 350 379 121 121 147 152 147 175 0 16 -5 34 -12 41 -30 30 -55 11 -240
-175z"/>
<path d="M292 768 c-7 -7 -12 -32 -12 -56 0 -50 -40 -207 -76 -299 -29 -74
-30 -95 -4 -118 28 -25 65 -13 80 27 7 18 20 53 30 78 35 85 80 278 73 313
-11 58 -59 87 -91 55z"/>
</g>
</svg>
