<?xml version="1.0" standalone="no"?>
<!DOCTYPE svg PUBLIC "-//W3C//DTD SVG 20010904//EN"
 "http://www.w3.org/TR/2001/REC-SVG-20010904/DTD/svg10.dtd">
<svg version="1.0" xmlns="http://www.w3.org/2000/svg"
 width="248.000000pt" height="248.000000pt" viewBox="0 0 248.000000 248.000000"
 preserveAspectRatio="xMidYMid meet">
<metadata>
Created by potrace 1.10, written by Peter Selinger 2001-2011
</metadata>
<g transform="translate(0.000000,248.000000) scale(0.100000,-0.100000)"
fill="#000000" stroke="none">
<path d="M758 2166 c-24 -30 -65 -91 -93 -136 -27 -45 -73 -111 -100 -148 -28
-37 -60 -81 -70 -98 -53 -84 -270 -363 -365 -469 -39 -44 -74 -91 -77 -104 -8
-32 8 -55 41 -59 22 -3 37 8 85 60 62 66 178 206 232 280 l32 43 -6 -65 c-17
-191 -47 -926 -47 -1126 0 -126 2 -143 19 -158 11 -10 30 -16 42 -14 41 5 49
40 49 208 0 164 12 489 32 855 7 121 13 268 13 326 l0 107 53 78 c29 44 76
113 105 154 29 41 65 95 80 120 15 25 41 63 57 85 45 61 37 115 -16 115 -16 0
-37 -17 -66 -54z"/>
</g>
</svg>
