<?xml version="1.0" standalone="no"?>
<!DOCTYPE svg PUBLIC "-//W3C//DTD SVG 20010904//EN"
 "http://www.w3.org/TR/2001/REC-SVG-20010904/DTD/svg10.dtd">
<svg version="1.0" xmlns="http://www.w3.org/2000/svg"
 width="248.000000pt" height="248.000000pt" viewBox="0 0 248.000000 248.000000"
 preserveAspectRatio="xMidYMid meet">
<metadata>
Created by potrace 1.10, written by Peter Selinger 2001-2011
</metadata>
<g transform="translate(0.000000,248.000000) scale(0.100000,-0.100000)"
fill="#000000" stroke="none">
<path d="M758 2166 c-24 -30 -65 -91 -93 -136 -27 -45 -73 -111 -100 -148 -28
-37 -60 -81 -70 -98 -53 -84 -270 -363 -365 -469 -39 -44 -74 -91 -77 -104 -8
-32 8 -55 41 -59 22 -3 37 8 85 60 62 66 178 206 232 280 l32 43 -6 -65 c-17
-191 -47 -926 -47 -1126 0 -126 2 -143 19 -158 11 -10 30 -16 42 -14 41 5 49
40 49 208 0 164 12 489 32 855 7 121 13 268 13 326 l0 107 53 78 c29 44 76
113 105 154 29 41 65 95 80 120 15 25 41 63 57 85 45 61 37 115 -16 115 -16 0
-37 -17 -66 -54z"/>
<path d="M1372 2008 c-5 -7 -17 -39 -26 -70 -17 -61 -43 -121 -136 -313 -32
-66 -74 -158 -93 -205 -20 -47 -72 -168 -117 -270 -85 -192 -139 -328 -195
-490 -18 -52 -45 -124 -59 -159 -33 -83 -34 -118 -2 -132 20 -9 42 -5 127 26
57 20 131 45 164 55 109 33 268 96 375 148 58 28 123 57 145 65 78 29 186 76
227 101 l43 25 88 -137 c48 -75 125 -195 170 -266 90 -142 110 -162 150 -147
35 13 43 46 20 78 -54 77 -319 491 -342 535 -41 77 -105 184 -119 201 -17 20
-53 22 -70 5 -20 -20 -13 -60 18 -113 16 -27 30 -55 30 -61 0 -12 -134 -77
-283 -138 -49 -20 -119 -52 -155 -70 -37 -19 -107 -48 -157 -66 -118 -43 -310
-109 -312 -107 -2 3 70 210 105 302 16 44 80 195 142 335 62 140 118 271 125
291 7 20 47 106 88 190 124 257 150 333 123 374 -18 27 -57 33 -74 13z"/>
</g>
</svg>
