<?xml version="1.0" standalone="no"?>
<!DOCTYPE svg PUBLIC "-//W3C//DTD SVG 20010904//EN"
 "http://www.w3.org/TR/2001/REC-SVG-20010904/DTD/svg10.dtd">
<svg version="1.0" xmlns="http://www.w3.org/2000/svg"
 width="248.000000pt" height="248.000000pt" viewBox="0 0 248.000000 248.000000"
 preserveAspectRatio="xMidYMid meet">
<metadata>
Created by potrace 1.10, written by Peter Selinger 2001-2011
</metadata>
<g transform="translate(0.000000,248.000000) scale(0.100000,-0.100000)"
fill="#000000" stroke="none">
<path d="M1496 2327 c-15 -11 -17 -36 -19 -234 -1 -122 -5 -224 -8 -227 -4 -4
-98 -11 -210 -17 -112 -6 -209 -15 -216 -21 -7 -6 -13 -21 -13 -33 0 -45 16
-48 231 -40 l201 7 -7 -183 c-4 -101 -13 -200 -20 -219 l-12 -35 -101 -12
c-192 -22 -497 -75 -519 -89 -25 -16 -30 -53 -11 -72 17 -17 42 -15 213 13
236 38 367 56 372 51 8 -8 -136 -258 -186 -323 -25 -33 -113 -131 -194 -217
-81 -86 -147 -164 -147 -174 0 -10 9 -27 20 -37 17 -16 25 -17 58 -7 20 6 80
16 132 22 173 21 837 154 897 180 45 20 60 48 43 80 -13 25 -35 25 -119 1 -36
-11 -106 -27 -156 -36 -49 -8 -119 -22 -155 -30 -63 -14 -396 -77 -472 -90
-21 -3 -38 -2 -38 2 0 5 21 29 46 53 75 73 202 235 246 313 113 203 161 277
182 282 61 15 485 43 640 43 161 0 181 2 193 18 16 22 16 36 0 58 -12 16 -33
18 -246 17 -128 -1 -306 -8 -395 -16 -88 -8 -167 -15 -175 -15 -11 0 -12 19
-7 98 3 53 9 142 12 197 8 153 0 141 101 149 80 6 262 36 355 58 39 9 57 40
44 73 -10 28 -38 28 -185 2 -201 -37 -280 -44 -292 -26 -5 8 -9 106 -8 218 2
188 0 205 -16 218 -23 16 -36 16 -59 0z"/>
<path d="M524 2220 c-23 -9 -34 -36 -25 -61 7 -18 96 -93 185 -157 32 -23 65
-51 73 -62 16 -22 62 -27 81 -8 21 21 14 63 -15 90 -16 14 -55 45 -88 69 -33
24 -82 62 -110 85 -59 48 -73 54 -101 44z"/>
<path d="M192 1508 c-22 -22 -13 -56 21 -82 37 -28 269 -136 308 -143 29 -5
59 18 59 46 0 28 -29 48 -149 101 -62 27 -128 58 -147 69 -40 24 -74 27 -92 9z"/>
<path d="M618 1003 c-8 -10 -45 -71 -82 -137 -60 -105 -179 -297 -263 -424
-60 -91 -64 -102 -58 -122 8 -25 40 -43 63 -36 18 6 69 80 199 291 210 339
239 398 213 430 -17 20 -54 19 -72 -2z"/>
</g>
</svg>
