<?xml version="1.0" standalone="no"?>
<!DOCTYPE svg PUBLIC "-//W3C//DTD SVG 20010904//EN"
 "http://www.w3.org/TR/2001/REC-SVG-20010904/DTD/svg10.dtd">
<svg version="1.0" xmlns="http://www.w3.org/2000/svg"
 width="248.000000pt" height="248.000000pt" viewBox="0 0 248.000000 248.000000"
 preserveAspectRatio="xMidYMid meet">
<metadata>
Created by potrace 1.10, written by Peter Selinger 2001-2011
</metadata>
<g transform="translate(0.000000,248.000000) scale(0.100000,-0.100000)"
fill="#000000" stroke="none">
<path d="M756 2308 c-9 -12 -16 -29 -16 -36 0 -14 -105 -202 -168 -302 -107
-170 -273 -395 -399 -544 -64 -76 -83 -105 -81 -124 4 -32 28 -47 61 -38 28 7
165 164 267 306 30 41 85 116 122 167 38 51 74 102 81 115 7 13 24 41 38 63
61 96 171 297 180 330 8 29 7 42 -6 61 -20 31 -59 32 -79 2z"/>
</g>
</svg>
