<?xml version="1.0" standalone="no"?>
<!DOCTYPE svg PUBLIC "-//W3C//DTD SVG 20010904//EN"
 "http://www.w3.org/TR/2001/REC-SVG-20010904/DTD/svg10.dtd">
<svg version="1.0" xmlns="http://www.w3.org/2000/svg"
 width="248.000000pt" height="248.000000pt" viewBox="0 0 248.000000 248.000000"
 preserveAspectRatio="xMidYMid meet">
<metadata>
Created by potrace 1.10, written by Peter Selinger 2001-2011
</metadata>
<g transform="translate(0.000000,248.000000) scale(0.100000,-0.100000)"
fill="#000000" stroke="none">
<path d="M752 2318 c-5 -7 -13 -28 -17 -47 -6 -29 -122 -242 -175 -321 -141
-212 -268 -384 -387 -524 -64 -76 -83 -105 -81 -124 4 -32 28 -47 61 -38 28 7
165 164 267 306 30 41 84 116 121 165 37 50 75 104 85 122 11 17 51 87 91 155
40 67 76 130 82 138 8 12 15 9 38 -20 48 -60 252 -277 300 -320 101 -89 170
-119 201 -88 29 29 13 56 -65 116 -118 90 -363 351 -436 465 -19 29 -66 38
-85 15z"/>
<path d="M736 1818 c-12 -17 -16 -50 -16 -145 0 -143 21 -125 -175 -151 -120
-16 -130 -19 -142 -42 -9 -18 -13 -100 -13 -305 0 -154 -5 -422 -10 -595 -10
-321 -6 -372 26 -405 23 -23 63 -18 100 13 18 15 65 50 104 77 137 96 199 145
210 165 15 28 26 25 54 -16 44 -65 117 -134 140 -134 28 0 56 29 56 57 0 12
-18 38 -43 60 -24 21 -88 103 -142 183 -115 171 -132 190 -160 190 -61 0 -59
-54 6 -147 l51 -74 -26 -34 c-14 -18 -47 -50 -73 -69 -81 -61 -177 -132 -190
-140 -13 -7 -11 186 3 500 l6 122 59 6 c33 4 117 11 187 16 259 20 335 35 357
70 18 29 56 240 66 360 17 208 9 216 -180 200 -64 -5 -126 -12 -138 -16 -23
-6 -23 -6 -23 113 0 130 -11 163 -55 163 -13 0 -31 -10 -39 -22z m330 -405
c-4 -37 -9 -69 -10 -71 -2 -2 -68 -10 -147 -17 -79 -8 -191 -22 -249 -30 -170
-23 -160 -26 -160 50 l0 64 33 5 c17 3 68 10 112 16 44 6 125 18 180 26 55 8
123 16 150 17 28 2 61 4 74 5 23 2 24 1 17 -65z m-16 -192 c0 -4 -4 -21 -9
-37 -5 -16 -12 -46 -16 -66 -5 -33 -10 -38 -32 -38 -15 0 -63 -4 -107 -10 -45
-5 -143 -14 -218 -20 -75 -6 -144 -13 -153 -16 -13 -5 -15 5 -15 64 l0 70 88
11 c48 6 119 16 157 22 64 10 209 24 278 28 15 0 27 -3 27 -8z"/>
</g>
</svg>
