<?xml version="1.0" standalone="no"?>
<!DOCTYPE svg PUBLIC "-//W3C//DTD SVG 20010904//EN"
 "http://www.w3.org/TR/2001/REC-SVG-20010904/DTD/svg10.dtd">
<svg version="1.0" xmlns="http://www.w3.org/2000/svg"
 width="248.000000pt" height="248.000000pt" viewBox="0 0 248.000000 248.000000"
 preserveAspectRatio="xMidYMid meet">
<metadata>
Created by potrace 1.10, written by Peter Selinger 2001-2011
</metadata>
<g transform="translate(0.000000,248.000000) scale(0.100000,-0.100000)"
fill="#000000" stroke="none">
<path d="M1429 2414 c-8 -9 -16 -50 -19 -98 l-5 -81 -100 -12 c-55 -6 -116
-12 -136 -12 l-36 -1 -6 81 c-6 87 -22 119 -62 119 -38 0 -45 -19 -45 -116 l0
-93 -47 -6 c-27 -4 -84 -13 -128 -21 -44 -7 -103 -14 -131 -14 -37 0 -59 -6
-78 -21 -26 -20 -26 -23 -26 -142 0 -126 10 -254 34 -415 23 -155 52 -171 268
-148 79 8 294 20 478 26 457 14 501 17 516 32 24 25 67 232 94 454 16 126 9
237 -15 264 -29 33 -114 43 -297 37 l-168 -5 0 66 c0 37 -6 78 -13 92 -15 30
-58 38 -78 14z m469 -376 l-3 -103 -65 -6 c-36 -4 -120 -10 -187 -14 l-123 -7
0 110 0 111 28 4 c15 2 100 5 190 6 l163 1 -3 -102z m-488 -22 l0 -113 -77 -7
c-42 -3 -100 -6 -129 -6 l-52 0 -7 73 c-4 39 -5 88 -3 107 l3 35 94 7 c52 4
99 9 105 12 6 2 23 5 39 5 l27 1 0 -114z m-371 -83 c1 -28 -4 -55 -9 -58 -10
-6 -65 -13 -247 -31 l-63 -7 0 106 0 105 28 6 c15 4 83 15 152 25 l125 18 6
-56 c4 -31 7 -79 8 -108z m837 -130 c-3 -10 -8 -40 -11 -68 -4 -27 -14 -73
-23 -102 l-15 -52 -154 -3 -153 -3 0 112 0 111 83 6 c45 4 100 8 122 9 22 2
66 4 98 5 51 2 58 0 53 -15z m-466 -122 l0 -108 -77 -7 c-42 -3 -95 -6 -119
-6 l-43 0 -5 43 c-3 23 -8 72 -11 109 l-5 67 62 4 c35 2 93 4 131 5 l67 2 0
-109z m-357 -16 c6 -75 5 -100 -4 -106 -14 -8 -155 -22 -238 -23 -55 -1 -55
-1 -62 34 -4 19 -9 62 -12 96 l-5 60 92 13 c50 6 116 16 146 20 30 5 60 7 65
6 6 -1 14 -46 18 -100z"/>
<path d="M1910 1379 c-52 -4 -207 -12 -345 -19 -347 -16 -713 -37 -950 -55
-380 -30 -385 -31 -385 -81 0 -39 41 -58 108 -50 117 15 421 35 897 60 270 14
555 30 635 36 80 5 205 10 278 10 159 0 202 12 202 57 0 16 -5 34 -12 41 -14
14 -268 15 -428 1z"/>
<path d="M1515 1165 c-143 -7 -309 -18 -370 -24 -60 -6 -170 -17 -243 -24
-175 -17 -179 -20 -163 -143 20 -159 43 -275 58 -290 19 -18 57 -18 73 1 13
15 12 27 -11 196 -7 53 -10 102 -7 110 4 11 41 18 134 27 71 7 172 17 224 22
102 11 631 32 637 26 5 -5 -86 -249 -97 -260 -14 -14 -12 -60 2 -74 7 -7 24
-12 40 -12 34 0 49 21 89 126 16 44 34 88 39 99 5 11 16 46 25 78 13 45 14 64
5 91 -21 63 -72 69 -435 51z"/>
</g>
</svg>
