<?xml version="1.0" standalone="no"?>
<!DOCTYPE svg PUBLIC "-//W3C//DTD SVG 20010904//EN"
 "http://www.w3.org/TR/2001/REC-SVG-20010904/DTD/svg10.dtd">
<svg version="1.0" xmlns="http://www.w3.org/2000/svg"
 width="248.000000pt" height="248.000000pt" viewBox="0 0 248.000000 248.000000"
 preserveAspectRatio="xMidYMid meet">
<metadata>
Created by potrace 1.10, written by Peter Selinger 2001-2011
</metadata>
<g transform="translate(0.000000,248.000000) scale(0.100000,-0.100000)"
fill="#000000" stroke="none">
<path d="M1060 2265 c-9 -11 -11 -74 -9 -247 l4 -233 -55 -7 c-55 -7 -254 -29
-430 -48 -303 -32 -330 -39 -330 -84 0 -38 23 -49 88 -43 104 10 526 56 607
67 44 5 95 10 114 10 40 0 42 18 -23 -205 -133 -460 -291 -735 -561 -980 -70
-64 -85 -83 -83 -103 4 -32 28 -47 61 -38 33 8 196 163 281 265 118 143 232
347 310 552 l37 97 27 -13 c15 -8 56 -19 92 -25 36 -7 106 -20 155 -31 50 -11
104 -19 120 -19 55 0 58 -7 52 -121 -8 -145 -42 -367 -73 -474 -43 -150 -160
-365 -197 -365 -8 0 -40 21 -73 46 -66 51 -144 94 -172 94 -24 0 -42 -19 -42
-45 0 -25 30 -55 79 -80 19 -9 68 -44 109 -76 94 -74 118 -77 174 -16 139 150
223 357 269 657 28 184 32 421 8 445 -9 9 -63 24 -130 36 -63 11 -148 26 -189
33 -41 8 -94 19 -118 25 -23 7 -47 9 -52 6 -16 -10 -12 12 19 120 15 55 34
125 41 155 8 30 17 59 21 64 8 8 177 26 409 41 58 4 109 9 113 12 5 3 119 7
255 8 221 4 248 6 259 21 16 22 16 36 0 58 -12 16 -33 18 -248 17 -148 -1
-339 -11 -523 -26 -159 -13 -292 -22 -296 -20 -4 3 -9 106 -12 229 -4 162 -8
229 -18 241 -16 19 -54 19 -70 0z"/>
</g>
</svg>
