<?xml version="1.0" standalone="no"?>
<!DOCTYPE svg PUBLIC "-//W3C//DTD SVG 20010904//EN"
 "http://www.w3.org/TR/2001/REC-SVG-20010904/DTD/svg10.dtd">
<svg version="1.0" xmlns="http://www.w3.org/2000/svg"
 width="248.000000pt" height="248.000000pt" viewBox="0 0 248.000000 248.000000"
 preserveAspectRatio="xMidYMid meet">
<metadata>
Created by potrace 1.10, written by Peter Selinger 2001-2011
</metadata>
<g transform="translate(0.000000,248.000000) scale(0.100000,-0.100000)"
fill="#000000" stroke="none">
<path d="M1429 2414 c-8 -9 -16 -50 -19 -98 l-5 -81 -100 -12 c-55 -6 -116
-12 -136 -12 l-36 -1 -6 81 c-6 87 -22 119 -62 119 -38 0 -45 -19 -45 -116 l0
-93 -47 -6 c-27 -4 -84 -13 -128 -21 -44 -7 -103 -14 -131 -14 -37 0 -59 -6
-79 -22 l-27 -21 5 -161 c6 -189 22 -361 39 -431 10 -36 20 -53 40 -65 26 -14
29 -13 49 7 21 21 22 25 11 95 -6 40 -13 94 -16 119 l-5 45 92 13 c51 6 119
16 152 20 33 5 63 7 66 5 3 -2 9 -50 13 -106 9 -125 20 -153 61 -153 48 0 56
31 45 160 -5 60 -9 110 -7 111 1 1 59 5 130 9 l127 8 0 -139 c0 -153 9 -184
55 -184 46 0 55 31 55 186 l0 141 68 6 c37 4 118 9 181 13 108 6 113 6 108
-12 -3 -11 -9 -41 -12 -69 -4 -27 -15 -79 -26 -114 -24 -80 -24 -103 1 -126
16 -15 26 -17 48 -9 22 8 30 20 44 74 21 77 51 245 68 386 16 126 9 237 -15
264 -29 33 -114 43 -297 37 l-168 -5 0 66 c0 37 -6 78 -13 92 -15 30 -58 38
-78 14z m469 -376 l-3 -103 -65 -6 c-36 -4 -120 -10 -187 -14 l-123 -7 0 110
0 111 28 4 c15 2 100 5 190 6 l163 1 -3 -102z m-488 -22 l0 -113 -77 -7 c-42
-3 -100 -6 -129 -6 l-52 0 -7 73 c-4 39 -5 88 -3 107 l3 35 94 7 c52 4 99 9
105 12 6 2 23 5 39 5 l27 1 0 -114z m-371 -83 c1 -28 -4 -55 -9 -58 -10 -6
-65 -13 -247 -31 l-63 -7 0 106 0 105 28 6 c15 4 83 15 152 25 l125 18 6 -56
c4 -31 7 -79 8 -108z"/>
</g>
</svg>
