<?xml version="1.0" standalone="no"?>
<!DOCTYPE svg PUBLIC "-//W3C//DTD SVG 20010904//EN"
 "http://www.w3.org/TR/2001/REC-SVG-20010904/DTD/svg10.dtd">
<svg version="1.0" xmlns="http://www.w3.org/2000/svg"
 width="248.000000pt" height="248.000000pt" viewBox="0 0 248.000000 248.000000"
 preserveAspectRatio="xMidYMid meet">
<metadata>
Created by potrace 1.10, written by Peter Selinger 2001-2011
</metadata>
<g transform="translate(0.000000,248.000000) scale(0.100000,-0.100000)"
fill="#000000" stroke="none">
<path d="M752 2318 c-5 -7 -13 -28 -17 -47 -6 -29 -122 -242 -175 -321 -141
-212 -268 -384 -387 -524 -64 -76 -83 -105 -81 -124 4 -32 28 -47 61 -38 28 7
165 164 267 306 30 41 84 116 121 165 37 50 75 104 85 122 11 17 51 87 91 155
40 67 76 130 82 138 8 12 15 9 38 -20 48 -60 252 -277 300 -320 101 -89 170
-119 201 -88 29 29 13 56 -65 116 -118 90 -363 351 -436 465 -19 29 -66 38
-85 15z"/>
<path d="M736 1818 c-12 -17 -16 -50 -16 -145 0 -141 17 -125 -149 -148 -121
-16 -151 -30 -151 -70 0 -54 22 -54 330 -10 123 18 312 36 318 30 8 -8 -20
-264 -38 -340 -15 -65 -16 -85 -7 -105 14 -29 58 -38 76 -16 37 45 95 469 72
529 -16 42 -47 49 -180 37 -64 -5 -126 -12 -138 -16 -23 -6 -23 -6 -23 113 0
130 -11 163 -55 163 -13 0 -31 -10 -39 -22z"/>
</g>
</svg>
