<?xml version="1.0" standalone="no"?>
<!DOCTYPE svg PUBLIC "-//W3C//DTD SVG 20010904//EN"
 "http://www.w3.org/TR/2001/REC-SVG-20010904/DTD/svg10.dtd">
<svg version="1.0" xmlns="http://www.w3.org/2000/svg"
 width="248.000000pt" height="248.000000pt" viewBox="0 0 248.000000 248.000000"
 preserveAspectRatio="xMidYMid meet">
<metadata>
Created by potrace 1.10, written by Peter Selinger 2001-2011
</metadata>
<g transform="translate(0.000000,248.000000) scale(0.100000,-0.100000)"
fill="#000000" stroke="none">
<path d="M752 2318 c-5 -7 -13 -28 -17 -47 -6 -29 -122 -242 -175 -321 -141
-212 -268 -384 -387 -524 -64 -76 -83 -105 -81 -124 4 -32 28 -47 61 -38 28 7
165 164 267 306 30 41 84 116 121 165 37 50 75 104 85 122 11 17 51 87 91 155
40 67 76 130 82 138 8 12 15 9 38 -20 48 -60 252 -277 300 -320 101 -89 170
-119 201 -88 29 29 13 56 -65 116 -118 90 -363 351 -436 465 -19 29 -66 38
-85 15z"/>
<path d="M736 1818 c-12 -17 -16 -50 -16 -145 0 -141 17 -125 -149 -148 -74
-10 -121 -21 -133 -32 -21 -18 -24 -53 -6 -71 19 -19 36 -18 393 33 55 8 133
17 174 20 l74 5 -7 -67 c-4 -37 -9 -69 -11 -71 -1 -2 -50 -8 -107 -13 -56 -5
-152 -16 -213 -24 -60 -8 -147 -19 -193 -24 -45 -5 -89 -14 -97 -21 -23 -19
-18 -57 10 -76 23 -15 37 -16 133 -5 59 7 130 17 157 22 65 11 297 31 303 25
2 -3 -1 -20 -6 -38 -6 -18 -13 -49 -16 -69 -6 -36 -7 -37 -64 -43 -31 -3 -117
-10 -191 -15 -193 -14 -323 -32 -348 -48 -31 -18 -30 -58 1 -78 21 -14 36 -15
103 -6 43 6 139 16 213 21 267 20 343 34 365 70 18 29 56 240 66 360 17 208 9
216 -180 200 -64 -5 -126 -12 -138 -16 -23 -6 -23 -6 -23 113 0 130 -11 163
-55 163 -13 0 -31 -10 -39 -22z"/>
</g>
</svg>
