<?xml version="1.0" standalone="no"?>
<!DOCTYPE svg PUBLIC "-//W3C//DTD SVG 20010904//EN"
 "http://www.w3.org/TR/2001/REC-SVG-20010904/DTD/svg10.dtd">
<svg version="1.0" xmlns="http://www.w3.org/2000/svg"
 width="248.000000pt" height="248.000000pt" viewBox="0 0 248.000000 248.000000"
 preserveAspectRatio="xMidYMid meet">
<metadata>
Created by potrace 1.10, written by Peter Selinger 2001-2011
</metadata>
<g transform="translate(0.000000,248.000000) scale(0.100000,-0.100000)"
fill="#000000" stroke="none">
<path d="M1429 2414 c-8 -9 -16 -50 -19 -98 l-5 -81 -100 -12 c-55 -6 -116
-12 -136 -12 l-36 -1 -6 81 c-6 87 -22 119 -62 119 -38 0 -45 -19 -45 -116 l0
-93 -47 -6 c-27 -4 -84 -13 -128 -21 -44 -7 -103 -14 -131 -14 -37 0 -59 -6
-79 -22 l-27 -21 5 -161 c6 -189 22 -361 39 -431 10 -36 20 -53 40 -65 26 -14
29 -13 49 7 21 20 21 25 11 100 -24 167 -32 264 -32 371 l0 110 28 6 c15 4 83
15 152 25 l125 18 7 -91 c4 -50 12 -172 18 -271 12 -201 20 -230 65 -230 48 0
56 31 45 161 -4 60 -10 183 -12 274 l-3 165 75 6 c41 3 101 9 133 14 l57 7 0
-309 c0 -335 3 -353 55 -353 52 0 55 18 55 351 l0 306 38 7 c20 3 106 6 190 6
l152 0 0 -83 c0 -93 -40 -375 -64 -451 -21 -65 -20 -89 4 -111 16 -15 26 -17
48 -9 22 8 30 20 44 74 21 77 51 245 68 386 16 126 9 237 -15 264 -29 33 -114
43 -297 37 l-168 -5 0 66 c0 37 -6 78 -13 92 -15 30 -58 38 -78 14z"/>
</g>
</svg>
