<?xml version="1.0" standalone="no"?>
<!DOCTYPE svg PUBLIC "-//W3C//DTD SVG 20010904//EN"
 "http://www.w3.org/TR/2001/REC-SVG-20010904/DTD/svg10.dtd">
<svg version="1.0" xmlns="http://www.w3.org/2000/svg"
 width="248.000000pt" height="248.000000pt" viewBox="0 0 248.000000 248.000000"
 preserveAspectRatio="xMidYMid meet">
<metadata>
Created by potrace 1.10, written by Peter Selinger 2001-2011
</metadata>
<g transform="translate(0.000000,248.000000) scale(0.100000,-0.100000)"
fill="#000000" stroke="none">
<path d="M532 2238 c-5 -7 -12 -83 -14 -168 -2 -89 -9 -164 -16 -176 -10 -18
-29 -23 -154 -37 -79 -9 -174 -19 -213 -23 -78 -7 -95 -16 -95 -49 0 -43 21
-49 157 -42 70 4 163 11 207 17 173 22 435 50 526 56 154 10 162 12 178 27 20
21 8 65 -21 76 -20 7 -217 -4 -409 -25 l-68 -7 0 170 c0 118 -4 173 -12 181
-16 16 -53 15 -66 0z"/>
<path d="M513 1499 c-17 -17 -16 -54 0 -68 8 -6 45 -15 84 -21 91 -12 194 -37
205 -48 10 -10 -7 -212 -28 -327 -18 -102 -66 -265 -112 -380 -45 -114 -146
-307 -167 -320 -13 -8 -25 0 -61 43 -50 57 -83 67 -107 31 -21 -29 -12 -50 52
-118 53 -57 59 -61 101 -61 44 0 80 16 108 50 35 41 176 349 217 475 60 183
85 317 92 496 6 159 2 193 -24 204 -88 36 -339 67 -360 44z"/>
</g>
</svg>
