<?xml version="1.0" standalone="no"?>
<!DOCTYPE svg PUBLIC "-//W3C//DTD SVG 20010904//EN"
 "http://www.w3.org/TR/2001/REC-SVG-20010904/DTD/svg10.dtd">
<svg version="1.0" xmlns="http://www.w3.org/2000/svg"
 width="248.000000pt" height="248.000000pt" viewBox="0 0 248.000000 248.000000"
 preserveAspectRatio="xMidYMid meet">
<metadata>
Created by potrace 1.10, written by Peter Selinger 2001-2011
</metadata>
<g transform="translate(0.000000,248.000000) scale(0.100000,-0.100000)"
fill="#000000" stroke="none">
<path d="M1032 2398 c-8 -8 -12 -46 -12 -104 l0 -93 -47 -6 c-27 -4 -84 -13
-128 -21 -44 -7 -103 -14 -131 -14 -37 0 -59 -6 -79 -22 l-27 -21 5 -161 c6
-189 22 -361 39 -431 10 -36 20 -53 40 -65 26 -14 29 -13 49 7 21 20 21 25 11
100 -24 167 -32 264 -32 371 l0 110 28 6 c15 4 83 15 152 25 l125 18 7 -91 c4
-50 12 -172 18 -271 12 -201 20 -230 65 -230 48 0 56 31 45 161 -4 60 -10 183
-12 274 l-3 165 80 7 c166 15 405 27 538 28 l137 0 0 -83 c0 -93 -40 -375 -64
-451 -21 -65 -20 -89 4 -111 16 -15 26 -17 48 -9 22 8 30 20 44 74 43 154 83
455 76 559 -7 88 -21 106 -97 122 -69 14 -416 5 -601 -17 -193 -22 -176 -28
-183 67 -4 57 -10 86 -23 100 -19 21 -54 25 -72 7z"/>
</g>
</svg>
