<?xml version="1.0" standalone="no"?>
<!DOCTYPE svg PUBLIC "-//W3C//DTD SVG 20010904//EN"
 "http://www.w3.org/TR/2001/REC-SVG-20010904/DTD/svg10.dtd">
<svg version="1.0" xmlns="http://www.w3.org/2000/svg"
 width="248.000000pt" height="248.000000pt" viewBox="0 0 248.000000 248.000000"
 preserveAspectRatio="xMidYMid meet">
<metadata>
Created by potrace 1.10, written by Peter Selinger 2001-2011
</metadata>
<g transform="translate(0.000000,248.000000) scale(0.100000,-0.100000)"
fill="#000000" stroke="none">
<path d="M1429 2414 c-8 -9 -16 -50 -19 -98 l-5 -81 -100 -12 c-55 -6 -116
-12 -136 -12 l-36 -1 -6 81 c-6 87 -22 119 -62 119 -38 0 -45 -19 -45 -116 l0
-93 -47 -6 c-27 -4 -84 -13 -128 -21 -44 -7 -103 -14 -131 -14 -37 0 -59 -6
-78 -21 -26 -20 -26 -22 -26 -145 0 -69 5 -169 10 -222 29 -272 39 -306 101
-338 30 -15 44 -15 188 -1 86 9 305 21 486 27 468 15 494 16 509 29 8 7 18 31
21 54 4 23 12 50 17 60 9 18 36 168 58 334 17 124 10 248 -16 274 -32 31 -123
42 -301 36 l-163 -6 0 67 c0 37 -6 78 -13 92 -15 30 -58 38 -78 14z m469 -376
l-3 -103 -65 -6 c-36 -4 -120 -10 -187 -14 l-123 -7 0 110 0 111 28 4 c15 2
100 5 190 6 l163 1 -3 -102z m-488 -22 l0 -113 -77 -7 c-42 -3 -99 -6 -128 -6
l-52 0 -7 53 c-3 28 -6 76 -6 104 0 47 3 53 23 57 20 4 173 21 225 24 22 2 22
0 22 -112z m-371 -83 c1 -28 -4 -55 -9 -58 -10 -6 -65 -13 -247 -31 l-63 -7 0
105 0 106 93 16 c50 9 119 20 152 24 l60 7 6 -55 c4 -30 7 -78 8 -107z m837
-130 c-3 -10 -8 -40 -11 -68 -4 -27 -14 -73 -23 -102 l-15 -52 -154 -3 -153
-3 0 112 0 111 83 6 c45 4 100 8 122 9 22 2 66 4 98 5 51 2 58 0 53 -15z
m-466 -122 l0 -108 -77 -7 c-42 -3 -95 -6 -119 -6 l-43 0 -5 43 c-3 23 -8 72
-11 109 l-5 67 62 4 c35 2 93 4 131 5 l67 2 0 -109z m-357 -16 c6 -75 5 -100
-4 -106 -15 -9 -125 -20 -223 -22 l-70 -2 -7 35 c-4 19 -9 63 -11 97 l-4 61
40 5 c201 23 241 29 245 33 16 16 27 -15 34 -101z"/>
<path d="M1880 1378 c-63 -4 -333 -20 -600 -34 -431 -23 -659 -37 -925 -60
-91 -7 -125 -23 -125 -59 0 -40 40 -59 108 -51 197 24 1263 87 1772 105 127 4
203 11 218 19 24 14 30 60 10 80 -14 14 -270 14 -458 0z"/>
<path d="M1515 1164 c-148 -7 -315 -17 -370 -23 -55 -6 -162 -17 -238 -24
-182 -18 -183 -19 -168 -148 19 -154 42 -262 62 -284 14 -14 36 -20 83 -23
l65 -4 -16 -25 c-15 -22 -14 -33 7 -146 25 -137 46 -234 55 -258 5 -13 -22
-16 -213 -25 -239 -11 -272 -19 -272 -68 0 -49 4 -49 373 -37 188 7 491 13
672 13 278 2 345 -1 424 -16 52 -9 105 -15 117 -12 45 12 38 77 -10 96 -61 23
-259 44 -418 43 l-167 0 13 26 c8 14 37 95 66 179 41 121 51 163 48 202 l-3
50 49 0 c64 0 150 40 170 79 23 44 96 241 106 288 16 68 -1 100 -63 118 -28 8
-62 14 -76 14 -14 -1 -147 -8 -296 -15z m335 -99 c0 -11 -93 -251 -101 -261
-7 -9 -115 -14 -372 -18 -199 -4 -393 -8 -431 -9 -69 -2 -69 -2 -78 28 -4 17
-9 68 -10 115 l-3 85 70 7 c39 4 117 12 175 19 158 17 750 44 750 34z m-308
-397 c-6 -7 -15 -38 -20 -68 -6 -30 -32 -113 -58 -185 -26 -71 -52 -145 -58
-162 l-11 -33 -153 0 c-119 0 -153 3 -149 13 2 6 0 26 -5 42 -5 17 -22 103
-38 193 -18 107 -34 170 -45 182 -16 18 -15 19 22 23 21 2 148 4 282 5 194 2
241 -1 233 -10z"/>
</g>
</svg>
