<?xml version="1.0" standalone="no"?>
<!DOCTYPE svg PUBLIC "-//W3C//DTD SVG 20010904//EN"
 "http://www.w3.org/TR/2001/REC-SVG-20010904/DTD/svg10.dtd">
<svg version="1.0" xmlns="http://www.w3.org/2000/svg"
 width="248.000000pt" height="248.000000pt" viewBox="0 0 248.000000 248.000000"
 preserveAspectRatio="xMidYMid meet">
<metadata>
Created by potrace 1.10, written by Peter Selinger 2001-2011
</metadata>
<g transform="translate(0.000000,248.000000) scale(0.100000,-0.100000)"
fill="#000000" stroke="none">
<path d="M1060 2265 c-9 -11 -11 -74 -9 -247 l4 -233 -55 -7 c-55 -7 -254 -29
-430 -48 -303 -32 -330 -39 -330 -84 0 -13 7 -29 15 -36 17 -14 39 -13 270 14
171 20 403 45 540 57 235 21 444 38 540 45 55 3 104 8 108 11 5 3 119 7 255 8
221 4 248 6 259 21 16 22 16 36 0 58 -12 16 -33 18 -248 17 -148 -1 -339 -11
-523 -26 -159 -13 -292 -22 -296 -20 -4 3 -9 106 -12 229 -4 162 -8 229 -18
241 -16 19 -54 19 -70 0z"/>
</g>
</svg>
