<?xml version="1.0" standalone="no"?>
<!DOCTYPE svg PUBLIC "-//W3C//DTD SVG 20010904//EN"
 "http://www.w3.org/TR/2001/REC-SVG-20010904/DTD/svg10.dtd">
<svg version="1.0" xmlns="http://www.w3.org/2000/svg"
 width="248.000000pt" height="248.000000pt" viewBox="0 0 248.000000 248.000000"
 preserveAspectRatio="xMidYMid meet">
<metadata>
Created by potrace 1.10, written by Peter Selinger 2001-2011
</metadata>
<g transform="translate(0.000000,248.000000) scale(0.100000,-0.100000)"
fill="#000000" stroke="none">
<path d="M1750 2133 c-319 -12 -514 -25 -710 -48 -181 -21 -403 -43 -575 -55
-167 -13 -199 -22 -203 -61 -6 -49 11 -52 200 -39 167 11 434 37 645 62 57 6
105 9 109 6 21 -22 -149 -355 -204 -399 -14 -11 -40 -19 -61 -19 -20 0 -52 -4
-71 -10 -19 -5 -82 -14 -140 -19 -85 -8 -108 -14 -121 -30 -13 -16 -17 -71
-23 -365 -4 -191 -6 -473 -5 -629 3 -433 1 -407 23 -423 25 -18 37 -18 62 0
17 13 19 24 14 133 -7 172 0 1197 9 1205 4 5 43 11 86 14 44 3 94 10 110 15
17 4 66 10 110 13 44 3 112 10 150 15 97 14 500 33 615 29 l95 -3 0 -65 c0
-36 -4 -157 -8 -270 -4 -113 -9 -284 -12 -380 -2 -96 -9 -267 -15 -380 -9
-195 -9 -206 9 -224 25 -24 68 -15 76 17 3 12 7 78 9 147 2 69 7 208 10 310 4
102 11 322 17 490 6 167 14 326 19 352 11 56 -1 98 -27 99 -90 4 -565 -4 -663
-11 -68 -5 -126 -7 -129 -5 -2 3 19 43 47 89 28 47 67 127 87 178 20 51 40
103 45 115 7 16 20 23 52 27 71 10 478 27 711 31 152 2 222 7 232 15 20 16 19
54 -1 71 -20 17 -188 18 -574 2z"/>
</g>
</svg>
