<?xml version="1.0" standalone="no"?>
<!DOCTYPE svg PUBLIC "-//W3C//DTD SVG 20010904//EN"
 "http://www.w3.org/TR/2001/REC-SVG-20010904/DTD/svg10.dtd">
<svg version="1.0" xmlns="http://www.w3.org/2000/svg"
 width="248.000000pt" height="248.000000pt" viewBox="0 0 248.000000 248.000000"
 preserveAspectRatio="xMidYMid meet">
<metadata>
Created by potrace 1.10, written by Peter Selinger 2001-2011
</metadata>
<g transform="translate(0.000000,248.000000) scale(0.100000,-0.100000)"
fill="#000000" stroke="none">
<path d="M795 1909 c-60 -4 -153 -12 -205 -18 -52 -6 -160 -16 -240 -22 -89
-7 -154 -17 -167 -25 -31 -19 -30 -59 1 -79 21 -14 41 -15 153 -6 70 6 169 16
218 21 50 6 149 15 220 19 143 10 180 20 190 50 6 21 -9 61 -25 61 -4 0 -14 2
-22 4 -7 1 -62 0 -123 -5z"/>
</g>
</svg>
