<?xml version="1.0" standalone="no"?>
<!DOCTYPE svg PUBLIC "-//W3C//DTD SVG 20010904//EN"
 "http://www.w3.org/TR/2001/REC-SVG-20010904/DTD/svg10.dtd">
<svg version="1.0" xmlns="http://www.w3.org/2000/svg"
 width="248.000000pt" height="248.000000pt" viewBox="0 0 248.000000 248.000000"
 preserveAspectRatio="xMidYMid meet">
<metadata>
Created by potrace 1.10, written by Peter Selinger 2001-2011
</metadata>
<g transform="translate(0.000000,248.000000) scale(0.100000,-0.100000)"
fill="#000000" stroke="none">
<path d="M1152 2438 c-5 -7 -13 -80 -17 -163 -3 -82 -10 -154 -15 -159 -5 -5
-111 -9 -237 -10 -125 -1 -234 -5 -240 -9 -7 -5 -13 -19 -13 -31 0 -48 16 -51
262 -51 l229 0 6 -23 c3 -13 2 -134 -3 -270 -11 -305 -11 -312 12 -329 23 -17
35 -16 59 1 21 15 20 -10 24 406 0 107 5 201 10 209 6 9 51 18 132 26 263 28
429 64 450 97 12 19 11 52 -3 66 -16 16 -47 15 -99 -4 -45 -16 -237 -47 -364
-59 -38 -3 -80 -8 -92 -11 l-23 -4 0 153 c0 106 -4 157 -12 165 -16 16 -53 15
-66 0z"/>
</g>
</svg>
