<?xml version="1.0" standalone="no"?>
<!DOCTYPE svg PUBLIC "-//W3C//DTD SVG 20010904//EN"
 "http://www.w3.org/TR/2001/REC-SVG-20010904/DTD/svg10.dtd">
<svg version="1.0" xmlns="http://www.w3.org/2000/svg"
 width="248.000000pt" height="248.000000pt" viewBox="0 0 248.000000 248.000000"
 preserveAspectRatio="xMidYMid meet">
<metadata>
Created by potrace 1.10, written by Peter Selinger 2001-2011
</metadata>
<g transform="translate(0.000000,248.000000) scale(0.100000,-0.100000)"
fill="#000000" stroke="none">
<path d="M544 2344 c-15 -22 -16 -49 -10 -243 l7 -217 -168 -13 c-110 -8 -176
-18 -190 -27 -31 -19 -30 -59 1 -79 21 -14 40 -14 175 -2 84 7 154 10 156 7 8
-13 -33 -172 -124 -475 -73 -244 -126 -388 -188 -507 -38 -74 -20 -129 38
-115 19 5 34 25 61 84 62 131 98 221 133 332 19 58 50 156 69 216 l35 110 -6
-575 c-3 -316 -3 -597 1 -623 8 -50 30 -69 67 -60 34 9 39 59 40 402 1 185 5
490 8 678 l6 342 57 -72 c97 -124 122 -147 156 -147 29 0 52 21 52 48 0 5 -35
52 -78 103 -78 93 -192 253 -192 268 0 11 62 21 137 21 131 0 194 29 178 81
-10 32 -41 36 -179 27 -71 -5 -130 -7 -133 -5 -2 2 -7 101 -11 219 -5 158 -11
219 -21 232 -20 24 -58 20 -77 -10z"/>
<path d="M1876 2159 c-77 -4 -178 -13 -225 -18 -47 -6 -149 -11 -226 -11 -158
0 -189 -10 -183 -58 4 -39 40 -52 141 -52 l87 0 0 -74 0 -73 -52 -7 c-29 -3
-97 -6 -151 -6 -108 0 -133 -8 -148 -48 -20 -52 26 -368 59 -404 19 -22 55
-23 72 -3 7 9 10 30 7 52 -2 21 -12 94 -21 162 -9 68 -16 125 -14 126 2 1 60
6 129 10 l126 7 6 -143 c7 -155 18 -189 62 -189 46 0 53 27 47 189 l-5 149 79
6 c62 5 438 25 478 26 12 0 1 -144 -18 -228 -20 -86 -9 -125 35 -130 33 -4 47
13 59 74 5 27 16 81 24 119 18 80 21 192 6 230 -5 14 -21 30 -36 35 -24 9
-225 3 -531 -16 l-103 -7 0 75 0 75 58 7 c31 3 135 11 230 16 188 10 225 20
230 61 6 53 -27 60 -222 48z"/>
</g>
</svg>
