<?xml version="1.0" standalone="no"?>
<!DOCTYPE svg PUBLIC "-//W3C//DTD SVG 20010904//EN"
 "http://www.w3.org/TR/2001/REC-SVG-20010904/DTD/svg10.dtd">
<svg version="1.0" xmlns="http://www.w3.org/2000/svg"
 width="248.000000pt" height="248.000000pt" viewBox="0 0 248.000000 248.000000"
 preserveAspectRatio="xMidYMid meet">
<metadata>
Created by potrace 1.10, written by Peter Selinger 2001-2011
</metadata>
<g transform="translate(0.000000,248.000000) scale(0.100000,-0.100000)"
fill="#000000" stroke="none">
<path d="M1136 2298 c-19 -27 -20 -121 -5 -444 8 -181 29 -1550 23 -1562 -1
-1 -32 22 -69 53 -73 60 -92 65 -120 35 -26 -29 -13 -61 42 -105 27 -21 73
-64 104 -96 45 -48 61 -59 87 -59 23 0 36 7 48 26 16 23 17 70 15 492 -2 421
-7 662 -27 1407 -7 248 -13 275 -59 275 -13 0 -31 -10 -39 -22z"/>
<path d="M512 1878 c-16 -16 -15 -50 1 -70 6 -8 35 -30 62 -49 28 -19 75 -55
106 -81 57 -49 85 -58 107 -36 38 38 -15 110 -151 202 -69 47 -103 56 -125 34z"/>
</g>
</svg>
