<?xml version="1.0" standalone="no"?>
<!DOCTYPE svg PUBLIC "-//W3C//DTD SVG 20010904//EN"
 "http://www.w3.org/TR/2001/REC-SVG-20010904/DTD/svg10.dtd">
<svg version="1.0" xmlns="http://www.w3.org/2000/svg"
 width="248.000000pt" height="248.000000pt" viewBox="0 0 248.000000 248.000000"
 preserveAspectRatio="xMidYMid meet">
<metadata>
Created by potrace 1.10, written by Peter Selinger 2001-2011
</metadata>
<g transform="translate(0.000000,248.000000) scale(0.100000,-0.100000)"
fill="#000000" stroke="none">
<path d="M544 2344 c-15 -22 -16 -49 -10 -243 l7 -217 -168 -13 c-110 -8 -176
-18 -190 -27 -31 -19 -30 -59 1 -79 21 -14 40 -14 175 -2 84 7 154 10 156 7 8
-13 -33 -172 -124 -475 -73 -244 -126 -388 -188 -507 -38 -74 -20 -129 38
-115 19 5 34 25 61 84 62 131 98 221 133 332 19 58 50 156 69 216 l35 110 -6
-575 c-3 -316 -3 -597 1 -623 8 -50 30 -69 67 -60 34 9 39 59 40 402 1 185 5
490 8 678 l6 342 57 -72 c97 -124 122 -147 156 -147 29 0 52 21 52 48 0 5 -35
52 -78 103 -78 93 -192 253 -192 268 0 11 62 21 137 21 131 0 194 29 178 81
-10 32 -41 36 -179 27 -71 -5 -130 -7 -133 -5 -2 2 -7 101 -11 219 -5 158 -11
219 -21 232 -20 24 -58 20 -77 -10z"/>
<path d="M1876 2159 c-77 -4 -178 -13 -225 -18 -47 -6 -149 -11 -226 -11 -113
0 -145 -3 -163 -16 -31 -21 -26 -64 8 -81 30 -15 243 -17 340 -3 36 5 147 14
248 19 199 11 235 20 240 62 6 53 -27 60 -222 48z"/>
</g>
</svg>
