<?xml version="1.0" standalone="no"?>
<!DOCTYPE svg PUBLIC "-//W3C//DTD SVG 20010904//EN"
 "http://www.w3.org/TR/2001/REC-SVG-20010904/DTD/svg10.dtd">
<svg version="1.0" xmlns="http://www.w3.org/2000/svg"
 width="248.000000pt" height="248.000000pt" viewBox="0 0 248.000000 248.000000"
 preserveAspectRatio="xMidYMid meet">
<metadata>
Created by potrace 1.10, written by Peter Selinger 2001-2011
</metadata>
<g transform="translate(0.000000,248.000000) scale(0.100000,-0.100000)"
fill="#000000" stroke="none">
<path d="M544 2344 c-15 -22 -16 -49 -10 -243 l7 -217 -168 -13 c-110 -8 -176
-18 -190 -27 -31 -19 -30 -59 1 -79 21 -14 40 -15 153 -5 70 6 146 12 167 13
l39 3 -7 -766 c-5 -421 -5 -782 -1 -803 12 -63 76 -72 94 -13 6 18 13 350 17
812 l7 782 36 6 c20 3 64 6 98 6 131 0 194 29 178 81 -10 32 -41 36 -179 27
-71 -5 -130 -7 -133 -5 -2 2 -7 101 -11 219 -5 158 -11 219 -21 232 -20 24
-58 20 -77 -10z"/>
</g>
</svg>
