<?xml version="1.0" standalone="no"?>
<!DOCTYPE svg PUBLIC "-//W3C//DTD SVG 20010904//EN"
 "http://www.w3.org/TR/2001/REC-SVG-20010904/DTD/svg10.dtd">
<svg version="1.0" xmlns="http://www.w3.org/2000/svg"
 width="248.000000pt" height="248.000000pt" viewBox="0 0 248.000000 248.000000"
 preserveAspectRatio="xMidYMid meet">
<metadata>
Created by potrace 1.10, written by Peter Selinger 2001-2011
</metadata>
<g transform="translate(0.000000,248.000000) scale(0.100000,-0.100000)"
fill="#000000" stroke="none">
<path d="M1136 2298 c-19 -27 -20 -121 -5 -444 8 -181 29 -1550 23 -1562 -1
-1 -32 22 -69 53 -73 60 -92 65 -120 35 -26 -29 -13 -61 42 -105 27 -21 73
-64 104 -96 45 -48 61 -59 87 -59 23 0 36 7 48 26 16 23 17 70 15 492 -2 421
-7 662 -27 1407 -7 248 -13 275 -59 275 -13 0 -31 -10 -39 -22z"/>
<path d="M512 1878 c-16 -16 -15 -50 1 -70 6 -8 35 -30 62 -49 28 -19 75 -55
106 -81 57 -49 85 -58 107 -36 38 38 -15 110 -151 202 -69 47 -103 56 -125 34z"/>
<path d="M825 1468 c-22 -5 -67 -16 -100 -24 -33 -8 -96 -25 -140 -38 -44 -13
-127 -34 -185 -46 -121 -27 -150 -41 -150 -74 0 -30 23 -49 59 -48 37 1 253
48 306 66 53 19 141 42 187 50 l37 7 -24 -56 c-107 -240 -264 -473 -464 -687
-50 -54 -91 -103 -91 -109 0 -27 22 -49 50 -49 24 0 46 16 112 83 93 94 271
323 340 437 82 137 218 417 218 451 0 46 -61 60 -155 37z"/>
</g>
</svg>
