<?xml version="1.0" standalone="no"?>
<!DOCTYPE svg PUBLIC "-//W3C//DTD SVG 20010904//EN"
 "http://www.w3.org/TR/2001/REC-SVG-20010904/DTD/svg10.dtd">
<svg version="1.0" xmlns="http://www.w3.org/2000/svg"
 width="248.000000pt" height="248.000000pt" viewBox="0 0 248.000000 248.000000"
 preserveAspectRatio="xMidYMid meet">
<metadata>
Created by potrace 1.10, written by Peter Selinger 2001-2011
</metadata>
<g transform="translate(0.000000,248.000000) scale(0.100000,-0.100000)"
fill="#000000" stroke="none">
<path d="M544 2344 c-15 -22 -16 -49 -10 -243 l7 -217 -168 -13 c-110 -8 -176
-18 -190 -27 -31 -19 -30 -59 1 -79 21 -14 40 -14 175 -2 84 7 154 10 156 7 8
-13 -33 -172 -124 -475 -73 -244 -126 -388 -188 -507 -38 -74 -20 -129 38
-115 19 5 34 25 61 84 62 131 98 221 133 332 19 58 50 156 69 216 l35 110 -6
-575 c-3 -316 -3 -597 1 -623 8 -50 30 -69 67 -60 34 9 39 59 40 402 1 185 5
490 8 678 l6 342 57 -72 c97 -124 122 -147 156 -147 29 0 52 21 52 48 0 5 -35
52 -78 103 -78 93 -192 253 -192 268 0 11 62 21 137 21 131 0 194 29 178 81
-10 32 -41 36 -179 27 -71 -5 -130 -7 -133 -5 -2 2 -7 101 -11 219 -5 158 -11
219 -21 232 -20 24 -58 20 -77 -10z"/>
<path d="M1876 2159 c-77 -4 -178 -13 -225 -18 -47 -6 -149 -11 -226 -11 -158
0 -189 -10 -183 -58 4 -39 40 -52 141 -52 l87 0 0 -74 0 -73 -52 -7 c-29 -3
-97 -6 -151 -6 -108 0 -133 -8 -148 -48 -20 -52 26 -368 59 -404 19 -22 55
-23 72 -3 7 9 10 30 7 52 -2 21 -12 94 -21 162 -9 68 -16 125 -14 126 2 1 60
6 129 10 l126 7 6 -143 c7 -155 18 -189 62 -189 46 0 53 27 47 191 l-5 149 24
0 c13 0 48 3 77 6 l52 7 0 -145 c0 -152 4 -168 47 -168 44 0 57 40 61 187 l4
133 82 0 c44 0 112 3 150 7 l68 6 -5 -79 c-2 -43 -12 -112 -21 -152 -20 -86
-9 -125 35 -130 35 -4 45 11 64 98 32 153 37 187 33 257 -5 109 -4 109 -206
105 -92 -2 -175 -5 -184 -8 -16 -5 -18 3 -18 74 l0 79 96 6 c111 8 148 21 152
58 6 53 -27 60 -222 48z m-136 -193 c0 -85 -1 -86 -102 -86 l-58 0 0 74 0 75
38 4 c20 2 56 4 80 5 l42 2 0 -74z"/>
</g>
</svg>
