<?xml version="1.0" standalone="no"?>
<!DOCTYPE svg PUBLIC "-//W3C//DTD SVG 20010904//EN"
 "http://www.w3.org/TR/2001/REC-SVG-20010904/DTD/svg10.dtd">
<svg version="1.0" xmlns="http://www.w3.org/2000/svg"
 width="248.000000pt" height="248.000000pt" viewBox="0 0 248.000000 248.000000"
 preserveAspectRatio="xMidYMid meet">
<metadata>
Created by potrace 1.10, written by Peter Selinger 2001-2011
</metadata>
<g transform="translate(0.000000,248.000000) scale(0.100000,-0.100000)"
fill="#000000" stroke="none">
<path d="M544 2344 c-15 -22 -16 -49 -10 -243 l7 -217 -168 -13 c-110 -8 -176
-18 -190 -27 -31 -19 -30 -59 1 -79 21 -14 40 -14 175 -2 84 7 154 10 156 7 8
-13 -33 -172 -124 -475 -73 -244 -126 -388 -188 -507 -38 -74 -20 -129 38
-115 19 5 34 25 61 84 62 131 98 221 133 332 19 58 50 156 69 216 l35 110 -6
-575 c-3 -316 -3 -597 1 -623 8 -50 30 -69 67 -60 34 9 39 59 40 402 1 185 5
490 8 678 l6 342 57 -72 c97 -124 122 -147 156 -147 29 0 52 21 52 48 0 5 -35
52 -78 103 -78 93 -192 253 -192 268 0 11 62 21 137 21 131 0 194 29 178 81
-10 32 -41 36 -179 27 -71 -5 -130 -7 -133 -5 -2 2 -7 101 -11 219 -5 158 -11
219 -21 232 -20 24 -58 20 -77 -10z"/>
<path d="M1876 2159 c-77 -4 -178 -13 -225 -18 -47 -6 -149 -11 -226 -11 -158
0 -189 -10 -183 -58 4 -39 40 -52 141 -52 l87 0 0 -74 0 -73 -52 -7 c-29 -3
-98 -6 -153 -6 -157 0 -165 -12 -140 -215 24 -195 30 -225 52 -247 20 -20 24
-20 494 -8 261 7 484 16 495 21 41 15 89 209 89 361 0 138 7 134 -203 130 -92
-2 -175 -5 -184 -8 -16 -5 -18 3 -18 74 l0 79 96 6 c111 8 148 21 152 58 6 53
-27 60 -222 48z m-136 -193 c0 -85 -1 -86 -102 -86 l-58 0 0 74 0 75 38 4 c20
2 56 4 80 5 l42 2 0 -74z m407 -248 c-4 -46 -12 -110 -20 -143 l-14 -60 -137
-5 -138 -5 6 44 c3 24 6 88 6 142 l0 98 108 4 c59 1 127 4 151 5 l44 2 -6 -82z
m-407 -78 l0 -140 -69 0 -68 0 -7 31 c-3 17 -6 78 -6 135 l0 103 43 4 c23 2
57 4 75 5 l32 2 0 -140z m-257 -7 c3 -71 3 -131 0 -135 -4 -7 -233 -12 -233
-5 0 1 -7 56 -15 122 -8 65 -15 123 -15 127 0 7 52 11 201 16 l56 2 6 -127z"/>
<path d="M1785 1270 c-38 -4 -158 -8 -265 -9 -213 -1 -240 -8 -240 -56 0 -48
29 -55 215 -54 215 0 489 21 509 39 21 17 20 53 -2 73 -20 18 -85 20 -217 7z"/>
<path d="M2035 1045 c-144 -12 -687 -33 -922 -36 -102 -2 -133 -14 -133 -54 0
-13 10 -31 23 -40 19 -14 55 -15 301 -10 l279 6 -7 -163 c-3 -90 -9 -227 -13
-305 l-6 -142 -27 5 c-30 6 -60 -16 -60 -45 0 -31 83 -146 108 -149 32 -5 68
21 76 55 5 26 38 681 35 707 -5 45 -3 46 93 46 160 0 461 32 485 51 16 14 17
61 1 77 -14 14 -21 14 -233 -3z"/>
</g>
</svg>
