<?xml version="1.0" standalone="no"?>
<!DOCTYPE svg PUBLIC "-//W3C//DTD SVG 20010904//EN"
 "http://www.w3.org/TR/2001/REC-SVG-20010904/DTD/svg10.dtd">
<svg version="1.0" xmlns="http://www.w3.org/2000/svg"
 width="248.000000pt" height="248.000000pt" viewBox="0 0 248.000000 248.000000"
 preserveAspectRatio="xMidYMid meet">
<metadata>
Created by potrace 1.10, written by Peter Selinger 2001-2011
</metadata>
<g transform="translate(0.000000,248.000000) scale(0.100000,-0.100000)"
fill="#000000" stroke="none">
<path d="M544 2344 c-15 -22 -16 -49 -10 -243 l7 -217 -168 -13 c-110 -8 -176
-18 -190 -27 -31 -19 -30 -59 1 -80 22 -14 39 -14 132 -5 59 6 129 11 156 11
45 0 48 -2 43 -22 -3 -13 -9 -41 -14 -63 -12 -56 -71 -267 -76 -275 -3 -4 -27
-84 -54 -176 -47 -163 -117 -348 -168 -446 -39 -74 -20 -129 38 -115 19 5 34
25 61 84 74 157 95 210 131 323 19 63 51 165 71 225 l35 110 -6 -600 c-6 -630
-6 -632 37 -655 16 -9 25 -6 45 14 l25 25 1 348 c1 191 5 502 8 690 l6 342 57
-72 c97 -124 122 -147 156 -147 29 0 52 21 52 48 0 5 -35 52 -78 103 -78 93
-192 253 -192 268 0 11 62 21 137 21 131 0 194 29 178 81 -10 32 -41 36 -179
27 -71 -5 -131 -7 -133 -4 -2 2 -7 98 -10 213 -6 225 -12 253 -58 253 -15 0
-31 -10 -41 -26z"/>
<path d="M1875 2159 c-77 -4 -179 -13 -226 -18 -47 -6 -148 -11 -225 -11 -153
0 -184 -9 -184 -55 0 -41 34 -55 137 -55 l93 0 0 -74 0 -73 -52 -7 c-29 -3
-98 -6 -153 -6 -155 0 -166 -16 -140 -216 24 -191 31 -224 52 -246 20 -20 25
-20 494 -8 261 7 484 16 495 21 41 15 89 209 89 361 0 138 7 134 -203 130 -92
-2 -175 -5 -184 -8 -16 -5 -18 3 -18 74 l0 79 96 6 c111 8 148 21 152 58 6 53
-27 60 -223 48z m-135 -193 c0 -85 -1 -86 -102 -86 l-58 0 0 74 0 75 38 4 c20
2 56 4 80 5 l42 2 0 -74z m410 -225 c0 -49 -31 -215 -42 -226 -2 -2 -63 -5
-137 -7 l-133 -3 6 44 c3 24 6 88 6 142 l0 98 108 4 c59 1 126 4 150 5 l42 2
0 -59z m-410 -101 l0 -140 -69 0 -68 0 -7 31 c-3 17 -6 78 -6 135 l0 103 43 4
c23 2 57 4 75 5 l32 2 0 -140z m-257 -7 c4 -91 2 -130 -6 -135 -11 -7 -227
-12 -227 -5 0 1 -7 56 -15 122 -8 65 -15 123 -15 127 0 7 52 11 201 16 l56 2
6 -127z"/>
<path d="M1780 1269 c-47 -4 -168 -7 -270 -8 -202 -1 -230 -8 -230 -56 0 -48
29 -55 215 -54 215 0 489 21 509 39 21 17 20 53 -2 73 -20 19 -69 20 -222 6z"/>
<path d="M2035 1045 c-168 -14 -725 -35 -905 -35 -80 0 -111 -4 -128 -16 -30
-21 -29 -59 4 -80 22 -15 52 -16 301 -10 l276 7 -7 -168 c-3 -92 -9 -230 -13
-305 l-6 -138 -24 6 c-27 7 -63 -19 -63 -45 0 -31 83 -146 108 -149 32 -5 68
21 76 55 5 26 35 613 36 711 l0 42 92 0 c160 0 461 32 485 51 16 14 17 61 1
77 -14 14 -21 14 -233 -3z"/>
<path d="M1180 736 c-6 -8 -18 -43 -26 -77 -16 -68 -82 -207 -120 -252 -29
-35 -31 -68 -4 -92 17 -15 24 -16 45 -7 54 25 151 203 179 327 13 62 13 72 0
92 -16 26 -55 30 -74 9z"/>
<path d="M1882 698 c-18 -18 -14 -47 11 -80 12 -16 76 -91 143 -166 124 -140
154 -161 190 -131 32 26 15 57 -97 181 -62 68 -119 134 -127 148 -34 54 -91
77 -120 48z"/>
</g>
</svg>
