<?xml version="1.0" standalone="no"?>
<!DOCTYPE svg PUBLIC "-//W3C//DTD SVG 20010904//EN"
 "http://www.w3.org/TR/2001/REC-SVG-20010904/DTD/svg10.dtd">
<svg version="1.0" xmlns="http://www.w3.org/2000/svg"
 width="248.000000pt" height="248.000000pt" viewBox="0 0 248.000000 248.000000"
 preserveAspectRatio="xMidYMid meet">
<metadata>
Created by potrace 1.10, written by Peter Selinger 2001-2011
</metadata>
<g transform="translate(0.000000,248.000000) scale(0.100000,-0.100000)"
fill="#000000" stroke="none">
<path d="M1465 2359 c-126 -4 -364 -14 -529 -21 -293 -13 -298 -14 -317 -37
-24 -29 -24 -54 2 -261 11 -91 24 -232 29 -313 11 -166 30 -230 73 -246 35
-13 1064 -5 1100 8 17 7 33 24 42 44 24 58 76 732 61 792 -12 48 -15 49 -461
34z m349 -226 c-3 -71 -7 -128 -8 -128 0 0 -110 1 -243 3 l-243 3 0 119 0 120
163 3 c89 1 202 4 250 5 l89 2 -8 -127z m-604 10 c0 -54 3 -108 6 -120 6 -23
5 -23 -78 -23 -46 0 -155 -5 -242 -11 -87 -5 -160 -9 -162 -7 -5 6 -27 229
-22 233 2 2 100 8 218 13 118 5 230 10 248 10 l32 2 0 -97z m580 -393 c-8 -90
-18 -153 -24 -155 -6 -2 -107 -6 -223 -10 l-213 -6 0 160 0 161 233 2 c127 2
234 2 236 1 2 -1 -2 -70 -9 -153z m-570 -13 l0 -153 -225 -1 -224 -1 -5 31
c-3 18 -7 83 -10 144 -5 110 -5 113 17 118 26 6 130 10 315 13 l132 2 0 -153z"/>
<path d="M1355 1389 c-49 -4 -124 -12 -165 -18 -41 -6 -136 -11 -211 -11 -119
0 -140 -2 -160 -19 l-24 -19 -5 -549 c-3 -301 -2 -558 2 -570 9 -28 54 -41 74
-21 29 28 35 141 32 604 l-3 461 145 7 c80 3 165 11 190 16 25 5 130 12 234
16 l189 7 -7 -354 c-3 -195 -9 -425 -12 -511 l-7 -157 -31 24 c-41 31 -115 64
-143 65 -13 0 -29 -10 -38 -24 -23 -34 -7 -60 58 -92 29 -15 73 -46 99 -70 67
-62 124 -59 147 8 16 46 29 315 37 784 l7 401 -24 16 c-19 14 -47 17 -159 15
-74 0 -175 -4 -225 -9z"/>
</g>
</svg>
