<?xml version="1.0" standalone="no"?>
<!DOCTYPE svg PUBLIC "-//W3C//DTD SVG 20010904//EN"
 "http://www.w3.org/TR/2001/REC-SVG-20010904/DTD/svg10.dtd">
<svg version="1.0" xmlns="http://www.w3.org/2000/svg"
 width="248.000000pt" height="248.000000pt" viewBox="0 0 248.000000 248.000000"
 preserveAspectRatio="xMidYMid meet">
<metadata>
Created by potrace 1.10, written by Peter Selinger 2001-2011
</metadata>
<g transform="translate(0.000000,248.000000) scale(0.100000,-0.100000)"
fill="#000000" stroke="none">
<path d="M1465 2359 c-126 -4 -364 -14 -529 -21 -293 -13 -298 -14 -317 -37
-24 -29 -24 -54 2 -261 11 -91 24 -232 29 -314 6 -81 16 -160 23 -175 15 -31
57 -40 78 -15 14 17 16 126 3 265 -5 54 -3 67 10 72 8 3 115 9 236 13 l220 7
0 -164 c0 -186 7 -214 55 -214 48 0 55 27 55 217 l0 167 235 3 235 3 0 -30 c0
-16 -7 -95 -15 -175 -19 -187 -19 -187 5 -200 30 -16 60 -3 75 34 24 57 76
732 61 791 -12 48 -15 49 -461 34z m349 -226 c-3 -71 -7 -128 -8 -128 0 0
-110 1 -243 3 l-243 3 0 119 0 120 163 3 c89 1 202 4 250 5 l89 2 -8 -127z
m-604 10 c0 -54 3 -108 6 -120 6 -23 5 -23 -78 -23 -46 0 -155 -5 -242 -11
-87 -5 -160 -9 -162 -7 -5 6 -27 229 -22 233 2 2 100 8 218 13 118 5 230 10
248 10 l32 2 0 -97z"/>
</g>
</svg>
