<?xml version="1.0" standalone="no"?>
<!DOCTYPE svg PUBLIC "-//W3C//DTD SVG 20010904//EN"
 "http://www.w3.org/TR/2001/REC-SVG-20010904/DTD/svg10.dtd">
<svg version="1.0" xmlns="http://www.w3.org/2000/svg"
 width="248.000000pt" height="248.000000pt" viewBox="0 0 248.000000 248.000000"
 preserveAspectRatio="xMidYMid meet">
<metadata>
Created by potrace 1.10, written by Peter Selinger 2001-2011
</metadata>
<g transform="translate(0.000000,248.000000) scale(0.100000,-0.100000)"
fill="#000000" stroke="none">
<path d="M1620 2099 c-289 -13 -767 -57 -1011 -93 -67 -9 -94 -18 -123 -41
l-38 -29 6 -61 c10 -102 15 -811 6 -960 -5 -77 -11 -243 -14 -370 -4 -126 -7
-248 -9 -270 -3 -59 24 -69 151 -55 105 11 718 29 1022 29 102 0 270 -4 374
-10 165 -8 191 -8 212 6 48 31 22 80 -49 89 -246 32 -1102 27 -1539 -9 l-58
-5 6 258 c3 141 9 359 14 485 9 209 8 311 -5 698 l-5 136 128 17 c392 50 721
75 1091 83 287 6 316 8 333 25 22 22 23 38 4 64 -13 17 -28 19 -163 20 -81 1
-231 -2 -333 -7z"/>
<path d="M1006 1828 c-9 -12 -16 -28 -16 -34 0 -21 -58 -143 -91 -191 -18 -26
-72 -88 -121 -139 -48 -51 -88 -97 -88 -101 0 -21 33 -53 54 -53 29 0 102 63
173 149 l53 65 133 -2 132 -2 3 -48 c3 -45 -21 -228 -31 -238 -4 -4 -184 -29
-327 -45 -136 -15 -190 -39 -190 -84 0 -41 24 -50 93 -37 34 7 98 16 142 22
44 5 109 14 145 20 101 15 103 15 95 -17 -3 -16 -26 -69 -50 -119 -34 -72 -59
-109 -120 -173 -69 -72 -186 -161 -233 -178 -48 -17 -68 -67 -37 -93 44 -36
192 47 331 186 77 77 99 107 139 187 l48 96 82 -77 c46 -42 109 -92 142 -111
32 -19 83 -49 114 -67 61 -37 222 -114 313 -150 72 -29 127 -31 149 -6 34 37
12 67 -64 86 -56 15 -243 103 -404 191 -69 38 -114 73 -195 152 -67 66 -101
106 -95 112 16 15 315 42 470 43 112 0 143 3 158 15 23 21 22 48 -5 75 -20 20
-26 21 -182 15 -89 -3 -214 -12 -278 -18 -65 -7 -120 -10 -123 -8 -3 3 2 55
11 115 8 60 13 122 10 137 -7 33 -12 31 129 47 168 19 266 38 286 56 23 20 25
57 4 74 -16 13 -32 12 -190 -13 -55 -9 -149 -21 -210 -27 -116 -11 -325 -14
-325 -5 0 3 11 32 25 65 27 64 32 119 13 138 -19 19 -55 14 -72 -10z"/>
</g>
</svg>
