<?xml version="1.0" standalone="no"?>
<!DOCTYPE svg PUBLIC "-//W3C//DTD SVG 20010904//EN"
 "http://www.w3.org/TR/2001/REC-SVG-20010904/DTD/svg10.dtd">
<svg version="1.0" xmlns="http://www.w3.org/2000/svg"
 width="248.000000pt" height="248.000000pt" viewBox="0 0 248.000000 248.000000"
 preserveAspectRatio="xMidYMid meet">
<metadata>
Created by potrace 1.10, written by Peter Selinger 2001-2011
</metadata>
<g transform="translate(0.000000,248.000000) scale(0.100000,-0.100000)"
fill="#000000" stroke="none">
<path d="M785 2353 c-9 -10 -30 -35 -47 -56 -32 -39 -156 -142 -283 -235 -115
-84 -125 -93 -125 -112 0 -24 26 -50 50 -50 48 0 414 285 461 358 34 54 35 66
9 92 -25 25 -45 25 -65 3z"/>
<path d="M1985 2259 c-55 -9 -131 -24 -169 -33 -95 -23 -310 -52 -491 -67 -82
-6 -156 -16 -162 -22 -16 -12 -17 -49 -1 -65 33 -33 433 2 713 62 61 14 133
27 160 31 73 9 85 14 94 38 10 25 -2 53 -27 65 -10 5 -56 2 -117 -9z"/>
<path d="M839 1828 c-16 -13 -71 -85 -150 -194 -118 -164 -350 -412 -512 -547
-46 -39 -57 -54 -57 -78 0 -22 7 -32 25 -41 33 -15 65 8 231 163 71 65 132
119 137 119 4 0 7 -233 6 -519 -1 -285 1 -524 5 -530 11 -17 51 -13 70 8 15
16 16 68 16 592 l-1 573 65 77 c36 42 95 118 132 170 37 52 77 107 91 123 16
19 22 35 17 50 -7 23 -31 46 -49 46 -6 0 -18 -6 -26 -12z"/>
</g>
</svg>
