<?xml version="1.0" standalone="no"?>
<!DOCTYPE svg PUBLIC "-//W3C//DTD SVG 20010904//EN"
 "http://www.w3.org/TR/2001/REC-SVG-20010904/DTD/svg10.dtd">
<svg version="1.0" xmlns="http://www.w3.org/2000/svg"
 width="248.000000pt" height="248.000000pt" viewBox="0 0 248.000000 248.000000"
 preserveAspectRatio="xMidYMid meet">
<metadata>
Created by potrace 1.10, written by Peter Selinger 2001-2011
</metadata>
<g transform="translate(0.000000,248.000000) scale(0.100000,-0.100000)"
fill="#000000" stroke="none">
<path d="M1832 2028 c-5 -7 -28 -76 -51 -153 -43 -150 -122 -380 -164 -483
-66 -159 -221 -353 -449 -561 -49 -43 -60 -75 -36 -99 25 -25 58 -11 135 56
104 89 159 147 256 268 131 163 180 258 271 524 107 315 131 421 104 448 -16
16 -53 15 -66 0z"/>
<path d="M426 1837 c-11 -8 -19 -26 -19 -43 0 -39 27 -261 58 -473 14 -95 30
-214 35 -265 6 -50 13 -103 16 -117 5 -25 -2 -31 -73 -75 -160 -98 -248 -156
-260 -172 -16 -20 -17 -64 -1 -80 21 -21 45 -13 112 36 36 26 130 87 208 135
79 49 198 132 264 185 67 53 142 112 168 130 26 17 49 39 53 48 10 26 -14 64
-40 64 -27 0 -138 -74 -250 -167 -43 -36 -80 -63 -84 -60 -3 3 -9 41 -13 84
-5 43 -22 177 -39 298 -17 121 -37 274 -45 339 -11 93 -18 123 -32 133 -23 16
-35 16 -58 0z"/>
<path d="M962 1828 c-30 -30 -13 -55 140 -192 84 -75 164 -140 177 -143 32 -8
55 8 59 39 3 21 -21 47 -154 167 -159 143 -190 161 -222 129z"/>
</g>
</svg>
