<?xml version="1.0" standalone="no"?>
<!DOCTYPE svg PUBLIC "-//W3C//DTD SVG 20010904//EN"
 "http://www.w3.org/TR/2001/REC-SVG-20010904/DTD/svg10.dtd">
<svg version="1.0" xmlns="http://www.w3.org/2000/svg"
 width="248.000000pt" height="248.000000pt" viewBox="0 0 248.000000 248.000000"
 preserveAspectRatio="xMidYMid meet">
<metadata>
Created by potrace 1.10, written by Peter Selinger 2001-2011
</metadata>
<g transform="translate(0.000000,248.000000) scale(0.100000,-0.100000)"
fill="#000000" stroke="none">
<path d="M1391 2370 c-95 -50 -199 -98 -306 -143 -287 -118 -294 -122 -280
-167 15 -46 36 -44 217 30 95 38 176 70 180 70 5 0 8 -65 8 -144 l0 -143 -67
-11 c-38 -6 -162 -20 -278 -32 -115 -12 -257 -28 -315 -35 -58 -8 -136 -17
-175 -21 -38 -3 -80 -12 -92 -20 -30 -19 -30 -58 -1 -78 24 -17 50 -16 243 10
61 8 198 23 305 34 107 11 213 23 235 26 l40 5 -51 -48 c-59 -56 -222 -181
-279 -214 -22 -13 -53 -33 -70 -45 -59 -44 -261 -157 -340 -191 -97 -42 -105
-48 -105 -84 0 -22 7 -32 25 -41 21 -9 38 -5 114 27 49 20 127 59 172 86 45
27 84 49 87 49 10 0 240 156 329 222 51 38 121 96 155 128 l63 58 5 -183 c5
-194 11 -215 55 -215 44 0 50 22 55 205 l5 172 195 -103 c107 -57 218 -112
245 -123 28 -10 115 -51 195 -89 130 -63 327 -132 377 -132 42 0 58 53 26 83
-10 8 -65 29 -122 46 -58 17 -164 60 -235 95 -72 35 -165 78 -206 95 -41 17
-115 54 -165 82 -49 27 -127 68 -173 91 -76 37 -100 54 -90 63 2 2 46 9 98 15
52 6 145 17 205 25 61 8 170 19 244 25 153 11 204 28 209 71 6 47 -12 51 -170
39 -79 -6 -192 -17 -253 -25 -60 -8 -165 -22 -232 -30 -67 -8 -128 -18 -137
-21 -14 -5 -16 10 -16 129 0 74 -3 148 -6 164 -6 30 -4 31 110 92 93 49 117
67 122 88 9 33 -6 57 -37 60 -13 2 -66 -19 -118 -47z"/>
<path d="M997 1212 c-10 -11 -20 -50 -26 -103 -8 -74 -61 -238 -111 -344 -50
-107 -102 -242 -102 -266 -1 -41 17 -57 79 -68 29 -6 94 -27 145 -47 78 -30
267 -97 578 -203 30 -11 97 -31 148 -45 106 -30 132 -26 132 24 0 40 -24 54
-169 95 -67 19 -134 41 -150 50 -16 8 -59 23 -97 34 -168 50 -544 192 -544
206 0 6 9 29 20 50 27 52 105 247 142 354 34 98 49 241 28 266 -17 20 -53 19
-73 -3z"/>
</g>
</svg>
