<?xml version="1.0" standalone="no"?>
<!DOCTYPE svg PUBLIC "-//W3C//DTD SVG 20010904//EN"
 "http://www.w3.org/TR/2001/REC-SVG-20010904/DTD/svg10.dtd">
<svg version="1.0" xmlns="http://www.w3.org/2000/svg"
 width="248.000000pt" height="248.000000pt" viewBox="0 0 248.000000 248.000000"
 preserveAspectRatio="xMidYMid meet">
<metadata>
Created by potrace 1.10, written by Peter Selinger 2001-2011
</metadata>
<g transform="translate(0.000000,248.000000) scale(0.100000,-0.100000)"
fill="#000000" stroke="none">
<path d="M1391 2370 c-95 -50 -199 -98 -306 -143 -287 -118 -294 -122 -280
-167 15 -47 35 -44 237 37 106 43 260 112 343 153 123 62 152 81 160 103 12
35 -3 61 -36 64 -13 2 -66 -19 -118 -47z"/>
<path d="M1930 1959 c-58 -4 -157 -15 -220 -23 -63 -9 -169 -23 -235 -31 -66
-9 -201 -26 -300 -39 -99 -13 -256 -31 -350 -40 -93 -10 -217 -24 -275 -31
-58 -8 -136 -17 -175 -21 -38 -3 -80 -12 -93 -20 -29 -19 -29 -58 0 -78 24
-17 50 -16 243 10 61 8 198 23 305 35 225 23 395 44 530 64 52 8 122 17 155
20 33 4 105 13 160 20 55 8 162 19 239 24 154 12 209 29 214 69 2 13 -2 30 -8
38 -13 15 -29 16 -190 3z"/>
</g>
</svg>
