<?xml version="1.0" standalone="no"?>
<!DOCTYPE svg PUBLIC "-//W3C//DTD SVG 20010904//EN"
 "http://www.w3.org/TR/2001/REC-SVG-20010904/DTD/svg10.dtd">
<svg version="1.0" xmlns="http://www.w3.org/2000/svg"
 width="248.000000pt" height="248.000000pt" viewBox="0 0 248.000000 248.000000"
 preserveAspectRatio="xMidYMid meet">
<metadata>
Created by potrace 1.10, written by Peter Selinger 2001-2011
</metadata>
<g transform="translate(0.000000,248.000000) scale(0.100000,-0.100000)"
fill="#000000" stroke="none">
<path d="M1391 2370 c-95 -50 -199 -98 -306 -143 -287 -118 -294 -122 -280
-167 15 -46 36 -44 217 30 95 38 176 70 180 70 5 0 8 -65 8 -144 l0 -143 -67
-11 c-38 -6 -162 -20 -278 -32 -115 -12 -257 -28 -315 -35 -58 -8 -136 -17
-175 -21 -38 -3 -80 -12 -92 -20 -30 -19 -30 -58 -1 -78 24 -17 50 -16 243 10
61 8 198 23 305 34 107 11 213 23 235 26 l40 5 -51 -48 c-59 -56 -222 -181
-279 -214 -22 -13 -53 -33 -70 -45 -59 -44 -261 -157 -340 -191 -97 -42 -105
-48 -105 -84 0 -22 7 -32 25 -41 21 -9 38 -5 114 27 49 20 127 59 172 86 45
27 84 49 87 49 10 0 240 156 329 222 51 38 121 96 155 128 l63 58 5 -183 c5
-194 11 -215 55 -215 44 0 50 22 55 205 l5 172 195 -103 c107 -57 218 -112
245 -123 28 -10 115 -51 195 -89 130 -63 327 -132 377 -132 42 0 58 53 26 83
-10 8 -65 29 -122 46 -58 17 -164 60 -235 95 -72 35 -165 78 -206 95 -41 17
-115 54 -165 82 -49 27 -127 68 -173 91 -76 37 -100 54 -90 63 2 2 46 9 98 15
52 6 145 17 205 25 61 8 170 19 244 25 153 11 204 28 209 71 6 47 -12 51 -170
39 -79 -6 -192 -17 -253 -25 -60 -8 -165 -22 -232 -30 -67 -8 -128 -18 -137
-21 -14 -5 -16 10 -16 129 0 74 -3 148 -6 164 -6 30 -4 31 110 92 93 49 117
67 122 88 9 33 -6 57 -37 60 -13 2 -66 -19 -118 -47z"/>
<path d="M996 1211 c-11 -12 -19 -44 -23 -89 -3 -39 -9 -75 -12 -81 -8 -12
-209 -37 -403 -50 -159 -11 -193 -22 -193 -66 0 -46 28 -54 170 -44 66 5 178
16 248 25 71 9 130 14 133 12 3 -4 -30 -96 -56 -153 -57 -126 -102 -242 -102
-266 -1 -41 17 -57 79 -68 29 -6 94 -27 145 -47 51 -19 119 -46 150 -58 l58
-22 -38 -36 c-20 -19 -66 -54 -102 -76 -36 -22 -77 -50 -92 -62 -45 -35 -33
-90 20 -90 36 0 187 96 262 166 l65 61 95 -32 c52 -17 122 -41 155 -52 33 -12
102 -33 153 -47 106 -30 132 -26 132 24 0 40 -24 54 -169 95 -67 19 -134 41
-149 49 -15 8 -53 22 -85 31 l-58 17 27 36 c15 21 37 48 49 62 81 92 229 343
290 490 15 36 28 66 30 68 6 7 120 22 268 37 87 9 169 20 182 25 28 11 40 42
26 68 -10 18 -65 37 -80 28 -4 -3 -45 -7 -91 -11 -47 -3 -132 -13 -189 -22
-80 -12 -108 -13 -122 -4 -25 15 -49 14 -68 -3 -21 -19 -318 -57 -562 -73
l-66 -5 5 76 c5 83 -4 106 -43 106 -12 0 -30 -8 -39 -19z m649 -233 c-10 -35
-80 -174 -125 -251 -40 -69 -78 -123 -184 -260 -66 -87 -60 -85 -171 -40 -33
13 -111 43 -172 65 -62 23 -113 46 -113 52 0 7 9 30 20 51 25 48 130 310 130
324 0 13 26 21 73 21 23 1 62 5 87 10 25 5 115 14 200 20 85 6 171 15 190 19
62 15 72 14 65 -11z"/>
</g>
</svg>
