<?xml version="1.0" standalone="no"?>
<!DOCTYPE svg PUBLIC "-//W3C//DTD SVG 20010904//EN"
 "http://www.w3.org/TR/2001/REC-SVG-20010904/DTD/svg10.dtd">
<svg version="1.0" xmlns="http://www.w3.org/2000/svg"
 width="248.000000pt" height="248.000000pt" viewBox="0 0 248.000000 248.000000"
 preserveAspectRatio="xMidYMid meet">
<metadata>
Created by potrace 1.10, written by Peter Selinger 2001-2011
</metadata>
<g transform="translate(0.000000,248.000000) scale(0.100000,-0.100000)"
fill="#000000" stroke="none">
<path d="M692 2278 c-27 -40 -64 -95 -83 -123 -102 -152 -306 -407 -431 -540
-82 -87 -95 -112 -75 -139 29 -39 62 -24 153 70 47 49 104 113 126 142 22 28
43 52 46 52 3 0 2 -358 -1 -795 l-7 -796 25 -25 c21 -21 28 -23 45 -14 12 6
25 23 31 37 7 19 25 1626 20 1729 -1 6 23 42 52 80 122 159 217 308 217 339 0
37 -15 55 -46 55 -17 0 -35 -19 -72 -72z"/>
<path d="M1401 2336 c-9 -11 -11 -60 -9 -171 3 -141 5 -158 22 -171 25 -18 37
-18 62 0 17 13 19 27 19 164 0 133 -2 152 -19 171 -22 24 -58 27 -75 7z"/>
</g>
</svg>
