<?xml version="1.0" standalone="no"?>
<!DOCTYPE svg PUBLIC "-//W3C//DTD SVG 20010904//EN"
 "http://www.w3.org/TR/2001/REC-SVG-20010904/DTD/svg10.dtd">
<svg version="1.0" xmlns="http://www.w3.org/2000/svg"
 width="248.000000pt" height="248.000000pt" viewBox="0 0 248.000000 248.000000"
 preserveAspectRatio="xMidYMid meet">
<metadata>
Created by potrace 1.10, written by Peter Selinger 2001-2011
</metadata>
<g transform="translate(0.000000,248.000000) scale(0.100000,-0.100000)"
fill="#000000" stroke="none">
<path d="M692 2278 c-27 -40 -64 -95 -83 -123 -102 -152 -306 -407 -431 -540
-82 -87 -95 -112 -75 -139 29 -39 62 -24 153 70 47 49 104 113 126 142 22 28
43 52 46 52 3 0 2 -358 -1 -795 l-7 -796 25 -25 c21 -21 28 -23 45 -14 12 6
25 23 31 37 7 19 25 1626 20 1729 -1 6 23 42 52 80 122 159 217 308 217 339 0
37 -15 55 -46 55 -17 0 -35 -19 -72 -72z"/>
<path d="M1402 2338 c-8 -8 -12 -57 -12 -154 l0 -142 -92 -16 c-51 -9 -127
-23 -168 -30 -41 -8 -102 -17 -135 -21 -90 -10 -184 -32 -201 -46 -23 -19 -13
-62 17 -76 22 -11 41 -10 105 2 224 42 670 116 864 145 80 12 183 27 230 35
47 8 101 17 121 20 43 7 62 25 57 57 -5 39 -50 53 -127 39 -36 -7 -122 -21
-191 -31 -291 -43 -342 -51 -354 -56 -11 -4 -15 20 -17 119 -3 106 -7 128 -23
146 -21 23 -56 27 -74 9z"/>
</g>
</svg>
