<?xml version="1.0" standalone="no"?>
<!DOCTYPE svg PUBLIC "-//W3C//DTD SVG 20010904//EN"
 "http://www.w3.org/TR/2001/REC-SVG-20010904/DTD/svg10.dtd">
<svg version="1.0" xmlns="http://www.w3.org/2000/svg"
 width="248.000000pt" height="248.000000pt" viewBox="0 0 248.000000 248.000000"
 preserveAspectRatio="xMidYMid meet">
<metadata>
Created by potrace 1.10, written by Peter Selinger 2001-2011
</metadata>
<g transform="translate(0.000000,248.000000) scale(0.100000,-0.100000)"
fill="#000000" stroke="none">
<path d="M692 2278 c-27 -40 -64 -95 -83 -123 -102 -152 -306 -407 -431 -540
-82 -87 -95 -112 -75 -139 29 -39 62 -24 153 70 47 49 104 113 126 142 22 28
43 52 46 52 3 0 2 -358 -1 -795 l-7 -796 25 -25 c21 -21 28 -23 45 -14 12 6
25 23 31 37 7 19 25 1626 20 1729 -1 6 23 42 52 80 122 159 217 308 217 339 0
37 -15 55 -46 55 -17 0 -35 -19 -72 -72z"/>
<path d="M1402 2338 c-8 -8 -12 -57 -12 -154 l0 -142 -92 -16 c-51 -9 -127
-23 -168 -30 -41 -8 -102 -17 -135 -21 -90 -10 -184 -32 -201 -46 -23 -19 -13
-62 17 -76 22 -11 41 -10 105 2 150 28 380 65 402 65 21 0 21 -2 -11 -49 -17
-26 -51 -72 -74 -102 -23 -30 -62 -81 -88 -114 -25 -33 -70 -91 -99 -130 -29
-38 -132 -150 -229 -248 -105 -105 -177 -185 -177 -196 0 -25 26 -51 51 -51
24 0 115 82 266 239 l112 116 0 -100 c1 -55 -6 -271 -14 -480 -24 -632 -22
-676 38 -683 25 -3 49 17 191 160 230 231 272 288 234 326 -27 27 -64 14 -104
-35 -21 -27 -88 -99 -149 -162 l-110 -113 -5 53 c-3 30 -2 106 2 169 11 192
28 716 28 867 l0 141 37 49 c42 54 95 123 135 174 45 58 98 152 98 175 0 24
25 30 330 74 80 12 183 27 230 35 47 8 101 17 121 20 43 7 62 25 57 57 -5 39
-50 53 -127 39 -36 -7 -122 -21 -191 -31 -291 -43 -342 -51 -354 -56 -11 -4
-15 20 -17 119 -3 106 -7 128 -23 146 -21 23 -56 27 -74 9z"/>
<path d="M1917 1528 c-45 -46 -111 -105 -147 -132 -36 -28 -83 -66 -105 -85
-22 -20 -64 -52 -92 -71 -64 -42 -80 -73 -58 -106 8 -13 23 -24 32 -24 21 0
135 76 199 133 27 24 78 65 114 92 85 65 199 183 207 214 8 32 -8 55 -41 59
-21 3 -41 -11 -109 -80z"/>
</g>
</svg>
