<?xml version="1.0" standalone="no"?>
<!DOCTYPE svg PUBLIC "-//W3C//DTD SVG 20010904//EN"
 "http://www.w3.org/TR/2001/REC-SVG-20010904/DTD/svg10.dtd">
<svg version="1.0" xmlns="http://www.w3.org/2000/svg"
 width="248.000000pt" height="248.000000pt" viewBox="0 0 248.000000 248.000000"
 preserveAspectRatio="xMidYMid meet">
<metadata>
Created by potrace 1.10, written by Peter Selinger 2001-2011
</metadata>
<g transform="translate(0.000000,248.000000) scale(0.100000,-0.100000)"
fill="#000000" stroke="none">
<path d="M1496 2368 c-9 -12 -16 -31 -16 -41 0 -10 -5 -38 -11 -62 l-11 -44
-69 -15 c-37 -9 -90 -16 -116 -16 -28 0 -58 -7 -71 -16 -47 -33 -12 -94 53
-94 16 1 64 7 105 14 41 8 76 13 77 12 2 -2 -18 -96 -39 -179 -18 -73 -18 -80
-3 -103 12 -18 23 -24 43 -22 38 4 43 17 99 248 17 71 19 75 48 78 17 1 68 9
115 17 47 8 104 17 127 20 l42 5 -6 -57 c-3 -32 -12 -89 -20 -128 -29 -129
-19 -166 39 -152 34 9 51 54 73 187 9 58 20 127 25 155 9 54 -1 92 -26 102
-13 5 -146 -10 -324 -36 -30 -5 -56 -7 -58 -6 -2 2 1 26 6 54 11 62 -2 95 -40
99 -18 2 -31 -4 -42 -20z"/>
</g>
</svg>
