<?xml version="1.0" standalone="no"?>
<!DOCTYPE svg PUBLIC "-//W3C//DTD SVG 20010904//EN"
 "http://www.w3.org/TR/2001/REC-SVG-20010904/DTD/svg10.dtd">
<svg version="1.0" xmlns="http://www.w3.org/2000/svg"
 width="248.000000pt" height="248.000000pt" viewBox="0 0 248.000000 248.000000"
 preserveAspectRatio="xMidYMid meet">
<metadata>
Created by potrace 1.10, written by Peter Selinger 2001-2011
</metadata>
<g transform="translate(0.000000,248.000000) scale(0.100000,-0.100000)"
fill="#000000" stroke="none">
<path d="M1496 2368 c-9 -12 -16 -31 -16 -41 0 -10 -5 -38 -11 -62 l-11 -44
-69 -15 c-37 -9 -90 -16 -116 -16 -28 0 -58 -7 -71 -16 -47 -33 -12 -94 53
-94 16 1 64 7 105 14 41 8 76 13 77 12 3 -2 -29 -146 -48 -217 -10 -41 -9 -40
-194 -55 -109 -8 -245 -32 -262 -45 -20 -18 -16 -57 10 -73 23 -16 49 -14 382
25 50 6 104 12 120 13 56 5 230 27 326 42 106 16 245 30 384 40 50 4 100 13
113 20 30 19 29 59 -3 80 -22 14 -39 15 -170 3 -80 -7 -148 -10 -150 -7 -3 3
-1 25 4 49 13 56 34 217 34 248 -1 13 -8 30 -17 39 -14 14 -28 14 -148 -2 -73
-9 -158 -21 -188 -25 -30 -5 -56 -7 -58 -6 -2 2 1 26 6 54 11 62 -2 95 -40 99
-18 2 -31 -4 -42 -20z m367 -255 c-5 -59 -30 -193 -36 -199 -6 -6 -105 -22
-172 -28 -33 -3 -84 -9 -114 -12 -51 -7 -54 -6 -47 12 4 10 12 37 17 59 43
182 42 180 74 183 17 1 68 9 115 17 47 8 99 16 115 18 17 2 35 5 42 6 8 1 10
-16 6 -56z"/>
<path d="M1930 1747 c-3 -3 -52 -10 -110 -17 -109 -11 -467 -64 -556 -81 -86
-17 -87 -17 -68 -220 10 -108 21 -183 30 -196 17 -27 56 -30 74 -8 16 19 16
40 5 203 -5 86 -4 122 3 122 6 0 75 11 154 25 79 13 205 31 281 40 76 8 150
18 164 21 l26 7 -6 -99 c-4 -54 -10 -134 -13 -176 -7 -85 1 -108 41 -108 41 0
57 32 68 137 17 157 15 309 -4 328 -15 16 -80 31 -89 22z"/>
</g>
</svg>
