<?xml version="1.0" standalone="no"?>
<!DOCTYPE svg PUBLIC "-//W3C//DTD SVG 20010904//EN"
 "http://www.w3.org/TR/2001/REC-SVG-20010904/DTD/svg10.dtd">
<svg version="1.0" xmlns="http://www.w3.org/2000/svg"
 width="248.000000pt" height="248.000000pt" viewBox="0 0 248.000000 248.000000"
 preserveAspectRatio="xMidYMid meet">
<metadata>
Created by potrace 1.10, written by Peter Selinger 2001-2011
</metadata>
<g transform="translate(0.000000,248.000000) scale(0.100000,-0.100000)"
fill="#000000" stroke="none">
<path d="M1496 2368 c-9 -12 -16 -31 -16 -41 0 -10 -5 -38 -11 -62 l-11 -44
-69 -15 c-37 -9 -90 -16 -116 -16 -28 0 -58 -7 -71 -16 -47 -33 -12 -94 53
-94 16 1 64 7 105 14 41 8 76 13 77 12 3 -2 -29 -146 -48 -217 -10 -41 -9 -41
-194 -54 -110 -9 -244 -32 -261 -46 -22 -18 -17 -57 11 -75 21 -14 34 -15 87
-5 35 5 99 13 143 16 44 3 114 10 155 16 41 5 91 11 110 13 61 5 231 27 331
42 106 16 245 30 384 40 50 4 100 13 113 20 30 19 29 59 -3 80 -22 14 -39 15
-170 3 -80 -7 -148 -10 -150 -7 -3 3 -1 25 4 49 13 56 34 217 34 248 -1 13 -8
30 -17 39 -14 14 -28 14 -148 -2 -73 -9 -158 -21 -188 -25 -30 -5 -56 -7 -58
-6 -2 2 1 26 6 54 11 62 -2 95 -40 99 -18 2 -31 -4 -42 -20z m367 -255 c-5
-59 -30 -193 -36 -199 -6 -6 -105 -22 -172 -28 -33 -3 -84 -9 -114 -12 -51 -7
-54 -6 -47 12 4 10 12 37 17 59 43 182 42 180 74 183 17 1 68 9 115 17 47 8
99 16 115 18 17 2 35 5 42 6 8 1 10 -16 6 -56z"/>
<path d="M380 2087 c-28 -14 -38 -51 -20 -72 6 -8 37 -21 68 -30 30 -9 91 -34
134 -56 108 -55 154 -49 146 17 -2 23 -15 34 -78 67 -55 29 -210 89 -224 87
-1 0 -12 -6 -26 -13z"/>
<path d="M1930 1747 c-3 -3 -52 -10 -110 -17 -109 -11 -467 -64 -556 -81 -86
-17 -87 -18 -69 -215 19 -206 20 -210 48 -229 23 -14 131 -11 365 11 l72 7 0
-45 0 -45 -112 -12 c-62 -6 -177 -18 -255 -26 -78 -8 -162 -15 -185 -15 -24 0
-54 -7 -66 -16 -46 -32 -13 -94 50 -94 28 0 28 -1 28 -64 0 -35 -3 -84 -6
-110 -8 -54 3 -50 -168 -65 -127 -11 -156 -23 -156 -66 0 -45 18 -48 182 -36
145 11 230 20 529 56 70 8 132 15 137 15 7 0 12 -74 14 -221 3 -205 4 -222 22
-235 25 -18 37 -18 62 0 18 13 19 30 22 245 3 209 5 231 20 231 9 0 80 7 157
16 77 8 183 19 235 24 52 5 107 12 123 16 53 11 60 76 10 95 -15 6 -58 5 -116
-2 -216 -25 -355 -39 -391 -39 l-39 0 7 102 c4 57 8 103 9 104 1 1 69 7 150
13 82 7 159 16 172 21 48 18 40 83 -11 93 -25 4 -203 -6 -281 -17 l-33 -5 0
48 c0 48 0 48 38 55 20 3 61 6 90 6 88 0 92 8 113 230 13 140 9 224 -13 246
-15 15 -79 30 -88 21z m0 -172 c0 -35 -5 -98 -11 -139 l-11 -75 -42 -6 c-22
-3 -89 -12 -147 -20 -128 -18 -391 -36 -401 -27 -12 13 -22 242 -10 242 6 0
75 11 154 25 79 13 208 32 288 40 79 9 147 18 149 21 2 2 10 4 18 4 9 0 13
-17 13 -65z m-255 -657 c-4 -57 -9 -104 -10 -106 -7 -8 -424 -57 -430 -51 -1
2 1 27 5 54 5 28 9 76 9 107 1 45 5 58 19 62 9 3 78 10 152 16 74 6 136 13
139 16 2 2 31 4 64 4 l59 0 -7 -102z"/>
</g>
</svg>
