<?xml version="1.0" standalone="no"?>
<!DOCTYPE svg PUBLIC "-//W3C//DTD SVG 20010904//EN"
 "http://www.w3.org/TR/2001/REC-SVG-20010904/DTD/svg10.dtd">
<svg version="1.0" xmlns="http://www.w3.org/2000/svg"
 width="248.000000pt" height="248.000000pt" viewBox="0 0 248.000000 248.000000"
 preserveAspectRatio="xMidYMid meet">
<metadata>
Created by potrace 1.10, written by Peter Selinger 2001-2011
</metadata>
<g transform="translate(0.000000,248.000000) scale(0.100000,-0.100000)"
fill="#000000" stroke="none">
<path d="M1501 2376 c-7 -8 -19 -45 -27 -82 -7 -37 -16 -69 -18 -72 -10 -9
-133 -31 -181 -32 -59 0 -95 -21 -95 -54 0 -50 56 -64 175 -43 44 8 81 14 82
13 4 -4 -49 -233 -57 -247 -4 -5 -63 -14 -131 -20 -155 -12 -297 -35 -315 -50
-22 -18 -17 -57 10 -74 20 -13 34 -14 83 -6 32 6 96 13 143 16 47 3 117 10
155 15 39 5 133 16 210 25 77 9 185 23 239 31 55 9 187 23 293 33 113 11 199
24 208 31 23 19 18 57 -10 76 -23 15 -38 16 -139 5 -61 -6 -129 -11 -150 -11
-35 0 -38 2 -32 23 9 29 38 234 39 270 0 15 -7 35 -16 44 -15 15 -26 15 -149
-1 -73 -9 -158 -21 -188 -25 -30 -5 -56 -7 -58 -6 -2 2 1 26 6 54 6 35 6 57
-2 73 -14 27 -57 35 -75 14z m362 -263 c-5 -60 -30 -193 -36 -200 -10 -9 -325
-48 -332 -41 -2 2 2 22 10 43 8 22 14 51 15 65 0 14 8 52 18 85 l18 59 84 14
c73 11 178 26 217 31 8 1 10 -16 6 -56z"/>
<path d="M380 2087 c-28 -14 -38 -51 -20 -72 6 -8 37 -21 68 -30 30 -9 91 -34
134 -56 108 -55 154 -49 146 17 -2 23 -15 34 -78 67 -55 29 -210 89 -224 87
-1 0 -12 -6 -26 -13z"/>
<path d="M1825 1734 c-223 -32 -513 -76 -561 -85 -86 -17 -87 -18 -69 -215 20
-208 20 -210 48 -229 23 -14 131 -11 365 11 l72 7 0 -45 0 -45 -62 -7 c-141
-15 -260 -26 -393 -37 -81 -7 -149 -18 -162 -26 -49 -29 -14 -93 51 -93 l29 0
-6 -107 c-4 -70 -10 -109 -19 -114 -7 -5 -33 -9 -58 -9 -85 0 -214 -21 -232
-37 -22 -20 -23 -56 -3 -73 22 -18 289 3 705 55 63 8 120 15 127 15 9 0 13
-58 15 -221 3 -205 4 -222 22 -235 25 -18 37 -18 62 0 18 13 19 30 22 245 2
127 6 231 10 231 10 0 289 28 393 39 129 14 159 21 170 43 14 26 2 57 -26 68
-14 5 -58 5 -107 0 -46 -5 -146 -16 -223 -25 -77 -8 -158 -15 -179 -15 l-39 0
7 102 c4 57 8 103 9 104 1 1 69 7 150 13 82 7 159 16 172 21 43 16 43 74 0 90
-19 7 -204 -2 -292 -14 l-33 -5 0 48 c0 46 1 49 31 55 17 3 58 6 90 6 96 0 98
5 120 230 13 141 9 224 -13 247 -22 21 -78 23 -193 7z m105 -159 c0 -35 -5
-98 -11 -139 -13 -86 6 -75 -159 -95 -169 -22 -257 -30 -350 -33 l-95 -3 -9
118 c-5 64 -7 119 -5 122 8 8 363 63 479 75 63 6 116 13 119 16 2 2 10 4 18 4
9 0 13 -17 13 -65z m-255 -657 c-4 -57 -9 -105 -11 -107 -7 -7 -423 -56 -429
-50 -1 2 1 27 5 54 5 28 9 76 9 107 1 45 5 58 19 62 9 3 78 10 152 16 74 6
136 13 139 16 2 2 31 4 64 4 l59 0 -7 -102z"/>
<path d="M586 1454 c-50 -25 -124 -60 -165 -76 -148 -59 -191 -87 -191 -123 0
-27 18 -45 46 -45 12 0 92 31 178 69 86 38 156 66 156 63 0 -3 -22 -51 -49
-107 -26 -55 -61 -137 -76 -182 -25 -76 -26 -85 -14 -125 11 -35 24 -50 67
-77 l53 -34 -53 -55 c-78 -80 -147 -128 -282 -197 -114 -58 -121 -63 -124 -93
-5 -53 34 -63 257 -66 174 -2 193 -4 302 -33 144 -40 454 -140 492 -160 16 -8
65 -22 110 -33 45 -10 135 -32 199 -49 209 -55 347 -74 488 -67 175 7 403 51
435 82 20 20 19 58 -1 75 -13 10 -26 10 -72 1 -292 -64 -448 -69 -679 -23 -81
17 -177 39 -213 50 -36 10 -85 22 -110 26 -25 4 -90 24 -145 45 -259 98 -580
186 -713 197 -84 6 -84 6 -55 22 55 30 138 99 211 174 70 73 73 78 70 119 -3
41 -6 44 -68 80 -36 21 -66 44 -68 52 -7 33 98 277 172 400 30 50 36 97 15
122 -22 27 -80 16 -173 -32z"/>
</g>
</svg>
