<?xml version="1.0" standalone="no"?>
<!DOCTYPE svg PUBLIC "-//W3C//DTD SVG 20010904//EN"
 "http://www.w3.org/TR/2001/REC-SVG-20010904/DTD/svg10.dtd">
<svg version="1.0" xmlns="http://www.w3.org/2000/svg"
 width="248.000000pt" height="248.000000pt" viewBox="0 0 248.000000 248.000000"
 preserveAspectRatio="xMidYMid meet">
<metadata>
Created by potrace 1.10, written by Peter Selinger 2001-2011
</metadata>
<g transform="translate(0.000000,248.000000) scale(0.100000,-0.100000)"
fill="#000000" stroke="none">
<path d="M893 2212 c-85 -73 -193 -153 -306 -227 -67 -43 -87 -61 -87 -79 0
-26 28 -56 52 -56 35 0 338 213 438 309 41 39 51 76 28 99 -24 24 -58 12 -125
-46z"/>
<path d="M1120 1620 c-47 -10 -132 -28 -190 -40 -58 -11 -148 -30 -200 -41
-136 -28 -306 -57 -386 -65 -80 -7 -114 -25 -114 -58 0 -35 27 -51 82 -49 63
2 229 28 403 63 77 16 176 36 220 45 327 65 355 75 355 120 0 49 -33 54 -170
25z"/>
</g>
</svg>
