<?xml version="1.0" standalone="no"?>
<!DOCTYPE svg PUBLIC "-//W3C//DTD SVG 20010904//EN"
 "http://www.w3.org/TR/2001/REC-SVG-20010904/DTD/svg10.dtd">
<svg version="1.0" xmlns="http://www.w3.org/2000/svg"
 width="248.000000pt" height="248.000000pt" viewBox="0 0 248.000000 248.000000"
 preserveAspectRatio="xMidYMid meet">
<metadata>
Created by potrace 1.10, written by Peter Selinger 2001-2011
</metadata>
<g transform="translate(0.000000,248.000000) scale(0.100000,-0.100000)"
fill="#000000" stroke="none">
<path d="M893 2212 c-85 -73 -193 -153 -306 -227 -67 -43 -87 -61 -87 -79 0
-26 28 -56 52 -56 9 0 57 27 107 60 50 33 94 60 96 60 3 0 5 -96 5 -213 l0
-213 -62 -12 c-144 -28 -289 -52 -354 -58 -80 -7 -114 -25 -114 -58 0 -34 27
-51 76 -50 53 1 254 31 362 54 l82 18 0 -627 c0 -683 0 -676 55 -676 55 0 55
-8 55 687 l0 637 38 10 c20 6 57 13 82 16 94 13 276 58 293 73 21 19 22 55 1
73 -12 10 -28 11 -77 1 -225 -41 -285 -52 -305 -57 l-23 -6 2 242 1 242 46 41
c92 81 112 104 112 128 0 13 -5 29 -12 36 -24 24 -58 12 -125 -46z"/>
</g>
</svg>
