<?xml version="1.0" standalone="no"?>
<!DOCTYPE svg PUBLIC "-//W3C//DTD SVG 20010904//EN"
 "http://www.w3.org/TR/2001/REC-SVG-20010904/DTD/svg10.dtd">
<svg version="1.0" xmlns="http://www.w3.org/2000/svg"
 width="248.000000pt" height="248.000000pt" viewBox="0 0 248.000000 248.000000"
 preserveAspectRatio="xMidYMid meet">
<metadata>
Created by potrace 1.10, written by Peter Selinger 2001-2011
</metadata>
<g transform="translate(0.000000,248.000000) scale(0.100000,-0.100000)"
fill="#000000" stroke="none">
<path d="M893 2212 c-85 -73 -193 -153 -306 -227 -67 -43 -87 -61 -87 -79 0
-26 28 -56 52 -56 9 0 57 27 107 60 50 33 94 60 96 60 3 0 5 -96 5 -213 l0
-213 -62 -12 c-144 -28 -289 -52 -354 -58 -85 -8 -116 -25 -112 -62 5 -47 40
-55 160 -37 115 17 202 30 266 41 l43 7 -7 -28 c-4 -16 -24 -67 -44 -114 -21
-47 -56 -126 -77 -176 -22 -49 -56 -121 -76 -159 -20 -38 -37 -72 -37 -76 0
-15 -144 -269 -176 -309 -49 -63 -43 -111 14 -111 32 0 75 48 137 152 61 102
193 365 260 519 l50 114 5 -536 c5 -580 5 -573 59 -567 51 6 51 5 51 690 l0
637 38 10 c20 6 57 13 82 16 94 13 276 58 293 73 21 19 22 55 1 73 -12 10 -28
11 -77 1 -225 -41 -285 -52 -305 -57 l-23 -6 2 242 1 242 46 41 c92 81 112
104 112 128 0 13 -5 29 -12 36 -24 24 -58 12 -125 -46z"/>
</g>
</svg>
