<?xml version="1.0" standalone="no"?>
<!DOCTYPE svg PUBLIC "-//W3C//DTD SVG 20010904//EN"
 "http://www.w3.org/TR/2001/REC-SVG-20010904/DTD/svg10.dtd">
<svg version="1.0" xmlns="http://www.w3.org/2000/svg"
 width="248.000000pt" height="248.000000pt" viewBox="0 0 248.000000 248.000000"
 preserveAspectRatio="xMidYMid meet">
<metadata>
Created by potrace 1.10, written by Peter Selinger 2001-2011
</metadata>
<g transform="translate(0.000000,248.000000) scale(0.100000,-0.100000)"
fill="#000000" stroke="none">
<path d="M1576 2338 c-8 -13 -20 -57 -26 -99 l-12 -76 -82 -7 c-45 -3 -140
-15 -211 -26 -72 -11 -137 -20 -146 -20 -13 0 -17 15 -22 76 -6 85 -25 124
-61 124 -35 0 -49 -24 -47 -78 1 -26 3 -67 4 -92 l2 -45 -86 -5 c-93 -6 -119
-18 -119 -56 0 -43 39 -58 135 -51 l85 6 0 -57 c0 -70 17 -106 51 -110 41 -5
54 21 54 107 l0 76 60 8 c33 4 87 12 119 18 33 6 99 13 148 16 l88 6 0 -27 c0
-15 -7 -43 -15 -63 -18 -43 -19 -75 -3 -91 18 -18 53 -15 72 7 19 21 56 120
56 151 0 23 16 28 114 33 53 2 72 7 82 22 18 24 18 36 0 61 -12 16 -27 19 -95
19 -64 0 -80 3 -76 13 14 36 17 152 5 167 -19 22 -57 18 -74 -7z"/>
<path d="M1510 1789 c-95 -9 -256 -23 -465 -40 -84 -7 -149 -17 -162 -25 -31
-20 -30 -59 2 -80 23 -15 38 -15 192 0 93 9 251 23 353 32 102 8 196 21 210
27 15 8 26 22 28 38 6 49 -32 61 -158 48z"/>
</g>
</svg>
