<?xml version="1.0" standalone="no"?>
<!DOCTYPE svg PUBLIC "-//W3C//DTD SVG 20010904//EN"
 "http://www.w3.org/TR/2001/REC-SVG-20010904/DTD/svg10.dtd">
<svg version="1.0" xmlns="http://www.w3.org/2000/svg"
 width="248.000000pt" height="248.000000pt" viewBox="0 0 248.000000 248.000000"
 preserveAspectRatio="xMidYMid meet">
<metadata>
Created by potrace 1.10, written by Peter Selinger 2001-2011
</metadata>
<g transform="translate(0.000000,248.000000) scale(0.100000,-0.100000)"
fill="#000000" stroke="none">
<path d="M1183 2418 c-6 -7 -13 -72 -15 -144 -3 -72 -10 -140 -16 -151 -9 -17
-25 -21 -89 -27 -97 -8 -252 -30 -450 -61 -83 -14 -183 -25 -221 -25 -44 0
-73 -5 -80 -12 -5 -7 -17 -65 -27 -128 -9 -63 -20 -133 -25 -155 -11 -47 5
-89 35 -93 41 -6 53 18 77 153 26 145 23 142 121 144 27 1 99 10 160 20 209
36 438 62 802 92 167 14 588 17 699 5 l80 -8 -25 -19 c-13 -11 -78 -53 -144
-95 -66 -42 -132 -88 -147 -102 -42 -39 -33 -92 16 -92 25 0 268 155 374 238
95 76 109 103 69 138 -19 16 -46 24 -104 31 -101 10 -697 10 -876 0 l-137 -9
1 142 c0 96 -3 146 -12 156 -14 17 -53 18 -66 2z"/>
<path d="M1615 1835 c-5 -2 -125 -13 -265 -25 -350 -29 -657 -65 -675 -80 -18
-15 -20 -51 -3 -68 16 -16 86 -15 268 8 85 10 157 17 159 14 9 -8 -88 -121
-178 -206 -60 -57 -149 -126 -238 -185 -131 -86 -143 -97 -143 -124 0 -42 35
-57 81 -34 82 42 261 169 344 244 49 44 92 81 95 81 3 0 25 -20 49 -44 40 -41
42 -44 22 -51 -12 -3 -26 -16 -32 -27 -61 -114 -221 -263 -543 -508 -153 -117
-172 -140 -147 -179 21 -32 61 -13 213 102 258 194 415 333 496 437 39 51 72
97 72 102 0 22 19 3 38 -39 33 -73 46 -145 29 -155 -8 -4 -39 -38 -70 -75 -61
-75 -304 -301 -401 -374 -33 -25 -128 -92 -211 -149 -82 -57 -160 -112 -172
-123 -39 -35 -25 -87 24 -87 23 0 158 88 368 241 125 91 353 294 442 394 61
68 57 74 72 -105 17 -195 -16 -366 -101 -525 -30 -55 -96 -132 -118 -138 -11
-3 -47 8 -81 24 -66 31 -98 36 -117 17 -17 -17 -15 -53 6 -70 27 -25 157 -78
189 -78 69 0 158 91 228 235 70 142 89 231 90 415 0 85 -4 198 -8 249 l-9 95
40 -35 c21 -18 72 -61 112 -94 40 -33 113 -98 163 -144 150 -137 352 -269 588
-384 103 -50 149 -47 149 9 0 27 -5 31 -120 90 -259 132 -395 222 -524 343
-51 47 -147 131 -215 185 -67 55 -124 103 -127 107 -2 4 21 26 53 47 138 94
403 329 403 358 0 74 -95 51 -185 -46 -38 -41 -213 -185 -290 -239 -63 -44
-85 -51 -85 -24 0 43 -82 180 -150 252 -38 40 -70 75 -70 77 0 2 19 30 43 63
23 32 47 66 52 75 8 13 44 19 190 31 99 8 200 18 225 21 91 11 124 39 100 84
-9 16 -20 20 -63 19 -29 0 -56 -2 -62 -4z"/>
</g>
</svg>
