<?xml version="1.0" standalone="no"?>
<!DOCTYPE svg PUBLIC "-//W3C//DTD SVG 20010904//EN"
 "http://www.w3.org/TR/2001/REC-SVG-20010904/DTD/svg10.dtd">
<svg version="1.0" xmlns="http://www.w3.org/2000/svg"
 width="248.000000pt" height="248.000000pt" viewBox="0 0 248.000000 248.000000"
 preserveAspectRatio="xMidYMid meet">
<metadata>
Created by potrace 1.10, written by Peter Selinger 2001-2011
</metadata>
<g transform="translate(0.000000,248.000000) scale(0.100000,-0.100000)"
fill="#000000" stroke="none">
<path d="M1183 2418 c-6 -7 -13 -72 -15 -144 -3 -72 -10 -140 -16 -151 -9 -17
-25 -21 -89 -27 -97 -8 -252 -30 -450 -61 -83 -14 -183 -25 -221 -25 -44 0
-73 -5 -80 -12 -5 -7 -17 -65 -27 -128 -9 -63 -20 -133 -25 -155 -11 -47 5
-89 35 -93 41 -6 53 18 77 153 26 145 23 142 121 144 27 1 99 10 160 20 209
36 438 62 802 92 167 14 588 17 699 5 l80 -8 -25 -19 c-13 -11 -78 -53 -144
-95 -66 -42 -132 -88 -147 -102 -42 -39 -33 -92 16 -92 25 0 268 155 374 238
95 76 109 103 69 138 -19 16 -46 24 -104 31 -101 10 -697 10 -876 0 l-137 -9
1 142 c0 96 -3 146 -12 156 -14 17 -53 18 -66 2z"/>
</g>
</svg>
