<?xml version="1.0" standalone="no"?>
<!DOCTYPE svg PUBLIC "-//W3C//DTD SVG 20010904//EN"
 "http://www.w3.org/TR/2001/REC-SVG-20010904/DTD/svg10.dtd">
<svg version="1.0" xmlns="http://www.w3.org/2000/svg"
 width="248.000000pt" height="248.000000pt" viewBox="0 0 248.000000 248.000000"
 preserveAspectRatio="xMidYMid meet">
<metadata>
Created by potrace 1.10, written by Peter Selinger 2001-2011
</metadata>
<g transform="translate(0.000000,248.000000) scale(0.100000,-0.100000)"
fill="#000000" stroke="none">
<path d="M631 2206 c-6 -7 -36 -112 -67 -232 -30 -121 -78 -280 -106 -354 -60
-159 -69 -179 -97 -204 -26 -23 -27 -67 -3 -88 9 -8 51 -28 92 -43 92 -34 272
-131 360 -195 36 -26 81 -56 101 -68 19 -12 44 -30 54 -42 18 -20 60 -26 81
-12 43 28 9 91 -75 139 -25 14 -69 44 -98 65 -69 52 -263 162 -336 191 -63 24
-62 20 -28 102 67 165 95 252 145 444 57 217 66 277 44 299 -16 16 -53 15 -67
-2z"/>
</g>
</svg>
