<?xml version="1.0" standalone="no"?>
<!DOCTYPE svg PUBLIC "-//W3C//DTD SVG 20010904//EN"
 "http://www.w3.org/TR/2001/REC-SVG-20010904/DTD/svg10.dtd">
<svg version="1.0" xmlns="http://www.w3.org/2000/svg"
 width="248.000000pt" height="248.000000pt" viewBox="0 0 248.000000 248.000000"
 preserveAspectRatio="xMidYMid meet">
<metadata>
Created by potrace 1.10, written by Peter Selinger 2001-2011
</metadata>
<g transform="translate(0.000000,248.000000) scale(0.100000,-0.100000)"
fill="#000000" stroke="none">
<path d="M631 2206 c-6 -7 -36 -112 -67 -232 -32 -129 -61 -224 -70 -231 -9
-6 -82 -27 -164 -47 -210 -50 -272 -83 -255 -136 13 -39 42 -44 104 -16 42 18
250 76 276 76 11 0 -69 -178 -90 -200 -29 -30 -32 -70 -7 -92 9 -9 50 -27 90
-42 73 -26 132 -53 132 -61 0 -2 -45 -33 -100 -70 -78 -51 -100 -70 -100 -88
0 -30 18 -47 50 -47 31 0 137 61 197 114 41 36 45 38 75 25 17 -7 56 -31 87
-54 31 -23 81 -57 111 -76 30 -20 61 -43 69 -52 14 -17 57 -22 77 -9 6 4 14
17 18 29 9 29 -30 72 -115 126 -37 23 -96 62 -132 86 l-65 44 40 50 c54 69
102 166 160 326 27 74 53 140 59 147 5 6 24 15 42 18 71 13 99 63 58 100 -19
17 -28 16 -223 -43 -112 -33 -218 -64 -237 -67 -32 -7 -33 -6 -26 17 27 85 85
329 85 359 0 20 -5 41 -12 48 -16 16 -53 15 -67 -2z m244 -483 c-3 -10 -16
-45 -27 -78 -36 -108 -114 -258 -155 -298 l-39 -37 -76 35 c-42 19 -82 35 -89
35 -13 0 -10 12 21 90 13 30 34 83 47 118 14 34 30 65 36 69 10 6 259 79 281
82 4 0 5 -7 1 -16z"/>
</g>
</svg>
