<?xml version="1.0" standalone="no"?>
<!DOCTYPE svg PUBLIC "-//W3C//DTD SVG 20010904//EN"
 "http://www.w3.org/TR/2001/REC-SVG-20010904/DTD/svg10.dtd">
<svg version="1.0" xmlns="http://www.w3.org/2000/svg"
 width="248.000000pt" height="248.000000pt" viewBox="0 0 248.000000 248.000000"
 preserveAspectRatio="xMidYMid meet">
<metadata>
Created by potrace 1.10, written by Peter Selinger 2001-2011
</metadata>
<g transform="translate(0.000000,248.000000) scale(0.100000,-0.100000)"
fill="#000000" stroke="none">
<path d="M631 2206 c-6 -7 -36 -112 -67 -232 -30 -121 -78 -280 -106 -354 -60
-159 -69 -179 -97 -204 -26 -23 -27 -67 -3 -88 9 -9 50 -27 90 -42 73 -26 132
-53 132 -61 0 -2 -45 -33 -100 -70 -78 -51 -100 -70 -100 -88 0 -30 18 -47 50
-47 31 0 137 61 197 114 41 36 45 38 75 25 17 -7 56 -31 87 -54 31 -23 81 -57
111 -76 30 -20 61 -43 69 -52 14 -17 57 -22 77 -9 6 4 14 17 18 29 9 29 -30
72 -115 126 -37 23 -96 62 -132 86 l-65 44 40 50 c54 69 102 166 160 326 62
172 63 231 2 231 -31 0 -37 -11 -84 -150 -56 -167 -128 -315 -177 -363 l-39
-37 -76 35 c-42 19 -82 35 -89 35 -13 0 -10 13 20 85 67 165 95 252 145 444
57 217 66 277 44 299 -16 16 -53 15 -67 -2z"/>
</g>
</svg>
