<?xml version="1.0" standalone="no"?>
<!DOCTYPE svg PUBLIC "-//W3C//DTD SVG 20010904//EN"
 "http://www.w3.org/TR/2001/REC-SVG-20010904/DTD/svg10.dtd">
<svg version="1.0" xmlns="http://www.w3.org/2000/svg"
 width="248.000000pt" height="248.000000pt" viewBox="0 0 248.000000 248.000000"
 preserveAspectRatio="xMidYMid meet">
<metadata>
Created by potrace 1.10, written by Peter Selinger 2001-2011
</metadata>
<g transform="translate(0.000000,248.000000) scale(0.100000,-0.100000)"
fill="#000000" stroke="none">
<path d="M432 2268 c-30 -30 -13 -62 86 -161 96 -96 124 -111 150 -85 7 7 12
25 12 41 0 24 -18 47 -95 123 -95 94 -125 110 -153 82z"/>
<path d="M72 1698 c-26 -26 -12 -55 51 -110 34 -30 89 -72 122 -93 33 -21 77
-54 98 -72 20 -18 45 -33 55 -33 22 0 52 30 52 51 0 22 -60 82 -125 125 -33
21 -89 62 -124 91 -66 54 -104 66 -129 41z"/>
</g>
</svg>
