<?xml version="1.0" standalone="no"?>
<!DOCTYPE svg PUBLIC "-//W3C//DTD SVG 20010904//EN"
 "http://www.w3.org/TR/2001/REC-SVG-20010904/DTD/svg10.dtd">
<svg version="1.0" xmlns="http://www.w3.org/2000/svg"
 width="248.000000pt" height="248.000000pt" viewBox="0 0 248.000000 248.000000"
 preserveAspectRatio="xMidYMid meet">
<metadata>
Created by potrace 1.10, written by Peter Selinger 2001-2011
</metadata>
<g transform="translate(0.000000,248.000000) scale(0.100000,-0.100000)"
fill="#000000" stroke="none">
<path d="M432 2268 c-30 -30 -13 -62 86 -161 96 -96 124 -111 150 -85 7 7 12
25 12 41 0 24 -18 47 -95 123 -95 94 -125 110 -153 82z"/>
<path d="M1445 2177 c-11 -18 -17 -76 -25 -243 -5 -120 -13 -248 -16 -285 l-6
-65 -127 -38 c-104 -31 -199 -62 -288 -94 -9 -3 -13 10 -13 45 0 61 -22 95
-58 91 -36 -4 -52 -39 -52 -114 l0 -61 -47 -13 c-66 -18 -93 -36 -93 -64 0
-38 23 -50 85 -42 l55 6 0 -80 c0 -44 -5 -147 -11 -229 -11 -150 -4 -266 21
-353 36 -125 193 -216 437 -255 139 -22 490 -21 648 1 66 10 158 21 205 27
206 23 205 22 205 225 0 142 -2 157 -19 170 -25 18 -37 18 -62 0 -17 -13 -19
-29 -22 -145 -3 -125 -5 -131 -25 -135 -12 -2 -103 -15 -202 -28 -151 -19
-220 -23 -430 -22 -279 2 -349 11 -484 65 -93 36 -145 86 -158 148 -10 50 -10
251 1 468 l9 182 101 35 c128 43 300 96 316 96 8 0 10 -8 7 -22 -3 -13 -11
-118 -18 -234 -13 -235 -8 -266 42 -272 48 -6 52 12 66 271 8 133 17 254 21
270 7 27 15 32 92 54 47 13 126 38 175 55 86 29 187 57 212 58 14 0 11 -13
-33 -155 -18 -60 -61 -209 -94 -330 -54 -196 -112 -355 -129 -355 -3 0 -23 27
-44 60 -40 63 -70 80 -106 60 -32 -16 -26 -48 24 -125 73 -112 149 -147 194
-89 51 65 103 203 166 439 14 55 46 165 70 245 76 249 89 325 64 356 -15 18
-82 18 -134 -1 -22 -8 -47 -15 -56 -15 -8 0 -89 -24 -180 -53 -90 -30 -177
-57 -193 -61 l-28 -7 6 73 c4 40 11 161 16 268 7 164 6 199 -6 218 -19 29 -59
29 -79 -1z"/>
<path d="M72 1698 c-26 -26 -12 -55 51 -110 34 -30 89 -72 122 -93 33 -21 77
-54 98 -72 20 -18 45 -33 55 -33 22 0 52 30 52 51 0 22 -60 82 -125 125 -33
21 -89 62 -124 91 -66 54 -104 66 -129 41z"/>
<path d="M519 868 c-42 -46 -156 -246 -295 -518 -48 -93 -44 -150 11 -150 27
0 47 23 69 79 10 25 26 57 37 72 10 15 32 56 48 91 16 36 61 117 100 182 117
193 127 219 95 250 -21 22 -41 20 -65 -6z"/>
</g>
</svg>
