<?xml version="1.0" standalone="no"?>
<!DOCTYPE svg PUBLIC "-//W3C//DTD SVG 20010904//EN"
 "http://www.w3.org/TR/2001/REC-SVG-20010904/DTD/svg10.dtd">
<svg version="1.0" xmlns="http://www.w3.org/2000/svg"
 width="248.000000pt" height="248.000000pt" viewBox="0 0 248.000000 248.000000"
 preserveAspectRatio="xMidYMid meet">
<metadata>
Created by potrace 1.10, written by Peter Selinger 2001-2011
</metadata>
<g transform="translate(0.000000,248.000000) scale(0.100000,-0.100000)"
fill="#000000" stroke="none">
<path d="M751 2427 c-6 -8 -11 -48 -12 -91 -1 -60 -5 -78 -18 -85 -9 -5 -70
-12 -136 -16 -66 -4 -126 -12 -132 -17 -17 -14 -16 -53 1 -68 11 -8 54 -11
146 -8 l130 3 0 -62 c0 -70 -15 -93 -60 -93 -46 0 -353 -60 -367 -72 -18 -14
-16 -53 2 -68 19 -16 84 -10 275 23 146 25 401 61 519 74 88 9 125 47 85 87
-19 19 -36 19 -189 1 -176 -21 -165 -24 -165 33 0 70 9 91 39 98 14 3 58 13
96 23 39 11 96 24 127 31 75 15 103 37 94 74 -10 39 -46 50 -104 31 -56 -17
-199 -54 -227 -57 -18 -3 -20 3 -22 70 -1 40 -7 80 -14 88 -15 18 -53 18 -68
1z"/>
</g>
</svg>
