<?xml version="1.0" standalone="no"?>
<!DOCTYPE svg PUBLIC "-//W3C//DTD SVG 20010904//EN"
 "http://www.w3.org/TR/2001/REC-SVG-20010904/DTD/svg10.dtd">
<svg version="1.0" xmlns="http://www.w3.org/2000/svg"
 width="248.000000pt" height="248.000000pt" viewBox="0 0 248.000000 248.000000"
 preserveAspectRatio="xMidYMid meet">
<metadata>
Created by potrace 1.10, written by Peter Selinger 2001-2011
</metadata>
<g transform="translate(0.000000,248.000000) scale(0.100000,-0.100000)"
fill="#000000" stroke="none">
<path d="M751 2427 c-6 -8 -11 -48 -12 -91 -1 -60 -5 -78 -18 -85 -9 -5 -70
-12 -136 -16 -66 -4 -126 -12 -132 -17 -17 -14 -16 -53 1 -68 11 -8 54 -11
147 -8 l132 3 -6 -89 c-7 -103 1 -126 43 -126 40 0 51 24 60 132 7 92 15 108
53 108 11 0 49 9 85 19 37 10 93 24 124 31 75 15 103 37 94 74 -10 39 -46 50
-104 31 -56 -17 -199 -54 -227 -57 -18 -3 -20 3 -22 70 -1 40 -7 80 -14 88
-15 18 -53 18 -68 1z"/>
</g>
</svg>
