<?xml version="1.0" standalone="no"?>
<!DOCTYPE svg PUBLIC "-//W3C//DTD SVG 20010904//EN"
 "http://www.w3.org/TR/2001/REC-SVG-20010904/DTD/svg10.dtd">
<svg version="1.0" xmlns="http://www.w3.org/2000/svg"
 width="248.000000pt" height="248.000000pt" viewBox="0 0 248.000000 248.000000"
 preserveAspectRatio="xMidYMid meet">
<metadata>
Created by potrace 1.10, written by Peter Selinger 2001-2011
</metadata>
<g transform="translate(0.000000,248.000000) scale(0.100000,-0.100000)"
fill="#000000" stroke="none">
<path d="M1080 2325 c-37 -13 -137 -39 -235 -61 -33 -7 -130 -18 -215 -24 -85
-7 -162 -15 -170 -19 -20 -11 -25 -48 -8 -68 11 -14 34 -15 173 -10 139 5 299
26 325 42 5 3 50 14 101 25 101 22 139 41 139 68 0 47 -51 69 -110 47z"/>
</g>
</svg>
