<?xml version="1.0" standalone="no"?>
<!DOCTYPE svg PUBLIC "-//W3C//DTD SVG 20010904//EN"
 "http://www.w3.org/TR/2001/REC-SVG-20010904/DTD/svg10.dtd">
<svg version="1.0" xmlns="http://www.w3.org/2000/svg"
 width="248.000000pt" height="248.000000pt" viewBox="0 0 248.000000 248.000000"
 preserveAspectRatio="xMidYMid meet">
<metadata>
Created by potrace 1.10, written by Peter Selinger 2001-2011
</metadata>
<g transform="translate(0.000000,248.000000) scale(0.100000,-0.100000)"
fill="#000000" stroke="none">
<path d="M1728 2343 c-8 -10 -23 -31 -33 -48 -10 -16 -58 -78 -106 -136 -137
-165 -199 -251 -199 -273 0 -14 26 -45 72 -86 103 -93 118 -108 118 -118 0 -9
-143 -216 -206 -299 -39 -51 -43 -82 -14 -108 23 -21 23 -21 200 35 170 53
315 107 358 132 l32 20 66 -56 c69 -58 92 -67 118 -40 29 29 18 54 -57 128
-40 39 -90 95 -112 123 -22 29 -51 56 -64 59 -57 16 -80 -46 -36 -98 l27 -32
-29 -14 c-76 -41 -333 -127 -333 -113 0 3 17 29 38 56 21 28 59 82 84 120 26
39 85 123 132 188 84 116 99 150 74 175 -34 34 -77 2 -158 -115 -24 -35 -45
-63 -48 -63 -12 0 -114 85 -123 102 -9 16 -1 33 48 96 32 42 89 112 126 155
97 113 128 182 95 215 -17 17 -53 15 -70 -5z"/>
<path d="M810 2254 c-41 -42 -100 -97 -130 -122 -60 -50 -199 -181 -267 -251
-67 -69 -63 -80 67 -191 61 -51 110 -98 110 -104 0 -6 -18 -34 -39 -62 -21
-28 -65 -89 -97 -135 -32 -46 -73 -103 -91 -127 -36 -48 -42 -82 -16 -107 27
-28 127 -5 418 94 17 6 58 19 93 30 l63 20 71 -70 c57 -56 74 -68 92 -63 46
14 48 56 5 110 -17 22 -41 48 -55 59 -13 11 -57 61 -97 110 -74 91 -103 109
-133 85 -21 -19 -17 -57 11 -94 14 -18 25 -37 25 -42 0 -12 -317 -120 -326
-111 -4 3 16 36 42 73 27 36 72 99 99 138 47 69 183 244 214 276 31 32 81 120
81 143 0 52 -54 63 -95 20 -14 -15 -25 -32 -25 -38 0 -6 -28 -44 -62 -85 -35
-41 -73 -88 -85 -104 -22 -27 -24 -28 -45 -13 -13 9 -50 41 -83 71 l-59 54
104 99 c58 55 132 122 165 150 96 80 185 182 185 212 0 15 -5 32 -12 39 -26
26 -54 11 -128 -64z"/>
<path d="M1925 1209 c-49 -10 -142 -26 -205 -34 -63 -9 -144 -23 -180 -32 -36
-8 -101 -21 -145 -28 -44 -7 -188 -31 -320 -54 -132 -22 -303 -49 -380 -61
-352 -50 -375 -57 -375 -104 0 -40 22 -49 103 -41 39 3 104 13 142 20 110 21
145 25 145 14 0 -22 -44 -137 -85 -224 -70 -147 -216 -347 -344 -470 -47 -45
-55 -87 -21 -105 42 -22 88 12 204 149 163 194 268 376 331 576 l32 100 79 12
c169 26 434 72 619 108 66 13 156 28 200 35 140 21 335 59 355 70 19 10 25 28
20 60 -5 35 -42 37 -175 9z"/>
</g>
</svg>
