<?xml version="1.0" standalone="no"?>
<!DOCTYPE svg PUBLIC "-//W3C//DTD SVG 20010904//EN"
 "http://www.w3.org/TR/2001/REC-SVG-20010904/DTD/svg10.dtd">
<svg version="1.0" xmlns="http://www.w3.org/2000/svg"
 width="248.000000pt" height="248.000000pt" viewBox="0 0 248.000000 248.000000"
 preserveAspectRatio="xMidYMid meet">
<metadata>
Created by potrace 1.10, written by Peter Selinger 2001-2011
</metadata>
<g transform="translate(0.000000,248.000000) scale(0.100000,-0.100000)"
fill="#000000" stroke="none">
<path d="M810 2254 c-41 -42 -100 -97 -130 -122 -60 -50 -199 -181 -267 -251
-67 -69 -63 -80 68 -192 148 -125 163 -133 193 -103 33 33 20 58 -79 144 -52
46 -95 86 -95 89 1 3 60 60 132 126 233 212 318 301 318 333 0 15 -5 33 -12
40 -26 26 -54 11 -128 -64z"/>
</g>
</svg>
