<?xml version="1.0" standalone="no"?>
<!DOCTYPE svg PUBLIC "-//W3C//DTD SVG 20010904//EN"
 "http://www.w3.org/TR/2001/REC-SVG-20010904/DTD/svg10.dtd">
<svg version="1.0" xmlns="http://www.w3.org/2000/svg"
 width="248.000000pt" height="248.000000pt" viewBox="0 0 248.000000 248.000000"
 preserveAspectRatio="xMidYMid meet">
<metadata>
Created by potrace 1.10, written by Peter Selinger 2001-2011
</metadata>
<g transform="translate(0.000000,248.000000) scale(0.100000,-0.100000)"
fill="#000000" stroke="none">
<path d="M810 2254 c-41 -42 -100 -97 -130 -122 -60 -50 -199 -181 -267 -251
-67 -69 -63 -80 67 -191 61 -51 110 -98 110 -104 0 -6 -18 -34 -39 -62 -21
-28 -65 -89 -97 -135 -32 -46 -73 -103 -91 -127 -18 -24 -33 -54 -33 -67 0
-35 28 -58 64 -52 60 9 172 39 271 73 55 19 125 42 155 50 113 31 154 68 120
110 -21 25 -77 15 -251 -43 -93 -31 -172 -54 -175 -50 -4 3 16 36 42 73 27 36
72 99 99 138 47 69 183 244 214 276 31 32 81 120 81 143 0 52 -54 63 -95 20
-14 -15 -25 -32 -25 -38 0 -6 -28 -44 -62 -85 -35 -41 -73 -88 -85 -104 -22
-27 -24 -28 -45 -13 -13 9 -50 41 -83 71 l-59 54 104 99 c58 55 132 122 165
150 96 80 185 182 185 212 0 15 -5 32 -12 39 -26 26 -54 11 -128 -64z"/>
</g>
</svg>
