<?xml version="1.0" standalone="no"?>
<!DOCTYPE svg PUBLIC "-//W3C//DTD SVG 20010904//EN"
 "http://www.w3.org/TR/2001/REC-SVG-20010904/DTD/svg10.dtd">
<svg version="1.0" xmlns="http://www.w3.org/2000/svg"
 width="248.000000pt" height="248.000000pt" viewBox="0 0 248.000000 248.000000"
 preserveAspectRatio="xMidYMid meet">
<metadata>
Created by potrace 1.10, written by Peter Selinger 2001-2011
</metadata>
<g transform="translate(0.000000,248.000000) scale(0.100000,-0.100000)"
fill="#000000" stroke="none">
<path d="M936 2188 c-9 -12 -16 -32 -16 -44 0 -23 -54 -198 -70 -226 -17 -30
-11 -57 16 -74 24 -16 27 -16 52 3 21 15 36 47 65 134 41 122 49 187 28 213
-19 23 -57 20 -75 -6z"/>
<path d="M540 2116 c-7 -9 -10 -28 -7 -43 3 -16 13 -73 23 -128 21 -125 30
-145 63 -145 59 1 66 28 41 165 -11 65 -27 120 -38 135 -22 29 -63 37 -82 16z"/>
<path d="M213 2088 c-5 -7 -13 -21 -16 -30 -7 -20 82 -318 102 -342 17 -20 55
-21 71 -1 8 9 11 30 7 54 -6 45 -72 265 -90 301 -14 28 -58 39 -74 18z"/>
<path d="M102 1598 c-17 -17 -15 -45 14 -214 14 -82 30 -178 35 -214 31 -209
41 -240 83 -240 45 0 51 21 37 133 -24 201 -82 512 -98 530 -19 20 -54 22 -71
5z"/>
</g>
</svg>
