<?xml version="1.0" standalone="no"?>
<!DOCTYPE svg PUBLIC "-//W3C//DTD SVG 20010904//EN"
 "http://www.w3.org/TR/2001/REC-SVG-20010904/DTD/svg10.dtd">
<svg version="1.0" xmlns="http://www.w3.org/2000/svg"
 width="248.000000pt" height="248.000000pt" viewBox="0 0 248.000000 248.000000"
 preserveAspectRatio="xMidYMid meet">
<metadata>
Created by potrace 1.10, written by Peter Selinger 2001-2011
</metadata>
<g transform="translate(0.000000,248.000000) scale(0.100000,-0.100000)"
fill="#000000" stroke="none">
<path d="M936 2188 c-9 -12 -16 -32 -16 -44 0 -23 -54 -198 -70 -226 -17 -30
-11 -57 16 -74 24 -16 27 -16 52 3 21 15 36 47 65 134 41 122 49 187 28 213
-19 23 -57 20 -75 -6z"/>
<path d="M540 2116 c-7 -9 -10 -28 -7 -43 3 -16 13 -71 22 -123 9 -52 19 -104
21 -116 2 -11 15 -26 29 -32 23 -11 29 -9 50 13 30 29 29 17 5 150 -11 65 -27
120 -38 135 -22 29 -63 37 -82 16z"/>
<path d="M213 2088 c-5 -7 -13 -21 -16 -30 -7 -20 82 -318 102 -342 17 -20 55
-21 71 -1 8 9 11 30 7 54 -6 45 -72 265 -90 301 -14 28 -58 39 -74 18z"/>
<path d="M935 1813 c-105 -18 -257 -49 -335 -68 -52 -13 -115 -26 -140 -30
-25 -4 -90 -18 -145 -32 -55 -14 -120 -29 -144 -33 -53 -9 -81 -38 -81 -84 0
-18 12 -100 26 -182 14 -82 30 -178 35 -214 21 -145 33 -197 50 -232 27 -54
46 -61 121 -44 35 8 98 18 141 21 l77 7 0 -73 c0 -93 -6 -116 -33 -123 -12 -3
-96 -17 -187 -31 -243 -38 -258 -40 -274 -55 -24 -19 -20 -57 9 -76 24 -16 32
-15 133 4 59 12 143 26 187 32 44 5 98 13 119 15 l39 6 -7 -240 c-7 -273 -4
-294 46 -289 23 2 36 10 45 28 7 15 15 120 20 275 l8 250 75 11 c371 56 441
78 426 138 -9 35 -43 41 -123 22 -88 -20 -373 -69 -377 -65 -2 2 -1 47 1 100
l6 96 86 13 c126 18 204 38 224 59 12 12 22 43 27 87 5 38 17 123 26 189 22
163 24 439 4 479 -15 30 -48 45 -85 39z m-5 -222 c0 -61 -4 -112 -9 -116 -11
-6 -233 -56 -236 -53 -1 2 -6 56 -9 121 -6 94 -5 117 6 118 7 0 51 9 98 19 47
10 100 18 118 19 l32 1 0 -109z m-362 -108 l-3 -87 -50 -13 c-64 -17 -277 -54
-282 -50 -5 6 -33 168 -33 192 0 24 55 42 240 79 l115 24 8 -30 c4 -16 6 -68
5 -115z m348 -150 c-3 -16 -11 -68 -17 -118 -17 -131 -17 -131 -86 -138 -32
-4 -79 -10 -104 -13 l-45 -6 4 123 c2 68 5 125 7 127 4 4 209 51 228 51 15 1
18 -4 13 -26z m-363 -294 c-9 -9 -262 -43 -269 -36 -5 5 -36 219 -32 222 10 6
115 25 141 25 18 0 61 8 97 18 l65 19 3 -120 c1 -66 -1 -124 -5 -128z"/>
</g>
</svg>
