<?xml version="1.0" standalone="no"?>
<!DOCTYPE svg PUBLIC "-//W3C//DTD SVG 20010904//EN"
 "http://www.w3.org/TR/2001/REC-SVG-20010904/DTD/svg10.dtd">
<svg version="1.0" xmlns="http://www.w3.org/2000/svg"
 width="248.000000pt" height="248.000000pt" viewBox="0 0 248.000000 248.000000"
 preserveAspectRatio="xMidYMid meet">
<metadata>
Created by potrace 1.10, written by Peter Selinger 2001-2011
</metadata>
<g transform="translate(0.000000,248.000000) scale(0.100000,-0.100000)"
fill="#000000" stroke="none">
<path d="M936 2188 c-9 -12 -16 -32 -16 -44 0 -23 -54 -198 -70 -226 -17 -30
-11 -57 16 -74 24 -16 27 -16 52 3 21 15 36 47 65 134 41 122 49 187 28 213
-19 23 -57 20 -75 -6z"/>
<path d="M540 2116 c-7 -9 -10 -28 -7 -43 3 -16 13 -71 22 -123 9 -52 19 -104
21 -116 2 -11 15 -26 29 -32 23 -11 29 -9 50 13 30 29 29 17 5 150 -11 65 -27
120 -38 135 -22 29 -63 37 -82 16z"/>
<path d="M213 2088 c-5 -7 -13 -21 -16 -30 -7 -20 82 -318 102 -342 17 -20 55
-21 71 -1 8 9 11 30 7 54 -6 45 -72 265 -90 301 -14 28 -58 39 -74 18z"/>
<path d="M935 1813 c-105 -18 -257 -49 -335 -68 -52 -13 -115 -26 -140 -30
-25 -4 -90 -18 -145 -32 -55 -14 -120 -29 -144 -33 -53 -9 -81 -38 -81 -84 0
-18 12 -100 26 -182 14 -82 30 -178 35 -214 21 -145 33 -197 50 -232 27 -54
46 -61 121 -44 35 8 97 17 138 21 41 4 102 13 135 20 33 7 98 18 145 25 126
18 203 39 223 59 12 12 22 43 27 87 5 38 17 123 26 189 22 163 24 439 4 479
-15 30 -48 45 -85 39z m-5 -222 c0 -61 -4 -112 -9 -115 -5 -3 -71 -19 -147
-36 -77 -17 -188 -41 -249 -55 -137 -31 -286 -57 -291 -52 -6 5 -34 166 -34
192 0 24 48 40 263 84 81 17 184 40 230 51 119 28 168 38 205 39 l32 1 0 -109z
m-14 -258 c-3 -16 -11 -68 -17 -118 -17 -131 -17 -131 -86 -138 -32 -3 -94
-13 -138 -22 -105 -20 -385 -58 -391 -53 -5 5 -36 220 -32 223 9 6 114 25 136
25 15 0 83 13 152 30 169 41 341 78 363 79 15 1 18 -4 13 -26z"/>
</g>
</svg>
