<?xml version="1.0" standalone="no"?>
<!DOCTYPE svg PUBLIC "-//W3C//DTD SVG 20010904//EN"
 "http://www.w3.org/TR/2001/REC-SVG-20010904/DTD/svg10.dtd">
<svg version="1.0" xmlns="http://www.w3.org/2000/svg"
 width="248.000000pt" height="248.000000pt" viewBox="0 0 248.000000 248.000000"
 preserveAspectRatio="xMidYMid meet">
<metadata>
Created by potrace 1.10, written by Peter Selinger 2001-2011
</metadata>
<g transform="translate(0.000000,248.000000) scale(0.100000,-0.100000)"
fill="#000000" stroke="none">
<path d="M936 2188 c-9 -12 -16 -32 -16 -44 0 -23 -54 -198 -70 -226 -17 -30
-11 -57 16 -74 24 -16 27 -16 52 3 21 15 36 47 65 134 41 122 49 187 28 213
-19 23 -57 20 -75 -6z"/>
<path d="M540 2116 c-7 -9 -10 -28 -7 -43 3 -16 13 -71 22 -123 9 -52 19 -104
21 -116 2 -11 15 -26 29 -32 23 -11 29 -9 50 13 30 29 29 17 5 150 -11 65 -27
120 -38 135 -22 29 -63 37 -82 16z"/>
<path d="M213 2088 c-5 -7 -13 -21 -16 -30 -7 -20 82 -318 102 -342 17 -20 55
-21 71 -1 8 9 11 30 7 54 -6 45 -72 265 -90 301 -14 28 -58 39 -74 18z"/>
<path d="M935 1813 c-105 -18 -257 -49 -335 -68 -52 -13 -115 -26 -140 -30
-25 -4 -90 -18 -145 -32 -55 -14 -120 -29 -144 -33 -53 -9 -81 -38 -81 -84 0
-18 12 -100 26 -182 14 -82 30 -178 35 -214 31 -209 41 -240 83 -240 45 0 51
21 37 133 -6 56 -25 178 -42 272 -16 93 -29 179 -29 190 0 24 47 40 265 85 83
17 175 37 206 45 77 20 209 45 238 45 l24 0 -6 -163 c-3 -89 -15 -233 -28
-319 -20 -148 -21 -159 -5 -183 18 -28 57 -33 76 -10 6 8 16 45 20 82 5 37 17
122 26 188 22 163 24 439 4 479 -15 30 -48 45 -85 39z"/>
</g>
</svg>
