<?xml version="1.0" standalone="no"?>
<!DOCTYPE svg PUBLIC "-//W3C//DTD SVG 20010904//EN"
 "http://www.w3.org/TR/2001/REC-SVG-20010904/DTD/svg10.dtd">
<svg version="1.0" xmlns="http://www.w3.org/2000/svg"
 width="248.000000pt" height="248.000000pt" viewBox="0 0 248.000000 248.000000"
 preserveAspectRatio="xMidYMid meet">
<metadata>
Created by potrace 1.10, written by Peter Selinger 2001-2011
</metadata>
<g transform="translate(0.000000,248.000000) scale(0.100000,-0.100000)"
fill="#000000" stroke="none">
<path d="M1197 2332 c-9 -10 -24 -35 -32 -56 -29 -69 -272 -433 -366 -549
-120 -146 -343 -373 -444 -450 -44 -34 -107 -76 -140 -93 -52 -27 -60 -36 -63
-63 -5 -45 31 -60 90 -36 128 51 405 298 599 535 127 155 131 159 264 365 166
256 196 320 163 353 -18 18 -52 15 -71 -6z"/>
</g>
</svg>
