<?xml version="1.0" standalone="no"?>
<!DOCTYPE svg PUBLIC "-//W3C//DTD SVG 20010904//EN"
 "http://www.w3.org/TR/2001/REC-SVG-20010904/DTD/svg10.dtd">
<svg version="1.0" xmlns="http://www.w3.org/2000/svg"
 width="248.000000pt" height="248.000000pt" viewBox="0 0 248.000000 248.000000"
 preserveAspectRatio="xMidYMid meet">
<metadata>
Created by potrace 1.10, written by Peter Selinger 2001-2011
</metadata>
<g transform="translate(0.000000,248.000000) scale(0.100000,-0.100000)"
fill="#000000" stroke="none">
<path d="M1613 2334 c-14 -22 -19 -67 -28 -243 l-10 -215 -35 -7 c-19 -4 -100
-15 -180 -24 -80 -10 -151 -22 -157 -27 -16 -13 -17 -50 -1 -66 18 -18 192
-11 336 13 l32 6 0 -183 c0 -101 -4 -188 -8 -194 -4 -7 -100 -23 -217 -38
-230 -29 -278 -44 -283 -87 -6 -49 16 -54 136 -35 59 9 148 21 197 26 50 6
100 12 113 15 12 3 22 2 22 -2 0 -16 -81 -216 -116 -285 -75 -151 -219 -319
-377 -440 -22 -17 -37 -38 -39 -54 -3 -27 -5 -25 -103 51 -55 44 -134 101
-175 128 -41 28 -76 51 -78 52 -1 1 26 58 61 126 73 144 119 264 179 473 47
165 36 152 155 186 62 18 74 25 79 47 8 31 -6 57 -33 61 -11 2 -72 -11 -134
-29 -201 -56 -430 -111 -436 -106 -3 4 9 80 27 169 38 195 49 311 30 333 -15
18 -54 20 -68 2 -6 -7 -18 -62 -27 -122 -22 -147 -74 -398 -86 -410 -9 -9 -27
-15 -199 -60 -58 -15 -115 -34 -128 -41 -24 -16 -29 -53 -10 -72 18 -18 47
-15 179 19 66 17 122 30 124 28 5 -6 -102 -375 -119 -408 -17 -33 -20 -69 -8
-88 5 -7 29 -17 54 -21 43 -8 200 -92 214 -113 15 -25 -200 -271 -306 -350
-32 -24 -34 -28 -25 -55 8 -22 18 -30 41 -32 58 -6 214 138 337 311 23 31 46
57 52 57 14 0 129 -81 288 -203 113 -86 141 -99 165 -75 15 15 16 64 2 73 -15
10 -12 25 6 25 8 0 34 13 57 29 130 89 306 297 392 461 31 61 45 80 50 68 5
-13 0 -717 -6 -827 -1 -24 23 -51 46 -51 6 0 20 6 31 14 18 14 19 34 24 468 3
296 8 452 15 449 6 -2 39 -41 75 -85 96 -120 374 -395 460 -455 115 -81 168
-105 197 -92 19 9 24 17 21 43 -3 27 -14 38 -87 83 -132 82 -391 328 -519 494
-170 222 -176 234 -119 245 27 5 250 22 542 42 87 6 105 15 105 49 0 34 -20
45 -91 46 -64 1 -354 -16 -501 -30 -64 -6 -78 -4 -83 8 -9 22 7 361 16 367 5
3 64 12 131 20 223 26 366 50 382 63 24 20 20 58 -10 77 -21 15 -33 15 -77 6
-74 -16 -230 -39 -312 -47 -38 -3 -80 -8 -92 -11 -23 -4 -23 -4 -23 120 0 69
5 170 11 225 9 80 9 104 -1 116 -20 24 -57 18 -77 -11z m-807 -909 c-3 -9 -13
-41 -22 -73 -57 -204 -104 -326 -176 -462 -27 -52 -51 -96 -53 -98 -2 -2 -36
17 -77 41 -40 24 -87 52 -105 61 -28 14 -31 20 -24 39 5 12 34 112 66 222 32
110 59 202 61 204 5 6 296 79 318 80 12 1 16 -4 12 -14z"/>
</g>
</svg>
