<?xml version="1.0" standalone="no"?>
<!DOCTYPE svg PUBLIC "-//W3C//DTD SVG 20010904//EN"
 "http://www.w3.org/TR/2001/REC-SVG-20010904/DTD/svg10.dtd">
<svg version="1.0" xmlns="http://www.w3.org/2000/svg"
 width="248.000000pt" height="248.000000pt" viewBox="0 0 248.000000 248.000000"
 preserveAspectRatio="xMidYMid meet">
<metadata>
Created by potrace 1.10, written by Peter Selinger 2001-2011
</metadata>
<g transform="translate(0.000000,248.000000) scale(0.100000,-0.100000)"
fill="#000000" stroke="none">
<path d="M1970 2189 c-142 -14 -467 -40 -610 -49 -292 -19 -448 -31 -525 -40
-44 -6 -162 -14 -262 -18 -146 -6 -186 -11 -199 -23 -14 -14 -17 -122 -26
-935 -5 -505 -10 -928 -9 -939 0 -11 9 -27 20 -36 29 -24 235 -28 1094 -20
704 6 749 7 762 24 21 29 27 362 21 1107 -9 868 -10 898 -30 918 -19 20 -110
24 -236 11z m145 -156 c9 -83 18 -1590 10 -1699 l-7 -91 -758 -6 c-417 -3
-792 -3 -834 0 l-76 6 5 671 c3 369 8 757 11 862 l6 191 132 7 c72 4 163 12
201 17 73 10 252 24 515 39 85 5 218 16 295 24 77 9 176 16 220 17 44 0 103 4
130 9 28 4 71 8 97 9 l46 1 7 -57z"/>
<path d="M1231 1867 c-6 -8 -12 -85 -15 -198 -4 -171 -17 -299 -35 -327 -4 -6
-49 -18 -101 -26 -52 -8 -129 -20 -170 -26 -101 -16 -125 -28 -125 -65 0 -23
7 -33 28 -43 25 -12 44 -11 140 7 197 36 207 36 207 13 0 -45 -86 -275 -152
-407 -34 -68 -153 -226 -232 -308 -76 -78 -90 -109 -64 -135 27 -27 60 -12
135 61 162 157 297 382 374 625 13 39 25 72 28 72 4 -1 40 -47 81 -103 41 -56
91 -120 110 -142 20 -22 49 -60 65 -84 32 -48 143 -176 221 -256 50 -51 183
-135 214 -135 20 0 50 31 50 52 0 19 -32 47 -105 91 -76 45 -222 200 -305 322
-18 28 -49 68 -69 91 -20 23 -65 80 -101 128 -36 48 -77 103 -93 123 -15 20
-25 39 -22 42 6 5 112 20 305 41 58 6 120 14 137 16 59 9 69 75 15 95 -29 11
-103 6 -242 -16 -47 -7 -114 -16 -149 -20 l-63 -6 5 43 c3 24 11 111 18 195
12 155 5 247 -22 279 -15 18 -53 18 -68 1z"/>
</g>
</svg>
