<?xml version="1.0" standalone="no"?>
<!DOCTYPE svg PUBLIC "-//W3C//DTD SVG 20010904//EN"
 "http://www.w3.org/TR/2001/REC-SVG-20010904/DTD/svg10.dtd">
<svg version="1.0" xmlns="http://www.w3.org/2000/svg"
 width="248.000000pt" height="248.000000pt" viewBox="0 0 248.000000 248.000000"
 preserveAspectRatio="xMidYMid meet">
<metadata>
Created by potrace 1.10, written by Peter Selinger 2001-2011
</metadata>
<g transform="translate(0.000000,248.000000) scale(0.100000,-0.100000)"
fill="#000000" stroke="none">
<path d="M1970 2189 c-142 -14 -467 -40 -610 -49 -292 -19 -448 -31 -525 -40
-44 -6 -162 -14 -262 -18 -146 -6 -186 -11 -199 -23 -14 -14 -17 -122 -26
-935 -5 -505 -10 -927 -10 -937 2 -51 61 -64 89 -20 16 24 19 63 25 303 3 151
7 486 7 745 1 259 4 533 8 611 l6 141 116 6 c64 4 184 13 266 22 244 24 396
35 467 35 36 0 125 7 197 15 72 9 204 20 294 25 89 6 192 13 228 16 l66 7 8
-64 c4 -35 9 -464 11 -952 2 -687 5 -892 15 -903 20 -24 62 -13 79 21 13 26
15 137 15 830 0 881 -7 1131 -30 1155 -18 17 -113 21 -235 9z"/>
<path d="M1650 1395 c-8 -2 -69 -10 -135 -19 -66 -9 -214 -30 -330 -46 -402
-57 -400 -57 -400 -105 0 -23 7 -33 29 -43 24 -12 40 -12 110 2 148 29 424 68
676 96 162 18 169 19 180 41 30 54 -36 92 -130 74z"/>
</g>
</svg>
