<?xml version="1.0" standalone="no"?>
<!DOCTYPE svg PUBLIC "-//W3C//DTD SVG 20010904//EN"
 "http://www.w3.org/TR/2001/REC-SVG-20010904/DTD/svg10.dtd">
<svg version="1.0" xmlns="http://www.w3.org/2000/svg"
 width="248.000000pt" height="248.000000pt" viewBox="0 0 248.000000 248.000000"
 preserveAspectRatio="xMidYMid meet">
<metadata>
Created by potrace 1.10, written by Peter Selinger 2001-2011
</metadata>
<g transform="translate(0.000000,248.000000) scale(0.100000,-0.100000)"
fill="#000000" stroke="none">
<path d="M920 2069 c-404 -24 -484 -30 -497 -40 -18 -15 -17 -54 3 -69 14 -13
242 -6 581 17 l81 5 -23 -78 c-116 -389 -113 -377 -95 -399 7 -8 22 -15 35
-15 43 0 59 34 126 270 64 226 76 285 60 304 -15 18 -53 18 -271 5z"/>
</g>
</svg>
