<?xml version="1.0" standalone="no"?>
<!DOCTYPE svg PUBLIC "-//W3C//DTD SVG 20010904//EN"
 "http://www.w3.org/TR/2001/REC-SVG-20010904/DTD/svg10.dtd">
<svg version="1.0" xmlns="http://www.w3.org/2000/svg"
 width="248.000000pt" height="248.000000pt" viewBox="0 0 248.000000 248.000000"
 preserveAspectRatio="xMidYMid meet">
<metadata>
Created by potrace 1.10, written by Peter Selinger 2001-2011
</metadata>
<g transform="translate(0.000000,248.000000) scale(0.100000,-0.100000)"
fill="#000000" stroke="none">
<path d="M1869 2124 c-10 -12 -13 -215 -17 -1014 l-4 -998 22 -12 c16 -9 29
-9 45 -2 l22 10 7 944 c4 518 8 971 9 1006 1 46 -2 65 -13 72 -23 15 -56 12
-71 -6z"/>
<path d="M920 2069 c-404 -24 -484 -30 -497 -40 -18 -15 -17 -54 3 -69 14 -13
242 -6 582 17 l82 6 -14 -39 c-7 -22 -30 -102 -51 -179 -56 -209 -36 -190
-212 -200 -81 -5 -197 -10 -257 -10 -101 -2 -111 -3 -128 -24 -10 -13 -18 -34
-18 -47 0 -13 -12 -54 -26 -91 -14 -38 -34 -95 -45 -127 -11 -33 -31 -81 -45
-107 -29 -59 -31 -95 -5 -109 30 -15 152 -12 306 9 191 26 355 34 355 17 0
-33 -61 -359 -78 -421 -53 -183 -153 -415 -180 -415 -24 0 -133 59 -186 101
-55 44 -75 48 -100 20 -25 -27 -14 -52 42 -102 71 -63 190 -119 252 -119 64 0
78 13 134 133 114 238 156 390 211 756 13 94 13 107 0 128 -13 19 -31 26 -65
25 -215 -6 -356 -15 -437 -28 -56 -8 -111 -14 -122 -12 -19 3 -20 4 -1 48 10
25 35 95 57 155 l38 110 155 8 c85 4 196 9 247 10 135 4 127 -6 210 277 67
231 80 295 64 314 -15 18 -53 18 -271 5z"/>
</g>
</svg>
