<?xml version="1.0" standalone="no"?>
<!DOCTYPE svg PUBLIC "-//W3C//DTD SVG 20010904//EN"
 "http://www.w3.org/TR/2001/REC-SVG-20010904/DTD/svg10.dtd">
<svg version="1.0" xmlns="http://www.w3.org/2000/svg"
 width="248.000000pt" height="248.000000pt" viewBox="0 0 248.000000 248.000000"
 preserveAspectRatio="xMidYMid meet">
<metadata>
Created by potrace 1.10, written by Peter Selinger 2001-2011
</metadata>
<g transform="translate(0.000000,248.000000) scale(0.100000,-0.100000)"
fill="#000000" stroke="none">
<path d="M672 2374 c-12 -8 -22 -23 -22 -34 0 -25 -123 -253 -173 -320 -93
-125 -275 -326 -364 -402 -78 -67 -94 -85 -91 -106 4 -31 27 -47 59 -39 52 14
186 139 334 312 143 169 194 241 257 362 28 54 52 100 54 102 2 3 17 -7 32
-21 15 -14 48 -41 73 -59 25 -19 92 -71 148 -116 82 -67 108 -83 135 -83 18 0
39 7 46 14 24 30 6 58 -77 120 -140 104 -277 212 -298 236 -20 22 -66 50 -82
50 -5 0 -19 -7 -31 -16z"/>
<path d="M654 1948 c-4 -7 -8 -91 -9 -186 -1 -171 -1 -174 22 -189 21 -14 26
-14 48 1 26 17 28 34 28 291 0 47 -5 65 -19 79 -18 19 -60 21 -70 4z"/>
</g>
</svg>
