<?xml version="1.0" standalone="no"?>
<!DOCTYPE svg PUBLIC "-//W3C//DTD SVG 20010904//EN"
 "http://www.w3.org/TR/2001/REC-SVG-20010904/DTD/svg10.dtd">
<svg version="1.0" xmlns="http://www.w3.org/2000/svg"
 width="248.000000pt" height="248.000000pt" viewBox="0 0 248.000000 248.000000"
 preserveAspectRatio="xMidYMid meet">
<metadata>
Created by potrace 1.10, written by Peter Selinger 2001-2011
</metadata>
<g transform="translate(0.000000,248.000000) scale(0.100000,-0.100000)"
fill="#000000" stroke="none">
<path d="M678 2363 c-9 -10 -48 -79 -88 -153 -39 -74 -90 -160 -113 -190 -93
-125 -275 -326 -364 -402 -78 -67 -94 -85 -91 -106 4 -31 27 -47 59 -39 52 14
186 139 334 312 143 169 195 241 257 362 28 54 59 107 69 119 10 11 19 34 19
51 0 55 -50 82 -82 46z"/>
</g>
</svg>
