<?xml version="1.0" standalone="no"?>
<!DOCTYPE svg PUBLIC "-//W3C//DTD SVG 20010904//EN"
 "http://www.w3.org/TR/2001/REC-SVG-20010904/DTD/svg10.dtd">
<svg version="1.0" xmlns="http://www.w3.org/2000/svg"
 width="248.000000pt" height="248.000000pt" viewBox="0 0 248.000000 248.000000"
 preserveAspectRatio="xMidYMid meet">
<metadata>
Created by potrace 1.10, written by Peter Selinger 2001-2011
</metadata>
<g transform="translate(0.000000,248.000000) scale(0.100000,-0.100000)"
fill="#000000" stroke="none">
<path d="M672 2374 c-12 -8 -22 -23 -22 -34 0 -25 -123 -253 -173 -320 -93
-125 -275 -326 -364 -402 -78 -67 -94 -85 -91 -106 4 -31 27 -47 59 -39 52 14
186 139 334 312 143 169 194 241 257 362 28 54 52 100 54 102 2 3 17 -7 32
-21 15 -14 48 -41 73 -59 25 -19 92 -71 148 -116 82 -67 108 -83 135 -83 18 0
39 7 46 14 24 30 6 58 -77 120 -140 104 -277 212 -298 236 -20 22 -66 50 -82
50 -5 0 -19 -7 -31 -16z"/>
<path d="M1422 2278 c-6 -7 -13 -31 -17 -53 -22 -130 -165 -492 -223 -564 -42
-53 -51 -73 -41 -98 6 -17 16 -23 40 -23 37 0 73 35 119 115 17 30 35 57 40
60 15 10 240 63 310 74 61 10 325 63 380 77 27 6 4 -18 -159 -165 -45 -41 -89
-84 -98 -97 -14 -22 -14 -26 1 -49 9 -14 25 -25 36 -25 23 0 258 207 353 311
74 81 85 117 44 144 -26 17 -66 12 -237 -28 -105 -25 -279 -60 -355 -71 -22
-4 -79 -16 -127 -28 -48 -12 -90 -20 -92 -17 -3 2 20 76 50 164 71 207 73 285
8 285 -12 0 -26 -6 -32 -12z"/>
<path d="M651 1943 c-5 -10 -7 -74 -5 -143 2 -69 0 -141 -4 -160 -8 -34 -9
-35 -77 -47 -39 -6 -92 -19 -120 -27 -27 -9 -60 -16 -72 -16 -13 0 -29 -11
-38 -23 -14 -22 -14 -28 1 -62 29 -71 5 -877 -36 -1163 -7 -54 -6 -71 6 -89
19 -30 64 -30 90 -2 10 12 52 46 92 77 87 65 288 263 297 292 4 11 11 18 15
15 9 -5 46 -60 93 -138 29 -46 97 -33 97 19 0 28 -101 178 -186 274 -36 41
-72 87 -80 102 -16 31 -58 46 -83 31 -39 -24 -16 -84 71 -187 18 -21 28 -41
23 -43 -6 -2 -77 -69 -159 -148 -81 -80 -152 -145 -158 -145 -11 0 -5 170 13
330 5 47 9 117 10 155 1 97 6 112 37 118 15 2 81 19 147 36 66 18 145 39 177
46 31 8 81 27 112 42 47 23 58 33 66 63 26 98 58 464 43 489 -15 24 -45 25
-159 6 -57 -9 -108 -14 -113 -11 -6 4 -10 55 -10 124 1 169 1 169 -17 186 -21
21 -61 20 -73 -1z m275 -409 c-3 -9 -6 -36 -6 -60 0 -58 37 -45 -380 -133 -61
-13 -87 -15 -93 -7 -11 16 -5 115 7 125 17 13 48 20 246 56 221 39 234 41 226
19z m-30 -286 c-4 -35 -10 -66 -14 -70 -13 -13 -423 -120 -431 -112 -7 7 -12
107 -6 130 4 17 19 24 82 38 43 9 134 30 203 46 183 41 174 43 166 -32z"/>
<path d="M1480 1670 c-17 -17 -20 -32 -18 -97 5 -177 -76 -606 -142 -763 -42
-97 -75 -146 -183 -268 -62 -70 -107 -110 -152 -137 -55 -32 -65 -42 -65 -65
0 -61 56 -64 143 -8 51 32 214 205 268 285 47 68 107 203 129 289 11 43 22 79
24 81 2 2 21 -20 42 -49 22 -29 84 -103 139 -164 55 -61 129 -145 165 -187 62
-74 122 -131 202 -191 20 -15 94 -48 165 -73 209 -73 191 -69 215 -46 15 15
19 28 14 46 -7 28 -51 49 -199 98 -50 16 -110 41 -132 54 -45 26 -163 144
-256 255 -34 41 -72 84 -83 96 -25 24 -135 154 -201 237 -43 55 -45 59 -36 95
14 54 43 324 44 416 2 71 -1 80 -22 97 -29 24 -36 24 -61 -1z"/>
</g>
</svg>
