<?xml version="1.0" standalone="no"?>
<!DOCTYPE svg PUBLIC "-//W3C//DTD SVG 20010904//EN"
 "http://www.w3.org/TR/2001/REC-SVG-20010904/DTD/svg10.dtd">
<svg version="1.0" xmlns="http://www.w3.org/2000/svg"
 width="248.000000pt" height="248.000000pt" viewBox="0 0 248.000000 248.000000"
 preserveAspectRatio="xMidYMid meet">
<metadata>
Created by potrace 1.10, written by Peter Selinger 2001-2011
</metadata>
<g transform="translate(0.000000,248.000000) scale(0.100000,-0.100000)"
fill="#000000" stroke="none">
<path d="M926 2202 c-110 -119 -313 -301 -431 -386 -64 -47 -129 -106 -136
-125 -4 -10 -3 -37 2 -62 5 -24 14 -255 19 -513 8 -330 14 -478 23 -495 16
-33 52 -38 132 -17 80 20 196 42 335 61 63 9 130 19 148 21 35 5 72 35 72 58
0 8 -8 22 -17 31 -20 21 -97 16 -283 -16 -63 -11 -142 -24 -175 -30 -33 -5
-72 -13 -86 -18 l-26 -9 -7 121 c-3 66 -6 173 -6 237 l0 117 68 7 c37 4 94 13
127 21 86 19 248 51 330 65 76 12 105 31 105 65 0 57 -39 56 -350 -5 -107 -21
-214 -41 -236 -44 l-41 -6 -7 128 c-4 70 -12 156 -17 192 -7 43 -7 66 0 68 11
4 57 39 206 158 109 86 314 281 367 347 39 50 49 92 26 115 -27 27 -54 10
-142 -86z"/>
<path d="M1925 1930 c-27 -4 -97 -13 -155 -20 -58 -6 -129 -16 -159 -21 -30
-5 -80 -9 -111 -9 -34 0 -64 -6 -78 -16 -30 -21 -29 -59 3 -80 27 -18 70 -17
240 6 44 6 114 15 155 21 41 5 124 12 184 16 l109 6 -7 -104 c-15 -205 -87
-763 -101 -777 -9 -9 -107 42 -149 76 -60 51 -95 66 -121 54 -36 -16 -38 -51
-6 -81 59 -55 118 -97 180 -128 36 -18 74 -42 86 -53 26 -25 57 -26 78 -2 21
23 62 227 77 377 6 66 15 136 21 155 16 58 51 452 45 499 -3 25 -13 55 -21 68
-15 22 -21 23 -118 22 -56 -1 -124 -5 -152 -9z"/>
</g>
</svg>
