<?xml version="1.0" standalone="no"?>
<!DOCTYPE svg PUBLIC "-//W3C//DTD SVG 20010904//EN"
 "http://www.w3.org/TR/2001/REC-SVG-20010904/DTD/svg10.dtd">
<svg version="1.0" xmlns="http://www.w3.org/2000/svg"
 width="248.000000pt" height="248.000000pt" viewBox="0 0 248.000000 248.000000"
 preserveAspectRatio="xMidYMid meet">
<metadata>
Created by potrace 1.10, written by Peter Selinger 2001-2011
</metadata>
<g transform="translate(0.000000,248.000000) scale(0.100000,-0.100000)"
fill="#000000" stroke="none">
<path d="M926 2202 c-110 -119 -313 -301 -431 -386 -64 -47 -129 -106 -136
-125 -4 -10 -3 -37 2 -62 5 -24 13 -249 19 -499 5 -250 12 -470 15 -487 10
-57 76 -69 96 -17 12 32 -7 896 -22 979 -7 40 -7 61 0 63 11 4 57 39 206 158
109 86 314 281 367 347 39 50 49 92 26 115 -27 27 -54 10 -142 -86z"/>
</g>
</svg>
