<?xml version="1.0" standalone="no"?>
<!DOCTYPE svg PUBLIC "-//W3C//DTD SVG 20010904//EN"
 "http://www.w3.org/TR/2001/REC-SVG-20010904/DTD/svg10.dtd">
<svg version="1.0" xmlns="http://www.w3.org/2000/svg"
 width="248.000000pt" height="248.000000pt" viewBox="0 0 248.000000 248.000000"
 preserveAspectRatio="xMidYMid meet">
<metadata>
Created by potrace 1.10, written by Peter Selinger 2001-2011
</metadata>
<g transform="translate(0.000000,248.000000) scale(0.100000,-0.100000)"
fill="#000000" stroke="none">
<path d="M700 2209 c-63 -60 -156 -141 -207 -179 -51 -39 -97 -79 -104 -91
-30 -56 29 -101 79 -60 15 12 47 36 71 54 79 58 124 97 234 204 84 82 107 110
107 132 0 32 -16 51 -44 51 -13 -1 -68 -46 -136 -111z"/>
<path d="M1019 1715 c-3 -2 -67 -11 -143 -20 -76 -8 -142 -17 -147 -20 -8 -6
-42 -11 -329 -49 -155 -21 -221 -35 -248 -52 -24 -16 -29 -53 -10 -72 14 -14
73 -16 131 -3 23 6 116 20 207 31 91 12 197 28 235 36 39 7 127 20 197 28 147
17 188 33 188 74 0 16 -5 33 -12 40 -12 12 -60 17 -69 7z"/>
</g>
</svg>
