<?xml version="1.0" standalone="no"?>
<!DOCTYPE svg PUBLIC "-//W3C//DTD SVG 20010904//EN"
 "http://www.w3.org/TR/2001/REC-SVG-20010904/DTD/svg10.dtd">
<svg version="1.0" xmlns="http://www.w3.org/2000/svg"
 width="248.000000pt" height="248.000000pt" viewBox="0 0 248.000000 248.000000"
 preserveAspectRatio="xMidYMid meet">
<metadata>
Created by potrace 1.10, written by Peter Selinger 2001-2011
</metadata>
<g transform="translate(0.000000,248.000000) scale(0.100000,-0.100000)"
fill="#000000" stroke="none">
<path d="M700 2209 c-63 -60 -156 -141 -207 -179 -114 -87 -134 -118 -97 -154
25 -25 49 -19 102 27 28 23 64 50 80 59 l29 18 -5 -163 c-2 -89 -5 -163 -6
-163 0 -1 -57 -9 -126 -19 -192 -25 -293 -45 -317 -61 -25 -16 -30 -53 -11
-72 14 -14 73 -16 131 -3 23 6 98 17 167 26 69 9 133 19 143 21 17 5 18 -26
17 -656 -1 -510 1 -665 11 -676 20 -24 62 -13 79 21 13 25 16 128 20 679 l5
650 30 7 c17 4 89 15 162 23 153 17 193 33 193 75 0 47 -20 55 -103 42 -39 -6
-113 -16 -164 -21 -51 -6 -100 -13 -109 -17 -16 -6 -17 8 -11 202 l6 209 81
79 c61 60 80 85 80 106 0 32 -16 51 -44 51 -13 -1 -68 -46 -136 -111z"/>
</g>
</svg>
