<?xml version="1.0" standalone="no"?>
<!DOCTYPE svg PUBLIC "-//W3C//DTD SVG 20010904//EN"
 "http://www.w3.org/TR/2001/REC-SVG-20010904/DTD/svg10.dtd">
<svg version="1.0" xmlns="http://www.w3.org/2000/svg"
 width="248.000000pt" height="248.000000pt" viewBox="0 0 248.000000 248.000000"
 preserveAspectRatio="xMidYMid meet">
<metadata>
Created by potrace 1.10, written by Peter Selinger 2001-2011
</metadata>
<g transform="translate(0.000000,248.000000) scale(0.100000,-0.100000)"
fill="#000000" stroke="none">
<path d="M1795 2298 c-22 -17 -74 -46 -115 -65 -41 -19 -88 -41 -105 -51 -16
-9 -84 -44 -150 -78 -94 -48 -122 -68 -130 -89 -8 -23 -6 -30 14 -46 28 -23
36 -21 151 36 410 206 450 230 450 279 0 54 -54 60 -115 14z"/>
<path d="M700 2209 c-63 -60 -158 -142 -210 -182 -105 -80 -126 -112 -95 -147
27 -29 48 -25 103 23 28 23 63 50 79 59 l30 17 -5 -162 c-2 -89 -5 -163 -6
-163 0 -1 -57 -9 -126 -19 -287 -38 -340 -54 -340 -99 0 -36 23 -49 78 -43 73
8 263 35 300 43 27 5 32 4 32 -12 0 -23 -18 -79 -65 -209 -20 -55 -48 -133
-61 -173 -35 -103 -92 -230 -174 -385 -38 -73 -70 -143 -70 -155 0 -12 11 -29
25 -38 22 -15 27 -15 48 -1 31 21 207 369 251 497 20 58 52 146 71 195 l35 90
-1 -558 c-1 -599 -2 -591 50 -585 55 6 56 14 59 591 l3 528 62 -86 c93 -132
134 -175 166 -175 59 0 68 51 18 107 -48 55 -115 145 -186 251 -45 67 -61 101
-59 119 4 33 16 36 193 57 147 16 183 28 192 64 9 37 -9 57 -48 56 -50 -1
-304 -33 -325 -41 -16 -6 -17 6 -11 202 l6 209 81 79 c61 60 80 85 80 106 0
32 -16 51 -44 51 -13 -1 -68 -46 -136 -111z"/>
<path d="M2047 1942 c-10 -10 -17 -25 -17 -32 0 -13 -77 -142 -139 -234 -65
-96 -74 -116 -62 -142 9 -21 17 -25 43 -22 28 3 40 14 83 75 155 223 199 317
165 358 -17 20 -53 19 -73 -3z"/>
<path d="M1530 1865 c-11 -13 -11 -28 -1 -78 6 -34 16 -96 20 -138 10 -86 13
-95 39 -101 33 -9 61 9 67 44 9 47 -22 228 -44 258 -22 30 -62 37 -81 15z"/>
<path d="M1182 1828 c-19 -19 -14 -50 17 -124 16 -38 39 -103 51 -144 28 -95
45 -127 70 -135 29 -9 60 12 60 41 0 57 -93 319 -127 356 -18 21 -53 24 -71 6z"/>
<path d="M1770 1339 c-52 -4 -129 -13 -170 -18 -41 -6 -110 -14 -153 -17 -56
-5 -85 -13 -104 -27 l-25 -20 7 -481 c5 -364 10 -484 20 -494 10 -11 84 -13
365 -12 245 0 356 -3 366 -10 21 -19 58 -7 72 22 7 16 19 114 27 230 8 112 22
286 31 388 9 102 14 235 12 297 -4 154 4 148 -196 149 -86 1 -200 -2 -252 -7z
m339 -221 c-1 -68 -4 -154 -8 -192 l-6 -68 -265 -4 c-146 -2 -295 -6 -332 -9
l-68 -5 0 180 0 180 45 0 c24 0 66 5 92 10 74 16 233 27 396 29 l147 1 -1
-122z m-33 -490 c-4 -68 -9 -151 -13 -185 l-6 -63 -309 0 -308 0 2 178 3 177
210 5 c116 3 259 7 319 8 l109 2 -7 -122z"/>
<path d="M1109 1274 c-16 -20 -33 -391 -34 -757 0 -205 1 -219 19 -233 25 -18
37 -18 62 0 18 13 19 33 26 268 3 139 9 350 13 468 5 170 3 220 -7 240 -16 31
-59 38 -79 14z"/>
</g>
</svg>
