<?xml version="1.0" standalone="no"?>
<!DOCTYPE svg PUBLIC "-//W3C//DTD SVG 20010904//EN"
 "http://www.w3.org/TR/2001/REC-SVG-20010904/DTD/svg10.dtd">
<svg version="1.0" xmlns="http://www.w3.org/2000/svg"
 width="248.000000pt" height="248.000000pt" viewBox="0 0 248.000000 248.000000"
 preserveAspectRatio="xMidYMid meet">
<metadata>
Created by potrace 1.10, written by Peter Selinger 2001-2011
</metadata>
<g transform="translate(0.000000,248.000000) scale(0.100000,-0.100000)"
fill="#000000" stroke="none">
<path d="M700 2209 c-63 -60 -156 -141 -207 -179 -114 -87 -134 -118 -97 -154
25 -25 49 -19 102 27 28 23 64 50 80 59 l29 18 -5 -163 c-2 -89 -5 -163 -6
-163 0 -1 -57 -9 -126 -19 -287 -38 -340 -54 -340 -99 0 -37 23 -49 83 -43 67
7 252 34 295 43 28 6 32 4 32 -15 0 -11 -39 -130 -86 -263 -64 -183 -110 -292
-185 -441 -54 -109 -99 -207 -99 -217 0 -11 11 -27 25 -36 22 -15 27 -15 48
-1 29 19 218 395 257 512 16 50 45 131 65 180 l34 90 0 -558 c-1 -599 -1 -591
50 -585 55 6 56 14 59 591 l3 528 62 -86 c93 -132 134 -175 166 -175 59 0 68
51 18 107 -48 55 -115 145 -186 251 -45 67 -61 101 -59 119 4 33 16 36 195 57
153 17 193 33 193 75 0 47 -20 55 -103 42 -39 -6 -113 -16 -164 -21 -51 -6
-100 -13 -109 -17 -16 -6 -17 8 -11 202 l6 209 81 79 c61 60 80 85 80 106 0
32 -16 51 -44 51 -13 -1 -68 -46 -136 -111z"/>
</g>
</svg>
