<?xml version="1.0" standalone="no"?>
<!DOCTYPE svg PUBLIC "-//W3C//DTD SVG 20010904//EN"
 "http://www.w3.org/TR/2001/REC-SVG-20010904/DTD/svg10.dtd">
<svg version="1.0" xmlns="http://www.w3.org/2000/svg"
 width="248.000000pt" height="248.000000pt" viewBox="0 0 248.000000 248.000000"
 preserveAspectRatio="xMidYMid meet">
<metadata>
Created by potrace 1.10, written by Peter Selinger 2001-2011
</metadata>
<g transform="translate(0.000000,248.000000) scale(0.100000,-0.100000)"
fill="#000000" stroke="none">
<path d="M692 2288 c-17 -17 -15 -58 4 -79 8 -9 27 -35 42 -57 105 -158 161
-210 201 -185 24 15 26 61 4 87 -11 11 -26 30 -34 42 -40 59 -134 181 -147
192 -20 15 -54 16 -70 0z"/>
<path d="M1049 1826 c-6 -6 -166 -35 -286 -52 -56 -7 -122 -18 -147 -24 -25
-5 -91 -13 -148 -16 -114 -7 -148 -21 -148 -59 0 -55 54 -65 225 -40 225 32
313 46 363 57 28 6 55 8 58 5 10 -10 -128 -176 -266 -322 -109 -115 -351 -332
-413 -370 -83 -51 -117 -84 -117 -114 0 -32 16 -51 45 -51 57 0 369 261 577
481 103 110 339 393 359 431 14 26 2 57 -28 69 -25 9 -66 12 -74 5z"/>
</g>
</svg>
