<?xml version="1.0" standalone="no"?>
<!DOCTYPE svg PUBLIC "-//W3C//DTD SVG 20010904//EN"
 "http://www.w3.org/TR/2001/REC-SVG-20010904/DTD/svg10.dtd">
<svg version="1.0" xmlns="http://www.w3.org/2000/svg"
 width="248.000000pt" height="248.000000pt" viewBox="0 0 248.000000 248.000000"
 preserveAspectRatio="xMidYMid meet">
<metadata>
Created by potrace 1.10, written by Peter Selinger 2001-2011
</metadata>
<g transform="translate(0.000000,248.000000) scale(0.100000,-0.100000)"
fill="#000000" stroke="none">
<path d="M1110 2290 c-11 -11 -51 -61 -89 -112 -39 -51 -96 -127 -128 -168
-32 -41 -202 -220 -378 -398 -176 -178 -324 -335 -330 -348 -12 -33 4 -58 41
-62 27 -3 58 25 319 290 349 352 397 406 553 616 25 34 52 61 59 60 12 -3 113
-84 272 -218 73 -62 112 -92 226 -174 78 -56 245 -166 253 -166 3 0 60 -35
127 -79 215 -140 268 -171 296 -171 32 0 52 21 47 52 -3 24 -28 41 -293 208
-301 189 -455 296 -580 404 -46 39 -123 103 -171 141 -48 39 -107 87 -131 108
-50 42 -65 45 -93 17z"/>
<path d="M1209 1641 c-404 -17 -413 -19 -407 -70 5 -47 35 -53 218 -46 506 18
591 24 616 40 26 17 32 56 11 73 -23 19 -61 20 -438 3z"/>
<path d="M1595 1409 c-44 -5 -125 -10 -180 -11 -98 -3 -100 -3 -113 -31 -11
-23 -11 -87 2 -390 9 -199 16 -481 16 -627 0 -224 2 -269 16 -288 20 -28 58
-28 78 0 21 30 21 402 1 863 -8 182 -15 337 -15 346 0 13 27 17 161 28 88 7
162 11 163 10 2 -2 7 -113 11 -246 5 -185 4 -243 -5 -243 -7 0 -25 11 -42 25
-36 30 -59 32 -83 5 -26 -29 -13 -59 47 -111 88 -76 134 -89 162 -46 26 39 35
188 28 444 -8 285 -5 278 -105 279 -34 0 -98 -3 -142 -7z"/>
<path d="M837 1388 c-70 -5 -139 -13 -153 -18 -33 -13 -46 -51 -35 -103 5 -23
15 -112 21 -197 6 -85 15 -201 19 -257 5 -57 14 -109 21 -118 10 -12 42 -15
181 -15 175 0 211 6 228 39 18 33 39 148 56 311 9 85 23 186 31 224 29 146 -7
159 -369 134z m260 -135 c-4 -21 -13 -99 -22 -173 -8 -74 -20 -170 -26 -212
l-11 -78 -119 0 -118 0 -5 43 c-14 117 -34 433 -28 439 7 7 82 11 256 16 l79
2 -6 -37z"/>
</g>
</svg>
