<?xml version="1.0" standalone="no"?>
<!DOCTYPE svg PUBLIC "-//W3C//DTD SVG 20010904//EN"
 "http://www.w3.org/TR/2001/REC-SVG-20010904/DTD/svg10.dtd">
<svg version="1.0" xmlns="http://www.w3.org/2000/svg"
 width="248.000000pt" height="248.000000pt" viewBox="0 0 248.000000 248.000000"
 preserveAspectRatio="xMidYMid meet">
<metadata>
Created by potrace 1.10, written by Peter Selinger 2001-2011
</metadata>
<g transform="translate(0.000000,248.000000) scale(0.100000,-0.100000)"
fill="#000000" stroke="none">
<path d="M1110 2290 c-11 -11 -51 -61 -89 -112 -39 -51 -96 -127 -128 -168
-32 -41 -202 -220 -378 -398 -176 -178 -324 -335 -330 -348 -12 -33 4 -58 41
-62 27 -3 58 25 319 290 349 352 397 406 553 616 25 34 52 61 59 60 12 -3 113
-84 272 -218 73 -62 112 -92 226 -174 78 -56 245 -166 253 -166 3 0 60 -35
127 -79 215 -140 268 -171 296 -171 32 0 52 21 47 52 -3 24 -28 41 -293 208
-301 189 -455 296 -580 404 -46 39 -123 103 -171 141 -48 39 -107 87 -131 108
-50 42 -65 45 -93 17z"/>
<path d="M1209 1641 c-404 -17 -413 -19 -407 -70 5 -47 35 -53 218 -46 506 18
591 24 616 40 26 17 32 56 11 73 -23 19 -61 20 -438 3z"/>
<path d="M837 1388 c-70 -5 -139 -13 -153 -18 -33 -13 -46 -51 -35 -103 5 -23
15 -112 21 -197 6 -85 15 -201 19 -257 9 -111 20 -136 60 -131 56 7 58 37 26
418 -8 90 -11 168 -7 171 4 4 81 10 171 14 l164 7 -6 -39 c-4 -22 -16 -119
-27 -215 -11 -97 -24 -197 -29 -222 -5 -30 -4 -53 3 -68 13 -26 50 -35 71 -18
20 17 42 129 65 335 11 99 25 197 31 218 12 45 -3 85 -41 104 -28 14 -138 15
-333 1z"/>
</g>
</svg>
