<?xml version="1.0" standalone="no"?>
<!DOCTYPE svg PUBLIC "-//W3C//DTD SVG 20010904//EN"
 "http://www.w3.org/TR/2001/REC-SVG-20010904/DTD/svg10.dtd">
<svg version="1.0" xmlns="http://www.w3.org/2000/svg"
 width="248.000000pt" height="248.000000pt" viewBox="0 0 248.000000 248.000000"
 preserveAspectRatio="xMidYMid meet">
<metadata>
Created by potrace 1.10, written by Peter Selinger 2001-2011
</metadata>
<g transform="translate(0.000000,248.000000) scale(0.100000,-0.100000)"
fill="#000000" stroke="none">
<path d="M1955 1723 c-16 -2 -111 -17 -210 -33 -99 -16 -234 -36 -300 -45 -66
-9 -131 -18 -145 -20 -60 -10 -325 -35 -430 -40 -63 -4 -150 -10 -192 -15 -42
-4 -92 -6 -110 -4 -85 8 -159 6 -173 -6 -20 -17 -19 -54 2 -71 28 -24 350 -19
693 12 132 12 499 61 673 90 65 11 150 24 189 29 97 12 136 52 90 93 -18 17
-28 18 -87 10z"/>
</g>
</svg>
