<?xml version="1.0" standalone="no"?>
<!DOCTYPE svg PUBLIC "-//W3C//DTD SVG 20010904//EN"
 "http://www.w3.org/TR/2001/REC-SVG-20010904/DTD/svg10.dtd">
<svg version="1.0" xmlns="http://www.w3.org/2000/svg"
 width="248.000000pt" height="248.000000pt" viewBox="0 0 248.000000 248.000000"
 preserveAspectRatio="xMidYMid meet">
<metadata>
Created by potrace 1.10, written by Peter Selinger 2001-2011
</metadata>
<g transform="translate(0.000000,248.000000) scale(0.100000,-0.100000)"
fill="#000000" stroke="none">
<path d="M1100 2345 c-10 -12 -10 -32 -4 -83 11 -84 9 -551 -3 -612 -8 -42
-11 -45 -48 -51 -22 -4 -96 -10 -165 -14 -69 -3 -160 -10 -202 -15 -42 -4 -92
-6 -110 -4 -85 8 -159 6 -173 -6 -20 -17 -19 -54 2 -71 19 -17 264 -19 494 -5
l147 9 7 -49 c5 -42 0 -67 -31 -159 -56 -167 -105 -274 -170 -372 -69 -103
-212 -251 -302 -312 -75 -50 -193 -106 -260 -122 -26 -7 -54 -16 -63 -20 -25
-13 -29 -46 -9 -71 16 -21 21 -21 78 -11 217 41 480 238 644 484 59 90 87 146
146 303 l49 127 37 -63 c57 -97 253 -325 399 -462 278 -263 414 -347 695 -431
130 -39 166 -40 175 -3 13 47 -7 60 -155 102 -130 37 -292 113 -380 178 -272
202 -595 552 -689 747 -70 146 -75 140 157 173 104 14 266 39 359 53 94 15
198 31 233 35 92 12 128 53 83 94 -21 19 -67 15 -296 -24 -91 -16 -257 -40
-455 -66 -19 -2 -50 -7 -69 -10 l-33 -5 6 44 c4 24 7 168 7 320 0 329 -10 387
-66 387 -12 0 -28 -7 -35 -15z"/>
<path d="M1582 2208 c-17 -17 -15 -53 6 -76 28 -32 166 -148 253 -212 80 -59
114 -71 137 -48 30 30 13 56 -85 134 -54 43 -133 108 -176 146 -77 68 -110 81
-135 56z"/>
</g>
</svg>
