<?xml version="1.0" standalone="no"?>
<!DOCTYPE svg PUBLIC "-//W3C//DTD SVG 20010904//EN"
 "http://www.w3.org/TR/2001/REC-SVG-20010904/DTD/svg10.dtd">
<svg version="1.0" xmlns="http://www.w3.org/2000/svg"
 width="248.000000pt" height="248.000000pt" viewBox="0 0 248.000000 248.000000"
 preserveAspectRatio="xMidYMid meet">
<metadata>
Created by potrace 1.10, written by Peter Selinger 2001-2011
</metadata>
<g transform="translate(0.000000,248.000000) scale(0.100000,-0.100000)"
fill="#000000" stroke="none">
<path d="M1595 2380 c-738 -56 -798 -61 -822 -77 -31 -18 -30 -58 2 -79 23
-15 39 -15 202 0 98 9 239 20 313 26 74 6 167 13 205 16 95 8 103 14 -264
-182 -60 -32 -71 -43 -71 -68 0 -57 61 -61 146 -10 32 20 100 56 149 81 83 42
119 64 247 152 55 37 78 66 78 97 0 46 -37 55 -185 44z"/>
</g>
</svg>
