<?xml version="1.0" standalone="no"?>
<!DOCTYPE svg PUBLIC "-//W3C//DTD SVG 20010904//EN"
 "http://www.w3.org/TR/2001/REC-SVG-20010904/DTD/svg10.dtd">
<svg version="1.0" xmlns="http://www.w3.org/2000/svg"
 width="248.000000pt" height="248.000000pt" viewBox="0 0 248.000000 248.000000"
 preserveAspectRatio="xMidYMid meet">
<metadata>
Created by potrace 1.10, written by Peter Selinger 2001-2011
</metadata>
<g transform="translate(0.000000,248.000000) scale(0.100000,-0.100000)"
fill="#000000" stroke="none">
<path d="M1595 2380 c-738 -56 -798 -61 -822 -77 -31 -18 -30 -58 2 -79 23
-15 39 -15 202 0 98 9 239 20 313 26 74 6 167 13 205 16 l70 5 -40 -26 c-22
-14 -79 -46 -127 -70 -47 -24 -108 -58 -134 -75 -60 -37 -81 -37 -119 1 -49
50 -118 28 -101 -32 4 -13 52 -64 106 -114 55 -49 100 -93 100 -97 0 -4 -26
-9 -57 -12 -32 -3 -143 -17 -248 -31 -104 -14 -215 -25 -246 -25 -71 0 -83
-13 -75 -77 3 -27 9 -111 15 -188 16 -241 44 -408 72 -436 22 -22 39 -24 64
-5 18 13 18 18 -3 177 -12 91 -22 201 -22 244 0 44 -5 100 -11 124 -5 24 -8
46 -5 48 5 6 306 47 446 62 176 19 384 33 520 34 l135 2 -2 -50 c-1 -27 -20
-140 -41 -250 -62 -315 -62 -376 0 -383 39 -5 55 28 63 128 4 47 18 139 31
205 47 228 71 380 64 400 -13 35 -36 46 -112 56 -68 9 -333 -2 -430 -18 -36
-5 -38 -4 -38 21 0 19 -10 32 -39 50 -74 47 -69 53 104 143 61 31 135 73 165
93 163 109 180 124 180 166 0 46 -37 55 -185 44z"/>
</g>
</svg>
