<?xml version="1.0" standalone="no"?>
<!DOCTYPE svg PUBLIC "-//W3C//DTD SVG 20010904//EN"
 "http://www.w3.org/TR/2001/REC-SVG-20010904/DTD/svg10.dtd">
<svg version="1.0" xmlns="http://www.w3.org/2000/svg"
 width="248.000000pt" height="248.000000pt" viewBox="0 0 248.000000 248.000000"
 preserveAspectRatio="xMidYMid meet">
<metadata>
Created by potrace 1.10, written by Peter Selinger 2001-2011
</metadata>
<g transform="translate(0.000000,248.000000) scale(0.100000,-0.100000)"
fill="#000000" stroke="none">
<path d="M1219 2354 c-10 -12 -14 -49 -14 -138 l0 -121 -50 -11 c-27 -7 -75
-13 -105 -13 -69 -1 -102 -22 -98 -59 5 -45 47 -58 145 -43 46 6 90 14 98 18
14 5 16 -4 13 -58 l-3 -63 -101 -25 c-110 -28 -134 -42 -134 -75 0 -48 37 -56
137 -32 104 26 95 33 96 -68 l2 -89 -37 -23 c-45 -29 -213 -109 -248 -119 -71
-20 -93 -69 -45 -101 24 -16 29 -15 88 6 34 12 145 66 247 118 102 53 215 111
251 128 36 18 71 40 78 48 20 23 5 64 -24 72 -28 7 -124 -27 -164 -58 -13 -10
-28 -18 -32 -18 -14 0 -11 134 4 152 6 8 35 21 62 28 59 15 85 35 85 65 0 35
-24 49 -73 42 -24 -3 -51 -9 -60 -13 -16 -6 -18 0 -15 52 l3 59 89 18 c50 10
96 23 103 29 18 14 16 53 -2 68 -18 15 -95 15 -145 0 -19 -5 -38 -10 -41 -10
-3 0 -9 43 -12 96 -4 52 -12 107 -19 122 -16 33 -58 41 -79 16z"/>
<path d="M452 2208 c-25 -25 -12 -59 51 -128 34 -37 82 -91 107 -119 47 -52
82 -65 108 -39 32 32 -4 90 -144 235 -63 64 -95 78 -122 51z"/>
<path d="M2055 2179 c-66 -10 -138 -23 -161 -28 -23 -6 -85 -17 -138 -25 -108
-16 -128 -27 -124 -65 5 -41 39 -51 132 -40 43 5 80 8 82 6 6 -6 -136 -291
-175 -351 -46 -73 -39 -126 16 -126 16 0 33 14 56 46 49 70 197 363 203 404 3
21 9 42 13 48 4 6 40 16 81 22 41 5 88 13 104 16 l29 6 -6 -93 c-8 -142 -60
-325 -103 -360 -12 -10 -21 -5 -47 26 -28 32 -37 37 -60 31 -59 -14 -40 -100
32 -151 56 -38 115 -29 158 25 56 69 121 291 130 446 7 106 -6 156 -43 173
-29 13 -26 13 -179 -10z"/>
<path d="M142 1628 c-17 -17 -15 -53 6 -76 25 -29 152 -134 205 -170 69 -48
117 -40 117 19 0 21 -11 34 -53 62 -30 19 -80 59 -113 89 -96 89 -133 105
-162 76z"/>
<path d="M1580 1434 c-19 -14 -116 -66 -215 -116 -99 -49 -183 -95 -187 -102
-4 -6 -8 -23 -8 -38 0 -21 14 -39 68 -82 37 -30 81 -66 97 -80 17 -13 28 -26
25 -28 -3 -2 -43 -35 -90 -74 -47 -38 -119 -95 -160 -126 -110 -82 -150 -123
-150 -151 0 -59 49 -63 287 -22 191 33 263 48 458 94 251 61 217 64 314 -29
62 -60 90 -80 110 -80 32 0 51 16 51 44 0 32 -291 326 -322 326 -49 0 -64 -48
-28 -92 l20 -26 -168 -40 c-223 -54 -491 -107 -499 -98 -2 2 16 16 39 31 24
15 68 49 98 75 85 72 174 139 305 228 143 96 175 125 175 155 0 53 -53 62
-109 19 -20 -16 -80 -59 -134 -96 l-98 -68 -37 29 c-20 15 -54 40 -74 53 -21
14 -38 27 -38 30 0 3 42 26 93 50 110 53 233 124 265 153 12 11 22 30 22 42 0
50 -54 59 -110 19z"/>
<path d="M497 628 c-38 -50 -247 -475 -247 -501 0 -45 52 -64 82 -29 16 17
268 512 268 524 0 4 -7 14 -16 22 -26 26 -60 19 -87 -16z"/>
</g>
</svg>
