<?xml version="1.0" standalone="no"?>
<!DOCTYPE svg PUBLIC "-//W3C//DTD SVG 20010904//EN"
 "http://www.w3.org/TR/2001/REC-SVG-20010904/DTD/svg10.dtd">
<svg version="1.0" xmlns="http://www.w3.org/2000/svg"
 width="248.000000pt" height="248.000000pt" viewBox="0 0 248.000000 248.000000"
 preserveAspectRatio="xMidYMid meet">
<metadata>
Created by potrace 1.10, written by Peter Selinger 2001-2011
</metadata>
<g transform="translate(0.000000,248.000000) scale(0.100000,-0.100000)"
fill="#000000" stroke="none">
<path d="M1219 2354 c-10 -12 -14 -49 -14 -138 l0 -121 -50 -11 c-27 -7 -75
-13 -105 -13 -69 -1 -102 -22 -98 -59 5 -45 47 -58 145 -43 46 6 90 14 98 18
14 5 16 -4 13 -58 l-3 -63 -101 -25 c-110 -28 -134 -42 -134 -75 0 -48 37 -56
137 -32 106 27 98 31 94 -52 -3 -88 14 -125 57 -120 37 4 52 40 52 129 0 45 5
81 13 91 6 8 35 21 62 28 59 15 85 35 85 65 0 35 -24 49 -73 42 -24 -3 -51 -9
-60 -13 -16 -6 -18 0 -15 52 l3 59 89 18 c50 10 96 23 103 29 18 14 16 53 -2
68 -18 15 -95 15 -145 0 -19 -5 -38 -10 -41 -10 -3 0 -9 43 -12 96 -4 52 -12
107 -19 122 -16 33 -58 41 -79 16z"/>
<path d="M452 2208 c-25 -25 -12 -59 51 -128 34 -37 82 -91 107 -119 47 -52
82 -65 108 -39 32 32 -4 90 -144 235 -63 64 -95 78 -122 51z"/>
<path d="M142 1628 c-17 -17 -15 -53 6 -76 25 -29 152 -134 205 -170 69 -48
117 -40 117 19 0 21 -11 34 -53 62 -30 19 -80 59 -113 89 -96 89 -133 105
-162 76z"/>
<path d="M497 628 c-38 -50 -247 -475 -247 -501 0 -45 52 -64 82 -29 16 17
268 512 268 524 0 4 -7 14 -16 22 -26 26 -60 19 -87 -16z"/>
</g>
</svg>
