<?xml version="1.0" standalone="no"?>
<!DOCTYPE svg PUBLIC "-//W3C//DTD SVG 20010904//EN"
 "http://www.w3.org/TR/2001/REC-SVG-20010904/DTD/svg10.dtd">
<svg version="1.0" xmlns="http://www.w3.org/2000/svg"
 width="248.000000pt" height="248.000000pt" viewBox="0 0 248.000000 248.000000"
 preserveAspectRatio="xMidYMid meet">
<metadata>
Created by potrace 1.10, written by Peter Selinger 2001-2011
</metadata>
<g transform="translate(0.000000,248.000000) scale(0.100000,-0.100000)"
fill="#000000" stroke="none">
<path d="M452 2208 c-25 -25 -12 -59 51 -128 34 -37 82 -91 107 -119 47 -52
82 -65 108 -39 32 32 -4 90 -144 235 -63 64 -95 78 -122 51z"/>
<path d="M1435 2142 c-16 -2 -101 -19 -188 -38 -87 -19 -179 -34 -205 -34 -56
0 -92 -22 -92 -54 0 -51 59 -65 176 -43 212 42 380 80 391 89 17 13 17 53 1
65 -18 14 -47 19 -83 15z"/>
<path d="M142 1628 c-17 -17 -15 -53 6 -76 25 -29 152 -134 205 -170 69 -48
117 -40 117 19 0 21 -11 34 -53 62 -30 19 -80 59 -113 89 -96 89 -133 105
-162 76z"/>
<path d="M497 628 c-38 -50 -247 -475 -247 -501 0 -45 52 -64 82 -29 16 17
268 512 268 524 0 4 -7 14 -16 22 -26 26 -60 19 -87 -16z"/>
</g>
</svg>
