<?xml version="1.0" standalone="no"?>
<!DOCTYPE svg PUBLIC "-//W3C//DTD SVG 20010904//EN"
 "http://www.w3.org/TR/2001/REC-SVG-20010904/DTD/svg10.dtd">
<svg version="1.0" xmlns="http://www.w3.org/2000/svg"
 width="248.000000pt" height="248.000000pt" viewBox="0 0 248.000000 248.000000"
 preserveAspectRatio="xMidYMid meet">
<metadata>
Created by potrace 1.10, written by Peter Selinger 2001-2011
</metadata>
<g transform="translate(0.000000,248.000000) scale(0.100000,-0.100000)"
fill="#000000" stroke="none">
<path d="M970 1888 c-47 -5 -197 -25 -335 -43 -137 -19 -277 -37 -310 -40 -72
-8 -105 -27 -105 -60 0 -43 33 -54 131 -45 48 4 111 13 140 18 73 14 149 24
149 19 0 -21 -46 -125 -98 -222 -144 -267 -225 -402 -310 -520 -17 -22 -38
-56 -47 -75 -10 -19 -37 -59 -61 -88 -23 -29 -46 -61 -49 -72 -10 -31 12 -60
45 -60 23 0 39 12 78 59 27 32 64 85 83 117 l34 59 7 -40 c4 -22 7 -146 8
-275 0 -257 5 -283 52 -288 20 -2 31 4 44 23 16 24 17 56 10 391 l-7 364 29
43 c34 50 72 118 202 362 24 44 55 116 70 160 l27 80 44 6 c24 4 98 13 163 19
101 11 123 16 142 35 29 29 22 60 -18 74 -17 6 -31 10 -32 10 -1 -1 -39 -6
-86 -11z"/>
</g>
</svg>
