<?xml version="1.0" standalone="no"?>
<!DOCTYPE svg PUBLIC "-//W3C//DTD SVG 20010904//EN"
 "http://www.w3.org/TR/2001/REC-SVG-20010904/DTD/svg10.dtd">
<svg version="1.0" xmlns="http://www.w3.org/2000/svg"
 width="248.000000pt" height="248.000000pt" viewBox="0 0 248.000000 248.000000"
 preserveAspectRatio="xMidYMid meet">
<metadata>
Created by potrace 1.10, written by Peter Selinger 2001-2011
</metadata>
<g transform="translate(0.000000,248.000000) scale(0.100000,-0.100000)"
fill="#000000" stroke="none">
<path d="M1595 2059 c-33 -4 -134 -15 -225 -23 -91 -8 -273 -29 -405 -46 -132
-17 -301 -35 -375 -41 -74 -6 -140 -15 -147 -21 -18 -14 -16 -53 2 -68 17 -14
245 -8 360 9 121 19 195 23 195 12 0 -26 -116 -304 -165 -398 -117 -222 -298
-458 -489 -638 -102 -97 -126 -125 -124 -144 2 -13 10 -28 19 -34 35 -22 73 5
235 167 115 115 165 159 169 148 3 -8 10 -72 16 -141 5 -69 11 -135 13 -146 6
-35 21 -308 18 -336 -2 -14 6 -36 16 -49 l19 -24 359 18 c198 9 444 16 548 15
147 -1 191 2 201 12 35 37 93 286 124 529 12 91 26 195 31 233 15 105 13 124
-15 143 -22 14 -52 15 -262 10 -362 -10 -710 -45 -930 -92 -13 -2 -23 0 -23 5
0 5 28 51 61 102 104 158 259 496 278 604 6 38 9 40 51 47 25 4 122 15 215 23
94 8 204 19 245 25 41 5 161 13 265 16 105 4 196 11 203 17 15 12 16 49 0 65
-14 14 -383 15 -483 1z m288 -979 c-2 -41 -10 -122 -18 -180 -9 -58 -18 -121
-21 -140 -17 -130 -63 -310 -85 -336 -9 -12 -55 -14 -233 -14 -237 1 -461 -6
-621 -20 -67 -6 -102 -5 -106 1 -3 6 -9 65 -13 132 -4 67 -16 212 -26 321 -11
110 -19 200 -17 202 11 12 396 64 622 85 119 10 452 27 500 25 18 -1 20 -7 18
-76z"/>
</g>
</svg>
