<?xml version="1.0" standalone="no"?>
<!DOCTYPE svg PUBLIC "-//W3C//DTD SVG 20010904//EN"
 "http://www.w3.org/TR/2001/REC-SVG-20010904/DTD/svg10.dtd">
<svg version="1.0" xmlns="http://www.w3.org/2000/svg"
 width="248.000000pt" height="248.000000pt" viewBox="0 0 248.000000 248.000000"
 preserveAspectRatio="xMidYMid meet">
<metadata>
Created by potrace 1.10, written by Peter Selinger 2001-2011
</metadata>
<g transform="translate(0.000000,248.000000) scale(0.100000,-0.100000)"
fill="#000000" stroke="none">
<path d="M2069 2424 c-10 -12 -15 -62 -19 -178 l-5 -161 -70 -8 c-88 -10 -119
-25 -123 -58 -4 -38 22 -54 84 -52 l53 3 -9 -29 c-9 -32 -73 -155 -113 -218
-26 -40 -47 -55 -47 -33 0 5 -18 21 -40 35 -22 14 -80 62 -130 106 -66 59 -90
87 -90 105 0 20 5 24 30 24 40 0 132 20 148 32 17 15 15 54 -4 73 -16 15 -72
15 -149 0 -20 -4 -20 0 -17 143 3 164 -5 195 -50 200 -49 6 -58 -24 -58 -193
0 -82 -4 -156 -8 -162 -5 -7 -52 -20 -106 -28 -54 -8 -104 -20 -112 -26 -22
-18 -17 -57 11 -75 22 -14 35 -15 88 -6 34 5 64 8 66 6 2 -1 -2 -17 -7 -34
-19 -54 -104 -171 -194 -267 -88 -92 -103 -124 -76 -151 27 -27 59 -12 130 56
38 37 92 97 120 135 27 37 52 67 54 67 2 0 1 -55 -2 -123 -8 -136 -2 -152 53
-145 38 4 51 45 58 201 l7 127 68 -63 c38 -35 90 -74 117 -88 26 -13 50 -25
52 -26 2 -1 -6 -14 -18 -29 -36 -45 -19 -104 29 -104 31 0 150 152 217 275
l33 60 0 -182 c0 -169 1 -184 20 -203 11 -11 27 -20 35 -20 8 0 24 9 35 20 18
18 20 33 20 178 l0 157 89 -93 c76 -81 92 -93 116 -90 36 4 52 29 40 62 -6 14
-63 82 -128 151 -115 123 -118 127 -115 168 l3 41 83 12 c112 16 152 54 102
99 -16 14 -29 16 -77 10 -32 -3 -68 -9 -80 -12 l-23 -5 0 144 c0 114 -3 148
-16 166 -18 26 -56 29 -75 6z"/>
<path d="M970 1888 c-47 -5 -197 -25 -335 -43 -137 -19 -277 -37 -310 -40 -33
-4 -70 -13 -82 -21 -29 -18 -30 -58 -2 -78 25 -17 60 -15 257 16 73 11 135 18
138 15 8 -8 -28 -101 -69 -177 -146 -273 -249 -446 -335 -565 -17 -22 -38 -56
-47 -75 -10 -19 -37 -59 -61 -88 -23 -29 -46 -61 -49 -72 -10 -31 12 -60 45
-60 23 0 39 12 78 59 27 32 64 84 82 115 18 32 35 54 39 51 3 -4 8 -132 11
-284 4 -223 8 -281 20 -296 13 -16 29 -16 175 -10 187 9 352 28 368 44 6 6 14
35 18 63 26 202 39 339 50 515 10 184 10 205 -5 228 -12 19 -25 25 -50 25 -42
0 -368 -47 -413 -59 -18 -5 -33 -7 -33 -5 0 3 20 39 44 82 23 42 65 118 91
167 26 50 61 114 77 142 16 29 42 90 57 135 l28 83 44 6 c24 4 96 12 159 19
63 6 125 18 138 26 32 21 30 67 -3 82 -14 7 -29 11 -33 11 -4 -1 -45 -6 -92
-11z m-110 -800 c0 -19 -30 -441 -38 -538 l-7 -85 -50 -6 c-27 -3 -111 -9
-186 -13 l-136 -7 -6 292 c-5 223 -4 295 5 301 14 8 146 33 283 52 120 18 135
18 135 4z"/>
<path d="M1990 1389 c-102 -4 -234 -13 -295 -18 -60 -6 -179 -13 -264 -16 -90
-3 -165 -11 -180 -18 -35 -16 -40 -59 -10 -81 22 -15 143 -16 348 -1 l64 5 -6
-424 c-7 -448 -7 -446 40 -446 44 0 55 37 64 208 4 86 8 173 9 193 l0 36 99 7
c105 8 192 26 217 46 18 16 18 54 -1 70 -12 10 -36 10 -116 1 -55 -6 -122 -11
-149 -11 l-50 0 0 163 0 164 98 6 c53 4 135 7 182 7 69 -1 82 -3 69 -13 -22
-17 -28 -38 -18 -64 13 -35 63 -30 135 12 77 46 124 96 124 133 0 57 4 57
-360 41z"/>
</g>
</svg>
