<?xml version="1.0" standalone="no"?>
<!DOCTYPE svg PUBLIC "-//W3C//DTD SVG 20010904//EN"
 "http://www.w3.org/TR/2001/REC-SVG-20010904/DTD/svg10.dtd">
<svg version="1.0" xmlns="http://www.w3.org/2000/svg"
 width="248.000000pt" height="248.000000pt" viewBox="0 0 248.000000 248.000000"
 preserveAspectRatio="xMidYMid meet">
<metadata>
Created by potrace 1.10, written by Peter Selinger 2001-2011
</metadata>
<g transform="translate(0.000000,248.000000) scale(0.100000,-0.100000)"
fill="#000000" stroke="none">
<path d="M970 1888 c-47 -5 -197 -25 -335 -43 -137 -19 -277 -37 -310 -40 -72
-8 -105 -27 -105 -60 0 -44 32 -54 140 -44 52 5 100 11 107 13 15 6 352 51
503 67 95 10 118 16 136 34 29 29 21 60 -18 74 -17 6 -31 10 -32 10 -1 -1 -39
-6 -86 -11z"/>
</g>
</svg>
