<?xml version="1.0" standalone="no"?>
<!DOCTYPE svg PUBLIC "-//W3C//DTD SVG 20010904//EN"
 "http://www.w3.org/TR/2001/REC-SVG-20010904/DTD/svg10.dtd">
<svg version="1.0" xmlns="http://www.w3.org/2000/svg"
 width="248.000000pt" height="248.000000pt" viewBox="0 0 248.000000 248.000000"
 preserveAspectRatio="xMidYMid meet">
<metadata>
Created by potrace 1.10, written by Peter Selinger 2001-2011
</metadata>
<g transform="translate(0.000000,248.000000) scale(0.100000,-0.100000)"
fill="#000000" stroke="none">
<path d="M1595 2059 c-33 -4 -134 -15 -225 -23 -91 -8 -273 -29 -405 -46 -132
-17 -301 -35 -375 -41 -74 -6 -140 -15 -147 -21 -18 -14 -16 -53 2 -68 17 -14
245 -8 360 9 121 19 195 23 195 12 0 -26 -116 -304 -165 -398 -117 -222 -298
-458 -489 -638 -102 -97 -126 -125 -124 -144 4 -31 28 -46 60 -38 37 10 266
233 364 357 113 141 224 309 289 439 65 130 154 351 164 406 6 38 9 40 51 47
25 4 122 15 215 23 94 8 204 19 245 25 41 5 161 13 265 16 105 4 196 11 203
17 15 12 16 49 0 65 -14 14 -383 15 -483 1z"/>
</g>
</svg>
