<?xml version="1.0" standalone="no"?>
<!DOCTYPE svg PUBLIC "-//W3C//DTD SVG 20010904//EN"
 "http://www.w3.org/TR/2001/REC-SVG-20010904/DTD/svg10.dtd">
<svg version="1.0" xmlns="http://www.w3.org/2000/svg"
 width="248.000000pt" height="248.000000pt" viewBox="0 0 248.000000 248.000000"
 preserveAspectRatio="xMidYMid meet">
<metadata>
Created by potrace 1.10, written by Peter Selinger 2001-2011
</metadata>
<g transform="translate(0.000000,248.000000) scale(0.100000,-0.100000)"
fill="#000000" stroke="none">
<path d="M1595 2059 c-33 -4 -134 -15 -225 -23 -91 -8 -273 -29 -405 -46 -132
-17 -301 -35 -375 -41 -74 -6 -140 -15 -147 -21 -18 -14 -16 -53 2 -68 18 -15
230 -9 365 10 176 24 481 60 560 65 47 4 139 13 205 21 66 8 203 17 305 21
102 3 191 10 198 16 15 12 16 49 0 65 -14 14 -383 15 -483 1z"/>
</g>
</svg>
