<?xml version="1.0" standalone="no"?>
<!DOCTYPE svg PUBLIC "-//W3C//DTD SVG 20010904//EN"
 "http://www.w3.org/TR/2001/REC-SVG-20010904/DTD/svg10.dtd">
<svg version="1.0" xmlns="http://www.w3.org/2000/svg"
 width="248.000000pt" height="248.000000pt" viewBox="0 0 248.000000 248.000000"
 preserveAspectRatio="xMidYMid meet">
<metadata>
Created by potrace 1.10, written by Peter Selinger 2001-2011
</metadata>
<g transform="translate(0.000000,248.000000) scale(0.100000,-0.100000)"
fill="#000000" stroke="none">
<path d="M2069 2424 c-10 -12 -15 -62 -19 -178 l-5 -161 -70 -8 c-93 -11 -120
-25 -120 -62 0 -39 35 -57 92 -49 l42 6 -8 -30 c-10 -33 -73 -155 -114 -219
-26 -40 -47 -55 -47 -33 0 5 -18 21 -40 35 -74 47 -220 185 -220 209 0 20 8
23 80 32 44 6 86 17 95 24 20 16 19 54 -1 75 -17 16 -56 16 -144 -1 l-25 -5 3
148 c3 170 -4 198 -53 198 -47 0 -55 -29 -55 -195 0 -80 -4 -151 -8 -158 -5
-7 -46 -17 -93 -23 -109 -14 -134 -26 -134 -64 0 -44 39 -60 113 -47 31 6 59
8 61 7 2 -2 -2 -18 -7 -35 -19 -54 -104 -171 -194 -267 -88 -92 -103 -124 -76
-151 7 -7 23 -12 36 -12 30 0 131 96 209 197 31 40 57 73 60 73 2 0 0 -55 -3
-123 -8 -136 -2 -152 53 -145 38 4 51 45 58 201 l7 127 68 -63 c38 -35 90 -74
117 -88 26 -13 50 -25 52 -26 2 -1 -6 -14 -18 -29 -25 -32 -27 -67 -5 -88 23
-23 47 -20 76 12 51 54 146 188 176 247 l31 60 1 -182 c0 -169 2 -185 20 -203
11 -11 27 -20 35 -20 8 0 24 9 35 20 18 18 20 33 20 178 l0 157 89 -93 c76
-81 92 -93 116 -90 36 4 52 29 40 62 -6 14 -63 81 -127 150 -110 118 -118 129
-118 166 0 45 -4 43 100 59 102 16 138 53 91 95 -17 15 -30 17 -83 11 -35 -3
-71 -9 -80 -11 -17 -5 -18 6 -18 138 0 114 -3 148 -16 166 -18 26 -56 29 -75
6z"/>
<path d="M970 1888 c-47 -5 -197 -25 -335 -43 -137 -19 -277 -37 -310 -40 -72
-8 -105 -27 -105 -60 0 -43 33 -54 131 -45 48 4 111 13 140 18 73 14 149 24
149 19 0 -21 -46 -125 -98 -222 -143 -265 -223 -399 -309 -517 -14 -21 -38
-58 -52 -83 -14 -24 -46 -70 -70 -101 -39 -48 -43 -59 -35 -82 7 -20 17 -28
41 -30 28 -3 37 4 81 56 27 33 64 85 82 116 18 32 35 54 39 51 3 -4 8 -132 11
-285 4 -247 7 -281 22 -297 16 -16 32 -16 220 -4 217 13 305 24 321 40 6 6 14
37 18 68 5 32 13 90 18 128 6 39 18 183 27 322 18 286 16 305 -43 311 -34 3
-369 -42 -422 -58 -17 -5 -31 -6 -31 -4 0 3 17 36 38 72 37 63 60 105 163 299
23 43 54 114 69 158 l27 80 54 7 c30 4 103 12 164 19 90 10 113 16 132 35 28
28 20 59 -19 73 -17 6 -31 10 -32 10 -1 -1 -39 -6 -86 -11z m-110 -800 c0 -19
-30 -441 -38 -538 l-7 -85 -51 -6 c-28 -4 -111 -10 -186 -14 l-135 -7 -6 293
c-5 202 -3 295 4 300 17 10 333 65 392 68 15 0 27 -4 27 -11z"/>
<path d="M1940 1384 c-124 -7 -323 -17 -443 -23 -135 -7 -229 -16 -245 -23
-36 -17 -41 -60 -11 -82 22 -15 141 -16 347 -1 l62 4 -1 -277 c-1 -152 -4
-337 -8 -411 -7 -149 -1 -174 41 -179 20 -2 31 4 44 23 21 33 33 236 34 596
l0 256 98 6 c130 9 270 8 256 -1 -21 -14 -32 -47 -23 -69 13 -35 63 -30 135
12 77 46 124 96 124 133 0 59 -7 59 -410 36z"/>
</g>
</svg>
