<?xml version="1.0" standalone="no"?>
<!DOCTYPE svg PUBLIC "-//W3C//DTD SVG 20010904//EN"
 "http://www.w3.org/TR/2001/REC-SVG-20010904/DTD/svg10.dtd">
<svg version="1.0" xmlns="http://www.w3.org/2000/svg"
 width="248.000000pt" height="248.000000pt" viewBox="0 0 248.000000 248.000000"
 preserveAspectRatio="xMidYMid meet">
<metadata>
Created by potrace 1.10, written by Peter Selinger 2001-2011
</metadata>
<g transform="translate(0.000000,248.000000) scale(0.100000,-0.100000)"
fill="#000000" stroke="none">
<path d="M1479 2394 c-10 -13 -15 -60 -19 -180 -3 -89 -8 -165 -11 -168 -3 -4
-44 -11 -90 -17 -109 -14 -134 -26 -134 -64 0 -44 39 -60 113 -47 31 6 59 8
61 7 2 -2 -2 -18 -7 -35 -19 -54 -104 -171 -194 -267 -88 -92 -103 -124 -76
-151 7 -7 23 -12 36 -12 30 0 131 96 209 197 31 40 57 73 60 73 2 0 0 -55 -3
-123 -8 -136 -2 -152 53 -145 38 4 51 45 59 201 l6 128 58 -55 c130 -124 220
-150 220 -64 0 22 -9 33 -40 53 -74 47 -220 185 -220 209 0 20 8 23 80 32 44
6 86 17 95 24 20 16 19 54 -1 75 -17 16 -56 16 -144 -1 l-25 -5 3 148 c2 108
-1 155 -10 173 -16 31 -59 38 -79 14z"/>
<path d="M970 1888 c-47 -5 -197 -25 -335 -43 -137 -19 -277 -37 -310 -40 -72
-8 -105 -27 -105 -60 0 -43 33 -54 131 -45 48 4 111 13 140 18 73 14 149 24
149 19 0 -21 -46 -125 -98 -222 -143 -265 -223 -399 -309 -517 -14 -21 -38
-58 -52 -83 -14 -24 -46 -70 -70 -101 -39 -48 -43 -59 -35 -82 7 -20 17 -28
41 -30 28 -3 37 4 81 56 27 33 64 85 82 116 18 32 35 54 39 51 3 -4 8 -132 11
-285 4 -247 7 -281 22 -297 16 -16 32 -16 220 -4 217 13 305 24 321 40 6 6 14
37 18 68 5 32 13 90 18 128 6 39 18 183 27 322 18 286 16 305 -43 311 -34 3
-369 -42 -422 -58 -17 -5 -31 -6 -31 -4 0 3 17 36 38 72 37 63 60 105 163 299
23 43 54 114 69 158 l27 80 54 7 c30 4 103 12 164 19 90 10 113 16 132 35 28
28 20 59 -19 73 -17 6 -31 10 -32 10 -1 -1 -39 -6 -86 -11z m-110 -800 c0 -19
-30 -441 -38 -538 l-7 -85 -51 -6 c-28 -4 -111 -10 -186 -14 l-135 -7 -6 293
c-5 202 -3 295 4 300 17 10 333 65 392 68 15 0 27 -4 27 -11z"/>
</g>
</svg>
