<?xml version="1.0" standalone="no"?>
<!DOCTYPE svg PUBLIC "-//W3C//DTD SVG 20010904//EN"
 "http://www.w3.org/TR/2001/REC-SVG-20010904/DTD/svg10.dtd">
<svg version="1.0" xmlns="http://www.w3.org/2000/svg"
 width="248.000000pt" height="248.000000pt" viewBox="0 0 248.000000 248.000000"
 preserveAspectRatio="xMidYMid meet">
<metadata>
Created by potrace 1.10, written by Peter Selinger 2001-2011
</metadata>
<g transform="translate(0.000000,248.000000) scale(0.100000,-0.100000)"
fill="#000000" stroke="none">
<path d="M1070 2343 c-22 -8 -40 -34 -40 -57 0 -30 -78 -137 -177 -245 -92
-99 -222 -212 -323 -281 -68 -46 -79 -77 -36 -105 22 -15 27 -15 58 1 45 23
85 53 213 160 120 100 233 224 308 337 59 90 66 99 77 92 4 -3 116 -5 249 -5
161 -1 241 -4 241 -11 0 -15 -32 -60 -111 -155 -68 -81 -114 -123 -224 -203
-33 -24 -76 -59 -95 -77 -34 -32 -40 -34 -175 -49 -253 -29 -271 -33 -275 -65
-8 -56 24 -76 93 -60 24 5 153 21 287 34 329 34 541 58 562 62 27 5 30 -11 14
-73 -8 -32 -30 -150 -50 -263 -20 -113 -46 -236 -58 -274 -24 -76 -19 -94 26
-111 56 -20 69 18 131 375 15 85 34 180 42 210 9 30 18 92 20 136 6 79 5 82
-20 99 -14 9 -30 14 -34 12 -11 -7 -404 -50 -409 -45 -2 3 24 25 59 51 86 64
114 92 188 183 110 135 169 226 169 262 0 44 -17 47 -339 53 -168 4 -317 9
-331 12 -14 3 -32 3 -40 0z"/>
</g>
</svg>
