<?xml version="1.0" standalone="no"?>
<!DOCTYPE svg PUBLIC "-//W3C//DTD SVG 20010904//EN"
 "http://www.w3.org/TR/2001/REC-SVG-20010904/DTD/svg10.dtd">
<svg version="1.0" xmlns="http://www.w3.org/2000/svg"
 width="248.000000pt" height="248.000000pt" viewBox="0 0 248.000000 248.000000"
 preserveAspectRatio="xMidYMid meet">
<metadata>
Created by potrace 1.10, written by Peter Selinger 2001-2011
</metadata>
<g transform="translate(0.000000,248.000000) scale(0.100000,-0.100000)"
fill="#000000" stroke="none">
<path d="M1070 2343 c-22 -8 -40 -34 -40 -57 0 -30 -78 -137 -177 -245 -92
-99 -222 -212 -323 -281 -68 -46 -79 -77 -36 -105 22 -15 27 -15 58 1 45 23
85 53 213 160 120 100 233 224 308 337 59 90 66 99 77 92 4 -3 116 -5 249 -5
161 -1 241 -4 241 -11 0 -15 -32 -60 -111 -155 -68 -81 -114 -123 -224 -203
-117 -85 -146 -126 -113 -159 24 -24 56 -10 166 72 144 107 176 137 254 232
109 135 168 226 168 262 0 44 -17 47 -339 53 -168 4 -317 9 -331 12 -14 3 -32
3 -40 0z"/>
</g>
</svg>
