<?xml version="1.0" standalone="no"?>
<!DOCTYPE svg PUBLIC "-//W3C//DTD SVG 20010904//EN"
 "http://www.w3.org/TR/2001/REC-SVG-20010904/DTD/svg10.dtd">
<svg version="1.0" xmlns="http://www.w3.org/2000/svg"
 width="248.000000pt" height="248.000000pt" viewBox="0 0 248.000000 248.000000"
 preserveAspectRatio="xMidYMid meet">
<metadata>
Created by potrace 1.10, written by Peter Selinger 2001-2011
</metadata>
<g transform="translate(0.000000,248.000000) scale(0.100000,-0.100000)"
fill="#000000" stroke="none">
<path d="M1070 2343 c-22 -8 -40 -34 -40 -57 0 -30 -78 -137 -177 -245 -92
-99 -222 -212 -323 -281 -68 -46 -79 -77 -36 -105 22 -15 27 -15 58 1 45 23
85 53 213 160 120 100 233 224 308 337 59 90 66 99 77 92 4 -3 116 -5 249 -5
161 -1 241 -4 241 -11 0 -15 -32 -60 -111 -155 -68 -81 -114 -123 -224 -203
-33 -24 -76 -59 -95 -77 -34 -32 -40 -34 -175 -49 -253 -29 -271 -33 -275 -65
-8 -56 24 -76 93 -60 24 5 153 21 287 34 329 34 541 58 562 62 28 5 30 -11 9
-98 -11 -46 -22 -102 -26 -124 l-6 -42 -122 -7 c-168 -9 -582 -60 -692 -85
-22 -5 -56 -10 -75 -10 -20 0 -41 -5 -48 -12 -18 -18 -14 -53 8 -73 21 -19 16
-20 280 20 171 26 399 53 496 60 50 4 100 7 110 8 15 2 18 -4 16 -28 -7 -66
-35 -211 -44 -221 -5 -7 -39 -15 -76 -18 -37 -4 -121 -13 -187 -21 -66 -8
-178 -21 -250 -30 -181 -22 -318 -45 -332 -57 -18 -14 -16 -53 2 -68 18 -15
76 -11 295 18 296 40 416 53 510 59 69 4 100 10 112 22 18 16 43 128 88 386
12 72 29 155 37 185 9 30 18 92 20 136 6 79 5 82 -20 99 -14 9 -30 14 -34 12
-11 -7 -404 -50 -409 -45 -2 3 24 25 59 51 86 64 114 92 188 183 110 135 169
226 169 262 0 44 -17 47 -339 53 -168 4 -317 9 -331 12 -14 3 -32 3 -40 0z"/>
<path d="M2042 998 c-26 -26 -11 -58 79 -165 50 -59 104 -116 120 -127 27 -17
31 -17 54 -2 14 9 25 25 25 35 0 17 -65 100 -179 229 -38 43 -75 54 -99 30z"/>
<path d="M1472 808 c-17 -17 -15 -41 7 -90 11 -24 32 -73 47 -110 21 -53 33
-69 54 -77 55 -19 94 46 54 90 -8 9 -26 50 -40 90 -14 40 -32 81 -41 91 -18
21 -63 24 -81 6z"/>
<path d="M930 730 c-17 -17 -19 -29 -14 -97 7 -95 16 -127 64 -223 76 -151
171 -218 425 -297 88 -27 95 -27 345 -28 201 0 273 4 339 17 121 24 126 32
125 166 0 59 -6 124 -13 145 -21 63 -76 83 -101 36 -7 -12 -5 -36 5 -75 13
-52 21 -164 11 -164 -2 0 -57 -9 -122 -21 -102 -18 -141 -20 -274 -14 -85 3
-177 11 -205 16 -71 13 -200 56 -259 86 -121 61 -148 90 -206 223 -26 59 -33
89 -34 148 -2 60 -6 77 -21 88 -26 19 -41 18 -65 -6z"/>
<path d="M508 623 c-22 -26 -33 -48 -63 -138 -15 -44 -45 -119 -66 -166 -41
-90 -47 -127 -27 -147 30 -30 77 -5 93 48 4 14 19 48 33 75 24 48 98 245 109
293 11 46 -47 71 -79 35z"/>
</g>
</svg>
