<?xml version="1.0" standalone="no"?>
<!DOCTYPE svg PUBLIC "-//W3C//DTD SVG 20010904//EN"
 "http://www.w3.org/TR/2001/REC-SVG-20010904/DTD/svg10.dtd">
<svg version="1.0" xmlns="http://www.w3.org/2000/svg"
 width="248.000000pt" height="248.000000pt" viewBox="0 0 248.000000 248.000000"
 preserveAspectRatio="xMidYMid meet">
<metadata>
Created by potrace 1.10, written by Peter Selinger 2001-2011
</metadata>
<g transform="translate(0.000000,248.000000) scale(0.100000,-0.100000)"
fill="#000000" stroke="none">
<path d="M559 2204 c-21 -25 -38 -319 -59 -994 -6 -190 -15 -385 -20 -435 -5
-49 -10 -180 -10 -290 0 -218 6 -245 55 -245 50 0 54 22 55 298 0 140 2 257 4
261 6 9 24 390 31 641 9 349 16 514 21 554 16 124 16 177 0 201 -19 29 -57 33
-77 9z"/>
<path d="M1607 2187 c-15 -10 -18 -33 -21 -132 -5 -149 -23 -336 -33 -346 -8
-8 -39 -14 -253 -44 -58 -8 -112 -18 -120 -21 -8 -3 -45 -9 -83 -14 -37 -4
-74 -14 -82 -20 -19 -16 -19 -54 -1 -69 18 -15 107 -16 166 -2 94 22 85 60 83
-356 -2 -391 4 -457 48 -550 67 -140 231 -226 491 -259 118 -15 137 -15 239
-1 62 9 122 23 134 31 29 19 36 50 18 76 -17 24 -16 24 -138 1 -74 -14 -210
-13 -300 3 -152 27 -252 72 -312 140 -65 74 -66 83 -71 461 -4 386 1 482 26
489 50 15 425 51 701 67 183 11 217 15 233 31 24 24 23 43 -3 69 -20 20 -29
21 -93 15 -39 -4 -142 -11 -229 -16 -88 -6 -171 -12 -185 -14 -72 -12 -157
-11 -154 2 6 32 27 314 26 369 0 87 -38 126 -87 90z"/>
<path d="M792 1678 c-14 -14 -16 -64 -3 -72 5 -3 12 -23 16 -43 6 -36 60 -266
72 -306 7 -27 46 -42 72 -28 29 16 27 55 -9 209 -46 190 -59 231 -80 242 -25
13 -53 13 -68 -2z"/>
<path d="M267 1598 c-16 -12 -110 -265 -143 -383 -28 -102 -17 -155 32 -155
29 0 50 31 58 86 3 22 35 123 71 225 36 101 65 187 65 192 0 12 -39 47 -53 47
-7 0 -21 -6 -30 -12z"/>
</g>
</svg>
