<?xml version="1.0" standalone="no"?>
<!DOCTYPE svg PUBLIC "-//W3C//DTD SVG 20010904//EN"
 "http://www.w3.org/TR/2001/REC-SVG-20010904/DTD/svg10.dtd">
<svg version="1.0" xmlns="http://www.w3.org/2000/svg"
 width="248.000000pt" height="248.000000pt" viewBox="0 0 248.000000 248.000000"
 preserveAspectRatio="xMidYMid meet">
<metadata>
Created by potrace 1.10, written by Peter Selinger 2001-2011
</metadata>
<g transform="translate(0.000000,248.000000) scale(0.100000,-0.100000)"
fill="#000000" stroke="none">
<path d="M1246 2377 c-16 -12 -18 -32 -20 -179 0 -92 -5 -170 -9 -174 -5 -5
-45 -12 -90 -15 -45 -4 -154 -17 -242 -29 -88 -12 -202 -25 -253 -29 -84 -5
-96 -9 -114 -31 -21 -26 -21 -40 2 -133 16 -64 8 -339 -14 -512 -23 -180 -69
-396 -111 -523 -50 -150 -144 -339 -215 -434 -39 -51 -60 -88 -58 -102 3 -23
43 -47 65 -39 30 12 127 144 179 245 129 253 204 515 239 836 9 75 17 143 20
150 12 33 16 274 6 346 -6 44 -10 80 -9 82 5 4 189 32 323 49 157 20 459 46
920 81 150 11 238 22 253 31 30 18 29 58 -3 79 -21 14 -37 15 -127 5 -57 -6
-196 -18 -309 -26 -113 -8 -238 -18 -278 -21 l-72 -7 7 95 c14 204 -21 305
-90 255z"/>
<path d="M1595 1794 c-99 -18 -238 -40 -310 -49 -157 -20 -286 -42 -340 -60
-22 -7 -52 -16 -67 -19 -50 -11 -61 -73 -17 -97 15 -8 38 -5 92 10 89 25 204
47 322 60 50 6 144 20 210 30 65 11 121 19 123 17 6 -6 -183 -179 -227 -207
l-43 -28 -50 25 c-81 41 -148 32 -148 -21 0 -27 11 -36 71 -59 25 -9 56 -28
69 -41 13 -14 34 -25 47 -25 13 0 62 -18 108 -40 97 -46 141 -51 154 -17 13
32 -7 57 -69 89 -29 15 -55 29 -58 32 -2 3 19 27 49 53 30 26 68 62 84 79 32
32 142 134 213 196 47 41 51 59 22 88 -24 24 -14 25 -235 -16z"/>
<path d="M161 1616 c-21 -25 -17 -67 8 -85 12 -9 65 -53 117 -98 94 -82 126
-97 152 -71 28 28 13 62 -55 126 -142 134 -193 164 -222 128z"/>
<path d="M306 1159 c-15 -11 -45 -49 -68 -82 -23 -34 -56 -80 -73 -102 -114
-144 -132 -190 -84 -216 41 -22 38 -25 231 245 43 60 78 117 78 127 0 16 -34
49 -51 49 -3 0 -18 -9 -33 -21z"/>
<path d="M862 1078 c-5 -8 -12 -133 -16 -293 -4 -154 -11 -320 -16 -370 -14
-129 -12 -259 2 -273 18 -18 53 -14 74 9 16 18 19 40 22 133 1 61 6 149 11
196 8 87 15 284 16 466 0 86 -3 105 -19 123 -21 23 -58 28 -74 9z"/>
</g>
</svg>
