<?xml version="1.0" standalone="no"?>
<!DOCTYPE svg PUBLIC "-//W3C//DTD SVG 20010904//EN"
 "http://www.w3.org/TR/2001/REC-SVG-20010904/DTD/svg10.dtd">
<svg version="1.0" xmlns="http://www.w3.org/2000/svg"
 width="248.000000pt" height="248.000000pt" viewBox="0 0 248.000000 248.000000"
 preserveAspectRatio="xMidYMid meet">
<metadata>
Created by potrace 1.10, written by Peter Selinger 2001-2011
</metadata>
<g transform="translate(0.000000,248.000000) scale(0.100000,-0.100000)"
fill="#000000" stroke="none">
<path d="M1246 2377 c-16 -12 -18 -32 -20 -179 0 -92 -5 -170 -9 -174 -5 -5
-45 -12 -90 -15 -45 -4 -154 -17 -242 -29 -88 -12 -202 -25 -253 -29 -84 -5
-96 -9 -114 -31 -21 -26 -21 -40 2 -133 16 -64 8 -339 -14 -512 -23 -180 -69
-396 -111 -523 -50 -150 -144 -339 -215 -434 -39 -51 -60 -88 -58 -102 3 -23
43 -47 65 -39 30 12 127 144 179 245 129 253 204 515 239 836 9 75 17 143 20
150 12 33 16 274 6 346 -6 44 -10 80 -9 82 5 4 189 32 323 49 157 20 459 46
920 81 150 11 238 22 253 31 30 18 29 58 -3 79 -21 14 -37 15 -127 5 -57 -6
-196 -18 -309 -26 -113 -8 -238 -18 -278 -21 l-72 -7 7 95 c14 204 -21 305
-90 255z"/>
</g>
</svg>
