<?xml version="1.0" standalone="no"?>
<!DOCTYPE svg PUBLIC "-//W3C//DTD SVG 20010904//EN"
 "http://www.w3.org/TR/2001/REC-SVG-20010904/DTD/svg10.dtd">
<svg version="1.0" xmlns="http://www.w3.org/2000/svg"
 width="248.000000pt" height="248.000000pt" viewBox="0 0 248.000000 248.000000"
 preserveAspectRatio="xMidYMid meet">
<metadata>
Created by potrace 1.10, written by Peter Selinger 2001-2011
</metadata>
<g transform="translate(0.000000,248.000000) scale(0.100000,-0.100000)"
fill="#000000" stroke="none">
<path d="M1246 2377 c-16 -12 -18 -32 -20 -179 0 -92 -5 -170 -9 -174 -5 -5
-45 -12 -90 -15 -45 -4 -154 -17 -242 -29 -88 -12 -202 -25 -253 -29 -84 -5
-96 -9 -114 -31 -21 -26 -21 -40 2 -133 16 -64 8 -339 -14 -512 -23 -180 -69
-396 -111 -523 -50 -150 -144 -339 -215 -434 -39 -51 -60 -88 -58 -102 3 -23
43 -47 65 -39 30 12 127 144 179 245 129 253 204 515 239 836 9 75 17 143 20
150 12 33 16 274 6 346 -6 44 -10 80 -9 82 5 4 189 32 323 49 157 20 459 46
920 81 150 11 238 22 253 31 30 18 29 58 -3 79 -21 14 -37 15 -127 5 -57 -6
-196 -18 -309 -26 -113 -8 -238 -18 -278 -21 l-72 -7 7 95 c14 204 -21 305
-90 255z"/>
<path d="M1595 1794 c-99 -18 -238 -40 -310 -49 -157 -20 -286 -42 -340 -60
-22 -7 -52 -16 -67 -19 -50 -11 -61 -73 -17 -97 15 -8 38 -5 92 10 89 25 204
47 322 60 50 6 144 20 210 30 65 11 121 19 123 17 6 -6 -183 -179 -227 -207
l-43 -28 -50 25 c-81 41 -148 32 -148 -21 0 -27 11 -36 71 -59 25 -9 56 -28
69 -41 13 -14 34 -25 47 -25 13 0 62 -18 108 -40 97 -46 141 -51 154 -17 13
32 -7 57 -69 89 -29 15 -55 29 -58 32 -2 3 19 27 49 53 30 26 68 62 84 79 32
32 142 134 213 196 47 41 51 59 22 88 -24 24 -14 25 -235 -16z"/>
<path d="M161 1616 c-21 -25 -17 -67 8 -85 12 -9 65 -53 117 -98 94 -82 126
-97 152 -71 28 28 13 62 -55 126 -142 134 -193 164 -222 128z"/>
<path d="M1630 1240 c-335 -28 -526 -54 -727 -97 -12 -3 -34 -16 -49 -30 -22
-20 -25 -29 -19 -56 15 -70 16 -165 5 -413 -7 -143 -14 -310 -17 -372 -6 -121
1 -142 42 -142 46 0 60 33 63 153 2 64 8 114 14 118 22 14 161 40 313 59 145
18 264 28 519 45 l88 5 -4 -162 c-2 -103 -8 -171 -16 -185 -12 -21 -12 -21
-92 24 -82 46 -125 56 -141 32 -14 -23 -10 -55 9 -71 43 -36 205 -119 234
-120 43 -1 72 35 94 119 15 59 18 130 21 554 l4 486 -23 28 c-22 25 -29 27
-123 30 -55 2 -143 0 -195 -5z m230 -204 l0 -104 -37 -6 c-21 -3 -63 -8 -93
-11 -30 -4 -94 -13 -142 -21 -99 -17 -293 -39 -418 -49 -47 -4 -113 -13 -148
-21 -35 -8 -64 -14 -65 -14 -1 0 -2 54 -2 120 l0 120 65 15 c36 8 133 22 215
30 83 9 200 22 260 29 61 8 167 14 238 15 l127 1 0 -104z m-5 -414 c-3 -3 -87
-11 -188 -19 -292 -21 -628 -63 -709 -89 -17 -5 -18 -1 -14 33 2 21 5 63 5 94
l1 56 53 17 c28 9 102 21 162 26 218 21 302 31 425 50 69 11 157 23 195 27
l70 8 3 -99 c1 -54 0 -101 -3 -104z"/>
<path d="M306 1159 c-15 -11 -45 -49 -68 -82 -23 -34 -56 -80 -73 -102 -114
-144 -132 -190 -84 -216 41 -22 38 -25 231 245 43 60 78 117 78 127 0 16 -34
49 -51 49 -3 0 -18 -9 -33 -21z"/>
</g>
</svg>
