<?xml version="1.0" standalone="no"?>
<!DOCTYPE svg PUBLIC "-//W3C//DTD SVG 20010904//EN"
 "http://www.w3.org/TR/2001/REC-SVG-20010904/DTD/svg10.dtd">
<svg version="1.0" xmlns="http://www.w3.org/2000/svg"
 width="248.000000pt" height="248.000000pt" viewBox="0 0 248.000000 248.000000"
 preserveAspectRatio="xMidYMid meet">
<metadata>
Created by potrace 1.10, written by Peter Selinger 2001-2011
</metadata>
<g transform="translate(0.000000,248.000000) scale(0.100000,-0.100000)"
fill="#000000" stroke="none">
<path d="M905 1804 c-90 -15 -199 -33 -390 -64 -71 -12 -177 -24 -235 -27
-112 -6 -130 -13 -130 -48 0 -67 83 -76 335 -36 33 6 105 17 160 26 182 29
209 34 320 50 61 9 120 23 133 31 24 16 29 53 10 72 -15 15 -101 14 -203 -4z"/>
</g>
</svg>
