<?xml version="1.0" standalone="no"?>
<!DOCTYPE svg PUBLIC "-//W3C//DTD SVG 20010904//EN"
 "http://www.w3.org/TR/2001/REC-SVG-20010904/DTD/svg10.dtd">
<svg version="1.0" xmlns="http://www.w3.org/2000/svg"
 width="248.000000pt" height="248.000000pt" viewBox="0 0 248.000000 248.000000"
 preserveAspectRatio="xMidYMid meet">
<metadata>
Created by potrace 1.10, written by Peter Selinger 2001-2011
</metadata>
<g transform="translate(0.000000,248.000000) scale(0.100000,-0.100000)"
fill="#000000" stroke="none">
<path d="M646 2358 c-11 -18 -15 -88 -21 -303 -4 -154 -11 -284 -15 -289 -15
-15 -205 -45 -325 -52 -60 -4 -116 -11 -122 -17 -20 -15 -15 -52 8 -73 18 -16
35 -19 109 -17 48 0 112 6 141 11 30 6 76 14 103 17 l48 7 -7 -44 c-19 -119
-55 -241 -140 -483 -24 -66 -48 -140 -55 -165 -14 -55 -153 -408 -186 -472
-29 -57 -30 -70 -6 -91 40 -36 76 -13 115 73 55 122 137 342 223 595 l75 220
-6 -175 c-4 -96 -10 -339 -14 -540 -6 -300 -5 -369 6 -388 19 -31 58 -29 80 4
15 23 18 74 24 423 8 414 24 820 33 828 2 3 12 -9 20 -26 23 -43 177 -222 221
-255 59 -45 108 -36 108 21 0 19 -9 34 -29 48 -16 11 -42 35 -59 54 -110 124
-137 158 -165 207 -17 31 -44 74 -61 96 -16 23 -29 54 -29 69 0 26 4 28 48 34
26 4 83 13 127 20 44 8 103 17 130 20 62 8 95 28 95 58 0 54 -49 59 -260 23
-74 -12 -135 -22 -135 -22 -1 1 4 126 9 278 8 252 8 279 -8 302 -21 33 -60 34
-80 4z"/>
<path d="M2010 2189 c-220 -39 -402 -62 -612 -78 -61 -4 -113 -13 -122 -21
-14 -10 -16 -44 -16 -219 0 -281 -50 -786 -95 -956 -13 -49 -35 -142 -50 -205
-31 -130 -99 -307 -152 -392 -34 -56 -35 -58 -19 -83 47 -71 111 0 198 220 46
115 54 141 88 290 12 50 30 120 41 157 35 120 99 733 99 956 0 108 3 142 13
142 7 0 51 4 97 10 47 5 128 15 180 21 130 15 517 78 558 90 48 16 65 54 36
83 -21 21 -49 19 -244 -15z"/>
</g>
</svg>
