<?xml version="1.0" standalone="no"?>
<!DOCTYPE svg PUBLIC "-//W3C//DTD SVG 20010904//EN"
 "http://www.w3.org/TR/2001/REC-SVG-20010904/DTD/svg10.dtd">
<svg version="1.0" xmlns="http://www.w3.org/2000/svg"
 width="248.000000pt" height="248.000000pt" viewBox="0 0 248.000000 248.000000"
 preserveAspectRatio="xMidYMid meet">
<metadata>
Created by potrace 1.10, written by Peter Selinger 2001-2011
</metadata>
<g transform="translate(0.000000,248.000000) scale(0.100000,-0.100000)"
fill="#000000" stroke="none">
<path d="M1297 2385 c-68 -46 -195 -112 -360 -185 -53 -24 -106 -52 -117 -62
-36 -34 -20 -88 26 -88 30 0 417 188 496 240 94 63 105 83 68 120 -28 28 -39
26 -113 -25z"/>
<path d="M1707 2106 c-36 -41 -116 -118 -177 -173 -61 -54 -113 -109 -117
-121 -8 -33 26 -67 59 -59 26 7 310 273 346 324 24 35 29 72 10 91 -26 26 -54
12 -121 -62z"/>
<path d="M1052 2068 c-25 -25 -10 -58 79 -171 76 -98 95 -117 118 -117 33 0
51 16 51 46 0 24 -160 238 -185 248 -26 9 -50 7 -63 -6z"/>
<path d="M622 1978 c-20 -20 -14 -55 16 -90 16 -18 55 -68 86 -110 58 -79 85
-95 114 -66 31 31 7 87 -95 213 -51 62 -93 81 -121 53z"/>
<path d="M350 1615 c-7 -8 -16 -52 -21 -98 -4 -45 -15 -120 -23 -166 -16 -87
-12 -111 21 -129 21 -12 50 -4 58 16 10 27 44 212 50 277 7 72 -8 109 -46 113
-14 2 -31 -4 -39 -13z"/>
</g>
</svg>
