<?xml version="1.0" standalone="no"?>
<!DOCTYPE svg PUBLIC "-//W3C//DTD SVG 20010904//EN"
 "http://www.w3.org/TR/2001/REC-SVG-20010904/DTD/svg10.dtd">
<svg version="1.0" xmlns="http://www.w3.org/2000/svg"
 width="248.000000pt" height="248.000000pt" viewBox="0 0 248.000000 248.000000"
 preserveAspectRatio="xMidYMid meet">
<metadata>
Created by potrace 1.10, written by Peter Selinger 2001-2011
</metadata>
<g transform="translate(0.000000,248.000000) scale(0.100000,-0.100000)"
fill="#000000" stroke="none">
<path d="M1415 2350 c-4 -6 -70 -58 -148 -115 -78 -58 -169 -127 -201 -153
-33 -26 -76 -58 -97 -72 -42 -28 -217 -179 -296 -256 -74 -71 -73 -98 5 -158
155 -122 276 -209 305 -219 7 -2 -97 -112 -230 -244 -145 -144 -244 -250 -248
-266 -24 -96 52 -105 435 -52 96 13 256 34 355 46 99 12 207 25 240 30 33 5
109 13 169 19 134 13 161 24 161 65 0 60 -45 61 -445 5 -85 -12 -200 -25 -255
-30 -55 -5 -158 -18 -230 -29 -132 -20 -275 -34 -275 -27 0 3 355 347 617 597
55 53 152 139 215 192 136 113 188 170 188 207 0 60 -55 68 -97 14 -15 -19
-71 -70 -123 -112 -52 -42 -155 -133 -229 -202 -73 -69 -139 -129 -147 -133
-16 -9 -69 17 -144 72 -30 22 -88 63 -128 92 l-73 52 23 22 c53 51 282 243
338 285 34 25 98 73 143 107 45 34 106 78 135 98 103 71 143 130 110 163 -15
15 -64 16 -73 2z"/>
</g>
</svg>
