<?xml version="1.0" standalone="no"?>
<!DOCTYPE svg PUBLIC "-//W3C//DTD SVG 20010904//EN"
 "http://www.w3.org/TR/2001/REC-SVG-20010904/DTD/svg10.dtd">
<svg version="1.0" xmlns="http://www.w3.org/2000/svg"
 width="248.000000pt" height="248.000000pt" viewBox="0 0 248.000000 248.000000"
 preserveAspectRatio="xMidYMid meet">
<metadata>
Created by potrace 1.10, written by Peter Selinger 2001-2011
</metadata>
<g transform="translate(0.000000,248.000000) scale(0.100000,-0.100000)"
fill="#000000" stroke="none">
<path d="M1180 2265 c-12 -15 -11 -33 9 -130 6 -27 13 -67 16 -87 9 -60 75
-77 94 -25 10 26 -4 149 -21 192 -24 62 -69 85 -98 50z"/>
<path d="M1718 2138 c-71 -71 -128 -137 -128 -147 0 -41 55 -55 100 -25 40 27
148 135 186 185 35 48 43 86 22 107 -27 27 -56 7 -180 -120z"/>
<path d="M732 2158 c-16 -16 -15 -57 1 -88 56 -106 101 -187 109 -197 13 -16
60 -17 76 -1 7 7 12 20 12 30 0 23 -99 215 -130 253 -15 18 -51 20 -68 3z"/>
<path d="M1535 1880 c-181 -9 -330 -23 -485 -46 -52 -8 -142 -18 -200 -24
-251 -24 -398 -47 -441 -71 -28 -14 -34 -55 -20 -129 7 -36 17 -105 22 -155 6
-49 17 -100 25 -112 17 -27 56 -30 74 -8 15 19 14 101 -2 195 -19 110 -17 122
17 132 33 10 111 20 319 43 76 8 206 24 290 35 162 21 519 40 748 40 l141 0
-42 -45 c-22 -24 -41 -53 -41 -63 0 -21 29 -52 49 -52 6 0 52 35 101 77 84 72
90 80 90 115 0 30 -6 41 -27 55 -24 16 -54 18 -238 19 -115 1 -286 -2 -380 -6z"/>
<path d="M1425 1608 c-105 -9 -399 -37 -499 -48 -71 -7 -90 -26 -83 -85 3 -22
10 -85 17 -140 6 -55 14 -115 16 -132 10 -67 87 -67 99 0 6 29 -4 129 -21 223
l-6 31 94 12 c51 6 158 16 238 21 80 5 180 12 224 16 l78 7 -7 -34 c-4 -19
-15 -64 -26 -100 -22 -76 -24 -120 -7 -137 19 -19 56 -14 72 11 23 34 77 257
74 302 -5 66 -36 73 -263 53z"/>
</g>
</svg>
