<?xml version="1.0" standalone="no"?>
<!DOCTYPE svg PUBLIC "-//W3C//DTD SVG 20010904//EN"
 "http://www.w3.org/TR/2001/REC-SVG-20010904/DTD/svg10.dtd">
<svg version="1.0" xmlns="http://www.w3.org/2000/svg"
 width="248.000000pt" height="248.000000pt" viewBox="0 0 248.000000 248.000000"
 preserveAspectRatio="xMidYMid meet">
<metadata>
Created by potrace 1.10, written by Peter Selinger 2001-2011
</metadata>
<g transform="translate(0.000000,248.000000) scale(0.100000,-0.100000)"
fill="#000000" stroke="none">
<path d="M1180 2265 c-12 -15 -11 -33 9 -130 6 -27 13 -67 16 -87 9 -60 75
-77 94 -25 10 26 -4 149 -21 192 -24 62 -69 85 -98 50z"/>
<path d="M1718 2138 c-71 -71 -128 -137 -128 -147 0 -41 55 -55 100 -25 40 27
148 135 186 185 35 48 43 86 22 107 -27 27 -56 7 -180 -120z"/>
<path d="M732 2158 c-16 -16 -15 -57 1 -88 56 -106 101 -187 109 -197 13 -16
60 -17 76 -1 7 7 12 20 12 30 0 23 -99 215 -130 253 -15 18 -51 20 -68 3z"/>
<path d="M392 1718 c-16 -16 -15 -69 2 -143 8 -33 17 -94 21 -135 8 -90 25
-123 63 -118 40 5 49 34 40 128 -11 116 -38 242 -56 263 -17 20 -53 22 -70 5z"/>
</g>
</svg>
