<?xml version="1.0" standalone="no"?>
<!DOCTYPE svg PUBLIC "-//W3C//DTD SVG 20010904//EN"
 "http://www.w3.org/TR/2001/REC-SVG-20010904/DTD/svg10.dtd">
<svg version="1.0" xmlns="http://www.w3.org/2000/svg"
 width="248.000000pt" height="248.000000pt" viewBox="0 0 248.000000 248.000000"
 preserveAspectRatio="xMidYMid meet">
<metadata>
Created by potrace 1.10, written by Peter Selinger 2001-2011
</metadata>
<g transform="translate(0.000000,248.000000) scale(0.100000,-0.100000)"
fill="#000000" stroke="none">
<path d="M1180 2265 c-12 -15 -11 -33 9 -130 6 -27 13 -67 16 -87 9 -60 75
-77 94 -25 10 26 -4 149 -21 192 -24 62 -69 85 -98 50z"/>
<path d="M732 2158 c-16 -16 -15 -57 1 -88 56 -106 101 -187 109 -197 13 -16
60 -17 76 -1 7 7 12 20 12 30 0 23 -99 215 -130 253 -15 18 -51 20 -68 3z"/>
</g>
</svg>
