<?xml version="1.0" standalone="no"?>
<!DOCTYPE svg PUBLIC "-//W3C//DTD SVG 20010904//EN"
 "http://www.w3.org/TR/2001/REC-SVG-20010904/DTD/svg10.dtd">
<svg version="1.0" xmlns="http://www.w3.org/2000/svg"
 width="248.000000pt" height="248.000000pt" viewBox="0 0 248.000000 248.000000"
 preserveAspectRatio="xMidYMid meet">
<metadata>
Created by potrace 1.10, written by Peter Selinger 2001-2011
</metadata>
<g transform="translate(0.000000,248.000000) scale(0.100000,-0.100000)"
fill="#000000" stroke="none">
<path d="M462 2268 c-19 -19 -14 -56 11 -72 12 -8 76 -38 143 -66 66 -28 136
-62 154 -75 41 -30 83 -32 110 -5 42 42 28 57 -135 133 -223 103 -255 113
-283 85z"/>
<path d="M805 1816 c-79 -21 -348 -82 -484 -111 -69 -14 -131 -31 -138 -37
-16 -13 -17 -50 -1 -66 16 -16 81 -15 148 3 30 8 93 22 140 30 47 9 126 26
175 39 50 12 92 19 93 14 9 -21 -258 -430 -352 -542 -138 -163 -226 -279 -226
-296 0 -24 26 -50 50 -50 31 0 272 292 387 466 43 66 99 148 124 184 25 36 67
106 93 155 26 50 61 102 78 117 30 26 41 69 22 88 -17 16 -59 19 -109 6z"/>
</g>
</svg>
