<?xml version="1.0" standalone="no"?>
<!DOCTYPE svg PUBLIC "-//W3C//DTD SVG 20010904//EN"
 "http://www.w3.org/TR/2001/REC-SVG-20010904/DTD/svg10.dtd">
<svg version="1.0" xmlns="http://www.w3.org/2000/svg"
 width="248.000000pt" height="248.000000pt" viewBox="0 0 248.000000 248.000000"
 preserveAspectRatio="xMidYMid meet">
<metadata>
Created by potrace 1.10, written by Peter Selinger 2001-2011
</metadata>
<g transform="translate(0.000000,248.000000) scale(0.100000,-0.100000)"
fill="#000000" stroke="none">
<path d="M462 2268 c-19 -19 -14 -56 11 -72 12 -8 76 -38 143 -66 66 -28 136
-62 154 -75 41 -30 83 -32 110 -5 42 42 28 57 -135 133 -223 103 -255 113
-283 85z"/>
<path d="M805 1816 c-79 -21 -348 -82 -484 -111 -69 -14 -131 -31 -138 -37
-16 -13 -17 -50 -1 -66 16 -16 81 -15 148 3 30 8 93 22 140 30 47 9 126 26
175 39 50 12 92 19 93 14 9 -20 -258 -430 -353 -543 -139 -165 -225 -278 -225
-295 0 -24 26 -50 50 -50 19 0 65 50 205 222 39 48 74 83 78 78 10 -9 -9 -523
-24 -668 -10 -94 -9 -105 7 -123 20 -22 56 -25 72 -6 15 18 20 72 27 285 3
103 8 201 11 218 2 17 4 92 5 167 0 75 2 137 5 137 3 0 25 -16 48 -35 75 -61
160 -115 183 -115 27 0 56 40 47 64 -4 9 -39 39 -79 66 -76 51 -195 156 -195
171 0 11 63 110 112 175 20 27 63 97 94 155 30 57 69 116 86 131 30 26 41 69
22 88 -17 16 -59 19 -109 6z"/>
</g>
</svg>
