<?xml version="1.0" standalone="no"?>
<!DOCTYPE svg PUBLIC "-//W3C//DTD SVG 20010904//EN"
 "http://www.w3.org/TR/2001/REC-SVG-20010904/DTD/svg10.dtd">
<svg version="1.0" xmlns="http://www.w3.org/2000/svg"
 width="248.000000pt" height="248.000000pt" viewBox="0 0 248.000000 248.000000"
 preserveAspectRatio="xMidYMid meet">
<metadata>
Created by potrace 1.10, written by Peter Selinger 2001-2011
</metadata>
<g transform="translate(0.000000,248.000000) scale(0.100000,-0.100000)"
fill="#000000" stroke="none">
<path d="M1088 2197 c-86 -85 -172 -161 -191 -170 -19 -10 -59 -17 -90 -17
-59 0 -79 -13 -80 -52 0 -24 14 -161 38 -358 8 -63 17 -161 20 -216 8 -122 19
-149 60 -149 57 0 63 49 34 290 -9 80 -39 365 -39 376 0 4 19 9 43 12 23 3
125 21 227 40 223 42 329 57 394 57 l48 0 -5 -47 c-3 -27 -10 -133 -16 -238
-6 -104 -15 -217 -21 -250 -15 -91 -15 -172 0 -190 18 -22 57 -19 74 8 8 12
18 47 21 77 3 30 10 91 16 135 11 95 32 429 31 500 -2 120 -48 132 -337 91
-55 -8 -122 -20 -149 -26 -27 -6 -50 -9 -51 -8 -2 2 41 50 96 108 100 106 116
139 87 168 -28 28 -55 10 -210 -141z"/>
</g>
</svg>
