<?xml version="1.0" standalone="no"?>
<!DOCTYPE svg PUBLIC "-//W3C//DTD SVG 20010904//EN"
 "http://www.w3.org/TR/2001/REC-SVG-20010904/DTD/svg10.dtd">
<svg version="1.0" xmlns="http://www.w3.org/2000/svg"
 width="248.000000pt" height="248.000000pt" viewBox="0 0 248.000000 248.000000"
 preserveAspectRatio="xMidYMid meet">
<metadata>
Created by potrace 1.10, written by Peter Selinger 2001-2011
</metadata>
<g transform="translate(0.000000,248.000000) scale(0.100000,-0.100000)"
fill="#000000" stroke="none">
<path d="M1119 2227 c-68 -67 -145 -142 -171 -165 -49 -44 -60 -76 -36 -100
39 -39 104 6 290 201 109 113 126 145 96 175 -29 29 -56 11 -179 -111z"/>
<path d="M740 1995 c-18 -22 -17 -51 25 -395 8 -63 17 -161 20 -216 8 -122 19
-149 60 -149 59 0 63 43 30 330 -8 66 -17 149 -20 185 -12 128 -27 215 -41
238 -17 25 -55 29 -74 7z"/>
</g>
</svg>
