<?xml version="1.0" standalone="no"?>
<!DOCTYPE svg PUBLIC "-//W3C//DTD SVG 20010904//EN"
 "http://www.w3.org/TR/2001/REC-SVG-20010904/DTD/svg10.dtd">
<svg version="1.0" xmlns="http://www.w3.org/2000/svg"
 width="248.000000pt" height="248.000000pt" viewBox="0 0 248.000000 248.000000"
 preserveAspectRatio="xMidYMid meet">
<metadata>
Created by potrace 1.10, written by Peter Selinger 2001-2011
</metadata>
<g transform="translate(0.000000,248.000000) scale(0.100000,-0.100000)"
fill="#000000" stroke="none">
<path d="M2220 2287 c-3 -3 -68 -12 -145 -21 -198 -22 -357 -44 -449 -61 -43
-8 -97 -15 -121 -15 -23 0 -47 -6 -52 -12 -10 -12 -14 -245 -29 -1528 -6 -556
-6 -555 51 -555 49 0 55 26 55 240 0 170 22 1748 24 1751 5 8 435 68 566 80
84 7 82 15 15 -72 -39 -51 -161 -166 -250 -234 -111 -85 -145 -120 -145 -152
0 -18 9 -33 27 -45 15 -10 60 -51 100 -91 59 -59 82 -91 122 -175 52 -107 104
-253 122 -347 6 -30 13 -121 16 -202 4 -121 2 -157 -12 -198 -19 -57 -28 -66
-47 -46 -33 33 -151 106 -172 106 -30 0 -46 -18 -46 -51 0 -22 12 -35 63 -69
34 -23 76 -55 93 -71 92 -88 173 -36 218 138 57 220 -44 666 -203 897 -18 25
-57 73 -88 106 -31 34 -52 64 -47 69 5 4 52 42 105 83 105 83 237 221 299 312
43 63 53 123 25 146 -15 13 -87 25 -95 17z"/>
<path d="M1105 2225 c-44 -8 -170 -25 -280 -39 -110 -14 -263 -35 -340 -46
-301 -45 -341 -59 -333 -111 5 -38 29 -45 109 -31 40 7 75 10 78 6 3 -3 6 -78
6 -167 0 -144 -3 -174 -27 -266 -15 -57 -29 -105 -30 -106 -2 -1 -43 -10 -93
-19 -96 -19 -125 -36 -125 -71 0 -42 22 -49 113 -37 45 6 127 16 182 22 55 6
173 20 263 30 89 11 167 20 172 20 13 0 -15 -55 -98 -195 -72 -122 -71 -121
-145 -222 -28 -40 -67 -94 -86 -120 -19 -27 -57 -75 -85 -108 -28 -33 -69 -82
-91 -109 -22 -27 -68 -78 -103 -113 -55 -55 -63 -68 -60 -96 2 -24 9 -34 30
-41 25 -9 33 -5 80 40 69 64 232 258 335 398 45 61 90 122 101 136 17 22 135
216 186 305 17 29 17 28 12 -75 -3 -58 -10 -208 -16 -335 -13 -315 -32 -595
-39 -595 -3 0 -19 9 -36 20 -36 24 -78 26 -99 4 -17 -17 -20 -33 -8 -50 15
-24 161 -114 184 -114 28 0 52 23 62 60 8 31 33 390 41 600 9 237 24 518 31
582 6 57 6 57 42 63 21 3 69 13 107 21 39 8 80 17 92 20 28 5 46 38 38 65 -11
35 -44 42 -111 26 -32 -9 -82 -18 -110 -22 l-51 -6 4 268 c3 147 6 273 8 279
3 12 121 34 180 34 55 0 95 25 95 58 0 55 -33 62 -185 37z m-206 -362 c-1
-126 -4 -253 -7 -283 l-7 -54 -180 -22 c-234 -28 -305 -34 -305 -25 0 4 7 30
14 57 32 107 49 245 43 349 -3 55 -9 109 -12 121 -6 19 0 22 107 38 98 14 298
41 336 45 9 1 12 -50 11 -226z"/>
</g>
</svg>
