<?xml version="1.0" standalone="no"?>
<!DOCTYPE svg PUBLIC "-//W3C//DTD SVG 20010904//EN"
 "http://www.w3.org/TR/2001/REC-SVG-20010904/DTD/svg10.dtd">
<svg version="1.0" xmlns="http://www.w3.org/2000/svg"
 width="248.000000pt" height="248.000000pt" viewBox="0 0 248.000000 248.000000"
 preserveAspectRatio="xMidYMid meet">
<metadata>
Created by potrace 1.10, written by Peter Selinger 2001-2011
</metadata>
<g transform="translate(0.000000,248.000000) scale(0.100000,-0.100000)"
fill="#000000" stroke="none">
<path d="M1105 2225 c-44 -8 -170 -25 -280 -39 -110 -14 -263 -35 -340 -46
-301 -45 -341 -59 -333 -111 5 -38 29 -45 109 -31 40 7 75 10 78 6 3 -3 6 -78
6 -167 0 -145 -3 -172 -27 -264 -41 -150 -36 -203 18 -203 32 0 43 19 70 127
44 176 57 279 51 388 -3 55 -9 109 -12 121 -6 19 0 22 107 38 62 9 187 25 278
36 91 11 200 27 243 35 43 8 97 15 118 15 58 0 99 24 99 58 0 55 -33 62 -185
37z"/>
</g>
</svg>
