<?xml version="1.0" standalone="no"?>
<!DOCTYPE svg PUBLIC "-//W3C//DTD SVG 20010904//EN"
 "http://www.w3.org/TR/2001/REC-SVG-20010904/DTD/svg10.dtd">
<svg version="1.0" xmlns="http://www.w3.org/2000/svg"
 width="248.000000pt" height="248.000000pt" viewBox="0 0 248.000000 248.000000"
 preserveAspectRatio="xMidYMid meet">
<metadata>
Created by potrace 1.10, written by Peter Selinger 2001-2011
</metadata>
<g transform="translate(0.000000,248.000000) scale(0.100000,-0.100000)"
fill="#000000" stroke="none">
<path d="M1105 2225 c-44 -8 -170 -25 -280 -39 -110 -14 -263 -35 -340 -46
-301 -45 -341 -59 -333 -111 5 -38 29 -44 110 -31 40 6 128 21 194 31 67 11
216 32 330 46 115 13 244 31 287 40 43 8 97 15 118 15 58 0 99 24 99 58 0 55
-33 62 -185 37z"/>
</g>
</svg>
