<?xml version="1.0" standalone="no"?>
<!DOCTYPE svg PUBLIC "-//W3C//DTD SVG 20010904//EN"
 "http://www.w3.org/TR/2001/REC-SVG-20010904/DTD/svg10.dtd">
<svg version="1.0" xmlns="http://www.w3.org/2000/svg"
 width="248.000000pt" height="248.000000pt" viewBox="0 0 248.000000 248.000000"
 preserveAspectRatio="xMidYMid meet">
<metadata>
Created by potrace 1.10, written by Peter Selinger 2001-2011
</metadata>
<g transform="translate(0.000000,248.000000) scale(0.100000,-0.100000)"
fill="#000000" stroke="none">
<path d="M956 2054 c-57 -14 -174 -36 -391 -74 -60 -10 -158 -22 -216 -25
-126 -8 -154 -19 -154 -60 0 -50 31 -58 187 -45 73 7 176 20 228 31 52 11 133
26 180 34 132 23 283 56 303 67 20 10 23 58 5 76 -15 15 -68 14 -142 -4z"/>
</g>
</svg>
