<?xml version="1.0" standalone="no"?>
<!DOCTYPE svg PUBLIC "-//W3C//DTD SVG 20010904//EN"
 "http://www.w3.org/TR/2001/REC-SVG-20010904/DTD/svg10.dtd">
<svg version="1.0" xmlns="http://www.w3.org/2000/svg"
 width="248.000000pt" height="248.000000pt" viewBox="0 0 248.000000 248.000000"
 preserveAspectRatio="xMidYMid meet">
<metadata>
Created by potrace 1.10, written by Peter Selinger 2001-2011
</metadata>
<g transform="translate(0.000000,248.000000) scale(0.100000,-0.100000)"
fill="#000000" stroke="none">
<path d="M956 2054 c-57 -14 -174 -36 -391 -74 -60 -10 -158 -22 -216 -25
-126 -8 -154 -19 -154 -60 0 -50 31 -58 187 -45 73 6 151 16 173 20 76 18 77
17 55 -41 -20 -50 -117 -240 -191 -374 -21 -38 -75 -126 -119 -195 -44 -69
-88 -138 -98 -153 -9 -16 -45 -67 -80 -114 -65 -90 -72 -111 -46 -137 32 -33
59 -20 116 57 49 65 159 228 234 347 99 157 263 478 295 575 l22 71 165 32
c90 18 173 37 183 43 22 11 26 58 7 77 -15 15 -68 14 -142 -4z"/>
</g>
</svg>
