<?xml version="1.0" standalone="no"?>
<!DOCTYPE svg PUBLIC "-//W3C//DTD SVG 20010904//EN"
 "http://www.w3.org/TR/2001/REC-SVG-20010904/DTD/svg10.dtd">
<svg version="1.0" xmlns="http://www.w3.org/2000/svg"
 width="248.000000pt" height="248.000000pt" viewBox="0 0 248.000000 248.000000"
 preserveAspectRatio="xMidYMid meet">
<metadata>
Created by potrace 1.10, written by Peter Selinger 2001-2011
</metadata>
<g transform="translate(0.000000,248.000000) scale(0.100000,-0.100000)"
fill="#000000" stroke="none">
<path d="M2027 2348 c-8 -13 -35 -63 -61 -111 -54 -102 -176 -284 -248 -372
-27 -33 -55 -67 -62 -76 -9 -11 -39 -18 -92 -23 -44 -4 -140 -19 -214 -32 -74
-14 -161 -29 -193 -34 -32 -5 -65 -14 -73 -21 -23 -19 -17 -57 12 -75 27 -19
43 -17 269 27 54 11 192 28 305 39 113 11 253 27 312 35 59 8 141 15 183 15
99 0 145 18 145 57 0 45 -16 53 -99 53 -73 -1 -102 -4 -309 -30 -52 -6 -96 -9
-99 -6 -3 3 10 24 30 48 19 24 52 70 73 103 21 33 46 69 55 80 16 19 73 115
126 215 27 51 32 92 13 115 -19 22 -57 19 -73 -7z"/>
<path d="M1322 2248 c-20 -20 -14 -47 33 -139 53 -105 75 -138 134 -201 45
-48 76 -59 99 -36 25 25 13 66 -38 124 -27 31 -68 93 -91 138 -22 45 -50 91
-62 104 -22 24 -56 29 -75 10z"/>
<path d="M956 2054 c-57 -14 -174 -36 -391 -74 -60 -10 -158 -22 -216 -25
-126 -8 -154 -19 -154 -60 0 -50 31 -58 187 -45 73 6 151 16 173 20 76 18 77
17 55 -41 -20 -50 -117 -240 -191 -374 -21 -38 -75 -126 -119 -195 -44 -69
-88 -138 -98 -153 -9 -16 -45 -67 -80 -114 -34 -47 -62 -94 -62 -104 0 -25 27
-49 55 -49 23 0 93 83 160 190 15 25 37 56 48 70 l20 25 -7 -375 c-7 -439 -10
-425 74 -426 83 -1 246 15 329 31 40 8 92 15 116 15 27 0 47 6 56 17 19 22 20
943 1 986 -18 42 -44 46 -156 25 -129 -24 -256 -41 -263 -35 -2 3 19 47 47 99
88 156 157 299 181 373 l22 71 165 32 c90 18 173 37 183 43 22 11 26 58 7 77
-15 15 -68 14 -142 -4z m-142 -785 c9 -44 7 -772 -2 -785 -8 -14 -160 -40
-286 -50 l-89 -7 6 213 c4 117 7 302 7 411 l0 198 58 5 c31 3 102 15 157 25
142 27 141 27 149 -10z"/>
<path d="M1326 1393 c-135 -175 -233 -318 -240 -349 -9 -39 15 -69 120 -154
74 -60 100 -70 122 -48 25 25 14 69 -24 102 -20 17 -53 45 -72 62 l-36 31 35
54 c19 30 71 100 116 155 45 56 91 117 102 135 36 58 24 109 -25 109 -16 0
-43 -26 -98 -97z"/>
</g>
</svg>
