<?xml version="1.0" standalone="no"?>
<!DOCTYPE svg PUBLIC "-//W3C//DTD SVG 20010904//EN"
 "http://www.w3.org/TR/2001/REC-SVG-20010904/DTD/svg10.dtd">
<svg version="1.0" xmlns="http://www.w3.org/2000/svg"
 width="248.000000pt" height="248.000000pt" viewBox="0 0 248.000000 248.000000"
 preserveAspectRatio="xMidYMid meet">
<metadata>
Created by potrace 1.10, written by Peter Selinger 2001-2011
</metadata>
<g transform="translate(0.000000,248.000000) scale(0.100000,-0.100000)"
fill="#000000" stroke="none">
<path d="M1086 2355 c-11 -11 -15 -36 -15 -88 1 -163 -17 -262 -50 -271 -9 -3
-95 -14 -191 -26 -96 -11 -222 -27 -279 -36 -57 -9 -143 -17 -192 -18 -48 0
-91 -5 -95 -9 -5 -4 -7 -76 -5 -160 1 -94 -2 -171 -9 -200 -11 -40 -10 -51 4
-72 21 -32 60 -33 80 -2 11 16 15 59 17 169 1 80 4 150 8 155 7 11 51 21 126
29 27 3 79 9 115 14 36 5 110 14 165 20 55 6 147 18 205 26 58 8 121 17 140
19 213 29 971 48 985 25 8 -13 -103 -129 -168 -177 -62 -46 -73 -67 -52 -99 8
-13 24 -24 34 -24 43 0 178 114 272 230 53 65 69 92 69 117 0 22 -6 36 -20 43
-25 13 -770 14 -944 0 -118 -9 -142 -7 -131 10 3 5 8 75 12 157 5 132 4 151
-11 166 -22 21 -50 22 -70 2z"/>
<path d="M1505 1635 c-5 -2 -71 -8 -145 -14 -269 -23 -357 -33 -485 -52 -162
-25 -175 -30 -175 -69 0 -31 39 -68 59 -56 31 20 502 76 634 76 20 0 20 0 1
-21 -21 -24 -162 -117 -222 -148 -23 -12 -49 -17 -70 -14 -61 10 -86 -49 -36
-84 76 -52 184 -173 184 -207 0 -3 -26 -6 -57 -6 -153 0 -800 -86 -830 -111
-18 -15 -17 -54 2 -69 19 -15 98 -9 266 20 63 11 164 24 224 30 61 5 177 17
259 25 82 8 152 13 156 10 7 -4 23 -141 34 -295 6 -81 -10 -202 -33 -255 -21
-47 -124 -176 -152 -189 -20 -10 -89 12 -145 45 -57 35 -99 17 -92 -38 3 -24
15 -34 88 -70 138 -68 192 -58 286 56 137 167 150 210 141 475 -4 100 -9 202
-13 227 l-6 47 228 7 c126 4 269 5 317 2 78 -5 90 -4 108 14 24 24 24 41 1 62
-16 15 -52 17 -289 18 -149 0 -287 -3 -307 -6 -46 -9 -86 1 -86 21 0 21 -65
132 -98 168 -26 27 -26 29 -9 40 11 6 53 32 95 58 91 56 247 191 268 231 14
26 14 31 -1 53 -12 19 -24 24 -53 23 -20 0 -41 -2 -47 -4z"/>
</g>
</svg>
