<?xml version="1.0" standalone="no"?>
<!DOCTYPE svg PUBLIC "-//W3C//DTD SVG 20010904//EN"
 "http://www.w3.org/TR/2001/REC-SVG-20010904/DTD/svg10.dtd">
<svg version="1.0" xmlns="http://www.w3.org/2000/svg"
 width="248.000000pt" height="248.000000pt" viewBox="0 0 248.000000 248.000000"
 preserveAspectRatio="xMidYMid meet">
<metadata>
Created by potrace 1.10, written by Peter Selinger 2001-2011
</metadata>
<g transform="translate(0.000000,248.000000) scale(0.100000,-0.100000)"
fill="#000000" stroke="none">
<path d="M1855 2242 c-16 -2 -75 -11 -130 -22 -55 -10 -152 -25 -215 -34 -266
-36 -562 -75 -655 -86 -55 -6 -133 -16 -173 -21 -41 -5 -84 -6 -97 -3 -16 4
-30 -1 -44 -15 -27 -27 -27 -45 0 -72 20 -20 28 -21 103 -15 181 15 915 112
1101 146 61 11 137 20 171 20 70 0 97 15 97 55 0 50 -38 61 -158 47z"/>
<path d="M1700 1863 c-136 -6 -340 -25 -480 -44 -80 -10 -212 -28 -295 -39
-267 -36 -328 -66 -290 -140 18 -35 59 -171 69 -233 9 -50 43 -73 88 -58 18 5
60 13 93 16 33 4 98 13 145 20 121 20 235 33 390 45 257 19 275 22 299 37 19
12 22 21 18 48 -4 25 1 42 20 70 26 39 113 220 113 236 0 22 -41 49 -72 47
-18 -1 -62 -3 -98 -5z m28 -110 c-2 -5 -12 -26 -22 -47 -10 -22 -35 -65 -57
-97 -44 -65 -32 -62 -269 -79 -80 -6 -206 -20 -280 -31 -200 -29 -292 -40
-296 -36 -3 3 -54 173 -54 181 0 2 26 8 58 14 55 10 98 16 447 63 88 12 225
25 305 29 80 4 151 7 158 8 8 1 12 -1 10 -5z"/>
<path d="M1727 1293 c-1 -1 -90 -6 -197 -12 -107 -6 -217 -13 -245 -16 -27 -3
-102 -9 -165 -15 -63 -6 -137 -15 -165 -20 -86 -16 -147 -22 -234 -24 -68 -2
-86 -6 -97 -21 -19 -26 -17 -42 7 -66 20 -20 29 -21 118 -16 53 4 139 13 191
21 123 19 817 75 839 68 16 -5 -37 -235 -84 -357 -36 -94 -39 -113 -25 -130 7
-8 25 -15 41 -15 22 0 34 8 49 33 35 56 95 259 124 416 23 126 -3 165 -107
159 -27 -2 -49 -4 -50 -5z"/>
</g>
</svg>
