<?xml version="1.0" standalone="no"?>
<!DOCTYPE svg PUBLIC "-//W3C//DTD SVG 20010904//EN"
 "http://www.w3.org/TR/2001/REC-SVG-20010904/DTD/svg10.dtd">
<svg version="1.0" xmlns="http://www.w3.org/2000/svg"
 width="248.000000pt" height="248.000000pt" viewBox="0 0 248.000000 248.000000"
 preserveAspectRatio="xMidYMid meet">
<metadata>
Created by potrace 1.10, written by Peter Selinger 2001-2011
</metadata>
<g transform="translate(0.000000,248.000000) scale(0.100000,-0.100000)"
fill="#000000" stroke="none">
<path d="M1532 2348 c-8 -8 -12 -62 -13 -172 -1 -89 -4 -190 -8 -225 -7 -78
-2 -75 -196 -92 -71 -6 -136 -15 -142 -21 -17 -14 -16 -53 1 -67 16 -13 148
-13 256 0 36 4 69 4 73 0 7 -7 -11 -310 -18 -319 -1 -1 -60 -9 -131 -17 -407
-46 -464 -59 -464 -109 0 -47 19 -51 163 -32 73 10 157 22 187 27 30 5 102 13
160 19 58 5 176 20 262 32 86 12 160 19 164 15 4 -4 10 -68 12 -142 l4 -135
-58 0 c-33 0 -97 -4 -144 -9 -47 -5 -139 -15 -205 -21 -66 -6 -154 -18 -196
-26 -41 -8 -110 -18 -152 -23 -84 -10 -107 -21 -107 -56 0 -44 21 -50 138 -37
59 6 145 18 192 26 47 8 148 19 225 25 77 7 175 17 219 23 64 9 80 8 87 -3 23
-38 4 -759 -21 -759 -3 0 -40 29 -83 65 -43 36 -90 68 -104 71 -33 9 -57 -6
-61 -38 -3 -21 11 -37 79 -94 145 -123 150 -125 193 -122 83 6 96 82 96 556
l0 322 23 9 c12 4 85 11 162 15 114 5 142 9 153 23 17 24 15 47 -6 66 -23 21
-39 22 -190 6 -75 -7 -126 -9 -132 -3 -5 5 -11 70 -12 144 l-3 135 200 13
c110 7 207 17 215 21 22 12 24 54 3 74 -17 15 -36 15 -193 7 -252 -14 -324
-20 -425 -36 -104 -16 -159 -18 -150 -5 3 6 8 72 12 148 3 76 9 145 14 154 6
11 35 20 101 28 115 15 297 47 349 61 42 12 64 40 54 71 -10 30 -43 38 -100
23 -48 -13 -244 -46 -352 -59 l-53 -7 0 219 c0 230 -2 243 -45 243 -12 0 -26
-5 -33 -12z"/>
<path d="M580 2295 c-8 -10 -14 -79 -17 -222 -2 -115 -8 -233 -11 -263 l-7
-55 -50 -11 c-28 -7 -90 -17 -138 -24 -74 -10 -90 -16 -104 -36 -14 -22 -14
-26 2 -50 16 -24 20 -25 73 -19 31 4 90 12 130 19 40 7 74 10 77 8 7 -8 5
-527 -3 -538 -7 -11 -230 -98 -335 -131 -50 -16 -72 -41 -62 -74 11 -35 49
-41 108 -18 28 11 88 33 132 49 44 15 97 35 118 44 l37 16 0 -305 c0 -168 -3
-305 -6 -305 -4 0 -38 29 -75 65 -69 65 -102 78 -127 53 -29 -29 -12 -59 100
-176 61 -64 119 -121 129 -126 12 -6 26 -4 43 7 l24 16 3 390 c4 330 6 393 19
405 8 8 55 31 103 51 93 40 124 69 112 104 -11 37 -50 36 -135 -2 -44 -20 -82
-32 -85 -27 -8 13 -4 434 4 485 l6 40 110 22 c61 12 128 27 150 33 72 21 94
59 55 95 -18 16 -23 16 -87 1 -58 -13 -213 -46 -221 -46 -4 0 9 444 14 469 11
51 -54 94 -86 56z"/>
<path d="M1192 848 c-14 -14 -16 -54 -2 -63 12 -7 69 -91 136 -198 40 -64 57
-83 77 -85 38 -5 65 38 48 76 -21 47 -162 252 -184 267 -26 18 -59 19 -75 3z"/>
</g>
</svg>
