<?xml version="1.0" standalone="no"?>
<!DOCTYPE svg PUBLIC "-//W3C//DTD SVG 20010904//EN"
 "http://www.w3.org/TR/2001/REC-SVG-20010904/DTD/svg10.dtd">
<svg version="1.0" xmlns="http://www.w3.org/2000/svg"
 width="248.000000pt" height="248.000000pt" viewBox="0 0 248.000000 248.000000"
 preserveAspectRatio="xMidYMid meet">
<metadata>
Created by potrace 1.10, written by Peter Selinger 2001-2011
</metadata>
<g transform="translate(0.000000,248.000000) scale(0.100000,-0.100000)"
fill="#000000" stroke="none">
<path d="M580 2295 c-8 -10 -14 -79 -17 -222 -2 -115 -8 -233 -11 -263 l-7
-55 -50 -11 c-28 -7 -90 -17 -138 -24 -74 -10 -90 -16 -104 -36 -14 -22 -14
-26 2 -50 16 -24 20 -25 73 -19 31 4 90 12 130 19 40 7 74 10 77 8 7 -8 5
-527 -3 -538 -7 -11 -230 -98 -335 -131 -50 -16 -72 -41 -62 -74 11 -35 49
-41 108 -18 28 11 88 33 132 49 44 15 97 35 118 44 l37 16 0 -305 c0 -168 -3
-305 -6 -305 -4 0 -38 29 -75 65 -69 65 -102 78 -127 53 -29 -29 -12 -59 100
-176 61 -64 119 -121 129 -126 12 -6 26 -4 43 7 l24 16 3 390 c4 330 6 393 19
405 8 8 55 31 103 51 93 40 124 69 112 104 -11 37 -50 36 -135 -2 -44 -20 -82
-32 -85 -27 -8 13 -4 434 4 485 l6 40 110 22 c61 12 128 27 150 33 72 21 94
59 55 95 -18 16 -23 16 -87 1 -58 -13 -213 -46 -221 -46 -4 0 9 444 14 469 11
51 -54 94 -86 56z"/>
</g>
</svg>
