<?xml version="1.0" standalone="no"?>
<!DOCTYPE svg PUBLIC "-//W3C//DTD SVG 20010904//EN"
 "http://www.w3.org/TR/2001/REC-SVG-20010904/DTD/svg10.dtd">
<svg version="1.0" xmlns="http://www.w3.org/2000/svg"
 width="248.000000pt" height="248.000000pt" viewBox="0 0 248.000000 248.000000"
 preserveAspectRatio="xMidYMid meet">
<metadata>
Created by potrace 1.10, written by Peter Selinger 2001-2011
</metadata>
<g transform="translate(0.000000,248.000000) scale(0.100000,-0.100000)"
fill="#000000" stroke="none">
<path d="M753 2188 c-11 -13 -28 -36 -38 -53 -10 -16 -33 -52 -50 -80 -18 -27
-49 -77 -70 -110 -51 -81 -110 -169 -159 -235 -22 -30 -56 -77 -76 -105 -20
-27 -63 -86 -95 -130 -32 -44 -80 -103 -108 -132 -41 -43 -49 -56 -43 -77 9
-35 46 -43 88 -19 45 25 352 435 478 638 24 39 58 93 75 120 18 28 44 69 58
92 15 24 27 53 27 66 0 49 -52 63 -87 25z"/>
</g>
</svg>
