<?xml version="1.0" standalone="no"?>
<!DOCTYPE svg PUBLIC "-//W3C//DTD SVG 20010904//EN"
 "http://www.w3.org/TR/2001/REC-SVG-20010904/DTD/svg10.dtd">
<svg version="1.0" xmlns="http://www.w3.org/2000/svg"
 width="248.000000pt" height="248.000000pt" viewBox="0 0 248.000000 248.000000"
 preserveAspectRatio="xMidYMid meet">
<metadata>
Created by potrace 1.10, written by Peter Selinger 2001-2011
</metadata>
<g transform="translate(0.000000,248.000000) scale(0.100000,-0.100000)"
fill="#000000" stroke="none">
<path d="M753 2188 c-11 -13 -28 -36 -38 -53 -10 -16 -33 -52 -50 -80 -18 -27
-49 -77 -70 -110 -51 -81 -110 -169 -159 -235 -22 -30 -56 -77 -76 -105 -20
-27 -63 -86 -95 -130 -32 -44 -80 -103 -108 -132 -41 -43 -49 -56 -43 -77 9
-35 46 -43 88 -19 18 10 75 74 126 141 l92 123 0 -623 c0 -680 0 -673 55 -673
56 0 55 -13 55 746 l-1 697 89 133 c49 74 97 148 108 166 10 17 40 66 67 109
26 42 47 86 47 98 0 48 -52 62 -87 24z"/>
<path d="M806 1598 c-11 -15 -16 -45 -16 -88 0 -36 -5 -224 -12 -418 l-12
-353 -45 -29 c-24 -17 -50 -30 -56 -30 -20 0 -47 -37 -43 -61 8 -58 71 -50
188 25 47 29 127 80 178 112 199 127 227 148 230 176 2 20 -4 31 -23 44 -25
16 -27 16 -113 -37 -48 -29 -111 -70 -141 -91 -30 -21 -56 -36 -59 -33 -3 2 1
173 8 379 12 347 12 377 -4 400 -21 33 -59 34 -80 4z"/>
</g>
</svg>
