<?xml version="1.0" standalone="no"?>
<!DOCTYPE svg PUBLIC "-//W3C//DTD SVG 20010904//EN"
 "http://www.w3.org/TR/2001/REC-SVG-20010904/DTD/svg10.dtd">
<svg version="1.0" xmlns="http://www.w3.org/2000/svg"
 width="248.000000pt" height="248.000000pt" viewBox="0 0 248.000000 248.000000"
 preserveAspectRatio="xMidYMid meet">
<metadata>
Created by potrace 1.10, written by Peter Selinger 2001-2011
</metadata>
<g transform="translate(0.000000,248.000000) scale(0.100000,-0.100000)"
fill="#000000" stroke="none">
<path d="M600 2240 c-11 -11 -20 -27 -20 -36 0 -9 39 -53 88 -97 48 -45 105
-101 127 -124 58 -62 115 -55 115 13 0 28 -246 264 -276 264 -8 0 -23 -9 -34
-20z"/>
<path d="M1483 2148 c-12 -13 -44 -68 -72 -123 -96 -190 -218 -390 -366 -603
-64 -92 -77 -130 -52 -149 39 -32 112 -22 427 57 113 28 259 60 325 71 168 28
279 63 304 95 26 33 26 36 2 65 l-18 23 -95 -32 c-53 -18 -128 -36 -167 -42
-94 -13 -258 -49 -459 -100 -90 -23 -166 -39 -169 -36 -3 3 17 36 44 73 27 37
76 112 109 166 32 54 72 119 88 145 58 96 186 347 186 367 0 47 -52 60 -87 23z"/>
<path d="M242 1428 c-40 -40 18 -101 164 -173 102 -51 139 -53 150 -9 10 40
-1 52 -93 95 -48 23 -104 55 -124 71 -39 30 -77 36 -97 16z"/>
<path d="M662 837 c-15 -24 -43 -72 -62 -106 -63 -111 -184 -305 -241 -386
-94 -134 -105 -170 -58 -196 29 -15 57 -2 75 34 9 18 43 68 74 112 59 81 190
290 190 301 0 3 28 52 62 108 78 128 81 175 10 176 -16 0 -30 -13 -50 -43z"/>
</g>
</svg>
