<?xml version="1.0" standalone="no"?>
<!DOCTYPE svg PUBLIC "-//W3C//DTD SVG 20010904//EN"
 "http://www.w3.org/TR/2001/REC-SVG-20010904/DTD/svg10.dtd">
<svg version="1.0" xmlns="http://www.w3.org/2000/svg"
 width="248.000000pt" height="248.000000pt" viewBox="0 0 248.000000 248.000000"
 preserveAspectRatio="xMidYMid meet">
<metadata>
Created by potrace 1.10, written by Peter Selinger 2001-2011
</metadata>
<g transform="translate(0.000000,248.000000) scale(0.100000,-0.100000)"
fill="#000000" stroke="none">
<path d="M1675 2173 c-22 -2 -101 -12 -175 -23 -74 -11 -193 -27 -265 -35 -71
-8 -161 -19 -200 -24 -38 -5 -131 -17 -205 -26 -151 -19 -183 -32 -178 -73 4
-39 40 -52 108 -41 30 4 111 15 180 23 217 27 442 55 525 66 44 6 131 17 192
24 62 7 119 19 128 26 36 29 0 92 -50 88 -11 -1 -38 -3 -60 -5z"/>
</g>
</svg>
