<?xml version="1.0" standalone="no"?>
<!DOCTYPE svg PUBLIC "-//W3C//DTD SVG 20010904//EN"
 "http://www.w3.org/TR/2001/REC-SVG-20010904/DTD/svg10.dtd">
<svg version="1.0" xmlns="http://www.w3.org/2000/svg"
 width="248.000000pt" height="248.000000pt" viewBox="0 0 248.000000 248.000000"
 preserveAspectRatio="xMidYMid meet">
<metadata>
Created by potrace 1.10, written by Peter Selinger 2001-2011
</metadata>
<g transform="translate(0.000000,248.000000) scale(0.100000,-0.100000)"
fill="#000000" stroke="none">
<path d="M819 1966 c-3 -3 -92 -10 -199 -16 -194 -11 -225 -13 -329 -26 -64
-8 -97 -34 -85 -67 10 -29 19 -347 22 -782 2 -291 5 -353 17 -372 18 -26 51
-30 75 -8 11 10 45 17 101 19 46 3 145 14 219 26 84 13 153 19 182 15 80 -11
83 2 93 415 4 135 10 286 15 335 5 50 10 166 11 259 3 166 3 169 -20 187 -21
17 -90 27 -102 15z m13 -283 c-2 -98 -7 -194 -11 -213 -6 -32 -11 -36 -56 -48
-28 -7 -102 -17 -165 -22 -63 -5 -145 -15 -182 -21 -37 -6 -72 -8 -78 -4 -6 4
-10 86 -10 229 l0 223 61 7 c34 3 103 6 153 7 50 1 116 4 146 9 30 4 75 8 100
9 l45 1 -3 -177z m-23 -460 c-1 -54 -4 -156 -8 -227 l-6 -130 -155 -22 c-85
-13 -186 -24 -225 -25 l-70 -2 -3 225 -2 226 97 11 c54 5 134 13 178 16 44 4
96 10 115 15 82 19 80 22 79 -87z"/>
</g>
</svg>
