<?xml version="1.0" standalone="no"?>
<!DOCTYPE svg PUBLIC "-//W3C//DTD SVG 20010904//EN"
 "http://www.w3.org/TR/2001/REC-SVG-20010904/DTD/svg10.dtd">
<svg version="1.0" xmlns="http://www.w3.org/2000/svg"
 width="248.000000pt" height="248.000000pt" viewBox="0 0 248.000000 248.000000"
 preserveAspectRatio="xMidYMid meet">
<metadata>
Created by potrace 1.10, written by Peter Selinger 2001-2011
</metadata>
<g transform="translate(0.000000,248.000000) scale(0.100000,-0.100000)"
fill="#000000" stroke="none">
<path d="M1542 2347 c-7 -8 -12 -83 -12 -203 -1 -105 -5 -195 -8 -201 -7 -10
-232 -33 -327 -33 -63 0 -97 -21 -93 -58 6 -49 41 -58 165 -44 60 7 142 12
182 12 l74 0 -7 -37 c-3 -21 -6 -95 -6 -164 l0 -127 -87 -11 c-436 -54 -463
-60 -463 -104 0 -51 42 -58 208 -32 53 8 178 24 277 36 99 11 212 25 250 29
39 5 84 9 100 10 l30 0 -3 -142 c-2 -79 -5 -144 -5 -144 -5 -4 -234 -35 -322
-43 -216 -21 -451 -54 -472 -67 -26 -17 -30 -55 -8 -74 18 -15 87 -11 325 18
91 12 210 26 265 32 55 7 126 15 158 19 l57 7 1 -70 c3 -321 -8 -746 -21 -780
-6 -18 -16 -11 -83 52 -76 72 -108 87 -135 60 -25 -25 -11 -54 61 -126 125
-124 204 -167 237 -128 6 8 15 45 20 83 5 37 12 86 15 108 3 22 8 211 12 421
l6 381 96 7 c53 3 128 6 166 6 84 0 118 17 113 58 -5 46 -35 53 -215 45 l-163
-6 0 140 0 140 53 7 c28 3 120 6 202 6 172 0 200 8 200 55 0 57 -20 59 -359
45 -166 -7 -325 -14 -353 -17 l-53 -5 0 160 c0 94 4 163 10 167 5 3 120 18
254 33 150 17 250 33 260 41 20 17 21 55 1 71 -20 17 -70 14 -312 -13 l-201
-23 1 187 c2 171 0 189 -17 208 -21 24 -58 28 -74 8z"/>
<path d="M819 1965 c-3 -2 -95 -9 -204 -15 -110 -6 -213 -13 -230 -15 -132
-15 -149 -19 -167 -37 -14 -14 -18 -26 -12 -41 10 -29 19 -347 22 -782 2 -291
5 -353 17 -372 18 -26 51 -30 75 -8 11 10 45 17 101 19 46 3 145 14 219 26 84
13 153 19 182 15 81 -11 84 2 93 420 4 138 10 288 15 335 5 47 10 161 12 254
2 166 2 169 -21 187 -21 17 -90 27 -102 14z m13 -282 c-2 -98 -7 -194 -11
-213 -6 -32 -11 -36 -56 -48 -28 -7 -102 -17 -165 -22 -63 -5 -145 -15 -182
-21 -37 -6 -72 -8 -78 -4 -6 4 -10 86 -10 229 l0 223 61 7 c34 3 103 6 153 7
50 1 116 4 146 9 30 4 75 8 100 9 l45 1 -3 -177z m-23 -460 c-1 -54 -4 -156
-8 -227 l-6 -130 -155 -22 c-85 -13 -186 -24 -225 -25 l-70 -2 -3 225 -2 226
97 11 c54 5 134 13 178 16 44 4 96 10 115 15 82 19 80 22 79 -87z"/>
</g>
</svg>
