<?xml version="1.0" standalone="no"?>
<!DOCTYPE svg PUBLIC "-//W3C//DTD SVG 20010904//EN"
 "http://www.w3.org/TR/2001/REC-SVG-20010904/DTD/svg10.dtd">
<svg version="1.0" xmlns="http://www.w3.org/2000/svg"
 width="248.000000pt" height="248.000000pt" viewBox="0 0 248.000000 248.000000"
 preserveAspectRatio="xMidYMid meet">
<metadata>
Created by potrace 1.10, written by Peter Selinger 2001-2011
</metadata>
<g transform="translate(0.000000,248.000000) scale(0.100000,-0.100000)"
fill="#000000" stroke="none">
<path d="M803 2114 c-14 -15 -51 -42 -82 -62 -143 -90 -318 -207 -367 -243
-44 -33 -54 -45 -54 -70 0 -21 6 -32 24 -40 27 -13 59 2 171 80 l70 49 7 -32
c4 -17 9 -94 13 -171 3 -77 8 -154 11 -172 l5 -31 -73 -11 c-40 -7 -102 -18
-138 -26 -36 -7 -110 -21 -165 -30 -122 -20 -149 -32 -153 -67 -2 -20 4 -31
23 -44 24 -16 31 -16 108 -1 45 9 134 26 197 37 63 12 135 25 160 30 25 5 46
8 47 7 1 -1 5 -75 9 -163 l7 -161 -64 -17 c-35 -9 -111 -26 -168 -39 -145 -31
-142 -27 -130 -227 12 -181 43 -395 60 -416 19 -23 62 -13 76 17 9 19 10 41 3
85 -13 74 -28 255 -31 354 -2 74 -2 74 27 82 120 33 470 97 532 98 l42 0 0
-67 c0 -38 -6 -97 -14 -133 -8 -36 -22 -132 -31 -213 -13 -117 -14 -151 -5
-162 17 -20 53 -19 73 3 20 22 42 146 57 317 6 72 15 152 20 178 20 101 6 159
-42 176 -42 15 -88 14 -197 -5 -51 -9 -94 -14 -96 -12 -9 9 -18 328 -9 328 34
0 466 80 483 89 26 14 29 62 5 82 -14 11 -51 8 -243 -25 -124 -21 -235 -40
-247 -43 -20 -4 -21 0 -27 114 -4 65 -10 168 -13 230 l-7 112 85 54 c92 60
138 106 138 141 0 50 -55 62 -97 20z"/>
</g>
</svg>
