<?xml version="1.0" standalone="no"?>
<!DOCTYPE svg PUBLIC "-//W3C//DTD SVG 20010904//EN"
 "http://www.w3.org/TR/2001/REC-SVG-20010904/DTD/svg10.dtd">
<svg version="1.0" xmlns="http://www.w3.org/2000/svg"
 width="248.000000pt" height="248.000000pt" viewBox="0 0 248.000000 248.000000"
 preserveAspectRatio="xMidYMid meet">
<metadata>
Created by potrace 1.10, written by Peter Selinger 2001-2011
</metadata>
<g transform="translate(0.000000,248.000000) scale(0.100000,-0.100000)"
fill="#000000" stroke="none">
<path d="M1599 2314 c-9 -11 -12 -53 -10 -163 l2 -148 -83 -16 c-46 -9 -146
-28 -223 -43 -163 -30 -189 -40 -193 -75 -6 -54 55 -65 183 -35 33 8 63 11 68
7 4 -4 18 -86 32 -182 13 -96 28 -195 33 -222 10 -55 22 -48 -128 -73 -52 -9
-127 -22 -167 -29 -40 -6 -79 -18 -88 -25 -22 -18 -18 -56 7 -74 24 -17 52
-15 173 9 64 14 267 49 356 62 l36 5 5 -148 c3 -82 4 -151 3 -152 -2 -2 -50
-10 -107 -17 -57 -8 -136 -21 -176 -30 -40 -8 -95 -15 -120 -15 -56 0 -92 -22
-92 -55 0 -32 35 -55 83 -55 20 0 93 11 160 24 67 14 152 28 188 31 l67 7 6
-258 c10 -397 19 -504 41 -520 24 -18 36 -18 61 0 23 17 22 1 11 462 l-8 332
73 7 c40 3 125 15 188 26 63 11 147 24 185 29 128 17 175 30 191 55 19 29 11
62 -17 70 -11 4 -48 2 -82 -4 -256 -46 -527 -83 -537 -74 -3 3 -7 72 -8 153
l-4 149 24 5 c12 2 57 9 98 14 41 6 116 17 165 26 50 8 146 22 215 30 96 11
127 18 137 32 17 23 16 36 -1 60 -12 16 -25 19 -88 16 -40 -1 -140 -13 -223
-26 -82 -13 -152 -22 -153 -20 -2 1 8 49 22 106 42 170 74 342 69 370 -5 29
-13 26 122 48 89 15 117 32 113 68 -5 46 -38 53 -153 31 -55 -10 -157 -29
-226 -42 l-127 -23 -4 126 c-3 99 -7 133 -21 153 -20 31 -57 36 -78 11z m271
-392 c0 -20 -19 -112 -68 -324 -35 -153 -37 -158 -62 -158 -14 0 -41 -4 -60
-9 -19 -5 -63 -12 -96 -15 -74 -8 -64 -29 -99 217 -13 95 -27 186 -30 203 l-7
31 104 21 c175 37 303 59 311 55 4 -2 7 -12 7 -21z"/>
<path d="M803 2114 c-14 -15 -51 -42 -82 -62 -143 -90 -318 -207 -367 -243
-44 -33 -54 -45 -54 -70 0 -21 6 -32 24 -40 27 -13 59 2 171 80 l70 49 7 -32
c4 -17 9 -94 13 -171 3 -77 8 -154 11 -172 l5 -31 -73 -11 c-40 -7 -102 -18
-138 -26 -36 -7 -110 -21 -165 -30 -122 -20 -149 -32 -153 -67 -2 -20 4 -31
23 -44 24 -16 31 -16 108 -1 45 9 134 26 197 37 63 12 135 25 160 30 25 5 46
8 47 7 1 -1 5 -75 9 -163 l7 -161 -64 -17 c-35 -9 -111 -26 -168 -39 -145 -31
-142 -27 -130 -227 12 -186 43 -399 61 -416 17 -17 29 -17 303 -4 278 14 323
22 358 58 31 32 49 123 67 327 6 72 15 152 20 178 20 101 6 159 -42 176 -42
15 -88 14 -197 -5 -51 -9 -94 -14 -96 -12 -9 9 -18 328 -9 328 34 0 466 80
483 89 26 14 29 62 5 82 -14 11 -51 8 -243 -25 -124 -21 -235 -40 -247 -43
-20 -4 -21 0 -27 114 -4 65 -10 168 -13 230 l-7 112 85 54 c92 60 138 106 138
141 0 50 -55 62 -97 20z m167 -1251 c0 -38 -6 -97 -14 -133 -8 -36 -20 -119
-28 -184 -9 -86 -17 -121 -28 -127 -8 -4 -114 -12 -235 -18 -121 -6 -229 -12
-239 -13 -14 -2 -21 5 -27 27 -10 34 -27 233 -30 339 -2 69 -2 70 27 78 124
34 452 95 522 97 l52 1 0 -67z"/>
</g>
</svg>
