<?xml version="1.0" standalone="no"?>
<!DOCTYPE svg PUBLIC "-//W3C//DTD SVG 20010904//EN"
 "http://www.w3.org/TR/2001/REC-SVG-20010904/DTD/svg10.dtd">
<svg version="1.0" xmlns="http://www.w3.org/2000/svg"
 width="248.000000pt" height="248.000000pt" viewBox="0 0 248.000000 248.000000"
 preserveAspectRatio="xMidYMid meet">
<metadata>
Created by potrace 1.10, written by Peter Selinger 2001-2011
</metadata>
<g transform="translate(0.000000,248.000000) scale(0.100000,-0.100000)"
fill="#000000" stroke="none">
<path d="M803 2114 c-14 -15 -51 -42 -82 -62 -143 -90 -318 -207 -367 -243
-44 -33 -54 -45 -54 -70 0 -21 6 -32 24 -40 29 -13 45 -5 218 112 62 41 155
102 206 134 101 63 152 113 152 148 0 51 -55 63 -97 21z"/>
<path d="M1075 1505 c-38 -7 -204 -36 -367 -64 -164 -28 -317 -55 -340 -60
-24 -5 -88 -17 -143 -26 -121 -20 -149 -32 -153 -67 -2 -20 4 -31 23 -44 24
-16 31 -16 108 -1 194 38 758 138 917 162 79 12 110 30 110 62 0 56 -26 62
-155 38z"/>
</g>
</svg>
