<?xml version="1.0" standalone="no"?>
<!DOCTYPE svg PUBLIC "-//W3C//DTD SVG 20010904//EN"
 "http://www.w3.org/TR/2001/REC-SVG-20010904/DTD/svg10.dtd">
<svg version="1.0" xmlns="http://www.w3.org/2000/svg"
 width="248.000000pt" height="248.000000pt" viewBox="0 0 248.000000 248.000000"
 preserveAspectRatio="xMidYMid meet">
<metadata>
Created by potrace 1.10, written by Peter Selinger 2001-2011
</metadata>
<g transform="translate(0.000000,248.000000) scale(0.100000,-0.100000)"
fill="#000000" stroke="none">
<path d="M1599 2314 c-9 -11 -12 -53 -10 -163 l2 -148 -83 -16 c-46 -9 -146
-28 -223 -43 -163 -30 -189 -40 -193 -75 -6 -54 55 -65 183 -35 33 8 63 11 68
7 7 -7 35 -180 57 -353 11 -93 31 -128 70 -128 39 0 54 22 46 68 -3 20 -17
114 -31 207 -13 94 -27 184 -30 201 l-7 31 79 17 c75 16 285 55 523 97 134 24
163 38 158 77 -5 46 -38 53 -153 31 -55 -10 -157 -29 -226 -42 l-127 -23 -4
126 c-3 99 -7 133 -21 153 -20 31 -57 36 -78 11z"/>
<path d="M803 2114 c-14 -15 -51 -42 -82 -62 -143 -90 -318 -207 -367 -243
-44 -33 -54 -45 -54 -70 0 -21 6 -32 24 -40 27 -13 59 2 171 80 l70 49 7 -32
c4 -17 9 -94 13 -171 3 -77 8 -154 11 -172 l5 -31 -73 -11 c-40 -7 -102 -18
-138 -26 -36 -7 -110 -21 -165 -30 -122 -20 -149 -32 -153 -67 -2 -20 4 -31
23 -44 24 -16 31 -16 108 -1 45 9 134 26 197 37 63 12 135 25 160 30 25 5 46
8 47 7 1 -1 5 -75 9 -163 l7 -161 -64 -17 c-35 -9 -111 -26 -168 -39 -145 -31
-142 -27 -130 -227 12 -186 43 -399 61 -416 17 -17 29 -17 303 -4 278 14 323
22 358 58 31 32 49 123 67 327 6 72 15 152 20 178 20 101 6 159 -42 176 -42
15 -88 14 -197 -5 -51 -9 -94 -14 -96 -12 -9 9 -18 328 -9 328 34 0 466 80
483 89 26 14 29 62 5 82 -14 11 -51 8 -243 -25 -124 -21 -235 -40 -247 -43
-20 -4 -21 0 -27 114 -4 65 -10 168 -13 230 l-7 112 85 54 c92 60 138 106 138
141 0 50 -55 62 -97 20z m167 -1251 c0 -38 -6 -97 -14 -133 -8 -36 -20 -119
-28 -184 -9 -86 -17 -121 -28 -127 -8 -4 -114 -12 -235 -18 -121 -6 -229 -12
-239 -13 -14 -2 -21 5 -27 27 -10 34 -27 233 -30 339 -2 69 -2 70 27 78 124
34 452 95 522 97 l52 1 0 -67z"/>
</g>
</svg>
