<?xml version="1.0" standalone="no"?>
<!DOCTYPE svg PUBLIC "-//W3C//DTD SVG 20010904//EN"
 "http://www.w3.org/TR/2001/REC-SVG-20010904/DTD/svg10.dtd">
<svg version="1.0" xmlns="http://www.w3.org/2000/svg"
 width="248.000000pt" height="248.000000pt" viewBox="0 0 248.000000 248.000000"
 preserveAspectRatio="xMidYMid meet">
<metadata>
Created by potrace 1.10, written by Peter Selinger 2001-2011
</metadata>
<g transform="translate(0.000000,248.000000) scale(0.100000,-0.100000)"
fill="#000000" stroke="none">
<path d="M1060 2340 c-19 -19 -21 -32 -20 -138 1 -64 -1 -125 -5 -134 -8 -20
-24 -23 -180 -38 -60 -6 -171 -19 -245 -30 -74 -10 -166 -22 -204 -26 -88 -9
-106 -25 -106 -96 -1 -29 -7 -89 -16 -133 -29 -156 -29 -151 0 -170 24 -16 28
-16 50 -1 27 17 50 98 62 219 4 37 10 69 13 71 3 2 29 7 56 10 28 4 57 9 65
11 33 9 317 43 685 81 169 17 689 28 799 17 l79 -8 -54 -56 c-30 -30 -81 -78
-113 -105 -52 -44 -58 -53 -52 -77 8 -32 46 -45 82 -28 71 32 274 263 274 311
0 56 -112 73 -475 72 -148 0 -345 -7 -437 -14 l-168 -13 0 127 c0 115 -2 130
-20 148 -25 25 -45 25 -70 0z"/>
<path d="M1590 1654 c-350 -66 -467 -81 -747 -93 -192 -8 -213 -13 -213 -56 0
-45 21 -50 190 -48 174 2 374 22 585 58 361 63 375 67 375 104 0 23 -21 48
-45 54 -11 2 -76 -6 -145 -19z"/>
<path d="M1530 1340 c-81 -14 -635 -78 -777 -89 -51 -4 -99 -14 -108 -21 -23
-19 -15 -62 15 -78 31 -16 92 -11 680 60 96 12 205 24 242 27 75 7 91 17 91
57 0 50 -39 62 -143 44z"/>
</g>
</svg>
