<?xml version="1.0" standalone="no"?>
<!DOCTYPE svg PUBLIC "-//W3C//DTD SVG 20010904//EN"
 "http://www.w3.org/TR/2001/REC-SVG-20010904/DTD/svg10.dtd">
<svg version="1.0" xmlns="http://www.w3.org/2000/svg"
 width="248.000000pt" height="248.000000pt" viewBox="0 0 248.000000 248.000000"
 preserveAspectRatio="xMidYMid meet">
<metadata>
Created by potrace 1.10, written by Peter Selinger 2001-2011
</metadata>
<g transform="translate(0.000000,248.000000) scale(0.100000,-0.100000)"
fill="#000000" stroke="none">
<path d="M1060 2340 c-19 -19 -21 -32 -20 -138 1 -64 -1 -125 -5 -134 -8 -20
-24 -23 -180 -38 -60 -6 -171 -19 -245 -30 -74 -10 -166 -22 -204 -26 -88 -9
-106 -25 -106 -96 -1 -29 -7 -89 -16 -133 -29 -156 -29 -151 0 -170 24 -16 28
-16 50 -1 27 17 50 98 62 219 4 37 10 69 13 71 3 2 29 7 56 10 28 4 57 9 65
11 33 9 317 43 685 81 169 17 689 28 799 17 l79 -8 -54 -56 c-30 -30 -81 -78
-113 -105 -52 -44 -58 -53 -52 -77 8 -32 46 -45 82 -28 71 32 274 263 274 311
0 56 -112 73 -475 72 -148 0 -345 -7 -437 -14 l-168 -13 0 127 c0 115 -2 130
-20 148 -25 25 -45 25 -70 0z"/>
<path d="M1042 1858 c-8 -8 -12 -56 -12 -150 l0 -138 -27 -1 c-16 0 -98 -4
-185 -8 -165 -7 -188 -14 -188 -56 0 -46 19 -50 218 -48 l185 3 -7 -87 c-3
-48 -8 -88 -9 -90 -7 -6 -234 -33 -282 -33 -69 0 -100 -18 -100 -55 0 -23 7
-33 30 -44 26 -13 47 -12 165 2 195 25 181 28 174 -40 -4 -32 -15 -85 -24
-118 l-17 -60 -49 -7 c-260 -36 -440 -73 -467 -96 -21 -19 -19 -61 4 -75 12
-8 57 -3 160 16 205 38 322 57 325 54 5 -5 -45 -136 -75 -194 -16 -32 -53 -92
-82 -133 -62 -87 -257 -283 -311 -311 -56 -29 -64 -92 -13 -105 42 -10 107 35
241 170 155 156 231 264 300 431 l49 117 135 -139 c286 -291 534 -475 736
-544 88 -29 230 -59 285 -59 46 0 73 42 51 78 -5 7 -58 22 -118 33 -249 47
-381 118 -655 351 -63 53 -162 148 -222 211 -105 113 -106 116 -80 121 75 15
363 27 580 25 259 -3 273 0 273 47 0 43 -35 54 -187 61 -140 6 -462 -8 -651
-29 -56 -6 -105 -8 -109 -4 -3 3 -1 23 5 44 6 20 14 69 18 107 3 39 9 73 13
76 6 5 319 45 463 58 37 3 72 11 79 18 18 18 14 65 -7 80 -21 16 -40 16 -119
3 -111 -19 -398 -51 -403 -45 -6 6 -4 107 4 151 6 30 8 32 67 38 34 4 125 18
202 31 377 66 384 68 371 120 -11 43 -38 45 -206 14 -174 -32 -313 -55 -381
-63 l-46 -5 -5 119 c-4 88 -9 126 -22 145 -18 27 -54 33 -74 13z"/>
</g>
</svg>
