<?xml version="1.0" standalone="no"?>
<!DOCTYPE svg PUBLIC "-//W3C//DTD SVG 20010904//EN"
 "http://www.w3.org/TR/2001/REC-SVG-20010904/DTD/svg10.dtd">
<svg version="1.0" xmlns="http://www.w3.org/2000/svg"
 width="248.000000pt" height="248.000000pt" viewBox="0 0 248.000000 248.000000"
 preserveAspectRatio="xMidYMid meet">
<metadata>
Created by potrace 1.10, written by Peter Selinger 2001-2011
</metadata>
<g transform="translate(0.000000,248.000000) scale(0.100000,-0.100000)"
fill="#000000" stroke="none">
<path d="M1196 2358 c-13 -18 -16 -51 -16 -154 l0 -132 -67 -12 c-38 -6 -104
-15 -148 -20 -44 -5 -93 -11 -110 -15 -16 -3 -113 -12 -214 -20 -145 -11 -187
-18 -202 -31 -22 -19 -25 -54 -7 -72 24 -24 293 -6 618 43 52 8 149 19 215 26
66 6 181 19 255 29 74 10 209 24 300 30 91 6 176 17 190 23 35 17 39 61 7 82
-23 14 -41 14 -218 0 -107 -8 -237 -22 -289 -30 -52 -7 -123 -16 -157 -20
l-63 -6 0 128 c0 141 -10 173 -55 173 -13 0 -31 -10 -39 -22z"/>
</g>
</svg>
