<?xml version="1.0" standalone="no"?>
<!DOCTYPE svg PUBLIC "-//W3C//DTD SVG 20010904//EN"
 "http://www.w3.org/TR/2001/REC-SVG-20010904/DTD/svg10.dtd">
<svg version="1.0" xmlns="http://www.w3.org/2000/svg"
 width="248.000000pt" height="248.000000pt" viewBox="0 0 248.000000 248.000000"
 preserveAspectRatio="xMidYMid meet">
<metadata>
Created by potrace 1.10, written by Peter Selinger 2001-2011
</metadata>
<g transform="translate(0.000000,248.000000) scale(0.100000,-0.100000)"
fill="#000000" stroke="none">
<path d="M1196 2358 c-13 -18 -16 -51 -16 -154 l0 -132 -67 -12 c-38 -6 -104
-16 -148 -21 -44 -5 -115 -13 -158 -18 -42 -6 -134 -13 -205 -16 -127 -7 -177
-17 -185 -38 -2 -7 0 -90 6 -186 11 -188 9 -216 -53 -696 -41 -317 -96 -532
-189 -748 -35 -80 -25 -117 31 -117 25 0 32 8 63 75 19 41 35 78 35 82 0 5 13
43 30 86 72 187 109 394 191 1065 6 47 7 142 3 222 -6 117 -5 140 7 140 67 0
340 30 509 55 52 8 149 19 215 26 66 6 181 19 255 29 74 10 209 24 300 30 91
6 176 17 190 23 35 17 39 61 7 82 -23 14 -41 14 -218 0 -107 -8 -237 -22 -289
-30 -52 -7 -123 -16 -157 -20 l-63 -6 0 128 c0 141 -10 173 -55 173 -13 0 -31
-10 -39 -22z"/>
<path d="M1645 1859 c-33 -5 -105 -16 -160 -24 -55 -8 -163 -26 -240 -40 -77
-14 -209 -34 -294 -45 -162 -21 -191 -32 -191 -75 0 -47 30 -53 179 -34 92 11
328 50 451 74 98 19 241 37 246 32 6 -5 -203 -172 -291 -232 -94 -65 -115 -85
-115 -110 0 -29 19 -45 51 -45 46 0 409 274 498 375 34 39 42 93 16 115 -20
17 -79 20 -150 9z"/>
</g>
</svg>
