<?xml version="1.0" standalone="no"?>
<!DOCTYPE svg PUBLIC "-//W3C//DTD SVG 20010904//EN"
 "http://www.w3.org/TR/2001/REC-SVG-20010904/DTD/svg10.dtd">
<svg version="1.0" xmlns="http://www.w3.org/2000/svg"
 width="248.000000pt" height="248.000000pt" viewBox="0 0 248.000000 248.000000"
 preserveAspectRatio="xMidYMid meet">
<metadata>
Created by potrace 1.10, written by Peter Selinger 2001-2011
</metadata>
<g transform="translate(0.000000,248.000000) scale(0.100000,-0.100000)"
fill="#000000" stroke="none">
<path d="M1438 2333 c-18 -22 -81 -116 -139 -208 -63 -101 -232 -333 -334
-457 -27 -33 -64 -80 -82 -103 -17 -24 -48 -55 -67 -70 -41 -31 -52 -56 -36
-85 14 -26 55 -26 94 1 34 24 189 201 221 252 11 18 41 59 67 92 81 101 162
215 228 320 35 55 78 122 97 149 34 50 42 93 21 114 -17 17 -53 15 -70 -5z"/>
<path d="M640 2269 c-36 -4 -142 -15 -237 -22 -98 -8 -178 -19 -187 -26 -22
-19 -23 -60 -14 -521 5 -239 12 -700 16 -1023 7 -567 8 -589 26 -603 25 -18
37 -18 62 0 18 14 19 33 24 421 l5 407 40 -83 c53 -110 78 -139 120 -139 18 0
44 9 60 22 36 28 88 141 120 260 22 81 25 114 25 259 0 242 -40 430 -115 535
l-34 48 24 31 c13 16 48 67 77 113 29 45 77 119 106 164 91 143 62 182 -118
157z m18 -116 c-26 -56 -146 -233 -184 -273 -48 -51 -46 -89 9 -162 80 -108
107 -230 107 -486 0 -155 -3 -200 -19 -258 -24 -84 -57 -164 -69 -164 -5 0
-19 23 -33 52 -33 71 -56 98 -84 98 -13 0 -30 -9 -38 -20 -13 -18 -15 -11 -20
72 -4 51 -9 251 -12 443 -3 193 -8 423 -11 512 l-5 161 78 6 c43 4 103 10 133
15 72 11 153 13 148 4z"/>
</g>
</svg>
