<?xml version="1.0" standalone="no"?>
<!DOCTYPE svg PUBLIC "-//W3C//DTD SVG 20010904//EN"
 "http://www.w3.org/TR/2001/REC-SVG-20010904/DTD/svg10.dtd">
<svg version="1.0" xmlns="http://www.w3.org/2000/svg"
 width="248.000000pt" height="248.000000pt" viewBox="0 0 248.000000 248.000000"
 preserveAspectRatio="xMidYMid meet">
<metadata>
Created by potrace 1.10, written by Peter Selinger 2001-2011
</metadata>
<g transform="translate(0.000000,248.000000) scale(0.100000,-0.100000)"
fill="#000000" stroke="none">
<path d="M640 2269 c-36 -4 -142 -15 -237 -22 -106 -9 -178 -19 -188 -27 -24
-20 -18 -57 11 -76 27 -18 24 -18 383 13 29 3 52 1 49 -4 -24 -52 -145 -232
-184 -273 -51 -53 -42 -100 18 -100 37 0 89 54 159 165 30 47 78 122 107 167
91 143 62 182 -118 157z"/>
</g>
</svg>
