<?xml version="1.0" standalone="no"?>
<!DOCTYPE svg PUBLIC "-//W3C//DTD SVG 20010904//EN"
 "http://www.w3.org/TR/2001/REC-SVG-20010904/DTD/svg10.dtd">
<svg version="1.0" xmlns="http://www.w3.org/2000/svg"
 width="248.000000pt" height="248.000000pt" viewBox="0 0 248.000000 248.000000"
 preserveAspectRatio="xMidYMid meet">
<metadata>
Created by potrace 1.10, written by Peter Selinger 2001-2011
</metadata>
<g transform="translate(0.000000,248.000000) scale(0.100000,-0.100000)"
fill="#000000" stroke="none">
<path d="M1435 2333 c-9 -10 -33 -45 -54 -78 -20 -33 -57 -91 -81 -130 -64
-102 -234 -334 -335 -457 -27 -33 -64 -80 -82 -103 -17 -24 -48 -55 -67 -70
-41 -31 -52 -56 -36 -85 14 -26 55 -26 94 1 34 24 189 201 221 252 11 18 41
59 67 92 84 105 163 217 232 327 l68 108 62 -47 c33 -26 103 -85 155 -132 162
-149 283 -249 376 -313 50 -33 104 -74 122 -89 18 -15 67 -44 109 -64 64 -31
81 -35 101 -26 16 7 23 19 23 39 0 35 -16 50 -95 91 -117 61 -343 234 -505
386 -79 74 -203 180 -237 202 -14 9 -35 37 -47 62 -24 52 -62 66 -91 34z"/>
<path d="M640 2269 c-36 -4 -142 -15 -237 -22 -98 -8 -178 -19 -187 -26 -22
-19 -23 -60 -14 -521 5 -239 12 -700 16 -1023 7 -567 8 -589 26 -603 25 -18
37 -18 62 0 18 14 19 33 24 421 l5 407 40 -83 c53 -110 78 -139 120 -139 18 0
44 9 60 22 36 28 88 141 120 260 22 81 25 114 25 259 0 242 -40 430 -115 535
l-34 48 24 31 c13 16 48 67 77 113 29 45 77 119 106 164 91 143 62 182 -118
157z m18 -116 c-26 -56 -146 -233 -184 -273 -48 -51 -46 -89 9 -162 80 -108
107 -230 107 -486 0 -155 -3 -200 -19 -258 -24 -84 -57 -164 -69 -164 -5 0
-19 23 -33 52 -33 71 -56 98 -84 98 -13 0 -30 -9 -38 -20 -13 -18 -15 -11 -20
72 -4 51 -9 251 -12 443 -3 193 -8 423 -11 512 l-5 161 78 6 c43 4 103 10 133
15 72 11 153 13 148 4z"/>
<path d="M1475 1648 c-121 -11 -231 -25 -245 -31 -36 -18 -39 -61 -6 -83 26
-16 87 -16 224 3 l42 5 0 -145 0 -145 -82 -11 c-46 -6 -163 -16 -260 -22 -97
-6 -187 -17 -200 -23 -33 -17 -36 -60 -5 -81 22 -14 43 -15 183 -5 88 5 201
15 252 21 51 7 95 9 98 6 5 -5 -12 -528 -22 -685 l-6 -84 -24 36 c-18 27 -32
36 -52 36 -49 0 -68 -42 -39 -85 8 -11 19 -35 25 -53 6 -17 28 -57 48 -88 34
-52 39 -55 73 -52 31 3 39 9 56 43 21 43 21 47 45 669 5 154 12 281 13 283 6
5 369 33 437 33 83 0 115 16 115 55 0 59 -36 63 -320 40 -99 -8 -190 -15 -202
-15 -23 0 -23 1 -23 140 0 105 3 140 13 140 6 1 57 5 113 10 108 10 153 24
155 49 2 28 -3 46 -14 53 -18 12 -151 7 -392 -14z"/>
<path d="M1158 883 c-8 -10 -22 -39 -32 -65 -24 -65 -91 -164 -185 -274 -45
-52 -81 -102 -81 -112 0 -42 57 -56 96 -24 12 9 48 49 81 87 158 188 236 348
191 393 -17 17 -53 15 -70 -5z"/>
<path d="M1842 818 c-7 -7 -12 -25 -12 -42 0 -24 14 -42 77 -100 42 -39 128
-124 192 -189 64 -65 124 -117 134 -117 34 0 57 20 57 48 0 21 -24 52 -110
140 -61 62 -132 129 -158 150 -26 20 -65 56 -86 80 -39 43 -71 53 -94 30z"/>
</g>
</svg>
