<?xml version="1.0" standalone="no"?>
<!DOCTYPE svg PUBLIC "-//W3C//DTD SVG 20010904//EN"
 "http://www.w3.org/TR/2001/REC-SVG-20010904/DTD/svg10.dtd">
<svg version="1.0" xmlns="http://www.w3.org/2000/svg"
 width="248.000000pt" height="248.000000pt" viewBox="0 0 248.000000 248.000000"
 preserveAspectRatio="xMidYMid meet">
<metadata>
Created by potrace 1.10, written by Peter Selinger 2001-2011
</metadata>
<g transform="translate(0.000000,248.000000) scale(0.100000,-0.100000)"
fill="#000000" stroke="none">
<path d="M1435 2333 c-9 -10 -33 -45 -54 -78 -20 -33 -57 -91 -81 -130 -64
-102 -234 -334 -335 -457 -27 -33 -64 -80 -82 -103 -17 -24 -48 -55 -67 -70
-41 -31 -52 -56 -36 -85 14 -26 55 -26 94 1 34 24 189 201 221 252 11 18 41
59 67 92 84 105 163 217 232 327 l68 108 62 -47 c33 -26 103 -85 155 -132 162
-149 283 -249 376 -313 50 -33 104 -74 122 -89 18 -15 67 -44 109 -64 64 -31
81 -35 101 -26 16 7 23 19 23 39 0 35 -16 50 -95 91 -117 61 -343 234 -505
386 -79 74 -203 180 -237 202 -14 9 -35 37 -47 62 -24 52 -62 66 -91 34z"/>
<path d="M640 2269 c-36 -4 -142 -15 -237 -22 -98 -8 -178 -19 -187 -26 -22
-19 -23 -60 -14 -521 5 -239 12 -700 16 -1023 7 -567 8 -589 26 -603 25 -18
37 -18 62 0 18 14 19 33 24 421 l5 407 40 -83 c53 -110 78 -139 120 -139 18 0
44 9 60 22 36 28 88 141 120 260 22 81 25 114 25 259 0 242 -40 430 -115 535
l-34 48 24 31 c13 16 48 67 77 113 29 45 77 119 106 164 91 143 62 182 -118
157z m18 -116 c-26 -56 -146 -233 -184 -273 -48 -51 -46 -89 9 -162 80 -108
107 -230 107 -486 0 -155 -3 -200 -19 -258 -24 -84 -57 -164 -69 -164 -5 0
-19 23 -33 52 -33 71 -56 98 -84 98 -13 0 -30 -9 -38 -20 -13 -18 -15 -11 -20
72 -4 51 -9 251 -12 443 -3 193 -8 423 -11 512 l-5 161 78 6 c43 4 103 10 133
15 72 11 153 13 148 4z"/>
<path d="M1625 1659 c-92 -11 -158 -17 -280 -25 -58 -3 -110 -12 -122 -20 -31
-20 -30 -59 2 -80 23 -15 39 -15 212 1 104 9 233 21 288 25 108 9 154 24 156
49 2 28 -3 46 -14 53 -15 10 -151 8 -242 -3z"/>
</g>
</svg>
