<?xml version="1.0" standalone="no"?>
<!DOCTYPE svg PUBLIC "-//W3C//DTD SVG 20010904//EN"
 "http://www.w3.org/TR/2001/REC-SVG-20010904/DTD/svg10.dtd">
<svg version="1.0" xmlns="http://www.w3.org/2000/svg"
 width="248.000000pt" height="248.000000pt" viewBox="0 0 248.000000 248.000000"
 preserveAspectRatio="xMidYMid meet">
<metadata>
Created by potrace 1.10, written by Peter Selinger 2001-2011
</metadata>
<g transform="translate(0.000000,248.000000) scale(0.100000,-0.100000)"
fill="#000000" stroke="none">
<path d="M1027 2263 c-178 -167 -315 -274 -487 -378 -69 -42 -86 -57 -88 -79
-4 -33 13 -56 43 -56 24 0 150 76 281 171 101 72 89 74 217 -36 46 -39 94 -79
108 -89 l24 -17 -65 -60 c-140 -129 -368 -274 -540 -343 -95 -39 -127 -57
-137 -76 -14 -28 1 -62 31 -68 9 -2 74 20 144 49 191 79 406 215 561 354 46
41 88 75 93 75 9 0 118 -60 278 -155 177 -105 503 -249 617 -273 28 -6 87 -14
130 -18 67 -6 82 -4 96 10 43 43 5 81 -89 90 -38 4 -91 12 -119 18 -113 25
-469 185 -602 271 -39 25 -98 59 -130 75 -32 17 -69 39 -83 50 l-24 20 149
161 c250 270 275 300 275 325 0 47 -16 50 -203 38 -225 -16 -316 -15 -347 3
-14 8 -31 14 -38 15 -7 0 -50 -35 -95 -77z m503 -50 c0 -4 -40 -48 -88 -97
-48 -50 -122 -129 -164 -175 -90 -98 -81 -98 -191 -2 -35 31 -81 70 -101 86
l-38 30 86 75 c55 49 97 77 118 81 46 9 378 11 378 2z"/>
<path d="M1162 1489 c-26 -10 -25 6 -23 -209 1 -96 -2 -180 -6 -186 -8 -12
-134 -19 -493 -30 -113 -4 -211 -11 -217 -17 -7 -5 -13 -20 -13 -32 0 -47 9
-48 350 -42 241 4 318 2 313 -6 -60 -101 -250 -315 -379 -427 -137 -120 -231
-187 -328 -235 -62 -31 -82 -46 -84 -63 -5 -34 15 -52 58 -52 45 0 158 66 300
173 111 84 329 298 418 410 47 59 64 74 68 62 4 -9 2 -163 -3 -343 -7 -217 -6
-335 0 -349 13 -29 71 -33 82 -5 4 9 9 174 12 365 3 192 8 379 11 415 l7 67
80 7 c44 3 184 14 310 23 387 28 486 40 502 61 16 23 16 35 0 58 -17 23 -33
24 -252 3 -99 -9 -245 -22 -325 -27 -80 -6 -180 -13 -223 -17 -62 -5 -81 -3
-88 8 -5 8 -8 93 -7 189 1 96 -1 180 -5 186 -10 17 -39 22 -65 13z"/>
</g>
</svg>
