<?xml version="1.0" standalone="no"?>
<!DOCTYPE svg PUBLIC "-//W3C//DTD SVG 20010904//EN"
 "http://www.w3.org/TR/2001/REC-SVG-20010904/DTD/svg10.dtd">
<svg version="1.0" xmlns="http://www.w3.org/2000/svg"
 width="248.000000pt" height="248.000000pt" viewBox="0 0 248.000000 248.000000"
 preserveAspectRatio="xMidYMid meet">
<metadata>
Created by potrace 1.10, written by Peter Selinger 2001-2011
</metadata>
<g transform="translate(0.000000,248.000000) scale(0.100000,-0.100000)"
fill="#000000" stroke="none">
<path d="M1027 2263 c-178 -167 -315 -274 -487 -378 -69 -42 -86 -57 -88 -79
-4 -33 13 -56 43 -56 24 0 150 76 281 171 101 72 89 74 217 -36 46 -39 94 -79
108 -89 l24 -17 -65 -60 c-140 -129 -368 -274 -540 -343 -95 -39 -127 -57
-137 -76 -14 -28 1 -62 31 -68 9 -2 74 20 144 49 191 79 406 215 561 354 46
41 88 75 93 75 9 0 118 -60 278 -155 177 -105 503 -249 617 -273 28 -6 87 -14
130 -18 67 -6 82 -4 96 10 43 43 5 81 -89 90 -38 4 -91 12 -119 18 -113 25
-469 185 -602 271 -39 25 -98 59 -130 75 -32 17 -69 39 -83 50 l-24 20 149
161 c250 270 275 300 275 325 0 47 -16 50 -203 38 -225 -16 -316 -15 -347 3
-14 8 -31 14 -38 15 -7 0 -50 -35 -95 -77z m503 -50 c0 -4 -40 -48 -88 -97
-48 -50 -122 -129 -164 -175 -90 -98 -81 -98 -191 -2 -35 31 -81 70 -101 86
l-38 30 86 75 c55 49 97 77 118 81 46 9 378 11 378 2z"/>
<path d="M2060 1157 c-21 -21 -1227 -97 -1520 -97 -69 0 -110 -4 -118 -12 -15
-15 -15 -51 0 -66 33 -33 1003 6 1562 62 104 11 132 17 143 32 16 22 16 36 1
57 -13 16 -59 32 -68 24z"/>
</g>
</svg>
