<?xml version="1.0" standalone="no"?>
<!DOCTYPE svg PUBLIC "-//W3C//DTD SVG 20010904//EN"
 "http://www.w3.org/TR/2001/REC-SVG-20010904/DTD/svg10.dtd">
<svg version="1.0" xmlns="http://www.w3.org/2000/svg"
 width="248.000000pt" height="248.000000pt" viewBox="0 0 248.000000 248.000000"
 preserveAspectRatio="xMidYMid meet">
<metadata>
Created by potrace 1.10, written by Peter Selinger 2001-2011
</metadata>
<g transform="translate(0.000000,248.000000) scale(0.100000,-0.100000)"
fill="#000000" stroke="none">
<path d="M1489 2146 c-3 -3 -118 -10 -255 -16 -252 -11 -373 -19 -633 -44
-194 -18 -184 -4 -179 -241 2 -153 6 -185 21 -208 19 -30 57 -36 77 -12 8 10
11 63 11 180 -1 91 2 165 6 166 324 33 405 39 633 50 129 7 384 14 565 16
l330 3 -118 -113 c-103 -99 -118 -118 -115 -142 4 -36 29 -52 62 -40 32 12
272 238 297 280 23 37 24 88 2 106 -13 11 -86 15 -357 17 -188 2 -344 1 -347
-2z"/>
</g>
</svg>
