<?xml version="1.0" standalone="no"?>
<!DOCTYPE svg PUBLIC "-//W3C//DTD SVG 20010904//EN"
 "http://www.w3.org/TR/2001/REC-SVG-20010904/DTD/svg10.dtd">
<svg version="1.0" xmlns="http://www.w3.org/2000/svg"
 width="248.000000pt" height="248.000000pt" viewBox="0 0 248.000000 248.000000"
 preserveAspectRatio="xMidYMid meet">
<metadata>
Created by potrace 1.10, written by Peter Selinger 2001-2011
</metadata>
<g transform="translate(0.000000,248.000000) scale(0.100000,-0.100000)"
fill="#000000" stroke="none">
<path d="M449 1894 c-9 -12 -16 -69 -21 -188 -5 -94 -11 -207 -14 -252 l-6
-81 -111 -17 c-123 -20 -157 -35 -157 -69 0 -34 19 -47 65 -47 39 0 139 15
179 27 19 5 19 -1 13 -234 -4 -132 -9 -247 -12 -255 -3 -8 -60 -39 -127 -68
-66 -30 -131 -63 -144 -73 -40 -31 -26 -87 21 -87 12 0 73 23 135 51 63 28
161 70 216 94 141 59 272 132 279 156 10 29 -4 58 -30 65 -17 4 -52 -9 -124
-47 -56 -29 -103 -50 -106 -47 -3 3 -2 107 2 233 l8 228 120 24 c128 26 158
42 153 81 -5 45 -27 48 -149 24 -62 -12 -114 -20 -116 -19 -1 2 2 108 8 235
10 209 9 235 -5 257 -19 29 -57 33 -77 9z"/>
</g>
</svg>
