<?xml version="1.0" standalone="no"?>
<!DOCTYPE svg PUBLIC "-//W3C//DTD SVG 20010904//EN"
 "http://www.w3.org/TR/2001/REC-SVG-20010904/DTD/svg10.dtd">
<svg version="1.0" xmlns="http://www.w3.org/2000/svg"
 width="248.000000pt" height="248.000000pt" viewBox="0 0 248.000000 248.000000"
 preserveAspectRatio="xMidYMid meet">
<metadata>
Created by potrace 1.10, written by Peter Selinger 2001-2011
</metadata>
<g transform="translate(0.000000,248.000000) scale(0.100000,-0.100000)"
fill="#000000" stroke="none">
<path d="M1129 2354 c-11 -13 -15 -64 -17 -224 l-3 -207 -147 -7 c-173 -7
-537 -44 -569 -56 -12 -5 -30 -28 -41 -52 -16 -38 -17 -50 -6 -118 6 -41 17
-113 24 -160 15 -103 31 -132 68 -128 43 5 53 39 37 128 -21 124 -34 224 -29
229 3 3 69 13 147 23 155 18 1361 55 1425 43 l35 -6 -112 -107 c-73 -70 -111
-114 -111 -128 0 -24 29 -54 53 -54 20 0 251 212 278 256 38 62 21 98 -61 131
-40 16 -80 17 -340 16 -162 -1 -350 -5 -417 -9 l-123 -6 0 198 c0 140 -4 206
-13 224 -15 31 -58 38 -78 14z"/>
<path d="M1545 2278 c-14 -18 -57 -73 -95 -122 -73 -92 -84 -127 -49 -149 40
-25 86 16 217 196 57 80 -12 152 -73 75z"/>
<path d="M712 2198 c-17 -17 -15 -53 4 -69 8 -7 22 -26 31 -43 25 -48 113
-136 137 -136 59 0 61 58 4 127 -24 28 -58 70 -76 92 -35 43 -75 54 -100 29z"/>
<path d="M769 1654 c-11 -13 -10 -30 6 -102 10 -48 22 -112 26 -142 11 -79 61
-111 100 -64 23 27 -23 267 -58 306 -20 22 -56 23 -74 2z"/>
</g>
</svg>
