<?xml version="1.0" standalone="no"?>
<!DOCTYPE svg PUBLIC "-//W3C//DTD SVG 20010904//EN"
 "http://www.w3.org/TR/2001/REC-SVG-20010904/DTD/svg10.dtd">
<svg version="1.0" xmlns="http://www.w3.org/2000/svg"
 width="248.000000pt" height="248.000000pt" viewBox="0 0 248.000000 248.000000"
 preserveAspectRatio="xMidYMid meet">
<metadata>
Created by potrace 1.10, written by Peter Selinger 2001-2011
</metadata>
<g transform="translate(0.000000,248.000000) scale(0.100000,-0.100000)"
fill="#000000" stroke="none">
<path d="M455 2136 c-18 -13 -19 -28 -16 -243 2 -181 0 -232 -11 -240 -18 -16
-169 -53 -212 -53 -38 0 -76 -28 -76 -55 0 -8 9 -24 21 -36 24 -24 63 -21 190
11 40 11 77 16 82 13 9 -5 7 -90 -6 -443 0 -14 1 -32 4 -40 3 -9 -31 -34 -106
-77 -246 -140 -269 -158 -244 -204 18 -35 46 -32 122 14 39 25 122 73 182 107
140 80 442 285 455 310 5 10 10 23 10 29 0 16 -30 41 -50 41 -11 0 -76 -39
-145 -86 -69 -47 -125 -82 -125 -77 -3 65 2 437 6 447 3 8 38 24 77 35 101 30
194 76 202 100 3 11 1 30 -5 42 -15 27 -41 23 -172 -25 -94 -34 -97 -34 -103
-15 -4 11 -5 113 -4 226 3 192 2 206 -16 219 -24 18 -36 18 -60 0z"/>
</g>
</svg>
