<?xml version="1.0" standalone="no"?>
<!DOCTYPE svg PUBLIC "-//W3C//DTD SVG 20010904//EN"
 "http://www.w3.org/TR/2001/REC-SVG-20010904/DTD/svg10.dtd">
<svg version="1.0" xmlns="http://www.w3.org/2000/svg"
 width="248.000000pt" height="248.000000pt" viewBox="0 0 248.000000 248.000000"
 preserveAspectRatio="xMidYMid meet">
<metadata>
Created by potrace 1.10, written by Peter Selinger 2001-2011
</metadata>
<g transform="translate(0.000000,248.000000) scale(0.100000,-0.100000)"
fill="#000000" stroke="none">
<path d="M1700 2382 c-354 -29 -464 -47 -487 -78 -19 -26 -16 -42 11 -67 22
-21 23 -27 30 -257 6 -205 4 -241 -10 -288 -23 -72 -13 -87 52 -87 27 1 97 9
157 18 59 10 170 20 248 24 108 5 145 10 159 22 14 13 23 60 44 236 35 294 43
457 25 471 -23 19 -67 20 -229 6z m135 -184 c-4 -51 -10 -96 -14 -99 -9 -9
-460 -63 -468 -56 -3 3 -6 50 -7 103 l-1 98 85 13 c78 12 260 28 369 32 l43 1
-7 -92z m-29 -255 c-4 -27 -9 -76 -13 -110 -3 -35 -11 -67 -17 -72 -6 -5 -81
-15 -166 -21 -85 -6 -176 -15 -202 -19 -27 -4 -50 -6 -53 -3 -3 3 -5 52 -5
108 0 99 1 104 23 108 35 8 376 52 421 55 17 1 18 -4 12 -46z"/>
<path d="M455 2136 c-18 -13 -19 -28 -16 -243 2 -181 0 -232 -11 -240 -18 -16
-169 -53 -212 -53 -38 0 -76 -28 -76 -55 0 -8 9 -24 21 -36 24 -24 63 -21 190
11 40 11 77 16 82 13 6 -4 7 -81 2 -207 -4 -111 -7 -214 -8 -231 0 -16 1 -37
4 -45 3 -9 -31 -34 -106 -77 -246 -140 -269 -158 -244 -204 18 -35 46 -32 122
14 39 25 122 73 182 107 140 80 442 285 455 310 5 10 10 23 10 29 0 16 -30 41
-50 41 -11 0 -76 -39 -145 -86 -69 -47 -125 -82 -125 -77 -3 65 2 437 6 447 3
8 38 24 77 35 101 30 194 76 202 100 3 11 1 30 -5 42 -15 27 -41 23 -172 -25
-94 -34 -97 -34 -103 -15 -4 11 -5 113 -4 226 3 192 2 206 -16 219 -24 18 -36
18 -60 0z"/>
<path d="M2035 1493 c-88 -7 -293 -25 -455 -39 -469 -40 -639 -59 -649 -69
-38 -42 -5 -101 52 -91 18 3 54 8 81 12 59 8 60 16 -20 -134 -59 -109 -162
-237 -220 -273 -19 -12 -42 -32 -51 -45 -14 -22 -14 -26 1 -49 9 -14 24 -25
34 -25 33 0 106 56 187 142 l80 86 93 7 92 7 -9 -23 c-63 -161 -183 -358 -270
-444 -51 -49 -62 -80 -39 -103 56 -56 217 121 344 378 28 58 60 128 70 157 21
58 18 57 159 68 44 3 90 8 103 11 14 3 22 0 22 -9 0 -24 -187 -383 -246 -473
-35 -53 -138 -178 -209 -254 -54 -57 -60 -75 -35 -100 42 -42 61 -29 201 135
113 131 159 204 291 460 60 118 117 223 126 234 18 21 81 30 309 47 80 6 93 4
99 -10 7 -18 -19 -177 -47 -291 -28 -112 -212 -482 -267 -538 l-28 -27 -67 56
c-69 57 -110 71 -128 43 -21 -33 -8 -58 57 -116 82 -72 99 -82 148 -83 34 0
46 6 85 47 26 27 62 80 82 118 19 39 64 126 100 195 36 69 75 150 87 181 30
82 72 289 79 394 8 131 12 129 -187 126 -58 -1 -152 -6 -210 -12 -58 -5 -181
-16 -275 -25 -93 -8 -237 -24 -320 -34 -82 -11 -150 -18 -151 -17 -1 1 20 47
46 103 l49 100 78 12 c43 7 137 17 208 22 72 5 184 14 250 20 66 5 203 17 305
25 101 9 190 21 197 27 34 28 -3 90 -52 87 -11 -1 -92 -8 -180 -16z"/>
</g>
</svg>
