<?xml version="1.0" standalone="no"?>
<!DOCTYPE svg PUBLIC "-//W3C//DTD SVG 20010904//EN"
 "http://www.w3.org/TR/2001/REC-SVG-20010904/DTD/svg10.dtd">
<svg version="1.0" xmlns="http://www.w3.org/2000/svg"
 width="248.000000pt" height="248.000000pt" viewBox="0 0 248.000000 248.000000"
 preserveAspectRatio="xMidYMid meet">
<metadata>
Created by potrace 1.10, written by Peter Selinger 2001-2011
</metadata>
<g transform="translate(0.000000,248.000000) scale(0.100000,-0.100000)"
fill="#000000" stroke="none">
<path d="M455 2136 c-18 -13 -19 -28 -16 -243 2 -181 0 -232 -11 -240 -18 -16
-169 -53 -212 -53 -38 0 -76 -28 -76 -55 0 -8 9 -24 21 -36 24 -24 63 -21 190
11 40 11 77 16 82 13 10 -6 2 -370 -9 -428 -4 -22 0 -38 14 -55 17 -21 24 -23
48 -15 39 14 41 30 43 290 1 121 5 226 9 232 5 7 44 24 88 37 103 31 181 70
189 95 3 11 1 30 -5 42 -15 27 -41 23 -172 -25 -94 -34 -97 -34 -103 -15 -4
11 -5 113 -4 226 3 192 2 206 -16 219 -24 18 -36 18 -60 0z"/>
</g>
</svg>
