<?xml version="1.0" standalone="no"?>
<!DOCTYPE svg PUBLIC "-//W3C//DTD SVG 20010904//EN"
 "http://www.w3.org/TR/2001/REC-SVG-20010904/DTD/svg10.dtd">
<svg version="1.0" xmlns="http://www.w3.org/2000/svg"
 width="248.000000pt" height="248.000000pt" viewBox="0 0 248.000000 248.000000"
 preserveAspectRatio="xMidYMid meet">
<metadata>
Created by potrace 1.10, written by Peter Selinger 2001-2011
</metadata>
<g transform="translate(0.000000,248.000000) scale(0.100000,-0.100000)"
fill="#000000" stroke="none">
<path d="M1490 2336 c-25 -13 -83 -37 -130 -54 -47 -17 -160 -60 -251 -96 -92
-36 -220 -81 -285 -101 -65 -20 -124 -41 -131 -47 -23 -19 -16 -67 11 -80 21
-9 51 -2 194 45 92 30 220 76 283 102 62 26 162 65 221 86 165 59 208 84 208
124 0 50 -48 58 -120 21z"/>
<path d="M1755 1913 c-315 -18 -440 -27 -600 -43 -104 -11 -253 -24 -330 -30
-264 -20 -325 -35 -325 -84 0 -42 23 -51 103 -39 40 6 75 7 79 4 9 -9 38 -305
30 -312 -4 -3 -108 -18 -232 -33 -240 -29 -293 -44 -298 -84 -6 -38 16 -55 63
-49 22 3 126 17 230 31 201 27 251 31 258 19 3 -5 8 -56 12 -114 l7 -107 -68
-12 c-77 -13 -94 -23 -94 -55 0 -48 11 -49 298 -26 147 13 301 26 342 31 41 4
165 11 275 15 215 7 245 15 245 59 0 36 -22 47 -84 45 -31 -1 -58 0 -62 3 -3
3 0 26 6 49 7 24 17 76 24 114 l12 70 289 3 c251 2 291 4 307 19 21 19 24 58
6 70 -7 4 -140 6 -294 4 -160 -2 -284 1 -287 6 -3 5 -2 36 3 69 5 32 15 107
21 167 l13 107 40 2 c23 1 60 0 84 -1 53 -3 92 20 92 54 0 33 -38 57 -86 53
-22 -2 -57 -4 -79 -5z m-155 -134 c0 -51 -43 -305 -52 -310 -6 -4 -63 -7 -127
-8 -119 -2 -511 -27 -568 -36 -28 -5 -32 -3 -37 22 -9 48 -28 284 -23 289 2 3
62 9 133 14 71 4 199 15 284 24 210 21 224 22 313 24 72 2 77 1 77 -19z m-64
-424 c3 -8 -5 -63 -18 -122 l-23 -108 -175 -11 c-96 -6 -239 -17 -317 -25 -79
-7 -145 -10 -149 -7 -3 4 -8 58 -11 121 l-6 115 29 6 c16 3 128 12 249 21 424
29 414 29 421 10z"/>
</g>
</svg>
