<?xml version="1.0" standalone="no"?>
<!DOCTYPE svg PUBLIC "-//W3C//DTD SVG 20010904//EN"
 "http://www.w3.org/TR/2001/REC-SVG-20010904/DTD/svg10.dtd">
<svg version="1.0" xmlns="http://www.w3.org/2000/svg"
 width="248.000000pt" height="248.000000pt" viewBox="0 0 248.000000 248.000000"
 preserveAspectRatio="xMidYMid meet">
<metadata>
Created by potrace 1.10, written by Peter Selinger 2001-2011
</metadata>
<g transform="translate(0.000000,248.000000) scale(0.100000,-0.100000)"
fill="#000000" stroke="none">
<path d="M1080 2165 c-11 -13 -11 -27 -2 -74 14 -69 15 -299 3 -586 -6 -115
-12 -318 -16 -450 -7 -304 -13 -418 -26 -477 -14 -60 3 -102 43 -106 62 -7 64
10 84 713 3 121 8 223 10 226 2 4 4 163 4 354 1 319 -1 350 -18 379 -21 36
-61 46 -82 21z"/>
</g>
</svg>
