<?xml version="1.0" standalone="no"?>
<!DOCTYPE svg PUBLIC "-//W3C//DTD SVG 20010904//EN"
 "http://www.w3.org/TR/2001/REC-SVG-20010904/DTD/svg10.dtd">
<svg version="1.0" xmlns="http://www.w3.org/2000/svg"
 width="248.000000pt" height="248.000000pt" viewBox="0 0 248.000000 248.000000"
 preserveAspectRatio="xMidYMid meet">
<metadata>
Created by potrace 1.10, written by Peter Selinger 2001-2011
</metadata>
<g transform="translate(0.000000,248.000000) scale(0.100000,-0.100000)"
fill="#000000" stroke="none">
<path d="M1768 2246 c-14 -7 -24 -22 -26 -39 -3 -22 3 -30 29 -45 18 -9 66
-47 105 -84 73 -68 106 -82 132 -56 28 28 13 59 -65 137 -85 84 -133 108 -175
87z"/>
<path d="M1372 2218 c-16 -16 -15 -46 7 -168 31 -168 41 -234 36 -238 -2 -2
-30 -10 -62 -17 -32 -7 -127 -29 -211 -49 -84 -20 -163 -36 -176 -36 -13 0
-34 -8 -46 -18 -21 -17 -22 -23 -24 -307 -3 -300 -10 -368 -61 -567 -27 -101
-92 -266 -145 -365 -51 -93 -60 -129 -38 -151 17 -17 53 -15 70 6 30 33 119
210 154 308 66 179 89 275 120 503 8 57 16 106 18 108 2 3 44 15 93 29 48 13
114 33 146 45 32 12 59 20 61 18 4 -4 -21 -154 -48 -289 -28 -141 -75 -314
-93 -343 -3 -5 -18 14 -34 42 -24 42 -34 51 -57 51 -64 0 -68 -47 -12 -142 44
-73 62 -88 108 -88 69 0 116 112 183 430 30 142 68 361 69 391 0 45 -31 63
-99 56 -32 -4 -82 -16 -111 -27 -55 -22 -201 -63 -205 -58 -2 2 -5 63 -7 135
l-3 133 55 11 c30 6 127 28 214 49 88 22 164 37 168 34 4 -3 8 -14 8 -25 0
-11 16 -81 36 -157 20 -75 42 -162 49 -192 7 -30 25 -89 39 -130 15 -41 42
-124 61 -185 39 -126 42 -108 -53 -255 -104 -159 -125 -190 -144 -206 -23 -22
-23 -46 0 -67 44 -40 85 -6 193 159 45 68 84 124 88 124 3 0 30 -53 60 -118
60 -128 137 -250 243 -383 67 -86 83 -99 117 -99 29 0 46 29 80 130 44 135 40
180 -16 180 -27 0 -44 -26 -68 -97 -9 -29 -20 -53 -25 -53 -5 0 -43 48 -85
106 -77 108 -152 248 -207 386 l-31 78 26 38 c14 21 44 74 66 118 23 43 50 95
61 114 34 60 22 110 -26 110 -29 0 -49 -26 -114 -149 -29 -56 -55 -100 -57
-97 -9 8 -101 286 -107 323 -4 21 -15 65 -26 98 -21 69 -60 236 -60 259 0 8 3
17 8 19 12 8 205 46 289 58 88 12 109 21 118 49 12 38 -11 60 -63 60 -45 0
-176 -22 -314 -52 -32 -6 -60 -9 -63 -6 -4 3 -12 43 -20 89 -30 184 -48 265
-62 282 -19 20 -54 22 -71 5z"/>
<path d="M449 1894 c-9 -12 -16 -69 -21 -188 -5 -94 -11 -207 -14 -252 l-6
-81 -111 -17 c-123 -20 -157 -35 -157 -69 0 -34 19 -47 65 -47 39 0 139 15
179 27 19 5 19 -1 13 -234 -4 -132 -9 -247 -12 -255 -3 -8 -60 -39 -127 -68
-66 -30 -131 -63 -144 -73 -40 -31 -26 -87 21 -87 12 0 73 23 135 51 63 28
161 70 216 94 141 59 272 132 279 156 10 29 -4 58 -30 65 -17 4 -52 -9 -124
-47 -56 -29 -103 -50 -106 -47 -3 3 -2 107 2 233 l8 228 120 24 c128 26 158
42 153 81 -5 45 -27 48 -149 24 -62 -12 -114 -20 -116 -19 -1 2 2 108 8 235
10 209 9 235 -5 257 -19 29 -57 33 -77 9z"/>
</g>
</svg>
