<?xml version="1.0" standalone="no"?>
<!DOCTYPE svg PUBLIC "-//W3C//DTD SVG 20010904//EN"
 "http://www.w3.org/TR/2001/REC-SVG-20010904/DTD/svg10.dtd">
<svg version="1.0" xmlns="http://www.w3.org/2000/svg"
 width="248.000000pt" height="248.000000pt" viewBox="0 0 248.000000 248.000000"
 preserveAspectRatio="xMidYMid meet">
<metadata>
Created by potrace 1.10, written by Peter Selinger 2001-2011
</metadata>
<g transform="translate(0.000000,248.000000) scale(0.100000,-0.100000)"
fill="#000000" stroke="none">
<path d="M1129 2354 c-11 -13 -15 -64 -17 -224 l-3 -207 -147 -7 c-173 -7
-537 -44 -569 -56 -12 -5 -30 -28 -41 -52 -16 -38 -17 -50 -6 -118 6 -41 17
-113 24 -160 15 -103 31 -132 68 -128 43 5 53 39 37 128 -21 124 -34 224 -29
229 3 3 69 13 147 23 156 18 1360 55 1424 43 l36 -6 -112 -107 c-73 -70 -111
-114 -111 -128 0 -24 29 -54 53 -54 20 0 251 212 278 256 38 62 21 98 -61 131
-40 16 -80 17 -340 16 -162 -1 -350 -5 -417 -9 l-123 -6 0 198 c0 140 -4 206
-13 224 -15 31 -58 38 -78 14z"/>
<path d="M1545 2278 c-14 -18 -57 -73 -95 -122 -73 -92 -84 -127 -49 -149 40
-25 86 16 217 196 57 80 -12 152 -73 75z"/>
<path d="M712 2198 c-17 -17 -15 -53 4 -69 8 -7 22 -26 31 -43 25 -48 113
-136 137 -136 59 0 61 58 4 127 -24 28 -58 70 -76 92 -35 43 -75 54 -100 29z"/>
<path d="M1135 1725 c-11 -2 -81 -9 -155 -16 -138 -12 -204 -32 -217 -65 -3
-9 2 -50 11 -92 10 -42 21 -103 26 -136 15 -102 -4 -97 354 -91 171 4 321 8
333 11 13 2 34 23 49 45 23 36 30 67 61 236 9 50 -3 80 -37 92 -29 10 -384 23
-425 16z m349 -116 c8 -7 -20 -149 -31 -159 -4 -4 -129 -9 -277 -11 l-270 -4
-17 77 -17 78 32 5 c111 21 563 32 580 14z"/>
<path d="M1210 1229 c-149 -7 -373 -31 -473 -50 -26 -5 -63 -9 -82 -9 -26 0
-39 -6 -51 -25 -15 -23 -15 -36 -5 -118 18 -135 41 -375 41 -427 0 -58 23 -92
58 -88 18 2 31 13 41 32 14 29 9 118 -19 361 -19 163 -20 159 20 167 171 34
501 58 809 58 l164 0 -7 -107 c-14 -248 -39 -413 -61 -413 -7 0 -18 7 -25 16
-17 19 -69 15 -83 -7 -17 -27 2 -62 59 -112 42 -37 62 -47 89 -47 47 0 59 22
80 145 28 170 55 404 55 487 0 82 -15 127 -47 139 -28 10 -335 10 -563 -2z"/>
</g>
</svg>
