<?xml version="1.0" standalone="no"?>
<!DOCTYPE svg PUBLIC "-//W3C//DTD SVG 20010904//EN"
 "http://www.w3.org/TR/2001/REC-SVG-20010904/DTD/svg10.dtd">
<svg version="1.0" xmlns="http://www.w3.org/2000/svg"
 width="248.000000pt" height="248.000000pt" viewBox="0 0 248.000000 248.000000"
 preserveAspectRatio="xMidYMid meet">
<metadata>
Created by potrace 1.10, written by Peter Selinger 2001-2011
</metadata>
<g transform="translate(0.000000,248.000000) scale(0.100000,-0.100000)"
fill="#000000" stroke="none">
<path d="M1129 2354 c-11 -13 -15 -63 -17 -221 -3 -175 -1 -208 13 -229 12
-18 24 -24 43 -22 46 5 52 34 52 243 0 133 -4 198 -13 215 -15 31 -58 38 -78
14z"/>
<path d="M1545 2278 c-14 -18 -57 -73 -95 -122 -73 -92 -84 -127 -49 -149 40
-25 86 16 217 196 57 80 -12 152 -73 75z"/>
<path d="M712 2198 c-17 -17 -15 -53 4 -69 8 -7 22 -26 31 -43 25 -48 113
-136 137 -136 59 0 61 58 4 127 -24 28 -58 70 -76 92 -35 43 -75 54 -100 29z"/>
<path d="M352 1798 c-14 -14 -15 -51 -3 -132 6 -34 15 -97 22 -141 14 -98 30
-127 67 -123 43 5 53 39 37 128 -7 41 -18 111 -24 155 -6 43 -18 89 -26 102
-17 25 -54 30 -73 11z"/>
</g>
</svg>
