<?xml version="1.0" standalone="no"?>
<!DOCTYPE svg PUBLIC "-//W3C//DTD SVG 20010904//EN"
 "http://www.w3.org/TR/2001/REC-SVG-20010904/DTD/svg10.dtd">
<svg version="1.0" xmlns="http://www.w3.org/2000/svg"
 width="248.000000pt" height="248.000000pt" viewBox="0 0 248.000000 248.000000"
 preserveAspectRatio="xMidYMid meet">
<metadata>
Created by potrace 1.10, written by Peter Selinger 2001-2011
</metadata>
<g transform="translate(0.000000,248.000000) scale(0.100000,-0.100000)"
fill="#000000" stroke="none">
<path d="M1490 2336 c-25 -13 -83 -37 -130 -54 -47 -17 -160 -60 -251 -96 -92
-36 -220 -81 -285 -101 -65 -20 -124 -41 -131 -47 -23 -19 -16 -67 11 -80 21
-9 51 -2 194 45 92 30 220 76 283 102 62 26 162 65 221 86 165 59 208 84 208
124 0 50 -48 58 -120 21z"/>
</g>
</svg>
