<?xml version="1.0" standalone="no"?>
<!DOCTYPE svg PUBLIC "-//W3C//DTD SVG 20010904//EN"
 "http://www.w3.org/TR/2001/REC-SVG-20010904/DTD/svg10.dtd">
<svg version="1.0" xmlns="http://www.w3.org/2000/svg"
 width="248.000000pt" height="248.000000pt" viewBox="0 0 248.000000 248.000000"
 preserveAspectRatio="xMidYMid meet">
<metadata>
Created by potrace 1.10, written by Peter Selinger 2001-2011
</metadata>
<g transform="translate(0.000000,248.000000) scale(0.100000,-0.100000)"
fill="#000000" stroke="none">
<path d="M1129 2354 c-11 -13 -15 -64 -17 -224 l-3 -207 -147 -7 c-173 -7
-537 -44 -569 -56 -12 -5 -30 -28 -41 -52 -16 -38 -17 -50 -6 -118 6 -41 17
-113 24 -160 15 -103 31 -132 68 -128 43 5 53 39 37 128 -21 124 -34 224 -29
229 3 3 69 13 147 23 156 18 1360 55 1424 43 l36 -6 -112 -107 c-73 -70 -111
-114 -111 -128 0 -24 29 -54 53 -54 20 0 251 212 278 256 38 62 21 98 -61 131
-40 16 -80 17 -340 16 -162 -1 -350 -5 -417 -9 l-123 -6 0 198 c0 140 -4 206
-13 224 -15 31 -58 38 -78 14z"/>
<path d="M1545 2278 c-14 -18 -57 -73 -95 -122 -73 -92 -84 -127 -49 -149 40
-25 86 16 217 196 57 80 -12 152 -73 75z"/>
<path d="M712 2198 c-17 -17 -15 -53 4 -69 8 -7 22 -26 31 -43 25 -48 113
-136 137 -136 59 0 61 58 4 127 -24 28 -58 70 -76 92 -35 43 -75 54 -100 29z"/>
<path d="M1135 1725 c-11 -2 -81 -9 -155 -16 -137 -12 -204 -32 -217 -65 -3
-9 4 -61 15 -117 12 -56 24 -118 27 -138 10 -67 26 -72 185 -67 l140 5 0 -53
0 -54 -51 0 c-48 0 -203 -18 -335 -40 -34 -6 -75 -10 -92 -10 -23 0 -36 -7
-48 -25 -15 -23 -15 -35 0 -163 26 -222 36 -327 36 -379 0 -61 22 -95 58 -91
18 2 31 13 41 32 14 29 9 118 -19 361 -19 163 -20 159 20 167 50 10 253 36
333 43 l67 6 0 -473 c0 -518 1 -523 55 -523 54 0 55 5 55 521 l0 471 46 7 c26
3 130 6 232 6 l185 0 -7 -107 c-14 -248 -39 -413 -61 -413 -7 0 -18 7 -25 16
-17 19 -69 15 -83 -7 -17 -27 2 -62 59 -112 42 -37 62 -47 89 -47 47 0 59 22
80 145 29 172 55 404 55 489 0 94 -18 133 -66 142 -21 4 -145 4 -276 1 l-238
-5 0 49 0 49 121 0 c66 0 129 4 139 10 10 5 28 26 40 47 19 32 28 69 57 230 9
50 -3 80 -37 92 -29 10 -384 23 -425 16z m349 -116 c8 -7 -20 -149 -31 -159
-4 -4 -129 -9 -277 -11 l-270 -4 -17 77 -17 78 32 5 c111 21 563 32 580 14z"/>
</g>
</svg>
