<?xml version="1.0" standalone="no"?>
<!DOCTYPE svg PUBLIC "-//W3C//DTD SVG 20010904//EN"
 "http://www.w3.org/TR/2001/REC-SVG-20010904/DTD/svg10.dtd">
<svg version="1.0" xmlns="http://www.w3.org/2000/svg"
 width="248.000000pt" height="248.000000pt" viewBox="0 0 248.000000 248.000000"
 preserveAspectRatio="xMidYMid meet">
<metadata>
Created by potrace 1.10, written by Peter Selinger 2001-2011
</metadata>
<g transform="translate(0.000000,248.000000) scale(0.100000,-0.100000)"
fill="#000000" stroke="none">
<path d="M459 2383 c-11 -12 -15 -77 -17 -299 l-3 -282 -47 -10 c-26 -6 -72
-14 -102 -17 -69 -8 -171 -33 -188 -48 -21 -17 -10 -60 18 -74 20 -9 46 -7
140 12 143 30 150 30 150 5 0 -11 -31 -115 -69 -232 -39 -117 -91 -280 -116
-363 -25 -82 -64 -196 -86 -252 -22 -57 -39 -110 -37 -119 9 -46 77 -41 103 6
21 37 57 136 113 315 28 88 67 210 86 270 l36 110 -2 -220 c-2 -121 2 -413 6
-648 8 -377 11 -431 26 -449 22 -28 67 -18 80 18 12 31 12 344 0 669 -5 132
-6 345 -3 474 l6 234 24 -29 c13 -16 43 -56 65 -89 60 -88 98 -125 128 -125
54 0 66 48 24 96 -14 16 -44 56 -66 89 -23 33 -57 80 -77 105 -58 73 -77 103
-90 143 -7 21 -11 40 -9 41 1 2 54 12 116 24 122 22 142 32 142 67 0 55 -50
59 -237 19 l-23 -4 0 268 c0 226 -2 271 -16 290 -18 26 -56 29 -75 5z"/>
<path d="M1209 2384 c-10 -12 -15 -62 -19 -178 l-5 -161 -65 -12 c-36 -6 -99
-16 -140 -23 -101 -15 -125 -28 -125 -65 0 -42 37 -58 102 -46 26 5 82 15 123
21 41 7 81 15 88 17 9 4 12 -22 12 -108 0 -63 -3 -137 -6 -164 l-6 -50 -87
-18 c-48 -9 -99 -17 -112 -17 -59 0 -92 -63 -48 -94 27 -19 79 -14 261 25 79
17 184 37 233 45 50 7 102 16 118 20 35 7 50 35 37 68 -9 24 -14 26 -69 26
-32 0 -93 -7 -136 -16 -42 -9 -78 -14 -79 -12 -2 1 -1 74 2 160 l5 157 41 6
c83 13 212 47 234 61 16 11 22 23 20 41 -5 46 -26 49 -150 25 -62 -12 -119
-22 -125 -22 -10 0 -13 35 -13 143 0 113 -3 147 -16 165 -18 26 -56 29 -75 6z"/>
<path d="M1370 1424 c-41 -7 -102 -18 -135 -24 -33 -6 -114 -20 -179 -30 -68
-11 -126 -26 -134 -34 -19 -19 -22 -194 -6 -321 17 -126 39 -141 163 -111 63
15 154 30 285 46 172 21 182 34 201 265 15 177 8 208 -45 219 -41 8 -58 7
-150 -10z m96 -121 c-3 -16 -8 -72 -12 -125 -4 -56 -11 -102 -18 -108 -7 -5
-46 -12 -87 -16 -62 -5 -204 -28 -296 -49 -19 -4 -23 1 -32 46 -6 27 -11 85
-11 128 l0 79 48 6 c43 6 199 33 317 55 90 16 97 15 91 -16z"/>
<path d="M1376 878 c-9 -12 -16 -30 -16 -39 0 -39 -111 -325 -147 -376 -45
-66 -60 -77 -133 -96 -64 -18 -234 -75 -270 -91 -36 -17 -39 -60 -6 -81 23
-15 29 -15 93 3 37 11 93 29 123 40 30 11 129 43 220 72 212 68 216 69 245 92
27 21 33 56 13 76 -16 16 -57 15 -88 -3 -14 -8 -36 -14 -49 -15 -18 0 -22 4
-16 18 23 54 114 313 120 341 14 65 -53 110 -89 59z"/>
<path d="M962 777 c-25 -30 -24 -68 7 -174 42 -144 59 -177 93 -181 20 -2 31
4 43 22 16 24 16 29 1 73 -28 86 -54 177 -60 212 -3 19 -11 40 -17 48 -14 16
-53 17 -67 0z"/>
</g>
</svg>
