<?xml version="1.0" standalone="no"?>
<!DOCTYPE svg PUBLIC "-//W3C//DTD SVG 20010904//EN"
 "http://www.w3.org/TR/2001/REC-SVG-20010904/DTD/svg10.dtd">
<svg version="1.0" xmlns="http://www.w3.org/2000/svg"
 width="248.000000pt" height="248.000000pt" viewBox="0 0 248.000000 248.000000"
 preserveAspectRatio="xMidYMid meet">
<metadata>
Created by potrace 1.10, written by Peter Selinger 2001-2011
</metadata>
<g transform="translate(0.000000,248.000000) scale(0.100000,-0.100000)"
fill="#000000" stroke="none">
<path d="M1410 2387 c-41 -24 -91 -53 -110 -65 -19 -11 -96 -46 -170 -78 -375
-157 -375 -157 -378 -187 -4 -33 13 -57 40 -57 18 0 225 84 428 174 103 46
284 144 313 170 9 9 17 23 17 31 0 18 -35 55 -53 55 -7 0 -46 -19 -87 -43z"/>
<path d="M1833 2164 c-6 -3 -31 -30 -55 -61 -44 -58 -208 -202 -259 -228 -42
-22 -54 -51 -35 -80 9 -14 16 -27 16 -30 0 -3 -21 -5 -47 -5 -115 -1 -708 -80
-865 -116 -59 -13 -122 -24 -141 -24 -52 0 -61 -18 -54 -108 3 -42 3 -117 -1
-166 -9 -105 0 -131 43 -131 45 0 55 30 55 172 0 67 4 124 10 128 37 23 474
97 705 120 33 3 71 8 85 11 125 23 758 43 802 26 14 -6 4 -24 -61 -112 -43
-58 -95 -121 -115 -139 -44 -43 -49 -85 -11 -103 39 -18 94 29 197 167 114
152 140 197 136 232 -6 50 -26 53 -373 53 l-318 1 39 26 c119 79 302 258 318
310 11 36 -33 72 -71 57z"/>
<path d="M1102 2098 c-14 -14 -16 -60 -3 -73 5 -6 26 -53 46 -105 20 -52 43
-102 52 -112 31 -34 83 -17 83 27 0 29 -85 232 -106 256 -19 22 -54 25 -72 7z"/>
<path d="M642 1978 c-17 -17 -15 -53 4 -69 22 -18 81 -108 99 -152 19 -46 48
-63 81 -48 38 17 32 64 -22 154 -66 110 -125 152 -162 115z"/>
<path d="M1505 1364 c-159 -27 -492 -73 -575 -80 -47 -3 -95 -13 -107 -20 -26
-16 -31 -55 -9 -73 20 -17 194 -4 456 34 124 18 227 31 229 29 6 -5 -37 -120
-66 -179 -31 -62 -135 -229 -167 -270 l-24 -29 -88 81 c-49 45 -116 109 -149
143 -65 67 -101 90 -138 90 -55 0 -64 -57 -14 -91 17 -13 86 -75 152 -140 66
-64 133 -128 148 -141 l28 -23 -133 -131 c-73 -72 -167 -153 -208 -181 -91
-61 -238 -137 -300 -154 -55 -15 -80 -35 -80 -64 0 -67 89 -55 265 36 161 82
254 150 406 297 l128 124 83 -67 c46 -37 123 -99 171 -138 49 -40 112 -85 140
-100 29 -16 75 -43 102 -61 134 -87 314 -164 424 -182 42 -7 71 12 71 46 0 31
-25 47 -112 69 -88 24 -238 92 -317 145 -26 18 -77 49 -112 69 -35 19 -100 66
-144 103 -44 36 -98 79 -120 94 -22 16 -58 47 -80 69 -33 35 -38 44 -28 59 50
71 163 256 183 297 50 105 112 261 117 291 4 25 0 35 -18 48 -13 9 -26 15 -29
15 -3 -1 -41 -8 -85 -15z"/>
</g>
</svg>
