<?xml version="1.0" standalone="no"?>
<!DOCTYPE svg PUBLIC "-//W3C//DTD SVG 20010904//EN"
 "http://www.w3.org/TR/2001/REC-SVG-20010904/DTD/svg10.dtd">
<svg version="1.0" xmlns="http://www.w3.org/2000/svg"
 width="248.000000pt" height="248.000000pt" viewBox="0 0 248.000000 248.000000"
 preserveAspectRatio="xMidYMid meet">
<metadata>
Created by potrace 1.10, written by Peter Selinger 2001-2011
</metadata>
<g transform="translate(0.000000,248.000000) scale(0.100000,-0.100000)"
fill="#000000" stroke="none">
<path d="M662 2278 c-8 -8 -12 -53 -12 -139 l0 -126 -52 -11 c-29 -6 -102 -23
-163 -37 -60 -14 -132 -30 -159 -35 -27 -6 -55 -15 -63 -22 -23 -19 -12 -61
20 -76 24 -12 40 -11 120 8 51 11 133 30 182 41 50 12 140 34 200 50 61 15
168 42 240 59 71 17 137 38 147 47 22 20 23 56 3 73 -18 15 -42 12 -214 -29
-73 -17 -137 -31 -141 -31 -4 0 -9 45 -12 100 -4 78 -9 105 -23 120 -20 22
-55 26 -73 8z"/>
<path d="M1486 2098 c-12 -17 -16 -51 -16 -148 0 -69 -4 -131 -9 -138 -9 -16
-218 -72 -265 -72 -37 0 -56 -15 -56 -45 0 -59 66 -69 211 -31 52 14 95 23 96
22 5 -4 -34 -246 -47 -299 -7 -26 -16 -50 -21 -53 -5 -3 -28 8 -51 25 -62 46
-118 39 -118 -15 0 -16 19 -37 60 -70 33 -26 60 -50 60 -54 0 -16 -40 -120
-70 -180 -64 -127 -116 -206 -182 -273 -68 -68 -82 -99 -56 -125 7 -7 24 -12
38 -12 36 0 135 95 195 188 48 75 155 288 155 310 0 22 20 13 82 -39 34 -28
73 -55 87 -60 33 -13 66 2 74 32 7 24 -8 40 -116 128 -37 29 -67 59 -67 65 0
6 9 40 21 76 11 36 31 136 44 224 13 87 25 159 27 160 2 2 39 13 83 25 44 13
107 32 139 42 82 26 85 26 80 -18 -2 -21 -11 -110 -19 -198 -9 -88 -22 -196
-30 -240 -14 -80 -32 -328 -27 -375 2 -14 14 -49 28 -78 52 -107 187 -160 384
-149 201 10 231 41 213 221 -11 102 -22 126 -58 126 -41 0 -49 -24 -47 -131 3
-118 12 -112 -165 -107 -102 3 -125 6 -168 28 -82 41 -87 59 -75 241 6 85 17
197 25 249 13 88 34 287 50 472 7 74 6 77 -18 93 -24 15 -31 14 -148 -20 -128
-37 -228 -65 -232 -65 -1 0 -1 55 1 121 2 97 -1 127 -13 145 -20 31 -59 31
-79 2z"/>
<path d="M775 1856 c-264 -68 -311 -78 -343 -80 -61 -3 -66 -17 -53 -166 11
-134 22 -175 53 -194 12 -7 66 -1 200 22 284 51 275 48 305 96 34 53 61 149
69 246 11 124 -12 132 -231 76z m125 -93 c0 -49 -35 -173 -49 -177 -28 -8
-354 -66 -357 -64 -1 2 -3 37 -5 77 l-4 75 65 18 c71 19 330 85 343 87 4 0 7
-7 7 -16z"/>
<path d="M845 1375 c-33 -8 -161 -35 -284 -60 -124 -25 -231 -51 -238 -57 -21
-17 -15 -56 12 -74 29 -19 21 -20 253 30 96 20 179 35 185 33 13 -4 -43 -48
-103 -79 -37 -19 -46 -29 -48 -55 -3 -25 3 -36 27 -54 41 -30 39 -46 -6 -58
-159 -43 -284 -71 -313 -71 -41 0 -60 -15 -60 -45 0 -31 31 -55 71 -55 36 0
160 26 289 60 41 11 78 20 83 20 4 0 7 -42 7 -92 -1 -93 -31 -218 -55 -225 -5
-1 -25 25 -44 58 -39 67 -69 83 -101 54 -28 -25 -26 -35 22 -123 55 -103 64
-112 109 -112 100 0 179 166 179 377 0 51 1 93 3 93 2 0 30 5 63 11 66 12 94
31 94 64 0 47 -28 52 -160 30 -31 -6 -37 -3 -52 24 l-17 31 44 30 c24 16 65
55 92 87 26 31 58 67 71 79 25 26 28 43 10 67 -18 24 -64 28 -133 12z"/>
<path d="M376 433 c-4 -5 -22 -40 -40 -78 -21 -45 -55 -95 -94 -137 -34 -36
-62 -74 -62 -85 0 -29 34 -56 60 -48 39 12 134 118 173 193 40 76 49 121 27
147 -13 16 -51 20 -64 8z"/>
</g>
</svg>
