<?xml version="1.0" standalone="no"?>
<!DOCTYPE svg PUBLIC "-//W3C//DTD SVG 20010904//EN"
 "http://www.w3.org/TR/2001/REC-SVG-20010904/DTD/svg10.dtd">
<svg version="1.0" xmlns="http://www.w3.org/2000/svg"
 width="248.000000pt" height="248.000000pt" viewBox="0 0 248.000000 248.000000"
 preserveAspectRatio="xMidYMid meet">
<metadata>
Created by potrace 1.10, written by Peter Selinger 2001-2011
</metadata>
<g transform="translate(0.000000,248.000000) scale(0.100000,-0.100000)"
fill="#000000" stroke="none">
<path d="M662 2278 c-8 -8 -12 -53 -12 -139 l0 -126 -52 -11 c-29 -6 -102 -23
-163 -37 -60 -14 -132 -30 -159 -35 -27 -6 -55 -15 -63 -22 -23 -19 -12 -61
20 -76 24 -12 40 -11 120 8 51 11 133 30 182 41 50 12 140 34 200 50 61 15
168 42 240 59 71 17 137 38 147 47 22 20 23 56 3 73 -18 15 -42 12 -214 -29
-73 -17 -137 -31 -141 -31 -4 0 -9 45 -12 100 -4 78 -9 105 -23 120 -20 22
-55 26 -73 8z"/>
</g>
</svg>
