<?xml version="1.0" standalone="no"?>
<!DOCTYPE svg PUBLIC "-//W3C//DTD SVG 20010904//EN"
 "http://www.w3.org/TR/2001/REC-SVG-20010904/DTD/svg10.dtd">
<svg version="1.0" xmlns="http://www.w3.org/2000/svg"
 width="248.000000pt" height="248.000000pt" viewBox="0 0 248.000000 248.000000"
 preserveAspectRatio="xMidYMid meet">
<metadata>
Created by potrace 1.10, written by Peter Selinger 2001-2011
</metadata>
<g transform="translate(0.000000,248.000000) scale(0.100000,-0.100000)"
fill="#000000" stroke="none">
<path d="M662 2278 c-8 -8 -12 -53 -12 -139 l0 -126 -52 -11 c-29 -6 -102 -23
-163 -37 -60 -14 -132 -30 -159 -35 -27 -6 -55 -15 -63 -22 -23 -19 -12 -61
20 -76 24 -12 40 -11 120 8 51 11 133 30 182 41 50 12 140 34 200 50 61 15
168 42 240 59 71 17 137 38 147 47 22 20 23 56 3 73 -18 15 -42 12 -214 -29
-73 -17 -137 -31 -141 -31 -4 0 -9 45 -12 100 -4 78 -9 105 -23 120 -20 22
-55 26 -73 8z"/>
<path d="M1486 2098 c-10 -16 -15 -70 -19 -183 -6 -177 -44 -451 -77 -558 -12
-37 -34 -96 -49 -130 -16 -34 -32 -73 -36 -87 -11 -34 -70 -152 -119 -235 -22
-38 -71 -101 -108 -138 -68 -68 -82 -99 -56 -125 55 -55 201 94 315 323 62
123 141 317 163 397 17 66 42 222 69 448 6 47 11 126 10 175 0 101 -14 135
-54 135 -15 0 -30 -9 -39 -22z"/>
<path d="M775 1856 c-264 -68 -311 -78 -343 -80 -61 -3 -66 -17 -53 -166 11
-134 22 -175 53 -194 12 -7 66 -1 200 22 284 51 275 48 305 96 34 53 61 149
69 246 11 124 -12 132 -231 76z m125 -93 c0 -49 -35 -173 -49 -177 -28 -8
-354 -66 -357 -64 -1 2 -3 37 -5 77 l-4 75 65 18 c71 19 330 85 343 87 4 0 7
-7 7 -16z"/>
<path d="M845 1375 c-33 -8 -161 -35 -284 -60 -124 -25 -231 -51 -238 -57 -21
-17 -15 -56 12 -74 29 -19 21 -20 253 30 96 20 179 35 185 33 13 -4 -43 -48
-103 -79 -37 -19 -46 -29 -48 -55 -3 -25 3 -36 27 -54 41 -30 39 -46 -6 -58
-159 -43 -284 -71 -313 -71 -41 0 -60 -15 -60 -45 0 -31 31 -55 71 -55 36 0
160 26 289 60 41 11 78 20 83 20 4 0 7 -42 7 -92 -1 -93 -31 -218 -55 -225 -5
-1 -25 25 -44 58 -39 67 -69 83 -101 54 -28 -25 -26 -35 22 -123 55 -103 64
-112 109 -112 100 0 179 166 179 377 0 51 1 93 3 93 2 0 30 5 63 11 66 12 94
31 94 64 0 47 -28 52 -160 30 -31 -6 -37 -3 -52 24 l-17 31 44 30 c24 16 65
55 92 87 26 31 58 67 71 79 25 26 28 43 10 67 -18 24 -64 28 -133 12z"/>
</g>
</svg>
