<?xml version="1.0" standalone="no"?>
<!DOCTYPE svg PUBLIC "-//W3C//DTD SVG 20010904//EN"
 "http://www.w3.org/TR/2001/REC-SVG-20010904/DTD/svg10.dtd">
<svg version="1.0" xmlns="http://www.w3.org/2000/svg"
 width="248.000000pt" height="248.000000pt" viewBox="0 0 248.000000 248.000000"
 preserveAspectRatio="xMidYMid meet">
<metadata>
Created by potrace 1.10, written by Peter Selinger 2001-2011
</metadata>
<g transform="translate(0.000000,248.000000) scale(0.100000,-0.100000)"
fill="#000000" stroke="none">
<path d="M2099 2366 c-2 -3 -63 -10 -134 -16 -72 -6 -155 -15 -185 -20 -30 -5
-116 -14 -190 -20 -291 -22 -350 -37 -350 -85 0 -41 35 -56 105 -45 33 5 128
14 210 20 83 6 175 15 205 20 52 10 176 22 377 39 98 8 123 20 123 57 0 35
-36 54 -101 54 -30 0 -58 -2 -60 -4z"/>
<path d="M859 2274 c-17 -21 -24 -211 -39 -1134 -14 -925 -14 -1010 6 -1038
20 -29 64 -26 80 5 7 15 13 193 18 535 3 282 11 756 16 1052 8 425 7 544 -3
565 -15 32 -57 40 -78 15z"/>
<path d="M553 2133 c-15 -23 -19 -55 -21 -208 -2 -99 -9 -448 -16 -775 -9
-431 -10 -602 -2 -620 16 -37 60 -39 82 -5 16 24 19 86 30 613 17 777 17 995
2 1010 -21 21 -56 14 -75 -15z"/>
<path d="M269 2084 c-14 -18 -15 -21 -23 -454 -3 -135 -9 -279 -15 -320 -5
-41 -15 -129 -21 -195 -12 -121 -25 -205 -61 -370 -17 -79 -28 -125 -70 -302
-17 -68 26 -112 71 -75 38 32 135 466 164 737 9 83 21 188 27 235 6 47 13 225
15 395 6 338 3 357 -47 363 -15 2 -32 -4 -40 -14z"/>
</g>
</svg>
