<?xml version="1.0" standalone="no"?>
<!DOCTYPE svg PUBLIC "-//W3C//DTD SVG 20010904//EN"
 "http://www.w3.org/TR/2001/REC-SVG-20010904/DTD/svg10.dtd">
<svg version="1.0" xmlns="http://www.w3.org/2000/svg"
 width="248.000000pt" height="248.000000pt" viewBox="0 0 248.000000 248.000000"
 preserveAspectRatio="xMidYMid meet">
<metadata>
Created by potrace 1.10, written by Peter Selinger 2001-2011
</metadata>
<g transform="translate(0.000000,248.000000) scale(0.100000,-0.100000)"
fill="#000000" stroke="none">
<path d="M269 2084 c-14 -18 -15 -21 -23 -454 -3 -135 -9 -279 -15 -320 -5
-41 -15 -129 -21 -195 -12 -121 -25 -205 -61 -370 -17 -79 -28 -125 -70 -302
-17 -68 26 -112 71 -75 38 32 135 466 164 737 9 83 21 188 27 235 6 47 13 225
15 395 6 338 3 357 -47 363 -15 2 -32 -4 -40 -14z"/>
</g>
</svg>
