<?xml version="1.0" standalone="no"?>
<!DOCTYPE svg PUBLIC "-//W3C//DTD SVG 20010904//EN"
 "http://www.w3.org/TR/2001/REC-SVG-20010904/DTD/svg10.dtd">
<svg version="1.0" xmlns="http://www.w3.org/2000/svg"
 width="248.000000pt" height="248.000000pt" viewBox="0 0 248.000000 248.000000"
 preserveAspectRatio="xMidYMid meet">
<metadata>
Created by potrace 1.10, written by Peter Selinger 2001-2011
</metadata>
<g transform="translate(0.000000,248.000000) scale(0.100000,-0.100000)"
fill="#000000" stroke="none">
<path d="M638 2217 c-284 -216 -438 -354 -438 -394 0 -12 11 -30 25 -40 13
-10 46 -34 72 -53 26 -19 86 -65 132 -102 46 -38 93 -68 105 -68 29 0 46 18
46 51 0 28 -28 58 -130 134 -29 22 -67 52 -84 68 -30 27 -31 27 -11 42 29 22
52 42 125 104 36 31 92 76 125 101 247 182 295 223 295 255 0 12 -5 26 -12 33
-28 28 -65 9 -250 -131z"/>
</g>
</svg>
