<?xml version="1.0" standalone="no"?>
<!DOCTYPE svg PUBLIC "-//W3C//DTD SVG 20010904//EN"
 "http://www.w3.org/TR/2001/REC-SVG-20010904/DTD/svg10.dtd">
<svg version="1.0" xmlns="http://www.w3.org/2000/svg"
 width="248.000000pt" height="248.000000pt" viewBox="0 0 248.000000 248.000000"
 preserveAspectRatio="xMidYMid meet">
<metadata>
Created by potrace 1.10, written by Peter Selinger 2001-2011
</metadata>
<g transform="translate(0.000000,248.000000) scale(0.100000,-0.100000)"
fill="#000000" stroke="none">
<path d="M638 2217 c-285 -217 -438 -354 -438 -394 0 -12 10 -29 23 -38 34
-25 127 -95 190 -143 l56 -44 -57 -67 c-31 -37 -92 -108 -136 -157 -99 -111
-156 -188 -158 -211 -3 -37 3 -50 27 -61 26 -12 111 4 363 68 167 43 397 127
436 159 19 16 21 62 4 79 -19 19 -41 15 -135 -27 -48 -21 -117 -48 -153 -59
-88 -29 -370 -101 -370 -94 0 2 30 38 68 80 37 41 97 110 133 152 37 43 102
114 144 157 83 82 182 194 228 254 42 55 33 109 -18 109 -15 0 -47 -29 -101
-92 -43 -50 -106 -118 -138 -151 -57 -58 -60 -59 -83 -45 -31 18 -116 84 -157
121 -30 27 -31 27 -11 42 29 22 52 42 125 104 36 31 92 76 125 101 247 182
295 223 295 255 0 12 -5 26 -12 33 -28 28 -65 9 -250 -131z"/>
</g>
</svg>
