<?xml version="1.0" standalone="no"?>
<!DOCTYPE svg PUBLIC "-//W3C//DTD SVG 20010904//EN"
 "http://www.w3.org/TR/2001/REC-SVG-20010904/DTD/svg10.dtd">
<svg version="1.0" xmlns="http://www.w3.org/2000/svg"
 width="248.000000pt" height="248.000000pt" viewBox="0 0 248.000000 248.000000"
 preserveAspectRatio="xMidYMid meet">
<metadata>
Created by potrace 1.10, written by Peter Selinger 2001-2011
</metadata>
<g transform="translate(0.000000,248.000000) scale(0.100000,-0.100000)"
fill="#000000" stroke="none">
<path d="M2099 2366 c-2 -3 -63 -10 -134 -16 -72 -6 -155 -15 -185 -20 -30 -5
-118 -14 -195 -20 -284 -21 -345 -36 -345 -85 0 -41 35 -56 105 -45 33 5 107
13 165 16 l105 7 -30 -34 c-84 -96 -252 -259 -266 -259 -9 0 -31 -10 -50 -23
l-34 -23 -4 -329 c-2 -182 -4 -478 -5 -660 l-1 -329 34 -23 34 -23 408 0 c246
0 418 4 434 10 47 18 52 49 59 405 4 182 12 395 17 475 5 80 12 237 16 350 6
235 9 227 -77 237 -67 8 -379 -13 -490 -32 -47 -8 -104 -18 -127 -21 l-42 -6
90 92 c50 51 106 118 126 149 19 31 37 58 38 59 4 4 220 27 387 41 103 8 128
19 128 57 0 35 -36 54 -101 54 -30 0 -58 -2 -60 -4z m21 -625 l0 -129 -92 -6
c-51 -4 -169 -11 -263 -16 -93 -5 -223 -14 -289 -20 -65 -6 -120 -9 -123 -6
-2 2 -7 56 -10 120 l-6 115 24 5 c13 3 67 7 119 10 53 4 111 11 130 17 40 12
303 35 428 38 l82 1 0 -129z m-14 -288 c-3 -27 -8 -114 -12 -195 l-6 -147
-142 2 c-77 1 -248 -2 -379 -7 l-239 -9 7 169 c4 93 11 173 16 178 11 13 475
48 707 55 l54 1 -6 -47z m-23 -454 c1 -2 1 -91 -1 -196 l-4 -193 -374 0 -374
0 0 190 0 190 118 1 c64 1 167 5 227 9 108 8 403 7 408 -1z"/>
<path d="M859 2274 c-17 -21 -24 -208 -39 -1134 -14 -924 -14 -1010 6 -1038
20 -29 64 -26 80 5 7 15 13 193 18 535 3 282 11 756 16 1052 8 425 7 544 -3
565 -15 32 -57 40 -78 15z"/>
<path d="M553 2133 c-15 -23 -19 -55 -21 -208 -2 -99 -9 -448 -16 -775 -9
-431 -10 -602 -2 -620 16 -37 60 -39 82 -5 16 24 19 86 30 613 17 777 17 995
2 1010 -21 21 -56 14 -75 -15z"/>
<path d="M269 2084 c-14 -18 -15 -21 -23 -454 -3 -135 -9 -279 -15 -320 -5
-41 -15 -129 -21 -195 -12 -121 -25 -205 -61 -370 -17 -79 -28 -125 -70 -302
-17 -68 26 -112 71 -75 38 32 135 466 164 737 9 83 21 188 27 235 6 47 13 225
15 395 6 338 3 357 -47 363 -15 2 -32 -4 -40 -14z"/>
</g>
</svg>
