<?xml version="1.0" standalone="no"?>
<!DOCTYPE svg PUBLIC "-//W3C//DTD SVG 20010904//EN"
 "http://www.w3.org/TR/2001/REC-SVG-20010904/DTD/svg10.dtd">
<svg version="1.0" xmlns="http://www.w3.org/2000/svg"
 width="248.000000pt" height="248.000000pt" viewBox="0 0 248.000000 248.000000"
 preserveAspectRatio="xMidYMid meet">
<metadata>
Created by potrace 1.10, written by Peter Selinger 2001-2011
</metadata>
<g transform="translate(0.000000,248.000000) scale(0.100000,-0.100000)"
fill="#000000" stroke="none">
<path d="M1546 2308 c-14 -19 -15 -54 -9 -288 l6 -266 -104 -13 c-141 -17
-325 -55 -344 -71 -18 -15 -20 -51 -3 -68 17 -17 68 -15 188 8 58 12 139 24
181 28 l76 8 7 -600 c5 -442 10 -606 19 -625 9 -19 20 -26 42 -26 56 0 55 -8
48 661 l-6 612 54 7 c30 3 72 11 94 17 22 6 89 19 149 29 60 11 115 24 123 31
22 18 12 61 -19 76 -27 13 -62 8 -293 -38 -27 -5 -62 -12 -76 -14 l-26 -5 -7
252 c-4 162 -11 260 -19 277 -17 34 -60 39 -81 8z"/>
<path d="M1802 2208 c-24 -24 -13 -57 28 -86 23 -15 69 -48 103 -74 67 -51 95
-58 120 -30 27 29 20 47 -34 96 -94 85 -186 125 -217 94z"/>
<path d="M272 1978 c-17 -17 -15 -53 6 -70 9 -8 42 -25 72 -37 29 -13 71 -34
91 -47 67 -42 165 -84 196 -84 36 0 56 20 51 52 -2 18 -25 35 -103 75 -232
122 -284 140 -313 111z"/>
<path d="M1266 1398 c-9 -12 -16 -32 -16 -43 0 -25 -51 -169 -80 -225 -11 -22
-20 -44 -20 -49 0 -15 -119 -258 -154 -314 -25 -40 -28 -51 -18 -72 18 -40 63
-34 100 13 62 78 258 521 278 627 13 69 -54 115 -90 63z"/>
<path d="M1742 1368 c-22 -22 -13 -60 25 -107 68 -84 226 -254 333 -358 106
-104 138 -121 168 -91 28 28 11 56 -110 179 -68 68 -176 184 -241 257 -120
133 -145 150 -175 120z"/>
</g>
</svg>
