<?xml version="1.0" standalone="no"?>
<!DOCTYPE svg PUBLIC "-//W3C//DTD SVG 20010904//EN"
 "http://www.w3.org/TR/2001/REC-SVG-20010904/DTD/svg10.dtd">
<svg version="1.0" xmlns="http://www.w3.org/2000/svg"
 width="248.000000pt" height="248.000000pt" viewBox="0 0 248.000000 248.000000"
 preserveAspectRatio="xMidYMid meet">
<metadata>
Created by potrace 1.10, written by Peter Selinger 2001-2011
</metadata>
<g transform="translate(0.000000,248.000000) scale(0.100000,-0.100000)"
fill="#000000" stroke="none">
<path d="M1905 1820 c-178 -35 -322 -60 -440 -75 -166 -22 -336 -55 -362 -72
-26 -15 -30 -54 -8 -73 18 -15 66 -11 240 18 72 11 195 31 275 42 80 12 163
27 185 32 22 6 89 19 149 29 118 21 136 29 136 64 0 50 -50 60 -175 35z"/>
</g>
</svg>
