<?xml version="1.0" standalone="no"?>
<!DOCTYPE svg PUBLIC "-//W3C//DTD SVG 20010904//EN"
 "http://www.w3.org/TR/2001/REC-SVG-20010904/DTD/svg10.dtd">
<svg version="1.0" xmlns="http://www.w3.org/2000/svg"
 width="248.000000pt" height="248.000000pt" viewBox="0 0 248.000000 248.000000"
 preserveAspectRatio="xMidYMid meet">
<metadata>
Created by potrace 1.10, written by Peter Selinger 2001-2011
</metadata>
<g transform="translate(0.000000,248.000000) scale(0.100000,-0.100000)"
fill="#000000" stroke="none">
<path d="M1735 2364 c-22 -3 -89 -11 -150 -19 -60 -8 -146 -20 -190 -26 -44
-5 -143 -21 -220 -34 -77 -14 -203 -32 -280 -40 -192 -22 -201 -24 -215 -40
-19 -23 -8 -59 24 -74 25 -11 48 -11 165 3 75 9 201 28 281 41 80 13 183 29
230 35 47 6 127 18 179 26 51 9 95 13 98 11 2 -3 -40 -31 -94 -64 -220 -133
-323 -193 -331 -193 -15 0 -42 -36 -42 -56 0 -59 63 -58 160 2 41 26 97 59
125 74 237 130 395 249 395 298 0 46 -44 64 -135 56z"/>
</g>
</svg>
