<?xml version="1.0" standalone="no"?>
<!DOCTYPE svg PUBLIC "-//W3C//DTD SVG 20010904//EN"
 "http://www.w3.org/TR/2001/REC-SVG-20010904/DTD/svg10.dtd">
<svg version="1.0" xmlns="http://www.w3.org/2000/svg"
 width="248.000000pt" height="248.000000pt" viewBox="0 0 248.000000 248.000000"
 preserveAspectRatio="xMidYMid meet">
<metadata>
Created by potrace 1.10, written by Peter Selinger 2001-2011
</metadata>
<g transform="translate(0.000000,248.000000) scale(0.100000,-0.100000)"
fill="#000000" stroke="none">
<path d="M1260 2301 c-85 -43 -218 -109 -295 -147 -134 -66 -140 -70 -143
-101 -3 -27 1 -35 22 -44 22 -10 39 -5 143 46 65 31 128 61 141 66 l22 9 0
-120 c0 -66 -4 -120 -8 -120 -53 0 -534 -74 -722 -111 -69 -13 -100 -33 -100
-62 0 -49 45 -59 155 -32 72 17 403 70 530 85 50 6 102 13 118 15 26 4 27 3
27 -44 0 -26 -3 -69 -6 -94 l-6 -45 -77 -7 c-166 -14 -448 -69 -473 -92 -24
-21 -23 -49 2 -80 11 -14 20 -32 20 -41 0 -8 13 -71 29 -141 16 -69 31 -148
34 -174 3 -35 12 -56 32 -77 34 -36 60 -37 265 -15 74 8 139 15 144 15 10 0 2
-328 -14 -555 -10 -156 -3 -185 45 -185 42 0 53 33 60 170 3 69 10 184 15 255
6 72 10 171 10 222 0 50 4 94 9 97 5 3 105 13 222 21 233 16 241 19 285 83 12
17 32 73 44 124 13 51 40 142 61 201 43 120 47 157 22 179 -48 42 -110 44
-468 17 -66 -4 -128 -9 -138 -9 -17 0 -19 8 -15 89 1 49 5 92 9 95 12 12 210
27 493 36 436 15 433 15 451 30 23 19 15 62 -15 77 -16 8 -54 11 -105 8 -44
-2 -152 -5 -240 -6 -159 -2 -490 -22 -553 -34 l-33 -6 3 143 3 143 94 46 c122
60 143 87 101 129 -11 11 -26 20 -32 19 -7 0 -83 -36 -168 -78z m514 -793
c-17 -53 -44 -109 -56 -112 -7 -3 -60 -7 -118 -10 -58 -4 -152 -11 -210 -16
-170 -15 -154 -22 -146 62 3 39 8 73 9 75 5 4 308 20 425 22 103 1 103 1 96
-21z m-636 -85 l-3 -78 -80 -7 c-44 -4 -133 -12 -199 -18 -65 -6 -122 -8 -126
-3 -5 4 -11 33 -15 64 l-7 55 124 23 c104 19 209 33 291 40 16 1 18 -7 15 -76z
m558 -145 c9 -10 -28 -114 -46 -129 -21 -18 -80 -26 -250 -34 -58 -3 -117 -8
-132 -11 l-28 -6 0 76 c0 90 -21 81 220 99 170 12 227 13 236 5z m-566 -112
l0 -73 -147 -12 c-82 -7 -158 -13 -171 -15 -28 -4 -38 13 -47 86 l-7 56 88 7
c49 4 118 10 154 15 36 4 80 8 98 9 l32 1 0 -74z"/>
</g>
</svg>
