<?xml version="1.0" standalone="no"?>
<!DOCTYPE svg PUBLIC "-//W3C//DTD SVG 20010904//EN"
 "http://www.w3.org/TR/2001/REC-SVG-20010904/DTD/svg10.dtd">
<svg version="1.0" xmlns="http://www.w3.org/2000/svg"
 width="248.000000pt" height="248.000000pt" viewBox="0 0 248.000000 248.000000"
 preserveAspectRatio="xMidYMid meet">
<metadata>
Created by potrace 1.10, written by Peter Selinger 2001-2011
</metadata>
<g transform="translate(0.000000,248.000000) scale(0.100000,-0.100000)"
fill="#000000" stroke="none">
<path d="M1219 2334 c-10 -12 -15 -54 -17 -150 -4 -152 7 -138 -122 -149 -41
-3 -109 -10 -150 -15 -41 -6 -142 -14 -224 -20 -162 -10 -196 -22 -196 -65 0
-50 26 -55 220 -39 96 7 228 20 293 27 64 7 117 11 117 9 0 -13 -31 -55 -77
-106 -30 -32 -79 -93 -109 -135 -29 -42 -80 -110 -113 -151 -108 -135 -142
-191 -139 -224 4 -44 35 -55 131 -47 43 4 80 5 83 2 13 -14 1 -196 -22 -313
-46 -239 -139 -422 -303 -600 -39 -42 -71 -83 -71 -91 0 -23 28 -47 56 -47 33
0 146 116 218 224 62 94 147 266 170 347 37 132 68 333 63 416 l-5 82 72 11
c39 6 109 19 156 30 47 10 162 35 255 55 94 20 189 42 212 49 l42 13 93 -94
c81 -81 97 -93 123 -91 22 2 32 10 39 30 12 33 6 40 -196 246 -150 152 -176
170 -206 140 -21 -21 -13 -54 23 -101 l35 -46 -37 -10 c-21 -6 -81 -19 -133
-30 -52 -11 -135 -29 -185 -41 -131 -30 -288 -57 -383 -65 l-84 -7 62 78 c33
44 85 113 115 155 30 42 83 108 118 147 36 39 77 97 93 129 16 32 30 60 32 62
1 3 57 8 125 13 485 32 704 53 722 68 24 20 28 50 9 71 -21 23 -45 24 -241 5
-82 -8 -227 -20 -323 -26 -96 -6 -192 -13 -212 -16 l-38 -4 0 117 c0 75 -5
127 -13 143 -15 31 -58 38 -78 14z"/>
</g>
</svg>
