<?xml version="1.0" standalone="no"?>
<!DOCTYPE svg PUBLIC "-//W3C//DTD SVG 20010904//EN"
 "http://www.w3.org/TR/2001/REC-SVG-20010904/DTD/svg10.dtd">
<svg version="1.0" xmlns="http://www.w3.org/2000/svg"
 width="248.000000pt" height="248.000000pt" viewBox="0 0 248.000000 248.000000"
 preserveAspectRatio="xMidYMid meet">
<metadata>
Created by potrace 1.10, written by Peter Selinger 2001-2011
</metadata>
<g transform="translate(0.000000,248.000000) scale(0.100000,-0.100000)"
fill="#000000" stroke="none">
<path d="M1260 2301 c-85 -43 -218 -109 -295 -147 -134 -66 -140 -70 -143
-101 -3 -27 1 -35 22 -44 22 -10 39 -5 143 46 65 31 138 65 163 75 81 33 291
141 311 161 10 10 19 26 19 34 0 19 -36 55 -52 54 -7 0 -83 -36 -168 -78z"/>
<path d="M2038 1944 c-2 -2 -82 -4 -178 -5 -393 -4 -978 -69 -1440 -160 -69
-13 -100 -33 -100 -62 0 -49 45 -59 155 -32 112 26 448 76 710 106 181 20 353
32 565 39 439 15 437 15 454 29 21 17 20 55 0 72 -15 12 -156 23 -166 13z"/>
<path d="M1455 1624 c-433 -28 -506 -36 -725 -81 -160 -32 -189 -57 -140 -120
11 -14 20 -32 20 -41 0 -8 13 -71 29 -141 16 -69 31 -148 34 -174 3 -35 12
-56 32 -77 34 -36 53 -37 266 -16 189 19 235 23 489 41 234 16 242 19 286 83
12 17 32 73 44 124 13 51 40 142 61 201 43 120 47 157 22 179 -48 41 -84 43
-418 22z m319 -116 c-17 -53 -44 -109 -56 -112 -7 -3 -60 -7 -118 -10 -112 -7
-221 -16 -470 -40 -348 -34 -393 -37 -400 -29 -5 4 -11 33 -15 64 l-7 56 34 6
c215 37 295 47 488 61 261 19 308 22 448 24 103 2 103 2 96 -20z m-78 -230 c9
-10 -28 -114 -46 -129 -20 -17 -72 -24 -240 -35 -47 -2 -186 -13 -310 -24
-316 -27 -310 -27 -320 -10 -4 8 -11 40 -15 71 l-7 56 79 7 c43 4 193 18 333
32 374 36 513 45 526 32z"/>
</g>
</svg>
