<?xml version="1.0" standalone="no"?>
<!DOCTYPE svg PUBLIC "-//W3C//DTD SVG 20010904//EN"
 "http://www.w3.org/TR/2001/REC-SVG-20010904/DTD/svg10.dtd">
<svg version="1.0" xmlns="http://www.w3.org/2000/svg"
 width="248.000000pt" height="248.000000pt" viewBox="0 0 248.000000 248.000000"
 preserveAspectRatio="xMidYMid meet">
<metadata>
Created by potrace 1.10, written by Peter Selinger 2001-2011
</metadata>
<g transform="translate(0.000000,248.000000) scale(0.100000,-0.100000)"
fill="#000000" stroke="none">
<path d="M1735 2364 c-22 -3 -89 -11 -150 -19 -60 -8 -146 -20 -190 -26 -44
-5 -143 -21 -220 -34 -77 -14 -203 -32 -280 -40 -192 -22 -201 -24 -215 -40
-19 -23 -8 -59 24 -74 25 -11 48 -11 165 3 75 9 201 28 281 41 80 13 183 29
230 35 47 6 127 18 179 26 51 9 95 13 98 11 2 -3 -40 -31 -94 -64 -216 -131
-323 -193 -330 -193 -4 0 -27 21 -51 45 -31 32 -52 45 -71 45 -32 0 -51 -16
-51 -43 0 -19 93 -131 168 -200 23 -22 41 -42 38 -44 -2 -2 -44 -10 -92 -18
-49 -7 -134 -22 -189 -33 -55 -11 -154 -30 -220 -42 -66 -12 -139 -25 -162
-31 -23 -5 -59 -9 -80 -9 -73 0 -111 -59 -61 -94 26 -18 61 -20 121 -6 23 5
107 21 187 35 80 15 199 37 265 50 155 31 212 38 218 28 3 -5 9 -100 13 -212
l7 -203 -22 11 c-12 7 -34 11 -49 9 -23 -2 -28 -8 -30 -37 -3 -30 4 -41 59
-97 68 -69 94 -78 125 -43 17 20 19 38 18 228 0 113 -3 242 -7 287 l-7 81 162
21 c264 35 354 44 374 40 22 -4 -90 -72 -261 -159 -103 -51 -110 -57 -113 -87
-3 -26 1 -34 22 -43 21 -10 35 -8 73 6 124 47 408 221 476 292 30 31 38 47 35
69 -5 43 -37 53 -133 43 -270 -30 -371 -42 -461 -55 -56 -8 -108 -14 -117 -14
-15 0 -107 81 -107 94 0 7 84 62 161 104 240 131 399 251 399 300 0 46 -44 64
-135 56z"/>
</g>
</svg>
