<?xml version="1.0" standalone="no"?>
<!DOCTYPE svg PUBLIC "-//W3C//DTD SVG 20010904//EN"
 "http://www.w3.org/TR/2001/REC-SVG-20010904/DTD/svg10.dtd">
<svg version="1.0" xmlns="http://www.w3.org/2000/svg"
 width="248.000000pt" height="248.000000pt" viewBox="0 0 248.000000 248.000000"
 preserveAspectRatio="xMidYMid meet">
<metadata>
Created by potrace 1.10, written by Peter Selinger 2001-2011
</metadata>
<g transform="translate(0.000000,248.000000) scale(0.100000,-0.100000)"
fill="#000000" stroke="none">
<path d="M773 2119 c-13 -5 -25 -20 -29 -36 -22 -100 -126 -397 -187 -538 -57
-134 -199 -339 -341 -493 -59 -64 -76 -89 -76 -112 0 -23 5 -31 24 -36 14 -3
34 -3 45 1 19 6 153 154 223 247 l36 48 5 -27 c5 -29 2 -215 -7 -368 -3 -49
-9 -137 -12 -195 -3 -58 -9 -131 -13 -163 -9 -70 3 -101 42 -105 47 -6 54 9
61 136 4 64 9 151 11 192 3 41 7 116 10 166 3 50 5 173 4 275 -1 101 -1 194
-1 207 0 12 16 53 35 90 40 76 98 214 134 317 63 181 111 346 106 363 -6 26
-42 41 -70 31z"/>
</g>
</svg>
