<?xml version="1.0" standalone="no"?>
<!DOCTYPE svg PUBLIC "-//W3C//DTD SVG 20010904//EN"
 "http://www.w3.org/TR/2001/REC-SVG-20010904/DTD/svg10.dtd">
<svg version="1.0" xmlns="http://www.w3.org/2000/svg"
 width="248.000000pt" height="248.000000pt" viewBox="0 0 248.000000 248.000000"
 preserveAspectRatio="xMidYMid meet">
<metadata>
Created by potrace 1.10, written by Peter Selinger 2001-2011
</metadata>
<g transform="translate(0.000000,248.000000) scale(0.100000,-0.100000)"
fill="#000000" stroke="none">
<path d="M1735 2364 c-22 -3 -89 -11 -150 -19 -60 -8 -146 -20 -190 -26 -44
-5 -143 -21 -220 -34 -77 -14 -203 -32 -280 -40 -192 -22 -201 -24 -215 -40
-19 -23 -8 -59 24 -74 25 -11 48 -11 165 3 75 9 201 28 281 41 80 13 183 29
230 35 47 6 127 18 179 26 51 9 95 13 98 11 2 -3 -40 -31 -94 -64 -216 -131
-323 -193 -330 -193 -4 0 -27 21 -51 45 -31 32 -52 45 -71 45 -32 0 -51 -16
-51 -43 0 -19 93 -131 168 -200 23 -22 41 -42 38 -44 -2 -2 -44 -10 -92 -18
-49 -7 -134 -22 -189 -33 -55 -11 -154 -30 -220 -42 -66 -12 -139 -25 -162
-31 -23 -5 -59 -9 -80 -9 -48 0 -83 -23 -83 -55 0 -47 60 -66 140 -46 19 5
105 21 190 36 85 15 203 38 262 50 59 12 105 18 102 13 -10 -17 -232 -157
-302 -191 -94 -46 -285 -147 -299 -159 -18 -15 -16 -44 4 -63 26 -27 73 -13
212 63 69 38 137 73 150 77 25 8 264 161 322 206 l36 28 6 -97 c4 -53 7 -134
7 -180 0 -80 -1 -82 -20 -72 -12 6 -33 10 -48 8 -23 -2 -28 -8 -30 -37 -3 -30
4 -41 59 -97 50 -50 59 -64 43 -64 -35 0 -44 -20 -44 -102 l0 -78 -41 0 c-23
0 -83 -5 -133 -10 -106 -12 -319 -37 -426 -50 -41 -5 -104 -12 -139 -15 -36
-3 -75 -12 -88 -20 -27 -18 -30 -56 -7 -76 18 -15 112 -15 214 1 95 14 294 38
375 45 39 3 86 8 105 11 30 5 20 -5 -70 -64 -99 -66 -241 -142 -593 -319 -136
-68 -147 -76 -147 -101 0 -34 16 -52 47 -52 22 0 170 61 208 86 37 24 109 63
215 115 139 68 265 140 378 216 52 35 96 63 98 63 2 0 5 -144 6 -321 3 -304 4
-321 22 -335 25 -18 37 -18 62 0 18 14 19 32 24 330 l5 316 51 -39 c92 -70
166 -113 344 -200 248 -123 309 -144 530 -185 92 -18 125 -7 125 39 0 39 -21
48 -170 76 -66 12 -124 25 -130 29 -5 4 -33 15 -62 24 -29 10 -81 31 -115 48
-227 110 -299 146 -343 173 -77 46 -185 128 -179 134 3 3 42 9 87 13 45 4 161
19 257 33 256 39 300 44 350 45 96 1 150 33 135 81 -4 11 -16 24 -28 28 -21 8
-279 -13 -296 -23 -9 -6 -254 -40 -436 -62 -66 -7 -121 -14 -121 -14 -1 0 -4
27 -7 60 -3 34 -11 67 -18 76 -6 8 -10 15 -8 17 2 1 13 7 24 13 44 24 47 45
41 289 -3 127 -8 251 -12 276 l-6 45 163 22 c265 35 355 44 375 40 22 -4 -90
-72 -261 -159 -103 -51 -110 -57 -113 -87 -3 -26 1 -34 22 -43 21 -10 35 -8
73 6 124 47 408 221 476 292 30 31 38 47 35 69 -5 43 -37 53 -133 43 -270 -30
-371 -42 -461 -55 -56 -8 -108 -14 -117 -14 -15 0 -107 81 -107 94 0 7 84 62
161 104 240 131 399 251 399 300 0 46 -44 64 -135 56z"/>
</g>
</svg>
