<?xml version="1.0" standalone="no"?>
<!DOCTYPE svg PUBLIC "-//W3C//DTD SVG 20010904//EN"
 "http://www.w3.org/TR/2001/REC-SVG-20010904/DTD/svg10.dtd">
<svg version="1.0" xmlns="http://www.w3.org/2000/svg"
 width="248.000000pt" height="248.000000pt" viewBox="0 0 248.000000 248.000000"
 preserveAspectRatio="xMidYMid meet">
<metadata>
Created by potrace 1.10, written by Peter Selinger 2001-2011
</metadata>
<g transform="translate(0.000000,248.000000) scale(0.100000,-0.100000)"
fill="#000000" stroke="none">
<path d="M1260 2301 c-85 -43 -218 -109 -295 -147 -134 -66 -140 -70 -143
-101 -3 -27 1 -35 22 -44 22 -10 39 -5 143 46 65 31 138 65 163 75 81 33 291
141 311 161 10 10 19 26 19 34 0 19 -36 55 -52 54 -7 0 -83 -36 -168 -78z"/>
<path d="M2038 1944 c-2 -2 -82 -4 -178 -5 -393 -4 -978 -69 -1440 -160 -69
-13 -100 -33 -100 -62 0 -49 45 -59 155 -32 112 26 448 76 710 106 181 20 353
32 565 39 439 15 437 15 454 29 21 17 20 55 0 72 -15 12 -156 23 -166 13z"/>
<path d="M610 1485 c-16 -20 -10 -75 29 -241 16 -71 31 -151 34 -177 6 -64 34
-95 74 -81 47 16 47 39 -2 254 -13 58 -29 130 -35 160 -7 30 -19 65 -26 78
-17 25 -55 29 -74 7z"/>
</g>
</svg>
