<?xml version="1.0" standalone="no"?>
<!DOCTYPE svg PUBLIC "-//W3C//DTD SVG 20010904//EN"
 "http://www.w3.org/TR/2001/REC-SVG-20010904/DTD/svg10.dtd">
<svg version="1.0" xmlns="http://www.w3.org/2000/svg"
 width="248.000000pt" height="248.000000pt" viewBox="0 0 248.000000 248.000000"
 preserveAspectRatio="xMidYMid meet">
<metadata>
Created by potrace 1.10, written by Peter Selinger 2001-2011
</metadata>
<g transform="translate(0.000000,248.000000) scale(0.100000,-0.100000)"
fill="#000000" stroke="none">
<path d="M773 2119 c-13 -5 -25 -20 -29 -36 -22 -100 -126 -397 -187 -538 -57
-134 -199 -339 -341 -493 -59 -64 -76 -89 -76 -112 0 -23 5 -31 24 -36 42 -10
62 4 149 104 161 185 273 353 339 504 81 183 200 543 191 576 -6 26 -42 41
-70 31z"/>
</g>
</svg>
