<?xml version="1.0" standalone="no"?>
<!DOCTYPE svg PUBLIC "-//W3C//DTD SVG 20010904//EN"
 "http://www.w3.org/TR/2001/REC-SVG-20010904/DTD/svg10.dtd">
<svg version="1.0" xmlns="http://www.w3.org/2000/svg"
 width="248.000000pt" height="248.000000pt" viewBox="0 0 248.000000 248.000000"
 preserveAspectRatio="xMidYMid meet">
<metadata>
Created by potrace 1.10, written by Peter Selinger 2001-2011
</metadata>
<g transform="translate(0.000000,248.000000) scale(0.100000,-0.100000)"
fill="#000000" stroke="none">
<path d="M817 2358 c-14 -18 -30 -44 -37 -58 -15 -30 -67 -100 -170 -230 -42
-52 -91 -117 -110 -145 -19 -27 -53 -70 -76 -95 -23 -25 -103 -112 -177 -195
-74 -82 -151 -165 -171 -183 -53 -49 -47 -112 11 -112 16 0 51 28 111 88 94
93 342 374 382 432 14 19 74 98 136 175 125 158 194 266 194 305 0 58 -55 68
-93 18z"/>
</g>
</svg>
