<?xml version="1.0" standalone="no"?>
<!DOCTYPE svg PUBLIC "-//W3C//DTD SVG 20010904//EN"
 "http://www.w3.org/TR/2001/REC-SVG-20010904/DTD/svg10.dtd">
<svg version="1.0" xmlns="http://www.w3.org/2000/svg"
 width="248.000000pt" height="248.000000pt" viewBox="0 0 248.000000 248.000000"
 preserveAspectRatio="xMidYMid meet">
<metadata>
Created by potrace 1.10, written by Peter Selinger 2001-2011
</metadata>
<g transform="translate(0.000000,248.000000) scale(0.100000,-0.100000)"
fill="#000000" stroke="none">
<path d="M817 2358 c-14 -18 -30 -44 -37 -58 -15 -30 -67 -100 -170 -230 -42
-52 -91 -117 -110 -145 -19 -27 -53 -70 -76 -95 -23 -25 -103 -112 -177 -195
-74 -82 -151 -165 -171 -183 -38 -35 -48 -76 -24 -100 35 -35 89 5 255 190 63
71 117 127 120 125 14 -15 -2 -1020 -23 -1402 -6 -114 5 -148 47 -153 43 -5
53 19 61 157 19 325 27 653 28 1074 l0 458 32 47 c18 26 82 110 143 187 126
158 195 266 195 305 0 58 -55 68 -93 18z"/>
<path d="M2129 2235 c-6 -6 -111 -17 -349 -36 -74 -6 -189 -17 -255 -26 -66
-8 -140 -16 -165 -18 -25 -2 -72 -8 -104 -14 -33 -6 -85 -11 -115 -11 -74 0
-106 -17 -106 -55 0 -55 76 -69 212 -41 81 17 217 33 398 46 301 21 526 50
551 71 30 24 9 73 -36 84 -14 3 -28 3 -31 0z"/>
</g>
</svg>
