<?xml version="1.0" standalone="no"?>
<!DOCTYPE svg PUBLIC "-//W3C//DTD SVG 20010904//EN"
 "http://www.w3.org/TR/2001/REC-SVG-20010904/DTD/svg10.dtd">
<svg version="1.0" xmlns="http://www.w3.org/2000/svg"
 width="248.000000pt" height="248.000000pt" viewBox="0 0 248.000000 248.000000"
 preserveAspectRatio="xMidYMid meet">
<metadata>
Created by potrace 1.10, written by Peter Selinger 2001-2011
</metadata>
<g transform="translate(0.000000,248.000000) scale(0.100000,-0.100000)"
fill="#000000" stroke="none">
<path d="M817 2358 c-14 -18 -30 -44 -37 -58 -15 -30 -67 -100 -170 -230 -42
-52 -91 -117 -110 -145 -19 -27 -53 -70 -76 -95 -23 -25 -103 -112 -177 -195
-74 -82 -151 -165 -171 -183 -38 -35 -48 -76 -24 -100 35 -35 89 5 255 190 63
71 117 127 120 125 14 -15 -2 -1020 -23 -1402 -6 -114 5 -148 47 -153 43 -5
53 19 61 157 19 325 27 653 28 1074 l0 458 32 47 c18 26 82 110 143 187 126
158 195 266 195 305 0 58 -55 68 -93 18z"/>
<path d="M2129 2235 c-6 -6 -111 -17 -349 -36 -74 -6 -189 -17 -255 -26 -66
-8 -146 -17 -178 -19 -32 -2 -62 -6 -67 -9 -5 -3 -64 -10 -130 -14 -66 -5
-126 -14 -134 -20 -10 -9 -14 -74 -19 -304 -5 -274 -16 -403 -47 -552 -6 -27
-21 -111 -34 -185 -45 -249 -152 -652 -210 -792 -19 -45 -21 -99 -4 -116 16
-16 53 -15 66 1 45 53 198 594 247 872 37 208 64 364 76 443 11 71 11 72 40
72 16 0 82 12 147 26 64 14 165 34 225 44 59 10 111 22 117 25 5 3 44 10 87
15 43 6 105 14 138 19 33 5 61 8 63 6 4 -3 -37 -110 -80 -210 -19 -44 -45
-107 -58 -140 -22 -58 -40 -99 -129 -285 -39 -82 -74 -147 -130 -240 -15 -25
-38 -65 -51 -90 -87 -163 -266 -374 -410 -482 -64 -48 -65 -108 -3 -108 58 0
248 172 358 324 28 37 69 94 93 126 23 32 42 61 42 65 0 5 19 40 41 79 80 137
149 259 149 263 0 3 21 48 46 101 48 101 106 239 119 282 4 14 27 69 51 122
55 124 87 240 74 274 -20 52 -35 51 -570 -52 -157 -30 -298 -54 -315 -54 l-30
0 3 180 3 180 34 0 c18 0 65 6 102 14 81 17 217 33 398 46 301 21 526 50 551
71 30 24 9 73 -36 84 -14 3 -28 3 -31 0z"/>
</g>
</svg>
