<?xml version="1.0" standalone="no"?>
<!DOCTYPE svg PUBLIC "-//W3C//DTD SVG 20010904//EN"
 "http://www.w3.org/TR/2001/REC-SVG-20010904/DTD/svg10.dtd">
<svg version="1.0" xmlns="http://www.w3.org/2000/svg"
 width="248.000000pt" height="248.000000pt" viewBox="0 0 248.000000 248.000000"
 preserveAspectRatio="xMidYMid meet">
<metadata>
Created by potrace 1.10, written by Peter Selinger 2001-2011
</metadata>
<g transform="translate(0.000000,248.000000) scale(0.100000,-0.100000)"
fill="#000000" stroke="none">
<path d="M826 2332 c-76 -115 -368 -428 -563 -604 -64 -57 -78 -89 -51 -116
35 -35 109 15 281 193 l97 100 0 -265 c0 -294 4 -315 55 -315 53 0 55 16 54
369 l0 320 80 90 c85 98 145 177 161 214 15 34 -7 76 -41 80 -23 3 -33 -6 -73
-66z"/>
<path d="M1644 2165 c-50 -35 -158 -98 -240 -141 -148 -79 -149 -79 -149 -114
0 -28 5 -36 27 -44 23 -8 44 0 150 54 156 80 173 90 250 141 116 78 150 123
116 157 -23 23 -64 9 -154 -53z"/>
</g>
</svg>
