<?xml version="1.0" standalone="no"?>
<!DOCTYPE svg PUBLIC "-//W3C//DTD SVG 20010904//EN"
 "http://www.w3.org/TR/2001/REC-SVG-20010904/DTD/svg10.dtd">
<svg version="1.0" xmlns="http://www.w3.org/2000/svg"
 width="248.000000pt" height="248.000000pt" viewBox="0 0 248.000000 248.000000"
 preserveAspectRatio="xMidYMid meet">
<metadata>
Created by potrace 1.10, written by Peter Selinger 2001-2011
</metadata>
<g transform="translate(0.000000,248.000000) scale(0.100000,-0.100000)"
fill="#000000" stroke="none">
<path d="M826 2332 c-76 -115 -368 -428 -563 -604 -64 -57 -78 -89 -51 -116
35 -35 109 15 281 193 l97 100 0 -265 c0 -294 4 -315 55 -315 53 0 55 16 54
369 l0 320 80 90 c85 98 145 177 161 214 15 34 -7 76 -41 80 -23 3 -33 -6 -73
-66z"/>
<path d="M1241 2356 c-9 -11 -11 -107 -9 -368 3 -344 4 -354 26 -395 27 -51
32 -54 151 -83 82 -20 109 -22 220 -17 116 6 276 32 361 58 65 21 70 31 70
138 0 109 -12 144 -51 149 -39 5 -52 -20 -57 -109 -3 -44 -8 -81 -12 -84 -26
-16 -178 -37 -302 -42 -142 -6 -241 4 -279 28 -10 6 -15 39 -17 122 l-4 114
34 20 c18 11 76 42 128 69 106 54 228 132 278 178 33 31 41 63 20 84 -23 23
-57 12 -150 -51 -51 -35 -141 -89 -199 -120 l-107 -57 -3 169 c-4 149 -6 171
-23 190 -22 24 -58 27 -75 7z"/>
</g>
</svg>
