<?xml version="1.0" standalone="no"?>
<!DOCTYPE svg PUBLIC "-//W3C//DTD SVG 20010904//EN"
 "http://www.w3.org/TR/2001/REC-SVG-20010904/DTD/svg10.dtd">
<svg version="1.0" xmlns="http://www.w3.org/2000/svg"
 width="248.000000pt" height="248.000000pt" viewBox="0 0 248.000000 248.000000"
 preserveAspectRatio="xMidYMid meet">
<metadata>
Created by potrace 1.10, written by Peter Selinger 2001-2011
</metadata>
<g transform="translate(0.000000,248.000000) scale(0.100000,-0.100000)"
fill="#000000" stroke="none">
<path d="M817 2358 c-14 -18 -30 -44 -37 -58 -15 -30 -67 -100 -170 -230 -42
-52 -91 -117 -110 -145 -19 -27 -53 -70 -76 -95 -23 -25 -103 -112 -177 -195
-74 -82 -151 -165 -171 -183 -38 -35 -48 -76 -24 -100 35 -35 89 5 255 190 63
71 117 127 120 125 14 -15 -2 -1020 -23 -1402 -6 -114 5 -148 47 -153 43 -5
53 19 61 157 19 325 27 653 28 1074 l0 458 32 47 c18 26 82 110 143 187 126
158 195 266 195 305 0 58 -55 68 -93 18z"/>
<path d="M2129 2235 c-6 -6 -111 -17 -349 -36 -74 -6 -189 -17 -255 -26 -66
-8 -146 -17 -178 -19 -32 -2 -62 -6 -67 -9 -5 -3 -64 -10 -130 -14 -66 -5
-126 -14 -134 -20 -10 -9 -14 -74 -19 -304 -5 -274 -16 -403 -47 -552 -6 -27
-21 -111 -34 -185 -45 -249 -152 -652 -210 -792 -19 -45 -21 -99 -4 -116 16
-16 53 -15 66 1 45 53 198 595 247 872 13 72 32 180 43 240 36 202 43 268 49
508 l6 237 33 0 c18 0 64 6 101 14 81 17 217 33 398 46 301 21 526 50 551 71
30 24 9 73 -36 84 -14 3 -28 3 -31 0z"/>
</g>
</svg>
