<?xml version="1.0" standalone="no"?>
<!DOCTYPE svg PUBLIC "-//W3C//DTD SVG 20010904//EN"
 "http://www.w3.org/TR/2001/REC-SVG-20010904/DTD/svg10.dtd">
<svg version="1.0" xmlns="http://www.w3.org/2000/svg"
 width="248.000000pt" height="248.000000pt" viewBox="0 0 248.000000 248.000000"
 preserveAspectRatio="xMidYMid meet">
<metadata>
Created by potrace 1.10, written by Peter Selinger 2001-2011
</metadata>
<g transform="translate(0.000000,248.000000) scale(0.100000,-0.100000)"
fill="#000000" stroke="none">
<path d="M2175 2190 c-38 -4 -115 -8 -169 -9 -55 0 -150 -5 -210 -11 -61 -5
-178 -14 -261 -20 -82 -6 -177 -15 -210 -20 -62 -9 -212 -19 -325 -21 -36 0
-132 -9 -215 -20 -82 -10 -204 -23 -270 -30 -66 -6 -126 -16 -132 -21 -19 -16
-15 -53 7 -73 19 -18 29 -18 158 -6 75 7 166 17 202 22 36 4 151 13 255 19
105 5 249 17 320 25 156 18 336 31 625 45 357 18 400 25 400 75 0 46 -49 59
-175 45z"/>
<path d="M650 1755 c-21 -25 0 -483 23 -519 20 -29 57 -35 77 -11 14 17 14
134 1 363 -7 114 -12 147 -27 163 -21 23 -57 25 -74 4z"/>
</g>
</svg>
