<?xml version="1.0" standalone="no"?>
<!DOCTYPE svg PUBLIC "-//W3C//DTD SVG 20010904//EN"
 "http://www.w3.org/TR/2001/REC-SVG-20010904/DTD/svg10.dtd">
<svg version="1.0" xmlns="http://www.w3.org/2000/svg"
 width="248.000000pt" height="248.000000pt" viewBox="0 0 248.000000 248.000000"
 preserveAspectRatio="xMidYMid meet">
<metadata>
Created by potrace 1.10, written by Peter Selinger 2001-2011
</metadata>
<g transform="translate(0.000000,248.000000) scale(0.100000,-0.100000)"
fill="#000000" stroke="none">
<path d="M812 2233 c-7 -2 -43 -66 -81 -141 -152 -305 -281 -537 -398 -716
-68 -104 -123 -198 -123 -210 0 -30 18 -46 51 -46 24 0 38 17 116 133 l88 132
3 -255 c3 -261 -9 -524 -33 -709 -14 -109 -10 -135 23 -143 26 -7 59 8 66 29
10 32 34 293 47 503 14 236 8 640 -10 684 -10 26 -7 37 40 125 29 53 88 166
132 251 44 85 97 188 118 229 45 86 46 94 19 121 -20 20 -34 23 -58 13z"/>
<path d="M2027 1964 c-1 -1 -72 -7 -157 -13 -163 -12 -573 -55 -675 -71 -33
-5 -104 -14 -158 -21 -53 -6 -104 -17 -113 -24 -22 -16 -21 -65 2 -82 20 -15
30 -14 224 17 63 10 165 24 225 30 61 6 124 13 140 15 49 6 259 25 434 39 138
11 166 16 178 32 18 25 16 41 -7 64 -14 14 -31 20 -56 18 -19 -1 -36 -3 -37
-4z"/>
</g>
</svg>
