<?xml version="1.0" standalone="no"?>
<!DOCTYPE svg PUBLIC "-//W3C//DTD SVG 20010904//EN"
 "http://www.w3.org/TR/2001/REC-SVG-20010904/DTD/svg10.dtd">
<svg version="1.0" xmlns="http://www.w3.org/2000/svg"
 width="248.000000pt" height="248.000000pt" viewBox="0 0 248.000000 248.000000"
 preserveAspectRatio="xMidYMid meet">
<metadata>
Created by potrace 1.10, written by Peter Selinger 2001-2011
</metadata>
<g transform="translate(0.000000,248.000000) scale(0.100000,-0.100000)"
fill="#000000" stroke="none">
<path d="M619 2374 c-11 -13 -16 -72 -21 -252 -4 -163 -10 -237 -18 -242 -12
-8 -254 -47 -327 -53 -52 -5 -75 -22 -71 -56 7 -55 64 -60 278 -21 62 11 100
14 100 7 0 -5 -13 -55 -29 -111 -16 -55 -32 -119 -36 -141 -4 -22 -15 -60 -25
-85 -10 -25 -31 -88 -46 -140 -35 -120 -105 -298 -196 -497 -45 -99 -50 -116
-40 -138 9 -19 19 -25 42 -25 35 0 44 11 99 135 96 217 117 271 182 460 38
110 70 204 72 209 2 5 3 -272 3 -615 -1 -582 0 -627 17 -652 11 -17 26 -27 41
-27 51 0 51 -3 49 504 -1 259 1 556 5 660 l7 189 40 -79 c52 -103 170 -280
200 -300 47 -30 105 21 74 65 -97 134 -134 192 -182 281 -80 151 -138 289
-135 319 3 30 5 30 196 61 131 20 152 29 152 64 -1 55 -32 62 -187 36 -70 -11
-136 -22 -145 -24 -15 -3 -16 14 -12 213 4 169 2 221 -8 241 -16 31 -59 38
-79 14z"/>
<path d="M1673 2328 c-6 -7 -14 -80 -18 -163 -12 -264 -15 -329 -15 -367 0
-32 -3 -38 -21 -38 -12 0 -78 -9 -148 -19 -69 -11 -173 -24 -230 -30 -120 -13
-154 -28 -149 -69 2 -17 12 -31 28 -38 26 -12 34 -12 280 22 69 9 148 20 177
23 l52 7 -6 -286 c-3 -161 -2 -300 4 -319 12 -48 46 -59 79 -26 24 24 24 24
25 252 1 125 4 266 7 313 l7 85 65 8 c175 23 426 68 446 82 26 17 32 53 12 73
-17 17 -58 15 -182 -8 -60 -11 -147 -24 -195 -30 -47 -6 -99 -13 -115 -16
l-29 -6 9 193 c12 271 11 311 -9 343 -19 28 -57 35 -74 14z"/>
<path d="M1152 968 c-9 -9 -12 -106 -12 -373 0 -314 2 -363 16 -383 11 -16 24
-22 42 -20 50 6 53 23 50 399 -3 325 -4 348 -22 368 -21 23 -56 27 -74 9z"/>
</g>
</svg>
