<?xml version="1.0" standalone="no"?>
<!DOCTYPE svg PUBLIC "-//W3C//DTD SVG 20010904//EN"
 "http://www.w3.org/TR/2001/REC-SVG-20010904/DTD/svg10.dtd">
<svg version="1.0" xmlns="http://www.w3.org/2000/svg"
 width="248.000000pt" height="248.000000pt" viewBox="0 0 248.000000 248.000000"
 preserveAspectRatio="xMidYMid meet">
<metadata>
Created by potrace 1.10, written by Peter Selinger 2001-2011
</metadata>
<g transform="translate(0.000000,248.000000) scale(0.100000,-0.100000)"
fill="#000000" stroke="none">
<path d="M812 2233 c-7 -2 -43 -66 -81 -141 -152 -305 -281 -537 -398 -716
-68 -104 -123 -198 -123 -210 0 -30 18 -46 52 -46 22 0 33 9 55 43 14 23 67
103 116 177 93 140 165 268 300 530 44 85 97 188 118 229 45 86 46 94 19 121
-20 20 -34 23 -58 13z"/>
</g>
</svg>
