<?xml version="1.0" standalone="no"?>
<!DOCTYPE svg PUBLIC "-//W3C//DTD SVG 20010904//EN"
 "http://www.w3.org/TR/2001/REC-SVG-20010904/DTD/svg10.dtd">
<svg version="1.0" xmlns="http://www.w3.org/2000/svg"
 width="248.000000pt" height="248.000000pt" viewBox="0 0 248.000000 248.000000"
 preserveAspectRatio="xMidYMid meet">
<metadata>
Created by potrace 1.10, written by Peter Selinger 2001-2011
</metadata>
<g transform="translate(0.000000,248.000000) scale(0.100000,-0.100000)"
fill="#000000" stroke="none">
<path d="M619 2374 c-11 -13 -16 -72 -21 -252 -4 -163 -10 -237 -18 -242 -12
-8 -254 -47 -327 -53 -52 -5 -75 -22 -71 -56 7 -55 64 -60 278 -21 62 11 100
14 100 7 0 -5 -13 -55 -29 -111 -16 -55 -32 -119 -36 -141 -4 -22 -15 -60 -25
-85 -10 -25 -31 -88 -46 -140 -35 -120 -105 -298 -196 -497 -45 -99 -50 -116
-40 -138 9 -19 19 -25 42 -25 35 0 44 11 99 135 96 217 117 271 182 460 38
110 70 204 72 209 2 5 3 -272 3 -615 -1 -582 0 -627 17 -652 11 -17 26 -27 41
-27 51 0 51 -3 49 504 -1 259 1 556 5 660 l7 189 40 -79 c52 -103 170 -280
200 -300 47 -30 105 21 74 65 -97 134 -134 192 -182 281 -80 151 -138 289
-135 319 3 30 5 30 196 61 131 20 152 29 152 64 -1 55 -32 62 -187 36 -70 -11
-136 -22 -145 -24 -15 -3 -16 14 -12 213 4 169 2 221 -8 241 -16 31 -59 38
-79 14z"/>
<path d="M1673 2328 c-6 -7 -14 -80 -18 -163 -12 -264 -15 -329 -15 -367 0
-32 -3 -38 -21 -38 -12 0 -78 -9 -148 -19 -69 -11 -173 -24 -230 -30 -120 -13
-154 -28 -149 -69 2 -17 12 -31 28 -38 26 -12 34 -12 280 22 69 9 148 20 177
23 l52 7 -6 -296 c-3 -167 -10 -298 -15 -301 -10 -6 -102 -19 -278 -39 -52 -6
-109 -13 -127 -16 -65 -10 -63 2 -63 -405 l0 -370 26 -26 26 -26 267 7 c438
11 694 23 723 34 15 6 31 19 37 29 25 48 58 494 48 670 -6 125 -18 158 -60
173 -37 12 -181 13 -279 1 -40 -5 -101 -12 -135 -14 l-63 -5 1 216 c1 120 4
255 7 302 l7 85 65 8 c175 23 426 68 446 82 26 17 32 53 12 73 -17 17 -58 15
-182 -8 -60 -11 -147 -24 -195 -30 -47 -6 -99 -13 -115 -16 l-29 -6 9 193 c12
271 11 311 -9 343 -19 28 -57 35 -74 14z m482 -1513 c0 -198 -14 -463 -26
-486 -7 -13 -43 -17 -231 -24 -411 -14 -628 -20 -638 -17 -16 6 -13 611 3 617
6 2 73 11 147 19 74 9 185 22 245 30 198 27 278 33 390 32 l110 -1 0 -170z"/>
</g>
</svg>
