<?xml version="1.0" standalone="no"?>
<!DOCTYPE svg PUBLIC "-//W3C//DTD SVG 20010904//EN"
 "http://www.w3.org/TR/2001/REC-SVG-20010904/DTD/svg10.dtd">
<svg version="1.0" xmlns="http://www.w3.org/2000/svg"
 width="248.000000pt" height="248.000000pt" viewBox="0 0 248.000000 248.000000"
 preserveAspectRatio="xMidYMid meet">
<metadata>
Created by potrace 1.10, written by Peter Selinger 2001-2011
</metadata>
<g transform="translate(0.000000,248.000000) scale(0.100000,-0.100000)"
fill="#000000" stroke="none">
<path d="M812 2233 c-7 -2 -43 -66 -81 -141 -152 -305 -281 -537 -398 -716
-68 -104 -123 -198 -123 -210 0 -30 18 -46 51 -46 24 0 38 17 116 133 l88 132
3 -255 c3 -261 -9 -524 -33 -709 -14 -109 -10 -135 23 -143 26 -7 59 8 66 29
10 32 34 293 47 503 14 236 8 640 -10 684 -10 26 -7 37 40 125 29 53 88 166
132 251 44 85 97 188 118 229 45 86 46 94 19 121 -20 20 -34 23 -58 13z"/>
<path d="M1209 2204 c-10 -13 -15 -56 -17 -169 l-3 -153 -57 -10 c-31 -6 -87
-14 -124 -18 -69 -6 -95 -18 -98 -44 -9 -66 13 -74 142 -55 56 8 109 15 117
15 14 0 16 -27 16 -221 0 -207 1 -221 19 -235 25 -18 37 -18 62 0 18 13 19 30
22 241 4 262 -9 238 132 250 47 4 92 9 100 10 23 4 244 24 429 39 138 11 166
16 178 32 18 25 16 41 -8 65 -18 18 -29 20 -71 15 -27 -4 -136 -13 -241 -21
-106 -8 -250 -22 -322 -30 -71 -8 -142 -15 -157 -15 l-28 0 0 133 c0 86 -5
141 -13 157 -15 31 -58 38 -78 14z"/>
</g>
</svg>
