<?xml version="1.0" standalone="no"?>
<!DOCTYPE svg PUBLIC "-//W3C//DTD SVG 20010904//EN"
 "http://www.w3.org/TR/2001/REC-SVG-20010904/DTD/svg10.dtd">
<svg version="1.0" xmlns="http://www.w3.org/2000/svg"
 width="248.000000pt" height="248.000000pt" viewBox="0 0 248.000000 248.000000"
 preserveAspectRatio="xMidYMid meet">
<metadata>
Created by potrace 1.10, written by Peter Selinger 2001-2011
</metadata>
<g transform="translate(0.000000,248.000000) scale(0.100000,-0.100000)"
fill="#000000" stroke="none">
<path d="M1771 2241 c-8 -5 -18 -36 -22 -68 -18 -127 -34 -222 -40 -227 -6 -6
-334 -46 -381 -46 l-28 0 0 133 c0 152 -9 182 -55 182 -46 0 -55 -29 -55 -191
l0 -141 -57 -11 c-32 -6 -88 -14 -125 -18 -69 -6 -95 -18 -98 -44 -9 -66 13
-74 142 -55 147 22 141 23 134 -27 -3 -24 -5 -116 -5 -206 -1 -121 -4 -163
-13 -166 -7 -2 -65 -13 -128 -25 -247 -46 -288 -64 -274 -118 10 -35 42 -43
109 -23 65 18 260 56 340 66 28 3 100 14 160 24 188 32 309 40 623 44 291 3
304 4 324 24 15 14 19 27 14 45 -10 39 -52 51 -164 43 -100 -6 -402 -10 -407
-4 -1 2 4 53 11 113 8 61 18 150 23 198 5 48 11 90 14 93 3 3 72 12 153 19
122 10 150 15 161 31 18 25 16 41 -8 65 -17 17 -29 20 -67 15 -26 -3 -89 -9
-141 -12 l-94 -7 8 58 c4 32 11 70 17 84 15 41 15 126 -1 144 -15 19 -48 22
-70 8z m-71 -438 c0 -71 -41 -358 -52 -369 -7 -7 -80 -22 -163 -34 -82 -12
-160 -24 -172 -27 l-23 -5 0 205 c0 136 4 208 11 212 12 8 102 20 224 30 44 4
82 9 84 11 2 2 24 4 48 4 40 0 43 -2 43 -27z"/>
<path d="M812 2233 c-7 -2 -43 -66 -81 -141 -152 -305 -281 -537 -398 -716
-68 -104 -123 -198 -123 -210 0 -30 18 -46 51 -46 24 0 38 17 116 133 l88 132
3 -255 c3 -261 -9 -524 -33 -709 -14 -109 -10 -135 23 -143 26 -7 59 8 66 29
10 32 34 293 47 503 14 236 8 640 -10 684 -10 26 -7 37 40 125 29 53 88 166
132 251 44 85 97 188 118 229 45 86 46 94 19 121 -20 20 -34 23 -58 13z"/>
<path d="M1655 1149 c-251 -12 -503 -59 -538 -101 -13 -16 -17 -32 -13 -57 3
-20 8 -182 12 -360 6 -300 8 -325 26 -343 15 -15 28 -18 66 -14 141 16 423 28
502 23 136 -9 123 -33 166 328 32 271 37 486 12 511 -20 20 -52 22 -233 13z
m145 -177 c0 -44 -3 -100 -6 -124 l-6 -46 -162 -11 c-88 -6 -216 -17 -283 -24
l-122 -13 -3 114 c-2 63 0 116 3 117 24 15 249 49 359 54 74 3 154 7 178 9
l42 3 0 -79z m-23 -314 c-3 -18 -11 -81 -18 -139 l-11 -105 -207 -12 c-113 -7
-230 -12 -258 -12 l-53 0 0 48 c0 26 -3 84 -6 128 l-7 82 87 12 c94 13 274 26
400 29 l78 1 -5 -32z"/>
</g>
</svg>
