<?xml version="1.0" standalone="no"?>
<!DOCTYPE svg PUBLIC "-//W3C//DTD SVG 20010904//EN"
 "http://www.w3.org/TR/2001/REC-SVG-20010904/DTD/svg10.dtd">
<svg version="1.0" xmlns="http://www.w3.org/2000/svg"
 width="248.000000pt" height="248.000000pt" viewBox="0 0 248.000000 248.000000"
 preserveAspectRatio="xMidYMid meet">
<metadata>
Created by potrace 1.10, written by Peter Selinger 2001-2011
</metadata>
<g transform="translate(0.000000,248.000000) scale(0.100000,-0.100000)"
fill="#000000" stroke="none">
<path d="M823 2198 c-11 -13 -68 -97 -127 -186 -59 -90 -149 -219 -200 -285
-51 -67 -98 -132 -105 -145 -6 -12 -37 -53 -69 -91 -31 -38 -75 -92 -97 -121
-22 -29 -66 -85 -97 -125 -64 -80 -70 -106 -34 -130 20 -14 29 -14 48 -4 13 7
29 21 36 31 8 10 30 38 50 62 20 25 59 73 85 109 93 125 83 182 91 -528 7
-622 10 -667 41 -679 24 -9 53 6 65 33 8 20 9 214 2 727 l-8 699 78 103 c122
159 328 476 328 504 0 50 -51 65 -87 26z"/>
<path d="M2010 1978 c-86 -12 -467 -66 -600 -84 -58 -8 -163 -21 -235 -30
-145 -17 -178 -31 -173 -72 4 -39 39 -52 113 -41 33 4 132 18 220 29 88 11
219 29 290 40 135 20 219 31 415 55 113 14 140 25 140 60 0 45 -59 60 -170 43z"/>
</g>
</svg>
