<?xml version="1.0" standalone="no"?>
<!DOCTYPE svg PUBLIC "-//W3C//DTD SVG 20010904//EN"
 "http://www.w3.org/TR/2001/REC-SVG-20010904/DTD/svg10.dtd">
<svg version="1.0" xmlns="http://www.w3.org/2000/svg"
 width="248.000000pt" height="248.000000pt" viewBox="0 0 248.000000 248.000000"
 preserveAspectRatio="xMidYMid meet">
<metadata>
Created by potrace 1.10, written by Peter Selinger 2001-2011
</metadata>
<g transform="translate(0.000000,248.000000) scale(0.100000,-0.100000)"
fill="#000000" stroke="none">
<path d="M823 2198 c-11 -13 -72 -102 -136 -198 -63 -96 -145 -213 -181 -260
-37 -47 -86 -114 -110 -150 -24 -36 -63 -88 -87 -116 -24 -28 -62 -75 -84
-104 -22 -29 -66 -85 -97 -125 -64 -80 -70 -106 -34 -130 20 -14 29 -14 48 -4
13 7 26 16 29 21 3 5 25 33 48 61 79 98 161 202 208 266 27 35 90 121 142 190
143 190 341 495 341 523 0 50 -51 65 -87 26z"/>
</g>
</svg>
