<?xml version="1.0" standalone="no"?>
<!DOCTYPE svg PUBLIC "-//W3C//DTD SVG 20010904//EN"
 "http://www.w3.org/TR/2001/REC-SVG-20010904/DTD/svg10.dtd">
<svg version="1.0" xmlns="http://www.w3.org/2000/svg"
 width="248.000000pt" height="248.000000pt" viewBox="0 0 248.000000 248.000000"
 preserveAspectRatio="xMidYMid meet">
<metadata>
Created by potrace 1.10, written by Peter Selinger 2001-2011
</metadata>
<g transform="translate(0.000000,248.000000) scale(0.100000,-0.100000)"
fill="#000000" stroke="none">
<path d="M439 2016 c-128 -7 -191 -15 -202 -25 -34 -28 -37 -77 -28 -598 10
-562 11 -568 66 -568 50 0 53 18 47 304 l-5 258 104 6 c57 4 125 10 152 13
l47 7 0 -279 c0 -310 4 -329 55 -329 54 0 54 0 55 615 2 539 1 564 -17 582
-26 26 -60 27 -274 14z m187 -127 c-3 -17 -6 -107 -6 -199 l0 -168 -63 -11
c-35 -6 -102 -11 -149 -11 l-85 0 -6 113 c-4 61 -7 151 -7 200 l0 87 28 1 c26
1 222 14 271 17 21 2 23 -1 17 -29z"/>
</g>
</svg>
