<?xml version="1.0" standalone="no"?>
<!DOCTYPE svg PUBLIC "-//W3C//DTD SVG 20010904//EN"
 "http://www.w3.org/TR/2001/REC-SVG-20010904/DTD/svg10.dtd">
<svg version="1.0" xmlns="http://www.w3.org/2000/svg"
 width="248.000000pt" height="248.000000pt" viewBox="0 0 248.000000 248.000000"
 preserveAspectRatio="xMidYMid meet">
<metadata>
Created by potrace 1.10, written by Peter Selinger 2001-2011
</metadata>
<g transform="translate(0.000000,248.000000) scale(0.100000,-0.100000)"
fill="#000000" stroke="none">
<path d="M1843 2320 c-84 -9 -160 -23 -168 -30 -23 -19 -15 -63 15 -76 19 -9
55 -9 155 1 72 8 169 14 217 14 l88 1 -5 -27 c-2 -16 -9 -91 -15 -168 -7 -77
-14 -147 -16 -156 -5 -17 -26 -19 -325 -37 -127 -8 -152 -18 -147 -61 5 -41
40 -52 143 -47 50 3 159 8 243 12 142 6 154 8 167 28 16 25 31 122 46 306 23
266 29 254 -134 257 -62 0 -181 -7 -264 -17z"/>
<path d="M1135 2298 c-134 -12 -201 -26 -217 -45 -18 -22 -13 -2054 6 -2093 8
-18 19 -25 41 -25 52 0 55 18 55 352 l0 302 43 5 c23 3 89 11 147 16 195 19
237 39 211 98 -12 24 -14 25 -89 18 -148 -12 -276 -26 -294 -32 -17 -5 -18 5
-18 155 0 122 3 161 13 161 15 1 182 17 294 28 45 5 89 15 98 22 18 15 20 54
2 68 -22 18 -91 25 -148 13 -30 -5 -100 -13 -156 -17 l-103 -7 0 201 0 200
118 6 c228 12 323 22 338 38 22 22 33 119 36 325 4 230 13 218 -155 219 -67 1
-167 -3 -222 -8z m269 -265 c-3 -93 -10 -173 -15 -179 -5 -6 -67 -14 -151 -17
-79 -4 -159 -9 -179 -13 l-36 -6 -6 47 c-4 26 -7 107 -7 180 l0 132 88 10 c48
5 138 11 200 11 l113 2 -7 -167z"/>
<path d="M439 2016 c-117 -7 -192 -16 -201 -23 -35 -30 -38 -75 -29 -598 6
-299 13 -521 19 -536 6 -15 26 -37 44 -50 32 -23 40 -24 203 -24 94 1 182 4
197 8 59 16 57 1 58 621 1 539 1 570 -17 587 -26 26 -67 28 -274 15z m187
-127 c-3 -17 -6 -107 -6 -199 l0 -168 -63 -11 c-35 -6 -102 -11 -149 -11 l-85
0 -6 122 c-4 66 -7 156 -7 200 0 74 1 78 23 79 78 5 256 16 276 17 21 2 23 -1
17 -29z m-8 -736 l-3 -258 -141 -3 -141 -3 -6 68 c-4 38 -7 150 -7 251 l0 182
78 1 c42 0 95 4 117 8 22 5 55 9 73 10 l32 1 -2 -257z"/>
<path d="M1860 1530 c-36 -4 -99 -10 -140 -15 -41 -4 -85 -14 -97 -21 -31 -20
-30 -59 2 -80 23 -15 34 -15 97 -5 40 7 130 15 202 18 146 7 134 16 101 -77
-28 -79 -178 -371 -189 -367 -6 1 -25 31 -43 65 -38 75 -101 181 -121 205 -19
21 -55 22 -72 2 -19 -23 -6 -75 32 -136 43 -67 138 -245 138 -256 0 -9 -65
-110 -142 -224 -79 -115 -187 -236 -266 -297 -67 -52 -82 -68 -82 -91 0 -32
16 -51 45 -51 11 0 59 29 107 65 80 60 181 171 260 285 67 99 140 200 143 200
2 0 23 -35 46 -77 23 -43 63 -107 89 -143 26 -36 64 -92 86 -125 48 -75 246
-273 281 -281 33 -9 57 6 61 38 3 21 -18 46 -110 139 -74 73 -141 153 -189
224 -87 128 -199 318 -199 337 0 7 10 29 22 48 37 60 198 383 198 398 0 8 6
26 14 40 24 44 48 130 42 150 -4 11 -18 24 -32 30 -27 13 -175 14 -284 2z"/>
</g>
</svg>
