<?xml version="1.0" standalone="no"?>
<!DOCTYPE svg PUBLIC "-//W3C//DTD SVG 20010904//EN"
 "http://www.w3.org/TR/2001/REC-SVG-20010904/DTD/svg10.dtd">
<svg version="1.0" xmlns="http://www.w3.org/2000/svg"
 width="248.000000pt" height="248.000000pt" viewBox="0 0 248.000000 248.000000"
 preserveAspectRatio="xMidYMid meet">
<metadata>
Created by potrace 1.10, written by Peter Selinger 2001-2011
</metadata>
<g transform="translate(0.000000,248.000000) scale(0.100000,-0.100000)"
fill="#000000" stroke="none">
<path d="M1110 2375 c-11 -13 -11 -32 -1 -98 22 -147 26 -406 7 -557 -68 -546
-160 -856 -314 -1057 -70 -91 -99 -119 -207 -199 -130 -97 -187 -125 -288
-145 -59 -11 -77 -23 -77 -54 0 -37 24 -48 93 -43 46 4 88 17 149 46 94 44
257 161 330 238 121 127 233 324 278 491 13 45 27 80 32 77 4 -3 17 -22 27
-42 64 -125 376 -444 586 -599 68 -50 219 -141 280 -169 66 -30 230 -74 278
-74 31 0 39 4 47 26 17 45 0 58 -117 87 -59 15 -137 41 -173 58 -189 88 -392
247 -615 483 -114 120 -162 182 -265 345 l-21 34 26 146 c47 260 55 352 55
605 0 247 -10 354 -36 394 -17 26 -56 29 -74 7z"/>
<path d="M2038 1973 c-9 -10 -55 -79 -104 -153 -91 -141 -201 -260 -331 -362
-64 -50 -78 -79 -51 -106 37 -37 105 5 264 163 86 85 133 141 203 248 95 144
111 179 94 206 -14 23 -56 25 -75 4z"/>
<path d="M332 1838 c-25 -25 -12 -58 52 -128 74 -83 109 -131 220 -300 70
-108 85 -125 111 -128 29 -4 55 17 55 43 0 7 -17 38 -38 71 -21 32 -65 100
-97 149 -68 105 -186 256 -222 285 -29 23 -63 26 -81 8z"/>
</g>
</svg>
