<?xml version="1.0" standalone="no"?>
<!DOCTYPE svg PUBLIC "-//W3C//DTD SVG 20010904//EN"
 "http://www.w3.org/TR/2001/REC-SVG-20010904/DTD/svg10.dtd">
<svg version="1.0" xmlns="http://www.w3.org/2000/svg"
 width="248.000000pt" height="248.000000pt" viewBox="0 0 248.000000 248.000000"
 preserveAspectRatio="xMidYMid meet">
<metadata>
Created by potrace 1.10, written by Peter Selinger 2001-2011
</metadata>
<g transform="translate(0.000000,248.000000) scale(0.100000,-0.100000)"
fill="#000000" stroke="none">
<path d="M1110 2375 c-11 -13 -11 -32 -1 -98 22 -147 25 -406 7 -557 -49 -396
-118 -693 -201 -867 -53 -111 -141 -239 -206 -299 -35 -32 -174 -137 -221
-167 -40 -25 -125 -57 -181 -68 -59 -11 -77 -23 -77 -54 0 -37 24 -48 93 -43
87 7 209 66 334 161 288 218 414 462 508 986 47 259 55 352 55 605 0 247 -10
354 -36 394 -17 26 -56 29 -74 7z"/>
<path d="M2038 1973 c-9 -10 -55 -79 -104 -153 -91 -141 -201 -260 -331 -362
-64 -50 -78 -79 -51 -106 37 -37 105 5 264 163 86 85 133 141 203 248 95 144
111 179 94 206 -14 23 -56 25 -75 4z"/>
<path d="M332 1838 c-25 -25 -12 -58 52 -128 74 -83 109 -131 220 -300 70
-108 85 -125 111 -128 29 -4 55 17 55 43 0 7 -17 38 -38 71 -21 32 -65 100
-97 149 -68 105 -186 256 -222 285 -29 23 -63 26 -81 8z"/>
</g>
</svg>
