<?xml version="1.0" standalone="no"?>
<!DOCTYPE svg PUBLIC "-//W3C//DTD SVG 20010904//EN"
 "http://www.w3.org/TR/2001/REC-SVG-20010904/DTD/svg10.dtd">
<svg version="1.0" xmlns="http://www.w3.org/2000/svg"
 width="248.000000pt" height="248.000000pt" viewBox="0 0 248.000000 248.000000"
 preserveAspectRatio="xMidYMid meet">
<metadata>
Created by potrace 1.10, written by Peter Selinger 2001-2011
</metadata>
<g transform="translate(0.000000,248.000000) scale(0.100000,-0.100000)"
fill="#000000" stroke="none">
<path d="M1849 2321 c-168 -18 -192 -27 -187 -70 5 -45 36 -51 183 -36 72 8
169 14 216 14 l87 1 -5 -42 c-2 -24 -10 -106 -16 -183 l-12 -140 -90 -7 c-49
-4 -149 -11 -221 -15 -143 -9 -167 -19 -162 -62 5 -43 39 -53 158 -45 58 3
168 9 245 13 163 7 157 2 175 132 18 125 37 383 30 409 -4 14 -17 31 -31 37
-32 17 -176 14 -370 -6z"/>
<path d="M1135 2298 c-163 -15 -183 -18 -207 -38 l-23 -18 3 -1029 c3 -757 7
-1035 15 -1053 17 -34 60 -39 81 -8 14 19 16 64 16 330 l0 307 43 5 c23 4 92
11 152 17 140 13 193 26 206 52 17 31 -4 67 -38 67 -42 0 -325 -29 -345 -36
-17 -5 -18 7 -18 155 0 122 3 161 13 161 12 1 115 11 289 28 94 10 118 21 118
57 0 46 -62 65 -157 47 -32 -6 -104 -14 -160 -18 l-103 -7 0 202 c0 154 3 201
13 201 103 1 401 22 421 30 14 5 31 22 36 36 6 15 15 122 21 238 12 231 8 259
-36 276 -31 12 -198 11 -340 -2z m270 -265 c-4 -93 -11 -173 -16 -179 -5 -6
-68 -14 -151 -17 -79 -4 -159 -9 -179 -13 l-36 -6 -6 47 c-4 26 -7 107 -7 180
l0 132 88 10 c48 5 138 11 200 11 l114 2 -7 -167z"/>
<path d="M439 2016 c-204 -12 -213 -15 -229 -75 -12 -47 4 -1046 18 -1082 6
-15 26 -37 44 -50 32 -23 39 -24 208 -23 189 1 225 8 240 49 5 14 10 260 10
586 2 538 1 563 -17 581 -26 26 -60 27 -274 14z m187 -127 c-3 -17 -6 -107 -6
-199 l0 -168 -63 -11 c-35 -6 -102 -11 -149 -11 l-85 0 -6 113 c-4 61 -7 151
-7 200 l0 87 28 1 c26 1 222 14 271 17 21 2 23 -1 17 -29z m-8 -736 l-3 -258
-141 -3 -141 -3 -6 68 c-4 38 -7 150 -7 251 l0 182 73 1 c39 0 92 4 117 8 25
5 60 9 78 10 l32 1 -2 -257z"/>
<path d="M1860 1530 c-36 -4 -99 -10 -140 -15 -41 -4 -85 -14 -97 -21 -31 -20
-30 -59 2 -80 22 -14 35 -15 103 -5 42 6 133 14 201 18 119 6 124 5 118 -13
-24 -76 -54 -146 -112 -259 -116 -227 -166 -309 -310 -520 -76 -111 -185 -233
-263 -293 -67 -52 -82 -68 -82 -91 0 -32 16 -51 45 -51 41 0 191 126 275 232
104 130 212 286 285 413 74 127 235 444 235 463 0 8 6 26 14 40 24 44 48 130
42 150 -4 11 -18 24 -32 30 -27 13 -175 14 -284 2z"/>
</g>
</svg>
