<?xml version="1.0" standalone="no"?>
<!DOCTYPE svg PUBLIC "-//W3C//DTD SVG 20010904//EN"
 "http://www.w3.org/TR/2001/REC-SVG-20010904/DTD/svg10.dtd">
<svg version="1.0" xmlns="http://www.w3.org/2000/svg"
 width="248.000000pt" height="248.000000pt" viewBox="0 0 248.000000 248.000000"
 preserveAspectRatio="xMidYMid meet">
<metadata>
Created by potrace 1.10, written by Peter Selinger 2001-2011
</metadata>
<g transform="translate(0.000000,248.000000) scale(0.100000,-0.100000)"
fill="#000000" stroke="none">
<path d="M1441 2181 c-11 -11 -23 -37 -27 -58 -3 -21 -26 -89 -50 -151 -24
-62 -44 -116 -44 -120 0 -19 -127 -233 -165 -278 -43 -49 -49 -62 -46 -97 1
-20 36 -36 64 -29 10 2 43 37 73 76 32 40 70 76 88 84 51 22 159 41 370 67
111 13 246 31 300 39 55 9 101 14 103 12 14 -13 -153 -180 -289 -289 -51 -41
-59 -64 -30 -90 25 -23 47 -21 88 7 64 43 225 190 265 242 22 28 69 79 104
113 36 33 65 68 65 76 0 8 -10 25 -21 36 -20 20 -28 21 -123 15 -55 -4 -159
-15 -231 -26 -71 -11 -218 -31 -326 -45 -108 -13 -205 -28 -215 -32 -13 -5
-16 -3 -12 8 135 334 159 408 142 437 -16 25 -59 27 -83 3z"/>
<path d="M885 2099 c-60 -4 -186 -17 -280 -29 -93 -11 -214 -25 -268 -30 -109
-10 -147 -26 -147 -64 0 -56 34 -57 405 -11 110 14 224 25 253 25 l52 0 0 -52
c0 -29 -9 -123 -20 -208 -11 -85 -27 -213 -35 -284 -8 -71 -18 -133 -22 -137
-5 -5 -49 -15 -98 -23 -617 -101 -635 -105 -635 -151 0 -28 39 -57 68 -50 149
32 649 111 657 103 11 -11 5 -321 -9 -468 -8 -85 -18 -193 -21 -240 -3 -47 -8
-94 -10 -105 -2 -11 -7 -54 -10 -95 -4 -41 -8 -81 -11 -88 -2 -8 -26 2 -71 33
-90 60 -133 58 -133 -6 0 -24 14 -37 88 -88 71 -50 94 -61 128 -61 81 0 93 44
124 450 6 74 15 171 21 215 5 44 12 168 16 276 l6 197 51 6 c28 3 72 6 99 6
71 0 106 41 73 86 -13 17 -25 19 -115 16 l-101 -3 0 33 c0 34 29 276 55 458 8
58 15 124 15 148 l0 42 53 0 c63 0 90 16 90 55 0 57 -31 62 -268 44z"/>
<path d="M679 1765 c-3 -2 -57 -9 -120 -15 -133 -11 -342 -52 -364 -70 -19
-16 -19 -54 0 -83 8 -13 19 -59 25 -102 19 -141 41 -175 98 -154 13 5 38 9 55
9 18 0 52 7 76 16 24 8 75 18 114 22 70 7 72 8 94 47 30 53 103 254 103 282 0
32 -61 68 -81 48z m-54 -137 c-4 -13 -17 -48 -29 -78 -21 -53 -22 -55 -68 -61
-25 -4 -71 -14 -101 -23 -91 -26 -92 -26 -106 53 -6 39 -11 74 -11 80 0 16
168 45 288 50 30 1 33 -1 27 -21z"/>
<path d="M1526 1517 c-15 -11 -19 -30 -21 -103 -6 -180 -177 -654 -307 -849
-47 -70 -175 -204 -235 -246 -33 -23 -43 -36 -43 -57 0 -66 47 -68 129 -6 148
111 287 304 373 516 24 59 46 108 49 108 8 0 206 -206 255 -266 52 -63 160
-148 345 -272 249 -167 336 -202 361 -148 17 38 5 52 -74 92 -88 44 -306 186
-397 257 -36 29 -95 82 -131 118 -116 118 -269 283 -294 317 l-24 33 34 112
c73 241 85 346 44 387 -23 23 -39 25 -64 7z"/>
<path d="M560 993 c-73 -7 -227 -35 -271 -49 -26 -8 -55 -24 -65 -35 -17 -19
-17 -24 -1 -107 9 -48 20 -105 23 -127 3 -22 13 -56 22 -75 20 -42 30 -42 197
-11 127 24 156 41 168 97 4 21 19 82 32 135 31 119 31 143 3 163 -22 16 -35
17 -108 9z m10 -115 c0 -14 -38 -160 -42 -163 -16 -12 -177 -41 -178 -32 -1 1
-7 38 -15 82 -8 43 -13 81 -11 82 4 5 196 40 224 42 12 0 22 -5 22 -11z"/>
</g>
</svg>
