<?xml version="1.0" standalone="no"?>
<!DOCTYPE svg PUBLIC "-//W3C//DTD SVG 20010904//EN"
 "http://www.w3.org/TR/2001/REC-SVG-20010904/DTD/svg10.dtd">
<svg version="1.0" xmlns="http://www.w3.org/2000/svg"
 width="248.000000pt" height="248.000000pt" viewBox="0 0 248.000000 248.000000"
 preserveAspectRatio="xMidYMid meet">
<metadata>
Created by potrace 1.10, written by Peter Selinger 2001-2011
</metadata>
<g transform="translate(0.000000,248.000000) scale(0.100000,-0.100000)"
fill="#000000" stroke="none">
<path d="M885 2099 c-60 -4 -186 -17 -280 -29 -93 -11 -214 -25 -268 -30 -109
-10 -147 -26 -147 -64 0 -56 34 -57 405 -11 110 14 224 25 253 25 l52 0 0 -47
c0 -45 -51 -494 -68 -593 l-7 -45 -65 -12 c-36 -7 -189 -33 -340 -58 -151 -25
-283 -48 -293 -51 -23 -7 -40 -40 -32 -64 12 -37 36 -41 146 -20 129 23 371
64 505 85 56 9 168 22 249 29 124 10 150 15 161 31 18 24 18 36 0 61 -13 17
-25 19 -115 16 l-101 -3 0 33 c0 34 29 276 55 458 8 58 15 124 15 148 l0 42
53 0 c63 0 90 16 90 55 0 57 -31 62 -268 44z"/>
<path d="M679 1765 c-3 -2 -57 -9 -120 -15 -133 -11 -342 -52 -364 -70 -19
-16 -19 -54 0 -83 8 -13 19 -59 25 -102 19 -141 41 -175 98 -154 13 5 38 9 55
9 18 0 52 7 76 16 24 8 75 18 114 22 70 7 72 8 94 47 30 53 103 254 103 282 0
32 -61 68 -81 48z m-54 -137 c-4 -13 -17 -48 -29 -78 -21 -53 -22 -55 -68 -61
-25 -4 -71 -14 -101 -23 -91 -26 -92 -26 -106 53 -6 39 -11 74 -11 80 0 16
168 45 288 50 30 1 33 -1 27 -21z"/>
</g>
</svg>
