<?xml version="1.0" standalone="no"?>
<!DOCTYPE svg PUBLIC "-//W3C//DTD SVG 20010904//EN"
 "http://www.w3.org/TR/2001/REC-SVG-20010904/DTD/svg10.dtd">
<svg version="1.0" xmlns="http://www.w3.org/2000/svg"
 width="248.000000pt" height="248.000000pt" viewBox="0 0 248.000000 248.000000"
 preserveAspectRatio="xMidYMid meet">
<metadata>
Created by potrace 1.10, written by Peter Selinger 2001-2011
</metadata>
<g transform="translate(0.000000,248.000000) scale(0.100000,-0.100000)"
fill="#000000" stroke="none">
<path d="M885 2099 c-60 -4 -186 -17 -280 -29 -93 -11 -214 -25 -268 -30 -109
-10 -147 -26 -147 -64 0 -56 34 -57 405 -11 110 14 273 28 363 32 98 4 169 11
178 18 22 16 21 65 -2 82 -20 14 -76 15 -249 2z"/>
<path d="M679 1765 c-3 -2 -57 -9 -120 -15 -133 -11 -342 -52 -364 -70 -19
-16 -19 -54 0 -84 8 -12 20 -60 26 -107 18 -138 49 -181 101 -140 21 17 21 21
10 102 -7 46 -15 100 -18 120 l-6 37 53 11 c63 14 259 35 265 28 5 -5 -26 -95
-56 -160 -20 -45 -21 -50 -5 -73 25 -38 64 -29 92 21 30 53 103 254 103 282 0
32 -61 68 -81 48z"/>
</g>
</svg>
