<?xml version="1.0" standalone="no"?>
<!DOCTYPE svg PUBLIC "-//W3C//DTD SVG 20010904//EN"
 "http://www.w3.org/TR/2001/REC-SVG-20010904/DTD/svg10.dtd">
<svg version="1.0" xmlns="http://www.w3.org/2000/svg"
 width="248.000000pt" height="248.000000pt" viewBox="0 0 248.000000 248.000000"
 preserveAspectRatio="xMidYMid meet">
<metadata>
Created by potrace 1.10, written by Peter Selinger 2001-2011
</metadata>
<g transform="translate(0.000000,248.000000) scale(0.100000,-0.100000)"
fill="#000000" stroke="none">
<path d="M556 2308 c-14 -19 -16 -65 -16 -299 l0 -277 -47 -11 c-27 -6 -97
-20 -157 -31 -119 -22 -136 -31 -136 -65 0 -51 61 -61 190 -31 94 23 103 22
97 -11 -18 -100 -70 -328 -86 -378 -11 -33 -30 -98 -42 -144 -20 -78 -62 -202
-168 -504 -43 -125 -48 -156 -29 -175 14 -14 47 -16 66 -4 19 13 165 423 224
632 83 297 76 327 70 -314 -5 -614 -7 -596 50 -596 54 0 58 26 58 423 0 195 3
476 7 626 l6 273 23 -38 c12 -22 40 -64 63 -94 22 -30 54 -74 71 -98 27 -37
35 -43 63 -40 24 2 34 10 41 29 7 22 2 36 -34 90 -24 35 -53 75 -65 89 -21 24
-69 104 -133 222 -24 42 -28 59 -19 66 11 9 153 43 242 57 58 10 75 22 75 53
0 38 -17 52 -62 52 -33 0 -185 -29 -240 -46 -17 -5 -18 12 -18 258 0 286 -4
308 -55 308 -13 0 -31 -10 -39 -22z"/>
<path d="M1276 2118 c-9 -13 -16 -43 -16 -71 0 -93 -65 -317 -130 -450 -44
-90 -46 -118 -9 -138 33 -17 61 10 111 112 61 124 137 394 138 489 0 45 -24
80 -55 80 -13 0 -31 -10 -39 -22z"/>
</g>
</svg>
