<?xml version="1.0" standalone="no"?>
<!DOCTYPE svg PUBLIC "-//W3C//DTD SVG 20010904//EN"
 "http://www.w3.org/TR/2001/REC-SVG-20010904/DTD/svg10.dtd">
<svg version="1.0" xmlns="http://www.w3.org/2000/svg"
 width="248.000000pt" height="248.000000pt" viewBox="0 0 248.000000 248.000000"
 preserveAspectRatio="xMidYMid meet">
<metadata>
Created by potrace 1.10, written by Peter Selinger 2001-2011
</metadata>
<g transform="translate(0.000000,248.000000) scale(0.100000,-0.100000)"
fill="#000000" stroke="none">
<path d="M556 2308 c-14 -19 -16 -65 -16 -299 l0 -277 -47 -11 c-27 -6 -97
-20 -157 -31 -119 -22 -136 -31 -136 -65 0 -54 49 -60 217 -26 55 12 104 21
108 21 3 0 3 -335 -1 -745 -6 -597 -5 -747 6 -760 7 -8 26 -15 42 -15 55 0 55
-5 62 800 5 552 10 738 19 746 11 11 142 43 242 59 58 10 75 22 75 53 0 38
-17 52 -62 52 -33 0 -185 -29 -240 -46 -17 -5 -18 12 -18 258 0 286 -4 308
-55 308 -13 0 -31 -10 -39 -22z"/>
</g>
</svg>
