<?xml version="1.0" standalone="no"?>
<!DOCTYPE svg PUBLIC "-//W3C//DTD SVG 20010904//EN"
 "http://www.w3.org/TR/2001/REC-SVG-20010904/DTD/svg10.dtd">
<svg version="1.0" xmlns="http://www.w3.org/2000/svg"
 width="248.000000pt" height="248.000000pt" viewBox="0 0 248.000000 248.000000"
 preserveAspectRatio="xMidYMid meet">
<metadata>
Created by potrace 1.10, written by Peter Selinger 2001-2011
</metadata>
<g transform="translate(0.000000,248.000000) scale(0.100000,-0.100000)"
fill="#000000" stroke="none">
<path d="M835 1803 c-11 -2 -92 -22 -180 -44 -88 -21 -220 -50 -294 -64 -74
-14 -140 -30 -148 -36 -18 -16 -16 -54 3 -70 10 -8 35 -13 58 -12 51 2 338 59
386 77 19 7 78 21 130 31 156 29 175 36 178 68 5 42 -13 57 -67 56 -25 -1 -55
-3 -66 -6z"/>
</g>
</svg>
