<?xml version="1.0" standalone="no"?>
<!DOCTYPE svg PUBLIC "-//W3C//DTD SVG 20010904//EN"
 "http://www.w3.org/TR/2001/REC-SVG-20010904/DTD/svg10.dtd">
<svg version="1.0" xmlns="http://www.w3.org/2000/svg"
 width="248.000000pt" height="248.000000pt" viewBox="0 0 248.000000 248.000000"
 preserveAspectRatio="xMidYMid meet">
<metadata>
Created by potrace 1.10, written by Peter Selinger 2001-2011
</metadata>
<g transform="translate(0.000000,248.000000) scale(0.100000,-0.100000)"
fill="#000000" stroke="none">
<path d="M645 2214 c-71 -8 -163 -20 -204 -29 -40 -8 -83 -15 -96 -15 -47 0
-72 -62 -37 -93 23 -21 38 -21 112 -2 52 14 327 45 390 45 23 0 22 -3 -20 -43
-25 -23 -72 -64 -103 -90 -65 -55 -74 -86 -32 -113 30 -19 37 -16 152 78 109
88 163 161 163 217 0 64 -60 72 -325 45z"/>
</g>
</svg>
