<?xml version="1.0" standalone="no"?>
<!DOCTYPE svg PUBLIC "-//W3C//DTD SVG 20010904//EN"
 "http://www.w3.org/TR/2001/REC-SVG-20010904/DTD/svg10.dtd">
<svg version="1.0" xmlns="http://www.w3.org/2000/svg"
 width="248.000000pt" height="248.000000pt" viewBox="0 0 248.000000 248.000000"
 preserveAspectRatio="xMidYMid meet">
<metadata>
Created by potrace 1.10, written by Peter Selinger 2001-2011
</metadata>
<g transform="translate(0.000000,248.000000) scale(0.100000,-0.100000)"
fill="#000000" stroke="none">
<path d="M651 2215 c-118 -13 -275 -38 -353 -57 -43 -10 -63 -38 -51 -71 4
-12 6 -443 5 -957 -3 -1022 -5 -985 53 -985 56 0 55 -19 56 825 1 426 4 847 8
934 l6 160 50 13 c44 11 329 43 386 43 19 0 20 -2 8 -17 -24 -28 -177 -153
-188 -153 -16 0 -51 -38 -51 -55 0 -8 31 -49 69 -89 64 -69 70 -79 80 -139 25
-143 6 -307 -45 -395 l-25 -42 -31 17 c-17 10 -42 33 -55 51 -40 51 -103 41
-103 -17 0 -17 17 -41 53 -76 109 -106 168 -107 238 -4 69 101 100 267 80 419
-16 122 -27 153 -73 211 l-41 52 30 26 c16 14 57 49 90 78 111 95 153 191 101
227 -27 19 -116 19 -297 1z"/>
<path d="M1585 2214 c-49 -8 -146 -18 -215 -24 -69 -6 -135 -12 -147 -15 -45
-10 -54 -73 -13 -95 22 -12 203 1 350 24 54 9 159 16 243 16 l148 0 -6 -57
c-9 -79 -24 -165 -30 -171 -2 -3 -37 -6 -77 -8 -40 -2 -179 -8 -309 -15 -130
-7 -259 -9 -288 -6 -43 5 -55 3 -71 -13 -25 -25 -25 -45 -1 -69 29 -29 105
-34 312 -22 401 23 419 23 419 4 0 -15 -18 -157 -36 -280 l-5 -33 -87 0 c-142
0 -494 -10 -541 -15 -51 -6 -81 -28 -81 -60 0 -45 16 -48 233 -42 111 4 277 6
368 6 216 0 207 -6 224 161 16 147 53 428 60 451 3 9 10 54 15 100 11 94 1
153 -30 169 -27 14 -326 10 -435 -6z"/>
</g>
</svg>
