<?xml version="1.0" standalone="no"?>
<!DOCTYPE svg PUBLIC "-//W3C//DTD SVG 20010904//EN"
 "http://www.w3.org/TR/2001/REC-SVG-20010904/DTD/svg10.dtd">
<svg version="1.0" xmlns="http://www.w3.org/2000/svg"
 width="248.000000pt" height="248.000000pt" viewBox="0 0 248.000000 248.000000"
 preserveAspectRatio="xMidYMid meet">
<metadata>
Created by potrace 1.10, written by Peter Selinger 2001-2011
</metadata>
<g transform="translate(0.000000,248.000000) scale(0.100000,-0.100000)"
fill="#000000" stroke="none">
<path d="M797 2263 c-30 -37 -48 -55 -325 -318 -133 -126 -245 -240 -248 -252
-9 -35 0 -48 53 -77 73 -42 265 -128 296 -133 33 -6 57 11 57 43 0 34 -27 54
-142 103 -57 25 -108 48 -115 53 -7 6 38 56 140 156 341 329 377 367 377 399
0 57 -54 73 -93 26z"/>
</g>
</svg>
