<?xml version="1.0" standalone="no"?>
<!DOCTYPE svg PUBLIC "-//W3C//DTD SVG 20010904//EN"
 "http://www.w3.org/TR/2001/REC-SVG-20010904/DTD/svg10.dtd">
<svg version="1.0" xmlns="http://www.w3.org/2000/svg"
 width="248.000000pt" height="248.000000pt" viewBox="0 0 248.000000 248.000000"
 preserveAspectRatio="xMidYMid meet">
<metadata>
Created by potrace 1.10, written by Peter Selinger 2001-2011
</metadata>
<g transform="translate(0.000000,248.000000) scale(0.100000,-0.100000)"
fill="#000000" stroke="none">
<path d="M1435 2285 c-82 -7 -204 -20 -270 -28 -66 -9 -160 -21 -210 -28 -49
-6 -135 -14 -191 -18 -62 -4 -107 -11 -118 -20 -15 -12 -16 -76 -16 -723 0
-753 2 -786 46 -815 30 -19 95 -16 724 37 69 6 189 11 267 11 115 1 145 4 155
17 14 16 15 54 38 1002 8 357 8 513 1 533 -6 15 -22 32 -36 37 -34 13 -201 11
-390 -5z m322 -296 c-3 -111 -8 -203 -11 -206 -3 -3 -60 -9 -128 -14 -68 -4
-163 -13 -213 -19 -49 -5 -157 -17 -240 -26 -82 -9 -210 -25 -283 -35 -73 -10
-135 -19 -138 -19 -2 0 -4 96 -4 213 l0 213 128 17 c70 9 183 24 252 33 174
23 405 41 534 43 l109 1 -6 -201z m-7 -446 c0 -71 -3 -152 -6 -180 -7 -52 -7
-53 -40 -53 -18 0 -66 -4 -106 -9 -40 -5 -122 -15 -183 -21 -185 -18 -284 -30
-422 -51 -72 -10 -159 -19 -192 -19 l-61 0 0 174 c0 158 2 175 18 180 71 22
758 97 955 105 l37 1 0 -127z m-14 -404 c-3 -34 -6 -122 -6 -195 l0 -134 -92
0 c-50 0 -142 -5 -202 -10 -138 -13 -503 -41 -613 -47 l-83 -5 0 176 0 176 44
0 c24 0 135 13 247 29 112 16 265 34 339 41 74 7 158 16 185 20 28 4 81 8 119
9 l69 1 -7 -61z"/>
<path d="M856 598 c-9 -12 -16 -29 -16 -37 0 -46 -141 -196 -357 -380 -65 -54
-75 -78 -47 -105 38 -38 79 -12 289 181 170 156 242 269 213 331 -18 36 -60
42 -82 10z"/>
<path d="M1542 558 c-17 -17 -15 -54 4 -73 35 -35 198 -155 351 -260 48 -33
125 -88 171 -122 94 -71 134 -81 154 -39 6 14 8 32 5 40 -7 16 -128 108 -323
243 -66 46 -159 114 -209 152 -90 70 -128 84 -153 59z"/>
</g>
</svg>
