<?xml version="1.0" standalone="no"?>
<!DOCTYPE svg PUBLIC "-//W3C//DTD SVG 20010904//EN"
 "http://www.w3.org/TR/2001/REC-SVG-20010904/DTD/svg10.dtd">
<svg version="1.0" xmlns="http://www.w3.org/2000/svg"
 width="248.000000pt" height="248.000000pt" viewBox="0 0 248.000000 248.000000"
 preserveAspectRatio="xMidYMid meet">
<metadata>
Created by potrace 1.10, written by Peter Selinger 2001-2011
</metadata>
<g transform="translate(0.000000,248.000000) scale(0.100000,-0.100000)"
fill="#000000" stroke="none">
<path d="M1435 2285 c-82 -7 -204 -20 -270 -28 -66 -9 -160 -21 -210 -28 -49
-6 -135 -14 -191 -18 -62 -4 -107 -11 -118 -20 -15 -12 -16 -76 -16 -730 0
-555 3 -722 13 -741 17 -34 60 -39 81 -8 14 20 16 73 16 435 0 383 1 412 18
417 23 7 283 42 410 55 56 6 146 16 200 21 95 11 328 29 366 30 18 0 19 -8 13
-202 -4 -112 -10 -318 -13 -458 -6 -279 -2 -302 47 -308 50 -6 53 11 60 272
25 937 30 1253 20 1279 -6 15 -22 32 -36 37 -34 13 -200 11 -390 -5z m322
-296 c-3 -111 -8 -203 -11 -206 -3 -3 -60 -9 -128 -14 -68 -4 -163 -13 -213
-19 -49 -5 -157 -17 -240 -26 -82 -9 -210 -25 -283 -35 -73 -10 -135 -19 -138
-19 -2 0 -4 96 -4 213 l0 213 128 17 c70 9 183 24 252 33 174 23 405 41 534
43 l109 1 -6 -201z"/>
</g>
</svg>
