<?xml version="1.0" standalone="no"?>
<!DOCTYPE svg PUBLIC "-//W3C//DTD SVG 20010904//EN"
 "http://www.w3.org/TR/2001/REC-SVG-20010904/DTD/svg10.dtd">
<svg version="1.0" xmlns="http://www.w3.org/2000/svg"
 width="248.000000pt" height="248.000000pt" viewBox="0 0 248.000000 248.000000"
 preserveAspectRatio="xMidYMid meet">
<metadata>
Created by potrace 1.10, written by Peter Selinger 2001-2011
</metadata>
<g transform="translate(0.000000,248.000000) scale(0.100000,-0.100000)"
fill="#000000" stroke="none">
<path d="M797 2263 c-30 -37 -48 -55 -325 -318 -133 -126 -245 -240 -248 -252
-4 -13 -4 -29 -1 -37 7 -17 89 -63 210 -116 53 -23 97 -48 97 -54 0 -7 -36
-52 -81 -102 -126 -139 -239 -282 -239 -301 1 -60 44 -67 196 -33 71 15 137
31 147 35 16 7 17 -7 18 -196 5 -737 4 -713 58 -707 54 6 56 22 56 498 l0 434
75 17 c41 10 95 20 120 24 l45 6 44 -66 c61 -92 93 -112 125 -79 25 24 19 55
-20 109 -19 28 -58 91 -86 140 -59 105 -93 145 -123 145 -50 0 -59 -50 -20
-108 30 -44 37 -40 -115 -73 -141 -30 -203 -44 -277 -62 -35 -8 -63 -13 -63
-11 0 5 190 222 317 362 166 183 215 247 211 278 -4 33 -27 49 -59 40 -13 -4
-55 -44 -92 -89 -118 -142 -156 -180 -170 -169 -6 5 -57 29 -112 53 -55 23
-105 47 -112 51 -7 6 38 57 140 156 341 329 377 367 377 399 0 57 -54 73 -93
26z"/>
<path d="M1537 2123 c-13 -21 -37 -60 -52 -88 -80 -140 -263 -396 -372 -521
-73 -83 -87 -116 -61 -142 26 -26 59 -13 115 46 31 31 65 71 78 87 12 17 54
74 94 128 72 98 247 359 253 379 7 19 44 -9 100 -75 171 -202 373 -376 549
-475 66 -37 92 -40 112 -11 30 41 15 57 -126 140 -83 48 -268 210 -378 330
-231 252 -266 275 -312 202z"/>
<path d="M368 803 c-8 -10 -29 -54 -46 -99 -16 -44 -58 -142 -92 -217 -46
-100 -61 -143 -56 -162 8 -30 49 -44 73 -24 36 30 203 418 203 472 0 45 -52
64 -82 30z"/>
<path d="M782 808 c-27 -27 -12 -58 78 -155 158 -171 155 -169 187 -157 22 7
29 17 31 41 3 28 -9 45 -108 152 -61 65 -118 122 -126 125 -25 9 -49 7 -62 -6z"/>
</g>
</svg>
