<?xml version="1.0" standalone="no"?>
<!DOCTYPE svg PUBLIC "-//W3C//DTD SVG 20010904//EN"
 "http://www.w3.org/TR/2001/REC-SVG-20010904/DTD/svg10.dtd">
<svg version="1.0" xmlns="http://www.w3.org/2000/svg"
 width="248.000000pt" height="248.000000pt" viewBox="0 0 248.000000 248.000000"
 preserveAspectRatio="xMidYMid meet">
<metadata>
Created by potrace 1.10, written by Peter Selinger 2001-2011
</metadata>
<g transform="translate(0.000000,248.000000) scale(0.100000,-0.100000)"
fill="#000000" stroke="none">
<path d="M1188 2288 c-28 -48 -34 -58 -82 -130 -216 -321 -522 -631 -826 -838
-51 -35 -60 -45 -60 -71 0 -22 6 -32 26 -41 22 -10 32 -9 68 11 130 75 426
330 585 504 88 96 267 330 294 383 30 59 41 60 88 7 98 -112 364 -361 489
-459 131 -103 350 -239 498 -311 70 -33 74 -34 98 -18 18 12 24 23 22 43 -2
22 -17 35 -83 71 -217 119 -350 202 -450 280 -154 120 -348 301 -465 434 -55
61 -108 122 -119 135 -11 12 -32 22 -45 22 -16 0 -30 -9 -38 -22z"/>
</g>
</svg>
