<?xml version="1.0" standalone="no"?>
<!DOCTYPE svg PUBLIC "-//W3C//DTD SVG 20010904//EN"
 "http://www.w3.org/TR/2001/REC-SVG-20010904/DTD/svg10.dtd">
<svg version="1.0" xmlns="http://www.w3.org/2000/svg"
 width="248.000000pt" height="248.000000pt" viewBox="0 0 248.000000 248.000000"
 preserveAspectRatio="xMidYMid meet">
<metadata>
Created by potrace 1.10, written by Peter Selinger 2001-2011
</metadata>
<g transform="translate(0.000000,248.000000) scale(0.100000,-0.100000)"
fill="#000000" stroke="none">
<path d="M461 2027 c-6 -9 -12 -84 -13 -202 l-3 -189 -65 -12 c-36 -7 -85 -13
-110 -13 -58 -1 -92 -24 -88 -59 5 -45 46 -57 142 -43 45 7 89 15 100 18 17 5
18 -5 15 -244 -4 -273 -2 -287 50 -281 46 5 52 37 59 301 l7 242 111 20 c118
21 144 34 144 69 0 46 -38 56 -137 37 -26 -5 -62 -12 -80 -15 l-31 -5 -4 173
c-3 154 -5 176 -22 195 -22 24 -58 28 -75 8z"/>
</g>
</svg>
