<?xml version="1.0" standalone="no"?>
<!DOCTYPE svg PUBLIC "-//W3C//DTD SVG 20010904//EN"
 "http://www.w3.org/TR/2001/REC-SVG-20010904/DTD/svg10.dtd">
<svg version="1.0" xmlns="http://www.w3.org/2000/svg"
 width="248.000000pt" height="248.000000pt" viewBox="0 0 248.000000 248.000000"
 preserveAspectRatio="xMidYMid meet">
<metadata>
Created by potrace 1.10, written by Peter Selinger 2001-2011
</metadata>
<g transform="translate(0.000000,248.000000) scale(0.100000,-0.100000)"
fill="#000000" stroke="none">
<path d="M437 2303 c-21 -5 -39 -46 -31 -68 9 -22 119 -97 212 -144 80 -40 85
-41 108 -26 28 18 32 55 7 78 -10 8 -44 27 -76 41 -32 14 -85 46 -119 71 -66
51 -74 55 -101 48z"/>
<path d="M1227 2278 c-9 -7 -35 -58 -58 -113 -63 -155 -175 -345 -296 -504
-50 -66 -40 -128 19 -119 49 7 263 341 361 564 59 132 62 155 26 174 -23 13
-32 13 -52 -2z"/>
<path d="M123 1639 c-20 -20 -15 -57 10 -73 24 -15 71 -30 220 -71 95 -27 98
-27 118 -9 25 23 21 52 -11 75 -26 19 -228 79 -290 86 -20 3 -40 -1 -47 -8z"/>
<path d="M538 873 c-9 -10 -55 -88 -103 -173 -96 -170 -157 -270 -192 -313
-52 -65 -6 -125 62 -81 13 9 51 59 83 112 96 157 242 416 242 429 0 38 -65 56
-92 26z"/>
</g>
</svg>
