<?xml version="1.0" standalone="no"?>
<!DOCTYPE svg PUBLIC "-//W3C//DTD SVG 20010904//EN"
 "http://www.w3.org/TR/2001/REC-SVG-20010904/DTD/svg10.dtd">
<svg version="1.0" xmlns="http://www.w3.org/2000/svg"
 width="248.000000pt" height="248.000000pt" viewBox="0 0 248.000000 248.000000"
 preserveAspectRatio="xMidYMid meet">
<metadata>
Created by potrace 1.10, written by Peter Selinger 2001-2011
</metadata>
<g transform="translate(0.000000,248.000000) scale(0.100000,-0.100000)"
fill="#000000" stroke="none">
<path d="M1556 2338 c-66 -5 -131 -14 -145 -21 -32 -15 -38 -48 -18 -90 13
-27 16 -89 15 -360 0 -180 -3 -341 -8 -356 -5 -18 -4 -37 4 -52 12 -24 13 -24
156 -21 191 3 379 12 411 18 15 3 30 -1 36 -8 15 -21 33 -295 40 -653 12 -508
11 -549 -8 -553 -9 -2 -62 22 -116 52 -100 56 -138 67 -161 44 -17 -17 -15
-53 6 -70 9 -8 60 -39 112 -68 139 -78 230 -81 260 -9 9 20 10 122 5 376 -7
370 -22 805 -31 863 -11 72 -12 716 -2 802 16 126 29 119 -226 117 -116 -2
-265 -7 -330 -11z m451 -229 l2 -147 -37 -6 c-20 -3 -107 -10 -192 -16 -85 -6
-181 -14 -213 -19 -31 -4 -59 -5 -62 -3 -3 3 -5 74 -5 158 0 151 0 154 23 159
33 8 310 23 402 21 l80 -1 2 -146z m2 -405 c0 -104 -3 -146 -12 -149 -7 -2
-66 -6 -132 -9 -66 -4 -171 -9 -234 -13 -91 -5 -115 -3 -122 8 -5 8 -9 69 -9
137 0 122 0 123 25 132 36 14 458 51 477 43 4 -2 7 -69 7 -149z"/>
<path d="M873 2290 c-23 -5 -102 -14 -175 -19 -73 -6 -178 -18 -233 -26 -129
-19 -140 -30 -131 -130 4 -38 9 -86 13 -105 12 -67 8 -991 -4 -1140 -7 -80
-17 -217 -23 -305 -6 -88 -15 -194 -21 -236 -13 -100 -3 -129 45 -129 19 0 38
5 42 12 8 12 16 105 34 373 5 83 14 218 20 300 5 83 11 219 12 302 1 84 4 156
7 161 5 7 218 46 371 68 25 3 55 12 67 20 47 29 49 41 78 404 20 254 28 322
41 366 22 73 10 94 -54 93 -26 -1 -66 -5 -89 -9z m27 -142 c0 -67 -20 -222
-29 -231 -5 -5 -42 -13 -82 -18 -115 -13 -159 -20 -234 -35 -105 -21 -102 -22
-108 44 -4 31 -7 95 -8 142 l-2 84 29 8 c25 6 231 30 359 41 22 2 48 4 58 5
14 2 17 -6 17 -40z m-35 -447 c-10 -151 -16 -174 -45 -183 -38 -10 -301 -51
-335 -52 l-30 -1 -2 126 c-1 69 2 130 6 137 10 16 99 37 237 57 65 10 121 19
123 21 2 2 15 4 29 4 l24 0 -7 -109z"/>
<path d="M1445 1244 c-122 -20 -455 -53 -477 -49 -61 14 -105 -55 -58 -88 25
-17 134 -14 305 8 61 8 146 17 190 21 90 7 125 23 125 58 0 35 -38 57 -85 50z"/>
<path d="M1660 906 c-17 -9 -87 -16 -210 -20 -255 -9 -706 -72 -742 -104 -21
-17 -23 -53 -6 -70 17 -17 56 -15 183 8 243 45 391 61 688 75 115 5 161 20
172 55 6 20 -10 60 -25 60 -4 0 -14 2 -22 5 -7 2 -24 -2 -38 -9z"/>
</g>
</svg>
