<?xml version="1.0" standalone="no"?>
<!DOCTYPE svg PUBLIC "-//W3C//DTD SVG 20010904//EN"
 "http://www.w3.org/TR/2001/REC-SVG-20010904/DTD/svg10.dtd">
<svg version="1.0" xmlns="http://www.w3.org/2000/svg"
 width="248.000000pt" height="248.000000pt" viewBox="0 0 248.000000 248.000000"
 preserveAspectRatio="xMidYMid meet">
<metadata>
Created by potrace 1.10, written by Peter Selinger 2001-2011
</metadata>
<g transform="translate(0.000000,248.000000) scale(0.100000,-0.100000)"
fill="#000000" stroke="none">
<path d="M358 2135 c-115 -113 -208 -211 -208 -218 0 -25 37 -50 64 -43 26 6
350 305 360 331 3 8 20 16 38 19 48 8 308 15 308 9 0 -14 -155 -193 -202 -233
-137 -117 -145 -122 -227 -131 -101 -13 -173 -34 -196 -59 -18 -20 -19 -16 5
-155 12 -69 12 -395 0 -605 -14 -248 -68 -659 -96 -737 -21 -57 -15 -85 18
-97 38 -13 70 18 86 81 14 57 56 354 72 503 6 58 13 119 16 136 l4 31 145 32
c138 30 382 58 394 45 7 -7 27 -308 37 -565 5 -134 4 -188 -4 -193 -6 -4 -35
11 -63 34 -59 47 -82 50 -105 14 -16 -24 -16 -27 3 -52 30 -41 182 -152 208
-152 45 0 50 20 53 234 2 118 -3 309 -13 461 -17 268 -16 392 6 848 9 180 9
220 -2 234 -12 14 -31 15 -148 9 l-135 -7 60 64 c111 120 237 272 247 301 5
11 1 29 -9 43 -15 24 -18 25 -102 19 -139 -9 -344 -11 -377 -3 -29 7 -39 -2
-237 -198z m606 -447 c-3 -73 -10 -138 -15 -143 -7 -10 -134 -32 -219 -38
l-35 -2 -3 132 c-3 159 -3 159 105 168 43 4 83 8 88 10 6 2 27 4 48 4 l38 1
-7 -132z m-366 -52 c1 -77 -1 -143 -6 -148 -11 -11 -162 -37 -179 -31 -10 4
-13 36 -13 127 0 66 -3 131 -6 143 -7 25 2 29 106 42 103 14 95 24 98 -133z
m350 -340 c-2 -74 -5 -137 -8 -139 -9 -9 -245 -26 -253 -18 -5 5 -5 64 0 132
l8 124 40 7 c71 13 159 25 188 27 l29 1 -4 -134z m-360 -48 l-3 -133 -65 -17
c-36 -9 -78 -16 -93 -17 l-28 -1 3 138 3 137 75 7 c41 5 79 10 85 12 5 3 14 5
18 5 4 1 6 -59 5 -131z"/>
<path d="M1835 2289 c-384 -30 -502 -41 -525 -52 -30 -14 -39 -57 -16 -77 13
-10 44 -10 166 0 83 7 153 10 157 7 19 -19 -125 -286 -229 -424 -32 -43 -58
-86 -58 -95 0 -10 12 -25 26 -34 24 -16 27 -16 52 3 67 49 235 320 297 477 37
96 22 90 267 101 l156 7 -19 -78 c-10 -44 -26 -108 -33 -144 -18 -80 -46 -162
-75 -218 l-22 -43 -51 41 c-52 41 -84 50 -106 28 -26 -26 -12 -56 58 -122 107
-100 147 -89 215 57 40 88 62 157 109 353 39 162 42 194 24 212 -14 14 -217
14 -393 1z"/>
<path d="M1431 1496 c-6 -7 -20 -39 -31 -70 -19 -57 -114 -219 -195 -334 -51
-72 -55 -95 -21 -117 30 -20 57 -9 84 33 23 36 119 174 132 190 7 7 36 12 78
12 63 0 468 48 574 68 60 12 80 28 76 61 -5 42 -40 52 -123 35 -84 -17 -453
-64 -501 -64 -19 0 -34 3 -34 8 0 4 9 31 20 60 23 59 26 102 8 120 -16 16 -53
15 -67 -2z"/>
</g>
</svg>
