<?xml version="1.0" standalone="no"?>
<!DOCTYPE svg PUBLIC "-//W3C//DTD SVG 20010904//EN"
 "http://www.w3.org/TR/2001/REC-SVG-20010904/DTD/svg10.dtd">
<svg version="1.0" xmlns="http://www.w3.org/2000/svg"
 width="248.000000pt" height="248.000000pt" viewBox="0 0 248.000000 248.000000"
 preserveAspectRatio="xMidYMid meet">
<metadata>
Created by potrace 1.10, written by Peter Selinger 2001-2011
</metadata>
<g transform="translate(0.000000,248.000000) scale(0.100000,-0.100000)"
fill="#000000" stroke="none">
<path d="M340 2175 c-10 -12 -10 -32 -3 -88 6 -39 12 -128 14 -197 8 -257 3
-880 -9 -1020 -6 -80 -16 -217 -22 -305 -6 -88 -15 -194 -21 -236 -13 -100 -3
-129 45 -129 19 0 38 5 42 12 8 12 16 105 34 373 5 83 14 218 20 300 12 173
13 913 1 1120 -4 77 -13 150 -20 163 -14 26 -62 30 -81 7z"/>
</g>
</svg>
