<?xml version="1.0" standalone="no"?>
<!DOCTYPE svg PUBLIC "-//W3C//DTD SVG 20010904//EN"
 "http://www.w3.org/TR/2001/REC-SVG-20010904/DTD/svg10.dtd">
<svg version="1.0" xmlns="http://www.w3.org/2000/svg"
 width="248.000000pt" height="248.000000pt" viewBox="0 0 248.000000 248.000000"
 preserveAspectRatio="xMidYMid meet">
<metadata>
Created by potrace 1.10, written by Peter Selinger 2001-2011
</metadata>
<g transform="translate(0.000000,248.000000) scale(0.100000,-0.100000)"
fill="#000000" stroke="none">
<path d="M358 2135 c-115 -113 -208 -211 -208 -218 0 -25 37 -50 64 -43 26 6
350 305 360 331 3 8 20 16 38 19 48 8 308 15 308 9 0 -14 -155 -193 -202 -233
-137 -117 -145 -122 -227 -131 -101 -13 -173 -34 -196 -59 -18 -20 -19 -16 5
-155 12 -69 12 -395 0 -605 -14 -248 -68 -659 -96 -737 -21 -57 -15 -85 18
-97 39 -14 71 19 87 87 43 195 83 556 90 812 l6 240 69 7 c38 4 80 9 94 13
l25 6 -5 -161 c-5 -161 -4 -162 19 -177 21 -14 25 -14 47 0 22 15 23 22 30
179 4 90 11 166 15 170 4 5 41 12 81 18 41 5 96 12 123 16 l47 7 0 -259 c0
-143 7 -353 15 -469 17 -244 19 -411 5 -420 -5 -3 -33 12 -61 35 -59 47 -82
50 -105 14 -16 -24 -16 -27 3 -52 30 -41 182 -152 208 -152 45 0 50 20 53 234
2 118 -3 309 -13 461 -17 268 -16 392 6 848 9 180 9 220 -2 234 -12 14 -31 15
-148 9 l-135 -7 60 64 c111 120 237 272 247 301 5 11 1 29 -9 43 -15 24 -18
25 -102 19 -139 -9 -344 -11 -377 -3 -29 7 -39 -2 -237 -198z m606 -447 c-3
-73 -10 -138 -15 -143 -7 -10 -134 -32 -219 -38 l-35 -2 -3 132 c-3 159 -3
159 105 168 43 4 83 8 88 10 6 2 27 4 48 4 l38 1 -7 -132z m-366 -52 c1 -77
-1 -143 -6 -148 -11 -11 -162 -37 -179 -31 -10 4 -13 36 -13 127 0 66 -3 131
-6 143 -7 25 2 29 106 42 103 14 95 24 98 -133z"/>
</g>
</svg>
