<?xml version="1.0" standalone="no"?>
<!DOCTYPE svg PUBLIC "-//W3C//DTD SVG 20010904//EN"
 "http://www.w3.org/TR/2001/REC-SVG-20010904/DTD/svg10.dtd">
<svg version="1.0" xmlns="http://www.w3.org/2000/svg"
 width="248.000000pt" height="248.000000pt" viewBox="0 0 248.000000 248.000000"
 preserveAspectRatio="xMidYMid meet">
<metadata>
Created by potrace 1.10, written by Peter Selinger 2001-2011
</metadata>
<g transform="translate(0.000000,248.000000) scale(0.100000,-0.100000)"
fill="#000000" stroke="none">
<path d="M1543 2348 c-19 -25 -20 -44 -7 -133 7 -50 14 -111 14 -136 l0 -46
-87 -16 c-49 -9 -137 -23 -198 -32 -116 -17 -145 -32 -145 -70 0 -43 22 -49
128 -37 53 6 141 19 194 29 54 9 99 15 100 13 2 -3 2 -39 0 -81 l-3 -76 -47
-7 c-26 -4 -98 -13 -160 -21 -62 -8 -116 -16 -120 -18 -4 -3 -29 -8 -57 -11
-149 -20 -179 -26 -186 -38 -12 -18 -11 -30 6 -123 8 -44 15 -111 15 -150 0
-38 6 -81 13 -95 17 -34 60 -39 81 -8 19 27 20 67 4 194 -13 109 -11 114 55
114 21 0 67 7 103 16 36 9 68 14 71 10 4 -4 9 -62 11 -129 2 -67 9 -128 14
-134 16 -19 53 -16 73 7 24 27 31 147 12 217 l-14 52 61 10 c119 20 441 59
550 68 l89 6 -6 -49 c-3 -27 -11 -92 -18 -146 -14 -107 -8 -128 37 -128 43 0
58 44 84 243 16 120 9 154 -38 174 -32 14 -53 14 -167 4 -71 -7 -157 -16 -190
-21 -33 -5 -84 -12 -112 -15 l-53 -6 0 73 c0 40 4 78 8 84 9 14 77 29 217 50
116 16 145 30 145 69 0 44 -21 50 -136 36 -57 -7 -131 -18 -163 -25 l-59 -12
-17 130 c-9 72 -23 141 -31 154 -16 24 -56 30 -71 10z"/>
<path d="M461 2027 c-6 -9 -12 -84 -13 -202 l-3 -189 -65 -12 c-36 -7 -85 -13
-110 -13 -58 -1 -92 -24 -88 -59 5 -45 46 -57 142 -43 45 7 89 14 99 17 18 6
19 -6 15 -254 l-3 -260 -30 -16 c-16 -8 -75 -36 -130 -61 -55 -25 -111 -51
-125 -58 -28 -14 -38 -51 -19 -74 31 -37 137 2 411 151 207 111 245 147 211
195 -19 27 -49 26 -87 -2 -17 -13 -52 -36 -78 -51 l-46 -27 5 228 c2 125 6
233 8 239 2 6 52 19 112 28 112 19 143 34 143 71 0 45 -39 55 -137 36 -26 -5
-62 -12 -80 -15 l-31 -5 -4 173 c-3 154 -5 176 -22 195 -22 24 -58 28 -75 8z"/>
</g>
</svg>
