<?xml version="1.0" standalone="no"?>
<!DOCTYPE svg PUBLIC "-//W3C//DTD SVG 20010904//EN"
 "http://www.w3.org/TR/2001/REC-SVG-20010904/DTD/svg10.dtd">
<svg version="1.0" xmlns="http://www.w3.org/2000/svg"
 width="248.000000pt" height="248.000000pt" viewBox="0 0 248.000000 248.000000"
 preserveAspectRatio="xMidYMid meet">
<metadata>
Created by potrace 1.10, written by Peter Selinger 2001-2011
</metadata>
<g transform="translate(0.000000,248.000000) scale(0.100000,-0.100000)"
fill="#000000" stroke="none">
<path d="M1183 2263 c-19 -21 -55 -69 -80 -108 -204 -308 -519 -629 -823 -835
-51 -35 -60 -45 -60 -71 0 -22 6 -32 26 -41 31 -14 67 3 169 81 326 247 590
522 777 811 20 30 50 70 67 89 35 39 39 70 13 94 -28 26 -51 20 -89 -20z"/>
</g>
</svg>
