<?xml version="1.0" standalone="no"?>
<!DOCTYPE svg PUBLIC "-//W3C//DTD SVG 20010904//EN"
 "http://www.w3.org/TR/2001/REC-SVG-20010904/DTD/svg10.dtd">
<svg version="1.0" xmlns="http://www.w3.org/2000/svg"
 width="248.000000pt" height="248.000000pt" viewBox="0 0 248.000000 248.000000"
 preserveAspectRatio="xMidYMid meet">
<metadata>
Created by potrace 1.10, written by Peter Selinger 2001-2011
</metadata>
<g transform="translate(0.000000,248.000000) scale(0.100000,-0.100000)"
fill="#000000" stroke="none">
<path d="M1870 2310 c-98 -10 -457 -50 -540 -60 -59 -7 -124 -15 -355 -40 -44
-5 -138 -14 -210 -21 -75 -6 -139 -17 -153 -25 -30 -19 -29 -59 2 -79 26 -17
84 -16 236 5 36 5 115 14 175 20 132 13 250 26 405 46 202 25 382 43 485 50
127 8 165 23 165 61 0 16 -5 34 -12 41 -13 13 -80 14 -198 2z"/>
</g>
</svg>
