<?xml version="1.0" standalone="no"?>
<!DOCTYPE svg PUBLIC "-//W3C//DTD SVG 20010904//EN"
 "http://www.w3.org/TR/2001/REC-SVG-20010904/DTD/svg10.dtd">
<svg version="1.0" xmlns="http://www.w3.org/2000/svg"
 width="248.000000pt" height="248.000000pt" viewBox="0 0 248.000000 248.000000"
 preserveAspectRatio="xMidYMid meet">
<metadata>
Created by potrace 1.10, written by Peter Selinger 2001-2011
</metadata>
<g transform="translate(0.000000,248.000000) scale(0.100000,-0.100000)"
fill="#000000" stroke="none">
<path d="M1543 2348 c-19 -25 -20 -44 -7 -133 7 -50 14 -111 14 -136 l0 -46
-87 -16 c-49 -9 -137 -23 -198 -32 -66 -10 -117 -23 -127 -32 -22 -20 -23 -56
-3 -73 18 -15 123 -7 270 21 151 29 141 33 137 -63 -3 -96 10 -131 50 -136 43
-5 58 28 58 133 0 49 4 95 8 101 9 14 77 29 217 50 116 16 145 30 145 69 0 44
-21 50 -136 36 -57 -7 -131 -18 -163 -25 l-59 -12 -17 130 c-9 72 -23 141 -31
154 -16 24 -56 30 -71 10z"/>
<path d="M461 2027 c-6 -9 -12 -84 -13 -202 l-3 -189 -65 -12 c-36 -7 -85 -13
-110 -13 -58 -1 -92 -24 -88 -59 5 -45 46 -57 142 -43 45 7 89 14 99 17 18 6
19 -6 15 -254 l-3 -260 -30 -16 c-16 -8 -75 -36 -130 -61 -55 -25 -111 -51
-125 -58 -28 -14 -38 -51 -19 -74 31 -37 137 2 411 151 207 111 245 147 211
195 -19 27 -49 26 -87 -2 -17 -13 -52 -36 -78 -51 l-46 -27 5 228 c2 125 6
233 8 239 2 6 52 19 112 28 112 19 143 34 143 71 0 45 -39 55 -137 36 -26 -5
-62 -12 -80 -15 l-31 -5 -4 173 c-3 154 -5 176 -22 195 -22 24 -58 28 -75 8z"/>
</g>
</svg>
