<?xml version="1.0" standalone="no"?>
<!DOCTYPE svg PUBLIC "-//W3C//DTD SVG 20010904//EN"
 "http://www.w3.org/TR/2001/REC-SVG-20010904/DTD/svg10.dtd">
<svg version="1.0" xmlns="http://www.w3.org/2000/svg"
 width="248.000000pt" height="248.000000pt" viewBox="0 0 248.000000 248.000000"
 preserveAspectRatio="xMidYMid meet">
<metadata>
Created by potrace 1.10, written by Peter Selinger 2001-2011
</metadata>
<g transform="translate(0.000000,248.000000) scale(0.100000,-0.100000)"
fill="#000000" stroke="none">
<path d="M1543 2348 c-19 -25 -20 -44 -7 -133 7 -50 14 -111 14 -136 l0 -46
-87 -16 c-49 -9 -137 -23 -198 -32 -116 -17 -145 -32 -145 -70 0 -43 22 -49
128 -37 53 6 141 19 194 29 54 9 99 15 100 13 2 -3 2 -39 0 -81 l-3 -76 -47
-7 c-26 -4 -98 -13 -160 -21 -62 -8 -116 -16 -120 -18 -4 -3 -29 -8 -57 -11
-214 -29 -210 -25 -184 -136 6 -25 14 -95 18 -157 5 -70 13 -118 21 -128 15
-19 57 -17 235 10 50 7 120 16 158 20 l67 7 0 -90 c0 -100 -1 -102 -71 -102
-21 0 -83 -6 -137 -14 -53 -8 -160 -20 -237 -27 -156 -13 -188 -25 -183 -67 4
-36 41 -54 98 -48 25 3 97 10 160 16 63 6 123 13 133 16 31 10 18 -14 -45 -86
-244 -276 -420 -433 -563 -505 -49 -25 -61 -35 -63 -58 -8 -64 37 -73 130 -24
112 59 230 153 363 289 186 190 272 294 291 351 8 26 21 47 28 47 7 0 98 11
202 25 104 13 279 29 389 35 243 13 341 24 361 41 22 18 13 61 -16 76 -15 8
-43 11 -70 8 -25 -3 -130 -9 -235 -15 -170 -9 -295 -21 -392 -36 l-33 -5 0 89
0 89 98 11 c53 6 174 16 267 22 94 6 180 15 192 20 28 12 47 75 69 231 20 153
15 185 -34 206 -32 14 -53 14 -167 4 -71 -7 -157 -16 -190 -21 -33 -5 -84 -12
-112 -15 l-53 -6 0 73 c0 40 4 78 8 84 9 14 77 29 217 50 116 16 145 30 145
69 0 44 -21 50 -136 36 -57 -7 -131 -18 -163 -25 l-59 -12 -17 130 c-9 72 -23
141 -31 154 -16 24 -56 30 -71 10z m567 -655 c0 -37 -28 -204 -35 -211 -6 -6
-182 -21 -259 -21 -45 -1 -48 0 -42 22 3 12 11 63 18 112 6 50 13 92 16 95 5
7 184 27 250 29 50 1 52 0 52 -26z m-424 -80 c-3 -38 -9 -91 -12 -119 l-6 -52
-101 -7 c-55 -4 -106 -9 -114 -12 -10 -4 -13 9 -13 54 0 32 -6 82 -13 110
l-14 52 66 10 c135 22 176 29 195 30 17 1 18 -5 12 -66z m-362 -20 c9 -59 7
-171 -4 -178 -10 -6 -213 -35 -217 -31 -1 1 -8 46 -14 100 -13 112 -11 115 56
116 22 0 63 7 90 14 77 22 82 21 89 -21z"/>
<path d="M461 2027 c-6 -9 -12 -84 -13 -202 l-3 -189 -65 -12 c-36 -7 -85 -13
-110 -13 -58 -1 -92 -24 -88 -59 5 -45 46 -57 142 -43 45 7 89 14 99 17 18 6
19 -6 15 -254 l-3 -260 -30 -16 c-16 -8 -75 -36 -130 -61 -55 -25 -111 -51
-125 -58 -28 -14 -38 -51 -19 -74 31 -37 137 2 411 151 207 111 245 147 211
195 -19 27 -49 26 -87 -2 -17 -13 -52 -36 -78 -51 l-46 -27 5 228 c2 125 6
233 8 239 2 6 52 19 112 28 112 19 143 34 143 71 0 45 -39 55 -137 36 -26 -5
-62 -12 -80 -15 l-31 -5 -4 173 c-3 154 -5 176 -22 195 -22 24 -58 28 -75 8z"/>
</g>
</svg>
