<?xml version="1.0" standalone="no"?>
<!DOCTYPE svg PUBLIC "-//W3C//DTD SVG 20010904//EN"
 "http://www.w3.org/TR/2001/REC-SVG-20010904/DTD/svg10.dtd">
<svg version="1.0" xmlns="http://www.w3.org/2000/svg"
 width="248.000000pt" height="248.000000pt" viewBox="0 0 248.000000 248.000000"
 preserveAspectRatio="xMidYMid meet">
<metadata>
Created by potrace 1.10, written by Peter Selinger 2001-2011
</metadata>
<g transform="translate(0.000000,248.000000) scale(0.100000,-0.100000)"
fill="#000000" stroke="none">
<path d="M1188 2288 c-28 -48 -34 -58 -82 -130 -216 -321 -522 -631 -826 -838
-51 -35 -60 -45 -60 -71 0 -22 6 -32 26 -41 22 -10 32 -9 68 11 130 75 426
330 585 504 88 96 267 330 294 383 30 59 41 60 88 7 98 -112 364 -361 489
-459 131 -103 350 -239 498 -311 70 -33 74 -34 98 -18 18 12 24 23 22 43 -2
22 -17 35 -83 71 -217 119 -350 202 -450 280 -154 120 -348 301 -465 434 -55
61 -108 122 -119 135 -11 12 -32 22 -45 22 -16 0 -30 -9 -38 -22z"/>
<path d="M1588 1495 c-8 -9 -350 -37 -525 -44 -111 -4 -176 -10 -184 -18 -18
-18 -14 -65 7 -80 22 -16 197 -18 306 -3 40 5 154 16 252 25 192 16 226 27
226 69 0 12 -8 30 -18 39 -18 16 -53 23 -64 12z"/>
</g>
</svg>
