<?xml version="1.0" standalone="no"?>
<!DOCTYPE svg PUBLIC "-//W3C//DTD SVG 20010904//EN"
 "http://www.w3.org/TR/2001/REC-SVG-20010904/DTD/svg10.dtd">
<svg version="1.0" xmlns="http://www.w3.org/2000/svg"
 width="248.000000pt" height="248.000000pt" viewBox="0 0 248.000000 248.000000"
 preserveAspectRatio="xMidYMid meet">
<metadata>
Created by potrace 1.10, written by Peter Selinger 2001-2011
</metadata>
<g transform="translate(0.000000,248.000000) scale(0.100000,-0.100000)"
fill="#000000" stroke="none">
<path d="M358 2135 c-115 -113 -208 -211 -208 -218 0 -25 37 -50 64 -43 26 6
350 305 360 331 3 8 20 16 38 19 48 8 308 15 308 9 0 -14 -155 -193 -202 -233
-137 -117 -145 -122 -227 -131 -101 -13 -173 -34 -196 -59 -18 -20 -19 -16 5
-155 12 -69 12 -395 0 -605 -14 -248 -68 -659 -96 -737 -21 -57 -15 -85 18
-97 23 -8 32 -6 51 12 27 26 39 72 67 257 55 379 55 378 55 833 0 425 0 433
20 438 44 10 170 22 178 17 10 -6 2 -575 -10 -665 -5 -42 -3 -48 21 -63 24
-16 28 -16 49 -2 22 14 24 23 30 153 4 75 7 235 7 355 0 176 3 220 14 232 14
14 39 18 200 33 l69 7 -6 -84 c-4 -46 -10 -244 -13 -439 -5 -275 -3 -407 10
-586 18 -263 21 -420 6 -429 -5 -3 -33 12 -61 35 -59 47 -82 50 -105 14 -16
-24 -16 -27 3 -52 30 -41 182 -152 208 -152 45 0 50 20 53 234 2 118 -3 309
-13 461 -17 268 -16 392 6 848 9 180 9 220 -2 234 -12 14 -31 15 -148 9 l-135
-7 60 64 c111 120 237 272 247 301 5 11 1 29 -9 43 -15 24 -18 25 -102 19
-139 -9 -344 -11 -377 -3 -29 7 -39 -2 -237 -198z"/>
</g>
</svg>
