<?xml version="1.0" standalone="no"?>
<!DOCTYPE svg PUBLIC "-//W3C//DTD SVG 20010904//EN"
 "http://www.w3.org/TR/2001/REC-SVG-20010904/DTD/svg10.dtd">
<svg version="1.0" xmlns="http://www.w3.org/2000/svg"
 width="248.000000pt" height="248.000000pt" viewBox="0 0 248.000000 248.000000"
 preserveAspectRatio="xMidYMid meet">
<metadata>
Created by potrace 1.10, written by Peter Selinger 2001-2011
</metadata>
<g transform="translate(0.000000,248.000000) scale(0.100000,-0.100000)"
fill="#000000" stroke="none">
<path d="M873 2290 c-23 -5 -102 -14 -175 -19 -73 -6 -178 -18 -233 -26 -129
-19 -140 -30 -131 -130 4 -38 9 -86 13 -105 12 -67 8 -991 -4 -1140 -7 -80
-17 -217 -23 -305 -6 -88 -15 -194 -21 -236 -13 -100 -3 -129 45 -129 19 0 38
5 42 12 8 12 16 105 34 373 5 83 14 218 20 300 5 83 11 219 12 302 1 84 4 156
7 161 5 7 218 46 371 68 25 3 55 12 67 20 47 29 49 41 78 404 20 254 28 322
41 366 22 73 10 94 -54 93 -26 -1 -66 -5 -89 -9z m27 -142 c0 -67 -20 -222
-29 -231 -5 -5 -42 -13 -82 -18 -115 -13 -159 -20 -234 -35 -105 -21 -102 -22
-108 44 -4 31 -7 95 -8 142 l-2 84 29 8 c25 6 231 30 359 41 22 2 48 4 58 5
14 2 17 -6 17 -40z m-35 -447 c-10 -151 -16 -174 -45 -183 -38 -10 -301 -51
-335 -52 l-30 -1 -2 126 c-1 69 2 130 6 137 10 16 99 37 237 57 65 10 121 19
123 21 2 2 15 4 29 4 l24 0 -7 -109z"/>
<path d="M1425 2286 c-15 -11 -17 -54 -17 -424 0 -226 3 -416 7 -421 10 -17
50 -13 69 8 15 17 17 56 16 416 0 254 -4 403 -11 411 -15 18 -46 23 -64 10z"/>
</g>
</svg>
