<?xml version="1.0" standalone="no"?>
<!DOCTYPE svg PUBLIC "-//W3C//DTD SVG 20010904//EN"
 "http://www.w3.org/TR/2001/REC-SVG-20010904/DTD/svg10.dtd">
<svg version="1.0" xmlns="http://www.w3.org/2000/svg"
 width="248.000000pt" height="248.000000pt" viewBox="0 0 248.000000 248.000000"
 preserveAspectRatio="xMidYMid meet">
<metadata>
Created by potrace 1.10, written by Peter Selinger 2001-2011
</metadata>
<g transform="translate(0.000000,248.000000) scale(0.100000,-0.100000)"
fill="#000000" stroke="none">
<path d="M1855 2305 c-99 -13 -337 -40 -530 -59 -192 -20 -390 -41 -440 -46
-49 -6 -144 -15 -210 -20 -297 -25 -340 -36 -340 -85 0 -42 32 -55 115 -44 36
4 124 12 195 18 72 6 166 16 210 21 133 17 632 69 755 80 63 5 183 19 265 30
83 11 173 20 200 20 59 0 95 21 95 55 0 34 -36 55 -90 54 -25 -1 -126 -12
-225 -24z"/>
</g>
</svg>
