<?xml version="1.0" standalone="no"?>
<!DOCTYPE svg PUBLIC "-//W3C//DTD SVG 20010904//EN"
 "http://www.w3.org/TR/2001/REC-SVG-20010904/DTD/svg10.dtd">
<svg version="1.0" xmlns="http://www.w3.org/2000/svg"
 width="248.000000pt" height="248.000000pt" viewBox="0 0 248.000000 248.000000"
 preserveAspectRatio="xMidYMid meet">
<metadata>
Created by potrace 1.10, written by Peter Selinger 2001-2011
</metadata>
<g transform="translate(0.000000,248.000000) scale(0.100000,-0.100000)"
fill="#000000" stroke="none">
<path d="M1855 2305 c-99 -13 -337 -40 -530 -59 -192 -20 -390 -41 -440 -46
-49 -6 -144 -15 -210 -20 -297 -25 -340 -36 -340 -85 0 -42 32 -55 115 -44 36
4 124 12 195 18 72 6 166 16 210 21 44 5 127 15 185 20 58 6 117 13 133 16 25
5 27 3 27 -28 0 -86 -64 -315 -101 -362 -15 -19 -30 -26 -56 -26 -20 0 -64 -4
-97 -10 -34 -5 -124 -16 -201 -25 -156 -18 -188 -31 -183 -73 5 -45 37 -52
158 -36 241 31 291 36 295 32 7 -6 -109 -172 -168 -240 -155 -181 -367 -376
-514 -476 -34 -23 -64 -51 -68 -62 -10 -30 12 -60 43 -60 33 0 140 70 241 157
40 36 77 61 82 56 10 -11 49 -202 49 -245 1 -88 45 -109 200 -98 58 5 146 11
197 14 l91 5 4 -168 c3 -174 8 -193 48 -204 10 -3 28 2 39 10 20 13 21 24 21
188 l0 174 33 5 c17 3 91 8 162 11 145 6 276 22 317 37 20 8 31 21 37 47 21
82 41 168 46 206 16 105 27 145 40 145 8 0 57 -23 110 -50 97 -51 248 -110
282 -110 27 0 43 20 43 52 0 33 -21 48 -110 77 -72 24 -260 115 -312 152 -39
28 -125 82 -188 117 -25 14 -110 69 -189 121 -79 53 -171 114 -204 136 l-60
39 74 13 c41 7 164 20 274 28 293 22 315 25 336 46 25 25 24 44 -2 70 -17 17
-29 20 -62 15 -23 -3 -131 -13 -240 -21 -108 -8 -239 -22 -291 -31 -51 -8
-107 -14 -123 -12 l-31 3 33 100 c18 55 38 144 45 198 8 53 16 97 20 97 3 0
41 4 85 10 44 5 134 14 200 20 66 5 188 19 270 30 83 11 173 20 200 20 59 0
95 21 95 55 0 34 -36 55 -90 54 -25 -1 -126 -12 -225 -24z m-513 -833 c103
-71 312 -205 377 -241 34 -19 61 -38 61 -42 0 -3 -30 -9 -67 -13 -101 -8 -427
-26 -430 -22 -1 1 -6 56 -9 122 -4 75 -12 127 -20 142 -20 30 -59 29 -80 -3
-14 -21 -15 -42 -9 -145 4 -66 3 -120 -1 -120 -93 -4 -328 -21 -354 -26 l-34
-7 54 64 c30 35 75 87 101 114 25 28 86 109 134 182 l88 132 63 -47 c35 -26
92 -66 126 -90z m444 -414 c-3 -13 -7 -41 -11 -63 -14 -102 -39 -195 -54 -200
-16 -6 -145 -17 -343 -29 l-98 -6 0 139 0 139 31 6 c17 3 75 6 128 7 53 0 143
6 201 14 153 19 151 19 146 -7z m-618 -160 l-3 -143 -130 -7 c-71 -3 -157 -8
-190 -10 l-60 -3 -7 57 c-4 32 -16 94 -26 137 l-19 79 96 11 c90 11 139 14
284 19 l58 2 -3 -142z"/>
</g>
</svg>
