<?xml version="1.0" standalone="no"?>
<!DOCTYPE svg PUBLIC "-//W3C//DTD SVG 20010904//EN"
 "http://www.w3.org/TR/2001/REC-SVG-20010904/DTD/svg10.dtd">
<svg version="1.0" xmlns="http://www.w3.org/2000/svg"
 width="248.000000pt" height="248.000000pt" viewBox="0 0 248.000000 248.000000"
 preserveAspectRatio="xMidYMid meet">
<metadata>
Created by potrace 1.10, written by Peter Selinger 2001-2011
</metadata>
<g transform="translate(0.000000,248.000000) scale(0.100000,-0.100000)"
fill="#000000" stroke="none">
<path d="M561 2376 c-18 -21 -21 -60 -29 -296 l-7 -204 -157 -31 c-86 -17
-163 -37 -172 -44 -37 -31 -3 -93 47 -86 12 1 80 14 150 29 71 14 130 26 133
26 2 0 4 -148 4 -328 l0 -329 -42 -13 c-24 -8 -66 -24 -94 -36 -29 -12 -69
-25 -91 -29 -63 -10 -105 -40 -101 -72 5 -42 27 -49 104 -33 38 7 91 23 119
36 27 12 62 26 78 29 l27 7 0 -188 c0 -104 3 -261 7 -349 l6 -160 -50 55 c-47
51 -52 54 -79 45 -47 -17 -44 -58 8 -124 24 -29 61 -77 84 -105 44 -56 82 -69
119 -42 20 14 20 24 16 465 l-4 451 69 31 c38 17 96 39 129 50 84 28 105 44
105 77 0 32 -16 52 -42 52 -14 0 -109 -34 -241 -85 -16 -7 -17 10 -15 306 l3
313 118 23 c65 13 129 30 142 39 29 19 34 64 10 84 -16 13 -22 13 -169 -19
-54 -11 -101 -21 -104 -21 -3 0 -2 98 1 218 7 238 3 264 -44 270 -14 2 -31 -4
-38 -12z"/>
<path d="M1181 2256 c-7 -8 -15 -35 -18 -58 -9 -74 -120 -469 -153 -546 -37
-88 -37 -123 3 -136 22 -8 31 -6 46 9 27 28 69 131 106 260 l32 110 64 7 c35
3 100 11 144 17 44 6 127 16 185 21 58 6 157 17 220 25 178 23 369 40 376 33
6 -7 -37 -361 -61 -499 -8 -46 -27 -124 -41 -174 -29 -97 -93 -265 -101 -265
-3 0 -25 18 -49 40 -24 22 -50 40 -59 40 -20 0 -55 -36 -55 -57 0 -9 29 -45
63 -80 55 -55 69 -63 101 -63 50 0 75 29 121 138 78 186 125 373 155 622 6 52
15 120 20 150 5 30 12 90 16 132 6 73 5 78 -19 102 -36 36 -50 36 -437 -9 -74
-9 -193 -22 -265 -30 -71 -8 -176 -19 -233 -26 -57 -6 -105 -9 -108 -6 -3 3 1
29 9 59 24 84 29 140 15 168 -16 29 -59 38 -77 16z"/>
<path d="M1680 1657 c-3 -3 -77 -15 -165 -26 -310 -41 -335 -48 -335 -95 0
-44 19 -49 137 -37 60 6 155 18 213 26 58 9 126 18 153 22 l47 6 0 -35 c0 -64
-30 -252 -42 -259 -6 -4 -43 -10 -82 -14 -39 -4 -98 -10 -131 -15 -33 -5 -108
-12 -167 -15 -59 -4 -115 -13 -124 -20 -15 -10 -18 -43 -22 -256 -11 -559 1
-656 95 -717 72 -48 217 -77 459 -92 308 -19 582 25 622 100 15 28 9 165 -9
232 -11 42 -47 72 -73 62 -30 -12 -38 -40 -26 -102 6 -31 10 -77 8 -102 -3
-45 -3 -45 -53 -58 -100 -26 -290 -34 -485 -22 -255 16 -396 49 -415 98 -17
46 -26 313 -15 457 7 82 10 186 8 230 l-3 80 80 6 c234 19 408 47 430 71 15
16 50 269 50 365 0 91 -12 105 -92 111 -32 2 -60 2 -63 -1z"/>
</g>
</svg>
