<?xml version="1.0" standalone="no"?>
<!DOCTYPE svg PUBLIC "-//W3C//DTD SVG 20010904//EN"
 "http://www.w3.org/TR/2001/REC-SVG-20010904/DTD/svg10.dtd">
<svg version="1.0" xmlns="http://www.w3.org/2000/svg"
 width="248.000000pt" height="248.000000pt" viewBox="0 0 248.000000 248.000000"
 preserveAspectRatio="xMidYMid meet">
<metadata>
Created by potrace 1.10, written by Peter Selinger 2001-2011
</metadata>
<g transform="translate(0.000000,248.000000) scale(0.100000,-0.100000)"
fill="#000000" stroke="none">
<path d="M561 2376 c-18 -21 -21 -60 -29 -296 l-7 -204 -157 -31 c-86 -17
-163 -37 -172 -44 -37 -31 -3 -93 47 -86 12 1 80 14 150 29 71 14 130 26 133
26 2 0 4 -148 4 -328 l0 -329 -42 -13 c-24 -8 -66 -24 -94 -36 -29 -12 -69
-25 -91 -29 -63 -10 -105 -40 -101 -72 5 -42 27 -49 104 -33 38 7 91 23 119
36 27 12 62 26 78 29 l27 7 0 -188 c0 -104 3 -261 7 -349 l6 -160 -50 55 c-47
51 -52 54 -79 45 -47 -17 -44 -58 8 -124 24 -29 61 -77 84 -105 44 -56 82 -69
119 -42 20 14 20 24 16 465 l-4 451 69 31 c38 17 96 39 129 50 84 28 105 44
105 77 0 32 -16 52 -42 52 -14 0 -109 -34 -241 -85 -16 -7 -17 10 -15 306 l3
313 118 23 c65 13 129 30 142 39 29 19 34 64 10 84 -16 13 -22 13 -169 -19
-54 -11 -101 -21 -104 -21 -3 0 -2 98 1 218 7 238 3 264 -44 270 -14 2 -31 -4
-38 -12z"/>
<path d="M1181 2256 c-7 -8 -15 -35 -18 -58 -9 -74 -120 -469 -153 -546 -37
-88 -37 -123 3 -136 22 -8 31 -6 46 9 34 35 81 165 141 385 68 251 76 295 58
330 -16 29 -59 38 -77 16z"/>
</g>
</svg>
