<?xml version="1.0" standalone="no"?>
<!DOCTYPE svg PUBLIC "-//W3C//DTD SVG 20010904//EN"
 "http://www.w3.org/TR/2001/REC-SVG-20010904/DTD/svg10.dtd">
<svg version="1.0" xmlns="http://www.w3.org/2000/svg"
 width="248.000000pt" height="248.000000pt" viewBox="0 0 248.000000 248.000000"
 preserveAspectRatio="xMidYMid meet">
<metadata>
Created by potrace 1.10, written by Peter Selinger 2001-2011
</metadata>
<g transform="translate(0.000000,248.000000) scale(0.100000,-0.100000)"
fill="#000000" stroke="none">
<path d="M1405 2195 c-82 -7 -211 -18 -285 -24 -74 -6 -146 -13 -160 -16 -37
-8 -330 -35 -440 -42 -110 -6 -135 -18 -149 -70 -14 -53 -23 -1025 -14 -1401
8 -294 9 -315 27 -328 25 -18 37 -18 62 0 18 14 19 28 16 408 -2 216 -1 591 3
834 l7 441 97 12 c53 6 152 16 220 21 68 6 127 12 131 15 4 2 67 9 141 14 74
6 215 17 314 26 99 8 273 15 386 15 l206 0 14 -82 c10 -65 14 -259 15 -890 1
-638 4 -810 14 -823 16 -20 54 -19 71 1 22 27 31 369 25 1009 -4 526 -7 615
-24 721 -10 67 -22 127 -27 134 -4 6 -22 18 -41 26 -42 18 -389 17 -609 -1z"/>
<path d="M920 1865 c-8 -9 -10 -31 -6 -62 3 -27 8 -100 12 -164 l7 -116 -63
-6 c-35 -4 -84 -7 -109 -7 -59 0 -93 -22 -89 -58 5 -42 40 -54 133 -47 44 3
90 8 103 12 20 5 22 2 22 -38 0 -24 -7 -94 -16 -155 l-17 -111 -75 -7 c-41 -3
-116 -6 -166 -6 -67 0 -98 -4 -114 -16 -30 -21 -29 -59 4 -80 22 -15 45 -16
180 -10 87 3 154 2 154 -3 0 -32 -63 -239 -85 -279 -41 -76 -21 -128 41 -107
49 17 90 124 148 376 5 25 9 26 123 38 65 6 217 18 338 26 329 23 391 31 428
52 53 31 47 103 -9 103 -14 0 -32 -4 -42 -9 -22 -12 -172 -28 -397 -41 -99 -6
-219 -15 -266 -20 -47 -6 -102 -10 -122 -10 -34 0 -37 2 -32 23 10 42 35 227
35 256 0 32 -7 29 103 46 19 3 134 12 258 20 123 8 249 19 279 24 30 6 72 13
92 16 42 6 63 33 53 66 -11 35 -50 42 -150 25 -49 -8 -153 -18 -230 -21 -77
-4 -192 -13 -255 -21 -163 -20 -150 -23 -150 41 0 83 -29 247 -47 267 -20 22
-56 23 -73 3z"/>
</g>
</svg>
