<?xml version="1.0" standalone="no"?>
<!DOCTYPE svg PUBLIC "-//W3C//DTD SVG 20010904//EN"
 "http://www.w3.org/TR/2001/REC-SVG-20010904/DTD/svg10.dtd">
<svg version="1.0" xmlns="http://www.w3.org/2000/svg"
 width="248.000000pt" height="248.000000pt" viewBox="0 0 248.000000 248.000000"
 preserveAspectRatio="xMidYMid meet">
<metadata>
Created by potrace 1.10, written by Peter Selinger 2001-2011
</metadata>
<g transform="translate(0.000000,248.000000) scale(0.100000,-0.100000)"
fill="#000000" stroke="none">
<path d="M1405 2195 c-82 -7 -211 -18 -285 -24 -74 -6 -146 -13 -160 -16 -37
-8 -330 -35 -440 -42 -110 -6 -135 -18 -149 -70 -14 -53 -23 -1025 -14 -1401
8 -294 9 -315 27 -328 25 -18 37 -18 62 0 18 14 19 28 16 408 -2 216 -1 591 3
834 l7 441 97 12 c53 6 152 16 220 21 68 6 127 12 131 15 4 2 67 9 141 14 74
6 215 17 314 26 99 8 273 15 386 15 l206 0 14 -82 c10 -65 14 -259 15 -890 1
-638 4 -810 14 -823 16 -20 54 -19 71 1 22 27 31 369 25 1009 -4 526 -7 615
-24 721 -10 67 -22 127 -27 134 -4 6 -22 18 -41 26 -42 18 -389 17 -609 -1z"/>
</g>
</svg>
