<?xml version="1.0" standalone="no"?>
<!DOCTYPE svg PUBLIC "-//W3C//DTD SVG 20010904//EN"
 "http://www.w3.org/TR/2001/REC-SVG-20010904/DTD/svg10.dtd">
<svg version="1.0" xmlns="http://www.w3.org/2000/svg"
 width="248.000000pt" height="248.000000pt" viewBox="0 0 248.000000 248.000000"
 preserveAspectRatio="xMidYMid meet">
<metadata>
Created by potrace 1.10, written by Peter Selinger 2001-2011
</metadata>
<g transform="translate(0.000000,248.000000) scale(0.100000,-0.100000)"
fill="#000000" stroke="none">
<path d="M1405 2195 c-82 -7 -211 -18 -285 -24 -74 -6 -146 -13 -160 -16 -37
-8 -330 -35 -440 -42 -110 -6 -135 -18 -149 -70 -14 -53 -23 -1025 -14 -1401
8 -294 9 -315 27 -328 25 -18 37 -18 62 0 18 14 19 28 16 408 -2 216 -1 591 3
834 l7 441 97 12 c53 6 152 16 220 21 68 6 127 12 131 15 4 2 67 9 141 14 74
6 215 17 314 26 99 8 273 15 386 15 l206 0 14 -82 c10 -65 14 -259 15 -890 1
-638 4 -810 14 -823 16 -20 54 -19 71 1 22 27 31 369 25 1009 -4 526 -7 615
-24 721 -10 67 -22 127 -27 134 -4 6 -22 18 -41 26 -42 18 -389 17 -609 -1z"/>
<path d="M1665 1595 c-38 -7 -133 -16 -210 -19 -77 -4 -253 -21 -392 -37 -138
-16 -273 -29 -300 -29 -61 0 -95 -22 -91 -58 2 -18 13 -31 33 -41 32 -15 37
-15 355 24 69 8 224 22 345 30 121 8 245 19 275 24 30 6 72 13 92 16 62 10 77
75 21 96 -29 11 -38 10 -128 -6z"/>
<path d="M1825 1192 c-12 -11 -179 -29 -395 -42 -91 -6 -214 -15 -275 -20
-169 -16 -400 -30 -500 -30 -101 0 -135 -14 -135 -55 0 -39 35 -55 120 -55 86
0 313 14 480 30 63 6 212 18 330 26 324 22 386 30 423 51 35 21 48 63 26 89
-13 15 -59 19 -74 6z"/>
</g>
</svg>
