<?xml version="1.0" standalone="no"?>
<!DOCTYPE svg PUBLIC "-//W3C//DTD SVG 20010904//EN"
 "http://www.w3.org/TR/2001/REC-SVG-20010904/DTD/svg10.dtd">
<svg version="1.0" xmlns="http://www.w3.org/2000/svg"
 width="248.000000pt" height="248.000000pt" viewBox="0 0 248.000000 248.000000"
 preserveAspectRatio="xMidYMid meet">
<metadata>
Created by potrace 1.10, written by Peter Selinger 2001-2011
</metadata>
<g transform="translate(0.000000,248.000000) scale(0.100000,-0.100000)"
fill="#000000" stroke="none">
<path d="M1462 2358 c-8 -8 -12 -45 -12 -99 l0 -88 -52 -5 c-112 -12 -308 -18
-308 -10 -4 62 -20 157 -30 169 -19 23 -57 18 -76 -9 -12 -20 -14 -40 -9 -104
l7 -79 -138 -7 c-310 -16 -338 -23 -332 -75 5 -46 43 -55 182 -42 67 6 160 13
208 14 101 4 92 15 103 -126 8 -93 14 -98 113 -90 l72 6 0 -67 0 -66 -62 0
c-35 0 -126 -7 -203 -15 -77 -8 -171 -15 -210 -15 -38 0 -81 -6 -95 -13 -32
-16 -31 -32 3 -241 28 -173 39 -197 93 -196 16 0 129 3 252 6 l222 6 0 -115 0
-114 -192 -6 c-106 -4 -301 -10 -433 -13 -259 -7 -285 -12 -285 -59 0 -15 10
-31 25 -41 23 -15 60 -15 427 -5 222 7 414 14 428 17 l26 5 -1 -376 c0 -361 1
-377 19 -391 25 -18 37 -18 62 0 18 14 19 33 24 385 3 203 9 373 14 378 4 4
209 10 455 13 477 5 481 6 481 54 -1 53 17 51 -480 51 l-460 0 0 111 0 111
108 8 c59 4 172 9 252 11 80 2 148 4 152 4 27 1 102 310 96 398 -5 71 -18 75
-223 68 -93 -4 -218 -9 -277 -13 l-108 -6 0 65 0 65 87 7 c48 3 96 12 108 20
16 10 24 36 39 120 21 119 15 112 116 119 30 3 129 10 220 17 189 14 215 22
215 65 0 46 -30 56 -160 49 -60 -3 -137 -9 -170 -14 -33 -5 -90 -12 -126 -15
l-66 -5 -5 75 c-4 53 -10 81 -23 95 -20 22 -55 26 -73 8z m-26 -348 c-4 -28
-9 -56 -12 -64 -6 -15 -107 -26 -234 -26 l-78 0 -7 56 c-4 31 -4 58 -2 61 5 4
185 17 301 22 l39 1 -7 -50z m364 -424 c0 -26 -41 -221 -48 -227 -7 -7 -322
-29 -399 -29 l-43 0 0 125 0 125 28 1 c15 1 81 5 147 9 225 13 315 11 315 -4z
m-600 -141 l0 -125 -182 0 c-101 -1 -202 -5 -226 -9 -23 -5 -45 -5 -47 -1 -7
11 -37 221 -33 226 2 2 58 8 123 14 66 7 122 13 124 16 2 2 58 4 123 4 l118 0
0 -125z"/>
</g>
</svg>
