<?xml version="1.0" standalone="no"?>
<!DOCTYPE svg PUBLIC "-//W3C//DTD SVG 20010904//EN"
 "http://www.w3.org/TR/2001/REC-SVG-20010904/DTD/svg10.dtd">
<svg version="1.0" xmlns="http://www.w3.org/2000/svg"
 width="248.000000pt" height="248.000000pt" viewBox="0 0 248.000000 248.000000"
 preserveAspectRatio="xMidYMid meet">
<metadata>
Created by potrace 1.10, written by Peter Selinger 2001-2011
</metadata>
<g transform="translate(0.000000,248.000000) scale(0.100000,-0.100000)"
fill="#000000" stroke="none">
<path d="M860 2270 c-97 -9 -320 -28 -427 -36 -49 -4 -80 -12 -95 -24 l-23
-18 -12 -654 c-6 -359 -14 -810 -18 -1003 -7 -388 -6 -400 50 -400 49 0 55 26
55 245 0 107 4 326 10 485 5 160 12 508 16 775 l7 486 161 13 c88 7 210 17
270 22 61 5 112 6 115 3 3 -2 0 -126 -7 -275 -14 -305 -11 -324 43 -324 22 0
33 7 42 25 18 39 40 589 24 626 -22 55 -69 67 -211 54z"/>
</g>
</svg>
