<?xml version="1.0" standalone="no"?>
<!DOCTYPE svg PUBLIC "-//W3C//DTD SVG 20010904//EN"
 "http://www.w3.org/TR/2001/REC-SVG-20010904/DTD/svg10.dtd">
<svg version="1.0" xmlns="http://www.w3.org/2000/svg"
 width="248.000000pt" height="248.000000pt" viewBox="0 0 248.000000 248.000000"
 preserveAspectRatio="xMidYMid meet">
<metadata>
Created by potrace 1.10, written by Peter Selinger 2001-2011
</metadata>
<g transform="translate(0.000000,248.000000) scale(0.100000,-0.100000)"
fill="#000000" stroke="none">
<path d="M1925 2290 c-77 -4 -222 -8 -321 -9 -132 -1 -184 -4 -192 -13 -10
-13 -17 -139 -28 -509 -6 -190 -5 -207 12 -224 17 -17 38 -18 351 -11 l333 7
0 -489 c0 -269 3 -551 7 -626 l6 -137 -35 35 c-41 41 -81 47 -98 17 -18 -35
-11 -49 72 -141 64 -71 87 -90 109 -90 55 0 53 -55 51 1098 -2 902 -5 1069
-16 1081 -18 18 -77 20 -251 11z m157 -222 c-2 -68 -5 -124 -7 -126 -2 -2
-133 -6 -292 -9 l-289 -6 7 59 c4 32 8 86 8 120 l1 61 263 10 c144 5 273 10
287 11 l25 2 -3 -122z m-2 -331 l0 -94 -182 -6 c-99 -4 -232 -7 -295 -7 l-113
0 0 95 0 95 198 3 c108 1 241 3 295 5 l97 2 0 -93z"/>
<path d="M860 2270 c-97 -9 -320 -28 -427 -36 -49 -4 -80 -12 -95 -24 l-23
-18 -12 -654 c-6 -359 -14 -810 -18 -1003 -7 -381 -5 -397 46 -403 51 -6 53 6
60 332 4 166 10 459 14 653 l8 351 30 6 c16 3 50 6 76 6 25 0 114 9 196 20 83
11 179 20 215 20 86 0 113 15 121 65 4 22 13 166 20 321 13 298 11 325 -31
352 -28 17 -84 21 -180 12z m110 -200 l0 -99 -32 -5 c-18 -3 -80 -10 -138 -16
-58 -6 -159 -17 -225 -25 -66 -8 -128 -15 -137 -15 -16 0 -18 12 -18 108 l0
108 168 14 c92 7 203 16 247 20 44 4 92 7 108 8 l27 2 0 -100z m-10 -248 c0
-22 -3 -73 -6 -114 l-7 -76 -66 -7 c-36 -3 -118 -12 -181 -20 -63 -8 -154 -17
-201 -20 l-86 -7 5 109 c2 59 6 110 8 112 4 4 99 16 369 45 180 20 165 22 165
-22z"/>
<path d="M1073 1400 c-39 -3 -79 -13 -89 -21 -9 -8 -41 -50 -69 -94 -29 -44
-91 -122 -139 -173 -47 -50 -86 -96 -86 -100 0 -4 7 -18 16 -30 28 -40 61 -29
134 46 58 58 164 192 196 247 9 16 28 19 157 23 81 3 147 2 147 -2 0 -24 -64
-124 -129 -201 -169 -202 -398 -392 -558 -465 -56 -26 -63 -32 -63 -57 0 -58
38 -67 122 -29 237 106 598 452 710 681 55 113 59 151 18 172 -27 14 -236 16
-367 3z"/>
</g>
</svg>
