<?xml version="1.0" standalone="no"?>
<!DOCTYPE svg PUBLIC "-//W3C//DTD SVG 20010904//EN"
 "http://www.w3.org/TR/2001/REC-SVG-20010904/DTD/svg10.dtd">
<svg version="1.0" xmlns="http://www.w3.org/2000/svg"
 width="248.000000pt" height="248.000000pt" viewBox="0 0 248.000000 248.000000"
 preserveAspectRatio="xMidYMid meet">
<metadata>
Created by potrace 1.10, written by Peter Selinger 2001-2011
</metadata>
<g transform="translate(0.000000,248.000000) scale(0.100000,-0.100000)"
fill="#000000" stroke="none">
<path d="M660 2355 c-7 -9 -13 -30 -12 -48 0 -17 -5 -143 -11 -279 l-11 -247
-25 -5 c-74 -15 -159 -26 -276 -37 -75 -6 -140 -17 -152 -25 -31 -19 -30 -59
1 -79 21 -14 38 -15 128 -5 57 6 149 18 206 27 57 8 104 14 106 12 1 -2 -1
-60 -5 -129 -3 -69 -10 -211 -14 -316 l-7 -190 -32 -13 c-17 -7 -69 -25 -116
-41 -143 -48 -234 -82 -248 -92 -20 -17 -14 -56 11 -73 28 -18 49 -13 251 59
72 25 131 46 133 46 2 0 3 -153 3 -340 0 -387 9 -359 -88 -276 -57 49 -81 56
-106 30 -28 -27 -19 -56 30 -98 26 -23 79 -72 119 -109 60 -56 78 -68 101 -65
53 6 54 16 54 478 l0 426 103 43 c128 53 147 66 147 94 0 57 -53 61 -164 12
-44 -19 -82 -33 -84 -30 -3 2 0 125 7 272 6 148 11 279 11 293 0 42 14 50 102
65 124 20 201 42 215 62 20 26 16 51 -10 68 -22 14 -31 13 -103 -4 -43 -11
-103 -22 -133 -26 l-54 -7 9 173 c12 236 9 334 -11 365 -18 27 -56 32 -75 9z"/>
<path d="M1647 2328 c-20 -31 -31 -454 -13 -490 17 -34 66 -32 84 4 19 41 28
444 10 478 -19 34 -62 39 -81 8z"/>
</g>
</svg>
