<?xml version="1.0" standalone="no"?>
<!DOCTYPE svg PUBLIC "-//W3C//DTD SVG 20010904//EN"
 "http://www.w3.org/TR/2001/REC-SVG-20010904/DTD/svg10.dtd">
<svg version="1.0" xmlns="http://www.w3.org/2000/svg"
 width="248.000000pt" height="248.000000pt" viewBox="0 0 248.000000 248.000000"
 preserveAspectRatio="xMidYMid meet">
<metadata>
Created by potrace 1.10, written by Peter Selinger 2001-2011
</metadata>
<g transform="translate(0.000000,248.000000) scale(0.100000,-0.100000)"
fill="#000000" stroke="none">
<path d="M860 2270 c-97 -9 -320 -28 -427 -36 -49 -4 -80 -12 -95 -24 l-23
-18 -12 -654 c-6 -359 -14 -810 -18 -1003 -7 -381 -5 -397 46 -403 51 -6 53 6
60 332 4 166 10 459 14 653 l8 351 30 6 c16 3 50 6 76 6 25 0 114 9 196 20 83
11 179 20 215 20 86 0 113 15 121 65 4 22 13 166 20 321 13 298 11 325 -31
352 -28 17 -84 21 -180 12z m110 -200 l0 -99 -32 -5 c-18 -3 -80 -10 -138 -16
-58 -6 -159 -17 -225 -25 -66 -8 -128 -15 -137 -15 -16 0 -18 12 -18 108 l0
108 168 14 c92 7 203 16 247 20 44 4 92 7 108 8 l27 2 0 -100z m-10 -248 c0
-22 -3 -73 -6 -114 l-7 -76 -66 -7 c-36 -3 -118 -12 -181 -20 -63 -8 -154 -17
-201 -20 l-86 -7 5 109 c2 59 6 110 8 112 4 4 99 16 369 45 180 20 165 22 165
-22z"/>
<path d="M1419 2244 c-16 -19 -25 -148 -34 -469 -7 -220 -2 -247 46 -253 49
-6 53 13 61 242 3 116 9 263 13 326 5 87 3 121 -7 140 -16 31 -59 38 -79 14z"/>
</g>
</svg>
