<?xml version="1.0" standalone="no"?>
<!DOCTYPE svg PUBLIC "-//W3C//DTD SVG 20010904//EN"
 "http://www.w3.org/TR/2001/REC-SVG-20010904/DTD/svg10.dtd">
<svg version="1.0" xmlns="http://www.w3.org/2000/svg"
 width="248.000000pt" height="248.000000pt" viewBox="0 0 248.000000 248.000000"
 preserveAspectRatio="xMidYMid meet">
<metadata>
Created by potrace 1.10, written by Peter Selinger 2001-2011
</metadata>
<g transform="translate(0.000000,248.000000) scale(0.100000,-0.100000)"
fill="#000000" stroke="none">
<path d="M1853 2418 c-11 -13 -48 -61 -83 -108 -35 -47 -106 -128 -157 -182
-51 -53 -93 -103 -93 -111 0 -21 27 -47 48 -47 10 0 34 11 55 25 77 53 317
355 317 400 0 47 -52 61 -87 23z"/>
<path d="M1182 2368 c-7 -7 -12 -19 -12 -27 0 -29 64 -316 73 -328 12 -16 49
-17 65 -1 7 7 12 33 12 59 0 57 -46 255 -66 287 -16 24 -53 29 -72 10z"/>
<path d="M672 2328 c-19 -19 -15 -42 29 -140 22 -51 51 -122 64 -157 32 -85
62 -103 100 -61 18 20 18 22 1 78 -10 31 -31 82 -46 112 -15 30 -33 72 -39 92
-24 74 -75 110 -109 76z"/>
</g>
</svg>
