<?xml version="1.0" standalone="no"?>
<!DOCTYPE svg PUBLIC "-//W3C//DTD SVG 20010904//EN"
 "http://www.w3.org/TR/2001/REC-SVG-20010904/DTD/svg10.dtd">
<svg version="1.0" xmlns="http://www.w3.org/2000/svg"
 width="248.000000pt" height="248.000000pt" viewBox="0 0 248.000000 248.000000"
 preserveAspectRatio="xMidYMid meet">
<metadata>
Created by potrace 1.10, written by Peter Selinger 2001-2011
</metadata>
<g transform="translate(0.000000,248.000000) scale(0.100000,-0.100000)"
fill="#000000" stroke="none">
<path d="M660 2355 c-7 -9 -13 -30 -12 -48 0 -17 -5 -143 -11 -279 l-11 -247
-25 -5 c-74 -15 -159 -26 -276 -37 -75 -6 -140 -17 -152 -25 -31 -19 -30 -59
1 -79 21 -14 38 -15 128 -5 57 6 149 18 206 27 57 8 104 14 105 12 2 -2 -1
-53 -5 -114 -4 -60 -10 -381 -14 -712 -6 -550 -8 -601 -23 -593 -9 4 -40 29
-69 54 -57 49 -81 56 -106 30 -28 -27 -19 -56 30 -98 26 -23 79 -71 119 -108
75 -71 109 -84 136 -51 11 13 15 139 20 682 6 643 14 907 29 931 4 6 45 17 92
25 124 20 201 42 215 62 20 26 16 51 -10 68 -22 14 -31 13 -103 -4 -43 -11
-103 -22 -133 -26 l-54 -7 9 173 c12 236 9 334 -11 365 -18 27 -56 32 -75 9z"/>
</g>
</svg>
