<?xml version="1.0" standalone="no"?>
<!DOCTYPE svg PUBLIC "-//W3C//DTD SVG 20010904//EN"
 "http://www.w3.org/TR/2001/REC-SVG-20010904/DTD/svg10.dtd">
<svg version="1.0" xmlns="http://www.w3.org/2000/svg"
 width="248.000000pt" height="248.000000pt" viewBox="0 0 248.000000 248.000000"
 preserveAspectRatio="xMidYMid meet">
<metadata>
Created by potrace 1.10, written by Peter Selinger 2001-2011
</metadata>
<g transform="translate(0.000000,248.000000) scale(0.100000,-0.100000)"
fill="#000000" stroke="none">
<path d="M1462 2358 c-8 -8 -12 -45 -12 -99 l0 -88 -52 -5 c-112 -12 -308 -18
-308 -10 -4 62 -20 157 -30 169 -19 23 -57 18 -76 -9 -12 -20 -14 -40 -9 -104
l7 -79 -138 -7 c-310 -16 -338 -23 -332 -75 5 -46 43 -55 182 -42 67 6 160 13
208 14 101 4 92 15 103 -126 5 -57 11 -80 23 -86 10 -5 82 -5 172 0 221 12
278 19 299 38 12 11 24 49 36 119 21 114 14 108 115 115 30 3 129 10 220 17
189 14 215 22 215 65 0 46 -30 56 -160 49 -60 -3 -137 -9 -170 -14 -33 -5 -90
-12 -126 -15 l-66 -5 -5 75 c-4 53 -10 81 -23 95 -20 22 -55 26 -73 8z m-26
-348 c-4 -28 -9 -56 -12 -64 -6 -15 -107 -26 -234 -26 l-78 0 -7 56 c-4 31 -4
58 -2 61 5 4 185 17 301 22 l39 1 -7 -50z"/>
<path d="M600 1625 c-8 -10 -10 -28 -6 -53 4 -20 17 -104 31 -185 13 -81 29
-154 35 -162 19 -23 58 -18 75 8 14 21 13 37 -5 158 -23 155 -36 207 -58 232
-19 21 -55 22 -72 2z"/>
</g>
</svg>
