<?xml version="1.0" standalone="no"?>
<!DOCTYPE svg PUBLIC "-//W3C//DTD SVG 20010904//EN"
 "http://www.w3.org/TR/2001/REC-SVG-20010904/DTD/svg10.dtd">
<svg version="1.0" xmlns="http://www.w3.org/2000/svg"
 width="248.000000pt" height="248.000000pt" viewBox="0 0 248.000000 248.000000"
 preserveAspectRatio="xMidYMid meet">
<metadata>
Created by potrace 1.10, written by Peter Selinger 2001-2011
</metadata>
<g transform="translate(0.000000,248.000000) scale(0.100000,-0.100000)"
fill="#000000" stroke="none">
<path d="M860 2270 c-97 -9 -320 -28 -427 -36 -49 -4 -80 -12 -95 -24 l-23
-18 -12 -654 c-6 -359 -14 -810 -18 -1003 -7 -388 -6 -400 50 -400 20 0 33 7
41 22 7 15 13 148 18 375 17 918 25 1261 31 1266 3 3 58 12 123 19 145 16 394
43 406 43 5 0 5 -55 2 -122 -8 -144 1 -173 49 -173 22 0 33 7 42 25 18 39 40
589 24 626 -22 55 -69 67 -211 54z m110 -200 l0 -99 -32 -5 c-18 -3 -80 -10
-138 -16 -58 -6 -159 -17 -225 -25 -66 -8 -128 -15 -137 -15 -16 0 -18 12 -18
108 l0 108 168 14 c92 7 203 16 247 20 44 4 92 7 108 8 l27 2 0 -100z"/>
</g>
</svg>
