<?xml version="1.0" standalone="no"?>
<!DOCTYPE svg PUBLIC "-//W3C//DTD SVG 20010904//EN"
 "http://www.w3.org/TR/2001/REC-SVG-20010904/DTD/svg10.dtd">
<svg version="1.0" xmlns="http://www.w3.org/2000/svg"
 width="248.000000pt" height="248.000000pt" viewBox="0 0 248.000000 248.000000"
 preserveAspectRatio="xMidYMid meet">
<metadata>
Created by potrace 1.10, written by Peter Selinger 2001-2011
</metadata>
<g transform="translate(0.000000,248.000000) scale(0.100000,-0.100000)"
fill="#000000" stroke="none">
<path d="M1925 2290 c-77 -4 -222 -8 -321 -9 -132 -1 -184 -4 -192 -13 -10
-13 -17 -129 -28 -515 l-6 -211 23 -13 c18 -9 98 -10 351 -5 l328 7 0 -493 c0
-271 3 -551 7 -623 l6 -130 -37 32 c-42 37 -80 43 -96 14 -18 -35 -11 -49 71
-141 65 -72 87 -90 109 -90 57 0 54 -56 52 1098 -2 902 -5 1069 -16 1081 -18
18 -77 20 -251 11z m157 -222 c-2 -68 -5 -124 -7 -126 -2 -2 -133 -6 -292 -9
l-289 -6 7 59 c4 32 8 87 8 120 l1 61 268 10 c147 5 276 10 287 11 19 2 20 -3
17 -120z m-2 -331 l0 -94 -182 -6 c-99 -4 -232 -7 -295 -7 l-113 0 0 95 0 95
198 3 c108 1 241 3 295 5 l97 2 0 -93z"/>
<path d="M860 2270 c-97 -9 -320 -28 -427 -36 -49 -4 -80 -12 -95 -24 l-23
-18 -12 -659 c-6 -362 -14 -813 -18 -1003 -7 -376 -5 -392 46 -398 51 -6 53 7
60 327 4 163 10 457 14 653 l8 357 41 5 c23 2 93 10 156 16 63 7 147 16 185
21 39 4 102 8 141 9 108 0 113 6 124 160 18 261 23 496 11 531 -19 60 -64 73
-211 59z m110 -200 l0 -99 -32 -5 c-18 -3 -80 -10 -138 -16 -58 -6 -163 -18
-235 -25 -71 -8 -133 -15 -137 -15 -5 0 -8 50 -8 110 l0 110 50 0 c27 0 116 7
197 15 147 15 209 20 271 23 l32 2 0 -100z m-10 -242 c0 -18 -3 -70 -6 -114
l-7 -82 -66 -7 c-36 -3 -118 -12 -181 -20 -63 -7 -154 -16 -201 -20 l-86 -6 5
108 c2 59 6 110 9 113 2 2 59 10 126 17 67 8 176 20 242 27 177 20 165 21 165
-16z"/>
<path d="M1067 1399 c-37 -4 -75 -13 -83 -20 -8 -7 -39 -48 -68 -93 -29 -45
-92 -123 -140 -174 -47 -50 -86 -96 -86 -100 0 -22 34 -52 58 -52 21 0 45 19
109 85 68 72 85 85 105 80 26 -7 160 -105 164 -120 1 -5 -53 -61 -120 -123
-125 -117 -249 -206 -349 -249 -60 -27 -81 -59 -60 -92 19 -31 64 -24 157 24
49 25 89 45 90 45 0 0 3 -66 4 -148 4 -168 13 -197 57 -197 54 0 64 59 46 267
-6 63 -13 94 -26 108 -10 11 -16 21 -14 23 55 38 104 81 196 170 l112 109 58
-35 c32 -19 103 -58 158 -87 55 -29 118 -63 141 -76 43 -25 119 -52 220 -78
87 -22 110 -21 130 9 27 41 1 69 -78 85 -92 19 -195 56 -247 88 -25 16 -84 48
-131 71 -47 24 -106 57 -133 73 -52 33 -53 27 6 97 16 19 51 80 79 135 55 114
59 152 18 173 -28 14 -259 16 -373 2z m273 -104 c0 -30 -119 -205 -139 -205
-3 0 -38 24 -76 53 -39 28 -81 59 -94 67 -23 15 -23 17 -7 47 12 24 24 33 48
36 51 6 268 8 268 2z"/>
</g>
</svg>
