<?xml version="1.0" standalone="no"?>
<!DOCTYPE svg PUBLIC "-//W3C//DTD SVG 20010904//EN"
 "http://www.w3.org/TR/2001/REC-SVG-20010904/DTD/svg10.dtd">
<svg version="1.0" xmlns="http://www.w3.org/2000/svg"
 width="248.000000pt" height="248.000000pt" viewBox="0 0 248.000000 248.000000"
 preserveAspectRatio="xMidYMid meet">
<metadata>
Created by potrace 1.10, written by Peter Selinger 2001-2011
</metadata>
<g transform="translate(0.000000,248.000000) scale(0.100000,-0.100000)"
fill="#000000" stroke="none">
<path d="M660 2355 c-7 -9 -13 -30 -12 -48 0 -17 -5 -143 -11 -279 l-11 -247
-25 -5 c-74 -15 -159 -26 -276 -37 -75 -6 -140 -17 -152 -25 -31 -19 -30 -59
1 -79 21 -14 38 -15 128 -5 57 6 149 18 206 27 57 8 104 14 106 12 1 -2 -1
-60 -5 -129 -3 -69 -10 -211 -14 -316 l-7 -190 -32 -13 c-17 -7 -69 -25 -116
-41 -143 -48 -234 -82 -248 -92 -20 -17 -14 -56 11 -73 28 -18 49 -13 251 59
72 25 131 46 133 46 2 0 3 -153 3 -340 0 -387 9 -359 -88 -276 -57 49 -81 56
-106 30 -28 -27 -19 -56 30 -98 26 -23 79 -72 119 -109 60 -56 78 -68 101 -65
53 6 54 16 54 478 l0 426 103 43 c128 53 147 66 147 94 0 57 -53 61 -164 12
-44 -19 -82 -33 -84 -30 -3 2 0 125 7 272 6 148 11 279 11 293 0 42 14 50 102
65 124 20 201 42 215 62 20 26 16 51 -10 68 -22 14 -31 13 -103 -4 -43 -11
-103 -22 -133 -26 l-54 -7 9 173 c12 236 9 334 -11 365 -18 27 -56 32 -75 9z"/>
<path d="M1646 2328 c-13 -18 -16 -52 -16 -179 0 -86 -3 -177 -6 -203 l-7 -46
-56 0 c-113 -1 -362 -27 -374 -39 -9 -9 -12 -88 -12 -289 -1 -152 -4 -293 -8
-312 -4 -19 -11 -85 -16 -146 -14 -156 -50 -326 -111 -529 -42 -139 -118 -313
-150 -345 -22 -22 -26 -60 -8 -78 34 -34 95 1 132 76 34 67 127 307 141 361 7
31 23 92 34 136 60 227 96 539 95 827 l0 206 29 6 c16 3 113 11 215 16 103 6
212 15 242 20 30 5 107 18 170 29 63 11 151 25 195 31 137 19 176 41 160 90
-9 28 -46 34 -128 21 -40 -6 -144 -23 -232 -37 -88 -14 -170 -28 -181 -30
l-22 -6 5 194 c5 213 -1 240 -49 246 -18 2 -31 -4 -42 -20z"/>
<path d="M1726 1448 c-9 -12 -16 -30 -16 -40 0 -10 -9 -37 -19 -60 -11 -24
-36 -90 -57 -148 -54 -151 -176 -416 -319 -690 -71 -136 -84 -178 -66 -217 11
-24 13 -25 84 -18 114 11 208 32 386 90 91 29 202 65 246 78 44 14 88 28 98
32 14 6 28 -16 87 -139 65 -137 71 -146 98 -146 35 0 52 16 52 50 0 27 -229
502 -257 533 -19 20 -54 22 -71 5 -20 -20 -14 -54 22 -128 l33 -71 -26 -13
c-14 -7 -84 -30 -155 -51 -70 -20 -144 -44 -165 -52 -57 -25 -243 -73 -279
-73 l-32 0 97 193 c145 284 214 439 273 602 17 50 41 112 53 138 36 82 23 147
-29 147 -12 0 -30 -10 -38 -22z"/>
</g>
</svg>
