<?xml version="1.0" standalone="no"?>
<!DOCTYPE svg PUBLIC "-//W3C//DTD SVG 20010904//EN"
 "http://www.w3.org/TR/2001/REC-SVG-20010904/DTD/svg10.dtd">
<svg version="1.0" xmlns="http://www.w3.org/2000/svg"
 width="248.000000pt" height="248.000000pt" viewBox="0 0 248.000000 248.000000"
 preserveAspectRatio="xMidYMid meet">
<metadata>
Created by potrace 1.10, written by Peter Selinger 2001-2011
</metadata>
<g transform="translate(0.000000,248.000000) scale(0.100000,-0.100000)"
fill="#000000" stroke="none">
<path d="M1854 2418 c-12 -13 -49 -61 -84 -108 -35 -47 -106 -129 -158 -182
-86 -90 -93 -100 -87 -128 l7 -30 -54 0 c-174 0 -807 -55 -988 -85 -47 -8 -97
-15 -111 -15 -15 0 -31 -6 -37 -12 -5 -8 -12 -104 -16 -220 -5 -179 -3 -209
10 -223 28 -27 56 -16 73 28 6 16 11 93 11 171 0 103 4 146 13 153 35 27 490
74 982 102 253 15 691 25 704 17 17 -11 -81 -126 -197 -229 -57 -50 -55 -107
3 -107 44 0 182 132 297 286 59 79 65 97 38 124 -20 20 -29 21 -323 20 -166 0
-307 -1 -313 0 -6 0 24 36 67 80 88 90 236 283 246 319 14 53 -46 81 -83 39z"/>
<path d="M1182 2368 c-7 -7 -12 -19 -12 -27 0 -29 64 -316 73 -328 12 -16 49
-17 65 -1 7 7 12 33 12 59 0 57 -46 255 -66 287 -16 24 -53 29 -72 10z"/>
<path d="M672 2328 c-19 -19 -15 -42 29 -140 22 -51 51 -122 64 -157 32 -85
62 -103 100 -61 18 20 18 22 1 78 -10 31 -31 82 -46 112 -15 30 -33 72 -39 92
-24 74 -75 110 -109 76z"/>
<path d="M1160 1713 c-117 -8 -294 -33 -312 -45 -19 -13 -19 -30 -20 -473 0
-454 0 -460 21 -473 16 -11 27 -12 52 -3 84 29 89 0 23 -135 -84 -173 -221
-285 -429 -352 -94 -30 -105 -37 -105 -66 0 -75 110 -59 313 46 70 37 119 71
160 111 97 97 191 264 206 365 6 45 8 47 46 54 22 3 85 9 140 13 104 7 220 27
267 46 16 6 32 24 38 42 18 48 27 841 10 862 -10 12 -41 15 -184 13 -94 -1
-196 -3 -226 -5z m324 -99 c3 -9 6 -54 6 -100 l0 -84 -62 0 c-73 0 -167 -7
-288 -21 -47 -5 -115 -9 -152 -9 l-68 0 0 89 c0 50 4 92 9 95 4 3 33 8 62 11
30 4 88 10 129 15 41 4 104 8 140 9 35 1 67 4 69 7 2 2 37 4 77 4 56 0 73 -3
78 -16z m3 -363 c-3 -49 -8 -94 -11 -100 -4 -7 -40 -11 -89 -11 -74 0 -412
-24 -448 -32 -11 -2 -14 15 -14 92 l0 95 95 8 c52 4 167 14 255 21 88 8 173
14 188 15 l28 1 -4 -89z m-13 -279 c-1 -41 -5 -77 -10 -82 -12 -12 -114 -27
-269 -40 -71 -6 -159 -16 -194 -22 -76 -13 -77 -11 -80 79 -3 103 -7 99 122
112 158 17 334 29 387 27 l45 -1 -1 -73z"/>
</g>
</svg>
