<?xml version="1.0" standalone="no"?>
<!DOCTYPE svg PUBLIC "-//W3C//DTD SVG 20010904//EN"
 "http://www.w3.org/TR/2001/REC-SVG-20010904/DTD/svg10.dtd">
<svg version="1.0" xmlns="http://www.w3.org/2000/svg"
 width="248.000000pt" height="248.000000pt" viewBox="0 0 248.000000 248.000000"
 preserveAspectRatio="xMidYMid meet">
<metadata>
Created by potrace 1.10, written by Peter Selinger 2001-2011
</metadata>
<g transform="translate(0.000000,248.000000) scale(0.100000,-0.100000)"
fill="#000000" stroke="none">
<path d="M1271 2366 c-9 -10 -12 -60 -10 -163 l2 -148 -39 -7 c-21 -4 -71 -7
-109 -7 -75 -1 -95 -11 -95 -47 0 -36 21 -43 136 -46 l109 -3 3 -71 c2 -49 -1
-74 -10 -81 -7 -5 -48 -15 -91 -21 -85 -11 -107 -23 -107 -57 0 -40 22 -48
114 -41 46 4 86 3 88 -1 3 -4 2 -39 -1 -77 -4 -47 -11 -71 -21 -77 -8 -4 -68
-19 -132 -34 -125 -28 -168 -51 -168 -90 0 -49 19 -51 178 -12 81 20 182 40
225 45 78 8 79 8 88 -17 6 -13 9 -49 7 -79 l-3 -55 -110 -24 c-173 -39 -157
-14 -161 -243 -2 -107 -7 -339 -12 -515 -4 -187 -4 -329 1 -342 5 -12 19 -24
30 -27 24 -6 57 9 57 27 1 262 25 946 35 973 5 15 140 48 155 39 9 -6 11 -71
9 -242 -3 -199 -2 -235 11 -243 21 -13 33 -12 56 4 18 13 19 32 24 254 3 132
7 243 10 245 9 9 257 30 274 24 14 -6 16 -49 16 -434 0 -235 -3 -445 -6 -465
-6 -34 -9 -37 -31 -32 -28 7 -63 -19 -63 -48 0 -10 19 -39 41 -63 33 -36 48
-45 75 -45 28 0 37 6 51 33 16 29 18 87 24 577 7 544 7 545 -13 563 -14 11
-31 16 -47 13 -14 -3 -93 -6 -176 -8 l-150 -3 0 75 0 75 75 7 c41 3 191 10
333 14 242 7 259 8 269 27 7 14 7 27 -1 43 l-11 24 -265 0 -265 0 0 88 c0 48
4 92 8 98 4 7 61 19 127 27 90 12 122 20 132 33 18 24 16 38 -5 64 -18 22 -21
22 -83 12 -35 -7 -89 -13 -119 -14 l-55 -3 -3 68 c-3 77 -2 79 98 91 30 4 93
15 140 26 47 10 102 21 123 25 26 4 40 13 46 28 20 53 -20 83 -91 68 -150 -32
-238 -49 -272 -54 l-39 -6 6 121 c7 130 3 148 -39 148 -41 0 -55 -37 -61 -165
-7 -136 0 -129 -134 -143 -56 -6 -82 -5 -84 2 -2 6 -6 71 -8 144 -3 84 -9 138
-17 147 -16 19 -54 19 -69 1z m304 -452 l0 -69 -80 -17 c-44 -9 -93 -17 -108
-17 l-28 -1 3 72 c3 68 5 73 28 80 29 8 160 26 175 23 6 -1 10 -33 10 -71z m3
-250 c5 -109 4 -110 -80 -118 -40 -4 -88 -9 -105 -13 l-33 -5 0 80 c0 54 4 84
13 89 13 9 176 41 192 38 6 -1 11 -33 13 -71z"/>
<path d="M559 2264 c-10 -12 -14 -80 -16 -277 -2 -144 -6 -272 -8 -283 -6 -29
-94 -46 -243 -48 -100 -1 -116 -4 -128 -21 -19 -26 -18 -41 6 -65 20 -20 57
-21 261 -5 l56 4 -38 -105 c-41 -114 -166 -353 -234 -449 -23 -33 -68 -83 -99
-112 -59 -55 -66 -72 -40 -97 71 -71 207 87 403 468 37 72 52 94 57 82 4 -10
4 -73 0 -139 -10 -205 -9 -988 2 -999 13 -13 60 -14 72 -2 5 5 11 281 14 613
3 332 8 606 11 609 2 3 28 -15 57 -40 93 -79 180 -138 202 -138 48 0 62 52 24
87 -13 12 -46 38 -74 60 -83 62 -208 183 -198 192 5 4 67 23 139 41 71 18 140
37 152 43 31 14 38 43 18 73 -20 30 -26 30 -160 -10 -49 -15 -106 -28 -125
-29 l-35 -2 0 270 c0 149 -4 276 -8 283 -11 17 -52 15 -68 -4z"/>
</g>
</svg>
