<?xml version="1.0" standalone="no"?>
<!DOCTYPE svg PUBLIC "-//W3C//DTD SVG 20010904//EN"
 "http://www.w3.org/TR/2001/REC-SVG-20010904/DTD/svg10.dtd">
<svg version="1.0" xmlns="http://www.w3.org/2000/svg"
 width="248.000000pt" height="248.000000pt" viewBox="0 0 248.000000 248.000000"
 preserveAspectRatio="xMidYMid meet">
<metadata>
Created by potrace 1.10, written by Peter Selinger 2001-2011
</metadata>
<g transform="translate(0.000000,248.000000) scale(0.100000,-0.100000)"
fill="#000000" stroke="none">
<path d="M1271 2366 c-9 -10 -12 -60 -10 -163 l2 -148 -39 -7 c-21 -4 -71 -7
-109 -7 -75 -1 -95 -11 -95 -47 0 -36 21 -43 136 -46 l109 -3 0 -233 c0 -196
2 -234 15 -242 21 -13 33 -12 56 4 18 13 19 31 24 247 l5 234 25 7 c36 10 174
26 183 21 4 -2 7 -114 7 -248 0 -237 1 -244 21 -259 22 -15 48 -11 61 8 4 6 8
125 8 264 l0 252 23 9 c12 4 47 11 77 15 30 4 93 15 140 26 47 10 102 21 123
25 26 4 40 13 46 28 20 53 -20 83 -91 68 -150 -32 -238 -49 -272 -54 l-39 -6
6 121 c7 130 3 148 -39 148 -41 0 -55 -37 -61 -165 -7 -136 0 -129 -134 -143
-56 -6 -82 -5 -84 2 -2 6 -6 71 -8 144 -3 84 -9 138 -17 147 -16 19 -54 19
-69 1z"/>
<path d="M559 2264 c-10 -12 -14 -80 -16 -277 -2 -144 -6 -272 -8 -283 -6 -29
-94 -46 -243 -48 -100 -1 -116 -4 -128 -21 -19 -26 -18 -41 6 -65 20 -20 57
-21 261 -5 l56 4 -38 -105 c-41 -114 -166 -353 -234 -449 -23 -33 -68 -83 -99
-112 -59 -55 -66 -72 -40 -97 71 -71 207 87 403 468 37 72 52 94 57 82 4 -10
4 -73 0 -139 -10 -205 -9 -988 2 -999 13 -13 60 -14 72 -2 5 5 11 281 14 613
3 332 8 606 11 609 2 3 28 -15 57 -40 93 -79 180 -138 202 -138 48 0 62 52 24
87 -13 12 -46 38 -74 60 -83 62 -208 183 -198 192 5 4 67 23 139 41 71 18 140
37 152 43 31 14 38 43 18 73 -20 30 -26 30 -160 -10 -49 -15 -106 -28 -125
-29 l-35 -2 0 270 c0 149 -4 276 -8 283 -11 17 -52 15 -68 -4z"/>
</g>
</svg>
