<?xml version="1.0" standalone="no"?>
<!DOCTYPE svg PUBLIC "-//W3C//DTD SVG 20010904//EN"
 "http://www.w3.org/TR/2001/REC-SVG-20010904/DTD/svg10.dtd">
<svg version="1.0" xmlns="http://www.w3.org/2000/svg"
 width="248.000000pt" height="248.000000pt" viewBox="0 0 248.000000 248.000000"
 preserveAspectRatio="xMidYMid meet">
<metadata>
Created by potrace 1.10, written by Peter Selinger 2001-2011
</metadata>
<g transform="translate(0.000000,248.000000) scale(0.100000,-0.100000)"
fill="#000000" stroke="none">
<path d="M1271 2366 c-9 -10 -12 -60 -10 -163 l2 -148 -39 -7 c-21 -4 -71 -7
-109 -7 -75 -1 -95 -11 -95 -47 0 -36 21 -43 136 -46 l109 -3 3 -71 c2 -49 -1
-74 -10 -81 -7 -5 -48 -15 -91 -21 -85 -11 -107 -23 -107 -57 0 -40 22 -48
114 -41 46 4 86 3 88 -1 3 -4 2 -39 -1 -77 -4 -47 -11 -71 -21 -77 -8 -4 -68
-19 -132 -34 -125 -28 -168 -51 -168 -90 0 -49 19 -51 178 -12 81 20 182 40
225 45 78 8 79 8 88 -17 6 -13 9 -49 7 -79 l-3 -55 -110 -24 c-60 -14 -121
-30 -134 -36 l-23 -12 -3 -225 c-2 -124 -6 -241 -10 -260 l-6 -35 -102 -18
c-56 -10 -112 -23 -124 -27 -41 -17 -38 -81 6 -95 10 -3 60 4 110 15 51 11 97
18 102 14 6 -4 10 -83 9 -207 -1 -111 1 -209 5 -219 13 -32 85 -28 85 5 0 7 1
107 3 224 1 116 5 214 8 217 14 14 327 62 465 72 100 7 101 7 107 -17 9 -31 9
-292 1 -341 -6 -34 -9 -37 -31 -32 -28 7 -63 -19 -63 -48 0 -10 19 -39 41 -63
33 -36 48 -45 75 -45 61 0 67 28 74 305 l5 240 85 -3 c47 -2 127 -10 177 -18
99 -16 128 -13 135 14 14 60 -31 80 -229 98 -85 8 -160 17 -166 21 -7 4 -8 86
-3 254 l7 248 -23 14 c-18 11 -56 12 -193 7 -93 -4 -174 -4 -178 0 -4 4 -7 38
-5 76 l3 69 75 7 c41 3 191 10 333 14 242 7 259 8 269 27 7 14 7 27 -1 43
l-11 24 -265 0 -265 0 0 88 c0 48 4 92 8 98 4 7 61 19 127 27 90 12 122 20
132 33 18 24 16 38 -5 64 -18 22 -21 22 -83 12 -35 -7 -89 -13 -119 -14 l-55
-3 -3 68 c-3 77 -2 79 98 91 30 4 93 15 140 26 47 10 102 21 123 25 26 4 40
13 46 28 20 53 -20 83 -91 68 -150 -32 -238 -49 -272 -54 l-39 -6 6 121 c7
130 3 148 -39 148 -41 0 -55 -37 -61 -165 -7 -136 0 -129 -134 -143 -56 -6
-82 -5 -84 2 -2 6 -6 71 -8 144 -3 84 -9 138 -17 147 -16 19 -54 19 -69 1z
m304 -452 l0 -69 -80 -17 c-44 -9 -93 -17 -108 -17 l-28 -1 3 72 c3 68 5 73
28 80 29 8 160 26 175 23 6 -1 10 -33 10 -71z m3 -250 c5 -109 4 -110 -80
-118 -40 -4 -88 -9 -105 -13 l-33 -5 0 80 c0 54 4 84 13 89 13 9 176 41 192
38 6 -1 11 -33 13 -71z m247 -544 l0 -85 -132 -19 c-73 -10 -139 -16 -147 -13
-12 5 -15 24 -13 91 1 46 4 87 7 89 8 9 171 25 230 23 l55 -1 0 -85z m-387
-25 c4 -99 -1 -115 -41 -115 -17 0 -51 -5 -75 -10 -24 -6 -46 -8 -50 -6 -4 2
-5 42 -2 88 l5 83 60 17 c96 27 99 25 103 -57z m387 -245 l0 -75 -140 -11
c-77 -6 -143 -9 -147 -7 -13 7 -9 120 5 131 12 10 225 42 262 39 18 -2 20 -9
20 -77z m-387 -21 c5 -79 -7 -95 -81 -108 -104 -18 -98 -21 -95 61 l3 73 55
11 c30 7 69 11 85 11 28 -2 30 -5 33 -48z"/>
<path d="M559 2264 c-10 -12 -14 -80 -16 -277 -2 -144 -6 -272 -8 -283 -6 -29
-94 -46 -243 -48 -100 -1 -116 -4 -128 -21 -19 -26 -18 -41 6 -65 20 -20 57
-21 261 -5 l56 4 -38 -105 c-41 -114 -166 -353 -234 -449 -23 -33 -68 -83 -99
-112 -59 -55 -66 -72 -40 -97 71 -71 207 87 403 468 37 72 52 94 57 82 4 -10
4 -73 0 -139 -10 -205 -9 -988 2 -999 13 -13 60 -14 72 -2 5 5 11 281 14 613
3 332 8 606 11 609 2 3 28 -15 57 -40 93 -79 180 -138 202 -138 48 0 62 52 24
87 -13 12 -46 38 -74 60 -83 62 -208 183 -198 192 5 4 67 23 139 41 71 18 140
37 152 43 31 14 38 43 18 73 -20 30 -26 30 -160 -10 -49 -15 -106 -28 -125
-29 l-35 -2 0 270 c0 149 -4 276 -8 283 -11 17 -52 15 -68 -4z"/>
</g>
</svg>
