<?xml version="1.0" standalone="no"?>
<!DOCTYPE svg PUBLIC "-//W3C//DTD SVG 20010904//EN"
 "http://www.w3.org/TR/2001/REC-SVG-20010904/DTD/svg10.dtd">
<svg version="1.0" xmlns="http://www.w3.org/2000/svg"
 width="248.000000pt" height="248.000000pt" viewBox="0 0 248.000000 248.000000"
 preserveAspectRatio="xMidYMid meet">
<metadata>
Created by potrace 1.10, written by Peter Selinger 2001-2011
</metadata>
<g transform="translate(0.000000,248.000000) scale(0.100000,-0.100000)"
fill="#000000" stroke="none">
<path d="M855 1764 c-46 -17 -251 -68 -369 -91 -45 -9 -132 -16 -194 -17 -100
-1 -115 -3 -128 -20 -19 -27 -18 -42 5 -65 18 -18 31 -19 138 -14 65 2 156 11
203 19 96 17 392 91 427 107 31 14 38 43 19 72 -19 28 -43 30 -101 9z"/>
</g>
</svg>
