<?xml version="1.0" standalone="no"?>
<!DOCTYPE svg PUBLIC "-//W3C//DTD SVG 20010904//EN"
 "http://www.w3.org/TR/2001/REC-SVG-20010904/DTD/svg10.dtd">
<svg version="1.0" xmlns="http://www.w3.org/2000/svg"
 width="248.000000pt" height="248.000000pt" viewBox="0 0 248.000000 248.000000"
 preserveAspectRatio="xMidYMid meet">
<metadata>
Created by potrace 1.10, written by Peter Selinger 2001-2011
</metadata>
<g transform="translate(0.000000,248.000000) scale(0.100000,-0.100000)"
fill="#000000" stroke="none">
<path d="M559 2264 c-10 -12 -14 -80 -16 -277 -2 -144 -6 -272 -8 -283 -6 -29
-94 -46 -243 -48 -100 -1 -116 -4 -128 -21 -19 -26 -18 -41 6 -65 20 -20 57
-21 261 -5 l56 4 -38 -105 c-41 -114 -166 -353 -234 -449 -23 -33 -68 -83 -99
-112 -59 -55 -66 -72 -40 -97 71 -71 207 87 403 468 37 72 52 94 57 82 4 -10
4 -73 0 -139 -10 -205 -9 -988 2 -999 13 -13 60 -14 72 -2 5 5 11 281 14 613
3 332 8 606 11 609 2 3 28 -15 57 -40 93 -79 180 -138 202 -138 48 0 62 52 24
87 -13 12 -46 38 -74 60 -83 62 -208 183 -198 192 5 4 67 23 139 41 71 18 140
37 152 43 31 14 38 43 18 73 -20 30 -26 30 -160 -10 -49 -15 -106 -28 -125
-29 l-35 -2 0 270 c0 149 -4 276 -8 283 -11 17 -52 15 -68 -4z"/>
</g>
</svg>
