<?xml version="1.0" standalone="no"?>
<!DOCTYPE svg PUBLIC "-//W3C//DTD SVG 20010904//EN"
 "http://www.w3.org/TR/2001/REC-SVG-20010904/DTD/svg10.dtd">
<svg version="1.0" xmlns="http://www.w3.org/2000/svg"
 width="248.000000pt" height="248.000000pt" viewBox="0 0 248.000000 248.000000"
 preserveAspectRatio="xMidYMid meet">
<metadata>
Created by potrace 1.10, written by Peter Selinger 2001-2011
</metadata>
<g transform="translate(0.000000,248.000000) scale(0.100000,-0.100000)"
fill="#000000" stroke="none">
<path d="M572 2337 c-6 -7 -16 -35 -22 -62 -13 -56 -136 -308 -180 -370 -73
-103 -130 -197 -130 -213 0 -41 63 -58 92 -24 23 26 168 242 168 250 0 4 10
19 23 33 17 21 39 30 107 42 55 11 88 13 94 7 7 -7 -1 -57 -23 -143 -46 -185
-36 -170 -128 -190 -43 -9 -94 -17 -113 -17 -54 0 -85 -20 -85 -55 0 -47 38
-60 133 -46 41 6 76 10 78 8 4 -4 -117 -214 -170 -293 -83 -124 -120 -174
-180 -242 -32 -37 -65 -77 -73 -89 -27 -40 11 -92 55 -75 23 8 131 131 205
232 l47 65 0 -217 c0 -118 -5 -329 -11 -467 -11 -284 -8 -306 46 -306 22 0 33
7 41 25 14 29 34 493 34 770 l0 185 73 2 c39 1 110 9 157 18 47 8 134 22 194
30 60 8 115 20 122 26 24 19 17 68 -10 80 -22 10 -151 0 -223 -18 -22 -5 -23
-3 -23 69 0 78 -9 98 -45 98 -38 0 -56 -32 -62 -113 l-6 -75 -56 -6 c-31 -4
-72 -9 -93 -12 -34 -5 -37 -3 -43 25 -5 22 0 39 18 68 46 73 127 221 127 231
0 12 51 28 120 36 290 37 324 47 318 93 -5 47 -23 49 -205 26 -92 -11 -169
-20 -170 -19 -1 0 12 55 28 121 16 66 29 138 29 161 l0 42 98 12 c180 22 222
38 222 85 0 45 -22 50 -138 32 -59 -9 -147 -22 -197 -28 -49 -7 -117 -18 -150
-25 -33 -7 -62 -11 -64 -8 -2 2 9 37 24 76 32 79 37 136 16 162 -16 19 -54 21
-69 3z"/>
</g>
</svg>
