<?xml version="1.0" standalone="no"?>
<!DOCTYPE svg PUBLIC "-//W3C//DTD SVG 20010904//EN"
 "http://www.w3.org/TR/2001/REC-SVG-20010904/DTD/svg10.dtd">
<svg version="1.0" xmlns="http://www.w3.org/2000/svg"
 width="248.000000pt" height="248.000000pt" viewBox="0 0 248.000000 248.000000"
 preserveAspectRatio="xMidYMid meet">
<metadata>
Created by potrace 1.10, written by Peter Selinger 2001-2011
</metadata>
<g transform="translate(0.000000,248.000000) scale(0.100000,-0.100000)"
fill="#000000" stroke="none">
<path d="M1505 2400 c-61 -43 -364 -180 -630 -287 -132 -53 -248 -103 -257
-111 -35 -29 -16 -82 28 -82 73 0 859 343 935 408 86 74 19 139 -76 72z"/>
<path d="M1715 1925 c-14 -5 -367 -51 -540 -70 -77 -8 -149 -17 -161 -20 -43
-10 -314 -47 -437 -60 -139 -15 -177 -30 -177 -69 0 -42 21 -49 128 -42 88 6
169 17 452 61 52 8 140 19 195 25 309 31 590 73 611 91 17 14 18 53 1 67 -14
12 -58 22 -72 17z"/>
</g>
</svg>
