<?xml version="1.0" standalone="no"?>
<!DOCTYPE svg PUBLIC "-//W3C//DTD SVG 20010904//EN"
 "http://www.w3.org/TR/2001/REC-SVG-20010904/DTD/svg10.dtd">
<svg version="1.0" xmlns="http://www.w3.org/2000/svg"
 width="248.000000pt" height="248.000000pt" viewBox="0 0 248.000000 248.000000"
 preserveAspectRatio="xMidYMid meet">
<metadata>
Created by potrace 1.10, written by Peter Selinger 2001-2011
</metadata>
<g transform="translate(0.000000,248.000000) scale(0.100000,-0.100000)"
fill="#000000" stroke="none">
<path d="M1906 2278 c-7 -13 -17 -48 -21 -78 -12 -99 -36 -170 -59 -175 -12
-2 -95 -9 -186 -15 -91 -6 -196 -16 -234 -21 -50 -7 -71 -7 -76 1 -4 7 -10 59
-14 118 -7 114 -19 142 -61 142 -41 0 -46 -18 -36 -146 6 -86 6 -122 -3 -131
-6 -7 -59 -15 -126 -19 -63 -4 -121 -11 -127 -17 -19 -14 -16 -52 7 -72 18
-16 32 -17 117 -11 54 4 107 8 118 9 18 2 21 -6 28 -78 9 -86 25 -115 62 -115
40 0 48 22 40 119 l-7 88 44 7 c121 16 427 40 434 34 3 -3 -5 -44 -18 -92 -19
-73 -21 -89 -10 -107 7 -12 12 -23 9 -25 -2 -2 -64 -11 -138 -19 -505 -56
-616 -79 -636 -132 -8 -20 7 -91 42 -206 22 -73 31 -90 55 -102 36 -19 84 -19
180 -1 41 8 136 19 210 26 74 6 176 15 227 21 50 5 117 9 149 9 l58 0 66 68
c73 76 170 232 170 273 0 52 -18 59 -168 60 -75 1 -141 1 -146 0 -5 -1 -5 6
-1 16 4 10 20 60 34 111 15 50 31 96 37 102 5 5 84 17 174 25 205 20 209 21
219 47 24 65 -15 80 -155 63 -173 -21 -204 -23 -204 -13 0 5 9 55 20 110 19
92 20 102 5 124 -20 31 -60 32 -79 2z m134 -686 c0 -15 -52 -95 -91 -141 -47
-57 -79 -71 -158 -71 -71 0 -268 -17 -436 -37 -203 -25 -184 -30 -211 52 -30
88 -28 109 10 112 15 1 60 9 100 17 39 8 141 22 226 31 85 9 202 23 260 29
113 14 300 18 300 8z"/>
<path d="M526 2177 c-31 -22 -23 -63 21 -110 129 -137 191 -197 205 -197 23 0
48 28 48 54 0 26 -216 266 -240 266 -9 0 -24 -6 -34 -13z"/>
<path d="M140 1396 c-36 -44 31 -98 228 -182 124 -53 155 -52 160 3 4 35 -9
45 -110 83 -29 11 -89 40 -132 65 -82 46 -125 56 -146 31z"/>
<path d="M1665 1100 c-121 -10 -296 -24 -390 -31 -93 -7 -176 -17 -182 -22
-16 -12 -17 -49 -1 -65 15 -15 217 -16 338 -2 47 6 128 12 180 15 52 3 106 8
120 11 14 2 63 5 110 5 95 1 130 15 130 53 0 55 -30 59 -305 36z"/>
<path d="M2025 818 c-49 -3 -209 -11 -355 -17 -146 -6 -321 -16 -390 -21 -146
-13 -354 -46 -390 -64 -35 -17 -39 -60 -6 -81 23 -15 33 -14 153 9 70 14 191
30 268 36 77 6 167 13 200 15 33 3 150 7 260 10 110 4 234 10 275 16 41 5 97
8 124 7 37 -2 51 2 62 17 14 18 11 51 -7 69 -10 11 -77 13 -194 4z"/>
<path d="M594 788 c-11 -13 -33 -43 -49 -68 -15 -25 -56 -78 -89 -118 -254
-306 -258 -312 -236 -351 8 -16 20 -21 48 -21 41 0 62 14 62 41 0 19 46 80
166 219 95 111 184 243 184 274 0 48 -53 62 -86 24z"/>
</g>
</svg>
