<?xml version="1.0" standalone="no"?>
<!DOCTYPE svg PUBLIC "-//W3C//DTD SVG 20010904//EN"
 "http://www.w3.org/TR/2001/REC-SVG-20010904/DTD/svg10.dtd">
<svg version="1.0" xmlns="http://www.w3.org/2000/svg"
 width="248.000000pt" height="248.000000pt" viewBox="0 0 248.000000 248.000000"
 preserveAspectRatio="xMidYMid meet">
<metadata>
Created by potrace 1.10, written by Peter Selinger 2001-2011
</metadata>
<g transform="translate(0.000000,248.000000) scale(0.100000,-0.100000)"
fill="#000000" stroke="none">
<path d="M686 2292 c-9 -11 -20 -48 -25 -88 -8 -65 -35 -168 -80 -309 -29 -94
-84 -214 -130 -284 -46 -71 -50 -99 -21 -126 31 -28 60 -8 113 78 38 60 113
221 140 298 4 12 27 17 104 23 54 3 132 11 173 16 41 5 147 17 235 25 88 9
225 24 305 35 80 10 189 23 242 28 54 5 104 15 113 22 23 19 18 57 -9 75 -22
15 -38 15 -138 5 -62 -6 -142 -15 -178 -20 -59 -8 -288 -34 -530 -60 -52 -6
-137 -13 -189 -17 -89 -6 -93 -5 -87 13 42 136 58 268 34 292 -18 18 -53 15
-72 -6z"/>
</g>
</svg>
