<?xml version="1.0" standalone="no"?>
<!DOCTYPE svg PUBLIC "-//W3C//DTD SVG 20010904//EN"
 "http://www.w3.org/TR/2001/REC-SVG-20010904/DTD/svg10.dtd">
<svg version="1.0" xmlns="http://www.w3.org/2000/svg"
 width="248.000000pt" height="248.000000pt" viewBox="0 0 248.000000 248.000000"
 preserveAspectRatio="xMidYMid meet">
<metadata>
Created by potrace 1.10, written by Peter Selinger 2001-2011
</metadata>
<g transform="translate(0.000000,248.000000) scale(0.100000,-0.100000)"
fill="#000000" stroke="none">
<path d="M1906 2278 c-7 -13 -17 -48 -21 -78 -12 -99 -36 -170 -59 -175 -12
-2 -95 -9 -186 -15 -91 -6 -196 -16 -234 -21 -50 -7 -71 -7 -76 1 -4 7 -10 59
-14 118 -7 114 -19 142 -61 142 -41 0 -46 -18 -36 -146 6 -86 6 -122 -3 -131
-6 -7 -59 -15 -126 -19 -63 -4 -121 -11 -127 -17 -19 -14 -16 -52 7 -72 18
-16 32 -17 117 -11 54 4 107 8 118 9 18 2 21 -6 28 -78 9 -86 25 -115 62 -115
40 0 48 22 40 119 l-7 88 44 7 c121 16 427 40 434 34 3 -3 -5 -44 -18 -92 -19
-73 -21 -89 -10 -107 7 -12 12 -23 9 -25 -2 -2 -64 -11 -138 -19 -505 -56
-616 -79 -636 -132 -8 -20 7 -91 42 -206 22 -73 31 -90 55 -102 37 -19 84 -19
183 0 43 8 97 15 119 15 l41 0 -7 -77 c-4 -43 -11 -82 -16 -87 -4 -4 -80 -13
-167 -20 -87 -6 -164 -15 -170 -19 -18 -11 -16 -52 2 -67 10 -8 59 -11 167 -9
87 1 153 -2 152 -7 -5 -49 -42 -167 -54 -174 -8 -4 -58 -10 -110 -14 -112 -7
-325 -43 -360 -60 -35 -17 -39 -60 -6 -81 23 -15 32 -15 148 8 124 25 308 45
308 33 0 -21 -67 -133 -116 -195 -63 -78 -110 -109 -249 -161 -64 -23 -70 -28
-73 -56 -2 -19 3 -36 13 -44 24 -20 110 3 218 58 79 40 99 56 161 129 51 61
83 111 116 182 l45 99 60 6 c33 3 148 8 255 11 107 4 229 10 270 16 41 5 97 8
124 7 37 -2 51 2 62 17 14 19 10 51 -8 70 -10 11 -149 9 -318 -5 -148 -12
-415 -15 -415 -4 0 5 9 48 20 97 20 89 25 95 76 89 3 -1 48 3 100 9 52 5 128
10 169 10 85 1 120 16 120 53 0 53 -48 59 -304 35 -60 -5 -113 -6 -117 -2 -5
5 -5 44 -1 88 l7 80 80 7 c44 3 130 10 190 14 l110 6 65 67 c73 74 170 230
170 272 0 52 -18 59 -168 60 -75 1 -141 1 -146 0 -5 -1 -5 6 -1 16 4 10 20 60
34 111 15 50 31 96 37 102 5 5 84 17 174 25 205 20 209 21 219 47 24 65 -15
80 -155 63 -173 -21 -204 -23 -204 -13 0 5 9 55 20 110 19 92 20 102 5 124
-20 31 -60 32 -79 2z m134 -686 c0 -15 -52 -95 -91 -141 -49 -59 -78 -71 -173
-71 -39 -1 -102 -5 -141 -10 -38 -5 -74 -5 -78 -1 -4 4 -9 47 -10 96 -2 69 1
89 13 95 39 21 480 50 480 32z m-597 -59 c3 -10 5 -53 6 -95 0 -89 14 -79
-134 -99 -155 -21 -145 -24 -171 56 -30 88 -28 109 9 112 15 1 63 9 105 17
157 31 179 32 185 9z"/>
<path d="M526 2177 c-31 -22 -23 -63 21 -110 129 -137 191 -197 205 -197 23 0
48 28 48 54 0 26 -216 266 -240 266 -9 0 -24 -6 -34 -13z"/>
<path d="M140 1396 c-36 -44 31 -98 228 -182 124 -53 155 -52 160 3 4 35 -9
45 -110 83 -29 11 -89 40 -132 65 -82 46 -125 56 -146 31z"/>
<path d="M594 788 c-11 -13 -33 -43 -49 -68 -15 -25 -56 -78 -89 -118 -254
-306 -258 -312 -236 -351 8 -16 20 -21 48 -21 41 0 62 14 62 41 0 19 46 80
166 219 95 111 184 243 184 274 0 48 -53 62 -86 24z"/>
</g>
</svg>
