<?xml version="1.0" standalone="no"?>
<!DOCTYPE svg PUBLIC "-//W3C//DTD SVG 20010904//EN"
 "http://www.w3.org/TR/2001/REC-SVG-20010904/DTD/svg10.dtd">
<svg version="1.0" xmlns="http://www.w3.org/2000/svg"
 width="248.000000pt" height="248.000000pt" viewBox="0 0 248.000000 248.000000"
 preserveAspectRatio="xMidYMid meet">
<metadata>
Created by potrace 1.10, written by Peter Selinger 2001-2011
</metadata>
<g transform="translate(0.000000,248.000000) scale(0.100000,-0.100000)"
fill="#000000" stroke="none">
<path d="M1906 2278 c-7 -13 -16 -48 -20 -79 -10 -91 -38 -174 -61 -176 -11
-1 -94 -7 -185 -13 -91 -6 -196 -16 -234 -21 -51 -7 -71 -7 -76 2 -4 6 -11 57
-15 113 -7 111 -22 146 -59 146 -42 0 -47 -17 -37 -146 9 -122 5 -143 -27
-142 -59 0 -219 -16 -229 -25 -18 -14 -16 -53 4 -73 17 -17 43 -17 233 -1 24
2 25 -1 33 -78 9 -86 25 -115 62 -115 40 0 48 22 40 118 l-7 89 89 11 c133 17
383 35 390 29 3 -4 0 -26 -7 -49 -35 -123 -36 -139 -12 -158 25 -20 58 -16 71
9 5 9 21 58 35 110 14 51 27 95 28 96 2 2 80 11 173 20 94 9 180 19 193 21 25
5 42 38 34 67 -8 32 -45 37 -159 22 -164 -21 -203 -24 -203 -13 0 5 9 54 20
108 24 118 18 150 -30 150 -20 0 -34 -7 -44 -22z"/>
<path d="M534 2182 c-20 -13 -32 -46 -23 -67 13 -32 223 -245 241 -245 23 0
48 28 48 54 0 26 -216 266 -240 266 -8 0 -20 -4 -26 -8z"/>
<path d="M140 1396 c-24 -30 -7 -58 58 -98 71 -43 264 -128 291 -128 26 0 43
24 39 57 -3 24 -14 32 -111 74 -59 26 -130 61 -156 78 -51 33 -101 40 -121 17z"/>
<path d="M593 788 c-11 -13 -30 -41 -43 -62 -13 -22 -84 -112 -157 -200 -179
-215 -189 -230 -177 -264 16 -47 114 -41 114 7 0 20 51 87 167 223 94 109 183
242 183 272 0 48 -52 62 -87 24z"/>
</g>
</svg>
