<?xml version="1.0" standalone="no"?>
<!DOCTYPE svg PUBLIC "-//W3C//DTD SVG 20010904//EN"
 "http://www.w3.org/TR/2001/REC-SVG-20010904/DTD/svg10.dtd">
<svg version="1.0" xmlns="http://www.w3.org/2000/svg"
 width="248.000000pt" height="248.000000pt" viewBox="0 0 248.000000 248.000000"
 preserveAspectRatio="xMidYMid meet">
<metadata>
Created by potrace 1.10, written by Peter Selinger 2001-2011
</metadata>
<g transform="translate(0.000000,248.000000) scale(0.100000,-0.100000)"
fill="#000000" stroke="none">
<path d="M1906 2278 c-7 -13 -17 -48 -20 -78 -12 -99 -36 -170 -60 -174 -11
-3 -95 -10 -186 -16 -91 -6 -196 -16 -233 -21 -38 -5 -72 -7 -76 -4 -5 2 -11
55 -15 117 -8 121 -19 148 -61 148 -41 0 -46 -18 -36 -146 5 -68 5 -124 0
-130 -9 -12 -136 -27 -202 -24 -45 1 -67 -13 -67 -46 0 -53 64 -67 205 -44 32
5 62 6 66 2 4 -4 10 -40 13 -81 7 -81 23 -111 61 -111 40 0 48 22 40 119 l-7
89 84 11 c119 15 388 34 395 28 3 -4 0 -26 -6 -49 -33 -116 -35 -129 -22 -150
7 -11 11 -22 9 -24 -2 -2 -49 -8 -104 -15 -353 -39 -565 -71 -617 -91 -68 -27
-71 -50 -23 -214 48 -164 61 -172 246 -139 47 8 102 15 124 15 l39 0 -7 -77
c-4 -43 -11 -81 -15 -86 -9 -9 -182 -26 -266 -27 -65 0 -85 -11 -85 -46 0 -41
20 -46 182 -43 175 3 160 15 131 -104 -10 -38 -24 -72 -33 -77 -8 -4 -60 -11
-115 -15 -55 -4 -145 -15 -200 -26 -55 -10 -110 -19 -123 -19 -13 0 -34 -11
-48 -25 -20 -20 -23 -29 -14 -45 21 -40 42 -42 177 -15 131 25 303 43 303 31
0 -21 -66 -132 -115 -193 -61 -77 -118 -114 -250 -163 -68 -25 -70 -27 -70
-59 0 -70 59 -66 223 15 83 40 100 54 162 127 43 50 86 114 110 165 22 45 42
82 45 82 4 0 43 -31 88 -68 100 -83 204 -155 373 -259 145 -88 211 -119 275
-129 24 -3 79 -15 121 -25 86 -21 105 -18 115 19 12 50 -25 71 -174 97 -105
18 -129 29 -282 122 -196 120 -411 276 -398 290 4 3 410 22 581 28 54 1 72 6
82 20 18 24 18 36 0 60 -12 16 -25 18 -102 16 -49 -1 -141 -6 -204 -11 -150
-12 -435 -14 -435 -3 0 4 9 47 20 95 l19 87 56 5 c109 11 276 20 308 17 46 -4
84 23 80 57 -6 49 -33 53 -233 37 -98 -8 -182 -12 -187 -9 -8 5 -3 96 7 150 5
22 -5 21 298 43 l89 6 61 66 c71 75 167 230 167 269 0 53 -22 60 -179 60 -133
0 -143 1 -136 18 4 9 20 59 34 110 15 50 31 96 37 101 9 9 126 25 264 36 41 3
85 8 98 11 25 5 42 38 34 67 -8 32 -45 37 -159 22 -60 -7 -130 -16 -157 -18
l-48 -5 6 32 c33 178 34 190 24 212 -15 32 -62 33 -82 2z m134 -685 c0 -13
-54 -99 -89 -141 -50 -61 -76 -72 -168 -72 -43 -1 -109 -5 -148 -10 -38 -5
-73 -5 -78 -1 -14 13 -18 179 -4 188 33 21 487 55 487 36z m-592 -140 c3 -107
18 -94 -133 -114 -157 -21 -145 -26 -173 63 -13 43 -22 85 -18 93 3 9 19 15
38 16 18 0 76 9 128 19 52 10 109 18 125 17 l30 -2 3 -92z"/>
<path d="M528 2179 c-11 -6 -18 -22 -18 -42 0 -27 17 -50 113 -149 63 -65 121
-118 130 -118 22 0 47 28 47 54 0 26 -216 266 -240 266 -8 0 -23 -5 -32 -11z"/>
<path d="M140 1396 c-25 -31 -7 -59 65 -101 81 -48 257 -125 284 -125 26 0 43
24 39 57 -3 24 -14 32 -111 74 -59 26 -130 61 -156 78 -51 33 -101 40 -121 17z"/>
<path d="M594 788 c-11 -13 -33 -43 -49 -68 -15 -25 -56 -78 -89 -118 -254
-306 -258 -312 -236 -351 8 -16 20 -21 50 -21 40 0 48 6 65 52 6 15 62 90 125
165 132 159 220 284 220 317 0 48 -52 62 -86 24z"/>
</g>
</svg>
