<?xml version="1.0" standalone="no"?>
<!DOCTYPE svg PUBLIC "-//W3C//DTD SVG 20010904//EN"
 "http://www.w3.org/TR/2001/REC-SVG-20010904/DTD/svg10.dtd">
<svg version="1.0" xmlns="http://www.w3.org/2000/svg"
 width="248.000000pt" height="248.000000pt" viewBox="0 0 248.000000 248.000000"
 preserveAspectRatio="xMidYMid meet">
<metadata>
Created by potrace 1.10, written by Peter Selinger 2001-2011
</metadata>
<g transform="translate(0.000000,248.000000) scale(0.100000,-0.100000)"
fill="#000000" stroke="none">
<path d="M534 2182 c-20 -13 -32 -46 -23 -67 13 -32 223 -245 241 -245 23 0
48 28 48 54 0 26 -216 266 -240 266 -8 0 -20 -4 -26 -8z"/>
<path d="M2195 2060 c-63 -11 -329 -35 -550 -50 -93 -6 -215 -17 -270 -25
-113 -16 -169 -22 -305 -31 -103 -7 -120 -14 -120 -50 0 -37 26 -54 82 -54 49
0 85 4 353 35 66 8 183 19 260 25 438 31 652 53 666 67 14 14 15 61 2 74 -14
14 -64 18 -118 9z"/>
<path d="M140 1396 c-24 -30 -7 -58 58 -98 71 -43 264 -128 291 -128 26 0 43
24 39 57 -3 24 -14 32 -111 74 -59 26 -130 61 -156 78 -51 33 -101 40 -121 17z"/>
<path d="M593 788 c-11 -13 -30 -41 -43 -62 -13 -22 -84 -112 -157 -200 -179
-215 -189 -230 -177 -264 16 -47 114 -41 114 7 0 20 51 87 167 223 94 109 183
242 183 272 0 48 -52 62 -87 24z"/>
</g>
</svg>
