<?xml version="1.0" standalone="no"?>
<!DOCTYPE svg PUBLIC "-//W3C//DTD SVG 20010904//EN"
 "http://www.w3.org/TR/2001/REC-SVG-20010904/DTD/svg10.dtd">
<svg version="1.0" xmlns="http://www.w3.org/2000/svg"
 width="248.000000pt" height="248.000000pt" viewBox="0 0 248.000000 248.000000"
 preserveAspectRatio="xMidYMid meet">
<metadata>
Created by potrace 1.10, written by Peter Selinger 2001-2011
</metadata>
<g transform="translate(0.000000,248.000000) scale(0.100000,-0.100000)"
fill="#000000" stroke="none">
<path d="M1448 2298 c-9 -7 -33 -53 -53 -103 -20 -49 -62 -139 -93 -198 -59
-112 -60 -125 -19 -151 27 -17 61 11 100 84 34 61 40 68 75 73 60 10 282 20
282 14 0 -17 -105 -196 -131 -222 -46 -49 -35 -95 24 -95 21 0 39 10 61 33 27
29 111 172 155 265 18 37 20 38 159 51 63 6 113 16 128 26 32 21 32 60 -1 81
-22 14 -33 15 -83 5 -31 -6 -142 -18 -247 -26 -104 -8 -220 -17 -257 -20 -44
-3 -68 -1 -68 5 0 6 11 37 25 70 19 45 23 65 16 83 -14 35 -46 46 -73 25z"/>
<path d="M539 2249 c-12 -12 -46 -74 -76 -137 -30 -64 -86 -162 -125 -219 -71
-104 -80 -135 -47 -156 32 -20 65 1 119 78 29 41 60 77 69 79 38 11 170 35
211 38 l45 3 37 -113 c20 -62 42 -120 48 -128 16 -19 54 -18 70 1 19 22 14 58
-19 162 -26 82 -27 93 -12 97 9 2 72 12 141 22 135 19 163 32 158 73 -5 46
-39 52 -163 31 -175 -29 -446 -63 -453 -56 -3 4 15 48 41 99 26 51 47 99 47
108 0 41 -57 52 -91 18z"/>
<path d="M825 1604 c-204 -30 -323 -44 -365 -44 -25 0 -56 -7 -68 -16 -25 -18
-29 -56 -7 -74 14 -11 15 -66 14 -434 -2 -401 -6 -518 -27 -756 -10 -110 -5
-134 28 -145 52 -16 75 30 79 155 1 41 7 106 13 145 5 38 13 283 17 544 l6
475 40 8 c48 9 339 47 342 45 1 -1 -5 -45 -12 -97 -8 -52 -21 -165 -30 -250
-8 -85 -18 -178 -21 -206 -6 -46 -4 -53 15 -64 27 -14 57 -5 76 24 9 14 20 82
30 186 16 176 28 280 45 382 13 85 13 104 -6 122 -18 18 -44 18 -169 0z"/>
</g>
</svg>
