<?xml version="1.0" standalone="no"?>
<!DOCTYPE svg PUBLIC "-//W3C//DTD SVG 20010904//EN"
 "http://www.w3.org/TR/2001/REC-SVG-20010904/DTD/svg10.dtd">
<svg version="1.0" xmlns="http://www.w3.org/2000/svg"
 width="248.000000pt" height="248.000000pt" viewBox="0 0 248.000000 248.000000"
 preserveAspectRatio="xMidYMid meet">
<metadata>
Created by potrace 1.10, written by Peter Selinger 2001-2011
</metadata>
<g transform="translate(0.000000,248.000000) scale(0.100000,-0.100000)"
fill="#000000" stroke="none">
<path d="M1113 2368 c-15 -19 -24 -403 -10 -417 6 -6 21 -11 34 -11 43 0 52
32 59 217 6 151 5 175 -10 197 -18 28 -57 35 -73 14z"/>
<path d="M450 1913 c-12 -15 -18 -33 -14 -42 3 -9 8 -90 10 -181 2 -143 5
-166 20 -177 23 -16 36 -16 59 0 16 13 18 31 18 202 -1 183 -2 190 -23 207
-30 25 -45 23 -70 -9z"/>
</g>
</svg>
