<?xml version="1.0" standalone="no"?>
<!DOCTYPE svg PUBLIC "-//W3C//DTD SVG 20010904//EN"
 "http://www.w3.org/TR/2001/REC-SVG-20010904/DTD/svg10.dtd">
<svg version="1.0" xmlns="http://www.w3.org/2000/svg"
 width="248.000000pt" height="248.000000pt" viewBox="0 0 248.000000 248.000000"
 preserveAspectRatio="xMidYMid meet">
<metadata>
Created by potrace 1.10, written by Peter Selinger 2001-2011
</metadata>
<g transform="translate(0.000000,248.000000) scale(0.100000,-0.100000)"
fill="#000000" stroke="none">
<path d="M1112 2368 c-8 -8 -12 -59 -13 -157 -1 -81 -4 -159 -8 -176 -6 -29
-9 -30 -76 -38 -39 -4 -153 -21 -255 -38 -122 -21 -203 -29 -237 -26 -48 5
-55 3 -73 -21 -12 -15 -18 -32 -14 -41 3 -9 8 -90 10 -181 2 -143 5 -166 20
-177 23 -17 36 -16 60 1 18 13 19 25 16 160 -3 115 -1 147 10 150 7 2 65 12
128 21 63 9 149 23 190 30 41 8 109 17 150 20 41 4 104 11 139 16 194 30 793
68 847 55 23 -6 21 -9 -45 -94 -38 -48 -95 -113 -125 -145 -31 -32 -56 -63
-56 -68 0 -28 22 -49 52 -49 38 0 101 61 212 204 114 146 128 199 62 233 -27
14 -65 15 -321 10 -159 -4 -355 -13 -434 -21 -80 -8 -148 -13 -153 -10 -4 3
-4 72 -1 154 5 129 4 152 -11 174 -18 28 -54 34 -74 14z"/>
<path d="M1495 1633 c-157 -43 -406 -84 -622 -103 -64 -6 -123 -16 -130 -22
-20 -16 -12 -61 13 -73 43 -21 418 20 634 69 174 40 190 45 199 69 21 55 -19
81 -94 60z"/>
<path d="M1370 1200 c-128 -14 -519 -84 -757 -135 -45 -10 -51 -82 -7 -99 9
-3 81 7 160 24 80 17 148 28 153 25 36 -22 -62 -282 -159 -425 -52 -75 -222
-238 -295 -281 -47 -27 -61 -41 -63 -63 -4 -33 13 -56 42 -56 27 0 156 83 225
146 104 94 178 192 245 323 74 146 106 241 106 317 0 41 4 55 18 62 27 14 191
46 199 38 4 -3 -1 -46 -10 -94 -30 -159 -37 -229 -37 -397 0 -184 6 -207 71
-273 42 -43 85 -64 180 -91 63 -18 102 -21 245 -21 181 1 203 4 363 53 111 33
163 70 173 119 6 34 -20 177 -40 218 -19 40 -60 52 -82 25 -11 -13 -11 -28 -2
-73 23 -118 25 -147 9 -161 -23 -19 -205 -68 -299 -81 -142 -20 -335 3 -429
51 -21 10 -50 35 -66 55 -25 33 -28 46 -31 134 -4 100 16 295 43 422 8 37 15
80 15 97 0 16 3 32 8 34 9 6 330 35 409 36 41 1 61 31 44 67 -10 24 -13 24
-138 23 -71 -1 -202 -9 -293 -19z"/>
</g>
</svg>
