<?xml version="1.0" standalone="no"?>
<!DOCTYPE svg PUBLIC "-//W3C//DTD SVG 20010904//EN"
 "http://www.w3.org/TR/2001/REC-SVG-20010904/DTD/svg10.dtd">
<svg version="1.0" xmlns="http://www.w3.org/2000/svg"
 width="248.000000pt" height="248.000000pt" viewBox="0 0 248.000000 248.000000"
 preserveAspectRatio="xMidYMid meet">
<metadata>
Created by potrace 1.10, written by Peter Selinger 2001-2011
</metadata>
<g transform="translate(0.000000,248.000000) scale(0.100000,-0.100000)"
fill="#000000" stroke="none">
<path d="M1448 2298 c-9 -7 -33 -53 -53 -103 -20 -49 -62 -139 -93 -198 -59
-112 -60 -125 -19 -151 27 -17 61 11 100 84 34 61 40 68 75 73 60 10 282 20
282 14 0 -17 -105 -196 -131 -222 -46 -49 -35 -95 24 -95 21 0 39 10 61 33 27
29 111 172 155 265 18 37 20 38 159 51 63 6 113 16 128 26 32 21 32 60 -1 81
-21 14 -34 15 -87 6 -35 -6 -83 -14 -108 -17 -82 -10 -455 -34 -459 -29 -3 2
7 33 22 69 20 49 24 70 18 88 -14 35 -46 46 -73 25z"/>
<path d="M539 2249 c-12 -12 -46 -74 -76 -137 -30 -64 -86 -162 -125 -219 -71
-104 -80 -135 -47 -156 32 -20 65 1 119 78 29 41 60 77 69 79 38 11 170 35
211 38 l45 3 37 -113 c20 -62 42 -120 48 -128 16 -19 54 -18 70 1 19 22 14 58
-19 162 -26 82 -27 93 -12 97 9 2 72 12 141 22 135 19 163 32 158 73 -5 46
-39 52 -163 31 -175 -29 -446 -63 -453 -56 -3 4 15 48 41 99 26 51 47 99 47
108 0 41 -57 52 -91 18z"/>
<path d="M1670 1689 c-47 -5 -107 -13 -133 -19 -26 -5 -69 -10 -95 -10 -63 0
-95 -18 -109 -61 -8 -25 -12 -144 -13 -370 -1 -184 -1 -339 -1 -346 2 -27 40
-35 94 -19 33 10 122 18 240 22 l187 7 0 -64 c0 -35 5 -174 10 -309 5 -134 7
-246 4 -249 -2 -3 -10 1 -16 7 -15 15 -61 15 -76 0 -25 -25 -11 -54 62 -127
62 -61 78 -72 102 -69 44 5 50 29 42 164 -12 207 -17 905 -7 1009 5 55 13 151
19 214 6 70 15 123 25 137 18 28 20 65 3 82 -14 14 -204 14 -338 1z m216 -115
c-3 -9 -9 -60 -13 -115 -4 -63 -10 -99 -17 -99 -6 0 -47 -4 -91 -9 -44 -5
-137 -12 -207 -16 l-128 -6 0 109 0 109 103 16 c138 23 148 24 261 26 86 1 97
-1 92 -15z m-32 -376 c-2 -29 -6 -87 -9 -128 l-6 -75 -82 0 c-45 0 -137 -3
-204 -7 l-123 -8 0 119 0 119 31 6 c17 3 66 6 108 7 42 1 101 4 131 9 30 4 78
8 107 9 l52 1 -5 -52z"/>
<path d="M825 1604 c-204 -30 -323 -44 -365 -44 -25 0 -56 -7 -68 -16 -25 -18
-29 -56 -7 -74 14 -11 15 -66 14 -434 -2 -401 -6 -518 -27 -756 -10 -110 -5
-134 28 -145 52 -16 75 30 79 157 1 43 6 104 11 135 6 32 10 99 10 148 0 50 3
127 7 173 l6 82 36 10 c20 5 77 12 126 15 154 11 170 13 207 28 20 9 41 24 47
35 6 11 18 96 26 189 9 92 17 182 20 198 35 237 37 267 27 291 -13 28 -34 29
-177 8z m71 -117 c-3 -13 -8 -48 -12 -79 l-6 -56 -82 -15 c-44 -9 -117 -21
-161 -27 -44 -6 -90 -14 -103 -17 -23 -5 -23 -4 -20 78 l3 84 45 8 c40 7 295
43 329 46 9 1 11 -6 7 -22z m-36 -264 c0 -23 -22 -247 -24 -250 -1 -2 -63 -7
-137 -13 -74 -6 -146 -13 -161 -16 l-28 -6 0 124 0 125 83 13 c45 7 100 15
122 17 22 3 56 9 75 13 56 13 70 11 70 -7z"/>
<path d="M1160 811 c-69 -9 -153 -23 -188 -31 -94 -20 -95 -23 -83 -216 6 -87
11 -205 11 -261 0 -90 3 -106 20 -123 26 -26 45 -25 71 1 19 19 21 30 17 121
-4 118 -11 110 124 128 46 6 98 13 117 17 l33 6 -7 -136 -7 -135 25 -17 c31
-20 65 -12 76 18 5 12 9 51 10 87 1 79 8 177 23 335 12 127 7 185 -17 205 -23
19 -89 20 -225 1z m140 -148 c0 -92 -4 -99 -63 -111 -89 -19 -227 -36 -234
-29 -3 4 -8 40 -11 80 -4 61 -2 75 11 80 9 3 65 11 124 18 59 6 110 13 112 15
2 2 17 4 33 4 28 0 28 -1 28 -57z"/>
</g>
</svg>
