<?xml version="1.0" standalone="no"?>
<!DOCTYPE svg PUBLIC "-//W3C//DTD SVG 20010904//EN"
 "http://www.w3.org/TR/2001/REC-SVG-20010904/DTD/svg10.dtd">
<svg version="1.0" xmlns="http://www.w3.org/2000/svg"
 width="248.000000pt" height="248.000000pt" viewBox="0 0 248.000000 248.000000"
 preserveAspectRatio="xMidYMid meet">
<metadata>
Created by potrace 1.10, written by Peter Selinger 2001-2011
</metadata>
<g transform="translate(0.000000,248.000000) scale(0.100000,-0.100000)"
fill="#000000" stroke="none">
<path d="M1505 2400 c-61 -43 -364 -180 -630 -287 -132 -53 -248 -103 -257
-111 -36 -30 -16 -82 30 -82 13 0 115 37 226 82 255 103 305 122 310 117 8 -8
-64 -247 -81 -268 -2 -2 -27 -8 -56 -12 -28 -4 -117 -17 -197 -29 -80 -12
-203 -27 -273 -35 -80 -9 -138 -20 -153 -30 -27 -18 -32 -56 -9 -75 25 -21
221 -2 560 54 44 8 81 13 83 11 5 -4 -107 -249 -120 -261 -7 -6 -69 -17 -138
-24 -69 -7 -154 -16 -190 -21 -36 -4 -126 -13 -200 -19 -74 -6 -146 -17 -160
-24 -36 -17 -39 -60 -5 -82 24 -16 37 -16 153 -5 70 7 156 16 192 21 205 26
262 32 267 26 11 -11 -107 -193 -208 -321 -107 -135 -334 -368 -400 -412 -54
-35 -67 -83 -31 -110 9 -7 21 -13 27 -13 39 0 306 248 421 390 28 36 66 81 83
100 l30 35 1 -456 c0 -482 0 -479 47 -479 45 0 58 40 61 192 3 120 6 138 20
138 10 0 76 6 147 14 115 13 293 27 483 40 l62 4 0 -171 c0 -195 7 -222 55
-222 58 0 57 -5 51 601 -4 356 -10 562 -17 582 -13 39 -24 42 -124 38 -157 -7
-289 -24 -623 -82 l-34 -5 38 71 c20 39 44 75 53 79 9 5 66 14 126 21 61 6
175 22 255 35 198 33 288 44 461 59 159 14 182 22 177 65 -5 40 -40 52 -128
46 -125 -10 -325 -35 -515 -65 -99 -15 -210 -31 -247 -34 l-66 -6 22 47 c13
27 36 80 51 118 15 39 32 78 39 87 12 16 108 32 416 68 107 13 181 28 197 41
18 15 17 54 -3 70 -22 18 -45 16 -317 -21 -131 -17 -240 -30 -243 -27 -3 2 4
27 15 55 23 57 61 209 61 241 0 18 21 32 123 80 133 63 197 110 197 145 0 52
-53 60 -115 16z m85 -1338 l0 -139 -117 -12 c-65 -7 -156 -16 -203 -21 -47 -5
-139 -16 -205 -24 -66 -9 -132 -16 -147 -16 l-28 0 0 125 c0 92 3 127 13 129
6 2 62 11 122 20 61 9 153 24 205 32 75 11 276 36 348 43 9 1 12 -33 12 -137z
m8 -364 l-3 -123 -100 -6 c-138 -9 -344 -27 -445 -39 -47 -5 -102 -10 -122
-10 l-38 0 0 109 0 109 103 11 c56 7 131 16 167 21 36 5 133 17 215 25 83 9
157 18 165 19 63 14 61 17 58 -116z"/>
</g>
</svg>
