<?xml version="1.0" standalone="no"?>
<!DOCTYPE svg PUBLIC "-//W3C//DTD SVG 20010904//EN"
 "http://www.w3.org/TR/2001/REC-SVG-20010904/DTD/svg10.dtd">
<svg version="1.0" xmlns="http://www.w3.org/2000/svg"
 width="248.000000pt" height="248.000000pt" viewBox="0 0 248.000000 248.000000"
 preserveAspectRatio="xMidYMid meet">
<metadata>
Created by potrace 1.10, written by Peter Selinger 2001-2011
</metadata>
<g transform="translate(0.000000,248.000000) scale(0.100000,-0.100000)"
fill="#000000" stroke="none">
<path d="M572 2337 c-6 -7 -16 -35 -22 -62 -13 -56 -136 -308 -180 -370 -73
-103 -130 -197 -130 -213 0 -41 63 -58 92 -24 23 26 168 242 168 250 0 4 10
19 23 33 17 21 39 30 107 42 55 11 88 13 94 7 7 -7 -1 -57 -23 -143 -46 -185
-36 -170 -128 -190 -43 -9 -94 -17 -113 -17 -54 0 -85 -20 -85 -55 0 -47 38
-60 133 -46 41 6 76 10 78 8 4 -4 -117 -214 -170 -293 -83 -124 -120 -174
-180 -242 -32 -37 -65 -77 -73 -89 -27 -40 11 -92 55 -75 22 8 127 127 206
232 l48 65 -8 -400 c-12 -603 -13 -563 16 -587 23 -18 35 -20 130 -15 58 3
175 13 260 21 85 9 196 16 245 16 108 0 140 13 140 55 0 50 -28 57 -197 50
l-148 -5 0 58 c0 33 3 93 6 135 l7 77 96 0 c53 0 113 5 134 11 45 12 65 45 48
78 -11 20 -19 21 -146 21 l-135 0 0 110 0 110 28 1 c97 2 194 18 212 34 24 22
26 48 3 71 -15 14 -30 16 -112 10 -53 -4 -105 -10 -117 -12 -20 -5 -21 0 -27
87 -4 51 -5 95 -2 97 3 3 51 11 106 19 56 7 108 18 115 24 23 19 17 68 -10 80
-22 10 -151 0 -223 -18 -22 -5 -23 -3 -23 69 0 78 -9 98 -45 98 -38 0 -56 -32
-62 -113 l-6 -75 -56 -6 c-31 -4 -72 -9 -93 -12 -34 -5 -37 -3 -43 25 -5 22 0
39 18 68 46 73 127 221 127 231 0 12 51 28 120 36 290 37 324 47 318 93 -5 47
-23 49 -205 26 -92 -11 -169 -20 -170 -19 -1 0 12 55 28 121 16 66 29 138 29
161 l0 42 98 12 c180 22 222 38 222 85 0 45 -22 50 -138 32 -59 -9 -147 -22
-197 -28 -49 -7 -117 -18 -150 -25 -33 -7 -62 -11 -64 -8 -2 2 9 37 24 76 32
79 37 136 16 162 -16 19 -54 21 -69 3z m226 -1274 l3 -93 -53 0 c-29 -1 -79
-3 -110 -7 l-58 -5 0 96 c0 95 0 96 23 91 12 -3 51 -1 87 4 110 15 105 20 108
-86z m12 -302 l0 -109 -67 -7 c-38 -3 -92 -8 -122 -11 -53 -6 -54 -5 -48 18 4
12 7 64 7 114 l0 91 87 2 c48 1 89 4 92 6 2 3 15 5 28 5 23 0 23 -1 23 -109z
m-5 -343 c-4 -73 -10 -137 -15 -141 -4 -5 -58 -11 -120 -14 l-113 -6 7 129 c5
79 12 132 19 136 7 4 37 8 67 9 30 0 75 4 100 8 25 5 49 9 54 10 4 0 5 -58 1
-131z"/>
</g>
</svg>
