<?xml version="1.0" standalone="no"?>
<!DOCTYPE svg PUBLIC "-//W3C//DTD SVG 20010904//EN"
 "http://www.w3.org/TR/2001/REC-SVG-20010904/DTD/svg10.dtd">
<svg version="1.0" xmlns="http://www.w3.org/2000/svg"
 width="248.000000pt" height="248.000000pt" viewBox="0 0 248.000000 248.000000"
 preserveAspectRatio="xMidYMid meet">
<metadata>
Created by potrace 1.10, written by Peter Selinger 2001-2011
</metadata>
<g transform="translate(0.000000,248.000000) scale(0.100000,-0.100000)"
fill="#000000" stroke="none">
<path d="M572 2337 c-6 -7 -16 -35 -22 -62 -13 -56 -136 -308 -180 -370 -73
-103 -130 -197 -130 -213 0 -41 63 -58 92 -24 23 26 168 242 168 250 0 4 10
19 23 33 23 28 52 35 312 74 300 46 315 50 315 100 0 45 -22 50 -138 32 -59
-9 -147 -22 -197 -28 -49 -7 -117 -18 -150 -25 -33 -7 -62 -11 -64 -8 -2 2 9
37 24 76 32 79 37 136 16 162 -16 19 -54 21 -69 3z"/>
<path d="M905 1720 c-71 -10 -186 -28 -255 -40 -69 -12 -153 -26 -187 -30 -35
-4 -70 -13 -78 -20 -25 -21 -15 -63 20 -79 26 -13 43 -12 150 7 172 30 293 49
430 68 129 17 165 32 165 67 0 52 -30 56 -245 27z"/>
</g>
</svg>
