<?xml version="1.0" standalone="no"?>
<!DOCTYPE svg PUBLIC "-//W3C//DTD SVG 20010904//EN"
 "http://www.w3.org/TR/2001/REC-SVG-20010904/DTD/svg10.dtd">
<svg version="1.0" xmlns="http://www.w3.org/2000/svg"
 width="248.000000pt" height="248.000000pt" viewBox="0 0 248.000000 248.000000"
 preserveAspectRatio="xMidYMid meet">
<metadata>
Created by potrace 1.10, written by Peter Selinger 2001-2011
</metadata>
<g transform="translate(0.000000,248.000000) scale(0.100000,-0.100000)"
fill="#000000" stroke="none">
<path d="M566 2328 c-8 -13 -17 -42 -21 -65 -12 -75 -146 -322 -276 -510 -31
-44 -36 -72 -17 -91 18 -18 63 -15 80 6 15 16 157 227 190 282 13 21 30 28
104 42 57 11 92 13 99 7 8 -8 -41 -235 -65 -295 -6 -16 -26 -24 -87 -37 -43
-9 -96 -17 -119 -17 -53 0 -86 -24 -82 -58 5 -44 45 -56 136 -43 41 6 76 10
78 8 5 -4 -113 -206 -174 -297 -74 -112 -129 -185 -175 -235 -62 -67 -89 -111
-82 -134 8 -27 38 -43 63 -33 22 8 128 128 206 232 l48 65 -8 -400 c-12 -602
-13 -563 16 -587 23 -18 35 -20 130 -15 58 3 175 13 260 21 85 8 196 15 245
16 58 0 100 5 117 14 26 14 29 13 38 -5 18 -33 61 -24 107 24 54 56 91 113
152 232 52 102 101 246 101 297 0 23 4 28 26 28 l25 0 -3 -222 c-3 -190 0
-231 14 -279 29 -91 36 -97 168 -115 150 -20 470 -17 514 6 40 20 51 65 36
149 -17 93 -19 100 -41 112 -16 8 -26 7 -46 -6 -25 -17 -26 -20 -19 -92 l6
-75 -233 4 c-137 3 -243 9 -258 16 -37 15 -43 68 -34 313 l7 199 67 1 c123 1
164 11 178 40 10 21 11 171 5 716 -6 589 -9 693 -22 708 -13 16 -27 17 -149
11 -74 -4 -166 -11 -205 -15 -39 -5 -118 -15 -175 -22 -131 -16 -144 -25 -142
-103 0 -32 4 -63 8 -69 5 -7 8 -290 8 -630 l0 -619 29 -25 c18 -15 37 -23 50
-20 12 3 36 8 55 12 l34 7 -7 -36 c-23 -119 -140 -363 -219 -452 l-39 -44 -18
22 c-18 22 -23 23 -179 21 l-161 -2 0 58 c0 32 3 92 6 134 l7 77 96 0 c152 0
209 27 182 86 -10 24 -13 24 -146 24 l-135 0 0 109 0 108 61 7 c34 3 79 6 100
6 76 0 116 40 89 90 -12 22 -16 22 -114 16 -55 -4 -110 -9 -122 -12 -20 -5
-21 0 -27 87 -4 51 -5 95 -2 97 3 3 51 11 106 19 56 7 108 18 115 24 8 6 14
24 14 40 0 46 -26 53 -142 39 -55 -6 -106 -14 -114 -17 -11 -4 -14 9 -14 69 0
78 -9 98 -45 98 -38 0 -56 -32 -62 -113 l-6 -76 -66 -6 c-36 -3 -78 -8 -93
-11 -23 -5 -27 -1 -33 25 -5 22 0 39 18 68 46 73 127 221 127 231 0 12 51 28
120 36 284 36 320 46 320 90 0 53 -30 55 -275 22 -55 -8 -101 -13 -102 -12 -1
1 11 53 27 116 16 63 30 136 30 161 l0 47 98 12 c180 22 222 38 222 85 0 35
-24 49 -73 42 -248 -36 -445 -67 -459 -72 -24 -9 -23 4 7 76 35 88 40 124 21
154 -21 32 -60 33 -80 3z m1364 -313 c0 -165 12 -149 -110 -160 -36 -3 -127
-18 -202 -33 l-137 -28 -5 40 c-3 23 -8 96 -11 163 l-5 121 27 6 c24 4 92 11
283 29 19 2 63 5 98 5 l62 2 0 -145z m0 -409 l0 -154 -67 -7 c-38 -3 -139 -15
-227 -26 -87 -11 -160 -18 -163 -15 -3 3 -2 68 2 145 l7 139 27 5 c14 3 73 15
131 27 91 19 191 34 268 39 22 1 22 0 22 -153z m4 -288 c3 -13 6 -111 6 -219
l0 -197 -177 -6 c-98 -4 -204 -9 -236 -12 l-57 -6 2 208 3 209 100 13 c163 21
247 29 301 31 46 1 52 -2 58 -21z m-1136 -255 l3 -93 -49 0 c-27 0 -77 -3
-111 -6 l-61 -7 0 97 c0 95 0 96 23 91 12 -3 49 -1 82 4 113 17 110 20 113
-86z m12 -302 l0 -109 -62 -6 c-201 -20 -182 -21 -175 5 4 13 7 65 7 115 l0
92 92 1 c51 1 94 4 97 6 2 3 13 5 23 5 16 0 18 -10 18 -109z m-5 -343 c-4 -73
-10 -137 -15 -141 -4 -5 -58 -11 -120 -14 l-113 -6 7 129 c5 79 12 132 19 136
7 4 37 8 67 8 30 1 73 5 95 9 73 15 68 25 60 -121z"/>
</g>
</svg>
