<?xml version="1.0" standalone="no"?>
<!DOCTYPE svg PUBLIC "-//W3C//DTD SVG 20010904//EN"
 "http://www.w3.org/TR/2001/REC-SVG-20010904/DTD/svg10.dtd">
<svg version="1.0" xmlns="http://www.w3.org/2000/svg"
 width="248.000000pt" height="248.000000pt" viewBox="0 0 248.000000 248.000000"
 preserveAspectRatio="xMidYMid meet">
<metadata>
Created by potrace 1.10, written by Peter Selinger 2001-2011
</metadata>
<g transform="translate(0.000000,248.000000) scale(0.100000,-0.100000)"
fill="#000000" stroke="none">
<path d="M669 2308 c-16 -18 -29 -40 -29 -49 0 -21 -153 -289 -216 -379 -190
-270 -234 -330 -286 -383 -32 -33 -63 -68 -69 -79 -20 -38 29 -80 69 -59 78
42 381 452 517 701 28 50 55 95 61 100 10 9 217 -123 310 -198 45 -36 88 -41
107 -11 27 43 -11 79 -251 239 -71 48 -112 81 -112 93 0 21 -35 57 -56 57 -8
0 -28 -15 -45 -32z"/>
<path d="M666 1864 c-19 -18 -18 -13 -16 -134 2 -138 -1 -144 -97 -159 -159
-26 -212 -57 -184 -108 15 -29 16 -195 1 -222 -9 -18 -9 -29 1 -52 26 -64 -19
-843 -56 -966 -8 -25 25 -63 55 -63 10 0 34 15 52 34 18 18 59 51 91 73 64 44
166 126 234 187 47 42 62 78 43 101 -25 30 -58 16 -161 -67 -127 -104 -179
-142 -186 -135 -3 3 0 43 6 89 6 46 15 169 22 273 6 105 14 193 17 196 9 8
137 42 321 84 165 38 212 59 230 103 15 38 48 209 61 317 6 50 15 114 20 143
17 97 -1 106 -155 82 -60 -10 -133 -20 -161 -23 l-51 -6 1 114 c1 97 -2 116
-18 134 -23 25 -49 27 -70 5z m338 -386 c-8 -98 -11 -105 -41 -111 -33 -6
-393 -67 -440 -74 l-33 -5 0 86 c0 86 0 86 26 86 14 0 73 11 132 24 59 14 152
30 207 36 55 7 102 14 104 16 2 2 15 4 28 4 22 0 22 -2 17 -62z m-37 -240 c-3
-13 -9 -40 -13 -61 -8 -47 -3 -45 -215 -92 -90 -20 -183 -43 -206 -50 l-43
-14 0 79 c0 74 1 80 23 84 105 23 190 38 292 52 66 9 122 18 124 20 2 2 13 4
24 4 15 0 18 -5 14 -22z"/>
</g>
</svg>
