<?xml version="1.0" standalone="no"?>
<!DOCTYPE svg PUBLIC "-//W3C//DTD SVG 20010904//EN"
 "http://www.w3.org/TR/2001/REC-SVG-20010904/DTD/svg10.dtd">
<svg version="1.0" xmlns="http://www.w3.org/2000/svg"
 width="248.000000pt" height="248.000000pt" viewBox="0 0 248.000000 248.000000"
 preserveAspectRatio="xMidYMid meet">
<metadata>
Created by potrace 1.10, written by Peter Selinger 2001-2011
</metadata>
<g transform="translate(0.000000,248.000000) scale(0.100000,-0.100000)"
fill="#000000" stroke="none">
<path d="M1731 2341 c-12 -12 -20 -40 -25 -82 -20 -196 -30 -249 -45 -253 -9
-3 -72 -10 -141 -16 -135 -12 -274 -44 -302 -68 -16 -13 -18 -35 -18 -169 0
-140 2 -155 20 -173 26 -26 45 -25 71 1 21 21 22 28 16 145 l-7 123 38 11 c97
27 920 95 938 77 4 -3 -32 -46 -80 -94 -48 -48 -89 -99 -93 -112 -8 -32 8 -55
42 -59 24 -3 41 10 122 95 105 110 183 208 183 229 0 8 -9 23 -20 34 -25 25
-89 26 -411 5 -127 -9 -233 -14 -234 -13 -1 2 6 66 16 143 10 77 18 143 19
148 0 13 -39 47 -55 47 -8 0 -23 -8 -34 -19z"/>
<path d="M669 2308 c-16 -18 -29 -40 -29 -49 0 -21 -153 -289 -216 -379 -190
-270 -234 -330 -286 -383 -32 -33 -63 -68 -69 -79 -20 -38 29 -80 69 -59 78
42 381 452 517 701 28 50 55 95 61 100 10 9 217 -123 310 -198 45 -36 88 -41
107 -11 27 43 -11 79 -251 239 -71 48 -112 81 -112 93 0 21 -35 57 -56 57 -8
0 -28 -15 -45 -32z"/>
<path d="M666 1864 c-19 -18 -18 -13 -16 -134 2 -138 -1 -144 -97 -159 -163
-27 -207 -53 -183 -111 7 -18 10 -63 6 -126 -3 -55 -5 -110 -4 -124 5 -173 0
-430 -10 -570 -15 -186 -37 -381 -47 -417 -8 -25 25 -63 55 -63 10 0 34 15 52
34 18 18 59 51 91 73 85 59 184 140 246 202 l54 54 20 -24 c10 -13 43 -50 73
-81 42 -46 60 -58 84 -58 33 0 55 29 45 60 -3 10 -79 93 -168 184 -166 169
-192 187 -225 154 -25 -25 -12 -59 45 -119 33 -34 53 -63 47 -67 -5 -4 -54
-43 -108 -87 -125 -102 -176 -138 -183 -132 -3 3 0 43 6 89 6 46 15 169 22
273 6 105 14 193 17 196 9 8 137 42 321 84 165 38 212 59 230 103 15 38 48
209 61 317 6 50 15 114 20 143 17 97 -1 106 -155 82 -60 -10 -133 -20 -161
-23 l-51 -6 1 114 c1 97 -2 116 -18 134 -23 25 -49 27 -70 5z m338 -386 c-8
-98 -11 -105 -41 -111 -33 -6 -393 -67 -440 -74 l-33 -5 0 86 c0 86 0 86 26
86 14 0 73 11 132 24 59 14 152 30 207 36 55 7 102 14 104 16 2 2 15 4 28 4
22 0 22 -2 17 -62z m-37 -240 c-3 -13 -9 -40 -13 -61 -8 -47 -3 -45 -215 -92
-90 -20 -183 -43 -206 -50 l-43 -14 0 79 c0 74 1 80 23 84 105 23 190 38 292
52 66 9 122 18 124 20 2 2 13 4 24 4 15 0 18 -5 14 -22z"/>
<path d="M1810 1693 c-100 -8 -268 -33 -317 -48 -29 -9 -56 -23 -60 -33 -5 -9
-6 -129 -3 -267 3 -137 2 -293 -2 -345 -4 -52 -9 -138 -13 -190 -19 -297 -27
-403 -36 -479 -8 -70 -7 -87 6 -107 18 -28 40 -30 82 -9 41 21 157 34 348 40
243 9 257 10 280 38 12 13 31 61 43 108 52 194 71 268 86 339 32 150 35 148
-182 126 -92 -10 -237 -26 -323 -37 -226 -28 -202 -39 -194 89 4 59 9 125 11
147 2 22 3 43 3 46 1 11 116 29 256 40 99 8 134 14 147 27 20 20 74 246 83
347 3 39 9 82 11 97 4 20 -1 34 -19 52 -21 21 -33 24 -93 23 -38 0 -89 -2
-114 -4z m115 -130 c-2 -16 -6 -50 -9 -77 -3 -26 -15 -87 -26 -135 l-21 -87
-122 -13 c-67 -7 -141 -15 -164 -18 l-43 -5 0 161 c0 120 3 163 13 166 27 11
217 32 294 34 l83 1 -5 -27z m195 -797 c0 -53 -89 -379 -108 -393 -11 -9 -60
-13 -161 -13 -80 0 -175 -5 -211 -10 -100 -14 -155 -15 -153 -3 1 5 7 87 14
180 l13 171 75 11 c118 17 438 54 514 60 9 0 17 -1 17 -3z"/>
</g>
</svg>
