<?xml version="1.0" standalone="no"?>
<!DOCTYPE svg PUBLIC "-//W3C//DTD SVG 20010904//EN"
 "http://www.w3.org/TR/2001/REC-SVG-20010904/DTD/svg10.dtd">
<svg version="1.0" xmlns="http://www.w3.org/2000/svg"
 width="248.000000pt" height="248.000000pt" viewBox="0 0 248.000000 248.000000"
 preserveAspectRatio="xMidYMid meet">
<metadata>
Created by potrace 1.10, written by Peter Selinger 2001-2011
</metadata>
<g transform="translate(0.000000,248.000000) scale(0.100000,-0.100000)"
fill="#000000" stroke="none">
<path d="M669 2308 c-16 -18 -29 -40 -29 -49 0 -21 -153 -289 -216 -379 -190
-270 -234 -330 -286 -383 -32 -33 -63 -68 -69 -79 -20 -38 29 -80 69 -59 78
42 381 452 517 701 28 50 55 95 61 100 10 9 217 -123 310 -198 45 -36 88 -41
107 -11 27 43 -11 79 -251 239 -71 48 -112 81 -112 93 0 21 -35 57 -56 57 -8
0 -28 -15 -45 -32z"/>
<path d="M666 1864 c-9 -8 -16 -18 -16 -22 -5 -156 -3 -278 5 -289 7 -9 23
-13 40 -11 46 5 58 41 59 179 1 102 -1 119 -18 138 -23 25 -49 27 -70 5z"/>
</g>
</svg>
