<?xml version="1.0" standalone="no"?>
<!DOCTYPE svg PUBLIC "-//W3C//DTD SVG 20010904//EN"
 "http://www.w3.org/TR/2001/REC-SVG-20010904/DTD/svg10.dtd">
<svg version="1.0" xmlns="http://www.w3.org/2000/svg"
 width="248.000000pt" height="248.000000pt" viewBox="0 0 248.000000 248.000000"
 preserveAspectRatio="xMidYMid meet">
<metadata>
Created by potrace 1.10, written by Peter Selinger 2001-2011
</metadata>
<g transform="translate(0.000000,248.000000) scale(0.100000,-0.100000)"
fill="#000000" stroke="none">
<path d="M671 2377 c-16 -20 -19 -50 -20 -189 l-1 -126 -62 -7 c-35 -4 -86
-13 -115 -21 -28 -7 -100 -16 -160 -20 -119 -7 -153 -20 -153 -59 0 -45 37
-58 142 -50 51 4 134 16 183 26 50 10 107 19 128 19 l37 0 0 -110 0 -110 -28
0 c-16 0 -73 -7 -128 -15 -54 -8 -122 -15 -151 -15 -55 0 -99 -14 -107 -35 -2
-7 0 -63 4 -126 5 -63 12 -185 16 -272 8 -215 -5 -202 202 -186 89 7 164 10
168 7 3 -4 2 -47 -1 -96 l-7 -89 -87 -12 c-47 -6 -149 -16 -226 -22 -77 -6
-151 -16 -165 -23 -35 -16 -39 -60 -7 -80 24 -17 75 -14 421 20 l68 7 -5 -29
c-3 -16 -9 -161 -13 -322 -5 -261 -4 -295 10 -317 19 -29 57 -33 77 -8 11 12
16 94 24 352 l10 335 45 8 c25 4 110 15 190 24 170 18 194 27 198 71 5 53 -13
56 -210 33 -95 -11 -183 -22 -195 -25 -21 -5 -23 -2 -23 33 0 22 3 66 6 99 l7
60 136 7 c175 9 199 13 218 42 32 50 58 530 31 589 -6 14 -22 28 -36 32 -23 5
-133 0 -269 -13 l-63 -6 0 105 0 105 88 12 c160 21 303 49 318 61 19 15 18 63
-2 80 -13 10 -29 10 -92 -1 -42 -7 -130 -20 -194 -30 l-118 -16 0 136 c0 106
-3 140 -16 158 -17 24 -56 29 -73 9z m359 -796 c0 -104 5 -100 -130 -102 -47
0 -123 -4 -170 -9 -333 -33 -361 -34 -371 -19 -5 8 -9 42 -9 76 l0 62 33 5
c17 3 70 10 117 16 47 6 126 17 175 25 156 25 218 32 288 34 l67 1 0 -89z
m-13 -272 c-3 -39 -7 -73 -9 -74 -4 -4 -225 -22 -413 -35 -77 -5 -159 -12
-181 -15 -40 -6 -42 -5 -48 26 -3 17 -6 51 -6 74 l0 43 83 7 c45 3 116 11 157
16 41 6 145 14 230 18 85 4 164 9 174 10 17 1 18 -5 13 -70z"/>
<path d="M1406 2268 c-9 -16 -16 -72 -21 -180 -7 -172 -29 -279 -78 -375 -32
-63 -34 -84 -7 -108 17 -15 24 -16 45 -7 33 15 83 115 111 222 l22 85 133 11
c74 6 186 19 249 28 63 8 168 22 233 31 143 18 171 29 175 71 5 53 -12 58
-140 41 -62 -9 -156 -21 -208 -27 -52 -6 -116 -16 -141 -20 -26 -5 -101 -12
-168 -16 l-121 -7 7 111 c5 94 3 115 -11 136 -21 33 -60 34 -80 4z"/>
<path d="M1900 1671 c-58 -10 -166 -28 -240 -40 -74 -13 -146 -28 -160 -35
-35 -16 -39 -60 -8 -80 26 -17 87 -12 263 23 154 29 167 31 163 23 -2 -4 -30
-47 -62 -97 -174 -265 -236 -362 -236 -369 0 -4 -13 -26 -28 -49 -43 -63 -162
-290 -208 -397 -51 -118 -67 -182 -61 -248 10 -110 80 -153 290 -178 194 -24
575 -6 669 31 28 11 38 62 38 194 0 140 -10 174 -51 179 -44 5 -54 -19 -59
-157 l-5 -125 -35 -8 c-19 -4 -127 -10 -240 -14 -226 -7 -398 5 -459 34 -34
16 -36 19 -39 74 -4 82 39 183 208 488 29 52 64 115 77 140 14 25 54 87 89
137 35 51 64 95 64 98 0 12 115 178 169 244 110 133 73 167 -139 132z"/>
</g>
</svg>
