<?xml version="1.0" standalone="no"?>
<!DOCTYPE svg PUBLIC "-//W3C//DTD SVG 20010904//EN"
 "http://www.w3.org/TR/2001/REC-SVG-20010904/DTD/svg10.dtd">
<svg version="1.0" xmlns="http://www.w3.org/2000/svg"
 width="248.000000pt" height="248.000000pt" viewBox="0 0 248.000000 248.000000"
 preserveAspectRatio="xMidYMid meet">
<metadata>
Created by potrace 1.10, written by Peter Selinger 2001-2011
</metadata>
<g transform="translate(0.000000,248.000000) scale(0.100000,-0.100000)"
fill="#000000" stroke="none">
<path d="M582 2388 c-5 -7 -15 -130 -20 -277 -6 -145 -14 -267 -19 -272 -4 -4
-79 -16 -166 -27 -87 -11 -164 -26 -173 -33 -23 -19 -13 -62 18 -77 22 -10 49
-10 155 3 70 9 136 18 147 21 20 6 20 -33 0 -458 l-6 -126 -92 -36 c-218 -85
-236 -94 -236 -130 0 -60 52 -60 200 3 l115 49 3 -96 c2 -54 0 -215 -3 -360
l-7 -263 -33 35 c-36 40 -64 45 -88 18 -24 -26 -22 -37 21 -103 20 -32 46 -73
57 -91 38 -61 107 -69 133 -15 14 29 31 420 32 727 l0 185 60 27 c46 20 61 32
66 54 6 22 2 31 -16 46 -13 11 -31 17 -39 14 -9 -2 -26 -8 -39 -12 l-24 -7 6
144 c4 79 9 203 12 275 l6 131 86 17 c48 8 129 22 180 30 105 16 122 26 122
67 0 55 -33 57 -271 13 -121 -22 -111 -35 -104 124 14 294 12 368 -9 391 -21
23 -58 28 -74 9z"/>
<path d="M1488 2308 c-8 -7 -53 -71 -98 -143 -45 -71 -106 -162 -136 -202 -55
-72 -64 -99 -42 -121 26 -26 65 -14 106 36 38 45 187 264 211 310 11 21 17 22
131 22 66 0 120 -2 120 -5 0 -3 -18 -48 -41 -101 -41 -95 -103 -195 -166 -267
-18 -20 -33 -42 -33 -47 0 -6 -15 -10 -32 -10 -18 0 -82 -6 -143 -14 -60 -8
-150 -20 -200 -26 -148 -18 -144 -10 -134 -385 4 -159 10 -297 14 -306 6 -15
-7 -18 -102 -24 -118 -8 -153 -21 -153 -59 0 -49 10 -50 331 -47 l299 3 -16
-44 c-35 -99 -105 -267 -136 -323 -64 -118 -205 -271 -291 -316 -45 -23 -54
-41 -39 -75 33 -70 167 8 309 180 83 100 137 197 204 365 42 106 55 130 63
117 6 -8 30 -51 54 -94 24 -43 61 -101 84 -128 22 -27 56 -69 76 -94 183 -223
379 -364 526 -378 50 -4 61 -2 73 13 7 11 13 25 13 32 0 22 -38 53 -65 53 -36
0 -141 46 -200 88 -97 69 -295 278 -372 392 -55 83 -115 202 -107 210 5 5 160
10 344 12 302 3 339 5 363 21 29 19 36 54 15 75 -8 8 -45 12 -100 12 l-88 0 0
43 c0 23 9 87 19 142 21 109 47 372 44 446 -2 72 -25 115 -63 123 -44 8 -211
7 -345 -4 -60 -4 -111 -7 -112 -6 -1 1 25 40 57 88 78 113 162 304 164 372 1
44 -2 52 -24 63 -35 18 -360 18 -382 1z m602 -635 c0 -10 -5 -74 -12 -142
l-12 -124 -70 6 c-39 4 -105 9 -146 12 -130 11 -120 1 -120 113 0 53 3 107 6
119 7 26 25 29 217 31 124 2 137 0 137 -15z m-468 -115 c-8 -190 22 -222 216
-238 209 -17 222 -20 217 -44 -20 -90 -25 -121 -20 -137 3 -10 1 -36 -5 -57
l-10 -40 -228 -4 c-125 -3 -228 -4 -230 -2 -2 1 2 56 8 123 13 139 5 174 -42
179 -41 5 -55 -27 -62 -144 -3 -56 -9 -115 -12 -133 l-6 -31 -152 0 -151 0 -3
133 c-3 123 -2 130 13 110 26 -36 55 -28 112 30 63 64 172 268 176 328 l2 39
91 0 91 0 -5 -112z m-282 82 c0 -28 -99 -210 -136 -250 -22 -25 -46 -53 -51
-64 -7 -13 -12 25 -15 140 -3 88 -3 161 -1 164 4 5 99 15 171 18 17 1 32 -3
32 -8z"/>
</g>
</svg>
