<?xml version="1.0" standalone="no"?>
<!DOCTYPE svg PUBLIC "-//W3C//DTD SVG 20010904//EN"
 "http://www.w3.org/TR/2001/REC-SVG-20010904/DTD/svg10.dtd">
<svg version="1.0" xmlns="http://www.w3.org/2000/svg"
 width="248.000000pt" height="248.000000pt" viewBox="0 0 248.000000 248.000000"
 preserveAspectRatio="xMidYMid meet">
<metadata>
Created by potrace 1.10, written by Peter Selinger 2001-2011
</metadata>
<g transform="translate(0.000000,248.000000) scale(0.100000,-0.100000)"
fill="#000000" stroke="none">
<path d="M671 2377 c-16 -20 -19 -50 -20 -189 l-1 -126 -62 -7 c-35 -4 -86
-13 -115 -21 -28 -7 -100 -16 -160 -20 -119 -7 -153 -20 -153 -59 0 -45 37
-58 142 -50 51 4 134 16 183 26 50 10 107 19 128 19 l37 0 0 -110 0 -110 -28
0 c-16 0 -73 -7 -128 -15 -54 -8 -122 -15 -151 -15 -29 0 -64 -5 -78 -12 -25
-11 -42 -48 -32 -65 3 -5 11 -121 17 -258 13 -269 18 -295 65 -295 15 0 31 9
40 24 14 21 14 49 5 237 -5 118 -10 224 -10 236 0 24 -3 23 150 43 47 6 126
17 175 25 155 24 248 35 303 35 l52 0 0 -102 c0 -57 -5 -169 -12 -250 -13
-163 -9 -178 43 -178 19 0 32 7 40 22 16 30 39 279 39 430 0 139 -9 175 -48
185 -23 5 -133 0 -269 -13 l-63 -6 0 105 0 105 88 12 c160 21 303 49 318 61
19 15 18 63 -2 80 -13 10 -29 10 -92 -1 -42 -7 -130 -20 -194 -30 l-118 -16 0
136 c0 106 -3 140 -16 158 -17 24 -56 29 -73 9z"/>
</g>
</svg>
