<?xml version="1.0" standalone="no"?>
<!DOCTYPE svg PUBLIC "-//W3C//DTD SVG 20010904//EN"
 "http://www.w3.org/TR/2001/REC-SVG-20010904/DTD/svg10.dtd">
<svg version="1.0" xmlns="http://www.w3.org/2000/svg"
 width="248.000000pt" height="248.000000pt" viewBox="0 0 248.000000 248.000000"
 preserveAspectRatio="xMidYMid meet">
<metadata>
Created by potrace 1.10, written by Peter Selinger 2001-2011
</metadata>
<g transform="translate(0.000000,248.000000) scale(0.100000,-0.100000)"
fill="#000000" stroke="none">
<path d="M1060 2119 c-19 -4 -123 -20 -230 -34 -107 -14 -238 -32 -290 -41
-147 -24 -220 -33 -280 -33 -65 -1 -100 -21 -100 -56 0 -45 37 -58 142 -50 51
4 122 13 158 21 36 8 171 27 300 44 267 34 386 54 406 71 17 14 18 61 2 77
-14 14 -56 14 -108 1z"/>
</g>
</svg>
