<?xml version="1.0" standalone="no"?>
<!DOCTYPE svg PUBLIC "-//W3C//DTD SVG 20010904//EN"
 "http://www.w3.org/TR/2001/REC-SVG-20010904/DTD/svg10.dtd">
<svg version="1.0" xmlns="http://www.w3.org/2000/svg"
 width="248.000000pt" height="248.000000pt" viewBox="0 0 248.000000 248.000000"
 preserveAspectRatio="xMidYMid meet">
<metadata>
Created by potrace 1.10, written by Peter Selinger 2001-2011
</metadata>
<g transform="translate(0.000000,248.000000) scale(0.100000,-0.100000)"
fill="#000000" stroke="none">
<path d="M445 2257 c-17 -13 -18 -40 -16 -578 1 -310 -3 -781 -10 -1046 -10
-443 -10 -485 5 -508 21 -32 60 -33 80 -3 18 30 37 803 35 1473 -1 549 -6 640
-34 661 -24 17 -36 18 -60 1z"/>
<path d="M1219 2139 c-21 -21 -21 -27 -14 -178 10 -235 19 -300 44 -325 20
-19 34 -21 169 -24 91 -2 202 3 292 13 80 9 194 21 254 26 60 5 121 15 135 22
32 15 40 57 15 78 -21 18 -147 14 -284 -7 -110 -18 -494 -31 -503 -18 -3 5 -8
96 -12 203 -7 170 -10 196 -26 212 -25 25 -44 24 -70 -2z"/>
<path d="M639 1929 c-37 -37 -16 -75 149 -272 62 -73 79 -88 100 -85 57 7 54
56 -7 133 -22 28 -67 86 -100 130 -98 130 -103 133 -142 94z"/>
<path d="M268 1693 c-9 -10 -28 -54 -42 -98 -15 -44 -52 -131 -82 -193 -56
-115 -62 -147 -33 -165 32 -20 63 0 101 66 53 92 138 315 138 362 0 44 -53 61
-82 28z"/>
</g>
</svg>
