<?xml version="1.0" standalone="no"?>
<!DOCTYPE svg PUBLIC "-//W3C//DTD SVG 20010904//EN"
 "http://www.w3.org/TR/2001/REC-SVG-20010904/DTD/svg10.dtd">
<svg version="1.0" xmlns="http://www.w3.org/2000/svg"
 width="248.000000pt" height="248.000000pt" viewBox="0 0 248.000000 248.000000"
 preserveAspectRatio="xMidYMid meet">
<metadata>
Created by potrace 1.10, written by Peter Selinger 2001-2011
</metadata>
<g transform="translate(0.000000,248.000000) scale(0.100000,-0.100000)"
fill="#000000" stroke="none">
<path d="M405 2130 c-4 -7 -9 -224 -10 -484 -1 -259 -5 -482 -8 -496 -8 -36
-16 -248 -22 -550 -3 -146 -10 -304 -17 -352 -12 -99 -4 -121 41 -116 53 6 58
36 70 444 6 203 14 381 17 395 3 13 8 269 11 569 4 592 4 592 -49 598 -14 2
-29 -2 -33 -8z"/>
</g>
</svg>
