<?xml version="1.0" standalone="no"?>
<!DOCTYPE svg PUBLIC "-//W3C//DTD SVG 20010904//EN"
 "http://www.w3.org/TR/2001/REC-SVG-20010904/DTD/svg10.dtd">
<svg version="1.0" xmlns="http://www.w3.org/2000/svg"
 width="248.000000pt" height="248.000000pt" viewBox="0 0 248.000000 248.000000"
 preserveAspectRatio="xMidYMid meet">
<metadata>
Created by potrace 1.10, written by Peter Selinger 2001-2011
</metadata>
<g transform="translate(0.000000,248.000000) scale(0.100000,-0.100000)"
fill="#000000" stroke="none">
<path d="M1206 2348 c-12 -16 -16 -47 -16 -109 0 -94 -16 -195 -52 -326 l-23
-83 -35 0 c-74 -1 -389 -47 -404 -59 -21 -17 -20 -55 1 -72 18 -15 116 -15
187 1 23 5 80 12 129 16 104 8 102 12 53 -108 -57 -142 -87 -199 -110 -208
-11 -4 -79 -14 -151 -20 -71 -7 -157 -16 -190 -21 -33 -5 -98 -9 -145 -9 -61
0 -92 -4 -108 -16 -30 -21 -29 -59 3 -80 30 -19 139 -16 350 10 66 9 135 16
153 16 l33 0 -73 -107 c-128 -186 -313 -382 -485 -515 -51 -39 -95 -79 -99
-90 -8 -25 22 -58 52 -58 45 0 259 178 407 339 101 110 268 335 310 417 16 30
19 31 99 37 46 3 135 11 198 17 63 6 129 11 145 11 17 0 89 6 160 14 72 8 184
19 250 25 289 26 314 33 301 85 -10 38 -40 45 -152 34 -54 -5 -157 -14 -229
-20 -71 -6 -132 -12 -136 -14 -3 -2 -75 -9 -160 -14 -85 -6 -205 -16 -267 -22
-61 -7 -115 -10 -118 -7 -5 5 16 60 70 183 7 17 19 53 26 82 15 57 13 56 120
68 30 3 100 12 155 20 55 8 142 17 194 21 96 7 131 23 131 59 0 18 -35 55 -52
55 -16 0 -238 -26 -383 -44 -60 -8 -111 -13 -113 -11 -2 2 2 20 8 42 27 94 51
236 57 330 5 85 3 106 -11 127 -21 33 -59 34 -80 4z"/>
<path d="M1720 2318 c-61 -88 -97 -133 -167 -210 -88 -95 -95 -128 -30 -151
45 -17 297 283 297 353 0 64 -57 68 -100 8z"/>
<path d="M712 2268 c-22 -22 -13 -63 30 -134 23 -38 56 -103 73 -144 30 -72
32 -75 64 -75 21 0 38 7 45 17 21 34 -29 160 -112 286 -39 59 -74 76 -100 50z"/>
</g>
</svg>
