<?xml version="1.0" standalone="no"?>
<!DOCTYPE svg PUBLIC "-//W3C//DTD SVG 20010904//EN"
 "http://www.w3.org/TR/2001/REC-SVG-20010904/DTD/svg10.dtd">
<svg version="1.0" xmlns="http://www.w3.org/2000/svg"
 width="248.000000pt" height="248.000000pt" viewBox="0 0 248.000000 248.000000"
 preserveAspectRatio="xMidYMid meet">
<metadata>
Created by potrace 1.10, written by Peter Selinger 2001-2011
</metadata>
<g transform="translate(0.000000,248.000000) scale(0.100000,-0.100000)"
fill="#000000" stroke="none">
<path d="M671 2377 c-16 -20 -19 -50 -20 -189 l-1 -126 -62 -7 c-35 -4 -86
-13 -115 -21 -28 -7 -100 -16 -160 -20 -119 -7 -153 -20 -153 -59 0 -45 37
-58 142 -50 51 4 134 16 183 26 50 10 107 19 128 19 l37 0 0 -110 0 -110 -28
0 c-16 0 -73 -7 -128 -15 -54 -8 -122 -15 -151 -15 -55 0 -99 -14 -107 -35 -2
-7 0 -63 4 -126 5 -63 12 -185 16 -272 8 -215 -5 -202 202 -186 89 7 164 10
168 7 3 -4 2 -47 -1 -96 l-7 -89 -87 -12 c-47 -6 -149 -16 -226 -22 -77 -6
-151 -16 -165 -22 -35 -17 -39 -61 -7 -81 24 -17 75 -14 421 20 l68 7 -5 -29
c-3 -16 -9 -161 -13 -322 -5 -261 -4 -295 10 -317 19 -29 57 -33 77 -8 11 12
16 94 24 352 l10 335 45 8 c25 4 110 15 190 24 170 18 194 27 198 71 5 53 -13
56 -210 33 -95 -11 -183 -22 -195 -25 -21 -5 -23 -2 -23 33 0 22 3 66 6 99 l7
60 136 7 c175 9 199 13 218 42 32 50 58 530 31 589 -6 14 -22 28 -36 32 -23 5
-133 0 -269 -13 l-63 -6 0 105 0 105 88 12 c160 21 303 49 318 61 19 15 18 63
-2 80 -13 10 -29 10 -92 -1 -42 -7 -130 -20 -194 -30 l-118 -16 0 136 c0 106
-3 140 -16 158 -17 24 -56 29 -73 9z m359 -796 c0 -104 5 -100 -130 -102 -47
0 -123 -4 -170 -9 -333 -33 -361 -34 -371 -19 -5 8 -9 42 -9 76 l0 62 33 5
c17 3 70 10 117 16 47 6 126 17 175 25 156 25 218 32 288 34 l67 1 0 -89z
m-13 -272 c-3 -39 -7 -73 -9 -74 -4 -4 -225 -22 -413 -35 -77 -5 -159 -12
-181 -15 -40 -6 -42 -5 -48 26 -3 17 -6 51 -6 74 l0 43 83 7 c45 3 116 11 157
16 41 6 145 14 230 18 85 4 164 9 174 10 17 1 18 -5 13 -70z"/>
</g>
</svg>
