<?xml version="1.0" standalone="no"?>
<!DOCTYPE svg PUBLIC "-//W3C//DTD SVG 20010904//EN"
 "http://www.w3.org/TR/2001/REC-SVG-20010904/DTD/svg10.dtd">
<svg version="1.0" xmlns="http://www.w3.org/2000/svg"
 width="248.000000pt" height="248.000000pt" viewBox="0 0 248.000000 248.000000"
 preserveAspectRatio="xMidYMid meet">
<metadata>
Created by potrace 1.10, written by Peter Selinger 2001-2011
</metadata>
<g transform="translate(0.000000,248.000000) scale(0.100000,-0.100000)"
fill="#000000" stroke="none">
<path d="M669 2308 c-16 -18 -29 -40 -29 -49 0 -21 -153 -289 -216 -379 -190
-270 -234 -330 -286 -383 -32 -33 -63 -68 -69 -79 -20 -38 29 -80 69 -59 78
42 381 452 517 701 28 50 55 95 61 100 10 9 217 -123 310 -198 45 -36 88 -41
107 -11 27 43 -11 79 -251 239 -71 48 -112 81 -112 93 0 21 -35 57 -56 57 -8
0 -28 -15 -45 -32z"/>
<path d="M666 1864 c-19 -18 -18 -13 -16 -134 2 -138 -1 -144 -97 -159 -115
-19 -173 -39 -185 -66 -20 -43 28 -89 70 -66 10 5 59 17 108 25 49 9 105 20
124 26 19 6 86 17 149 25 63 9 132 18 153 21 l38 7 -6 -64 c-8 -99 -11 -106
-41 -112 -33 -6 -383 -64 -468 -78 -33 -6 -73 -15 -88 -21 -78 -30 -44 -124
36 -99 44 14 218 46 356 66 63 9 127 19 143 22 32 6 32 8 14 -74 -16 -74 -5
-106 36 -111 19 -2 31 3 41 20 17 26 51 191 67 323 6 50 15 114 20 143 17 97
-1 106 -155 82 -60 -10 -133 -20 -161 -23 l-51 -6 1 114 c1 97 -2 116 -18 134
-23 25 -49 27 -70 5z"/>
</g>
</svg>
