<?xml version="1.0" standalone="no"?>
<!DOCTYPE svg PUBLIC "-//W3C//DTD SVG 20010904//EN"
 "http://www.w3.org/TR/2001/REC-SVG-20010904/DTD/svg10.dtd">
<svg version="1.0" xmlns="http://www.w3.org/2000/svg"
 width="248.000000pt" height="248.000000pt" viewBox="0 0 248.000000 248.000000"
 preserveAspectRatio="xMidYMid meet">
<metadata>
Created by potrace 1.10, written by Peter Selinger 2001-2011
</metadata>
<g transform="translate(0.000000,248.000000) scale(0.100000,-0.100000)"
fill="#000000" stroke="none">
<path d="M1655 2214 c-296 -18 -434 -27 -515 -34 -52 -4 -158 -13 -235 -19
-77 -6 -171 -17 -210 -24 -106 -20 -107 -23 -70 -243 21 -129 34 -183 49 -202
l20 -25 125 7 c207 10 698 37 823 44 157 10 161 13 189 177 24 144 23 275 -3
301 -18 18 -72 24 -173 18z m85 -166 c0 -35 -5 -98 -12 -140 l-12 -78 -61 0
c-34 0 -86 -4 -116 -9 -30 -5 -146 -13 -259 -16 -113 -4 -248 -11 -300 -16
-52 -4 -125 -9 -161 -9 l-66 0 -7 33 c-10 46 -36 200 -36 214 0 7 34 13 98 17
53 4 133 11 177 16 155 17 342 31 520 39 99 4 192 9 208 10 27 1 27 0 27 -61z"/>
<path d="M1455 1559 c-104 -4 -257 -15 -340 -24 -82 -9 -226 -22 -318 -29
-127 -9 -172 -16 -184 -28 -14 -14 -15 -39 -8 -194 7 -169 8 -178 31 -201 24
-24 27 -24 152 -18 149 8 726 46 887 59 22 2 61 4 86 5 75 2 89 20 110 142 19
104 18 179 -2 246 -18 56 -35 58 -414 42z m323 -157 c2 -30 -2 -78 -8 -108 -9
-43 -16 -55 -33 -58 -57 -12 -1007 -69 -1015 -62 -2 2 -6 51 -9 108 -7 119 -8
118 85 118 23 0 124 9 225 20 186 20 514 38 667 36 l85 -1 3 -53z"/>
</g>
</svg>
