<?xml version="1.0" standalone="no"?>
<!DOCTYPE svg PUBLIC "-//W3C//DTD SVG 20010904//EN"
 "http://www.w3.org/TR/2001/REC-SVG-20010904/DTD/svg10.dtd">
<svg version="1.0" xmlns="http://www.w3.org/2000/svg"
 width="248.000000pt" height="248.000000pt" viewBox="0 0 248.000000 248.000000"
 preserveAspectRatio="xMidYMid meet">
<metadata>
Created by potrace 1.10, written by Peter Selinger 2001-2011
</metadata>
<g transform="translate(0.000000,248.000000) scale(0.100000,-0.100000)"
fill="#000000" stroke="none">
<path d="M1010 2263 c-191 -30 -317 -47 -445 -57 -165 -14 -188 -22 -183 -65
5 -47 43 -55 191 -42 72 6 133 8 136 5 3 -3 6 -65 6 -137 l0 -132 -80 -12
c-75 -10 -129 -17 -360 -44 -101 -12 -135 -28 -135 -64 0 -54 45 -59 260 -26
36 6 68 7 72 3 4 -4 9 -289 10 -634 l3 -627 -70 -16 c-92 -22 -117 -38 -113
-73 5 -48 39 -54 147 -27 99 25 339 100 453 140 l66 24 4 -114 c2 -94 6 -116
22 -134 20 -22 55 -28 72 -11 7 7 10 258 7 784 l-4 773 83 7 c105 9 133 22
133 61 0 46 -29 54 -165 43 -63 -4 -151 -15 -196 -23 -44 -8 -83 -15 -86 -15
-3 0 -8 53 -11 118 -3 64 -9 126 -12 138 -6 19 0 22 62 32 37 6 93 14 123 17
114 13 150 38 130 89 -8 23 -15 26 -52 25 -24 -1 -54 -4 -68 -6z m-45 -627 c4
-73 4 -151 0 -173 l-6 -41 -87 -20 c-48 -11 -121 -26 -162 -32 -41 -7 -85 -16
-97 -21 l-23 -9 0 148 c0 81 -3 163 -6 183 l-6 36 78 12 c62 9 260 43 295 50
4 0 10 -59 14 -133z m-5 -458 l0 -133 -173 -33 c-94 -17 -178 -32 -184 -32
-10 0 -13 32 -13 128 l0 129 68 16 c37 9 101 21 142 28 41 6 83 15 95 19 11 5
30 9 43 9 22 1 22 -1 22 -131z m0 -417 l0 -179 -102 -32 c-57 -18 -125 -41
-153 -51 -27 -10 -65 -22 -82 -25 l-33 -6 0 200 0 201 53 10 c28 6 104 22 167
35 63 13 123 24 133 25 16 1 17 -14 17 -178z"/>
<path d="M1437 2248 c-8 -13 -18 -59 -22 -103 -20 -245 -80 -526 -125 -587
-40 -54 -10 -113 47 -92 69 24 148 304 183 653 11 110 2 144 -42 149 -19 2
-31 -3 -41 -20z"/>
</g>
</svg>
