<?xml version="1.0" standalone="no"?>
<!DOCTYPE svg PUBLIC "-//W3C//DTD SVG 20010904//EN"
 "http://www.w3.org/TR/2001/REC-SVG-20010904/DTD/svg10.dtd">
<svg version="1.0" xmlns="http://www.w3.org/2000/svg"
 width="248.000000pt" height="248.000000pt" viewBox="0 0 248.000000 248.000000"
 preserveAspectRatio="xMidYMid meet">
<metadata>
Created by potrace 1.10, written by Peter Selinger 2001-2011
</metadata>
<g transform="translate(0.000000,248.000000) scale(0.100000,-0.100000)"
fill="#000000" stroke="none">
<path d="M1685 2139 c-33 -4 -98 -13 -145 -18 -47 -6 -175 -22 -285 -35 -110
-14 -272 -32 -360 -41 -177 -19 -208 -30 -203 -73 5 -40 38 -51 128 -41 41 5
118 13 170 18 84 9 273 31 500 60 41 6 125 15 185 21 145 16 179 27 183 63 7
57 -29 66 -173 46z"/>
</g>
</svg>
