<?xml version="1.0" standalone="no"?>
<!DOCTYPE svg PUBLIC "-//W3C//DTD SVG 20010904//EN"
 "http://www.w3.org/TR/2001/REC-SVG-20010904/DTD/svg10.dtd">
<svg version="1.0" xmlns="http://www.w3.org/2000/svg"
 width="248.000000pt" height="248.000000pt" viewBox="0 0 248.000000 248.000000"
 preserveAspectRatio="xMidYMid meet">
<metadata>
Created by potrace 1.10, written by Peter Selinger 2001-2011
</metadata>
<g transform="translate(0.000000,248.000000) scale(0.100000,-0.100000)"
fill="#000000" stroke="none">
<path d="M445 2256 c-17 -13 -18 -38 -16 -582 1 -313 -3 -784 -10 -1046 -10
-439 -10 -480 5 -503 21 -32 60 -33 80 -3 18 30 37 803 35 1473 -1 549 -6 640
-34 661 -24 18 -36 18 -60 0z"/>
<path d="M2050 2267 c-3 -2 -32 -7 -65 -11 -33 -3 -76 -8 -95 -10 -19 -3 -102
-10 -185 -15 -402 -28 -476 -35 -486 -47 -6 -7 -13 -56 -16 -109 -7 -108 5
-95 -114 -114 -36 -6 -84 -11 -107 -11 -29 0 -48 -6 -62 -20 -26 -26 -25 -45
1 -71 19 -19 28 -20 88 -14 36 4 84 11 106 16 93 20 91 22 102 -97 14 -150 12
-148 202 -152 95 -2 200 3 292 13 221 26 331 34 369 28 55 -8 64 11 70 138 3
59 7 110 10 112 3 3 55 9 117 14 121 11 146 21 141 62 -5 42 -39 52 -154 45
l-102 -7 -4 102 c-3 84 -7 105 -23 121 -19 19 -75 36 -85 27z m0 -176 l0 -69
-67 -6 c-38 -3 -114 -9 -170 -12 l-103 -7 0 65 0 65 98 7 c53 4 124 10 157 15
33 4 66 9 73 10 8 1 12 -19 12 -68z m-450 -36 c0 -65 9 -61 -167 -70 l-123 -6
0 60 0 60 38 4 c20 2 85 4 145 5 l107 2 0 -55z m445 -212 c-4 -38 -9 -71 -11
-74 -2 -3 -41 -9 -86 -12 -46 -4 -114 -11 -153 -16 -38 -5 -70 -9 -71 -8 -1 1
-4 37 -7 80 l-7 77 58 1 c31 0 77 4 102 8 25 5 76 9 113 10 l69 1 -7 -67z
m-437 -41 l3 -83 -143 3 -143 3 -3 72 -3 71 53 6 c63 7 162 13 203 12 l30 -1
3 -83z"/>
<path d="M639 1929 c-37 -37 -16 -75 149 -272 62 -73 79 -88 100 -85 57 7 54
56 -7 133 -22 28 -67 86 -100 130 -98 130 -103 133 -142 94z"/>
<path d="M268 1693 c-9 -10 -28 -54 -42 -98 -15 -44 -52 -131 -82 -193 -56
-115 -62 -147 -33 -165 32 -20 63 0 101 66 53 92 138 315 138 362 0 44 -53 61
-82 28z"/>
<path d="M1920 1540 c-25 -5 -144 -14 -265 -20 -454 -22 -497 -29 -511 -84 -3
-13 -1 -58 5 -100 6 -43 11 -229 11 -415 0 -249 3 -340 12 -349 7 -7 24 -12
40 -12 49 0 53 21 56 296 l3 251 400 8 c220 4 403 4 406 1 3 -3 0 -97 -7 -208
-22 -339 -19 -368 35 -368 49 0 54 27 74 390 6 102 15 219 21 260 27 205 22
309 -16 341 -20 16 -195 22 -264 9z m186 -203 c-3 -56 -7 -102 -9 -103 -1 -1
-187 -6 -413 -10 l-412 -7 -5 29 c-4 16 -9 54 -13 86 l-6 56 63 6 c35 3 138 8
229 11 91 4 208 11 260 17 144 15 273 24 294 19 17 -4 18 -11 12 -104z"/>
</g>
</svg>
