<?xml version="1.0" standalone="no"?>
<!DOCTYPE svg PUBLIC "-//W3C//DTD SVG 20010904//EN"
 "http://www.w3.org/TR/2001/REC-SVG-20010904/DTD/svg10.dtd">
<svg version="1.0" xmlns="http://www.w3.org/2000/svg"
 width="248.000000pt" height="248.000000pt" viewBox="0 0 248.000000 248.000000"
 preserveAspectRatio="xMidYMid meet">
<metadata>
Created by potrace 1.10, written by Peter Selinger 2001-2011
</metadata>
<g transform="translate(0.000000,248.000000) scale(0.100000,-0.100000)"
fill="#000000" stroke="none">
<path d="M1655 2214 c-296 -18 -434 -27 -515 -34 -52 -4 -158 -13 -235 -19
-77 -6 -171 -17 -210 -24 -106 -20 -107 -23 -70 -243 21 -129 34 -183 49 -202
l20 -25 125 7 c207 10 698 37 823 44 157 10 161 13 189 177 24 144 23 275 -3
301 -18 18 -72 24 -173 18z m85 -166 c0 -35 -5 -98 -12 -140 l-12 -78 -61 0
c-34 0 -86 -4 -116 -9 -30 -5 -146 -13 -259 -16 -113 -4 -248 -11 -300 -16
-52 -4 -125 -9 -161 -9 l-66 0 -7 33 c-10 46 -36 200 -36 214 0 7 34 13 98 17
53 4 133 11 177 16 155 17 342 31 520 39 99 4 192 9 208 10 27 1 27 0 27 -61z"/>
<path d="M619 1443 c-18 -21 -14 -304 4 -343 17 -36 61 -39 82 -6 14 21 15 45
10 173 -5 100 -12 155 -21 171 -17 26 -56 29 -75 5z"/>
</g>
</svg>
