<?xml version="1.0" standalone="no"?>
<!DOCTYPE svg PUBLIC "-//W3C//DTD SVG 20010904//EN"
 "http://www.w3.org/TR/2001/REC-SVG-20010904/DTD/svg10.dtd">
<svg version="1.0" xmlns="http://www.w3.org/2000/svg"
 width="248.000000pt" height="248.000000pt" viewBox="0 0 248.000000 248.000000"
 preserveAspectRatio="xMidYMid meet">
<metadata>
Created by potrace 1.10, written by Peter Selinger 2001-2011
</metadata>
<g transform="translate(0.000000,248.000000) scale(0.100000,-0.100000)"
fill="#000000" stroke="none">
<path d="M1010 2263 c-191 -30 -317 -47 -445 -57 -165 -14 -188 -22 -183 -65
5 -47 43 -55 191 -42 72 6 133 8 136 5 3 -3 7 -65 9 -137 2 -73 8 -144 13
-159 17 -44 68 -44 88 -2 12 26 9 261 -4 300 -6 19 -1 21 62 32 37 6 93 14
123 17 114 13 150 38 130 89 -8 23 -15 26 -52 25 -24 -1 -54 -4 -68 -6z"/>
</g>
</svg>
