<?xml version="1.0" standalone="no"?>
<!DOCTYPE svg PUBLIC "-//W3C//DTD SVG 20010904//EN"
 "http://www.w3.org/TR/2001/REC-SVG-20010904/DTD/svg10.dtd">
<svg version="1.0" xmlns="http://www.w3.org/2000/svg"
 width="248.000000pt" height="248.000000pt" viewBox="0 0 248.000000 248.000000"
 preserveAspectRatio="xMidYMid meet">
<metadata>
Created by potrace 1.10, written by Peter Selinger 2001-2011
</metadata>
<g transform="translate(0.000000,248.000000) scale(0.100000,-0.100000)"
fill="#000000" stroke="none">
<path d="M445 2257 c-17 -13 -18 -40 -16 -578 1 -310 -3 -781 -10 -1046 -10
-443 -10 -485 5 -508 21 -32 60 -33 80 -3 18 30 37 803 35 1473 -1 549 -6 640
-34 661 -24 17 -36 18 -60 1z"/>
<path d="M2050 2267 c-3 -2 -32 -7 -65 -11 -33 -3 -76 -8 -95 -10 -19 -3 -102
-10 -185 -15 -424 -29 -475 -34 -488 -49 -14 -18 -14 -309 1 -441 15 -124 17
-125 200 -129 91 -2 202 3 292 13 236 27 333 34 372 28 31 -4 38 -2 53 20 14
22 16 63 18 286 2 248 1 261 -18 280 -19 20 -75 38 -85 28z m-1 -259 c0 -84
-4 -173 -7 -198 l-7 -45 -80 -7 c-44 -3 -114 -11 -155 -17 -41 -5 -76 -8 -78
-6 -2 2 -6 91 -9 198 l-6 194 99 7 c54 4 126 10 159 15 33 4 66 9 73 10 9 1
12 -35 11 -151z m-449 29 c0 -41 3 -129 7 -195 l6 -122 -141 0 c-77 0 -143 3
-145 8 -3 4 -8 89 -12 189 l-7 182 38 4 c22 2 87 4 147 5 l107 2 0 -73z"/>
<path d="M639 1929 c-37 -37 -16 -75 149 -272 62 -73 79 -88 100 -85 57 7 54
56 -7 133 -22 28 -67 86 -100 130 -98 130 -103 133 -142 94z"/>
<path d="M268 1693 c-9 -10 -28 -54 -42 -98 -15 -44 -52 -131 -82 -193 -56
-115 -62 -147 -33 -165 32 -20 63 0 101 66 53 92 138 315 138 362 0 44 -53 61
-82 28z"/>
</g>
</svg>
