<?xml version="1.0" standalone="no"?>
<!DOCTYPE svg PUBLIC "-//W3C//DTD SVG 20010904//EN"
 "http://www.w3.org/TR/2001/REC-SVG-20010904/DTD/svg10.dtd">
<svg version="1.0" xmlns="http://www.w3.org/2000/svg"
 width="248.000000pt" height="248.000000pt" viewBox="0 0 248.000000 248.000000"
 preserveAspectRatio="xMidYMid meet">
<metadata>
Created by potrace 1.10, written by Peter Selinger 2001-2011
</metadata>
<g transform="translate(0.000000,248.000000) scale(0.100000,-0.100000)"
fill="#000000" stroke="none">
<path d="M1720 2318 c-61 -88 -97 -133 -167 -210 -88 -95 -95 -128 -30 -151
45 -17 297 283 297 353 0 64 -57 68 -100 8z"/>
<path d="M712 2268 c-22 -22 -13 -63 30 -134 23 -38 56 -103 73 -144 30 -72
32 -75 64 -75 21 0 38 7 45 17 21 34 -29 160 -112 286 -39 59 -74 76 -100 50z"/>
</g>
</svg>
