<?xml version="1.0" standalone="no"?>
<!DOCTYPE svg PUBLIC "-//W3C//DTD SVG 20010904//EN"
 "http://www.w3.org/TR/2001/REC-SVG-20010904/DTD/svg10.dtd">
<svg version="1.0" xmlns="http://www.w3.org/2000/svg"
 width="248.000000pt" height="248.000000pt" viewBox="0 0 248.000000 248.000000"
 preserveAspectRatio="xMidYMid meet">
<metadata>
Created by potrace 1.10, written by Peter Selinger 2001-2011
</metadata>
<g transform="translate(0.000000,248.000000) scale(0.100000,-0.100000)"
fill="#000000" stroke="none">
<path d="M1210 2416 c-8 -10 -11 -50 -9 -123 l3 -108 -80 -7 c-43 -3 -142 -11
-219 -17 -77 -6 -171 -17 -210 -24 -106 -20 -107 -23 -70 -243 21 -128 34
-183 49 -202 l20 -25 125 7 c69 3 188 9 264 13 l138 6 -3 -74 -3 -74 -120 -12
c-66 -7 -197 -19 -292 -26 -116 -9 -177 -18 -189 -27 -15 -13 -16 -32 -9 -190
4 -96 11 -183 16 -192 19 -36 42 -39 251 -28 112 5 233 13 271 16 l67 7 0 -84
c0 -102 14 -134 55 -134 42 0 55 32 55 138 0 48 3 87 7 87 4 0 114 7 243 16
240 16 272 23 284 61 17 61 36 212 30 257 -10 90 -22 114 -60 126 -33 11 -274
8 -431 -6 l-63 -6 0 75 0 74 93 7 c50 4 147 10 215 14 162 10 165 12 193 177
25 147 23 275 -4 302 -21 21 -38 22 -318 10 l-196 -9 -5 96 c-4 74 -9 101 -23
116 -21 23 -58 26 -75 6z m530 -368 c0 -35 -5 -97 -12 -139 l-12 -77 -91 -6
c-49 -4 -136 -9 -192 -12 l-101 -6 -4 138 c-2 77 -3 140 -2 142 0 1 81 6 180
11 98 4 191 9 207 10 27 1 27 0 27 -61z m-520 -107 l0 -138 -117 -6 c-65 -4
-170 -10 -234 -13 l-115 -7 -12 54 c-16 72 -35 200 -30 204 1 2 71 9 153 16
83 7 184 15 225 19 41 4 87 7 103 8 l27 2 0 -139z m558 -539 c2 -30 -2 -78 -8
-108 -9 -43 -16 -55 -33 -58 -25 -5 -334 -26 -385 -26 l-32 0 0 115 c0 111 1
115 23 120 24 6 212 11 347 11 l85 -1 3 -53z m-568 -81 l0 -120 -42 -6 c-53
-7 -441 -25 -446 -21 -2 2 -6 51 -9 108 -7 120 -9 117 92 118 28 1 120 9 205
19 85 10 165 19 178 20 22 1 22 -1 22 -118z"/>
<path d="M2002 908 c-34 -34 -15 -61 165 -246 68 -70 85 -83 108 -80 34 4 50
27 42 60 -4 14 -63 82 -131 152 -126 127 -154 144 -184 114z"/>
<path d="M729 744 c-10 -12 -10 -25 1 -67 35 -139 130 -253 294 -352 109 -65
224 -101 421 -131 227 -34 675 -28 713 10 38 38 -10 249 -70 313 -36 39 -88
25 -88 -23 0 -12 11 -44 25 -71 13 -26 25 -68 27 -93 l3 -45 -270 1 c-281 1
-333 6 -515 50 -81 20 -124 37 -187 75 -149 90 -215 164 -249 280 -19 65 -73
92 -105 53z"/>
<path d="M1292 728 c-25 -25 -13 -56 41 -103 125 -110 205 -127 254 -54 61 91
59 85 39 108 -27 30 -62 26 -98 -9 -16 -16 -33 -30 -38 -30 -5 0 -37 23 -71
50 -63 51 -103 62 -127 38z"/>
<path d="M426 698 c-9 -12 -16 -32 -16 -43 0 -12 -9 -61 -20 -111 -11 -49 -30
-129 -41 -178 -11 -49 -24 -97 -29 -107 -24 -44 -5 -89 37 -89 42 0 60 36 96
188 69 288 72 308 53 337 -21 32 -59 33 -80 3z"/>
</g>
</svg>
