<?xml version="1.0" standalone="no"?>
<!DOCTYPE svg PUBLIC "-//W3C//DTD SVG 20010904//EN"
 "http://www.w3.org/TR/2001/REC-SVG-20010904/DTD/svg10.dtd">
<svg version="1.0" xmlns="http://www.w3.org/2000/svg"
 width="248.000000pt" height="248.000000pt" viewBox="0 0 248.000000 248.000000"
 preserveAspectRatio="xMidYMid meet">
<metadata>
Created by potrace 1.10, written by Peter Selinger 2001-2011
</metadata>
<g transform="translate(0.000000,248.000000) scale(0.100000,-0.100000)"
fill="#000000" stroke="none">
<path d="M1010 2263 c-191 -30 -317 -47 -445 -57 -165 -14 -188 -22 -183 -65
5 -47 43 -55 191 -42 72 6 133 8 136 5 3 -3 6 -65 6 -137 l0 -132 -80 -12
c-75 -10 -129 -17 -360 -44 -101 -12 -135 -28 -135 -64 0 -54 45 -59 260 -26
36 6 68 7 72 3 4 -4 9 -289 10 -634 l3 -627 -70 -16 c-92 -22 -117 -38 -113
-73 5 -48 39 -54 147 -27 217 55 559 172 574 196 14 22 1 66 -22 74 -18 5
-165 -38 -296 -86 -27 -11 -65 -22 -82 -25 l-33 -6 0 201 c0 110 2 201 3 201
32 0 368 75 385 86 24 16 29 53 10 72 -18 18 -47 15 -213 -18 -82 -16 -158
-30 -167 -30 -16 0 -18 13 -18 129 l0 128 73 17 c64 15 122 26 291 56 61 11
81 29 72 65 -9 37 -48 49 -111 36 -27 -6 -107 -22 -177 -35 -70 -14 -132 -27
-138 -31 -7 -4 -10 44 -10 142 0 81 -3 164 -6 184 l-6 36 78 12 c44 6 133 20
199 31 66 11 178 25 250 31 152 12 180 22 180 64 0 46 -29 54 -165 43 -63 -4
-151 -15 -196 -23 -44 -8 -83 -15 -86 -15 -3 0 -8 53 -11 118 -3 64 -9 126
-12 138 -6 19 0 22 62 32 37 6 93 14 123 17 114 13 150 38 130 89 -8 23 -15
26 -52 25 -24 -1 -54 -4 -68 -6z"/>
</g>
</svg>
