<?xml version="1.0" standalone="no"?>
<!DOCTYPE svg PUBLIC "-//W3C//DTD SVG 20010904//EN"
 "http://www.w3.org/TR/2001/REC-SVG-20010904/DTD/svg10.dtd">
<svg version="1.0" xmlns="http://www.w3.org/2000/svg"
 width="248.000000pt" height="248.000000pt" viewBox="0 0 248.000000 248.000000"
 preserveAspectRatio="xMidYMid meet">
<metadata>
Created by potrace 1.10, written by Peter Selinger 2001-2011
</metadata>
<g transform="translate(0.000000,248.000000) scale(0.100000,-0.100000)"
fill="#000000" stroke="none">
<path d="M582 2378 c-6 -7 -21 -42 -35 -78 -64 -170 -206 -400 -306 -494 -46
-44 -38 -96 16 -96 30 0 82 47 159 146 35 45 71 85 80 88 23 9 172 7 178 -2 5
-8 -30 -128 -77 -272 -25 -73 -11 -66 -182 -90 -284 -38 -340 -56 -340 -104 0
-46 22 -52 119 -33 125 24 326 50 333 43 7 -7 -73 -181 -128 -277 -38 -65 -91
-134 -217 -278 -66 -76 -77 -112 -40 -135 31 -19 64 6 167 127 76 88 103 114
108 101 3 -9 3 -57 0 -107 -24 -354 -39 -532 -52 -596 -17 -89 -7 -124 37
-129 47 -6 60 35 84 275 6 69 12 73 94 73 25 0 61 4 80 9 19 5 48 12 64 16
l29 6 -7 -116 c-8 -125 -3 -145 39 -145 38 0 48 26 60 150 6 66 13 121 15 123
3 2 52 9 109 16 141 17 166 30 153 84 -7 27 -46 31 -154 17 -68 -8 -103 -9
-110 -2 -7 7 -7 35 -2 83 l9 73 113 22 c130 25 165 43 160 81 -5 46 -26 49
-148 25 -61 -12 -116 -20 -121 -17 -5 4 -9 41 -9 85 l0 78 123 22 c161 30 187
40 187 78 0 55 -16 58 -166 30 l-136 -25 7 26 c3 14 9 56 12 94 6 77 -11 117
-50 117 -35 0 -47 -19 -47 -75 0 -50 -24 -163 -38 -177 -14 -14 -242 -43 -242
-31 0 7 117 271 139 313 5 8 26 18 47 22 46 8 300 36 393 43 35 3 70 10 78 17
18 15 13 68 -8 81 -16 10 -282 -11 -412 -33 -26 -4 -49 -5 -51 -1 -2 3 14 62
36 131 21 69 41 142 45 162 5 35 8 37 52 43 118 16 268 48 289 61 25 17 29 55
7 74 -17 14 -28 13 -245 -23 -178 -29 -313 -42 -329 -33 -8 5 -3 21 13 49 42
72 96 207 96 241 0 18 -5 37 -12 44 -16 16 -53 15 -66 0z m182 -1305 c8 -52 7
-115 -2 -130 -4 -7 -54 -19 -110 -28 -154 -23 -142 -28 -142 61 0 101 6 111
72 113 29 1 71 6 93 10 76 16 82 15 89 -26z m-6 -303 c6 -95 7 -94 -119 -119
-61 -12 -118 -20 -126 -16 -13 4 -15 18 -10 76 3 39 8 73 11 76 6 6 218 42
231 39 6 -2 11 -27 13 -56z"/>
</g>
</svg>
