<?xml version="1.0" standalone="no"?>
<!DOCTYPE svg PUBLIC "-//W3C//DTD SVG 20010904//EN"
 "http://www.w3.org/TR/2001/REC-SVG-20010904/DTD/svg10.dtd">
<svg version="1.0" xmlns="http://www.w3.org/2000/svg"
 width="248.000000pt" height="248.000000pt" viewBox="0 0 248.000000 248.000000"
 preserveAspectRatio="xMidYMid meet">
<metadata>
Created by potrace 1.10, written by Peter Selinger 2001-2011
</metadata>
<g transform="translate(0.000000,248.000000) scale(0.100000,-0.100000)"
fill="#000000" stroke="none">
<path d="M1537 2239 c-128 -5 -203 -12 -213 -20 -18 -14 -18 -33 1 -84 21 -60
21 -637 0 -719 -14 -53 -14 -61 0 -82 9 -13 21 -24 28 -24 6 0 84 6 172 14 88
8 196 14 240 15 44 0 103 4 131 7 93 11 90 21 99 -263 4 -136 9 -275 11 -308
5 -96 6 -537 1 -542 -3 -2 -46 17 -97 42 -87 44 -93 45 -116 30 -37 -24 -32
-60 14 -88 71 -45 215 -107 248 -107 55 0 63 24 54 165 -5 66 -9 233 -9 370 0
138 -5 322 -11 410 -11 179 -11 471 1 645 24 354 28 398 44 440 20 52 21 76 4
96 -13 16 -244 17 -602 3z m486 -104 c-1 -11 -4 -70 -8 -133 -3 -62 -8 -119
-11 -127 -5 -11 -23 -15 -68 -15 -33 0 -140 -5 -236 -10 -221 -13 -231 -13
-252 -12 -16 2 -18 16 -18 146 0 141 1 145 23 152 23 8 379 22 502 20 63 -1
70 -3 68 -21z m-29 -402 c-3 -224 -5 -270 -12 -279 -4 -7 -72 -14 -187 -18
-99 -3 -222 -9 -273 -12 l-93 -6 3 158 3 159 105 8 c192 14 385 24 420 23 33
-1 35 -3 34 -33z"/>
<path d="M805 2214 c-248 -21 -395 -42 -421 -59 -28 -18 -31 -51 -6 -78 15
-17 17 -50 17 -371 0 -306 -11 -721 -20 -736 -1 -3 -6 -149 -9 -325 -4 -176
-12 -357 -18 -402 -13 -93 -4 -116 41 -111 53 6 58 36 71 443 6 204 13 388 15
410 3 34 15 247 15 282 0 21 64 31 245 38 209 8 270 18 290 48 8 13 16 63 20
117 3 52 8 113 10 135 3 22 12 126 20 230 8 105 23 227 32 273 23 109 18 117
-73 118 -38 1 -141 -5 -229 -12z m190 -161 c-5 -43 -11 -109 -14 -148 l-6 -70
-40 -6 c-67 -12 -316 -34 -380 -34 l-60 0 -3 141 c-3 140 -2 142 20 148 13 3
113 13 223 22 110 8 202 17 204 20 2 2 18 4 34 4 l29 0 -7 -77z m-28 -337 c-3
-8 -9 -73 -13 -145 -4 -72 -12 -138 -18 -146 -8 -11 -57 -17 -214 -26 -111 -6
-209 -8 -217 -5 -13 5 -15 28 -13 148 l3 143 120 11 c66 6 161 15 210 19 50 4
92 9 94 11 2 2 15 4 29 4 17 0 22 -4 19 -14z"/>
<path d="M1301 1168 c-108 -108 -122 -126 -119 -152 3 -33 10 -30 -118 -50
-40 -6 -41 -5 -36 19 3 17 -6 39 -32 74 -20 27 -36 53 -36 59 0 6 -15 27 -34
46 -34 37 -72 46 -94 24 -21 -21 -13 -42 48 -136 33 -50 60 -93 60 -95 0 -2
-33 -8 -72 -11 -83 -8 -118 -26 -118 -60 0 -45 20 -50 138 -38 59 7 120 12
136 12 l29 0 -6 -66 c-2 -36 -6 -67 -8 -68 -2 -2 -65 -11 -139 -20 -165 -21
-169 -22 -180 -52 -22 -58 16 -76 120 -58 90 16 160 18 160 4 0 -5 -11 -35
-25 -67 -29 -65 -128 -173 -186 -203 -48 -25 -63 -45 -55 -75 14 -55 82 -40
178 39 81 67 134 142 174 242 19 49 38 92 42 96 4 4 56 14 116 23 59 8 125 19
145 24 20 6 72 14 115 20 83 10 96 18 96 64 0 45 -32 50 -168 26 -64 -12 -154
-27 -199 -34 l-83 -12 0 69 c0 37 4 68 9 68 16 0 305 50 323 56 10 3 21 17 24
31 10 38 -28 67 -76 59 -19 -3 -60 -9 -90 -13 l-55 -6 33 28 c19 16 65 64 103
107 56 63 69 84 63 101 -8 27 -14 33 -40 41 -17 5 -43 -16 -143 -116z"/>
</g>
</svg>
