<?xml version="1.0" standalone="no"?>
<!DOCTYPE svg PUBLIC "-//W3C//DTD SVG 20010904//EN"
 "http://www.w3.org/TR/2001/REC-SVG-20010904/DTD/svg10.dtd">
<svg version="1.0" xmlns="http://www.w3.org/2000/svg"
 width="248.000000pt" height="248.000000pt" viewBox="0 0 248.000000 248.000000"
 preserveAspectRatio="xMidYMid meet">
<metadata>
Created by potrace 1.10, written by Peter Selinger 2001-2011
</metadata>
<g transform="translate(0.000000,248.000000) scale(0.100000,-0.100000)"
fill="#000000" stroke="none">
<path d="M445 2256 c-17 -13 -18 -38 -16 -582 1 -313 -3 -784 -10 -1046 -10
-439 -10 -480 5 -503 21 -32 60 -33 80 -3 18 30 37 805 35 1473 -1 549 -6 640
-34 661 -24 18 -36 18 -60 0z"/>
<path d="M1945 2255 c-55 -8 -165 -19 -245 -24 -425 -30 -471 -35 -481 -47 -5
-7 -13 -56 -17 -111 l-7 -98 -115 -13 c-153 -18 -158 -19 -171 -43 -15 -29 2
-66 34 -74 13 -4 60 -1 103 5 43 7 97 14 120 17 l40 5 10 -106 c15 -152 13
-150 203 -154 95 -2 200 3 292 13 221 26 331 34 369 28 54 -8 64 11 70 138 3
59 8 110 10 112 3 3 55 9 117 14 121 11 146 21 141 62 -5 42 -39 52 -155 45
l-101 -7 -4 101 c-5 150 -25 163 -213 137z m105 -164 l0 -69 -67 -6 c-38 -3
-114 -9 -170 -12 l-103 -7 0 67 0 66 63 1 c34 0 105 6 157 13 52 8 101 14 108
15 8 1 12 -19 12 -68z m-450 -35 c0 -44 -4 -56 -17 -60 -10 -2 -75 -8 -145
-11 l-128 -7 0 60 0 61 38 4 c20 2 85 4 145 5 l107 2 0 -54z m445 -213 c-4
-38 -9 -71 -12 -75 -2 -5 -26 -8 -52 -8 -26 0 -94 -7 -151 -15 -56 -9 -104
-15 -105 -13 -1 2 -5 38 -8 81 l-7 77 58 1 c31 0 77 4 102 8 25 5 76 9 114 10
l68 1 -7 -67z m-437 -41 l3 -83 -143 3 -143 3 -3 72 -3 71 53 6 c63 7 162 13
203 12 l30 -1 3 -83z"/>
<path d="M639 1929 c-36 -36 -25 -56 146 -272 60 -77 94 -98 124 -80 33 21 24
65 -26 127 -27 32 -74 93 -105 135 -93 125 -100 129 -139 90z"/>
<path d="M268 1693 c-9 -10 -28 -54 -42 -98 -15 -44 -52 -130 -82 -192 -56
-116 -62 -141 -42 -161 46 -46 109 27 181 213 68 177 78 220 55 243 -17 17
-53 15 -70 -5z"/>
<path d="M1920 1540 c-25 -5 -148 -13 -275 -20 -435 -21 -487 -29 -501 -84 -3
-13 -1 -58 5 -100 6 -43 11 -229 11 -415 l0 -337 36 -35 35 -34 420 2 c429 2
480 6 494 41 10 23 22 152 40 412 7 118 19 274 25 345 13 149 4 200 -40 222
-28 14 -177 16 -250 3z m187 -201 c-4 -56 -8 -103 -9 -105 -2 -1 -188 -6 -414
-10 l-412 -7 -5 29 c-4 16 -9 54 -13 86 l-6 56 63 6 c35 3 170 10 299 16 129
6 253 15 275 20 22 4 82 8 134 9 l94 1 -6 -101z m-27 -297 l0 -78 -247 -1
c-137 0 -319 -3 -405 -7 l-158 -8 0 81 0 81 218 3 c119 1 301 3 405 5 l187 2
0 -78z m-102 -188 c106 -8 101 2 80 -139 l-12 -82 -170 -6 c-94 -4 -269 -7
-388 -7 l-218 0 0 110 0 110 33 1 c17 1 111 5 207 8 259 11 366 12 468 5z"/>
<path d="M1344 399 c-46 -74 -160 -171 -261 -223 -25 -13 -33 -23 -33 -44 0
-70 63 -69 165 2 112 78 220 186 231 232 9 33 -19 74 -51 74 -18 0 -32 -11
-51 -41z"/>
<path d="M1982 418 c-35 -35 12 -113 106 -176 31 -20 96 -74 144 -119 87 -83
119 -98 146 -71 7 7 12 23 12 36 0 32 -101 136 -210 217 -47 34 -98 77 -114
94 -31 32 -63 40 -84 19z"/>
</g>
</svg>
