<?xml version="1.0" standalone="no"?>
<!DOCTYPE svg PUBLIC "-//W3C//DTD SVG 20010904//EN"
 "http://www.w3.org/TR/2001/REC-SVG-20010904/DTD/svg10.dtd">
<svg version="1.0" xmlns="http://www.w3.org/2000/svg"
 width="248.000000pt" height="248.000000pt" viewBox="0 0 248.000000 248.000000"
 preserveAspectRatio="xMidYMid meet">
<metadata>
Created by potrace 1.10, written by Peter Selinger 2001-2011
</metadata>
<g transform="translate(0.000000,248.000000) scale(0.100000,-0.100000)"
fill="#000000" stroke="none">
<path d="M582 2378 c-6 -7 -21 -42 -35 -78 -64 -170 -206 -400 -306 -494 -46
-44 -38 -96 16 -96 30 0 82 47 159 146 35 45 71 85 80 88 9 3 62 6 118 6 151
0 458 46 504 76 25 17 29 55 7 74 -17 14 -28 13 -245 -23 -178 -29 -313 -42
-329 -33 -8 5 -3 21 13 49 42 72 96 207 96 241 0 18 -5 37 -12 44 -16 16 -53
15 -66 0z"/>
</g>
</svg>
