<?xml version="1.0" standalone="no"?>
<!DOCTYPE svg PUBLIC "-//W3C//DTD SVG 20010904//EN"
 "http://www.w3.org/TR/2001/REC-SVG-20010904/DTD/svg10.dtd">
<svg version="1.0" xmlns="http://www.w3.org/2000/svg"
 width="248.000000pt" height="248.000000pt" viewBox="0 0 248.000000 248.000000"
 preserveAspectRatio="xMidYMid meet">
<metadata>
Created by potrace 1.10, written by Peter Selinger 2001-2011
</metadata>
<g transform="translate(0.000000,248.000000) scale(0.100000,-0.100000)"
fill="#000000" stroke="none">
<path d="M1685 2139 c-33 -4 -98 -13 -145 -18 -47 -6 -175 -22 -285 -35 -110
-14 -272 -32 -360 -41 -177 -19 -208 -30 -203 -73 5 -40 38 -51 128 -41 41 5
118 13 170 18 84 9 273 31 500 60 41 6 125 15 185 21 145 16 179 27 183 63 7
57 -29 66 -173 46z"/>
<path d="M2150 1554 c-19 -2 -69 -8 -110 -14 -269 -36 -387 -50 -475 -55 -55
-3 -127 -10 -160 -15 -33 -5 -118 -16 -190 -24 -71 -8 -207 -24 -302 -35 -94
-11 -231 -28 -305 -36 -292 -33 -298 -35 -298 -81 0 -14 10 -30 25 -40 23 -15
34 -15 138 -1 61 9 139 19 172 22 33 3 114 12 180 20 158 20 259 32 375 45 52
6 125 15 162 20 36 6 133 15 215 20 81 6 155 13 163 15 20 6 238 33 364 45
109 11 146 27 146 65 0 23 -34 57 -55 53 -5 0 -26 -3 -45 -4z"/>
</g>
</svg>
