<?xml version="1.0" standalone="no"?>
<!DOCTYPE svg PUBLIC "-//W3C//DTD SVG 20010904//EN"
 "http://www.w3.org/TR/2001/REC-SVG-20010904/DTD/svg10.dtd">
<svg version="1.0" xmlns="http://www.w3.org/2000/svg"
 width="248.000000pt" height="248.000000pt" viewBox="0 0 248.000000 248.000000"
 preserveAspectRatio="xMidYMid meet">
<metadata>
Created by potrace 1.10, written by Peter Selinger 2001-2011
</metadata>
<g transform="translate(0.000000,248.000000) scale(0.100000,-0.100000)"
fill="#000000" stroke="none">
<path d="M582 2388 c-5 -7 -15 -130 -20 -277 -6 -145 -14 -267 -19 -272 -4 -4
-79 -16 -166 -27 -87 -11 -164 -26 -173 -33 -23 -19 -13 -62 18 -77 22 -10 49
-10 155 3 70 9 136 18 147 21 20 6 20 -33 0 -458 l-6 -126 -92 -36 c-218 -85
-236 -94 -236 -130 0 -60 52 -60 200 3 l115 49 3 -96 c2 -54 0 -215 -3 -360
l-7 -263 -33 35 c-36 40 -64 45 -88 18 -24 -26 -22 -37 21 -103 20 -32 46 -73
57 -91 38 -61 107 -69 133 -15 14 29 31 420 32 727 l0 185 60 27 c46 20 61 32
66 54 6 22 2 31 -16 46 -13 11 -31 17 -39 14 -9 -2 -26 -8 -39 -12 l-24 -7 6
144 c4 79 9 203 12 275 l6 131 86 17 c48 8 129 22 180 30 105 16 122 26 122
67 0 55 -33 57 -271 13 -121 -22 -111 -35 -104 124 14 294 12 368 -9 391 -21
23 -58 28 -74 9z"/>
<path d="M1488 2308 c-8 -7 -53 -71 -98 -143 -45 -71 -106 -162 -136 -202 -55
-72 -64 -99 -42 -121 26 -26 65 -14 106 36 38 45 187 264 211 310 11 21 17 22
131 22 66 0 120 -2 120 -5 0 -3 -18 -48 -41 -101 -41 -95 -103 -195 -166 -267
-18 -20 -33 -42 -33 -47 0 -6 -15 -10 -32 -10 -18 0 -82 -6 -143 -14 -60 -8
-150 -20 -200 -26 -148 -18 -144 -9 -135 -387 9 -324 13 -348 65 -348 52 0 54
18 46 335 -6 204 -5 287 3 292 6 4 34 8 61 8 28 1 70 5 95 11 48 10 291 24
603 35 l187 7 0 -24 c0 -50 -39 -430 -45 -439 -6 -10 -17 -139 -15 -190 0 -25
23 -50 45 -50 32 0 47 28 55 101 4 41 15 112 23 159 18 98 43 354 40 421 -2
72 -25 115 -63 123 -44 8 -211 7 -345 -4 -60 -4 -111 -7 -112 -6 -1 1 25 40
57 88 78 113 162 304 164 372 1 44 -2 52 -24 63 -35 18 -360 18 -382 1z"/>
</g>
</svg>
