<?xml version="1.0" standalone="no"?>
<!DOCTYPE svg PUBLIC "-//W3C//DTD SVG 20010904//EN"
 "http://www.w3.org/TR/2001/REC-SVG-20010904/DTD/svg10.dtd">
<svg version="1.0" xmlns="http://www.w3.org/2000/svg"
 width="248.000000pt" height="248.000000pt" viewBox="0 0 248.000000 248.000000"
 preserveAspectRatio="xMidYMid meet">
<metadata>
Created by potrace 1.10, written by Peter Selinger 2001-2011
</metadata>
<g transform="translate(0.000000,248.000000) scale(0.100000,-0.100000)"
fill="#000000" stroke="none">
<path d="M1620 2280 c-328 -47 -703 -76 -871 -67 -131 7 -149 3 -149 -39 0
-59 135 -83 375 -65 324 23 762 75 805 95 28 13 39 56 18 73 -25 20 -54 20
-178 3z"/>
<path d="M482 1788 c-16 -16 -15 -48 2 -89 8 -19 26 -92 40 -163 15 -76 33
-137 43 -148 40 -45 105 8 83 67 -6 14 -19 72 -31 128 -32 160 -59 217 -104
217 -11 0 -26 -5 -33 -12z"/>
</g>
</svg>
