<?xml version="1.0" standalone="no"?>
<!DOCTYPE svg PUBLIC "-//W3C//DTD SVG 20010904//EN"
 "http://www.w3.org/TR/2001/REC-SVG-20010904/DTD/svg10.dtd">
<svg version="1.0" xmlns="http://www.w3.org/2000/svg"
 width="248.000000pt" height="248.000000pt" viewBox="0 0 248.000000 248.000000"
 preserveAspectRatio="xMidYMid meet">
<metadata>
Created by potrace 1.10, written by Peter Selinger 2001-2011
</metadata>
<g transform="translate(0.000000,248.000000) scale(0.100000,-0.100000)"
fill="#000000" stroke="none">
<path d="M1620 2280 c-328 -47 -703 -76 -871 -67 -84 5 -126 4 -135 -4 -22
-18 -17 -57 9 -73 25 -16 142 -36 211 -36 l46 0 0 -124 c0 -103 -3 -125 -16
-130 -8 -3 -88 -13 -177 -21 -201 -19 -205 -20 -218 -49 -9 -18 -7 -31 6 -55
19 -37 75 -289 75 -337 0 -54 17 -60 133 -45 56 7 161 16 232 21 72 5 193 15
270 24 222 25 465 46 529 46 55 0 61 2 93 38 50 53 116 148 149 212 15 30 45
85 66 122 45 79 48 111 12 134 -23 16 -41 16 -197 6 -232 -15 -417 -24 -417
-20 1 23 30 221 33 225 3 2 49 11 104 19 54 8 126 18 161 24 72 10 92 22 92
55 0 50 -35 57 -190 35z m-280 -174 c0 -44 -27 -187 -38 -198 -4 -4 -66 -14
-137 -23 -72 -8 -140 -18 -152 -21 -21 -6 -21 -3 -25 118 -2 67 -2 125 -1 127
1 2 71 8 155 13 83 5 154 11 157 13 2 3 13 5 23 5 14 0 18 -8 18 -34z m580
-269 c0 -2 -22 -45 -49 -95 -52 -98 -104 -173 -134 -191 -16 -11 -273 -41
-345 -41 -39 0 -38 -19 -6 187 l18 112 40 5 c72 9 476 28 476 23z m-631 -84
c-4 -21 -13 -81 -20 -133 -6 -52 -15 -102 -20 -111 -6 -11 -29 -18 -81 -22
-40 -4 -95 -10 -123 -13 l-50 -6 -2 145 -3 145 83 12 c119 17 211 27 218 23 4
-2 3 -20 -2 -40z m-404 -35 c3 -13 4 -75 3 -138 l-3 -115 -65 -6 c-36 -3 -88
-9 -116 -13 -60 -9 -51 -24 -89 156 l-22 107 51 6 c28 3 80 9 116 14 110 14
119 14 125 -11z"/>
<path d="M1074 1298 c-11 -13 -42 -70 -68 -128 -27 -58 -53 -110 -60 -117 -6
-6 -58 -17 -116 -22 -278 -29 -657 -88 -688 -108 -17 -10 -22 -22 -20 -41 5
-46 34 -51 155 -30 194 33 573 81 600 76 24 -5 -103 -188 -144 -209 -49 -24
-63 -39 -63 -65 0 -29 25 -54 53 -54 22 0 332 -122 345 -135 10 -10 -63 -68
-136 -109 -58 -32 -197 -82 -299 -106 -34 -9 -44 -16 -49 -37 -17 -64 36 -76
169 -38 120 33 253 99 347 169 41 31 82 56 90 56 34 0 374 -205 443 -266 42
-38 53 -41 85 -18 41 29 24 73 -48 125 -49 35 -307 192 -361 219 -24 12 -45
24 -47 25 -2 1 19 32 45 68 80 109 131 199 169 298 59 155 20 139 339 139 206
0 298 -4 367 -16 51 -9 96 -18 100 -20 13 -8 57 16 63 35 8 25 -9 58 -32 65
-10 3 -70 15 -133 26 -152 26 -372 26 -786 0 -174 -12 -318 -19 -320 -17 -2 2
16 45 41 96 25 51 45 102 45 115 0 48 -52 62 -86 24z m331 -328 c16 -26 -131
-303 -209 -394 l-33 -39 -149 63 c-82 35 -153 67 -157 70 -4 4 16 43 46 86 29
43 68 105 86 136 l32 56 62 7 c34 3 116 10 182 14 66 5 123 9 127 10 4 0 9 -3
13 -9z"/>
</g>
</svg>
