<?xml version="1.0" standalone="no"?>
<!DOCTYPE svg PUBLIC "-//W3C//DTD SVG 20010904//EN"
 "http://www.w3.org/TR/2001/REC-SVG-20010904/DTD/svg10.dtd">
<svg version="1.0" xmlns="http://www.w3.org/2000/svg"
 width="248.000000pt" height="248.000000pt" viewBox="0 0 248.000000 248.000000"
 preserveAspectRatio="xMidYMid meet">
<metadata>
Created by potrace 1.10, written by Peter Selinger 2001-2011
</metadata>
<g transform="translate(0.000000,248.000000) scale(0.100000,-0.100000)"
fill="#000000" stroke="none">
<path d="M1460 2090 c-80 -10 -190 -23 -245 -30 -55 -6 -149 -17 -210 -25 -60
-8 -156 -18 -212 -23 -56 -5 -109 -15 -118 -22 -23 -19 -18 -57 9 -75 21 -14
39 -15 146 -5 67 6 169 18 228 25 59 8 150 19 202 25 52 6 129 15 170 20 41 6
131 15 199 20 91 7 129 15 143 27 21 18 24 53 6 71 -17 17 -143 14 -318 -8z"/>
</g>
</svg>
