<?xml version="1.0" standalone="no"?>
<!DOCTYPE svg PUBLIC "-//W3C//DTD SVG 20010904//EN"
 "http://www.w3.org/TR/2001/REC-SVG-20010904/DTD/svg10.dtd">
<svg version="1.0" xmlns="http://www.w3.org/2000/svg"
 width="248.000000pt" height="248.000000pt" viewBox="0 0 248.000000 248.000000"
 preserveAspectRatio="xMidYMid meet">
<metadata>
Created by potrace 1.10, written by Peter Selinger 2001-2011
</metadata>
<g transform="translate(0.000000,248.000000) scale(0.100000,-0.100000)"
fill="#000000" stroke="none">
<path d="M1620 2280 c-328 -47 -703 -76 -871 -67 -84 5 -126 4 -135 -4 -22
-18 -17 -57 9 -73 25 -16 142 -36 211 -36 l46 0 0 -124 c0 -103 -3 -125 -16
-130 -8 -3 -88 -13 -177 -21 -198 -19 -204 -20 -218 -46 -8 -16 -6 -31 9 -67
11 -26 32 -105 46 -176 15 -76 33 -137 43 -148 40 -45 105 8 83 67 -15 40 -58
255 -51 255 3 0 66 7 140 16 110 12 136 13 142 2 5 -7 9 -72 9 -143 0 -142 4
-155 53 -155 23 0 31 7 44 37 12 31 14 61 8 164 l-7 126 79 12 c108 16 223 28
227 24 1 -2 -3 -36 -10 -76 -31 -185 -34 -221 -17 -239 39 -43 86 -10 96 67 3
22 13 90 23 152 l18 112 40 5 c63 7 468 27 472 23 6 -6 -95 -190 -128 -232
-17 -22 -44 -50 -60 -63 -48 -40 -32 -102 26 -102 38 0 143 125 202 240 15 30
45 85 66 122 45 79 48 111 12 134 -23 16 -41 16 -197 6 -232 -15 -417 -24
-417 -20 1 23 30 221 33 225 3 2 49 11 104 19 54 8 126 18 161 24 72 10 92 22
92 55 0 50 -35 57 -190 35z m-280 -174 c0 -44 -27 -187 -38 -198 -4 -4 -66
-14 -137 -23 -72 -8 -140 -18 -152 -21 -21 -6 -21 -3 -25 118 -2 67 -2 125 -1
127 1 2 71 8 155 13 83 5 154 11 157 13 2 3 13 5 23 5 14 0 18 -8 18 -34z"/>
</g>
</svg>
