<?xml version="1.0" standalone="no"?>
<!DOCTYPE svg PUBLIC "-//W3C//DTD SVG 20010904//EN"
 "http://www.w3.org/TR/2001/REC-SVG-20010904/DTD/svg10.dtd">
<svg version="1.0" xmlns="http://www.w3.org/2000/svg"
 width="248.000000pt" height="248.000000pt" viewBox="0 0 248.000000 248.000000"
 preserveAspectRatio="xMidYMid meet">
<metadata>
Created by potrace 1.10, written by Peter Selinger 2001-2011
</metadata>
<g transform="translate(0.000000,248.000000) scale(0.100000,-0.100000)"
fill="#000000" stroke="none">
<path d="M1620 2280 c-328 -47 -703 -76 -871 -67 -84 5 -126 4 -135 -4 -22
-18 -17 -57 9 -73 25 -16 142 -36 211 -36 l46 0 0 -124 c0 -103 -3 -125 -16
-130 -8 -3 -88 -13 -177 -21 -198 -19 -204 -20 -218 -46 -8 -16 -6 -31 9 -67
11 -26 32 -105 46 -176 15 -76 33 -137 43 -148 40 -45 105 8 83 67 -15 40 -58
255 -51 255 3 0 66 7 140 16 110 12 136 13 142 2 5 -7 9 -72 9 -143 0 -142 4
-155 53 -155 23 0 31 7 44 37 12 31 14 61 8 164 l-7 126 79 12 c113 16 224 30
343 41 134 12 501 32 506 27 6 -6 -95 -189 -128 -232 -17 -22 -44 -50 -60 -63
-48 -40 -32 -102 26 -102 38 0 143 125 202 240 15 30 45 85 66 122 45 79 48
111 12 134 -23 15 -42 16 -202 6 -97 -6 -224 -14 -282 -17 -112 -6 -409 -39
-499 -55 -30 -6 -55 -9 -57 -7 -1 1 -4 57 -5 124 l-4 122 29 5 c16 3 58 6 95
6 111 0 631 65 671 84 28 13 39 56 18 73 -25 20 -54 20 -178 3z"/>
</g>
</svg>
