<?xml version="1.0" standalone="no"?>
<!DOCTYPE svg PUBLIC "-//W3C//DTD SVG 20010904//EN"
 "http://www.w3.org/TR/2001/REC-SVG-20010904/DTD/svg10.dtd">
<svg version="1.0" xmlns="http://www.w3.org/2000/svg"
 width="248.000000pt" height="248.000000pt" viewBox="0 0 248.000000 248.000000"
 preserveAspectRatio="xMidYMid meet">
<metadata>
Created by potrace 1.10, written by Peter Selinger 2001-2011
</metadata>
<g transform="translate(0.000000,248.000000) scale(0.100000,-0.100000)"
fill="#000000" stroke="none">
<path d="M1620 2280 c-328 -47 -703 -76 -871 -67 -131 7 -149 3 -149 -39 0
-59 135 -83 375 -65 324 23 762 75 805 95 28 13 39 56 18 73 -25 20 -54 20
-178 3z"/>
<path d="M1805 1940 c-49 -4 -151 -10 -225 -14 -122 -5 -346 -29 -535 -56
-224 -32 -292 -40 -400 -50 -152 -13 -162 -16 -176 -41 -8 -16 -6 -31 9 -67
11 -26 32 -105 46 -176 15 -76 33 -137 43 -148 40 -45 105 8 83 67 -6 15 -21
78 -34 140 l-23 114 56 6 c31 4 139 17 241 31 269 36 402 52 520 64 133 12
501 32 506 27 6 -6 -95 -189 -128 -232 -17 -22 -44 -50 -60 -63 -48 -40 -32
-102 26 -102 38 0 143 125 202 240 15 30 45 85 66 122 80 140 49 160 -217 138z"/>
</g>
</svg>
