<?xml version="1.0" standalone="no"?>
<!DOCTYPE svg PUBLIC "-//W3C//DTD SVG 20010904//EN"
 "http://www.w3.org/TR/2001/REC-SVG-20010904/DTD/svg10.dtd">
<svg version="1.0" xmlns="http://www.w3.org/2000/svg"
 width="248.000000pt" height="248.000000pt" viewBox="0 0 248.000000 248.000000"
 preserveAspectRatio="xMidYMid meet">
<metadata>
Created by potrace 1.10, written by Peter Selinger 2001-2011
</metadata>
<g transform="translate(0.000000,248.000000) scale(0.100000,-0.100000)"
fill="#000000" stroke="none">
<path d="M1179 2384 c-7 -9 -16 -57 -19 -117 -4 -56 -13 -127 -20 -158 l-13
-57 -70 -11 c-38 -6 -131 -16 -206 -22 -75 -6 -147 -16 -161 -23 -36 -16 -39
-60 -6 -81 21 -14 39 -15 148 -5 67 6 152 15 187 21 35 5 66 7 69 4 6 -6 -30
-136 -53 -192 -13 -30 -18 -33 -55 -33 -65 0 -183 -20 -207 -36 -13 -8 -23
-25 -23 -38 0 -42 20 -48 130 -41 66 5 100 4 100 -3 0 -19 -111 -233 -123
-237 -7 -3 -109 -14 -227 -25 -411 -39 -404 -38 -398 -89 5 -45 44 -55 157
-42 153 19 250 29 335 37 l78 7 -18 -29 c-38 -58 -120 -172 -168 -232 -52 -65
-247 -243 -321 -293 -65 -44 -60 -99 9 -99 43 1 62 13 179 116 175 152 238
226 367 422 l85 130 60 6 c188 20 433 41 815 71 96 8 218 15 270 15 108 0 144
13 148 52 5 41 -29 58 -113 58 -77 0 -396 -23 -545 -40 -52 -5 -158 -14 -235
-20 -77 -5 -182 -14 -234 -20 -52 -5 -97 -8 -100 -5 -3 3 13 43 36 88 22 45
47 99 54 119 16 45 -19 37 377 83 67 8 135 20 150 27 37 18 42 61 10 82 -24
15 -29 15 -363 -28 -60 -7 -112 -12 -114 -9 -3 2 1 23 8 46 6 23 20 71 30 107
l17 65 70 7 c38 4 105 12 149 18 44 5 136 14 204 20 91 7 129 15 143 27 21 18
24 53 6 71 -18 18 -121 15 -303 -8 -88 -11 -177 -20 -198 -20 -38 0 -39 1 -32
28 26 101 31 249 9 280 -18 26 -56 29 -75 6z"/>
</g>
</svg>
