<?xml version="1.0" standalone="no"?>
<!DOCTYPE svg PUBLIC "-//W3C//DTD SVG 20010904//EN"
 "http://www.w3.org/TR/2001/REC-SVG-20010904/DTD/svg10.dtd">
<svg version="1.0" xmlns="http://www.w3.org/2000/svg"
 width="248.000000pt" height="248.000000pt" viewBox="0 0 248.000000 248.000000"
 preserveAspectRatio="xMidYMid meet">
<metadata>
Created by potrace 1.10, written by Peter Selinger 2001-2011
</metadata>
<g transform="translate(0.000000,248.000000) scale(0.100000,-0.100000)"
fill="#000000" stroke="none">
<path d="M1720 2210 c-279 -67 -486 -95 -815 -114 -110 -6 -206 -15 -212 -19
-23 -15 -15 -55 14 -74 23 -15 46 -18 161 -15 74 1 166 7 205 12 40 6 137 17
217 26 80 8 203 28 275 44 71 16 157 32 189 36 87 10 119 51 76 94 -21 21 -51
24 -110 10z"/>
</g>
</svg>
