<?xml version="1.0" standalone="no"?>
<!DOCTYPE svg PUBLIC "-//W3C//DTD SVG 20010904//EN"
 "http://www.w3.org/TR/2001/REC-SVG-20010904/DTD/svg10.dtd">
<svg version="1.0" xmlns="http://www.w3.org/2000/svg"
 width="248.000000pt" height="248.000000pt" viewBox="0 0 248.000000 248.000000"
 preserveAspectRatio="xMidYMid meet">
<metadata>
Created by potrace 1.10, written by Peter Selinger 2001-2011
</metadata>
<g transform="translate(0.000000,248.000000) scale(0.100000,-0.100000)"
fill="#000000" stroke="none">
<path d="M1211 2381 c-17 -17 -20 -35 -20 -132 0 -62 -4 -116 -9 -121 -15 -15
-110 -26 -292 -33 -102 -4 -191 -12 -197 -17 -18 -14 -16 -53 2 -68 8 -6 31
-16 51 -20 35 -8 292 3 388 16 l49 7 -6 -89 c-4 -49 -10 -123 -13 -164 -7 -84
5 -110 50 -110 40 0 49 24 58 153 4 67 10 133 12 147 2 14 5 37 5 51 1 25 4
26 71 33 38 3 129 19 202 36 73 16 160 32 192 36 87 10 119 51 76 94 -26 26
-28 26 -200 -10 -196 -42 -290 -59 -318 -60 l-23 0 7 114 c6 107 6 114 -15
135 -26 26 -45 27 -70 2z"/>
</g>
</svg>
