<?xml version="1.0" standalone="no"?>
<!DOCTYPE svg PUBLIC "-//W3C//DTD SVG 20010904//EN"
 "http://www.w3.org/TR/2001/REC-SVG-20010904/DTD/svg10.dtd">
<svg version="1.0" xmlns="http://www.w3.org/2000/svg"
 width="248.000000pt" height="248.000000pt" viewBox="0 0 248.000000 248.000000"
 preserveAspectRatio="xMidYMid meet">
<metadata>
Created by potrace 1.10, written by Peter Selinger 2001-2011
</metadata>
<g transform="translate(0.000000,248.000000) scale(0.100000,-0.100000)"
fill="#000000" stroke="none">
<path d="M659 2354 c-10 -12 -10 -24 -1 -57 12 -46 9 -244 -5 -258 -10 -10
-140 -24 -303 -35 -112 -7 -130 -14 -130 -48 0 -36 20 -46 87 -46 l62 0 25
-42 c23 -41 28 -66 51 -280 3 -27 2 -48 -2 -48 -54 -2 -161 -23 -180 -35 -27
-18 -31 -56 -8 -75 16 -13 30 -12 290 20 39 5 124 14 190 20 203 19 399 41
418 46 9 3 22 14 28 25 24 47 -22 84 -86 69 -21 -5 -72 -12 -113 -16 l-75 -7
6 24 c3 13 18 94 33 179 16 94 33 160 41 167 8 6 45 15 81 18 78 8 112 26 112
59 0 53 -29 57 -200 33 -63 -8 -139 -18 -167 -20 l-53 -4 0 142 c0 135 -1 143
-23 163 -27 26 -59 28 -78 6z m211 -415 c0 -26 -63 -345 -69 -352 -4 -4 -61
-13 -127 -21 -89 -10 -121 -11 -126 -2 -4 6 -8 34 -8 61 0 45 -21 197 -36 266
l-6 25 154 16 c199 20 218 20 218 7z"/>
</g>
</svg>
