<?xml version="1.0" standalone="no"?>
<!DOCTYPE svg PUBLIC "-//W3C//DTD SVG 20010904//EN"
 "http://www.w3.org/TR/2001/REC-SVG-20010904/DTD/svg10.dtd">
<svg version="1.0" xmlns="http://www.w3.org/2000/svg"
 width="248.000000pt" height="248.000000pt" viewBox="0 0 248.000000 248.000000"
 preserveAspectRatio="xMidYMid meet">
<metadata>
Created by potrace 1.10, written by Peter Selinger 2001-2011
</metadata>
<g transform="translate(0.000000,248.000000) scale(0.100000,-0.100000)"
fill="#000000" stroke="none">
<path d="M659 2354 c-10 -12 -10 -24 -1 -57 12 -46 9 -244 -5 -258 -10 -10
-140 -24 -303 -35 -112 -7 -130 -14 -130 -48 0 -40 18 -46 129 -46 184 0 770
63 809 87 26 16 29 54 7 73 -20 17 -48 17 -185 -3 -63 -8 -139 -18 -167 -20
l-53 -4 0 142 c0 135 -1 143 -23 163 -27 26 -59 28 -78 6z"/>
</g>
</svg>
