<?xml version="1.0" standalone="no"?>
<!DOCTYPE svg PUBLIC "-//W3C//DTD SVG 20010904//EN"
 "http://www.w3.org/TR/2001/REC-SVG-20010904/DTD/svg10.dtd">
<svg version="1.0" xmlns="http://www.w3.org/2000/svg"
 width="248.000000pt" height="248.000000pt" viewBox="0 0 248.000000 248.000000"
 preserveAspectRatio="xMidYMid meet">
<metadata>
Created by potrace 1.10, written by Peter Selinger 2001-2011
</metadata>
<g transform="translate(0.000000,248.000000) scale(0.100000,-0.100000)"
fill="#000000" stroke="none">
<path d="M759 2323 c-14 -16 -54 -63 -88 -106 -35 -43 -108 -126 -163 -185
-55 -59 -136 -149 -180 -201 -105 -124 -104 -129 22 -198 52 -29 99 -54 105
-56 10 -4 -127 -170 -263 -321 -77 -85 -93 -116 -71 -142 25 -30 55 -34 126
-15 37 11 131 33 208 51 77 17 178 44 225 60 47 15 105 33 130 40 67 17 90 35
90 70 0 20 -7 33 -21 41 -24 13 -30 11 -214 -47 -109 -34 -347 -95 -352 -90
-2 1 27 38 63 82 37 43 95 113 129 154 35 41 96 107 137 145 107 103 247 263
255 293 8 34 -8 56 -43 60 -25 2 -37 -7 -89 -70 -33 -40 -97 -109 -143 -155
l-83 -83 -69 35 c-38 19 -71 39 -75 45 -9 14 5 32 149 186 188 202 306 349
306 383 0 56 -50 69 -91 24z"/>
</g>
</svg>
