<?xml version="1.0" standalone="no"?>
<!DOCTYPE svg PUBLIC "-//W3C//DTD SVG 20010904//EN"
 "http://www.w3.org/TR/2001/REC-SVG-20010904/DTD/svg10.dtd">
<svg version="1.0" xmlns="http://www.w3.org/2000/svg"
 width="248.000000pt" height="248.000000pt" viewBox="0 0 248.000000 248.000000"
 preserveAspectRatio="xMidYMid meet">
<metadata>
Created by potrace 1.10, written by Peter Selinger 2001-2011
</metadata>
<g transform="translate(0.000000,248.000000) scale(0.100000,-0.100000)"
fill="#000000" stroke="none">
<path d="M759 2323 c-14 -16 -54 -63 -88 -106 -35 -43 -108 -126 -163 -185
-55 -59 -136 -149 -180 -201 -105 -124 -104 -129 22 -198 52 -29 99 -54 105
-56 10 -4 -127 -170 -263 -321 -77 -85 -93 -116 -71 -142 25 -30 55 -34 126
-15 146 40 254 62 265 55 8 -5 9 -76 2 -273 -4 -146 -8 -373 -9 -504 0 -225 1
-239 19 -253 25 -18 37 -18 62 0 18 13 20 35 29 343 5 180 9 417 9 525 l0 197
56 20 c30 11 85 28 122 38 l68 18 58 -63 c60 -64 75 -71 106 -49 34 25 22 62
-37 129 -146 163 -203 218 -228 218 -56 0 -65 -51 -19 -103 17 -19 30 -37 30
-40 0 -13 -457 -143 -467 -133 -2 1 27 38 63 82 37 43 95 113 129 154 35 41
96 107 137 145 107 103 247 263 255 293 8 34 -8 56 -43 60 -25 2 -37 -7 -89
-70 -33 -40 -97 -109 -143 -155 l-83 -83 -69 35 c-38 19 -71 39 -75 45 -9 14
5 32 149 186 188 202 306 349 306 383 0 56 -50 69 -91 24z"/>
<path d="M1865 2315 c-164 -24 -259 -35 -291 -35 -40 0 -51 -13 -118 -142 -85
-163 -205 -339 -345 -506 -39 -47 -43 -56 -35 -80 7 -20 17 -28 40 -30 25 -2
38 4 67 35 40 42 79 93 133 171 32 46 64 68 64 44 0 -5 45 -48 100 -98 148
-131 144 -114 60 -239 -75 -112 -241 -288 -344 -366 -32 -24 -100 -69 -150
-100 -86 -53 -91 -58 -91 -90 0 -43 36 -60 81 -37 207 107 435 312 575 516 38
56 75 102 81 102 6 0 52 -39 102 -88 51 -48 128 -116 171 -152 44 -35 101 -82
127 -104 61 -53 89 -74 169 -124 78 -50 123 -55 140 -18 16 34 5 47 -96 113
-49 33 -119 85 -155 115 -36 31 -98 83 -139 117 -40 34 -116 102 -168 152
l-95 90 34 52 c50 75 109 187 163 307 26 58 65 142 87 188 46 97 60 179 34
201 -24 20 -89 22 -201 6z m95 -107 c0 -7 -13 -39 -30 -73 -16 -33 -57 -119
-89 -192 -54 -120 -118 -239 -154 -287 -13 -17 -18 -14 -93 56 -43 41 -99 93
-124 116 l-45 41 19 33 c10 18 48 86 83 150 l65 117 49 10 c28 6 67 11 87 11
20 1 75 7 122 14 110 18 110 18 110 4z"/>
<path d="M1755 910 c-334 -12 -511 -29 -531 -52 -16 -17 -16 -33 -6 -191 6
-94 14 -222 17 -284 8 -161 18 -214 45 -235 16 -13 27 -15 40 -8 25 14 209 13
482 -2 261 -14 262 -14 274 71 4 25 15 84 24 131 10 47 34 164 54 260 19 96
40 190 45 208 11 37 2 70 -23 91 -21 18 -147 21 -421 11z m332 -122 c-22 -99
-75 -356 -95 -462 l-16 -89 -111 7 c-60 3 -201 9 -312 13 l-202 6 -5 61 c-3
34 -8 120 -10 191 -3 72 -9 160 -12 196 l-7 66 99 8 c92 7 399 19 593 23 81 2
83 2 78 -20z"/>
<path d="M226 798 c-9 -12 -16 -36 -16 -53 0 -51 -28 -233 -51 -327 -16 -67
-18 -91 -10 -107 16 -29 66 -28 85 1 18 30 41 132 67 304 18 123 19 145 8 170
-19 38 -61 44 -83 12z"/>
<path d="M680 785 c-16 -19 -8 -75 18 -124 108 -205 173 -278 218 -241 24 21
16 58 -31 129 -25 38 -45 72 -45 76 0 5 -11 22 -23 39 -13 17 -30 48 -36 69
-7 20 -19 44 -28 52 -19 19 -57 19 -73 0z"/>
</g>
</svg>
