<?xml version="1.0" standalone="no"?>
<!DOCTYPE svg PUBLIC "-//W3C//DTD SVG 20010904//EN"
 "http://www.w3.org/TR/2001/REC-SVG-20010904/DTD/svg10.dtd">
<svg version="1.0" xmlns="http://www.w3.org/2000/svg"
 width="248.000000pt" height="248.000000pt" viewBox="0 0 248.000000 248.000000"
 preserveAspectRatio="xMidYMid meet">
<metadata>
Created by potrace 1.10, written by Peter Selinger 2001-2011
</metadata>
<g transform="translate(0.000000,248.000000) scale(0.100000,-0.100000)"
fill="#000000" stroke="none">
<path d="M757 2198 c-9 -7 -34 -65 -56 -128 -67 -199 -189 -451 -298 -619 -86
-132 -139 -199 -341 -433 -34 -40 -43 -56 -40 -81 3 -28 7 -32 35 -35 37 -4
38 -3 153 132 248 290 359 465 504 791 43 97 125 317 126 338 0 12 -39 47 -53
47 -7 0 -21 -6 -30 -12z"/>
</g>
</svg>
