<?xml version="1.0" standalone="no"?>
<!DOCTYPE svg PUBLIC "-//W3C//DTD SVG 20010904//EN"
 "http://www.w3.org/TR/2001/REC-SVG-20010904/DTD/svg10.dtd">
<svg version="1.0" xmlns="http://www.w3.org/2000/svg"
 width="248.000000pt" height="248.000000pt" viewBox="0 0 248.000000 248.000000"
 preserveAspectRatio="xMidYMid meet">
<metadata>
Created by potrace 1.10, written by Peter Selinger 2001-2011
</metadata>
<g transform="translate(0.000000,248.000000) scale(0.100000,-0.100000)"
fill="#000000" stroke="none">
<path d="M1413 2289 c-7 -7 -9 -112 -5 -333 3 -196 1 -325 -5 -329 -15 -10
-227 -37 -436 -57 -112 -10 -204 -24 -212 -30 -20 -16 -19 -54 1 -71 17 -14
207 -3 468 27 71 8 130 13 132 11 3 -2 -16 -40 -40 -84 -25 -45 -61 -114 -82
-154 -73 -147 -183 -298 -312 -431 -69 -70 -146 -141 -173 -158 -53 -34 -66
-58 -49 -90 13 -24 49 -26 91 -4 40 20 208 177 287 267 84 96 174 234 258 394
38 73 72 133 75 133 11 0 -1 -1052 -13 -1082 -24 -63 26 -133 77 -110 18 8 25
19 25 39 -1 16 1 228 4 473 3 245 5 529 5 633 0 186 0 187 23 196 13 4 88 13
168 19 80 7 196 21 258 32 62 11 151 24 197 29 47 5 92 14 100 21 23 19 18 57
-10 76 -28 18 -25 18 -272 -22 -154 -25 -454 -55 -463 -47 -3 3 -6 82 -8 176
-6 434 -7 454 -21 470 -15 19 -52 22 -68 6z"/>
<path d="M757 2198 c-9 -7 -34 -65 -56 -128 -67 -199 -189 -451 -298 -619 -86
-132 -139 -199 -341 -433 -34 -40 -43 -56 -40 -81 3 -27 7 -32 33 -35 17 -2
37 3 46 10 17 13 117 130 232 269 33 41 59 65 61 57 8 -23 27 -718 25 -868 -3
-171 1 -190 41 -190 56 0 57 7 49 420 -8 454 -18 707 -30 738 -7 19 2 42 51
125 101 171 215 416 274 589 37 108 38 131 5 148 -23 13 -32 13 -52 -2z"/>
</g>
</svg>
