<?xml version="1.0" standalone="no"?>
<!DOCTYPE svg PUBLIC "-//W3C//DTD SVG 20010904//EN"
 "http://www.w3.org/TR/2001/REC-SVG-20010904/DTD/svg10.dtd">
<svg version="1.0" xmlns="http://www.w3.org/2000/svg"
 width="248.000000pt" height="248.000000pt" viewBox="0 0 248.000000 248.000000"
 preserveAspectRatio="xMidYMid meet">
<metadata>
Created by potrace 1.10, written by Peter Selinger 2001-2011
</metadata>
<g transform="translate(0.000000,248.000000) scale(0.100000,-0.100000)"
fill="#000000" stroke="none">
<path d="M1185 2388 c-13 -19 -15 -44 -10 -158 4 -74 8 -145 11 -157 4 -21 1
-21 -119 -26 -240 -8 -471 -28 -494 -43 -29 -19 -30 -58 -1 -78 18 -13 43 -14
144 -9 l123 6 5 -24 c16 -79 60 -409 55 -410 -2 0 -141 -6 -309 -13 -333 -14
-362 -19 -368 -68 -6 -54 11 -56 333 -42 160 7 400 20 535 29 135 9 358 20
495 25 371 14 551 27 582 42 38 18 43 61 11 81 -19 12 -48 13 -163 6 -77 -5
-216 -12 -309 -15 l-169 -6 6 23 c4 13 13 59 22 104 9 44 25 121 36 170 10 50
20 104 21 120 l3 30 160 12 c173 12 210 21 220 52 9 28 -11 61 -38 62 -31 2
-189 -8 -598 -36 l-76 -5 -7 152 c-8 166 -18 198 -61 198 -13 0 -31 -10 -40
-22z m322 -475 c-5 -56 -43 -251 -67 -344 l-12 -46 -91 -6 c-51 -4 -145 -9
-209 -13 l-117 -7 -5 24 c-10 51 -56 369 -56 392 l0 24 168 7 c147 7 342 19
381 24 10 2 12 -10 8 -55z"/>
<path d="M1775 1029 c-126 -4 -372 -13 -545 -20 -173 -6 -426 -14 -561 -18
-266 -7 -283 -10 -277 -60 2 -15 13 -31 28 -38 31 -16 218 -17 505 -3 116 6
413 17 661 24 481 15 506 18 512 64 5 34 -25 62 -62 60 -17 0 -134 -5 -261 -9z"/>
</g>
</svg>
