<?xml version="1.0" standalone="no"?>
<!DOCTYPE svg PUBLIC "-//W3C//DTD SVG 20010904//EN"
 "http://www.w3.org/TR/2001/REC-SVG-20010904/DTD/svg10.dtd">
<svg version="1.0" xmlns="http://www.w3.org/2000/svg"
 width="248.000000pt" height="248.000000pt" viewBox="0 0 248.000000 248.000000"
 preserveAspectRatio="xMidYMid meet">
<metadata>
Created by potrace 1.10, written by Peter Selinger 2001-2011
</metadata>
<g transform="translate(0.000000,248.000000) scale(0.100000,-0.100000)"
fill="#000000" stroke="none">
<path d="M759 2323 c-14 -16 -54 -63 -88 -106 -35 -43 -108 -126 -163 -185
-55 -59 -136 -149 -180 -201 -105 -124 -104 -129 22 -198 52 -29 99 -54 105
-56 10 -4 -127 -170 -263 -321 -77 -85 -93 -116 -71 -142 25 -30 55 -34 126
-15 146 40 254 62 265 55 8 -5 9 -76 2 -273 -4 -146 -8 -373 -9 -504 0 -225 1
-239 19 -253 25 -18 37 -18 62 0 18 13 20 35 29 343 5 180 9 417 9 525 l0 197
56 20 c30 11 85 28 122 38 l68 18 58 -63 c60 -64 75 -71 106 -49 34 25 22 62
-37 129 -146 163 -203 218 -228 218 -56 0 -65 -51 -19 -103 17 -19 30 -37 30
-40 0 -13 -457 -143 -467 -133 -2 1 27 38 63 82 37 43 95 113 129 154 35 41
96 107 137 145 107 103 247 263 255 293 8 34 -8 56 -43 60 -25 2 -37 -7 -89
-70 -33 -40 -97 -109 -143 -155 l-83 -83 -69 35 c-38 19 -71 39 -75 45 -9 14
5 32 149 186 188 202 306 349 306 383 0 56 -50 69 -91 24z"/>
<path d="M1522 2258 c-5 -7 -35 -61 -66 -120 -85 -163 -205 -339 -345 -506
-39 -47 -43 -56 -35 -80 14 -40 61 -42 99 -5 87 86 284 373 369 535 56 107 67
153 44 176 -16 16 -53 15 -66 0z"/>
<path d="M226 798 c-9 -12 -16 -36 -16 -53 0 -51 -28 -233 -51 -327 -16 -67
-18 -91 -10 -107 16 -29 66 -28 85 1 18 30 41 132 67 304 18 123 19 145 8 170
-19 38 -61 44 -83 12z"/>
<path d="M680 785 c-16 -19 -8 -75 18 -124 108 -205 173 -278 218 -241 24 21
16 58 -31 129 -25 38 -45 72 -45 76 0 5 -11 22 -23 39 -13 17 -30 48 -36 69
-7 20 -19 44 -28 52 -19 19 -57 19 -73 0z"/>
</g>
</svg>
