<?xml version="1.0" standalone="no"?>
<!DOCTYPE svg PUBLIC "-//W3C//DTD SVG 20010904//EN"
 "http://www.w3.org/TR/2001/REC-SVG-20010904/DTD/svg10.dtd">
<svg version="1.0" xmlns="http://www.w3.org/2000/svg"
 width="248.000000pt" height="248.000000pt" viewBox="0 0 248.000000 248.000000"
 preserveAspectRatio="xMidYMid meet">
<metadata>
Created by potrace 1.10, written by Peter Selinger 2001-2011
</metadata>
<g transform="translate(0.000000,248.000000) scale(0.100000,-0.100000)"
fill="#000000" stroke="none">
<path d="M1185 2388 c-13 -19 -15 -44 -10 -158 4 -74 8 -145 11 -157 4 -21 1
-21 -119 -26 -240 -8 -471 -28 -494 -43 -29 -19 -30 -58 -1 -78 18 -13 43 -14
144 -9 l123 6 5 -24 c9 -47 37 -236 50 -347 8 -62 20 -119 26 -127 17 -20 55
-19 75 2 20 20 18 61 -20 303 -14 85 -25 167 -25 183 l0 27 110 0 c60 0 153 4
207 10 54 5 215 17 358 25 302 19 360 28 376 57 15 29 -3 68 -33 69 -32 2
-189 -8 -599 -36 l-76 -5 -7 152 c-8 166 -18 198 -61 198 -13 0 -31 -10 -40
-22z"/>
</g>
</svg>
