<?xml version="1.0" standalone="no"?>
<!DOCTYPE svg PUBLIC "-//W3C//DTD SVG 20010904//EN"
 "http://www.w3.org/TR/2001/REC-SVG-20010904/DTD/svg10.dtd">
<svg version="1.0" xmlns="http://www.w3.org/2000/svg"
 width="248.000000pt" height="248.000000pt" viewBox="0 0 248.000000 248.000000"
 preserveAspectRatio="xMidYMid meet">
<metadata>
Created by potrace 1.10, written by Peter Selinger 2001-2011
</metadata>
<g transform="translate(0.000000,248.000000) scale(0.100000,-0.100000)"
fill="#000000" stroke="none">
<path d="M1413 2289 c-7 -7 -9 -112 -5 -333 3 -196 1 -325 -5 -329 -15 -10
-227 -37 -436 -57 -112 -10 -204 -24 -212 -30 -20 -16 -19 -54 1 -71 17 -14
207 -3 468 27 71 8 130 13 132 11 3 -2 -16 -40 -40 -84 -25 -45 -61 -114 -82
-154 -73 -147 -183 -298 -312 -431 -69 -70 -146 -141 -173 -158 -26 -18 -51
-40 -54 -50 -9 -29 12 -60 41 -60 40 0 79 25 177 116 183 168 295 317 423 561
38 73 72 133 76 133 9 0 -2 -911 -14 -1124 -1 -30 3 -43 21 -57 27 -22 41 -24
63 -6 15 11 17 63 22 482 3 259 5 512 5 564 0 53 4 92 9 90 5 -2 33 -31 61
-64 28 -33 82 -96 120 -140 136 -158 300 -302 486 -423 154 -101 166 -105 194
-86 43 31 28 58 -73 127 -51 36 -107 72 -124 81 -47 24 -227 183 -332 293
-178 186 -330 370 -330 399 0 16 28 21 198 34 73 6 182 20 242 31 61 10 149
23 195 28 47 5 92 14 100 21 23 19 18 57 -10 76 -28 18 -25 18 -272 -22 -154
-25 -454 -55 -463 -47 -3 3 -6 82 -8 176 -6 434 -7 454 -21 470 -15 19 -52 22
-68 6z"/>
<path d="M757 2198 c-9 -7 -34 -65 -56 -128 -67 -199 -189 -451 -298 -619 -86
-132 -139 -199 -341 -433 -34 -40 -43 -56 -40 -81 3 -27 7 -32 33 -35 17 -2
37 3 46 10 17 13 117 130 232 269 33 41 59 65 61 57 8 -23 27 -718 25 -868 -3
-171 1 -190 41 -190 56 0 57 7 49 420 -8 454 -18 707 -30 738 -7 19 2 42 51
125 101 171 215 416 274 589 37 108 38 131 5 148 -23 13 -32 13 -52 -2z"/>
</g>
</svg>
