<?xml version="1.0" standalone="no"?>
<!DOCTYPE svg PUBLIC "-//W3C//DTD SVG 20010904//EN"
 "http://www.w3.org/TR/2001/REC-SVG-20010904/DTD/svg10.dtd">
<svg version="1.0" xmlns="http://www.w3.org/2000/svg"
 width="248.000000pt" height="248.000000pt" viewBox="0 0 248.000000 248.000000"
 preserveAspectRatio="xMidYMid meet">
<metadata>
Created by potrace 1.10, written by Peter Selinger 2001-2011
</metadata>
<g transform="translate(0.000000,248.000000) scale(0.100000,-0.100000)"
fill="#000000" stroke="none">
<path d="M657 2274 c-81 -87 -230 -212 -309 -259 -86 -52 -98 -64 -98 -97 0
-41 36 -56 81 -33 162 83 459 342 459 401 0 19 -36 54 -56 54 -9 0 -43 -30
-77 -66z"/>
<path d="M2005 1993 c-139 -11 -304 -25 -330 -28 -16 -2 -61 -7 -100 -10 -38
-4 -155 -22 -260 -41 -104 -20 -228 -42 -275 -50 -47 -9 -96 -21 -110 -27 -35
-17 -37 -51 -4 -90 l27 -32 -6 -300 c-7 -328 -39 -672 -77 -820 -12 -46 -48
-134 -85 -207 -63 -124 -67 -143 -42 -175 12 -17 52 -17 65 0 5 6 39 71 76
142 82 161 99 231 131 513 31 279 39 407 39 674 1 120 2 218 4 218 2 0 47 9
100 19 170 34 375 70 432 75 30 3 111 10 180 16 69 5 154 13 190 16 l65 5 -30
-31 c-17 -18 -74 -61 -127 -97 -83 -56 -98 -70 -98 -92 0 -33 17 -51 46 -51
27 0 181 101 253 166 58 53 111 127 111 156 0 10 -9 27 -20 38 -20 20 -45 22
-155 13z"/>
<path d="M671 1851 c-11 -11 -56 -93 -100 -183 -99 -200 -222 -367 -440 -600
-91 -98 -106 -129 -79 -156 7 -7 23 -12 38 -12 28 0 139 111 258 257 55 68 68
79 76 66 22 -40 -32 -869 -65 -995 -14 -56 2 -88 45 -88 24 0 38 6 45 19 24
43 46 264 67 646 3 66 9 149 13 184 12 97 2 280 -15 318 -15 31 -15 33 27 95
42 60 219 401 219 419 0 15 -39 49 -55 49 -8 0 -24 -9 -34 -19z"/>
</g>
</svg>
