<?xml version="1.0" standalone="no"?>
<!DOCTYPE svg PUBLIC "-//W3C//DTD SVG 20010904//EN"
 "http://www.w3.org/TR/2001/REC-SVG-20010904/DTD/svg10.dtd">
<svg version="1.0" xmlns="http://www.w3.org/2000/svg"
 width="248.000000pt" height="248.000000pt" viewBox="0 0 248.000000 248.000000"
 preserveAspectRatio="xMidYMid meet">
<metadata>
Created by potrace 1.10, written by Peter Selinger 2001-2011
</metadata>
<g transform="translate(0.000000,248.000000) scale(0.100000,-0.100000)"
fill="#000000" stroke="none">
<path d="M1484 2366 c-17 -13 -19 -31 -24 -214 -3 -110 -8 -204 -13 -208 -7
-7 -114 -28 -402 -79 -49 -9 -101 -22 -115 -28 -35 -17 -37 -51 -4 -90 l27
-32 -6 -300 c-7 -328 -39 -672 -77 -820 -12 -46 -48 -134 -85 -207 -63 -124
-67 -143 -42 -175 12 -17 52 -17 65 0 33 42 145 283 162 352 11 44 32 191 47
328 15 136 31 247 35 247 4 0 45 -44 90 -97 46 -54 130 -146 187 -204 71 -74
101 -111 95 -121 -24 -40 -119 -151 -165 -192 -80 -73 -184 -144 -274 -187
-86 -42 -100 -57 -91 -95 10 -38 47 -40 121 -6 156 74 327 208 431 338 l66 84
28 -23 c15 -12 72 -59 126 -105 53 -45 132 -106 173 -134 42 -28 119 -81 171
-116 100 -68 179 -108 294 -149 63 -22 70 -23 92 -8 51 33 22 84 -61 106 -51
14 -173 75 -250 125 -33 21 -67 43 -77 49 -110 67 -413 310 -425 342 -3 7 10
37 28 65 65 104 273 424 320 495 51 75 60 111 34 133 -18 15 -157 0 -334 -35
l-114 -23 7 67 c8 72 12 124 23 276 3 55 7 103 7 107 1 3 4 9 7 12 6 6 215 28
383 40 l80 6 -30 -31 c-16 -17 -73 -60 -126 -96 -83 -56 -98 -70 -98 -92 0
-33 17 -51 46 -51 29 0 183 102 257 170 71 64 112 130 103 165 -11 44 -33 48
-214 35 -92 -6 -172 -13 -179 -15 -6 -2 -59 -7 -117 -11 l-106 -7 7 190 c6
185 5 191 -16 212 -25 25 -40 26 -67 7z m-37 -598 c-4 -35 -11 -126 -17 -203
-6 -77 -14 -154 -18 -170 l-8 -30 -170 -26 c-93 -14 -171 -24 -174 -22 -3 3
-5 103 -5 224 l0 218 25 5 c14 3 61 12 105 21 44 8 112 21 150 29 123 24 119
26 112 -46z m364 -455 c-14 -25 -286 -443 -304 -468 -14 -19 -17 -17 -84 45
-38 36 -120 124 -181 197 -108 129 -110 132 -84 137 15 3 108 17 207 31 99 14
230 37 290 50 61 12 123 23 138 24 24 1 26 -2 18 -16z"/>
<path d="M657 2274 c-81 -87 -230 -212 -309 -259 -86 -52 -98 -64 -98 -97 0
-41 36 -56 81 -33 162 83 459 342 459 401 0 19 -36 54 -56 54 -9 0 -43 -30
-77 -66z"/>
<path d="M671 1851 c-11 -11 -56 -93 -100 -183 -99 -200 -222 -367 -440 -600
-91 -98 -106 -129 -79 -156 7 -7 23 -12 38 -12 28 0 139 111 258 257 55 68 68
79 76 66 22 -40 -32 -869 -65 -995 -14 -56 2 -88 45 -88 24 0 38 6 45 19 24
43 46 264 67 646 3 66 9 149 13 184 12 97 2 280 -15 318 -15 31 -15 33 27 95
42 60 219 401 219 419 0 15 -39 49 -55 49 -8 0 -24 -9 -34 -19z"/>
</g>
</svg>
