<?xml version="1.0" standalone="no"?>
<!DOCTYPE svg PUBLIC "-//W3C//DTD SVG 20010904//EN"
 "http://www.w3.org/TR/2001/REC-SVG-20010904/DTD/svg10.dtd">
<svg version="1.0" xmlns="http://www.w3.org/2000/svg"
 width="248.000000pt" height="248.000000pt" viewBox="0 0 248.000000 248.000000"
 preserveAspectRatio="xMidYMid meet">
<metadata>
Created by potrace 1.10, written by Peter Selinger 2001-2011
</metadata>
<g transform="translate(0.000000,248.000000) scale(0.100000,-0.100000)"
fill="#000000" stroke="none">
<path d="M963 2090 c-56 -10 -139 -21 -185 -25 -46 -4 -101 -10 -123 -15 -22
-5 -107 -14 -190 -20 -82 -7 -156 -17 -162 -22 -19 -15 -16 -52 5 -71 21 -19
119 -22 232 -8 36 5 115 14 175 21 162 17 395 58 411 71 17 14 18 53 1 67 -23
20 -62 20 -164 2z"/>
<path d="M918 1790 c-37 -5 -72 -11 -78 -15 -10 -6 -53 -12 -280 -39 -345 -41
-353 -43 -373 -67 -14 -17 -17 -32 -12 -59 4 -19 13 -114 21 -210 27 -352 51
-426 120 -376 22 17 24 74 5 179 -6 34 -15 127 -21 207 -6 80 -11 154 -13 165
-2 22 -3 22 233 49 206 24 292 36 330 46 19 6 81 13 138 17 l102 6 0 -89 c0
-110 -15 -278 -37 -409 -19 -118 -19 -140 -2 -161 19 -23 62 -13 76 17 30 61
73 408 73 580 0 101 -12 142 -46 158 -28 12 -133 13 -236 1z"/>
</g>
</svg>
