<?xml version="1.0" standalone="no"?>
<!DOCTYPE svg PUBLIC "-//W3C//DTD SVG 20010904//EN"
 "http://www.w3.org/TR/2001/REC-SVG-20010904/DTD/svg10.dtd">
<svg version="1.0" xmlns="http://www.w3.org/2000/svg"
 width="248.000000pt" height="248.000000pt" viewBox="0 0 248.000000 248.000000"
 preserveAspectRatio="xMidYMid meet">
<metadata>
Created by potrace 1.10, written by Peter Selinger 2001-2011
</metadata>
<g transform="translate(0.000000,248.000000) scale(0.100000,-0.100000)"
fill="#000000" stroke="none">
<path d="M963 2090 c-56 -10 -139 -21 -185 -25 -46 -4 -101 -10 -123 -15 -22
-5 -107 -14 -190 -20 -82 -7 -156 -17 -162 -22 -19 -15 -16 -52 5 -71 21 -19
119 -22 232 -8 36 5 115 14 175 21 162 17 395 58 411 71 17 14 18 53 1 67 -23
20 -62 20 -164 2z"/>
<path d="M918 1790 c-37 -5 -72 -11 -78 -15 -10 -6 -53 -12 -280 -39 -345 -41
-353 -43 -373 -67 -14 -17 -17 -32 -12 -59 4 -19 13 -114 21 -210 18 -240 40
-370 65 -395 18 -18 31 -20 142 -17 67 2 183 8 257 13 74 6 205 13 290 16 85
3 160 10 167 15 28 23 70 299 80 528 7 164 -2 210 -43 229 -28 12 -132 13
-236 1z m172 -205 c0 -100 -1 -106 -22 -114 -25 -9 -189 -24 -463 -42 -93 -7
-200 -14 -236 -16 l-66 -5 -7 74 c-3 40 -7 82 -9 93 -2 22 -3 22 233 49 179
21 274 34 335 46 75 15 94 17 168 19 l67 1 0 -105z m-15 -242 c-2 -10 -9 -61
-16 -114 l-11 -96 -82 -8 c-44 -4 -103 -8 -131 -10 -27 -1 -144 -6 -260 -11
-116 -5 -217 -9 -225 -9 -10 0 -17 14 -21 45 -4 25 -10 71 -14 103 l-8 57 36
0 c20 0 58 4 84 10 26 5 147 14 268 21 121 6 243 14 270 19 90 14 114 12 110
-7z"/>
</g>
</svg>
