<?xml version="1.0" standalone="no"?>
<!DOCTYPE svg PUBLIC "-//W3C//DTD SVG 20010904//EN"
 "http://www.w3.org/TR/2001/REC-SVG-20010904/DTD/svg10.dtd">
<svg version="1.0" xmlns="http://www.w3.org/2000/svg"
 width="248.000000pt" height="248.000000pt" viewBox="0 0 248.000000 248.000000"
 preserveAspectRatio="xMidYMid meet">
<metadata>
Created by potrace 1.10, written by Peter Selinger 2001-2011
</metadata>
<g transform="translate(0.000000,248.000000) scale(0.100000,-0.100000)"
fill="#000000" stroke="none">
<path d="M963 2090 c-56 -10 -139 -21 -185 -25 -46 -4 -101 -10 -123 -15 -22
-5 -107 -14 -190 -20 -82 -7 -156 -17 -162 -22 -19 -15 -16 -52 5 -71 21 -19
119 -22 232 -8 36 5 115 14 175 21 162 17 395 58 411 71 17 14 18 53 1 67 -23
20 -62 20 -164 2z"/>
</g>
</svg>
