<?xml version="1.0" standalone="no"?>
<!DOCTYPE svg PUBLIC "-//W3C//DTD SVG 20010904//EN"
 "http://www.w3.org/TR/2001/REC-SVG-20010904/DTD/svg10.dtd">
<svg version="1.0" xmlns="http://www.w3.org/2000/svg"
 width="248.000000pt" height="248.000000pt" viewBox="0 0 248.000000 248.000000"
 preserveAspectRatio="xMidYMid meet">
<metadata>
Created by potrace 1.10, written by Peter Selinger 2001-2011
</metadata>
<g transform="translate(0.000000,248.000000) scale(0.100000,-0.100000)"
fill="#000000" stroke="none">
<path d="M859 2360 c-215 -4 -239 -7 -258 -24 -20 -18 -21 -29 -22 -210 0
-105 -4 -265 -8 -356 -4 -91 -3 -177 1 -191 17 -52 36 -54 352 -51 321 4 341
8 341 57 0 42 -32 55 -142 55 l-93 0 0 80 0 80 85 0 c78 0 87 2 116 28 27 24
32 37 42 112 22 178 19 184 -124 188 l-100 4 3 61 3 62 112 5 c90 5 116 9 132
24 23 21 27 56 9 74 -13 13 -9 13 -449 2z m81 -175 l0 -65 -57 0 c-32 0 -88
-3 -125 -7 l-68 -6 0 72 0 71 125 0 125 0 0 -65z m236 -182 c-3 -10 -8 -35
-12 -55 l-6 -38 -142 0 c-77 0 -184 -3 -237 -6 l-97 -7 5 49 c3 27 8 51 10 54
4 4 226 15 401 18 75 2 83 0 78 -15z m-256 -282 l0 -78 -31 -7 c-17 -3 -74 -6
-126 -6 l-95 0 6 31 c3 17 6 53 6 80 l0 48 48 4 c26 2 80 4 120 5 l72 2 0 -79z"/>
</g>
</svg>
