<?xml version="1.0" standalone="no"?>
<!DOCTYPE svg PUBLIC "-//W3C//DTD SVG 20010904//EN"
 "http://www.w3.org/TR/2001/REC-SVG-20010904/DTD/svg10.dtd">
<svg version="1.0" xmlns="http://www.w3.org/2000/svg"
 width="248.000000pt" height="248.000000pt" viewBox="0 0 248.000000 248.000000"
 preserveAspectRatio="xMidYMid meet">
<metadata>
Created by potrace 1.10, written by Peter Selinger 2001-2011
</metadata>
<g transform="translate(0.000000,248.000000) scale(0.100000,-0.100000)"
fill="#000000" stroke="none">
<path d="M859 2360 c-215 -4 -239 -7 -258 -24 -20 -18 -21 -29 -22 -210 0
-105 -4 -265 -8 -356 -4 -91 -3 -177 1 -191 17 -52 36 -54 352 -51 321 4 341
8 341 57 0 42 -32 55 -142 55 l-93 0 0 80 0 80 85 0 c78 0 87 2 116 28 27 24
32 37 42 112 22 178 19 184 -124 188 l-100 4 3 61 3 62 112 5 c90 5 116 9 132
24 23 21 27 56 9 74 -13 13 -9 13 -449 2z m81 -175 l0 -65 -57 0 c-32 0 -88
-3 -125 -7 l-68 -6 0 72 0 71 125 0 125 0 0 -65z m236 -182 c-3 -10 -8 -35
-12 -55 l-6 -38 -142 0 c-77 0 -184 -3 -237 -6 l-97 -7 5 49 c3 27 8 51 10 54
4 4 226 15 401 18 75 2 83 0 78 -15z m-256 -282 l0 -78 -31 -7 c-17 -3 -74 -6
-126 -6 l-95 0 6 31 c3 17 6 53 6 80 l0 48 48 4 c26 2 80 4 120 5 l72 2 0 -79z"/>
<path d="M1480 2317 c-18 -9 -25 -21 -25 -42 0 -49 25 -55 253 -55 l203 0 -7
-22 c-13 -45 -157 -308 -168 -308 -6 0 -54 39 -106 86 -111 100 -146 124 -180
124 -66 0 -67 -54 -2 -106 26 -21 75 -64 108 -94 34 -30 74 -63 89 -74 l27
-18 -54 -55 c-68 -70 -147 -124 -223 -152 -72 -27 -85 -37 -85 -65 0 -103 211
-27 374 135 33 33 64 59 69 59 6 0 31 -17 57 -39 25 -21 70 -51 100 -66 30
-15 70 -38 90 -51 31 -21 134 -54 166 -54 21 0 44 30 44 55 0 30 -30 51 -85
61 -22 4 -51 15 -65 24 -14 10 -50 30 -80 45 -45 23 -103 63 -154 106 -5 4 1
20 11 36 21 28 96 169 160 296 18 38 36 88 39 112 11 73 2 75 -286 75 -177 0
-252 -4 -270 -13z"/>
</g>
</svg>
