<?xml version="1.0" standalone="no"?>
<!DOCTYPE svg PUBLIC "-//W3C//DTD SVG 20010904//EN"
 "http://www.w3.org/TR/2001/REC-SVG-20010904/DTD/svg10.dtd">
<svg version="1.0" xmlns="http://www.w3.org/2000/svg"
 width="248.000000pt" height="248.000000pt" viewBox="0 0 248.000000 248.000000"
 preserveAspectRatio="xMidYMid meet">
<metadata>
Created by potrace 1.10, written by Peter Selinger 2001-2011
</metadata>
<g transform="translate(0.000000,248.000000) scale(0.100000,-0.100000)"
fill="#000000" stroke="none">
<path d="M859 2360 c-215 -4 -239 -7 -258 -24 -20 -18 -21 -29 -22 -210 0
-105 -4 -265 -8 -356 -9 -189 -3 -215 44 -215 47 0 56 31 65 247 5 105 11 193
14 196 7 6 476 26 481 20 2 -2 -1 -25 -7 -51 -19 -93 13 -154 68 -128 15 7 24
21 28 43 2 18 9 65 15 105 18 124 -1 143 -145 143 l-85 0 3 63 3 62 112 5 c90
5 116 9 132 24 23 21 27 56 9 74 -13 13 -9 13 -449 2z m81 -175 l0 -65 -57 0
c-32 0 -88 -3 -125 -7 l-68 -6 0 72 0 71 125 0 125 0 0 -65z"/>
</g>
</svg>
