<?xml version="1.0" standalone="no"?>
<!DOCTYPE svg PUBLIC "-//W3C//DTD SVG 20010904//EN"
 "http://www.w3.org/TR/2001/REC-SVG-20010904/DTD/svg10.dtd">
<svg version="1.0" xmlns="http://www.w3.org/2000/svg"
 width="248.000000pt" height="248.000000pt" viewBox="0 0 248.000000 248.000000"
 preserveAspectRatio="xMidYMid meet">
<metadata>
Created by potrace 1.10, written by Peter Selinger 2001-2011
</metadata>
<g transform="translate(0.000000,248.000000) scale(0.100000,-0.100000)"
fill="#000000" stroke="none">
<path d="M859 2360 c-215 -4 -239 -7 -258 -24 -20 -18 -21 -29 -22 -210 0
-105 -4 -265 -8 -356 -9 -181 -2 -221 41 -237 36 -13 598 -4 628 11 18 8 25
19 25 41 0 42 -32 55 -142 55 l-93 0 0 80 0 80 80 0 c43 0 90 5 104 11 33 16
52 59 61 144 18 163 15 169 -126 173 l-100 4 3 61 3 62 111 5 c121 5 154 19
154 65 0 39 -18 45 -124 43 -56 -1 -207 -5 -337 -8z m81 -175 l0 -65 -57 0
c-32 0 -88 -3 -125 -7 l-68 -6 0 72 0 71 125 0 125 0 0 -65z m228 -217 c-5
-29 -10 -54 -11 -54 -1 -1 -108 -4 -238 -7 l-236 -6 5 47 c2 26 7 49 9 52 4 4
224 15 399 18 l81 2 -9 -52z m-248 -247 l0 -78 -31 -7 c-17 -3 -74 -6 -126 -6
l-95 0 6 31 c3 17 6 53 6 80 l0 48 53 4 c28 2 82 4 120 5 l67 2 0 -79z"/>
<path d="M1472 2314 c-16 -11 -22 -24 -20 -42 5 -46 34 -52 256 -52 l203 0 -7
-22 c-11 -38 -144 -285 -159 -298 -16 -13 -23 -8 -156 111 -41 36 -84 71 -96
78 -28 14 -66 14 -81 -1 -24 -24 -13 -55 36 -94 26 -21 75 -64 108 -94 34 -30
74 -63 89 -74 l27 -18 -54 -55 c-68 -70 -147 -124 -223 -152 -72 -27 -85 -37
-85 -65 0 -103 211 -27 374 135 33 33 64 59 69 59 6 0 31 -17 57 -39 25 -21
70 -51 100 -66 30 -15 70 -38 90 -51 31 -21 134 -54 166 -54 21 0 44 30 44 55
0 30 -30 51 -85 61 -22 4 -51 15 -65 24 -14 10 -50 30 -80 45 -45 23 -103 63
-154 106 -5 4 0 20 11 36 21 30 102 181 160 296 18 38 36 88 39 112 11 73 3
75 -291 75 -213 0 -254 -2 -273 -16z"/>
<path d="M1415 1439 c-460 -17 -497 -20 -523 -46 -20 -20 -22 -28 -15 -60 10
-49 10 -350 0 -565 -8 -165 -8 -167 14 -178 33 -18 66 2 78 47 6 21 13 73 17
116 5 69 8 78 27 81 12 3 99 7 192 11 94 3 226 8 294 12 l124 6 -6 -119 c-8
-139 1 -169 48 -169 51 0 55 22 66 367 6 172 14 340 18 374 4 33 3 72 -2 87
-10 30 -52 48 -111 45 -23 -1 -122 -5 -221 -9z m225 -128 c0 -15 -3 -49 -6
-75 l-7 -46 -313 0 -314 0 0 38 c0 20 -3 46 -6 58 -5 21 -1 21 168 33 95 7
227 13 293 14 66 2 135 4 153 5 29 2 32 -1 32 -27z m-18 -283 c-2 -29 -6 -54
-7 -56 -1 -1 -112 -7 -246 -12 -134 -5 -275 -12 -313 -15 -67 -5 -68 -5 -62
17 3 13 6 44 6 71 l0 47 314 0 313 0 -5 -52z"/>
</g>
</svg>
