<?xml version="1.0" standalone="no"?>
<!DOCTYPE svg PUBLIC "-//W3C//DTD SVG 20010904//EN"
 "http://www.w3.org/TR/2001/REC-SVG-20010904/DTD/svg10.dtd">
<svg version="1.0" xmlns="http://www.w3.org/2000/svg"
 width="248.000000pt" height="248.000000pt" viewBox="0 0 248.000000 248.000000"
 preserveAspectRatio="xMidYMid meet">
<metadata>
Created by potrace 1.10, written by Peter Selinger 2001-2011
</metadata>
<g transform="translate(0.000000,248.000000) scale(0.100000,-0.100000)"
fill="#000000" stroke="none">
<path d="M761 2191 c-8 -6 -29 -32 -45 -60 -59 -96 -105 -157 -190 -255 -48
-54 -111 -128 -140 -165 -49 -60 -261 -272 -314 -313 -40 -32 -23 -88 26 -88
35 0 74 30 203 157 l116 114 6 -338 c4 -186 7 -480 7 -653 0 -342 3 -362 52
-368 20 -2 31 4 44 23 16 25 17 71 10 683 -3 361 -9 686 -12 722 l-6 65 47 50
c121 128 275 344 275 387 0 42 -42 62 -79 39z"/>
</g>
</svg>
