<?xml version="1.0" standalone="no"?>
<!DOCTYPE svg PUBLIC "-//W3C//DTD SVG 20010904//EN"
 "http://www.w3.org/TR/2001/REC-SVG-20010904/DTD/svg10.dtd">
<svg version="1.0" xmlns="http://www.w3.org/2000/svg"
 width="248.000000pt" height="248.000000pt" viewBox="0 0 248.000000 248.000000"
 preserveAspectRatio="xMidYMid meet">
<metadata>
Created by potrace 1.10, written by Peter Selinger 2001-2011
</metadata>
<g transform="translate(0.000000,248.000000) scale(0.100000,-0.100000)"
fill="#000000" stroke="none">
<path d="M622 2377 c-7 -7 -33 -56 -59 -108 -27 -52 -79 -141 -117 -199 -38
-58 -86 -132 -107 -165 -79 -124 -116 -176 -189 -270 -41 -54 -81 -108 -88
-121 -23 -43 16 -81 65 -63 20 7 119 130 202 250 25 36 37 46 43 37 5 -7 8
-369 6 -805 -2 -856 -4 -827 51 -821 57 7 56 -19 57 945 1 803 2 884 17 907
10 14 17 28 17 31 0 2 21 35 46 72 58 85 134 239 134 273 0 14 -5 31 -12 38
-16 16 -53 15 -66 -1z"/>
<path d="M2090 2339 c-30 -3 -73 -11 -95 -17 -38 -11 -89 -18 -285 -42 -181
-22 -306 -43 -327 -57 -27 -16 -30 -55 -7 -74 20 -16 89 -14 193 5 101 19 161
26 161 17 0 -21 -116 -182 -204 -283 -42 -49 -56 -58 -93 -64 -75 -11 -88 -29
-90 -126 -2 -45 -7 -213 -13 -373 -5 -159 -11 -390 -12 -513 -1 -218 -1 -224
21 -245 21 -22 25 -22 329 -20 169 1 352 5 406 10 89 7 101 10 117 33 16 23
18 74 24 645 3 340 8 622 11 626 10 16 -17 60 -43 70 -34 13 -245 -10 -415
-45 -62 -13 -115 -22 -117 -20 -2 2 12 23 31 46 62 76 158 229 158 253 0 19 7
24 38 29 327 56 332 58 332 101 0 41 -35 54 -120 44z m20 -668 l0 -158 -107
-7 c-60 -4 -155 -13 -213 -21 -221 -30 -262 -35 -303 -35 l-42 0 3 135 3 135
27 6 c15 3 43 10 62 14 19 5 73 14 120 20 47 6 121 20 165 30 69 17 191 35
263 39 22 1 22 1 22 -158z m-5 -413 c-4 -79 -8 -144 -10 -146 -1 -1 -90 -9
-196 -17 -107 -8 -230 -21 -274 -30 -44 -8 -106 -14 -137 -15 l-58 0 0 38 c0
22 3 87 7 145 l6 107 29 0 c16 0 59 4 96 10 62 8 277 36 347 44 17 1 68 4 114
5 l83 1 -7 -142z m-5 -422 l0 -164 -27 -6 c-16 -3 -169 -9 -342 -12 l-314 -7
6 39 c4 21 7 87 7 147 l0 107 33 0 c17 0 75 7 127 16 90 15 359 40 463 43 l47
1 0 -164z"/>
<path d="M616 1698 c-14 -24 -31 -358 -31 -623 0 -118 3 -135 25 -180 50 -98
175 -126 395 -85 66 12 128 28 137 37 31 28 49 176 32 262 -7 35 -35 55 -63
46 -28 -9 -35 -30 -41 -134 l-5 -94 -60 -13 c-76 -16 -222 -18 -264 -3 -44 16
-51 40 -51 184 l0 123 66 42 c70 44 228 176 331 276 64 62 78 95 51 122 -25
25 -59 12 -127 -50 -107 -99 -265 -234 -287 -246 -20 -11 -21 -9 -16 148 4
137 2 163 -12 185 -21 32 -60 33 -80 3z"/>
</g>
</svg>
