<?xml version="1.0" standalone="no"?>
<!DOCTYPE svg PUBLIC "-//W3C//DTD SVG 20010904//EN"
 "http://www.w3.org/TR/2001/REC-SVG-20010904/DTD/svg10.dtd">
<svg version="1.0" xmlns="http://www.w3.org/2000/svg"
 width="248.000000pt" height="248.000000pt" viewBox="0 0 248.000000 248.000000"
 preserveAspectRatio="xMidYMid meet">
<metadata>
Created by potrace 1.10, written by Peter Selinger 2001-2011
</metadata>
<g transform="translate(0.000000,248.000000) scale(0.100000,-0.100000)"
fill="#000000" stroke="none">
<path d="M622 2377 c-7 -7 -33 -56 -59 -108 -27 -52 -79 -141 -117 -199 -38
-58 -86 -132 -107 -165 -79 -124 -116 -176 -189 -270 -41 -54 -81 -108 -88
-121 -23 -43 16 -81 65 -63 20 7 119 130 202 250 25 36 37 46 43 37 5 -7 8
-369 6 -805 -2 -856 -4 -827 51 -821 57 7 56 -19 57 945 1 803 2 884 17 907
10 14 17 28 17 31 0 2 21 35 46 72 58 85 134 239 134 273 0 14 -5 31 -12 38
-16 16 -53 15 -66 -1z"/>
</g>
</svg>
