<?xml version="1.0" standalone="no"?>
<!DOCTYPE svg PUBLIC "-//W3C//DTD SVG 20010904//EN"
 "http://www.w3.org/TR/2001/REC-SVG-20010904/DTD/svg10.dtd">
<svg version="1.0" xmlns="http://www.w3.org/2000/svg"
 width="248.000000pt" height="248.000000pt" viewBox="0 0 248.000000 248.000000"
 preserveAspectRatio="xMidYMid meet">
<metadata>
Created by potrace 1.10, written by Peter Selinger 2001-2011
</metadata>
<g transform="translate(0.000000,248.000000) scale(0.100000,-0.100000)"
fill="#000000" stroke="none">
<path d="M1115 2110 c-44 -4 -143 -19 -220 -33 -169 -31 -319 -54 -400 -63
-68 -8 -85 -17 -85 -49 0 -42 32 -58 107 -54 l68 4 3 -158 c3 -181 -3 -219
-39 -229 -22 -7 -125 -25 -279 -49 -91 -15 -115 -28 -115 -64 0 -23 7 -33 28
-43 25 -12 44 -11 155 11 70 14 149 29 175 33 l48 6 -7 -38 c-27 -147 -89
-375 -117 -431 -8 -15 -17 -39 -20 -53 -4 -14 -27 -61 -52 -104 -46 -80 -56
-131 -33 -154 17 -17 53 -15 70 6 14 17 111 208 135 267 26 63 76 244 100 360
13 66 26 130 29 142 6 33 6 33 434 97 86 13 167 24 302 41 69 9 92 59 42 92
-25 16 -34 15 -182 -5 -156 -22 -451 -65 -527 -77 l-40 -7 0 191 c0 184 1 191
20 191 11 0 97 13 190 30 94 16 205 33 248 38 84 10 107 23 107 57 0 44 -33
55 -145 45z"/>
</g>
</svg>
