<?xml version="1.0" standalone="no"?>
<!DOCTYPE svg PUBLIC "-//W3C//DTD SVG 20010904//EN"
 "http://www.w3.org/TR/2001/REC-SVG-20010904/DTD/svg10.dtd">
<svg version="1.0" xmlns="http://www.w3.org/2000/svg"
 width="248.000000pt" height="248.000000pt" viewBox="0 0 248.000000 248.000000"
 preserveAspectRatio="xMidYMid meet">
<metadata>
Created by potrace 1.10, written by Peter Selinger 2001-2011
</metadata>
<g transform="translate(0.000000,248.000000) scale(0.100000,-0.100000)"
fill="#000000" stroke="none">
<path d="M462 2188 c-7 -7 -12 -22 -12 -35 0 -24 48 -61 117 -88 68 -27 277
-85 305 -85 48 0 62 66 20 89 -9 5 -75 25 -147 46 -71 20 -150 48 -174 61 -47
26 -90 31 -109 12z"/>
<path d="M2030 1999 c-351 -33 -691 -77 -707 -91 -16 -13 -17 -50 -1 -66 16
-16 100 -15 223 3 54 8 100 13 102 11 4 -4 -23 -138 -50 -246 l-24 -95 -59 -8
c-267 -36 -294 -45 -294 -92 0 -44 20 -49 142 -31 178 26 188 27 188 18 0 -4
-12 -57 -26 -117 -14 -61 -28 -131 -31 -157 -6 -53 -1 -50 -123 -63 -168 -17
-270 -33 -284 -44 -17 -14 -21 -48 -8 -67 15 -22 47 -23 180 -4 165 23 205 27
347 35 378 20 522 23 665 14 142 -9 156 -9 167 7 18 25 16 41 -7 64 -16 16
-34 20 -90 21 -38 1 -74 3 -80 4 -5 1 -66 3 -135 4 l-125 1 25 50 c51 101 115
281 115 325 0 75 -9 79 -190 72 -85 -4 -177 -11 -204 -17 -26 -5 -52 -8 -56
-5 -4 3 -4 22 1 42 5 21 22 96 38 166 16 70 31 130 34 133 5 5 212 29 332 39
68 5 95 19 95 50 0 20 -25 44 -50 48 -14 3 -63 1 -110 -4z m0 -557 c0 -39 -97
-263 -120 -277 -6 -4 -10 -21 -8 -38 3 -36 23 -32 -205 -40 -117 -4 -119 -4
-112 17 3 11 16 66 29 121 33 140 45 183 54 189 8 5 228 33 302 39 25 2 48 4
53 5 4 1 7 -6 7 -16z"/>
<path d="M875 1744 c-88 -19 -239 -48 -335 -64 -96 -17 -197 -37 -224 -45 -27
-8 -61 -15 -76 -15 -32 0 -50 -17 -50 -46 0 -54 50 -55 295 -9 421 78 587 114
606 131 21 19 25 54 7 72 -16 16 -39 14 -223 -24z"/>
<path d="M635 1315 c-93 -24 -182 -44 -197 -44 -18 -1 -33 -10 -44 -26 -15
-23 -15 -27 0 -50 12 -18 25 -25 49 -25 43 1 413 95 432 110 18 15 20 51 3 68
-19 19 -62 13 -243 -33z"/>
<path d="M780 1028 c-25 -5 -88 -19 -140 -30 -52 -11 -126 -27 -165 -35 -80
-17 -95 -26 -95 -57 0 -49 53 -58 170 -30 36 9 121 26 189 40 135 26 171 42
171 77 0 47 -34 56 -130 35z"/>
<path d="M1743 858 c-105 -7 -251 -25 -388 -49 -89 -16 -120 -55 -77 -102 13
-14 19 -45 23 -121 4 -55 14 -157 22 -225 16 -133 29 -159 72 -146 73 24 537
51 581 35 35 -14 77 2 91 33 35 73 143 474 143 527 0 40 -37 50 -201 53 -85 1
-204 -1 -266 -5z m349 -107 c-1 -7 -9 -48 -17 -90 -8 -42 -19 -87 -23 -101 -5
-14 -22 -65 -38 -113 -22 -67 -34 -89 -49 -92 -11 -2 -134 -9 -274 -15 -285
-14 -270 -17 -271 60 0 25 -5 63 -10 86 -5 23 -12 82 -15 132 -7 106 -27 93
175 121 163 24 210 27 395 26 105 0 129 -3 127 -14z"/>
<path d="M780 768 c-86 -12 -267 -46 -305 -58 -16 -5 -49 -14 -71 -20 -51 -13
-69 -47 -60 -117 3 -26 8 -77 10 -113 7 -91 20 -244 22 -252 1 -5 2 -17 3 -28
0 -11 12 -27 27 -36 24 -16 26 -16 53 4 34 25 114 48 239 67 109 17 196 41
210 58 6 7 12 37 15 67 2 30 16 120 31 200 15 80 29 159 32 176 12 63 -40 76
-206 52z m90 -107 c0 -27 -37 -239 -50 -283 -12 -41 -31 -50 -140 -63 -30 -4
-80 -13 -111 -21 -90 -22 -97 -21 -103 29 -14 105 -20 202 -17 258 1 19 63 37
206 63 75 14 113 20 208 35 4 0 7 -8 7 -18z"/>
</g>
</svg>
