<?xml version="1.0" standalone="no"?>
<!DOCTYPE svg PUBLIC "-//W3C//DTD SVG 20010904//EN"
 "http://www.w3.org/TR/2001/REC-SVG-20010904/DTD/svg10.dtd">
<svg version="1.0" xmlns="http://www.w3.org/2000/svg"
 width="248.000000pt" height="248.000000pt" viewBox="0 0 248.000000 248.000000"
 preserveAspectRatio="xMidYMid meet">
<metadata>
Created by potrace 1.10, written by Peter Selinger 2001-2011
</metadata>
<g transform="translate(0.000000,248.000000) scale(0.100000,-0.100000)"
fill="#000000" stroke="none">
<path d="M1115 2110 c-44 -4 -143 -19 -220 -33 -169 -31 -319 -54 -400 -63
-68 -8 -85 -17 -85 -49 0 -31 31 -55 71 -55 39 0 240 29 449 64 80 14 180 29
223 34 84 10 107 23 107 57 0 44 -33 55 -145 45z"/>
<path d="M1235 1640 c-66 -10 -196 -30 -290 -43 -93 -14 -204 -33 -245 -42
-66 -14 -186 -36 -360 -65 -30 -5 -78 -13 -107 -18 -29 -5 -59 -15 -68 -22
-25 -20 -15 -63 18 -78 25 -12 45 -11 160 12 294 57 744 132 947 156 153 19
163 22 175 54 8 24 6 31 -14 47 -28 23 -56 23 -216 -1z"/>
</g>
</svg>
