<?xml version="1.0" standalone="no"?>
<!DOCTYPE svg PUBLIC "-//W3C//DTD SVG 20010904//EN"
 "http://www.w3.org/TR/2001/REC-SVG-20010904/DTD/svg10.dtd">
<svg version="1.0" xmlns="http://www.w3.org/2000/svg"
 width="248.000000pt" height="248.000000pt" viewBox="0 0 248.000000 248.000000"
 preserveAspectRatio="xMidYMid meet">
<metadata>
Created by potrace 1.10, written by Peter Selinger 2001-2011
</metadata>
<g transform="translate(0.000000,248.000000) scale(0.100000,-0.100000)"
fill="#000000" stroke="none">
<path d="M761 2191 c-8 -6 -29 -32 -45 -60 -59 -96 -105 -157 -190 -255 -48
-54 -111 -128 -140 -165 -49 -60 -261 -272 -314 -313 -24 -19 -29 -57 -10 -76
20 -20 57 -14 101 17 55 38 270 259 332 341 27 36 63 79 80 96 97 97 265 335
265 376 0 42 -42 62 -79 39z"/>
</g>
</svg>
