<?xml version="1.0" standalone="no"?>
<!DOCTYPE svg PUBLIC "-//W3C//DTD SVG 20010904//EN"
 "http://www.w3.org/TR/2001/REC-SVG-20010904/DTD/svg10.dtd">
<svg version="1.0" xmlns="http://www.w3.org/2000/svg"
 width="248.000000pt" height="248.000000pt" viewBox="0 0 248.000000 248.000000"
 preserveAspectRatio="xMidYMid meet">
<metadata>
Created by potrace 1.10, written by Peter Selinger 2001-2011
</metadata>
<g transform="translate(0.000000,248.000000) scale(0.100000,-0.100000)"
fill="#000000" stroke="none">
<path d="M1685 2290 c-55 -4 -131 -12 -170 -18 -99 -17 -327 -42 -480 -53 -71
-5 -152 -14 -180 -19 -90 -18 -208 -31 -338 -39 -101 -5 -131 -10 -145 -24
-16 -17 -17 -53 -16 -495 2 -689 21 -1361 40 -1390 19 -30 59 -29 79 2 14 21
15 64 5 392 -5 203 -13 602 -17 887 l-6 517 44 0 c45 0 135 11 298 36 52 8
154 19 228 25 75 5 138 11 142 13 4 3 81 12 171 21 91 8 185 20 210 25 25 5
140 12 256 16 l211 7 7 -24 c15 -48 18 -474 6 -924 -24 -904 -24 -992 -6
-1020 10 -15 26 -25 40 -25 48 0 51 13 57 319 3 157 12 500 19 761 12 476 9
800 -8 875 -6 22 -13 57 -17 78 -9 57 -43 67 -202 65 -70 0 -173 -4 -228 -8z"/>
<path d="M1200 1975 c-9 -11 -11 -73 -8 -250 l3 -234 -25 -5 c-49 -10 -97 -17
-220 -32 -69 -8 -158 -19 -199 -24 -44 -6 -81 -16 -92 -26 -22 -19 -25 -54 -7
-72 15 -15 87 -16 159 -2 30 6 110 17 179 25 69 8 144 18 168 21 l42 7 -2
-169 -3 -168 -35 -7 c-19 -3 -75 -12 -125 -18 -49 -7 -119 -17 -155 -21 -118
-17 -131 -41 -110 -215 25 -222 32 -256 56 -284 l22 -26 345 3 c239 3 347 0
352 -7 9 -16 46 -13 66 5 10 9 29 67 48 147 50 217 61 279 63 350 3 99 -1 102
-165 102 -73 0 -158 -4 -189 -8 l-58 -8 0 170 0 171 38 0 c21 0 63 4 93 10 30
5 112 16 183 24 95 11 137 20 155 34 30 22 39 63 17 81 -16 13 -48 11 -261
-21 -38 -6 -105 -13 -148 -17 -73 -6 -78 -5 -82 14 -3 11 -6 111 -7 221 -3
182 -5 204 -22 223 -22 25 -58 27 -76 6z m410 -1047 c0 -23 -14 -108 -31 -189
l-32 -147 -319 -7 c-176 -4 -322 -5 -325 -1 -5 5 -14 77 -29 233 -7 70 -6 72
17 76 33 7 155 24 264 38 50 6 124 17 165 24 41 7 123 13 183 14 l107 1 0 -42z"/>
</g>
</svg>
