<?xml version="1.0" standalone="no"?>
<!DOCTYPE svg PUBLIC "-//W3C//DTD SVG 20010904//EN"
 "http://www.w3.org/TR/2001/REC-SVG-20010904/DTD/svg10.dtd">
<svg version="1.0" xmlns="http://www.w3.org/2000/svg"
 width="248.000000pt" height="248.000000pt" viewBox="0 0 248.000000 248.000000"
 preserveAspectRatio="xMidYMid meet">
<metadata>
Created by potrace 1.10, written by Peter Selinger 2001-2011
</metadata>
<g transform="translate(0.000000,248.000000) scale(0.100000,-0.100000)"
fill="#000000" stroke="none">
<path d="M621 2376 c-6 -7 -36 -61 -65 -119 -30 -59 -66 -121 -79 -139 -14
-18 -47 -69 -74 -113 -26 -44 -56 -91 -66 -105 -10 -14 -39 -57 -65 -97 -26
-39 -81 -115 -122 -168 -41 -54 -80 -106 -87 -118 -23 -41 17 -84 64 -66 19 7
119 130 202 250 25 36 37 46 43 37 5 -7 8 -369 7 -805 -3 -856 -4 -827 50
-821 57 7 56 -19 57 945 1 805 2 884 17 907 9 14 17 28 17 31 0 2 21 35 46 72
58 85 134 239 134 273 0 14 -5 31 -12 38 -16 16 -53 15 -67 -2z"/>
<path d="M2094 2339 c-34 -4 -79 -12 -100 -18 -22 -5 -115 -19 -209 -31 -255
-31 -377 -51 -402 -67 -30 -18 -30 -58 0 -77 23 -16 69 -13 206 14 29 5 73 10
98 10 l44 0 -15 -28 c-20 -40 -129 -186 -190 -254 -43 -49 -56 -58 -95 -64
-27 -4 -54 -16 -68 -30 -22 -22 -23 -31 -23 -146 0 -68 -5 -222 -10 -343 -5
-121 -10 -332 -11 -468 -3 -317 -21 -291 209 -295 92 -2 273 1 402 7 232 12
235 12 258 37 22 25 22 29 23 332 1 169 4 453 8 632 3 179 3 335 -1 348 -13
40 -50 45 -203 27 -77 -9 -189 -27 -250 -39 -60 -13 -112 -22 -114 -20 -2 2
11 21 28 42 69 88 151 217 157 248 6 32 8 33 77 44 40 6 88 15 107 20 19 4 60
11 90 15 67 8 100 27 100 59 0 43 -31 55 -116 45z m16 -668 l0 -158 -107 -7
c-97 -6 -184 -16 -395 -46 -37 -6 -88 -10 -115 -10 l-48 0 3 135 3 135 27 6
c15 3 43 10 62 14 19 5 73 14 120 20 47 6 112 18 145 27 53 14 220 39 283 42
22 1 22 1 22 -158z m-5 -413 c-4 -79 -8 -144 -9 -145 -1 -2 -69 -8 -152 -14
-82 -6 -210 -19 -284 -30 -74 -10 -156 -19 -182 -19 l-48 0 0 38 c0 22 3 86 6
143 l7 105 191 24 c268 34 300 37 395 38 l83 2 -7 -142z m-5 -422 l0 -164 -27
-6 c-16 -3 -169 -9 -342 -12 l-314 -7 6 39 c4 21 7 87 7 147 l0 107 30 0 c17
0 76 7 133 16 98 15 361 40 460 43 l47 1 0 -164z"/>
<path d="M616 1698 c-14 -24 -31 -354 -31 -623 0 -119 2 -134 25 -180 51 -100
186 -128 409 -83 153 31 156 35 156 198 0 78 -4 123 -12 131 -15 15 -61 15
-76 0 -6 -6 -13 -57 -16 -113 l-6 -101 -60 -13 c-76 -16 -222 -18 -264 -3 -44
16 -51 40 -51 184 l0 123 66 42 c70 44 228 176 331 276 64 62 78 95 51 122
-25 25 -59 12 -127 -50 -107 -99 -265 -234 -287 -246 -20 -11 -21 -9 -16 148
4 137 2 163 -12 185 -21 32 -60 33 -80 3z"/>
<path d="M1463 505 c-73 -104 -175 -202 -263 -252 -66 -38 -80 -53 -80 -83 0
-30 16 -50 42 -50 55 0 261 161 350 273 55 70 51 137 -9 137 -12 0 -30 -11
-40 -25z"/>
<path d="M1912 448 c-26 -26 -12 -71 33 -101 18 -12 65 -53 106 -90 40 -38 89
-81 108 -95 20 -14 50 -38 66 -53 44 -40 78 -51 104 -33 11 8 21 25 21 37 0
24 -54 81 -125 132 -22 16 -69 57 -105 91 -118 111 -177 143 -208 112z"/>
</g>
</svg>
