<?xml version="1.0" standalone="no"?>
<!DOCTYPE svg PUBLIC "-//W3C//DTD SVG 20010904//EN"
 "http://www.w3.org/TR/2001/REC-SVG-20010904/DTD/svg10.dtd">
<svg version="1.0" xmlns="http://www.w3.org/2000/svg"
 width="248.000000pt" height="248.000000pt" viewBox="0 0 248.000000 248.000000"
 preserveAspectRatio="xMidYMid meet">
<metadata>
Created by potrace 1.10, written by Peter Selinger 2001-2011
</metadata>
<g transform="translate(0.000000,248.000000) scale(0.100000,-0.100000)"
fill="#000000" stroke="none">
<path d="M1685 2290 c-55 -4 -131 -12 -170 -18 -99 -17 -327 -42 -480 -53 -71
-5 -152 -14 -180 -19 -90 -18 -208 -31 -338 -39 -101 -5 -131 -10 -145 -24
-16 -17 -17 -53 -16 -495 2 -689 21 -1361 40 -1390 19 -30 59 -29 79 2 14 21
15 64 5 392 -5 203 -13 602 -17 887 l-6 517 44 0 c45 0 135 11 298 36 52 8
154 19 228 25 75 5 138 11 142 13 4 3 81 12 171 21 91 8 185 20 210 25 25 5
140 12 256 16 l211 7 7 -24 c15 -48 18 -474 6 -924 -24 -904 -24 -992 -6
-1020 10 -15 26 -25 40 -25 48 0 51 13 57 319 3 157 12 500 19 761 12 476 9
800 -8 875 -6 22 -13 57 -17 78 -9 57 -43 67 -202 65 -70 0 -173 -4 -228 -8z"/>
</g>
</svg>
