<?xml version="1.0" standalone="no"?>
<!DOCTYPE svg PUBLIC "-//W3C//DTD SVG 20010904//EN"
 "http://www.w3.org/TR/2001/REC-SVG-20010904/DTD/svg10.dtd">
<svg version="1.0" xmlns="http://www.w3.org/2000/svg"
 width="248.000000pt" height="248.000000pt" viewBox="0 0 248.000000 248.000000"
 preserveAspectRatio="xMidYMid meet">
<metadata>
Created by potrace 1.10, written by Peter Selinger 2001-2011
</metadata>
<g transform="translate(0.000000,248.000000) scale(0.100000,-0.100000)"
fill="#000000" stroke="none">
<path d="M2030 2163 c-189 -17 -273 -27 -380 -43 -69 -10 -177 -23 -240 -29
-156 -16 -290 -30 -380 -41 -120 -14 -274 -30 -437 -44 -91 -8 -159 -19 -168
-26 -25 -20 -15 -63 18 -78 31 -15 115 -10 457 28 96 11 196 22 223 25 l47 6
0 -34 c0 -51 -94 -315 -185 -517 -26 -58 -55 -125 -65 -150 -17 -40 -66 -139
-175 -345 -20 -38 -65 -113 -100 -165 -104 -157 -191 -294 -204 -318 -18 -34
-6 -70 25 -78 34 -9 50 8 135 140 39 61 102 156 139 211 92 137 284 516 378
750 108 268 162 431 162 491 0 27 8 29 170 44 63 6 153 17 200 25 77 12 210
27 363 39 l57 5 0 -82 c0 -82 -36 -389 -65 -547 -8 -47 -24 -143 -35 -215 -43
-281 -71 -417 -111 -532 -52 -150 -119 -293 -175 -372 -2 -2 -58 49 -126 113
-68 64 -134 119 -147 123 -32 8 -55 -8 -59 -41 -3 -23 16 -46 138 -164 78 -75
152 -141 164 -146 39 -15 74 1 111 52 94 129 216 426 249 604 42 232 58 325
76 451 10 76 21 141 24 145 3 5 12 64 21 133 61 464 60 555 -7 578 -17 6 -38
10 -47 9 -9 0 -32 -3 -51 -5z"/>
</g>
</svg>
