<?xml version="1.0" standalone="no"?>
<!DOCTYPE svg PUBLIC "-//W3C//DTD SVG 20010904//EN"
 "http://www.w3.org/TR/2001/REC-SVG-20010904/DTD/svg10.dtd">
<svg version="1.0" xmlns="http://www.w3.org/2000/svg"
 width="248.000000pt" height="248.000000pt" viewBox="0 0 248.000000 248.000000"
 preserveAspectRatio="xMidYMid meet">
<metadata>
Created by potrace 1.10, written by Peter Selinger 2001-2011
</metadata>
<g transform="translate(0.000000,248.000000) scale(0.100000,-0.100000)"
fill="#000000" stroke="none">
<path d="M1685 2290 c-55 -4 -131 -12 -170 -18 -99 -17 -327 -42 -480 -53 -71
-5 -152 -14 -180 -19 -90 -18 -208 -31 -338 -39 -101 -5 -131 -10 -145 -24
-16 -17 -17 -53 -16 -495 2 -677 21 -1358 40 -1394 33 -63 -19 -60 876 -54
705 6 815 9 828 22 12 12 16 65 21 302 3 158 12 501 19 762 12 476 9 800 -8
875 -6 22 -13 57 -17 78 -9 57 -43 67 -202 65 -70 0 -173 -4 -228 -8z m340
-122 c14 -47 17 -478 5 -928 -7 -256 -14 -571 -17 -700 l-5 -235 -347 0 c-190
0 -530 -1 -755 -3 -225 -1 -410 -1 -412 1 -7 6 -24 686 -30 1225 l-7 522 44 0
c45 0 135 11 298 36 52 8 154 19 228 25 75 5 138 11 142 13 4 3 82 12 173 20
92 9 174 19 183 22 25 10 198 21 351 23 139 1 142 1 149 -21z"/>
<path d="M1200 1975 c-9 -11 -11 -73 -8 -250 l3 -234 -25 -5 c-49 -10 -97 -17
-220 -32 -69 -8 -158 -19 -199 -24 -44 -6 -81 -16 -92 -26 -22 -19 -25 -54 -7
-72 15 -15 87 -16 159 -2 30 6 110 17 179 25 69 8 144 18 168 21 l42 7 -2
-169 -3 -168 -35 -7 c-19 -3 -75 -12 -125 -18 -49 -7 -119 -17 -155 -21 -118
-17 -131 -41 -110 -215 25 -222 32 -256 56 -284 l22 -26 345 3 c239 3 347 0
352 -7 9 -16 46 -13 66 5 10 9 29 67 48 147 50 217 61 279 63 350 3 99 -1 102
-165 102 -73 0 -158 -4 -189 -8 l-58 -8 0 170 0 171 38 0 c21 0 63 4 93 10 30
5 112 16 183 24 95 11 137 20 155 34 30 22 39 63 17 81 -16 13 -48 11 -261
-21 -38 -6 -105 -13 -148 -17 -73 -6 -78 -5 -82 14 -3 11 -6 111 -7 221 -3
182 -5 204 -22 223 -22 25 -58 27 -76 6z m410 -1047 c0 -23 -14 -108 -31 -189
l-32 -147 -319 -7 c-176 -4 -322 -5 -325 -1 -5 5 -14 77 -29 233 -7 70 -6 72
17 76 33 7 155 24 264 38 50 6 124 17 165 24 41 7 123 13 183 14 l107 1 0 -42z"/>
</g>
</svg>
