<?xml version="1.0" standalone="no"?>
<!DOCTYPE svg PUBLIC "-//W3C//DTD SVG 20010904//EN"
 "http://www.w3.org/TR/2001/REC-SVG-20010904/DTD/svg10.dtd">
<svg version="1.0" xmlns="http://www.w3.org/2000/svg"
 width="248.000000pt" height="248.000000pt" viewBox="0 0 248.000000 248.000000"
 preserveAspectRatio="xMidYMid meet">
<metadata>
Created by potrace 1.10, written by Peter Selinger 2001-2011
</metadata>
<g transform="translate(0.000000,248.000000) scale(0.100000,-0.100000)"
fill="#000000" stroke="none">
<path d="M1846 2208 c-9 -12 -16 -26 -16 -31 0 -19 -98 -125 -173 -187 -124
-102 -157 -135 -157 -158 0 -26 25 -52 50 -52 24 0 253 192 313 262 63 74 82
120 65 156 -18 36 -60 42 -82 10z"/>
<path d="M1115 2110 c-44 -4 -143 -19 -220 -33 -169 -31 -319 -54 -400 -63
-68 -8 -85 -17 -85 -49 0 -42 32 -58 107 -54 l68 4 3 -158 c3 -181 -3 -219
-39 -229 -22 -7 -125 -25 -279 -49 -91 -15 -115 -28 -115 -64 0 -23 7 -33 28
-43 25 -12 44 -11 155 11 70 14 149 29 175 33 l48 6 -7 -38 c-27 -147 -89
-375 -117 -431 -8 -15 -17 -39 -20 -53 -4 -14 -27 -61 -52 -104 -46 -80 -56
-131 -33 -154 17 -17 53 -15 70 6 14 17 111 208 135 267 26 63 76 244 100 360
13 66 26 130 29 142 5 26 33 36 163 57 137 23 135 23 128 -21 -4 -21 -12 -268
-18 -549 -13 -568 -13 -569 46 -569 22 0 33 7 41 25 8 17 16 203 23 573 6 301
14 553 17 561 7 17 54 26 336 61 69 9 92 59 42 91 -24 16 -34 16 -162 0 -75
-10 -154 -21 -175 -26 l-38 -8 3 192 3 192 77 11 c85 11 108 24 108 58 0 44
-33 55 -145 45z m-150 -317 c-4 -104 -9 -190 -11 -192 -2 -2 -41 -9 -86 -16
-46 -7 -103 -16 -128 -20 l-45 -7 0 191 0 191 25 0 c14 1 66 9 115 19 50 10
101 19 114 20 l24 1 -8 -187z"/>
<path d="M2037 1702 c-9 -10 -17 -24 -17 -30 0 -28 -358 -369 -504 -480 -62
-48 -72 -79 -35 -106 41 -28 97 10 343 234 245 223 323 325 289 379 -15 23
-56 25 -76 3z"/>
<path d="M2066 988 c-7 -13 -16 -35 -20 -49 -6 -28 -77 -138 -131 -204 -117
-144 -325 -336 -459 -425 -85 -56 -98 -85 -51 -116 23 -15 27 -15 67 5 155 76
468 377 601 578 79 120 97 171 73 208 -21 32 -60 33 -80 3z"/>
</g>
</svg>
