<?xml version="1.0" standalone="no"?>
<!DOCTYPE svg PUBLIC "-//W3C//DTD SVG 20010904//EN"
 "http://www.w3.org/TR/2001/REC-SVG-20010904/DTD/svg10.dtd">
<svg version="1.0" xmlns="http://www.w3.org/2000/svg"
 width="248.000000pt" height="248.000000pt" viewBox="0 0 248.000000 248.000000"
 preserveAspectRatio="xMidYMid meet">
<metadata>
Created by potrace 1.10, written by Peter Selinger 2001-2011
</metadata>
<g transform="translate(0.000000,248.000000) scale(0.100000,-0.100000)"
fill="#000000" stroke="none">
<path d="M1838 2254 c-3 -2 -101 -9 -219 -14 -421 -21 -549 -31 -879 -75 -217
-29 -320 -48 -332 -62 -8 -10 -7 -36 6 -106 14 -74 17 -124 12 -252 -15 -421
-67 -843 -122 -996 -28 -80 -60 -146 -117 -249 -42 -75 -43 -80 -19 -110 26
-32 62 -21 88 27 12 21 37 67 57 103 67 122 113 262 141 435 43 265 58 444 63
767 5 271 8 308 22 312 9 3 126 19 261 35 135 17 282 35 328 41 46 6 165 15
265 21 100 5 231 12 291 15 l109 6 -5 -28 c-38 -219 -40 -241 -35 -434 2 -118
10 -227 20 -275 9 -44 21 -118 28 -165 24 -178 123 -505 190 -630 46 -86 125
-186 229 -288 82 -81 98 -93 125 -90 46 5 68 59 73 181 5 105 -3 127 -43 127
-33 0 -42 -17 -50 -95 -4 -38 -8 -71 -9 -73 -8 -7 -150 155 -193 219 -97 144
-191 436 -233 724 -11 77 -27 183 -35 235 -8 52 -15 127 -15 165 0 86 23 276
44 365 19 79 20 134 4 147 -17 13 -45 23 -50 17z"/>
</g>
</svg>
