<?xml version="1.0" standalone="no"?>
<!DOCTYPE svg PUBLIC "-//W3C//DTD SVG 20010904//EN"
 "http://www.w3.org/TR/2001/REC-SVG-20010904/DTD/svg10.dtd">
<svg version="1.0" xmlns="http://www.w3.org/2000/svg"
 width="248.000000pt" height="248.000000pt" viewBox="0 0 248.000000 248.000000"
 preserveAspectRatio="xMidYMid meet">
<metadata>
Created by potrace 1.10, written by Peter Selinger 2001-2011
</metadata>
<g transform="translate(0.000000,248.000000) scale(0.100000,-0.100000)"
fill="#000000" stroke="none">
<path d="M1492 2337 c-6 -7 -25 -57 -42 -111 -43 -135 -114 -308 -157 -386
-20 -36 -60 -90 -88 -120 -64 -67 -75 -88 -64 -117 8 -22 24 -28 59 -23 47 6
184 192 238 325 63 152 132 356 132 389 0 17 -5 37 -12 44 -16 16 -53 15 -66
-1z"/>
<path d="M594 2306 c-18 -13 -19 -27 -16 -230 2 -243 8 -228 -80 -239 -47 -6
-48 -6 -48 21 0 39 -84 202 -124 241 -39 38 -82 44 -103 15 -20 -27 -16 -40
23 -79 37 -37 120 -197 110 -213 -3 -5 -47 -15 -98 -21 -104 -14 -138 -30
-138 -65 0 -54 39 -56 278 -16 63 11 120 20 128 20 67 0 -147 -262 -321 -392
-92 -69 -101 -81 -86 -114 30 -67 163 17 349 217 50 56 92 105 92 110 0 5 5 9
11 9 8 0 10 -57 7 -190 -2 -161 -1 -192 12 -200 22 -14 51 -12 71 6 15 14 16
33 12 195 -5 142 -3 179 7 179 7 0 59 -26 114 -58 158 -92 198 -100 212 -46 8
31 -15 58 -70 84 -23 10 -68 35 -101 54 -33 20 -81 48 -107 62 -49 28 -64 50
-53 83 7 23 24 27 180 41 129 12 230 28 256 41 25 13 29 46 10 70 l-18 22
-131 -18 c-73 -10 -135 -15 -139 -12 -3 4 20 35 53 70 130 139 175 197 172
219 -4 28 -29 42 -60 35 -34 -9 -285 -285 -290 -318 -1 -13 -10 -24 -18 -24
-13 0 -15 31 -15 214 -1 198 -2 214 -20 227 -24 18 -36 18 -61 0z"/>
<path d="M552 1057 c-6 -6 -14 -26 -18 -42 -4 -17 -20 -57 -35 -91 l-27 -61
-108 -27 c-155 -39 -264 -84 -275 -113 -19 -52 28 -85 81 -58 55 28 230 82
230 70 0 -13 -77 -113 -108 -140 -58 -52 -47 -69 92 -144 l119 -65 -49 -43
c-27 -24 -72 -57 -101 -74 -59 -35 -69 -53 -48 -85 32 -49 98 -22 225 91 33
30 63 55 65 55 8 0 222 -135 264 -167 63 -47 111 -41 111 13 0 30 -59 79 -198
166 l-112 70 25 41 c26 42 87 165 165 334 l42 91 129 36 c70 20 134 36 142 36
36 0 60 63 35 88 -24 24 -68 14 -448 -98 -74 -22 -138 -40 -142 -40 -4 0 -1
19 7 41 18 50 19 101 3 117 -16 16 -53 15 -66 -1z m198 -239 c0 -21 -161 -339
-174 -344 -16 -6 -166 74 -166 88 0 6 16 32 36 59 20 27 49 73 64 101 l28 52
94 27 c110 31 118 33 118 17z"/>
</g>
</svg>
