<?xml version="1.0" standalone="no"?>
<!DOCTYPE svg PUBLIC "-//W3C//DTD SVG 20010904//EN"
 "http://www.w3.org/TR/2001/REC-SVG-20010904/DTD/svg10.dtd">
<svg version="1.0" xmlns="http://www.w3.org/2000/svg"
 width="248.000000pt" height="248.000000pt" viewBox="0 0 248.000000 248.000000"
 preserveAspectRatio="xMidYMid meet">
<metadata>
Created by potrace 1.10, written by Peter Selinger 2001-2011
</metadata>
<g transform="translate(0.000000,248.000000) scale(0.100000,-0.100000)"
fill="#000000" stroke="none">
<path d="M983 2203 c-25 -10 -273 -292 -273 -310 0 -26 19 -43 50 -43 20 0 46
20 106 83 127 133 194 214 194 234 0 35 -37 53 -77 36z"/>
<path d="M250 2132 c-19 -5 -40 -32 -40 -49 0 -7 16 -28 35 -48 20 -19 53 -71
75 -116 47 -97 56 -109 84 -109 58 0 59 46 5 157 -58 120 -114 179 -159 165z"/>
</g>
</svg>
