<?xml version="1.0" standalone="no"?>
<!DOCTYPE svg PUBLIC "-//W3C//DTD SVG 20010904//EN"
 "http://www.w3.org/TR/2001/REC-SVG-20010904/DTD/svg10.dtd">
<svg version="1.0" xmlns="http://www.w3.org/2000/svg"
 width="248.000000pt" height="248.000000pt" viewBox="0 0 248.000000 248.000000"
 preserveAspectRatio="xMidYMid meet">
<metadata>
Created by potrace 1.10, written by Peter Selinger 2001-2011
</metadata>
<g transform="translate(0.000000,248.000000) scale(0.100000,-0.100000)"
fill="#000000" stroke="none">
<path d="M1750 2395 c-13 -16 -343 -180 -455 -227 -149 -61 -389 -139 -710
-230 -38 -11 -78 -27 -87 -35 -22 -20 -23 -56 -2 -74 18 -15 84 -4 214 36 41
12 138 42 215 65 77 23 208 67 290 97 169 62 555 248 598 288 28 27 35 63 15
83 -17 17 -63 15 -78 -3z"/>
</g>
</svg>
