<?xml version="1.0" standalone="no"?>
<!DOCTYPE svg PUBLIC "-//W3C//DTD SVG 20010904//EN"
 "http://www.w3.org/TR/2001/REC-SVG-20010904/DTD/svg10.dtd">
<svg version="1.0" xmlns="http://www.w3.org/2000/svg"
 width="248.000000pt" height="248.000000pt" viewBox="0 0 248.000000 248.000000"
 preserveAspectRatio="xMidYMid meet">
<metadata>
Created by potrace 1.10, written by Peter Selinger 2001-2011
</metadata>
<g transform="translate(0.000000,248.000000) scale(0.100000,-0.100000)"
fill="#000000" stroke="none">
<path d="M1006 2428 c-9 -12 -16 -36 -16 -53 l0 -31 -87 -12 c-49 -6 -116 -15
-149 -18 l-61 -6 -8 38 c-8 47 -30 74 -60 74 -36 0 -48 -24 -42 -79 6 -48 5
-49 -25 -55 -17 -3 -42 -6 -57 -6 -37 0 -71 -26 -71 -54 0 -46 43 -59 142 -43
l46 8 13 -58 c16 -79 32 -103 69 -103 46 0 58 34 37 108 -9 31 -13 60 -9 63 9
7 231 33 237 27 2 -2 -2 -26 -10 -53 -18 -57 -19 -107 -5 -121 12 -12 -116
-37 -275 -54 -121 -13 -125 -13 -125 8 0 24 -31 52 -56 52 -35 0 -44 -21 -44
-96 0 -49 -8 -95 -25 -148 -14 -42 -25 -85 -25 -94 0 -46 57 -56 89 -16 20 25
31 53 51 131 10 39 13 42 53 47 23 3 94 13 157 21 63 8 160 22 215 30 55 9
126 18 159 22 l58 6 -5 -54 c-9 -102 -72 -278 -137 -383 l-21 -36 -28 21 c-49
36 -101 11 -88 -42 10 -40 75 -99 109 -99 45 0 62 14 111 92 127 205 203 520
142 588 -19 21 -26 22 -105 16 -47 -3 -97 -9 -111 -12 l-27 -6 24 73 c13 40
24 84 24 96 0 29 0 29 129 47 56 8 110 21 118 27 23 20 12 62 -21 78 -24 11
-41 12 -91 2 -92 -16 -105 -15 -105 12 0 33 -28 67 -55 67 -13 0 -31 -10 -39
-22z"/>
<path d="M1416 2388 c-11 -15 -16 -45 -16 -93 0 -82 -14 -139 -64 -255 -38
-90 -43 -119 -24 -138 30 -30 68 -10 101 53 16 30 16 30 17 5 0 -14 7 -35 15
-47 14 -20 138 -118 198 -156 15 -10 27 -21 27 -26 0 -9 -40 -48 -120 -118
-48 -42 -110 -84 -175 -119 -30 -16 -32 -69 -4 -84 48 -26 142 29 307 178 l83
75 42 -30 c129 -92 383 -222 447 -230 43 -5 49 -3 65 20 24 38 6 63 -58 82
-58 17 -346 173 -402 218 l-35 28 41 77 c53 101 108 242 115 296 4 24 9 49 13
55 4 6 43 14 87 17 43 3 94 10 112 16 66 20 65 98 -1 98 -88 0 -371 -23 -437
-35 -41 -8 -112 -17 -157 -21 l-83 -7 0 59 c0 69 -19 104 -55 104 -13 0 -31
-10 -39 -22z m459 -245 c-9 -48 -61 -178 -103 -261 l-33 -63 -31 20 c-33 20
-99 71 -171 129 -34 28 -47 33 -75 29 -30 -5 -32 -4 -26 16 3 12 12 31 19 42
7 11 15 34 19 51 l7 30 117 13 c64 7 133 16 152 21 19 4 57 8 84 9 l48 1 -7
-37z"/>
<path d="M815 1850 c-22 -4 -80 -13 -130 -20 -49 -6 -97 -15 -105 -19 -17 -10
-18 -50 -1 -161 17 -112 18 -113 181 -101 l134 9 33 36 c25 27 33 45 33 73 0
60 -18 156 -32 170 -18 17 -65 23 -113 13z m33 -147 l3 -40 -78 -6 c-43 -3
-79 -4 -81 -2 -2 2 -5 18 -5 37 l-2 33 64 7 c35 4 66 10 69 13 14 14 27 -5 30
-42z"/>
<path d="M1162 1448 c-15 -15 -15 -43 -2 -68 9 -16 172 -113 264 -157 36 -17
37 -18 15 -24 -13 -4 -58 -7 -99 -8 -106 -1 -361 -19 -515 -36 -71 -8 -161
-17 -200 -20 -38 -3 -80 -13 -92 -21 -29 -18 -30 -58 -2 -78 23 -16 52 -15
249 9 63 8 205 19 315 25 110 6 265 15 345 21 80 5 235 14 345 20 110 6 211
16 225 23 18 8 25 19 25 41 0 53 -28 58 -243 45 -103 -6 -207 -14 -232 -17
-37 -4 -43 -3 -32 8 17 19 15 53 -5 71 -10 9 -56 36 -103 61 -47 24 -113 61
-147 81 -65 38 -91 44 -111 24z"/>
<path d="M1415 985 c-49 -7 -155 -18 -235 -25 -92 -7 -153 -17 -167 -26 -30
-19 -30 -59 0 -79 25 -16 120 -11 367 20 63 8 138 15 165 15 64 0 99 18 103
52 7 57 -54 68 -233 43z"/>
<path d="M1385 769 c-55 -5 -153 -13 -218 -18 -129 -10 -167 -25 -167 -65 0
-44 20 -49 148 -42 267 15 397 28 420 42 29 19 29 58 0 78 -24 17 -33 17 -183
5z"/>
<path d="M1260 569 c-243 -22 -273 -27 -299 -54 -24 -24 -26 -31 -24 -113 3
-101 26 -247 44 -268 15 -18 53 -18 69 1 16 19 16 35 0 178 -7 65 -10 121 -6
124 10 10 286 32 404 33 l113 0 -6 -47 c-4 -27 -17 -93 -31 -147 -30 -123 -30
-132 1 -152 23 -15 27 -15 50 0 14 9 25 19 25 21 0 3 11 47 24 98 30 115 51
256 42 290 -4 16 -17 29 -37 36 -36 12 -227 12 -369 0z"/>
</g>
</svg>
