<?xml version="1.0" standalone="no"?>
<!DOCTYPE svg PUBLIC "-//W3C//DTD SVG 20010904//EN"
 "http://www.w3.org/TR/2001/REC-SVG-20010904/DTD/svg10.dtd">
<svg version="1.0" xmlns="http://www.w3.org/2000/svg"
 width="248.000000pt" height="248.000000pt" viewBox="0 0 248.000000 248.000000"
 preserveAspectRatio="xMidYMid meet">
<metadata>
Created by potrace 1.10, written by Peter Selinger 2001-2011
</metadata>
<g transform="translate(0.000000,248.000000) scale(0.100000,-0.100000)"
fill="#000000" stroke="none">
<path d="M1750 2395 c-13 -15 -345 -182 -445 -222 -167 -69 -401 -145 -720
-235 -78 -22 -105 -41 -105 -73 0 -41 24 -50 90 -37 63 13 208 55 358 104 51
17 95 28 97 26 2 -2 -57 -69 -131 -148 -163 -175 -168 -182 -160 -216 5 -20
24 -34 89 -65 45 -21 105 -52 132 -69 28 -16 70 -39 95 -51 l44 -22 -24 -16
c-30 -20 -119 -96 -272 -231 -117 -104 -183 -158 -232 -193 -30 -21 -34 -58
-9 -83 15 -15 32 -16 128 -11 111 6 334 35 480 62 44 8 85 15 92 15 8 0 11
-101 10 -397 -2 -444 0 -458 58 -458 50 0 57 28 50 189 -4 76 -3 261 1 411 l7
273 261 51 c143 28 265 56 270 61 20 20 35 7 102 -91 67 -99 93 -122 124 -111
43 16 39 54 -12 132 -66 100 -97 139 -165 212 -35 36 -63 71 -63 77 0 21 -62
81 -84 81 -68 0 -55 -83 28 -178 12 -13 16 -26 10 -31 -10 -9 -421 -90 -589
-116 -257 -40 -433 -65 -464 -65 -30 0 -32 2 -20 17 25 30 278 247 348 298 61
44 224 175 410 327 124 102 237 206 250 230 41 78 -45 122 -94 48 -11 -17 -45
-50 -75 -75 -30 -24 -138 -112 -240 -195 -159 -129 -189 -150 -212 -146 -34 7
-78 27 -153 71 -33 20 -79 45 -103 56 l-43 20 30 37 c16 20 41 48 56 62 36 34
216 238 242 275 15 21 44 39 95 59 122 48 491 233 521 261 28 27 35 63 15 83
-17 17 -63 15 -78 -3z"/>
</g>
</svg>
