<?xml version="1.0" standalone="no"?>
<!DOCTYPE svg PUBLIC "-//W3C//DTD SVG 20010904//EN"
 "http://www.w3.org/TR/2001/REC-SVG-20010904/DTD/svg10.dtd">
<svg version="1.0" xmlns="http://www.w3.org/2000/svg"
 width="248.000000pt" height="248.000000pt" viewBox="0 0 248.000000 248.000000"
 preserveAspectRatio="xMidYMid meet">
<metadata>
Created by potrace 1.10, written by Peter Selinger 2001-2011
</metadata>
<g transform="translate(0.000000,248.000000) scale(0.100000,-0.100000)"
fill="#000000" stroke="none">
<path d="M1220 2377 c-7 -8 -104 -21 -455 -61 -197 -23 -303 -42 -320 -56 -24
-20 -15 -63 17 -78 22 -10 40 -11 85 -2 32 6 117 18 188 26 263 29 303 34 433
53 73 11 140 25 148 32 18 15 18 53 -1 69 -15 13 -87 25 -95 17z"/>
</g>
</svg>
