<?xml version="1.0" standalone="no"?>
<!DOCTYPE svg PUBLIC "-//W3C//DTD SVG 20010904//EN"
 "http://www.w3.org/TR/2001/REC-SVG-20010904/DTD/svg10.dtd">
<svg version="1.0" xmlns="http://www.w3.org/2000/svg"
 width="248.000000pt" height="248.000000pt" viewBox="0 0 248.000000 248.000000"
 preserveAspectRatio="xMidYMid meet">
<metadata>
Created by potrace 1.10, written by Peter Selinger 2001-2011
</metadata>
<g transform="translate(0.000000,248.000000) scale(0.100000,-0.100000)"
fill="#000000" stroke="none">
<path d="M1006 2428 c-9 -12 -16 -36 -16 -53 l0 -31 -87 -12 c-49 -6 -116 -14
-149 -17 l-61 -7 -8 39 c-8 46 -30 73 -60 73 -36 0 -48 -24 -42 -79 6 -48 5
-49 -25 -55 -17 -3 -42 -6 -57 -6 -37 0 -71 -26 -71 -54 0 -46 43 -59 142 -43
l46 8 13 -58 c16 -79 32 -103 69 -103 44 0 58 35 41 98 -18 65 -18 76 -1 78
114 16 221 26 225 23 2 -3 -2 -27 -10 -54 -18 -57 -19 -107 -4 -122 11 -11
-102 -34 -266 -53 -127 -14 -128 -14 -145 23 -9 20 -24 33 -38 35 -40 6 -52
-14 -52 -87 0 -38 -9 -96 -21 -136 -30 -102 -33 -129 -15 -144 41 -34 95 18
117 114 6 29 15 58 19 65 4 6 63 17 132 25 70 8 152 19 185 24 117 22 251 41
283 41 l32 0 -5 -52 c-9 -100 -69 -273 -129 -370 l-30 -48 -25 20 c-45 35 -93
21 -93 -27 0 -36 76 -113 110 -113 47 0 59 9 107 84 58 90 96 179 140 330 30
100 35 130 30 183 -7 97 -21 107 -127 99 -47 -3 -97 -9 -111 -12 l-27 -6 19
58 c11 32 22 76 26 97 3 21 11 40 17 42 6 3 58 11 115 19 56 8 110 21 118 27
23 20 12 62 -21 78 -24 11 -41 12 -91 2 -92 -16 -105 -15 -105 12 0 33 -28 67
-55 67 -13 0 -31 -10 -39 -22z"/>
</g>
</svg>
