<?xml version="1.0" standalone="no"?>
<!DOCTYPE svg PUBLIC "-//W3C//DTD SVG 20010904//EN"
 "http://www.w3.org/TR/2001/REC-SVG-20010904/DTD/svg10.dtd">
<svg version="1.0" xmlns="http://www.w3.org/2000/svg"
 width="248.000000pt" height="248.000000pt" viewBox="0 0 248.000000 248.000000"
 preserveAspectRatio="xMidYMid meet">
<metadata>
Created by potrace 1.10, written by Peter Selinger 2001-2011
</metadata>
<g transform="translate(0.000000,248.000000) scale(0.100000,-0.100000)"
fill="#000000" stroke="none">
<path d="M590 2405 c-8 -10 -11 -32 -7 -64 6 -48 5 -49 -25 -55 -17 -3 -42 -6
-57 -6 -37 0 -71 -26 -71 -54 0 -46 43 -59 142 -43 l46 8 13 -58 c16 -79 32
-103 69 -103 44 0 58 35 41 98 -18 65 -18 76 -1 78 8 1 62 8 120 14 222 25
442 60 456 71 24 19 13 62 -19 77 -22 11 -43 11 -100 3 -128 -20 -318 -44
-443 -57 l-61 -6 -8 39 c-3 21 -14 46 -22 56 -20 21 -56 22 -73 2z"/>
</g>
</svg>
