<?xml version="1.0" standalone="no"?>
<!DOCTYPE svg PUBLIC "-//W3C//DTD SVG 20010904//EN"
 "http://www.w3.org/TR/2001/REC-SVG-20010904/DTD/svg10.dtd">
<svg version="1.0" xmlns="http://www.w3.org/2000/svg"
 width="248.000000pt" height="248.000000pt" viewBox="0 0 248.000000 248.000000"
 preserveAspectRatio="xMidYMid meet">
<metadata>
Created by potrace 1.10, written by Peter Selinger 2001-2011
</metadata>
<g transform="translate(0.000000,248.000000) scale(0.100000,-0.100000)"
fill="#000000" stroke="none">
<path d="M1006 2428 c-9 -12 -16 -36 -16 -53 l0 -31 -87 -12 c-49 -6 -116 -14
-149 -17 l-61 -7 -8 39 c-8 46 -30 73 -60 73 -36 0 -48 -24 -42 -79 6 -48 5
-49 -25 -55 -17 -3 -42 -6 -57 -6 -37 0 -71 -26 -71 -54 0 -46 43 -59 142 -43
l46 8 13 -58 c16 -79 32 -103 69 -103 44 0 58 35 41 98 -18 65 -18 76 -1 78
114 16 221 26 225 23 2 -3 -2 -27 -10 -54 -22 -70 -20 -112 6 -126 49 -26 85
29 106 159 3 19 11 35 17 38 6 2 58 10 115 18 56 8 110 21 118 27 23 20 12 62
-20 77 -23 11 -41 12 -91 3 -93 -16 -106 -15 -106 12 0 33 -28 67 -55 67 -13
0 -31 -10 -39 -22z"/>
</g>
</svg>
