<?xml version="1.0" standalone="no"?>
<!DOCTYPE svg PUBLIC "-//W3C//DTD SVG 20010904//EN"
 "http://www.w3.org/TR/2001/REC-SVG-20010904/DTD/svg10.dtd">
<svg version="1.0" xmlns="http://www.w3.org/2000/svg"
 width="248.000000pt" height="248.000000pt" viewBox="0 0 248.000000 248.000000"
 preserveAspectRatio="xMidYMid meet">
<metadata>
Created by potrace 1.10, written by Peter Selinger 2001-2011
</metadata>
<g transform="translate(0.000000,248.000000) scale(0.100000,-0.100000)"
fill="#000000" stroke="none">
<path d="M736 2208 c-9 -12 -16 -29 -16 -38 0 -17 -77 -237 -145 -415 -87
-226 -204 -438 -313 -565 -22 -25 -42 -55 -46 -66 -10 -33 19 -59 61 -55 38 4
198 230 281 396 95 191 262 642 262 707 0 19 -5 39 -12 46 -19 19 -55 14 -72
-10z"/>
</g>
</svg>
