<?xml version="1.0" standalone="no"?>
<!DOCTYPE svg PUBLIC "-//W3C//DTD SVG 20010904//EN"
 "http://www.w3.org/TR/2001/REC-SVG-20010904/DTD/svg10.dtd">
<svg version="1.0" xmlns="http://www.w3.org/2000/svg"
 width="248.000000pt" height="248.000000pt" viewBox="0 0 248.000000 248.000000"
 preserveAspectRatio="xMidYMid meet">
<metadata>
Created by potrace 1.10, written by Peter Selinger 2001-2011
</metadata>
<g transform="translate(0.000000,248.000000) scale(0.100000,-0.100000)"
fill="#000000" stroke="none">
<path d="M1621 2307 c-7 -10 -12 -141 -13 -423 l-3 -409 -30 -3 c-16 -1 -70
-9 -120 -17 -49 -8 -148 -24 -220 -36 -79 -12 -137 -27 -147 -36 -22 -20 -23
-56 -3 -73 17 -15 53 -11 305 31 96 16 186 29 199 29 l24 0 -7 -604 c-4 -382
-3 -613 3 -629 17 -45 74 -46 91 -2 5 12 12 297 16 633 6 532 9 612 22 617 9
3 143 10 300 15 314 11 337 15 337 65 0 50 -22 54 -275 45 -124 -5 -260 -12
-302 -15 l-77 -8 -3 396 c-3 372 -4 396 -22 416 -22 24 -58 28 -75 8z"/>
<path d="M553 2259 c-20 -20 -15 -57 10 -74 12 -9 64 -47 116 -86 107 -79 133
-89 161 -64 41 37 32 50 -114 160 -92 70 -148 90 -173 64z"/>
<path d="M660 1780 c-317 -54 -339 -58 -399 -74 -29 -9 -60 -21 -67 -27 -17
-14 -18 -51 -2 -67 16 -16 81 -15 137 3 41 13 402 74 539 91 86 11 127 58 84
97 -24 22 -28 22 -292 -23z"/>
<path d="M549 1336 c-102 -17 -193 -37 -203 -45 -19 -16 -21 -52 -4 -69 15
-15 66 -15 139 -2 30 5 110 19 178 30 126 20 161 36 161 70 0 24 -32 50 -61
49 -13 -1 -108 -15 -210 -33z"/>
<path d="M548 1001 c-103 -21 -194 -43 -202 -50 -19 -16 -21 -52 -4 -69 18
-18 65 -15 241 19 229 43 236 45 243 75 9 34 -20 64 -60 63 -17 0 -115 -17
-218 -38z"/>
<path d="M745 720 c-27 -4 -75 -11 -105 -14 -199 -25 -313 -48 -335 -66 -17
-14 -19 -88 -5 -195 5 -38 14 -119 20 -180 6 -64 17 -120 26 -134 17 -24 22
-25 112 -2 49 13 213 33 290 35 61 2 69 10 78 76 3 25 10 61 15 81 9 34 44
247 56 335 4 35 2 44 -18 58 -25 17 -53 18 -134 6z m34 -142 c-4 -24 -11 -70
-15 -102 -4 -33 -14 -91 -23 -130 l-16 -71 -45 -8 c-92 -15 -245 -34 -249 -30
-9 7 -39 318 -32 326 4 4 77 17 162 28 85 11 159 22 164 24 6 2 22 4 36 4 26
1 26 0 18 -41z"/>
</g>
</svg>
