<?xml version="1.0" standalone="no"?>
<!DOCTYPE svg PUBLIC "-//W3C//DTD SVG 20010904//EN"
 "http://www.w3.org/TR/2001/REC-SVG-20010904/DTD/svg10.dtd">
<svg version="1.0" xmlns="http://www.w3.org/2000/svg"
 width="248.000000pt" height="248.000000pt" viewBox="0 0 248.000000 248.000000"
 preserveAspectRatio="xMidYMid meet">
<metadata>
Created by potrace 1.10, written by Peter Selinger 2001-2011
</metadata>
<g transform="translate(0.000000,248.000000) scale(0.100000,-0.100000)"
fill="#000000" stroke="none">
<path d="M687 2277 c-12 -13 -67 -75 -122 -138 -55 -63 -155 -171 -222 -240
-68 -70 -123 -131 -123 -137 0 -24 14 -44 44 -59 17 -9 79 -47 138 -84 59 -38
116 -69 126 -69 27 0 44 24 40 57 -2 23 -20 39 -98 90 -52 34 -96 67 -98 72
-2 5 32 44 75 87 43 44 117 124 165 179 188 216 184 209 148 245 -26 26 -46
25 -73 -3z"/>
</g>
</svg>
