<?xml version="1.0" standalone="no"?>
<!DOCTYPE svg PUBLIC "-//W3C//DTD SVG 20010904//EN"
 "http://www.w3.org/TR/2001/REC-SVG-20010904/DTD/svg10.dtd">
<svg version="1.0" xmlns="http://www.w3.org/2000/svg"
 width="248.000000pt" height="248.000000pt" viewBox="0 0 248.000000 248.000000"
 preserveAspectRatio="xMidYMid meet">
<metadata>
Created by potrace 1.10, written by Peter Selinger 2001-2011
</metadata>
<g transform="translate(0.000000,248.000000) scale(0.100000,-0.100000)"
fill="#000000" stroke="none">
<path d="M687 2277 c-12 -13 -67 -75 -122 -138 -55 -63 -155 -171 -222 -240
-68 -70 -123 -134 -123 -143 0 -22 19 -37 127 -104 50 -31 102 -64 115 -74
l23 -16 -36 -39 c-20 -21 -54 -63 -76 -94 -23 -30 -77 -96 -122 -147 -44 -51
-81 -98 -81 -105 0 -22 24 -48 45 -49 25 -2 419 95 548 135 84 26 98 33 104
55 15 63 -32 74 -155 38 -123 -36 -322 -86 -322 -80 0 8 124 164 187 236 148
169 221 255 250 298 17 25 52 65 77 90 62 60 60 110 -5 110 -34 0 -89 -54
-197 -193 -44 -56 -95 -117 -115 -135 -31 -31 -37 -33 -58 -21 -48 25 -159
102 -159 110 0 4 35 43 78 86 42 43 116 123 164 178 188 216 184 209 148 245
-26 26 -46 25 -73 -3z"/>
</g>
</svg>
