<?xml version="1.0" standalone="no"?>
<!DOCTYPE svg PUBLIC "-//W3C//DTD SVG 20010904//EN"
 "http://www.w3.org/TR/2001/REC-SVG-20010904/DTD/svg10.dtd">
<svg version="1.0" xmlns="http://www.w3.org/2000/svg"
 width="248.000000pt" height="248.000000pt" viewBox="0 0 248.000000 248.000000"
 preserveAspectRatio="xMidYMid meet">
<metadata>
Created by potrace 1.10, written by Peter Selinger 2001-2011
</metadata>
<g transform="translate(0.000000,248.000000) scale(0.100000,-0.100000)"
fill="#000000" stroke="none">
<path d="M532 2268 c-6 -8 -12 -144 -15 -363 -6 -433 -15 -517 -89 -895 -46
-237 -143 -537 -219 -678 -21 -41 -39 -81 -39 -91 0 -49 68 -57 100 -11 69 96
168 373 242 673 6 26 15 47 19 47 4 0 20 -37 35 -82 15 -46 39 -110 54 -143
15 -33 31 -71 35 -85 10 -34 75 -161 93 -182 17 -21 53 -23 70 -6 21 21 13 55
-32 156 -56 125 -112 260 -121 292 -4 14 -30 74 -57 134 l-51 109 16 91 c43
242 60 473 56 767 -4 216 -6 239 -23 258 -21 23 -58 28 -74 9z"/>
<path d="M1925 2181 c-16 -5 -84 -16 -150 -25 -66 -10 -151 -24 -190 -31 -38
-7 -117 -16 -174 -19 -125 -8 -156 -19 -156 -61 0 -49 29 -56 179 -44 71 5
133 12 138 15 9 6 109 22 276 44 86 11 152 28 170 42 16 13 16 53 -1 66 -19
16 -59 21 -92 13z"/>
<path d="M912 1997 c-6 -7 -22 -46 -36 -87 -37 -113 -79 -209 -125 -284 -23
-38 -41 -78 -41 -90 0 -48 52 -62 87 -23 50 54 151 264 188 390 15 53 15 60 1
82 -18 27 -57 33 -74 12z"/>
<path d="M152 1788 c-26 -26 -5 -147 55 -308 42 -115 61 -138 100 -124 17 6
29 18 31 32 2 12 -14 72 -36 134 -22 62 -45 140 -52 173 -6 33 -18 70 -26 83
-16 24 -53 29 -72 10z"/>
<path d="M1080 1755 c-15 -18 3 -250 27 -355 20 -86 37 -112 71 -108 41 5 53
38 37 106 -7 32 -16 86 -19 122 -14 139 -29 216 -43 233 -20 21 -56 22 -73 2z"/>
</g>
</svg>
