<?xml version="1.0" standalone="no"?>
<!DOCTYPE svg PUBLIC "-//W3C//DTD SVG 20010904//EN"
 "http://www.w3.org/TR/2001/REC-SVG-20010904/DTD/svg10.dtd">
<svg version="1.0" xmlns="http://www.w3.org/2000/svg"
 width="248.000000pt" height="248.000000pt" viewBox="0 0 248.000000 248.000000"
 preserveAspectRatio="xMidYMid meet">
<metadata>
Created by potrace 1.10, written by Peter Selinger 2001-2011
</metadata>
<g transform="translate(0.000000,248.000000) scale(0.100000,-0.100000)"
fill="#000000" stroke="none">
<path d="M532 2268 c-6 -8 -12 -144 -15 -363 -6 -433 -15 -517 -89 -895 -46
-237 -143 -537 -219 -678 -21 -41 -39 -81 -39 -91 0 -49 68 -57 100 -11 69 96
168 373 242 673 6 26 15 47 19 47 4 0 20 -37 35 -82 15 -46 39 -110 54 -143
15 -33 31 -71 35 -85 10 -34 75 -161 93 -182 17 -21 53 -23 70 -6 21 21 13 55
-32 156 -56 125 -112 260 -121 292 -4 14 -30 74 -57 134 l-51 109 16 91 c43
242 60 473 56 767 -4 216 -6 239 -23 258 -21 23 -58 28 -74 9z"/>
<path d="M1925 2181 c-16 -5 -84 -16 -150 -25 -66 -10 -151 -24 -190 -31 -38
-7 -117 -16 -174 -19 -125 -8 -156 -19 -156 -61 0 -43 32 -55 127 -48 l77 6
-6 -74 c-3 -41 -8 -77 -12 -80 -3 -3 -44 -14 -91 -24 -47 -9 -111 -24 -143
-31 -32 -8 -71 -14 -86 -14 -36 0 -66 -32 -57 -62 3 -13 13 -84 20 -159 18
-172 39 -244 83 -288 l34 -34 127 7 c70 4 152 11 182 17 74 12 266 30 425 38
199 11 219 25 266 196 42 154 59 241 59 312 0 86 -13 118 -53 132 -36 13 -190
2 -359 -24 l-28 -4 0 72 0 72 76 13 c97 15 128 30 132 63 5 42 -43 65 -103 50z
m-215 -215 l0 -74 -47 -6 c-27 -4 -60 -9 -75 -12 l-28 -6 0 72 c0 51 4 72 14
76 13 5 95 20 124 23 8 1 12 -20 12 -73z m438 -208 c-5 -83 -59 -303 -82 -332
-8 -11 -41 -15 -129 -18 l-119 -3 6 29 c3 16 6 106 6 201 l0 173 83 11 c45 6
105 12 132 14 28 2 63 4 79 5 l29 2 -5 -82z m-430 -162 c-2 -107 -6 -197 -9
-201 -4 -3 -39 -9 -78 -12 l-71 -6 0 195 0 194 63 11 c34 5 70 11 80 11 17 2
18 -10 15 -192z m-268 -45 l0 -189 -72 -7 c-40 -4 -91 -5 -112 -3 -38 3 -40 5
-52 49 -6 26 -17 98 -23 160 -14 128 -17 123 69 139 30 6 80 17 110 24 30 8
61 14 68 15 9 1 12 -43 12 -188z"/>
<path d="M912 1997 c-6 -7 -22 -46 -36 -87 -37 -113 -79 -209 -125 -284 -23
-38 -41 -78 -41 -90 0 -48 52 -62 87 -23 50 54 151 264 188 390 15 53 15 60 1
82 -18 27 -57 33 -74 12z"/>
<path d="M152 1788 c-26 -26 -5 -147 55 -308 42 -115 61 -138 100 -124 17 6
29 18 31 32 2 12 -14 72 -36 134 -22 62 -45 140 -52 173 -6 33 -18 70 -26 83
-16 24 -53 29 -72 10z"/>
<path d="M1566 1188 c-12 -17 -16 -50 -16 -145 l0 -123 -47 0 c-76 0 -326 -31
-353 -44 -36 -17 -39 -60 -5 -82 26 -17 34 -17 158 -1 73 9 158 18 190 20 l57
4 0 -212 0 -211 -137 -13 c-76 -7 -217 -15 -313 -18 -190 -6 -220 -14 -220
-58 0 -42 33 -55 145 -55 92 0 163 5 450 30 55 5 233 16 395 24 449 23 495 28
511 58 14 26 2 57 -26 68 -14 5 -83 5 -167 0 -79 -5 -230 -12 -335 -16 l-193
-7 0 210 0 209 128 18 c70 10 154 23 186 27 65 10 96 30 96 64 0 51 -31 55
-207 25 -65 -11 -137 -20 -160 -20 l-43 0 0 113 c0 124 -12 157 -55 157 -13 0
-31 -10 -39 -22z"/>
</g>
</svg>
