<?xml version="1.0" standalone="no"?>
<!DOCTYPE svg PUBLIC "-//W3C//DTD SVG 20010904//EN"
 "http://www.w3.org/TR/2001/REC-SVG-20010904/DTD/svg10.dtd">
<svg version="1.0" xmlns="http://www.w3.org/2000/svg"
 width="248.000000pt" height="248.000000pt" viewBox="0 0 248.000000 248.000000"
 preserveAspectRatio="xMidYMid meet">
<metadata>
Created by potrace 1.10, written by Peter Selinger 2001-2011
</metadata>
<g transform="translate(0.000000,248.000000) scale(0.100000,-0.100000)"
fill="#000000" stroke="none">
<path d="M532 2268 c-6 -8 -12 -144 -15 -363 -6 -433 -15 -517 -89 -895 -46
-237 -143 -537 -219 -678 -21 -41 -39 -81 -39 -91 0 -49 68 -57 100 -11 69 96
168 373 242 673 6 26 15 47 19 47 4 0 20 -37 35 -82 15 -46 39 -110 54 -143
15 -33 31 -71 35 -85 10 -34 75 -161 93 -182 17 -21 53 -23 70 -6 21 21 13 55
-32 156 -56 125 -112 260 -121 292 -4 14 -30 74 -57 134 l-51 109 16 91 c43
242 60 473 56 767 -4 216 -6 239 -23 258 -21 23 -58 28 -74 9z"/>
<path d="M1925 2181 c-16 -5 -84 -16 -150 -25 -66 -10 -151 -24 -190 -31 -38
-7 -117 -16 -174 -19 -125 -8 -156 -19 -156 -61 0 -43 32 -55 127 -48 l77 6
-6 -74 c-3 -41 -8 -77 -12 -80 -3 -3 -44 -14 -91 -24 -47 -9 -111 -24 -143
-31 -32 -8 -71 -14 -86 -14 -15 0 -36 -9 -45 -19 -15 -17 -16 -27 -7 -73 6
-29 13 -91 16 -138 8 -98 31 -205 52 -238 10 -17 22 -22 41 -20 36 4 52 39 41
86 -9 36 -38 250 -39 283 0 21 13 26 125 49 50 10 102 21 118 25 l27 7 0 -203
c0 -229 6 -254 55 -254 50 0 55 24 55 266 l0 216 48 6 c26 3 62 9 80 13 l33 7
-2 -216 c-3 -235 1 -251 50 -245 47 5 55 41 59 270 l4 206 82 11 c44 5 117 13
160 16 l79 6 -6 -88 c-4 -59 -18 -129 -43 -213 -46 -155 -49 -176 -34 -195 17
-20 53 -19 73 3 41 46 116 340 117 459 0 86 -13 118 -53 132 -36 13 -190 2
-359 -24 l-28 -4 0 72 0 72 76 13 c97 15 128 30 132 63 5 42 -43 65 -103 50z
m-215 -215 l0 -74 -47 -6 c-27 -4 -60 -9 -75 -12 l-28 -6 0 72 c0 51 4 72 14
76 13 5 95 20 124 23 8 1 12 -20 12 -73z"/>
<path d="M912 1997 c-6 -7 -22 -46 -36 -87 -37 -113 -79 -209 -125 -284 -23
-38 -41 -78 -41 -90 0 -48 52 -62 87 -23 50 54 151 264 188 390 15 53 15 60 1
82 -18 27 -57 33 -74 12z"/>
<path d="M152 1788 c-26 -26 -5 -147 55 -308 42 -115 61 -138 100 -124 17 6
29 18 31 32 2 12 -14 72 -36 134 -22 62 -45 140 -52 173 -6 33 -18 70 -26 83
-16 24 -53 29 -72 10z"/>
</g>
</svg>
