<?xml version="1.0" standalone="no"?>
<!DOCTYPE svg PUBLIC "-//W3C//DTD SVG 20010904//EN"
 "http://www.w3.org/TR/2001/REC-SVG-20010904/DTD/svg10.dtd">
<svg version="1.0" xmlns="http://www.w3.org/2000/svg"
 width="248.000000pt" height="248.000000pt" viewBox="0 0 248.000000 248.000000"
 preserveAspectRatio="xMidYMid meet">
<metadata>
Created by potrace 1.10, written by Peter Selinger 2001-2011
</metadata>
<g transform="translate(0.000000,248.000000) scale(0.100000,-0.100000)"
fill="#000000" stroke="none">
<path d="M912 1997 c-6 -7 -22 -46 -36 -87 -37 -113 -79 -209 -125 -284 -23
-38 -41 -78 -41 -90 0 -48 52 -62 87 -23 50 54 151 264 188 390 15 53 15 60 1
82 -18 27 -57 33 -74 12z"/>
<path d="M152 1788 c-26 -26 -5 -147 55 -308 42 -115 61 -138 100 -124 17 6
29 18 31 32 2 12 -14 72 -36 134 -22 62 -45 140 -52 173 -6 33 -18 70 -26 83
-16 24 -53 29 -72 10z"/>
</g>
</svg>
