<?xml version="1.0" standalone="no"?>
<!DOCTYPE svg PUBLIC "-//W3C//DTD SVG 20010904//EN"
 "http://www.w3.org/TR/2001/REC-SVG-20010904/DTD/svg10.dtd">
<svg version="1.0" xmlns="http://www.w3.org/2000/svg"
 width="248.000000pt" height="248.000000pt" viewBox="0 0 248.000000 248.000000"
 preserveAspectRatio="xMidYMid meet">
<metadata>
Created by potrace 1.10, written by Peter Selinger 2001-2011
</metadata>
<g transform="translate(0.000000,248.000000) scale(0.100000,-0.100000)"
fill="#000000" stroke="none">
<path d="M599 2373 c-11 -12 -15 -78 -19 -286 -4 -226 -7 -271 -20 -278 -19
-10 -175 -38 -268 -49 -40 -4 -79 -13 -87 -20 -22 -18 -18 -57 7 -74 30 -21
73 -20 187 4 52 11 100 20 108 20 32 0 1 -178 -52 -295 -15 -33 -37 -89 -50
-125 -12 -36 -59 -141 -104 -234 -44 -92 -81 -171 -81 -175 0 -3 -25 -47 -55
-96 -30 -50 -55 -101 -55 -116 0 -31 17 -49 45 -49 47 0 96 84 280 475 26 55
57 129 70 165 13 36 33 85 44 110 l21 45 0 -52 c0 -29 -5 -130 -10 -225 -6
-95 -14 -344 -19 -553 -9 -419 -8 -430 44 -430 53 0 56 17 65 438 5 210 14
488 20 617 6 129 12 263 13 298 l2 63 40 -53 c80 -109 241 -268 270 -268 19 0
55 36 55 55 0 8 -43 58 -96 112 -53 54 -108 113 -123 133 -14 19 -52 68 -83
108 -32 40 -58 77 -58 82 0 8 54 19 225 45 116 18 145 33 145 75 0 41 -29 55
-84 41 -22 -6 -92 -18 -155 -26 -63 -9 -119 -17 -124 -18 -4 -1 -8 110 -7 252
1 214 -1 257 -15 277 -18 28 -56 32 -76 7z"/>
<path d="M1353 2328 c-6 -7 -13 -48 -17 -91 -9 -114 -101 -371 -197 -550 -23
-43 -18 -74 14 -86 42 -16 65 8 119 118 28 58 61 133 73 166 22 59 24 60 71
71 27 6 72 14 101 18 l51 6 -5 -42 c-3 -24 -12 -65 -20 -93 -25 -81 -103 -259
-121 -277 -15 -14 -187 -57 -333 -82 -21 -4 -42 -13 -49 -21 -19 -23 -8 -59
23 -73 26 -12 43 -11 149 13 66 14 122 24 125 21 3 -3 -19 -38 -49 -78 -30
-40 -74 -100 -99 -133 -49 -68 -285 -298 -360 -352 -38 -27 -49 -41 -49 -62 0
-15 5 -32 12 -39 35 -35 101 5 265 162 66 64 124 116 128 116 10 0 -4 -575
-17 -717 -10 -109 -10 -124 6 -147 19 -30 56 -34 77 -10 7 8 16 52 21 97 11
122 29 707 23 745 -6 30 -4 33 13 28 20 -7 308 19 350 30 l24 7 -7 -259 c-13
-515 -12 -579 9 -603 21 -23 58 -28 74 -8 9 10 32 729 28 857 -1 30 2 35 24
38 69 9 333 72 345 82 19 16 19 54 0 70 -20 16 -94 9 -240 -25 -164 -37 -155
-40 -155 53 0 95 -14 127 -55 127 -42 0 -55 -32 -55 -141 0 -108 16 -98 -175
-114 -71 -6 -142 -12 -157 -15 -45 -7 -36 33 26 116 30 41 74 104 96 141 l42
67 71 15 c211 44 289 60 362 72 178 30 301 57 313 67 18 14 11 67 -10 81 -17
10 -215 -20 -423 -66 -109 -24 -239 -47 -243 -43 -1 1 12 33 29 71 47 103 77
196 84 261 4 32 9 66 11 75 5 18 4 17 256 63 160 30 186 43 174 90 -4 14 -14
29 -23 32 -20 8 -184 -20 -537 -91 -71 -14 -130 -25 -132 -23 -1 1 4 31 12 67
21 95 20 166 -1 190 -20 23 -58 26 -72 8z"/>
</g>
</svg>
