<?xml version="1.0" standalone="no"?>
<!DOCTYPE svg PUBLIC "-//W3C//DTD SVG 20010904//EN"
 "http://www.w3.org/TR/2001/REC-SVG-20010904/DTD/svg10.dtd">
<svg version="1.0" xmlns="http://www.w3.org/2000/svg"
 width="248.000000pt" height="248.000000pt" viewBox="0 0 248.000000 248.000000"
 preserveAspectRatio="xMidYMid meet">
<metadata>
Created by potrace 1.10, written by Peter Selinger 2001-2011
</metadata>
<g transform="translate(0.000000,248.000000) scale(0.100000,-0.100000)"
fill="#000000" stroke="none">
<path d="M835 1813 c-38 -8 -167 -36 -285 -63 -118 -26 -246 -53 -285 -60 -97
-16 -120 -29 -120 -65 0 -23 7 -33 29 -44 34 -16 42 -14 431 75 83 19 186 42
230 50 94 18 125 35 125 69 0 21 -34 57 -50 54 -3 -1 -36 -8 -75 -16z"/>
</g>
</svg>
