<?xml version="1.0" standalone="no"?>
<!DOCTYPE svg PUBLIC "-//W3C//DTD SVG 20010904//EN"
 "http://www.w3.org/TR/2001/REC-SVG-20010904/DTD/svg10.dtd">
<svg version="1.0" xmlns="http://www.w3.org/2000/svg"
 width="248.000000pt" height="248.000000pt" viewBox="0 0 248.000000 248.000000"
 preserveAspectRatio="xMidYMid meet">
<metadata>
Created by potrace 1.10, written by Peter Selinger 2001-2011
</metadata>
<g transform="translate(0.000000,248.000000) scale(0.100000,-0.100000)"
fill="#000000" stroke="none">
<path d="M599 2373 c-11 -12 -15 -78 -19 -286 -4 -226 -7 -271 -20 -278 -19
-10 -175 -38 -268 -49 -40 -4 -79 -13 -87 -20 -22 -18 -18 -57 7 -74 30 -21
73 -20 187 4 52 11 100 20 108 20 32 0 1 -178 -52 -295 -15 -33 -37 -89 -50
-125 -12 -36 -59 -141 -104 -234 -44 -92 -81 -171 -81 -175 0 -3 -25 -47 -55
-96 -30 -50 -55 -101 -55 -116 0 -31 17 -49 45 -49 47 0 96 84 280 475 26 55
57 129 70 165 13 36 33 85 44 110 l21 45 0 -52 c0 -29 -5 -130 -10 -225 -6
-95 -14 -344 -19 -553 -9 -419 -8 -430 44 -430 53 0 56 17 65 438 5 210 14
488 20 617 6 129 12 263 13 298 l2 63 40 -53 c80 -109 241 -268 270 -268 19 0
55 36 55 55 0 8 -43 58 -96 112 -53 54 -108 113 -123 133 -14 19 -52 68 -83
108 -32 40 -58 77 -58 82 0 8 54 19 225 45 116 18 145 33 145 75 0 41 -29 55
-84 41 -22 -6 -92 -18 -155 -26 -63 -9 -119 -17 -124 -18 -4 -1 -8 110 -7 252
1 214 -1 257 -15 277 -18 28 -56 32 -76 7z"/>
</g>
</svg>
