<?xml version="1.0" standalone="no"?>
<!DOCTYPE svg PUBLIC "-//W3C//DTD SVG 20010904//EN"
 "http://www.w3.org/TR/2001/REC-SVG-20010904/DTD/svg10.dtd">
<svg version="1.0" xmlns="http://www.w3.org/2000/svg"
 width="248.000000pt" height="248.000000pt" viewBox="0 0 248.000000 248.000000"
 preserveAspectRatio="xMidYMid meet">
<metadata>
Created by potrace 1.10, written by Peter Selinger 2001-2011
</metadata>
<g transform="translate(0.000000,248.000000) scale(0.100000,-0.100000)"
fill="#000000" stroke="none">
<path d="M975 1881 c-11 -5 -47 -11 -80 -15 -68 -8 -189 -29 -320 -56 -165
-35 -255 -50 -293 -50 -56 0 -87 -20 -87 -55 0 -48 37 -62 127 -48 84 13 252
45 353 67 39 8 130 24 204 36 151 23 181 36 181 80 0 42 -37 60 -85 41z"/>
</g>
</svg>
