<?xml version="1.0" standalone="no"?>
<!DOCTYPE svg PUBLIC "-//W3C//DTD SVG 20010904//EN"
 "http://www.w3.org/TR/2001/REC-SVG-20010904/DTD/svg10.dtd">
<svg version="1.0" xmlns="http://www.w3.org/2000/svg"
 width="248.000000pt" height="248.000000pt" viewBox="0 0 248.000000 248.000000"
 preserveAspectRatio="xMidYMid meet">
<metadata>
Created by potrace 1.10, written by Peter Selinger 2001-2011
</metadata>
<g transform="translate(0.000000,248.000000) scale(0.100000,-0.100000)"
fill="#000000" stroke="none">
<path d="M541 2286 c-9 -10 -12 -88 -10 -277 l2 -263 -74 -17 c-41 -9 -117
-25 -169 -34 -122 -21 -145 -32 -145 -70 0 -23 7 -33 29 -44 31 -14 27 -15
263 37 40 8 76 12 80 9 4 -4 -3 -38 -14 -75 -12 -37 -42 -134 -68 -217 -104
-337 -125 -399 -200 -565 -89 -201 -97 -221 -91 -246 7 -25 44 -41 71 -31 14
6 64 104 80 157 4 14 22 54 40 90 40 80 132 336 177 490 l33 115 6 -595 c6
-647 7 -652 60 -658 55 -6 54 -13 51 537 -1 278 -5 625 -8 771 l-7 266 74 16
c41 10 101 22 134 28 75 15 105 33 105 65 0 14 -9 31 -22 39 -21 13 -36 12
-143 -10 -66 -13 -128 -27 -137 -30 -16 -5 -17 15 -20 239 -3 224 -5 247 -22
266 -22 24 -58 27 -75 7z"/>
</g>
</svg>
