<?xml version="1.0" standalone="no"?>
<!DOCTYPE svg PUBLIC "-//W3C//DTD SVG 20010904//EN"
 "http://www.w3.org/TR/2001/REC-SVG-20010904/DTD/svg10.dtd">
<svg version="1.0" xmlns="http://www.w3.org/2000/svg"
 width="248.000000pt" height="248.000000pt" viewBox="0 0 248.000000 248.000000"
 preserveAspectRatio="xMidYMid meet">
<metadata>
Created by potrace 1.10, written by Peter Selinger 2001-2011
</metadata>
<g transform="translate(0.000000,248.000000) scale(0.100000,-0.100000)"
fill="#000000" stroke="none">
<path d="M1410 2319 c-63 -5 -164 -12 -225 -16 l-110 -8 -17 -35 c-16 -31 -18
-72 -18 -375 0 -187 -5 -404 -10 -482 -10 -146 -5 -185 26 -197 16 -6 64 10
64 21 0 5 5 42 11 83 6 41 14 257 17 479 l7 405 26 6 c14 4 142 11 284 15
l258 7 -6 -293 c-4 -162 -10 -387 -13 -500 -7 -202 -7 -206 14 -227 27 -27 33
-27 63 -3 24 19 24 20 36 392 8 206 12 447 11 536 -4 209 6 198 -171 199 -73
1 -184 -3 -247 -7z"/>
</g>
</svg>
