<?xml version="1.0" standalone="no"?>
<!DOCTYPE svg PUBLIC "-//W3C//DTD SVG 20010904//EN"
 "http://www.w3.org/TR/2001/REC-SVG-20010904/DTD/svg10.dtd">
<svg version="1.0" xmlns="http://www.w3.org/2000/svg"
 width="248.000000pt" height="248.000000pt" viewBox="0 0 248.000000 248.000000"
 preserveAspectRatio="xMidYMid meet">
<metadata>
Created by potrace 1.10, written by Peter Selinger 2001-2011
</metadata>
<g transform="translate(0.000000,248.000000) scale(0.100000,-0.100000)"
fill="#000000" stroke="none">
<path d="M1410 2319 c-63 -5 -164 -12 -225 -16 l-110 -8 -17 -35 c-16 -31 -18
-72 -18 -375 0 -187 -5 -404 -10 -482 -10 -146 -5 -185 26 -197 28 -11 61 12
68 46 10 56 26 317 26 441 0 87 3 117 13 117 6 0 80 7 162 15 83 8 206 15 274
15 l123 0 -5 -32 c-3 -18 -9 -157 -13 -309 -6 -273 -6 -277 15 -298 26 -26 33
-26 62 -2 24 19 24 20 36 392 8 206 12 447 11 536 -4 209 6 198 -171 199 -73
1 -184 -3 -247 -7z m310 -234 l0 -135 -102 0 c-57 0 -170 -7 -253 -15 -82 -8
-165 -15 -182 -15 l-33 0 0 134 c0 97 4 137 13 143 12 8 214 18 440 21 l117 2
0 -135z"/>
</g>
</svg>
