<?xml version="1.0" standalone="no"?>
<!DOCTYPE svg PUBLIC "-//W3C//DTD SVG 20010904//EN"
 "http://www.w3.org/TR/2001/REC-SVG-20010904/DTD/svg10.dtd">
<svg version="1.0" xmlns="http://www.w3.org/2000/svg"
 width="248.000000pt" height="248.000000pt" viewBox="0 0 248.000000 248.000000"
 preserveAspectRatio="xMidYMid meet">
<metadata>
Created by potrace 1.10, written by Peter Selinger 2001-2011
</metadata>
<g transform="translate(0.000000,248.000000) scale(0.100000,-0.100000)"
fill="#000000" stroke="none">
<path d="M1410 2319 c-63 -5 -164 -12 -225 -16 l-110 -8 -17 -35 c-16 -31 -18
-72 -18 -375 0 -187 -5 -404 -10 -483 -11 -154 -7 -175 40 -217 26 -24 89 -25
458 -11 198 8 237 12 255 26 21 17 22 29 34 391 8 206 12 447 11 536 -4 209 6
198 -171 199 -73 1 -184 -3 -247 -7z m310 -234 l0 -135 -102 0 c-57 0 -170 -7
-253 -15 -82 -8 -165 -15 -182 -15 l-33 0 0 134 c0 97 4 137 13 143 12 8 214
18 440 21 l117 2 0 -135z m-4 -276 c-3 -17 -6 -60 -6 -94 l0 -62 -77 -8 c-43
-4 -127 -9 -188 -11 -115 -3 -215 -10 -265 -21 l-30 -5 0 100 0 100 63 6 c34
4 98 10 142 15 44 5 145 9 224 10 l144 1 -7 -31z m-15 -391 c-1 -68 -4 -124
-5 -125 -4 -4 -557 -25 -561 -21 -3 3 -2 56 2 119 l8 114 85 8 c47 4 117 11
155 16 39 4 126 9 195 10 l125 1 -4 -122z"/>
<path d="M580 1915 c-10 -12 -10 -43 -1 -148 6 -72 11 -279 11 -458 0 -206 4
-337 11 -357 6 -19 20 -34 37 -39 15 -5 115 -6 227 -2 110 4 246 8 302 8 l101
1 -5 -377 c-5 -411 -3 -425 48 -431 53 -6 53 0 60 415 4 211 9 386 13 390 3 3
124 9 269 12 286 6 301 10 295 60 -6 55 -8 55 -632 42 -314 -7 -581 -15 -592
-17 l-22 -6 -5 374 c-5 379 -15 497 -45 531 -19 21 -55 22 -72 2z"/>
<path d="M846 718 c-9 -12 -16 -33 -16 -46 0 -32 -87 -161 -202 -298 -53 -63
-48 -114 10 -114 37 0 109 80 225 252 72 105 89 163 62 204 -20 31 -59 31 -79
2z"/>
<path d="M1652 628 c-17 -17 -15 -53 6 -76 15 -17 109 -97 231 -196 20 -16 62
-51 93 -78 65 -56 102 -63 120 -23 15 34 -3 66 -62 114 -43 34 -243 201 -299
248 -29 25 -70 30 -89 11z"/>
</g>
</svg>
