<?xml version="1.0" standalone="no"?>
<!DOCTYPE svg PUBLIC "-//W3C//DTD SVG 20010904//EN"
 "http://www.w3.org/TR/2001/REC-SVG-20010904/DTD/svg10.dtd">
<svg version="1.0" xmlns="http://www.w3.org/2000/svg"
 width="248.000000pt" height="248.000000pt" viewBox="0 0 248.000000 248.000000"
 preserveAspectRatio="xMidYMid meet">
<metadata>
Created by potrace 1.10, written by Peter Selinger 2001-2011
</metadata>
<g transform="translate(0.000000,248.000000) scale(0.100000,-0.100000)"
fill="#000000" stroke="none">
<path d="M541 2286 c-9 -10 -12 -88 -10 -277 l2 -263 -74 -17 c-41 -9 -117
-25 -169 -34 -122 -21 -145 -32 -145 -70 0 -23 7 -33 29 -44 31 -14 27 -15
263 37 40 8 76 12 80 9 4 -4 -3 -38 -14 -75 -12 -37 -42 -134 -68 -217 -104
-337 -125 -399 -200 -565 -89 -201 -97 -221 -91 -246 7 -25 44 -41 71 -31 14
6 64 104 80 157 4 14 22 54 40 90 40 80 132 336 177 490 l33 115 6 -595 c6
-647 7 -652 60 -658 55 -6 54 -22 51 642 -2 336 -5 630 -9 654 -3 23 -3 42 0
42 3 0 24 -26 46 -58 56 -79 172 -174 208 -170 63 7 55 66 -17 123 -83 66
-240 284 -240 334 0 7 86 29 205 51 75 15 105 33 105 65 0 14 -9 31 -22 39
-21 13 -36 12 -143 -10 -66 -13 -128 -27 -137 -30 -16 -5 -17 15 -20 239 -3
224 -5 247 -22 266 -22 24 -58 27 -75 7z"/>
<path d="M1470 2243 c-5 -10 -33 -65 -63 -123 -77 -151 -308 -494 -426 -630
-69 -79 -76 -96 -56 -126 27 -42 56 -31 122 44 33 37 82 99 108 137 27 39 74
104 105 145 31 41 71 100 90 130 19 30 45 68 58 84 13 16 41 64 62 105 21 42
48 95 60 118 24 48 29 95 10 118 -17 20 -58 19 -70 -2z"/>
</g>
</svg>
