<?xml version="1.0" standalone="no"?>
<!DOCTYPE svg PUBLIC "-//W3C//DTD SVG 20010904//EN"
 "http://www.w3.org/TR/2001/REC-SVG-20010904/DTD/svg10.dtd">
<svg version="1.0" xmlns="http://www.w3.org/2000/svg"
 width="248.000000pt" height="248.000000pt" viewBox="0 0 248.000000 248.000000"
 preserveAspectRatio="xMidYMid meet">
<metadata>
Created by potrace 1.10, written by Peter Selinger 2001-2011
</metadata>
<g transform="translate(0.000000,248.000000) scale(0.100000,-0.100000)"
fill="#000000" stroke="none">
<path d="M599 2373 c-11 -12 -15 -78 -19 -286 -4 -226 -7 -271 -20 -278 -23
-12 -239 -49 -285 -49 -77 0 -114 -60 -60 -96 28 -18 99 -15 210 12 93 21 95
21 95 -28 0 -57 -32 -179 -65 -253 -15 -33 -37 -89 -50 -125 -12 -36 -59 -141
-104 -234 -44 -92 -81 -171 -81 -175 0 -3 -25 -47 -55 -96 -30 -50 -55 -101
-55 -116 0 -31 17 -49 45 -49 47 0 97 85 280 475 26 55 57 129 70 165 13 36
32 85 44 110 l21 45 0 -52 c0 -29 -5 -130 -10 -225 -6 -95 -14 -346 -19 -558
-10 -425 -9 -435 47 -428 50 6 53 27 62 441 5 210 14 488 20 617 6 129 12 264
13 299 l2 63 51 -68 c67 -89 222 -243 253 -251 18 -4 29 0 43 17 10 12 18 28
18 36 0 7 -43 57 -96 111 -53 54 -108 113 -123 133 -14 19 -52 68 -83 108 -32
40 -58 77 -58 82 0 8 67 22 223 45 115 16 147 33 147 75 0 41 -28 55 -88 41
-68 -15 -276 -45 -281 -40 -2 2 -3 116 -2 252 2 212 0 252 -14 273 -18 28 -56
32 -76 7z"/>
<path d="M1353 2328 c-6 -7 -13 -48 -17 -91 -9 -116 -99 -367 -197 -550 -32
-61 0 -111 56 -85 26 12 103 156 150 283 22 59 24 60 71 71 27 6 72 14 101 18
l51 6 -5 -42 c-3 -24 -12 -65 -20 -93 -24 -77 -103 -258 -121 -277 -15 -14
-186 -56 -333 -82 -21 -4 -42 -13 -49 -21 -18 -22 -8 -58 21 -74 23 -13 38
-11 148 13 68 15 125 25 128 22 3 -3 -19 -38 -49 -78 -30 -40 -74 -100 -99
-133 -49 -68 -285 -298 -360 -352 -38 -27 -49 -41 -49 -62 0 -15 5 -32 12 -39
35 -35 101 5 266 163 67 65 125 115 128 112 3 -3 0 -169 -6 -369 -18 -522 -18
-495 3 -515 21 -21 10 -21 417 5 173 11 392 23 485 27 212 8 241 18 227 77
-10 42 -64 45 -439 22 l-103 -7 0 64 c0 35 3 94 7 132 l6 67 41 0 c23 0 68 5
101 10 33 6 93 15 134 20 85 11 121 30 121 63 0 50 -41 58 -190 33 -47 -8
-113 -17 -147 -20 l-63 -6 0 93 0 93 103 17 c208 34 282 49 295 60 7 5 12 24
10 41 -5 49 -37 54 -181 27 -195 -37 -212 -40 -213 -38 -1 1 -3 37 -5 81 l-4
78 170 35 c182 37 215 50 215 86 0 56 -35 59 -230 17 -77 -16 -150 -30 -160
-30 -18 0 -20 7 -20 78 0 95 -14 127 -55 127 -42 0 -55 -32 -55 -141 0 -108
16 -98 -175 -114 -71 -6 -142 -12 -157 -15 -45 -7 -36 33 26 116 30 41 74 104
96 141 l42 67 71 15 c211 44 289 60 362 72 176 30 301 57 313 66 15 13 16 60
0 76 -7 7 -22 12 -35 12 -27 0 -253 -41 -413 -75 -150 -32 -218 -43 -224 -38
-3 3 7 31 21 62 46 100 81 206 88 266 12 103 -6 91 185 125 248 44 269 52 256
105 -12 49 -3 50 -561 -58 -71 -14 -130 -25 -131 -24 -1 1 4 31 12 67 21 95
20 166 -1 190 -20 23 -58 26 -72 8z m325 -1335 l-3 -77 -85 -13 c-132 -20
-280 -36 -284 -32 -2 2 -6 41 -9 87 -5 77 -4 82 13 77 19 -6 330 22 339 30 2
3 11 5 18 5 11 0 13 -17 11 -77z m-10 -275 l-3 -91 -65 -12 c-36 -7 -110 -18
-165 -24 -55 -6 -110 -14 -122 -17 -23 -6 -23 -5 -23 89 l0 96 33 5 c17 2 77
10 132 17 87 10 183 23 208 28 4 0 6 -40 5 -91z m-3 -320 c-4 -68 -8 -124 -9
-125 0 0 -80 -6 -176 -11 -96 -6 -183 -13 -192 -17 -22 -9 -23 11 -7 136 l11
87 97 11 c152 19 235 31 240 36 2 3 13 5 24 5 18 0 18 -6 12 -122z"/>
</g>
</svg>
