<?xml version="1.0" standalone="no"?>
<!DOCTYPE svg PUBLIC "-//W3C//DTD SVG 20010904//EN"
 "http://www.w3.org/TR/2001/REC-SVG-20010904/DTD/svg10.dtd">
<svg version="1.0" xmlns="http://www.w3.org/2000/svg"
 width="248.000000pt" height="248.000000pt" viewBox="0 0 248.000000 248.000000"
 preserveAspectRatio="xMidYMid meet">
<metadata>
Created by potrace 1.10, written by Peter Selinger 2001-2011
</metadata>
<g transform="translate(0.000000,248.000000) scale(0.100000,-0.100000)"
fill="#000000" stroke="none">
<path d="M599 2373 c-11 -12 -15 -78 -19 -286 -4 -226 -7 -271 -20 -278 -19
-10 -175 -38 -268 -49 -40 -4 -79 -13 -87 -20 -22 -18 -18 -57 7 -74 29 -21
69 -20 186 3 53 11 114 22 135 26 l37 6 0 -205 c0 -113 -5 -283 -10 -378 -6
-95 -14 -344 -19 -553 -9 -419 -8 -430 44 -430 54 0 56 15 66 458 5 221 13
480 19 575 5 95 10 260 10 366 l0 193 43 7 c23 4 98 16 166 27 141 22 171 35
171 79 0 41 -29 55 -84 41 -22 -6 -92 -18 -155 -26 -63 -9 -119 -17 -124 -18
-4 -1 -8 110 -7 252 1 214 -1 257 -15 277 -18 28 -56 32 -76 7z"/>
</g>
</svg>
