<?xml version="1.0" standalone="no"?>
<!DOCTYPE svg PUBLIC "-//W3C//DTD SVG 20010904//EN"
 "http://www.w3.org/TR/2001/REC-SVG-20010904/DTD/svg10.dtd">
<svg version="1.0" xmlns="http://www.w3.org/2000/svg"
 width="248.000000pt" height="248.000000pt" viewBox="0 0 248.000000 248.000000"
 preserveAspectRatio="xMidYMid meet">
<metadata>
Created by potrace 1.10, written by Peter Selinger 2001-2011
</metadata>
<g transform="translate(0.000000,248.000000) scale(0.100000,-0.100000)"
fill="#000000" stroke="none">
<path d="M1020 2363 c-14 -2 -95 -17 -180 -33 -136 -26 -318 -49 -432 -54 -21
-1 -45 -9 -55 -18 -15 -16 -15 -25 -4 -95 18 -109 25 -518 12 -703 -9 -133 -8
-158 5 -177 19 -30 59 -30 78 0 23 36 40 355 31 597 -4 113 -8 225 -9 250 l-1
45 125 12 c69 6 161 19 205 27 44 9 121 23 170 31 136 24 158 37 148 86 -4 15
-45 41 -61 38 -4 -1 -18 -4 -32 -6z"/>
</g>
</svg>
