<?xml version="1.0" standalone="no"?>
<!DOCTYPE svg PUBLIC "-//W3C//DTD SVG 20010904//EN"
 "http://www.w3.org/TR/2001/REC-SVG-20010904/DTD/svg10.dtd">
<svg version="1.0" xmlns="http://www.w3.org/2000/svg"
 width="248.000000pt" height="248.000000pt" viewBox="0 0 248.000000 248.000000"
 preserveAspectRatio="xMidYMid meet">
<metadata>
Created by potrace 1.10, written by Peter Selinger 2001-2011
</metadata>
<g transform="translate(0.000000,248.000000) scale(0.100000,-0.100000)"
fill="#000000" stroke="none">
<path d="M1675 2314 c-11 -2 -126 -11 -255 -19 -314 -20 -576 -49 -595 -65
-24 -20 -15 -63 18 -78 22 -11 50 -11 145 -2 64 6 144 15 177 20 33 5 188 17
345 26 310 18 330 23 330 73 0 20 -7 31 -25 39 -24 11 -95 14 -140 6z"/>
<path d="M1515 2044 c-261 -12 -328 -17 -575 -45 -103 -12 -173 -36 -188 -66
-6 -10 -11 -76 -11 -146 -2 -224 -65 -430 -233 -762 -61 -121 -105 -192 -230
-365 -67 -94 -81 -133 -56 -158 24 -24 56 -13 91 31 142 177 302 447 379 637
16 41 33 80 38 85 9 13 65 183 83 255 l13 55 160 2 c351 4 838 34 890 53 38
15 46 46 55 204 12 209 -1 238 -99 235 -20 -1 -163 -8 -317 -15z m308 -206
c-3 -62 -8 -116 -12 -120 -11 -12 -310 -29 -638 -35 l-323 -6 0 100 0 100 57
12 c31 6 79 11 106 11 27 0 77 5 111 11 33 5 192 16 351 23 160 7 305 14 322
15 l33 1 -7 -112z"/>
<path d="M1415 1390 c-77 -4 -214 -11 -305 -15 -91 -4 -175 -12 -187 -16 -52
-19 -56 -40 -57 -312 -1 -139 -8 -374 -15 -522 -12 -233 -12 -275 0 -300 18
-38 67 -42 85 -7 6 13 14 109 18 224 4 112 8 203 9 204 2 2 543 22 700 27 l79
2 -4 -227 c-2 -124 -6 -229 -9 -233 -4 -3 -24 1 -44 9 -65 28 -105 16 -105
-29 0 -29 22 -47 105 -84 85 -39 124 -38 143 3 19 38 40 1196 23 1239 -6 15
-22 32 -36 37 -28 11 -177 11 -400 0z m335 -229 l0 -129 -102 -6 c-57 -3 -230
-9 -385 -12 l-283 -7 0 65 c0 36 -3 92 -6 125 l-7 60 134 8 c208 12 413 21
537 23 l112 2 0 -129z m-4 -272 c-3 -17 -6 -48 -6 -69 l0 -37 -227 -6 c-126
-4 -299 -10 -387 -14 l-159 -6 5 66 c2 36 6 69 9 71 3 3 138 8 300 12 162 4
296 8 298 10 2 2 42 4 89 4 l85 0 -7 -31z"/>
</g>
</svg>
