<?xml version="1.0" standalone="no"?>
<!DOCTYPE svg PUBLIC "-//W3C//DTD SVG 20010904//EN"
 "http://www.w3.org/TR/2001/REC-SVG-20010904/DTD/svg10.dtd">
<svg version="1.0" xmlns="http://www.w3.org/2000/svg"
 width="248.000000pt" height="248.000000pt" viewBox="0 0 248.000000 248.000000"
 preserveAspectRatio="xMidYMid meet">
<metadata>
Created by potrace 1.10, written by Peter Selinger 2001-2011
</metadata>
<g transform="translate(0.000000,248.000000) scale(0.100000,-0.100000)"
fill="#000000" stroke="none">
<path d="M1434 2282 c-5 -4 -36 -45 -67 -92 -167 -252 -237 -339 -483 -599
-44 -48 -92 -101 -107 -119 -28 -35 -35 -80 -15 -100 28 -28 54 -10 183 129
72 78 158 171 191 208 60 65 272 345 309 409 11 17 22 32 25 32 3 0 14 -14 25
-30 20 -30 172 -175 246 -235 21 -16 75 -62 121 -101 136 -116 279 -224 335
-253 68 -34 113 -24 113 25 0 25 -10 34 -84 79 -30 18 -72 47 -93 64 -21 17
-91 73 -155 124 -173 139 -362 312 -421 386 -59 76 -65 81 -92 81 -11 0 -25
-4 -31 -8z"/>
<path d="M550 2189 c-36 -6 -125 -19 -197 -29 -111 -16 -139 -23 -168 -45 -43
-34 -48 -56 -42 -215 3 -69 11 -478 17 -910 9 -546 16 -793 24 -810 8 -18 19
-25 41 -25 57 0 57 -4 50 580 l-6 530 73 -78 c67 -71 76 -77 112 -77 34 0 46
7 85 48 118 122 161 335 101 491 -35 90 -60 134 -101 176 l-39 40 68 75 c109
122 135 159 135 192 0 57 -43 73 -153 57z m-79 -199 c-104 -116 -115 -155 -55
-195 44 -29 90 -92 120 -166 23 -56 26 -75 22 -155 -3 -81 -8 -100 -41 -167
-45 -90 -61 -100 -96 -55 -14 18 -52 62 -84 97 -31 35 -59 73 -62 85 -5 26
-13 176 -21 417 l-7 186 44 8 c60 10 220 33 242 34 13 1 -6 -27 -62 -89z"/>
<path d="M1530 1670 c-52 -4 -162 -11 -245 -15 -82 -4 -156 -12 -162 -18 -20
-15 -15 -52 8 -73 19 -17 36 -19 156 -17 l134 3 -3 -73 -3 -72 -70 -8 c-38 -4
-131 -15 -205 -23 -74 -8 -146 -18 -160 -22 -48 -14 -58 -77 -30 -192 5 -19
13 -70 19 -113 10 -87 26 -113 75 -122 17 -4 103 -2 191 3 88 5 162 8 165 5
12 -11 -48 -149 -116 -268 -100 -177 -258 -351 -354 -392 -48 -20 -70 -42 -70
-68 0 -117 215 4 392 222 58 71 162 244 204 340 14 32 29 52 34 47 34 -36 239
-290 270 -334 57 -82 228 -235 335 -298 54 -32 175 -82 198 -82 31 0 47 18 47
52 0 25 -9 32 -104 76 -142 68 -332 220 -393 315 -13 21 -79 105 -147 186
-120 142 -164 207 -152 219 4 3 86 10 184 15 97 5 188 14 202 21 17 8 26 20
28 41 1 17 11 66 22 110 56 229 47 287 -44 300 -40 6 -293 -9 -368 -21 l-38
-7 0 77 c0 42 1 76 3 77 1 0 67 4 145 8 126 6 146 9 158 26 18 24 18 36 0 61
-12 16 -28 19 -113 20 -54 1 -141 -2 -193 -6z m380 -348 c0 -34 -44 -225 -55
-240 -1 -1 -70 -7 -153 -12 -83 -5 -156 -11 -163 -12 -9 -2 -11 27 -10 117 1
66 5 123 9 127 15 15 372 34 372 20z m-490 -142 c0 -103 -2 -120 -17 -128 -10
-5 -86 -12 -170 -16 l-152 -7 -7 38 c-3 21 -13 69 -20 107 -11 54 -12 71 -2
77 6 4 48 12 92 18 81 10 226 27 259 29 15 2 17 -10 17 -118z"/>
</g>
</svg>
