<?xml version="1.0" standalone="no"?>
<!DOCTYPE svg PUBLIC "-//W3C//DTD SVG 20010904//EN"
 "http://www.w3.org/TR/2001/REC-SVG-20010904/DTD/svg10.dtd">
<svg version="1.0" xmlns="http://www.w3.org/2000/svg"
 width="248.000000pt" height="248.000000pt" viewBox="0 0 248.000000 248.000000"
 preserveAspectRatio="xMidYMid meet">
<metadata>
Created by potrace 1.10, written by Peter Selinger 2001-2011
</metadata>
<g transform="translate(0.000000,248.000000) scale(0.100000,-0.100000)"
fill="#000000" stroke="none">
<path d="M1020 2363 c-14 -2 -95 -17 -180 -33 -136 -26 -318 -49 -432 -54 -21
-1 -45 -9 -55 -18 -15 -16 -15 -25 -4 -95 18 -109 25 -518 12 -703 -12 -171
-5 -200 44 -200 39 0 53 34 60 150 3 58 8 124 11 147 6 47 3 46 157 58 l77 7
0 -129 c0 -142 10 -176 51 -181 46 -5 54 18 59 177 l5 146 40 3 c87 5 104 12
130 50 18 26 25 50 25 83 0 25 7 68 15 95 40 136 12 180 -105 167 l-60 -6 0
101 0 100 48 10 c26 6 69 14 96 17 83 11 109 31 98 76 -3 15 -44 41 -60 38 -4
-1 -18 -4 -32 -6z m-260 -252 l0 -99 -27 -6 c-16 -3 -62 -10 -103 -15 -41 -6
-91 -15 -110 -21 -19 -5 -37 -6 -41 -2 -4 4 -9 52 -11 107 l-3 99 134 13 c73
6 136 14 139 17 17 18 22 -4 22 -93z m179 -188 c0 -5 -8 -44 -18 -88 -20 -94
-9 -87 -201 -105 -69 -6 -151 -14 -182 -17 l-58 -6 0 71 0 71 51 15 c28 9 74
18 103 21 28 3 87 12 131 20 44 8 98 16 120 18 22 2 43 4 48 5 4 1 7 -1 6 -5z"/>
</g>
</svg>
