<?xml version="1.0" standalone="no"?>
<!DOCTYPE svg PUBLIC "-//W3C//DTD SVG 20010904//EN"
 "http://www.w3.org/TR/2001/REC-SVG-20010904/DTD/svg10.dtd">
<svg version="1.0" xmlns="http://www.w3.org/2000/svg"
 width="248.000000pt" height="248.000000pt" viewBox="0 0 248.000000 248.000000"
 preserveAspectRatio="xMidYMid meet">
<metadata>
Created by potrace 1.10, written by Peter Selinger 2001-2011
</metadata>
<g transform="translate(0.000000,248.000000) scale(0.100000,-0.100000)"
fill="#000000" stroke="none">
<path d="M1020 2363 c-14 -2 -95 -17 -180 -33 -136 -26 -318 -49 -432 -54 -21
-1 -45 -9 -55 -18 -15 -16 -15 -25 -4 -95 18 -109 25 -518 12 -703 -9 -133 -8
-158 5 -177 19 -30 59 -30 78 0 23 36 40 355 31 597 -4 113 -8 225 -9 250 l-1
45 125 11 c69 6 135 14 148 18 l22 7 0 -128 c0 -137 5 -153 47 -153 43 0 58
41 62 176 l3 122 47 11 c25 5 68 13 95 16 83 11 109 31 98 76 -3 15 -44 41
-60 38 -4 -1 -18 -4 -32 -6z"/>
</g>
</svg>
