<?xml version="1.0" standalone="no"?>
<!DOCTYPE svg PUBLIC "-//W3C//DTD SVG 20010904//EN"
 "http://www.w3.org/TR/2001/REC-SVG-20010904/DTD/svg10.dtd">
<svg version="1.0" xmlns="http://www.w3.org/2000/svg"
 width="248.000000pt" height="248.000000pt" viewBox="0 0 248.000000 248.000000"
 preserveAspectRatio="xMidYMid meet">
<metadata>
Created by potrace 1.10, written by Peter Selinger 2001-2011
</metadata>
<g transform="translate(0.000000,248.000000) scale(0.100000,-0.100000)"
fill="#000000" stroke="none">
<path d="M1385 2340 c-55 -4 -126 -13 -158 -19 -32 -6 -137 -16 -235 -22 -97
-7 -183 -17 -190 -23 -10 -7 -12 -22 -8 -47 16 -102 25 -498 18 -844 -5 -209
-6 -386 -4 -393 8 -22 45 -31 93 -21 24 4 134 15 244 24 110 8 254 20 319 26
88 7 126 7 147 -1 38 -16 67 1 73 43 13 83 26 359 31 622 3 160 9 366 15 460
9 148 8 171 -5 185 -18 18 -178 23 -340 10z m247 -104 c7 -10 1 -220 -7 -261
-4 -19 -19 -22 -192 -38 -103 -10 -259 -25 -346 -34 -90 -9 -162 -12 -167 -7
-4 5 -11 72 -15 150 l-7 141 58 7 c33 3 113 11 179 16 66 6 128 13 138 16 31
10 310 32 332 26 11 -2 23 -10 27 -16z m-14 -533 l-3 -148 -40 -3 c-22 -1
-128 -11 -236 -23 -107 -11 -247 -21 -310 -22 l-114 -2 -3 125 c-4 176 -7 170
78 170 63 0 484 36 520 44 8 2 36 4 63 5 l48 1 -3 -147z m-12 -255 c4 -7 6
-33 5 -58 -2 -25 -6 -92 -10 -150 l-6 -105 -60 -6 c-82 -9 -220 -22 -515 -48
-62 -5 -100 -4 -108 2 -10 8 -12 47 -10 161 l3 151 225 17 c177 13 401 36 462
47 4 0 10 -4 14 -11z"/>
</g>
</svg>
