<?xml version="1.0" standalone="no"?>
<!DOCTYPE svg PUBLIC "-//W3C//DTD SVG 20010904//EN"
 "http://www.w3.org/TR/2001/REC-SVG-20010904/DTD/svg10.dtd">
<svg version="1.0" xmlns="http://www.w3.org/2000/svg"
 width="248.000000pt" height="248.000000pt" viewBox="0 0 248.000000 248.000000"
 preserveAspectRatio="xMidYMid meet">
<metadata>
Created by potrace 1.10, written by Peter Selinger 2001-2011
</metadata>
<g transform="translate(0.000000,248.000000) scale(0.100000,-0.100000)"
fill="#000000" stroke="none">
<path d="M1385 2340 c-55 -4 -126 -13 -158 -19 -32 -6 -137 -16 -235 -22 -97
-7 -183 -17 -190 -23 -10 -7 -12 -22 -8 -47 16 -101 24 -499 18 -844 -5 -209
-6 -386 -4 -393 12 -36 76 -35 88 1 3 11 7 106 8 211 l1 191 225 17 c124 9
279 23 345 31 70 9 124 11 130 6 5 -5 8 -26 7 -47 -8 -109 -23 -282 -28 -314
-5 -28 -2 -40 15 -57 24 -24 40 -26 66 -7 25 18 32 101 44 561 6 204 15 451
21 550 9 157 8 181 -5 195 -18 18 -178 23 -340 10z m247 -104 c7 -10 1 -220
-7 -261 -4 -19 -19 -22 -192 -38 -103 -10 -259 -25 -346 -34 -90 -9 -162 -12
-167 -7 -4 5 -11 72 -15 150 l-7 141 58 7 c33 3 113 11 179 16 66 6 128 13
138 16 31 10 310 32 332 26 11 -2 23 -10 27 -16z m-14 -533 l-3 -148 -40 -3
c-22 -1 -128 -11 -236 -23 -107 -11 -247 -21 -310 -22 l-114 -2 -3 125 c-4
176 -7 170 78 170 63 0 484 36 520 44 8 2 36 4 63 5 l48 1 -3 -147z"/>
</g>
</svg>
