<?xml version="1.0" standalone="no"?>
<!DOCTYPE svg PUBLIC "-//W3C//DTD SVG 20010904//EN"
 "http://www.w3.org/TR/2001/REC-SVG-20010904/DTD/svg10.dtd">
<svg version="1.0" xmlns="http://www.w3.org/2000/svg"
 width="248.000000pt" height="248.000000pt" viewBox="0 0 248.000000 248.000000"
 preserveAspectRatio="xMidYMid meet">
<metadata>
Created by potrace 1.10, written by Peter Selinger 2001-2011
</metadata>
<g transform="translate(0.000000,248.000000) scale(0.100000,-0.100000)"
fill="#000000" stroke="none">
<path d="M1675 2314 c-11 -2 -126 -11 -255 -19 -314 -20 -576 -49 -595 -65
-24 -20 -15 -63 18 -78 22 -11 50 -11 145 -2 64 6 144 15 177 20 33 5 188 17
345 26 310 18 330 23 330 73 0 20 -7 31 -25 39 -24 11 -95 14 -140 6z"/>
</g>
</svg>
