<?xml version="1.0" standalone="no"?>
<!DOCTYPE svg PUBLIC "-//W3C//DTD SVG 20010904//EN"
 "http://www.w3.org/TR/2001/REC-SVG-20010904/DTD/svg10.dtd">
<svg version="1.0" xmlns="http://www.w3.org/2000/svg"
 width="248.000000pt" height="248.000000pt" viewBox="0 0 248.000000 248.000000"
 preserveAspectRatio="xMidYMid meet">
<metadata>
Created by potrace 1.10, written by Peter Selinger 2001-2011
</metadata>
<g transform="translate(0.000000,248.000000) scale(0.100000,-0.100000)"
fill="#000000" stroke="none">
<path d="M1805 2155 c-16 -6 -412 -45 -613 -60 -113 -8 -189 -18 -198 -26 -22
-18 -13 -61 16 -77 18 -9 52 -11 120 -7 104 6 449 39 575 55 109 14 115 13
115 -10 0 -10 -25 -119 -55 -241 -59 -240 -59 -259 -6 -259 37 0 58 25 71 85
6 28 28 120 50 205 22 85 42 187 46 226 6 64 5 73 -15 93 -19 19 -74 28 -106
16z"/>
</g>
</svg>
