<?xml version="1.0" standalone="no"?>
<!DOCTYPE svg PUBLIC "-//W3C//DTD SVG 20010904//EN"
 "http://www.w3.org/TR/2001/REC-SVG-20010904/DTD/svg10.dtd">
<svg version="1.0" xmlns="http://www.w3.org/2000/svg"
 width="248.000000pt" height="248.000000pt" viewBox="0 0 248.000000 248.000000"
 preserveAspectRatio="xMidYMid meet">
<metadata>
Created by potrace 1.10, written by Peter Selinger 2001-2011
</metadata>
<g transform="translate(0.000000,248.000000) scale(0.100000,-0.100000)"
fill="#000000" stroke="none">
<path d="M1385 2340 c-55 -4 -126 -13 -158 -19 -32 -6 -137 -16 -235 -22 -97
-7 -183 -17 -190 -23 -10 -7 -12 -22 -8 -47 16 -101 24 -499 18 -844 -5 -209
-6 -386 -4 -393 11 -32 74 -36 86 -5 3 8 8 184 11 391 3 208 8 387 10 400 5
20 11 22 78 22 39 0 164 9 277 20 113 11 238 23 279 27 l74 6 -7 -259 c-6
-246 -16 -409 -31 -500 -6 -35 -4 -45 14 -63 24 -24 40 -26 66 -7 25 18 32
101 44 561 6 204 15 451 21 550 9 157 8 181 -5 195 -18 18 -178 23 -340 10z
m247 -104 c7 -10 1 -220 -7 -261 -4 -19 -19 -22 -192 -38 -103 -10 -259 -25
-346 -34 -90 -9 -162 -12 -167 -7 -4 5 -11 72 -15 150 l-7 141 58 7 c33 3 113
11 179 16 66 6 128 13 138 16 31 10 310 32 332 26 11 -2 23 -10 27 -16z"/>
</g>
</svg>
