<?xml version="1.0" standalone="no"?>
<!DOCTYPE svg PUBLIC "-//W3C//DTD SVG 20010904//EN"
 "http://www.w3.org/TR/2001/REC-SVG-20010904/DTD/svg10.dtd">
<svg version="1.0" xmlns="http://www.w3.org/2000/svg"
 width="248.000000pt" height="248.000000pt" viewBox="0 0 248.000000 248.000000"
 preserveAspectRatio="xMidYMid meet">
<metadata>
Created by potrace 1.10, written by Peter Selinger 2001-2011
</metadata>
<g transform="translate(0.000000,248.000000) scale(0.100000,-0.100000)"
fill="#000000" stroke="none">
<path d="M2075 2040 c-22 -4 -107 -15 -190 -25 -82 -9 -186 -22 -230 -30 -44
-8 -132 -17 -196 -20 -136 -8 -164 -18 -164 -60 0 -47 29 -55 176 -45 69 5
163 15 210 24 46 8 111 18 144 21 33 4 93 10 133 15 40 5 91 7 115 4 55 -6
120 29 125 67 5 45 -45 65 -123 49z"/>
<path d="M880 1959 c-194 -37 -395 -71 -477 -79 -47 -5 -91 -14 -99 -21 -17
-14 -18 -53 -1 -67 20 -16 98 -24 150 -14 43 9 49 7 58 -11 20 -36 -14 -175
-93 -381 -90 -235 -124 -296 -264 -463 -108 -128 -123 -162 -85 -183 11 -5 24
-10 30 -10 19 0 88 69 167 166 42 52 79 93 81 91 7 -8 8 -15 48 -392 6 -63 49
-83 88 -41 23 25 65 33 290 56 139 14 159 24 184 96 34 98 70 222 103 356 42
171 32 187 -102 173 -35 -3 -117 -10 -183 -15 -66 -4 -164 -16 -218 -25 -54
-10 -100 -15 -103 -12 -3 2 2 20 10 38 89 199 161 449 154 535 -3 30 -2 54 1
54 21 0 379 64 398 71 13 5 28 20 35 34 9 21 8 28 -7 45 -21 24 -40 24 -165
-1z m73 -896 c-13 -67 -49 -191 -83 -288 l-17 -50 -89 -12 c-49 -6 -130 -14
-181 -18 l-91 -8 -6 44 c-5 40 -12 103 -31 281 -5 49 -4 57 12 62 38 11 212
35 308 41 55 4 102 9 104 11 2 2 23 4 46 4 l43 0 -15 -67z"/>
</g>
</svg>
