<?xml version="1.0" standalone="no"?>
<!DOCTYPE svg PUBLIC "-//W3C//DTD SVG 20010904//EN"
 "http://www.w3.org/TR/2001/REC-SVG-20010904/DTD/svg10.dtd">
<svg version="1.0" xmlns="http://www.w3.org/2000/svg"
 width="248.000000pt" height="248.000000pt" viewBox="0 0 248.000000 248.000000"
 preserveAspectRatio="xMidYMid meet">
<metadata>
Created by potrace 1.10, written by Peter Selinger 2001-2011
</metadata>
<g transform="translate(0.000000,248.000000) scale(0.100000,-0.100000)"
fill="#000000" stroke="none">
<path d="M1805 2155 c-16 -6 -412 -45 -613 -60 -113 -8 -189 -18 -198 -26 -22
-18 -13 -61 16 -77 18 -9 52 -11 120 -7 104 6 449 39 575 55 110 14 115 13
115 -10 0 -46 -33 -149 -49 -154 -9 -3 -81 -10 -161 -16 -80 -7 -206 -20 -280
-30 -210 -29 -479 -68 -540 -80 -78 -14 -100 -50 -59 -91 23 -23 25 -23 179 5
203 37 835 114 846 104 3 -4 -33 -155 -40 -167 -3 -5 -43 -12 -88 -16 -250
-21 -551 -66 -575 -86 -18 -15 -17 -54 3 -70 19 -15 82 -14 184 6 68 13 253
34 433 51 60 5 74 10 107 41 31 28 41 45 50 91 7 31 18 80 26 108 l15 51 52 6
c29 4 98 10 154 13 111 8 138 21 131 66 -6 41 -40 48 -176 36 -67 -6 -125 -9
-128 -6 -3 3 -1 23 5 44 6 22 13 71 17 110 6 64 5 73 -15 93 -19 19 -74 28
-106 16z"/>
<path d="M1715 1264 c-16 -2 -100 -11 -185 -19 -85 -9 -188 -20 -228 -25 -40
-6 -114 -10 -165 -10 -105 0 -141 -13 -145 -51 -8 -69 91 -74 483 -24 61 8
155 17 210 21 58 4 109 12 123 20 29 19 29 58 0 78 -22 16 -31 17 -93 10z"/>
</g>
</svg>
