<?xml version="1.0" standalone="no"?>
<!DOCTYPE svg PUBLIC "-//W3C//DTD SVG 20010904//EN"
 "http://www.w3.org/TR/2001/REC-SVG-20010904/DTD/svg10.dtd">
<svg version="1.0" xmlns="http://www.w3.org/2000/svg"
 width="248.000000pt" height="248.000000pt" viewBox="0 0 248.000000 248.000000"
 preserveAspectRatio="xMidYMid meet">
<metadata>
Created by potrace 1.10, written by Peter Selinger 2001-2011
</metadata>
<g transform="translate(0.000000,248.000000) scale(0.100000,-0.100000)"
fill="#000000" stroke="none">
<path d="M716 2268 c-9 -12 -16 -41 -16 -63 0 -37 -52 -238 -80 -310 -18 -48
-134 -276 -163 -322 -31 -49 -34 -75 -11 -97 34 -35 64 -15 121 79 29 48 135
256 144 283 3 10 71 17 259 27 140 8 298 19 350 25 52 5 190 15 305 20 116 6
227 13 248 16 20 4 37 4 37 1 0 -11 -139 -146 -212 -206 -43 -35 -78 -70 -78
-78 0 -30 21 -53 48 -53 40 0 75 25 202 147 125 119 196 219 185 260 -10 43
-35 47 -220 34 -93 -6 -237 -16 -320 -21 -82 -6 -208 -14 -280 -19 -206 -16
-478 -32 -481 -29 -1 2 11 53 27 113 16 61 29 124 29 140 0 40 -25 75 -55 75
-13 0 -31 -10 -39 -22z"/>
<path d="M1166 1658 c-8 -13 -17 -56 -21 -96 -4 -40 -15 -103 -25 -140 -48
-178 -78 -271 -93 -292 -9 -14 -17 -32 -17 -42 0 -28 -141 -295 -211 -398 -78
-116 -168 -212 -265 -286 -75 -56 -90 -84 -62 -112 74 -74 347 196 519 513 58
108 89 171 110 225 9 24 21 45 25 47 5 2 29 -28 54 -66 62 -96 207 -292 277
-375 205 -244 287 -305 492 -370 77 -24 86 -25 107 -11 27 17 32 56 10 74 -7
6 -60 27 -116 46 -56 19 -123 48 -149 64 -50 33 -181 164 -271 273 -68 81
-213 276 -221 298 -4 8 -37 55 -73 104 -36 49 -66 94 -66 100 0 6 11 45 24 87
24 75 49 191 61 282 5 36 2 55 -10 73 -20 31 -60 32 -79 2z"/>
</g>
</svg>
