<?xml version="1.0" standalone="no"?>
<!DOCTYPE svg PUBLIC "-//W3C//DTD SVG 20010904//EN"
 "http://www.w3.org/TR/2001/REC-SVG-20010904/DTD/svg10.dtd">
<svg version="1.0" xmlns="http://www.w3.org/2000/svg"
 width="248.000000pt" height="248.000000pt" viewBox="0 0 248.000000 248.000000"
 preserveAspectRatio="xMidYMid meet">
<metadata>
Created by potrace 1.10, written by Peter Selinger 2001-2011
</metadata>
<g transform="translate(0.000000,248.000000) scale(0.100000,-0.100000)"
fill="#000000" stroke="none">
<path d="M1389 2274 c-10 -13 -11 -34 -1 -112 15 -117 16 -378 2 -387 -16 -10
-199 -35 -257 -35 -55 0 -93 -22 -93 -55 0 -26 38 -55 73 -55 17 0 73 7 122
15 137 22 145 21 145 -17 0 -44 -49 -331 -58 -340 -4 -4 -97 -19 -207 -34
-110 -15 -210 -33 -222 -41 -31 -18 -30 -58 1 -79 23 -14 35 -14 158 5 73 11
159 23 191 27 57 6 58 6 53 -17 -45 -201 -82 -333 -112 -392 -33 -65 -126
-187 -176 -231 -28 -26 -98 -70 -157 -99 -104 -52 -106 -53 -106 -87 0 -28 5
-36 27 -44 22 -8 41 -2 114 33 96 46 195 113 234 157 44 52 132 178 155 224
31 62 71 192 105 344 16 70 31 130 33 133 19 18 538 64 716 63 96 0 130 3 148
15 31 21 30 60 -3 81 -22 15 -46 16 -191 11 -130 -6 -164 -4 -160 6 32 72 72
183 88 245 38 143 40 155 33 184 -10 49 -37 54 -187 34 -217 -28 -347 -43
-351 -39 -2 2 -1 52 1 111 6 131 -19 347 -44 374 -20 22 -56 23 -74 2z m530
-611 c-73 -262 -116 -333 -201 -333 -20 0 -90 -7 -154 -15 -64 -9 -119 -13
-122 -10 -3 2 4 64 16 137 12 73 24 155 28 181 4 27 12 50 18 53 13 4 368 51
407 53 l26 1 -18 -67z"/>
<path d="M492 2138 c-34 -34 16 -127 136 -250 59 -61 82 -78 104 -78 20 0 32
7 40 25 13 30 7 41 -88 146 -38 41 -84 96 -101 122 -34 48 -65 61 -91 35z"/>
<path d="M190 1460 c-39 -39 -33 -47 108 -146 130 -92 199 -127 223 -114 44
24 41 82 -5 100 -14 5 -82 48 -151 95 -69 47 -132 85 -140 85 -8 0 -24 -9 -35
-20z"/>
<path d="M519 738 c-17 -24 -39 -59 -49 -78 -10 -19 -42 -69 -71 -110 -30 -41
-85 -124 -123 -183 -60 -95 -67 -111 -58 -132 12 -26 44 -40 66 -28 15 8 229
324 305 451 38 64 42 76 33 97 -9 19 -19 25 -42 25 -24 0 -36 -9 -61 -42z"/>
</g>
</svg>
