<?xml version="1.0" standalone="no"?>
<!DOCTYPE svg PUBLIC "-//W3C//DTD SVG 20010904//EN"
 "http://www.w3.org/TR/2001/REC-SVG-20010904/DTD/svg10.dtd">
<svg version="1.0" xmlns="http://www.w3.org/2000/svg"
 width="248.000000pt" height="248.000000pt" viewBox="0 0 248.000000 248.000000"
 preserveAspectRatio="xMidYMid meet">
<metadata>
Created by potrace 1.10, written by Peter Selinger 2001-2011
</metadata>
<g transform="translate(0.000000,248.000000) scale(0.100000,-0.100000)"
fill="#000000" stroke="none">
<path d="M492 2138 c-34 -34 16 -127 136 -250 59 -61 82 -78 104 -78 20 0 32
7 40 25 13 30 7 41 -88 146 -38 41 -84 96 -101 122 -34 48 -65 61 -91 35z"/>
<path d="M190 1460 c-39 -39 -33 -47 108 -146 130 -92 199 -127 223 -114 44
24 41 82 -5 100 -14 5 -82 48 -151 95 -69 47 -132 85 -140 85 -8 0 -24 -9 -35
-20z"/>
<path d="M519 738 c-17 -24 -39 -59 -49 -78 -10 -19 -42 -69 -71 -110 -30 -41
-85 -124 -123 -183 -60 -95 -67 -111 -58 -132 12 -26 44 -40 66 -28 15 8 229
324 305 451 38 64 42 76 33 97 -9 19 -19 25 -42 25 -24 0 -36 -9 -61 -42z"/>
</g>
</svg>
