<?xml version="1.0" standalone="no"?>
<!DOCTYPE svg PUBLIC "-//W3C//DTD SVG 20010904//EN"
 "http://www.w3.org/TR/2001/REC-SVG-20010904/DTD/svg10.dtd">
<svg version="1.0" xmlns="http://www.w3.org/2000/svg"
 width="248.000000pt" height="248.000000pt" viewBox="0 0 248.000000 248.000000"
 preserveAspectRatio="xMidYMid meet">
<metadata>
Created by potrace 1.10, written by Peter Selinger 2001-2011
</metadata>
<g transform="translate(0.000000,248.000000) scale(0.100000,-0.100000)"
fill="#000000" stroke="none">
<path d="M938 1933 c-120 -126 -130 -136 -218 -213 -69 -61 -222 -185 -272
-221 -24 -17 -28 -56 -15 -134 3 -22 13 -150 21 -285 20 -328 36 -528 46 -567
l8 -33 -56 0 c-78 0 -222 -19 -252 -34 -18 -9 -25 -20 -25 -41 0 -47 33 -57
147 -45 51 5 140 14 198 20 119 11 255 26 380 40 257 30 846 53 1221 48 268
-3 283 -1 277 51 -5 44 -38 51 -262 58 l-206 6 0 36 c0 20 9 86 20 146 21 113
30 187 57 455 23 232 27 357 13 390 -19 46 -59 54 -249 46 -205 -8 -604 -61
-1061 -141 -41 -8 -76 -13 -77 -12 -1 2 50 47 114 102 151 131 341 327 349
361 9 35 -6 58 -39 62 -22 3 -42 -13 -119 -95z m979 -485 c-8 -193 -36 -445
-74 -694 l-27 -172 -44 -6 c-25 -3 -103 -6 -175 -6 l-130 0 7 158 c3 86 9 302
12 479 l7 322 41 6 c50 6 136 11 279 13 l109 2 -5 -102z m-542 -300 c-5 -200
-9 -413 -9 -474 l-1 -111 -139 -7 c-76 -4 -140 -6 -141 -4 -2 2 -5 209 -6 461
l-4 457 30 5 c84 14 223 32 249 34 l29 1 -8 -362z m-411 250 c10 -90 7 -856
-4 -863 -6 -3 -63 -10 -128 -16 -64 -5 -141 -13 -170 -18 -38 -6 -55 -5 -57 3
-6 20 -16 146 -36 466 -11 173 -22 336 -25 361 l-6 47 124 21 c67 12 155 28
193 35 107 21 101 23 109 -36z"/>
</g>
</svg>
