<?xml version="1.0" standalone="no"?>
<!DOCTYPE svg PUBLIC "-//W3C//DTD SVG 20010904//EN"
 "http://www.w3.org/TR/2001/REC-SVG-20010904/DTD/svg10.dtd">
<svg version="1.0" xmlns="http://www.w3.org/2000/svg"
 width="248.000000pt" height="248.000000pt" viewBox="0 0 248.000000 248.000000"
 preserveAspectRatio="xMidYMid meet">
<metadata>
Created by potrace 1.10, written by Peter Selinger 2001-2011
</metadata>
<g transform="translate(0.000000,248.000000) scale(0.100000,-0.100000)"
fill="#000000" stroke="none">
<path d="M716 2268 c-9 -12 -16 -41 -16 -63 0 -37 -52 -238 -80 -310 -18 -48
-134 -276 -163 -322 -31 -49 -34 -75 -11 -97 31 -32 63 -15 109 59 35 56 134
253 159 317 32 80 96 323 96 363 0 40 -25 75 -55 75 -13 0 -31 -10 -39 -22z"/>
</g>
</svg>
