<?xml version="1.0" standalone="no"?>
<!DOCTYPE svg PUBLIC "-//W3C//DTD SVG 20010904//EN"
 "http://www.w3.org/TR/2001/REC-SVG-20010904/DTD/svg10.dtd">
<svg version="1.0" xmlns="http://www.w3.org/2000/svg"
 width="248.000000pt" height="248.000000pt" viewBox="0 0 248.000000 248.000000"
 preserveAspectRatio="xMidYMid meet">
<metadata>
Created by potrace 1.10, written by Peter Selinger 2001-2011
</metadata>
<g transform="translate(0.000000,248.000000) scale(0.100000,-0.100000)"
fill="#000000" stroke="none">
<path d="M1610 2338 c-56 -46 -150 -118 -208 -161 -91 -69 -108 -77 -126 -68
-25 13 -177 106 -227 138 -37 25 -88 30 -107 11 -23 -23 -14 -58 19 -76 17 -9
43 -27 58 -38 14 -12 49 -33 76 -47 28 -14 61 -34 74 -44 l24 -20 -59 -36
c-62 -37 -292 -150 -332 -162 -12 -3 -30 -17 -38 -31 -15 -22 -15 -26 0 -49 9
-14 25 -25 36 -25 29 0 308 132 402 190 44 28 85 50 92 50 7 0 40 -18 74 -40
34 -21 97 -58 142 -81 71 -37 83 -41 106 -30 21 9 25 17 22 43 -3 29 -11 37
-83 76 -102 56 -155 90 -155 101 0 5 48 45 108 90 136 104 255 199 264 214 4
7 8 18 8 25 0 16 -37 52 -54 52 -7 0 -60 -37 -116 -82z"/>
<path d="M1001 1697 c-6 -8 -23 -49 -37 -93 -39 -115 -126 -314 -181 -411 -95
-168 -252 -327 -430 -438 -50 -31 -65 -63 -43 -91 21 -24 56 -16 130 28 224
134 402 354 535 663 90 207 119 311 95 340 -15 19 -54 20 -69 2z"/>
</g>
</svg>
