<?xml version="1.0" standalone="no"?>
<!DOCTYPE svg PUBLIC "-//W3C//DTD SVG 20010904//EN"
 "http://www.w3.org/TR/2001/REC-SVG-20010904/DTD/svg10.dtd">
<svg version="1.0" xmlns="http://www.w3.org/2000/svg"
 width="248.000000pt" height="248.000000pt" viewBox="0 0 248.000000 248.000000"
 preserveAspectRatio="xMidYMid meet">
<metadata>
Created by potrace 1.10, written by Peter Selinger 2001-2011
</metadata>
<g transform="translate(0.000000,248.000000) scale(0.100000,-0.100000)"
fill="#000000" stroke="none">
<path d="M830 1868 c-41 -5 -145 -20 -230 -33 -85 -13 -186 -26 -224 -29 -75
-6 -106 -24 -106 -61 0 -40 22 -48 117 -41 49 4 158 17 243 31 85 13 192 28
237 33 92 11 133 31 133 65 0 48 -23 53 -170 35z"/>
<path d="M865 1395 c-141 -31 -319 -66 -519 -105 -88 -17 -166 -35 -173 -42
-22 -18 -12 -61 19 -76 23 -11 52 -8 210 23 227 44 347 69 463 94 50 11 102
20 118 21 29 0 67 31 67 55 0 21 -36 55 -57 54 -10 0 -67 -11 -128 -24z"/>
</g>
</svg>
