<?xml version="1.0" standalone="no"?>
<!DOCTYPE svg PUBLIC "-//W3C//DTD SVG 20010904//EN"
 "http://www.w3.org/TR/2001/REC-SVG-20010904/DTD/svg10.dtd">
<svg version="1.0" xmlns="http://www.w3.org/2000/svg"
 width="248.000000pt" height="248.000000pt" viewBox="0 0 248.000000 248.000000"
 preserveAspectRatio="xMidYMid meet">
<metadata>
Created by potrace 1.10, written by Peter Selinger 2001-2011
</metadata>
<g transform="translate(0.000000,248.000000) scale(0.100000,-0.100000)"
fill="#000000" stroke="none">
<path d="M1610 2338 c-56 -46 -150 -118 -208 -161 -91 -69 -108 -77 -126 -68
-25 13 -177 106 -227 138 -37 25 -88 30 -107 11 -23 -23 -14 -58 19 -76 17 -9
43 -27 58 -38 14 -12 49 -33 76 -47 28 -14 61 -34 74 -44 l24 -20 -59 -36
c-62 -37 -292 -150 -332 -162 -12 -3 -30 -17 -38 -31 -15 -22 -15 -26 0 -49 9
-14 25 -25 36 -25 29 0 308 132 402 190 44 28 85 50 92 50 7 0 40 -18 74 -40
34 -21 97 -58 142 -81 71 -37 83 -41 106 -30 21 9 25 17 22 43 -3 29 -11 37
-83 76 -102 56 -155 90 -155 101 0 5 48 45 108 90 136 104 255 199 264 214 4
7 8 18 8 25 0 16 -37 52 -54 52 -7 0 -60 -37 -116 -82z"/>
<path d="M1002 1697 c-6 -7 -24 -51 -40 -98 -40 -113 -49 -136 -60 -143 -5 -3
-94 -17 -198 -31 -104 -15 -236 -33 -293 -41 -57 -8 -110 -19 -118 -25 -16
-14 -17 -51 -1 -67 15 -15 90 -15 178 -1 102 15 353 49 373 49 15 0 15 -6 -9
-52 -48 -96 -122 -212 -179 -280 -55 -66 -208 -194 -302 -253 -50 -31 -65 -63
-43 -91 20 -24 57 -16 128 27 91 55 192 140 266 221 34 37 64 68 68 68 12 0
18 -56 31 -281 13 -228 19 -249 62 -249 46 0 47 12 35 262 -6 128 -13 245 -16
260 -5 25 -3 27 38 32 194 22 448 48 572 57 140 11 340 9 352 -4 16 -16 -65
-441 -93 -490 -2 -4 -18 2 -34 14 -50 35 -99 11 -86 -44 10 -37 82 -87 127
-87 54 0 74 28 114 165 37 128 80 400 74 475 -5 67 -14 70 -279 70 -217 0
-371 -11 -633 -46 -110 -14 -186 -18 -186 -9 0 2 14 28 31 57 18 29 46 85 64
125 19 41 41 73 51 77 32 9 487 44 743 57 134 6 324 9 422 7 119 -4 181 -2
188 5 17 17 13 52 -9 72 -18 17 -45 17 -442 12 -292 -4 -491 -12 -643 -26
-121 -10 -222 -18 -224 -16 -1 2 6 31 18 64 29 84 36 138 21 156 -15 18 -54
20 -68 2z"/>
</g>
</svg>
