<?xml version="1.0" standalone="no"?>
<!DOCTYPE svg PUBLIC "-//W3C//DTD SVG 20010904//EN"
 "http://www.w3.org/TR/2001/REC-SVG-20010904/DTD/svg10.dtd">
<svg version="1.0" xmlns="http://www.w3.org/2000/svg"
 width="248.000000pt" height="248.000000pt" viewBox="0 0 248.000000 248.000000"
 preserveAspectRatio="xMidYMid meet">
<metadata>
Created by potrace 1.10, written by Peter Selinger 2001-2011
</metadata>
<g transform="translate(0.000000,248.000000) scale(0.100000,-0.100000)"
fill="#000000" stroke="none">
<path d="M2009 2256 c-3 -3 -68 -6 -144 -7 -130 -1 -519 -30 -610 -45 -84 -14
-97 -38 -60 -112 29 -58 31 -96 15 -378 -5 -99 -12 -226 -15 -284 -9 -164 -24
-328 -37 -406 -6 -39 -8 -78 -5 -88 9 -24 56 -39 105 -32 38 5 44 3 53 -17 14
-30 -42 -173 -116 -295 -45 -76 -66 -98 -161 -175 -60 -48 -143 -105 -184
-126 -63 -31 -76 -42 -78 -65 -12 -104 118 -59 335 116 98 79 140 130 200 239
71 130 112 238 115 301 l1 34 171 17 c218 22 255 23 288 7 54 -26 88 22 88
124 0 22 6 111 14 196 8 85 22 263 31 395 22 338 35 475 50 515 13 35 5 80
-14 80 -5 0 -16 2 -23 5 -8 3 -16 3 -19 1z m-62 -155 c-4 -20 -9 -78 -13 -129
-4 -51 -10 -95 -14 -97 -6 -4 -188 -16 -483 -32 l-117 -6 4 80 c2 44 0 104 -5
133 -5 30 -7 55 -6 57 13 12 510 41 596 34 l43 -3 -5 -37z m-31 -393 c-3 -29
-8 -93 -12 -143 -3 -49 -9 -94 -13 -98 -7 -7 -87 -11 -435 -21 l-159 -5 7 91
c3 50 6 114 6 143 l0 52 103 8 c167 13 316 21 415 23 l94 2 -6 -52z m-26 -360
c0 -21 -20 -230 -26 -265 -4 -29 -7 -32 -33 -27 -15 3 -68 1 -117 -5 -49 -7
-152 -16 -229 -21 -77 -5 -160 -12 -184 -16 -43 -7 -44 -6 -37 17 3 13 11 85
17 159 6 74 12 136 14 138 10 11 210 23 305 20 63 -3 142 -2 175 2 96 11 115
11 115 -2z"/>
<path d="M590 2205 c-8 -10 -10 -26 -5 -47 4 -18 9 -98 12 -178 l4 -146 -88
-12 c-48 -6 -115 -14 -148 -17 -65 -6 -95 -25 -95 -60 0 -40 22 -48 121 -40
51 3 114 10 142 16 75 14 71 37 37 -230 -11 -84 -21 -155 -23 -158 -2 -2 -85
-19 -183 -39 -98 -19 -184 -40 -192 -46 -21 -18 -10 -61 20 -76 24 -11 47 -9
175 17 81 16 149 28 152 26 7 -8 -20 -130 -51 -225 -51 -158 -107 -249 -230
-372 -117 -116 -132 -147 -83 -170 20 -9 29 -7 52 7 99 64 211 190 281 317 22
40 57 124 78 186 l37 114 141 -141 c107 -107 147 -141 167 -141 30 0 49 17 49
43 0 23 -247 287 -297 318 -29 18 -34 26 -31 52 3 31 6 32 88 53 47 12 126 30
175 39 50 9 100 18 112 21 46 9 53 72 12 95 -21 11 -126 -5 -273 -42 -43 -11
-81 -18 -84 -15 -3 3 2 63 11 133 9 71 20 158 23 195 l7 67 56 6 c198 21 241
35 241 79 0 45 -18 49 -157 34 l-128 -13 -6 125 c-3 69 -10 141 -14 160 -14
66 -74 103 -105 65z"/>
</g>
</svg>
