<?xml version="1.0" standalone="no"?>
<!DOCTYPE svg PUBLIC "-//W3C//DTD SVG 20010904//EN"
 "http://www.w3.org/TR/2001/REC-SVG-20010904/DTD/svg10.dtd">
<svg version="1.0" xmlns="http://www.w3.org/2000/svg"
 width="248.000000pt" height="248.000000pt" viewBox="0 0 248.000000 248.000000"
 preserveAspectRatio="xMidYMid meet">
<metadata>
Created by potrace 1.10, written by Peter Selinger 2001-2011
</metadata>
<g transform="translate(0.000000,248.000000) scale(0.100000,-0.100000)"
fill="#000000" stroke="none">
<path d="M590 2205 c-8 -10 -10 -26 -5 -47 4 -18 9 -98 12 -178 l4 -146 -88
-12 c-48 -6 -115 -14 -148 -17 -65 -6 -95 -25 -95 -60 0 -40 22 -48 121 -40
51 3 114 10 142 16 75 14 71 37 37 -230 -11 -84 -21 -155 -23 -158 -2 -2 -85
-19 -183 -39 -98 -19 -184 -40 -192 -46 -21 -18 -10 -61 20 -76 24 -11 47 -9
175 17 81 16 149 28 152 26 7 -8 -20 -130 -51 -225 -51 -158 -107 -249 -230
-372 -117 -116 -132 -147 -83 -170 20 -9 29 -7 52 7 99 64 212 191 281 317 47
86 95 221 126 362 l23 101 84 22 c46 11 125 29 174 38 50 9 100 18 112 21 46
9 53 72 12 95 -21 11 -126 -5 -273 -42 -43 -11 -81 -18 -84 -15 -3 3 2 63 11
133 9 71 20 158 23 195 l7 67 56 6 c198 21 241 35 241 79 0 45 -18 49 -157 34
l-128 -13 -6 125 c-3 69 -10 141 -14 160 -14 66 -74 103 -105 65z"/>
</g>
</svg>
