<?xml version="1.0" standalone="no"?>
<!DOCTYPE svg PUBLIC "-//W3C//DTD SVG 20010904//EN"
 "http://www.w3.org/TR/2001/REC-SVG-20010904/DTD/svg10.dtd">
<svg version="1.0" xmlns="http://www.w3.org/2000/svg"
 width="248.000000pt" height="248.000000pt" viewBox="0 0 248.000000 248.000000"
 preserveAspectRatio="xMidYMid meet">
<metadata>
Created by potrace 1.10, written by Peter Selinger 2001-2011
</metadata>
<g transform="translate(0.000000,248.000000) scale(0.100000,-0.100000)"
fill="#000000" stroke="none">
<path d="M1610 2338 c-251 -203 -435 -326 -635 -423 -82 -40 -160 -76 -173
-80 -12 -4 -30 -17 -38 -31 -15 -22 -15 -26 0 -49 9 -14 25 -25 36 -25 35 0
319 139 449 220 120 75 272 185 433 314 80 65 98 83 98 103 0 17 -36 53 -54
53 -7 0 -60 -37 -116 -82z"/>
</g>
</svg>
