<?xml version="1.0" standalone="no"?>
<!DOCTYPE svg PUBLIC "-//W3C//DTD SVG 20010904//EN"
 "http://www.w3.org/TR/2001/REC-SVG-20010904/DTD/svg10.dtd">
<svg version="1.0" xmlns="http://www.w3.org/2000/svg"
 width="248.000000pt" height="248.000000pt" viewBox="0 0 248.000000 248.000000"
 preserveAspectRatio="xMidYMid meet">
<metadata>
Created by potrace 1.10, written by Peter Selinger 2001-2011
</metadata>
<g transform="translate(0.000000,248.000000) scale(0.100000,-0.100000)"
fill="#000000" stroke="none">
<path d="M652 2038 c-16 -16 -15 -49 3 -75 16 -23 106 -89 203 -148 54 -33 65
-37 87 -27 18 9 25 19 25 41 0 32 -27 58 -135 126 -33 21 -75 51 -93 66 -34
31 -70 37 -90 17z"/>
<path d="M352 1438 c-19 -19 -14 -53 11 -75 12 -12 57 -37 100 -57 43 -20 111
-56 151 -81 40 -25 85 -45 99 -45 30 0 51 30 42 60 -8 26 -130 106 -225 149
-41 19 -84 40 -95 48 -24 16 -67 17 -83 1z"/>
</g>
</svg>
