<?xml version="1.0" standalone="no"?>
<!DOCTYPE svg PUBLIC "-//W3C//DTD SVG 20010904//EN"
 "http://www.w3.org/TR/2001/REC-SVG-20010904/DTD/svg10.dtd">
<svg version="1.0" xmlns="http://www.w3.org/2000/svg"
 width="248.000000pt" height="248.000000pt" viewBox="0 0 248.000000 248.000000"
 preserveAspectRatio="xMidYMid meet">
<metadata>
Created by potrace 1.10, written by Peter Selinger 2001-2011
</metadata>
<g transform="translate(0.000000,248.000000) scale(0.100000,-0.100000)"
fill="#000000" stroke="none">
<path d="M743 2343 c-20 -18 -253 -230 -393 -358 -116 -107 -150 -148 -150
-183 0 -34 16 -55 63 -79 36 -18 197 -163 197 -176 0 -5 -20 -32 -44 -60 -304
-356 -321 -383 -252 -416 33 -15 64 -10 261 44 55 15 110 29 123 32 l22 5 0
-493 c0 -541 1 -544 55 -544 56 0 56 0 54 565 -2 498 -1 515 17 518 11 2 68
19 128 39 l108 37 52 -55 c28 -30 64 -72 79 -92 42 -55 97 -47 97 14 0 32 -46
97 -130 184 -32 33 -65 74 -74 92 -8 17 -28 41 -42 52 -68 53 -126 -6 -73 -73
12 -15 18 -31 13 -35 -5 -5 -38 -17 -74 -29 -291 -92 -391 -122 -429 -128
l-43 -7 73 88 c41 48 101 118 134 154 34 36 104 118 156 181 53 63 106 124
118 135 13 11 39 42 59 70 20 27 49 65 64 83 44 51 34 102 -20 102 -26 0 -69
-40 -140 -130 -60 -78 -203 -244 -213 -248 -4 -2 -49 35 -100 82 -51 47 -96
86 -101 86 -31 0 55 92 205 220 16 14 87 78 158 143 105 96 129 124 129 146 0
50 -47 68 -87 34z"/>
<path d="M2056 2183 c-16 -3 -90 -15 -165 -28 -75 -12 -237 -39 -361 -60 -232
-39 -260 -49 -260 -90 0 -60 47 -58 450 16 83 15 269 46 318 53 l42 6 0 -54
c0 -77 -18 -200 -41 -276 -10 -36 -26 -105 -34 -154 -8 -49 -17 -91 -19 -94
-3 -2 -60 -10 -128 -17 -68 -8 -157 -20 -198 -28 -41 -8 -136 -21 -210 -28
-159 -16 -176 -25 -166 -92 4 -23 11 -184 16 -357 19 -682 38 -750 220 -804
79 -24 329 -32 481 -16 164 17 355 62 383 89 19 20 21 31 18 124 -3 126 -14
157 -53 157 -47 0 -62 -34 -58 -132 l4 -82 -40 -8 c-22 -4 -71 -14 -110 -23
-91 -21 -462 -32 -560 -17 -38 6 -81 20 -95 30 -54 40 -66 142 -80 652 -4 179
-10 334 -12 345 -3 18 5 21 62 28 36 4 137 19 225 32 88 13 192 27 230 30 154
13 173 28 186 147 5 46 17 108 25 138 30 106 53 236 60 336 12 173 -5 195
-130 177z"/>
<path d="M286 748 c-9 -12 -16 -39 -16 -58 0 -55 -18 -146 -46 -232 -29 -87
-33 -130 -14 -153 15 -19 54 -20 69 -2 18 23 71 207 88 308 14 82 14 99 2 125
-19 38 -60 45 -83 12z"/>
<path d="M812 748 c-22 -22 -13 -57 43 -164 67 -129 127 -219 160 -240 58 -38
110 21 66 74 -41 51 -92 133 -137 220 -25 48 -53 95 -61 104 -19 21 -54 23
-71 6z"/>
</g>
</svg>
