<?xml version="1.0" standalone="no"?>
<!DOCTYPE svg PUBLIC "-//W3C//DTD SVG 20010904//EN"
 "http://www.w3.org/TR/2001/REC-SVG-20010904/DTD/svg10.dtd">
<svg version="1.0" xmlns="http://www.w3.org/2000/svg"
 width="248.000000pt" height="248.000000pt" viewBox="0 0 248.000000 248.000000"
 preserveAspectRatio="xMidYMid meet">
<metadata>
Created by potrace 1.10, written by Peter Selinger 2001-2011
</metadata>
<g transform="translate(0.000000,248.000000) scale(0.100000,-0.100000)"
fill="#000000" stroke="none">
<path d="M698 2303 c-35 -32 -92 -85 -128 -118 -36 -34 -105 -96 -155 -140
-155 -137 -215 -205 -215 -241 0 -36 16 -56 63 -81 36 -18 197 -163 197 -176
0 -5 -20 -32 -44 -60 -304 -356 -321 -383 -252 -416 25 -12 38 -12 95 2 137
32 200 49 326 89 357 113 375 120 375 163 0 27 -18 45 -44 45 -12 0 -61 -13
-111 -29 -251 -81 -414 -131 -454 -137 l-43 -7 73 88 c41 48 101 118 134 154
34 36 104 118 156 181 53 63 106 124 118 135 13 11 39 42 59 70 20 27 49 65
64 83 44 51 34 102 -20 102 -26 0 -69 -40 -140 -130 -60 -78 -203 -244 -213
-248 -4 -2 -49 35 -100 82 -51 47 -96 86 -101 86 -31 0 55 92 205 220 16 14
87 78 158 143 105 96 129 124 129 146 0 15 -5 32 -12 39 -24 24 -57 12 -120
-45z"/>
</g>
</svg>
