<?xml version="1.0" standalone="no"?>
<!DOCTYPE svg PUBLIC "-//W3C//DTD SVG 20010904//EN"
 "http://www.w3.org/TR/2001/REC-SVG-20010904/DTD/svg10.dtd">
<svg version="1.0" xmlns="http://www.w3.org/2000/svg"
 width="248.000000pt" height="248.000000pt" viewBox="0 0 248.000000 248.000000"
 preserveAspectRatio="xMidYMid meet">
<metadata>
Created by potrace 1.10, written by Peter Selinger 2001-2011
</metadata>
<g transform="translate(0.000000,248.000000) scale(0.100000,-0.100000)"
fill="#000000" stroke="none">
<path d="M698 2303 c-35 -32 -92 -85 -128 -118 -36 -34 -105 -96 -155 -140
-155 -137 -215 -205 -215 -241 0 -36 16 -56 63 -81 36 -18 197 -163 197 -176
0 -5 -20 -32 -44 -60 -304 -356 -321 -383 -252 -416 33 -15 64 -10 261 44 55
15 110 29 123 32 l22 5 0 -493 c0 -541 1 -544 55 -544 56 0 56 0 54 565 -2
498 -1 515 17 518 11 2 68 19 128 39 l108 37 52 -55 c28 -30 64 -72 79 -92 42
-55 97 -47 97 14 0 32 -46 97 -130 184 -32 33 -65 74 -74 92 -8 17 -28 41 -42
52 -68 53 -126 -6 -73 -73 12 -15 18 -31 13 -35 -5 -5 -38 -17 -74 -29 -291
-92 -391 -122 -429 -128 l-43 -7 73 88 c41 48 101 118 134 154 34 36 104 118
156 181 53 63 106 124 118 135 13 11 39 42 59 70 20 27 49 65 64 83 44 51 34
102 -20 102 -26 0 -69 -40 -140 -130 -60 -78 -203 -244 -213 -248 -4 -2 -49
35 -100 82 -51 47 -96 86 -101 86 -31 0 55 92 205 220 16 14 87 78 158 143
105 96 129 124 129 146 0 15 -5 32 -12 39 -24 24 -57 12 -120 -45z"/>
<path d="M286 748 c-9 -12 -16 -39 -16 -58 0 -55 -18 -146 -46 -232 -29 -87
-33 -130 -14 -153 15 -19 54 -20 69 -2 18 23 71 207 88 308 14 82 14 99 2 125
-19 38 -60 45 -83 12z"/>
<path d="M812 748 c-22 -22 -13 -57 43 -164 67 -129 127 -219 160 -240 58 -38
110 21 66 74 -41 51 -92 133 -137 220 -25 48 -53 95 -61 104 -19 21 -54 23
-71 6z"/>
</g>
</svg>
