<?xml version="1.0" standalone="no"?>
<!DOCTYPE svg PUBLIC "-//W3C//DTD SVG 20010904//EN"
 "http://www.w3.org/TR/2001/REC-SVG-20010904/DTD/svg10.dtd">
<svg version="1.0" xmlns="http://www.w3.org/2000/svg"
 width="248.000000pt" height="248.000000pt" viewBox="0 0 248.000000 248.000000"
 preserveAspectRatio="xMidYMid meet">
<metadata>
Created by potrace 1.10, written by Peter Selinger 2001-2011
</metadata>
<g transform="translate(0.000000,248.000000) scale(0.100000,-0.100000)"
fill="#000000" stroke="none">
<path d="M698 2303 c-35 -32 -92 -85 -128 -118 -36 -34 -105 -96 -155 -140
-152 -135 -215 -205 -215 -240 0 -39 7 -49 56 -77 23 -13 80 -59 127 -103 48
-44 98 -83 111 -86 63 -17 103 54 49 88 -15 9 -66 52 -112 95 -46 43 -88 78
-92 78 -25 0 0 34 83 110 50 47 105 96 121 110 16 14 87 78 158 143 105 96
129 124 129 146 0 15 -5 32 -12 39 -24 24 -57 12 -120 -45z"/>
</g>
</svg>
