<?xml version="1.0" standalone="no"?>
<!DOCTYPE svg PUBLIC "-//W3C//DTD SVG 20010904//EN"
 "http://www.w3.org/TR/2001/REC-SVG-20010904/DTD/svg10.dtd">
<svg version="1.0" xmlns="http://www.w3.org/2000/svg"
 width="248.000000pt" height="248.000000pt" viewBox="0 0 248.000000 248.000000"
 preserveAspectRatio="xMidYMid meet">
<metadata>
Created by potrace 1.10, written by Peter Selinger 2001-2011
</metadata>
<g transform="translate(0.000000,248.000000) scale(0.100000,-0.100000)"
fill="#000000" stroke="none">
<path d="M1423 2397 c-78 -64 -282 -171 -491 -257 -104 -43 -128 -64 -117
-100 16 -51 39 -46 353 87 9 4 12 -26 12 -130 l0 -134 -132 -22 c-73 -12 -169
-28 -213 -36 -44 -8 -111 -19 -150 -25 -38 -5 -108 -18 -155 -29 -47 -11 -107
-23 -135 -26 -68 -10 -97 -29 -93 -63 6 -55 59 -56 303 -4 98 21 259 49 440
78 50 7 102 16 116 19 25 6 27 3 33 -41 3 -26 6 -90 6 -143 1 -231 29 -306 96
-257 17 13 19 26 17 118 -1 57 -5 158 -9 225 l-6 122 24 5 c12 2 59 9 103 16
44 6 150 23 235 36 269 42 283 45 359 54 79 11 111 29 111 65 0 57 -30 58
-320 9 -248 -41 -509 -78 -515 -73 -2 2 -5 69 -6 149 l-2 145 84 51 c46 28 99
65 117 82 71 67 10 141 -65 79z"/>
</g>
</svg>
