<?xml version="1.0" standalone="no"?>
<!DOCTYPE svg PUBLIC "-//W3C//DTD SVG 20010904//EN"
 "http://www.w3.org/TR/2001/REC-SVG-20010904/DTD/svg10.dtd">
<svg version="1.0" xmlns="http://www.w3.org/2000/svg"
 width="248.000000pt" height="248.000000pt" viewBox="0 0 248.000000 248.000000"
 preserveAspectRatio="xMidYMid meet">
<metadata>
Created by potrace 1.10, written by Peter Selinger 2001-2011
</metadata>
<g transform="translate(0.000000,248.000000) scale(0.100000,-0.100000)"
fill="#000000" stroke="none">
<path d="M1479 2364 c-10 -12 -15 -62 -19 -178 l-5 -161 -85 -12 c-129 -19
-304 -43 -316 -43 -9 0 -13 50 -15 169 -4 149 -6 171 -23 190 -22 24 -58 28
-75 8 -6 -9 -12 -82 -13 -198 l-3 -184 -85 -11 c-47 -7 -110 -13 -140 -13 -33
-1 -65 -7 -78 -17 -47 -33 -13 -94 53 -94 16 0 78 7 138 16 60 9 110 14 111
12 2 -1 6 -67 9 -144 l5 -142 -101 -12 c-107 -12 -368 -45 -475 -60 -34 -4
-70 -14 -78 -21 -24 -20 -13 -62 20 -78 26 -12 46 -11 165 8 75 12 181 26 236
31 98 9 227 24 455 54 63 8 169 20 235 26 66 6 163 18 215 26 52 8 124 14 160
14 36 0 84 5 108 10 24 6 93 14 153 19 120 10 159 26 159 64 0 13 -5 28 -12
35 -16 16 -144 15 -243 -3 -44 -8 -105 -15 -135 -15 -30 0 -102 -7 -159 -15
-57 -8 -106 -13 -108 -11 -4 4 18 289 23 294 6 8 93 23 211 37 129 15 163 29
163 65 0 26 -33 50 -68 50 -35 0 -247 -28 -274 -36 -17 -5 -18 6 -18 143 0
118 -3 153 -16 171 -18 26 -56 29 -75 6z m-44 -561 c-5 -65 -9 -133 -9 -150 1
-38 15 -34 -210 -58 -82 -9 -154 -17 -160 -18 -8 -1 -12 42 -14 139 -3 164
-18 146 136 164 50 5 113 15 139 20 27 5 64 11 83 13 19 2 37 5 39 5 2 1 0
-51 -4 -115z"/>
<path d="M1730 1400 c-177 -16 -336 -38 -650 -89 -36 -6 -105 -15 -155 -21
-196 -24 -218 -28 -237 -48 -19 -18 -19 -25 -9 -123 31 -287 65 -507 80 -522
13 -13 60 -12 73 1 14 14 14 75 -1 167 -24 152 -51 385 -45 396 2 3 43 11 91
18 234 32 385 54 453 66 41 7 91 16 110 19 46 8 366 36 408 36 l32 0 0 -77 c0
-83 -17 -183 -56 -328 -46 -173 -43 -235 11 -235 33 0 52 28 64 97 7 34 18 84
27 112 25 85 64 303 64 359 0 70 -17 137 -41 158 -24 21 -89 25 -219 14z"/>
</g>
</svg>
