<?xml version="1.0" standalone="no"?>
<!DOCTYPE svg PUBLIC "-//W3C//DTD SVG 20010904//EN"
 "http://www.w3.org/TR/2001/REC-SVG-20010904/DTD/svg10.dtd">
<svg version="1.0" xmlns="http://www.w3.org/2000/svg"
 width="248.000000pt" height="248.000000pt" viewBox="0 0 248.000000 248.000000"
 preserveAspectRatio="xMidYMid meet">
<metadata>
Created by potrace 1.10, written by Peter Selinger 2001-2011
</metadata>
<g transform="translate(0.000000,248.000000) scale(0.100000,-0.100000)"
fill="#000000" stroke="none">
<path d="M1479 2364 c-10 -12 -15 -62 -19 -178 l-5 -161 -85 -12 c-129 -19
-304 -43 -316 -43 -9 0 -13 50 -15 169 -4 149 -6 171 -23 190 -22 24 -58 28
-75 8 -6 -9 -12 -82 -13 -198 l-3 -184 -85 -11 c-47 -7 -110 -13 -140 -13 -33
-1 -65 -7 -78 -17 -47 -33 -13 -94 53 -94 16 0 78 7 138 16 60 9 110 14 111
12 2 -1 6 -67 9 -144 l5 -142 -101 -12 c-107 -12 -368 -45 -475 -60 -34 -4
-70 -14 -78 -21 -24 -20 -13 -62 20 -78 26 -12 46 -11 165 8 75 12 181 26 236
31 121 11 337 37 420 50 33 6 66 10 73 10 8 0 12 -22 12 -78 l0 -79 -97 -16
c-54 -9 -138 -21 -188 -27 -263 -32 -260 -31 -251 -130 12 -127 55 -442 72
-533 6 -31 38 -49 69 -37 37 14 38 58 5 237 l-7 41 81 7 c45 3 104 10 131 15
28 5 80 11 118 15 l67 6 0 -93 c0 -108 14 -141 58 -136 39 4 52 40 52 145 0
109 -25 95 210 118 91 9 197 20 235 24 39 5 72 7 75 4 2 -2 -6 -43 -18 -91
-43 -167 -40 -222 13 -222 30 0 52 27 60 75 4 22 17 81 30 130 64 245 79 417
44 490 -25 52 -52 58 -212 45 -138 -10 -349 -35 -408 -47 l-29 -5 0 76 c0 87
-8 80 120 91 41 4 118 13 170 21 52 7 124 14 160 14 36 0 84 5 108 10 24 6 93
14 153 19 120 10 159 26 159 64 0 13 -5 28 -12 35 -16 16 -144 15 -243 -3 -44
-8 -105 -15 -135 -15 -30 0 -102 -7 -159 -15 -57 -8 -106 -13 -108 -11 -4 4
18 289 23 294 6 8 93 23 211 37 129 15 163 29 163 65 0 26 -33 50 -68 50 -35
0 -247 -28 -274 -36 -17 -5 -18 6 -18 143 0 118 -3 153 -16 171 -18 26 -56 29
-75 6z m-44 -561 c-5 -65 -9 -133 -9 -150 1 -38 15 -34 -210 -58 -82 -9 -154
-17 -160 -18 -8 -1 -12 42 -14 139 -3 164 -18 146 136 164 50 5 113 15 139 20
27 5 64 11 83 13 19 2 37 5 39 5 2 1 0 -51 -4 -115z m445 -587 c0 -128 -3
-133 -97 -141 -43 -3 -158 -15 -256 -26 -97 -10 -184 -19 -192 -19 -12 0 -15
19 -15 105 l0 104 38 10 c57 15 357 47 470 50 l52 1 0 -84z m-672 -93 l-3
-108 -70 -6 c-38 -4 -110 -12 -160 -18 -49 -6 -109 -11 -132 -11 -40 0 -41 1
-47 38 -3 20 -7 62 -8 92 l-3 55 85 12 c78 11 314 48 333 52 4 0 6 -47 5 -106z"/>
</g>
</svg>
