<?xml version="1.0" standalone="no"?>
<!DOCTYPE svg PUBLIC "-//W3C//DTD SVG 20010904//EN"
 "http://www.w3.org/TR/2001/REC-SVG-20010904/DTD/svg10.dtd">
<svg version="1.0" xmlns="http://www.w3.org/2000/svg"
 width="248.000000pt" height="248.000000pt" viewBox="0 0 248.000000 248.000000"
 preserveAspectRatio="xMidYMid meet">
<metadata>
Created by potrace 1.10, written by Peter Selinger 2001-2011
</metadata>
<g transform="translate(0.000000,248.000000) scale(0.100000,-0.100000)"
fill="#000000" stroke="none">
<path d="M1479 2364 c-10 -12 -15 -62 -19 -178 l-5 -161 -85 -12 c-129 -19
-304 -43 -316 -43 -9 0 -13 50 -15 169 -4 149 -6 171 -23 190 -22 24 -58 28
-75 8 -6 -9 -12 -82 -13 -198 l-3 -184 -85 -11 c-47 -7 -110 -13 -140 -13 -33
-1 -65 -7 -78 -17 -47 -33 -13 -94 53 -94 16 0 78 7 138 16 60 9 110 14 111
12 2 -1 6 -67 9 -144 l5 -142 -101 -12 c-107 -12 -368 -45 -475 -60 -34 -4
-70 -14 -78 -21 -24 -20 -13 -62 20 -78 26 -12 46 -11 165 8 75 12 181 26 236
31 121 11 337 37 420 50 33 6 66 10 73 10 8 0 12 -22 12 -78 l0 -79 -97 -16
c-54 -9 -138 -21 -188 -27 -263 -32 -260 -31 -251 -130 12 -127 55 -442 72
-533 11 -54 16 -54 579 -11 110 8 270 18 355 22 88 5 165 13 177 20 13 7 26
28 31 50 5 20 21 87 35 147 86 351 87 504 4 543 -23 11 -54 12 -170 2 -138
-10 -349 -35 -408 -47 l-29 -5 0 76 c0 87 -8 80 120 91 41 4 118 13 170 21 52
7 124 14 160 14 36 0 84 5 108 10 24 6 93 14 153 19 120 10 159 26 159 64 0
13 -5 28 -12 35 -16 16 -144 15 -243 -3 -44 -8 -105 -15 -135 -15 -30 0 -102
-7 -159 -15 -57 -8 -106 -13 -108 -11 -4 4 18 289 23 294 6 8 93 23 211 37
129 15 163 29 163 65 0 26 -33 50 -68 50 -35 0 -247 -28 -274 -36 -17 -5 -18
6 -18 143 0 118 -3 153 -16 171 -18 26 -56 29 -75 6z m-44 -561 c-5 -65 -9
-133 -9 -150 1 -38 15 -34 -210 -58 -82 -9 -154 -17 -160 -18 -8 -1 -12 42
-14 139 -3 164 -18 146 136 164 50 5 113 15 139 20 27 5 64 11 83 13 19 2 37
5 39 5 2 1 0 -51 -4 -115z m445 -587 c0 -128 -3 -133 -97 -141 -43 -3 -158
-15 -256 -26 -97 -10 -184 -19 -192 -19 -12 0 -15 19 -15 105 l0 104 38 10
c57 15 357 47 470 50 l52 1 0 -84z m-672 -93 l-3 -108 -70 -6 c-38 -4 -110
-12 -160 -18 -49 -6 -109 -11 -132 -11 -40 0 -41 1 -47 38 -3 20 -7 62 -8 92
l-3 55 85 12 c78 11 314 48 333 52 4 0 6 -47 5 -106z m632 -155 c0 -10 -26
-127 -46 -205 -2 -9 -29 -13 -89 -13 -48 0 -116 -4 -153 -9 -37 -6 -104 -12
-149 -16 l-83 -5 0 100 c0 117 -26 102 210 125 141 14 276 29 303 34 4 0 7 -5
7 -11z m-630 -152 c0 -79 -3 -95 -17 -100 -14 -6 -265 -25 -335 -26 -13 0 -18
12 -23 48 -3 26 -10 66 -14 90 -8 39 -7 42 13 42 19 0 80 7 266 29 122 15 110
24 110 -83z"/>
<path d="M949 563 c-8 -10 -25 -40 -39 -67 -35 -69 -108 -146 -216 -227 -65
-47 -96 -77 -100 -95 -16 -62 43 -83 98 -37 18 16 58 47 88 68 162 116 290
311 238 363 -17 17 -53 15 -69 -5z"/>
<path d="M1612 568 c-31 -31 2 -94 138 -262 30 -37 63 -80 72 -94 41 -61 151
-172 172 -172 61 0 62 63 3 128 -52 57 -143 169 -214 266 -91 123 -113 146
-137 146 -12 0 -27 -5 -34 -12z"/>
</g>
</svg>
