<?xml version="1.0" standalone="no"?>
<!DOCTYPE svg PUBLIC "-//W3C//DTD SVG 20010904//EN"
 "http://www.w3.org/TR/2001/REC-SVG-20010904/DTD/svg10.dtd">
<svg version="1.0" xmlns="http://www.w3.org/2000/svg"
 width="248.000000pt" height="248.000000pt" viewBox="0 0 248.000000 248.000000"
 preserveAspectRatio="xMidYMid meet">
<metadata>
Created by potrace 1.10, written by Peter Selinger 2001-2011
</metadata>
<g transform="translate(0.000000,248.000000) scale(0.100000,-0.100000)"
fill="#000000" stroke="none">
<path d="M1715 2064 c-49 -7 -166 -25 -260 -39 -93 -14 -242 -34 -330 -45 -88
-11 -212 -27 -276 -35 -63 -8 -135 -15 -160 -15 -24 0 -55 -7 -67 -16 -46 -32
-13 -94 51 -94 16 0 95 9 176 19 80 11 191 25 246 31 55 6 141 17 190 25 50 8
144 22 210 31 66 9 122 18 125 19 3 2 66 11 140 19 93 11 139 21 152 32 42 39
7 85 -63 83 -24 -1 -84 -7 -134 -15z"/>
</g>
</svg>
