<?xml version="1.0" standalone="no"?>
<!DOCTYPE svg PUBLIC "-//W3C//DTD SVG 20010904//EN"
 "http://www.w3.org/TR/2001/REC-SVG-20010904/DTD/svg10.dtd">
<svg version="1.0" xmlns="http://www.w3.org/2000/svg"
 width="248.000000pt" height="248.000000pt" viewBox="0 0 248.000000 248.000000"
 preserveAspectRatio="xMidYMid meet">
<metadata>
Created by potrace 1.10, written by Peter Selinger 2001-2011
</metadata>
<g transform="translate(0.000000,248.000000) scale(0.100000,-0.100000)"
fill="#000000" stroke="none">
<path d="M872 2342 c-7 -5 -37 -58 -67 -118 -30 -60 -80 -143 -112 -184 -56
-72 -178 -201 -236 -248 -49 -40 -23 -103 36 -88 32 8 149 111 207 182 l41 51
157 7 c86 4 225 16 307 27 83 11 213 26 290 34 77 9 167 20 200 25 33 5 85 10
115 10 34 0 64 6 78 16 29 20 29 59 -2 79 -25 17 -71 16 -216 -6 -36 -5 -128
-16 -205 -24 -77 -8 -158 -18 -180 -21 -22 -3 -74 -9 -115 -15 -41 -5 -134
-13 -207 -16 l-132 -6 60 117 c32 64 59 123 59 131 0 18 -35 55 -52 55 -7 0
-19 -4 -26 -8z"/>
<path d="M1450 1779 c-252 -38 -443 -61 -578 -68 -97 -5 -116 -9 -128 -25 -19
-27 -18 -42 6 -66 25 -25 94 -26 242 -6 57 8 159 22 228 31 69 8 175 22 235
31 61 8 139 18 175 21 36 3 75 12 88 19 48 31 12 95 -53 93 -16 -1 -113 -14
-215 -30z"/>
<path d="M1700 1484 c-74 -7 -166 -17 -205 -23 -38 -6 -144 -17 -235 -26 -256
-24 -557 -61 -657 -81 -27 -5 -46 -38 -38 -64 12 -37 38 -42 142 -25 118 19
294 42 388 50 120 10 253 25 437 47 98 12 180 19 183 16 3 -3 -8 -34 -25 -69
-50 -106 -64 -191 -57 -353 3 -78 13 -170 22 -206 42 -178 145 -368 263 -487
103 -103 282 -186 337 -155 36 20 73 183 77 339 2 99 -7 123 -47 123 -39 0
-48 -25 -56 -148 -8 -116 -24 -198 -40 -208 -18 -11 -136 63 -195 121 -115
113 -198 269 -238 442 -21 93 -22 347 -2 414 8 25 30 77 50 116 28 57 43 75
73 89 28 14 39 26 41 46 4 30 -29 59 -63 57 -11 -1 -81 -8 -155 -15z"/>
<path d="M1117 1108 c-15 -12 -81 -135 -140 -263 -15 -33 -36 -71 -46 -84
l-18 -23 -83 62 c-46 34 -101 70 -121 81 -64 32 -109 21 -109 -26 0 -25 17
-41 75 -74 65 -37 175 -124 175 -138 0 -8 -39 -55 -87 -105 -89 -91 -222 -198
-323 -259 -75 -44 -90 -58 -90 -84 0 -58 54 -59 147 -1 157 97 337 250 410
348 l34 48 37 -20 c20 -10 64 -37 97 -59 68 -46 84 -49 110 -21 32 35 13 63
-85 126 -49 32 -90 63 -90 69 0 6 10 26 23 45 13 19 36 64 51 100 16 36 48
102 72 147 24 44 44 86 44 92 0 15 -37 51 -53 51 -7 0 -21 -6 -30 -12z"/>
</g>
</svg>
