<?xml version="1.0" standalone="no"?>
<!DOCTYPE svg PUBLIC "-//W3C//DTD SVG 20010904//EN"
 "http://www.w3.org/TR/2001/REC-SVG-20010904/DTD/svg10.dtd">
<svg version="1.0" xmlns="http://www.w3.org/2000/svg"
 width="248.000000pt" height="248.000000pt" viewBox="0 0 248.000000 248.000000"
 preserveAspectRatio="xMidYMid meet">
<metadata>
Created by potrace 1.10, written by Peter Selinger 2001-2011
</metadata>
<g transform="translate(0.000000,248.000000) scale(0.100000,-0.100000)"
fill="#000000" stroke="none">
<path d="M2056 2313 c-4 -5 -134 -11 -289 -15 -414 -10 -676 -25 -693 -39 -8
-6 -14 -22 -14 -34 0 -47 9 -48 317 -34 159 7 367 13 463 14 l175 0 -3 -80
c-2 -43 -7 -84 -13 -91 -5 -6 -52 -14 -112 -17 -110 -6 -406 -34 -447 -42 -14
-3 -96 -9 -182 -14 -171 -8 -208 -20 -208 -65 0 -38 23 -50 83 -42 28 4 120
11 202 16 151 8 389 31 543 51 45 6 88 9 95 6 11 -4 11 -21 0 -93 -17 -121
-22 -141 -38 -154 -9 -7 -87 -15 -197 -21 -101 -5 -255 -16 -342 -24 -88 -8
-190 -15 -226 -15 -85 0 -105 -14 -101 -72 2 -36 31 -38 262 -17 123 11 325
26 448 33 164 10 227 17 237 28 8 8 21 41 29 74 18 76 60 356 75 504 12 113
12 114 -10 132 -24 19 -42 23 -54 11z"/>
<path d="M650 2215 c-10 -11 -11 -41 -6 -113 11 -166 -28 -937 -59 -1147 -20
-138 -83 -324 -165 -491 -39 -78 -70 -148 -70 -156 0 -19 32 -48 52 -48 21 0
38 23 90 120 95 177 168 389 193 560 23 164 45 534 52 902 6 305 5 339 -11
362 -19 29 -56 35 -76 11z"/>
<path d="M192 2017 c-7 -8 -15 -162 -22 -427 -5 -228 -13 -430 -16 -448 -8
-42 17 -82 51 -82 45 0 52 29 53 225 1 99 7 296 14 437 10 236 10 259 -6 282
-18 28 -56 35 -74 13z"/>
<path d="M1785 1439 c-193 -8 -514 -36 -775 -69 -179 -23 -181 -24 -173 -140
3 -44 0 -113 -6 -156 -12 -68 -11 -77 5 -95 9 -10 27 -19 39 -19 42 0 50 25
53 159 2 69 7 130 11 134 15 16 462 64 481 52 6 -4 10 -56 10 -120 l0 -114
-32 -5 c-18 -3 -94 -13 -168 -22 -74 -9 -154 -18 -178 -21 -61 -8 -72 -29 -62
-118 5 -38 13 -155 20 -260 6 -104 15 -197 19 -205 11 -20 48 -25 68 -8 14 11
15 36 9 203 -4 104 -8 212 -9 240 l-2 49 45 8 c83 14 285 35 293 31 4 -2 7
-203 7 -447 0 -465 0 -466 45 -466 45 0 45 1 45 461 0 241 3 444 6 453 4 11
20 16 53 16 25 0 75 4 111 9 36 5 105 13 154 17 l89 7 -7 -96 c-10 -154 -55
-377 -75 -377 -4 0 -34 22 -68 50 -62 50 -98 61 -121 38 -24 -24 -13 -56 36
-98 132 -117 199 -131 242 -49 17 30 48 138 60 207 19 105 20 122 27 258 8
166 12 161 -154 157 -65 -2 -151 -8 -191 -13 -40 -6 -93 -10 -116 -10 l-43 0
-7 61 c-11 113 -8 167 12 178 15 8 126 15 579 35 50 2 94 2 97 -1 6 -7 -81
-117 -133 -168 -41 -39 -51 -71 -29 -93 20 -20 53 -13 96 21 46 37 222 254
222 275 0 7 -11 24 -25 37 -24 25 -26 25 -197 23 -95 0 -258 -5 -363 -9z"/>
</g>
</svg>
