<?xml version="1.0" standalone="no"?>
<!DOCTYPE svg PUBLIC "-//W3C//DTD SVG 20010904//EN"
 "http://www.w3.org/TR/2001/REC-SVG-20010904/DTD/svg10.dtd">
<svg version="1.0" xmlns="http://www.w3.org/2000/svg"
 width="248.000000pt" height="248.000000pt" viewBox="0 0 248.000000 248.000000"
 preserveAspectRatio="xMidYMid meet">
<metadata>
Created by potrace 1.10, written by Peter Selinger 2001-2011
</metadata>
<g transform="translate(0.000000,248.000000) scale(0.100000,-0.100000)"
fill="#000000" stroke="none">
<path d="M562 2258 c-29 -29 -12 -56 104 -167 102 -99 120 -112 147 -109 38 4
55 28 42 62 -6 14 -59 70 -120 126 -111 101 -144 117 -173 88z"/>
<path d="M940 1816 c-71 -16 -251 -51 -365 -72 -124 -22 -377 -84 -392 -96
-18 -15 -16 -53 3 -69 23 -19 73 -14 204 19 63 16 160 37 215 47 55 9 156 28
225 42 69 14 151 30 183 34 32 5 67 13 77 19 25 13 34 44 20 70 -9 16 -20 20
-63 19 -29 0 -77 -6 -107 -13z"/>
<path d="M860 1478 c-66 -14 -337 -77 -390 -90 -25 -6 -55 -17 -67 -25 -29
-17 -30 -57 -3 -76 23 -16 33 -15 215 28 61 15 162 37 224 51 125 27 141 35
141 69 0 43 -46 59 -120 43z"/>
<path d="M760 1155 c-128 -30 -209 -47 -263 -55 -32 -5 -65 -14 -73 -21 -24
-20 -13 -62 20 -78 25 -12 41 -11 115 3 82 16 225 48 303 67 46 12 65 41 49
75 -9 20 -18 24 -53 23 -24 -1 -68 -7 -98 -14z"/>
<path d="M755 886 c-160 -22 -367 -73 -404 -100 -11 -9 -13 -39 -7 -166 6
-143 43 -411 60 -438 9 -16 59 -15 74 0 16 16 15 80 -3 175 -8 43 -18 141 -22
219 l-6 141 24 6 c13 2 74 16 134 30 61 14 149 28 198 32 l87 7 0 -125 c0 -74
-8 -180 -20 -259 -26 -174 -26 -214 0 -228 26 -14 57 -5 70 20 9 18 29 146 51
330 6 47 9 140 7 207 -2 99 -6 126 -20 139 -23 23 -98 26 -223 10z"/>
</g>
</svg>
