<?xml version="1.0" standalone="no"?>
<!DOCTYPE svg PUBLIC "-//W3C//DTD SVG 20010904//EN"
 "http://www.w3.org/TR/2001/REC-SVG-20010904/DTD/svg10.dtd">
<svg version="1.0" xmlns="http://www.w3.org/2000/svg"
 width="248.000000pt" height="248.000000pt" viewBox="0 0 248.000000 248.000000"
 preserveAspectRatio="xMidYMid meet">
<metadata>
Created by potrace 1.10, written by Peter Selinger 2001-2011
</metadata>
<g transform="translate(0.000000,248.000000) scale(0.100000,-0.100000)"
fill="#000000" stroke="none">
<path d="M562 2258 c-29 -29 -12 -56 104 -167 102 -99 120 -112 147 -109 38 4
55 28 42 62 -6 14 -59 70 -120 126 -111 101 -144 117 -173 88z"/>
<path d="M1941 2009 c-40 -5 -167 -24 -281 -44 -115 -19 -224 -35 -242 -35
-74 0 -105 -67 -46 -99 24 -14 44 -12 225 19 252 43 365 59 431 59 l52 1 -4
-37 c-3 -21 -8 -69 -11 -108 -5 -66 -56 -300 -68 -311 -3 -3 -90 -12 -194 -20
-103 -8 -215 -19 -248 -24 -33 -6 -82 -10 -110 -10 -69 0 -100 -18 -100 -55 0
-52 60 -67 181 -44 32 6 167 19 299 28 l240 16 18 36 c52 107 119 521 95 589
-16 49 -73 58 -237 39z"/>
<path d="M940 1816 c-71 -16 -251 -51 -365 -72 -124 -22 -377 -84 -392 -96
-18 -15 -16 -53 3 -69 23 -19 73 -14 204 19 63 16 160 37 215 47 55 9 156 28
225 42 69 14 151 30 183 34 32 5 67 13 77 19 25 13 34 44 20 70 -9 16 -20 20
-63 19 -29 0 -77 -6 -107 -13z"/>
<path d="M860 1478 c-66 -14 -337 -77 -390 -90 -25 -6 -55 -17 -67 -25 -29
-17 -30 -57 -3 -76 23 -16 33 -15 215 28 61 15 162 37 224 51 125 27 141 35
141 69 0 43 -46 59 -120 43z"/>
<path d="M760 1155 c-128 -30 -209 -47 -263 -55 -32 -5 -65 -14 -73 -21 -24
-20 -13 -62 20 -78 25 -12 41 -11 115 3 82 16 225 48 303 67 46 12 65 41 49
75 -9 20 -18 24 -53 23 -24 -1 -68 -7 -98 -14z"/>
<path d="M755 886 c-160 -22 -367 -73 -404 -100 -11 -9 -13 -39 -7 -166 6
-152 45 -424 62 -439 29 -26 111 -32 293 -21 219 14 228 15 240 38 9 17 33
171 53 332 5 47 8 140 6 207 -2 99 -6 126 -20 139 -23 23 -98 26 -223 10z
m135 -223 c-1 -109 -28 -365 -42 -378 -5 -5 -247 -25 -308 -25 l-47 0 -17 90
c-9 49 -19 152 -23 228 l-6 139 24 6 c13 3 67 15 119 27 93 22 187 36 263 39
l37 1 0 -127z"/>
</g>
</svg>
