<?xml version="1.0" standalone="no"?>
<!DOCTYPE svg PUBLIC "-//W3C//DTD SVG 20010904//EN"
 "http://www.w3.org/TR/2001/REC-SVG-20010904/DTD/svg10.dtd">
<svg version="1.0" xmlns="http://www.w3.org/2000/svg"
 width="248.000000pt" height="248.000000pt" viewBox="0 0 248.000000 248.000000"
 preserveAspectRatio="xMidYMid meet">
<metadata>
Created by potrace 1.10, written by Peter Selinger 2001-2011
</metadata>
<g transform="translate(0.000000,248.000000) scale(0.100000,-0.100000)"
fill="#000000" stroke="none">
<path d="M1670 2230 c-52 -5 -186 -13 -298 -19 -253 -13 -389 -26 -517 -52
-55 -11 -116 -23 -135 -27 -58 -12 -65 -40 -45 -180 18 -123 31 -152 70 -152
40 0 49 23 40 103 -15 142 -20 129 65 149 41 10 158 25 260 33 244 20 710 48
715 43 2 -2 -1 -50 -8 -106 -12 -114 -7 -135 36 -140 47 -6 61 38 83 253 6 53
4 62 -16 80 -25 23 -101 27 -250 15z"/>
</g>
</svg>
