<?xml version="1.0" standalone="no"?>
<!DOCTYPE svg PUBLIC "-//W3C//DTD SVG 20010904//EN"
 "http://www.w3.org/TR/2001/REC-SVG-20010904/DTD/svg10.dtd">
<svg version="1.0" xmlns="http://www.w3.org/2000/svg"
 width="248.000000pt" height="248.000000pt" viewBox="0 0 248.000000 248.000000"
 preserveAspectRatio="xMidYMid meet">
<metadata>
Created by potrace 1.10, written by Peter Selinger 2001-2011
</metadata>
<g transform="translate(0.000000,248.000000) scale(0.100000,-0.100000)"
fill="#000000" stroke="none">
<path d="M1232 2398 c-8 -8 -12 -46 -12 -103 l0 -92 -132 -12 c-73 -6 -178
-21 -233 -32 -55 -11 -116 -23 -135 -27 -58 -12 -65 -40 -45 -180 22 -157 23
-158 162 -154 58 1 165 9 237 17 72 8 137 15 144 15 8 0 12 -19 12 -63 l0 -63
-237 -18 c-131 -10 -299 -24 -373 -31 -74 -8 -175 -17 -225 -21 -105 -7 -138
-22 -133 -62 5 -42 37 -51 148 -42 525 45 867 72 1085 86 143 9 310 20 370 25
61 4 148 8 195 8 100 1 133 16 128 59 -6 50 -38 56 -242 43 -273 -17 -453 -29
-533 -36 l-73 -6 0 61 c0 56 2 60 23 60 54 1 418 35 480 46 61 10 68 29 93
257 12 103 -16 114 -241 97 -83 -6 -198 -14 -256 -17 l-106 -5 -5 81 c-3 59
-10 86 -23 101 -20 22 -55 26 -73 8z m594 -305 c-3 -21 -8 -59 -12 -84 -5 -43
-7 -45 -34 -41 -16 2 -66 -1 -112 -7 -46 -6 -140 -13 -210 -17 l-128 -7 0 82
0 81 38 1 c20 0 109 6 197 13 88 8 184 14 213 15 l54 1 -6 -37z m-604 -58 c1
-36 2 -73 2 -82 1 -15 -16 -19 -119 -29 -66 -6 -164 -14 -217 -18 l-97 -6 -11
55 c-6 31 -9 62 -7 69 7 18 141 45 299 60 73 8 136 14 141 15 4 0 8 -28 9 -64z"/>
<path d="M836 1388 c-11 -19 -12 -84 -5 -408 11 -477 19 -530 73 -530 46 0 51
13 48 112 -1 51 -7 252 -11 445 -7 301 -11 357 -25 378 -21 32 -60 33 -80 3z"/>
</g>
</svg>
