<?xml version="1.0" standalone="no"?>
<!DOCTYPE svg PUBLIC "-//W3C//DTD SVG 20010904//EN"
 "http://www.w3.org/TR/2001/REC-SVG-20010904/DTD/svg10.dtd">
<svg version="1.0" xmlns="http://www.w3.org/2000/svg"
 width="248.000000pt" height="248.000000pt" viewBox="0 0 248.000000 248.000000"
 preserveAspectRatio="xMidYMid meet">
<metadata>
Created by potrace 1.10, written by Peter Selinger 2001-2011
</metadata>
<g transform="translate(0.000000,248.000000) scale(0.100000,-0.100000)"
fill="#000000" stroke="none">
<path d="M1172 2418 c-8 -8 -12 -46 -12 -102 0 -50 -4 -96 -8 -102 -4 -6 -81
-16 -177 -23 -219 -16 -347 -31 -362 -44 -18 -13 -16 -52 2 -67 16 -13 70 -12
359 10 142 11 170 10 177 -1 14 -22 11 -183 -4 -203 -10 -14 -44 -20 -187 -32
-198 -16 -206 -18 -221 -45 -26 -49 17 -84 83 -70 24 5 84 12 133 16 50 3 153
12 230 20 77 8 208 20 290 26 83 7 156 16 163 22 15 12 16 49 0 65 -15 15
-155 16 -283 2 -68 -7 -91 -6 -97 3 -10 15 -10 188 0 203 11 17 59 22 327 35
138 6 256 16 263 21 16 14 15 53 -2 68 -17 13 -147 14 -411 1 -93 -5 -173 -6
-177 -4 -5 2 -8 46 -8 97 0 97 -7 116 -45 116 -12 0 -26 -5 -33 -12z"/>
<path d="M1560 1683 c-301 -8 -525 -24 -665 -48 -82 -13 -167 -25 -187 -25
-28 0 -41 -6 -53 -24 -15 -22 -15 -27 0 -62 19 -45 65 -224 65 -252 0 -11 8
-29 18 -41 17 -20 18 -20 207 -6 105 8 289 20 410 26 121 6 226 14 234 18 8 4
18 14 22 22 14 25 128 303 134 326 7 27 -34 74 -62 71 -10 -1 -65 -4 -123 -5z
m52 -122 c-5 -32 -79 -193 -94 -202 -6 -4 -63 -7 -126 -8 -63 0 -145 -3 -181
-6 -116 -9 -305 -26 -343 -29 -21 -2 -41 1 -46 8 -14 17 -52 180 -44 187 6 6
56 14 307 51 80 11 356 26 460 24 68 -1 70 -2 67 -25z"/>
<path d="M1633 1252 c-6 -4 -26 -28 -45 -54 -18 -25 -66 -83 -105 -127 -40
-45 -73 -88 -73 -95 0 -17 -12 -18 -334 -41 -125 -9 -233 -18 -240 -21 -8 -3
-12 10 -12 38 0 51 -54 191 -85 224 -34 36 -89 27 -89 -15 0 -22 80 -213 97
-233 13 -15 13 -18 2 -22 -14 -5 -185 -31 -404 -62 -66 -9 -126 -21 -132 -26
-18 -14 -16 -53 2 -68 22 -18 227 0 460 40 328 56 1295 109 1485 80 64 -9 100
6 100 43 -1 53 9 52 -375 52 -195 0 -355 2 -355 4 0 1 29 35 64 75 72 80 116
142 116 162 0 18 -36 54 -52 54 -7 0 -18 -4 -25 -8z"/>
<path d="M692 618 c-18 -18 -15 -103 7 -209 10 -52 22 -122 26 -157 9 -83 39
-122 79 -104 21 9 26 18 26 49 0 69 -57 403 -72 420 -13 16 -50 17 -66 1z"/>
</g>
</svg>
