<?xml version="1.0" standalone="no"?>
<!DOCTYPE svg PUBLIC "-//W3C//DTD SVG 20010904//EN"
 "http://www.w3.org/TR/2001/REC-SVG-20010904/DTD/svg10.dtd">
<svg version="1.0" xmlns="http://www.w3.org/2000/svg"
 width="248.000000pt" height="248.000000pt" viewBox="0 0 248.000000 248.000000"
 preserveAspectRatio="xMidYMid meet">
<metadata>
Created by potrace 1.10, written by Peter Selinger 2001-2011
</metadata>
<g transform="translate(0.000000,248.000000) scale(0.100000,-0.100000)"
fill="#000000" stroke="none">
<path d="M1720 2233 c-19 -1 -141 -7 -270 -13 -397 -17 -813 -53 -837 -72 -18
-14 -16 -53 2 -68 16 -13 78 -12 340 9 193 16 560 39 730 46 83 4 156 12 163
17 6 6 12 21 12 33 0 12 -6 27 -12 33 -14 11 -75 18 -128 15z"/>
</g>
</svg>
