<?xml version="1.0" standalone="no"?>
<!DOCTYPE svg PUBLIC "-//W3C//DTD SVG 20010904//EN"
 "http://www.w3.org/TR/2001/REC-SVG-20010904/DTD/svg10.dtd">
<svg version="1.0" xmlns="http://www.w3.org/2000/svg"
 width="248.000000pt" height="248.000000pt" viewBox="0 0 248.000000 248.000000"
 preserveAspectRatio="xMidYMid meet">
<metadata>
Created by potrace 1.10, written by Peter Selinger 2001-2011
</metadata>
<g transform="translate(0.000000,248.000000) scale(0.100000,-0.100000)"
fill="#000000" stroke="none">
<path d="M1066 2368 c-11 -18 -14 -53 -13 -145 1 -97 -2 -126 -13 -137 -10
-10 -82 -23 -225 -40 -115 -14 -226 -30 -245 -36 -19 -5 -71 -13 -115 -16 -44
-4 -86 -11 -93 -17 -10 -8 -11 -35 -7 -116 4 -58 2 -137 -4 -174 -11 -77 -2
-112 31 -120 56 -15 68 18 68 182 0 141 4 151 60 151 19 0 53 5 75 10 22 6
112 19 200 30 88 11 205 27 260 35 55 8 195 22 310 31 223 17 735 31 735 20 0
-4 -17 -33 -39 -64 -37 -55 -92 -110 -180 -180 -57 -46 -54 -102 5 -102 43 0
178 114 247 208 100 137 122 178 109 208 -7 13 -17 24 -24 25 -79 4 -682 -4
-773 -11 -66 -5 -157 -11 -202 -14 l-83 -5 0 137 c0 94 -4 142 -12 150 -19 19
-56 14 -72 -10z"/>
<path d="M1062 1918 c-7 -7 -12 -39 -12 -74 0 -41 -5 -68 -14 -77 -10 -9 -62
-18 -162 -26 -82 -7 -154 -17 -161 -23 -18 -14 -16 -53 2 -68 12 -10 48 -11
150 -6 94 4 135 3 135 -4 0 -42 -145 -192 -235 -244 -74 -43 -85 -72 -40 -102
24 -16 28 -15 82 12 63 30 219 173 259 236 l24 37 112 -78 c156 -107 215 -143
275 -169 64 -27 85 -28 107 -3 30 34 16 54 -69 96 -80 40 -355 221 -355 234 0
4 55 13 123 20 204 21 268 32 288 52 23 23 24 39 5 64 -13 18 -18 18 -147 2
-74 -9 -167 -20 -206 -23 l-73 -7 0 59 c0 38 -6 68 -16 82 -17 24 -53 29 -72
10z"/>
<path d="M1720 1229 c-69 -4 -213 -12 -320 -18 -107 -6 -258 -18 -335 -27
-152 -16 -532 -71 -544 -78 -3 -3 -45 -10 -91 -16 -96 -13 -130 -30 -130 -64
0 -53 52 -56 260 -16 98 19 393 61 560 80 160 17 453 31 463 21 5 -5 10 -35
11 -68 1 -77 -12 -381 -18 -391 -2 -4 -7 -61 -10 -127 -11 -202 -32 -371 -48
-381 -5 -3 -27 6 -48 20 -61 40 -110 31 -110 -19 0 -26 25 -49 107 -98 105
-64 132 -49 157 83 25 137 53 492 62 786 l7 212 91 6 c50 4 169 9 264 11 115
2 178 8 188 15 17 15 18 52 2 68 -14 14 -302 14 -518 1z"/>
<path d="M845 899 c-27 -5 -90 -13 -140 -19 -49 -6 -98 -13 -108 -16 -34 -11
-38 -38 -17 -126 10 -46 22 -119 26 -163 8 -94 21 -115 73 -115 49 0 306 29
359 41 23 5 53 9 66 9 34 0 42 15 77 131 17 57 37 121 45 142 17 46 18 99 2
115 -14 14 -303 15 -383 1z m279 -101 c-4 -13 -17 -58 -30 -102 -12 -43 -26
-82 -31 -87 -4 -4 -51 -13 -103 -19 -52 -6 -128 -15 -169 -20 -41 -6 -77 -8
-80 -5 -3 3 -8 34 -12 68 -4 34 -10 80 -14 103 l-7 41 108 13 c60 7 134 16
164 20 30 4 83 8 118 9 61 1 63 0 56 -21z"/>
</g>
</svg>
