<?xml version="1.0" standalone="no"?>
<!DOCTYPE svg PUBLIC "-//W3C//DTD SVG 20010904//EN"
 "http://www.w3.org/TR/2001/REC-SVG-20010904/DTD/svg10.dtd">
<svg version="1.0" xmlns="http://www.w3.org/2000/svg"
 width="248.000000pt" height="248.000000pt" viewBox="0 0 248.000000 248.000000"
 preserveAspectRatio="xMidYMid meet">
<metadata>
Created by potrace 1.10, written by Peter Selinger 2001-2011
</metadata>
<g transform="translate(0.000000,248.000000) scale(0.100000,-0.100000)"
fill="#000000" stroke="none">
<path d="M1172 2418 c-8 -8 -12 -46 -12 -102 0 -50 -4 -96 -8 -102 -4 -6 -81
-16 -177 -23 -219 -16 -347 -31 -362 -44 -18 -13 -16 -52 2 -67 16 -13 70 -12
359 10 142 11 170 10 178 -1 5 -8 7 -64 4 -131 -5 -112 -4 -118 17 -133 28
-19 33 -19 57 5 18 18 20 33 20 138 0 64 4 122 8 128 11 17 59 22 327 35 138
6 256 16 263 21 16 14 15 53 -2 68 -17 13 -147 14 -411 1 -93 -5 -173 -6 -177
-4 -5 2 -8 46 -8 97 0 97 -7 116 -45 116 -12 0 -26 -5 -33 -12z"/>
</g>
</svg>
