<?xml version="1.0" standalone="no"?>
<!DOCTYPE svg PUBLIC "-//W3C//DTD SVG 20010904//EN"
 "http://www.w3.org/TR/2001/REC-SVG-20010904/DTD/svg10.dtd">
<svg version="1.0" xmlns="http://www.w3.org/2000/svg"
 width="248.000000pt" height="248.000000pt" viewBox="0 0 248.000000 248.000000"
 preserveAspectRatio="xMidYMid meet">
<metadata>
Created by potrace 1.10, written by Peter Selinger 2001-2011
</metadata>
<g transform="translate(0.000000,248.000000) scale(0.100000,-0.100000)"
fill="#000000" stroke="none">
<path d="M1066 2368 c-11 -18 -14 -53 -13 -145 1 -97 -2 -126 -13 -137 -10
-10 -82 -23 -225 -40 -115 -14 -226 -30 -245 -36 -19 -5 -71 -13 -115 -16 -44
-4 -86 -11 -93 -17 -10 -8 -11 -35 -7 -116 4 -58 2 -137 -4 -174 -11 -77 -2
-112 31 -120 56 -15 68 18 68 182 0 141 4 151 60 151 19 0 53 5 75 10 22 6
112 19 200 30 88 11 205 27 260 35 55 8 195 22 310 31 223 17 735 31 735 20 0
-4 -17 -33 -39 -64 -37 -55 -92 -110 -180 -180 -57 -46 -54 -102 5 -102 43 0
178 114 247 208 100 137 122 178 109 208 -7 13 -17 24 -24 25 -79 4 -682 -4
-773 -11 -66 -5 -157 -11 -202 -14 l-83 -5 0 137 c0 94 -4 142 -12 150 -19 19
-56 14 -72 -10z"/>
</g>
</svg>
