<?xml version="1.0" standalone="no"?>
<!DOCTYPE svg PUBLIC "-//W3C//DTD SVG 20010904//EN"
 "http://www.w3.org/TR/2001/REC-SVG-20010904/DTD/svg10.dtd">
<svg version="1.0" xmlns="http://www.w3.org/2000/svg"
 width="248.000000pt" height="248.000000pt" viewBox="0 0 248.000000 248.000000"
 preserveAspectRatio="xMidYMid meet">
<metadata>
Created by potrace 1.10, written by Peter Selinger 2001-2011
</metadata>
<g transform="translate(0.000000,248.000000) scale(0.100000,-0.100000)"
fill="#000000" stroke="none">
<path d="M1222 2298 c-20 -20 -13 -70 19 -138 37 -78 55 -100 84 -100 50 0 58
45 21 118 -13 26 -27 58 -31 72 -16 53 -63 78 -93 48z"/>
<path d="M742 2268 c-19 -19 -14 -44 20 -106 65 -118 107 -172 133 -172 55 0
72 59 30 108 -13 16 -36 53 -51 83 -45 88 -97 122 -132 87z"/>
</g>
</svg>
