<?xml version="1.0" standalone="no"?>
<!DOCTYPE svg PUBLIC "-//W3C//DTD SVG 20010904//EN"
 "http://www.w3.org/TR/2001/REC-SVG-20010904/DTD/svg10.dtd">
<svg version="1.0" xmlns="http://www.w3.org/2000/svg"
 width="248.000000pt" height="248.000000pt" viewBox="0 0 248.000000 248.000000"
 preserveAspectRatio="xMidYMid meet">
<metadata>
Created by potrace 1.10, written by Peter Selinger 2001-2011
</metadata>
<g transform="translate(0.000000,248.000000) scale(0.100000,-0.100000)"
fill="#000000" stroke="none">
<path d="M1762 2388 c-7 -7 -12 -24 -12 -38 0 -28 -69 -129 -114 -167 -44 -38
-30 -93 24 -93 34 1 79 41 140 125 41 57 50 77 50 111 0 60 -53 97 -88 62z"/>
<path d="M1222 2298 c-20 -20 -13 -70 19 -138 37 -78 55 -100 84 -100 50 0 58
45 21 118 -13 26 -27 58 -31 72 -16 53 -63 78 -93 48z"/>
<path d="M742 2268 c-7 -7 -12 -20 -12 -30 0 -21 46 -106 102 -190 32 -49 44
-58 68 -58 53 0 66 59 25 108 -13 16 -36 53 -51 83 -45 88 -97 122 -132 87z"/>
<path d="M1970 2054 c-102 -11 -417 -43 -675 -69 -27 -3 -97 -12 -155 -20 -58
-8 -166 -22 -240 -30 -74 -8 -160 -20 -190 -25 -31 -6 -104 -14 -164 -19 -153
-11 -153 -12 -138 -173 7 -68 12 -161 12 -208 0 -158 -45 -537 -86 -732 -26
-123 -115 -395 -165 -507 -35 -76 -37 -116 -9 -131 44 -24 73 6 119 125 12 33
31 80 41 105 61 152 116 363 144 545 65 431 77 621 50 818 l-6 43 118 18 c66
9 178 23 249 31 72 8 175 22 230 30 55 9 147 20 205 25 58 5 148 14 200 20 52
6 208 21 346 34 138 13 261 29 272 35 11 6 23 20 27 31 6 20 -10 60 -25 60 -4
0 -14 2 -22 4 -7 2 -69 -3 -138 -10z"/>
<path d="M1386 1678 c-12 -17 -16 -48 -16 -128 0 -107 -15 -220 -46 -367 -15
-68 -16 -84 -5 -97 16 -19 64 -21 79 -3 12 14 46 153 57 232 12 90 14 94 54
101 47 8 180 33 209 39 20 5 22 2 22 -30 0 -58 -20 -175 -40 -235 -10 -30 -27
-85 -37 -122 -10 -38 -21 -68 -24 -68 -8 0 -55 115 -69 170 -14 54 -35 80 -65
80 -65 0 -54 -101 30 -278 l54 -113 -23 -62 c-13 -34 -54 -121 -90 -193 -53
-105 -79 -145 -130 -197 -35 -36 -79 -73 -98 -82 -48 -25 -68 -45 -68 -70 0
-52 51 -59 125 -16 86 49 189 167 247 284 28 56 61 123 74 150 13 26 26 47 28
47 2 0 34 -51 71 -112 87 -144 223 -326 278 -370 113 -92 154 -106 183 -64 21
33 12 46 -71 109 -102 77 -224 239 -367 489 -21 37 -38 74 -38 81 0 8 16 66
35 128 20 63 47 150 60 194 14 44 30 135 37 202 l12 123 56 15 c80 22 105 37
108 66 7 61 -50 65 -194 15 -82 -29 -289 -76 -332 -76 -8 0 -12 22 -12 63 0
34 -6 73 -13 87 -17 34 -60 39 -81 8z"/>
<path d="M890 1654 c-74 -13 -160 -23 -190 -24 -60 0 -80 -11 -80 -45 0 -46
67 -71 148 -56 l42 8 0 -87 0 -87 -57 -11 c-32 -6 -85 -14 -118 -18 -72 -7
-105 -26 -105 -58 0 -34 26 -51 75 -48 37 1 45 -2 51 -20 3 -12 3 -126 -2
-252 -5 -127 -9 -288 -9 -358 l0 -127 -70 -26 c-38 -14 -77 -25 -85 -25 -27 0
-60 -30 -60 -55 0 -15 10 -31 24 -40 20 -14 32 -14 68 -5 61 16 159 52 183 66
11 7 54 22 95 35 41 12 87 28 102 36 l27 13 -6 -159 -6 -160 26 -12 c14 -6 33
-9 42 -5 38 14 45 65 51 363 3 159 12 389 20 512 8 124 14 237 14 252 0 26 4
28 73 43 39 8 88 17 108 21 21 3 42 12 49 20 18 22 8 59 -21 72 -27 13 -29 13
-239 -27 -25 -5 -62 -9 -83 -9 l-38 -1 3 87 3 87 80 14 c91 15 125 33 125 65
0 54 -34 57 -240 21z m70 -451 c0 -38 -4 -74 -9 -82 -5 -8 -48 -24 -95 -37
l-86 -22 0 42 c0 22 -3 64 -6 93 l-7 51 54 10 c30 5 75 10 102 11 l47 1 0 -67z
m-18 -250 c-3 -27 -10 -51 -16 -55 -10 -7 -140 -38 -157 -38 -5 0 -9 20 -9 44
l0 43 58 17 c31 10 68 21 82 26 45 15 48 13 42 -37z m-12 -273 c0 -98 -2 -110
-17 -110 -10 0 -45 -11 -78 -25 -33 -13 -66 -25 -72 -25 -10 0 -13 30 -13 115
0 111 1 115 23 119 12 3 49 11 82 19 33 8 63 15 68 16 4 1 7 -48 7 -109z"/>
</g>
</svg>
