<?xml version="1.0" standalone="no"?>
<!DOCTYPE svg PUBLIC "-//W3C//DTD SVG 20010904//EN"
 "http://www.w3.org/TR/2001/REC-SVG-20010904/DTD/svg10.dtd">
<svg version="1.0" xmlns="http://www.w3.org/2000/svg"
 width="248.000000pt" height="248.000000pt" viewBox="0 0 248.000000 248.000000"
 preserveAspectRatio="xMidYMid meet">
<metadata>
Created by potrace 1.10, written by Peter Selinger 2001-2011
</metadata>
<g transform="translate(0.000000,248.000000) scale(0.100000,-0.100000)"
fill="#000000" stroke="none">
<path d="M1762 2388 c-7 -7 -12 -24 -12 -38 0 -28 -69 -129 -114 -167 -44 -38
-30 -93 24 -93 34 1 79 41 140 125 41 57 50 77 50 111 0 60 -53 97 -88 62z"/>
<path d="M1222 2298 c-20 -20 -13 -70 19 -138 37 -78 55 -100 84 -100 50 0 58
45 21 118 -13 26 -27 58 -31 72 -16 53 -63 78 -93 48z"/>
<path d="M742 2268 c-19 -19 -14 -44 20 -106 65 -118 107 -172 133 -172 55 0
72 59 30 108 -13 16 -36 53 -51 83 -45 88 -97 122 -132 87z"/>
<path d="M2089 2066 c-2 -2 -89 -11 -194 -21 -104 -9 -200 -18 -211 -20 -12
-2 -98 -11 -190 -20 -93 -8 -216 -22 -274 -30 -58 -8 -163 -21 -235 -30 -71
-9 -194 -25 -272 -36 -78 -10 -166 -19 -195 -19 -62 0 -98 -20 -98 -55 0 -32
35 -55 83 -55 21 0 95 9 165 19 70 11 159 23 197 26 39 4 132 15 208 26 75 11
183 24 240 30 56 5 145 14 197 19 52 6 208 21 347 34 138 14 261 29 272 35 11
6 22 20 26 31 6 20 -10 60 -25 60 -4 0 -15 2 -22 5 -8 3 -16 4 -19 1z"/>
</g>
</svg>
