<?xml version="1.0" standalone="no"?>
<!DOCTYPE svg PUBLIC "-//W3C//DTD SVG 20010904//EN"
 "http://www.w3.org/TR/2001/REC-SVG-20010904/DTD/svg10.dtd">
<svg version="1.0" xmlns="http://www.w3.org/2000/svg"
 width="248.000000pt" height="248.000000pt" viewBox="0 0 248.000000 248.000000"
 preserveAspectRatio="xMidYMid meet">
<metadata>
Created by potrace 1.10, written by Peter Selinger 2001-2011
</metadata>
<g transform="translate(0.000000,248.000000) scale(0.100000,-0.100000)"
fill="#000000" stroke="none">
<path d="M1762 2388 c-7 -7 -12 -24 -12 -38 0 -28 -69 -129 -114 -167 -44 -38
-30 -93 24 -93 34 1 79 41 140 125 41 57 50 77 50 111 0 60 -53 97 -88 62z"/>
<path d="M1222 2298 c-20 -20 -13 -70 19 -138 37 -78 55 -100 84 -100 50 0 58
45 21 118 -13 26 -27 58 -31 72 -16 53 -63 78 -93 48z"/>
<path d="M742 2268 c-19 -19 -14 -44 20 -106 65 -118 107 -172 133 -172 55 0
72 59 30 108 -13 16 -36 53 -51 83 -45 88 -97 122 -132 87z"/>
<path d="M2089 2066 c-2 -2 -89 -11 -194 -21 -104 -9 -200 -18 -211 -20 -12
-2 -98 -11 -190 -20 -93 -8 -216 -22 -274 -30 -58 -8 -163 -21 -235 -30 -71
-9 -179 -23 -240 -31 -60 -9 -154 -19 -208 -23 -142 -11 -144 -13 -129 -173
20 -201 16 -283 -28 -668 -27 -236 -119 -576 -211 -779 -35 -76 -37 -116 -9
-131 45 -24 67 0 123 135 99 242 168 507 202 775 45 358 52 517 29 680 l-6 46
148 22 c82 12 178 24 214 28 36 3 127 14 203 25 75 11 183 24 240 30 56 5 145
14 197 19 52 6 208 21 347 34 138 14 261 29 272 35 11 6 22 20 26 31 6 20 -10
60 -25 60 -4 0 -15 2 -22 5 -8 3 -16 4 -19 1z"/>
<path d="M1387 1678 c-11 -16 -16 -64 -19 -163 -4 -101 -13 -178 -33 -277 -32
-150 -29 -168 25 -168 36 0 46 14 65 91 46 194 68 457 42 509 -17 35 -61 39
-80 8z"/>
<path d="M890 1654 c-74 -13 -160 -23 -190 -24 -60 0 -80 -11 -80 -45 0 -42
34 -59 116 -58 l74 2 0 -83 0 -83 -57 -12 c-32 -6 -85 -13 -118 -17 -72 -8
-105 -26 -105 -58 0 -34 26 -51 76 -49 40 1 45 -1 51 -25 3 -15 0 -174 -7
-354 -7 -179 -10 -338 -6 -351 5 -23 1 -26 -67 -50 -39 -14 -83 -29 -97 -33
-36 -9 -50 -23 -50 -49 0 -68 105 -59 285 25 22 10 67 26 100 36 33 9 72 23
88 31 l27 14 -6 -160 c-7 -156 -7 -159 15 -170 12 -7 31 -9 42 -6 43 14 48 53
58 447 6 205 16 448 22 540 l12 167 46 11 c25 6 72 15 105 20 67 11 86 23 86
55 0 54 -52 60 -218 26 -56 -12 -117 -21 -137 -21 l-36 0 3 87 3 87 80 14 c91
15 125 33 125 65 0 54 -34 57 -240 21z m70 -458 c0 -49 -4 -78 -12 -83 -7 -4
-50 -17 -95 -29 l-83 -22 0 33 c0 17 -3 59 -6 93 l-7 60 54 10 c30 5 75 10
102 11 l47 1 0 -74z m-17 -243 c-3 -27 -11 -51 -17 -55 -10 -7 -140 -38 -157
-38 -5 0 -9 20 -9 44 l0 43 58 17 c31 10 68 21 82 26 47 16 50 13 43 -37z
m-13 -273 c0 -104 -1 -110 -20 -110 -12 0 -37 -8 -58 -19 -20 -10 -52 -22 -69
-26 l-33 -7 0 116 c0 112 1 116 23 120 12 3 49 11 82 19 33 8 63 15 68 16 4 1
7 -48 7 -109z"/>
</g>
</svg>
