<?xml version="1.0" standalone="no"?>
<!DOCTYPE svg PUBLIC "-//W3C//DTD SVG 20010904//EN"
 "http://www.w3.org/TR/2001/REC-SVG-20010904/DTD/svg10.dtd">
<svg version="1.0" xmlns="http://www.w3.org/2000/svg"
 width="248.000000pt" height="248.000000pt" viewBox="0 0 248.000000 248.000000"
 preserveAspectRatio="xMidYMid meet">
<metadata>
Created by potrace 1.10, written by Peter Selinger 2001-2011
</metadata>
<g transform="translate(0.000000,248.000000) scale(0.100000,-0.100000)"
fill="#000000" stroke="none">
<path d="M1762 2388 c-7 -7 -12 -24 -12 -38 0 -28 -69 -129 -114 -167 -44 -38
-30 -93 24 -93 34 1 79 41 140 125 41 57 50 77 50 111 0 60 -53 97 -88 62z"/>
<path d="M1222 2298 c-20 -20 -13 -70 19 -138 37 -78 55 -100 84 -100 50 0 58
45 21 118 -13 26 -27 58 -31 72 -16 53 -63 78 -93 48z"/>
<path d="M742 2268 c-19 -19 -14 -44 20 -106 65 -118 107 -172 133 -172 55 0
72 59 30 108 -13 16 -36 53 -51 83 -45 88 -97 122 -132 87z"/>
<path d="M2089 2066 c-2 -2 -89 -11 -194 -21 -104 -9 -200 -18 -211 -20 -12
-2 -98 -11 -190 -20 -93 -8 -216 -22 -274 -30 -58 -8 -163 -21 -235 -30 -71
-9 -179 -23 -240 -31 -60 -9 -154 -19 -208 -23 -142 -11 -144 -13 -129 -173
20 -201 16 -283 -28 -668 -27 -236 -119 -576 -211 -779 -35 -76 -37 -116 -9
-131 45 -24 67 0 123 135 99 242 168 507 202 775 45 358 52 517 29 680 l-6 46
148 22 c82 12 178 24 214 28 36 3 127 14 203 25 75 11 183 24 240 30 56 5 145
14 197 19 52 6 208 21 347 34 138 14 261 29 272 35 11 6 22 20 26 31 6 20 -10
60 -25 60 -4 0 -15 2 -22 5 -8 3 -16 4 -19 1z"/>
<path d="M890 1654 c-74 -13 -160 -23 -190 -24 -60 0 -80 -11 -80 -45 0 -42
34 -59 116 -58 l74 2 0 -83 0 -83 -57 -12 c-32 -6 -85 -13 -118 -17 -72 -8
-105 -26 -105 -58 0 -34 26 -51 76 -49 40 1 45 -1 51 -25 3 -14 0 -177 -7
-362 -11 -287 -11 -341 1 -366 16 -33 45 -41 74 -20 18 13 21 30 27 178 3 90
7 197 7 239 1 64 4 78 19 82 9 3 57 17 105 30 98 28 117 40 117 71 0 50 -46
58 -160 27 l-70 -20 0 33 c0 18 -3 60 -6 93 l-7 61 69 10 c38 6 101 14 139 17
39 4 98 13 131 20 34 8 90 19 124 24 70 12 90 24 90 56 0 54 -52 60 -218 26
-56 -12 -117 -21 -137 -21 l-36 0 3 87 3 87 80 14 c91 15 125 33 125 65 0 54
-34 57 -240 21z"/>
</g>
</svg>
