<?xml version="1.0" standalone="no"?>
<!DOCTYPE svg PUBLIC "-//W3C//DTD SVG 20010904//EN"
 "http://www.w3.org/TR/2001/REC-SVG-20010904/DTD/svg10.dtd">
<svg version="1.0" xmlns="http://www.w3.org/2000/svg"
 width="248.000000pt" height="248.000000pt" viewBox="0 0 248.000000 248.000000"
 preserveAspectRatio="xMidYMid meet">
<metadata>
Created by potrace 1.10, written by Peter Selinger 2001-2011
</metadata>
<g transform="translate(0.000000,248.000000) scale(0.100000,-0.100000)"
fill="#000000" stroke="none">
<path d="M1660 2179 c-140 -4 -367 -13 -505 -19 -137 -6 -295 -10 -350 -10
-107 0 -125 -7 -125 -46 0 -46 10 -47 338 -40 169 3 426 10 572 15 146 5 268
6 272 2 5 -4 -2 -54 -15 -111 l-22 -105 -225 -11 c-291 -15 -377 -21 -595 -44
-99 -11 -211 -22 -250 -25 -65 -5 -229 -24 -388 -45 -38 -5 -79 -16 -93 -25
-27 -17 -32 -56 -9 -75 15 -12 19 -12 310 25 61 8 144 17 185 20 41 3 156 15
255 25 220 24 587 50 695 50 66 0 80 -3 80 -15 0 -9 -18 -81 -41 -161 -39
-137 -40 -146 -25 -169 18 -27 57 -33 74 -12 8 10 54 165 92 314 7 28 17 44
31 48 11 4 109 6 217 4 108 -1 207 1 220 5 27 9 34 57 11 80 -5 6 -98 9 -218
7 -115 -1 -211 2 -214 6 -3 5 5 61 19 124 30 142 30 164 2 183 -12 9 -27 15
-33 14 -5 0 -125 -5 -265 -9z"/>
</g>
</svg>
