<?xml version="1.0" standalone="no"?>
<!DOCTYPE svg PUBLIC "-//W3C//DTD SVG 20010904//EN"
 "http://www.w3.org/TR/2001/REC-SVG-20010904/DTD/svg10.dtd">
<svg version="1.0" xmlns="http://www.w3.org/2000/svg"
 width="248.000000pt" height="248.000000pt" viewBox="0 0 248.000000 248.000000"
 preserveAspectRatio="xMidYMid meet">
<metadata>
Created by potrace 1.10, written by Peter Selinger 2001-2011
</metadata>
<g transform="translate(0.000000,248.000000) scale(0.100000,-0.100000)"
fill="#000000" stroke="none">
<path d="M1660 2179 c-140 -4 -367 -13 -505 -19 -137 -6 -295 -10 -350 -10
-107 0 -125 -7 -125 -46 0 -46 10 -47 338 -40 169 3 426 10 572 15 146 5 268
6 272 2 12 -11 -30 -197 -108 -479 -43 -154 -45 -164 -30 -187 18 -27 57 -33
73 -12 27 32 183 657 183 728 0 27 -32 61 -55 57 -5 0 -125 -5 -265 -9z"/>
</g>
</svg>
