<?xml version="1.0" standalone="no"?>
<!DOCTYPE svg PUBLIC "-//W3C//DTD SVG 20010904//EN"
 "http://www.w3.org/TR/2001/REC-SVG-20010904/DTD/svg10.dtd">
<svg version="1.0" xmlns="http://www.w3.org/2000/svg"
 width="248.000000pt" height="248.000000pt" viewBox="0 0 248.000000 248.000000"
 preserveAspectRatio="xMidYMid meet">
<metadata>
Created by potrace 1.10, written by Peter Selinger 2001-2011
</metadata>
<g transform="translate(0.000000,248.000000) scale(0.100000,-0.100000)"
fill="#000000" stroke="none">
<path d="M1660 2179 c-140 -4 -367 -13 -505 -19 -137 -6 -295 -10 -350 -10
-107 0 -125 -7 -125 -46 0 -43 14 -45 295 -43 146 1 268 -1 272 -5 7 -7 -12
-181 -22 -208 -6 -15 -52 -22 -375 -53 -156 -15 -386 -41 -488 -55 -35 -5 -75
-16 -88 -25 -27 -18 -32 -56 -9 -75 15 -12 12 -13 315 26 63 7 171 19 240 25
68 6 178 17 244 24 66 8 122 12 125 9 6 -5 -8 -61 -45 -186 l-27 -86 -71 -6
c-293 -25 -336 -35 -336 -80 0 -52 15 -53 258 -24 66 7 96 8 104 0 14 -14 -55
-142 -167 -312 -67 -102 -107 -149 -221 -260 -135 -131 -212 -189 -344 -257
-39 -20 -56 -35 -58 -51 -4 -27 11 -48 38 -55 42 -11 225 96 350 206 48 43 77
61 81 54 9 -16 37 -226 50 -372 15 -165 23 -182 79 -177 120 11 238 15 510 16
208 1 332 6 344 13 30 17 104 228 156 447 17 71 38 145 46 165 19 45 11 77
-21 88 -37 12 -634 -3 -830 -21 -93 -9 -181 -16 -194 -16 l-25 0 26 28 c67 70
233 344 287 473 l19 47 119 6 c65 4 170 12 233 18 63 6 142 10 175 10 33 -1
66 2 73 7 7 4 19 35 26 67 29 130 76 288 88 296 7 5 108 8 223 7 116 -1 218 2
228 6 22 9 27 58 6 79 -5 6 -98 9 -218 7 -115 -1 -211 2 -214 6 -3 5 5 61 19
124 30 142 30 164 2 183 -12 9 -27 15 -33 14 -5 0 -125 -5 -265 -9z m205 -101
c2 -7 -6 -58 -18 -113 l-22 -100 -245 -12 c-135 -6 -246 -10 -249 -8 -2 3 1
36 8 74 6 39 11 88 11 110 0 23 1 42 3 43 1 0 99 4 217 8 118 3 232 7 253 8
23 1 39 -3 42 -10z m-75 -335 c0 -10 -15 -70 -34 -133 l-33 -115 -237 -19
c-139 -11 -241 -15 -246 -10 -8 8 41 218 59 254 9 17 198 36 384 39 96 1 107
-1 107 -16z m25 -993 c12 -20 -100 -434 -136 -501 -7 -14 -54 -17 -386 -22
-241 -3 -380 -2 -384 4 -3 6 -7 38 -8 72 -1 55 -12 140 -41 331 -5 32 -8 62
-5 66 2 4 42 10 87 13 46 4 110 10 143 13 293 28 719 42 730 24z"/>
</g>
</svg>
