<?xml version="1.0" standalone="no"?>
<!DOCTYPE svg PUBLIC "-//W3C//DTD SVG 20010904//EN"
 "http://www.w3.org/TR/2001/REC-SVG-20010904/DTD/svg10.dtd">
<svg version="1.0" xmlns="http://www.w3.org/2000/svg"
 width="248.000000pt" height="248.000000pt" viewBox="0 0 248.000000 248.000000"
 preserveAspectRatio="xMidYMid meet">
<metadata>
Created by potrace 1.10, written by Peter Selinger 2001-2011
</metadata>
<g transform="translate(0.000000,248.000000) scale(0.100000,-0.100000)"
fill="#000000" stroke="none">
<path d="M916 2338 c-13 -18 -16 -53 -16 -175 0 -83 -4 -154 -9 -157 -4 -3
-62 -11 -127 -17 -65 -7 -129 -18 -141 -26 -31 -18 -30 -58 2 -79 22 -14 36
-15 119 -5 52 6 100 11 106 11 50 0 -259 -390 -362 -456 -45 -29 -56 -58 -32
-85 49 -54 134 7 315 226 41 50 83 101 93 115 18 25 18 24 12 -50 -19 -227
-25 -362 -16 -384 18 -49 83 -41 94 11 3 16 11 111 17 213 6 102 14 202 18
224 l6 38 77 -80 c89 -93 110 -107 137 -92 51 27 27 84 -72 177 -58 54 -141
152 -134 159 7 8 157 34 192 34 77 0 112 43 70 86 -28 28 -42 29 -155 9 -47
-8 -88 -15 -92 -15 -5 0 -8 66 -8 148 0 161 -9 192 -55 192 -13 0 -31 -10 -39
-22z"/>
<path d="M1910 2073 c-148 -10 -489 -60 -507 -74 -22 -19 -12 -62 18 -76 21
-10 58 -8 205 11 98 14 222 27 275 31 112 8 143 20 147 57 4 31 -29 59 -68 56
-14 -1 -45 -3 -70 -5z"/>
</g>
</svg>
