<?xml version="1.0" standalone="no"?>
<!DOCTYPE svg PUBLIC "-//W3C//DTD SVG 20010904//EN"
 "http://www.w3.org/TR/2001/REC-SVG-20010904/DTD/svg10.dtd">
<svg version="1.0" xmlns="http://www.w3.org/2000/svg"
 width="248.000000pt" height="248.000000pt" viewBox="0 0 248.000000 248.000000"
 preserveAspectRatio="xMidYMid meet">
<metadata>
Created by potrace 1.10, written by Peter Selinger 2001-2011
</metadata>
<g transform="translate(0.000000,248.000000) scale(0.100000,-0.100000)"
fill="#000000" stroke="none">
<path d="M1030 2360 c-63 -4 -236 -11 -383 -15 -258 -7 -269 -8 -282 -29 -10
-16 -14 -109 -17 -424 -3 -390 -2 -404 16 -418 25 -18 37 -18 62 0 17 13 19
29 22 145 l4 131 150 0 149 0 -3 -119 c-3 -131 5 -154 51 -149 39 5 53 46 57
167 l4 106 127 8 c91 6 132 12 144 23 29 26 74 249 59 289 -14 37 -60 46 -180
35 -166 -15 -150 -21 -150 60 0 39 1 70 3 70 1 0 69 5 150 10 164 11 200 22
205 61 6 51 -27 59 -188 49z m-280 -194 l0 -73 -57 -12 c-31 -6 -96 -11 -145
-11 l-88 0 0 80 0 79 88 4 c48 1 113 4 145 5 l57 2 0 -74z m326 -208 c-12 -86
-7 -84 -162 -91 -75 -4 -208 -7 -296 -7 l-158 0 0 50 0 50 73 0 c40 0 100 5
133 11 49 9 143 18 398 38 17 1 18 -4 12 -51z"/>
</g>
</svg>
