<?xml version="1.0" standalone="no"?>
<!DOCTYPE svg PUBLIC "-//W3C//DTD SVG 20010904//EN"
 "http://www.w3.org/TR/2001/REC-SVG-20010904/DTD/svg10.dtd">
<svg version="1.0" xmlns="http://www.w3.org/2000/svg"
 width="248.000000pt" height="248.000000pt" viewBox="0 0 248.000000 248.000000"
 preserveAspectRatio="xMidYMid meet">
<metadata>
Created by potrace 1.10, written by Peter Selinger 2001-2011
</metadata>
<g transform="translate(0.000000,248.000000) scale(0.100000,-0.100000)"
fill="#000000" stroke="none">
<path d="M1030 2360 c-63 -4 -236 -11 -383 -15 -258 -7 -269 -8 -281 -29 -11
-16 -15 -113 -19 -409 -3 -214 -2 -399 3 -411 17 -45 74 -44 90 0 6 14 13 184
16 378 l7 354 176 6 c333 12 521 25 549 38 30 15 42 58 20 76 -21 17 -57 20
-178 12z"/>
</g>
</svg>
