<?xml version="1.0" standalone="no"?>
<!DOCTYPE svg PUBLIC "-//W3C//DTD SVG 20010904//EN"
 "http://www.w3.org/TR/2001/REC-SVG-20010904/DTD/svg10.dtd">
<svg version="1.0" xmlns="http://www.w3.org/2000/svg"
 width="248.000000pt" height="248.000000pt" viewBox="0 0 248.000000 248.000000"
 preserveAspectRatio="xMidYMid meet">
<metadata>
Created by potrace 1.10, written by Peter Selinger 2001-2011
</metadata>
<g transform="translate(0.000000,248.000000) scale(0.100000,-0.100000)"
fill="#000000" stroke="none">
<path d="M1030 2360 c-63 -4 -236 -11 -383 -15 -258 -7 -269 -8 -281 -29 -16
-25 -31 -782 -16 -821 17 -44 56 -48 425 -43 381 6 398 8 403 65 5 50 -17 56
-182 48 l-142 -7 3 98 2 99 128 8 c91 6 132 12 144 23 29 26 74 249 59 289
-14 37 -60 46 -180 35 -166 -15 -150 -21 -150 60 0 39 1 70 3 70 1 0 69 5 150
10 164 11 200 22 205 61 6 51 -27 59 -188 49z m-280 -194 l0 -73 -57 -12 c-31
-6 -96 -11 -145 -11 l-88 0 0 80 0 79 88 4 c48 1 113 4 145 5 l57 2 0 -74z
m326 -208 c-12 -86 -7 -84 -162 -91 -75 -4 -208 -7 -296 -7 l-158 0 0 50 0 50
73 0 c40 0 100 5 133 11 49 9 143 18 398 38 17 1 18 -4 12 -51z m-328 -300
l-3 -93 -147 -3 -148 -3 0 96 0 95 150 0 151 0 -3 -92z"/>
<path d="M1940 2310 c-47 -4 -139 -13 -205 -19 -65 -7 -144 -10 -175 -7 -67 8
-104 -8 -108 -45 -2 -14 4 -31 12 -38 24 -20 140 -30 239 -20 148 14 340 29
343 26 2 -2 -26 -46 -62 -97 -143 -209 -352 -397 -515 -465 -77 -32 -81 -36
-81 -70 0 -86 142 -42 333 103 166 125 344 334 430 504 65 128 32 148 -211
128z"/>
</g>
</svg>
