<?xml version="1.0" standalone="no"?>
<!DOCTYPE svg PUBLIC "-//W3C//DTD SVG 20010904//EN"
 "http://www.w3.org/TR/2001/REC-SVG-20010904/DTD/svg10.dtd">
<svg version="1.0" xmlns="http://www.w3.org/2000/svg"
 width="248.000000pt" height="248.000000pt" viewBox="0 0 248.000000 248.000000"
 preserveAspectRatio="xMidYMid meet">
<metadata>
Created by potrace 1.10, written by Peter Selinger 2001-2011
</metadata>
<g transform="translate(0.000000,248.000000) scale(0.100000,-0.100000)"
fill="#000000" stroke="none">
<path d="M1030 2360 c-63 -4 -236 -11 -383 -15 -258 -7 -269 -8 -281 -29 -16
-25 -31 -782 -16 -821 17 -44 56 -48 425 -43 381 6 398 8 403 65 5 50 -17 56
-182 48 l-142 -7 3 98 3 99 127 8 c93 5 131 11 144 23 16 15 34 78 58 206 20
111 -10 132 -170 118 -174 -16 -159 -21 -159 60 0 39 1 70 3 70 1 0 69 5 150
10 164 11 200 22 205 61 6 51 -27 59 -188 49z m-280 -194 l0 -73 -57 -12 c-31
-6 -96 -11 -145 -11 l-88 0 0 80 0 79 88 4 c48 1 113 4 145 5 l57 2 0 -74z
m326 -208 c-12 -86 -7 -84 -162 -91 -75 -4 -208 -7 -296 -7 l-158 0 0 50 0 50
66 0 c36 0 97 5 137 11 57 9 229 25 401 38 17 1 18 -4 12 -51z m-328 -300 l-3
-93 -147 -3 -148 -3 0 96 0 95 150 0 151 0 -3 -92z"/>
<path d="M1940 2310 c-47 -4 -139 -13 -205 -19 -65 -7 -144 -10 -175 -7 -67 8
-104 -8 -108 -46 -6 -54 89 -75 253 -58 126 14 338 30 341 27 7 -7 -139 -207
-192 -265 l-59 -63 -65 47 c-36 26 -85 65 -109 86 -61 53 -121 50 -121 -8 0
-25 81 -104 158 -154 28 -19 52 -37 52 -40 0 -8 -75 -70 -130 -107 -25 -17
-75 -43 -110 -58 -78 -32 -82 -36 -82 -70 0 -84 139 -43 322 95 52 38 99 70
105 70 6 0 24 -14 41 -31 49 -51 218 -159 300 -191 96 -37 174 -47 193 -25 7
9 11 28 9 44 -3 30 -2 29 -142 70 -33 9 -93 39 -135 66 -77 50 -191 138 -191
147 0 3 10 16 23 30 147 164 272 361 265 418 -6 50 -47 58 -238 42z"/>
<path d="M1268 1451 c-50 -43 -86 -67 -180 -121 -14 -8 -61 -35 -103 -60 -43
-25 -100 -58 -129 -73 -62 -35 -96 -65 -96 -87 0 -26 28 -57 57 -65 15 -3 62
-27 104 -52 l77 -46 -52 -48 c-28 -25 -106 -88 -173 -138 -120 -90 -140 -113
-128 -150 14 -46 112 -50 345 -15 52 8 114 17 138 21 l44 6 -2 -264 c-1 -145
-1 -269 -1 -276 1 -18 39 -35 61 -28 40 13 44 40 50 324 l5 274 85 19 c47 10
116 23 154 28 39 6 78 18 88 27 18 16 23 13 96 -60 86 -85 118 -97 147 -53 22
34 11 53 -85 140 -47 42 -117 108 -157 147 -72 69 -104 84 -131 57 -22 -22
-13 -58 28 -102 l40 -43 -118 -23 c-64 -12 -149 -30 -188 -40 -104 -27 -320
-62 -357 -58 l-31 3 70 52 c38 28 79 62 89 74 11 12 47 39 80 62 33 22 76 55
95 73 19 18 101 75 181 126 225 143 228 146 235 175 17 65 -41 81 -108 30 -25
-19 -92 -63 -149 -97 -114 -68 -159 -100 -206 -143 -39 -36 -63 -32 -151 24
l-64 40 37 24 c20 14 38 25 41 25 3 0 31 17 62 37 31 20 71 44 87 53 148 82
235 156 235 199 0 66 -47 67 -122 2z"/>
<path d="M816 478 c-9 -12 -16 -29 -16 -38 0 -23 -51 -98 -119 -175 -51 -57
-61 -74 -59 -99 2 -23 10 -33 32 -41 28 -9 32 -6 103 70 73 79 134 174 147
229 15 61 -54 103 -88 54z"/>
<path d="M1542 468 c-19 -19 -14 -55 11 -81 42 -46 199 -188 239 -218 64 -46
128 -37 128 18 0 16 -13 31 -41 49 -23 14 -78 60 -123 103 -152 144 -181 162
-214 129z"/>
</g>
</svg>
