<?xml version="1.0" standalone="no"?>
<!DOCTYPE svg PUBLIC "-//W3C//DTD SVG 20010904//EN"
 "http://www.w3.org/TR/2001/REC-SVG-20010904/DTD/svg10.dtd">
<svg version="1.0" xmlns="http://www.w3.org/2000/svg"
 width="248.000000pt" height="248.000000pt" viewBox="0 0 248.000000 248.000000"
 preserveAspectRatio="xMidYMid meet">
<metadata>
Created by potrace 1.10, written by Peter Selinger 2001-2011
</metadata>
<g transform="translate(0.000000,248.000000) scale(0.100000,-0.100000)"
fill="#000000" stroke="none">
<path d="M991 2301 c-11 -11 -24 -45 -30 -78 -24 -123 -20 -117 -86 -126 -33
-4 -120 -17 -193 -28 -74 -11 -136 -19 -138 -16 -3 2 -11 43 -19 91 -16 99
-34 136 -69 136 -46 0 -51 -21 -35 -137 l16 -105 -23 -8 c-12 -5 -56 -12 -96
-16 -40 -3 -83 -12 -95 -20 -30 -19 -30 -59 1 -79 21 -14 33 -14 122 -1 75 12
100 12 106 3 4 -6 10 -41 13 -77 14 -158 21 -175 67 -168 40 5 51 46 39 146
-18 141 -27 127 97 146 172 26 237 34 241 31 1 -2 -5 -41 -15 -87 -10 -46 -18
-101 -18 -123 -1 -34 3 -41 26 -49 22 -8 32 -6 46 8 20 17 46 109 58 199 4 27
13 54 20 62 7 7 50 18 96 25 124 18 166 48 138 101 -13 23 -26 23 -162 0 -56
-9 -56 -8 -33 82 16 61 13 82 -16 97 -26 14 -37 12 -58 -9z"/>
<path d="M1139 1695 c-3 -2 -92 -13 -199 -25 -107 -11 -240 -27 -295 -35 -55
-9 -171 -24 -259 -35 -166 -20 -196 -31 -196 -73 0 -12 9 -31 20 -43 12 -12
37 -75 56 -140 45 -152 49 -160 71 -166 10 -2 59 1 108 7 50 7 117 16 149 20
l59 8 -7 -284 c-4 -156 -11 -332 -17 -392 -10 -115 -5 -141 31 -152 25 -8 59
10 69 38 5 12 12 130 16 261 4 132 9 247 10 255 2 9 4 77 4 152 l1 135 108 14
c59 8 132 15 162 15 50 0 56 3 76 32 11 17 36 73 53 125 18 51 41 115 52 142
26 66 25 111 -3 130 -21 15 -59 21 -69 11z m-49 -172 c-10 -32 -27 -80 -38
-108 l-19 -49 -124 -18 c-68 -9 -132 -17 -141 -18 -16 0 -18 12 -18 110 0 107
1 110 23 111 12 0 78 6 147 13 69 8 139 14 156 15 l32 1 -18 -57z m-448 -68
c1 -41 2 -89 2 -107 l1 -32 -124 -17 c-69 -10 -126 -17 -127 -16 -1 1 -15 47
-32 102 l-29 100 76 13 c42 7 108 17 146 21 39 5 73 9 78 10 4 0 8 -33 9 -74z"/>
</g>
</svg>
