<?xml version="1.0" standalone="no"?>
<!DOCTYPE svg PUBLIC "-//W3C//DTD SVG 20010904//EN"
 "http://www.w3.org/TR/2001/REC-SVG-20010904/DTD/svg10.dtd">
<svg version="1.0" xmlns="http://www.w3.org/2000/svg"
 width="248.000000pt" height="248.000000pt" viewBox="0 0 248.000000 248.000000"
 preserveAspectRatio="xMidYMid meet">
<metadata>
Created by potrace 1.10, written by Peter Selinger 2001-2011
</metadata>
<g transform="translate(0.000000,248.000000) scale(0.100000,-0.100000)"
fill="#000000" stroke="none">
<path d="M1115 2134 c-38 -7 -151 -24 -250 -38 -99 -14 -241 -35 -315 -46 -74
-12 -176 -27 -227 -34 -50 -7 -99 -18 -107 -25 -24 -20 -20 -58 8 -76 25 -17
8 -19 351 35 72 11 182 27 245 35 209 27 385 57 412 71 32 16 43 46 28 74 -12
23 -39 24 -145 4z"/>
</g>
</svg>
