<?xml version="1.0" standalone="no"?>
<!DOCTYPE svg PUBLIC "-//W3C//DTD SVG 20010904//EN"
 "http://www.w3.org/TR/2001/REC-SVG-20010904/DTD/svg10.dtd">
<svg version="1.0" xmlns="http://www.w3.org/2000/svg"
 width="248.000000pt" height="248.000000pt" viewBox="0 0 248.000000 248.000000"
 preserveAspectRatio="xMidYMid meet">
<metadata>
Created by potrace 1.10, written by Peter Selinger 2001-2011
</metadata>
<g transform="translate(0.000000,248.000000) scale(0.100000,-0.100000)"
fill="#000000" stroke="none">
<path d="M1108 2348 c-16 -17 -38 -48 -48 -67 -29 -58 -172 -269 -251 -371
-164 -212 -468 -485 -640 -575 -58 -30 -73 -48 -65 -80 20 -79 143 -15 426
219 198 165 390 390 555 654 39 61 73 111 77 112 3 0 38 -39 76 -87 74 -92
236 -255 337 -338 33 -28 96 -82 141 -121 108 -95 227 -174 447 -296 111 -62
155 -78 185 -67 19 7 23 15 20 41 -3 31 -11 37 -123 98 -252 136 -339 195
-557 382 -160 136 -301 277 -396 395 -117 145 -134 155 -184 101z"/>
<path d="M1495 1584 c-41 -16 -436 -54 -571 -55 -88 -1 -165 -6 -171 -12 -22
-16 -15 -55 13 -73 22 -15 48 -16 227 -10 225 8 547 47 584 71 25 17 30 54 11
73 -11 11 -71 15 -93 6z"/>
</g>
</svg>
