<?xml version="1.0" standalone="no"?>
<!DOCTYPE svg PUBLIC "-//W3C//DTD SVG 20010904//EN"
 "http://www.w3.org/TR/2001/REC-SVG-20010904/DTD/svg10.dtd">
<svg version="1.0" xmlns="http://www.w3.org/2000/svg"
 width="248.000000pt" height="248.000000pt" viewBox="0 0 248.000000 248.000000"
 preserveAspectRatio="xMidYMid meet">
<metadata>
Created by potrace 1.10, written by Peter Selinger 2001-2011
</metadata>
<g transform="translate(0.000000,248.000000) scale(0.100000,-0.100000)"
fill="#000000" stroke="none">
<path d="M991 2301 c-11 -11 -24 -45 -30 -78 -24 -123 -20 -117 -86 -126 -33
-4 -120 -17 -193 -28 -74 -11 -136 -19 -138 -16 -3 2 -11 43 -19 91 -16 99
-34 136 -69 136 -46 0 -51 -21 -35 -137 l16 -105 -23 -8 c-12 -5 -56 -12 -96
-16 -40 -3 -83 -12 -95 -20 -30 -19 -30 -59 1 -79 21 -14 33 -14 122 -1 75 12
100 12 106 3 4 -6 10 -41 13 -77 14 -158 21 -175 67 -168 40 5 51 46 39 146
-18 141 -27 127 97 146 172 26 237 34 241 31 1 -2 -5 -41 -15 -87 -10 -46 -18
-101 -18 -123 -1 -34 3 -41 26 -49 22 -8 32 -6 46 8 20 17 46 109 58 199 4 27
13 54 20 62 7 7 50 18 96 25 124 18 166 48 138 101 -13 23 -26 23 -162 0 -56
-9 -56 -8 -33 82 16 61 13 82 -16 97 -26 14 -37 12 -58 -9z"/>
</g>
</svg>
