<?xml version="1.0" standalone="no"?>
<!DOCTYPE svg PUBLIC "-//W3C//DTD SVG 20010904//EN"
 "http://www.w3.org/TR/2001/REC-SVG-20010904/DTD/svg10.dtd">
<svg version="1.0" xmlns="http://www.w3.org/2000/svg"
 width="248.000000pt" height="248.000000pt" viewBox="0 0 248.000000 248.000000"
 preserveAspectRatio="xMidYMid meet">
<metadata>
Created by potrace 1.10, written by Peter Selinger 2001-2011
</metadata>
<g transform="translate(0.000000,248.000000) scale(0.100000,-0.100000)"
fill="#000000" stroke="none">
<path d="M774 2277 c-38 -40 -123 -122 -188 -183 -172 -157 -316 -319 -316
-352 0 -22 24 -50 120 -141 66 -62 120 -117 120 -123 0 -11 -61 -92 -175 -231
-101 -125 -175 -236 -175 -264 0 -13 11 -30 25 -39 23 -15 29 -15 94 5 38 12
76 21 85 21 9 0 82 23 163 51 82 28 182 60 223 70 107 29 184 68 188 97 5 30
-14 52 -46 52 -25 0 -49 -7 -361 -110 -101 -33 -187 -59 -191 -58 -5 2 28 49
73 104 45 56 113 142 152 190 97 124 140 176 215 260 174 193 221 276 176 314
-28 22 -59 7 -96 -46 -55 -81 -115 -157 -145 -184 -15 -14 -47 -51 -72 -82
-24 -32 -50 -58 -56 -58 -17 1 -187 164 -187 180 0 7 115 126 255 265 222 218
255 254 255 281 0 16 -5 35 -12 42 -26 26 -55 12 -124 -61z"/>
</g>
</svg>
