<?xml version="1.0" standalone="no"?>
<!DOCTYPE svg PUBLIC "-//W3C//DTD SVG 20010904//EN"
 "http://www.w3.org/TR/2001/REC-SVG-20010904/DTD/svg10.dtd">
<svg version="1.0" xmlns="http://www.w3.org/2000/svg"
 width="248.000000pt" height="248.000000pt" viewBox="0 0 248.000000 248.000000"
 preserveAspectRatio="xMidYMid meet">
<metadata>
Created by potrace 1.10, written by Peter Selinger 2001-2011
</metadata>
<g transform="translate(0.000000,248.000000) scale(0.100000,-0.100000)"
fill="#000000" stroke="none">
<path d="M774 2277 c-38 -40 -123 -122 -188 -183 -170 -156 -316 -319 -316
-352 0 -21 28 -53 133 -154 132 -127 161 -145 187 -113 31 38 16 66 -89 166
-55 53 -101 102 -101 109 0 8 115 126 255 265 222 218 255 254 255 281 0 16
-5 35 -12 42 -26 26 -55 12 -124 -61z"/>
</g>
</svg>
