<?xml version="1.0" standalone="no"?>
<!DOCTYPE svg PUBLIC "-//W3C//DTD SVG 20010904//EN"
 "http://www.w3.org/TR/2001/REC-SVG-20010904/DTD/svg10.dtd">
<svg version="1.0" xmlns="http://www.w3.org/2000/svg"
 width="248.000000pt" height="248.000000pt" viewBox="0 0 248.000000 248.000000"
 preserveAspectRatio="xMidYMid meet">
<metadata>
Created by potrace 1.10, written by Peter Selinger 2001-2011
</metadata>
<g transform="translate(0.000000,248.000000) scale(0.100000,-0.100000)"
fill="#000000" stroke="none">
<path d="M1856 2307 c-130 -137 -226 -250 -226 -266 0 -24 26 -51 47 -51 26 0
74 42 153 135 41 49 90 103 108 121 37 39 40 56 12 84 -29 29 -48 25 -94 -23z"/>
<path d="M1272 2248 c-17 -17 -15 -53 5 -69 9 -8 39 -60 65 -116 45 -93 52
-103 77 -103 34 0 51 17 51 50 0 33 -83 202 -112 230 -24 22 -68 26 -86 8z"/>
<path d="M442 2008 c-7 -7 -12 -35 -12 -64 0 -73 -47 -387 -68 -459 -18 -59
-19 -60 -63 -68 -24 -5 -81 -19 -126 -33 -86 -26 -110 -46 -98 -84 12 -39 38
-42 124 -14 129 41 128 43 77 -112 -24 -73 -51 -142 -60 -155 -31 -45 -19 -78
34 -94 41 -13 210 -144 210 -164 0 -22 -133 -162 -178 -188 -65 -37 -82 -53
-82 -78 0 -28 18 -45 47 -45 46 0 109 43 204 140 l96 99 36 -37 c19 -20 63
-71 97 -112 73 -89 90 -99 125 -76 22 15 26 23 23 59 -2 34 -8 44 -30 55 -16
7 -59 50 -96 95 -38 45 -76 88 -84 94 -13 11 -7 29 43 131 83 168 169 424 169
502 0 47 8 56 57 69 33 9 44 18 49 38 4 14 2 33 -3 42 -20 31 -30 29 -393 -69
-36 -10 -68 -16 -72 -14 -3 2 -2 19 3 37 15 52 59 366 59 422 0 30 -6 60 -16
73 -17 24 -53 29 -72 10z m288 -613 c0 -63 -180 -535 -204 -535 -9 0 -196 142
-196 149 0 4 17 58 38 121 22 63 45 139 51 168 7 28 16 52 19 52 4 1 63 16
132 34 157 42 160 42 160 11z"/>
<path d="M1900 1963 c-25 -2 -90 -10 -145 -18 -127 -19 -251 -33 -340 -39 -38
-3 -106 -8 -150 -11 -89 -7 -125 -24 -125 -59 0 -45 15 -47 191 -36 160 11
417 37 428 45 3 1 57 8 120 14 63 7 122 16 132 21 24 13 33 45 19 70 -11 21
-19 21 -130 13z"/>
<path d="M1835 1660 c-93 -10 -233 -24 -310 -30 -257 -21 -376 -38 -396 -56
-52 -47 15 -119 80 -85 17 9 223 34 391 46 47 4 141 13 210 21 169 19 163 20
158 -13 -3 -16 -15 -86 -27 -158 -12 -71 -29 -156 -37 -187 -24 -95 -16 -128
31 -128 48 0 61 34 99 270 14 85 30 171 36 190 18 62 13 117 -12 134 -12 9
-29 16 -38 15 -8 -1 -91 -9 -185 -19z"/>
</g>
</svg>
