<?xml version="1.0" standalone="no"?>
<!DOCTYPE svg PUBLIC "-//W3C//DTD SVG 20010904//EN"
 "http://www.w3.org/TR/2001/REC-SVG-20010904/DTD/svg10.dtd">
<svg version="1.0" xmlns="http://www.w3.org/2000/svg"
 width="248.000000pt" height="248.000000pt" viewBox="0 0 248.000000 248.000000"
 preserveAspectRatio="xMidYMid meet">
<metadata>
Created by potrace 1.10, written by Peter Selinger 2001-2011
</metadata>
<g transform="translate(0.000000,248.000000) scale(0.100000,-0.100000)"
fill="#000000" stroke="none">
<path d="M1856 2307 c-130 -137 -226 -250 -226 -266 0 -24 26 -51 47 -51 26 0
74 42 153 135 41 49 90 103 108 121 37 39 40 56 12 84 -29 29 -48 25 -94 -23z"/>
<path d="M1272 2248 c-17 -17 -15 -53 5 -69 9 -8 39 -60 65 -116 45 -93 52
-103 77 -103 34 0 51 17 51 50 0 33 -83 202 -112 230 -24 22 -68 26 -86 8z"/>
<path d="M442 2008 c-7 -7 -12 -35 -12 -64 0 -73 -47 -387 -68 -459 -18 -59
-19 -60 -63 -68 -24 -5 -81 -19 -126 -33 -86 -26 -110 -46 -98 -84 12 -39 38
-42 124 -14 129 41 128 43 77 -112 -24 -73 -51 -142 -60 -155 -31 -45 -19 -78
34 -94 41 -13 210 -144 210 -164 0 -22 -133 -162 -178 -188 -65 -37 -82 -53
-82 -78 0 -28 18 -45 47 -45 46 0 109 43 204 140 l96 99 36 -37 c19 -20 63
-71 97 -112 73 -89 90 -99 125 -76 22 15 26 23 23 59 -2 34 -8 44 -30 55 -16
7 -59 50 -96 95 -38 45 -76 88 -84 94 -13 11 -7 29 43 131 83 168 169 424 169
502 0 47 8 56 57 69 33 9 44 18 49 38 4 14 2 33 -3 42 -20 31 -30 29 -393 -69
-36 -10 -68 -16 -72 -14 -3 2 -2 19 3 37 15 52 59 366 59 422 0 30 -6 60 -16
73 -17 24 -53 29 -72 10z m288 -613 c0 -63 -180 -535 -204 -535 -9 0 -196 142
-196 149 0 4 17 58 38 121 22 63 45 139 51 168 7 28 16 52 19 52 4 1 63 16
132 34 157 42 160 42 160 11z"/>
<path d="M1900 1963 c-25 -2 -90 -10 -145 -18 -127 -19 -251 -33 -340 -39 -38
-3 -106 -8 -150 -11 -89 -7 -125 -24 -125 -59 0 -39 21 -47 111 -44 l84 3 0
-90 0 -90 -94 -12 c-59 -8 -101 -19 -113 -29 -40 -37 -5 -102 49 -91 143 29
145 30 155 16 7 -11 3 -178 -5 -186 -1 -1 -79 -13 -172 -28 -225 -35 -260 -43
-290 -66 -46 -37 -24 -97 32 -86 245 51 415 77 427 67 4 -5 5 -40 1 -78 l-7
-70 -57 -11 c-68 -13 -101 -34 -101 -65 0 -28 18 -46 47 -46 13 0 23 -5 23
-11 0 -15 -84 -168 -139 -254 -70 -108 -188 -260 -224 -288 -61 -47 -87 -79
-87 -108 0 -33 28 -53 58 -41 76 28 263 251 380 452 83 143 84 143 78 95 -3
-22 -10 -101 -16 -175 -5 -74 -15 -192 -22 -262 -10 -119 -10 -129 7 -148 21
-23 57 -26 74 -7 6 8 18 108 26 223 9 115 24 285 33 378 l17 170 27 7 c15 4
64 8 110 10 l83 4 8 -300 c4 -165 9 -355 11 -422 3 -137 10 -156 60 -151 53 5
55 24 35 288 -16 211 -24 440 -16 440 2 0 93 -89 203 -198 194 -193 269 -255
387 -321 55 -31 59 -32 82 -17 29 19 33 56 8 78 -10 8 -40 28 -68 44 -81 45
-151 104 -295 246 -124 122 -310 317 -310 324 0 1 26 5 58 9 130 14 133 15
147 49 8 18 21 38 29 45 15 13 46 130 46 175 0 14 5 28 12 32 7 5 77 9 155 9
151 2 173 8 173 50 0 44 -22 50 -172 47 l-138 -4 0 29 c0 15 7 53 15 83 22 84
20 136 -8 154 -20 13 -39 13 -170 0 -82 -8 -152 -12 -158 -9 -5 4 -9 44 -9 91
0 101 -6 97 160 114 62 6 121 15 131 20 24 13 33 45 19 70 -11 21 -19 21 -130
13z m-270 -220 c0 -43 -5 -85 -10 -93 -10 -16 -167 -33 -183 -20 -4 4 -7 45
-5 91 l3 84 55 6 c30 3 74 6 98 7 l42 2 0 -77z m340 -185 c0 -15 -30 -161 -34
-165 -6 -7 -197 -23 -206 -18 -12 7 -13 144 -2 162 4 6 45 16 92 21 125 14
150 14 150 0z m-343 -99 c1 -41 0 -81 -3 -90 -3 -12 -27 -19 -89 -28 -47 -6
-90 -9 -95 -6 -13 8 -13 155 -1 174 8 13 140 32 176 26 6 -1 11 -35 12 -76z
m277 -271 l-21 -83 -64 -7 c-35 -4 -70 -6 -76 -3 -9 3 -13 30 -13 89 l0 84 78
7 c42 4 82 8 87 9 26 8 28 -18 9 -96z m-276 -25 l3 -81 -78 -7 c-43 -3 -89 -7
-103 -8 -23 -2 -25 2 -28 45 -2 25 1 61 6 80 8 32 11 33 78 45 121 20 119 21
122 -74z"/>
</g>
</svg>
