<?xml version="1.0" standalone="no"?>
<!DOCTYPE svg PUBLIC "-//W3C//DTD SVG 20010904//EN"
 "http://www.w3.org/TR/2001/REC-SVG-20010904/DTD/svg10.dtd">
<svg version="1.0" xmlns="http://www.w3.org/2000/svg"
 width="248.000000pt" height="248.000000pt" viewBox="0 0 248.000000 248.000000"
 preserveAspectRatio="xMidYMid meet">
<metadata>
Created by potrace 1.10, written by Peter Selinger 2001-2011
</metadata>
<g transform="translate(0.000000,248.000000) scale(0.100000,-0.100000)"
fill="#000000" stroke="none">
<path d="M442 2008 c-7 -7 -12 -35 -12 -64 0 -202 -144 -826 -214 -926 -31
-44 -18 -77 34 -93 70 -22 296 -223 420 -374 41 -50 83 -94 93 -97 10 -3 29 2
43 11 21 14 25 23 22 58 -2 34 -8 44 -31 55 -15 7 -57 49 -93 93 -73 88 -196
201 -304 280 -39 28 -70 54 -70 58 0 4 16 54 35 112 56 163 114 409 141 588
28 193 30 258 8 289 -17 24 -53 29 -72 10z"/>
</g>
</svg>
