<?xml version="1.0" standalone="no"?>
<!DOCTYPE svg PUBLIC "-//W3C//DTD SVG 20010904//EN"
 "http://www.w3.org/TR/2001/REC-SVG-20010904/DTD/svg10.dtd">
<svg version="1.0" xmlns="http://www.w3.org/2000/svg"
 width="248.000000pt" height="248.000000pt" viewBox="0 0 248.000000 248.000000"
 preserveAspectRatio="xMidYMid meet">
<metadata>
Created by potrace 1.10, written by Peter Selinger 2001-2011
</metadata>
<g transform="translate(0.000000,248.000000) scale(0.100000,-0.100000)"
fill="#000000" stroke="none">
<path d="M1249 2373 c-11 -12 -15 -64 -17 -213 l-3 -197 -67 -7 c-37 -4 -132
-13 -212 -21 -80 -7 -152 -16 -160 -19 -13 -5 -15 13 -12 136 3 160 -5 191
-50 196 -48 6 -55 -22 -60 -228 -3 -102 -3 -191 0 -198 9 -27 52 -33 116 -17
33 8 113 20 176 25 63 6 151 14 195 20 293 34 370 40 535 43 183 4 185 4 197
28 23 43 7 321 -21 379 -17 36 -60 39 -82 6 -14 -23 -15 -35 -5 -101 6 -42 11
-102 11 -135 l0 -58 -62 -6 c-35 -3 -111 -8 -169 -10 -58 -3 -131 -8 -162 -12
l-57 -7 0 184 c0 151 -3 189 -16 207 -18 26 -56 29 -75 5z"/>
<path d="M1865 1769 c-27 -4 -122 -12 -210 -19 -88 -6 -203 -18 -255 -26 -52
-8 -147 -19 -210 -24 -63 -5 -180 -20 -260 -33 -80 -14 -170 -28 -201 -31 -30
-4 -69 -15 -86 -26 l-31 -19 -5 -238 c-3 -131 -12 -290 -20 -354 -29 -219
-142 -551 -253 -740 -43 -74 -51 -103 -36 -125 12 -17 42 -25 61 -14 44 23
172 283 234 477 70 214 78 247 93 362 8 64 19 150 24 191 6 41 10 143 10 225
l0 151 198 32 c108 17 237 34 285 37 48 3 120 12 160 20 40 7 124 16 187 20
180 10 362 34 388 51 16 11 22 23 20 41 -4 37 -34 51 -93 42z"/>
<path d="M1615 1393 c-27 -2 -124 -13 -215 -24 -326 -41 -396 -49 -445 -49
-63 0 -97 -21 -93 -58 2 -18 13 -31 33 -41 31 -15 82 -11 355 24 183 23 282
34 380 40 52 4 112 11 132 16 46 12 65 41 49 75 -10 22 -16 24 -78 22 -38 -1
-90 -3 -118 -5z"/>
<path d="M1730 953 c-19 -2 -105 -12 -190 -23 -85 -10 -195 -22 -245 -25 -49
-4 -151 -15 -225 -26 -74 -11 -171 -24 -215 -30 -85 -11 -115 -28 -115 -64 0
-53 37 -56 267 -21 87 14 221 30 298 36 77 6 185 17 240 25 55 8 159 18 232
23 139 9 163 17 163 58 0 48 -63 62 -210 47z"/>
</g>
</svg>
