<?xml version="1.0" standalone="no"?>
<!DOCTYPE svg PUBLIC "-//W3C//DTD SVG 20010904//EN"
 "http://www.w3.org/TR/2001/REC-SVG-20010904/DTD/svg10.dtd">
<svg version="1.0" xmlns="http://www.w3.org/2000/svg"
 width="248.000000pt" height="248.000000pt" viewBox="0 0 248.000000 248.000000"
 preserveAspectRatio="xMidYMid meet">
<metadata>
Created by potrace 1.10, written by Peter Selinger 2001-2011
</metadata>
<g transform="translate(0.000000,248.000000) scale(0.100000,-0.100000)"
fill="#000000" stroke="none">
<path d="M736 2118 c-11 -17 -16 -77 -21 -228 -4 -113 -9 -208 -11 -212 -3 -4
-28 -14 -57 -23 -161 -48 -298 -84 -342 -90 -58 -8 -75 -19 -75 -49 0 -61 79
-62 294 -1 87 25 163 45 167 45 10 0 5 -411 -6 -516 -7 -68 -7 -72 15 -84 16
-9 29 -9 45 -2 32 15 43 93 50 352 11 441 17 568 31 707 5 59 4 77 -10 98 -21
32 -60 33 -80 3z"/>
</g>
</svg>
