<?xml version="1.0" standalone="no"?>
<!DOCTYPE svg PUBLIC "-//W3C//DTD SVG 20010904//EN"
 "http://www.w3.org/TR/2001/REC-SVG-20010904/DTD/svg10.dtd">
<svg version="1.0" xmlns="http://www.w3.org/2000/svg"
 width="248.000000pt" height="248.000000pt" viewBox="0 0 248.000000 248.000000"
 preserveAspectRatio="xMidYMid meet">
<metadata>
Created by potrace 1.10, written by Peter Selinger 2001-2011
</metadata>
<g transform="translate(0.000000,248.000000) scale(0.100000,-0.100000)"
fill="#000000" stroke="none">
<path d="M106 1918 c-12 -18 -13 -32 -6 -63 17 -70 50 -455 50 -575 0 -77 4
-120 12 -128 17 -17 63 -15 79 5 16 18 19 179 6 328 -4 50 -10 122 -13 160 -9
112 -34 248 -50 273 -8 13 -25 22 -39 22 -14 0 -31 -9 -39 -22z"/>
</g>
</svg>
