<?xml version="1.0" standalone="no"?>
<!DOCTYPE svg PUBLIC "-//W3C//DTD SVG 20010904//EN"
 "http://www.w3.org/TR/2001/REC-SVG-20010904/DTD/svg10.dtd">
<svg version="1.0" xmlns="http://www.w3.org/2000/svg"
 width="248.000000pt" height="248.000000pt" viewBox="0 0 248.000000 248.000000"
 preserveAspectRatio="xMidYMid meet">
<metadata>
Created by potrace 1.10, written by Peter Selinger 2001-2011
</metadata>
<g transform="translate(0.000000,248.000000) scale(0.100000,-0.100000)"
fill="#000000" stroke="none">
<path d="M440 2004 c-102 -19 -213 -38 -248 -42 -42 -6 -69 -15 -84 -29 -20
-21 -20 -23 -5 -105 19 -97 47 -418 50 -568 l2 -105 46 -25 47 -24 118 13 c66
8 157 17 202 20 107 8 118 19 126 129 4 42 11 129 16 192 28 330 23 529 -14
559 -26 22 -75 19 -256 -15z m176 -291 c-4 -120 -12 -249 -16 -288 -5 -38 -10
-93 -10 -121 l0 -51 -122 -17 c-68 -9 -142 -16 -165 -16 l-43 0 0 63 c0 34
-10 163 -21 287 -30 314 -33 280 26 295 44 11 115 24 290 54 28 5 54 9 59 10
5 1 6 -90 2 -216z"/>
</g>
</svg>
