<?xml version="1.0" standalone="no"?>
<!DOCTYPE svg PUBLIC "-//W3C//DTD SVG 20010904//EN"
 "http://www.w3.org/TR/2001/REC-SVG-20010904/DTD/svg10.dtd">
<svg version="1.0" xmlns="http://www.w3.org/2000/svg"
 width="248.000000pt" height="248.000000pt" viewBox="0 0 248.000000 248.000000"
 preserveAspectRatio="xMidYMid meet">
<metadata>
Created by potrace 1.10, written by Peter Selinger 2001-2011
</metadata>
<g transform="translate(0.000000,248.000000) scale(0.100000,-0.100000)"
fill="#000000" stroke="none">
<path d="M1206 2378 c-13 -18 -16 -53 -16 -175 0 -116 -3 -153 -12 -153 -44
-1 -262 -41 -274 -51 -19 -16 -18 -53 3 -70 20 -17 70 -16 191 3 l92 15 0 -97
c0 -129 -7 -160 -34 -160 -40 0 -195 -37 -211 -50 -19 -16 -19 -54 0 -70 20
-16 53 -15 150 5 43 8 79 14 80 13 7 -9 -17 -273 -25 -284 -14 -15 -144 -64
-173 -64 -33 0 -67 -28 -67 -54 0 -58 74 -64 196 -15 44 17 144 55 224 85 80
30 179 71 220 91 68 35 75 41 78 70 3 27 -1 35 -23 45 -22 10 -35 7 -93 -20
-67 -32 -220 -92 -234 -92 -11 0 3 244 16 257 6 6 58 19 116 27 107 16 130 28
130 68 0 10 -11 25 -25 34 -22 15 -33 15 -122 0 -53 -8 -98 -14 -99 -13 -1 1
1 56 3 122 l6 121 113 16 c141 21 168 33 172 74 5 53 -14 60 -121 41 -51 -9
-109 -19 -129 -22 l-38 -6 0 143 c0 157 -9 188 -55 188 -13 0 -31 -10 -39 -22z"/>
<path d="M2195 2174 c-60 -8 -182 -24 -270 -35 -171 -21 -205 -34 -205 -74 0
-43 34 -56 112 -43 37 7 69 10 72 7 6 -6 -26 -122 -75 -264 -47 -139 -164
-386 -214 -455 -50 -69 -44 -110 17 -110 23 0 37 11 73 63 93 127 251 508 295
707 7 30 14 61 16 68 2 7 20 12 41 12 21 0 85 7 142 15 57 8 106 13 108 11 8
-8 -42 -276 -91 -489 -25 -107 -73 -240 -103 -286 l-15 -23 -47 46 c-53 52
-83 58 -106 22 -19 -29 -12 -47 43 -108 71 -79 131 -89 182 -31 63 71 111 199
168 448 27 116 38 171 73 375 10 59 -1 119 -25 139 -23 19 -74 20 -191 5z"/>
<path d="M440 2004 c-102 -19 -213 -38 -248 -42 -42 -6 -69 -15 -84 -29 -20
-21 -20 -23 -5 -105 19 -97 47 -418 50 -568 l2 -105 47 -25 c46 -24 47 -24
160 -11 62 7 142 15 178 17 115 8 127 12 139 42 14 32 25 173 42 496 12 235 6
319 -25 345 -26 22 -75 19 -256 -15z m176 -291 c-4 -120 -12 -249 -16 -288 -5
-38 -10 -93 -10 -121 l0 -51 -122 -17 c-68 -9 -142 -16 -165 -16 l-43 0 0 63
c0 34 -10 163 -21 287 -30 314 -33 280 26 295 44 11 115 24 290 54 28 5 54 9
59 10 5 1 6 -90 2 -216z"/>
<path d="M1416 1218 c-9 -12 -16 -36 -16 -53 0 -16 -11 -79 -23 -140 l-23
-110 -104 -12 c-96 -12 -225 -21 -520 -39 -121 -7 -153 -21 -148 -62 6 -49 38
-55 221 -42 89 6 212 16 272 22 175 17 245 21 245 14 0 -4 -20 -46 -44 -94
-59 -116 -128 -212 -219 -304 -64 -65 -93 -85 -204 -141 -71 -36 -151 -71
-179 -78 -66 -16 -94 -34 -94 -63 0 -38 23 -49 88 -43 44 4 91 23 207 81 83
41 172 93 199 116 65 54 153 154 210 238 48 71 128 229 139 273 6 25 10 26
104 33 54 4 248 11 431 14 315 7 334 8 348 26 18 25 18 37 0 62 -14 18 -29 19
-298 19 -156 0 -343 -4 -416 -9 l-133 -9 6 29 c4 16 11 45 16 64 5 19 14 68
19 109 8 62 7 79 -5 98 -20 30 -59 30 -79 1z"/>
</g>
</svg>
