<?xml version="1.0" standalone="no"?>
<!DOCTYPE svg PUBLIC "-//W3C//DTD SVG 20010904//EN"
 "http://www.w3.org/TR/2001/REC-SVG-20010904/DTD/svg10.dtd">
<svg version="1.0" xmlns="http://www.w3.org/2000/svg"
 width="248.000000pt" height="248.000000pt" viewBox="0 0 248.000000 248.000000"
 preserveAspectRatio="xMidYMid meet">
<metadata>
Created by potrace 1.10, written by Peter Selinger 2001-2011
</metadata>
<g transform="translate(0.000000,248.000000) scale(0.100000,-0.100000)"
fill="#000000" stroke="none">
<path d="M502 2368 c-25 -25 -12 -57 46 -116 31 -33 80 -85 109 -116 41 -45
57 -56 82 -56 29 0 51 21 51 50 0 6 -19 32 -43 58 -24 26 -58 67 -77 91 -62
80 -137 120 -168 89z"/>
<path d="M1696 2358 c-11 -18 -16 -80 -22 -260 -7 -233 -7 -238 -28 -238 -60
-1 -367 -31 -406 -40 -55 -14 -70 -26 -70 -56 0 -39 37 -56 101 -44 54 9 307
30 367 30 l32 0 0 -249 0 -248 -70 -7 c-39 -3 -126 -9 -193 -12 -138 -7 -170
-19 -165 -62 2 -16 13 -32 30 -41 23 -14 50 -13 244 2 119 10 308 23 418 28
112 6 212 16 226 22 34 17 39 60 8 81 -23 17 -85 17 -315 0 l-73 -5 0 250 c0
195 3 250 13 254 7 3 116 13 242 22 251 19 278 27 273 73 -6 50 -34 55 -250
37 -106 -8 -213 -18 -237 -21 l-44 -7 7 234 c6 205 5 237 -9 257 -9 12 -27 22
-40 22 -14 0 -31 -9 -39 -22z"/>
<path d="M950 1973 c-14 -2 -51 -8 -84 -14 -32 -6 -97 -15 -145 -20 -122 -14
-214 -26 -305 -38 -43 -6 -126 -15 -184 -21 -121 -11 -155 -27 -150 -68 6 -54
44 -56 338 -17 63 8 153 20 200 26 215 27 367 53 388 66 13 8 22 23 22 37 0
35 -32 55 -80 49z"/>
<path d="M725 1560 c-33 -4 -80 -13 -105 -19 -25 -6 -97 -18 -160 -26 -63 -9
-125 -23 -137 -31 -30 -19 -30 -59 0 -78 25 -17 89 -11 272 25 55 10 139 23
188 28 94 9 117 20 117 57 0 52 -36 61 -175 44z"/>
<path d="M790 1173 c-187 -30 -301 -46 -374 -54 -95 -10 -126 -25 -126 -64 0
-11 5 -26 12 -33 16 -16 110 -15 215 3 49 8 146 24 216 34 70 11 134 25 142
31 22 18 19 67 -4 80 -20 10 -35 11 -81 3z"/>
<path d="M725 844 c-22 -3 -92 -13 -155 -24 -63 -10 -153 -22 -199 -26 -66 -6
-89 -12 -110 -30 l-26 -22 -3 -312 c-2 -259 0 -316 12 -334 25 -39 77 -46 340
-46 l248 0 28 28 c23 24 29 40 34 93 15 170 21 308 21 461 0 156 -1 169 -21
188 -22 22 -90 32 -169 24z m81 -276 c-3 -95 -9 -226 -12 -290 l-7 -118 -223
0 -224 0 0 260 0 260 23 4 c12 3 42 7 67 10 25 3 77 11 115 17 84 13 187 26
234 28 l34 1 -7 -172z"/>
<path d="M1247 798 c-11 -18 -15 -93 -16 -353 -2 -318 -1 -332 18 -349 26 -24
63 -17 78 15 9 18 13 115 14 342 1 279 -1 320 -15 342 -21 32 -61 33 -79 3z"/>
</g>
</svg>
