<?xml version="1.0" standalone="no"?>
<!DOCTYPE svg PUBLIC "-//W3C//DTD SVG 20010904//EN"
 "http://www.w3.org/TR/2001/REC-SVG-20010904/DTD/svg10.dtd">
<svg version="1.0" xmlns="http://www.w3.org/2000/svg"
 width="248.000000pt" height="248.000000pt" viewBox="0 0 248.000000 248.000000"
 preserveAspectRatio="xMidYMid meet">
<metadata>
Created by potrace 1.10, written by Peter Selinger 2001-2011
</metadata>
<g transform="translate(0.000000,248.000000) scale(0.100000,-0.100000)"
fill="#000000" stroke="none">
<path d="M502 2368 c-25 -25 -12 -58 46 -117 31 -33 81 -84 110 -115 58 -62
101 -75 122 -37 16 31 13 39 -33 89 -24 26 -58 67 -77 91 -62 80 -137 120
-168 89z"/>
<path d="M1696 2358 c-11 -18 -16 -80 -22 -260 l-7 -238 -23 0 c-50 0 -283
-21 -354 -31 -41 -6 -85 -18 -97 -26 -26 -16 -30 -54 -8 -73 19 -15 36 -16
165 -2 58 6 153 14 213 18 l107 7 0 -250 0 -250 -67 -7 c-38 -3 -124 -9 -193
-12 -80 -4 -133 -11 -147 -20 -32 -20 -30 -59 3 -80 24 -16 43 -16 332 4 169
12 359 25 423 28 64 3 127 11 140 18 33 16 37 59 7 80 -23 17 -85 17 -315 0
l-73 -5 0 250 c0 229 1 250 18 255 9 3 116 12 237 22 121 9 231 22 245 28 19
8 25 19 25 41 0 54 -26 58 -247 40 -106 -8 -213 -18 -237 -21 l-44 -7 7 234
c6 205 5 237 -9 257 -9 12 -27 22 -40 22 -14 0 -31 -9 -39 -22z"/>
<path d="M860 1959 c-19 -4 -78 -13 -130 -19 -137 -16 -224 -27 -314 -39 -43
-6 -126 -15 -184 -21 -62 -6 -115 -16 -129 -25 -30 -20 -30 -60 0 -79 24 -16
84 -12 312 18 61 9 151 20 200 26 200 24 371 53 393 66 24 16 29 53 10 72 -14
14 -105 14 -158 1z"/>
<path d="M745 1563 c-22 -2 -80 -12 -130 -22 -49 -11 -130 -25 -180 -31 -107
-14 -138 -30 -133 -68 6 -56 38 -57 293 -11 61 11 147 23 193 28 89 10 112 21
112 57 0 49 -29 58 -155 47z"/>
<path d="M665 1154 c-82 -13 -192 -28 -244 -34 -101 -11 -131 -26 -131 -65 0
-11 5 -26 12 -33 16 -16 110 -15 215 3 49 8 146 24 216 34 70 11 134 25 142
31 22 18 19 67 -4 80 -25 13 -27 13 -206 -16z"/>
<path d="M1859 896 c-6 -6 -85 -15 -401 -45 -144 -13 -191 -21 -206 -34 -17
-16 -18 -39 -20 -361 l-3 -344 31 -25 c38 -32 83 -41 158 -32 68 9 317 8 533
-1 216 -9 200 -33 219 320 14 245 13 425 -3 455 -27 53 -58 65 -185 69 -64 2
-120 1 -123 -2z m208 -348 c-4 -134 -10 -274 -13 -313 l-6 -70 -355 0 -354 0
2 283 c1 279 2 282 23 287 11 2 75 9 141 15 170 14 319 30 324 36 2 2 58 4
124 4 l120 0 -6 -242z"/>
<path d="M725 844 c-22 -2 -78 -11 -125 -19 -47 -8 -139 -21 -204 -29 -174
-21 -160 10 -164 -367 -3 -349 -4 -346 66 -367 48 -15 499 -17 536 -2 49 18
58 48 70 233 6 94 11 247 11 339 0 159 -1 169 -22 189 -23 23 -82 31 -168 23z
m81 -281 c-3 -98 -9 -229 -12 -290 l-7 -113 -223 0 -224 0 0 260 0 260 23 4
c71 15 352 52 416 54 l34 2 -7 -177z"/>
</g>
</svg>
