<?xml version="1.0" standalone="no"?>
<!DOCTYPE svg PUBLIC "-//W3C//DTD SVG 20010904//EN"
 "http://www.w3.org/TR/2001/REC-SVG-20010904/DTD/svg10.dtd">
<svg version="1.0" xmlns="http://www.w3.org/2000/svg"
 width="248.000000pt" height="248.000000pt" viewBox="0 0 248.000000 248.000000"
 preserveAspectRatio="xMidYMid meet">
<metadata>
Created by potrace 1.10, written by Peter Selinger 2001-2011
</metadata>
<g transform="translate(0.000000,248.000000) scale(0.100000,-0.100000)"
fill="#000000" stroke="none">
<path d="M1206 2378 c-13 -18 -16 -53 -16 -175 0 -116 -3 -153 -12 -153 -44
-1 -262 -41 -274 -51 -19 -16 -18 -53 3 -70 20 -17 70 -16 191 3 l92 15 0 -76
c0 -103 -28 -545 -36 -565 -10 -27 23 -66 55 -66 22 0 31 6 39 28 18 47 31
178 43 443 l13 255 113 17 c140 20 167 32 171 73 5 53 -14 60 -121 41 -51 -9
-109 -19 -129 -22 l-38 -6 0 143 c0 157 -9 188 -55 188 -13 0 -31 -10 -39 -22z"/>
<path d="M440 2004 c-102 -19 -213 -38 -248 -42 -42 -6 -69 -15 -84 -29 -20
-21 -20 -23 -5 -105 19 -97 47 -418 50 -568 l2 -105 46 -25 47 -24 118 13 c66
8 157 17 202 20 107 8 118 19 126 129 4 42 11 129 16 192 28 330 23 529 -14
559 -26 22 -75 19 -256 -15z m176 -291 c-4 -120 -12 -249 -16 -288 -5 -38 -10
-93 -10 -121 l0 -51 -122 -17 c-68 -9 -142 -16 -165 -16 l-43 0 0 63 c0 34
-10 163 -21 287 -30 314 -33 280 26 295 44 11 115 24 290 54 28 5 54 9 59 10
5 1 6 -90 2 -216z"/>
</g>
</svg>
