<?xml version="1.0" standalone="no"?>
<!DOCTYPE svg PUBLIC "-//W3C//DTD SVG 20010904//EN"
 "http://www.w3.org/TR/2001/REC-SVG-20010904/DTD/svg10.dtd">
<svg version="1.0" xmlns="http://www.w3.org/2000/svg"
 width="248.000000pt" height="248.000000pt" viewBox="0 0 248.000000 248.000000"
 preserveAspectRatio="xMidYMid meet">
<metadata>
Created by potrace 1.10, written by Peter Selinger 2001-2011
</metadata>
<g transform="translate(0.000000,248.000000) scale(0.100000,-0.100000)"
fill="#000000" stroke="none">
<path d="M502 2368 c-25 -25 -12 -57 46 -116 31 -33 80 -85 109 -116 41 -45
57 -56 82 -56 29 0 51 21 51 50 0 6 -19 32 -43 58 -24 26 -58 67 -77 91 -62
80 -137 120 -168 89z"/>
<path d="M950 1973 c-14 -2 -51 -8 -84 -14 -32 -6 -97 -15 -145 -20 -122 -14
-214 -26 -305 -38 -43 -6 -126 -15 -184 -21 -121 -11 -155 -27 -150 -68 6 -54
44 -56 338 -17 63 8 153 20 200 26 215 27 367 53 388 66 13 8 22 23 22 37 0
35 -32 55 -80 49z"/>
<path d="M725 1560 c-33 -4 -80 -13 -105 -19 -25 -6 -97 -18 -160 -26 -63 -9
-125 -23 -137 -31 -30 -19 -30 -59 0 -78 25 -17 89 -11 272 25 55 10 139 23
188 28 94 9 117 20 117 57 0 52 -36 61 -175 44z"/>
<path d="M790 1173 c-187 -30 -301 -46 -374 -54 -95 -10 -126 -25 -126 -64 0
-11 5 -26 12 -33 16 -16 110 -15 215 3 49 8 146 24 216 34 70 11 134 25 142
31 22 18 19 67 -4 80 -20 10 -35 11 -81 3z"/>
<path d="M246 738 c-14 -19 -16 -67 -16 -323 0 -326 3 -345 55 -345 52 0 55
19 55 345 0 326 -3 345 -55 345 -13 0 -31 -10 -39 -22z"/>
</g>
</svg>
