<?xml version="1.0" standalone="no"?>
<!DOCTYPE svg PUBLIC "-//W3C//DTD SVG 20010904//EN"
 "http://www.w3.org/TR/2001/REC-SVG-20010904/DTD/svg10.dtd">
<svg version="1.0" xmlns="http://www.w3.org/2000/svg"
 width="248.000000pt" height="248.000000pt" viewBox="0 0 248.000000 248.000000"
 preserveAspectRatio="xMidYMid meet">
<metadata>
Created by potrace 1.10, written by Peter Selinger 2001-2011
</metadata>
<g transform="translate(0.000000,248.000000) scale(0.100000,-0.100000)"
fill="#000000" stroke="none">
<path d="M1497 2359 c-14 -19 -15 -50 -10 -208 l6 -187 -79 -12 c-43 -7 -117
-15 -164 -18 -47 -4 -95 -13 -107 -20 -31 -19 -30 -59 2 -80 21 -14 36 -15
127 -4 57 6 129 14 161 17 64 7 62 11 51 -84 -6 -49 -9 -53 -33 -53 -55 -2
-241 -38 -256 -50 -23 -19 -15 -63 15 -77 19 -9 45 -8 115 3 50 7 104 16 122
18 l32 5 3 -80 c2 -59 0 -80 -10 -84 -8 -3 -47 -5 -87 -5 -40 0 -147 -9 -236
-20 -90 -11 -204 -24 -254 -30 -95 -12 -125 -27 -125 -65 0 -53 50 -55 345
-14 77 10 173 19 214 19 71 0 121 6 446 50 77 11 192 24 255 30 149 13 229 26
246 41 22 18 17 57 -10 75 -21 13 -36 14 -98 5 -40 -6 -104 -13 -143 -16 -38
-4 -150 -17 -247 -31 -97 -13 -180 -24 -183 -24 -3 0 -5 36 -5 80 0 93 -12 85
148 99 111 10 142 25 142 66 0 40 -23 48 -113 42 -45 -4 -104 -10 -130 -13
l-47 -7 0 40 c0 22 3 54 6 71 6 28 11 32 48 36 205 25 297 38 329 47 45 12 65
45 48 78 -14 25 -35 26 -174 6 -56 -8 -134 -18 -173 -22 l-71 -9 -7 174 c-4
106 -11 185 -19 201 -16 35 -59 40 -80 10z"/>
<path d="M452 2048 c-19 -19 -14 -55 11 -81 12 -13 59 -59 104 -101 83 -78
121 -94 151 -64 32 32 10 62 -155 211 -53 47 -88 58 -111 35z"/>
<path d="M202 1398 c-19 -19 -14 -56 11 -73 60 -42 133 -87 196 -121 61 -33
73 -36 95 -26 19 8 26 19 26 40 0 33 -15 48 -90 89 -30 16 -82 46 -114 66 -61
38 -103 46 -124 25z"/>
<path d="M1710 1309 c-36 -5 -128 -19 -205 -31 -77 -11 -174 -24 -215 -28 -64
-7 -77 -12 -98 -36 l-25 -28 7 -216 c4 -118 9 -363 11 -545 4 -299 6 -331 21
-342 23 -16 36 -16 59 0 24 18 39 195 31 354 -5 101 -4 112 11 117 10 2 74 10
143 16 157 14 371 40 380 45 9 6 20 -159 20 -298 l0 -107 -24 16 c-47 30 -95
3 -83 -47 8 -32 128 -159 150 -159 34 0 55 35 61 102 3 34 4 309 3 610 -2 636
8 582 -110 584 -39 1 -101 -2 -137 -7z m140 -213 l0 -113 -132 -17 c-73 -10
-176 -24 -228 -31 -52 -8 -120 -15 -150 -17 -63 -3 -57 -15 -62 133 l-3 87 45
6 c25 3 81 13 125 21 44 9 124 20 179 25 54 5 101 12 104 15 3 3 32 5 64 5
l58 0 0 -114z m0 -295 l0 -78 -72 -12 c-40 -6 -122 -16 -183 -21 -60 -6 -146
-15 -190 -20 -125 -16 -115 -21 -115 65 l0 75 38 0 c20 0 78 6 127 14 50 7
137 19 195 26 58 7 121 16 140 20 62 14 60 16 60 -69z"/>
<path d="M636 818 c-13 -24 -94 -172 -180 -330 -157 -290 -175 -335 -144 -366
16 -16 53 -15 65 1 6 6 38 66 73 132 34 66 88 167 120 225 32 58 83 151 114
208 71 130 73 172 4 172 -22 0 -32 -9 -52 -42z"/>
</g>
</svg>
