<?xml version="1.0" standalone="no"?>
<!DOCTYPE svg PUBLIC "-//W3C//DTD SVG 20010904//EN"
 "http://www.w3.org/TR/2001/REC-SVG-20010904/DTD/svg10.dtd">
<svg version="1.0" xmlns="http://www.w3.org/2000/svg"
 width="248.000000pt" height="248.000000pt" viewBox="0 0 248.000000 248.000000"
 preserveAspectRatio="xMidYMid meet">
<metadata>
Created by potrace 1.10, written by Peter Selinger 2001-2011
</metadata>
<g transform="translate(0.000000,248.000000) scale(0.100000,-0.100000)"
fill="#000000" stroke="none">
<path d="M1497 2360 c-13 -19 -14 -52 -10 -209 l6 -187 -79 -12 c-43 -7 -117
-15 -164 -18 -47 -4 -95 -13 -107 -20 -31 -19 -30 -59 2 -80 21 -14 36 -15
127 -4 57 6 128 14 158 17 l55 5 0 -207 c0 -193 1 -207 19 -221 20 -14 52 -11
71 8 6 5 12 98 15 218 3 114 8 211 11 215 4 3 47 10 95 15 296 31 355 52 325
116 -13 29 -31 30 -174 9 -56 -8 -134 -18 -173 -22 l-71 -9 -7 174 c-4 106
-11 185 -19 201 -16 35 -59 40 -80 11z"/>
<path d="M452 2048 c-19 -19 -14 -55 11 -81 12 -13 59 -59 104 -101 83 -78
121 -94 151 -64 32 32 10 62 -155 211 -53 47 -88 58 -111 35z"/>
<path d="M202 1398 c-19 -19 -14 -56 11 -73 60 -42 133 -87 196 -121 61 -33
73 -36 95 -26 19 8 26 19 26 40 0 33 -15 48 -90 89 -30 16 -82 46 -114 66 -61
38 -103 46 -124 25z"/>
<path d="M636 818 c-13 -24 -94 -172 -180 -330 -157 -290 -175 -335 -144 -366
16 -16 53 -15 65 1 6 6 38 66 73 132 34 66 88 167 120 225 32 58 83 151 114
208 71 130 73 172 4 172 -22 0 -32 -9 -52 -42z"/>
</g>
</svg>
