<?xml version="1.0" standalone="no"?>
<!DOCTYPE svg PUBLIC "-//W3C//DTD SVG 20010904//EN"
 "http://www.w3.org/TR/2001/REC-SVG-20010904/DTD/svg10.dtd">
<svg version="1.0" xmlns="http://www.w3.org/2000/svg"
 width="248.000000pt" height="248.000000pt" viewBox="0 0 248.000000 248.000000"
 preserveAspectRatio="xMidYMid meet">
<metadata>
Created by potrace 1.10, written by Peter Selinger 2001-2011
</metadata>
<g transform="translate(0.000000,248.000000) scale(0.100000,-0.100000)"
fill="#000000" stroke="none">
<path d="M452 2048 c-19 -19 -14 -55 11 -81 12 -13 59 -59 104 -101 83 -78
121 -94 151 -64 32 32 10 62 -155 211 -53 47 -88 58 -111 35z"/>
<path d="M202 1398 c-19 -19 -14 -56 11 -73 60 -42 133 -87 196 -121 61 -33
73 -36 95 -26 19 8 26 19 26 40 0 33 -15 48 -90 89 -30 16 -82 46 -114 66 -61
38 -103 46 -124 25z"/>
</g>
</svg>
