<?xml version="1.0" standalone="no"?>
<!DOCTYPE svg PUBLIC "-//W3C//DTD SVG 20010904//EN"
 "http://www.w3.org/TR/2001/REC-SVG-20010904/DTD/svg10.dtd">
<svg version="1.0" xmlns="http://www.w3.org/2000/svg"
 width="248.000000pt" height="248.000000pt" viewBox="0 0 248.000000 248.000000"
 preserveAspectRatio="xMidYMid meet">
<metadata>
Created by potrace 1.10, written by Peter Selinger 2001-2011
</metadata>
<g transform="translate(0.000000,248.000000) scale(0.100000,-0.100000)"
fill="#000000" stroke="none">
<path d="M626 2338 c-12 -17 -16 -49 -16 -133 l0 -111 -92 -17 c-156 -28 -280
-49 -336 -58 -29 -4 -60 -13 -68 -19 -23 -20 -17 -58 12 -76 24 -16 32 -16
152 5 248 44 510 86 592 96 173 20 458 68 478 81 24 16 29 53 10 72 -14 14
-87 15 -144 2 -22 -5 -126 -21 -230 -35 -104 -13 -206 -28 -226 -31 l-38 -6 0
104 c0 115 -12 148 -55 148 -13 0 -31 -10 -39 -22z"/>
</g>
</svg>
