<?xml version="1.0" standalone="no"?>
<!DOCTYPE svg PUBLIC "-//W3C//DTD SVG 20010904//EN"
 "http://www.w3.org/TR/2001/REC-SVG-20010904/DTD/svg10.dtd">
<svg version="1.0" xmlns="http://www.w3.org/2000/svg"
 width="248.000000pt" height="248.000000pt" viewBox="0 0 248.000000 248.000000"
 preserveAspectRatio="xMidYMid meet">
<metadata>
Created by potrace 1.10, written by Peter Selinger 2001-2011
</metadata>
<g transform="translate(0.000000,248.000000) scale(0.100000,-0.100000)"
fill="#000000" stroke="none">
<path d="M626 2338 c-12 -17 -16 -49 -16 -133 l0 -111 -92 -17 c-156 -28 -280
-49 -336 -58 -29 -4 -60 -13 -68 -19 -23 -20 -17 -58 12 -76 24 -16 32 -16
147 4 263 46 315 54 326 51 7 -3 -17 -39 -55 -84 -36 -44 -105 -131 -152 -193
-74 -99 -85 -119 -86 -155 -1 -42 -1 -42 61 -72 71 -35 243 -146 243 -158 0
-8 -8 -20 -163 -232 -228 -312 -240 -330 -232 -354 9 -30 39 -43 67 -30 23 10
46 39 122 148 22 31 64 89 94 130 44 60 264 365 322 447 82 117 107 156 147
236 48 95 56 135 33 163 -16 19 -60 16 -71 -5 -4 -8 -29 -58 -55 -110 -26 -52
-60 -113 -76 -135 -15 -22 -47 -67 -70 -100 -22 -33 -43 -62 -44 -64 -2 -2
-27 11 -56 29 -29 18 -88 54 -130 80 l-77 48 77 99 c42 55 106 136 140 179 35
43 75 98 89 122 14 23 26 42 26 42 107 6 570 80 595 96 24 16 29 53 10 72 -14
14 -87 15 -144 2 -22 -5 -126 -21 -230 -35 -104 -13 -206 -28 -226 -31 l-38
-6 0 104 c0 115 -12 148 -55 148 -13 0 -31 -10 -39 -22z"/>
<path d="M1148 1593 c-9 -10 -30 -49 -48 -88 -90 -194 -147 -309 -198 -400
-132 -237 -427 -638 -604 -821 -80 -83 -91 -109 -62 -138 27 -27 54 -18 116
41 56 54 289 336 370 448 73 101 216 322 260 400 110 195 248 489 248 529 0
45 -52 62 -82 29z"/>
</g>
</svg>
