<?xml version="1.0" standalone="no"?>
<!DOCTYPE svg PUBLIC "-//W3C//DTD SVG 20010904//EN"
 "http://www.w3.org/TR/2001/REC-SVG-20010904/DTD/svg10.dtd">
<svg version="1.0" xmlns="http://www.w3.org/2000/svg"
 width="248.000000pt" height="248.000000pt" viewBox="0 0 248.000000 248.000000"
 preserveAspectRatio="xMidYMid meet">
<metadata>
Created by potrace 1.10, written by Peter Selinger 2001-2011
</metadata>
<g transform="translate(0.000000,248.000000) scale(0.100000,-0.100000)"
fill="#000000" stroke="none">
<path d="M1398 2363 c-9 -10 -21 -41 -26 -68 -15 -70 -75 -208 -106 -246 -42
-49 -31 -99 22 -99 34 0 85 59 119 136 27 63 28 64 68 64 22 0 88 7 147 17 59
9 110 14 114 11 6 -7 -24 -72 -79 -166 -41 -70 -45 -93 -21 -116 31 -32 75 -8
109 58 14 28 39 76 55 106 17 30 34 71 40 91 l10 36 98 7 c119 9 147 20 147
61 0 53 -25 57 -246 40 -107 -9 -214 -19 -239 -25 -25 -5 -66 -9 -91 -10 l-47
0 6 45 c5 51 -8 75 -43 75 -12 0 -29 -8 -37 -17z"/>
<path d="M486 2348 c-9 -12 -16 -37 -16 -54 0 -72 -78 -261 -139 -338 -32 -41
-39 -74 -19 -94 22 -22 59 -13 92 23 35 38 103 154 112 192 5 20 12 23 58 23
28 1 87 7 131 15 44 8 87 15 95 15 10 0 23 -27 40 -81 32 -104 53 -139 83
-139 53 0 59 41 23 146 -13 38 -22 72 -20 76 2 3 35 9 72 13 118 11 211 34
223 56 24 45 -22 86 -78 70 -16 -5 -92 -14 -168 -20 -77 -7 -183 -18 -235 -27
-52 -8 -112 -14 -133 -14 l-37 0 5 53 c7 64 -9 101 -47 105 -18 2 -31 -4 -42
-20z"/>
<path d="M1675 1810 c-86 -17 -215 -30 -291 -30 -102 0 -124 -13 -124 -75 0
-89 -45 -235 -114 -373 -35 -70 -36 -75 -21 -98 18 -29 55 -31 78 -6 44 48
118 237 157 398 l10 41 67 7 c142 14 229 24 258 31 l30 7 0 -194 c0 -280 3
-284 215 -300 149 -11 267 1 310 32 35 25 55 107 47 189 -7 62 -15 74 -52 74
-40 0 -48 -15 -53 -102 l-5 -80 -44 -7 c-47 -7 -291 4 -307 13 -5 4 -7 98 -3
223 3 119 2 222 -2 228 -17 28 -79 37 -156 22z"/>
<path d="M920 1744 c-244 -40 -343 -53 -425 -59 -100 -7 -135 -22 -135 -60 0
-47 31 -55 162 -45 65 5 135 14 157 19 22 5 42 6 46 3 3 -3 5 -78 5 -168 l0
-162 -158 -51 c-87 -28 -163 -51 -168 -51 -17 0 -44 -35 -44 -56 0 -29 19 -44
56 -44 33 0 442 133 536 174 58 26 75 49 63 86 -10 32 -46 34 -111 7 -32 -14
-60 -25 -61 -24 -1 1 -3 72 -4 157 l-3 155 125 18 c94 13 129 22 144 38 18 18
19 21 5 47 -13 23 -23 27 -60 29 -25 0 -83 -5 -130 -13z"/>
<path d="M1452 1528 c-27 -27 -13 -61 49 -121 51 -48 67 -58 92 -55 38 4 55
28 42 61 -6 13 -36 47 -68 75 -57 52 -91 64 -115 40z"/>
<path d="M1137 1112 c-13 -14 -17 -39 -17 -110 l0 -91 -32 -5 c-18 -2 -160
-11 -316 -19 -306 -16 -332 -22 -332 -72 0 -51 23 -54 260 -39 118 8 248 13
289 12 l75 -3 -78 -93 c-43 -51 -99 -107 -124 -124 -26 -17 -63 -44 -82 -58
-19 -14 -70 -52 -112 -84 -42 -31 -122 -80 -177 -107 -56 -28 -106 -59 -112
-70 -15 -28 13 -69 46 -69 36 0 211 94 306 164 46 35 118 87 159 118 85 63
121 95 169 153 l33 40 -7 -276 -7 -276 23 -17 c29 -20 40 -20 65 -2 18 13 20
36 29 355 9 276 14 344 25 355 10 9 80 19 215 30 336 29 365 33 386 52 10 9
19 27 19 39 0 38 -23 48 -102 42 -108 -7 -417 -36 -464 -42 l-41 -6 -7 98 c-4
54 -12 103 -18 110 -15 19 -52 16 -71 -5z"/>
</g>
</svg>
