<?xml version="1.0" standalone="no"?>
<!DOCTYPE svg PUBLIC "-//W3C//DTD SVG 20010904//EN"
 "http://www.w3.org/TR/2001/REC-SVG-20010904/DTD/svg10.dtd">
<svg version="1.0" xmlns="http://www.w3.org/2000/svg"
 width="248.000000pt" height="248.000000pt" viewBox="0 0 248.000000 248.000000"
 preserveAspectRatio="xMidYMid meet">
<metadata>
Created by potrace 1.10, written by Peter Selinger 2001-2011
</metadata>
<g transform="translate(0.000000,248.000000) scale(0.100000,-0.100000)"
fill="#000000" stroke="none">
<path d="M1398 2363 c-9 -10 -21 -41 -26 -68 -15 -70 -75 -208 -106 -246 -42
-49 -31 -99 22 -99 34 0 85 59 119 136 27 63 28 64 68 64 22 0 88 7 147 17 59
9 110 14 114 11 6 -7 -24 -72 -79 -166 -41 -70 -45 -93 -21 -116 31 -32 75 -8
109 58 14 28 39 76 55 106 17 30 34 71 40 91 l10 36 98 7 c119 9 147 20 147
61 0 53 -25 57 -246 40 -107 -9 -214 -19 -239 -25 -25 -5 -66 -9 -91 -10 l-47
0 6 45 c5 51 -8 75 -43 75 -12 0 -29 -8 -37 -17z"/>
<path d="M486 2348 c-9 -12 -16 -37 -16 -54 0 -72 -78 -261 -139 -338 -32 -41
-39 -74 -19 -94 22 -22 59 -13 92 23 35 38 103 154 112 192 5 20 12 23 58 23
28 1 87 7 131 15 44 8 87 15 95 15 10 0 23 -27 40 -81 32 -104 53 -139 83
-139 53 0 59 41 23 146 -13 38 -22 72 -20 76 2 3 35 9 72 13 118 11 211 34
223 56 24 45 -22 86 -78 70 -16 -5 -92 -14 -168 -20 -77 -7 -183 -18 -235 -27
-52 -8 -112 -14 -133 -14 l-37 0 5 53 c7 64 -9 101 -47 105 -18 2 -31 -4 -42
-20z"/>
<path d="M920 1744 c-244 -40 -343 -53 -425 -59 -100 -7 -135 -22 -135 -60 0
-47 31 -55 162 -45 65 5 137 14 161 20 24 5 124 21 223 35 143 20 183 30 199
46 18 18 19 21 5 47 -13 23 -23 27 -60 29 -25 0 -83 -5 -130 -13z"/>
</g>
</svg>
