<?xml version="1.0" standalone="no"?>
<!DOCTYPE svg PUBLIC "-//W3C//DTD SVG 20010904//EN"
 "http://www.w3.org/TR/2001/REC-SVG-20010904/DTD/svg10.dtd">
<svg version="1.0" xmlns="http://www.w3.org/2000/svg"
 width="248.000000pt" height="248.000000pt" viewBox="0 0 248.000000 248.000000"
 preserveAspectRatio="xMidYMid meet">
<metadata>
Created by potrace 1.10, written by Peter Selinger 2001-2011
</metadata>
<g transform="translate(0.000000,248.000000) scale(0.100000,-0.100000)"
fill="#000000" stroke="none">
<path d="M486 2348 c-9 -12 -16 -37 -16 -54 0 -72 -78 -261 -139 -338 -32 -41
-39 -74 -19 -94 22 -22 59 -13 92 23 35 38 103 154 112 192 5 20 12 23 58 23
28 1 87 7 131 15 44 8 87 15 95 15 10 0 23 -27 40 -81 32 -104 53 -139 83
-139 53 0 59 41 23 146 -13 38 -22 72 -20 76 2 3 35 9 72 13 118 11 211 34
223 56 24 45 -22 86 -78 70 -16 -5 -92 -14 -168 -20 -77 -7 -183 -18 -235 -27
-52 -8 -112 -14 -133 -14 l-37 0 5 53 c7 64 -9 101 -47 105 -18 2 -31 -4 -42
-20z"/>
</g>
</svg>
