<?xml version="1.0" standalone="no"?>
<!DOCTYPE svg PUBLIC "-//W3C//DTD SVG 20010904//EN"
 "http://www.w3.org/TR/2001/REC-SVG-20010904/DTD/svg10.dtd">
<svg version="1.0" xmlns="http://www.w3.org/2000/svg"
 width="248.000000pt" height="248.000000pt" viewBox="0 0 248.000000 248.000000"
 preserveAspectRatio="xMidYMid meet">
<metadata>
Created by potrace 1.10, written by Peter Selinger 2001-2011
</metadata>
<g transform="translate(0.000000,248.000000) scale(0.100000,-0.100000)"
fill="#000000" stroke="none">
<path d="M904 2282 c-6 -4 -25 -34 -42 -67 -74 -145 -296 -424 -528 -665 -67
-69 -124 -135 -128 -147 -8 -25 23 -63 52 -63 18 0 258 241 344 346 48 60 53
63 60 43 17 -45 21 -322 7 -464 -8 -77 -14 -182 -14 -233 0 -81 3 -96 19 -108
25 -18 37 -18 61 0 15 11 20 29 22 87 2 41 8 138 14 216 l12 142 46 6 c25 3
84 12 131 20 121 21 309 45 348 45 l32 0 0 -117 c0 -65 -5 -166 -12 -225 -9
-86 -9 -110 2 -123 16 -19 54 -19 70 0 24 28 40 140 47 311 l6 171 151 17 c83
10 184 21 224 26 83 9 122 30 122 64 0 51 -14 52 -248 27 -120 -13 -225 -25
-234 -27 -16 -3 -18 7 -18 95 0 111 0 111 87 111 22 0 92 9 155 19 62 10 136
22 163 26 28 4 57 11 66 16 24 12 29 44 11 70 -14 20 -20 21 -88 15 -40 -4
-106 -13 -146 -20 -40 -8 -106 -17 -147 -21 l-74 -7 7 68 c4 38 11 105 16 149
10 92 -2 125 -45 125 -34 0 -52 -33 -59 -110 -16 -159 -30 -250 -40 -250 -19
0 -382 -59 -428 -69 -23 -5 -71 -12 -104 -14 l-61 -5 -12 40 c-14 46 -9 55
103 207 106 143 146 237 114 269 -13 13 -47 16 -64 4z m436 -636 l0 -94 -37
-6 c-21 -3 -83 -10 -138 -17 -55 -6 -131 -17 -170 -24 -38 -7 -100 -16 -136
-20 l-66 -7 -7 47 c-3 26 -6 67 -6 91 l0 44 40 0 c23 0 76 7 118 16 104 22
340 62 375 63 l27 1 0 -94z"/>
</g>
</svg>
