<?xml version="1.0" standalone="no"?>
<!DOCTYPE svg PUBLIC "-//W3C//DTD SVG 20010904//EN"
 "http://www.w3.org/TR/2001/REC-SVG-20010904/DTD/svg10.dtd">
<svg version="1.0" xmlns="http://www.w3.org/2000/svg"
 width="248.000000pt" height="248.000000pt" viewBox="0 0 248.000000 248.000000"
 preserveAspectRatio="xMidYMid meet">
<metadata>
Created by potrace 1.10, written by Peter Selinger 2001-2011
</metadata>
<g transform="translate(0.000000,248.000000) scale(0.100000,-0.100000)"
fill="#000000" stroke="none">
<path d="M904 2282 c-6 -4 -25 -34 -42 -67 -74 -145 -296 -424 -528 -665 -67
-69 -124 -135 -128 -147 -8 -25 23 -63 52 -63 18 0 258 241 344 346 48 60 53
63 60 43 17 -45 21 -322 7 -464 -8 -77 -14 -182 -14 -233 0 -81 3 -96 19 -108
25 -18 37 -18 61 0 17 12 20 33 26 152 4 77 12 193 19 259 14 139 1 364 -25
453 -19 62 -19 62 99 221 106 143 146 237 114 269 -13 13 -47 16 -64 4z"/>
<path d="M1416 2188 c-13 -21 -46 -280 -46 -359 0 -41 15 -59 47 -59 35 0 55
41 65 138 4 48 13 125 17 172 11 97 -1 130 -44 130 -15 0 -30 -9 -39 -22z"/>
</g>
</svg>
