<?xml version="1.0" standalone="no"?>
<!DOCTYPE svg PUBLIC "-//W3C//DTD SVG 20010904//EN"
 "http://www.w3.org/TR/2001/REC-SVG-20010904/DTD/svg10.dtd">
<svg version="1.0" xmlns="http://www.w3.org/2000/svg"
 width="248.000000pt" height="248.000000pt" viewBox="0 0 248.000000 248.000000"
 preserveAspectRatio="xMidYMid meet">
<metadata>
Created by potrace 1.10, written by Peter Selinger 2001-2011
</metadata>
<g transform="translate(0.000000,248.000000) scale(0.100000,-0.100000)"
fill="#000000" stroke="none">
<path d="M673 2288 c-6 -7 -16 -38 -23 -68 -39 -163 -161 -466 -247 -608 -19
-31 -40 -70 -47 -87 -22 -50 -184 -291 -247 -367 -58 -69 -71 -102 -47 -126
26 -26 56 -12 116 53 60 66 81 94 146 198 20 31 40 57 45 57 9 0 15 -109 15
-315 1 -137 -5 -243 -25 -440 -18 -184 -17 -214 5 -231 27 -19 42 -18 66 6 16
16 20 34 21 88 0 37 2 74 4 83 1 8 8 87 15 175 13 167 14 254 6 599 l-5 210
74 150 c90 184 132 288 173 426 34 112 40 177 20 197 -16 16 -53 15 -65 0z"/>
<path d="M810 1985 c-10 -12 -13 -155 -12 -678 1 -829 0 -797 18 -824 20 -31
59 -30 80 2 14 22 15 37 5 122 -7 62 -10 333 -9 730 1 498 -2 636 -12 648 -16
19 -54 19 -70 0z"/>
</g>
</svg>
