<?xml version="1.0" standalone="no"?>
<!DOCTYPE svg PUBLIC "-//W3C//DTD SVG 20010904//EN"
 "http://www.w3.org/TR/2001/REC-SVG-20010904/DTD/svg10.dtd">
<svg version="1.0" xmlns="http://www.w3.org/2000/svg"
 width="248.000000pt" height="248.000000pt" viewBox="0 0 248.000000 248.000000"
 preserveAspectRatio="xMidYMid meet">
<metadata>
Created by potrace 1.10, written by Peter Selinger 2001-2011
</metadata>
<g transform="translate(0.000000,248.000000) scale(0.100000,-0.100000)"
fill="#000000" stroke="none">
<path d="M673 2288 c-6 -7 -16 -38 -23 -68 -39 -163 -161 -466 -247 -608 -19
-31 -40 -70 -47 -87 -22 -50 -184 -291 -247 -367 -58 -69 -71 -102 -47 -126
26 -26 56 -12 116 53 60 66 81 94 146 198 20 31 40 57 44 57 16 0 22 -359 10
-535 -12 -164 -28 -348 -34 -376 -11 -57 32 -103 75 -80 24 13 28 35 36 176 4
61 8 112 10 115 2 3 6 61 10 130 8 131 9 189 1 535 l-5 210 74 150 c90 184
132 288 173 426 34 112 40 177 20 197 -16 16 -53 15 -65 0z"/>
<path d="M1720 2153 c-255 -17 -463 -40 -622 -67 -46 -8 -128 -20 -183 -26
-137 -16 -170 -41 -131 -103 11 -18 14 -135 14 -667 1 -808 0 -780 18 -807 20
-31 59 -30 80 2 14 21 15 37 5 127 -7 66 -10 324 -8 723 l2 620 115 17 c207
30 502 66 640 78 138 11 367 7 381 -7 11 -11 22 -229 21 -403 -2 -316 -11
-807 -15 -845 -3 -22 -10 -85 -17 -140 -6 -55 -16 -116 -22 -137 -19 -64 13
-118 61 -103 26 8 37 43 55 180 23 177 26 252 31 665 3 206 5 393 6 415 2 50
-10 304 -17 365 -7 64 -13 79 -37 92 -21 11 -294 26 -377 21z"/>
</g>
</svg>
