<?xml version="1.0" standalone="no"?>
<!DOCTYPE svg PUBLIC "-//W3C//DTD SVG 20010904//EN"
 "http://www.w3.org/TR/2001/REC-SVG-20010904/DTD/svg10.dtd">
<svg version="1.0" xmlns="http://www.w3.org/2000/svg"
 width="248.000000pt" height="248.000000pt" viewBox="0 0 248.000000 248.000000"
 preserveAspectRatio="xMidYMid meet">
<metadata>
Created by potrace 1.10, written by Peter Selinger 2001-2011
</metadata>
<g transform="translate(0.000000,248.000000) scale(0.100000,-0.100000)"
fill="#000000" stroke="none">
<path d="M673 2288 c-6 -7 -16 -38 -23 -68 -39 -163 -161 -466 -247 -608 -19
-31 -40 -70 -47 -87 -22 -50 -184 -291 -247 -367 -58 -69 -71 -102 -47 -126
26 -26 56 -12 116 53 60 66 81 94 146 198 20 31 40 57 44 57 16 0 22 -358 10
-535 -11 -160 -28 -348 -34 -376 -11 -57 32 -103 75 -80 24 13 28 35 36 176 4
61 8 112 10 115 2 3 6 61 10 130 8 131 9 189 1 535 l-5 210 74 150 c90 184
132 288 173 426 34 112 40 177 20 197 -16 16 -53 15 -65 0z"/>
<path d="M1720 2153 c-255 -17 -463 -40 -622 -67 -46 -8 -128 -20 -183 -26
-137 -16 -170 -41 -131 -103 11 -18 14 -135 14 -667 1 -826 0 -791 18 -817 17
-27 63 -30 160 -12 131 24 335 36 641 38 178 1 333 -1 347 -5 16 -4 26 -15 30
-34 11 -56 75 -64 94 -12 12 33 39 235 47 352 3 47 8 254 10 460 3 206 5 393
6 415 2 50 -10 304 -17 365 -7 64 -13 79 -37 92 -21 11 -294 26 -377 21z m311
-110 c11 -11 22 -227 21 -403 -1 -272 -11 -805 -15 -845 -7 -73 -18 -160 -22
-182 l-5 -21 -411 -1 c-384 -2 -562 -11 -661 -36 -24 -6 -28 -3 -35 22 -4 15
-8 332 -8 703 l0 675 115 17 c175 26 493 66 605 76 115 11 403 8 416 -5z"/>
<path d="M1390 1975 c-9 -11 -12 -62 -11 -180 1 -163 1 -165 -21 -174 -23 -9
-168 -28 -288 -36 -69 -5 -100 -24 -100 -60 0 -42 17 -46 156 -35 71 6 155 14
187 19 32 4 60 5 62 1 6 -10 -2 -220 -8 -227 -8 -7 -178 -43 -208 -43 -42 0
-53 -21 -45 -93 10 -90 46 -339 52 -360 11 -35 36 -37 190 -11 84 14 166 22
187 19 51 -7 70 5 106 68 33 58 111 329 111 388 0 70 -51 84 -223 60 -32 -4
-59 -5 -62 -2 -5 9 -1 219 5 224 3 2 70 12 150 21 238 28 240 29 240 71 0 52
-39 57 -244 31 -70 -10 -135 -15 -142 -12 -12 5 -14 35 -13 160 2 166 -3 186
-46 186 -12 0 -28 -7 -35 -15z m256 -787 c-15 -80 -56 -221 -73 -250 -18 -31
-21 -32 -148 -51 -72 -10 -139 -20 -150 -20 -17 -2 -21 10 -37 103 -24 152
-24 165 10 178 15 6 59 16 97 22 39 6 86 16 105 21 46 13 126 26 169 28 33 1
33 0 27 -31z"/>
</g>
</svg>
