<?xml version="1.0" standalone="no"?>
<!DOCTYPE svg PUBLIC "-//W3C//DTD SVG 20010904//EN"
 "http://www.w3.org/TR/2001/REC-SVG-20010904/DTD/svg10.dtd">
<svg version="1.0" xmlns="http://www.w3.org/2000/svg"
 width="248.000000pt" height="248.000000pt" viewBox="0 0 248.000000 248.000000"
 preserveAspectRatio="xMidYMid meet">
<metadata>
Created by potrace 1.10, written by Peter Selinger 2001-2011
</metadata>
<g transform="translate(0.000000,248.000000) scale(0.100000,-0.100000)"
fill="#000000" stroke="none">
<path d="M625 2235 c-66 -7 -162 -17 -213 -21 -143 -11 -133 12 -137 -314 -2
-168 -11 -366 -24 -510 -11 -129 -25 -287 -31 -350 -28 -310 -95 -656 -151
-776 -32 -67 -35 -94 -17 -112 32 -32 78 -3 116 74 66 131 144 590 178 1044 9
126 0 115 116 130 57 7 141 19 187 26 46 8 95 14 108 14 l25 0 -6 -192 c-3
-106 -9 -381 -12 -611 l-6 -418 -34 49 c-35 52 -56 64 -91 51 -41 -15 -38 -45
11 -119 25 -38 62 -85 81 -105 56 -55 117 -45 134 23 5 20 12 262 15 537 7
532 19 931 38 1265 15 255 15 288 -6 308 -22 22 -123 24 -281 7z m191 -132
c-9 -58 -26 -357 -26 -460 l0 -92 -47 -6 c-27 -3 -77 -11 -113 -16 -151 -23
-255 -37 -258 -34 -2 2 2 101 8 220 7 119 10 254 8 300 l-4 84 65 10 c86 13
241 28 314 29 l59 2 -6 -37z"/>
</g>
</svg>
