<?xml version="1.0" standalone="no"?>
<!DOCTYPE svg PUBLIC "-//W3C//DTD SVG 20010904//EN"
 "http://www.w3.org/TR/2001/REC-SVG-20010904/DTD/svg10.dtd">
<svg version="1.0" xmlns="http://www.w3.org/2000/svg"
 width="248.000000pt" height="248.000000pt" viewBox="0 0 248.000000 248.000000"
 preserveAspectRatio="xMidYMid meet">
<metadata>
Created by potrace 1.10, written by Peter Selinger 2001-2011
</metadata>
<g transform="translate(0.000000,248.000000) scale(0.100000,-0.100000)"
fill="#000000" stroke="none">
<path d="M625 2235 c-66 -7 -162 -17 -213 -21 -143 -11 -133 12 -137 -314 -2
-168 -11 -366 -24 -510 -11 -129 -25 -287 -31 -350 -28 -310 -95 -656 -151
-776 -32 -67 -35 -94 -17 -112 32 -32 78 -3 116 74 34 68 91 312 121 521 17
116 33 198 40 203 14 8 172 33 311 50 47 5 96 13 109 16 l24 7 -6 -294 c-4
-162 -7 -343 -7 -404 l0 -110 -34 51 c-36 54 -58 66 -93 53 -41 -15 -38 -45
11 -119 25 -38 62 -85 81 -105 56 -55 117 -45 134 23 5 20 12 262 15 537 7
532 19 931 38 1265 15 255 15 288 -6 308 -22 22 -123 24 -281 7z m191 -132
c-9 -58 -26 -357 -26 -460 l0 -92 -47 -6 c-27 -3 -77 -11 -113 -16 -151 -23
-255 -37 -258 -34 -2 2 2 101 8 220 7 119 10 254 8 300 l-4 84 65 10 c86 13
241 28 314 29 l59 2 -6 -37z m-36 -720 c0 -32 -3 -102 -7 -156 l-6 -97 -36
-10 c-20 -5 -67 -12 -106 -16 -38 -3 -119 -15 -179 -25 -60 -10 -111 -17 -114
-14 -4 4 16 259 24 301 3 18 15 22 106 34 57 7 137 18 178 25 41 7 90 14 108
14 l32 1 0 -57z"/>
<path d="M2075 2113 c-71 -8 -202 -23 -290 -33 -88 -11 -270 -32 -405 -46
-265 -28 -293 -36 -288 -82 6 -56 41 -57 461 -7 l47 6 0 -194 c0 -107 -3 -208
-6 -225 -7 -34 16 -30 -299 -53 -100 -7 -168 -17 -182 -26 -31 -18 -30 -58 2
-79 21 -14 39 -14 152 -5 70 6 200 15 288 21 153 10 280 19 521 39 109 9 174
27 189 51 4 7 11 45 16 84 4 39 19 134 33 210 25 134 33 255 20 304 -8 29 -53
52 -96 51 -18 -1 -91 -8 -163 -16z m155 -156 c0 -34 -11 -125 -25 -202 -14
-77 -28 -156 -32 -176 l-5 -37 -77 -5 c-42 -3 -145 -10 -229 -17 -84 -7 -154
-11 -156 -9 -1 2 0 106 2 230 l4 227 117 12 c64 6 168 17 231 24 187 22 170
26 170 -47z"/>
</g>
</svg>
