<?xml version="1.0" standalone="no"?>
<!DOCTYPE svg PUBLIC "-//W3C//DTD SVG 20010904//EN"
 "http://www.w3.org/TR/2001/REC-SVG-20010904/DTD/svg10.dtd">
<svg version="1.0" xmlns="http://www.w3.org/2000/svg"
 width="248.000000pt" height="248.000000pt" viewBox="0 0 248.000000 248.000000"
 preserveAspectRatio="xMidYMid meet">
<metadata>
Created by potrace 1.10, written by Peter Selinger 2001-2011
</metadata>
<g transform="translate(0.000000,248.000000) scale(0.100000,-0.100000)"
fill="#000000" stroke="none">
<path d="M287 2170 c-11 -17 -13 -48 -9 -153 5 -140 -9 -438 -33 -702 -8 -88
-20 -212 -25 -275 -27 -307 -95 -655 -151 -776 -32 -67 -35 -94 -17 -112 32
-32 78 -3 116 74 52 104 135 537 162 849 5 66 16 192 25 280 39 431 43 760 10
811 -19 30 -59 31 -78 4z"/>
</g>
</svg>
