<?xml version="1.0" standalone="no"?>
<!DOCTYPE svg PUBLIC "-//W3C//DTD SVG 20010904//EN"
 "http://www.w3.org/TR/2001/REC-SVG-20010904/DTD/svg10.dtd">
<svg version="1.0" xmlns="http://www.w3.org/2000/svg"
 width="248.000000pt" height="248.000000pt" viewBox="0 0 248.000000 248.000000"
 preserveAspectRatio="xMidYMid meet">
<metadata>
Created by potrace 1.10, written by Peter Selinger 2001-2011
</metadata>
<g transform="translate(0.000000,248.000000) scale(0.100000,-0.100000)"
fill="#000000" stroke="none">
<path d="M1715 2249 c-38 -5 -117 -15 -175 -23 -58 -8 -136 -18 -175 -21 -38
-4 -173 -19 -300 -35 -126 -16 -282 -34 -345 -40 -63 -6 -125 -18 -138 -26
-29 -19 -29 -59 1 -79 26 -17 69 -13 642 60 61 8 142 17 180 20 39 3 115 12
170 20 55 8 149 19 209 25 65 6 119 16 133 25 25 17 31 53 11 73 -14 14 -105
14 -213 1z"/>
</g>
</svg>
