<?xml version="1.0" standalone="no"?>
<!DOCTYPE svg PUBLIC "-//W3C//DTD SVG 20010904//EN"
 "http://www.w3.org/TR/2001/REC-SVG-20010904/DTD/svg10.dtd">
<svg version="1.0" xmlns="http://www.w3.org/2000/svg"
 width="248.000000pt" height="248.000000pt" viewBox="0 0 248.000000 248.000000"
 preserveAspectRatio="xMidYMid meet">
<metadata>
Created by potrace 1.10, written by Peter Selinger 2001-2011
</metadata>
<g transform="translate(0.000000,248.000000) scale(0.100000,-0.100000)"
fill="#000000" stroke="none">
<path d="M1715 2249 c-38 -5 -117 -15 -175 -23 -58 -8 -136 -18 -175 -21 -38
-4 -173 -19 -300 -35 -126 -16 -282 -34 -345 -40 -63 -6 -125 -18 -138 -26
-29 -19 -29 -59 1 -79 21 -13 37 -13 153 0 186 22 368 44 449 55 39 6 135 17
215 25 80 8 174 19 210 24 36 6 114 15 174 20 65 7 119 17 133 26 25 17 31 53
11 73 -14 14 -105 14 -213 1z"/>
<path d="M1612 1809 c-72 -4 -171 -15 -220 -23 -48 -8 -118 -17 -157 -21 -38
-4 -131 -15 -205 -26 -74 -11 -175 -25 -225 -31 -219 -27 -245 -43 -224 -138
15 -68 6 -377 -16 -561 -15 -131 -76 -365 -122 -469 -14 -30 -31 -75 -40 -100
-8 -25 -39 -84 -69 -131 -30 -47 -54 -90 -54 -94 0 -4 -20 -32 -45 -61 -46
-53 -55 -80 -33 -102 25 -25 69 -14 105 26 40 44 165 251 189 313 9 24 29 76
44 114 46 114 110 342 122 431 10 72 14 83 33 88 12 3 102 13 201 21 98 9 224
22 279 30 55 8 138 17 185 20 47 3 123 10 170 15 325 34 311 32 325 54 8 12
27 73 44 136 16 63 43 162 59 220 48 168 56 250 26 280 -17 18 -163 21 -372 9z
m272 -161 c-8 -35 -32 -126 -53 -203 -22 -77 -42 -154 -46 -172 -6 -30 -9 -32
-63 -37 -31 -3 -97 -10 -147 -16 -49 -5 -126 -12 -170 -15 -44 -3 -147 -15
-230 -25 -82 -11 -211 -24 -285 -29 -74 -6 -149 -13 -167 -17 l-32 -6 2 230 2
231 75 6 c41 4 92 11 112 16 44 11 135 24 320 44 75 8 159 20 186 25 53 12
264 26 414 29 l96 1 -14 -62z"/>
</g>
</svg>
