<?xml version="1.0" standalone="no"?>
<!DOCTYPE svg PUBLIC "-//W3C//DTD SVG 20010904//EN"
 "http://www.w3.org/TR/2001/REC-SVG-20010904/DTD/svg10.dtd">
<svg version="1.0" xmlns="http://www.w3.org/2000/svg"
 width="248.000000pt" height="248.000000pt" viewBox="0 0 248.000000 248.000000"
 preserveAspectRatio="xMidYMid meet">
<metadata>
Created by potrace 1.10, written by Peter Selinger 2001-2011
</metadata>
<g transform="translate(0.000000,248.000000) scale(0.100000,-0.100000)"
fill="#000000" stroke="none">
<path d="M1240 2400 c-14 -14 -20 -29 -17 -43 13 -53 16 -116 9 -172 l-7 -60
-270 -17 c-353 -22 -427 -29 -442 -41 -16 -12 -17 -49 -1 -65 15 -15 122 -16
268 -3 58 5 181 13 273 16 l169 7 -4 -140 c-2 -77 -5 -143 -8 -145 -3 -3 -119
-14 -259 -26 -141 -12 -260 -26 -267 -32 -17 -14 -18 -51 -2 -67 16 -16 114
-15 318 3 240 20 651 38 741 32 87 -6 119 7 119 47 0 46 -14 49 -288 50 l-257
1 1 85 c1 187 2 190 28 199 26 11 222 25 561 42 127 6 236 16 243 21 6 6 12
21 12 33 0 46 -14 49 -263 42 -200 -6 -514 -23 -550 -30 -9 -1 -13 35 -17 125
-3 70 -9 131 -15 136 -24 22 -54 23 -75 2z"/>
<path d="M1670 1498 c-146 -4 -402 -19 -570 -33 -168 -14 -337 -25 -376 -25
-41 0 -75 -5 -82 -12 -20 -20 -14 -56 13 -74 30 -20 131 -17 513 16 258 22
708 44 722 35 6 -4 7 -13 1 -23 -5 -9 -28 -73 -51 -142 -24 -69 -51 -134 -61
-146 -22 -23 -25 -54 -7 -72 16 -16 83 -15 95 1 6 6 27 62 48 122 21 61 50
145 66 188 31 84 37 138 16 155 -22 18 -56 19 -327 10z"/>
</g>
</svg>
