<?xml version="1.0" standalone="no"?>
<!DOCTYPE svg PUBLIC "-//W3C//DTD SVG 20010904//EN"
 "http://www.w3.org/TR/2001/REC-SVG-20010904/DTD/svg10.dtd">
<svg version="1.0" xmlns="http://www.w3.org/2000/svg"
 width="248.000000pt" height="248.000000pt" viewBox="0 0 248.000000 248.000000"
 preserveAspectRatio="xMidYMid meet">
<metadata>
Created by potrace 1.10, written by Peter Selinger 2001-2011
</metadata>
<g transform="translate(0.000000,248.000000) scale(0.100000,-0.100000)"
fill="#000000" stroke="none">
<path d="M1660 2159 c-91 -4 -208 -13 -261 -19 -53 -6 -244 -20 -425 -32 -505
-32 -474 -27 -474 -73 0 -42 21 -48 143 -42 379 18 570 29 707 42 85 9 245 20
355 25 355 17 430 22 443 32 15 13 16 50 0 66 -14 14 -217 14 -488 1z"/>
</g>
</svg>
