<?xml version="1.0" standalone="no"?>
<!DOCTYPE svg PUBLIC "-//W3C//DTD SVG 20010904//EN"
 "http://www.w3.org/TR/2001/REC-SVG-20010904/DTD/svg10.dtd">
<svg version="1.0" xmlns="http://www.w3.org/2000/svg"
 width="248.000000pt" height="248.000000pt" viewBox="0 0 248.000000 248.000000"
 preserveAspectRatio="xMidYMid meet">
<metadata>
Created by potrace 1.10, written by Peter Selinger 2001-2011
</metadata>
<g transform="translate(0.000000,248.000000) scale(0.100000,-0.100000)"
fill="#000000" stroke="none">
<path d="M1240 2400 c-14 -14 -20 -29 -17 -43 13 -53 16 -116 9 -172 l-7 -60
-270 -17 c-353 -22 -427 -29 -442 -41 -16 -12 -17 -49 -1 -65 15 -15 122 -16
268 -3 58 5 181 13 273 16 l169 7 -4 -140 c-2 -77 -5 -143 -8 -145 -3 -3 -119
-14 -259 -26 -141 -12 -260 -26 -267 -32 -17 -14 -18 -51 -2 -67 16 -16 114
-15 318 3 240 20 651 38 741 32 87 -6 119 7 119 47 0 46 -14 49 -288 50 l-257
1 1 85 c1 187 2 190 28 199 26 11 222 25 561 42 127 6 236 16 243 21 6 6 12
21 12 33 0 46 -14 49 -263 42 -200 -6 -514 -23 -550 -30 -9 -1 -13 35 -17 125
-3 70 -9 131 -15 136 -24 22 -54 23 -75 2z"/>
<path d="M1670 1498 c-146 -4 -402 -19 -570 -33 -168 -14 -337 -25 -376 -25
-41 0 -75 -5 -82 -12 -21 -21 -14 -56 14 -75 27 -17 85 -16 487 14 l79 6 -7
-54 c-4 -30 -10 -94 -13 -144 l-7 -90 -40 -7 c-48 -8 -341 -30 -407 -30 -58 0
-81 -15 -81 -53 0 -39 28 -58 78 -51 22 3 114 10 205 16 91 6 190 15 220 21
74 13 509 31 590 24 95 -8 106 0 148 120 19 55 50 142 68 193 49 133 45 174
-16 185 -14 2 -144 0 -290 -5z m223 -103 c-1 -5 -24 -72 -50 -147 l-48 -137
-60 -5 c-33 -3 -145 -7 -250 -8 -185 -3 -190 -2 -188 17 1 11 5 73 9 138 7
112 8 119 31 128 24 9 379 27 493 25 37 0 64 -5 63 -11z"/>
</g>
</svg>
