<?xml version="1.0" standalone="no"?>
<!DOCTYPE svg PUBLIC "-//W3C//DTD SVG 20010904//EN"
 "http://www.w3.org/TR/2001/REC-SVG-20010904/DTD/svg10.dtd">
<svg version="1.0" xmlns="http://www.w3.org/2000/svg"
 width="248.000000pt" height="248.000000pt" viewBox="0 0 248.000000 248.000000"
 preserveAspectRatio="xMidYMid meet">
<metadata>
Created by potrace 1.10, written by Peter Selinger 2001-2011
</metadata>
<g transform="translate(0.000000,248.000000) scale(0.100000,-0.100000)"
fill="#000000" stroke="none">
<path d="M1240 2400 c-14 -14 -20 -29 -17 -43 13 -53 16 -116 9 -172 l-7 -60
-270 -17 c-353 -22 -427 -29 -442 -41 -16 -12 -17 -49 -1 -65 15 -15 122 -16
268 -3 58 5 181 13 273 16 l169 7 -4 -140 c-2 -77 -5 -143 -8 -145 -3 -3 -119
-14 -259 -26 -141 -12 -260 -26 -267 -32 -17 -14 -18 -51 -2 -67 16 -16 114
-15 318 3 240 20 651 38 741 32 87 -6 119 7 119 47 0 46 -14 49 -288 50 l-257
1 1 85 c1 187 2 190 28 199 26 11 222 25 561 42 127 6 236 16 243 21 6 6 12
21 12 33 0 46 -14 49 -263 42 -200 -6 -514 -23 -550 -30 -9 -1 -13 35 -17 125
-3 70 -9 131 -15 136 -24 22 -54 23 -75 2z"/>
<path d="M1670 1498 c-146 -4 -402 -19 -570 -33 -168 -14 -337 -25 -376 -25
-95 0 -98 -3 -83 -121 15 -124 6 -363 -20 -511 -37 -209 -131 -396 -272 -545
-33 -34 -59 -70 -59 -81 0 -29 35 -55 64 -48 57 14 223 237 284 381 51 120 68
179 87 307 13 90 21 119 34 122 9 2 95 10 191 16 96 6 198 16 225 21 67 13
503 31 585 24 95 -8 106 0 148 120 19 55 50 142 68 193 49 133 45 174 -16 185
-14 2 -144 0 -290 -5z m223 -103 c-1 -5 -24 -72 -50 -147 l-48 -137 -60 -5
c-33 -3 -145 -7 -250 -8 -185 -3 -190 -2 -188 17 1 11 5 73 9 138 7 112 8 119
31 128 24 9 379 27 493 25 37 0 64 -5 63 -11z m-678 -77 c-4 -29 -10 -93 -13
-143 l-7 -90 -40 -7 c-22 -3 -114 -12 -205 -18 -91 -6 -170 -13 -177 -15 -27
-9 -34 24 -31 156 l3 134 80 7 c203 19 284 25 338 27 l58 1 -6 -52z"/>
</g>
</svg>
