<?xml version="1.0" standalone="no"?>
<!DOCTYPE svg PUBLIC "-//W3C//DTD SVG 20010904//EN"
 "http://www.w3.org/TR/2001/REC-SVG-20010904/DTD/svg10.dtd">
<svg version="1.0" xmlns="http://www.w3.org/2000/svg"
 width="248.000000pt" height="248.000000pt" viewBox="0 0 248.000000 248.000000"
 preserveAspectRatio="xMidYMid meet">
<metadata>
Created by potrace 1.10, written by Peter Selinger 2001-2011
</metadata>
<g transform="translate(0.000000,248.000000) scale(0.100000,-0.100000)"
fill="#000000" stroke="none">
<path d="M1807 1980 c-76 -10 -184 -21 -240 -25 -56 -4 -158 -13 -227 -21 -69
-8 -161 -14 -205 -14 -95 0 -128 -16 -123 -58 6 -54 78 -63 293 -38 66 8 165
17 220 20 55 4 154 13 220 21 254 31 295 44 295 88 0 53 -20 55 -233 27z"/>
<path d="M262 1908 c-27 -27 -12 -55 61 -117 137 -116 259 -211 271 -211 23 0
56 32 56 55 0 17 -25 43 -102 104 -120 95 -132 105 -182 149 -38 33 -82 42
-104 20z"/>
<path d="M1845 1669 c-71 -4 -170 -12 -220 -19 -423 -53 -657 -89 -682 -106
-49 -31 -50 -52 -12 -344 5 -41 14 -117 19 -169 5 -52 13 -103 16 -113 8 -26
50 -41 76 -27 20 11 20 17 15 118 -3 58 -9 116 -13 129 -6 21 -3 22 42 22 27
1 69 5 94 10 62 13 220 30 370 40 69 4 196 14 282 21 87 7 159 11 162 8 2 -2
-1 -40 -9 -84 -24 -146 -24 -152 -9 -174 17 -24 56 -28 73 -8 9 12 25 83 62
291 11 67 7 284 -8 358 -7 34 -51 59 -100 57 -15 -1 -86 -5 -158 -10z m159
-136 c3 -21 6 -70 6 -109 l0 -71 -147 -12 c-82 -7 -204 -17 -273 -21 -184 -12
-349 -28 -360 -35 -6 -4 -53 -10 -105 -14 l-94 -6 -5 30 c-3 16 -8 60 -12 96
l-6 67 28 6 c54 10 389 56 556 77 81 9 228 20 374 27 29 2 32 -1 38 -35z"/>
<path d="M379 621 c-208 -208 -240 -244 -237 -267 4 -34 27 -49 61 -40 32 8
467 443 482 481 12 34 -3 59 -38 63 -23 3 -60 -30 -268 -237z"/>
</g>
</svg>
