<?xml version="1.0" standalone="no"?>
<!DOCTYPE svg PUBLIC "-//W3C//DTD SVG 20010904//EN"
 "http://www.w3.org/TR/2001/REC-SVG-20010904/DTD/svg10.dtd">
<svg version="1.0" xmlns="http://www.w3.org/2000/svg"
 width="248.000000pt" height="248.000000pt" viewBox="0 0 248.000000 248.000000"
 preserveAspectRatio="xMidYMid meet">
<metadata>
Created by potrace 1.10, written by Peter Selinger 2001-2011
</metadata>
<g transform="translate(0.000000,248.000000) scale(0.100000,-0.100000)"
fill="#000000" stroke="none">
<path d="M1807 1980 c-76 -10 -184 -21 -240 -25 -56 -4 -156 -13 -222 -21 -66
-8 -158 -14 -205 -14 -100 0 -133 -15 -128 -58 6 -54 78 -63 293 -38 66 8 165
17 220 20 55 4 154 13 220 21 254 31 295 44 295 88 0 53 -20 55 -233 27z"/>
<path d="M262 1908 c-27 -27 -12 -55 61 -117 137 -116 259 -211 271 -211 23 0
56 32 56 55 0 17 -25 43 -102 104 -120 95 -132 105 -182 149 -38 33 -82 42
-104 20z"/>
<path d="M1845 1669 c-71 -4 -170 -12 -220 -19 -423 -53 -657 -89 -682 -106
-52 -33 -52 -58 -3 -419 5 -38 12 -100 15 -137 4 -36 12 -74 19 -83 18 -25 87
-34 190 -24 50 5 203 13 340 18 136 5 305 15 374 22 162 17 177 27 198 144 47
268 47 268 40 398 -9 176 -12 186 -52 203 -18 8 -46 13 -61 13 -15 -1 -86 -5
-158 -10z m159 -136 c3 -21 6 -70 6 -109 l0 -71 -147 -12 c-82 -7 -204 -17
-273 -21 -184 -12 -349 -28 -360 -35 -6 -4 -53 -10 -105 -14 l-94 -6 -5 30
c-3 16 -8 60 -12 96 l-6 67 28 6 c54 10 389 56 556 77 81 9 228 20 374 27 29
2 32 -1 38 -35z m-7 -310 c-3 -10 -11 -55 -18 -100 -11 -76 -14 -83 -38 -88
-49 -10 -307 -25 -441 -25 -74 0 -162 -4 -195 -9 -33 -5 -101 -12 -151 -15
l-91 -6 -7 67 c-3 38 -9 78 -12 91 -6 20 -3 22 38 22 25 0 70 5 99 11 71 14
199 27 384 40 83 5 184 14 225 18 41 4 106 9 143 10 61 1 68 -1 64 -16z"/>
<path d="M379 621 c-208 -208 -240 -244 -237 -267 4 -34 27 -49 61 -40 32 8
467 443 482 481 12 34 -3 59 -38 63 -23 3 -60 -30 -268 -237z"/>
</g>
</svg>
