<?xml version="1.0" standalone="no"?>
<!DOCTYPE svg PUBLIC "-//W3C//DTD SVG 20010904//EN"
 "http://www.w3.org/TR/2001/REC-SVG-20010904/DTD/svg10.dtd">
<svg version="1.0" xmlns="http://www.w3.org/2000/svg"
 width="248.000000pt" height="248.000000pt" viewBox="0 0 248.000000 248.000000"
 preserveAspectRatio="xMidYMid meet">
<metadata>
Created by potrace 1.10, written by Peter Selinger 2001-2011
</metadata>
<g transform="translate(0.000000,248.000000) scale(0.100000,-0.100000)"
fill="#000000" stroke="none">
<path d="M262 1908 c-27 -27 -12 -55 61 -117 137 -116 259 -211 271 -211 23 0
56 32 56 55 0 17 -25 43 -102 104 -120 95 -132 105 -182 149 -38 33 -82 42
-104 20z"/>
<path d="M379 621 c-208 -208 -240 -244 -237 -267 4 -34 27 -49 61 -40 32 8
467 443 482 481 12 34 -3 59 -38 63 -23 3 -60 -30 -268 -237z"/>
</g>
</svg>
