<?xml version="1.0" standalone="no"?>
<!DOCTYPE svg PUBLIC "-//W3C//DTD SVG 20010904//EN"
 "http://www.w3.org/TR/2001/REC-SVG-20010904/DTD/svg10.dtd">
<svg version="1.0" xmlns="http://www.w3.org/2000/svg"
 width="248.000000pt" height="248.000000pt" viewBox="0 0 248.000000 248.000000"
 preserveAspectRatio="xMidYMid meet">
<metadata>
Created by potrace 1.10, written by Peter Selinger 2001-2011
</metadata>
<g transform="translate(0.000000,248.000000) scale(0.100000,-0.100000)"
fill="#000000" stroke="none">
<path d="M1807 1980 c-76 -10 -184 -21 -240 -25 -56 -4 -156 -13 -222 -21 -66
-8 -158 -14 -205 -14 -100 0 -133 -15 -128 -58 6 -54 78 -63 293 -38 66 8 165
17 220 20 55 4 154 13 220 21 254 31 295 44 295 88 0 53 -20 55 -233 27z"/>
<path d="M262 1908 c-27 -27 -12 -55 61 -117 137 -116 259 -211 271 -211 23 0
56 32 56 55 0 17 -25 43 -102 104 -120 95 -132 105 -182 149 -38 33 -82 42
-104 20z"/>
<path d="M914 1515 c-17 -26 -15 -70 17 -315 5 -41 14 -117 19 -169 5 -52 13
-103 16 -113 8 -26 50 -41 76 -27 19 10 20 17 15 113 -3 55 -12 149 -21 208
-8 59 -18 147 -22 195 -3 48 -13 98 -20 111 -20 30 -59 29 -80 -3z"/>
<path d="M379 621 c-208 -208 -240 -244 -237 -267 4 -34 27 -49 61 -40 32 8
467 443 482 481 12 34 -3 59 -38 63 -23 3 -60 -30 -268 -237z"/>
</g>
</svg>
