<?xml version="1.0" standalone="no"?>
<!DOCTYPE svg PUBLIC "-//W3C//DTD SVG 20010904//EN"
 "http://www.w3.org/TR/2001/REC-SVG-20010904/DTD/svg10.dtd">
<svg version="1.0" xmlns="http://www.w3.org/2000/svg"
 width="248.000000pt" height="248.000000pt" viewBox="0 0 248.000000 248.000000"
 preserveAspectRatio="xMidYMid meet">
<metadata>
Created by potrace 1.10, written by Peter Selinger 2001-2011
</metadata>
<g transform="translate(0.000000,248.000000) scale(0.100000,-0.100000)"
fill="#000000" stroke="none">
<path d="M433 2318 c-6 -7 -13 -124 -17 -262 -3 -137 -13 -380 -22 -540 -21
-403 -34 -1333 -20 -1366 8 -19 19 -25 41 -25 57 0 58 3 66 605 5 300 13 628
18 730 21 376 33 725 28 778 -3 30 -13 62 -23 73 -20 22 -57 25 -71 7z"/>
<path d="M622 1958 c-21 -21 -13 -55 27 -115 21 -32 69 -110 106 -173 80 -135
91 -150 120 -150 28 0 45 18 45 50 0 32 -166 320 -217 374 -25 28 -61 34 -81
14z"/>
<path d="M262 1917 c-6 -7 -22 -62 -36 -122 -29 -126 -105 -347 -143 -417 -22
-41 -24 -52 -15 -73 15 -33 60 -34 90 -2 44 48 147 345 183 531 7 39 6 54 -6
73 -17 25 -56 31 -73 10z"/>
</g>
</svg>
