<?xml version="1.0" standalone="no"?>
<!DOCTYPE svg PUBLIC "-//W3C//DTD SVG 20010904//EN"
 "http://www.w3.org/TR/2001/REC-SVG-20010904/DTD/svg10.dtd">
<svg version="1.0" xmlns="http://www.w3.org/2000/svg"
 width="248.000000pt" height="248.000000pt" viewBox="0 0 248.000000 248.000000"
 preserveAspectRatio="xMidYMid meet">
<metadata>
Created by potrace 1.10, written by Peter Selinger 2001-2011
</metadata>
<g transform="translate(0.000000,248.000000) scale(0.100000,-0.100000)"
fill="#000000" stroke="none">
<path d="M622 1958 c-21 -21 -13 -55 27 -115 21 -32 69 -110 106 -173 80 -135
91 -150 120 -150 28 0 45 18 45 50 0 32 -166 320 -217 374 -25 28 -61 34 -81
14z"/>
<path d="M262 1918 c-6 -7 -22 -63 -36 -123 -29 -126 -105 -347 -143 -417 -22
-41 -24 -52 -15 -73 15 -33 60 -34 90 -2 35 38 130 298 168 460 21 93 23 112
12 135 -15 30 -58 41 -76 20z"/>
</g>
</svg>
