<?xml version="1.0" standalone="no"?>
<!DOCTYPE svg PUBLIC "-//W3C//DTD SVG 20010904//EN"
 "http://www.w3.org/TR/2001/REC-SVG-20010904/DTD/svg10.dtd">
<svg version="1.0" xmlns="http://www.w3.org/2000/svg"
 width="248.000000pt" height="248.000000pt" viewBox="0 0 248.000000 248.000000"
 preserveAspectRatio="xMidYMid meet">
<metadata>
Created by potrace 1.10, written by Peter Selinger 2001-2011
</metadata>
<g transform="translate(0.000000,248.000000) scale(0.100000,-0.100000)"
fill="#000000" stroke="none">
<path d="M433 2318 c-6 -7 -13 -124 -17 -262 -3 -137 -13 -380 -22 -540 -21
-403 -34 -1333 -20 -1366 8 -19 19 -25 41 -25 57 0 58 3 66 605 5 300 13 628
18 730 21 376 33 725 28 778 -3 30 -13 62 -23 73 -20 22 -57 25 -71 7z"/>
<path d="M1486 2278 c-13 -17 -16 -53 -17 -158 -1 -74 -4 -162 -8 -195 l-6
-59 -40 -7 c-22 -4 -89 -12 -150 -19 -60 -6 -120 -18 -132 -26 -40 -26 -24
-84 24 -86 10 0 76 5 146 12 70 7 129 11 131 9 2 -2 0 -35 -5 -74 -8 -66 -15
-99 -54 -271 l-16 -71 -174 -7 c-96 -4 -203 -12 -237 -17 -35 -5 -90 -9 -123
-9 -70 0 -105 -19 -105 -55 0 -43 39 -59 123 -51 187 17 310 25 395 25 l94 1
-7 -29 c-8 -38 -104 -302 -145 -401 -39 -94 -121 -257 -152 -303 -12 -19 -63
-83 -113 -142 -124 -148 -116 -136 -102 -165 8 -16 23 -26 39 -28 34 -4 80 41
198 194 115 147 200 320 306 614 25 69 49 129 53 133 5 5 28 -19 52 -53 36
-51 148 -202 243 -329 11 -14 58 -77 105 -140 114 -152 345 -385 431 -434 76
-43 104 -46 125 -13 21 31 8 59 -38 82 -63 33 -134 93 -244 208 -113 117 -151
162 -254 307 -31 44 -72 97 -90 118 -71 81 -204 269 -243 342 l-25 46 77 9
c42 5 241 9 442 9 399 0 410 1 410 54 0 42 -22 55 -90 53 -33 -1 -63 -3 -67
-4 -4 -1 -81 2 -170 6 -122 6 -163 11 -163 21 0 7 13 75 29 151 62 296 62 361
0 383 -16 5 -35 8 -42 6 -22 -8 -330 -46 -334 -41 -2 2 0 39 6 81 6 42 11 127
11 188 0 124 -12 157 -55 157 -13 0 -31 -10 -39 -22z m365 -664 c-17 -82 -35
-172 -41 -200 l-11 -51 -72 -7 c-152 -13 -257 -19 -257 -14 0 2 13 65 29 139
16 73 32 165 36 202 8 83 2 79 191 102 77 9 141 19 144 22 15 15 8 -62 -19
-193z"/>
<path d="M622 1958 c-21 -21 -13 -55 27 -115 21 -32 69 -110 106 -173 80 -135
91 -150 120 -150 28 0 45 18 45 50 0 32 -166 320 -217 374 -25 28 -61 34 -81
14z"/>
<path d="M262 1917 c-6 -7 -22 -62 -36 -122 -29 -126 -105 -347 -143 -417 -22
-41 -24 -52 -15 -73 15 -33 60 -34 90 -2 44 48 147 345 183 531 7 39 6 54 -6
73 -17 25 -56 31 -73 10z"/>
</g>
</svg>
