<?xml version="1.0" standalone="no"?>
<!DOCTYPE svg PUBLIC "-//W3C//DTD SVG 20010904//EN"
 "http://www.w3.org/TR/2001/REC-SVG-20010904/DTD/svg10.dtd">
<svg version="1.0" xmlns="http://www.w3.org/2000/svg"
 width="248.000000pt" height="248.000000pt" viewBox="0 0 248.000000 248.000000"
 preserveAspectRatio="xMidYMid meet">
<metadata>
Created by potrace 1.10, written by Peter Selinger 2001-2011
</metadata>
<g transform="translate(0.000000,248.000000) scale(0.100000,-0.100000)"
fill="#000000" stroke="none">
<path d="M1850 1905 c-306 -46 -453 -66 -930 -131 -63 -8 -160 -22 -215 -29
-55 -8 -129 -17 -165 -21 -36 -3 -75 -13 -88 -20 -26 -17 -29 -56 -5 -75 18
-16 103 -15 193 1 31 6 109 17 175 25 66 8 163 21 215 29 52 7 169 24 260 35
91 12 224 30 295 41 118 17 319 45 403 55 42 5 62 21 62 50 0 50 -54 61 -200
40z"/>
</g>
</svg>
