<?xml version="1.0" standalone="no"?>
<!DOCTYPE svg PUBLIC "-//W3C//DTD SVG 20010904//EN"
 "http://www.w3.org/TR/2001/REC-SVG-20010904/DTD/svg10.dtd">
<svg version="1.0" xmlns="http://www.w3.org/2000/svg"
 width="248.000000pt" height="248.000000pt" viewBox="0 0 248.000000 248.000000"
 preserveAspectRatio="xMidYMid meet">
<metadata>
Created by potrace 1.10, written by Peter Selinger 2001-2011
</metadata>
<g transform="translate(0.000000,248.000000) scale(0.100000,-0.100000)"
fill="#000000" stroke="none">
<path d="M576 2368 c-13 -18 -16 -51 -16 -175 0 -84 -4 -153 -8 -153 -5 0 -47
-5 -93 -10 -297 -36 -289 -34 -289 -75 0 -12 9 -30 20 -40 20 -18 26 -18 181
-1 89 9 167 20 174 22 9 4 11 -20 8 -113 -5 -138 5 -168 52 -168 44 0 55 31
55 160 0 61 4 116 9 123 5 8 53 19 127 28 182 23 183 23 195 46 16 30 -3 65
-39 73 -16 3 -80 -1 -141 -9 -62 -9 -118 -16 -126 -16 -13 0 -15 23 -15 138 0
90 -5 146 -13 162 -17 34 -60 39 -81 8z"/>
</g>
</svg>
