<?xml version="1.0" standalone="no"?>
<!DOCTYPE svg PUBLIC "-//W3C//DTD SVG 20010904//EN"
 "http://www.w3.org/TR/2001/REC-SVG-20010904/DTD/svg10.dtd">
<svg version="1.0" xmlns="http://www.w3.org/2000/svg"
 width="248.000000pt" height="248.000000pt" viewBox="0 0 248.000000 248.000000"
 preserveAspectRatio="xMidYMid meet">
<metadata>
Created by potrace 1.10, written by Peter Selinger 2001-2011
</metadata>
<g transform="translate(0.000000,248.000000) scale(0.100000,-0.100000)"
fill="#000000" stroke="none">
<path d="M576 2368 c-13 -18 -16 -51 -16 -175 0 -84 -4 -153 -8 -153 -5 0 -47
-5 -93 -10 -297 -36 -289 -34 -289 -75 0 -12 9 -30 20 -40 20 -18 26 -18 181
-1 89 9 168 20 176 23 14 5 15 0 10 -33 -4 -21 -7 -73 -7 -115 0 -90 11 -83
-151 -100 -114 -12 -149 -27 -149 -63 0 -54 39 -59 255 -31 357 45 382 50 396
77 15 28 -2 64 -34 70 -24 5 -91 -2 -169 -17 l-38 -7 0 103 c0 57 4 110 9 117
5 8 53 19 127 28 182 23 183 23 195 46 16 30 -3 65 -39 73 -16 3 -80 -1 -141
-9 -62 -9 -118 -16 -126 -16 -13 0 -15 23 -15 138 0 90 -5 146 -13 162 -17 34
-60 39 -81 8z"/>
<path d="M1825 2319 c-22 -5 -120 -13 -219 -18 -109 -6 -184 -15 -192 -22 -12
-10 -14 -44 -8 -203 6 -180 5 -199 -20 -336 -15 -79 -36 -169 -47 -200 -52
-142 -50 -165 12 -165 33 0 35 2 67 84 66 163 108 427 98 608 l-7 123 78 0
c43 0 121 7 173 15 52 8 107 15 122 15 l26 0 4 -297 c4 -275 6 -303 26 -357
12 -32 29 -68 39 -78 29 -33 93 -60 152 -65 57 -5 240 21 274 38 25 14 37 51
37 112 0 66 -18 101 -52 105 -35 4 -58 -30 -58 -84 l0 -42 -50 -11 c-28 -6
-80 -11 -116 -11 -136 0 -137 3 -144 433 -5 320 -6 339 -24 353 -22 16 -106
17 -171 3z"/>
<path d="M915 1559 c-55 -5 -156 -18 -225 -30 -69 -11 -164 -24 -211 -29 -47
-5 -115 -14 -150 -19 -35 -6 -95 -11 -132 -11 -58 0 -71 -3 -92 -24 -22 -22
-24 -30 -19 -98 15 -207 33 -268 78 -268 44 0 49 19 40 153 l-9 124 115 16
c63 10 134 17 158 17 24 0 73 6 110 14 150 31 437 64 450 51 7 -7 -14 -52 -44
-97 -33 -47 -30 -89 8 -102 38 -13 65 14 119 117 45 87 54 146 26 174 -20 20
-91 24 -222 12z"/>
<path d="M664 1332 c-27 -21 -70 -50 -96 -65 -102 -59 -128 -96 -90 -130 23
-21 46 -21 78 -1 13 9 27 15 29 12 2 -2 7 -40 11 -85 l7 -81 -69 -6 c-38 -4
-115 -13 -171 -21 -56 -8 -119 -15 -140 -15 -76 0 -112 -61 -57 -97 25 -16 34
-16 153 0 225 29 231 30 231 12 0 -23 -157 -325 -184 -355 -50 -56 -136 -191
-136 -214 0 -30 39 -60 64 -50 9 4 35 34 58 68 23 33 65 93 94 131 28 39 75
115 103 170 l50 100 1 -310 c0 -337 3 -355 55 -355 52 0 55 17 55 358 l0 314
43 -58 c55 -75 196 -209 242 -231 33 -16 36 -15 55 2 11 10 20 27 20 37 0 11
-46 63 -110 125 -96 92 -142 149 -222 271 -10 15 -18 29 -18 32 0 3 62 14 138
24 171 23 202 35 202 74 0 53 -16 57 -158 38 -70 -9 -141 -19 -158 -22 -29 -4
-32 -2 -37 28 -4 18 -7 67 -8 109 l-2 77 41 39 c43 41 54 77 30 101 -21 21
-54 13 -104 -26z"/>
</g>
</svg>
