<?xml version="1.0" standalone="no"?>
<!DOCTYPE svg PUBLIC "-//W3C//DTD SVG 20010904//EN"
 "http://www.w3.org/TR/2001/REC-SVG-20010904/DTD/svg10.dtd">
<svg version="1.0" xmlns="http://www.w3.org/2000/svg"
 width="248.000000pt" height="248.000000pt" viewBox="0 0 248.000000 248.000000"
 preserveAspectRatio="xMidYMid meet">
<metadata>
Created by potrace 1.10, written by Peter Selinger 2001-2011
</metadata>
<g transform="translate(0.000000,248.000000) scale(0.100000,-0.100000)"
fill="#000000" stroke="none">
<path d="M576 2368 c-13 -18 -16 -51 -16 -175 0 -84 -4 -153 -8 -153 -5 0 -47
-5 -93 -10 -297 -36 -289 -34 -289 -75 0 -12 9 -30 20 -40 20 -18 26 -18 181
-1 89 9 168 20 176 23 14 5 15 0 10 -33 -4 -21 -7 -73 -7 -115 0 -90 11 -83
-151 -100 -114 -12 -149 -27 -149 -63 0 -54 39 -59 255 -31 354 45 382 50 396
76 14 27 2 58 -26 69 -21 8 -83 3 -177 -15 l-38 -7 0 103 c0 57 4 110 9 117 5
8 53 19 127 28 182 23 183 23 195 46 16 30 -3 65 -39 73 -16 3 -80 -1 -141 -9
-62 -9 -118 -16 -126 -16 -13 0 -15 23 -15 138 0 90 -5 146 -13 162 -17 34
-60 39 -81 8z"/>
<path d="M915 1559 c-55 -5 -156 -18 -225 -30 -69 -11 -164 -24 -211 -29 -47
-5 -115 -14 -150 -19 -35 -6 -95 -11 -132 -11 -58 0 -71 -3 -92 -24 -22 -22
-24 -30 -19 -98 15 -207 33 -268 78 -268 44 0 49 19 40 153 l-9 124 115 16
c63 10 134 17 158 17 24 0 73 6 110 14 150 31 437 64 450 51 7 -7 -14 -52 -44
-97 -33 -47 -30 -89 8 -102 38 -13 65 14 119 117 45 87 54 146 26 174 -20 20
-91 24 -222 12z"/>
<path d="M664 1332 c-27 -21 -70 -50 -96 -65 -102 -59 -128 -96 -90 -130 27
-24 46 -21 105 17 28 18 76 48 105 66 82 50 113 105 80 138 -21 21 -54 13
-104 -26z"/>
<path d="M730 1004 c-385 -53 -472 -64 -510 -64 -73 0 -107 -62 -54 -97 25
-16 34 -16 153 0 69 9 182 24 251 32 224 27 447 63 469 74 23 13 29 59 9 79
-16 16 -36 15 -318 -24z"/>
</g>
</svg>
