<?xml version="1.0" standalone="no"?>
<!DOCTYPE svg PUBLIC "-//W3C//DTD SVG 20010904//EN"
 "http://www.w3.org/TR/2001/REC-SVG-20010904/DTD/svg10.dtd">
<svg version="1.0" xmlns="http://www.w3.org/2000/svg"
 width="248.000000pt" height="248.000000pt" viewBox="0 0 248.000000 248.000000"
 preserveAspectRatio="xMidYMid meet">
<metadata>
Created by potrace 1.10, written by Peter Selinger 2001-2011
</metadata>
<g transform="translate(0.000000,248.000000) scale(0.100000,-0.100000)"
fill="#000000" stroke="none">
<path d="M576 2368 c-13 -18 -16 -51 -16 -175 0 -84 -4 -153 -8 -153 -5 0 -47
-5 -93 -10 -297 -36 -289 -34 -289 -75 0 -12 9 -30 20 -40 20 -18 26 -18 181
-1 89 9 168 20 176 23 14 5 15 0 10 -33 -4 -21 -7 -73 -7 -115 0 -90 11 -83
-151 -100 -114 -12 -149 -27 -149 -63 0 -54 39 -59 255 -31 354 45 382 50 396
76 14 27 2 58 -26 69 -21 8 -83 3 -177 -15 l-38 -7 0 103 c0 57 4 110 9 117 5
8 53 19 127 28 182 23 183 23 195 46 16 30 -3 65 -39 73 -16 3 -80 -1 -141 -9
-62 -9 -118 -16 -126 -16 -13 0 -15 23 -15 138 0 90 -5 146 -13 162 -17 34
-60 39 -81 8z"/>
<path d="M96 1438 c-12 -19 -13 -43 -5 -138 11 -136 16 -167 35 -197 17 -27
56 -30 74 -8 18 22 -3 308 -25 342 -20 30 -60 30 -79 1z"/>
</g>
</svg>
