<?xml version="1.0" standalone="no"?>
<!DOCTYPE svg PUBLIC "-//W3C//DTD SVG 20010904//EN"
 "http://www.w3.org/TR/2001/REC-SVG-20010904/DTD/svg10.dtd">
<svg version="1.0" xmlns="http://www.w3.org/2000/svg"
 width="248.000000pt" height="248.000000pt" viewBox="0 0 248.000000 248.000000"
 preserveAspectRatio="xMidYMid meet">
<metadata>
Created by potrace 1.10, written by Peter Selinger 2001-2011
</metadata>
<g transform="translate(0.000000,248.000000) scale(0.100000,-0.100000)"
fill="#000000" stroke="none">
<path d="M1243 2338 c-6 -7 -14 -85 -18 -173 -4 -88 -10 -184 -14 -214 -5 -50
-9 -55 -36 -63 -37 -11 -327 -23 -349 -15 -12 5 -5 27 39 124 55 117 66 168
43 191 -16 16 -53 15 -65 0 -6 -7 -47 -96 -93 -198 -83 -186 -139 -279 -248
-410 -30 -36 -67 -75 -83 -88 -38 -31 -40 -77 -5 -93 20 -10 31 -8 59 10 43
26 154 156 232 271 31 47 63 88 69 92 6 3 105 8 218 10 l207 3 -5 -90 c-11
-188 -26 -340 -34 -349 -4 -4 -127 -25 -272 -47 -144 -21 -306 -45 -358 -54
-52 -9 -135 -22 -184 -30 -96 -16 -116 -26 -116 -60 0 -40 23 -49 113 -41 45
3 98 10 117 16 74 20 607 96 810 115 284 27 443 33 730 26 231 -6 289 -5 308
6 24 15 30 54 9 71 -20 17 -725 27 -895 12 -79 -7 -145 -10 -147 -8 -4 4 8
213 21 371 7 87 -6 78 128 96 44 6 116 20 161 31 45 11 135 29 200 40 65 11
124 25 132 31 18 15 17 54 -2 69 -23 19 -132 7 -316 -34 -85 -19 -185 -38
-220 -42 l-65 -6 4 206 c5 220 2 236 -43 236 -12 0 -27 -6 -32 -12z"/>
<path d="M1600 980 c-118 -4 -226 -10 -240 -13 -14 -4 -83 -14 -155 -22 -183
-20 -282 -33 -419 -53 -97 -15 -122 -22 -133 -39 -10 -15 -11 -27 -3 -48 10
-27 19 -80 66 -390 14 -93 32 -180 40 -193 18 -27 61 -27 78 0 11 18 -2 129
-49 413 -13 77 -21 143 -17 146 10 9 110 23 437 64 310 39 587 56 599 36 8
-12 -63 -262 -141 -498 -47 -139 -47 -142 -29 -162 24 -26 48 -27 70 -2 19 21
68 160 128 360 95 322 102 356 71 383 -26 23 -66 25 -303 18z"/>
</g>
</svg>
