<?xml version="1.0" standalone="no"?>
<!DOCTYPE svg PUBLIC "-//W3C//DTD SVG 20010904//EN"
 "http://www.w3.org/TR/2001/REC-SVG-20010904/DTD/svg10.dtd">
<svg version="1.0" xmlns="http://www.w3.org/2000/svg"
 width="248.000000pt" height="248.000000pt" viewBox="0 0 248.000000 248.000000"
 preserveAspectRatio="xMidYMid meet">
<metadata>
Created by potrace 1.10, written by Peter Selinger 2001-2011
</metadata>
<g transform="translate(0.000000,248.000000) scale(0.100000,-0.100000)"
fill="#000000" stroke="none">
<path d="M1300 2205 c-69 -7 -190 -22 -270 -33 -80 -12 -199 -26 -265 -32 -66
-6 -157 -20 -201 -31 -45 -10 -97 -19 -117 -19 -19 0 -39 -6 -44 -12 -15 -19
-37 -192 -49 -383 -3 -60 -8 -113 -11 -117 -2 -5 -4 -200 -3 -435 1 -611 30
-879 97 -895 56 -13 74 25 50 105 -9 29 -20 104 -26 167 -6 63 -16 163 -21
222 -29 290 13 1242 54 1253 53 13 200 37 286 46 58 5 173 19 255 31 393 53
765 71 929 44 48 -8 90 -17 92 -19 9 -9 13 -1286 4 -1347 -5 -36 -10 -121 -10
-190 0 -69 -5 -154 -11 -189 -11 -58 -10 -65 9 -84 18 -18 25 -19 47 -9 14 7
29 22 34 34 18 49 26 411 25 1100 -1 395 -4 728 -8 741 -13 52 -121 67 -457
66 -145 -1 -320 -7 -389 -14z"/>
</g>
</svg>
