<?xml version="1.0" standalone="no"?>
<!DOCTYPE svg PUBLIC "-//W3C//DTD SVG 20010904//EN"
 "http://www.w3.org/TR/2001/REC-SVG-20010904/DTD/svg10.dtd">
<svg version="1.0" xmlns="http://www.w3.org/2000/svg"
 width="248.000000pt" height="248.000000pt" viewBox="0 0 248.000000 248.000000"
 preserveAspectRatio="xMidYMid meet">
<metadata>
Created by potrace 1.10, written by Peter Selinger 2001-2011
</metadata>
<g transform="translate(0.000000,248.000000) scale(0.100000,-0.100000)"
fill="#000000" stroke="none">
<path d="M1300 2205 c-69 -7 -190 -22 -270 -33 -80 -12 -199 -26 -265 -32 -66
-6 -157 -20 -201 -31 -45 -10 -97 -19 -117 -19 -19 0 -39 -6 -44 -12 -15 -19
-37 -192 -49 -383 -3 -60 -8 -113 -11 -117 -2 -5 -4 -200 -3 -435 0 -351 4
-461 20 -620 26 -255 47 -298 125 -267 96 38 394 63 865 74 500 12 643 4 693
-37 34 -27 36 -28 64 -8 27 19 30 37 40 245 9 188 8 1587 -1 1623 -13 52 -121
67 -457 66 -145 -1 -320 -7 -389 -14z m664 -89 c48 -8 90 -17 92 -19 8 -8 9
-1304 1 -1472 -11 -226 -8 -215 -60 -209 -174 21 -302 20 -1002 -6 -258 -10
-315 -14 -462 -35 -61 -9 -57 -18 -73 150 -5 61 -15 158 -20 217 -29 291 13
1242 54 1253 53 13 200 37 286 46 58 5 173 19 255 31 391 53 764 71 929 44z"/>
<path d="M1162 1968 c-9 -9 -12 -70 -12 -215 0 -182 -2 -203 -17 -211 -10 -6
-63 -12 -118 -16 -310 -19 -305 -18 -305 -61 0 -49 25 -52 269 -40 120 6 142
5 135 -6 -4 -8 -35 -52 -69 -99 -34 -47 -82 -115 -108 -152 -26 -36 -110 -130
-187 -207 -143 -144 -161 -171 -125 -201 31 -25 69 1 211 143 94 95 166 179
219 255 43 61 82 112 87 112 5 0 7 -142 6 -328 -1 -180 1 -332 5 -338 12 -20
46 -23 67 -6 20 16 20 28 20 325 0 169 3 307 6 307 3 0 48 -39 99 -87 105 -96
302 -235 412 -290 78 -38 116 -39 128 -3 11 36 -4 55 -72 89 -90 44 -274 168
-357 239 -79 68 -205 210 -207 232 -1 15 1 44 4 46 1 1 106 12 232 23 127 12
245 24 262 27 37 5 57 34 48 65 -10 31 -44 38 -126 28 -171 -20 -409 -40 -418
-34 -6 3 -10 85 -10 196 0 130 -4 196 -12 205 -14 17 -51 18 -67 2z"/>
</g>
</svg>
