<?xml version="1.0" standalone="no"?>
<!DOCTYPE svg PUBLIC "-//W3C//DTD SVG 20010904//EN"
 "http://www.w3.org/TR/2001/REC-SVG-20010904/DTD/svg10.dtd">
<svg version="1.0" xmlns="http://www.w3.org/2000/svg"
 width="248.000000pt" height="248.000000pt" viewBox="0 0 248.000000 248.000000"
 preserveAspectRatio="xMidYMid meet">
<metadata>
Created by potrace 1.10, written by Peter Selinger 2001-2011
</metadata>
<g transform="translate(0.000000,248.000000) scale(0.100000,-0.100000)"
fill="#000000" stroke="none">
<path d="M1149 2323 c-11 -13 -15 -103 -17 -473 l-3 -456 -137 -18 c-75 -10
-193 -24 -262 -32 -69 -8 -150 -19 -180 -24 -30 -5 -104 -17 -165 -25 -116
-17 -145 -32 -145 -70 0 -53 37 -54 285 -14 66 10 163 23 215 29 52 5 140 15
195 24 55 8 122 16 148 19 l49 5 -3 -553 c-4 -594 -4 -585 47 -585 14 0 30 10
41 26 15 24 18 78 23 578 l5 550 95 13 c128 16 230 32 320 49 41 8 136 21 210
30 74 8 146 20 160 27 29 14 37 44 17 71 -22 31 -78 26 -547 -48 -85 -14 -179
-28 -207 -31 l-53 -7 0 444 c0 385 -2 446 -16 466 -18 26 -56 29 -75 5z"/>
<path d="M1733 2108 c-6 -7 -25 -41 -42 -75 -42 -84 -163 -267 -222 -337 -46
-54 -53 -74 -34 -102 21 -32 55 -31 86 4 67 72 205 277 266 394 35 66 36 71
22 96 -16 30 -59 41 -76 20z"/>
<path d="M562 1958 c-31 -31 -9 -100 70 -213 29 -42 71 -105 93 -139 64 -100
104 -146 129 -146 56 0 61 59 11 124 -19 25 -43 63 -55 85 -11 22 -33 55 -48
73 -41 48 -86 118 -102 158 -25 65 -67 89 -98 58z"/>
</g>
</svg>
