<?xml version="1.0" standalone="no"?>
<!DOCTYPE svg PUBLIC "-//W3C//DTD SVG 20010904//EN"
 "http://www.w3.org/TR/2001/REC-SVG-20010904/DTD/svg10.dtd">
<svg version="1.0" xmlns="http://www.w3.org/2000/svg"
 width="248.000000pt" height="248.000000pt" viewBox="0 0 248.000000 248.000000"
 preserveAspectRatio="xMidYMid meet">
<metadata>
Created by potrace 1.10, written by Peter Selinger 2001-2011
</metadata>
<g transform="translate(0.000000,248.000000) scale(0.100000,-0.100000)"
fill="#000000" stroke="none">
<path d="M493 2018 c-6 -7 -22 -87 -37 -178 -26 -156 -81 -436 -126 -635 -11
-52 -37 -124 -61 -172 -22 -45 -39 -90 -37 -100 2 -10 32 -37 66 -60 35 -24
86 -62 113 -86 l49 -43 -54 -64 c-29 -36 -77 -84 -105 -108 -52 -44 -64 -75
-39 -100 27 -27 64 -13 134 52 38 35 85 85 104 110 19 25 40 45 45 46 6 0 64
-58 130 -129 66 -71 130 -134 142 -141 35 -20 73 1 73 40 0 25 -23 53 -140
174 l-141 144 31 46 c70 103 175 381 251 660 31 113 23 156 -27 156 -31 0 -42
-17 -63 -102 -67 -263 -196 -600 -258 -677 l-20 -24 -62 51 c-34 28 -70 56
-81 62 -26 14 -25 24 5 97 25 63 97 376 135 588 12 66 28 153 36 194 17 89 18
183 2 199 -16 16 -53 15 -65 0z"/>
</g>
</svg>
