<?xml version="1.0" standalone="no"?>
<!DOCTYPE svg PUBLIC "-//W3C//DTD SVG 20010904//EN"
 "http://www.w3.org/TR/2001/REC-SVG-20010904/DTD/svg10.dtd">
<svg version="1.0" xmlns="http://www.w3.org/2000/svg"
 width="248.000000pt" height="248.000000pt" viewBox="0 0 248.000000 248.000000"
 preserveAspectRatio="xMidYMid meet">
<metadata>
Created by potrace 1.10, written by Peter Selinger 2001-2011
</metadata>
<g transform="translate(0.000000,248.000000) scale(0.100000,-0.100000)"
fill="#000000" stroke="none">
<path d="M493 2018 c-6 -7 -22 -87 -37 -178 -26 -156 -81 -436 -126 -635 -11
-52 -37 -124 -61 -172 -22 -45 -39 -90 -37 -100 2 -10 33 -38 69 -63 37 -25
91 -66 120 -91 30 -25 74 -60 99 -77 25 -17 97 -87 160 -155 63 -69 125 -130
137 -137 35 -20 73 1 73 40 0 25 -22 52 -132 166 -73 75 -153 150 -178 167
-25 17 -67 51 -95 75 -27 25 -67 56 -87 70 -21 13 -38 30 -38 37 0 6 11 39 25
72 25 63 97 376 135 588 12 66 28 153 36 194 17 89 18 183 2 199 -16 16 -53
15 -65 0z"/>
</g>
</svg>
