<?xml version="1.0" standalone="no"?>
<!DOCTYPE svg PUBLIC "-//W3C//DTD SVG 20010904//EN"
 "http://www.w3.org/TR/2001/REC-SVG-20010904/DTD/svg10.dtd">
<svg version="1.0" xmlns="http://www.w3.org/2000/svg"
 width="248.000000pt" height="248.000000pt" viewBox="0 0 248.000000 248.000000"
 preserveAspectRatio="xMidYMid meet">
<metadata>
Created by potrace 1.10, written by Peter Selinger 2001-2011
</metadata>
<g transform="translate(0.000000,248.000000) scale(0.100000,-0.100000)"
fill="#000000" stroke="none">
<path d="M493 2018 c-6 -7 -24 -98 -42 -203 -56 -330 -49 -308 -101 -323 -158
-47 -300 -95 -318 -108 -24 -17 -29 -53 -10 -72 17 -17 60 -15 117 7 62 25
223 72 228 67 4 -4 -28 -152 -54 -246 -8 -30 -30 -84 -49 -119 -19 -35 -34
-73 -32 -85 2 -13 27 -37 66 -63 35 -24 86 -62 113 -86 l49 -43 -54 -64 c-29
-36 -77 -84 -105 -108 -52 -44 -64 -75 -39 -100 27 -27 64 -13 134 52 38 35
85 85 104 110 19 25 40 45 45 46 6 0 64 -58 130 -129 66 -71 130 -134 142
-141 35 -20 73 1 73 40 0 25 -23 53 -140 174 l-141 144 31 46 c70 103 155 326
254 666 21 73 22 75 64 88 52 17 66 52 34 85 -20 19 -24 20 -79 8 -32 -8 -136
-40 -232 -72 l-174 -58 6 47 c4 26 16 97 28 157 27 146 35 260 19 280 -15 18
-54 20 -67 3z m301 -520 c-113 -372 -192 -574 -251 -647 l-20 -24 -62 51 c-34
28 -70 56 -81 62 -26 14 -25 24 4 96 13 32 40 131 60 219 20 88 40 161 44 163
111 40 290 100 300 101 9 1 11 -6 6 -21z"/>
</g>
</svg>
