<?xml version="1.0" standalone="no"?>
<!DOCTYPE svg PUBLIC "-//W3C//DTD SVG 20010904//EN"
 "http://www.w3.org/TR/2001/REC-SVG-20010904/DTD/svg10.dtd">
<svg version="1.0" xmlns="http://www.w3.org/2000/svg"
 width="248.000000pt" height="248.000000pt" viewBox="0 0 248.000000 248.000000"
 preserveAspectRatio="xMidYMid meet">
<metadata>
Created by potrace 1.10, written by Peter Selinger 2001-2011
</metadata>
<g transform="translate(0.000000,248.000000) scale(0.100000,-0.100000)"
fill="#000000" stroke="none">
<path d="M925 1870 c-27 -5 -102 -15 -165 -24 -63 -8 -164 -22 -225 -31 -60
-8 -152 -20 -204 -25 -52 -5 -105 -17 -118 -25 -25 -17 -31 -53 -11 -73 16
-16 113 -15 228 2 52 8 129 19 170 25 440 60 440 60 440 106 0 23 -34 56 -55
54 -5 -1 -32 -5 -60 -9z"/>
</g>
</svg>
