<?xml version="1.0" standalone="no"?>
<!DOCTYPE svg PUBLIC "-//W3C//DTD SVG 20010904//EN"
 "http://www.w3.org/TR/2001/REC-SVG-20010904/DTD/svg10.dtd">
<svg version="1.0" xmlns="http://www.w3.org/2000/svg"
 width="248.000000pt" height="248.000000pt" viewBox="0 0 248.000000 248.000000"
 preserveAspectRatio="xMidYMid meet">
<metadata>
Created by potrace 1.10, written by Peter Selinger 2001-2011
</metadata>
<g transform="translate(0.000000,248.000000) scale(0.100000,-0.100000)"
fill="#000000" stroke="none">
<path d="M2050 2235 c-8 -3 -80 -9 -160 -15 -314 -22 -517 -40 -567 -49 -29
-6 -107 -14 -174 -17 -166 -10 -174 -19 -150 -178 26 -169 32 -217 42 -358 14
-211 14 -210 40 -231 21 -17 34 -18 124 -12 55 3 159 10 230 15 212 14 495 39
568 51 51 8 71 16 82 32 12 19 34 146 75 437 6 41 12 121 13 177 2 92 0 105
-19 123 -20 20 -73 33 -104 25z m14 -207 c-9 -142 -12 -148 -71 -148 -49 -1
-80 -3 -293 -20 -263 -22 -438 -34 -505 -34 l-70 -1 -13 104 c-7 57 -10 106
-8 108 9 9 309 41 596 63 74 6 178 14 230 19 52 5 105 9 118 10 23 1 23 1 16
-101z m-29 -270 c-2 -13 -11 -65 -19 -117 -8 -51 -16 -94 -18 -96 -2 -1 -88
-10 -193 -19 -104 -9 -201 -18 -215 -20 -14 -2 -90 -7 -170 -10 -80 -4 -171
-9 -202 -13 l-57 -5 -5 33 c-3 19 -7 70 -10 115 l-5 81 112 12 c62 7 173 16
247 21 308 20 456 31 480 34 59 7 61 7 55 -16z"/>
<path d="M342 2178 c-21 -21 -13 -55 17 -80 16 -12 63 -48 106 -78 42 -30 97
-72 121 -92 47 -40 83 -48 103 -24 25 30 8 68 -49 113 -30 23 -69 54 -87 68
-114 92 -182 122 -211 93z"/>
<path d="M210 1483 c-29 -20 -23 -63 10 -79 14 -7 90 -47 169 -88 154 -82 201
-93 221 -56 20 38 2 58 -108 116 -227 121 -256 132 -292 107z"/>
<path d="M515 722 c-6 -4 -46 -59 -89 -122 -44 -63 -85 -124 -93 -135 -39 -56
-143 -252 -143 -270 0 -47 52 -60 87 -22 11 12 42 60 68 107 26 47 92 151 146
232 61 90 99 156 99 172 0 35 -47 59 -75 38z"/>
</g>
</svg>
