<?xml version="1.0" standalone="no"?>
<!DOCTYPE svg PUBLIC "-//W3C//DTD SVG 20010904//EN"
 "http://www.w3.org/TR/2001/REC-SVG-20010904/DTD/svg10.dtd">
<svg version="1.0" xmlns="http://www.w3.org/2000/svg"
 width="248.000000pt" height="248.000000pt" viewBox="0 0 248.000000 248.000000"
 preserveAspectRatio="xMidYMid meet">
<metadata>
Created by potrace 1.10, written by Peter Selinger 2001-2011
</metadata>
<g transform="translate(0.000000,248.000000) scale(0.100000,-0.100000)"
fill="#000000" stroke="none">
<path d="M342 2178 c-21 -21 -13 -55 17 -80 16 -12 63 -48 106 -78 42 -30 97
-72 121 -92 47 -40 83 -48 103 -24 25 30 8 68 -49 113 -30 23 -69 54 -87 68
-114 92 -182 122 -211 93z"/>
<path d="M210 1483 c-29 -20 -23 -63 10 -79 14 -7 90 -47 169 -88 154 -82 201
-93 221 -56 20 38 2 58 -108 116 -227 121 -256 132 -292 107z"/>
<path d="M515 722 c-6 -4 -46 -59 -89 -122 -44 -63 -85 -124 -93 -135 -39 -56
-143 -252 -143 -270 0 -47 52 -60 87 -22 11 12 42 60 68 107 26 47 92 151 146
232 61 90 99 156 99 172 0 35 -47 59 -75 38z"/>
</g>
</svg>
