<?xml version="1.0" standalone="no"?>
<!DOCTYPE svg PUBLIC "-//W3C//DTD SVG 20010904//EN"
 "http://www.w3.org/TR/2001/REC-SVG-20010904/DTD/svg10.dtd">
<svg version="1.0" xmlns="http://www.w3.org/2000/svg"
 width="248.000000pt" height="248.000000pt" viewBox="0 0 248.000000 248.000000"
 preserveAspectRatio="xMidYMid meet">
<metadata>
Created by potrace 1.10, written by Peter Selinger 2001-2011
</metadata>
<g transform="translate(0.000000,248.000000) scale(0.100000,-0.100000)"
fill="#000000" stroke="none">
<path d="M576 2398 c-10 -17 -16 -77 -21 -218 -4 -107 -10 -233 -13 -280 l-7
-85 -50 -7 c-27 -4 -95 -11 -149 -17 -109 -12 -146 -28 -146 -65 0 -42 21 -49
123 -42 50 3 111 9 135 12 l42 6 0 -44 c0 -24 -20 -113 -46 -198 -25 -85 -56
-193 -69 -240 -36 -129 -101 -311 -157 -442 -45 -104 -50 -121 -40 -143 10
-22 18 -26 45 -23 28 3 35 10 62 64 60 121 119 284 219 609 l25 80 -5 -495
c-4 -272 -9 -536 -13 -586 -8 -106 -3 -135 24 -144 84 -30 91 28 100 865 3
319 8 612 11 650 l6 71 171 23 c95 13 182 30 195 37 29 19 29 59 -1 79 -20 13
-36 13 -152 -4 -230 -33 -215 -33 -215 -3 0 15 5 136 12 269 10 222 10 243 -6
267 -21 33 -60 35 -80 4z"/>
</g>
</svg>
