<?xml version="1.0" standalone="no"?>
<!DOCTYPE svg PUBLIC "-//W3C//DTD SVG 20010904//EN"
 "http://www.w3.org/TR/2001/REC-SVG-20010904/DTD/svg10.dtd">
<svg version="1.0" xmlns="http://www.w3.org/2000/svg"
 width="248.000000pt" height="248.000000pt" viewBox="0 0 248.000000 248.000000"
 preserveAspectRatio="xMidYMid meet">
<metadata>
Created by potrace 1.10, written by Peter Selinger 2001-2011
</metadata>
<g transform="translate(0.000000,248.000000) scale(0.100000,-0.100000)"
fill="#000000" stroke="none">
<path d="M1025 2013 c-44 -8 -145 -28 -225 -44 -80 -17 -221 -43 -314 -59 -93
-16 -175 -35 -182 -41 -22 -18 -17 -57 11 -75 23 -15 33 -14 152 6 70 12 211
39 313 60 102 21 210 41 240 45 108 13 160 39 160 80 0 48 -23 52 -155 28z"/>
<path d="M995 1680 c-152 -21 -446 -70 -456 -76 -13 -8 -174 -34 -211 -34 -50
0 -84 -14 -102 -42 -14 -21 -14 -37 -1 -148 9 -69 20 -168 26 -220 17 -166 19
-175 39 -208 13 -22 27 -32 44 -32 43 0 49 19 37 128 -6 55 -13 106 -16 114
-5 13 12 18 92 27 106 13 192 25 318 46 44 8 127 19 185 25 58 6 114 13 124
17 17 5 18 1 13 -33 -4 -22 -10 -76 -13 -121 -8 -91 1 -113 42 -113 35 0 56
40 64 123 4 40 15 119 23 177 27 173 38 317 27 345 -10 27 -46 46 -83 44 -12
-1 -80 -9 -152 -19z m130 -127 c-4 -21 -9 -67 -13 -103 l-7 -65 -105 -12
c-102 -12 -201 -26 -400 -58 -52 -8 -131 -16 -175 -17 l-79 -3 -7 40 c-3 22
-9 58 -13 81 l-6 41 103 17 c56 10 115 22 131 27 43 14 476 82 559 88 14 1 16
-5 12 -36z"/>
</g>
</svg>
