<?xml version="1.0" standalone="no"?>
<!DOCTYPE svg PUBLIC "-//W3C//DTD SVG 20010904//EN"
 "http://www.w3.org/TR/2001/REC-SVG-20010904/DTD/svg10.dtd">
<svg version="1.0" xmlns="http://www.w3.org/2000/svg"
 width="248.000000pt" height="248.000000pt" viewBox="0 0 248.000000 248.000000"
 preserveAspectRatio="xMidYMid meet">
<metadata>
Created by potrace 1.10, written by Peter Selinger 2001-2011
</metadata>
<g transform="translate(0.000000,248.000000) scale(0.100000,-0.100000)"
fill="#000000" stroke="none">
<path d="M1755 2179 c-171 -11 -473 -48 -598 -75 -38 -8 -87 -14 -111 -14 -46
0 -66 -13 -66 -45 0 -12 5 -26 12 -33 14 -14 145 -16 204 -2 44 10 286 41 290
37 1 -1 -27 -61 -61 -134 -71 -148 -50 -132 -215 -169 -139 -31 -150 -35 -161
-55 -6 -11 -7 -28 -4 -37 4 -9 6 -249 5 -533 -1 -466 0 -518 15 -533 9 -9 25
-16 34 -16 42 0 44 14 42 384 -2 251 1 356 9 361 6 4 68 11 138 15 70 5 194
18 277 29 82 12 196 24 253 27 l104 7 -3 -138 c-1 -76 -6 -161 -10 -189 -4
-28 -10 -94 -13 -146 -4 -52 -9 -121 -12 -152 -7 -65 4 -88 42 -88 37 0 52 35
59 140 3 52 10 131 15 175 5 44 15 241 21 438 14 440 28 402 -146 394 -66 -4
-178 -11 -249 -16 -72 -6 -131 -9 -133 -7 -2 2 23 61 55 132 l58 129 55 7 c30
4 150 10 267 14 154 5 215 11 223 20 17 21 6 57 -21 71 -27 14 -162 15 -375 2z
m180 -496 c-4 -27 -7 -75 -6 -108 0 -33 -3 -65 -7 -72 -5 -8 -59 -16 -147 -22
-77 -6 -227 -22 -332 -36 -106 -14 -215 -25 -243 -25 l-50 0 0 100 c0 117 -9
109 138 136 48 9 101 20 118 25 62 18 315 44 478 48 l58 1 -7 -47z"/>
<path d="M355 2006 c-17 -12 -19 -30 -20 -202 0 -104 -5 -347 -9 -539 -9 -340
-8 -352 11 -396 29 -64 64 -79 190 -79 176 0 303 61 303 146 0 55 -65 71 -90
23 -24 -44 -147 -81 -240 -73 -66 6 -76 17 -86 90 -9 77 2 397 15 422 6 11 64
69 128 128 203 186 247 246 211 282 -27 27 -56 9 -188 -118 -74 -72 -138 -130
-143 -130 -5 0 -7 97 -6 216 2 202 1 218 -16 230 -24 18 -36 18 -60 0z"/>
</g>
</svg>
