<?xml version="1.0" standalone="no"?>
<!DOCTYPE svg PUBLIC "-//W3C//DTD SVG 20010904//EN"
 "http://www.w3.org/TR/2001/REC-SVG-20010904/DTD/svg10.dtd">
<svg version="1.0" xmlns="http://www.w3.org/2000/svg"
 width="248.000000pt" height="248.000000pt" viewBox="0 0 248.000000 248.000000"
 preserveAspectRatio="xMidYMid meet">
<metadata>
Created by potrace 1.10, written by Peter Selinger 2001-2011
</metadata>
<g transform="translate(0.000000,248.000000) scale(0.100000,-0.100000)"
fill="#000000" stroke="none">
<path d="M1025 2013 c-44 -8 -145 -28 -225 -44 -80 -17 -221 -43 -314 -59 -93
-16 -175 -35 -182 -41 -22 -18 -17 -57 11 -75 23 -15 33 -14 152 6 70 12 211
39 313 60 102 21 210 41 240 45 108 13 160 39 160 80 0 48 -23 52 -155 28z"/>
</g>
</svg>
