<?xml version="1.0" standalone="no"?>
<!DOCTYPE svg PUBLIC "-//W3C//DTD SVG 20010904//EN"
 "http://www.w3.org/TR/2001/REC-SVG-20010904/DTD/svg10.dtd">
<svg version="1.0" xmlns="http://www.w3.org/2000/svg"
 width="248.000000pt" height="248.000000pt" viewBox="0 0 248.000000 248.000000"
 preserveAspectRatio="xMidYMid meet">
<metadata>
Created by potrace 1.10, written by Peter Selinger 2001-2011
</metadata>
<g transform="translate(0.000000,248.000000) scale(0.100000,-0.100000)"
fill="#000000" stroke="none">
<path d="M1755 2179 c-171 -11 -473 -48 -598 -75 -38 -8 -87 -14 -111 -14 -46
0 -66 -13 -66 -45 0 -12 5 -26 12 -33 16 -16 133 -15 232 2 235 42 586 76 776
76 108 0 140 3 150 14 18 22 8 59 -20 73 -27 14 -162 15 -375 2z"/>
<path d="M355 2006 c-17 -12 -19 -30 -20 -202 0 -104 -5 -347 -9 -539 -9 -340
-8 -352 11 -396 29 -64 64 -79 190 -79 176 0 303 61 303 146 0 55 -65 71 -90
23 -24 -44 -147 -81 -240 -73 -66 6 -76 17 -86 90 -9 77 2 397 15 422 6 11 64
69 128 128 203 186 247 246 211 282 -27 27 -56 9 -188 -118 -74 -72 -138 -130
-143 -130 -5 0 -7 97 -6 216 2 202 1 218 -16 230 -24 18 -36 18 -60 0z"/>
</g>
</svg>
