<?xml version="1.0" standalone="no"?>
<!DOCTYPE svg PUBLIC "-//W3C//DTD SVG 20010904//EN"
 "http://www.w3.org/TR/2001/REC-SVG-20010904/DTD/svg10.dtd">
<svg version="1.0" xmlns="http://www.w3.org/2000/svg"
 width="248.000000pt" height="248.000000pt" viewBox="0 0 248.000000 248.000000"
 preserveAspectRatio="xMidYMid meet">
<metadata>
Created by potrace 1.10, written by Peter Selinger 2001-2011
</metadata>
<g transform="translate(0.000000,248.000000) scale(0.100000,-0.100000)"
fill="#000000" stroke="none">
<path d="M716 2318 c-10 -17 -15 -71 -19 -192 -3 -92 -9 -172 -14 -177 -5 -5
-89 -22 -187 -39 -98 -16 -185 -35 -192 -41 -22 -18 -17 -57 11 -75 23 -15 35
-14 177 10 84 15 163 29 176 33 22 5 22 4 22 -99 l0 -104 -87 -17 c-183 -37
-239 -47 -275 -47 -50 0 -84 -14 -103 -43 -13 -21 -14 -35 -6 -88 6 -35 15
-113 21 -174 27 -281 36 -321 78 -344 12 -6 53 -6 113 -1 52 5 127 12 167 16
l72 7 0 -86 c0 -82 -1 -87 -22 -91 -53 -10 -397 -46 -438 -46 -64 0 -95 -18
-95 -55 0 -59 66 -65 320 -30 55 7 128 16 163 20 l62 6 0 -213 c-1 -117 -5
-233 -9 -257 -8 -39 -6 -47 15 -68 27 -27 33 -28 59 -9 30 22 43 128 44 357
l1 206 53 7 c157 20 485 79 505 92 24 16 29 53 10 72 -21 21 -74 16 -402 -42
-49 -9 -104 -16 -123 -16 l-34 0 3 87 3 87 65 12 c124 22 211 34 248 34 63 0
74 15 82 111 4 46 14 131 23 189 26 172 38 317 27 345 -17 45 -48 48 -225 25
-88 -11 -170 -23 -182 -26 -23 -6 -23 -6 -23 103 l0 110 68 12 c37 6 105 18
152 26 125 20 160 37 160 80 0 48 -19 50 -183 21 -83 -14 -162 -29 -174 -32
l-23 -6 7 160 c5 141 4 164 -11 186 -21 33 -60 34 -80 4z m409 -765 c-4 -21
-9 -67 -13 -103 l-7 -65 -90 -11 c-49 -6 -121 -14 -158 -18 l-68 -8 3 98 3 99
45 7 c58 10 250 36 273 37 14 1 16 -5 12 -36z m-445 -127 c0 -74 -3 -95 -15
-100 -27 -10 -292 -39 -307 -33 -10 3 -18 26 -22 64 -4 32 -10 67 -12 79 -5
19 2 22 98 38 57 10 123 24 148 31 25 8 60 14 78 14 l32 1 0 -94z m405 -198
c-15 -122 -1 -110 -152 -132 -56 -9 -114 -18 -129 -22 l-27 -7 7 84 c4 46 9
86 12 88 2 2 59 10 126 17 68 8 130 16 138 18 8 2 19 4 23 5 5 0 6 -23 2 -51z
m-410 -90 c-4 -46 -8 -84 -9 -85 -1 -1 -51 -6 -111 -12 -61 -6 -126 -13 -146
-15 l-36 -4 -6 62 c-3 34 -9 69 -12 77 -5 14 9 18 97 28 57 7 121 16 143 21
91 18 89 21 80 -72z"/>
<path d="M2105 2004 c-249 -28 -334 -35 -485 -41 -174 -6 -203 -15 -198 -61 2
-16 13 -31 28 -39 30 -15 174 -17 286 -4 43 6 156 17 249 26 290 28 315 34
315 81 0 24 -34 55 -60 53 -8 -1 -69 -8 -135 -15z"/>
<path d="M2105 1595 c-82 -7 -163 -15 -180 -18 -16 -4 -93 -11 -170 -17 -77
-6 -165 -15 -195 -20 -30 -6 -88 -14 -128 -19 -40 -5 -79 -15 -87 -21 -24 -20
-18 -58 11 -77 24 -16 32 -16 132 0 120 19 302 33 302 24 0 -4 -20 -52 -45
-108 -25 -55 -66 -160 -90 -232 -24 -73 -67 -186 -95 -252 -104 -240 -209
-523 -210 -561 0 -53 62 -61 153 -20 55 25 257 82 392 111 33 7 95 24 137 38
57 18 80 22 87 13 5 -6 37 -63 71 -126 34 -63 69 -123 77 -132 31 -35 83 -16
83 29 0 28 -62 148 -195 378 -29 50 -60 113 -70 140 -10 28 -27 60 -38 73 -35
38 -87 24 -87 -24 0 -24 52 -156 76 -192 9 -13 13 -29 11 -36 -5 -13 -80 -39
-177 -59 -101 -22 -341 -87 -361 -97 -28 -16 -30 -12 -13 28 9 20 36 89 59
152 24 63 50 129 58 145 38 75 102 238 142 360 24 73 64 177 88 232 25 54 48
112 51 130 8 37 0 35 240 53 176 13 216 26 216 67 0 58 0 58 -245 38z"/>
</g>
</svg>
