<?xml version="1.0" standalone="no"?>
<!DOCTYPE svg PUBLIC "-//W3C//DTD SVG 20010904//EN"
 "http://www.w3.org/TR/2001/REC-SVG-20010904/DTD/svg10.dtd">
<svg version="1.0" xmlns="http://www.w3.org/2000/svg"
 width="248.000000pt" height="248.000000pt" viewBox="0 0 248.000000 248.000000"
 preserveAspectRatio="xMidYMid meet">
<metadata>
Created by potrace 1.10, written by Peter Selinger 2001-2011
</metadata>
<g transform="translate(0.000000,248.000000) scale(0.100000,-0.100000)"
fill="#000000" stroke="none">
<path d="M1830 2309 c-25 -4 -94 -12 -155 -18 -136 -15 -268 -38 -301 -53 -40
-18 -54 -58 -54 -147 0 -99 -24 -292 -50 -391 -10 -41 -24 -99 -30 -128 -7
-29 -23 -68 -37 -88 -40 -60 -19 -115 39 -101 29 8 72 68 87 123 55 202 101
471 101 588 l0 55 53 10 c47 9 125 19 275 36 l52 6 -2 -288 c-3 -260 -1 -293
16 -338 25 -68 50 -93 115 -112 69 -20 235 -13 360 16 122 27 129 43 86 189
-30 101 -30 102 -64 102 -53 0 -64 -41 -36 -133 11 -37 12 -49 2 -52 -46 -16
-118 -25 -219 -25 -117 0 -118 0 -135 27 -23 35 -29 220 -14 498 6 130 6 203
0 211 -14 17 -38 21 -89 13z"/>
<path d="M903 2274 c-70 -91 -144 -183 -179 -222 l-39 -43 -108 95 c-107 95
-138 111 -165 84 -35 -35 -9 -71 150 -210 l58 -51 -33 -41 c-96 -122 -264
-274 -354 -320 -25 -13 -33 -23 -33 -44 0 -34 16 -52 47 -52 69 0 249 144 389
312 l65 77 51 -37 c193 -142 202 -146 233 -112 27 29 12 64 -43 101 -54 37
-117 85 -149 113 l-22 19 42 50 c174 207 210 270 175 305 -23 23 -56 13 -85
-24z"/>
<path d="M636 1568 c-13 -18 -16 -51 -16 -164 l0 -142 -32 -8 c-18 -3 -112
-17 -210 -29 -97 -12 -184 -28 -193 -35 -42 -35 1 -92 65 -85 129 15 233 28
280 35 30 4 56 7 57 6 1 -1 -9 -33 -21 -71 -47 -142 -241 -479 -353 -611 -24
-28 -43 -61 -43 -72 0 -25 36 -53 59 -45 26 9 87 71 123 127 118 177 152 232
202 326 l56 105 0 -100 c0 -55 -7 -197 -15 -315 -25 -363 -22 -386 42 -378 38
4 53 38 53 123 0 39 7 169 15 290 8 121 15 261 16 310 1 50 4 103 8 119 6 28
7 27 106 -75 137 -142 170 -169 209 -169 66 0 76 52 19 96 -68 52 -333 325
-333 343 0 19 41 29 248 61 35 5 70 14 78 21 22 18 17 57 -9 74 -25 16 -91 11
-244 -19 l-73 -14 0 132 c0 85 -5 140 -13 156 -17 34 -60 39 -81 8z"/>
</g>
</svg>
