<?xml version="1.0" standalone="no"?>
<!DOCTYPE svg PUBLIC "-//W3C//DTD SVG 20010904//EN"
 "http://www.w3.org/TR/2001/REC-SVG-20010904/DTD/svg10.dtd">
<svg version="1.0" xmlns="http://www.w3.org/2000/svg"
 width="248.000000pt" height="248.000000pt" viewBox="0 0 248.000000 248.000000"
 preserveAspectRatio="xMidYMid meet">
<metadata>
Created by potrace 1.10, written by Peter Selinger 2001-2011
</metadata>
<g transform="translate(0.000000,248.000000) scale(0.100000,-0.100000)"
fill="#000000" stroke="none">
<path d="M1146 2308 c-13 -18 -16 -54 -16 -180 0 -125 -3 -160 -15 -171 -9
-10 -45 -17 -102 -21 -49 -4 -131 -11 -183 -16 -176 -18 -338 -30 -402 -30
-81 0 -113 -16 -113 -55 0 -55 47 -64 251 -45 60 5 163 15 229 20 66 6 143 13
170 16 214 20 502 37 860 50 145 5 304 23 335 37 18 9 25 20 25 42 0 57 -24
59 -325 25 -47 -5 -168 -10 -270 -10 -170 0 -219 -3 -320 -15 l-36 -5 4 165
c4 141 2 169 -12 190 -21 32 -59 33 -80 3z"/>
</g>
</svg>
