<?xml version="1.0" standalone="no"?>
<!DOCTYPE svg PUBLIC "-//W3C//DTD SVG 20010904//EN"
 "http://www.w3.org/TR/2001/REC-SVG-20010904/DTD/svg10.dtd">
<svg version="1.0" xmlns="http://www.w3.org/2000/svg"
 width="248.000000pt" height="248.000000pt" viewBox="0 0 248.000000 248.000000"
 preserveAspectRatio="xMidYMid meet">
<metadata>
Created by potrace 1.10, written by Peter Selinger 2001-2011
</metadata>
<g transform="translate(0.000000,248.000000) scale(0.100000,-0.100000)"
fill="#000000" stroke="none">
<path d="M1755 2179 c-171 -11 -473 -48 -598 -75 -38 -8 -87 -14 -111 -14 -46
0 -66 -13 -66 -45 0 -12 5 -26 12 -33 14 -14 145 -16 204 -2 44 10 286 41 290
37 3 -3 -122 -258 -142 -288 -33 -50 6 -106 55 -79 27 14 81 108 150 260 l57
125 55 7 c30 4 150 10 267 14 154 5 215 11 223 20 17 21 6 57 -21 71 -27 14
-162 15 -375 2z"/>
<path d="M355 2006 c-17 -12 -19 -30 -20 -202 0 -104 -5 -347 -9 -539 -9 -340
-8 -352 11 -396 29 -64 64 -79 190 -79 176 0 303 61 303 146 0 55 -65 71 -90
23 -24 -44 -147 -81 -240 -73 -66 6 -76 17 -86 90 -9 77 2 397 15 422 6 11 64
69 128 128 203 186 247 246 211 282 -27 27 -56 9 -188 -118 -74 -72 -138 -130
-143 -130 -5 0 -7 97 -6 216 2 202 1 218 -16 230 -24 18 -36 18 -60 0z"/>
<path d="M1059 1699 c-16 -16 -19 -27 -14 -47 4 -15 6 -257 6 -538 -2 -461 -1
-513 14 -528 20 -19 49 -21 63 -3 7 8 12 192 15 556 5 523 4 544 -14 562 -25
25 -44 24 -70 -2z"/>
</g>
</svg>
