<?xml version="1.0" standalone="no"?>
<!DOCTYPE svg PUBLIC "-//W3C//DTD SVG 20010904//EN"
 "http://www.w3.org/TR/2001/REC-SVG-20010904/DTD/svg10.dtd">
<svg version="1.0" xmlns="http://www.w3.org/2000/svg"
 width="248.000000pt" height="248.000000pt" viewBox="0 0 248.000000 248.000000"
 preserveAspectRatio="xMidYMid meet">
<metadata>
Created by potrace 1.10, written by Peter Selinger 2001-2011
</metadata>
<g transform="translate(0.000000,248.000000) scale(0.100000,-0.100000)"
fill="#000000" stroke="none">
<path d="M1025 2013 c-44 -8 -145 -28 -225 -44 -80 -17 -221 -43 -314 -59 -93
-16 -175 -35 -182 -41 -22 -18 -17 -57 11 -75 23 -15 33 -14 152 6 70 12 211
39 313 60 102 21 210 41 240 45 108 13 160 39 160 80 0 48 -23 52 -155 28z"/>
<path d="M995 1680 c-152 -21 -446 -70 -456 -76 -13 -8 -174 -34 -211 -34 -50
0 -84 -14 -102 -42 -14 -21 -14 -37 -1 -148 9 -69 20 -168 26 -220 17 -166 19
-175 39 -208 22 -35 58 -43 80 -17 13 15 11 38 -10 205 -5 41 -14 120 -20 175
-6 55 -14 109 -16 121 -5 19 2 22 98 38 57 10 117 22 133 27 58 17 563 94 570
87 5 -5 -16 -202 -31 -298 -24 -152 -29 -247 -14 -265 19 -23 57 -18 76 10 9
14 20 58 24 98 4 40 15 119 23 177 27 173 38 317 27 345 -10 27 -46 46 -83 44
-12 -1 -80 -9 -152 -19z"/>
</g>
</svg>
