<?xml version="1.0" standalone="no"?>
<!DOCTYPE svg PUBLIC "-//W3C//DTD SVG 20010904//EN"
 "http://www.w3.org/TR/2001/REC-SVG-20010904/DTD/svg10.dtd">
<svg version="1.0" xmlns="http://www.w3.org/2000/svg"
 width="248.000000pt" height="248.000000pt" viewBox="0 0 248.000000 248.000000"
 preserveAspectRatio="xMidYMid meet">
<metadata>
Created by potrace 1.10, written by Peter Selinger 2001-2011
</metadata>
<g transform="translate(0.000000,248.000000) scale(0.100000,-0.100000)"
fill="#000000" stroke="none">
<path d="M735 2360 c-38 -11 -95 -22 -125 -25 -115 -14 -285 -47 -297 -58 -8
-9 -13 -125 -17 -401 -4 -215 -11 -451 -16 -525 -5 -75 -14 -208 -20 -296 -6
-88 -18 -203 -26 -255 -8 -52 -22 -138 -30 -190 -8 -52 -28 -151 -44 -219 -32
-130 -32 -154 1 -172 53 -28 86 47 130 291 11 63 26 147 34 185 7 39 21 147
31 241 l17 172 46 5 c25 3 111 17 191 31 80 14 153 26 163 26 16 0 17 -28 17
-456 l0 -456 -40 36 c-22 20 -47 36 -55 36 -19 0 -55 -36 -55 -55 0 -18 143
-175 172 -189 35 -17 65 7 77 64 12 56 14 1931 3 2098 -6 82 -10 96 -31 113
-28 23 -37 23 -126 -1z m49 -131 c3 -17 6 -141 6 -275 l0 -244 -27 -5 c-16 -4
-46 -10 -68 -15 -69 -15 -288 -50 -291 -47 -2 2 -1 127 3 279 l6 275 61 12
c34 6 97 16 141 21 44 5 91 13 105 19 44 17 57 13 64 -20z m6 -788 c0 -183 15
-161 -125 -181 -44 -6 -114 -17 -155 -25 -41 -7 -88 -16 -103 -18 l-29 -5 6
107 c4 58 9 129 12 158 l5 52 72 14 c40 8 117 24 172 35 162 32 145 48 145
-137z"/>
<path d="M2000 2314 c-47 -8 -146 -21 -220 -29 -326 -38 -502 -66 -525 -85
-23 -19 -18 -57 9 -75 22 -14 32 -14 115 1 51 9 94 14 97 11 3 -3 8 -57 11
-121 5 -94 3 -116 -8 -119 -8 -3 -66 -12 -129 -21 -245 -35 -262 -39 -287 -60
-24 -20 -24 -24 -14 -86 6 -36 13 -109 16 -162 7 -105 24 -150 66 -181 25 -18
30 -18 149 -3 67 9 125 18 129 21 7 4 171 23 391 45 52 5 158 12 235 15 195 8
260 14 280 29 34 24 87 402 65 457 -19 45 -68 56 -193 39 -93 -12 -270 -29
-274 -26 -1 1 -3 53 -4 116 l-3 114 100 13 c157 21 163 23 174 44 15 27 3 58
-27 70 -29 11 -43 10 -153 -7z m-200 -248 c0 -130 9 -118 -100 -136 -103 -16
-96 -21 -103 78 -4 48 -9 102 -13 120 l-6 32 43 1 c24 0 64 4 89 8 97 18 90
26 90 -103z m474 -253 c-6 -71 -30 -223 -36 -228 -2 -2 -78 -6 -170 -10 l-168
-7 0 39 c0 22 3 87 6 146 l7 105 91 5 c50 3 111 10 136 15 25 5 66 10 92 11
l48 1 -6 -77z m-478 -115 c-4 -79 -8 -144 -9 -144 -1 -1 -44 -4 -94 -8 l-93
-7 0 135 0 135 33 6 c17 3 55 9 82 14 97 17 89 30 81 -131z m-308 -40 l-3
-131 -55 -13 c-77 -17 -239 -38 -246 -32 -8 8 -25 249 -18 259 3 5 22 9 44 9
21 0 71 7 111 15 41 8 90 16 109 18 19 2 41 5 48 5 10 2 12 -27 10 -130z"/>
<path d="M1599 1304 c-8 -9 -23 -46 -34 -83 l-21 -66 -59 -12 c-33 -7 -109
-17 -170 -23 -137 -14 -253 -37 -282 -56 -26 -17 -30 -55 -8 -74 9 -7 31 -10
57 -7 73 8 290 36 342 43 l49 7 -29 -38 c-16 -21 -38 -53 -49 -70 -11 -18 -42
-65 -69 -106 -27 -40 -53 -86 -58 -101 -14 -41 11 -76 60 -84 21 -3 61 -18 90
-32 80 -42 201 -113 207 -122 12 -19 -197 -182 -305 -237 -56 -29 -76 -44 -78
-61 -9 -61 49 -67 152 -17 65 31 271 189 320 243 17 20 21 20 54 6 19 -8 72
-38 116 -68 141 -93 280 -182 304 -195 70 -37 116 54 47 93 -18 11 -217 138
-339 218 -33 21 -63 38 -68 38 -17 0 -7 19 35 66 42 48 160 218 207 299 12 22
39 85 59 140 l36 100 116 5 c124 5 149 15 149 55 0 34 -24 47 -98 52 -73 5
-407 -19 -567 -41 -55 -8 -101 -13 -102 -12 -2 1 3 28 9 60 9 41 9 62 2 74
-15 23 -57 27 -75 6z m446 -226 c-12 -41 -48 -133 -64 -158 -62 -104 -166
-254 -205 -295 -25 -28 -46 -53 -46 -57 0 -18 -35 -4 -122 47 -51 31 -119 68
-150 83 -32 15 -58 32 -58 38 0 13 25 51 141 214 25 36 49 72 52 81 6 17 22
20 262 50 44 5 100 11 125 13 25 1 51 3 58 4 9 1 11 -5 7 -20z"/>
</g>
</svg>
