<?xml version="1.0" standalone="no"?>
<!DOCTYPE svg PUBLIC "-//W3C//DTD SVG 20010904//EN"
 "http://www.w3.org/TR/2001/REC-SVG-20010904/DTD/svg10.dtd">
<svg version="1.0" xmlns="http://www.w3.org/2000/svg"
 width="248.000000pt" height="248.000000pt" viewBox="0 0 248.000000 248.000000"
 preserveAspectRatio="xMidYMid meet">
<metadata>
Created by potrace 1.10, written by Peter Selinger 2001-2011
</metadata>
<g transform="translate(0.000000,248.000000) scale(0.100000,-0.100000)"
fill="#000000" stroke="none">
<path d="M790 2373 c-14 -2 -39 -8 -56 -14 -17 -5 -115 -23 -218 -39 -103 -16
-193 -33 -200 -39 -10 -8 -15 -105 -20 -402 -4 -216 -11 -451 -16 -523 -5 -72
-14 -203 -20 -291 -15 -222 -54 -480 -100 -674 -32 -130 -32 -154 1 -172 29
-15 66 12 78 58 24 94 40 165 55 253 10 52 24 127 31 165 8 39 22 147 32 241
l17 172 45 5 c25 3 111 17 191 31 80 14 153 26 163 26 16 0 17 -28 17 -456 l0
-456 -40 36 c-22 20 -47 36 -55 36 -19 0 -55 -36 -55 -55 0 -15 139 -172 167
-188 8 -5 25 -6 37 -3 52 13 51 -15 54 1047 2 991 -2 1198 -29 1224 -18 16
-47 23 -79 18z m-5 -155 c3 -24 5 -149 3 -277 l-3 -235 -65 -11 c-36 -7 -121
-22 -189 -34 -68 -12 -125 -20 -127 -18 -2 2 -1 127 3 279 l6 275 66 12 c36 6
100 16 141 21 41 5 89 14 105 19 49 15 53 13 60 -31z m5 -777 l0 -159 -27 -6
c-16 -3 -100 -17 -188 -31 -88 -14 -168 -27 -178 -29 -18 -4 -18 2 -13 102 4
59 9 130 12 159 l5 51 72 15 c235 47 274 55 295 56 22 1 22 1 22 -158z"/>
<path d="M2005 2314 c-49 -7 -151 -20 -225 -29 -345 -41 -503 -67 -527 -87
-21 -17 -15 -56 11 -73 21 -14 32 -14 116 0 50 9 94 14 97 12 2 -3 7 -57 10
-121 5 -94 3 -116 -8 -119 -8 -3 -63 -12 -124 -21 -60 -8 -145 -21 -189 -27
-53 -8 -86 -19 -102 -33 -22 -20 -23 -24 -14 -96 5 -41 14 -122 20 -180 9 -92
14 -108 37 -132 15 -15 34 -30 44 -33 16 -5 244 21 258 30 20 11 444 52 631
60 193 8 256 15 275 29 35 25 88 400 65 457 -19 45 -70 56 -189 40 -87 -12
-274 -30 -278 -27 -1 0 -3 53 -4 116 l-3 114 100 13 c157 21 163 23 174 44 15
27 3 58 -27 70 -28 10 -28 10 -148 -7z m-205 -249 c0 -130 12 -115 -104 -135
-98 -17 -92 -21 -99 78 -4 48 -9 101 -13 118 l-6 31 89 10 c48 5 98 11 111 11
22 2 22 0 22 -113z m474 -252 c-6 -71 -30 -223 -36 -228 -2 -2 -78 -6 -170
-10 l-168 -7 0 39 c0 22 3 87 6 145 l7 106 91 6 c50 3 111 9 136 14 25 5 66
10 92 11 l48 1 -6 -77z m-479 -115 c-4 -79 -8 -144 -8 -144 -1 -1 -44 -4 -94
-8 l-93 -7 0 135 0 135 33 6 c17 3 55 9 82 14 96 17 89 30 80 -131z m-307 -40
l-3 -132 -35 -8 c-43 -10 -229 -38 -252 -38 -18 0 -22 24 -33 183 l-7 87 45 0
c25 0 78 7 118 15 41 8 90 16 109 18 19 2 41 5 48 5 10 2 12 -27 10 -130z"/>
</g>
</svg>
