<?xml version="1.0" standalone="no"?>
<!DOCTYPE svg PUBLIC "-//W3C//DTD SVG 20010904//EN"
 "http://www.w3.org/TR/2001/REC-SVG-20010904/DTD/svg10.dtd">
<svg version="1.0" xmlns="http://www.w3.org/2000/svg"
 width="248.000000pt" height="248.000000pt" viewBox="0 0 248.000000 248.000000"
 preserveAspectRatio="xMidYMid meet">
<metadata>
Created by potrace 1.10, written by Peter Selinger 2001-2011
</metadata>
<g transform="translate(0.000000,248.000000) scale(0.100000,-0.100000)"
fill="#000000" stroke="none">
<path d="M790 2373 c-14 -2 -39 -8 -56 -14 -17 -5 -115 -23 -218 -39 -103 -16
-193 -33 -200 -39 -10 -8 -15 -105 -20 -402 -4 -216 -11 -451 -16 -523 -5 -72
-14 -203 -20 -291 -15 -222 -54 -480 -100 -674 -32 -130 -32 -154 1 -172 29
-15 66 12 78 58 24 94 40 165 55 253 10 52 24 127 31 165 8 39 22 147 32 241
l17 172 45 5 c25 3 111 17 191 31 80 14 153 26 163 26 16 0 17 -28 17 -456 l0
-456 -40 36 c-22 20 -47 36 -55 36 -19 0 -55 -36 -55 -55 0 -15 139 -172 167
-188 8 -5 25 -6 37 -3 52 13 51 -15 54 1047 2 991 -2 1198 -29 1224 -18 16
-47 23 -79 18z m-5 -155 c3 -24 5 -149 3 -277 l-3 -235 -65 -11 c-36 -7 -121
-22 -189 -34 -68 -12 -125 -20 -127 -18 -2 2 -1 127 3 279 l6 275 66 12 c36 6
100 16 141 21 41 5 89 14 105 19 49 15 53 13 60 -31z m5 -777 l0 -159 -27 -6
c-16 -3 -100 -17 -188 -31 -88 -14 -168 -27 -178 -29 -18 -4 -18 2 -13 102 4
59 9 130 12 159 l5 51 72 15 c235 47 274 55 295 56 22 1 22 1 22 -158z"/>
<path d="M2005 2314 c-49 -7 -151 -20 -225 -29 -345 -41 -503 -67 -527 -87
-21 -17 -15 -56 11 -73 21 -14 32 -14 107 -1 46 8 163 24 259 35 165 20 436
56 507 67 58 9 69 75 16 95 -28 10 -28 10 -148 -7z"/>
<path d="M1060 1805 c-10 -11 -10 -47 -1 -165 15 -191 25 -224 68 -228 47 -5
56 20 48 131 -11 155 -24 240 -42 259 -20 22 -56 23 -73 3z"/>
</g>
</svg>
