<?xml version="1.0" standalone="no"?>
<!DOCTYPE svg PUBLIC "-//W3C//DTD SVG 20010904//EN"
 "http://www.w3.org/TR/2001/REC-SVG-20010904/DTD/svg10.dtd">
<svg version="1.0" xmlns="http://www.w3.org/2000/svg"
 width="248.000000pt" height="248.000000pt" viewBox="0 0 248.000000 248.000000"
 preserveAspectRatio="xMidYMid meet">
<metadata>
Created by potrace 1.10, written by Peter Selinger 2001-2011
</metadata>
<g transform="translate(0.000000,248.000000) scale(0.100000,-0.100000)"
fill="#000000" stroke="none">
<path d="M792 2248 c-8 -8 -10 -96 -5 -339 l6 -328 -24 -5 c-46 -11 -234 -44
-314 -56 -93 -15 -125 -31 -125 -64 0 -54 33 -58 222 -26 68 12 139 24 159 27
l36 5 -25 -78 c-65 -211 -260 -644 -345 -768 -32 -46 -34 -67 -9 -89 36 -33
59 -22 107 51 62 97 168 311 242 492 l64 155 -6 -375 c-6 -415 -5 -425 50
-425 22 0 33 7 42 26 9 18 14 165 19 531 l7 505 61 12 c34 6 110 18 170 26
119 16 156 33 156 69 0 48 -18 51 -173 32 -78 -10 -158 -20 -177 -23 l-35 -5
3 159 c4 217 -11 446 -32 478 -18 27 -54 33 -74 13z"/>
<path d="M1152 2167 c-7 -8 -34 -81 -61 -163 -28 -82 -59 -171 -70 -198 -24
-54 -26 -87 -9 -104 17 -17 53 -15 70 6 20 22 71 145 102 247 14 44 32 99 41
123 13 36 13 48 3 70 -15 31 -58 41 -76 19z"/>
<path d="M502 2078 c-17 -17 -15 -47 12 -135 13 -43 32 -126 43 -184 25 -131
40 -163 74 -167 47 -6 63 41 41 123 -6 22 -16 72 -22 110 -13 85 -56 223 -78
248 -17 20 -53 22 -70 5z"/>
</g>
</svg>
