<?xml version="1.0" standalone="no"?>
<!DOCTYPE svg PUBLIC "-//W3C//DTD SVG 20010904//EN"
 "http://www.w3.org/TR/2001/REC-SVG-20010904/DTD/svg10.dtd">
<svg version="1.0" xmlns="http://www.w3.org/2000/svg"
 width="248.000000pt" height="248.000000pt" viewBox="0 0 248.000000 248.000000"
 preserveAspectRatio="xMidYMid meet">
<metadata>
Created by potrace 1.10, written by Peter Selinger 2001-2011
</metadata>
<g transform="translate(0.000000,248.000000) scale(0.100000,-0.100000)"
fill="#000000" stroke="none">
<path d="M1961 2276 c-28 -23 -68 -52 -89 -62 -20 -10 -59 -33 -87 -50 -27
-17 -86 -50 -130 -74 -111 -60 -147 -80 -170 -96 -11 -8 -32 -14 -47 -14 -52
0 -55 -19 -62 -325 -6 -284 -19 -521 -36 -630 -5 -33 -14 -127 -20 -210 -9
-132 -18 -191 -50 -347 -9 -46 7 -82 38 -86 47 -7 59 18 91 203 11 61 25 180
31 265 6 85 15 180 20 210 5 30 14 141 20 245 6 105 13 226 16 271 l5 80 117
22 c64 13 144 27 177 32 33 5 74 12 92 15 l31 7 6 -83 c3 -46 8 -223 11 -394
10 -579 26 -1070 36 -1123 12 -60 40 -83 77 -63 27 14 28 26 20 236 -3 99 -11
396 -17 660 -6 264 -13 550 -17 636 l-5 156 78 16 c43 9 111 21 151 26 40 5
80 15 88 21 22 19 18 67 -7 81 -24 12 -132 0 -284 -33 -103 -22 -238 -48 -405
-78 -63 -12 -123 -23 -132 -26 -16 -5 -18 2 -18 60 0 39 4 66 10 66 6 0 58 27
117 60 58 33 108 60 111 60 2 0 41 22 86 49 44 26 103 61 129 76 69 38 137
106 137 136 0 62 -51 64 -119 5z"/>
<path d="M792 2248 c-8 -8 -10 -96 -5 -339 l6 -328 -24 -5 c-46 -11 -234 -44
-314 -56 -93 -15 -125 -31 -125 -64 0 -54 33 -58 222 -26 68 12 139 24 159 27
l36 5 -25 -78 c-65 -211 -260 -644 -345 -768 -32 -46 -34 -67 -9 -89 36 -33
59 -22 107 51 62 97 168 311 242 492 l64 155 -6 -370 c-4 -248 -3 -379 4 -397
13 -35 56 -48 79 -24 15 15 18 66 27 426 l10 410 66 -77 c36 -43 85 -107 109
-143 81 -122 125 -153 164 -114 24 23 20 46 -17 90 -18 21 -52 68 -77 104 -24
36 -74 101 -110 145 -56 69 -140 193 -140 208 0 6 95 23 234 42 119 16 156 33
156 69 0 48 -18 51 -173 32 -78 -10 -158 -20 -177 -23 l-35 -5 3 159 c4 217
-11 446 -32 478 -18 27 -54 33 -74 13z"/>
<path d="M1152 2167 c-7 -8 -34 -81 -61 -163 -28 -82 -59 -171 -70 -198 -24
-54 -26 -87 -9 -104 17 -17 53 -15 70 6 20 22 71 145 102 247 14 44 32 99 41
123 13 36 13 48 3 70 -15 31 -58 41 -76 19z"/>
<path d="M221 2116 c-22 -27 -7 -1696 16 -1771 5 -16 19 -35 31 -41 15 -7 129
-10 359 -7 347 4 529 15 573 36 35 17 39 61 7 82 -21 14 -37 15 -109 6 -45 -6
-237 -12 -425 -14 l-343 -4 -1 166 c-9 1290 -14 1507 -32 1534 -19 30 -57 36
-76 13z"/>
<path d="M502 2078 c-17 -17 -15 -47 12 -135 13 -43 32 -126 43 -184 25 -131
40 -163 74 -167 47 -6 63 41 41 123 -6 22 -16 72 -22 110 -13 85 -56 223 -78
248 -17 20 -53 22 -70 5z"/>
</g>
</svg>
