<?xml version="1.0" standalone="no"?>
<!DOCTYPE svg PUBLIC "-//W3C//DTD SVG 20010904//EN"
 "http://www.w3.org/TR/2001/REC-SVG-20010904/DTD/svg10.dtd">
<svg version="1.0" xmlns="http://www.w3.org/2000/svg"
 width="248.000000pt" height="248.000000pt" viewBox="0 0 248.000000 248.000000"
 preserveAspectRatio="xMidYMid meet">
<metadata>
Created by potrace 1.10, written by Peter Selinger 2001-2011
</metadata>
<g transform="translate(0.000000,248.000000) scale(0.100000,-0.100000)"
fill="#000000" stroke="none">
<path d="M1325 2269 c-71 -4 -191 -12 -265 -17 -74 -6 -187 -11 -250 -12 -126
0 -148 -7 -174 -59 -12 -22 -13 -43 -6 -97 5 -38 18 -152 30 -254 19 -169 32
-269 46 -358 4 -24 15 -39 46 -58 40 -25 46 -26 133 -20 l92 7 6 -77 c4 -42 7
-94 7 -116 l0 -38 -92 0 c-130 0 -278 -17 -305 -35 -25 -17 -30 -54 -11 -73 9
-9 63 -10 209 -5 l197 6 7 -136 c8 -155 17 -182 60 -182 48 0 55 29 48 182 -5
109 -4 133 8 138 19 7 245 24 479 35 282 14 360 23 377 46 33 46 5 78 -70 77
-134 0 -649 -34 -748 -48 l-46 -7 -6 77 c-4 43 -7 97 -7 120 l0 43 123 5 c67
3 219 10 338 16 234 10 283 16 299 36 11 14 41 190 60 355 7 58 18 134 25 170
37 181 29 260 -27 279 -34 12 -366 12 -583 0z m525 -121 c0 -13 -5 -61 -12
-106 -9 -71 -15 -85 -33 -92 -12 -4 -124 -11 -248 -15 l-227 -8 0 24 c0 13 -3
65 -6 116 l-6 92 43 4 c24 2 144 4 267 5 l222 2 0 -22z m-636 -49 c3 -34 6
-88 6 -120 l0 -57 -82 -6 c-46 -3 -148 -10 -227 -16 -107 -8 -146 -8 -151 1
-4 6 -11 50 -14 97 -4 48 -9 97 -12 108 -5 21 -2 21 168 28 95 4 198 11 228
16 30 4 60 8 66 9 7 0 14 -25 18 -60z m585 -326 c-5 -38 -13 -103 -20 -145
l-11 -77 -52 -5 c-28 -3 -126 -8 -218 -11 l-168 -5 0 145 0 145 83 1 c71 1
312 12 373 17 19 2 20 -1 13 -65z m-579 -107 l0 -143 -117 -7 c-120 -7 -189
-13 -255 -21 -33 -5 -37 -3 -42 23 -14 62 -34 258 -28 264 7 7 245 23 385 27
l57 1 0 -144z"/>
</g>
</svg>
