<?xml version="1.0" standalone="no"?>
<!DOCTYPE svg PUBLIC "-//W3C//DTD SVG 20010904//EN"
 "http://www.w3.org/TR/2001/REC-SVG-20010904/DTD/svg10.dtd">
<svg version="1.0" xmlns="http://www.w3.org/2000/svg"
 width="248.000000pt" height="248.000000pt" viewBox="0 0 248.000000 248.000000"
 preserveAspectRatio="xMidYMid meet">
<metadata>
Created by potrace 1.10, written by Peter Selinger 2001-2011
</metadata>
<g transform="translate(0.000000,248.000000) scale(0.100000,-0.100000)"
fill="#000000" stroke="none">
<path d="M1152 2167 c-7 -8 -34 -81 -61 -163 -28 -82 -59 -171 -70 -198 -24
-54 -26 -87 -9 -104 17 -17 53 -15 70 6 20 22 71 145 102 247 14 44 32 99 41
123 13 36 13 48 3 70 -15 31 -58 41 -76 19z"/>
<path d="M502 2078 c-17 -17 -15 -47 12 -135 13 -43 32 -126 43 -184 27 -138
39 -164 78 -164 45 0 58 35 40 105 -8 30 -19 88 -26 129 -13 86 -54 218 -77
244 -17 20 -53 22 -70 5z"/>
</g>
</svg>
