<?xml version="1.0" standalone="no"?>
<!DOCTYPE svg PUBLIC "-//W3C//DTD SVG 20010904//EN"
 "http://www.w3.org/TR/2001/REC-SVG-20010904/DTD/svg10.dtd">
<svg version="1.0" xmlns="http://www.w3.org/2000/svg"
 width="248.000000pt" height="248.000000pt" viewBox="0 0 248.000000 248.000000"
 preserveAspectRatio="xMidYMid meet">
<metadata>
Created by potrace 1.10, written by Peter Selinger 2001-2011
</metadata>
<g transform="translate(0.000000,248.000000) scale(0.100000,-0.100000)"
fill="#000000" stroke="none">
<path d="M1325 2269 c-71 -4 -191 -12 -265 -17 -74 -6 -187 -11 -250 -12 -126
0 -148 -7 -174 -59 -12 -22 -13 -43 -6 -97 5 -38 18 -152 30 -254 19 -169 32
-269 46 -358 4 -24 15 -39 46 -58 l40 -26 202 11 c110 6 262 16 336 21 74 6
178 10 230 10 129 0 271 16 287 32 14 14 42 177 63 358 7 58 18 134 25 170 37
181 29 260 -27 279 -34 12 -366 12 -583 0z m525 -121 c0 -13 -5 -61 -12 -106
-9 -71 -15 -85 -33 -92 -12 -4 -124 -11 -248 -15 l-227 -8 0 24 c0 13 -3 65
-6 116 l-6 92 43 4 c24 2 144 4 267 5 l222 2 0 -22z m-636 -49 c3 -34 6 -88 6
-120 l0 -57 -82 -6 c-46 -3 -148 -10 -227 -16 -107 -8 -146 -8 -151 1 -4 6
-11 50 -14 97 -4 48 -9 97 -12 108 -5 21 -2 21 168 28 95 4 198 11 228 16 30
4 60 8 66 9 7 0 14 -25 18 -60z m585 -326 c-5 -38 -13 -103 -20 -145 l-11 -77
-52 -5 c-28 -3 -126 -8 -218 -11 l-168 -5 0 145 0 145 83 1 c71 1 312 12 373
17 19 2 20 -1 13 -65z m-579 -107 l0 -143 -117 -7 c-120 -7 -189 -13 -255 -21
-33 -5 -37 -3 -42 23 -14 62 -34 258 -28 264 7 7 245 23 385 27 l57 1 0 -144z"/>
<path d="M1848 1225 c-3 -3 -102 -11 -220 -16 -117 -6 -258 -14 -313 -19 -55
-5 -221 -14 -370 -19 -268 -10 -332 -18 -360 -41 -18 -15 -19 -54 -2 -68 14
-12 499 1 697 18 58 5 195 14 305 20 290 14 366 24 382 46 17 23 17 49 -1 63
-16 14 -108 26 -118 16z"/>
</g>
</svg>
