<?xml version="1.0" standalone="no"?>
<!DOCTYPE svg PUBLIC "-//W3C//DTD SVG 20010904//EN"
 "http://www.w3.org/TR/2001/REC-SVG-20010904/DTD/svg10.dtd">
<svg version="1.0" xmlns="http://www.w3.org/2000/svg"
 width="248.000000pt" height="248.000000pt" viewBox="0 0 248.000000 248.000000"
 preserveAspectRatio="xMidYMid meet">
<metadata>
Created by potrace 1.10, written by Peter Selinger 2001-2011
</metadata>
<g transform="translate(0.000000,248.000000) scale(0.100000,-0.100000)"
fill="#000000" stroke="none">
<path d="M668 2169 c-10 -5 -22 -28 -28 -50 -12 -43 -90 -190 -159 -299 -22
-36 -57 -94 -78 -130 -20 -36 -54 -91 -75 -122 -21 -31 -38 -59 -38 -62 0 -2
-18 -31 -40 -63 -136 -195 -143 -212 -115 -243 34 -37 66 -22 112 52 15 25 53
83 84 129 95 143 219 344 317 517 35 61 67 112 71 112 3 0 62 -60 131 -132
168 -179 290 -283 332 -283 36 0 54 22 44 56 -4 13 -39 51 -79 84 -86 72 -129
114 -272 269 -60 65 -122 132 -137 147 -28 31 -43 34 -70 18z"/>
<path d="M835 1599 c-22 -5 -67 -18 -100 -29 -33 -10 -98 -27 -145 -36 -99
-19 -130 -35 -130 -68 0 -39 23 -50 93 -43 34 3 70 9 80 12 16 7 17 -3 17
-123 l0 -129 -62 -13 c-35 -7 -88 -19 -119 -26 -31 -8 -68 -14 -81 -14 -65 0
-90 -69 -37 -99 24 -14 38 -12 150 13 68 15 132 30 142 33 15 4 17 -5 18 -89
0 -51 4 -177 8 -279 8 -204 18 -239 65 -239 49 0 50 8 40 333 -5 166 -9 303
-8 305 0 1 27 7 60 13 95 17 249 67 267 87 21 23 22 56 2 72 -18 15 -42 11
-155 -23 -47 -14 -106 -28 -132 -32 l-48 -7 0 125 0 125 33 11 c17 6 54 15 82
21 61 14 75 25 75 59 0 50 -29 60 -115 40z"/>
<path d="M352 838 c-28 -28 -13 -60 69 -139 81 -78 111 -93 137 -67 33 33 -3
94 -106 181 -45 38 -79 46 -100 25z"/>
</g>
</svg>
