<?xml version="1.0" standalone="no"?>
<!DOCTYPE svg PUBLIC "-//W3C//DTD SVG 20010904//EN"
 "http://www.w3.org/TR/2001/REC-SVG-20010904/DTD/svg10.dtd">
<svg version="1.0" xmlns="http://www.w3.org/2000/svg"
 width="248.000000pt" height="248.000000pt" viewBox="0 0 248.000000 248.000000"
 preserveAspectRatio="xMidYMid meet">
<metadata>
Created by potrace 1.10, written by Peter Selinger 2001-2011
</metadata>
<g transform="translate(0.000000,248.000000) scale(0.100000,-0.100000)"
fill="#000000" stroke="none">
<path d="M668 2169 c-10 -5 -22 -28 -28 -50 -12 -43 -90 -190 -159 -299 -22
-36 -57 -94 -78 -130 -20 -36 -54 -91 -75 -122 -21 -31 -38 -59 -38 -62 0 -2
-18 -31 -40 -63 -136 -195 -143 -212 -115 -243 34 -37 66 -22 112 52 15 25 53
83 84 129 95 143 219 344 317 517 35 61 67 112 71 112 3 0 62 -60 131 -132
168 -179 290 -283 332 -283 36 0 54 22 44 56 -4 13 -39 51 -79 84 -86 72 -129
114 -272 269 -60 65 -122 132 -137 147 -28 31 -43 34 -70 18z"/>
<path d="M835 1599 c-22 -5 -67 -18 -100 -29 -33 -10 -98 -27 -145 -36 -47 -9
-95 -22 -107 -30 -26 -17 -30 -55 -8 -74 19 -16 112 -8 210 19 39 10 108 29
155 41 99 26 110 33 110 69 0 50 -29 60 -115 40z"/>
</g>
</svg>
