<?xml version="1.0" standalone="no"?>
<!DOCTYPE svg PUBLIC "-//W3C//DTD SVG 20010904//EN"
 "http://www.w3.org/TR/2001/REC-SVG-20010904/DTD/svg10.dtd">
<svg version="1.0" xmlns="http://www.w3.org/2000/svg"
 width="248.000000pt" height="248.000000pt" viewBox="0 0 248.000000 248.000000"
 preserveAspectRatio="xMidYMid meet">
<metadata>
Created by potrace 1.10, written by Peter Selinger 2001-2011
</metadata>
<g transform="translate(0.000000,248.000000) scale(0.100000,-0.100000)"
fill="#000000" stroke="none">
<path d="M1162 2310 c-63 -71 -169 -152 -270 -204 -72 -38 -89 -59 -80 -102 6
-34 41 -34 114 2 225 111 402 292 342 352 -25 25 -54 12 -106 -48z"/>
<path d="M629 2004 c-10 -12 -10 -27 -1 -72 14 -73 28 -191 42 -367 17 -218
21 -230 72 -223 44 6 52 46 39 187 -35 369 -46 436 -79 474 -19 21 -55 22 -73
1z"/>
</g>
</svg>
