<?xml version="1.0" standalone="no"?>
<!DOCTYPE svg PUBLIC "-//W3C//DTD SVG 20010904//EN"
 "http://www.w3.org/TR/2001/REC-SVG-20010904/DTD/svg10.dtd">
<svg version="1.0" xmlns="http://www.w3.org/2000/svg"
 width="248.000000pt" height="248.000000pt" viewBox="0 0 248.000000 248.000000"
 preserveAspectRatio="xMidYMid meet">
<metadata>
Created by potrace 1.10, written by Peter Selinger 2001-2011
</metadata>
<g transform="translate(0.000000,248.000000) scale(0.100000,-0.100000)"
fill="#000000" stroke="none">
<path d="M686 2298 c-13 -18 -16 -52 -16 -160 l0 -138 -37 0 c-21 0 -105 -11
-188 -25 -82 -14 -168 -25 -190 -25 -53 0 -87 -24 -83 -58 7 -57 56 -61 283
-22 61 10 139 21 175 25 36 3 146 19 245 35 99 16 211 33 250 39 88 13 114 41
81 87 -12 15 -25 19 -71 17 -50 -3 -244 -31 -327 -49 l-28 -6 0 129 c0 141
-10 173 -55 173 -13 0 -31 -10 -39 -22z"/>
<path d="M402 1727 c-6 -6 -14 -26 -18 -42 -4 -17 -10 -34 -14 -40 -5 -5 -19
-37 -33 -70 -13 -33 -54 -109 -91 -170 -36 -60 -66 -119 -66 -131 0 -29 23
-46 56 -42 23 2 38 20 91 108 130 214 178 342 144 384 -16 19 -54 21 -69 3z"/>
</g>
</svg>
