<?xml version="1.0" standalone="no"?>
<!DOCTYPE svg PUBLIC "-//W3C//DTD SVG 20010904//EN"
 "http://www.w3.org/TR/2001/REC-SVG-20010904/DTD/svg10.dtd">
<svg version="1.0" xmlns="http://www.w3.org/2000/svg"
 width="248.000000pt" height="248.000000pt" viewBox="0 0 248.000000 248.000000"
 preserveAspectRatio="xMidYMid meet">
<metadata>
Created by potrace 1.10, written by Peter Selinger 2001-2011
</metadata>
<g transform="translate(0.000000,248.000000) scale(0.100000,-0.100000)"
fill="#000000" stroke="none">
<path d="M1162 2310 c-61 -69 -166 -149 -267 -204 -56 -31 -89 -41 -163 -51
-51 -7 -99 -18 -107 -25 -19 -15 -19 -43 -1 -95 14 -41 26 -141 50 -415 16
-179 19 -184 113 -194 32 -4 180 -2 328 3 149 6 349 11 446 11 127 0 180 4
193 13 13 9 19 32 22 87 3 41 12 107 19 145 8 39 19 120 25 180 6 61 17 151
26 202 20 119 16 154 -16 170 -33 17 -139 16 -330 -3 -85 -8 -211 -17 -280
-20 -121 -6 -124 -5 -100 12 113 79 187 193 148 232 -25 25 -54 12 -106 -48z
m584 -301 c-3 -17 -11 -71 -18 -119 l-11 -88 -106 -6 c-58 -3 -243 -10 -411
-16 -168 -6 -335 -12 -372 -13 l-68 -3 -4 31 c-3 16 -7 50 -10 75 -3 25 -8 53
-11 62 -5 13 6 17 67 23 40 4 105 13 143 21 39 8 133 19 210 25 77 6 208 16
290 23 83 7 185 14 229 15 l79 1 -7 -31z m-46 -336 c0 -10 -7 -63 -16 -119
l-17 -101 -271 -7 c-149 -3 -346 -9 -437 -13 l-166 -6 -6 39 c-3 21 -9 73 -13
115 l-6 75 398 16 c565 21 534 21 534 1z"/>
<path d="M1535 1199 c-93 -5 -228 -14 -300 -20 -71 -7 -220 -15 -331 -18 -218
-7 -238 -12 -232 -60 5 -43 37 -51 215 -51 89 0 184 4 210 10 26 5 183 17 348
25 165 8 311 18 325 22 52 13 78 61 48 91 -13 13 -30 13 -283 1z"/>
</g>
</svg>
