<?xml version="1.0" standalone="no"?>
<!DOCTYPE svg PUBLIC "-//W3C//DTD SVG 20010904//EN"
 "http://www.w3.org/TR/2001/REC-SVG-20010904/DTD/svg10.dtd">
<svg version="1.0" xmlns="http://www.w3.org/2000/svg"
 width="248.000000pt" height="248.000000pt" viewBox="0 0 248.000000 248.000000"
 preserveAspectRatio="xMidYMid meet">
<metadata>
Created by potrace 1.10, written by Peter Selinger 2001-2011
</metadata>
<g transform="translate(0.000000,248.000000) scale(0.100000,-0.100000)"
fill="#000000" stroke="none">
<path d="M781 2282 c-40 -51 -109 -121 -146 -150 -16 -12 -61 -53 -100 -91
-38 -37 -92 -83 -118 -101 -26 -19 -50 -44 -53 -55 -3 -12 2 -67 12 -121 14
-81 17 -162 17 -444 1 -375 -3 -419 -64 -695 -38 -177 -57 -238 -114 -371 -25
-58 -45 -116 -45 -128 0 -45 52 -62 84 -27 21 23 80 160 117 274 28 84 84 333
109 482 33 197 35 710 4 890 -18 105 -18 108 10 125 57 35 352 314 372 352 45
87 -25 136 -85 60z"/>
</g>
</svg>
