<?xml version="1.0" standalone="no"?>
<!DOCTYPE svg PUBLIC "-//W3C//DTD SVG 20010904//EN"
 "http://www.w3.org/TR/2001/REC-SVG-20010904/DTD/svg10.dtd">
<svg version="1.0" xmlns="http://www.w3.org/2000/svg"
 width="248.000000pt" height="248.000000pt" viewBox="0 0 248.000000 248.000000"
 preserveAspectRatio="xMidYMid meet">
<metadata>
Created by potrace 1.10, written by Peter Selinger 2001-2011
</metadata>
<g transform="translate(0.000000,248.000000) scale(0.100000,-0.100000)"
fill="#000000" stroke="none">
<path d="M1169 2363 c-11 -13 -15 -85 -17 -348 l-3 -332 -72 -7 c-40 -4 -98
-9 -129 -13 l-58 -6 -1 174 c-1 96 -1 178 0 183 1 4 -5 19 -14 33 -12 17 -24
23 -43 21 -47 -5 -53 -34 -50 -235 2 -145 0 -184 -10 -188 -8 -3 -39 -5 -70
-5 -91 -1 -280 -26 -297 -40 -20 -16 -19 -54 2 -71 9 -8 35 -13 62 -12 73 3
283 21 451 38 85 9 198 20 250 25 100 10 567 46 730 56 110 7 143 22 138 62
-5 41 -40 54 -123 47 -98 -8 -292 -23 -472 -35 -84 -6 -160 -13 -168 -16 -13
-5 -15 16 -15 154 l0 161 48 6 c74 9 255 36 280 42 28 7 45 37 37 64 -11 34
-49 41 -134 25 -42 -8 -111 -17 -153 -21 l-78 -7 0 109 c0 82 -4 114 -16 131
-18 26 -56 29 -75 5z"/>
</g>
</svg>
