<?xml version="1.0" standalone="no"?>
<!DOCTYPE svg PUBLIC "-//W3C//DTD SVG 20010904//EN"
 "http://www.w3.org/TR/2001/REC-SVG-20010904/DTD/svg10.dtd">
<svg version="1.0" xmlns="http://www.w3.org/2000/svg"
 width="248.000000pt" height="248.000000pt" viewBox="0 0 248.000000 248.000000"
 preserveAspectRatio="xMidYMid meet">
<metadata>
Created by potrace 1.10, written by Peter Selinger 2001-2011
</metadata>
<g transform="translate(0.000000,248.000000) scale(0.100000,-0.100000)"
fill="#000000" stroke="none">
<path d="M1169 2363 c-11 -13 -15 -84 -17 -346 -2 -285 -1 -333 13 -353 20
-31 59 -31 79 -2 13 18 16 54 16 185 l0 162 48 6 c74 9 255 36 280 42 28 7 45
37 37 64 -11 34 -49 41 -134 25 -42 -8 -111 -17 -153 -21 l-78 -7 0 109 c0 82
-4 114 -16 131 -18 26 -56 29 -75 5z"/>
<path d="M799 2053 c-11 -12 -14 -62 -14 -218 0 -175 2 -204 18 -228 19 -30
57 -36 76 -13 19 22 14 427 -5 455 -18 25 -56 27 -75 4z"/>
</g>
</svg>
