<?xml version="1.0" standalone="no"?>
<!DOCTYPE svg PUBLIC "-//W3C//DTD SVG 20010904//EN"
 "http://www.w3.org/TR/2001/REC-SVG-20010904/DTD/svg10.dtd">
<svg version="1.0" xmlns="http://www.w3.org/2000/svg"
 width="248.000000pt" height="248.000000pt" viewBox="0 0 248.000000 248.000000"
 preserveAspectRatio="xMidYMid meet">
<metadata>
Created by potrace 1.10, written by Peter Selinger 2001-2011
</metadata>
<g transform="translate(0.000000,248.000000) scale(0.100000,-0.100000)"
fill="#000000" stroke="none">
<path d="M1162 2310 c-61 -69 -166 -149 -267 -204 -56 -31 -89 -41 -163 -51
-51 -7 -99 -18 -107 -25 -19 -15 -19 -43 -1 -95 14 -41 26 -141 50 -412 8 -91
19 -159 26 -168 21 -25 63 -14 79 19 11 25 12 48 2 135 -6 58 -11 115 -11 126
0 20 10 21 462 38 253 9 464 15 466 12 3 -3 -2 -52 -11 -109 -9 -57 -17 -129
-17 -160 0 -46 3 -57 21 -67 38 -20 66 2 78 63 12 62 28 171 42 283 5 44 17
134 26 200 9 66 17 145 17 175 1 48 -2 56 -24 67 -33 17 -139 16 -330 -3 -85
-8 -211 -17 -280 -20 -121 -6 -124 -5 -100 12 113 79 187 193 148 232 -25 25
-54 12 -106 -48z m584 -301 c-3 -17 -11 -71 -18 -119 l-11 -88 -106 -6 c-58
-3 -243 -10 -411 -16 -168 -6 -335 -12 -372 -13 l-68 -3 -4 31 c-3 16 -7 50
-10 75 -3 25 -8 53 -11 62 -5 13 6 17 67 23 40 4 105 13 143 21 39 8 133 19
210 25 77 6 208 16 290 23 83 7 185 14 229 15 l79 1 -7 -31z"/>
</g>
</svg>
