<?xml version="1.0" standalone="no"?>
<!DOCTYPE svg PUBLIC "-//W3C//DTD SVG 20010904//EN"
 "http://www.w3.org/TR/2001/REC-SVG-20010904/DTD/svg10.dtd">
<svg version="1.0" xmlns="http://www.w3.org/2000/svg"
 width="248.000000pt" height="248.000000pt" viewBox="0 0 248.000000 248.000000"
 preserveAspectRatio="xMidYMid meet">
<metadata>
Created by potrace 1.10, written by Peter Selinger 2001-2011
</metadata>
<g transform="translate(0.000000,248.000000) scale(0.100000,-0.100000)"
fill="#000000" stroke="none">
<path d="M1169 2363 c-11 -13 -15 -85 -17 -348 l-3 -332 -72 -7 c-40 -4 -98
-9 -129 -13 l-58 -6 -1 174 c-1 96 -1 178 0 183 1 4 -5 19 -14 33 -12 17 -24
23 -43 21 -47 -5 -53 -34 -50 -235 2 -145 0 -184 -10 -188 -8 -3 -39 -5 -70
-5 -91 -1 -280 -26 -297 -40 -20 -16 -19 -54 2 -71 9 -8 35 -13 62 -12 73 3
283 21 451 38 85 9 198 20 250 25 100 10 567 46 730 56 110 7 143 22 138 62
-5 41 -40 54 -123 47 -98 -8 -292 -23 -472 -35 -84 -6 -160 -13 -168 -16 -13
-5 -15 16 -15 154 l0 161 48 6 c74 9 255 36 280 42 28 7 45 37 37 64 -11 34
-49 41 -134 25 -42 -8 -111 -17 -153 -21 l-78 -7 0 109 c0 82 -4 114 -16 131
-18 26 -56 29 -75 5z"/>
<path d="M1470 1500 c-138 -16 -258 -32 -340 -45 -47 -8 -116 -17 -155 -21
-121 -11 -129 -23 -126 -184 1 -63 -3 -330 -10 -592 -11 -440 -10 -480 5 -503
10 -15 26 -25 40 -25 47 0 51 17 58 268 4 129 9 236 11 239 6 5 74 9 307 18
80 3 175 8 213 12 l67 6 0 -140 c0 -77 -3 -161 -6 -186 -6 -42 -8 -45 -27 -36
-14 8 -26 8 -43 0 -37 -17 -32 -62 13 -112 67 -74 132 -88 154 -31 14 35 30
1292 17 1308 -8 11 -88 36 -105 33 -4 -1 -37 -5 -73 -9z m76 -192 c-3 -50 -6
-116 -6 -148 l0 -56 -142 -13 c-154 -14 -432 -38 -434 -37 -1 1 -4 62 -5 136
l-4 135 25 3 c14 1 68 9 120 18 110 18 356 48 429 53 l24 1 -7 -92z m-6 -422
c0 -91 -2 -105 -17 -110 -10 -2 -94 -7 -188 -11 -93 -3 -218 -8 -277 -11
l-108 -6 0 88 c0 49 4 94 8 100 4 6 73 16 157 23 83 7 177 16 210 20 33 5 95
9 138 10 l77 1 0 -104z"/>
</g>
</svg>
