<?xml version="1.0" standalone="no"?>
<!DOCTYPE svg PUBLIC "-//W3C//DTD SVG 20010904//EN"
 "http://www.w3.org/TR/2001/REC-SVG-20010904/DTD/svg10.dtd">
<svg version="1.0" xmlns="http://www.w3.org/2000/svg"
 width="248.000000pt" height="248.000000pt" viewBox="0 0 248.000000 248.000000"
 preserveAspectRatio="xMidYMid meet">
<metadata>
Created by potrace 1.10, written by Peter Selinger 2001-2011
</metadata>
<g transform="translate(0.000000,248.000000) scale(0.100000,-0.100000)"
fill="#000000" stroke="none">
<path d="M1636 2358 c-13 -18 -16 -50 -16 -159 l0 -137 -63 -11 c-35 -6 -81
-11 -103 -11 -21 0 -64 -7 -94 -15 -30 -8 -56 -15 -57 -15 -2 0 -3 39 -3 88 0
109 -16 211 -37 234 -18 20 -53 24 -70 7 -8 -8 -10 -62 -6 -178 l6 -167 -104
-13 c-128 -15 -154 -26 -154 -66 0 -57 43 -62 236 -30 l26 4 7 -102 c4 -56 9
-110 12 -119 6 -20 3 -20 -126 -38 -198 -26 -325 -51 -342 -67 -22 -20 -23
-56 -2 -74 17 -14 6 -15 308 31 72 11 132 17 134 15 7 -7 -25 -77 -88 -190
-45 -82 -74 -119 -162 -206 -58 -59 -128 -122 -155 -140 -89 -60 -143 -111
-143 -134 0 -54 60 -60 118 -12 21 17 59 47 83 64 95 70 152 121 222 199 96
108 227 338 227 400 0 12 4 25 9 28 5 4 56 10 113 16 56 5 122 12 145 15 41 6
43 5 57 -28 8 -19 57 -81 110 -138 53 -57 96 -106 96 -110 0 -4 55 -57 123
-119 97 -88 140 -120 212 -155 122 -61 171 -57 163 10 -3 28 -6 29 -118 85
-73 36 -140 90 -250 200 -149 150 -243 257 -235 270 2 4 28 10 57 13 29 4 112
14 183 22 72 9 169 20 217 24 94 8 118 20 118 57 0 44 -26 57 -104 50 -93 -7
-302 -32 -394 -46 -41 -7 -75 -10 -76 -8 -1 1 0 64 3 138 l6 135 80 16 c44 9
111 21 148 27 76 12 97 24 97 57 0 27 -19 44 -51 47 -29 2 -131 -10 -179 -22
-19 -4 -47 -11 -62 -14 l-28 -6 0 122 c0 79 -5 132 -13 148 -17 34 -60 39 -81
8z m-28 -540 l-3 -133 -139 -13 c-76 -7 -140 -12 -142 -10 -2 2 -6 58 -10 125
l-7 120 39 8 c51 11 201 32 237 34 l28 1 -3 -132z"/>
<path d="M302 2218 c-7 -7 -12 -21 -12 -33 0 -25 89 -118 189 -197 77 -61 113
-71 134 -37 20 32 -2 65 -85 131 -46 37 -101 85 -123 107 -40 42 -79 53 -103
29z"/>
<path d="M112 1518 c-16 -16 -15 -53 1 -66 6 -6 57 -33 111 -62 55 -28 116
-64 135 -79 48 -38 75 -51 103 -51 30 0 48 17 48 47 0 32 -124 122 -263 190
-70 34 -115 41 -135 21z"/>
<path d="M514 658 c-63 -72 -243 -335 -302 -440 -34 -61 -40 -96 -20 -116 32
-32 78 -3 117 76 25 50 126 199 258 383 34 48 42 86 21 107 -19 19 -53 14 -74
-10z"/>
</g>
</svg>
