<?xml version="1.0" standalone="no"?>
<!DOCTYPE svg PUBLIC "-//W3C//DTD SVG 20010904//EN"
 "http://www.w3.org/TR/2001/REC-SVG-20010904/DTD/svg10.dtd">
<svg version="1.0" xmlns="http://www.w3.org/2000/svg"
 width="248.000000pt" height="248.000000pt" viewBox="0 0 248.000000 248.000000"
 preserveAspectRatio="xMidYMid meet">
<metadata>
Created by potrace 1.10, written by Peter Selinger 2001-2011
</metadata>
<g transform="translate(0.000000,248.000000) scale(0.100000,-0.100000)"
fill="#000000" stroke="none">
<path d="M1327 2319 c-9 -5 -63 -67 -119 -137 -56 -70 -138 -165 -181 -210
-68 -73 -78 -88 -75 -115 2 -24 10 -34 31 -41 24 -9 32 -6 71 33 l44 44 39
-24 c21 -12 56 -37 78 -55 22 -17 55 -39 73 -48 17 -9 32 -20 32 -24 0 -4 -28
-40 -63 -80 -81 -95 -243 -241 -332 -299 -96 -63 -115 -81 -115 -115 0 -20 7
-32 24 -39 52 -24 287 156 486 370 52 56 98 101 102 101 5 0 44 -22 87 -50
310 -194 663 -348 839 -366 56 -6 61 -5 77 19 13 20 14 30 6 46 -12 22 -19 24
-104 41 -179 36 -461 162 -737 331 -92 56 -103 66 -93 82 28 48 238 321 291
378 64 70 72 91 48 125 -14 18 -28 19 -223 19 -148 0 -214 4 -230 13 -26 14
-33 15 -56 1z m343 -124 c0 -11 -262 -357 -274 -361 -17 -6 -79 32 -208 128
-16 12 -10 22 68 118 l85 105 57 6 c74 7 272 10 272 4z"/>
<path d="M799 2196 c-7 -7 -320 -37 -472 -45 -112 -7 -141 -12 -158 -27 -35
-31 -20 -72 33 -88 12 -3 18 -20 22 -58 5 -57 28 -882 27 -983 -1 -107 -21
-426 -36 -575 -18 -183 -23 -271 -17 -288 2 -7 15 -18 29 -23 57 -22 83 30 83
171 0 47 5 114 10 150 5 36 12 126 16 200 3 74 10 173 14 220 4 47 6 151 4
231 l-3 146 57 -23 c72 -29 234 -42 272 -22 49 26 81 141 68 246 -12 98 -56
179 -139 256 l-71 66 74 82 c41 46 111 127 157 181 69 83 82 103 79 129 -3 27
-37 65 -49 54z m-175 -193 c-117 -138 -180 -204 -212 -224 -27 -15 -33 -24
-30 -46 3 -27 7 -30 82 -65 47 -21 135 -113 158 -164 14 -33 21 -71 22 -118 2
-107 0 -109 -92 -105 -69 4 -130 23 -200 65 -2 1 -7 148 -12 325 -5 178 -11
333 -15 345 -6 20 0 21 107 36 62 8 144 16 181 17 l68 1 -57 -67z"/>
<path d="M1740 1314 c-47 -7 -146 -18 -220 -24 -344 -26 -493 -45 -527 -66
-27 -17 -30 -56 -7 -75 13 -10 43 -10 172 4 86 9 218 22 292 27 74 6 169 15
211 21 41 5 113 14 158 19 91 10 111 20 111 56 0 55 -37 63 -190 38z"/>
</g>
</svg>
