<?xml version="1.0" standalone="no"?>
<!DOCTYPE svg PUBLIC "-//W3C//DTD SVG 20010904//EN"
 "http://www.w3.org/TR/2001/REC-SVG-20010904/DTD/svg10.dtd">
<svg version="1.0" xmlns="http://www.w3.org/2000/svg"
 width="248.000000pt" height="248.000000pt" viewBox="0 0 248.000000 248.000000"
 preserveAspectRatio="xMidYMid meet">
<metadata>
Created by potrace 1.10, written by Peter Selinger 2001-2011
</metadata>
<g transform="translate(0.000000,248.000000) scale(0.100000,-0.100000)"
fill="#000000" stroke="none">
<path d="M1206 2178 c-9 -15 -16 -65 -19 -148 -4 -99 -13 -155 -42 -270 -35
-138 -94 -298 -136 -366 -33 -55 -20 -94 32 -94 32 0 53 25 92 110 37 81 80
191 87 225 5 27 11 31 55 38 28 4 86 14 130 22 44 8 121 22 170 31 50 8 118
22 152 30 34 8 66 14 70 14 13 0 -2 -162 -20 -205 -8 -22 -41 -119 -72 -215
-30 -96 -71 -201 -89 -233 l-34 -59 -30 54 c-17 29 -45 84 -62 123 -17 38 -42
83 -54 100 -13 16 -33 50 -46 75 -12 25 -32 55 -43 68 -35 38 -87 24 -87 -24
0 -21 69 -155 95 -184 8 -8 27 -47 44 -85 30 -71 95 -192 112 -209 5 -6 9 -17
9 -25 -1 -35 -122 -209 -238 -341 -130 -147 -196 -202 -330 -274 -65 -35 -78
-45 -80 -69 -4 -32 13 -57 38 -57 47 0 209 94 299 174 117 104 300 322 351
419 14 26 28 47 31 47 4 0 26 -26 50 -57 113 -151 298 -352 415 -451 87 -74
253 -182 278 -182 30 0 46 18 46 52 0 24 -11 35 -72 74 -198 126 -471 400
-634 636 l-26 36 55 105 c35 66 74 164 107 268 28 90 61 189 73 219 17 43 22
76 22 148 0 85 2 93 20 96 170 30 195 41 195 80 0 60 -33 59 -383 -9 -263 -51
-373 -72 -436 -81 l-43 -6 6 28 c39 179 47 334 20 372 -20 29 -59 29 -78 0z"/>
<path d="M780 1798 c-397 -102 -429 -109 -457 -102 -23 6 -63 -26 -63 -51 0
-27 38 -55 74 -55 31 0 134 19 195 36 l24 7 -8 -259 c-4 -142 -8 -289 -8 -326
-2 -80 22 -67 -237 -129 -96 -22 -181 -45 -187 -51 -20 -16 -15 -55 8 -72 28
-19 38 -18 431 79 355 88 455 118 476 144 13 16 7 51 -12 63 -17 11 -71 9
-103 -3 -15 -7 -84 -26 -152 -44 l-124 -32 8 106 c4 58 9 207 11 331 l2 225
24 3 c71 11 195 45 210 59 24 22 23 69 -1 83 -23 12 -16 13 -111 -12z"/>
</g>
</svg>
