<?xml version="1.0" standalone="no"?>
<!DOCTYPE svg PUBLIC "-//W3C//DTD SVG 20010904//EN"
 "http://www.w3.org/TR/2001/REC-SVG-20010904/DTD/svg10.dtd">
<svg version="1.0" xmlns="http://www.w3.org/2000/svg"
 width="248.000000pt" height="248.000000pt" viewBox="0 0 248.000000 248.000000"
 preserveAspectRatio="xMidYMid meet">
<metadata>
Created by potrace 1.10, written by Peter Selinger 2001-2011
</metadata>
<g transform="translate(0.000000,248.000000) scale(0.100000,-0.100000)"
fill="#000000" stroke="none">
<path d="M1305 2324 c-27 -20 -88 -54 -135 -76 -47 -22 -132 -63 -190 -90 -58
-27 -127 -59 -155 -70 -61 -24 -85 -44 -85 -73 0 -65 56 -59 245 30 28 13 108
51 180 85 215 101 288 160 258 209 -18 29 -64 23 -118 -15z"/>
<path d="M1860 1834 c-23 -4 -219 -31 -500 -68 -134 -18 -358 -50 -526 -76
-72 -11 -189 -27 -259 -35 -147 -17 -179 -29 -183 -67 -4 -33 34 -62 69 -53
13 3 83 12 154 20 72 8 171 21 220 29 50 8 140 21 200 30 61 8 173 24 250 35
168 25 499 68 575 77 88 9 119 22 126 51 10 40 -7 58 -57 59 -24 1 -55 0 -69
-2z"/>
</g>
</svg>
