<?xml version="1.0" standalone="no"?>
<!DOCTYPE svg PUBLIC "-//W3C//DTD SVG 20010904//EN"
 "http://www.w3.org/TR/2001/REC-SVG-20010904/DTD/svg10.dtd">
<svg version="1.0" xmlns="http://www.w3.org/2000/svg"
 width="248.000000pt" height="248.000000pt" viewBox="0 0 248.000000 248.000000"
 preserveAspectRatio="xMidYMid meet">
<metadata>
Created by potrace 1.10, written by Peter Selinger 2001-2011
</metadata>
<g transform="translate(0.000000,248.000000) scale(0.100000,-0.100000)"
fill="#000000" stroke="none">
<path d="M1680 2325 c-95 -13 -312 -31 -822 -69 -189 -14 -211 -21 -206 -65 5
-41 40 -53 138 -47 215 14 766 57 777 60 6 3 67 10 135 16 154 14 186 24 194
57 16 61 -31 72 -216 48z"/>
<path d="M532 1898 c-16 -16 -15 -68 3 -214 8 -66 19 -191 23 -278 5 -87 14
-162 20 -168 14 -14 61 -13 75 1 31 32 -13 613 -50 653 -19 21 -53 24 -71 6z"/>
</g>
</svg>
