<?xml version="1.0" standalone="no"?>
<!DOCTYPE svg PUBLIC "-//W3C//DTD SVG 20010904//EN"
 "http://www.w3.org/TR/2001/REC-SVG-20010904/DTD/svg10.dtd">
<svg version="1.0" xmlns="http://www.w3.org/2000/svg"
 width="248.000000pt" height="248.000000pt" viewBox="0 0 248.000000 248.000000"
 preserveAspectRatio="xMidYMid meet">
<metadata>
Created by potrace 1.10, written by Peter Selinger 2001-2011
</metadata>
<g transform="translate(0.000000,248.000000) scale(0.100000,-0.100000)"
fill="#000000" stroke="none">
<path d="M551 2091 c-14 -14 -21 -34 -21 -57 0 -19 -7 -86 -15 -147 -9 -62
-20 -148 -26 -192 -18 -132 -76 -353 -131 -495 -16 -41 -40 -105 -55 -142 -31
-82 -27 -106 28 -143 56 -37 129 -105 129 -120 0 -7 -52 -62 -115 -122 -117
-111 -134 -140 -103 -171 32 -32 90 7 244 165 28 29 55 53 61 53 6 0 57 -44
113 -97 265 -253 264 -251 299 -226 50 35 17 76 -278 346 -71 65 -74 70 -61
90 48 76 111 194 143 267 33 79 117 353 131 428 9 49 -8 82 -41 82 -43 0 -53
-12 -62 -71 -12 -74 -86 -314 -123 -402 -38 -91 -129 -247 -143 -247 -5 1 -37
27 -71 58 l-61 57 34 90 c82 211 151 469 168 620 3 33 15 123 26 200 19 137
19 140 1 165 -25 33 -46 36 -71 11z"/>
</g>
</svg>
