<?xml version="1.0" standalone="no"?>
<!DOCTYPE svg PUBLIC "-//W3C//DTD SVG 20010904//EN"
 "http://www.w3.org/TR/2001/REC-SVG-20010904/DTD/svg10.dtd">
<svg version="1.0" xmlns="http://www.w3.org/2000/svg"
 width="248.000000pt" height="248.000000pt" viewBox="0 0 248.000000 248.000000"
 preserveAspectRatio="xMidYMid meet">
<metadata>
Created by potrace 1.10, written by Peter Selinger 2001-2011
</metadata>
<g transform="translate(0.000000,248.000000) scale(0.100000,-0.100000)"
fill="#000000" stroke="none">
<path d="M1680 2325 c-95 -13 -312 -31 -822 -69 -189 -14 -211 -21 -206 -65 5
-41 40 -53 138 -47 215 14 766 57 777 60 6 3 67 10 135 16 154 14 186 24 194
57 16 61 -31 72 -216 48z"/>
<path d="M1840 2074 c-136 -12 -396 -38 -540 -55 -91 -11 -212 -24 -270 -30
-58 -5 -143 -16 -190 -24 -47 -7 -119 -17 -160 -20 -109 -10 -149 -22 -159
-49 -6 -14 -2 -80 10 -174 10 -84 22 -225 27 -313 5 -89 14 -165 20 -171 14
-14 61 -13 75 1 18 18 14 229 -8 418 -10 90 -16 166 -12 169 3 4 34 10 69 14
35 4 119 15 188 24 340 45 637 77 929 101 l63 5 -5 -58 c-7 -71 -52 -442 -66
-537 -16 -110 -3 -155 43 -155 49 1 43 -26 97 430 11 96 24 193 29 215 17 74
16 173 -2 191 -17 17 -68 24 -138 18z"/>
</g>
</svg>
