<?xml version="1.0" standalone="no"?>
<!DOCTYPE svg PUBLIC "-//W3C//DTD SVG 20010904//EN"
 "http://www.w3.org/TR/2001/REC-SVG-20010904/DTD/svg10.dtd">
<svg version="1.0" xmlns="http://www.w3.org/2000/svg"
 width="248.000000pt" height="248.000000pt" viewBox="0 0 248.000000 248.000000"
 preserveAspectRatio="xMidYMid meet">
<metadata>
Created by potrace 1.10, written by Peter Selinger 2001-2011
</metadata>
<g transform="translate(0.000000,248.000000) scale(0.100000,-0.100000)"
fill="#000000" stroke="none">
<path d="M1180 2200 c-16 -17 -60 -74 -98 -128 -74 -102 -296 -349 -399 -442
-71 -65 -83 -90 -54 -119 12 -12 28 -21 36 -21 20 0 210 180 323 305 100 111
292 363 292 382 0 18 -37 53 -56 53 -9 0 -29 -14 -44 -30z"/>
<path d="M279 1474 c-7 -9 -13 -32 -13 -52 0 -41 27 -304 49 -482 32 -248 45
-358 51 -430 8 -94 21 -124 56 -128 19 -2 31 3 42 21 15 21 14 42 -9 243 -13
120 -27 233 -30 249 -6 34 -43 371 -52 480 -3 39 -12 80 -19 93 -17 26 -56 29
-75 6z"/>
</g>
</svg>
