<?xml version="1.0" standalone="no"?>
<!DOCTYPE svg PUBLIC "-//W3C//DTD SVG 20010904//EN"
 "http://www.w3.org/TR/2001/REC-SVG-20010904/DTD/svg10.dtd">
<svg version="1.0" xmlns="http://www.w3.org/2000/svg"
 width="248.000000pt" height="248.000000pt" viewBox="0 0 248.000000 248.000000"
 preserveAspectRatio="xMidYMid meet">
<metadata>
Created by potrace 1.10, written by Peter Selinger 2001-2011
</metadata>
<g transform="translate(0.000000,248.000000) scale(0.100000,-0.100000)"
fill="#000000" stroke="none">
<path d="M1305 2324 c-27 -20 -88 -54 -135 -76 -47 -22 -132 -63 -190 -90 -58
-27 -127 -59 -155 -70 -27 -11 -58 -27 -67 -35 -21 -19 -23 -54 -6 -71 26 -26
77 -11 276 84 51 24 95 44 97 44 3 0 5 -85 5 -189 l0 -189 -87 -12 c-49 -6
-144 -20 -213 -31 -69 -10 -183 -26 -254 -34 -148 -17 -180 -29 -184 -67 -4
-31 35 -63 65 -54 10 3 68 10 128 16 61 6 144 17 185 25 83 16 261 37 266 32
2 -2 -15 -17 -39 -34 -74 -54 -231 -175 -268 -207 -19 -17 -60 -48 -90 -69
-30 -20 -94 -66 -144 -101 -49 -35 -117 -78 -150 -95 -98 -52 -227 -135 -238
-153 -15 -23 16 -68 47 -68 12 0 58 22 102 49 43 27 108 65 144 84 36 20 103
62 150 96 47 33 116 82 154 108 38 26 90 66 116 89 26 22 64 53 86 69 21 16
82 62 135 102 l96 72 7 -52 c3 -29 6 -104 6 -167 0 -134 11 -165 55 -165 51 0
57 27 51 218 -3 92 -3 167 0 167 3 0 31 -17 62 -38 32 -21 86 -56 122 -77 79
-46 161 -98 216 -136 65 -45 469 -247 517 -260 58 -14 87 -1 87 41 0 30 -30
60 -61 60 -21 0 -406 195 -484 245 -118 76 -152 97 -274 174 -69 43 -126 82
-128 88 -3 7 24 14 69 18 40 3 150 17 243 30 94 13 197 27 230 30 92 10 124
23 131 52 4 14 2 33 -3 42 -14 21 -104 19 -293 -9 -80 -11 -201 -27 -270 -35
-69 -8 -137 -18 -152 -21 l-28 -6 0 210 0 209 28 12 c61 28 153 97 159 120 16
64 -48 78 -122 25z"/>
<path d="M1308 1045 c-6 -6 -273 -29 -511 -45 -82 -6 -157 -15 -168 -20 -36
-20 -42 -46 -30 -139 7 -47 16 -120 21 -161 5 -41 14 -156 20 -255 12 -201 20
-230 65 -230 49 0 56 29 45 185 -5 74 -8 135 -6 137 1 2 164 8 362 13 197 5
428 12 513 16 l154 7 -7 -69 c-4 -38 -14 -104 -22 -146 -13 -65 -13 -82 -2
-105 15 -32 58 -43 76 -20 43 52 93 640 66 777 -11 55 -39 60 -322 60 -137 0
-251 -2 -254 -5z m472 -244 l0 -139 -122 -6 c-168 -9 -920 -28 -924 -23 -2 1
-8 46 -14 98 -6 51 -13 108 -16 125 l-6 31 99 6 c178 11 476 36 481 42 3 3
117 5 254 5 l248 0 0 -139z"/>
</g>
</svg>
