<?xml version="1.0" standalone="no"?>
<!DOCTYPE svg PUBLIC "-//W3C//DTD SVG 20010904//EN"
 "http://www.w3.org/TR/2001/REC-SVG-20010904/DTD/svg10.dtd">
<svg version="1.0" xmlns="http://www.w3.org/2000/svg"
 width="248.000000pt" height="248.000000pt" viewBox="0 0 248.000000 248.000000"
 preserveAspectRatio="xMidYMid meet">
<metadata>
Created by potrace 1.10, written by Peter Selinger 2001-2011
</metadata>
<g transform="translate(0.000000,248.000000) scale(0.100000,-0.100000)"
fill="#000000" stroke="none">
<path d="M1986 2244 c-61 -7 -137 -18 -170 -23 -34 -6 -153 -22 -266 -37 -117
-15 -215 -32 -227 -40 -26 -17 -30 -55 -8 -74 23 -19 62 -16 378 25 l37 5 0
-102 c0 -57 -4 -108 -8 -113 -7 -11 -71 -27 -297 -71 -77 -15 -150 -33 -162
-41 -28 -17 -30 -58 -7 -188 8 -49 18 -169 21 -265 3 -96 10 -183 15 -193 15
-30 48 -35 143 -21 102 14 195 18 195 7 -1 -68 -131 -449 -192 -565 -59 -112
-157 -226 -237 -277 -52 -34 -63 -53 -50 -89 28 -74 217 56 324 223 56 86 112
206 148 315 70 209 96 297 103 347 3 28 9 55 13 60 7 12 116 29 305 48 114 11
143 18 159 34 36 36 57 173 64 411 7 264 2 284 -72 296 -44 6 -237 -1 -267
-10 -7 -3 -31 -7 -54 -10 l-40 -6 4 113 c2 61 6 114 8 116 2 2 62 10 135 17
72 8 143 20 158 27 29 14 40 59 20 83 -13 16 -24 16 -173 -2z m174 -524 c0
-64 -4 -92 -12 -94 -25 -7 -189 -27 -269 -32 l-81 -6 6 28 c3 16 8 59 12 96 5
53 10 69 25 73 35 11 144 22 232 24 l87 1 0 -90z m-457 -84 c-5 -36 -14 -62
-23 -67 -15 -7 -189 -38 -267 -46 -48 -6 -48 -5 -58 99 l-7 66 38 11 c22 6 89
20 149 31 61 11 124 24 140 28 29 8 30 7 33 -27 1 -20 -1 -63 -5 -95z m457
-143 c0 -33 -18 -160 -26 -185 -3 -12 -21 -18 -62 -22 -31 -4 -102 -13 -157
-21 -55 -8 -112 -15 -128 -15 -26 0 -27 2 -21 38 3 20 9 71 12 112 l7 75 60 8
c33 4 107 13 165 21 154 20 150 21 150 -11z m-487 -64 c-1 -13 -5 -58 -8 -99
-4 -42 -9 -81 -13 -86 -7 -10 -249 -40 -256 -33 -2 2 -6 47 -8 100 l-4 97 111
21 c184 35 181 35 178 0z"/>
<path d="M890 1955 c-85 -12 -164 -25 -175 -28 -31 -10 -219 -36 -327 -45 -54
-5 -105 -15 -113 -22 -23 -19 -15 -62 15 -77 26 -14 171 -9 240 7 19 5 59 11
88 15 63 8 66 22 -37 -165 -122 -223 -152 -272 -210 -350 -31 -41 -78 -106
-103 -145 -26 -38 -76 -103 -112 -144 -46 -52 -66 -82 -66 -101 0 -32 17 -50
46 -50 30 0 135 114 214 231 34 52 65 96 68 99 2 3 2 -146 -2 -330 -5 -262 -3
-340 7 -360 11 -22 20 -25 76 -28 34 -2 124 4 199 13 75 9 172 21 215 25 89
10 103 18 117 69 20 71 57 775 44 823 -19 66 -39 66 -377 2 -76 -15 -140 -25
-142 -22 -2 2 10 28 28 58 18 30 59 105 91 165 33 61 63 115 68 121 4 6 17 36
27 65 l18 54 79 12 c43 6 117 15 164 18 113 10 150 25 150 62 0 16 -5 34 -12
41 -17 17 -98 13 -278 -13z m77 -747 c-4 -68 -12 -220 -17 -338 -6 -118 -13
-225 -15 -236 -4 -18 -16 -23 -82 -33 -126 -18 -244 -31 -289 -31 l-42 0 2
343 1 344 70 12 c39 7 113 21 165 31 100 20 136 26 184 29 l29 1 -6 -122z"/>
</g>
</svg>
