<?xml version="1.0" standalone="no"?>
<!DOCTYPE svg PUBLIC "-//W3C//DTD SVG 20010904//EN"
 "http://www.w3.org/TR/2001/REC-SVG-20010904/DTD/svg10.dtd">
<svg version="1.0" xmlns="http://www.w3.org/2000/svg"
 width="248.000000pt" height="248.000000pt" viewBox="0 0 248.000000 248.000000"
 preserveAspectRatio="xMidYMid meet">
<metadata>
Created by potrace 1.10, written by Peter Selinger 2001-2011
</metadata>
<g transform="translate(0.000000,248.000000) scale(0.100000,-0.100000)"
fill="#000000" stroke="none">
<path d="M1800 2349 c-217 -9 -482 -26 -710 -45 -102 -8 -256 -21 -342 -28
-164 -13 -188 -21 -188 -61 0 -53 12 -54 485 -15 127 11 311 24 410 30 99 6
230 15 290 20 61 6 146 10 191 10 88 0 104 8 104 52 0 29 -25 49 -57 46 -10
-1 -92 -5 -183 -9z"/>
</g>
</svg>
