<?xml version="1.0" standalone="no"?>
<!DOCTYPE svg PUBLIC "-//W3C//DTD SVG 20010904//EN"
 "http://www.w3.org/TR/2001/REC-SVG-20010904/DTD/svg10.dtd">
<svg version="1.0" xmlns="http://www.w3.org/2000/svg"
 width="248.000000pt" height="248.000000pt" viewBox="0 0 248.000000 248.000000"
 preserveAspectRatio="xMidYMid meet">
<metadata>
Created by potrace 1.10, written by Peter Selinger 2001-2011
</metadata>
<g transform="translate(0.000000,248.000000) scale(0.100000,-0.100000)"
fill="#000000" stroke="none">
<path d="M799 2196 c-7 -7 -320 -37 -472 -45 -111 -7 -141 -12 -157 -26 -22
-20 -26 -55 -8 -73 17 -17 179 -15 303 3 55 8 126 15 158 15 l58 0 -57 -67
c-117 -138 -180 -204 -212 -224 -27 -15 -33 -24 -30 -46 3 -27 7 -30 82 -65
47 -21 135 -113 158 -164 14 -33 21 -71 22 -118 2 -107 0 -109 -92 -105 -60 3
-89 10 -133 32 -60 31 -86 32 -103 5 -20 -33 4 -71 68 -102 76 -39 251 -59
295 -35 50 28 82 141 69 247 -12 98 -56 179 -139 256 l-71 66 74 82 c41 46
111 127 157 181 69 83 82 103 79 129 -3 27 -37 65 -49 54z"/>
</g>
</svg>
