<?xml version="1.0" standalone="no"?>
<!DOCTYPE svg PUBLIC "-//W3C//DTD SVG 20010904//EN"
 "http://www.w3.org/TR/2001/REC-SVG-20010904/DTD/svg10.dtd">
<svg version="1.0" xmlns="http://www.w3.org/2000/svg"
 width="248.000000pt" height="248.000000pt" viewBox="0 0 248.000000 248.000000"
 preserveAspectRatio="xMidYMid meet">
<metadata>
Created by potrace 1.10, written by Peter Selinger 2001-2011
</metadata>
<g transform="translate(0.000000,248.000000) scale(0.100000,-0.100000)"
fill="#000000" stroke="none">
<path d="M1800 2349 c-222 -9 -486 -26 -710 -45 -102 -9 -259 -21 -350 -27
-91 -7 -171 -16 -177 -20 -17 -11 -16 -43 3 -97 13 -37 15 -71 10 -187 -21
-492 -161 -995 -348 -1257 -42 -59 -34 -106 19 -106 42 0 138 144 210 313 46
109 75 199 124 386 61 231 80 369 86 631 4 151 9 227 17 232 6 4 38 8 72 8 33
0 164 9 290 20 126 10 310 24 409 30 99 6 230 15 290 20 61 6 146 10 191 10
88 0 104 8 104 52 0 29 -25 49 -57 46 -10 -1 -92 -5 -183 -9z"/>
<path d="M1629 2066 c-2 -2 -74 -6 -159 -9 -137 -6 -271 -19 -580 -57 -118
-14 -128 -17 -145 -43 -13 -20 -13 -29 5 -82 23 -73 67 -279 76 -358 10 -88
18 -91 217 -83 89 4 268 14 397 22 129 9 255 14 279 11 66 -7 85 5 126 77 49
89 91 207 142 401 32 123 28 125 -187 125 -92 0 -169 -2 -171 -4z m255 -94 c6
-11 -25 -115 -37 -123 -5 -4 -93 -9 -196 -13 -207 -8 -551 -31 -680 -46 -47
-5 -87 -8 -89 -6 -5 6 -21 77 -22 97 0 12 14 18 63 22 34 4 141 16 237 27 196
23 263 28 465 39 204 12 253 12 259 3z m-73 -252 c-4 -30 -59 -142 -75 -152
-6 -4 -58 -8 -116 -8 -58 0 -175 -5 -260 -11 -279 -18 -415 -25 -426 -22 -6 2
-14 30 -18 61 -3 31 -7 66 -9 77 -2 18 8 20 123 32 179 17 699 51 755 49 26
-1 30 -4 26 -26z"/>
<path d="M1210 1313 c-96 -7 -205 -15 -243 -16 -37 -2 -72 -8 -78 -14 -18 -18
-14 -65 6 -79 18 -14 25 -14 240 6 177 17 431 24 420 12 -11 -12 -210 -135
-265 -164 -19 -10 -44 -18 -55 -18 -49 0 -61 -56 -19 -89 15 -12 33 -21 41
-21 25 0 99 -78 127 -135 31 -61 59 -227 50 -299 -18 -144 -65 -268 -110 -288
-30 -14 -73 4 -150 63 -59 45 -87 49 -109 15 -13 -19 -14 -29 -5 -45 15 -29
106 -96 163 -120 62 -27 102 -26 157 2 85 43 150 217 150 402 0 200 -35 321
-122 420 l-39 44 103 61 c183 109 313 203 316 228 7 50 -6 53 -212 51 -105 -2
-270 -9 -366 -16z"/>
</g>
</svg>
