<?xml version="1.0" standalone="no"?>
<!DOCTYPE svg PUBLIC "-//W3C//DTD SVG 20010904//EN"
 "http://www.w3.org/TR/2001/REC-SVG-20010904/DTD/svg10.dtd">
<svg version="1.0" xmlns="http://www.w3.org/2000/svg"
 width="248.000000pt" height="248.000000pt" viewBox="0 0 248.000000 248.000000"
 preserveAspectRatio="xMidYMid meet">
<metadata>
Created by potrace 1.10, written by Peter Selinger 2001-2011
</metadata>
<g transform="translate(0.000000,248.000000) scale(0.100000,-0.100000)"
fill="#000000" stroke="none">
<path d="M1206 2178 c-9 -15 -16 -65 -19 -148 -4 -99 -13 -155 -42 -270 -35
-138 -94 -298 -136 -366 -33 -55 -20 -94 32 -94 32 0 53 25 92 110 37 81 80
191 87 225 5 27 11 31 55 38 28 4 86 14 130 22 44 8 121 22 170 31 50 8 118
22 152 30 34 8 66 14 70 14 13 0 -3 -162 -21 -210 -9 -25 -41 -119 -70 -210
-40 -124 -71 -199 -126 -299 -117 -218 -172 -298 -303 -446 -129 -145 -192
-197 -327 -270 -63 -34 -76 -45 -78 -68 -4 -32 13 -57 38 -57 47 0 209 94 299
174 52 47 211 220 267 291 44 56 139 217 217 367 45 87 81 178 117 290 28 90
61 188 73 218 17 43 22 76 22 148 0 85 2 93 20 96 170 30 195 41 195 80 0 60
-33 59 -383 -9 -263 -51 -373 -72 -436 -81 l-43 -6 6 28 c39 179 47 334 20
372 -20 29 -59 29 -78 0z"/>
<path d="M780 1798 c-397 -102 -429 -109 -457 -102 -23 6 -63 -26 -63 -51 0
-27 38 -55 74 -55 31 0 134 19 195 36 l24 7 -8 -259 c-4 -142 -8 -289 -8 -326
-2 -80 22 -67 -237 -129 -96 -22 -181 -45 -187 -51 -20 -16 -15 -55 8 -72 28
-19 38 -18 431 79 355 88 455 118 476 144 13 16 7 51 -12 63 -17 11 -71 9
-103 -3 -15 -7 -84 -26 -152 -44 l-124 -32 8 106 c4 58 9 207 11 331 l2 225
24 3 c71 11 195 45 210 59 24 22 23 69 -1 83 -23 12 -16 13 -111 -12z"/>
</g>
</svg>
