<?xml version="1.0" standalone="no"?>
<!DOCTYPE svg PUBLIC "-//W3C//DTD SVG 20010904//EN"
 "http://www.w3.org/TR/2001/REC-SVG-20010904/DTD/svg10.dtd">
<svg version="1.0" xmlns="http://www.w3.org/2000/svg"
 width="248.000000pt" height="248.000000pt" viewBox="0 0 248.000000 248.000000"
 preserveAspectRatio="xMidYMid meet">
<metadata>
Created by potrace 1.10, written by Peter Selinger 2001-2011
</metadata>
<g transform="translate(0.000000,248.000000) scale(0.100000,-0.100000)"
fill="#000000" stroke="none">
<path d="M302 2218 c-7 -7 -12 -21 -12 -33 0 -25 89 -118 189 -197 77 -61 113
-71 134 -37 20 32 -2 65 -85 131 -46 37 -101 85 -123 107 -40 42 -79 53 -103
29z"/>
<path d="M112 1518 c-16 -16 -15 -53 1 -66 6 -6 57 -33 111 -62 55 -28 116
-64 135 -79 48 -38 75 -51 103 -51 30 0 48 17 48 47 0 32 -124 122 -263 190
-70 34 -115 41 -135 21z"/>
</g>
</svg>
