<?xml version="1.0" standalone="no"?>
<!DOCTYPE svg PUBLIC "-//W3C//DTD SVG 20010904//EN"
 "http://www.w3.org/TR/2001/REC-SVG-20010904/DTD/svg10.dtd">
<svg version="1.0" xmlns="http://www.w3.org/2000/svg"
 width="248.000000pt" height="248.000000pt" viewBox="0 0 248.000000 248.000000"
 preserveAspectRatio="xMidYMid meet">
<metadata>
Created by potrace 1.10, written by Peter Selinger 2001-2011
</metadata>
<g transform="translate(0.000000,248.000000) scale(0.100000,-0.100000)"
fill="#000000" stroke="none">
<path d="M1235 2247 c-17 -13 -18 -30 -16 -214 l2 -201 -93 -7 c-51 -3 -193
-17 -314 -31 -122 -13 -248 -24 -281 -24 -101 0 -95 22 -97 -351 -2 -310 -3
-329 -28 -445 -42 -188 -111 -368 -209 -538 -27 -48 -49 -97 -49 -109 0 -49
52 -63 87 -24 43 46 171 312 224 465 29 84 69 288 78 402 5 58 8 191 7 297
l-1 192 35 6 c62 9 391 44 530 55 74 6 182 15 240 21 172 15 413 29 614 35
168 6 190 8 208 26 13 13 17 26 13 41 -13 42 -34 49 -125 43 -47 -3 -164 -8
-260 -12 -96 -3 -238 -12 -315 -20 -77 -8 -143 -14 -147 -14 -5 0 -8 69 -8
153 -1 171 -10 235 -36 254 -23 16 -36 16 -59 0z"/>
</g>
</svg>
