<?xml version="1.0" standalone="no"?>
<!DOCTYPE svg PUBLIC "-//W3C//DTD SVG 20010904//EN"
 "http://www.w3.org/TR/2001/REC-SVG-20010904/DTD/svg10.dtd">
<svg version="1.0" xmlns="http://www.w3.org/2000/svg"
 width="248.000000pt" height="248.000000pt" viewBox="0 0 248.000000 248.000000"
 preserveAspectRatio="xMidYMid meet">
<metadata>
Created by potrace 1.10, written by Peter Selinger 2001-2011
</metadata>
<g transform="translate(0.000000,248.000000) scale(0.100000,-0.100000)"
fill="#000000" stroke="none">
<path d="M1305 2324 c-27 -20 -88 -54 -135 -76 -47 -22 -132 -63 -190 -90 -58
-27 -127 -59 -155 -70 -27 -11 -58 -27 -67 -35 -21 -19 -23 -54 -6 -71 26 -26
77 -11 276 84 51 24 95 44 97 44 3 0 5 -85 5 -189 l0 -189 -87 -12 c-49 -6
-144 -20 -213 -31 -69 -10 -183 -26 -254 -34 -148 -17 -180 -29 -184 -67 -4
-33 34 -62 69 -53 13 3 80 11 149 19 69 8 172 22 230 31 209 32 294 44 297 41
2 -1 6 -96 10 -209 3 -119 11 -217 17 -230 8 -15 20 -22 41 -22 53 0 57 23 50
266 l-7 216 99 12 c54 7 177 23 273 36 96 13 202 27 235 30 92 10 124 23 131
52 4 14 2 33 -3 42 -14 21 -104 19 -293 -9 -80 -11 -201 -27 -270 -35 -69 -8
-137 -18 -152 -21 l-28 -6 0 210 0 209 28 12 c61 28 153 97 159 120 16 64 -48
78 -122 25z"/>
</g>
</svg>
