<?xml version="1.0" standalone="no"?>
<!DOCTYPE svg PUBLIC "-//W3C//DTD SVG 20010904//EN"
 "http://www.w3.org/TR/2001/REC-SVG-20010904/DTD/svg10.dtd">
<svg version="1.0" xmlns="http://www.w3.org/2000/svg"
 width="248.000000pt" height="248.000000pt" viewBox="0 0 248.000000 248.000000"
 preserveAspectRatio="xMidYMid meet">
<metadata>
Created by potrace 1.10, written by Peter Selinger 2001-2011
</metadata>
<g transform="translate(0.000000,248.000000) scale(0.100000,-0.100000)"
fill="#000000" stroke="none">
<path d="M1800 2349 c-222 -9 -486 -26 -710 -45 -102 -9 -259 -21 -350 -27
-91 -7 -171 -16 -177 -20 -17 -11 -16 -43 3 -97 13 -37 15 -71 10 -187 -21
-492 -161 -995 -348 -1257 -42 -59 -34 -106 19 -106 42 0 138 144 210 313 46
109 75 199 124 386 61 231 80 369 86 631 4 151 9 227 17 232 6 4 38 8 72 8 33
0 164 9 290 20 126 10 310 24 409 30 99 6 230 15 290 20 61 6 146 10 191 10
88 0 104 8 104 52 0 29 -25 49 -57 46 -10 -1 -92 -5 -183 -9z"/>
<path d="M1629 2066 c-2 -2 -74 -6 -159 -9 -137 -6 -271 -19 -580 -57 -118
-14 -128 -17 -145 -44 -14 -21 -14 -28 -2 -58 15 -35 70 -295 82 -383 8 -58
19 -75 50 -75 40 0 48 22 42 118 -4 48 -8 96 -9 107 -3 18 8 20 177 36 169 16
521 38 665 42 64 2 65 2 62 -23 -2 -14 -21 -59 -43 -100 -41 -79 -47 -108 -27
-128 34 -34 79 -1 126 93 30 60 95 259 123 375 25 107 20 110 -191 110 -92 0
-169 -2 -171 -4z m255 -94 c6 -11 -25 -115 -37 -123 -5 -4 -93 -9 -196 -13
-207 -8 -551 -31 -680 -46 -47 -5 -87 -8 -89 -6 -5 6 -21 77 -22 97 0 12 14
18 63 22 34 4 141 16 237 27 196 23 263 28 465 39 204 12 253 12 259 3z"/>
</g>
</svg>
