<?xml version="1.0" standalone="no"?>
<!DOCTYPE svg PUBLIC "-//W3C//DTD SVG 20010904//EN"
 "http://www.w3.org/TR/2001/REC-SVG-20010904/DTD/svg10.dtd">
<svg version="1.0" xmlns="http://www.w3.org/2000/svg"
 width="248.000000pt" height="248.000000pt" viewBox="0 0 248.000000 248.000000"
 preserveAspectRatio="xMidYMid meet">
<metadata>
Created by potrace 1.10, written by Peter Selinger 2001-2011
</metadata>
<g transform="translate(0.000000,248.000000) scale(0.100000,-0.100000)"
fill="#000000" stroke="none">
<path d="M1800 2349 c-222 -9 -486 -26 -710 -45 -102 -9 -259 -21 -350 -27
-91 -7 -171 -16 -177 -20 -17 -11 -16 -43 3 -97 13 -37 15 -71 10 -187 -21
-492 -161 -995 -348 -1257 -42 -59 -34 -106 19 -106 42 0 138 144 210 313 46
109 75 199 124 386 61 231 80 369 86 631 4 151 9 227 17 232 6 4 38 8 72 8 33
0 164 9 290 20 126 10 310 24 409 30 99 6 230 15 290 20 61 6 146 10 191 10
88 0 104 8 104 52 0 29 -25 49 -57 46 -10 -1 -92 -5 -183 -9z"/>
<path d="M1629 2066 c-2 -2 -74 -6 -159 -9 -137 -6 -271 -19 -580 -57 -118
-14 -128 -17 -145 -44 -14 -21 -14 -28 -2 -58 15 -35 70 -295 82 -383 4 -27
12 -56 17 -62 13 -16 50 -17 66 -1 19 19 14 131 -12 246 -13 59 -27 128 -31
153 l-7 46 64 6 c34 4 140 15 233 26 203 23 267 29 405 36 58 3 153 8 211 11
60 4 109 2 112 -3 13 -20 -55 -228 -114 -349 -41 -85 -47 -112 -27 -132 45
-45 109 30 168 194 41 115 93 307 92 339 -2 39 -27 45 -202 45 -92 0 -169 -2
-171 -4z"/>
</g>
</svg>
