<?xml version="1.0" standalone="no"?>
<!DOCTYPE svg PUBLIC "-//W3C//DTD SVG 20010904//EN"
 "http://www.w3.org/TR/2001/REC-SVG-20010904/DTD/svg10.dtd">
<svg version="1.0" xmlns="http://www.w3.org/2000/svg"
 width="248.000000pt" height="248.000000pt" viewBox="0 0 248.000000 248.000000"
 preserveAspectRatio="xMidYMid meet">
<metadata>
Created by potrace 1.10, written by Peter Selinger 2001-2011
</metadata>
<g transform="translate(0.000000,248.000000) scale(0.100000,-0.100000)"
fill="#000000" stroke="none">
<path d="M799 2196 c-7 -7 -320 -37 -472 -45 -111 -7 -141 -12 -157 -26 -22
-20 -26 -55 -8 -73 17 -17 179 -15 303 3 55 8 126 15 158 15 l58 0 -58 -69
c-32 -37 -89 -102 -127 -144 -57 -64 -67 -81 -62 -102 8 -32 48 -43 79 -22 27
17 134 136 256 280 69 83 82 103 79 129 -3 27 -37 65 -49 54z"/>
</g>
</svg>
