<?xml version="1.0" standalone="no"?>
<!DOCTYPE svg PUBLIC "-//W3C//DTD SVG 20010904//EN"
 "http://www.w3.org/TR/2001/REC-SVG-20010904/DTD/svg10.dtd">
<svg version="1.0" xmlns="http://www.w3.org/2000/svg"
 width="248.000000pt" height="248.000000pt" viewBox="0 0 248.000000 248.000000"
 preserveAspectRatio="xMidYMid meet">
<metadata>
Created by potrace 1.10, written by Peter Selinger 2001-2011
</metadata>
<g transform="translate(0.000000,248.000000) scale(0.100000,-0.100000)"
fill="#000000" stroke="none">
<path d="M1193 2339 c-8 -8 -10 -62 -6 -178 l6 -167 -104 -13 c-128 -15 -154
-26 -154 -66 0 -57 43 -62 236 -30 l27 4 7 -112 c8 -123 21 -157 60 -157 47 0
56 32 49 166 l-7 121 59 11 c33 6 113 18 179 27 66 9 172 27 235 40 63 13 144
28 178 34 72 12 92 24 92 56 0 60 -49 61 -300 10 -63 -13 -158 -28 -210 -35
-106 -12 -203 -28 -225 -37 -13 -4 -15 10 -15 83 0 111 -16 213 -37 236 -18
20 -53 24 -70 7z"/>
<path d="M302 2218 c-7 -7 -12 -21 -12 -33 0 -25 89 -118 189 -197 77 -61 113
-71 134 -37 20 32 -2 65 -85 131 -46 37 -101 85 -123 107 -40 42 -79 53 -103
29z"/>
<path d="M112 1518 c-16 -16 -15 -53 1 -66 6 -6 57 -33 111 -62 55 -28 116
-64 135 -79 48 -38 75 -51 103 -51 30 0 48 17 48 47 0 32 -124 122 -263 190
-70 34 -115 41 -135 21z"/>
<path d="M514 658 c-63 -72 -243 -335 -302 -440 -34 -61 -40 -96 -20 -116 32
-32 78 -3 117 76 25 50 126 199 258 383 34 48 42 86 21 107 -19 19 -53 14 -74
-10z"/>
</g>
</svg>
