<?xml version="1.0" standalone="no"?>
<!DOCTYPE svg PUBLIC "-//W3C//DTD SVG 20010904//EN"
 "http://www.w3.org/TR/2001/REC-SVG-20010904/DTD/svg10.dtd">
<svg version="1.0" xmlns="http://www.w3.org/2000/svg"
 width="248.000000pt" height="248.000000pt" viewBox="0 0 248.000000 248.000000"
 preserveAspectRatio="xMidYMid meet">
<metadata>
Created by potrace 1.10, written by Peter Selinger 2001-2011
</metadata>
<g transform="translate(0.000000,248.000000) scale(0.100000,-0.100000)"
fill="#000000" stroke="none">
<path d="M1328 2320 c-9 -6 -65 -70 -124 -143 -59 -72 -141 -167 -181 -210
-64 -68 -74 -82 -71 -110 2 -24 9 -34 31 -41 25 -9 32 -5 88 50 33 32 108 118
166 190 l106 132 96 6 c144 9 220 10 227 4 8 -8 -268 -376 -372 -496 -105
-121 -277 -279 -369 -339 -96 -63 -115 -81 -115 -115 0 -20 7 -32 24 -39 22
-10 35 -5 117 47 208 132 415 348 679 708 52 71 123 160 158 197 64 70 72 91
48 125 -14 18 -28 19 -223 19 -148 0 -214 4 -230 13 -26 14 -33 15 -55 2z"/>
<path d="M799 2196 c-7 -7 -320 -37 -472 -45 -112 -7 -141 -12 -158 -27 -35
-31 -20 -72 33 -88 12 -3 18 -20 22 -58 5 -57 28 -882 27 -983 -1 -107 -21
-426 -36 -575 -28 -287 -27 -300 21 -314 49 -15 73 43 74 179 0 44 5 109 10
145 5 36 12 128 16 205 3 77 10 176 14 220 4 44 6 146 4 226 l-3 146 57 -23
c38 -15 90 -25 154 -30 136 -10 154 4 182 136 28 133 -21 268 -135 374 l-71
66 74 82 c41 46 111 127 157 181 69 83 82 103 79 129 -3 27 -37 65 -49 54z
m-175 -193 c-117 -138 -180 -204 -212 -224 -27 -15 -33 -24 -30 -46 3 -27 7
-30 82 -65 47 -21 135 -113 158 -164 14 -33 21 -71 22 -118 2 -107 0 -109 -92
-105 -69 4 -130 23 -200 65 -2 1 -7 148 -12 325 -5 178 -11 333 -15 345 -6 20
0 21 107 36 62 8 144 16 181 17 l68 1 -57 -67z"/>
</g>
</svg>
