<?xml version="1.0" standalone="no"?>
<!DOCTYPE svg PUBLIC "-//W3C//DTD SVG 20010904//EN"
 "http://www.w3.org/TR/2001/REC-SVG-20010904/DTD/svg10.dtd">
<svg version="1.0" xmlns="http://www.w3.org/2000/svg"
 width="248.000000pt" height="248.000000pt" viewBox="0 0 248.000000 248.000000"
 preserveAspectRatio="xMidYMid meet">
<metadata>
Created by potrace 1.10, written by Peter Selinger 2001-2011
</metadata>
<g transform="translate(0.000000,248.000000) scale(0.100000,-0.100000)"
fill="#000000" stroke="none">
<path d="M890 1955 c-85 -12 -164 -25 -175 -28 -31 -10 -219 -36 -327 -45 -54
-5 -105 -15 -113 -22 -23 -19 -15 -62 15 -77 26 -14 171 -9 240 7 19 5 59 11
88 15 63 8 66 22 -37 -165 -122 -223 -152 -272 -210 -350 -31 -41 -78 -106
-103 -145 -26 -38 -76 -103 -112 -144 -46 -52 -66 -82 -66 -101 0 -32 17 -50
46 -50 30 0 135 114 214 231 34 52 65 96 68 99 2 3 2 -146 -2 -330 -7 -372 -5
-385 49 -385 55 0 57 14 60 464 l2 406 30 51 c39 65 69 118 128 229 26 50 52
95 57 101 4 6 17 36 27 65 l18 54 79 12 c43 6 117 15 164 18 113 10 150 25
150 62 0 16 -5 34 -12 41 -17 17 -98 13 -278 -13z"/>
</g>
</svg>
