<?xml version="1.0" standalone="no"?>
<!DOCTYPE svg PUBLIC "-//W3C//DTD SVG 20010904//EN"
 "http://www.w3.org/TR/2001/REC-SVG-20010904/DTD/svg10.dtd">
<svg version="1.0" xmlns="http://www.w3.org/2000/svg"
 width="248.000000pt" height="248.000000pt" viewBox="0 0 248.000000 248.000000"
 preserveAspectRatio="xMidYMid meet">
<metadata>
Created by potrace 1.10, written by Peter Selinger 2001-2011
</metadata>
<g transform="translate(0.000000,248.000000) scale(0.100000,-0.100000)"
fill="#000000" stroke="none">
<path d="M1180 2200 c-16 -17 -60 -74 -98 -128 -74 -102 -290 -341 -409 -453
l-70 -65 -108 -13 c-170 -19 -229 -50 -229 -118 0 -42 26 -303 49 -483 32
-248 45 -358 51 -430 8 -94 21 -124 56 -128 19 -2 31 3 42 21 15 21 14 42 -9
243 -13 120 -27 233 -30 249 -3 17 -14 113 -25 215 -11 102 -22 210 -26 241
-8 71 -5 73 136 89 58 6 170 23 248 36 144 24 543 68 722 79 302 18 449 25
568 25 132 0 132 0 127 -22 -8 -41 -46 -271 -61 -373 -18 -122 -76 -404 -104
-500 -11 -38 -30 -108 -41 -155 -12 -47 -25 -89 -29 -93 -9 -10 -114 30 -163
61 -32 21 -41 23 -62 14 -39 -18 -34 -63 11 -100 34 -28 152 -77 205 -85 37
-6 78 12 93 42 37 70 142 498 176 711 11 74 30 185 40 245 45 253 52 303 40
324 -18 35 -80 44 -260 37 -255 -9 -741 -39 -820 -51 -19 -3 -100 -12 -180
-20 -80 -8 -165 -18 -190 -21 l-45 -6 61 58 c138 132 434 494 434 531 0 18
-37 53 -56 53 -9 0 -29 -14 -44 -30z"/>
</g>
</svg>
