<?xml version="1.0" standalone="no"?>
<!DOCTYPE svg PUBLIC "-//W3C//DTD SVG 20010904//EN"
 "http://www.w3.org/TR/2001/REC-SVG-20010904/DTD/svg10.dtd">
<svg version="1.0" xmlns="http://www.w3.org/2000/svg"
 width="248.000000pt" height="248.000000pt" viewBox="0 0 248.000000 248.000000"
 preserveAspectRatio="xMidYMid meet">
<metadata>
Created by potrace 1.10, written by Peter Selinger 2001-2011
</metadata>
<g transform="translate(0.000000,248.000000) scale(0.100000,-0.100000)"
fill="#000000" stroke="none">
<path d="M1986 2244 c-61 -7 -137 -18 -170 -23 -34 -6 -153 -22 -266 -37 -117
-15 -215 -32 -227 -40 -26 -17 -30 -55 -8 -74 8 -6 30 -12 48 -12 47 0 296 31
388 48 41 7 139 21 218 29 79 8 155 21 170 28 29 14 40 59 20 83 -13 16 -24
16 -173 -2z"/>
<path d="M890 1955 c-85 -12 -164 -25 -175 -28 -31 -10 -219 -36 -327 -45 -54
-5 -105 -15 -113 -22 -23 -19 -15 -62 15 -77 26 -14 171 -9 240 7 19 5 59 11
88 15 63 8 66 22 -37 -165 -122 -223 -152 -272 -210 -350 -31 -41 -78 -106
-103 -145 -26 -38 -76 -103 -112 -144 -46 -52 -66 -82 -66 -101 0 -32 17 -50
46 -50 30 0 135 114 214 231 34 52 65 96 68 99 2 3 2 -146 -2 -330 -5 -262 -3
-340 7 -360 11 -22 20 -25 76 -28 34 -2 124 4 199 13 75 9 172 21 215 25 89
10 103 18 117 69 20 71 57 775 44 823 -19 66 -39 66 -377 2 -76 -15 -140 -25
-142 -22 -2 2 10 28 28 58 18 30 59 105 91 165 33 61 63 115 68 121 4 6 17 36
27 65 l18 54 79 12 c43 6 117 15 164 18 113 10 150 25 150 62 0 16 -5 34 -12
41 -17 17 -98 13 -278 -13z m77 -747 c-4 -68 -12 -220 -17 -338 -6 -118 -13
-225 -15 -236 -4 -18 -16 -23 -82 -33 -126 -18 -244 -31 -289 -31 l-42 0 2
343 1 344 70 12 c39 7 113 21 165 31 100 20 136 26 184 29 l29 1 -6 -122z"/>
</g>
</svg>
