<?xml version="1.0" standalone="no"?>
<!DOCTYPE svg PUBLIC "-//W3C//DTD SVG 20010904//EN"
 "http://www.w3.org/TR/2001/REC-SVG-20010904/DTD/svg10.dtd">
<svg version="1.0" xmlns="http://www.w3.org/2000/svg"
 width="248.000000pt" height="248.000000pt" viewBox="0 0 248.000000 248.000000"
 preserveAspectRatio="xMidYMid meet">
<metadata>
Created by potrace 1.10, written by Peter Selinger 2001-2011
</metadata>
<g transform="translate(0.000000,248.000000) scale(0.100000,-0.100000)"
fill="#000000" stroke="none">
<path d="M1636 2358 c-13 -18 -16 -50 -16 -159 l0 -137 -63 -11 c-35 -6 -81
-11 -103 -11 -21 0 -64 -7 -94 -15 -30 -8 -56 -15 -57 -15 -2 0 -3 39 -3 88 0
109 -16 211 -37 234 -18 20 -53 24 -70 7 -8 -8 -10 -62 -6 -178 l6 -167 -104
-13 c-128 -15 -154 -26 -154 -66 0 -57 43 -62 236 -30 l26 4 7 -102 c4 -56 9
-110 12 -119 6 -20 3 -20 -126 -38 -198 -26 -325 -51 -342 -67 -22 -20 -23
-56 -2 -74 17 -14 6 -15 308 31 72 11 132 17 134 15 7 -7 -25 -77 -88 -190
-45 -82 -74 -119 -162 -206 -58 -59 -128 -122 -155 -140 -89 -60 -143 -111
-143 -134 0 -51 61 -61 112 -17 18 16 49 39 68 52 53 36 128 100 182 154 47
47 49 48 68 31 11 -10 32 -18 47 -18 24 -1 183 18 453 53 41 5 112 12 158 16
l83 6 -7 -28 c-4 -16 -13 -51 -20 -79 -8 -27 -19 -69 -25 -92 -6 -23 -17 -44
-25 -47 -8 -3 -56 -10 -107 -16 -51 -6 -137 -17 -192 -25 -55 -8 -162 -17
-238 -21 -126 -6 -139 -8 -151 -28 -17 -27 -31 -514 -16 -566 32 -113 166
-150 539 -150 116 0 232 4 258 9 26 5 84 15 128 21 44 7 100 18 125 26 25 7
63 17 85 21 33 7 43 15 58 45 15 31 16 45 7 100 -5 34 -10 87 -10 116 0 43 -5
58 -25 78 -21 21 -28 23 -45 14 -38 -20 -44 -52 -32 -152 6 -50 9 -95 6 -100
-3 -4 -14 -8 -25 -8 -11 0 -29 -5 -40 -11 -11 -6 -80 -20 -152 -31 -115 -17
-166 -19 -402 -15 -165 3 -284 9 -307 16 -72 23 -71 18 -63 270 4 124 9 228
11 230 3 3 62 8 132 13 70 4 133 10 141 13 12 5 162 24 326 42 28 3 58 12 68
21 18 16 51 116 88 267 12 50 25 94 30 99 4 5 36 -17 71 -48 67 -60 225 -146
270 -146 32 0 50 21 46 55 -3 28 -6 29 -118 85 -73 36 -140 90 -250 200 -149
150 -243 257 -235 270 2 4 28 10 57 13 29 4 112 14 183 22 72 9 169 20 217 24
94 8 118 20 118 57 0 44 -26 57 -104 50 -93 -7 -302 -32 -394 -46 -41 -7 -75
-10 -76 -8 -1 1 0 64 3 138 l6 135 80 16 c44 9 111 21 148 27 76 12 97 24 97
57 0 27 -19 44 -51 47 -29 2 -131 -10 -179 -22 -19 -4 -47 -11 -62 -14 l-28
-6 0 122 c0 79 -5 132 -13 148 -17 34 -60 39 -81 8z m-28 -540 l-3 -133 -139
-13 c-76 -7 -140 -12 -142 -10 -2 2 -6 58 -10 125 l-7 120 39 8 c51 11 201 32
237 34 l28 1 -3 -132z m6 -273 c8 -19 50 -72 93 -117 43 -46 93 -102 111 -125
33 -42 33 -42 10 -48 -13 -3 -68 -9 -123 -15 -55 -5 -158 -17 -230 -25 -71 -9
-168 -20 -215 -25 -47 -5 -97 -13 -112 -16 -26 -6 -39 8 -20 20 12 7 115 190
141 250 11 27 21 59 21 73 0 13 7 26 15 29 11 5 199 27 277 33 11 1 23 -12 32
-34z"/>
<path d="M302 2218 c-7 -7 -12 -21 -12 -33 0 -25 89 -118 189 -197 77 -61 113
-71 134 -37 20 32 -2 65 -85 131 -46 37 -101 85 -123 107 -40 42 -79 53 -103
29z"/>
<path d="M112 1518 c-16 -16 -15 -53 1 -66 6 -6 57 -33 111 -62 55 -28 116
-64 135 -79 48 -38 75 -51 103 -51 30 0 48 17 48 47 0 32 -124 122 -263 190
-70 34 -115 41 -135 21z"/>
<path d="M514 658 c-63 -72 -243 -335 -302 -440 -34 -61 -40 -96 -20 -116 32
-32 78 -3 117 76 25 50 126 199 258 383 34 48 42 86 21 107 -19 19 -53 14 -74
-10z"/>
</g>
</svg>
