<?xml version="1.0" standalone="no"?>
<!DOCTYPE svg PUBLIC "-//W3C//DTD SVG 20010904//EN"
 "http://www.w3.org/TR/2001/REC-SVG-20010904/DTD/svg10.dtd">
<svg version="1.0" xmlns="http://www.w3.org/2000/svg"
 width="248.000000pt" height="248.000000pt" viewBox="0 0 248.000000 248.000000"
 preserveAspectRatio="xMidYMid meet">
<metadata>
Created by potrace 1.10, written by Peter Selinger 2001-2011
</metadata>
<g transform="translate(0.000000,248.000000) scale(0.100000,-0.100000)"
fill="#000000" stroke="none">
<path d="M1235 2247 c-17 -13 -18 -30 -16 -214 l2 -201 -93 -7 c-51 -3 -193
-17 -314 -31 -122 -13 -248 -24 -281 -24 -101 0 -95 22 -97 -351 -2 -310 -3
-329 -28 -445 -42 -188 -111 -368 -209 -538 -27 -48 -49 -97 -49 -109 0 -49
52 -63 87 -24 43 46 171 312 224 465 29 84 69 288 78 402 5 58 8 191 7 297
l-1 192 35 6 c62 9 391 44 530 55 74 6 182 15 240 21 172 15 413 29 614 35
168 6 190 8 208 26 13 13 17 26 13 41 -13 42 -34 49 -125 43 -47 -3 -164 -8
-260 -12 -96 -3 -238 -12 -315 -20 -77 -8 -143 -14 -147 -14 -5 0 -8 69 -8
153 -1 171 -10 235 -36 254 -23 16 -36 16 -59 0z"/>
<path d="M1288 1448 c-8 -7 -51 -80 -93 -163 -43 -82 -100 -184 -126 -225 -42
-67 -96 -160 -195 -332 -53 -93 -160 -241 -198 -275 -39 -34 -47 -71 -20 -97
19 -19 58 -20 144 -2 282 59 385 82 600 135 135 34 267 72 294 85 46 23 51 23
73 9 13 -9 76 -76 139 -149 63 -74 124 -139 135 -144 39 -21 87 17 72 57 -4
10 -36 51 -72 92 -82 93 -401 421 -459 473 -44 39 -78 48 -100 26 -28 -28 -12
-57 90 -160 l102 -102 -33 -14 c-81 -33 -796 -201 -807 -189 -2 1 25 45 60 97
35 52 90 140 121 195 32 55 93 159 135 230 88 148 220 397 220 414 0 15 -37
51 -53 51 -7 0 -20 -6 -29 -12z"/>
</g>
</svg>
