<?xml version="1.0" standalone="no"?>
<!DOCTYPE svg PUBLIC "-//W3C//DTD SVG 20010904//EN"
 "http://www.w3.org/TR/2001/REC-SVG-20010904/DTD/svg10.dtd">
<svg version="1.0" xmlns="http://www.w3.org/2000/svg"
 width="248.000000pt" height="248.000000pt" viewBox="0 0 248.000000 248.000000"
 preserveAspectRatio="xMidYMid meet">
<metadata>
Created by potrace 1.10, written by Peter Selinger 2001-2011
</metadata>
<g transform="translate(0.000000,248.000000) scale(0.100000,-0.100000)"
fill="#000000" stroke="none">
<path d="M1945 2093 c-27 -2 -88 -8 -135 -14 -47 -6 -134 -15 -195 -20 -255
-22 -360 -31 -530 -44 -393 -31 -539 -46 -564 -58 -19 -9 -26 -20 -26 -42 0
-49 27 -54 200 -39 83 7 238 20 345 29 371 30 416 34 535 44 66 6 154 15 195
21 41 5 131 12 200 16 137 7 170 18 170 59 0 50 -35 58 -195 48z"/>
</g>
</svg>
