<?xml version="1.0" standalone="no"?>
<!DOCTYPE svg PUBLIC "-//W3C//DTD SVG 20010904//EN"
 "http://www.w3.org/TR/2001/REC-SVG-20010904/DTD/svg10.dtd">
<svg version="1.0" xmlns="http://www.w3.org/2000/svg"
 width="248.000000pt" height="248.000000pt" viewBox="0 0 248.000000 248.000000"
 preserveAspectRatio="xMidYMid meet">
<metadata>
Created by potrace 1.10, written by Peter Selinger 2001-2011
</metadata>
<g transform="translate(0.000000,248.000000) scale(0.100000,-0.100000)"
fill="#000000" stroke="none">
<path d="M854 2170 c-49 -10 -121 -21 -160 -25 -38 -3 -115 -13 -170 -21 -56
-8 -130 -14 -166 -14 -73 0 -108 -18 -108 -55 0 -43 39 -59 129 -51 76 6 79 5
85 -16 8 -31 7 -253 -2 -302 -7 -39 -8 -40 -67 -52 -33 -7 -91 -18 -130 -25
-86 -15 -109 -32 -100 -74 20 -100 24 -194 30 -700 4 -343 11 -571 17 -587 18
-47 71 -48 89 -1 5 13 9 107 9 207 l0 183 53 7 c28 3 77 11 107 16 100 19 462
70 491 70 16 0 29 -3 29 -7 0 -38 -61 -358 -69 -366 -12 -12 -14 -57 -3 -73
28 -41 82 -16 106 48 25 67 70 366 81 538 3 47 14 157 25 245 25 209 29 263
31 429 l2 139 -27 24 c-33 28 -72 29 -231 8 -60 -8 -114 -15 -118 -15 -9 0 -1
222 11 306 l7 49 95 18 c100 20 130 36 130 72 0 49 -31 54 -176 25z m-157
-152 c-4 -13 -11 -93 -17 -178 -6 -85 -12 -155 -13 -156 -1 -1 -23 -5 -50 -9
l-47 -7 2 143 c2 79 -1 161 -5 181 -7 36 -7 37 25 41 18 2 50 5 72 5 35 2 38
0 33 -20z m357 -540 c-5 -138 -22 -349 -29 -356 -2 -2 -14 3 -27 11 -12 9 -41
20 -64 26 -59 16 -106 51 -129 96 -17 35 -20 60 -20 190 l0 150 75 11 c41 7
103 12 137 13 l61 1 -4 -142z m-384 25 c1 -218 32 -324 110 -381 82 -61 197
-90 229 -59 11 10 12 6 8 -23 -3 -19 -9 -72 -13 -117 -4 -51 -11 -83 -18 -83
-6 0 -40 -5 -76 -10 -36 -6 -117 -17 -180 -25 -98 -13 -266 -40 -387 -62 l-33
-6 -1 94 c0 52 -2 113 -5 136 l-6 42 34 -5 c27 -5 38 -1 60 23 52 54 105 221
138 434 7 42 16 82 20 88 6 10 34 17 113 30 4 0 7 -34 7 -76z m-234 10 c-3
-16 -15 -77 -26 -138 -22 -117 -59 -232 -88 -274 -17 -25 -17 -23 -23 129 -4
85 -8 182 -10 214 l-4 59 70 18 c92 23 87 23 81 -8z"/>
</g>
</svg>
