<?xml version="1.0" standalone="no"?>
<!DOCTYPE svg PUBLIC "-//W3C//DTD SVG 20010904//EN"
 "http://www.w3.org/TR/2001/REC-SVG-20010904/DTD/svg10.dtd">
<svg version="1.0" xmlns="http://www.w3.org/2000/svg"
 width="248.000000pt" height="248.000000pt" viewBox="0 0 248.000000 248.000000"
 preserveAspectRatio="xMidYMid meet">
<metadata>
Created by potrace 1.10, written by Peter Selinger 2001-2011
</metadata>
<g transform="translate(0.000000,248.000000) scale(0.100000,-0.100000)"
fill="#000000" stroke="none">
<path d="M855 2170 c-49 -10 -124 -21 -165 -25 -41 -4 -118 -13 -170 -21 -52
-8 -124 -14 -160 -14 -75 0 -110 -18 -110 -55 0 -55 54 -65 230 -40 58 9 148
20 200 25 142 15 313 50 333 67 20 19 22 54 5 71 -16 16 -54 14 -163 -8z"/>
</g>
</svg>
