<?xml version="1.0" standalone="no"?>
<!DOCTYPE svg PUBLIC "-//W3C//DTD SVG 20010904//EN"
 "http://www.w3.org/TR/2001/REC-SVG-20010904/DTD/svg10.dtd">
<svg version="1.0" xmlns="http://www.w3.org/2000/svg"
 width="248.000000pt" height="248.000000pt" viewBox="0 0 248.000000 248.000000"
 preserveAspectRatio="xMidYMid meet">
<metadata>
Created by potrace 1.10, written by Peter Selinger 2001-2011
</metadata>
<g transform="translate(0.000000,248.000000) scale(0.100000,-0.100000)"
fill="#000000" stroke="none">
<path d="M855 2170 c-49 -10 -124 -21 -165 -25 -41 -4 -118 -13 -170 -21 -52
-8 -124 -14 -160 -14 -75 0 -110 -18 -110 -55 0 -55 54 -65 230 -40 58 9 148
20 200 25 142 15 313 50 333 67 20 19 22 54 5 71 -16 16 -54 14 -163 -8z"/>
<path d="M960 1723 c-68 -8 -426 -63 -500 -77 -41 -7 -115 -21 -165 -31 -49
-9 -96 -20 -104 -24 -29 -15 -36 -39 -23 -73 17 -44 31 -428 32 -885 0 -367 3
-404 38 -418 24 -9 52 5 63 32 15 39 5 934 -14 1227 -2 26 2 29 49 42 122 31
589 104 671 104 l53 0 -5 -107 c-13 -264 -16 -309 -30 -411 -8 -59 -19 -168
-25 -242 -12 -166 -57 -455 -76 -494 -24 -50 -17 -86 19 -99 26 -10 54 8 73
45 26 50 78 376 89 558 3 58 10 132 15 165 23 153 39 353 41 494 l2 155 -27
23 c-27 23 -73 28 -176 16z"/>
</g>
</svg>
