<?xml version="1.0" standalone="no"?>
<!DOCTYPE svg PUBLIC "-//W3C//DTD SVG 20010904//EN"
 "http://www.w3.org/TR/2001/REC-SVG-20010904/DTD/svg10.dtd">
<svg version="1.0" xmlns="http://www.w3.org/2000/svg"
 width="248.000000pt" height="248.000000pt" viewBox="0 0 248.000000 248.000000"
 preserveAspectRatio="xMidYMid meet">
<metadata>
Created by potrace 1.10, written by Peter Selinger 2001-2011
</metadata>
<g transform="translate(0.000000,248.000000) scale(0.100000,-0.100000)"
fill="#000000" stroke="none">
<path d="M1590 1939 c-74 -4 -223 -13 -330 -19 -288 -17 -738 -62 -840 -84
-70 -16 -94 -37 -86 -76 10 -47 45 -344 71 -595 14 -137 32 -299 40 -360 8
-60 17 -150 20 -200 3 -49 9 -98 11 -108 11 -37 76 -41 94 -7 10 18 -7 235
-29 385 -6 39 -22 183 -36 320 -14 138 -32 306 -40 375 -22 184 -29 166 68
179 400 51 714 74 1206 87 182 5 277 3 337 -6 97 -14 94 -8 69 -140 -7 -41
-26 -149 -40 -240 -104 -644 -109 -671 -162 -833 -20 -63 -23 -84 -14 -103 14
-32 64 -33 85 -1 41 61 103 341 156 697 23 150 48 305 84 514 25 144 24 169
-11 180 -10 3 -69 14 -132 26 -123 22 -267 24 -521 9z"/>
</g>
</svg>
