<?xml version="1.0" standalone="no"?>
<!DOCTYPE svg PUBLIC "-//W3C//DTD SVG 20010904//EN"
 "http://www.w3.org/TR/2001/REC-SVG-20010904/DTD/svg10.dtd">
<svg version="1.0" xmlns="http://www.w3.org/2000/svg"
 width="248.000000pt" height="248.000000pt" viewBox="0 0 248.000000 248.000000"
 preserveAspectRatio="xMidYMid meet">
<metadata>
Created by potrace 1.10, written by Peter Selinger 2001-2011
</metadata>
<g transform="translate(0.000000,248.000000) scale(0.100000,-0.100000)"
fill="#000000" stroke="none">
<path d="M350 1785 c-10 -13 -8 -58 14 -243 14 -125 35 -317 46 -427 11 -110
27 -249 35 -310 8 -60 17 -150 20 -200 3 -49 9 -98 11 -108 11 -37 76 -41 94
-7 10 18 -7 235 -29 385 -6 39 -22 183 -36 320 -50 491 -60 562 -83 588 -19
21 -55 22 -72 2z"/>
</g>
</svg>
