<?xml version="1.0" standalone="no"?>
<!DOCTYPE svg PUBLIC "-//W3C//DTD SVG 20010904//EN"
 "http://www.w3.org/TR/2001/REC-SVG-20010904/DTD/svg10.dtd">
<svg version="1.0" xmlns="http://www.w3.org/2000/svg"
 width="248.000000pt" height="248.000000pt" viewBox="0 0 248.000000 248.000000"
 preserveAspectRatio="xMidYMid meet">
<metadata>
Created by potrace 1.10, written by Peter Selinger 2001-2011
</metadata>
<g transform="translate(0.000000,248.000000) scale(0.100000,-0.100000)"
fill="#000000" stroke="none">
<path d="M466 2348 c-9 -12 -16 -39 -16 -60 0 -50 -80 -298 -119 -368 -38 -68
-41 -117 -8 -129 12 -5 31 -5 41 -1 24 9 71 89 105 183 l27 72 104 7 c58 4
132 12 165 17 43 7 63 6 72 -2 6 -7 21 -45 32 -85 34 -122 74 -167 117 -131
19 15 16 42 -15 153 -12 43 -20 80 -19 81 2 2 66 11 143 20 172 20 195 27 195
66 0 19 -8 34 -23 44 -24 15 -93 10 -442 -35 -44 -5 -129 -13 -189 -17 -98 -6
-109 -5 -103 10 3 9 11 42 18 74 10 49 10 64 -2 88 -19 39 -60 46 -83 13z"/>
<path d="M1443 2358 c-6 -7 -13 -42 -17 -77 -4 -43 -21 -99 -51 -169 -25 -57
-45 -116 -45 -131 0 -67 79 -68 102 -1 3 8 18 43 33 78 l28 62 63 0 c35 0 109
5 164 11 55 7 103 9 106 6 11 -11 -7 -66 -37 -111 -33 -49 -32 -78 1 -96 26
-14 63 2 88 37 22 31 52 113 52 143 0 30 25 37 152 44 64 3 128 10 141 15 44
17 46 74 3 91 -22 8 -234 -1 -461 -20 -66 -6 -146 -10 -177 -10 l-57 0 1 51
c0 34 -6 56 -18 70 -19 22 -57 25 -71 7z"/>
<path d="M1176 1868 c-11 -15 -16 -45 -16 -88 l0 -66 -107 -17 c-60 -9 -137
-17 -173 -17 -36 0 -101 -5 -145 -10 -44 -6 -126 -14 -183 -19 -141 -11 -148
-18 -133 -131 6 -46 11 -108 11 -139 0 -74 17 -106 55 -106 47 0 57 31 49 157
l-6 106 43 6 c106 13 222 26 329 36 63 6 153 15 200 21 47 5 159 14 250 20 91
5 233 14 315 19 83 5 217 12 299 16 l149 7 -51 -50 c-53 -50 -66 -85 -40 -111
30 -30 76 -5 199 109 33 31 39 43 39 77 0 22 -6 45 -14 51 -42 35 -239 36
-711 1 -71 -5 -160 -12 -197 -14 l-68 -5 0 62 c0 72 -18 107 -55 107 -13 0
-31 -10 -39 -22z"/>
<path d="M1335 1459 c-210 -19 -344 -29 -396 -29 -79 0 -83 -7 -80 -145 1 -63
-3 -187 -9 -277 -21 -330 -39 -868 -30 -893 5 -13 18 -29 29 -34 31 -17 862
-4 879 13 8 8 18 51 23 97 5 45 16 121 24 167 18 103 19 228 2 261 -22 44 -74
53 -247 47 -143 -6 -336 -18 -519 -31 l-74 -6 7 118 c4 65 9 119 10 120 10 10
223 25 438 31 235 6 269 9 285 24 14 15 19 53 30 240 14 243 10 277 -33 297
-28 13 -201 13 -339 0z m271 -176 c-3 -43 -8 -122 -12 -175 l-6 -98 -116 0
c-121 0 -353 -14 -455 -26 l-59 -7 8 169 c3 93 8 170 9 172 3 3 91 12 310 31
55 4 151 9 214 10 l113 1 -6 -77z m73 -800 c0 -74 -28 -276 -39 -286 -3 -2
-165 -8 -362 -12 l-356 -7 5 164 c3 90 9 167 14 172 11 13 427 41 637 44 l102
2 -1 -77z"/>
</g>
</svg>
