<?xml version="1.0" standalone="no"?>
<!DOCTYPE svg PUBLIC "-//W3C//DTD SVG 20010904//EN"
 "http://www.w3.org/TR/2001/REC-SVG-20010904/DTD/svg10.dtd">
<svg version="1.0" xmlns="http://www.w3.org/2000/svg"
 width="248.000000pt" height="248.000000pt" viewBox="0 0 248.000000 248.000000"
 preserveAspectRatio="xMidYMid meet">
<metadata>
Created by potrace 1.10, written by Peter Selinger 2001-2011
</metadata>
<g transform="translate(0.000000,248.000000) scale(0.100000,-0.100000)"
fill="#000000" stroke="none">
<path d="M466 2348 c-9 -12 -16 -39 -16 -60 0 -50 -80 -298 -119 -368 -38 -68
-41 -117 -8 -129 12 -5 31 -5 41 -1 24 9 71 89 105 183 l27 72 104 7 c58 4
132 12 165 17 43 7 63 6 72 -2 6 -7 21 -45 32 -85 34 -122 74 -167 117 -131
19 15 16 42 -15 153 -12 43 -20 80 -19 81 2 2 66 11 143 20 172 20 195 27 195
66 0 19 -8 34 -23 44 -24 15 -93 10 -442 -35 -44 -5 -129 -13 -189 -17 -98 -6
-109 -5 -103 10 3 9 11 42 18 74 10 49 10 64 -2 88 -19 39 -60 46 -83 13z"/>
<path d="M1443 2358 c-6 -7 -13 -42 -17 -77 -4 -43 -21 -99 -51 -169 -25 -57
-45 -116 -45 -131 0 -67 79 -68 102 -1 3 8 18 43 33 78 l28 62 63 0 c35 0 109
5 164 11 55 7 103 9 106 6 11 -11 -7 -66 -37 -111 -33 -49 -32 -78 1 -96 26
-14 63 2 88 37 22 31 52 113 52 143 0 30 25 37 152 44 64 3 128 10 141 15 44
17 46 74 3 91 -22 8 -234 -1 -461 -20 -66 -6 -146 -10 -177 -10 l-57 0 1 51
c0 34 -6 56 -18 70 -19 22 -57 25 -71 7z"/>
<path d="M1176 1868 c-11 -16 -16 -46 -16 -98 0 -85 16 -120 55 -120 39 0 55
35 55 120 0 85 -16 120 -55 120 -13 0 -31 -10 -39 -22z"/>
</g>
</svg>
