<?xml version="1.0" standalone="no"?>
<!DOCTYPE svg PUBLIC "-//W3C//DTD SVG 20010904//EN"
 "http://www.w3.org/TR/2001/REC-SVG-20010904/DTD/svg10.dtd">
<svg version="1.0" xmlns="http://www.w3.org/2000/svg"
 width="248.000000pt" height="248.000000pt" viewBox="0 0 248.000000 248.000000"
 preserveAspectRatio="xMidYMid meet">
<metadata>
Created by potrace 1.10, written by Peter Selinger 2001-2011
</metadata>
<g transform="translate(0.000000,248.000000) scale(0.100000,-0.100000)"
fill="#000000" stroke="none">
<path d="M837 2258 c-16 -18 -48 -55 -70 -83 -47 -61 -160 -185 -324 -358
-119 -125 -136 -151 -115 -184 9 -15 56 -33 86 -33 23 0 206 -85 206 -95 0 -8
-87 -124 -154 -205 -63 -76 -194 -244 -219 -280 -20 -28 -22 -71 -5 -88 17
-17 51 -15 100 7 40 18 259 91 272 91 3 0 6 -190 6 -422 0 -464 1 -473 55
-473 54 0 55 7 54 490 l0 440 93 36 c145 57 131 58 178 -6 44 -60 73 -70 104
-36 23 25 15 49 -38 124 -76 108 -149 187 -171 187 -45 0 -58 -46 -29 -101 8
-17 14 -32 12 -33 -17 -13 -439 -158 -445 -153 -1 2 28 41 65 88 38 46 95 120
127 164 32 44 97 130 145 190 167 212 211 290 178 323 -32 32 -73 5 -133 -88
-51 -78 -118 -160 -130 -160 -7 0 -48 17 -91 39 -44 21 -90 42 -102 46 -22 6
-19 11 55 89 212 221 393 438 393 471 0 53 -57 61 -103 13z"/>
<path d="M1920 2234 c-14 -2 -68 -8 -120 -14 -52 -6 -147 -20 -210 -30 -63
-11 -150 -25 -192 -31 -105 -16 -115 -27 -99 -117 8 -47 12 -319 14 -917 2
-930 1 -906 59 -913 53 -6 56 11 50 303 l-5 265 29 0 c16 0 67 7 114 16 47 8
135 22 195 30 61 8 129 17 153 20 l42 7 0 -244 c0 -266 5 -292 52 -297 19 -2
31 4 43 21 14 22 15 116 12 946 -3 820 -5 923 -19 937 -16 16 -74 25 -118 18z
m27 -301 c-4 -108 -7 -243 -7 -300 l0 -103 -37 0 c-21 0 -101 -11 -178 -24
-180 -31 -296 -48 -300 -44 -2 2 -5 137 -7 300 l-3 297 30 6 c17 4 59 10 95
15 36 4 119 15 185 23 112 15 163 22 209 25 18 2 19 -5 13 -195z m3 -742 l0
-230 -52 -10 c-29 -5 -78 -13 -108 -16 -30 -4 -124 -17 -208 -31 -84 -13 -155
-24 -157 -24 -3 0 -5 105 -5 234 l0 234 48 10 c26 6 90 16 142 22 52 6 120 17
150 25 30 7 85 14 123 14 l67 1 0 -229z"/>
<path d="M812 768 c-21 -21 -13 -67 29 -150 22 -44 51 -113 65 -152 32 -97 75
-124 110 -71 15 23 14 29 -15 115 -29 82 -98 226 -123 258 -13 15 -50 16 -66
0z"/>
<path d="M400 745 c-6 -8 -29 -74 -51 -147 -21 -73 -50 -172 -65 -221 -24 -82
-25 -89 -10 -112 18 -27 44 -32 68 -12 15 12 59 144 119 353 28 99 29 107 14
130 -17 27 -56 32 -75 9z"/>
</g>
</svg>
