<?xml version="1.0" standalone="no"?>
<!DOCTYPE svg PUBLIC "-//W3C//DTD SVG 20010904//EN"
 "http://www.w3.org/TR/2001/REC-SVG-20010904/DTD/svg10.dtd">
<svg version="1.0" xmlns="http://www.w3.org/2000/svg"
 width="248.000000pt" height="248.000000pt" viewBox="0 0 248.000000 248.000000"
 preserveAspectRatio="xMidYMid meet">
<metadata>
Created by potrace 1.10, written by Peter Selinger 2001-2011
</metadata>
<g transform="translate(0.000000,248.000000) scale(0.100000,-0.100000)"
fill="#000000" stroke="none">
<path d="M837 2258 c-16 -18 -48 -55 -70 -83 -47 -61 -160 -185 -324 -358
-119 -125 -136 -151 -115 -184 9 -15 56 -33 86 -33 23 0 206 -85 206 -95 0 -8
-87 -124 -154 -205 -63 -76 -194 -244 -219 -280 -20 -28 -22 -71 -5 -88 17
-17 51 -15 100 7 24 11 97 36 163 56 169 52 427 146 448 163 20 17 22 53 5 70
-20 20 -64 14 -161 -24 -50 -20 -128 -47 -172 -61 -44 -14 -104 -34 -134 -45
-29 -10 -55 -17 -57 -15 -2 2 27 41 64 88 38 46 95 120 127 164 32 44 97 130
145 190 167 212 211 290 178 323 -32 32 -73 5 -133 -88 -51 -78 -118 -160
-130 -160 -7 0 -48 17 -91 39 -44 21 -90 42 -102 46 -22 6 -19 11 55 89 212
221 393 438 393 471 0 53 -57 61 -103 13z"/>
</g>
</svg>
