<?xml version="1.0" standalone="no"?>
<!DOCTYPE svg PUBLIC "-//W3C//DTD SVG 20010904//EN"
 "http://www.w3.org/TR/2001/REC-SVG-20010904/DTD/svg10.dtd">
<svg version="1.0" xmlns="http://www.w3.org/2000/svg"
 width="248.000000pt" height="248.000000pt" viewBox="0 0 248.000000 248.000000"
 preserveAspectRatio="xMidYMid meet">
<metadata>
Created by potrace 1.10, written by Peter Selinger 2001-2011
</metadata>
<g transform="translate(0.000000,248.000000) scale(0.100000,-0.100000)"
fill="#000000" stroke="none">
<path d="M1555 2400 c-44 -4 -156 -11 -250 -14 -199 -9 -552 -42 -589 -55 -50
-20 -50 -35 -11 -259 20 -114 39 -222 41 -239 3 -18 13 -37 23 -42 22 -12 193
0 426 29 88 12 211 24 274 27 96 5 117 10 137 27 13 12 58 94 99 184 41 90 88
187 105 216 34 60 38 97 13 117 -19 16 -143 20 -268 9z m145 -106 c0 -3 -10
-22 -22 -44 -27 -46 -30 -47 -228 -60 -80 -6 -185 -15 -235 -20 -49 -5 -139
-12 -200 -15 -60 -3 -133 -8 -162 -10 l-51 -5 -10 47 c-6 26 -10 49 -9 50 9 9
214 26 452 38 160 9 297 17 305 19 25 6 160 6 160 0z m-100 -205 c0 -6 -12
-38 -26 -70 l-26 -58 -57 -5 c-31 -3 -155 -17 -276 -31 -121 -14 -254 -26
-295 -27 -83 -2 -79 -6 -94 93 l-7 46 118 7 c65 4 183 13 263 22 80 8 197 18
260 23 63 4 121 9 128 10 6 0 12 -4 12 -10z"/>
<path d="M1520 1699 c-19 -5 -114 -13 -210 -18 -166 -10 -392 -26 -508 -37
-81 -8 -115 -51 -72 -94 21 -21 27 -21 206 1 44 5 169 13 276 19 226 10 363
27 396 47 29 18 29 57 0 77 -25 18 -36 18 -88 5z"/>
<path d="M1675 1500 c-49 -4 -144 -11 -210 -14 -66 -4 -156 -12 -200 -17 -44
-5 -165 -18 -270 -29 -104 -12 -230 -27 -280 -35 -49 -8 -146 -19 -215 -25
-69 -6 -137 -13 -152 -16 -34 -7 -46 -43 -37 -109 4 -27 8 -86 8 -130 1 -91
17 -125 56 -125 46 0 59 38 51 148 -4 53 -8 101 -9 106 -3 12 597 90 898 116
347 30 691 40 738 22 14 -6 1 -17 -60 -53 -43 -25 -96 -54 -117 -64 -51 -26
-63 -46 -48 -79 8 -18 19 -26 37 -26 58 0 237 102 323 183 53 52 57 89 11 112
-69 36 -311 52 -524 35z"/>
</g>
</svg>
