<?xml version="1.0" standalone="no"?>
<!DOCTYPE svg PUBLIC "-//W3C//DTD SVG 20010904//EN"
 "http://www.w3.org/TR/2001/REC-SVG-20010904/DTD/svg10.dtd">
<svg version="1.0" xmlns="http://www.w3.org/2000/svg"
 width="248.000000pt" height="248.000000pt" viewBox="0 0 248.000000 248.000000"
 preserveAspectRatio="xMidYMid meet">
<metadata>
Created by potrace 1.10, written by Peter Selinger 2001-2011
</metadata>
<g transform="translate(0.000000,248.000000) scale(0.100000,-0.100000)"
fill="#000000" stroke="none">
<path d="M1610 2307 c-3 -3 -57 -11 -120 -16 -63 -6 -131 -13 -150 -16 -19 -3
-93 -12 -165 -20 -71 -8 -161 -19 -200 -25 -38 -5 -106 -9 -150 -10 -95 0
-128 -16 -123 -58 5 -44 39 -54 156 -47 57 3 147 12 200 20 95 14 189 25 387
45 219 23 255 28 270 40 19 15 20 54 1 69 -14 12 -98 26 -106 18z"/>
<path d="M310 1855 c-13 -15 -8 -96 11 -184 5 -24 14 -89 19 -144 10 -107 25
-137 65 -137 34 0 45 20 45 85 0 90 -47 355 -67 377 -20 22 -56 23 -73 3z"/>
</g>
</svg>
