<?xml version="1.0" standalone="no"?>
<!DOCTYPE svg PUBLIC "-//W3C//DTD SVG 20010904//EN"
 "http://www.w3.org/TR/2001/REC-SVG-20010904/DTD/svg10.dtd">
<svg version="1.0" xmlns="http://www.w3.org/2000/svg"
 width="248.000000pt" height="248.000000pt" viewBox="0 0 248.000000 248.000000"
 preserveAspectRatio="xMidYMid meet">
<metadata>
Created by potrace 1.10, written by Peter Selinger 2001-2011
</metadata>
<g transform="translate(0.000000,248.000000) scale(0.100000,-0.100000)"
fill="#000000" stroke="none">
<path d="M1610 2307 c-3 -3 -57 -11 -120 -16 -63 -6 -131 -13 -150 -16 -19 -3
-93 -12 -165 -20 -71 -8 -161 -19 -200 -25 -38 -5 -106 -9 -150 -10 -95 0
-128 -16 -123 -58 5 -44 39 -54 156 -47 57 3 147 12 200 20 95 14 189 25 387
45 219 23 255 28 270 40 19 15 20 54 1 69 -14 12 -98 26 -106 18z"/>
<path d="M1925 2009 c-49 -4 -135 -7 -190 -8 -55 0 -226 -14 -380 -30 -154
-17 -354 -35 -445 -41 -91 -6 -203 -15 -250 -20 -47 -5 -132 -12 -190 -15
-135 -8 -147 -11 -166 -39 -12 -20 -13 -32 -5 -63 12 -48 38 -218 45 -302 4
-39 13 -72 23 -83 18 -21 53 -24 71 -6 18 18 15 117 -8 252 -11 66 -18 121
-16 123 6 6 300 33 586 52 74 6 236 21 360 35 124 13 302 27 395 30 94 4 197
9 229 13 50 5 58 4 54 -9 -9 -21 -76 -112 -130 -176 -50 -58 -59 -90 -32 -116
27 -27 50 -18 102 39 75 82 212 281 212 307 -1 66 -46 75 -265 57z"/>
</g>
</svg>
