<?xml version="1.0" standalone="no"?>
<!DOCTYPE svg PUBLIC "-//W3C//DTD SVG 20010904//EN"
 "http://www.w3.org/TR/2001/REC-SVG-20010904/DTD/svg10.dtd">
<svg version="1.0" xmlns="http://www.w3.org/2000/svg"
 width="248.000000pt" height="248.000000pt" viewBox="0 0 248.000000 248.000000"
 preserveAspectRatio="xMidYMid meet">
<metadata>
Created by potrace 1.10, written by Peter Selinger 2001-2011
</metadata>
<g transform="translate(0.000000,248.000000) scale(0.100000,-0.100000)"
fill="#000000" stroke="none">
<path d="M1555 2400 c-44 -4 -156 -11 -250 -14 -199 -9 -552 -42 -589 -55 -50
-20 -51 -34 -6 -279 23 -125 48 -237 56 -249 17 -27 56 -30 75 -7 10 13 11 31
1 100 -7 47 -15 98 -18 113 l-6 28 124 7 c67 4 182 13 253 21 72 7 177 16 235
20 58 3 120 8 138 11 21 3 32 1 32 -7 0 -27 -54 -130 -76 -144 -26 -17 -32
-53 -12 -73 19 -19 82 -15 102 7 9 10 50 91 91 180 41 89 88 186 105 215 34
60 38 97 13 117 -19 16 -143 20 -268 9z m145 -106 c0 -3 -10 -22 -22 -44 -27
-46 -30 -47 -228 -60 -80 -6 -185 -15 -235 -20 -49 -5 -139 -12 -200 -15 -60
-3 -133 -8 -162 -10 l-51 -5 -10 47 c-6 26 -10 49 -9 50 9 9 214 26 452 38
160 9 297 17 305 19 25 6 160 6 160 0z"/>
</g>
</svg>
