<?xml version="1.0" standalone="no"?>
<!DOCTYPE svg PUBLIC "-//W3C//DTD SVG 20010904//EN"
 "http://www.w3.org/TR/2001/REC-SVG-20010904/DTD/svg10.dtd">
<svg version="1.0" xmlns="http://www.w3.org/2000/svg"
 width="248.000000pt" height="248.000000pt" viewBox="0 0 248.000000 248.000000"
 preserveAspectRatio="xMidYMid meet">
<metadata>
Created by potrace 1.10, written by Peter Selinger 2001-2011
</metadata>
<g transform="translate(0.000000,248.000000) scale(0.100000,-0.100000)"
fill="#000000" stroke="none">
<path d="M1555 2400 c-44 -4 -156 -11 -250 -14 -199 -9 -552 -42 -589 -55 -50
-20 -50 -35 -11 -259 20 -114 39 -222 41 -239 3 -18 13 -37 23 -42 22 -12 193
0 426 29 88 12 211 24 274 27 96 5 117 10 137 27 13 12 58 94 99 184 41 90 88
187 105 216 34 60 38 97 13 117 -19 16 -143 20 -268 9z m145 -106 c0 -3 -10
-22 -22 -44 -27 -46 -30 -47 -228 -60 -80 -6 -185 -15 -235 -20 -49 -5 -139
-12 -200 -15 -60 -3 -133 -8 -162 -10 l-51 -5 -10 47 c-6 26 -10 49 -9 50 9 9
214 26 452 38 160 9 297 17 305 19 25 6 160 6 160 0z m-100 -205 c0 -6 -12
-38 -26 -70 l-26 -58 -57 -5 c-31 -3 -155 -17 -276 -31 -121 -14 -254 -26
-295 -27 -83 -2 -79 -6 -94 93 l-7 46 118 7 c65 4 183 13 263 22 80 8 197 18
260 23 63 4 121 9 128 10 6 0 12 -4 12 -10z"/>
</g>
</svg>
