<?xml version="1.0" standalone="no"?>
<!DOCTYPE svg PUBLIC "-//W3C//DTD SVG 20010904//EN"
 "http://www.w3.org/TR/2001/REC-SVG-20010904/DTD/svg10.dtd">
<svg version="1.0" xmlns="http://www.w3.org/2000/svg"
 width="248.000000pt" height="248.000000pt" viewBox="0 0 248.000000 248.000000"
 preserveAspectRatio="xMidYMid meet">
<metadata>
Created by potrace 1.10, written by Peter Selinger 2001-2011
</metadata>
<g transform="translate(0.000000,248.000000) scale(0.100000,-0.100000)"
fill="#000000" stroke="none">
<path d="M1610 2307 c-3 -3 -57 -11 -120 -16 -63 -6 -131 -13 -150 -16 -19 -3
-93 -12 -165 -20 -71 -8 -161 -19 -200 -25 -38 -5 -106 -9 -150 -10 -95 0
-128 -16 -123 -58 6 -49 43 -57 198 -43 74 7 154 15 178 18 l42 5 0 -99 0
-100 -112 -7 c-62 -4 -162 -11 -223 -16 -60 -4 -180 -14 -265 -20 -194 -15
-196 -15 -216 -44 -12 -20 -13 -32 -5 -63 12 -48 38 -218 45 -302 4 -39 13
-72 23 -83 18 -21 53 -24 71 -6 18 18 15 117 -8 253 -11 66 -20 121 -20 122 0
4 278 31 455 43 83 6 173 13 202 15 l52 5 3 -224 c3 -204 5 -226 22 -245 21
-23 56 -27 74 -9 9 9 12 78 12 250 0 184 3 238 13 238 6 1 62 7 122 15 61 8
206 19 323 24 118 6 246 13 284 17 60 6 70 5 66 -8 -9 -21 -76 -112 -130 -176
-50 -58 -59 -90 -32 -116 27 -27 50 -18 102 39 78 85 212 281 212 309 0 61
-46 71 -243 57 -80 -6 -183 -11 -229 -11 -46 0 -172 -10 -281 -21 -108 -12
-199 -20 -202 -18 -2 3 -5 47 -6 99 l-2 95 54 7 c30 4 101 12 159 18 223 22
260 28 275 40 19 15 20 54 1 69 -14 12 -98 26 -106 18z"/>
<path d="M632 1698 c-17 -17 -15 -53 6 -70 20 -17 246 -78 290 -78 51 0 68 65
24 89 -27 15 -250 71 -280 71 -16 0 -33 -5 -40 -12z"/>
</g>
</svg>
