<?xml version="1.0" standalone="no"?>
<!DOCTYPE svg PUBLIC "-//W3C//DTD SVG 20010904//EN"
 "http://www.w3.org/TR/2001/REC-SVG-20010904/DTD/svg10.dtd">
<svg version="1.0" xmlns="http://www.w3.org/2000/svg"
 width="248.000000pt" height="248.000000pt" viewBox="0 0 248.000000 248.000000"
 preserveAspectRatio="xMidYMid meet">
<metadata>
Created by potrace 1.10, written by Peter Selinger 2001-2011
</metadata>
<g transform="translate(0.000000,248.000000) scale(0.100000,-0.100000)"
fill="#000000" stroke="none">
<path d="M652 2298 c-30 -30 6 -107 102 -215 23 -27 54 -65 69 -85 29 -39 62
-49 85 -26 31 31 4 95 -77 183 -20 22 -52 63 -71 90 -18 28 -38 53 -44 57 -17
12 -51 9 -64 -4z"/>
<path d="M1125 1866 c-5 -2 -71 -9 -145 -16 -138 -12 -556 -64 -644 -81 -27
-5 -67 -9 -90 -9 -78 0 -116 -60 -61 -96 28 -18 32 -18 320 25 214 31 424 55
629 70 88 7 112 12 123 26 31 44 4 77 -68 81 -30 2 -58 2 -64 0z"/>
</g>
</svg>
