<?xml version="1.0" standalone="no"?>
<!DOCTYPE svg PUBLIC "-//W3C//DTD SVG 20010904//EN"
 "http://www.w3.org/TR/2001/REC-SVG-20010904/DTD/svg10.dtd">
<svg version="1.0" xmlns="http://www.w3.org/2000/svg"
 width="248.000000pt" height="248.000000pt" viewBox="0 0 248.000000 248.000000"
 preserveAspectRatio="xMidYMid meet">
<metadata>
Created by potrace 1.10, written by Peter Selinger 2001-2011
</metadata>
<g transform="translate(0.000000,248.000000) scale(0.100000,-0.100000)"
fill="#000000" stroke="none">
<path d="M1375 2203 c-264 -13 -485 -32 -540 -44 -22 -5 -125 -14 -230 -20
-104 -6 -201 -16 -215 -22 -31 -15 -36 -39 -17 -80 14 -30 22 -440 31 -1683 1
-140 8 -164 51 -164 12 0 29 7 36 16 15 18 15 45 -2 634 -6 212 -9 567 -7 790
l3 405 180 11 c99 7 214 17 255 23 133 19 537 42 851 48 295 6 307 5 313 -13
12 -39 11 -1049 -1 -1271 -14 -238 -40 -541 -49 -555 -3 -5 2 -20 10 -33 21
-32 61 -33 79 -3 41 66 70 719 63 1412 -3 326 -9 543 -15 549 -14 14 -534 14
-796 0z"/>
</g>
</svg>
