<?xml version="1.0" standalone="no"?>
<!DOCTYPE svg PUBLIC "-//W3C//DTD SVG 20010904//EN"
 "http://www.w3.org/TR/2001/REC-SVG-20010904/DTD/svg10.dtd">
<svg version="1.0" xmlns="http://www.w3.org/2000/svg"
 width="248.000000pt" height="248.000000pt" viewBox="0 0 248.000000 248.000000"
 preserveAspectRatio="xMidYMid meet">
<metadata>
Created by potrace 1.10, written by Peter Selinger 2001-2011
</metadata>
<g transform="translate(0.000000,248.000000) scale(0.100000,-0.100000)"
fill="#000000" stroke="none">
<path d="M1375 2203 c-264 -13 -485 -32 -540 -44 -22 -5 -125 -14 -230 -20
-104 -6 -201 -16 -215 -22 -31 -15 -36 -39 -17 -80 14 -30 22 -440 31 -1683 1
-138 9 -164 48 -164 10 0 29 6 41 14 38 24 242 51 557 74 161 11 699 7 844 -6
105 -10 134 -16 151 -32 28 -26 61 -25 78 2 41 66 70 719 63 1412 -3 326 -9
543 -15 549 -14 14 -534 14 -796 0z m709 -100 c3 -10 7 -252 8 -538 3 -505 -6
-783 -34 -1077 l-12 -128 -120 8 c-67 4 -310 7 -541 7 -417 0 -533 -6 -768
-41 -54 -8 -102 -12 -106 -10 -4 3 -9 38 -9 78 -1 40 -7 237 -13 438 -6 201
-9 552 -7 780 l3 415 180 11 c99 7 212 16 250 22 57 9 316 27 635 45 30 2 162
4 292 5 218 2 237 1 242 -15z"/>
<path d="M1580 1805 c-123 -21 -216 -34 -573 -80 -65 -8 -149 -15 -186 -15
-71 0 -91 -10 -91 -46 0 -43 19 -47 188 -40 86 3 178 9 205 12 l47 6 0 -170
c0 -102 -4 -173 -10 -177 -16 -10 -118 -24 -254 -35 -72 -6 -136 -16 -143 -22
-18 -14 -16 -53 2 -68 12 -10 49 -11 158 -6 78 4 162 11 187 16 25 5 48 5 52
2 7 -8 -7 -321 -16 -329 -2 -3 -40 -9 -83 -14 -209 -23 -337 -47 -350 -65 -18
-25 -16 -41 8 -65 16 -16 28 -20 53 -15 92 19 301 47 371 51 44 3 112 9 150
15 39 5 186 9 329 8 275 -1 275 -1 276 48 0 45 -12 47 -340 45 l-311 -2 7 163
c4 90 11 168 16 175 9 11 29 15 253 49 122 18 155 33 155 68 0 53 -24 55 -250
20 -63 -9 -126 -18 -140 -18 l-25 -1 -3 164 c-1 91 1 168 5 172 5 4 60 15 123
23 346 47 390 58 390 101 0 18 -23 43 -45 48 -11 3 -81 -5 -155 -18z"/>
<path d="M1422 1178 c-29 -29 -13 -56 84 -139 53 -45 107 -100 120 -121 29
-46 65 -51 90 -13 24 37 5 72 -85 157 -129 121 -177 148 -209 116z"/>
</g>
</svg>
