<?xml version="1.0" standalone="no"?>
<!DOCTYPE svg PUBLIC "-//W3C//DTD SVG 20010904//EN"
 "http://www.w3.org/TR/2001/REC-SVG-20010904/DTD/svg10.dtd">
<svg version="1.0" xmlns="http://www.w3.org/2000/svg"
 width="248.000000pt" height="248.000000pt" viewBox="0 0 248.000000 248.000000"
 preserveAspectRatio="xMidYMid meet">
<metadata>
Created by potrace 1.10, written by Peter Selinger 2001-2011
</metadata>
<g transform="translate(0.000000,248.000000) scale(0.100000,-0.100000)"
fill="#000000" stroke="none">
<path d="M702 2198 c-6 -7 -42 -92 -80 -188 -127 -319 -291 -613 -427 -760
-55 -60 -67 -94 -43 -118 38 -38 106 15 208 161 40 56 49 64 56 50 5 -10 9
-260 9 -556 0 -514 1 -539 19 -549 12 -7 25 -7 41 0 22 10 23 18 30 144 4 73
5 333 3 578 -3 414 -4 448 -22 474 l-18 28 75 147 c86 166 227 508 227 549 0
16 -5 33 -12 40 -16 16 -53 15 -66 0z"/>
<path d="M1303 2128 c-6 -11 -14 -194 -17 -420 l-1 -47 -90 -5 c-322 -18 -441
-28 -452 -38 -16 -13 -17 -50 -1 -66 8 -8 45 -12 100 -12 65 0 88 -3 88 -13 0
-7 7 -64 15 -127 19 -151 43 -548 47 -779 l3 -185 -130 -17 c-144 -18 -161
-23 -175 -50 -23 -42 26 -92 68 -70 81 43 818 68 1224 41 154 -11 190 -10 203
0 23 19 15 63 -15 77 -14 6 -124 16 -259 22 -129 6 -235 12 -236 13 -1 2 8 73
20 158 13 85 37 274 54 420 17 146 41 333 53 417 l22 151 36 6 c19 3 87 10
150 16 63 6 123 14 133 16 24 8 37 44 24 71 -12 27 -28 31 -92 22 -111 -16
-599 -59 -672 -59 l-21 0 5 209 c5 186 4 213 -11 235 -18 28 -59 35 -73 14z
m417 -545 c0 -5 -9 -64 -19 -133 -10 -69 -22 -156 -26 -195 -3 -38 -10 -97
-15 -130 -5 -33 -16 -121 -25 -195 -13 -119 -32 -269 -53 -425 l-7 -50 -235
-6 c-134 -3 -238 -2 -241 4 -3 4 -9 122 -13 260 -10 393 -37 758 -61 818 -5
13 5 17 56 23 34 3 103 6 153 7 50 0 161 6 246 13 196 16 240 18 240 9z"/>
</g>
</svg>
