<?xml version="1.0" standalone="no"?>
<!DOCTYPE svg PUBLIC "-//W3C//DTD SVG 20010904//EN"
 "http://www.w3.org/TR/2001/REC-SVG-20010904/DTD/svg10.dtd">
<svg version="1.0" xmlns="http://www.w3.org/2000/svg"
 width="248.000000pt" height="248.000000pt" viewBox="0 0 248.000000 248.000000"
 preserveAspectRatio="xMidYMid meet">
<metadata>
Created by potrace 1.10, written by Peter Selinger 2001-2011
</metadata>
<g transform="translate(0.000000,248.000000) scale(0.100000,-0.100000)"
fill="#000000" stroke="none">
<path d="M702 2198 c-6 -7 -42 -92 -80 -188 -127 -319 -291 -613 -427 -760
-55 -60 -67 -94 -43 -118 38 -38 106 15 208 161 40 56 49 64 56 50 5 -10 9
-260 9 -556 0 -514 1 -539 19 -549 12 -7 25 -7 41 0 22 10 23 18 30 144 4 73
5 333 3 578 -3 414 -4 448 -22 474 l-18 28 75 147 c86 166 227 508 227 549 0
16 -5 33 -12 40 -16 16 -53 15 -66 0z"/>
<path d="M1303 2128 c-4 -7 -8 -78 -9 -157 -1 -79 -5 -176 -9 -216 -5 -60 -4
-75 10 -89 18 -18 43 -20 64 -7 20 13 30 111 30 291 1 116 -2 150 -15 168 -17
24 -58 30 -71 10z"/>
</g>
</svg>
