<?xml version="1.0" standalone="no"?>
<!DOCTYPE svg PUBLIC "-//W3C//DTD SVG 20010904//EN"
 "http://www.w3.org/TR/2001/REC-SVG-20010904/DTD/svg10.dtd">
<svg version="1.0" xmlns="http://www.w3.org/2000/svg"
 width="248.000000pt" height="248.000000pt" viewBox="0 0 248.000000 248.000000"
 preserveAspectRatio="xMidYMid meet">
<metadata>
Created by potrace 1.10, written by Peter Selinger 2001-2011
</metadata>
<g transform="translate(0.000000,248.000000) scale(0.100000,-0.100000)"
fill="#000000" stroke="none">
<path d="M1506 2358 c-13 -19 -16 -57 -16 -218 0 -219 6 -245 55 -245 49 0 55
26 55 245 0 213 -6 240 -55 240 -13 0 -31 -10 -39 -22z"/>
<path d="M565 1885 c-60 -8 -141 -20 -180 -28 -38 -8 -99 -18 -134 -22 -80 -9
-118 -39 -104 -83 4 -15 8 -253 8 -529 l0 -502 23 -23 c16 -16 33 -22 65 -22
71 1 347 24 437 37 75 11 86 15 97 37 7 17 15 168 23 450 15 509 12 652 -11
676 -23 22 -91 25 -224 9z m135 -298 l0 -203 -92 -12 c-51 -7 -118 -19 -148
-26 -30 -8 -85 -17 -122 -20 l-68 -7 0 108 c0 59 -3 151 -6 203 l-7 95 119 23
c115 23 223 38 292 41 l32 1 0 -203z m-10 -435 c0 -66 -3 -166 -6 -224 l-7
-106 -31 -6 c-17 -4 -96 -11 -176 -16 -80 -6 -160 -13 -179 -16 l-34 -7 6 213
c4 143 10 216 17 220 7 4 44 10 83 14 39 4 96 13 127 21 65 16 100 21 158 24
l42 1 0 -118z"/>
</g>
</svg>
