<?xml version="1.0" standalone="no"?>
<!DOCTYPE svg PUBLIC "-//W3C//DTD SVG 20010904//EN"
 "http://www.w3.org/TR/2001/REC-SVG-20010904/DTD/svg10.dtd">
<svg version="1.0" xmlns="http://www.w3.org/2000/svg"
 width="248.000000pt" height="248.000000pt" viewBox="0 0 248.000000 248.000000"
 preserveAspectRatio="xMidYMid meet">
<metadata>
Created by potrace 1.10, written by Peter Selinger 2001-2011
</metadata>
<g transform="translate(0.000000,248.000000) scale(0.100000,-0.100000)"
fill="#000000" stroke="none">
<path d="M1506 2358 c-13 -18 -16 -55 -16 -200 0 -176 0 -178 -22 -182 -13 -3
-81 -12 -153 -21 -234 -28 -275 -42 -275 -90 0 -38 23 -48 95 -40 50 5 66 4
70 -7 6 -15 23 -271 19 -277 -6 -7 -229 -41 -274 -41 -60 0 -94 -19 -98 -52
-6 -52 55 -69 169 -48 82 16 246 38 329 44 41 4 122 13 180 21 240 34 385 48
552 54 167 6 179 7 200 29 22 21 22 24 7 50 l-15 27 -185 -2 c-101 -1 -205 -6
-231 -11 -56 -11 -53 -18 -33 97 8 46 16 110 17 142 2 66 -10 58 128 79 93 15
122 32 118 68 -5 42 -34 50 -130 36 -158 -23 -254 -34 -306 -34 l-52 0 0 168
c0 183 -8 212 -55 212 -13 0 -31 -10 -39 -22z m226 -529 c-3 -70 -17 -156 -35
-206 -10 -30 -15 -33 -66 -39 -31 -3 -99 -12 -151 -20 -52 -8 -107 -14 -122
-14 -27 0 -28 2 -28 53 0 28 -5 94 -10 146 -6 52 -9 96 -7 98 10 9 386 53 412
48 6 -1 9 -29 7 -66z"/>
<path d="M565 1885 c-60 -8 -141 -20 -180 -28 -38 -8 -99 -18 -134 -22 -80 -9
-118 -39 -104 -83 4 -15 8 -253 8 -529 l0 -502 23 -23 c16 -16 33 -22 65 -22
71 1 347 24 437 37 75 11 86 15 97 37 7 17 15 168 23 450 15 509 12 652 -11
676 -23 22 -91 25 -224 9z m135 -298 l0 -203 -92 -12 c-51 -7 -118 -19 -148
-26 -30 -8 -85 -17 -122 -20 l-68 -7 0 108 c0 59 -3 151 -6 203 l-7 95 119 23
c115 23 223 38 292 41 l32 1 0 -203z m-10 -435 c0 -66 -3 -166 -6 -224 l-7
-106 -31 -6 c-17 -4 -96 -11 -176 -16 -80 -6 -160 -13 -179 -16 l-34 -7 6 213
c4 143 10 216 17 220 7 4 44 10 83 14 39 4 96 13 127 21 65 16 100 21 158 24
l42 1 0 -118z"/>
<path d="M1160 1185 c-22 -27 5 -898 29 -944 14 -26 45 -35 72 -21 21 12 21
13 14 268 -17 620 -19 669 -40 691 -21 25 -57 27 -75 6z"/>
</g>
</svg>
