<?xml version="1.0" standalone="no"?>
<!DOCTYPE svg PUBLIC "-//W3C//DTD SVG 20010904//EN"
 "http://www.w3.org/TR/2001/REC-SVG-20010904/DTD/svg10.dtd">
<svg version="1.0" xmlns="http://www.w3.org/2000/svg"
 width="248.000000pt" height="248.000000pt" viewBox="0 0 248.000000 248.000000"
 preserveAspectRatio="xMidYMid meet">
<metadata>
Created by potrace 1.10, written by Peter Selinger 2001-2011
</metadata>
<g transform="translate(0.000000,248.000000) scale(0.100000,-0.100000)"
fill="#000000" stroke="none">
<path d="M702 2198 c-6 -7 -42 -92 -80 -188 -127 -319 -291 -613 -427 -760
-55 -60 -67 -94 -43 -118 38 -38 106 15 208 161 40 56 49 64 56 50 5 -10 9
-260 9 -556 0 -514 1 -539 19 -549 12 -7 25 -7 41 0 22 10 23 18 30 144 4 73
5 333 3 578 -3 414 -4 448 -22 474 l-18 28 75 147 c86 166 227 508 227 549 0
16 -5 33 -12 40 -16 16 -53 15 -66 0z"/>
<path d="M1303 2128 c-6 -11 -14 -194 -17 -420 l-1 -47 -90 -5 c-322 -18 -441
-28 -452 -38 -16 -13 -17 -50 -1 -66 8 -8 45 -12 100 -12 65 0 88 -3 88 -13 0
-7 7 -64 15 -127 17 -134 41 -510 51 -793 7 -211 12 -232 58 -225 42 6 44 32
30 400 -15 428 -36 691 -60 751 -6 16 70 27 194 27 41 0 169 7 285 16 115 8
211 13 213 11 3 -2 -4 -65 -15 -138 -11 -74 -23 -163 -26 -199 -4 -36 -10 -92
-15 -125 -5 -33 -16 -123 -25 -200 -9 -77 -22 -185 -30 -240 -21 -144 -27
-228 -18 -241 16 -23 51 -26 71 -6 20 20 34 111 92 597 16 138 39 320 52 407
l22 156 36 6 c19 3 87 10 150 16 63 6 123 14 133 16 24 8 37 44 24 71 -12 27
-28 31 -92 22 -111 -16 -599 -59 -672 -59 l-21 0 5 209 c5 186 4 213 -11 235
-18 28 -59 35 -73 14z"/>
</g>
</svg>
