<?xml version="1.0" standalone="no"?>
<!DOCTYPE svg PUBLIC "-//W3C//DTD SVG 20010904//EN"
 "http://www.w3.org/TR/2001/REC-SVG-20010904/DTD/svg10.dtd">
<svg version="1.0" xmlns="http://www.w3.org/2000/svg"
 width="248.000000pt" height="248.000000pt" viewBox="0 0 248.000000 248.000000"
 preserveAspectRatio="xMidYMid meet">
<metadata>
Created by potrace 1.10, written by Peter Selinger 2001-2011
</metadata>
<g transform="translate(0.000000,248.000000) scale(0.100000,-0.100000)"
fill="#000000" stroke="none">
<path d="M565 1885 c-60 -8 -141 -20 -180 -28 -38 -8 -99 -18 -134 -22 -80 -9
-118 -39 -104 -83 4 -15 8 -252 8 -528 0 -539 0 -534 51 -534 14 0 30 10 40
25 14 22 16 81 17 518 l2 493 110 22 c98 20 260 42 308 42 15 0 17 -15 17
-167 0 -93 -5 -320 -11 -505 -12 -378 -10 -393 46 -393 22 0 33 7 42 25 8 17
15 166 23 450 15 509 12 652 -11 676 -23 22 -91 25 -224 9z"/>
</g>
</svg>
