<?xml version="1.0" standalone="no"?>
<!DOCTYPE svg PUBLIC "-//W3C//DTD SVG 20010904//EN"
 "http://www.w3.org/TR/2001/REC-SVG-20010904/DTD/svg10.dtd">
<svg version="1.0" xmlns="http://www.w3.org/2000/svg"
 width="248.000000pt" height="248.000000pt" viewBox="0 0 248.000000 248.000000"
 preserveAspectRatio="xMidYMid meet">
<metadata>
Created by potrace 1.10, written by Peter Selinger 2001-2011
</metadata>
<g transform="translate(0.000000,248.000000) scale(0.100000,-0.100000)"
fill="#000000" stroke="none">
<path d="M1580 2247 c-3 -2 -97 -7 -210 -10 -207 -6 -403 -25 -540 -52 -41 -8
-100 -17 -130 -21 -85 -10 -125 -47 -101 -91 19 -36 77 -406 86 -548 7 -108
21 -145 57 -145 12 0 31 9 42 19 16 15 53 23 151 36 72 9 138 18 148 21 15 5
17 -5 17 -110 l0 -114 -67 -7 c-154 -16 -265 -33 -273 -41 -4 -5 -9 -16 -10
-24 -9 -66 14 -75 146 -56 129 20 194 21 195 4 2 -53 -3 -239 -7 -263 l-5 -31
-167 -12 c-92 -7 -185 -17 -207 -22 -22 -5 -67 -10 -101 -10 -70 0 -96 -15
-96 -55 0 -56 45 -66 189 -41 45 8 155 20 244 26 90 6 166 13 169 15 4 2 82 9
176 15 195 13 437 15 554 5 66 -6 85 -4 105 9 29 19 33 57 9 77 -29 24 -317
32 -613 16 l-153 -9 5 44 c4 24 6 93 6 154 l1 111 123 16 c67 10 144 17 170
17 38 0 53 5 72 25 14 13 25 35 25 48 0 49 -15 51 -202 24 -95 -14 -175 -24
-178 -22 -3 2 -4 53 -2 113 l3 110 37 6 c20 3 91 8 157 11 66 3 140 8 164 11
36 5 45 2 58 -15 27 -40 85 -25 112 28 43 85 178 553 188 653 7 72 -13 81
-196 86 -80 2 -148 2 -151 -1z m234 -134 c-4 -16 -14 -54 -23 -87 -18 -66 6
-57 -191 -71 -52 -4 -140 -10 -195 -15 -55 -5 -121 -9 -147 -10 l-48 0 0 100
0 99 143 4 c78 1 215 4 305 5 l162 2 -6 -27z m-714 -93 c0 -72 -4 -102 -12
-105 -7 -2 -74 -11 -148 -19 -74 -8 -149 -18 -166 -22 l-31 -6 -15 94 c-8 51
-13 94 -13 96 4 7 260 49 373 61 9 1 12 -25 12 -99z m640 -175 c0 -14 -68
-234 -73 -236 -1 0 -104 -8 -229 -17 l-228 -17 0 121 0 122 48 6 c54 6 290 25
372 29 30 2 67 4 83 5 18 1 27 -3 27 -13z m-640 -160 c0 -69 -1 -125 -2 -125
-8 0 -238 -31 -268 -36 l-37 -6 -10 99 c-6 54 -14 106 -18 115 -11 27 44 47
173 62 64 8 127 14 140 15 22 1 22 -1 22 -124z"/>
<path d="M2062 578 c-23 -23 -12 -49 51 -122 62 -72 108 -135 170 -231 33 -52
65 -67 93 -45 24 21 15 62 -29 132 -115 182 -199 278 -243 278 -17 0 -35 -5
-42 -12z"/>
<path d="M1522 518 c-16 -16 -15 -44 3 -76 8 -15 36 -81 61 -147 25 -66 51
-126 56 -132 17 -22 56 -15 74 12 16 25 15 30 -41 175 -32 82 -65 156 -75 165
-20 18 -61 20 -78 3z"/>
<path d="M352 493 c-16 -15 -115 -232 -136 -300 -11 -33 10 -63 43 -63 16 0
33 6 39 13 5 6 39 79 75 160 68 154 73 185 32 201 -25 9 -31 8 -53 -11z"/>
<path d="M901 494 c-26 -19 -26 -13 9 -189 12 -60 27 -121 34 -135 16 -35 60
-39 80 -7 15 21 15 32 1 113 -23 128 -44 196 -67 217 -25 21 -28 21 -57 1z"/>
</g>
</svg>
