<?xml version="1.0" standalone="no"?>
<!DOCTYPE svg PUBLIC "-//W3C//DTD SVG 20010904//EN"
 "http://www.w3.org/TR/2001/REC-SVG-20010904/DTD/svg10.dtd">
<svg version="1.0" xmlns="http://www.w3.org/2000/svg"
 width="248.000000pt" height="248.000000pt" viewBox="0 0 248.000000 248.000000"
 preserveAspectRatio="xMidYMid meet">
<metadata>
Created by potrace 1.10, written by Peter Selinger 2001-2011
</metadata>
<g transform="translate(0.000000,248.000000) scale(0.100000,-0.100000)"
fill="#000000" stroke="none">
<path d="M1580 2247 c-3 -2 -97 -7 -210 -10 -207 -6 -403 -25 -540 -52 -41 -8
-100 -17 -130 -21 -85 -10 -125 -47 -101 -92 18 -33 73 -382 89 -564 5 -53 14
-104 22 -112 16 -21 54 -20 71 0 25 30 12 186 -40 494 -15 91 -27 166 -26 168
5 7 240 45 360 57 130 13 745 33 745 24 0 -2 -14 -56 -31 -119 -18 -63 -39
-145 -49 -181 -29 -110 -81 -262 -103 -297 -34 -57 4 -100 68 -76 9 4 24 23
34 43 43 85 178 553 188 653 7 72 -13 81 -196 86 -80 2 -148 2 -151 -1z"/>
</g>
</svg>
