<?xml version="1.0" standalone="no"?>
<!DOCTYPE svg PUBLIC "-//W3C//DTD SVG 20010904//EN"
 "http://www.w3.org/TR/2001/REC-SVG-20010904/DTD/svg10.dtd">
<svg version="1.0" xmlns="http://www.w3.org/2000/svg"
 width="248.000000pt" height="248.000000pt" viewBox="0 0 248.000000 248.000000"
 preserveAspectRatio="xMidYMid meet">
<metadata>
Created by potrace 1.10, written by Peter Selinger 2001-2011
</metadata>
<g transform="translate(0.000000,248.000000) scale(0.100000,-0.100000)"
fill="#000000" stroke="none">
<path d="M1580 2247 c-3 -2 -97 -7 -210 -10 -207 -6 -403 -25 -540 -52 -41 -8
-100 -17 -130 -21 -85 -10 -125 -47 -101 -91 19 -36 77 -406 86 -548 7 -108
21 -145 57 -145 12 0 31 9 42 19 21 19 54 25 381 66 61 7 169 16 240 20 72 3
147 8 168 11 32 5 41 2 53 -15 28 -40 86 -26 113 28 43 85 178 553 188 653 7
72 -13 81 -196 86 -80 2 -148 2 -151 -1z m234 -134 c-4 -16 -14 -54 -23 -87
l-16 -59 -50 -3 c-56 -4 -102 -7 -385 -29 -188 -14 -502 -48 -566 -61 l-31 -6
-15 94 c-8 51 -13 94 -13 96 3 5 222 43 310 53 102 12 391 25 633 27 l162 2
-6 -27z m-74 -268 c0 -9 -16 -65 -35 -125 l-36 -109 -42 -5 c-23 -3 -114 -11
-202 -16 -193 -13 -422 -38 -595 -66 l-37 -6 -10 99 c-6 54 -14 106 -18 115
-16 40 82 58 500 94 151 13 326 26 448 32 18 2 27 -3 27 -13z"/>
</g>
</svg>
