<?xml version="1.0" standalone="no"?>
<!DOCTYPE svg PUBLIC "-//W3C//DTD SVG 20010904//EN"
 "http://www.w3.org/TR/2001/REC-SVG-20010904/DTD/svg10.dtd">
<svg version="1.0" xmlns="http://www.w3.org/2000/svg"
 width="248.000000pt" height="248.000000pt" viewBox="0 0 248.000000 248.000000"
 preserveAspectRatio="xMidYMid meet">
<metadata>
Created by potrace 1.10, written by Peter Selinger 2001-2011
</metadata>
<g transform="translate(0.000000,248.000000) scale(0.100000,-0.100000)"
fill="#000000" stroke="none">
<path d="M1580 2247 c-3 -2 -97 -7 -210 -10 -207 -6 -403 -25 -540 -52 -41 -8
-100 -17 -130 -21 -85 -10 -125 -47 -101 -92 18 -33 73 -382 89 -564 9 -103
20 -128 57 -128 38 0 49 25 47 108 -2 84 -17 218 -27 244 -11 28 45 47 187 63
124 14 390 38 553 50 237 16 235 16 235 0 0 -28 -81 -269 -102 -303 -35 -57 3
-100 67 -76 9 4 24 23 34 43 43 85 178 553 188 653 7 72 -13 81 -196 86 -80 2
-148 2 -151 -1z m234 -134 c-4 -16 -14 -54 -23 -87 l-16 -59 -50 -3 c-56 -4
-102 -7 -385 -29 -188 -14 -502 -48 -566 -61 l-31 -6 -15 94 c-8 51 -13 94
-13 96 3 5 222 43 310 53 102 12 391 25 633 27 l162 2 -6 -27z"/>
</g>
</svg>
