<?xml version="1.0" standalone="no"?>
<!DOCTYPE svg PUBLIC "-//W3C//DTD SVG 20010904//EN"
 "http://www.w3.org/TR/2001/REC-SVG-20010904/DTD/svg10.dtd">
<svg version="1.0" xmlns="http://www.w3.org/2000/svg"
 width="248.000000pt" height="248.000000pt" viewBox="0 0 248.000000 248.000000"
 preserveAspectRatio="xMidYMid meet">
<metadata>
Created by potrace 1.10, written by Peter Selinger 2001-2011
</metadata>
<g transform="translate(0.000000,248.000000) scale(0.100000,-0.100000)"
fill="#000000" stroke="none">
<path d="M1690 2070 c-178 -25 -237 -32 -350 -45 -69 -8 -161 -19 -205 -24
-44 -6 -179 -13 -300 -17 -121 -4 -226 -11 -232 -17 -18 -13 -16 -52 2 -67 21
-17 508 -7 670 14 66 9 161 21 210 27 50 6 99 12 110 14 11 1 63 8 115 15 106
14 140 29 140 63 0 47 -32 54 -160 37z"/>
<path d="M1730 1699 c-58 -4 -177 -10 -265 -13 -223 -9 -430 -27 -640 -56 -38
-5 -117 -12 -175 -15 -113 -6 -150 -20 -150 -57 0 -12 10 -32 22 -45 18 -20
26 -55 49 -211 16 -103 28 -215 28 -249 1 -97 20 -127 74 -115 42 9 41 57 -7
402 -13 91 -22 168 -19 173 2 4 32 7 66 7 34 0 94 5 132 11 175 25 451 48 690
59 143 6 272 13 287 15 15 2 30 0 33 -5 5 -8 -68 -244 -146 -471 -10 -31 -19
-65 -19 -76 0 -42 53 -58 83 -25 17 19 195 550 204 607 9 62 -44 76 -247 64z"/>
</g>
</svg>
