<?xml version="1.0" standalone="no"?>
<!DOCTYPE svg PUBLIC "-//W3C//DTD SVG 20010904//EN"
 "http://www.w3.org/TR/2001/REC-SVG-20010904/DTD/svg10.dtd">
<svg version="1.0" xmlns="http://www.w3.org/2000/svg"
 width="248.000000pt" height="248.000000pt" viewBox="0 0 248.000000 248.000000"
 preserveAspectRatio="xMidYMid meet">
<metadata>
Created by potrace 1.10, written by Peter Selinger 2001-2011
</metadata>
<g transform="translate(0.000000,248.000000) scale(0.100000,-0.100000)"
fill="#000000" stroke="none">
<path d="M1690 2070 c-178 -25 -237 -32 -350 -45 -69 -8 -161 -19 -205 -24
-44 -6 -179 -13 -300 -17 -121 -4 -226 -11 -232 -17 -18 -13 -16 -52 2 -67 21
-17 508 -7 670 14 66 9 161 21 210 27 50 6 99 12 110 14 11 1 63 8 115 15 106
14 140 29 140 63 0 47 -32 54 -160 37z"/>
<path d="M1730 1699 c-58 -4 -177 -10 -265 -13 -223 -9 -430 -27 -640 -56 -38
-5 -117 -12 -175 -15 -113 -6 -150 -20 -150 -57 0 -12 10 -32 22 -45 18 -20
26 -55 49 -211 16 -103 28 -215 28 -249 1 -34 6 -74 11 -88 10 -25 13 -27 53
-21 23 4 170 13 327 21 157 8 380 21 497 30 117 9 221 14 232 10 12 -4 28 2
45 17 21 18 45 81 117 303 50 154 94 294 96 310 9 62 -44 76 -247 64z m124
-97 c6 -10 -41 -169 -52 -176 -4 -2 -136 -12 -292 -20 -157 -9 -361 -23 -455
-31 -93 -8 -219 -16 -280 -17 l-110 -3 -11 75 c-7 41 -10 78 -7 83 2 4 32 7
66 7 34 0 94 5 132 11 177 25 453 49 700 59 149 6 275 13 280 15 17 6 24 5 29
-3z m-84 -287 c0 -3 -6 -21 -14 -40 -8 -19 -22 -62 -31 -97 -8 -34 -20 -65
-26 -69 -6 -3 -47 -7 -92 -8 -45 -1 -131 -6 -192 -11 -221 -19 -699 -40 -707
-32 -15 15 -28 186 -14 194 6 4 45 8 86 8 41 0 131 5 200 10 69 5 202 14 295
21 94 6 215 14 270 18 126 10 225 13 225 6z"/>
</g>
</svg>
