<?xml version="1.0" standalone="no"?>
<!DOCTYPE svg PUBLIC "-//W3C//DTD SVG 20010904//EN"
 "http://www.w3.org/TR/2001/REC-SVG-20010904/DTD/svg10.dtd">
<svg version="1.0" xmlns="http://www.w3.org/2000/svg"
 width="248.000000pt" height="248.000000pt" viewBox="0 0 248.000000 248.000000"
 preserveAspectRatio="xMidYMid meet">
<metadata>
Created by potrace 1.10, written by Peter Selinger 2001-2011
</metadata>
<g transform="translate(0.000000,248.000000) scale(0.100000,-0.100000)"
fill="#000000" stroke="none">
<path d="M392 2278 c-20 -20 -13 -53 22 -99 44 -59 73 -117 107 -218 l29 -83
-41 -47 c-57 -66 -334 -326 -396 -372 -37 -28 -53 -47 -53 -62 0 -47 45 -61
102 -31 31 16 171 142 335 302 l93 90 8 -32 c5 -17 24 -107 43 -199 27 -136
31 -171 21 -185 -7 -9 -20 -33 -28 -52 -9 -19 -41 -68 -72 -110 -30 -41 -65
-88 -77 -105 -43 -58 -228 -261 -311 -340 -46 -44 -84 -85 -84 -91 0 -7 8 -22
18 -34 14 -17 25 -21 43 -17 59 15 299 263 446 461 41 55 79 103 84 104 16 6
11 -445 -6 -539 -27 -142 -113 -379 -138 -379 -5 0 -25 14 -44 30 -38 33 -64
38 -87 14 -28 -27 -18 -56 35 -105 60 -55 91 -64 139 -41 63 31 153 240 197
457 22 110 25 461 6 678 -12 136 -71 449 -98 528 l-14 40 81 97 c44 53 86 102
92 107 28 24 98 139 103 170 7 41 -9 65 -42 65 -25 0 -42 -17 -78 -80 -21 -36
-132 -175 -187 -233 -4 -5 -16 15 -25 45 -26 77 -82 186 -123 236 -36 44 -75
55 -100 30z"/>
<path d="M2139 2056 c-10 -11 -499 -80 -709 -101 -270 -27 -300 -35 -300 -80
0 -46 52 -62 143 -46 34 6 127 18 207 27 352 37 706 94 748 120 24 16 29 53
10 72 -11 11 -89 17 -99 8z"/>
</g>
</svg>
