<?xml version="1.0" standalone="no"?>
<!DOCTYPE svg PUBLIC "-//W3C//DTD SVG 20010904//EN"
 "http://www.w3.org/TR/2001/REC-SVG-20010904/DTD/svg10.dtd">
<svg version="1.0" xmlns="http://www.w3.org/2000/svg"
 width="248.000000pt" height="248.000000pt" viewBox="0 0 248.000000 248.000000"
 preserveAspectRatio="xMidYMid meet">
<metadata>
Created by potrace 1.10, written by Peter Selinger 2001-2011
</metadata>
<g transform="translate(0.000000,248.000000) scale(0.100000,-0.100000)"
fill="#000000" stroke="none">
<path d="M868 2263 c-8 -10 -27 -39 -42 -64 -72 -125 -540 -611 -714 -740 -36
-28 -52 -47 -52 -62 0 -54 53 -62 121 -18 86 56 480 445 598 591 29 36 58 70
65 75 7 6 31 38 55 73 46 68 61 123 41 147 -17 20 -53 19 -72 -2z"/>
</g>
</svg>
