<?xml version="1.0" standalone="no"?>
<!DOCTYPE svg PUBLIC "-//W3C//DTD SVG 20010904//EN"
 "http://www.w3.org/TR/2001/REC-SVG-20010904/DTD/svg10.dtd">
<svg version="1.0" xmlns="http://www.w3.org/2000/svg"
 width="248.000000pt" height="248.000000pt" viewBox="0 0 248.000000 248.000000"
 preserveAspectRatio="xMidYMid meet">
<metadata>
Created by potrace 1.10, written by Peter Selinger 2001-2011
</metadata>
<g transform="translate(0.000000,248.000000) scale(0.100000,-0.100000)"
fill="#000000" stroke="none">
<path d="M1900 2242 c-102 -5 -654 -55 -790 -71 -47 -6 -143 -15 -215 -21
-234 -20 -320 -31 -342 -46 -27 -17 -30 -56 -7 -75 18 -15 41 -15 199 1 61 6
162 15 225 20 63 4 144 13 180 18 36 6 112 13 170 17 58 3 130 10 160 15 30 6
149 16 263 24 230 16 261 25 255 73 -4 35 -33 49 -98 45z"/>
</g>
</svg>
