<?xml version="1.0" standalone="no"?>
<!DOCTYPE svg PUBLIC "-//W3C//DTD SVG 20010904//EN"
 "http://www.w3.org/TR/2001/REC-SVG-20010904/DTD/svg10.dtd">
<svg version="1.0" xmlns="http://www.w3.org/2000/svg"
 width="248.000000pt" height="248.000000pt" viewBox="0 0 248.000000 248.000000"
 preserveAspectRatio="xMidYMid meet">
<metadata>
Created by potrace 1.10, written by Peter Selinger 2001-2011
</metadata>
<g transform="translate(0.000000,248.000000) scale(0.100000,-0.100000)"
fill="#000000" stroke="none">
<path d="M1656 2388 c-8 -13 -17 -43 -21 -68 -15 -104 -4 -95 -113 -108 -53
-7 -153 -17 -222 -22 -69 -6 -149 -15 -179 -20 -80 -15 -201 -13 -205 3 -2 6
-9 46 -15 87 -12 79 -31 110 -66 110 -43 0 -50 -22 -36 -126 7 -53 11 -97 9
-98 -2 -2 -55 -8 -118 -15 -130 -14 -163 -28 -158 -69 4 -39 39 -52 118 -42
36 5 92 10 125 12 l59 3 9 -35 c32 -124 39 -141 63 -156 20 -14 30 -15 50 -5
23 10 25 16 21 49 -2 20 -12 63 -21 95 -9 32 -16 60 -16 62 0 3 19 5 43 5 23
0 69 5 102 10 33 6 137 17 230 25 94 9 194 18 224 22 l54 6 -6 -29 c-3 -16
-14 -57 -24 -92 -20 -70 -13 -95 29 -100 35 -4 52 21 83 123 15 50 31 94 35
98 4 4 60 12 124 17 129 10 166 24 166 65 0 44 -26 51 -151 43 -62 -4 -115 -5
-117 -3 -3 2 1 32 7 66 9 53 8 67 -4 86 -20 30 -60 30 -79 1z"/>
<path d="M1545 1840 c-114 -10 -333 -27 -610 -46 -250 -17 -281 -23 -292 -50
-15 -41 56 -571 83 -611 19 -30 69 -31 84 -3 8 15 7 42 -4 104 -26 136 -27
132 52 144 149 23 580 52 779 52 l81 0 -5 -42 c-2 -24 -14 -87 -25 -140 -20
-91 -20 -99 -4 -123 10 -15 26 -25 40 -25 44 0 47 9 91 270 14 80 32 179 41
222 20 93 15 211 -10 236 -19 19 -162 25 -301 12z m215 -150 c0 -27 -5 -71
-11 -98 l-10 -49 -197 -7 c-240 -9 -447 -24 -708 -52 l-62 -7 -5 29 c-3 16 -9
59 -12 96 -8 81 -27 73 215 88 200 12 429 29 545 40 44 4 117 8 163 9 l82 1 0
-50z"/>
</g>
</svg>
