<?xml version="1.0" standalone="no"?>
<!DOCTYPE svg PUBLIC "-//W3C//DTD SVG 20010904//EN"
 "http://www.w3.org/TR/2001/REC-SVG-20010904/DTD/svg10.dtd">
<svg version="1.0" xmlns="http://www.w3.org/2000/svg"
 width="248.000000pt" height="248.000000pt" viewBox="0 0 248.000000 248.000000"
 preserveAspectRatio="xMidYMid meet">
<metadata>
Created by potrace 1.10, written by Peter Selinger 2001-2011
</metadata>
<g transform="translate(0.000000,248.000000) scale(0.100000,-0.100000)"
fill="#000000" stroke="none">
<path d="M2000 2251 c-19 -5 -96 -14 -170 -20 -74 -6 -191 -18 -260 -26 -69
-9 -187 -20 -263 -25 -76 -5 -175 -14 -220 -20 -193 -24 -369 -40 -443 -40
-56 0 -86 -5 -102 -16 -30 -21 -29 -59 4 -80 21 -15 42 -16 139 -10 63 3 147
10 187 16 163 21 492 54 803 80 251 21 423 44 438 59 12 12 12 60 0 72 -14 14
-73 19 -113 10z"/>
</g>
</svg>
