<?xml version="1.0" standalone="no"?>
<!DOCTYPE svg PUBLIC "-//W3C//DTD SVG 20010904//EN"
 "http://www.w3.org/TR/2001/REC-SVG-20010904/DTD/svg10.dtd">
<svg version="1.0" xmlns="http://www.w3.org/2000/svg"
 width="248.000000pt" height="248.000000pt" viewBox="0 0 248.000000 248.000000"
 preserveAspectRatio="xMidYMid meet">
<metadata>
Created by potrace 1.10, written by Peter Selinger 2001-2011
</metadata>
<g transform="translate(0.000000,248.000000) scale(0.100000,-0.100000)"
fill="#000000" stroke="none">
<path d="M1783 2358 c-6 -7 -18 -35 -27 -63 -9 -27 -20 -55 -24 -60 -8 -13
-238 -42 -432 -55 -74 -5 -169 -15 -210 -21 -41 -6 -91 -9 -110 -7 -33 3 -34
5 -51 71 -20 80 -34 99 -68 95 -42 -5 -53 -41 -34 -116 9 -35 13 -65 10 -68
-3 -3 -65 -8 -139 -11 -89 -3 -140 -10 -155 -19 -31 -20 -30 -59 2 -80 22 -15
42 -16 148 -9 67 4 135 8 151 9 27 1 30 -3 47 -62 21 -75 33 -92 65 -92 47 0
60 49 32 127 -7 18 -10 35 -7 37 9 9 137 26 369 47 129 12 257 24 284 26 47 5
48 4 41 -18 -4 -13 -19 -44 -34 -69 -40 -69 -43 -80 -26 -106 38 -58 89 -16
149 121 19 42 40 81 47 86 8 5 32 9 55 9 22 0 85 7 140 15 105 16 130 30 118
69 -13 44 -35 48 -179 29 -44 -6 -83 -8 -87 -4 -4 3 -3 23 1 43 11 47 -6 82
-40 86 -14 2 -30 -3 -36 -10z"/>
<path d="M1260 1939 c-88 -82 -166 -142 -218 -168 -24 -12 -46 -29 -49 -37 -3
-9 1 -57 10 -107 9 -51 23 -146 32 -211 9 -65 20 -127 25 -137 23 -42 90 -29
90 17 0 37 -39 350 -46 367 -4 10 11 26 43 48 58 40 189 152 220 188 38 44 26
102 -21 101 -12 -1 -50 -28 -86 -61z"/>
</g>
</svg>
