<?xml version="1.0" standalone="no"?>
<!DOCTYPE svg PUBLIC "-//W3C//DTD SVG 20010904//EN"
 "http://www.w3.org/TR/2001/REC-SVG-20010904/DTD/svg10.dtd">
<svg version="1.0" xmlns="http://www.w3.org/2000/svg"
 width="248.000000pt" height="248.000000pt" viewBox="0 0 248.000000 248.000000"
 preserveAspectRatio="xMidYMid meet">
<metadata>
Created by potrace 1.10, written by Peter Selinger 2001-2011
</metadata>
<g transform="translate(0.000000,248.000000) scale(0.100000,-0.100000)"
fill="#000000" stroke="none">
<path d="M833 2308 c-20 -26 -21 -47 -6 -107 9 -34 13 -64 10 -67 -3 -3 -65
-8 -139 -11 -89 -3 -140 -10 -155 -19 -31 -20 -30 -59 2 -80 22 -15 42 -16
148 -9 67 4 135 8 151 9 27 1 30 -3 47 -62 21 -75 33 -92 65 -92 47 0 60 49
32 127 -7 18 -10 35 -7 37 11 12 322 46 649 72 174 14 334 32 447 50 39 6 57
33 44 67 -12 31 -49 41 -115 28 -28 -5 -109 -14 -181 -20 -71 -7 -186 -18
-255 -26 -69 -9 -188 -20 -265 -25 -77 -5 -174 -15 -215 -21 -41 -6 -91 -9
-110 -7 -33 3 -34 5 -51 71 -9 37 -22 74 -29 82 -15 18 -54 20 -67 3z"/>
</g>
</svg>
