<?xml version="1.0" standalone="no"?>
<!DOCTYPE svg PUBLIC "-//W3C//DTD SVG 20010904//EN"
 "http://www.w3.org/TR/2001/REC-SVG-20010904/DTD/svg10.dtd">
<svg version="1.0" xmlns="http://www.w3.org/2000/svg"
 width="248.000000pt" height="248.000000pt" viewBox="0 0 248.000000 248.000000"
 preserveAspectRatio="xMidYMid meet">
<metadata>
Created by potrace 1.10, written by Peter Selinger 2001-2011
</metadata>
<g transform="translate(0.000000,248.000000) scale(0.100000,-0.100000)"
fill="#000000" stroke="none">
<path d="M456 2348 c-13 -19 -16 -60 -16 -249 l0 -226 -102 -12 c-187 -23
-228 -39 -228 -86 0 -45 20 -49 158 -31 70 9 134 18 143 20 21 4 29 -106 29
-405 l0 -217 -126 -43 c-69 -24 -134 -52 -145 -62 -34 -32 -19 -87 24 -87 11
0 69 18 129 40 61 23 112 40 113 38 2 -2 5 -146 7 -320 1 -174 0 -314 -3 -310
-4 4 -34 42 -68 85 -61 77 -76 86 -112 67 -29 -16 -23 -59 16 -110 75 -98 127
-174 150 -221 14 -26 34 -53 46 -59 29 -16 68 -4 79 24 5 13 6 212 3 458 l-6
435 39 13 c21 7 72 26 112 42 81 33 100 62 67 98 -24 27 -37 25 -128 -11 -43
-17 -79 -30 -81 -28 -2 2 -6 137 -9 300 l-6 296 102 17 c149 26 171 35 175 72
5 52 -15 60 -116 44 -48 -7 -102 -15 -119 -18 l-33 -4 0 214 c0 232 -5 258
-55 258 -13 0 -31 -10 -39 -22z"/>
<path d="M1840 2178 c-273 -38 -576 -79 -630 -84 -36 -3 -75 -13 -87 -20 -30
-19 -30 -59 0 -79 24 -16 99 -9 437 40 58 9 146 20 195 25 50 5 125 16 169 23
l78 14 -7 -95 c-4 -52 -11 -108 -16 -126 -13 -44 -11 -100 3 -114 16 -16 53
-15 71 2 19 19 45 157 53 282 6 95 5 103 -15 123 -18 18 -32 21 -103 20 -46
-1 -112 -6 -148 -11z"/>
</g>
</svg>
