<?xml version="1.0" standalone="no"?>
<!DOCTYPE svg PUBLIC "-//W3C//DTD SVG 20010904//EN"
 "http://www.w3.org/TR/2001/REC-SVG-20010904/DTD/svg10.dtd">
<svg version="1.0" xmlns="http://www.w3.org/2000/svg"
 width="248.000000pt" height="248.000000pt" viewBox="0 0 248.000000 248.000000"
 preserveAspectRatio="xMidYMid meet">
<metadata>
Created by potrace 1.10, written by Peter Selinger 2001-2011
</metadata>
<g transform="translate(0.000000,248.000000) scale(0.100000,-0.100000)"
fill="#000000" stroke="none">
<path d="M750 2099 c-102 -21 -230 -48 -285 -59 -190 -38 -317 -69 -331 -81
-23 -19 -13 -62 17 -76 21 -10 40 -9 110 8 46 11 138 31 204 44 66 13 152 31
190 39 39 8 132 27 208 42 118 24 141 31 154 51 13 19 13 29 5 48 -16 34 -44
32 -272 -16z"/>
</g>
</svg>
