<?xml version="1.0" standalone="no"?>
<!DOCTYPE svg PUBLIC "-//W3C//DTD SVG 20010904//EN"
 "http://www.w3.org/TR/2001/REC-SVG-20010904/DTD/svg10.dtd">
<svg version="1.0" xmlns="http://www.w3.org/2000/svg"
 width="248.000000pt" height="248.000000pt" viewBox="0 0 248.000000 248.000000"
 preserveAspectRatio="xMidYMid meet">
<metadata>
Created by potrace 1.10, written by Peter Selinger 2001-2011
</metadata>
<g transform="translate(0.000000,248.000000) scale(0.100000,-0.100000)"
fill="#000000" stroke="none">
<path d="M456 2348 c-13 -19 -16 -60 -16 -249 l0 -226 -102 -12 c-187 -23
-228 -39 -228 -86 0 -45 20 -49 158 -31 70 9 134 18 143 20 21 4 29 -106 29
-405 l0 -217 -126 -43 c-69 -24 -134 -52 -145 -62 -34 -32 -19 -87 24 -87 11
0 69 18 129 40 61 23 112 40 113 38 2 -2 5 -146 7 -320 1 -174 0 -314 -3 -310
-4 4 -34 42 -68 85 -61 77 -76 86 -112 67 -29 -16 -23 -59 16 -110 75 -98 127
-174 150 -221 14 -26 34 -53 46 -59 29 -16 68 -4 79 24 5 13 6 212 3 458 l-6
435 39 13 c21 7 72 26 112 42 81 33 100 62 67 98 -24 27 -37 25 -128 -11 -43
-17 -79 -30 -81 -28 -2 2 -6 137 -9 300 l-6 296 102 17 c149 26 171 35 175 72
5 52 -15 60 -116 44 -48 -7 -102 -15 -119 -18 l-33 -4 0 214 c0 232 -5 258
-55 258 -13 0 -31 -10 -39 -22z"/>
<path d="M1840 2178 c-291 -41 -513 -71 -610 -82 -166 -20 -156 -3 -163 -308
-4 -196 -9 -263 -26 -348 -12 -58 -29 -142 -37 -188 -8 -46 -23 -109 -34 -140
-11 -31 -27 -86 -36 -122 -8 -36 -23 -92 -34 -125 -104 -326 -143 -442 -160
-475 -26 -52 -25 -76 5 -96 23 -15 27 -15 49 -1 13 9 33 37 46 64 31 66 200
596 200 627 0 6 13 54 29 106 27 87 83 357 97 472 l7 47 56 6 c76 8 157 20
341 50 85 13 218 32 295 40 139 16 175 27 194 62 16 31 40 175 47 279 6 95 5
103 -15 123 -18 18 -32 21 -103 20 -46 -1 -112 -6 -148 -11z m156 -165 c-9
-124 -25 -193 -45 -193 -34 0 -202 -21 -321 -41 -261 -41 -307 -48 -378 -55
l-73 -6 3 133 3 133 130 17 c72 10 180 25 240 34 61 8 153 20 205 26 76 8 218
31 239 38 2 0 1 -38 -3 -86z"/>
<path d="M1546 1518 c-14 -20 -16 -93 -16 -593 0 -438 3 -576 13 -595 17 -34
60 -39 81 -8 14 20 16 87 16 598 0 626 1 620 -55 620 -13 0 -31 -10 -39 -22z"/>
</g>
</svg>
