<?xml version="1.0" standalone="no"?>
<!DOCTYPE svg PUBLIC "-//W3C//DTD SVG 20010904//EN"
 "http://www.w3.org/TR/2001/REC-SVG-20010904/DTD/svg10.dtd">
<svg version="1.0" xmlns="http://www.w3.org/2000/svg"
 width="248.000000pt" height="248.000000pt" viewBox="0 0 248.000000 248.000000"
 preserveAspectRatio="xMidYMid meet">
<metadata>
Created by potrace 1.10, written by Peter Selinger 2001-2011
</metadata>
<g transform="translate(0.000000,248.000000) scale(0.100000,-0.100000)"
fill="#000000" stroke="none">
<path d="M456 2348 c-13 -19 -16 -60 -16 -249 l0 -227 -67 -7 c-126 -13 -225
-34 -244 -51 -23 -21 -25 -57 -4 -74 16 -13 34 -11 251 19 l51 8 7 -90 c3 -50
6 -190 6 -313 l0 -223 -62 -20 c-115 -37 -186 -66 -207 -85 -36 -33 -22 -86
22 -86 11 0 69 18 129 40 61 23 112 40 113 38 2 -2 5 -147 7 -323 l3 -320 -60
79 c-72 95 -84 104 -119 88 -41 -18 -35 -60 17 -124 66 -82 113 -152 141 -207
14 -28 35 -55 47 -61 29 -16 68 -4 79 24 5 13 6 212 3 458 l-6 434 91 33 c133
47 169 83 124 124 -25 23 -35 22 -125 -14 -43 -17 -79 -30 -81 -28 -2 2 -6
137 -9 300 l-7 296 108 18 c145 24 172 36 172 73 0 51 -19 58 -118 42 -48 -7
-102 -15 -119 -18 l-33 -4 0 214 c0 232 -5 258 -55 258 -13 0 -31 -10 -39 -22z"/>
<path d="M1899 2186 c-2 -2 -65 -11 -139 -20 -74 -9 -164 -20 -200 -26 -36 -5
-150 -20 -254 -34 -159 -20 -192 -28 -210 -46 -20 -19 -21 -34 -27 -268 -6
-209 -11 -266 -32 -372 -14 -69 -31 -154 -37 -190 -7 -36 -20 -90 -31 -120
-11 -30 -26 -84 -35 -120 -8 -36 -23 -92 -34 -125 -105 -328 -143 -442 -161
-476 -24 -47 -22 -76 6 -95 30 -20 64 1 91 57 33 65 204 599 204 636 0 7 11
46 25 86 14 39 32 108 40 152 8 44 23 125 34 180 11 55 23 123 27 152 l6 52
57 6 c76 8 157 20 341 50 85 13 218 32 295 40 139 16 175 27 193 62 18 34 41
169 48 274 6 100 5 108 -15 128 -18 18 -33 21 -104 21 -46 0 -86 -2 -88 -4z
m97 -173 c-4 -49 -12 -111 -18 -140 l-11 -51 -71 -7 c-73 -7 -246 -32 -446
-65 -63 -10 -150 -22 -193 -25 l-78 -7 3 134 3 133 125 16 c278 35 672 91 689
98 2 0 0 -38 -3 -86z"/>
<path d="M1549 1524 c-11 -13 -15 -67 -17 -245 -3 -204 -5 -229 -20 -233 -9
-3 -56 -10 -103 -15 -47 -5 -97 -13 -112 -16 l-27 -7 0 134 c0 146 -10 178
-55 178 -46 0 -55 -31 -55 -185 0 -205 17 -243 99 -232 20 3 70 10 111 15 41
6 94 13 118 17 l42 8 -2 -289 -3 -289 -80 -8 c-44 -4 -124 -16 -177 -26 l-98
-18 0 136 c0 109 -3 141 -16 159 -21 31 -64 26 -81 -8 -15 -30 -18 -316 -3
-355 15 -40 51 -48 139 -30 123 26 351 48 781 76 96 6 180 15 185 21 6 5 9 85
7 211 -4 224 -10 251 -60 245 -45 -5 -53 -36 -51 -208 2 -126 -1 -155 -12
-157 -8 -1 -95 -7 -194 -13 -99 -6 -190 -13 -202 -16 l-23 -4 0 293 0 294 83
11 c45 6 126 17 181 23 147 19 142 10 138 226 -2 110 -8 188 -15 203 -17 36
-61 39 -83 5 -15 -23 -16 -44 -10 -175 4 -83 3 -150 -1 -150 -22 0 -242 -29
-266 -35 l-27 -7 0 213 c0 152 -4 221 -13 239 -15 31 -58 38 -78 14z"/>
</g>
</svg>
