<?xml version="1.0" standalone="no"?>
<!DOCTYPE svg PUBLIC "-//W3C//DTD SVG 20010904//EN"
 "http://www.w3.org/TR/2001/REC-SVG-20010904/DTD/svg10.dtd">
<svg version="1.0" xmlns="http://www.w3.org/2000/svg"
 width="248.000000pt" height="248.000000pt" viewBox="0 0 248.000000 248.000000"
 preserveAspectRatio="xMidYMid meet">
<metadata>
Created by potrace 1.10, written by Peter Selinger 2001-2011
</metadata>
<g transform="translate(0.000000,248.000000) scale(0.100000,-0.100000)"
fill="#000000" stroke="none">
<path d="M699 2314 c-10 -12 -15 -51 -17 -123 l-4 -107 -66 -13 c-37 -8 -81
-16 -98 -18 l-31 -5 -5 111 c-5 119 -18 151 -63 151 -40 0 -45 -17 -45 -156
l0 -132 -97 -21 c-54 -12 -109 -27 -123 -34 -35 -18 -39 -61 -7 -82 23 -15 32
-14 128 8 l104 24 5 -105 c5 -96 7 -105 30 -124 20 -16 34 -19 67 -14 l43 6 0
-40 c0 -22 -1 -40 -3 -40 -15 0 -273 -54 -313 -66 -86 -25 -89 -31 -75 -191
18 -213 28 -223 205 -203 61 7 126 16 144 20 l32 8 0 -82 0 -83 -132 -23 c-73
-13 -163 -26 -199 -29 -36 -3 -73 -12 -82 -20 -25 -20 -21 -58 8 -77 29 -19
72 -17 240 15 61 11 121 21 135 21 l25 0 -8 -157 c-5 -87 -9 -263 -10 -391 -2
-221 -1 -234 17 -248 25 -18 37 -18 62 0 17 13 19 29 21 128 1 62 8 241 15
396 l12 284 24 9 c22 8 105 23 277 49 111 17 135 28 135 65 0 39 -23 48 -103
42 -65 -5 -191 -24 -290 -42 l-37 -7 0 84 0 85 73 12 c39 7 95 16 122 21 28 5
71 11 97 15 97 13 115 54 119 268 2 140 -2 153 -55 162 -29 6 -296 -28 -332
-42 -11 -4 -14 4 -14 35 l0 40 53 12 c28 7 60 19 69 27 22 20 38 97 38 188 0
84 -13 73 118 100 40 8 82 19 92 25 25 13 34 44 20 70 -13 24 -47 25 -140 5
-96 -21 -90 -26 -90 68 0 46 -6 93 -13 107 -15 31 -58 38 -78 14z m-21 -416
l-3 -81 -55 -13 c-30 -6 -72 -15 -92 -18 l-38 -7 0 80 0 79 78 17 c42 9 82 18
87 20 6 2 14 4 18 4 4 1 7 -36 5 -81z m242 -446 l0 -109 -136 -22 c-74 -12
-142 -25 -151 -28 -13 -5 -15 -2 -10 18 4 13 7 65 7 115 l0 92 123 20 c187 30
167 40 167 -86z m-400 -59 c0 -54 -4 -104 -8 -110 -9 -14 -234 -48 -256 -40
-16 6 -31 176 -17 190 9 9 218 54 259 56 21 1 22 -2 22 -96z"/>
<path d="M1433 2228 c-6 -7 -18 -38 -28 -68 -10 -30 -38 -94 -62 -142 -23 -48
-43 -89 -43 -92 0 -9 -152 -264 -199 -335 -68 -101 -75 -131 -37 -156 35 -23
54 -10 112 81 l49 76 3 -48 c2 -27 -1 -229 -7 -449 -16 -598 -15 -905 5 -933
18 -26 56 -29 75 -5 14 17 14 1 33 1252 l6 375 28 50 c49 88 119 239 138 295
15 48 16 57 3 80 -16 29 -60 40 -76 19z"/>
<path d="M1602 2218 c-6 -8 -16 -277 -27 -678 -10 -366 -21 -782 -25 -925 -10
-346 1 -395 98 -453 l47 -27 230 0 c305 0 395 18 416 82 16 49 8 295 -10 317
-19 23 -68 21 -81 -3 -5 -11 -10 -76 -10 -144 0 -109 -2 -126 -17 -132 -10 -5
-123 -10 -251 -13 -176 -3 -240 -1 -263 9 -57 23 -59 39 -48 405 5 181 12 443
16 581 6 253 6 253 30 268 65 43 401 351 425 390 21 34 23 76 6 93 -24 24 -54
12 -100 -41 -36 -42 -236 -227 -331 -306 -17 -15 -18 -4 -15 266 3 264 2 282
-16 302 -21 23 -58 28 -74 9z"/>
</g>
</svg>
