<?xml version="1.0" standalone="no"?>
<!DOCTYPE svg PUBLIC "-//W3C//DTD SVG 20010904//EN"
 "http://www.w3.org/TR/2001/REC-SVG-20010904/DTD/svg10.dtd">
<svg version="1.0" xmlns="http://www.w3.org/2000/svg"
 width="248.000000pt" height="248.000000pt" viewBox="0 0 248.000000 248.000000"
 preserveAspectRatio="xMidYMid meet">
<metadata>
Created by potrace 1.10, written by Peter Selinger 2001-2011
</metadata>
<g transform="translate(0.000000,248.000000) scale(0.100000,-0.100000)"
fill="#000000" stroke="none">
<path d="M696 2308 c-12 -17 -16 -48 -16 -123 l0 -101 -62 -13 c-35 -7 -79
-16 -99 -20 l-36 -8 -5 114 c-6 122 -18 153 -63 153 -40 0 -45 -17 -45 -156
l0 -133 -97 -21 c-128 -28 -148 -38 -148 -75 0 -51 33 -58 150 -31 l100 23 5
-105 c5 -96 7 -105 30 -124 20 -16 34 -19 67 -14 l43 6 0 -40 c0 -22 -1 -40
-2 -40 -18 0 -270 -53 -311 -65 -90 -26 -92 -30 -78 -197 18 -208 28 -217 206
-198 61 7 125 16 143 20 l32 8 0 -82 0 -82 -157 -27 c-87 -15 -174 -27 -193
-27 -70 0 -107 -60 -58 -94 29 -21 73 -20 188 4 52 11 123 23 158 26 63 7 63
7 58 -17 -9 -44 -29 -573 -25 -667 3 -78 7 -96 23 -108 25 -18 37 -18 62 0 16
12 19 28 21 118 1 57 8 235 14 396 11 249 15 294 28 302 9 4 52 13 96 19 163
24 297 51 313 63 17 14 15 53 -3 68 -19 16 -120 9 -284 -19 -74 -13 -127 -18
-130 -12 -3 5 -5 42 -3 84 l3 74 72 12 c127 22 171 30 219 36 97 13 115 54
119 268 2 155 -2 162 -89 162 -54 0 -266 -29 -297 -41 -12 -5 -15 3 -15 34 0
44 2 45 72 57 20 4 44 15 52 24 20 22 36 106 36 192 0 77 -11 69 123 95 72 14
92 22 104 41 13 19 14 29 5 48 -14 30 -43 32 -142 10 -96 -21 -90 -26 -90 73
0 98 -14 132 -55 132 -13 0 -31 -10 -39 -22z m-18 -410 l-3 -81 -55 -13 c-30
-6 -72 -15 -92 -18 l-38 -7 0 80 0 79 78 17 c42 9 82 18 87 20 6 2 14 4 18 4
4 1 7 -36 5 -81z m242 -446 l0 -109 -136 -22 c-74 -12 -142 -25 -151 -28 -13
-5 -15 -2 -10 18 4 13 7 65 7 115 l0 92 123 20 c187 30 167 40 167 -86z m-400
-66 c0 -58 -4 -107 -10 -111 -15 -9 -239 -38 -253 -32 -16 6 -32 176 -18 190
8 8 221 55 259 56 21 1 22 -2 22 -103z"/>
<path d="M1431 2226 c-6 -7 -18 -37 -27 -66 -31 -105 -184 -391 -303 -569 -68
-101 -75 -131 -37 -156 41 -27 52 -16 164 165 118 190 197 335 262 485 27 64
32 107 14 133 -17 25 -56 29 -73 8z"/>
</g>
</svg>
