<?xml version="1.0" standalone="no"?>
<!DOCTYPE svg PUBLIC "-//W3C//DTD SVG 20010904//EN"
 "http://www.w3.org/TR/2001/REC-SVG-20010904/DTD/svg10.dtd">
<svg version="1.0" xmlns="http://www.w3.org/2000/svg"
 width="248.000000pt" height="248.000000pt" viewBox="0 0 248.000000 248.000000"
 preserveAspectRatio="xMidYMid meet">
<metadata>
Created by potrace 1.10, written by Peter Selinger 2001-2011
</metadata>
<g transform="translate(0.000000,248.000000) scale(0.100000,-0.100000)"
fill="#000000" stroke="none">
<path d="M696 2308 c-12 -17 -16 -48 -16 -123 l0 -101 -62 -13 c-35 -7 -79
-16 -99 -20 l-36 -8 -5 114 c-6 122 -18 153 -63 153 -40 0 -45 -17 -45 -156
l0 -133 -97 -21 c-128 -28 -148 -38 -148 -75 0 -51 33 -58 150 -31 l100 23 5
-105 c8 -157 15 -160 255 -110 55 11 108 28 117 37 22 20 38 102 38 192 0 77
-11 69 123 95 72 14 92 22 104 41 13 19 14 29 5 48 -14 30 -43 32 -142 10 -96
-21 -90 -26 -90 73 0 98 -14 132 -55 132 -13 0 -31 -10 -39 -22z m-18 -410
l-3 -81 -55 -13 c-30 -6 -72 -15 -92 -18 l-38 -7 0 80 0 79 78 17 c42 9 82 18
87 20 6 2 14 4 18 4 4 1 7 -36 5 -81z"/>
<path d="M840 1658 c-330 -59 -594 -111 -636 -124 -87 -25 -89 -30 -75 -196
18 -207 28 -217 201 -198 58 6 137 18 175 25 125 25 275 50 412 71 92 13 111
56 114 267 2 106 -1 131 -14 144 -20 20 -101 25 -177 11z m80 -207 l0 -108
-102 -17 c-57 -9 -152 -25 -213 -36 -173 -31 -334 -53 -348 -47 -16 6 -32 176
-19 189 14 14 587 124 660 127 22 1 22 -1 22 -108z"/>
</g>
</svg>
