<?xml version="1.0" standalone="no"?>
<!DOCTYPE svg PUBLIC "-//W3C//DTD SVG 20010904//EN"
 "http://www.w3.org/TR/2001/REC-SVG-20010904/DTD/svg10.dtd">
<svg version="1.0" xmlns="http://www.w3.org/2000/svg"
 width="248.000000pt" height="248.000000pt" viewBox="0 0 248.000000 248.000000"
 preserveAspectRatio="xMidYMid meet">
<metadata>
Created by potrace 1.10, written by Peter Selinger 2001-2011
</metadata>
<g transform="translate(0.000000,248.000000) scale(0.100000,-0.100000)"
fill="#000000" stroke="none">
<path d="M510 2330 c-28 -28 -25 -43 13 -86 32 -38 170 -134 191 -134 6 0 22
-9 36 -20 34 -27 66 -25 86 5 24 37 10 62 -59 97 -82 41 -145 84 -183 125 -36
38 -56 41 -84 13z"/>
<path d="M798 1865 c-5 -6 -218 -35 -398 -56 -52 -6 -127 -8 -167 -5 -64 6
-74 5 -93 -14 -25 -25 -25 -45 -1 -69 18 -18 31 -19 158 -14 76 2 185 11 243
18 58 8 130 17 160 20 177 20 236 48 211 101 -9 21 -18 24 -59 24 -27 0 -51
-2 -54 -5z"/>
<path d="M679 1455 c-9 -8 -316 -45 -374 -45 -83 0 -120 -45 -74 -91 23 -23 5
-23 298 12 180 22 205 29 220 58 15 27 14 37 -5 55 -15 15 -55 22 -65 11z"/>
</g>
</svg>
