<?xml version="1.0" standalone="no"?>
<!DOCTYPE svg PUBLIC "-//W3C//DTD SVG 20010904//EN"
 "http://www.w3.org/TR/2001/REC-SVG-20010904/DTD/svg10.dtd">
<svg version="1.0" xmlns="http://www.w3.org/2000/svg"
 width="248.000000pt" height="248.000000pt" viewBox="0 0 248.000000 248.000000"
 preserveAspectRatio="xMidYMid meet">
<metadata>
Created by potrace 1.10, written by Peter Selinger 2001-2011
</metadata>
<g transform="translate(0.000000,248.000000) scale(0.100000,-0.100000)"
fill="#000000" stroke="none">
<path d="M1124 2333 c-16 -18 -158 -220 -250 -358 -174 -259 -483 -602 -647
-719 -57 -40 -67 -52 -67 -77 0 -37 33 -55 72 -40 43 16 197 152 341 301 151
155 312 364 520 673 32 48 63 87 68 87 5 0 15 -12 21 -27 16 -35 123 -177 202
-266 88 -100 445 -419 586 -524 92 -68 130 -90 255 -144 96 -41 124 -50 145
-42 20 7 25 15 25 43 l0 34 -140 63 c-181 82 -247 132 -620 466 -163 145 -314
322 -380 445 -30 56 -76 102 -101 102 -8 0 -21 -8 -30 -17z"/>
<path d="M1070 1555 c-9 -11 -9 -29 1 -85 10 -56 10 -125 1 -333 -7 -144 -14
-345 -17 -447 -3 -102 -8 -202 -11 -222 -5 -35 -8 -37 -47 -42 -241 -28 -320
-35 -328 -30 -5 3 -9 129 -9 280 0 263 -1 275 -21 295 -34 34 -98 -1 -83 -46
9 -25 18 -498 10 -529 -5 -21 -16 -24 -143 -40 -181 -23 -183 -23 -192 -48
-21 -57 13 -82 91 -68 92 17 508 69 633 80 66 5 138 13 160 16 22 3 130 9 240
13 189 7 430 -4 720 -35 48 -5 63 -3 74 9 19 24 9 60 -21 75 -63 30 -265 45
-628 46 l-355 1 3 150 c1 83 5 190 9 238 7 105 2 101 143 112 52 3 176 15 275
26 157 17 182 22 198 40 21 26 22 43 0 64 -17 18 -54 17 -218 -5 -38 -5 -128
-14 -200 -20 -71 -6 -142 -13 -157 -16 l-28 -6 0 245 c0 232 -1 246 -21 271
-23 29 -60 34 -79 11z"/>
</g>
</svg>
