<?xml version="1.0" standalone="no"?>
<!DOCTYPE svg PUBLIC "-//W3C//DTD SVG 20010904//EN"
 "http://www.w3.org/TR/2001/REC-SVG-20010904/DTD/svg10.dtd">
<svg version="1.0" xmlns="http://www.w3.org/2000/svg"
 width="248.000000pt" height="248.000000pt" viewBox="0 0 248.000000 248.000000"
 preserveAspectRatio="xMidYMid meet">
<metadata>
Created by potrace 1.10, written by Peter Selinger 2001-2011
</metadata>
<g transform="translate(0.000000,248.000000) scale(0.100000,-0.100000)"
fill="#000000" stroke="none">
<path d="M710 2136 c-6 -8 -15 -39 -19 -68 -9 -56 -71 -361 -75 -365 -1 -2
-49 -12 -107 -23 -57 -11 -135 -27 -174 -35 -38 -8 -84 -15 -100 -15 -67 0
-101 -63 -52 -95 29 -18 58 -15 255 25 168 35 166 35 157 13 -4 -10 -15 -61
-24 -113 -18 -98 -31 -140 -109 -370 -47 -139 -130 -342 -208 -508 -46 -98
-52 -130 -32 -150 17 -17 53 -15 70 6 34 38 183 370 242 540 82 238 123 366
130 417 13 83 39 190 50 201 11 10 206 47 319 60 65 7 63 11 47 -90 -27 -176
-40 -271 -50 -361 -14 -122 -24 -179 -56 -315 -48 -201 -166 -520 -193 -520
-5 0 -24 27 -42 60 -51 96 -121 144 -157 108 -21 -21 -13 -55 24 -100 19 -24
57 -79 83 -123 43 -74 50 -80 81 -82 43 -3 57 7 103 79 85 134 216 540 246
768 7 47 18 135 26 195 22 166 34 254 46 320 21 124 12 171 -36 177 -29 4
-156 -11 -270 -32 -150 -27 -155 -28 -155 -18 0 5 15 78 32 161 35 165 40 226
19 251 -17 20 -55 21 -71 2z"/>
<path d="M1980 1800 c-89 -10 -360 -38 -479 -49 -94 -9 -115 -24 -126 -84 -3
-18 -5 -304 -3 -635 l3 -604 24 -19 c28 -23 45 -24 65 -3 14 14 16 84 16 623
l0 608 41 7 c37 6 195 22 439 46 52 5 133 9 179 10 l84 0 -6 -237 c-3 -131
-10 -269 -16 -308 -5 -38 -15 -142 -21 -230 -6 -88 -18 -222 -26 -298 -13
-108 -13 -144 -4 -167 22 -52 85 -44 94 12 7 43 43 435 57 608 6 74 14 182 19
240 14 166 12 385 -3 423 -24 55 -39 62 -156 64 -58 0 -140 -3 -181 -7z"/>
</g>
</svg>
