<?xml version="1.0" standalone="no"?>
<!DOCTYPE svg PUBLIC "-//W3C//DTD SVG 20010904//EN"
 "http://www.w3.org/TR/2001/REC-SVG-20010904/DTD/svg10.dtd">
<svg version="1.0" xmlns="http://www.w3.org/2000/svg"
 width="248.000000pt" height="248.000000pt" viewBox="0 0 248.000000 248.000000"
 preserveAspectRatio="xMidYMid meet">
<metadata>
Created by potrace 1.10, written by Peter Selinger 2001-2011
</metadata>
<g transform="translate(0.000000,248.000000) scale(0.100000,-0.100000)"
fill="#000000" stroke="none">
<path d="M710 2136 c-6 -8 -15 -39 -19 -68 -9 -56 -71 -361 -75 -365 -1 -2
-49 -12 -107 -23 -57 -11 -135 -27 -174 -35 -38 -8 -84 -15 -100 -15 -67 0
-101 -63 -52 -95 29 -18 58 -15 255 25 168 35 166 35 157 13 -4 -10 -15 -61
-24 -113 -18 -98 -31 -140 -109 -370 -47 -139 -130 -342 -208 -508 -46 -98
-52 -130 -32 -150 17 -17 53 -15 70 6 34 38 183 370 242 540 82 238 123 366
130 417 13 83 39 190 50 201 11 10 206 47 319 60 65 7 63 11 47 -90 -27 -176
-40 -271 -50 -361 -14 -122 -24 -179 -56 -315 -48 -201 -166 -520 -193 -520
-5 0 -24 27 -42 60 -51 96 -121 144 -157 108 -21 -21 -13 -55 24 -100 19 -24
57 -79 83 -123 43 -74 50 -80 81 -82 43 -3 57 7 103 79 85 134 216 540 246
768 7 47 18 135 26 195 22 166 34 254 46 320 21 124 12 171 -36 177 -29 4
-156 -11 -270 -32 -150 -27 -155 -28 -155 -18 0 5 15 78 32 161 35 165 40 226
19 251 -17 20 -55 21 -71 2z"/>
<path d="M1980 1800 c-87 -10 -358 -38 -476 -49 -44 -4 -87 -11 -93 -16 -39
-24 -41 -54 -41 -663 0 -324 3 -604 6 -621 11 -54 31 -59 189 -50 77 4 246 8
374 9 269 2 296 7 305 62 7 43 43 434 57 608 6 74 14 182 19 240 14 166 12
385 -3 423 -24 55 -39 62 -156 64 -58 0 -140 -3 -181 -7z m237 -332 c-3 -128
-10 -271 -16 -318 -6 -47 -20 -195 -31 -330 -11 -135 -23 -257 -27 -273 l-5
-27 -157 0 c-86 0 -234 -3 -328 -7 l-173 -6 0 565 0 565 41 7 c36 6 223 26
429 46 41 4 120 8 174 8 l99 2 -6 -232z"/>
</g>
</svg>
