<?xml version="1.0" standalone="no"?>
<!DOCTYPE svg PUBLIC "-//W3C//DTD SVG 20010904//EN"
 "http://www.w3.org/TR/2001/REC-SVG-20010904/DTD/svg10.dtd">
<svg version="1.0" xmlns="http://www.w3.org/2000/svg"
 width="248.000000pt" height="248.000000pt" viewBox="0 0 248.000000 248.000000"
 preserveAspectRatio="xMidYMid meet">
<metadata>
Created by potrace 1.10, written by Peter Selinger 2001-2011
</metadata>
<g transform="translate(0.000000,248.000000) scale(0.100000,-0.100000)"
fill="#000000" stroke="none">
<path d="M510 2330 c-28 -28 -25 -43 13 -86 32 -38 170 -134 191 -134 6 0 22
-9 36 -20 34 -27 66 -25 86 5 24 37 10 62 -59 97 -82 41 -145 84 -183 125 -36
38 -56 41 -84 13z"/>
<path d="M1944 2258 c-12 -13 -54 -75 -95 -138 -40 -63 -104 -147 -141 -187
-38 -40 -68 -79 -68 -87 0 -8 -4 -17 -9 -20 -21 -14 -410 -55 -464 -49 -64 6
-87 -5 -87 -43 0 -64 112 -70 476 -24 331 42 451 66 471 97 14 21 14 25 -1 48
-20 30 -27 30 -151 5 -54 -11 -100 -18 -103 -15 -3 2 7 14 21 25 31 25 225
313 234 348 13 54 -45 82 -83 40z"/>
<path d="M1142 2178 c-20 -20 -14 -47 21 -95 17 -25 59 -97 92 -161 48 -91 66
-118 84 -120 32 -5 51 15 51 53 0 40 -110 252 -156 302 -33 34 -70 43 -92 21z"/>
<path d="M798 1865 c-5 -6 -218 -35 -398 -56 -52 -6 -127 -8 -167 -5 -64 6
-74 5 -93 -14 -25 -25 -25 -45 -1 -69 18 -18 31 -19 158 -14 76 2 185 11 243
18 58 8 130 17 160 20 177 20 236 48 211 101 -9 21 -18 24 -59 24 -27 0 -51
-2 -54 -5z"/>
<path d="M1959 1516 c-2 -3 -61 -12 -129 -21 -363 -46 -621 -77 -674 -79 -65
-3 -91 -23 -80 -60 11 -37 35 -48 94 -43 91 8 396 45 545 66 77 11 172 23 210
27 39 3 80 12 93 20 24 16 30 55 9 72 -15 13 -61 25 -68 18z"/>
<path d="M679 1455 c-9 -8 -316 -45 -374 -45 -83 0 -120 -45 -74 -91 23 -23 5
-23 298 12 180 22 205 29 220 58 15 27 14 37 -5 55 -15 15 -55 22 -65 11z"/>
<path d="M610 1120 c-19 -4 -69 -16 -110 -25 -41 -9 -119 -18 -174 -20 -102
-3 -109 -6 -120 -42 -12 -38 24 -63 92 -63 114 1 372 50 405 78 21 19 22 46 1
66 -17 17 -38 18 -94 6z"/>
<path d="M1505 1053 c-62 -6 -389 -51 -493 -69 -52 -8 -107 -12 -122 -9 -21 5
-34 1 -49 -14 -27 -27 -26 -46 0 -72 27 -27 53 -25 389 25 332 49 581 62 857
46 267 -16 264 -16 280 6 17 23 16 35 -1 60 -12 16 -32 20 -118 25 -108 7
-674 8 -743 2z"/>
<path d="M615 764 c-77 -7 -180 -18 -229 -25 -49 -7 -111 -13 -139 -13 -42 -1
-53 -5 -71 -29 l-21 -28 22 -37 c22 -39 36 -131 49 -320 9 -132 21 -152 85
-134 24 6 103 17 174 22 267 23 250 11 275 178 10 68 30 167 44 222 48 182 46
184 -189 164z m84 -166 c-11 -40 -26 -118 -34 -172 -8 -54 -18 -103 -23 -108
-10 -10 -299 -31 -312 -23 -4 2 -8 32 -9 67 -1 35 -6 101 -11 148 -6 47 -10
92 -10 101 0 12 20 18 98 28 127 16 238 28 284 30 l36 1 -19 -72z"/>
</g>
</svg>
