<?xml version="1.0" standalone="no"?>
<!DOCTYPE svg PUBLIC "-//W3C//DTD SVG 20010904//EN"
 "http://www.w3.org/TR/2001/REC-SVG-20010904/DTD/svg10.dtd">
<svg version="1.0" xmlns="http://www.w3.org/2000/svg"
 width="248.000000pt" height="248.000000pt" viewBox="0 0 248.000000 248.000000"
 preserveAspectRatio="xMidYMid meet">
<metadata>
Created by potrace 1.10, written by Peter Selinger 2001-2011
</metadata>
<g transform="translate(0.000000,248.000000) scale(0.100000,-0.100000)"
fill="#000000" stroke="none">
<path d="M510 2330 c-28 -28 -25 -43 13 -86 32 -38 170 -134 191 -134 6 0 22
-9 36 -20 34 -27 66 -25 86 5 24 37 10 62 -59 97 -82 41 -145 84 -183 125 -36
38 -56 41 -84 13z"/>
<path d="M798 1865 c-5 -6 -218 -35 -398 -56 -52 -6 -127 -8 -167 -5 -64 6
-74 5 -93 -14 -25 -25 -25 -45 -1 -69 18 -18 31 -19 158 -14 76 2 185 11 243
18 58 8 130 17 160 20 177 20 236 48 211 101 -9 21 -18 24 -59 24 -27 0 -51
-2 -54 -5z"/>
<path d="M679 1455 c-9 -8 -316 -45 -374 -45 -83 0 -120 -45 -74 -91 23 -23 5
-23 298 12 180 22 205 29 220 58 15 27 14 37 -5 55 -15 15 -55 22 -65 11z"/>
<path d="M610 1120 c-19 -4 -69 -16 -110 -25 -41 -9 -119 -18 -174 -20 -102
-3 -109 -6 -120 -42 -12 -38 24 -63 92 -63 114 1 372 50 405 78 21 19 22 46 1
66 -17 17 -38 18 -94 6z"/>
<path d="M615 764 c-77 -7 -180 -18 -229 -25 -49 -7 -111 -13 -139 -13 -42 -1
-53 -5 -71 -29 l-21 -28 22 -37 c22 -39 36 -131 48 -317 8 -115 22 -148 63
-143 37 4 55 43 42 89 -6 19 -10 62 -10 96 0 34 -5 108 -11 163 -6 56 -9 103
-7 104 4 4 240 33 340 42 l76 6 -23 -92 c-34 -132 -52 -304 -35 -324 18 -23
57 -20 74 6 8 13 19 64 26 113 6 50 25 143 41 207 16 65 29 129 29 142 0 50
-31 55 -215 40z"/>
</g>
</svg>
