<?xml version="1.0" standalone="no"?>
<!DOCTYPE svg PUBLIC "-//W3C//DTD SVG 20010904//EN"
 "http://www.w3.org/TR/2001/REC-SVG-20010904/DTD/svg10.dtd">
<svg version="1.0" xmlns="http://www.w3.org/2000/svg"
 width="248.000000pt" height="248.000000pt" viewBox="0 0 248.000000 248.000000"
 preserveAspectRatio="xMidYMid meet">
<metadata>
Created by potrace 1.10, written by Peter Selinger 2001-2011
</metadata>
<g transform="translate(0.000000,248.000000) scale(0.100000,-0.100000)"
fill="#000000" stroke="none">
<path d="M1124 2333 c-16 -18 -158 -220 -250 -358 -174 -259 -483 -602 -647
-719 -57 -40 -67 -52 -67 -77 0 -37 33 -55 72 -40 43 16 197 152 341 301 151
155 312 364 520 673 32 48 63 87 68 87 5 0 15 -12 21 -27 16 -35 123 -177 202
-266 88 -100 445 -419 586 -524 92 -68 130 -90 255 -144 96 -41 124 -50 145
-42 20 7 25 15 25 43 l0 34 -140 63 c-181 82 -247 132 -620 466 -163 145 -314
322 -380 445 -30 56 -76 102 -101 102 -8 0 -21 -8 -30 -17z"/>
</g>
</svg>
