<?xml version="1.0" standalone="no"?>
<!DOCTYPE svg PUBLIC "-//W3C//DTD SVG 20010904//EN"
 "http://www.w3.org/TR/2001/REC-SVG-20010904/DTD/svg10.dtd">
<svg version="1.0" xmlns="http://www.w3.org/2000/svg"
 width="248.000000pt" height="248.000000pt" viewBox="0 0 248.000000 248.000000"
 preserveAspectRatio="xMidYMid meet">
<metadata>
Created by potrace 1.10, written by Peter Selinger 2001-2011
</metadata>
<g transform="translate(0.000000,248.000000) scale(0.100000,-0.100000)"
fill="#000000" stroke="none">
<path d="M1835 2344 c-22 -8 -606 -74 -800 -89 -44 -3 -110 -11 -148 -16 -37
-5 -133 -11 -215 -15 -81 -3 -157 -7 -169 -10 -39 -8 -46 -38 -26 -102 16 -52
18 -106 17 -647 0 -556 -8 -784 -35 -1107 -10 -114 -10 -131 5 -153 21 -32 60
-33 80 -3 8 13 16 65 20 118 20 303 27 426 36 715 6 175 13 321 15 323 2 2 48
10 102 18 54 8 118 19 143 24 41 10 154 25 585 79 88 11 196 25 241 31 131 16
126 18 119 -37 -14 -104 -46 -281 -61 -342 -18 -72 -13 -105 17 -121 16 -9 26
-8 43 4 18 11 28 35 44 108 22 97 56 297 66 383 12 104 -20 141 -108 124 -26
-5 -94 -13 -150 -19 -55 -5 -168 -19 -251 -30 -82 -12 -240 -32 -349 -46 -109
-13 -202 -27 -206 -29 -8 -5 -201 -35 -223 -35 -11 0 -15 55 -21 283 -4 155
-11 298 -15 318 l-8 35 236 23 c490 47 640 62 787 81 83 11 194 23 248 28 101
10 136 26 136 63 0 34 -28 49 -88 48 -31 0 -61 -2 -67 -5z"/>
</g>
</svg>
