<?xml version="1.0" standalone="no"?>
<!DOCTYPE svg PUBLIC "-//W3C//DTD SVG 20010904//EN"
 "http://www.w3.org/TR/2001/REC-SVG-20010904/DTD/svg10.dtd">
<svg version="1.0" xmlns="http://www.w3.org/2000/svg"
 width="248.000000pt" height="248.000000pt" viewBox="0 0 248.000000 248.000000"
 preserveAspectRatio="xMidYMid meet">
<metadata>
Created by potrace 1.10, written by Peter Selinger 2001-2011
</metadata>
<g transform="translate(0.000000,248.000000) scale(0.100000,-0.100000)"
fill="#000000" stroke="none">
<path d="M480 2195 c-8 -9 -10 -30 -6 -57 21 -152 27 -393 22 -832 -6 -460
-12 -635 -37 -939 -10 -122 -9 -140 5 -162 21 -32 61 -33 80 -3 13 22 17 55
36 363 35 542 37 1391 4 1538 -9 40 -23 80 -32 90 -19 21 -55 22 -72 2z"/>
</g>
</svg>
