<?xml version="1.0" standalone="no"?>
<!DOCTYPE svg PUBLIC "-//W3C//DTD SVG 20010904//EN"
 "http://www.w3.org/TR/2001/REC-SVG-20010904/DTD/svg10.dtd">
<svg version="1.0" xmlns="http://www.w3.org/2000/svg"
 width="248.000000pt" height="248.000000pt" viewBox="0 0 248.000000 248.000000"
 preserveAspectRatio="xMidYMid meet">
<metadata>
Created by potrace 1.10, written by Peter Selinger 2001-2011
</metadata>
<g transform="translate(0.000000,248.000000) scale(0.100000,-0.100000)"
fill="#000000" stroke="none">
<path d="M1835 2344 c-22 -8 -606 -74 -800 -89 -44 -3 -110 -11 -148 -16 -37
-5 -133 -11 -215 -15 -81 -3 -157 -7 -169 -10 -39 -8 -46 -38 -26 -102 16 -52
18 -106 17 -647 0 -556 -8 -784 -35 -1107 -10 -114 -10 -131 5 -153 19 -29 57
-33 77 -8 15 18 22 81 39 393 6 113 14 230 18 260 l7 55 150 6 c217 9 584 37
700 54 55 7 154 19 220 26 73 7 126 17 136 26 23 20 81 292 103 488 12 104
-20 141 -108 124 -26 -5 -94 -13 -150 -19 -55 -5 -168 -19 -251 -30 -82 -12
-240 -32 -349 -46 -109 -13 -202 -27 -206 -29 -8 -5 -201 -35 -223 -35 -11 0
-15 55 -21 283 -4 155 -11 298 -15 318 l-8 35 236 23 c490 47 640 62 787 81
83 11 194 23 248 28 101 10 136 26 136 63 0 34 -28 49 -88 48 -31 0 -61 -2
-67 -5z m-31 -876 c-12 -96 -52 -313 -62 -339 -10 -25 -14 -26 -234 -52 -122
-14 -268 -29 -323 -32 -55 -3 -154 -10 -220 -15 -66 -5 -176 -11 -244 -13
l-123 -4 7 171 c4 94 8 173 10 174 2 2 48 10 102 18 54 8 118 19 143 24 41 10
113 19 580 79 85 11 187 24 225 29 39 5 87 10 108 10 l38 2 -7 -52z"/>
</g>
</svg>
