<?xml version="1.0" standalone="no"?>
<!DOCTYPE svg PUBLIC "-//W3C//DTD SVG 20010904//EN"
 "http://www.w3.org/TR/2001/REC-SVG-20010904/DTD/svg10.dtd">
<svg version="1.0" xmlns="http://www.w3.org/2000/svg"
 width="248.000000pt" height="248.000000pt" viewBox="0 0 248.000000 248.000000"
 preserveAspectRatio="xMidYMid meet">
<metadata>
Created by potrace 1.10, written by Peter Selinger 2001-2011
</metadata>
<g transform="translate(0.000000,248.000000) scale(0.100000,-0.100000)"
fill="#000000" stroke="none">
<path d="M1835 2344 c-22 -8 -606 -74 -800 -89 -44 -3 -110 -11 -148 -16 -37
-5 -133 -11 -215 -15 -81 -3 -157 -7 -169 -10 -39 -8 -46 -38 -26 -102 16 -52
18 -106 17 -647 0 -556 -8 -784 -35 -1107 -10 -114 -10 -131 5 -153 21 -32 60
-33 80 -3 13 22 17 55 36 363 30 467 37 1395 11 1505 l-8 36 236 23 c490 47
640 62 787 81 83 11 194 23 248 28 101 10 136 26 136 63 0 34 -28 49 -88 48
-31 0 -61 -2 -67 -5z"/>
</g>
</svg>
