<?xml version="1.0" standalone="no"?>
<!DOCTYPE svg PUBLIC "-//W3C//DTD SVG 20010904//EN"
 "http://www.w3.org/TR/2001/REC-SVG-20010904/DTD/svg10.dtd">
<svg version="1.0" xmlns="http://www.w3.org/2000/svg"
 width="248.000000pt" height="248.000000pt" viewBox="0 0 248.000000 248.000000"
 preserveAspectRatio="xMidYMid meet">
<metadata>
Created by potrace 1.10, written by Peter Selinger 2001-2011
</metadata>
<g transform="translate(0.000000,248.000000) scale(0.100000,-0.100000)"
fill="#000000" stroke="none">
<path d="M1229 2323 c-11 -12 -15 -68 -19 -221 l-5 -206 -155 -22 c-85 -13
-207 -28 -270 -35 -63 -6 -125 -18 -138 -26 -31 -19 -27 -63 8 -80 28 -15 33
-15 331 28 113 16 211 29 218 29 8 0 10 -68 5 -269 -6 -243 -5 -272 10 -295
21 -33 59 -34 80 -4 13 18 16 60 17 228 1 113 4 239 8 280 l6 75 265 38 c156
22 274 44 288 53 25 17 29 56 7 74 -19 16 -70 11 -345 -29 -113 -17 -208 -31
-212 -31 -5 0 -8 87 -8 193 0 158 -3 197 -16 215 -18 26 -56 29 -75 5z"/>
</g>
</svg>
