<?xml version="1.0" standalone="no"?>
<!DOCTYPE svg PUBLIC "-//W3C//DTD SVG 20010904//EN"
 "http://www.w3.org/TR/2001/REC-SVG-20010904/DTD/svg10.dtd">
<svg version="1.0" xmlns="http://www.w3.org/2000/svg"
 width="248.000000pt" height="248.000000pt" viewBox="0 0 248.000000 248.000000"
 preserveAspectRatio="xMidYMid meet">
<metadata>
Created by potrace 1.10, written by Peter Selinger 2001-2011
</metadata>
<g transform="translate(0.000000,248.000000) scale(0.100000,-0.100000)"
fill="#000000" stroke="none">
<path d="M1703 1965 c-39 -8 -161 -25 -270 -40 -109 -14 -292 -39 -408 -55
-115 -16 -244 -32 -285 -35 -91 -9 -122 -25 -118 -63 4 -35 41 -54 93 -48 61
8 537 73 855 117 173 24 294 46 307 55 25 16 30 53 11 72 -15 15 -92 14 -185
-3z"/>
</g>
</svg>
