<?xml version="1.0" standalone="no"?>
<!DOCTYPE svg PUBLIC "-//W3C//DTD SVG 20010904//EN"
 "http://www.w3.org/TR/2001/REC-SVG-20010904/DTD/svg10.dtd">
<svg version="1.0" xmlns="http://www.w3.org/2000/svg"
 width="248.000000pt" height="248.000000pt" viewBox="0 0 248.000000 248.000000"
 preserveAspectRatio="xMidYMid meet">
<metadata>
Created by potrace 1.10, written by Peter Selinger 2001-2011
</metadata>
<g transform="translate(0.000000,248.000000) scale(0.100000,-0.100000)"
fill="#000000" stroke="none">
<path d="M1922 2319 c-72 -88 -103 -121 -165 -174 -39 -33 -79 -72 -90 -87
-19 -25 -19 -28 -3 -52 30 -47 57 -35 196 93 131 120 175 192 138 229 -19 19
-56 14 -76 -9z"/>
<path d="M1140 2235 c-19 -23 -7 -70 47 -180 53 -109 81 -135 118 -111 25 17
31 51 12 79 -7 12 -31 60 -52 107 -21 47 -44 93 -53 103 -19 21 -55 22 -72 2z"/>
<path d="M562 2188 c-16 -16 -15 -58 1 -77 7 -9 34 -50 60 -91 64 -104 109
-150 145 -150 43 0 60 63 25 91 -9 8 -46 59 -81 114 -35 55 -71 106 -80 113
-20 15 -54 16 -70 0z"/>
<path d="M2055 1913 c-114 -14 -331 -45 -336 -49 -4 -2 -89 -13 -190 -24 -176
-20 -275 -33 -614 -80 -82 -12 -206 -25 -275 -30 -232 -18 -290 -35 -290 -85
0 -44 19 -48 152 -35 143 14 383 42 588 69 282 38 376 50 485 61 61 6 128 15
150 20 59 13 236 38 342 48 99 10 123 21 123 57 0 46 -38 60 -135 48z"/>
</g>
</svg>
