<?xml version="1.0" standalone="no"?>
<!DOCTYPE svg PUBLIC "-//W3C//DTD SVG 20010904//EN"
 "http://www.w3.org/TR/2001/REC-SVG-20010904/DTD/svg10.dtd">
<svg version="1.0" xmlns="http://www.w3.org/2000/svg"
 width="248.000000pt" height="248.000000pt" viewBox="0 0 248.000000 248.000000"
 preserveAspectRatio="xMidYMid meet">
<metadata>
Created by potrace 1.10, written by Peter Selinger 2001-2011
</metadata>
<g transform="translate(0.000000,248.000000) scale(0.100000,-0.100000)"
fill="#000000" stroke="none">
<path d="M1760 2255 c-52 -7 -140 -16 -195 -19 -213 -15 -592 -47 -655 -56
-36 -5 -110 -10 -166 -10 -141 0 -140 1 -136 -182 3 -133 -2 -187 -35 -361 -8
-43 -27 -153 -43 -245 -16 -92 -36 -194 -45 -227 -9 -33 -23 -87 -31 -120 -34
-145 -179 -504 -260 -646 -24 -42 -44 -83 -44 -92 0 -9 11 -24 25 -33 23 -15
27 -15 50 0 43 28 171 277 220 426 10 30 21 60 25 65 10 12 76 209 84 250 4
17 12 49 18 73 l12 42 81 0 c44 0 109 5 145 11 118 19 470 45 470 34 0 -5 -5
-90 -10 -189 -5 -102 -5 -188 0 -201 18 -46 82 -40 94 9 3 14 10 107 15 206 6
100 12 184 14 186 3 3 73 8 482 35 203 13 230 20 230 64 0 48 -30 56 -170 49
-66 -3 -151 -9 -190 -14 -38 -5 -134 -12 -212 -15 l-143 -7 0 195 0 196 43 5
c23 3 114 11 202 16 88 6 178 13 200 16 48 7 82 36 91 77 3 17 16 52 27 77 11
25 35 92 53 150 18 58 39 123 47 145 29 76 -6 105 -123 104 -41 -1 -118 -7
-170 -14z m153 -181 c-24 -85 -79 -233 -91 -246 -8 -8 -692 -64 -1006 -83
l-118 -7 8 43 c5 24 9 97 9 162 l-1 117 46 0 c25 0 99 6 165 14 66 8 215 22
330 31 283 21 449 36 515 45 30 4 80 8 111 9 l57 1 -25 -86z m-633 -599 c0
-179 -1 -195 -17 -195 -44 -1 -365 -31 -423 -40 -36 -5 -102 -10 -147 -10
l-82 0 4 28 c3 15 16 95 30 177 14 83 27 160 30 172 4 19 13 22 107 28 57 3
184 12 283 19 99 8 188 14 198 15 16 1 17 -14 17 -194z"/>
<path d="M764 775 c-8 -13 -13 -32 -10 -42 3 -10 13 -106 21 -213 27 -352 39
-404 93 -398 38 4 50 35 41 105 -4 32 -15 144 -23 248 -18 229 -24 273 -42
303 -19 30 -59 29 -80 -3z"/>
</g>
</svg>
