<?xml version="1.0" standalone="no"?>
<!DOCTYPE svg PUBLIC "-//W3C//DTD SVG 20010904//EN"
 "http://www.w3.org/TR/2001/REC-SVG-20010904/DTD/svg10.dtd">
<svg version="1.0" xmlns="http://www.w3.org/2000/svg"
 width="248.000000pt" height="248.000000pt" viewBox="0 0 248.000000 248.000000"
 preserveAspectRatio="xMidYMid meet">
<metadata>
Created by potrace 1.10, written by Peter Selinger 2001-2011
</metadata>
<g transform="translate(0.000000,248.000000) scale(0.100000,-0.100000)"
fill="#000000" stroke="none">
<path d="M1229 2323 c-11 -12 -15 -68 -19 -221 l-5 -206 -155 -22 c-85 -13
-207 -28 -270 -35 -63 -6 -125 -18 -138 -26 -31 -19 -27 -63 8 -80 28 -15 31
-15 338 29 117 16 215 28 218 26 2 -3 1 -127 -3 -276 -5 -205 -9 -272 -19
-276 -7 -3 -59 -10 -116 -16 -57 -6 -157 -17 -223 -25 -66 -8 -199 -22 -295
-31 -96 -9 -181 -21 -187 -26 -19 -15 -16 -53 7 -73 17 -15 31 -17 107 -11
199 15 335 29 663 71 63 9 131 15 150 15 19 0 67 6 105 14 74 15 437 57 665
76 227 19 271 35 256 93 -8 35 -26 38 -126 27 -47 -6 -137 -15 -200 -20 -152
-14 -542 -59 -604 -71 -27 -5 -55 -9 -62 -9 -11 0 -14 38 -13 203 1 111 4 236
8 277 l6 75 265 38 c156 22 274 44 288 53 25 17 29 56 7 74 -19 16 -70 11
-345 -29 -113 -17 -208 -31 -212 -31 -5 0 -8 87 -8 193 0 158 -3 197 -16 215
-18 26 -56 29 -75 5z"/>
</g>
</svg>
