<?xml version="1.0" standalone="no"?>
<!DOCTYPE svg PUBLIC "-//W3C//DTD SVG 20010904//EN"
 "http://www.w3.org/TR/2001/REC-SVG-20010904/DTD/svg10.dtd">
<svg version="1.0" xmlns="http://www.w3.org/2000/svg"
 width="248.000000pt" height="248.000000pt" viewBox="0 0 248.000000 248.000000"
 preserveAspectRatio="xMidYMid meet">
<metadata>
Created by potrace 1.10, written by Peter Selinger 2001-2011
</metadata>
<g transform="translate(0.000000,248.000000) scale(0.100000,-0.100000)"
fill="#000000" stroke="none">
<path d="M1760 2255 c-52 -7 -140 -16 -195 -19 -213 -15 -592 -47 -655 -56
-36 -5 -110 -10 -166 -10 -105 0 -124 -7 -124 -45 0 -62 82 -76 302 -51 133
15 383 36 608 51 52 4 146 13 208 21 62 8 132 14 156 14 l44 0 -25 -86 c-24
-85 -79 -233 -91 -246 -4 -4 -128 -17 -277 -28 -148 -12 -315 -26 -370 -30
-55 -5 -188 -14 -295 -20 -107 -7 -206 -17 -220 -24 -36 -16 -39 -60 -6 -81
23 -15 43 -16 208 -5 101 6 230 15 288 20 107 9 388 32 604 50 132 10 159 23
172 83 3 17 16 52 27 77 11 25 35 92 53 150 18 58 39 123 47 145 29 76 -6 105
-123 104 -41 -1 -118 -7 -170 -14z"/>
</g>
</svg>
