<?xml version="1.0" standalone="no"?>
<!DOCTYPE svg PUBLIC "-//W3C//DTD SVG 20010904//EN"
 "http://www.w3.org/TR/2001/REC-SVG-20010904/DTD/svg10.dtd">
<svg version="1.0" xmlns="http://www.w3.org/2000/svg"
 width="248.000000pt" height="248.000000pt" viewBox="0 0 248.000000 248.000000"
 preserveAspectRatio="xMidYMid meet">
<metadata>
Created by potrace 1.10, written by Peter Selinger 2001-2011
</metadata>
<g transform="translate(0.000000,248.000000) scale(0.100000,-0.100000)"
fill="#000000" stroke="none">
<path d="M512 2348 c-34 -34 6 -87 88 -118 19 -7 75 -33 123 -57 85 -42 90
-43 114 -28 18 12 23 24 21 43 -3 24 -20 36 -143 99 -140 71 -181 83 -203 61z"/>
<path d="M1406 2317 c-9 -12 -22 -43 -31 -67 -32 -94 -164 -359 -251 -504 -30
-49 -54 -92 -54 -96 0 -4 8 -18 18 -30 32 -40 62 -21 118 70 98 162 72 143
214 157 69 6 136 12 149 12 l24 1 -8 -251 c-4 -137 -8 -257 -9 -266 -4 -24
-24 -30 -146 -43 -207 -21 -435 -57 -470 -74 -29 -13 -38 -50 -19 -73 15 -18
104 -13 225 12 104 21 394 49 404 39 5 -5 5 -240 0 -529 -7 -468 -6 -521 8
-533 21 -16 47 -15 62 3 19 23 28 241 29 679 0 295 3 382 13 392 13 12 107 17
523 30 116 4 216 11 223 17 16 13 15 52 -2 66 -11 9 -84 11 -268 10 -139 -2
-305 -3 -368 -4 l-115 0 4 150 c2 83 6 202 10 265 l6 115 35 3 c36 3 330 37
407 48 51 6 71 33 54 70 -9 21 -17 24 -68 24 -32 0 -125 -9 -208 -20 -82 -10
-224 -24 -315 -30 -91 -6 -184 -13 -207 -16 -24 -4 -43 -4 -43 -1 0 3 24 57
54 119 83 175 101 239 74 266 -19 19 -56 14 -72 -11z"/>
<path d="M885 1964 c-27 -7 -86 -19 -130 -25 -44 -6 -174 -27 -290 -46 -116
-19 -228 -37 -250 -40 -49 -7 -65 -19 -65 -47 0 -56 48 -58 298 -16 98 16 242
39 321 50 79 11 159 27 178 35 30 13 34 18 31 46 -5 47 -31 60 -93 43z"/>
<path d="M600 1499 c-47 -11 -121 -26 -164 -34 -92 -17 -126 -36 -126 -69 0
-47 20 -51 153 -27 200 36 296 58 312 71 18 15 20 51 3 68 -17 17 -79 14 -178
-9z"/>
<path d="M650 1149 c-41 -10 -124 -28 -185 -40 -123 -24 -155 -39 -155 -72 0
-31 18 -47 53 -47 43 0 398 78 413 91 31 25 5 90 -34 88 -9 -1 -51 -9 -92 -20z"/>
<path d="M665 825 c-210 -29 -365 -68 -395 -100 -19 -21 -20 -27 -10 -116 5
-52 14 -154 19 -227 10 -137 24 -182 57 -182 8 0 36 6 62 14 71 21 230 55 292
62 99 11 108 24 135 209 8 61 25 154 37 208 28 129 21 148 -54 146 -29 -1 -93
-7 -143 -14z m92 -122 c-2 -16 -15 -93 -27 -173 -12 -80 -24 -147 -26 -149 -2
-3 -35 -8 -72 -13 -37 -4 -106 -17 -155 -29 -48 -12 -89 -20 -92 -17 -10 10
-27 330 -18 339 5 5 67 20 139 33 172 33 173 33 218 35 37 1 38 0 33 -26z"/>
</g>
</svg>
