<?xml version="1.0" standalone="no"?>
<!DOCTYPE svg PUBLIC "-//W3C//DTD SVG 20010904//EN"
 "http://www.w3.org/TR/2001/REC-SVG-20010904/DTD/svg10.dtd">
<svg version="1.0" xmlns="http://www.w3.org/2000/svg"
 width="248.000000pt" height="248.000000pt" viewBox="0 0 248.000000 248.000000"
 preserveAspectRatio="xMidYMid meet">
<metadata>
Created by potrace 1.10, written by Peter Selinger 2001-2011
</metadata>
<g transform="translate(0.000000,248.000000) scale(0.100000,-0.100000)"
fill="#000000" stroke="none">
<path d="M459 2324 c-11 -14 -13 -65 -11 -284 l4 -267 -134 -22 c-73 -12 -147
-21 -163 -21 -68 0 -101 -63 -50 -96 24 -16 33 -16 138 0 62 10 125 20 140 23
l28 5 -7 -54 c-8 -67 -100 -417 -154 -582 -71 -221 -101 -300 -144 -386 -25
-50 -46 -97 -46 -104 0 -19 34 -46 58 -46 25 0 58 47 104 149 38 85 152 420
179 531 33 134 41 130 34 -20 -3 -74 -12 -315 -20 -534 -14 -370 -14 -401 2
-418 19 -21 56 -24 70 -5 19 23 23 65 33 324 36 984 32 916 51 886 9 -16 38
-65 65 -111 72 -124 100 -145 138 -106 25 24 19 52 -22 118 -153 241 -192 312
-192 348 0 42 -4 40 150 74 89 19 120 36 120 67 0 53 -40 58 -175 26 -48 -11
-88 -19 -90 -17 -2 2 -7 112 -11 245 -4 145 -11 252 -18 265 -14 29 -58 35
-77 12z"/>
<path d="M1950 2189 c-41 -5 -187 -25 -325 -45 -391 -56 -447 -63 -495 -64
-82 0 -121 -59 -64 -96 24 -16 34 -16 167 0 78 10 155 20 171 23 26 5 28 4 21
-13 -4 -10 -21 -55 -37 -99 -73 -194 -92 -241 -106 -257 -19 -23 -18 -66 2
-86 15 -15 26 -15 154 6 75 12 163 25 194 29 l58 6 -6 -79 c-17 -251 -128
-680 -205 -795 -13 -20 -36 -57 -51 -83 -15 -25 -34 -46 -42 -46 -8 0 -24 15
-35 33 -34 56 -57 72 -85 59 -53 -24 -37 -91 40 -162 37 -34 50 -40 88 -40 54
0 77 23 159 161 107 181 214 572 237 872 13 178 -3 201 -124 185 -104 -14
-200 -29 -223 -35 -16 -3 -23 -1 -23 8 0 8 23 75 51 149 28 74 57 151 64 170
9 25 21 37 42 42 36 9 306 44 443 58 59 6 114 17 127 25 25 17 30 54 11 73
-14 14 -94 14 -208 1z"/>
<path d="M2100 1389 c-25 -5 -88 -12 -140 -15 -102 -7 -120 -14 -120 -49 0
-58 77 -76 215 -50 52 10 97 16 100 13 11 -10 -120 -308 -136 -308 -9 0 -69
62 -69 71 0 19 -54 69 -74 69 -75 0 -57 -85 41 -192 35 -38 42 -52 34 -65 -20
-37 -118 -144 -163 -178 -50 -38 -59 -62 -32 -89 24 -24 56 -19 106 17 43 30
115 106 151 158 l17 23 45 -49 c24 -28 44 -53 45 -57 0 -7 136 -120 187 -157
56 -39 115 -15 99 40 -3 13 -31 42 -63 64 -65 46 -212 192 -233 230 -13 24
-10 33 44 141 32 64 67 142 78 173 11 31 26 72 34 91 17 46 17 95 0 109 -20
17 -111 22 -166 10z"/>
<path d="M1070 1350 c-63 -10 -116 -19 -117 -19 -2 -1 -9 -11 -18 -24 -13 -20
-13 -52 -5 -238 12 -259 17 -315 35 -332 18 -19 270 -11 302 9 48 30 87 226
88 436 0 179 -1 181 -103 184 -37 2 -119 -6 -182 -16z m177 -227 c-2 -76 -12
-171 -22 -210 l-17 -73 -78 0 -78 0 -6 83 c-3 45 -8 134 -11 199 l-5 116 63
10 c34 5 84 10 111 11 l49 1 -6 -137z"/>
<path d="M1210 349 c-30 -4 -104 -11 -165 -14 -60 -4 -116 -12 -122 -17 -19
-16 -15 -53 7 -73 17 -15 35 -18 99 -17 42 1 109 6 147 12 88 12 746 13 850 0
43 -5 140 -17 214 -26 74 -9 143 -16 153 -16 48 2 64 60 25 86 -26 17 -95 29
-253 46 -60 6 -143 16 -183 21 -88 11 -694 10 -772 -2z"/>
</g>
</svg>
