<?xml version="1.0" standalone="no"?>
<!DOCTYPE svg PUBLIC "-//W3C//DTD SVG 20010904//EN"
 "http://www.w3.org/TR/2001/REC-SVG-20010904/DTD/svg10.dtd">
<svg version="1.0" xmlns="http://www.w3.org/2000/svg"
 width="248.000000pt" height="248.000000pt" viewBox="0 0 248.000000 248.000000"
 preserveAspectRatio="xMidYMid meet">
<metadata>
Created by potrace 1.10, written by Peter Selinger 2001-2011
</metadata>
<g transform="translate(0.000000,248.000000) scale(0.100000,-0.100000)"
fill="#000000" stroke="none">
<path d="M800 2270 c-41 -4 -104 -15 -140 -25 -36 -9 -103 -20 -150 -23 -85
-7 -85 -7 -102 -42 -15 -28 -18 -61 -18 -170 0 -188 -18 -777 -31 -1005 -18
-313 -70 -613 -128 -737 -35 -74 -16 -119 43 -104 21 5 33 20 53 64 56 127
114 417 134 676 5 71 11 132 14 136 2 4 44 13 92 20 48 7 105 19 127 26 21 8
56 14 77 14 l39 0 0 -192 c0 -106 3 -285 6 -398 l7 -205 -36 37 c-37 41 -66
48 -91 22 -25 -24 -19 -47 22 -100 21 -27 51 -71 66 -97 32 -56 65 -75 99 -60
45 21 47 48 40 688 -4 425 -2 713 8 985 16 468 16 457 -1 474 -22 21 -47 24
-130 16z m36 -133 c-3 -13 -8 -141 -12 -285 -5 -170 -11 -265 -18 -270 -6 -5
-49 -15 -96 -22 -47 -7 -105 -19 -130 -26 -25 -8 -55 -14 -68 -14 l-23 0 6
288 c4 158 8 293 10 300 3 7 22 12 47 12 24 0 75 9 113 19 39 11 94 20 124 20
51 1 53 0 47 -22z m-26 -797 l0 -130 -28 0 c-15 0 -57 -8 -93 -19 -36 -10 -90
-22 -120 -26 -30 -3 -62 -9 -71 -11 -17 -5 -18 6 -18 124 l0 130 58 11 c31 6
95 19 142 30 142 32 130 42 130 -109z"/>
</g>
</svg>
