<?xml version="1.0" standalone="no"?>
<!DOCTYPE svg PUBLIC "-//W3C//DTD SVG 20010904//EN"
 "http://www.w3.org/TR/2001/REC-SVG-20010904/DTD/svg10.dtd">
<svg version="1.0" xmlns="http://www.w3.org/2000/svg"
 width="248.000000pt" height="248.000000pt" viewBox="0 0 248.000000 248.000000"
 preserveAspectRatio="xMidYMid meet">
<metadata>
Created by potrace 1.10, written by Peter Selinger 2001-2011
</metadata>
<g transform="translate(0.000000,248.000000) scale(0.100000,-0.100000)"
fill="#000000" stroke="none">
<path d="M650 2315 c-10 -12 -11 -49 -4 -166 5 -83 6 -155 3 -160 -3 -5 -75
-18 -160 -30 -176 -24 -203 -33 -207 -71 -5 -42 33 -61 102 -53 l55 7 5 -33
c2 -19 12 -82 22 -142 9 -59 15 -110 12 -113 -3 -2 -65 -14 -139 -24 -73 -11
-143 -27 -156 -35 -27 -18 -30 -56 -7 -76 17 -14 50 -11 374 35 96 13 254 34
350 46 227 28 248 34 256 67 9 35 -7 57 -42 61 -16 1 -90 -6 -164 -16 -74 -11
-136 -18 -138 -17 -1 1 8 49 22 106 14 57 28 128 32 157 6 51 7 52 39 52 52 0
138 19 147 33 27 42 -11 89 -66 81 -17 -3 -74 -8 -127 -12 l-96 -7 -10 137
c-7 98 -15 144 -27 162 -19 29 -57 34 -76 11z m110 -447 c0 -18 -11 -79 -24
-134 -13 -56 -22 -113 -19 -127 5 -23 2 -25 -58 -31 -43 -5 -64 -4 -69 4 -7
12 -19 79 -39 215 -5 33 -8 60 -7 61 3 2 192 42 204 43 7 1 12 -12 12 -31z"/>
<path d="M720 1379 c-85 -15 -184 -33 -220 -39 -36 -6 -76 -18 -89 -27 -26
-17 -26 -31 -1 -198 5 -38 13 -101 16 -140 8 -86 25 -117 62 -113 51 6 56 38
32 209 -11 84 -18 154 -16 157 11 10 346 72 391 72 24 0 25 -3 25 -62 -1 -35
-7 -99 -15 -143 -20 -112 -19 -142 5 -155 30 -16 60 -3 75 33 20 49 48 262 43
333 -3 43 -10 70 -21 82 -26 26 -109 23 -287 -9z"/>
</g>
</svg>
