<?xml version="1.0" standalone="no"?>
<!DOCTYPE svg PUBLIC "-//W3C//DTD SVG 20010904//EN"
 "http://www.w3.org/TR/2001/REC-SVG-20010904/DTD/svg10.dtd">
<svg version="1.0" xmlns="http://www.w3.org/2000/svg"
 width="248.000000pt" height="248.000000pt" viewBox="0 0 248.000000 248.000000"
 preserveAspectRatio="xMidYMid meet">
<metadata>
Created by potrace 1.10, written by Peter Selinger 2001-2011
</metadata>
<g transform="translate(0.000000,248.000000) scale(0.100000,-0.100000)"
fill="#000000" stroke="none">
<path d="M593 2318 c-6 -7 -16 -114 -23 -238 -26 -447 -22 -413 -50 -427 -21
-9 -152 -35 -310 -59 -68 -11 -103 -57 -68 -92 15 -15 97 -15 158 -1 84 20
200 36 200 27 0 -14 -67 -171 -130 -303 -62 -131 -145 -279 -211 -376 -48 -71
-56 -101 -33 -123 33 -33 65 -17 115 59 85 129 150 243 219 387 39 82 69 133
69 120 3 -116 -22 -980 -29 -1021 -12 -65 5 -101 45 -101 62 0 71 65 80 590 3
195 8 378 10 405 2 28 4 88 5 134 l0 83 73 -64 c145 -128 158 -135 191 -102
28 27 18 53 -41 107 -139 126 -223 212 -223 228 0 19 7 22 95 39 69 14 158 37
198 52 43 17 50 80 10 95 -9 4 -64 -5 -122 -20 -178 -44 -171 -44 -171 -5 0
18 7 108 15 200 21 238 21 362 1 393 -18 27 -57 34 -73 13z"/>
<path d="M1610 2211 c-96 -48 -209 -100 -250 -115 -96 -35 -120 -51 -120 -80
0 -58 56 -59 195 -2 l88 35 -6 -67 c-3 -37 -13 -88 -22 -114 -16 -45 -18 -47
-68 -57 -29 -6 -101 -18 -161 -26 -119 -16 -156 -33 -156 -69 0 -48 19 -52
167 -33 75 10 138 15 141 12 7 -7 -37 -98 -96 -199 -51 -85 -129 -165 -261
-265 -82 -63 -98 -90 -69 -119 33 -33 100 2 253 135 27 24 53 43 56 43 8 0 23
-63 40 -174 14 -92 35 -122 77 -111 93 24 276 33 287 15 3 -5 19 -10 35 -10
23 0 35 8 54 38 31 47 127 276 133 318 l5 32 166 -79 c124 -59 178 -79 208
-79 89 0 96 77 9 99 -114 29 -691 334 -720 382 -7 10 197 43 405 65 108 11
160 37 160 79 0 34 -24 49 -68 41 -20 -4 -118 -17 -217 -31 -99 -13 -201 -27
-227 -31 -27 -4 -48 -3 -48 1 0 4 7 44 16 87 12 60 14 89 6 119 -10 39 -9 40
26 64 21 13 75 41 122 61 47 20 91 41 98 46 15 13 16 50 0 66 -29 29 -82 13
-258 -77z m1 -629 c47 -31 120 -75 162 -97 42 -22 77 -43 77 -47 0 -8 -43 -14
-190 -28 -63 -6 -152 -18 -198 -27 -45 -9 -85 -13 -88 -11 -3 3 11 30 30 60
19 30 52 89 73 131 20 43 40 77 43 77 3 0 44 -26 91 -58z m189 -267 c0 -3 -16
-45 -36 -93 l-36 -88 -56 0 c-32 1 -96 -3 -143 -7 l-86 -8 -10 73 c-6 40 -9
74 -8 76 5 6 167 33 250 41 125 12 125 12 125 6z"/>
<path d="M2020 977 c-3 -3 -75 -10 -160 -16 -251 -19 -524 -56 -703 -96 -61
-14 -121 -22 -138 -18 -66 13 -69 -12 -39 -283 12 -98 25 -219 30 -268 11
-100 28 -129 69 -124 44 5 52 40 36 148 -18 114 -45 351 -45 389 0 25 5 29 59
44 114 32 453 82 681 101 131 11 388 19 413 12 32 -8 34 -28 13 -156 -36 -215
-86 -385 -132 -447 -19 -25 -20 -25 -58 -9 -50 21 -69 20 -89 -2 -23 -26 -21
-47 7 -69 36 -28 128 -57 159 -49 37 9 90 96 132 215 38 106 44 132 80 336 36
201 28 241 -52 270 -45 16 -252 34 -263 22z"/>
<path d="M1625 729 c-130 -8 -254 -25 -297 -41 -25 -9 -45 -49 -34 -67 3 -4
13 -57 22 -117 9 -60 23 -119 31 -132 l14 -24 207 7 c149 5 213 11 229 21 26
16 62 76 94 159 13 33 31 72 41 87 10 14 18 37 18 50 -1 67 -45 75 -325 57z
m181 -122 c-3 -13 -17 -48 -30 -79 l-25 -56 -156 -7 c-87 -4 -160 -4 -165 1
-4 5 -11 37 -15 71 -6 52 -4 64 9 69 18 7 206 20 315 23 72 1 73 1 67 -22z"/>
</g>
</svg>
