<?xml version="1.0" standalone="no"?>
<!DOCTYPE svg PUBLIC "-//W3C//DTD SVG 20010904//EN"
 "http://www.w3.org/TR/2001/REC-SVG-20010904/DTD/svg10.dtd">
<svg version="1.0" xmlns="http://www.w3.org/2000/svg"
 width="248.000000pt" height="248.000000pt" viewBox="0 0 248.000000 248.000000"
 preserveAspectRatio="xMidYMid meet">
<metadata>
Created by potrace 1.10, written by Peter Selinger 2001-2011
</metadata>
<g transform="translate(0.000000,248.000000) scale(0.100000,-0.100000)"
fill="#000000" stroke="none">
<path d="M800 2270 c-41 -4 -104 -15 -140 -25 -36 -9 -103 -20 -150 -23 -85
-7 -85 -7 -102 -42 -15 -28 -18 -61 -18 -170 0 -188 -18 -777 -31 -1005 -18
-313 -70 -613 -128 -737 -35 -74 -16 -119 43 -104 33 8 66 75 102 206 54 198
104 629 104 912 l0 126 53 10 c28 5 100 20 160 32 59 13 109 21 111 19 2 -2 6
-264 9 -582 l5 -578 -33 35 c-35 39 -64 45 -89 20 -25 -24 -19 -47 22 -100 21
-27 51 -71 66 -97 32 -56 65 -75 99 -60 45 21 47 48 40 688 -4 425 -2 713 8
985 16 468 16 457 -1 474 -22 21 -47 24 -130 16z m36 -133 c-3 -13 -8 -141
-12 -285 -5 -170 -11 -265 -18 -270 -6 -5 -49 -15 -96 -22 -47 -7 -105 -19
-130 -26 -25 -8 -55 -14 -68 -14 l-23 0 6 288 c4 158 8 293 10 300 3 7 22 12
47 12 24 0 75 9 113 19 39 11 94 20 124 20 51 1 53 0 47 -22z"/>
</g>
</svg>
