<?xml version="1.0" standalone="no"?>
<!DOCTYPE svg PUBLIC "-//W3C//DTD SVG 20010904//EN"
 "http://www.w3.org/TR/2001/REC-SVG-20010904/DTD/svg10.dtd">
<svg version="1.0" xmlns="http://www.w3.org/2000/svg"
 width="248.000000pt" height="248.000000pt" viewBox="0 0 248.000000 248.000000"
 preserveAspectRatio="xMidYMid meet">
<metadata>
Created by potrace 1.10, written by Peter Selinger 2001-2011
</metadata>
<g transform="translate(0.000000,248.000000) scale(0.100000,-0.100000)"
fill="#000000" stroke="none">
<path d="M1676 2378 c-13 -18 -16 -51 -16 -150 l0 -127 -37 -6 c-76 -12 -253
-47 -303 -60 -62 -16 -80 -30 -80 -60 0 -38 23 -48 94 -41 l64 6 7 -67 c13
-139 44 -287 62 -300 21 -16 35 -16 57 0 21 15 22 47 8 147 -23 151 -33 242
-29 246 5 5 448 80 556 94 84 11 101 21 101 59 0 59 -30 63 -234 26 -77 -14
-144 -25 -148 -25 -4 0 -8 53 -8 118 0 129 -11 162 -55 162 -13 0 -31 -10 -39
-22z"/>
<path d="M596 2268 c-9 -12 -16 -32 -16 -43 0 -11 -18 -54 -40 -95 -22 -41
-90 -176 -151 -299 -61 -123 -144 -278 -185 -343 -41 -65 -74 -122 -74 -127 0
-5 -22 -39 -50 -77 -53 -73 -59 -93 -34 -118 16 -17 33 -20 58 -10 19 7 87 96
114 151 12 22 48 84 82 137 33 52 108 193 166 313 86 176 159 314 180 342 2 2
41 -36 86 -85 155 -166 313 -320 361 -353 31 -21 57 -31 74 -29 56 7 56 70 1
102 -73 43 -427 411 -463 481 -29 58 -45 75 -71 75 -13 0 -30 -10 -38 -22z"/>
<path d="M735 1705 c-27 -8 -104 -26 -170 -41 -127 -29 -155 -43 -155 -79 0
-47 38 -53 161 -28 l29 6 0 -96 0 -96 -52 -15 c-29 -7 -93 -23 -143 -35 -111
-27 -137 -43 -133 -79 5 -41 44 -56 99 -37 42 14 222 55 226 51 1 -1 3 -183 4
-404 l2 -403 -69 -49 c-38 -27 -95 -68 -128 -92 -32 -24 -73 -52 -91 -63 -54
-33 -65 -46 -65 -74 0 -76 63 -66 180 28 25 20 59 45 75 55 93 58 447 317 498
364 29 27 35 60 15 80 -27 27 -62 11 -180 -78 -65 -49 -120 -90 -123 -90 -3 0
-5 171 -5 380 0 296 3 382 13 385 6 2 64 18 127 35 63 18 121 37 128 43 21 17
10 60 -19 74 -22 11 -42 8 -135 -17 -60 -17 -110 -30 -111 -30 -2 0 -3 43 -3
95 l0 94 38 10 c20 5 51 13 67 17 66 14 96 59 63 92 -15 15 -80 14 -143 -3z"/>
<path d="M928 1123 c-9 -10 -19 -28 -22 -40 -7 -21 -115 -188 -156 -240 -25
-32 -25 -55 0 -78 42 -38 69 -13 201 187 54 81 72 145 49 173 -17 20 -53 19
-72 -2z"/>
<path d="M272 888 c-31 -31 -11 -66 107 -190 66 -69 101 -84 129 -56 26 26 10
56 -80 156 -72 80 -97 102 -118 102 -14 0 -31 -5 -38 -12z"/>
</g>
</svg>
