<?xml version="1.0" standalone="no"?>
<!DOCTYPE svg PUBLIC "-//W3C//DTD SVG 20010904//EN"
 "http://www.w3.org/TR/2001/REC-SVG-20010904/DTD/svg10.dtd">
<svg version="1.0" xmlns="http://www.w3.org/2000/svg"
 width="248.000000pt" height="248.000000pt" viewBox="0 0 248.000000 248.000000"
 preserveAspectRatio="xMidYMid meet">
<metadata>
Created by potrace 1.10, written by Peter Selinger 2001-2011
</metadata>
<g transform="translate(0.000000,248.000000) scale(0.100000,-0.100000)"
fill="#000000" stroke="none">
<path d="M1459 2333 c-11 -12 -14 -51 -13 -157 l2 -141 -132 -27 c-72 -15
-162 -33 -201 -39 -89 -14 -117 -31 -113 -67 4 -37 43 -55 89 -42 19 6 50 10
70 10 32 0 37 -3 48 -37 7 -21 16 -83 21 -138 5 -55 12 -110 15 -122 7 -23 15
-21 -120 -38 -22 -2 -98 -10 -170 -16 -76 -7 -139 -17 -152 -25 -31 -19 -30
-59 1 -79 25 -17 24 -17 282 11 61 6 335 44 504 70 52 8 131 19 175 24 44 5
107 14 140 20 33 6 135 17 228 24 101 8 173 19 183 27 22 18 13 61 -16 77 -18
9 -51 11 -125 7 -93 -6 -276 -28 -336 -41 l-27 -5 5 178 c3 98 8 181 12 185 3
4 40 12 81 18 113 18 130 26 130 65 0 27 -5 35 -29 45 -24 10 -47 8 -133 -10
-158 -33 -307 -54 -315 -46 -5 4 -10 63 -13 130 -5 131 -14 156 -55 156 -12 0
-29 -8 -36 -17z m250 -500 c0 -76 -3 -156 -7 -178 l-7 -39 -120 -18 c-66 -10
-145 -21 -176 -24 l-56 -6 -6 108 c-3 60 -13 132 -21 159 -9 28 -16 53 -16 56
0 7 25 13 145 35 44 8 112 21 150 28 126 25 115 37 114 -121z"/>
<path d="M409 2033 c-11 -13 -14 -62 -12 -229 l2 -214 -37 -9 c-20 -4 -84 -18
-142 -31 -125 -26 -152 -41 -148 -78 5 -47 39 -53 153 -28 55 13 117 26 138
30 l37 7 0 -279 0 -280 -67 -35 c-38 -19 -95 -45 -128 -58 -71 -26 -95 -44
-95 -74 0 -28 18 -45 51 -45 39 0 167 54 283 120 55 32 157 87 226 122 110 57
125 68 128 92 6 52 -41 73 -98 43 -14 -8 -60 -32 -102 -55 -42 -23 -80 -42
-83 -42 -3 0 -5 116 -5 258 l0 258 126 27 c70 15 133 32 140 38 19 16 18 54
-2 70 -21 17 -70 15 -173 -10 -47 -11 -87 -18 -89 -16 -3 2 -7 91 -9 197 -5
208 -13 238 -57 238 -13 0 -30 -8 -37 -17z"/>
<path d="M1855 1445 c-5 -2 -35 -6 -65 -8 -30 -3 -152 -19 -270 -37 -118 -17
-261 -37 -317 -44 -148 -18 -147 -16 -139 -186 22 -427 19 -400 46 -422 23
-19 34 -20 150 -14 69 4 152 11 185 16 54 8 113 15 415 54 114 14 112 11 134
171 9 61 21 146 27 190 15 108 9 239 -12 261 -16 15 -129 30 -154 19z m65
-189 l0 -84 -82 -11 c-46 -6 -118 -15 -161 -21 -43 -5 -99 -10 -125 -10 -26
-1 -83 -7 -127 -15 -44 -8 -119 -17 -167 -21 l-88 -7 0 82 0 81 38 0 c20 0 71
6 112 14 67 13 286 45 445 66 33 4 81 8 108 9 l47 1 0 -84z m-20 -208 c0 -6
-5 -39 -11 -73 l-11 -62 -171 -22 c-95 -12 -199 -26 -232 -31 -33 -5 -111 -13
-172 -16 l-113 -7 0 71 0 71 58 6 c31 3 96 13 145 21 48 8 106 14 129 14 39 0
112 8 263 29 88 13 115 12 115 -1z"/>
</g>
</svg>
