<?xml version="1.0" standalone="no"?>
<!DOCTYPE svg PUBLIC "-//W3C//DTD SVG 20010904//EN"
 "http://www.w3.org/TR/2001/REC-SVG-20010904/DTD/svg10.dtd">
<svg version="1.0" xmlns="http://www.w3.org/2000/svg"
 width="248.000000pt" height="248.000000pt" viewBox="0 0 248.000000 248.000000"
 preserveAspectRatio="xMidYMid meet">
<metadata>
Created by potrace 1.10, written by Peter Selinger 2001-2011
</metadata>
<g transform="translate(0.000000,248.000000) scale(0.100000,-0.100000)"
fill="#000000" stroke="none">
<path d="M583 2048 c-44 -53 -108 -113 -178 -166 -61 -46 -115 -95 -122 -110
-18 -39 -16 -67 6 -86 11 -10 25 -39 30 -65 18 -79 33 -551 22 -696 -11 -149
-4 -175 49 -175 35 0 51 24 49 72 -1 18 -1 143 -1 278 0 135 -1 263 -2 285
l-1 40 80 6 c83 7 254 42 286 60 23 12 35 57 22 78 -13 20 -55 26 -83 11 -37
-20 -241 -57 -274 -51 -29 6 -31 10 -43 81 -7 41 -18 87 -24 103 -6 15 -10 29
-8 31 2 1 40 30 84 63 128 97 245 230 245 278 0 27 -18 45 -46 45 -15 0 -43
-25 -91 -82z"/>
</g>
</svg>
