<?xml version="1.0" standalone="no"?>
<!DOCTYPE svg PUBLIC "-//W3C//DTD SVG 20010904//EN"
 "http://www.w3.org/TR/2001/REC-SVG-20010904/DTD/svg10.dtd">
<svg version="1.0" xmlns="http://www.w3.org/2000/svg"
 width="248.000000pt" height="248.000000pt" viewBox="0 0 248.000000 248.000000"
 preserveAspectRatio="xMidYMid meet">
<metadata>
Created by potrace 1.10, written by Peter Selinger 2001-2011
</metadata>
<g transform="translate(0.000000,248.000000) scale(0.100000,-0.100000)"
fill="#000000" stroke="none">
<path d="M1614 2329 c-17 -18 -19 -37 -19 -146 0 -112 2 -126 19 -139 25 -18
37 -18 62 0 17 13 19 29 22 146 4 140 -2 160 -43 160 -12 0 -30 -9 -41 -21z"/>
<path d="M650 2315 c-10 -12 -11 -49 -4 -166 5 -83 6 -155 3 -160 -3 -5 -75
-18 -160 -30 -176 -24 -203 -33 -207 -71 -5 -42 33 -61 102 -53 l55 7 5 -33
c2 -19 12 -82 22 -142 9 -59 15 -110 12 -113 -3 -2 -65 -14 -139 -24 -73 -11
-143 -27 -156 -35 -27 -18 -30 -56 -7 -76 17 -14 50 -11 374 35 96 13 254 34
350 46 227 28 248 34 256 67 9 35 -7 57 -42 61 -16 1 -90 -6 -164 -16 -74 -11
-136 -18 -138 -17 -1 1 8 49 22 106 14 57 28 128 32 157 6 51 7 52 39 52 52 0
138 19 147 33 27 42 -11 89 -66 81 -17 -3 -74 -8 -127 -12 l-96 -7 -10 137
c-7 98 -15 144 -27 162 -19 29 -57 34 -76 11z m110 -447 c0 -18 -11 -79 -24
-134 -13 -56 -22 -113 -19 -127 5 -23 2 -25 -58 -31 -43 -5 -64 -4 -69 4 -7
12 -19 79 -39 215 -5 33 -8 60 -7 61 3 2 192 42 204 43 7 1 12 -12 12 -31z"/>
<path d="M720 1379 c-85 -15 -184 -33 -220 -39 -36 -6 -76 -18 -89 -27 -26
-17 -26 -28 -1 -203 6 -41 15 -110 19 -152 5 -43 14 -85 21 -93 7 -9 29 -15
51 -15 38 0 39 -1 39 -38 0 -61 -124 -347 -196 -453 -21 -30 -57 -77 -81 -105
-44 -52 -53 -80 -31 -102 67 -67 229 146 356 468 28 69 52 132 55 140 3 8 6
-120 6 -285 1 -320 5 -347 50 -353 16 -3 39 11 80 50 31 29 101 88 154 131 53
43 104 89 113 102 15 23 15 27 0 50 -29 44 -41 39 -191 -83 l-90 -73 -3 287
c-1 158 -1 288 0 290 2 1 35 7 75 12 54 8 80 17 107 39 43 33 50 54 72 198 19
134 16 237 -9 262 -26 27 -109 24 -287 -8z m200 -136 c0 -52 -24 -231 -32
-238 -6 -5 -213 -34 -283 -40 l-71 -7 -17 133 c-11 92 -13 135 -6 140 6 3 52
14 102 23 51 9 124 23 162 30 39 8 87 14 108 15 l37 1 0 -57z"/>
</g>
</svg>
