<?xml version="1.0" standalone="no"?>
<!DOCTYPE svg PUBLIC "-//W3C//DTD SVG 20010904//EN"
 "http://www.w3.org/TR/2001/REC-SVG-20010904/DTD/svg10.dtd">
<svg version="1.0" xmlns="http://www.w3.org/2000/svg"
 width="248.000000pt" height="248.000000pt" viewBox="0 0 248.000000 248.000000"
 preserveAspectRatio="xMidYMid meet">
<metadata>
Created by potrace 1.10, written by Peter Selinger 2001-2011
</metadata>
<g transform="translate(0.000000,248.000000) scale(0.100000,-0.100000)"
fill="#000000" stroke="none">
<path d="M583 2048 c-44 -53 -108 -113 -178 -166 -61 -46 -115 -95 -122 -110
-18 -39 -16 -67 6 -86 11 -10 25 -39 30 -65 18 -79 33 -551 22 -696 -8 -108
-7 -134 5 -153 18 -27 69 -30 82 -4 6 9 10 82 11 162 1 80 5 148 9 152 5 5 75
24 156 44 145 36 186 55 186 88 0 21 -28 46 -51 46 -11 0 -72 -13 -136 -30
-171 -45 -159 -50 -166 77 -3 60 -3 111 0 115 2 5 30 8 61 8 57 0 270 43 304
61 22 12 34 57 21 78 -13 20 -55 26 -83 11 -37 -20 -241 -57 -274 -51 -29 6
-31 10 -43 81 -7 41 -18 87 -24 103 -6 15 -10 29 -8 31 2 1 40 30 84 63 128
97 245 230 245 278 0 27 -18 45 -46 45 -15 0 -43 -25 -91 -82z"/>
</g>
</svg>
