<?xml version="1.0" standalone="no"?>
<!DOCTYPE svg PUBLIC "-//W3C//DTD SVG 20010904//EN"
 "http://www.w3.org/TR/2001/REC-SVG-20010904/DTD/svg10.dtd">
<svg version="1.0" xmlns="http://www.w3.org/2000/svg"
 width="248.000000pt" height="248.000000pt" viewBox="0 0 248.000000 248.000000"
 preserveAspectRatio="xMidYMid meet">
<metadata>
Created by potrace 1.10, written by Peter Selinger 2001-2011
</metadata>
<g transform="translate(0.000000,248.000000) scale(0.100000,-0.100000)"
fill="#000000" stroke="none">
<path d="M650 2315 c-10 -12 -11 -49 -4 -166 5 -83 6 -155 3 -160 -3 -5 -75
-18 -160 -30 -85 -12 -165 -26 -179 -33 -36 -17 -39 -60 -6 -81 24 -16 35 -15
171 4 80 12 174 28 208 35 34 8 107 18 162 21 126 9 197 22 207 38 27 42 -11
89 -66 81 -17 -3 -74 -8 -127 -12 l-96 -7 -10 137 c-7 98 -15 144 -27 162 -19
29 -57 34 -76 11z"/>
</g>
</svg>
