<?xml version="1.0" standalone="no"?>
<!DOCTYPE svg PUBLIC "-//W3C//DTD SVG 20010904//EN"
 "http://www.w3.org/TR/2001/REC-SVG-20010904/DTD/svg10.dtd">
<svg version="1.0" xmlns="http://www.w3.org/2000/svg"
 width="248.000000pt" height="248.000000pt" viewBox="0 0 248.000000 248.000000"
 preserveAspectRatio="xMidYMid meet">
<metadata>
Created by potrace 1.10, written by Peter Selinger 2001-2011
</metadata>
<g transform="translate(0.000000,248.000000) scale(0.100000,-0.100000)"
fill="#000000" stroke="none">
<path d="M1105 2313 c-12 -12 -15 -25 -10 -47 11 -52 16 -278 8 -326 l-9 -45
-134 -16 c-74 -9 -171 -24 -215 -32 -44 -9 -118 -21 -163 -27 -46 -6 -95 -15
-109 -21 -13 -5 -37 -9 -51 -9 -41 0 -72 -26 -72 -61 0 -46 32 -53 143 -30 51
11 112 23 137 26 25 4 92 15 150 25 233 43 878 104 1193 114 128 5 157 16 157
61 0 42 -22 48 -133 42 -56 -4 -185 -11 -287 -17 -102 -6 -245 -17 -318 -25
-74 -8 -147 -15 -163 -15 l-29 0 0 190 c0 177 -1 191 -20 210 -24 24 -53 26
-75 3z"/>
<path d="M673 1479 c-21 -21 -15 -57 11 -74 25 -17 41 -81 81 -334 16 -101 26
-121 60 -121 54 0 59 37 27 220 -35 198 -53 274 -72 293 -22 23 -90 33 -107
16z"/>
</g>
</svg>
