<?xml version="1.0" standalone="no"?>
<!DOCTYPE svg PUBLIC "-//W3C//DTD SVG 20010904//EN"
 "http://www.w3.org/TR/2001/REC-SVG-20010904/DTD/svg10.dtd">
<svg version="1.0" xmlns="http://www.w3.org/2000/svg"
 width="248.000000pt" height="248.000000pt" viewBox="0 0 248.000000 248.000000"
 preserveAspectRatio="xMidYMid meet">
<metadata>
Created by potrace 1.10, written by Peter Selinger 2001-2011
</metadata>
<g transform="translate(0.000000,248.000000) scale(0.100000,-0.100000)"
fill="#000000" stroke="none">
<path d="M721 2106 c-6 -7 -36 -87 -65 -177 -114 -346 -191 -482 -457 -810
-49 -61 -89 -119 -89 -130 0 -10 11 -26 24 -34 38 -25 61 -6 185 148 75 94
112 133 118 125 12 -19 12 -676 0 -815 -11 -136 -7 -153 44 -153 19 0 32 7 40
22 15 28 35 317 38 538 1 172 -22 488 -38 519 -8 13 -2 32 25 76 80 132 140
272 213 495 43 131 49 178 29 198 -16 16 -53 15 -67 -2z"/>
<path d="M1119 2023 c-11 -12 -14 -54 -14 -173 l1 -158 -122 -4 c-130 -4 -154
-12 -154 -53 0 -41 25 -50 157 -54 l123 -3 1 -77 c0 -42 2 -85 4 -96 3 -11 5
-78 5 -150 1 -148 12 -178 58 -173 49 6 53 30 45 279 l-6 226 84 12 c46 6 163
20 259 31 545 61 619 74 646 116 12 17 13 27 5 43 -20 36 -39 39 -103 19 -33
-10 -104 -23 -157 -29 -53 -5 -143 -16 -201 -24 -58 -7 -175 -21 -260 -30 -85
-9 -180 -20 -210 -25 -30 -4 -58 -6 -62 -3 -5 2 -8 70 -8 151 0 117 -3 152
-16 170 -18 26 -56 29 -75 5z"/>
</g>
</svg>
