<?xml version="1.0" standalone="no"?>
<!DOCTYPE svg PUBLIC "-//W3C//DTD SVG 20010904//EN"
 "http://www.w3.org/TR/2001/REC-SVG-20010904/DTD/svg10.dtd">
<svg version="1.0" xmlns="http://www.w3.org/2000/svg"
 width="248.000000pt" height="248.000000pt" viewBox="0 0 248.000000 248.000000"
 preserveAspectRatio="xMidYMid meet">
<metadata>
Created by potrace 1.10, written by Peter Selinger 2001-2011
</metadata>
<g transform="translate(0.000000,248.000000) scale(0.100000,-0.100000)"
fill="#000000" stroke="none">
<path d="M1615 2330 c-13 -15 -18 -43 -23 -128 l-5 -109 -76 -16 c-42 -9 -92
-19 -111 -23 -43 -8 -70 -30 -70 -59 0 -32 19 -45 66 -45 43 0 43 0 48 -42 4
-24 7 -95 9 -158 l2 -114 -50 -8 c-154 -23 -239 -27 -255 -13 -21 19 -58 19
-210 -4 -69 -10 -126 -18 -128 -16 -1 1 9 51 23 110 15 60 29 130 32 156 l6
47 69 7 c96 9 120 21 116 58 -5 49 -27 55 -169 43 l-126 -11 -10 138 c-12 150
-25 187 -67 187 -45 0 -48 -17 -40 -188 l7 -160 -69 -11 c-38 -7 -115 -18
-171 -25 -109 -14 -133 -25 -133 -62 0 -38 39 -57 104 -49 l55 7 5 -33 c2 -19
12 -82 22 -142 9 -59 15 -109 13 -111 -2 -2 -65 -14 -139 -25 -150 -24 -183
-38 -178 -78 6 -49 18 -50 305 -11 147 21 345 47 438 58 94 12 185 25 204 30
27 7 39 5 62 -12 31 -23 17 -23 259 7 228 29 303 35 515 45 116 5 225 12 243
16 62 13 66 85 5 97 -15 3 -108 1 -206 -5 -98 -5 -182 -8 -186 -6 -4 2 1 48
11 103 9 55 20 130 24 168 l7 67 96 0 c110 0 144 12 149 52 6 47 -26 58 -163
57 -66 0 -144 -4 -172 -8 l-53 -7 0 111 c0 73 -4 115 -12 123 -18 18 -53 14
-73 -8z m125 -346 c0 -25 -40 -245 -52 -286 -8 -29 -17 -37 -41 -42 -73 -15
-75 -14 -82 72 -3 42 -10 115 -15 161 -5 47 -8 86 -6 89 4 4 122 18 169 21 19
1 27 -4 27 -15z m-980 -116 c0 -18 -9 -71 -21 -118 -11 -47 -20 -104 -20 -126
l0 -42 -61 -6 c-33 -4 -64 -4 -68 1 -7 9 -26 110 -35 193 -4 30 -8 62 -11 71
-3 13 14 20 93 36 130 27 123 28 123 -9z"/>
<path d="M1705 1443 c-22 -2 -94 -10 -160 -18 -67 -8 -137 -15 -156 -15 -23 0
-42 -7 -54 -20 -16 -18 -17 -33 -8 -201 l9 -181 29 -25 c24 -21 35 -24 68 -19
l40 7 -6 -53 c-10 -79 -59 -221 -121 -349 -64 -132 -107 -195 -176 -261 -56
-51 -65 -89 -29 -108 31 -17 59 -6 109 42 140 134 298 468 326 686 4 34 11 52
20 52 17 0 18 -59 4 -165 -4 -38 -11 -104 -14 -145 -3 -41 -11 -136 -17 -210
-14 -178 -6 -203 71 -243 34 -17 86 -32 130 -38 102 -15 545 -7 587 10 48 19
56 59 33 170 -24 116 -33 133 -72 129 -48 -5 -54 -24 -36 -114 8 -44 12 -83 8
-87 -4 -5 -133 -7 -286 -5 -219 3 -285 6 -308 18 l-29 14 7 101 c4 55 11 156
16 225 4 69 14 173 20 233 l13 107 81 0 c103 0 115 8 120 80 6 94 26 238 36
265 6 15 10 42 10 60 0 50 -35 65 -142 63 -46 -1 -101 -3 -123 -5z m145 -116
c0 -8 -4 -38 -10 -68 -5 -30 -12 -80 -15 -111 l-6 -58 -107 -1 c-59 0 -143 -4
-187 -9 -44 -4 -81 -7 -82 -7 -1 1 -4 54 -8 118 l-7 115 98 12 c151 19 154 19
242 21 62 1 82 -2 82 -12z"/>
<path d="M870 1403 c-19 -2 -98 -15 -175 -29 -77 -14 -167 -29 -200 -35 -85
-14 -105 -30 -105 -80 0 -22 4 -59 10 -82 5 -23 16 -100 24 -171 16 -144 25
-161 81 -159 34 1 35 0 35 -36 0 -60 -125 -347 -196 -452 -21 -30 -57 -77 -81
-105 -44 -52 -53 -80 -31 -102 67 -67 230 148 358 473 26 66 50 129 53 140 2
11 5 -120 6 -290 1 -264 3 -314 17 -333 24 -34 52 -27 114 30 31 29 100 88
153 131 53 43 104 89 113 102 15 23 15 27 0 50 -29 45 -50 35 -216 -102 l-65
-54 -3 287 c-1 158 -1 288 1 290 2 2 36 8 76 14 81 11 133 44 151 93 17 51 42
260 38 325 -3 39 -10 68 -20 78 -17 17 -80 25 -138 17z m47 -200 c-3 -54 -11
-121 -17 -149 l-11 -51 -102 -16 c-56 -9 -136 -19 -178 -22 l-76 -6 -7 58 c-3
32 -11 91 -16 132 -5 41 -8 76 -6 78 8 8 121 33 220 47 61 9 112 19 115 21 2
3 22 5 44 5 l40 0 -6 -97z"/>
</g>
</svg>
