<?xml version="1.0" standalone="no"?>
<!DOCTYPE svg PUBLIC "-//W3C//DTD SVG 20010904//EN"
 "http://www.w3.org/TR/2001/REC-SVG-20010904/DTD/svg10.dtd">
<svg version="1.0" xmlns="http://www.w3.org/2000/svg"
 width="248.000000pt" height="248.000000pt" viewBox="0 0 248.000000 248.000000"
 preserveAspectRatio="xMidYMid meet">
<metadata>
Created by potrace 1.10, written by Peter Selinger 2001-2011
</metadata>
<g transform="translate(0.000000,248.000000) scale(0.100000,-0.100000)"
fill="#000000" stroke="none">
<path d="M1105 2313 c-12 -12 -15 -25 -10 -47 11 -52 16 -278 8 -326 l-9 -45
-134 -16 c-74 -9 -171 -24 -215 -32 -44 -9 -118 -21 -163 -27 -46 -6 -95 -15
-109 -21 -13 -5 -37 -9 -51 -9 -41 0 -72 -26 -72 -61 0 -46 32 -53 143 -30 51
11 112 23 137 26 25 4 92 15 150 25 233 43 878 104 1193 114 128 5 157 16 157
61 0 42 -22 48 -133 42 -56 -4 -185 -11 -287 -17 -102 -6 -245 -17 -318 -25
-74 -8 -147 -15 -163 -15 l-29 0 0 190 c0 177 -1 191 -20 210 -24 24 -53 26
-75 3z"/>
<path d="M1645 1615 c-5 -2 -82 -8 -170 -15 -88 -6 -223 -18 -299 -26 -151
-15 -482 -79 -503 -96 -21 -17 -15 -55 12 -75 21 -16 28 -37 50 -158 14 -77
29 -171 32 -208 9 -97 16 -101 164 -82 187 25 172 27 180 -25 8 -50 1 -675 -7
-703 -5 -15 -14 -11 -63 28 -58 46 -87 55 -109 33 -26 -26 -13 -62 36 -103
125 -107 148 -118 192 -95 36 19 40 65 47 487 l6 412 26 5 c14 3 82 10 151 16
69 6 144 14 167 16 48 6 93 38 127 93 27 42 146 404 146 442 0 44 -28 59 -106
58 -38 0 -73 -2 -79 -4z m70 -112 c-3 -10 -29 -85 -56 -166 -27 -81 -56 -158
-65 -171 -19 -30 -54 -44 -124 -50 -30 -3 -95 -9 -145 -13 -49 -4 -114 -7
-144 -6 -29 2 -61 -2 -71 -7 -32 -17 -221 -43 -233 -31 -9 9 -57 263 -60 326
-2 26 2 30 33 36 246 46 352 60 575 75 50 3 115 9 145 14 30 4 77 8 104 9 42
1 47 -1 41 -16z"/>
</g>
</svg>
