<?xml version="1.0" standalone="no"?>
<!DOCTYPE svg PUBLIC "-//W3C//DTD SVG 20010904//EN"
 "http://www.w3.org/TR/2001/REC-SVG-20010904/DTD/svg10.dtd">
<svg version="1.0" xmlns="http://www.w3.org/2000/svg"
 width="248.000000pt" height="248.000000pt" viewBox="0 0 248.000000 248.000000"
 preserveAspectRatio="xMidYMid meet">
<metadata>
Created by potrace 1.10, written by Peter Selinger 2001-2011
</metadata>
<g transform="translate(0.000000,248.000000) scale(0.100000,-0.100000)"
fill="#000000" stroke="none">
<path d="M721 2106 c-6 -7 -36 -87 -65 -177 -114 -346 -191 -482 -457 -810
-49 -61 -89 -119 -89 -130 0 -10 11 -26 24 -34 38 -25 61 -6 185 148 75 94
112 133 118 125 12 -19 12 -676 0 -815 -11 -136 -7 -153 44 -153 19 0 32 7 40
22 15 28 35 317 38 538 1 172 -22 488 -38 519 -8 13 -2 32 25 76 80 132 140
272 213 495 43 131 49 178 29 198 -16 16 -53 15 -67 -2z"/>
<path d="M1916 2048 c-14 -23 -40 -132 -51 -221 -5 -37 -11 -50 -28 -56 -23
-9 -104 -20 -352 -46 -82 -9 -175 -20 -205 -25 -30 -4 -58 -6 -62 -3 -5 2 -8
70 -8 151 0 166 -9 196 -58 190 -46 -5 -54 -36 -49 -199 l5 -147 -123 -4
c-131 -4 -155 -12 -155 -53 0 -41 25 -50 157 -54 l123 -3 1 -77 c0 -42 2 -85
4 -96 3 -11 5 -78 5 -150 1 -148 12 -178 58 -173 49 6 53 30 45 279 l-6 226
79 11 c43 7 164 21 267 32 104 11 209 23 234 27 41 5 45 4 40 -13 -3 -10 -15
-64 -27 -119 -12 -55 -35 -158 -51 -228 -32 -143 -35 -167 -17 -185 17 -17 52
-15 70 6 15 16 54 159 77 282 6 30 21 104 34 165 l23 109 80 12 c153 22 211
54 185 103 -19 35 -39 39 -100 21 -31 -10 -76 -21 -100 -25 l-44 -7 6 70 c4
39 12 83 17 97 14 36 13 98 -2 113 -19 19 -56 14 -72 -10z"/>
</g>
</svg>
