<?xml version="1.0" standalone="no"?>
<!DOCTYPE svg PUBLIC "-//W3C//DTD SVG 20010904//EN"
 "http://www.w3.org/TR/2001/REC-SVG-20010904/DTD/svg10.dtd">
<svg version="1.0" xmlns="http://www.w3.org/2000/svg"
 width="248.000000pt" height="248.000000pt" viewBox="0 0 248.000000 248.000000"
 preserveAspectRatio="xMidYMid meet">
<metadata>
Created by potrace 1.10, written by Peter Selinger 2001-2011
</metadata>
<g transform="translate(0.000000,248.000000) scale(0.100000,-0.100000)"
fill="#000000" stroke="none">
<path d="M721 2106 c-6 -7 -36 -87 -65 -177 -114 -346 -191 -482 -457 -810
-49 -61 -89 -119 -89 -130 0 -10 11 -26 24 -34 38 -25 61 -6 185 148 75 94
112 133 118 125 12 -19 12 -676 0 -815 -11 -136 -7 -153 44 -153 19 0 32 7 40
22 15 28 35 317 38 538 1 172 -22 488 -38 519 -8 13 -2 32 25 76 80 132 140
272 213 495 43 131 49 178 29 198 -16 16 -53 15 -67 -2z"/>
<path d="M2106 1808 c-33 -10 -100 -23 -150 -28 -50 -5 -143 -17 -206 -25 -63
-8 -180 -21 -260 -30 -80 -9 -158 -18 -175 -21 -16 -2 -125 -8 -241 -12 -224
-8 -244 -13 -244 -57 0 -45 21 -50 204 -50 94 0 212 6 261 13 50 7 169 21 265
32 548 62 619 74 646 116 12 17 13 27 4 43 -18 35 -41 39 -104 19z"/>
</g>
</svg>
