<?xml version="1.0" standalone="no"?>
<!DOCTYPE svg PUBLIC "-//W3C//DTD SVG 20010904//EN"
 "http://www.w3.org/TR/2001/REC-SVG-20010904/DTD/svg10.dtd">
<svg version="1.0" xmlns="http://www.w3.org/2000/svg"
 width="248.000000pt" height="248.000000pt" viewBox="0 0 248.000000 248.000000"
 preserveAspectRatio="xMidYMid meet">
<metadata>
Created by potrace 1.10, written by Peter Selinger 2001-2011
</metadata>
<g transform="translate(0.000000,248.000000) scale(0.100000,-0.100000)"
fill="#000000" stroke="none">
<path d="M1459 2333 c-11 -12 -14 -51 -13 -157 l2 -141 -132 -27 c-72 -15
-162 -33 -201 -39 -89 -14 -117 -31 -113 -67 2 -17 12 -31 28 -38 27 -13 33
-12 235 27 156 31 236 45 345 63 52 9 138 25 190 36 52 11 115 22 140 26 80
10 100 22 100 59 0 27 -5 35 -29 45 -24 10 -47 8 -133 -10 -158 -33 -307 -54
-315 -46 -5 4 -10 63 -13 130 -5 131 -14 156 -55 156 -12 0 -29 -8 -36 -17z"/>
<path d="M409 2033 c-11 -13 -14 -62 -12 -229 l2 -214 -37 -9 c-20 -4 -84 -18
-142 -31 -125 -26 -152 -41 -148 -78 5 -47 39 -53 153 -28 55 13 117 26 138
30 l37 7 0 -279 0 -280 -67 -35 c-38 -19 -95 -45 -128 -58 -71 -26 -95 -44
-95 -74 0 -28 18 -45 51 -45 39 0 167 54 283 120 55 32 157 87 226 122 110 57
125 68 128 92 6 52 -41 73 -98 43 -14 -8 -60 -32 -102 -55 -42 -23 -80 -42
-83 -42 -3 0 -5 116 -5 258 l0 258 126 27 c70 15 133 32 140 38 19 16 18 54
-2 70 -21 17 -70 15 -173 -10 -47 -11 -87 -18 -89 -16 -3 2 -7 91 -9 197 -5
208 -13 238 -57 238 -13 0 -30 -8 -37 -17z"/>
</g>
</svg>
