<?xml version="1.0" standalone="no"?>
<!DOCTYPE svg PUBLIC "-//W3C//DTD SVG 20010904//EN"
 "http://www.w3.org/TR/2001/REC-SVG-20010904/DTD/svg10.dtd">
<svg version="1.0" xmlns="http://www.w3.org/2000/svg"
 width="248.000000pt" height="248.000000pt" viewBox="0 0 248.000000 248.000000"
 preserveAspectRatio="xMidYMid meet">
<metadata>
Created by potrace 1.10, written by Peter Selinger 2001-2011
</metadata>
<g transform="translate(0.000000,248.000000) scale(0.100000,-0.100000)"
fill="#000000" stroke="none">
<path d="M596 2268 c-9 -12 -16 -32 -16 -43 0 -11 -18 -54 -40 -95 -22 -41
-90 -176 -151 -299 -61 -123 -144 -278 -185 -343 -41 -65 -74 -122 -74 -127 0
-5 -22 -39 -50 -77 -53 -73 -59 -93 -34 -118 16 -17 33 -20 58 -10 19 7 87 96
114 151 12 22 48 84 82 137 33 52 108 193 166 313 86 176 159 314 180 342 2 2
41 -36 86 -85 155 -166 313 -320 361 -353 31 -21 57 -31 74 -29 56 7 56 70 1
102 -73 43 -427 411 -463 481 -29 58 -45 75 -71 75 -13 0 -30 -10 -38 -22z"/>
<path d="M735 1705 c-27 -8 -104 -26 -170 -41 -126 -28 -155 -43 -155 -79 0
-46 32 -54 135 -31 221 48 303 69 323 82 24 16 29 53 10 72 -15 15 -80 14
-143 -3z"/>
<path d="M765 1415 c-88 -23 -187 -50 -220 -58 -33 -9 -98 -26 -145 -37 -106
-26 -132 -42 -128 -78 5 -47 40 -54 138 -28 102 28 182 49 314 81 134 34 238
66 254 78 6 5 12 20 12 32 0 25 -14 40 -45 48 -11 2 -92 -14 -180 -38z"/>
</g>
</svg>
