<?xml version="1.0" standalone="no"?>
<!DOCTYPE svg PUBLIC "-//W3C//DTD SVG 20010904//EN"
 "http://www.w3.org/TR/2001/REC-SVG-20010904/DTD/svg10.dtd">
<svg version="1.0" xmlns="http://www.w3.org/2000/svg"
 width="248.000000pt" height="248.000000pt" viewBox="0 0 248.000000 248.000000"
 preserveAspectRatio="xMidYMid meet">
<metadata>
Created by potrace 1.10, written by Peter Selinger 2001-2011
</metadata>
<g transform="translate(0.000000,248.000000) scale(0.100000,-0.100000)"
fill="#000000" stroke="none">
<path d="M596 2268 c-9 -12 -16 -32 -16 -43 0 -11 -18 -54 -40 -95 -22 -41
-90 -176 -151 -299 -61 -123 -144 -278 -185 -343 -41 -65 -74 -122 -74 -127 0
-5 -22 -39 -50 -77 -53 -73 -59 -93 -34 -118 16 -17 33 -20 58 -10 19 7 87 96
114 151 12 22 48 84 82 137 33 52 108 193 166 313 86 176 159 314 180 342 2 2
41 -36 86 -85 155 -166 313 -320 361 -353 31 -21 57 -31 74 -29 56 7 56 70 1
102 -73 43 -427 411 -463 481 -29 58 -45 75 -71 75 -13 0 -30 -10 -38 -22z"/>
<path d="M735 1705 c-27 -8 -104 -26 -170 -41 -127 -29 -155 -43 -155 -79 0
-47 38 -53 161 -28 l29 6 0 -96 0 -96 -52 -15 c-29 -7 -93 -23 -143 -35 -111
-27 -137 -43 -133 -79 5 -41 44 -56 97 -37 23 8 76 21 119 30 42 9 85 18 95
21 16 5 17 -17 17 -368 1 -205 5 -393 9 -417 12 -62 47 -86 84 -58 16 11 18
46 17 445 0 341 2 433 12 436 7 3 65 19 128 36 63 18 121 37 128 43 21 17 10
60 -19 74 -22 11 -42 8 -135 -17 -60 -17 -110 -30 -111 -30 -2 0 -3 43 -3 95
l0 94 38 10 c20 5 51 13 67 17 66 14 96 59 63 92 -15 15 -80 14 -143 -3z"/>
</g>
</svg>
