<?xml version="1.0" standalone="no"?>
<!DOCTYPE svg PUBLIC "-//W3C//DTD SVG 20010904//EN"
 "http://www.w3.org/TR/2001/REC-SVG-20010904/DTD/svg10.dtd">
<svg version="1.0" xmlns="http://www.w3.org/2000/svg"
 width="248.000000pt" height="248.000000pt" viewBox="0 0 248.000000 248.000000"
 preserveAspectRatio="xMidYMid meet">
<metadata>
Created by potrace 1.10, written by Peter Selinger 2001-2011
</metadata>
<g transform="translate(0.000000,248.000000) scale(0.100000,-0.100000)"
fill="#000000" stroke="none">
<path d="M593 2318 c-6 -7 -16 -114 -23 -238 -26 -447 -22 -413 -50 -427 -21
-9 -152 -35 -310 -59 -68 -11 -103 -57 -68 -92 16 -16 94 -15 176 2 107 23
207 40 212 35 2 -2 3 -53 2 -114 -1 -60 -7 -333 -13 -605 -5 -272 -14 -519
-19 -549 -12 -65 5 -101 45 -101 69 0 74 59 91 1045 4 228 10 352 17 357 6 3
30 9 55 13 53 8 186 41 225 57 43 17 50 80 10 95 -9 4 -64 -5 -122 -20 -178
-44 -171 -44 -171 -5 0 18 7 108 15 200 21 238 21 362 1 393 -18 27 -57 34
-73 13z"/>
</g>
</svg>
