<?xml version="1.0" standalone="no"?>
<!DOCTYPE svg PUBLIC "-//W3C//DTD SVG 20010904//EN"
 "http://www.w3.org/TR/2001/REC-SVG-20010904/DTD/svg10.dtd">
<svg version="1.0" xmlns="http://www.w3.org/2000/svg"
 width="248.000000pt" height="248.000000pt" viewBox="0 0 248.000000 248.000000"
 preserveAspectRatio="xMidYMid meet">
<metadata>
Created by potrace 1.10, written by Peter Selinger 2001-2011
</metadata>
<g transform="translate(0.000000,248.000000) scale(0.100000,-0.100000)"
fill="#000000" stroke="none">
<path d="M593 2318 c-6 -7 -16 -114 -23 -238 -26 -447 -22 -413 -50 -427 -21
-9 -152 -35 -310 -59 -68 -11 -103 -57 -68 -92 15 -15 97 -15 158 -1 84 20
200 36 200 27 0 -14 -67 -171 -130 -303 -62 -131 -145 -279 -211 -376 -48 -71
-56 -101 -33 -123 33 -33 65 -17 115 59 85 129 150 243 219 387 39 82 69 133
69 120 3 -116 -22 -980 -29 -1021 -12 -65 5 -101 45 -101 69 0 74 59 91 1045
4 228 10 352 17 357 6 3 30 9 55 13 53 8 186 41 225 57 43 17 50 80 10 95 -9
4 -64 -5 -122 -20 -178 -44 -171 -44 -171 -5 0 18 7 108 15 200 21 238 21 362
1 393 -18 27 -57 34 -73 13z"/>
</g>
</svg>
