<?xml version="1.0" standalone="no"?>
<!DOCTYPE svg PUBLIC "-//W3C//DTD SVG 20010904//EN"
 "http://www.w3.org/TR/2001/REC-SVG-20010904/DTD/svg10.dtd">
<svg version="1.0" xmlns="http://www.w3.org/2000/svg"
 width="248.000000pt" height="248.000000pt" viewBox="0 0 248.000000 248.000000"
 preserveAspectRatio="xMidYMid meet">
<metadata>
Created by potrace 1.10, written by Peter Selinger 2001-2011
</metadata>
<g transform="translate(0.000000,248.000000) scale(0.100000,-0.100000)"
fill="#000000" stroke="none">
<path d="M800 2270 c-41 -4 -104 -15 -140 -25 -36 -9 -103 -20 -150 -23 -85
-7 -85 -7 -102 -42 -15 -28 -18 -61 -18 -170 0 -190 -18 -779 -31 -1005 -18
-313 -70 -613 -128 -737 -35 -74 -16 -119 43 -104 52 13 107 178 151 451 35
218 51 468 65 1000 6 248 12 461 13 475 2 23 7 26 62 31 33 4 88 14 121 23 34
9 83 16 109 16 44 0 47 -2 42 -22 -15 -63 -29 -819 -24 -1302 l5 -528 -33 36
c-35 39 -64 45 -89 20 -25 -24 -19 -47 22 -100 21 -27 51 -71 66 -97 32 -56
65 -75 99 -60 45 21 47 48 40 688 -4 425 -2 713 8 985 16 468 16 457 -1 474
-22 21 -47 24 -130 16z"/>
</g>
</svg>
