<?xml version="1.0" standalone="no"?>
<!DOCTYPE svg PUBLIC "-//W3C//DTD SVG 20010904//EN"
 "http://www.w3.org/TR/2001/REC-SVG-20010904/DTD/svg10.dtd">
<svg version="1.0" xmlns="http://www.w3.org/2000/svg"
 width="248.000000pt" height="248.000000pt" viewBox="0 0 248.000000 248.000000"
 preserveAspectRatio="xMidYMid meet">
<metadata>
Created by potrace 1.10, written by Peter Selinger 2001-2011
</metadata>
<g transform="translate(0.000000,248.000000) scale(0.100000,-0.100000)"
fill="#000000" stroke="none">
<path d="M572 2188 c-34 -34 10 -95 165 -229 101 -87 127 -101 151 -77 27 27
14 67 -40 116 -29 26 -89 82 -134 125 -83 77 -115 92 -142 65z"/>
<path d="M1492 2028 c-9 -9 -12 -79 -12 -253 0 -222 2 -243 18 -258 10 -10 28
-17 39 -17 45 0 48 19 48 266 0 214 -1 234 -19 253 -21 23 -56 27 -74 9z"/>
<path d="M302 1528 c-24 -24 -13 -56 31 -91 59 -49 252 -157 280 -157 49 0 63
52 25 87 -13 11 -59 39 -103 63 -44 23 -101 58 -128 76 -49 35 -84 43 -105 22z"/>
<path d="M698 893 c-21 -24 -144 -215 -247 -383 -45 -74 -96 -156 -113 -182
-21 -32 -28 -53 -23 -68 8 -26 47 -45 68 -34 19 11 84 108 172 254 38 63 106
173 152 243 46 70 83 136 83 145 0 41 -63 58 -92 25z"/>
</g>
</svg>
