<?xml version="1.0" standalone="no"?>
<!DOCTYPE svg PUBLIC "-//W3C//DTD SVG 20010904//EN"
 "http://www.w3.org/TR/2001/REC-SVG-20010904/DTD/svg10.dtd">
<svg version="1.0" xmlns="http://www.w3.org/2000/svg"
 width="248.000000pt" height="248.000000pt" viewBox="0 0 248.000000 248.000000"
 preserveAspectRatio="xMidYMid meet">
<metadata>
Created by potrace 1.10, written by Peter Selinger 2001-2011
</metadata>
<g transform="translate(0.000000,248.000000) scale(0.100000,-0.100000)"
fill="#000000" stroke="none">
<path d="M1079 2369 c-15 -15 -20 -29 -16 -48 5 -25 -13 -199 -29 -276 -12
-61 68 -88 97 -32 13 24 38 212 39 290 0 75 -47 110 -91 66z"/>
<path d="M305 1997 c-16 -12 -18 -32 -21 -173 -1 -87 -4 -176 -6 -198 -4 -45
15 -63 56 -52 37 9 52 51 61 168 15 206 -20 305 -90 255z"/>
</g>
</svg>
