<?xml version="1.0" standalone="no"?>
<!DOCTYPE svg PUBLIC "-//W3C//DTD SVG 20010904//EN"
 "http://www.w3.org/TR/2001/REC-SVG-20010904/DTD/svg10.dtd">
<svg version="1.0" xmlns="http://www.w3.org/2000/svg"
 width="248.000000pt" height="248.000000pt" viewBox="0 0 248.000000 248.000000"
 preserveAspectRatio="xMidYMid meet">
<metadata>
Created by potrace 1.10, written by Peter Selinger 2001-2011
</metadata>
<g transform="translate(0.000000,248.000000) scale(0.100000,-0.100000)"
fill="#000000" stroke="none">
<path d="M898 1845 c-14 -14 -330 -59 -595 -84 -89 -9 -113 -21 -113 -56 0
-45 17 -48 186 -35 86 6 159 9 162 5 10 -10 14 -329 4 -343 -5 -7 -78 -25
-162 -41 -112 -21 -158 -34 -167 -47 -18 -25 -16 -41 8 -65 15 -15 28 -19 47
-14 46 11 235 45 254 45 16 0 18 -9 18 -77 0 -43 -5 -121 -10 -173 -10 -107 0
-140 44 -140 43 0 47 19 56 221 5 105 12 195 17 199 4 4 50 15 102 25 118 23
153 51 118 99 -16 22 -35 22 -130 2 -43 -9 -82 -14 -88 -11 -5 4 -9 80 -9 174
l0 169 58 6 c113 14 223 39 248 58 26 21 32 56 12 76 -12 12 -50 16 -60 7z"/>
</g>
</svg>
