<?xml version="1.0" standalone="no"?>
<!DOCTYPE svg PUBLIC "-//W3C//DTD SVG 20010904//EN"
 "http://www.w3.org/TR/2001/REC-SVG-20010904/DTD/svg10.dtd">
<svg version="1.0" xmlns="http://www.w3.org/2000/svg"
 width="248.000000pt" height="248.000000pt" viewBox="0 0 248.000000 248.000000"
 preserveAspectRatio="xMidYMid meet">
<metadata>
Created by potrace 1.10, written by Peter Selinger 2001-2011
</metadata>
<g transform="translate(0.000000,248.000000) scale(0.100000,-0.100000)"
fill="#000000" stroke="none">
<path d="M1564 2326 c-23 -17 -31 -110 -33 -356 -1 -85 -5 -160 -9 -167 -4 -6
-48 -16 -97 -22 -122 -14 -354 -49 -377 -57 -22 -7 -40 -47 -32 -69 11 -27 42
-37 77 -26 62 19 419 64 426 53 3 -5 1 -115 -6 -244 -6 -128 -12 -437 -12
-685 -1 -249 -4 -453 -9 -453 -4 0 -27 20 -50 45 -44 47 -70 55 -96 29 -24
-24 -19 -50 18 -91 18 -21 57 -67 85 -103 29 -36 59 -69 67 -73 22 -13 54 2
65 30 5 14 9 213 10 461 0 409 25 1081 40 1097 4 3 89 12 190 20 351 28 409
40 409 83 0 10 -6 26 -13 37 -13 17 -21 17 -118 6 -251 -28 -463 -40 -471 -28
-4 7 -8 39 -7 72 0 92 17 367 25 392 4 14 -1 28 -15 42 -25 25 -40 26 -67 7z"/>
<path d="M1860 2236 c-24 -29 -7 -60 56 -101 33 -22 89 -64 123 -92 35 -29 69
-53 77 -53 18 0 54 36 54 53 0 43 -220 207 -277 207 -11 0 -26 -7 -33 -14z"/>
<path d="M898 1845 c-14 -14 -330 -59 -595 -84 -89 -9 -113 -21 -113 -56 0
-45 17 -48 186 -35 86 6 159 9 162 5 10 -10 14 -329 4 -343 -5 -7 -78 -25
-162 -41 -112 -21 -158 -34 -167 -47 -18 -25 -16 -41 8 -65 15 -15 28 -19 47
-14 48 12 235 45 255 45 19 0 20 -5 12 -152 -5 -84 -8 -169 -8 -188 l1 -35
-199 -98 c-113 -56 -204 -107 -210 -118 -13 -25 -3 -56 22 -70 16 -8 62 11
272 117 240 121 401 209 440 242 20 17 22 53 5 70 -21 21 -51 13 -133 -34 -44
-25 -84 -46 -88 -47 -10 -2 -8 235 1 302 l7 45 104 21 c123 26 153 51 118 99
-16 22 -35 22 -130 2 -43 -9 -82 -14 -88 -11 -5 4 -9 80 -9 174 l0 169 58 6
c113 14 223 39 248 58 26 21 32 56 12 76 -12 12 -50 16 -60 7z"/>
<path d="M1901 1453 c-64 -65 -140 -137 -168 -161 -37 -30 -53 -50 -53 -67 0
-28 35 -56 59 -48 34 13 169 128 231 197 36 40 80 85 98 100 51 44 39 96 -21
96 -24 0 -50 -21 -146 -117z"/>
<path d="M1030 1390 c-41 -41 -25 -61 101 -131 60 -33 111 -65 115 -70 8 -14
60 -11 73 5 7 8 11 27 9 43 -3 24 -19 37 -128 100 -69 40 -131 72 -137 73 -7
0 -22 -9 -33 -20z"/>
<path d="M1652 1108 c-7 -7 -12 -21 -12 -31 0 -22 133 -151 410 -399 102 -91
205 -187 230 -212 25 -26 53 -46 66 -46 25 0 54 29 54 55 0 21 -102 123 -275
275 -66 58 -167 150 -225 206 -158 152 -214 186 -248 152z"/>
<path d="M1097 878 c-233 -240 -261 -280 -225 -316 31 -31 55 -12 257 197 202
211 221 237 189 269 -33 33 -60 16 -221 -150z"/>
</g>
</svg>
