<?xml version="1.0" standalone="no"?>
<!DOCTYPE svg PUBLIC "-//W3C//DTD SVG 20010904//EN"
 "http://www.w3.org/TR/2001/REC-SVG-20010904/DTD/svg10.dtd">
<svg version="1.0" xmlns="http://www.w3.org/2000/svg"
 width="248.000000pt" height="248.000000pt" viewBox="0 0 248.000000 248.000000"
 preserveAspectRatio="xMidYMid meet">
<metadata>
Created by potrace 1.10, written by Peter Selinger 2001-2011
</metadata>
<g transform="translate(0.000000,248.000000) scale(0.100000,-0.100000)"
fill="#000000" stroke="none">
<path d="M676 2328 c-14 -19 -16 -72 -16 -370 l0 -347 -47 -6 c-27 -4 -115
-20 -198 -36 -82 -16 -170 -29 -195 -29 -25 0 -56 -7 -68 -16 -47 -33 -13 -94
53 -94 17 0 113 16 214 35 100 19 195 35 211 35 l27 0 7 -447 c3 -247 9 -506
12 -578 l7 -129 -49 40 c-77 65 -124 80 -152 52 -26 -26 -13 -56 46 -101 31
-25 80 -70 108 -101 43 -48 56 -56 86 -56 21 0 41 7 49 17 16 19 17 78 4 814
l-8 507 54 11 c30 6 132 26 227 45 95 19 179 39 187 46 19 16 19 54 1 69 -8 7
-27 13 -43 13 -25 1 -238 -38 -350 -63 -80 -17 -73 -48 -73 329 0 367 -2 382
-55 382 -13 0 -31 -10 -39 -22z"/>
<path d="M1413 2098 c-6 -7 -13 -69 -16 -138 -10 -244 -85 -480 -208 -662 -44
-64 -48 -90 -18 -111 28 -20 54 -11 88 32 42 54 115 187 140 257 l23 61 81 17
c45 9 129 28 187 41 58 13 120 26 139 29 l34 6 -6 -167 c-4 -123 -11 -187 -26
-238 -88 -309 -110 -371 -179 -510 -66 -134 -181 -302 -254 -371 -35 -34 -103
-87 -151 -119 -76 -49 -87 -60 -87 -85 0 -35 30 -55 68 -45 66 16 281 192 334
272 13 21 47 72 75 114 98 145 184 337 243 539 71 242 90 353 90 535 0 52 3
95 8 95 4 0 39 7 77 15 39 8 106 19 149 25 85 11 116 28 116 65 0 39 -23 48
-103 41 -39 -4 -103 -13 -142 -21 -164 -32 -233 -44 -275 -50 -25 -4 -92 -18
-150 -31 -58 -14 -123 -29 -145 -34 -21 -5 -41 -8 -42 -6 -2 2 3 32 11 67 23
99 38 258 31 308 -4 25 -14 54 -22 64 -19 20 -56 23 -70 5z"/>
<path d="M892 2008 c-40 -40 26 -120 151 -182 105 -51 164 -45 155 16 -2 18
-23 34 -90 68 -47 25 -102 60 -122 78 -38 33 -73 41 -94 20z"/>
<path d="M1014 1263 c-20 -31 -71 -94 -113 -140 -84 -92 -92 -107 -80 -140 6
-18 16 -23 41 -23 29 0 44 12 114 88 126 136 170 222 132 260 -27 27 -56 13
-94 -45z"/>
<path d="M315 1048 c-138 -23 -149 -27 -153 -57 -5 -33 25 -61 65 -61 56 0
216 30 253 48 60 29 50 93 -14 91 -17 -1 -85 -10 -151 -21z"/>
<path d="M832 828 c-22 -22 -13 -55 22 -84 84 -72 213 -164 229 -164 4 0 38
-18 74 -40 76 -46 86 -47 113 -20 42 42 17 72 -113 138 -47 24 -103 58 -124
76 -116 97 -172 123 -201 94z"/>
<path d="M390 730 c-36 -27 -93 -72 -127 -101 -34 -28 -75 -60 -92 -70 -53
-32 -37 -89 23 -89 35 0 53 11 150 90 38 30 95 77 127 103 60 48 73 79 47 105
-23 23 -63 12 -128 -38z"/>
</g>
</svg>
