<?xml version="1.0" standalone="no"?>
<!DOCTYPE svg PUBLIC "-//W3C//DTD SVG 20010904//EN"
 "http://www.w3.org/TR/2001/REC-SVG-20010904/DTD/svg10.dtd">
<svg version="1.0" xmlns="http://www.w3.org/2000/svg"
 width="248.000000pt" height="248.000000pt" viewBox="0 0 248.000000 248.000000"
 preserveAspectRatio="xMidYMid meet">
<metadata>
Created by potrace 1.10, written by Peter Selinger 2001-2011
</metadata>
<g transform="translate(0.000000,248.000000) scale(0.100000,-0.100000)"
fill="#000000" stroke="none">
<path d="M572 2188 c-34 -34 10 -95 165 -229 101 -87 127 -101 151 -77 27 27
14 67 -40 116 -29 26 -89 82 -134 125 -83 77 -115 92 -142 65z"/>
<path d="M1491 2026 c-8 -10 -11 -80 -11 -230 1 -118 -1 -220 -4 -224 -5 -9
-45 -15 -331 -52 -321 -42 -335 -46 -335 -95 0 -48 36 -55 180 -31 47 8 101
16 121 19 l36 5 7 -56 c8 -63 18 -235 41 -660 9 -180 19 -293 27 -310 18 -37
61 -42 82 -10 12 19 13 45 6 163 -5 77 -14 235 -20 350 -6 116 -15 260 -21
321 -5 60 -9 133 -9 162 0 46 3 52 23 56 77 14 465 58 804 91 100 10 153 25
170 51 14 22 14 26 -2 50 -14 22 -22 25 -53 21 -223 -29 -419 -51 -544 -62
l-66 -6 -4 209 c-3 190 -5 212 -22 231 -22 24 -58 27 -75 7z"/>
<path d="M302 1528 c-24 -24 -13 -56 31 -91 59 -49 252 -157 280 -157 49 0 63
52 25 87 -13 11 -59 39 -103 63 -44 23 -101 58 -128 76 -49 35 -84 43 -105 22z"/>
<path d="M698 893 c-21 -24 -144 -215 -247 -383 -45 -74 -96 -156 -113 -182
-21 -32 -28 -53 -23 -68 8 -26 47 -45 68 -34 19 11 84 108 172 254 38 63 106
173 152 243 46 70 83 136 83 145 0 41 -63 58 -92 25z"/>
</g>
</svg>
