<?xml version="1.0" standalone="no"?>
<!DOCTYPE svg PUBLIC "-//W3C//DTD SVG 20010904//EN"
 "http://www.w3.org/TR/2001/REC-SVG-20010904/DTD/svg10.dtd">
<svg version="1.0" xmlns="http://www.w3.org/2000/svg"
 width="248.000000pt" height="248.000000pt" viewBox="0 0 248.000000 248.000000"
 preserveAspectRatio="xMidYMid meet">
<metadata>
Created by potrace 1.10, written by Peter Selinger 2001-2011
</metadata>
<g transform="translate(0.000000,248.000000) scale(0.100000,-0.100000)"
fill="#000000" stroke="none">
<path d="M459 2053 c-12 -13 -14 -168 -17 -896 -3 -960 -4 -927 53 -927 57 0
55 -35 55 920 0 776 -2 878 -16 898 -18 26 -56 29 -75 5z"/>
<path d="M1019 2033 c-12 -13 -14 -160 -14 -862 0 -734 2 -850 15 -876 17 -34
59 -45 79 -21 10 11 12 208 11 873 0 742 -3 860 -16 880 -17 27 -56 30 -75 6z"/>
</g>
</svg>
