<?xml version="1.0" standalone="no"?>
<!DOCTYPE svg PUBLIC "-//W3C//DTD SVG 20010904//EN"
 "http://www.w3.org/TR/2001/REC-SVG-20010904/DTD/svg10.dtd">
<svg version="1.0" xmlns="http://www.w3.org/2000/svg"
 width="248.000000pt" height="248.000000pt" viewBox="0 0 248.000000 248.000000"
 preserveAspectRatio="xMidYMid meet">
<metadata>
Created by potrace 1.10, written by Peter Selinger 2001-2011
</metadata>
<g transform="translate(0.000000,248.000000) scale(0.100000,-0.100000)"
fill="#000000" stroke="none">
<path d="M676 2328 c-14 -19 -16 -72 -16 -370 l0 -347 -47 -6 c-27 -4 -115
-20 -198 -36 -82 -16 -170 -29 -195 -29 -25 0 -56 -7 -68 -16 -47 -33 -13 -94
53 -94 17 0 113 16 214 35 100 19 195 35 211 35 l27 0 7 -447 c3 -247 9 -506
12 -578 l7 -129 -49 40 c-77 65 -124 80 -152 52 -26 -26 -13 -56 46 -101 31
-25 80 -70 108 -101 43 -48 56 -56 86 -56 21 0 41 7 49 17 16 19 17 78 4 814
l-8 507 54 11 c30 6 132 26 227 45 95 19 179 40 188 47 22 18 13 62 -16 76
-24 11 -115 -3 -373 -57 -27 -5 -55 -10 -63 -10 -12 0 -14 52 -14 338 0 367
-2 382 -55 382 -13 0 -31 -10 -39 -22z"/>
<path d="M315 1048 c-138 -23 -149 -27 -153 -57 -5 -33 25 -61 65 -61 56 0
216 30 253 48 60 29 50 93 -14 91 -17 -1 -85 -10 -151 -21z"/>
<path d="M390 730 c-36 -27 -93 -72 -127 -101 -34 -28 -75 -60 -92 -70 -53
-32 -37 -89 23 -89 35 0 53 11 150 90 38 30 95 77 127 103 60 48 73 79 47 105
-23 23 -63 12 -128 -38z"/>
</g>
</svg>
