<?xml version="1.0" standalone="no"?>
<!DOCTYPE svg PUBLIC "-//W3C//DTD SVG 20010904//EN"
 "http://www.w3.org/TR/2001/REC-SVG-20010904/DTD/svg10.dtd">
<svg version="1.0" xmlns="http://www.w3.org/2000/svg"
 width="248.000000pt" height="248.000000pt" viewBox="0 0 248.000000 248.000000"
 preserveAspectRatio="xMidYMid meet">
<metadata>
Created by potrace 1.10, written by Peter Selinger 2001-2011
</metadata>
<g transform="translate(0.000000,248.000000) scale(0.100000,-0.100000)"
fill="#000000" stroke="none">
<path d="M1079 2369 c-16 -16 -20 -29 -16 -52 3 -18 0 -77 -6 -132 l-12 -100
-95 -12 c-52 -7 -187 -26 -300 -43 -217 -32 -273 -36 -305 -26 -11 4 -28 1
-39 -7 -17 -13 -19 -30 -22 -173 -1 -87 -4 -176 -6 -198 -4 -48 17 -65 59 -50
38 13 51 58 60 200 6 105 8 115 27 119 19 4 211 31 391 56 351 47 1145 87
1145 58 0 -20 -84 -116 -144 -164 -66 -55 -81 -77 -66 -104 26 -50 72 -32 181
67 62 56 179 221 179 250 0 36 -33 51 -130 61 -51 6 -127 8 -169 6 -42 -3
-161 -7 -266 -9 -104 -3 -234 -10 -289 -16 -54 -6 -100 -10 -102 -8 -2 3 1 42
6 89 15 129 13 166 -10 189 -26 26 -45 25 -71 -1z"/>
<path d="M1270 1810 c-32 -32 -31 -149 1 -234 46 -125 205 -212 362 -200 82 7
107 15 123 39 15 23 15 27 0 50 -16 25 -18 25 -110 19 -104 -8 -146 2 -212 47
-60 41 -79 86 -79 187 0 71 -3 86 -19 98 -27 19 -42 18 -66 -6z"/>
<path d="M766 1738 c-9 -12 -16 -28 -16 -35 0 -33 -93 -194 -149 -257 -64 -72
-81 -108 -64 -135 20 -32 53 -25 100 21 133 128 249 368 201 416 -19 19 -55
14 -72 -10z"/>
<path d="M963 1308 c-6 -7 -13 -50 -16 -94 -7 -119 -7 -118 -129 -133 -57 -7
-130 -19 -163 -26 -33 -7 -77 -16 -98 -19 -47 -6 -67 -21 -67 -51 0 -48 54
-62 152 -39 73 17 246 42 252 37 8 -8 -47 -171 -89 -266 -75 -167 -186 -308
-305 -384 -103 -66 -119 -92 -79 -128 25 -24 47 -16 147 49 177 117 321 340
412 639 27 87 37 108 54 112 86 18 253 46 309 51 l69 7 -20 -39 c-58 -116 -91
-195 -102 -244 -7 -30 -21 -93 -32 -140 -43 -182 0 -324 121 -401 83 -53 196
-76 426 -85 131 -5 146 -4 228 20 97 29 176 65 198 92 21 25 16 118 -11 215
-26 93 -43 119 -75 119 -49 0 -56 -37 -25 -148 11 -39 20 -85 20 -101 0 -28
-5 -31 -87 -61 l-88 -32 -180 5 c-175 6 -273 20 -325 46 -35 19 -79 61 -96 93
-40 77 4 340 87 508 22 45 55 106 74 136 42 65 44 97 10 120 -22 15 -37 14
-192 -6 -92 -11 -184 -25 -203 -29 -19 -5 -50 -12 -68 -15 -33 -6 -34 -6 -26
26 12 59 7 138 -12 159 -19 22 -57 25 -71 7z"/>
</g>
</svg>
