<?xml version="1.0" standalone="no"?>
<!DOCTYPE svg PUBLIC "-//W3C//DTD SVG 20010904//EN"
 "http://www.w3.org/TR/2001/REC-SVG-20010904/DTD/svg10.dtd">
<svg version="1.0" xmlns="http://www.w3.org/2000/svg"
 width="248.000000pt" height="248.000000pt" viewBox="0 0 248.000000 248.000000"
 preserveAspectRatio="xMidYMid meet">
<metadata>
Created by potrace 1.10, written by Peter Selinger 2001-2011
</metadata>
<g transform="translate(0.000000,248.000000) scale(0.100000,-0.100000)"
fill="#000000" stroke="none">
<path d="M898 1845 c-14 -14 -330 -59 -595 -84 -89 -9 -113 -21 -113 -56 0
-45 17 -48 186 -35 86 6 159 9 162 5 10 -10 14 -329 4 -343 -5 -7 -78 -25
-162 -41 -112 -21 -158 -34 -167 -47 -18 -25 -16 -41 8 -65 15 -15 28 -19 47
-14 48 12 235 45 255 45 19 0 20 -5 12 -152 -5 -84 -8 -169 -8 -188 l1 -35
-199 -98 c-113 -56 -204 -107 -210 -118 -13 -25 -3 -56 22 -70 16 -8 62 11
272 117 240 121 401 209 440 242 20 17 22 53 5 70 -21 21 -51 13 -133 -34 -44
-25 -84 -46 -88 -47 -10 -2 -8 235 1 302 l7 45 104 21 c123 26 153 51 118 99
-16 22 -35 22 -130 2 -43 -9 -82 -14 -88 -11 -5 4 -9 80 -9 174 l0 169 58 6
c113 14 223 39 248 58 26 21 32 56 12 76 -12 12 -50 16 -60 7z"/>
<path d="M2130 1846 c-3 -2 -97 -12 -210 -21 -414 -34 -803 -79 -872 -101 -25
-8 -41 -50 -28 -73 13 -26 38 -33 74 -22 43 14 375 58 526 70 559 46 571 48
598 75 12 12 14 22 6 43 -8 24 -16 28 -50 31 -22 2 -42 1 -44 -2z"/>
</g>
</svg>
