<?xml version="1.0" standalone="no"?>
<!DOCTYPE svg PUBLIC "-//W3C//DTD SVG 20010904//EN"
 "http://www.w3.org/TR/2001/REC-SVG-20010904/DTD/svg10.dtd">
<svg version="1.0" xmlns="http://www.w3.org/2000/svg"
 width="248.000000pt" height="248.000000pt" viewBox="0 0 248.000000 248.000000"
 preserveAspectRatio="xMidYMid meet">
<metadata>
Created by potrace 1.10, written by Peter Selinger 2001-2011
</metadata>
<g transform="translate(0.000000,248.000000) scale(0.100000,-0.100000)"
fill="#000000" stroke="none">
<path d="M1869 2126 c-2 -3 -88 -9 -189 -15 -102 -6 -222 -17 -268 -25 -45 -8
-146 -18 -223 -22 -112 -6 -145 -11 -162 -25 l-22 -17 0 -849 c0 -927 -1 -904
56 -911 51 -6 51 -6 50 463 l-2 435 52 0 c28 0 122 9 208 19 223 28 472 51
575 54 l89 2 -7 -105 c-12 -170 -23 -793 -15 -816 8 -22 32 -33 60 -27 37 8
42 49 50 423 5 201 11 410 14 465 2 55 10 271 16 480 13 437 12 445 -58 464
-37 11 -215 16 -224 7z m177 -318 c-3 -117 -9 -271 -12 -343 l-6 -130 -112 0
c-61 -1 -156 -6 -211 -12 -55 -7 -129 -15 -165 -18 -36 -3 -114 -12 -175 -20
-60 -8 -143 -15 -182 -15 l-73 0 0 339 0 339 78 7 c42 3 147 15 232 26 171 21
358 35 524 37 l109 2 -7 -212z"/>
<path d="M459 2053 c-12 -13 -14 -168 -17 -896 -3 -960 -4 -927 53 -927 57 0
55 -35 55 920 0 776 -2 878 -16 898 -18 26 -56 29 -75 5z"/>
</g>
</svg>
