<?xml version="1.0" standalone="no"?>
<!DOCTYPE svg PUBLIC "-//W3C//DTD SVG 20010904//EN"
 "http://www.w3.org/TR/2001/REC-SVG-20010904/DTD/svg10.dtd">
<svg version="1.0" xmlns="http://www.w3.org/2000/svg"
 width="248.000000pt" height="248.000000pt" viewBox="0 0 248.000000 248.000000"
 preserveAspectRatio="xMidYMid meet">
<metadata>
Created by potrace 1.10, written by Peter Selinger 2001-2011
</metadata>
<g transform="translate(0.000000,248.000000) scale(0.100000,-0.100000)"
fill="#000000" stroke="none">
<path d="M572 2188 c-34 -34 10 -95 165 -229 101 -87 127 -101 151 -77 27 27
14 67 -40 116 -29 26 -89 82 -134 125 -83 77 -115 92 -142 65z"/>
<path d="M1491 2026 c-8 -10 -11 -80 -11 -230 1 -118 -1 -220 -4 -224 -5 -9
-45 -15 -331 -52 -321 -42 -335 -46 -335 -95 0 -48 36 -55 180 -31 47 8 101
16 121 19 l36 5 7 -56 c17 -138 56 -905 46 -915 -4 -4 -81 -17 -171 -27 -222
-26 -259 -38 -259 -84 0 -46 33 -55 139 -36 248 42 391 52 790 58 362 4 416 3
518 -14 125 -20 146 -16 151 29 2 18 -4 30 -20 40 -47 30 -178 50 -353 54
-125 2 -171 6 -173 16 -3 12 6 57 51 272 14 66 30 162 36 214 7 52 14 98 16
102 7 11 36 254 42 355 l6 91 81 6 c121 8 184 24 203 53 14 22 14 26 -2 50
-14 22 -22 25 -53 21 -223 -29 -419 -51 -544 -62 l-66 -6 -4 209 c-3 190 -5
212 -22 231 -22 24 -58 27 -75 7z m376 -593 c-12 -132 -28 -259 -42 -333 -7
-41 -17 -102 -20 -135 -4 -33 -20 -123 -36 -200 -16 -77 -34 -165 -40 -195
-19 -110 2 -97 -181 -106 -90 -4 -179 -7 -198 -7 l-35 0 -7 119 c-4 65 -12
211 -18 324 -6 113 -15 255 -21 316 -5 60 -9 133 -9 162 0 46 3 52 23 56 78
15 482 62 556 65 l34 1 -6 -67z"/>
<path d="M302 1528 c-24 -24 -13 -56 31 -91 59 -49 252 -157 280 -157 49 0 63
52 25 87 -13 11 -59 39 -103 63 -44 23 -101 58 -128 76 -49 35 -84 43 -105 22z"/>
<path d="M698 893 c-21 -24 -144 -215 -247 -383 -45 -74 -96 -156 -113 -182
-21 -32 -28 -53 -23 -68 8 -26 47 -45 68 -34 19 11 84 108 172 254 38 63 106
173 152 243 46 70 83 136 83 145 0 41 -63 58 -92 25z"/>
</g>
</svg>
