<?xml version="1.0" standalone="no"?>
<!DOCTYPE svg PUBLIC "-//W3C//DTD SVG 20010904//EN"
 "http://www.w3.org/TR/2001/REC-SVG-20010904/DTD/svg10.dtd">
<svg version="1.0" xmlns="http://www.w3.org/2000/svg"
 width="248.000000pt" height="248.000000pt" viewBox="0 0 248.000000 248.000000"
 preserveAspectRatio="xMidYMid meet">
<metadata>
Created by potrace 1.10, written by Peter Selinger 2001-2011
</metadata>
<g transform="translate(0.000000,248.000000) scale(0.100000,-0.100000)"
fill="#000000" stroke="none">
<path d="M1095 1689 c-150 -31 -251 -49 -445 -79 -102 -16 -229 -38 -284 -50
-54 -11 -119 -20 -145 -20 -26 0 -56 -7 -69 -16 -47 -32 -13 -94 52 -94 16 0
116 16 220 35 105 19 265 46 356 60 223 36 438 81 456 96 17 14 18 53 2 67
-25 19 -54 19 -143 1z"/>
</g>
</svg>
