<?xml version="1.0" standalone="no"?>
<!DOCTYPE svg PUBLIC "-//W3C//DTD SVG 20010904//EN"
 "http://www.w3.org/TR/2001/REC-SVG-20010904/DTD/svg10.dtd">
<svg version="1.0" xmlns="http://www.w3.org/2000/svg"
 width="248.000000pt" height="248.000000pt" viewBox="0 0 248.000000 248.000000"
 preserveAspectRatio="xMidYMid meet">
<metadata>
Created by potrace 1.10, written by Peter Selinger 2001-2011
</metadata>
<g transform="translate(0.000000,248.000000) scale(0.100000,-0.100000)"
fill="#000000" stroke="none">
<path d="M686 2261 c-44 -59 -74 -91 -344 -374 -159 -167 -171 -196 -101 -235
58 -31 209 -132 209 -138 0 -8 -43 -67 -76 -104 -38 -43 -121 -152 -180 -237
-62 -90 -67 -125 -19 -143 26 -10 54 -3 228 60 49 17 91 29 94 26 6 -5 -14
-824 -23 -926 -6 -77 9 -113 47 -118 39 -5 49 17 59 120 8 81 30 756 30 919
l0 57 48 18 c26 9 73 27 104 39 l57 22 24 -26 c13 -14 34 -41 46 -59 32 -46
57 -57 87 -37 14 9 24 25 24 39 0 18 7 25 28 29 28 6 33 12 152 187 92 137
139 220 241 428 60 122 112 222 116 222 5 -1 22 -20 38 -43 126 -176 214 -303
235 -339 38 -65 324 -353 394 -397 144 -90 187 -106 214 -79 7 7 12 24 12 40
0 24 -12 34 -107 90 -88 51 -129 84 -239 193 -72 71 -148 155 -167 185 -50 76
-85 127 -180 258 -45 62 -102 150 -127 195 -34 62 -51 83 -68 85 -24 4 -62
-22 -62 -42 0 -6 -22 -56 -49 -111 -27 -55 -75 -156 -108 -225 -74 -156 -167
-315 -289 -493 l-72 -105 -101 119 c-74 87 -108 119 -125 119 -50 0 -61 -52
-21 -104 14 -18 25 -37 25 -42 0 -5 -33 -21 -73 -35 -39 -15 -128 -48 -196
-73 -68 -26 -128 -45 -133 -44 -5 2 23 44 62 93 39 50 85 110 103 134 18 24
66 87 107 140 162 205 200 262 200 295 0 37 -15 56 -45 56 -20 0 -55 -28 -55
-43 0 -6 -118 -163 -172 -230 l-23 -29 -86 59 c-47 32 -86 63 -87 68 0 6 43
56 96 111 204 214 308 327 335 366 42 63 33 118 -19 118 -16 0 -36 -18 -68
-59z"/>
<path d="M256 708 c-9 -12 -16 -34 -16 -49 0 -31 -7 -54 -71 -225 -27 -72 -49
-140 -49 -150 0 -28 19 -44 53 -44 33 0 45 23 120 230 56 157 64 202 43 235
-21 32 -59 33 -80 3z"/>
<path d="M662 718 c-27 -27 -11 -56 101 -172 114 -118 143 -136 175 -104 27
27 12 59 -65 139 -43 44 -83 90 -89 101 -22 41 -95 63 -122 36z"/>
</g>
</svg>
