<?xml version="1.0" standalone="no"?>
<!DOCTYPE svg PUBLIC "-//W3C//DTD SVG 20010904//EN"
 "http://www.w3.org/TR/2001/REC-SVG-20010904/DTD/svg10.dtd">
<svg version="1.0" xmlns="http://www.w3.org/2000/svg"
 width="248.000000pt" height="248.000000pt" viewBox="0 0 248.000000 248.000000"
 preserveAspectRatio="xMidYMid meet">
<metadata>
Created by potrace 1.10, written by Peter Selinger 2001-2011
</metadata>
<g transform="translate(0.000000,248.000000) scale(0.100000,-0.100000)"
fill="#000000" stroke="none">
<path d="M898 1845 c-14 -14 -330 -59 -595 -84 -89 -9 -113 -21 -113 -56 0
-45 17 -48 186 -35 86 6 159 9 162 5 10 -10 3 -592 -8 -710 -7 -83 -6 -104 6
-122 17 -26 55 -30 74 -8 15 18 29 314 30 631 l0 232 58 6 c113 14 223 39 248
58 26 21 32 56 12 76 -12 12 -50 16 -60 7z"/>
</g>
</svg>
