<?xml version="1.0" standalone="no"?>
<!DOCTYPE svg PUBLIC "-//W3C//DTD SVG 20010904//EN"
 "http://www.w3.org/TR/2001/REC-SVG-20010904/DTD/svg10.dtd">
<svg version="1.0" xmlns="http://www.w3.org/2000/svg"
 width="248.000000pt" height="248.000000pt" viewBox="0 0 248.000000 248.000000"
 preserveAspectRatio="xMidYMid meet">
<metadata>
Created by potrace 1.10, written by Peter Selinger 2001-2011
</metadata>
<g transform="translate(0.000000,248.000000) scale(0.100000,-0.100000)"
fill="#000000" stroke="none">
<path d="M572 2188 c-34 -34 10 -95 165 -229 101 -87 127 -101 151 -77 27 27
14 67 -40 116 -29 26 -89 82 -134 125 -83 77 -115 92 -142 65z"/>
<path d="M302 1528 c-24 -24 -13 -56 31 -91 59 -49 252 -157 280 -157 49 0 63
52 25 87 -13 11 -59 39 -103 63 -44 23 -101 58 -128 76 -49 35 -84 43 -105 22z"/>
</g>
</svg>
