<?xml version="1.0" standalone="no"?>
<!DOCTYPE svg PUBLIC "-//W3C//DTD SVG 20010904//EN"
 "http://www.w3.org/TR/2001/REC-SVG-20010904/DTD/svg10.dtd">
<svg version="1.0" xmlns="http://www.w3.org/2000/svg"
 width="248.000000pt" height="248.000000pt" viewBox="0 0 248.000000 248.000000"
 preserveAspectRatio="xMidYMid meet">
<metadata>
Created by potrace 1.10, written by Peter Selinger 2001-2011
</metadata>
<g transform="translate(0.000000,248.000000) scale(0.100000,-0.100000)"
fill="#000000" stroke="none">
<path d="M1523 2338 c-12 -16 -29 -138 -43 -323 -19 -236 -16 -225 -53 -226
-47 0 -147 -8 -279 -20 -64 -6 -121 -8 -127 -4 -10 6 -8 235 4 403 4 53 1 66
-15 82 -23 23 -39 25 -64 7 -15 -11 -17 -40 -22 -252 -3 -132 -8 -243 -12
-247 -8 -8 -113 -19 -297 -33 -66 -4 -225 -29 -272 -41 -7 -2 -19 -17 -29 -35
-14 -28 -15 -44 -5 -123 11 -88 30 -288 51 -526 6 -63 20 -187 31 -275 11 -88
26 -211 34 -274 8 -67 18 -117 26 -121 16 -10 320 2 399 15 120 21 784 26 919
7 50 -7 80 -17 95 -31 46 -44 95 -17 119 66 31 103 135 627 147 733 4 41 15
129 24 195 9 66 21 155 27 197 5 43 13 115 16 161 9 123 26 117 -334 117 -160
0 -294 4 -297 9 -3 4 1 82 10 172 26 284 28 347 14 364 -15 18 -54 20 -67 3z
m565 -647 c11 -7 11 -30 -2 -137 -28 -223 -48 -358 -55 -374 -7 -12 -40 -16
-162 -21 -250 -11 -329 -12 -335 -6 -6 6 12 433 22 504 l5 42 257 0 c141 1
263 -3 270 -8z m-635 -8 c3 -7 -2 -157 -17 -441 -2 -52 -7 -96 -10 -100 -7 -6
-262 -25 -361 -26 l-60 -1 0 125 c2 341 6 410 23 419 9 5 49 10 87 11 39 1 99
5 135 9 88 11 198 13 203 4z m-542 -303 c-2 -146 -5 -268 -7 -271 -2 -4 -19
-10 -38 -13 -29 -6 -285 -25 -381 -30 l-29 -1 -13 120 c-6 66 -17 176 -23 245
-6 69 -12 134 -13 145 -2 17 10 21 103 36 95 16 336 37 385 35 20 -1 20 -7 16
-266z m1109 -323 c0 -7 -18 -99 -39 -203 -22 -104 -49 -238 -61 -298 -11 -60
-23 -112 -25 -116 -2 -4 -30 -3 -62 1 -124 17 -311 31 -322 25 -8 -5 -11 24
-10 101 0 164 16 463 24 471 6 7 253 25 418 30 60 2 77 0 77 -11z m-605 -127
c-2 -285 -10 -440 -26 -454 -2 -2 -94 -7 -203 -10 l-199 -7 7 268 c4 147 12
270 17 274 5 3 78 11 162 18 83 7 161 14 172 16 11 1 31 2 45 1 l25 -1 0 -105z
m-511 0 c0 -36 -2 -158 -3 -272 l-3 -207 -36 -5 c-35 -5 -94 -10 -254 -21 -37
-2 -70 -1 -72 4 -14 21 -74 517 -64 526 11 12 359 46 418 41 12 -1 15 -15 14
-66z"/>
</g>
</svg>
