<?xml version="1.0" standalone="no"?>
<!DOCTYPE svg PUBLIC "-//W3C//DTD SVG 20010904//EN"
 "http://www.w3.org/TR/2001/REC-SVG-20010904/DTD/svg10.dtd">
<svg version="1.0" xmlns="http://www.w3.org/2000/svg"
 width="248.000000pt" height="248.000000pt" viewBox="0 0 248.000000 248.000000"
 preserveAspectRatio="xMidYMid meet">
<metadata>
Created by potrace 1.10, written by Peter Selinger 2001-2011
</metadata>
<g transform="translate(0.000000,248.000000) scale(0.100000,-0.100000)"
fill="#000000" stroke="none">
<path d="M1577 1794 c-1 -1 -85 -5 -186 -8 -102 -4 -187 -9 -191 -11 -3 -2
-57 -6 -120 -10 -63 -3 -146 -10 -185 -15 -38 -5 -106 -12 -150 -15 -44 -3
-109 -8 -145 -11 -55 -4 -217 -29 -257 -40 -7 -2 -19 -17 -29 -35 -14 -28 -15
-44 -5 -123 11 -88 30 -288 51 -526 6 -63 20 -187 31 -275 11 -88 26 -211 34
-274 14 -120 19 -131 68 -131 44 0 48 28 26 186 -10 77 -23 182 -29 234 -5 52
-14 129 -19 170 -6 41 -12 107 -16 145 -7 86 -33 353 -44 455 -5 41 -6 78 -2
81 9 10 212 37 361 48 127 10 194 16 485 42 161 14 816 23 833 11 11 -8 11
-32 -3 -143 -8 -74 -20 -162 -26 -196 -5 -35 -16 -118 -24 -185 -8 -68 -32
-208 -54 -313 -22 -104 -49 -239 -61 -300 -11 -60 -30 -129 -41 -152 -33 -69
-13 -114 45 -99 48 12 62 59 152 511 25 127 49 264 54 305 4 41 15 129 24 195
9 66 21 155 27 197 5 43 13 115 16 160 5 72 3 85 -12 98 -15 12 -72 16 -312
20 -162 3 -295 4 -296 4z"/>
</g>
</svg>
