<?xml version="1.0" standalone="no"?>
<!DOCTYPE svg PUBLIC "-//W3C//DTD SVG 20010904//EN"
 "http://www.w3.org/TR/2001/REC-SVG-20010904/DTD/svg10.dtd">
<svg version="1.0" xmlns="http://www.w3.org/2000/svg"
 width="248.000000pt" height="248.000000pt" viewBox="0 0 248.000000 248.000000"
 preserveAspectRatio="xMidYMid meet">
<metadata>
Created by potrace 1.10, written by Peter Selinger 2001-2011
</metadata>
<g transform="translate(0.000000,248.000000) scale(0.100000,-0.100000)"
fill="#000000" stroke="none">
<path d="M946 2257 c-16 -11 -18 -38 -22 -252 -3 -132 -9 -243 -13 -248 -7 -7
-112 -18 -296 -32 -66 -4 -225 -29 -272 -41 -7 -2 -19 -17 -29 -35 -14 -28
-15 -44 -5 -123 11 -88 30 -288 51 -526 6 -63 20 -187 31 -275 11 -88 26 -211
34 -274 14 -120 19 -131 68 -131 44 0 48 28 26 186 -10 77 -23 182 -29 234 -5
52 -14 129 -20 170 -5 41 -12 109 -15 150 -3 41 -12 136 -20 210 -13 125 -29
292 -30 314 0 20 206 45 470 59 l40 2 -4 -380 c-2 -209 -5 -383 -7 -387 -3 -4
-4 -113 -4 -244 0 -163 3 -241 11 -250 14 -17 53 -18 67 -1 8 10 36 1056 32
1219 -1 57 10 65 97 67 34 1 104 6 155 11 127 14 809 24 826 12 11 -8 11 -32
-3 -143 -8 -74 -20 -162 -26 -196 -5 -35 -16 -118 -24 -185 -8 -68 -32 -208
-54 -313 -22 -104 -49 -239 -61 -300 -11 -60 -30 -129 -41 -152 -33 -69 -13
-114 45 -99 48 12 62 59 152 511 25 127 49 264 54 305 4 41 15 129 24 195 9
66 21 155 27 197 5 43 13 115 16 161 9 125 36 117 -413 117 -372 0 -423 -1
-636 -21 -64 -6 -121 -8 -127 -4 -10 6 -8 235 4 403 4 53 1 66 -15 82 -23 23
-39 25 -64 7z"/>
</g>
</svg>
