<?xml version="1.0" standalone="no"?>
<!DOCTYPE svg PUBLIC "-//W3C//DTD SVG 20010904//EN"
 "http://www.w3.org/TR/2001/REC-SVG-20010904/DTD/svg10.dtd">
<svg version="1.0" xmlns="http://www.w3.org/2000/svg"
 width="248.000000pt" height="248.000000pt" viewBox="0 0 248.000000 248.000000"
 preserveAspectRatio="xMidYMid meet">
<metadata>
Created by potrace 1.10, written by Peter Selinger 2001-2011
</metadata>
<g transform="translate(0.000000,248.000000) scale(0.100000,-0.100000)"
fill="#000000" stroke="none">
<path d="M310 1635 c-10 -12 -10 -35 -1 -108 10 -89 30 -288 51 -527 6 -63 20
-187 31 -275 11 -88 26 -211 34 -274 14 -120 19 -131 68 -131 44 0 48 28 26
186 -10 77 -23 182 -29 234 -5 52 -14 129 -19 170 -6 41 -12 107 -16 145 -7
95 -33 361 -45 464 -5 46 -17 95 -25 108 -18 26 -56 31 -75 8z"/>
</g>
</svg>
