<?xml version="1.0" standalone="no"?>
<!DOCTYPE svg PUBLIC "-//W3C//DTD SVG 20010904//EN"
 "http://www.w3.org/TR/2001/REC-SVG-20010904/DTD/svg10.dtd">
<svg version="1.0" xmlns="http://www.w3.org/2000/svg"
 width="248.000000pt" height="248.000000pt" viewBox="0 0 248.000000 248.000000"
 preserveAspectRatio="xMidYMid meet">
<metadata>
Created by potrace 1.10, written by Peter Selinger 2001-2011
</metadata>
<g transform="translate(0.000000,248.000000) scale(0.100000,-0.100000)"
fill="#000000" stroke="none">
<path d="M1455 2390 c-17 -19 -18 -27 -8 -78 7 -31 12 -112 12 -180 0 -121 0
-123 -24 -132 -14 -5 -98 -12 -187 -16 -90 -4 -169 -11 -175 -17 -17 -13 -16
-52 2 -67 10 -8 64 -11 194 -8 144 2 182 0 186 -10 9 -25 5 -231 -6 -282 -10
-45 -9 -54 7 -71 21 -24 45 -24 73 -1 20 16 21 27 22 194 0 98 4 180 9 183 4
3 59 12 121 20 111 15 342 51 386 61 27 5 46 38 38 63 -12 38 -42 39 -215 11
-258 -43 -324 -50 -332 -37 -3 6 -7 82 -7 169 0 110 -4 166 -13 185 -17 36
-57 42 -83 13z"/>
<path d="M664 2204 c-70 -82 -304 -267 -413 -326 -41 -22 -44 -72 -7 -90 21
-9 33 -6 76 16 105 55 329 232 409 322 42 48 53 88 29 112 -23 23 -54 13 -94
-34z"/>
<path d="M673 1740 c-12 -5 -61 -69 -111 -147 -50 -76 -114 -171 -143 -212
-63 -89 -250 -303 -285 -326 -26 -17 -33 -62 -12 -83 31 -31 61 -14 165 95 80
83 104 103 109 90 3 -10 3 -203 -1 -430 -5 -226 -8 -427 -8 -445 0 -18 4 -37
11 -44 13 -13 60 -14 74 0 12 12 17 178 18 681 l1 383 28 42 c154 227 222 337
219 357 -4 30 -37 49 -65 39z"/>
</g>
</svg>
