<?xml version="1.0" standalone="no"?>
<!DOCTYPE svg PUBLIC "-//W3C//DTD SVG 20010904//EN"
 "http://www.w3.org/TR/2001/REC-SVG-20010904/DTD/svg10.dtd">
<svg version="1.0" xmlns="http://www.w3.org/2000/svg"
 width="248.000000pt" height="248.000000pt" viewBox="0 0 248.000000 248.000000"
 preserveAspectRatio="xMidYMid meet">
<metadata>
Created by potrace 1.10, written by Peter Selinger 2001-2011
</metadata>
<g transform="translate(0.000000,248.000000) scale(0.100000,-0.100000)"
fill="#000000" stroke="none">
<path d="M1455 2390 c-17 -19 -18 -27 -8 -78 7 -31 12 -112 12 -180 0 -121 0
-123 -24 -132 -14 -5 -98 -12 -187 -16 -90 -4 -169 -11 -175 -17 -17 -13 -16
-52 2 -67 10 -8 64 -11 194 -8 144 2 182 0 186 -10 8 -21 6 -256 -3 -268 -7
-11 -62 -22 -202 -43 -84 -13 -216 -36 -305 -55 -87 -18 -113 -47 -82 -90 17
-23 43 -23 137 -3 93 20 261 49 445 77 77 11 178 27 225 35 47 8 103 16 124
17 35 3 40 0 47 -26 4 -15 8 -93 8 -172 1 -141 0 -144 -22 -149 -12 -2 -78
-12 -147 -20 -69 -9 -188 -24 -265 -35 -77 -11 -158 -22 -180 -25 -151 -22
-293 -49 -312 -61 -25 -16 -30 -53 -11 -72 15 -15 55 -15 148 3 99 18 732 105
769 105 28 0 29 -1 36 -74 17 -188 4 -751 -19 -773 -1 -2 -51 18 -110 43 -92
40 -110 45 -131 36 -18 -9 -25 -19 -25 -41 0 -36 3 -38 130 -95 77 -33 118
-46 152 -46 45 0 49 2 66 38 32 62 36 120 36 532 l1 395 65 7 c36 4 107 9 158
11 52 3 98 9 104 15 14 14 13 61 -1 75 -13 13 -50 14 -218 3 l-121 -7 -7 63
c-3 35 -5 113 -3 173 l3 110 70 8 c39 4 111 9 160 11 50 2 96 4 103 5 16 1 33
46 25 67 -3 8 -15 19 -27 23 -20 7 -231 0 -356 -13 -30 -3 -84 -8 -120 -11
-36 -3 -100 -13 -143 -21 -43 -9 -85 -13 -93 -10 -12 5 -15 30 -13 141 0 74 5
137 9 140 4 3 59 12 121 20 111 15 342 51 386 61 27 5 46 38 38 63 -12 38 -42
39 -215 11 -258 -43 -324 -50 -332 -37 -3 6 -7 82 -7 169 0 110 -4 166 -13
185 -17 36 -57 42 -83 13z"/>
<path d="M664 2204 c-70 -82 -304 -267 -413 -326 -41 -22 -44 -72 -7 -90 21
-9 33 -6 76 16 105 55 329 232 409 322 42 48 53 88 29 112 -23 23 -54 13 -94
-34z"/>
<path d="M673 1740 c-12 -5 -61 -69 -111 -147 -50 -76 -114 -171 -143 -212
-63 -89 -250 -303 -285 -326 -26 -17 -33 -62 -12 -83 31 -31 61 -14 164 94 60
62 105 101 108 95 4 -6 4 -199 0 -429 -4 -229 -7 -432 -7 -450 0 -18 4 -37 11
-44 13 -13 60 -14 74 0 12 12 17 178 18 681 l1 383 28 42 c154 227 222 337
219 357 -4 30 -37 49 -65 39z"/>
<path d="M1162 878 c-32 -32 9 -100 146 -236 74 -73 98 -84 126 -56 31 30 17
54 -101 180 -117 123 -143 140 -171 112z"/>
</g>
</svg>
