<?xml version="1.0" standalone="no"?>
<!DOCTYPE svg PUBLIC "-//W3C//DTD SVG 20010904//EN"
 "http://www.w3.org/TR/2001/REC-SVG-20010904/DTD/svg10.dtd">
<svg version="1.0" xmlns="http://www.w3.org/2000/svg"
 width="248.000000pt" height="248.000000pt" viewBox="0 0 248.000000 248.000000"
 preserveAspectRatio="xMidYMid meet">
<metadata>
Created by potrace 1.10, written by Peter Selinger 2001-2011
</metadata>
<g transform="translate(0.000000,248.000000) scale(0.100000,-0.100000)"
fill="#000000" stroke="none">
<path d="M612 2377 c-6 -6 -14 -26 -18 -42 -20 -85 -159 -343 -251 -469 -59
-79 -56 -126 8 -126 22 0 37 14 86 83 33 45 79 115 104 155 26 43 52 74 64 77
41 8 375 37 540 46 367 20 718 47 793 61 55 10 75 29 66 65 -6 20 -49 47 -62
39 -4 -2 -59 -7 -122 -11 -63 -4 -117 -8 -120 -10 -4 -2 -130 -11 -281 -19
-333 -19 -383 -22 -574 -41 -82 -8 -162 -15 -178 -15 l-27 0 26 53 c30 58 37
125 15 150 -16 20 -54 22 -69 4z"/>
</g>
</svg>
