<?xml version="1.0" standalone="no"?>
<!DOCTYPE svg PUBLIC "-//W3C//DTD SVG 20010904//EN"
 "http://www.w3.org/TR/2001/REC-SVG-20010904/DTD/svg10.dtd">
<svg version="1.0" xmlns="http://www.w3.org/2000/svg"
 width="248.000000pt" height="248.000000pt" viewBox="0 0 248.000000 248.000000"
 preserveAspectRatio="xMidYMid meet">
<metadata>
Created by potrace 1.10, written by Peter Selinger 2001-2011
</metadata>
<g transform="translate(0.000000,248.000000) scale(0.100000,-0.100000)"
fill="#000000" stroke="none">
<path d="M612 2377 c-6 -6 -14 -26 -18 -42 -20 -85 -159 -343 -251 -469 -59
-79 -56 -126 8 -126 22 0 37 14 86 83 33 45 75 108 94 140 18 31 37 57 41 57
7 0 15 -63 22 -191 l5 -87 -32 -6 c-56 -10 -220 -26 -277 -26 -69 0 -104 -17
-108 -52 -2 -20 4 -31 24 -44 27 -18 43 -18 356 13 l46 5 4 -155 c3 -135 5
-158 22 -176 21 -23 56 -27 74 -9 8 8 12 64 12 184 l0 172 108 6 c59 4 122 8
140 11 l32 4 -6 -152 c-6 -169 1 -200 47 -205 46 -5 53 17 61 195 3 91 9 167
12 170 9 9 188 29 521 57 99 8 194 18 210 21 17 3 108 12 203 20 187 15 222
26 222 69 0 53 -26 56 -278 31 -81 -8 -223 -22 -317 -30 -228 -20 -341 -31
-458 -45 -54 -7 -100 -11 -102 -9 -2 2 -5 73 -7 157 l-3 152 30 0 c41 1 427
26 605 41 241 19 278 31 264 86 -6 20 -49 47 -62 39 -4 -2 -59 -7 -122 -11
-63 -4 -117 -8 -120 -10 -4 -2 -130 -11 -281 -19 -333 -19 -383 -22 -574 -41
-82 -8 -162 -15 -178 -15 l-27 0 26 53 c30 58 37 125 15 150 -16 20 -54 22
-69 4z m388 -445 l0 -159 -142 -9 c-79 -6 -146 -8 -150 -6 -5 2 -8 40 -8 85
-1 45 -7 112 -14 150 -7 37 -10 67 -7 68 34 5 264 27 289 28 l32 1 0 -158z"/>
</g>
</svg>
