<?xml version="1.0" standalone="no"?>
<!DOCTYPE svg PUBLIC "-//W3C//DTD SVG 20010904//EN"
 "http://www.w3.org/TR/2001/REC-SVG-20010904/DTD/svg10.dtd">
<svg version="1.0" xmlns="http://www.w3.org/2000/svg"
 width="248.000000pt" height="248.000000pt" viewBox="0 0 248.000000 248.000000"
 preserveAspectRatio="xMidYMid meet">
<metadata>
Created by potrace 1.10, written by Peter Selinger 2001-2011
</metadata>
<g transform="translate(0.000000,248.000000) scale(0.100000,-0.100000)"
fill="#000000" stroke="none">
<path d="M612 2377 c-6 -6 -14 -26 -18 -42 -20 -85 -159 -343 -251 -469 -59
-79 -56 -126 8 -126 22 0 37 14 86 83 33 45 75 108 94 140 18 31 37 57 41 57
7 0 15 -63 22 -191 l5 -87 -32 -6 c-56 -10 -220 -26 -277 -26 -69 0 -104 -17
-108 -52 -2 -20 4 -31 24 -44 27 -18 43 -18 356 13 l46 5 4 -155 c3 -135 5
-158 22 -176 21 -23 56 -27 74 -9 8 8 12 64 12 184 l0 172 108 6 c59 4 122 8
140 11 l32 4 -6 -152 c-6 -169 1 -200 47 -205 46 -5 53 17 61 195 3 91 9 167
12 170 3 3 35 9 73 13 37 5 94 12 127 16 l58 7 -7 -190 c-7 -186 -7 -191 14
-212 26 -26 45 -27 71 -1 16 16 20 33 20 93 0 41 3 128 7 195 5 99 9 122 22
126 9 2 69 8 134 11 l118 7 -3 -192 c-3 -180 -2 -192 16 -206 25 -18 37 -18
61 0 17 13 20 34 28 212 5 110 10 200 11 201 1 1 82 9 180 17 198 17 230 27
224 74 -5 44 -30 49 -189 36 -79 -7 -161 -15 -181 -17 l-38 -5 0 144 c0 119 3
144 15 144 7 0 37 5 65 11 53 11 73 32 64 66 -6 20 -49 47 -62 39 -4 -2 -59
-7 -122 -11 -63 -4 -117 -8 -120 -10 -4 -2 -130 -11 -281 -19 -333 -19 -383
-22 -574 -41 -82 -8 -162 -15 -178 -15 l-27 0 26 53 c30 58 37 125 15 150 -16
20 -54 22 -69 4z m1138 -381 l0 -144 -77 -7 c-43 -3 -104 -8 -135 -11 l-58 -6
0 145 0 145 88 9 c48 6 108 11 135 12 l47 1 0 -144z m-380 -30 c0 -141 0 -144
-22 -149 -35 -9 -229 -30 -233 -26 -2 2 -5 73 -7 156 l-3 152 60 4 c33 2 93 4
133 5 l72 2 0 -144z m-370 -34 l0 -159 -142 -9 c-79 -6 -146 -8 -150 -6 -5 2
-8 40 -8 85 -1 45 -7 112 -14 150 -7 37 -10 67 -7 68 34 5 264 27 289 28 l32
1 0 -158z"/>
</g>
</svg>
