<?xml version="1.0" standalone="no"?>
<!DOCTYPE svg PUBLIC "-//W3C//DTD SVG 20010904//EN"
 "http://www.w3.org/TR/2001/REC-SVG-20010904/DTD/svg10.dtd">
<svg version="1.0" xmlns="http://www.w3.org/2000/svg"
 width="248.000000pt" height="248.000000pt" viewBox="0 0 248.000000 248.000000"
 preserveAspectRatio="xMidYMid meet">
<metadata>
Created by potrace 1.10, written by Peter Selinger 2001-2011
</metadata>
<g transform="translate(0.000000,248.000000) scale(0.100000,-0.100000)"
fill="#000000" stroke="none">
<path d="M612 2377 c-6 -6 -14 -26 -18 -42 -20 -85 -159 -343 -251 -469 -59
-79 -56 -126 8 -126 22 0 37 14 86 83 33 45 75 108 94 140 18 31 37 57 41 57
7 0 15 -63 22 -191 l5 -87 -32 -6 c-56 -10 -220 -26 -277 -26 -69 0 -104 -17
-108 -52 -2 -20 4 -31 24 -44 27 -19 42 -18 356 13 l47 5 3 -147 c2 -81 0
-149 -4 -151 -4 -3 -38 -7 -75 -11 -76 -6 -93 -15 -93 -48 0 -42 31 -57 107
-52 37 3 140 10 228 16 88 6 228 15 310 21 83 6 251 15 375 21 374 16 631 39
655 59 25 21 15 63 -20 79 -25 12 -45 12 -125 3 -52 -7 -101 -12 -109 -12 -11
0 -13 29 -6 173 3 94 8 173 9 174 1 1 82 9 180 17 198 17 230 27 224 74 -5 44
-30 49 -189 36 -79 -7 -161 -15 -181 -17 l-38 -5 0 144 c0 119 3 144 15 144 7
0 37 5 65 11 53 11 73 32 64 66 -6 20 -49 47 -62 39 -4 -2 -59 -7 -122 -11
-63 -4 -117 -8 -120 -10 -4 -2 -130 -11 -281 -19 -333 -19 -383 -22 -574 -41
-82 -8 -162 -15 -178 -15 l-27 0 26 53 c30 58 37 125 15 150 -16 20 -54 22
-69 4z m1138 -381 l0 -144 -77 -7 c-43 -3 -104 -8 -135 -11 l-58 -6 0 145 0
145 88 9 c48 6 108 11 135 12 l47 1 0 -144z m-380 -30 c0 -141 0 -144 -22
-149 -35 -9 -229 -30 -233 -26 -2 2 -5 73 -7 156 l-3 152 60 4 c33 2 93 4 133
5 l72 2 0 -144z m-370 -34 l0 -159 -142 -9 c-79 -6 -146 -8 -150 -6 -5 2 -8
40 -8 85 -1 45 -7 112 -14 150 -7 37 -10 67 -7 68 34 5 264 27 289 28 l32 1 0
-158z m745 -359 c-4 -93 -8 -169 -9 -170 -1 -2 -62 -6 -136 -9 l-133 -7 8 164
c4 90 9 166 12 169 5 5 124 16 212 18 l54 2 -8 -167z m-379 -25 c-4 -90 -8
-163 -9 -164 -1 -1 -59 -4 -129 -7 l-128 -7 0 94 c0 51 3 121 6 154 7 60 8 62
38 66 104 16 165 23 195 25 l34 1 -7 -162z m-372 -30 c-4 -84 -7 -154 -8 -155
-1 -1 -61 -5 -134 -9 l-132 -7 0 151 0 150 108 7 c97 5 143 9 165 14 4 0 4
-68 1 -151z"/>
</g>
</svg>
