<?xml version="1.0" standalone="no"?>
<!DOCTYPE svg PUBLIC "-//W3C//DTD SVG 20010904//EN"
 "http://www.w3.org/TR/2001/REC-SVG-20010904/DTD/svg10.dtd">
<svg version="1.0" xmlns="http://www.w3.org/2000/svg"
 width="248.000000pt" height="248.000000pt" viewBox="0 0 248.000000 248.000000"
 preserveAspectRatio="xMidYMid meet">
<metadata>
Created by potrace 1.10, written by Peter Selinger 2001-2011
</metadata>
<g transform="translate(0.000000,248.000000) scale(0.100000,-0.100000)"
fill="#000000" stroke="none">
<path d="M1179 2414 c-10 -12 -16 -57 -19 -143 l-5 -126 -119 -7 c-65 -4 -142
-12 -170 -18 -28 -6 -91 -15 -141 -20 -49 -5 -135 -16 -190 -24 -140 -22 -138
-20 -146 -204 -6 -141 -23 -331 -34 -380 -3 -13 -12 -69 -20 -125 -30 -223
-48 -332 -91 -552 -46 -236 -54 -267 -99 -395 -35 -98 -41 -142 -21 -159 48
-40 94 23 146 204 35 122 102 445 125 600 8 55 21 141 30 190 41 253 63 436
74 610 l6 100 40 7 c22 4 90 12 150 18 61 6 126 15 145 20 19 5 107 15 195 20
88 6 189 15 225 20 36 6 117 15 180 20 142 12 275 27 405 45 55 7 147 19 205
26 58 6 115 18 128 26 53 32 6 102 -61 89 -31 -6 -183 -25 -362 -47 -44 -5
-150 -16 -235 -24 -85 -8 -176 -18 -202 -21 l-48 -6 0 114 c0 87 -4 119 -16
136 -18 26 -56 29 -75 6z"/>
<path d="M1175 1688 c-27 -5 -90 -17 -140 -28 -117 -25 -143 -28 -313 -44 -79
-8 -149 -19 -157 -26 -23 -19 -18 -57 10 -76 21 -14 40 -15 108 -10 116 10
291 35 362 51 33 8 95 21 139 29 107 21 144 58 98 99 -20 19 -33 19 -107 5z"/>
</g>
</svg>
