<?xml version="1.0" standalone="no"?>
<!DOCTYPE svg PUBLIC "-//W3C//DTD SVG 20010904//EN"
 "http://www.w3.org/TR/2001/REC-SVG-20010904/DTD/svg10.dtd">
<svg version="1.0" xmlns="http://www.w3.org/2000/svg"
 width="248.000000pt" height="248.000000pt" viewBox="0 0 248.000000 248.000000"
 preserveAspectRatio="xMidYMid meet">
<metadata>
Created by potrace 1.10, written by Peter Selinger 2001-2011
</metadata>
<g transform="translate(0.000000,248.000000) scale(0.100000,-0.100000)"
fill="#000000" stroke="none">
<path d="M1179 2414 c-10 -12 -16 -57 -19 -143 l-5 -126 -125 -7 c-69 -4 -144
-12 -168 -18 -24 -6 -85 -15 -135 -20 -51 -5 -137 -16 -192 -24 -140 -22 -138
-20 -146 -204 -6 -141 -23 -331 -34 -380 -3 -13 -12 -69 -20 -125 -59 -433
-158 -906 -211 -1008 -30 -59 -11 -114 38 -107 33 4 69 79 111 228 32 112 106
465 122 580 3 25 15 101 26 170 53 345 67 456 78 635 l6 100 95 13 c52 7 140
19 195 27 55 8 186 22 290 29 105 8 197 17 205 20 8 3 74 10 145 16 145 11
261 24 410 45 55 7 147 19 205 26 117 13 150 27 150 64 0 45 -37 58 -127 46
-79 -11 -243 -32 -388 -50 -44 -6 -136 -15 -205 -21 -69 -5 -144 -13 -167 -16
l-43 -5 0 113 c0 87 -4 119 -16 136 -18 26 -56 29 -75 6z"/>
<path d="M1799 2044 c-11 -14 -13 -48 -11 -155 l3 -138 -33 -5 c-18 -2 -63 -9
-99 -15 -37 -6 -93 -11 -125 -11 -38 0 -68 -6 -82 -16 -30 -21 -29 -59 3 -80
26 -17 42 -17 218 2 31 4 57 3 57 -1 0 -4 -8 -21 -17 -38 -88 -160 -157 -254
-264 -358 -39 -38 -69 -75 -69 -86 0 -30 35 -57 64 -49 47 12 226 210 302 336
l39 65 7 -45 c3 -25 7 -113 7 -197 1 -155 9 -198 40 -205 64 -15 75 23 69 237
l-5 175 56 -53 c153 -144 243 -189 271 -137 17 32 4 55 -53 92 -73 49 -266
235 -273 265 -4 13 -4 26 -1 29 3 3 56 14 118 25 62 11 118 24 126 31 22 18
12 61 -19 76 -25 12 -62 9 -190 -14 l-36 -6 -7 120 c-4 66 -13 131 -19 144
-14 29 -57 35 -77 12z"/>
<path d="M926 1958 c-13 -18 -16 -53 -16 -170 0 -81 -4 -149 -8 -152 -4 -2
-73 -10 -152 -16 -80 -6 -156 -17 -170 -24 -36 -17 -39 -60 -5 -82 24 -16 37
-16 147 -5 67 6 123 10 125 8 5 -6 -36 -74 -82 -136 -22 -30 -77 -90 -122
-134 -83 -79 -98 -108 -71 -135 26 -26 63 -12 135 51 61 53 161 174 201 242 9
16 11 -16 12 -150 0 -186 8 -215 55 -215 46 0 55 31 55 192 0 82 3 148 7 148
4 0 25 -18 48 -39 67 -65 172 -131 209 -131 79 0 76 70 -4 108 -26 13 -73 47
-163 122 -56 47 -102 106 -89 114 4 3 49 12 100 21 106 18 120 22 145 43 22
20 22 45 -3 67 -20 18 -50 15 -232 -21 l-28 -6 0 139 c0 152 -9 183 -55 183
-13 0 -31 -10 -39 -22z"/>
<path d="M1745 1025 c-159 -15 -369 -30 -625 -45 -521 -32 -520 -32 -520 -85
0 -48 30 -56 180 -45 293 21 360 23 360 12 0 -26 -300 -325 -387 -385 -33 -23
-89 -64 -124 -90 -35 -27 -86 -60 -114 -74 -67 -34 -85 -51 -85 -83 0 -30 16
-50 41 -50 24 0 143 68 224 128 113 84 175 125 180 121 2 -3 8 -78 12 -167 9
-157 10 -163 35 -189 l27 -26 501 1 c333 1 506 5 515 12 15 13 24 102 34 340
5 110 4 196 -1 212 -16 47 -52 51 -296 38 -119 -6 -278 -16 -352 -22 -74 -5
-171 -12 -215 -15 l-80 -5 79 82 c47 50 88 103 103 136 21 45 29 54 51 55 15
0 74 4 132 9 58 5 219 18 358 29 139 12 262 25 272 31 25 13 34 44 20 70 -10
18 -20 20 -98 19 -48 -1 -150 -7 -227 -14z m148 -582 c-2 -60 -6 -148 -9 -198
l-6 -90 -438 0 -438 0 -7 124 c-4 68 -10 146 -14 172 l-8 48 96 4 c53 2 168 9
256 16 186 14 424 27 510 30 l61 1 -3 -107z"/>
</g>
</svg>
