<?xml version="1.0" standalone="no"?>
<!DOCTYPE svg PUBLIC "-//W3C//DTD SVG 20010904//EN"
 "http://www.w3.org/TR/2001/REC-SVG-20010904/DTD/svg10.dtd">
<svg version="1.0" xmlns="http://www.w3.org/2000/svg"
 width="248.000000pt" height="248.000000pt" viewBox="0 0 248.000000 248.000000"
 preserveAspectRatio="xMidYMid meet">
<metadata>
Created by potrace 1.10, written by Peter Selinger 2001-2011
</metadata>
<g transform="translate(0.000000,248.000000) scale(0.100000,-0.100000)"
fill="#000000" stroke="none">
<path d="M1179 2414 c-10 -12 -16 -57 -19 -143 l-5 -126 -106 -6 c-58 -3 -155
-13 -215 -22 -60 -9 -165 -24 -234 -32 -69 -9 -136 -22 -150 -28 -36 -18 -39
-61 -6 -83 24 -15 33 -15 119 -1 50 9 126 18 168 22 42 3 91 10 110 15 18 6
106 15 194 20 88 6 189 15 225 20 36 6 117 15 180 20 142 12 275 27 405 45 55
7 147 19 205 26 58 6 115 18 128 26 53 32 6 102 -61 89 -31 -6 -183 -25 -362
-47 -44 -5 -150 -16 -235 -24 -85 -8 -176 -18 -202 -21 l-48 -6 0 114 c0 87
-4 119 -16 136 -18 26 -56 29 -75 6z"/>
</g>
</svg>
