<?xml version="1.0" standalone="no"?>
<!DOCTYPE svg PUBLIC "-//W3C//DTD SVG 20010904//EN"
 "http://www.w3.org/TR/2001/REC-SVG-20010904/DTD/svg10.dtd">
<svg version="1.0" xmlns="http://www.w3.org/2000/svg"
 width="248.000000pt" height="248.000000pt" viewBox="0 0 248.000000 248.000000"
 preserveAspectRatio="xMidYMid meet">
<metadata>
Created by potrace 1.10, written by Peter Selinger 2001-2011
</metadata>
<g transform="translate(0.000000,248.000000) scale(0.100000,-0.100000)"
fill="#000000" stroke="none">
<path d="M1179 2414 c-10 -12 -16 -57 -19 -143 l-5 -126 -119 -7 c-65 -4 -142
-12 -170 -18 -28 -6 -91 -15 -141 -20 -49 -5 -135 -16 -190 -24 -140 -22 -138
-20 -146 -204 -6 -141 -23 -331 -34 -380 -3 -13 -12 -69 -20 -125 -30 -223
-48 -332 -91 -552 -46 -236 -54 -267 -99 -395 -35 -98 -41 -142 -21 -159 48
-40 94 23 146 204 35 122 102 445 125 600 8 55 21 141 30 190 41 253 63 436
74 610 l6 100 40 7 c22 4 90 12 150 18 61 6 126 15 145 20 19 5 107 15 195 20
88 6 189 15 225 20 36 6 117 15 180 20 142 12 275 27 405 45 55 7 147 19 205
26 58 6 115 18 128 26 53 32 6 102 -61 89 -31 -6 -183 -25 -362 -47 -44 -5
-150 -16 -235 -24 -85 -8 -176 -18 -202 -21 l-48 -6 0 114 c0 87 -4 119 -16
136 -18 26 -56 29 -75 6z"/>
<path d="M1799 2044 c-11 -14 -13 -48 -11 -155 l3 -138 -33 -5 c-85 -13 -129
-18 -209 -24 -49 -4 -93 -13 -102 -21 -25 -20 -21 -58 8 -77 26 -17 42 -17
218 2 31 4 57 3 57 0 0 -4 -18 -42 -41 -84 -54 -101 -136 -209 -231 -304 -43
-43 -78 -86 -78 -96 0 -29 35 -55 64 -48 47 12 213 197 299 333 l42 67 7 -44
c3 -25 7 -113 7 -197 1 -190 15 -225 78 -202 30 11 37 68 31 256 l-6 153 62
-58 c104 -96 171 -143 215 -149 33 -5 41 -2 51 16 17 33 5 55 -53 93 -73 49
-266 235 -273 265 -4 13 -4 26 -1 29 3 3 56 14 118 25 62 11 118 24 126 31 22
18 12 61 -19 76 -25 12 -62 9 -189 -14 l-37 -6 -6 118 c-4 66 -12 130 -19 144
-15 31 -58 38 -78 14z"/>
<path d="M926 1958 c-13 -18 -16 -53 -16 -171 0 -109 -3 -149 -12 -152 -7 -2
-82 -11 -165 -18 -87 -8 -159 -20 -168 -27 -24 -20 -18 -57 11 -76 23 -16 37
-16 146 -5 67 6 123 10 125 8 5 -6 -36 -74 -82 -136 -45 -60 -77 -94 -153
-164 -52 -49 -65 -80 -40 -105 26 -26 63 -13 135 51 61 54 163 176 201 242 9
16 11 -15 12 -145 0 -181 8 -213 51 -218 46 -5 54 17 59 187 l5 156 45 -41
c78 -71 178 -134 214 -134 37 0 56 15 56 45 0 22 -28 55 -47 55 -10 0 -73 47
-174 129 -56 45 -105 106 -91 115 4 2 49 12 100 21 106 18 120 22 145 43 22
20 22 45 -2 66 -18 17 -25 17 -118 1 -54 -9 -108 -19 -120 -22 -21 -5 -21 -2
-25 140 -3 154 -10 177 -54 177 -12 0 -30 -10 -38 -22z"/>
<path d="M1785 1029 c-55 -4 -145 -12 -200 -18 -55 -6 -192 -16 -305 -21 -113
-6 -257 -15 -320 -20 -63 -6 -160 -12 -215 -15 -111 -6 -145 -21 -145 -60 0
-40 37 -57 111 -50 138 11 353 25 544 35 110 6 263 17 340 25 77 7 192 17 255
20 196 10 248 32 221 91 -10 23 -15 24 -98 23 -49 -1 -133 -5 -188 -10z"/>
</g>
</svg>
