<?xml version="1.0" standalone="no"?>
<!DOCTYPE svg PUBLIC "-//W3C//DTD SVG 20010904//EN"
 "http://www.w3.org/TR/2001/REC-SVG-20010904/DTD/svg10.dtd">
<svg version="1.0" xmlns="http://www.w3.org/2000/svg"
 width="248.000000pt" height="248.000000pt" viewBox="0 0 248.000000 248.000000"
 preserveAspectRatio="xMidYMid meet">
<metadata>
Created by potrace 1.10, written by Peter Selinger 2001-2011
</metadata>
<g transform="translate(0.000000,248.000000) scale(0.100000,-0.100000)"
fill="#000000" stroke="none">
<path d="M1106 2427 c-16 -12 -19 -31 -22 -128 -2 -63 -6 -139 -9 -170 -7 -61
7 -89 45 -89 35 0 47 26 54 117 3 48 9 122 12 165 5 68 4 78 -15 97 -24 24
-40 26 -65 8z"/>
<path d="M330 1975 c-8 -10 -10 -36 -6 -82 3 -37 5 -107 6 -155 0 -109 24
-142 75 -104 17 12 18 27 16 162 -2 111 -6 155 -17 172 -17 25 -55 29 -74 7z"/>
</g>
</svg>
