<?xml version="1.0" standalone="no"?>
<!DOCTYPE svg PUBLIC "-//W3C//DTD SVG 20010904//EN"
 "http://www.w3.org/TR/2001/REC-SVG-20010904/DTD/svg10.dtd">
<svg version="1.0" xmlns="http://www.w3.org/2000/svg"
 width="248.000000pt" height="248.000000pt" viewBox="0 0 248.000000 248.000000"
 preserveAspectRatio="xMidYMid meet">
<metadata>
Created by potrace 1.10, written by Peter Selinger 2001-2011
</metadata>
<g transform="translate(0.000000,248.000000) scale(0.100000,-0.100000)"
fill="#000000" stroke="none">
<path d="M1694 2368 c-17 -18 -66 -77 -108 -130 -46 -59 -120 -135 -189 -194
-61 -53 -116 -107 -122 -121 -12 -31 4 -57 37 -61 20 -2 49 17 134 91 128 111
146 130 253 262 84 103 101 137 84 164 -18 29 -56 25 -89 -11z"/>
<path d="M652 2288 c-19 -19 -15 -41 44 -222 76 -233 68 -218 105 -214 18 2
37 12 44 23 14 21 4 61 -55 235 -62 181 -64 185 -95 188 -17 2 -36 -3 -43 -10z"/>
</g>
</svg>
