<?xml version="1.0" standalone="no"?>
<!DOCTYPE svg PUBLIC "-//W3C//DTD SVG 20010904//EN"
 "http://www.w3.org/TR/2001/REC-SVG-20010904/DTD/svg10.dtd">
<svg version="1.0" xmlns="http://www.w3.org/2000/svg"
 width="248.000000pt" height="248.000000pt" viewBox="0 0 248.000000 248.000000"
 preserveAspectRatio="xMidYMid meet">
<metadata>
Created by potrace 1.10, written by Peter Selinger 2001-2011
</metadata>
<g transform="translate(0.000000,248.000000) scale(0.100000,-0.100000)"
fill="#000000" stroke="none">
<path d="M835 2204 c-60 -13 -175 -32 -255 -44 -191 -28 -291 -49 -308 -62
-22 -19 -10 -61 21 -76 22 -11 39 -11 80 -2 43 9 174 31 416 67 28 5 32 3 25
-10 -11 -19 -175 -186 -248 -253 -70 -63 -71 -81 -8 -165 67 -90 112 -180 128
-257 24 -114 23 -117 -48 -153 -64 -32 -204 -87 -357 -140 -96 -33 -111 -43
-111 -74 0 -34 24 -48 73 -43 50 7 293 94 395 143 40 19 75 35 77 35 12 0 3
-203 -15 -328 -32 -227 -66 -355 -131 -487 -53 -110 -62 -120 -88 -103 -12 7
-47 43 -78 81 -49 59 -60 68 -86 65 -36 -4 -52 -26 -43 -61 8 -34 159 -193
194 -204 41 -15 87 2 120 45 129 163 238 583 236 909 l-1 132 51 20 c28 11 69
25 91 32 54 16 65 26 65 60 0 42 -29 54 -93 38 -29 -7 -67 -18 -85 -26 -18 -7
-37 -11 -41 -9 -4 3 -14 40 -21 83 -14 80 -66 195 -119 263 -15 19 -30 40 -34
47 -4 6 55 73 146 165 168 170 227 252 211 295 -5 14 -18 29 -29 32 -11 4 -69
-3 -130 -15z"/>
</g>
</svg>
