<?xml version="1.0" standalone="no"?>
<!DOCTYPE svg PUBLIC "-//W3C//DTD SVG 20010904//EN"
 "http://www.w3.org/TR/2001/REC-SVG-20010904/DTD/svg10.dtd">
<svg version="1.0" xmlns="http://www.w3.org/2000/svg"
 width="248.000000pt" height="248.000000pt" viewBox="0 0 248.000000 248.000000"
 preserveAspectRatio="xMidYMid meet">
<metadata>
Created by potrace 1.10, written by Peter Selinger 2001-2011
</metadata>
<g transform="translate(0.000000,248.000000) scale(0.100000,-0.100000)"
fill="#000000" stroke="none">
<path d="M835 2204 c-60 -13 -175 -32 -255 -44 -191 -28 -291 -49 -308 -62
-22 -19 -10 -61 21 -76 22 -11 39 -11 80 -2 43 9 174 31 416 67 28 5 32 3 25
-10 -14 -24 -187 -199 -233 -235 -53 -43 -74 -75 -66 -102 8 -26 40 -43 66
-35 12 4 96 82 187 174 184 183 242 263 226 308 -5 14 -18 29 -29 32 -11 4
-69 -3 -130 -15z"/>
</g>
</svg>
