<?xml version="1.0" standalone="no"?>
<!DOCTYPE svg PUBLIC "-//W3C//DTD SVG 20010904//EN"
 "http://www.w3.org/TR/2001/REC-SVG-20010904/DTD/svg10.dtd">
<svg version="1.0" xmlns="http://www.w3.org/2000/svg"
 width="248.000000pt" height="248.000000pt" viewBox="0 0 248.000000 248.000000"
 preserveAspectRatio="xMidYMid meet">
<metadata>
Created by potrace 1.10, written by Peter Selinger 2001-2011
</metadata>
<g transform="translate(0.000000,248.000000) scale(0.100000,-0.100000)"
fill="#000000" stroke="none">
<path d="M1195 2307 c-17 -13 -18 -30 -16 -215 l2 -202 -28 0 c-15 -1 -73 -5
-128 -10 -55 -6 -192 -17 -304 -25 -113 -8 -213 -17 -223 -21 -40 -12 -47 -74
-10 -93 17 -9 111 -3 412 24 91 8 244 22 340 30 96 9 231 22 300 30 69 7 163
16 210 19 254 17 387 29 402 37 32 17 41 48 23 76 -16 23 -21 25 -64 19 -25
-4 -143 -13 -261 -22 -118 -8 -269 -21 -335 -29 -111 -13 -182 -18 -212 -16
-10 1 -13 37 -14 144 0 169 -9 235 -35 254 -23 16 -35 16 -59 0z"/>
<path d="M1592 1658 c-25 -25 -12 -55 51 -114 72 -69 215 -182 304 -242 34
-23 65 -46 68 -52 10 -16 62 -12 79 6 17 17 20 42 8 61 -4 6 -43 35 -86 63
-93 60 -194 140 -290 227 -70 64 -107 78 -134 51z"/>
<path d="M859 1603 c-20 -21 -59 -70 -88 -110 -65 -89 -110 -131 -225 -204
-128 -81 -136 -88 -136 -108 0 -23 31 -51 56 -51 22 0 163 84 244 145 65 50
250 284 250 317 0 58 -52 63 -101 11z"/>
<path d="M1392 1397 c-6 -7 -15 -33 -21 -58 -31 -139 -156 -429 -185 -429 -8
0 -76 62 -152 138 -75 75 -149 145 -163 154 -49 33 -107 16 -99 -29 2 -11 82
-95 178 -188 96 -92 176 -172 178 -176 5 -11 -128 -161 -227 -257 -140 -135
-222 -183 -371 -219 -28 -7 -36 -14 -38 -36 -5 -42 13 -57 69 -57 113 0 256
87 430 260 64 63 141 144 172 179 l55 65 38 -29 c21 -16 81 -68 134 -115 168
-151 414 -307 540 -345 69 -20 238 -44 324 -46 75 -2 99 11 94 50 -4 37 -37
48 -173 60 -146 13 -229 33 -317 77 -103 52 -282 177 -402 283 -60 53 -124
110 -143 126 l-35 30 55 110 c65 131 138 333 140 391 1 23 -4 48 -12 58 -16
19 -54 21 -69 3z"/>
</g>
</svg>
