<?xml version="1.0" standalone="no"?>
<!DOCTYPE svg PUBLIC "-//W3C//DTD SVG 20010904//EN"
 "http://www.w3.org/TR/2001/REC-SVG-20010904/DTD/svg10.dtd">
<svg version="1.0" xmlns="http://www.w3.org/2000/svg"
 width="248.000000pt" height="248.000000pt" viewBox="0 0 248.000000 248.000000"
 preserveAspectRatio="xMidYMid meet">
<metadata>
Created by potrace 1.10, written by Peter Selinger 2001-2011
</metadata>
<g transform="translate(0.000000,248.000000) scale(0.100000,-0.100000)"
fill="#000000" stroke="none">
<path d="M1760 2213 c-79 -5 -561 -53 -695 -69 -71 -8 -193 -21 -270 -30 -82
-9 -149 -21 -162 -30 -30 -19 -30 -59 -1 -78 25 -16 8 -17 388 28 220 25 543
57 717 70 174 13 193 20 193 67 0 47 -25 53 -170 42z"/>
<path d="M1465 1829 c-243 -20 -536 -58 -614 -78 -20 -6 -71 -14 -114 -20
-124 -15 -132 -32 -103 -210 8 -47 20 -126 26 -176 7 -49 18 -125 26 -169 8
-43 14 -80 14 -81 0 -2 7 -11 16 -19 20 -20 58 -20 74 0 14 15 11 40 -46 427
-9 59 -14 110 -11 113 10 11 245 54 374 69 76 9 172 20 213 26 41 6 180 13
309 16 l234 6 -6 -34 c-22 -117 -68 -280 -127 -445 -35 -98 -35 -138 -1 -149
45 -14 62 9 116 162 69 196 128 437 123 505 -5 64 -19 68 -233 66 -99 0 -220
-4 -270 -9z"/>
</g>
</svg>
