<?xml version="1.0" standalone="no"?>
<!DOCTYPE svg PUBLIC "-//W3C//DTD SVG 20010904//EN"
 "http://www.w3.org/TR/2001/REC-SVG-20010904/DTD/svg10.dtd">
<svg version="1.0" xmlns="http://www.w3.org/2000/svg"
 width="248.000000pt" height="248.000000pt" viewBox="0 0 248.000000 248.000000"
 preserveAspectRatio="xMidYMid meet">
<metadata>
Created by potrace 1.10, written by Peter Selinger 2001-2011
</metadata>
<g transform="translate(0.000000,248.000000) scale(0.100000,-0.100000)"
fill="#000000" stroke="none">
<path d="M1760 2213 c-79 -5 -561 -53 -695 -69 -71 -8 -193 -21 -270 -30 -82
-9 -149 -21 -162 -30 -30 -19 -30 -59 -1 -78 25 -16 8 -17 388 28 220 25 543
57 717 70 174 13 193 20 193 67 0 47 -25 53 -170 42z"/>
<path d="M632 1698 c-16 -16 -15 -71 2 -177 8 -47 20 -124 26 -171 31 -238 42
-278 77 -286 63 -16 68 13 39 216 -39 278 -58 386 -72 408 -16 24 -53 29 -72
10z"/>
</g>
</svg>
