<?xml version="1.0" standalone="no"?>
<!DOCTYPE svg PUBLIC "-//W3C//DTD SVG 20010904//EN"
 "http://www.w3.org/TR/2001/REC-SVG-20010904/DTD/svg10.dtd">
<svg version="1.0" xmlns="http://www.w3.org/2000/svg"
 width="248.000000pt" height="248.000000pt" viewBox="0 0 248.000000 248.000000"
 preserveAspectRatio="xMidYMid meet">
<metadata>
Created by potrace 1.10, written by Peter Selinger 2001-2011
</metadata>
<g transform="translate(0.000000,248.000000) scale(0.100000,-0.100000)"
fill="#000000" stroke="none">
<path d="M1821 2287 c-6 -8 -22 -80 -36 -162 -14 -82 -27 -150 -29 -152 -2 -2
-78 -8 -167 -13 -90 -5 -187 -12 -216 -15 l-52 -5 -5 32 c-3 18 -10 87 -17
153 -6 66 -15 126 -21 133 -14 17 -53 15 -68 -3 -14 -16 -14 -127 -1 -240 6
-50 5 -74 -3 -83 -8 -8 -50 -13 -124 -15 -62 -2 -116 -7 -121 -13 -22 -23 -22
-53 -1 -74 18 -18 30 -21 63 -16 23 3 78 6 122 7 l80 2 7 -84 c3 -46 6 -132 7
-191 1 -106 0 -108 -21 -108 -13 0 -63 -3 -113 -6 -239 -15 -295 -30 -295 -78
0 -43 22 -50 113 -38 45 6 134 14 197 18 63 3 159 12 213 18 73 10 100 10 103
1 3 -6 1 -60 -3 -120 l-8 -110 -135 -7 c-186 -11 -358 -35 -388 -54 -27 -18
-27 -25 -3 -229 5 -44 14 -177 21 -295 14 -268 15 -277 41 -285 30 -10 66 2
72 24 3 11 1 73 -3 138 -5 65 -14 197 -20 293 -7 96 -16 195 -20 220 -5 25 -5
48 -1 52 7 8 244 35 356 40 l70 3 3 -35 c1 -19 -1 -107 -5 -195 l-8 -159 -58
-12 c-31 -6 -59 -8 -62 -5 -2 4 -8 51 -14 105 -11 104 -20 126 -56 126 -43 0
-48 -21 -41 -148 14 -229 16 -232 136 -192 41 14 110 24 212 30 206 14 228 21
228 65 0 41 -21 48 -137 44 l-108 -4 3 85 c2 47 7 132 10 189 7 102 8 105 33
112 49 13 402 30 476 23 57 -5 73 -10 74 -23 5 -58 -22 -306 -47 -431 -14 -70
-76 -266 -89 -278 -3 -3 -6 -3 -8 -1 -60 81 -70 90 -100 87 -69 -7 -58 -64 32
-159 66 -69 95 -76 134 -29 31 36 81 164 114 290 29 113 62 378 63 506 0 136
18 129 -314 129 -149 0 -291 -4 -315 -8 l-44 -8 7 118 c3 64 10 120 14 124 16
16 274 32 530 34 178 1 276 5 283 12 18 18 6 57 -21 70 -18 9 -99 13 -298 13
-153 0 -271 4 -268 9 10 15 66 291 66 322 0 16 6 32 13 34 6 2 71 9 143 14 72
6 148 16 170 23 33 11 39 18 42 45 5 49 -24 64 -95 47 -74 -17 -239 -29 -246
-18 -2 5 4 52 14 104 21 110 24 191 7 208 -16 16 -53 15 -67 -1z m-81 -442 c0
-13 -13 -88 -30 -165 -16 -77 -30 -152 -30 -165 0 -14 -6 -25 -12 -25 -7 0
-76 -7 -153 -15 -77 -8 -150 -15 -162 -15 l-23 0 0 189 0 190 53 6 c28 3 115
10 192 14 77 5 146 9 153 10 7 0 12 -10 12 -24z"/>
<path d="M520 2200 c-11 -11 -20 -27 -20 -35 0 -18 35 -55 53 -55 6 0 32 -14
57 -31 69 -47 201 -109 232 -109 20 0 32 7 40 24 17 38 4 54 -76 90 -41 19
-101 52 -133 73 -58 39 -106 63 -123 63 -6 0 -19 -9 -30 -20z"/>
<path d="M202 1508 c-16 -16 -15 -53 1 -66 6 -5 62 -24 122 -41 61 -17 134
-40 163 -51 83 -32 122 -23 122 25 0 32 -25 48 -125 82 -188 64 -257 77 -283
51z"/>
<path d="M551 1032 c-23 -43 -91 -226 -124 -332 -20 -63 -54 -164 -77 -225
-65 -171 -73 -201 -61 -224 24 -44 85 -33 97 17 4 15 28 86 54 157 26 72 64
182 84 245 20 63 54 163 77 223 36 91 40 111 31 132 -14 31 -66 35 -81 7z"/>
</g>
</svg>
