<?xml version="1.0" standalone="no"?>
<!DOCTYPE svg PUBLIC "-//W3C//DTD SVG 20010904//EN"
 "http://www.w3.org/TR/2001/REC-SVG-20010904/DTD/svg10.dtd">
<svg version="1.0" xmlns="http://www.w3.org/2000/svg"
 width="248.000000pt" height="248.000000pt" viewBox="0 0 248.000000 248.000000"
 preserveAspectRatio="xMidYMid meet">
<metadata>
Created by potrace 1.10, written by Peter Selinger 2001-2011
</metadata>
<g transform="translate(0.000000,248.000000) scale(0.100000,-0.100000)"
fill="#000000" stroke="none">
<path d="M1210 2255 c-14 -16 -14 -127 -1 -240 6 -50 5 -74 -3 -83 -8 -8 -50
-13 -124 -15 -62 -2 -116 -7 -121 -13 -22 -23 -22 -53 -1 -74 18 -18 30 -21
63 -16 23 3 78 6 122 7 l80 2 7 -84 c3 -46 6 -129 7 -184 1 -106 8 -125 46
-125 42 0 45 15 45 216 l0 191 38 6 c20 4 138 11 262 17 348 17 492 28 535 42
34 11 40 18 43 45 5 50 -24 64 -96 46 -32 -7 -166 -18 -302 -24 -135 -5 -299
-14 -365 -18 -66 -5 -122 -8 -124 -6 -2 2 -10 71 -18 152 -8 81 -19 154 -25
160 -14 18 -53 16 -68 -2z"/>
<path d="M520 2200 c-11 -11 -20 -27 -20 -35 0 -18 35 -55 53 -55 6 0 32 -14
57 -31 69 -47 201 -109 232 -109 20 0 32 7 40 24 17 38 4 54 -76 90 -41 19
-101 52 -133 73 -58 39 -106 63 -123 63 -6 0 -19 -9 -30 -20z"/>
<path d="M202 1508 c-16 -16 -15 -53 1 -66 6 -5 62 -24 122 -41 61 -17 134
-40 163 -51 83 -32 122 -23 122 25 0 32 -25 48 -125 82 -188 64 -257 77 -283
51z"/>
<path d="M551 1032 c-23 -43 -91 -226 -124 -332 -20 -63 -54 -164 -77 -225
-65 -171 -73 -201 -61 -224 24 -44 85 -33 97 17 4 15 28 86 54 157 26 72 64
182 84 245 20 63 54 163 77 223 36 91 40 111 31 132 -14 31 -66 35 -81 7z"/>
</g>
</svg>
