<?xml version="1.0" standalone="no"?>
<!DOCTYPE svg PUBLIC "-//W3C//DTD SVG 20010904//EN"
 "http://www.w3.org/TR/2001/REC-SVG-20010904/DTD/svg10.dtd">
<svg version="1.0" xmlns="http://www.w3.org/2000/svg"
 width="248.000000pt" height="248.000000pt" viewBox="0 0 248.000000 248.000000"
 preserveAspectRatio="xMidYMid meet">
<metadata>
Created by potrace 1.10, written by Peter Selinger 2001-2011
</metadata>
<g transform="translate(0.000000,248.000000) scale(0.100000,-0.100000)"
fill="#000000" stroke="none">
<path d="M660 2130 c-58 -10 -132 -26 -165 -34 -33 -9 -98 -21 -145 -27 -121
-16 -133 -21 -152 -60 -16 -31 -18 -72 -17 -439 1 -223 4 -593 8 -823 7 -486
-1 -454 106 -442 33 4 173 10 312 14 205 5 255 9 267 21 12 13 15 114 20 670
3 360 8 752 11 870 7 263 7 264 -80 267 -33 0 -107 -7 -165 -17z m139 -237
c-1 -82 -4 -191 -8 -243 -6 -92 -7 -95 -31 -98 -51 -6 -257 -42 -325 -57 -38
-8 -87 -15 -107 -15 l-38 0 0 235 c0 180 3 236 12 239 7 2 48 9 92 16 43 6
104 18 135 27 77 20 189 40 234 42 l37 1 -1 -147z m-13 -465 c-3 -13 -6 -104
-6 -204 l0 -181 -88 -7 c-48 -3 -155 -15 -237 -26 -81 -11 -151 -17 -154 -14
-3 3 -7 87 -9 187 l-3 182 108 19 c59 10 164 29 233 42 163 29 164 29 156 2z
m-6 -710 c0 -117 3 -229 6 -249 l6 -36 -223 -6 c-123 -4 -234 -10 -246 -13
l-23 -6 0 235 c0 205 2 236 16 241 14 5 94 16 264 36 36 4 95 8 133 9 l67 1 0
-212z"/>
</g>
</svg>
