<?xml version="1.0" standalone="no"?>
<!DOCTYPE svg PUBLIC "-//W3C//DTD SVG 20010904//EN"
 "http://www.w3.org/TR/2001/REC-SVG-20010904/DTD/svg10.dtd">
<svg version="1.0" xmlns="http://www.w3.org/2000/svg"
 width="248.000000pt" height="248.000000pt" viewBox="0 0 248.000000 248.000000"
 preserveAspectRatio="xMidYMid meet">
<metadata>
Created by potrace 1.10, written by Peter Selinger 2001-2011
</metadata>
<g transform="translate(0.000000,248.000000) scale(0.100000,-0.100000)"
fill="#000000" stroke="none">
<path d="M1775 2255 c-166 -16 -354 -34 -475 -44 -143 -13 -135 5 -143 -337
-10 -420 -8 -1477 3 -1573 10 -91 27 -121 67 -121 40 0 387 328 399 378 7 26
-19 62 -46 62 -10 0 -58 -39 -107 -87 -49 -49 -117 -112 -151 -141 l-62 -54 0
545 0 545 53 5 c28 3 151 12 272 21 264 18 401 33 425 46 34 18 49 89 65 310
9 118 21 234 27 258 15 59 6 158 -16 180 -22 22 -134 25 -311 7z m221 -162
c-20 -186 -16 -177 -61 -185 -22 -4 -159 -17 -305 -29 -146 -11 -286 -23 -312
-26 l-48 -5 0 125 0 126 43 5 c23 2 101 10 172 17 72 6 186 17 255 24 69 7
156 13 194 14 l69 1 -7 -67z m-31 -320 c-2 -16 -7 -62 -10 -104 l-6 -76 -57
-7 c-31 -4 -156 -14 -277 -22 -121 -9 -250 -18 -287 -21 l-68 -5 0 99 0 100
78 11 c42 6 149 16 237 23 88 6 196 15 240 19 44 4 97 8 117 9 36 1 37 0 33
-26z"/>
<path d="M660 2130 c-58 -10 -132 -25 -165 -34 -33 -9 -98 -21 -145 -27 -126
-16 -128 -17 -147 -46 -16 -24 -18 -61 -21 -348 -1 -176 1 -551 5 -833 9 -594
0 -549 108 -537 33 4 173 10 312 14 205 5 255 9 267 21 12 13 15 114 20 670 3
360 8 752 11 870 7 263 7 264 -80 267 -33 0 -107 -7 -165 -17z m139 -237 c-1
-82 -4 -190 -8 -242 l-6 -95 -140 -22 c-77 -13 -158 -28 -180 -34 -22 -6 -70
-14 -108 -19 l-67 -7 2 239 3 240 102 17 c56 10 131 25 165 33 86 22 156 34
201 36 l37 1 -1 -147z m-13 -465 c-3 -13 -6 -104 -6 -204 l0 -180 -127 -12
c-71 -6 -177 -18 -237 -27 -60 -8 -112 -12 -115 -9 -3 3 -7 87 -9 187 l-3 182
103 18 c57 9 159 28 228 41 166 32 174 32 166 4z m-6 -710 c0 -117 3 -229 6
-249 l6 -36 -223 -6 c-123 -4 -234 -10 -246 -13 l-23 -6 0 235 c0 216 1 236
18 241 17 5 140 22 262 36 36 4 95 8 133 9 l67 1 0 -212z"/>
<path d="M1332 1308 c-31 -31 -15 -61 179 -328 26 -36 62 -86 81 -111 75 -105
219 -279 311 -377 53 -58 97 -108 97 -113 0 -4 39 -41 86 -81 205 -173 256
-202 302 -172 33 22 27 63 -13 84 -53 27 -295 222 -295 238 0 4 -39 48 -86 97
-47 50 -97 106 -112 125 -15 19 -67 84 -115 145 l-89 109 34 15 c233 105 391
207 405 260 15 59 -45 79 -99 34 -82 -70 -194 -133 -341 -194 l-59 -23 -19 24
c-11 14 -43 58 -72 98 -81 114 -97 135 -117 160 -22 24 -59 29 -78 10z"/>
</g>
</svg>
