<?xml version="1.0" standalone="no"?>
<!DOCTYPE svg PUBLIC "-//W3C//DTD SVG 20010904//EN"
 "http://www.w3.org/TR/2001/REC-SVG-20010904/DTD/svg10.dtd">
<svg version="1.0" xmlns="http://www.w3.org/2000/svg"
 width="248.000000pt" height="248.000000pt" viewBox="0 0 248.000000 248.000000"
 preserveAspectRatio="xMidYMid meet">
<metadata>
Created by potrace 1.10, written by Peter Selinger 2001-2011
</metadata>
<g transform="translate(0.000000,248.000000) scale(0.100000,-0.100000)"
fill="#000000" stroke="none">
<path d="M1718 2388 c-8 -7 -26 -31 -39 -53 -39 -67 -109 -155 -196 -250 -46
-49 -83 -98 -83 -107 0 -10 -1 -18 -2 -19 -2 0 -68 -6 -148 -14 -223 -21 -506
-54 -600 -70 -79 -13 -186 -26 -355 -43 -61 -6 -71 -10 -81 -32 -7 -14 -20
-101 -29 -193 -16 -159 -16 -170 1 -188 41 -46 81 -10 90 82 3 35 8 67 10 70
2 4 4 36 5 72 1 36 5 70 9 77 4 7 47 17 96 22 49 5 136 16 194 24 109 15 241
32 465 59 72 9 216 22 320 30 219 17 804 39 812 31 12 -12 -52 -78 -125 -128
-79 -54 -97 -83 -72 -114 21 -25 58 -15 131 32 69 46 199 180 221 229 9 19 7
30 -7 51 l-17 27 -401 -7 c-457 -8 -418 -19 -317 89 56 59 136 165 178 236 17
29 20 42 13 62 -14 35 -46 46 -73 25z"/>
<path d="M1073 2309 c-27 -10 -38 -42 -23 -69 6 -11 22 -59 36 -107 27 -95 45
-123 79 -123 55 0 56 36 7 184 -39 115 -54 132 -99 115z"/>
<path d="M622 2238 c-7 -7 -12 -19 -12 -28 0 -19 115 -246 138 -272 29 -35 82
-16 82 28 0 27 -101 228 -131 260 -24 26 -58 31 -77 12z"/>
<path d="M1545 1684 c-21 -3 -339 -34 -550 -54 -123 -12 -240 -35 -262 -53
-18 -13 -16 -52 2 -67 16 -13 46 -11 215 13 58 9 170 20 250 26 80 6 163 14
185 17 l40 5 -40 -35 c-22 -19 -80 -66 -129 -105 -72 -57 -92 -68 -107 -61
-24 14 -63 12 -77 -2 -21 -21 -14 -56 15 -75 14 -10 56 -46 92 -80 112 -105
148 -208 172 -493 9 -115 8 -145 -5 -202 -34 -145 -171 -358 -231 -358 -25 0
-123 57 -171 100 -83 72 -145 2 -66 -75 84 -83 217 -139 284 -121 78 21 226
232 272 385 29 98 16 399 -25 564 -22 91 -66 180 -120 241 l-39 44 141 113
c78 63 163 132 190 154 37 30 49 47 49 67 0 26 -32 60 -55 57 -5 -1 -19 -3
-30 -5z"/>
</g>
</svg>
