<?xml version="1.0" standalone="no"?>
<!DOCTYPE svg PUBLIC "-//W3C//DTD SVG 20010904//EN"
 "http://www.w3.org/TR/2001/REC-SVG-20010904/DTD/svg10.dtd">
<svg version="1.0" xmlns="http://www.w3.org/2000/svg"
 width="248.000000pt" height="248.000000pt" viewBox="0 0 248.000000 248.000000"
 preserveAspectRatio="xMidYMid meet">
<metadata>
Created by potrace 1.10, written by Peter Selinger 2001-2011
</metadata>
<g transform="translate(0.000000,248.000000) scale(0.100000,-0.100000)"
fill="#000000" stroke="none">
<path d="M660 2130 c-58 -10 -132 -26 -165 -34 -33 -9 -98 -21 -145 -27 -121
-16 -133 -21 -153 -60 -18 -32 -18 -71 -12 -843 4 -445 11 -819 15 -832 20
-52 85 -37 96 24 4 20 4 255 0 522 l-6 485 97 17 c54 9 145 26 203 36 58 11
125 23 150 26 l45 6 0 -497 c0 -424 2 -502 15 -528 17 -33 59 -45 77 -23 8 9
13 215 17 638 3 344 8 722 11 840 7 263 7 264 -80 267 -33 0 -107 -7 -165 -17z
m139 -237 c-1 -82 -4 -191 -8 -243 -6 -92 -7 -95 -31 -98 -51 -6 -257 -42
-325 -57 -38 -8 -87 -15 -107 -15 l-38 0 0 235 c0 180 3 236 12 239 7 2 48 9
92 16 43 6 104 18 135 27 77 20 189 40 234 42 l37 1 -1 -147z"/>
</g>
</svg>
