<?xml version="1.0" standalone="no"?>
<!DOCTYPE svg PUBLIC "-//W3C//DTD SVG 20010904//EN"
 "http://www.w3.org/TR/2001/REC-SVG-20010904/DTD/svg10.dtd">
<svg version="1.0" xmlns="http://www.w3.org/2000/svg"
 width="248.000000pt" height="248.000000pt" viewBox="0 0 248.000000 248.000000"
 preserveAspectRatio="xMidYMid meet">
<metadata>
Created by potrace 1.10, written by Peter Selinger 2001-2011
</metadata>
<g transform="translate(0.000000,248.000000) scale(0.100000,-0.100000)"
fill="#000000" stroke="none">
<path d="M660 2130 c-58 -10 -132 -26 -165 -34 -33 -9 -98 -21 -145 -27 -121
-16 -133 -21 -153 -60 -18 -32 -18 -71 -12 -843 4 -445 11 -819 15 -832 17
-43 74 -41 91 3 5 13 9 141 9 283 0 245 1 259 19 265 36 11 338 45 408 45 l52
0 3 -237 c3 -262 10 -295 59 -301 14 -2 31 3 36 10 8 9 13 215 17 638 3 344 8
722 11 840 7 263 7 264 -80 267 -33 0 -107 -7 -165 -17z m139 -237 c-1 -82 -4
-191 -8 -243 -6 -92 -7 -95 -31 -98 -51 -6 -257 -42 -325 -57 -38 -8 -87 -15
-107 -15 l-38 0 0 235 c0 180 3 236 12 239 7 2 48 9 92 16 43 6 104 18 135 27
77 20 189 40 234 42 l37 1 -1 -147z m-13 -465 c-3 -13 -6 -104 -6 -204 l0
-181 -88 -7 c-48 -3 -155 -15 -237 -26 -81 -11 -151 -17 -154 -14 -3 3 -7 87
-9 187 l-3 182 108 19 c59 10 164 29 233 42 163 29 164 29 156 2z"/>
</g>
</svg>
