<?xml version="1.0" standalone="no"?>
<!DOCTYPE svg PUBLIC "-//W3C//DTD SVG 20010904//EN"
 "http://www.w3.org/TR/2001/REC-SVG-20010904/DTD/svg10.dtd">
<svg version="1.0" xmlns="http://www.w3.org/2000/svg"
 width="248.000000pt" height="248.000000pt" viewBox="0 0 248.000000 248.000000"
 preserveAspectRatio="xMidYMid meet">
<metadata>
Created by potrace 1.10, written by Peter Selinger 2001-2011
</metadata>
<g transform="translate(0.000000,248.000000) scale(0.100000,-0.100000)"
fill="#000000" stroke="none">
<path d="M610 2265 c-9 -11 -14 -82 -18 -249 -3 -129 -8 -240 -13 -247 -7 -12
-174 -42 -304 -56 -33 -3 -66 -10 -72 -16 -16 -12 -17 -49 -1 -65 17 -17 134
-15 265 6 95 16 113 16 118 4 8 -21 6 -496 -3 -507 -4 -6 -99 -51 -211 -99
-263 -114 -285 -126 -289 -154 -8 -56 57 -69 135 -27 93 50 346 156 360 151
10 -4 13 -64 13 -310 0 -181 -4 -307 -9 -311 -6 -3 -38 28 -73 70 -67 80 -86
92 -118 75 -28 -15 -25 -57 8 -101 63 -83 209 -229 230 -229 25 0 52 25 52 48
0 9 0 193 0 407 0 215 4 395 8 401 4 6 54 35 112 64 146 73 162 85 158 123 -6
57 -26 57 -150 -5 -62 -31 -116 -54 -120 -51 -10 5 -10 464 0 479 4 6 32 15
62 19 82 11 240 52 267 70 33 22 28 65 -9 83 -23 11 -33 10 -65 -3 -51 -22
-231 -58 -250 -51 -13 5 -14 34 -8 236 8 246 6 260 -40 260 -12 0 -28 -7 -35
-15z"/>
<path d="M2025 2032 c-27 -1 -106 -9 -175 -17 -69 -8 -156 -17 -195 -20 -63
-5 -163 -14 -345 -31 -76 -7 -110 -25 -110 -58 0 -46 17 -49 177 -36 213 18
199 18 195 -5 -8 -48 -108 -277 -155 -354 -28 -47 -81 -120 -119 -164 -37 -43
-68 -87 -68 -97 0 -24 26 -50 50 -50 24 0 113 93 178 188 81 116 107 171 220
462 17 44 19 45 72 51 30 4 96 12 145 18 50 6 140 12 200 14 92 2 109 0 107
-13 -2 -8 -13 -60 -24 -115 -24 -120 -79 -271 -143 -391 -26 -49 -48 -91 -50
-93 -2 -2 -23 13 -47 33 -67 58 -119 60 -126 4 -2 -20 10 -36 60 -80 110 -96
132 -99 183 -30 41 56 115 204 160 322 29 75 70 231 97 372 9 50 -1 87 -25 89
-28 3 -216 4 -262 1z"/>
<path d="M1940 985 c-8 -3 -139 -9 -290 -14 -428 -16 -497 -30 -487 -94 3 -18
12 -90 21 -162 9 -71 19 -139 21 -150 3 -11 9 -78 14 -148 6 -71 15 -135 22
-143 15 -19 53 -18 70 2 10 13 10 47 0 187 -6 95 -18 217 -25 272 -8 55 -11
103 -7 108 20 21 871 61 884 41 13 -21 -75 -373 -130 -517 -27 -73 -25 -111 6
-120 35 -9 64 16 87 74 47 123 154 546 154 610 0 46 -19 51 -178 54 -81 2
-154 2 -162 0z"/>
</g>
</svg>
