<?xml version="1.0" standalone="no"?>
<!DOCTYPE svg PUBLIC "-//W3C//DTD SVG 20010904//EN"
 "http://www.w3.org/TR/2001/REC-SVG-20010904/DTD/svg10.dtd">
<svg version="1.0" xmlns="http://www.w3.org/2000/svg"
 width="248.000000pt" height="248.000000pt" viewBox="0 0 248.000000 248.000000"
 preserveAspectRatio="xMidYMid meet">
<metadata>
Created by potrace 1.10, written by Peter Selinger 2001-2011
</metadata>
<g transform="translate(0.000000,248.000000) scale(0.100000,-0.100000)"
fill="#000000" stroke="none">
<path d="M610 2265 c-9 -11 -14 -82 -18 -249 -3 -129 -8 -240 -13 -247 -7 -12
-174 -42 -304 -56 -33 -3 -66 -10 -72 -16 -16 -12 -17 -49 -1 -65 17 -17 134
-15 265 6 95 16 113 16 118 4 8 -21 6 -496 -3 -507 -4 -6 -99 -51 -211 -99
-263 -114 -285 -126 -289 -154 -8 -56 57 -69 135 -27 93 50 346 156 360 151
10 -4 13 -64 13 -310 0 -181 -4 -307 -9 -311 -6 -3 -38 28 -73 70 -67 80 -86
92 -118 75 -28 -15 -25 -57 8 -101 63 -83 209 -229 230 -229 25 0 52 25 52 48
0 9 0 193 0 407 0 215 4 395 8 401 4 6 54 35 112 64 146 73 162 85 158 123 -6
57 -26 57 -150 -5 -62 -31 -116 -54 -120 -51 -10 5 -10 464 0 479 4 6 32 15
62 19 82 11 240 52 267 70 33 22 28 65 -9 83 -23 11 -33 10 -65 -3 -51 -22
-231 -58 -250 -51 -13 5 -14 34 -8 236 8 246 6 260 -40 260 -12 0 -28 -7 -35
-15z"/>
</g>
</svg>
