<?xml version="1.0" standalone="no"?>
<!DOCTYPE svg PUBLIC "-//W3C//DTD SVG 20010904//EN"
 "http://www.w3.org/TR/2001/REC-SVG-20010904/DTD/svg10.dtd">
<svg version="1.0" xmlns="http://www.w3.org/2000/svg"
 width="248.000000pt" height="248.000000pt" viewBox="0 0 248.000000 248.000000"
 preserveAspectRatio="xMidYMid meet">
<metadata>
Created by potrace 1.10, written by Peter Selinger 2001-2011
</metadata>
<g transform="translate(0.000000,248.000000) scale(0.100000,-0.100000)"
fill="#000000" stroke="none">
<path d="M1395 2369 c-77 -9 -175 -18 -217 -18 -78 -1 -95 -8 -118 -50 -20
-38 -282 -250 -438 -356 -41 -27 -62 -52 -62 -74 0 -17 31 -41 54 -41 39 0
339 220 474 347 l63 60 155 17 c86 10 157 16 160 14 8 -9 -55 -113 -103 -168
-56 -65 -213 -203 -270 -237 -24 -14 -76 -28 -138 -38 -55 -9 -119 -20 -142
-26 -23 -5 -67 -9 -98 -9 -49 0 -60 -4 -86 -30 -34 -33 -33 -17 -3 -220 8 -58
19 -136 24 -175 5 -38 12 -80 15 -93 7 -31 46 -48 74 -33 27 15 28 75 2 237
-11 66 -22 137 -25 160 l-6 40 93 17 c50 9 128 21 172 27 44 6 109 15 145 20
171 25 485 68 628 86 l42 5 0 -38 c0 -43 -32 -163 -86 -329 -39 -118 -40 -158
-4 -169 40 -13 57 3 82 78 89 262 111 347 112 444 1 106 -9 119 -97 116 -34
-1 -145 -13 -247 -27 -102 -14 -204 -28 -227 -31 l-42 -6 97 98 c156 157 254
341 210 394 -21 26 -43 27 -193 8z"/>
</g>
</svg>
