<?xml version="1.0" standalone="no"?>
<!DOCTYPE svg PUBLIC "-//W3C//DTD SVG 20010904//EN"
 "http://www.w3.org/TR/2001/REC-SVG-20010904/DTD/svg10.dtd">
<svg version="1.0" xmlns="http://www.w3.org/2000/svg"
 width="248.000000pt" height="248.000000pt" viewBox="0 0 248.000000 248.000000"
 preserveAspectRatio="xMidYMid meet">
<metadata>
Created by potrace 1.10, written by Peter Selinger 2001-2011
</metadata>
<g transform="translate(0.000000,248.000000) scale(0.100000,-0.100000)"
fill="#000000" stroke="none">
<path d="M982 2228 c-7 -7 -12 -35 -12 -64 0 -93 -21 -273 -71 -619 -34 -234
-94 -487 -161 -680 -55 -160 -186 -378 -310 -517 -72 -80 -81 -107 -47 -132
32 -22 69 -4 127 63 139 160 304 449 350 616 11 39 31 108 45 155 27 92 80
343 97 455 52 358 81 620 74 665 -11 60 -59 91 -92 58z"/>
</g>
</svg>
