<?xml version="1.0" standalone="no"?>
<!DOCTYPE svg PUBLIC "-//W3C//DTD SVG 20010904//EN"
 "http://www.w3.org/TR/2001/REC-SVG-20010904/DTD/svg10.dtd">
<svg version="1.0" xmlns="http://www.w3.org/2000/svg"
 width="248.000000pt" height="248.000000pt" viewBox="0 0 248.000000 248.000000"
 preserveAspectRatio="xMidYMid meet">
<metadata>
Created by potrace 1.10, written by Peter Selinger 2001-2011
</metadata>
<g transform="translate(0.000000,248.000000) scale(0.100000,-0.100000)"
fill="#000000" stroke="none">
<path d="M522 2018 c-32 -35 -100 -108 -152 -164 -52 -55 -114 -123 -137 -151
-27 -33 -52 -52 -72 -56 -45 -9 -54 -35 -36 -103 8 -32 15 -79 15 -104 0 -25
7 -99 15 -165 8 -66 19 -205 25 -310 12 -204 21 -235 64 -235 32 0 50 25 50
68 0 54 -14 262 -25 372 -5 52 -14 151 -19 220 -6 69 -12 131 -15 138 -5 15
46 76 232 276 141 152 183 203 183 222 0 19 -36 54 -56 54 -9 0 -41 -28 -72
-62z"/>
</g>
</svg>
