<?xml version="1.0" standalone="no"?>
<!DOCTYPE svg PUBLIC "-//W3C//DTD SVG 20010904//EN"
 "http://www.w3.org/TR/2001/REC-SVG-20010904/DTD/svg10.dtd">
<svg version="1.0" xmlns="http://www.w3.org/2000/svg"
 width="248.000000pt" height="248.000000pt" viewBox="0 0 248.000000 248.000000"
 preserveAspectRatio="xMidYMid meet">
<metadata>
Created by potrace 1.10, written by Peter Selinger 2001-2011
</metadata>
<g transform="translate(0.000000,248.000000) scale(0.100000,-0.100000)"
fill="#000000" stroke="none">
<path d="M1447 2132 c-10 -10 -17 -22 -17 -26 0 -8 -119 -224 -239 -433 -44
-78 -81 -150 -81 -161 0 -48 67 -58 98 -14 18 25 161 274 214 372 14 25 44 79
66 121 42 77 52 125 30 147 -18 18 -53 15 -71 -6z"/>
<path d="M522 2018 c-32 -35 -100 -108 -152 -164 -52 -55 -114 -123 -137 -151
-27 -33 -52 -52 -72 -56 -45 -9 -54 -35 -36 -103 8 -32 15 -79 15 -104 0 -25
7 -99 15 -165 8 -66 19 -205 25 -310 13 -222 20 -241 78 -231 145 26 378 56
438 56 113 0 118 7 155 210 48 265 88 528 95 620 8 108 0 120 -84 120 -57 0
-354 -33 -447 -49 -27 -5 -52 -8 -54 -5 -2 2 50 61 116 131 143 153 173 190
173 209 0 19 -36 54 -56 54 -9 0 -41 -28 -72 -62z m313 -460 c-4 -40 -12 -104
-18 -143 l-12 -69 -90 -17 c-145 -27 -408 -69 -432 -69 -24 0 -27 13 -38 175
-4 49 -7 94 -8 99 -3 16 67 35 207 56 200 30 265 37 334 39 l64 1 -7 -72z
m-50 -347 c-5 -18 -26 -127 -46 -246 -6 -33 -11 -60 -12 -61 -1 0 -63 -9 -137
-18 -74 -10 -170 -22 -213 -28 -43 -5 -80 -8 -82 -7 -2 2 -6 54 -9 114 -4 61
-9 127 -12 147 -5 35 -4 37 28 43 149 27 438 73 461 74 23 1 27 -2 22 -18z"/>
</g>
</svg>
