<?xml version="1.0" standalone="no"?>
<!DOCTYPE svg PUBLIC "-//W3C//DTD SVG 20010904//EN"
 "http://www.w3.org/TR/2001/REC-SVG-20010904/DTD/svg10.dtd">
<svg version="1.0" xmlns="http://www.w3.org/2000/svg"
 width="248.000000pt" height="248.000000pt" viewBox="0 0 248.000000 248.000000"
 preserveAspectRatio="xMidYMid meet">
<metadata>
Created by potrace 1.10, written by Peter Selinger 2001-2011
</metadata>
<g transform="translate(0.000000,248.000000) scale(0.100000,-0.100000)"
fill="#000000" stroke="none">
<path d="M1085 2373 c-16 -2 -76 -10 -131 -18 -56 -8 -128 -15 -161 -15 -71 0
-86 -10 -121 -78 -35 -68 -190 -251 -319 -378 -65 -64 -103 -109 -103 -122 0
-26 25 -52 51 -52 21 0 182 145 242 218 21 26 43 51 48 56 5 6 23 -2 46 -20
21 -17 78 -56 126 -88 48 -31 90 -63 94 -71 3 -9 -11 -35 -33 -63 -69 -84
-266 -275 -386 -376 -119 -98 -137 -123 -106 -154 25 -25 64 -13 129 39 129
104 273 237 362 334 80 88 232 302 288 404 11 20 33 61 50 91 51 94 89 193 89
233 0 34 -4 40 -35 53 -33 13 -66 15 -130 7z m40 -125 c-11 -35 -71 -152 -117
-227 -22 -36 -49 -80 -60 -98 l-19 -32 -117 78 c-64 43 -123 85 -129 93 -13
15 -10 19 87 147 12 16 42 23 160 39 201 27 203 27 195 0z"/>
</g>
</svg>
