<?xml version="1.0" standalone="no"?>
<!DOCTYPE svg PUBLIC "-//W3C//DTD SVG 20010904//EN"
 "http://www.w3.org/TR/2001/REC-SVG-20010904/DTD/svg10.dtd">
<svg version="1.0" xmlns="http://www.w3.org/2000/svg"
 width="248.000000pt" height="248.000000pt" viewBox="0 0 248.000000 248.000000"
 preserveAspectRatio="xMidYMid meet">
<metadata>
Created by potrace 1.10, written by Peter Selinger 2001-2011
</metadata>
<g transform="translate(0.000000,248.000000) scale(0.100000,-0.100000)"
fill="#000000" stroke="none">
<path d="M1085 2373 c-16 -2 -76 -10 -131 -18 -56 -8 -128 -15 -161 -15 -71 0
-86 -10 -121 -78 -35 -68 -190 -251 -319 -378 -65 -64 -103 -109 -103 -122 0
-26 25 -52 51 -52 43 0 368 343 455 481 13 21 30 39 37 39 6 0 83 9 170 21 87
12 160 19 163 16 16 -15 -87 -205 -219 -404 -102 -153 -273 -334 -469 -497
-119 -98 -137 -123 -106 -154 25 -25 64 -13 129 39 129 104 273 237 362 334
80 88 232 302 288 404 11 20 33 61 50 91 51 94 89 193 89 233 0 34 -4 40 -35
53 -33 13 -66 15 -130 7z"/>
</g>
</svg>
