<?xml version="1.0" standalone="no"?>
<!DOCTYPE svg PUBLIC "-//W3C//DTD SVG 20010904//EN"
 "http://www.w3.org/TR/2001/REC-SVG-20010904/DTD/svg10.dtd">
<svg version="1.0" xmlns="http://www.w3.org/2000/svg"
 width="248.000000pt" height="248.000000pt" viewBox="0 0 248.000000 248.000000"
 preserveAspectRatio="xMidYMid meet">
<metadata>
Created by potrace 1.10, written by Peter Selinger 2001-2011
</metadata>
<g transform="translate(0.000000,248.000000) scale(0.100000,-0.100000)"
fill="#000000" stroke="none">
<path d="M1085 2373 c-16 -2 -76 -10 -131 -18 -56 -8 -128 -15 -161 -15 -71 0
-86 -10 -121 -78 -35 -68 -190 -251 -319 -378 -105 -103 -118 -127 -87 -158
26 -27 53 -18 108 34 29 28 56 50 59 50 9 0 262 -190 265 -199 3 -10 -165
-166 -290 -270 -89 -73 -105 -100 -76 -129 25 -25 64 -13 129 39 129 104 273
237 362 334 80 88 232 302 288 404 11 20 33 61 50 91 51 94 89 193 89 233 0
34 -4 40 -35 53 -33 13 -66 15 -130 7z m40 -125 c-11 -35 -71 -152 -117 -227
-22 -36 -49 -80 -60 -98 l-19 -32 -117 78 c-64 43 -123 85 -129 93 -13 15 -10
19 87 147 12 16 42 23 160 39 201 27 203 27 195 0z m-476 -293 c25 -19 82 -58
126 -87 44 -29 81 -60 83 -68 1 -8 -17 -36 -40 -63 l-43 -48 -127 96 c-71 53
-128 100 -128 106 0 10 70 99 79 99 2 0 25 -16 50 -35z"/>
</g>
</svg>
