<?xml version="1.0" standalone="no"?>
<!DOCTYPE svg PUBLIC "-//W3C//DTD SVG 20010904//EN"
 "http://www.w3.org/TR/2001/REC-SVG-20010904/DTD/svg10.dtd">
<svg version="1.0" xmlns="http://www.w3.org/2000/svg"
 width="248.000000pt" height="248.000000pt" viewBox="0 0 248.000000 248.000000"
 preserveAspectRatio="xMidYMid meet">
<metadata>
Created by potrace 1.10, written by Peter Selinger 2001-2011
</metadata>
<g transform="translate(0.000000,248.000000) scale(0.100000,-0.100000)"
fill="#000000" stroke="none">
<path d="M1834 2065 c-77 -18 -173 -38 -214 -44 -41 -7 -113 -21 -160 -32 -47
-11 -112 -24 -145 -29 -33 -5 -121 -18 -195 -30 -246 -37 -404 -59 -505 -70
-110 -12 -145 -28 -145 -64 0 -35 26 -51 79 -48 46 1 257 29 441 57 52 8 156
24 230 35 130 20 159 25 300 56 36 8 93 19 128 24 35 5 133 25 218 45 167 40
187 52 166 100 -16 34 -48 34 -198 0z"/>
</g>
</svg>
