<?xml version="1.0" standalone="no"?>
<!DOCTYPE svg PUBLIC "-//W3C//DTD SVG 20010904//EN"
 "http://www.w3.org/TR/2001/REC-SVG-20010904/DTD/svg10.dtd">
<svg version="1.0" xmlns="http://www.w3.org/2000/svg"
 width="248.000000pt" height="248.000000pt" viewBox="0 0 248.000000 248.000000"
 preserveAspectRatio="xMidYMid meet">
<metadata>
Created by potrace 1.10, written by Peter Selinger 2001-2011
</metadata>
<g transform="translate(0.000000,248.000000) scale(0.100000,-0.100000)"
fill="#000000" stroke="none">
<path d="M1102 2283 c-11 -10 -89 -106 -172 -213 -235 -303 -405 -472 -668
-667 -107 -79 -118 -95 -86 -127 37 -38 81 -14 306 168 138 112 317 291 411
410 34 44 115 147 180 229 64 82 117 156 117 163 0 18 -36 54 -54 54 -8 0 -23
-8 -34 -17z"/>
</g>
</svg>
