<?xml version="1.0" standalone="no"?>
<!DOCTYPE svg PUBLIC "-//W3C//DTD SVG 20010904//EN"
 "http://www.w3.org/TR/2001/REC-SVG-20010904/DTD/svg10.dtd">
<svg version="1.0" xmlns="http://www.w3.org/2000/svg"
 width="248.000000pt" height="248.000000pt" viewBox="0 0 248.000000 248.000000"
 preserveAspectRatio="xMidYMid meet">
<metadata>
Created by potrace 1.10, written by Peter Selinger 2001-2011
</metadata>
<g transform="translate(0.000000,248.000000) scale(0.100000,-0.100000)"
fill="#000000" stroke="none">
<path d="M1094 2283 c-8 -10 -82 -105 -164 -212 -231 -300 -403 -472 -668
-668 -107 -79 -118 -95 -86 -127 37 -38 81 -14 306 168 133 108 305 278 396
392 31 39 102 128 156 198 55 69 103 125 108 124 5 -2 62 -62 126 -133 149
-164 296 -285 617 -509 128 -89 381 -226 418 -226 46 0 64 52 29 83 -10 9 -76
46 -146 82 -133 68 -168 90 -351 221 -260 187 -413 320 -541 474 -120 143
-164 173 -200 133z"/>
<path d="M1590 1499 c-36 -5 -128 -18 -205 -29 -163 -23 -329 -37 -545 -45
-175 -7 -205 -15 -205 -60 0 -41 33 -56 110 -50 33 2 117 7 188 10 l127 6 1
-53 c2 -152 -3 -344 -10 -351 -4 -4 -84 -12 -177 -18 -93 -6 -179 -13 -191
-15 -46 -9 -53 -72 -11 -95 20 -11 254 1 346 17 l32 6 0 -156 c0 -87 -5 -188
-11 -226 -11 -67 -13 -70 -43 -74 -141 -21 -291 -37 -395 -42 -101 -6 -128
-11 -143 -26 -10 -10 -18 -25 -18 -33 0 -26 38 -55 73 -55 44 0 298 27 378 39
220 35 806 38 961 6 119 -25 158 -18 158 31 0 12 -7 27 -15 34 -51 42 -445 77
-719 64 l-138 -7 7 64 c5 35 11 138 14 228 l6 164 135 24 c74 12 175 29 223
37 49 7 93 18 99 24 17 17 12 64 -8 79 -21 16 -20 16 -267 -29 -93 -16 -170
-28 -172 -26 -3 3 -7 233 -6 340 l1 57 43 5 c23 3 124 17 224 31 100 14 202
25 226 25 54 0 80 18 80 55 0 53 -28 61 -153 44z"/>
</g>
</svg>
