<?xml version="1.0" standalone="no"?>
<!DOCTYPE svg PUBLIC "-//W3C//DTD SVG 20010904//EN"
 "http://www.w3.org/TR/2001/REC-SVG-20010904/DTD/svg10.dtd">
<svg version="1.0" xmlns="http://www.w3.org/2000/svg"
 width="248.000000pt" height="248.000000pt" viewBox="0 0 248.000000 248.000000"
 preserveAspectRatio="xMidYMid meet">
<metadata>
Created by potrace 1.10, written by Peter Selinger 2001-2011
</metadata>
<g transform="translate(0.000000,248.000000) scale(0.100000,-0.100000)"
fill="#000000" stroke="none">
<path d="M2008 2043 c-8 -10 -21 -33 -28 -52 -8 -19 -39 -67 -71 -105 -78 -99
-84 -112 -64 -142 33 -50 73 -24 176 116 61 83 85 160 57 188 -17 17 -53 15
-70 -5z"/>
<path d="M1162 1958 c-29 -29 -7 -87 78 -213 59 -87 122 -155 143 -155 24 0
47 28 47 58 0 18 -15 45 -43 77 -46 53 -103 138 -132 195 -10 19 -23 38 -29
42 -17 12 -51 9 -64 -4z"/>
</g>
</svg>
