<?xml version="1.0" standalone="no"?>
<!DOCTYPE svg PUBLIC "-//W3C//DTD SVG 20010904//EN"
 "http://www.w3.org/TR/2001/REC-SVG-20010904/DTD/svg10.dtd">
<svg version="1.0" xmlns="http://www.w3.org/2000/svg"
 width="248.000000pt" height="248.000000pt" viewBox="0 0 248.000000 248.000000"
 preserveAspectRatio="xMidYMid meet">
<metadata>
Created by potrace 1.10, written by Peter Selinger 2001-2011
</metadata>
<g transform="translate(0.000000,248.000000) scale(0.100000,-0.100000)"
fill="#000000" stroke="none">
<path d="M1412 2318 c-45 -45 18 -103 243 -225 72 -39 179 -99 240 -133 106
-60 263 -132 317 -145 38 -10 68 10 68 44 0 37 -7 42 -120 87 -88 34 -262 124
-320 164 -14 10 -75 44 -135 75 -61 32 -138 77 -172 101 -62 44 -99 54 -121
32z"/>
<path d="M873 2193 c-82 -108 -284 -291 -456 -413 -78 -56 -100 -87 -80 -119
33 -53 126 4 422 264 170 149 240 252 199 293 -23 23 -56 13 -85 -25z"/>
<path d="M1575 1954 c-55 -7 -147 -19 -205 -25 -58 -6 -145 -17 -195 -24 -49
-8 -117 -16 -150 -19 -33 -3 -89 -8 -125 -12 -36 -3 -75 -12 -87 -20 -25 -16
-30 -53 -11 -72 14 -14 102 -15 228 -2 47 4 87 6 89 4 9 -8 -104 -111 -191
-175 -149 -110 -201 -144 -273 -184 -85 -46 -115 -72 -115 -100 0 -57 48 -58
143 -4 40 22 77 44 84 47 7 4 45 30 85 57 241 165 388 305 388 368 0 9 27 17
88 25 156 20 303 34 309 29 15 -15 -111 -347 -132 -347 -6 0 -20 9 -30 20 -20
22 -64 27 -83 8 -24 -24 -12 -55 38 -102 44 -41 55 -47 87 -44 31 2 43 11 73
50 37 51 90 180 140 342 30 99 36 141 22 163 -7 12 -57 34 -70 32 -4 -1 -52
-8 -107 -15z"/>
</g>
</svg>
