<?xml version="1.0" standalone="no"?>
<!DOCTYPE svg PUBLIC "-//W3C//DTD SVG 20010904//EN"
 "http://www.w3.org/TR/2001/REC-SVG-20010904/DTD/svg10.dtd">
<svg version="1.0" xmlns="http://www.w3.org/2000/svg"
 width="248.000000pt" height="248.000000pt" viewBox="0 0 248.000000 248.000000"
 preserveAspectRatio="xMidYMid meet">
<metadata>
Created by potrace 1.10, written by Peter Selinger 2001-2011
</metadata>
<g transform="translate(0.000000,248.000000) scale(0.100000,-0.100000)"
fill="#000000" stroke="none">
<path d="M1412 2318 c-45 -45 18 -103 243 -225 72 -39 179 -99 240 -133 106
-60 263 -132 317 -145 38 -10 68 10 68 44 0 37 -7 42 -120 87 -88 34 -262 124
-320 164 -14 10 -75 44 -135 75 -61 32 -138 77 -172 101 -62 44 -99 54 -121
32z"/>
<path d="M873 2193 c-82 -108 -284 -291 -456 -413 -78 -56 -100 -87 -80 -119
33 -53 126 4 422 264 170 149 240 252 199 293 -23 23 -56 13 -85 -25z"/>
<path d="M1575 1954 c-55 -7 -147 -19 -205 -25 -58 -6 -145 -17 -195 -24 -49
-8 -117 -16 -150 -19 -33 -3 -89 -8 -125 -12 -36 -3 -75 -12 -87 -20 -25 -16
-30 -53 -11 -72 14 -14 102 -15 228 -2 47 4 87 6 89 4 9 -8 -104 -111 -191
-175 -149 -110 -201 -144 -273 -184 -85 -46 -115 -72 -115 -100 0 -55 50 -59
130 -10 32 19 62 35 68 35 17 0 24 -196 17 -490 -7 -318 -4 -335 50 -335 52 0
54 16 57 406 2 194 -1 369 -5 387 l-9 32 104 0 c57 0 175 5 263 10 88 6 229
15 314 20 97 6 157 7 161 1 3 -6 2 -47 -2 -93 -3 -46 -7 -225 -7 -398 -1 -341
2 -362 50 -368 53 -6 53 -3 62 457 4 234 8 439 9 454 1 47 -23 62 -102 62 -39
0 -70 1 -70 2 0 1 14 37 31 80 43 105 99 289 99 322 0 14 -4 31 -8 38 -7 12
-57 34 -70 32 -4 -1 -52 -8 -107 -15z m61 -126 c-4 -13 -13 -45 -21 -73 -7
-27 -32 -95 -54 -150 -23 -54 -41 -100 -41 -102 0 -11 -30 0 -45 17 -32 35
-95 21 -95 -21 0 -22 -42 -28 -280 -35 -124 -4 -191 -3 -185 3 6 5 39 31 75
58 151 113 250 218 250 268 0 13 61 24 255 45 141 16 148 15 141 -10z"/>
</g>
</svg>
