<?xml version="1.0" standalone="no"?>
<!DOCTYPE svg PUBLIC "-//W3C//DTD SVG 20010904//EN"
 "http://www.w3.org/TR/2001/REC-SVG-20010904/DTD/svg10.dtd">
<svg version="1.0" xmlns="http://www.w3.org/2000/svg"
 width="248.000000pt" height="248.000000pt" viewBox="0 0 248.000000 248.000000"
 preserveAspectRatio="xMidYMid meet">
<metadata>
Created by potrace 1.10, written by Peter Selinger 2001-2011
</metadata>
<g transform="translate(0.000000,248.000000) scale(0.100000,-0.100000)"
fill="#000000" stroke="none">
<path d="M1805 2229 c-55 -4 -179 -12 -275 -18 -96 -6 -211 -16 -255 -21 -80
-10 -242 -21 -554 -40 -90 -6 -176 -16 -190 -23 -36 -17 -40 -60 -8 -82 21
-13 43 -14 173 -5 82 5 218 14 303 20 85 6 156 8 158 6 9 -9 -53 -103 -161
-246 -162 -215 -238 -301 -426 -482 -138 -132 -170 -168 -170 -190 0 -27 23
-48 52 -48 33 0 315 273 457 442 130 155 270 344 340 460 l53 86 106 6 c59 4
161 11 227 16 66 5 182 13 258 16 126 6 137 6 137 -11 0 -22 -24 -119 -56
-220 -13 -44 -32 -105 -41 -135 -9 -30 -32 -89 -51 -130 -19 -41 -40 -92 -48
-113 -37 -103 -165 -287 -199 -287 -6 0 -32 20 -57 45 -50 49 -76 55 -101 27
-25 -27 -21 -47 16 -88 73 -84 139 -111 194 -81 72 40 182 196 244 347 15 36
40 94 56 130 16 36 37 92 47 125 10 33 26 87 37 120 55 173 81 321 61 352 -21
33 -108 39 -327 22z"/>
<path d="M835 1011 c-251 -6 -285 -11 -298 -46 -3 -5 2 -131 10 -280 7 -148
17 -340 21 -426 5 -109 12 -162 21 -173 20 -24 63 -16 79 14 14 27 13 68 -12
555 -6 132 -11 241 -11 242 1 2 260 6 575 10 l573 6 -7 -189 c-3 -104 -11
-225 -16 -269 -34 -309 -34 -303 -21 -319 17 -20 55 -21 74 -1 18 18 23 40 37
165 5 52 14 132 19 176 14 120 25 425 17 468 -6 32 -14 40 -49 57 -39 17 -67
18 -402 17 -198 -1 -472 -4 -610 -7z"/>
</g>
</svg>
