<?xml version="1.0" standalone="no"?>
<!DOCTYPE svg PUBLIC "-//W3C//DTD SVG 20010904//EN"
 "http://www.w3.org/TR/2001/REC-SVG-20010904/DTD/svg10.dtd">
<svg version="1.0" xmlns="http://www.w3.org/2000/svg"
 width="248.000000pt" height="248.000000pt" viewBox="0 0 248.000000 248.000000"
 preserveAspectRatio="xMidYMid meet">
<metadata>
Created by potrace 1.10, written by Peter Selinger 2001-2011
</metadata>
<g transform="translate(0.000000,248.000000) scale(0.100000,-0.100000)"
fill="#000000" stroke="none">
<path d="M1424 2347 c-52 -46 -154 -123 -289 -222 -16 -12 -46 -30 -65 -40
-19 -10 -38 -22 -41 -27 -3 -5 -6 -138 -6 -296 -1 -158 -6 -323 -12 -367 -18
-129 -31 -423 -21 -449 16 -44 74 -44 90 -1 5 13 12 73 16 134 l7 111 31 4
c29 5 74 9 386 36 69 6 163 15 210 21 47 5 149 13 227 17 153 9 176 17 171 61
-5 44 -38 53 -173 46 -66 -3 -156 -10 -200 -15 -92 -10 -247 -25 -420 -40 -66
-6 -144 -13 -172 -16 l-53 -5 0 40 c0 79 9 88 97 94 159 11 493 55 507 66 15
13 23 102 32 387 4 100 4 193 0 207 -10 43 -68 53 -196 33 -196 -32 -227 -36
-254 -36 l-27 0 33 28 c18 16 56 44 83 62 28 19 78 61 113 94 62 59 75 89 50
114 -25 25 -62 13 -124 -41z m216 -397 c0 -50 -4 -80 -11 -80 -5 0 -101 -11
-211 -26 -111 -14 -219 -24 -242 -22 l-41 3 0 69 0 70 177 22 c97 13 196 27
220 32 24 6 58 10 76 11 l32 1 0 -80z m-12 -272 c-3 -46 -7 -86 -7 -89 -1 -4
-38 -10 -83 -14 -46 -4 -90 -9 -98 -10 -14 -2 -181 -21 -272 -29 l-38 -4 0 87
0 87 128 14 c70 7 163 19 207 26 44 6 100 12 125 13 l45 1 -7 -82z"/>
<path d="M605 1864 c-66 -6 -160 -18 -210 -27 -49 -9 -117 -19 -149 -23 -44
-5 -66 -13 -84 -31 -22 -22 -24 -30 -17 -76 14 -106 25 -276 25 -397 1 -140
13 -189 50 -206 37 -16 472 18 505 40 31 21 51 59 60 116 13 86 18 521 6 561
-16 52 -40 57 -186 43z m84 -311 c-1 -115 -4 -233 -7 -263 l-7 -55 -140 -12
c-77 -6 -166 -12 -197 -12 l-58 -1 0 94 c0 95 -16 330 -26 377 l-5 25 138 22
c76 12 149 23 163 25 14 3 51 5 83 6 l57 1 -1 -207z"/>
</g>
</svg>
