<?xml version="1.0" standalone="no"?>
<!DOCTYPE svg PUBLIC "-//W3C//DTD SVG 20010904//EN"
 "http://www.w3.org/TR/2001/REC-SVG-20010904/DTD/svg10.dtd">
<svg version="1.0" xmlns="http://www.w3.org/2000/svg"
 width="248.000000pt" height="248.000000pt" viewBox="0 0 248.000000 248.000000"
 preserveAspectRatio="xMidYMid meet">
<metadata>
Created by potrace 1.10, written by Peter Selinger 2001-2011
</metadata>
<g transform="translate(0.000000,248.000000) scale(0.100000,-0.100000)"
fill="#000000" stroke="none">
<path d="M605 1864 c-66 -6 -160 -18 -210 -27 -49 -9 -117 -19 -149 -23 -44
-5 -66 -13 -84 -31 -22 -22 -24 -30 -17 -76 14 -108 25 -276 25 -397 0 -145
10 -175 55 -175 44 0 55 31 55 156 0 105 -15 340 -26 390 l-5 25 137 23 c75
12 175 25 220 28 l84 6 -1 -204 c0 -112 -3 -235 -8 -272 -9 -80 2 -111 41
-115 33 -4 53 24 63 88 13 88 18 522 6 561 -16 52 -40 57 -186 43z"/>
</g>
</svg>
