<?xml version="1.0" standalone="no"?>
<!DOCTYPE svg PUBLIC "-//W3C//DTD SVG 20010904//EN"
 "http://www.w3.org/TR/2001/REC-SVG-20010904/DTD/svg10.dtd">
<svg version="1.0" xmlns="http://www.w3.org/2000/svg"
 width="248.000000pt" height="248.000000pt" viewBox="0 0 248.000000 248.000000"
 preserveAspectRatio="xMidYMid meet">
<metadata>
Created by potrace 1.10, written by Peter Selinger 2001-2011
</metadata>
<g transform="translate(0.000000,248.000000) scale(0.100000,-0.100000)"
fill="#000000" stroke="none">
<path d="M1710 2129 c-343 -28 -558 -48 -650 -59 -47 -6 -179 -13 -295 -16
-120 -3 -215 -10 -222 -16 -16 -13 -17 -50 -1 -66 17 -17 410 -16 568 2 69 8
163 17 210 20 47 4 155 13 240 21 85 8 213 19 284 25 72 6 138 16 148 21 25
13 24 65 -1 79 -23 12 -8 12 -281 -11z"/>
</g>
</svg>
