<?xml version="1.0" standalone="no"?>
<!DOCTYPE svg PUBLIC "-//W3C//DTD SVG 20010904//EN"
 "http://www.w3.org/TR/2001/REC-SVG-20010904/DTD/svg10.dtd">
<svg version="1.0" xmlns="http://www.w3.org/2000/svg"
 width="248.000000pt" height="248.000000pt" viewBox="0 0 248.000000 248.000000"
 preserveAspectRatio="xMidYMid meet">
<metadata>
Created by potrace 1.10, written by Peter Selinger 2001-2011
</metadata>
<g transform="translate(0.000000,248.000000) scale(0.100000,-0.100000)"
fill="#000000" stroke="none">
<path d="M1710 2129 c-343 -28 -558 -48 -650 -59 -47 -6 -179 -13 -295 -16
-120 -3 -215 -10 -222 -16 -16 -13 -17 -50 -1 -66 16 -16 390 -16 545 -1 62 7
116 10 118 7 3 -3 -15 -43 -41 -88 -60 -109 -221 -319 -287 -373 -28 -23 -65
-56 -82 -74 -31 -30 -38 -32 -216 -58 -101 -15 -201 -29 -222 -32 -73 -11 -72
3 -37 -548 7 -93 17 -259 24 -367 13 -202 19 -228 57 -228 10 0 21 -5 25 -11
7 -12 147 -6 252 12 192 32 457 50 807 56 358 6 373 5 448 -16 93 -25 111 -20
128 42 6 23 19 67 30 98 41 124 68 282 118 694 47 385 47 388 -7 402 -15 4
-191 7 -392 7 -305 0 -395 -4 -545 -22 -99 -11 -211 -24 -250 -27 l-70 -7 47
48 c89 92 228 287 285 402 l57 112 39 0 c22 0 107 7 191 15 83 8 209 19 280
25 72 6 138 16 148 21 25 13 24 65 -1 79 -23 12 -8 12 -281 -11z m418 -735
c15 -4 9 -127 -13 -259 -8 -44 -17 -109 -20 -145 -20 -216 -64 -462 -102 -567
l-25 -72 -47 7 c-25 4 -131 7 -235 7 l-188 0 6 60 c4 33 11 197 16 365 14 455
22 590 34 598 26 17 523 22 574 6z m-682 -18 c7 -18 -14 -238 -23 -247 -5 -4
-62 -15 -128 -23 -66 -9 -151 -20 -188 -26 -106 -16 -107 -15 -107 135 l0 124
33 5 c17 3 82 10 142 16 61 6 137 15 170 19 89 12 95 12 101 -3z m-543 -78 c3
-12 5 -231 4 -487 l-2 -466 -45 -7 c-95 -16 -346 -48 -372 -48 -17 0 -29 7
-32 18 -3 9 -12 127 -21 262 -8 135 -20 292 -25 350 -11 120 -16 327 -8 335 7
7 396 63 449 64 40 1 47 -2 52 -21z m525 -403 c1 -66 -1 -125 -5 -131 -7 -8
-286 -43 -388 -48 l-30 -1 -3 119 c-2 78 1 123 9 132 7 9 31 14 65 14 29 0 97
7 151 15 112 17 161 22 183 21 12 -1 15 -23 18 -121z m-9 -282 c0 -21 -6 -85
-12 -143 l-12 -105 -190 -6 c-104 -3 -194 -3 -198 1 -4 4 -6 60 -5 125 l3 119
80 13 c90 16 216 30 288 32 l47 1 -1 -37z"/>
</g>
</svg>
