<?xml version="1.0" standalone="no"?>
<!DOCTYPE svg PUBLIC "-//W3C//DTD SVG 20010904//EN"
 "http://www.w3.org/TR/2001/REC-SVG-20010904/DTD/svg10.dtd">
<svg version="1.0" xmlns="http://www.w3.org/2000/svg"
 width="248.000000pt" height="248.000000pt" viewBox="0 0 248.000000 248.000000"
 preserveAspectRatio="xMidYMid meet">
<metadata>
Created by potrace 1.10, written by Peter Selinger 2001-2011
</metadata>
<g transform="translate(0.000000,248.000000) scale(0.100000,-0.100000)"
fill="#000000" stroke="none">
<path d="M521 2173 c-126 -126 -243 -248 -260 -272 -47 -66 -42 -97 21 -164
29 -30 72 -78 96 -106 45 -54 82 -71 107 -51 39 32 10 87 -112 212 -33 34 -35
37 -20 58 16 23 202 213 366 374 79 76 101 104 101 125 0 15 -5 32 -12 39 -32
32 -56 13 -287 -215z"/>
</g>
</svg>
