<?xml version="1.0" standalone="no"?>
<!DOCTYPE svg PUBLIC "-//W3C//DTD SVG 20010904//EN"
 "http://www.w3.org/TR/2001/REC-SVG-20010904/DTD/svg10.dtd">
<svg version="1.0" xmlns="http://www.w3.org/2000/svg"
 width="248.000000pt" height="248.000000pt" viewBox="0 0 248.000000 248.000000"
 preserveAspectRatio="xMidYMid meet">
<metadata>
Created by potrace 1.10, written by Peter Selinger 2001-2011
</metadata>
<g transform="translate(0.000000,248.000000) scale(0.100000,-0.100000)"
fill="#000000" stroke="none">
<path d="M1745 2385 c-57 -43 -109 -76 -270 -168 -38 -22 -79 -48 -90 -58 -11
-9 -44 -20 -74 -24 -38 -5 -62 -15 -79 -32 l-25 -25 7 -251 c10 -344 19 -434
46 -461 24 -24 72 -25 310 -6 74 6 223 13 330 16 107 3 210 10 227 16 56 17
73 49 73 142 0 44 7 135 15 201 17 145 19 386 2 435 -22 64 -52 66 -387 31
-47 -5 -112 -12 -145 -16 l-60 -6 40 24 c105 65 206 144 212 166 8 33 -8 55
-43 59 -21 2 -45 -10 -89 -43z m375 -390 l0 -124 -32 -5 c-18 -3 -69 -7 -113
-10 -163 -10 -482 -37 -560 -46 -44 -6 -83 -10 -87 -10 -5 0 -8 51 -8 114 0
101 2 115 18 120 18 5 207 29 357 45 50 6 135 15 190 21 55 6 120 12 145 14
25 1 55 3 68 4 22 2 22 0 22 -123z m-14 -277 c-3 -24 -9 -84 -12 -134 l-7 -91
-171 -6 c-94 -3 -261 -13 -371 -21 -109 -8 -201 -13 -204 -10 -2 2 -5 57 -5
121 l-1 118 57 7 c64 8 506 44 697 56 22 2 23 0 17 -40z"/>
<path d="M522 2173 c-126 -125 -244 -248 -261 -272 -46 -65 -42 -98 16 -158
59 -60 133 -150 133 -161 0 -5 -15 -26 -33 -48 -18 -21 -49 -61 -67 -89 -19
-27 -59 -81 -90 -120 -105 -132 -124 -170 -101 -214 17 -32 55 -28 251 24 30
8 73 19 94 24 l39 10 -6 -517 c-8 -561 -7 -564 45 -570 56 -7 56 -8 64 581 l7
537 125 40 c68 22 130 40 138 40 7 0 27 -26 45 -57 42 -76 58 -93 84 -93 28 0
45 18 45 47 0 28 -39 109 -73 149 -13 16 -43 67 -67 114 -52 102 -66 120 -95
120 -51 0 -58 -44 -19 -126 14 -31 24 -56 23 -58 -10 -7 -279 -89 -379 -115
-63 -17 -125 -34 -137 -37 -31 -9 -29 2 10 50 19 23 52 68 75 101 23 33 57 79
75 101 102 131 125 161 137 184 7 13 34 47 60 75 97 103 190 228 190 255 0 32
-17 50 -47 50 -17 0 -45 -28 -110 -107 -49 -59 -102 -122 -120 -140 -18 -18
-44 -54 -59 -79 l-28 -47 -39 44 c-21 24 -55 60 -74 81 -33 34 -35 37 -20 58
16 24 210 221 361 368 53 52 99 105 102 119 9 34 -6 57 -39 61 -22 3 -60 -31
-255 -225z"/>
<path d="M2090 1270 c-30 -5 -145 -16 -255 -25 -110 -9 -234 -20 -275 -25 -41
-5 -151 -12 -243 -16 -139 -6 -172 -10 -191 -25 -22 -18 -23 -22 -30 -315 -5
-216 -3 -300 5 -310 15 -19 63 -18 80 2 14 17 27 213 28 417 l1 117 28 0 c45
0 291 19 382 30 47 5 144 14 215 20 72 6 179 15 238 22 92 10 110 9 118 -3 10
-14 2 -404 -10 -488 l-6 -44 -44 37 c-47 40 -85 45 -105 14 -17 -28 5 -69 64
-115 89 -69 168 -78 189 -21 14 38 32 546 22 614 -12 79 -23 99 -62 113 -36
12 -68 12 -149 1z"/>
<path d="M752 808 c-24 -24 -13 -73 32 -145 24 -39 55 -95 68 -125 36 -77 95
-165 123 -184 23 -15 27 -15 50 0 35 23 31 49 -21 128 -25 38 -53 88 -63 111
-10 23 -37 72 -60 110 -22 37 -41 71 -41 76 0 14 -36 41 -56 41 -11 0 -25 -5
-32 -12z"/>
<path d="M240 785 c-7 -9 -16 -32 -20 -53 -7 -32 -50 -200 -104 -402 -13 -48
-13 -58 0 -77 17 -27 55 -30 76 -5 9 9 23 46 33 82 9 36 32 126 52 200 19 74
39 154 45 177 9 35 8 46 -6 67 -19 29 -57 34 -76 11z"/>
</g>
</svg>
