<?xml version="1.0" standalone="no"?>
<!DOCTYPE svg PUBLIC "-//W3C//DTD SVG 20010904//EN"
 "http://www.w3.org/TR/2001/REC-SVG-20010904/DTD/svg10.dtd">
<svg version="1.0" xmlns="http://www.w3.org/2000/svg"
 width="248.000000pt" height="248.000000pt" viewBox="0 0 248.000000 248.000000"
 preserveAspectRatio="xMidYMid meet">
<metadata>
Created by potrace 1.10, written by Peter Selinger 2001-2011
</metadata>
<g transform="translate(0.000000,248.000000) scale(0.100000,-0.100000)"
fill="#000000" stroke="none">
<path d="M1753 2390 c-59 -45 -138 -94 -263 -164 -47 -27 -94 -56 -105 -66
-11 -10 -44 -21 -74 -25 -38 -5 -62 -15 -79 -32 l-25 -25 7 -251 c8 -285 20
-422 37 -443 15 -19 53 -18 70 2 16 19 16 46 5 381 l-8 261 53 10 c56 11 147
23 329 42 58 6 143 15 190 20 47 5 118 12 158 15 l72 5 0 -147 c0 -82 -7 -202
-15 -268 -27 -221 -17 -290 40 -290 40 0 55 32 55 125 0 41 7 129 15 195 17
145 19 386 2 435 -19 55 -43 61 -188 50 -114 -9 -207 -19 -349 -36 l-55 -6 37
26 c21 15 46 30 55 34 42 17 153 109 159 131 9 33 -7 55 -42 59 -21 2 -43 -9
-81 -38z"/>
<path d="M521 2173 c-126 -126 -243 -248 -260 -272 -46 -65 -42 -98 16 -158
59 -60 133 -150 133 -161 0 -5 -15 -26 -33 -48 -18 -21 -49 -61 -67 -89 -19
-27 -63 -86 -98 -130 -83 -103 -109 -155 -96 -192 6 -19 18 -29 34 -31 23 -4
137 18 209 40 18 6 58 16 89 23 l55 13 -6 -516 c-8 -568 -8 -567 48 -567 22 0
33 7 42 25 8 18 14 176 19 558 l7 532 125 40 c68 22 130 40 138 40 7 0 27 -26
45 -57 42 -76 58 -93 84 -93 68 0 56 80 -30 200 -18 25 -49 79 -70 120 -47 92
-62 110 -90 110 -51 0 -58 -44 -19 -126 14 -31 24 -56 23 -58 -10 -7 -279 -89
-379 -115 -63 -17 -125 -34 -137 -37 -31 -9 -29 2 10 50 18 23 49 64 67 91 19
28 70 95 113 150 44 55 91 118 105 140 13 22 44 60 67 85 87 91 185 224 185
250 0 32 -17 50 -47 50 -17 0 -45 -28 -110 -107 -49 -59 -103 -123 -121 -143
-19 -19 -45 -55 -60 -79 l-26 -44 -38 44 c-22 24 -55 61 -75 81 -33 34 -34 38
-20 58 16 23 203 214 366 374 79 76 101 104 101 125 0 15 -5 32 -12 39 -32 32
-56 13 -287 -215z"/>
<path d="M752 808 c-23 -23 -13 -71 29 -138 22 -36 53 -92 68 -125 39 -84 97
-172 126 -191 23 -15 27 -15 50 0 35 23 31 49 -20 127 -25 37 -56 92 -69 121
-13 29 -46 89 -73 133 -37 61 -55 81 -74 83 -13 2 -30 -3 -37 -10z"/>
<path d="M240 785 c-7 -9 -16 -32 -20 -53 -6 -31 -35 -143 -105 -407 -12 -43
-12 -53 1 -72 17 -27 55 -30 76 -5 9 9 23 46 33 82 9 36 32 126 52 200 19 74
39 154 45 177 9 35 8 46 -6 67 -19 29 -57 34 -76 11z"/>
</g>
</svg>
