<?xml version="1.0" standalone="no"?>
<!DOCTYPE svg PUBLIC "-//W3C//DTD SVG 20010904//EN"
 "http://www.w3.org/TR/2001/REC-SVG-20010904/DTD/svg10.dtd">
<svg version="1.0" xmlns="http://www.w3.org/2000/svg"
 width="248.000000pt" height="248.000000pt" viewBox="0 0 248.000000 248.000000"
 preserveAspectRatio="xMidYMid meet">
<metadata>
Created by potrace 1.10, written by Peter Selinger 2001-2011
</metadata>
<g transform="translate(0.000000,248.000000) scale(0.100000,-0.100000)"
fill="#000000" stroke="none">
<path d="M1710 2129 c-343 -28 -558 -48 -650 -59 -47 -6 -179 -13 -295 -16
-120 -3 -215 -10 -222 -16 -16 -13 -17 -50 -1 -66 16 -16 390 -16 545 -1 62 7
116 10 118 7 3 -3 -15 -43 -41 -88 -60 -109 -221 -319 -287 -373 -28 -23 -65
-56 -82 -74 -31 -30 -38 -32 -216 -58 -101 -15 -201 -29 -222 -32 -73 -11 -72
3 -37 -548 7 -93 17 -259 24 -367 13 -206 19 -228 61 -228 31 0 49 25 49 68 0
44 -19 323 -39 577 -15 190 -22 391 -14 400 7 7 423 65 464 65 25 0 34 -5 38
-22 4 -13 6 -234 6 -491 0 -339 4 -473 12 -483 14 -17 51 -18 67 -2 9 9 12 94
12 323 0 229 3 314 12 323 7 7 36 12 65 12 29 0 95 6 146 14 50 8 117 16 147
18 l55 3 -1 -180 c-1 -99 -8 -246 -14 -327 -14 -160 -10 -178 35 -178 55 0 61
37 75 455 5 176 13 382 16 458 7 137 7 139 33 149 29 11 543 14 561 3 13 -8 5
-139 -15 -260 -8 -44 -17 -109 -20 -145 -21 -220 -64 -457 -106 -581 -16 -48
-29 -100 -29 -117 0 -32 22 -62 46 -62 18 0 54 36 54 54 0 7 11 48 25 90 48
148 72 284 124 711 47 385 47 388 -7 402 -15 4 -191 7 -392 7 -305 0 -395 -4
-545 -22 -99 -11 -211 -24 -250 -27 l-70 -7 47 48 c89 92 228 287 285 402 l57
112 39 0 c22 0 107 7 191 15 83 8 209 19 280 25 72 6 138 16 148 21 25 13 24
65 -1 79 -23 12 -8 12 -281 -11z m-264 -753 c7 -18 -14 -238 -23 -247 -5 -4
-62 -15 -128 -23 -66 -9 -151 -20 -188 -26 -106 -16 -107 -15 -107 135 l0 124
33 5 c17 3 82 10 142 16 61 6 137 15 170 19 89 12 95 12 101 -3z"/>
</g>
</svg>
