<?xml version="1.0" standalone="no"?>
<!DOCTYPE svg PUBLIC "-//W3C//DTD SVG 20010904//EN"
 "http://www.w3.org/TR/2001/REC-SVG-20010904/DTD/svg10.dtd">
<svg version="1.0" xmlns="http://www.w3.org/2000/svg"
 width="248.000000pt" height="248.000000pt" viewBox="0 0 248.000000 248.000000"
 preserveAspectRatio="xMidYMid meet">
<metadata>
Created by potrace 1.10, written by Peter Selinger 2001-2011
</metadata>
<g transform="translate(0.000000,248.000000) scale(0.100000,-0.100000)"
fill="#000000" stroke="none">
<path d="M683 2398 c-6 -7 -15 -28 -21 -46 -14 -40 -104 -172 -257 -377 -138
-184 -240 -306 -306 -363 -36 -32 -49 -51 -49 -71 0 -33 16 -51 46 -51 60 0
296 277 568 667 l79 113 51 -43 c28 -24 89 -73 136 -109 47 -36 101 -82 119
-102 52 -54 111 -47 111 13 0 31 -67 97 -200 198 -52 40 -122 97 -154 128 -60
56 -102 70 -123 43z"/>
<path d="M652 2038 c-8 -8 -12 -55 -12 -144 0 -73 -3 -135 -8 -138 -4 -2 -55
-10 -112 -16 -129 -14 -155 -25 -155 -65 0 -23 7 -33 28 -43 24 -11 49 -10
175 7 281 39 367 49 374 42 6 -6 -13 -136 -22 -144 -3 -3 -68 -13 -145 -22
-186 -21 -346 -53 -368 -73 -10 -9 -17 -26 -15 -40 5 -43 27 -48 127 -29 101
20 310 47 358 47 l33 0 -7 -62 c-3 -35 -11 -83 -17 -108 l-11 -44 -80 -12
c-355 -53 -370 -56 -385 -85 -26 -47 17 -86 78 -70 20 6 114 22 207 35 94 14
184 28 201 31 18 3 43 17 57 30 26 27 29 43 82 423 34 248 33 250 -146 227
-62 -8 -118 -15 -124 -15 -9 0 -14 38 -17 120 -4 97 -9 124 -23 140 -20 22
-55 26 -73 8z"/>
</g>
</svg>
