<?xml version="1.0" standalone="no"?>
<!DOCTYPE svg PUBLIC "-//W3C//DTD SVG 20010904//EN"
 "http://www.w3.org/TR/2001/REC-SVG-20010904/DTD/svg10.dtd">
<svg version="1.0" xmlns="http://www.w3.org/2000/svg"
 width="248.000000pt" height="248.000000pt" viewBox="0 0 248.000000 248.000000"
 preserveAspectRatio="xMidYMid meet">
<metadata>
Created by potrace 1.10, written by Peter Selinger 2001-2011
</metadata>
<g transform="translate(0.000000,248.000000) scale(0.100000,-0.100000)"
fill="#000000" stroke="none">
<path d="M683 2398 c-6 -7 -15 -28 -21 -46 -14 -40 -104 -172 -257 -377 -138
-184 -240 -306 -306 -363 -36 -32 -49 -51 -49 -71 0 -33 16 -51 46 -51 60 0
296 277 568 667 l79 113 51 -43 c28 -24 89 -73 136 -109 47 -36 101 -82 119
-102 52 -54 111 -47 111 13 0 31 -67 97 -200 198 -52 40 -122 97 -154 128 -60
56 -102 70 -123 43z"/>
<path d="M652 2037 c-7 -8 -13 -69 -14 -148 l-3 -134 -100 -13 c-55 -8 -110
-15 -122 -18 -27 -5 -46 -38 -38 -64 13 -40 37 -43 193 -21 281 39 367 49 374
42 6 -6 -13 -136 -22 -144 -3 -3 -68 -13 -145 -22 -186 -21 -346 -53 -368 -73
-10 -9 -17 -26 -15 -40 5 -43 27 -48 127 -29 102 20 310 47 359 47 l32 0 -6
-57 c-3 -32 -12 -84 -20 -116 -19 -80 -18 -94 12 -113 24 -16 27 -16 52 3 30
22 37 56 86 416 35 254 34 256 -145 232 -62 -8 -118 -15 -124 -15 -9 0 -14 38
-17 120 -4 97 -9 124 -23 140 -21 23 -57 26 -73 7z"/>
</g>
</svg>
