<?xml version="1.0" standalone="no"?>
<!DOCTYPE svg PUBLIC "-//W3C//DTD SVG 20010904//EN"
 "http://www.w3.org/TR/2001/REC-SVG-20010904/DTD/svg10.dtd">
<svg version="1.0" xmlns="http://www.w3.org/2000/svg"
 width="248.000000pt" height="248.000000pt" viewBox="0 0 248.000000 248.000000"
 preserveAspectRatio="xMidYMid meet">
<metadata>
Created by potrace 1.10, written by Peter Selinger 2001-2011
</metadata>
<g transform="translate(0.000000,248.000000) scale(0.100000,-0.100000)"
fill="#000000" stroke="none">
<path d="M683 2398 c-6 -7 -15 -28 -21 -46 -14 -40 -104 -172 -257 -377 -138
-184 -240 -306 -306 -363 -36 -32 -49 -51 -49 -71 0 -33 16 -51 46 -51 60 0
296 277 568 667 l79 113 51 -43 c28 -24 89 -73 136 -109 47 -36 101 -82 119
-102 52 -54 111 -47 111 13 0 31 -67 97 -200 198 -52 40 -122 97 -154 128 -60
56 -102 70 -123 43z"/>
</g>
</svg>
