<?xml version="1.0" standalone="no"?>
<!DOCTYPE svg PUBLIC "-//W3C//DTD SVG 20010904//EN"
 "http://www.w3.org/TR/2001/REC-SVG-20010904/DTD/svg10.dtd">
<svg version="1.0" xmlns="http://www.w3.org/2000/svg"
 width="248.000000pt" height="248.000000pt" viewBox="0 0 248.000000 248.000000"
 preserveAspectRatio="xMidYMid meet">
<metadata>
Created by potrace 1.10, written by Peter Selinger 2001-2011
</metadata>
<g transform="translate(0.000000,248.000000) scale(0.100000,-0.100000)"
fill="#000000" stroke="none">
<path d="M725 2044 c-33 -7 -139 -25 -235 -39 -213 -33 -309 -52 -327 -66 -21
-18 -15 -57 12 -75 23 -15 32 -15 129 5 58 12 122 21 143 21 l38 0 0 -556 c0
-538 1 -556 19 -570 25 -18 37 -18 62 0 18 14 19 35 24 579 3 311 7 567 10
570 3 2 52 12 110 22 131 21 154 31 158 70 7 54 -30 64 -143 39z"/>
</g>
</svg>
