<?xml version="1.0" standalone="no"?>
<!DOCTYPE svg PUBLIC "-//W3C//DTD SVG 20010904//EN"
 "http://www.w3.org/TR/2001/REC-SVG-20010904/DTD/svg10.dtd">
<svg version="1.0" xmlns="http://www.w3.org/2000/svg"
 width="248.000000pt" height="248.000000pt" viewBox="0 0 248.000000 248.000000"
 preserveAspectRatio="xMidYMid meet">
<metadata>
Created by potrace 1.10, written by Peter Selinger 2001-2011
</metadata>
<g transform="translate(0.000000,248.000000) scale(0.100000,-0.100000)"
fill="#000000" stroke="none">
<path d="M1527 2303 c-14 -17 -45 -67 -114 -186 -72 -124 -223 -334 -406 -562
-73 -91 -87 -114 -85 -139 4 -38 46 -58 74 -35 21 17 189 228 227 285 15 22
48 65 73 95 93 108 314 467 314 510 0 47 -51 67 -83 32z"/>
<path d="M725 2044 c-33 -7 -139 -25 -235 -39 -213 -33 -309 -52 -327 -66 -21
-18 -15 -57 12 -75 23 -15 32 -15 129 5 58 12 124 21 147 21 38 0 41 -2 35
-22 -3 -13 -6 -114 -6 -225 l0 -201 -32 -7 c-238 -47 -268 -58 -268 -100 0
-50 46 -57 178 -25 136 33 122 61 122 -245 0 -146 1 -268 3 -271 2 -8 -63 -26
-185 -53 -96 -20 -118 -32 -118 -65 0 -75 88 -63 574 78 119 34 136 44 136 82
0 52 -35 55 -180 14 -58 -16 -108 -30 -112 -30 -5 0 -8 122 -8 270 0 149 3
270 8 270 4 0 48 7 97 16 101 17 135 34 135 67 0 49 -36 57 -167 33 l-73 -13
0 216 c0 119 4 221 8 227 4 6 54 19 112 28 131 22 154 32 158 71 7 54 -30 64
-143 39z"/>
</g>
</svg>
