<?xml version="1.0" standalone="no"?>
<!DOCTYPE svg PUBLIC "-//W3C//DTD SVG 20010904//EN"
 "http://www.w3.org/TR/2001/REC-SVG-20010904/DTD/svg10.dtd">
<svg version="1.0" xmlns="http://www.w3.org/2000/svg"
 width="248.000000pt" height="248.000000pt" viewBox="0 0 248.000000 248.000000"
 preserveAspectRatio="xMidYMid meet">
<metadata>
Created by potrace 1.10, written by Peter Selinger 2001-2011
</metadata>
<g transform="translate(0.000000,248.000000) scale(0.100000,-0.100000)"
fill="#000000" stroke="none">
<path d="M1246 2290 c-87 -66 -162 -120 -166 -120 -4 0 -43 -23 -86 -52 -44
-28 -100 -62 -126 -75 -26 -13 -52 -32 -57 -41 -5 -9 -11 -251 -14 -536 l-5
-519 -89 -34 c-48 -18 -93 -33 -99 -33 -6 0 -39 -14 -72 -31 -46 -22 -64 -37
-68 -56 -14 -56 34 -79 95 -45 35 19 567 202 701 241 36 10 89 28 118 40 l54
21 -24 -32 c-39 -56 -469 -481 -552 -547 -44 -35 -113 -85 -153 -113 -68 -45
-74 -52 -71 -80 4 -40 28 -56 65 -42 37 14 193 124 268 190 148 128 485 474
601 617 25 31 48 57 51 57 5 0 -5 -595 -13 -738 l-6 -103 -39 36 c-21 19 -47
35 -57 35 -28 0 -55 -35 -48 -62 9 -36 140 -168 166 -168 35 0 58 18 69 52 15
49 31 293 31 479 0 90 5 264 10 387 l10 223 94 97 c107 109 115 120 174 215
55 90 54 137 -3 137 -26 0 -48 -23 -109 -115 -25 -38 -71 -97 -101 -130 l-55
-60 3 353 c2 417 12 387 -118 379 -44 -3 -123 -10 -175 -16 -52 -6 -140 -15
-195 -21 -55 -6 -113 -13 -130 -16 -29 -5 -28 -5 10 18 40 24 107 73 249 182
77 59 99 93 79 125 -24 39 -55 25 -217 -99z m394 -371 c0 -55 -4 -88 -10 -84
-5 3 -65 -1 -132 -10 -122 -16 -180 -27 -351 -64 -48 -11 -121 -22 -162 -26
l-75 -7 0 95 0 96 48 6 c26 4 102 17 168 31 67 13 152 24 190 25 38 0 105 6
149 14 44 7 101 13 128 14 l47 1 0 -91z m-5 -317 c-6 -63 -9 -72 -23 -67 -16
6 -71 -1 -202 -26 -30 -6 -106 -17 -168 -25 -62 -7 -160 -23 -218 -34 -58 -11
-107 -20 -110 -20 -7 0 -4 190 4 190 27 1 220 32 282 46 142 31 165 35 300 53
l135 17 3 -30 c2 -17 1 -64 -3 -104z m-5 -244 c-1 -76 -3 -86 -29 -117 -28
-35 -58 -47 -331 -138 -41 -14 -140 -47 -220 -73 l-145 -49 -3 140 c-1 76 1
153 6 171 8 31 10 32 102 50 52 10 151 25 220 34 69 8 152 22 185 31 33 8 92
19 130 23 39 4 73 8 78 9 4 0 7 -36 7 -81z"/>
</g>
</svg>
