<?xml version="1.0" standalone="no"?>
<!DOCTYPE svg PUBLIC "-//W3C//DTD SVG 20010904//EN"
 "http://www.w3.org/TR/2001/REC-SVG-20010904/DTD/svg10.dtd">
<svg version="1.0" xmlns="http://www.w3.org/2000/svg"
 width="248.000000pt" height="248.000000pt" viewBox="0 0 248.000000 248.000000"
 preserveAspectRatio="xMidYMid meet">
<metadata>
Created by potrace 1.10, written by Peter Selinger 2001-2011
</metadata>
<g transform="translate(0.000000,248.000000) scale(0.100000,-0.100000)"
fill="#000000" stroke="none">
<path d="M1246 2290 c-87 -66 -162 -120 -166 -120 -4 0 -43 -23 -86 -52 -44
-28 -101 -62 -127 -75 -26 -14 -52 -34 -56 -46 -5 -12 -10 -255 -12 -540 -4
-504 -3 -519 15 -533 25 -18 37 -18 62 0 17 13 20 32 26 213 3 109 7 336 7
505 l1 307 33 17 c90 46 278 172 441 298 77 59 99 93 79 125 -24 39 -55 25
-217 -99z"/>
</g>
</svg>
