<?xml version="1.0" standalone="no"?>
<!DOCTYPE svg PUBLIC "-//W3C//DTD SVG 20010904//EN"
 "http://www.w3.org/TR/2001/REC-SVG-20010904/DTD/svg10.dtd">
<svg version="1.0" xmlns="http://www.w3.org/2000/svg"
 width="248.000000pt" height="248.000000pt" viewBox="0 0 248.000000 248.000000"
 preserveAspectRatio="xMidYMid meet">
<metadata>
Created by potrace 1.10, written by Peter Selinger 2001-2011
</metadata>
<g transform="translate(0.000000,248.000000) scale(0.100000,-0.100000)"
fill="#000000" stroke="none">
<path d="M1246 2290 c-87 -66 -162 -120 -166 -120 -4 0 -43 -23 -86 -52 -44
-28 -100 -62 -126 -75 -26 -13 -52 -32 -57 -41 -5 -9 -10 -252 -12 -540 -4
-509 -3 -524 15 -538 25 -18 37 -18 62 0 18 13 20 35 28 353 5 186 9 339 10
340 1 1 49 9 107 17 57 8 138 22 179 32 141 31 165 35 300 53 74 10 136 17
137 17 2 -1 -8 -433 -27 -1126 -5 -190 -9 -347 -9 -349 -1 -2 -19 13 -41 33
-45 40 -69 45 -93 18 -27 -30 -20 -47 48 -124 73 -81 92 -93 129 -84 65 16 64
11 96 1341 14 572 13 641 -15 662 -22 16 -97 15 -275 -6 -52 -6 -140 -15 -195
-21 -55 -6 -113 -13 -130 -16 -29 -5 -28 -5 10 18 40 24 107 73 249 182 77 59
99 93 79 125 -24 39 -55 25 -217 -99z m394 -371 c0 -55 -4 -88 -10 -84 -5 3
-65 -1 -132 -10 -122 -16 -180 -27 -351 -64 -48 -11 -121 -22 -162 -26 l-75
-7 0 95 0 96 48 6 c26 4 102 17 168 31 67 13 152 24 190 25 38 0 105 6 149 14
44 7 101 13 128 14 l47 1 0 -91z"/>
</g>
</svg>
