<?xml version="1.0" standalone="no"?>
<!DOCTYPE svg PUBLIC "-//W3C//DTD SVG 20010904//EN"
 "http://www.w3.org/TR/2001/REC-SVG-20010904/DTD/svg10.dtd">
<svg version="1.0" xmlns="http://www.w3.org/2000/svg"
 width="248.000000pt" height="248.000000pt" viewBox="0 0 248.000000 248.000000"
 preserveAspectRatio="xMidYMid meet">
<metadata>
Created by potrace 1.10, written by Peter Selinger 2001-2011
</metadata>
<g transform="translate(0.000000,248.000000) scale(0.100000,-0.100000)"
fill="#000000" stroke="none">
<path d="M1710 2070 c-30 -4 -147 -21 -260 -38 -203 -31 -552 -62 -693 -62
-77 0 -97 -9 -97 -45 0 -41 16 -45 180 -45 184 0 423 20 650 55 91 14 203 31
250 37 96 12 130 28 130 61 0 47 -29 54 -160 37z"/>
<path d="M1300 1473 c-210 -9 -907 -110 -937 -135 -16 -13 -17 -50 -1 -66 15
-15 77 -15 149 -2 72 14 432 65 589 84 184 23 633 39 887 33 239 -6 248 -4
241 45 -6 46 -26 48 -458 46 -223 -1 -434 -3 -470 -5z"/>
</g>
</svg>
