<?xml version="1.0" standalone="no"?>
<!DOCTYPE svg PUBLIC "-//W3C//DTD SVG 20010904//EN"
 "http://www.w3.org/TR/2001/REC-SVG-20010904/DTD/svg10.dtd">
<svg version="1.0" xmlns="http://www.w3.org/2000/svg"
 width="248.000000pt" height="248.000000pt" viewBox="0 0 248.000000 248.000000"
 preserveAspectRatio="xMidYMid meet">
<metadata>
Created by potrace 1.10, written by Peter Selinger 2001-2011
</metadata>
<g transform="translate(0.000000,248.000000) scale(0.100000,-0.100000)"
fill="#000000" stroke="none">
<path d="M1192 2378 c-8 -8 -12 -49 -13 -112 -1 -56 -4 -139 -7 -186 l-7 -85
-150 -12 c-82 -6 -191 -12 -240 -12 -96 -1 -115 -9 -115 -47 0 -45 15 -47 268
-43 l237 4 0 -210 0 -210 -55 -7 c-509 -68 -727 -103 -747 -120 -16 -13 -17
-50 -1 -66 15 -15 77 -15 149 -2 90 18 537 80 570 80 l31 0 -22 -37 c-58 -99
-220 -313 -313 -412 -107 -115 -320 -298 -422 -362 -96 -61 -105 -69 -105 -92
0 -53 49 -61 119 -20 115 66 366 277 487 408 86 93 125 143 244 309 l55 77 3
-78 c5 -141 -5 -927 -13 -955 -6 -21 -2 -32 18 -52 28 -28 61 -26 78 5 6 12
10 187 10 467 1 246 4 517 8 602 l6 155 45 7 c25 5 238 10 474 12 259 3 432 8
438 14 5 5 8 20 6 33 -7 49 -20 50 -508 47 l-455 -2 -3 206 c-2 157 1 208 10
215 7 5 83 20 168 32 438 62 430 60 430 106 0 55 -45 55 -395 0 -88 -13 -170
-25 -182 -25 -23 0 -23 0 -23 178 0 187 -3 202 -45 202 -12 0 -26 -5 -33 -12z"/>
</g>
</svg>
