<?xml version="1.0" standalone="no"?>
<!DOCTYPE svg PUBLIC "-//W3C//DTD SVG 20010904//EN"
 "http://www.w3.org/TR/2001/REC-SVG-20010904/DTD/svg10.dtd">
<svg version="1.0" xmlns="http://www.w3.org/2000/svg"
 width="248.000000pt" height="248.000000pt" viewBox="0 0 248.000000 248.000000"
 preserveAspectRatio="xMidYMid meet">
<metadata>
Created by potrace 1.10, written by Peter Selinger 2001-2011
</metadata>
<g transform="translate(0.000000,248.000000) scale(0.100000,-0.100000)"
fill="#000000" stroke="none">
<path d="M1752 2418 c-5 -7 -20 -33 -32 -58 -13 -25 -39 -65 -59 -90 -19 -25
-36 -46 -37 -48 -2 -5 -111 -21 -184 -27 -41 -3 -84 -8 -95 -11 -17 -4 -26 7
-55 67 -44 92 -66 119 -94 119 -54 0 -60 -49 -16 -133 17 -31 28 -62 25 -67
-3 -6 -27 -10 -53 -10 -81 0 -226 -21 -249 -36 -27 -17 -30 -56 -8 -74 15 -13
83 -10 380 17 l50 4 -30 -25 c-16 -14 -62 -41 -102 -61 -43 -21 -75 -44 -78
-56 -4 -11 3 -82 14 -157 12 -75 25 -166 31 -202 5 -36 12 -84 16 -108 7 -52
40 -80 73 -62 31 16 35 53 17 161 -9 54 -16 104 -16 112 0 11 37 17 173 26 94
6 202 14 240 17 l67 5 0 -38 c0 -21 -5 -89 -10 -151 -12 -135 -4 -167 45 -167
43 0 51 27 64 195 6 80 16 193 23 252 14 131 4 179 -41 198 -17 6 -34 9 -39 6
-8 -5 -335 -36 -375 -36 -5 0 6 17 26 39 19 21 39 46 44 55 7 12 32 20 84 27
41 5 117 16 169 24 52 8 135 19 184 24 95 11 126 27 126 66 0 47 -41 55 -171
34 -38 -7 -72 -9 -75 -6 -3 3 6 26 21 51 29 49 35 97 15 121 -15 18 -54 20
-68 3z m-2 -551 l0 -44 -142 -6 c-79 -4 -196 -10 -260 -13 l-118 -7 0 30 0 29
138 13 c75 6 175 18 222 25 47 7 102 14 123 15 l37 1 0 -43z"/>
</g>
</svg>
