<?xml version="1.0" standalone="no"?>
<!DOCTYPE svg PUBLIC "-//W3C//DTD SVG 20010904//EN"
 "http://www.w3.org/TR/2001/REC-SVG-20010904/DTD/svg10.dtd">
<svg version="1.0" xmlns="http://www.w3.org/2000/svg"
 width="248.000000pt" height="248.000000pt" viewBox="0 0 248.000000 248.000000"
 preserveAspectRatio="xMidYMid meet">
<metadata>
Created by potrace 1.10, written by Peter Selinger 2001-2011
</metadata>
<g transform="translate(0.000000,248.000000) scale(0.100000,-0.100000)"
fill="#000000" stroke="none">
<path d="M1752 2418 c-5 -7 -20 -33 -32 -58 -13 -25 -39 -65 -59 -90 -19 -25
-36 -46 -37 -48 -2 -5 -111 -21 -184 -27 -41 -3 -84 -8 -95 -11 -17 -4 -26 7
-55 67 -44 92 -66 119 -94 119 -54 0 -60 -49 -16 -133 17 -31 28 -62 25 -67
-3 -6 -27 -10 -53 -10 -81 0 -226 -21 -249 -36 -27 -17 -30 -56 -8 -74 15 -13
83 -10 380 17 l50 4 -30 -25 c-16 -14 -58 -39 -92 -56 -33 -17 -69 -40 -79
-51 -18 -20 -19 -8 36 -374 5 -33 12 -79 16 -103 7 -52 40 -80 73 -62 39 20
38 53 -15 385 -13 83 -13 91 2 100 121 72 203 139 231 190 7 11 33 19 84 26
41 5 117 16 169 24 52 8 135 19 184 24 95 11 126 27 126 66 0 47 -41 55 -171
34 -38 -7 -72 -9 -75 -6 -3 3 6 26 21 51 29 49 35 97 15 121 -15 18 -54 20
-68 3z"/>
</g>
</svg>
