<?xml version="1.0" standalone="no"?>
<!DOCTYPE svg PUBLIC "-//W3C//DTD SVG 20010904//EN"
 "http://www.w3.org/TR/2001/REC-SVG-20010904/DTD/svg10.dtd">
<svg version="1.0" xmlns="http://www.w3.org/2000/svg"
 width="248.000000pt" height="248.000000pt" viewBox="0 0 248.000000 248.000000"
 preserveAspectRatio="xMidYMid meet">
<metadata>
Created by potrace 1.10, written by Peter Selinger 2001-2011
</metadata>
<g transform="translate(0.000000,248.000000) scale(0.100000,-0.100000)"
fill="#000000" stroke="none">
<path d="M1752 2418 c-5 -7 -20 -33 -32 -57 -12 -24 -40 -66 -61 -93 -41 -52
-45 -67 -29 -99 18 -32 58 -24 99 22 84 91 123 186 91 224 -15 18 -54 20 -68
3z"/>
<path d="M1160 2355 c-18 -22 -7 -70 35 -148 43 -79 74 -100 105 -72 11 10 20
27 20 37 0 21 -65 154 -88 181 -19 21 -55 22 -72 2z"/>
</g>
</svg>
