<?xml version="1.0" standalone="no"?>
<!DOCTYPE svg PUBLIC "-//W3C//DTD SVG 20010904//EN"
 "http://www.w3.org/TR/2001/REC-SVG-20010904/DTD/svg10.dtd">
<svg version="1.0" xmlns="http://www.w3.org/2000/svg"
 width="248.000000pt" height="248.000000pt" viewBox="0 0 248.000000 248.000000"
 preserveAspectRatio="xMidYMid meet">
<metadata>
Created by potrace 1.10, written by Peter Selinger 2001-2011
</metadata>
<g transform="translate(0.000000,248.000000) scale(0.100000,-0.100000)"
fill="#000000" stroke="none">
<path d="M1752 2418 c-5 -7 -20 -33 -32 -58 -13 -25 -39 -65 -59 -90 -19 -25
-36 -46 -37 -48 -2 -5 -111 -21 -184 -27 -41 -3 -84 -8 -95 -11 -17 -4 -26 7
-55 67 -44 92 -66 119 -94 119 -54 0 -60 -49 -16 -133 17 -31 28 -62 25 -67
-3 -6 -27 -10 -53 -10 -81 0 -226 -21 -249 -36 -27 -17 -30 -56 -8 -74 15 -13
83 -10 380 17 l50 4 -30 -25 c-16 -14 -63 -42 -103 -61 -50 -26 -74 -44 -78
-60 -3 -12 1 -62 10 -111 17 -99 32 -210 50 -359 10 -90 14 -101 36 -112 19
-10 78 -12 265 -7 261 8 314 16 332 54 6 14 16 90 22 170 6 80 16 193 23 252
14 131 4 179 -41 198 -17 6 -34 9 -39 6 -8 -5 -335 -36 -375 -36 -5 0 6 17 26
39 19 21 39 46 44 55 7 12 32 20 84 27 41 5 117 16 169 24 52 8 135 19 184 24
95 11 126 27 126 66 0 47 -41 55 -171 34 -38 -7 -72 -9 -75 -6 -3 3 6 26 21
51 29 49 35 97 15 121 -15 18 -54 20 -68 3z m-2 -551 l0 -44 -142 -6 c-79 -4
-196 -10 -260 -13 l-118 -7 0 30 0 29 138 13 c75 6 175 18 222 25 47 7 102 14
123 15 l37 1 0 -43z m-20 -180 l0 -33 -230 -18 c-126 -10 -234 -15 -240 -11
-5 3 -10 19 -10 34 l0 28 173 12 c94 6 190 13 212 15 101 7 95 9 95 -27z m-10
-179 c0 -18 -4 -38 -8 -44 -4 -7 -82 -14 -219 -19 l-213 -7 0 36 c0 22 5 36
13 37 6 0 71 6 142 14 72 7 165 13 208 14 l77 1 0 -32z"/>
<path d="M442 2198 c-18 -18 -14 -56 8 -78 27 -27 125 -70 177 -77 49 -7 73 7
73 42 0 30 -18 43 -94 70 -35 12 -74 30 -87 39 -28 19 -60 21 -77 4z"/>
<path d="M710 1906 c-19 -8 -64 -31 -100 -52 -35 -22 -107 -61 -160 -89 -73
-39 -96 -55 -98 -73 -5 -32 15 -52 49 -52 29 0 222 90 234 110 12 19 26 11 15
-9 -5 -11 -10 -38 -10 -59 0 -43 25 -73 104 -121 21 -13 34 -27 29 -31 -9 -10
-109 -65 -173 -96 -25 -12 -90 -39 -145 -59 -55 -21 -108 -44 -117 -53 -21
-18 -24 -57 -5 -69 6 -4 127 -8 267 -8 216 0 275 -3 385 -22 72 -12 216 -31
320 -42 105 -12 233 -26 285 -32 147 -18 446 -7 544 20 93 25 106 34 106 72 0
48 -32 55 -131 30 -71 -18 -113 -21 -288 -21 -113 0 -242 4 -286 10 -44 5
-165 19 -270 31 -104 11 -246 29 -315 39 -69 10 -156 22 -193 26 l-69 7 89 47
c109 60 136 86 131 131 -3 34 -16 46 -127 121 l-41 28 41 77 c30 57 39 83 34
102 -13 53 -38 62 -105 37z"/>
</g>
</svg>
