<?xml version="1.0" standalone="no"?>
<!DOCTYPE svg PUBLIC "-//W3C//DTD SVG 20010904//EN"
 "http://www.w3.org/TR/2001/REC-SVG-20010904/DTD/svg10.dtd">
<svg version="1.0" xmlns="http://www.w3.org/2000/svg"
 width="248.000000pt" height="248.000000pt" viewBox="0 0 248.000000 248.000000"
 preserveAspectRatio="xMidYMid meet">
<metadata>
Created by potrace 1.10, written by Peter Selinger 2001-2011
</metadata>
<g transform="translate(0.000000,248.000000) scale(0.100000,-0.100000)"
fill="#000000" stroke="none">
<path d="M1450 2125 c-9 -11 -11 -77 -8 -262 1 -137 -1 -468 -6 -738 -12 -674
-2 -747 109 -807 87 -47 179 -62 380 -62 151 0 195 4 276 23 136 31 133 28
137 218 4 171 -5 203 -53 203 -45 0 -55 -31 -55 -176 l0 -132 -52 -14 c-83
-21 -446 -18 -519 5 -87 26 -101 42 -110 123 -11 92 -10 556 0 934 11 384 2
636 -22 674 -19 29 -57 35 -77 11z"/>
<path d="M898 2089 c-41 -56 -295 -248 -398 -302 -56 -28 -147 -83 -187 -112
-41 -29 -24 -85 24 -85 27 0 119 44 148 71 11 10 38 25 60 35 22 9 58 29 81
45 l41 28 7 -46 c7 -53 8 -333 1 -333 -12 0 -261 -42 -355 -60 -58 -11 -125
-20 -150 -20 -25 0 -56 -7 -68 -16 -47 -33 -13 -94 53 -94 16 0 82 9 145 21
228 40 342 59 361 59 18 0 19 -9 19 -184 l0 -184 -42 -6 c-24 -3 -83 -11 -133
-16 -221 -26 -230 -30 -220 -110 3 -25 10 -106 15 -180 13 -167 37 -319 54
-345 13 -19 22 -20 352 -16 187 2 349 7 361 12 22 8 40 49 29 67 -3 5 1 31 8
58 8 27 31 130 51 229 42 206 44 281 6 318 -20 21 -30 22 -148 21 -70 -1 -149
-5 -175 -8 l-48 -7 0 185 c0 185 0 186 23 190 12 2 65 11 117 20 52 8 140 23
195 32 118 19 145 33 145 74 0 52 -20 54 -217 19 -98 -17 -197 -33 -220 -36
l-43 -6 0 94 c0 52 -3 151 -7 220 l-6 126 79 62 c89 70 144 133 144 165 0 54
-66 64 -102 15z m182 -1289 c0 -40 -62 -359 -81 -417 l-10 -31 -272 -4 c-150
-2 -275 -1 -280 2 -4 3 -12 58 -18 121 -6 63 -14 152 -18 199 -10 97 -3 110
58 110 20 0 97 10 171 21 152 24 271 35 378 38 l72 1 0 -40z"/>
</g>
</svg>
