<?xml version="1.0" standalone="no"?>
<!DOCTYPE svg PUBLIC "-//W3C//DTD SVG 20010904//EN"
 "http://www.w3.org/TR/2001/REC-SVG-20010904/DTD/svg10.dtd">
<svg version="1.0" xmlns="http://www.w3.org/2000/svg"
 width="248.000000pt" height="248.000000pt" viewBox="0 0 248.000000 248.000000"
 preserveAspectRatio="xMidYMid meet">
<metadata>
Created by potrace 1.10, written by Peter Selinger 2001-2011
</metadata>
<g transform="translate(0.000000,248.000000) scale(0.100000,-0.100000)"
fill="#000000" stroke="none">
<path d="M898 2089 c-41 -56 -295 -248 -398 -302 -56 -28 -147 -83 -187 -112
-41 -29 -24 -85 24 -85 27 0 119 44 148 71 11 10 38 25 59 34 90 38 382 258
431 324 41 57 29 101 -27 101 -19 0 -34 -9 -50 -31z"/>
<path d="M1105 1460 c-146 -27 -266 -47 -485 -80 -107 -16 -242 -39 -300 -50
-58 -11 -125 -20 -150 -20 -82 0 -121 -59 -65 -96 29 -19 80 -16 220 10 99 19
423 72 490 81 28 4 84 12 125 20 41 7 122 21 180 30 58 9 115 24 128 31 28 19
30 69 3 84 -24 12 -22 12 -146 -10z"/>
</g>
</svg>
