<?xml version="1.0" standalone="no"?>
<!DOCTYPE svg PUBLIC "-//W3C//DTD SVG 20010904//EN"
 "http://www.w3.org/TR/2001/REC-SVG-20010904/DTD/svg10.dtd">
<svg version="1.0" xmlns="http://www.w3.org/2000/svg"
 width="248.000000pt" height="248.000000pt" viewBox="0 0 248.000000 248.000000"
 preserveAspectRatio="xMidYMid meet">
<metadata>
Created by potrace 1.10, written by Peter Selinger 2001-2011
</metadata>
<g transform="translate(0.000000,248.000000) scale(0.100000,-0.100000)"
fill="#000000" stroke="none">
<path d="M1158 2318 c-9 -7 -36 -71 -59 -143 -23 -71 -52 -152 -66 -178 -13
-27 -38 -88 -55 -135 -17 -48 -43 -112 -58 -142 l-28 -55 -165 -28 c-92 -15
-230 -35 -309 -43 -79 -9 -149 -21 -155 -26 -18 -14 -16 -53 2 -68 21 -17 197
-7 370 21 72 11 147 23 169 26 l38 6 -17 -34 c-107 -206 -264 -448 -406 -625
-107 -133 -174 -196 -264 -246 -48 -27 -61 -39 -63 -61 -4 -33 13 -57 40 -57
37 0 135 61 210 130 41 38 117 121 168 185 68 84 96 112 102 102 14 -26 50
-284 74 -537 15 -155 39 -199 95 -169 23 12 23 18 4 179 -2 19 -9 85 -15 145
-6 61 -20 171 -31 246 -10 75 -19 141 -19 147 0 19 192 47 505 72 72 6 146 13
165 15 19 3 124 8 234 11 l199 7 -5 -29 c-3 -16 -20 -83 -37 -149 -17 -66 -53
-212 -81 -324 -27 -113 -57 -215 -65 -227 -30 -46 -14 -94 32 -94 46 0 74 61
126 276 56 229 108 431 134 522 19 69 15 88 -27 109 -28 14 -367 9 -565 -8
-66 -5 -169 -14 -230 -19 -98 -9 -261 -28 -384 -47 -50 -7 -51 -15 14 87 50
76 126 213 184 327 22 45 48 84 58 87 60 17 461 50 858 71 413 22 490 28 508
43 22 19 22 35 -1 55 -23 21 -116 22 -407 6 -234 -12 -751 -46 -847 -55 l-66
-7 34 94 c19 52 50 130 69 174 19 44 53 132 75 196 32 92 38 122 31 141 -14
36 -45 47 -73 26z"/>
</g>
</svg>
