<?xml version="1.0" standalone="no"?>
<!DOCTYPE svg PUBLIC "-//W3C//DTD SVG 20010904//EN"
 "http://www.w3.org/TR/2001/REC-SVG-20010904/DTD/svg10.dtd">
<svg version="1.0" xmlns="http://www.w3.org/2000/svg"
 width="248.000000pt" height="248.000000pt" viewBox="0 0 248.000000 248.000000"
 preserveAspectRatio="xMidYMid meet">
<metadata>
Created by potrace 1.10, written by Peter Selinger 2001-2011
</metadata>
<g transform="translate(0.000000,248.000000) scale(0.100000,-0.100000)"
fill="#000000" stroke="none">
<path d="M491 2153 c-13 -12 -22 -35 -26 -67 -20 -178 -125 -448 -245 -632
-70 -107 -66 -151 11 -145 18 1 74 83 149 216 l45 80 105 21 c58 12 109 18
114 14 4 -4 8 -34 8 -66 0 -70 -41 -406 -50 -416 -6 -6 -77 -22 -400 -93 -35
-7 -70 -19 -78 -25 -21 -19 -17 -58 9 -74 20 -14 41 -11 230 31 114 25 210 43
214 40 8 -9 -34 -165 -68 -252 -42 -109 -92 -187 -186 -287 -47 -51 -92 -97
-99 -101 -17 -10 -18 -59 -2 -75 36 -36 96 7 225 161 97 117 161 248 209 432
20 77 43 145 50 151 8 6 62 19 121 29 184 30 253 57 253 98 0 47 -43 59 -116
33 -41 -14 -243 -51 -248 -45 -2 2 3 54 11 114 7 61 16 169 20 241 l6 131 62
7 c68 7 227 40 244 50 16 10 13 62 -4 76 -13 11 -30 11 -83 2 -37 -7 -110 -18
-162 -26 -52 -8 -148 -24 -214 -35 -65 -12 -120 -20 -123 -18 -2 3 5 27 16 55
29 74 81 281 81 324 0 27 -6 41 -22 52 -28 20 -31 20 -57 -1z"/>
</g>
</svg>
