<?xml version="1.0" standalone="no"?>
<!DOCTYPE svg PUBLIC "-//W3C//DTD SVG 20010904//EN"
 "http://www.w3.org/TR/2001/REC-SVG-20010904/DTD/svg10.dtd">
<svg version="1.0" xmlns="http://www.w3.org/2000/svg"
 width="248.000000pt" height="248.000000pt" viewBox="0 0 248.000000 248.000000"
 preserveAspectRatio="xMidYMid meet">
<metadata>
Created by potrace 1.10, written by Peter Selinger 2001-2011
</metadata>
<g transform="translate(0.000000,248.000000) scale(0.100000,-0.100000)"
fill="#000000" stroke="none">
<path d="M491 2153 c-13 -12 -22 -35 -26 -67 -20 -178 -125 -448 -245 -632
-69 -106 -66 -151 11 -145 16 1 118 149 163 238 14 29 30 54 34 57 12 7 320
63 397 71 69 8 218 39 234 49 16 10 13 62 -4 76 -13 11 -30 11 -83 2 -37 -7
-110 -18 -162 -26 -52 -8 -148 -24 -214 -35 -65 -12 -120 -20 -123 -18 -2 3 5
27 16 55 29 74 81 281 81 324 0 27 -6 41 -22 52 -28 20 -31 20 -57 -1z"/>
<path d="M960 1226 c-19 -7 -79 -21 -132 -30 -81 -14 -286 -56 -626 -131 -35
-7 -70 -19 -78 -25 -21 -19 -17 -58 9 -74 20 -14 44 -10 267 39 135 30 297 64
360 76 258 48 320 70 320 112 0 47 -47 59 -120 33z"/>
</g>
</svg>
