<?xml version="1.0" standalone="no"?>
<!DOCTYPE svg PUBLIC "-//W3C//DTD SVG 20010904//EN"
 "http://www.w3.org/TR/2001/REC-SVG-20010904/DTD/svg10.dtd">
<svg version="1.0" xmlns="http://www.w3.org/2000/svg"
 width="248.000000pt" height="248.000000pt" viewBox="0 0 248.000000 248.000000"
 preserveAspectRatio="xMidYMid meet">
<metadata>
Created by potrace 1.10, written by Peter Selinger 2001-2011
</metadata>
<g transform="translate(0.000000,248.000000) scale(0.100000,-0.100000)"
fill="#000000" stroke="none">
<path d="M614 2334 c-15 -22 -16 -48 -11 -219 l6 -194 -57 -6 c-31 -3 -79 -10
-107 -15 -27 -5 -99 -16 -160 -25 -121 -18 -155 -33 -155 -69 0 -52 29 -57
185 -32 55 9 136 21 180 26 44 6 90 12 103 15 l22 5 0 -153 c0 -85 5 -168 11
-185 14 -40 45 -47 75 -17 23 24 24 28 24 200 0 96 1 175 3 175 46 1 342 52
353 61 23 19 13 62 -17 76 -28 13 -59 11 -264 -22 -44 -7 -82 -11 -85 -8 -3 2
-6 86 -8 186 -3 136 -7 188 -18 205 -20 30 -59 29 -80 -4z"/>
<path d="M224 1435 c-14 -22 -15 -40 -4 -167 13 -171 37 -328 52 -345 15 -18
63 -16 79 3 10 13 11 31 1 97 -7 45 -17 152 -23 237 -7 98 -17 163 -25 178
-19 30 -59 29 -80 -3z"/>
</g>
</svg>
