<?xml version="1.0" standalone="no"?>
<!DOCTYPE svg PUBLIC "-//W3C//DTD SVG 20010904//EN"
 "http://www.w3.org/TR/2001/REC-SVG-20010904/DTD/svg10.dtd">
<svg version="1.0" xmlns="http://www.w3.org/2000/svg"
 width="248.000000pt" height="248.000000pt" viewBox="0 0 248.000000 248.000000"
 preserveAspectRatio="xMidYMid meet">
<metadata>
Created by potrace 1.10, written by Peter Selinger 2001-2011
</metadata>
<g transform="translate(0.000000,248.000000) scale(0.100000,-0.100000)"
fill="#000000" stroke="none">
<path d="M614 2334 c-15 -22 -16 -48 -11 -219 l6 -194 -57 -6 c-31 -3 -79 -10
-107 -15 -27 -5 -99 -16 -160 -25 -121 -18 -155 -33 -155 -69 0 -52 29 -57
185 -32 55 9 136 21 180 26 44 6 90 13 103 15 l23 6 -3 -148 -3 -147 -60 -12
c-33 -7 -114 -20 -179 -29 -133 -18 -153 -25 -162 -59 -7 -29 12 -269 32 -396
23 -146 17 -143 274 -115 80 8 213 20 295 25 232 16 234 16 250 54 15 36 34
203 42 376 7 146 -6 185 -64 196 -34 6 -216 -8 -285 -23 l-28 -5 0 151 c0 83
1 151 3 151 46 1 342 52 353 61 23 19 13 62 -17 76 -28 13 -59 11 -264 -22
-44 -7 -82 -11 -85 -8 -3 2 -6 86 -8 186 -3 136 -7 188 -18 205 -20 30 -59 29
-80 -4z m386 -948 l0 -74 -32 -6 c-18 -3 -107 -13 -198 -21 -91 -8 -188 -19
-216 -25 -28 -5 -89 -12 -136 -16 l-86 -7 -7 61 c-4 34 -4 65 -1 70 3 5 36 13
73 17 38 4 76 8 86 10 43 8 159 26 257 40 58 8 116 16 130 19 14 2 49 4 78 5
l52 1 0 -74z m-18 -248 c-2 -35 -7 -66 -11 -70 -3 -4 -62 -11 -131 -17 -192
-17 -343 -31 -414 -40 -73 -8 -71 -10 -82 68 l-6 49 58 7 c33 3 106 12 164 20
100 14 345 41 401 44 25 1 25 0 21 -61z"/>
</g>
</svg>
