<?xml version="1.0" standalone="no"?>
<!DOCTYPE svg PUBLIC "-//W3C//DTD SVG 20010904//EN"
 "http://www.w3.org/TR/2001/REC-SVG-20010904/DTD/svg10.dtd">
<svg version="1.0" xmlns="http://www.w3.org/2000/svg"
 width="248.000000pt" height="248.000000pt" viewBox="0 0 248.000000 248.000000"
 preserveAspectRatio="xMidYMid meet">
<metadata>
Created by potrace 1.10, written by Peter Selinger 2001-2011
</metadata>
<g transform="translate(0.000000,248.000000) scale(0.100000,-0.100000)"
fill="#000000" stroke="none">
<path d="M955 1979 c-33 -6 -129 -21 -213 -35 -84 -14 -185 -29 -225 -34 -170
-21 -344 -53 -365 -66 -17 -11 -22 -23 -20 -42 4 -36 41 -53 93 -43 22 5 94
16 160 26 66 9 190 28 275 42 85 14 212 33 283 43 134 19 157 28 157 65 0 45
-47 59 -145 44z"/>
</g>
</svg>
