<?xml version="1.0" standalone="no"?>
<!DOCTYPE svg PUBLIC "-//W3C//DTD SVG 20010904//EN"
 "http://www.w3.org/TR/2001/REC-SVG-20010904/DTD/svg10.dtd">
<svg version="1.0" xmlns="http://www.w3.org/2000/svg"
 width="248.000000pt" height="248.000000pt" viewBox="0 0 248.000000 248.000000"
 preserveAspectRatio="xMidYMid meet">
<metadata>
Created by potrace 1.10, written by Peter Selinger 2001-2011
</metadata>
<g transform="translate(0.000000,248.000000) scale(0.100000,-0.100000)"
fill="#000000" stroke="none">
<path d="M614 2334 c-15 -22 -16 -48 -11 -219 l6 -194 -57 -6 c-31 -3 -79 -10
-107 -15 -27 -5 -99 -16 -160 -25 -121 -18 -155 -33 -155 -69 0 -52 29 -57
185 -32 55 9 136 21 180 26 44 6 90 13 103 15 l23 6 -3 -148 -3 -147 -60 -12
c-33 -7 -114 -20 -179 -29 -133 -18 -153 -25 -162 -59 -13 -54 35 -476 58
-503 15 -18 63 -16 79 3 10 13 11 31 1 98 -7 45 -12 87 -12 93 0 7 25 14 58
18 31 3 104 12 162 20 123 17 422 47 425 43 1 -2 -3 -49 -8 -106 -10 -115 -5
-132 45 -132 42 0 53 35 72 230 29 296 20 363 -51 376 -34 6 -216 -8 -285 -23
l-28 -5 0 151 c0 83 1 151 3 151 46 1 342 52 353 61 23 19 13 62 -17 76 -28
13 -59 11 -264 -22 -44 -7 -82 -11 -85 -8 -3 2 -6 86 -8 186 -3 136 -7 188
-18 205 -20 30 -59 29 -80 -4z m386 -948 l0 -74 -32 -6 c-18 -3 -107 -13 -198
-21 -91 -8 -188 -19 -216 -25 -28 -5 -89 -12 -136 -16 l-86 -7 -7 61 c-4 34
-4 65 -1 70 3 5 36 13 73 17 38 4 76 8 86 10 43 8 159 26 257 40 58 8 116 16
130 19 14 2 49 4 78 5 l52 1 0 -74z"/>
</g>
</svg>
