<?xml version="1.0" standalone="no"?>
<!DOCTYPE svg PUBLIC "-//W3C//DTD SVG 20010904//EN"
 "http://www.w3.org/TR/2001/REC-SVG-20010904/DTD/svg10.dtd">
<svg version="1.0" xmlns="http://www.w3.org/2000/svg"
 width="248.000000pt" height="248.000000pt" viewBox="0 0 248.000000 248.000000"
 preserveAspectRatio="xMidYMid meet">
<metadata>
Created by potrace 1.10, written by Peter Selinger 2001-2011
</metadata>
<g transform="translate(0.000000,248.000000) scale(0.100000,-0.100000)"
fill="#000000" stroke="none">
<path d="M614 2334 c-15 -22 -16 -48 -11 -220 5 -149 4 -194 -6 -194 -73 -2
-423 -62 -444 -76 -27 -17 -30 -56 -7 -74 19 -17 45 -16 169 4 55 9 134 21
175 26 41 6 87 12 103 15 l27 5 0 -145 c0 -79 -3 -146 -7 -148 -8 -5 -132 -26
-282 -48 -120 -17 -125 -24 -117 -153 14 -202 39 -381 57 -403 22 -25 55 -33
111 -24 29 5 92 12 141 16 l87 7 0 -103 0 -104 -237 -29 c-142 -17 -247 -34
-260 -42 -30 -19 -30 -59 0 -79 23 -15 83 -11 322 24 39 6 91 11 118 11 l47 0
0 -237 c0 -265 5 -288 55 -288 51 0 55 22 55 296 l0 247 83 11 c45 7 147 18
225 26 154 15 192 28 192 68 0 59 -25 59 -438 10 l-53 -6 3 104 3 104 150 12
c83 6 156 12 163 12 24 2 40 66 56 231 29 297 20 363 -51 376 -34 6 -216 -8
-285 -23 l-28 -5 0 150 0 150 68 11 c37 5 113 17 170 25 57 8 110 20 118 27
23 19 13 62 -18 77 -23 11 -50 9 -170 -8 -79 -11 -150 -23 -159 -26 -22 -6
-29 50 -29 230 0 112 -3 146 -16 164 -21 30 -59 29 -80 -4z m386 -948 l0 -74
-32 -6 c-18 -3 -107 -13 -198 -21 -91 -8 -188 -19 -216 -25 -28 -5 -89 -12
-136 -16 l-85 -7 -6 39 c-16 96 -15 98 83 109 30 3 91 13 135 20 44 8 132 21
195 30 63 9 122 18 130 20 8 1 41 3 73 4 l57 1 0 -74z m-18 -248 c-2 -35 -7
-66 -11 -70 -3 -4 -63 -12 -131 -17 -143 -12 -326 -29 -418 -40 -35 -4 -65 -5
-66 -2 -2 3 -7 31 -11 63 l-7 56 58 7 c33 3 106 12 164 20 90 13 340 40 406
44 19 1 20 -3 16 -61z"/>
<path d="M1605 2175 c-14 -13 -25 -35 -25 -48 0 -13 -17 -55 -39 -93 -82 -146
-175 -302 -227 -379 -78 -116 -127 -211 -119 -235 7 -24 51 -37 74 -23 9 6 34
41 56 79 22 38 70 114 106 169 36 55 83 132 104 170 21 39 50 88 64 110 14 22
35 57 45 78 11 20 22 37 25 37 3 0 32 -21 64 -48 32 -26 73 -58 91 -72 18 -14
57 -45 88 -70 186 -153 253 -205 341 -264 54 -36 108 -66 120 -66 31 0 47 18
47 52 0 22 -9 33 -42 54 -73 45 -216 153 -383 289 -88 72 -180 146 -205 164
-25 19 -64 54 -86 78 -48 49 -65 53 -99 18z"/>
<path d="M1875 1554 c-55 -7 -134 -18 -175 -25 -41 -6 -112 -15 -157 -19 -89
-8 -113 -20 -113 -56 0 -42 39 -57 128 -49 42 3 87 9 100 12 l22 5 0 -140 0
-140 -87 -6 c-49 -4 -139 -14 -201 -22 -62 -8 -130 -14 -150 -14 -75 0 -110
-61 -56 -96 24 -16 34 -16 162 -1 75 9 169 19 207 22 39 3 82 8 97 10 l27 4 3
-452 c3 -379 5 -457 18 -482 17 -34 59 -45 79 -21 9 11 12 129 11 489 l-1 475
58 6 c32 3 137 11 233 17 198 12 225 20 225 64 0 53 -23 56 -261 40 -115 -8
-219 -15 -231 -15 -23 0 -23 1 -23 138 l0 138 115 15 c122 17 155 33 155 74 0
48 -19 51 -185 29z"/>
</g>
</svg>
