<?xml version="1.0" standalone="no"?>
<!DOCTYPE svg PUBLIC "-//W3C//DTD SVG 20010904//EN"
 "http://www.w3.org/TR/2001/REC-SVG-20010904/DTD/svg10.dtd">
<svg version="1.0" xmlns="http://www.w3.org/2000/svg"
 width="248.000000pt" height="248.000000pt" viewBox="0 0 248.000000 248.000000"
 preserveAspectRatio="xMidYMid meet">
<metadata>
Created by potrace 1.10, written by Peter Selinger 2001-2011
</metadata>
<g transform="translate(0.000000,248.000000) scale(0.100000,-0.100000)"
fill="#000000" stroke="none">
<path d="M1822 2229 c-361 -14 -906 -47 -1154 -70 -65 -6 -134 -11 -155 -11
-64 0 -90 -27 -72 -75 12 -32 60 -37 189 -19 132 19 186 20 195 6 11 -17 7
-560 -5 -785 -16 -307 -28 -467 -35 -491 -14 -46 72 -77 95 -35 5 11 12 57 15
103 3 46 10 164 16 263 6 99 12 353 15 565 2 212 4 388 4 391 0 13 700 56
1038 63 117 3 137 6 149 22 16 22 16 35 0 57 -17 24 -52 26 -295 16z"/>
</g>
</svg>
