<?xml version="1.0" standalone="no"?>
<!DOCTYPE svg PUBLIC "-//W3C//DTD SVG 20010904//EN"
 "http://www.w3.org/TR/2001/REC-SVG-20010904/DTD/svg10.dtd">
<svg version="1.0" xmlns="http://www.w3.org/2000/svg"
 width="248.000000pt" height="248.000000pt" viewBox="0 0 248.000000 248.000000"
 preserveAspectRatio="xMidYMid meet">
<metadata>
Created by potrace 1.10, written by Peter Selinger 2001-2011
</metadata>
<g transform="translate(0.000000,248.000000) scale(0.100000,-0.100000)"
fill="#000000" stroke="none">
<path d="M1822 2229 c-361 -14 -906 -47 -1154 -70 -65 -6 -134 -11 -155 -11
-64 0 -90 -27 -72 -75 12 -32 59 -37 196 -18 66 9 136 15 154 13 l34 -3 5
-130 c9 -229 -20 -1036 -40 -1123 -7 -28 -7 -49 0 -61 7 -15 6 -20 -8 -24
-152 -45 -317 -87 -340 -87 -39 0 -64 -21 -64 -55 0 -40 27 -57 77 -49 65 10
220 53 365 99 74 24 212 67 305 95 342 105 883 312 938 358 20 17 22 53 5 70
-18 18 -50 14 -114 -14 -93 -41 -337 -138 -474 -189 -134 -49 -503 -168 -558
-180 l-33 -7 5 84 c3 45 9 127 12 180 3 54 10 100 15 103 13 8 215 31 494 56
265 24 310 31 319 56 10 24 -3 51 -27 59 -22 7 -116 6 -172 -1 -16 -2 -91 -9
-165 -15 -74 -6 -180 -17 -235 -25 -55 -7 -126 -16 -158 -20 l-58 -5 3 157 3
157 45 8 c24 4 125 15 225 23 518 44 575 54 575 110 0 46 -16 48 -219 25 -104
-11 -267 -27 -363 -35 -95 -8 -192 -18 -214 -21 l-42 -6 -4 199 c-3 109 -3
203 -1 209 6 17 637 59 1041 68 117 3 137 6 149 22 16 22 16 35 0 57 -17 24
-52 26 -295 16z"/>
</g>
</svg>
