<?xml version="1.0" standalone="no"?>
<!DOCTYPE svg PUBLIC "-//W3C//DTD SVG 20010904//EN"
 "http://www.w3.org/TR/2001/REC-SVG-20010904/DTD/svg10.dtd">
<svg version="1.0" xmlns="http://www.w3.org/2000/svg"
 width="248.000000pt" height="248.000000pt" viewBox="0 0 248.000000 248.000000"
 preserveAspectRatio="xMidYMid meet">
<metadata>
Created by potrace 1.10, written by Peter Selinger 2001-2011
</metadata>
<g transform="translate(0.000000,248.000000) scale(0.100000,-0.100000)"
fill="#000000" stroke="none">
<path d="M1822 2229 c-361 -14 -906 -47 -1154 -70 -65 -6 -134 -11 -155 -11
-64 0 -90 -27 -72 -75 12 -32 59 -37 190 -19 63 8 168 17 234 21 66 3 170 10
230 15 134 12 689 40 874 44 116 3 136 6 148 22 16 22 16 35 0 57 -17 24 -52
26 -295 16z"/>
</g>
</svg>
