<?xml version="1.0" standalone="no"?>
<!DOCTYPE svg PUBLIC "-//W3C//DTD SVG 20010904//EN"
 "http://www.w3.org/TR/2001/REC-SVG-20010904/DTD/svg10.dtd">
<svg version="1.0" xmlns="http://www.w3.org/2000/svg"
 width="248.000000pt" height="248.000000pt" viewBox="0 0 248.000000 248.000000"
 preserveAspectRatio="xMidYMid meet">
<metadata>
Created by potrace 1.10, written by Peter Selinger 2001-2011
</metadata>
<g transform="translate(0.000000,248.000000) scale(0.100000,-0.100000)"
fill="#000000" stroke="none">
<path d="M1822 2229 c-361 -14 -906 -47 -1154 -70 -65 -6 -134 -11 -155 -11
-64 0 -90 -27 -72 -75 12 -32 59 -37 196 -18 66 9 136 15 154 13 l34 -3 5
-130 c9 -229 -20 -1036 -40 -1123 -7 -28 -7 -49 0 -61 7 -15 6 -20 -8 -24
-152 -45 -317 -87 -340 -87 -39 0 -64 -21 -64 -55 0 -40 27 -57 77 -49 65 10
220 53 365 99 74 24 205 65 290 90 85 26 249 81 363 121 115 41 213 72 218 68
12 -7 11 -193 -1 -513 -11 -274 -9 -285 39 -279 49 6 51 26 58 448 4 263 10
393 17 398 6 4 63 30 126 56 63 27 123 56 133 64 20 17 22 53 5 70 -20 20 -51
14 -158 -33 -60 -26 -107 -42 -112 -37 -11 11 -13 941 -3 995 4 21 11 40 16
43 5 2 72 6 150 8 124 3 144 6 156 22 16 22 16 35 0 57 -17 24 -52 26 -295 16z
m-127 -281 c-4 -95 -8 -182 -10 -194 -4 -19 -19 -22 -217 -42 -117 -12 -267
-27 -333 -32 -66 -6 -139 -13 -161 -16 l-42 -6 -4 199 c-3 109 -3 203 -1 209
5 15 432 48 691 53 l83 1 -6 -172z m-7 -475 c3 -176 17 -158 -128 -168 -167
-11 -327 -26 -425 -40 -55 -8 -126 -16 -158 -20 l-58 -5 3 157 3 157 45 8 c25
4 128 15 230 24 102 8 239 21 305 29 66 7 134 12 150 12 l30 -2 3 -152z m6
-269 c8 -20 8 -122 0 -151 -3 -11 -13 -24 -22 -26 -10 -3 -84 -31 -167 -62
-149 -55 -520 -176 -582 -190 l-32 -6 6 123 c3 68 8 150 12 183 6 58 7 59 41
66 48 10 296 37 530 59 107 10 198 18 201 19 4 0 10 -6 13 -15z"/>
</g>
</svg>
