<?xml version="1.0" standalone="no"?>
<!DOCTYPE svg PUBLIC "-//W3C//DTD SVG 20010904//EN"
 "http://www.w3.org/TR/2001/REC-SVG-20010904/DTD/svg10.dtd">
<svg version="1.0" xmlns="http://www.w3.org/2000/svg"
 width="248.000000pt" height="248.000000pt" viewBox="0 0 248.000000 248.000000"
 preserveAspectRatio="xMidYMid meet">
<metadata>
Created by potrace 1.10, written by Peter Selinger 2001-2011
</metadata>
<g transform="translate(0.000000,248.000000) scale(0.100000,-0.100000)"
fill="#000000" stroke="none">
<path d="M549 2314 c-10 -12 -16 -61 -20 -178 -3 -89 -11 -285 -18 -436 -13
-308 -11 -322 45 -340 37 -13 26 -15 384 97 184 58 200 66 200 101 0 33 -16
52 -44 52 -10 0 -98 -25 -195 -56 -97 -30 -203 -63 -235 -74 l-59 -18 7 106
c3 58 6 140 6 184 l0 78 58 0 c32 0 93 4 137 9 44 5 134 14 200 21 66 6 137
16 157 21 47 12 65 41 49 77 -12 24 -13 25 -94 18 -45 -3 -122 -10 -172 -15
-49 -6 -142 -13 -206 -17 l-116 -7 4 169 c3 128 1 175 -9 194 -16 30 -59 38
-79 14z"/>
<path d="M1362 2298 c-19 -25 -21 -58 -23 -398 -2 -341 -2 -346 21 -398 45
-103 92 -116 398 -109 271 6 300 12 321 73 12 34 12 47 0 85 -12 37 -19 45
-42 47 -38 5 -57 -14 -57 -53 0 -28 -4 -33 -31 -39 -17 -3 -128 -6 -245 -6
-264 0 -249 -8 -259 144 -4 58 -4 120 -1 138 l6 33 213 53 c116 29 232 63 257
75 94 46 45 125 -55 87 -14 -5 -106 -30 -203 -55 -97 -25 -185 -48 -194 -51
-17 -5 -18 8 -18 168 0 141 -3 178 -16 196 -17 24 -56 29 -72 10z"/>
<path d="M1166 1314 c-9 -8 -16 -21 -16 -28 0 -15 -70 -86 -127 -129 -24 -17
-64 -48 -89 -68 -42 -34 -51 -36 -156 -47 -159 -15 -154 -8 -139 -214 6 -90
16 -255 22 -368 6 -113 15 -222 20 -243 12 -46 45 -65 79 -47 l23 12 -7 189
-7 188 33 5 c18 3 229 7 469 10 l435 5 -7 -57 c-4 -31 -15 -95 -23 -142 -19
-102 -20 -152 -4 -168 19 -19 56 -14 72 10 13 20 46 188 62 312 3 23 9 57 14
76 5 19 11 60 15 90 4 30 13 80 20 110 35 142 25 252 -25 277 -30 15 -274 17
-435 4 -60 -5 -155 -12 -210 -16 l-100 -6 68 62 c37 34 74 74 82 90 18 34 19
81 3 97 -17 17 -54 15 -72 -4z m604 -356 c0 -18 -9 -85 -22 -149 l-22 -116
-226 -7 c-124 -3 -342 -7 -485 -8 l-260 -3 -8 124 c-5 68 -5 126 -2 130 8 7
82 14 405 35 129 9 249 17 265 19 17 2 103 5 193 5 l162 2 0 -32z"/>
</g>
</svg>
