<?xml version="1.0" standalone="no"?>
<!DOCTYPE svg PUBLIC "-//W3C//DTD SVG 20010904//EN"
 "http://www.w3.org/TR/2001/REC-SVG-20010904/DTD/svg10.dtd">
<svg version="1.0" xmlns="http://www.w3.org/2000/svg"
 width="248.000000pt" height="248.000000pt" viewBox="0 0 248.000000 248.000000"
 preserveAspectRatio="xMidYMid meet">
<metadata>
Created by potrace 1.10, written by Peter Selinger 2001-2011
</metadata>
<g transform="translate(0.000000,248.000000) scale(0.100000,-0.100000)"
fill="#000000" stroke="none">
<path d="M2085 2239 c-85 -8 -416 -44 -540 -60 -49 -6 -191 -13 -315 -16 -243
-6 -270 -11 -270 -58 0 -13 10 -31 22 -39 45 -32 366 -17 853 39 77 9 181 20
231 25 50 5 102 14 116 19 31 12 43 42 29 69 -13 25 -39 29 -126 21z"/>
<path d="M312 2218 c-24 -24 -13 -59 31 -100 59 -55 180 -153 205 -167 27 -14
65 -14 80 1 26 26 13 57 -42 97 -29 22 -80 64 -112 94 -96 88 -133 104 -162
75z"/>
<path d="M142 1528 c-16 -16 -15 -53 3 -68 8 -6 47 -27 87 -47 40 -19 96 -51
123 -72 65 -49 88 -61 117 -61 30 0 48 17 48 47 0 29 -102 106 -224 168 -89
46 -132 55 -154 33z"/>
<path d="M456 697 c-42 -55 -256 -471 -256 -497 0 -48 51 -68 83 -33 8 10 52
90 97 178 46 88 102 195 126 237 48 85 55 122 25 138 -32 17 -49 12 -75 -23z"/>
</g>
</svg>
