<?xml version="1.0" standalone="no"?>
<!DOCTYPE svg PUBLIC "-//W3C//DTD SVG 20010904//EN"
 "http://www.w3.org/TR/2001/REC-SVG-20010904/DTD/svg10.dtd">
<svg version="1.0" xmlns="http://www.w3.org/2000/svg"
 width="248.000000pt" height="248.000000pt" viewBox="0 0 248.000000 248.000000"
 preserveAspectRatio="xMidYMid meet">
<metadata>
Created by potrace 1.10, written by Peter Selinger 2001-2011
</metadata>
<g transform="translate(0.000000,248.000000) scale(0.100000,-0.100000)"
fill="#000000" stroke="none">
<path d="M1820 2115 c-159 -20 -323 -39 -455 -51 -27 -3 -104 -13 -170 -24
-66 -11 -160 -22 -210 -25 -49 -3 -142 -12 -205 -20 -63 -8 -139 -17 -168 -19
-61 -6 -82 -19 -82 -51 0 -53 50 -59 262 -31 64 9 147 18 185 21 151 12 191
17 268 30 44 8 152 21 240 30 88 9 212 22 275 30 63 8 155 18 205 21 74 6 93
11 112 30 24 24 22 49 -5 72 -20 15 -37 14 -252 -13z"/>
</g>
</svg>
