<?xml version="1.0" standalone="no"?>
<!DOCTYPE svg PUBLIC "-//W3C//DTD SVG 20010904//EN"
 "http://www.w3.org/TR/2001/REC-SVG-20010904/DTD/svg10.dtd">
<svg version="1.0" xmlns="http://www.w3.org/2000/svg"
 width="248.000000pt" height="248.000000pt" viewBox="0 0 248.000000 248.000000"
 preserveAspectRatio="xMidYMid meet">
<metadata>
Created by potrace 1.10, written by Peter Selinger 2001-2011
</metadata>
<g transform="translate(0.000000,248.000000) scale(0.100000,-0.100000)"
fill="#000000" stroke="none">
<path d="M1191 2386 c-7 -9 -15 -79 -19 -182 l-7 -168 -40 -7 c-22 -4 -83 -10
-135 -13 -52 -3 -147 -13 -210 -21 -63 -8 -139 -17 -168 -19 -61 -6 -82 -19
-82 -51 0 -53 50 -59 262 -31 64 9 147 18 185 21 37 3 93 8 124 11 54 4 57 4
63 -20 9 -35 -2 -311 -14 -341 -7 -18 -17 -25 -36 -25 -29 0 -428 -61 -564
-86 -47 -8 -98 -18 -115 -21 -48 -8 -75 -30 -75 -61 0 -16 5 -33 11 -39 7 -7
15 -73 20 -160 5 -81 13 -186 19 -233 5 -47 15 -157 20 -245 25 -370 22 -355
75 -355 29 0 37 5 46 27 6 15 8 41 5 58 -11 58 -15 101 -26 260 -6 88 -17 232
-25 320 -8 88 -16 197 -19 243 -6 99 -19 91 175 122 74 12 202 32 284 45 130
21 325 40 620 60 44 3 141 10 215 16 81 7 173 8 230 4 52 -5 111 -9 130 -9
l35 -1 1 -90 c0 -50 -3 -128 -7 -175 -12 -123 -27 -321 -34 -425 -3 -49 -12
-126 -21 -170 -21 -109 -74 -276 -90 -282 -7 -2 -33 7 -58 22 -68 40 -117 22
-103 -37 9 -33 148 -110 192 -106 37 4 63 47 104 173 46 144 66 252 76 401 4
49 13 159 20 244 17 188 29 463 21 494 -3 13 -19 29 -34 35 -46 19 -380 28
-564 14 -90 -6 -223 -15 -297 -19 -123 -6 -134 -5 -128 10 4 9 7 92 8 184 0
93 4 174 8 181 6 9 67 19 182 32 96 10 233 25 304 34 72 8 168 18 215 22 68 5
88 10 106 29 15 14 21 29 17 43 -11 43 -32 44 -261 17 -276 -33 -380 -45 -467
-52 -38 -3 -76 -7 -82 -9 -10 -3 -13 33 -13 158 0 114 -4 167 -12 175 -16 16
-53 15 -67 -2z"/>
<path d="M1585 1440 c-24 -10 -59 -47 -109 -117 -35 -50 -115 -125 -183 -172
-51 -35 -42 -101 13 -101 41 0 185 123 257 220 22 30 53 65 68 78 35 28 38 65
7 86 -25 18 -25 18 -53 6z"/>
<path d="M932 1348 c-7 -7 -12 -19 -12 -27 0 -21 103 -265 120 -285 27 -33 80
-13 80 30 0 32 -78 224 -106 262 -26 33 -60 42 -82 20z"/>
</g>
</svg>
