<?xml version="1.0" standalone="no"?>
<!DOCTYPE svg PUBLIC "-//W3C//DTD SVG 20010904//EN"
 "http://www.w3.org/TR/2001/REC-SVG-20010904/DTD/svg10.dtd">
<svg version="1.0" xmlns="http://www.w3.org/2000/svg"
 width="248.000000pt" height="248.000000pt" viewBox="0 0 248.000000 248.000000"
 preserveAspectRatio="xMidYMid meet">
<metadata>
Created by potrace 1.10, written by Peter Selinger 2001-2011
</metadata>
<g transform="translate(0.000000,248.000000) scale(0.100000,-0.100000)"
fill="#000000" stroke="none">
<path d="M1191 2386 c-7 -9 -15 -79 -19 -182 l-7 -168 -40 -7 c-22 -4 -83 -10
-135 -13 -52 -3 -147 -13 -210 -21 -63 -8 -139 -17 -168 -19 -61 -6 -82 -19
-82 -51 0 -53 50 -59 262 -31 64 9 147 18 185 21 37 3 93 8 124 11 54 4 57 3
63 -20 3 -14 3 -94 -1 -178 -10 -233 -10 -239 8 -251 9 -5 28 -7 42 -3 40 10
44 35 47 286 1 91 5 172 9 179 6 9 67 19 182 32 96 10 233 25 304 34 72 8 168
18 215 22 68 5 88 10 106 29 15 14 21 29 17 43 -11 43 -32 44 -261 17 -276
-33 -380 -45 -467 -52 -38 -3 -76 -7 -82 -9 -10 -3 -13 33 -13 158 0 114 -4
167 -12 175 -16 16 -53 15 -67 -2z"/>
</g>
</svg>
