<?xml version="1.0" standalone="no"?>
<!DOCTYPE svg PUBLIC "-//W3C//DTD SVG 20010904//EN"
 "http://www.w3.org/TR/2001/REC-SVG-20010904/DTD/svg10.dtd">
<svg version="1.0" xmlns="http://www.w3.org/2000/svg"
 width="248.000000pt" height="248.000000pt" viewBox="0 0 248.000000 248.000000"
 preserveAspectRatio="xMidYMid meet">
<metadata>
Created by potrace 1.10, written by Peter Selinger 2001-2011
</metadata>
<g transform="translate(0.000000,248.000000) scale(0.100000,-0.100000)"
fill="#000000" stroke="none">
<path d="M549 2314 c-10 -12 -16 -61 -20 -178 -3 -89 -11 -285 -18 -436 -13
-308 -11 -322 45 -340 37 -13 26 -15 384 97 184 58 200 66 200 101 0 33 -16
52 -44 52 -10 0 -98 -25 -195 -56 -97 -30 -203 -63 -235 -74 l-59 -18 7 106
c3 58 6 140 6 184 l0 78 58 0 c32 0 93 4 137 9 44 5 134 14 200 21 66 6 137
16 157 21 47 12 65 41 49 77 -12 24 -13 25 -94 18 -45 -3 -122 -10 -172 -15
-49 -6 -142 -13 -206 -17 l-116 -7 4 169 c3 128 1 175 -9 194 -16 30 -59 38
-79 14z"/>
<path d="M1850 2026 c-19 -7 -131 -37 -249 -67 -180 -45 -215 -57 -223 -75
-13 -28 4 -60 36 -68 31 -8 442 96 506 127 31 15 46 29 48 45 7 49 -43 65
-118 38z"/>
</g>
</svg>
