<?xml version="1.0" standalone="no"?>
<!DOCTYPE svg PUBLIC "-//W3C//DTD SVG 20010904//EN"
 "http://www.w3.org/TR/2001/REC-SVG-20010904/DTD/svg10.dtd">
<svg version="1.0" xmlns="http://www.w3.org/2000/svg"
 width="248.000000pt" height="248.000000pt" viewBox="0 0 248.000000 248.000000"
 preserveAspectRatio="xMidYMid meet">
<metadata>
Created by potrace 1.10, written by Peter Selinger 2001-2011
</metadata>
<g transform="translate(0.000000,248.000000) scale(0.100000,-0.100000)"
fill="#000000" stroke="none">
<path d="M1202 2398 c-9 -9 -12 -74 -12 -230 0 -168 -3 -218 -12 -218 -7 0
-114 -12 -238 -25 -124 -14 -276 -30 -338 -34 -135 -10 -167 -25 -159 -74 3
-18 13 -57 21 -87 28 -97 13 -446 -29 -660 -8 -41 -21 -115 -29 -165 -20 -116
-77 -310 -113 -381 -15 -31 -43 -73 -61 -94 -52 -62 -42 -110 23 -110 80 0
216 317 260 607 7 49 20 126 29 173 40 223 53 526 27 643 -5 20 -6 37 -2 37 4
0 126 13 272 30 145 16 325 34 399 40 74 6 169 15 210 20 41 5 113 12 160 15
47 3 170 12 273 20 104 8 202 15 218 15 31 0 69 30 69 55 0 8 -9 24 -21 36
-17 17 -29 20 -62 15 -23 -3 -167 -15 -320 -26 -154 -11 -309 -25 -345 -30
-37 -5 -79 -10 -94 -10 l-26 0 -4 198 c-3 169 -6 202 -21 225 -19 29 -54 36
-75 15z"/>
<path d="M1200 1695 c-8 -10 -10 -30 -5 -62 9 -69 18 -687 10 -759 l-6 -61
-137 -12 c-297 -26 -354 -40 -360 -93 -2 -15 2 -36 8 -48 18 -33 59 -261 70
-388 14 -155 18 -170 46 -189 30 -19 74 -4 74 25 0 60 -35 334 -55 436 -15 73
-20 123 -14 126 18 12 385 42 609 50 337 13 420 13 420 -3 0 -16 -107 -339
-146 -442 -37 -99 -41 -140 -16 -154 22 -11 64 -1 76 18 10 16 65 169 103 286
19 61 46 141 60 180 13 38 27 96 30 130 5 53 3 62 -17 80 -21 19 -35 20 -259
18 -130 -1 -269 -5 -309 -8 l-72 -7 6 169 c4 92 7 169 8 170 4 5 148 22 231
28 146 10 335 41 352 58 10 10 13 24 9 41 -11 43 -35 48 -143 30 -54 -9 -150
-20 -213 -24 -63 -5 -142 -12 -176 -16 l-61 -7 -6 144 c-7 147 -25 257 -47
284 -16 19 -54 19 -70 0z"/>
</g>
</svg>
