<?xml version="1.0" standalone="no"?>
<!DOCTYPE svg PUBLIC "-//W3C//DTD SVG 20010904//EN"
 "http://www.w3.org/TR/2001/REC-SVG-20010904/DTD/svg10.dtd">
<svg version="1.0" xmlns="http://www.w3.org/2000/svg"
 width="248.000000pt" height="248.000000pt" viewBox="0 0 248.000000 248.000000"
 preserveAspectRatio="xMidYMid meet">
<metadata>
Created by potrace 1.10, written by Peter Selinger 2001-2011
</metadata>
<g transform="translate(0.000000,248.000000) scale(0.100000,-0.100000)"
fill="#000000" stroke="none">
<path d="M1202 2398 c-9 -9 -12 -74 -12 -230 0 -168 -3 -218 -12 -218 -7 0
-114 -12 -238 -25 -124 -14 -276 -30 -338 -34 -135 -10 -167 -25 -159 -74 3
-18 13 -57 21 -87 28 -97 13 -446 -29 -660 -8 -41 -21 -115 -29 -165 -20 -116
-77 -310 -113 -381 -15 -31 -43 -73 -61 -94 -52 -62 -42 -110 23 -110 80 0
216 317 260 607 7 49 20 126 29 173 40 223 53 526 27 643 -5 20 -6 37 -2 37 4
0 126 13 272 30 145 16 325 34 399 40 74 6 169 15 210 20 41 5 113 12 160 15
47 3 170 12 273 20 104 8 202 15 218 15 31 0 69 30 69 55 0 8 -9 24 -21 36
-17 17 -29 20 -62 15 -23 -3 -167 -15 -320 -26 -154 -11 -309 -25 -345 -30
-37 -5 -79 -10 -94 -10 l-26 0 -4 198 c-3 169 -6 202 -21 225 -19 29 -54 36
-75 15z"/>
</g>
</svg>
