<?xml version="1.0" standalone="no"?>
<!DOCTYPE svg PUBLIC "-//W3C//DTD SVG 20010904//EN"
 "http://www.w3.org/TR/2001/REC-SVG-20010904/DTD/svg10.dtd">
<svg version="1.0" xmlns="http://www.w3.org/2000/svg"
 width="248.000000pt" height="248.000000pt" viewBox="0 0 248.000000 248.000000"
 preserveAspectRatio="xMidYMid meet">
<metadata>
Created by potrace 1.10, written by Peter Selinger 2001-2011
</metadata>
<g transform="translate(0.000000,248.000000) scale(0.100000,-0.100000)"
fill="#000000" stroke="none">
<path d="M562 2288 c-13 -13 -16 -47 -4 -64 4 -6 27 -27 52 -46 25 -19 78 -60
119 -91 75 -57 114 -70 139 -45 31 31 6 72 -78 129 -19 13 -64 47 -100 76 -65
53 -104 65 -128 41z"/>
<path d="M975 1883 c-38 -8 -131 -27 -205 -43 -74 -16 -200 -41 -280 -54 -276
-48 -299 -53 -315 -66 -23 -19 -15 -63 15 -77 20 -9 42 -9 105 3 44 8 121 21
170 29 50 9 180 34 290 56 356 71 375 77 375 124 0 47 -31 53 -155 28z"/>
<path d="M720 1496 c-193 -41 -288 -65 -320 -80 -35 -16 -39 -60 -7 -80 26
-18 85 -11 177 19 25 8 114 28 199 45 85 16 160 35 167 41 17 14 18 53 1 67
-26 22 -67 20 -217 -12z"/>
<path d="M730 1155 c-58 -12 -142 -32 -187 -44 -45 -11 -92 -21 -105 -21 -65
0 -91 -71 -36 -98 24 -11 43 -9 140 13 62 15 174 40 248 56 154 33 177 48 150
100 -14 25 -72 24 -210 -6z"/>
</g>
</svg>
