<?xml version="1.0" standalone="no"?>
<!DOCTYPE svg PUBLIC "-//W3C//DTD SVG 20010904//EN"
 "http://www.w3.org/TR/2001/REC-SVG-20010904/DTD/svg10.dtd">
<svg version="1.0" xmlns="http://www.w3.org/2000/svg"
 width="248.000000pt" height="248.000000pt" viewBox="0 0 248.000000 248.000000"
 preserveAspectRatio="xMidYMid meet">
<metadata>
Created by potrace 1.10, written by Peter Selinger 2001-2011
</metadata>
<g transform="translate(0.000000,248.000000) scale(0.100000,-0.100000)"
fill="#000000" stroke="none">
<path d="M562 2288 c-13 -13 -16 -47 -4 -64 4 -6 27 -27 52 -46 25 -19 78 -60
119 -91 75 -57 114 -70 139 -45 31 31 6 72 -78 129 -19 13 -64 47 -100 76 -65
53 -104 65 -128 41z"/>
<path d="M2040 2101 c-69 -15 -215 -51 -325 -79 -110 -27 -235 -56 -277 -62
-83 -14 -112 -33 -106 -71 2 -12 11 -27 20 -33 26 -16 163 8 425 74 128 32
256 63 285 69 30 5 66 13 81 16 27 7 27 7 27 -45 0 -61 -29 -189 -65 -283 -13
-36 -31 -95 -39 -131 -9 -36 -37 -116 -62 -177 -37 -88 -58 -123 -102 -170
-77 -84 -87 -88 -126 -50 -47 46 -96 38 -96 -16 0 -86 135 -145 206 -91 126
95 197 206 259 409 14 46 41 134 60 194 64 202 68 226 69 333 1 97 0 105 -23
123 -30 25 -59 23 -211 -10z"/>
<path d="M975 1883 c-38 -8 -131 -27 -205 -43 -74 -16 -200 -41 -280 -54 -276
-48 -299 -53 -315 -66 -23 -19 -15 -63 15 -77 20 -9 42 -9 105 3 44 8 121 21
170 29 50 9 180 34 290 56 356 71 375 77 375 124 0 47 -31 53 -155 28z"/>
<path d="M720 1496 c-193 -41 -288 -65 -320 -80 -35 -16 -39 -60 -7 -80 26
-18 85 -11 177 19 25 8 114 28 199 45 85 16 160 35 167 41 17 14 18 53 1 67
-26 22 -67 20 -217 -12z"/>
<path d="M730 1155 c-58 -12 -142 -32 -187 -44 -45 -11 -92 -21 -105 -21 -65
0 -91 -71 -36 -98 24 -11 43 -9 140 13 62 15 174 40 248 56 154 33 177 48 150
100 -14 25 -72 24 -210 -6z"/>
<path d="M830 827 c-3 -2 -32 -7 -65 -10 -33 -3 -91 -13 -130 -22 -38 -10
-121 -25 -184 -35 -148 -24 -156 -32 -155 -138 0 -42 5 -113 12 -157 6 -44 19
-147 28 -229 25 -209 17 -202 211 -199 81 1 188 7 238 12 81 8 91 12 112 37
13 16 25 43 27 59 19 135 26 241 26 418 0 199 -1 207 -22 231 -21 22 -86 44
-98 33z m10 -312 c0 -112 -5 -238 -11 -279 -13 -88 2 -82 -225 -92 l-151 -7
-12 109 c-7 60 -19 160 -27 222 -8 62 -14 128 -14 146 l0 33 78 12 c42 7 118
21 167 31 89 19 128 26 173 29 l22 1 0 -205z"/>
</g>
</svg>
