<?xml version="1.0" standalone="no"?>
<!DOCTYPE svg PUBLIC "-//W3C//DTD SVG 20010904//EN"
 "http://www.w3.org/TR/2001/REC-SVG-20010904/DTD/svg10.dtd">
<svg version="1.0" xmlns="http://www.w3.org/2000/svg"
 width="248.000000pt" height="248.000000pt" viewBox="0 0 248.000000 248.000000"
 preserveAspectRatio="xMidYMid meet">
<metadata>
Created by potrace 1.10, written by Peter Selinger 2001-2011
</metadata>
<g transform="translate(0.000000,248.000000) scale(0.100000,-0.100000)"
fill="#000000" stroke="none">
<path d="M1149 2344 c-9 -11 -16 -55 -19 -128 l-5 -111 -55 -7 c-30 -4 -136
-14 -235 -23 -99 -8 -207 -20 -240 -26 -33 -6 -95 -14 -138 -19 -113 -11 -112
-8 -99 -185 11 -159 24 -195 66 -195 49 0 56 34 40 202 -7 76 -19 66 106 87
152 26 563 59 990 81 204 10 560 14 560 6 0 -3 -14 -28 -32 -55 -27 -44 -30
-55 -20 -76 9 -19 19 -25 41 -25 26 0 39 11 91 81 70 95 79 136 33 166 -36 24
-282 30 -603 14 -129 -6 -270 -13 -312 -15 l-78 -3 0 101 c0 76 -4 107 -16
124 -18 26 -56 29 -75 6z"/>
<path d="M1082 1828 c-24 -24 -12 -61 43 -134 60 -80 83 -98 112 -87 44 16 44
61 1 115 -97 120 -124 138 -156 106z"/>
</g>
</svg>
