<?xml version="1.0" standalone="no"?>
<!DOCTYPE svg PUBLIC "-//W3C//DTD SVG 20010904//EN"
 "http://www.w3.org/TR/2001/REC-SVG-20010904/DTD/svg10.dtd">
<svg version="1.0" xmlns="http://www.w3.org/2000/svg"
 width="248.000000pt" height="248.000000pt" viewBox="0 0 248.000000 248.000000"
 preserveAspectRatio="xMidYMid meet">
<metadata>
Created by potrace 1.10, written by Peter Selinger 2001-2011
</metadata>
<g transform="translate(0.000000,248.000000) scale(0.100000,-0.100000)"
fill="#000000" stroke="none">
<path d="M1149 2344 c-9 -11 -16 -53 -19 -128 l-5 -111 -55 -7 c-30 -4 -136
-14 -235 -23 -99 -8 -207 -20 -240 -26 -33 -6 -95 -14 -138 -19 -113 -11 -112
-8 -99 -185 11 -159 24 -195 66 -195 49 0 56 34 40 202 -7 76 -19 66 106 87
152 26 563 59 990 81 204 10 560 14 560 6 0 -3 -14 -28 -32 -55 -27 -44 -30
-55 -20 -76 9 -19 19 -25 41 -25 26 0 39 11 91 81 70 95 79 136 33 166 -36 24
-282 30 -603 14 -129 -6 -270 -13 -312 -15 l-78 -3 0 96 c0 57 -5 106 -13 121
-15 31 -58 38 -78 14z"/>
<path d="M1598 1923 c-9 -10 -29 -45 -46 -78 -39 -77 -224 -324 -294 -393
l-54 -52 -115 86 c-147 111 -172 135 -228 219 -48 72 -77 89 -107 65 -30 -26
-13 -81 54 -174 30 -41 217 -200 304 -258 13 -9 21 -18 18 -20 -3 -2 -43 -38
-90 -79 -47 -42 -125 -100 -173 -129 -100 -60 -116 -80 -92 -116 21 -32 51
-31 108 6 26 16 51 30 56 30 13 0 96 65 200 157 l95 83 40 -26 c23 -14 66 -37
96 -51 30 -14 93 -44 140 -66 189 -89 281 -120 338 -115 33 3 39 8 64 58 18
34 33 87 40 138 14 93 7 115 -35 120 -35 4 -51 -24 -71 -122 -9 -44 -19 -82
-22 -85 -7 -8 -124 34 -214 76 -41 19 -110 50 -154 69 -64 28 -112 55 -145 81
-3 2 18 27 45 56 28 28 93 109 145 179 150 203 200 305 169 343 -17 20 -53 19
-72 -2z"/>
<path d="M1082 1828 c-24 -24 -12 -61 43 -134 60 -80 83 -98 112 -87 44 16 44
61 1 115 -97 120 -124 138 -156 106z"/>
<path d="M1662 1618 c-24 -24 -11 -54 56 -125 64 -70 76 -77 115 -74 20 1 37
38 28 63 -3 9 -34 46 -69 82 -64 68 -101 83 -130 54z"/>
<path d="M576 1498 c-9 -13 -16 -43 -16 -72 0 -28 -12 -88 -26 -135 -33 -110
-23 -141 46 -131 25 3 29 12 60 121 45 156 36 239 -25 239 -13 0 -31 -10 -39
-22z"/>
<path d="M1226 1039 c-12 -18 -15 -60 -15 -243 -1 -122 -3 -277 -7 -346 -6
-146 2 -175 51 -175 53 0 56 19 61 393 6 368 4 384 -48 390 -18 2 -31 -4 -42
-19z"/>
</g>
</svg>
