<?xml version="1.0" standalone="no"?>
<!DOCTYPE svg PUBLIC "-//W3C//DTD SVG 20010904//EN"
 "http://www.w3.org/TR/2001/REC-SVG-20010904/DTD/svg10.dtd">
<svg version="1.0" xmlns="http://www.w3.org/2000/svg"
 width="248.000000pt" height="248.000000pt" viewBox="0 0 248.000000 248.000000"
 preserveAspectRatio="xMidYMid meet">
<metadata>
Created by potrace 1.10, written by Peter Selinger 2001-2011
</metadata>
<g transform="translate(0.000000,248.000000) scale(0.100000,-0.100000)"
fill="#000000" stroke="none">
<path d="M1186 2358 c-13 -18 -16 -54 -16 -183 0 -182 8 -210 55 -210 47 0 55
28 55 210 0 175 -8 205 -55 205 -13 0 -31 -10 -39 -22z"/>
<path d="M319 1904 c-15 -18 -15 -35 5 -237 8 -82 20 -155 27 -163 16 -19 69
-14 82 8 15 24 -18 353 -38 385 -18 27 -56 30 -76 7z"/>
</g>
</svg>
