<?xml version="1.0" standalone="no"?>
<!DOCTYPE svg PUBLIC "-//W3C//DTD SVG 20010904//EN"
 "http://www.w3.org/TR/2001/REC-SVG-20010904/DTD/svg10.dtd">
<svg version="1.0" xmlns="http://www.w3.org/2000/svg"
 width="248.000000pt" height="248.000000pt" viewBox="0 0 248.000000 248.000000"
 preserveAspectRatio="xMidYMid meet">
<metadata>
Created by potrace 1.10, written by Peter Selinger 2001-2011
</metadata>
<g transform="translate(0.000000,248.000000) scale(0.100000,-0.100000)"
fill="#000000" stroke="none">
<path d="M1186 2358 c-13 -18 -16 -53 -16 -179 l0 -156 -37 -7 c-21 -3 -60 -6
-88 -6 -55 0 -126 -8 -400 -47 -99 -14 -208 -29 -242 -32 -76 -8 -98 -26 -95
-78 5 -119 32 -336 42 -349 16 -19 64 -18 80 2 11 12 11 41 2 147 -15 167 -15
164 4 171 34 13 444 67 616 81 98 8 183 17 187 20 5 2 62 9 127 15 66 5 191
17 279 26 178 17 495 30 495 19 0 -8 -50 -71 -117 -146 -57 -63 -64 -86 -35
-112 40 -36 68 -17 182 124 114 140 128 185 75 229 -34 28 -404 18 -720 -20
-44 -5 -117 -12 -162 -15 l-83 -6 0 148 c0 162 -9 193 -55 193 -13 0 -31 -10
-39 -22z"/>
<path d="M1550 1747 c-3 -3 -53 -11 -110 -17 -176 -19 -280 -29 -393 -41 -60
-6 -134 -18 -165 -28 -85 -25 -87 -36 -57 -212 14 -79 30 -163 35 -187 6 -23
10 -51 10 -62 0 -39 37 -51 132 -44 79 6 88 5 88 -10 0 -31 -66 -118 -160
-211 -97 -96 -108 -123 -66 -150 22 -15 27 -15 53 -1 42 22 175 162 227 239
35 51 46 78 46 106 l0 38 93 6 c50 4 147 10 215 13 80 5 126 11 133 20 21 26
59 274 62 407 2 116 -6 128 -85 135 -29 2 -55 2 -58 -1z m34 -194 c-7 -94 -29
-242 -38 -251 -5 -5 -579 -43 -581 -39 -10 19 -49 299 -43 303 5 3 53 10 106
15 53 5 138 14 187 19 50 5 137 14 195 20 57 6 106 13 109 15 2 3 19 5 38 5
l33 0 -6 -87z"/>
<path d="M620 785 c-11 -13 -11 -29 -2 -78 12 -67 39 -330 50 -490 7 -102 14
-117 58 -117 54 0 58 47 31 335 -21 217 -39 320 -63 346 -21 23 -57 25 -74 4z"/>
</g>
</svg>
