<?xml version="1.0" standalone="no"?>
<!DOCTYPE svg PUBLIC "-//W3C//DTD SVG 20010904//EN"
 "http://www.w3.org/TR/2001/REC-SVG-20010904/DTD/svg10.dtd">
<svg version="1.0" xmlns="http://www.w3.org/2000/svg"
 width="248.000000pt" height="248.000000pt" viewBox="0 0 248.000000 248.000000"
 preserveAspectRatio="xMidYMid meet">
<metadata>
Created by potrace 1.10, written by Peter Selinger 2001-2011
</metadata>
<g transform="translate(0.000000,248.000000) scale(0.100000,-0.100000)"
fill="#000000" stroke="none">
<path d="M292 2088 c-22 -22 -12 -54 31 -95 44 -44 59 -55 182 -141 79 -55
117 -64 138 -31 19 30 -1 63 -65 106 -66 44 -90 62 -171 131 -52 43 -92 53
-115 30z"/>
<path d="M162 1348 c-19 -19 -14 -53 11 -76 27 -25 263 -132 292 -132 44 0 61
53 28 83 -27 23 -273 137 -297 137 -12 0 -27 -5 -34 -12z"/>
<path d="M423 618 c-11 -13 -35 -50 -53 -83 -18 -33 -69 -119 -112 -191 -76
-128 -90 -168 -66 -192 24 -24 57 -13 89 31 17 23 34 49 37 57 3 8 26 49 52
90 87 141 140 240 140 263 0 49 -52 63 -87 25z"/>
</g>
</svg>
