<?xml version="1.0" standalone="no"?>
<!DOCTYPE svg PUBLIC "-//W3C//DTD SVG 20010904//EN"
 "http://www.w3.org/TR/2001/REC-SVG-20010904/DTD/svg10.dtd">
<svg version="1.0" xmlns="http://www.w3.org/2000/svg"
 width="248.000000pt" height="248.000000pt" viewBox="0 0 248.000000 248.000000"
 preserveAspectRatio="xMidYMid meet">
<metadata>
Created by potrace 1.10, written by Peter Selinger 2001-2011
</metadata>
<g transform="translate(0.000000,248.000000) scale(0.100000,-0.100000)"
fill="#000000" stroke="none">
<path d="M1151 2306 c-9 -10 -12 -271 -11 -1014 0 -604 -3 -1003 -9 -1006 -5
-4 -32 23 -61 58 -28 36 -60 68 -70 71 -30 10 -59 -4 -66 -30 -12 -50 175
-245 235 -245 16 0 35 8 44 18 16 17 17 106 17 1078 0 811 -3 1063 -12 1072
-16 16 -53 15 -67 -2z"/>
</g>
</svg>
