<?xml version="1.0" standalone="no"?>
<!DOCTYPE svg PUBLIC "-//W3C//DTD SVG 20010904//EN"
 "http://www.w3.org/TR/2001/REC-SVG-20010904/DTD/svg10.dtd">
<svg version="1.0" xmlns="http://www.w3.org/2000/svg"
 width="248.000000pt" height="248.000000pt" viewBox="0 0 248.000000 248.000000"
 preserveAspectRatio="xMidYMid meet">
<metadata>
Created by potrace 1.10, written by Peter Selinger 2001-2011
</metadata>
<g transform="translate(0.000000,248.000000) scale(0.100000,-0.100000)"
fill="#000000" stroke="none">
<path d="M2030 2144 c-52 -8 -133 -21 -180 -30 -47 -8 -109 -16 -137 -17 -78
-4 -86 -15 -84 -134 1 -54 6 -152 12 -218 7 -74 9 -290 6 -560 -4 -429 -4
-443 -30 -550 -27 -116 -83 -261 -124 -322 -38 -56 -44 -78 -27 -102 46 -64
117 15 197 219 37 93 53 158 77 304 21 123 21 152 16 570 -3 243 -9 495 -12
562 l-6 121 84 17 c87 18 191 33 294 43 l62 6 6 -244 c3 -134 8 -548 10 -919
l5 -674 -38 42 c-21 23 -48 42 -59 42 -26 0 -52 -25 -52 -50 0 -28 76 -118
128 -151 67 -42 101 -38 121 14 17 44 -3 1967 -21 2004 -21 45 -79 51 -248 27z"/>
<path d="M1032 2127 c-7 -8 -14 -121 -18 -310 -7 -287 -8 -297 -28 -303 -11
-4 -77 -12 -147 -18 -74 -7 -134 -18 -143 -25 -24 -20 -20 -58 9 -77 22 -15
37 -15 136 -5 61 7 124 14 140 18 l29 6 0 -184 0 -184 -122 -30 c-67 -16 -131
-37 -142 -46 -19 -15 -20 -27 -17 -265 1 -142 7 -256 13 -267 5 -10 25 -25 44
-33 30 -12 50 -12 156 2 68 8 187 21 266 28 79 8 149 19 155 25 6 6 15 46 18
89 4 42 12 123 19 179 17 145 11 307 -13 330 -20 21 -105 24 -220 9 l-67 -8 2
183 3 183 80 12 c236 38 245 41 245 88 0 53 -38 54 -297 9 l-33 -5 0 98 c0 55
5 119 11 144 6 25 11 109 12 186 2 127 0 144 -17 163 -21 24 -58 28 -74 8z
m265 -1309 c-5 -128 -20 -252 -32 -266 -2 -2 -41 -7 -87 -12 -45 -5 -139 -16
-207 -25 -68 -9 -125 -15 -126 -13 -2 2 -5 90 -6 197 l-4 195 50 13 c69 19
321 60 374 62 l44 1 -6 -152z"/>
<path d="M292 2088 c-22 -22 -12 -54 31 -95 44 -44 59 -55 182 -141 79 -55
117 -64 138 -31 19 30 -1 63 -65 106 -66 44 -90 62 -171 131 -52 43 -92 53
-115 30z"/>
<path d="M162 1348 c-19 -19 -14 -53 11 -76 27 -25 263 -132 292 -132 44 0 61
53 28 83 -27 23 -273 137 -297 137 -12 0 -27 -5 -34 -12z"/>
<path d="M423 618 c-11 -13 -35 -50 -53 -83 -18 -33 -69 -119 -112 -191 -76
-128 -90 -168 -66 -192 24 -24 57 -13 89 31 17 23 34 49 37 57 3 8 26 49 52
90 87 141 140 240 140 263 0 49 -52 63 -87 25z"/>
</g>
</svg>
