<?xml version="1.0" standalone="no"?>
<!DOCTYPE svg PUBLIC "-//W3C//DTD SVG 20010904//EN"
 "http://www.w3.org/TR/2001/REC-SVG-20010904/DTD/svg10.dtd">
<svg version="1.0" xmlns="http://www.w3.org/2000/svg"
 width="248.000000pt" height="248.000000pt" viewBox="0 0 248.000000 248.000000"
 preserveAspectRatio="xMidYMid meet">
<metadata>
Created by potrace 1.10, written by Peter Selinger 2001-2011
</metadata>
<g transform="translate(0.000000,248.000000) scale(0.100000,-0.100000)"
fill="#000000" stroke="none">
<path d="M1151 2306 c-9 -10 -12 -271 -11 -1014 0 -604 -3 -1003 -9 -1006 -5
-4 -32 23 -61 58 -28 36 -60 68 -70 71 -30 10 -59 -4 -66 -30 -12 -50 175
-245 235 -245 16 0 35 8 44 18 16 17 17 106 17 1078 0 811 -3 1063 -12 1072
-16 16 -53 15 -67 -2z"/>
<path d="M1904 2034 c-43 -36 -106 -85 -139 -109 -68 -48 -328 -196 -423 -240
-44 -21 -64 -36 -68 -52 -7 -28 20 -63 47 -63 10 0 69 26 131 58 258 134 380
211 523 333 85 73 101 99 73 127 -27 27 -64 13 -144 -54z"/>
<path d="M835 1615 c-49 -7 -110 -18 -135 -23 -67 -16 -354 -52 -413 -52 -63
0 -101 -18 -105 -48 -7 -48 11 -54 143 -47 135 7 303 28 413 52 40 8 75 13 77
11 7 -7 -91 -165 -143 -230 -77 -96 -296 -309 -397 -385 -91 -70 -110 -98 -85
-129 24 -28 62 -15 159 57 203 152 424 399 549 616 23 39 54 80 68 90 18 13
27 29 27 47 0 52 -30 59 -158 41z"/>
</g>
</svg>
