<?xml version="1.0" standalone="no"?>
<!DOCTYPE svg PUBLIC "-//W3C//DTD SVG 20010904//EN"
 "http://www.w3.org/TR/2001/REC-SVG-20010904/DTD/svg10.dtd">
<svg version="1.0" xmlns="http://www.w3.org/2000/svg"
 width="248.000000pt" height="248.000000pt" viewBox="0 0 248.000000 248.000000"
 preserveAspectRatio="xMidYMid meet">
<metadata>
Created by potrace 1.10, written by Peter Selinger 2001-2011
</metadata>
<g transform="translate(0.000000,248.000000) scale(0.100000,-0.100000)"
fill="#000000" stroke="none">
<path d="M1183 2362 c-7 -4 -35 -51 -61 -104 -76 -149 -160 -284 -197 -316
-22 -20 -49 -32 -81 -36 -27 -4 -85 -17 -129 -28 -44 -11 -95 -21 -112 -22
-18 -1 -38 -7 -44 -13 -28 -28 0 -942 40 -1338 5 -49 13 -121 17 -160 3 -39
13 -78 22 -87 19 -22 55 -23 72 -3 17 21 17 41 -3 235 -9 91 -18 198 -21 237
-6 85 -15 79 128 87 133 9 466 35 596 47 63 6 155 13 204 16 l89 6 -6 -125
c-4 -68 -13 -169 -21 -224 -8 -54 -17 -136 -21 -181 -6 -74 -5 -83 14 -102 24
-24 40 -26 65 -8 15 11 21 40 32 158 8 79 18 178 24 219 12 88 23 265 45 710
8 179 20 372 25 430 14 150 13 185 -7 201 -22 19 -444 19 -636 0 -76 -7 -140
-11 -143 -8 -3 3 11 30 31 61 49 77 155 282 155 301 0 18 -35 55 -52 55 -7 0
-19 -4 -25 -8z m573 -559 c-3 -38 -9 -116 -12 -175 l-7 -108 -31 -4 c-40 -7
-110 -13 -276 -26 -123 -9 -252 -25 -430 -50 -36 -5 -117 -14 -180 -20 -63 -6
-125 -13 -137 -17 l-23 -5 0 181 0 180 38 10 c20 5 73 17 117 25 44 8 121 22
170 32 158 29 314 42 549 43 l229 1 -7 -67z m-30 -565 c-4 -95 -9 -189 -12
-209 l-6 -35 -161 -18 c-89 -9 -223 -21 -297 -26 -74 -5 -233 -16 -353 -25
-121 -9 -220 -15 -222 -13 -2 2 -6 89 -10 194 l-8 191 44 6 c24 4 94 11 154
17 61 6 121 12 135 15 14 2 52 7 85 11 33 3 78 10 100 14 22 5 108 14 190 20
83 7 184 15 225 19 41 5 90 9 109 10 l34 1 -7 -172z"/>
</g>
</svg>
