<?xml version="1.0" standalone="no"?>
<!DOCTYPE svg PUBLIC "-//W3C//DTD SVG 20010904//EN"
 "http://www.w3.org/TR/2001/REC-SVG-20010904/DTD/svg10.dtd">
<svg version="1.0" xmlns="http://www.w3.org/2000/svg"
 width="248.000000pt" height="248.000000pt" viewBox="0 0 248.000000 248.000000"
 preserveAspectRatio="xMidYMid meet">
<metadata>
Created by potrace 1.10, written by Peter Selinger 2001-2011
</metadata>
<g transform="translate(0.000000,248.000000) scale(0.100000,-0.100000)"
fill="#000000" stroke="none">
<path d="M619 2373 c-11 -12 -15 -79 -19 -292 l-5 -276 -30 -3 c-71 -8 -318
-62 -331 -73 -22 -18 -17 -57 10 -74 21 -14 31 -14 107 0 46 9 103 20 126 26
23 5 53 9 68 9 22 0 25 -3 20 -27 -15 -70 -51 -198 -85 -308 -21 -66 -46 -149
-55 -185 -25 -97 -118 -366 -182 -525 -59 -145 -64 -168 -39 -193 27 -27 64
-7 90 51 77 167 182 459 231 642 64 237 62 249 70 -320 4 -279 5 -549 1 -599
-7 -105 4 -139 46 -144 20 -2 31 4 45 25 17 26 18 64 15 683 l-2 655 35 -60
c19 -33 35 -64 35 -68 0 -12 95 -151 114 -166 21 -18 66 -17 77 0 17 27 8 56
-37 119 -26 35 -76 125 -111 199 -35 75 -73 154 -84 176 -32 67 -30 70 74 93
50 12 108 24 127 27 55 11 82 32 78 63 -5 48 -35 53 -161 26 -62 -13 -118 -24
-124 -24 -10 0 -13 58 -13 258 0 217 -2 261 -16 280 -18 26 -56 29 -75 5z"/>
<path d="M1987 2273 c-8 -10 -21 -49 -28 -88 -6 -38 -12 -71 -14 -73 -4 -4
-250 -50 -305 -56 -30 -4 -70 -9 -87 -12 l-33 -6 0 79 c0 88 -15 123 -55 123
-40 0 -55 -35 -55 -126 l0 -82 -50 -11 c-28 -6 -68 -11 -88 -11 -46 0 -82 -24
-82 -54 0 -49 48 -60 181 -41 l57 8 11 -74 c19 -117 21 -127 36 -139 22 -19
59 -7 73 22 10 22 11 41 3 85 -6 31 -11 71 -11 89 0 32 1 33 58 38 31 4 116
17 187 30 72 14 131 23 132 22 2 -1 -4 -27 -12 -57 -33 -119 -29 -149 20 -149
39 0 68 54 95 177 l12 52 56 11 c158 30 192 45 192 84 0 50 -30 56 -148 33
l-73 -15 6 64 c8 71 -2 94 -40 94 -12 0 -29 -8 -38 -17z"/>
<path d="M1260 1604 c-11 -12 -11 -45 -2 -172 7 -86 12 -204 12 -262 0 -69 4
-110 12 -118 17 -17 63 -15 79 5 24 28 21 231 -6 473 -4 30 -14 63 -22 73 -20
21 -56 22 -73 1z"/>
</g>
</svg>
