<?xml version="1.0" standalone="no"?>
<!DOCTYPE svg PUBLIC "-//W3C//DTD SVG 20010904//EN"
 "http://www.w3.org/TR/2001/REC-SVG-20010904/DTD/svg10.dtd">
<svg version="1.0" xmlns="http://www.w3.org/2000/svg"
 width="248.000000pt" height="248.000000pt" viewBox="0 0 248.000000 248.000000"
 preserveAspectRatio="xMidYMid meet">
<metadata>
Created by potrace 1.10, written by Peter Selinger 2001-2011
</metadata>
<g transform="translate(0.000000,248.000000) scale(0.100000,-0.100000)"
fill="#000000" stroke="none">
<path d="M632 2218 c-8 -8 -12 -51 -12 -127 0 -109 -6 -182 -29 -376 -15 -121
-58 -419 -75 -515 -9 -47 -18 -105 -21 -130 -8 -58 -70 -296 -100 -380 -52
-146 -108 -278 -155 -361 -51 -90 -60 -125 -38 -147 24 -24 57 -13 88 30 75
104 203 413 256 618 15 58 28 107 30 109 2 2 18 -27 35 -65 60 -134 143 -299
166 -332 25 -33 59 -42 81 -20 19 19 14 53 -17 115 -30 59 -118 246 -151 318
-10 22 -31 72 -46 110 l-27 70 17 140 c9 77 26 194 36 260 34 210 62 497 58
577 -3 57 -10 83 -23 98 -20 22 -55 26 -73 8z"/>
<path d="M1510 2189 c-58 -10 -130 -19 -160 -19 -81 -1 -103 -15 -113 -75 -32
-194 -91 -368 -188 -552 -38 -72 -69 -142 -69 -155 0 -30 17 -48 45 -48 26 0
45 20 74 78 12 23 26 42 32 42 6 0 31 -14 56 -30 25 -17 67 -42 94 -56 27 -13
49 -30 49 -37 -1 -20 -127 -247 -187 -335 -24 -35 -43 -71 -43 -81 0 -44 63
-56 97 -18 23 23 93 126 93 134 0 3 32 61 70 129 113 200 214 447 285 697 48
170 59 257 41 302 -8 19 -22 35 -30 35 -8 0 -20 2 -28 4 -7 2 -60 -4 -118 -15z
m75 -131 c-29 -150 -99 -378 -115 -378 -14 0 -175 70 -198 86 -3 2 66 286 71
289 6 5 186 33 215 34 33 1 33 0 27 -31z m-249 -438 c47 -22 87 -47 90 -54 3
-7 -6 -39 -20 -70 l-25 -57 -43 22 c-32 17 -115 67 -157 96 -9 6 43 103 56
103 7 0 52 -18 99 -40z"/>
<path d="M1931 2157 c-7 -10 -13 -78 -15 -203 -5 -231 -12 -291 -37 -305 -10
-5 -63 -12 -116 -15 -113 -7 -146 -21 -141 -62 5 -44 45 -57 145 -46 l83 9 0
-32 c0 -111 -126 -394 -212 -475 -32 -31 -36 -58 -10 -81 54 -49 118 16 226
227 25 49 51 111 57 138 7 26 15 48 18 48 4 0 12 -10 20 -22 7 -13 33 -50 57
-83 25 -33 74 -100 110 -150 83 -113 108 -141 163 -176 71 -46 121 -36 121 23
0 23 -9 33 -53 58 -54 30 -59 37 -254 302 -67 91 -128 209 -120 231 3 9 15 17
25 17 11 0 86 13 167 30 157 31 188 46 183 88 -6 46 -26 48 -175 19 -76 -15
-145 -27 -153 -27 -14 0 -14 15 -2 138 14 150 10 287 -10 330 -15 31 -58 41
-77 19z"/>
<path d="M2122 1968 c-28 -28 -13 -61 56 -125 37 -35 77 -71 89 -80 44 -30 94
6 78 57 -3 10 -42 51 -86 90 -79 70 -112 83 -137 58z"/>
<path d="M972 1958 c-5 -7 -15 -33 -22 -58 -19 -74 -78 -228 -116 -301 -29
-56 -33 -71 -24 -88 11 -21 54 -28 75 -13 40 27 135 247 166 381 8 35 7 48 -6
67 -17 26 -56 32 -73 12z"/>
<path d="M252 1828 c-17 -17 -15 -54 12 -180 22 -105 74 -257 98 -285 18 -22
56 -15 74 12 16 24 15 29 -16 108 -18 45 -43 134 -57 197 -13 63 -31 125 -39
138 -16 24 -53 29 -72 10z"/>
<path d="M1031 697 c-6 -8 -16 -43 -22 -76 -11 -73 -70 -238 -104 -298 -30
-50 -31 -65 -5 -88 49 -44 95 11 161 189 53 143 66 213 48 251 -16 34 -58 45
-78 22z"/>
<path d="M1302 648 c-16 -16 -15 -37 8 -120 11 -39 27 -112 36 -162 19 -109
35 -138 71 -134 43 5 49 27 35 123 -21 144 -52 254 -80 288 -17 20 -53 22 -70
5z"/>
<path d="M1750 635 c-15 -18 -13 -24 38 -228 22 -86 45 -164 52 -172 15 -18
51 -20 68 -3 18 18 15 67 -13 186 -29 123 -51 190 -73 215 -18 21 -55 22 -72
2z"/>
<path d="M2152 638 c-22 -22 -13 -47 64 -184 41 -74 82 -153 90 -176 19 -56
31 -68 65 -68 64 0 59 73 -15 205 -128 232 -130 235 -171 235 -12 0 -26 -5
-33 -12z"/>
</g>
</svg>
