<?xml version="1.0" standalone="no"?>
<!DOCTYPE svg PUBLIC "-//W3C//DTD SVG 20010904//EN"
 "http://www.w3.org/TR/2001/REC-SVG-20010904/DTD/svg10.dtd">
<svg version="1.0" xmlns="http://www.w3.org/2000/svg"
 width="248.000000pt" height="248.000000pt" viewBox="0 0 248.000000 248.000000"
 preserveAspectRatio="xMidYMid meet">
<metadata>
Created by potrace 1.10, written by Peter Selinger 2001-2011
</metadata>
<g transform="translate(0.000000,248.000000) scale(0.100000,-0.100000)"
fill="#000000" stroke="none">
<path d="M632 2218 c-5 -7 -12 -89 -15 -183 -5 -165 -13 -243 -42 -430 -8 -49
-22 -144 -30 -210 -9 -66 -22 -156 -30 -200 -8 -44 -17 -100 -20 -125 -8 -58
-70 -296 -100 -380 -52 -146 -108 -278 -155 -361 -28 -49 -50 -99 -50 -112 0
-55 57 -64 93 -14 126 168 282 614 331 942 118 784 137 1014 91 1065 -20 22
-57 26 -73 8z"/>
<path d="M973 1958 c-4 -7 -28 -74 -53 -148 -25 -74 -62 -166 -82 -204 -48
-90 -35 -131 35 -112 36 9 85 103 147 281 37 107 43 145 25 171 -17 26 -59 33
-72 12z"/>
<path d="M252 1828 c-17 -17 -15 -51 7 -163 22 -107 50 -196 84 -265 27 -56
66 -67 93 -25 16 25 15 28 -16 108 -18 45 -44 136 -57 202 -14 66 -32 128 -41
138 -17 20 -53 22 -70 5z"/>
</g>
</svg>
