<?xml version="1.0" standalone="no"?>
<!DOCTYPE svg PUBLIC "-//W3C//DTD SVG 20010904//EN"
 "http://www.w3.org/TR/2001/REC-SVG-20010904/DTD/svg10.dtd">
<svg version="1.0" xmlns="http://www.w3.org/2000/svg"
 width="248.000000pt" height="248.000000pt" viewBox="0 0 248.000000 248.000000"
 preserveAspectRatio="xMidYMid meet">
<metadata>
Created by potrace 1.10, written by Peter Selinger 2001-2011
</metadata>
<g transform="translate(0.000000,248.000000) scale(0.100000,-0.100000)"
fill="#000000" stroke="none">
<path d="M619 2373 c-11 -12 -15 -79 -19 -292 l-5 -276 -30 -3 c-71 -8 -318
-62 -331 -73 -22 -18 -17 -57 10 -74 21 -14 31 -14 107 0 46 9 103 20 126 26
23 5 53 9 68 9 22 0 25 -3 20 -27 -15 -70 -51 -198 -85 -308 -21 -66 -46 -149
-55 -185 -25 -97 -118 -366 -182 -525 -59 -145 -64 -168 -39 -193 27 -27 64
-7 90 51 77 167 182 459 231 642 64 237 62 249 70 -320 4 -279 5 -549 1 -599
-7 -105 4 -139 46 -144 20 -2 31 4 45 24 17 27 18 68 15 801 -2 424 -1 781 2
791 6 19 74 39 226 67 55 11 82 32 78 63 -5 48 -35 53 -161 26 -62 -13 -118
-24 -124 -24 -10 0 -13 58 -13 258 0 217 -2 261 -16 280 -18 26 -56 29 -75 5z"/>
</g>
</svg>
