<?xml version="1.0" standalone="no"?>
<!DOCTYPE svg PUBLIC "-//W3C//DTD SVG 20010904//EN"
 "http://www.w3.org/TR/2001/REC-SVG-20010904/DTD/svg10.dtd">
<svg version="1.0" xmlns="http://www.w3.org/2000/svg"
 width="248.000000pt" height="248.000000pt" viewBox="0 0 248.000000 248.000000"
 preserveAspectRatio="xMidYMid meet">
<metadata>
Created by potrace 1.10, written by Peter Selinger 2001-2011
</metadata>
<g transform="translate(0.000000,248.000000) scale(0.100000,-0.100000)"
fill="#000000" stroke="none">
<path d="M632 2218 c-5 -7 -12 -89 -15 -183 -5 -165 -13 -243 -42 -430 -8 -49
-22 -144 -30 -210 -9 -66 -22 -156 -30 -200 -8 -44 -17 -100 -20 -125 -8 -58
-70 -296 -100 -380 -52 -146 -108 -278 -155 -361 -28 -49 -50 -99 -50 -112 0
-55 57 -64 93 -14 86 114 202 395 270 652 l24 90 33 -70 c68 -150 145 -301
167 -333 36 -49 93 -40 93 15 0 12 -34 94 -76 180 -99 206 -117 244 -149 327
-31 79 -31 93 11 369 74 490 89 732 49 777 -20 22 -57 26 -73 8z"/>
<path d="M1545 2194 c-44 -7 -124 -17 -178 -22 -114 -10 -127 -19 -134 -88
-14 -145 -84 -352 -184 -541 -38 -72 -69 -142 -69 -155 0 -30 17 -48 45 -48
26 0 45 20 74 78 12 23 26 42 32 42 6 0 31 -14 56 -30 25 -17 67 -42 94 -56
27 -13 49 -30 49 -37 0 -17 -150 -286 -194 -347 -20 -28 -36 -58 -36 -68 0
-45 62 -57 97 -19 23 23 93 126 93 134 0 3 32 61 70 129 210 371 393 962 316
1023 -22 17 -52 18 -131 5z m40 -136 c-28 -144 -99 -378 -114 -378 -15 1 -92
31 -134 53 -26 14 -52 27 -58 29 -8 3 0 48 27 150 l38 145 91 15 c49 9 105 16
123 17 33 1 33 0 27 -31z m-267 -429 c37 -17 73 -34 81 -38 32 -16 33 -36 7
-94 l-25 -58 -43 22 c-32 17 -115 67 -157 96 -10 7 43 103 56 103 8 0 44 -14
81 -31z"/>
<path d="M1931 2156 c-8 -9 -13 -77 -15 -192 -5 -227 -13 -302 -36 -314 -9 -5
-65 -13 -123 -18 -59 -5 -113 -15 -122 -22 -24 -20 -18 -57 11 -76 22 -15 38
-16 115 -8 59 6 89 6 90 -1 6 -54 -42 -212 -98 -320 -54 -106 -76 -141 -115
-177 -32 -31 -36 -58 -10 -81 54 -49 117 15 230 236 28 54 53 116 57 137 8 46
15 49 34 18 7 -13 33 -50 57 -83 25 -33 72 -98 106 -145 78 -108 112 -146 167
-181 71 -46 121 -36 121 23 0 23 -9 33 -53 58 -53 30 -57 34 -254 302 -67 91
-129 209 -120 231 3 9 17 17 29 17 13 0 88 14 167 30 153 31 184 46 179 88 -6
46 -26 48 -175 19 -76 -15 -145 -27 -153 -27 -14 0 -14 15 -2 138 15 157 9
304 -13 339 -17 26 -56 31 -74 9z"/>
<path d="M2122 1968 c-28 -28 -13 -61 56 -125 37 -35 77 -71 89 -80 44 -30 94
6 78 57 -3 10 -42 51 -86 90 -79 70 -112 83 -137 58z"/>
<path d="M973 1958 c-4 -7 -28 -74 -53 -148 -25 -74 -62 -166 -82 -204 -48
-90 -35 -131 35 -112 36 9 85 103 147 281 37 107 43 145 25 171 -17 26 -59 33
-72 12z"/>
<path d="M252 1828 c-17 -17 -15 -51 7 -163 22 -107 50 -196 84 -265 27 -56
66 -67 93 -25 16 25 15 28 -16 108 -18 45 -44 136 -57 202 -14 66 -32 128 -41
138 -17 20 -53 22 -70 5z"/>
<path d="M1031 697 c-6 -8 -16 -43 -22 -76 -11 -73 -70 -238 -104 -298 -30
-50 -31 -65 -5 -88 49 -44 95 11 161 189 53 143 66 213 48 251 -16 34 -58 45
-78 22z"/>
<path d="M1302 648 c-16 -16 -15 -37 8 -120 11 -39 27 -112 36 -162 20 -110
35 -138 72 -134 43 5 52 36 35 126 -30 168 -55 253 -81 285 -17 20 -53 22 -70
5z"/>
<path d="M1750 635 c-15 -18 -13 -24 38 -228 22 -86 45 -164 52 -172 15 -18
51 -20 68 -3 19 19 14 66 -17 201 -31 130 -45 171 -69 200 -18 21 -55 22 -72
2z"/>
</g>
</svg>
