<?xml version="1.0" standalone="no"?>
<!DOCTYPE svg PUBLIC "-//W3C//DTD SVG 20010904//EN"
 "http://www.w3.org/TR/2001/REC-SVG-20010904/DTD/svg10.dtd">
<svg version="1.0" xmlns="http://www.w3.org/2000/svg"
 width="248.000000pt" height="248.000000pt" viewBox="0 0 248.000000 248.000000"
 preserveAspectRatio="xMidYMid meet">
<metadata>
Created by potrace 1.10, written by Peter Selinger 2001-2011
</metadata>
<g transform="translate(0.000000,248.000000) scale(0.100000,-0.100000)"
fill="#000000" stroke="none">
<path d="M619 2373 c-11 -12 -15 -79 -19 -292 l-5 -276 -30 -3 c-71 -8 -318
-62 -331 -73 -22 -18 -17 -57 10 -74 21 -14 31 -14 107 0 46 9 103 20 126 26
23 5 53 9 68 9 22 0 25 -3 20 -27 -15 -70 -51 -198 -85 -308 -21 -66 -46 -149
-55 -185 -25 -97 -118 -366 -182 -525 -59 -145 -64 -168 -39 -193 27 -27 64
-7 90 51 77 167 182 459 231 642 64 237 62 249 70 -320 4 -279 5 -549 1 -599
-7 -105 4 -139 46 -144 20 -2 31 4 45 25 17 26 18 64 15 683 l-2 655 35 -60
c19 -33 35 -64 35 -68 0 -12 95 -151 114 -166 21 -18 66 -17 77 0 17 27 8 56
-37 119 -26 35 -76 125 -111 199 -35 75 -73 154 -84 176 -32 67 -30 70 74 93
50 12 108 24 127 27 55 11 82 32 78 63 -5 48 -35 53 -161 26 -62 -13 -118 -24
-124 -24 -10 0 -13 58 -13 258 0 217 -2 261 -16 280 -18 26 -56 29 -75 5z"/>
<path d="M2140 2148 c-180 -37 -408 -80 -474 -89 -89 -11 -315 -40 -387 -48
-64 -7 -89 -23 -89 -56 0 -54 44 -59 250 -31 69 9 159 21 200 26 41 5 147 23
235 40 88 17 198 38 245 46 105 19 154 41 158 72 4 26 -11 48 -36 54 -9 2 -55
-4 -102 -14z"/>
</g>
</svg>
