<?xml version="1.0" standalone="no"?>
<!DOCTYPE svg PUBLIC "-//W3C//DTD SVG 20010904//EN"
 "http://www.w3.org/TR/2001/REC-SVG-20010904/DTD/svg10.dtd">
<svg version="1.0" xmlns="http://www.w3.org/2000/svg"
 width="248.000000pt" height="248.000000pt" viewBox="0 0 248.000000 248.000000"
 preserveAspectRatio="xMidYMid meet">
<metadata>
Created by potrace 1.10, written by Peter Selinger 2001-2011
</metadata>
<g transform="translate(0.000000,248.000000) scale(0.100000,-0.100000)"
fill="#000000" stroke="none">
<path d="M1520 2259 c-41 -4 -174 -15 -295 -24 -251 -19 -599 -69 -632 -91
-26 -16 -30 -55 -9 -74 40 -32 43 -169 11 -470 -8 -74 -24 -234 -35 -355 -39
-407 -95 -675 -171 -811 -47 -85 -50 -119 -13 -136 37 -17 52 -4 101 88 46 87
71 158 107 315 57 249 120 853 120 1162 1 199 2 208 21 212 73 16 331 47 500
60 110 8 286 22 390 31 142 13 218 14 300 8 l110 -9 3 -50 c2 -27 -4 -124 -12
-215 -9 -91 -18 -282 -22 -425 -6 -256 -2 -346 37 -815 10 -127 7 -359 -6
-380 -3 -5 -54 16 -114 46 -111 55 -147 64 -169 42 -17 -17 -15 -53 6 -70 29
-26 276 -138 303 -138 42 0 61 22 70 81 12 75 11 411 -1 544 -30 322 -39 543
-30 750 5 116 13 251 19 300 16 145 18 392 4 406 -7 7 -36 16 -65 20 -69 10
-432 9 -528 -2z"/>
</g>
</svg>
