<?xml version="1.0" standalone="no"?>
<!DOCTYPE svg PUBLIC "-//W3C//DTD SVG 20010904//EN"
 "http://www.w3.org/TR/2001/REC-SVG-20010904/DTD/svg10.dtd">
<svg version="1.0" xmlns="http://www.w3.org/2000/svg"
 width="248.000000pt" height="248.000000pt" viewBox="0 0 248.000000 248.000000"
 preserveAspectRatio="xMidYMid meet">
<metadata>
Created by potrace 1.10, written by Peter Selinger 2001-2011
</metadata>
<g transform="translate(0.000000,248.000000) scale(0.100000,-0.100000)"
fill="#000000" stroke="none">
<path d="M624 2120 c-32 -12 -35 -34 -17 -103 17 -69 15 -171 -12 -417 -8 -74
-24 -234 -35 -355 -39 -407 -95 -675 -171 -811 -47 -85 -50 -119 -13 -136 37
-17 52 -4 101 88 43 81 66 147 101 289 76 308 160 1283 120 1399 -14 42 -40
58 -74 46z"/>
</g>
</svg>
