<?xml version="1.0" standalone="no"?>
<!DOCTYPE svg PUBLIC "-//W3C//DTD SVG 20010904//EN"
 "http://www.w3.org/TR/2001/REC-SVG-20010904/DTD/svg10.dtd">
<svg version="1.0" xmlns="http://www.w3.org/2000/svg"
 width="248.000000pt" height="248.000000pt" viewBox="0 0 248.000000 248.000000"
 preserveAspectRatio="xMidYMid meet">
<metadata>
Created by potrace 1.10, written by Peter Selinger 2001-2011
</metadata>
<g transform="translate(0.000000,248.000000) scale(0.100000,-0.100000)"
fill="#000000" stroke="none">
<path d="M1520 2259 c-41 -4 -174 -15 -295 -24 -251 -19 -599 -69 -632 -91
-26 -16 -30 -55 -9 -74 40 -32 43 -169 11 -470 -8 -74 -24 -234 -35 -355 -39
-407 -95 -675 -171 -811 -47 -85 -50 -119 -13 -136 37 -17 52 -4 101 88 61
115 117 313 143 511 l13 92 51 5 c28 3 122 11 210 17 87 6 166 12 175 14 9 1
43 4 76 6 l60 4 -1 -100 c-1 -55 -5 -209 -9 -342 -9 -260 -7 -273 40 -273 12
0 27 6 33 13 5 6 12 84 16 172 11 303 25 528 33 536 9 9 170 25 333 33 58 3
156 11 218 18 68 7 116 8 121 2 5 -5 14 -76 20 -159 7 -82 16 -208 22 -280 10
-123 7 -355 -6 -375 -3 -5 -54 16 -114 46 -111 55 -147 64 -169 42 -17 -17
-15 -53 6 -70 29 -26 276 -138 303 -138 42 0 61 22 70 81 12 74 11 411 -1 539
-36 378 -41 696 -15 1005 20 245 24 432 10 452 -7 9 -35 19 -66 24 -70 10
-432 9 -529 -2z m435 -88 l70 -6 3 -40 c3 -38 -13 -273 -24 -342 -4 -29 -8
-32 -52 -37 -26 -3 -99 -8 -162 -11 -63 -3 -135 -7 -160 -10 -80 -8 -143 -14
-229 -21 l-83 -6 5 38 c4 22 9 118 13 214 3 96 11 181 16 188 6 7 35 12 67 13
31 0 110 6 176 13 131 15 251 17 360 7z m-711 -72 c-2 -93 -15 -329 -20 -366
-6 -38 -9 -43 -38 -47 -57 -10 -280 -26 -379 -29 l-99 -2 -1 208 c-2 200 -1
208 18 212 95 20 483 66 510 60 6 -1 10 -17 9 -36z m747 -674 c-2 -121 -5
-223 -7 -226 -2 -3 -54 -9 -116 -12 -62 -3 -192 -11 -288 -17 -96 -6 -195 -12
-220 -13 l-45 -2 0 217 c0 119 2 218 5 221 9 9 569 55 640 53 l35 -1 -4 -220z
m-771 -61 c0 -249 12 -227 -125 -237 -44 -4 -150 -13 -235 -21 -167 -16 -210
-13 -210 13 0 38 40 423 44 430 3 4 88 11 188 16 101 4 212 10 248 14 36 4 71
5 78 3 9 -3 12 -56 12 -218z"/>
</g>
</svg>
