<?xml version="1.0" standalone="no"?>
<!DOCTYPE svg PUBLIC "-//W3C//DTD SVG 20010904//EN"
 "http://www.w3.org/TR/2001/REC-SVG-20010904/DTD/svg10.dtd">
<svg version="1.0" xmlns="http://www.w3.org/2000/svg"
 width="248.000000pt" height="248.000000pt" viewBox="0 0 248.000000 248.000000"
 preserveAspectRatio="xMidYMid meet">
<metadata>
Created by potrace 1.10, written by Peter Selinger 2001-2011
</metadata>
<g transform="translate(0.000000,248.000000) scale(0.100000,-0.100000)"
fill="#000000" stroke="none">
<path d="M1839 2276 c-21 -20 -1005 -126 -1170 -126 -69 0 -89 -10 -89 -45 0
-40 17 -45 160 -45 275 0 1161 104 1207 141 16 14 17 51 1 67 -11 11 -99 17
-109 8z"/>
<path d="M1810 1904 c-101 -5 -273 -26 -505 -59 -126 -19 -295 -41 -375 -50
-229 -25 -292 -35 -308 -47 -14 -12 -13 -29 9 -108 19 -69 14 -266 -10 -435
-42 -289 -138 -513 -317 -747 -47 -60 -54 -87 -28 -112 35 -36 65 -14 156 115
156 220 249 451 285 709 l18 125 50 7 c108 16 539 67 703 84 145 14 179 15
212 4 35 -12 42 -11 59 4 21 19 98 160 111 204 4 15 24 72 44 126 52 143 47
188 -18 184 -17 -1 -56 -3 -86 -4z m15 -104 c3 -5 -13 -63 -37 -127 -49 -137
-77 -173 -133 -173 -53 0 -491 -46 -710 -75 -104 -13 -193 -21 -196 -17 -4 4
-9 64 -11 135 -3 145 -13 132 102 142 119 10 289 32 505 64 110 16 250 35 310
41 100 10 138 15 157 19 4 0 10 -3 13 -9z"/>
<path d="M1645 1075 c-114 -15 -405 -64 -416 -71 -8 -5 -274 -46 -414 -64
-101 -13 -135 -29 -135 -64 0 -39 23 -49 93 -42 132 15 415 57 472 71 90 22
353 64 442 72 110 9 123 15 123 58 0 29 -5 37 -26 45 -14 6 -28 9 -32 9 -4 -1
-52 -7 -107 -14z"/>
</g>
</svg>
