<?xml version="1.0" standalone="no"?>
<!DOCTYPE svg PUBLIC "-//W3C//DTD SVG 20010904//EN"
 "http://www.w3.org/TR/2001/REC-SVG-20010904/DTD/svg10.dtd">
<svg version="1.0" xmlns="http://www.w3.org/2000/svg"
 width="248.000000pt" height="248.000000pt" viewBox="0 0 248.000000 248.000000"
 preserveAspectRatio="xMidYMid meet">
<metadata>
Created by potrace 1.10, written by Peter Selinger 2001-2011
</metadata>
<g transform="translate(0.000000,248.000000) scale(0.100000,-0.100000)"
fill="#000000" stroke="none">
<path d="M1839 2276 c-21 -20 -1005 -126 -1170 -126 -69 0 -89 -10 -89 -45 0
-40 17 -45 160 -45 275 0 1161 104 1207 141 16 14 17 51 1 67 -11 11 -99 17
-109 8z"/>
<path d="M1810 1904 c-101 -5 -273 -26 -505 -59 -126 -19 -295 -41 -375 -50
-309 -33 -320 -36 -320 -80 0 -45 19 -50 168 -36 181 16 324 34 567 70 110 16
247 34 305 40 58 7 120 13 137 16 18 2 35 -1 38 -6 9 -14 -62 -203 -107 -286
-45 -82 -46 -113 -6 -127 22 -8 32 -6 47 8 21 19 97 160 111 204 4 15 24 72
44 126 52 143 47 188 -18 184 -17 -1 -56 -3 -86 -4z"/>
</g>
</svg>
