<?xml version="1.0" standalone="no"?>
<!DOCTYPE svg PUBLIC "-//W3C//DTD SVG 20010904//EN"
 "http://www.w3.org/TR/2001/REC-SVG-20010904/DTD/svg10.dtd">
<svg version="1.0" xmlns="http://www.w3.org/2000/svg"
 width="248.000000pt" height="248.000000pt" viewBox="0 0 248.000000 248.000000"
 preserveAspectRatio="xMidYMid meet">
<metadata>
Created by potrace 1.10, written by Peter Selinger 2001-2011
</metadata>
<g transform="translate(0.000000,248.000000) scale(0.100000,-0.100000)"
fill="#000000" stroke="none">
<path d="M1202 2448 c-9 -9 -12 -92 -12 -314 0 -229 -3 -304 -12 -311 -20 -16
-373 -38 -600 -38 -219 0 -233 -3 -226 -46 6 -48 29 -51 348 -44 162 3 328 8
368 11 88 8 90 3 31 -98 -22 -38 -50 -91 -61 -116 -58 -131 -280 -410 -461
-579 -78 -72 -216 -173 -307 -223 -57 -31 -65 -39 -68 -68 -3 -26 1 -34 23
-44 33 -15 81 7 215 99 150 104 243 187 381 342 140 157 244 301 308 429 23
45 44 82 48 82 3 0 3 -62 0 -137 -9 -192 -10 -1174 -2 -1196 9 -21 52 -34 72
-21 11 7 14 121 18 639 2 347 6 639 8 650 1 11 7 20 12 20 6 0 39 -38 74 -85
103 -137 195 -241 343 -390 152 -152 233 -221 379 -322 169 -118 280 -155 300
-101 11 31 -20 63 -91 93 -30 13 -77 40 -105 60 -27 21 -77 54 -109 76 -113
73 -398 351 -554 539 -55 67 -230 309 -237 328 -10 27 14 39 96 48 46 4 176
15 289 23 251 19 487 52 517 72 27 17 30 55 7 74 -12 11 -52 8 -222 -14 -114
-15 -277 -31 -362 -37 -85 -5 -191 -13 -235 -18 -55 -5 -82 -4 -87 3 -4 6 -8
144 -8 307 0 310 -1 319 -45 319 -12 0 -26 -5 -33 -12z"/>
</g>
</svg>
