<?xml version="1.0" standalone="no"?>
<!DOCTYPE svg PUBLIC "-//W3C//DTD SVG 20010904//EN"
 "http://www.w3.org/TR/2001/REC-SVG-20010904/DTD/svg10.dtd">
<svg version="1.0" xmlns="http://www.w3.org/2000/svg"
 width="248.000000pt" height="248.000000pt" viewBox="0 0 248.000000 248.000000"
 preserveAspectRatio="xMidYMid meet">
<metadata>
Created by potrace 1.10, written by Peter Selinger 2001-2011
</metadata>
<g transform="translate(0.000000,248.000000) scale(0.100000,-0.100000)"
fill="#000000" stroke="none">
<path d="M1202 2448 c-9 -9 -12 -92 -12 -314 0 -229 -3 -304 -12 -311 -20 -16
-373 -38 -600 -38 -219 0 -233 -3 -226 -46 7 -48 28 -51 358 -43 168 3 343 7
390 8 l85 1 -4 -165 c-2 -91 -5 -173 -7 -183 -6 -36 -5 -1143 1 -1160 9 -21
53 -33 74 -20 13 8 15 59 12 425 -3 406 15 1086 29 1109 8 13 81 21 380 43
251 19 487 52 517 72 27 17 30 55 7 74 -12 11 -52 8 -222 -14 -114 -15 -277
-31 -362 -37 -85 -5 -191 -13 -235 -18 -55 -5 -82 -4 -87 3 -4 6 -8 144 -8
307 0 310 -1 319 -45 319 -12 0 -26 -5 -33 -12z"/>
</g>
</svg>
