<?xml version="1.0" standalone="no"?>
<!DOCTYPE svg PUBLIC "-//W3C//DTD SVG 20010904//EN"
 "http://www.w3.org/TR/2001/REC-SVG-20010904/DTD/svg10.dtd">
<svg version="1.0" xmlns="http://www.w3.org/2000/svg"
 width="248.000000pt" height="248.000000pt" viewBox="0 0 248.000000 248.000000"
 preserveAspectRatio="xMidYMid meet">
<metadata>
Created by potrace 1.10, written by Peter Selinger 2001-2011
</metadata>
<g transform="translate(0.000000,248.000000) scale(0.100000,-0.100000)"
fill="#000000" stroke="none">
<path d="M1435 2124 c-317 -12 -805 -88 -861 -135 -17 -14 -18 -51 -3 -66 15
-15 28 -522 29 -1135 1 -572 -1 -558 54 -558 51 0 51 -6 54 574 l2 541 23 6
c12 3 76 9 142 13 66 4 147 11 180 16 33 5 94 11 135 15 41 3 122 10 180 15
142 12 353 23 365 19 6 -2 9 -20 8 -39 -8 -128 -34 -823 -36 -951 -2 -167 3
-189 48 -189 50 0 51 7 69 540 12 344 26 655 30 675 2 11 7 112 11 225 4 113
9 213 11 224 2 10 4 52 5 93 2 87 -7 101 -73 114 -40 7 -204 9 -373 3z m335
-161 c-1 -80 -18 -414 -22 -418 -2 -2 -73 -8 -158 -14 -170 -12 -311 -24 -525
-46 -77 -8 -190 -17 -251 -20 l-111 -6 -7 227 c-4 125 -3 230 1 234 16 15 82
30 218 49 240 34 409 46 678 49 l177 2 0 -57z"/>
</g>
</svg>
