<?xml version="1.0" standalone="no"?>
<!DOCTYPE svg PUBLIC "-//W3C//DTD SVG 20010904//EN"
 "http://www.w3.org/TR/2001/REC-SVG-20010904/DTD/svg10.dtd">
<svg version="1.0" xmlns="http://www.w3.org/2000/svg"
 width="248.000000pt" height="248.000000pt" viewBox="0 0 248.000000 248.000000"
 preserveAspectRatio="xMidYMid meet">
<metadata>
Created by potrace 1.10, written by Peter Selinger 2001-2011
</metadata>
<g transform="translate(0.000000,248.000000) scale(0.100000,-0.100000)"
fill="#000000" stroke="none">
<path d="M1950 1884 c-91 -13 -244 -28 -340 -34 -96 -6 -182 -13 -190 -15 -46
-14 -645 -49 -832 -50 -229 0 -243 -3 -236 -46 6 -43 38 -49 258 -49 203 0
344 7 700 36 102 8 271 21 375 29 239 18 473 51 502 71 25 16 30 53 11 72 -16
16 -51 14 -248 -14z"/>
</g>
</svg>
