<?xml version="1.0" standalone="no"?>
<!DOCTYPE svg PUBLIC "-//W3C//DTD SVG 20010904//EN"
 "http://www.w3.org/TR/2001/REC-SVG-20010904/DTD/svg10.dtd">
<svg version="1.0" xmlns="http://www.w3.org/2000/svg"
 width="248.000000pt" height="248.000000pt" viewBox="0 0 248.000000 248.000000"
 preserveAspectRatio="xMidYMid meet">
<metadata>
Created by potrace 1.10, written by Peter Selinger 2001-2011
</metadata>
<g transform="translate(0.000000,248.000000) scale(0.100000,-0.100000)"
fill="#000000" stroke="none">
<path d="M1435 2124 c-317 -12 -805 -88 -861 -135 -17 -14 -18 -51 -3 -66 15
-15 28 -522 29 -1135 1 -572 -1 -558 54 -558 52 0 51 -7 51 574 0 298 -2 671
-5 830 l-5 289 35 12 c101 35 470 73 788 82 l252 6 0 -46 c0 -58 -18 -480 -25
-562 -8 -111 -36 -819 -38 -976 -2 -167 3 -189 48 -189 50 0 51 7 69 540 12
344 26 655 30 675 2 11 7 112 11 225 4 113 9 213 11 224 2 10 4 52 5 93 2 87
-7 101 -73 114 -40 7 -204 9 -373 3z"/>
</g>
</svg>
