<?xml version="1.0" standalone="no"?>
<!DOCTYPE svg PUBLIC "-//W3C//DTD SVG 20010904//EN"
 "http://www.w3.org/TR/2001/REC-SVG-20010904/DTD/svg10.dtd">
<svg version="1.0" xmlns="http://www.w3.org/2000/svg"
 width="248.000000pt" height="248.000000pt" viewBox="0 0 248.000000 248.000000"
 preserveAspectRatio="xMidYMid meet">
<metadata>
Created by potrace 1.10, written by Peter Selinger 2001-2011
</metadata>
<g transform="translate(0.000000,248.000000) scale(0.100000,-0.100000)"
fill="#000000" stroke="none">
<path d="M1610 2179 c-52 -5 -156 -15 -230 -23 -74 -9 -169 -18 -210 -21 -240
-18 -483 -58 -512 -83 -22 -19 -23 -55 -2 -73 13 -10 31 -11 97 0 192 29 277
40 362 46 50 3 146 12 215 20 69 8 208 22 310 30 125 10 191 20 207 30 25 17
30 54 11 73 -14 14 -101 14 -248 1z"/>
</g>
</svg>
