<?xml version="1.0" standalone="no"?>
<!DOCTYPE svg PUBLIC "-//W3C//DTD SVG 20010904//EN"
 "http://www.w3.org/TR/2001/REC-SVG-20010904/DTD/svg10.dtd">
<svg version="1.0" xmlns="http://www.w3.org/2000/svg"
 width="248.000000pt" height="248.000000pt" viewBox="0 0 248.000000 248.000000"
 preserveAspectRatio="xMidYMid meet">
<metadata>
Created by potrace 1.10, written by Peter Selinger 2001-2011
</metadata>
<g transform="translate(0.000000,248.000000) scale(0.100000,-0.100000)"
fill="#000000" stroke="none">
<path d="M1610 2179 c-52 -5 -156 -15 -230 -23 -74 -9 -169 -18 -210 -21 -240
-18 -483 -58 -512 -83 -22 -19 -23 -55 -2 -73 13 -10 31 -11 97 0 192 29 277
40 362 46 50 3 146 12 215 20 69 8 208 22 310 30 125 10 191 20 207 30 25 17
30 54 11 73 -14 14 -101 14 -248 1z"/>
<path d="M1755 1915 c-5 -2 -73 -9 -150 -15 -487 -37 -934 -79 -963 -91 -34
-14 -41 -46 -27 -124 6 -39 18 -108 24 -155 19 -127 51 -263 68 -281 21 -25
58 -27 215 -12 79 7 213 17 299 22 85 5 166 12 180 16 13 3 111 9 218 14 231
9 230 8 232 120 0 36 5 93 9 126 5 33 14 125 20 204 9 124 8 147 -4 159 -14
14 -100 26 -121 17z m21 -121 c-3 -9 -6 -42 -6 -74 0 -71 22 -64 -265 -85
-115 -9 -282 -22 -370 -30 -233 -21 -392 -28 -398 -18 -2 4 -8 35 -12 69 l-7
61 74 6 c40 4 115 11 166 17 87 9 263 24 607 50 77 6 145 13 150 15 6 2 23 4
39 4 22 1 27 -3 22 -15z m-26 -281 c0 -21 -3 -55 -6 -75 l-7 -38 -76 0 c-42 0
-116 -5 -166 -11 -49 -5 -153 -14 -230 -19 -77 -4 -216 -16 -309 -24 -93 -9
-170 -15 -172 -14 -7 8 -27 129 -21 134 3 4 71 11 149 15 79 5 184 13 233 18
50 6 162 15 250 22 134 9 290 22 343 28 8 1 12 -12 12 -36z"/>
</g>
</svg>
