<?xml version="1.0" standalone="no"?>
<!DOCTYPE svg PUBLIC "-//W3C//DTD SVG 20010904//EN"
 "http://www.w3.org/TR/2001/REC-SVG-20010904/DTD/svg10.dtd">
<svg version="1.0" xmlns="http://www.w3.org/2000/svg"
 width="248.000000pt" height="248.000000pt" viewBox="0 0 248.000000 248.000000"
 preserveAspectRatio="xMidYMid meet">
<metadata>
Created by potrace 1.10, written by Peter Selinger 2001-2011
</metadata>
<g transform="translate(0.000000,248.000000) scale(0.100000,-0.100000)"
fill="#000000" stroke="none">
<path d="M1610 2179 c-52 -5 -156 -15 -230 -23 -74 -9 -169 -18 -210 -21 -240
-18 -483 -58 -512 -83 -22 -19 -23 -55 -2 -73 13 -10 31 -11 97 0 192 29 277
40 362 46 50 3 146 12 215 20 69 8 208 22 310 30 125 10 191 20 207 30 25 17
30 54 11 73 -14 14 -101 14 -248 1z"/>
<path d="M1755 1915 c-5 -2 -73 -9 -150 -15 -487 -37 -934 -79 -963 -91 -34
-14 -41 -46 -27 -124 6 -39 18 -108 24 -155 19 -130 52 -263 69 -282 17 -21
53 -23 70 -6 16 16 15 61 -3 128 -8 30 -15 65 -15 77 0 25 1 26 240 42 85 6
205 16 265 21 61 5 180 14 265 20 85 5 170 13 189 16 l33 5 -6 -93 c-5 -57 -3
-103 3 -120 20 -54 86 -44 95 15 7 54 26 254 37 396 8 114 7 137 -5 149 -14
14 -100 26 -121 17z m21 -121 c-3 -9 -6 -42 -6 -74 0 -71 22 -64 -265 -85
-115 -9 -282 -22 -370 -30 -233 -21 -392 -28 -398 -18 -2 4 -8 35 -12 69 l-7
61 74 6 c40 4 115 11 166 17 87 9 263 24 607 50 77 6 145 13 150 15 6 2 23 4
39 4 22 1 27 -3 22 -15z"/>
</g>
</svg>
