<?xml version="1.0" standalone="no"?>
<!DOCTYPE svg PUBLIC "-//W3C//DTD SVG 20010904//EN"
 "http://www.w3.org/TR/2001/REC-SVG-20010904/DTD/svg10.dtd">
<svg version="1.0" xmlns="http://www.w3.org/2000/svg"
 width="248.000000pt" height="248.000000pt" viewBox="0 0 248.000000 248.000000"
 preserveAspectRatio="xMidYMid meet">
<metadata>
Created by potrace 1.10, written by Peter Selinger 2001-2011
</metadata>
<g transform="translate(0.000000,248.000000) scale(0.100000,-0.100000)"
fill="#000000" stroke="none">
<path d="M1189 2413 c-10 -11 -16 -56 -19 -139 -3 -68 -10 -127 -15 -132 -6
-5 -66 -14 -135 -21 -162 -16 -340 -50 -362 -69 -22 -19 -23 -55 -2 -73 13
-10 31 -11 97 0 157 24 273 39 345 46 l73 6 -3 -83 -3 -83 -260 -25 c-143 -14
-266 -29 -273 -34 -25 -15 -30 -51 -17 -121 6 -39 18 -108 24 -155 19 -127 51
-263 68 -281 21 -25 58 -27 215 -12 79 7 186 15 238 18 52 3 114 7 138 9 l43
4 -3 -112 -3 -111 -50 -2 c-80 -4 -361 -32 -475 -48 -192 -26 -287 -35 -356
-35 -98 0 -205 -18 -226 -37 -21 -19 -24 -56 -4 -72 21 -18 332 4 626 44 112
15 272 31 409 40 l84 6 -6 -212 c-4 -117 -7 -280 -7 -362 l0 -150 -58 62 c-49
52 -64 62 -87 59 -34 -4 -50 -27 -42 -59 8 -31 108 -132 174 -177 60 -40 97
-38 113 4 6 14 10 128 10 253 0 125 3 309 7 409 l6 181 26 6 c39 8 376 35 551
45 179 9 237 21 249 53 11 28 3 55 -18 61 -27 9 -557 -27 -753 -50 l-58 -7 0
112 c0 61 3 111 8 112 4 0 85 4 181 8 208 8 210 10 212 120 0 36 5 93 9 126 5
33 14 125 20 204 9 128 9 147 -5 160 -19 19 -80 20 -275 2 -74 -7 -177 -15
-227 -18 l-93 -6 0 50 c0 28 -3 64 -6 80 l-6 30 99 12 c54 6 179 18 278 26
197 17 229 27 223 72 -5 45 -22 48 -210 34 -173 -13 -309 -27 -360 -37 l-26
-5 5 120 c5 102 3 124 -11 146 -19 29 -57 33 -77 8z m587 -619 c-3 -9 -6 -42
-6 -74 0 -59 0 -59 -32 -65 -34 -5 -401 -35 -437 -35 -19 0 -21 6 -21 73 l0
74 153 13 c83 7 184 16 222 20 117 13 128 12 121 -6z m-606 -108 c0 -68 -2
-74 -22 -79 -44 -11 -400 -29 -408 -20 -4 4 -11 35 -15 69 l-7 61 84 7 c46 5
135 14 198 21 63 6 127 13 143 14 l27 1 0 -74z m580 -173 c0 -21 -3 -55 -6
-75 l-7 -38 -76 0 c-69 0 -135 -6 -307 -25 l-61 -7 -6 68 c-4 37 -5 69 -3 71
2 2 57 8 122 13 156 13 316 27 332 29 8 1 12 -12 12 -36z m-572 -79 c3 -58 1
-62 -22 -68 -27 -7 -368 -38 -372 -34 -7 8 -27 129 -21 134 3 4 73 11 154 15
82 5 157 11 168 13 11 2 36 3 55 2 l35 -1 3 -61z"/>
</g>
</svg>
