<?xml version="1.0" standalone="no"?>
<!DOCTYPE svg PUBLIC "-//W3C//DTD SVG 20010904//EN"
 "http://www.w3.org/TR/2001/REC-SVG-20010904/DTD/svg10.dtd">
<svg version="1.0" xmlns="http://www.w3.org/2000/svg"
 width="248.000000pt" height="248.000000pt" viewBox="0 0 248.000000 248.000000"
 preserveAspectRatio="xMidYMid meet">
<metadata>
Created by potrace 1.10, written by Peter Selinger 2001-2011
</metadata>
<g transform="translate(0.000000,248.000000) scale(0.100000,-0.100000)"
fill="#000000" stroke="none">
<path d="M1940 1924 c-47 -8 -141 -20 -210 -28 -770 -91 -956 -107 -1195 -100
-74 1 -124 -1 -132 -8 -22 -18 -15 -56 13 -74 23 -16 53 -17 307 -11 226 6
342 14 587 42 712 82 756 88 781 111 23 21 24 47 3 68 -18 18 -37 18 -154 0z"/>
</g>
</svg>
