<?xml version="1.0" standalone="no"?>
<!DOCTYPE svg PUBLIC "-//W3C//DTD SVG 20010904//EN"
 "http://www.w3.org/TR/2001/REC-SVG-20010904/DTD/svg10.dtd">
<svg version="1.0" xmlns="http://www.w3.org/2000/svg"
 width="248.000000pt" height="248.000000pt" viewBox="0 0 248.000000 248.000000"
 preserveAspectRatio="xMidYMid meet">
<metadata>
Created by potrace 1.10, written by Peter Selinger 2001-2011
</metadata>
<g transform="translate(0.000000,248.000000) scale(0.100000,-0.100000)"
fill="#000000" stroke="none">
<path d="M1412 2378 c-5 -7 -15 -78 -22 -158 -7 -81 -17 -150 -23 -156 -12
-12 -269 -44 -351 -44 l-46 0 0 163 c0 113 -4 167 -12 175 -16 16 -53 15 -65
0 -6 -7 -13 -87 -17 -178 -4 -90 -9 -166 -12 -169 -2 -3 -73 -7 -157 -9 -84
-2 -158 -9 -164 -14 -17 -14 -17 -53 0 -66 8 -7 73 -13 163 -14 l149 -3 0
-350 c0 -192 4 -356 8 -362 13 -21 54 -15 71 9 11 16 16 46 16 100 0 96 -9 92
198 108 238 19 216 25 208 -52 -9 -94 -9 -102 14 -120 23 -18 57 -13 69 11 13
25 20 133 27 434 4 160 11 280 17 284 11 7 126 27 247 43 47 6 91 16 97 22 16
13 17 50 1 66 -17 17 -114 14 -240 -7 l-107 -17 6 142 c7 154 2 174 -42 174
-12 0 -27 -6 -33 -12z m-36 -453 c7 -27 1 -141 -7 -149 -6 -6 -399 -27 -407
-22 -4 2 -5 39 -2 83 l5 78 155 12 c85 7 162 14 170 17 8 2 30 4 47 5 27 1 34
-3 39 -24z m-6 -317 c0 -35 -4 -68 -8 -74 -4 -6 -56 -14 -117 -18 -60 -4 -148
-11 -195 -15 -47 -4 -88 -6 -92 -4 -12 6 -9 141 3 149 12 7 199 20 327 23 l82
1 0 -62z"/>
</g>
</svg>
