<?xml version="1.0" standalone="no"?>
<!DOCTYPE svg PUBLIC "-//W3C//DTD SVG 20010904//EN"
 "http://www.w3.org/TR/2001/REC-SVG-20010904/DTD/svg10.dtd">
<svg version="1.0" xmlns="http://www.w3.org/2000/svg"
 width="248.000000pt" height="248.000000pt" viewBox="0 0 248.000000 248.000000"
 preserveAspectRatio="xMidYMid meet">
<metadata>
Created by potrace 1.10, written by Peter Selinger 2001-2011
</metadata>
<g transform="translate(0.000000,248.000000) scale(0.100000,-0.100000)"
fill="#000000" stroke="none">
<path d="M1412 2378 c-5 -7 -15 -78 -22 -158 -7 -81 -17 -150 -23 -156 -12
-12 -269 -44 -351 -44 l-46 0 0 163 c0 113 -4 167 -12 175 -16 16 -53 15 -65
0 -6 -7 -13 -87 -17 -178 -4 -90 -9 -166 -12 -169 -2 -3 -73 -7 -157 -9 -84
-2 -158 -9 -164 -14 -17 -14 -17 -53 0 -66 8 -7 73 -13 163 -14 l149 -3 0
-350 c0 -192 4 -356 8 -362 13 -21 54 -15 71 9 13 19 16 64 17 283 1 143 4
298 7 345 l7 85 140 11 c77 7 168 15 201 19 58 7 62 6 69 -14 8 -27 -14 -596
-24 -625 -18 -45 23 -91 66 -75 35 13 40 52 49 447 4 163 11 285 17 289 11 7
126 27 247 43 47 6 91 16 97 22 16 13 17 50 1 66 -17 17 -114 14 -240 -7
l-107 -17 6 142 c7 154 2 174 -42 174 -12 0 -27 -6 -33 -12z"/>
</g>
</svg>
