<?xml version="1.0" standalone="no"?>
<!DOCTYPE svg PUBLIC "-//W3C//DTD SVG 20010904//EN"
 "http://www.w3.org/TR/2001/REC-SVG-20010904/DTD/svg10.dtd">
<svg version="1.0" xmlns="http://www.w3.org/2000/svg"
 width="248.000000pt" height="248.000000pt" viewBox="0 0 248.000000 248.000000"
 preserveAspectRatio="xMidYMid meet">
<metadata>
Created by potrace 1.10, written by Peter Selinger 2001-2011
</metadata>
<g transform="translate(0.000000,248.000000) scale(0.100000,-0.100000)"
fill="#000000" stroke="none">
<path d="M1412 2378 c-5 -7 -15 -78 -22 -158 -7 -81 -17 -150 -23 -156 -12
-12 -269 -44 -351 -44 l-46 0 0 163 c0 113 -4 167 -12 175 -16 16 -53 15 -65
0 -6 -7 -13 -87 -17 -178 -4 -90 -9 -166 -12 -169 -2 -3 -73 -7 -157 -9 -84
-2 -158 -9 -164 -14 -17 -14 -17 -53 0 -66 8 -7 73 -13 163 -14 l149 -3 3
-245 c2 -135 0 -291 -3 -347 l-7 -102 -56 -6 c-32 -4 -122 -16 -201 -27 -79
-11 -158 -17 -176 -14 -58 11 -94 -45 -54 -85 20 -20 28 -21 108 -15 47 3 145
15 216 25 72 11 133 16 138 12 4 -4 -25 -53 -63 -108 -87 -125 -240 -269 -424
-397 -119 -83 -127 -90 -124 -119 4 -36 26 -52 59 -43 45 12 274 185 390 295
115 109 206 225 262 337 31 60 23 58 237 75 l153 13 81 -90 c44 -49 105 -114
136 -144 58 -58 226 -179 345 -247 95 -56 266 -131 326 -145 46 -11 51 -10 72
10 20 21 21 24 7 49 -11 19 -36 33 -95 53 -225 78 -481 243 -640 414 -52 55
-93 101 -92 102 2 3 402 25 501 28 54 2 72 7 82 21 18 24 18 36 0 61 -17 22
-25 22 -364 4 -118 -6 -216 -9 -218 -7 -3 2 0 98 6 213 5 115 10 271 10 346 0
91 4 139 11 144 13 8 122 27 249 44 47 6 91 16 97 22 16 13 17 50 1 66 -17 17
-114 14 -240 -7 l-107 -17 6 142 c7 154 2 174 -42 174 -12 0 -27 -6 -33 -12z
m-36 -453 c7 -27 1 -141 -7 -149 -6 -6 -399 -27 -407 -22 -4 2 -5 39 -2 83 l5
78 155 12 c85 7 162 14 170 17 8 2 30 4 47 5 27 1 34 -3 39 -24z m-6 -317 c0
-35 -4 -68 -8 -74 -4 -6 -56 -14 -117 -18 -60 -4 -148 -11 -195 -15 -47 -4
-88 -6 -92 -4 -12 6 -9 141 3 149 12 7 199 20 327 23 l82 1 0 -62z m-18 -188
c9 0 8 -52 -5 -140 -4 -25 -4 -25 -166 -36 -89 -7 -177 -15 -196 -18 l-35 -7
0 81 c0 99 -9 94 201 110 85 7 156 14 158 16 3 3 11 2 19 -1 7 -3 18 -5 24 -5z"/>
</g>
</svg>
