<?xml version="1.0" standalone="no"?>
<!DOCTYPE svg PUBLIC "-//W3C//DTD SVG 20010904//EN"
 "http://www.w3.org/TR/2001/REC-SVG-20010904/DTD/svg10.dtd">
<svg version="1.0" xmlns="http://www.w3.org/2000/svg"
 width="248.000000pt" height="248.000000pt" viewBox="0 0 248.000000 248.000000"
 preserveAspectRatio="xMidYMid meet">
<metadata>
Created by potrace 1.10, written by Peter Selinger 2001-2011
</metadata>
<g transform="translate(0.000000,248.000000) scale(0.100000,-0.100000)"
fill="#000000" stroke="none">
<path d="M893 2358 c-6 -7 -13 -87 -17 -178 -4 -90 -9 -166 -12 -169 -2 -3
-73 -7 -157 -9 -84 -2 -158 -9 -164 -14 -17 -14 -17 -53 0 -66 8 -7 73 -13
163 -14 l149 -3 0 -350 c0 -192 4 -356 8 -362 13 -21 54 -15 71 9 13 19 16 64
17 283 1 143 4 298 7 345 l7 85 150 12 c83 7 224 23 315 38 91 14 215 32 275
41 118 17 135 24 135 58 0 56 -55 59 -320 16 -214 -33 -434 -60 -502 -60 l-48
0 0 163 c0 113 -4 167 -12 175 -16 16 -53 15 -65 0z"/>
</g>
</svg>
