<?xml version="1.0" standalone="no"?>
<!DOCTYPE svg PUBLIC "-//W3C//DTD SVG 20010904//EN"
 "http://www.w3.org/TR/2001/REC-SVG-20010904/DTD/svg10.dtd">
<svg version="1.0" xmlns="http://www.w3.org/2000/svg"
 width="248.000000pt" height="248.000000pt" viewBox="0 0 248.000000 248.000000"
 preserveAspectRatio="xMidYMid meet">
<metadata>
Created by potrace 1.10, written by Peter Selinger 2001-2011
</metadata>
<g transform="translate(0.000000,248.000000) scale(0.100000,-0.100000)"
fill="#000000" stroke="none">
<path d="M1485 1999 c-345 -24 -438 -32 -640 -54 -281 -32 -301 -35 -322 -50
-21 -16 -21 -63 1 -205 21 -132 43 -337 57 -520 13 -182 24 -257 40 -276 15
-18 53 -18 69 1 16 19 16 37 1 165 -6 58 -18 184 -26 280 -15 170 -37 366 -51
443 -5 28 -3 37 7 37 8 0 111 11 229 24 118 14 316 32 440 40 124 9 293 20
375 26 208 14 315 12 322 -7 7 -19 -32 -251 -62 -368 -12 -49 -35 -146 -50
-215 -15 -69 -36 -165 -47 -215 -31 -140 -31 -150 -14 -164 22 -18 56 -10 78
19 10 14 25 59 32 100 8 41 23 116 34 165 11 50 27 126 37 170 9 44 23 100 30
125 15 48 59 289 70 381 5 46 3 60 -14 80 l-19 24 -229 1 c-125 1 -282 -2
-348 -7z"/>
</g>
</svg>
