<?xml version="1.0" standalone="no"?>
<!DOCTYPE svg PUBLIC "-//W3C//DTD SVG 20010904//EN"
 "http://www.w3.org/TR/2001/REC-SVG-20010904/DTD/svg10.dtd">
<svg version="1.0" xmlns="http://www.w3.org/2000/svg"
 width="248.000000pt" height="248.000000pt" viewBox="0 0 248.000000 248.000000"
 preserveAspectRatio="xMidYMid meet">
<metadata>
Created by potrace 1.10, written by Peter Selinger 2001-2011
</metadata>
<g transform="translate(0.000000,248.000000) scale(0.100000,-0.100000)"
fill="#000000" stroke="none">
<path d="M1386 2351 c-15 -23 -133 -90 -376 -210 -146 -72 -285 -141 -310
-154 -38 -18 -46 -27 -48 -54 -4 -43 24 -59 76 -42 42 13 492 234 597 292 89
50 135 93 135 127 0 14 -5 31 -12 38 -14 14 -54 16 -62 3z"/>
<path d="M1600 1673 c-75 -11 -526 -69 -685 -88 -66 -8 -171 -21 -234 -30 -63
-8 -156 -15 -205 -15 -104 0 -140 -13 -144 -52 -7 -60 82 -72 313 -42 66 9
172 22 235 29 63 7 167 20 230 28 63 9 189 26 280 37 315 40 340 47 340 93 0
43 -37 55 -130 40z"/>
<path d="M1760 1123 c-25 -2 -146 -15 -270 -29 -124 -14 -324 -30 -445 -35
-121 -5 -290 -16 -375 -24 -85 -8 -229 -18 -320 -21 -115 -4 -172 -11 -188
-20 -30 -20 -29 -59 3 -80 23 -15 45 -16 168 -10 78 3 205 13 282 21 77 7 230
16 340 20 110 3 250 12 310 20 61 8 184 21 275 30 338 33 333 32 347 51 40 54
-14 87 -127 77z"/>
</g>
</svg>
