<?xml version="1.0" standalone="no"?>
<!DOCTYPE svg PUBLIC "-//W3C//DTD SVG 20010904//EN"
 "http://www.w3.org/TR/2001/REC-SVG-20010904/DTD/svg10.dtd">
<svg version="1.0" xmlns="http://www.w3.org/2000/svg"
 width="248.000000pt" height="248.000000pt" viewBox="0 0 248.000000 248.000000"
 preserveAspectRatio="xMidYMid meet">
<metadata>
Created by potrace 1.10, written by Peter Selinger 2001-2011
</metadata>
<g transform="translate(0.000000,248.000000) scale(0.100000,-0.100000)"
fill="#000000" stroke="none">
<path d="M1485 1999 c-345 -24 -438 -32 -640 -54 -281 -32 -301 -35 -322 -50
-21 -16 -21 -63 1 -205 21 -132 43 -337 57 -520 18 -253 28 -290 74 -290 48 0
55 27 37 165 -6 50 -14 140 -18 202 l-7 111 79 6 c44 4 147 13 229 22 169 18
375 31 605 40 85 3 189 9 230 14 41 4 79 4 83 0 7 -7 -16 -126 -73 -375 -22
-93 -22 -110 -6 -124 22 -18 56 -10 78 19 10 14 25 59 32 100 8 41 23 116 34
165 11 50 27 126 37 170 9 44 23 100 30 125 15 48 59 289 70 381 5 46 3 60
-14 80 l-19 24 -229 1 c-125 1 -282 -2 -348 -7z m502 -96 c5 -14 -28 -235 -49
-319 l-9 -40 -232 -12 c-361 -19 -548 -32 -722 -49 -346 -34 -324 -35 -325 12
-1 26 -27 239 -36 288 -5 28 -3 37 7 37 8 0 111 11 231 25 119 13 319 31 445
40 125 8 278 19 338 24 61 5 163 9 228 9 96 0 119 -3 124 -15z"/>
</g>
</svg>
