<?xml version="1.0" standalone="no"?>
<!DOCTYPE svg PUBLIC "-//W3C//DTD SVG 20010904//EN"
 "http://www.w3.org/TR/2001/REC-SVG-20010904/DTD/svg10.dtd">
<svg version="1.0" xmlns="http://www.w3.org/2000/svg"
 width="248.000000pt" height="248.000000pt" viewBox="0 0 248.000000 248.000000"
 preserveAspectRatio="xMidYMid meet">
<metadata>
Created by potrace 1.10, written by Peter Selinger 2001-2011
</metadata>
<g transform="translate(0.000000,248.000000) scale(0.100000,-0.100000)"
fill="#000000" stroke="none">
<path d="M846 2308 c-15 -21 -15 -53 0 -124 3 -20 -2 -23 -59 -33 -35 -6 -81
-11 -103 -11 -58 0 -89 -19 -89 -55 0 -21 7 -33 26 -44 23 -13 40 -13 125 -2
55 7 106 15 116 17 12 4 21 -10 38 -63 29 -88 45 -113 73 -113 49 0 60 48 31
134 -9 26 -15 49 -13 50 11 10 350 51 804 98 111 11 145 26 145 63 0 47 -35
57 -147 46 -55 -6 -106 -13 -114 -15 -8 -3 -111 -14 -229 -26 -118 -11 -255
-27 -305 -35 -49 -7 -113 -17 -141 -20 l-52 -7 -7 59 c-3 32 -13 68 -21 81
-19 28 -58 29 -78 0z"/>
</g>
</svg>
