<?xml version="1.0" standalone="no"?>
<!DOCTYPE svg PUBLIC "-//W3C//DTD SVG 20010904//EN"
 "http://www.w3.org/TR/2001/REC-SVG-20010904/DTD/svg10.dtd">
<svg version="1.0" xmlns="http://www.w3.org/2000/svg"
 width="248.000000pt" height="248.000000pt" viewBox="0 0 248.000000 248.000000"
 preserveAspectRatio="xMidYMid meet">
<metadata>
Created by potrace 1.10, written by Peter Selinger 2001-2011
</metadata>
<g transform="translate(0.000000,248.000000) scale(0.100000,-0.100000)"
fill="#000000" stroke="none">
<path d="M1557 2358 c-8 -13 -20 -44 -27 -71 -15 -55 -6 -52 -180 -67 -69 -6
-163 -17 -210 -25 -47 -8 -108 -17 -136 -20 l-52 -7 -7 59 c-8 71 -27 103 -60
103 -48 0 -60 -44 -39 -146 3 -20 -2 -23 -59 -33 -35 -6 -81 -11 -103 -11 -58
0 -89 -19 -89 -55 0 -21 7 -33 26 -44 23 -13 40 -13 125 -2 55 7 106 15 116
17 12 4 21 -10 38 -63 29 -88 45 -113 73 -113 49 0 60 48 31 134 -9 26 -15 49
-13 51 5 4 285 43 369 50 36 4 75 8 88 11 32 6 28 -9 -23 -90 -51 -82 -53 -95
-25 -121 33 -30 68 -10 114 65 22 36 47 85 57 110 20 52 18 51 209 70 125 13
160 27 160 65 0 46 -35 57 -141 46 -52 -6 -111 -13 -133 -17 -36 -7 -38 -6
-31 14 11 36 9 80 -5 97 -19 22 -57 19 -73 -7z"/>
<path d="M1490 1899 c-36 -5 -141 -19 -235 -30 -93 -12 -208 -28 -255 -36 -47
-8 -115 -18 -152 -22 -37 -5 -74 -14 -83 -21 -25 -21 -15 -63 20 -79 30 -15
49 -13 225 19 111 20 297 43 375 47 l80 4 -30 -19 c-16 -10 -69 -48 -117 -83
-47 -35 -105 -77 -127 -92 -49 -34 -51 -49 -14 -120 27 -50 28 -57 28 -212 0
-142 -3 -168 -24 -232 -13 -40 -26 -73 -29 -73 -3 0 -40 34 -83 75 -42 42 -85
75 -96 75 -24 0 -53 -30 -53 -53 0 -23 192 -217 216 -218 66 -4 82 10 122 105
34 81 50 162 60 302 l7 92 100 -68 c154 -105 237 -155 358 -214 117 -57 174
-75 242 -76 46 0 65 13 65 45 0 32 -29 52 -85 61 -99 14 -350 143 -474 242
l-24 19 61 30 c82 42 198 120 228 155 26 32 31 67 12 86 -20 20 -63 14 -89
-14 -48 -52 -274 -184 -315 -184 -13 0 -106 67 -121 86 -10 14 3 27 85 88 53
40 115 84 137 98 54 34 155 142 155 165 0 53 -51 69 -170 52z"/>
<path d="M905 1490 c-22 -5 -105 -11 -185 -15 -163 -8 -193 -18 -188 -63 6
-54 48 -58 323 -36 l70 6 -70 -71 c-86 -88 -243 -202 -322 -234 -49 -19 -59
-27 -61 -51 -4 -36 13 -56 49 -56 39 0 146 49 189 87 19 16 62 48 95 70 67 46
175 154 223 225 21 31 32 59 32 83 0 32 -4 38 -35 51 -37 15 -58 16 -120 4z"/>
</g>
</svg>
