<?xml version="1.0" standalone="no"?>
<!DOCTYPE svg PUBLIC "-//W3C//DTD SVG 20010904//EN"
 "http://www.w3.org/TR/2001/REC-SVG-20010904/DTD/svg10.dtd">
<svg version="1.0" xmlns="http://www.w3.org/2000/svg"
 width="248.000000pt" height="248.000000pt" viewBox="0 0 248.000000 248.000000"
 preserveAspectRatio="xMidYMid meet">
<metadata>
Created by potrace 1.10, written by Peter Selinger 2001-2011
</metadata>
<g transform="translate(0.000000,248.000000) scale(0.100000,-0.100000)"
fill="#000000" stroke="none">
<path d="M1557 2358 c-8 -13 -20 -44 -27 -71 -15 -55 -6 -52 -180 -67 -69 -6
-163 -17 -210 -25 -47 -8 -108 -17 -136 -20 l-52 -7 -7 59 c-8 71 -27 103 -60
103 -48 0 -60 -44 -39 -146 3 -20 -2 -23 -59 -33 -35 -6 -81 -11 -103 -11 -58
0 -89 -19 -89 -55 0 -21 7 -33 26 -44 23 -13 40 -13 125 -2 55 7 106 15 116
17 12 4 21 -10 38 -63 29 -88 45 -113 73 -113 49 0 60 48 31 134 -9 26 -15 49
-13 51 5 4 285 43 369 50 36 4 75 8 88 11 32 6 28 -9 -23 -90 -51 -82 -53 -95
-25 -121 33 -30 68 -10 114 65 22 36 47 85 57 110 20 52 18 51 209 70 125 13
160 27 160 65 0 46 -35 57 -141 46 -52 -6 -111 -13 -133 -17 -36 -7 -38 -6
-31 14 11 36 9 80 -5 97 -19 22 -57 19 -73 -7z"/>
<path d="M1490 1899 c-36 -5 -141 -19 -235 -30 -93 -12 -208 -28 -255 -36 -47
-8 -115 -18 -152 -22 -37 -5 -74 -14 -83 -21 -25 -21 -15 -63 20 -79 30 -15
49 -13 225 19 111 20 297 43 375 47 l80 4 -33 -20 c-18 -12 -61 -43 -95 -69
-34 -27 -81 -61 -105 -75 -50 -32 -57 -67 -17 -93 33 -22 55 -13 160 66 50 37
108 78 130 92 54 34 155 142 155 165 0 53 -51 69 -170 52z"/>
</g>
</svg>
