<?xml version="1.0" standalone="no"?>
<!DOCTYPE svg PUBLIC "-//W3C//DTD SVG 20010904//EN"
 "http://www.w3.org/TR/2001/REC-SVG-20010904/DTD/svg10.dtd">
<svg version="1.0" xmlns="http://www.w3.org/2000/svg"
 width="248.000000pt" height="248.000000pt" viewBox="0 0 248.000000 248.000000"
 preserveAspectRatio="xMidYMid meet">
<metadata>
Created by potrace 1.10, written by Peter Selinger 2001-2011
</metadata>
<g transform="translate(0.000000,248.000000) scale(0.100000,-0.100000)"
fill="#000000" stroke="none">
<path d="M1805 2273 c-22 -1 -65 -7 -95 -13 -30 -5 -147 -19 -260 -30 -113
-11 -250 -27 -305 -35 -90 -14 -245 -32 -452 -55 -80 -8 -103 -21 -103 -56 0
-36 41 -58 98 -51 178 20 416 49 462 57 48 8 323 39 645 72 55 5 110 16 123
24 46 30 12 96 -48 92 -14 -1 -43 -3 -65 -5z"/>
</g>
</svg>
