<?xml version="1.0" standalone="no"?>
<!DOCTYPE svg PUBLIC "-//W3C//DTD SVG 20010904//EN"
 "http://www.w3.org/TR/2001/REC-SVG-20010904/DTD/svg10.dtd">
<svg version="1.0" xmlns="http://www.w3.org/2000/svg"
 width="248.000000pt" height="248.000000pt" viewBox="0 0 248.000000 248.000000"
 preserveAspectRatio="xMidYMid meet">
<metadata>
Created by potrace 1.10, written by Peter Selinger 2001-2011
</metadata>
<g transform="translate(0.000000,248.000000) scale(0.100000,-0.100000)"
fill="#000000" stroke="none">
<path d="M826 2237 c-13 -13 -44 -63 -69 -113 -60 -113 -127 -203 -249 -331
-54 -56 -98 -110 -98 -121 0 -23 30 -52 54 -52 10 0 53 33 95 74 l76 73 105 7
c58 4 132 11 165 16 33 5 110 14 170 20 61 6 175 19 255 30 233 31 404 50 449
50 31 0 48 6 66 25 30 29 31 36 7 66 l-19 22 -194 -22 c-107 -12 -261 -30
-344 -41 -305 -40 -565 -66 -565 -58 0 3 21 36 46 74 25 38 60 96 76 129 17
33 39 71 49 84 24 30 24 46 -1 71 -26 26 -46 25 -74 -3z"/>
<path d="M1990 1473 c-123 -6 -379 -25 -440 -33 -36 -5 -103 -11 -150 -15
-167 -12 -656 -76 -729 -94 -20 -5 -61 -12 -91 -16 -156 -18 -334 -46 -350
-55 -22 -12 -33 -41 -24 -64 11 -28 40 -38 82 -27 20 5 109 19 197 30 89 12
206 30 260 40 235 46 947 118 1247 127 126 4 227 12 240 18 28 14 35 58 13 76
-16 13 -128 19 -255 13z"/>
</g>
</svg>
