<?xml version="1.0" standalone="no"?>
<!DOCTYPE svg PUBLIC "-//W3C//DTD SVG 20010904//EN"
 "http://www.w3.org/TR/2001/REC-SVG-20010904/DTD/svg10.dtd">
<svg version="1.0" xmlns="http://www.w3.org/2000/svg"
 width="248.000000pt" height="248.000000pt" viewBox="0 0 248.000000 248.000000"
 preserveAspectRatio="xMidYMid meet">
<metadata>
Created by potrace 1.10, written by Peter Selinger 2001-2011
</metadata>
<g transform="translate(0.000000,248.000000) scale(0.100000,-0.100000)"
fill="#000000" stroke="none">
<path d="M826 2237 c-13 -13 -44 -63 -69 -113 -60 -113 -127 -203 -249 -331
-54 -56 -98 -110 -98 -121 0 -23 30 -52 54 -52 10 0 53 33 95 74 l76 73 105 7
c58 4 132 11 165 16 33 5 110 14 170 20 61 6 175 19 255 30 233 31 404 50 449
50 31 0 48 6 66 25 30 29 31 36 7 66 l-19 22 -194 -22 c-107 -12 -261 -30
-344 -41 -305 -40 -565 -66 -565 -58 0 3 21 36 46 74 25 38 60 96 76 129 17
33 39 71 49 84 24 30 24 46 -1 71 -26 26 -46 25 -74 -3z"/>
<path d="M1716 1797 c-15 -11 -18 -32 -21 -132 -2 -66 -7 -141 -10 -166 l-6
-46 -132 -13 c-73 -7 -136 -13 -142 -14 -11 -1 -11 19 0 190 7 116 6 123 -14
143 -26 26 -45 27 -70 2 -16 -16 -19 -35 -21 -118 -1 -54 -4 -127 -8 -163 l-7
-65 -105 -12 c-58 -6 -121 -14 -141 -17 l-37 -6 5 164 c6 157 5 164 -16 185
-25 25 -40 26 -67 7 -15 -11 -19 -27 -19 -73 -2 -279 -4 -292 -27 -297 -56
-12 -213 -35 -216 -32 -1 2 -6 71 -10 154 -8 162 -16 185 -61 180 -43 -5 -52
-38 -46 -168 3 -63 8 -126 11 -140 2 -14 1 -30 -4 -36 -4 -7 -74 -21 -155 -33
-158 -22 -182 -30 -192 -61 -11 -36 35 -84 64 -65 11 6 283 46 288 42 1 -2 6
-70 11 -153 8 -158 7 -164 -38 -164 -56 0 -92 -59 -55 -90 17 -14 44 -13 330
19 202 22 504 46 795 61 210 12 240 20 240 65 0 29 -34 55 -72 55 -27 0 -28 0
-22 53 3 28 11 108 17 177 l12 125 95 6 c52 4 151 7 220 8 138 1 170 12 170
56 0 48 -29 55 -205 50 -88 -3 -184 -7 -213 -11 l-53 -6 7 155 c7 149 6 155
-15 176 -24 24 -40 26 -65 8z m-46 -464 c-1 -37 -30 -307 -35 -324 -8 -24 -22
-27 -154 -31 l-114 -3 2 70 c2 70 20 267 25 273 3 2 218 28 259 31 10 1 17 -6
17 -16z m-394 -110 c-7 -91 -13 -147 -22 -220 l-5 -41 -77 -6 c-42 -4 -103 -9
-136 -12 l-59 -5 7 88 c3 48 7 120 7 160 1 39 5 76 8 82 5 8 184 36 260 40
l24 1 -7 -87z m-386 5 c-1 -84 -20 -282 -27 -289 -10 -10 -172 -34 -179 -26
-2 2 -7 74 -11 159 l-6 155 84 15 c132 25 139 24 139 -14z"/>
<path d="M1792 738 c-27 -27 -13 -56 56 -109 37 -29 90 -74 117 -99 76 -70
161 -123 185 -115 25 8 43 40 35 64 -3 9 -33 39 -68 64 -34 26 -89 70 -122 98
-127 108 -171 129 -203 97z"/>
<path d="M1372 688 c-18 -18 -15 -49 7 -72 10 -12 46 -63 78 -115 68 -109 81
-120 117 -103 40 18 33 54 -29 158 -76 127 -134 171 -173 132z"/>
<path d="M558 638 c-19 -24 -42 -56 -52 -71 -9 -16 -49 -61 -87 -101 -69 -74
-84 -107 -57 -134 25 -25 55 -11 125 58 80 78 173 210 173 244 0 59 -56 61
-102 4z"/>
<path d="M932 668 c-15 -15 -16 -64 -2 -73 6 -4 35 -56 65 -115 55 -110 79
-136 115 -125 41 13 36 51 -21 168 -30 60 -64 120 -76 133 -24 26 -62 31 -81
12z"/>
</g>
</svg>
