<?xml version="1.0" standalone="no"?>
<!DOCTYPE svg PUBLIC "-//W3C//DTD SVG 20010904//EN"
 "http://www.w3.org/TR/2001/REC-SVG-20010904/DTD/svg10.dtd">
<svg version="1.0" xmlns="http://www.w3.org/2000/svg"
 width="248.000000pt" height="248.000000pt" viewBox="0 0 248.000000 248.000000"
 preserveAspectRatio="xMidYMid meet">
<metadata>
Created by potrace 1.10, written by Peter Selinger 2001-2011
</metadata>
<g transform="translate(0.000000,248.000000) scale(0.100000,-0.100000)"
fill="#000000" stroke="none">
<path d="M826 2237 c-13 -13 -44 -63 -69 -113 -60 -113 -127 -203 -249 -331
-54 -56 -98 -110 -98 -121 0 -23 30 -52 54 -52 10 0 53 33 95 74 l76 73 105 7
c58 4 132 11 165 16 33 5 110 14 170 20 61 6 175 19 255 30 233 31 404 50 449
50 31 0 48 6 66 25 30 29 31 36 7 66 l-19 22 -194 -22 c-107 -12 -261 -30
-344 -41 -305 -40 -565 -66 -565 -58 0 3 21 36 46 74 25 38 60 96 76 129 17
33 39 71 49 84 24 30 24 46 -1 71 -26 26 -46 25 -74 -3z"/>
<path d="M1716 1797 c-15 -11 -18 -32 -21 -132 -2 -66 -7 -141 -10 -166 l-6
-46 -132 -13 c-73 -7 -136 -13 -142 -14 -11 -1 -11 19 0 190 7 116 6 123 -14
143 -26 26 -45 27 -70 2 -16 -16 -19 -35 -21 -118 -1 -54 -4 -127 -8 -163 l-7
-65 -105 -12 c-58 -6 -121 -14 -141 -17 l-37 -6 5 164 c6 157 5 164 -16 185
-25 25 -40 26 -67 7 -15 -11 -19 -27 -19 -73 -2 -279 -4 -292 -27 -297 -56
-12 -213 -35 -216 -32 -1 2 -6 71 -10 154 -8 162 -16 185 -61 180 -43 -5 -52
-38 -46 -168 3 -63 8 -126 11 -140 2 -14 1 -30 -4 -36 -4 -7 -74 -21 -155 -33
-158 -22 -182 -30 -192 -61 -11 -36 35 -84 64 -65 11 6 283 46 288 42 1 -2 5
-59 8 -127 3 -69 8 -139 11 -156 6 -39 40 -58 75 -40 l24 12 -4 165 -3 166
106 18 c58 10 109 16 112 12 3 -3 1 -79 -5 -168 -12 -173 -9 -189 34 -189 52
0 72 71 76 261 1 53 4 101 8 107 4 7 232 42 277 42 6 0 0 -133 -10 -205 -22
-158 -15 -181 57 -176 26 2 47 60 47 131 0 55 18 252 24 257 5 5 270 32 274
29 7 -7 -26 -310 -39 -358 -11 -40 -10 -49 4 -72 22 -33 61 -35 81 -3 16 26
32 128 49 312 l12 130 95 6 c52 4 151 7 220 8 138 1 170 12 170 56 0 48 -29
55 -205 50 -88 -3 -184 -7 -213 -11 l-53 -6 7 155 c7 149 6 155 -15 176 -24
24 -40 26 -65 8z"/>
</g>
</svg>
