<?xml version="1.0" standalone="no"?>
<!DOCTYPE svg PUBLIC "-//W3C//DTD SVG 20010904//EN"
 "http://www.w3.org/TR/2001/REC-SVG-20010904/DTD/svg10.dtd">
<svg version="1.0" xmlns="http://www.w3.org/2000/svg"
 width="248.000000pt" height="248.000000pt" viewBox="0 0 248.000000 248.000000"
 preserveAspectRatio="xMidYMid meet">
<metadata>
Created by potrace 1.10, written by Peter Selinger 2001-2011
</metadata>
<g transform="translate(0.000000,248.000000) scale(0.100000,-0.100000)"
fill="#000000" stroke="none">
<path d="M826 2237 c-13 -13 -44 -63 -69 -113 -60 -113 -127 -203 -249 -331
-54 -56 -98 -110 -98 -121 0 -23 30 -52 54 -52 10 0 53 33 95 74 l76 73 105 7
c58 4 132 11 165 16 33 5 110 14 170 20 61 6 175 19 255 30 233 31 404 50 449
50 31 0 48 6 66 25 30 29 31 36 7 66 l-19 22 -194 -22 c-107 -12 -261 -30
-344 -41 -305 -40 -565 -66 -565 -58 0 3 21 36 46 74 25 38 60 96 76 129 17
33 39 71 49 84 24 30 24 46 -1 71 -26 26 -46 25 -74 -3z"/>
<path d="M1321 1761 c-16 -16 -19 -35 -21 -118 -1 -54 -4 -127 -8 -163 l-7
-65 -105 -12 c-58 -6 -121 -14 -141 -17 l-37 -6 5 164 c6 157 5 164 -16 185
-25 25 -40 26 -67 7 -15 -11 -19 -27 -19 -73 -2 -279 -4 -292 -27 -297 -56
-12 -213 -35 -216 -32 -1 2 -6 71 -10 154 -8 162 -16 185 -61 180 -43 -5 -52
-38 -46 -168 3 -63 8 -126 11 -140 2 -14 1 -30 -4 -36 -4 -7 -74 -21 -155 -33
-158 -22 -182 -30 -192 -61 -11 -36 35 -84 64 -65 11 6 283 46 288 42 1 -2 5
-59 8 -127 3 -69 8 -139 11 -156 6 -39 40 -58 75 -40 l24 12 -4 165 -3 166
106 18 c58 10 109 16 112 12 3 -3 1 -79 -5 -168 -12 -173 -9 -189 34 -189 52
0 72 71 76 261 1 53 4 101 8 107 4 7 232 42 277 42 6 0 0 -133 -10 -205 -22
-158 -15 -181 57 -176 26 2 47 60 47 131 0 57 18 252 24 258 11 10 412 42 596
48 243 7 270 13 270 59 0 47 -30 55 -195 50 -176 -6 -395 -21 -550 -39 -60 -7
-113 -10 -117 -6 -5 3 -4 51 2 105 15 158 13 202 -10 225 -25 25 -45 25 -69 1z"/>
</g>
</svg>
