<?xml version="1.0" standalone="no"?>
<!DOCTYPE svg PUBLIC "-//W3C//DTD SVG 20010904//EN"
 "http://www.w3.org/TR/2001/REC-SVG-20010904/DTD/svg10.dtd">
<svg version="1.0" xmlns="http://www.w3.org/2000/svg"
 width="248.000000pt" height="248.000000pt" viewBox="0 0 248.000000 248.000000"
 preserveAspectRatio="xMidYMid meet">
<metadata>
Created by potrace 1.10, written by Peter Selinger 2001-2011
</metadata>
<g transform="translate(0.000000,248.000000) scale(0.100000,-0.100000)"
fill="#000000" stroke="none">
<path d="M826 2237 c-13 -13 -44 -63 -69 -113 -60 -113 -127 -203 -249 -331
-54 -56 -98 -110 -98 -121 0 -29 35 -55 64 -48 31 8 194 180 268 283 31 43 75
114 99 158 23 44 51 91 61 104 23 30 23 46 -2 71 -26 26 -46 25 -74 -3z"/>
</g>
</svg>
