<?xml version="1.0" standalone="no"?>
<!DOCTYPE svg PUBLIC "-//W3C//DTD SVG 20010904//EN"
 "http://www.w3.org/TR/2001/REC-SVG-20010904/DTD/svg10.dtd">
<svg version="1.0" xmlns="http://www.w3.org/2000/svg"
 width="248.000000pt" height="248.000000pt" viewBox="0 0 248.000000 248.000000"
 preserveAspectRatio="xMidYMid meet">
<metadata>
Created by potrace 1.10, written by Peter Selinger 2001-2011
</metadata>
<g transform="translate(0.000000,248.000000) scale(0.100000,-0.100000)"
fill="#000000" stroke="none">
<path d="M1236 2378 c-13 -18 -16 -50 -16 -154 0 -72 -3 -158 -6 -191 l-7 -61
-106 -12 c-58 -6 -181 -17 -273 -24 -105 -8 -173 -17 -182 -25 -24 -20 -20
-58 9 -77 23 -15 40 -15 173 -5 81 7 200 18 265 24 l117 13 0 -116 0 -116
-122 -12 c-68 -7 -161 -15 -208 -18 -100 -7 -133 -23 -128 -62 5 -46 40 -55
171 -42 61 7 149 14 195 17 l82 6 0 -112 0 -111 -37 0 c-20 0 -80 -7 -133 -15
-178 -28 -444 -57 -593 -65 -162 -9 -197 -20 -197 -65 0 -46 30 -53 175 -45
132 8 393 37 585 65 58 9 141 20 185 25 44 5 136 16 205 24 302 38 506 58 658
66 177 9 212 19 212 64 0 42 -22 49 -143 47 -62 -1 -146 -6 -187 -11 -41 -5
-140 -16 -220 -25 -217 -22 -321 -34 -362 -40 l-38 -5 0 108 0 108 83 13 c45
7 120 17 167 21 68 7 88 13 103 31 21 27 22 43 0 65 -15 14 -30 16 -103 11
-48 -4 -119 -13 -159 -22 -40 -8 -74 -15 -77 -15 -2 0 -4 51 -4 113 l0 114
193 22 c105 12 217 24 247 27 72 8 102 27 98 62 -5 48 -34 52 -208 31 -85 -10
-194 -21 -242 -25 l-87 -7 5 184 c6 203 0 231 -48 237 -18 2 -31 -4 -42 -20z"/>
</g>
</svg>
