<?xml version="1.0" standalone="no"?>
<!DOCTYPE svg PUBLIC "-//W3C//DTD SVG 20010904//EN"
 "http://www.w3.org/TR/2001/REC-SVG-20010904/DTD/svg10.dtd">
<svg version="1.0" xmlns="http://www.w3.org/2000/svg"
 width="248.000000pt" height="248.000000pt" viewBox="0 0 248.000000 248.000000"
 preserveAspectRatio="xMidYMid meet">
<metadata>
Created by potrace 1.10, written by Peter Selinger 2001-2011
</metadata>
<g transform="translate(0.000000,248.000000) scale(0.100000,-0.100000)"
fill="#000000" stroke="none">
<path d="M1645 2009 c-82 -10 -222 -23 -310 -29 -88 -5 -198 -15 -245 -21 -47
-5 -162 -16 -257 -23 -109 -8 -178 -17 -187 -25 -24 -20 -20 -58 9 -77 23 -15
40 -15 168 -5 78 6 203 18 277 26 74 8 165 15 201 15 36 0 115 7 176 15 61 8
162 19 224 25 123 12 159 27 159 64 0 52 -32 58 -215 35z"/>
</g>
</svg>
