<?xml version="1.0" standalone="no"?>
<!DOCTYPE svg PUBLIC "-//W3C//DTD SVG 20010904//EN"
 "http://www.w3.org/TR/2001/REC-SVG-20010904/DTD/svg10.dtd">
<svg version="1.0" xmlns="http://www.w3.org/2000/svg"
 width="248.000000pt" height="248.000000pt" viewBox="0 0 248.000000 248.000000"
 preserveAspectRatio="xMidYMid meet">
<metadata>
Created by potrace 1.10, written by Peter Selinger 2001-2011
</metadata>
<g transform="translate(0.000000,248.000000) scale(0.100000,-0.100000)"
fill="#000000" stroke="none">
<path d="M1571 2356 c-6 -7 -23 -96 -38 -197 -15 -101 -31 -187 -36 -190 -5
-4 -53 -10 -106 -13 -53 -4 -123 -9 -156 -11 -33 -2 -100 -7 -150 -10 -49 -4
-97 -8 -106 -11 -20 -6 -26 22 -34 161 -12 206 -22 245 -69 245 -45 0 -50 -19
-38 -153 6 -67 14 -154 16 -194 l5 -72 -57 -7 c-31 -4 -113 -4 -182 0 -134 6
-150 2 -150 -40 0 -43 22 -49 214 -54 l181 -5 6 -150 c9 -221 16 -262 45 -281
22 -15 26 -15 50 1 25 16 26 21 20 69 -12 108 -26 340 -21 357 3 9 12 20 21
23 20 8 495 38 501 32 3 -3 -2 -45 -11 -93 -9 -48 -23 -151 -31 -228 -16 -139
-16 -140 5 -157 15 -12 28 -15 43 -9 25 10 40 63 57 206 11 88 18 134 40 247
l11 57 57 6 c136 15 318 48 331 60 35 33 1 103 -44 90 -26 -7 -216 -41 -277
-49 -26 -3 -50 -2 -53 3 -3 5 4 68 15 141 23 152 25 211 8 228 -16 16 -53 15
-67 -2z"/>
</g>
</svg>
