<?xml version="1.0" standalone="no"?>
<!DOCTYPE svg PUBLIC "-//W3C//DTD SVG 20010904//EN"
 "http://www.w3.org/TR/2001/REC-SVG-20010904/DTD/svg10.dtd">
<svg version="1.0" xmlns="http://www.w3.org/2000/svg"
 width="248.000000pt" height="248.000000pt" viewBox="0 0 248.000000 248.000000"
 preserveAspectRatio="xMidYMid meet">
<metadata>
Created by potrace 1.10, written by Peter Selinger 2001-2011
</metadata>
<g transform="translate(0.000000,248.000000) scale(0.100000,-0.100000)"
fill="#000000" stroke="none">
<path d="M1571 2356 c-6 -7 -23 -96 -38 -197 -15 -101 -31 -187 -36 -190 -5
-4 -53 -10 -106 -13 -53 -4 -123 -9 -156 -11 -33 -2 -100 -7 -150 -10 -49 -4
-97 -8 -106 -11 -20 -6 -26 22 -34 161 -12 206 -22 245 -69 245 -45 0 -50 -19
-38 -153 6 -67 14 -154 16 -194 l5 -72 -57 -7 c-31 -4 -113 -4 -182 0 -134 6
-150 2 -150 -40 0 -43 22 -49 214 -54 l181 -5 6 -155 c7 -153 14 -236 25 -264
4 -10 -8 -16 -48 -20 -29 -4 -84 -11 -123 -16 -38 -6 -128 -17 -200 -26 -71
-9 -155 -22 -186 -30 -31 -8 -72 -14 -91 -14 -63 0 -103 -57 -63 -90 16 -14
127 -7 197 11 49 13 371 53 628 78 483 48 1134 63 1312 30 78 -14 101 -4 96
40 -2 19 -14 31 -43 46 -38 19 -63 20 -447 23 l-406 3 9 32 c5 18 14 73 19
122 11 88 18 133 40 247 l11 57 57 6 c136 15 318 48 331 60 35 33 1 103 -44
90 -26 -7 -216 -41 -277 -49 -26 -3 -50 -2 -53 3 -3 5 4 68 15 141 23 152 25
211 8 228 -16 16 -53 15 -67 -2z m-81 -505 c0 -5 -9 -60 -19 -123 -11 -62 -23
-152 -27 -200 -4 -49 -12 -94 -18 -102 -8 -11 -55 -18 -176 -26 -91 -6 -187
-13 -215 -16 l-50 -6 0 43 c-1 24 -6 117 -13 205 -7 89 -9 169 -6 178 9 23 25
25 244 40 250 17 280 18 280 7z"/>
</g>
</svg>
