<?xml version="1.0" standalone="no"?>
<!DOCTYPE svg PUBLIC "-//W3C//DTD SVG 20010904//EN"
 "http://www.w3.org/TR/2001/REC-SVG-20010904/DTD/svg10.dtd">
<svg version="1.0" xmlns="http://www.w3.org/2000/svg"
 width="248.000000pt" height="248.000000pt" viewBox="0 0 248.000000 248.000000"
 preserveAspectRatio="xMidYMid meet">
<metadata>
Created by potrace 1.10, written by Peter Selinger 2001-2011
</metadata>
<g transform="translate(0.000000,248.000000) scale(0.100000,-0.100000)"
fill="#000000" stroke="none">
<path d="M1206 2258 c-13 -19 -16 -58 -16 -224 l0 -201 -31 -7 c-17 -3 -68 -6
-113 -6 -81 0 -400 -23 -550 -39 -92 -10 -110 -25 -101 -81 3 -19 10 -84 15
-145 15 -159 44 -405 56 -457 3 -15 20 -39 37 -54 28 -23 37 -26 87 -20 30 3
141 10 245 16 105 5 223 12 264 15 l74 6 -8 -268 c-6 -232 -5 -274 8 -306 13
-31 21 -37 45 -37 16 0 34 6 39 13 6 7 13 137 17 302 4 159 9 291 10 293 7 7
190 23 399 35 253 15 248 13 271 117 8 36 30 133 50 215 37 158 60 333 50 384
-11 54 -19 56 -228 53 -105 -2 -254 -7 -331 -12 -77 -6 -152 -10 -167 -10
l-28 0 0 198 c0 215 -6 242 -55 242 -13 0 -31 -10 -39 -22z m738 -575 c-6 -79
-33 -212 -75 -379 l-23 -92 -81 -6 c-44 -4 -150 -11 -235 -16 -85 -6 -176 -13
-202 -16 l-47 -6 5 248 c7 339 -1 310 87 319 39 4 173 11 297 15 124 4 238 7
253 8 l28 2 -7 -77z m-761 -165 c-2 -112 -6 -236 -9 -276 -5 -64 -8 -73 -27
-76 -12 -3 -123 -10 -247 -16 -124 -6 -250 -14 -281 -17 l-56 -6 -6 64 c-4 35
-11 98 -16 139 -21 158 -34 331 -25 340 10 10 334 37 499 43 50 2 108 4 131 5
l40 2 -3 -202z"/>
</g>
</svg>
