<?xml version="1.0" standalone="no"?>
<!DOCTYPE svg PUBLIC "-//W3C//DTD SVG 20010904//EN"
 "http://www.w3.org/TR/2001/REC-SVG-20010904/DTD/svg10.dtd">
<svg version="1.0" xmlns="http://www.w3.org/2000/svg"
 width="248.000000pt" height="248.000000pt" viewBox="0 0 248.000000 248.000000"
 preserveAspectRatio="xMidYMid meet">
<metadata>
Created by potrace 1.10, written by Peter Selinger 2001-2011
</metadata>
<g transform="translate(0.000000,248.000000) scale(0.100000,-0.100000)"
fill="#000000" stroke="none">
<path d="M1710 1860 c-124 -5 -288 -13 -365 -19 -77 -6 -224 -16 -327 -21
-193 -10 -383 -24 -522 -39 -92 -10 -110 -25 -101 -81 3 -19 10 -84 15 -145
15 -159 44 -405 56 -457 3 -15 20 -39 37 -54 27 -23 37 -26 82 -21 27 4 187
13 355 22 168 8 355 20 415 25 61 6 208 16 328 23 253 15 248 13 271 117 8 36
30 133 50 215 53 227 66 396 31 425 -20 16 -86 18 -325 10z m234 -177 c-6 -79
-33 -211 -75 -380 l-23 -91 -86 -7 c-126 -9 -325 -22 -715 -44 -192 -11 -380
-23 -416 -27 l-66 -6 -6 63 c-4 35 -11 98 -16 139 -22 160 -34 331 -24 341 5
5 105 15 223 23 601 41 752 50 945 56 116 4 223 7 238 8 l28 2 -7 -77z"/>
</g>
</svg>
