<?xml version="1.0" standalone="no"?>
<!DOCTYPE svg PUBLIC "-//W3C//DTD SVG 20010904//EN"
 "http://www.w3.org/TR/2001/REC-SVG-20010904/DTD/svg10.dtd">
<svg version="1.0" xmlns="http://www.w3.org/2000/svg"
 width="248.000000pt" height="248.000000pt" viewBox="0 0 248.000000 248.000000"
 preserveAspectRatio="xMidYMid meet">
<metadata>
Created by potrace 1.10, written by Peter Selinger 2001-2011
</metadata>
<g transform="translate(0.000000,248.000000) scale(0.100000,-0.100000)"
fill="#000000" stroke="none">
<path d="M1646 2308 c-13 -18 -16 -54 -16 -200 l0 -177 -57 -6 c-32 -4 -103
-13 -158 -21 -249 -35 -239 -25 -243 -217 -1 -78 -9 -335 -18 -572 -28 -772
-29 -940 -10 -970 22 -33 57 -32 98 3 18 15 60 48 93 72 127 94 165 130 165
159 0 65 -46 67 -125 3 -33 -26 -78 -60 -99 -76 l-39 -30 7 250 c11 391 23
664 27 669 3 2 70 11 149 20 80 8 179 21 220 29 41 8 118 17 170 20 52 4 126
12 163 17 98 16 93 6 131 299 9 63 20 155 27 203 6 48 8 108 4 133 -9 64 -41
77 -156 63 -46 -5 -119 -13 -161 -17 l-78 -8 0 161 c0 108 -4 168 -13 185 -17
34 -60 39 -81 8z m383 -470 c-1 -24 -6 -72 -13 -108 l-11 -65 -40 -3 c-22 -1
-92 -9 -155 -17 -63 -8 -151 -17 -195 -20 -44 -3 -111 -10 -150 -15 -38 -5
-96 -11 -127 -14 l-58 -5 0 93 0 94 28 5 c15 3 70 10 122 17 52 7 149 20 215
30 66 10 167 24 225 30 58 6 112 13 120 15 38 7 40 5 39 -37z m-44 -360 c-4
-46 -9 -86 -11 -89 -2 -3 -50 -9 -108 -13 -57 -4 -146 -14 -198 -22 -105 -17
-329 -43 -370 -44 -26 0 -28 3 -28 38 0 20 3 60 6 88 l7 52 76 5 c105 7 371
34 456 47 39 6 88 12 110 13 22 2 46 4 54 5 10 2 12 -14 6 -80z"/>
<path d="M523 2058 c-6 -7 -13 -33 -16 -58 -27 -195 -94 -501 -114 -521 -6 -6
-75 -26 -154 -45 -79 -20 -150 -40 -157 -46 -21 -18 -10 -61 18 -75 21 -10 45
-8 139 13 62 14 114 24 116 22 5 -5 -45 -143 -85 -238 -104 -242 -118 -293
-87 -318 6 -5 37 -15 67 -21 52 -11 91 -28 210 -94 l51 -28 -23 -32 c-12 -18
-51 -62 -85 -99 -35 -37 -63 -76 -63 -86 0 -23 30 -52 53 -52 23 0 86 59 149
137 33 42 56 62 65 58 17 -6 43 -25 144 -108 72 -58 111 -71 137 -45 26 26 13
56 -50 111 -35 29 -84 68 -109 85 -74 50 -76 54 -40 109 81 122 205 404 240
548 36 145 61 238 65 242 2 3 24 9 48 14 51 12 78 34 78 64 0 36 -24 48 -78
41 -41 -5 -49 -3 -60 15 -20 31 -63 22 -82 -18 -17 -35 -35 -42 -235 -88 -60
-14 -119 -29 -129 -32 -16 -4 -18 -2 -12 18 23 86 86 430 86 475 0 50 -60 86
-87 52z m331 -654 c-8 -32 -20 -75 -25 -95 -19 -81 -73 -229 -114 -317 -55
-116 -135 -252 -149 -252 -6 0 -29 11 -51 25 -69 41 -148 82 -187 94 -21 7
-38 17 -38 23 0 5 16 46 36 91 40 92 88 214 129 332 16 44 30 82 32 85 2 2 88
25 191 51 128 31 188 42 190 34 1 -6 -5 -38 -14 -71z"/>
</g>
</svg>
