<?xml version="1.0" standalone="no"?>
<!DOCTYPE svg PUBLIC "-//W3C//DTD SVG 20010904//EN"
 "http://www.w3.org/TR/2001/REC-SVG-20010904/DTD/svg10.dtd">
<svg version="1.0" xmlns="http://www.w3.org/2000/svg"
 width="248.000000pt" height="248.000000pt" viewBox="0 0 248.000000 248.000000"
 preserveAspectRatio="xMidYMid meet">
<metadata>
Created by potrace 1.10, written by Peter Selinger 2001-2011
</metadata>
<g transform="translate(0.000000,248.000000) scale(0.100000,-0.100000)"
fill="#000000" stroke="none">
<path d="M624 2128 c-187 -209 -348 -371 -405 -409 -77 -52 -79 -96 -7 -128
24 -11 95 -43 158 -72 63 -28 117 -53 119 -55 8 -7 -215 -247 -308 -329 -103
-92 -118 -118 -86 -145 23 -19 65 -15 146 15 94 33 279 79 287 70 7 -7 4 -790
-3 -847 -2 -18 -7 -56 -11 -84 -5 -40 -3 -54 11 -67 22 -23 48 -21 71 4 17 19
20 44 26 248 3 124 7 351 8 503 l1 276 77 27 c42 15 101 36 130 47 29 11 56
18 59 15 3 -3 31 -57 62 -119 44 -89 61 -114 79 -116 61 -9 67 48 16 151 -61
122 -186 327 -212 348 -28 22 -62 25 -80 7 -15 -15 -16 -55 -1 -64 12 -7 82
-114 77 -118 -23 -17 -438 -136 -475 -136 -8 0 5 20 30 48 25 26 70 77 101
114 31 37 65 73 75 80 36 25 344 353 387 411 45 60 54 93 32 115 -25 25 -56
13 -99 -40 -49 -59 -307 -331 -319 -336 -6 -2 -238 103 -249 114 -2 2 60 67
137 146 190 194 351 377 359 407 8 32 -8 55 -39 59 -21 3 -46 -20 -154 -140z"/>
<path d="M2185 1883 c-225 -10 -559 -37 -895 -73 -52 -6 -109 -10 -125 -10
-36 0 -55 -16 -55 -45 0 -12 5 -26 12 -33 21 -21 166 -14 538 24 176 18 560
44 645 44 65 0 85 11 85 45 0 39 -31 56 -96 53 -33 -2 -81 -4 -109 -5z"/>
<path d="M702 968 c-20 -20 -13 -53 18 -83 17 -16 55 -74 87 -129 31 -56 61
-110 68 -121 7 -11 17 -37 24 -57 17 -51 48 -88 76 -88 33 0 48 24 41 62 -7
37 -82 190 -147 298 -64 108 -130 155 -167 118z"/>
<path d="M366 908 c-8 -13 -26 -51 -40 -86 -37 -87 -156 -275 -224 -351 -31
-35 -62 -73 -68 -84 -25 -44 17 -85 63 -64 85 39 353 463 353 559 0 49 -58 66
-84 26z"/>
</g>
</svg>
