<?xml version="1.0" standalone="no"?>
<!DOCTYPE svg PUBLIC "-//W3C//DTD SVG 20010904//EN"
 "http://www.w3.org/TR/2001/REC-SVG-20010904/DTD/svg10.dtd">
<svg version="1.0" xmlns="http://www.w3.org/2000/svg"
 width="248.000000pt" height="248.000000pt" viewBox="0 0 248.000000 248.000000"
 preserveAspectRatio="xMidYMid meet">
<metadata>
Created by potrace 1.10, written by Peter Selinger 2001-2011
</metadata>
<g transform="translate(0.000000,248.000000) scale(0.100000,-0.100000)"
fill="#000000" stroke="none">
<path d="M624 2128 c-187 -208 -331 -355 -394 -401 -64 -47 -70 -54 -70 -84 0
-26 25 -45 106 -77 32 -13 112 -49 177 -80 115 -56 119 -57 143 -41 19 12 24
23 22 43 -3 24 -19 35 -138 94 -74 37 -139 69 -145 71 -5 2 54 68 132 148 193
198 352 378 360 408 8 32 -8 55 -39 59 -21 3 -46 -20 -154 -140z"/>
</g>
</svg>
