<?xml version="1.0" standalone="no"?>
<!DOCTYPE svg PUBLIC "-//W3C//DTD SVG 20010904//EN"
 "http://www.w3.org/TR/2001/REC-SVG-20010904/DTD/svg10.dtd">
<svg version="1.0" xmlns="http://www.w3.org/2000/svg"
 width="248.000000pt" height="248.000000pt" viewBox="0 0 248.000000 248.000000"
 preserveAspectRatio="xMidYMid meet">
<metadata>
Created by potrace 1.10, written by Peter Selinger 2001-2011
</metadata>
<g transform="translate(0.000000,248.000000) scale(0.100000,-0.100000)"
fill="#000000" stroke="none">
<path d="M1662 2388 c-9 -9 -12 -82 -12 -267 0 -141 -4 -261 -8 -268 -4 -6
-64 -16 -147 -23 -77 -6 -173 -15 -213 -21 -40 -5 -90 -9 -110 -9 -21 0 -43
-5 -50 -12 -15 -15 -15 -51 0 -66 15 -15 123 -16 251 -3 51 5 134 12 186 16
l93 6 -5 -23 c-3 -13 -9 -115 -12 -228 -3 -113 -8 -215 -10 -227 -5 -19 -13
-22 -92 -27 -135 -9 -244 -24 -259 -37 -18 -15 -18 -53 1 -69 9 -8 35 -10 72
-7 135 11 379 26 523 32 167 6 200 16 200 59 0 43 -16 46 -179 38 -111 -5
-155 -4 -162 5 -10 11 9 475 20 491 6 9 455 42 562 42 30 0 60 5 67 12 18 18
14 53 -7 73 -22 19 -24 19 -423 -7 -97 -6 -184 -8 -194 -4 -16 6 -17 24 -10
249 6 213 5 245 -9 265 -17 24 -54 29 -73 10z"/>
<path d="M624 2128 c-187 -209 -348 -371 -405 -409 -77 -52 -79 -96 -7 -128
24 -11 95 -43 158 -72 63 -28 117 -53 119 -55 8 -7 -215 -247 -308 -329 -103
-92 -118 -118 -86 -145 23 -19 65 -15 146 15 94 33 279 79 287 70 7 -7 4 -790
-3 -847 -2 -18 -7 -56 -11 -84 -5 -40 -3 -54 11 -67 22 -23 48 -21 71 4 17 19
20 44 26 248 3 124 7 351 8 503 l1 276 77 27 c42 15 101 36 130 47 29 11 56
18 59 15 3 -3 31 -57 62 -119 44 -89 61 -114 79 -116 61 -9 67 48 16 151 -61
122 -186 327 -212 348 -28 22 -62 25 -80 7 -15 -15 -16 -55 -1 -64 12 -7 82
-114 77 -118 -23 -17 -438 -136 -475 -136 -8 0 5 20 30 48 25 26 70 77 101
114 31 37 65 73 75 80 36 25 344 353 387 411 45 60 54 93 32 115 -25 25 -56
13 -99 -40 -49 -59 -307 -331 -319 -336 -6 -2 -238 103 -249 114 -2 2 60 67
137 146 190 194 351 377 359 407 8 32 -8 55 -39 59 -21 3 -46 -20 -154 -140z"/>
<path d="M702 968 c-20 -20 -13 -53 18 -83 17 -16 55 -74 87 -129 31 -56 61
-110 68 -121 7 -11 17 -37 24 -57 17 -51 48 -88 76 -88 33 0 48 24 41 62 -7
37 -82 190 -147 298 -64 108 -130 155 -167 118z"/>
<path d="M366 908 c-8 -13 -26 -51 -40 -86 -37 -87 -156 -275 -224 -351 -31
-35 -62 -73 -68 -84 -25 -44 17 -85 63 -64 85 39 353 463 353 559 0 49 -58 66
-84 26z"/>
<path d="M1930 868 c-129 -4 -325 -18 -435 -30 -110 -12 -225 -22 -255 -23
-76 -2 -78 -3 -89 -23 -17 -31 68 -596 95 -639 17 -27 56 -30 75 -7 14 17 15
9 -35 324 -13 85 -26 175 -28 200 l-3 45 65 7 c36 4 99 10 140 13 41 4 104 11
140 16 88 12 510 33 517 25 3 -3 -4 -40 -16 -83 -11 -43 -37 -138 -57 -212
-20 -74 -45 -153 -55 -175 -34 -76 -19 -132 33 -124 36 5 70 91 140 346 66
244 78 312 56 329 -23 19 -49 20 -288 11z"/>
</g>
</svg>
