<?xml version="1.0" standalone="no"?>
<!DOCTYPE svg PUBLIC "-//W3C//DTD SVG 20010904//EN"
 "http://www.w3.org/TR/2001/REC-SVG-20010904/DTD/svg10.dtd">
<svg version="1.0" xmlns="http://www.w3.org/2000/svg"
 width="248.000000pt" height="248.000000pt" viewBox="0 0 248.000000 248.000000"
 preserveAspectRatio="xMidYMid meet">
<metadata>
Created by potrace 1.10, written by Peter Selinger 2001-2011
</metadata>
<g transform="translate(0.000000,248.000000) scale(0.100000,-0.100000)"
fill="#000000" stroke="none">
<path d="M361 2217 c-18 -23 -22 -68 -12 -142 5 -38 5 -74 1 -78 -4 -5 -47
-15 -96 -22 -111 -16 -142 -47 -94 -95 24 -24 37 -24 130 -5 40 8 75 13 80 10
4 -2 9 -40 12 -84 3 -44 10 -87 18 -95 17 -22 53 -20 75 4 15 17 16 31 10 103
l-6 83 118 12 c65 7 216 21 336 32 120 11 231 25 245 32 32 16 41 58 16 78
-14 12 -55 11 -278 -9 -143 -12 -303 -27 -355 -32 -51 -6 -95 -8 -98 -5 -3 3
-8 48 -12 100 -4 52 -13 102 -21 110 -15 20 -54 21 -69 3z"/>
</g>
</svg>
