<?xml version="1.0" standalone="no"?>
<!DOCTYPE svg PUBLIC "-//W3C//DTD SVG 20010904//EN"
 "http://www.w3.org/TR/2001/REC-SVG-20010904/DTD/svg10.dtd">
<svg version="1.0" xmlns="http://www.w3.org/2000/svg"
 width="248.000000pt" height="248.000000pt" viewBox="0 0 248.000000 248.000000"
 preserveAspectRatio="xMidYMid meet">
<metadata>
Created by potrace 1.10, written by Peter Selinger 2001-2011
</metadata>
<g transform="translate(0.000000,248.000000) scale(0.100000,-0.100000)"
fill="#000000" stroke="none">
<path d="M880 2040 c-102 -10 -239 -22 -305 -29 -259 -24 -399 -45 -417 -63
-23 -23 -23 -43 2 -68 24 -24 38 -24 127 -6 37 8 111 17 163 21 52 4 131 11
175 16 44 5 181 18 303 29 123 11 236 25 250 32 30 15 40 51 22 74 -16 18 -76
17 -320 -6z"/>
</g>
</svg>
