<?xml version="1.0" standalone="no"?>
<!DOCTYPE svg PUBLIC "-//W3C//DTD SVG 20010904//EN"
 "http://www.w3.org/TR/2001/REC-SVG-20010904/DTD/svg10.dtd">
<svg version="1.0" xmlns="http://www.w3.org/2000/svg"
 width="248.000000pt" height="248.000000pt" viewBox="0 0 248.000000 248.000000"
 preserveAspectRatio="xMidYMid meet">
<metadata>
Created by potrace 1.10, written by Peter Selinger 2001-2011
</metadata>
<g transform="translate(0.000000,248.000000) scale(0.100000,-0.100000)"
fill="#000000" stroke="none">
<path d="M946 2248 c-8 -13 -24 -61 -35 -108 -12 -46 -25 -88 -29 -92 -4 -4
-52 -12 -107 -17 -271 -29 -307 -32 -312 -27 -3 3 -8 48 -12 100 -8 104 -20
129 -60 124 -42 -5 -54 -44 -43 -141 5 -45 6 -86 2 -90 -4 -5 -47 -15 -96 -22
-111 -16 -142 -47 -94 -95 24 -24 37 -24 130 -5 40 8 75 13 80 10 4 -2 9 -40
12 -84 5 -86 17 -111 54 -111 46 0 57 25 50 120 l-7 85 180 19 c100 11 183 17
186 15 2 -3 -4 -34 -15 -70 -31 -102 -24 -139 27 -139 30 0 48 30 77 129 13
45 27 85 30 88 3 3 47 10 98 15 107 10 142 24 146 56 7 47 -14 55 -115 49 -51
-4 -93 -3 -93 1 0 4 8 44 17 90 19 93 14 115 -30 120 -18 2 -30 -4 -41 -20z"/>
<path d="M1000 1649 c-36 -4 -112 -10 -170 -14 -325 -19 -605 -54 -648 -81
-27 -18 -28 -46 -2 -82 11 -15 34 -81 50 -146 16 -64 34 -124 41 -132 15 -18
44 -18 73 1 22 15 174 33 461 56 200 16 212 24 286 196 15 34 36 74 48 89 12
15 21 41 21 61 0 29 -5 36 -35 49 -19 7 -40 13 -47 13 -7 -1 -42 -5 -78 -10z
m15 -120 c-12 -37 -53 -123 -68 -143 -12 -17 -37 -22 -158 -32 -79 -7 -211
-20 -294 -28 -82 -8 -151 -13 -153 -12 -3 3 -41 148 -42 157 0 4 11 10 24 13
37 9 304 34 496 46 96 6 177 13 179 16 12 12 22 2 16 -17z"/>
</g>
</svg>
