<?xml version="1.0" standalone="no"?>
<!DOCTYPE svg PUBLIC "-//W3C//DTD SVG 20010904//EN"
 "http://www.w3.org/TR/2001/REC-SVG-20010904/DTD/svg10.dtd">
<svg version="1.0" xmlns="http://www.w3.org/2000/svg"
 width="248.000000pt" height="248.000000pt" viewBox="0 0 248.000000 248.000000"
 preserveAspectRatio="xMidYMid meet">
<metadata>
Created by potrace 1.10, written by Peter Selinger 2001-2011
</metadata>
<g transform="translate(0.000000,248.000000) scale(0.100000,-0.100000)"
fill="#000000" stroke="none">
<path d="M946 2248 c-8 -13 -24 -61 -35 -108 -12 -46 -25 -88 -29 -92 -4 -4
-52 -12 -107 -17 -271 -29 -307 -32 -312 -27 -3 3 -8 48 -12 100 -8 104 -20
129 -60 124 -43 -5 -55 -45 -43 -146 6 -48 9 -88 8 -90 -2 -1 -45 -8 -96 -16
-93 -14 -120 -28 -120 -63 0 -20 37 -53 59 -53 11 0 52 7 91 15 40 8 75 13 80
10 4 -2 9 -40 12 -84 5 -86 17 -111 54 -111 46 0 57 25 50 120 l-7 85 180 19
c100 11 183 17 186 15 2 -3 -4 -34 -15 -70 -31 -102 -24 -139 27 -139 30 0 48
30 77 129 13 45 27 85 30 88 3 3 47 10 98 15 116 11 143 23 143 63 0 44 -32
55 -123 43 -41 -5 -76 -8 -79 -5 -2 3 3 44 13 92 20 96 15 118 -29 123 -18 2
-30 -4 -41 -20z"/>
<path d="M1583 2128 c-6 -7 -45 -80 -88 -163 -93 -179 -135 -245 -254 -405
-57 -75 -91 -130 -91 -145 0 -22 24 -45 49 -45 18 0 72 52 108 104 l35 51 -7
-235 c-3 -129 -8 -255 -10 -280 -16 -163 -47 -435 -49 -439 -2 -3 -7 -37 -10
-76 -4 -38 -12 -85 -17 -103 -21 -66 50 -114 86 -58 17 26 24 66 56 316 13
112 25 169 34 176 27 20 305 47 321 31 7 -6 -10 -127 -27 -192 -18 -71 20
-122 70 -95 24 12 34 47 55 194 9 61 18 111 19 112 5 5 229 26 293 28 66 1 94
16 94 50 -1 54 -34 65 -163 49 -56 -6 -129 -12 -161 -12 l-59 -1 7 53 c4 28 9
98 13 154 l6 103 31 4 c17 3 85 12 150 21 65 9 127 20 137 25 27 15 33 47 14
76 -13 20 -23 25 -43 21 -84 -16 -221 -37 -247 -37 l-30 0 4 122 c1 68 4 125
6 126 5 6 140 21 259 31 117 9 149 24 144 69 -5 43 -25 47 -165 33 -239 -24
-246 -24 -240 -14 10 16 57 245 57 278 0 40 -25 75 -54 75 -28 0 -46 -18 -46
-47 0 -40 -50 -275 -65 -302 -12 -25 -22 -27 -167 -48 -84 -11 -154 -20 -156
-18 -1 1 30 62 69 136 40 74 81 151 91 171 21 43 23 89 6 106 -16 16 -53 15
-65 0z m215 -605 l-3 -128 -120 -17 c-66 -9 -146 -17 -177 -17 l-56 -1 5 68
c3 37 1 90 -5 119 l-9 52 66 11 c137 22 247 38 274 39 l28 1 -3 -127z m-14
-279 c-1 -94 -17 -260 -25 -267 -2 -3 -47 -7 -99 -11 -52 -4 -124 -10 -160
-15 -36 -5 -67 -6 -70 -4 -4 4 -1 100 5 168 2 17 3 53 4 81 l1 50 163 21 c89
11 167 20 172 18 6 -1 10 -19 9 -41z"/>
<path d="M1059 1656 c-2 -2 -76 -9 -164 -15 -446 -32 -667 -59 -713 -87 -27
-18 -28 -46 -2 -82 11 -15 34 -81 50 -146 16 -64 34 -124 41 -132 15 -19 44
-18 74 2 16 10 57 18 110 22 l86 5 -3 -89 -3 -89 -128 -22 c-71 -12 -136 -28
-143 -34 -21 -18 -13 -62 14 -75 17 -8 49 -7 132 6 61 9 112 15 113 13 5 -4
-12 -166 -18 -171 -2 -3 -69 -15 -147 -27 -200 -31 -249 -57 -219 -114 15 -26
42 -34 77 -20 44 16 238 47 247 39 22 -19 -76 -189 -187 -324 -61 -75 -67 -93
-36 -121 35 -32 66 -10 158 110 68 89 145 218 164 277 2 5 24 -10 49 -34 200
-193 250 -238 264 -238 20 0 55 36 55 58 0 9 -65 80 -145 158 l-146 141 58 11
c60 12 283 42 309 42 18 0 54 36 54 55 0 8 -9 24 -21 36 -18 18 -28 20 -63 14
-22 -3 -99 -15 -171 -25 -71 -11 -144 -22 -161 -25 l-30 -7 9 89 c5 48 14 91
20 95 7 4 26 8 42 8 33 0 219 34 247 45 35 14 34 79 -1 90 -11 3 -70 -4 -132
-15 -173 -31 -161 -36 -153 68 4 48 8 88 9 90 1 1 65 7 141 13 210 16 220 22
295 196 15 34 36 74 48 89 12 15 21 41 21 61 0 29 -5 36 -35 49 -34 14 -58 18
-66 10z m-66 -181 c-44 -107 -49 -111 -186 -119 -65 -4 -124 -9 -132 -12 -13
-5 -15 9 -15 84 l0 90 98 7 c53 3 133 9 177 13 44 5 81 7 83 6 2 -1 -10 -32
-25 -69z m-443 -55 c0 -79 -2 -90 -17 -90 -10 0 -56 -5 -102 -10 -47 -5 -86
-8 -88 -6 -3 3 -42 147 -43 158 0 11 129 32 223 37 l27 1 0 -90z"/>
</g>
</svg>
