<?xml version="1.0" standalone="no"?>
<!DOCTYPE svg PUBLIC "-//W3C//DTD SVG 20010904//EN"
 "http://www.w3.org/TR/2001/REC-SVG-20010904/DTD/svg10.dtd">
<svg version="1.0" xmlns="http://www.w3.org/2000/svg"
 width="248.000000pt" height="248.000000pt" viewBox="0 0 248.000000 248.000000"
 preserveAspectRatio="xMidYMid meet">
<metadata>
Created by potrace 1.10, written by Peter Selinger 2001-2011
</metadata>
<g transform="translate(0.000000,248.000000) scale(0.100000,-0.100000)"
fill="#000000" stroke="none">
<path d="M946 2248 c-8 -13 -24 -61 -35 -108 -12 -46 -25 -88 -29 -92 -4 -4
-52 -12 -107 -17 -271 -29 -307 -32 -312 -27 -3 3 -8 48 -12 100 -8 104 -20
129 -60 124 -42 -5 -54 -44 -43 -141 5 -45 6 -86 2 -90 -4 -5 -47 -15 -96 -22
-111 -16 -142 -47 -94 -95 24 -24 37 -24 130 -5 40 8 75 13 80 10 4 -2 9 -40
12 -84 5 -86 17 -111 54 -111 46 0 57 25 50 120 l-7 85 180 19 c100 11 183 17
186 15 2 -3 -4 -34 -15 -70 -31 -102 -24 -139 27 -139 30 0 48 30 77 129 13
45 27 85 30 88 3 3 47 10 98 15 107 10 142 24 146 56 7 47 -14 55 -115 49 -51
-4 -93 -3 -93 1 0 4 8 44 17 90 19 93 14 115 -30 120 -18 2 -30 -4 -41 -20z"/>
<path d="M192 1548 c-17 -17 -15 -46 7 -110 11 -31 27 -91 36 -134 20 -93 37
-124 68 -124 50 0 58 41 31 157 -22 96 -53 185 -71 206 -19 20 -54 22 -71 5z"/>
</g>
</svg>
