<?xml version="1.0" standalone="no"?>
<!DOCTYPE svg PUBLIC "-//W3C//DTD SVG 20010904//EN"
 "http://www.w3.org/TR/2001/REC-SVG-20010904/DTD/svg10.dtd">
<svg version="1.0" xmlns="http://www.w3.org/2000/svg"
 width="248.000000pt" height="248.000000pt" viewBox="0 0 248.000000 248.000000"
 preserveAspectRatio="xMidYMid meet">
<metadata>
Created by potrace 1.10, written by Peter Selinger 2001-2011
</metadata>
<g transform="translate(0.000000,248.000000) scale(0.100000,-0.100000)"
fill="#000000" stroke="none">
<path d="M310 2255 c-9 -11 -12 -73 -11 -258 4 -540 -42 -1197 -111 -1615 -33
-199 -32 -212 23 -212 17 0 32 7 38 19 20 37 50 197 75 406 33 270 37 304 46
440 5 77 14 210 21 295 6 85 12 317 13 515 1 303 -1 365 -14 390 -17 34 -59
45 -80 20z"/>
</g>
</svg>
