<?xml version="1.0" standalone="no"?>
<!DOCTYPE svg PUBLIC "-//W3C//DTD SVG 20010904//EN"
 "http://www.w3.org/TR/2001/REC-SVG-20010904/DTD/svg10.dtd">
<svg version="1.0" xmlns="http://www.w3.org/2000/svg"
 width="248.000000pt" height="248.000000pt" viewBox="0 0 248.000000 248.000000"
 preserveAspectRatio="xMidYMid meet">
<metadata>
Created by potrace 1.10, written by Peter Selinger 2001-2011
</metadata>
<g transform="translate(0.000000,248.000000) scale(0.100000,-0.100000)"
fill="#000000" stroke="none">
<path d="M740 2373 c-14 -3 -70 -16 -125 -30 -129 -32 -225 -53 -250 -53 -11
0 -31 -6 -45 -13 l-25 -13 3 -254 c6 -529 -39 -1202 -110 -1628 -33 -199 -32
-212 23 -212 17 0 32 7 38 19 20 37 50 198 75 406 31 252 35 291 42 377 l7 87
51 10 c28 6 87 15 131 21 44 6 94 13 110 15 l31 5 -1 -429 0 -428 -35 28 c-19
16 -44 29 -57 29 -26 0 -53 -25 -53 -49 0 -24 172 -191 197 -191 11 0 28 10
39 21 18 20 19 37 16 288 -4 266 12 1365 24 1752 7 202 6 207 -15 228 -21 21
-25 22 -71 14z m-23 -270 c-4 -87 -7 -215 -7 -285 l0 -127 -27 1 c-16 0 -66
-11 -113 -25 -47 -13 -103 -28 -125 -31 l-40 -7 0 280 0 279 60 13 c33 6 98
22 145 35 47 12 91 23 99 23 12 1 13 -25 8 -156z m-17 -701 l0 -188 -132 -18
c-73 -9 -146 -20 -162 -23 l-28 -6 6 59 c3 33 8 112 12 176 l6 117 96 22 c54
12 113 28 132 35 74 27 70 36 70 -174z"/>
<path d="M1433 2304 c-37 -36 -93 -84 -123 -107 -30 -23 -104 -81 -164 -130
l-110 -87 3 -308 c1 -169 -2 -345 -8 -392 -5 -47 -13 -128 -16 -180 -25 -410
-48 -569 -112 -783 -31 -103 -25 -137 26 -137 16 0 33 6 39 13 25 30 81 253
110 437 34 211 66 683 68 1005 l2 300 104 83 c56 46 128 102 158 126 97 77
160 146 160 175 0 15 -5 32 -12 39 -25 25 -57 12 -125 -54z"/>
<path d="M1653 2113 c-25 -38 -112 -125 -165 -164 -145 -109 -179 -141 -176
-167 4 -37 35 -53 75 -39 56 21 311 245 339 299 8 15 14 38 14 51 0 51 -57 65
-87 20z"/>
</g>
</svg>
