<?xml version="1.0" standalone="no"?>
<!DOCTYPE svg PUBLIC "-//W3C//DTD SVG 20010904//EN"
 "http://www.w3.org/TR/2001/REC-SVG-20010904/DTD/svg10.dtd">
<svg version="1.0" xmlns="http://www.w3.org/2000/svg"
 width="248.000000pt" height="248.000000pt" viewBox="0 0 248.000000 248.000000"
 preserveAspectRatio="xMidYMid meet">
<metadata>
Created by potrace 1.10, written by Peter Selinger 2001-2011
</metadata>
<g transform="translate(0.000000,248.000000) scale(0.100000,-0.100000)"
fill="#000000" stroke="none">
<path d="M740 2373 c-14 -3 -70 -16 -125 -30 -129 -32 -225 -53 -250 -53 -11
0 -31 -6 -45 -13 l-25 -13 3 -254 c6 -529 -39 -1202 -110 -1628 -33 -199 -32
-212 23 -212 17 0 32 7 38 19 20 37 50 197 75 406 33 269 37 304 47 450 5 83
14 209 19 280 5 72 9 144 10 161 l0 31 128 32 c70 18 137 35 150 38 l23 6 -3
-670 -3 -670 -35 28 c-19 16 -44 29 -57 29 -26 0 -53 -25 -53 -49 0 -24 172
-191 197 -191 11 0 28 10 39 21 18 20 19 37 16 288 -4 266 12 1365 24 1752 7
202 6 207 -15 228 -21 21 -25 22 -71 14z m-23 -270 c-4 -87 -7 -215 -7 -285
l0 -127 -27 1 c-16 0 -66 -11 -113 -25 -47 -13 -103 -28 -125 -31 l-40 -7 0
280 0 279 60 13 c33 6 98 22 145 35 47 12 91 23 99 23 12 1 13 -25 8 -156z"/>
</g>
</svg>
