<?xml version="1.0" standalone="no"?>
<!DOCTYPE svg PUBLIC "-//W3C//DTD SVG 20010904//EN"
 "http://www.w3.org/TR/2001/REC-SVG-20010904/DTD/svg10.dtd">
<svg version="1.0" xmlns="http://www.w3.org/2000/svg"
 width="248.000000pt" height="248.000000pt" viewBox="0 0 248.000000 248.000000"
 preserveAspectRatio="xMidYMid meet">
<metadata>
Created by potrace 1.10, written by Peter Selinger 2001-2011
</metadata>
<g transform="translate(0.000000,248.000000) scale(0.100000,-0.100000)"
fill="#000000" stroke="none">
<path d="M1877 2224 c-2 -2 -179 -8 -393 -13 -214 -4 -396 -11 -404 -15 -8 -3
-28 -26 -43 -50 -130 -206 -378 -453 -601 -601 -41 -27 -62 -48 -64 -63 -8
-52 47 -68 108 -31 59 36 252 189 318 253 77 73 198 213 276 318 31 42 65 80
74 84 9 4 158 10 330 12 l313 4 -54 -84 c-190 -293 -334 -488 -467 -631 -36
-40 -100 -112 -141 -162 -232 -280 -505 -517 -679 -590 -58 -24 -80 -43 -80
-70 0 -28 18 -45 50 -45 43 0 221 95 310 167 111 88 364 336 448 438 37 44
103 121 147 170 135 149 294 359 430 565 70 107 141 211 156 231 31 39 37 80
17 96 -17 13 -45 23 -51 17z"/>
</g>
</svg>
