<?xml version="1.0" standalone="no"?>
<!DOCTYPE svg PUBLIC "-//W3C//DTD SVG 20010904//EN"
 "http://www.w3.org/TR/2001/REC-SVG-20010904/DTD/svg10.dtd">
<svg version="1.0" xmlns="http://www.w3.org/2000/svg"
 width="248.000000pt" height="248.000000pt" viewBox="0 0 248.000000 248.000000"
 preserveAspectRatio="xMidYMid meet">
<metadata>
Created by potrace 1.10, written by Peter Selinger 2001-2011
</metadata>
<g transform="translate(0.000000,248.000000) scale(0.100000,-0.100000)"
fill="#000000" stroke="none">
<path d="M1162 2398 c-7 -7 -12 -42 -12 -87 0 -66 -16 -198 -36 -309 -8 -43
-22 -48 -167 -56 -143 -8 -332 -32 -408 -51 -31 -8 -79 -17 -107 -21 -28 -3
-65 -15 -82 -26 -35 -20 -34 -16 -11 -118 7 -29 10 -314 10 -793 0 -561 3
-752 12 -763 6 -8 22 -14 34 -14 52 0 50 -26 46 821 -3 657 -1 789 10 793 108
31 324 61 506 72 l121 7 -24 -104 c-34 -144 -79 -279 -127 -379 -36 -73 -59
-103 -169 -216 -70 -73 -128 -137 -128 -143 0 -16 38 -51 54 -51 21 0 120 85
190 161 78 85 126 160 172 269 21 49 41 90 44 90 13 0 75 -50 304 -247 34 -29
91 -76 128 -104 37 -28 79 -67 93 -85 40 -53 95 -42 95 18 0 30 -55 99 -102
128 -14 9 -55 41 -90 72 -126 111 -334 282 -365 301 -18 10 -33 20 -33 22 0 5
50 222 58 250 7 25 15 31 48 37 140 24 800 32 827 9 22 -17 22 -138 2 -461 -8
-129 -17 -280 -21 -335 -5 -94 -11 -152 -48 -450 -27 -222 -66 -415 -85 -415
-4 0 -49 27 -101 59 -187 117 -181 114 -209 105 -19 -7 -27 -17 -29 -41 -3
-29 2 -35 85 -88 135 -88 255 -155 279 -155 58 0 110 144 143 400 53 404 57
436 66 600 17 303 24 487 27 660 l3 195 -40 15 c-50 18 -473 25 -735 12 -96
-5 -176 -8 -177 -7 -2 1 4 39 12 86 9 46 18 132 22 191 5 90 3 111 -11 132
-18 28 -54 34 -74 14z"/>
</g>
</svg>
