<?xml version="1.0" standalone="no"?>
<!DOCTYPE svg PUBLIC "-//W3C//DTD SVG 20010904//EN"
 "http://www.w3.org/TR/2001/REC-SVG-20010904/DTD/svg10.dtd">
<svg version="1.0" xmlns="http://www.w3.org/2000/svg"
 width="248.000000pt" height="248.000000pt" viewBox="0 0 248.000000 248.000000"
 preserveAspectRatio="xMidYMid meet">
<metadata>
Created by potrace 1.10, written by Peter Selinger 2001-2011
</metadata>
<g transform="translate(0.000000,248.000000) scale(0.100000,-0.100000)"
fill="#000000" stroke="none">
<path d="M1940 2250 c-25 -3 -126 -16 -225 -29 -99 -12 -232 -28 -295 -36 -63
-9 -154 -19 -202 -24 -49 -5 -95 -14 -103 -21 -23 -19 -15 -62 15 -78 27 -14
58 -12 270 14 69 8 161 20 205 25 92 10 374 47 422 55 58 9 69 75 16 95 -26
10 -36 10 -103 -1z"/>
<path d="M222 2168 c-17 -17 -15 -53 6 -70 19 -17 235 -145 299 -178 26 -13
50 -19 63 -15 23 7 37 51 23 74 -5 9 -68 50 -139 91 -71 41 -141 83 -154 93
-28 20 -80 23 -98 5z"/>
<path d="M1810 1889 c-91 -10 -194 -23 -230 -29 -80 -13 -264 -37 -390 -50
-134 -15 -195 -28 -213 -48 -10 -12 -16 -50 -20 -127 -8 -159 -26 -389 -37
-466 -15 -100 -110 -441 -154 -549 -14 -35 -26 -67 -26 -72 0 -14 -109 -234
-152 -308 -43 -73 -46 -90 -20 -113 49 -44 70 -21 177 189 75 147 112 240 163
404 76 240 108 370 127 511 l6 46 142 12 c78 6 165 13 192 16 126 10 351 37
465 56 216 35 229 38 246 64 17 25 53 265 54 350 0 59 -14 115 -32 127 -19 12
-115 8 -298 -13z m220 -146 c0 -48 -26 -242 -33 -249 -14 -13 -447 -68 -662
-84 -71 -6 -163 -14 -203 -20 -40 -5 -75 -10 -78 -10 -7 0 -4 69 8 189 6 64
12 117 14 119 1 2 39 7 85 12 181 20 330 39 459 59 136 21 288 37 368 40 l42
1 0 -57z"/>
<path d="M102 1548 c-17 -17 -15 -53 6 -69 37 -30 288 -139 339 -146 27 -4 34
-1 44 20 8 18 8 30 0 46 -13 24 -94 67 -196 104 -38 14 -83 32 -100 41 -36 19
-76 21 -93 4z"/>
<path d="M390 600 c-31 -33 -126 -193 -184 -307 -50 -100 -47 -153 10 -153 27
0 38 13 79 99 32 67 122 223 165 286 24 36 26 68 4 89 -23 23 -43 20 -74 -14z"/>
</g>
</svg>
