<?xml version="1.0" standalone="no"?>
<!DOCTYPE svg PUBLIC "-//W3C//DTD SVG 20010904//EN"
 "http://www.w3.org/TR/2001/REC-SVG-20010904/DTD/svg10.dtd">
<svg version="1.0" xmlns="http://www.w3.org/2000/svg"
 width="248.000000pt" height="248.000000pt" viewBox="0 0 248.000000 248.000000"
 preserveAspectRatio="xMidYMid meet">
<metadata>
Created by potrace 1.10, written by Peter Selinger 2001-2011
</metadata>
<g transform="translate(0.000000,248.000000) scale(0.100000,-0.100000)"
fill="#000000" stroke="none">
<path d="M1940 2250 c-25 -3 -126 -16 -225 -29 -99 -12 -232 -28 -295 -36 -63
-9 -154 -19 -202 -24 -49 -5 -95 -14 -103 -21 -23 -19 -15 -62 15 -78 27 -14
58 -12 270 14 69 8 161 20 205 25 92 10 374 47 422 55 58 9 69 75 16 95 -26
10 -36 10 -103 -1z"/>
<path d="M222 2168 c-17 -17 -15 -53 6 -70 19 -17 235 -145 299 -178 26 -13
50 -19 63 -15 23 7 37 51 23 74 -5 9 -68 50 -139 91 -71 41 -141 83 -154 93
-28 20 -80 23 -98 5z"/>
<path d="M1810 1889 c-91 -10 -194 -23 -230 -29 -80 -13 -264 -37 -390 -50
-134 -15 -195 -28 -213 -48 -10 -12 -16 -50 -20 -127 -8 -159 -26 -389 -37
-466 -15 -100 -110 -441 -154 -549 -14 -35 -26 -67 -26 -72 0 -14 -109 -234
-152 -308 -43 -73 -46 -90 -20 -113 49 -44 70 -21 177 189 95 187 148 334 234
642 25 88 61 273 61 313 0 4 66 12 148 18 81 6 183 16 228 21 106 13 111 13
96 -2 -8 -8 -12 -52 -13 -127 -1 -64 -4 -129 -8 -145 l-6 -30 -155 -22 c-85
-13 -184 -23 -220 -23 -83 -2 -115 -17 -115 -56 0 -62 51 -65 362 -23 51 6 95
9 99 6 10 -11 -26 -118 -68 -202 -45 -90 -98 -170 -155 -233 -42 -46 -193
-168 -242 -195 -23 -13 -31 -24 -31 -46 0 -86 76 -65 234 65 109 90 146 132
218 243 66 101 99 165 123 240 l18 54 34 -39 c19 -22 53 -67 75 -100 111 -163
226 -290 342 -375 22 -17 68 -50 102 -75 141 -103 244 -134 264 -79 14 35 -2
60 -47 74 -47 15 -84 38 -198 119 -148 106 -242 201 -358 366 -31 44 -78 108
-103 143 -26 35 -42 67 -38 71 5 5 54 16 109 25 55 9 163 28 240 41 77 12 152
26 168 30 32 9 51 37 42 66 -7 21 -47 41 -67 34 -7 -3 -71 -14 -143 -25 -71
-11 -177 -29 -235 -40 -58 -11 -112 -20 -120 -20 -13 0 -15 19 -15 124 0 104
-3 127 -17 143 -10 11 -18 22 -18 25 0 3 35 8 78 12 67 6 317 45 395 62 44 9
57 43 78 191 27 198 23 292 -13 315 -19 12 -115 8 -298 -13z m220 -146 c0 -48
-26 -242 -33 -249 -14 -13 -447 -68 -662 -84 -71 -6 -163 -14 -203 -20 -40 -5
-75 -10 -78 -10 -7 0 -4 69 8 189 6 64 12 117 14 119 1 2 39 7 85 12 181 20
330 39 459 59 136 21 288 37 368 40 l42 1 0 -57z"/>
<path d="M102 1548 c-17 -17 -15 -53 6 -69 37 -30 288 -139 339 -146 27 -4 34
-1 44 20 8 18 8 30 0 46 -13 24 -94 67 -196 104 -38 14 -83 32 -100 41 -36 19
-76 21 -93 4z"/>
<path d="M390 600 c-31 -33 -126 -193 -184 -307 -50 -100 -47 -153 10 -153 27
0 38 13 79 99 32 67 122 223 165 286 24 36 26 68 4 89 -23 23 -43 20 -74 -14z"/>
</g>
</svg>
