<?xml version="1.0" standalone="no"?>
<!DOCTYPE svg PUBLIC "-//W3C//DTD SVG 20010904//EN"
 "http://www.w3.org/TR/2001/REC-SVG-20010904/DTD/svg10.dtd">
<svg version="1.0" xmlns="http://www.w3.org/2000/svg"
 width="248.000000pt" height="248.000000pt" viewBox="0 0 248.000000 248.000000"
 preserveAspectRatio="xMidYMid meet">
<metadata>
Created by potrace 1.10, written by Peter Selinger 2001-2011
</metadata>
<g transform="translate(0.000000,248.000000) scale(0.100000,-0.100000)"
fill="#000000" stroke="none">
<path d="M940 2025 c-158 -26 -497 -73 -590 -81 -81 -8 -112 -26 -108 -62 6
-55 47 -59 268 -26 52 8 131 19 175 25 179 23 395 60 419 70 41 19 42 69 0 88
-14 6 -26 10 -27 10 -1 -1 -63 -12 -137 -24z"/>
<path d="M1040 1769 c-277 -38 -390 -56 -559 -90 -107 -21 -209 -39 -226 -39
-38 0 -82 -32 -96 -68 -6 -17 -6 -115 2 -281 12 -281 18 -305 67 -299 44 5 54
38 48 156 -4 75 -2 104 7 107 18 7 207 35 337 50 245 30 287 35 345 45 33 5
71 10 84 10 26 0 26 21 5 -211 -6 -62 -5 -68 15 -79 26 -13 58 -5 70 18 37 71
63 634 31 666 -22 21 -56 25 -130 15z m37 -295 c-4 -5 -72 -14 -347 -48 -204
-26 -308 -41 -399 -57 -30 -5 -56 -7 -59 -5 -6 6 -16 166 -10 166 2 0 94 18
204 40 168 34 472 82 579 92 l30 3 3 -94 c1 -51 1 -95 -1 -97z"/>
</g>
</svg>
