<?xml version="1.0" standalone="no"?>
<!DOCTYPE svg PUBLIC "-//W3C//DTD SVG 20010904//EN"
 "http://www.w3.org/TR/2001/REC-SVG-20010904/DTD/svg10.dtd">
<svg version="1.0" xmlns="http://www.w3.org/2000/svg"
 width="248.000000pt" height="248.000000pt" viewBox="0 0 248.000000 248.000000"
 preserveAspectRatio="xMidYMid meet">
<metadata>
Created by potrace 1.10, written by Peter Selinger 2001-2011
</metadata>
<g transform="translate(0.000000,248.000000) scale(0.100000,-0.100000)"
fill="#000000" stroke="none">
<path d="M940 2025 c-158 -26 -497 -73 -590 -81 -81 -8 -112 -26 -108 -62 6
-55 47 -59 268 -26 52 8 131 19 175 25 179 23 395 60 419 70 41 19 42 69 0 88
-14 6 -26 10 -27 10 -1 -1 -63 -12 -137 -24z"/>
<path d="M1040 1769 c-277 -38 -390 -56 -559 -90 -107 -21 -209 -39 -226 -39
-38 0 -82 -32 -96 -68 -6 -17 -6 -115 2 -281 12 -281 18 -305 67 -299 52 6 55
33 43 295 -7 130 -10 237 -8 239 16 16 573 113 791 138 l29 3 -7 -201 c-4
-111 -12 -223 -17 -250 -16 -84 -12 -134 11 -146 25 -13 57 -5 69 18 37 71 63
634 31 666 -22 21 -56 25 -130 15z"/>
</g>
</svg>
