<?xml version="1.0" standalone="no"?>
<!DOCTYPE svg PUBLIC "-//W3C//DTD SVG 20010904//EN"
 "http://www.w3.org/TR/2001/REC-SVG-20010904/DTD/svg10.dtd">
<svg version="1.0" xmlns="http://www.w3.org/2000/svg"
 width="248.000000pt" height="248.000000pt" viewBox="0 0 248.000000 248.000000"
 preserveAspectRatio="xMidYMid meet">
<metadata>
Created by potrace 1.10, written by Peter Selinger 2001-2011
</metadata>
<g transform="translate(0.000000,248.000000) scale(0.100000,-0.100000)"
fill="#000000" stroke="none">
<path d="M940 2025 c-158 -26 -497 -73 -590 -81 -81 -8 -112 -26 -108 -62 6
-55 47 -59 268 -26 52 8 131 19 175 25 179 23 395 60 419 70 41 19 42 69 0 88
-14 6 -26 10 -27 10 -1 -1 -63 -12 -137 -24z"/>
<path d="M1040 1769 c-277 -38 -390 -56 -559 -90 -107 -21 -209 -39 -226 -39
-38 0 -82 -32 -96 -68 -9 -24 5 -484 17 -539 2 -12 20 -34 39 -49 l35 -26 127
16 c71 9 169 23 218 31 50 7 173 21 275 30 205 18 255 27 269 53 37 71 63 634
31 666 -22 21 -56 25 -130 15z m37 -295 c-4 -5 -72 -14 -347 -48 -204 -26
-308 -41 -399 -57 -30 -5 -56 -7 -59 -5 -6 6 -16 166 -10 166 2 0 94 18 204
40 168 34 472 82 579 92 l30 3 3 -94 c1 -51 1 -95 -1 -97z m-7 -158 c0 -41
-16 -145 -24 -153 -1 -2 -77 -10 -167 -18 -156 -15 -216 -22 -354 -45 -81 -13
-237 -32 -240 -28 -1 2 -5 43 -9 91 -5 66 -3 89 6 92 19 7 206 34 338 50 219
27 285 35 335 44 28 5 65 9 83 10 31 1 32 0 32 -43z"/>
<path d="M1085 910 c-27 -5 -97 -15 -155 -24 -58 -9 -190 -31 -295 -50 -104
-19 -230 -39 -280 -45 -49 -6 -123 -15 -163 -20 -83 -11 -104 -23 -100 -60 4
-36 42 -53 103 -46 131 14 513 73 525 80 4 3 68 13 141 24 238 35 344 52 362
57 27 8 41 42 28 70 -9 21 -17 24 -63 23 -29 -1 -75 -5 -103 -9z"/>
</g>
</svg>
