<?xml version="1.0" standalone="no"?>
<!DOCTYPE svg PUBLIC "-//W3C//DTD SVG 20010904//EN"
 "http://www.w3.org/TR/2001/REC-SVG-20010904/DTD/svg10.dtd">
<svg version="1.0" xmlns="http://www.w3.org/2000/svg"
 width="248.000000pt" height="248.000000pt" viewBox="0 0 248.000000 248.000000"
 preserveAspectRatio="xMidYMid meet">
<metadata>
Created by potrace 1.10, written by Peter Selinger 2001-2011
</metadata>
<g transform="translate(0.000000,248.000000) scale(0.100000,-0.100000)"
fill="#000000" stroke="none">
<path d="M659 2334 c-10 -13 -15 -58 -17 -184 l-3 -168 -28 -5 c-15 -3 -93
-13 -172 -22 -168 -19 -194 -28 -194 -70 0 -21 7 -33 25 -42 27 -14 59 -12
236 13 144 20 132 26 126 -63 -2 -43 -6 -79 -7 -81 -7 -7 -339 -72 -370 -72
-38 0 -82 -32 -96 -68 -9 -24 5 -484 17 -539 2 -12 20 -34 39 -49 l35 -26 102
11 c57 7 123 16 148 21 25 5 62 11 83 14 l37 5 0 -88 0 -89 -92 -15 c-86 -15
-126 -20 -336 -46 -40 -5 -80 -15 -88 -22 -23 -19 -13 -62 18 -77 29 -13 45
-12 298 23 63 9 134 19 157 22 l42 6 -4 -64 c-3 -35 -7 -170 -9 -299 -6 -263
-2 -285 49 -285 51 0 54 21 63 358 4 168 10 308 14 312 3 3 64 15 134 25 382
56 378 55 389 89 3 11 1 29 -5 41 -16 30 -43 29 -325 -15 -55 -9 -122 -19
-148 -22 l-48 -6 3 84 3 84 180 16 c182 15 219 25 229 56 30 102 58 581 37
636 -6 15 -21 31 -34 36 -22 9 -123 -1 -312 -28 -38 -6 -76 -11 -83 -11 -10 0
-12 19 -10 78 l3 77 165 27 c213 35 234 45 223 99 -8 34 -43 37 -183 13 -74
-12 -150 -23 -167 -23 l-33 -1 0 148 c0 98 -4 155 -13 172 -15 31 -58 38 -78
14z m421 -763 l0 -100 -47 -6 c-27 -3 -73 -10 -103 -15 -30 -5 -85 -12 -122
-16 l-68 -6 0 96 c0 111 -19 97 165 121 130 16 169 22 173 24 1 0 2 -44 2 -98z
m-452 -63 l-3 -92 -110 -18 c-222 -34 -239 -37 -243 -33 -2 2 -6 39 -9 83 l-6
80 54 11 c30 6 106 22 169 35 167 35 151 42 148 -66z m442 -192 c0 -41 -16
-145 -24 -153 -1 -2 -52 -8 -112 -13 -60 -5 -130 -13 -156 -16 l-48 -6 0 96 0
95 33 5 c150 21 247 34 275 35 31 1 32 0 32 -43z m-450 -105 l0 -99 -42 -5
c-24 -2 -99 -12 -167 -21 -68 -9 -124 -16 -126 -14 -1 2 -5 43 -9 91 -5 66 -3
89 6 92 12 4 151 26 278 45 30 4 56 8 58 9 1 0 2 -44 2 -98z"/>
<path d="M1370 2265 c-7 -9 -19 -70 -26 -138 -7 -67 -20 -162 -29 -212 -9 -49
-20 -112 -25 -140 -8 -45 -36 -155 -55 -211 -14 -44 55 -73 87 -36 25 29 57
135 73 242 3 25 17 101 30 170 31 164 39 277 22 310 -15 30 -58 38 -77 15z"/>
</g>
</svg>
