<?xml version="1.0" standalone="no"?>
<!DOCTYPE svg PUBLIC "-//W3C//DTD SVG 20010904//EN"
 "http://www.w3.org/TR/2001/REC-SVG-20010904/DTD/svg10.dtd">
<svg version="1.0" xmlns="http://www.w3.org/2000/svg"
 width="248.000000pt" height="248.000000pt" viewBox="0 0 248.000000 248.000000"
 preserveAspectRatio="xMidYMid meet">
<metadata>
Created by potrace 1.10, written by Peter Selinger 2001-2011
</metadata>
<g transform="translate(0.000000,248.000000) scale(0.100000,-0.100000)"
fill="#000000" stroke="none">
<path d="M743 2219 c-15 -5 -26 -22 -33 -51 -14 -55 -82 -236 -135 -358 -79
-183 -239 -441 -372 -598 -29 -34 -53 -71 -53 -81 0 -25 26 -51 50 -51 26 0
116 103 213 243 127 183 209 334 303 562 77 189 105 280 94 309 -10 27 -36 36
-67 25z"/>
</g>
</svg>
