<?xml version="1.0" standalone="no"?>
<!DOCTYPE svg PUBLIC "-//W3C//DTD SVG 20010904//EN"
 "http://www.w3.org/TR/2001/REC-SVG-20010904/DTD/svg10.dtd">
<svg version="1.0" xmlns="http://www.w3.org/2000/svg"
 width="248.000000pt" height="248.000000pt" viewBox="0 0 248.000000 248.000000"
 preserveAspectRatio="xMidYMid meet">
<metadata>
Created by potrace 1.10, written by Peter Selinger 2001-2011
</metadata>
<g transform="translate(0.000000,248.000000) scale(0.100000,-0.100000)"
fill="#000000" stroke="none">
<path d="M521 2196 c-17 -21 -28 -157 -42 -541 -15 -421 -9 -1449 9 -1481 15
-29 37 -36 66 -22 31 13 37 40 25 98 -5 25 -12 250 -15 500 -5 439 2 756 28
1217 9 172 9 215 -2 227 -16 20 -54 21 -69 2z"/>
<path d="M2065 2143 c-16 -2 -100 -15 -185 -28 -229 -36 -291 -43 -559 -65
-135 -11 -251 -26 -258 -32 -16 -13 -17 -50 -1 -66 7 -7 39 -12 73 -12 118 0
463 32 660 61 110 16 238 35 284 41 69 10 86 16 98 35 14 21 14 26 -1 48 -17
25 -33 28 -111 18z"/>
<path d="M718 1848 c-31 -25 -31 -54 0 -90 16 -18 57 -90 90 -160 63 -131 81
-150 122 -128 34 18 24 62 -50 209 -81 163 -119 202 -162 169z"/>
<path d="M257 1698 c-18 -14 -127 -381 -127 -429 0 -41 38 -59 75 -35 14 9 25
22 25 30 0 7 25 99 55 205 57 197 59 220 19 235 -22 8 -28 8 -47 -6z"/>
</g>
</svg>
