<?xml version="1.0" standalone="no"?>
<!DOCTYPE svg PUBLIC "-//W3C//DTD SVG 20010904//EN"
 "http://www.w3.org/TR/2001/REC-SVG-20010904/DTD/svg10.dtd">
<svg version="1.0" xmlns="http://www.w3.org/2000/svg"
 width="248.000000pt" height="248.000000pt" viewBox="0 0 248.000000 248.000000"
 preserveAspectRatio="xMidYMid meet">
<metadata>
Created by potrace 1.10, written by Peter Selinger 2001-2011
</metadata>
<g transform="translate(0.000000,248.000000) scale(0.100000,-0.100000)"
fill="#000000" stroke="none">
<path d="M1542 2358 c-8 -8 -12 -47 -13 -107 0 -53 -4 -116 -7 -141 l-7 -45
-219 -17 c-121 -10 -225 -23 -233 -29 -18 -15 -17 -54 2 -69 16 -13 91 -12
358 6 l97 7 0 -86 c0 -75 -3 -88 -19 -96 -11 -6 -95 -18 -188 -27 -187 -18
-217 -27 -221 -65 -6 -51 11 -54 212 -36 101 9 189 17 197 19 17 4 24 -95 12
-156 l-8 -39 -115 -23 c-63 -12 -178 -35 -255 -49 -77 -15 -162 -33 -190 -40
-27 -7 -62 -15 -77 -19 -50 -12 -61 -73 -17 -97 15 -7 34 -6 72 5 29 8 122 29
207 46 85 16 200 39 255 50 116 24 416 50 560 49 55 0 167 -6 250 -13 84 -8
159 -10 172 -5 44 16 37 81 -9 92 -42 9 -151 12 -446 12 -338 0 -305 -13 -300
119 4 94 -20 82 228 117 122 17 169 28 182 41 21 21 23 38 5 62 -17 23 -30 23
-197 -3 -74 -11 -153 -21 -175 -23 l-40 -3 -2 77 c0 45 4 83 10 91 11 13 142
36 461 80 64 9 81 15 93 34 14 21 14 26 -2 49 -16 25 -19 26 -83 19 -37 -3
-132 -17 -212 -30 -80 -13 -171 -26 -202 -30 l-58 -7 0 134 c0 141 -5 158 -45
158 -12 0 -26 -5 -33 -12z"/>
<path d="M521 2196 c-17 -21 -28 -157 -42 -541 -15 -421 -9 -1449 9 -1481 15
-29 37 -36 66 -22 31 13 37 40 25 98 -5 25 -12 250 -15 500 -5 438 1 730 27
1212 10 176 10 220 -1 233 -16 19 -54 20 -69 1z"/>
<path d="M718 1848 c-31 -25 -31 -54 0 -90 16 -18 57 -90 90 -160 63 -131 81
-150 122 -128 34 18 24 62 -50 209 -81 163 -119 202 -162 169z"/>
<path d="M257 1698 c-18 -14 -127 -381 -127 -429 0 -41 38 -59 75 -35 14 9 25
22 25 30 0 7 25 99 55 205 57 197 59 220 19 235 -22 8 -28 8 -47 -6z"/>
<path d="M1660 1279 c-220 -24 -361 -53 -385 -79 -12 -14 -15 -27 -11 -47 10
-40 10 -39 -3 -258 -7 -110 -16 -315 -20 -455 -7 -210 -6 -259 6 -277 32 -53
102 -7 88 57 -4 17 -2 131 4 253 21 421 32 622 36 643 4 18 18 23 112 38 124
19 274 36 320 36 l31 0 4 -152 c6 -281 3 -736 -4 -744 -5 -4 -17 1 -27 10 -23
21 -60 18 -74 -5 -16 -25 -1 -60 43 -107 34 -35 47 -42 80 -42 32 0 43 5 57
27 17 25 18 65 17 550 -1 616 10 564 -118 562 -45 -1 -115 -5 -156 -10z"/>
</g>
</svg>
