<?xml version="1.0" standalone="no"?>
<!DOCTYPE svg PUBLIC "-//W3C//DTD SVG 20010904//EN"
 "http://www.w3.org/TR/2001/REC-SVG-20010904/DTD/svg10.dtd">
<svg version="1.0" xmlns="http://www.w3.org/2000/svg"
 width="248.000000pt" height="248.000000pt" viewBox="0 0 248.000000 248.000000"
 preserveAspectRatio="xMidYMid meet">
<metadata>
Created by potrace 1.10, written by Peter Selinger 2001-2011
</metadata>
<g transform="translate(0.000000,248.000000) scale(0.100000,-0.100000)"
fill="#000000" stroke="none">
<path d="M1542 2358 c-8 -8 -12 -47 -13 -107 0 -53 -4 -116 -7 -141 l-7 -45
-219 -17 c-121 -10 -225 -23 -233 -29 -18 -15 -17 -54 2 -69 16 -13 91 -12
358 6 l97 7 0 -86 c0 -75 -3 -88 -19 -96 -11 -6 -95 -18 -188 -27 -187 -18
-217 -27 -221 -65 -6 -51 11 -54 212 -36 101 9 189 17 197 19 11 2 14 -19 14
-117 0 -66 4 -126 8 -132 12 -19 51 -16 70 5 13 14 17 44 19 137 l3 119 30 7
c17 3 104 17 194 30 123 17 169 27 183 41 21 21 23 38 5 62 -17 23 -30 23
-197 -3 -74 -11 -153 -21 -175 -23 l-40 -3 -2 77 c0 45 4 83 10 91 11 13 142
36 461 80 64 9 81 15 93 34 14 21 14 26 -2 49 -16 25 -19 26 -83 19 -37 -3
-132 -17 -212 -30 -80 -13 -171 -26 -202 -30 l-58 -7 0 134 c0 141 -5 158 -45
158 -12 0 -26 -5 -33 -12z"/>
<path d="M521 2196 c-17 -21 -28 -157 -42 -541 -15 -421 -9 -1449 9 -1481 15
-29 37 -36 66 -22 31 13 37 40 25 98 -5 25 -12 250 -15 500 -5 438 1 730 27
1212 10 176 10 220 -1 233 -16 19 -54 20 -69 1z"/>
<path d="M718 1848 c-31 -25 -31 -54 0 -90 16 -18 57 -90 90 -160 63 -131 81
-150 122 -128 34 18 24 62 -50 209 -81 163 -119 202 -162 169z"/>
<path d="M257 1698 c-18 -14 -127 -381 -127 -429 0 -41 38 -59 75 -35 14 9 25
22 25 30 0 7 25 99 55 205 57 197 59 220 19 235 -22 8 -28 8 -47 -6z"/>
</g>
</svg>
