<?xml version="1.0" standalone="no"?>
<!DOCTYPE svg PUBLIC "-//W3C//DTD SVG 20010904//EN"
 "http://www.w3.org/TR/2001/REC-SVG-20010904/DTD/svg10.dtd">
<svg version="1.0" xmlns="http://www.w3.org/2000/svg"
 width="248.000000pt" height="248.000000pt" viewBox="0 0 248.000000 248.000000"
 preserveAspectRatio="xMidYMid meet">
<metadata>
Created by potrace 1.10, written by Peter Selinger 2001-2011
</metadata>
<g transform="translate(0.000000,248.000000) scale(0.100000,-0.100000)"
fill="#000000" stroke="none">
<path d="M718 1848 c-31 -25 -31 -54 0 -90 16 -18 57 -90 90 -160 63 -131 81
-150 122 -128 34 18 24 62 -50 209 -81 163 -119 202 -162 169z"/>
<path d="M257 1698 c-18 -14 -127 -381 -127 -429 0 -41 38 -59 75 -35 14 9 25
22 25 30 0 7 25 99 55 205 57 197 59 220 19 235 -22 8 -28 8 -47 -6z"/>
</g>
</svg>
