<?xml version="1.0" standalone="no"?>
<!DOCTYPE svg PUBLIC "-//W3C//DTD SVG 20010904//EN"
 "http://www.w3.org/TR/2001/REC-SVG-20010904/DTD/svg10.dtd">
<svg version="1.0" xmlns="http://www.w3.org/2000/svg"
 width="248.000000pt" height="248.000000pt" viewBox="0 0 248.000000 248.000000"
 preserveAspectRatio="xMidYMid meet">
<metadata>
Created by potrace 1.10, written by Peter Selinger 2001-2011
</metadata>
<g transform="translate(0.000000,248.000000) scale(0.100000,-0.100000)"
fill="#000000" stroke="none">
<path d="M1960 2330 c-52 -5 -180 -13 -285 -19 -104 -6 -266 -16 -360 -21
-330 -20 -481 -30 -560 -40 -93 -12 -141 -17 -172 -19 -26 -1 -63 -34 -63 -56
0 -25 39 -57 63 -51 42 10 404 45 535 51 74 3 141 9 150 12 16 7 15 4 -18 -47
-94 -143 -117 -173 -143 -186 -32 -17 -119 -23 -152 -10 -12 4 -27 2 -38 -7
-18 -12 -19 -40 -24 -428 -3 -278 -2 -423 6 -441 16 -43 63 -61 134 -54 68 8
68 14 -9 -90 -130 -174 -385 -385 -566 -469 -76 -35 -95 -55 -82 -89 8 -20 45
-30 84 -22 75 14 311 173 442 295 l64 60 30 -23 c16 -13 71 -51 122 -86 50
-34 92 -64 92 -65 0 -2 -28 -24 -62 -50 -77 -58 -216 -129 -317 -162 -42 -13
-81 -29 -88 -35 -19 -16 -16 -53 7 -73 20 -18 23 -18 98 5 89 27 279 119 337
163 22 17 57 46 77 65 l36 34 29 -19 c63 -44 183 -102 263 -128 47 -16 153
-54 235 -85 215 -81 263 -93 380 -93 113 0 158 14 163 51 7 45 -12 52 -132 52
-131 0 -170 9 -372 85 -82 32 -182 68 -221 81 -91 30 -252 110 -259 129 -3 8
8 31 24 52 16 21 44 65 61 97 18 33 55 92 83 132 75 110 55 142 -80 125 -42
-6 -111 -13 -152 -16 -41 -3 -97 -8 -124 -11 -48 -6 -49 -6 -34 15 8 12 31 38
50 59 l35 38 147 13 c131 11 149 11 159 -2 21 -28 72 -26 87 3 13 25 44 247
60 430 6 74 13 151 16 170 11 90 23 312 17 326 -14 38 -93 43 -298 19 -72 -9
-138 -18 -149 -21 -16 -5 -14 1 10 46 16 28 49 77 74 108 l46 57 75 7 c160 14
540 38 616 38 84 0 103 8 103 47 0 49 -81 66 -250 53z m-334 -446 c-3 -9 -6
-42 -6 -74 0 -70 12 -65 -204 -85 -84 -8 -202 -24 -262 -35 -167 -30 -157 -34
-149 53 4 39 9 75 11 79 3 4 19 9 37 12 30 5 333 51 387 59 14 3 63 5 109 6
72 1 82 -1 77 -15z m-22 -311 c-3 -38 -11 -71 -17 -75 -6 -4 -45 -10 -87 -13
-82 -7 -114 -12 -335 -49 -82 -14 -153 -26 -157 -26 -5 0 -8 33 -8 74 l0 73
83 16 c87 17 258 41 397 55 147 16 133 22 124 -55z m-28 -278 c-8 -117 -10
-123 -49 -130 -60 -9 -518 -48 -522 -43 -6 5 -9 178 -4 182 8 5 515 83 558 85
l24 1 -7 -95z m-146 -459 c0 -2 -19 -37 -41 -78 -51 -89 -98 -150 -113 -146
-25 7 -235 154 -233 163 5 15 133 44 237 54 121 11 150 12 150 7z"/>
</g>
</svg>
