<?xml version="1.0" standalone="no"?>
<!DOCTYPE svg PUBLIC "-//W3C//DTD SVG 20010904//EN"
 "http://www.w3.org/TR/2001/REC-SVG-20010904/DTD/svg10.dtd">
<svg version="1.0" xmlns="http://www.w3.org/2000/svg"
 width="248.000000pt" height="248.000000pt" viewBox="0 0 248.000000 248.000000"
 preserveAspectRatio="xMidYMid meet">
<metadata>
Created by potrace 1.10, written by Peter Selinger 2001-2011
</metadata>
<g transform="translate(0.000000,248.000000) scale(0.100000,-0.100000)"
fill="#000000" stroke="none">
<path d="M1960 2330 c-52 -5 -180 -13 -285 -19 -104 -6 -266 -16 -360 -21
-330 -20 -481 -30 -560 -40 -93 -12 -141 -17 -172 -19 -26 -1 -63 -34 -63 -56
0 -25 39 -57 63 -51 36 8 394 44 512 51 61 3 198 10 305 15 107 5 290 16 405
25 116 8 248 15 296 15 91 0 109 8 109 47 0 49 -81 66 -250 53z"/>
</g>
</svg>
