<?xml version="1.0" standalone="no"?>
<!DOCTYPE svg PUBLIC "-//W3C//DTD SVG 20010904//EN"
 "http://www.w3.org/TR/2001/REC-SVG-20010904/DTD/svg10.dtd">
<svg version="1.0" xmlns="http://www.w3.org/2000/svg"
 width="248.000000pt" height="248.000000pt" viewBox="0 0 248.000000 248.000000"
 preserveAspectRatio="xMidYMid meet">
<metadata>
Created by potrace 1.10, written by Peter Selinger 2001-2011
</metadata>
<g transform="translate(0.000000,248.000000) scale(0.100000,-0.100000)"
fill="#000000" stroke="none">
<path d="M435 2376 c-16 -24 -17 -113 -14 -1144 4 -1050 5 -1120 22 -1145 20
-31 57 -36 78 -11 18 22 14 2255 -4 2294 -17 36 -61 39 -82 6z"/>
<path d="M2188 2223 c-19 -22 -41 -68 -75 -153 -14 -36 -33 -76 -43 -90 -24
-36 -90 -179 -90 -196 0 -24 46 -47 69 -35 25 14 58 61 73 103 6 18 21 49 33
68 34 56 115 249 115 273 0 45 -52 64 -82 30z"/>
<path d="M1495 2186 c-15 -22 -15 -30 1 -88 9 -34 24 -112 34 -173 43 -259 62
-331 88 -337 59 -14 80 37 57 138 -9 38 -25 119 -35 179 -32 175 -51 258 -66
283 -19 30 -59 29 -79 -2z"/>
<path d="M1086 2158 c-21 -29 -20 -36 9 -142 14 -50 41 -174 60 -275 20 -101
41 -191 47 -198 18 -22 61 -12 75 18 11 22 7 57 -27 235 -22 115 -46 227 -54
249 -8 22 -17 55 -20 74 -3 19 -11 40 -17 48 -17 20 -56 16 -73 -9z"/>
<path d="M612 1948 c-23 -23 -12 -64 36 -138 26 -41 65 -104 86 -140 64 -108
84 -130 115 -130 64 0 66 42 6 132 -25 37 -45 71 -45 74 0 10 -76 129 -113
177 -30 38 -62 48 -85 25z"/>
<path d="M220 1785 c-7 -8 -16 -45 -20 -82 -14 -118 -48 -284 -85 -411 -38
-133 -42 -161 -23 -180 17 -17 52 -15 71 6 19 22 90 268 111 387 40 221 41
241 23 269 -20 29 -57 35 -77 11z"/>
<path d="M1866 1508 c-9 -12 -16 -32 -16 -44 0 -36 -103 -288 -154 -378 -13
-22 -29 -58 -36 -78 -6 -21 -16 -38 -20 -38 -5 0 -25 24 -45 53 -19 28 -60 86
-90 127 -31 41 -76 105 -100 142 -47 70 -82 91 -114 71 -42 -26 -9 -91 174
-338 28 -38 66 -91 84 -116 l33 -47 -22 -41 c-11 -24 -48 -79 -81 -123 -33
-45 -67 -95 -75 -111 -19 -35 -120 -160 -163 -201 -46 -44 -39 -106 13 -106
10 0 34 11 52 25 40 30 143 156 186 228 18 28 60 90 95 135 l62 84 44 -69 c55
-83 109 -180 144 -253 33 -69 50 -90 78 -90 29 0 45 19 45 52 0 36 -91 210
-183 351 -40 61 -71 113 -70 116 11 31 80 181 92 200 26 40 91 191 127 295 35
99 37 133 12 163 -16 20 -55 15 -72 -9z"/>
<path d="M984 1345 c-11 -17 -14 -33 -9 -48 5 -12 11 -269 15 -572 4 -302 11
-563 15 -579 13 -50 34 -52 435 -45 438 8 698 22 737 41 21 10 28 20 28 43 0
48 -27 54 -190 43 -77 -5 -314 -11 -527 -14 l-388 -6 0 474 c0 478 -10 637
-41 674 -18 22 -57 17 -75 -11z"/>
</g>
</svg>
