<?xml version="1.0" standalone="no"?>
<!DOCTYPE svg PUBLIC "-//W3C//DTD SVG 20010904//EN"
 "http://www.w3.org/TR/2001/REC-SVG-20010904/DTD/svg10.dtd">
<svg version="1.0" xmlns="http://www.w3.org/2000/svg"
 width="248.000000pt" height="248.000000pt" viewBox="0 0 248.000000 248.000000"
 preserveAspectRatio="xMidYMid meet">
<metadata>
Created by potrace 1.10, written by Peter Selinger 2001-2011
</metadata>
<g transform="translate(0.000000,248.000000) scale(0.100000,-0.100000)"
fill="#000000" stroke="none">
<path d="M1860 2290 c-41 -4 -122 -8 -180 -9 -140 -2 -279 -18 -307 -37 -26
-17 -30 -55 -8 -74 12 -10 35 -10 108 -1 84 10 296 22 702 40 l150 6 9 27 c7
19 6 31 -4 42 -10 14 -41 16 -204 14 -105 -1 -225 -4 -266 -8z"/>
<path d="M1139 2235 c-3 -2 -72 -7 -154 -10 -445 -17 -653 -36 -685 -64 -25
-21 -26 -34 -11 -115 16 -81 9 -315 -14 -491 -60 -463 -105 -667 -176 -807
-25 -49 -24 -84 1 -98 47 -25 85 20 135 160 51 143 84 313 140 720 7 52 14 91
15 85 1 -5 3 -17 4 -25 2 -8 6 -114 10 -235 8 -271 0 -257 141 -244 74 6 101
5 107 -4 7 -12 8 -486 0 -650 -4 -90 -11 -105 -30 -62 -17 36 -60 44 -84 15
-10 -12 -16 -31 -13 -40 9 -27 91 -172 115 -202 24 -31 60 -37 80 -13 16 19
30 301 33 675 l2 295 80 7 c44 5 111 10 149 12 60 3 73 7 92 29 12 15 27 50
32 79 48 260 60 356 61 474 1 119 2 118 -196 110 -87 -4 -166 -9 -176 -12 -16
-5 -17 4 -11 143 4 81 7 149 8 150 1 1 65 5 141 8 182 7 272 14 300 25 29 11
40 42 25 70 -9 16 -21 20 -64 20 -29 0 -55 -2 -57 -5z m-447 -162 c3 -21 0
-87 -6 -147 l-11 -109 -125 -22 c-69 -12 -132 -24 -140 -26 -23 -6 -28 309 -5
317 20 8 147 21 221 23 l61 1 5 -37z m378 -422 c-5 -46 -12 -86 -14 -89 -3 -2
-90 -11 -193 -18 -103 -8 -226 -21 -272 -28 -47 -8 -88 -13 -93 -10 -4 3 -8
43 -8 89 l0 84 38 10 c84 22 527 63 544 51 4 -3 3 -43 -2 -89z m-34 -223 c-3
-13 -10 -57 -16 -98 -6 -41 -13 -77 -16 -79 -11 -12 -480 -45 -495 -35 -5 3
-9 45 -9 94 l0 88 68 12 c107 19 289 38 385 39 86 1 87 1 83 -21z"/>
<path d="M872 978 c-19 -19 -14 -57 12 -91 13 -18 34 -52 46 -77 12 -25 51
-89 86 -142 35 -53 64 -101 64 -106 0 -17 37 -42 63 -42 20 0 28 6 33 25 10
39 -1 66 -66 164 -34 50 -73 115 -87 144 -55 111 -115 161 -151 125z"/>
<path d="M436 928 c-9 -12 -16 -33 -16 -45 0 -36 -115 -252 -181 -339 -62 -83
-69 -103 -43 -128 27 -27 51 -18 103 41 53 62 170 259 202 343 22 57 25 120 7
138 -19 19 -55 14 -72 -10z"/>
</g>
</svg>
