<?xml version="1.0" standalone="no"?>
<!DOCTYPE svg PUBLIC "-//W3C//DTD SVG 20010904//EN"
 "http://www.w3.org/TR/2001/REC-SVG-20010904/DTD/svg10.dtd">
<svg version="1.0" xmlns="http://www.w3.org/2000/svg"
 width="248.000000pt" height="248.000000pt" viewBox="0 0 248.000000 248.000000"
 preserveAspectRatio="xMidYMid meet">
<metadata>
Created by potrace 1.10, written by Peter Selinger 2001-2011
</metadata>
<g transform="translate(0.000000,248.000000) scale(0.100000,-0.100000)"
fill="#000000" stroke="none">
<path d="M1139 2235 c-3 -2 -72 -7 -154 -10 -445 -17 -653 -36 -685 -64 -25
-21 -26 -34 -11 -115 16 -81 9 -315 -14 -491 -60 -463 -105 -667 -176 -807
-25 -49 -24 -84 1 -98 31 -17 57 -3 84 43 59 103 112 303 152 571 47 318 54
391 56 606 l3 214 35 7 c19 4 85 11 146 15 l112 7 4 -39 c2 -21 -1 -91 -7
-157 -9 -97 -9 -121 2 -138 16 -21 55 -25 71 -6 14 17 32 165 32 264 l0 83 33
1 c172 3 381 17 411 29 29 11 41 42 26 70 -9 16 -21 20 -64 20 -29 0 -55 -2
-57 -5z"/>
</g>
</svg>
