<?xml version="1.0" standalone="no"?>
<!DOCTYPE svg PUBLIC "-//W3C//DTD SVG 20010904//EN"
 "http://www.w3.org/TR/2001/REC-SVG-20010904/DTD/svg10.dtd">
<svg version="1.0" xmlns="http://www.w3.org/2000/svg"
 width="248.000000pt" height="248.000000pt" viewBox="0 0 248.000000 248.000000"
 preserveAspectRatio="xMidYMid meet">
<metadata>
Created by potrace 1.10, written by Peter Selinger 2001-2011
</metadata>
<g transform="translate(0.000000,248.000000) scale(0.100000,-0.100000)"
fill="#000000" stroke="none">
<path d="M1790 2289 c-397 -23 -440 -31 -440 -83 0 -43 21 -50 123 -38 152 18
284 24 291 14 8 -13 -67 -154 -118 -222 -61 -80 -69 -96 -57 -119 25 -46 71
-32 124 38 71 93 157 254 157 294 0 19 47 25 268 33 168 7 184 9 194 27 7 14
7 27 -1 43 l-11 24 -192 -2 c-106 -1 -258 -5 -338 -9z"/>
<path d="M1139 2235 c-3 -2 -72 -7 -154 -10 -445 -17 -653 -36 -685 -64 -25
-21 -26 -34 -11 -115 16 -81 9 -315 -14 -491 -60 -463 -105 -667 -176 -807
-25 -49 -24 -84 1 -98 31 -17 57 -3 84 43 75 130 133 386 190 837 6 52 14 88
18 80 3 -9 7 -74 8 -145 2 -72 4 -146 6 -165 1 -19 3 -65 3 -102 1 -76 16
-100 59 -93 15 2 63 7 108 10 l81 5 0 -287 c0 -327 -5 -463 -16 -463 -4 0 -13
11 -19 25 -17 36 -60 44 -84 15 -10 -12 -16 -31 -13 -40 9 -27 91 -172 115
-202 23 -30 60 -37 78 -15 21 25 23 82 35 867 l2 105 80 7 c44 5 110 9 147 11
100 6 119 29 137 172 7 50 19 119 27 154 8 35 17 124 21 197 9 186 17 178
-192 170 -88 -4 -168 -9 -178 -12 -16 -5 -17 4 -11 143 4 81 8 149 9 150 0 2
93 7 206 12 112 5 216 14 231 20 31 12 43 42 28 71 -9 16 -21 20 -64 20 -29 0
-55 -2 -57 -5z m-447 -162 c5 -38 -13 -249 -22 -255 -3 -2 -59 -13 -125 -24
-66 -12 -127 -23 -135 -25 -23 -6 -28 309 -5 317 20 8 147 21 221 23 l61 1 5
-37z m383 -380 c-3 -27 -8 -67 -11 -90 -6 -49 7 -46 -243 -63 -85 -6 -191 -17
-235 -25 -44 -8 -83 -12 -88 -9 -11 7 -10 171 1 178 8 5 65 13 331 44 41 5
115 10 163 11 l88 1 -6 -47z m-51 -342 c-8 -52 -17 -97 -20 -100 -11 -12 -480
-45 -495 -35 -5 3 -9 45 -9 94 l0 88 63 11 c129 24 454 52 469 41 3 -3 0 -47
-8 -99z"/>
<path d="M1407 1848 c-15 -11 -18 -39 -21 -218 -14 -729 -17 -966 -9 -976 15
-21 50 -25 67 -9 16 17 19 35 16 115 -2 54 17 742 26 925 4 100 2 134 -8 146
-19 24 -51 31 -71 17z"/>
<path d="M872 978 c-19 -19 -14 -57 12 -91 13 -18 34 -52 46 -77 12 -25 51
-89 86 -142 35 -53 64 -101 64 -106 0 -17 37 -42 63 -42 20 0 28 6 33 25 10
39 -1 66 -66 164 -34 50 -73 115 -87 144 -55 111 -115 161 -151 125z"/>
<path d="M436 928 c-9 -12 -16 -33 -16 -45 0 -36 -115 -252 -181 -339 -62 -83
-69 -103 -43 -128 27 -27 51 -18 103 41 53 62 170 259 202 343 22 57 25 120 7
138 -19 19 -55 14 -72 -10z"/>
</g>
</svg>
