<?xml version="1.0" standalone="no"?>
<!DOCTYPE svg PUBLIC "-//W3C//DTD SVG 20010904//EN"
 "http://www.w3.org/TR/2001/REC-SVG-20010904/DTD/svg10.dtd">
<svg version="1.0" xmlns="http://www.w3.org/2000/svg"
 width="248.000000pt" height="248.000000pt" viewBox="0 0 248.000000 248.000000"
 preserveAspectRatio="xMidYMid meet">
<metadata>
Created by potrace 1.10, written by Peter Selinger 2001-2011
</metadata>
<g transform="translate(0.000000,248.000000) scale(0.100000,-0.100000)"
fill="#000000" stroke="none">
<path d="M1890 2256 c-6 -8 -18 -43 -25 -78 -8 -35 -24 -90 -37 -123 -24 -60
-24 -60 -69 -63 -24 -1 -141 -13 -259 -27 -357 -42 -317 -41 -324 -8 -3 15
-13 68 -22 117 -20 102 -50 149 -92 144 -40 -5 -49 -30 -29 -85 17 -47 51
-213 45 -218 -2 -1 -52 -10 -112 -19 -120 -18 -156 -34 -156 -70 0 -46 20 -51
143 -32 168 25 150 35 168 -99 9 -63 22 -121 29 -130 18 -22 57 -19 74 8 13
19 13 34 0 117 -20 136 -20 138 19 144 119 18 508 58 514 53 3 -4 -15 -53 -42
-110 -26 -58 -45 -112 -44 -122 5 -25 32 -39 61 -32 21 6 35 26 70 99 25 51
51 110 59 131 8 24 21 39 34 42 11 2 91 6 177 9 176 6 198 13 198 62 0 43 -31
56 -107 44 -110 -16 -243 -23 -243 -11 0 6 11 45 25 87 27 82 32 153 13 172
-16 16 -53 15 -68 -2z"/>
<path d="M352 2218 c-19 -19 -14 -53 13 -78 23 -21 75 -154 75 -191 0 -10 -50
-40 -150 -88 -87 -42 -154 -81 -161 -92 -14 -26 13 -69 42 -69 12 0 82 29 156
65 123 59 153 72 153 61 0 -1 11 -48 24 -102 13 -54 29 -130 35 -167 l12 -69
-58 -70 c-32 -39 -74 -92 -94 -117 -20 -25 -89 -92 -153 -149 -117 -104 -134
-130 -104 -160 24 -24 60 -12 117 36 107 91 185 168 240 237 l56 70 6 -30 c11
-48 10 -251 -1 -370 -13 -138 -52 -343 -89 -459 l-28 -90 -52 67 c-53 68 -82
82 -109 55 -22 -22 -12 -60 34 -125 81 -113 103 -134 138 -131 21 2 37 13 52
36 29 43 79 194 104 318 11 54 26 124 33 154 17 79 16 688 -1 797 -7 46 -26
137 -43 204 -16 66 -29 124 -29 128 0 8 97 67 165 102 33 16 44 51 25 75 -23
26 -81 17 -150 -25 -36 -22 -68 -37 -72 -35 -3 2 -18 40 -33 84 -30 91 -70
140 -114 140 -15 0 -32 -5 -39 -12z"/>
<path d="M1595 1369 c-355 -23 -702 -72 -753 -105 -19 -13 -23 -22 -19 -47 24
-146 39 -299 52 -512 16 -274 30 -389 52 -406 13 -11 23 -11 148 10 33 5 80
13 105 16 25 4 170 9 323 12 296 5 359 -1 385 -38 14 -20 52 -25 81 -9 10 5
25 28 34 52 46 123 124 519 153 773 7 66 16 143 20 171 6 44 4 54 -15 73 -20
20 -29 21 -233 20 -117 -1 -267 -5 -333 -10z m469 -88 c11 -18 -23 -305 -38
-319 -11 -11 -61 -17 -196 -23 -100 -5 -218 -13 -263 -18 -45 -5 -85 -7 -89
-3 -3 4 -4 82 -1 175 5 144 8 167 22 168 9 1 95 7 191 13 219 16 367 19 374 7z
m-683 -58 c2 -64 -2 -212 -7 -259 l-6 -51 -106 -7 c-59 -4 -149 -10 -199 -14
-51 -4 -93 -7 -94 -7 0 0 -8 67 -18 148 -10 90 -13 151 -8 154 17 10 331 61
385 62 50 1 52 0 53 -26z m629 -392 c0 -10 -11 -74 -25 -142 -25 -119 -31
-144 -54 -235 l-11 -42 -44 13 c-26 8 -115 14 -229 17 l-187 3 0 120 c0 66 3
150 6 186 l7 66 121 8 c66 4 159 11 206 15 47 4 113 8 148 8 54 2 62 0 62 -17z
m-641 -133 c-1 -62 -4 -144 -8 -183 l-6 -70 -140 -16 c-78 -9 -157 -19 -177
-23 -45 -8 -45 -9 -53 144 -3 63 -8 138 -11 167 -5 46 -3 53 18 64 21 12 151
23 316 27 l62 2 -1 -112z"/>
</g>
</svg>
