<?xml version="1.0" standalone="no"?>
<!DOCTYPE svg PUBLIC "-//W3C//DTD SVG 20010904//EN"
 "http://www.w3.org/TR/2001/REC-SVG-20010904/DTD/svg10.dtd">
<svg version="1.0" xmlns="http://www.w3.org/2000/svg"
 width="248.000000pt" height="248.000000pt" viewBox="0 0 248.000000 248.000000"
 preserveAspectRatio="xMidYMid meet">
<metadata>
Created by potrace 1.10, written by Peter Selinger 2001-2011
</metadata>
<g transform="translate(0.000000,248.000000) scale(0.100000,-0.100000)"
fill="#000000" stroke="none">
<path d="M352 2218 c-19 -19 -14 -53 13 -78 23 -21 75 -154 75 -191 0 -10 -50
-40 -150 -88 -87 -42 -154 -81 -161 -92 -14 -26 13 -69 42 -69 12 0 82 29 156
65 123 59 153 72 153 61 0 -1 11 -48 24 -102 13 -54 29 -130 35 -167 l12 -69
-58 -70 c-32 -39 -74 -92 -94 -117 -20 -25 -89 -92 -153 -149 -117 -104 -134
-130 -104 -160 24 -24 60 -12 117 36 107 91 185 168 240 237 l56 70 6 -30 c11
-48 10 -251 -1 -370 -13 -138 -52 -343 -89 -459 l-28 -90 -52 67 c-53 68 -82
82 -109 55 -22 -22 -12 -60 34 -125 81 -113 103 -134 138 -131 21 2 37 13 52
36 29 43 79 194 104 318 11 54 26 124 33 154 17 79 16 688 -1 797 -7 46 -26
137 -43 204 -16 66 -29 124 -29 128 0 8 97 67 165 102 33 16 44 51 25 75 -23
26 -81 17 -150 -25 -36 -22 -68 -37 -72 -35 -3 2 -18 40 -33 84 -30 91 -70
140 -114 140 -15 0 -32 -5 -39 -12z"/>
<path d="M2155 2009 c-27 -5 -160 -13 -295 -18 -135 -5 -297 -17 -360 -25 -63
-9 -176 -22 -250 -30 -204 -23 -391 -54 -417 -71 -27 -18 -30 -56 -7 -75 12
-11 46 -9 192 13 97 15 222 31 277 37 55 6 173 19 263 30 90 11 277 24 417 30
279 10 295 14 295 66 0 23 -6 34 -25 42 -14 7 -29 11 -33 11 -4 -1 -29 -5 -57
-10z"/>
</g>
</svg>
