<?xml version="1.0" standalone="no"?>
<!DOCTYPE svg PUBLIC "-//W3C//DTD SVG 20010904//EN"
 "http://www.w3.org/TR/2001/REC-SVG-20010904/DTD/svg10.dtd">
<svg version="1.0" xmlns="http://www.w3.org/2000/svg"
 width="248.000000pt" height="248.000000pt" viewBox="0 0 248.000000 248.000000"
 preserveAspectRatio="xMidYMid meet">
<metadata>
Created by potrace 1.10, written by Peter Selinger 2001-2011
</metadata>
<g transform="translate(0.000000,248.000000) scale(0.100000,-0.100000)"
fill="#000000" stroke="none">
<path d="M1890 2256 c-6 -8 -18 -43 -25 -78 -8 -35 -24 -90 -37 -123 -24 -60
-24 -60 -69 -63 -24 -1 -141 -13 -259 -27 -357 -42 -317 -41 -324 -8 -3 15
-13 68 -22 117 -20 102 -50 149 -92 144 -40 -5 -49 -30 -29 -85 17 -47 51
-213 45 -218 -2 -1 -52 -10 -112 -19 -120 -18 -156 -34 -156 -70 0 -46 20 -51
143 -32 168 25 150 35 168 -99 9 -63 22 -121 29 -130 18 -22 57 -19 74 8 13
19 13 34 0 117 -20 136 -20 138 19 144 119 18 508 58 514 53 3 -4 -15 -53 -42
-110 -26 -58 -45 -112 -44 -122 5 -25 32 -39 61 -32 21 6 35 26 70 99 25 51
51 110 59 131 8 24 21 39 34 42 11 2 91 6 177 9 176 6 198 13 198 62 0 43 -31
56 -107 44 -110 -16 -243 -23 -243 -11 0 6 11 45 25 87 27 82 32 153 13 172
-16 16 -53 15 -68 -2z"/>
<path d="M352 2218 c-19 -19 -14 -53 13 -78 23 -21 75 -154 75 -191 0 -10 -50
-40 -150 -88 -87 -42 -154 -81 -161 -92 -14 -26 13 -69 42 -69 12 0 82 29 156
65 123 59 153 72 153 61 0 -1 11 -48 24 -102 13 -54 29 -130 35 -167 l12 -69
-58 -70 c-32 -39 -74 -92 -94 -117 -20 -25 -89 -92 -153 -149 -117 -104 -134
-130 -104 -160 24 -24 60 -12 117 36 107 91 185 168 240 237 l56 70 6 -30 c11
-48 10 -251 -1 -370 -13 -138 -52 -343 -89 -459 l-28 -90 -52 67 c-53 68 -82
82 -109 55 -22 -22 -12 -60 34 -125 81 -113 103 -134 138 -131 21 2 37 13 52
36 29 43 79 194 104 318 11 54 26 124 33 154 17 79 16 688 -1 797 -7 46 -26
137 -43 204 -16 66 -29 124 -29 128 0 8 97 67 165 102 33 16 44 51 25 75 -23
26 -81 17 -150 -25 -36 -22 -68 -37 -72 -35 -3 2 -18 40 -33 84 -30 91 -70
140 -114 140 -15 0 -32 -5 -39 -12z"/>
</g>
</svg>
