<?xml version="1.0" standalone="no"?>
<!DOCTYPE svg PUBLIC "-//W3C//DTD SVG 20010904//EN"
 "http://www.w3.org/TR/2001/REC-SVG-20010904/DTD/svg10.dtd">
<svg version="1.0" xmlns="http://www.w3.org/2000/svg"
 width="248.000000pt" height="248.000000pt" viewBox="0 0 248.000000 248.000000"
 preserveAspectRatio="xMidYMid meet">
<metadata>
Created by potrace 1.10, written by Peter Selinger 2001-2011
</metadata>
<g transform="translate(0.000000,248.000000) scale(0.100000,-0.100000)"
fill="#000000" stroke="none">
<path d="M352 2218 c-19 -19 -14 -53 13 -78 23 -21 75 -154 75 -191 0 -10 -50
-40 -150 -88 -87 -42 -154 -81 -161 -92 -14 -26 13 -69 42 -69 12 0 82 29 156
65 123 59 153 72 153 61 0 -1 11 -48 24 -102 13 -54 29 -130 35 -167 l12 -69
-58 -70 c-32 -39 -74 -92 -94 -117 -20 -25 -89 -92 -153 -149 -117 -104 -134
-130 -104 -160 24 -24 60 -12 117 36 107 91 185 168 240 237 l56 70 6 -30 c12
-56 9 -269 -6 -405 -16 -147 -51 -323 -88 -440 l-23 -74 -53 67 c-53 68 -82
82 -109 55 -22 -22 -12 -60 34 -125 81 -113 103 -134 138 -131 21 2 37 13 52
36 29 43 79 194 104 318 11 54 26 124 33 154 17 79 16 688 -1 797 -7 46 -26
137 -43 204 -16 66 -29 124 -29 128 0 8 97 67 165 102 33 16 44 51 25 75 -23
26 -81 17 -150 -25 -36 -22 -68 -37 -72 -35 -3 2 -18 40 -33 84 -30 91 -70
140 -114 140 -15 0 -32 -5 -39 -12z"/>
<path d="M1032 2208 c-16 -16 -15 -38 2 -79 14 -33 50 -209 44 -214 -2 -1 -52
-10 -112 -19 -120 -18 -156 -34 -156 -70 0 -46 20 -51 143 -32 168 25 150 35
168 -99 9 -63 22 -121 29 -130 18 -22 57 -19 74 8 13 19 13 34 0 117 -20 136
-20 138 19 144 181 27 538 59 739 66 271 10 288 14 288 66 0 44 -31 56 -107
43 -32 -5 -168 -14 -303 -19 -135 -5 -315 -18 -400 -28 -85 -11 -183 -23 -217
-27 -61 -6 -61 -6 -67 22 -3 15 -13 68 -22 117 -12 61 -25 97 -41 117 -26 30
-60 38 -81 17z"/>
</g>
</svg>
