<?xml version="1.0" standalone="no"?>
<!DOCTYPE svg PUBLIC "-//W3C//DTD SVG 20010904//EN"
 "http://www.w3.org/TR/2001/REC-SVG-20010904/DTD/svg10.dtd">
<svg version="1.0" xmlns="http://www.w3.org/2000/svg"
 width="248.000000pt" height="248.000000pt" viewBox="0 0 248.000000 248.000000"
 preserveAspectRatio="xMidYMid meet">
<metadata>
Created by potrace 1.10, written by Peter Selinger 2001-2011
</metadata>
<g transform="translate(0.000000,248.000000) scale(0.100000,-0.100000)"
fill="#000000" stroke="none">
<path d="M1945 2254 c-66 -7 -237 -27 -380 -44 -449 -53 -495 -64 -495 -113 0
-47 34 -56 139 -37 109 20 821 102 829 95 6 -5 -62 -185 -90 -236 -34 -62 -33
-103 3 -114 33 -11 66 20 103 97 37 80 116 297 116 321 0 23 -40 47 -75 46
-16 -1 -84 -8 -150 -15z"/>
<path d="M665 2069 c-82 -11 -170 -19 -195 -20 -127 -1 -273 -19 -291 -35 -24
-21 -24 -52 -1 -77 15 -17 17 -48 17 -341 0 -176 -6 -492 -13 -701 -16 -515
-16 -493 -2 -510 7 -8 21 -15 31 -15 11 0 27 -5 38 -11 14 -9 42 -7 127 10 60
12 168 28 241 37 122 14 134 14 158 -2 23 -15 27 -15 49 0 18 11 26 28 30 58
3 24 8 252 10 508 3 256 7 481 10 500 2 19 7 89 10 155 4 66 15 178 26 249 26
165 25 181 -2 200 -27 19 -53 19 -243 -5z m152 -116 c-3 -16 -10 -73 -17 -128
-20 -176 -17 -165 -53 -165 -29 0 -212 -31 -364 -61 -35 -7 -65 -11 -67 -8 -2
2 -6 81 -7 174 l-4 170 125 7 c69 4 170 14 225 22 55 7 115 14 134 15 31 1 33
-1 28 -26z m-51 -560 c-3 -98 -9 -199 -12 -225 -6 -44 -9 -48 -38 -53 -17 -2
-76 -12 -131 -20 -55 -9 -145 -24 -199 -34 l-99 -18 7 156 c3 86 9 184 12 218
6 60 8 62 38 68 17 3 74 15 126 25 52 11 140 28 195 39 55 10 102 19 104 20 2
0 1 -79 -3 -176z m-18 -625 l-3 -243 -110 -13 c-118 -13 -320 -46 -346 -57
-17 -6 -17 -6 -3 342 l6 142 52 10 c28 5 107 19 176 31 69 12 130 23 135 25 6
2 29 4 53 4 l42 1 -2 -242z"/>
</g>
</svg>
