<?xml version="1.0" standalone="no"?>
<!DOCTYPE svg PUBLIC "-//W3C//DTD SVG 20010904//EN"
 "http://www.w3.org/TR/2001/REC-SVG-20010904/DTD/svg10.dtd">
<svg version="1.0" xmlns="http://www.w3.org/2000/svg"
 width="248.000000pt" height="248.000000pt" viewBox="0 0 248.000000 248.000000"
 preserveAspectRatio="xMidYMid meet">
<metadata>
Created by potrace 1.10, written by Peter Selinger 2001-2011
</metadata>
<g transform="translate(0.000000,248.000000) scale(0.100000,-0.100000)"
fill="#000000" stroke="none">
<path d="M205 1970 c-4 -6 -8 -176 -9 -378 -2 -202 -8 -522 -14 -712 -16 -485
-16 -478 -2 -495 19 -22 57 -18 74 7 19 30 24 103 31 418 3 146 9 337 13 425
4 88 7 278 7 422 0 250 -1 263 -21 290 -22 29 -67 42 -79 23z"/>
</g>
</svg>
