<?xml version="1.0" standalone="no"?>
<!DOCTYPE svg PUBLIC "-//W3C//DTD SVG 20010904//EN"
 "http://www.w3.org/TR/2001/REC-SVG-20010904/DTD/svg10.dtd">
<svg version="1.0" xmlns="http://www.w3.org/2000/svg"
 width="248.000000pt" height="248.000000pt" viewBox="0 0 248.000000 248.000000"
 preserveAspectRatio="xMidYMid meet">
<metadata>
Created by potrace 1.10, written by Peter Selinger 2001-2011
</metadata>
<g transform="translate(0.000000,248.000000) scale(0.100000,-0.100000)"
fill="#000000" stroke="none">
<path d="M808 2348 c-9 -7 -45 -70 -81 -140 -93 -185 -188 -310 -294 -389 -43
-32 -53 -45 -53 -70 0 -22 6 -32 25 -41 22 -10 31 -7 77 24 74 50 130 108 210
220 80 112 200 341 191 366 -7 20 -32 42 -48 42 -6 0 -18 -6 -27 -12z"/>
</g>
</svg>
