<?xml version="1.0" standalone="no"?>
<!DOCTYPE svg PUBLIC "-//W3C//DTD SVG 20010904//EN"
 "http://www.w3.org/TR/2001/REC-SVG-20010904/DTD/svg10.dtd">
<svg version="1.0" xmlns="http://www.w3.org/2000/svg"
 width="248.000000pt" height="248.000000pt" viewBox="0 0 248.000000 248.000000"
 preserveAspectRatio="xMidYMid meet">
<metadata>
Created by potrace 1.10, written by Peter Selinger 2001-2011
</metadata>
<g transform="translate(0.000000,248.000000) scale(0.100000,-0.100000)"
fill="#000000" stroke="none">
<path d="M661 2386 c-8 -10 -12 -62 -12 -160 l1 -147 -25 -9 c-14 -5 -76 -14
-138 -20 -194 -17 -212 -24 -205 -71 6 -40 27 -44 180 -31 79 7 152 13 163 15
19 2 20 -3 17 -123 -2 -69 -8 -132 -12 -141 -6 -11 -34 -19 -92 -27 -46 -6
-131 -20 -190 -31 -59 -10 -115 -17 -125 -15 -27 7 -55 -19 -55 -51 0 -50 50
-67 132 -46 19 5 56 12 83 16 l47 6 0 -35 c0 -89 -99 -270 -187 -342 -83 -68
-101 -102 -71 -132 23 -23 54 -12 121 43 133 110 237 299 237 432 0 59 -12 52
120 73 41 6 90 14 108 17 l32 6 0 -154 c0 -137 2 -158 20 -187 31 -51 87 -72
196 -72 98 0 124 12 124 57 0 35 -23 45 -83 38 -69 -9 -132 8 -153 41 -14 21
-16 42 -11 132 10 172 4 163 132 185 117 19 135 27 135 61 0 54 -51 58 -260
20 -78 -14 -145 -22 -148 -18 -4 5 -6 66 -4 136 3 123 4 128 25 132 12 3 69
12 127 21 231 37 276 60 236 120 -19 28 -43 31 -101 11 -55 -19 -251 -50 -270
-42 -12 4 -15 29 -15 144 0 94 -4 142 -12 150 -16 16 -53 15 -67 -2z"/>
<path d="M602 1278 c-8 -8 -12 -50 -12 -125 0 -134 8 -127 -154 -145 -55 -6
-107 -15 -113 -21 -22 -16 -15 -55 12 -73 22 -14 36 -15 127 -4 57 6 108 12
113 13 14 3 15 -42 3 -148 -13 -115 -13 -136 4 -146 25 -16 67 -10 78 11 6 12
14 84 17 160 4 83 11 143 17 148 6 5 57 18 113 30 165 35 198 55 175 108 -15
31 -33 31 -158 -1 -153 -39 -144 -44 -144 78 0 108 -7 127 -45 127 -12 0 -26
-5 -33 -12z"/>
</g>
</svg>
