<?xml version="1.0" standalone="no"?>
<!DOCTYPE svg PUBLIC "-//W3C//DTD SVG 20010904//EN"
 "http://www.w3.org/TR/2001/REC-SVG-20010904/DTD/svg10.dtd">
<svg version="1.0" xmlns="http://www.w3.org/2000/svg"
 width="248.000000pt" height="248.000000pt" viewBox="0 0 248.000000 248.000000"
 preserveAspectRatio="xMidYMid meet">
<metadata>
Created by potrace 1.10, written by Peter Selinger 2001-2011
</metadata>
<g transform="translate(0.000000,248.000000) scale(0.100000,-0.100000)"
fill="#000000" stroke="none">
<path d="M661 2386 c-8 -10 -12 -62 -12 -160 l1 -147 -25 -9 c-14 -5 -76 -14
-138 -20 -194 -17 -212 -24 -205 -71 6 -40 27 -44 180 -31 79 7 152 13 163 15
19 2 20 -3 17 -123 -2 -69 -8 -132 -12 -140 -6 -10 -38 -19 -92 -27 -46 -6
-131 -21 -190 -32 -59 -10 -115 -17 -125 -15 -27 7 -55 -19 -55 -51 0 -50 49
-67 132 -46 19 5 96 19 170 31 74 12 209 35 300 51 91 15 208 36 260 44 103
18 120 26 120 59 0 54 -51 58 -260 20 -78 -14 -145 -22 -148 -18 -4 5 -6 66
-4 136 3 123 4 128 25 132 12 3 69 12 127 21 231 37 276 60 236 120 -19 28
-43 31 -101 11 -55 -19 -251 -50 -270 -42 -12 4 -15 29 -15 144 0 94 -4 142
-12 150 -16 16 -53 15 -67 -2z"/>
</g>
</svg>
