<?xml version="1.0" standalone="no"?>
<!DOCTYPE svg PUBLIC "-//W3C//DTD SVG 20010904//EN"
 "http://www.w3.org/TR/2001/REC-SVG-20010904/DTD/svg10.dtd">
<svg version="1.0" xmlns="http://www.w3.org/2000/svg"
 width="248.000000pt" height="248.000000pt" viewBox="0 0 248.000000 248.000000"
 preserveAspectRatio="xMidYMid meet">
<metadata>
Created by potrace 1.10, written by Peter Selinger 2001-2011
</metadata>
<g transform="translate(0.000000,248.000000) scale(0.100000,-0.100000)"
fill="#000000" stroke="none">
<path d="M661 2386 c-8 -10 -12 -62 -12 -160 l1 -147 -25 -9 c-14 -5 -76 -14
-138 -20 -194 -17 -212 -24 -205 -71 6 -40 27 -44 180 -31 79 7 152 13 163 15
19 2 20 -3 17 -123 -2 -69 -8 -132 -12 -141 -6 -11 -34 -19 -92 -27 -46 -6
-131 -20 -190 -31 -59 -10 -116 -17 -127 -14 -28 7 -64 -32 -56 -60 14 -45 58
-58 135 -38 19 5 56 12 83 16 l47 6 0 -35 c0 -89 -99 -270 -187 -342 -83 -68
-101 -102 -71 -132 23 -23 54 -12 121 43 133 110 237 299 237 432 0 59 -12 52
120 73 41 6 90 14 108 17 l32 6 0 -154 c0 -137 2 -158 20 -187 31 -51 87 -72
196 -72 98 0 124 12 124 57 0 35 -23 45 -83 38 -69 -9 -132 8 -153 41 -14 21
-16 42 -11 132 10 172 4 163 132 185 117 19 135 27 135 61 0 54 -51 58 -260
20 -78 -14 -145 -22 -148 -18 -4 5 -6 66 -4 136 3 123 4 128 25 132 12 3 69
12 127 21 231 37 276 60 236 120 -19 28 -43 31 -101 11 -55 -19 -251 -50 -270
-42 -12 4 -15 29 -15 144 0 94 -4 142 -12 150 -16 16 -53 15 -67 -2z"/>
<path d="M1493 2278 c-4 -7 -9 -83 -10 -168 -2 -85 -6 -182 -10 -215 l-8 -60
-97 -26 c-106 -28 -128 -41 -128 -73 0 -49 32 -56 136 -30 36 9 67 14 71 11
20 -20 -117 -591 -150 -623 -3 -3 -28 12 -55 35 -66 56 -122 54 -122 -5 0 -21
59 -83 113 -119 15 -9 27 -23 27 -29 0 -6 -25 -62 -55 -123 -40 -82 -72 -130
-116 -178 -51 -54 -60 -69 -55 -90 15 -60 90 -35 161 55 40 50 145 244 145
268 0 6 4 12 9 12 17 0 85 -43 130 -82 24 -21 54 -38 67 -38 28 0 54 34 47 61
-7 25 -73 82 -141 121 -30 17 -56 36 -59 44 -3 7 9 55 26 106 42 127 107 395
121 498 7 47 13 94 16 106 3 16 19 26 76 42 81 23 229 55 234 49 2 -1 -9 -59
-25 -127 -50 -221 -61 -320 -61 -529 0 -181 2 -201 26 -280 14 -48 34 -102 44
-121 21 -40 103 -120 146 -143 52 -27 146 -46 261 -52 105 -7 112 -6 133 15
20 20 21 29 18 155 -2 74 -7 138 -13 143 -21 20 -53 23 -70 5 -15 -14 -17 -30
-11 -107 3 -50 2 -97 -3 -105 -10 -15 -119 -10 -194 9 -111 30 -165 84 -208
210 -29 86 -33 108 -35 235 -2 77 1 169 6 205 37 261 77 446 112 516 38 78 12
116 -69 97 -26 -6 -115 -28 -197 -47 -83 -20 -151 -36 -151 -36 -1 0 0 83 3
185 4 160 2 188 -12 210 -18 27 -59 34 -73 13z"/>
<path d="M602 1278 c-8 -8 -12 -50 -12 -125 0 -134 8 -127 -154 -145 -55 -6
-107 -15 -113 -21 -22 -16 -15 -55 12 -73 22 -14 36 -15 127 -4 57 6 108 12
113 13 17 3 5 -221 -14 -251 -7 -12 -272 -117 -359 -143 -55 -17 -64 -87 -13
-104 10 -3 43 4 72 16 30 12 95 36 144 54 310 113 492 190 556 235 35 26 37
64 3 86 -18 12 -30 9 -111 -31 -101 -50 -173 -78 -174 -67 -6 47 5 219 14 228
7 6 58 20 114 32 165 34 198 55 175 108 -15 31 -33 31 -158 -1 -153 -39 -144
-44 -144 78 0 108 -7 127 -45 127 -12 0 -26 -5 -33 -12z"/>
<path d="M1450 450 c-27 -27 -26 -38 16 -95 19 -28 57 -85 84 -127 27 -42 60
-84 74 -94 24 -15 28 -15 51 0 36 24 31 50 -24 125 -27 36 -58 84 -69 107 -26
50 -75 104 -96 104 -9 0 -25 -9 -36 -20z"/>
<path d="M802 428 c-23 -23 -12 -61 37 -137 27 -42 60 -98 72 -124 31 -64 82
-77 108 -29 21 40 -131 294 -180 300 -13 2 -30 -3 -37 -10z"/>
<path d="M378 413 c-24 -28 -140 -200 -168 -248 -21 -37 -22 -47 -12 -69 8
-18 19 -26 36 -26 30 0 27 -3 117 125 106 149 125 195 97 223 -17 17 -53 15
-70 -5z"/>
</g>
</svg>
