<?xml version="1.0" standalone="no"?>
<!DOCTYPE svg PUBLIC "-//W3C//DTD SVG 20010904//EN"
 "http://www.w3.org/TR/2001/REC-SVG-20010904/DTD/svg10.dtd">
<svg version="1.0" xmlns="http://www.w3.org/2000/svg"
 width="248.000000pt" height="248.000000pt" viewBox="0 0 248.000000 248.000000"
 preserveAspectRatio="xMidYMid meet">
<metadata>
Created by potrace 1.10, written by Peter Selinger 2001-2011
</metadata>
<g transform="translate(0.000000,248.000000) scale(0.100000,-0.100000)"
fill="#000000" stroke="none">
<path d="M1309 2054 c-11 -14 -15 -83 -21 -338 -7 -381 -29 -729 -48 -786 -5
-14 -23 -74 -40 -135 -18 -60 -52 -148 -76 -194 -24 -46 -44 -94 -44 -107 0
-27 39 -58 63 -48 35 13 104 149 147 289 70 223 70 228 100 710 14 232 13 564
-3 595 -15 31 -58 38 -78 14z"/>
<path d="M902 1708 c-39 -39 4 -87 143 -157 127 -64 175 -66 175 -6 0 28 -24
49 -85 76 -28 12 -79 39 -114 60 -65 40 -98 48 -119 27z"/>
</g>
</svg>
