<?xml version="1.0" standalone="no"?>
<!DOCTYPE svg PUBLIC "-//W3C//DTD SVG 20010904//EN"
 "http://www.w3.org/TR/2001/REC-SVG-20010904/DTD/svg10.dtd">
<svg version="1.0" xmlns="http://www.w3.org/2000/svg"
 width="248.000000pt" height="248.000000pt" viewBox="0 0 248.000000 248.000000"
 preserveAspectRatio="xMidYMid meet">
<metadata>
Created by potrace 1.10, written by Peter Selinger 2001-2011
</metadata>
<g transform="translate(0.000000,248.000000) scale(0.100000,-0.100000)"
fill="#000000" stroke="none">
<path d="M1609 2063 c-11 -13 -16 -111 -22 -487 -4 -259 -6 -568 -5 -686 3
-206 4 -217 28 -265 22 -44 33 -54 100 -87 41 -21 108 -45 149 -54 84 -19 156
-12 317 31 96 26 131 45 146 83 12 31 4 215 -11 255 -12 30 -43 42 -71 27 -18
-10 -20 -20 -20 -126 0 -134 12 -120 -143 -155 -115 -25 -192 -23 -279 10
-110 42 -103 18 -106 341 l-3 281 33 -17 c18 -9 64 -42 103 -72 78 -61 192
-122 228 -122 29 0 47 18 47 45 0 27 -20 45 -95 84 -33 17 -80 47 -105 66 -54
42 -177 125 -198 132 -11 5 -13 18 -9 61 5 48 10 58 44 85 69 56 214 201 244
244 16 23 29 52 29 65 0 53 -56 65 -93 21 -12 -16 -66 -73 -119 -128 l-98
-100 0 220 c0 183 -3 224 -16 243 -18 26 -56 29 -75 5z"/>
<path d="M1309 2054 c-11 -14 -15 -85 -20 -352 -6 -314 -7 -335 -25 -345 -34
-19 -349 -328 -358 -351 -17 -44 11 -74 57 -62 13 3 86 67 162 141 75 75 140
134 142 131 8 -8 -18 -250 -32 -301 -46 -164 -79 -255 -115 -322 -22 -41 -40
-85 -40 -99 0 -27 39 -58 63 -48 35 13 104 149 147 289 70 223 70 228 100 710
14 232 13 564 -3 595 -15 31 -58 38 -78 14z"/>
<path d="M273 1829 c-19 -19 -16 -53 5 -72 10 -10 22 -17 27 -17 5 0 62 -30
128 -66 65 -36 127 -64 139 -62 11 2 27 12 34 23 24 37 -2 64 -129 133 -120
66 -182 84 -204 61z"/>
<path d="M902 1708 c-39 -39 4 -87 143 -157 127 -64 175 -66 175 -6 0 28 -24
49 -85 76 -28 12 -79 39 -114 60 -65 40 -98 48 -119 27z"/>
<path d="M525 1330 c-38 -27 -94 -66 -124 -87 -95 -67 -155 -106 -196 -127
-43 -23 -56 -55 -34 -83 26 -31 91 -11 197 59 129 87 122 84 106 40 -18 -52
-17 -123 2 -151 9 -12 41 -38 70 -57 30 -19 54 -40 54 -45 0 -19 -92 -130
-185 -224 -100 -101 -166 -156 -238 -201 -70 -42 -77 -105 -13 -112 62 -8 341
224 435 362 16 23 37 48 45 56 19 15 69 87 79 113 12 33 -12 66 -88 117 -71
48 -76 53 -70 80 8 37 45 113 84 176 34 53 39 94 15 118 -27 27 -66 18 -139
-34z"/>
</g>
</svg>
