<?xml version="1.0" standalone="no"?>
<!DOCTYPE svg PUBLIC "-//W3C//DTD SVG 20010904//EN"
 "http://www.w3.org/TR/2001/REC-SVG-20010904/DTD/svg10.dtd">
<svg version="1.0" xmlns="http://www.w3.org/2000/svg"
 width="248.000000pt" height="248.000000pt" viewBox="0 0 248.000000 248.000000"
 preserveAspectRatio="xMidYMid meet">
<metadata>
Created by potrace 1.10, written by Peter Selinger 2001-2011
</metadata>
<g transform="translate(0.000000,248.000000) scale(0.100000,-0.100000)"
fill="#000000" stroke="none">
<path d="M810 2345 c-9 -11 -10 -39 -5 -103 l7 -89 -109 -7 c-321 -22 -327
-23 -321 -75 6 -49 39 -56 189 -42 74 6 161 14 194 16 l60 5 22 -111 c24 -123
42 -159 76 -159 52 0 57 29 27 175 -12 53 -19 99 -16 102 2 2 93 11 203 19
666 49 991 83 1041 106 48 23 37 88 -15 90 -33 1 -267 -22 -323 -32 -70 -12
-106 -16 -315 -29 -93 -7 -266 -19 -382 -28 -117 -9 -215 -14 -218 -12 -2 3
-9 38 -16 79 -6 41 -18 83 -27 93 -19 21 -55 22 -72 2z"/>
</g>
</svg>
