<?xml version="1.0" standalone="no"?>
<!DOCTYPE svg PUBLIC "-//W3C//DTD SVG 20010904//EN"
 "http://www.w3.org/TR/2001/REC-SVG-20010904/DTD/svg10.dtd">
<svg version="1.0" xmlns="http://www.w3.org/2000/svg"
 width="248.000000pt" height="248.000000pt" viewBox="0 0 248.000000 248.000000"
 preserveAspectRatio="xMidYMid meet">
<metadata>
Created by potrace 1.10, written by Peter Selinger 2001-2011
</metadata>
<g transform="translate(0.000000,248.000000) scale(0.100000,-0.100000)"
fill="#000000" stroke="none">
<path d="M1737 2403 c-13 -15 -28 -58 -62 -169 -4 -13 -67 -21 -220 -29 -60
-3 -203 -13 -317 -22 -114 -9 -210 -14 -212 -12 -3 3 -10 38 -17 79 -12 81
-29 110 -64 110 -40 0 -48 -22 -40 -118 l7 -89 -109 -7 c-321 -22 -327 -23
-321 -75 6 -49 39 -56 189 -42 74 6 161 14 194 16 l60 5 22 -111 c24 -123 42
-159 76 -159 52 0 57 29 27 175 -12 53 -19 99 -17 102 9 9 677 56 685 48 8 -8
-18 -85 -49 -149 -34 -69 -35 -77 -9 -101 46 -42 100 18 149 166 12 36 27 74
34 83 14 19 161 46 252 46 61 0 182 25 202 41 20 18 12 62 -15 75 -14 7 -41 8
-75 3 -28 -4 -104 -12 -167 -18 -63 -6 -125 -14 -137 -17 -22 -6 -22 -6 -6 43
23 70 27 111 13 128 -17 20 -53 19 -73 -2z"/>
<path d="M691 1676 c-6 -7 -22 -33 -34 -57 -26 -53 -160 -207 -326 -378 -67
-69 -121 -129 -121 -134 0 -27 23 -47 53 -47 27 0 46 13 114 80 57 56 84 76
90 67 4 -6 9 -248 11 -536 2 -377 6 -528 14 -538 19 -23 61 -11 78 22 21 42
27 657 10 957 -15 247 -22 218 80 333 94 106 133 198 98 233 -16 16 -53 15
-67 -2z"/>
</g>
</svg>
