<?xml version="1.0" standalone="no"?>
<!DOCTYPE svg PUBLIC "-//W3C//DTD SVG 20010904//EN"
 "http://www.w3.org/TR/2001/REC-SVG-20010904/DTD/svg10.dtd">
<svg version="1.0" xmlns="http://www.w3.org/2000/svg"
 width="248.000000pt" height="248.000000pt" viewBox="0 0 248.000000 248.000000"
 preserveAspectRatio="xMidYMid meet">
<metadata>
Created by potrace 1.10, written by Peter Selinger 2001-2011
</metadata>
<g transform="translate(0.000000,248.000000) scale(0.100000,-0.100000)"
fill="#000000" stroke="none">
<path d="M1646 2338 c-13 -18 -16 -55 -16 -199 0 -130 -3 -179 -13 -187 -7 -6
-52 -31 -101 -56 -107 -55 -116 -62 -116 -90 0 -56 48 -59 149 -11 41 20 75
34 76 33 2 -2 0 -152 -3 -335 l-5 -332 -76 -16 c-42 -9 -100 -22 -128 -29
l-53 -13 0 181 c0 203 -7 230 -58 224 -47 -5 -51 -31 -49 -283 l2 -230 27 -13
c24 -11 34 -10 85 12 32 13 90 29 128 35 39 6 82 14 98 17 l27 6 0 -283 c1
-417 17 -500 109 -558 74 -47 120 -56 291 -55 155 1 324 26 389 57 38 19 44
63 25 185 -23 151 -33 172 -80 172 -44 0 -49 -21 -29 -146 15 -96 16 -117 5
-124 -34 -21 -157 -35 -310 -35 -188 0 -231 11 -266 68 -18 30 -19 58 -22 388
l-4 357 79 16 c43 10 110 26 148 36 39 11 97 27 129 35 40 11 69 27 88 47 l28
30 0 257 c0 279 -4 301 -55 301 -51 0 -55 -23 -55 -287 0 -134 -2 -243 -5
-243 -3 0 -76 -18 -162 -40 -87 -22 -166 -40 -175 -40 -17 0 -18 16 -18 208 0
115 3 277 7 360 l6 151 107 75 c151 107 200 152 200 185 0 61 -44 66 -109 12
-51 -42 -188 -141 -196 -141 -3 0 -5 62 -5 138 0 151 -9 182 -55 182 -13 0
-31 -10 -39 -22z"/>
<path d="M567 2292 c-10 -10 -17 -25 -17 -32 0 -15 -66 -139 -115 -215 -62
-98 -229 -361 -274 -433 -25 -40 -63 -97 -84 -125 -54 -74 -46 -123 20 -115
31 3 78 61 167 205 74 119 147 237 224 358 38 61 82 134 98 162 16 29 32 52
35 50 3 -1 33 -32 65 -69 70 -79 248 -240 357 -322 69 -53 81 -58 105 -50 20
7 28 17 30 41 3 30 -4 38 -118 128 -127 101 -313 279 -345 330 -48 76 -77 105
-104 105 -15 0 -35 -8 -44 -18z"/>
<path d="M810 1789 c-38 -16 -236 -69 -315 -85 -38 -8 -81 -23 -95 -33 -29
-21 -37 -55 -19 -78 14 -16 26 -16 159 12 41 8 76 15 78 15 1 0 2 -51 2 -114
l0 -114 -52 -16 c-29 -9 -66 -21 -83 -26 -16 -5 -82 -23 -145 -40 -63 -17
-123 -38 -132 -47 -22 -20 -23 -56 -3 -73 22 -19 53 -12 355 74 30 9 58 16 61
16 8 0 19 -345 20 -635 l0 -239 -63 -18 c-130 -37 -314 -101 -330 -116 -21
-17 -23 -53 -6 -70 19 -19 63 -14 146 18 42 16 111 38 152 49 169 44 522 162
548 184 18 14 11 68 -11 81 -14 9 -49 0 -169 -41 -84 -29 -153 -51 -154 -50
-1 1 -4 199 -8 439 l-7 437 48 7 c63 9 218 58 249 79 19 13 24 23 22 47 -5 54
-24 56 -150 16 -62 -20 -128 -39 -145 -42 l-33 -5 -2 89 c-1 50 -2 102 -2 116
-1 24 6 28 79 51 95 30 105 37 105 72 0 48 -40 64 -100 40z"/>
<path d="M967 1112 c-10 -10 -17 -24 -17 -31 0 -23 -63 -166 -102 -229 -42
-68 -46 -92 -22 -116 39 -40 84 0 151 137 69 139 88 218 61 245 -18 18 -53 15
-71 -6z"/>
<path d="M302 898 c-28 -28 -10 -68 127 -293 55 -89 69 -105 96 -105 28 0 45
18 45 48 0 13 -33 79 -74 147 -41 67 -77 131 -80 141 -17 55 -85 91 -114 62z"/>
</g>
</svg>
