<?xml version="1.0" standalone="no"?>
<!DOCTYPE svg PUBLIC "-//W3C//DTD SVG 20010904//EN"
 "http://www.w3.org/TR/2001/REC-SVG-20010904/DTD/svg10.dtd">
<svg version="1.0" xmlns="http://www.w3.org/2000/svg"
 width="248.000000pt" height="248.000000pt" viewBox="0 0 248.000000 248.000000"
 preserveAspectRatio="xMidYMid meet">
<metadata>
Created by potrace 1.10, written by Peter Selinger 2001-2011
</metadata>
<g transform="translate(0.000000,248.000000) scale(0.100000,-0.100000)"
fill="#000000" stroke="none">
<path d="M572 2288 c-5 -7 -31 -53 -56 -101 -25 -49 -61 -112 -79 -140 -46
-72 -221 -346 -276 -435 -25 -40 -63 -97 -84 -125 -54 -74 -46 -123 20 -115
31 3 78 61 167 205 80 130 150 242 227 363 137 216 179 316 147 348 -16 16
-53 15 -66 0z"/>
</g>
</svg>
