<?xml version="1.0" standalone="no"?>
<!DOCTYPE svg PUBLIC "-//W3C//DTD SVG 20010904//EN"
 "http://www.w3.org/TR/2001/REC-SVG-20010904/DTD/svg10.dtd">
<svg version="1.0" xmlns="http://www.w3.org/2000/svg"
 width="248.000000pt" height="248.000000pt" viewBox="0 0 248.000000 248.000000"
 preserveAspectRatio="xMidYMid meet">
<metadata>
Created by potrace 1.10, written by Peter Selinger 2001-2011
</metadata>
<g transform="translate(0.000000,248.000000) scale(0.100000,-0.100000)"
fill="#000000" stroke="none">
<path d="M1245 2075 c-134 -13 -265 -30 -460 -60 -49 -7 -119 -17 -154 -20
-92 -10 -106 -27 -97 -119 30 -306 47 -1285 26 -1486 -11 -112 -11 -122 5
-140 10 -11 28 -20 40 -20 51 0 50 -11 50 639 0 333 -2 700 -5 816 l-5 209 45
7 c25 4 83 12 130 18 47 6 148 20 225 30 320 45 796 64 827 33 4 -4 10 -386
14 -847 4 -551 9 -844 16 -852 6 -7 21 -13 34 -13 52 0 51 -18 42 855 -5 528
-5 826 2 857 11 54 6 74 -24 91 -31 18 -532 19 -711 2z"/>
</g>
</svg>
