<?xml version="1.0" standalone="no"?>
<!DOCTYPE svg PUBLIC "-//W3C//DTD SVG 20010904//EN"
 "http://www.w3.org/TR/2001/REC-SVG-20010904/DTD/svg10.dtd">
<svg version="1.0" xmlns="http://www.w3.org/2000/svg"
 width="248.000000pt" height="248.000000pt" viewBox="0 0 248.000000 248.000000"
 preserveAspectRatio="xMidYMid meet">
<metadata>
Created by potrace 1.10, written by Peter Selinger 2001-2011
</metadata>
<g transform="translate(0.000000,248.000000) scale(0.100000,-0.100000)"
fill="#000000" stroke="none">
<path d="M1715 2020 c-272 -7 -590 -29 -1020 -71 -115 -11 -221 -20 -235 -20
-51 -1 -71 -10 -80 -35 -11 -28 0 -58 25 -68 8 -3 97 3 197 14 375 40 976 82
1217 86 160 3 249 8 258 15 16 14 17 61 1 77 -7 7 -28 11 -47 10 -20 -1 -162
-5 -316 -8z"/>
</g>
</svg>
