<?xml version="1.0" standalone="no"?>
<!DOCTYPE svg PUBLIC "-//W3C//DTD SVG 20010904//EN"
 "http://www.w3.org/TR/2001/REC-SVG-20010904/DTD/svg10.dtd">
<svg version="1.0" xmlns="http://www.w3.org/2000/svg"
 width="248.000000pt" height="248.000000pt" viewBox="0 0 248.000000 248.000000"
 preserveAspectRatio="xMidYMid meet">
<metadata>
Created by potrace 1.10, written by Peter Selinger 2001-2011
</metadata>
<g transform="translate(0.000000,248.000000) scale(0.100000,-0.100000)"
fill="#000000" stroke="none">
<path d="M1656 2278 c-8 -13 -28 -72 -46 -133 -17 -60 -34 -113 -38 -117 -7
-7 -607 -58 -682 -58 -23 0 -43 5 -45 13 -3 6 -11 59 -19 116 -15 111 -35 153
-75 159 -34 5 -54 -17 -47 -52 24 -142 36 -214 36 -232 0 -20 -8 -22 -138 -34
-75 -7 -144 -12 -152 -12 -36 2 -61 -10 -70 -34 -12 -30 1 -60 27 -68 10 -3
94 3 186 13 136 14 170 15 178 5 6 -8 13 -60 16 -116 6 -112 19 -148 56 -148
46 0 52 13 49 103 -1 47 -6 106 -11 132 -6 33 -5 48 3 50 20 6 661 54 665 49
3 -2 -4 -30 -14 -62 -32 -102 -56 -216 -50 -239 7 -31 50 -41 75 -18 12 11 28
57 44 124 43 179 49 194 82 203 16 5 106 8 201 7 128 -2 176 1 188 11 17 14
20 61 4 77 -7 7 -69 9 -189 5 -98 -3 -185 -2 -193 1 -12 5 -10 21 14 104 32
107 35 143 17 161 -19 19 -56 14 -72 -10z"/>
<path d="M1141 1697 c-7 -9 -12 -85 -13 -208 l-3 -194 -225 -22 c-427 -41
-694 -76 -716 -94 -17 -14 -18 -51 -2 -67 17 -17 66 -15 282 12 105 14 223 27
261 31 39 3 139 13 223 21 84 9 159 14 166 11 10 -4 12 -36 8 -154 -2 -81 -8
-157 -13 -169 -7 -20 -18 -22 -136 -28 -152 -8 -322 -34 -342 -52 -12 -11 -12
-25 -3 -81 30 -178 53 -371 56 -457 3 -102 13 -126 52 -126 47 0 54 31 44 185
-5 77 -16 181 -25 230 -8 50 -15 109 -15 131 l0 42 63 10 c112 19 138 21 502
34 382 13 443 14 451 5 9 -8 -53 -268 -89 -380 -52 -155 -63 -205 -51 -225 15
-24 57 -27 75 -5 22 25 105 291 134 425 13 62 29 129 35 148 16 55 12 95 -11
116 -28 25 -147 29 -413 15 -115 -7 -211 -9 -215 -5 -5 5 -3 237 2 324 2 23 7
26 67 33 36 4 280 9 542 11 262 2 482 7 487 11 20 12 12 54 -13 71 -22 14 -82
15 -553 13 l-528 -3 -3 189 c-1 118 -7 193 -13 202 -15 17 -53 17 -68 0z"/>
</g>
</svg>
