<?xml version="1.0" standalone="no"?>
<!DOCTYPE svg PUBLIC "-//W3C//DTD SVG 20010904//EN"
 "http://www.w3.org/TR/2001/REC-SVG-20010904/DTD/svg10.dtd">
<svg version="1.0" xmlns="http://www.w3.org/2000/svg"
 width="248.000000pt" height="248.000000pt" viewBox="0 0 248.000000 248.000000"
 preserveAspectRatio="xMidYMid meet">
<metadata>
Created by potrace 1.10, written by Peter Selinger 2001-2011
</metadata>
<g transform="translate(0.000000,248.000000) scale(0.100000,-0.100000)"
fill="#000000" stroke="none">
<path d="M259 1934 c-8 -9 -20 -38 -27 -63 -40 -140 -54 -186 -86 -291 -49
-158 -46 -200 11 -200 29 0 47 28 73 120 26 91 66 225 91 303 22 66 24 118 7
135 -17 17 -53 15 -69 -4z"/>
<path d="M672 1938 c-31 -31 7 -100 113 -203 28 -27 68 -71 89 -97 21 -26 46
-50 57 -53 52 -17 85 33 54 81 -9 14 -55 67 -103 118 -48 51 -101 109 -118
129 -32 38 -69 48 -92 25z"/>
</g>
</svg>
