<?xml version="1.0" standalone="no"?>
<!DOCTYPE svg PUBLIC "-//W3C//DTD SVG 20010904//EN"
 "http://www.w3.org/TR/2001/REC-SVG-20010904/DTD/svg10.dtd">
<svg version="1.0" xmlns="http://www.w3.org/2000/svg"
 width="248.000000pt" height="248.000000pt" viewBox="0 0 248.000000 248.000000"
 preserveAspectRatio="xMidYMid meet">
<metadata>
Created by potrace 1.10, written by Peter Selinger 2001-2011
</metadata>
<g transform="translate(0.000000,248.000000) scale(0.100000,-0.100000)"
fill="#000000" stroke="none">
<path d="M1912 2308 c-21 -29 -53 -80 -72 -113 -30 -54 -94 -150 -158 -238
-22 -30 -31 -33 -145 -54 -67 -12 -158 -27 -202 -32 -167 -22 -220 -32 -244
-47 -23 -16 -23 -19 -17 -93 3 -42 11 -168 16 -280 12 -251 19 -271 95 -285
32 -6 127 -4 265 4 118 7 321 16 450 20 245 7 302 17 321 51 32 61 90 537 76
625 -9 51 -31 71 -96 85 -55 11 -240 7 -355 -8 l-49 -6 25 34 c14 19 52 77 83
129 32 52 71 115 86 139 44 67 36 121 -18 121 -16 0 -34 -16 -61 -52z m278
-520 c0 -35 -3 -79 -6 -98 l-6 -35 -76 -3 c-43 -1 -108 -6 -147 -11 -38 -6
-103 -13 -142 -16 l-73 -6 0 101 c0 78 3 102 14 106 25 10 186 21 314 23 l122
1 0 -62z m-560 -82 l0 -103 -107 -12 c-60 -7 -133 -19 -164 -26 -99 -24 -158
-29 -163 -14 -2 8 -7 53 -10 101 -7 102 -21 90 144 113 63 8 147 21 185 29
125 24 115 32 115 -88z m539 -188 c0 -18 -8 -73 -17 -123 l-17 -90 -198 -3
-197 -2 0 105 c0 120 -11 109 120 121 41 3 109 10 150 14 41 4 94 8 118 8 41
2 42 1 41 -30z m-539 -122 c0 -79 -3 -105 -14 -109 -7 -3 -101 -9 -208 -13
l-195 -7 -6 24 c-8 30 -9 139 -1 139 3 0 51 9 107 21 81 16 228 39 305 48 9 1
12 -26 12 -103z"/>
<path d="M479 2314 c-20 -24 -21 -67 -12 -1134 9 -1074 7 -1035 68 -1035 22 0
32 6 40 25 8 18 9 330 3 1070 -8 898 -11 1048 -24 1067 -17 27 -56 30 -75 7z"/>
<path d="M1222 2258 c-18 -18 -15 -41 12 -95 13 -26 34 -77 47 -113 29 -84 46
-109 76 -116 24 -6 63 18 63 39 0 29 -105 269 -123 282 -26 18 -59 19 -75 3z"/>
<path d="M258 1933 c-8 -10 -20 -36 -26 -58 -27 -95 -54 -188 -86 -295 -49
-158 -46 -200 11 -200 29 0 46 28 73 120 39 135 72 244 91 303 22 65 24 118 7
135 -17 17 -53 15 -70 -5z"/>
<path d="M672 1938 c-31 -31 10 -102 123 -213 28 -27 65 -69 83 -92 48 -62
105 -70 118 -17 8 31 -7 54 -114 168 -48 51 -101 109 -118 129 -32 38 -69 48
-92 25z"/>
<path d="M1795 1044 c-27 -2 -97 -10 -155 -18 -58 -8 -141 -17 -185 -20 -113
-7 -179 -23 -204 -50 l-22 -23 7 -373 c7 -364 8 -373 29 -398 l22 -25 364 -2
c382 -1 406 1 428 44 15 27 33 445 29 648 -4 222 -1 218 -156 219 -59 1 -129
0 -157 -2z m205 -249 l0 -145 -87 0 c-49 0 -135 -4 -193 -9 -58 -6 -167 -13
-242 -17 l-138 -6 0 135 0 135 31 6 c17 3 54 6 81 6 28 0 96 7 152 15 119 17
167 21 299 23 l97 2 0 -145z m-7 -372 c-2 -65 -6 -131 -8 -148 l-5 -30 -315 0
-315 0 0 131 0 132 98 6 c53 4 142 11 197 15 55 4 157 9 226 10 l126 1 -4
-117z"/>
</g>
</svg>
