<?xml version="1.0" standalone="no"?>
<!DOCTYPE svg PUBLIC "-//W3C//DTD SVG 20010904//EN"
 "http://www.w3.org/TR/2001/REC-SVG-20010904/DTD/svg10.dtd">
<svg version="1.0" xmlns="http://www.w3.org/2000/svg"
 width="248.000000pt" height="248.000000pt" viewBox="0 0 248.000000 248.000000"
 preserveAspectRatio="xMidYMid meet">
<metadata>
Created by potrace 1.10, written by Peter Selinger 2001-2011
</metadata>
<g transform="translate(0.000000,248.000000) scale(0.100000,-0.100000)"
fill="#000000" stroke="none">
<path d="M1912 2308 c-21 -29 -53 -80 -72 -113 -30 -54 -96 -153 -157 -237
-39 -52 -26 -108 23 -108 32 0 112 104 230 300 21 36 49 80 61 99 38 57 27
111 -24 111 -16 0 -34 -16 -61 -52z"/>
<path d="M475 2307 c-14 -22 -15 -122 -8 -1063 9 -1144 7 -1099 68 -1099 22 0
32 6 40 25 17 38 -1 2094 -18 2129 -17 36 -60 40 -82 8z"/>
<path d="M1222 2258 c-18 -18 -15 -41 12 -95 13 -26 34 -77 47 -113 29 -84 46
-109 76 -116 24 -6 63 18 63 39 0 29 -105 269 -123 282 -26 18 -59 19 -75 3z"/>
<path d="M259 1934 c-8 -9 -20 -38 -27 -63 -40 -140 -54 -186 -86 -291 -49
-158 -46 -200 11 -200 29 0 47 28 73 120 26 91 66 225 91 303 22 66 24 118 7
135 -17 17 -53 15 -69 -4z"/>
<path d="M672 1938 c-31 -31 7 -100 113 -203 28 -27 68 -71 89 -97 21 -26 46
-50 57 -53 52 -17 85 33 54 81 -9 14 -55 67 -103 118 -48 51 -101 109 -118
129 -32 38 -69 48 -92 25z"/>
<path d="M1090 1795 c-8 -10 -14 -33 -14 -53 0 -80 24 -479 30 -509 9 -47 38
-69 72 -57 l27 10 -3 149 c-4 201 -21 414 -35 445 -15 30 -58 38 -77 15z"/>
</g>
</svg>
