<?xml version="1.0" standalone="no"?>
<!DOCTYPE svg PUBLIC "-//W3C//DTD SVG 20010904//EN"
 "http://www.w3.org/TR/2001/REC-SVG-20010904/DTD/svg10.dtd">
<svg version="1.0" xmlns="http://www.w3.org/2000/svg"
 width="248.000000pt" height="248.000000pt" viewBox="0 0 248.000000 248.000000"
 preserveAspectRatio="xMidYMid meet">
<metadata>
Created by potrace 1.10, written by Peter Selinger 2001-2011
</metadata>
<g transform="translate(0.000000,248.000000) scale(0.100000,-0.100000)"
fill="#000000" stroke="none">
<path d="M1760 2034 c-103 -15 -208 -27 -350 -39 -91 -9 -205 -20 -255 -25
-49 -5 -153 -14 -230 -20 -77 -5 -189 -17 -250 -26 -60 -9 -150 -19 -200 -22
-87 -7 -90 -8 -105 -37 -13 -26 -15 -128 -13 -750 1 -742 6 -858 39 -882 41
-30 78 -2 78 58 0 24 -4 265 -8 534 -5 270 -5 596 -1 726 l7 236 97 16 c121
20 238 33 466 52 238 20 562 52 655 64 41 6 138 11 216 11 l141 0 11 -132 c39
-448 16 -887 -68 -1309 -31 -155 -44 -199 -58 -199 -5 0 -41 34 -79 76 -60 64
-75 75 -98 72 -35 -4 -50 -27 -41 -61 3 -14 49 -69 102 -121 109 -110 131
-118 183 -65 54 54 101 257 152 664 27 213 31 269 31 505 0 146 -7 345 -15
443 -16 199 -19 208 -92 226 -40 10 -255 13 -315 5z"/>
</g>
</svg>
