<?xml version="1.0" standalone="no"?>
<!DOCTYPE svg PUBLIC "-//W3C//DTD SVG 20010904//EN"
 "http://www.w3.org/TR/2001/REC-SVG-20010904/DTD/svg10.dtd">
<svg version="1.0" xmlns="http://www.w3.org/2000/svg"
 width="248.000000pt" height="248.000000pt" viewBox="0 0 248.000000 248.000000"
 preserveAspectRatio="xMidYMid meet">
<metadata>
Created by potrace 1.10, written by Peter Selinger 2001-2011
</metadata>
<g transform="translate(0.000000,248.000000) scale(0.100000,-0.100000)"
fill="#000000" stroke="none">
<path d="M1196 2358 c-8 -14 -17 -66 -20 -129 -4 -59 -14 -131 -21 -160 -8
-30 -15 -64 -15 -76 0 -27 -12 -29 -210 -43 -80 -5 -194 -17 -255 -26 -60 -9
-150 -19 -200 -22 -87 -7 -90 -8 -105 -37 -13 -26 -15 -128 -13 -750 1 -742 6
-858 39 -882 41 -30 78 -2 78 58 0 24 -4 265 -8 534 -5 270 -5 596 -1 726 l7
236 97 16 c153 25 529 62 538 53 10 -10 -53 -187 -105 -296 -68 -141 -89 -174
-184 -290 -38 -45 -68 -90 -68 -101 0 -24 43 -53 67 -45 23 7 149 160 206 249
24 36 58 102 77 146 18 45 38 81 42 81 5 0 21 -9 36 -19 15 -11 70 -44 122
-74 99 -58 139 -87 271 -199 75 -64 126 -98 148 -98 17 0 41 31 41 54 0 16
-27 45 -97 104 -169 141 -190 156 -320 235 -185 111 -170 91 -143 186 27 93 7
84 210 101 69 6 178 17 243 25 66 8 181 15 256 15 l138 0 11 -132 c39 -448 16
-887 -68 -1309 -31 -155 -44 -199 -58 -199 -5 0 -41 34 -79 76 -60 64 -75 75
-98 72 -35 -4 -50 -27 -41 -61 3 -14 49 -69 102 -121 109 -110 131 -118 183
-65 54 54 101 257 152 664 27 213 31 269 31 505 0 325 -21 611 -46 639 -31 34
-106 44 -275 38 -86 -3 -183 -11 -216 -17 -70 -12 -388 -40 -394 -34 -2 2 3
46 12 96 28 161 32 244 13 273 -21 32 -60 33 -80 3z"/>
<path d="M1146 1188 c-9 -12 -16 -27 -16 -33 0 -16 -64 -161 -95 -217 -59
-107 -121 -188 -230 -305 -64 -69 -115 -132 -115 -142 0 -26 26 -51 53 -51 30
0 233 212 299 313 32 49 56 76 64 73 8 -3 53 -32 101 -64 49 -32 127 -82 175
-111 48 -28 111 -70 140 -91 73 -55 118 -51 118 10 0 39 -77 101 -235 190 -74
42 -203 126 -232 152 l-21 20 35 81 c52 122 57 144 38 173 -20 31 -59 32 -79
2z"/>
</g>
</svg>
