<?xml version="1.0" standalone="no"?>
<!DOCTYPE svg PUBLIC "-//W3C//DTD SVG 20010904//EN"
 "http://www.w3.org/TR/2001/REC-SVG-20010904/DTD/svg10.dtd">
<svg version="1.0" xmlns="http://www.w3.org/2000/svg"
 width="248.000000pt" height="248.000000pt" viewBox="0 0 248.000000 248.000000"
 preserveAspectRatio="xMidYMid meet">
<metadata>
Created by potrace 1.10, written by Peter Selinger 2001-2011
</metadata>
<g transform="translate(0.000000,248.000000) scale(0.100000,-0.100000)"
fill="#000000" stroke="none">
<path d="M1912 2308 c-21 -29 -53 -80 -72 -113 -29 -52 -71 -115 -158 -238
-22 -32 -26 -33 -180 -59 -86 -15 -211 -35 -277 -43 -165 -23 -161 -17 -146
-187 6 -73 11 -169 11 -213 0 -121 17 -245 36 -266 25 -28 106 -33 327 -19
111 7 310 16 442 20 250 8 307 17 326 51 21 40 58 280 70 451 18 256 12 263
-216 263 -77 0 -171 -4 -208 -8 l-68 -8 34 48 c18 26 57 89 87 138 30 50 65
105 77 124 38 57 27 111 -24 111 -16 0 -34 -16 -61 -52z m277 -530 c-2 -110
-7 -123 -49 -123 -35 -1 -100 -6 -280 -25 -52 -5 -101 -10 -107 -10 -20 0 -18
199 1 206 25 10 186 21 314 23 l122 1 -1 -72z m-559 -71 l0 -104 -102 -12
c-57 -6 -151 -22 -210 -34 -70 -14 -111 -18 -116 -12 -5 6 -12 51 -16 102 -7
108 -21 96 144 118 63 9 147 22 185 29 125 24 115 32 115 -87z m539 -189 c0
-18 -8 -73 -18 -123 l-17 -90 -197 -3 -197 -2 0 105 c0 120 -11 109 120 121
41 3 109 10 150 14 41 4 94 8 118 8 41 2 42 1 41 -30z m-539 -122 c0 -58 -3
-107 -7 -109 -5 -3 -98 -8 -209 -12 l-201 -8 -6 24 c-8 28 -9 139 -2 139 3 0
62 11 132 24 119 23 234 41 276 45 15 1 17 -10 17 -103z"/>
<path d="M475 2307 c-14 -22 -15 -122 -8 -1063 9 -1144 7 -1099 68 -1099 22 0
32 6 40 25 17 38 -1 2094 -18 2129 -17 36 -60 40 -82 8z"/>
<path d="M1222 2258 c-18 -18 -15 -41 12 -95 13 -26 34 -77 47 -113 29 -84 46
-109 76 -116 24 -6 63 18 63 39 0 29 -105 269 -123 282 -26 18 -59 19 -75 3z"/>
<path d="M259 1934 c-8 -9 -20 -38 -27 -63 -40 -140 -54 -186 -86 -291 -49
-158 -46 -200 11 -200 29 0 47 28 73 120 26 91 66 225 91 303 22 66 24 118 7
135 -17 17 -53 15 -69 -4z"/>
<path d="M672 1938 c-31 -31 7 -100 113 -203 28 -27 68 -71 89 -97 21 -26 46
-50 57 -53 52 -17 85 33 54 81 -9 14 -55 67 -103 118 -48 51 -101 109 -118
129 -32 38 -69 48 -92 25z"/>
<path d="M1249 944 c-12 -14 -13 -78 -10 -378 2 -224 7 -366 13 -373 6 -7 24
-13 40 -13 24 0 32 6 45 38 14 32 15 78 8 362 -4 213 -11 334 -18 350 -15 31
-58 38 -78 14z"/>
</g>
</svg>
