<?xml version="1.0" standalone="no"?>
<!DOCTYPE svg PUBLIC "-//W3C//DTD SVG 20010904//EN"
 "http://www.w3.org/TR/2001/REC-SVG-20010904/DTD/svg10.dtd">
<svg version="1.0" xmlns="http://www.w3.org/2000/svg"
 width="248.000000pt" height="248.000000pt" viewBox="0 0 248.000000 248.000000"
 preserveAspectRatio="xMidYMid meet">
<metadata>
Created by potrace 1.10, written by Peter Selinger 2001-2011
</metadata>
<g transform="translate(0.000000,248.000000) scale(0.100000,-0.100000)"
fill="#000000" stroke="none">
<path d="M754 2013 c-83 -112 -307 -326 -542 -516 -114 -93 -142 -119 -142
-137 0 -25 26 -50 52 -50 24 0 153 96 241 178 32 30 59 53 60 51 2 -2 0 -290
-3 -639 -3 -349 -1 -647 3 -661 15 -48 79 -43 92 8 4 15 10 334 14 707 l7 679
112 108 c105 102 195 206 221 256 25 48 8 93 -36 93 -16 0 -37 -21 -79 -77z"/>
<path d="M1808 2033 c-56 -50 -111 -87 -293 -195 -135 -80 -391 -218 -405
-218 -5 0 -17 -11 -26 -25 -15 -23 -15 -27 0 -50 11 -16 26 -25 42 -25 23 0
278 131 402 206 l42 26 0 -93 c0 -52 -3 -178 -7 -281 l-6 -187 -61 -5 c-87 -8
-456 -36 -626 -47 -157 -11 -190 -22 -190 -64 0 -48 30 -55 185 -45 77 5 158
11 180 15 36 5 456 35 493 35 13 0 14 -27 8 -202 -9 -299 -18 -458 -25 -458
-3 -1 -106 -5 -228 -9 -242 -10 -276 -17 -281 -63 -5 -44 26 -57 127 -52 138
7 896 34 1019 37 99 2 115 4 128 21 18 25 18 37 0 62 -14 18 -28 19 -282 17
-148 -1 -291 -4 -318 -7 l-49 -6 7 152 c3 84 9 235 12 336 l7 182 201 0 c222
1 457 20 481 40 25 21 15 63 -18 78 -23 11 -47 12 -122 3 -51 -6 -193 -11
-315 -11 l-222 0 4 283 c2 155 0 291 -5 302 -6 17 4 26 69 65 99 58 194 146
194 181 0 64 -52 65 -122 2z"/>
</g>
</svg>
