<?xml version="1.0" standalone="no"?>
<!DOCTYPE svg PUBLIC "-//W3C//DTD SVG 20010904//EN"
 "http://www.w3.org/TR/2001/REC-SVG-20010904/DTD/svg10.dtd">
<svg version="1.0" xmlns="http://www.w3.org/2000/svg"
 width="248.000000pt" height="248.000000pt" viewBox="0 0 248.000000 248.000000"
 preserveAspectRatio="xMidYMid meet">
<metadata>
Created by potrace 1.10, written by Peter Selinger 2001-2011
</metadata>
<g transform="translate(0.000000,248.000000) scale(0.100000,-0.100000)"
fill="#000000" stroke="none">
<path d="M754 2013 c-83 -112 -307 -326 -542 -516 -114 -93 -142 -119 -142
-137 0 -25 26 -50 52 -50 24 0 153 96 241 178 32 30 59 53 60 51 2 -2 0 -290
-3 -639 -3 -349 -1 -647 3 -661 15 -48 79 -43 92 8 4 15 10 334 14 707 l7 679
112 108 c105 102 195 206 221 256 25 48 8 93 -36 93 -16 0 -37 -21 -79 -77z"/>
<path d="M1808 2033 c-56 -50 -111 -87 -293 -195 -135 -80 -391 -218 -405
-218 -5 0 -17 -11 -26 -25 -15 -23 -15 -27 0 -50 11 -16 26 -25 43 -25 26 0
249 116 426 222 54 32 100 58 103 58 3 0 49 29 103 64 144 95 198 165 159 204
-23 23 -58 12 -110 -35z"/>
<path d="M2238 1214 c-4 -4 -160 -11 -345 -15 -186 -5 -457 -18 -603 -29 -146
-11 -332 -25 -415 -31 -163 -11 -195 -22 -195 -64 0 -48 30 -55 187 -45 77 5
156 11 174 14 77 13 516 38 814 46 344 10 466 20 490 40 19 16 19 54 0 70 -18
15 -97 25 -107 14z"/>
</g>
</svg>
