<?xml version="1.0" standalone="no"?>
<!DOCTYPE svg PUBLIC "-//W3C//DTD SVG 20010904//EN"
 "http://www.w3.org/TR/2001/REC-SVG-20010904/DTD/svg10.dtd">
<svg version="1.0" xmlns="http://www.w3.org/2000/svg"
 width="248.000000pt" height="248.000000pt" viewBox="0 0 248.000000 248.000000"
 preserveAspectRatio="xMidYMid meet">
<metadata>
Created by potrace 1.10, written by Peter Selinger 2001-2011
</metadata>
<g transform="translate(0.000000,248.000000) scale(0.100000,-0.100000)"
fill="#000000" stroke="none">
<path d="M1122 2258 c-7 -7 -12 -41 -12 -82 0 -170 -17 -246 -140 -633 -62
-195 -173 -441 -257 -567 -124 -187 -304 -351 -481 -438 -75 -37 -90 -59 -67
-94 26 -41 70 -29 203 53 155 95 285 218 407 388 88 123 214 391 284 607 138
424 133 405 139 586 5 173 1 192 -42 192 -12 0 -27 -5 -34 -12z"/>
</g>
</svg>
