<?xml version="1.0" standalone="no"?>
<!DOCTYPE svg PUBLIC "-//W3C//DTD SVG 20010904//EN"
 "http://www.w3.org/TR/2001/REC-SVG-20010904/DTD/svg10.dtd">
<svg version="1.0" xmlns="http://www.w3.org/2000/svg"
 width="248.000000pt" height="248.000000pt" viewBox="0 0 248.000000 248.000000"
 preserveAspectRatio="xMidYMid meet">
<metadata>
Created by potrace 1.10, written by Peter Selinger 2001-2011
</metadata>
<g transform="translate(0.000000,248.000000) scale(0.100000,-0.100000)"
fill="#000000" stroke="none">
<path d="M1610 2139 c-47 -10 -143 -28 -215 -39 -71 -12 -175 -30 -230 -40
-55 -10 -120 -21 -145 -23 -25 -3 -121 -14 -215 -26 -93 -11 -197 -23 -230
-27 -68 -7 -85 -17 -85 -49 0 -63 48 -63 515 1 181 25 531 83 655 109 97 20
124 51 80 95 -23 23 -20 23 -130 -1z"/>
<path d="M252 1268 c-14 -14 -15 -71 -3 -170 6 -40 17 -143 26 -228 28 -259
71 -501 94 -523 22 -23 68 -17 78 9 3 9 -6 84 -20 168 -32 179 -43 260 -63
461 -17 176 -32 265 -46 283 -13 15 -50 16 -66 0z"/>
</g>
</svg>
