<?xml version="1.0" standalone="no"?>
<!DOCTYPE svg PUBLIC "-//W3C//DTD SVG 20010904//EN"
 "http://www.w3.org/TR/2001/REC-SVG-20010904/DTD/svg10.dtd">
<svg version="1.0" xmlns="http://www.w3.org/2000/svg"
 width="248.000000pt" height="248.000000pt" viewBox="0 0 248.000000 248.000000"
 preserveAspectRatio="xMidYMid meet">
<metadata>
Created by potrace 1.10, written by Peter Selinger 2001-2011
</metadata>
<g transform="translate(0.000000,248.000000) scale(0.100000,-0.100000)"
fill="#000000" stroke="none">
<path d="M1610 2139 c-47 -10 -143 -28 -215 -39 -71 -12 -175 -30 -230 -40
-55 -10 -120 -21 -145 -23 -25 -3 -121 -14 -215 -26 -93 -11 -197 -23 -230
-27 -33 -3 -66 -11 -72 -16 -17 -14 -16 -53 2 -68 19 -16 108 -16 220 -1 50 6
105 13 124 16 l33 4 -6 -62 c-4 -34 -21 -127 -37 -207 -17 -80 -35 -167 -40
-195 -6 -27 -16 -55 -22 -62 -7 -6 -50 -16 -97 -22 -47 -6 -125 -18 -175 -26
-49 -8 -121 -20 -158 -26 -43 -7 -78 -19 -93 -33 l-25 -21 15 -125 c9 -69 23
-190 31 -270 28 -254 72 -501 94 -523 22 -23 68 -17 78 9 3 9 -6 84 -20 168
-31 176 -42 258 -62 455 -8 79 -18 165 -21 192 l-6 47 48 7 c27 4 116 18 199
31 82 13 153 24 158 24 5 0 6 -12 3 -27 -22 -95 -63 -229 -89 -293 -30 -74
-121 -225 -152 -250 -18 -15 -20 -61 -3 -78 34 -34 80 0 159 118 60 90 111
214 153 371 52 192 35 173 173 198 315 55 517 73 840 75 174 1 235 -2 245 -12
10 -10 8 -36 -11 -135 -12 -67 -29 -164 -37 -215 -31 -202 -86 -418 -148 -585
-40 -106 -42 -132 -11 -153 16 -11 25 -11 45 -1 49 24 177 460 214 730 9 59
22 135 30 169 18 80 30 249 18 266 -17 25 -88 32 -342 31 -382 -2 -472 -9
-904 -76 -34 -5 -38 -4 -33 13 28 94 87 413 87 470 0 37 -6 34 130 54 104 15
468 78 550 95 97 20 124 51 80 95 -23 23 -20 23 -130 -1z"/>
</g>
</svg>
