<?xml version="1.0" standalone="no"?>
<!DOCTYPE svg PUBLIC "-//W3C//DTD SVG 20010904//EN"
 "http://www.w3.org/TR/2001/REC-SVG-20010904/DTD/svg10.dtd">
<svg version="1.0" xmlns="http://www.w3.org/2000/svg"
 width="248.000000pt" height="248.000000pt" viewBox="0 0 248.000000 248.000000"
 preserveAspectRatio="xMidYMid meet">
<metadata>
Created by potrace 1.10, written by Peter Selinger 2001-2011
</metadata>
<g transform="translate(0.000000,248.000000) scale(0.100000,-0.100000)"
fill="#000000" stroke="none">
<path d="M1560 2129 c-91 -20 -150 -27 -182 -24 -32 4 -55 1 -70 -8 -29 -18
-148 -41 -353 -67 -88 -11 -209 -27 -270 -35 -60 -9 -124 -15 -140 -15 -36 0
-55 -16 -55 -45 0 -12 5 -26 12 -33 14 -14 132 -16 226 -3 37 6 87 12 111 15
l43 4 -7 -61 c-3 -33 -20 -126 -36 -206 -17 -80 -35 -168 -41 -196 -5 -27 -14
-55 -19 -61 -5 -6 -37 -14 -72 -18 -34 -4 -98 -13 -142 -21 -44 -8 -125 -21
-180 -30 -119 -18 -150 -36 -149 -86 0 -19 8 -104 18 -189 50 -442 87 -673
112 -701 25 -27 105 -32 254 -15 74 8 178 18 230 22 52 4 106 8 120 10 103 12
700 26 780 18 l95 -9 -3 -32 c-3 -25 2 -35 22 -48 40 -26 70 -1 95 77 10 35
29 90 41 123 59 162 151 610 173 849 12 127 11 130 -82 142 -66 8 -698 -2
-723 -11 -29 -11 -32 19 -19 174 18 223 32 330 45 339 6 5 85 23 176 40 162
31 190 42 190 77 0 18 -23 43 -45 48 -11 2 -81 -8 -155 -24z m-284 -191 c-3
-24 -8 -68 -10 -98 -21 -242 -24 -292 -25 -342 -1 -42 7 -39 -171 -64 -63 -9
-130 -18 -149 -21 -29 -5 -32 -3 -28 13 18 62 61 276 76 377 10 74 22 121 31
127 7 4 43 11 79 15 36 4 91 13 121 20 83 20 82 21 76 -27z m794 -553 c13 -8
10 -42 -20 -200 -10 -55 -26 -147 -35 -205 -19 -119 -90 -405 -114 -462 l-16
-38 -430 -5 c-236 -3 -457 -7 -490 -10 -130 -10 -314 -27 -395 -37 -47 -5 -94
-11 -104 -11 -14 -2 -22 7 -27 28 -14 52 -57 363 -73 520 -9 83 -19 173 -22
202 l-7 51 49 7 c27 4 118 18 203 31 84 14 155 23 158 21 8 -9 -58 -242 -96
-335 -22 -56 -119 -210 -146 -232 -18 -15 -20 -61 -3 -78 21 -21 53 -13 85 21
87 93 169 255 218 432 15 55 34 124 42 153 10 37 21 56 36 61 35 13 226 42
291 44 l60 2 12 -105 c6 -58 17 -125 24 -150 58 -222 229 -323 518 -307 104 6
142 22 142 61 0 40 -22 49 -102 40 -208 -23 -370 32 -428 145 -31 62 -54 169
-62 295 -3 36 0 40 27 48 16 4 104 10 195 14 91 4 167 8 170 11 7 7 327 -4
340 -12z"/>
</g>
</svg>
