<?xml version="1.0" standalone="no"?>
<!DOCTYPE svg PUBLIC "-//W3C//DTD SVG 20010904//EN"
 "http://www.w3.org/TR/2001/REC-SVG-20010904/DTD/svg10.dtd">
<svg version="1.0" xmlns="http://www.w3.org/2000/svg"
 width="248.000000pt" height="248.000000pt" viewBox="0 0 248.000000 248.000000"
 preserveAspectRatio="xMidYMid meet">
<metadata>
Created by potrace 1.10, written by Peter Selinger 2001-2011
</metadata>
<g transform="translate(0.000000,248.000000) scale(0.100000,-0.100000)"
fill="#000000" stroke="none">
<path d="M1179 2329 c-14 -14 -19 -28 -15 -42 19 -66 25 -127 21 -209 -3 -50
-8 -94 -10 -98 -3 -5 -31 -11 -62 -14 -194 -20 -385 -37 -497 -45 -110 -7
-131 -12 -149 -30 l-21 -21 29 -87 c28 -84 30 -96 29 -253 -2 -307 -71 -611
-204 -895 -54 -117 -103 -190 -162 -246 -41 -40 -47 -59 -22 -83 29 -29 64
-19 113 31 65 68 118 152 172 273 139 310 199 591 199 924 0 120 -5 199 -14
234 -7 29 -13 52 -12 52 1 1 62 5 136 10 74 5 257 20 405 34 287 27 741 56
965 61 114 3 136 6 147 21 19 26 16 52 -9 68 -20 13 -55 13 -238 6 -281 -12
-582 -29 -647 -36 l-53 -6 0 138 c0 151 -10 208 -40 224 -27 14 -37 13 -61
-11z"/>
<path d="M1754 1707 c-66 -45 -190 -118 -274 -162 -94 -49 -156 -88 -162 -101
-15 -32 6 -64 41 -64 58 0 457 230 554 319 42 38 32 91 -17 91 -12 -1 -75 -38
-142 -83z"/>
</g>
</svg>
