<?xml version="1.0" standalone="no"?>
<!DOCTYPE svg PUBLIC "-//W3C//DTD SVG 20010904//EN"
 "http://www.w3.org/TR/2001/REC-SVG-20010904/DTD/svg10.dtd">
<svg version="1.0" xmlns="http://www.w3.org/2000/svg"
 width="248.000000pt" height="248.000000pt" viewBox="0 0 248.000000 248.000000"
 preserveAspectRatio="xMidYMid meet">
<metadata>
Created by potrace 1.10, written by Peter Selinger 2001-2011
</metadata>
<g transform="translate(0.000000,248.000000) scale(0.100000,-0.100000)"
fill="#000000" stroke="none">
<path d="M1179 2329 c-14 -14 -19 -28 -15 -42 19 -66 25 -127 21 -209 -3 -50
-8 -94 -10 -98 -3 -5 -31 -11 -62 -14 -194 -20 -385 -37 -497 -45 -110 -7
-131 -12 -149 -30 l-21 -21 29 -87 c28 -84 30 -96 29 -253 -2 -307 -71 -611
-204 -895 -54 -117 -103 -190 -162 -246 -41 -40 -47 -59 -22 -83 29 -29 64
-19 113 31 65 68 118 152 172 273 139 310 199 591 199 924 0 120 -5 199 -14
234 -7 29 -13 52 -12 52 1 1 62 5 136 10 74 5 257 20 405 34 287 27 741 56
965 61 114 3 136 6 147 21 19 26 16 52 -9 68 -20 13 -55 13 -238 6 -281 -12
-582 -29 -647 -36 l-53 -6 0 138 c0 151 -10 208 -40 224 -27 14 -37 13 -61
-11z"/>
<path d="M1754 1707 c-66 -45 -190 -118 -274 -162 -159 -83 -182 -104 -161
-144 19 -35 61 -26 191 44 67 36 126 63 131 59 10 -6 12 -206 3 -240 -7 -27
11 -24 -399 -60 -78 -7 -95 -16 -95 -49 0 -34 22 -46 87 -46 62 0 293 17 356
27 l37 6 -1 -104 c0 -56 -4 -125 -7 -153 -7 -46 -9 -50 -42 -57 -19 -4 -91 -8
-158 -8 -107 -2 -126 -4 -143 -21 -24 -24 -24 -44 2 -70 17 -17 29 -19 72 -15
29 3 115 8 192 11 77 4 183 10 235 15 52 5 129 10 170 10 93 0 125 15 125 55
0 42 -33 55 -110 45 -33 -5 -102 -9 -152 -9 l-93 -1 1 68 c0 80 14 230 21 237
3 3 117 13 254 21 264 18 284 22 284 69 0 50 -1 50 -384 25 -77 -5 -142 -7
-145 -4 -3 3 -7 73 -9 155 -3 112 0 154 9 166 7 8 40 33 74 55 109 73 136 113
103 146 -23 23 -54 11 -174 -71z"/>
</g>
</svg>
