<?xml version="1.0" standalone="no"?>
<!DOCTYPE svg PUBLIC "-//W3C//DTD SVG 20010904//EN"
 "http://www.w3.org/TR/2001/REC-SVG-20010904/DTD/svg10.dtd">
<svg version="1.0" xmlns="http://www.w3.org/2000/svg"
 width="248.000000pt" height="248.000000pt" viewBox="0 0 248.000000 248.000000"
 preserveAspectRatio="xMidYMid meet">
<metadata>
Created by potrace 1.10, written by Peter Selinger 2001-2011
</metadata>
<g transform="translate(0.000000,248.000000) scale(0.100000,-0.100000)"
fill="#000000" stroke="none">
<path d="M830 2120 c-378 -59 -433 -68 -520 -87 -83 -18 -110 -35 -110 -68 0
-47 43 -56 153 -31 75 17 205 39 387 66 289 42 310 49 310 93 0 52 -32 56
-220 27z"/>
<path d="M965 1803 c-362 -43 -746 -107 -792 -131 -43 -23 -47 -58 -34 -274
15 -233 25 -283 63 -311 26 -19 33 -20 165 -8 136 11 236 23 363 42 36 5 125
16 199 23 127 13 134 15 157 42 34 42 37 76 31 303 -6 228 -18 288 -57 308
-25 13 -37 13 -95 6z m42 -190 l4 -82 -33 -5 c-18 -2 -94 -14 -168 -25 -75
-12 -154 -21 -175 -21 -22 0 -80 -6 -130 -14 -49 -8 -129 -17 -177 -21 l-88
-6 0 74 0 74 68 12 c210 40 301 54 617 95 77 9 77 9 82 -81z m3 -273 l0 -79
-32 -5 c-18 -3 -60 -8 -93 -11 -33 -3 -123 -15 -200 -25 -143 -19 -186 -24
-336 -36 l-86 -6 -6 73 c-3 40 -4 75 -2 78 3 2 47 8 97 12 51 4 117 12 147 18
29 6 77 11 106 11 28 0 101 9 161 19 114 21 158 27 212 29 l32 2 0 -80z"/>
<path d="M1055 989 c-154 -22 -305 -40 -360 -43 -62 -3 -211 -19 -350 -37 -44
-6 -115 -14 -157 -18 -43 -5 -84 -14 -93 -21 -22 -18 -18 -56 7 -74 28 -20 60
-20 174 -2 49 8 168 22 264 31 96 9 265 28 375 41 110 13 223 24 250 24 28 0
61 6 75 13 32 16 40 65 14 84 -20 15 -106 15 -199 2z"/>
</g>
</svg>
