<?xml version="1.0" standalone="no"?>
<!DOCTYPE svg PUBLIC "-//W3C//DTD SVG 20010904//EN"
 "http://www.w3.org/TR/2001/REC-SVG-20010904/DTD/svg10.dtd">
<svg version="1.0" xmlns="http://www.w3.org/2000/svg"
 width="248.000000pt" height="248.000000pt" viewBox="0 0 248.000000 248.000000"
 preserveAspectRatio="xMidYMid meet">
<metadata>
Created by potrace 1.10, written by Peter Selinger 2001-2011
</metadata>
<g transform="translate(0.000000,248.000000) scale(0.100000,-0.100000)"
fill="#000000" stroke="none">
<path d="M830 2120 c-378 -59 -433 -68 -520 -87 -83 -18 -110 -35 -110 -68 0
-47 43 -56 153 -31 75 17 205 39 387 66 289 42 310 49 310 93 0 52 -32 56
-220 27z"/>
<path d="M965 1804 c-16 -2 -100 -13 -185 -24 -263 -35 -541 -82 -593 -102
-51 -20 -60 -56 -53 -203 17 -315 30 -375 81 -375 43 0 54 33 44 134 -5 50 -6
92 -4 95 3 2 47 8 97 12 51 4 117 12 147 18 29 6 77 11 106 11 28 0 101 9 161
19 60 11 139 23 176 26 l66 7 4 -102 c2 -87 6 -104 22 -116 25 -18 37 -18 62
0 18 14 19 28 19 243 -1 230 -11 319 -40 343 -16 13 -68 20 -110 14z m42 -191
l4 -82 -33 -5 c-18 -2 -94 -14 -168 -25 -75 -12 -154 -21 -175 -21 -22 0 -80
-6 -130 -14 -49 -8 -129 -17 -177 -21 l-88 -6 0 74 0 74 68 12 c210 40 301 54
617 95 77 9 77 9 82 -81z"/>
</g>
</svg>
