<?xml version="1.0" standalone="no"?>
<!DOCTYPE svg PUBLIC "-//W3C//DTD SVG 20010904//EN"
 "http://www.w3.org/TR/2001/REC-SVG-20010904/DTD/svg10.dtd">
<svg version="1.0" xmlns="http://www.w3.org/2000/svg"
 width="248.000000pt" height="248.000000pt" viewBox="0 0 248.000000 248.000000"
 preserveAspectRatio="xMidYMid meet">
<metadata>
Created by potrace 1.10, written by Peter Selinger 2001-2011
</metadata>
<g transform="translate(0.000000,248.000000) scale(0.100000,-0.100000)"
fill="#000000" stroke="none">
<path d="M642 2388 c-8 -8 -12 -57 -12 -155 0 -160 9 -144 -85 -158 -187 -28
-305 -54 -327 -73 -21 -17 -23 -53 -6 -70 16 -16 65 -15 141 2 78 18 238 46
260 46 15 0 17 -14 17 -109 l0 -109 -72 -12 c-167 -27 -365 -68 -384 -78 -44
-23 -48 -58 -35 -274 15 -233 25 -283 63 -311 26 -20 29 -20 210 -3 101 9 186
16 191 16 4 0 7 -36 7 -79 0 -94 12 -87 -173 -101 -67 -6 -140 -14 -162 -20
-22 -5 -62 -10 -90 -10 -65 0 -99 -18 -103 -52 -2 -20 4 -31 24 -44 24 -16 35
-17 118 -5 50 7 127 16 171 21 44 4 109 11 145 15 l65 7 -3 -359 c-3 -388 -1
-405 49 -411 53 -6 54 1 59 399 3 202 8 370 11 374 9 8 382 55 444 55 66 0 99
18 103 55 8 68 -31 70 -396 19 -165 -23 -152 -28 -152 70 l0 84 38 6 c20 4 97
13 171 20 127 13 134 15 157 42 34 42 37 76 31 303 -9 314 -17 329 -174 311
-48 -6 -114 -13 -145 -17 l-58 -6 0 111 c0 125 -7 116 95 127 157 16 215 38
215 79 0 53 -16 54 -266 19 l-42 -5 -4 125 c-3 105 -7 129 -22 146 -21 23 -56
27 -74 9z m362 -740 c3 -29 6 -67 6 -85 0 -36 10 -32 -150 -53 -47 -6 -95 -14
-107 -17 -23 -5 -23 -3 -23 85 l0 90 83 11 c105 14 137 18 163 20 18 1 22 -6
28 -51z m-384 -82 l0 -83 -112 -16 c-62 -9 -148 -19 -190 -22 l-78 -7 0 74 0
74 128 24 c70 12 143 26 162 30 19 5 47 8 63 9 l27 1 0 -84z m390 -226 l0 -79
-32 -5 c-18 -3 -80 -10 -138 -16 -57 -7 -108 -14 -112 -16 -10 -6 -9 101 1
136 5 20 16 26 51 33 68 12 161 24 198 26 l32 1 0 -80z m-395 -47 c-4 -43 -9
-80 -11 -82 -5 -5 -334 -35 -338 -30 -2 2 -6 36 -10 75 -7 83 -6 83 94 84 30
1 84 7 120 15 36 7 85 13 109 14 l43 1 -7 -77z"/>
<path d="M2085 2165 c-11 -2 -67 -8 -125 -15 -217 -23 -287 -31 -350 -40 -36
-5 -114 -14 -175 -20 -125 -13 -158 -27 -153 -68 6 -56 34 -57 378 -11 85 11
237 28 337 38 106 11 189 24 198 31 19 16 19 54 0 70 -15 12 -75 21 -110 15z"/>
<path d="M2175 1626 c-60 -8 -195 -21 -300 -30 -104 -9 -226 -21 -270 -27 -44
-5 -151 -16 -238 -24 -181 -16 -212 -26 -212 -70 0 -49 27 -54 200 -39 83 7
161 16 174 19 14 4 99 13 190 21 339 30 389 34 508 47 128 14 153 25 153 62 0
50 -46 60 -205 41z"/>
</g>
</svg>
