<?xml version="1.0" standalone="no"?>
<!DOCTYPE svg PUBLIC "-//W3C//DTD SVG 20010904//EN"
 "http://www.w3.org/TR/2001/REC-SVG-20010904/DTD/svg10.dtd">
<svg version="1.0" xmlns="http://www.w3.org/2000/svg"
 width="248.000000pt" height="248.000000pt" viewBox="0 0 248.000000 248.000000"
 preserveAspectRatio="xMidYMid meet">
<metadata>
Created by potrace 1.10, written by Peter Selinger 2001-2011
</metadata>
<g transform="translate(0.000000,248.000000) scale(0.100000,-0.100000)"
fill="#000000" stroke="none">
<path d="M1670 2303 c-93 -3 -382 -28 -555 -48 -71 -8 -194 -18 -273 -23 -159
-9 -177 -17 -175 -74 0 -29 35 -365 48 -473 15 -119 31 -155 69 -155 50 0 51
13 26 257 -12 125 -25 250 -29 279 l-7 52 44 6 c25 3 68 6 96 6 28 0 105 7
171 15 154 18 444 43 608 51 l128 6 -6 -49 c-9 -71 -32 -176 -83 -385 -43
-179 -44 -188 -28 -212 9 -15 23 -26 32 -26 42 0 50 17 98 217 60 253 73 312
87 398 14 84 13 115 -4 132 -14 14 -107 34 -146 31 -14 -1 -60 -3 -101 -5z"/>
</g>
</svg>
