<?xml version="1.0" standalone="no"?>
<!DOCTYPE svg PUBLIC "-//W3C//DTD SVG 20010904//EN"
 "http://www.w3.org/TR/2001/REC-SVG-20010904/DTD/svg10.dtd">
<svg version="1.0" xmlns="http://www.w3.org/2000/svg"
 width="248.000000pt" height="248.000000pt" viewBox="0 0 248.000000 248.000000"
 preserveAspectRatio="xMidYMid meet">
<metadata>
Created by potrace 1.10, written by Peter Selinger 2001-2011
</metadata>
<g transform="translate(0.000000,248.000000) scale(0.100000,-0.100000)"
fill="#000000" stroke="none">
<path d="M1094 2425 c-14 -22 -15 -35 -6 -97 6 -40 9 -74 7 -76 -2 -2 -86 -8
-187 -14 -100 -6 -193 -14 -206 -19 -24 -9 -45 -52 -38 -78 3 -9 14 -106 26
-216 11 -110 23 -222 27 -250 4 -27 7 -72 7 -100 1 -76 8 -77 261 -70 417 11
770 27 786 35 11 6 31 73 63 207 77 321 100 440 97 493 -3 66 -67 75 -387 55
l-71 -5 -11 66 c-12 74 -24 94 -57 94 -37 0 -49 -25 -47 -100 l3 -67 -32 -7
c-55 -11 -129 -7 -129 7 -1 41 -21 141 -31 153 -18 22 -57 17 -75 -11z m721
-272 c-3 -27 -11 -69 -16 -94 l-10 -46 -91 -7 c-50 -3 -122 -6 -160 -6 l-68 0
0 90 c0 105 -10 98 145 103 55 2 124 4 153 5 l53 2 -6 -47z m-455 -78 l0 -95
-37 0 c-21 0 -55 -3 -75 -6 l-38 -7 0 96 0 96 43 4 c23 2 57 4 75 5 l32 2 0
-95z m-260 -25 l0 -100 -107 -1 c-60 -1 -128 -2 -153 -3 l-45 -1 -10 86 -11
87 45 6 c24 3 71 6 105 7 50 1 106 7 169 18 4 0 7 -44 7 -99z m660 -167 c0
-22 -56 -232 -64 -240 -3 -3 -58 -8 -122 -11 l-117 -5 6 24 c4 13 7 72 7 131
l0 107 83 4 c210 8 207 8 207 -10z m-398 -118 c1 -58 2 -113 2 -122 1 -16 -10
-18 -79 -21 l-80 -3 3 113 c1 62 5 119 7 126 3 8 27 12 75 12 l70 0 2 -105z
m-260 -27 c2 -62 2 -115 0 -117 -1 -3 -63 -7 -136 -9 l-135 -5 -5 34 c-4 19
-7 70 -9 114 l-2 80 135 5 c74 3 138 7 142 8 4 1 8 -49 10 -110z"/>
<path d="M1828 1425 c-6 -7 -164 -17 -458 -30 -74 -3 -180 -10 -235 -16 -55
-5 -178 -14 -274 -19 -103 -5 -178 -13 -185 -20 -7 -7 -11 -66 -12 -168 0 -86
-5 -184 -12 -217 -6 -33 -19 -114 -27 -180 -31 -225 -97 -490 -146 -585 -23
-43 -15 -74 21 -85 51 -16 82 33 135 216 52 177 87 356 115 589 5 36 14 106
20 155 6 50 8 111 5 138 l-7 47 49 1 c26 0 98 4 158 9 61 5 191 14 290 20 526
29 656 40 680 60 19 16 19 54 0 70 -17 15 -106 26 -117 15z"/>
</g>
</svg>
