<?xml version="1.0" standalone="no"?>
<!DOCTYPE svg PUBLIC "-//W3C//DTD SVG 20010904//EN"
 "http://www.w3.org/TR/2001/REC-SVG-20010904/DTD/svg10.dtd">
<svg version="1.0" xmlns="http://www.w3.org/2000/svg"
 width="248.000000pt" height="248.000000pt" viewBox="0 0 248.000000 248.000000"
 preserveAspectRatio="xMidYMid meet">
<metadata>
Created by potrace 1.10, written by Peter Selinger 2001-2011
</metadata>
<g transform="translate(0.000000,248.000000) scale(0.100000,-0.100000)"
fill="#000000" stroke="none">
<path d="M742 2293 c-90 -97 -189 -209 -204 -232 -9 -12 -54 -64 -101 -115
-175 -189 -207 -226 -207 -241 0 -29 38 -56 73 -51 18 3 68 10 112 17 44 6
159 24 255 40 96 17 226 39 289 50 63 10 123 21 133 25 45 14 64 68 33 94 -13
11 -38 9 -138 -9 -291 -51 -540 -92 -549 -89 -5 2 25 42 69 88 43 47 94 105
112 130 19 25 67 79 107 120 110 116 134 146 134 172 0 64 -58 65 -118 1z"/>
</g>
</svg>
