<?xml version="1.0" standalone="no"?>
<!DOCTYPE svg PUBLIC "-//W3C//DTD SVG 20010904//EN"
 "http://www.w3.org/TR/2001/REC-SVG-20010904/DTD/svg10.dtd">
<svg version="1.0" xmlns="http://www.w3.org/2000/svg"
 width="248.000000pt" height="248.000000pt" viewBox="0 0 248.000000 248.000000"
 preserveAspectRatio="xMidYMid meet">
<metadata>
Created by potrace 1.10, written by Peter Selinger 2001-2011
</metadata>
<g transform="translate(0.000000,248.000000) scale(0.100000,-0.100000)"
fill="#000000" stroke="none">
<path d="M742 2293 c-90 -97 -189 -209 -204 -232 -9 -12 -54 -64 -101 -115
-175 -189 -207 -226 -207 -241 0 -29 38 -56 73 -51 18 3 68 10 112 17 44 6
159 24 255 40 96 17 229 39 294 50 66 11 127 24 137 29 14 8 25 -1 58 -45 29
-38 49 -55 64 -55 57 0 62 56 10 131 -51 75 -170 189 -197 189 -51 0 -62 -57
-20 -101 l27 -28 -24 -5 c-13 -3 -53 -10 -89 -16 -36 -6 -159 -26 -273 -46
-115 -19 -213 -34 -219 -32 -5 2 25 42 69 88 43 47 94 105 112 130 19 25 67
79 107 120 110 116 134 146 134 172 0 64 -58 65 -118 1z"/>
<path d="M923 1609 c-46 -5 -122 -18 -170 -28 -49 -11 -140 -25 -203 -31 -162
-16 -177 -19 -190 -35 -8 -9 -12 -100 -15 -292 -2 -153 -8 -429 -13 -613 -4
-184 -5 -345 -1 -357 15 -43 73 -40 91 6 11 27 31 654 32 984 1 158 3 188 16
192 8 2 51 7 95 10 44 4 130 17 190 30 61 12 145 26 189 29 l78 7 -8 -138 c-4
-76 -7 -262 -6 -413 1 -151 -1 -353 -4 -448 l-6 -172 -41 30 c-60 44 -117 37
-117 -13 0 -11 39 -57 92 -108 96 -93 130 -108 159 -73 18 21 32 411 24 659
-4 99 -1 293 4 432 15 366 16 364 -196 342z"/>
</g>
</svg>
