<?xml version="1.0" standalone="no"?>
<!DOCTYPE svg PUBLIC "-//W3C//DTD SVG 20010904//EN"
 "http://www.w3.org/TR/2001/REC-SVG-20010904/DTD/svg10.dtd">
<svg version="1.0" xmlns="http://www.w3.org/2000/svg"
 width="248.000000pt" height="248.000000pt" viewBox="0 0 248.000000 248.000000"
 preserveAspectRatio="xMidYMid meet">
<metadata>
Created by potrace 1.10, written by Peter Selinger 2001-2011
</metadata>
<g transform="translate(0.000000,248.000000) scale(0.100000,-0.100000)"
fill="#000000" stroke="none">
<path d="M1094 2425 c-14 -22 -15 -35 -6 -97 6 -40 9 -74 7 -76 -2 -2 -86 -8
-187 -14 -100 -6 -193 -14 -206 -19 -24 -9 -45 -52 -38 -78 3 -9 14 -106 26
-216 32 -313 36 -340 56 -372 17 -27 55 -30 74 -8 11 13 9 58 -10 242 -12 125
-25 251 -29 279 l-7 53 60 5 c34 3 101 8 149 11 49 3 95 9 103 12 12 4 14 -33
14 -248 0 -184 4 -261 13 -279 17 -34 60 -39 81 -8 14 19 16 61 16 285 0 258
0 263 20 263 11 0 85 6 163 14 78 8 206 17 285 21 l143 6 -6 -48 c-9 -71 -32
-176 -83 -385 -43 -179 -44 -188 -28 -212 9 -15 23 -26 32 -26 42 0 50 17 98
217 60 253 73 312 87 398 20 124 14 139 -67 154 -53 10 -265 2 -506 -20 -76
-7 -140 -11 -142 -8 -2 2 -9 37 -14 77 -6 40 -16 80 -22 88 -19 22 -58 17 -76
-11z"/>
</g>
</svg>
