<?xml version="1.0" standalone="no"?>
<!DOCTYPE svg PUBLIC "-//W3C//DTD SVG 20010904//EN"
 "http://www.w3.org/TR/2001/REC-SVG-20010904/DTD/svg10.dtd">
<svg version="1.0" xmlns="http://www.w3.org/2000/svg"
 width="248.000000pt" height="248.000000pt" viewBox="0 0 248.000000 248.000000"
 preserveAspectRatio="xMidYMid meet">
<metadata>
Created by potrace 1.10, written by Peter Selinger 2001-2011
</metadata>
<g transform="translate(0.000000,248.000000) scale(0.100000,-0.100000)"
fill="#000000" stroke="none">
<path d="M1094 2425 c-14 -22 -15 -35 -6 -97 6 -40 9 -74 7 -76 -2 -2 -86 -8
-187 -14 -100 -6 -193 -14 -206 -19 -24 -9 -45 -52 -38 -78 3 -9 14 -106 26
-216 32 -313 36 -340 56 -372 17 -26 55 -30 74 -8 10 12 10 42 0 146 -6 72 -8
135 -3 139 4 5 70 10 146 12 l137 3 0 -100 c0 -113 12 -148 51 -153 44 -5 54
19 59 152 l5 121 73 3 72 3 0 -103 c0 -122 12 -153 55 -153 44 0 55 31 55 161
l0 111 141 7 c77 4 144 5 147 1 3 -3 -11 -75 -32 -160 -38 -147 -38 -155 -22
-179 9 -14 23 -26 32 -26 42 0 50 17 98 217 77 321 100 440 97 493 -3 66 -67
75 -387 55 l-71 -5 -11 66 c-12 74 -24 94 -57 94 -37 0 -49 -25 -47 -100 l3
-67 -32 -7 c-55 -11 -129 -7 -129 7 -1 41 -21 141 -31 153 -18 22 -57 17 -75
-11z m721 -272 c-3 -27 -11 -69 -16 -94 l-10 -46 -91 -7 c-50 -3 -122 -6 -160
-6 l-68 0 0 90 c0 105 -10 98 145 103 55 2 124 4 153 5 l53 2 -6 -47z m-455
-78 l0 -95 -37 0 c-21 0 -55 -3 -75 -6 l-38 -7 0 96 0 96 43 4 c23 2 57 4 75
5 l32 2 0 -95z m-260 -25 l0 -100 -107 -1 c-60 -1 -128 -2 -153 -3 l-45 -1
-10 86 -11 87 45 6 c24 3 71 6 105 7 50 1 106 7 169 18 4 0 7 -44 7 -99z"/>
</g>
</svg>
