<?xml version="1.0" standalone="no"?>
<!DOCTYPE svg PUBLIC "-//W3C//DTD SVG 20010904//EN"
 "http://www.w3.org/TR/2001/REC-SVG-20010904/DTD/svg10.dtd">
<svg version="1.0" xmlns="http://www.w3.org/2000/svg"
 width="248.000000pt" height="248.000000pt" viewBox="0 0 248.000000 248.000000"
 preserveAspectRatio="xMidYMid meet">
<metadata>
Created by potrace 1.10, written by Peter Selinger 2001-2011
</metadata>
<g transform="translate(0.000000,248.000000) scale(0.100000,-0.100000)"
fill="#000000" stroke="none">
<path d="M742 2293 c-90 -97 -189 -209 -204 -232 -9 -12 -54 -64 -101 -115
-175 -189 -207 -226 -207 -241 0 -29 38 -56 73 -51 18 3 68 10 112 17 44 6
159 24 255 40 96 17 229 39 294 50 66 11 127 24 137 29 14 8 25 -1 58 -45 29
-38 49 -55 64 -55 57 0 62 56 10 131 -51 75 -170 189 -197 189 -51 0 -62 -57
-20 -101 l27 -28 -24 -5 c-13 -3 -53 -10 -89 -16 -36 -6 -159 -26 -273 -46
-115 -19 -213 -34 -219 -32 -5 2 25 42 69 88 43 47 94 105 112 130 19 25 67
79 107 120 110 116 134 146 134 172 0 64 -58 65 -118 1z"/>
<path d="M923 1609 c-46 -5 -122 -18 -170 -28 -49 -11 -140 -25 -203 -31 -162
-16 -177 -19 -190 -35 -8 -9 -12 -100 -15 -292 -2 -153 -8 -429 -13 -613 -4
-184 -5 -345 -1 -357 15 -43 73 -40 91 6 6 15 14 183 18 399 4 205 9 374 11
376 2 2 64 9 138 15 74 7 171 18 215 26 45 7 108 16 141 20 l60 6 3 -208 c2
-114 1 -286 -3 -381 l-7 -172 -41 30 c-60 44 -117 37 -117 -13 0 -11 39 -57
92 -108 96 -93 130 -108 159 -73 18 21 32 411 24 654 -3 96 -1 291 4 432 15
372 17 369 -196 347z m94 -196 c-4 -54 -7 -124 -7 -155 l0 -58 -44 0 c-24 0
-95 -9 -158 -19 -62 -11 -166 -23 -230 -27 l-117 -7 -3 139 c-2 76 1 142 6
145 5 4 47 10 95 14 47 4 129 16 181 27 88 19 184 33 254 37 l29 1 -6 -97z"/>
</g>
</svg>
