<?xml version="1.0" standalone="no"?>
<!DOCTYPE svg PUBLIC "-//W3C//DTD SVG 20010904//EN"
 "http://www.w3.org/TR/2001/REC-SVG-20010904/DTD/svg10.dtd">
<svg version="1.0" xmlns="http://www.w3.org/2000/svg"
 width="248.000000pt" height="248.000000pt" viewBox="0 0 248.000000 248.000000"
 preserveAspectRatio="xMidYMid meet">
<metadata>
Created by potrace 1.10, written by Peter Selinger 2001-2011
</metadata>
<g transform="translate(0.000000,248.000000) scale(0.100000,-0.100000)"
fill="#000000" stroke="none">
<path d="M1376 2398 c-12 -16 -16 -47 -16 -115 l0 -92 -32 -5 c-120 -19 -263
-36 -301 -36 -70 0 -95 -44 -77 -141 5 -30 17 -139 25 -243 9 -104 22 -203 29
-221 23 -54 66 -60 344 -46 130 6 341 16 467 22 294 12 292 12 308 52 30 73
73 443 65 563 -3 56 -8 70 -29 87 -22 18 -34 19 -159 13 -74 -4 -153 -9 -175
-12 l-41 -6 0 75 c0 85 -19 127 -58 127 -39 0 -50 -24 -48 -108 1 -42 -1 -82
-5 -88 -5 -7 -52 -15 -105 -19 l-98 -7 0 89 c0 99 -14 133 -55 133 -13 0 -31
-10 -39 -22z m704 -337 c0 -37 -3 -89 -6 -115 l-7 -46 -143 0 -144 0 0 104 0
105 48 6 c26 4 52 8 57 10 6 2 52 4 103 4 l92 1 0 -69z m-410 -65 l0 -103 -46
-7 c-26 -3 -69 -6 -95 -6 l-49 0 0 104 0 105 33 4 c17 2 60 5 95 5 l62 2 0
-104z m-300 -21 l0 -105 -37 0 c-21 -1 -85 -5 -143 -10 -58 -4 -107 -6 -109
-4 -6 5 -31 177 -27 182 6 6 234 39 284 41 l32 1 0 -105z m686 -207 c-4 -13
-9 -47 -13 -75 l-6 -53 -37 0 c-20 0 -78 -3 -128 -6 l-92 -7 0 82 0 81 141 0
141 0 -6 -22z m-386 -62 c0 -53 -4 -75 -14 -79 -7 -3 -50 -9 -95 -12 l-81 -8
0 81 0 81 53 4 c28 2 71 4 95 5 l42 2 0 -74z m-300 -15 c0 -94 6 -91 -157 -91
-129 0 -127 -1 -121 96 l3 49 130 11 c72 6 133 12 138 12 4 1 7 -33 7 -77z"/>
<path d="M242 2158 c-13 -13 -15 -37 -6 -62 4 -9 31 -33 61 -54 188 -127 233
-145 255 -97 14 30 -9 69 -54 93 -17 10 -70 43 -117 75 -86 57 -117 67 -139
45z"/>
<path d="M132 1508 c-17 -17 -15 -53 6 -70 9 -9 44 -31 77 -49 33 -18 73 -43
89 -56 16 -13 47 -33 69 -44 52 -27 87 -15 87 30 0 25 -10 38 -57 72 -80 60
-207 129 -235 129 -13 0 -29 -5 -36 -12z"/>
<path d="M1995 1434 c-22 -5 -664 -34 -892 -41 -189 -5 -178 7 -186 -230 -3
-98 -10 -203 -16 -233 -6 -30 -17 -91 -25 -135 -47 -256 -125 -510 -182 -595
-30 -43 -31 -85 -4 -100 29 -15 56 -4 86 35 49 64 119 260 154 428 11 54 24
106 30 117 22 41 70 394 70 517 l0 82 93 4 c50 3 254 12 452 21 467 21 545 28
562 52 16 23 16 35 -1 59 -13 18 -94 29 -141 19z"/>
<path d="M1705 1209 c-539 -26 -565 -30 -565 -84 0 -47 29 -53 195 -44 83 4
245 13 360 18 241 12 261 15 276 42 24 45 -17 81 -89 77 -20 -1 -100 -5 -177
-9z"/>
<path d="M423 658 c-33 -43 -243 -456 -243 -478 0 -38 48 -52 86 -26 10 8 71
116 133 240 102 202 113 229 103 251 -9 18 -19 25 -41 25 -16 0 -33 -6 -38
-12z"/>
</g>
</svg>
