<?xml version="1.0" standalone="no"?>
<!DOCTYPE svg PUBLIC "-//W3C//DTD SVG 20010904//EN"
 "http://www.w3.org/TR/2001/REC-SVG-20010904/DTD/svg10.dtd">
<svg version="1.0" xmlns="http://www.w3.org/2000/svg"
 width="248.000000pt" height="248.000000pt" viewBox="0 0 248.000000 248.000000"
 preserveAspectRatio="xMidYMid meet">
<metadata>
Created by potrace 1.10, written by Peter Selinger 2001-2011
</metadata>
<g transform="translate(0.000000,248.000000) scale(0.100000,-0.100000)"
fill="#000000" stroke="none">
<path d="M629 2252 c-194 -171 -436 -413 -444 -444 -11 -45 2 -70 63 -123 31
-27 79 -74 106 -102 l49 -53 -59 -86 c-32 -48 -78 -114 -102 -148 -114 -165
-140 -228 -106 -257 19 -16 108 1 252 48 l92 31 1 -137 c1 -75 4 -297 8 -494
6 -340 7 -359 25 -373 25 -18 37 -18 62 0 18 14 19 29 16 530 l-3 516 33 15
c18 8 64 26 102 41 l69 26 62 -64 c72 -75 89 -84 121 -63 46 30 33 59 -74 164
-54 53 -116 120 -136 149 -39 54 -76 73 -105 55 -31 -19 -25 -61 14 -109 21
-25 35 -47 33 -49 -20 -21 -405 -162 -414 -152 -7 6 84 143 222 333 160 221
241 333 272 373 35 47 40 86 11 104 -34 21 -65 -1 -134 -95 -38 -51 -98 -133
-133 -181 l-65 -89 -86 87 -86 86 130 127 c72 70 187 179 258 241 127 112 151
146 130 180 -6 9 -21 17 -35 19 -20 2 -52 -20 -149 -106z"/>
<path d="M2185 2113 c-22 -2 -101 -14 -175 -28 -74 -13 -187 -31 -250 -40 -63
-9 -155 -23 -205 -31 -49 -8 -124 -19 -165 -24 -155 -20 -202 -29 -216 -41
-12 -10 -14 -86 -14 -483 0 -259 -5 -655 -10 -880 -7 -294 -6 -413 2 -423 16
-19 52 -16 73 7 28 31 35 211 38 983 2 643 3 708 18 712 16 5 183 32 379 60
211 30 299 44 380 58 47 9 104 18 126 21 l41 6 13 -58 c15 -67 27 -1303 15
-1560 l-7 -152 -60 55 c-42 39 -67 55 -87 55 -32 0 -51 -16 -51 -44 0 -20 147
-173 187 -194 30 -16 75 -15 99 2 17 13 20 32 25 193 10 262 9 1305 -1 1468
-12 193 -27 306 -42 321 -16 16 -59 23 -113 17z"/>
<path d="M682 828 c-26 -26 -7 -90 66 -232 27 -50 58 -115 71 -144 25 -59 55
-81 88 -63 11 6 23 19 26 30 5 20 -58 170 -106 252 -15 26 -34 69 -42 97 -16
51 -36 72 -72 72 -11 0 -24 -5 -31 -12z"/>
<path d="M240 814 c-8 -8 -17 -47 -21 -87 -6 -70 -17 -127 -60 -329 -22 -103
-20 -133 12 -143 54 -17 69 8 99 170 12 61 30 146 41 190 23 97 24 163 3 193
-18 26 -56 29 -74 6z"/>
</g>
</svg>
