<?xml version="1.0" standalone="no"?>
<!DOCTYPE svg PUBLIC "-//W3C//DTD SVG 20010904//EN"
 "http://www.w3.org/TR/2001/REC-SVG-20010904/DTD/svg10.dtd">
<svg version="1.0" xmlns="http://www.w3.org/2000/svg"
 width="248.000000pt" height="248.000000pt" viewBox="0 0 248.000000 248.000000"
 preserveAspectRatio="xMidYMid meet">
<metadata>
Created by potrace 1.10, written by Peter Selinger 2001-2011
</metadata>
<g transform="translate(0.000000,248.000000) scale(0.100000,-0.100000)"
fill="#000000" stroke="none">
<path d="M629 2252 c-194 -171 -436 -413 -444 -444 -11 -45 2 -70 63 -123 31
-27 79 -74 106 -102 l49 -53 -59 -86 c-32 -48 -78 -114 -102 -148 -114 -165
-140 -228 -106 -257 19 -16 108 1 252 48 l92 31 1 -137 c1 -75 4 -297 8 -494
6 -340 7 -359 25 -373 25 -18 37 -18 62 0 18 14 19 29 16 530 l-3 516 33 15
c18 8 64 26 102 41 l69 26 62 -64 c72 -75 89 -84 121 -63 46 30 33 59 -74 164
-54 53 -116 120 -136 149 -39 54 -76 73 -105 55 -31 -19 -25 -61 14 -109 21
-25 35 -47 33 -49 -20 -21 -405 -162 -414 -152 -7 6 84 143 222 333 160 221
241 333 272 373 35 47 40 86 11 104 -34 21 -65 -1 -134 -95 -38 -51 -98 -133
-133 -181 l-65 -89 -86 87 -86 86 130 127 c72 70 187 179 258 241 127 112 151
146 130 180 -6 9 -21 17 -35 19 -20 2 -52 -20 -149 -106z"/>
</g>
</svg>
