<?xml version="1.0" standalone="no"?>
<!DOCTYPE svg PUBLIC "-//W3C//DTD SVG 20010904//EN"
 "http://www.w3.org/TR/2001/REC-SVG-20010904/DTD/svg10.dtd">
<svg version="1.0" xmlns="http://www.w3.org/2000/svg"
 width="248.000000pt" height="248.000000pt" viewBox="0 0 248.000000 248.000000"
 preserveAspectRatio="xMidYMid meet">
<metadata>
Created by potrace 1.10, written by Peter Selinger 2001-2011
</metadata>
<g transform="translate(0.000000,248.000000) scale(0.100000,-0.100000)"
fill="#000000" stroke="none">
<path d="M1810 2225 c-63 -7 -212 -20 -330 -29 -118 -10 -258 -23 -310 -31
-52 -8 -116 -15 -141 -15 -73 0 -96 -41 -79 -146 5 -32 17 -142 26 -244 18
-213 29 -250 72 -250 54 0 56 10 37 222 -9 106 -20 218 -25 248 -4 30 -6 56
-5 58 7 8 207 33 380 47 110 8 252 20 315 26 63 6 164 14 224 16 l109 5 -7
-133 c-3 -74 -11 -163 -17 -199 -5 -36 -13 -94 -16 -130 -5 -58 -3 -67 16 -84
17 -16 25 -17 46 -8 13 6 27 22 29 34 36 168 62 424 54 527 -6 90 -15 96 -151
98 -62 0 -164 -5 -227 -12z"/>
<path d="M242 2158 c-13 -13 -15 -37 -6 -62 4 -9 31 -33 61 -54 188 -127 233
-145 255 -97 15 33 -6 64 -69 100 -26 16 -79 50 -117 77 -70 48 -102 58 -124
36z"/>
<path d="M132 1508 c-17 -17 -15 -53 6 -70 9 -9 44 -31 77 -49 33 -18 73 -43
89 -56 16 -13 47 -33 69 -44 52 -27 87 -15 87 30 0 25 -10 38 -57 72 -84 63
-204 129 -233 129 -15 0 -31 -5 -38 -12z"/>
<path d="M423 658 c-33 -43 -243 -455 -243 -478 0 -23 20 -40 48 -40 36 0 73
47 123 157 24 54 70 147 103 207 50 92 58 112 50 135 -7 19 -17 27 -40 29 -17
2 -35 -3 -41 -10z"/>
</g>
</svg>
