<?xml version="1.0" standalone="no"?>
<!DOCTYPE svg PUBLIC "-//W3C//DTD SVG 20010904//EN"
 "http://www.w3.org/TR/2001/REC-SVG-20010904/DTD/svg10.dtd">
<svg version="1.0" xmlns="http://www.w3.org/2000/svg"
 width="248.000000pt" height="248.000000pt" viewBox="0 0 248.000000 248.000000"
 preserveAspectRatio="xMidYMid meet">
<metadata>
Created by potrace 1.10, written by Peter Selinger 2001-2011
</metadata>
<g transform="translate(0.000000,248.000000) scale(0.100000,-0.100000)"
fill="#000000" stroke="none">
<path d="M1376 2398 c-12 -16 -16 -47 -16 -115 l0 -92 -32 -5 c-120 -19 -263
-36 -301 -36 -71 0 -94 -42 -77 -146 5 -32 17 -142 26 -244 9 -102 22 -199 29
-217 22 -52 76 -58 367 -43 134 7 349 18 478 24 129 7 243 16 252 20 10 4 22
24 27 45 33 125 66 434 59 546 -6 96 -13 100 -156 100 -64 0 -146 -4 -182 -8
l-66 -9 0 74 c0 86 -19 128 -59 128 -39 0 -53 -31 -48 -113 2 -39 0 -77 -4
-83 -4 -7 -52 -15 -105 -19 l-98 -7 0 89 c0 99 -14 133 -55 133 -13 0 -31 -10
-39 -22z m704 -337 c0 -37 -3 -89 -6 -115 l-7 -46 -143 0 -144 0 0 104 0 105
48 6 c26 4 52 8 57 10 6 2 52 4 103 4 l92 1 0 -69z m-410 -65 l0 -103 -52 -7
c-29 -3 -72 -6 -95 -6 l-43 0 0 104 0 105 33 4 c17 2 60 5 95 5 l62 2 0 -104z
m-300 -21 l0 -105 -37 0 c-21 -1 -85 -5 -143 -10 -58 -4 -107 -6 -109 -4 -6 5
-30 178 -26 182 5 6 230 38 283 41 l32 1 0 -105z m686 -207 c-4 -13 -9 -47
-13 -75 l-6 -53 -37 0 c-20 0 -78 -3 -128 -6 l-92 -7 0 82 0 81 141 0 141 0
-6 -22z m-386 -62 c0 -53 -4 -75 -14 -79 -7 -3 -50 -9 -95 -12 l-81 -8 0 81 0
81 53 4 c28 2 71 4 95 5 l42 2 0 -74z m-300 -15 c0 -94 6 -91 -156 -91 -128 0
-124 -3 -124 91 l0 59 68 1 c55 1 173 11 205 17 4 1 7 -33 7 -77z"/>
<path d="M242 2158 c-13 -13 -15 -37 -6 -62 4 -9 31 -33 61 -54 188 -127 233
-145 255 -97 15 33 -6 64 -69 100 -26 16 -79 50 -117 77 -70 48 -102 58 -124
36z"/>
<path d="M132 1508 c-17 -17 -15 -53 6 -70 9 -9 44 -31 77 -49 33 -18 73 -43
89 -56 16 -13 47 -33 69 -44 52 -27 87 -15 87 30 0 25 -10 38 -57 72 -84 63
-204 129 -233 129 -15 0 -31 -5 -38 -12z"/>
<path d="M423 658 c-33 -43 -243 -455 -243 -478 0 -23 20 -40 48 -40 36 0 73
47 123 157 24 54 70 147 103 207 50 92 58 112 50 135 -7 19 -17 27 -40 29 -17
2 -35 -3 -41 -10z"/>
</g>
</svg>
