<?xml version="1.0" standalone="no"?>
<!DOCTYPE svg PUBLIC "-//W3C//DTD SVG 20010904//EN"
 "http://www.w3.org/TR/2001/REC-SVG-20010904/DTD/svg10.dtd">
<svg version="1.0" xmlns="http://www.w3.org/2000/svg"
 width="248.000000pt" height="248.000000pt" viewBox="0 0 248.000000 248.000000"
 preserveAspectRatio="xMidYMid meet">
<metadata>
Created by potrace 1.10, written by Peter Selinger 2001-2011
</metadata>
<g transform="translate(0.000000,248.000000) scale(0.100000,-0.100000)"
fill="#000000" stroke="none">
<path d="M226 2248 c-14 -19 -16 -74 -16 -398 0 -357 -6 -574 -31 -1045 -9
-182 -31 -362 -67 -545 -10 -54 -3 -81 24 -90 33 -12 61 9 73 55 33 132 70
416 80 620 26 503 31 680 31 1022 0 390 -2 403 -55 403 -13 0 -31 -10 -39 -22z"/>
</g>
</svg>
