<?xml version="1.0" standalone="no"?>
<!DOCTYPE svg PUBLIC "-//W3C//DTD SVG 20010904//EN"
 "http://www.w3.org/TR/2001/REC-SVG-20010904/DTD/svg10.dtd">
<svg version="1.0" xmlns="http://www.w3.org/2000/svg"
 width="248.000000pt" height="248.000000pt" viewBox="0 0 248.000000 248.000000"
 preserveAspectRatio="xMidYMid meet">
<metadata>
Created by potrace 1.10, written by Peter Selinger 2001-2011
</metadata>
<g transform="translate(0.000000,248.000000) scale(0.100000,-0.100000)"
fill="#000000" stroke="none">
<path d="M605 2355 c-88 -18 -178 -37 -200 -43 -22 -6 -62 -14 -89 -17 -35 -5
-57 -15 -78 -35 l-28 -28 0 -379 c0 -580 -28 -1177 -67 -1408 -14 -82 -27
-176 -30 -207 -5 -54 -4 -58 18 -67 44 -16 67 5 83 78 51 229 77 497 91 951 3
96 8 196 11 222 l6 46 51 7 c29 4 69 11 89 16 20 5 87 18 150 30 62 11 120 22
129 25 15 4 16 -52 17 -646 0 -616 -1 -650 -17 -636 -21 19 -62 21 -79 4 -27
-27 -13 -57 94 -196 30 -38 71 -43 100 -11 15 16 19 35 18 83 0 33 -3 534 -6
1111 -3 793 -8 1058 -17 1081 -11 29 -47 55 -74 53 -7 0 -84 -15 -172 -34z
m148 -202 c4 -71 7 -211 7 -314 l0 -185 -97 -19 c-54 -10 -140 -26 -192 -36
-51 -11 -106 -19 -122 -19 l-29 0 0 304 0 304 58 11 c31 6 125 27 207 45 83
19 153 35 156 35 3 1 9 -56 12 -126z"/>
</g>
</svg>
