<?xml version="1.0" standalone="no"?>
<!DOCTYPE svg PUBLIC "-//W3C//DTD SVG 20010904//EN"
 "http://www.w3.org/TR/2001/REC-SVG-20010904/DTD/svg10.dtd">
<svg version="1.0" xmlns="http://www.w3.org/2000/svg"
 width="248.000000pt" height="248.000000pt" viewBox="0 0 248.000000 248.000000"
 preserveAspectRatio="xMidYMid meet">
<metadata>
Created by potrace 1.10, written by Peter Selinger 2001-2011
</metadata>
<g transform="translate(0.000000,248.000000) scale(0.100000,-0.100000)"
fill="#000000" stroke="none">
<path d="M605 2355 c-88 -18 -178 -37 -200 -43 -22 -6 -62 -14 -89 -17 -35 -5
-57 -15 -78 -35 l-28 -28 0 -379 c0 -580 -28 -1177 -67 -1408 -14 -82 -27
-176 -30 -207 -5 -54 -4 -58 18 -67 44 -16 67 5 83 78 33 149 66 398 77 592
l12 206 66 12 c145 24 318 53 351 58 l35 5 4 -439 c3 -433 3 -438 -16 -421
-23 21 -64 23 -81 6 -27 -27 -13 -57 94 -196 30 -38 71 -43 100 -11 15 16 19
35 18 83 0 33 -3 534 -6 1111 -3 793 -8 1058 -17 1081 -11 29 -47 55 -74 53
-7 0 -84 -15 -172 -34z m148 -202 c4 -71 7 -211 7 -314 l0 -185 -97 -19 c-54
-10 -140 -26 -192 -36 -51 -11 -106 -19 -122 -19 l-29 0 0 304 0 304 58 11
c31 6 125 27 207 45 83 19 153 35 156 35 3 1 9 -56 12 -126z m7 -761 l0 -159
-82 -16 c-46 -9 -141 -26 -213 -37 -71 -12 -137 -23 -146 -26 -14 -4 -15 9
-12 103 2 60 6 131 9 159 l5 52 47 6 c26 4 79 14 117 22 59 13 243 49 268 53
4 0 7 -70 7 -157z"/>
<path d="M2015 2368 c-59 -84 -195 -321 -195 -341 0 -31 22 -50 52 -45 40 5
228 302 228 361 0 48 -56 65 -85 25z"/>
<path d="M1190 2315 c-18 -21 6 -143 56 -291 31 -93 49 -116 82 -112 42 5 49
30 29 100 -10 35 -27 97 -38 138 -29 113 -40 143 -57 163 -19 21 -55 22 -72 2z"/>
</g>
</svg>
