<?xml version="1.0" standalone="no"?>
<!DOCTYPE svg PUBLIC "-//W3C//DTD SVG 20010904//EN"
 "http://www.w3.org/TR/2001/REC-SVG-20010904/DTD/svg10.dtd">
<svg version="1.0" xmlns="http://www.w3.org/2000/svg"
 width="248.000000pt" height="248.000000pt" viewBox="0 0 248.000000 248.000000"
 preserveAspectRatio="xMidYMid meet">
<metadata>
Created by potrace 1.10, written by Peter Selinger 2001-2011
</metadata>
<g transform="translate(0.000000,248.000000) scale(0.100000,-0.100000)"
fill="#000000" stroke="none">
<path d="M626 2298 c-10 -17 -16 -96 -24 -297 -8 -202 -15 -278 -24 -288 -8
-7 -74 -22 -148 -34 -74 -11 -146 -26 -160 -32 -36 -18 -39 -61 -6 -82 24 -16
33 -15 153 5 70 12 136 24 146 26 16 5 17 -7 16 -153 -1 -87 -4 -203 -8 -257
l-6 -100 -115 -43 c-164 -62 -204 -83 -208 -111 -5 -32 15 -52 50 -52 28 0 48
7 191 66 97 40 90 58 82 -223 -4 -137 -10 -265 -14 -286 l-6 -38 -55 49 c-69
62 -92 70 -120 42 -37 -37 -24 -57 124 -182 85 -73 131 -78 154 -17 6 14 16
183 23 376 l13 352 35 15 c20 8 53 20 74 26 41 13 61 40 52 70 -12 38 -41 43
-106 21 l-61 -20 7 242 c4 133 10 245 14 248 3 3 62 18 131 34 142 31 170 48
154 92 -13 38 -43 39 -174 9 -58 -13 -106 -23 -108 -21 -2 1 2 123 8 270 9
237 9 270 -5 291 -20 31 -60 32 -79 2z"/>
<path d="M1586 2298 c-11 -16 -16 -46 -16 -99 0 -117 -70 -433 -103 -466 -7
-7 -68 -22 -137 -33 -143 -25 -213 -53 -218 -88 -2 -13 2 -30 9 -38 15 -18 30
-17 193 15 60 11 111 19 114 16 2 -2 -21 -82 -53 -177 -41 -124 -76 -209 -126
-301 -38 -71 -69 -132 -69 -136 0 -14 -112 -175 -175 -251 -70 -86 -75 -97
-64 -127 14 -38 64 -31 106 15 60 64 158 200 203 280 24 42 50 88 59 102 l16
26 112 -116 112 -116 -44 -64 c-64 -93 -128 -167 -225 -256 -100 -93 -153
-135 -197 -158 -42 -21 -57 -49 -43 -76 16 -30 52 -34 98 -11 116 59 356 295
456 448 l28 42 169 -173 c93 -96 193 -191 221 -213 141 -106 187 -137 241
-165 62 -31 90 -30 108 3 14 26 -9 62 -54 85 -108 56 -233 158 -419 344 -109
109 -198 205 -198 213 0 9 21 63 46 119 60 133 144 390 144 438 0 40 -23 70
-56 70 -10 0 -71 -9 -134 -20 -216 -39 -210 -38 -210 -25 0 15 65 214 73 221
8 8 248 62 397 89 133 24 160 36 160 71 0 23 -31 44 -63 44 -48 0 -208 -27
-334 -57 -62 -15 -115 -25 -117 -22 -3 2 4 36 15 74 32 112 58 253 65 352 6
77 4 96 -10 118 -21 32 -59 33 -80 3z m174 -981 c0 -20 -65 -203 -105 -297
-20 -47 -39 -91 -42 -97 -3 -7 -7 -13 -10 -13 -11 0 -115 101 -168 163 l-58
67 27 59 c14 32 26 63 26 69 0 11 16 16 120 32 41 7 93 16 115 20 63 12 95 11
95 -3z"/>
</g>
</svg>
