<?xml version="1.0" standalone="no"?>
<!DOCTYPE svg PUBLIC "-//W3C//DTD SVG 20010904//EN"
 "http://www.w3.org/TR/2001/REC-SVG-20010904/DTD/svg10.dtd">
<svg version="1.0" xmlns="http://www.w3.org/2000/svg"
 width="248.000000pt" height="248.000000pt" viewBox="0 0 248.000000 248.000000"
 preserveAspectRatio="xMidYMid meet">
<metadata>
Created by potrace 1.10, written by Peter Selinger 2001-2011
</metadata>
<g transform="translate(0.000000,248.000000) scale(0.100000,-0.100000)"
fill="#000000" stroke="none">
<path d="M626 2298 c-10 -17 -16 -96 -24 -297 -8 -202 -15 -278 -24 -288 -8
-7 -74 -22 -148 -34 -74 -11 -146 -26 -160 -32 -36 -18 -39 -61 -6 -82 24 -16
33 -15 153 5 70 12 136 24 146 26 16 5 17 -7 16 -153 -1 -87 -4 -203 -8 -257
l-6 -100 -115 -43 c-164 -62 -204 -83 -208 -111 -5 -32 15 -52 50 -52 28 0 48
7 191 66 97 40 90 58 82 -223 -4 -137 -10 -265 -14 -286 l-6 -38 -55 49 c-69
62 -92 70 -120 42 -37 -37 -24 -57 124 -182 85 -73 131 -78 154 -17 6 14 16
183 23 376 l13 352 35 15 c20 8 53 20 74 26 41 13 61 40 52 70 -12 38 -41 43
-106 21 l-61 -20 7 242 c4 133 10 245 14 248 3 3 62 18 131 34 142 31 170 48
154 92 -13 38 -43 39 -174 9 -58 -13 -106 -23 -108 -21 -2 1 2 123 8 270 9
237 9 270 -5 291 -20 31 -60 32 -79 2z"/>
<path d="M1911 1814 c-47 -8 -141 -28 -210 -44 -69 -16 -209 -43 -311 -60
-203 -34 -273 -59 -278 -98 -5 -36 16 -54 57 -49 68 9 377 68 516 98 77 17
198 42 270 55 91 16 134 29 142 41 17 22 16 38 -3 57 -19 19 -68 19 -183 0z"/>
</g>
</svg>
