<?xml version="1.0" standalone="no"?>
<!DOCTYPE svg PUBLIC "-//W3C//DTD SVG 20010904//EN"
 "http://www.w3.org/TR/2001/REC-SVG-20010904/DTD/svg10.dtd">
<svg version="1.0" xmlns="http://www.w3.org/2000/svg"
 width="248.000000pt" height="248.000000pt" viewBox="0 0 248.000000 248.000000"
 preserveAspectRatio="xMidYMid meet">
<metadata>
Created by potrace 1.10, written by Peter Selinger 2001-2011
</metadata>
<g transform="translate(0.000000,248.000000) scale(0.100000,-0.100000)"
fill="#000000" stroke="none">
<path d="M1405 2293 c-9 -9 -28 -35 -42 -57 -59 -95 -300 -354 -480 -517 -76
-68 -87 -93 -57 -123 8 -9 24 -16 34 -16 28 0 220 172 329 294 52 58 99 107
106 109 6 3 31 31 55 63 25 33 55 70 67 83 13 13 23 28 23 33 0 11 74 -41 170
-119 193 -156 252 -202 351 -269 138 -96 233 -140 266 -125 16 7 23 19 23 39
0 34 -17 51 -85 82 -62 29 -209 129 -319 218 -46 37 -130 103 -187 147 -57 44
-125 101 -150 128 -49 50 -77 58 -104 30z"/>
<path d="M522 2178 c-30 -30 -14 -55 76 -114 48 -31 103 -68 124 -81 60 -40
120 -19 104 38 -4 17 -41 47 -119 96 -113 73 -158 88 -185 61z"/>
<path d="M372 1738 c-16 -16 -15 -53 1 -66 20 -17 145 -80 202 -102 81 -32
125 -23 125 25 0 26 -23 47 -70 65 -19 7 -70 30 -112 51 -79 40 -125 48 -146
27z"/>
<path d="M531 1204 c-64 -58 -151 -177 -151 -207 0 -60 56 -63 102 -5 18 23
63 74 101 113 68 72 82 106 55 133 -23 23 -56 12 -107 -34z"/>
</g>
</svg>
