<?xml version="1.0" standalone="no"?>
<!DOCTYPE svg PUBLIC "-//W3C//DTD SVG 20010904//EN"
 "http://www.w3.org/TR/2001/REC-SVG-20010904/DTD/svg10.dtd">
<svg version="1.0" xmlns="http://www.w3.org/2000/svg"
 width="248.000000pt" height="248.000000pt" viewBox="0 0 248.000000 248.000000"
 preserveAspectRatio="xMidYMid meet">
<metadata>
Created by potrace 1.10, written by Peter Selinger 2001-2011
</metadata>
<g transform="translate(0.000000,248.000000) scale(0.100000,-0.100000)"
fill="#000000" stroke="none">
<path d="M522 2178 c-30 -30 -14 -55 76 -114 48 -31 103 -68 124 -81 60 -40
120 -19 104 38 -4 17 -41 47 -119 96 -113 73 -158 88 -185 61z"/>
<path d="M372 1738 c-16 -16 -15 -53 1 -67 27 -22 194 -100 240 -113 56 -14
80 -5 85 34 3 28 -18 49 -68 68 -19 7 -70 30 -112 51 -79 40 -125 48 -146 27z"/>
</g>
</svg>
