<?xml version="1.0" standalone="no"?>
<!DOCTYPE svg PUBLIC "-//W3C//DTD SVG 20010904//EN"
 "http://www.w3.org/TR/2001/REC-SVG-20010904/DTD/svg10.dtd">
<svg version="1.0" xmlns="http://www.w3.org/2000/svg"
 width="248.000000pt" height="248.000000pt" viewBox="0 0 248.000000 248.000000"
 preserveAspectRatio="xMidYMid meet">
<metadata>
Created by potrace 1.10, written by Peter Selinger 2001-2011
</metadata>
<g transform="translate(0.000000,248.000000) scale(0.100000,-0.100000)"
fill="#000000" stroke="none">
<path d="M1405 2293 c-9 -9 -28 -35 -42 -57 -59 -95 -300 -354 -480 -517 -76
-68 -87 -93 -57 -123 8 -9 24 -16 34 -16 28 0 220 172 329 294 52 58 99 107
106 109 6 3 31 31 55 63 25 33 55 70 67 83 13 13 23 28 23 33 0 11 74 -41 170
-119 193 -156 252 -202 351 -269 138 -96 233 -140 266 -125 16 7 23 19 23 39
0 34 -17 51 -85 82 -62 29 -209 129 -319 218 -46 37 -130 103 -187 147 -57 44
-125 101 -150 128 -49 50 -77 58 -104 30z"/>
<path d="M522 2178 c-30 -30 -14 -55 76 -114 48 -31 103 -68 124 -81 60 -40
120 -19 104 38 -4 17 -41 47 -119 96 -113 73 -158 88 -185 61z"/>
<path d="M1610 1836 c-3 -3 -57 -10 -120 -16 -257 -24 -300 -36 -300 -85 0
-41 21 -47 130 -40 l100 8 0 -87 c0 -60 -4 -88 -12 -91 -7 -2 -78 -9 -158 -15
-293 -22 -314 -28 -308 -79 5 -45 42 -56 139 -43 89 12 332 32 337 27 1 -1 5
-77 9 -169 6 -161 6 -166 -14 -166 -32 0 -57 -34 -48 -67 9 -37 79 -103 110
-103 60 0 70 52 61 321 l-7 197 63 6 c35 3 125 10 201 16 161 11 192 22 192
65 0 49 -25 54 -220 39 -93 -7 -185 -13 -202 -13 l-33 -1 0 89 0 89 71 10 c38
6 77 16 85 22 18 16 18 54 1 69 -16 13 -70 25 -77 17z"/>
<path d="M372 1738 c-16 -16 -15 -53 1 -66 20 -17 145 -80 202 -102 81 -32
125 -23 125 25 0 26 -23 47 -70 65 -19 7 -70 30 -112 51 -79 40 -125 48 -146
27z"/>
<path d="M1118 1333 c-8 -10 -25 -36 -38 -58 -13 -22 -52 -73 -87 -113 -65
-76 -74 -99 -47 -126 28 -28 55 -18 111 42 116 123 167 224 131 260 -17 17
-53 15 -70 -5z"/>
<path d="M531 1204 c-64 -58 -151 -177 -151 -207 0 -60 56 -63 102 -5 18 23
63 74 101 113 68 72 82 106 55 133 -23 23 -56 12 -107 -34z"/>
</g>
</svg>
