<?xml version="1.0" standalone="no"?>
<!DOCTYPE svg PUBLIC "-//W3C//DTD SVG 20010904//EN"
 "http://www.w3.org/TR/2001/REC-SVG-20010904/DTD/svg10.dtd">
<svg version="1.0" xmlns="http://www.w3.org/2000/svg"
 width="248.000000pt" height="248.000000pt" viewBox="0 0 248.000000 248.000000"
 preserveAspectRatio="xMidYMid meet">
<metadata>
Created by potrace 1.10, written by Peter Selinger 2001-2011
</metadata>
<g transform="translate(0.000000,248.000000) scale(0.100000,-0.100000)"
fill="#000000" stroke="none">
<path d="M1116 2348 c-8 -13 -17 -39 -21 -58 -7 -41 -55 -202 -93 -315 l-27
-80 -75 -12 c-67 -10 -182 -21 -461 -42 -93 -6 -119 -19 -119 -57 0 -41 39
-57 122 -51 142 11 414 36 451 43 l37 7 -35 -83 c-19 -45 -56 -119 -81 -164
-104 -185 -125 -221 -138 -236 -8 -8 -56 -78 -107 -155 -103 -156 -192 -258
-321 -372 -73 -62 -88 -81 -88 -105 0 -21 7 -32 25 -40 21 -9 30 -7 63 15 121
80 275 246 390 419 45 67 98 147 119 177 21 29 52 77 68 107 17 29 52 92 78
139 27 47 71 136 97 198 27 61 55 115 62 119 7 4 96 21 198 37 102 17 268 44
370 60 102 17 224 35 272 41 98 12 115 16 141 38 20 18 22 42 3 67 -12 17 -19
17 -107 6 -52 -7 -164 -23 -249 -37 -85 -14 -211 -34 -280 -45 -69 -11 -165
-27 -213 -36 -48 -8 -90 -13 -93 -11 -4 5 12 66 70 257 28 91 33 160 14 179
-19 19 -56 14 -72 -10z"/>
</g>
</svg>
