<?xml version="1.0" standalone="no"?>
<!DOCTYPE svg PUBLIC "-//W3C//DTD SVG 20010904//EN"
 "http://www.w3.org/TR/2001/REC-SVG-20010904/DTD/svg10.dtd">
<svg version="1.0" xmlns="http://www.w3.org/2000/svg"
 width="248.000000pt" height="248.000000pt" viewBox="0 0 248.000000 248.000000"
 preserveAspectRatio="xMidYMid meet">
<metadata>
Created by potrace 1.10, written by Peter Selinger 2001-2011
</metadata>
<g transform="translate(0.000000,248.000000) scale(0.100000,-0.100000)"
fill="#000000" stroke="none">
<path d="M1116 2348 c-8 -13 -17 -39 -21 -58 -7 -41 -55 -202 -93 -315 l-27
-80 -75 -12 c-67 -10 -182 -21 -461 -42 -93 -6 -119 -19 -119 -57 0 -41 39
-57 122 -51 142 11 414 36 451 43 l37 7 -35 -83 c-19 -45 -56 -119 -81 -164
-104 -185 -125 -221 -138 -236 -8 -8 -56 -78 -107 -155 -103 -156 -192 -258
-321 -372 -73 -62 -88 -81 -88 -105 0 -21 7 -32 25 -40 29 -13 63 6 161 92
124 108 228 238 381 476 9 15 12 -49 13 -301 0 -353 3 -370 55 -370 53 0 55
15 55 387 l0 337 38 6 c47 8 299 54 330 61 l24 5 -8 -604 -7 -605 22 -11 c12
-7 31 -9 42 -6 44 14 46 39 54 650 4 319 8 581 9 582 11 12 403 60 411 51 5
-5 -13 -224 -29 -343 -24 -192 -47 -349 -54 -377 l-7 -28 -51 36 c-55 39 -85
40 -104 4 -16 -30 5 -61 78 -112 51 -37 76 -48 104 -48 34 0 40 4 58 41 14 27
28 90 40 187 11 81 22 158 26 172 9 40 35 267 44 390 13 172 -6 195 -145 185
-95 -7 -279 -31 -335 -44 l-40 -9 0 127 c0 139 -10 171 -55 171 -45 0 -55 -32
-55 -175 l0 -130 -128 -24 c-200 -37 -277 -49 -281 -45 -3 2 5 17 17 33 33 45
116 206 158 306 20 50 42 95 48 101 6 6 70 21 141 33 320 53 627 101 707 111
98 12 115 16 141 38 20 18 22 42 3 67 -12 17 -19 17 -107 6 -52 -7 -164 -23
-249 -37 -85 -14 -211 -34 -280 -45 -69 -11 -165 -27 -213 -36 -48 -8 -90 -13
-93 -11 -4 5 12 66 70 257 28 91 33 160 14 179 -19 19 -56 14 -72 -10z"/>
</g>
</svg>
