<?xml version="1.0" standalone="no"?>
<!DOCTYPE svg PUBLIC "-//W3C//DTD SVG 20010904//EN"
 "http://www.w3.org/TR/2001/REC-SVG-20010904/DTD/svg10.dtd">
<svg version="1.0" xmlns="http://www.w3.org/2000/svg"
 width="248.000000pt" height="248.000000pt" viewBox="0 0 248.000000 248.000000"
 preserveAspectRatio="xMidYMid meet">
<metadata>
Created by potrace 1.10, written by Peter Selinger 2001-2011
</metadata>
<g transform="translate(0.000000,248.000000) scale(0.100000,-0.100000)"
fill="#000000" stroke="none">
<path d="M1116 2348 c-8 -13 -19 -45 -25 -73 -5 -27 -17 -72 -26 -100 -9 -27
-27 -88 -41 -135 -52 -175 -178 -463 -258 -591 -15 -24 -42 -68 -59 -96 -84
-139 -238 -356 -301 -426 -39 -42 -110 -112 -158 -154 -73 -62 -88 -81 -88
-105 0 -21 7 -32 25 -40 21 -9 30 -7 63 15 121 80 275 246 390 419 44 67 99
148 120 178 22 30 49 74 61 97 11 23 33 59 47 80 65 94 208 424 258 593 13 47
36 123 50 169 28 91 33 160 14 179 -19 19 -56 14 -72 -10z"/>
</g>
</svg>
