<?xml version="1.0" standalone="no"?>
<!DOCTYPE svg PUBLIC "-//W3C//DTD SVG 20010904//EN"
 "http://www.w3.org/TR/2001/REC-SVG-20010904/DTD/svg10.dtd">
<svg version="1.0" xmlns="http://www.w3.org/2000/svg"
 width="248.000000pt" height="248.000000pt" viewBox="0 0 248.000000 248.000000"
 preserveAspectRatio="xMidYMid meet">
<metadata>
Created by potrace 1.10, written by Peter Selinger 2001-2011
</metadata>
<g transform="translate(0.000000,248.000000) scale(0.100000,-0.100000)"
fill="#000000" stroke="none">
<path d="M1166 2318 c-9 -12 -16 -26 -16 -31 0 -5 -21 -65 -46 -135 -45 -126
-80 -204 -109 -245 -18 -26 -20 -68 -3 -85 25 -25 57 -13 88 31 16 23 35 50
42 60 13 18 47 25 293 62 55 8 158 22 228 30 71 8 147 18 170 21 l42 7 -25
-27 c-37 -40 -118 -100 -180 -133 -50 -26 -55 -31 -55 -63 0 -74 83 -58 210
41 116 89 250 201 257 214 13 22 -9 64 -38 71 -54 14 -271 -8 -654 -66 -102
-15 -187 -26 -189 -24 -2 2 13 50 33 106 38 107 44 156 24 176 -19 19 -55 14
-72 -10z"/>
<path d="M482 2208 c-37 -37 12 -98 186 -230 79 -61 114 -70 135 -37 19 31 -2
66 -75 123 -40 31 -99 78 -131 106 -58 50 -92 61 -115 38z"/>
<path d="M1329 1879 c-14 -14 -19 -29 -16 -47 3 -14 -4 -56 -14 -94 -53 -191
-180 -375 -320 -465 -61 -39 -81 -72 -62 -102 20 -32 60 -24 134 25 99 66 152
129 276 323 3 4 97 -57 168 -110 28 -20 118 -75 200 -123 128 -73 163 -89 240
-106 122 -27 151 -26 170 4 32 48 -2 72 -125 91 -25 4 -62 14 -84 21 -72 26
-383 218 -495 306 l-25 19 22 83 c28 105 28 150 2 176 -26 26 -45 25 -71 -1z"/>
<path d="M732 1628 c-5 -7 -55 -80 -111 -163 -55 -82 -119 -172 -141 -200 -66
-82 -72 -93 -65 -115 8 -26 40 -43 65 -35 24 8 122 133 227 290 113 170 118
181 98 211 -17 26 -56 32 -73 12z"/>
<path d="M1840 1007 c-3 -2 -95 -7 -205 -10 -240 -8 -470 -23 -560 -37 -36 -6
-132 -15 -213 -20 -330 -21 -347 -24 -367 -54 -13 -19 -14 -33 -6 -67 25 -112
60 -311 66 -374 10 -110 32 -147 78 -129 41 15 38 112 -9 352 -16 81 -23 137
-17 143 10 10 293 27 299 18 2 -3 4 -107 5 -230 0 -123 5 -234 9 -246 14 -35
47 -47 76 -28 l25 16 -2 252 -2 251 28 8 c16 4 60 10 99 13 39 3 95 8 124 11
l52 5 0 -48 c0 -26 -4 -77 -9 -113 -5 -36 -12 -101 -16 -145 -3 -44 -13 -120
-22 -168 -16 -86 -16 -88 4 -108 24 -25 56 -19 78 14 15 23 32 145 61 418 l16
156 217 5 c119 3 217 5 218 4 4 -4 -128 -398 -153 -458 -36 -86 -29 -128 21
-128 30 0 47 23 83 110 38 96 172 503 172 526 0 29 -36 53 -90 59 -30 4 -57 5
-60 2z"/>
</g>
</svg>
