<?xml version="1.0" standalone="no"?>
<!DOCTYPE svg PUBLIC "-//W3C//DTD SVG 20010904//EN"
 "http://www.w3.org/TR/2001/REC-SVG-20010904/DTD/svg10.dtd">
<svg version="1.0" xmlns="http://www.w3.org/2000/svg"
 width="248.000000pt" height="248.000000pt" viewBox="0 0 248.000000 248.000000"
 preserveAspectRatio="xMidYMid meet">
<metadata>
Created by potrace 1.10, written by Peter Selinger 2001-2011
</metadata>
<g transform="translate(0.000000,248.000000) scale(0.100000,-0.100000)"
fill="#000000" stroke="none">
<path d="M1166 2318 c-9 -12 -16 -26 -16 -31 0 -5 -21 -65 -46 -135 -45 -126
-80 -204 -109 -245 -18 -26 -20 -68 -3 -85 25 -25 57 -13 88 31 16 23 35 50
42 60 13 18 47 25 293 62 55 8 158 22 228 30 71 8 147 18 170 21 l42 7 -25
-27 c-37 -40 -118 -100 -180 -133 -50 -26 -55 -31 -55 -63 0 -74 83 -58 210
41 116 89 250 201 257 214 13 22 -9 64 -38 71 -54 14 -271 -8 -654 -66 -102
-15 -187 -26 -189 -24 -2 2 13 50 33 106 38 107 44 156 24 176 -19 19 -55 14
-72 -10z"/>
<path d="M482 2208 c-37 -37 12 -98 186 -230 79 -61 114 -70 135 -37 19 31 -2
66 -75 123 -40 31 -99 78 -131 106 -58 50 -92 61 -115 38z"/>
<path d="M1329 1879 c-14 -14 -19 -29 -16 -47 3 -14 -4 -56 -14 -94 -53 -191
-180 -375 -320 -465 -61 -39 -81 -72 -62 -102 20 -32 60 -24 134 25 99 66 152
129 276 323 3 4 97 -57 168 -110 28 -20 118 -75 200 -123 128 -73 163 -89 240
-106 122 -27 151 -26 170 4 32 48 -2 72 -125 91 -25 4 -62 14 -84 21 -72 26
-383 218 -495 306 l-25 19 22 83 c28 105 28 150 2 176 -26 26 -45 25 -71 -1z"/>
<path d="M732 1628 c-5 -7 -55 -80 -111 -163 -55 -82 -119 -172 -141 -200 -66
-82 -72 -93 -65 -115 8 -26 40 -43 65 -35 24 8 122 133 227 290 113 170 118
181 98 211 -17 26 -56 32 -73 12z"/>
<path d="M500 885 c-15 -19 -9 -81 25 -250 13 -66 27 -151 30 -190 4 -38 11
-82 17 -97 18 -48 69 -48 86 0 10 28 -6 197 -26 283 -6 25 -18 85 -27 134 -8
49 -22 99 -30 112 -18 26 -56 30 -75 8z"/>
</g>
</svg>
