<?xml version="1.0" standalone="no"?>
<!DOCTYPE svg PUBLIC "-//W3C//DTD SVG 20010904//EN"
 "http://www.w3.org/TR/2001/REC-SVG-20010904/DTD/svg10.dtd">
<svg version="1.0" xmlns="http://www.w3.org/2000/svg"
 width="248.000000pt" height="248.000000pt" viewBox="0 0 248.000000 248.000000"
 preserveAspectRatio="xMidYMid meet">
<metadata>
Created by potrace 1.10, written by Peter Selinger 2001-2011
</metadata>
<g transform="translate(0.000000,248.000000) scale(0.100000,-0.100000)"
fill="#000000" stroke="none">
<path d="M868 2342 c-74 -65 -224 -154 -401 -240 -203 -99 -229 -121 -192
-162 10 -11 28 -20 39 -20 33 0 359 164 481 242 114 73 175 127 175 153 0 19
-35 55 -55 55 -8 0 -29 -13 -47 -28z"/>
<path d="M172 1798 c-23 -23 -12 -62 45 -162 68 -121 80 -136 108 -136 28 0
45 18 45 50 0 24 -95 204 -128 243 -17 20 -53 22 -70 5z"/>
</g>
</svg>
