<?xml version="1.0" standalone="no"?>
<!DOCTYPE svg PUBLIC "-//W3C//DTD SVG 20010904//EN"
 "http://www.w3.org/TR/2001/REC-SVG-20010904/DTD/svg10.dtd">
<svg version="1.0" xmlns="http://www.w3.org/2000/svg"
 width="248.000000pt" height="248.000000pt" viewBox="0 0 248.000000 248.000000"
 preserveAspectRatio="xMidYMid meet">
<metadata>
Created by potrace 1.10, written by Peter Selinger 2001-2011
</metadata>
<g transform="translate(0.000000,248.000000) scale(0.100000,-0.100000)"
fill="#000000" stroke="none">
<path d="M1180 2325 c-11 -13 -13 -63 -11 -234 2 -203 1 -219 -16 -225 -10 -4
-73 -12 -141 -16 -67 -5 -126 -11 -130 -14 -4 -2 -43 -7 -87 -11 -91 -7 -125
-24 -125 -60 0 -42 34 -55 120 -45 41 5 130 14 197 20 68 5 135 13 149 16 l27
7 -6 -168 c-3 -93 -1 -179 3 -191 9 -23 42 -36 67 -27 25 10 32 48 39 222 6
144 10 171 23 175 9 3 66 12 126 21 61 9 117 18 125 20 8 2 55 9 104 15 49 6
97 15 106 20 25 13 30 45 12 71 -14 20 -20 21 -91 15 -42 -3 -143 -17 -225
-31 -83 -14 -153 -25 -157 -25 -3 0 -8 89 -11 198 -5 218 -13 255 -59 260 -15
2 -32 -4 -39 -13z"/>
</g>
</svg>
