<?xml version="1.0" standalone="no"?>
<!DOCTYPE svg PUBLIC "-//W3C//DTD SVG 20010904//EN"
 "http://www.w3.org/TR/2001/REC-SVG-20010904/DTD/svg10.dtd">
<svg version="1.0" xmlns="http://www.w3.org/2000/svg"
 width="248.000000pt" height="248.000000pt" viewBox="0 0 248.000000 248.000000"
 preserveAspectRatio="xMidYMid meet">
<metadata>
Created by potrace 1.10, written by Peter Selinger 2001-2011
</metadata>
<g transform="translate(0.000000,248.000000) scale(0.100000,-0.100000)"
fill="#000000" stroke="none">
<path d="M1180 2325 c-11 -13 -13 -63 -11 -234 2 -203 1 -219 -16 -225 -10 -4
-73 -12 -141 -16 -67 -5 -126 -11 -130 -14 -4 -2 -43 -7 -87 -11 -91 -7 -125
-24 -125 -60 0 -42 34 -55 120 -45 41 5 130 14 197 20 68 5 134 12 149 16 l26
7 -3 -177 c-3 -148 -6 -176 -19 -177 -8 0 -26 -2 -40 -4 -131 -19 -352 -45
-425 -50 -49 -3 -115 -9 -145 -12 -82 -7 -229 -40 -246 -54 -22 -18 -17 -57 9
-74 20 -13 34 -13 127 5 58 10 168 24 245 30 77 5 190 17 250 25 61 8 142 18
180 21 l70 6 -45 -44 c-25 -23 -90 -81 -144 -128 -55 -47 -156 -137 -225 -201
-123 -114 -383 -341 -465 -407 -143 -115 -166 -137 -166 -158 0 -56 56 -66
112 -21 14 12 59 49 100 81 40 33 100 84 133 113 33 29 116 101 185 161 69 60
172 153 229 206 57 53 105 96 107 94 2 -2 -1 -78 -6 -168 -13 -230 -12 -512 1
-566 16 -62 52 -97 129 -122 115 -38 259 -55 465 -55 272 1 487 40 535 98 24
29 21 271 -3 308 -19 29 -54 36 -75 15 -8 -8 -12 -54 -12 -139 l0 -127 -71
-17 c-157 -35 -508 -43 -675 -15 -98 17 -175 42 -185 62 -5 10 -8 92 -7 190
l3 172 122 55 c67 31 148 67 180 80 119 49 329 153 351 174 38 35 24 87 -24
87 -13 0 -80 -29 -151 -64 -70 -35 -159 -77 -198 -94 -38 -17 -116 -51 -172
-75 l-103 -45 0 76 c0 42 3 121 7 175 l6 97 82 73 c190 166 166 153 306 171
68 9 149 21 179 26 30 6 100 14 155 20 221 22 279 31 297 47 21 18 24 53 6 71
-14 14 -81 15 -163 2 -33 -5 -91 -12 -130 -16 -38 -3 -126 -14 -195 -24 -69
-10 -127 -17 -129 -14 -2 2 36 47 85 100 49 53 100 110 114 128 13 17 85 99
158 181 144 161 262 327 262 366 0 51 -51 66 -87 27 -11 -13 -48 -63 -81 -113
-34 -49 -90 -121 -126 -160 -56 -61 -66 -67 -80 -56 -20 17 -103 10 -312 -24
-81 -14 -151 -25 -155 -25 -3 0 -8 89 -11 198 -5 218 -13 255 -59 260 -15 2
-32 -4 -39 -13z m489 -527 c-30 -41 -255 -283 -303 -326 -36 -31 -75 -52 -97
-52 -14 0 0 343 15 352 6 4 36 10 66 14 30 4 100 15 155 24 55 10 119 18 143
19 l43 1 -22 -32z"/>
</g>
</svg>
