<?xml version="1.0" standalone="no"?>
<!DOCTYPE svg PUBLIC "-//W3C//DTD SVG 20010904//EN"
 "http://www.w3.org/TR/2001/REC-SVG-20010904/DTD/svg10.dtd">
<svg version="1.0" xmlns="http://www.w3.org/2000/svg"
 width="248.000000pt" height="248.000000pt" viewBox="0 0 248.000000 248.000000"
 preserveAspectRatio="xMidYMid meet">
<metadata>
Created by potrace 1.10, written by Peter Selinger 2001-2011
</metadata>
<g transform="translate(0.000000,248.000000) scale(0.100000,-0.100000)"
fill="#000000" stroke="none">
<path d="M1630 1933 c-377 -58 -560 -83 -616 -83 -28 0 -73 -4 -100 -9 -27 -5
-83 -12 -124 -16 -86 -8 -120 -25 -120 -60 0 -43 33 -55 125 -44 44 5 130 14
190 19 61 4 139 13 175 18 36 6 103 16 150 22 47 7 137 20 200 30 63 10 139
21 169 25 30 3 62 10 71 15 24 13 30 45 13 69 -14 21 -60 26 -133 14z"/>
</g>
</svg>
