<?xml version="1.0" standalone="no"?>
<!DOCTYPE svg PUBLIC "-//W3C//DTD SVG 20010904//EN"
 "http://www.w3.org/TR/2001/REC-SVG-20010904/DTD/svg10.dtd">
<svg version="1.0" xmlns="http://www.w3.org/2000/svg"
 width="248.000000pt" height="248.000000pt" viewBox="0 0 248.000000 248.000000"
 preserveAspectRatio="xMidYMid meet">
<metadata>
Created by potrace 1.10, written by Peter Selinger 2001-2011
</metadata>
<g transform="translate(0.000000,248.000000) scale(0.100000,-0.100000)"
fill="#000000" stroke="none">
<path d="M542 2338 c-9 -9 -12 -68 -12 -204 0 -143 -3 -195 -12 -201 -15 -9
-191 -31 -258 -32 -51 -1 -70 -14 -70 -47 0 -42 21 -47 168 -41 75 3 144 9
154 12 14 6 17 -5 23 -77 3 -46 5 -128 3 -183 l-3 -99 -105 -18 c-58 -10 -147
-25 -199 -33 -51 -8 -99 -20 -107 -26 -19 -15 -18 -53 1 -69 20 -17 121 -9
278 21 64 12 121 19 125 15 4 -4 8 -173 9 -374 2 -335 4 -368 19 -379 25 -18
41 -16 64 7 19 19 20 29 15 180 l-6 159 23 5 c13 3 70 8 127 11 111 7 248 31
269 47 15 13 16 50 0 66 -15 15 -71 15 -135 2 -77 -16 -262 -27 -273 -16 -6 6
-10 76 -10 161 l0 152 63 11 c34 6 127 18 207 27 212 24 210 23 219 48 11 30
2 57 -24 67 -14 5 -95 0 -217 -16 -107 -13 -205 -25 -219 -26 l-24 -3 0 180 0
180 50 8 c276 44 343 61 357 92 14 31 -5 65 -38 65 -13 0 -80 -11 -147 -25
-67 -13 -147 -26 -177 -27 l-55 -3 -3 184 c-1 115 -7 189 -13 198 -14 16 -51
17 -67 1z"/>
</g>
</svg>
