<?xml version="1.0" standalone="no"?>
<!DOCTYPE svg PUBLIC "-//W3C//DTD SVG 20010904//EN"
 "http://www.w3.org/TR/2001/REC-SVG-20010904/DTD/svg10.dtd">
<svg version="1.0" xmlns="http://www.w3.org/2000/svg"
 width="248.000000pt" height="248.000000pt" viewBox="0 0 248.000000 248.000000"
 preserveAspectRatio="xMidYMid meet">
<metadata>
Created by potrace 1.10, written by Peter Selinger 2001-2011
</metadata>
<g transform="translate(0.000000,248.000000) scale(0.100000,-0.100000)"
fill="#000000" stroke="none">
<path d="M622 2302 c-15 -15 -58 -66 -96 -112 -37 -47 -133 -154 -213 -238
-184 -195 -183 -192 -38 -266 55 -28 118 -63 140 -78 59 -42 105 -34 105 18 0
31 -38 64 -129 115 -44 24 -81 47 -81 51 0 4 53 64 118 134 180 195 292 333
292 361 0 49 -58 57 -98 15z"/>
</g>
</svg>
