<?xml version="1.0" standalone="no"?>
<!DOCTYPE svg PUBLIC "-//W3C//DTD SVG 20010904//EN"
 "http://www.w3.org/TR/2001/REC-SVG-20010904/DTD/svg10.dtd">
<svg version="1.0" xmlns="http://www.w3.org/2000/svg"
 width="248.000000pt" height="248.000000pt" viewBox="0 0 248.000000 248.000000"
 preserveAspectRatio="xMidYMid meet">
<metadata>
Created by potrace 1.10, written by Peter Selinger 2001-2011
</metadata>
<g transform="translate(0.000000,248.000000) scale(0.100000,-0.100000)"
fill="#000000" stroke="none">
<path d="M622 2302 c-15 -15 -58 -66 -96 -112 -37 -47 -133 -154 -213 -238
-184 -195 -183 -192 -38 -266 95 -49 185 -103 185 -113 0 -3 -60 -77 -133
-166 -176 -214 -181 -220 -172 -246 14 -44 43 -43 196 5 335 106 509 173 538
208 11 13 11 22 3 42 -18 39 -39 39 -121 5 -139 -59 -399 -146 -408 -137 -2 2
29 44 69 92 137 164 312 388 359 459 26 39 65 90 88 115 57 62 53 110 -10 110
-32 0 -84 -54 -161 -168 -38 -56 -134 -182 -184 -241 -1 -1 -15 9 -30 23 -16
14 -63 45 -106 68 -42 24 -78 46 -78 50 0 4 53 64 118 134 180 195 292 333
292 361 0 49 -58 57 -98 15z"/>
</g>
</svg>
