<?xml version="1.0" standalone="no"?>
<!DOCTYPE svg PUBLIC "-//W3C//DTD SVG 20010904//EN"
 "http://www.w3.org/TR/2001/REC-SVG-20010904/DTD/svg10.dtd">
<svg version="1.0" xmlns="http://www.w3.org/2000/svg"
 width="248.000000pt" height="248.000000pt" viewBox="0 0 248.000000 248.000000"
 preserveAspectRatio="xMidYMid meet">
<metadata>
Created by potrace 1.10, written by Peter Selinger 2001-2011
</metadata>
<g transform="translate(0.000000,248.000000) scale(0.100000,-0.100000)"
fill="#000000" stroke="none">
<path d="M1209 2393 c-9 -10 -16 -54 -19 -127 l-5 -111 -50 -3 c-27 -1 -96 -9
-153 -17 -160 -23 -152 -25 -152 43 0 71 -17 106 -52 110 -40 5 -58 -29 -58
-109 l0 -66 -87 -11 c-49 -6 -117 -14 -152 -17 -80 -6 -113 -26 -109 -63 5
-43 37 -51 153 -39 55 5 123 10 150 11 l50 1 6 -101 c9 -152 26 -171 145 -160
40 4 105 13 146 21 41 8 196 19 358 25 157 6 299 15 316 21 44 14 54 44 54
173 l0 113 38 7 c20 3 98 9 172 12 74 3 150 10 168 16 41 12 53 49 26 80 -18
20 -25 20 -153 14 -74 -4 -161 -9 -193 -13 l-58 -6 0 49 c0 62 -22 96 -58 92
-34 -4 -52 -39 -52 -99 l0 -46 -77 -6 c-43 -4 -120 -9 -170 -13 l-93 -7 0 99
c0 74 -4 105 -16 122 -18 26 -56 29 -75 5z m431 -402 l0 -88 -77 -7 c-42 -3
-120 -6 -175 -6 l-98 0 0 84 0 85 43 5 c43 6 119 11 240 14 l67 2 0 -89z
m-460 -24 l0 -83 -87 -13 c-49 -7 -123 -17 -165 -23 -43 -7 -80 -10 -82 -7 -2
2 -6 41 -9 86 l-5 82 66 10 c37 6 105 15 152 20 146 14 130 23 130 -72z"/>
<path d="M1890 1729 c-553 -45 -644 -54 -763 -74 -50 -9 -141 -20 -202 -25
-132 -10 -378 -43 -532 -70 -62 -11 -123 -20 -136 -20 -13 0 -32 -9 -41 -19
-16 -17 -17 -38 -14 -169 3 -130 5 -153 22 -171 21 -23 56 -27 74 -9 8 8 12
54 12 140 0 124 1 128 23 132 120 26 372 60 557 76 63 6 156 17 208 25 122 20
234 32 462 51 369 30 427 33 558 34 l133 0 -28 -37 c-15 -21 -51 -66 -80 -101
-53 -63 -64 -97 -41 -120 23 -23 60 -13 98 27 58 60 170 213 177 240 10 40 -9
75 -47 88 -39 13 -288 15 -440 2z"/>
<path d="M1645 1514 c-16 -2 -61 -8 -100 -13 -38 -6 -142 -19 -230 -31 -184
-24 -318 -44 -460 -68 -155 -26 -145 2 -138 -368 3 -200 9 -318 17 -334 8 -18
19 -25 41 -25 54 0 57 18 52 332 -4 220 -2 283 8 287 7 2 34 7 61 11 27 3 87
12 134 20 47 7 123 19 170 24 47 6 148 20 225 30 77 11 173 22 213 26 l72 7
-6 -298 c-3 -165 -7 -304 -9 -311 -2 -6 -13 -9 -23 -6 -22 5 -62 -28 -62 -52
0 -14 50 -78 80 -102 35 -29 86 -9 104 41 11 30 27 737 18 771 -14 51 -68 70
-167 59z"/>
</g>
</svg>
