<?xml version="1.0" standalone="no"?>
<!DOCTYPE svg PUBLIC "-//W3C//DTD SVG 20010904//EN"
 "http://www.w3.org/TR/2001/REC-SVG-20010904/DTD/svg10.dtd">
<svg version="1.0" xmlns="http://www.w3.org/2000/svg"
 width="248.000000pt" height="248.000000pt" viewBox="0 0 248.000000 248.000000"
 preserveAspectRatio="xMidYMid meet">
<metadata>
Created by potrace 1.10, written by Peter Selinger 2001-2011
</metadata>
<g transform="translate(0.000000,248.000000) scale(0.100000,-0.100000)"
fill="#000000" stroke="none">
<path d="M736 2268 c-11 -15 -16 -44 -16 -89 l0 -66 -87 -11 c-49 -6 -117 -14
-152 -17 -80 -6 -113 -26 -109 -63 5 -43 37 -51 153 -39 55 5 123 10 150 11
l50 1 5 -98 c4 -82 8 -101 24 -113 25 -18 37 -18 62 0 17 13 19 27 19 120 l0
105 60 10 c124 21 617 61 1105 90 69 5 133 11 143 16 26 11 33 52 12 75 -21
23 -75 25 -250 10 -60 -5 -218 -16 -350 -24 -261 -17 -399 -29 -570 -52 -165
-21 -155 -24 -155 44 0 31 -6 68 -13 82 -17 34 -60 39 -81 8z"/>
</g>
</svg>
