<?xml version="1.0" standalone="no"?>
<!DOCTYPE svg PUBLIC "-//W3C//DTD SVG 20010904//EN"
 "http://www.w3.org/TR/2001/REC-SVG-20010904/DTD/svg10.dtd">
<svg version="1.0" xmlns="http://www.w3.org/2000/svg"
 width="248.000000pt" height="248.000000pt" viewBox="0 0 248.000000 248.000000"
 preserveAspectRatio="xMidYMid meet">
<metadata>
Created by potrace 1.10, written by Peter Selinger 2001-2011
</metadata>
<g transform="translate(0.000000,248.000000) scale(0.100000,-0.100000)"
fill="#000000" stroke="none">
<path d="M1885 2209 c-49 -4 -200 -15 -335 -23 -248 -16 -345 -25 -570 -52
-69 -8 -179 -19 -245 -25 -283 -24 -317 -28 -341 -44 -33 -21 -30 -65 6 -81
26 -11 54 -10 340 20 80 8 255 26 390 40 218 22 515 44 875 66 66 4 128 10
138 15 26 11 33 52 12 75 -15 17 -30 20 -99 19 -45 -1 -121 -5 -171 -10z"/>
</g>
</svg>
