<?xml version="1.0" standalone="no"?>
<!DOCTYPE svg PUBLIC "-//W3C//DTD SVG 20010904//EN"
 "http://www.w3.org/TR/2001/REC-SVG-20010904/DTD/svg10.dtd">
<svg version="1.0" xmlns="http://www.w3.org/2000/svg"
 width="248.000000pt" height="248.000000pt" viewBox="0 0 248.000000 248.000000"
 preserveAspectRatio="xMidYMid meet">
<metadata>
Created by potrace 1.10, written by Peter Selinger 2001-2011
</metadata>
<g transform="translate(0.000000,248.000000) scale(0.100000,-0.100000)"
fill="#000000" stroke="none">
<path d="M891 2407 c-6 -8 -15 -38 -21 -67 -6 -29 -14 -58 -20 -65 -10 -12
-142 -35 -219 -38 l-44 -2 -13 63 c-15 73 -27 92 -59 92 -39 0 -48 -23 -41
-99 l6 -68 -73 -8 c-79 -7 -97 -17 -97 -49 0 -38 19 -46 105 -46 l82 0 2 -57
c2 -66 13 -83 52 -83 37 0 50 26 47 92 l-3 52 45 8 c102 16 175 26 178 23 2
-2 -2 -31 -9 -65 -9 -47 -9 -67 -1 -81 13 -21 18 -20 -185 -49 -78 -11 -149
-23 -158 -26 -12 -5 -15 3 -15 43 0 53 -12 73 -46 73 -30 0 -39 -14 -63 -103
-12 -43 -35 -105 -51 -137 -43 -85 -38 -130 15 -130 26 0 41 18 74 83 14 27
35 53 48 58 56 21 597 98 609 87 8 -8 -79 -285 -107 -341 -27 -52 -32 -56 -50
-47 -40 22 -85 -14 -69 -56 19 -49 95 -78 141 -53 41 22 138 269 188 481 15
64 14 84 -6 104 -15 15 -32 16 -131 11 -104 -6 -113 -5 -108 11 3 9 12 46 20
81 8 35 19 68 24 73 5 5 55 15 113 22 57 8 112 17 121 21 26 10 32 43 13 72
-19 28 -5 27 -167 6 l-48 -6 0 55 c0 30 -5 59 -12 66 -16 16 -53 15 -67 -1z"/>
<path d="M1428 2353 c-8 -10 -28 -52 -43 -93 -15 -41 -56 -139 -91 -217 -35
-77 -64 -148 -64 -156 0 -18 32 -47 52 -47 23 0 42 27 87 122 45 95 43 94 141
101 99 7 459 63 497 78 33 12 41 56 15 81 l-20 20 -133 -26 c-74 -14 -163 -28
-199 -32 -36 -4 -95 -12 -133 -19 -37 -7 -69 -9 -72 -5 -3 5 6 40 20 78 14 38
25 78 25 89 0 42 -53 59 -82 26z"/>
<path d="M512 1796 c-105 -18 -107 -21 -92 -152 13 -111 29 -154 55 -154 8 0
31 9 51 19 20 11 62 23 93 27 77 9 101 25 101 71 0 19 5 64 12 99 10 57 10 66
-7 84 -21 24 -93 26 -213 6z m110 -121 c-5 -37 -3 -36 -51 -45 -47 -8 -51 -6
-51 31 0 23 5 30 28 35 15 3 32 7 37 9 27 10 40 -1 37 -30z"/>
</g>
</svg>
