<?xml version="1.0" standalone="no"?>
<!DOCTYPE svg PUBLIC "-//W3C//DTD SVG 20010904//EN"
 "http://www.w3.org/TR/2001/REC-SVG-20010904/DTD/svg10.dtd">
<svg version="1.0" xmlns="http://www.w3.org/2000/svg"
 width="248.000000pt" height="248.000000pt" viewBox="0 0 248.000000 248.000000"
 preserveAspectRatio="xMidYMid meet">
<metadata>
Created by potrace 1.10, written by Peter Selinger 2001-2011
</metadata>
<g transform="translate(0.000000,248.000000) scale(0.100000,-0.100000)"
fill="#000000" stroke="none">
<path d="M480 2375 c-9 -11 -11 -35 -6 -84 l6 -68 -73 -8 c-79 -7 -97 -17 -97
-49 0 -38 19 -46 105 -46 l82 0 2 -57 c2 -66 13 -83 52 -83 37 0 50 26 47 92
l-3 52 45 8 c40 6 412 62 497 74 35 5 63 27 63 49 0 7 -8 23 -19 36 -18 22
-19 22 -107 10 -49 -7 -152 -23 -229 -36 -77 -13 -167 -25 -199 -27 l-59 -3
-13 63 c-7 35 -18 70 -25 78 -15 19 -53 18 -69 -1z"/>
</g>
</svg>
