<?xml version="1.0" standalone="no"?>
<!DOCTYPE svg PUBLIC "-//W3C//DTD SVG 20010904//EN"
 "http://www.w3.org/TR/2001/REC-SVG-20010904/DTD/svg10.dtd">
<svg version="1.0" xmlns="http://www.w3.org/2000/svg"
 width="248.000000pt" height="248.000000pt" viewBox="0 0 248.000000 248.000000"
 preserveAspectRatio="xMidYMid meet">
<metadata>
Created by potrace 1.10, written by Peter Selinger 2001-2011
</metadata>
<g transform="translate(0.000000,248.000000) scale(0.100000,-0.100000)"
fill="#000000" stroke="none">
<path d="M891 2407 c-6 -8 -16 -38 -21 -68 -6 -29 -16 -59 -23 -65 -14 -14
-245 -49 -255 -39 -4 3 -12 33 -19 67 -14 69 -26 88 -58 88 -39 0 -48 -23 -41
-99 l6 -68 -73 -8 c-79 -7 -97 -17 -97 -49 0 -38 19 -46 107 -46 l83 0 0 -58
c0 -65 11 -82 52 -82 36 0 50 28 46 93 l-3 52 110 16 c61 9 111 15 113 14 2
-2 -2 -31 -9 -65 -9 -46 -9 -67 -1 -80 12 -20 2 -22 -222 -56 -60 -8 -115 -18
-122 -21 -11 -4 -14 7 -14 44 0 53 -12 73 -46 73 -30 0 -39 -14 -63 -103 -12
-43 -35 -105 -51 -137 -33 -65 -38 -101 -16 -120 31 -25 59 -7 96 59 20 35 46
68 58 72 41 16 376 67 546 85 64 6 68 5 63 -12 -3 -11 -23 -75 -43 -144 -20
-69 -50 -151 -66 -183 -26 -52 -31 -56 -49 -47 -40 22 -85 -14 -69 -56 21 -54
119 -84 152 -46 31 34 97 189 131 307 63 217 67 244 40 271 -15 15 -32 16
-131 11 -104 -6 -113 -5 -108 11 3 9 12 46 21 82 9 36 20 68 24 73 4 4 59 14
122 22 82 11 117 20 127 32 17 23 15 37 -7 64 -18 22 -20 23 -97 11 -119 -18
-114 -20 -114 41 0 29 -5 58 -12 65 -16 16 -53 15 -67 -1z"/>
<path d="M1428 2353 c-8 -10 -32 -63 -53 -118 -21 -55 -62 -153 -92 -218 -58
-124 -62 -159 -23 -172 31 -10 55 2 73 38 13 27 16 29 16 10 1 -14 25 -41 74
-81 106 -87 104 -83 59 -128 -40 -41 -146 -104 -209 -124 -52 -17 -63 -28 -63
-61 0 -46 36 -57 105 -32 91 34 205 105 248 154 l40 47 131 -64 c156 -75 298
-124 383 -131 69 -6 93 4 93 42 0 31 -18 44 -82 55 -31 6 -97 24 -147 40 -101
33 -321 136 -321 151 0 5 16 40 35 77 19 37 53 110 74 162 21 52 45 98 52 101
8 4 54 14 103 23 97 17 116 27 116 62 0 35 -28 57 -64 50 -17 -3 -67 -12 -111
-21 -44 -8 -129 -22 -190 -30 -60 -9 -132 -19 -158 -24 -26 -4 -50 -4 -52 0
-3 4 6 39 20 77 14 38 25 78 25 89 0 42 -54 59 -82 26z m236 -338 c-32 -86
-82 -185 -93 -185 -5 0 -41 25 -81 56 -58 46 -77 55 -101 52 -16 -3 -29 -3
-29 -1 0 19 52 112 65 117 9 3 42 7 73 7 31 1 71 5 87 9 17 4 47 8 67 9 l37 1
-25 -65z"/>
<path d="M512 1795 c-106 -17 -108 -21 -92 -152 13 -109 28 -153 55 -153 8 0
32 9 53 20 22 11 64 23 93 27 78 8 99 24 99 75 0 23 5 68 12 99 11 53 10 60
-7 79 -21 24 -92 25 -213 5z m108 -120 c0 -36 -6 -40 -70 -47 -22 -3 -25 1
-28 29 -3 34 -6 32 63 46 11 3 23 5 28 6 4 0 7 -15 7 -34z"/>
<path d="M1520 1443 c-36 -1 -139 -14 -230 -28 -396 -62 -413 -64 -438 -48
-32 20 -64 13 -81 -18 -13 -23 -13 -34 -1 -83 13 -57 11 -120 -20 -521 -7
-101 -6 -112 14 -155 20 -43 23 -45 61 -43 22 0 95 14 161 31 220 54 771 107
781 75 8 -23 -123 -420 -151 -458 -11 -15 -18 -13 -76 24 -83 54 -130 53 -130
-4 0 -25 22 -46 107 -103 97 -65 145 -58 186 24 57 111 177 493 177 560 0 70
-11 73 -230 63 -102 -5 -230 -13 -284 -19 -55 -6 -102 -7 -105 -4 -6 5 -2 126
4 132 6 7 131 22 254 32 73 5 140 15 147 21 8 6 14 22 14 34 0 44 -20 49 -173
41 -78 -3 -163 -9 -189 -12 l-48 -7 0 51 c0 28 4 53 9 57 15 9 223 45 262 45
38 0 89 36 89 63 0 24 -25 49 -51 50 -13 0 -73 -9 -134 -21 -179 -35 -169 -36
-173 25 -3 47 -1 54 20 62 30 12 148 29 266 37 78 6 95 10 107 28 8 11 15 26
15 33 0 22 -31 43 -63 41 -18 -1 -61 -3 -97 -5z m-342 -201 c4 -53 -10 -72
-54 -72 -18 0 -76 -7 -128 -16 -53 -9 -101 -14 -108 -11 -9 3 -12 22 -10 61
l4 56 41 1 c23 0 74 6 112 14 39 7 86 12 105 12 34 -2 35 -3 38 -45z m-8 -222
l0 -59 -37 -6 c-21 -3 -87 -16 -147 -30 -60 -13 -112 -22 -115 -20 -3 2 -4 32
-1 67 l5 63 90 12 c87 12 197 29 203 32 1 0 2 -26 2 -59z m-13 -212 c-11 -90
-9 -88 -165 -123 -78 -17 -143 -28 -144 -23 -2 4 -2 36 0 71 l4 64 67 12 c37
7 90 18 117 26 27 7 66 14 88 14 l38 1 -5 -42z"/>
<path d="M1362 548 c-17 -17 -15 -52 6 -79 11 -13 31 -45 46 -71 32 -54 59
-68 87 -42 25 22 24 47 -3 102 -44 87 -101 125 -136 90z"/>
<path d="M1052 508 c-20 -20 -14 -45 28 -133 47 -96 60 -110 95 -101 39 10 42
47 10 123 -46 106 -96 148 -133 111z"/>
<path d="M712 458 c-18 -18 -15 -37 24 -128 41 -99 49 -110 78 -110 50 0 58
43 25 130 -38 101 -90 145 -127 108z"/>
<path d="M377 442 c-19 -21 -77 -196 -77 -232 0 -46 34 -68 68 -44 20 14 92
212 92 253 0 40 -54 56 -83 23z"/>
</g>
</svg>
