<?xml version="1.0" standalone="no"?>
<!DOCTYPE svg PUBLIC "-//W3C//DTD SVG 20010904//EN"
 "http://www.w3.org/TR/2001/REC-SVG-20010904/DTD/svg10.dtd">
<svg version="1.0" xmlns="http://www.w3.org/2000/svg"
 width="248.000000pt" height="248.000000pt" viewBox="0 0 248.000000 248.000000"
 preserveAspectRatio="xMidYMid meet">
<metadata>
Created by potrace 1.10, written by Peter Selinger 2001-2011
</metadata>
<g transform="translate(0.000000,248.000000) scale(0.100000,-0.100000)"
fill="#000000" stroke="none">
<path d="M1050 2299 c-30 -5 -121 -21 -202 -35 -81 -13 -206 -29 -277 -34
-170 -12 -233 -20 -248 -33 -16 -12 -17 -49 -1 -65 25 -25 298 -7 572 38 99
17 192 30 206 30 43 0 89 20 95 41 4 11 0 31 -9 44 -18 28 -39 30 -136 14z"/>
</g>
</svg>
