<?xml version="1.0" standalone="no"?>
<!DOCTYPE svg PUBLIC "-//W3C//DTD SVG 20010904//EN"
 "http://www.w3.org/TR/2001/REC-SVG-20010904/DTD/svg10.dtd">
<svg version="1.0" xmlns="http://www.w3.org/2000/svg"
 width="248.000000pt" height="248.000000pt" viewBox="0 0 248.000000 248.000000"
 preserveAspectRatio="xMidYMid meet">
<metadata>
Created by potrace 1.10, written by Peter Selinger 2001-2011
</metadata>
<g transform="translate(0.000000,248.000000) scale(0.100000,-0.100000)"
fill="#000000" stroke="none">
<path d="M891 2407 c-6 -8 -15 -38 -21 -67 -6 -29 -14 -58 -20 -65 -10 -12
-142 -35 -219 -38 l-44 -2 -13 63 c-15 73 -27 92 -59 92 -39 0 -48 -23 -41
-99 l6 -68 -73 -8 c-79 -7 -97 -17 -97 -49 0 -38 19 -46 105 -46 l82 0 2 -57
c2 -66 13 -83 52 -83 37 0 50 26 47 92 l-3 52 45 8 c99 16 175 26 178 23 2 -1
-3 -32 -9 -68 -14 -74 -5 -97 36 -97 33 0 51 27 68 104 9 38 20 73 25 78 5 5
55 15 113 22 57 8 112 17 121 21 26 10 32 43 13 72 -19 28 -5 27 -167 6 l-48
-6 0 55 c0 30 -5 59 -12 66 -16 16 -53 15 -67 -1z"/>
</g>
</svg>
