<?xml version="1.0" standalone="no"?>
<!DOCTYPE svg PUBLIC "-//W3C//DTD SVG 20010904//EN"
 "http://www.w3.org/TR/2001/REC-SVG-20010904/DTD/svg10.dtd">
<svg version="1.0" xmlns="http://www.w3.org/2000/svg"
 width="248.000000pt" height="248.000000pt" viewBox="0 0 248.000000 248.000000"
 preserveAspectRatio="xMidYMid meet">
<metadata>
Created by potrace 1.10, written by Peter Selinger 2001-2011
</metadata>
<g transform="translate(0.000000,248.000000) scale(0.100000,-0.100000)"
fill="#000000" stroke="none">
<path d="M526 2368 c-14 -19 -16 -60 -16 -274 l0 -252 -27 -5 c-16 -2 -71 -14
-123 -26 -52 -12 -122 -27 -155 -33 -33 -5 -70 -17 -82 -24 -30 -19 -30 -59 1
-79 21 -14 36 -13 176 16 84 17 164 35 177 40 13 5 26 9 29 9 2 0 4 -146 4
-324 l0 -324 -157 -62 c-186 -73 -203 -83 -203 -113 0 -63 50 -61 220 8 l135
55 6 -333 c3 -182 5 -333 4 -335 -1 -1 -22 23 -45 55 -71 94 -111 133 -134
133 -57 0 -61 -60 -9 -122 20 -23 67 -85 105 -135 74 -99 90 -113 136 -113 58
0 57 -7 53 469 l-3 436 38 14 c22 7 56 24 77 37 45 29 50 65 13 89 -23 15 -28
15 -70 -4 -25 -12 -47 -21 -51 -21 -3 0 -4 138 -3 307 l3 306 109 29 c124 32
156 49 156 81 0 54 -33 58 -169 22 -52 -14 -95 -24 -97 -22 -2 2 -4 107 -4
233 -1 158 -5 238 -13 255 -17 33 -60 37 -81 7z"/>
<path d="M2009 2215 c-3 -2 -86 -16 -185 -30 -98 -14 -219 -32 -269 -40 -426
-72 -435 -74 -435 -119 0 -30 23 -49 58 -49 23 1 256 40 350 59 l32 7 0 -146
0 -146 -52 -15 c-29 -8 -96 -22 -148 -32 -114 -20 -142 -35 -138 -72 6 -49 38
-54 173 -27 66 13 128 26 138 30 16 7 17 -4 17 -133 l0 -140 -97 -17 c-166
-30 -224 -43 -239 -55 -23 -20 -17 -58 11 -76 24 -16 32 -16 123 4 53 12 118
24 145 27 l47 6 0 -150 0 -150 -32 -5 c-66 -11 -327 -47 -443 -62 -66 -9 -130
-22 -142 -30 -30 -19 -30 -59 0 -78 24 -16 105 -7 432 43 72 11 140 21 153 21
l22 0 0 -372 c0 -280 3 -379 13 -398 17 -34 60 -39 81 -8 14 20 16 71 16 409
l0 387 29 7 c16 3 69 10 117 15 101 9 248 25 412 45 62 7 119 18 127 25 8 7
15 25 15 41 0 45 -26 53 -139 40 -53 -6 -139 -16 -191 -21 -52 -6 -151 -17
-220 -25 -69 -8 -128 -15 -132 -15 -5 0 -8 69 -8 154 l0 154 38 4 c102 13 229
41 245 55 21 20 22 56 2 73 -17 14 -93 8 -205 -15 -36 -7 -66 -13 -67 -12 -2
3 -5 128 -4 208 l1 66 53 12 c28 6 92 18 140 25 99 16 119 28 115 65 -5 47
-39 53 -169 31 -63 -11 -117 -20 -121 -20 -5 0 -8 64 -8 143 l0 143 128 18
c260 36 292 46 292 91 0 34 -60 71 -81 50z"/>
</g>
</svg>
