<?xml version="1.0" standalone="no"?>
<!DOCTYPE svg PUBLIC "-//W3C//DTD SVG 20010904//EN"
 "http://www.w3.org/TR/2001/REC-SVG-20010904/DTD/svg10.dtd">
<svg version="1.0" xmlns="http://www.w3.org/2000/svg"
 width="248.000000pt" height="248.000000pt" viewBox="0 0 248.000000 248.000000"
 preserveAspectRatio="xMidYMid meet">
<metadata>
Created by potrace 1.10, written by Peter Selinger 2001-2011
</metadata>
<g transform="translate(0.000000,248.000000) scale(0.100000,-0.100000)"
fill="#000000" stroke="none">
<path d="M512 2258 c-27 -27 -12 -59 84 -166 52 -59 104 -110 114 -114 25 -9
60 18 60 47 0 26 -56 101 -140 188 -57 58 -92 71 -118 45z"/>
<path d="M760 1849 c-25 -5 -103 -23 -175 -38 -71 -16 -177 -37 -235 -46 -125
-20 -154 -32 -158 -66 -8 -68 57 -68 373 1 175 39 195 42 195 37 0 -6 -55 -92
-100 -157 -17 -25 -62 -89 -100 -143 -63 -92 -322 -378 -379 -421 -93 -69
-118 -124 -67 -147 38 -18 79 11 237 170 l146 146 7 -470 c8 -521 12 -590 41
-611 26 -19 41 -18 66 7 17 17 20 29 15 57 -3 21 -9 289 -12 598 l-7 561 80
109 c112 155 214 327 215 363 2 59 -34 72 -142 50z"/>
<path d="M846 1468 c-8 -13 -30 -54 -47 -93 -18 -38 -48 -89 -66 -113 -50 -66
-42 -122 18 -122 22 0 35 11 66 58 92 135 133 248 101 280 -19 19 -56 14 -72
-10z"/>
</g>
</svg>
