<?xml version="1.0" standalone="no"?>
<!DOCTYPE svg PUBLIC "-//W3C//DTD SVG 20010904//EN"
 "http://www.w3.org/TR/2001/REC-SVG-20010904/DTD/svg10.dtd">
<svg version="1.0" xmlns="http://www.w3.org/2000/svg"
 width="248.000000pt" height="248.000000pt" viewBox="0 0 248.000000 248.000000"
 preserveAspectRatio="xMidYMid meet">
<metadata>
Created by potrace 1.10, written by Peter Selinger 2001-2011
</metadata>
<g transform="translate(0.000000,248.000000) scale(0.100000,-0.100000)"
fill="#000000" stroke="none">
<path d="M1679 2393 c-10 -11 -15 -56 -17 -157 -2 -78 -7 -144 -11 -148 -9
-10 -131 -26 -285 -38 -131 -11 -166 -24 -166 -65 0 -42 32 -53 140 -45 116 9
292 30 302 36 9 6 11 -170 2 -214 -6 -27 -10 -30 -57 -36 -28 -4 -76 -14 -106
-22 -31 -8 -99 -19 -151 -25 -109 -13 -136 -26 -147 -71 -5 -18 -5 -335 -1
-705 7 -728 7 -725 60 -731 20 -2 31 4 44 23 15 24 16 50 10 291 l-7 264 53 0
c29 0 98 7 152 15 55 8 108 15 118 15 17 0 18 -15 18 -294 0 -165 4 -306 10
-320 12 -33 55 -45 78 -22 15 15 18 56 22 334 l5 317 40 7 c22 3 92 10 156 14
l116 7 7 -199 c3 -110 9 -228 13 -263 l6 -64 -30 23 c-34 25 -66 21 -83 -10
-16 -29 1 -59 76 -133 69 -68 94 -79 128 -54 21 16 22 54 5 307 -6 85 -12 421
-15 745 -4 495 -7 592 -19 605 -18 17 -117 16 -257 -5 -150 -23 -136 -33 -130
98 2 61 6 113 7 115 1 1 66 13 144 26 159 26 181 37 165 83 -8 24 -16 28 -54
31 -24 2 -85 -4 -136 -12 -50 -9 -98 -16 -105 -16 -11 0 -13 25 -11 131 3 106
0 135 -13 155 -18 28 -56 32 -76 7z m374 -725 c-2 -5 -3 -88 -3 -186 l0 -179
-67 -12 c-143 -25 -238 -39 -241 -36 -2 2 0 91 4 198 l7 195 86 15 c88 15 218
18 214 5z m-416 -229 c-3 -105 -7 -193 -9 -194 -3 -3 -193 -29 -285 -40 l-53
-6 -2 166 c-1 91 -2 173 -2 183 -1 12 8 18 29 20 28 3 186 34 265 52 68 15 64
29 57 -181z m413 -377 l0 -129 -127 -11 c-71 -7 -140 -15 -155 -18 l-28 -6 0
125 0 125 68 10 c37 6 94 15 127 20 33 5 72 10 88 11 l27 1 0 -128z m-420 -46
l0 -123 -57 -12 c-32 -7 -109 -15 -170 -18 l-113 -6 0 122 0 121 51 0 c48 0
103 7 224 29 28 5 53 9 58 10 4 0 7 -55 7 -123z"/>
<path d="M1942 2388 c-28 -28 -12 -62 64 -145 76 -83 105 -98 132 -71 32 32
11 74 -99 190 -38 39 -74 49 -97 26z"/>
<path d="M512 2258 c-27 -27 -11 -58 85 -167 77 -87 103 -111 123 -111 62 0
65 49 8 122 -114 143 -180 192 -216 156z"/>
<path d="M740 1844 c-36 -7 -114 -24 -175 -38 -60 -13 -157 -32 -215 -41 -126
-20 -154 -31 -158 -67 -5 -44 29 -59 108 -47 170 26 176 27 408 81 24 5 46 8
48 5 7 -6 -112 -186 -238 -361 -44 -61 -300 -330 -368 -387 -49 -40 -60 -55
-60 -80 0 -40 38 -59 78 -38 15 8 95 82 178 164 l151 150 7 -470 c8 -521 12
-590 41 -611 26 -19 41 -18 66 7 17 17 20 29 15 62 -3 23 -8 265 -12 537 l-7
495 49 -51 c27 -29 85 -102 129 -163 48 -67 88 -114 101 -117 31 -8 64 12 64
39 0 23 -51 104 -112 179 -45 53 -47 72 -12 119 42 57 104 190 104 224 0 38
-20 58 -52 53 -18 -2 -33 -23 -68 -94 -25 -49 -55 -103 -67 -118 -25 -32 -36
-28 -90 34 l-31 35 83 117 c115 163 198 306 198 339 0 60 -36 70 -163 43z"/>
</g>
</svg>
