<?xml version="1.0" standalone="no"?>
<!DOCTYPE svg PUBLIC "-//W3C//DTD SVG 20010904//EN"
 "http://www.w3.org/TR/2001/REC-SVG-20010904/DTD/svg10.dtd">
<svg version="1.0" xmlns="http://www.w3.org/2000/svg"
 width="248.000000pt" height="248.000000pt" viewBox="0 0 248.000000 248.000000"
 preserveAspectRatio="xMidYMid meet">
<metadata>
Created by potrace 1.10, written by Peter Selinger 2001-2011
</metadata>
<g transform="translate(0.000000,248.000000) scale(0.100000,-0.100000)"
fill="#000000" stroke="none">
<path d="M655 2201 c-92 -15 -174 -30 -351 -66 -46 -10 -47 -26 -41 -675 4
-480 8 -615 19 -637 18 -37 60 -43 82 -11 15 21 16 62 10 409 -5 242 -4 388 2
392 9 5 162 39 362 81 l62 13 0 -111 c0 -61 -5 -250 -10 -420 -9 -272 -8 -312
5 -333 17 -25 56 -31 73 -10 19 22 22 63 33 432 15 465 8 865 -14 918 -16 36
-17 37 -69 36 -29 0 -102 -9 -163 -18z m139 -113 c3 -13 6 -80 6 -149 l0 -126
-62 -13 c-96 -19 -331 -70 -350 -76 -17 -5 -18 7 -18 155 l0 159 33 7 c17 4
68 15 113 26 76 18 188 35 245 38 20 1 28 -5 33 -21z"/>
</g>
</svg>
