<?xml version="1.0" standalone="no"?>
<!DOCTYPE svg PUBLIC "-//W3C//DTD SVG 20010904//EN"
 "http://www.w3.org/TR/2001/REC-SVG-20010904/DTD/svg10.dtd">
<svg version="1.0" xmlns="http://www.w3.org/2000/svg"
 width="248.000000pt" height="248.000000pt" viewBox="0 0 248.000000 248.000000"
 preserveAspectRatio="xMidYMid meet">
<metadata>
Created by potrace 1.10, written by Peter Selinger 2001-2011
</metadata>
<g transform="translate(0.000000,248.000000) scale(0.100000,-0.100000)"
fill="#000000" stroke="none">
<path d="M1942 2303 c-22 -27 -77 -100 -123 -164 -46 -64 -104 -138 -128 -164
-41 -45 -47 -48 -113 -56 -193 -24 -475 -83 -499 -104 -27 -25 -29 -68 -21
-351 9 -304 9 -304 94 -322 44 -10 87 -9 253 9 111 11 321 23 472 27 176 5
276 11 283 18 18 18 50 294 57 489 6 167 5 184 -14 226 -16 36 -27 47 -51 52
-27 6 -156 -3 -295 -19 l-58 -7 83 114 c46 63 102 138 126 167 43 55 53 97 30
120 -24 24 -56 13 -96 -35z m168 -563 c0 -116 -1 -120 -22 -124 -31 -6 -305
-26 -361 -26 l-45 0 -7 111 c-4 60 -5 112 -3 115 6 5 327 39 406 43 l32 1 0
-120z m-545 -12 c4 -46 5 -99 3 -118 -3 -34 -4 -35 -48 -38 -25 -1 -112 -12
-193 -23 -82 -11 -151 -18 -154 -15 -3 3 -8 50 -11 104 l-4 97 58 14 c90 20
296 59 321 60 20 1 22 -5 28 -81z m535 -235 c0 -10 -5 -60 -12 -110 l-12 -93
-152 0 c-83 0 -172 -3 -198 -6 l-46 -7 0 102 0 101 38 1 c29 1 217 15 365 27
10 1 17 -5 17 -15z m-530 -122 l0 -100 -52 -5 c-29 -3 -99 -10 -156 -16 -56
-5 -123 -10 -147 -10 l-45 0 0 90 c0 85 1 90 23 94 33 7 246 36 292 39 95 8
85 19 85 -92z"/>
<path d="M1222 2248 c-14 -14 -16 -64 -3 -73 5 -3 17 -29 27 -58 9 -28 32 -82
50 -119 38 -76 69 -95 104 -63 26 24 25 35 -9 103 -15 31 -36 81 -46 110 -29
90 -86 137 -123 100z"/>
<path d="M650 2200 c-63 -10 -158 -28 -210 -39 -52 -11 -105 -21 -117 -21 -12
0 -31 -12 -44 -27 l-22 -28 7 -610 c3 -335 9 -634 12 -663 9 -75 32 -89 122
-73 64 10 283 43 385 56 28 4 58 16 74 29 25 22 27 30 35 152 5 71 10 363 11
649 2 614 5 596 -85 594 -29 0 -105 -9 -168 -19z m144 -112 c3 -13 6 -80 6
-149 l0 -126 -62 -13 c-96 -19 -331 -70 -350 -76 -17 -5 -18 7 -18 155 l0 159
33 7 c17 4 68 15 113 26 76 18 188 35 245 38 20 1 28 -5 33 -21z m6 -528 c0
-147 0 -150 -22 -154 -72 -15 -263 -61 -330 -81 l-78 -23 0 154 c0 84 4 155 8
158 4 2 71 18 147 35 174 37 269 58 273 60 1 0 2 -66 2 -149z m-10 -377 c0
-65 -3 -154 -6 -199 l-7 -81 -146 -22 c-80 -12 -168 -26 -196 -31 -27 -4 -51
-7 -51 -7 -1 1 -4 81 -7 178 l-5 176 136 36 c225 60 246 65 265 66 15 1 17
-11 17 -116z"/>
<path d="M1725 1033 c-27 -2 -104 -11 -170 -19 -66 -9 -163 -19 -215 -24 -112
-8 -126 -13 -145 -51 -20 -37 -22 -708 -3 -727 7 -7 25 -12 41 -12 44 0 57 44
57 194 0 122 1 126 23 130 42 9 403 26 546 26 l143 0 -7 -143 c-8 -156 -3
-172 47 -165 52 7 68 115 68 464 0 254 -6 295 -44 316 -21 12 -242 19 -341 11z
m275 -240 l0 -138 -92 4 c-88 3 -450 -13 -565 -25 l-53 -5 0 125 0 126 30 0
c16 0 73 7 127 15 137 22 266 32 421 34 l132 1 0 -137z"/>
<path d="M361 626 c-6 -7 -20 -44 -30 -82 -10 -38 -42 -136 -70 -218 -29 -81
-51 -158 -49 -169 2 -13 14 -26 31 -31 42 -15 64 15 114 161 91 263 100 305
73 338 -15 19 -54 20 -69 1z"/>
<path d="M672 618 c-31 -31 -1 -141 89 -322 33 -66 65 -126 71 -133 13 -16 50
-17 66 -1 23 23 12 67 -52 200 -35 73 -71 157 -80 187 -8 29 -21 60 -27 67
-14 17 -51 18 -67 2z"/>
</g>
</svg>
