<?xml version="1.0" standalone="no"?>
<!DOCTYPE svg PUBLIC "-//W3C//DTD SVG 20010904//EN"
 "http://www.w3.org/TR/2001/REC-SVG-20010904/DTD/svg10.dtd">
<svg version="1.0" xmlns="http://www.w3.org/2000/svg"
 width="248.000000pt" height="248.000000pt" viewBox="0 0 248.000000 248.000000"
 preserveAspectRatio="xMidYMid meet">
<metadata>
Created by potrace 1.10, written by Peter Selinger 2001-2011
</metadata>
<g transform="translate(0.000000,248.000000) scale(0.100000,-0.100000)"
fill="#000000" stroke="none">
<path d="M655 2201 c-92 -15 -174 -30 -351 -66 -46 -10 -47 -26 -41 -675 6
-660 6 -662 59 -668 20 -2 31 4 44 23 15 23 16 47 12 205 l-5 178 61 16 c224
59 333 86 345 86 12 0 13 -34 8 -218 -6 -188 -5 -221 9 -240 17 -24 56 -29 72
-9 19 22 22 63 33 432 15 465 8 865 -14 918 -16 36 -17 37 -69 36 -29 0 -102
-9 -163 -18z m139 -113 c3 -13 6 -80 6 -149 l0 -126 -62 -13 c-96 -19 -331
-70 -350 -76 -17 -5 -18 7 -18 155 l0 159 33 7 c17 4 68 15 113 26 76 18 188
35 245 38 20 1 28 -5 33 -21z m6 -528 c0 -147 0 -150 -22 -154 -72 -15 -263
-61 -330 -81 l-78 -23 0 154 c0 84 4 155 8 158 4 2 71 18 147 35 174 37 269
58 273 60 1 0 2 -66 2 -149z"/>
</g>
</svg>
