<?xml version="1.0" standalone="no"?>
<!DOCTYPE svg PUBLIC "-//W3C//DTD SVG 20010904//EN"
 "http://www.w3.org/TR/2001/REC-SVG-20010904/DTD/svg10.dtd">
<svg version="1.0" xmlns="http://www.w3.org/2000/svg"
 width="248.000000pt" height="248.000000pt" viewBox="0 0 248.000000 248.000000"
 preserveAspectRatio="xMidYMid meet">
<metadata>
Created by potrace 1.10, written by Peter Selinger 2001-2011
</metadata>
<g transform="translate(0.000000,248.000000) scale(0.100000,-0.100000)"
fill="#000000" stroke="none">
<path d="M1942 2303 c-22 -27 -77 -100 -123 -164 -46 -64 -103 -137 -127 -163
-42 -45 -42 -46 -145 -61 -135 -20 -415 -74 -449 -87 -45 -17 -49 -47 -40
-349 7 -236 10 -280 25 -303 19 -28 54 -35 75 -14 8 8 12 53 12 135 0 119 1
123 23 127 39 8 240 35 310 41 l67 6 0 -88 c0 -106 13 -138 55 -138 42 0 55
32 55 143 l0 92 33 0 c17 1 111 7 207 14 96 8 177 12 179 10 3 -2 -3 -62 -13
-132 -12 -91 -15 -135 -7 -154 20 -54 86 -44 95 15 25 173 38 309 43 457 5
162 4 179 -14 221 -16 36 -27 47 -51 52 -27 6 -156 -3 -296 -19 l-58 -7 76
104 c43 57 99 133 127 167 50 65 61 106 37 130 -24 24 -56 13 -96 -35z m168
-563 c0 -116 -1 -120 -22 -124 -31 -6 -305 -26 -361 -26 l-45 0 -7 111 c-4 60
-5 112 -2 115 3 3 52 10 109 15 56 6 139 14 183 18 44 5 95 9 113 10 l32 1 0
-120z m-545 -12 c4 -46 5 -99 3 -118 -3 -34 -4 -35 -48 -37 -25 -2 -112 -12
-193 -24 -82 -11 -151 -18 -154 -15 -3 3 -8 50 -11 104 l-4 97 58 13 c106 24
298 60 321 61 20 1 22 -5 28 -81z"/>
<path d="M1222 2248 c-14 -14 -16 -64 -3 -73 5 -3 17 -29 26 -58 10 -28 33
-82 53 -120 39 -75 68 -93 102 -62 26 24 25 35 -9 103 -15 31 -36 81 -46 110
-29 90 -86 137 -123 100z"/>
<path d="M655 2201 c-93 -15 -161 -28 -351 -66 -11 -3 -26 -16 -32 -30 -14
-31 -16 -722 -3 -1095 9 -239 10 -245 32 -263 18 -15 33 -18 64 -13 22 4 67
11 100 15 171 25 284 42 323 47 51 6 90 38 97 79 11 65 27 765 23 1010 -4 208
-8 267 -21 298 -16 36 -17 37 -69 36 -29 0 -102 -9 -163 -18z m139 -113 c3
-13 6 -80 6 -149 l0 -126 -62 -13 c-96 -19 -331 -70 -350 -76 -17 -5 -18 7
-18 155 l0 159 33 7 c17 4 68 15 113 26 76 18 188 35 245 38 20 1 28 -5 33
-21z m6 -528 c0 -147 0 -150 -22 -154 -72 -15 -263 -61 -330 -81 l-78 -23 0
154 c0 84 4 155 8 158 4 2 71 18 147 35 174 37 269 58 273 60 1 0 2 -66 2
-149z m-10 -377 c0 -65 -3 -154 -6 -199 l-7 -81 -71 -11 c-39 -6 -107 -16
-151 -23 -44 -6 -100 -15 -125 -19 -25 -5 -45 -8 -46 -7 -1 1 -4 81 -6 178
l-6 176 137 36 c224 60 245 65 264 66 15 1 17 -11 17 -116z"/>
<path d="M361 626 c-6 -7 -20 -44 -30 -82 -10 -38 -42 -136 -70 -218 -29 -81
-51 -158 -49 -169 2 -13 14 -26 31 -31 42 -15 69 20 110 149 20 61 43 128 52
149 9 22 23 69 31 105 11 57 11 69 -2 88 -16 26 -55 30 -73 9z"/>
<path d="M672 618 c-35 -35 2 -155 120 -383 17 -33 35 -66 41 -72 12 -16 49
-17 65 -1 23 23 12 67 -52 200 -35 73 -71 157 -80 187 -8 29 -21 60 -27 67
-14 17 -51 18 -67 2z"/>
</g>
</svg>
