<?xml version="1.0" standalone="no"?>
<!DOCTYPE svg PUBLIC "-//W3C//DTD SVG 20010904//EN"
 "http://www.w3.org/TR/2001/REC-SVG-20010904/DTD/svg10.dtd">
<svg version="1.0" xmlns="http://www.w3.org/2000/svg"
 width="248.000000pt" height="248.000000pt" viewBox="0 0 248.000000 248.000000"
 preserveAspectRatio="xMidYMid meet">
<metadata>
Created by potrace 1.10, written by Peter Selinger 2001-2011
</metadata>
<g transform="translate(0.000000,248.000000) scale(0.100000,-0.100000)"
fill="#000000" stroke="none">
<path d="M655 2201 c-92 -15 -174 -30 -351 -66 -46 -10 -47 -26 -41 -675 6
-660 6 -662 59 -668 57 -7 56 -19 50 643 l-5 603 34 7 c19 4 70 15 114 25 97
23 264 44 273 35 12 -12 14 -522 3 -884 -10 -313 -9 -357 4 -378 17 -25 56
-31 73 -10 19 22 22 63 33 432 15 465 8 865 -14 918 -16 36 -17 37 -69 36 -29
0 -102 -9 -163 -18z"/>
</g>
</svg>
