<?xml version="1.0" standalone="no"?>
<!DOCTYPE svg PUBLIC "-//W3C//DTD SVG 20010904//EN"
 "http://www.w3.org/TR/2001/REC-SVG-20010904/DTD/svg10.dtd">
<svg version="1.0" xmlns="http://www.w3.org/2000/svg"
 width="248.000000pt" height="248.000000pt" viewBox="0 0 248.000000 248.000000"
 preserveAspectRatio="xMidYMid meet">
<metadata>
Created by potrace 1.10, written by Peter Selinger 2001-2011
</metadata>
<g transform="translate(0.000000,248.000000) scale(0.100000,-0.100000)"
fill="#000000" stroke="none">
<path d="M1849 2276 c-2 -3 -130 -9 -284 -16 -253 -10 -465 -25 -720 -51 -49
-5 -118 -12 -153 -16 -52 -4 -66 -10 -79 -29 -14 -22 -13 -27 11 -68 15 -26
30 -72 36 -113 12 -87 12 -258 0 -348 -18 -127 -117 -445 -223 -720 -44 -114
-183 -392 -223 -446 -19 -26 -34 -56 -34 -67 0 -24 25 -52 47 -52 78 0 292
444 434 900 70 223 91 304 96 378 3 40 10 75 15 78 5 3 82 12 171 19 308 26
412 35 497 45 47 5 132 11 189 14 65 3 111 11 125 20 12 8 39 54 60 102 83
192 126 300 126 317 0 24 -36 57 -63 57 -13 0 -26 -2 -28 -4z m-44 -134 c-3
-15 -23 -63 -44 -107 -21 -44 -43 -94 -50 -111 -14 -36 -24 -38 -181 -49 -47
-3 -130 -10 -185 -15 -378 -36 -569 -50 -575 -43 -4 4 -10 62 -12 128 -3 66
-7 126 -9 134 -6 23 34 29 426 62 132 11 372 23 534 27 l103 2 -7 -28z"/>
<path d="M1580 1509 c-184 -37 -604 -89 -716 -89 -54 0 -74 -12 -74 -45 0 -38
19 -45 120 -45 166 0 437 32 750 90 129 24 149 35 134 77 -9 26 -14 28 -64 30
-30 1 -98 -7 -150 -18z"/>
</g>
</svg>
