<?xml version="1.0" standalone="no"?>
<!DOCTYPE svg PUBLIC "-//W3C//DTD SVG 20010904//EN"
 "http://www.w3.org/TR/2001/REC-SVG-20010904/DTD/svg10.dtd">
<svg version="1.0" xmlns="http://www.w3.org/2000/svg"
 width="248.000000pt" height="248.000000pt" viewBox="0 0 248.000000 248.000000"
 preserveAspectRatio="xMidYMid meet">
<metadata>
Created by potrace 1.10, written by Peter Selinger 2001-2011
</metadata>
<g transform="translate(0.000000,248.000000) scale(0.100000,-0.100000)"
fill="#000000" stroke="none">
<path d="M1849 2276 c-2 -3 -130 -9 -284 -16 -252 -10 -470 -25 -715 -51 -47
-5 -114 -12 -150 -15 -36 -4 -71 -11 -77 -16 -16 -13 -17 -50 -1 -66 14 -14
122 -16 216 -3 63 9 160 18 452 41 69 5 214 12 324 16 l199 5 -7 -28 c-4 -15
-27 -70 -52 -121 -24 -51 -44 -96 -44 -99 0 -4 -12 -24 -26 -44 -30 -44 -26
-76 13 -86 60 -14 84 23 204 317 44 110 46 123 19 150 -18 18 -60 27 -71 16z"/>
</g>
</svg>
