<?xml version="1.0" standalone="no"?>
<!DOCTYPE svg PUBLIC "-//W3C//DTD SVG 20010904//EN"
 "http://www.w3.org/TR/2001/REC-SVG-20010904/DTD/svg10.dtd">
<svg version="1.0" xmlns="http://www.w3.org/2000/svg"
 width="248.000000pt" height="248.000000pt" viewBox="0 0 248.000000 248.000000"
 preserveAspectRatio="xMidYMid meet">
<metadata>
Created by potrace 1.10, written by Peter Selinger 2001-2011
</metadata>
<g transform="translate(0.000000,248.000000) scale(0.100000,-0.100000)"
fill="#000000" stroke="none">
<path d="M549 2274 c-11 -13 -13 -50 -11 -173 1 -86 5 -179 8 -207 l6 -50
-128 -19 c-92 -13 -132 -23 -146 -37 -24 -24 -23 -43 3 -69 17 -17 28 -20 58
-15 62 12 206 34 207 32 1 0 4 -56 5 -123 l4 -121 -40 -7 c-22 -3 -83 -13
-135 -21 -52 -7 -117 -19 -145 -24 -27 -6 -60 -13 -72 -16 -27 -5 -46 -38 -38
-64 12 -39 39 -42 148 -21 145 28 267 44 274 38 12 -13 -1 -797 -14 -797 -3 0
-50 14 -105 31 l-100 31 6 37 c20 110 19 128 -3 150 -11 11 -28 21 -36 21 -28
0 -55 -38 -55 -77 0 -44 -43 -255 -66 -328 -9 -27 -30 -80 -46 -117 -33 -73
-32 -112 3 -123 50 -16 107 74 149 240 13 50 24 91 25 93 2 1 45 -10 96 -26
52 -17 146 -42 209 -57 63 -15 153 -42 200 -60 196 -74 438 -139 610 -164 41
-6 122 -18 180 -27 72 -11 200 -18 410 -21 281 -4 308 -3 340 14 38 19 52 61
28 80 -8 7 -134 13 -353 15 -472 7 -706 42 -1055 160 -96 32 -208 68 -248 80
l-72 21 2 191 3 191 82 11 c44 7 97 17 117 24 57 18 74 68 33 94 -19 13 -29
14 -77 1 -30 -7 -75 -15 -100 -17 l-45 -3 -1 145 c0 80 -4 160 -8 178 -9 38
-9 38 94 51 152 20 225 33 242 42 24 13 39 44 32 64 -12 30 -39 36 -116 24
-40 -6 -112 -16 -160 -23 l-88 -13 0 123 0 123 38 6 c134 22 172 39 172 80 0
42 -22 49 -113 36 -45 -6 -87 -11 -93 -11 -7 0 -13 59 -17 179 -6 198 -15 234
-58 239 -15 2 -32 -4 -40 -14z"/>
<path d="M1435 1824 c-96 -19 -275 -45 -364 -53 -55 -5 -77 -11 -87 -26 -33
-45 2 -85 76 -85 l50 0 -1 -212 c0 -117 -5 -253 -10 -303 -12 -122 -15 -161
-24 -292 -9 -125 -3 -143 46 -143 40 0 51 27 60 145 4 55 13 160 20 234 15
152 9 143 124 163 74 13 105 31 105 62 0 40 -23 50 -98 43 -37 -4 -77 -9 -89
-13 l-23 -6 0 155 c0 85 -3 162 -6 171 -7 17 -20 14 196 51 164 28 200 42 200
78 0 50 -41 57 -175 31z"/>
</g>
</svg>
