<?xml version="1.0" standalone="no"?>
<!DOCTYPE svg PUBLIC "-//W3C//DTD SVG 20010904//EN"
 "http://www.w3.org/TR/2001/REC-SVG-20010904/DTD/svg10.dtd">
<svg version="1.0" xmlns="http://www.w3.org/2000/svg"
 width="248.000000pt" height="248.000000pt" viewBox="0 0 248.000000 248.000000"
 preserveAspectRatio="xMidYMid meet">
<metadata>
Created by potrace 1.10, written by Peter Selinger 2001-2011
</metadata>
<g transform="translate(0.000000,248.000000) scale(0.100000,-0.100000)"
fill="#000000" stroke="none">
<path d="M549 2274 c-11 -13 -13 -50 -11 -173 1 -86 5 -179 8 -207 l6 -50
-128 -19 c-92 -13 -132 -23 -146 -37 -24 -24 -23 -43 3 -69 17 -17 28 -20 58
-15 62 12 206 34 207 32 1 0 4 -56 5 -123 l4 -121 -40 -7 c-22 -3 -83 -13
-135 -21 -52 -7 -117 -19 -145 -24 -27 -6 -60 -13 -72 -16 -27 -5 -46 -38 -38
-64 12 -39 38 -42 153 -21 202 38 414 74 480 82 130 16 217 31 234 40 24 13
39 44 32 64 -12 30 -39 36 -116 24 -40 -6 -112 -16 -160 -23 l-88 -13 0 123 0
123 38 6 c134 22 172 39 172 80 0 42 -22 49 -113 36 -45 -6 -87 -11 -93 -11
-7 0 -13 59 -17 179 -6 198 -15 234 -58 239 -15 2 -32 -4 -40 -14z"/>
</g>
</svg>
