<?xml version="1.0" standalone="no"?>
<!DOCTYPE svg PUBLIC "-//W3C//DTD SVG 20010904//EN"
 "http://www.w3.org/TR/2001/REC-SVG-20010904/DTD/svg10.dtd">
<svg version="1.0" xmlns="http://www.w3.org/2000/svg"
 width="248.000000pt" height="248.000000pt" viewBox="0 0 248.000000 248.000000"
 preserveAspectRatio="xMidYMid meet">
<metadata>
Created by potrace 1.10, written by Peter Selinger 2001-2011
</metadata>
<g transform="translate(0.000000,248.000000) scale(0.100000,-0.100000)"
fill="#000000" stroke="none">
<path d="M1660 2299 c-60 -7 -248 -25 -510 -49 -58 -6 -190 -17 -294 -25 -105
-9 -201 -21 -215 -28 l-26 -12 4 -275 c2 -151 6 -387 10 -523 l6 -249 31 -28
c30 -26 39 -28 160 -35 192 -12 641 6 932 37 97 10 116 15 127 32 9 14 18 118
29 331 9 171 21 400 27 510 13 226 9 287 -24 310 -24 17 -141 19 -257 4z m177
-226 c-3 -71 -11 -227 -17 -348 -13 -278 -28 -496 -34 -503 -6 -5 -133 -14
-456 -32 -198 -11 -573 -11 -584 1 -4 3 -25 901 -21 916 0 0 70 6 155 12 85 6
189 15 230 20 41 5 156 16 255 26 99 9 212 20 250 24 39 5 106 9 149 10 l79 1
-6 -127z"/>
<path d="M1169 2034 c-10 -12 -13 -43 -11 -113 l3 -97 -98 -13 c-124 -16 -148
-27 -148 -66 0 -43 39 -60 106 -46 27 6 66 11 85 11 32 0 34 -2 28 -27 -9 -39
-69 -177 -99 -228 -14 -24 -50 -65 -80 -90 -62 -53 -71 -84 -31 -110 20 -14
29 -14 48 -4 79 41 158 141 214 269 15 36 29 67 31 69 1 2 22 -14 47 -35 24
-21 66 -55 92 -74 27 -19 57 -43 67 -54 11 -10 44 -36 74 -57 93 -64 158 -62
151 5 -3 26 -12 36 -63 64 -33 18 -76 48 -95 66 -19 18 -64 55 -100 82 -36 27
-75 60 -87 74 -22 24 -40 67 -32 75 3 2 63 11 134 20 187 23 192 24 205 40 19
23 8 59 -24 74 -25 11 -46 11 -155 -3 -69 -9 -133 -19 -142 -22 -14 -4 -17 9
-23 78 -4 46 -14 93 -22 105 -17 27 -56 30 -75 7z"/>
</g>
</svg>
