<?xml version="1.0" standalone="no"?>
<!DOCTYPE svg PUBLIC "-//W3C//DTD SVG 20010904//EN"
 "http://www.w3.org/TR/2001/REC-SVG-20010904/DTD/svg10.dtd">
<svg version="1.0" xmlns="http://www.w3.org/2000/svg"
 width="248.000000pt" height="248.000000pt" viewBox="0 0 248.000000 248.000000"
 preserveAspectRatio="xMidYMid meet">
<metadata>
Created by potrace 1.10, written by Peter Selinger 2001-2011
</metadata>
<g transform="translate(0.000000,248.000000) scale(0.100000,-0.100000)"
fill="#000000" stroke="none">
<path d="M1645 2169 c-55 -5 -147 -13 -205 -19 -58 -5 -167 -13 -243 -17 -105
-5 -143 -10 -158 -22 -19 -16 -19 -22 -4 -321 20 -422 18 -415 157 -415 51 0
172 6 268 13 96 7 238 17 315 21 77 4 150 13 162 19 13 7 26 28 32 50 5 20 12
48 15 62 3 14 13 113 21 220 24 322 19 391 -32 411 -28 11 -185 10 -328 -2z
m265 -193 c0 -51 -3 -107 -6 -123 l-6 -30 -156 -6 c-87 -4 -257 -10 -379 -14
l-223 -6 0 74 c0 41 -3 90 -6 110 l-6 36 78 7 c44 3 129 11 189 16 211 20 321
27 418 29 l97 1 0 -94z m-27 -402 l-8 -49 -95 -7 c-52 -3 -169 -11 -260 -18
-91 -6 -208 -14 -261 -17 l-96 -6 -6 39 c-4 22 -7 69 -7 105 l0 66 363 12
c199 7 364 15 367 18 9 9 11 -93 3 -143z"/>
<path d="M352 2118 c-29 -29 -13 -63 56 -129 159 -149 221 -199 244 -199 31 0
48 18 48 49 0 26 -35 63 -198 209 -92 81 -124 96 -150 70z"/>
<path d="M72 1468 c-32 -32 -4 -83 81 -145 28 -21 87 -68 130 -105 81 -70 112
-82 141 -52 38 38 23 57 -178 218 -116 93 -149 109 -174 84z"/>
<path d="M465 733 c-14 -21 -25 -41 -25 -45 0 -11 -138 -256 -165 -293 -38
-54 -96 -176 -93 -197 4 -28 29 -42 61 -34 21 5 35 23 63 78 20 40 49 88 64
107 30 38 107 176 166 299 34 69 35 74 20 98 -25 37 -60 32 -91 -13z"/>
</g>
</svg>
