<?xml version="1.0" standalone="no"?>
<!DOCTYPE svg PUBLIC "-//W3C//DTD SVG 20010904//EN"
 "http://www.w3.org/TR/2001/REC-SVG-20010904/DTD/svg10.dtd">
<svg version="1.0" xmlns="http://www.w3.org/2000/svg"
 width="248.000000pt" height="248.000000pt" viewBox="0 0 248.000000 248.000000"
 preserveAspectRatio="xMidYMid meet">
<metadata>
Created by potrace 1.10, written by Peter Selinger 2001-2011
</metadata>
<g transform="translate(0.000000,248.000000) scale(0.100000,-0.100000)"
fill="#000000" stroke="none">
<path d="M1660 2299 c-60 -7 -248 -25 -510 -49 -58 -6 -190 -17 -294 -25 -105
-9 -201 -21 -215 -28 -21 -10 -26 -20 -26 -47 0 -19 4 -249 8 -510 9 -520 9
-525 65 -518 53 6 54 15 45 520 -5 255 -9 464 -8 465 0 0 68 6 150 12 83 6
191 15 240 20 50 6 164 18 255 26 91 9 206 20 257 25 50 6 120 10 154 10 l62
0 -6 -127 c-22 -459 -28 -576 -38 -721 -12 -194 -5 -232 42 -232 52 0 55 17
73 355 9 171 21 400 27 510 13 226 9 287 -24 310 -24 17 -141 19 -257 4z"/>
<path d="M1169 2034 c-10 -12 -13 -43 -11 -113 l3 -97 -98 -13 c-124 -16 -148
-27 -148 -66 0 -43 39 -60 106 -46 27 6 66 11 86 11 28 0 34 -3 29 -16 -3 -9
-9 -28 -12 -42 -4 -15 -28 -73 -55 -128 -41 -86 -58 -110 -109 -154 -67 -59
-76 -89 -36 -115 20 -14 29 -14 48 -4 107 56 214 223 264 411 11 41 24 70 34
73 24 7 230 35 264 35 50 0 81 21 81 55 0 23 -7 33 -29 44 -25 11 -46 11 -155
-3 -69 -9 -133 -19 -142 -22 -14 -4 -17 9 -23 78 -4 46 -14 93 -22 105 -17 27
-56 30 -75 7z"/>
</g>
</svg>
