<?xml version="1.0" standalone="no"?>
<!DOCTYPE svg PUBLIC "-//W3C//DTD SVG 20010904//EN"
 "http://www.w3.org/TR/2001/REC-SVG-20010904/DTD/svg10.dtd">
<svg version="1.0" xmlns="http://www.w3.org/2000/svg"
 width="248.000000pt" height="248.000000pt" viewBox="0 0 248.000000 248.000000"
 preserveAspectRatio="xMidYMid meet">
<metadata>
Created by potrace 1.10, written by Peter Selinger 2001-2011
</metadata>
<g transform="translate(0.000000,248.000000) scale(0.100000,-0.100000)"
fill="#000000" stroke="none">
<path d="M1660 2299 c-60 -7 -248 -25 -510 -49 -58 -6 -190 -17 -294 -25 -105
-9 -201 -21 -215 -28 -21 -10 -26 -20 -26 -47 0 -19 4 -249 8 -510 9 -520 9
-525 65 -518 53 6 54 15 45 520 -5 255 -9 464 -8 465 0 0 68 6 150 12 83 6
191 15 240 20 50 6 164 18 255 26 91 9 206 20 257 25 50 6 120 10 154 10 l62
0 -6 -127 c-22 -459 -28 -576 -38 -721 -12 -194 -5 -232 42 -232 52 0 55 17
73 355 9 171 21 400 27 510 13 226 9 287 -24 310 -24 17 -141 19 -257 4z"/>
<path d="M1390 1861 c-63 -10 -185 -28 -270 -41 -184 -26 -205 -34 -205 -75 0
-36 36 -58 80 -50 17 3 93 15 170 26 77 11 168 25 202 30 34 5 98 13 142 18
88 10 111 21 111 56 0 53 -60 62 -230 36z"/>
</g>
</svg>
