<?xml version="1.0" standalone="no"?>
<!DOCTYPE svg PUBLIC "-//W3C//DTD SVG 20010904//EN"
 "http://www.w3.org/TR/2001/REC-SVG-20010904/DTD/svg10.dtd">
<svg version="1.0" xmlns="http://www.w3.org/2000/svg"
 width="248.000000pt" height="248.000000pt" viewBox="0 0 248.000000 248.000000"
 preserveAspectRatio="xMidYMid meet">
<metadata>
Created by potrace 1.10, written by Peter Selinger 2001-2011
</metadata>
<g transform="translate(0.000000,248.000000) scale(0.100000,-0.100000)"
fill="#000000" stroke="none">
<path d="M1650 2183 c-233 -9 -474 -26 -590 -43 -366 -51 -584 -90 -601 -107
-5 -5 -11 -92 -14 -194 -2 -101 -9 -240 -14 -309 -14 -172 -25 -1125 -14
-1175 9 -42 40 -67 73 -58 19 5 44 49 35 63 -7 11 -7 626 0 846 9 290 15 447
20 494 2 25 7 93 11 151 l6 106 61 11 c34 7 114 19 177 28 63 8 117 17 121 20
4 2 78 13 165 24 170 21 513 40 735 40 l137 0 5 -72 c3 -40 4 -363 3 -718 -3
-583 -9 -758 -32 -918 -6 -42 -7 -42 -28 -28 -75 55 -192 117 -214 114 -63 -8
-54 -73 16 -111 26 -14 85 -51 131 -81 106 -71 153 -73 180 -8 7 16 22 138 34
272 20 224 22 298 21 930 0 378 -4 692 -8 698 -18 30 -120 36 -416 25z"/>
<path d="M1445 1784 c-121 -34 -371 -72 -497 -75 -105 -2 -133 -13 -133 -54 0
-48 31 -57 160 -50 115 6 331 40 475 74 107 26 135 56 90 101 -23 23 -27 23
-95 4z"/>
<path d="M1515 1454 c-5 -2 -93 -10 -195 -19 -191 -16 -469 -58 -501 -76 -37
-19 -40 -42 -20 -156 11 -59 22 -135 26 -168 7 -65 28 -125 48 -137 22 -14 56
-8 69 11 20 28 100 39 318 45 223 7 212 2 250 104 33 88 100 315 100 338 0 12
-6 27 -14 33 -16 14 -67 29 -81 25z m-29 -131 c-4 -16 -22 -78 -42 -139 l-35
-112 -42 -4 c-23 -3 -94 -6 -157 -7 -63 -1 -149 -8 -190 -15 -41 -8 -79 -10
-84 -5 -7 6 -24 98 -39 213 -2 18 10 22 103 38 58 10 191 27 295 37 105 10
192 19 194 20 2 0 0 -11 -3 -26z"/>
</g>
</svg>
