<?xml version="1.0" standalone="no"?>
<!DOCTYPE svg PUBLIC "-//W3C//DTD SVG 20010904//EN"
 "http://www.w3.org/TR/2001/REC-SVG-20010904/DTD/svg10.dtd">
<svg version="1.0" xmlns="http://www.w3.org/2000/svg"
 width="248.000000pt" height="248.000000pt" viewBox="0 0 248.000000 248.000000"
 preserveAspectRatio="xMidYMid meet">
<metadata>
Created by potrace 1.10, written by Peter Selinger 2001-2011
</metadata>
<g transform="translate(0.000000,248.000000) scale(0.100000,-0.100000)"
fill="#000000" stroke="none">
<path d="M470 1980 c-16 -16 -20 -34 -20 -97 -1 -43 -3 -94 -5 -113 -16 -136
-27 -509 -28 -936 -2 -531 -3 -525 44 -537 27 -7 74 37 65 60 -8 19 -8 631 -1
839 2 82 7 221 10 309 3 88 7 171 9 185 2 14 7 80 11 147 6 114 5 123 -14 142
-26 26 -46 26 -71 1z"/>
</g>
</svg>
