<?xml version="1.0" standalone="no"?>
<!DOCTYPE svg PUBLIC "-//W3C//DTD SVG 20010904//EN"
 "http://www.w3.org/TR/2001/REC-SVG-20010904/DTD/svg10.dtd">
<svg version="1.0" xmlns="http://www.w3.org/2000/svg"
 width="248.000000pt" height="248.000000pt" viewBox="0 0 248.000000 248.000000"
 preserveAspectRatio="xMidYMid meet">
<metadata>
Created by potrace 1.10, written by Peter Selinger 2001-2011
</metadata>
<g transform="translate(0.000000,248.000000) scale(0.100000,-0.100000)"
fill="#000000" stroke="none">
<path d="M1132 2278 c-5 -7 -15 -33 -22 -58 -24 -94 -102 -311 -168 -470 l-68
-165 -60 -7 c-32 -4 -135 -17 -229 -28 -93 -11 -222 -33 -285 -50 -63 -16
-126 -30 -140 -30 -15 0 -31 -5 -38 -12 -15 -15 -15 -51 0 -66 20 -20 117 -14
217 14 85 23 460 77 470 68 6 -6 -27 -74 -111 -229 -88 -161 -159 -273 -198
-310 -54 -51 -27 -105 52 -105 20 0 61 -9 90 -21 29 -12 74 -27 99 -35 26 -8
93 -35 150 -60 57 -25 123 -53 147 -62 23 -9 42 -19 42 -23 0 -10 -106 -105
-155 -139 -98 -67 -299 -150 -425 -175 -66 -13 -89 -55 -50 -90 15 -14 29 -16
62 -11 86 13 215 59 333 118 136 69 171 93 271 191 l72 69 103 -47 c213 -96
648 -346 699 -400 29 -31 73 -33 93 -4 30 42 -3 78 -162 178 -80 50 -495 281
-505 281 -2 0 -39 16 -81 35 l-77 36 26 32 c38 47 120 184 175 296 61 120 102
222 153 376 60 183 29 165 291 165 141 0 265 -6 336 -15 92 -12 119 -12 140
-2 37 18 40 60 6 83 -23 15 -64 18 -338 21 -172 2 -321 6 -332 8 -11 2 -24 14
-30 27 -16 36 -54 36 -84 0 l-26 -30 -175 -7 c-96 -3 -226 -10 -289 -16 -63
-5 -115 -8 -117 -7 -1 2 29 80 67 173 120 295 168 465 139 500 -15 18 -54 20
-68 3z m379 -885 c-72 -204 -103 -277 -178 -417 -79 -147 -156 -256 -183 -256
-10 0 -67 22 -127 48 -112 51 -167 72 -293 117 -114 39 -110 31 -48 131 59 95
164 284 221 400 31 61 40 72 68 78 49 9 303 27 501 34 l87 3 -48 -138z"/>
</g>
</svg>
