<?xml version="1.0" standalone="no"?>
<!DOCTYPE svg PUBLIC "-//W3C//DTD SVG 20010904//EN"
 "http://www.w3.org/TR/2001/REC-SVG-20010904/DTD/svg10.dtd">
<svg version="1.0" xmlns="http://www.w3.org/2000/svg"
 width="248.000000pt" height="248.000000pt" viewBox="0 0 248.000000 248.000000"
 preserveAspectRatio="xMidYMid meet">
<metadata>
Created by potrace 1.10, written by Peter Selinger 2001-2011
</metadata>
<g transform="translate(0.000000,248.000000) scale(0.100000,-0.100000)"
fill="#000000" stroke="none">
<path d="M1132 2278 c-5 -7 -15 -33 -22 -58 -45 -173 -186 -532 -290 -742
-137 -274 -264 -489 -320 -543 -54 -51 -27 -105 52 -105 20 0 61 -9 90 -21 29
-12 74 -27 99 -35 26 -8 93 -35 150 -60 57 -25 123 -53 147 -62 23 -9 42 -19
42 -23 0 -10 -106 -105 -155 -139 -98 -67 -299 -150 -425 -175 -66 -13 -89
-55 -50 -90 15 -14 29 -16 62 -11 86 13 215 59 333 118 136 69 171 93 271 191
l72 69 103 -47 c213 -96 648 -346 699 -400 29 -31 73 -33 93 -4 30 42 -3 78
-162 178 -80 50 -495 281 -505 281 -2 0 -39 16 -81 35 l-77 36 26 32 c38 47
120 184 175 296 59 117 99 215 158 386 76 222 85 269 61 293 -16 16 -53 15
-66 0 -5 -7 -37 -95 -71 -195 -83 -249 -129 -360 -208 -507 -79 -147 -156
-256 -183 -256 -10 0 -67 22 -127 48 -112 51 -167 72 -293 117 -114 39 -110
31 -48 131 139 225 262 469 372 741 132 329 176 482 146 518 -15 18 -54 20
-68 3z"/>
</g>
</svg>
