<?xml version="1.0" standalone="no"?>
<!DOCTYPE svg PUBLIC "-//W3C//DTD SVG 20010904//EN"
 "http://www.w3.org/TR/2001/REC-SVG-20010904/DTD/svg10.dtd">
<svg version="1.0" xmlns="http://www.w3.org/2000/svg"
 width="248.000000pt" height="248.000000pt" viewBox="0 0 248.000000 248.000000"
 preserveAspectRatio="xMidYMid meet">
<metadata>
Created by potrace 1.10, written by Peter Selinger 2001-2011
</metadata>
<g transform="translate(0.000000,248.000000) scale(0.100000,-0.100000)"
fill="#000000" stroke="none">
<path d="M1355 2210 c-55 -4 -144 -8 -198 -9 -111 -1 -133 -9 -153 -54 -52
-116 -321 -415 -587 -652 -37 -33 -67 -65 -67 -72 0 -6 8 -21 18 -33 14 -18
25 -21 45 -16 33 8 124 83 258 213 58 57 110 103 115 103 6 0 30 -21 54 -46
25 -25 82 -71 126 -100 109 -72 112 -76 82 -113 -27 -34 -196 -186 -277 -250
-31 -24 -78 -65 -106 -91 -57 -54 -192 -146 -344 -235 -57 -33 -108 -67 -114
-76 -15 -23 -1 -66 24 -72 47 -12 386 198 539 334 41 37 117 104 169 150 51
46 108 95 125 109 18 14 47 42 65 62 l32 36 117 -55 c64 -30 164 -78 222 -105
58 -28 193 -82 300 -120 231 -82 254 -89 429 -134 124 -31 137 -33 158 -19 27
18 30 56 7 76 -8 7 -72 27 -142 45 -170 43 -196 51 -422 132 -107 38 -237 91
-289 117 -52 25 -116 55 -143 66 -61 24 -148 68 -148 74 0 3 43 56 96 118 187
217 312 450 302 564 -5 64 -42 71 -293 53z m185 -105 c0 -3 -17 -44 -38 -92
-48 -112 -120 -219 -240 -358 -53 -60 -97 -112 -99 -115 -2 -2 -10 0 -17 5 -7
6 -53 38 -102 71 -97 68 -184 141 -184 157 0 5 19 32 42 60 51 60 186 237 190
248 4 10 448 35 448 24z"/>
<path d="M1630 1004 c-8 -2 -152 -10 -320 -19 -168 -9 -323 -21 -345 -26 -22
-4 -82 -9 -133 -9 -51 0 -102 -5 -114 -11 -25 -13 -50 -72 -43 -102 6 -29 41
-352 56 -530 11 -122 15 -140 33 -152 16 -10 124 -15 472 -20 l451 -7 11 28
c6 16 16 54 21 84 6 30 26 132 46 225 19 94 44 235 54 314 21 163 16 206 -25
221 -24 9 -130 12 -164 4z m93 -146 c-14 -128 -38 -273 -72 -433 l-38 -180
-384 3 c-211 2 -385 5 -386 6 -1 1 -7 60 -13 131 -10 120 -33 329 -46 418 l-6
37 55 0 c30 0 76 4 103 9 27 5 141 15 254 21 113 6 252 15 310 19 58 5 133 9
167 10 l61 1 -5 -42z"/>
</g>
</svg>
