<?xml version="1.0" standalone="no"?>
<!DOCTYPE svg PUBLIC "-//W3C//DTD SVG 20010904//EN"
 "http://www.w3.org/TR/2001/REC-SVG-20010904/DTD/svg10.dtd">
<svg version="1.0" xmlns="http://www.w3.org/2000/svg"
 width="248.000000pt" height="248.000000pt" viewBox="0 0 248.000000 248.000000"
 preserveAspectRatio="xMidYMid meet">
<metadata>
Created by potrace 1.10, written by Peter Selinger 2001-2011
</metadata>
<g transform="translate(0.000000,248.000000) scale(0.100000,-0.100000)"
fill="#000000" stroke="none">
<path d="M1805 2103 c-85 -3 -324 -22 -430 -33 -49 -6 -187 -19 -305 -30 -234
-22 -488 -58 -507 -73 -19 -14 -16 -51 5 -70 23 -21 69 -21 159 -3 79 16 201
30 433 51 91 8 239 21 330 29 91 8 214 17 274 20 l108 5 -5 -47 c-6 -54 -95
-443 -103 -451 -2 -3 -60 -9 -127 -13 -67 -4 -185 -12 -262 -17 -77 -6 -232
-15 -345 -21 -426 -23 -444 -26 -438 -79 5 -42 40 -53 143 -46 50 3 162 10
250 16 88 5 230 14 315 19 85 6 223 14 307 19 222 14 248 24 263 99 5 20 31
138 59 262 51 225 63 328 39 347 -16 13 -82 19 -163 16z"/>
</g>
</svg>
