<?xml version="1.0" standalone="no"?>
<!DOCTYPE svg PUBLIC "-//W3C//DTD SVG 20010904//EN"
 "http://www.w3.org/TR/2001/REC-SVG-20010904/DTD/svg10.dtd">
<svg version="1.0" xmlns="http://www.w3.org/2000/svg"
 width="248.000000pt" height="248.000000pt" viewBox="0 0 248.000000 248.000000"
 preserveAspectRatio="xMidYMid meet">
<metadata>
Created by potrace 1.10, written by Peter Selinger 2001-2011
</metadata>
<g transform="translate(0.000000,248.000000) scale(0.100000,-0.100000)"
fill="#000000" stroke="none">
<path d="M2069 1736 c-2 -2 -60 -9 -129 -15 -69 -7 -208 -23 -310 -37 -269
-36 -602 -64 -780 -65 -244 -1 -446 -13 -464 -28 -21 -17 -20 -55 1 -72 13
-11 55 -13 192 -12 280 4 477 12 590 23 58 6 153 15 211 21 58 6 186 21 285
34 99 14 241 29 315 36 74 6 143 15 152 20 27 15 34 56 13 79 -16 17 -64 27
-76 16z"/>
</g>
</svg>
