<?xml version="1.0" standalone="no"?>
<!DOCTYPE svg PUBLIC "-//W3C//DTD SVG 20010904//EN"
 "http://www.w3.org/TR/2001/REC-SVG-20010904/DTD/svg10.dtd">
<svg version="1.0" xmlns="http://www.w3.org/2000/svg"
 width="248.000000pt" height="248.000000pt" viewBox="0 0 248.000000 248.000000"
 preserveAspectRatio="xMidYMid meet">
<metadata>
Created by potrace 1.10, written by Peter Selinger 2001-2011
</metadata>
<g transform="translate(0.000000,248.000000) scale(0.100000,-0.100000)"
fill="#000000" stroke="none">
<path d="M919 2143 c-8 -10 -26 -43 -39 -73 -25 -55 -60 -114 -163 -270 -55
-82 -75 -113 -140 -210 -17 -25 -47 -64 -68 -86 -20 -23 -48 -59 -62 -80 -13
-22 -81 -98 -151 -171 -126 -133 -144 -161 -114 -191 32 -32 61 -14 186 115
68 71 137 148 154 173 17 25 46 61 64 80 49 53 322 463 371 559 43 84 54 136
31 159 -17 17 -53 15 -69 -5z"/>
</g>
</svg>
