<?xml version="1.0" standalone="no"?>
<!DOCTYPE svg PUBLIC "-//W3C//DTD SVG 20010904//EN"
 "http://www.w3.org/TR/2001/REC-SVG-20010904/DTD/svg10.dtd">
<svg version="1.0" xmlns="http://www.w3.org/2000/svg"
 width="248.000000pt" height="248.000000pt" viewBox="0 0 248.000000 248.000000"
 preserveAspectRatio="xMidYMid meet">
<metadata>
Created by potrace 1.10, written by Peter Selinger 2001-2011
</metadata>
<g transform="translate(0.000000,248.000000) scale(0.100000,-0.100000)"
fill="#000000" stroke="none">
<path d="M803 2189 c-21 -22 -58 -69 -83 -104 -46 -65 -141 -188 -203 -260
-18 -22 -48 -62 -67 -89 -18 -26 -55 -78 -83 -115 -65 -86 -92 -146 -79 -175
5 -11 43 -50 83 -86 41 -36 106 -99 145 -140 l71 -75 -93 -140 c-52 -77 -113
-168 -136 -201 -24 -34 -51 -74 -61 -90 -10 -16 -40 -65 -67 -109 -77 -124
-66 -163 43 -151 116 12 297 63 607 172 116 40 126 42 137 26 7 -9 43 -59 80
-111 38 -52 78 -105 90 -118 37 -39 93 -26 93 22 0 11 -25 54 -55 95 -49 68
-86 122 -233 343 -47 69 -79 90 -111 70 -29 -18 -24 -52 18 -115 23 -34 41
-66 41 -73 0 -20 -591 -207 -606 -192 -2 2 4 15 15 28 10 13 33 49 51 79 18
30 57 89 87 130 30 41 132 193 228 337 174 264 244 362 284 397 31 28 81 119
81 148 0 61 -58 65 -98 7 -15 -22 -52 -70 -83 -107 -48 -57 -143 -191 -227
-318 l-23 -35 -122 117 c-67 64 -123 120 -125 124 -1 4 8 22 21 41 63 91 141
197 166 224 15 17 38 46 51 65 13 19 47 62 75 95 29 33 60 74 70 90 10 17 43
60 72 96 53 66 65 103 41 127 -23 23 -56 13 -95 -29z"/>
<path d="M1752 2108 c-7 -7 -12 -30 -12 -52 0 -45 -57 -465 -63 -467 -9 -2
-216 -31 -268 -37 -37 -4 -74 -14 -83 -21 -39 -33 -3 -91 57 -91 16 0 80 10
143 21 63 12 117 20 120 17 10 -10 -47 -242 -123 -498 -71 -242 -141 -438
-213 -596 -23 -51 -31 -79 -26 -98 8 -31 48 -45 73 -25 24 20 106 202 158 348
88 250 215 701 230 816 3 28 9 56 13 61 8 12 267 51 400 60 l92 7 0 -148 c0
-213 -37 -501 -85 -661 -38 -125 -89 -254 -127 -316 -34 -58 -67 -98 -79 -98
-5 0 -22 20 -39 45 -41 59 -64 71 -96 50 -33 -21 -30 -52 8 -106 87 -122 127
-137 197 -73 85 76 165 237 235 473 52 174 96 502 96 719 0 173 -10 206 -64
216 -47 9 -194 -2 -341 -25 -66 -10 -130 -19 -143 -19 -26 0 -27 -24 9 235 27
191 27 229 4 255 -20 22 -55 26 -73 8z"/>
</g>
</svg>
