<?xml version="1.0" standalone="no"?>
<!DOCTYPE svg PUBLIC "-//W3C//DTD SVG 20010904//EN"
 "http://www.w3.org/TR/2001/REC-SVG-20010904/DTD/svg10.dtd">
<svg version="1.0" xmlns="http://www.w3.org/2000/svg"
 width="248.000000pt" height="248.000000pt" viewBox="0 0 248.000000 248.000000"
 preserveAspectRatio="xMidYMid meet">
<metadata>
Created by potrace 1.10, written by Peter Selinger 2001-2011
</metadata>
<g transform="translate(0.000000,248.000000) scale(0.100000,-0.100000)"
fill="#000000" stroke="none">
<path d="M803 2189 c-21 -22 -58 -69 -83 -104 -46 -65 -141 -188 -203 -260
-18 -22 -48 -62 -67 -89 -18 -26 -55 -78 -83 -115 -58 -77 -91 -144 -82 -170
3 -10 36 -46 73 -78 37 -33 101 -95 142 -137 41 -43 94 -89 118 -103 40 -24
44 -24 67 -9 33 21 32 59 0 84 -14 11 -84 76 -156 146 -124 120 -129 126 -117
149 21 37 130 187 169 231 19 23 46 57 59 76 13 19 47 62 75 95 29 33 60 74
70 90 10 17 43 60 72 96 53 66 65 103 41 127 -23 23 -56 13 -95 -29z"/>
</g>
</svg>
