<?xml version="1.0" standalone="no"?>
<!DOCTYPE svg PUBLIC "-//W3C//DTD SVG 20010904//EN"
 "http://www.w3.org/TR/2001/REC-SVG-20010904/DTD/svg10.dtd">
<svg version="1.0" xmlns="http://www.w3.org/2000/svg"
 width="248.000000pt" height="248.000000pt" viewBox="0 0 248.000000 248.000000"
 preserveAspectRatio="xMidYMid meet">
<metadata>
Created by potrace 1.10, written by Peter Selinger 2001-2011
</metadata>
<g transform="translate(0.000000,248.000000) scale(0.100000,-0.100000)"
fill="#000000" stroke="none">
<path d="M803 2189 c-21 -22 -58 -69 -83 -104 -46 -65 -141 -188 -203 -260
-18 -22 -48 -62 -67 -89 -18 -26 -55 -78 -83 -115 -65 -86 -92 -146 -79 -175
5 -11 43 -50 83 -86 41 -36 106 -99 145 -140 l71 -75 -93 -140 c-52 -77 -113
-168 -136 -201 -24 -34 -51 -74 -61 -90 -10 -16 -40 -65 -67 -109 -77 -124
-66 -163 43 -151 76 7 256 53 387 96 360 121 390 134 390 174 0 33 -23 49 -62
43 -18 -3 -134 -40 -258 -82 -212 -72 -387 -121 -396 -112 -2 2 4 15 15 28 10
13 33 49 51 79 18 30 57 89 87 130 30 41 132 193 228 337 174 264 244 362 284
397 31 28 81 119 81 148 0 61 -58 65 -98 7 -15 -22 -52 -70 -83 -107 -48 -57
-143 -191 -227 -318 l-23 -35 -122 117 c-67 64 -123 120 -125 124 -1 4 8 22
21 41 63 91 141 197 166 224 15 17 38 46 51 65 13 19 47 62 75 95 29 33 60 74
70 90 10 17 43 60 72 96 53 66 65 103 41 127 -23 23 -56 13 -95 -29z"/>
</g>
</svg>
