<?xml version="1.0" standalone="no"?>
<!DOCTYPE svg PUBLIC "-//W3C//DTD SVG 20010904//EN"
 "http://www.w3.org/TR/2001/REC-SVG-20010904/DTD/svg10.dtd">
<svg version="1.0" xmlns="http://www.w3.org/2000/svg"
 width="248.000000pt" height="248.000000pt" viewBox="0 0 248.000000 248.000000"
 preserveAspectRatio="xMidYMid meet">
<metadata>
Created by potrace 1.10, written by Peter Selinger 2001-2011
</metadata>
<g transform="translate(0.000000,248.000000) scale(0.100000,-0.100000)"
fill="#000000" stroke="none">
<path d="M500 2350 c-17 -17 -20 -27 -13 -53 11 -42 7 -257 -5 -269 -9 -9 -93
-30 -212 -51 -36 -7 -71 -16 -77 -20 -18 -11 -16 -52 2 -67 19 -16 143 -8 229
14 l59 15 -6 -107 c-4 -59 -9 -124 -13 -144 -6 -35 -9 -37 -57 -48 -49 -10
-182 -35 -264 -49 -51 -9 -73 -26 -73 -56 0 -56 21 -56 330 0 80 14 153 24
163 23 15 -3 4 -26 -63 -138 -45 -74 -98 -157 -119 -185 -20 -27 -49 -68 -64
-91 -15 -22 -68 -88 -117 -145 -66 -76 -90 -111 -90 -131 0 -27 23 -48 53 -48
20 0 164 164 240 273 57 81 66 88 112 102 59 17 241 55 264 55 22 0 -116 -138
-159 -158 -28 -14 -35 -23 -35 -47 0 -25 6 -33 37 -47 26 -13 47 -34 67 -70
17 -29 27 -56 23 -60 -4 -3 -61 -22 -127 -41 -184 -54 -357 -115 -385 -135
-47 -35 -33 -99 19 -89 14 3 80 24 146 47 66 23 172 57 235 76 63 19 122 38
132 40 57 19 11 -339 -55 -431 -13 -17 -17 -16 -68 23 -30 23 -72 48 -93 57
-35 15 -40 15 -62 0 -13 -8 -24 -24 -24 -35 0 -23 33 -60 53 -60 7 0 45 -27
83 -60 102 -89 144 -79 210 51 53 105 66 167 73 338 l6 155 78 23 c81 25 93
36 83 78 -9 35 -43 40 -123 16 -81 -24 -83 -25 -83 -10 0 6 -16 38 -35 71
l-36 60 54 57 c29 31 66 74 82 96 16 22 44 57 62 78 54 60 38 116 -30 104 -96
-17 -314 -58 -329 -63 -26 -8 -22 11 11 59 15 23 47 79 69 124 23 45 46 84 52
88 6 4 95 14 198 22 103 9 193 20 200 26 20 15 14 55 -10 71 -19 12 -48 12
-176 4 -84 -6 -155 -8 -158 -5 -4 3 8 40 25 81 17 41 49 128 70 193 22 65 51
148 65 186 39 102 33 147 -21 147 -28 0 -36 -13 -76 -119 l-32 -85 -55 -19
c-30 -10 -76 -21 -103 -24 l-48 -6 1 104 c2 165 1 184 -12 201 -22 28 -55 31
-78 8z m250 -400 c0 -16 -79 -212 -103 -255 -17 -30 -30 -41 -51 -43 l-28 -4
7 139 c4 76 9 140 12 143 4 5 111 26 146 29 9 0 17 -3 17 -9z"/>
<path d="M1462 2318 c-7 -7 -12 -20 -12 -31 0 -65 -181 -502 -225 -543 -14
-13 -25 -33 -25 -44 0 -12 -18 -47 -40 -77 -44 -63 -52 -106 -21 -123 11 -5
25 -10 31 -10 15 0 53 42 95 105 38 58 31 56 265 86 47 6 102 13 123 16 32 5
37 3 37 -15 0 -51 -42 -217 -79 -317 -23 -60 -56 -149 -72 -197 -17 -49 -35
-88 -40 -88 -17 0 -92 83 -168 185 -124 166 -163 199 -199 163 -24 -24 -11
-59 46 -132 31 -40 84 -108 117 -151 33 -43 84 -100 114 -126 l54 -48 -19 -43
c-27 -62 -147 -240 -196 -295 -59 -63 -197 -166 -269 -199 -42 -19 -61 -35
-65 -51 -16 -63 31 -77 118 -35 72 33 210 134 273 198 44 44 180 236 211 296
9 18 18 35 20 37 2 2 70 -59 151 -136 289 -274 424 -378 572 -441 102 -44 141
-40 141 13 0 30 -21 45 -116 87 -137 61 -281 177 -581 471 -62 61 -113 116
-113 123 0 12 49 152 124 356 36 99 76 274 76 334 0 31 3 34 38 39 125 21 309
59 318 67 21 16 23 48 4 70 l-18 22 -93 -18 c-179 -34 -462 -81 -621 -101 -58
-7 -59 -2 -22 81 45 100 142 360 149 398 12 63 -44 113 -83 74z"/>
</g>
</svg>
