<?xml version="1.0" standalone="no"?>
<!DOCTYPE svg PUBLIC "-//W3C//DTD SVG 20010904//EN"
 "http://www.w3.org/TR/2001/REC-SVG-20010904/DTD/svg10.dtd">
<svg version="1.0" xmlns="http://www.w3.org/2000/svg"
 width="248.000000pt" height="248.000000pt" viewBox="0 0 248.000000 248.000000"
 preserveAspectRatio="xMidYMid meet">
<metadata>
Created by potrace 1.10, written by Peter Selinger 2001-2011
</metadata>
<g transform="translate(0.000000,248.000000) scale(0.100000,-0.100000)"
fill="#000000" stroke="none">
<path d="M500 2350 c-17 -17 -20 -27 -13 -53 11 -42 7 -257 -5 -269 -9 -9 -93
-30 -212 -51 -36 -7 -71 -16 -77 -20 -18 -11 -16 -52 2 -67 19 -15 143 -8 228
14 l57 14 0 -57 c0 -31 -5 -94 -10 -140 -12 -92 -8 -117 21 -126 58 -19 75 19
84 195 8 143 10 150 42 150 14 0 66 9 115 21 70 16 92 26 105 45 13 20 14 30
5 49 -14 31 -44 32 -130 5 -35 -11 -77 -20 -93 -20 l-29 0 0 143 c0 151 -5
169 -47 182 -15 4 -28 0 -43 -15z"/>
</g>
</svg>
