<?xml version="1.0" standalone="no"?>
<!DOCTYPE svg PUBLIC "-//W3C//DTD SVG 20010904//EN"
 "http://www.w3.org/TR/2001/REC-SVG-20010904/DTD/svg10.dtd">
<svg version="1.0" xmlns="http://www.w3.org/2000/svg"
 width="248.000000pt" height="248.000000pt" viewBox="0 0 248.000000 248.000000"
 preserveAspectRatio="xMidYMid meet">
<metadata>
Created by potrace 1.10, written by Peter Selinger 2001-2011
</metadata>
<g transform="translate(0.000000,248.000000) scale(0.100000,-0.100000)"
fill="#000000" stroke="none">
<path d="M1760 2174 c-80 -7 -174 -18 -210 -23 -36 -6 -114 -16 -175 -21 -165
-16 -317 -40 -333 -52 -22 -19 -10 -60 23 -78 l30 -17 -1 -114 c-2 -249 -94
-627 -196 -809 -17 -30 -57 -95 -89 -144 -60 -91 -70 -124 -45 -146 40 -32 83
8 183 176 112 186 186 412 227 688 1 8 5 18 8 21 7 7 222 42 273 44 102 4 414
44 452 58 48 17 54 28 132 226 52 130 60 174 39 195 -15 15 -123 14 -318 -4z
m184 -151 c-14 -38 -34 -91 -45 -119 -19 -51 -20 -52 -77 -62 -58 -11 -283
-37 -402 -47 -36 -3 -96 -10 -133 -16 -37 -6 -74 -8 -82 -5 -11 4 -13 29 -12
118 l2 113 70 11 c39 7 111 15 160 18 50 4 115 11 145 17 48 9 296 34 372 38
l28 1 -26 -67z"/>
<path d="M1722 1578 c-53 -50 -125 -114 -159 -141 -46 -36 -63 -55 -63 -73 0
-14 -6 -24 -14 -24 -8 0 -21 -3 -30 -6 -10 -4 -19 5 -29 28 -8 19 -28 50 -44
69 -16 19 -44 56 -62 82 -29 42 -37 48 -63 45 -63 -6 -62 -53 2 -133 86 -108
87 -114 10 -116 -57 -2 -90 -22 -90 -54 0 -41 34 -55 110 -45 36 5 181 25 322
44 141 19 266 40 277 45 40 22 37 77 -5 87 -13 3 -54 1 -91 -4 -37 -6 -88 -14
-113 -17 l-45 -6 90 83 c150 137 165 154 165 180 0 13 -5 29 -12 36 -28 28
-59 12 -156 -80z"/>
</g>
</svg>
