<?xml version="1.0" standalone="no"?>
<!DOCTYPE svg PUBLIC "-//W3C//DTD SVG 20010904//EN"
 "http://www.w3.org/TR/2001/REC-SVG-20010904/DTD/svg10.dtd">
<svg version="1.0" xmlns="http://www.w3.org/2000/svg"
 width="248.000000pt" height="248.000000pt" viewBox="0 0 248.000000 248.000000"
 preserveAspectRatio="xMidYMid meet">
<metadata>
Created by potrace 1.10, written by Peter Selinger 2001-2011
</metadata>
<g transform="translate(0.000000,248.000000) scale(0.100000,-0.100000)"
fill="#000000" stroke="none">
<path d="M1655 2129 c-22 -4 -119 -20 -215 -34 -96 -15 -192 -29 -212 -32 -59
-9 -62 -18 -59 -176 3 -201 -29 -384 -85 -486 -29 -53 -31 -87 -4 -101 57 -30
107 38 154 210 24 84 46 263 46 365 l0 92 38 6 c20 4 91 13 156 22 66 8 136
18 157 21 l37 6 -9 -48 c-31 -192 -41 -294 -36 -373 10 -150 68 -262 160 -310
92 -47 275 -31 332 29 23 24 28 40 32 97 6 76 -8 103 -51 103 -33 0 -46 -19
-46 -65 0 -68 -15 -79 -112 -83 -73 -3 -87 -1 -118 20 -100 67 -114 219 -53
586 17 107 13 139 -23 152 -28 11 -33 11 -89 -1z"/>
<path d="M805 1966 c-126 -27 -332 -84 -365 -100 -34 -16 -39 -59 -9 -79 24
-17 43 -16 153 14 38 10 71 17 73 16 1 -2 -1 -88 -5 -192 l-7 -188 -100 -29
c-55 -16 -111 -35 -125 -42 -30 -14 -38 -57 -15 -76 26 -22 70 -15 216 29 179
56 255 78 307 91 75 19 106 74 60 104 -21 13 -31 13 -103 -8 -44 -12 -90 -26
-103 -30 l-24 -8 4 192 c3 181 4 191 23 195 11 3 54 12 95 20 75 15 100 31
100 65 0 23 -32 50 -56 49 -10 -1 -64 -11 -119 -23z"/>
<path d="M1412 1698 c-16 -16 -15 -63 3 -97 24 -48 89 -93 127 -89 30 3 33 6
36 39 3 31 -2 40 -28 59 -17 12 -42 40 -56 61 -25 41 -58 51 -82 27z"/>
<path d="M761 1026 c-27 -32 -21 -125 23 -384 20 -117 40 -156 107 -211 102
-82 225 -131 475 -190 147 -34 264 -46 444 -46 197 1 227 19 237 147 9 126
-22 221 -89 271 -25 19 -28 19 -52 3 -33 -21 -33 -42 2 -91 25 -36 27 -48 27
-130 l0 -90 -110 -3 c-176 -5 -323 12 -506 58 -260 65 -409 151 -423 245 -4
22 -13 77 -21 122 -9 46 -18 124 -21 175 -4 52 -13 103 -20 116 -16 25 -55 29
-73 8z"/>
<path d="M456 868 c-9 -12 -16 -37 -16 -56 0 -80 -60 -308 -111 -421 -34 -76
-35 -83 -9 -106 25 -22 62 -14 84 19 43 66 121 331 136 463 7 63 6 82 -6 101
-19 29 -58 29 -78 0z"/>
</g>
</svg>
