<?xml version="1.0" standalone="no"?>
<!DOCTYPE svg PUBLIC "-//W3C//DTD SVG 20010904//EN"
 "http://www.w3.org/TR/2001/REC-SVG-20010904/DTD/svg10.dtd">
<svg version="1.0" xmlns="http://www.w3.org/2000/svg"
 width="248.000000pt" height="248.000000pt" viewBox="0 0 248.000000 248.000000"
 preserveAspectRatio="xMidYMid meet">
<metadata>
Created by potrace 1.10, written by Peter Selinger 2001-2011
</metadata>
<g transform="translate(0.000000,248.000000) scale(0.100000,-0.100000)"
fill="#000000" stroke="none">
<path d="M1760 2174 c-80 -7 -174 -18 -210 -23 -36 -6 -114 -16 -175 -21 -165
-16 -317 -40 -333 -52 -22 -19 -10 -60 23 -78 l30 -17 -1 -114 c-2 -249 -94
-627 -196 -809 -17 -30 -57 -95 -89 -144 -60 -91 -70 -124 -45 -146 40 -32 83
8 183 176 112 186 186 412 227 688 1 8 5 18 8 21 7 7 222 42 273 44 102 4 414
44 452 58 48 17 54 28 132 226 52 130 60 174 39 195 -15 15 -123 14 -318 -4z
m184 -151 c-14 -38 -34 -91 -45 -119 -19 -51 -20 -52 -77 -62 -58 -11 -283
-37 -402 -47 -36 -3 -96 -10 -133 -16 -37 -6 -74 -8 -82 -5 -11 4 -13 29 -12
118 l2 113 70 11 c39 7 111 15 160 18 50 4 115 11 145 17 48 9 296 34 372 38
l28 1 -26 -67z"/>
<path d="M290 2082 c-19 -15 -22 -24 -16 -48 10 -40 118 -143 188 -179 32 -17
58 -33 58 -37 0 -6 -38 -38 -84 -71 -45 -31 -29 -87 24 -87 28 0 103 48 163
103 66 61 50 94 -82 163 -65 35 -130 88 -183 153 -22 26 -39 26 -68 3z"/>
<path d="M1722 1578 c-53 -50 -125 -114 -159 -141 -46 -36 -63 -55 -63 -73 0
-14 -6 -24 -14 -24 -8 0 -21 -3 -30 -6 -10 -4 -19 5 -29 28 -8 19 -28 50 -44
69 -16 19 -44 56 -62 82 -29 42 -37 48 -63 45 -63 -6 -62 -53 2 -133 86 -108
87 -114 10 -116 -57 -2 -90 -22 -90 -54 0 -44 33 -55 125 -43 44 6 94 12 110
12 l30 1 0 -60 0 -60 -65 -13 c-226 -44 -240 -49 -240 -86 0 -49 41 -57 165
-32 39 8 85 17 103 20 l34 6 -4 -73 -3 -72 -118 -17 c-126 -17 -312 -55 -337
-67 -21 -11 -24 -55 -6 -70 20 -17 92 -11 283 24 84 15 159 25 168 21 14 -5
15 -27 12 -178 -3 -109 -1 -178 5 -185 17 -21 56 -15 73 10 11 18 15 60 16
191 l1 167 27 11 c21 8 307 12 490 6 56 -2 79 44 41 82 -16 16 -33 20 -73 19
-29 0 -127 0 -219 1 -93 1 -188 -2 -213 -6 l-45 -6 0 71 c0 87 -4 85 171 101
162 15 166 16 185 45 15 23 15 27 -1 51 -16 25 -21 26 -69 20 -43 -6 -130 -15
-256 -28 -23 -3 -25 1 -28 41 -6 87 -9 85 145 105 172 22 210 31 223 57 15 27
3 58 -25 65 -13 3 -55 1 -92 -4 -37 -6 -88 -14 -113 -17 l-45 -6 90 83 c150
137 165 154 165 180 0 13 -5 29 -12 36 -28 28 -59 12 -156 -80z"/>
</g>
</svg>
