<?xml version="1.0" standalone="no"?>
<!DOCTYPE svg PUBLIC "-//W3C//DTD SVG 20010904//EN"
 "http://www.w3.org/TR/2001/REC-SVG-20010904/DTD/svg10.dtd">
<svg version="1.0" xmlns="http://www.w3.org/2000/svg"
 width="248.000000pt" height="248.000000pt" viewBox="0 0 248.000000 248.000000"
 preserveAspectRatio="xMidYMid meet">
<metadata>
Created by potrace 1.10, written by Peter Selinger 2001-2011
</metadata>
<g transform="translate(0.000000,248.000000) scale(0.100000,-0.100000)"
fill="#000000" stroke="none">
<path d="M1760 2174 c-80 -7 -174 -18 -210 -23 -36 -6 -114 -16 -175 -21 -165
-16 -317 -40 -333 -52 -22 -19 -10 -60 23 -78 l30 -17 -1 -114 c-2 -249 -94
-627 -196 -809 -17 -30 -57 -95 -89 -144 -60 -91 -70 -124 -45 -146 40 -32 83
8 183 176 112 186 186 412 227 688 1 8 5 18 8 21 7 7 222 42 273 44 102 4 414
44 452 58 48 17 54 28 132 226 52 130 60 174 39 195 -15 15 -123 14 -318 -4z
m184 -151 c-14 -38 -34 -91 -45 -119 -19 -51 -20 -52 -77 -62 -58 -11 -283
-37 -402 -47 -36 -3 -96 -10 -133 -16 -37 -6 -74 -8 -82 -5 -11 4 -13 29 -12
118 l2 113 70 11 c39 7 111 15 160 18 50 4 115 11 145 17 48 9 296 34 372 38
l28 1 -26 -67z"/>
</g>
</svg>
