<?xml version="1.0" standalone="no"?>
<!DOCTYPE svg PUBLIC "-//W3C//DTD SVG 20010904//EN"
 "http://www.w3.org/TR/2001/REC-SVG-20010904/DTD/svg10.dtd">
<svg version="1.0" xmlns="http://www.w3.org/2000/svg"
 width="248.000000pt" height="248.000000pt" viewBox="0 0 248.000000 248.000000"
 preserveAspectRatio="xMidYMid meet">
<metadata>
Created by potrace 1.10, written by Peter Selinger 2001-2011
</metadata>
<g transform="translate(0.000000,248.000000) scale(0.100000,-0.100000)"
fill="#000000" stroke="none">
<path d="M1760 2174 c-80 -7 -174 -18 -210 -23 -36 -6 -114 -16 -175 -21 -163
-16 -317 -39 -332 -52 -16 -13 -17 -50 -1 -66 16 -16 87 -15 206 2 53 8 135
17 182 21 47 3 108 10 135 15 38 8 355 39 397 40 4 0 -4 -30 -18 -67 -14 -38
-34 -91 -45 -119 -19 -51 -20 -52 -77 -62 -58 -11 -283 -37 -402 -47 -57 -4
-123 -13 -236 -31 -36 -5 -58 -40 -43 -67 20 -34 43 -37 160 -18 63 10 132 19
154 20 102 4 414 44 452 58 48 17 54 28 132 226 52 130 60 174 39 195 -15 15
-123 14 -318 -4z"/>
</g>
</svg>
