<?xml version="1.0" standalone="no"?>
<!DOCTYPE svg PUBLIC "-//W3C//DTD SVG 20010904//EN"
 "http://www.w3.org/TR/2001/REC-SVG-20010904/DTD/svg10.dtd">
<svg version="1.0" xmlns="http://www.w3.org/2000/svg"
 width="248.000000pt" height="248.000000pt" viewBox="0 0 248.000000 248.000000"
 preserveAspectRatio="xMidYMid meet">
<metadata>
Created by potrace 1.10, written by Peter Selinger 2001-2011
</metadata>
<g transform="translate(0.000000,248.000000) scale(0.100000,-0.100000)"
fill="#000000" stroke="none">
<path d="M805 1966 c-126 -27 -332 -84 -365 -100 -34 -16 -39 -59 -9 -79 24
-17 43 -16 154 14 38 11 71 19 73 19 1 0 0 -71 -4 -158 -8 -186 -2 -247 28
-263 14 -8 27 -8 43 -1 30 14 34 43 37 270 3 174 4 183 23 187 11 3 54 12 95
20 75 15 100 31 100 65 0 23 -32 50 -56 49 -10 -1 -64 -11 -119 -23z"/>
</g>
</svg>
