<?xml version="1.0" standalone="no"?>
<!DOCTYPE svg PUBLIC "-//W3C//DTD SVG 20010904//EN"
 "http://www.w3.org/TR/2001/REC-SVG-20010904/DTD/svg10.dtd">
<svg version="1.0" xmlns="http://www.w3.org/2000/svg"
 width="248.000000pt" height="248.000000pt" viewBox="0 0 248.000000 248.000000"
 preserveAspectRatio="xMidYMid meet">
<metadata>
Created by potrace 1.10, written by Peter Selinger 2001-2011
</metadata>
<g transform="translate(0.000000,248.000000) scale(0.100000,-0.100000)"
fill="#000000" stroke="none">
<path d="M1760 2174 c-80 -7 -174 -18 -210 -23 -36 -6 -114 -16 -175 -21 -163
-16 -317 -39 -332 -52 -16 -13 -17 -50 -1 -66 16 -16 87 -15 206 2 53 8 135
17 182 21 47 3 108 10 135 15 52 10 396 42 401 38 4 -5 -84 -229 -96 -243 -15
-19 -9 -66 11 -78 29 -18 65 0 87 45 43 88 122 300 122 327 0 15 -5 32 -12 39
-15 15 -123 14 -318 -4z"/>
</g>
</svg>
