<?xml version="1.0" standalone="no"?>
<!DOCTYPE svg PUBLIC "-//W3C//DTD SVG 20010904//EN"
 "http://www.w3.org/TR/2001/REC-SVG-20010904/DTD/svg10.dtd">
<svg version="1.0" xmlns="http://www.w3.org/2000/svg"
 width="248.000000pt" height="248.000000pt" viewBox="0 0 248.000000 248.000000"
 preserveAspectRatio="xMidYMid meet">
<metadata>
Created by potrace 1.10, written by Peter Selinger 2001-2011
</metadata>
<g transform="translate(0.000000,248.000000) scale(0.100000,-0.100000)"
fill="#000000" stroke="none">
<path d="M805 1966 c-126 -27 -332 -84 -365 -100 -34 -16 -39 -59 -9 -79 24
-17 43 -16 153 14 38 10 71 17 73 16 1 -2 -1 -88 -5 -192 l-7 -188 -100 -29
c-55 -16 -111 -35 -125 -42 -30 -14 -38 -57 -15 -76 26 -22 70 -15 216 29 179
56 255 78 307 91 75 19 106 74 60 104 -21 13 -31 13 -103 -8 -44 -12 -90 -26
-103 -30 l-24 -8 4 192 c3 181 4 191 23 195 11 3 54 12 95 20 75 15 100 31
100 65 0 23 -32 50 -56 49 -10 -1 -64 -11 -119 -23z"/>
</g>
</svg>
