<?xml version="1.0" standalone="no"?>
<!DOCTYPE svg PUBLIC "-//W3C//DTD SVG 20010904//EN"
 "http://www.w3.org/TR/2001/REC-SVG-20010904/DTD/svg10.dtd">
<svg version="1.0" xmlns="http://www.w3.org/2000/svg"
 width="248.000000pt" height="248.000000pt" viewBox="0 0 248.000000 248.000000"
 preserveAspectRatio="xMidYMid meet">
<metadata>
Created by potrace 1.10, written by Peter Selinger 2001-2011
</metadata>
<g transform="translate(0.000000,248.000000) scale(0.100000,-0.100000)"
fill="#000000" stroke="none">
<path d="M1144 2350 c-8 -8 -10 -56 -6 -149 4 -110 2 -140 -9 -147 -19 -11
-190 -31 -343 -40 -106 -6 -132 -10 -148 -26 -24 -24 -23 -43 3 -69 20 -20 29
-21 98 -15 l77 6 14 -37 c18 -47 30 -414 15 -425 -5 -4 -22 -8 -36 -8 -15 0
-82 -9 -150 -20 -68 -12 -167 -28 -219 -36 -52 -9 -105 -22 -117 -30 -26 -17
-30 -55 -8 -74 15 -13 70 -16 101 -6 44 14 420 67 664 95 358 40 482 49 850
62 173 7 325 16 338 20 12 5 27 20 34 34 10 22 9 29 -9 46 -20 20 -24 21 -279
10 -143 -6 -298 -14 -346 -17 -60 -5 -88 -3 -88 4 0 6 7 43 15 81 18 87 45
300 45 357 l0 42 118 7 c140 8 188 19 202 46 28 52 -22 86 -104 70 -28 -6
-117 -15 -197 -21 -80 -6 -195 -17 -255 -25 -168 -22 -150 -34 -156 101 -4 94
-9 121 -25 142 -21 29 -61 40 -79 22z m383 -467 c-4 -65 -16 -158 -27 -208
-12 -49 -24 -106 -27 -127 l-5 -36 -81 -7 c-45 -3 -158 -15 -250 -26 -93 -10
-171 -19 -173 -19 -2 0 -4 42 -4 93 -1 111 -16 326 -25 349 -5 13 0 18 27 22
76 11 518 70 562 75 5 1 6 -48 3 -116z"/>
<path d="M1485 1205 c-11 -2 -112 -11 -225 -20 -300 -23 -390 -35 -437 -55
-53 -23 -73 -59 -51 -92 12 -19 16 -95 21 -426 4 -226 11 -411 17 -421 13 -25
42 -31 76 -16 33 15 176 30 437 46 160 10 180 10 196 -5 24 -22 54 -20 75 3
34 38 106 606 106 834 0 142 -4 147 -117 152 -43 2 -87 2 -98 0z m105 -244 c0
-77 -4 -142 -9 -145 -10 -7 -387 -43 -531 -51 -58 -3 -115 -8 -127 -11 l-23
-4 0 149 0 150 43 5 c117 15 483 44 560 45 l87 1 0 -139z m-20 -283 c0 -24
-37 -287 -45 -323 -3 -16 -13 -20 -47 -22 -50 -2 -330 -20 -469 -29 l-96 -7
-6 78 c-4 43 -7 122 -7 176 l0 97 98 7 c53 4 176 15 272 25 96 10 203 18 238
19 58 1 62 0 62 -21z"/>
</g>
</svg>
