<?xml version="1.0" standalone="no"?>
<!DOCTYPE svg PUBLIC "-//W3C//DTD SVG 20010904//EN"
 "http://www.w3.org/TR/2001/REC-SVG-20010904/DTD/svg10.dtd">
<svg version="1.0" xmlns="http://www.w3.org/2000/svg"
 width="248.000000pt" height="248.000000pt" viewBox="0 0 248.000000 248.000000"
 preserveAspectRatio="xMidYMid meet">
<metadata>
Created by potrace 1.10, written by Peter Selinger 2001-2011
</metadata>
<g transform="translate(0.000000,248.000000) scale(0.100000,-0.100000)"
fill="#000000" stroke="none">
<path d="M1144 2350 c-8 -8 -10 -56 -6 -149 4 -110 2 -140 -9 -147 -19 -11
-190 -31 -343 -40 -106 -6 -132 -10 -148 -26 -24 -24 -23 -43 3 -69 20 -20 29
-21 98 -15 l77 6 13 -32 c9 -22 15 -94 18 -218 5 -201 12 -230 58 -230 41 0
55 34 55 130 -1 106 -16 319 -25 342 -8 20 -45 13 380 68 83 11 165 22 184 24
l34 5 -6 -117 c-4 -64 -16 -157 -27 -207 -34 -145 -34 -154 -15 -175 24 -27
61 -25 79 3 25 39 76 349 76 463 l0 42 118 7 c140 8 188 19 202 46 28 52 -22
86 -104 70 -28 -6 -117 -15 -197 -21 -80 -6 -195 -17 -255 -25 -168 -22 -150
-34 -156 101 -4 94 -9 121 -25 142 -21 29 -61 40 -79 22z"/>
</g>
</svg>
