<?xml version="1.0" standalone="no"?>
<!DOCTYPE svg PUBLIC "-//W3C//DTD SVG 20010904//EN"
 "http://www.w3.org/TR/2001/REC-SVG-20010904/DTD/svg10.dtd">
<svg version="1.0" xmlns="http://www.w3.org/2000/svg"
 width="248.000000pt" height="248.000000pt" viewBox="0 0 248.000000 248.000000"
 preserveAspectRatio="xMidYMid meet">
<metadata>
Created by potrace 1.10, written by Peter Selinger 2001-2011
</metadata>
<g transform="translate(0.000000,248.000000) scale(0.100000,-0.100000)"
fill="#000000" stroke="none">
<path d="M1415 2339 c-189 -7 -499 -31 -575 -46 -19 -3 -80 -7 -135 -9 -55 -1
-106 -3 -113 -3 -7 -1 -17 -12 -24 -26 -9 -19 -8 -29 5 -48 9 -14 23 -76 32
-138 8 -63 22 -152 30 -199 8 -47 22 -143 30 -215 26 -217 41 -303 55 -320 11
-13 27 -16 79 -12 251 17 411 29 506 38 100 10 343 19 502 19 58 0 66 3 102
35 44 40 72 106 126 300 19 66 44 152 56 190 37 119 79 287 85 345 5 43 3 58
-9 68 -33 28 -340 37 -752 21z m593 -95 c34 -3 62 -10 62 -14 0 -44 -56 -247
-71 -256 -6 -3 -115 -10 -243 -15 -127 -5 -265 -13 -306 -18 -41 -5 -78 -7
-82 -5 -4 3 -8 72 -8 155 0 135 2 149 18 150 177 13 507 14 630 3z m-743 -58
c8 -53 3 -252 -7 -261 -11 -12 -146 -23 -344 -31 l-181 -7 -16 109 c-9 60 -18
127 -19 149 l-3 40 40 1 c35 1 327 28 410 38 17 1 49 4 72 5 l42 1 6 -44z
m705 -322 c0 -3 -16 -63 -35 -132 -41 -145 -71 -226 -91 -243 -14 -12 -483
-31 -496 -20 -7 6 6 348 14 356 19 19 608 57 608 39z m-710 -105 c0 -74 -21
-293 -28 -301 -4 -3 -88 -12 -187 -18 -277 -18 -250 -20 -253 15 -1 17 -9 71
-17 120 -8 50 -15 117 -17 150 -3 59 -3 60 27 66 17 4 95 8 175 9 80 1 177 5
215 9 39 4 73 5 78 3 4 -2 7 -26 7 -53z"/>
<path d="M1915 1109 c-38 -4 -137 -12 -220 -18 -82 -6 -179 -15 -215 -21 -77
-12 -516 -41 -715 -47 -77 -3 -146 -9 -152 -15 -22 -18 -15 -56 13 -75 24 -15
41 -16 218 -5 105 7 277 17 381 22 105 5 222 14 260 20 39 5 129 14 200 20 72
5 158 12 193 16 60 5 62 5 62 -18 0 -42 -95 -319 -150 -437 -63 -133 -199
-341 -224 -341 -7 0 -44 20 -80 45 -69 46 -102 55 -124 33 -17 -17 -15 -52 6
-70 9 -9 50 -39 91 -67 104 -71 131 -70 200 4 89 98 219 328 282 499 90 241
129 418 98 443 -23 18 -50 20 -124 12z"/>
</g>
</svg>
