<?xml version="1.0" standalone="no"?>
<!DOCTYPE svg PUBLIC "-//W3C//DTD SVG 20010904//EN"
 "http://www.w3.org/TR/2001/REC-SVG-20010904/DTD/svg10.dtd">
<svg version="1.0" xmlns="http://www.w3.org/2000/svg"
 width="248.000000pt" height="248.000000pt" viewBox="0 0 248.000000 248.000000"
 preserveAspectRatio="xMidYMid meet">
<metadata>
Created by potrace 1.10, written by Peter Selinger 2001-2011
</metadata>
<g transform="translate(0.000000,248.000000) scale(0.100000,-0.100000)"
fill="#000000" stroke="none">
<path d="M1415 2339 c-189 -7 -499 -31 -575 -46 -19 -3 -80 -7 -135 -9 -55 -1
-106 -3 -113 -3 -7 -1 -17 -12 -24 -26 -9 -19 -8 -29 5 -48 9 -14 23 -76 32
-138 8 -63 22 -152 30 -199 8 -47 22 -143 30 -215 22 -185 40 -299 49 -313 12
-20 63 -14 79 8 10 15 12 32 6 68 -18 105 -39 260 -41 312 -3 53 -2 55 27 61
17 4 93 7 170 9 77 1 175 5 219 9 64 5 79 4 84 -8 3 -8 0 -94 -8 -193 -14
-196 -11 -212 39 -206 41 5 50 40 60 237 4 100 10 184 13 186 19 19 608 57
608 39 0 -20 -75 -270 -97 -322 -21 -52 -24 -67 -15 -88 13 -27 61 -34 81 -11
17 21 59 140 96 271 18 67 44 153 56 191 37 119 79 287 85 345 5 43 3 58 -9
68 -33 28 -340 37 -752 21z m593 -95 c34 -3 62 -10 62 -14 0 -44 -56 -247 -71
-256 -6 -3 -115 -10 -243 -15 -127 -5 -265 -13 -306 -18 -41 -5 -78 -7 -82 -5
-4 3 -8 72 -8 155 0 135 2 149 18 150 177 13 507 14 630 3z m-743 -58 c8 -53
3 -252 -7 -261 -11 -12 -146 -23 -344 -31 l-181 -7 -16 109 c-9 60 -18 127
-19 149 l-3 40 40 1 c35 1 327 28 410 38 17 1 49 4 72 5 l42 1 6 -44z"/>
</g>
</svg>
