<?xml version="1.0" standalone="no"?>
<!DOCTYPE svg PUBLIC "-//W3C//DTD SVG 20010904//EN"
 "http://www.w3.org/TR/2001/REC-SVG-20010904/DTD/svg10.dtd">
<svg version="1.0" xmlns="http://www.w3.org/2000/svg"
 width="248.000000pt" height="248.000000pt" viewBox="0 0 248.000000 248.000000"
 preserveAspectRatio="xMidYMid meet">
<metadata>
Created by potrace 1.10, written by Peter Selinger 2001-2011
</metadata>
<g transform="translate(0.000000,248.000000) scale(0.100000,-0.100000)"
fill="#000000" stroke="none">
<path d="M600 2224 c-15 -17 -7 -102 30 -324 11 -63 26 -173 35 -245 22 -185
40 -299 49 -313 12 -20 63 -14 79 8 11 15 12 32 7 63 -5 23 -15 94 -23 157 -9
63 -25 183 -37 265 -12 83 -29 197 -36 255 -8 57 -21 114 -29 127 -18 27 -56
30 -75 7z"/>
</g>
</svg>
