<?xml version="1.0" standalone="no"?>
<!DOCTYPE svg PUBLIC "-//W3C//DTD SVG 20010904//EN"
 "http://www.w3.org/TR/2001/REC-SVG-20010904/DTD/svg10.dtd">
<svg version="1.0" xmlns="http://www.w3.org/2000/svg"
 width="248.000000pt" height="248.000000pt" viewBox="0 0 248.000000 248.000000"
 preserveAspectRatio="xMidYMid meet">
<metadata>
Created by potrace 1.10, written by Peter Selinger 2001-2011
</metadata>
<g transform="translate(0.000000,248.000000) scale(0.100000,-0.100000)"
fill="#000000" stroke="none">
<path d="M1774 2424 c-6 -3 -47 -51 -90 -107 -43 -56 -129 -151 -191 -212 -62
-60 -113 -118 -113 -128 0 -33 20 -57 47 -57 20 0 54 28 147 123 125 126 276
309 276 333 0 32 -46 60 -76 48z"/>
<path d="M752 2308 c-7 -7 -12 -20 -12 -31 0 -32 175 -312 207 -331 9 -5 25
-4 39 3 42 19 32 66 -35 163 -32 47 -67 100 -76 119 -38 74 -92 108 -123 77z"/>
</g>
</svg>
