<?xml version="1.0" standalone="no"?>
<!DOCTYPE svg PUBLIC "-//W3C//DTD SVG 20010904//EN"
 "http://www.w3.org/TR/2001/REC-SVG-20010904/DTD/svg10.dtd">
<svg version="1.0" xmlns="http://www.w3.org/2000/svg"
 width="248.000000pt" height="248.000000pt" viewBox="0 0 248.000000 248.000000"
 preserveAspectRatio="xMidYMid meet">
<metadata>
Created by potrace 1.10, written by Peter Selinger 2001-2011
</metadata>
<g transform="translate(0.000000,248.000000) scale(0.100000,-0.100000)"
fill="#000000" stroke="none">
<path d="M1774 2424 c-6 -3 -47 -51 -90 -107 -43 -56 -129 -151 -191 -212 -90
-88 -113 -116 -113 -137 0 -24 -4 -28 -27 -28 -16 0 -116 -7 -223 -15 -107 -9
-264 -20 -348 -25 -160 -9 -182 -16 -182 -55 0 -44 18 -48 193 -41 207 9 617
40 867 66 107 11 198 20 203 20 19 0 -130 -235 -178 -280 -20 -19 -40 -24
-127 -30 -57 -5 -152 -13 -213 -19 -151 -14 -603 -45 -640 -43 -68 3 -104 -25
-90 -68 12 -37 35 -40 211 -26 93 8 255 19 359 26 164 9 313 22 405 35 14 2
47 4 73 4 43 1 52 5 88 44 73 76 232 325 250 391 7 24 6 42 -1 55 -11 22 -44
36 -61 25 -12 -7 -348 -43 -408 -44 l-35 0 100 103 c110 114 254 292 254 313
0 32 -46 60 -76 48z"/>
<path d="M752 2308 c-7 -7 -12 -20 -12 -31 0 -32 175 -312 207 -331 9 -5 25
-4 39 3 42 19 32 66 -35 163 -32 47 -67 100 -76 119 -38 74 -92 108 -123 77z"/>
</g>
</svg>
