<?xml version="1.0" standalone="no"?>
<!DOCTYPE svg PUBLIC "-//W3C//DTD SVG 20010904//EN"
 "http://www.w3.org/TR/2001/REC-SVG-20010904/DTD/svg10.dtd">
<svg version="1.0" xmlns="http://www.w3.org/2000/svg"
 width="248.000000pt" height="248.000000pt" viewBox="0 0 248.000000 248.000000"
 preserveAspectRatio="xMidYMid meet">
<metadata>
Created by potrace 1.10, written by Peter Selinger 2001-2011
</metadata>
<g transform="translate(0.000000,248.000000) scale(0.100000,-0.100000)"
fill="#000000" stroke="none">
<path d="M1774 2424 c-6 -3 -47 -51 -90 -107 -43 -56 -129 -151 -191 -212 -90
-88 -113 -116 -113 -137 0 -24 -4 -28 -27 -28 -16 0 -116 -7 -223 -15 -107 -9
-264 -20 -348 -25 -160 -9 -182 -16 -182 -55 0 -51 20 -52 434 -28 l109 6 -7
-128 c-4 -70 -10 -133 -12 -140 -5 -11 -336 -40 -424 -37 -75 3 -93 -11 -160
-123 -64 -109 -110 -173 -198 -275 -54 -63 -64 -97 -37 -120 9 -7 28 -10 48
-7 17 3 84 15 147 26 63 11 185 27 270 36 85 8 185 19 223 23 46 6 67 5 67 -2
0 -6 -16 -37 -35 -69 -19 -32 -35 -60 -35 -63 0 -16 -106 -142 -189 -224 -78
-77 -239 -207 -368 -295 -32 -22 -31 -67 1 -85 22 -11 30 -10 73 15 96 56 295
218 400 326 83 85 102 109 160 198 l43 65 -1 -189 c0 -105 -4 -284 -9 -400 -9
-231 -4 -258 41 -263 47 -6 51 12 56 240 2 117 5 276 7 353 1 77 4 196 5 265
0 69 5 131 10 139 6 9 59 17 187 27 99 7 231 18 294 23 260 22 350 24 350 9 0
-76 -223 -536 -285 -588 -12 -10 -23 -7 -62 18 -91 58 -178 95 -205 89 -53
-14 -44 -69 16 -99 22 -11 79 -43 126 -71 131 -79 164 -70 253 65 61 94 86
141 164 312 116 257 135 385 56 388 -47 1 -466 -25 -648 -41 -219 -19 -243
-20 -249 -4 -3 8 -3 61 1 119 7 122 9 124 113 124 32 0 92 4 132 9 119 16 161
20 206 20 37 1 48 7 83 44 73 76 232 325 250 391 7 24 6 42 -1 55 -11 22 -44
36 -61 25 -12 -7 -348 -43 -408 -44 l-35 0 100 103 c110 114 254 292 254 313
0 32 -46 60 -76 48z m65 -591 c-45 -80 -124 -195 -154 -223 -20 -19 -40 -24
-127 -30 -57 -5 -149 -13 -206 -20 -56 -6 -108 -8 -114 -4 -8 5 -9 45 -4 133
7 146 10 151 95 152 31 0 153 11 271 23 118 13 228 24 243 25 l28 1 -32 -57z
m-721 -515 l-3 -123 -45 -6 c-25 -4 -119 -14 -210 -24 -174 -17 -293 -31 -348
-41 l-33 -6 63 93 c35 52 77 117 95 146 20 33 40 54 55 57 37 8 246 23 341 24
l88 2 -3 -122z"/>
<path d="M752 2308 c-7 -7 -12 -20 -12 -31 0 -32 175 -312 207 -331 9 -5 25
-4 39 3 42 19 32 66 -35 163 -32 47 -67 100 -76 119 -38 74 -92 108 -123 77z"/>
</g>
</svg>
