<?xml version="1.0" standalone="no"?>
<!DOCTYPE svg PUBLIC "-//W3C//DTD SVG 20010904//EN"
 "http://www.w3.org/TR/2001/REC-SVG-20010904/DTD/svg10.dtd">
<svg version="1.0" xmlns="http://www.w3.org/2000/svg"
 width="248.000000pt" height="248.000000pt" viewBox="0 0 248.000000 248.000000"
 preserveAspectRatio="xMidYMid meet">
<metadata>
Created by potrace 1.10, written by Peter Selinger 2001-2011
</metadata>
<g transform="translate(0.000000,248.000000) scale(0.100000,-0.100000)"
fill="#000000" stroke="none">
<path d="M600 2320 c-27 -27 -25 -38 11 -96 109 -172 122 -185 163 -166 42 19
33 55 -39 166 -82 126 -96 135 -135 96z"/>
<path d="M850 1943 c-25 -2 -94 -10 -155 -18 -190 -26 -396 -45 -420 -39 -16
4 -30 -1 -44 -15 -26 -26 -27 -45 -1 -71 26 -26 91 -26 305 0 88 11 235 27
327 34 92 8 176 20 187 25 26 14 35 45 21 71 -10 18 -19 20 -93 18 -45 -1
-102 -3 -127 -5z"/>
<path d="M628 1596 c-75 -12 -144 -29 -153 -36 -24 -20 -15 -62 16 -77 21 -10
42 -10 106 1 44 8 113 18 154 21 85 8 119 25 119 59 0 56 -54 63 -242 32z"/>
<path d="M645 1339 c-88 -15 -161 -28 -162 -29 -10 -2 -23 -45 -18 -60 13 -40
37 -42 192 -15 202 35 206 37 217 68 8 21 6 31 -9 47 -22 25 -23 25 -220 -11z"/>
<path d="M605 1030 c-33 -4 -97 -10 -142 -15 -46 -4 -88 -14 -94 -21 -12 -14
-12 -408 0 -615 7 -138 17 -162 60 -157 47 6 50 25 44 368 l-6 317 29 6 c16 4
105 10 198 13 l169 7 -7 -64 c-8 -79 -13 -148 -21 -264 -3 -49 -11 -146 -17
-214 -11 -122 -11 -125 10 -142 25 -20 58 -15 72 11 5 9 14 46 19 81 11 67 44
516 44 584 0 58 -25 101 -64 109 -39 7 -213 5 -294 -4z"/>
</g>
</svg>
