<?xml version="1.0" standalone="no"?>
<!DOCTYPE svg PUBLIC "-//W3C//DTD SVG 20010904//EN"
 "http://www.w3.org/TR/2001/REC-SVG-20010904/DTD/svg10.dtd">
<svg version="1.0" xmlns="http://www.w3.org/2000/svg"
 width="248.000000pt" height="248.000000pt" viewBox="0 0 248.000000 248.000000"
 preserveAspectRatio="xMidYMid meet">
<metadata>
Created by potrace 1.10, written by Peter Selinger 2001-2011
</metadata>
<g transform="translate(0.000000,248.000000) scale(0.100000,-0.100000)"
fill="#000000" stroke="none">
<path d="M1185 2356 c-14 -21 -14 -38 -5 -132 6 -60 10 -161 8 -224 l-3 -115
-100 -12 c-55 -6 -163 -17 -240 -23 -77 -6 -151 -17 -165 -23 -35 -17 -39 -61
-7 -82 27 -17 8 -18 369 16 71 7 131 10 134 6 12 -12 -60 -393 -80 -426 -3 -5
-52 -14 -108 -20 -159 -18 -267 -32 -334 -42 -33 -5 -103 -9 -155 -9 -105 0
-139 -13 -139 -55 0 -47 37 -59 158 -51 59 4 139 11 177 15 39 4 137 16 218
25 82 10 151 16 153 13 14 -14 -95 -305 -161 -432 -172 -327 -306 -480 -478
-546 -44 -17 -59 -28 -64 -47 -26 -104 147 -60 299 75 99 88 159 163 239 298
122 205 189 354 256 575 l30 95 134 13 c74 7 190 19 259 27 69 8 195 21 280
30 227 23 289 32 305 45 22 18 19 67 -4 80 -19 9 -172 -2 -391 -29 -41 -5
-124 -14 -185 -21 -60 -6 -168 -17 -240 -24 -71 -8 -132 -12 -134 -10 -2 2 6
43 18 91 12 48 30 146 42 218 11 71 22 132 24 134 3 2 64 10 137 17 369 38
409 49 394 107 -8 35 -33 40 -134 28 -114 -13 -374 -41 -387 -41 -6 0 -9 33
-6 87 5 114 -17 341 -35 371 -19 30 -59 29 -79 -2z"/>
</g>
</svg>
