<?xml version="1.0" standalone="no"?>
<!DOCTYPE svg PUBLIC "-//W3C//DTD SVG 20010904//EN"
 "http://www.w3.org/TR/2001/REC-SVG-20010904/DTD/svg10.dtd">
<svg version="1.0" xmlns="http://www.w3.org/2000/svg"
 width="248.000000pt" height="248.000000pt" viewBox="0 0 248.000000 248.000000"
 preserveAspectRatio="xMidYMid meet">
<metadata>
Created by potrace 1.10, written by Peter Selinger 2001-2011
</metadata>
<g transform="translate(0.000000,248.000000) scale(0.100000,-0.100000)"
fill="#000000" stroke="none">
<path d="M647 2202 c-10 -10 -17 -21 -17 -25 0 -35 -215 -289 -389 -460 -49
-48 -92 -99 -95 -113 -8 -30 16 -64 45 -64 9 0 71 53 137 118 300 295 443 497
390 550 -18 18 -53 15 -71 -6z"/>
<path d="M1412 2208 c-22 -22 -13 -62 51 -218 l63 -155 33 0 c45 0 59 22 44
72 -22 76 -103 276 -119 294 -19 22 -54 25 -72 7z"/>
<path d="M2070 1778 c-47 -4 -159 -11 -250 -17 -222 -13 -367 -28 -540 -57
-80 -13 -168 -24 -195 -24 -64 0 -99 -18 -103 -52 -6 -52 68 -72 185 -48 185
37 333 54 593 70 402 24 450 33 450 84 0 45 -27 54 -140 44z"/>
<path d="M723 1698 c-6 -7 -21 -33 -33 -58 -29 -57 -133 -214 -174 -261 -17
-20 -58 -69 -91 -109 -33 -40 -118 -134 -188 -209 -126 -133 -149 -169 -130
-200 19 -30 61 -25 96 11 18 18 83 87 146 152 l113 120 -6 -520 c-8 -572 -8
-569 49 -569 22 0 33 7 42 25 8 18 13 189 18 614 l6 589 33 41 c50 62 161 230
187 283 20 42 21 49 8 72 -16 29 -60 40 -76 19z"/>
</g>
</svg>
