<?xml version="1.0" standalone="no"?>
<!DOCTYPE svg PUBLIC "-//W3C//DTD SVG 20010904//EN"
 "http://www.w3.org/TR/2001/REC-SVG-20010904/DTD/svg10.dtd">
<svg version="1.0" xmlns="http://www.w3.org/2000/svg"
 width="248.000000pt" height="248.000000pt" viewBox="0 0 248.000000 248.000000"
 preserveAspectRatio="xMidYMid meet">
<metadata>
Created by potrace 1.10, written by Peter Selinger 2001-2011
</metadata>
<g transform="translate(0.000000,248.000000) scale(0.100000,-0.100000)"
fill="#000000" stroke="none">
<path d="M1199 2323 c-13 -15 -18 -71 -19 -234 l0 -66 -79 -6 c-43 -3 -121
-13 -172 -21 -87 -13 -296 -40 -397 -50 -51 -5 -72 -20 -72 -51 0 -65 74 -66
440 -8 98 15 195 25 430 43 74 6 173 15 220 19 47 5 135 14 195 20 61 6 125
13 142 16 37 7 57 35 48 66 -11 33 -48 40 -154 29 -53 -5 -159 -17 -236 -25
-77 -8 -166 -15 -197 -15 l-58 0 0 128 c0 99 -3 132 -16 150 -18 26 -56 29
-75 5z"/>
</g>
</svg>
