<?xml version="1.0" standalone="no"?>
<!DOCTYPE svg PUBLIC "-//W3C//DTD SVG 20010904//EN"
 "http://www.w3.org/TR/2001/REC-SVG-20010904/DTD/svg10.dtd">
<svg version="1.0" xmlns="http://www.w3.org/2000/svg"
 width="248.000000pt" height="248.000000pt" viewBox="0 0 248.000000 248.000000"
 preserveAspectRatio="xMidYMid meet">
<metadata>
Created by potrace 1.10, written by Peter Selinger 2001-2011
</metadata>
<g transform="translate(0.000000,248.000000) scale(0.100000,-0.100000)"
fill="#000000" stroke="none">
<path d="M1199 2323 c-13 -15 -18 -71 -19 -234 l0 -66 -77 -6 c-43 -3 -123
-13 -178 -21 -196 -29 -331 -46 -370 -46 -23 0 -61 -10 -85 -22 l-45 -23 -6
-200 c-8 -219 -32 -427 -80 -690 -30 -166 -97 -456 -125 -545 -98 -312 -98
-312 -36 -318 43 -4 56 19 108 196 128 432 226 977 241 1343 l6 146 136 17
c75 10 179 25 231 33 98 15 195 25 430 43 74 6 173 15 220 19 47 5 135 14 195
20 61 6 125 13 142 16 37 7 57 35 48 66 -11 33 -48 40 -154 29 -53 -5 -159
-17 -236 -25 -77 -8 -166 -15 -197 -15 l-58 0 0 128 c0 99 -3 132 -16 150 -18
26 -56 29 -75 5z"/>
</g>
</svg>
