<?xml version="1.0" standalone="no"?>
<!DOCTYPE svg PUBLIC "-//W3C//DTD SVG 20010904//EN"
 "http://www.w3.org/TR/2001/REC-SVG-20010904/DTD/svg10.dtd">
<svg version="1.0" xmlns="http://www.w3.org/2000/svg"
 width="248.000000pt" height="248.000000pt" viewBox="0 0 248.000000 248.000000"
 preserveAspectRatio="xMidYMid meet">
<metadata>
Created by potrace 1.10, written by Peter Selinger 2001-2011
</metadata>
<g transform="translate(0.000000,248.000000) scale(0.100000,-0.100000)"
fill="#000000" stroke="none">
<path d="M1735 2284 c-38 -7 -131 -20 -205 -29 -74 -8 -207 -24 -295 -35 -255
-32 -330 -40 -497 -54 -165 -14 -188 -21 -188 -62 0 -44 38 -57 143 -50 133 9
424 43 460 52 16 5 17 -20 17 -425 l0 -429 -27 -6 c-16 -2 -66 -10 -113 -16
-355 -47 -370 -51 -370 -95 0 -49 54 -59 195 -36 133 22 296 43 300 39 7 -7
-14 -738 -23 -808 l-7 -55 -210 -7 c-249 -7 -565 -26 -653 -38 -74 -10 -94
-24 -90 -59 5 -42 37 -50 168 -41 63 5 214 14 335 20 121 6 231 13 245 17 14
3 326 8 693 12 647 6 669 7 683 25 18 25 18 37 0 62 -14 18 -33 19 -537 22
l-522 3 7 72 c3 39 10 231 15 425 6 194 13 357 16 362 3 6 17 10 31 10 13 0
63 7 111 15 49 8 149 19 225 23 87 5 142 13 152 21 24 20 20 58 -9 77 -38 25
-215 13 -472 -31 l-33 -6 0 429 0 429 73 11 c39 7 137 19 216 27 79 8 146 17
150 19 3 3 42 9 86 15 84 12 115 30 115 66 0 48 -51 56 -185 29z"/>
</g>
</svg>
