<?xml version="1.0" standalone="no"?>
<!DOCTYPE svg PUBLIC "-//W3C//DTD SVG 20010904//EN"
 "http://www.w3.org/TR/2001/REC-SVG-20010904/DTD/svg10.dtd">
<svg version="1.0" xmlns="http://www.w3.org/2000/svg"
 width="248.000000pt" height="248.000000pt" viewBox="0 0 248.000000 248.000000"
 preserveAspectRatio="xMidYMid meet">
<metadata>
Created by potrace 1.10, written by Peter Selinger 2001-2011
</metadata>
<g transform="translate(0.000000,248.000000) scale(0.100000,-0.100000)"
fill="#000000" stroke="none">
<path d="M1735 2284 c-38 -7 -131 -20 -205 -29 -74 -8 -207 -24 -295 -35 -255
-32 -330 -40 -497 -54 -165 -14 -188 -21 -188 -62 0 -44 38 -57 143 -50 102 7
215 19 387 41 167 22 254 32 454 55 98 11 182 22 185 24 3 3 42 9 86 15 84 12
115 30 115 66 0 48 -51 56 -185 29z"/>
</g>
</svg>
