<?xml version="1.0" standalone="no"?>
<!DOCTYPE svg PUBLIC "-//W3C//DTD SVG 20010904//EN"
 "http://www.w3.org/TR/2001/REC-SVG-20010904/DTD/svg10.dtd">
<svg version="1.0" xmlns="http://www.w3.org/2000/svg"
 width="248.000000pt" height="248.000000pt" viewBox="0 0 248.000000 248.000000"
 preserveAspectRatio="xMidYMid meet">
<metadata>
Created by potrace 1.10, written by Peter Selinger 2001-2011
</metadata>
<g transform="translate(0.000000,248.000000) scale(0.100000,-0.100000)"
fill="#000000" stroke="none">
<path d="M1735 2284 c-38 -7 -131 -20 -205 -29 -74 -8 -207 -24 -295 -35 -255
-32 -330 -40 -497 -54 -165 -14 -188 -21 -188 -62 0 -44 38 -57 143 -50 133 9
424 43 460 52 16 5 17 -20 17 -425 l0 -429 -27 -6 c-16 -2 -66 -10 -113 -16
-355 -47 -370 -51 -370 -95 0 -50 52 -59 200 -35 128 20 268 40 284 40 15 0
16 -25 11 -277 -3 -153 -10 -344 -16 -425 -9 -119 -8 -152 3 -175 16 -33 58
-43 78 -18 19 22 39 284 40 505 0 233 10 401 24 405 43 12 254 37 363 43 83 5
137 13 147 21 24 20 20 58 -9 77 -38 25 -215 13 -472 -31 l-33 -6 0 429 0 429
73 11 c39 7 137 19 216 27 79 8 146 17 150 19 3 3 42 9 86 15 84 12 115 30
115 66 0 48 -51 56 -185 29z"/>
</g>
</svg>
