<?xml version="1.0" standalone="no"?>
<!DOCTYPE svg PUBLIC "-//W3C//DTD SVG 20010904//EN"
 "http://www.w3.org/TR/2001/REC-SVG-20010904/DTD/svg10.dtd">
<svg version="1.0" xmlns="http://www.w3.org/2000/svg"
 width="248.000000pt" height="248.000000pt" viewBox="0 0 248.000000 248.000000"
 preserveAspectRatio="xMidYMid meet">
<metadata>
Created by potrace 1.10, written by Peter Selinger 2001-2011
</metadata>
<g transform="translate(0.000000,248.000000) scale(0.100000,-0.100000)"
fill="#000000" stroke="none">
<path d="M1735 2284 c-38 -7 -131 -20 -205 -29 -74 -8 -207 -24 -295 -35 -255
-32 -330 -40 -497 -54 -165 -14 -188 -21 -188 -62 0 -44 38 -57 143 -50 135 9
424 43 460 53 18 5 19 -15 13 -544 -5 -541 -19 -1086 -31 -1213 -7 -77 7 -113
46 -118 38 -5 51 19 61 116 14 139 29 684 35 1248 l5 522 71 11 c40 6 137 18
216 26 79 8 146 17 150 19 3 3 42 9 86 15 84 12 115 30 115 66 0 48 -51 56
-185 29z"/>
</g>
</svg>
