<?xml version="1.0" standalone="no"?>
<!DOCTYPE svg PUBLIC "-//W3C//DTD SVG 20010904//EN"
 "http://www.w3.org/TR/2001/REC-SVG-20010904/DTD/svg10.dtd">
<svg version="1.0" xmlns="http://www.w3.org/2000/svg"
 width="248.000000pt" height="248.000000pt" viewBox="0 0 248.000000 248.000000"
 preserveAspectRatio="xMidYMid meet">
<metadata>
Created by potrace 1.10, written by Peter Selinger 2001-2011
</metadata>
<g transform="translate(0.000000,248.000000) scale(0.100000,-0.100000)"
fill="#000000" stroke="none">
<path d="M546 2358 c-13 -18 -16 -55 -17 -183 -1 -88 -4 -193 -8 -234 l-6 -74
-50 -13 c-27 -7 -75 -16 -105 -20 -102 -12 -190 -32 -206 -45 -22 -18 -14 -62
16 -76 27 -13 139 0 279 32 35 8 67 13 70 10 8 -8 7 -1392 -1 -1400 -4 -4 -37
18 -73 49 -66 56 -99 68 -123 44 -27 -27 -13 -60 53 -122 36 -33 83 -86 103
-116 30 -43 45 -56 68 -58 82 -8 89 70 88 965 l-2 671 117 22 c155 29 181 41
181 78 0 54 -17 58 -150 34 -65 -12 -125 -22 -134 -22 -13 0 -15 25 -9 214 5
191 4 218 -11 240 -21 33 -59 34 -80 4z"/>
</g>
</svg>
