<?xml version="1.0" standalone="no"?>
<!DOCTYPE svg PUBLIC "-//W3C//DTD SVG 20010904//EN"
 "http://www.w3.org/TR/2001/REC-SVG-20010904/DTD/svg10.dtd">
<svg version="1.0" xmlns="http://www.w3.org/2000/svg"
 width="248.000000pt" height="248.000000pt" viewBox="0 0 248.000000 248.000000"
 preserveAspectRatio="xMidYMid meet">
<metadata>
Created by potrace 1.10, written by Peter Selinger 2001-2011
</metadata>
<g transform="translate(0.000000,248.000000) scale(0.100000,-0.100000)"
fill="#000000" stroke="none">
<path d="M1749 2046 c-2 -2 -78 -14 -169 -25 -232 -30 -667 -61 -846 -61 -157
0 -174 -4 -174 -45 0 -43 13 -45 250 -45 376 0 997 60 1046 101 17 14 18 51 2
67 -11 11 -99 17 -109 8z"/>
<path d="M1763 1802 c-6 -4 -50 -63 -98 -132 -48 -69 -125 -163 -171 -210 -93
-94 -107 -130 -59 -152 21 -9 30 -7 65 17 23 16 65 54 94 86 56 60 236 312
243 341 5 18 -29 58 -49 58 -7 0 -18 -4 -25 -8z"/>
<path d="M572 1668 c-19 -19 -14 -51 17 -119 56 -126 111 -257 111 -267 0 -17
38 -34 61 -27 11 4 24 18 30 32 7 20 0 47 -42 146 -28 67 -59 139 -67 161 -32
77 -77 107 -110 74z"/>
<path d="M1706 1253 c-257 -15 -583 -40 -756 -58 -74 -7 -209 -21 -300 -30
-364 -36 -380 -40 -380 -89 0 -44 20 -49 132 -37 826 87 1532 140 1685 126 69
-6 72 -6 88 19 16 24 16 28 1 50 -15 24 -21 25 -142 28 -69 2 -217 -2 -328 -9z"/>
</g>
</svg>
