<?xml version="1.0" standalone="no"?>
<!DOCTYPE svg PUBLIC "-//W3C//DTD SVG 20010904//EN"
 "http://www.w3.org/TR/2001/REC-SVG-20010904/DTD/svg10.dtd">
<svg version="1.0" xmlns="http://www.w3.org/2000/svg"
 width="248.000000pt" height="248.000000pt" viewBox="0 0 248.000000 248.000000"
 preserveAspectRatio="xMidYMid meet">
<metadata>
Created by potrace 1.10, written by Peter Selinger 2001-2011
</metadata>
<g transform="translate(0.000000,248.000000) scale(0.100000,-0.100000)"
fill="#000000" stroke="none">
<path d="M1980 2159 c-25 -4 -112 -8 -195 -8 -82 -1 -260 -10 -395 -20 -135
-11 -306 -22 -380 -25 -222 -10 -572 -47 -598 -62 -25 -16 -29 -55 -7 -74 11
-9 46 -9 157 0 79 6 150 13 158 15 8 3 139 11 290 20 151 8 357 22 458 30 101
8 263 17 360 21 222 6 241 9 251 37 11 31 3 53 -25 66 -14 6 -26 10 -27 10 -1
-1 -22 -5 -47 -10z"/>
</g>
</svg>
