<?xml version="1.0" standalone="no"?>
<!DOCTYPE svg PUBLIC "-//W3C//DTD SVG 20010904//EN"
 "http://www.w3.org/TR/2001/REC-SVG-20010904/DTD/svg10.dtd">
<svg version="1.0" xmlns="http://www.w3.org/2000/svg"
 width="248.000000pt" height="248.000000pt" viewBox="0 0 248.000000 248.000000"
 preserveAspectRatio="xMidYMid meet">
<metadata>
Created by potrace 1.10, written by Peter Selinger 2001-2011
</metadata>
<g transform="translate(0.000000,248.000000) scale(0.100000,-0.100000)"
fill="#000000" stroke="none">
<path d="M1605 2396 c-10 -14 -30 -76 -45 -137 -16 -61 -30 -112 -32 -114 -7
-8 -395 -34 -533 -37 l-139 -3 -23 104 c-28 127 -48 166 -87 166 -49 0 -52
-21 -23 -141 15 -60 27 -116 27 -125 0 -20 -19 -24 -190 -40 -135 -12 -170
-25 -170 -63 0 -45 17 -49 166 -37 75 7 156 14 179 18 l42 5 12 -48 c7 -27 16
-85 21 -128 6 -59 13 -83 26 -93 25 -18 41 -16 64 7 25 25 25 59 2 173 -10 48
-16 90 -13 92 3 1 97 8 207 15 111 6 244 15 295 19 52 4 96 6 98 4 3 -2 -12
-44 -32 -94 -42 -102 -44 -119 -19 -142 23 -21 46 -22 63 -1 15 19 54 109 78
182 10 29 21 56 27 62 5 5 97 12 204 15 241 7 259 10 269 38 20 53 -17 79 -94
66 -28 -4 -117 -8 -199 -8 l-148 -1 5 23 c3 12 16 64 28 115 26 103 22 125
-24 130 -19 2 -30 -4 -42 -22z"/>
<path d="M489 1649 c-11 -11 -18 -27 -15 -36 3 -8 6 -18 6 -23 0 -4 27 -25 61
-46 33 -22 80 -54 105 -71 67 -49 114 -41 114 19 0 30 1 29 -151 128 -42 28
-82 50 -88 50 -6 0 -20 -9 -32 -21z"/>
</g>
</svg>
