<?xml version="1.0" standalone="no"?>
<!DOCTYPE svg PUBLIC "-//W3C//DTD SVG 20010904//EN"
 "http://www.w3.org/TR/2001/REC-SVG-20010904/DTD/svg10.dtd">
<svg version="1.0" xmlns="http://www.w3.org/2000/svg"
 width="248.000000pt" height="248.000000pt" viewBox="0 0 248.000000 248.000000"
 preserveAspectRatio="xMidYMid meet">
<metadata>
Created by potrace 1.10, written by Peter Selinger 2001-2011
</metadata>
<g transform="translate(0.000000,248.000000) scale(0.100000,-0.100000)"
fill="#000000" stroke="none">
<path d="M710 2366 c-14 -17 -12 -28 21 -168 13 -54 20 -100 17 -103 -3 -4
-78 -14 -166 -24 -166 -17 -192 -26 -192 -66 0 -44 18 -48 166 -36 75 7 156
14 179 18 l42 5 12 -48 c7 -27 16 -85 21 -128 6 -59 13 -83 26 -93 25 -18 41
-16 64 7 25 25 25 59 2 173 -10 48 -16 90 -13 92 3 1 62 6 131 10 69 3 240 15
380 26 140 10 334 21 430 25 220 6 239 9 249 37 20 53 -17 79 -94 66 -28 -4
-117 -8 -198 -8 -81 -1 -261 -10 -400 -21 -139 -11 -315 -21 -392 -22 l-139
-3 -23 104 c-12 57 -31 118 -41 135 -20 35 -61 46 -82 22z"/>
</g>
</svg>
