<?xml version="1.0" standalone="no"?>
<!DOCTYPE svg PUBLIC "-//W3C//DTD SVG 20010904//EN"
 "http://www.w3.org/TR/2001/REC-SVG-20010904/DTD/svg10.dtd">
<svg version="1.0" xmlns="http://www.w3.org/2000/svg"
 width="248.000000pt" height="248.000000pt" viewBox="0 0 248.000000 248.000000"
 preserveAspectRatio="xMidYMid meet">
<metadata>
Created by potrace 1.10, written by Peter Selinger 2001-2011
</metadata>
<g transform="translate(0.000000,248.000000) scale(0.100000,-0.100000)"
fill="#000000" stroke="none">
<path d="M1510 2374 c-312 -38 -638 -74 -730 -81 -47 -3 -95 -12 -107 -19 -30
-19 -30 -58 -1 -78 28 -20 66 -20 199 -2 57 8 146 18 197 22 l92 7 0 -61 c0
-70 7 -65 -135 -81 -50 -6 -181 -24 -291 -40 -111 -16 -263 -33 -337 -37 -182
-9 -172 3 -163 -205 3 -95 11 -173 19 -188 17 -35 59 -40 81 -9 14 20 16 42
10 154 l-7 131 33 6 c18 4 52 7 75 7 23 0 121 12 216 26 215 32 456 63 487 64
22 0 22 -1 23 -167 1 -185 9 -277 26 -294 15 -15 61 -15 76 0 9 9 11 76 8 246
l-3 234 24 5 c12 3 109 14 213 26 105 12 242 28 305 35 164 21 370 30 370 18
0 -14 -34 -58 -102 -130 -32 -34 -58 -70 -58 -82 0 -24 43 -56 62 -45 76 45
208 204 224 271 10 39 -4 70 -38 84 -43 18 -253 16 -408 -5 -63 -8 -144 -17
-180 -21 -63 -5 -143 -15 -298 -35 -127 -17 -122 -19 -122 49 l0 58 73 11 c39
6 146 19 237 28 183 18 214 27 218 65 7 60 -36 65 -288 33z"/>
</g>
</svg>
