<?xml version="1.0" standalone="no"?>
<!DOCTYPE svg PUBLIC "-//W3C//DTD SVG 20010904//EN"
 "http://www.w3.org/TR/2001/REC-SVG-20010904/DTD/svg10.dtd">
<svg version="1.0" xmlns="http://www.w3.org/2000/svg"
 width="248.000000pt" height="248.000000pt" viewBox="0 0 248.000000 248.000000"
 preserveAspectRatio="xMidYMid meet">
<metadata>
Created by potrace 1.10, written by Peter Selinger 2001-2011
</metadata>
<g transform="translate(0.000000,248.000000) scale(0.100000,-0.100000)"
fill="#000000" stroke="none">
<path d="M582 2288 c-7 -7 -12 -22 -12 -34 0 -36 113 -130 225 -187 28 -14 56
-35 63 -46 27 -45 102 -13 102 44 0 33 -3 35 -101 86 -55 29 -125 75 -155 101
-56 49 -97 61 -122 36z"/>
<path d="M1399 1984 c-15 -18 -35 -190 -49 -429 -5 -93 -17 -271 -25 -395 -17
-263 -19 -495 -5 -571 5 -30 26 -86 45 -126 53 -107 124 -152 325 -205 88 -23
296 -29 372 -10 127 31 283 133 298 194 10 38 -6 226 -20 243 -15 18 -61 20
-77 4 -8 -8 -10 -45 -6 -118 l6 -107 -36 -27 c-20 -15 -69 -42 -109 -59 -63
-27 -88 -32 -182 -36 -66 -3 -137 0 -180 8 -100 18 -225 67 -262 104 -59 59
-104 241 -90 370 14 135 25 289 31 431 4 83 9 153 11 156 1 3 6 73 10 155 3
82 12 195 18 252 14 113 13 147 -5 168 -15 19 -53 18 -70 -2z"/>
<path d="M979 1755 c-33 -18 -156 -49 -344 -87 -239 -48 -306 -60 -364 -62
-75 -3 -104 -43 -61 -86 23 -23 70 -26 147 -10 232 48 516 100 520 97 6 -7
-236 -365 -272 -401 -17 -17 -43 -50 -59 -73 -30 -44 -81 -94 -244 -238 -105
-93 -119 -116 -86 -149 8 -9 21 -16 28 -16 20 0 85 46 146 104 30 29 85 78
123 110 l67 58 1 -139 c1 -76 1 -141 1 -144 -1 -4 -6 -99 -11 -211 -6 -113
-13 -213 -17 -222 -18 -47 32 -100 74 -77 40 21 45 76 58 561 4 129 8 236 9
238 2 2 41 -16 86 -39 95 -48 204 -89 234 -89 44 0 61 53 28 82 -10 8 -45 25
-78 38 -65 25 -275 129 -275 136 0 2 51 77 113 166 62 90 124 181 137 203 13
22 50 76 82 119 32 44 58 85 58 93 0 19 -37 53 -57 53 -10 -1 -29 -7 -44 -15z"/>
</g>
</svg>
