<?xml version="1.0" standalone="no"?>
<!DOCTYPE svg PUBLIC "-//W3C//DTD SVG 20010904//EN"
 "http://www.w3.org/TR/2001/REC-SVG-20010904/DTD/svg10.dtd">
<svg version="1.0" xmlns="http://www.w3.org/2000/svg"
 width="248.000000pt" height="248.000000pt" viewBox="0 0 248.000000 248.000000"
 preserveAspectRatio="xMidYMid meet">
<metadata>
Created by potrace 1.10, written by Peter Selinger 2001-2011
</metadata>
<g transform="translate(0.000000,248.000000) scale(0.100000,-0.100000)"
fill="#000000" stroke="none">
<path d="M582 2288 c-7 -7 -12 -22 -12 -34 0 -36 113 -130 225 -187 28 -14 56
-35 63 -46 27 -45 102 -13 102 44 0 33 -3 35 -101 86 -55 29 -125 75 -155 101
-56 49 -97 61 -122 36z"/>
<path d="M979 1755 c-33 -18 -156 -49 -344 -87 -239 -48 -306 -60 -364 -62
-75 -3 -104 -43 -61 -86 23 -23 70 -26 147 -10 232 48 516 100 520 97 6 -7
-236 -365 -272 -401 -17 -17 -43 -50 -59 -73 -30 -44 -81 -94 -244 -238 -105
-93 -119 -116 -86 -149 8 -9 21 -16 28 -16 20 0 85 46 146 104 30 29 85 78
123 110 l67 58 1 -139 c1 -76 1 -141 1 -144 -1 -4 -6 -99 -11 -211 -6 -113
-13 -213 -17 -222 -17 -44 25 -94 67 -81 48 15 58 120 64 637 l4 298 69 97
c38 54 99 143 135 198 36 55 92 136 123 179 68 95 72 108 45 135 -24 24 -46
26 -82 6z"/>
</g>
</svg>
