<?xml version="1.0" standalone="no"?>
<!DOCTYPE svg PUBLIC "-//W3C//DTD SVG 20010904//EN"
 "http://www.w3.org/TR/2001/REC-SVG-20010904/DTD/svg10.dtd">
<svg version="1.0" xmlns="http://www.w3.org/2000/svg"
 width="248.000000pt" height="248.000000pt" viewBox="0 0 248.000000 248.000000"
 preserveAspectRatio="xMidYMid meet">
<metadata>
Created by potrace 1.10, written by Peter Selinger 2001-2011
</metadata>
<g transform="translate(0.000000,248.000000) scale(0.100000,-0.100000)"
fill="#000000" stroke="none">
<path d="M582 2288 c-7 -7 -12 -22 -12 -34 0 -36 113 -130 225 -187 28 -14 56
-35 63 -46 27 -45 102 -13 102 44 0 33 -3 35 -101 86 -55 29 -125 75 -155 101
-56 49 -97 61 -122 36z"/>
<path d="M979 1755 c-33 -18 -156 -49 -344 -87 -239 -48 -306 -60 -364 -62
-75 -3 -104 -43 -61 -86 23 -23 70 -26 147 -10 232 48 516 100 520 97 6 -7
-236 -365 -272 -401 -17 -17 -43 -50 -59 -73 -30 -44 -81 -94 -244 -238 -105
-93 -119 -116 -86 -149 8 -9 21 -16 28 -16 20 0 85 46 146 104 30 29 85 78
123 110 l67 58 1 -139 c1 -76 1 -141 1 -144 -1 -4 -6 -99 -11 -211 -6 -113
-13 -213 -17 -222 -17 -44 25 -94 67 -81 45 15 52 73 65 569 4 127 8 232 9
234 2 2 41 -16 86 -39 95 -48 204 -89 234 -89 44 0 61 53 28 82 -10 8 -45 25
-78 38 -65 25 -275 129 -275 136 0 2 51 77 113 166 62 90 124 181 137 203 13
22 50 76 82 119 32 44 58 85 58 93 0 19 -37 53 -57 53 -10 -1 -29 -7 -44 -15z"/>
</g>
</svg>
