<?xml version="1.0" standalone="no"?>
<!DOCTYPE svg PUBLIC "-//W3C//DTD SVG 20010904//EN"
 "http://www.w3.org/TR/2001/REC-SVG-20010904/DTD/svg10.dtd">
<svg version="1.0" xmlns="http://www.w3.org/2000/svg"
 width="248.000000pt" height="248.000000pt" viewBox="0 0 248.000000 248.000000"
 preserveAspectRatio="xMidYMid meet">
<metadata>
Created by potrace 1.10, written by Peter Selinger 2001-2011
</metadata>
<g transform="translate(0.000000,248.000000) scale(0.100000,-0.100000)"
fill="#000000" stroke="none">
<path d="M1510 2374 c-312 -38 -638 -74 -730 -81 -47 -3 -95 -12 -107 -19 -30
-19 -30 -58 -1 -78 28 -20 66 -20 199 -2 57 8 146 18 197 22 l92 7 0 -61 c0
-70 7 -65 -135 -81 -50 -6 -181 -24 -291 -40 -111 -16 -263 -33 -337 -37 -182
-9 -172 3 -163 -205 3 -95 11 -173 19 -188 17 -35 59 -40 81 -9 14 20 16 42
10 154 l-7 131 33 6 c18 4 52 7 75 7 23 0 121 12 216 26 215 32 456 63 487 64
22 0 22 -1 23 -167 0 -93 4 -194 8 -227 7 -53 5 -61 -16 -82 -13 -13 -23 -34
-23 -47 0 -62 -232 -301 -499 -512 -35 -27 -104 -83 -155 -123 -50 -40 -129
-99 -176 -130 -87 -59 -105 -86 -80 -118 24 -28 66 -15 156 46 49 33 133 94
186 137 53 43 125 101 159 128 173 138 352 305 428 400 31 39 61 71 66 73 6 1
34 -17 64 -40 29 -24 117 -85 195 -136 77 -51 160 -105 182 -120 23 -15 61
-39 85 -54 48 -30 145 -93 231 -150 31 -21 75 -45 98 -54 23 -9 75 -36 116
-59 40 -23 95 -48 120 -55 42 -12 47 -11 66 8 15 14 19 27 14 45 -5 20 -39 41
-188 116 -101 50 -201 104 -223 120 -22 16 -71 49 -110 73 -98 63 -322 209
-435 284 -52 35 -117 86 -145 113 -47 49 -48 51 -30 65 19 14 20 26 17 250
l-4 235 24 5 c12 3 109 14 213 26 105 12 242 28 305 35 164 21 370 30 370 18
0 -14 -34 -58 -102 -130 -32 -34 -58 -70 -58 -82 0 -24 43 -56 62 -45 76 45
208 204 224 271 10 39 -4 70 -38 84 -43 18 -253 16 -408 -5 -63 -8 -144 -17
-180 -21 -63 -5 -143 -15 -298 -35 -127 -17 -122 -19 -122 49 l0 58 73 11 c39
6 146 19 237 28 183 18 214 27 218 65 7 60 -36 65 -288 33z"/>
<path d="M1492 1898 c-17 -17 -15 -53 6 -69 9 -8 35 -24 57 -35 22 -12 79 -42
126 -68 89 -48 117 -54 137 -34 18 18 15 63 -5 80 -30 26 -261 138 -286 138
-13 0 -28 -5 -35 -12z"/>
<path d="M582 1838 c-28 -28 -5 -78 43 -91 11 -2 84 -23 162 -46 78 -23 150
-41 160 -41 25 0 43 19 43 45 0 41 -23 53 -240 115 -114 33 -150 36 -168 18z"/>
<path d="M1460 1627 c-18 -9 -25 -21 -25 -42 0 -26 7 -33 65 -63 36 -19 90
-49 120 -67 146 -87 187 -98 211 -54 18 34 0 57 -74 97 -40 21 -108 59 -152
84 -100 56 -114 61 -145 45z"/>
<path d="M580 1597 c-18 -9 -25 -21 -25 -42 0 -25 8 -34 60 -64 67 -39 194
-91 241 -98 62 -10 73 55 16 94 -18 12 -56 29 -85 39 -29 9 -72 29 -97 44 -60
37 -80 42 -110 27z"/>
<path d="M1122 1118 c-19 -19 -14 -53 11 -75 34 -31 281 -163 304 -163 28 0
45 23 41 57 -3 24 -21 37 -152 110 -148 82 -181 94 -204 71z"/>
<path d="M1650 795 c-27 -8 -329 -26 -611 -38 -298 -13 -313 -17 -307 -66 6
-51 33 -55 317 -42 252 12 395 21 560 36 52 4 82 4 80 -2 -6 -15 -216 -203
-279 -250 -30 -22 -70 -48 -88 -57 l-33 -17 -69 70 c-54 55 -75 71 -98 71 -33
0 -52 -16 -52 -44 0 -12 44 -65 106 -130 59 -61 140 -145 180 -187 41 -42 85
-80 99 -83 37 -9 65 9 65 44 0 23 -12 39 -54 75 -29 26 -63 60 -75 76 l-21 29
42 26 c73 46 187 144 316 269 104 102 122 125 122 151 0 56 -19 69 -107 71
-43 1 -85 0 -93 -2z"/>
</g>
</svg>
