<?xml version="1.0" standalone="no"?>
<!DOCTYPE svg PUBLIC "-//W3C//DTD SVG 20010904//EN"
 "http://www.w3.org/TR/2001/REC-SVG-20010904/DTD/svg10.dtd">
<svg version="1.0" xmlns="http://www.w3.org/2000/svg"
 width="248.000000pt" height="248.000000pt" viewBox="0 0 248.000000 248.000000"
 preserveAspectRatio="xMidYMid meet">
<metadata>
Created by potrace 1.10, written by Peter Selinger 2001-2011
</metadata>
<g transform="translate(0.000000,248.000000) scale(0.100000,-0.100000)"
fill="#000000" stroke="none">
<path d="M1510 2374 c-312 -38 -638 -74 -730 -81 -95 -6 -130 -21 -130 -58 0
-51 60 -65 185 -45 33 5 134 16 225 25 91 8 208 22 260 30 52 8 169 22 260 31
183 17 214 27 218 65 7 60 -36 65 -288 33z"/>
<path d="M240 1975 c-17 -20 -6 -325 13 -364 17 -37 60 -40 82 -7 15 22 15 43
7 186 -8 130 -13 165 -28 181 -21 23 -57 25 -74 4z"/>
</g>
</svg>
