<?xml version="1.0" standalone="no"?>
<!DOCTYPE svg PUBLIC "-//W3C//DTD SVG 20010904//EN"
 "http://www.w3.org/TR/2001/REC-SVG-20010904/DTD/svg10.dtd">
<svg version="1.0" xmlns="http://www.w3.org/2000/svg"
 width="248.000000pt" height="248.000000pt" viewBox="0 0 248.000000 248.000000"
 preserveAspectRatio="xMidYMid meet">
<metadata>
Created by potrace 1.10, written by Peter Selinger 2001-2011
</metadata>
<g transform="translate(0.000000,248.000000) scale(0.100000,-0.100000)"
fill="#000000" stroke="none">
<path d="M1591 2376 c-6 -8 -14 -69 -17 -142 -4 -71 -9 -132 -13 -135 -11 -11
-267 -39 -299 -33 -23 5 -35 1 -51 -15 -25 -25 -26 -40 -7 -67 12 -16 25 -19
93 -17 43 2 118 8 167 14 55 7 92 7 97 2 6 -6 9 -50 7 -99 l-3 -89 -130 -17
c-71 -9 -166 -20 -210 -24 -44 -4 -88 -11 -97 -15 -22 -12 -31 -44 -19 -68 6
-10 15 -63 21 -117 6 -55 15 -126 21 -159 5 -33 16 -106 23 -162 7 -56 19
-109 26 -118 14 -17 43 -20 69 -6 19 10 202 33 209 26 3 -3 -6 -22 -20 -43
-14 -20 -35 -56 -46 -79 -47 -92 -228 -318 -327 -408 -152 -139 -195 -181
-195 -192 0 -6 8 -21 18 -33 14 -17 25 -21 43 -17 26 7 220 171 283 240 59 64
238 307 268 365 27 50 55 72 44 35 -7 -26 -16 -233 -21 -536 -3 -147 -10 -279
-15 -293 -17 -43 -12 -72 14 -89 28 -18 58 -9 75 23 5 10 12 126 15 257 10
382 22 625 33 625 7 0 179 -183 233 -249 140 -169 304 -305 453 -377 83 -40
88 -40 112 -14 33 37 13 66 -76 111 -125 63 -185 108 -304 232 -184 192 -415
449 -415 461 0 3 21 8 48 11 26 3 92 13 146 21 58 9 121 12 152 8 33 -4 60 -2
74 6 47 25 103 191 141 420 26 159 25 195 -6 216 -13 8 -32 13 -42 10 -10 -3
-84 -8 -165 -11 -81 -4 -187 -13 -235 -20 -49 -7 -92 -10 -96 -6 -4 4 -7 48
-5 97 l3 88 30 7 c17 4 71 13 120 20 50 6 121 18 158 25 38 8 83 14 102 14 24
0 39 7 54 26 25 32 26 47 4 69 -19 19 -25 19 -233 -18 -197 -34 -228 -37 -233
-23 -2 6 -2 64 1 128 5 127 -1 148 -43 148 -12 0 -28 -6 -34 -14z m525 -714
c-7 -40 -15 -74 -18 -77 -6 -7 -314 -35 -380 -35 l-58 0 0 69 c0 41 5 73 11
77 18 11 265 41 354 43 44 1 82 4 84 7 15 15 18 -20 7 -84z m-554 -47 c-2 -39
-9 -73 -15 -77 -7 -4 -28 -8 -47 -8 -19 0 -82 -7 -139 -15 -59 -8 -109 -11
-114 -6 -9 9 -29 133 -22 139 6 7 270 40 305 39 l35 -2 -3 -70z m510 -169 c-2
-16 -13 -54 -26 -85 -25 -63 -36 -68 -132 -70 -33 -1 -85 -5 -115 -10 -30 -5
-75 -12 -101 -15 l-48 -6 0 85 c0 79 2 86 23 95 12 5 94 14 182 20 88 7 161
13 162 14 1 1 15 2 30 1 25 0 28 -4 25 -29z m-516 -98 c-4 -46 -11 -86 -14
-90 -9 -10 -250 -43 -258 -36 -7 7 -33 171 -29 179 2 3 23 6 47 8 24 1 68 6
98 10 30 5 79 9 109 10 l54 1 -7 -82z"/>
<path d="M656 2187 c-28 -29 -78 -88 -111 -132 -33 -43 -115 -134 -182 -200
-81 -80 -123 -129 -123 -143 0 -35 19 -49 204 -143 l58 -30 -83 -87 c-45 -48
-113 -119 -151 -158 -75 -79 -86 -112 -45 -139 21 -14 28 -14 68 0 144 49 232
74 241 69 12 -7 5 -556 -9 -794 -10 -165 -9 -198 4 -211 15 -15 61 -15 76 0
14 14 13 -9 23 594 5 304 11 450 18 456 6 5 51 24 99 43 l88 36 25 -34 c14
-18 41 -65 59 -104 31 -62 37 -70 63 -70 33 0 52 16 52 45 0 27 -49 129 -91
191 -38 55 -52 76 -77 118 -50 82 -58 91 -86 91 -44 0 -54 -26 -33 -82 10 -27
19 -54 20 -62 1 -9 -34 -27 -103 -53 -96 -36 -219 -78 -229 -78 -2 0 25 31 60
68 147 156 231 254 295 343 37 52 85 115 106 140 53 63 48 109 -11 109 -31 0
-81 -53 -181 -195 -43 -60 -89 -120 -103 -133 l-25 -23 -93 46 c-52 26 -96 49
-98 51 -3 2 34 43 81 92 46 48 122 134 167 192 46 58 95 116 111 130 39 35 46
64 21 89 -31 31 -49 26 -105 -32z"/>
<path d="M718 1058 c-35 -28 -32 -56 12 -96 23 -20 56 -57 73 -82 51 -74 128
-150 151 -150 54 0 62 61 15 106 -17 16 -48 54 -69 84 -44 64 -116 135 -146
144 -11 3 -27 0 -36 -6z"/>
<path d="M357 992 c-10 -10 -28 -45 -41 -78 -49 -125 -81 -178 -162 -271 -83
-94 -98 -125 -72 -151 35 -35 80 -2 194 139 81 100 179 322 158 357 -16 24
-57 27 -77 4z"/>
</g>
</svg>
