<?xml version="1.0" standalone="no"?>
<!DOCTYPE svg PUBLIC "-//W3C//DTD SVG 20010904//EN"
 "http://www.w3.org/TR/2001/REC-SVG-20010904/DTD/svg10.dtd">
<svg version="1.0" xmlns="http://www.w3.org/2000/svg"
 width="248.000000pt" height="248.000000pt" viewBox="0 0 248.000000 248.000000"
 preserveAspectRatio="xMidYMid meet">
<metadata>
Created by potrace 1.10, written by Peter Selinger 2001-2011
</metadata>
<g transform="translate(0.000000,248.000000) scale(0.100000,-0.100000)"
fill="#000000" stroke="none">
<path d="M656 2187 c-28 -29 -78 -88 -111 -132 -33 -43 -115 -134 -182 -200
-81 -80 -123 -129 -123 -143 0 -32 31 -55 175 -128 132 -67 134 -67 160 -50
19 13 25 24 23 44 -3 23 -18 35 -103 79 -55 29 -104 54 -110 56 -5 3 29 44 76
93 47 49 121 134 164 189 43 55 95 116 116 136 44 41 48 60 19 89 -30 30 -48
25 -104 -33z"/>
</g>
</svg>
