<?xml version="1.0" standalone="no"?>
<!DOCTYPE svg PUBLIC "-//W3C//DTD SVG 20010904//EN"
 "http://www.w3.org/TR/2001/REC-SVG-20010904/DTD/svg10.dtd">
<svg version="1.0" xmlns="http://www.w3.org/2000/svg"
 width="248.000000pt" height="248.000000pt" viewBox="0 0 248.000000 248.000000"
 preserveAspectRatio="xMidYMid meet">
<metadata>
Created by potrace 1.10, written by Peter Selinger 2001-2011
</metadata>
<g transform="translate(0.000000,248.000000) scale(0.100000,-0.100000)"
fill="#000000" stroke="none">
<path d="M656 2187 c-28 -29 -78 -88 -111 -132 -33 -43 -115 -134 -182 -200
-81 -80 -123 -129 -123 -143 0 -35 19 -49 204 -143 l58 -30 -83 -87 c-45 -48
-113 -119 -151 -158 -75 -79 -86 -112 -45 -139 21 -14 28 -14 68 0 144 49 232
74 241 69 12 -7 5 -556 -9 -794 -10 -165 -9 -198 4 -211 15 -15 61 -15 76 0
14 14 13 -9 23 594 5 304 11 450 18 456 6 5 51 24 99 43 l88 36 25 -34 c14
-18 41 -65 59 -104 31 -62 37 -70 63 -70 33 0 52 16 52 45 0 27 -49 129 -91
191 -38 55 -52 76 -77 118 -50 82 -58 91 -86 91 -44 0 -54 -26 -33 -82 10 -27
19 -54 20 -62 1 -9 -34 -27 -103 -53 -96 -36 -219 -78 -229 -78 -2 0 25 31 60
68 147 156 231 254 295 343 37 52 85 115 106 140 53 63 48 109 -11 109 -31 0
-81 -53 -181 -195 -43 -60 -89 -120 -103 -133 l-25 -23 -93 46 c-52 26 -96 49
-98 51 -3 2 34 43 81 92 46 48 122 134 167 192 46 58 95 116 111 130 39 35 46
64 21 89 -31 31 -49 26 -105 -32z"/>
<path d="M2049 2165 c-9 -8 -291 -53 -409 -65 -63 -6 -167 -18 -231 -26 -63
-8 -129 -11 -146 -8 -24 5 -36 1 -52 -15 -24 -24 -26 -40 -8 -65 20 -28 53
-27 397 8 165 17 250 29 369 52 40 8 88 14 106 14 24 0 39 7 54 26 25 32 26
47 5 68 -14 15 -74 22 -85 11z"/>
<path d="M2159 1846 c-2 -2 -67 -7 -144 -10 -77 -3 -212 -15 -300 -26 -228
-28 -431 -51 -495 -57 -83 -6 -98 -11 -111 -34 -8 -16 -8 -28 0 -46 6 -13 16
-68 21 -121 6 -53 15 -124 21 -157 5 -33 16 -106 23 -162 7 -56 19 -109 26
-118 14 -17 43 -20 69 -6 17 9 51 14 371 51 91 10 196 24 234 30 38 6 93 8
122 4 33 -4 60 -2 74 6 47 25 103 191 141 420 26 155 25 195 -3 214 -22 16
-40 20 -49 12z m-43 -184 c-7 -40 -15 -74 -18 -77 -4 -5 -232 -26 -488 -45
-80 -6 -192 -18 -249 -26 -58 -8 -109 -10 -113 -6 -10 10 -31 132 -24 139 2 2
75 13 163 23 87 11 239 29 338 41 99 12 225 24 280 26 55 3 102 7 104 9 15 14
18 -21 7 -84z m-41 -194 c7 -7 -39 -146 -54 -161 -5 -5 -56 -13 -113 -18 -99
-8 -333 -34 -526 -60 -51 -6 -95 -9 -98 -6 -7 6 -33 170 -29 177 2 3 21 7 42
8 21 1 70 7 108 12 39 5 189 19 335 30 146 12 269 22 274 23 16 5 54 2 61 -5z"/>
<path d="M718 1058 c-35 -28 -32 -56 12 -96 23 -20 56 -57 73 -82 51 -74 128
-150 151 -150 54 0 62 61 15 106 -17 16 -48 54 -69 84 -44 64 -116 135 -146
144 -11 3 -27 0 -36 -6z"/>
<path d="M357 992 c-10 -10 -28 -45 -41 -78 -49 -125 -81 -178 -162 -271 -83
-94 -98 -125 -72 -151 35 -35 80 -2 194 139 81 100 179 322 158 357 -16 24
-57 27 -77 4z"/>
</g>
</svg>
