<?xml version="1.0" standalone="no"?>
<!DOCTYPE svg PUBLIC "-//W3C//DTD SVG 20010904//EN"
 "http://www.w3.org/TR/2001/REC-SVG-20010904/DTD/svg10.dtd">
<svg version="1.0" xmlns="http://www.w3.org/2000/svg"
 width="248.000000pt" height="248.000000pt" viewBox="0 0 248.000000 248.000000"
 preserveAspectRatio="xMidYMid meet">
<metadata>
Created by potrace 1.10, written by Peter Selinger 2001-2011
</metadata>
<g transform="translate(0.000000,248.000000) scale(0.100000,-0.100000)"
fill="#000000" stroke="none">
<path d="M656 2187 c-28 -29 -78 -88 -111 -132 -33 -43 -115 -134 -182 -200
-81 -80 -123 -129 -123 -143 0 -35 19 -49 204 -143 l58 -30 -83 -87 c-45 -48
-113 -119 -151 -158 -75 -79 -86 -112 -45 -139 21 -14 28 -14 68 0 144 49 232
74 241 69 12 -7 5 -556 -9 -794 -10 -165 -9 -198 4 -211 15 -15 61 -15 76 0
14 14 13 -9 23 594 5 304 11 450 18 456 6 5 51 24 99 43 l88 36 25 -34 c14
-18 41 -65 59 -104 31 -62 37 -70 63 -70 33 0 52 16 52 45 0 27 -49 129 -91
191 -38 55 -52 76 -77 118 -50 82 -58 91 -86 91 -44 0 -54 -26 -33 -82 10 -27
19 -54 20 -62 1 -9 -34 -27 -103 -53 -96 -36 -219 -78 -229 -78 -2 0 25 31 60
68 147 156 231 254 295 343 37 52 85 115 106 140 53 63 48 109 -11 109 -31 0
-81 -53 -181 -195 -43 -60 -89 -120 -103 -133 l-25 -23 -93 46 c-52 26 -96 49
-98 51 -3 2 34 43 81 92 46 48 122 134 167 192 46 58 95 116 111 130 39 35 46
64 21 89 -31 31 -49 26 -105 -32z"/>
<path d="M2049 2165 c-9 -8 -291 -53 -409 -65 -63 -6 -167 -18 -231 -26 -63
-8 -129 -11 -146 -8 -24 5 -36 1 -52 -15 -24 -24 -26 -40 -8 -65 20 -28 53
-27 397 8 165 17 250 29 369 52 40 8 88 14 106 14 24 0 39 7 54 26 25 32 26
47 5 68 -14 15 -74 22 -85 11z"/>
<path d="M718 1058 c-35 -28 -32 -56 12 -96 23 -20 56 -57 73 -82 51 -74 128
-150 151 -150 54 0 62 61 15 106 -17 16 -48 54 -69 84 -44 64 -116 135 -146
144 -11 3 -27 0 -36 -6z"/>
<path d="M357 992 c-10 -10 -28 -45 -41 -78 -49 -125 -81 -178 -162 -271 -83
-94 -98 -125 -72 -151 35 -35 80 -2 194 139 81 100 179 322 158 357 -16 24
-57 27 -77 4z"/>
</g>
</svg>
