<?xml version="1.0" standalone="no"?>
<!DOCTYPE svg PUBLIC "-//W3C//DTD SVG 20010904//EN"
 "http://www.w3.org/TR/2001/REC-SVG-20010904/DTD/svg10.dtd">
<svg version="1.0" xmlns="http://www.w3.org/2000/svg"
 width="248.000000pt" height="248.000000pt" viewBox="0 0 248.000000 248.000000"
 preserveAspectRatio="xMidYMid meet">
<metadata>
Created by potrace 1.10, written by Peter Selinger 2001-2011
</metadata>
<g transform="translate(0.000000,248.000000) scale(0.100000,-0.100000)"
fill="#000000" stroke="none">
<path d="M656 2187 c-28 -29 -78 -88 -111 -132 -33 -43 -115 -134 -182 -200
-81 -80 -123 -129 -123 -143 0 -35 19 -49 204 -143 l58 -30 -83 -87 c-45 -48
-113 -119 -151 -158 -75 -79 -86 -112 -45 -139 21 -14 28 -14 68 0 144 49 232
74 241 69 13 -8 4 -637 -11 -843 -10 -130 -5 -165 26 -173 50 -12 73 23 71
107 -4 188 17 946 26 954 6 5 51 24 99 43 l88 36 25 -34 c14 -18 41 -65 59
-104 31 -62 37 -70 63 -70 33 0 52 16 52 45 0 27 -49 129 -91 191 -38 55 -52
76 -77 118 -50 82 -58 91 -86 91 -44 0 -54 -26 -33 -82 10 -27 19 -54 20 -62
1 -9 -34 -27 -103 -53 -96 -36 -219 -78 -229 -78 -2 0 25 31 60 68 147 156
231 254 295 343 37 52 85 115 106 140 53 63 48 109 -11 109 -31 0 -81 -53
-181 -195 -43 -60 -89 -120 -103 -133 l-25 -23 -93 46 c-52 26 -96 49 -98 51
-3 2 34 43 81 92 46 48 122 134 167 192 46 58 95 116 111 130 39 35 46 64 21
89 -31 31 -49 26 -105 -32z"/>
</g>
</svg>
