<?xml version="1.0" standalone="no"?>
<!DOCTYPE svg PUBLIC "-//W3C//DTD SVG 20010904//EN"
 "http://www.w3.org/TR/2001/REC-SVG-20010904/DTD/svg10.dtd">
<svg version="1.0" xmlns="http://www.w3.org/2000/svg"
 width="248.000000pt" height="248.000000pt" viewBox="0 0 248.000000 248.000000"
 preserveAspectRatio="xMidYMid meet">
<metadata>
Created by potrace 1.10, written by Peter Selinger 2001-2011
</metadata>
<g transform="translate(0.000000,248.000000) scale(0.100000,-0.100000)"
fill="#000000" stroke="none">
<path d="M1131 2386 c-9 -10 -10 -54 -6 -153 3 -76 2 -151 -3 -168 l-8 -30
-180 -17 c-98 -9 -242 -22 -319 -28 -156 -13 -189 -23 -193 -61 -6 -51 7 -53
254 -34 174 14 228 15 237 6 21 -21 11 -184 -17 -291 -31 -118 -87 -261 -122
-311 -32 -47 -27 -85 12 -95 56 -14 109 74 184 301 41 124 43 137 48 276 l4
146 127 9 c85 7 128 6 133 0 4 -6 5 -153 3 -326 -4 -313 -4 -315 -25 -313 -36
5 -60 -15 -60 -49 0 -24 10 -41 45 -75 48 -46 76 -53 112 -28 l22 16 1 390 c0
215 2 394 5 399 6 10 33 13 345 40 129 12 243 23 253 26 22 7 40 40 32 63 -6
18 -51 45 -64 37 -4 -3 -112 -14 -241 -26 -129 -11 -289 -27 -355 -34 -66 -7
-123 -12 -127 -9 -5 2 -8 73 -8 156 0 122 -3 157 -16 175 -17 25 -56 29 -73 8z"/>
<path d="M1592 1788 c-24 -24 -13 -56 31 -89 23 -18 69 -58 102 -88 76 -71
217 -186 244 -201 24 -12 55 0 65 25 11 30 -14 63 -101 132 -48 38 -120 99
-160 136 -99 91 -151 115 -181 85z"/>
<path d="M528 1733 c-9 -10 -35 -56 -58 -103 -23 -46 -71 -120 -106 -164 -35
-43 -64 -87 -64 -97 0 -29 42 -52 71 -39 57 27 238 307 239 371 0 47 -51 67
-82 32z"/>
<path d="M1972 1058 c-17 -17 -15 -53 4 -69 18 -15 137 -172 175 -232 29 -45
62 -57 89 -32 37 33 31 45 -109 235 -31 41 -65 83 -76 92 -23 20 -66 23 -83 6z"/>
<path d="M1400 885 c-8 -10 -10 -29 -6 -53 9 -60 56 -195 73 -214 19 -21 54
-23 71 -6 16 16 15 79 -2 103 -7 11 -21 47 -30 80 -10 33 -24 70 -32 83 -17
25 -55 29 -74 7z"/>
<path d="M820 855 c-21 -25 -6 -107 33 -189 159 -336 385 -465 811 -467 103 0
134 5 260 43 124 37 146 57 146 130 0 57 -29 164 -55 204 -26 41 -85 27 -85
-20 0 -12 9 -50 20 -84 33 -105 33 -107 -62 -137 -66 -21 -110 -28 -210 -32
-265 -11 -460 51 -596 190 -53 54 -133 195 -163 283 -12 38 -27 75 -32 82 -13
17 -52 15 -67 -3z"/>
<path d="M457 713 c-8 -10 -25 -49 -37 -88 -13 -38 -40 -116 -61 -173 -46
-122 -49 -158 -14 -174 38 -17 64 7 90 83 68 197 105 312 105 327 0 41 -54 57
-83 25z"/>
</g>
</svg>
