<?xml version="1.0" standalone="no"?>
<!DOCTYPE svg PUBLIC "-//W3C//DTD SVG 20010904//EN"
 "http://www.w3.org/TR/2001/REC-SVG-20010904/DTD/svg10.dtd">
<svg version="1.0" xmlns="http://www.w3.org/2000/svg"
 width="248.000000pt" height="248.000000pt" viewBox="0 0 248.000000 248.000000"
 preserveAspectRatio="xMidYMid meet">
<metadata>
Created by potrace 1.10, written by Peter Selinger 2001-2011
</metadata>
<g transform="translate(0.000000,248.000000) scale(0.100000,-0.100000)"
fill="#000000" stroke="none">
<path d="M1131 2386 c-9 -10 -10 -54 -6 -153 3 -76 2 -151 -3 -168 l-8 -30
-180 -17 c-98 -9 -242 -22 -319 -28 -156 -13 -189 -23 -193 -61 -6 -51 7 -53
254 -34 174 14 228 15 237 6 21 -21 11 -184 -17 -291 -31 -118 -87 -261 -122
-311 -32 -47 -27 -85 12 -95 56 -14 109 74 184 301 41 124 43 137 48 276 l4
146 107 7 c58 4 162 13 231 21 69 8 233 24 365 35 132 12 248 23 258 26 22 7
40 40 32 63 -6 18 -51 45 -64 37 -4 -3 -112 -14 -241 -26 -129 -11 -289 -27
-355 -34 -66 -7 -123 -12 -127 -9 -5 2 -8 73 -8 156 0 122 -3 157 -16 175 -17
25 -56 29 -73 8z"/>
</g>
</svg>
