<?xml version="1.0" standalone="no"?>
<!DOCTYPE svg PUBLIC "-//W3C//DTD SVG 20010904//EN"
 "http://www.w3.org/TR/2001/REC-SVG-20010904/DTD/svg10.dtd">
<svg version="1.0" xmlns="http://www.w3.org/2000/svg"
 width="248.000000pt" height="248.000000pt" viewBox="0 0 248.000000 248.000000"
 preserveAspectRatio="xMidYMid meet">
<metadata>
Created by potrace 1.10, written by Peter Selinger 2001-2011
</metadata>
<g transform="translate(0.000000,248.000000) scale(0.100000,-0.100000)"
fill="#000000" stroke="none">
<path d="M1135 2069 c-99 -15 -252 -37 -340 -49 -88 -12 -180 -26 -205 -30
-25 -5 -81 -12 -125 -16 -88 -7 -105 -15 -105 -49 0 -53 66 -67 204 -45 132
22 324 49 381 55 64 6 210 28 340 51 76 14 105 30 105 59 0 20 -24 42 -50 47
-14 3 -106 -7 -205 -23z"/>
</g>
</svg>
