<?xml version="1.0" standalone="no"?>
<!DOCTYPE svg PUBLIC "-//W3C//DTD SVG 20010904//EN"
 "http://www.w3.org/TR/2001/REC-SVG-20010904/DTD/svg10.dtd">
<svg version="1.0" xmlns="http://www.w3.org/2000/svg"
 width="248.000000pt" height="248.000000pt" viewBox="0 0 248.000000 248.000000"
 preserveAspectRatio="xMidYMid meet">
<metadata>
Created by potrace 1.10, written by Peter Selinger 2001-2011
</metadata>
<g transform="translate(0.000000,248.000000) scale(0.100000,-0.100000)"
fill="#000000" stroke="none">
<path d="M830 2254 c-102 -92 -314 -260 -375 -297 -41 -25 -55 -46 -55 -79 0
-30 31 -51 60 -40 20 8 113 72 185 128 l60 46 3 -213 c1 -117 1 -218 -2 -224
-2 -6 -73 -21 -157 -33 -85 -13 -190 -29 -234 -37 -44 -8 -105 -17 -135 -21
-30 -4 -61 -11 -68 -17 -19 -15 -14 -54 10 -71 28 -20 61 -20 168 -1 190 33
412 66 417 62 2 -3 6 -306 9 -673 4 -608 6 -670 21 -681 21 -16 35 -16 57 0
32 23 38 160 34 787 l-3 595 35 7 c19 5 94 17 166 28 181 27 208 37 212 76 6
57 -11 60 -176 35 -81 -12 -167 -26 -192 -31 -25 -5 -46 -8 -46 -7 -1 1 -4
116 -5 256 l-3 254 76 66 c114 98 138 137 106 169 -28 28 -62 11 -168 -84z"/>
</g>
</svg>
