<?xml version="1.0" standalone="no"?>
<!DOCTYPE svg PUBLIC "-//W3C//DTD SVG 20010904//EN"
 "http://www.w3.org/TR/2001/REC-SVG-20010904/DTD/svg10.dtd">
<svg version="1.0" xmlns="http://www.w3.org/2000/svg"
 width="248.000000pt" height="248.000000pt" viewBox="0 0 248.000000 248.000000"
 preserveAspectRatio="xMidYMid meet">
<metadata>
Created by potrace 1.10, written by Peter Selinger 2001-2011
</metadata>
<g transform="translate(0.000000,248.000000) scale(0.100000,-0.100000)"
fill="#000000" stroke="none">
<path d="M865 1864 c-80 -21 -240 -59 -519 -125 -53 -12 -102 -18 -122 -14
-26 4 -38 1 -54 -15 -61 -61 31 -115 146 -84 47 13 190 44 202 44 1 0 2 -96 2
-213 l0 -213 -87 -22 c-49 -12 -122 -31 -163 -42 -98 -26 -123 -57 -80 -100
25 -25 32 -25 111 -1 35 11 92 27 126 36 34 8 70 18 79 22 15 6 16 -10 11
-198 -3 -112 -6 -205 -7 -206 0 -2 -27 -16 -60 -33 -33 -17 -85 -46 -116 -66
-31 -20 -93 -53 -139 -74 -87 -40 -106 -62 -86 -99 6 -11 20 -22 30 -26 22 -7
158 53 242 107 30 19 135 76 234 127 276 141 324 180 280 225 -26 26 -50 19
-161 -45 -57 -34 -107 -59 -110 -57 -2 3 -1 88 2 190 l7 185 73 21 c41 12 82
22 92 22 31 0 62 29 62 59 0 55 -35 63 -140 31 -36 -11 -71 -20 -77 -20 -10 0
-13 48 -13 209 l0 209 63 15 c291 71 327 84 327 124 0 17 -36 53 -52 52 -7 0
-53 -11 -103 -25z"/>
</g>
</svg>
