<?xml version="1.0" standalone="no"?>
<!DOCTYPE svg PUBLIC "-//W3C//DTD SVG 20010904//EN"
 "http://www.w3.org/TR/2001/REC-SVG-20010904/DTD/svg10.dtd">
<svg version="1.0" xmlns="http://www.w3.org/2000/svg"
 width="248.000000pt" height="248.000000pt" viewBox="0 0 248.000000 248.000000"
 preserveAspectRatio="xMidYMid meet">
<metadata>
Created by potrace 1.10, written by Peter Selinger 2001-2011
</metadata>
<g transform="translate(0.000000,248.000000) scale(0.100000,-0.100000)"
fill="#000000" stroke="none">
<path d="M1815 2040 c-38 -4 -160 -17 -270 -29 -110 -12 -224 -26 -254 -31
-30 -6 -76 -10 -103 -10 -35 0 -54 -6 -68 -20 -25 -25 -25 -41 -1 -71 17 -23
23 -66 36 -259 1 -19 7 -60 13 -90 6 -30 19 -111 29 -180 12 -89 22 -129 35
-142 21 -21 77 -23 172 -8 118 18 423 49 545 54 108 5 128 9 147 27 44 42 163
479 181 664 5 53 3 62 -17 80 -20 18 -37 20 -199 21 -97 1 -207 -2 -246 -6z
m355 -122 c-1 -13 -9 -61 -18 -107 -16 -75 -20 -85 -42 -91 -14 -4 -95 -10
-180 -14 -85 -3 -195 -11 -245 -16 -366 -37 -418 -41 -425 -30 -13 20 -22 192
-11 203 5 5 79 18 163 28 84 10 205 25 268 32 63 8 199 15 303 16 l187 1 0
-22z m-70 -325 c-1 -10 -17 -67 -38 -126 l-37 -108 -115 -4 c-108 -3 -530 -48
-561 -60 -31 -11 -43 14 -59 127 -9 62 -15 116 -14 119 2 4 41 10 86 14 46 3
142 13 213 22 72 8 198 18 280 22 252 13 245 13 245 -6z"/>
<path d="M865 1864 c-80 -21 -240 -59 -519 -125 -53 -12 -102 -18 -122 -14
-26 4 -38 1 -54 -15 -60 -60 30 -114 141 -84 43 11 195 44 207 44 1 0 2 -96 2
-213 l0 -213 -87 -22 c-49 -12 -122 -31 -163 -42 -98 -26 -123 -57 -80 -100
25 -25 32 -25 111 -1 35 11 92 27 126 36 34 8 70 18 79 22 15 6 16 -10 11
-198 -3 -112 -6 -205 -6 -206 -1 -2 -28 -16 -61 -33 -33 -17 -85 -46 -116 -66
-31 -20 -93 -53 -139 -74 -87 -40 -106 -62 -86 -99 6 -11 20 -22 30 -26 22 -7
158 53 242 107 30 19 135 76 234 127 276 141 324 180 280 225 -26 26 -50 19
-161 -45 -57 -34 -107 -59 -110 -57 -2 3 -1 88 2 190 l7 185 73 21 c41 12 82
22 92 22 31 0 62 29 62 59 0 55 -35 63 -140 31 -36 -11 -71 -20 -77 -20 -10 0
-13 48 -13 209 l0 209 63 15 c291 71 327 84 327 124 0 17 -36 53 -52 52 -7 0
-53 -11 -103 -25z"/>
</g>
</svg>
