<?xml version="1.0" standalone="no"?>
<!DOCTYPE svg PUBLIC "-//W3C//DTD SVG 20010904//EN"
 "http://www.w3.org/TR/2001/REC-SVG-20010904/DTD/svg10.dtd">
<svg version="1.0" xmlns="http://www.w3.org/2000/svg"
 width="248.000000pt" height="248.000000pt" viewBox="0 0 248.000000 248.000000"
 preserveAspectRatio="xMidYMid meet">
<metadata>
Created by potrace 1.10, written by Peter Selinger 2001-2011
</metadata>
<g transform="translate(0.000000,248.000000) scale(0.100000,-0.100000)"
fill="#000000" stroke="none">
<path d="M830 2254 c-102 -92 -314 -260 -375 -297 -41 -25 -55 -46 -55 -79 0
-30 31 -51 60 -40 66 25 446 327 522 416 44 49 33 97 -21 95 -18 0 -58 -29
-131 -95z"/>
<path d="M1040 1628 c-63 -10 -182 -32 -265 -47 -82 -16 -202 -37 -265 -46
-63 -8 -151 -22 -195 -30 -44 -8 -105 -17 -135 -21 -30 -4 -61 -11 -67 -17
-20 -15 -15 -54 9 -71 28 -20 61 -20 168 -1 47 8 159 26 250 40 91 14 197 33
235 41 39 8 129 23 200 34 233 35 265 46 265 88 0 58 -18 60 -200 30z"/>
</g>
</svg>
