<?xml version="1.0" standalone="no"?>
<!DOCTYPE svg PUBLIC "-//W3C//DTD SVG 20010904//EN"
 "http://www.w3.org/TR/2001/REC-SVG-20010904/DTD/svg10.dtd">
<svg version="1.0" xmlns="http://www.w3.org/2000/svg"
 width="248.000000pt" height="248.000000pt" viewBox="0 0 248.000000 248.000000"
 preserveAspectRatio="xMidYMid meet">
<metadata>
Created by potrace 1.10, written by Peter Selinger 2001-2011
</metadata>
<g transform="translate(0.000000,248.000000) scale(0.100000,-0.100000)"
fill="#000000" stroke="none">
<path d="M1815 2040 c-38 -4 -160 -17 -270 -29 -110 -12 -224 -26 -254 -31
-30 -6 -76 -10 -103 -10 -35 0 -54 -6 -68 -20 -25 -25 -25 -41 -1 -71 17 -23
23 -66 36 -259 1 -19 7 -60 13 -90 6 -30 19 -111 29 -180 12 -89 22 -129 35
-142 20 -20 81 -24 169 -9 30 5 76 12 103 15 l49 6 -8 -247 c-4 -137 -9 -270
-10 -297 -4 -61 -8 -225 -6 -248 1 -23 36 -41 62 -33 11 4 25 19 31 33 10 27
23 251 35 614 5 161 8 188 22 193 9 2 101 9 206 15 169 9 191 12 211 31 44 42
163 479 181 664 5 53 3 62 -17 80 -20 18 -37 20 -199 21 -97 1 -207 -2 -246
-6z m355 -122 c-1 -13 -9 -61 -18 -107 -21 -102 -8 -95 -217 -104 -82 -4 -178
-10 -212 -13 l-63 -7 0 116 0 116 58 6 c31 4 62 8 67 10 6 2 94 4 198 4 l187
1 0 -22z m-625 -136 l0 -107 -139 -13 c-104 -10 -141 -10 -146 -2 -13 20 -22
192 -11 203 14 14 274 46 286 35 6 -5 10 -57 10 -116z m555 -189 c-1 -10 -17
-67 -38 -126 l-37 -109 -110 -3 c-60 -2 -143 -6 -182 -10 l-73 -8 0 127 0 126
38 1 c20 1 98 5 172 8 236 13 230 13 230 -6z m-550 -146 l0 -124 -94 -11 c-52
-7 -100 -14 -108 -17 -30 -11 -42 15 -58 127 -10 62 -14 116 -11 120 5 6 158
23 239 27 l32 1 0 -123z"/>
<path d="M865 1864 c-80 -21 -240 -59 -519 -125 -53 -12 -102 -18 -122 -14
-26 4 -38 1 -54 -15 -60 -60 30 -114 141 -84 43 11 195 44 207 44 1 0 2 -96 2
-213 l0 -213 -87 -22 c-49 -12 -122 -31 -163 -42 -98 -26 -123 -57 -80 -100
25 -25 32 -25 111 -1 35 11 92 27 126 36 34 8 70 18 79 22 15 6 16 -10 11
-198 -3 -112 -6 -205 -6 -206 -1 -2 -28 -16 -61 -33 -33 -17 -85 -46 -116 -66
-31 -20 -93 -53 -139 -74 -87 -40 -106 -62 -86 -99 6 -11 20 -22 30 -26 22 -7
158 53 242 107 30 19 135 76 234 127 276 141 324 180 280 225 -26 26 -50 19
-161 -45 -57 -34 -107 -59 -110 -57 -2 3 -1 88 2 190 l7 185 73 21 c41 12 82
22 92 22 31 0 62 29 62 59 0 55 -35 63 -140 31 -36 -11 -71 -20 -77 -20 -10 0
-13 48 -13 209 l0 209 63 15 c291 71 327 84 327 124 0 17 -36 53 -52 52 -7 0
-53 -11 -103 -25z"/>
</g>
</svg>
