<?xml version="1.0" standalone="no"?>
<!DOCTYPE svg PUBLIC "-//W3C//DTD SVG 20010904//EN"
 "http://www.w3.org/TR/2001/REC-SVG-20010904/DTD/svg10.dtd">
<svg version="1.0" xmlns="http://www.w3.org/2000/svg"
 width="248.000000pt" height="248.000000pt" viewBox="0 0 248.000000 248.000000"
 preserveAspectRatio="xMidYMid meet">
<metadata>
Created by potrace 1.10, written by Peter Selinger 2001-2011
</metadata>
<g transform="translate(0.000000,248.000000) scale(0.100000,-0.100000)"
fill="#000000" stroke="none">
<path d="M572 2378 c-8 -8 -12 -51 -12 -129 l0 -116 -97 -12 c-194 -24 -308
-44 -330 -58 -30 -18 -30 -58 0 -78 20 -13 34 -13 112 -1 110 18 217 33 355
51 58 7 155 21 215 30 61 9 144 20 186 25 41 5 87 14 102 21 37 17 46 55 20
81 -20 20 -21 20 -199 -6 -98 -14 -196 -29 -216 -32 l-38 -7 0 86 c0 86 -11
135 -33 149 -18 12 -52 9 -65 -4z"/>
<path d="M939 2043 c-11 -13 -13 -61 -11 -232 1 -119 5 -257 8 -307 l6 -90
-187 -13 c-103 -7 -210 -15 -237 -18 l-50 -6 101 103 c56 56 101 106 101 111
0 17 22 9 67 -26 47 -36 89 -45 111 -23 24 24 12 53 -44 103 l-57 51 26 39
c14 22 40 77 58 122 30 79 31 83 15 108 -21 32 -60 33 -80 3 -7 -13 -25 -54
-40 -93 -15 -38 -36 -81 -47 -94 -20 -24 -20 -24 -42 -4 -170 151 -204 172
-235 141 -27 -27 -13 -61 51 -121 34 -32 81 -72 104 -90 23 -18 43 -35 43 -38
0 -3 -49 -57 -110 -120 -108 -112 -124 -141 -98 -167 9 -9 7 -12 -12 -12 -14
0 -35 -3 -47 -6 l-21 -6 -4 269 c-3 237 -5 272 -21 296 -20 30 -57 36 -77 12
-15 -18 -15 -528 1 -609 15 -82 14 -82 191 -63 84 9 223 21 308 27 238 17 300
26 321 47 17 17 18 37 9 346 -7 275 -11 332 -24 352 -19 29 -57 33 -77 8z"/>
</g>
</svg>
