<?xml version="1.0" standalone="no"?>
<!DOCTYPE svg PUBLIC "-//W3C//DTD SVG 20010904//EN"
 "http://www.w3.org/TR/2001/REC-SVG-20010904/DTD/svg10.dtd">
<svg version="1.0" xmlns="http://www.w3.org/2000/svg"
 width="248.000000pt" height="248.000000pt" viewBox="0 0 248.000000 248.000000"
 preserveAspectRatio="xMidYMid meet">
<metadata>
Created by potrace 1.10, written by Peter Selinger 2001-2011
</metadata>
<g transform="translate(0.000000,248.000000) scale(0.100000,-0.100000)"
fill="#000000" stroke="none">
<path d="M572 2378 c-8 -8 -12 -51 -12 -129 l0 -116 -97 -12 c-194 -24 -308
-44 -330 -58 -30 -18 -30 -58 0 -78 20 -13 34 -13 112 -1 110 18 217 33 355
51 58 7 155 21 215 30 61 9 144 20 186 25 41 5 87 14 102 21 37 17 46 55 20
81 -20 20 -21 20 -199 -6 -98 -14 -196 -29 -216 -32 l-38 -7 0 86 c0 86 -11
135 -33 149 -18 12 -52 9 -65 -4z"/>
<path d="M939 2043 c-11 -13 -13 -61 -11 -232 1 -119 5 -257 8 -307 l6 -90
-187 -13 c-103 -7 -210 -15 -237 -18 l-50 -6 101 103 c56 56 101 106 101 111
0 17 22 9 67 -26 47 -36 89 -45 111 -23 24 24 12 53 -44 103 l-57 51 26 39
c14 22 40 77 58 122 30 79 31 83 15 108 -21 32 -60 33 -80 3 -7 -13 -25 -54
-40 -93 -15 -38 -36 -81 -47 -94 -20 -24 -20 -24 -42 -4 -170 151 -204 172
-235 141 -27 -27 -13 -61 51 -121 34 -32 81 -72 104 -90 23 -18 43 -35 43 -38
0 -3 -49 -57 -110 -120 -108 -112 -124 -141 -98 -167 9 -9 7 -12 -12 -12 -14
0 -35 -3 -47 -6 l-21 -6 -4 269 c-3 237 -5 272 -21 296 -20 30 -57 36 -77 12
-9 -11 -12 -83 -11 -286 2 -276 10 -362 36 -388 14 -15 55 -12 289 16 l49 6
-8 -49 c-11 -78 -15 -81 -102 -89 -214 -18 -286 -32 -306 -56 -15 -18 -17 -32
-12 -64 4 -22 10 -238 13 -481 8 -477 8 -478 61 -472 49 6 51 22 50 448 0 217
-4 415 -9 440 -5 25 -5 48 -2 52 8 8 242 32 248 26 6 -6 -40 -169 -85 -306
-52 -155 -70 -254 -52 -276 25 -30 93 -17 183 37 26 16 91 46 145 68 110 45
143 70 143 109 0 50 -40 65 -88 32 -15 -10 -61 -31 -102 -47 -41 -16 -93 -40
-115 -52 -22 -13 -43 -23 -47 -23 -4 0 -1 19 6 43 8 23 28 87 46 142 18 55 42
139 55 186 12 48 25 92 29 98 4 6 31 11 61 11 29 0 86 6 126 14 41 8 100 17
132 20 l57 6 0 -183 c0 -100 -3 -300 -7 -444 -5 -234 -8 -263 -23 -263 -50 0
-53 -61 -6 -122 50 -65 91 -74 118 -25 14 25 31 639 26 924 -3 164 -4 174 -26
195 -20 21 -31 23 -104 20 -44 -2 -112 -9 -150 -17 -38 -8 -92 -15 -119 -15
-43 0 -50 2 -45 18 3 9 7 36 8 59 l3 41 105 7 c163 10 231 22 251 42 17 17 18
38 9 346 -7 275 -11 332 -24 352 -19 29 -57 33 -77 8z"/>
</g>
</svg>
