<?xml version="1.0" standalone="no"?>
<!DOCTYPE svg PUBLIC "-//W3C//DTD SVG 20010904//EN"
 "http://www.w3.org/TR/2001/REC-SVG-20010904/DTD/svg10.dtd">
<svg version="1.0" xmlns="http://www.w3.org/2000/svg"
 width="248.000000pt" height="248.000000pt" viewBox="0 0 248.000000 248.000000"
 preserveAspectRatio="xMidYMid meet">
<metadata>
Created by potrace 1.10, written by Peter Selinger 2001-2011
</metadata>
<g transform="translate(0.000000,248.000000) scale(0.100000,-0.100000)"
fill="#000000" stroke="none">
<path d="M1738 2345 c-3 -4 -102 -10 -220 -15 -277 -11 -801 -57 -893 -79 -53
-12 -57 -32 -50 -281 10 -350 38 -665 65 -728 26 -57 50 -65 164 -53 50 6 145
13 211 16 66 3 146 8 178 11 l57 6 0 -170 0 -169 -82 -11 c-46 -7 -108 -12
-138 -12 -81 -1 -237 -25 -254 -40 -24 -19 -20 -57 9 -76 21 -14 36 -14 112
-5 150 18 280 31 316 31 27 0 36 -5 41 -23 5 -21 9 -396 4 -398 -2 0 -127 -5
-278 -10 -418 -13 -632 -32 -664 -58 -42 -35 5 -100 61 -86 80 20 731 48 1133
49 140 1 380 -3 532 -8 303 -10 308 -9 308 46 0 47 -35 55 -285 62 -121 3
-326 9 -456 13 l-237 6 -4 206 c-3 113 -4 207 -4 208 1 1 93 10 205 20 226 19
250 27 237 77 -10 40 -41 47 -153 36 -54 -6 -142 -13 -195 -17 l-98 -6 0 165
0 166 31 6 c17 3 75 6 128 6 182 1 393 18 408 33 9 9 20 58 28 123 7 60 23
173 35 252 18 124 21 177 18 397 l-3 255 -28 27 c-26 26 -33 28 -130 31 -56 2
-105 1 -109 -3z m162 -294 l0 -188 -37 -7 c-21 -3 -63 -6 -93 -6 -31 0 -91 -4
-135 -9 -44 -5 -126 -12 -182 -16 l-103 -7 0 201 0 201 123 1 c67 1 147 4 177
9 30 4 99 8 153 9 l97 1 0 -189z m-660 -45 l0 -204 -122 -5 c-68 -2 -190 -10
-271 -17 -81 -7 -150 -11 -152 -8 -2 2 -7 87 -11 189 l-7 186 24 6 c38 9 404
48 517 56 l22 1 0 -204z m660 -273 c-1 -28 -57 -373 -62 -378 -5 -6 -471 -25
-476 -20 -3 2 -7 87 -10 189 l-5 184 44 6 c66 8 375 30 467 34 34 2 42 -1 42
-15z m-660 -110 c0 -43 3 -128 6 -189 l7 -111 -154 -6 c-85 -4 -200 -12 -257
-18 -57 -6 -105 -9 -108 -6 -7 7 -34 254 -34 314 l0 51 68 6 c37 4 117 11 177
17 61 5 144 11 185 12 41 2 83 4 93 5 15 2 17 -8 17 -75z"/>
</g>
</svg>
