<?xml version="1.0" standalone="no"?>
<!DOCTYPE svg PUBLIC "-//W3C//DTD SVG 20010904//EN"
 "http://www.w3.org/TR/2001/REC-SVG-20010904/DTD/svg10.dtd">
<svg version="1.0" xmlns="http://www.w3.org/2000/svg"
 width="248.000000pt" height="248.000000pt" viewBox="0 0 248.000000 248.000000"
 preserveAspectRatio="xMidYMid meet">
<metadata>
Created by potrace 1.10, written by Peter Selinger 2001-2011
</metadata>
<g transform="translate(0.000000,248.000000) scale(0.100000,-0.100000)"
fill="#000000" stroke="none">
<path d="M1738 2345 c-3 -4 -102 -10 -220 -15 -277 -11 -801 -57 -893 -79 -53
-12 -57 -32 -50 -281 10 -350 38 -665 65 -728 26 -58 50 -65 169 -53 123 14
385 28 726 41 319 12 380 17 395 36 7 7 18 62 25 121 7 59 23 172 35 251 18
124 21 177 18 397 l-3 255 -28 27 c-26 26 -33 28 -130 31 -56 2 -105 1 -109
-3z m162 -294 l0 -188 -37 -7 c-21 -3 -61 -6 -90 -6 -29 0 -96 -4 -150 -10
-250 -24 -348 -33 -483 -40 -80 -5 -212 -14 -293 -20 -81 -7 -150 -11 -152 -8
-2 2 -7 88 -11 190 l-7 186 29 6 c108 22 480 54 763 66 123 5 226 12 229 15 3
3 50 5 104 5 l98 0 0 -189z m0 -318 c-1 -28 -57 -373 -62 -378 -2 -2 -118 -9
-258 -15 -357 -14 -607 -29 -733 -41 -60 -6 -111 -9 -113 -6 -7 7 -34 255 -34
314 l0 51 68 6 c37 4 108 11 159 16 50 6 124 10 163 10 39 0 133 6 208 14 173
18 449 40 560 44 34 2 42 -1 42 -15z"/>
</g>
</svg>
