<?xml version="1.0" standalone="no"?>
<!DOCTYPE svg PUBLIC "-//W3C//DTD SVG 20010904//EN"
 "http://www.w3.org/TR/2001/REC-SVG-20010904/DTD/svg10.dtd">
<svg version="1.0" xmlns="http://www.w3.org/2000/svg"
 width="248.000000pt" height="248.000000pt" viewBox="0 0 248.000000 248.000000"
 preserveAspectRatio="xMidYMid meet">
<metadata>
Created by potrace 1.10, written by Peter Selinger 2001-2011
</metadata>
<g transform="translate(0.000000,248.000000) scale(0.100000,-0.100000)"
fill="#000000" stroke="none">
<path d="M1738 2345 c-3 -4 -102 -10 -220 -15 -277 -11 -801 -57 -893 -79 -53
-12 -57 -32 -50 -281 6 -220 13 -321 36 -565 15 -165 26 -186 84 -171 35 9 38
33 20 186 -16 147 -42 716 -32 726 17 17 456 59 783 75 109 5 252 12 317 16
l117 5 0 -259 c0 -241 -2 -274 -30 -453 -37 -229 -32 -280 25 -280 36 0 46 23
60 137 7 59 23 172 35 251 18 124 21 177 18 397 l-3 255 -28 27 c-26 26 -33
28 -130 31 -56 2 -105 1 -109 -3z"/>
</g>
</svg>
