<?xml version="1.0" standalone="no"?>
<!DOCTYPE svg PUBLIC "-//W3C//DTD SVG 20010904//EN"
 "http://www.w3.org/TR/2001/REC-SVG-20010904/DTD/svg10.dtd">
<svg version="1.0" xmlns="http://www.w3.org/2000/svg"
 width="248.000000pt" height="248.000000pt" viewBox="0 0 248.000000 248.000000"
 preserveAspectRatio="xMidYMid meet">
<metadata>
Created by potrace 1.10, written by Peter Selinger 2001-2011
</metadata>
<g transform="translate(0.000000,248.000000) scale(0.100000,-0.100000)"
fill="#000000" stroke="none">
<path d="M1116 2418 c-12 -17 -16 -49 -16 -135 0 -130 17 -114 -140 -132 -206
-25 -267 -32 -319 -42 -30 -5 -73 -9 -95 -9 -78 0 -116 -60 -61 -96 20 -13 37
-15 78 -10 86 12 187 25 277 36 47 6 121 15 165 21 44 5 121 14 170 19 90 9
183 21 325 40 41 6 150 19 242 30 92 10 177 24 188 30 26 14 24 67 -2 83 -19
13 -301 -17 -670 -69 l-48 -7 0 109 c0 121 -12 154 -55 154 -13 0 -31 -10 -39
-22z"/>
<path d="M1545 2060 c-33 -5 -105 -14 -160 -20 -93 -11 -281 -42 -454 -76 -40
-8 -97 -14 -126 -14 -36 0 -60 -6 -75 -18 l-23 -19 16 -109 c9 -60 19 -178 23
-262 6 -139 9 -154 28 -167 26 -19 80 -19 176 -1 41 8 105 17 143 21 l67 7 0
-41 c0 -34 -4 -41 -22 -45 -39 -8 -169 -25 -262 -36 -95 -10 -126 -26 -126
-65 0 -40 23 -48 113 -41 45 4 123 13 172 21 145 24 136 27 133 -57 l-3 -73
-60 -7 c-33 -3 -112 -11 -175 -18 -63 -6 -162 -17 -220 -25 -58 -8 -169 -24
-248 -34 -78 -11 -149 -25 -158 -32 -23 -19 -13 -62 18 -77 29 -13 93 -8 358
33 52 8 131 17 175 21 72 6 79 5 67 -9 -29 -35 -340 -287 -450 -365 -150 -106
-162 -116 -162 -141 0 -24 25 -51 49 -51 20 0 236 148 353 241 l73 58 3 -67
c2 -37 -2 -144 -8 -238 -11 -143 -10 -176 1 -200 22 -45 63 -44 127 3 50 37
80 56 266 167 99 59 114 76 97 112 -22 49 -73 29 -315 -123 -38 -23 -71 -41
-73 -40 -1 2 2 48 7 103 5 54 10 162 10 239 l0 140 57 52 56 52 31 -35 c50
-56 291 -247 431 -341 72 -48 148 -101 170 -119 85 -68 385 -209 468 -220 41
-6 47 -4 62 20 16 24 16 28 2 50 -10 15 -33 28 -64 35 -82 21 -326 140 -404
197 -31 23 -102 72 -157 108 -56 37 -104 71 -107 76 -3 5 25 18 62 30 145 44
283 108 331 153 71 68 9 133 -71 73 -39 -29 -145 -76 -287 -126 -58 -20 -112
-40 -121 -44 -16 -7 -71 32 -190 136 -36 31 -79 62 -94 68 -16 6 -24 14 -19
19 11 10 141 28 304 41 69 6 168 15 220 20 52 5 172 17 265 26 175 16 289 36
312 55 21 18 15 57 -10 73 -19 13 -32 13 -107 1 -47 -8 -164 -22 -260 -30 -96
-9 -242 -22 -325 -30 -82 -8 -156 -14 -162 -15 -9 0 -13 21 -13 73 l0 74 148
22 c267 41 277 44 270 93 -6 45 -39 48 -213 22 -88 -13 -172 -26 -187 -28 -27
-5 -28 -4 -28 42 l0 48 123 13 c67 7 156 16 197 19 67 6 76 10 87 32 7 15 14
106 18 235 3 116 8 227 10 247 4 28 0 43 -17 62 -27 31 -62 37 -143 26z m45
-158 l0 -58 -157 -21 c-87 -11 -159 -19 -159 -19 -1 1 -4 26 -7 57 l-5 56 101
13 c56 7 125 16 152 20 28 4 56 8 63 9 8 1 12 -17 12 -57z m-430 -56 l0 -54
-47 -10 c-27 -6 -86 -16 -131 -22 -46 -6 -95 -16 -109 -21 -14 -5 -28 -7 -31
-4 -3 2 -7 27 -10 54 -5 58 -22 50 163 82 66 11 122 23 124 25 2 2 13 4 23 4
15 0 18 -8 18 -54z m426 -168 c-3 -29 -6 -67 -6 -83 l0 -31 -133 -12 c-73 -7
-143 -15 -155 -19 -21 -5 -22 -3 -22 81 0 62 4 86 13 87 6 0 57 6 112 13 55 8
122 14 149 15 l49 1 -7 -52z m-426 -83 l0 -84 -32 -5 c-18 -3 -84 -13 -145
-22 -62 -10 -115 -16 -117 -13 -3 2 -8 38 -12 80 l-6 75 53 13 c73 16 198 38
232 40 l27 1 0 -85z"/>
</g>
</svg>
