<?xml version="1.0" standalone="no"?>
<!DOCTYPE svg PUBLIC "-//W3C//DTD SVG 20010904//EN"
 "http://www.w3.org/TR/2001/REC-SVG-20010904/DTD/svg10.dtd">
<svg version="1.0" xmlns="http://www.w3.org/2000/svg"
 width="248.000000pt" height="248.000000pt" viewBox="0 0 248.000000 248.000000"
 preserveAspectRatio="xMidYMid meet">
<metadata>
Created by potrace 1.10, written by Peter Selinger 2001-2011
</metadata>
<g transform="translate(0.000000,248.000000) scale(0.100000,-0.100000)"
fill="#000000" stroke="none">
<path d="M1119 2423 c-10 -11 -15 -53 -17 -135 -4 -133 4 -121 -97 -132 -68
-7 -407 -50 -491 -62 -61 -9 -73 -67 -20 -93 24 -11 44 -12 105 -3 42 6 114
16 161 22 47 6 117 15 155 20 39 5 115 14 170 20 149 16 262 29 340 40 184 25
228 30 330 40 61 6 128 16 150 23 36 11 40 15 40 46 0 54 -14 57 -187 38 -200
-23 -338 -40 -500 -63 l-48 -7 0 109 c0 83 -4 115 -16 132 -18 26 -56 29 -75
5z"/>
<path d="M1470 2050 c-74 -10 -160 -21 -190 -24 -51 -7 -169 -27 -349 -62 -40
-8 -97 -14 -126 -14 -36 0 -60 -6 -75 -18 l-22 -18 16 -115 c8 -63 18 -179 22
-259 4 -80 11 -151 16 -157 19 -23 82 -26 193 -9 422 65 470 72 607 82 67 4
102 11 110 21 13 16 25 181 29 411 4 189 -2 193 -231 162z m120 -148 l0 -58
-217 -27 c-249 -32 -382 -53 -468 -72 -33 -7 -62 -11 -64 -9 -2 2 -6 26 -9 54
-3 37 -1 51 9 54 35 10 435 76 524 87 55 6 123 15 150 19 28 4 56 8 63 9 8 1
12 -17 12 -57z m-5 -249 c-4 -43 -9 -81 -12 -85 -2 -5 -21 -8 -41 -8 -39 -1
-189 -21 -485 -65 -98 -15 -180 -25 -183 -23 -2 3 -7 38 -10 79 l-7 75 49 11
c106 26 559 90 652 92 l44 1 -7 -77z"/>
</g>
</svg>
