<?xml version="1.0" standalone="no"?>
<!DOCTYPE svg PUBLIC "-//W3C//DTD SVG 20010904//EN"
 "http://www.w3.org/TR/2001/REC-SVG-20010904/DTD/svg10.dtd">
<svg version="1.0" xmlns="http://www.w3.org/2000/svg"
 width="248.000000pt" height="248.000000pt" viewBox="0 0 248.000000 248.000000"
 preserveAspectRatio="xMidYMid meet">
<metadata>
Created by potrace 1.10, written by Peter Selinger 2001-2011
</metadata>
<g transform="translate(0.000000,248.000000) scale(0.100000,-0.100000)"
fill="#000000" stroke="none">
<path d="M1119 2423 c-10 -11 -15 -53 -17 -135 -4 -133 4 -121 -97 -132 -68
-7 -407 -50 -491 -62 -61 -9 -73 -67 -20 -93 24 -11 44 -12 105 -3 42 6 114
16 161 22 47 6 117 15 155 20 72 9 176 21 350 40 55 6 129 15 165 20 136 19
219 29 325 40 61 6 128 16 150 23 36 11 40 15 40 46 0 54 -14 57 -187 38 -200
-23 -338 -40 -500 -63 l-48 -7 0 109 c0 83 -4 115 -16 132 -18 26 -56 29 -75
5z"/>
<path d="M730 1905 c-7 -9 -10 -33 -7 -62 2 -26 10 -122 17 -213 14 -189 22
-215 65 -215 46 0 56 31 50 145 -9 154 -35 323 -52 343 -20 21 -56 22 -73 2z"/>
</g>
</svg>
