<?xml version="1.0" standalone="no"?>
<!DOCTYPE svg PUBLIC "-//W3C//DTD SVG 20010904//EN"
 "http://www.w3.org/TR/2001/REC-SVG-20010904/DTD/svg10.dtd">
<svg version="1.0" xmlns="http://www.w3.org/2000/svg"
 width="248.000000pt" height="248.000000pt" viewBox="0 0 248.000000 248.000000"
 preserveAspectRatio="xMidYMid meet">
<metadata>
Created by potrace 1.10, written by Peter Selinger 2001-2011
</metadata>
<g transform="translate(0.000000,248.000000) scale(0.100000,-0.100000)"
fill="#000000" stroke="none">
<path d="M1119 2423 c-10 -11 -15 -53 -17 -135 -4 -133 4 -121 -97 -132 -68
-7 -407 -50 -491 -62 -61 -9 -73 -67 -20 -93 24 -11 44 -12 105 -3 42 6 114
16 161 22 47 6 117 15 155 20 39 5 115 14 170 20 149 16 262 29 340 40 184 25
228 30 330 40 61 6 128 16 150 23 36 11 40 15 40 46 0 54 -14 57 -187 38 -200
-23 -338 -40 -500 -63 l-48 -7 0 109 c0 83 -4 115 -16 132 -18 26 -56 29 -75
5z"/>
<path d="M1470 2050 c-74 -10 -160 -21 -190 -24 -51 -7 -169 -27 -349 -62 -40
-8 -97 -14 -126 -14 -36 0 -60 -6 -75 -18 l-23 -19 16 -109 c9 -60 19 -161 22
-225 8 -136 18 -164 60 -164 50 0 57 31 45 187 -6 73 -13 157 -16 185 -5 40
-3 54 7 57 23 6 421 74 474 81 28 3 88 10 135 16 47 5 98 12 114 15 l29 6 -6
-223 c-7 -252 -3 -274 48 -274 47 0 53 26 60 265 3 118 8 229 11 247 6 39 -28
81 -71 87 -16 3 -91 -4 -165 -14z"/>
</g>
</svg>
