<?xml version="1.0" standalone="no"?>
<!DOCTYPE svg PUBLIC "-//W3C//DTD SVG 20010904//EN"
 "http://www.w3.org/TR/2001/REC-SVG-20010904/DTD/svg10.dtd">
<svg version="1.0" xmlns="http://www.w3.org/2000/svg"
 width="248.000000pt" height="248.000000pt" viewBox="0 0 248.000000 248.000000"
 preserveAspectRatio="xMidYMid meet">
<metadata>
Created by potrace 1.10, written by Peter Selinger 2001-2011
</metadata>
<g transform="translate(0.000000,248.000000) scale(0.100000,-0.100000)"
fill="#000000" stroke="none">
<path d="M775 2281 c-22 -5 -92 -14 -155 -21 -191 -21 -361 -48 -376 -61 -8
-7 -14 -24 -12 -38 5 -39 40 -51 123 -40 181 24 225 30 295 36 l74 6 -19 -29
c-10 -16 -37 -60 -58 -99 -22 -38 -62 -102 -89 -142 -51 -74 -58 -107 -27
-126 35 -22 67 1 127 91 32 48 73 113 91 145 35 62 87 142 121 184 51 65 3
112 -95 94z"/>
</g>
</svg>
