<?xml version="1.0" standalone="no"?>
<!DOCTYPE svg PUBLIC "-//W3C//DTD SVG 20010904//EN"
 "http://www.w3.org/TR/2001/REC-SVG-20010904/DTD/svg10.dtd">
<svg version="1.0" xmlns="http://www.w3.org/2000/svg"
 width="248.000000pt" height="248.000000pt" viewBox="0 0 248.000000 248.000000"
 preserveAspectRatio="xMidYMid meet">
<metadata>
Created by potrace 1.10, written by Peter Selinger 2001-2011
</metadata>
<g transform="translate(0.000000,248.000000) scale(0.100000,-0.100000)"
fill="#000000" stroke="none">
<path d="M775 2281 c-22 -5 -92 -14 -155 -21 -63 -7 -171 -21 -240 -31 -119
-17 -126 -20 -153 -51 -29 -33 -29 -34 -21 -118 5 -47 9 -490 9 -985 1 -495 5
-917 9 -938 10 -46 41 -66 75 -48 11 7 21 17 21 24 1 7 3 381 6 832 5 741 2
919 -19 1150 -2 16 10 20 83 30 182 26 286 37 306 34 21 -4 21 -6 -15 -67 -20
-34 -69 -113 -108 -175 -46 -70 -73 -122 -73 -140 0 -15 13 -51 29 -80 52 -92
72 -184 78 -357 5 -152 5 -157 -25 -245 -39 -117 -53 -146 -66 -142 -6 2 -28
28 -48 58 -46 65 -66 81 -92 73 -49 -15 -47 -54 5 -130 66 -95 108 -134 145
-134 55 0 93 61 157 245 30 86 31 97 31 245 -1 176 -21 283 -76 402 l-31 68
60 92 c33 51 71 111 83 133 32 55 90 144 117 178 55 68 8 117 -92 98z"/>
<path d="M1870 1979 c-51 -12 -288 -46 -415 -59 -196 -20 -329 -42 -347 -58
-22 -19 -23 -55 -3 -72 16 -13 56 -11 220 10 44 6 141 17 215 25 116 13 265
35 400 61 70 13 102 58 68 92 -14 14 -85 14 -138 1z"/>
</g>
</svg>
