<?xml version="1.0" standalone="no"?>
<!DOCTYPE svg PUBLIC "-//W3C//DTD SVG 20010904//EN"
 "http://www.w3.org/TR/2001/REC-SVG-20010904/DTD/svg10.dtd">
<svg version="1.0" xmlns="http://www.w3.org/2000/svg"
 width="248.000000pt" height="248.000000pt" viewBox="0 0 248.000000 248.000000"
 preserveAspectRatio="xMidYMid meet">
<metadata>
Created by potrace 1.10, written by Peter Selinger 2001-2011
</metadata>
<g transform="translate(0.000000,248.000000) scale(0.100000,-0.100000)"
fill="#000000" stroke="none">
<path d="M1519 2353 c-11 -12 -15 -68 -19 -222 l-5 -206 -70 -8 c-173 -18
-301 -40 -317 -55 -22 -19 -23 -55 -3 -72 18 -15 67 -11 343 26 l53 7 -3 -154
-3 -154 -190 -22 c-259 -30 -444 -60 -461 -74 -21 -18 -17 -57 9 -73 18 -12
34 -13 87 -5 36 5 103 14 150 19 47 5 141 17 210 25 69 9 170 20 225 26 55 5
217 23 360 39 143 17 278 30 300 30 59 0 90 19 90 55 0 63 -34 64 -480 10 -66
-8 -135 -15 -152 -15 l-33 0 0 149 0 149 28 6 c15 3 81 14 147 25 176 29 188
32 213 47 24 16 29 53 10 72 -17 17 -67 15 -183 -7 -55 -11 -126 -23 -157 -26
l-58 -7 0 194 c0 159 -3 198 -16 216 -18 26 -56 29 -75 5z"/>
<path d="M775 2281 c-22 -5 -92 -14 -155 -21 -63 -7 -171 -21 -240 -31 -119
-17 -126 -20 -153 -51 -29 -33 -29 -34 -21 -118 5 -47 9 -490 9 -985 1 -495 5
-917 9 -938 10 -46 41 -66 75 -48 11 7 21 17 21 24 1 7 3 381 6 832 5 741 2
919 -19 1150 -2 16 10 20 83 30 182 26 286 37 306 34 21 -4 21 -6 -15 -67 -20
-34 -69 -113 -108 -175 -46 -70 -73 -122 -73 -140 0 -15 13 -51 29 -80 52 -92
72 -184 78 -357 5 -152 5 -157 -25 -245 -39 -117 -53 -146 -66 -142 -6 2 -28
28 -48 58 -46 65 -66 81 -92 73 -49 -15 -47 -54 5 -130 66 -95 108 -134 145
-134 55 0 93 61 157 245 30 86 31 97 31 245 -1 176 -21 283 -76 402 l-31 68
60 92 c33 51 71 111 83 133 32 55 90 144 117 178 55 68 8 117 -92 98z"/>
</g>
</svg>
