<?xml version="1.0" standalone="no"?>
<!DOCTYPE svg PUBLIC "-//W3C//DTD SVG 20010904//EN"
 "http://www.w3.org/TR/2001/REC-SVG-20010904/DTD/svg10.dtd">
<svg version="1.0" xmlns="http://www.w3.org/2000/svg"
 width="248.000000pt" height="248.000000pt" viewBox="0 0 248.000000 248.000000"
 preserveAspectRatio="xMidYMid meet">
<metadata>
Created by potrace 1.10, written by Peter Selinger 2001-2011
</metadata>
<g transform="translate(0.000000,248.000000) scale(0.100000,-0.100000)"
fill="#000000" stroke="none">
<path d="M770 1994 c-96 -13 -206 -28 -245 -34 -38 -5 -95 -10 -125 -10 -65 0
-100 -20 -100 -55 0 -44 38 -58 138 -51 48 4 121 13 162 20 41 8 120 19 175
26 200 23 235 34 235 75 0 18 -23 43 -45 48 -11 3 -99 -6 -195 -19z"/>
<path d="M940 1710 c-95 -9 -239 -32 -345 -56 -85 -19 -316 -54 -355 -54 -15
0 -39 -9 -54 -21 -22 -17 -26 -28 -26 -74 0 -89 97 -511 122 -526 20 -14 60
-6 72 13 9 15 -2 94 -31 213 -4 19 3 21 89 33 51 6 145 16 208 22 63 6 126 12
140 15 14 2 67 7 118 10 69 5 92 4 92 -5 0 -7 -7 -52 -16 -101 -16 -85 -16
-91 1 -109 20 -23 57 -26 73 -7 5 6 19 62 31 122 12 61 31 155 43 210 27 122
31 276 8 299 -21 20 -71 25 -170 16z m79 -152 c0 -29 -6 -77 -12 -107 l-12
-54 -80 -4 c-44 -2 -114 -7 -155 -13 -41 -5 -109 -12 -150 -15 -41 -3 -128
-13 -193 -22 -65 -8 -121 -13 -124 -9 -4 3 -12 40 -18 82 -9 55 -9 77 -1 79 6
2 63 11 126 20 63 9 183 30 265 47 126 25 207 36 338 47 14 1 17 -7 16 -51z"/>
</g>
</svg>
