<?xml version="1.0" standalone="no"?>
<!DOCTYPE svg PUBLIC "-//W3C//DTD SVG 20010904//EN"
 "http://www.w3.org/TR/2001/REC-SVG-20010904/DTD/svg10.dtd">
<svg version="1.0" xmlns="http://www.w3.org/2000/svg"
 width="248.000000pt" height="248.000000pt" viewBox="0 0 248.000000 248.000000"
 preserveAspectRatio="xMidYMid meet">
<metadata>
Created by potrace 1.10, written by Peter Selinger 2001-2011
</metadata>
<g transform="translate(0.000000,248.000000) scale(0.100000,-0.100000)"
fill="#000000" stroke="none">
<path d="M770 1994 c-96 -13 -206 -28 -245 -34 -38 -5 -95 -10 -125 -10 -65 0
-100 -20 -100 -55 0 -44 38 -58 138 -51 48 4 121 13 162 20 41 8 120 19 175
26 200 23 235 34 235 75 0 18 -23 43 -45 48 -11 3 -99 -6 -195 -19z"/>
</g>
</svg>
