<?xml version="1.0" standalone="no"?>
<!DOCTYPE svg PUBLIC "-//W3C//DTD SVG 20010904//EN"
 "http://www.w3.org/TR/2001/REC-SVG-20010904/DTD/svg10.dtd">
<svg version="1.0" xmlns="http://www.w3.org/2000/svg"
 width="248.000000pt" height="248.000000pt" viewBox="0 0 248.000000 248.000000"
 preserveAspectRatio="xMidYMid meet">
<metadata>
Created by potrace 1.10, written by Peter Selinger 2001-2011
</metadata>
<g transform="translate(0.000000,248.000000) scale(0.100000,-0.100000)"
fill="#000000" stroke="none">
<path d="M775 2295 c-44 -8 -136 -26 -205 -40 -97 -21 -241 -46 -377 -65 -15
-2 -18 -208 -17 -1030 2 -917 4 -975 20 -987 25 -18 41 -16 64 7 23 23 21 -41
29 679 l6 535 70 17 c111 26 218 47 390 75 88 14 163 28 167 30 11 7 9 -137
-2 -221 -22 -152 -23 -174 -10 -190 17 -20 53 -19 73 3 22 24 46 172 53 322
10 199 -1 210 -178 179 -62 -11 -119 -22 -127 -25 -12 -4 -13 14 -8 108 4 62
7 197 7 299 0 218 -15 196 145 206 86 5 102 9 122 29 20 20 22 27 13 44 -22
42 -88 49 -235 25z m-156 -362 c-1 -126 -4 -259 -8 -297 l-6 -69 -135 -28
c-74 -15 -144 -31 -156 -34 -20 -6 -21 -3 -27 176 -4 100 -7 235 -7 300 l0
118 58 6 c31 4 104 18 162 30 58 13 108 24 113 24 4 1 6 -101 6 -226z"/>
</g>
</svg>
