<?xml version="1.0" standalone="no"?>
<!DOCTYPE svg PUBLIC "-//W3C//DTD SVG 20010904//EN"
 "http://www.w3.org/TR/2001/REC-SVG-20010904/DTD/svg10.dtd">
<svg version="1.0" xmlns="http://www.w3.org/2000/svg"
 width="248.000000pt" height="248.000000pt" viewBox="0 0 248.000000 248.000000"
 preserveAspectRatio="xMidYMid meet">
<metadata>
Created by potrace 1.10, written by Peter Selinger 2001-2011
</metadata>
<g transform="translate(0.000000,248.000000) scale(0.100000,-0.100000)"
fill="#000000" stroke="none">
<path d="M775 2295 c-44 -8 -136 -26 -205 -40 -97 -21 -241 -46 -377 -65 -15
-2 -18 -208 -17 -1030 2 -917 4 -975 20 -987 24 -18 41 -16 63 6 17 17 19 43
26 277 4 143 5 570 2 951 l-5 691 51 7 c29 3 140 24 247 46 107 23 240 43 295
46 86 5 102 9 122 29 20 20 22 27 13 44 -22 42 -88 49 -235 25z"/>
</g>
</svg>
