<?xml version="1.0" standalone="no"?>
<!DOCTYPE svg PUBLIC "-//W3C//DTD SVG 20010904//EN"
 "http://www.w3.org/TR/2001/REC-SVG-20010904/DTD/svg10.dtd">
<svg version="1.0" xmlns="http://www.w3.org/2000/svg"
 width="248.000000pt" height="248.000000pt" viewBox="0 0 248.000000 248.000000"
 preserveAspectRatio="xMidYMid meet">
<metadata>
Created by potrace 1.10, written by Peter Selinger 2001-2011
</metadata>
<g transform="translate(0.000000,248.000000) scale(0.100000,-0.100000)"
fill="#000000" stroke="none">
<path d="M1113 2319 c-8 -8 -10 -58 -6 -168 2 -86 1 -181 -4 -211 l-8 -55
-100 -12 c-55 -6 -190 -17 -300 -23 -110 -7 -206 -17 -212 -23 -16 -12 -17
-49 -1 -65 8 -8 46 -12 105 -12 88 0 94 -1 102 -23 31 -81 99 -952 84 -1069
l-5 -36 -81 -7 c-45 -4 -93 -8 -107 -10 -37 -5 -227 -18 -285 -20 -71 -2 -73
-3 -85 -25 -14 -26 -5 -57 20 -70 21 -11 234 0 460 25 334 36 633 45 823 25
51 -5 139 -14 197 -20 168 -16 297 -29 413 -41 117 -12 137 -7 137 36 0 46
-38 61 -175 70 -44 3 -138 12 -210 20 -71 7 -161 16 -200 20 -119 10 -147 16
-136 28 17 21 40 118 56 231 9 61 27 167 40 236 13 69 26 159 30 200 3 41 15
127 25 190 10 63 24 158 31 210 7 52 17 101 22 108 6 8 39 12 96 13 123 1 191
12 207 34 17 24 18 36 1 59 -16 22 -26 22 -217 7 -157 -12 -364 -27 -527 -37
l-103 -7 0 194 c0 160 -3 199 -16 217 -16 24 -53 29 -71 11z m517 -507 c0 -10
-11 -95 -25 -188 -14 -93 -32 -227 -40 -297 -8 -71 -22 -159 -31 -195 -8 -37
-22 -117 -30 -179 -8 -62 -23 -145 -33 -185 -11 -41 -17 -86 -14 -101 l5 -27
-290 0 -290 0 -5 33 c-4 17 -9 136 -12 262 -4 148 -17 325 -36 495 -16 146
-30 278 -32 295 l-2 30 90 7 c50 4 150 14 223 23 73 8 208 20 300 25 92 6 172
13 177 15 26 9 45 4 45 -13z"/>
</g>
</svg>
