<?xml version="1.0" standalone="no"?>
<!DOCTYPE svg PUBLIC "-//W3C//DTD SVG 20010904//EN"
 "http://www.w3.org/TR/2001/REC-SVG-20010904/DTD/svg10.dtd">
<svg version="1.0" xmlns="http://www.w3.org/2000/svg"
 width="248.000000pt" height="248.000000pt" viewBox="0 0 248.000000 248.000000"
 preserveAspectRatio="xMidYMid meet">
<metadata>
Created by potrace 1.10, written by Peter Selinger 2001-2011
</metadata>
<g transform="translate(0.000000,248.000000) scale(0.100000,-0.100000)"
fill="#000000" stroke="none">
<path d="M1113 2319 c-8 -8 -10 -58 -6 -168 2 -86 1 -181 -4 -211 l-8 -55
-100 -12 c-55 -6 -190 -17 -300 -23 -110 -7 -206 -17 -212 -23 -16 -12 -17
-49 -1 -65 8 -8 46 -12 105 -12 88 0 94 -1 102 -23 13 -35 69 -563 76 -717 4
-74 7 -195 9 -268 2 -142 6 -152 53 -152 47 0 53 31 43 205 -5 88 -10 207 -10
265 0 58 -14 225 -30 370 -17 146 -31 278 -33 295 l-2 30 90 7 c50 4 151 14
225 23 74 8 203 19 285 25 83 5 169 12 193 15 51 7 50 22 17 -201 -14 -93 -32
-227 -40 -297 -8 -71 -22 -159 -31 -195 -8 -37 -22 -117 -30 -179 -8 -62 -23
-147 -34 -189 -18 -70 -19 -80 -5 -101 17 -25 43 -30 67 -10 22 17 45 98 63
231 9 61 27 167 40 236 13 69 26 159 30 200 3 41 15 127 25 190 10 63 24 158
31 210 7 52 17 101 22 108 6 8 39 12 96 13 123 1 191 12 207 34 17 24 18 36 1
59 -16 22 -26 22 -217 7 -157 -12 -364 -27 -527 -37 l-103 -7 0 194 c0 160 -3
199 -16 217 -16 24 -53 29 -71 11z"/>
</g>
</svg>
