<?xml version="1.0" standalone="no"?>
<!DOCTYPE svg PUBLIC "-//W3C//DTD SVG 20010904//EN"
 "http://www.w3.org/TR/2001/REC-SVG-20010904/DTD/svg10.dtd">
<svg version="1.0" xmlns="http://www.w3.org/2000/svg"
 width="248.000000pt" height="248.000000pt" viewBox="0 0 248.000000 248.000000"
 preserveAspectRatio="xMidYMid meet">
<metadata>
Created by potrace 1.10, written by Peter Selinger 2001-2011
</metadata>
<g transform="translate(0.000000,248.000000) scale(0.100000,-0.100000)"
fill="#000000" stroke="none">
<path d="M1113 2319 c-8 -8 -10 -58 -6 -168 2 -86 1 -181 -4 -211 l-8 -55
-100 -12 c-55 -6 -190 -17 -300 -23 -110 -7 -206 -17 -212 -23 -18 -13 -16
-52 2 -67 20 -16 334 -8 535 15 225 25 535 50 730 60 242 13 271 16 291 36 22
22 24 39 6 63 -16 22 -26 22 -217 7 -157 -12 -364 -27 -527 -37 l-103 -7 0
194 c0 160 -3 199 -16 217 -16 24 -53 29 -71 11z"/>
</g>
</svg>
