<?xml version="1.0" standalone="no"?>
<!DOCTYPE svg PUBLIC "-//W3C//DTD SVG 20010904//EN"
 "http://www.w3.org/TR/2001/REC-SVG-20010904/DTD/svg10.dtd">
<svg version="1.0" xmlns="http://www.w3.org/2000/svg"
 width="248.000000pt" height="248.000000pt" viewBox="0 0 248.000000 248.000000"
 preserveAspectRatio="xMidYMid meet">
<metadata>
Created by potrace 1.10, written by Peter Selinger 2001-2011
</metadata>
<g transform="translate(0.000000,248.000000) scale(0.100000,-0.100000)"
fill="#000000" stroke="none">
<path d="M602 2248 c-21 -21 -13 -59 21 -107 29 -40 79 -123 112 -185 17 -32
40 -41 69 -28 42 19 34 60 -29 168 -88 149 -135 190 -173 152z"/>
<path d="M1591 2213 c-11 -10 -42 -61 -69 -113 -96 -191 -368 -581 -478 -687
-51 -48 -42 -103 16 -103 27 0 91 60 182 170 56 68 326 476 362 547 l26 53 38
-42 c20 -24 120 -129 222 -235 247 -255 447 -418 507 -411 56 7 56 70 1 102
-78 45 -235 181 -386 335 -165 168 -305 318 -332 357 -13 18 -50 44 -63 44 -3
0 -14 -8 -26 -17z"/>
<path d="M985 1849 c-55 -5 -170 -22 -255 -38 -155 -30 -312 -54 -425 -66 -82
-9 -173 -31 -191 -46 -22 -18 -13 -62 16 -76 19 -9 39 -8 90 2 36 7 126 21
200 30 74 9 203 30 285 46 83 16 202 33 265 39 142 13 170 18 193 38 22 20 22
45 -1 65 -20 18 -27 19 -177 6z"/>
<path d="M1885 1574 c-44 -7 -127 -18 -185 -23 -200 -21 -335 -42 -357 -57
-27 -17 -30 -56 -7 -74 19 -17 42 -16 178 4 60 9 130 16 155 16 64 0 330 47
347 61 17 14 18 53 2 66 -23 18 -52 19 -133 7z"/>
<path d="M742 1480 c-235 -37 -302 -52 -327 -72 -46 -36 -24 -95 32 -85 122
21 340 58 396 66 38 5 75 15 83 22 21 17 18 66 -5 79 -25 13 -41 12 -179 -10z"/>
<path d="M2090 1340 c-144 -14 -266 -31 -440 -61 -96 -17 -233 -39 -304 -49
-71 -11 -134 -24 -140 -30 -16 -16 -37 -996 -22 -1030 8 -19 19 -25 41 -25 50
0 56 27 62 299 l6 242 82 12 c44 7 93 12 108 12 l27 0 0 -242 c0 -271 4 -293
55 -293 51 0 55 22 55 302 0 150 4 254 10 258 5 3 38 8 73 12 l65 6 4 -259 c4
-284 10 -316 59 -322 50 -6 51 5 50 312 l-2 284 28 6 c15 3 64 10 108 16 44 5
90 13 103 16 l22 6 0 -288 c0 -224 -3 -285 -12 -276 -20 20 -56 14 -73 -12
-14 -21 -14 -28 -2 -58 27 -62 77 -87 132 -63 60 24 60 29 60 642 0 600 2 575
-55 585 -14 2 -59 1 -100 -2z m48 -267 l-3 -158 -100 -17 c-55 -9 -112 -17
-127 -17 l-28 -1 0 164 0 163 63 10 c34 6 92 11 130 12 l68 1 -3 -157z m-368
-47 l0 -164 -47 -6 c-27 -4 -63 -10 -81 -13 l-33 -5 3 165 3 166 50 9 c28 5
62 10 78 11 l27 1 0 -164z m-263 7 c-4 -58 -7 -129 -7 -158 l0 -51 -67 -12
c-38 -6 -83 -14 -100 -18 l-33 -6 0 165 0 166 58 6 c31 4 62 8 67 10 6 2 28 4
49 4 l39 1 -6 -107z"/>
<path d="M795 1196 c-49 -13 -146 -33 -215 -46 -137 -24 -170 -39 -170 -73 0
-53 38 -58 200 -27 164 31 292 62 323 77 20 10 27 21 27 41 0 58 -27 63 -165
28z"/>
<path d="M725 888 c-77 -15 -180 -35 -230 -44 -127 -22 -135 -29 -135 -112 0
-37 4 -92 9 -122 5 -31 17 -148 26 -260 9 -113 20 -215 25 -227 14 -33 74 -48
139 -34 29 6 93 11 144 11 107 1 163 11 188 37 35 36 95 648 70 715 -24 65
-67 71 -236 36z m135 -95 c-2 -105 -22 -390 -35 -470 -8 -57 -15 -105 -15
-108 0 -3 -37 -5 -83 -5 -46 0 -110 -5 -142 -11 -44 -8 -60 -8 -65 1 -4 7 -11
53 -14 104 -4 50 -12 136 -19 191 -6 55 -11 131 -12 169 l0 68 180 38 c216 45
205 44 205 23z"/>
</g>
</svg>
