<?xml version="1.0" standalone="no"?>
<!DOCTYPE svg PUBLIC "-//W3C//DTD SVG 20010904//EN"
 "http://www.w3.org/TR/2001/REC-SVG-20010904/DTD/svg10.dtd">
<svg version="1.0" xmlns="http://www.w3.org/2000/svg"
 width="248.000000pt" height="248.000000pt" viewBox="0 0 248.000000 248.000000"
 preserveAspectRatio="xMidYMid meet">
<metadata>
Created by potrace 1.10, written by Peter Selinger 2001-2011
</metadata>
<g transform="translate(0.000000,248.000000) scale(0.100000,-0.100000)"
fill="#000000" stroke="none">
<path d="M602 2248 c-21 -21 -13 -59 21 -107 29 -40 79 -123 112 -185 17 -32
40 -41 69 -28 42 19 34 60 -29 168 -88 149 -135 190 -173 152z"/>
<path d="M985 1849 c-55 -5 -170 -22 -255 -38 -155 -30 -312 -54 -425 -66 -82
-9 -173 -31 -191 -46 -22 -18 -13 -62 16 -76 19 -9 39 -8 90 2 36 7 126 21
200 30 74 9 203 30 285 46 83 16 202 33 265 39 142 13 170 18 193 38 22 20 22
45 -1 65 -20 18 -27 19 -177 6z"/>
<path d="M742 1480 c-235 -37 -302 -52 -327 -72 -46 -36 -24 -95 32 -85 122
21 340 58 396 66 38 5 75 15 83 22 21 17 18 66 -5 79 -25 13 -41 12 -179 -10z"/>
<path d="M795 1196 c-49 -13 -146 -33 -215 -46 -137 -24 -170 -39 -170 -73 0
-53 38 -58 200 -27 164 31 292 62 323 77 20 10 27 21 27 41 0 58 -27 63 -165
28z"/>
<path d="M725 888 c-77 -15 -180 -35 -230 -44 -127 -22 -135 -29 -135 -112 0
-37 4 -94 10 -127 5 -33 16 -148 25 -255 9 -107 18 -205 20 -217 6 -28 39 -46
66 -38 44 14 44 55 6 395 -6 58 -11 136 -12 174 l0 68 189 39 c104 21 191 37
193 35 8 -8 -17 -380 -33 -492 -19 -138 -15 -171 22 -180 41 -11 62 19 74 106
5 41 14 104 20 140 16 108 31 445 21 472 -24 65 -67 71 -236 36z"/>
</g>
</svg>
