<?xml version="1.0" standalone="no"?>
<!DOCTYPE svg PUBLIC "-//W3C//DTD SVG 20010904//EN"
 "http://www.w3.org/TR/2001/REC-SVG-20010904/DTD/svg10.dtd">
<svg version="1.0" xmlns="http://www.w3.org/2000/svg"
 width="248.000000pt" height="248.000000pt" viewBox="0 0 248.000000 248.000000"
 preserveAspectRatio="xMidYMid meet">
<metadata>
Created by potrace 1.10, written by Peter Selinger 2001-2011
</metadata>
<g transform="translate(0.000000,248.000000) scale(0.100000,-0.100000)"
fill="#000000" stroke="none">
<path d="M602 2248 c-21 -21 -13 -59 21 -107 29 -40 79 -123 112 -185 17 -32
40 -41 69 -28 42 19 34 60 -29 168 -88 149 -135 190 -173 152z"/>
<path d="M985 1849 c-55 -5 -170 -22 -255 -38 -155 -30 -312 -54 -425 -66 -82
-9 -173 -31 -191 -46 -22 -18 -13 -62 16 -76 19 -9 39 -8 90 2 36 7 126 21
200 30 74 9 203 30 285 46 83 16 202 33 265 39 142 13 170 18 193 38 22 20 22
45 -1 65 -20 18 -27 19 -177 6z"/>
</g>
</svg>
