<?xml version="1.0" standalone="no"?>
<!DOCTYPE svg PUBLIC "-//W3C//DTD SVG 20010904//EN"
 "http://www.w3.org/TR/2001/REC-SVG-20010904/DTD/svg10.dtd">
<svg version="1.0" xmlns="http://www.w3.org/2000/svg"
 width="248.000000pt" height="248.000000pt" viewBox="0 0 248.000000 248.000000"
 preserveAspectRatio="xMidYMid meet">
<metadata>
Created by potrace 1.10, written by Peter Selinger 2001-2011
</metadata>
<g transform="translate(0.000000,248.000000) scale(0.100000,-0.100000)"
fill="#000000" stroke="none">
<path d="M1947 2382 c-10 -10 -17 -21 -17 -24 0 -18 -97 -145 -163 -213 -42
-44 -80 -91 -83 -104 -9 -32 7 -55 41 -59 25 -3 40 8 112 85 145 153 217 277
183 318 -17 20 -53 19 -73 -3z"/>
<path d="M1200 2335 c-14 -17 -10 -71 14 -185 22 -100 34 -127 58 -133 31 -9
68 34 62 70 -23 127 -49 231 -62 246 -19 21 -55 22 -72 2z"/>
<path d="M540 2285 c-23 -27 -9 -110 37 -234 39 -105 50 -121 81 -121 59 0 65
32 23 140 -15 41 -34 100 -41 130 -7 30 -19 65 -26 78 -17 25 -55 29 -74 7z"/>
</g>
</svg>
