<?xml version="1.0" standalone="no"?>
<!DOCTYPE svg PUBLIC "-//W3C//DTD SVG 20010904//EN"
 "http://www.w3.org/TR/2001/REC-SVG-20010904/DTD/svg10.dtd">
<svg version="1.0" xmlns="http://www.w3.org/2000/svg"
 width="248.000000pt" height="248.000000pt" viewBox="0 0 248.000000 248.000000"
 preserveAspectRatio="xMidYMid meet">
<metadata>
Created by potrace 1.10, written by Peter Selinger 2001-2011
</metadata>
<g transform="translate(0.000000,248.000000) scale(0.100000,-0.100000)"
fill="#000000" stroke="none">
<path d="M1947 2382 c-10 -10 -17 -21 -17 -24 0 -18 -97 -145 -163 -213 -42
-44 -80 -91 -83 -104 -9 -32 7 -55 41 -59 25 -3 40 8 112 85 145 153 217 277
183 318 -17 20 -53 19 -73 -3z"/>
<path d="M1200 2335 c-14 -17 -10 -71 14 -185 22 -100 34 -127 58 -133 31 -9
68 34 62 70 -23 127 -49 231 -62 246 -19 21 -55 22 -72 2z"/>
<path d="M540 2285 c-23 -27 -9 -110 37 -234 39 -105 50 -121 81 -121 59 0 65
32 23 140 -15 41 -34 100 -41 130 -7 30 -19 65 -26 78 -17 25 -55 29 -74 7z"/>
<path d="M1785 1940 c-60 -4 -189 -13 -285 -19 -258 -17 -535 -51 -785 -96
-194 -35 -332 -55 -394 -56 -85 -1 -110 -9 -134 -40 -18 -25 -18 -35 -8 -217
6 -105 17 -208 24 -228 15 -46 47 -60 77 -36 22 18 22 19 11 200 -6 100 -14
188 -17 197 -5 12 2 15 32 15 22 0 125 14 229 30 618 99 654 104 920 120 94 6
229 15 300 20 144 10 395 13 395 4 0 -14 -123 -158 -197 -229 -52 -50 -83 -88
-83 -101 0 -30 34 -58 62 -50 56 14 307 298 335 377 15 46 5 82 -29 100 -28
16 -289 21 -453 9z"/>
<path d="M1076 1658 c-9 -12 -16 -37 -16 -55 0 -39 -16 -121 -36 -184 l-15
-46 -77 -13 c-173 -27 -324 -59 -337 -70 -23 -19 -18 -57 8 -75 21 -13 38 -12
186 15 90 17 167 30 173 30 11 0 7 -13 -39 -140 -32 -87 -100 -236 -176 -385
-16 -33 -62 -109 -102 -170 -105 -161 -106 -163 -79 -189 30 -31 61 -20 102
37 141 194 302 513 390 777 l29 85 59 8 c104 13 267 37 342 51 l72 13 0 -110
c0 -60 -5 -139 -11 -176 -45 -277 -172 -657 -240 -717 -42 -37 -55 -36 -104 6
-62 54 -115 51 -115 -6 0 -50 103 -134 165 -134 111 0 190 102 277 360 89 262
129 462 134 661 6 230 -4 241 -181 209 -160 -30 -344 -55 -350 -48 -3 3 3 47
15 99 11 51 20 105 20 119 0 36 -27 70 -55 70 -13 0 -31 -10 -39 -22z"/>
</g>
</svg>
