<?xml version="1.0" standalone="no"?>
<!DOCTYPE svg PUBLIC "-//W3C//DTD SVG 20010904//EN"
 "http://www.w3.org/TR/2001/REC-SVG-20010904/DTD/svg10.dtd">
<svg version="1.0" xmlns="http://www.w3.org/2000/svg"
 width="248.000000pt" height="248.000000pt" viewBox="0 0 248.000000 248.000000"
 preserveAspectRatio="xMidYMid meet">
<metadata>
Created by potrace 1.10, written by Peter Selinger 2001-2011
</metadata>
<g transform="translate(0.000000,248.000000) scale(0.100000,-0.100000)"
fill="#000000" stroke="none">
<path d="M544 2156 c-18 -14 -19 -26 -16 -194 l4 -179 -64 -7 c-35 -3 -95 -13
-133 -21 -39 -8 -98 -15 -132 -15 -65 0 -103 -20 -103 -55 0 -27 38 -55 74
-55 19 0 85 9 148 19 62 11 138 22 168 26 102 13 125 16 235 35 61 10 154 24
207 30 112 14 139 31 122 78 -10 26 -12 27 -84 25 -41 -1 -131 -11 -200 -22
-69 -12 -130 -21 -136 -21 -8 0 -8 16 -2 53 5 28 6 103 2 166 -5 92 -10 117
-25 132 -23 23 -39 24 -65 5z"/>
</g>
</svg>
