<?xml version="1.0" standalone="no"?>
<!DOCTYPE svg PUBLIC "-//W3C//DTD SVG 20010904//EN"
 "http://www.w3.org/TR/2001/REC-SVG-20010904/DTD/svg10.dtd">
<svg version="1.0" xmlns="http://www.w3.org/2000/svg"
 width="248.000000pt" height="248.000000pt" viewBox="0 0 248.000000 248.000000"
 preserveAspectRatio="xMidYMid meet">
<metadata>
Created by potrace 1.10, written by Peter Selinger 2001-2011
</metadata>
<g transform="translate(0.000000,248.000000) scale(0.100000,-0.100000)"
fill="#000000" stroke="none">
<path d="M544 2156 c-18 -14 -19 -26 -16 -194 l4 -179 -64 -7 c-35 -3 -95 -13
-133 -21 -39 -8 -98 -15 -132 -15 -65 0 -103 -20 -103 -55 0 -27 38 -55 74
-55 28 0 123 14 308 45 15 2 30 0 33 -5 3 -5 -6 -42 -20 -82 -15 -40 -49 -153
-76 -251 -73 -264 -123 -373 -269 -592 -77 -115 -84 -132 -65 -161 9 -15 25
-24 40 -24 20 0 37 19 95 104 166 249 224 370 285 596 15 58 31 108 34 112 4
4 54 -7 111 -25 l105 -33 -3 -135 c-8 -322 -103 -668 -228 -821 -35 -43 -64
-61 -64 -40 0 5 -16 27 -36 50 -36 43 -69 53 -92 30 -21 -21 -13 -50 29 -115
49 -74 72 -93 114 -93 46 0 150 115 210 231 100 193 171 523 176 816 3 146 -1
152 -123 192 -51 16 -110 32 -130 36 -21 4 -38 10 -38 14 0 4 11 41 25 81 14
40 25 86 25 102 0 21 6 29 23 32 57 13 201 36 289 47 112 13 139 30 122 77
-10 26 -12 27 -84 25 -41 -1 -131 -11 -200 -22 -69 -12 -130 -21 -136 -21 -8
0 -8 16 -2 53 5 28 6 103 2 166 -5 92 -10 117 -25 132 -23 23 -39 24 -65 5z"/>
</g>
</svg>
