<?xml version="1.0" standalone="no"?>
<!DOCTYPE svg PUBLIC "-//W3C//DTD SVG 20010904//EN"
 "http://www.w3.org/TR/2001/REC-SVG-20010904/DTD/svg10.dtd">
<svg version="1.0" xmlns="http://www.w3.org/2000/svg"
 width="248.000000pt" height="248.000000pt" viewBox="0 0 248.000000 248.000000"
 preserveAspectRatio="xMidYMid meet">
<metadata>
Created by potrace 1.10, written by Peter Selinger 2001-2011
</metadata>
<g transform="translate(0.000000,248.000000) scale(0.100000,-0.100000)"
fill="#000000" stroke="none">
<path d="M1446 2308 c-9 -12 -16 -26 -16 -31 0 -5 -23 -73 -51 -150 -70 -193
-144 -343 -229 -460 -80 -109 -88 -144 -38 -161 38 -13 60 9 160 159 44 66 81
121 83 123 4 4 350 30 354 26 2 -2 -3 -21 -11 -41 -9 -21 -33 -78 -53 -128
-20 -49 -71 -151 -113 -225 -66 -116 -92 -151 -187 -249 -60 -62 -144 -140
-185 -172 -141 -112 -150 -120 -150 -139 0 -25 26 -50 52 -50 30 0 185 120
312 241 l108 103 -6 -389 c-3 -215 -11 -421 -17 -460 -17 -109 -17 -146 3
-158 29 -19 71 3 84 43 21 64 44 421 44 684 l0 258 47 -44 c26 -24 133 -127
237 -229 190 -184 238 -226 389 -330 43 -30 87 -60 97 -67 23 -17 56 -8 70 18
16 31 -6 63 -81 116 -38 27 -100 71 -137 97 -37 27 -159 137 -271 245 -112
108 -208 200 -214 204 -14 9 -17 7 83 64 108 61 177 111 290 210 90 78 112
112 93 143 -23 36 -58 25 -135 -44 -101 -92 -180 -149 -304 -222 l-106 -61
-36 25 c-21 14 -36 29 -34 35 1 5 30 56 63 113 33 57 75 141 93 187 19 46 43
105 55 131 11 27 21 59 21 72 0 31 5 34 102 46 122 15 330 58 355 75 28 18 37
48 23 75 -14 24 -27 24 -180 -10 -118 -26 -342 -57 -475 -65 -55 -4 -131 -9
-168 -12 -68 -6 -69 -6 -57 15 27 51 120 326 120 355 0 18 -5 37 -12 44 -19
19 -55 14 -72 -10z"/>
<path d="M544 2156 c-18 -14 -19 -26 -16 -194 l4 -179 -64 -7 c-35 -3 -95 -13
-133 -21 -39 -8 -98 -15 -132 -15 -65 0 -103 -20 -103 -55 0 -27 38 -55 74
-55 28 0 123 14 308 45 15 2 30 0 33 -5 3 -5 -6 -42 -20 -82 -15 -40 -49 -153
-76 -251 -73 -264 -123 -373 -269 -592 -77 -115 -84 -132 -65 -161 9 -15 25
-24 40 -24 20 0 37 19 95 104 166 249 224 370 285 596 15 58 31 108 34 112 4
4 54 -7 111 -25 l105 -33 -3 -135 c-8 -322 -103 -668 -228 -821 -35 -43 -64
-61 -64 -40 0 20 -73 92 -94 92 -60 0 -60 -49 0 -135 50 -71 68 -85 111 -85
43 0 150 118 208 231 100 193 171 523 176 816 3 146 -1 152 -123 192 -51 16
-110 32 -130 36 -21 4 -38 10 -38 14 0 4 11 41 25 81 14 40 25 86 25 102 0 21
6 29 23 32 57 13 201 36 289 47 112 13 139 30 122 77 -10 26 -12 27 -84 25
-41 -1 -131 -11 -200 -22 -69 -12 -130 -21 -136 -21 -8 0 -8 16 -2 53 5 28 6
103 2 166 -5 92 -10 117 -25 132 -23 23 -39 24 -65 5z"/>
</g>
</svg>
