<?xml version="1.0" standalone="no"?>
<!DOCTYPE svg PUBLIC "-//W3C//DTD SVG 20010904//EN"
 "http://www.w3.org/TR/2001/REC-SVG-20010904/DTD/svg10.dtd">
<svg version="1.0" xmlns="http://www.w3.org/2000/svg"
 width="248.000000pt" height="248.000000pt" viewBox="0 0 248.000000 248.000000"
 preserveAspectRatio="xMidYMid meet">
<metadata>
Created by potrace 1.10, written by Peter Selinger 2001-2011
</metadata>
<g transform="translate(0.000000,248.000000) scale(0.100000,-0.100000)"
fill="#000000" stroke="none">
<path d="M730 2224 c-25 -25 -81 -77 -125 -114 -116 -98 -308 -283 -324 -313
-24 -45 -8 -71 81 -131 46 -30 94 -64 107 -75 l25 -19 -80 -90 c-84 -95 -212
-253 -234 -289 -11 -17 -11 -27 -2 -47 15 -33 37 -33 189 -5 63 12 116 19 118
17 3 -3 1 -227 -5 -498 -11 -546 -11 -540 49 -540 23 0 31 6 39 30 10 27 19
328 26 824 l3 219 69 18 c38 10 96 27 129 38 l60 20 61 -64 c64 -69 89 -78
119 -45 16 17 16 23 4 51 -22 54 -251 269 -286 269 -47 0 -59 -62 -18 -100 14
-13 25 -26 25 -30 0 -3 -39 -16 -87 -29 -49 -12 -119 -31 -158 -42 -38 -10
-90 -22 -114 -25 l-44 -7 28 39 c16 21 66 80 110 130 44 50 122 139 173 197
52 59 97 107 102 107 5 0 22 19 39 42 32 44 40 85 19 106 -27 27 -53 10 -159
-100 l-107 -111 -72 48 c-39 27 -75 54 -81 61 -11 14 25 53 181 189 246 215
286 265 248 303 -25 25 -63 13 -108 -34z"/>
<path d="M246 878 c-8 -13 -24 -66 -36 -118 -12 -52 -42 -160 -66 -240 -40
-133 -42 -146 -28 -167 19 -30 59 -30 79 0 32 49 135 425 135 493 0 17 -5 35
-12 42 -19 19 -56 14 -72 -10z"/>
</g>
</svg>
