<?xml version="1.0" standalone="no"?>
<!DOCTYPE svg PUBLIC "-//W3C//DTD SVG 20010904//EN"
 "http://www.w3.org/TR/2001/REC-SVG-20010904/DTD/svg10.dtd">
<svg version="1.0" xmlns="http://www.w3.org/2000/svg"
 width="248.000000pt" height="248.000000pt" viewBox="0 0 248.000000 248.000000"
 preserveAspectRatio="xMidYMid meet">
<metadata>
Created by potrace 1.10, written by Peter Selinger 2001-2011
</metadata>
<g transform="translate(0.000000,248.000000) scale(0.100000,-0.100000)"
fill="#000000" stroke="none">
<path d="M730 2224 c-25 -25 -81 -77 -125 -114 -116 -98 -308 -283 -324 -313
-22 -42 -7 -73 56 -113 31 -20 86 -58 121 -85 66 -49 106 -61 130 -37 34 34 0
77 -142 176 l-47 32 23 29 c13 15 81 80 153 142 263 231 302 278 263 317 -25
25 -63 13 -108 -34z"/>
</g>
</svg>
