<?xml version="1.0" standalone="no"?>
<!DOCTYPE svg PUBLIC "-//W3C//DTD SVG 20010904//EN"
 "http://www.w3.org/TR/2001/REC-SVG-20010904/DTD/svg10.dtd">
<svg version="1.0" xmlns="http://www.w3.org/2000/svg"
 width="248.000000pt" height="248.000000pt" viewBox="0 0 248.000000 248.000000"
 preserveAspectRatio="xMidYMid meet">
<metadata>
Created by potrace 1.10, written by Peter Selinger 2001-2011
</metadata>
<g transform="translate(0.000000,248.000000) scale(0.100000,-0.100000)"
fill="#000000" stroke="none">
<path d="M730 2224 c-25 -25 -81 -77 -125 -114 -116 -98 -308 -283 -324 -313
-24 -45 -8 -71 81 -131 46 -30 94 -64 107 -75 l25 -19 -80 -90 c-84 -95 -212
-253 -234 -289 -22 -35 0 -73 42 -73 109 0 589 120 630 157 33 30 17 83 -25
83 -10 0 -69 -14 -130 -31 -197 -55 -251 -68 -296 -75 l-44 -7 28 39 c16 21
66 80 110 130 44 50 122 139 173 197 52 59 97 107 102 107 5 0 22 19 39 42 32
44 40 85 19 106 -27 27 -53 10 -159 -100 l-107 -111 -72 48 c-39 27 -75 54
-81 61 -11 14 25 53 181 189 246 215 286 265 248 303 -25 25 -63 13 -108 -34z"/>
</g>
</svg>
