<?xml version="1.0" standalone="no"?>
<!DOCTYPE svg PUBLIC "-//W3C//DTD SVG 20010904//EN"
 "http://www.w3.org/TR/2001/REC-SVG-20010904/DTD/svg10.dtd">
<svg version="1.0" xmlns="http://www.w3.org/2000/svg"
 width="248.000000pt" height="248.000000pt" viewBox="0 0 248.000000 248.000000"
 preserveAspectRatio="xMidYMid meet">
<metadata>
Created by potrace 1.10, written by Peter Selinger 2001-2011
</metadata>
<g transform="translate(0.000000,248.000000) scale(0.100000,-0.100000)"
fill="#000000" stroke="none">
<path d="M1705 2029 c-104 -10 -291 -29 -415 -43 -124 -14 -265 -30 -315 -36
-49 -5 -139 -17 -200 -25 -60 -8 -147 -14 -192 -12 -52 1 -86 -2 -94 -10 -15
-15 -15 -61 0 -76 11 -11 266 -13 301 -2 8 2 76 11 150 20 74 8 212 24 305 34
244 29 569 61 647 64 37 2 74 9 82 16 38 32 2 92 -54 90 -14 -1 -110 -10 -215
-20z"/>
</g>
</svg>
