<?xml version="1.0" standalone="no"?>
<!DOCTYPE svg PUBLIC "-//W3C//DTD SVG 20010904//EN"
 "http://www.w3.org/TR/2001/REC-SVG-20010904/DTD/svg10.dtd">
<svg version="1.0" xmlns="http://www.w3.org/2000/svg"
 width="248.000000pt" height="248.000000pt" viewBox="0 0 248.000000 248.000000"
 preserveAspectRatio="xMidYMid meet">
<metadata>
Created by potrace 1.10, written by Peter Selinger 2001-2011
</metadata>
<g transform="translate(0.000000,248.000000) scale(0.100000,-0.100000)"
fill="#000000" stroke="none">
<path d="M1705 2029 c-104 -10 -291 -29 -415 -43 -124 -14 -265 -30 -315 -36
-49 -5 -139 -17 -200 -25 -60 -8 -147 -14 -192 -12 -89 2 -105 -5 -105 -48 0
-46 12 -49 163 -47 78 1 144 4 148 6 12 8 303 37 309 31 3 -3 7 -34 8 -68 12
-310 12 -367 4 -372 -5 -3 -82 -14 -172 -25 -90 -11 -202 -27 -250 -36 -48 -8
-113 -17 -144 -20 -32 -4 -75 -12 -97 -20 -22 -8 -56 -14 -76 -14 -40 0 -68
-16 -72 -40 -2 -8 2 -37 9 -65 6 -27 14 -86 17 -130 3 -44 10 -125 15 -180 5
-55 12 -143 15 -195 3 -52 9 -131 14 -174 5 -44 7 -89 5 -100 -12 -59 27 -104
73 -83 25 11 34 40 28 93 -2 22 -9 109 -15 194 -6 85 -15 205 -20 265 -6 61
-13 156 -16 212 l-7 102 54 15 c30 8 77 18 104 21 28 4 86 13 130 20 88 15
307 43 370 47 l40 3 4 -145 c6 -207 5 -320 -5 -330 -5 -5 -67 -21 -138 -35
-106 -22 -130 -24 -137 -13 -5 7 -8 63 -7 125 1 90 -2 116 -16 137 -18 28 -56
35 -74 14 -17 -21 -6 -368 12 -386 12 -13 27 -13 98 -2 46 6 112 19 147 27 71
16 427 61 475 59 22 -1 32 -6 34 -21 6 -30 22 -45 47 -45 33 0 47 23 46 77 -2
175 -15 365 -26 379 -13 19 -61 22 -78 5 -8 -8 -11 -53 -9 -145 3 -91 0 -136
-8 -141 -9 -6 -140 -22 -230 -28 -25 -2 -25 -1 -27 88 -1 50 -3 154 -6 232 -2
78 -1 147 3 152 15 25 829 59 885 38 13 -6 15 -16 10 -54 -19 -148 -25 -198
-35 -298 -26 -258 -61 -417 -118 -538 l-27 -57 -67 45 c-37 25 -76 45 -86 45
-26 0 -42 -20 -42 -52 0 -22 11 -35 58 -67 31 -21 71 -51 87 -65 35 -30 85
-34 107 -9 27 32 75 138 106 234 38 117 57 221 77 414 9 83 18 164 20 181 12
81 25 213 25 247 0 36 -3 39 -45 58 -41 18 -67 20 -251 20 -112 0 -208 -2
-212 -4 -6 -4 -260 -15 -462 -21 l-35 -1 -1 105 c-1 58 -4 155 -7 216 -3 60
-3 115 1 121 4 5 32 13 62 16 184 21 557 57 617 60 40 2 79 9 87 16 38 32 2
92 -54 90 -14 -1 -110 -10 -215 -20z"/>
</g>
</svg>
