<?xml version="1.0" standalone="no"?>
<!DOCTYPE svg PUBLIC "-//W3C//DTD SVG 20010904//EN"
 "http://www.w3.org/TR/2001/REC-SVG-20010904/DTD/svg10.dtd">
<svg version="1.0" xmlns="http://www.w3.org/2000/svg"
 width="248.000000pt" height="248.000000pt" viewBox="0 0 248.000000 248.000000"
 preserveAspectRatio="xMidYMid meet">
<metadata>
Created by potrace 1.10, written by Peter Selinger 2001-2011
</metadata>
<g transform="translate(0.000000,248.000000) scale(0.100000,-0.100000)"
fill="#000000" stroke="none">
<path d="M998 2069 c-10 -5 -36 -36 -57 -67 -22 -31 -90 -111 -151 -177 -61
-66 -114 -131 -117 -144 -8 -32 8 -55 39 -59 21 -3 44 17 136 115 117 125 232
268 232 290 0 17 -36 53 -52 53 -7 0 -21 -5 -30 -11z"/>
<path d="M162 1868 c-21 -21 -13 -44 65 -188 60 -109 82 -142 101 -147 31 -7
56 7 60 36 4 24 -110 249 -145 287 -24 26 -62 31 -81 12z"/>
</g>
</svg>
