<?xml version="1.0" standalone="no"?>
<!DOCTYPE svg PUBLIC "-//W3C//DTD SVG 20010904//EN"
 "http://www.w3.org/TR/2001/REC-SVG-20010904/DTD/svg10.dtd">
<svg version="1.0" xmlns="http://www.w3.org/2000/svg"
 width="248.000000pt" height="248.000000pt" viewBox="0 0 248.000000 248.000000"
 preserveAspectRatio="xMidYMid meet">
<metadata>
Created by potrace 1.10, written by Peter Selinger 2001-2011
</metadata>
<g transform="translate(0.000000,248.000000) scale(0.100000,-0.100000)"
fill="#000000" stroke="none">
<path d="M1705 2029 c-104 -10 -291 -29 -415 -43 -124 -14 -265 -30 -315 -36
-49 -5 -139 -17 -200 -25 -60 -8 -147 -14 -192 -12 -52 1 -86 -2 -94 -10 -15
-15 -15 -61 0 -76 11 -11 266 -13 301 -2 8 2 76 11 150 20 74 8 212 24 305 34
244 29 569 61 647 64 37 2 74 9 82 16 38 32 2 92 -54 90 -14 -1 -110 -10 -215
-20z"/>
<path d="M1780 1449 c-69 -4 -204 -10 -300 -13 -234 -9 -570 -44 -792 -82 -48
-8 -113 -17 -144 -20 -32 -4 -75 -12 -97 -20 -22 -8 -56 -14 -76 -14 -40 0
-68 -16 -72 -40 -2 -8 2 -37 9 -65 6 -27 14 -86 17 -130 3 -44 10 -125 15
-180 5 -55 12 -143 15 -195 3 -52 9 -131 14 -174 5 -44 7 -89 5 -100 -12 -59
27 -104 73 -83 25 11 34 40 28 93 -2 22 -9 109 -15 194 -6 85 -15 205 -20 265
-6 61 -13 156 -16 212 l-7 102 54 15 c30 8 74 17 99 21 25 3 86 13 135 21 357
57 936 101 1292 98 123 -1 126 -3 118 -61 -19 -148 -25 -198 -35 -298 -26
-258 -61 -417 -118 -538 l-27 -57 -67 45 c-37 25 -76 45 -86 45 -26 0 -42 -20
-42 -52 0 -22 11 -35 58 -67 31 -21 71 -51 87 -65 35 -30 85 -34 107 -8 27 31
75 137 106 233 38 117 57 221 77 414 9 83 18 164 20 181 12 81 25 213 25 247
0 35 -3 40 -42 57 -50 22 -200 29 -398 19z"/>
</g>
</svg>
