<?xml version="1.0" standalone="no"?>
<!DOCTYPE svg PUBLIC "-//W3C//DTD SVG 20010904//EN"
 "http://www.w3.org/TR/2001/REC-SVG-20010904/DTD/svg10.dtd">
<svg version="1.0" xmlns="http://www.w3.org/2000/svg"
 width="248.000000pt" height="248.000000pt" viewBox="0 0 248.000000 248.000000"
 preserveAspectRatio="xMidYMid meet">
<metadata>
Created by potrace 1.10, written by Peter Selinger 2001-2011
</metadata>
<g transform="translate(0.000000,248.000000) scale(0.100000,-0.100000)"
fill="#000000" stroke="none">
<path d="M1165 2358 c-13 -19 -14 -41 -9 -126 6 -81 4 -106 -6 -112 -7 -5 -59
-13 -114 -20 -184 -21 -317 -41 -342 -50 -34 -13 -45 -49 -35 -112 5 -29 12
-432 15 -894 4 -627 8 -848 17 -868 19 -40 54 -44 99 -10 148 110 280 239 280
273 0 11 -11 28 -25 37 -31 20 -37 17 -160 -95 l-90 -83 -7 264 c-5 144 -7
367 -5 493 l2 230 85 7 c97 8 288 31 500 59 79 10 160 19 180 19 66 0 66 0
129 255 16 66 46 198 67 294 32 152 35 178 25 213 -17 55 -42 62 -166 48 -55
-6 -129 -15 -165 -20 -36 -5 -88 -12 -116 -15 l-52 -7 -7 99 c-4 56 -13 108
-21 121 -19 29 -58 29 -79 0z m500 -320 c-4 -24 -13 -68 -21 -98 -8 -30 -14
-62 -14 -71 0 -16 -58 -29 -190 -43 -48 -5 -436 -57 -611 -82 l-46 -6 -6 108
c-5 78 -4 110 5 115 6 4 43 10 82 14 67 6 370 48 481 66 28 4 97 13 155 19 58
6 110 13 115 15 6 2 21 4 33 4 22 1 23 -2 17 -41z m-65 -302 c0 -2 -10 -49
-23 -103 -28 -117 -45 -155 -72 -159 -11 -1 -72 -9 -135 -18 -161 -22 -352
-44 -440 -51 -41 -3 -92 -8 -112 -11 l-38 -6 0 120 0 120 93 16 c81 13 166 25
497 66 41 5 102 13 135 18 76 11 95 13 95 8z"/>
<path d="M1700 1222 c-31 -22 -87 -57 -125 -77 -39 -21 -77 -43 -85 -49 -44
-35 -162 -98 -170 -90 -4 5 -31 52 -59 104 -29 52 -59 102 -68 112 -31 35 -83
17 -83 -28 0 -47 218 -423 260 -449 5 -3 42 -50 82 -103 39 -53 87 -117 105
-142 58 -77 198 -223 254 -266 64 -48 187 -104 228 -104 30 0 61 22 61 44 0
24 -25 45 -78 66 -160 62 -234 131 -456 424 -54 72 -113 147 -131 168 -62 69
-62 72 3 109 31 18 75 45 97 59 22 15 70 43 107 63 136 70 197 134 171 176
-19 30 -56 24 -113 -17z"/>
</g>
</svg>
