<?xml version="1.0" standalone="no"?>
<!DOCTYPE svg PUBLIC "-//W3C//DTD SVG 20010904//EN"
 "http://www.w3.org/TR/2001/REC-SVG-20010904/DTD/svg10.dtd">
<svg version="1.0" xmlns="http://www.w3.org/2000/svg"
 width="248.000000pt" height="248.000000pt" viewBox="0 0 248.000000 248.000000"
 preserveAspectRatio="xMidYMid meet">
<metadata>
Created by potrace 1.10, written by Peter Selinger 2001-2011
</metadata>
<g transform="translate(0.000000,248.000000) scale(0.100000,-0.100000)"
fill="#000000" stroke="none">
<path d="M870 2279 c-19 -12 -48 -34 -65 -49 -90 -84 -324 -243 -420 -285 -65
-29 -79 -46 -71 -87 23 -117 27 -167 22 -297 -3 -79 -13 -181 -23 -226 -19
-92 -12 -115 32 -115 22 0 280 118 490 224 61 31 115 56 120 56 6 0 30 -31 55
-68 46 -69 76 -86 106 -62 36 30 -1 108 -111 235 -29 33 -69 86 -88 117 -52
81 -102 109 -135 76 -15 -15 -16 -55 -1 -63 11 -7 99 -141 99 -151 0 -8 -425
-214 -441 -214 -12 0 -14 43 -12 242 l2 241 28 12 c64 27 248 155 419 290 28
22 58 45 66 50 27 17 31 52 9 74 -26 26 -37 26 -81 0z"/>
<path d="M1855 2153 c-101 -5 -424 -34 -534 -48 -105 -14 -118 -18 -121 -45
-9 -65 13 -74 137 -56 114 17 190 22 198 14 15 -14 -143 -381 -204 -472 -66
-100 -81 -129 -81 -159 0 -48 57 -65 85 -24 37 52 116 180 136 218 35 69 147
343 164 402 l16 55 82 6 c244 19 362 22 362 10 -4 -63 -56 -314 -81 -391 -20
-61 -105 -253 -120 -271 -1 -2 -28 21 -58 52 -67 67 -101 79 -128 46 -10 -12
-18 -27 -18 -33 0 -6 40 -50 88 -99 132 -131 152 -125 250 73 62 127 104 254
127 379 10 52 24 124 32 160 22 99 27 159 13 175 -10 12 -39 15 -149 13 -75
-1 -163 -3 -196 -5z"/>
</g>
</svg>
