<?xml version="1.0" standalone="no"?>
<!DOCTYPE svg PUBLIC "-//W3C//DTD SVG 20010904//EN"
 "http://www.w3.org/TR/2001/REC-SVG-20010904/DTD/svg10.dtd">
<svg version="1.0" xmlns="http://www.w3.org/2000/svg"
 width="248.000000pt" height="248.000000pt" viewBox="0 0 248.000000 248.000000"
 preserveAspectRatio="xMidYMid meet">
<metadata>
Created by potrace 1.10, written by Peter Selinger 2001-2011
</metadata>
<g transform="translate(0.000000,248.000000) scale(0.100000,-0.100000)"
fill="#000000" stroke="none">
<path d="M1422 2378 c-7 -7 -12 -43 -12 -92 0 -98 -17 -267 -28 -278 -4 -4
-68 -15 -142 -23 -362 -42 -370 -44 -370 -90 0 -43 20 -48 142 -36 164 16 365
40 428 51 30 5 123 17 205 25 309 30 439 45 457 51 31 9 42 42 23 70 -8 13
-23 24 -33 24 -17 0 -185 -17 -452 -44 -74 -8 -137 -12 -139 -10 -2 2 -3 78
-2 169 2 116 -1 171 -10 181 -14 17 -51 18 -67 2z"/>
<path d="M422 2233 c-22 -9 -33 -40 -22 -67 6 -17 32 -36 84 -61 42 -20 101
-52 133 -71 59 -35 100 -43 121 -22 17 17 15 53 -5 70 -20 18 -281 158 -291
157 -4 0 -13 -3 -20 -6z"/>
<path d="M142 1478 c-16 -16 -15 -53 1 -66 13 -11 294 -82 325 -82 41 0 57 54
25 82 -19 17 -40 23 -185 57 -99 24 -149 26 -166 9z"/>
<path d="M536 1088 c-8 -13 -39 -93 -69 -179 -64 -180 -134 -351 -218 -530
-62 -132 -65 -153 -23 -169 38 -15 53 -2 93 79 49 97 169 379 211 496 18 50
45 125 61 168 31 85 36 126 17 145 -19 19 -56 14 -72 -10z"/>
</g>
</svg>
