<?xml version="1.0" standalone="no"?>
<!DOCTYPE svg PUBLIC "-//W3C//DTD SVG 20010904//EN"
 "http://www.w3.org/TR/2001/REC-SVG-20010904/DTD/svg10.dtd">
<svg version="1.0" xmlns="http://www.w3.org/2000/svg"
 width="248.000000pt" height="248.000000pt" viewBox="0 0 248.000000 248.000000"
 preserveAspectRatio="xMidYMid meet">
<metadata>
Created by potrace 1.10, written by Peter Selinger 2001-2011
</metadata>
<g transform="translate(0.000000,248.000000) scale(0.100000,-0.100000)"
fill="#000000" stroke="none">
<path d="M1422 2378 c-7 -7 -12 -43 -12 -92 0 -98 -17 -267 -28 -278 -4 -4
-68 -15 -142 -23 -362 -42 -370 -44 -370 -90 0 -44 19 -48 152 -35 202 21 230
22 227 13 -4 -9 -82 -130 -137 -212 -20 -29 -73 -93 -119 -142 -46 -49 -83
-95 -83 -102 0 -7 6 -21 13 -31 15 -21 27 -20 177 12 52 11 163 32 245 47 83
14 179 34 215 44 54 16 193 53 250 67 10 3 44 -31 93 -91 49 -59 85 -95 97
-95 26 0 50 27 50 55 0 55 -342 415 -393 415 -30 0 -47 -18 -47 -49 0 -17 19
-43 68 -88 37 -34 64 -63 60 -63 -4 0 -73 -18 -155 -39 -125 -34 -209 -51
-415 -86 -37 -6 -35 8 6 58 19 23 50 69 69 103 20 33 54 85 77 115 23 31 40
65 40 80 0 25 4 27 71 38 39 6 137 18 217 26 310 31 436 45 454 51 31 9 42 42
23 70 -8 13 -23 24 -33 24 -17 0 -185 -17 -452 -44 -74 -8 -137 -12 -139 -10
-2 2 -3 78 -2 169 2 116 -1 171 -10 181 -14 17 -51 18 -67 2z"/>
<path d="M422 2233 c-22 -9 -33 -40 -22 -67 6 -17 32 -36 84 -61 42 -20 101
-52 133 -71 59 -35 100 -43 121 -22 17 17 15 53 -5 70 -20 18 -281 158 -291
157 -4 0 -13 -3 -20 -6z"/>
<path d="M142 1478 c-16 -16 -15 -53 1 -66 13 -11 294 -82 325 -82 41 0 57 54
25 82 -19 17 -40 23 -185 57 -99 24 -149 26 -166 9z"/>
<path d="M1331 1241 c-12 -12 -21 -39 -25 -73 -25 -244 -39 -438 -43 -573 -4
-141 -3 -163 12 -175 12 -10 24 -11 43 -4 24 8 27 15 29 59 3 67 41 495 54
615 14 130 13 142 -7 157 -25 18 -41 16 -63 -6z"/>
<path d="M972 1198 c-16 -16 -15 -39 4 -78 34 -68 -5 -348 -79 -565 -30 -87
-110 -260 -126 -269 -15 -9 -14 -59 1 -74 40 -40 90 7 155 147 141 303 209
746 128 827 -26 26 -64 31 -83 12z"/>
<path d="M536 1088 c-8 -13 -39 -93 -69 -179 -64 -180 -134 -351 -218 -530
-62 -132 -65 -153 -23 -169 38 -15 53 -2 93 79 49 97 169 379 211 496 18 50
45 125 61 168 31 85 36 126 17 145 -19 19 -56 14 -72 -10z"/>
</g>
</svg>
