<?xml version="1.0" standalone="no"?>
<!DOCTYPE svg PUBLIC "-//W3C//DTD SVG 20010904//EN"
 "http://www.w3.org/TR/2001/REC-SVG-20010904/DTD/svg10.dtd">
<svg version="1.0" xmlns="http://www.w3.org/2000/svg"
 width="248.000000pt" height="248.000000pt" viewBox="0 0 248.000000 248.000000"
 preserveAspectRatio="xMidYMid meet">
<metadata>
Created by potrace 1.10, written by Peter Selinger 2001-2011
</metadata>
<g transform="translate(0.000000,248.000000) scale(0.100000,-0.100000)"
fill="#000000" stroke="none">
<path d="M782 2398 c-8 -8 -12 -55 -12 -144 0 -108 -3 -133 -15 -138 -8 -3
-75 -11 -147 -17 -73 -7 -139 -17 -145 -22 -19 -14 -16 -51 5 -70 22 -20 131
-23 229 -6 35 6 66 9 69 7 2 -3 1 -52 -2 -109 l-7 -104 -116 -24 c-64 -13
-158 -30 -209 -37 -51 -7 -104 -20 -118 -29 l-25 -16 6 -127 c9 -183 59 -555
78 -579 12 -16 59 -17 75 -1 16 16 15 58 -2 165 -22 140 -35 250 -41 371 l-7
112 41 0 c22 0 101 14 174 30 74 17 137 30 141 30 3 0 6 -103 6 -229 0 -190
-2 -231 -15 -241 -8 -7 -20 -31 -26 -54 -13 -49 -125 -301 -170 -383 -85 -155
-150 -256 -222 -345 -62 -77 -78 -104 -75 -125 2 -20 11 -30 32 -38 27 -9 32
-6 83 50 107 117 181 234 310 485 l85 165 -7 -345 c-3 -190 -8 -389 -11 -442
-4 -90 -3 -98 16 -108 25 -13 57 -5 69 18 15 29 33 307 40 603 l6 287 98 -109
c53 -60 111 -116 128 -124 28 -15 33 -15 55 0 42 27 31 53 -69 155 -51 52
-105 113 -121 135 -16 22 -44 56 -63 76 l-33 35 2 279 3 278 100 17 c55 10
126 20 158 24 l57 6 -1 -72 c-1 -128 -29 -427 -45 -481 -5 -15 -9 -15 -50 9
-50 29 -89 27 -99 -6 -10 -33 4 -57 48 -83 23 -14 55 -39 71 -56 34 -35 74
-41 99 -13 27 30 72 354 83 595 9 219 1 232 -134 211 -42 -6 -113 -17 -157
-23 -44 -7 -92 -14 -107 -17 l-28 -6 1 79 c1 43 4 92 8 108 7 33 -15 27 236
64 92 13 122 33 111 76 -4 14 -14 29 -23 32 -14 5 -198 -16 -294 -34 l-26 -5
-5 116 c-4 93 -9 121 -23 136 -20 22 -55 26 -73 8z"/>
</g>
</svg>
