<?xml version="1.0" standalone="no"?>
<!DOCTYPE svg PUBLIC "-//W3C//DTD SVG 20010904//EN"
 "http://www.w3.org/TR/2001/REC-SVG-20010904/DTD/svg10.dtd">
<svg version="1.0" xmlns="http://www.w3.org/2000/svg"
 width="248.000000pt" height="248.000000pt" viewBox="0 0 248.000000 248.000000"
 preserveAspectRatio="xMidYMid meet">
<metadata>
Created by potrace 1.10, written by Peter Selinger 2001-2011
</metadata>
<g transform="translate(0.000000,248.000000) scale(0.100000,-0.100000)"
fill="#000000" stroke="none">
<path d="M1070 2169 c-208 -37 -429 -69 -505 -75 -97 -7 -115 -15 -115 -49 0
-64 92 -71 360 -25 159 27 225 37 347 55 54 8 80 36 67 73 -8 24 -15 27 -54
29 -25 0 -70 -3 -100 -8z"/>
<path d="M301 1696 c-9 -11 -11 -50 -6 -138 9 -180 59 -551 78 -575 12 -16 59
-17 75 -1 16 16 15 59 -2 165 -17 106 -32 236 -45 402 -8 92 -14 128 -27 142
-20 23 -57 25 -73 5z"/>
</g>
</svg>
