<?xml version="1.0" standalone="no"?>
<!DOCTYPE svg PUBLIC "-//W3C//DTD SVG 20010904//EN"
 "http://www.w3.org/TR/2001/REC-SVG-20010904/DTD/svg10.dtd">
<svg version="1.0" xmlns="http://www.w3.org/2000/svg"
 width="248.000000pt" height="248.000000pt" viewBox="0 0 248.000000 248.000000"
 preserveAspectRatio="xMidYMid meet">
<metadata>
Created by potrace 1.10, written by Peter Selinger 2001-2011
</metadata>
<g transform="translate(0.000000,248.000000) scale(0.100000,-0.100000)"
fill="#000000" stroke="none">
<path d="M1173 2378 c-6 -7 -14 -74 -18 -148 -4 -74 -10 -157 -13 -184 l-7
-49 -110 -18 c-60 -9 -173 -27 -250 -38 -77 -12 -169 -26 -204 -32 -45 -8 -66
-8 -74 0 -15 15 -52 14 -65 -1 -5 -7 -15 -62 -21 -122 -6 -60 -19 -149 -28
-198 -19 -99 -14 -121 30 -126 18 -2 30 4 41 20 17 26 42 141 52 241 3 37 10
69 14 72 9 6 92 20 260 45 74 11 178 26 230 35 90 14 179 24 400 44 401 38
800 37 800 -1 0 -14 -174 -184 -238 -233 -74 -56 -83 -115 -20 -123 20 -2 47
14 114 71 189 158 297 298 272 353 -6 13 -18 26 -27 29 -92 28 -472 33 -817
10 -122 -8 -228 -17 -236 -20 -14 -5 -15 16 -10 174 5 193 2 211 -43 211 -12
0 -27 -6 -32 -12z"/>
<path d="M1709 1585 c-3 -3 -57 -12 -120 -20 -63 -8 -168 -21 -234 -30 -167
-21 -428 -45 -500 -45 -69 0 -105 -19 -105 -54 0 -44 14 -47 206 -36 106 5
182 6 188 0 28 -28 25 -563 -5 -799 -11 -92 1 -126 46 -126 42 0 52 28 59 172
9 186 18 267 29 274 5 4 75 12 156 19 272 23 375 64 315 124 -20 20 -54 20
-129 1 -71 -19 -334 -40 -345 -28 -4 4 -10 92 -13 195 l-6 187 32 6 c18 3 70
10 117 15 364 45 374 47 396 71 14 15 16 26 8 47 -8 22 -16 27 -50 30 -22 2
-42 0 -45 -3z"/>
</g>
</svg>
