<?xml version="1.0" standalone="no"?>
<!DOCTYPE svg PUBLIC "-//W3C//DTD SVG 20010904//EN"
 "http://www.w3.org/TR/2001/REC-SVG-20010904/DTD/svg10.dtd">
<svg version="1.0" xmlns="http://www.w3.org/2000/svg"
 width="248.000000pt" height="248.000000pt" viewBox="0 0 248.000000 248.000000"
 preserveAspectRatio="xMidYMid meet">
<metadata>
Created by potrace 1.10, written by Peter Selinger 2001-2011
</metadata>
<g transform="translate(0.000000,248.000000) scale(0.100000,-0.100000)"
fill="#000000" stroke="none">
<path d="M1173 2378 c-6 -7 -14 -74 -18 -148 -4 -74 -10 -157 -13 -184 l-7
-49 -110 -18 c-60 -9 -173 -27 -250 -38 -77 -12 -169 -26 -204 -32 -45 -8 -66
-8 -74 0 -15 15 -52 14 -65 -1 -5 -7 -15 -62 -21 -122 -6 -60 -19 -149 -28
-198 -19 -99 -14 -121 30 -126 18 -2 30 4 41 20 17 26 42 141 52 241 3 37 10
69 14 72 9 6 92 20 260 45 74 11 178 26 230 35 90 14 179 24 400 44 401 38
800 37 800 -1 0 -14 -174 -184 -238 -233 -74 -56 -83 -115 -20 -123 20 -2 47
14 114 71 189 158 297 298 272 353 -6 13 -18 26 -27 29 -92 28 -472 33 -817
10 -122 -8 -228 -17 -236 -20 -14 -5 -15 16 -10 174 5 193 2 211 -43 211 -12
0 -27 -6 -32 -12z"/>
</g>
</svg>
