<?xml version="1.0" standalone="no"?>
<!DOCTYPE svg PUBLIC "-//W3C//DTD SVG 20010904//EN"
 "http://www.w3.org/TR/2001/REC-SVG-20010904/DTD/svg10.dtd">
<svg version="1.0" xmlns="http://www.w3.org/2000/svg"
 width="248.000000pt" height="248.000000pt" viewBox="0 0 248.000000 248.000000"
 preserveAspectRatio="xMidYMid meet">
<metadata>
Created by potrace 1.10, written by Peter Selinger 2001-2011
</metadata>
<g transform="translate(0.000000,248.000000) scale(0.100000,-0.100000)"
fill="#000000" stroke="none">
<path d="M1146 2388 c-24 -34 -24 -563 0 -596 21 -31 64 -26 81 8 8 16 13 72
13 162 0 121 2 137 18 142 9 2 96 8 192 11 96 4 184 9 195 12 31 8 55 34 55
58 0 45 -18 48 -198 41 -92 -4 -188 -9 -214 -13 l-48 -6 0 79 c0 89 -15 124
-55 124 -13 0 -31 -10 -39 -22z"/>
<path d="M654 2145 c-22 -33 -17 -334 6 -380 17 -34 59 -45 80 -21 19 24 14
373 -6 404 -20 30 -59 29 -80 -3z"/>
</g>
</svg>
