<?xml version="1.0" standalone="no"?>
<!DOCTYPE svg PUBLIC "-//W3C//DTD SVG 20010904//EN"
 "http://www.w3.org/TR/2001/REC-SVG-20010904/DTD/svg10.dtd">
<svg version="1.0" xmlns="http://www.w3.org/2000/svg"
 width="248.000000pt" height="248.000000pt" viewBox="0 0 248.000000 248.000000"
 preserveAspectRatio="xMidYMid meet">
<metadata>
Created by potrace 1.10, written by Peter Selinger 2001-2011
</metadata>
<g transform="translate(0.000000,248.000000) scale(0.100000,-0.100000)"
fill="#000000" stroke="none">
<path d="M1146 2388 c-14 -19 -16 -63 -16 -280 0 -240 -1 -257 -18 -262 -16
-6 -280 -25 -339 -26 -23 0 -23 1 -23 153 0 167 -8 197 -55 197 -47 0 -55 -30
-55 -201 l0 -157 -62 -6 c-35 -3 -141 -12 -236 -20 -185 -15 -212 -24 -212
-71 0 -52 8 -52 325 -25 61 5 214 16 340 25 127 8 282 19 345 25 125 11 393
24 781 40 136 5 258 14 272 19 52 20 55 73 6 90 -19 6 -101 7 -241 1 -521 -23
-665 -30 -690 -36 l-28 -6 0 125 c0 111 2 126 18 131 9 2 96 8 192 11 96 4
184 9 195 12 31 8 55 34 55 58 0 45 -18 48 -198 41 -92 -4 -188 -9 -214 -13
l-48 -6 0 79 c0 89 -15 124 -55 124 -13 0 -31 -10 -39 -22z"/>
<path d="M309 1483 c-11 -13 -13 -72 -11 -312 4 -292 1 -344 -38 -642 -11 -85
-83 -341 -105 -372 -32 -46 -10 -91 42 -85 41 5 64 48 111 209 73 251 105 539
98 870 -5 241 -11 315 -28 337 -15 17 -53 15 -69 -5z"/>
</g>
</svg>
