<?xml version="1.0" standalone="no"?>
<!DOCTYPE svg PUBLIC "-//W3C//DTD SVG 20010904//EN"
 "http://www.w3.org/TR/2001/REC-SVG-20010904/DTD/svg10.dtd">
<svg version="1.0" xmlns="http://www.w3.org/2000/svg"
 width="248.000000pt" height="248.000000pt" viewBox="0 0 248.000000 248.000000"
 preserveAspectRatio="xMidYMid meet">
<metadata>
Created by potrace 1.10, written by Peter Selinger 2001-2011
</metadata>
<g transform="translate(0.000000,248.000000) scale(0.100000,-0.100000)"
fill="#000000" stroke="none">
<path d="M1146 2388 c-14 -19 -16 -63 -16 -280 0 -240 -1 -257 -18 -262 -16
-6 -280 -25 -339 -26 -23 0 -23 1 -23 153 0 167 -8 197 -55 197 -47 0 -55 -30
-55 -201 l0 -157 -62 -6 c-35 -3 -141 -12 -236 -20 -185 -15 -212 -24 -212
-71 0 -52 8 -52 325 -25 61 5 214 16 340 25 127 8 282 19 345 25 125 11 393
24 781 40 136 5 258 14 272 19 52 20 55 73 6 90 -19 6 -101 7 -241 1 -521 -23
-665 -30 -690 -36 l-28 -6 0 125 c0 111 2 126 18 131 9 2 96 8 192 11 96 4
184 9 195 12 31 8 55 34 55 58 0 45 -18 48 -198 41 -92 -4 -188 -9 -214 -13
l-48 -6 0 79 c0 89 -15 124 -55 124 -13 0 -31 -10 -39 -22z"/>
<path d="M1925 1650 c-215 -15 -421 -32 -565 -45 -85 -8 -198 -17 -250 -20
-52 -3 -131 -10 -175 -15 -44 -6 -190 -19 -325 -29 -243 -19 -290 -28 -306
-53 -5 -7 -7 -148 -5 -313 3 -296 -1 -350 -39 -646 -11 -85 -83 -341 -105
-372 -32 -46 -10 -91 42 -85 41 5 64 48 111 209 73 251 105 540 100 890 -3
236 -2 249 15 249 27 0 234 17 472 40 317 29 761 65 1005 80 80 5 160 12 177
15 49 9 69 58 37 89 -16 17 -31 17 -189 6z"/>
<path d="M1036 1309 c-49 -4 -100 -10 -114 -14 -35 -9 -288 -35 -337 -35 -78
0 -114 -60 -59 -96 23 -16 37 -16 157 -5 73 7 137 14 143 16 16 5 24 -183 24
-549 -1 -231 -3 -306 -12 -291 -27 50 -69 59 -94 20 -16 -25 -16 -28 7 -76 31
-67 89 -119 132 -119 80 1 80 -2 76 555 l-4 480 50 3 c81 4 178 22 203 38 24
16 29 53 10 72 -13 13 -47 13 -182 1z"/>
<path d="M581 856 c-7 -8 -17 -45 -22 -82 -13 -95 -33 -174 -68 -280 -37 -111
-38 -119 -7 -139 30 -20 59 -8 80 33 22 43 72 218 91 323 16 83 16 99 4 125
-16 33 -58 44 -78 20z"/>
<path d="M1022 848 c-7 -7 -12 -21 -11 -32 0 -12 44 -106 97 -211 80 -157 101
-191 120 -193 29 -4 62 24 62 52 0 12 -23 64 -50 116 -28 52 -65 127 -84 166
-19 40 -43 81 -55 93 -23 23 -60 28 -79 9z"/>
</g>
</svg>
