<?xml version="1.0" standalone="no"?>
<!DOCTYPE svg PUBLIC "-//W3C//DTD SVG 20010904//EN"
 "http://www.w3.org/TR/2001/REC-SVG-20010904/DTD/svg10.dtd">
<svg version="1.0" xmlns="http://www.w3.org/2000/svg"
 width="248.000000pt" height="248.000000pt" viewBox="0 0 248.000000 248.000000"
 preserveAspectRatio="xMidYMid meet">
<metadata>
Created by potrace 1.10, written by Peter Selinger 2001-2011
</metadata>
<g transform="translate(0.000000,248.000000) scale(0.100000,-0.100000)"
fill="#000000" stroke="none">
<path d="M664 2343 c-102 -141 -144 -194 -184 -239 -85 -95 -150 -186 -150
-210 0 -13 8 -31 18 -39 9 -8 86 -80 170 -160 85 -80 165 -148 179 -151 34 -9
57 6 61 40 4 29 13 18 -186 208 -61 58 -112 109 -112 113 0 8 68 96 153 198
130 156 168 232 135 265 -23 23 -56 13 -84 -25z"/>
</g>
</svg>
