<?xml version="1.0" standalone="no"?>
<!DOCTYPE svg PUBLIC "-//W3C//DTD SVG 20010904//EN"
 "http://www.w3.org/TR/2001/REC-SVG-20010904/DTD/svg10.dtd">
<svg version="1.0" xmlns="http://www.w3.org/2000/svg"
 width="248.000000pt" height="248.000000pt" viewBox="0 0 248.000000 248.000000"
 preserveAspectRatio="xMidYMid meet">
<metadata>
Created by potrace 1.10, written by Peter Selinger 2001-2011
</metadata>
<g transform="translate(0.000000,248.000000) scale(0.100000,-0.100000)"
fill="#000000" stroke="none">
<path d="M1695 2160 c-38 -4 -128 -13 -200 -19 -71 -6 -179 -17 -240 -26 -60
-8 -164 -20 -230 -25 -166 -13 -197 -19 -217 -37 -22 -20 -23 -56 -3 -73 20
-16 161 -8 425 25 107 13 251 29 320 35 214 19 274 29 288 47 25 34 4 70 -43
77 -16 2 -61 0 -100 -4z"/>
</g>
</svg>
