<?xml version="1.0" standalone="no"?>
<!DOCTYPE svg PUBLIC "-//W3C//DTD SVG 20010904//EN"
 "http://www.w3.org/TR/2001/REC-SVG-20010904/DTD/svg10.dtd">
<svg version="1.0" xmlns="http://www.w3.org/2000/svg"
 width="248.000000pt" height="248.000000pt" viewBox="0 0 248.000000 248.000000"
 preserveAspectRatio="xMidYMid meet">
<metadata>
Created by potrace 1.10, written by Peter Selinger 2001-2011
</metadata>
<g transform="translate(0.000000,248.000000) scale(0.100000,-0.100000)"
fill="#000000" stroke="none">
<path d="M742 2338 c-9 -9 -12 -77 -12 -244 l0 -231 -82 -12 c-46 -6 -129 -17
-186 -25 -56 -8 -110 -20 -118 -27 -22 -18 -13 -61 16 -76 26 -14 55 -12 210
12 47 7 102 16 122 18 l37 6 -4 -162 -5 -162 -57 -7 c-32 -4 -123 -14 -203
-23 -318 -34 -350 -43 -350 -90 0 -41 36 -56 106 -45 86 13 306 39 402 46 l82
7 0 -92 c0 -66 -3 -91 -12 -91 -7 0 -76 -9 -153 -21 -77 -11 -173 -24 -213
-28 -40 -5 -79 -14 -87 -21 -24 -20 -18 -57 11 -77 25 -16 33 -16 148 2 66 10
141 20 166 22 l45 4 -54 -51 c-69 -66 -205 -186 -316 -280 -49 -41 -99 -85
-112 -97 -39 -38 -26 -93 23 -93 23 0 72 37 224 168 l85 73 3 -37 c2 -21 -1
-74 -7 -118 -6 -45 -13 -152 -17 -238 -6 -137 -5 -160 10 -183 25 -39 55 -32
111 26 28 28 93 83 145 121 163 122 181 146 140 183 -29 26 -52 16 -179 -80
-62 -48 -115 -84 -117 -82 -3 2 1 71 7 153 6 82 14 197 18 255 l6 106 63 58
c35 32 74 78 88 102 17 28 33 43 46 43 52 0 405 63 426 76 24 16 29 53 10 72
-17 17 -65 15 -231 -13 -82 -14 -153 -25 -158 -25 -8 0 -14 180 -6 180 5 1
180 20 260 30 45 5 136 16 202 24 66 8 147 16 179 17 70 3 63 14 101 -151 15
-63 49 -189 77 -280 28 -91 52 -176 55 -190 5 -35 -128 -191 -331 -387 -137
-132 -157 -155 -154 -179 4 -35 29 -51 62 -39 37 14 275 243 380 365 49 58 94
105 99 105 5 0 27 -40 48 -90 50 -114 100 -211 157 -300 62 -98 100 -135 135
-135 24 0 31 7 47 43 10 23 39 80 64 126 26 47 46 92 46 101 0 40 -63 55 -92
22 -9 -9 -30 -45 -47 -79 -17 -35 -33 -63 -34 -63 -4 0 -41 58 -94 146 -28 48
-69 136 -129 279 l-25 60 58 86 c32 47 76 112 99 145 47 69 94 167 94 198 0
28 -18 46 -45 46 -28 0 -45 -20 -89 -105 -45 -88 -151 -241 -162 -236 -17 7
-53 121 -98 304 -24 100 -46 193 -48 207 l-3 25 165 17 c332 34 377 38 421 38
53 0 89 22 89 55 0 52 -49 63 -195 45 -44 -5 -156 -17 -250 -25 -93 -9 -187
-19 -207 -22 -35 -5 -37 -4 -47 33 -6 22 -17 77 -26 124 -8 47 -26 146 -40
220 -13 74 -27 171 -31 215 -3 44 -13 90 -20 103 -19 30 -59 29 -79 -2 -14
-21 -15 -38 -5 -126 5 -56 12 -105 14 -109 2 -3 16 -76 31 -161 15 -85 31
-176 35 -201 5 -26 13 -62 18 -82 l10 -34 -82 -7 c-44 -3 -135 -13 -201 -21
-201 -26 -267 -34 -332 -40 l-63 -7 0 90 c0 49 3 123 6 164 l7 75 81 13 c141
22 260 51 275 65 11 11 13 21 5 42 -8 23 -16 29 -46 31 -30 3 -199 -22 -295
-43 -21 -5 -21 -4 -25 209 -3 194 -5 216 -22 235 -21 23 -56 27 -74 9z"/>
<path d="M1802 2028 c-7 -7 -12 -20 -12 -31 0 -45 232 -267 281 -267 65 0 66
56 2 113 -27 23 -84 77 -127 119 -80 79 -115 95 -144 66z"/>
<path d="M1094 982 c-43 -39 -139 -114 -186 -145 l-28 -19 -62 66 c-63 67 -98
82 -126 54 -30 -30 -12 -57 141 -216 85 -88 169 -180 187 -205 18 -26 50 -58
72 -73 33 -23 42 -25 63 -16 39 18 34 62 -12 110 -21 21 -70 77 -109 124 l-72
86 45 33 c25 19 67 49 92 67 95 68 132 127 99 160 -22 22 -62 13 -104 -26z"/>
</g>
</svg>
