<?xml version="1.0" standalone="no"?>
<!DOCTYPE svg PUBLIC "-//W3C//DTD SVG 20010904//EN"
 "http://www.w3.org/TR/2001/REC-SVG-20010904/DTD/svg10.dtd">
<svg version="1.0" xmlns="http://www.w3.org/2000/svg"
 width="248.000000pt" height="248.000000pt" viewBox="0 0 248.000000 248.000000"
 preserveAspectRatio="xMidYMid meet">
<metadata>
Created by potrace 1.10, written by Peter Selinger 2001-2011
</metadata>
<g transform="translate(0.000000,248.000000) scale(0.100000,-0.100000)"
fill="#000000" stroke="none">
<path d="M601 2346 c-12 -14 -16 -90 -20 -321 -1 -55 -5 -105 -9 -112 -7 -11
-85 -30 -287 -69 -44 -9 -88 -23 -98 -32 -21 -19 -19 -61 5 -75 19 -12 138 4
253 34 39 10 82 19 98 19 l27 0 0 -247 c0 -137 -3 -271 -6 -300 -7 -58 1 -52
-233 -173 -98 -51 -106 -57 -106 -85 0 -21 7 -33 26 -44 24 -13 32 -11 125 35
54 26 114 58 133 71 19 13 38 23 42 23 5 0 9 -181 9 -401 l0 -401 -75 76 c-76
77 -101 89 -129 60 -32 -32 -19 -56 102 -182 102 -106 122 -122 149 -122 64 0
63 -10 63 541 l0 496 61 34 c104 59 124 74 127 97 8 57 -41 66 -126 23 l-57
-29 3 277 c2 152 5 278 7 279 2 2 45 10 96 18 149 22 194 46 182 95 -9 31 -42
39 -106 24 -30 -7 -83 -16 -117 -20 l-62 -7 6 28 c3 16 7 101 8 190 2 139 0
164 -15 187 -19 30 -57 36 -76 13z"/>
<path d="M1840 2250 c-58 -33 -152 -79 -210 -104 -303 -129 -348 -159 -305
-206 10 -11 26 -20 36 -20 18 0 169 62 204 84 11 7 43 20 70 30 78 29 338 165
358 188 32 38 16 89 -27 87 -12 0 -68 -27 -126 -59z"/>
<path d="M2135 1856 c-31 -47 -92 -119 -136 -160 -80 -76 -95 -106 -67 -134
45 -45 171 60 304 254 33 48 38 72 20 99 -31 47 -58 34 -121 -59z"/>
<path d="M1530 1855 c-16 -19 -6 -127 22 -248 23 -97 38 -120 76 -115 40 5 48
28 34 95 -7 32 -19 100 -27 152 -9 56 -22 102 -32 113 -20 22 -56 24 -73 3z"/>
<path d="M1130 1805 c-16 -20 -5 -93 25 -165 13 -30 28 -75 35 -100 17 -67 35
-90 70 -90 50 0 57 32 26 126 -49 152 -71 211 -85 228 -17 20 -55 21 -71 1z"/>
<path d="M1556 1418 c-12 -16 -16 -47 -16 -110 0 -62 -4 -91 -14 -101 -17 -17
-72 -25 -251 -38 -297 -21 -325 -27 -325 -74 0 -48 55 -63 174 -47 103 14 330
31 335 26 9 -9 -43 -94 -161 -266 -141 -203 -245 -329 -318 -385 -105 -78
-120 -94 -120 -122 0 -15 5 -32 12 -39 15 -15 54 -16 63 -2 4 6 30 25 58 44
104 67 253 237 402 461 63 96 118 175 121 175 4 0 4 -75 0 -167 -3 -93 -7
-275 -8 -406 -3 -226 -2 -239 16 -253 25 -18 37 -18 61 0 23 17 33 141 35 456
1 118 4 233 8 254 l7 39 111 -149 c132 -177 275 -340 362 -415 152 -130 211
-161 242 -125 6 8 10 25 8 37 -3 21 -28 43 -173 158 -84 67 -235 245 -427 503
-53 72 -118 191 -118 217 0 15 19 20 128 35 70 9 172 21 227 26 55 5 124 14
154 20 29 5 55 10 57 10 11 0 24 44 19 61 -10 31 -47 40 -123 29 -37 -6 -145
-19 -241 -30 -96 -11 -184 -23 -196 -26 -22 -6 -23 -5 -17 85 4 73 2 95 -12
116 -21 32 -59 33 -80 3z"/>
</g>
</svg>
