<?xml version="1.0" standalone="no"?>
<!DOCTYPE svg PUBLIC "-//W3C//DTD SVG 20010904//EN"
 "http://www.w3.org/TR/2001/REC-SVG-20010904/DTD/svg10.dtd">
<svg version="1.0" xmlns="http://www.w3.org/2000/svg"
 width="248.000000pt" height="248.000000pt" viewBox="0 0 248.000000 248.000000"
 preserveAspectRatio="xMidYMid meet">
<metadata>
Created by potrace 1.10, written by Peter Selinger 2001-2011
</metadata>
<g transform="translate(0.000000,248.000000) scale(0.100000,-0.100000)"
fill="#000000" stroke="none">
<path d="M690 2160 c-36 -10 -114 -28 -175 -40 -60 -12 -139 -28 -175 -36 -36
-8 -80 -14 -97 -14 -35 0 -73 -29 -73 -55 0 -24 37 -55 66 -55 14 0 64 9 112
19 48 11 125 27 172 36 47 9 96 19 109 22 24 6 24 5 -9 -43 -45 -65 -125 -159
-177 -210 -60 -57 -57 -114 6 -114 33 0 166 134 240 241 28 41 69 99 90 129
46 63 52 101 19 124 -27 19 -27 19 -108 -4z"/>
</g>
</svg>
