<?xml version="1.0" standalone="no"?>
<!DOCTYPE svg PUBLIC "-//W3C//DTD SVG 20010904//EN"
 "http://www.w3.org/TR/2001/REC-SVG-20010904/DTD/svg10.dtd">
<svg version="1.0" xmlns="http://www.w3.org/2000/svg"
 width="248.000000pt" height="248.000000pt" viewBox="0 0 248.000000 248.000000"
 preserveAspectRatio="xMidYMid meet">
<metadata>
Created by potrace 1.10, written by Peter Selinger 2001-2011
</metadata>
<g transform="translate(0.000000,248.000000) scale(0.100000,-0.100000)"
fill="#000000" stroke="none">
<path d="M1390 2239 c-36 -5 -95 -13 -132 -19 -42 -6 -76 -7 -91 -1 -39 15
-66 2 -89 -43 -25 -50 -195 -310 -243 -373 -56 -73 -44 -113 32 -113 23 0 86
-11 139 -25 53 -14 105 -25 115 -25 10 0 19 -2 19 -4 0 -20 -164 -259 -215
-314 -64 -69 -76 -97 -53 -120 27 -27 65 -13 125 46 64 64 72 75 197 273 80
126 246 424 246 442 0 4 7 7 15 7 18 0 165 -149 165 -167 0 -7 -24 -29 -54
-49 -57 -38 -68 -56 -55 -92 6 -17 16 -22 43 -22 27 0 51 13 113 62 87 69 272
256 310 315 15 21 46 61 70 90 45 54 54 91 27 114 -24 19 -122 21 -283 4 -153
-16 -181 -27 -181 -70 0 -45 20 -50 158 -37 178 17 168 18 141 -20 -13 -18
-63 -76 -112 -129 l-89 -97 -99 100 -99 100 30 53 c65 114 34 138 -150 114z
m14 -140 c-27 -54 -84 -139 -92 -139 -5 0 -13 5 -20 12 -7 7 -51 14 -102 16
-58 3 -90 8 -90 16 0 6 15 31 34 56 32 44 34 45 112 56 43 6 100 12 127 13
l48 1 -17 -31z m-134 -225 c2 -3 -11 -35 -30 -72 -34 -65 -36 -67 -70 -64 -58
5 -210 44 -210 54 0 5 14 30 31 55 l32 46 121 -7 c66 -4 123 -10 126 -12z"/>
<path d="M640 2149 c-111 -28 -298 -66 -370 -76 -65 -8 -79 -13 -91 -34 -9
-18 -6 -31 17 -78 l29 -56 3 -570 c3 -542 -5 -796 -35 -1123 -5 -59 6 -82 42
-82 35 0 55 32 65 106 15 106 39 570 40 752 0 151 1 162 18 153 9 -5 67 -33
127 -61 116 -54 164 -63 195 -35 49 44 88 239 70 350 -20 124 -57 198 -145
287 l-57 58 55 62 c29 35 69 85 87 113 19 27 56 79 82 114 54 72 61 110 26
135 -27 19 -18 20 -158 -15z m-25 -161 c-65 -93 -135 -174 -186 -213 -40 -31
-49 -43 -47 -64 3 -27 31 -46 83 -56 44 -9 129 -103 157 -173 18 -47 23 -76
23 -162 0 -102 -16 -180 -36 -180 -5 0 -40 15 -77 34 -92 47 -144 61 -169 48
-20 -11 -20 -6 -27 316 -3 180 -10 350 -15 377 -10 58 -8 60 69 75 30 6 96 19
145 29 50 10 96 19 103 20 7 1 -4 -22 -23 -51z"/>
</g>
</svg>
