<?xml version="1.0" standalone="no"?>
<!DOCTYPE svg PUBLIC "-//W3C//DTD SVG 20010904//EN"
 "http://www.w3.org/TR/2001/REC-SVG-20010904/DTD/svg10.dtd">
<svg version="1.0" xmlns="http://www.w3.org/2000/svg"
 width="248.000000pt" height="248.000000pt" viewBox="0 0 248.000000 248.000000"
 preserveAspectRatio="xMidYMid meet">
<metadata>
Created by potrace 1.10, written by Peter Selinger 2001-2011
</metadata>
<g transform="translate(0.000000,248.000000) scale(0.100000,-0.100000)"
fill="#000000" stroke="none">
<path d="M1695 2160 c-38 -4 -128 -13 -200 -19 -71 -6 -179 -17 -240 -26 -60
-8 -164 -20 -230 -25 -166 -13 -197 -19 -217 -37 -22 -20 -23 -56 -3 -73 20
-16 161 -8 425 25 107 13 251 29 320 35 214 19 274 29 288 47 25 34 4 70 -43
77 -16 2 -61 0 -100 -4z"/>
<path d="M1730 1910 c-145 -20 -313 -41 -450 -55 -80 -9 -189 -22 -243 -31
-54 -8 -146 -19 -205 -25 -61 -6 -116 -16 -129 -25 -30 -19 -30 -59 0 -78 19
-13 41 -13 185 4 89 10 170 21 180 24 9 3 87 12 172 21 85 9 202 22 260 30
165 23 302 36 309 30 7 -8 -25 -202 -49 -290 -10 -38 -24 -102 -31 -142 -13
-80 -6 -103 36 -103 31 0 52 27 65 85 6 28 22 95 35 150 37 162 58 299 51 337
-12 68 -60 85 -186 68z"/>
</g>
</svg>
