<?xml version="1.0" standalone="no"?>
<!DOCTYPE svg PUBLIC "-//W3C//DTD SVG 20010904//EN"
 "http://www.w3.org/TR/2001/REC-SVG-20010904/DTD/svg10.dtd">
<svg version="1.0" xmlns="http://www.w3.org/2000/svg"
 width="248.000000pt" height="248.000000pt" viewBox="0 0 248.000000 248.000000"
 preserveAspectRatio="xMidYMid meet">
<metadata>
Created by potrace 1.10, written by Peter Selinger 2001-2011
</metadata>
<g transform="translate(0.000000,248.000000) scale(0.100000,-0.100000)"
fill="#000000" stroke="none">
<path d="M1519 2324 c-10 -12 -15 -57 -19 -158 l-5 -141 -60 -8 c-33 -4 -138
-16 -233 -26 -95 -10 -179 -24 -187 -31 -20 -16 -19 -54 1 -71 9 -7 33 -13 53
-12 40 1 294 27 421 43 168 21 234 24 224 9 -47 -77 -187 -282 -241 -354 -49
-65 -90 -105 -148 -147 -107 -76 -277 -164 -354 -182 -71 -17 -91 -30 -91 -60
0 -78 123 -59 328 50 227 120 304 198 526 534 57 85 112 163 123 173 22 19
133 42 255 54 70 6 95 17 98 43 10 74 -7 76 -238 41 -108 -17 -235 -34 -282
-37 l-85 -7 3 124 c2 88 -1 131 -10 149 -16 31 -59 38 -79 14z"/>
<path d="M540 2220 c-23 -23 -24 -33 -10 -60 12 -23 120 -101 170 -124 19 -8
48 -26 63 -38 26 -21 30 -22 55 -7 58 32 31 86 -69 137 -35 17 -86 50 -113 72
-55 45 -68 48 -96 20z"/>
<path d="M180 1480 c-44 -44 -18 -73 95 -105 49 -15 117 -37 151 -51 33 -13
67 -24 75 -24 40 0 53 64 20 94 -18 17 -279 106 -308 106 -7 0 -22 -9 -33 -20z"/>
<path d="M583 998 c-15 -24 -77 -142 -138 -263 -61 -121 -127 -245 -147 -275
-81 -125 -91 -167 -47 -191 34 -18 56 -1 98 74 23 40 57 99 77 132 19 33 71
133 114 221 44 89 95 188 115 220 50 84 45 124 -17 124 -22 0 -34 -9 -55 -42z"/>
</g>
</svg>
