<?xml version="1.0" standalone="no"?>
<!DOCTYPE svg PUBLIC "-//W3C//DTD SVG 20010904//EN"
 "http://www.w3.org/TR/2001/REC-SVG-20010904/DTD/svg10.dtd">
<svg version="1.0" xmlns="http://www.w3.org/2000/svg"
 width="248.000000pt" height="248.000000pt" viewBox="0 0 248.000000 248.000000"
 preserveAspectRatio="xMidYMid meet">
<metadata>
Created by potrace 1.10, written by Peter Selinger 2001-2011
</metadata>
<g transform="translate(0.000000,248.000000) scale(0.100000,-0.100000)"
fill="#000000" stroke="none">
<path d="M1170 2303 c-19 -2 -107 -12 -195 -22 -88 -11 -180 -20 -205 -20 -95
-2 -104 -17 -80 -126 10 -44 23 -127 29 -185 31 -309 37 -336 79 -347 31 -8
66 29 58 61 -9 31 -29 206 -25 210 5 5 215 24 454 41 110 8 238 17 285 20 47
4 91 8 98 11 25 8 23 -25 -8 -117 -35 -103 -39 -131 -20 -154 15 -18 54 -20
68 -2 5 6 26 64 47 127 20 63 45 140 56 170 26 78 66 218 74 262 6 29 3 40
-14 57 -21 21 -28 21 -343 19 -178 0 -339 -3 -358 -5z m603 -90 c2 -5 -6 -42
-19 -85 -28 -90 -9 -82 -249 -98 -82 -6 -217 -15 -300 -21 -82 -5 -188 -14
-235 -19 -47 -6 -101 -10 -121 -10 l-36 0 -7 81 c-4 44 -8 86 -9 92 -1 8 17
13 48 14 28 2 109 10 180 19 72 8 175 19 230 23 132 11 513 13 518 4z"/>
</g>
</svg>
