<?xml version="1.0" standalone="no"?>
<!DOCTYPE svg PUBLIC "-//W3C//DTD SVG 20010904//EN"
 "http://www.w3.org/TR/2001/REC-SVG-20010904/DTD/svg10.dtd">
<svg version="1.0" xmlns="http://www.w3.org/2000/svg"
 width="248.000000pt" height="248.000000pt" viewBox="0 0 248.000000 248.000000"
 preserveAspectRatio="xMidYMid meet">
<metadata>
Created by potrace 1.10, written by Peter Selinger 2001-2011
</metadata>
<g transform="translate(0.000000,248.000000) scale(0.100000,-0.100000)"
fill="#000000" stroke="none">
<path d="M1170 2303 c-19 -2 -107 -12 -195 -22 -88 -11 -180 -20 -205 -20 -95
-2 -104 -17 -80 -126 10 -44 23 -127 29 -185 21 -207 31 -285 42 -313 12 -28
47 -44 75 -33 31 12 209 35 314 41 58 3 128 8 155 12 28 3 127 7 221 8 94 1
179 7 189 12 10 6 21 29 25 54 5 24 25 96 45 159 109 346 115 370 86 399 -21
21 -28 21 -343 19 -178 0 -339 -3 -358 -5z m603 -90 c2 -5 -6 -42 -19 -85 -28
-90 -9 -82 -249 -98 -82 -6 -217 -15 -300 -21 -82 -5 -188 -14 -235 -19 -47
-6 -101 -10 -121 -10 l-36 0 -7 81 c-4 44 -8 86 -9 92 -1 8 17 13 48 14 28 2
109 10 180 19 72 8 175 19 230 23 132 11 513 13 518 4z m-103 -357 c-14 -47
-29 -77 -39 -81 -9 -3 -95 -9 -191 -15 -352 -20 -476 -29 -530 -39 -30 -5 -58
-6 -61 -3 -4 4 -10 42 -14 85 -7 76 -6 77 17 77 12 0 68 5 123 10 55 6 192 17
305 25 362 26 385 28 389 31 3 3 9 0 14 -5 6 -6 0 -38 -13 -85z"/>
</g>
</svg>
