<?xml version="1.0" standalone="no"?>
<!DOCTYPE svg PUBLIC "-//W3C//DTD SVG 20010904//EN"
 "http://www.w3.org/TR/2001/REC-SVG-20010904/DTD/svg10.dtd">
<svg version="1.0" xmlns="http://www.w3.org/2000/svg"
 width="248.000000pt" height="248.000000pt" viewBox="0 0 248.000000 248.000000"
 preserveAspectRatio="xMidYMid meet">
<metadata>
Created by potrace 1.10, written by Peter Selinger 2001-2011
</metadata>
<g transform="translate(0.000000,248.000000) scale(0.100000,-0.100000)"
fill="#000000" stroke="none">
<path d="M1519 2324 c-10 -12 -15 -57 -19 -158 l-5 -141 -60 -8 c-33 -4 -138
-16 -233 -26 -95 -10 -179 -24 -187 -31 -20 -16 -19 -54 1 -71 9 -8 36 -13 64
-12 51 2 50 3 320 -254 l65 -62 -31 -38 c-70 -87 -340 -248 -463 -277 -71 -17
-91 -30 -91 -60 0 -78 123 -59 328 49 120 64 266 170 302 220 14 19 28 35 32
35 4 0 38 -22 75 -49 80 -57 364 -202 463 -236 38 -13 104 -29 145 -36 88 -15
108 -8 113 39 4 37 -10 46 -95 61 -98 18 -195 55 -356 137 -138 69 -191 101
-256 152 l-24 19 115 174 c63 96 124 182 135 192 22 19 132 42 255 54 70 6 95
17 98 43 10 74 -7 76 -238 41 -108 -17 -235 -34 -282 -37 l-85 -7 3 124 c2 88
-1 131 -10 149 -16 31 -59 38 -79 14z m195 -396 c-42 -69 -175 -267 -181 -271
-7 -5 -253 215 -261 233 -1 4 55 13 125 20 71 7 153 16 183 20 97 12 142 11
134 -2z"/>
<path d="M540 2220 c-23 -23 -24 -33 -10 -60 12 -23 120 -101 170 -124 19 -8
48 -26 63 -38 26 -21 30 -22 55 -7 58 32 31 86 -69 137 -35 17 -86 50 -113 72
-55 45 -68 48 -96 20z"/>
<path d="M180 1480 c-44 -44 -18 -73 95 -105 49 -15 117 -37 151 -51 33 -13
67 -24 75 -24 40 0 53 64 20 94 -18 17 -279 106 -308 106 -7 0 -22 -9 -33 -20z"/>
<path d="M583 998 c-15 -24 -77 -142 -138 -263 -61 -121 -127 -245 -147 -275
-81 -125 -91 -167 -47 -191 30 -15 57 -2 78 40 11 20 43 75 71 121 29 47 90
163 137 259 47 96 101 199 119 230 49 81 43 121 -18 121 -22 0 -34 -9 -55 -42z"/>
</g>
</svg>
