<?xml version="1.0" standalone="no"?>
<!DOCTYPE svg PUBLIC "-//W3C//DTD SVG 20010904//EN"
 "http://www.w3.org/TR/2001/REC-SVG-20010904/DTD/svg10.dtd">
<svg version="1.0" xmlns="http://www.w3.org/2000/svg"
 width="248.000000pt" height="248.000000pt" viewBox="0 0 248.000000 248.000000"
 preserveAspectRatio="xMidYMid meet">
<metadata>
Created by potrace 1.10, written by Peter Selinger 2001-2011
</metadata>
<g transform="translate(0.000000,248.000000) scale(0.100000,-0.100000)"
fill="#000000" stroke="none">
<path d="M840 1954 c-36 -8 -146 -30 -245 -49 -421 -81 -429 -83 -423 -133 5
-41 27 -47 120 -33 46 8 115 22 153 31 39 10 138 30 220 44 243 43 257 47 281
71 28 28 22 62 -13 76 -13 5 -25 8 -26 8 -1 -1 -31 -8 -67 -15z"/>
</g>
</svg>
