<?xml version="1.0" standalone="no"?>
<!DOCTYPE svg PUBLIC "-//W3C//DTD SVG 20010904//EN"
 "http://www.w3.org/TR/2001/REC-SVG-20010904/DTD/svg10.dtd">
<svg version="1.0" xmlns="http://www.w3.org/2000/svg"
 width="248.000000pt" height="248.000000pt" viewBox="0 0 248.000000 248.000000"
 preserveAspectRatio="xMidYMid meet">
<metadata>
Created by potrace 1.10, written by Peter Selinger 2001-2011
</metadata>
<g transform="translate(0.000000,248.000000) scale(0.100000,-0.100000)"
fill="#000000" stroke="none">
<path d="M742 2338 c-9 -9 -12 -77 -12 -244 l0 -231 -82 -12 c-46 -6 -129 -17
-186 -25 -56 -8 -110 -20 -118 -27 -22 -18 -13 -61 16 -76 26 -14 55 -12 210
12 47 7 102 16 122 18 l37 6 -4 -162 -5 -162 -57 -7 c-32 -4 -123 -14 -203
-23 -318 -34 -350 -43 -350 -90 0 -41 36 -56 106 -45 86 13 306 39 402 46 l82
7 0 -92 c0 -66 -3 -91 -12 -91 -7 0 -76 -9 -153 -21 -77 -11 -173 -24 -213
-28 -40 -5 -79 -14 -87 -21 -24 -20 -18 -57 11 -77 25 -16 33 -16 148 2 66 10
141 20 166 22 l45 4 -54 -51 c-69 -66 -205 -186 -316 -280 -49 -41 -99 -85
-112 -97 -39 -38 -26 -93 23 -93 23 0 72 37 224 168 l85 73 3 -37 c2 -21 -1
-74 -7 -118 -6 -45 -13 -152 -17 -238 -6 -137 -5 -160 10 -183 25 -39 55 -32
111 26 28 28 93 83 145 121 163 122 181 146 140 183 -29 26 -52 16 -179 -80
-62 -48 -115 -84 -117 -82 -3 2 1 71 7 153 6 82 14 197 18 255 l7 106 57 53
c31 28 71 74 89 101 20 31 38 49 51 49 51 0 405 63 425 76 24 16 29 53 10 72
-17 17 -65 15 -231 -13 -82 -14 -153 -25 -158 -25 -5 0 -9 40 -9 89 l0 90 43
5 c23 3 87 10 142 16 55 7 127 15 160 20 33 5 114 14 180 20 66 6 165 18 220
25 55 8 172 22 260 30 88 8 201 20 252 25 50 6 114 10 140 10 57 0 93 21 93
55 0 52 -49 63 -195 45 -44 -5 -156 -17 -250 -25 -93 -9 -210 -22 -260 -30
-49 -7 -126 -16 -170 -20 -44 -3 -134 -12 -200 -20 -215 -27 -269 -34 -332
-40 l-63 -7 0 90 c0 49 3 123 6 164 l7 75 81 13 c141 22 260 51 275 65 11 11
13 21 5 42 -8 23 -16 29 -46 31 -30 3 -199 -22 -295 -43 -21 -5 -21 -4 -25
209 -3 194 -5 216 -22 235 -21 23 -56 27 -74 9z"/>
<path d="M1114 999 c-17 -20 -107 -91 -205 -162 -43 -31 -55 -57 -39 -87 16
-30 58 -25 112 13 209 147 258 203 216 245 -19 19 -63 14 -84 -9z"/>
</g>
</svg>
