<?xml version="1.0" standalone="no"?>
<!DOCTYPE svg PUBLIC "-//W3C//DTD SVG 20010904//EN"
 "http://www.w3.org/TR/2001/REC-SVG-20010904/DTD/svg10.dtd">
<svg version="1.0" xmlns="http://www.w3.org/2000/svg"
 width="248.000000pt" height="248.000000pt" viewBox="0 0 248.000000 248.000000"
 preserveAspectRatio="xMidYMid meet">
<metadata>
Created by potrace 1.10, written by Peter Selinger 2001-2011
</metadata>
<g transform="translate(0.000000,248.000000) scale(0.100000,-0.100000)"
fill="#000000" stroke="none">
<path d="M1170 2303 c-19 -2 -107 -12 -195 -22 -88 -11 -180 -20 -205 -20 -95
-2 -104 -17 -80 -126 10 -44 23 -127 29 -185 21 -207 31 -285 42 -313 12 -28
47 -44 75 -33 31 12 209 35 314 41 58 3 128 8 155 12 28 3 127 7 221 8 94 1
179 7 189 12 10 6 21 29 25 54 5 24 25 96 45 159 109 346 115 370 86 399 -21
21 -28 21 -343 19 -178 0 -339 -3 -358 -5z m603 -90 c2 -5 -6 -42 -19 -85 -28
-90 -9 -82 -249 -98 -82 -6 -217 -15 -300 -21 -82 -5 -188 -14 -235 -19 -47
-6 -101 -10 -121 -10 l-36 0 -7 81 c-4 44 -8 86 -9 92 -1 8 17 13 48 14 28 2
109 10 180 19 72 8 175 19 230 23 132 11 513 13 518 4z m-103 -357 c-14 -47
-29 -77 -39 -81 -9 -3 -95 -9 -191 -15 -352 -20 -476 -29 -530 -39 -30 -5 -58
-6 -61 -3 -4 4 -10 42 -14 85 -7 76 -6 77 17 77 12 0 68 5 123 10 55 6 192 17
305 25 362 26 385 28 389 31 3 3 9 0 14 -5 6 -6 0 -38 -13 -85z"/>
<path d="M2030 1550 c-129 -4 -282 -12 -340 -18 -58 -7 -294 -28 -525 -47
-231 -20 -499 -45 -595 -56 -96 -11 -202 -23 -235 -26 -68 -6 -85 -16 -85 -48
0 -43 20 -49 159 -42 l128 7 7 -38 c15 -95 -2 -631 -23 -702 -9 -30 -20 -39
-68 -59 -80 -34 -203 -89 -233 -104 -28 -14 -38 -51 -20 -73 22 -26 70 -15
231 56 87 38 197 83 244 100 48 16 124 46 171 66 47 20 87 34 91 31 3 -4 1
-95 -5 -204 -6 -121 -6 -205 0 -216 11 -21 61 -23 78 -2 13 16 16 90 25 690 5
310 13 497 22 506 5 3 103 14 218 23 116 10 302 26 415 37 113 10 301 22 418
26 224 7 242 11 242 53 0 27 -28 50 -58 48 -15 -1 -133 -5 -262 -8z m-1080
-237 c0 -32 -3 -74 -6 -95 l-6 -36 -72 -7 c-39 -4 -102 -13 -139 -21 -38 -8
-73 -12 -78 -8 -5 3 -9 47 -9 98 l0 94 133 11 c72 7 139 14 147 15 8 2 18 4
23 5 4 0 7 -25 7 -56z m-15 -298 l0 -60 -110 -27 c-60 -15 -126 -28 -145 -30
l-35 -3 0 70 0 70 60 13 c98 20 168 30 200 29 30 -2 30 -2 30 -62z m3 -225 c4
-76 -3 -100 -32 -100 -13 0 -48 -11 -77 -24 -30 -13 -87 -35 -126 -49 l-73
-27 0 54 c0 29 3 74 6 99 6 44 8 47 43 52 20 3 81 16 136 29 55 13 105 23 110
22 6 -2 11 -27 13 -56z"/>
<path d="M1850 1279 c-19 -5 -98 -18 -174 -29 -76 -11 -155 -24 -175 -30 -20
-5 -72 -12 -116 -16 -108 -7 -123 -11 -135 -34 -15 -28 -3 -59 26 -70 27 -11
137 1 289 30 111 21 205 33 205 26 0 -20 -197 -336 -210 -336 -4 0 -34 24 -67
53 -168 147 -200 166 -231 135 -32 -32 -2 -82 85 -146 29 -21 73 -58 99 -82
l47 -43 -84 -82 c-50 -48 -113 -97 -154 -120 -88 -48 -105 -63 -105 -90 0 -57
47 -58 143 -4 88 50 145 94 219 172 52 54 59 58 76 46 11 -8 53 -41 95 -74
123 -98 179 -136 242 -165 306 -141 350 -158 427 -167 54 -7 78 7 78 43 0 30
-30 49 -98 63 -30 6 -88 27 -130 47 -42 20 -118 53 -168 73 -92 38 -216 119
-331 219 l-63 54 43 61 c39 55 93 146 181 299 15 26 38 60 51 74 31 33 32 68
3 88 -12 9 -25 16 -28 15 -3 -1 -21 -5 -40 -10z"/>
</g>
</svg>
