<?xml version="1.0" standalone="no"?>
<!DOCTYPE svg PUBLIC "-//W3C//DTD SVG 20010904//EN"
 "http://www.w3.org/TR/2001/REC-SVG-20010904/DTD/svg10.dtd">
<svg version="1.0" xmlns="http://www.w3.org/2000/svg"
 width="248.000000pt" height="248.000000pt" viewBox="0 0 248.000000 248.000000"
 preserveAspectRatio="xMidYMid meet">
<metadata>
Created by potrace 1.10, written by Peter Selinger 2001-2011
</metadata>
<g transform="translate(0.000000,248.000000) scale(0.100000,-0.100000)"
fill="#000000" stroke="none">
<path d="M1390 2239 c-36 -5 -95 -13 -132 -19 -42 -6 -76 -7 -91 -1 -39 15
-66 2 -89 -43 -25 -50 -195 -310 -243 -373 -51 -67 -44 -113 16 -113 31 0 58
34 227 285 l87 130 95 13 c52 7 110 11 128 10 l33 -3 -52 -85 c-28 -47 -74
-130 -101 -185 -77 -153 -271 -455 -344 -533 -35 -39 -64 -79 -64 -89 0 -27
19 -43 51 -43 30 0 122 84 170 156 92 136 203 320 272 449 44 83 95 174 113
202 19 29 34 56 34 60 0 5 16 33 35 63 74 116 41 143 -145 119z"/>
<path d="M640 2149 c-111 -28 -298 -66 -370 -76 -65 -8 -79 -13 -91 -34 -9
-18 -6 -31 17 -78 l29 -56 3 -570 c3 -542 -5 -796 -35 -1123 -5 -59 6 -82 42
-82 35 0 55 32 65 106 15 106 39 570 40 752 0 151 1 162 18 153 9 -5 67 -33
127 -61 116 -54 164 -63 195 -35 49 44 88 239 70 350 -20 124 -57 198 -145
287 l-57 58 55 62 c29 35 69 85 87 113 19 27 56 79 82 114 54 72 61 110 26
135 -27 19 -18 20 -158 -15z m-25 -161 c-65 -93 -135 -174 -186 -213 -40 -31
-49 -43 -47 -64 3 -27 31 -46 83 -56 44 -9 129 -103 157 -173 18 -47 23 -76
23 -162 0 -102 -16 -180 -36 -180 -5 0 -40 15 -77 34 -92 47 -144 61 -169 48
-20 -11 -20 -6 -27 316 -3 180 -10 350 -15 377 -10 58 -8 60 69 75 30 6 96 19
145 29 50 10 96 19 103 20 7 1 -4 -22 -23 -51z"/>
</g>
</svg>
