<?xml version="1.0" standalone="no"?>
<!DOCTYPE svg PUBLIC "-//W3C//DTD SVG 20010904//EN"
 "http://www.w3.org/TR/2001/REC-SVG-20010904/DTD/svg10.dtd">
<svg version="1.0" xmlns="http://www.w3.org/2000/svg"
 width="248.000000pt" height="248.000000pt" viewBox="0 0 248.000000 248.000000"
 preserveAspectRatio="xMidYMid meet">
<metadata>
Created by potrace 1.10, written by Peter Selinger 2001-2011
</metadata>
<g transform="translate(0.000000,248.000000) scale(0.100000,-0.100000)"
fill="#000000" stroke="none">
<path d="M1025 1914 c-38 -7 -113 -20 -165 -28 -52 -8 -140 -22 -195 -31 -55
-8 -146 -22 -203 -29 -56 -8 -110 -20 -118 -27 -22 -18 -13 -61 16 -77 31 -16
44 -14 570 69 134 21 255 50 269 64 11 11 13 21 5 42 -8 25 -14 28 -59 30 -28
1 -81 -5 -120 -13z"/>
</g>
</svg>
