<?xml version="1.0" standalone="no"?>
<!DOCTYPE svg PUBLIC "-//W3C//DTD SVG 20010904//EN"
 "http://www.w3.org/TR/2001/REC-SVG-20010904/DTD/svg10.dtd">
<svg version="1.0" xmlns="http://www.w3.org/2000/svg"
 width="248.000000pt" height="248.000000pt" viewBox="0 0 248.000000 248.000000"
 preserveAspectRatio="xMidYMid meet">
<metadata>
Created by potrace 1.10, written by Peter Selinger 2001-2011
</metadata>
<g transform="translate(0.000000,248.000000) scale(0.100000,-0.100000)"
fill="#000000" stroke="none">
<path d="M1271 2376 c-15 -18 -31 -120 -31 -202 l0 -61 -97 -11 c-54 -7 -147
-16 -206 -21 -117 -10 -147 -24 -147 -66 0 -43 20 -48 152 -40 68 4 161 13
208 20 47 7 86 12 87 11 1 -1 -1 -36 -4 -78 l-6 -77 -46 -6 c-25 -4 -90 -13
-144 -21 -54 -8 -146 -19 -205 -25 -61 -6 -116 -16 -129 -25 -30 -19 -30 -59
0 -78 19 -13 41 -13 182 4 88 11 187 24 220 30 33 5 75 10 94 10 l33 0 -7 -82
c-4 -46 -8 -84 -9 -85 -1 -1 -47 -7 -101 -12 -241 -24 -397 -42 -495 -56 -58
-8 -137 -15 -175 -15 -79 0 -115 -17 -115 -54 0 -54 56 -64 235 -41 222 28
568 65 613 65 l42 0 0 -83 0 -83 -102 -12 c-57 -7 -164 -12 -238 -12 -107 0
-140 -3 -158 -16 -30 -21 -29 -59 4 -80 22 -15 47 -16 200 -11 158 5 174 4
174 -11 0 -29 -58 -184 -74 -200 -12 -12 -55 -17 -198 -23 -369 -16 -398 -21
-398 -73 0 -47 14 -49 253 -42 122 4 237 10 255 13 l33 5 -56 -106 c-54 -105
-67 -154 -42 -173 6 -6 36 -18 66 -27 59 -19 231 -112 231 -126 0 -15 -125
-108 -195 -144 -39 -20 -104 -43 -145 -52 -94 -19 -119 -45 -86 -89 11 -16 25
-19 66 -17 110 5 265 79 397 191 l72 61 53 -25 c244 -120 288 -146 379 -223
68 -58 119 -55 119 8 0 52 -136 154 -337 251 -73 35 -133 69 -133 74 0 6 39
62 86 124 77 104 111 163 165 288 l17 41 74 6 c40 3 165 8 276 11 222 5 255
12 260 56 6 50 -13 54 -222 51 -105 -1 -225 -5 -267 -8 l-77 -6 -14 29 c-10
21 -20 28 -43 28 -28 0 -32 -5 -62 -63 -5 -12 -403 -49 -403 -38 0 3 11 40 25
82 14 42 25 91 25 109 l0 33 98 10 c53 6 153 16 222 22 219 19 219 19 260 56
29 27 41 47 50 87 6 29 18 82 27 118 l16 66 75 7 c41 3 116 6 166 6 109 0 141
13 141 55 0 50 -27 57 -206 50 l-157 -6 14 63 c25 116 14 171 -39 196 -22 11
-50 10 -164 -3 -76 -9 -165 -20 -198 -25 -33 -5 -84 -11 -114 -13 l-53 -4 4
74 c4 87 10 93 87 93 51 0 102 5 316 31 99 11 126 37 91 85 -12 16 -25 19 -83
17 -37 -2 -106 -7 -153 -12 -47 -6 -122 -13 -168 -16 l-83 -6 3 114 c2 86 0
118 -11 130 -17 21 -54 22 -70 3z m539 -590 c0 -34 -19 -129 -28 -137 -6 -6
-88 -18 -399 -58 l-53 -7 0 42 c0 22 3 62 6 88 7 45 7 46 44 46 20 0 61 5 91
10 53 10 270 36 317 39 17 1 22 -4 22 -23z m-54 -278 c-3 -13 -11 -52 -17 -88
-6 -36 -16 -71 -21 -77 -6 -7 -29 -13 -52 -13 -23 0 -67 -4 -97 -9 -30 -5 -96
-12 -146 -15 l-93 -6 0 88 0 88 123 18 c67 10 145 21 172 26 28 4 70 8 94 9
40 1 43 -1 37 -21z m-246 -632 c0 -19 -87 -180 -117 -217 -21 -26 -59 -76 -85
-113 -34 -48 -52 -64 -63 -59 -9 3 -53 28 -98 54 -45 27 -101 56 -124 65 -48
18 -49 21 -29 49 7 11 32 57 55 102 l41 81 105 7 c58 4 144 13 193 20 101 15
122 17 122 11z"/>
</g>
</svg>
