<?xml version="1.0" standalone="no"?>
<!DOCTYPE svg PUBLIC "-//W3C//DTD SVG 20010904//EN"
 "http://www.w3.org/TR/2001/REC-SVG-20010904/DTD/svg10.dtd">
<svg version="1.0" xmlns="http://www.w3.org/2000/svg"
 width="248.000000pt" height="248.000000pt" viewBox="0 0 248.000000 248.000000"
 preserveAspectRatio="xMidYMid meet">
<metadata>
Created by potrace 1.10, written by Peter Selinger 2001-2011
</metadata>
<g transform="translate(0.000000,248.000000) scale(0.100000,-0.100000)"
fill="#000000" stroke="none">
<path d="M1519 2324 c-10 -13 -15 -57 -17 -175 -3 -152 -3 -158 18 -169 27
-14 57 -5 72 23 18 33 22 275 6 307 -16 31 -59 38 -79 14z"/>
<path d="M540 2220 c-23 -23 -24 -33 -10 -60 12 -23 120 -101 170 -124 19 -8
48 -26 63 -38 26 -21 30 -22 55 -7 58 32 31 86 -69 137 -35 17 -86 50 -113 72
-55 45 -68 48 -96 20z"/>
<path d="M180 1480 c-44 -44 -18 -73 95 -105 49 -15 117 -37 151 -51 33 -13
67 -24 75 -24 40 0 53 64 20 94 -18 17 -279 106 -308 106 -7 0 -22 -9 -33 -20z"/>
<path d="M583 998 c-15 -24 -77 -142 -138 -263 -61 -121 -127 -245 -147 -275
-81 -125 -91 -167 -47 -191 34 -18 56 -1 98 74 23 40 57 99 77 132 19 33 71
133 114 221 44 89 95 188 115 220 50 84 45 124 -17 124 -22 0 -34 -9 -55 -42z"/>
</g>
</svg>
