<?xml version="1.0" standalone="no"?>
<!DOCTYPE svg PUBLIC "-//W3C//DTD SVG 20010904//EN"
 "http://www.w3.org/TR/2001/REC-SVG-20010904/DTD/svg10.dtd">
<svg version="1.0" xmlns="http://www.w3.org/2000/svg"
 width="248.000000pt" height="248.000000pt" viewBox="0 0 248.000000 248.000000"
 preserveAspectRatio="xMidYMid meet">
<metadata>
Created by potrace 1.10, written by Peter Selinger 2001-2011
</metadata>
<g transform="translate(0.000000,248.000000) scale(0.100000,-0.100000)"
fill="#000000" stroke="none">
<path d="M601 2346 c-12 -14 -16 -90 -20 -321 -1 -55 -5 -105 -9 -112 -7 -11
-85 -30 -287 -69 -44 -9 -88 -23 -98 -32 -21 -19 -19 -61 5 -75 19 -12 138 4
253 34 39 10 82 19 98 19 l27 0 0 -247 c0 -137 -3 -271 -6 -300 -7 -58 1 -52
-233 -173 -98 -51 -106 -57 -106 -85 0 -21 7 -33 26 -44 24 -13 32 -11 125 35
54 26 114 58 133 71 19 13 38 23 42 23 5 0 9 -181 9 -401 l0 -401 -75 76 c-76
77 -101 89 -129 60 -32 -32 -18 -56 102 -182 102 -107 121 -122 149 -122 64 0
63 -10 63 541 l0 496 61 34 c104 59 124 74 127 97 8 57 -41 66 -126 23 l-57
-29 3 277 c2 152 5 278 7 279 2 2 45 10 96 18 149 22 194 46 182 95 -9 31 -42
39 -106 24 -30 -7 -83 -16 -117 -20 l-62 -7 6 28 c3 16 7 101 8 190 2 139 0
164 -15 187 -19 30 -57 36 -76 13z"/>
<path d="M1840 2250 c-58 -33 -152 -79 -210 -104 -303 -129 -348 -159 -305
-206 10 -11 26 -20 36 -20 18 0 169 62 204 84 11 7 43 20 70 30 78 29 338 165
358 188 32 38 16 89 -27 87 -12 0 -68 -27 -126 -59z"/>
<path d="M1130 1805 c-16 -20 -5 -93 25 -165 13 -30 28 -75 35 -100 17 -67 35
-90 70 -90 50 0 57 32 26 126 -49 152 -71 211 -85 228 -17 20 -55 21 -71 1z"/>
</g>
</svg>
