<?xml version="1.0" standalone="no"?>
<!DOCTYPE svg PUBLIC "-//W3C//DTD SVG 20010904//EN"
 "http://www.w3.org/TR/2001/REC-SVG-20010904/DTD/svg10.dtd">
<svg version="1.0" xmlns="http://www.w3.org/2000/svg"
 width="248.000000pt" height="248.000000pt" viewBox="0 0 248.000000 248.000000"
 preserveAspectRatio="xMidYMid meet">
<metadata>
Created by potrace 1.10, written by Peter Selinger 2001-2011
</metadata>
<g transform="translate(0.000000,248.000000) scale(0.100000,-0.100000)"
fill="#000000" stroke="none">
<path d="M1695 2160 c-38 -4 -128 -13 -200 -19 -71 -6 -179 -17 -240 -26 -60
-8 -164 -20 -230 -25 -166 -13 -197 -19 -217 -37 -22 -20 -23 -56 -3 -73 20
-16 161 -8 425 25 107 13 251 29 320 35 214 19 274 29 288 47 25 34 4 70 -43
77 -16 2 -61 0 -100 -4z"/>
<path d="M1730 1910 c-145 -20 -313 -41 -450 -55 -80 -9 -189 -22 -243 -31
-54 -8 -146 -19 -205 -25 -61 -6 -116 -16 -129 -25 -30 -19 -30 -59 0 -78 19
-13 41 -13 185 4 89 10 170 21 180 24 9 3 87 12 172 21 85 9 202 22 260 30 92
13 287 35 306 35 8 0 -4 -114 -16 -145 -8 -20 -19 -24 -107 -34 -54 -7 -159
-21 -233 -31 -74 -11 -202 -26 -285 -34 -289 -29 -441 -46 -545 -61 -58 -8
-137 -15 -175 -15 -79 0 -115 -17 -115 -54 0 -54 60 -65 235 -42 105 14 283
34 685 76 96 10 202 24 382 50 37 6 81 10 99 10 28 0 31 -3 25 -22 -3 -13 -11
-52 -17 -88 -6 -36 -15 -70 -20 -76 -5 -6 -40 -14 -77 -17 -37 -4 -116 -11
-177 -17 -259 -24 -360 -31 -535 -36 -200 -6 -230 -14 -230 -59 0 -43 33 -55
157 -55 62 0 156 4 210 10 54 5 159 14 233 20 125 10 256 22 388 36 75 8 126
54 142 127 6 29 18 82 27 118 l16 66 75 7 c41 3 116 6 166 6 109 0 141 13 141
55 0 50 -27 57 -206 50 l-157 -6 15 68 c36 169 -6 216 -177 193z"/>
</g>
</svg>
