<?xml version="1.0" standalone="no"?>
<!DOCTYPE svg PUBLIC "-//W3C//DTD SVG 20010904//EN"
 "http://www.w3.org/TR/2001/REC-SVG-20010904/DTD/svg10.dtd">
<svg version="1.0" xmlns="http://www.w3.org/2000/svg"
 width="248.000000pt" height="248.000000pt" viewBox="0 0 248.000000 248.000000"
 preserveAspectRatio="xMidYMid meet">
<metadata>
Created by potrace 1.10, written by Peter Selinger 2001-2011
</metadata>
<g transform="translate(0.000000,248.000000) scale(0.100000,-0.100000)"
fill="#000000" stroke="none">
<path d="M1430 2244 c-185 -28 -251 -34 -270 -24 -32 17 -58 3 -82 -43 -25
-51 -195 -311 -243 -374 -56 -74 -44 -113 35 -113 25 0 77 -9 115 -19 39 -10
89 -22 113 -26 23 -4 42 -8 42 -10 0 -19 -165 -259 -215 -313 -64 -69 -76 -97
-53 -120 49 -49 142 39 297 282 60 94 147 241 192 326 45 85 83 156 85 158 11
16 174 -142 174 -168 0 -5 -24 -26 -54 -46 -59 -39 -71 -62 -49 -93 22 -32 61
-26 121 19 29 22 56 40 60 40 5 0 24 -16 43 -36 80 -85 368 -301 503 -379 101
-58 125 -65 150 -39 35 35 9 69 -99 129 -126 70 -382 263 -473 357 l-42 44 83
89 c46 50 109 124 140 166 31 42 64 82 72 89 20 16 19 54 -1 74 -27 28 -65 30
-248 13 -190 -17 -216 -26 -216 -72 0 -45 20 -50 158 -37 178 17 168 18 141
-20 -13 -18 -63 -76 -112 -129 l-89 -97 -99 100 c-54 55 -99 102 -99 104 0 2
14 25 30 51 31 49 38 91 18 111 -11 11 -72 14 -128 6z m-26 -145 c-8 -17 -31
-55 -50 -85 -32 -49 -37 -53 -56 -43 -12 6 -59 14 -105 17 -46 3 -86 9 -89 13
-4 6 25 60 54 99 5 6 159 28 215 29 l48 1 -17 -31z m-140 -229 c4 -4 -7 -36
-25 -72 -33 -61 -35 -63 -69 -60 -58 5 -210 44 -210 54 0 5 14 30 31 55 l32
46 116 -7 c64 -4 120 -11 125 -16z"/>
<path d="M749 2176 c-4 -4 -228 -55 -404 -92 -38 -8 -85 -14 -102 -14 -31 0
-73 -28 -73 -49 0 -5 12 -33 28 -62 l27 -53 0 -676 c0 -464 -4 -717 -13 -810
-7 -74 -15 -163 -19 -198 -6 -69 4 -92 42 -92 36 0 57 33 66 107 14 116 38
580 39 750 l0 162 28 -14 c126 -63 232 -107 261 -107 46 0 67 24 98 113 21 60
25 92 26 174 0 160 -41 261 -153 372 l-52 53 54 62 c30 35 70 85 88 113 19 27
56 79 82 114 54 72 61 110 26 135 -22 16 -40 20 -49 12z m-138 -193 c-56 -82
-124 -160 -182 -207 -39 -32 -49 -46 -47 -65 3 -27 31 -46 83 -56 44 -9 129
-103 157 -173 18 -47 23 -76 23 -162 0 -102 -16 -180 -36 -180 -5 0 -40 15
-77 34 -92 47 -144 61 -169 48 -20 -11 -20 -6 -27 316 -4 180 -10 350 -15 377
-10 58 -8 60 69 75 30 6 96 19 145 29 50 11 96 20 103 20 7 1 -5 -25 -27 -56z"/>
<path d="M1718 1430 c-15 -4 -101 -15 -190 -25 -90 -9 -203 -20 -252 -25 -98
-10 -136 -28 -136 -64 0 -54 27 -55 390 -15 258 28 286 36 296 76 13 49 -38
74 -108 53z"/>
<path d="M1857 1085 c-1 -1 -60 -5 -132 -8 -261 -11 -815 -88 -850 -117 -18
-15 -20 -51 -3 -68 17 -17 99 -14 203 7 50 10 122 22 160 25 39 4 85 10 104
13 l34 6 -6 -348 c-4 -191 -9 -350 -11 -352 -2 -3 -14 5 -25 16 -37 37 -91 22
-91 -25 0 -29 107 -192 131 -199 29 -10 59 4 69 31 16 40 29 256 36 577 5 230
10 307 20 311 31 12 351 28 454 23 135 -7 165 1 165 48 0 41 -29 52 -153 57
-56 3 -103 4 -105 3z"/>
<path d="M1019 743 c-8 -10 -35 -58 -59 -106 -31 -61 -73 -120 -133 -189 -69
-78 -87 -106 -85 -126 4 -32 28 -47 60 -39 44 11 186 184 246 298 52 101 63
144 40 167 -17 17 -53 15 -69 -5z"/>
</g>
</svg>
