<?xml version="1.0" standalone="no"?>
<!DOCTYPE svg PUBLIC "-//W3C//DTD SVG 20010904//EN"
 "http://www.w3.org/TR/2001/REC-SVG-20010904/DTD/svg10.dtd">
<svg version="1.0" xmlns="http://www.w3.org/2000/svg"
 width="248.000000pt" height="248.000000pt" viewBox="0 0 248.000000 248.000000"
 preserveAspectRatio="xMidYMid meet">
<metadata>
Created by potrace 1.10, written by Peter Selinger 2001-2011
</metadata>
<g transform="translate(0.000000,248.000000) scale(0.100000,-0.100000)"
fill="#000000" stroke="none">
<path d="M1146 2398 c-12 -17 -16 -49 -16 -135 l0 -113 -197 -1 c-255 -1 -273
-4 -273 -55 0 -48 26 -54 259 -54 l214 0 -5 -145 c-3 -80 -7 -147 -9 -149 -2
-3 -74 -9 -159 -15 -85 -6 -198 -16 -250 -21 -52 -6 -159 -17 -238 -25 -155
-15 -192 -28 -192 -69 0 -40 23 -50 98 -43 37 4 139 14 227 22 88 9 216 20
285 25 69 5 143 12 165 15 217 29 506 47 810 51 305 4 341 6 353 21 17 23 15
40 -7 62 -15 15 -40 20 -122 26 -109 7 -571 -9 -699 -25 -41 -5 -94 -9 -118
-10 l-43 0 7 143 c4 78 8 144 10 145 1 2 53 8 116 13 95 8 337 44 441 65 35 7
54 43 38 73 -15 28 -69 28 -222 0 -63 -11 -174 -26 -246 -32 l-133 -12 0 110
c0 122 -12 155 -55 155 -13 0 -31 -10 -39 -22z"/>
</g>
</svg>
