<?xml version="1.0" standalone="no"?>
<!DOCTYPE svg PUBLIC "-//W3C//DTD SVG 20010904//EN"
 "http://www.w3.org/TR/2001/REC-SVG-20010904/DTD/svg10.dtd">
<svg version="1.0" xmlns="http://www.w3.org/2000/svg"
 width="248.000000pt" height="248.000000pt" viewBox="0 0 248.000000 248.000000"
 preserveAspectRatio="xMidYMid meet">
<metadata>
Created by potrace 1.10, written by Peter Selinger 2001-2011
</metadata>
<g transform="translate(0.000000,248.000000) scale(0.100000,-0.100000)"
fill="#000000" stroke="none">
<path d="M1552 2388 c-16 -16 -15 -50 1 -71 24 -33 220 -147 252 -147 61 0 77
59 24 88 -16 9 -73 45 -126 80 -95 62 -128 73 -151 50z"/>
<path d="M1172 2368 c-7 -7 -12 -25 -12 -40 0 -23 45 -154 95 -279 5 -14 -7
-17 -82 -23 -48 -4 -146 -13 -218 -21 -71 -8 -186 -18 -255 -24 -118 -9 -126
-11 -148 -36 -16 -19 -22 -35 -18 -51 11 -41 -12 -187 -54 -361 -46 -185 -87
-294 -156 -415 -32 -56 -28 -94 12 -104 32 -8 55 12 98 90 58 104 96 202 125
319 l27 112 50 12 c27 6 69 11 94 12 25 0 118 13 207 28 89 15 165 24 169 21
7 -8 -44 -180 -78 -258 -30 -71 -111 -220 -119 -220 -4 0 -19 16 -33 35 -38
50 -62 60 -92 40 -36 -23 -30 -56 23 -122 58 -71 60 -73 101 -73 25 0 42 8 63
32 65 69 165 268 205 408 13 47 31 109 40 139 14 43 14 60 5 92 -18 58 -8 58
-336 5 -108 -17 -259 -35 -263 -31 -2 1 2 31 8 66 5 35 10 81 10 102 0 46 21
57 113 57 34 1 96 5 137 10 41 6 129 15 195 21 66 5 144 14 173 18 l53 8 86
-171 c48 -94 103 -205 123 -246 l38 -75 -36 -50 c-20 -27 -52 -69 -71 -91 -20
-23 -63 -74 -96 -113 -33 -40 -84 -90 -113 -113 -46 -35 -53 -45 -50 -71 4
-37 26 -52 62 -43 38 9 163 132 268 263 50 62 92 112 93 111 2 -2 29 -46 61
-98 125 -207 272 -370 333 -370 41 0 60 20 70 75 5 28 23 89 40 135 43 116 39
150 -15 150 -34 0 -46 -18 -83 -121 -19 -52 -36 -96 -38 -98 -13 -17 -137 147
-232 306 l-72 121 54 74 c128 173 157 234 125 266 -24 24 -57 13 -85 -28 -16
-22 -53 -76 -83 -120 -30 -44 -58 -80 -61 -80 -7 0 -212 401 -207 404 2 1 50
8 108 14 58 7 179 21 270 32 91 11 181 20 200 20 54 0 85 20 85 55 0 48 -37
60 -149 46 -50 -6 -188 -22 -306 -36 -118 -14 -225 -27 -236 -30 -18 -4 -26 5
-52 63 -16 37 -42 103 -57 147 -16 44 -35 88 -43 98 -17 20 -53 22 -70 5z"/>
<path d="M1445 880 c-49 -5 -184 -14 -300 -20 -115 -6 -253 -15 -305 -20 -52
-4 -122 -9 -155 -11 -33 -1 -72 -8 -87 -16 -46 -22 -46 -41 -3 -283 9 -47 24
-152 35 -233 10 -82 24 -155 31 -163 19 -23 57 -17 76 12 17 27 14 59 -57 519
-4 28 -7 51 -5 53 3 4 222 21 405 32 96 5 245 14 330 20 85 6 202 10 259 10
l103 0 -6 -87 c-4 -49 -12 -115 -17 -148 -5 -33 -14 -125 -19 -204 -10 -126
-9 -146 5 -168 21 -31 64 -28 81 6 7 13 15 72 19 130 3 58 13 165 22 236 8 72
16 169 17 217 2 124 4 123 -187 124 -84 1 -192 -2 -242 -6z"/>
</g>
</svg>
