<?xml version="1.0" standalone="no"?>
<!DOCTYPE svg PUBLIC "-//W3C//DTD SVG 20010904//EN"
 "http://www.w3.org/TR/2001/REC-SVG-20010904/DTD/svg10.dtd">
<svg version="1.0" xmlns="http://www.w3.org/2000/svg"
 width="248.000000pt" height="248.000000pt" viewBox="0 0 248.000000 248.000000"
 preserveAspectRatio="xMidYMid meet">
<metadata>
Created by potrace 1.10, written by Peter Selinger 2001-2011
</metadata>
<g transform="translate(0.000000,248.000000) scale(0.100000,-0.100000)"
fill="#000000" stroke="none">
<path d="M1172 2368 c-7 -7 -12 -25 -12 -40 0 -23 45 -154 95 -279 5 -14 -7
-17 -82 -23 -48 -4 -146 -13 -218 -21 -71 -8 -186 -18 -255 -24 -118 -9 -126
-11 -148 -36 -16 -19 -22 -35 -18 -51 11 -41 -12 -187 -54 -361 -46 -185 -87
-294 -156 -415 -32 -56 -28 -94 12 -104 32 -8 55 12 98 90 58 104 96 202 125
319 l27 112 50 12 c27 6 69 11 94 12 25 0 118 13 207 28 89 15 165 24 169 21
7 -8 -44 -180 -78 -258 -30 -71 -111 -220 -119 -220 -4 0 -19 16 -33 35 -38
50 -62 60 -92 40 -36 -23 -30 -56 23 -122 58 -71 60 -73 101 -73 25 0 42 8 63
32 65 69 165 268 205 408 13 47 31 109 40 139 14 43 14 60 5 92 -18 58 -8 58
-336 5 -108 -17 -259 -35 -263 -31 -2 1 2 31 8 66 5 35 10 81 10 102 0 46 21
57 113 57 34 1 96 5 137 10 41 6 129 15 195 21 66 5 144 14 174 18 l53 8 57
-116 c267 -543 408 -773 552 -898 90 -79 141 -71 158 22 5 28 23 89 40 135 43
116 39 150 -15 150 -34 0 -46 -18 -83 -121 -19 -52 -36 -96 -38 -98 -12 -17
-136 144 -226 296 -65 108 -342 643 -335 647 2 1 50 8 108 14 58 7 179 21 270
32 91 11 181 20 200 20 54 0 85 20 85 55 0 49 -36 59 -158 45 -244 -28 -514
-61 -533 -65 -18 -4 -26 5 -52 63 -16 37 -42 103 -57 147 -16 44 -35 88 -43
98 -17 20 -53 22 -70 5z"/>
</g>
</svg>
