<?xml version="1.0" standalone="no"?>
<!DOCTYPE svg PUBLIC "-//W3C//DTD SVG 20010904//EN"
 "http://www.w3.org/TR/2001/REC-SVG-20010904/DTD/svg10.dtd">
<svg version="1.0" xmlns="http://www.w3.org/2000/svg"
 width="248.000000pt" height="248.000000pt" viewBox="0 0 248.000000 248.000000"
 preserveAspectRatio="xMidYMid meet">
<metadata>
Created by potrace 1.10, written by Peter Selinger 2001-2011
</metadata>
<g transform="translate(0.000000,248.000000) scale(0.100000,-0.100000)"
fill="#000000" stroke="none">
<path d="M586 2138 c-11 -18 -16 -81 -21 -291 -7 -261 -8 -267 -29 -272 -47
-10 -205 -34 -261 -40 -33 -3 -67 -13 -77 -22 -21 -18 -24 -53 -6 -71 18 -18
107 -15 237 8 63 11 117 17 119 15 3 -3 -1 -134 -7 -292 -14 -313 -11 -338 34
-349 52 -13 58 8 67 204 5 97 12 240 16 317 l7 139 60 12 c33 6 105 20 159 30
130 23 165 55 115 105 -15 15 -28 19 -47 15 -15 -4 -76 -15 -137 -26 -60 -12
-119 -23 -129 -27 -18 -5 -19 2 -12 253 7 284 4 306 -46 312 -19 2 -31 -3 -42
-20z"/>
</g>
</svg>
