<?xml version="1.0" standalone="no"?>
<!DOCTYPE svg PUBLIC "-//W3C//DTD SVG 20010904//EN"
 "http://www.w3.org/TR/2001/REC-SVG-20010904/DTD/svg10.dtd">
<svg version="1.0" xmlns="http://www.w3.org/2000/svg"
 width="248.000000pt" height="248.000000pt" viewBox="0 0 248.000000 248.000000"
 preserveAspectRatio="xMidYMid meet">
<metadata>
Created by potrace 1.10, written by Peter Selinger 2001-2011
</metadata>
<g transform="translate(0.000000,248.000000) scale(0.100000,-0.100000)"
fill="#000000" stroke="none">
<path d="M553 1938 c-6 -7 -15 -65 -21 -128 -13 -130 -86 -431 -127 -525 -41
-93 -52 -117 -81 -167 -32 -56 -28 -94 12 -104 32 -8 55 12 98 90 64 116 96
205 145 402 53 216 61 261 62 348 1 41 -4 63 -17 77 -19 22 -57 25 -71 7z"/>
</g>
</svg>
