<?xml version="1.0" standalone="no"?>
<!DOCTYPE svg PUBLIC "-//W3C//DTD SVG 20010904//EN"
 "http://www.w3.org/TR/2001/REC-SVG-20010904/DTD/svg10.dtd">
<svg version="1.0" xmlns="http://www.w3.org/2000/svg"
 width="248.000000pt" height="248.000000pt" viewBox="0 0 248.000000 248.000000"
 preserveAspectRatio="xMidYMid meet">
<metadata>
Created by potrace 1.10, written by Peter Selinger 2001-2011
</metadata>
<g transform="translate(0.000000,248.000000) scale(0.100000,-0.100000)"
fill="#000000" stroke="none">
<path d="M2018 2213 c-9 -10 -25 -45 -37 -78 -23 -65 -61 -140 -123 -248 -43
-74 -45 -110 -8 -122 39 -12 60 6 120 108 94 158 147 310 120 342 -17 20 -53
19 -72 -2z"/>
<path d="M1280 2135 c-29 -34 45 -330 96 -387 21 -22 57 -24 74 -3 15 18 10
46 -23 145 -14 41 -33 109 -42 150 -10 41 -24 83 -33 93 -19 21 -55 22 -72 2z"/>
</g>
</svg>
