<?xml version="1.0" standalone="no"?>
<!DOCTYPE svg PUBLIC "-//W3C//DTD SVG 20010904//EN"
 "http://www.w3.org/TR/2001/REC-SVG-20010904/DTD/svg10.dtd">
<svg version="1.0" xmlns="http://www.w3.org/2000/svg"
 width="248.000000pt" height="248.000000pt" viewBox="0 0 248.000000 248.000000"
 preserveAspectRatio="xMidYMid meet">
<metadata>
Created by potrace 1.10, written by Peter Selinger 2001-2011
</metadata>
<g transform="translate(0.000000,248.000000) scale(0.100000,-0.100000)"
fill="#000000" stroke="none">
<path d="M1883 2386 c-10 -14 -31 -44 -48 -67 -16 -24 -58 -74 -92 -112 -38
-42 -63 -77 -63 -91 0 -24 28 -56 49 -56 39 0 229 227 238 286 10 62 -47 88
-84 40z"/>
<path d="M1160 2346 c-7 -9 -10 -28 -7 -43 10 -61 59 -209 74 -225 31 -35 83
-17 83 29 0 37 -49 196 -69 223 -21 29 -62 37 -81 16z"/>
<path d="M570 2315 c-19 -22 -6 -91 32 -177 48 -110 74 -148 101 -148 59 0 61
49 8 162 -22 46 -43 97 -47 113 -14 59 -65 85 -94 50z"/>
<path d="M1560 2024 c-179 -7 -383 -19 -455 -28 -71 -8 -193 -22 -270 -31 -77
-9 -189 -23 -250 -31 -60 -8 -155 -19 -210 -25 -132 -14 -162 -24 -181 -61
-15 -28 -15 -42 1 -162 10 -72 24 -141 32 -153 18 -30 58 -30 78 1 14 21 14
34 -1 130 -8 59 -13 113 -11 121 4 8 31 15 74 18 37 2 118 12 178 20 61 9 169
23 240 31 72 9 189 23 260 31 133 17 397 29 859 41 l259 7 -19 -33 c-10 -18
-54 -65 -96 -105 -46 -42 -78 -80 -78 -91 0 -43 46 -57 98 -30 37 19 130 119
177 190 58 88 47 143 -34 166 -45 12 -233 11 -651 -6z"/>
<path d="M1134 1795 c-15 -23 -16 -44 -10 -179 l6 -153 -77 -6 c-43 -4 -145
-9 -228 -12 -230 -9 -295 -27 -295 -80 0 -45 12 -46 276 -30 137 8 267 18 288
21 l39 6 -6 -143 c-4 -79 -7 -354 -8 -612 -1 -503 -1 -501 50 -495 55 6 56 9
61 655 3 325 7 594 10 597 3 3 71 10 150 16 313 22 372 29 396 45 26 17 32 53
12 73 -15 15 -96 15 -242 2 -61 -6 -157 -14 -212 -18 l-102 -7 -6 44 c-3 24
-6 89 -6 145 0 115 -12 149 -52 154 -20 2 -31 -4 -44 -23z"/>
</g>
</svg>
