<?xml version="1.0" standalone="no"?>
<!DOCTYPE svg PUBLIC "-//W3C//DTD SVG 20010904//EN"
 "http://www.w3.org/TR/2001/REC-SVG-20010904/DTD/svg10.dtd">
<svg version="1.0" xmlns="http://www.w3.org/2000/svg"
 width="248.000000pt" height="248.000000pt" viewBox="0 0 248.000000 248.000000"
 preserveAspectRatio="xMidYMid meet">
<metadata>
Created by potrace 1.10, written by Peter Selinger 2001-2011
</metadata>
<g transform="translate(0.000000,248.000000) scale(0.100000,-0.100000)"
fill="#000000" stroke="none">
<path d="M600 1920 c-78 -10 -240 -35 -323 -51 -26 -5 -63 -9 -81 -9 -19 0
-43 -8 -55 -17 l-21 -18 10 -398 c7 -287 13 -405 22 -425 18 -36 60 -42 82
-10 17 24 17 89 1 605 l-5 162 57 6 c32 4 101 15 153 25 52 10 137 22 188 25
l94 7 -7 -213 c-4 -118 -11 -272 -15 -344 -9 -152 -2 -180 45 -180 22 0 33 7
42 27 17 34 32 273 35 555 3 199 1 224 -14 239 -21 21 -100 26 -208 14z"/>
</g>
</svg>
