<?xml version="1.0" standalone="no"?>
<!DOCTYPE svg PUBLIC "-//W3C//DTD SVG 20010904//EN"
 "http://www.w3.org/TR/2001/REC-SVG-20010904/DTD/svg10.dtd">
<svg version="1.0" xmlns="http://www.w3.org/2000/svg"
 width="248.000000pt" height="248.000000pt" viewBox="0 0 248.000000 248.000000"
 preserveAspectRatio="xMidYMid meet">
<metadata>
Created by potrace 1.10, written by Peter Selinger 2001-2011
</metadata>
<g transform="translate(0.000000,248.000000) scale(0.100000,-0.100000)"
fill="#000000" stroke="none">
<path d="M497 2380 c-12 -17 -13 -64 -9 -259 l5 -239 -44 -7 c-191 -29 -310
-53 -326 -66 -18 -16 -16 -54 3 -70 20 -16 94 -14 178 5 33 8 89 18 124 22
l63 7 -8 -454 c-4 -250 -8 -622 -8 -828 0 -408 -1 -402 57 -388 44 11 48 39
48 315 0 254 20 1375 24 1380 2 1 50 11 107 22 170 32 188 37 204 50 22 19 18
57 -8 75 -21 13 -36 12 -162 -13 l-140 -28 -7 224 c-6 177 -11 229 -23 248
-19 30 -59 31 -78 4z"/>
</g>
</svg>
