<?xml version="1.0" standalone="no"?>
<!DOCTYPE svg PUBLIC "-//W3C//DTD SVG 20010904//EN"
 "http://www.w3.org/TR/2001/REC-SVG-20010904/DTD/svg10.dtd">
<svg version="1.0" xmlns="http://www.w3.org/2000/svg"
 width="248.000000pt" height="248.000000pt" viewBox="0 0 248.000000 248.000000"
 preserveAspectRatio="xMidYMid meet">
<metadata>
Created by potrace 1.10, written by Peter Selinger 2001-2011
</metadata>
<g transform="translate(0.000000,248.000000) scale(0.100000,-0.100000)"
fill="#000000" stroke="none">
<path d="M1386 2328 c-9 -12 -16 -29 -16 -38 0 -26 -151 -340 -204 -425 -27
-44 -72 -106 -98 -138 -26 -32 -48 -62 -48 -67 0 -39 39 -66 71 -49 64 34 177
209 286 442 93 200 109 257 81 285 -19 19 -55 14 -72 -10z"/>
<path d="M600 1939 c-182 -13 -327 -35 -355 -53 -29 -19 -32 -46 -7 -83 15
-25 17 -71 20 -518 3 -428 6 -492 19 -508 19 -21 45 -21 100 -2 23 8 134 24
248 35 189 20 208 20 224 6 22 -20 45 -20 65 0 13 12 16 39 16 132 0 64 4 178
10 252 5 74 14 239 20 366 6 127 15 255 19 285 7 42 6 59 -5 77 -14 21 -20 22
-137 21 -67 -1 -174 -6 -237 -10z m271 -194 c-2 -61 -6 -150 -10 -200 l-6 -90
-120 -12 c-66 -7 -176 -20 -244 -28 -101 -13 -126 -14 -133 -3 -4 7 -7 101 -5
208 l2 195 75 8 c117 12 413 35 430 33 12 -1 14 -19 11 -111z m-28 -582 c-2
-104 -6 -198 -8 -209 -4 -20 -15 -22 -132 -33 -71 -7 -175 -19 -233 -26 -58
-7 -109 -11 -114 -8 -9 6 -3 399 6 408 7 7 368 50 453 54 l31 1 -3 -187z"/>
</g>
</svg>
