<?xml version="1.0" standalone="no"?>
<!DOCTYPE svg PUBLIC "-//W3C//DTD SVG 20010904//EN"
 "http://www.w3.org/TR/2001/REC-SVG-20010904/DTD/svg10.dtd">
<svg version="1.0" xmlns="http://www.w3.org/2000/svg"
 width="248.000000pt" height="248.000000pt" viewBox="0 0 248.000000 248.000000"
 preserveAspectRatio="xMidYMid meet">
<metadata>
Created by potrace 1.10, written by Peter Selinger 2001-2011
</metadata>
<g transform="translate(0.000000,248.000000) scale(0.100000,-0.100000)"
fill="#000000" stroke="none">
<path d="M1342 2318 c-5 -7 -14 -36 -20 -63 -13 -61 -146 -363 -201 -455 -22
-37 -70 -102 -106 -146 -75 -90 -85 -116 -60 -144 31 -34 51 -23 123 63 133
159 167 220 308 552 35 84 45 170 22 193 -16 16 -53 15 -66 0z"/>
<path d="M820 2292 c-22 -6 -40 -33 -40 -57 0 -11 -16 -59 -36 -105 -19 -47
-44 -107 -55 -133 -27 -68 -139 -272 -204 -371 -51 -78 -165 -229 -255 -340
-41 -49 -50 -82 -28 -104 36 -36 77 -2 218 181 46 59 87 104 91 100 22 -25 12
-947 -13 -1125 -9 -68 -8 -81 6 -104 22 -32 65 -30 82 4 17 35 29 428 27 881
-2 386 -3 406 -22 432 l-20 26 33 49 c86 128 260 494 281 591 10 51 -21 88
-65 75z"/>
</g>
</svg>
