<?xml version="1.0" standalone="no"?>
<!DOCTYPE svg PUBLIC "-//W3C//DTD SVG 20010904//EN"
 "http://www.w3.org/TR/2001/REC-SVG-20010904/DTD/svg10.dtd">
<svg version="1.0" xmlns="http://www.w3.org/2000/svg"
 width="248.000000pt" height="248.000000pt" viewBox="0 0 248.000000 248.000000"
 preserveAspectRatio="xMidYMid meet">
<metadata>
Created by potrace 1.10, written by Peter Selinger 2001-2011
</metadata>
<g transform="translate(0.000000,248.000000) scale(0.100000,-0.100000)"
fill="#000000" stroke="none">
<path d="M600 1939 c-182 -13 -327 -35 -355 -53 -29 -19 -32 -46 -7 -83 15
-25 17 -71 20 -518 3 -318 7 -494 14 -502 14 -17 53 -16 67 0 7 10 12 167 13
523 l3 509 75 8 c132 13 435 35 441 31 7 -4 5 -34 -16 -409 -21 -368 -23 -608
-6 -628 17 -21 45 -22 65 -1 13 12 16 39 16 132 0 64 4 178 10 252 5 74 14
243 21 375 6 132 15 260 19 285 7 34 5 51 -6 68 -14 21 -20 22 -137 21 -67 -1
-174 -6 -237 -10z"/>
</g>
</svg>
