<?xml version="1.0" standalone="no"?>
<!DOCTYPE svg PUBLIC "-//W3C//DTD SVG 20010904//EN"
 "http://www.w3.org/TR/2001/REC-SVG-20010904/DTD/svg10.dtd">
<svg version="1.0" xmlns="http://www.w3.org/2000/svg"
 width="248.000000pt" height="248.000000pt" viewBox="0 0 248.000000 248.000000"
 preserveAspectRatio="xMidYMid meet">
<metadata>
Created by potrace 1.10, written by Peter Selinger 2001-2011
</metadata>
<g transform="translate(0.000000,248.000000) scale(0.100000,-0.100000)"
fill="#000000" stroke="none">
<path d="M497 2380 c-12 -17 -13 -64 -9 -259 l5 -239 -44 -6 c-24 -4 -78 -13
-119 -21 -41 -7 -97 -17 -125 -20 -63 -8 -95 -28 -95 -59 0 -55 55 -61 221
-26 127 27 120 28 104 -27 -7 -27 -21 -86 -30 -133 -22 -117 -81 -348 -112
-445 -40 -126 -113 -333 -144 -413 -31 -79 -36 -111 -17 -130 18 -18 52 -15
71 6 32 36 187 474 238 677 17 66 33 122 36 125 2 3 3 -287 1 -644 -3 -585 -1
-650 13 -659 25 -16 65 0 77 30 7 18 13 249 16 628 4 330 9 657 13 726 l6 126
43 -51 c24 -28 61 -73 82 -101 67 -86 120 -135 146 -135 28 0 56 24 56 47 0 8
-42 63 -93 122 -120 138 -231 289 -221 300 1 2 47 12 101 22 163 31 182 36
198 49 22 19 18 57 -8 75 -21 13 -36 12 -162 -13 l-140 -28 -7 224 c-6 177
-11 229 -23 248 -19 30 -59 31 -78 4z"/>
<path d="M2224 2242 c-6 -4 -23 -31 -38 -60 -63 -125 -174 -281 -269 -378 -70
-72 -86 -109 -59 -136 39 -39 120 24 241 187 163 218 226 346 189 383 -13 13
-47 16 -64 4z"/>
<path d="M1470 2175 c-11 -13 -11 -29 -1 -83 11 -61 73 -268 90 -301 20 -40
86 -39 96 2 3 12 -6 56 -20 97 -14 41 -37 118 -52 170 -14 52 -32 103 -41 113
-19 21 -55 22 -72 2z"/>
<path d="M1052 2108 c-19 -19 -14 -52 22 -156 103 -293 122 -323 175 -285 30
20 26 45 -20 163 -22 57 -49 131 -60 165 -27 85 -54 125 -82 125 -13 0 -28 -5
-35 -12z"/>
<path d="M1348 1503 c-8 -10 -25 -47 -38 -83 -59 -163 -89 -225 -112 -236 -20
-10 -216 -34 -380 -47 -26 -2 -54 -10 -63 -17 -23 -19 -18 -57 10 -76 28 -18
98 -15 285 11 52 7 97 11 100 8 5 -5 -63 -137 -107 -207 -18 -28 -33 -54 -33
-58 0 -4 -14 -29 -30 -55 -35 -55 -39 -98 -10 -113 11 -6 43 -15 72 -20 40 -8
375 -164 397 -186 19 -19 -249 -194 -298 -194 -27 0 -61 -29 -61 -54 0 -45 43
-58 122 -36 57 16 240 131 303 191 17 16 36 29 43 29 26 0 264 -149 345 -217
38 -30 101 -32 117 -3 16 31 3 58 -38 80 -20 11 -84 53 -142 94 -58 41 -129
87 -157 102 -29 15 -53 30 -53 34 0 4 10 15 22 26 38 34 137 163 177 232 77
133 112 212 140 318 l28 109 89 7 c49 4 126 8 172 8 93 1 126 10 142 40 9 17
7 24 -14 45 l-24 24 -216 -4 c-118 -2 -219 -6 -223 -8 -5 -2 -42 -7 -83 -11
-41 -4 -102 -11 -135 -16 -62 -10 -356 -32 -360 -28 -2 2 19 57 46 123 49 122
59 171 37 193 -17 17 -53 15 -70 -5z m506 -464 c-16 -61 -46 -132 -90 -213
-75 -138 -93 -163 -182 -257 l-64 -68 -121 64 c-67 35 -160 80 -207 100 -47
21 -89 41 -94 45 -4 5 6 35 24 67 18 32 59 110 93 173 33 63 65 118 70 122 6
3 49 9 96 13 109 8 300 26 371 35 30 4 72 8 92 9 l37 1 -25 -91z"/>
</g>
</svg>
