<?xml version="1.0" standalone="no"?>
<!DOCTYPE svg PUBLIC "-//W3C//DTD SVG 20010904//EN"
 "http://www.w3.org/TR/2001/REC-SVG-20010904/DTD/svg10.dtd">
<svg version="1.0" xmlns="http://www.w3.org/2000/svg"
 width="248.000000pt" height="248.000000pt" viewBox="0 0 248.000000 248.000000"
 preserveAspectRatio="xMidYMid meet">
<metadata>
Created by potrace 1.10, written by Peter Selinger 2001-2011
</metadata>
<g transform="translate(0.000000,248.000000) scale(0.100000,-0.100000)"
fill="#000000" stroke="none">
<path d="M1386 2328 c-9 -12 -16 -29 -16 -38 0 -26 -151 -340 -204 -425 -27
-44 -72 -106 -98 -138 -50 -61 -52 -65 -42 -91 17 -43 66 -39 106 8 14 16 95
126 114 154 3 6 279 51 401 67 144 18 370 35 503 39 63 1 104 7 114 15 24 20
20 58 -7 76 -21 13 -46 14 -193 5 -301 -18 -401 -28 -606 -62 -71 -12 -130
-19 -134 -16 -3 3 29 79 70 169 76 163 91 220 64 247 -19 19 -55 14 -72 -10z"/>
<path d="M600 1939 c-182 -13 -327 -35 -355 -53 -29 -19 -32 -46 -7 -83 15
-25 17 -71 20 -518 3 -428 6 -492 19 -508 19 -21 45 -21 100 -2 23 8 134 24
248 35 189 20 208 20 224 6 22 -20 45 -20 65 0 13 12 16 39 16 132 0 64 4 178
10 252 5 74 14 239 20 366 6 127 15 255 19 285 7 42 6 59 -5 77 -14 21 -20 22
-137 21 -67 -1 -174 -6 -237 -10z m271 -194 c-2 -61 -6 -150 -10 -200 l-6 -90
-120 -12 c-66 -7 -176 -20 -244 -28 -101 -13 -126 -14 -133 -3 -4 7 -7 101 -5
208 l2 195 75 8 c117 12 413 35 430 33 12 -1 14 -19 11 -111z m-25 -441 c-3
-26 -6 -115 -6 -198 0 -83 -4 -156 -8 -163 -6 -9 -308 -47 -452 -56 l-25 -2 1
202 c0 112 3 205 6 208 7 8 370 50 457 54 l34 1 -7 -46z"/>
</g>
</svg>
