<?xml version="1.0" standalone="no"?>
<!DOCTYPE svg PUBLIC "-//W3C//DTD SVG 20010904//EN"
 "http://www.w3.org/TR/2001/REC-SVG-20010904/DTD/svg10.dtd">
<svg version="1.0" xmlns="http://www.w3.org/2000/svg"
 width="248.000000pt" height="248.000000pt" viewBox="0 0 248.000000 248.000000"
 preserveAspectRatio="xMidYMid meet">
<metadata>
Created by potrace 1.10, written by Peter Selinger 2001-2011
</metadata>
<g transform="translate(0.000000,248.000000) scale(0.100000,-0.100000)"
fill="#000000" stroke="none">
<path d="M595 2317 c-11 -18 -15 -58 -16 -178 0 -84 -4 -219 -7 -299 l-7 -145
-125 -26 c-69 -15 -159 -30 -200 -34 -41 -4 -81 -12 -87 -17 -19 -16 -16 -53
7 -73 17 -15 31 -17 102 -11 46 4 99 11 118 16 20 5 69 16 109 23 l73 14 -6
-406 c-9 -600 -16 -901 -22 -948 -5 -33 -2 -45 15 -62 45 -45 86 -12 95 75 4
33 11 353 16 713 5 360 13 658 17 661 5 4 60 24 123 45 141 46 168 59 181 89
26 56 -35 85 -104 50 -26 -14 -193 -74 -204 -74 -2 0 -2 39 1 88 3 48 9 173
12 279 6 170 5 195 -10 217 -21 33 -60 34 -81 3z"/>
</g>
</svg>
