<?xml version="1.0" standalone="no"?>
<!DOCTYPE svg PUBLIC "-//W3C//DTD SVG 20010904//EN"
 "http://www.w3.org/TR/2001/REC-SVG-20010904/DTD/svg10.dtd">
<svg version="1.0" xmlns="http://www.w3.org/2000/svg"
 width="248.000000pt" height="248.000000pt" viewBox="0 0 248.000000 248.000000"
 preserveAspectRatio="xMidYMid meet">
<metadata>
Created by potrace 1.10, written by Peter Selinger 2001-2011
</metadata>
<g transform="translate(0.000000,248.000000) scale(0.100000,-0.100000)"
fill="#000000" stroke="none">
<path d="M1870 2264 c-63 -64 -147 -140 -187 -170 -40 -29 -77 -62 -83 -73
-10 -19 -22 -23 -112 -35 -36 -4 -37 -4 -32 23 5 21 -7 46 -56 122 -34 51 -72
102 -84 111 -24 20 -67 23 -84 6 -17 -17 -15 -53 5 -69 9 -8 37 -45 61 -84 25
-38 56 -82 70 -97 l26 -28 -41 0 c-70 0 -207 -21 -230 -36 -26 -17 -30 -55 -8
-74 23 -19 293 4 539 46 48 8 153 23 232 33 160 20 197 35 192 78 -6 50 -24
51 -260 17 -36 -5 -34 -2 103 135 139 141 157 169 127 199 -31 31 -61 14 -178
-104z"/>
<path d="M595 2317 c-11 -18 -15 -58 -16 -178 0 -84 -4 -219 -7 -299 l-7 -145
-125 -26 c-69 -15 -159 -30 -200 -34 -82 -8 -100 -16 -100 -50 0 -65 69 -70
313 -20 48 10 90 16 92 13 3 -3 -15 -57 -41 -119 -134 -328 -213 -491 -320
-650 -35 -52 -64 -104 -64 -115 0 -40 46 -58 81 -31 54 42 201 295 293 505 32
72 60 132 62 132 2 0 1 -55 -1 -122 -3 -68 -7 -301 -10 -518 -3 -217 -8 -411
-11 -431 -5 -29 -2 -41 15 -58 39 -39 78 -18 92 50 4 24 11 287 15 584 4 297
9 557 13 579 l6 38 54 -43 c154 -126 174 -137 200 -105 25 30 8 68 -49 113
-30 24 -89 72 -130 107 -65 55 -75 67 -75 96 l0 33 129 43 c70 24 139 50 151
58 29 19 39 49 26 74 -15 29 -44 32 -93 10 -39 -18 -205 -78 -216 -78 -3 0 -2
33 2 73 3 39 9 165 12 279 6 184 5 210 -10 232 -21 33 -60 34 -81 3z"/>
<path d="M1830 1719 c-36 -5 -114 -18 -175 -29 -93 -16 -289 -44 -465 -67 -57
-7 -90 -27 -90 -56 0 -34 19 -47 65 -47 44 0 532 67 545 75 4 2 50 9 101 15
125 14 157 25 165 57 15 57 -22 69 -146 52z"/>
<path d="M1915 1373 c-53 -4 -263 -32 -430 -58 -55 -9 -140 -22 -190 -29 -139
-22 -259 -47 -272 -58 -22 -17 -15 -56 12 -74 24 -16 32 -16 113 1 48 10 125
23 172 30 47 7 132 21 190 30 261 41 388 55 531 55 128 0 152 8 152 55 0 45
-25 55 -132 53 -53 -1 -118 -3 -146 -5z"/>
</g>
</svg>
