<?xml version="1.0" standalone="no"?>
<!DOCTYPE svg PUBLIC "-//W3C//DTD SVG 20010904//EN"
 "http://www.w3.org/TR/2001/REC-SVG-20010904/DTD/svg10.dtd">
<svg version="1.0" xmlns="http://www.w3.org/2000/svg"
 width="248.000000pt" height="248.000000pt" viewBox="0 0 248.000000 248.000000"
 preserveAspectRatio="xMidYMid meet">
<metadata>
Created by potrace 1.10, written by Peter Selinger 2001-2011
</metadata>
<g transform="translate(0.000000,248.000000) scale(0.100000,-0.100000)"
fill="#000000" stroke="none">
<path d="M1870 2264 c-63 -64 -147 -140 -187 -170 -40 -29 -77 -62 -83 -73
-10 -19 -22 -23 -112 -35 -36 -4 -37 -4 -32 23 5 21 -7 46 -56 122 -34 51 -72
102 -84 111 -24 20 -67 23 -84 6 -17 -17 -15 -53 5 -69 9 -8 37 -45 61 -84 25
-38 56 -82 70 -97 l26 -28 -41 0 c-70 0 -207 -21 -230 -36 -26 -17 -30 -55 -8
-74 24 -20 173 -8 530 44 94 14 219 32 278 40 123 16 160 34 155 73 -6 50 -24
51 -260 17 -36 -5 -34 -2 103 135 139 141 157 169 127 199 -31 31 -61 14 -178
-104z"/>
<path d="M595 2317 c-11 -18 -15 -58 -16 -178 0 -84 -4 -219 -7 -299 l-7 -145
-125 -26 c-69 -15 -159 -30 -200 -34 -82 -8 -100 -16 -100 -50 0 -65 69 -70
313 -20 48 10 90 16 92 13 3 -3 -15 -57 -41 -119 -134 -328 -213 -491 -320
-650 -35 -52 -64 -104 -64 -115 0 -40 46 -58 81 -31 54 42 201 295 293 505 32
72 60 132 62 132 2 0 1 -55 -1 -122 -3 -68 -7 -301 -10 -518 -3 -217 -8 -411
-11 -431 -5 -29 -2 -41 15 -58 46 -46 86 -12 96 81 3 34 9 309 13 610 4 300
10 550 14 554 4 4 33 -15 64 -42 127 -111 167 -131 193 -100 25 30 8 68 -49
113 -30 24 -89 72 -130 107 -65 55 -75 67 -75 96 l0 33 129 43 c140 47 171 63
181 93 17 54 -42 78 -108 45 -26 -14 -193 -74 -204 -74 -2 0 -2 39 1 88 3 48
9 173 12 279 6 170 5 195 -10 217 -21 33 -60 34 -81 3z"/>
</g>
</svg>
