<?xml version="1.0" standalone="no"?>
<!DOCTYPE svg PUBLIC "-//W3C//DTD SVG 20010904//EN"
 "http://www.w3.org/TR/2001/REC-SVG-20010904/DTD/svg10.dtd">
<svg version="1.0" xmlns="http://www.w3.org/2000/svg"
 width="248.000000pt" height="248.000000pt" viewBox="0 0 248.000000 248.000000"
 preserveAspectRatio="xMidYMid meet">
<metadata>
Created by potrace 1.10, written by Peter Selinger 2001-2011
</metadata>
<g transform="translate(0.000000,248.000000) scale(0.100000,-0.100000)"
fill="#000000" stroke="none">
<path d="M1870 2264 c-63 -64 -147 -140 -187 -170 -40 -29 -77 -62 -83 -73
-10 -19 -22 -23 -112 -35 -36 -4 -37 -4 -32 23 5 21 -7 46 -56 122 -34 51 -72
102 -84 111 -24 20 -67 23 -84 6 -17 -17 -15 -53 5 -69 9 -8 37 -45 61 -84 25
-38 56 -82 70 -97 l26 -28 -41 0 c-70 0 -207 -21 -230 -36 -26 -17 -30 -55 -8
-74 12 -10 44 -10 158 -1 78 7 157 15 175 18 l33 5 -3 -108 -3 -108 -35 -7
c-19 -5 -93 -15 -165 -24 -139 -18 -175 -32 -175 -68 0 -52 38 -57 217 -32 59
9 118 18 131 20 22 5 22 5 22 -118 l0 -123 -112 -18 c-177 -28 -322 -58 -335
-68 -22 -17 -15 -56 13 -74 23 -16 30 -16 107 0 45 9 126 23 179 31 53 8 108
17 123 21 l25 6 0 -159 c0 -88 3 -303 7 -479 l6 -319 -35 38 c-36 38 -73 48
-96 25 -23 -23 -12 -56 42 -121 29 -36 63 -82 76 -101 39 -63 103 -57 116 11
4 20 5 166 2 324 l-5 289 46 -40 c25 -22 73 -61 106 -87 33 -25 112 -97 175
-158 116 -113 252 -212 357 -261 65 -29 75 -30 98 -4 28 31 13 63 -42 90 -113
57 -246 154 -369 272 -71 68 -154 142 -184 165 -30 23 -81 67 -112 97 -32 31
-62 56 -68 56 -6 0 -10 67 -10 189 l0 190 58 6 c31 4 82 11 112 16 30 6 135
13 233 16 111 4 183 10 193 18 22 16 21 65 -2 83 -31 24 -310 7 -561 -34 l-33
-5 0 120 c0 117 1 121 23 125 71 16 190 35 245 41 102 10 132 26 132 71 0 44
-20 48 -157 30 -71 -9 -146 -21 -168 -26 -71 -17 -76 -15 -71 28 3 20 5 69 5
108 l1 71 83 12 c45 7 144 21 219 31 154 19 191 35 186 77 -6 50 -24 51 -260
17 -36 -5 -34 -2 103 135 139 141 157 169 127 199 -31 31 -61 14 -178 -104z"/>
<path d="M595 2317 c-11 -18 -15 -58 -16 -178 0 -84 -4 -219 -7 -299 l-7 -145
-125 -26 c-69 -15 -159 -30 -200 -34 -82 -8 -100 -16 -100 -50 0 -65 69 -70
313 -20 48 10 90 16 92 13 3 -3 -15 -57 -41 -119 -134 -328 -213 -491 -320
-650 -35 -52 -64 -104 -64 -115 0 -40 46 -58 81 -31 54 42 201 295 293 505 33
73 60 131 61 130 5 -7 -14 -1016 -20 -1058 -6 -41 -3 -52 14 -69 39 -39 79
-18 92 50 4 24 11 287 15 584 4 297 9 557 13 579 l6 38 54 -43 c154 -126 174
-137 200 -105 25 30 8 68 -49 113 -30 24 -89 72 -130 107 -65 55 -75 67 -75
96 l0 33 129 43 c70 24 139 50 151 58 29 19 39 49 26 74 -15 29 -44 32 -93 10
-39 -18 -205 -78 -216 -78 -3 0 -2 30 2 68 3 37 9 162 12 279 6 188 5 215 -10
238 -21 32 -60 33 -81 2z"/>
<path d="M1923 1158 c-43 -34 -98 -78 -123 -98 -25 -20 -64 -49 -87 -64 -31
-19 -43 -33 -43 -50 0 -29 24 -56 49 -56 22 0 91 44 168 106 33 27 82 67 109
88 58 47 74 65 74 83 0 17 -36 53 -54 53 -8 0 -50 -28 -93 -62z"/>
<path d="M990 1020 c-37 -37 -21 -66 66 -115 27 -15 75 -43 107 -61 82 -47
117 -42 117 16 0 34 -15 47 -117 103 -45 25 -92 52 -105 61 -30 21 -44 20 -68
-4z"/>
<path d="M1219 675 c-14 -7 -74 -74 -134 -147 -60 -73 -124 -150 -142 -171
-37 -42 -41 -82 -11 -101 35 -21 70 7 183 146 60 76 124 152 142 170 42 45 49
72 24 97 -24 24 -28 25 -62 6z"/>
</g>
</svg>
