<?xml version="1.0" standalone="no"?>
<!DOCTYPE svg PUBLIC "-//W3C//DTD SVG 20010904//EN"
 "http://www.w3.org/TR/2001/REC-SVG-20010904/DTD/svg10.dtd">
<svg version="1.0" xmlns="http://www.w3.org/2000/svg"
 width="248.000000pt" height="248.000000pt" viewBox="0 0 248.000000 248.000000"
 preserveAspectRatio="xMidYMid meet">
<metadata>
Created by potrace 1.10, written by Peter Selinger 2001-2011
</metadata>
<g transform="translate(0.000000,248.000000) scale(0.100000,-0.100000)"
fill="#000000" stroke="none">
<path d="M1095 2396 c-17 -12 -20 -29 -23 -123 -2 -59 -4 -132 -5 -162 -2 -45
1 -56 20 -68 20 -14 24 -13 47 10 26 26 31 52 40 225 5 83 4 94 -14 112 -24
24 -39 25 -65 6z"/>
<path d="M359 2049 c-13 -13 -19 -28 -15 -42 20 -84 18 -126 -18 -292 -13 -62
-14 -72 0 -92 16 -25 62 -31 82 -11 7 7 12 26 12 43 0 16 7 55 15 85 9 34 15
101 15 173 0 104 -2 119 -20 137 -26 26 -45 25 -71 -1z"/>
</g>
</svg>
