<?xml version="1.0" standalone="no"?>
<!DOCTYPE svg PUBLIC "-//W3C//DTD SVG 20010904//EN"
 "http://www.w3.org/TR/2001/REC-SVG-20010904/DTD/svg10.dtd">
<svg version="1.0" xmlns="http://www.w3.org/2000/svg"
 width="248.000000pt" height="248.000000pt" viewBox="0 0 248.000000 248.000000"
 preserveAspectRatio="xMidYMid meet">
<metadata>
Created by potrace 1.10, written by Peter Selinger 2001-2011
</metadata>
<g transform="translate(0.000000,248.000000) scale(0.100000,-0.100000)"
fill="#000000" stroke="none">
<path d="M1095 2396 c-17 -12 -20 -28 -21 -125 0 -61 -3 -113 -6 -116 -3 -3
-58 -12 -124 -20 -234 -29 -350 -46 -408 -61 -33 -9 -80 -15 -105 -13 -65 2
-69 1 -81 -20 -7 -14 -7 -35 1 -71 12 -54 5 -118 -26 -260 -12 -57 -12 -68 1
-87 16 -25 62 -31 82 -11 7 7 12 26 12 43 0 16 7 55 15 85 8 30 15 87 15 125
0 39 4 75 8 81 12 18 244 59 525 94 38 4 86 6 108 3 21 -3 44 -1 51 5 7 5 63
15 123 21 132 13 753 34 766 25 15 -9 -73 -113 -156 -184 -72 -62 -86 -87 -67
-116 29 -44 101 -6 211 112 137 147 184 246 129 275 -16 9 -114 10 -382 5
-199 -4 -401 -9 -451 -13 -49 -3 -101 -6 -115 -7 l-25 -1 0 108 c0 96 -2 110
-19 123 -25 18 -37 18 -61 0z"/>
<path d="M1344 1920 c-26 -10 -35 -42 -29 -102 3 -30 1 -49 -8 -55 -14 -12
-207 -43 -282 -46 l-49 -2 -8 55 c-16 111 -40 145 -91 132 -28 -7 -35 -40 -20
-93 8 -27 13 -63 11 -81 l-3 -33 -125 -13 c-69 -8 -131 -18 -137 -24 -16 -13
-17 -50 -1 -66 13 -13 109 -15 203 -3 40 5 62 4 67 -3 11 -16 10 -134 -2 -141
-5 -3 -53 -12 -107 -20 -107 -17 -143 -34 -143 -69 0 -38 23 -50 83 -41 149
21 162 22 170 11 7 -10 1 -165 -6 -172 -1 -2 -65 -12 -142 -23 -245 -36 -289
-51 -283 -98 5 -44 26 -48 129 -29 121 22 273 44 278 40 7 -6 -82 -118 -157
-196 -80 -84 -243 -212 -348 -273 -70 -41 -89 -74 -61 -102 24 -24 57 -19 117
18 160 97 334 242 427 356 43 53 99 119 124 148 26 29 48 57 50 63 2 6 61 16
131 23 l127 11 56 -50 c161 -143 548 -369 745 -435 198 -66 251 -69 258 -18 5
34 -14 49 -92 72 -187 54 -365 131 -476 205 -30 20 -104 68 -164 106 -114 72
-190 128 -183 135 2 2 63 10 134 18 72 8 136 17 144 20 8 3 65 9 127 14 86 6
116 12 132 26 24 21 26 57 5 75 -17 14 -125 8 -265 -15 -78 -13 -189 -25 -250
-29 l-25 -1 3 89 c1 49 3 91 5 92 1 1 45 7 97 14 52 6 105 14 117 16 27 5 46
38 38 65 -11 34 -48 40 -148 24 -50 -8 -95 -11 -100 -6 -4 4 -7 41 -5 82 l3
73 125 17 c104 14 127 21 142 39 22 27 23 44 2 64 -17 18 -60 21 -96 7 -13 -5
-58 -12 -101 -16 l-76 -7 4 62 c3 51 0 65 -16 81 -21 21 -24 22 -55 9z m-26
-348 c3 -69 2 -73 -23 -82 -37 -14 -308 -41 -318 -31 -4 4 -7 39 -5 77 l3 69
50 8 c314 47 289 51 293 -41z m-9 -276 c-2 -46 -7 -88 -12 -92 -7 -8 -224 -33
-289 -34 l-37 0 1 85 c0 47 4 88 9 90 4 3 34 8 66 11 32 3 90 9 128 13 39 5
85 9 104 10 l33 1 -3 -84z"/>
</g>
</svg>
