<?xml version="1.0" standalone="no"?>
<!DOCTYPE svg PUBLIC "-//W3C//DTD SVG 20010904//EN"
 "http://www.w3.org/TR/2001/REC-SVG-20010904/DTD/svg10.dtd">
<svg version="1.0" xmlns="http://www.w3.org/2000/svg"
 width="248.000000pt" height="248.000000pt" viewBox="0 0 248.000000 248.000000"
 preserveAspectRatio="xMidYMid meet">
<metadata>
Created by potrace 1.10, written by Peter Selinger 2001-2011
</metadata>
<g transform="translate(0.000000,248.000000) scale(0.100000,-0.100000)"
fill="#000000" stroke="none">
<path d="M1095 2396 c-17 -12 -20 -28 -21 -125 0 -61 -3 -113 -6 -116 -3 -3
-58 -12 -124 -20 -234 -29 -350 -46 -408 -61 -33 -9 -80 -15 -105 -13 -65 2
-69 1 -81 -20 -7 -14 -7 -35 1 -71 12 -54 5 -118 -26 -260 -12 -57 -12 -68 1
-87 16 -25 62 -31 82 -11 7 7 12 26 12 43 0 16 7 55 15 85 8 30 15 87 15 125
0 39 4 75 8 81 12 18 244 59 525 94 38 4 86 6 108 3 21 -3 44 -1 51 5 7 5 63
15 123 21 132 13 753 34 766 25 15 -9 -73 -113 -156 -184 -72 -62 -86 -87 -67
-116 29 -44 101 -6 211 112 137 147 184 246 129 275 -16 9 -114 10 -382 5
-199 -4 -401 -9 -451 -13 -49 -3 -101 -6 -115 -7 l-25 -1 0 108 c0 96 -2 110
-19 123 -25 18 -37 18 -61 0z"/>
<path d="M1578 1790 c-15 -4 -75 -13 -135 -20 -59 -6 -162 -20 -228 -30 -66
-10 -228 -31 -360 -45 -132 -15 -246 -32 -252 -37 -16 -13 -17 -50 -1 -66 21
-21 191 -9 510 33 62 8 201 26 308 40 107 14 207 28 222 31 28 6 58 37 58 61
0 36 -58 52 -122 33z"/>
</g>
</svg>
