<?xml version="1.0" standalone="no"?>
<!DOCTYPE svg PUBLIC "-//W3C//DTD SVG 20010904//EN"
 "http://www.w3.org/TR/2001/REC-SVG-20010904/DTD/svg10.dtd">
<svg version="1.0" xmlns="http://www.w3.org/2000/svg"
 width="248.000000pt" height="248.000000pt" viewBox="0 0 248.000000 248.000000"
 preserveAspectRatio="xMidYMid meet">
<metadata>
Created by potrace 1.10, written by Peter Selinger 2001-2011
</metadata>
<g transform="translate(0.000000,248.000000) scale(0.100000,-0.100000)"
fill="#000000" stroke="none">
<path d="M640 2315 c-11 -13 -11 -26 -2 -66 19 -79 16 -166 -5 -178 -10 -5
-67 -12 -128 -16 -60 -4 -116 -12 -122 -17 -22 -17 -15 -56 12 -74 21 -14 41
-15 130 -9 85 6 105 4 105 -7 0 -36 -23 -194 -29 -200 -3 -4 -80 -19 -170 -32
-89 -14 -169 -30 -177 -37 -18 -15 -18 -53 1 -69 17 -14 93 -10 237 12 43 6
80 9 83 7 2 -3 -5 -36 -16 -74 -31 -104 -105 -238 -173 -312 -58 -64 -59 -66
-45 -92 24 -42 52 -38 109 15 88 82 167 225 215 390 13 48 28 91 32 95 5 4 87
17 183 29 208 25 246 34 260 61 24 44 -24 87 -77 69 -28 -10 -345 -51 -350
-46 -3 3 15 161 22 193 4 17 15 23 53 28 78 11 226 35 245 41 22 7 40 40 32
63 -10 34 -42 38 -138 20 -50 -10 -111 -19 -136 -21 l-46 -3 -3 100 c-2 86 -6
103 -24 122 -25 27 -60 30 -78 8z"/>
</g>
</svg>
