<?xml version="1.0" standalone="no"?>
<!DOCTYPE svg PUBLIC "-//W3C//DTD SVG 20010904//EN"
 "http://www.w3.org/TR/2001/REC-SVG-20010904/DTD/svg10.dtd">
<svg version="1.0" xmlns="http://www.w3.org/2000/svg"
 width="248.000000pt" height="248.000000pt" viewBox="0 0 248.000000 248.000000"
 preserveAspectRatio="xMidYMid meet">
<metadata>
Created by potrace 1.10, written by Peter Selinger 2001-2011
</metadata>
<g transform="translate(0.000000,248.000000) scale(0.100000,-0.100000)"
fill="#000000" stroke="none">
<path d="M1321 2416 c-7 -8 -14 -31 -17 -53 -3 -21 -26 -79 -51 -130 -46 -95
-50 -118 -22 -136 31 -20 67 1 101 58 36 61 32 60 205 69 l93 5 -21 -42 c-12
-23 -33 -58 -47 -79 -17 -26 -22 -45 -18 -63 8 -31 48 -43 79 -22 23 15 107
163 107 189 0 16 4 16 229 36 74 7 97 13 107 27 18 24 18 36 0 61 -12 16 -26
19 -78 18 -93 -2 -486 -22 -535 -28 -43 -6 -43 -6 -43 27 0 62 -57 102 -89 63z"/>
<path d="M489 2394 c-7 -8 -16 -40 -20 -70 -10 -77 -55 -186 -100 -247 -42
-56 -47 -77 -23 -101 38 -38 95 3 150 108 17 34 37 58 49 61 22 5 206 25 229
25 18 0 46 -60 46 -97 0 -32 42 -73 68 -66 42 11 47 60 17 159 -7 23 -3 25
154 45 85 10 121 29 121 62 0 51 -43 58 -204 33 -131 -21 -240 -35 -330 -42
l-78 -7 7 52 c5 40 3 57 -9 76 -19 29 -57 33 -77 9z"/>
<path d="M1455 1980 c-82 -3 -159 -10 -170 -13 -12 -4 -99 -11 -195 -17 -301
-17 -454 -31 -467 -43 -8 -9 -8 -124 0 -472 l12 -460 35 -18 c32 -17 61 -18
376 -14 l341 4 -13 -26 c-8 -15 -14 -57 -14 -98 l0 -73 -93 0 c-52 0 -161 -3
-243 -6 l-149 -7 -1 77 c-2 84 -18 116 -59 116 -37 0 -45 -19 -45 -107 l0 -82
-32 -5 c-18 -3 -146 -7 -284 -9 -217 -3 -255 -6 -278 -20 -16 -11 -26 -27 -26
-41 0 -48 13 -50 283 -47 139 1 262 5 275 8 32 8 29 -19 -15 -129 -45 -114
-70 -153 -162 -245 -39 -39 -71 -77 -71 -83 0 -29 22 -50 51 -50 25 0 46 14
101 68 39 37 85 90 103 117 35 55 89 180 115 265 l16 55 105 6 c57 4 173 7
257 8 l152 1 0 -252 c0 -281 4 -303 55 -303 51 0 55 22 55 301 l0 252 45 7
c25 3 177 6 338 5 161 -1 300 1 310 5 28 12 22 61 -10 82 -25 16 -58 18 -355
18 l-328 0 0 70 c0 41 -6 81 -14 98 l-15 27 94 0 c127 0 125 -3 136 223 5 95
15 253 22 352 17 259 16 420 -4 440 -21 21 -59 24 -234 15z m143 -200 l-3 -99
-230 -5 c-126 -3 -320 -10 -430 -15 -110 -5 -201 -8 -201 -8 -1 1 -4 38 -8 82
l-7 81 128 12 c70 7 157 12 193 12 36 0 103 5 150 11 47 6 150 14 230 18 80 4
153 8 163 9 16 2 17 -7 15 -98z m-23 -326 l-7 -82 -201 -6 c-111 -4 -296 -11
-412 -16 -160 -7 -211 -6 -217 3 -4 7 -8 51 -8 99 l0 87 43 5 c49 6 297 16
592 25 243 7 221 19 210 -115z m-10 -291 c-4 -54 -8 -99 -9 -100 -2 -2 -186
-6 -409 -10 l-407 -6 0 91 0 91 43 5 c45 6 477 22 671 24 l118 2 -7 -97z"/>
</g>
</svg>
