<?xml version="1.0" standalone="no"?>
<!DOCTYPE svg PUBLIC "-//W3C//DTD SVG 20010904//EN"
 "http://www.w3.org/TR/2001/REC-SVG-20010904/DTD/svg10.dtd">
<svg version="1.0" xmlns="http://www.w3.org/2000/svg"
 width="248.000000pt" height="248.000000pt" viewBox="0 0 248.000000 248.000000"
 preserveAspectRatio="xMidYMid meet">
<metadata>
Created by potrace 1.10, written by Peter Selinger 2001-2011
</metadata>
<g transform="translate(0.000000,248.000000) scale(0.100000,-0.100000)"
fill="#000000" stroke="none">
<path d="M640 2315 c-11 -13 -11 -26 -2 -66 19 -79 16 -166 -5 -178 -10 -5
-67 -12 -128 -16 -60 -4 -116 -12 -122 -17 -22 -17 -15 -56 12 -74 21 -14 41
-15 130 -9 85 6 105 4 105 -7 0 -36 -23 -194 -29 -200 -3 -4 -80 -19 -170 -32
-89 -14 -169 -30 -177 -37 -18 -15 -18 -53 1 -69 17 -14 93 -10 237 12 43 6
80 9 83 7 2 -3 -5 -36 -16 -74 -31 -104 -105 -238 -173 -312 -58 -64 -59 -66
-45 -92 24 -43 52 -38 112 18 64 60 145 193 183 299 15 42 29 79 30 81 2 2 16
-6 33 -18 16 -12 76 -44 133 -72 57 -28 118 -64 136 -80 37 -33 63 -37 86 -13
43 43 -8 100 -154 171 -76 37 -158 85 -189 110 -11 8 16 13 174 33 203 25 241
34 255 61 25 45 -22 87 -77 69 -28 -10 -345 -51 -350 -46 -3 3 15 161 22 193
4 17 15 23 53 28 78 11 226 35 245 41 22 7 40 40 32 63 -10 34 -42 38 -138 20
-50 -10 -111 -19 -136 -21 l-46 -3 -3 100 c-2 86 -6 103 -24 122 -25 27 -60
30 -78 8z"/>
<path d="M1845 2145 c-44 -7 -181 -20 -305 -30 -124 -9 -231 -22 -237 -27 -16
-13 -17 -50 -1 -66 16 -16 120 -15 358 3 256 20 321 30 337 51 17 23 16 35 -3
62 -17 25 -29 25 -149 7z"/>
<path d="M1770 1840 c-102 -11 -255 -24 -340 -30 -85 -6 -163 -13 -173 -16
-23 -7 -40 -40 -32 -64 11 -33 39 -42 103 -31 31 6 102 13 157 17 233 14 629
55 641 65 17 14 18 51 2 67 -17 17 -133 14 -358 -8z"/>
</g>
</svg>
