<?xml version="1.0" standalone="no"?>
<!DOCTYPE svg PUBLIC "-//W3C//DTD SVG 20010904//EN"
 "http://www.w3.org/TR/2001/REC-SVG-20010904/DTD/svg10.dtd">
<svg version="1.0" xmlns="http://www.w3.org/2000/svg"
 width="248.000000pt" height="248.000000pt" viewBox="0 0 248.000000 248.000000"
 preserveAspectRatio="xMidYMid meet">
<metadata>
Created by potrace 1.10, written by Peter Selinger 2001-2011
</metadata>
<g transform="translate(0.000000,248.000000) scale(0.100000,-0.100000)"
fill="#000000" stroke="none">
<path d="M1321 2416 c-7 -8 -14 -31 -17 -53 -3 -21 -26 -79 -51 -129 -46 -94
-50 -119 -22 -137 31 -20 67 1 101 58 36 61 32 60 205 69 l93 5 -21 -42 c-12
-23 -33 -58 -47 -79 -17 -26 -22 -45 -18 -63 8 -32 48 -43 80 -21 23 15 106
164 106 191 0 8 25 14 73 19 39 3 112 10 161 15 69 6 92 12 103 26 17 24 16
36 -1 61 -17 23 -38 23 -346 6 -113 -6 -230 -13 -260 -14 -55 -3 -55 -3 -52
25 7 57 -55 102 -87 63z"/>
<path d="M487 2388 c-8 -13 -17 -46 -20 -75 -8 -67 -58 -186 -102 -242 -19
-24 -35 -52 -35 -62 0 -24 27 -49 52 -49 26 0 77 56 113 123 16 29 33 55 38
58 5 4 41 10 81 13 39 4 94 9 123 12 51 6 52 6 66 -27 8 -19 17 -50 21 -70 8
-44 26 -62 58 -57 46 6 53 55 23 154 -7 23 -3 25 154 45 85 10 121 29 121 62
0 51 -43 58 -204 33 -131 -21 -240 -35 -330 -42 l-78 -7 6 49 c8 61 -9 98 -46
102 -19 2 -31 -3 -41 -20z"/>
</g>
</svg>
