<?xml version="1.0" standalone="no"?>
<!DOCTYPE svg PUBLIC "-//W3C//DTD SVG 20010904//EN"
 "http://www.w3.org/TR/2001/REC-SVG-20010904/DTD/svg10.dtd">
<svg version="1.0" xmlns="http://www.w3.org/2000/svg"
 width="248.000000pt" height="248.000000pt" viewBox="0 0 248.000000 248.000000"
 preserveAspectRatio="xMidYMid meet">
<metadata>
Created by potrace 1.10, written by Peter Selinger 2001-2011
</metadata>
<g transform="translate(0.000000,248.000000) scale(0.100000,-0.100000)"
fill="#000000" stroke="none">
<path d="M487 2388 c-8 -13 -17 -46 -20 -75 -8 -67 -58 -186 -102 -242 -19
-24 -35 -52 -35 -62 0 -24 27 -49 52 -49 26 0 80 59 115 127 31 60 28 59 168
73 55 5 150 17 210 25 61 9 143 20 184 25 85 11 121 30 121 63 0 51 -43 58
-204 33 -131 -21 -240 -35 -330 -42 l-78 -7 6 49 c8 61 -9 98 -46 102 -19 2
-31 -3 -41 -20z"/>
</g>
</svg>
