<?xml version="1.0" standalone="no"?>
<!DOCTYPE svg PUBLIC "-//W3C//DTD SVG 20010904//EN"
 "http://www.w3.org/TR/2001/REC-SVG-20010904/DTD/svg10.dtd">
<svg version="1.0" xmlns="http://www.w3.org/2000/svg"
 width="248.000000pt" height="248.000000pt" viewBox="0 0 248.000000 248.000000"
 preserveAspectRatio="xMidYMid meet">
<metadata>
Created by potrace 1.10, written by Peter Selinger 2001-2011
</metadata>
<g transform="translate(0.000000,248.000000) scale(0.100000,-0.100000)"
fill="#000000" stroke="none">
<path d="M1560 2375 c-7 -9 -10 -33 -7 -62 5 -55 -12 -185 -26 -194 -5 -4 -55
-10 -111 -14 -107 -7 -126 -15 -126 -49 0 -39 18 -46 127 -46 l103 0 -7 -47
c-10 -80 -27 -136 -43 -144 -8 -5 -59 -11 -114 -15 -77 -5 -102 -10 -117 -25
-25 -25 -24 -44 2 -70 16 -16 28 -20 53 -15 17 4 59 10 93 13 l62 6 -8 -29
c-5 -16 -25 -65 -45 -109 -29 -63 -51 -93 -103 -142 -57 -53 -65 -65 -59 -87
8 -33 44 -43 82 -23 54 29 121 110 168 205 l47 93 42 -31 c135 -96 287 -190
391 -241 65 -33 124 -59 131 -59 23 0 48 38 41 64 -5 21 -27 35 -109 74 -86
41 -172 94 -402 249 -67 45 -80 41 269 73 120 11 225 25 232 31 17 14 18 51 2
67 -16 16 -116 14 -338 -7 -102 -10 -187 -16 -190 -15 -3 1 1 45 9 98 l15 95
50 5 c239 23 310 35 323 52 17 24 16 38 -5 64 l-18 22 -115 -15 c-63 -9 -136
-18 -164 -19 l-50 -3 4 108 c2 86 0 112 -13 132 -19 28 -57 33 -76 10z"/>
<path d="M640 2315 c-11 -13 -11 -26 -2 -66 19 -79 16 -166 -5 -178 -10 -5
-67 -12 -128 -16 -60 -4 -116 -12 -122 -17 -22 -17 -15 -56 12 -74 21 -14 41
-15 130 -9 85 6 105 4 105 -7 0 -36 -23 -194 -29 -200 -3 -4 -80 -19 -170 -32
-89 -14 -169 -30 -177 -37 -18 -15 -18 -53 1 -69 17 -14 93 -10 237 12 43 6
80 9 83 7 2 -3 -5 -36 -16 -74 -31 -104 -105 -238 -173 -312 -58 -64 -59 -66
-45 -92 24 -43 52 -38 112 18 64 60 145 193 183 299 15 42 29 79 30 81 2 2 16
-6 33 -18 16 -12 76 -44 133 -72 57 -28 118 -64 136 -80 37 -33 63 -37 86 -13
43 43 -8 100 -154 171 -76 37 -158 85 -189 110 -11 8 16 13 174 33 203 25 241
34 255 61 25 45 -22 87 -77 69 -28 -10 -345 -51 -350 -46 -3 3 15 161 22 193
4 17 15 23 53 28 78 11 226 35 245 41 22 7 40 40 32 63 -10 34 -42 38 -138 20
-50 -10 -111 -19 -136 -21 l-46 -3 -3 100 c-2 86 -6 103 -24 122 -25 27 -60
30 -78 8z"/>
</g>
</svg>
