<?xml version="1.0" standalone="no"?>
<!DOCTYPE svg PUBLIC "-//W3C//DTD SVG 20010904//EN"
 "http://www.w3.org/TR/2001/REC-SVG-20010904/DTD/svg10.dtd">
<svg version="1.0" xmlns="http://www.w3.org/2000/svg"
 width="248.000000pt" height="248.000000pt" viewBox="0 0 248.000000 248.000000"
 preserveAspectRatio="xMidYMid meet">
<metadata>
Created by potrace 1.10, written by Peter Selinger 2001-2011
</metadata>
<g transform="translate(0.000000,248.000000) scale(0.100000,-0.100000)"
fill="#000000" stroke="none">
<path d="M920 2109 c-163 -29 -233 -38 -381 -50 -79 -7 -150 -17 -157 -22 -21
-16 -10 -60 20 -76 23 -13 44 -13 160 -2 145 14 373 45 440 60 73 17 91 70 33
98 -14 6 -50 4 -115 -8z"/>
<path d="M1060 1810 c-14 -5 -110 -21 -215 -34 -322 -43 -576 -84 -591 -97
-18 -15 -18 -53 1 -69 17 -14 114 -9 255 15 146 24 280 44 415 60 72 9 147 21
167 26 62 16 75 73 22 97 -14 7 -26 12 -27 11 -1 0 -13 -5 -27 -9z"/>
</g>
</svg>
