<?xml version="1.0" standalone="no"?>
<!DOCTYPE svg PUBLIC "-//W3C//DTD SVG 20010904//EN"
 "http://www.w3.org/TR/2001/REC-SVG-20010904/DTD/svg10.dtd">
<svg version="1.0" xmlns="http://www.w3.org/2000/svg"
 width="248.000000pt" height="248.000000pt" viewBox="0 0 248.000000 248.000000"
 preserveAspectRatio="xMidYMid meet">
<metadata>
Created by potrace 1.10, written by Peter Selinger 2001-2011
</metadata>
<g transform="translate(0.000000,248.000000) scale(0.100000,-0.100000)"
fill="#000000" stroke="none">
<path d="M1623 2383 c-15 -11 -121 -151 -154 -205 -14 -24 -63 -100 -107 -170
-116 -182 -144 -236 -140 -278 5 -58 27 -62 181 -30 73 16 188 44 257 63 69
19 170 45 225 57 55 12 116 26 135 31 63 16 75 11 148 -61 40 -39 80 -70 91
-70 21 0 51 35 51 59 0 9 -46 61 -102 116 -57 55 -127 128 -156 163 -36 41
-61 62 -76 62 -56 0 -61 -58 -11 -117 19 -23 35 -43 35 -46 0 -3 -15 -8 -32
-12 -80 -15 -224 -50 -348 -85 -156 -44 -249 -64 -257 -56 -3 3 12 32 33 64
133 204 180 279 192 302 7 14 33 50 57 80 50 60 63 94 48 119 -11 18 -51 25
-70 14z"/>
<path d="M820 2130 c-52 -10 -165 -31 -250 -48 -85 -17 -191 -36 -235 -42
-101 -15 -129 -28 -133 -62 -2 -20 4 -31 23 -44 24 -15 32 -15 123 0 54 9 102
16 106 16 12 0 0 -200 -12 -212 -5 -5 -58 -16 -118 -25 -60 -8 -119 -22 -131
-29 l-23 -14 0 -714 c0 -653 1 -715 17 -727 21 -18 373 -15 636 5 232 17 220
6 227 199 3 78 5 406 3 730 -1 458 -5 593 -15 614 -22 45 -69 48 -275 17 l-43
-7 0 110 0 110 113 17 c61 10 127 19 144 22 58 9 69 75 16 95 -32 12 -59 10
-173 -11z m-210 -260 c0 -60 -4 -110 -9 -110 -5 0 -16 -3 -24 -6 -13 -5 -15
10 -12 108 2 62 4 114 5 116 0 1 9 2 20 2 19 0 20 -7 20 -110z m334 -212 c4
-29 3 -179 -1 -333 l-8 -280 -65 -3 c-36 -2 -84 3 -105 10 -67 22 -68 29 -54
348 l13 278 55 11 c31 6 72 13 91 14 19 2 43 5 52 5 13 2 18 -9 22 -50z m-334
-80 c0 -40 -5 -151 -10 -247 -12 -207 -3 -275 43 -327 37 -43 115 -67 219 -68
l76 -1 7 -103 c4 -57 5 -105 2 -108 -5 -5 -45 -11 -232 -35 -92 -11 -379 -38
-412 -39 -22 0 -23 3 -23 90 0 81 2 90 18 90 11 0 26 8 35 18 34 37 126 312
151 452 10 52 26 137 37 187 10 51 19 105 19 121 0 36 6 42 42 42 l28 0 0 -72z
m-180 12 c0 -58 -72 -387 -108 -495 l-37 -110 -5 305 c-3 168 -4 307 -3 309 2
3 95 18 131 20 18 1 22 -4 22 -29z m514 -1107 c-3 -71 -7 -129 -8 -130 -4 -5
-280 -23 -458 -29 l-198 -6 0 114 0 114 55 2 c120 5 313 25 505 52 30 4 68 8
83 9 l29 1 -8 -127z"/>
</g>
</svg>
