<?xml version="1.0" standalone="no"?>
<!DOCTYPE svg PUBLIC "-//W3C//DTD SVG 20010904//EN"
 "http://www.w3.org/TR/2001/REC-SVG-20010904/DTD/svg10.dtd">
<svg version="1.0" xmlns="http://www.w3.org/2000/svg"
 width="248.000000pt" height="248.000000pt" viewBox="0 0 248.000000 248.000000"
 preserveAspectRatio="xMidYMid meet">
<metadata>
Created by potrace 1.10, written by Peter Selinger 2001-2011
</metadata>
<g transform="translate(0.000000,248.000000) scale(0.100000,-0.100000)"
fill="#000000" stroke="none">
<path d="M820 2131 c-52 -10 -165 -32 -250 -49 -85 -17 -191 -36 -235 -42
-101 -15 -129 -28 -133 -62 -2 -20 4 -31 23 -44 24 -16 32 -16 126 0 55 9 189
34 297 56 108 21 233 43 277 49 97 12 126 38 92 85 -19 26 -85 28 -197 7z"/>
<path d="M182 1648 c-17 -17 -17 -1399 0 -1416 18 -18 53 -14 74 9 18 20 19
46 19 699 0 653 -1 679 -19 699 -21 23 -56 27 -74 9z"/>
</g>
</svg>
