<?xml version="1.0" standalone="no"?>
<!DOCTYPE svg PUBLIC "-//W3C//DTD SVG 20010904//EN"
 "http://www.w3.org/TR/2001/REC-SVG-20010904/DTD/svg10.dtd">
<svg version="1.0" xmlns="http://www.w3.org/2000/svg"
 width="248.000000pt" height="248.000000pt" viewBox="0 0 248.000000 248.000000"
 preserveAspectRatio="xMidYMid meet">
<metadata>
Created by potrace 1.10, written by Peter Selinger 2001-2011
</metadata>
<g transform="translate(0.000000,248.000000) scale(0.100000,-0.100000)"
fill="#000000" stroke="none">
<path d="M1204 2375 c-14 -22 -16 -45 -12 -149 l6 -124 -89 -11 c-49 -6 -146
-16 -216 -21 -204 -16 -243 -28 -243 -75 0 -38 35 -55 95 -45 28 5 68 9 90 9
37 1 42 -2 53 -31 12 -30 45 -219 40 -223 -2 -1 -55 -7 -118 -14 -318 -34
-340 -39 -340 -86 0 -43 36 -57 116 -46 38 5 121 15 184 21 63 7 225 27 360
45 135 18 277 36 315 40 39 3 104 10 145 15 41 5 133 17 204 25 160 20 196 33
196 73 0 50 -19 57 -113 43 -45 -6 -122 -16 -172 -21 -49 -5 -110 -12 -134
-16 -42 -7 -43 -6 -36 17 32 99 65 215 65 231 0 15 8 18 50 18 62 0 148 18
178 36 25 17 29 55 7 74 -21 18 -8 18 -363 -25 -78 -9 -149 -15 -157 -11 -12
4 -15 27 -15 118 0 87 -4 119 -16 136 -21 30 -59 29 -80 -3z m286 -357 c0 -11
-69 -240 -74 -245 -8 -9 -370 -53 -377 -46 -5 5 -15 54 -23 109 -9 56 -18 108
-21 116 -7 17 -2 18 145 38 298 40 350 44 350 28z"/>
</g>
</svg>
