<?xml version="1.0" standalone="no"?>
<!DOCTYPE svg PUBLIC "-//W3C//DTD SVG 20010904//EN"
 "http://www.w3.org/TR/2001/REC-SVG-20010904/DTD/svg10.dtd">
<svg version="1.0" xmlns="http://www.w3.org/2000/svg"
 width="248.000000pt" height="248.000000pt" viewBox="0 0 248.000000 248.000000"
 preserveAspectRatio="xMidYMid meet">
<metadata>
Created by potrace 1.10, written by Peter Selinger 2001-2011
</metadata>
<g transform="translate(0.000000,248.000000) scale(0.100000,-0.100000)"
fill="#000000" stroke="none">
<path d="M968 2144 c-293 -289 -304 -304 -256 -338 28 -20 54 -20 143 -1 85
19 318 56 322 51 6 -5 -85 -215 -106 -244 -17 -24 -32 -32 -83 -41 -173 -30
-253 -41 -301 -41 -66 0 -101 -17 -105 -52 -6 -53 82 -74 198 -47 67 15 171
27 168 18 -7 -19 -153 -170 -239 -248 -197 -178 -346 -288 -477 -355 -55 -28
-77 -55 -67 -86 10 -31 49 -35 107 -10 70 30 227 134 318 212 41 34 92 76 113
92 61 45 318 308 362 369 22 31 48 59 57 62 11 4 45 -12 94 -45 42 -29 88 -56
103 -60 34 -10 245 -101 301 -130 97 -50 320 -130 485 -175 55 -15 129 -35
164 -46 107 -32 161 -23 161 27 0 37 -7 40 -245 105 -178 48 -228 63 -335 105
-63 25 -162 67 -220 93 -58 27 -156 70 -218 96 -62 26 -115 51 -117 55 -5 8
278 63 493 96 51 7 101 18 112 24 25 13 34 44 19 71 -10 20 -16 21 -83 15 -39
-3 -183 -27 -321 -51 -324 -59 -315 -57 -315 -48 0 12 39 111 56 145 9 16 18
48 22 71 7 40 8 41 67 54 33 7 98 19 145 27 47 8 99 20 116 27 30 12 35 10
130 -54 55 -37 107 -67 116 -67 10 0 25 11 34 25 15 23 15 27 1 49 -9 13 -67
59 -129 102 -62 42 -134 95 -159 116 -47 38 -85 48 -107 26 -20 -20 -14 -57
13 -82 32 -30 31 -36 -2 -36 -16 0 -57 -7 -93 -15 -36 -8 -153 -28 -260 -45
-107 -16 -210 -32 -228 -36 -28 -6 -6 20 178 203 180 179 210 213 210 239 0
35 -16 54 -44 54 -14 0 -119 -98 -298 -276z"/>
</g>
</svg>
