<?xml version="1.0" standalone="no"?>
<!DOCTYPE svg PUBLIC "-//W3C//DTD SVG 20010904//EN"
 "http://www.w3.org/TR/2001/REC-SVG-20010904/DTD/svg10.dtd">
<svg version="1.0" xmlns="http://www.w3.org/2000/svg"
 width="248.000000pt" height="248.000000pt" viewBox="0 0 248.000000 248.000000"
 preserveAspectRatio="xMidYMid meet">
<metadata>
Created by potrace 1.10, written by Peter Selinger 2001-2011
</metadata>
<g transform="translate(0.000000,248.000000) scale(0.100000,-0.100000)"
fill="#000000" stroke="none">
<path d="M968 2144 c-293 -289 -304 -304 -256 -338 29 -20 53 -20 163 3 50 11
173 31 275 46 102 14 208 32 235 40 28 7 77 17 110 21 77 9 133 31 140 55 9
27 -3 57 -25 64 -18 6 -113 -10 -250 -41 -36 -8 -141 -25 -235 -39 -93 -13
-185 -27 -203 -31 -28 -6 -5 21 178 203 180 179 210 213 210 239 0 35 -16 54
-44 54 -14 0 -119 -98 -298 -276z"/>
</g>
</svg>
