<?xml version="1.0" standalone="no"?>
<!DOCTYPE svg PUBLIC "-//W3C//DTD SVG 20010904//EN"
 "http://www.w3.org/TR/2001/REC-SVG-20010904/DTD/svg10.dtd">
<svg version="1.0" xmlns="http://www.w3.org/2000/svg"
 width="248.000000pt" height="248.000000pt" viewBox="0 0 248.000000 248.000000"
 preserveAspectRatio="xMidYMid meet">
<metadata>
Created by potrace 1.10, written by Peter Selinger 2001-2011
</metadata>
<g transform="translate(0.000000,248.000000) scale(0.100000,-0.100000)"
fill="#000000" stroke="none">
<path d="M1204 2375 c-14 -22 -16 -45 -12 -149 l6 -124 -89 -11 c-49 -6 -146
-16 -216 -21 -204 -16 -243 -28 -243 -75 0 -38 35 -55 95 -45 28 5 68 9 90 9
37 1 42 -2 53 -31 12 -30 45 -219 40 -223 -2 -1 -55 -7 -118 -14 -302 -32
-335 -39 -345 -72 -4 -11 0 -36 7 -57 24 -68 7 -586 -23 -704 -5 -20 -18 -85
-29 -145 -11 -59 -29 -155 -40 -213 -21 -116 -77 -258 -128 -329 -35 -49 -40
-81 -16 -106 27 -26 55 -13 100 45 68 88 119 228 158 435 19 99 42 214 50 255
33 154 60 579 46 710 -4 42 -3 45 25 52 17 4 84 12 150 18 66 7 230 27 365 45
135 18 277 36 315 40 39 3 104 10 145 15 41 5 133 17 204 25 160 20 196 33
196 73 0 50 -19 57 -113 43 -45 -6 -122 -16 -172 -21 -49 -5 -110 -12 -134
-16 -42 -7 -43 -6 -36 17 32 99 65 215 65 231 0 15 8 18 50 18 62 0 148 18
178 36 25 17 29 55 7 74 -21 18 -8 18 -363 -25 -78 -9 -149 -15 -157 -11 -12
4 -15 27 -15 118 0 87 -4 119 -16 136 -21 30 -59 29 -80 -3z m286 -357 c0 -11
-69 -240 -74 -245 -8 -9 -370 -53 -377 -46 -5 5 -15 54 -23 109 -9 56 -18 108
-21 116 -7 17 -2 18 145 38 298 40 350 44 350 28z"/>
<path d="M1302 1568 c-8 -8 -12 -59 -12 -164 0 -84 -4 -155 -9 -158 -5 -3 -81
-9 -168 -12 l-160 -7 1 80 c1 89 -15 123 -59 123 -35 0 -42 -18 -48 -120 -7
-129 -39 -247 -98 -359 -27 -52 -49 -102 -49 -111 0 -25 25 -42 57 -38 23 2
36 17 71 74 24 39 56 109 71 155 l28 84 124 6 c69 3 150 9 182 13 l57 7 0
-164 0 -164 -92 -7 c-50 -3 -116 -6 -147 -6 -35 0 -65 -6 -79 -16 -30 -21 -29
-59 3 -80 21 -14 44 -15 165 -9 l140 8 0 -200 c0 -229 4 -258 36 -280 22 -14
26 -14 49 1 l25 16 2 243 3 242 70 7 c151 16 301 41 323 54 30 19 29 59 -2 79
-22 15 -33 15 -108 2 -46 -9 -112 -18 -148 -22 -36 -3 -80 -8 -97 -12 l-33 -5
0 160 c0 144 2 161 18 166 9 2 85 14 167 26 287 40 315 48 315 95 0 29 -40 59
-67 51 -16 -5 -257 -43 -385 -60 l-46 -7 -4 139 c-3 121 -6 143 -22 161 -21
23 -56 27 -74 9z"/>
</g>
</svg>
