<?xml version="1.0" standalone="no"?>
<!DOCTYPE svg PUBLIC "-//W3C//DTD SVG 20010904//EN"
 "http://www.w3.org/TR/2001/REC-SVG-20010904/DTD/svg10.dtd">
<svg version="1.0" xmlns="http://www.w3.org/2000/svg"
 width="248.000000pt" height="248.000000pt" viewBox="0 0 248.000000 248.000000"
 preserveAspectRatio="xMidYMid meet">
<metadata>
Created by potrace 1.10, written by Peter Selinger 2001-2011
</metadata>
<g transform="translate(0.000000,248.000000) scale(0.100000,-0.100000)"
fill="#000000" stroke="none">
<path d="M1535 1840 c-71 -5 -170 -11 -220 -14 -266 -16 -395 -27 -535 -45
-85 -11 -192 -22 -238 -26 -131 -11 -121 24 -112 -405 5 -201 11 -418 15 -482
l7 -116 -59 -6 c-188 -19 -243 -37 -243 -80 0 -47 14 -49 222 -32 106 9 231
20 278 26 217 26 342 30 855 30 427 0 577 -3 670 -15 200 -25 250 -17 250 40
0 39 -32 55 -110 55 -71 1 -283 25 -291 33 -4 3 4 56 16 117 68 351 80 845 20
905 -19 19 -33 20 -208 21 -103 1 -245 -2 -317 -6z m451 -146 c18 -124 -12
-583 -51 -765 -9 -41 -18 -86 -22 -101 l-5 -28 -224 0 -224 0 4 23 c10 49 18
118 26 242 6 72 14 180 19 240 5 61 13 181 16 267 l7 157 42 4 c22 2 123 4
223 5 l182 2 7 -46z m-570 -151 c-4 -98 -12 -223 -17 -278 -14 -156 -32 -397
-32 -432 l0 -33 -146 0 -146 0 0 450 0 449 55 6 c30 4 62 8 70 9 8 2 62 4 119
5 l104 1 -7 -177z m-454 155 c1 -2 5 -204 8 -451 l5 -447 -30 -5 c-26 -4 -111
-12 -326 -32 l-56 -5 -6 45 c-3 24 -9 208 -12 408 -3 200 -8 380 -10 399 l-5
36 208 26 c114 14 210 26 215 27 4 1 8 0 9 -1z"/>
</g>
</svg>
