<?xml version="1.0" standalone="no"?>
<!DOCTYPE svg PUBLIC "-//W3C//DTD SVG 20010904//EN"
 "http://www.w3.org/TR/2001/REC-SVG-20010904/DTD/svg10.dtd">
<svg version="1.0" xmlns="http://www.w3.org/2000/svg"
 width="248.000000pt" height="248.000000pt" viewBox="0 0 248.000000 248.000000"
 preserveAspectRatio="xMidYMid meet">
<metadata>
Created by potrace 1.10, written by Peter Selinger 2001-2011
</metadata>
<g transform="translate(0.000000,248.000000) scale(0.100000,-0.100000)"
fill="#000000" stroke="none">
<path d="M1535 1840 c-71 -5 -170 -11 -220 -14 -266 -16 -395 -27 -535 -45
-85 -11 -192 -22 -238 -26 -131 -11 -122 24 -112 -410 14 -611 18 -640 75
-640 51 0 54 20 44 300 -5 138 -10 338 -11 446 l-3 195 210 26 c152 18 212 22
217 14 4 -6 8 -204 8 -441 0 -472 1 -480 55 -480 55 0 55 6 53 492 l-3 441 40
7 c62 10 344 24 617 32 l246 6 7 -48 c20 -127 -11 -590 -51 -766 -9 -41 -18
-102 -21 -136 -5 -55 -3 -62 16 -73 26 -13 58 -5 70 18 17 32 63 296 82 471
31 293 22 573 -21 616 -19 19 -33 20 -208 21 -103 1 -245 -2 -317 -6z"/>
</g>
</svg>
