<?xml version="1.0" standalone="no"?>
<!DOCTYPE svg PUBLIC "-//W3C//DTD SVG 20010904//EN"
 "http://www.w3.org/TR/2001/REC-SVG-20010904/DTD/svg10.dtd">
<svg version="1.0" xmlns="http://www.w3.org/2000/svg"
 width="248.000000pt" height="248.000000pt" viewBox="0 0 248.000000 248.000000"
 preserveAspectRatio="xMidYMid meet">
<metadata>
Created by potrace 1.10, written by Peter Selinger 2001-2011
</metadata>
<g transform="translate(0.000000,248.000000) scale(0.100000,-0.100000)"
fill="#000000" stroke="none">
<path d="M1229 2363 c-10 -12 -15 -60 -17 -183 l-3 -168 -42 -6 c-23 -3 -112
-10 -197 -16 -85 -6 -179 -15 -209 -20 -30 -6 -91 -10 -136 -10 -90 0 -125
-15 -125 -55 0 -39 35 -55 117 -55 39 0 94 4 120 10 26 5 136 16 245 25 108 8
204 18 214 22 16 6 17 -4 11 -153 -7 -182 -1 -209 48 -209 45 0 54 30 61 214
l7 161 33 0 c18 0 95 9 171 20 76 10 185 24 243 30 58 6 125 13 149 15 25 3
53 13 63 22 21 18 24 53 6 71 -21 21 -145 12 -458 -32 -58 -8 -129 -17 -157
-20 l-53 -5 0 157 c0 126 -3 162 -16 180 -18 26 -56 29 -75 5z"/>
</g>
</svg>
