<?xml version="1.0" standalone="no"?>
<!DOCTYPE svg PUBLIC "-//W3C//DTD SVG 20010904//EN"
 "http://www.w3.org/TR/2001/REC-SVG-20010904/DTD/svg10.dtd">
<svg version="1.0" xmlns="http://www.w3.org/2000/svg"
 width="248.000000pt" height="248.000000pt" viewBox="0 0 248.000000 248.000000"
 preserveAspectRatio="xMidYMid meet">
<metadata>
Created by potrace 1.10, written by Peter Selinger 2001-2011
</metadata>
<g transform="translate(0.000000,248.000000) scale(0.100000,-0.100000)"
fill="#000000" stroke="none">
<path d="M1775 2079 c-38 -5 -133 -18 -210 -29 -77 -10 -171 -22 -210 -25 -38
-3 -137 -12 -220 -20 -331 -32 -394 -38 -496 -44 -113 -6 -139 -17 -139 -57 0
-37 36 -54 117 -54 39 0 94 4 120 10 26 5 134 16 238 25 279 23 467 42 585 59
58 8 152 20 210 26 58 6 125 13 149 15 25 3 53 13 63 22 21 18 24 53 6 71 -14
14 -107 14 -213 1z"/>
</g>
</svg>
