<?xml version="1.0" standalone="no"?>
<!DOCTYPE svg PUBLIC "-//W3C//DTD SVG 20010904//EN"
 "http://www.w3.org/TR/2001/REC-SVG-20010904/DTD/svg10.dtd">
<svg version="1.0" xmlns="http://www.w3.org/2000/svg"
 width="248.000000pt" height="248.000000pt" viewBox="0 0 248.000000 248.000000"
 preserveAspectRatio="xMidYMid meet">
<metadata>
Created by potrace 1.10, written by Peter Selinger 2001-2011
</metadata>
<g transform="translate(0.000000,248.000000) scale(0.100000,-0.100000)"
fill="#000000" stroke="none">
<path d="M960 1754 c-47 -13 -107 -29 -135 -35 -27 -6 -86 -21 -130 -34 -106
-31 -419 -105 -442 -105 -51 0 -82 -62 -47 -91 27 -22 84 -13 339 51 132 34
265 67 295 75 261 64 270 68 270 116 0 28 -24 50 -52 48 -7 -1 -51 -12 -98
-25z"/>
</g>
</svg>
