<?xml version="1.0" standalone="no"?>
<!DOCTYPE svg PUBLIC "-//W3C//DTD SVG 20010904//EN"
 "http://www.w3.org/TR/2001/REC-SVG-20010904/DTD/svg10.dtd">
<svg version="1.0" xmlns="http://www.w3.org/2000/svg"
 width="248.000000pt" height="248.000000pt" viewBox="0 0 248.000000 248.000000"
 preserveAspectRatio="xMidYMid meet">
<metadata>
Created by potrace 1.10, written by Peter Selinger 2001-2011
</metadata>
<g transform="translate(0.000000,248.000000) scale(0.100000,-0.100000)"
fill="#000000" stroke="none">
<path d="M865 2365 c-93 -7 -199 -18 -235 -24 -36 -6 -116 -15 -179 -20 -175
-14 -157 65 -152 -669 2 -408 7 -621 14 -630 19 -24 61 -10 79 28 15 29 18 63
18 207 l0 172 43 6 c46 6 217 25 230 25 4 0 7 -69 7 -153 0 -167 8 -197 55
-197 47 0 55 30 55 206 l0 161 93 12 c111 15 141 27 145 63 2 20 -4 31 -23 44
-22 14 -33 15 -82 5 -31 -6 -74 -11 -95 -11 l-38 0 0 139 0 139 73 7 c89 8
178 25 195 38 17 13 15 52 -3 67 -12 10 -42 11 -118 7 -56 -4 -112 -9 -124
-13 l-23 -6 0 140 0 140 31 6 c17 3 60 6 95 6 69 0 162 17 182 32 15 13 16 60
0 76 -14 14 -11 14 -243 -3z m-175 -264 l0 -139 -50 -11 c-28 -6 -65 -11 -83
-11 -29 0 -96 -13 -139 -26 -17 -5 -18 6 -18 145 l0 149 68 7 c37 4 92 11 122
15 111 15 100 29 100 -129z m0 -390 c0 -161 12 -146 -125 -156 -49 -4 -105
-10 -123 -15 l-33 -9 3 137 3 136 45 12 c42 11 157 29 208 32 22 2 22 1 22
-137z"/>
</g>
</svg>
