<?xml version="1.0" standalone="no"?>
<!DOCTYPE svg PUBLIC "-//W3C//DTD SVG 20010904//EN"
 "http://www.w3.org/TR/2001/REC-SVG-20010904/DTD/svg10.dtd">
<svg version="1.0" xmlns="http://www.w3.org/2000/svg"
 width="248.000000pt" height="248.000000pt" viewBox="0 0 248.000000 248.000000"
 preserveAspectRatio="xMidYMid meet">
<metadata>
Created by potrace 1.10, written by Peter Selinger 2001-2011
</metadata>
<g transform="translate(0.000000,248.000000) scale(0.100000,-0.100000)"
fill="#000000" stroke="none">
<path d="M865 2365 c-93 -7 -199 -18 -235 -24 -36 -6 -116 -15 -179 -20 -175
-14 -157 65 -152 -669 2 -408 7 -621 14 -630 19 -24 61 -10 80 28 17 33 18 64
13 450 -5 476 -6 703 -3 706 6 6 290 36 412 45 169 11 274 26 292 41 16 13 17
60 1 76 -14 14 -11 14 -243 -3z"/>
</g>
</svg>
