<?xml version="1.0" standalone="no"?>
<!DOCTYPE svg PUBLIC "-//W3C//DTD SVG 20010904//EN"
 "http://www.w3.org/TR/2001/REC-SVG-20010904/DTD/svg10.dtd">
<svg version="1.0" xmlns="http://www.w3.org/2000/svg"
 width="248.000000pt" height="248.000000pt" viewBox="0 0 248.000000 248.000000"
 preserveAspectRatio="xMidYMid meet">
<metadata>
Created by potrace 1.10, written by Peter Selinger 2001-2011
</metadata>
<g transform="translate(0.000000,248.000000) scale(0.100000,-0.100000)"
fill="#000000" stroke="none">
<path d="M1664 2297 c-29 -23 -94 -79 -145 -125 -52 -46 -115 -97 -141 -114
-52 -34 -65 -57 -48 -88 8 -14 21 -20 45 -20 37 0 102 48 286 209 48 42 99 84
113 94 28 19 34 55 14 75 -25 25 -71 13 -124 -31z"/>
<path d="M634 2287 c-10 -5 -20 -11 -22 -12 -8 -7 -21 -129 -27 -265 -4 -85
-10 -175 -14 -199 l-6 -44 -110 -35 c-275 -86 -310 -100 -329 -125 -18 -24
-18 -27 -2 -51 9 -14 23 -26 31 -26 8 0 80 23 161 50 81 28 169 57 196 65 l50
14 -7 -252 c-4 -139 -9 -256 -12 -261 -5 -8 -96 -52 -325 -159 -31 -15 -63
-27 -70 -27 -34 0 -51 -53 -26 -78 19 -19 93 -14 131 8 42 25 277 130 290 130
6 0 7 -51 3 -137 -3 -76 -9 -214 -12 -308 -3 -93 -8 -173 -11 -178 -2 -4 -18
6 -34 23 -34 33 -60 38 -83 14 -25 -25 -19 -45 37 -116 28 -37 61 -82 72 -100
22 -36 72 -50 92 -26 11 13 18 146 28 598 4 135 8 254 10 265 3 14 30 33 86
60 45 22 88 50 96 63 14 20 14 25 -1 47 -21 33 -44 32 -116 -5 l-60 -30 1 157
c1 87 4 199 8 248 l6 90 55 17 c30 9 92 27 138 39 97 25 124 50 103 95 -14 31
-26 30 -175 -10 -54 -14 -102 -26 -108 -26 -5 0 -7 25 -4 58 3 31 8 111 11
177 4 66 10 140 15 164 13 73 -18 114 -66 88z"/>
<path d="M2128 2090 c-9 -6 -40 -42 -70 -82 -29 -40 -92 -119 -140 -176 -49
-58 -88 -112 -88 -122 0 -40 49 -63 80 -37 23 19 130 144 190 222 30 39 67 85
82 103 30 35 36 70 16 90 -14 14 -47 15 -70 2z"/>
<path d="M1511 1954 c-26 -19 -27 -11 18 -182 32 -124 42 -142 76 -142 54 0
56 50 11 229 -28 113 -50 133 -105 95z"/>
<path d="M1112 1858 c-18 -18 -15 -53 6 -72 11 -9 38 -61 61 -115 50 -117 78
-149 119 -135 39 14 39 42 -2 126 -19 40 -41 89 -49 108 -23 56 -65 100 -96
100 -15 0 -32 -5 -39 -12z"/>
<path d="M970 1440 c-15 -9 -15 -20 -6 -356 1 -60 18 -84 56 -84 33 0 53 37
45 84 -3 17 -7 100 -9 183 -2 104 -7 157 -16 168 -14 17 -47 20 -70 5z"/>
</g>
</svg>
