<?xml version="1.0" standalone="no"?>
<!DOCTYPE svg PUBLIC "-//W3C//DTD SVG 20010904//EN"
 "http://www.w3.org/TR/2001/REC-SVG-20010904/DTD/svg10.dtd">
<svg version="1.0" xmlns="http://www.w3.org/2000/svg"
 width="248.000000pt" height="248.000000pt" viewBox="0 0 248.000000 248.000000"
 preserveAspectRatio="xMidYMid meet">
<metadata>
Created by potrace 1.10, written by Peter Selinger 2001-2011
</metadata>
<g transform="translate(0.000000,248.000000) scale(0.100000,-0.100000)"
fill="#000000" stroke="none">
<path d="M855 1845 c-22 -7 -87 -25 -145 -40 -110 -29 -295 -85 -465 -140
-119 -40 -149 -66 -121 -109 9 -14 22 -26 30 -26 7 0 100 29 207 65 107 35
279 87 383 115 105 28 195 55 202 61 20 17 26 46 14 69 -12 23 -45 25 -105 5z"/>
</g>
</svg>
