<?xml version="1.0" standalone="no"?>
<!DOCTYPE svg PUBLIC "-//W3C//DTD SVG 20010904//EN"
 "http://www.w3.org/TR/2001/REC-SVG-20010904/DTD/svg10.dtd">
<svg version="1.0" xmlns="http://www.w3.org/2000/svg"
 width="248.000000pt" height="248.000000pt" viewBox="0 0 248.000000 248.000000"
 preserveAspectRatio="xMidYMid meet">
<metadata>
Created by potrace 1.10, written by Peter Selinger 2001-2011
</metadata>
<g transform="translate(0.000000,248.000000) scale(0.100000,-0.100000)"
fill="#000000" stroke="none">
<path d="M569 2334 c-10 -13 -15 -54 -16 -163 -1 -80 -8 -239 -14 -353 l-12
-207 -56 -11 c-31 -6 -81 -18 -112 -25 -31 -8 -92 -17 -135 -21 -44 -3 -89
-13 -101 -20 -31 -19 -30 -59 2 -80 21 -14 35 -15 109 -5 46 6 124 20 172 31
49 10 89 18 90 17 3 -3 -101 -309 -124 -362 -12 -27 -37 -93 -57 -145 -53
-139 -72 -183 -131 -304 -30 -60 -54 -119 -54 -131 0 -30 23 -47 57 -43 25 3
34 16 85 118 31 63 98 220 149 348 51 127 95 232 98 232 3 0 7 -228 8 -507 2
-520 5 -558 41 -565 30 -7 53 4 63 29 5 14 6 183 2 406 -3 210 -2 511 2 669
l7 287 47 6 c184 25 336 59 364 83 21 19 22 55 2 72 -17 14 -38 12 -185 -19
-52 -10 -117 -22 -145 -25 -27 -4 -58 -9 -69 -12 -18 -6 -18 -1 -12 107 15
275 17 553 4 579 -16 31 -59 38 -79 14z"/>
<path d="M901 2177 c-6 -8 -18 -39 -27 -68 -9 -30 -39 -97 -66 -150 -39 -73
-49 -102 -44 -122 7 -28 35 -42 64 -32 25 8 101 145 134 242 26 74 28 86 16
111 -15 31 -58 42 -77 19z"/>
<path d="M260 2045 c-20 -24 -5 -130 35 -252 20 -58 40 -112 46 -120 20 -23
68 -16 80 11 10 20 5 45 -24 138 -20 62 -39 133 -43 158 -3 25 -13 53 -22 63
-19 21 -55 22 -72 2z"/>
</g>
</svg>
