<?xml version="1.0" standalone="no"?>
<!DOCTYPE svg PUBLIC "-//W3C//DTD SVG 20010904//EN"
 "http://www.w3.org/TR/2001/REC-SVG-20010904/DTD/svg10.dtd">
<svg version="1.0" xmlns="http://www.w3.org/2000/svg"
 width="248.000000pt" height="248.000000pt" viewBox="0 0 248.000000 248.000000"
 preserveAspectRatio="xMidYMid meet">
<metadata>
Created by potrace 1.10, written by Peter Selinger 2001-2011
</metadata>
<g transform="translate(0.000000,248.000000) scale(0.100000,-0.100000)"
fill="#000000" stroke="none">
<path d="M901 2177 c-6 -8 -18 -39 -27 -68 -9 -30 -39 -97 -66 -150 -39 -73
-49 -102 -44 -122 7 -28 35 -42 64 -32 25 8 101 145 134 242 26 74 28 86 16
111 -15 31 -58 42 -77 19z"/>
<path d="M260 2045 c-20 -24 -5 -130 35 -252 20 -58 40 -112 46 -120 20 -23
68 -16 80 11 10 20 5 45 -24 138 -20 62 -39 133 -43 158 -3 25 -13 53 -22 63
-19 21 -55 22 -72 2z"/>
<path d="M979 1696 c-5 -5 -192 -42 -256 -51 -23 -3 -122 -22 -220 -42 -98
-19 -222 -41 -275 -47 -53 -7 -103 -18 -112 -25 -24 -20 -20 -58 8 -77 32 -20
72 -15 361 41 121 24 267 50 325 60 132 21 220 44 243 63 20 17 22 53 5 70
-11 11 -70 17 -79 8z"/>
</g>
</svg>
