<?xml version="1.0" standalone="no"?>
<!DOCTYPE svg PUBLIC "-//W3C//DTD SVG 20010904//EN"
 "http://www.w3.org/TR/2001/REC-SVG-20010904/DTD/svg10.dtd">
<svg version="1.0" xmlns="http://www.w3.org/2000/svg"
 width="248.000000pt" height="248.000000pt" viewBox="0 0 248.000000 248.000000"
 preserveAspectRatio="xMidYMid meet">
<metadata>
Created by potrace 1.10, written by Peter Selinger 2001-2011
</metadata>
<g transform="translate(0.000000,248.000000) scale(0.100000,-0.100000)"
fill="#000000" stroke="none">
<path d="M1662 2388 c-8 -8 -12 -55 -12 -144 l0 -132 -62 -7 c-154 -17 -321
-45 -334 -56 -22 -18 -17 -57 11 -75 24 -15 34 -15 138 0 61 9 142 20 180 24
l67 9 0 -93 0 -93 -37 -6 c-21 -3 -87 -15 -148 -25 -60 -11 -119 -20 -130 -20
-58 0 -86 -66 -41 -95 22 -15 36 -14 171 10 82 14 156 25 167 25 17 0 18 -8
16 -101 -3 -90 -1 -102 16 -115 19 -13 51 -11 69 6 5 4 13 56 19 116 6 60 13
112 17 116 7 8 107 23 214 33 93 9 128 43 93 90 -11 16 -25 19 -72 17 -60 -2
-194 -19 -226 -28 -16 -5 -18 4 -18 89 l0 94 54 7 c45 5 225 44 289 62 27 8
41 42 28 70 -14 31 -50 31 -168 3 -48 -11 -113 -24 -144 -28 l-57 -7 -4 113
c-3 91 -8 116 -23 133 -20 22 -55 26 -73 8z"/>
<path d="M569 2334 c-10 -13 -15 -54 -16 -163 -1 -80 -8 -239 -14 -353 l-12
-207 -56 -11 c-31 -6 -81 -18 -112 -25 -31 -8 -92 -17 -135 -21 -44 -3 -89
-13 -101 -20 -31 -19 -30 -59 2 -80 21 -14 35 -15 109 -5 46 6 124 20 172 31
49 10 89 18 90 17 3 -3 -101 -309 -124 -362 -12 -27 -37 -93 -57 -145 -53
-139 -72 -183 -131 -304 -30 -60 -54 -119 -54 -131 0 -30 23 -47 57 -43 25 3
34 16 85 118 31 63 98 220 149 348 51 127 95 232 98 232 3 0 7 -228 8 -507 2
-519 5 -556 41 -565 26 -7 55 6 63 28 3 10 4 253 2 539 -3 286 -2 534 3 552
l9 32 60 -72 c110 -132 190 -207 222 -207 67 0 70 49 7 110 -122 119 -294 345
-294 387 0 18 7 23 48 28 186 25 337 59 365 83 21 19 22 55 2 72 -17 14 -38
12 -185 -19 -52 -10 -117 -22 -145 -25 -27 -4 -58 -9 -69 -12 -18 -6 -18 -1
-12 107 15 275 17 553 4 579 -16 31 -59 38 -79 14z"/>
<path d="M901 2177 c-6 -8 -18 -39 -27 -68 -9 -30 -39 -97 -66 -150 -39 -73
-49 -102 -44 -122 7 -28 35 -42 64 -32 25 8 101 145 134 242 26 74 28 86 16
111 -15 31 -58 42 -77 19z"/>
<path d="M260 2045 c-20 -24 -5 -130 35 -252 20 -58 40 -112 46 -120 20 -23
68 -16 80 11 10 20 5 45 -24 138 -20 62 -39 133 -43 158 -3 25 -13 53 -22 63
-19 21 -55 22 -72 2z"/>
</g>
</svg>
