<?xml version="1.0" standalone="no"?>
<!DOCTYPE svg PUBLIC "-//W3C//DTD SVG 20010904//EN"
 "http://www.w3.org/TR/2001/REC-SVG-20010904/DTD/svg10.dtd">
<svg version="1.0" xmlns="http://www.w3.org/2000/svg"
 width="248.000000pt" height="248.000000pt" viewBox="0 0 248.000000 248.000000"
 preserveAspectRatio="xMidYMid meet">
<metadata>
Created by potrace 1.10, written by Peter Selinger 2001-2011
</metadata>
<g transform="translate(0.000000,248.000000) scale(0.100000,-0.100000)"
fill="#000000" stroke="none">
<path d="M901 2177 c-6 -8 -18 -39 -27 -68 -9 -30 -39 -97 -66 -150 -39 -73
-49 -102 -44 -122 7 -28 35 -42 64 -32 25 8 101 145 134 242 26 74 28 86 16
111 -15 31 -58 42 -77 19z"/>
<path d="M260 2045 c-20 -24 -4 -133 38 -258 20 -60 44 -115 53 -120 24 -15
68 0 74 26 3 12 -9 68 -28 127 -19 58 -38 128 -42 155 -4 28 -14 58 -22 68
-20 21 -56 22 -73 2z"/>
</g>
</svg>
