<?xml version="1.0" standalone="no"?>
<!DOCTYPE svg PUBLIC "-//W3C//DTD SVG 20010904//EN"
 "http://www.w3.org/TR/2001/REC-SVG-20010904/DTD/svg10.dtd">
<svg version="1.0" xmlns="http://www.w3.org/2000/svg"
 width="248.000000pt" height="248.000000pt" viewBox="0 0 248.000000 248.000000"
 preserveAspectRatio="xMidYMid meet">
<metadata>
Created by potrace 1.10, written by Peter Selinger 2001-2011
</metadata>
<g transform="translate(0.000000,248.000000) scale(0.100000,-0.100000)"
fill="#000000" stroke="none">
<path d="M2002 2388 c-25 -25 -12 -58 44 -118 31 -32 63 -68 71 -80 22 -32 70
-53 92 -40 27 14 35 47 18 73 -8 12 -47 57 -88 100 -75 78 -108 94 -137 65z"/>
<path d="M1689 2374 c-17 -20 -14 -84 7 -187 8 -42 14 -89 12 -105 -3 -26 -7
-28 -78 -39 -41 -6 -136 -19 -210 -28 -170 -20 -176 -21 -200 -45 -19 -19 -20
-34 -20 -307 0 -292 -6 -380 -51 -733 -29 -220 -113 -637 -141 -694 -17 -36
-20 -52 -12 -73 8 -23 15 -28 44 -28 57 0 81 64 145 398 57 295 75 414 101
662 8 83 18 153 22 156 11 10 179 47 251 55 l64 7 -6 -94 c-17 -301 -61 -565
-125 -758 l-18 -54 -22 30 c-12 17 -22 35 -22 41 0 5 -9 21 -21 36 -26 33 -63
34 -84 3 -14 -22 -14 -28 0 -62 40 -95 115 -185 155 -185 41 0 69 39 105 147
77 226 140 613 140 860 0 133 -5 139 -118 136 -45 -1 -124 -11 -174 -22 -51
-12 -100 -21 -108 -21 -13 0 -15 30 -15 214 l0 213 71 7 c39 3 125 15 192 26
159 26 155 26 161 -12 14 -83 36 -230 47 -303 20 -140 79 -457 98 -530 11 -38
26 -107 35 -151 16 -78 16 -83 -3 -130 -48 -123 -195 -424 -251 -514 -64 -105
-70 -133 -35 -156 16 -11 25 -11 45 -1 34 17 142 200 226 384 38 83 71 150 72
148 2 -2 15 -47 28 -101 42 -163 173 -456 207 -462 49 -9 67 7 109 94 63 130
63 214 2 214 -25 0 -48 -28 -58 -72 -3 -15 -11 -39 -16 -54 -10 -26 -11 -26
-24 -8 -33 50 -108 264 -140 404 l-36 156 66 194 c109 324 118 362 92 388 -33
33 -80 3 -93 -58 -4 -19 -24 -82 -45 -140 -22 -58 -42 -117 -45 -132 -16 -64
-30 -26 -75 207 -17 88 -37 205 -45 260 -8 55 -24 158 -35 229 -11 71 -20 141
-20 157 0 33 0 33 185 50 144 13 170 23 170 64 0 51 -28 56 -190 40 -77 -8
-150 -17 -161 -20 -20 -4 -23 2 -37 83 -9 48 -19 110 -22 137 -4 28 -14 60
-21 73 -17 26 -56 29 -75 6z"/>
<path d="M552 2298 c-34 -34 -6 -76 127 -188 73 -62 96 -70 123 -43 33 33 17
63 -69 136 -43 36 -87 74 -97 86 -21 23 -65 28 -84 9z"/>
<path d="M895 1950 c-44 -11 -136 -28 -205 -40 -69 -11 -145 -24 -170 -29 -25
-5 -79 -15 -120 -21 -181 -28 -220 -43 -220 -85 0 -39 41 -60 93 -47 23 6 69
15 102 21 203 35 315 55 430 78 72 13 151 29 177 33 67 12 88 26 88 58 0 57
-37 64 -175 32z"/>
<path d="M735 1549 c-49 -11 -115 -24 -145 -30 -74 -14 -180 -47 -197 -60 -17
-15 -17 -54 2 -69 17 -14 56 -11 185 19 52 12 142 31 200 41 114 22 147 42
134 84 -13 42 -39 44 -179 15z"/>
<path d="M690 1215 c-52 -13 -129 -31 -170 -41 -97 -22 -122 -37 -118 -72 6
-54 33 -55 243 -6 104 25 198 52 207 61 21 19 23 54 6 71 -17 17 -59 14 -168
-13z"/>
<path d="M700 899 c-329 -68 -341 -71 -364 -102 -19 -26 -21 -44 -24 -220 -2
-106 1 -239 6 -296 13 -138 16 -141 150 -134 359 18 382 20 401 37 27 25 39
111 47 336 7 224 -4 357 -32 377 -20 15 -116 16 -184 2z m107 -360 c-4 -144
-8 -263 -10 -265 -1 -2 -85 -7 -185 -11 -148 -7 -183 -6 -187 5 -3 8 -5 115
-5 238 0 171 3 225 13 228 6 2 55 13 107 25 52 11 113 25 135 30 22 5 62 9 89
10 l49 1 -6 -261z"/>
</g>
</svg>
