<?xml version="1.0" standalone="no"?>
<!DOCTYPE svg PUBLIC "-//W3C//DTD SVG 20010904//EN"
 "http://www.w3.org/TR/2001/REC-SVG-20010904/DTD/svg10.dtd">
<svg version="1.0" xmlns="http://www.w3.org/2000/svg"
 width="248.000000pt" height="248.000000pt" viewBox="0 0 248.000000 248.000000"
 preserveAspectRatio="xMidYMid meet">
<metadata>
Created by potrace 1.10, written by Peter Selinger 2001-2011
</metadata>
<g transform="translate(0.000000,248.000000) scale(0.100000,-0.100000)"
fill="#000000" stroke="none">
<path d="M1240 2298 c-153 -21 -303 -39 -410 -48 -63 -6 -151 -17 -195 -25
-44 -7 -120 -17 -170 -20 -105 -8 -138 -24 -133 -63 5 -41 40 -54 125 -46 l71
6 8 -48 c12 -80 -4 -647 -19 -656 -6 -4 -37 -10 -67 -14 -63 -7 -80 -18 -80
-49 0 -30 30 -55 66 -55 30 0 255 43 308 59 44 13 120 31 196 46 36 8 85 21
109 29 71 26 71 25 71 -62 0 -54 5 -84 16 -100 21 -30 59 -29 80 3 15 23 16
70 12 480 -3 316 -1 455 6 455 49 2 150 21 161 30 20 16 19 55 -1 74 -17 17
-52 18 -154 4z m-127 -209 c4 -50 4 -95 1 -100 -3 -5 -17 -9 -32 -9 -15 0 -96
-11 -180 -25 -84 -14 -174 -25 -201 -25 l-48 0 -7 92 c-5 67 -4 93 5 99 7 4
44 10 83 14 137 12 351 37 355 41 13 13 19 -5 24 -87z m7 -259 c0 -55 10 -49
-105 -69 -33 -6 -109 -18 -170 -26 -60 -8 -129 -19 -152 -24 l-43 -8 0 58 0
59 39 0 c22 0 106 11 188 25 81 13 162 26 178 28 68 9 65 11 65 -43z m0 -219
l0 -60 -52 -19 c-65 -24 -105 -35 -233 -63 -55 -11 -119 -27 -143 -35 -23 -8
-45 -14 -47 -14 -3 0 -5 40 -5 88 l0 88 133 22 c121 21 305 49 335 51 8 1 12
-17 12 -58z"/>
<path d="M1915 2079 c-298 -24 -437 -39 -455 -49 -31 -17 -40 -52 -35 -133 3
-39 10 -169 16 -287 12 -232 14 -243 69 -255 16 -3 82 -1 147 5 65 7 201 14
303 15 205 4 205 4 215 74 3 20 10 56 15 79 17 71 31 233 33 381 3 176 4 174
-120 177 -49 1 -133 -2 -188 -7z m205 -139 c0 -97 -23 -350 -36 -396 l-14 -50
-206 -13 c-113 -7 -228 -15 -254 -18 -46 -5 -49 -4 -54 18 -5 21 -26 451 -22
456 1 1 226 22 391 36 22 2 75 4 118 5 l77 2 0 -40z"/>
<path d="M1760 1174 c-52 -7 -144 -18 -205 -24 -60 -5 -144 -15 -185 -21 -41
-5 -133 -14 -205 -19 -272 -18 -411 -32 -435 -44 -36 -17 -39 -60 -5 -82 24
-15 37 -16 148 -5 67 7 185 17 262 22 77 5 145 11 152 14 14 5 20 -80 15 -216
l-3 -86 -197 -12 c-133 -9 -204 -18 -219 -27 -31 -20 -30 -59 2 -80 22 -15 41
-15 177 -5 84 6 172 14 196 17 l42 5 0 -170 0 -170 -52 -6 c-29 -3 -202 -10
-383 -14 -360 -9 -387 -13 -393 -62 -6 -50 12 -54 237 -51 113 2 339 10 501
19 162 8 462 18 666 22 401 7 408 8 402 60 -6 51 -20 53 -428 47 -206 -3 -390
-9 -407 -12 l-33 -6 0 171 c0 94 1 171 3 172 1 1 79 4 172 8 189 9 228 19 233
62 5 45 -18 53 -146 51 -65 -1 -150 -5 -189 -8 l-73 -6 0 156 c0 86 1 156 3
156 250 22 484 55 502 70 18 15 20 54 2 68 -22 19 -60 20 -157 6z"/>
</g>
</svg>
