<?xml version="1.0" standalone="no"?>
<!DOCTYPE svg PUBLIC "-//W3C//DTD SVG 20010904//EN"
 "http://www.w3.org/TR/2001/REC-SVG-20010904/DTD/svg10.dtd">
<svg version="1.0" xmlns="http://www.w3.org/2000/svg"
 width="248.000000pt" height="248.000000pt" viewBox="0 0 248.000000 248.000000"
 preserveAspectRatio="xMidYMid meet">
<metadata>
Created by potrace 1.10, written by Peter Selinger 2001-2011
</metadata>
<g transform="translate(0.000000,248.000000) scale(0.100000,-0.100000)"
fill="#000000" stroke="none">
<path d="M1240 2298 c-153 -21 -303 -39 -410 -48 -63 -6 -151 -17 -195 -25
-44 -7 -120 -17 -170 -20 -50 -4 -100 -14 -113 -22 -33 -20 -26 -63 13 -82 26
-13 51 -11 225 12 107 15 242 31 300 37 58 6 139 15 180 21 41 5 128 16 193
23 125 15 147 24 147 62 0 52 -34 61 -170 42z"/>
</g>
</svg>
