<?xml version="1.0" standalone="no"?>
<!DOCTYPE svg PUBLIC "-//W3C//DTD SVG 20010904//EN"
 "http://www.w3.org/TR/2001/REC-SVG-20010904/DTD/svg10.dtd">
<svg version="1.0" xmlns="http://www.w3.org/2000/svg"
 width="248.000000pt" height="248.000000pt" viewBox="0 0 248.000000 248.000000"
 preserveAspectRatio="xMidYMid meet">
<metadata>
Created by potrace 1.10, written by Peter Selinger 2001-2011
</metadata>
<g transform="translate(0.000000,248.000000) scale(0.100000,-0.100000)"
fill="#000000" stroke="none">
<path d="M849 2374 c-10 -12 -15 -51 -17 -125 l-4 -107 -71 -12 c-40 -7 -99
-18 -132 -26 -33 -7 -74 -14 -90 -14 -69 0 -100 -63 -49 -96 22 -15 33 -16 87
-5 34 7 106 20 160 30 l97 18 0 -43 c0 -42 -1 -44 -38 -54 -22 -5 -62 -14 -91
-20 -29 -5 -56 -12 -59 -14 -4 -2 -50 -11 -102 -20 -117 -21 -140 -34 -140
-82 0 -46 49 -285 61 -300 6 -7 24 -19 42 -27 28 -14 44 -14 127 -2 52 7 96
12 97 11 6 -5 -150 -133 -200 -164 -32 -21 -73 -46 -90 -57 -64 -41 -34 -117
36 -92 54 18 179 104 277 190 l55 48 5 -131 c5 -115 8 -134 24 -146 25 -18 37
-18 62 0 16 12 19 29 22 124 l4 109 111 -48 c143 -62 187 -63 187 -4 0 31 -22
47 -129 91 -52 22 -112 55 -135 75 l-40 36 149 28 c83 15 160 33 172 41 16 10
22 26 25 66 3 29 13 105 23 169 30 191 13 208 -181 178 -65 -10 -129 -21 -141
-24 -21 -5 -23 -2 -23 40 0 29 4 45 13 45 22 1 292 48 309 55 28 11 29 45 2
72 -27 27 -36 27 -194 -2 -41 -7 -87 -15 -102 -18 l-28 -4 0 86 c0 49 -6 97
-13 111 -15 31 -58 38 -78 14z m326 -584 c-8 -51 -19 -100 -24 -109 -7 -11
-38 -22 -103 -34 -51 -9 -99 -17 -106 -17 -11 0 -13 23 -10 110 1 60 8 114 13
119 6 5 62 18 125 29 90 14 116 16 118 6 2 -7 -4 -54 -13 -104z m-349 13 c-3
-21 -6 -72 -6 -114 l0 -76 -97 -17 c-54 -9 -116 -18 -137 -19 l-39 -2 -18 80
c-28 124 -30 119 49 133 37 6 103 20 147 31 113 27 109 27 101 -16z"/>
</g>
</svg>
