<?xml version="1.0" standalone="no"?>
<!DOCTYPE svg PUBLIC "-//W3C//DTD SVG 20010904//EN"
 "http://www.w3.org/TR/2001/REC-SVG-20010904/DTD/svg10.dtd">
<svg version="1.0" xmlns="http://www.w3.org/2000/svg"
 width="248.000000pt" height="248.000000pt" viewBox="0 0 248.000000 248.000000"
 preserveAspectRatio="xMidYMid meet">
<metadata>
Created by potrace 1.10, written by Peter Selinger 2001-2011
</metadata>
<g transform="translate(0.000000,248.000000) scale(0.100000,-0.100000)"
fill="#000000" stroke="none">
<path d="M1590 1899 c-36 -4 -146 -13 -245 -19 -185 -11 -400 -31 -610 -56
-66 -8 -181 -17 -255 -20 -143 -7 -180 -18 -180 -55 0 -11 5 -29 10 -40 6 -10
17 -101 25 -202 15 -197 10 -342 -20 -572 -32 -240 -67 -363 -130 -466 -42
-68 -43 -83 -10 -105 23 -15 27 -15 50 0 89 58 154 266 196 621 12 105 27 195
33 202 15 17 260 52 363 53 41 0 42 -1 38 -27 -2 -16 -16 -100 -30 -188 -41
-257 -91 -455 -114 -455 -3 0 -33 27 -66 60 -59 60 -89 72 -113 48 -22 -22
-13 -55 28 -107 116 -147 213 -147 267 0 56 148 153 702 133 755 -11 27 -44
36 -95 24 -22 -5 -78 -12 -125 -15 -47 -3 -129 -13 -182 -21 -54 -9 -101 -13
-106 -10 -7 4 -22 205 -26 361 l-1 40 140 6 c77 4 178 12 225 18 155 19 373
40 490 46 63 3 187 13 275 21 88 8 223 16 300 19 77 3 148 8 157 11 25 8 28
61 5 76 -15 10 -343 8 -427 -3z"/>
</g>
</svg>
