<?xml version="1.0" standalone="no"?>
<!DOCTYPE svg PUBLIC "-//W3C//DTD SVG 20010904//EN"
 "http://www.w3.org/TR/2001/REC-SVG-20010904/DTD/svg10.dtd">
<svg version="1.0" xmlns="http://www.w3.org/2000/svg"
 width="248.000000pt" height="248.000000pt" viewBox="0 0 248.000000 248.000000"
 preserveAspectRatio="xMidYMid meet">
<metadata>
Created by potrace 1.10, written by Peter Selinger 2001-2011
</metadata>
<g transform="translate(0.000000,248.000000) scale(0.100000,-0.100000)"
fill="#000000" stroke="none">
<path d="M1809 2194 c-15 -18 -20 -55 -53 -378 -14 -131 -28 -241 -31 -244 -3
-3 -65 -9 -138 -14 -73 -4 -185 -14 -250 -21 l-117 -13 0 291 c0 250 -2 294
-16 313 -21 31 -64 26 -81 -8 -9 -18 -13 -102 -13 -316 l0 -291 -117 -7 c-65
-4 -176 -16 -248 -27 -71 -10 -135 -19 -142 -19 -8 0 -12 76 -15 283 -3 293
-7 319 -47 332 -24 7 -50 -3 -59 -24 -4 -9 -5 -146 -2 -304 3 -159 3 -292 0
-297 -3 -4 -50 -12 -105 -19 -55 -7 -119 -14 -142 -17 -23 -3 -47 -11 -53 -19
-19 -23 -8 -59 23 -73 27 -13 63 -11 239 14 l46 6 4 -58 c3 -33 6 -195 7 -361
2 -409 16 -658 37 -691 15 -23 20 -24 83 -18 36 3 251 8 476 12 226 3 413 8
417 10 4 3 108 5 230 5 248 0 272 5 266 57 -6 56 -5 56 -642 43 -320 -6 -617
-13 -662 -16 l-81 -4 -6 121 c-4 67 -7 236 -8 377 -1 141 -4 316 -8 390 -3 73
-4 136 -1 140 6 9 294 47 423 57 l87 6 0 -304 c0 -334 5 -373 48 -385 36 -11
341 -10 475 0 60 5 113 14 120 21 8 8 22 135 40 362 16 192 33 353 38 359 13
13 131 24 271 24 64 1 128 5 142 11 34 13 44 54 20 82 -18 19 -26 20 -169 14
-82 -4 -174 -9 -202 -13 l-53 -6 0 32 c0 49 29 325 46 443 15 100 15 110 0
133 -19 29 -57 33 -77 9z m-89 -741 c1 -53 -54 -610 -60 -617 -5 -5 -106 -11
-224 -14 l-216 -5 0 300 0 301 33 5 c27 5 118 15 287 30 72 7 180 7 180 0z"/>
</g>
</svg>
