<?xml version="1.0" standalone="no"?>
<!DOCTYPE svg PUBLIC "-//W3C//DTD SVG 20010904//EN"
 "http://www.w3.org/TR/2001/REC-SVG-20010904/DTD/svg10.dtd">
<svg version="1.0" xmlns="http://www.w3.org/2000/svg"
 width="248.000000pt" height="248.000000pt" viewBox="0 0 248.000000 248.000000"
 preserveAspectRatio="xMidYMid meet">
<metadata>
Created by potrace 1.10, written by Peter Selinger 2001-2011
</metadata>
<g transform="translate(0.000000,248.000000) scale(0.100000,-0.100000)"
fill="#000000" stroke="none">
<path d="M329 1749 c-14 -14 -19 -28 -15 -42 14 -50 36 -398 30 -482 -9 -140
-43 -400 -66 -505 -25 -117 -47 -177 -93 -251 -41 -67 -43 -83 -11 -104 32
-21 56 -9 96 47 127 175 202 752 157 1207 -11 101 -16 126 -32 137 -26 19 -41
18 -66 -7z"/>
</g>
</svg>
