<?xml version="1.0" standalone="no"?>
<!DOCTYPE svg PUBLIC "-//W3C//DTD SVG 20010904//EN"
 "http://www.w3.org/TR/2001/REC-SVG-20010904/DTD/svg10.dtd">
<svg version="1.0" xmlns="http://www.w3.org/2000/svg"
 width="248.000000pt" height="248.000000pt" viewBox="0 0 248.000000 248.000000"
 preserveAspectRatio="xMidYMid meet">
<metadata>
Created by potrace 1.10, written by Peter Selinger 2001-2011
</metadata>
<g transform="translate(0.000000,248.000000) scale(0.100000,-0.100000)"
fill="#000000" stroke="none">
<path d="M1175 2203 c-16 -2 -91 -16 -165 -29 -150 -28 -318 -57 -425 -74 -92
-15 -119 -29 -123 -62 -2 -20 4 -31 24 -44 25 -17 30 -17 113 0 47 10 136 26
196 37 314 53 452 78 467 84 28 11 29 45 3 71 -24 24 -31 25 -90 17z"/>
<path d="M1105 2000 c-100 -17 -169 -30 -384 -75 -41 -9 -77 -18 -80 -20 -3
-1 -49 -10 -101 -19 -117 -21 -140 -34 -140 -82 0 -46 49 -285 61 -300 6 -7
24 -19 42 -27 28 -14 43 -14 127 -2 341 50 579 94 607 111 16 10 22 26 25 66
3 29 13 105 23 169 21 136 15 170 -37 188 -17 6 -31 11 -32 10 -1 -1 -50 -9
-111 -19z m70 -210 c-8 -51 -20 -100 -25 -109 -9 -18 -44 -26 -245 -57 -55 -8
-156 -24 -224 -35 -68 -11 -127 -17 -131 -12 -7 8 -40 158 -40 184 0 10 19 18
68 26 37 7 108 22 157 33 114 26 267 56 370 73 65 11 81 11 83 1 2 -7 -4 -54
-13 -104z"/>
</g>
</svg>
