<?xml version="1.0" standalone="no"?>
<!DOCTYPE svg PUBLIC "-//W3C//DTD SVG 20010904//EN"
 "http://www.w3.org/TR/2001/REC-SVG-20010904/DTD/svg10.dtd">
<svg version="1.0" xmlns="http://www.w3.org/2000/svg"
 width="248.000000pt" height="248.000000pt" viewBox="0 0 248.000000 248.000000"
 preserveAspectRatio="xMidYMid meet">
<metadata>
Created by potrace 1.10, written by Peter Selinger 2001-2011
</metadata>
<g transform="translate(0.000000,248.000000) scale(0.100000,-0.100000)"
fill="#000000" stroke="none">
<path d="M1513 2378 c-18 -24 -22 -47 -29 -175 -4 -71 -7 -129 -9 -130 -7 -9
-126 -24 -242 -29 -113 -6 -139 -10 -155 -26 -23 -23 -23 -43 2 -68 24 -24 48
-25 235 -5 77 8 143 15 148 15 17 0 3 -344 -19 -448 -13 -66 56 -112 90 -59
21 32 34 146 42 349 l7 176 51 7 c28 3 123 17 211 31 88 14 178 27 200 30 54
8 85 29 85 58 0 45 -20 51 -138 37 -59 -7 -156 -22 -217 -32 -60 -10 -130 -19
-153 -19 l-44 0 6 38 c13 81 11 229 -3 246 -16 19 -55 21 -68 4z"/>
<path d="M660 2054 c-365 -42 -412 -52 -425 -94 -3 -10 -1 -29 6 -42 9 -16 10
-82 5 -253 -3 -126 -9 -255 -12 -285 -2 -30 -9 -163 -14 -295 -9 -259 -5 -287
38 -293 13 -2 28 1 35 6 7 5 66 17 132 26 66 9 158 23 205 31 47 8 103 14 125
12 53 -3 61 17 69 168 4 66 8 149 11 185 11 147 16 221 25 325 5 61 14 173 20
250 6 77 15 154 21 171 14 48 11 72 -13 88 -26 19 -67 19 -228 0z m127 -146
c-4 -29 -11 -120 -17 -203 -16 -208 -9 -191 -82 -204 -35 -5 -127 -13 -206
-17 l-143 -7 5 79 c3 43 8 140 11 214 3 74 10 137 16 141 14 8 306 45 388 48
l33 1 -5 -52z m-48 -555 c0 -27 -6 -122 -12 -212 l-12 -164 -85 -17 c-47 -10
-112 -20 -145 -23 -33 -3 -83 -9 -111 -13 l-52 -7 5 174 c2 96 5 197 6 224 l2
50 152 12 c83 6 160 13 170 16 10 3 33 5 51 6 32 1 32 1 31 -46z"/>
</g>
</svg>
