<?xml version="1.0" standalone="no"?>
<!DOCTYPE svg PUBLIC "-//W3C//DTD SVG 20010904//EN"
 "http://www.w3.org/TR/2001/REC-SVG-20010904/DTD/svg10.dtd">
<svg version="1.0" xmlns="http://www.w3.org/2000/svg"
 width="248.000000pt" height="248.000000pt" viewBox="0 0 248.000000 248.000000"
 preserveAspectRatio="xMidYMid meet">
<metadata>
Created by potrace 1.10, written by Peter Selinger 2001-2011
</metadata>
<g transform="translate(0.000000,248.000000) scale(0.100000,-0.100000)"
fill="#000000" stroke="none">
<path d="M1175 2203 c-16 -2 -91 -16 -165 -29 -150 -28 -318 -57 -425 -74 -92
-15 -119 -29 -123 -62 -2 -20 4 -31 24 -44 25 -17 30 -17 113 0 47 10 136 26
196 37 314 53 452 78 467 84 28 11 29 45 3 71 -24 24 -31 25 -90 17z"/>
</g>
</svg>
