<?xml version="1.0" standalone="no"?>
<!DOCTYPE svg PUBLIC "-//W3C//DTD SVG 20010904//EN"
 "http://www.w3.org/TR/2001/REC-SVG-20010904/DTD/svg10.dtd">
<svg version="1.0" xmlns="http://www.w3.org/2000/svg"
 width="248.000000pt" height="248.000000pt" viewBox="0 0 248.000000 248.000000"
 preserveAspectRatio="xMidYMid meet">
<metadata>
Created by potrace 1.10, written by Peter Selinger 2001-2011
</metadata>
<g transform="translate(0.000000,248.000000) scale(0.100000,-0.100000)"
fill="#000000" stroke="none">
<path d="M1129 2133 c-11 -13 -15 -80 -17 -318 l-3 -302 -112 -7 c-62 -4 -188
-18 -282 -31 -204 -29 -321 -44 -433 -55 -91 -10 -112 -20 -112 -56 0 -52 54
-60 235 -34 198 29 531 70 612 76 l92 6 3 -327 c3 -310 4 -327 22 -341 25 -18
37 -18 62 0 18 14 19 31 22 344 l3 330 37 6 c80 12 235 26 392 36 90 6 205 15
255 20 49 5 140 10 202 10 61 0 123 4 137 10 34 13 44 54 20 81 -18 20 -26 21
-169 15 -82 -4 -184 -11 -225 -16 -41 -5 -154 -14 -250 -20 -96 -6 -226 -16
-287 -23 l-113 -13 0 291 c0 247 -2 294 -16 313 -18 26 -56 29 -75 5z"/>
</g>
</svg>
