<?xml version="1.0" standalone="no"?>
<!DOCTYPE svg PUBLIC "-//W3C//DTD SVG 20010904//EN"
 "http://www.w3.org/TR/2001/REC-SVG-20010904/DTD/svg10.dtd">
<svg version="1.0" xmlns="http://www.w3.org/2000/svg"
 width="248.000000pt" height="248.000000pt" viewBox="0 0 248.000000 248.000000"
 preserveAspectRatio="xMidYMid meet">
<metadata>
Created by potrace 1.10, written by Peter Selinger 2001-2011
</metadata>
<g transform="translate(0.000000,248.000000) scale(0.100000,-0.100000)"
fill="#000000" stroke="none">
<path d="M660 2054 c-365 -42 -412 -52 -425 -94 -3 -10 -1 -29 6 -42 9 -16 10
-82 5 -253 -3 -126 -9 -255 -12 -285 -2 -30 -9 -163 -14 -295 -9 -269 -6 -290
45 -290 48 0 54 26 61 281 3 126 7 243 8 259 l1 30 140 11 c77 6 168 15 203
19 l62 8 0 -40 c0 -21 -4 -100 -10 -174 -21 -289 -21 -283 -4 -307 21 -31 65
-26 80 8 7 14 15 79 18 145 4 66 8 149 11 185 11 147 16 221 25 325 5 61 14
173 20 250 6 77 15 154 21 171 14 48 11 72 -13 88 -26 19 -67 19 -228 0z m127
-146 c-4 -29 -11 -120 -17 -203 -16 -208 -9 -191 -82 -204 -35 -5 -127 -13
-206 -17 l-143 -7 5 79 c3 43 8 140 11 214 3 74 10 137 16 141 14 8 306 45
388 48 l33 1 -5 -52z"/>
</g>
</svg>
