<?xml version="1.0" standalone="no"?>
<!DOCTYPE svg PUBLIC "-//W3C//DTD SVG 20010904//EN"
 "http://www.w3.org/TR/2001/REC-SVG-20010904/DTD/svg10.dtd">
<svg version="1.0" xmlns="http://www.w3.org/2000/svg"
 width="248.000000pt" height="248.000000pt" viewBox="0 0 248.000000 248.000000"
 preserveAspectRatio="xMidYMid meet">
<metadata>
Created by potrace 1.10, written by Peter Selinger 2001-2011
</metadata>
<g transform="translate(0.000000,248.000000) scale(0.100000,-0.100000)"
fill="#000000" stroke="none">
<path d="M877 2362 c-10 -10 -17 -23 -17 -29 0 -19 -76 -128 -149 -213 -41
-47 -138 -154 -217 -237 -144 -153 -162 -181 -132 -211 31 -31 59 -14 189 121
l128 132 3 -368 c3 -352 4 -369 22 -383 25 -18 37 -18 62 0 18 14 19 31 22
384 l3 369 42 6 c175 21 321 39 370 46 l57 8 0 -126 c0 -69 -5 -235 -11 -368
-11 -221 -10 -245 5 -268 21 -32 60 -33 80 -2 14 23 36 428 36 663 l0 112 98
6 c53 3 153 9 220 14 105 6 126 10 138 27 18 24 18 36 0 61 -16 21 -10 21
-275 9 l-154 -7 6 24 c4 12 10 58 13 100 8 89 -8 128 -51 128 -36 0 -55 -35
-55 -105 -1 -71 -13 -133 -32 -150 -11 -11 -487 -78 -495 -71 -2 2 21 32 50
69 107 135 149 231 115 265 -18 18 -53 15 -71 -6z"/>
</g>
</svg>
