<?xml version="1.0" standalone="no"?>
<!DOCTYPE svg PUBLIC "-//W3C//DTD SVG 20010904//EN"
 "http://www.w3.org/TR/2001/REC-SVG-20010904/DTD/svg10.dtd">
<svg version="1.0" xmlns="http://www.w3.org/2000/svg"
 width="248.000000pt" height="248.000000pt" viewBox="0 0 248.000000 248.000000"
 preserveAspectRatio="xMidYMid meet">
<metadata>
Created by potrace 1.10, written by Peter Selinger 2001-2011
</metadata>
<g transform="translate(0.000000,248.000000) scale(0.100000,-0.100000)"
fill="#000000" stroke="none">
<path d="M1576 2328 c-12 -17 -16 -48 -16 -138 l0 -116 -117 -12 c-65 -7 -158
-17 -207 -23 -50 -5 -100 -16 -113 -24 -30 -20 -30 -60 0 -79 22 -14 78 -12
223 10 l41 6 6 -114 c4 -62 9 -230 13 -373 10 -428 -33 -776 -137 -1105 -35
-113 -37 -145 -8 -161 41 -21 64 2 99 98 17 48 36 113 41 143 6 30 19 90 30
134 35 136 57 284 74 486 17 195 17 280 -1 741 l-7 156 29 7 c16 3 79 10 139
16 61 6 155 14 210 19 55 6 152 15 215 21 124 11 160 26 160 64 0 43 -21 49
-138 42 -59 -3 -147 -10 -197 -15 -49 -6 -125 -13 -167 -17 l-78 -7 0 104 c0
63 -5 114 -13 129 -17 34 -60 39 -81 8z"/>
<path d="M765 2300 c-33 -4 -112 -13 -175 -19 -142 -15 -279 -47 -304 -71 -18
-18 -19 -34 -17 -293 1 -151 6 -292 11 -313 5 -22 21 -49 36 -63 29 -25 19
-24 177 -4 l47 6 -2 -559 -3 -559 -75 -37 c-41 -20 -86 -39 -99 -43 -23 -7
-24 -7 -17 56 3 35 9 173 12 306 6 216 5 245 -10 268 -21 32 -59 33 -80 3 -13
-18 -16 -59 -17 -228 0 -113 -6 -263 -12 -334 l-12 -130 -55 -19 c-67 -23 -80
-33 -80 -63 0 -30 36 -55 69 -48 53 11 310 116 391 160 25 13 99 49 165 79
193 89 190 87 193 117 2 19 -3 31 -21 42 -22 15 -28 15 -79 -3 -30 -10 -77
-31 -104 -45 l-49 -26 -3 252 c-1 139 0 258 2 264 2 6 31 15 63 18 77 10 170
35 184 52 17 21 6 58 -21 70 -20 10 -44 8 -115 -7 -49 -10 -96 -18 -102 -19
-10 0 -13 51 -13 225 l0 224 33 5 c17 3 68 8 111 11 44 3 87 10 97 16 11 5 22
29 28 61 35 182 42 601 11 633 -20 19 -88 25 -165 15z m75 -257 c0 -87 -5
-204 -12 -260 l-12 -103 -30 0 c-29 0 -288 -33 -368 -46 l-38 -7 0 225 c0 124
-3 239 -6 255 -6 29 -4 31 38 41 23 6 106 18 183 26 77 9 154 17 170 19 83 10
75 26 75 -150z"/>
</g>
</svg>
