<?xml version="1.0" standalone="no"?>
<!DOCTYPE svg PUBLIC "-//W3C//DTD SVG 20010904//EN"
 "http://www.w3.org/TR/2001/REC-SVG-20010904/DTD/svg10.dtd">
<svg version="1.0" xmlns="http://www.w3.org/2000/svg"
 width="248.000000pt" height="248.000000pt" viewBox="0 0 248.000000 248.000000"
 preserveAspectRatio="xMidYMid meet">
<metadata>
Created by potrace 1.10, written by Peter Selinger 2001-2011
</metadata>
<g transform="translate(0.000000,248.000000) scale(0.100000,-0.100000)"
fill="#000000" stroke="none">
<path d="M1152 2398 c-5 -7 -12 -85 -13 -175 -2 -89 -7 -165 -11 -168 -6 -7
-133 -22 -403 -51 -33 -4 -66 -11 -72 -17 -16 -12 -17 -49 -1 -65 17 -17 122
-14 308 7 85 10 159 15 164 13 8 -5 3 -160 -10 -309 l-7 -72 -41 -6 c-22 -3
-104 -12 -181 -20 -77 -9 -162 -19 -190 -24 -47 -9 -209 -34 -300 -47 -54 -8
-85 -29 -85 -58 0 -38 23 -49 87 -42 61 7 202 29 342 52 46 8 101 14 122 14
36 0 39 -2 45 -35 9 -50 -38 -377 -81 -559 -52 -223 -144 -423 -234 -511 -44
-42 -50 -64 -25 -89 28 -29 56 -18 115 43 78 80 177 278 219 441 62 243 100
478 100 631 0 88 2 99 18 99 9 0 80 7 157 15 77 8 150 15 162 15 l23 0 0 -482
c0 -266 5 -537 10 -603 5 -65 7 -121 5 -123 -2 -3 -21 10 -42 27 -42 35 -64
39 -87 15 -32 -32 -24 -47 103 -191 39 -46 84 -46 107 -1 14 28 16 55 10 213
-11 280 -17 970 -8 1065 l7 85 85 7 c47 4 213 10 370 13 314 7 335 11 335 60
0 46 -39 61 -126 46 -37 -6 -157 -11 -265 -11 -109 0 -259 -4 -333 -10 -75 -5
-178 -11 -229 -14 l-92 -5 6 132 c8 199 11 247 16 252 2 2 46 9 98 15 52 6
120 18 150 25 30 8 113 21 183 29 145 17 180 31 175 74 -5 42 -40 53 -118 36
-36 -7 -82 -14 -102 -14 -20 0 -87 -11 -150 -24 -62 -14 -140 -26 -173 -28
l-60 -3 -3 159 c-1 99 -6 164 -13 172 -14 17 -53 18 -67 2z"/>
<path d="M1782 1148 c-17 -17 -15 -53 5 -69 9 -8 41 -45 72 -84 31 -38 98
-116 149 -172 51 -56 121 -137 155 -180 63 -79 93 -97 123 -73 7 7 14 22 14
35 0 27 -99 160 -210 280 -45 50 -103 115 -128 145 -88 105 -115 130 -142 130
-14 0 -31 -5 -38 -12z"/>
<path d="M451 1076 c-6 -7 -20 -38 -30 -69 -11 -31 -32 -78 -47 -104 -35 -60
-148 -218 -185 -258 -41 -44 -47 -79 -16 -100 33 -21 63 -7 110 53 186 238
279 426 237 477 -16 19 -54 20 -69 1z"/>
</g>
</svg>
