<?xml version="1.0" standalone="no"?>
<!DOCTYPE svg PUBLIC "-//W3C//DTD SVG 20010904//EN"
 "http://www.w3.org/TR/2001/REC-SVG-20010904/DTD/svg10.dtd">
<svg version="1.0" xmlns="http://www.w3.org/2000/svg"
 width="248.000000pt" height="248.000000pt" viewBox="0 0 248.000000 248.000000"
 preserveAspectRatio="xMidYMid meet">
<metadata>
Created by potrace 1.10, written by Peter Selinger 2001-2011
</metadata>
<g transform="translate(0.000000,248.000000) scale(0.100000,-0.100000)"
fill="#000000" stroke="none">
<path d="M1720 2134 c-30 -6 -74 -13 -98 -13 -23 -1 -84 -10 -135 -22 -50 -11
-150 -27 -222 -35 -71 -7 -209 -23 -305 -34 -96 -11 -202 -23 -235 -26 -68 -8
-85 -17 -85 -48 0 -53 48 -57 326 -26 98 11 242 27 319 36 77 8 165 21 195 29
30 8 113 21 183 29 139 16 177 31 177 70 0 45 -40 59 -120 40z"/>
</g>
</svg>
