<?xml version="1.0" standalone="no"?>
<!DOCTYPE svg PUBLIC "-//W3C//DTD SVG 20010904//EN"
 "http://www.w3.org/TR/2001/REC-SVG-20010904/DTD/svg10.dtd">
<svg version="1.0" xmlns="http://www.w3.org/2000/svg"
 width="248.000000pt" height="248.000000pt" viewBox="0 0 248.000000 248.000000"
 preserveAspectRatio="xMidYMid meet">
<metadata>
Created by potrace 1.10, written by Peter Selinger 2001-2011
</metadata>
<g transform="translate(0.000000,248.000000) scale(0.100000,-0.100000)"
fill="#000000" stroke="none">
<path d="M1655 2253 c-22 -2 -112 -13 -200 -24 -88 -11 -221 -26 -295 -34
-251 -26 -335 -37 -347 -47 -19 -15 -16 -53 7 -73 18 -16 28 -17 202 -1 101
10 210 21 243 26 75 11 280 36 404 49 100 11 131 26 131 66 0 43 -23 49 -145
38z"/>
</g>
</svg>
