<?xml version="1.0" standalone="no"?>
<!DOCTYPE svg PUBLIC "-//W3C//DTD SVG 20010904//EN"
 "http://www.w3.org/TR/2001/REC-SVG-20010904/DTD/svg10.dtd">
<svg version="1.0" xmlns="http://www.w3.org/2000/svg"
 width="248.000000pt" height="248.000000pt" viewBox="0 0 248.000000 248.000000"
 preserveAspectRatio="xMidYMid meet">
<metadata>
Created by potrace 1.10, written by Peter Selinger 2001-2011
</metadata>
<g transform="translate(0.000000,248.000000) scale(0.100000,-0.100000)"
fill="#000000" stroke="none">
<path d="M877 2362 c-10 -10 -17 -23 -17 -29 0 -19 -76 -128 -149 -213 -41
-47 -138 -154 -217 -237 -144 -153 -162 -181 -132 -211 31 -31 59 -14 189 121
l129 132 0 -352 c0 -198 4 -363 10 -377 16 -44 34 -46 232 -36 100 5 329 15
508 21 210 6 334 14 350 22 34 17 39 60 8 81 -20 15 -47 16 -232 10 l-209 -7
5 91 c2 50 6 94 9 96 2 3 94 10 204 17 110 6 211 16 225 23 18 8 25 19 25 41
0 52 -31 59 -219 46 -89 -6 -179 -11 -200 -11 l-38 0 7 68 c4 37 9 69 11 71 2
2 79 10 171 17 204 17 228 20 248 40 19 20 19 58 0 74 -15 13 -131 7 -367 -17
l-58 -6 0 80 0 81 98 6 c53 3 153 9 220 14 105 6 126 10 138 27 18 24 18 36 0
61 -16 21 -10 21 -275 9 l-154 -7 6 24 c4 12 10 58 13 100 8 89 -8 128 -51
128 -36 0 -55 -35 -55 -105 -1 -71 -13 -133 -32 -150 -11 -11 -487 -78 -495
-71 -2 2 21 32 50 69 107 135 149 231 115 265 -18 18 -53 15 -71 -6z m380
-528 c-2 -2 -33 -6 -68 -9 -35 -3 -109 -12 -164 -20 -55 -8 -130 -17 -167 -20
l-68 -6 0 74 0 74 43 6 c57 7 299 37 367 45 l55 7 3 -74 c2 -40 1 -75 -1 -77z
m3 -151 c0 -21 -3 -55 -6 -75 -7 -38 -7 -38 -54 -38 -25 0 -93 -6 -151 -14
-57 -8 -139 -17 -181 -21 l-78 -7 0 71 c0 82 -15 73 155 92 61 6 137 15 170
19 33 4 79 8 103 8 l42 2 0 -37z m-14 -259 c-3 -26 -6 -68 -6 -94 l0 -48 -167
-6 c-93 -4 -194 -9 -225 -12 l-58 -6 0 81 c0 45 1 81 3 81 34 6 380 44 441 48
17 2 18 -3 12 -44z"/>
</g>
</svg>
