<?xml version="1.0" standalone="no"?>
<!DOCTYPE svg PUBLIC "-//W3C//DTD SVG 20010904//EN"
 "http://www.w3.org/TR/2001/REC-SVG-20010904/DTD/svg10.dtd">
<svg version="1.0" xmlns="http://www.w3.org/2000/svg"
 width="248.000000pt" height="248.000000pt" viewBox="0 0 248.000000 248.000000"
 preserveAspectRatio="xMidYMid meet">
<metadata>
Created by potrace 1.10, written by Peter Selinger 2001-2011
</metadata>
<g transform="translate(0.000000,248.000000) scale(0.100000,-0.100000)"
fill="#000000" stroke="none">
<path d="M1337 2248 c-9 -7 -21 -25 -26 -41 -19 -51 -157 -251 -225 -327 -90
-100 -126 -133 -293 -266 -145 -116 -163 -140 -131 -172 29 -29 63 -12 203 99
156 123 246 207 340 319 89 107 215 312 215 351 0 14 -38 49 -53 49 -7 0 -21
-6 -30 -12z"/>
</g>
</svg>
