<?xml version="1.0" standalone="no"?>
<!DOCTYPE svg PUBLIC "-//W3C//DTD SVG 20010904//EN"
 "http://www.w3.org/TR/2001/REC-SVG-20010904/DTD/svg10.dtd">
<svg version="1.0" xmlns="http://www.w3.org/2000/svg"
 width="248.000000pt" height="248.000000pt" viewBox="0 0 248.000000 248.000000"
 preserveAspectRatio="xMidYMid meet">
<metadata>
Created by potrace 1.10, written by Peter Selinger 2001-2011
</metadata>
<g transform="translate(0.000000,248.000000) scale(0.100000,-0.100000)"
fill="#000000" stroke="none">
<path d="M1152 2398 c-5 -7 -12 -85 -13 -175 -2 -89 -7 -165 -11 -168 -6 -7
-133 -22 -403 -51 -33 -4 -66 -11 -72 -17 -16 -12 -17 -49 -1 -65 17 -17 122
-14 308 7 85 10 159 15 164 13 8 -5 3 -160 -10 -309 l-7 -72 -41 -6 c-22 -3
-104 -12 -181 -20 -77 -9 -162 -19 -190 -24 -47 -9 -209 -34 -300 -47 -54 -8
-85 -29 -85 -58 0 -38 23 -49 87 -42 61 7 202 29 342 52 46 8 101 14 122 14
36 0 39 -2 45 -35 9 -50 -38 -377 -81 -559 -52 -223 -144 -423 -234 -511 -44
-42 -50 -64 -25 -89 28 -29 56 -18 115 43 78 80 177 278 219 441 62 243 100
478 100 631 0 88 2 99 18 99 9 0 58 5 107 10 187 21 560 42 815 47 293 5 315
9 315 58 0 46 -39 61 -126 46 -37 -6 -157 -11 -265 -11 -109 0 -259 -4 -333
-10 -75 -5 -178 -11 -229 -14 l-92 -5 6 132 c8 199 11 247 16 252 2 2 46 9 98
15 52 6 120 18 150 25 30 8 113 21 183 29 145 17 180 31 175 74 -5 42 -40 53
-118 36 -36 -7 -82 -14 -102 -14 -20 0 -87 -11 -150 -24 -62 -14 -140 -26
-173 -28 l-60 -3 -3 159 c-1 99 -6 164 -13 172 -14 17 -53 18 -67 2z"/>
</g>
</svg>
