<?xml version="1.0" standalone="no"?>
<!DOCTYPE svg PUBLIC "-//W3C//DTD SVG 20010904//EN"
 "http://www.w3.org/TR/2001/REC-SVG-20010904/DTD/svg10.dtd">
<svg version="1.0" xmlns="http://www.w3.org/2000/svg"
 width="248.000000pt" height="248.000000pt" viewBox="0 0 248.000000 248.000000"
 preserveAspectRatio="xMidYMid meet">
<metadata>
Created by potrace 1.10, written by Peter Selinger 2001-2011
</metadata>
<g transform="translate(0.000000,248.000000) scale(0.100000,-0.100000)"
fill="#000000" stroke="none">
<path d="M1266 2408 c-12 -17 -16 -46 -16 -115 0 -73 -3 -93 -14 -93 -23 0
-214 -19 -316 -31 -52 -6 -101 -16 -107 -22 -19 -14 -16 -52 7 -72 18 -16 28
-17 202 -1 101 10 193 20 206 23 22 5 22 3 22 -84 l0 -90 -67 -12 c-38 -7
-121 -15 -185 -20 -127 -8 -151 -18 -146 -60 5 -42 40 -53 148 -46 99 7 208
21 234 31 14 5 16 -7 16 -89 l0 -94 -82 -7 c-46 -4 -132 -13 -193 -21 -100
-13 -193 -21 -477 -44 -55 -4 -104 -13 -113 -21 -25 -21 -15 -63 19 -79 26
-12 61 -11 270 8 133 12 269 26 302 32 34 5 129 13 210 19 82 5 201 14 264 19
63 5 234 17 380 26 146 10 276 23 290 29 18 8 25 19 25 41 0 54 -25 58 -267
41 -117 -8 -265 -17 -328 -21 -63 -3 -132 -8 -152 -11 l-38 -6 0 95 0 95 68 7
c224 22 282 38 282 80 0 26 -28 48 -61 49 -35 0 -226 -21 -267 -30 -23 -5 -23
-4 -20 88 l3 93 65 8 c36 4 125 14 199 21 142 16 171 28 171 71 0 47 -17 49
-198 31 -92 -9 -184 -19 -204 -22 l-38 -7 0 79 c0 44 -6 90 -13 104 -17 34
-60 39 -81 8z"/>
<path d="M1290 1464 c-354 -23 -372 -25 -396 -49 -24 -25 -25 -38 -3 -245 5
-52 12 -210 14 -350 7 -316 -6 -294 169 -298 69 -2 180 2 248 8 67 7 164 15
214 19 108 8 140 25 150 76 8 46 -1 795 -10 817 -18 41 -65 43 -386 22z m288
-201 l3 -101 -73 -6 c-319 -24 -502 -35 -506 -31 -3 3 -7 49 -10 103 -3 70 -1
101 7 107 14 8 418 33 511 31 l65 -1 3 -102z m2 -277 l0 -63 -92 -6 c-51 -4
-174 -13 -273 -22 -99 -8 -186 -15 -192 -15 -9 0 -13 19 -13 64 0 53 3 66 18
70 9 3 94 10 187 16 94 6 190 12 215 14 25 1 69 3 98 4 l52 2 0 -64z m0 -244
l0 -78 -92 -12 c-51 -8 -180 -16 -285 -19 l-193 -6 7 69 c3 38 8 72 12 75 3 3
87 12 186 19 161 11 318 24 353 28 9 2 12 -19 12 -76z"/>
<path d="M952 334 c-57 -58 -121 -113 -143 -124 -51 -27 -66 -54 -44 -86 32
-50 88 -28 213 85 124 111 167 182 130 219 -25 25 -55 7 -156 -94z"/>
<path d="M1502 398 c-21 -21 -13 -57 21 -92 48 -51 177 -165 221 -198 60 -43
116 -34 116 19 0 15 -16 35 -49 60 -27 21 -94 80 -150 131 -100 92 -131 108
-159 80z"/>
</g>
</svg>
