<?xml version="1.0" standalone="no"?>
<!DOCTYPE svg PUBLIC "-//W3C//DTD SVG 20010904//EN"
 "http://www.w3.org/TR/2001/REC-SVG-20010904/DTD/svg10.dtd">
<svg version="1.0" xmlns="http://www.w3.org/2000/svg"
 width="248.000000pt" height="248.000000pt" viewBox="0 0 248.000000 248.000000"
 preserveAspectRatio="xMidYMid meet">
<metadata>
Created by potrace 1.10, written by Peter Selinger 2001-2011
</metadata>
<g transform="translate(0.000000,248.000000) scale(0.100000,-0.100000)"
fill="#000000" stroke="none">
<path d="M877 2362 c-10 -10 -17 -23 -17 -29 0 -19 -76 -128 -149 -213 -41
-47 -138 -154 -217 -237 -144 -153 -162 -181 -132 -211 31 -31 59 -14 189 121
l128 132 3 -368 c3 -352 4 -369 22 -383 25 -18 37 -18 62 0 18 13 19 30 22
255 2 133 4 241 5 242 4 1 241 29 350 40 59 6 110 10 112 7 3 -2 0 -108 -7
-236 -10 -210 -9 -234 6 -257 21 -32 60 -33 80 -2 10 16 16 88 24 260 5 131
12 241 16 244 3 3 81 12 173 19 204 17 228 20 248 40 19 20 19 58 0 74 -15 13
-131 7 -367 -17 l-58 -6 0 80 0 81 98 6 c53 3 153 9 220 14 105 6 126 10 138
27 18 24 18 36 0 61 -16 21 -10 21 -275 9 l-154 -7 6 24 c4 12 10 58 13 100 8
89 -8 128 -51 128 -36 0 -55 -35 -55 -105 -1 -71 -13 -133 -32 -150 -11 -11
-487 -78 -495 -71 -2 2 21 32 50 69 107 135 149 231 115 265 -18 18 -53 15
-71 -6z m380 -528 c-2 -2 -33 -6 -68 -9 -35 -3 -109 -12 -164 -20 -55 -8 -130
-17 -167 -20 l-68 -6 0 74 0 74 43 6 c57 7 299 37 367 45 l55 7 3 -74 c2 -40
1 -75 -1 -77z"/>
</g>
</svg>
