<?xml version="1.0" standalone="no"?>
<!DOCTYPE svg PUBLIC "-//W3C//DTD SVG 20010904//EN"
 "http://www.w3.org/TR/2001/REC-SVG-20010904/DTD/svg10.dtd">
<svg version="1.0" xmlns="http://www.w3.org/2000/svg"
 width="248.000000pt" height="248.000000pt" viewBox="0 0 248.000000 248.000000"
 preserveAspectRatio="xMidYMid meet">
<metadata>
Created by potrace 1.10, written by Peter Selinger 2001-2011
</metadata>
<g transform="translate(0.000000,248.000000) scale(0.100000,-0.100000)"
fill="#000000" stroke="none">
<path d="M765 2300 c-33 -4 -112 -13 -175 -19 -142 -15 -279 -47 -304 -71 -18
-18 -19 -34 -17 -293 1 -151 6 -292 11 -313 5 -22 21 -49 36 -63 29 -25 20
-24 177 -4 l47 6 0 -564 c0 -616 0 -614 55 -614 55 0 55 -3 55 622 l0 572 33
5 c17 3 68 8 111 11 44 3 87 10 97 16 11 5 22 29 28 61 35 182 42 601 11 633
-20 19 -88 25 -165 15z m75 -257 c0 -87 -5 -204 -12 -260 l-12 -103 -30 0
c-29 0 -288 -33 -368 -46 l-38 -7 0 225 c0 124 -3 239 -6 255 -6 29 -4 31 38
41 23 6 106 18 183 26 77 9 154 17 170 19 83 10 75 26 75 -150z"/>
</g>
</svg>
