<?xml version="1.0" standalone="no"?>
<!DOCTYPE svg PUBLIC "-//W3C//DTD SVG 20010904//EN"
 "http://www.w3.org/TR/2001/REC-SVG-20010904/DTD/svg10.dtd">
<svg version="1.0" xmlns="http://www.w3.org/2000/svg"
 width="248.000000pt" height="248.000000pt" viewBox="0 0 248.000000 248.000000"
 preserveAspectRatio="xMidYMid meet">
<metadata>
Created by potrace 1.10, written by Peter Selinger 2001-2011
</metadata>
<g transform="translate(0.000000,248.000000) scale(0.100000,-0.100000)"
fill="#000000" stroke="none">
<path d="M1266 2408 c-12 -17 -16 -46 -16 -115 0 -73 -3 -93 -14 -93 -23 0
-214 -19 -316 -31 -52 -6 -101 -16 -107 -22 -19 -14 -16 -52 7 -72 18 -16 28
-17 202 -1 101 10 193 20 206 23 22 5 22 3 22 -84 l0 -90 -67 -12 c-38 -7
-121 -15 -185 -20 -127 -8 -151 -18 -146 -60 5 -42 40 -53 148 -46 98 7 208
21 234 31 12 5 15 -14 18 -110 3 -130 14 -154 63 -142 36 9 45 41 45 161 l0
103 68 7 c224 22 282 38 282 80 0 26 -28 48 -61 49 -35 0 -226 -21 -267 -30
-23 -5 -23 -4 -20 88 l3 93 65 8 c36 4 125 14 199 21 142 16 171 28 171 71 0
47 -17 49 -198 31 -92 -9 -184 -19 -204 -22 l-38 -7 0 79 c0 44 -6 90 -13 104
-17 34 -60 39 -81 8z"/>
</g>
</svg>
