<?xml version="1.0" standalone="no"?>
<!DOCTYPE svg PUBLIC "-//W3C//DTD SVG 20010904//EN"
 "http://www.w3.org/TR/2001/REC-SVG-20010904/DTD/svg10.dtd">
<svg version="1.0" xmlns="http://www.w3.org/2000/svg"
 width="248.000000pt" height="248.000000pt" viewBox="0 0 248.000000 248.000000"
 preserveAspectRatio="xMidYMid meet">
<metadata>
Created by potrace 1.10, written by Peter Selinger 2001-2011
</metadata>
<g transform="translate(0.000000,248.000000) scale(0.100000,-0.100000)"
fill="#000000" stroke="none">
<path d="M1152 2398 c-5 -7 -12 -85 -13 -175 -2 -89 -7 -165 -11 -168 -6 -7
-133 -22 -403 -51 -33 -4 -66 -11 -72 -17 -16 -12 -17 -49 -1 -65 17 -17 122
-14 308 7 85 10 159 15 164 13 8 -5 4 -147 -10 -314 -5 -56 -3 -82 6 -93 15
-18 54 -20 68 -2 14 18 32 166 35 299 1 64 4 119 7 122 3 3 48 10 100 16 52 6
120 18 150 25 30 8 113 21 183 29 145 17 180 31 175 74 -5 42 -40 53 -118 36
-36 -7 -82 -14 -102 -14 -20 0 -87 -11 -150 -24 -62 -14 -140 -26 -173 -28
l-60 -3 -3 159 c-1 99 -6 164 -13 172 -14 17 -53 18 -67 2z"/>
</g>
</svg>
