<?xml version="1.0" standalone="no"?>
<!DOCTYPE svg PUBLIC "-//W3C//DTD SVG 20010904//EN"
 "http://www.w3.org/TR/2001/REC-SVG-20010904/DTD/svg10.dtd">
<svg version="1.0" xmlns="http://www.w3.org/2000/svg"
 width="248.000000pt" height="248.000000pt" viewBox="0 0 248.000000 248.000000"
 preserveAspectRatio="xMidYMid meet">
<metadata>
Created by potrace 1.10, written by Peter Selinger 2001-2011
</metadata>
<g transform="translate(0.000000,248.000000) scale(0.100000,-0.100000)"
fill="#000000" stroke="none">
<path d="M765 2300 c-33 -4 -114 -13 -180 -20 -66 -7 -158 -22 -204 -34 -125
-31 -119 -12 -112 -361 5 -255 8 -294 24 -318 19 -30 57 -36 76 -13 9 11 12
90 9 300 l-3 285 45 11 c39 8 140 21 369 46 l53 6 -6 -214 c-3 -117 -10 -244
-14 -283 -10 -79 -3 -110 27 -120 36 -11 59 11 70 67 35 182 42 601 11 633
-20 19 -88 25 -165 15z"/>
</g>
</svg>
