<?xml version="1.0" standalone="no"?>
<!DOCTYPE svg PUBLIC "-//W3C//DTD SVG 20010904//EN"
 "http://www.w3.org/TR/2001/REC-SVG-20010904/DTD/svg10.dtd">
<svg version="1.0" xmlns="http://www.w3.org/2000/svg"
 width="248.000000pt" height="248.000000pt" viewBox="0 0 248.000000 248.000000"
 preserveAspectRatio="xMidYMid meet">
<metadata>
Created by potrace 1.10, written by Peter Selinger 2001-2011
</metadata>
<g transform="translate(0.000000,248.000000) scale(0.100000,-0.100000)"
fill="#000000" stroke="none">
<path d="M757 2193 c-65 -94 -108 -148 -199 -252 -128 -146 -345 -362 -396
-395 -33 -21 -42 -32 -42 -54 0 -32 16 -52 42 -52 40 0 99 45 233 177 121 120
182 187 341 372 59 68 124 173 124 200 0 33 -17 51 -47 51 -17 0 -33 -14 -56
-47z"/>
</g>
</svg>
