<?xml version="1.0" standalone="no"?>
<!DOCTYPE svg PUBLIC "-//W3C//DTD SVG 20010904//EN"
 "http://www.w3.org/TR/2001/REC-SVG-20010904/DTD/svg10.dtd">
<svg version="1.0" xmlns="http://www.w3.org/2000/svg"
 width="248.000000pt" height="248.000000pt" viewBox="0 0 248.000000 248.000000"
 preserveAspectRatio="xMidYMid meet">
<metadata>
Created by potrace 1.10, written by Peter Selinger 2001-2011
</metadata>
<g transform="translate(0.000000,248.000000) scale(0.100000,-0.100000)"
fill="#000000" stroke="none">
<path d="M1174 2345 c-14 -21 -15 -41 -9 -123 l7 -98 -169 -23 c-92 -13 -229
-34 -303 -48 -74 -14 -166 -29 -203 -33 -88 -9 -101 -22 -99 -97 2 -84 29
-253 43 -269 16 -19 54 -18 70 3 15 18 16 70 2 176 -9 65 -8 69 11 78 29 12
215 49 301 59 39 5 138 18 220 29 327 46 362 51 415 55 51 5 88 8 295 25 44 3
124 4 177 1 l98 -5 -43 -71 c-23 -39 -57 -89 -75 -112 -36 -45 -40 -87 -11
-105 43 -27 99 29 184 180 57 101 65 158 27 195 -22 22 -29 23 -200 23 -175 0
-393 -15 -545 -36 -43 -6 -80 -9 -84 -6 -3 3 -7 45 -10 94 -3 50 -11 98 -19
111 -20 30 -59 29 -80 -3z"/>
<path d="M1500 1839 c-52 -10 -133 -25 -180 -33 -306 -55 -501 -95 -515 -106
-23 -19 -15 -63 15 -77 27 -12 28 -12 345 48 88 16 196 36 240 44 211 39 251
48 268 63 37 33 9 83 -46 81 -18 -1 -75 -10 -127 -20z"/>
<path d="M1515 1524 c-161 -20 -220 -30 -350 -56 -82 -16 -190 -35 -239 -43
-53 -8 -95 -20 -105 -30 -14 -14 -16 -54 -13 -373 4 -406 13 -568 34 -588 12
-12 34 -13 134 -4 65 6 241 15 391 19 232 7 276 10 298 25 55 36 56 45 53 551
-3 539 5 498 -106 501 -37 1 -80 0 -97 -2z m95 -282 l0 -179 -97 -11 c-54 -7
-127 -14 -163 -18 -36 -3 -146 -16 -245 -29 -99 -13 -181 -22 -183 -20 -2 2
-6 78 -9 169 l-6 166 26 0 c15 0 102 15 194 34 211 44 332 62 431 65 l52 1 0
-178z m-2 -484 l-3 -193 -210 -6 c-115 -3 -267 -10 -336 -14 l-126 -8 -6 33
c-10 47 -8 298 1 304 16 10 548 72 635 75 l47 1 -2 -192z"/>
<path d="M1350 279 c-169 -6 -355 -20 -652 -48 -42 -4 -84 -13 -92 -20 -24
-20 -20 -58 9 -77 27 -18 20 -18 290 10 205 20 348 27 777 34 324 6 369 9 384
24 23 23 11 66 -23 79 -28 10 -375 10 -693 -2z"/>
</g>
</svg>
