<?xml version="1.0" standalone="no"?>
<!DOCTYPE svg PUBLIC "-//W3C//DTD SVG 20010904//EN"
 "http://www.w3.org/TR/2001/REC-SVG-20010904/DTD/svg10.dtd">
<svg version="1.0" xmlns="http://www.w3.org/2000/svg"
 width="248.000000pt" height="248.000000pt" viewBox="0 0 248.000000 248.000000"
 preserveAspectRatio="xMidYMid meet">
<metadata>
Created by potrace 1.10, written by Peter Selinger 2001-2011
</metadata>
<g transform="translate(0.000000,248.000000) scale(0.100000,-0.100000)"
fill="#000000" stroke="none">
<path d="M1175 2346 c-14 -21 -15 -43 -9 -145 8 -140 17 -166 59 -166 48 0 57
30 49 170 -4 76 -11 128 -20 143 -19 30 -59 29 -79 -2z"/>
<path d="M409 1994 c-16 -19 -14 -97 5 -228 17 -109 27 -128 65 -124 41 5 55
45 42 126 -6 37 -13 100 -15 140 -3 41 -10 80 -17 88 -15 19 -63 18 -80 -2z"/>
</g>
</svg>
