<?xml version="1.0" standalone="no"?>
<!DOCTYPE svg PUBLIC "-//W3C//DTD SVG 20010904//EN"
 "http://www.w3.org/TR/2001/REC-SVG-20010904/DTD/svg10.dtd">
<svg version="1.0" xmlns="http://www.w3.org/2000/svg"
 width="248.000000pt" height="248.000000pt" viewBox="0 0 248.000000 248.000000"
 preserveAspectRatio="xMidYMid meet">
<metadata>
Created by potrace 1.10, written by Peter Selinger 2001-2011
</metadata>
<g transform="translate(0.000000,248.000000) scale(0.100000,-0.100000)"
fill="#000000" stroke="none">
<path d="M1540 2285 c-19 -7 -80 -35 -135 -63 -92 -46 -487 -216 -598 -257
-58 -22 -84 -54 -68 -84 24 -45 41 -41 346 88 94 40 183 77 200 84 16 7 87 40
158 75 70 34 135 62 143 62 18 0 54 35 54 53 0 41 -49 62 -100 42z"/>
</g>
</svg>
