<?xml version="1.0" standalone="no"?>
<!DOCTYPE svg PUBLIC "-//W3C//DTD SVG 20010904//EN"
 "http://www.w3.org/TR/2001/REC-SVG-20010904/DTD/svg10.dtd">
<svg version="1.0" xmlns="http://www.w3.org/2000/svg"
 width="248.000000pt" height="248.000000pt" viewBox="0 0 248.000000 248.000000"
 preserveAspectRatio="xMidYMid meet">
<metadata>
Created by potrace 1.10, written by Peter Selinger 2001-2011
</metadata>
<g transform="translate(0.000000,248.000000) scale(0.100000,-0.100000)"
fill="#000000" stroke="none">
<path d="M1259 2254 c-9 -11 -16 -53 -19 -128 l-5 -111 -70 -17 c-38 -9 -84
-17 -100 -17 -68 -2 -100 -64 -50 -97 23 -15 32 -15 122 4 54 11 100 18 102
16 8 -7 -22 -131 -55 -233 -42 -127 -92 -234 -139 -295 -50 -66 -44 -116 13
-116 47 0 126 116 191 285 41 105 86 268 96 345 l6 46 87 22 c48 12 97 25 110
28 l23 6 -7 -213 c-7 -233 0 -298 41 -379 28 -54 40 -62 130 -85 49 -12 88
-15 130 -11 100 10 338 57 372 73 44 20 57 65 49 161 -7 85 -25 122 -60 122
-40 0 -50 -24 -47 -114 l2 -82 -118 -24 c-65 -12 -157 -25 -204 -28 -174 -9
-189 12 -188 256 0 86 4 207 8 267 11 139 4 159 -57 163 -23 2 -70 -4 -105
-14 -34 -9 -86 -22 -114 -29 l-53 -13 0 86 c0 50 -6 98 -13 112 -15 31 -58 38
-78 14z"/>
<path d="M612 2138 c-13 -13 -16 -47 -4 -64 4 -6 49 -39 101 -73 101 -66 142
-76 161 -41 19 36 2 58 -100 125 -96 64 -134 77 -158 53z"/>
<path d="M490 1796 c-26 -32 -7 -58 75 -107 101 -61 142 -70 166 -40 29 35 11
60 -82 113 -87 50 -136 60 -159 34z"/>
<path d="M631 1412 c-91 -95 -201 -232 -201 -250 0 -53 65 -57 116 -6 57 57
194 233 194 250 0 17 -35 54 -51 54 -7 0 -33 -22 -58 -48z"/>
<path d="M1221 1276 c-9 -10 -12 -56 -10 -148 l2 -133 -114 -17 c-63 -9 -157
-22 -209 -28 -150 -18 -273 -41 -298 -57 -31 -19 -27 -63 8 -79 20 -9 53 -7
160 12 74 13 155 24 180 24 25 1 79 7 120 14 41 8 77 11 80 9 9 -9 -224 -227
-320 -299 -117 -88 -183 -130 -280 -179 -41 -21 -78 -43 -82 -49 -21 -31 6
-76 44 -76 24 0 151 63 237 118 118 74 316 238 419 345 l62 65 0 -296 c0 -329
3 -347 55 -347 53 0 55 15 55 397 l0 348 23 5 c28 7 348 43 487 56 58 5 117
12 133 15 52 11 60 76 11 94 -29 11 -45 10 -610 -56 l-51 -6 -5 120 c-3 100
-7 125 -23 142 -21 23 -57 26 -74 6z"/>
</g>
</svg>
