<?xml version="1.0" standalone="no"?>
<!DOCTYPE svg PUBLIC "-//W3C//DTD SVG 20010904//EN"
 "http://www.w3.org/TR/2001/REC-SVG-20010904/DTD/svg10.dtd">
<svg version="1.0" xmlns="http://www.w3.org/2000/svg"
 width="248.000000pt" height="248.000000pt" viewBox="0 0 248.000000 248.000000"
 preserveAspectRatio="xMidYMid meet">
<metadata>
Created by potrace 1.10, written by Peter Selinger 2001-2011
</metadata>
<g transform="translate(0.000000,248.000000) scale(0.100000,-0.100000)"
fill="#000000" stroke="none">
<path d="M1425 2213 c-16 -2 -70 -10 -120 -18 -49 -7 -134 -19 -187 -26 -110
-13 -158 -35 -158 -73 0 -42 21 -50 107 -37 234 35 347 51 349 48 8 -8 -53
-188 -66 -193 -8 -3 -84 -16 -168 -29 -84 -12 -158 -27 -164 -33 -12 -12 -18
-60 -24 -213 l-6 -116 33 -33 c56 -56 100 -70 223 -70 157 0 284 37 322 95 13
19 15 39 11 79 -8 77 -30 116 -66 116 -44 0 -57 -23 -43 -76 7 -24 12 -49 12
-54 0 -17 -59 -41 -138 -56 -133 -26 -243 1 -258 63 -9 34 12 164 29 179 7 6
56 17 110 23 125 16 188 34 214 63 24 26 93 256 93 309 0 56 -15 63 -105 52z"/>
</g>
</svg>
