<?xml version="1.0" standalone="no"?>
<!DOCTYPE svg PUBLIC "-//W3C//DTD SVG 20010904//EN"
 "http://www.w3.org/TR/2001/REC-SVG-20010904/DTD/svg10.dtd">
<svg version="1.0" xmlns="http://www.w3.org/2000/svg"
 width="248.000000pt" height="248.000000pt" viewBox="0 0 248.000000 248.000000"
 preserveAspectRatio="xMidYMid meet">
<metadata>
Created by potrace 1.10, written by Peter Selinger 2001-2011
</metadata>
<g transform="translate(0.000000,248.000000) scale(0.100000,-0.100000)"
fill="#000000" stroke="none">
<path d="M1253 2358 c-6 -7 -15 -118 -20 -246 -6 -129 -15 -238 -19 -242 -14
-13 -281 -36 -356 -30 l-67 5 66 105 c131 209 155 300 77 300 -26 0 -40 -16
-71 -82 -13 -28 -53 -99 -89 -159 -77 -128 -217 -277 -331 -353 -82 -53 -94
-82 -48 -112 23 -15 27 -15 67 6 45 23 100 65 184 141 l51 46 219 7 c120 3
236 9 258 12 l39 6 -8 -158 c-4 -87 -11 -168 -15 -180 -7 -18 -19 -22 -87 -28
-118 -10 -323 -35 -463 -56 -69 -10 -161 -24 -205 -31 -44 -6 -86 -16 -92 -21
-18 -14 -16 -53 2 -68 19 -16 148 -8 309 20 61 10 143 22 181 25 39 3 83 9 99
12 l29 5 -5 -83 c-7 -108 -56 -255 -123 -369 -83 -141 -300 -344 -435 -405
-96 -44 -105 -50 -108 -73 -2 -13 2 -30 8 -38 71 -85 475 214 617 457 88 151
143 321 143 446 0 40 1 73 3 73 1 0 65 7 142 15 77 7 142 12 144 9 3 -3 -1
-48 -8 -102 -25 -184 -29 -247 -27 -417 1 -158 3 -174 27 -231 45 -105 91
-167 158 -212 113 -75 235 -111 412 -119 145 -7 214 3 364 53 135 46 149 57
153 125 4 73 -14 173 -43 237 -23 50 -27 53 -56 50 -51 -5 -58 -28 -31 -100
20 -58 41 -188 30 -188 -3 0 -43 -13 -90 -29 -46 -17 -125 -37 -175 -45 -82
-15 -101 -15 -201 -1 -280 39 -393 126 -447 340 -14 56 -16 90 -10 170 4 55 7
107 7 115 0 8 8 78 19 155 10 77 20 155 21 174 2 28 8 36 30 42 30 8 388 29
575 34 67 2 131 6 143 10 29 9 37 52 14 76 -18 17 -31 18 -264 8 -218 -8 -333
-16 -587 -36 l-72 -6 4 84 c12 206 17 269 24 274 8 4 164 29 256 40 103 12
301 47 317 56 40 21 29 83 -17 95 -14 3 -38 2 -53 -4 -45 -17 -308 -58 -477
-75 -20 -2 -20 3 -16 225 4 243 1 258 -44 258 -12 0 -27 -6 -32 -12z"/>
</g>
</svg>
