<?xml version="1.0" standalone="no"?>
<!DOCTYPE svg PUBLIC "-//W3C//DTD SVG 20010904//EN"
 "http://www.w3.org/TR/2001/REC-SVG-20010904/DTD/svg10.dtd">
<svg version="1.0" xmlns="http://www.w3.org/2000/svg"
 width="248.000000pt" height="248.000000pt" viewBox="0 0 248.000000 248.000000"
 preserveAspectRatio="xMidYMid meet">
<metadata>
Created by potrace 1.10, written by Peter Selinger 2001-2011
</metadata>
<g transform="translate(0.000000,248.000000) scale(0.100000,-0.100000)"
fill="#000000" stroke="none">
<path d="M1425 2213 c-16 -2 -70 -10 -120 -18 -49 -7 -134 -19 -187 -26 -110
-13 -158 -35 -158 -73 0 -42 21 -50 107 -37 234 35 347 51 349 48 8 -8 -53
-188 -66 -193 -8 -3 -84 -17 -169 -29 -156 -23 -181 -33 -181 -72 0 -25 40
-55 65 -49 12 3 74 13 136 21 145 20 209 38 236 67 24 26 93 256 93 309 0 56
-15 63 -105 52z"/>
</g>
</svg>
