<?xml version="1.0" standalone="no"?>
<!DOCTYPE svg PUBLIC "-//W3C//DTD SVG 20010904//EN"
 "http://www.w3.org/TR/2001/REC-SVG-20010904/DTD/svg10.dtd">
<svg version="1.0" xmlns="http://www.w3.org/2000/svg"
 width="248.000000pt" height="248.000000pt" viewBox="0 0 248.000000 248.000000"
 preserveAspectRatio="xMidYMid meet">
<metadata>
Created by potrace 1.10, written by Peter Selinger 2001-2011
</metadata>
<g transform="translate(0.000000,248.000000) scale(0.100000,-0.100000)"
fill="#000000" stroke="none">
<path d="M555 1881 c-3 -10 -7 -120 -9 -243 -4 -308 -24 -404 -128 -632 -47
-102 -124 -236 -172 -300 -42 -54 -50 -77 -34 -98 29 -37 72 -23 113 34 91
128 196 326 243 460 56 158 71 268 74 535 1 131 -1 244 -6 251 -12 20 -74 15
-81 -7z"/>
</g>
</svg>
