<?xml version="1.0" standalone="no"?>
<!DOCTYPE svg PUBLIC "-//W3C//DTD SVG 20010904//EN"
 "http://www.w3.org/TR/2001/REC-SVG-20010904/DTD/svg10.dtd">
<svg version="1.0" xmlns="http://www.w3.org/2000/svg"
 width="248.000000pt" height="248.000000pt" viewBox="0 0 248.000000 248.000000"
 preserveAspectRatio="xMidYMid meet">
<metadata>
Created by potrace 1.10, written by Peter Selinger 2001-2011
</metadata>
<g transform="translate(0.000000,248.000000) scale(0.100000,-0.100000)"
fill="#000000" stroke="none">
<path d="M470 2046 c-19 -24 -7 -59 28 -81 18 -11 59 -39 90 -63 103 -77 100
-76 127 -64 19 9 25 19 25 45 0 27 -8 40 -46 71 -107 90 -195 126 -224 92z"/>
<path d="M1042 2048 c-8 -8 -12 -48 -12 -114 0 -56 -7 -139 -16 -185 -16 -89
-65 -264 -83 -298 -25 -45 -7 -91 34 -91 48 0 78 64 129 273 60 247 53 427
-17 427 -13 0 -28 -5 -35 -12z"/>
<path d="M132 1428 c-19 -19 -14 -56 11 -73 81 -58 166 -105 189 -105 28 0 58
23 58 44 0 23 -25 44 -109 95 -84 51 -126 62 -149 39z"/>
<path d="M498 783 c-33 -8 -82 -114 -155 -333 -38 -115 -47 -130 -65 -112 -7
7 -24 12 -38 12 -62 0 -67 -57 -10 -111 44 -42 84 -57 109 -42 24 14 55 82
109 239 27 77 64 172 81 211 18 39 31 81 29 93 -4 26 -35 49 -60 43z"/>
</g>
</svg>
