<?xml version="1.0" standalone="no"?>
<!DOCTYPE svg PUBLIC "-//W3C//DTD SVG 20010904//EN"
 "http://www.w3.org/TR/2001/REC-SVG-20010904/DTD/svg10.dtd">
<svg version="1.0" xmlns="http://www.w3.org/2000/svg"
 width="248.000000pt" height="248.000000pt" viewBox="0 0 248.000000 248.000000"
 preserveAspectRatio="xMidYMid meet">
<metadata>
Created by potrace 1.10, written by Peter Selinger 2001-2011
</metadata>
<g transform="translate(0.000000,248.000000) scale(0.100000,-0.100000)"
fill="#000000" stroke="none">
<path d="M1425 2213 c-16 -2 -70 -10 -120 -18 -49 -7 -134 -19 -187 -26 -110
-13 -158 -35 -158 -73 0 -42 21 -50 107 -37 237 36 347 51 349 48 2 -2 -10
-47 -26 -102 -33 -108 -36 -135 -18 -153 17 -17 53 -15 70 6 20 22 88 257 88
303 0 56 -15 63 -105 52z"/>
</g>
</svg>
