<?xml version="1.0" standalone="no"?>
<!DOCTYPE svg PUBLIC "-//W3C//DTD SVG 20010904//EN"
 "http://www.w3.org/TR/2001/REC-SVG-20010904/DTD/svg10.dtd">
<svg version="1.0" xmlns="http://www.w3.org/2000/svg"
 width="248.000000pt" height="248.000000pt" viewBox="0 0 248.000000 248.000000"
 preserveAspectRatio="xMidYMid meet">
<metadata>
Created by potrace 1.10, written by Peter Selinger 2001-2011
</metadata>
<g transform="translate(0.000000,248.000000) scale(0.100000,-0.100000)"
fill="#000000" stroke="none">
<path d="M1521 2287 c-6 -8 -12 -80 -13 -188 l-3 -174 -40 -7 c-22 -3 -116
-14 -210 -24 -93 -9 -176 -21 -182 -27 -18 -13 -16 -52 2 -67 31 -26 346 2
745 65 118 19 238 37 265 41 69 9 85 19 85 53 0 61 -20 62 -325 11 -93 -16
-186 -30 -205 -32 l-35 -3 -3 170 c-2 100 -7 175 -14 182 -14 17 -53 17 -67 0z"/>
<path d="M593 2248 c-22 -29 -26 -64 -32 -293 l-6 -240 -50 -12 c-27 -7 -111
-22 -185 -34 -74 -11 -142 -24 -150 -28 -19 -10 -25 -48 -10 -67 18 -20 118
-18 242 6 57 11 114 20 127 20 l24 0 -7 -242 c-4 -134 -10 -246 -14 -250 -4
-4 -95 -41 -202 -82 -107 -42 -211 -84 -230 -93 -38 -19 -50 -53 -30 -79 24
-28 46 -22 333 90 66 25 122 44 125 42 8 -5 -4 -572 -13 -594 -4 -11 -15 -2
-42 32 -36 47 -67 58 -91 34 -24 -24 -13 -65 34 -124 25 -33 56 -82 69 -111
13 -28 32 -56 43 -62 27 -15 57 -14 70 2 6 7 14 178 21 428 6 229 13 424 17
432 3 9 33 25 67 37 116 38 151 74 111 114 -20 21 -43 20 -104 -4 -28 -11 -56
-20 -63 -20 -15 0 -8 464 8 478 6 5 64 21 130 37 135 31 165 45 165 78 0 54
-36 58 -181 22 -55 -14 -104 -23 -109 -20 -13 8 -13 179 1 347 9 109 9 141 -1
153 -15 18 -54 20 -67 3z"/>
</g>
</svg>
