<?xml version="1.0" standalone="no"?>
<!DOCTYPE svg PUBLIC "-//W3C//DTD SVG 20010904//EN"
 "http://www.w3.org/TR/2001/REC-SVG-20010904/DTD/svg10.dtd">
<svg version="1.0" xmlns="http://www.w3.org/2000/svg"
 width="248.000000pt" height="248.000000pt" viewBox="0 0 248.000000 248.000000"
 preserveAspectRatio="xMidYMid meet">
<metadata>
Created by potrace 1.10, written by Peter Selinger 2001-2011
</metadata>
<g transform="translate(0.000000,248.000000) scale(0.100000,-0.100000)"
fill="#000000" stroke="none">
<path d="M575 2337 c-13 -20 -17 -70 -22 -270 l-6 -246 -52 -11 c-29 -6 -108
-20 -175 -30 -67 -10 -128 -24 -136 -31 -24 -19 -13 -62 19 -77 24 -12 49 -10
183 13 86 15 158 24 162 21 3 -3 6 -146 6 -317 l1 -311 -75 -30 c-104 -40
-179 -65 -219 -72 -19 -3 -40 -11 -48 -17 -21 -18 -16 -57 11 -75 21 -13 33
-14 80 -4 31 6 84 23 118 36 35 14 80 31 101 38 l37 14 0 -325 0 -325 -60 52
c-33 29 -63 56 -66 61 -9 15 -40 10 -57 -9 -36 -40 -23 -62 106 -181 71 -66
80 -72 115 -69 31 3 40 9 54 38 16 31 18 73 18 416 l0 381 38 16 c20 9 55 21
76 28 59 18 142 58 156 74 7 8 10 26 6 40 -10 38 -47 42 -124 12 -37 -14 -86
-32 -109 -40 l-43 -15 -2 196 c-1 108 -2 246 -2 307 l-1 110 40 7 c22 4 80 12
130 18 49 6 100 17 112 26 26 17 30 55 8 74 -20 17 -120 14 -203 -5 -105 -25
-96 -47 -89 219 6 255 2 279 -45 284 -19 2 -31 -4 -43 -21z"/>
<path d="M1808 2255 c-75 -62 -195 -139 -308 -198 -41 -22 -93 -52 -115 -67
-22 -15 -75 -43 -117 -63 -123 -59 -118 -43 -118 -357 0 -281 -7 -362 -55
-620 -44 -232 -80 -370 -120 -450 -12 -25 -33 -75 -46 -113 -28 -80 -21 -102
32 -102 37 0 41 5 83 110 13 33 33 83 44 110 33 80 72 217 87 307 8 45 21 121
30 168 33 181 55 355 55 439 0 84 1 89 23 95 21 5 99 15 282 36 44 5 101 12
128 16 26 4 47 5 48 3 1 -2 4 -315 8 -695 6 -636 7 -692 24 -717 20 -30 57
-36 77 -12 11 13 13 125 12 533 -1 284 -5 606 -9 715 l-6 197 34 0 c19 0 54 5
79 11 25 6 80 14 122 19 88 8 108 20 108 61 0 51 -37 58 -186 35 -139 -22
-702 -96 -733 -96 -7 0 -11 32 -11 93 l0 93 58 28 c31 15 91 49 132 76 41 26
86 51 99 55 13 4 51 24 85 45 33 21 85 53 115 72 30 18 85 59 123 91 53 46 68
65 68 86 0 32 -16 51 -44 51 -12 0 -51 -25 -88 -55z"/>
</g>
</svg>
