<?xml version="1.0" standalone="no"?>
<!DOCTYPE svg PUBLIC "-//W3C//DTD SVG 20010904//EN"
 "http://www.w3.org/TR/2001/REC-SVG-20010904/DTD/svg10.dtd">
<svg version="1.0" xmlns="http://www.w3.org/2000/svg"
 width="248.000000pt" height="248.000000pt" viewBox="0 0 248.000000 248.000000"
 preserveAspectRatio="xMidYMid meet">
<metadata>
Created by potrace 1.10, written by Peter Selinger 2001-2011
</metadata>
<g transform="translate(0.000000,248.000000) scale(0.100000,-0.100000)"
fill="#000000" stroke="none">
<path d="M349 2209 c-21 -21 -19 -55 6 -74 7 -5 50 -18 96 -29 46 -10 131 -29
188 -42 95 -22 106 -23 127 -9 13 9 24 23 24 33 0 40 -24 52 -180 87 -85 19
-171 39 -190 45 -46 13 -47 13 -71 -11z"/>
<path d="M760 1815 c-30 -8 -109 -21 -175 -30 -174 -23 -418 -67 -432 -78 -18
-13 -16 -52 2 -67 18 -15 111 -10 235 13 47 9 128 21 180 27 52 6 144 21 205
33 97 20 111 25 124 49 14 24 14 28 -3 47 -22 24 -56 26 -136 6z"/>
<path d="M605 1364 c-5 -2 -88 -17 -184 -33 -95 -17 -179 -36 -187 -42 -17
-14 -18 -51 -2 -67 19 -19 86 -14 266 18 202 37 199 37 213 61 18 34 -13 69
-59 68 -20 0 -41 -2 -47 -5z"/>
<path d="M545 1061 c-44 -10 -129 -28 -190 -41 -60 -12 -116 -27 -122 -32 -16
-13 -17 -50 -1 -66 17 -17 103 -15 173 4 33 8 112 26 177 39 64 12 121 26 127
29 19 12 13 64 -8 76 -26 13 -60 11 -156 -9z"/>
<path d="M615 739 c-215 -32 -316 -53 -362 -74 -57 -26 -73 -53 -50 -88 14
-23 25 -82 52 -302 9 -72 22 -141 29 -155 14 -31 51 -38 77 -14 13 12 64 23
170 39 184 26 186 27 217 166 23 101 60 298 69 365 9 73 -36 87 -202 63z m88
-126 c-3 -16 -16 -86 -30 -158 -14 -71 -28 -143 -31 -158 -2 -17 -13 -32 -26
-37 -39 -15 -241 -37 -248 -26 -3 5 -12 48 -18 95 -6 47 -15 116 -20 153 -16
112 -23 103 88 123 115 21 274 43 283 38 4 -1 4 -15 2 -30z"/>
</g>
</svg>
