<?xml version="1.0" standalone="no"?>
<!DOCTYPE svg PUBLIC "-//W3C//DTD SVG 20010904//EN"
 "http://www.w3.org/TR/2001/REC-SVG-20010904/DTD/svg10.dtd">
<svg version="1.0" xmlns="http://www.w3.org/2000/svg"
 width="248.000000pt" height="248.000000pt" viewBox="0 0 248.000000 248.000000"
 preserveAspectRatio="xMidYMid meet">
<metadata>
Created by potrace 1.10, written by Peter Selinger 2001-2011
</metadata>
<g transform="translate(0.000000,248.000000) scale(0.100000,-0.100000)"
fill="#000000" stroke="none">
<path d="M1962 2263 c-6 -2 -49 -57 -95 -121 -45 -64 -115 -151 -154 -194 -73
-78 -87 -110 -61 -136 36 -36 98 9 206 150 128 166 182 243 182 255 0 17 -37
53 -52 52 -7 0 -19 -3 -26 -6z"/>
<path d="M351 2211 c-45 -45 -19 -75 84 -101 44 -10 133 -31 199 -46 l118 -26
21 21 c17 17 19 25 11 48 -8 25 -18 30 -104 50 -179 43 -265 63 -287 69 -14 4
-28 -1 -42 -15z"/>
<path d="M1120 2110 c-25 -25 -25 -35 1 -77 12 -19 42 -75 68 -126 36 -71 53
-94 74 -101 56 -20 87 38 49 92 -11 15 -38 64 -61 110 -61 121 -89 144 -131
102z"/>
<path d="M735 1810 c-49 -10 -130 -24 -180 -30 -136 -16 -388 -62 -402 -73
-17 -13 -16 -52 2 -67 24 -20 139 -7 570 66 121 20 153 29 168 46 11 13 15 28
11 42 -13 42 -33 44 -169 16z"/>
<path d="M1969 1786 c-2 -3 -74 -7 -159 -11 -248 -9 -720 -69 -779 -98 -33
-16 -43 -48 -25 -82 15 -29 37 -147 54 -294 12 -103 16 -115 53 -150 23 -21
31 -22 84 -16 l59 6 -2 -64 c-3 -77 -64 -331 -105 -434 -56 -141 -93 -189
-241 -309 -74 -59 -86 -90 -47 -117 29 -21 47 -13 137 59 107 85 148 134 204
240 72 137 144 403 151 556 l4 83 59 6 c89 8 89 8 86 -42 -2 -24 -9 -69 -17
-99 -40 -157 -83 -514 -72 -607 8 -72 61 -168 113 -204 85 -58 140 -71 339
-76 188 -5 319 8 433 42 80 24 95 44 90 119 -6 78 -43 160 -76 164 -52 8 -65
-37 -35 -121 11 -30 14 -50 7 -57 -13 -13 -127 -36 -249 -50 -74 -9 -130 -10
-216 -2 -252 23 -317 87 -304 298 9 160 49 411 96 605 8 34 12 37 55 43 26 3
66 6 89 6 75 0 101 16 138 83 43 79 94 213 163 435 13 41 12 45 -11 68 -21 21
-64 32 -76 20z m-29 -112 c0 -3 -21 -68 -46 -143 -48 -144 -88 -227 -113 -240
-9 -5 -88 -13 -176 -20 -88 -6 -220 -16 -293 -22 -73 -6 -135 -9 -138 -6 -3 3
-12 54 -19 114 -8 59 -19 135 -24 168 -6 32 -7 63 -3 67 8 8 155 34 247 43 33
4 110 13 170 21 61 7 124 15 140 17 54 7 255 7 255 1z"/>
<path d="M580 1360 c-20 -5 -103 -20 -184 -34 -82 -14 -155 -31 -162 -37 -17
-14 -18 -51 -2 -67 18 -18 74 -15 261 18 206 37 204 36 218 61 8 16 7 26 -6
45 -17 26 -55 30 -125 14z"/>
<path d="M545 1061 c-44 -10 -129 -28 -190 -41 -60 -13 -116 -28 -122 -33 -16
-12 -17 -49 -1 -65 19 -19 106 -14 208 12 52 14 131 30 175 37 93 15 105 21
105 60 0 52 -40 59 -175 30z"/>
<path d="M610 738 c-277 -39 -401 -73 -415 -116 -3 -12 1 -34 10 -51 8 -17 20
-68 26 -113 6 -46 17 -124 25 -174 8 -50 14 -105 14 -121 0 -60 51 -93 91 -57
17 15 220 53 286 54 64 0 88 60 138 335 9 50 20 109 25 132 16 66 13 101 -9
113 -23 12 -99 11 -191 -2z m93 -125 c-3 -16 -18 -98 -34 -183 -32 -166 -39
-180 -93 -180 -17 0 -70 -6 -118 -14 -75 -11 -88 -11 -93 2 -9 23 -48 342 -43
348 11 10 365 64 379 57 4 -1 4 -15 2 -30z"/>
</g>
</svg>
