<?xml version="1.0" standalone="no"?>
<!DOCTYPE svg PUBLIC "-//W3C//DTD SVG 20010904//EN"
 "http://www.w3.org/TR/2001/REC-SVG-20010904/DTD/svg10.dtd">
<svg version="1.0" xmlns="http://www.w3.org/2000/svg"
 width="248.000000pt" height="248.000000pt" viewBox="0 0 248.000000 248.000000"
 preserveAspectRatio="xMidYMid meet">
<metadata>
Created by potrace 1.10, written by Peter Selinger 2001-2011
</metadata>
<g transform="translate(0.000000,248.000000) scale(0.100000,-0.100000)"
fill="#000000" stroke="none">
<path d="M520 2115 c-9 -11 -16 -97 -24 -285 -6 -151 -15 -273 -21 -278 -10
-10 -238 -67 -308 -77 -40 -6 -59 -32 -49 -68 11 -43 98 -39 272 13 40 12 78
19 85 16 11 -4 14 -51 15 -230 0 -233 4 -256 48 -342 75 -146 264 -207 477
-154 96 23 119 45 95 91 -13 23 -53 25 -130 4 -122 -33 -244 -10 -316 60 -32
31 -47 56 -63 109 -18 60 -21 93 -21 276 0 144 4 211 11 216 11 7 241 78 374
115 39 11 80 27 93 35 24 16 29 53 10 72 -23 23 -26 22 -331 -68 -76 -22 -143
-38 -148 -34 -7 4 -9 35 -5 88 15 197 18 427 6 441 -16 19 -54 19 -70 0z"/>
</g>
</svg>
