<?xml version="1.0" standalone="no"?>
<!DOCTYPE svg PUBLIC "-//W3C//DTD SVG 20010904//EN"
 "http://www.w3.org/TR/2001/REC-SVG-20010904/DTD/svg10.dtd">
<svg version="1.0" xmlns="http://www.w3.org/2000/svg"
 width="248.000000pt" height="248.000000pt" viewBox="0 0 248.000000 248.000000"
 preserveAspectRatio="xMidYMid meet">
<metadata>
Created by potrace 1.10, written by Peter Selinger 2001-2011
</metadata>
<g transform="translate(0.000000,248.000000) scale(0.100000,-0.100000)"
fill="#000000" stroke="none">
<path d="M1720 2230 c-25 -5 -148 -16 -275 -25 -126 -9 -302 -22 -390 -30 -88
-8 -206 -18 -263 -22 -94 -5 -105 -8 -119 -30 -14 -21 -14 -25 0 -47 21 -32
60 -36 189 -20 129 16 235 20 246 10 12 -13 13 -214 0 -222 -9 -6 -217 -34
-478 -64 -47 -6 -109 -15 -139 -20 -30 -6 -71 -10 -92 -10 -20 0 -41 -6 -47
-13 -21 -24 -87 -414 -78 -452 8 -31 41 -41 71 -21 25 17 29 30 45 156 6 47
18 117 26 156 l15 71 67 11 c71 12 261 37 402 53 47 5 112 13 145 18 42 6 62
5 67 -3 4 -6 7 -56 7 -111 -1 -231 11 -538 22 -551 15 -18 53 -18 68 0 10 12
12 158 7 576 l-1 105 45 7 c150 23 805 46 830 29 21 -15 -59 -113 -140 -171
-66 -47 -83 -77 -60 -106 26 -30 76 -14 169 56 40 30 169 202 178 238 3 14 1
32 -4 41 -22 36 -79 43 -332 43 -215 -1 -314 -5 -613 -27 -66 -5 -66 -5 -71
23 -11 59 -7 203 6 207 6 3 134 14 283 25 150 11 283 24 298 30 24 9 31 24 26
60 -4 32 -42 42 -110 30z"/>
<path d="M652 1564 c-39 -27 -23 -84 25 -84 23 0 189 -53 200 -64 11 -11 79
-6 91 6 17 17 15 53 -5 70 -20 17 -236 88 -268 88 -11 0 -31 -7 -43 -16z"/>
<path d="M602 1298 c-16 -16 -15 -53 1 -65 6 -5 53 -17 102 -27 50 -10 111
-27 137 -38 25 -11 54 -18 64 -16 45 9 43 72 -3 100 -72 42 -274 73 -301 46z"/>
</g>
</svg>
