<?xml version="1.0" standalone="no"?>
<!DOCTYPE svg PUBLIC "-//W3C//DTD SVG 20010904//EN"
 "http://www.w3.org/TR/2001/REC-SVG-20010904/DTD/svg10.dtd">
<svg version="1.0" xmlns="http://www.w3.org/2000/svg"
 width="248.000000pt" height="248.000000pt" viewBox="0 0 248.000000 248.000000"
 preserveAspectRatio="xMidYMid meet">
<metadata>
Created by potrace 1.10, written by Peter Selinger 2001-2011
</metadata>
<g transform="translate(0.000000,248.000000) scale(0.100000,-0.100000)"
fill="#000000" stroke="none">
<path d="M820 2289 c-41 -44 -121 -120 -178 -168 -95 -82 -107 -90 -164 -100
-33 -6 -72 -18 -86 -27 l-25 -17 6 -495 c8 -544 8 -542 66 -542 51 0 52 9 44
514 l-6 463 44 6 c24 3 82 13 129 22 87 17 250 45 261 45 3 0 7 -374 7 -830
l1 -830 -22 15 c-26 18 -59 19 -75 3 -25 -25 -13 -60 41 -115 45 -44 60 -53
89 -53 47 0 56 13 67 96 14 101 11 1768 -3 1797 -17 34 -53 34 -241 0 -27 -4
-20 5 58 79 49 47 97 98 108 114 21 33 25 74 7 92 -25 25 -54 10 -128 -69z"/>
</g>
</svg>
