<?xml version="1.0" standalone="no"?>
<!DOCTYPE svg PUBLIC "-//W3C//DTD SVG 20010904//EN"
 "http://www.w3.org/TR/2001/REC-SVG-20010904/DTD/svg10.dtd">
<svg version="1.0" xmlns="http://www.w3.org/2000/svg"
 width="248.000000pt" height="248.000000pt" viewBox="0 0 248.000000 248.000000"
 preserveAspectRatio="xMidYMid meet">
<metadata>
Created by potrace 1.10, written by Peter Selinger 2001-2011
</metadata>
<g transform="translate(0.000000,248.000000) scale(0.100000,-0.100000)"
fill="#000000" stroke="none">
<path d="M820 2289 c-41 -44 -121 -120 -178 -168 -95 -82 -107 -90 -164 -100
-33 -6 -72 -18 -86 -27 l-25 -17 6 -495 c8 -544 8 -542 66 -542 51 0 54 25 46
349 l-7 290 38 10 c22 5 62 15 89 22 28 6 75 18 105 27 30 8 82 20 115 27 33
7 67 16 75 19 13 6 15 -74 18 -675 l2 -680 -22 15 c-44 31 -88 14 -88 -33 0
-16 18 -42 53 -78 45 -44 60 -53 89 -53 47 0 56 13 67 96 14 101 11 1768 -3
1797 -17 34 -53 34 -241 0 -27 -4 -20 5 58 79 49 47 97 98 108 114 21 33 25
74 7 92 -25 25 -54 10 -128 -69z m100 -398 l0 -99 -27 -5 c-45 -8 -149 -33
-277 -66 -65 -17 -123 -31 -127 -31 -5 0 -9 51 -9 114 l0 113 43 6 c23 3 80
13 127 22 119 23 232 42 253 44 15 1 17 -10 17 -98z"/>
</g>
</svg>
