<?xml version="1.0" standalone="no"?>
<!DOCTYPE svg PUBLIC "-//W3C//DTD SVG 20010904//EN"
 "http://www.w3.org/TR/2001/REC-SVG-20010904/DTD/svg10.dtd">
<svg version="1.0" xmlns="http://www.w3.org/2000/svg"
 width="248.000000pt" height="248.000000pt" viewBox="0 0 248.000000 248.000000"
 preserveAspectRatio="xMidYMid meet">
<metadata>
Created by potrace 1.10, written by Peter Selinger 2001-2011
</metadata>
<g transform="translate(0.000000,248.000000) scale(0.100000,-0.100000)"
fill="#000000" stroke="none">
<path d="M1142 2367 c-6 -7 -12 -68 -13 -143 -2 -201 24 -177 -211 -196 -213
-18 -238 -25 -238 -73 0 -47 46 -55 206 -36 43 6 114 12 157 15 l77 4 -1 -96
c-1 -119 -11 -208 -26 -223 -6 -6 -82 -19 -169 -30 -87 -10 -197 -25 -244 -33
-47 -8 -118 -19 -159 -25 -81 -10 -124 -34 -129 -70 -6 -36 17 -54 57 -47 20
4 70 11 111 16 41 6 107 16 145 24 59 12 170 26 488 60 20 2 37 2 37 -1 0 -12
-120 -143 -236 -258 -229 -228 -473 -418 -674 -525 -71 -37 -86 -50 -88 -72
-5 -41 29 -60 78 -43 102 36 333 188 490 324 96 83 106 88 112 68 3 -12 6
-194 7 -403 1 -356 2 -383 20 -405 18 -22 18 -22 271 -20 254 2 463 20 483 40
7 7 12 31 13 54 1 23 16 146 33 274 24 184 31 275 33 437 2 141 0 208 -8 216
-26 26 -82 36 -165 28 -118 -11 -480 -38 -504 -38 -15 0 -3 17 51 73 90 92
171 182 211 230 l31 39 208 13 c115 7 312 17 438 21 204 6 231 9 247 25 25 25
24 44 -2 70 -23 23 -51 23 -559 -6 -129 -8 -236 -12 -238 -11 -1 2 18 27 42
56 25 29 74 94 109 144 35 50 92 132 126 181 35 50 76 104 92 120 46 49 35
105 -20 105 -17 0 -40 -17 -77 -56 l-52 -57 -98 -19 c-55 -10 -149 -25 -209
-33 -61 -7 -123 -17 -138 -20 l-27 -7 2 134 c3 114 0 138 -15 161 -19 29 -57
36 -75 14z m478 -354 c0 -16 -139 -207 -212 -292 -76 -88 -76 -88 -133 -95
-32 -3 -60 -4 -62 -2 -3 3 0 50 6 106 6 55 11 129 11 164 l0 64 88 12 c168 23
276 41 281 45 7 8 21 6 21 -2z m50 -1000 c0 -65 -3 -142 -6 -170 -6 -48 -9
-52 -29 -47 -12 3 -74 -2 -136 -12 -82 -12 -440 -35 -466 -29 -1 0 -4 72 -8
160 l-8 161 124 12 c68 7 203 17 299 23 96 6 177 12 179 15 2 2 15 4 28 4 23
0 23 -1 23 -117z m-15 -336 c-3 -7 -14 -88 -25 -182 -11 -93 -22 -175 -25
-182 -5 -15 -109 -23 -362 -27 l-213 -4 0 184 0 184 98 0 c53 0 158 7 232 16
176 21 283 31 292 27 4 -2 5 -9 3 -16z"/>
</g>
</svg>
