<?xml version="1.0" standalone="no"?>
<!DOCTYPE svg PUBLIC "-//W3C//DTD SVG 20010904//EN"
 "http://www.w3.org/TR/2001/REC-SVG-20010904/DTD/svg10.dtd">
<svg version="1.0" xmlns="http://www.w3.org/2000/svg"
 width="248.000000pt" height="248.000000pt" viewBox="0 0 248.000000 248.000000"
 preserveAspectRatio="xMidYMid meet">
<metadata>
Created by potrace 1.10, written by Peter Selinger 2001-2011
</metadata>
<g transform="translate(0.000000,248.000000) scale(0.100000,-0.100000)"
fill="#000000" stroke="none">
<path d="M639 2344 c-11 -13 -16 -86 -24 -293 l-10 -276 -65 -11 c-36 -6 -105
-17 -155 -24 -108 -15 -137 -30 -133 -68 5 -46 43 -56 140 -38 111 21 202 35
206 31 1 -1 -3 -142 -10 -313 l-12 -310 -65 -21 c-104 -32 -255 -85 -268 -94
-18 -11 -16 -52 3 -68 25 -21 84 -13 180 24 49 19 103 37 121 41 l32 7 -5
-168 c-2 -92 -7 -223 -10 -291 l-6 -122 -27 0 c-67 0 -67 -49 1 -129 53 -64
77 -73 114 -47 18 13 19 34 27 313 4 164 11 343 15 397 l7 99 90 29 c98 32
125 50 125 83 0 49 -32 55 -128 25 -104 -33 -96 -50 -88 193 3 116 9 248 12
293 l6 81 112 12 c241 27 259 33 254 80 -6 52 -37 54 -292 23 l-69 -9 7 261
c6 230 5 264 -9 284 -19 26 -57 29 -76 6z"/>
<path d="M1502 2173 c-11 -10 -44 -69 -72 -131 -78 -169 -154 -285 -371 -568
-38 -50 -85 -106 -104 -124 -36 -35 -44 -67 -23 -88 16 -16 53 -15 79 1 23 13
175 201 275 338 73 100 204 308 204 323 0 6 13 33 29 60 l29 49 54 -50 c29
-28 73 -63 98 -78 25 -16 110 -92 190 -169 80 -78 167 -157 193 -176 27 -19
72 -54 101 -77 119 -94 167 -113 196 -79 27 34 6 58 -145 173 -82 62 -204 167
-270 232 -66 65 -156 145 -200 177 -98 71 -165 132 -165 150 0 15 -47 54 -65
54 -7 0 -22 -8 -33 -17z"/>
<path d="M1559 1763 c-10 -11 -15 -56 -17 -154 l-4 -138 -31 -6 c-18 -2 -76
-9 -129 -14 -106 -9 -131 -21 -126 -60 6 -51 42 -56 236 -35 l52 6 0 -125 0
-126 -52 -5 c-107 -11 -176 -17 -301 -25 -140 -10 -177 -24 -177 -65 0 -55 23
-57 315 -30 88 8 234 19 325 24 91 5 183 12 205 15 22 3 119 12 214 20 146 11
177 16 188 31 17 23 16 36 -1 60 -13 17 -26 19 -127 17 -61 -1 -144 -7 -184
-12 -40 -6 -123 -14 -184 -17 l-111 -7 0 131 0 132 63 0 c128 1 258 18 278 36
23 21 25 57 4 74 -15 12 -191 8 -302 -7 l-43 -5 0 129 c0 100 -3 133 -16 151
-18 26 -56 29 -75 5z"/>
<path d="M1695 890 c-177 -22 -269 -32 -347 -39 -54 -5 -97 -14 -113 -25 -24
-16 -26 -23 -22 -59 3 -23 12 -125 21 -227 18 -203 34 -266 73 -281 32 -12
574 -12 606 0 39 15 64 69 96 202 31 130 57 343 47 381 -10 43 -42 52 -176 54
-69 1 -152 -1 -185 -6z m255 -117 c-1 -60 -22 -204 -45 -300 l-27 -113 -258 0
c-291 0 -270 -6 -270 83 0 51 -14 201 -25 263 l-5 31 87 11 c49 6 135 18 193
26 58 7 160 14 228 15 110 1 122 -1 122 -16z"/>
</g>
</svg>
