<?xml version="1.0" standalone="no"?>
<!DOCTYPE svg PUBLIC "-//W3C//DTD SVG 20010904//EN"
 "http://www.w3.org/TR/2001/REC-SVG-20010904/DTD/svg10.dtd">
<svg version="1.0" xmlns="http://www.w3.org/2000/svg"
 width="248.000000pt" height="248.000000pt" viewBox="0 0 248.000000 248.000000"
 preserveAspectRatio="xMidYMid meet">
<metadata>
Created by potrace 1.10, written by Peter Selinger 2001-2011
</metadata>
<g transform="translate(0.000000,248.000000) scale(0.100000,-0.100000)"
fill="#000000" stroke="none">
<path d="M1505 2302 c-122 -4 -622 -41 -785 -58 -80 -8 -186 -19 -237 -24 -51
-4 -105 -14 -120 -22 -26 -12 -29 -19 -35 -88 -4 -41 -20 -128 -37 -192 -34
-128 -38 -167 -19 -186 17 -17 53 -15 68 3 17 21 79 271 80 321 0 23 6 46 13
52 7 6 44 14 82 17 39 3 108 10 155 15 126 14 556 47 790 61 200 11 619 6 738
-9 l53 -7 -54 -53 c-30 -29 -87 -77 -128 -106 -54 -38 -75 -59 -77 -76 -3 -34
11 -52 41 -52 58 0 328 222 370 305 19 37 11 66 -22 78 -15 6 -186 13 -391 15
-201 3 -374 6 -385 7 -11 1 -56 1 -100 -1z"/>
<path d="M1570 1754 c-107 -16 -341 -34 -440 -34 -80 0 -100 -9 -100 -45 0
-12 5 -26 12 -33 29 -29 605 1 656 34 29 19 29 58 0 78 -12 9 -27 15 -33 15
-5 -1 -48 -8 -95 -15z"/>
</g>
</svg>
