<?xml version="1.0" standalone="no"?>
<!DOCTYPE svg PUBLIC "-//W3C//DTD SVG 20010904//EN"
 "http://www.w3.org/TR/2001/REC-SVG-20010904/DTD/svg10.dtd">
<svg version="1.0" xmlns="http://www.w3.org/2000/svg"
 width="248.000000pt" height="248.000000pt" viewBox="0 0 248.000000 248.000000"
 preserveAspectRatio="xMidYMid meet">
<metadata>
Created by potrace 1.10, written by Peter Selinger 2001-2011
</metadata>
<g transform="translate(0.000000,248.000000) scale(0.100000,-0.100000)"
fill="#000000" stroke="none">
<path d="M1505 2302 c-122 -4 -622 -41 -785 -58 -80 -8 -186 -19 -237 -24 -51
-4 -105 -14 -120 -22 -26 -12 -29 -19 -35 -88 -4 -41 -20 -128 -37 -192 -34
-128 -38 -167 -19 -186 17 -17 53 -15 68 3 17 21 79 271 80 321 0 23 6 46 13
52 7 6 44 14 82 17 39 3 108 10 155 15 126 14 556 47 790 61 200 11 619 6 738
-9 l53 -7 -54 -53 c-30 -29 -87 -77 -128 -106 -54 -38 -75 -59 -77 -76 -3 -34
11 -52 41 -52 58 0 328 222 370 305 19 37 11 66 -22 78 -15 6 -186 13 -391 15
-201 3 -374 6 -385 7 -11 1 -56 1 -100 -1z"/>
<path d="M1042 2017 c-6 -6 -20 -73 -32 -147 -29 -177 -83 -432 -115 -545 -55
-193 -54 -195 107 -171 159 24 160 24 288 31 63 4 144 11 180 16 69 9 150 12
150 5 0 -3 -4 -16 -9 -29 -5 -14 -22 -92 -36 -173 -49 -278 -121 -517 -205
-684 -41 -80 -105 -183 -117 -187 -5 -2 -42 21 -81 52 -40 31 -88 63 -108 71
-32 14 -38 13 -60 -1 -24 -15 -30 -40 -16 -61 4 -6 32 -27 63 -47 31 -19 60
-41 64 -47 4 -7 28 -25 53 -41 59 -38 128 -40 159 -6 34 37 131 209 169 298
72 170 134 391 178 634 14 77 32 163 40 190 20 64 20 109 1 125 -19 16 -101
14 -300 -4 -82 -8 -193 -17 -245 -21 -52 -3 -114 -10 -137 -14 -23 -5 -44 -7
-46 -4 -4 3 50 234 77 328 l11 40 180 6 c236 9 414 27 443 45 13 8 22 25 22
39 0 46 -32 56 -140 40 -106 -16 -347 -35 -427 -35 -28 0 -55 4 -58 10 -3 5 1
50 9 100 19 108 20 172 4 188 -16 16 -53 15 -66 -1z"/>
<path d="M202 828 c-28 -28 -7 -78 33 -78 40 0 61 50 33 78 -15 15 -51 15 -66
0z"/>
</g>
</svg>
