<?xml version="1.0" standalone="no"?>
<!DOCTYPE svg PUBLIC "-//W3C//DTD SVG 20010904//EN"
 "http://www.w3.org/TR/2001/REC-SVG-20010904/DTD/svg10.dtd">
<svg version="1.0" xmlns="http://www.w3.org/2000/svg"
 width="248.000000pt" height="248.000000pt" viewBox="0 0 248.000000 248.000000"
 preserveAspectRatio="xMidYMid meet">
<metadata>
Created by potrace 1.10, written by Peter Selinger 2001-2011
</metadata>
<g transform="translate(0.000000,248.000000) scale(0.100000,-0.100000)"
fill="#000000" stroke="none">
<path d="M1372 2337 c-6 -6 -14 -25 -18 -41 -7 -28 -92 -120 -216 -235 l-58
-53 0 -456 c0 -501 1 -507 55 -507 54 0 55 8 55 486 l0 435 110 107 c119 116
160 171 160 215 0 49 -61 83 -88 49z"/>
<path d="M562 2308 c-7 -7 -12 -22 -12 -35 0 -31 111 -223 143 -247 50 -37 99
17 64 73 -8 14 -35 61 -58 104 -24 43 -52 87 -62 97 -20 22 -57 26 -75 8z"/>
<path d="M785 1884 c-49 -7 -121 -18 -160 -24 -200 -32 -332 -50 -374 -50 -26
0 -52 -5 -59 -12 -18 -18 -14 -53 8 -73 16 -15 32 -17 107 -12 48 3 131 12
183 20 52 9 142 23 200 32 58 9 155 20 217 24 88 6 117 11 133 26 23 21 26 57
6 74 -18 15 -135 12 -261 -5z"/>
<path d="M710 1534 c-35 -8 -116 -21 -179 -29 -63 -9 -121 -20 -128 -27 -21
-17 -12 -61 17 -76 30 -15 87 -10 274 23 107 19 133 27 148 45 12 15 16 30 12
44 -13 40 -36 43 -144 20z"/>
<path d="M695 1229 c-38 -11 -116 -25 -172 -33 -56 -7 -109 -19 -118 -26 -24
-20 -18 -57 11 -76 24 -16 32 -16 137 0 136 21 256 53 280 74 20 17 22 53 5
70 -16 16 -60 14 -143 -9z"/>
<path d="M630 955 c-63 -13 -159 -32 -209 -41 -72 -14 -85 -37 -82 -152 3
-135 48 -525 64 -565 18 -43 64 -57 185 -57 101 0 187 22 203 53 6 10 15 47
20 81 5 33 16 104 24 156 19 114 30 409 18 465 -15 70 -83 88 -223 60z m122
-162 c4 -93 -7 -256 -27 -388 -25 -172 -11 -155 -130 -155 l-102 0 -18 148
c-10 81 -20 205 -24 275 -6 120 -5 130 13 139 23 13 197 45 248 47 l37 1 3
-67z"/>
</g>
</svg>
