<?xml version="1.0" standalone="no"?>
<!DOCTYPE svg PUBLIC "-//W3C//DTD SVG 20010904//EN"
 "http://www.w3.org/TR/2001/REC-SVG-20010904/DTD/svg10.dtd">
<svg version="1.0" xmlns="http://www.w3.org/2000/svg"
 width="248.000000pt" height="248.000000pt" viewBox="0 0 248.000000 248.000000"
 preserveAspectRatio="xMidYMid meet">
<metadata>
Created by potrace 1.10, written by Peter Selinger 2001-2011
</metadata>
<g transform="translate(0.000000,248.000000) scale(0.100000,-0.100000)"
fill="#000000" stroke="none">
<path d="M1142 2367 c-6 -7 -12 -68 -13 -143 -2 -201 24 -177 -211 -196 -213
-18 -238 -25 -238 -73 0 -47 46 -55 206 -36 43 6 114 12 157 15 l77 4 -1 -96
c-1 -119 -11 -208 -26 -223 -6 -6 -82 -19 -169 -30 -87 -10 -197 -25 -244 -33
-47 -8 -118 -19 -159 -25 -81 -10 -124 -34 -129 -70 -6 -36 17 -54 57 -47 20
4 70 11 111 16 41 6 107 16 145 24 39 8 156 24 260 35 105 12 231 26 280 31
129 14 543 38 799 46 194 6 221 9 237 25 25 25 24 44 -2 70 -20 20 -27 21
-167 14 -258 -11 -815 -45 -861 -51 l-44 -7 7 54 c3 30 9 107 13 171 l6 116
86 12 c220 29 435 70 452 86 40 36 13 101 -37 91 -16 -3 -74 -15 -129 -27 -55
-11 -150 -27 -210 -35 -61 -7 -123 -17 -138 -20 l-27 -7 2 134 c3 114 0 138
-15 161 -19 29 -57 36 -75 14z"/>
</g>
</svg>
