<?xml version="1.0" standalone="no"?>
<!DOCTYPE svg PUBLIC "-//W3C//DTD SVG 20010904//EN"
 "http://www.w3.org/TR/2001/REC-SVG-20010904/DTD/svg10.dtd">
<svg version="1.0" xmlns="http://www.w3.org/2000/svg"
 width="248.000000pt" height="248.000000pt" viewBox="0 0 248.000000 248.000000"
 preserveAspectRatio="xMidYMid meet">
<metadata>
Created by potrace 1.10, written by Peter Selinger 2001-2011
</metadata>
<g transform="translate(0.000000,248.000000) scale(0.100000,-0.100000)"
fill="#000000" stroke="none">
<path d="M1695 2140 c-25 -11 -218 -46 -305 -55 -36 -4 -101 -14 -145 -21 -44
-8 -181 -23 -304 -34 -177 -15 -227 -23 -242 -36 -22 -19 -25 -54 -7 -72 14
-14 87 -15 194 -2 43 5 113 11 154 13 79 4 249 29 540 78 178 30 210 43 210
81 0 51 -41 72 -95 48z"/>
</g>
</svg>
