<?xml version="1.0" standalone="no"?>
<!DOCTYPE svg PUBLIC "-//W3C//DTD SVG 20010904//EN"
 "http://www.w3.org/TR/2001/REC-SVG-20010904/DTD/svg10.dtd">
<svg version="1.0" xmlns="http://www.w3.org/2000/svg"
 width="248.000000pt" height="248.000000pt" viewBox="0 0 248.000000 248.000000"
 preserveAspectRatio="xMidYMid meet">
<metadata>
Created by potrace 1.10, written by Peter Selinger 2001-2011
</metadata>
<g transform="translate(0.000000,248.000000) scale(0.100000,-0.100000)"
fill="#000000" stroke="none">
<path d="M552 2017 c-96 -181 -197 -320 -328 -457 -101 -105 -124 -134 -124
-158 0 -31 14 -42 52 -42 12 0 57 36 112 89 l91 89 120 12 c66 6 139 14 162
17 35 4 42 2 48 -16 6 -19 -13 -190 -38 -335 l-12 -70 -45 -11 c-25 -6 -133
-28 -240 -49 -107 -21 -206 -43 -220 -50 -35 -16 -39 -60 -7 -80 22 -15 39
-13 242 29 121 25 223 45 227 45 28 0 -40 -193 -109 -310 -81 -136 -230 -283
-337 -331 -58 -27 -34 -107 27 -95 41 8 180 109 257 186 88 87 194 264 235
390 24 75 23 74 58 47 18 -13 70 -50 116 -82 112 -78 200 -145 233 -178 32
-31 58 -34 81 -9 42 46 7 83 -234 254 -91 65 -173 126 -182 136 -17 18 -13 20
105 45 68 14 155 31 193 38 102 17 135 33 135 63 0 26 -23 56 -44 56 -7 0 -93
-16 -191 -35 -98 -19 -180 -33 -183 -30 -3 3 2 63 11 133 10 70 17 162 17 204
0 72 2 78 23 83 12 3 74 16 137 29 214 45 220 47 231 67 5 11 7 29 4 40 -12
38 -45 40 -172 10 -65 -16 -163 -36 -218 -45 -55 -9 -149 -25 -210 -35 -60
-10 -114 -15 -118 -11 -4 4 23 54 61 112 38 57 93 148 121 202 47 90 51 100
38 120 -8 12 -27 22 -44 24 -29 3 -33 -1 -81 -91z"/>
<path d="M1849 1628 c-186 -5 -271 -12 -395 -33 -88 -15 -170 -32 -184 -38
-36 -17 -48 -49 -40 -105 4 -26 11 -110 15 -187 12 -246 49 -594 66 -626 14
-27 64 -25 83 3 8 12 13 25 10 30 -9 14 -50 402 -59 558 -3 52 -8 127 -11 166
-4 58 -2 73 10 77 13 5 66 14 291 48 33 5 178 12 323 15 l262 7 0 -64 c0 -35
-4 -91 -9 -124 -5 -33 -19 -125 -30 -205 -23 -161 -65 -343 -87 -377 -19 -30
-18 -57 4 -76 24 -22 44 -21 71 1 48 40 134 484 147 762 6 124 5 136 -12 152
-24 21 -138 25 -455 16z"/>
</g>
</svg>
