<?xml version="1.0" standalone="no"?>
<!DOCTYPE svg PUBLIC "-//W3C//DTD SVG 20010904//EN"
 "http://www.w3.org/TR/2001/REC-SVG-20010904/DTD/svg10.dtd">
<svg version="1.0" xmlns="http://www.w3.org/2000/svg"
 width="248.000000pt" height="248.000000pt" viewBox="0 0 248.000000 248.000000"
 preserveAspectRatio="xMidYMid meet">
<metadata>
Created by potrace 1.10, written by Peter Selinger 2001-2011
</metadata>
<g transform="translate(0.000000,248.000000) scale(0.100000,-0.100000)"
fill="#000000" stroke="none">
<path d="M677 2058 c-9 -7 -28 -44 -41 -83 -32 -93 -146 -366 -180 -434 -44
-85 -194 -328 -260 -420 -34 -45 -82 -112 -108 -148 -50 -69 -58 -101 -32
-127 28 -28 52 -18 94 37 143 189 329 476 400 617 51 100 210 495 210 520 0
15 -38 50 -53 50 -7 0 -21 -6 -30 -12z"/>
</g>
</svg>
