<?xml version="1.0" standalone="no"?>
<!DOCTYPE svg PUBLIC "-//W3C//DTD SVG 20010904//EN"
 "http://www.w3.org/TR/2001/REC-SVG-20010904/DTD/svg10.dtd">
<svg version="1.0" xmlns="http://www.w3.org/2000/svg"
 width="248.000000pt" height="248.000000pt" viewBox="0 0 248.000000 248.000000"
 preserveAspectRatio="xMidYMid meet">
<metadata>
Created by potrace 1.10, written by Peter Selinger 2001-2011
</metadata>
<g transform="translate(0.000000,248.000000) scale(0.100000,-0.100000)"
fill="#000000" stroke="none">
<path d="M1909 2326 c-3 -3 -45 -10 -94 -15 -146 -18 -438 -72 -461 -86 -21
-13 -21 -14 -18 -642 2 -345 4 -636 4 -646 0 -33 45 -67 90 -67 45 0 43 8 18
-95 -45 -188 -155 -361 -302 -474 -45 -35 -56 -49 -56 -72 0 -34 30 -54 67
-44 14 3 74 54 134 112 95 93 115 118 158 203 63 122 113 270 113 332 0 46 2
48 28 48 15 0 47 3 71 6 l44 6 -7 -268 c-9 -311 -2 -377 44 -430 16 -18 43
-37 61 -42 122 -37 423 -41 521 -6 65 22 76 51 76 191 0 120 -12 153 -55 153
-42 0 -55 -34 -55 -146 0 -122 14 -114 -189 -114 -160 0 -263 14 -283 38 -10
12 -13 86 -13 324 l0 309 24 6 c13 3 68 3 122 0 71 -4 101 -2 108 7 18 21 32
1235 16 1344 -6 38 -11 46 -40 58 -32 13 -116 20 -126 10z m65 -167 c8 -84 7
-271 -2 -286 -4 -6 -64 -19 -132 -28 -69 -9 -156 -22 -195 -30 -38 -7 -98 -16
-131 -20 l-62 -6 -5 33 c-4 18 -7 96 -8 172 -2 112 1 141 12 147 20 10 226 47
334 60 50 6 92 13 94 15 2 2 23 4 46 4 l42 0 7 -61z m-4 -548 c0 -174 -5 -191
-60 -191 -23 0 -109 -11 -193 -24 -84 -13 -178 -27 -209 -31 l-58 -6 0 159 c0
180 -4 172 80 172 27 0 61 5 76 10 38 15 247 46 327 49 l37 1 0 -139z m-10
-425 c0 -74 3 -141 6 -149 4 -12 -15 -16 -108 -22 -62 -4 -133 -10 -158 -15
-25 -5 -93 -12 -152 -16 l-108 -7 0 54 c0 30 3 91 7 137 5 73 8 83 27 86 12 2
102 16 201 30 160 23 199 28 268 34 15 2 17 -10 17 -132z"/>
<path d="M622 2298 c-13 -13 -16 -48 -4 -63 32 -44 286 -235 313 -235 9 0 24
9 34 20 30 33 10 66 -71 124 -40 28 -103 77 -141 109 -70 57 -106 70 -131 45z"/>
<path d="M975 1883 c-16 -3 -73 -13 -125 -24 -287 -59 -346 -70 -443 -82 -59
-8 -113 -20 -122 -27 -23 -19 -18 -57 10 -76 24 -16 33 -16 138 0 123 19 426
78 470 92 26 8 -47 -95 -153 -214 -86 -97 -352 -365 -445 -448 -50 -44 -55
-64 -24 -95 36 -36 57 -22 247 163 l114 111 -7 -544 c-7 -599 -7 -594 50 -594
50 0 55 24 55 276 0 124 3 368 7 542 l6 316 36 -27 c20 -15 74 -57 119 -95 46
-37 96 -74 110 -81 54 -27 96 18 63 67 -19 29 -97 94 -229 191 -106 78 -105
57 -11 161 88 97 239 310 239 335 0 41 -43 62 -105 53z"/>
</g>
</svg>
