<?xml version="1.0" standalone="no"?>
<!DOCTYPE svg PUBLIC "-//W3C//DTD SVG 20010904//EN"
 "http://www.w3.org/TR/2001/REC-SVG-20010904/DTD/svg10.dtd">
<svg version="1.0" xmlns="http://www.w3.org/2000/svg"
 width="248.000000pt" height="248.000000pt" viewBox="0 0 248.000000 248.000000"
 preserveAspectRatio="xMidYMid meet">
<metadata>
Created by potrace 1.10, written by Peter Selinger 2001-2011
</metadata>
<g transform="translate(0.000000,248.000000) scale(0.100000,-0.100000)"
fill="#000000" stroke="none">
<path d="M2159 2126 c-2 -2 -94 -7 -204 -10 -251 -8 -502 -22 -760 -41 -110
-9 -303 -22 -430 -30 -469 -30 -445 -26 -445 -71 0 -14 10 -30 25 -40 23 -15
40 -15 163 -5 75 6 182 14 237 17 55 2 264 16 465 29 453 31 492 33 775 45
127 6 238 13 247 16 50 15 21 94 -36 94 -18 0 -35 -2 -37 -4z"/>
</g>
</svg>
