<?xml version="1.0" standalone="no"?>
<!DOCTYPE svg PUBLIC "-//W3C//DTD SVG 20010904//EN"
 "http://www.w3.org/TR/2001/REC-SVG-20010904/DTD/svg10.dtd">
<svg version="1.0" xmlns="http://www.w3.org/2000/svg"
 width="248.000000pt" height="248.000000pt" viewBox="0 0 248.000000 248.000000"
 preserveAspectRatio="xMidYMid meet">
<metadata>
Created by potrace 1.10, written by Peter Selinger 2001-2011
</metadata>
<g transform="translate(0.000000,248.000000) scale(0.100000,-0.100000)"
fill="#000000" stroke="none">
<path d="M1909 2326 c-3 -3 -45 -10 -94 -15 -146 -18 -438 -72 -461 -86 -21
-13 -21 -14 -18 -650 2 -480 6 -640 15 -651 7 -8 24 -14 38 -12 53 6 55 23 55
493 1 237 -1 497 -3 580 -3 121 -1 150 10 156 29 15 294 59 455 75 l61 7 7
-70 c4 -38 2 -267 -5 -509 -13 -480 -8 -684 16 -721 17 -25 56 -31 73 -10 19
22 34 1232 17 1345 -6 38 -11 46 -40 58 -32 13 -116 20 -126 10z"/>
<path d="M622 2298 c-13 -13 -16 -48 -4 -63 32 -44 286 -235 313 -235 9 0 24
9 34 20 30 33 10 66 -71 124 -40 28 -103 77 -141 109 -70 57 -106 70 -131 45z"/>
<path d="M975 1883 c-16 -3 -73 -13 -125 -24 -287 -59 -346 -70 -443 -82 -59
-8 -113 -20 -122 -27 -23 -19 -18 -57 10 -76 24 -16 33 -16 138 0 123 19 426
78 470 92 26 8 -47 -95 -153 -214 -86 -97 -352 -365 -445 -448 -50 -44 -55
-64 -24 -95 36 -36 57 -22 247 163 l114 111 -7 -544 c-7 -599 -7 -594 50 -594
50 0 55 24 55 276 0 124 3 368 7 542 l6 316 36 -27 c20 -15 74 -57 119 -95 46
-37 96 -74 110 -81 54 -27 96 18 63 67 -19 29 -97 94 -229 191 -106 78 -105
57 -11 161 88 97 239 310 239 335 0 41 -43 62 -105 53z"/>
</g>
</svg>
