<?xml version="1.0" standalone="no"?>
<!DOCTYPE svg PUBLIC "-//W3C//DTD SVG 20010904//EN"
 "http://www.w3.org/TR/2001/REC-SVG-20010904/DTD/svg10.dtd">
<svg version="1.0" xmlns="http://www.w3.org/2000/svg"
 width="248.000000pt" height="248.000000pt" viewBox="0 0 248.000000 248.000000"
 preserveAspectRatio="xMidYMid meet">
<metadata>
Created by potrace 1.10, written by Peter Selinger 2001-2011
</metadata>
<g transform="translate(0.000000,248.000000) scale(0.100000,-0.100000)"
fill="#000000" stroke="none">
<path d="M2159 2126 c-2 -2 -87 -7 -189 -10 -281 -9 -379 -15 -845 -46 -236
-16 -509 -35 -605 -41 -96 -7 -181 -16 -187 -22 -22 -16 -15 -55 12 -73 23
-15 40 -15 163 -5 284 23 302 24 302 5 0 -21 -106 -233 -162 -321 -107 -172
-258 -344 -390 -445 -66 -50 -78 -63 -78 -88 0 -20 7 -33 21 -41 28 -15 54 -3
136 63 74 59 48 70 216 -89 59 -56 128 -117 152 -134 25 -18 45 -36 45 -41 0
-11 -179 -225 -216 -259 -70 -63 -199 -154 -266 -187 -55 -28 -74 -43 -76 -60
-5 -30 14 -52 44 -52 65 0 256 122 382 244 164 159 433 548 577 836 26 52 65
125 86 162 22 36 39 80 39 96 0 52 -15 56 -163 43 -135 -11 -350 -15 -359 -6
-3 3 19 53 49 112 29 59 59 124 65 145 7 26 18 40 32 43 12 2 158 14 326 25
396 26 442 28 715 40 127 6 238 13 247 16 50 15 21 94 -36 94 -18 0 -35 -2
-37 -4z m-979 -571 c0 -10 -137 -267 -181 -340 -112 -184 -175 -279 -186 -282
-14 -5 -171 125 -233 193 -25 27 -58 59 -74 72 l-29 23 19 23 c149 184 187
233 209 271 l27 45 224 0 c123 0 224 -2 224 -5z"/>
<path d="M1432 1858 c-7 -7 -12 -42 -12 -85 0 -41 -7 -106 -14 -146 -34 -165
-48 -346 -53 -682 -6 -386 -3 -408 65 -499 40 -52 121 -121 178 -149 16 -9 72
-25 124 -37 76 -18 112 -22 199 -17 167 8 345 63 418 129 37 34 45 70 41 182
-4 122 -16 148 -65 130 l-28 -10 0 -108 c-1 -122 1 -119 -93 -163 -66 -31
-284 -75 -332 -67 -19 3 -77 14 -128 26 -82 18 -100 25 -154 69 -128 103 -141
146 -136 461 2 124 6 229 10 233 3 4 15 2 27 -4 30 -16 99 13 287 120 192 111
255 153 357 238 63 53 77 70 75 89 -7 58 -60 54 -138 -10 -93 -77 -153 -117
-305 -205 -188 -110 -289 -157 -293 -136 -5 21 27 323 38 363 5 18 13 80 16
136 6 87 4 107 -10 129 -18 27 -54 33 -74 13z"/>
</g>
</svg>
