<?xml version="1.0" standalone="no"?>
<!DOCTYPE svg PUBLIC "-//W3C//DTD SVG 20010904//EN"
 "http://www.w3.org/TR/2001/REC-SVG-20010904/DTD/svg10.dtd">
<svg version="1.0" xmlns="http://www.w3.org/2000/svg"
 width="248.000000pt" height="248.000000pt" viewBox="0 0 248.000000 248.000000"
 preserveAspectRatio="xMidYMid meet">
<metadata>
Created by potrace 1.10, written by Peter Selinger 2001-2011
</metadata>
<g transform="translate(0.000000,248.000000) scale(0.100000,-0.100000)"
fill="#000000" stroke="none">
<path d="M422 2258 c-18 -18 -15 -53 6 -71 10 -10 41 -25 68 -34 27 -9 58 -22
69 -29 11 -7 53 -25 93 -40 60 -22 77 -25 98 -16 18 9 24 19 24 42 0 34 -18
48 -95 76 -27 9 -55 21 -61 26 -23 17 -138 58 -164 58 -14 0 -31 -5 -38 -12z"/>
<path d="M650 1682 c-15 -5 -74 -43 -230 -149 -87 -59 -106 -87 -80 -119 22
-25 64 -15 145 37 104 65 205 140 218 160 23 37 -12 84 -53 71z"/>
</g>
</svg>
