<?xml version="1.0" standalone="no"?>
<!DOCTYPE svg PUBLIC "-//W3C//DTD SVG 20010904//EN"
 "http://www.w3.org/TR/2001/REC-SVG-20010904/DTD/svg10.dtd">
<svg version="1.0" xmlns="http://www.w3.org/2000/svg"
 width="248.000000pt" height="248.000000pt" viewBox="0 0 248.000000 248.000000"
 preserveAspectRatio="xMidYMid meet">
<metadata>
Created by potrace 1.10, written by Peter Selinger 2001-2011
</metadata>
<g transform="translate(0.000000,248.000000) scale(0.100000,-0.100000)"
fill="#000000" stroke="none">
<path d="M622 2298 c-13 -13 -16 -48 -4 -63 32 -44 286 -235 313 -235 9 0 24
9 34 20 30 33 10 66 -71 124 -40 28 -103 77 -141 109 -70 57 -106 70 -131 45z"/>
<path d="M975 1883 c-16 -3 -73 -13 -125 -24 -287 -59 -346 -70 -443 -82 -59
-8 -113 -20 -122 -27 -23 -19 -18 -57 10 -76 24 -16 33 -16 138 0 123 19 426
78 470 92 26 8 -47 -95 -153 -214 -86 -97 -352 -365 -445 -448 -50 -44 -55
-64 -24 -95 36 -36 57 -22 247 163 l114 111 -7 -544 c-7 -599 -7 -594 50 -594
21 0 33 7 41 23 8 15 13 210 18 625 l8 602 56 63 c67 75 200 247 244 315 35
55 33 92 -8 107 -14 6 -28 9 -32 9 -4 -1 -20 -4 -37 -6z"/>
</g>
</svg>
