<?xml version="1.0" standalone="no"?>
<!DOCTYPE svg PUBLIC "-//W3C//DTD SVG 20010904//EN"
 "http://www.w3.org/TR/2001/REC-SVG-20010904/DTD/svg10.dtd">
<svg version="1.0" xmlns="http://www.w3.org/2000/svg"
 width="248.000000pt" height="248.000000pt" viewBox="0 0 248.000000 248.000000"
 preserveAspectRatio="xMidYMid meet">
<metadata>
Created by potrace 1.10, written by Peter Selinger 2001-2011
</metadata>
<g transform="translate(0.000000,248.000000) scale(0.100000,-0.100000)"
fill="#000000" stroke="none">
<path d="M1226 2378 c-14 -19 -16 -65 -16 -305 0 -260 -1 -282 -17 -287 -10
-2 -62 -7 -115 -11 l-97 -7 -5 44 c-3 23 -10 92 -16 152 -11 117 -24 146 -65
146 -46 0 -49 -18 -36 -187 6 -85 9 -158 7 -161 -3 -3 -108 -11 -233 -18 -268
-15 -302 -20 -325 -41 -22 -20 -23 -56 -3 -73 16 -13 276 -2 610 26 210 18
450 30 890 44 372 13 389 16 383 68 -6 52 -28 55 -356 43 -163 -6 -345 -13
-404 -16 l-108 -5 0 125 0 124 33 5 c17 3 87 10 154 14 73 5 128 14 137 22 24
19 20 67 -6 81 -21 11 -149 8 -270 -8 l-48 -6 0 104 c0 116 -12 149 -55 149
-13 0 -31 -10 -39 -22z"/>
<path d="M852 1428 c-21 -21 -13 -63 30 -144 90 -172 133 -217 174 -184 26 23
14 65 -51 175 -36 61 -65 115 -65 121 0 33 -64 56 -88 32z"/>
</g>
</svg>
