<?xml version="1.0" standalone="no"?>
<!DOCTYPE svg PUBLIC "-//W3C//DTD SVG 20010904//EN"
 "http://www.w3.org/TR/2001/REC-SVG-20010904/DTD/svg10.dtd">
<svg version="1.0" xmlns="http://www.w3.org/2000/svg"
 width="248.000000pt" height="248.000000pt" viewBox="0 0 248.000000 248.000000"
 preserveAspectRatio="xMidYMid meet">
<metadata>
Created by potrace 1.10, written by Peter Selinger 2001-2011
</metadata>
<g transform="translate(0.000000,248.000000) scale(0.100000,-0.100000)"
fill="#000000" stroke="none">
<path d="M1533 2278 c-21 -18 -47 -38 -58 -44 -11 -6 -29 -16 -40 -22 -102
-58 -461 -219 -602 -271 -45 -17 -99 -39 -120 -50 -21 -10 -77 -31 -125 -46
-48 -15 -94 -32 -102 -39 -14 -10 -17 -95 -21 -726 -3 -393 -8 -745 -11 -781
-8 -91 12 -129 67 -129 34 0 187 100 273 177 35 32 81 72 101 88 33 26 37 35
31 58 -9 37 -47 45 -92 21 -19 -11 -65 -46 -102 -80 -72 -65 -150 -124 -164
-124 -5 0 -7 15 -4 33 3 17 8 337 11 711 l5 679 71 24 c39 13 85 31 101 39 17
9 71 31 122 49 143 52 373 157 635 288 101 51 156 128 119 165 -21 21 -57 13
-95 -20z"/>
</g>
</svg>
