<?xml version="1.0" standalone="no"?>
<!DOCTYPE svg PUBLIC "-//W3C//DTD SVG 20010904//EN"
 "http://www.w3.org/TR/2001/REC-SVG-20010904/DTD/svg10.dtd">
<svg version="1.0" xmlns="http://www.w3.org/2000/svg"
 width="248.000000pt" height="248.000000pt" viewBox="0 0 248.000000 248.000000"
 preserveAspectRatio="xMidYMid meet">
<metadata>
Created by potrace 1.10, written by Peter Selinger 2001-2011
</metadata>
<g transform="translate(0.000000,248.000000) scale(0.100000,-0.100000)"
fill="#000000" stroke="none">
<path d="M620 2245 c-7 -8 -25 -41 -41 -72 -15 -32 -36 -71 -46 -88 -63 -106
-105 -180 -137 -243 -20 -40 -78 -137 -128 -215 -153 -239 -174 -292 -127
-318 34 -18 62 2 98 72 19 35 43 78 55 94 51 70 158 248 211 350 32 61 65 121
75 135 9 14 40 68 69 121 51 95 62 144 39 167 -17 17 -53 15 -68 -3z"/>
</g>
</svg>
