<?xml version="1.0" standalone="no"?>
<!DOCTYPE svg PUBLIC "-//W3C//DTD SVG 20010904//EN"
 "http://www.w3.org/TR/2001/REC-SVG-20010904/DTD/svg10.dtd">
<svg version="1.0" xmlns="http://www.w3.org/2000/svg"
 width="248.000000pt" height="248.000000pt" viewBox="0 0 248.000000 248.000000"
 preserveAspectRatio="xMidYMid meet">
<metadata>
Created by potrace 1.10, written by Peter Selinger 2001-2011
</metadata>
<g transform="translate(0.000000,248.000000) scale(0.100000,-0.100000)"
fill="#000000" stroke="none">
<path d="M1838 2265 c-1 -2 -77 -6 -168 -9 -91 -4 -194 -8 -230 -11 -36 -3
-146 -7 -245 -11 -99 -3 -182 -7 -185 -9 -4 -2 -73 -7 -155 -10 -102 -5 -157
-12 -172 -21 -30 -19 -30 -59 0 -78 19 -13 46 -13 207 -1 259 20 316 23 475
30 77 3 183 8 236 11 53 3 99 2 102 -3 9 -14 -161 -158 -278 -236 -188 -124
-205 -138 -205 -167 0 -63 47 -65 127 -6 33 24 106 74 164 111 57 37 137 97
178 134 40 36 96 84 123 107 65 54 102 106 94 132 -6 18 -58 46 -68 37z"/>
</g>
</svg>
