<?xml version="1.0" standalone="no"?>
<!DOCTYPE svg PUBLIC "-//W3C//DTD SVG 20010904//EN"
 "http://www.w3.org/TR/2001/REC-SVG-20010904/DTD/svg10.dtd">
<svg version="1.0" xmlns="http://www.w3.org/2000/svg"
 width="248.000000pt" height="248.000000pt" viewBox="0 0 248.000000 248.000000"
 preserveAspectRatio="xMidYMid meet">
<metadata>
Created by potrace 1.10, written by Peter Selinger 2001-2011
</metadata>
<g transform="translate(0.000000,248.000000) scale(0.100000,-0.100000)"
fill="#000000" stroke="none">
<path d="M1143 2368 c-4 -7 -8 -97 -8 -200 0 -102 -3 -189 -7 -193 -7 -7 -144
-26 -408 -55 -221 -24 -349 -47 -372 -68 -22 -19 -23 -55 -2 -73 13 -11 38 -9
147 9 73 12 200 29 282 38 83 8 194 21 248 28 54 7 100 9 103 4 7 -11 3 -273
-4 -285 -4 -5 -27 -13 -52 -16 -307 -44 -495 -77 -507 -90 -13 -13 -13 -30 1
-143 9 -71 21 -232 27 -359 7 -126 17 -241 23 -255 13 -29 56 -39 74 -17 7 8
12 25 13 38 2 53 -22 460 -32 553 -9 73 -9 100 0 105 19 12 444 72 451 64 4
-4 10 -298 14 -653 5 -592 7 -646 23 -657 21 -16 29 -16 55 -2 20 11 20 15 17
669 -2 362 -2 660 1 663 5 5 233 24 401 32 57 3 122 8 145 10 56 5 68 -5 61
-51 -3 -22 -17 -114 -31 -206 -13 -91 -34 -208 -46 -260 -23 -99 -67 -238 -79
-251 -4 -4 -32 4 -62 18 -83 38 -119 30 -119 -27 0 -24 8 -32 70 -63 95 -48
149 -48 183 -3 50 67 114 299 147 535 11 76 24 165 30 198 5 33 10 86 10 117
0 97 -17 100 -395 77 -115 -8 -235 -14 -265 -14 l-55 0 -3 128 c-1 70 2 135 7
145 9 16 39 20 248 36 131 9 256 19 278 21 22 3 143 7 269 10 152 3 234 9 243
17 22 18 12 61 -17 74 -33 14 -529 1 -775 -20 -98 -9 -194 -16 -212 -16 l-33
0 0 178 c0 144 -3 182 -16 200 -17 24 -58 30 -71 10z"/>
</g>
</svg>
