<?xml version="1.0" standalone="no"?>
<!DOCTYPE svg PUBLIC "-//W3C//DTD SVG 20010904//EN"
 "http://www.w3.org/TR/2001/REC-SVG-20010904/DTD/svg10.dtd">
<svg version="1.0" xmlns="http://www.w3.org/2000/svg"
 width="248.000000pt" height="248.000000pt" viewBox="0 0 248.000000 248.000000"
 preserveAspectRatio="xMidYMid meet">
<metadata>
Created by potrace 1.10, written by Peter Selinger 2001-2011
</metadata>
<g transform="translate(0.000000,248.000000) scale(0.100000,-0.100000)"
fill="#000000" stroke="none">
<path d="M1160 2130 c-19 -19 -20 -34 -19 -351 0 -182 -5 -446 -10 -587 -6
-142 -13 -346 -17 -454 l-6 -196 -72 -6 c-189 -15 -399 -26 -403 -22 -3 3 -5
31 -4 63 0 32 -6 164 -14 293 -8 129 -15 274 -15 322 0 48 -4 98 -9 111 -12
31 -49 41 -78 21 -28 -18 -29 -42 -8 -373 16 -261 20 -429 10 -439 -3 -4 -65
-12 -136 -18 -109 -9 -134 -14 -151 -32 -25 -25 -18 -67 12 -77 11 -4 80 -2
153 4 72 6 209 15 302 21 94 6 235 15 315 21 80 5 382 9 671 8 289 -1 531 1
538 5 16 10 14 61 -4 76 -22 18 -250 29 -649 29 l-348 1 6 278 c3 152 9 318
12 368 l6 91 121 17 c467 65 588 84 602 96 22 19 19 57 -8 75 -20 13 -34 13
-122 -1 -55 -8 -165 -24 -245 -34 -80 -11 -181 -25 -225 -31 -44 -6 -88 -12
-98 -13 -18 -1 -18 16 -17 356 1 347 0 358 -20 378 -25 25 -45 25 -70 0z"/>
</g>
</svg>
