<?xml version="1.0" standalone="no"?>
<!DOCTYPE svg PUBLIC "-//W3C//DTD SVG 20010904//EN"
 "http://www.w3.org/TR/2001/REC-SVG-20010904/DTD/svg10.dtd">
<svg version="1.0" xmlns="http://www.w3.org/2000/svg"
 width="248.000000pt" height="248.000000pt" viewBox="0 0 248.000000 248.000000"
 preserveAspectRatio="xMidYMid meet">
<metadata>
Created by potrace 1.10, written by Peter Selinger 2001-2011
</metadata>
<g transform="translate(0.000000,248.000000) scale(0.100000,-0.100000)"
fill="#000000" stroke="none">
<path d="M1160 2130 c-19 -19 -19 -35 -20 -403 0 -212 -2 -391 -4 -398 -3 -8
-10 -198 -17 -423 -11 -404 -11 -408 9 -428 27 -27 66 -18 80 19 6 16 13 153
17 323 3 162 8 334 11 381 l6 86 121 17 c467 65 588 84 602 96 22 19 19 57 -8
75 -20 13 -34 13 -122 -1 -55 -8 -165 -24 -245 -34 -80 -11 -181 -25 -225 -31
-44 -6 -88 -12 -98 -13 -18 -1 -18 16 -17 356 1 347 0 358 -20 378 -25 25 -45
25 -70 0z"/>
</g>
</svg>
