<?xml version="1.0" standalone="no"?>
<!DOCTYPE svg PUBLIC "-//W3C//DTD SVG 20010904//EN"
 "http://www.w3.org/TR/2001/REC-SVG-20010904/DTD/svg10.dtd">
<svg version="1.0" xmlns="http://www.w3.org/2000/svg"
 width="248.000000pt" height="248.000000pt" viewBox="0 0 248.000000 248.000000"
 preserveAspectRatio="xMidYMid meet">
<metadata>
Created by potrace 1.10, written by Peter Selinger 2001-2011
</metadata>
<g transform="translate(0.000000,248.000000) scale(0.100000,-0.100000)"
fill="#000000" stroke="none">
<path d="M637 2220 c-120 -171 -267 -353 -382 -474 -72 -75 -134 -145 -139
-155 -16 -37 15 -67 86 -80 68 -14 248 -69 260 -80 12 -10 -260 -331 -318
-374 -27 -21 -32 -58 -9 -77 27 -22 86 -13 225 33 74 25 139 43 144 40 12 -8
0 -706 -15 -802 -13 -91 -7 -119 28 -127 36 -10 57 7 66 52 4 21 10 233 14
469 3 237 9 438 15 448 5 9 14 17 21 17 7 0 47 18 89 40 l78 40 14 -23 c8 -12
34 -60 58 -107 46 -89 70 -107 105 -79 31 26 10 88 -87 260 -105 186 -115 199
-145 199 -45 0 -72 -63 -39 -91 8 -7 22 -25 30 -40 14 -28 13 -29 -28 -53 -24
-14 -61 -33 -83 -42 -38 -16 -263 -94 -271 -94 -3 0 36 48 86 108 49 59 150
183 222 276 73 93 159 199 190 235 32 36 58 75 58 87 0 27 -19 44 -51 44 -30
0 -79 -51 -223 -237 -48 -62 -92 -113 -97 -113 -17 0 -269 82 -269 87 0 3 43
50 95 105 52 55 122 137 155 181 33 45 75 100 93 122 36 44 122 167 138 197
15 27 -13 68 -46 68 -19 0 -35 -14 -68 -60z"/>
<path d="M1828 2206 c-72 -57 -306 -228 -423 -308 -152 -105 -214 -138 -246
-131 -48 9 -52 -9 -55 -245 -2 -119 -6 -228 -8 -241 -3 -13 -6 -103 -6 -200
-1 -97 -5 -216 -10 -266 -17 -167 -21 -356 -9 -371 20 -25 57 -15 128 34 107
73 159 121 212 194 49 68 60 103 37 126 -28 28 -56 13 -112 -57 -62 -77 -155
-163 -168 -155 -5 3 -7 27 -4 52 3 26 10 161 15 299 5 139 12 257 15 262 4 5
23 15 44 22 20 6 112 40 204 75 92 35 175 64 185 64 14 0 33 -38 87 -178 117
-296 191 -459 240 -527 12 -16 39 -61 59 -98 63 -115 144 -208 279 -320 93
-77 119 -62 142 83 8 52 18 143 22 202 5 93 4 109 -11 124 -13 13 -23 15 -43
8 -32 -11 -36 -26 -52 -194 -6 -63 -13 -116 -15 -119 -9 -9 -79 55 -133 120
-32 38 -77 104 -102 148 -25 43 -64 110 -88 149 -36 61 -67 129 -171 382 -15
36 -59 146 -98 246 -2 7 8 16 24 22 113 43 299 124 314 138 23 21 25 57 4 74
-21 18 -55 9 -190 -50 -148 -64 -175 -74 -181 -67 -13 13 -55 245 -60 337 l-7
105 84 60 c46 32 104 75 129 96 25 20 59 42 75 50 18 9 31 23 33 37 9 62 -71
72 -140 18z m-273 -413 c4 -38 18 -121 31 -187 13 -65 24 -124 24 -131 0 -7
-28 -22 -62 -33 -35 -11 -88 -30 -118 -42 -81 -33 -212 -80 -222 -80 -4 0 -8
79 -8 175 0 159 2 176 18 181 54 17 127 57 211 116 53 37 101 67 107 68 7 0
15 -28 19 -67z"/>
<path d="M672 898 c-7 -7 -12 -21 -12 -31 0 -31 109 -231 156 -289 99 -120
106 -124 138 -92 25 25 19 59 -19 106 -54 67 -105 145 -141 218 -18 37 -40 75
-49 84 -19 19 -56 21 -73 4z"/>
<path d="M357 818 c-13 -18 -44 -72 -70 -119 -61 -116 -130 -220 -183 -280
-58 -65 -57 -119 1 -119 48 0 172 162 279 365 27 50 52 94 57 100 13 13 11 59
-3 73 -22 22 -56 13 -81 -20z"/>
</g>
</svg>
