<?xml version="1.0" standalone="no"?>
<!DOCTYPE svg PUBLIC "-//W3C//DTD SVG 20010904//EN"
 "http://www.w3.org/TR/2001/REC-SVG-20010904/DTD/svg10.dtd">
<svg version="1.0" xmlns="http://www.w3.org/2000/svg"
 width="248.000000pt" height="248.000000pt" viewBox="0 0 248.000000 248.000000"
 preserveAspectRatio="xMidYMid meet">
<metadata>
Created by potrace 1.10, written by Peter Selinger 2001-2011
</metadata>
<g transform="translate(0.000000,248.000000) scale(0.100000,-0.100000)"
fill="#000000" stroke="none">
<path d="M826 2348 c-9 -12 -16 -32 -16 -43 0 -19 -18 -81 -77 -260 -32 -99
-148 -344 -204 -434 -23 -36 -61 -88 -84 -116 -71 -84 -80 -121 -34 -146 28
-15 52 3 120 87 69 86 82 107 167 274 79 154 137 297 182 453 35 119 41 167
21 191 -19 23 -57 20 -75 -6z"/>
</g>
</svg>
