<?xml version="1.0" standalone="no"?>
<!DOCTYPE svg PUBLIC "-//W3C//DTD SVG 20010904//EN"
 "http://www.w3.org/TR/2001/REC-SVG-20010904/DTD/svg10.dtd">
<svg version="1.0" xmlns="http://www.w3.org/2000/svg"
 width="248.000000pt" height="248.000000pt" viewBox="0 0 248.000000 248.000000"
 preserveAspectRatio="xMidYMid meet">
<metadata>
Created by potrace 1.10, written by Peter Selinger 2001-2011
</metadata>
<g transform="translate(0.000000,248.000000) scale(0.100000,-0.100000)"
fill="#000000" stroke="none">
<path d="M1690 2240 c-126 -12 -483 -40 -660 -51 -268 -16 -372 -28 -397 -44
-42 -28 -23 -86 29 -88 43 -1 403 24 482 34 44 5 81 8 83 6 3 -4 -88 -113
-230 -276 -45 -52 -95 -113 -111 -135 -16 -23 -53 -68 -82 -101 -73 -84 -124
-165 -124 -196 0 -54 12 -55 248 -25 119 15 273 38 342 51 187 35 238 43 317
51 84 8 133 32 133 67 0 31 -18 47 -54 47 -45 0 -293 -37 -431 -65 -66 -13
-163 -29 -215 -35 -52 -6 -115 -13 -140 -17 l-44 -6 34 42 c19 24 55 69 80
101 25 31 77 95 117 141 234 272 282 331 288 349 5 17 15 20 58 20 29 0 90 5
137 10 47 6 154 14 239 18 133 7 155 11 167 27 18 24 18 36 0 61 -12 16 -28
19 -98 20 -46 1 -121 -2 -168 -6z"/>
</g>
</svg>
