<?xml version="1.0" standalone="no"?>
<!DOCTYPE svg PUBLIC "-//W3C//DTD SVG 20010904//EN"
 "http://www.w3.org/TR/2001/REC-SVG-20010904/DTD/svg10.dtd">
<svg version="1.0" xmlns="http://www.w3.org/2000/svg"
 width="248.000000pt" height="248.000000pt" viewBox="0 0 248.000000 248.000000"
 preserveAspectRatio="xMidYMid meet">
<metadata>
Created by potrace 1.10, written by Peter Selinger 2001-2011
</metadata>
<g transform="translate(0.000000,248.000000) scale(0.100000,-0.100000)"
fill="#000000" stroke="none">
<path d="M1160 2130 c-19 -19 -19 -35 -20 -403 0 -212 -2 -391 -4 -398 -3 -8
-10 -198 -17 -423 -11 -404 -11 -408 9 -428 27 -27 66 -18 80 19 7 17 14 157
17 343 4 173 9 340 11 370 3 30 8 245 11 476 6 420 6 421 -16 443 -26 26 -45
27 -71 1z"/>
</g>
</svg>
