<?xml version="1.0" standalone="no"?>
<!DOCTYPE svg PUBLIC "-//W3C//DTD SVG 20010904//EN"
 "http://www.w3.org/TR/2001/REC-SVG-20010904/DTD/svg10.dtd">
<svg version="1.0" xmlns="http://www.w3.org/2000/svg"
 width="248.000000pt" height="248.000000pt" viewBox="0 0 248.000000 248.000000"
 preserveAspectRatio="xMidYMid meet">
<metadata>
Created by potrace 1.10, written by Peter Selinger 2001-2011
</metadata>
<g transform="translate(0.000000,248.000000) scale(0.100000,-0.100000)"
fill="#000000" stroke="none">
<path d="M1533 2278 c-21 -18 -47 -38 -58 -44 -11 -6 -29 -16 -40 -22 -102
-58 -461 -219 -602 -271 -45 -17 -99 -39 -120 -49 -21 -11 -76 -32 -123 -46
-98 -31 -110 -39 -110 -75 0 -32 16 -51 45 -51 23 0 185 54 228 77 16 8 70 30
121 48 143 52 373 157 635 288 101 51 156 128 119 165 -21 21 -57 13 -95 -20z"/>
</g>
</svg>
