<?xml version="1.0" standalone="no"?>
<!DOCTYPE svg PUBLIC "-//W3C//DTD SVG 20010904//EN"
 "http://www.w3.org/TR/2001/REC-SVG-20010904/DTD/svg10.dtd">
<svg version="1.0" xmlns="http://www.w3.org/2000/svg"
 width="248.000000pt" height="248.000000pt" viewBox="0 0 248.000000 248.000000"
 preserveAspectRatio="xMidYMid meet">
<metadata>
Created by potrace 1.10, written by Peter Selinger 2001-2011
</metadata>
<g transform="translate(0.000000,248.000000) scale(0.100000,-0.100000)"
fill="#000000" stroke="none">
<path d="M775 2338 c-60 -4 -168 -20 -240 -33 -71 -14 -141 -25 -156 -25 -14
0 -34 -9 -45 -21 -18 -20 -19 -43 -19 -432 -1 -268 -5 -447 -13 -512 -35 -279
-44 -342 -68 -492 -14 -90 -50 -255 -80 -368 -30 -113 -54 -214 -54 -225 0
-11 11 -27 25 -36 23 -15 27 -15 48 -1 18 11 29 37 46 104 13 48 31 115 41
148 40 132 94 412 110 579 6 54 13 102 16 107 3 6 10 58 15 117 25 305 31 463
25 690 -4 133 -5 242 -3 242 2 0 54 9 116 20 91 17 322 42 327 36 1 0 5 -433
9 -960 l7 -960 -36 32 c-53 46 -106 40 -106 -13 0 -28 137 -194 166 -201 30
-8 63 12 75 44 14 37 2 2086 -13 2124 -8 23 -56 52 -77 47 -3 -1 -55 -6 -116
-11z"/>
</g>
</svg>
