<?xml version="1.0" standalone="no"?>
<!DOCTYPE svg PUBLIC "-//W3C//DTD SVG 20010904//EN"
 "http://www.w3.org/TR/2001/REC-SVG-20010904/DTD/svg10.dtd">
<svg version="1.0" xmlns="http://www.w3.org/2000/svg"
 width="248.000000pt" height="248.000000pt" viewBox="0 0 248.000000 248.000000"
 preserveAspectRatio="xMidYMid meet">
<metadata>
Created by potrace 1.10, written by Peter Selinger 2001-2011
</metadata>
<g transform="translate(0.000000,248.000000) scale(0.100000,-0.100000)"
fill="#000000" stroke="none">
<path d="M775 2338 c-60 -4 -168 -20 -240 -33 -71 -14 -141 -25 -156 -25 -14
0 -34 -9 -45 -21 -18 -20 -19 -43 -19 -432 -1 -268 -5 -447 -13 -512 -35 -279
-44 -342 -68 -492 -14 -90 -50 -255 -80 -368 -30 -113 -54 -214 -54 -225 0
-11 11 -27 25 -36 23 -15 27 -15 48 -1 18 11 29 37 46 104 13 48 31 115 41
148 36 117 93 408 106 538 5 50 12 70 24 77 21 11 194 40 448 74 l42 6 0 -411
0 -411 -35 31 c-52 46 -105 38 -105 -14 0 -28 137 -194 166 -201 30 -8 63 12
75 44 14 37 2 2086 -13 2124 -8 23 -56 52 -77 47 -3 -1 -55 -6 -116 -11z m95
-393 l0 -295 -42 0 c-24 0 -61 -5 -83 -10 -22 -5 -53 -11 -70 -14 -106 -18
-175 -29 -206 -32 l-36 -3 -6 291 c-3 161 -5 293 -3 295 7 8 242 45 326 52 52
5 101 9 108 10 9 1 12 -64 12 -294z m0 -543 l0 -159 -87 -11 c-197 -26 -301
-41 -341 -50 -23 -6 -42 -7 -43 -3 -3 26 5 142 14 216 l12 90 60 8 c105 14
359 58 364 63 17 16 21 -15 21 -154z"/>
</g>
</svg>
