<?xml version="1.0" standalone="no"?>
<!DOCTYPE svg PUBLIC "-//W3C//DTD SVG 20010904//EN"
 "http://www.w3.org/TR/2001/REC-SVG-20010904/DTD/svg10.dtd">
<svg version="1.0" xmlns="http://www.w3.org/2000/svg"
 width="248.000000pt" height="248.000000pt" viewBox="0 0 248.000000 248.000000"
 preserveAspectRatio="xMidYMid meet">
<metadata>
Created by potrace 1.10, written by Peter Selinger 2001-2011
</metadata>
<g transform="translate(0.000000,248.000000) scale(0.100000,-0.100000)"
fill="#000000" stroke="none">
<path d="M620 2246 c-7 -9 -25 -42 -41 -73 -15 -32 -36 -71 -46 -88 -63 -106
-105 -180 -137 -243 -20 -40 -78 -137 -128 -215 -153 -239 -174 -292 -127
-318 34 -18 62 2 98 72 19 35 43 78 55 94 50 70 158 248 211 349 31 60 67 125
79 145 13 20 35 57 50 84 15 26 30 45 34 43 5 -3 44 -51 87 -107 163 -209 351
-407 433 -456 40 -24 44 -24 67 -9 38 25 32 58 -17 98 -119 93 -361 364 -513
577 -43 60 -80 76 -105 47z"/>
<path d="M616 1778 c-13 -18 -16 -53 -16 -171 0 -109 -3 -149 -12 -151 -7 -2
-56 -12 -108 -21 -52 -10 -102 -24 -111 -32 -13 -11 -18 -42 -23 -146 -10
-227 -19 -933 -12 -971 8 -40 36 -61 71 -52 13 3 47 27 77 52 29 25 80 64 113
87 33 22 84 63 113 91 l53 50 75 -82 c42 -45 85 -87 95 -93 43 -22 88 23 67
66 -6 11 -29 37 -52 59 -22 21 -48 49 -56 61 -8 12 -36 46 -63 76 -26 30 -64
79 -85 109 -39 57 -70 72 -98 50 -23 -20 -16 -62 17 -115 l30 -48 -53 -54
c-29 -30 -75 -68 -103 -85 -27 -17 -60 -41 -72 -52 l-23 -19 0 225 0 225 138
11 c75 6 188 21 250 33 110 21 114 23 138 58 29 44 41 124 50 339 8 171 -1
218 -43 228 -24 6 -206 -10 -245 -22 -17 -5 -18 6 -18 133 0 152 -9 183 -55
183 -13 0 -31 -10 -39 -22z m294 -441 l0 -64 -51 -11 c-28 -7 -67 -12 -86 -12
-20 0 -92 -10 -162 -21 -69 -12 -132 -22 -140 -23 -11 -1 -14 11 -12 54 1 30
6 58 9 62 4 4 61 17 127 29 66 12 149 28 185 35 36 6 80 13 98 13 l32 1 0 -63z
m-14 -254 c-3 -42 -8 -78 -10 -81 -16 -16 -432 -69 -444 -57 -2 2 -1 37 3 77
l7 74 95 17 c52 10 143 22 202 28 58 6 108 13 110 15 2 2 13 4 24 4 19 0 20
-5 13 -77z"/>
</g>
</svg>
