<?xml version="1.0" standalone="no"?>
<!DOCTYPE svg PUBLIC "-//W3C//DTD SVG 20010904//EN"
 "http://www.w3.org/TR/2001/REC-SVG-20010904/DTD/svg10.dtd">
<svg version="1.0" xmlns="http://www.w3.org/2000/svg"
 width="248.000000pt" height="248.000000pt" viewBox="0 0 248.000000 248.000000"
 preserveAspectRatio="xMidYMid meet">
<metadata>
Created by potrace 1.10, written by Peter Selinger 2001-2011
</metadata>
<g transform="translate(0.000000,248.000000) scale(0.100000,-0.100000)"
fill="#000000" stroke="none">
<path d="M826 2348 c-9 -12 -16 -32 -16 -43 0 -19 -18 -81 -77 -260 -32 -99
-148 -344 -204 -434 -23 -36 -61 -88 -84 -116 -71 -84 -80 -121 -34 -146 28
-15 52 3 120 87 70 87 82 107 170 279 l72 141 181 28 c99 15 226 34 281 42 55
8 132 21 170 29 97 20 226 43 315 55 91 13 120 30 120 70 0 49 -21 52 -181 25
-79 -13 -182 -31 -229 -40 -47 -9 -139 -24 -205 -35 -66 -10 -182 -28 -258
-40 -76 -12 -141 -20 -143 -17 -3 2 2 22 10 43 30 80 78 256 79 288 0 19 -5
41 -12 50 -19 23 -57 20 -75 -6z"/>
</g>
</svg>
