<?xml version="1.0" standalone="no"?>
<!DOCTYPE svg PUBLIC "-//W3C//DTD SVG 20010904//EN"
 "http://www.w3.org/TR/2001/REC-SVG-20010904/DTD/svg10.dtd">
<svg version="1.0" xmlns="http://www.w3.org/2000/svg"
 width="248.000000pt" height="248.000000pt" viewBox="0 0 248.000000 248.000000"
 preserveAspectRatio="xMidYMid meet">
<metadata>
Created by potrace 1.10, written by Peter Selinger 2001-2011
</metadata>
<g transform="translate(0.000000,248.000000) scale(0.100000,-0.100000)"
fill="#000000" stroke="none">
<path d="M1690 2240 c-126 -12 -483 -40 -660 -51 -381 -23 -424 -32 -418 -87
5 -41 38 -51 133 -41 44 4 152 13 240 18 197 13 392 27 550 41 66 6 185 15
264 19 124 6 145 10 157 26 18 24 18 36 0 61 -12 16 -28 19 -98 20 -46 1 -121
-2 -168 -6z"/>
</g>
</svg>
