<?xml version="1.0" standalone="no"?>
<!DOCTYPE svg PUBLIC "-//W3C//DTD SVG 20010904//EN"
 "http://www.w3.org/TR/2001/REC-SVG-20010904/DTD/svg10.dtd">
<svg version="1.0" xmlns="http://www.w3.org/2000/svg"
 width="248.000000pt" height="248.000000pt" viewBox="0 0 248.000000 248.000000"
 preserveAspectRatio="xMidYMid meet">
<metadata>
Created by potrace 1.10, written by Peter Selinger 2001-2011
</metadata>
<g transform="translate(0.000000,248.000000) scale(0.100000,-0.100000)"
fill="#000000" stroke="none">
<path d="M767 2269 c-22 -13 -43 -54 -50 -101 -5 -33 -43 -119 -172 -393 -57
-120 -209 -338 -310 -445 -52 -55 -95 -109 -95 -120 0 -24 26 -50 50 -50 26 0
118 87 201 192 62 77 74 87 82 72 29 -51 16 -660 -20 -904 -26 -182 -27 -199
-7 -221 21 -24 46 -24 67 -1 40 45 70 423 65 847 -3 297 -4 323 -23 364 l-21
45 51 85 c48 80 188 378 235 499 24 63 26 105 4 126 -18 18 -32 20 -57 5z"/>
<path d="M1870 2083 c-19 -2 -76 -10 -126 -18 -89 -15 -287 -38 -457 -55 -49
-5 -129 -6 -178 -3 -96 6 -119 -2 -119 -42 0 -44 22 -50 194 -52 154 -1 245 6
501 43 61 9 161 22 224 29 62 8 119 19 127 26 17 14 18 51 2 67 -11 11 -85 14
-168 5z"/>
</g>
</svg>
