<?xml version="1.0" standalone="no"?>
<!DOCTYPE svg PUBLIC "-//W3C//DTD SVG 20010904//EN"
 "http://www.w3.org/TR/2001/REC-SVG-20010904/DTD/svg10.dtd">
<svg version="1.0" xmlns="http://www.w3.org/2000/svg"
 width="248.000000pt" height="248.000000pt" viewBox="0 0 248.000000 248.000000"
 preserveAspectRatio="xMidYMid meet">
<metadata>
Created by potrace 1.10, written by Peter Selinger 2001-2011
</metadata>
<g transform="translate(0.000000,248.000000) scale(0.100000,-0.100000)"
fill="#000000" stroke="none">
<path d="M620 2246 c-7 -9 -25 -42 -41 -73 -15 -32 -36 -71 -46 -88 -63 -106
-105 -180 -137 -243 -20 -40 -78 -137 -128 -215 -153 -239 -174 -292 -127
-318 34 -18 62 2 98 72 19 35 43 78 55 94 50 70 158 248 211 349 31 60 67 125
79 145 13 20 35 57 50 84 15 26 30 45 34 43 5 -3 44 -51 87 -107 163 -209 351
-407 433 -456 40 -24 44 -24 67 -9 38 25 32 58 -17 98 -119 93 -361 364 -513
577 -43 60 -80 76 -105 47z"/>
<path d="M616 1778 c-13 -18 -16 -53 -16 -171 0 -109 -3 -149 -12 -151 -7 -2
-56 -12 -108 -21 -52 -10 -103 -25 -112 -33 -21 -17 -23 -53 -6 -70 22 -22 58
-18 333 38 50 10 118 22 153 26 l62 7 0 -69 c0 -38 -5 -138 -11 -221 -13 -166
-9 -183 37 -183 51 0 68 75 80 348 8 171 -1 218 -43 228 -24 6 -206 -10 -245
-22 -17 -5 -18 6 -18 133 0 152 -9 183 -55 183 -13 0 -31 -10 -39 -22z"/>
</g>
</svg>
