<?xml version="1.0" standalone="no"?>
<!DOCTYPE svg PUBLIC "-//W3C//DTD SVG 20010904//EN"
 "http://www.w3.org/TR/2001/REC-SVG-20010904/DTD/svg10.dtd">
<svg version="1.0" xmlns="http://www.w3.org/2000/svg"
 width="248.000000pt" height="248.000000pt" viewBox="0 0 248.000000 248.000000"
 preserveAspectRatio="xMidYMid meet">
<metadata>
Created by potrace 1.10, written by Peter Selinger 2001-2011
</metadata>
<g transform="translate(0.000000,248.000000) scale(0.100000,-0.100000)"
fill="#000000" stroke="none">
<path d="M1430 2295 c-11 -13 -11 -26 -2 -66 7 -28 12 -84 12 -124 0 -61 -3
-75 -17 -79 -42 -13 -232 -24 -313 -19 -97 6 -120 -2 -120 -42 0 -46 18 -50
242 -50 l208 1 -5 -76 c-11 -150 -14 -160 -39 -160 -12 0 -117 -16 -232 -35
-115 -19 -225 -35 -244 -35 -60 0 -79 -43 -42 -91 16 -21 36 -107 57 -248 4
-24 16 -52 27 -63 17 -17 28 -19 101 -13 45 4 96 10 112 15 17 5 63 12 103 15
l72 7 0 -28 c0 -40 -18 -95 -85 -264 -64 -163 -75 -184 -156 -290 -76 -101
-138 -156 -216 -191 -61 -28 -64 -31 -61 -62 4 -46 37 -55 109 -28 114 43 282
229 362 401 61 132 133 328 147 403 10 55 16 68 34 72 31 7 357 35 408 35 60
0 71 14 161 195 40 83 81 163 90 179 12 22 13 34 6 48 -10 18 -48 39 -59 33
-3 -1 -63 -6 -135 -9 -71 -4 -159 -11 -195 -17 -36 -5 -103 -10 -149 -12 l-85
-2 3 105 c1 58 4 112 6 120 5 15 86 30 374 65 62 8 119 19 127 26 19 15 18 53
-1 69 -20 16 -148 8 -337 -21 -75 -12 -143 -19 -152 -16 -13 5 -16 24 -16 110
0 90 -3 108 -21 131 -23 29 -60 34 -79 11z m580 -670 c0 -19 -116 -235 -129
-240 -18 -7 -391 -38 -396 -33 -1 2 5 55 14 118 20 132 13 126 146 129 39 1
113 8 165 15 112 14 200 19 200 11z m-601 -72 c0 -16 -8 -71 -17 -123 l-17
-95 -80 -7 c-44 -4 -117 -15 -163 -24 -49 -10 -86 -14 -91 -8 -9 10 -46 212
-40 218 5 5 353 63 387 65 18 1 22 -4 21 -26z"/>
<path d="M767 2269 c-22 -13 -43 -54 -50 -101 -5 -33 -43 -119 -172 -393 -57
-120 -209 -338 -310 -445 -52 -55 -95 -109 -95 -120 0 -24 26 -50 50 -50 26 0
118 87 201 192 62 77 74 87 82 72 29 -51 16 -660 -20 -904 -26 -182 -27 -199
-7 -221 21 -24 46 -24 67 -1 40 45 70 423 65 847 -3 297 -4 323 -23 364 l-21
45 51 85 c48 80 188 378 235 499 24 63 26 105 4 126 -18 18 -32 20 -57 5z"/>
</g>
</svg>
