<?xml version="1.0" standalone="no"?>
<!DOCTYPE svg PUBLIC "-//W3C//DTD SVG 20010904//EN"
 "http://www.w3.org/TR/2001/REC-SVG-20010904/DTD/svg10.dtd">
<svg version="1.0" xmlns="http://www.w3.org/2000/svg"
 width="248.000000pt" height="248.000000pt" viewBox="0 0 248.000000 248.000000"
 preserveAspectRatio="xMidYMid meet">
<metadata>
Created by potrace 1.10, written by Peter Selinger 2001-2011
</metadata>
<g transform="translate(0.000000,248.000000) scale(0.100000,-0.100000)"
fill="#000000" stroke="none">
<path d="M767 2269 c-22 -13 -43 -54 -50 -101 -5 -33 -43 -119 -172 -393 -57
-120 -209 -338 -310 -445 -52 -55 -95 -109 -95 -120 0 -24 26 -50 50 -50 38 0
173 144 282 300 88 127 165 268 246 445 129 287 141 325 106 359 -18 18 -32
20 -57 5z"/>
</g>
</svg>
