<?xml version="1.0" standalone="no"?>
<!DOCTYPE svg PUBLIC "-//W3C//DTD SVG 20010904//EN"
 "http://www.w3.org/TR/2001/REC-SVG-20010904/DTD/svg10.dtd">
<svg version="1.0" xmlns="http://www.w3.org/2000/svg"
 width="248.000000pt" height="248.000000pt" viewBox="0 0 248.000000 248.000000"
 preserveAspectRatio="xMidYMid meet">
<metadata>
Created by potrace 1.10, written by Peter Selinger 2001-2011
</metadata>
<g transform="translate(0.000000,248.000000) scale(0.100000,-0.100000)"
fill="#000000" stroke="none">
<path d="M637 2220 c-120 -171 -267 -353 -382 -474 -72 -75 -134 -145 -139
-155 -16 -37 15 -67 86 -80 68 -14 248 -69 260 -80 12 -10 -260 -331 -318
-374 -27 -21 -32 -58 -9 -77 27 -23 87 -13 240 38 229 77 264 91 343 130 114
56 142 90 106 126 -24 24 -46 20 -141 -29 -67 -35 -305 -125 -329 -125 -3 0
36 48 86 108 49 59 150 183 222 276 73 93 159 199 190 235 32 36 58 75 58 87
0 27 -19 44 -51 44 -30 0 -79 -51 -223 -237 -48 -62 -92 -113 -97 -113 -17 0
-269 82 -269 87 0 3 43 50 95 105 52 55 122 137 155 181 33 45 75 100 93 122
36 44 122 167 138 197 15 27 -13 68 -46 68 -19 0 -35 -14 -68 -60z"/>
</g>
</svg>
