<?xml version="1.0" standalone="no"?>
<!DOCTYPE svg PUBLIC "-//W3C//DTD SVG 20010904//EN"
 "http://www.w3.org/TR/2001/REC-SVG-20010904/DTD/svg10.dtd">
<svg version="1.0" xmlns="http://www.w3.org/2000/svg"
 width="248.000000pt" height="248.000000pt" viewBox="0 0 248.000000 248.000000"
 preserveAspectRatio="xMidYMid meet">
<metadata>
Created by potrace 1.10, written by Peter Selinger 2001-2011
</metadata>
<g transform="translate(0.000000,248.000000) scale(0.100000,-0.100000)"
fill="#000000" stroke="none">
<path d="M786 2178 c-9 -12 -16 -27 -16 -33 0 -11 -97 -157 -145 -219 -88
-113 -205 -246 -351 -402 -93 -97 -164 -181 -164 -192 0 -24 30 -52 56 -52 11
0 72 55 152 138 125 129 133 135 128 102 -26 -175 -52 -1263 -32 -1310 8 -19
19 -25 41 -25 57 0 58 6 67 573 5 321 13 573 23 673 8 88 12 178 9 199 -6 37
-3 43 48 102 146 169 269 353 270 407 2 58 -55 84 -86 39z"/>
<path d="M1965 2049 c-137 -15 -315 -39 -440 -59 -135 -21 -434 -66 -510 -76
-27 -3 -60 -13 -72 -20 -29 -18 -30 -58 -2 -78 23 -16 21 -16 214 14 72 11
193 29 270 40 77 11 197 29 267 39 162 25 386 46 394 38 4 -3 1 -102 -5 -219
-21 -386 -30 -628 -41 -1028 -6 -217 -13 -396 -15 -399 -3 -2 -27 6 -54 18
-68 29 -118 28 -132 -3 -18 -38 3 -60 83 -91 40 -15 82 -34 93 -42 11 -7 31
-13 46 -13 68 0 75 53 94 715 8 308 20 612 25 675 13 154 17 397 6 438 -6 25
-17 37 -42 48 -37 15 -59 16 -179 3z"/>
<path d="M1525 1625 c-200 -27 -467 -74 -481 -86 -21 -17 -17 -56 8 -73 25
-18 29 -17 248 20 80 13 200 31 267 39 141 17 163 26 163 71 0 49 -24 52 -205
29z"/>
<path d="M1630 1299 c-41 -4 -136 -12 -211 -17 -75 -6 -166 -18 -203 -26 -37
-9 -98 -16 -135 -16 -100 0 -105 -8 -92 -147 5 -59 13 -170 17 -246 6 -126 9
-140 28 -151 17 -11 70 -12 261 -5 309 11 444 23 463 42 9 10 19 62 28 158 8
79 19 192 25 250 12 118 7 143 -37 159 -27 11 -32 11 -144 -1z m77 -136 c-3
-21 -11 -103 -17 -183 -6 -80 -16 -149 -21 -155 -11 -11 -225 -23 -421 -24
-149 -1 -134 -19 -143 164 -3 66 -8 129 -11 140 -5 19 4 22 118 42 68 12 164
25 213 28 50 4 119 10 155 14 36 4 80 9 99 9 33 2 33 2 28 -35z"/>
</g>
</svg>
