<?xml version="1.0" standalone="no"?>
<!DOCTYPE svg PUBLIC "-//W3C//DTD SVG 20010904//EN"
 "http://www.w3.org/TR/2001/REC-SVG-20010904/DTD/svg10.dtd">
<svg version="1.0" xmlns="http://www.w3.org/2000/svg"
 width="248.000000pt" height="248.000000pt" viewBox="0 0 248.000000 248.000000"
 preserveAspectRatio="xMidYMid meet">
<metadata>
Created by potrace 1.10, written by Peter Selinger 2001-2011
</metadata>
<g transform="translate(0.000000,248.000000) scale(0.100000,-0.100000)"
fill="#000000" stroke="none">
<path d="M1226 2378 c-14 -19 -16 -65 -16 -305 0 -157 4 -293 10 -307 12 -33
55 -45 78 -22 14 14 18 42 20 156 l4 139 31 6 c18 2 87 9 154 13 73 5 128 14
137 22 24 19 20 67 -6 81 -21 11 -149 8 -270 -8 l-48 -6 0 104 c0 116 -12 149
-55 149 -13 0 -31 -10 -39 -22z"/>
<path d="M860 2095 c-10 -12 -10 -53 0 -202 7 -104 17 -194 23 -200 24 -31 76
-6 91 43 4 12 0 93 -9 179 -16 168 -25 195 -70 195 -13 0 -28 -7 -35 -15z"/>
</g>
</svg>
