<?xml version="1.0" standalone="no"?>
<!DOCTYPE svg PUBLIC "-//W3C//DTD SVG 20010904//EN"
 "http://www.w3.org/TR/2001/REC-SVG-20010904/DTD/svg10.dtd">
<svg version="1.0" xmlns="http://www.w3.org/2000/svg"
 width="248.000000pt" height="248.000000pt" viewBox="0 0 248.000000 248.000000"
 preserveAspectRatio="xMidYMid meet">
<metadata>
Created by potrace 1.10, written by Peter Selinger 2001-2011
</metadata>
<g transform="translate(0.000000,248.000000) scale(0.100000,-0.100000)"
fill="#000000" stroke="none">
<path d="M1737 2278 c-8 -13 -20 -44 -27 -70 -7 -26 -18 -52 -24 -57 -10 -8
-131 -22 -426 -51 -52 -5 -150 -15 -217 -21 -68 -7 -125 -10 -128 -7 -3 3 -12
31 -21 64 -17 67 -37 94 -69 94 -35 0 -49 -24 -40 -73 3 -23 9 -56 12 -73 l5
-30 -99 -17 c-54 -9 -127 -19 -163 -23 -36 -3 -75 -13 -87 -20 -31 -19 -30
-59 1 -79 27 -18 97 -15 216 10 36 7 86 16 111 19 l46 7 13 -58 c15 -61 38
-93 68 -93 40 0 53 47 32 119 -5 19 -9 36 -7 37 3 4 149 21 272 33 61 6 181
18 268 27 86 9 160 14 163 11 3 -3 -6 -31 -20 -63 -38 -83 -32 -124 19 -124
31 0 58 34 96 122 19 43 41 80 49 83 8 2 74 9 145 15 146 12 178 25 173 68 -5
42 -37 51 -153 41 -55 -5 -111 -11 -124 -14 -20 -5 -22 -3 -16 12 15 36 18
103 5 118 -19 22 -57 18 -73 -7z"/>
</g>
</svg>
