<?xml version="1.0" standalone="no"?>
<!DOCTYPE svg PUBLIC "-//W3C//DTD SVG 20010904//EN"
 "http://www.w3.org/TR/2001/REC-SVG-20010904/DTD/svg10.dtd">
<svg version="1.0" xmlns="http://www.w3.org/2000/svg"
 width="248.000000pt" height="248.000000pt" viewBox="0 0 248.000000 248.000000"
 preserveAspectRatio="xMidYMid meet">
<metadata>
Created by potrace 1.10, written by Peter Selinger 2001-2011
</metadata>
<g transform="translate(0.000000,248.000000) scale(0.100000,-0.100000)"
fill="#000000" stroke="none">
<path d="M2000 2174 c-90 -8 -277 -27 -395 -40 -71 -7 -179 -18 -240 -24 -60
-5 -157 -15 -215 -20 -58 -6 -152 -15 -210 -20 -58 -6 -154 -19 -215 -29 -60
-11 -141 -23 -180 -26 -38 -4 -80 -13 -92 -21 -31 -19 -30 -59 1 -79 27 -18
98 -15 216 10 82 17 204 31 540 64 58 6 197 20 310 31 358 36 394 39 465 46
80 7 115 24 115 58 0 39 -34 55 -100 50z"/>
</g>
</svg>
