<?xml version="1.0" standalone="no"?>
<!DOCTYPE svg PUBLIC "-//W3C//DTD SVG 20010904//EN"
 "http://www.w3.org/TR/2001/REC-SVG-20010904/DTD/svg10.dtd">
<svg version="1.0" xmlns="http://www.w3.org/2000/svg"
 width="248.000000pt" height="248.000000pt" viewBox="0 0 248.000000 248.000000"
 preserveAspectRatio="xMidYMid meet">
<metadata>
Created by potrace 1.10, written by Peter Selinger 2001-2011
</metadata>
<g transform="translate(0.000000,248.000000) scale(0.100000,-0.100000)"
fill="#000000" stroke="none">
<path d="M1186 2378 c-12 -17 -16 -50 -16 -140 0 -65 -4 -119 -10 -123 -10 -6
-74 -15 -290 -40 -277 -31 -333 -42 -353 -67 -16 -20 -18 -31 -11 -83 5 -33 9
-170 9 -305 -1 -208 -4 -264 -23 -372 -12 -70 -27 -158 -32 -195 -19 -144 -63
-354 -102 -486 -45 -156 -64 -203 -119 -299 -44 -75 -49 -112 -19 -128 31 -16
57 -4 89 43 127 185 217 541 311 1227 13 87 9 451 -5 501 -8 30 -23 26 230 54
202 23 276 33 325 44 25 6 67 11 94 11 27 0 90 6 140 14 50 8 159 20 241 26
393 29 455 42 455 94 0 46 -19 51 -158 38 -70 -7 -192 -17 -272 -22 -80 -6
-184 -17 -231 -25 -47 -8 -102 -15 -122 -15 l-37 0 0 113 c0 124 -12 157 -55
157 -13 0 -31 -10 -39 -22z"/>
<path d="M1454 1905 c-11 -16 -18 -57 -21 -124 -7 -113 1 -105 -103 -120 -36
-6 -92 -15 -125 -20 -98 -18 -91 -24 -99 91 -7 112 -22 148 -60 148 -44 0 -51
-23 -48 -154 l4 -121 -154 -29 c-173 -32 -201 -44 -196 -84 6 -49 37 -54 173
-27 66 14 130 27 143 30 l23 6 -2 -126 c-2 -103 -6 -126 -18 -129 -32 -8 -188
-35 -259 -45 -83 -11 -104 -23 -100 -60 5 -45 38 -52 166 -36 62 8 117 17 122
20 5 3 45 10 87 16 43 5 132 16 198 24 66 8 149 19 185 25 36 5 151 22 255 36
105 14 195 31 202 37 17 17 79 211 98 309 20 99 12 146 -26 165 -21 10 -51 8
-170 -12 -79 -14 -154 -27 -167 -30 l-24 -6 3 104 c4 114 -4 137 -47 137 -14
0 -30 -10 -40 -25z m372 -312 c-10 -55 -67 -232 -77 -239 -10 -6 -192 -34
-222 -34 -18 0 -19 5 -12 113 10 148 12 154 72 162 26 4 77 12 113 20 36 7 80
13 99 14 33 1 33 1 27 -36z m-410 -65 c-3 -24 -8 -84 -12 -135 l-6 -91 -62
-10 c-33 -6 -90 -13 -126 -17 -36 -3 -77 -8 -92 -11 l-28 -6 7 129 c3 70 7
129 8 131 1 1 35 7 76 12 41 6 106 17 144 24 104 20 98 22 91 -26z"/>
<path d="M1306 1038 c-16 -27 -24 -119 -36 -423 -12 -335 1 -384 113 -421 99
-33 508 -3 666 49 51 17 61 45 61 168 0 111 -6 129 -47 129 -35 0 -55 -42 -61
-126 -3 -41 -8 -76 -11 -79 -4 -2 -63 -13 -132 -24 -147 -25 -434 -30 -461 -8
-25 20 -28 52 -21 245 5 151 9 182 21 182 8 0 92 38 187 85 189 93 265 149
265 194 0 62 -40 66 -112 11 -48 -37 -321 -180 -342 -180 -5 0 -6 37 -2 86 6
70 4 90 -9 110 -20 31 -60 32 -79 2z"/>
<path d="M636 998 c-13 -21 -21 -207 -30 -696 -1 -82 12 -102 65 -102 32 0
320 144 332 166 14 25 -1 63 -27 70 -25 6 -124 -31 -185 -71 -20 -13 -47 -26
-60 -30 -24 -7 -24 -7 -17 46 3 30 9 120 13 201 l6 147 51 10 c28 5 128 21
221 36 186 29 218 41 213 83 -5 43 -39 53 -123 36 -38 -7 -119 -20 -180 -29
-60 -8 -127 -18 -147 -21 l-38 -7 0 69 c0 79 -17 114 -55 114 -15 0 -30 -9
-39 -22z"/>
</g>
</svg>
