<?xml version="1.0" standalone="no"?>
<!DOCTYPE svg PUBLIC "-//W3C//DTD SVG 20010904//EN"
 "http://www.w3.org/TR/2001/REC-SVG-20010904/DTD/svg10.dtd">
<svg version="1.0" xmlns="http://www.w3.org/2000/svg"
 width="248.000000pt" height="248.000000pt" viewBox="0 0 248.000000 248.000000"
 preserveAspectRatio="xMidYMid meet">
<metadata>
Created by potrace 1.10, written by Peter Selinger 2001-2011
</metadata>
<g transform="translate(0.000000,248.000000) scale(0.100000,-0.100000)"
fill="#000000" stroke="none">
<path d="M1186 2378 c-12 -17 -16 -50 -16 -140 0 -64 -4 -119 -9 -123 -11 -6
-101 -19 -291 -40 -277 -31 -333 -42 -353 -67 -16 -20 -18 -31 -11 -78 5 -30
9 -167 9 -305 -1 -214 -4 -268 -23 -377 -12 -70 -27 -158 -32 -195 -19 -144
-63 -354 -102 -486 -45 -156 -64 -203 -119 -299 -44 -75 -49 -112 -19 -128 31
-17 57 -3 91 46 126 183 214 533 310 1224 11 86 7 433 -6 496 l-7 31 54 7 c29
4 112 13 183 21 185 20 273 32 325 44 25 6 67 11 94 11 27 0 90 6 140 14 50 8
159 20 241 26 400 30 460 43 453 97 -5 44 -25 48 -160 35 -68 -7 -188 -17
-268 -22 -80 -6 -184 -17 -231 -25 -47 -8 -102 -15 -122 -15 l-37 0 0 113 c0
124 -12 157 -55 157 -13 0 -31 -10 -39 -22z"/>
</g>
</svg>
