<?xml version="1.0" standalone="no"?>
<!DOCTYPE svg PUBLIC "-//W3C//DTD SVG 20010904//EN"
 "http://www.w3.org/TR/2001/REC-SVG-20010904/DTD/svg10.dtd">
<svg version="1.0" xmlns="http://www.w3.org/2000/svg"
 width="248.000000pt" height="248.000000pt" viewBox="0 0 248.000000 248.000000"
 preserveAspectRatio="xMidYMid meet">
<metadata>
Created by potrace 1.10, written by Peter Selinger 2001-2011
</metadata>
<g transform="translate(0.000000,248.000000) scale(0.100000,-0.100000)"
fill="#000000" stroke="none">
<path d="M1186 2378 c-12 -17 -16 -50 -16 -140 0 -64 -4 -119 -9 -123 -11 -6
-101 -19 -291 -40 -277 -31 -333 -42 -353 -67 -16 -20 -18 -31 -11 -78 5 -30
9 -167 9 -305 -1 -214 -4 -268 -23 -377 -12 -70 -27 -158 -32 -195 -19 -144
-63 -354 -102 -486 -45 -156 -64 -203 -119 -299 -44 -75 -49 -112 -19 -128 31
-17 57 -3 91 46 126 183 214 533 310 1224 11 86 7 433 -6 496 l-7 31 54 7 c29
4 112 13 183 21 185 20 273 32 325 44 25 6 67 11 94 11 27 0 90 6 140 14 50 8
159 20 241 26 400 30 460 43 453 97 -5 44 -25 48 -160 35 -68 -7 -188 -17
-268 -22 -80 -6 -184 -17 -231 -25 -47 -8 -102 -15 -122 -15 l-37 0 0 113 c0
124 -12 157 -55 157 -13 0 -31 -10 -39 -22z"/>
<path d="M1665 1716 c-104 -19 -269 -46 -365 -60 -269 -42 -602 -107 -628
-123 -31 -19 -27 -63 8 -80 21 -10 58 -5 221 27 108 22 221 42 250 45 30 4 86
13 124 20 39 8 108 19 155 25 47 6 105 15 130 20 108 21 261 43 266 37 7 -7
-6 -65 -42 -185 -20 -66 -30 -85 -49 -92 -13 -5 -81 -16 -152 -24 -70 -9 -157
-20 -193 -26 -36 -6 -117 -17 -180 -25 -163 -20 -253 -33 -350 -49 -47 -9
-116 -20 -153 -25 -76 -11 -97 -23 -97 -56 0 -53 62 -61 230 -30 80 14 270 41
460 66 47 6 110 15 140 20 30 5 125 18 210 30 85 12 162 25 171 30 18 9 80
193 104 309 16 77 13 141 -8 159 -25 20 -69 18 -252 -13z"/>
</g>
</svg>
