<?xml version="1.0" standalone="no"?>
<!DOCTYPE svg PUBLIC "-//W3C//DTD SVG 20010904//EN"
 "http://www.w3.org/TR/2001/REC-SVG-20010904/DTD/svg10.dtd">
<svg version="1.0" xmlns="http://www.w3.org/2000/svg"
 width="248.000000pt" height="248.000000pt" viewBox="0 0 248.000000 248.000000"
 preserveAspectRatio="xMidYMid meet">
<metadata>
Created by potrace 1.10, written by Peter Selinger 2001-2011
</metadata>
<g transform="translate(0.000000,248.000000) scale(0.100000,-0.100000)"
fill="#000000" stroke="none">
<path d="M1132 2382 c-15 -15 -20 -42 -26 -142 -4 -68 -8 -125 -10 -127 -1 -2
-70 -12 -152 -23 -82 -11 -231 -34 -331 -50 -101 -17 -194 -30 -207 -30 -46 0
-52 -25 -49 -191 2 -94 7 -157 14 -165 17 -21 53 -17 75 7 16 18 19 37 18 135
0 108 1 115 20 119 94 20 468 74 591 86 50 4 133 15 185 23 52 9 165 20 250
25 85 5 241 15 347 22 106 7 195 10 199 6 4 -3 -30 -45 -75 -92 -97 -103 -104
-135 -37 -159 14 -5 35 11 90 67 105 105 186 204 186 225 0 38 -24 54 -86 58
-32 2 -72 6 -88 9 -15 3 -108 -2 -205 -9 -97 -8 -231 -17 -297 -21 -67 -3
-159 -10 -205 -15 -148 -18 -134 -20 -131 25 1 22 5 74 8 117 5 68 4 78 -15
97 -26 26 -45 27 -69 3z"/>
</g>
</svg>
