<?xml version="1.0" standalone="no"?>
<!DOCTYPE svg PUBLIC "-//W3C//DTD SVG 20010904//EN"
 "http://www.w3.org/TR/2001/REC-SVG-20010904/DTD/svg10.dtd">
<svg version="1.0" xmlns="http://www.w3.org/2000/svg"
 width="248.000000pt" height="248.000000pt" viewBox="0 0 248.000000 248.000000"
 preserveAspectRatio="xMidYMid meet">
<metadata>
Created by potrace 1.10, written by Peter Selinger 2001-2011
</metadata>
<g transform="translate(0.000000,248.000000) scale(0.100000,-0.100000)"
fill="#000000" stroke="none">
<path d="M1132 2382 c-15 -15 -20 -42 -26 -142 -4 -68 -8 -125 -10 -127 -1 -2
-70 -12 -152 -23 -82 -11 -231 -34 -331 -50 -101 -17 -194 -30 -207 -30 -46 0
-52 -25 -49 -191 2 -94 7 -157 14 -165 17 -21 53 -17 75 7 16 18 19 37 18 135
0 108 1 115 20 119 94 20 468 74 591 86 50 4 133 15 185 23 52 9 165 20 250
25 85 5 241 15 347 22 106 7 195 10 199 6 4 -3 -30 -45 -75 -92 -97 -103 -104
-135 -37 -159 14 -5 35 11 90 67 105 105 186 204 186 225 0 38 -24 54 -86 58
-32 2 -72 6 -88 9 -15 3 -108 -2 -205 -9 -97 -8 -231 -17 -297 -21 -67 -3
-159 -10 -205 -15 -148 -18 -134 -20 -131 25 1 22 5 74 8 117 5 68 4 78 -15
97 -26 26 -45 27 -69 3z"/>
<path d="M675 1690 c-13 -14 -20 -49 -28 -135 l-11 -115 -47 0 c-26 0 -83 7
-128 15 -87 17 -114 12 -126 -25 -8 -26 11 -59 38 -64 12 -3 56 -10 97 -16 41
-7 97 -16 124 -22 l48 -11 -6 -71 c-3 -39 -6 -83 -6 -98 0 -25 -3 -27 -29 -22
-25 5 -34 -1 -82 -56 -30 -34 -99 -100 -154 -147 -55 -47 -104 -92 -108 -100
-12 -20 2 -53 29 -65 33 -15 70 12 219 155 66 64 120 117 120 117 0 0 -3 -42
-7 -92 -14 -177 -28 -444 -32 -612 -4 -167 -4 -169 20 -192 28 -29 35 -29 63
-6 21 16 22 27 26 232 5 201 13 362 35 705 5 77 12 212 15 300 3 88 8 195 11
238 6 85 -2 107 -41 107 -12 0 -30 -9 -40 -20z"/>
</g>
</svg>
