<?xml version="1.0" standalone="no"?>
<!DOCTYPE svg PUBLIC "-//W3C//DTD SVG 20010904//EN"
 "http://www.w3.org/TR/2001/REC-SVG-20010904/DTD/svg10.dtd">
<svg version="1.0" xmlns="http://www.w3.org/2000/svg"
 width="248.000000pt" height="248.000000pt" viewBox="0 0 248.000000 248.000000"
 preserveAspectRatio="xMidYMid meet">
<metadata>
Created by potrace 1.10, written by Peter Selinger 2001-2011
</metadata>
<g transform="translate(0.000000,248.000000) scale(0.100000,-0.100000)"
fill="#000000" stroke="none">
<path d="M702 2218 c-21 -21 -13 -55 21 -84 17 -15 72 -63 120 -108 98 -90
121 -106 149 -98 22 5 37 37 31 63 -5 16 -147 152 -221 212 -37 28 -80 35
-100 15z"/>
<path d="M975 1779 c-38 -11 -104 -31 -145 -44 -41 -14 -115 -33 -165 -44
-159 -33 -359 -83 -385 -95 -35 -17 -35 -66 1 -83 21 -10 45 -8 150 17 68 17
176 41 239 55 63 14 148 36 188 50 68 24 102 30 102 21 0 -9 -88 -135 -130
-187 -88 -105 -454 -461 -608 -588 -39 -33 -52 -51 -52 -71 0 -64 48 -65 127
-3 68 55 277 248 370 342 34 36 65 62 68 59 3 -3 5 -229 5 -502 0 -327 3 -504
10 -516 11 -20 45 -26 68 -12 28 19 32 89 32 615 l0 539 59 71 c89 110 221
315 221 346 0 56 -37 63 -155 30z"/>
</g>
</svg>
