<?xml version="1.0" standalone="no"?>
<!DOCTYPE svg PUBLIC "-//W3C//DTD SVG 20010904//EN"
 "http://www.w3.org/TR/2001/REC-SVG-20010904/DTD/svg10.dtd">
<svg version="1.0" xmlns="http://www.w3.org/2000/svg"
 width="248.000000pt" height="248.000000pt" viewBox="0 0 248.000000 248.000000"
 preserveAspectRatio="xMidYMid meet">
<metadata>
Created by potrace 1.10, written by Peter Selinger 2001-2011
</metadata>
<g transform="translate(0.000000,248.000000) scale(0.100000,-0.100000)"
fill="#000000" stroke="none">
<path d="M767 2338 c-8 -13 -38 -67 -67 -122 -52 -98 -101 -179 -151 -246 -14
-19 -57 -78 -95 -130 -39 -52 -81 -111 -94 -130 -36 -52 -137 -175 -207 -251
-63 -68 -76 -102 -51 -127 20 -20 56 -13 92 19 38 33 215 246 257 308 l25 39
-3 -787 c-3 -640 -2 -791 9 -811 17 -32 72 -40 86 -13 6 11 13 348 17 828 3
446 8 839 9 875 2 61 6 70 64 155 93 139 184 305 190 347 3 23 0 44 -8 53 -19
22 -57 18 -73 -7z"/>
<path d="M1800 1939 c-36 -4 -153 -13 -260 -19 -442 -27 -543 -38 -569 -65
-13 -13 -16 -42 -16 -168 0 -157 11 -474 21 -585 8 -87 43 -122 88 -89 16 12
18 30 17 165 -1 84 -4 158 -7 166 -3 8 2 16 13 20 54 16 399 39 776 52 l189 6
-4 -159 c-3 -176 2 -197 51 -191 38 4 49 39 56 163 3 61 13 223 22 360 19 292
16 320 -32 341 -38 15 -230 18 -345 3z m276 -226 c-4 -71 -9 -141 -12 -158
l-5 -30 -177 -3 c-274 -4 -604 -25 -763 -48 -46 -6 -46 -6 -53 26 -10 54 -7
268 5 275 11 7 104 15 434 35 105 6 222 15 260 19 39 5 126 9 194 10 l124 1
-7 -127z"/>
</g>
</svg>
