<?xml version="1.0" standalone="no"?>
<!DOCTYPE svg PUBLIC "-//W3C//DTD SVG 20010904//EN"
 "http://www.w3.org/TR/2001/REC-SVG-20010904/DTD/svg10.dtd">
<svg version="1.0" xmlns="http://www.w3.org/2000/svg"
 width="248.000000pt" height="248.000000pt" viewBox="0 0 248.000000 248.000000"
 preserveAspectRatio="xMidYMid meet">
<metadata>
Created by potrace 1.10, written by Peter Selinger 2001-2011
</metadata>
<g transform="translate(0.000000,248.000000) scale(0.100000,-0.100000)"
fill="#000000" stroke="none">
<path d="M1440 2210 c-157 -4 -341 -12 -410 -19 -155 -14 -338 -47 -367 -67
-31 -19 -30 -59 1 -79 17 -11 26 -29 31 -58 4 -23 15 -87 25 -142 26 -139 41
-267 42 -352 0 -51 4 -76 15 -84 11 -10 52 -8 196 9 100 12 263 25 362 28 160
6 182 5 194 -10 20 -23 58 -20 76 7 27 41 116 315 136 419 11 56 31 145 44
199 28 108 24 142 -17 152 -13 4 -27 6 -33 5 -5 -1 -138 -5 -295 -8z m245
-100 c3 -5 -1 -38 -9 -72 -9 -35 -25 -106 -35 -158 -21 -100 -86 -306 -103
-327 -8 -10 -54 -13 -167 -13 -86 -1 -217 -6 -291 -12 -74 -6 -153 -11 -175
-12 l-40 -1 -11 110 c-6 61 -24 181 -39 267 -16 87 -26 160 -23 163 9 9 226
35 413 49 220 17 471 20 480 6z"/>
<path d="M242 908 c-14 -14 -16 -57 -3 -91 12 -30 37 -221 55 -409 8 -80 19
-144 26 -153 19 -23 63 -15 77 15 8 18 9 47 2 105 -50 444 -59 494 -90 532
-14 16 -51 17 -67 1z"/>
</g>
</svg>
