<?xml version="1.0" standalone="no"?>
<!DOCTYPE svg PUBLIC "-//W3C//DTD SVG 20010904//EN"
 "http://www.w3.org/TR/2001/REC-SVG-20010904/DTD/svg10.dtd">
<svg version="1.0" xmlns="http://www.w3.org/2000/svg"
 width="248.000000pt" height="248.000000pt" viewBox="0 0 248.000000 248.000000"
 preserveAspectRatio="xMidYMid meet">
<metadata>
Created by potrace 1.10, written by Peter Selinger 2001-2011
</metadata>
<g transform="translate(0.000000,248.000000) scale(0.100000,-0.100000)"
fill="#000000" stroke="none">
<path d="M1353 2229 c-20 -20 -15 -57 10 -73 12 -8 65 -31 117 -51 52 -20 116
-48 143 -62 57 -29 87 -27 103 6 23 46 6 61 -142 123 -148 63 -211 78 -231 57z"/>
<path d="M727 2208 c-10 -8 -26 -47 -37 -93 -23 -97 -166 -502 -221 -627 -56
-128 -70 -152 -223 -385 -36 -56 -69 -115 -72 -131 -7 -35 14 -55 52 -50 23 3
43 29 133 170 58 92 109 167 112 168 8 0 8 6 -2 -400 -4 -201 -13 -423 -19
-494 -8 -96 -8 -132 1 -142 14 -17 63 -18 77 -1 15 17 30 292 37 657 8 412 8
466 -6 503 -9 27 -7 40 11 82 53 122 183 492 215 612 26 97 25 117 -6 133 -23
13 -32 13 -52 -2z"/>
<path d="M2208 1910 c-15 -4 -67 -11 -115 -15 -169 -13 -389 -35 -487 -50 -54
-8 -164 -22 -245 -30 -293 -30 -392 -44 -429 -62 -40 -19 -53 -53 -31 -79 13
-16 23 -16 149 4 36 6 135 18 220 27 85 9 238 27 340 40 102 13 290 34 419 45
129 12 242 25 253 31 22 12 28 62 10 81 -13 12 -57 17 -84 8z"/>
<path d="M1705 1449 c-22 -6 -85 -14 -140 -19 -55 -5 -154 -14 -219 -20 -66
-6 -126 -16 -133 -22 -17 -14 -17 -53 2 -68 17 -14 96 -14 230 0 55 6 144 15
197 20 54 5 108 12 120 14 13 3 45 8 73 11 27 3 55 11 62 17 16 13 17 50 1 66
-14 14 -134 15 -193 1z"/>
<path d="M1665 1069 c-110 -14 -249 -30 -310 -33 -120 -8 -155 -21 -155 -60 0
-45 16 -48 182 -36 126 9 389 39 473 55 11 2 28 4 37 4 47 2 43 84 -4 93 -13
2 -113 -8 -223 -23z"/>
<path d="M1052 688 c-17 -17 -15 -44 8 -149 11 -50 27 -147 34 -215 15 -130
24 -154 61 -154 29 0 46 21 47 57 0 50 -21 226 -37 301 -8 40 -15 88 -15 106
0 19 -8 40 -18 49 -22 20 -63 22 -80 5z"/>
</g>
</svg>
