<?xml version="1.0" standalone="no"?>
<!DOCTYPE svg PUBLIC "-//W3C//DTD SVG 20010904//EN"
 "http://www.w3.org/TR/2001/REC-SVG-20010904/DTD/svg10.dtd">
<svg version="1.0" xmlns="http://www.w3.org/2000/svg"
 width="248.000000pt" height="248.000000pt" viewBox="0 0 248.000000 248.000000"
 preserveAspectRatio="xMidYMid meet">
<metadata>
Created by potrace 1.10, written by Peter Selinger 2001-2011
</metadata>
<g transform="translate(0.000000,248.000000) scale(0.100000,-0.100000)"
fill="#000000" stroke="none">
<path d="M1740 2183 c-14 -2 -99 -17 -190 -33 -91 -16 -192 -31 -225 -34 -33
-3 -85 -8 -115 -11 -30 -3 -98 -9 -150 -15 -193 -21 -302 -30 -348 -30 -56 0
-92 -21 -92 -55 0 -40 39 -58 108 -51 31 4 113 11 182 16 69 6 136 12 150 15
14 3 99 12 190 20 146 14 259 31 439 65 29 5 70 10 90 10 48 0 74 19 74 55 0
47 -34 61 -113 48z"/>
</g>
</svg>
