<?xml version="1.0" standalone="no"?>
<!DOCTYPE svg PUBLIC "-//W3C//DTD SVG 20010904//EN"
 "http://www.w3.org/TR/2001/REC-SVG-20010904/DTD/svg10.dtd">
<svg version="1.0" xmlns="http://www.w3.org/2000/svg"
 width="248.000000pt" height="248.000000pt" viewBox="0 0 248.000000 248.000000"
 preserveAspectRatio="xMidYMid meet">
<metadata>
Created by potrace 1.10, written by Peter Selinger 2001-2011
</metadata>
<g transform="translate(0.000000,248.000000) scale(0.100000,-0.100000)"
fill="#000000" stroke="none">
<path d="M1830 2385 c-10 -12 -11 -73 -6 -284 4 -148 4 -328 0 -399 l-7 -130
-101 -12 c-163 -19 -376 -58 -392 -71 -21 -18 -17 -57 9 -73 19 -13 34 -13
117 0 221 33 297 43 328 44 l32 0 -2 -662 c-3 -574 -1 -667 12 -693 21 -41 62
-46 86 -10 15 23 16 43 10 168 -4 78 -4 383 0 678 l7 536 96 17 c53 10 138 24
189 31 51 7 100 19 108 26 24 19 13 62 -19 77 -29 14 -62 10 -296 -32 l-73
-13 6 176 c4 97 3 272 -2 388 -7 184 -11 215 -27 233 -21 24 -57 26 -75 5z"/>
<path d="M691 2296 c-7 -8 -28 -46 -47 -83 -32 -64 -76 -139 -174 -298 -24
-38 -53 -88 -65 -110 -12 -22 -55 -98 -96 -170 -41 -71 -90 -159 -108 -195
-19 -36 -54 -96 -78 -133 -58 -91 -56 -147 4 -147 18 0 35 18 77 82 30 46 74
121 99 168 83 156 187 337 347 604 l83 138 18 -23 c9 -13 40 -66 68 -119 29
-52 78 -126 111 -165 33 -38 85 -104 116 -145 140 -184 172 -210 208 -174 26
26 18 59 -27 116 -24 29 -70 87 -103 129 -32 42 -82 104 -111 138 -29 33 -79
109 -113 169 -116 206 -172 263 -209 218z"/>
<path d="M742 1629 c-79 -21 -152 -43 -162 -49 -10 -5 -31 -10 -47 -10 -66 0
-98 -63 -48 -96 24 -15 31 -15 88 -1 34 8 70 18 80 22 15 7 17 -1 17 -89 0
-53 1 -99 3 -103 1 -5 -23 -14 -53 -21 -207 -47 -277 -66 -292 -80 -21 -17
-23 -53 -6 -70 15 -15 65 -16 104 -2 16 5 80 21 142 34 l112 24 -2 -445 -3
-444 -35 -19 c-55 -30 -228 -110 -238 -110 -16 0 -42 -36 -42 -57 0 -31 25
-46 64 -40 68 11 499 227 661 331 50 32 100 65 113 73 18 11 22 22 20 45 -4
37 -26 53 -59 45 -13 -4 -78 -41 -144 -82 -110 -70 -207 -125 -220 -125 -3 0
-5 193 -5 428 l0 428 121 24 c101 19 123 27 136 47 14 21 14 25 -1 48 -20 31
-49 32 -166 5 -47 -11 -88 -20 -92 -20 -5 0 -8 47 -8 105 l0 104 53 15 c28 8
71 20 95 26 50 13 71 44 53 79 -17 31 -70 27 -239 -20z"/>
<path d="M1000 1035 c-19 -23 -112 -239 -137 -318 -7 -24 24 -57 54 -57 27 0
55 40 79 115 9 28 25 66 35 85 48 92 61 154 37 178 -17 17 -53 15 -68 -3z"/>
<path d="M332 838 c-19 -19 -14 -55 12 -97 14 -21 31 -54 39 -72 8 -19 39 -65
69 -104 55 -71 85 -88 114 -65 24 21 16 59 -28 122 -24 34 -57 88 -74 120 -52
98 -97 131 -132 96z"/>
</g>
</svg>
