<?xml version="1.0" standalone="no"?>
<!DOCTYPE svg PUBLIC "-//W3C//DTD SVG 20010904//EN"
 "http://www.w3.org/TR/2001/REC-SVG-20010904/DTD/svg10.dtd">
<svg version="1.0" xmlns="http://www.w3.org/2000/svg"
 width="248.000000pt" height="248.000000pt" viewBox="0 0 248.000000 248.000000"
 preserveAspectRatio="xMidYMid meet">
<metadata>
Created by potrace 1.10, written by Peter Selinger 2001-2011
</metadata>
<g transform="translate(0.000000,248.000000) scale(0.100000,-0.100000)"
fill="#000000" stroke="none">
<path d="M767 2338 c-8 -13 -38 -67 -67 -122 -52 -98 -101 -179 -151 -246 -14
-19 -57 -78 -95 -130 -39 -52 -81 -111 -94 -130 -36 -52 -137 -175 -207 -251
-63 -68 -76 -102 -51 -127 20 -20 56 -13 92 19 38 33 215 246 257 308 l25 39
-3 -787 c-3 -640 -2 -791 9 -811 17 -32 72 -40 86 -13 6 11 13 348 17 828 3
446 8 839 9 875 2 61 6 70 64 155 93 139 184 305 190 347 3 23 0 44 -8 53 -19
22 -57 18 -73 -7z"/>
<path d="M1800 1939 c-36 -4 -153 -13 -260 -19 -442 -27 -543 -38 -569 -65
-13 -13 -16 -43 -15 -183 1 -250 19 -615 33 -639 23 -43 86 -37 93 9 2 13 -1
106 -5 208 -4 102 -9 262 -10 355 l-2 170 50 7 c85 12 611 47 823 55 l142 5 0
-53 c0 -30 -5 -105 -10 -167 -6 -62 -14 -199 -19 -305 -11 -218 -6 -242 44
-242 42 0 53 30 60 160 3 61 13 223 22 360 19 292 16 320 -32 341 -38 15 -230
18 -345 3z"/>
</g>
</svg>
