<?xml version="1.0" standalone="no"?>
<!DOCTYPE svg PUBLIC "-//W3C//DTD SVG 20010904//EN"
 "http://www.w3.org/TR/2001/REC-SVG-20010904/DTD/svg10.dtd">
<svg version="1.0" xmlns="http://www.w3.org/2000/svg"
 width="248.000000pt" height="248.000000pt" viewBox="0 0 248.000000 248.000000"
 preserveAspectRatio="xMidYMid meet">
<metadata>
Created by potrace 1.10, written by Peter Selinger 2001-2011
</metadata>
<g transform="translate(0.000000,248.000000) scale(0.100000,-0.100000)"
fill="#000000" stroke="none">
<path d="M1191 2401 c-15 -15 -20 -40 -25 -117 -4 -55 -9 -118 -12 -141 l-5
-41 -82 -11 c-117 -14 -306 -31 -358 -31 -53 0 -89 -22 -89 -55 0 -40 39 -58
108 -51 121 14 305 27 309 22 29 -28 -321 -333 -464 -405 -36 -18 -43 -26 -43
-50 0 -90 96 -58 300 100 85 66 246 219 277 264 12 16 23 28 26 25 2 -3 0 -77
-5 -165 -5 -88 -10 -177 -11 -198 -1 -29 4 -43 18 -53 54 -40 94 18 96 136 1
41 4 114 8 162 l6 86 110 -69 c181 -115 235 -145 335 -186 130 -55 297 -105
321 -98 23 7 36 51 22 74 -5 9 -70 36 -144 61 -142 47 -295 117 -382 173 -29
19 -96 62 -149 97 -54 34 -98 65 -98 70 0 4 34 10 75 13 67 6 194 26 354 57
29 5 70 10 90 10 21 0 45 6 55 13 24 18 24 66 0 84 -23 17 -61 13 -284 -27
-85 -15 -186 -31 -224 -35 l-69 -7 7 104 c4 56 9 117 12 135 4 23 1 36 -15 52
-26 26 -45 27 -70 2z"/>
<path d="M769 1424 c-10 -12 -15 -57 -19 -152 l-5 -136 -60 -17 c-76 -21 -309
-76 -356 -84 -21 -3 -42 -12 -49 -20 -19 -23 -8 -59 24 -73 25 -13 45 -10 195
25 91 22 167 39 169 37 2 -1 -22 -50 -53 -108 -65 -121 -150 -232 -252 -326
-76 -72 -84 -84 -72 -117 6 -17 16 -23 38 -23 68 0 281 231 362 392 22 43 42
78 45 78 4 0 4 -33 0 -72 -3 -40 -8 -145 -12 -233 -3 -88 -10 -187 -15 -220
-13 -88 -11 -113 11 -135 25 -25 45 -25 69 -1 19 19 27 76 36 261 2 47 7 151
11 233 4 81 8 147 10 147 2 0 33 -23 69 -50 113 -86 155 -97 174 -47 12 32 -3
53 -64 92 -72 46 -175 143 -175 165 0 13 18 21 86 35 103 22 141 47 130 89
-10 39 -40 46 -103 25 -59 -21 -100 -24 -105 -8 -2 6 0 54 4 107 7 86 6 100
-10 122 -23 30 -63 37 -83 14z"/>
<path d="M1935 1294 c-58 -21 -116 -34 -235 -49 -58 -8 -172 -23 -255 -34 -82
-11 -165 -21 -182 -21 -35 0 -73 -29 -73 -55 0 -8 9 -24 21 -36 16 -16 29 -19
57 -15 20 3 145 19 277 36 132 17 292 43 355 58 97 23 116 31 126 51 12 24 1
71 -17 71 -4 0 -13 2 -21 4 -7 3 -31 -2 -53 -10z"/>
</g>
</svg>
