<?xml version="1.0" standalone="no"?>
<!DOCTYPE svg PUBLIC "-//W3C//DTD SVG 20010904//EN"
 "http://www.w3.org/TR/2001/REC-SVG-20010904/DTD/svg10.dtd">
<svg version="1.0" xmlns="http://www.w3.org/2000/svg"
 width="248.000000pt" height="248.000000pt" viewBox="0 0 248.000000 248.000000"
 preserveAspectRatio="xMidYMid meet">
<metadata>
Created by potrace 1.10, written by Peter Selinger 2001-2011
</metadata>
<g transform="translate(0.000000,248.000000) scale(0.100000,-0.100000)"
fill="#000000" stroke="none">
<path d="M1191 2401 c-15 -15 -20 -40 -25 -117 -4 -55 -9 -118 -12 -141 l-5
-41 -82 -11 c-117 -14 -306 -31 -358 -31 -53 0 -89 -22 -89 -55 0 -40 39 -58
108 -51 121 14 305 27 309 22 29 -28 -321 -333 -464 -405 -36 -18 -43 -26 -43
-50 0 -90 96 -58 300 100 85 66 246 219 277 264 12 16 23 28 26 25 2 -3 0 -77
-5 -165 -5 -88 -10 -177 -11 -198 -1 -29 4 -43 18 -53 54 -40 94 18 96 136 1
41 4 114 8 162 l6 86 110 -69 c181 -115 235 -145 335 -186 130 -55 297 -105
321 -98 23 7 36 51 22 74 -5 9 -70 36 -144 61 -142 47 -295 117 -382 173 -29
19 -96 62 -149 97 -54 34 -98 65 -98 70 0 4 34 10 75 13 67 6 194 26 354 57
29 5 70 10 90 10 21 0 45 6 55 13 24 18 24 66 0 84 -23 17 -61 13 -284 -27
-85 -15 -186 -31 -224 -35 l-69 -7 7 104 c4 56 9 117 12 135 4 23 1 36 -15 52
-26 26 -45 27 -70 2z"/>
</g>
</svg>
