<?xml version="1.0" standalone="no"?>
<!DOCTYPE svg PUBLIC "-//W3C//DTD SVG 20010904//EN"
 "http://www.w3.org/TR/2001/REC-SVG-20010904/DTD/svg10.dtd">
<svg version="1.0" xmlns="http://www.w3.org/2000/svg"
 width="248.000000pt" height="248.000000pt" viewBox="0 0 248.000000 248.000000"
 preserveAspectRatio="xMidYMid meet">
<metadata>
Created by potrace 1.10, written by Peter Selinger 2001-2011
</metadata>
<g transform="translate(0.000000,248.000000) scale(0.100000,-0.100000)"
fill="#000000" stroke="none">
<path d="M727 2208 c-10 -8 -26 -47 -37 -93 -23 -97 -166 -502 -221 -627 -56
-128 -70 -152 -223 -385 -36 -56 -69 -115 -72 -131 -7 -35 14 -55 51 -50 23 2
45 31 137 173 142 219 189 311 268 525 122 331 185 536 174 565 -6 16 -35 35
-51 35 -5 0 -17 -6 -26 -12z"/>
</g>
</svg>
