<?xml version="1.0" standalone="no"?>
<!DOCTYPE svg PUBLIC "-//W3C//DTD SVG 20010904//EN"
 "http://www.w3.org/TR/2001/REC-SVG-20010904/DTD/svg10.dtd">
<svg version="1.0" xmlns="http://www.w3.org/2000/svg"
 width="248.000000pt" height="248.000000pt" viewBox="0 0 248.000000 248.000000"
 preserveAspectRatio="xMidYMid meet">
<metadata>
Created by potrace 1.10, written by Peter Selinger 2001-2011
</metadata>
<g transform="translate(0.000000,248.000000) scale(0.100000,-0.100000)"
fill="#000000" stroke="none">
<path d="M767 2338 c-8 -13 -38 -67 -67 -122 -52 -98 -101 -179 -151 -246 -14
-19 -57 -78 -95 -130 -39 -52 -81 -111 -94 -130 -36 -52 -137 -175 -207 -251
-63 -68 -76 -102 -51 -127 20 -20 56 -13 92 19 40 34 214 245 263 317 17 26
50 70 72 97 65 83 186 264 251 380 64 112 82 173 60 200 -19 22 -57 18 -73 -7z"/>
</g>
</svg>
