<?xml version="1.0" standalone="no"?>
<!DOCTYPE svg PUBLIC "-//W3C//DTD SVG 20010904//EN"
 "http://www.w3.org/TR/2001/REC-SVG-20010904/DTD/svg10.dtd">
<svg version="1.0" xmlns="http://www.w3.org/2000/svg"
 width="248.000000pt" height="248.000000pt" viewBox="0 0 248.000000 248.000000"
 preserveAspectRatio="xMidYMid meet">
<metadata>
Created by potrace 1.10, written by Peter Selinger 2001-2011
</metadata>
<g transform="translate(0.000000,248.000000) scale(0.100000,-0.100000)"
fill="#000000" stroke="none">
<path d="M690 2295 c-6 -8 -27 -45 -46 -82 -32 -64 -76 -139 -174 -298 -24
-38 -53 -88 -65 -110 -12 -22 -55 -98 -96 -170 -41 -71 -90 -159 -108 -195
-19 -36 -54 -96 -78 -133 -58 -91 -56 -147 4 -147 18 0 35 18 77 82 30 46 74
121 99 168 80 151 193 349 324 565 142 236 164 290 131 323 -16 16 -53 15 -68
-3z"/>
</g>
</svg>
