<?xml version="1.0" standalone="no"?>
<!DOCTYPE svg PUBLIC "-//W3C//DTD SVG 20010904//EN"
 "http://www.w3.org/TR/2001/REC-SVG-20010904/DTD/svg10.dtd">
<svg version="1.0" xmlns="http://www.w3.org/2000/svg"
 width="248.000000pt" height="248.000000pt" viewBox="0 0 248.000000 248.000000"
 preserveAspectRatio="xMidYMid meet">
<metadata>
Created by potrace 1.10, written by Peter Selinger 2001-2011
</metadata>
<g transform="translate(0.000000,248.000000) scale(0.100000,-0.100000)"
fill="#000000" stroke="none">
<path d="M1758 2338 c-11 -18 -13 -72 -8 -263 3 -132 4 -242 3 -244 -5 -8
-309 -51 -361 -51 -62 0 -116 -20 -131 -48 -13 -24 10 -352 34 -497 8 -49 15
-109 15 -132 0 -72 15 -77 244 -71 l193 6 7 -76 c3 -41 6 -242 6 -446 0 -324
2 -374 16 -394 11 -16 24 -22 42 -20 53 6 54 14 49 501 l-4 447 165 0 c140 0
168 3 184 17 18 16 60 141 97 288 45 181 53 405 16 461 -33 51 -72 57 -250 45
-88 -6 -172 -14 -186 -17 l-27 -6 -4 229 c-4 253 -11 285 -60 291 -19 2 -30
-3 -40 -20z m482 -685 c0 -60 -3 -118 -6 -129 -6 -24 -32 -28 -251 -41 l-113
-6 0 131 0 130 63 6 c95 9 145 12 230 14 l77 2 0 -107z m-480 -61 l0 -129
-175 -7 c-96 -3 -181 -9 -189 -12 -17 -7 -23 20 -29 142 l-5 81 172 25 c94 14
183 26 199 27 l27 1 0 -128z m450 -204 c0 -3 -35 -129 -52 -190 l-10 -38 -108
0 c-59 0 -122 -3 -139 -6 l-31 -6 0 110 0 110 98 7 c53 3 106 7 117 9 26 4
125 7 125 4z m-450 -132 l0 -103 -31 -7 c-17 -3 -95 -6 -174 -6 l-142 0 -11
78 c-18 117 -18 122 21 123 50 2 300 15 320 17 15 2 17 -9 17 -102z"/>
<path d="M702 2218 c-21 -21 -13 -55 21 -84 17 -15 72 -63 120 -108 98 -90
121 -106 149 -98 22 5 37 37 31 63 -5 16 -147 152 -221 212 -37 28 -80 35
-100 15z"/>
<path d="M975 1779 c-38 -11 -104 -31 -145 -44 -41 -14 -115 -33 -165 -44
-159 -33 -359 -83 -385 -95 -35 -17 -35 -66 1 -83 21 -10 45 -8 150 17 68 17
176 41 239 55 63 14 148 36 188 50 68 24 102 30 102 21 0 -9 -88 -135 -130
-187 -88 -105 -454 -461 -608 -588 -39 -33 -52 -51 -52 -71 0 -64 48 -65 127
-3 68 55 277 248 370 342 34 36 65 62 68 59 3 -3 5 -229 5 -502 0 -327 3 -504
10 -516 11 -20 45 -26 68 -12 28 18 32 88 32 552 l0 475 58 -61 c31 -33 76
-82 99 -107 31 -35 50 -47 71 -47 33 0 52 16 52 43 0 21 -75 112 -191 232
l-78 80 46 55 c78 94 223 320 223 349 0 56 -37 63 -155 30z"/>
</g>
</svg>
