<?xml version="1.0" standalone="no"?>
<!DOCTYPE svg PUBLIC "-//W3C//DTD SVG 20010904//EN"
 "http://www.w3.org/TR/2001/REC-SVG-20010904/DTD/svg10.dtd">
<svg version="1.0" xmlns="http://www.w3.org/2000/svg"
 width="248.000000pt" height="248.000000pt" viewBox="0 0 248.000000 248.000000"
 preserveAspectRatio="xMidYMid meet">
<metadata>
Created by potrace 1.10, written by Peter Selinger 2001-2011
</metadata>
<g transform="translate(0.000000,248.000000) scale(0.100000,-0.100000)"
fill="#000000" stroke="none">
<path d="M1965 2135 c-233 -42 -453 -71 -620 -84 -55 -4 -113 -14 -130 -22
l-30 -14 -7 -720 c-4 -396 -3 -755 2 -798 9 -90 27 -117 74 -117 33 0 35 1
264 164 182 129 222 165 222 198 0 56 -50 63 -107 16 -22 -18 -88 -67 -147
-108 -59 -41 -125 -90 -148 -108 -22 -17 -45 -29 -50 -25 -8 4 -9 112 -4 352
4 190 9 347 11 349 8 8 161 23 439 42 329 22 376 33 396 86 12 30 37 233 50
399 4 61 14 141 20 179 15 83 8 182 -14 204 -21 22 -120 25 -221 7z m131 -172
c-10 -116 -21 -201 -26 -207 -8 -7 -273 -35 -444 -46 -88 -6 -189 -15 -225
-20 -122 -18 -111 -29 -111 118 l0 128 158 18 c86 10 247 32 357 50 110 18
222 34 249 35 l49 1 -7 -77z m-30 -331 c-2 -4 -10 -57 -16 -118 -7 -60 -15
-113 -20 -117 -4 -5 -95 -15 -201 -22 -231 -17 -415 -33 -486 -41 l-53 -7 0
120 0 121 33 5 c53 10 221 26 397 38 91 6 183 15 205 19 54 11 147 12 141 2z"/>
<path d="M2043 1177 c-34 -28 -195 -107 -288 -142 l-68 -26 -61 37 c-34 20
-78 48 -98 61 -20 14 -46 23 -59 21 -54 -8 -49 -77 9 -113 114 -70 236 -156
289 -206 34 -31 93 -82 132 -113 38 -31 96 -80 129 -111 33 -30 68 -55 79 -55
43 0 56 50 27 98 -9 15 -48 52 -87 82 -96 74 -247 210 -247 221 0 5 12 14 27
20 75 28 261 124 286 147 68 64 3 138 -70 79z"/>
</g>
</svg>
