<?xml version="1.0" standalone="no"?>
<!DOCTYPE svg PUBLIC "-//W3C//DTD SVG 20010904//EN"
 "http://www.w3.org/TR/2001/REC-SVG-20010904/DTD/svg10.dtd">
<svg version="1.0" xmlns="http://www.w3.org/2000/svg"
 width="248.000000pt" height="248.000000pt" viewBox="0 0 248.000000 248.000000"
 preserveAspectRatio="xMidYMid meet">
<metadata>
Created by potrace 1.10, written by Peter Selinger 2001-2011
</metadata>
<g transform="translate(0.000000,248.000000) scale(0.100000,-0.100000)"
fill="#000000" stroke="none">
<path d="M515 2206 c-20 -30 -10 -54 38 -90 41 -32 196 -104 299 -141 74 -26
79 -27 103 -11 25 17 31 40 17 64 -5 6 -53 30 -108 51 -154 61 -228 96 -259
125 -35 33 -70 34 -90 2z"/>
<path d="M1765 2064 c-66 -7 -173 -18 -237 -24 -156 -16 -298 -44 -309 -61
-15 -24 -10 -57 10 -71 18 -13 19 -26 16 -253 -3 -212 -25 -587 -41 -685 -29
-178 -78 -369 -119 -460 -50 -112 -55 -144 -24 -161 41 -21 62 1 116 123 40
90 58 149 87 288 48 226 43 193 60 435 16 223 24 669 12 696 -5 12 -1 18 16
22 32 8 237 34 328 42 41 3 136 12 210 20 74 7 164 13 199 12 l64 -2 -2 -169
c-1 -94 -4 -173 -6 -177 -7 -11 -5 -961 3 -1172 4 -110 5 -200 2 -202 -3 -2
-52 19 -108 46 -106 50 -139 58 -160 37 -17 -17 -15 -53 6 -70 33 -30 252
-128 285 -128 77 1 80 15 70 323 -8 263 -10 864 -5 1224 2 124 8 210 18 245
35 132 25 138 -201 137 -93 -1 -224 -7 -290 -15z"/>
<path d="M935 1755 c-44 -6 -143 -22 -220 -33 -77 -12 -207 -35 -290 -52 -82
-16 -161 -30 -175 -30 -51 0 -69 -56 -28 -84 28 -20 63 -20 137 -2 121 29 586
106 645 106 60 0 96 25 96 67 0 43 -32 49 -165 28z"/>
<path d="M770 1384 c-41 -8 -118 -21 -170 -29 -166 -26 -183 -30 -193 -46 -5
-9 -7 -28 -3 -42 8 -35 41 -43 114 -28 31 6 129 23 217 37 88 14 165 30 172
36 20 16 15 55 -9 72 -26 19 -29 19 -128 0z"/>
<path d="M765 1083 c-107 -14 -322 -56 -332 -65 -16 -13 -17 -50 -1 -66 16
-16 64 -15 173 3 50 8 137 22 194 30 57 8 110 20 117 26 17 14 18 51 2 67 -11
11 -87 14 -153 5z"/>
<path d="M720 765 c-127 -16 -308 -61 -332 -82 -23 -20 -23 -51 -1 -75 14 -16
19 -54 28 -208 7 -128 15 -193 24 -204 18 -22 54 -20 75 3 18 20 21 21 225 44
178 21 172 15 211 217 35 183 39 279 12 303 -22 20 -88 21 -242 2z m160 -107
c0 -25 -25 -171 -44 -253 l-11 -50 -80 -8 c-44 -5 -111 -14 -148 -21 -42 -8
-70 -9 -74 -3 -12 20 -24 278 -13 292 11 14 141 41 260 54 115 13 110 13 110
-11z"/>
</g>
</svg>
