<?xml version="1.0" standalone="no"?>
<!DOCTYPE svg PUBLIC "-//W3C//DTD SVG 20010904//EN"
 "http://www.w3.org/TR/2001/REC-SVG-20010904/DTD/svg10.dtd">
<svg version="1.0" xmlns="http://www.w3.org/2000/svg"
 width="248.000000pt" height="248.000000pt" viewBox="0 0 248.000000 248.000000"
 preserveAspectRatio="xMidYMid meet">
<metadata>
Created by potrace 1.10, written by Peter Selinger 2001-2011
</metadata>
<g transform="translate(0.000000,248.000000) scale(0.100000,-0.100000)"
fill="#000000" stroke="none">
<path d="M1292 2328 c-11 -13 -39 -50 -61 -83 -69 -102 -290 -341 -401 -434
-103 -86 -223 -171 -287 -205 -25 -13 -33 -23 -33 -44 0 -72 52 -69 171 9 206
135 453 370 601 572 37 51 77 104 88 119 35 46 21 88 -30 88 -15 0 -36 -10
-48 -22z"/>
</g>
</svg>
