<?xml version="1.0" standalone="no"?>
<!DOCTYPE svg PUBLIC "-//W3C//DTD SVG 20010904//EN"
 "http://www.w3.org/TR/2001/REC-SVG-20010904/DTD/svg10.dtd">
<svg version="1.0" xmlns="http://www.w3.org/2000/svg"
 width="248.000000pt" height="248.000000pt" viewBox="0 0 248.000000 248.000000"
 preserveAspectRatio="xMidYMid meet">
<metadata>
Created by potrace 1.10, written by Peter Selinger 2001-2011
</metadata>
<g transform="translate(0.000000,248.000000) scale(0.100000,-0.100000)"
fill="#000000" stroke="none">
<path d="M1292 2328 c-11 -13 -39 -50 -61 -83 -72 -106 -282 -334 -401 -433
-160 -134 -241 -186 -281 -178 -24 4 -35 1 -55 -19 -25 -25 -32 -73 -14 -91 5
-5 14 -132 20 -283 6 -151 12 -277 14 -280 2 -3 9 -114 15 -246 6 -132 16
-278 21 -325 5 -47 11 -109 14 -139 6 -71 24 -90 69 -72 37 16 133 27 307 35
69 4 166 11 215 16 50 5 196 10 326 10 l237 0 6 -25 c7 -28 50 -44 75 -28 46
29 130 514 176 1018 9 99 19 198 21 220 2 22 5 88 6 147 4 140 5 140 -144 149
-191 13 -668 -11 -922 -46 -60 -8 -111 -13 -113 -11 -2 2 34 35 80 74 109 92
294 290 379 405 37 51 77 104 88 119 35 46 21 88 -30 88 -15 0 -36 -10 -48
-22z m577 -714 l32 -7 -6 -101 c-3 -56 -13 -176 -22 -268 l-16 -166 -51 -6
c-84 -9 -198 -16 -441 -26 -126 -6 -277 -14 -335 -19 -58 -6 -143 -13 -190
-16 -47 -3 -113 -10 -148 -16 -36 -7 -67 -8 -72 -3 -4 5 -11 127 -15 271 l-7
262 39 10 c21 5 99 17 173 26 74 9 183 23 242 31 168 24 741 43 817 28z m-23
-671 c-3 -10 -7 -38 -10 -63 -24 -190 -59 -415 -72 -467 l-17 -63 -51 -2 c-28
0 -121 0 -206 0 -136 1 -211 -3 -425 -23 -27 -3 -106 -7 -175 -10 -69 -3 -146
-8 -171 -11 -27 -3 -49 -1 -53 4 -8 13 -23 212 -32 412 l-6 156 88 12 c123 18
275 29 659 47 182 8 337 17 345 19 8 2 41 4 73 5 51 1 58 -1 53 -16z"/>
</g>
</svg>
