<?xml version="1.0" standalone="no"?>
<!DOCTYPE svg PUBLIC "-//W3C//DTD SVG 20010904//EN"
 "http://www.w3.org/TR/2001/REC-SVG-20010904/DTD/svg10.dtd">
<svg version="1.0" xmlns="http://www.w3.org/2000/svg"
 width="248.000000pt" height="248.000000pt" viewBox="0 0 248.000000 248.000000"
 preserveAspectRatio="xMidYMid meet">
<metadata>
Created by potrace 1.10, written by Peter Selinger 2001-2011
</metadata>
<g transform="translate(0.000000,248.000000) scale(0.100000,-0.100000)"
fill="#000000" stroke="none">
<path d="M515 2206 c-20 -30 -10 -54 38 -90 41 -32 196 -104 299 -141 74 -26
79 -27 103 -11 25 17 31 40 17 64 -5 6 -53 30 -108 51 -154 61 -228 96 -259
125 -35 33 -70 34 -90 2z"/>
<path d="M935 1755 c-44 -6 -143 -22 -220 -33 -77 -12 -207 -35 -290 -52 -82
-16 -161 -30 -175 -30 -51 0 -69 -56 -28 -84 28 -20 63 -20 137 -2 121 29 586
106 645 106 60 0 96 25 96 67 0 43 -32 49 -165 28z"/>
</g>
</svg>
