<?xml version="1.0" standalone="no"?>
<!DOCTYPE svg PUBLIC "-//W3C//DTD SVG 20010904//EN"
 "http://www.w3.org/TR/2001/REC-SVG-20010904/DTD/svg10.dtd">
<svg version="1.0" xmlns="http://www.w3.org/2000/svg"
 width="248.000000pt" height="248.000000pt" viewBox="0 0 248.000000 248.000000"
 preserveAspectRatio="xMidYMid meet">
<metadata>
Created by potrace 1.10, written by Peter Selinger 2001-2011
</metadata>
<g transform="translate(0.000000,248.000000) scale(0.100000,-0.100000)"
fill="#000000" stroke="none">
<path d="M1965 2135 c-225 -40 -469 -73 -600 -81 -58 -4 -109 -12 -122 -20
-49 -31 -14 -94 52 -94 55 0 307 31 525 66 118 19 230 34 248 34 32 0 32 0 32
-50 0 -27 -4 -71 -10 -97 -5 -26 -14 -106 -20 -178 -6 -71 -17 -179 -24 -240
-16 -131 -9 -160 39 -160 22 0 33 7 42 26 14 28 38 219 53 404 4 61 14 141 20
179 15 83 8 182 -14 204 -21 22 -120 25 -221 7z"/>
</g>
</svg>
