<?xml version="1.0" standalone="no"?>
<!DOCTYPE svg PUBLIC "-//W3C//DTD SVG 20010904//EN"
 "http://www.w3.org/TR/2001/REC-SVG-20010904/DTD/svg10.dtd">
<svg version="1.0" xmlns="http://www.w3.org/2000/svg"
 width="248.000000pt" height="248.000000pt" viewBox="0 0 248.000000 248.000000"
 preserveAspectRatio="xMidYMid meet">
<metadata>
Created by potrace 1.10, written by Peter Selinger 2001-2011
</metadata>
<g transform="translate(0.000000,248.000000) scale(0.100000,-0.100000)"
fill="#000000" stroke="none">
<path d="M1690 2240 c-96 -4 -222 -13 -280 -19 -58 -6 -184 -19 -280 -29 -174
-17 -175 -17 -188 -45 -10 -21 -11 -44 -3 -105 6 -42 12 -199 15 -349 3 -173
9 -280 16 -293 19 -35 52 -41 178 -30 64 5 270 14 457 20 386 12 440 16 459
35 16 16 22 72 41 377 16 252 18 360 9 396 -4 12 -19 29 -35 37 -30 16 -80 17
-389 5z m318 -225 c-3 -69 -7 -127 -9 -129 -2 -2 -134 -9 -294 -15 -159 -7
-353 -19 -430 -27 -77 -7 -156 -14 -176 -14 l-36 0 -6 103 c-4 56 -8 111 -9
122 -3 22 -13 20 317 56 108 11 356 24 549 27 l99 2 -5 -125z m-18 -307 c0
-35 -3 -93 -6 -129 l-7 -66 -316 -12 c-174 -6 -377 -15 -451 -19 -74 -5 -137
-8 -138 -6 -2 1 -6 56 -9 121 l-6 119 109 12 c60 7 192 17 294 22 263 14 302
16 423 18 l107 2 0 -62z"/>
<path d="M200 2146 c-24 -30 -7 -60 60 -103 36 -23 85 -58 110 -76 108 -81
180 -89 180 -21 0 24 -9 32 -112 102 -164 113 -209 131 -238 98z"/>
<path d="M112 1578 c-32 -32 -6 -75 63 -104 22 -9 51 -24 65 -34 14 -9 60 -36
103 -58 83 -44 113 -45 128 -5 12 32 -13 57 -104 109 -173 100 -228 119 -255
92z"/>
<path d="M1609 1334 c-11 -14 -15 -106 -22 -493 -4 -262 -5 -491 -2 -508 10
-57 76 -69 95 -18 5 13 12 238 15 501 7 520 6 526 -46 532 -15 2 -32 -4 -40
-14z"/>
<path d="M1259 1304 c-9 -11 -13 -80 -15 -272 -2 -141 -7 -367 -12 -502 -5
-135 -6 -255 -1 -267 17 -46 81 -37 93 14 9 43 28 522 29 769 2 195 0 223 -16
247 -20 31 -57 36 -78 11z"/>
<path d="M842 898 c-17 -17 -15 -52 6 -79 23 -30 142 -236 142 -245 0 -4 11
-22 26 -41 38 -50 94 -41 94 16 0 40 -167 333 -200 351 -25 13 -53 13 -68 -2z"/>
<path d="M412 708 c-5 -7 -26 -49 -46 -93 -20 -44 -46 -98 -57 -120 -11 -22
-46 -89 -77 -149 -53 -103 -55 -110 -41 -135 16 -29 59 -40 76 -19 12 15 144
275 185 364 48 104 50 114 33 140 -17 26 -56 32 -73 12z"/>
</g>
</svg>
