<?xml version="1.0" standalone="no"?>
<!DOCTYPE svg PUBLIC "-//W3C//DTD SVG 20010904//EN"
 "http://www.w3.org/TR/2001/REC-SVG-20010904/DTD/svg10.dtd">
<svg version="1.0" xmlns="http://www.w3.org/2000/svg"
 width="248.000000pt" height="248.000000pt" viewBox="0 0 248.000000 248.000000"
 preserveAspectRatio="xMidYMid meet">
<metadata>
Created by potrace 1.10, written by Peter Selinger 2001-2011
</metadata>
<g transform="translate(0.000000,248.000000) scale(0.100000,-0.100000)"
fill="#000000" stroke="none">
<path d="M539 2261 c-22 -17 -23 -23 -13 -58 16 -61 18 -248 2 -259 -13 -10
-179 -51 -319 -79 -82 -17 -113 -38 -107 -76 6 -39 29 -44 111 -25 114 27 110
30 124 -104 6 -63 12 -138 12 -165 l1 -50 -117 -40 c-111 -37 -118 -42 -121
-68 -4 -35 13 -57 44 -57 12 0 60 13 106 30 109 39 238 72 254 66 10 -4 13
-34 12 -120 -1 -63 -4 -119 -7 -124 -3 -6 -26 -15 -51 -22 -25 -7 -84 -27
-132 -46 -48 -19 -103 -34 -122 -34 -38 0 -66 -28 -66 -65 0 -58 58 -58 210
-1 63 24 116 43 117 42 6 -5 -121 -252 -161 -313 -25 -38 -74 -97 -110 -133
-67 -66 -82 -100 -54 -128 22 -22 49 -12 110 40 69 60 127 137 197 263 53 96
63 95 56 -7 -3 -35 -7 -126 -10 -203 -3 -77 -8 -171 -11 -208 -6 -79 10 -117
50 -117 39 0 47 22 51 132 2 57 7 184 11 283 4 99 7 201 7 228 0 26 1 47 4 47
2 0 51 -36 109 -80 57 -44 113 -80 122 -80 26 0 42 20 42 52 0 23 -16 40 -92
101 -142 114 -184 154 -173 165 6 6 88 36 183 68 194 64 219 81 188 129 -19
29 -63 33 -104 10 -41 -22 -262 -94 -266 -86 -11 17 -4 230 7 239 7 5 75 26
152 45 231 60 235 62 235 101 0 51 -40 57 -152 26 -94 -26 -102 -26 -94 3 16
51 64 245 70 279 8 44 35 56 140 65 73 7 106 26 106 62 0 26 -26 51 -53 51
-28 0 -140 -22 -242 -48 -44 -12 -98 -22 -120 -24 l-40 -3 -2 139 c-2 114 -6
142 -19 158 -22 23 -46 23 -75 -1z m197 -428 c-4 -21 -13 -58 -20 -83 -8 -25
-20 -67 -27 -93 -6 -27 -22 -63 -34 -80 -11 -18 -24 -39 -27 -48 -6 -15 -118
-49 -160 -49 -19 0 -24 25 -33 180 -3 52 -8 105 -11 117 -8 30 15 40 154 68
166 33 166 33 158 -12z"/>
<path d="M1775 2215 c-44 -7 -129 -21 -190 -30 -120 -19 -267 -58 -302 -81
-28 -17 -30 -50 -5 -78 15 -19 17 -35 11 -151 -4 -71 -8 -296 -10 -499 -2
-354 -2 -369 17 -383 13 -10 31 -13 59 -8 22 4 54 9 72 12 l31 5 -9 -41 c-59
-261 -170 -421 -414 -594 -44 -31 -28 -87 25 -87 27 0 137 72 192 124 59 56
167 194 193 246 39 77 90 223 106 303 14 74 20 81 87 92 l43 7 -5 -34 c-3 -18
-10 -59 -16 -91 -5 -32 -13 -143 -16 -246 -6 -163 -5 -196 10 -241 45 -138
154 -199 371 -207 113 -5 306 17 349 39 11 6 36 24 54 41 30 29 32 35 32 98 0
85 -22 119 -66 104 -27 -10 -29 -14 -32 -73 -3 -60 -4 -63 -35 -77 -18 -8 -86
-21 -152 -29 -255 -30 -402 26 -435 165 -11 48 -10 85 4 240 9 101 22 213 29
249 l12 65 79 8 c70 8 80 7 99 -11 12 -10 28 -22 34 -26 18 -10 52 11 63 38
16 43 31 272 50 796 13 336 13 336 -6 354 -20 20 -208 20 -329 1z m240 -205
l0 -125 -45 -7 c-38 -7 -504 -73 -564 -81 -18 -2 -19 5 -17 113 1 73 7 119 14
126 7 7 44 19 82 27 127 29 452 76 500 74 l30 -2 0 -125z m-7 -286 c1 -27 -1
-74 -5 -104 -9 -63 9 -55 -208 -85 -115 -16 -235 -35 -357 -58 -32 -6 -60 -9
-62 -6 -2 2 -2 50 1 106 l6 103 51 15 c60 18 531 85 561 80 6 -1 11 -24 13
-51z m-14 -356 c-3 -51 -9 -115 -13 -143 -6 -49 -7 -50 -46 -56 -22 -4 -96
-10 -165 -14 -69 -3 -163 -15 -210 -26 -47 -10 -107 -20 -135 -22 l-50 -2 -2
116 c-2 80 1 120 10 131 13 16 171 49 352 73 61 8 133 19 160 24 28 5 62 9 77
10 l28 1 -6 -92z"/>
</g>
</svg>
