<?xml version="1.0" standalone="no"?>
<!DOCTYPE svg PUBLIC "-//W3C//DTD SVG 20010904//EN"
 "http://www.w3.org/TR/2001/REC-SVG-20010904/DTD/svg10.dtd">
<svg version="1.0" xmlns="http://www.w3.org/2000/svg"
 width="248.000000pt" height="248.000000pt" viewBox="0 0 248.000000 248.000000"
 preserveAspectRatio="xMidYMid meet">
<metadata>
Created by potrace 1.10, written by Peter Selinger 2001-2011
</metadata>
<g transform="translate(0.000000,248.000000) scale(0.100000,-0.100000)"
fill="#000000" stroke="none">
<path d="M1156 2337 c-16 -12 -21 -73 -28 -340 -1 -35 13 -49 48 -49 41 0 51
23 60 130 13 174 10 226 -16 252 -23 23 -39 25 -64 7z"/>
<path d="M406 1928 c-13 -18 -16 -53 -16 -193 0 -120 4 -175 12 -183 17 -17
63 -15 79 5 20 23 25 328 7 363 -18 34 -61 39 -82 8z"/>
</g>
</svg>
