<?xml version="1.0" standalone="no"?>
<!DOCTYPE svg PUBLIC "-//W3C//DTD SVG 20010904//EN"
 "http://www.w3.org/TR/2001/REC-SVG-20010904/DTD/svg10.dtd">
<svg version="1.0" xmlns="http://www.w3.org/2000/svg"
 width="248.000000pt" height="248.000000pt" viewBox="0 0 248.000000 248.000000"
 preserveAspectRatio="xMidYMid meet">
<metadata>
Created by potrace 1.10, written by Peter Selinger 2001-2011
</metadata>
<g transform="translate(0.000000,248.000000) scale(0.100000,-0.100000)"
fill="#000000" stroke="none">
<path d="M539 2261 c-22 -17 -23 -23 -13 -58 16 -61 18 -248 2 -259 -13 -10
-179 -51 -319 -79 -82 -17 -113 -38 -107 -76 6 -39 29 -44 111 -25 114 27 110
30 124 -104 6 -63 12 -138 12 -165 l1 -50 -117 -40 c-111 -37 -118 -42 -121
-68 -4 -35 13 -57 44 -57 12 0 60 13 106 30 109 39 238 72 254 66 10 -4 13
-34 12 -120 -1 -63 -4 -119 -7 -124 -3 -6 -26 -15 -51 -22 -25 -7 -84 -27
-132 -46 -48 -19 -103 -34 -122 -34 -38 0 -66 -28 -66 -65 0 -59 54 -58 215 1
70 26 131 44 141 40 15 -6 16 -25 10 -204 -8 -251 -14 -388 -21 -480 -7 -84 8
-122 49 -122 38 0 48 23 51 117 10 275 17 502 18 605 1 64 7 121 12 127 6 5
88 35 183 67 194 64 219 81 188 129 -19 29 -63 33 -104 10 -41 -22 -262 -94
-266 -86 -11 17 -4 230 7 239 7 5 75 26 152 45 231 60 235 62 235 101 0 51
-40 57 -152 26 -94 -26 -102 -26 -94 3 16 51 64 245 70 279 8 44 35 56 140 65
73 7 106 26 106 62 0 26 -26 51 -53 51 -28 0 -140 -22 -242 -48 -44 -12 -98
-22 -120 -24 l-40 -3 -2 139 c-2 114 -6 142 -19 158 -22 23 -46 23 -75 -1z
m197 -428 c-4 -21 -13 -58 -20 -83 -8 -25 -20 -67 -27 -93 -6 -27 -22 -63 -34
-80 -11 -18 -24 -39 -27 -48 -6 -15 -118 -49 -160 -49 -19 0 -24 25 -33 180
-3 52 -8 105 -11 117 -8 30 15 40 154 68 166 33 166 33 158 -12z"/>
</g>
</svg>
