<?xml version="1.0" standalone="no"?>
<!DOCTYPE svg PUBLIC "-//W3C//DTD SVG 20010904//EN"
 "http://www.w3.org/TR/2001/REC-SVG-20010904/DTD/svg10.dtd">
<svg version="1.0" xmlns="http://www.w3.org/2000/svg"
 width="248.000000pt" height="248.000000pt" viewBox="0 0 248.000000 248.000000"
 preserveAspectRatio="xMidYMid meet">
<metadata>
Created by potrace 1.10, written by Peter Selinger 2001-2011
</metadata>
<g transform="translate(0.000000,248.000000) scale(0.100000,-0.100000)"
fill="#000000" stroke="none">
<path d="M1156 2337 c-15 -11 -18 -32 -20 -149 -1 -76 -4 -140 -8 -143 -3 -3
-56 -10 -119 -15 -63 -6 -150 -16 -194 -24 -44 -8 -109 -17 -145 -21 -36 -3
-105 -13 -155 -21 -128 -22 -125 -17 -125 -228 0 -185 3 -196 51 -196 46 0 54
21 59 173 l5 141 30 8 c17 4 84 14 150 22 66 9 167 22 225 30 246 33 553 53
973 62 209 5 297 4 297 -4 0 -6 -58 -63 -129 -128 -72 -64 -133 -124 -136
-132 -8 -20 21 -62 43 -62 26 0 93 50 201 150 153 141 194 218 137 255 -51 33
-244 40 -633 21 -197 -9 -373 -19 -391 -23 l-34 -6 2 94 c4 146 2 167 -20 189
-23 23 -39 25 -64 7z"/>
<path d="M1655 1763 c-16 -2 -82 -10 -145 -18 -258 -33 -462 -54 -591 -60
-156 -8 -184 -17 -184 -60 0 -50 31 -57 187 -45 165 12 158 13 158 -3 0 -25
-124 -190 -195 -260 -91 -90 -102 -110 -80 -143 19 -29 16 -29 183 -7 156 20
156 20 148 -71 -4 -32 -6 -92 -6 -132 l0 -73 -42 -6 c-24 -3 -87 -10 -140 -14
-106 -9 -131 -20 -126 -60 6 -50 69 -59 246 -35 l42 6 0 -93 c0 -51 -5 -121
-11 -155 l-11 -63 -66 -6 c-134 -11 -433 -56 -485 -71 -23 -7 -40 -40 -32 -64
12 -37 36 -41 141 -21 187 35 303 49 507 61 353 22 679 7 839 -39 59 -17 69
-17 87 -4 26 17 27 55 4 75 -65 54 -392 94 -692 84 l-193 -7 7 63 c4 35 10
108 14 163 l6 99 130 23 c202 35 250 56 243 104 -5 37 -30 45 -95 31 -32 -7
-92 -19 -133 -27 -41 -7 -87 -16 -102 -20 l-28 -7 0 141 c0 78 1 144 3 148 2
6 104 30 292 68 26 5 39 -2 102 -54 77 -65 100 -72 128 -41 27 30 12 59 -55
114 -34 27 -108 93 -165 147 -57 53 -113 100 -124 104 -40 12 -84 -34 -64 -69
4 -7 32 -33 61 -56 30 -23 50 -46 45 -50 -10 -10 -128 -34 -288 -60 -66 -11
-132 -22 -147 -25 -16 -2 -28 -3 -28 -1 0 2 31 46 70 98 38 51 83 118 99 148
54 99 5 85 453 134 121 14 148 24 148 58 0 53 -21 63 -115 51z"/>
</g>
</svg>
