<?xml version="1.0" standalone="no"?>
<!DOCTYPE svg PUBLIC "-//W3C//DTD SVG 20010904//EN"
 "http://www.w3.org/TR/2001/REC-SVG-20010904/DTD/svg10.dtd">
<svg version="1.0" xmlns="http://www.w3.org/2000/svg"
 width="248.000000pt" height="248.000000pt" viewBox="0 0 248.000000 248.000000"
 preserveAspectRatio="xMidYMid meet">
<metadata>
Created by potrace 1.10, written by Peter Selinger 2001-2011
</metadata>
<g transform="translate(0.000000,248.000000) scale(0.100000,-0.100000)"
fill="#000000" stroke="none">
<path d="M1659 2335 c-63 -64 -232 -185 -260 -185 -42 0 -59 -28 -58 -96 1
-73 -20 -173 -61 -284 -40 -107 -45 -136 -30 -155 17 -21 54 -19 74 4 19 21
57 117 85 215 20 68 18 67 154 87 62 9 91 9 98 2 12 -12 -13 -241 -31 -289 -6
-14 -10 -45 -10 -69 0 -34 5 -47 20 -55 25 -14 56 -5 65 18 26 65 44 167 54
306 4 58 9 108 12 110 2 2 67 10 144 16 169 14 185 19 185 60 0 42 -34 63 -80
50 -19 -6 -61 -10 -94 -10 -58 0 -239 -20 -394 -44 -45 -7 -85 -9 -88 -4 -12
19 9 45 61 76 72 43 236 177 254 207 12 19 12 29 3 49 -17 39 -61 35 -103 -9z"/>
<path d="M792 2255 c-142 -92 -255 -155 -278 -155 -7 0 -20 -10 -28 -23 -13
-20 -14 -27 -1 -65 13 -37 13 -54 -1 -140 -22 -140 -40 -212 -69 -277 -28 -63
-31 -95 -13 -113 17 -17 53 -15 70 6 27 29 68 140 87 230 l17 87 113 16 c102
14 113 14 120 0 5 -9 11 -80 14 -158 6 -150 13 -177 48 -186 28 -7 74 36 64
61 -14 35 -28 291 -17 305 7 8 60 18 134 26 156 17 188 29 188 70 0 21 -7 35
-25 47 -13 8 -28 13 -33 10 -9 -5 -101 -21 -212 -36 -36 -5 -132 -18 -214 -29
-82 -11 -153 -18 -157 -15 -11 6 -12 85 -1 99 4 6 45 32 92 59 47 27 117 70
155 96 39 26 81 51 95 55 54 16 79 72 48 103 -26 26 -66 11 -196 -73z"/>
<path d="M1355 1465 c-405 -37 -501 -53 -530 -85 -15 -17 -17 -57 -17 -449 0
-448 1 -461 41 -461 10 0 25 6 34 12 16 12 17 48 17 408 0 217 4 401 9 408 14
23 56 29 549 75 124 12 132 11 138 -5 14 -45 -21 -651 -45 -774 -10 -52 1 -82
34 -90 30 -7 51 7 59 41 33 130 63 888 36 920 -15 18 -118 18 -325 0z"/>
</g>
</svg>
