<?xml version="1.0" standalone="no"?>
<!DOCTYPE svg PUBLIC "-//W3C//DTD SVG 20010904//EN"
 "http://www.w3.org/TR/2001/REC-SVG-20010904/DTD/svg10.dtd">
<svg version="1.0" xmlns="http://www.w3.org/2000/svg"
 width="248.000000pt" height="248.000000pt" viewBox="0 0 248.000000 248.000000"
 preserveAspectRatio="xMidYMid meet">
<metadata>
Created by potrace 1.10, written by Peter Selinger 2001-2011
</metadata>
<g transform="translate(0.000000,248.000000) scale(0.100000,-0.100000)"
fill="#000000" stroke="none">
<path d="M725 2203 c-55 -69 -342 -350 -408 -400 -31 -23 -63 -53 -73 -67 -36
-56 20 -111 71 -70 163 131 428 385 483 463 47 65 40 121 -14 121 -14 0 -35
-17 -59 -47z"/>
<path d="M708 1613 c-30 -38 -70 -84 -88 -103 -19 -19 -80 -87 -136 -151 -57
-65 -127 -137 -155 -160 -29 -24 -80 -69 -113 -100 -34 -30 -76 -66 -93 -78
-41 -28 -52 -65 -28 -91 10 -11 25 -20 33 -20 21 0 111 61 147 100 17 18 61
57 98 87 37 30 114 107 170 171 56 63 135 152 176 196 41 45 82 95 92 111 34
54 20 105 -27 105 -15 0 -39 -21 -76 -67z"/>
</g>
</svg>
