<?xml version="1.0" standalone="no"?>
<!DOCTYPE svg PUBLIC "-//W3C//DTD SVG 20010904//EN"
 "http://www.w3.org/TR/2001/REC-SVG-20010904/DTD/svg10.dtd">
<svg version="1.0" xmlns="http://www.w3.org/2000/svg"
 width="248.000000pt" height="248.000000pt" viewBox="0 0 248.000000 248.000000"
 preserveAspectRatio="xMidYMid meet">
<metadata>
Created by potrace 1.10, written by Peter Selinger 2001-2011
</metadata>
<g transform="translate(0.000000,248.000000) scale(0.100000,-0.100000)"
fill="#000000" stroke="none">
<path d="M539 2261 c-22 -17 -23 -23 -13 -58 16 -61 18 -248 2 -259 -13 -10
-178 -51 -320 -80 -86 -17 -111 -34 -106 -72 5 -42 27 -48 111 -28 113 27 110
29 124 -99 6 -61 12 -135 12 -165 l1 -55 -117 -40 c-111 -37 -118 -42 -121
-68 -4 -35 13 -57 44 -57 12 0 60 13 106 30 46 16 146 46 223 65 539 138 535
136 535 179 0 51 -40 57 -152 26 -94 -26 -102 -26 -94 3 16 51 64 245 70 279
8 44 35 56 140 65 73 7 106 26 106 62 0 26 -26 51 -53 51 -28 0 -140 -22 -242
-48 -44 -12 -98 -22 -120 -24 l-40 -3 -2 139 c-2 114 -6 142 -19 158 -22 23
-46 23 -75 -1z m197 -428 c-4 -21 -13 -58 -20 -83 -8 -25 -20 -67 -27 -93 -6
-27 -22 -63 -34 -80 -11 -18 -24 -39 -27 -48 -6 -15 -118 -49 -160 -49 -19 0
-24 25 -33 180 -3 52 -8 105 -11 117 -8 30 14 40 154 68 167 33 166 33 158
-12z"/>
</g>
</svg>
