<?xml version="1.0" standalone="no"?>
<!DOCTYPE svg PUBLIC "-//W3C//DTD SVG 20010904//EN"
 "http://www.w3.org/TR/2001/REC-SVG-20010904/DTD/svg10.dtd">
<svg version="1.0" xmlns="http://www.w3.org/2000/svg"
 width="248.000000pt" height="248.000000pt" viewBox="0 0 248.000000 248.000000"
 preserveAspectRatio="xMidYMid meet">
<metadata>
Created by potrace 1.10, written by Peter Selinger 2001-2011
</metadata>
<g transform="translate(0.000000,248.000000) scale(0.100000,-0.100000)"
fill="#000000" stroke="none">
<path d="M539 2261 c-22 -17 -23 -23 -13 -58 16 -61 18 -248 2 -259 -13 -10
-178 -51 -320 -80 -43 -8 -85 -22 -93 -30 -19 -20 -19 -58 0 -74 15 -12 21
-12 133 11 38 8 66 9 71 3 5 -5 15 -79 22 -164 13 -164 22 -190 64 -190 42 0
45 16 35 178 -5 83 -12 163 -16 176 -8 35 9 42 209 81 94 18 208 43 251 54 44
12 99 21 123 21 47 0 83 25 83 59 0 26 -26 51 -53 51 -28 0 -140 -22 -242 -48
-44 -12 -98 -22 -120 -24 l-40 -3 -2 139 c-2 114 -6 142 -19 158 -22 23 -46
23 -75 -1z"/>
</g>
</svg>
