<?xml version="1.0" standalone="no"?>
<!DOCTYPE svg PUBLIC "-//W3C//DTD SVG 20010904//EN"
 "http://www.w3.org/TR/2001/REC-SVG-20010904/DTD/svg10.dtd">
<svg version="1.0" xmlns="http://www.w3.org/2000/svg"
 width="248.000000pt" height="248.000000pt" viewBox="0 0 248.000000 248.000000"
 preserveAspectRatio="xMidYMid meet">
<metadata>
Created by potrace 1.10, written by Peter Selinger 2001-2011
</metadata>
<g transform="translate(0.000000,248.000000) scale(0.100000,-0.100000)"
fill="#000000" stroke="none">
<path d="M792 2255 c-142 -92 -255 -155 -278 -155 -7 0 -20 -10 -28 -23 -13
-20 -14 -27 -1 -65 13 -37 13 -54 -1 -140 -22 -140 -40 -212 -69 -277 -28 -63
-31 -95 -13 -113 17 -17 53 -15 70 6 27 29 68 140 87 231 l17 86 49 7 c78 11
276 38 431 58 163 21 184 29 184 70 0 30 -39 68 -58 56 -9 -5 -101 -21 -212
-36 -36 -5 -132 -18 -214 -29 -82 -11 -153 -18 -157 -15 -11 6 -12 85 -1 99 4
6 45 32 92 59 47 27 117 70 155 96 39 26 81 51 95 55 54 16 79 72 48 103 -26
26 -66 11 -196 -73z"/>
</g>
</svg>
