<?xml version="1.0" standalone="no"?>
<!DOCTYPE svg PUBLIC "-//W3C//DTD SVG 20010904//EN"
 "http://www.w3.org/TR/2001/REC-SVG-20010904/DTD/svg10.dtd">
<svg version="1.0" xmlns="http://www.w3.org/2000/svg"
 width="248.000000pt" height="248.000000pt" viewBox="0 0 248.000000 248.000000"
 preserveAspectRatio="xMidYMid meet">
<metadata>
Created by potrace 1.10, written by Peter Selinger 2001-2011
</metadata>
<g transform="translate(0.000000,248.000000) scale(0.100000,-0.100000)"
fill="#000000" stroke="none">
<path d="M792 2255 c-142 -92 -255 -155 -278 -155 -7 0 -20 -10 -28 -23 -13
-20 -14 -27 -1 -65 12 -33 13 -57 5 -113 -17 -119 -47 -241 -74 -303 -29 -64
-32 -96 -14 -114 17 -17 53 -15 70 6 49 54 118 319 118 451 0 36 4 71 8 76 4
6 45 32 92 59 47 27 117 70 155 96 39 26 81 51 95 55 54 16 79 72 48 103 -26
26 -66 11 -196 -73z"/>
</g>
</svg>
