<?xml version="1.0" standalone="no"?>
<!DOCTYPE svg PUBLIC "-//W3C//DTD SVG 20010904//EN"
 "http://www.w3.org/TR/2001/REC-SVG-20010904/DTD/svg10.dtd">
<svg version="1.0" xmlns="http://www.w3.org/2000/svg"
 width="248.000000pt" height="248.000000pt" viewBox="0 0 248.000000 248.000000"
 preserveAspectRatio="xMidYMid meet">
<metadata>
Created by potrace 1.10, written by Peter Selinger 2001-2011
</metadata>
<g transform="translate(0.000000,248.000000) scale(0.100000,-0.100000)"
fill="#000000" stroke="none">
<path d="M582 2357 c-7 -8 -13 -69 -14 -148 l-3 -134 -60 -12 c-33 -7 -98 -15
-145 -19 -93 -7 -110 -15 -110 -49 0 -43 21 -48 153 -42 67 4 131 8 142 9 19
3 20 -3 20 -77 l0 -80 -50 -13 c-27 -7 -87 -15 -133 -19 -93 -7 -114 -18 -115
-58 0 -57 40 -62 216 -30 82 15 83 13 74 -78 -8 -87 -12 -94 -60 -101 -70 -11
-267 -57 -334 -77 -66 -21 -89 -44 -78 -79 13 -41 39 -43 142 -11 194 60 535
116 771 127 135 7 145 9 159 30 19 30 9 62 -23 70 -29 7 -366 -13 -432 -25
-55 -11 -58 -4 -46 97 l9 76 130 26 c72 15 136 30 143 34 22 13 14 64 -13 82
-13 8 -28 13 -33 10 -17 -10 -214 -46 -223 -40 -10 6 -10 136 0 151 3 6 31 13
61 17 49 6 245 48 293 62 22 7 40 40 32 63 -11 35 -46 41 -121 21 -111 -29
-242 -53 -258 -47 -13 5 -16 27 -16 130 0 82 -4 127 -12 135 -16 16 -53 15
-66 -1z"/>
<path d="M402 1208 c-5 -7 -12 -22 -15 -33 -11 -37 -37 -430 -42 -641 -3 -115
-8 -242 -10 -282 -4 -63 -2 -75 15 -92 26 -26 36 -25 65 4 21 21 24 31 19 73
-7 54 7 357 33 715 14 195 14 239 4 252 -16 19 -55 21 -69 4z"/>
</g>
</svg>
