<?xml version="1.0" standalone="no"?>
<!DOCTYPE svg PUBLIC "-//W3C//DTD SVG 20010904//EN"
 "http://www.w3.org/TR/2001/REC-SVG-20010904/DTD/svg10.dtd">
<svg version="1.0" xmlns="http://www.w3.org/2000/svg"
 width="248.000000pt" height="248.000000pt" viewBox="0 0 248.000000 248.000000"
 preserveAspectRatio="xMidYMid meet">
<metadata>
Created by potrace 1.10, written by Peter Selinger 2001-2011
</metadata>
<g transform="translate(0.000000,248.000000) scale(0.100000,-0.100000)"
fill="#000000" stroke="none">
<path d="M930 2140 c-111 -31 -433 -85 -580 -97 -41 -3 -81 -10 -87 -16 -16
-12 -17 -49 -1 -65 18 -18 166 -15 303 7 66 11 143 22 170 26 45 6 245 48 288
61 22 7 40 40 32 63 -4 14 -49 45 -58 40 -1 -1 -31 -9 -67 -19z"/>
</g>
</svg>
