<?xml version="1.0" standalone="no"?>
<!DOCTYPE svg PUBLIC "-//W3C//DTD SVG 20010904//EN"
 "http://www.w3.org/TR/2001/REC-SVG-20010904/DTD/svg10.dtd">
<svg version="1.0" xmlns="http://www.w3.org/2000/svg"
 width="248.000000pt" height="248.000000pt" viewBox="0 0 248.000000 248.000000"
 preserveAspectRatio="xMidYMid meet">
<metadata>
Created by potrace 1.10, written by Peter Selinger 2001-2011
</metadata>
<g transform="translate(0.000000,248.000000) scale(0.100000,-0.100000)"
fill="#000000" stroke="none">
<path d="M582 2357 c-7 -8 -13 -69 -14 -148 l-3 -134 -60 -12 c-33 -7 -98 -15
-145 -19 -93 -7 -110 -15 -110 -49 0 -43 21 -48 153 -42 67 4 131 8 142 9 19
3 20 -3 20 -77 l0 -80 -50 -13 c-27 -7 -87 -15 -133 -19 -93 -7 -114 -18 -115
-58 0 -57 40 -62 216 -30 82 15 83 13 74 -78 -8 -87 -12 -94 -60 -101 -70 -11
-267 -57 -334 -77 -66 -21 -89 -44 -78 -79 13 -41 39 -43 142 -11 194 60 535
116 771 127 135 7 145 9 159 30 19 30 9 62 -23 70 -29 7 -366 -13 -432 -25
-55 -11 -58 -4 -46 97 l9 76 130 26 c72 15 136 30 143 34 22 13 14 64 -13 82
-13 8 -28 13 -33 10 -17 -10 -214 -46 -223 -40 -10 6 -10 136 0 151 3 6 31 13
61 17 49 6 245 48 293 62 22 7 40 40 32 63 -11 35 -46 41 -121 21 -111 -29
-242 -53 -258 -47 -13 5 -16 27 -16 130 0 82 -4 127 -12 135 -16 16 -53 15
-66 -1z"/>
<path d="M1527 2198 c-13 -18 -72 -102 -131 -187 -59 -84 -125 -176 -147 -203
-40 -51 -48 -85 -27 -106 21 -21 53 -13 84 21 82 87 314 427 314 460 0 55 -57
64 -93 15z"/>
<path d="M780 1333 c-189 -18 -370 -62 -407 -100 -26 -25 -30 -59 -8 -83 13
-14 13 -39 0 -205 -8 -105 -17 -289 -20 -410 -3 -121 -8 -250 -10 -287 -4 -58
-2 -71 15 -88 24 -24 32 -25 59 -2 20 16 22 28 26 227 3 115 9 213 14 218 12
12 217 45 301 49 l65 3 8 -120 c8 -117 3 -282 -8 -293 -3 -3 -16 5 -29 17 -42
39 -96 13 -83 -40 3 -13 29 -50 57 -82 56 -62 92 -74 123 -40 32 36 36 122 31
673 -3 499 -5 546 -21 558 -16 12 -38 13 -113 5z m38 -205 l-3 -103 -40 -7
c-22 -3 -69 -12 -104 -18 -35 -6 -96 -14 -134 -17 l-70 -6 6 69 c4 38 7 81 7
96 0 18 8 31 22 39 28 15 207 47 271 48 l48 1 -3 -102z m0 -273 c5 -100 4
-102 -80 -104 -40 -1 -108 -9 -153 -16 -44 -8 -93 -15 -109 -15 l-29 0 8 72
c3 40 9 76 11 80 3 5 24 8 48 8 23 0 83 7 132 15 49 8 100 16 114 18 51 9 55
5 58 -58z"/>
</g>
</svg>
