<?xml version="1.0" standalone="no"?>
<!DOCTYPE svg PUBLIC "-//W3C//DTD SVG 20010904//EN"
 "http://www.w3.org/TR/2001/REC-SVG-20010904/DTD/svg10.dtd">
<svg version="1.0" xmlns="http://www.w3.org/2000/svg"
 width="248.000000pt" height="248.000000pt" viewBox="0 0 248.000000 248.000000"
 preserveAspectRatio="xMidYMid meet">
<metadata>
Created by potrace 1.10, written by Peter Selinger 2001-2011
</metadata>
<g transform="translate(0.000000,248.000000) scale(0.100000,-0.100000)"
fill="#000000" stroke="none">
<path d="M449 2244 c-12 -15 -17 -39 -39 -218 -18 -149 -45 -238 -151 -506
-23 -58 -52 -132 -64 -166 -13 -33 -42 -102 -65 -153 -36 -79 -40 -97 -31
-117 17 -37 66 -33 90 8 26 41 115 252 186 438 20 52 45 115 55 140 30 76 77
278 95 413 15 118 15 130 1 153 -19 28 -57 32 -77 8z"/>
</g>
</svg>
