<?xml version="1.0" standalone="no"?>
<!DOCTYPE svg PUBLIC "-//W3C//DTD SVG 20010904//EN"
 "http://www.w3.org/TR/2001/REC-SVG-20010904/DTD/svg10.dtd">
<svg version="1.0" xmlns="http://www.w3.org/2000/svg"
 width="248.000000pt" height="248.000000pt" viewBox="0 0 248.000000 248.000000"
 preserveAspectRatio="xMidYMid meet">
<metadata>
Created by potrace 1.10, written by Peter Selinger 2001-2011
</metadata>
<g transform="translate(0.000000,248.000000) scale(0.100000,-0.100000)"
fill="#000000" stroke="none">
<path d="M780 2289 c-47 -4 -134 -11 -193 -15 -79 -5 -114 -12 -129 -24 -22
-17 -23 -23 -48 -224 -18 -149 -45 -238 -151 -506 -23 -58 -52 -132 -64 -166
-13 -33 -42 -102 -65 -153 -36 -80 -41 -97 -31 -118 9 -20 17 -24 43 -21 27 2
37 11 56 46 24 44 107 240 164 387 17 44 39 103 50 130 39 97 89 291 104 404
8 63 17 118 19 122 8 12 365 48 365 36 0 -3 -9 -50 -19 -104 -11 -54 -31 -163
-45 -243 -50 -276 -191 -777 -277 -977 -94 -220 -181 -377 -315 -566 -23 -31
-25 -41 -16 -61 26 -58 82 -30 153 75 21 33 57 85 78 118 101 150 259 531 345
836 42 147 123 484 136 565 7 41 21 117 31 167 47 228 45 272 -14 293 -32 11
-48 11 -177 -1z"/>
</g>
</svg>
