<?xml version="1.0" standalone="no"?>
<!DOCTYPE svg PUBLIC "-//W3C//DTD SVG 20010904//EN"
 "http://www.w3.org/TR/2001/REC-SVG-20010904/DTD/svg10.dtd">
<svg version="1.0" xmlns="http://www.w3.org/2000/svg"
 width="248.000000pt" height="248.000000pt" viewBox="0 0 248.000000 248.000000"
 preserveAspectRatio="xMidYMid meet">
<metadata>
Created by potrace 1.10, written by Peter Selinger 2001-2011
</metadata>
<g transform="translate(0.000000,248.000000) scale(0.100000,-0.100000)"
fill="#000000" stroke="none">
<path d="M1686 2288 c-11 -17 -15 -58 -16 -163 0 -77 -3 -157 -7 -177 -6 -43
1 -40 -181 -63 -62 -7 -120 -19 -128 -26 -24 -20 -13 -62 19 -77 24 -12 46
-12 146 2 64 9 122 16 129 16 9 0 12 -54 12 -208 0 -193 1 -210 19 -226 11
-10 30 -16 42 -14 43 6 49 38 49 260 0 207 0 208 23 212 78 16 207 36 237 36
54 0 85 20 85 55 0 23 -7 33 -29 44 -26 12 -45 11 -160 -8 -72 -12 -136 -21
-141 -21 -7 0 -9 56 -7 163 3 180 -4 210 -50 215 -19 2 -31 -3 -42 -20z"/>
<path d="M612 2198 c-26 -26 -13 -59 45 -112 31 -28 69 -62 83 -76 62 -61 154
-130 174 -130 30 0 46 18 46 51 0 22 -16 40 -77 92 -43 36 -87 75 -98 87 -38
44 -117 100 -139 100 -12 0 -27 -5 -34 -12z"/>
<path d="M1035 1800 c-49 -10 -343 -56 -445 -71 -41 -6 -100 -16 -130 -24 -30
-8 -102 -21 -159 -29 -56 -8 -110 -21 -118 -27 -23 -20 -12 -62 21 -78 25 -12
43 -11 130 4 56 9 118 21 140 27 39 10 120 23 356 58 186 27 291 48 307 61 17
14 17 53 0 67 -19 16 -58 21 -102 12z"/>
<path d="M875 1443 c-16 -2 -88 -17 -160 -33 -71 -16 -157 -34 -190 -40 -33
-7 -70 -18 -82 -26 -30 -19 -30 -59 0 -79 24 -15 66 -9 322 49 39 9 101 20
138 25 38 5 75 15 83 22 18 15 18 53 0 68 -17 14 -69 21 -111 14z"/>
<path d="M800 1125 c-69 -13 -156 -31 -195 -39 -38 -9 -86 -16 -105 -16 -72 0
-108 -62 -56 -96 22 -13 35 -14 103 -4 43 7 114 20 158 30 44 11 118 24 165
31 98 14 130 29 130 64 0 25 -34 56 -60 54 -8 0 -71 -11 -140 -24z"/>
<path d="M860 837 c-3 -2 -36 -7 -75 -10 -38 -3 -117 -15 -175 -27 -58 -11
-122 -20 -142 -20 -57 0 -87 -16 -104 -55 -12 -30 -13 -63 -4 -223 15 -254 24
-338 40 -358 13 -15 40 -16 290 -10 151 3 282 6 291 6 21 0 34 35 48 125 14
90 31 326 31 432 0 71 -3 85 -23 109 -21 24 -32 28 -98 31 -41 3 -76 3 -79 0z
m86 -269 c-7 -164 -20 -305 -28 -314 -3 -2 -99 -7 -215 -11 -200 -6 -210 -5
-217 13 -6 15 -24 294 -26 389 0 19 15 23 148 48 175 32 187 34 276 36 l69 1
-7 -162z"/>
</g>
</svg>
