<?xml version="1.0" standalone="no"?>
<!DOCTYPE svg PUBLIC "-//W3C//DTD SVG 20010904//EN"
 "http://www.w3.org/TR/2001/REC-SVG-20010904/DTD/svg10.dtd">
<svg version="1.0" xmlns="http://www.w3.org/2000/svg"
 width="248.000000pt" height="248.000000pt" viewBox="0 0 248.000000 248.000000"
 preserveAspectRatio="xMidYMid meet">
<metadata>
Created by potrace 1.10, written by Peter Selinger 2001-2011
</metadata>
<g transform="translate(0.000000,248.000000) scale(0.100000,-0.100000)"
fill="#000000" stroke="none">
<path d="M612 2198 c-26 -26 -13 -59 45 -112 31 -28 69 -62 83 -76 62 -61 154
-130 174 -130 30 0 46 18 46 51 0 22 -16 40 -77 92 -43 36 -87 75 -98 87 -38
44 -117 100 -139 100 -12 0 -27 -5 -34 -12z"/>
<path d="M1035 1800 c-49 -10 -343 -56 -445 -71 -41 -6 -100 -16 -130 -24 -30
-8 -102 -21 -159 -29 -56 -8 -110 -21 -118 -27 -23 -20 -12 -62 21 -78 25 -12
43 -11 130 4 56 9 118 21 140 27 39 10 120 23 356 58 186 27 291 48 307 61 17
14 17 53 0 67 -19 16 -58 21 -102 12z"/>
<path d="M875 1443 c-16 -2 -88 -17 -160 -33 -71 -16 -157 -34 -190 -40 -33
-7 -70 -18 -82 -26 -30 -19 -30 -59 0 -79 24 -15 75 -8 297 44 47 11 118 24
158 29 40 6 80 16 88 22 18 16 18 54 0 69 -17 14 -69 21 -111 14z"/>
<path d="M800 1125 c-69 -13 -156 -31 -195 -39 -38 -9 -86 -16 -105 -16 -72 0
-108 -62 -56 -96 22 -13 35 -14 103 -4 43 7 114 20 158 30 44 11 118 24 165
31 98 14 130 29 130 64 0 25 -34 56 -60 54 -8 0 -71 -11 -140 -24z"/>
</g>
</svg>
