<?xml version="1.0" standalone="no"?>
<!DOCTYPE svg PUBLIC "-//W3C//DTD SVG 20010904//EN"
 "http://www.w3.org/TR/2001/REC-SVG-20010904/DTD/svg10.dtd">
<svg version="1.0" xmlns="http://www.w3.org/2000/svg"
 width="248.000000pt" height="248.000000pt" viewBox="0 0 248.000000 248.000000"
 preserveAspectRatio="xMidYMid meet">
<metadata>
Created by potrace 1.10, written by Peter Selinger 2001-2011
</metadata>
<g transform="translate(0.000000,248.000000) scale(0.100000,-0.100000)"
fill="#000000" stroke="none">
<path d="M780 2289 c-47 -4 -134 -11 -193 -15 -79 -5 -114 -12 -129 -24 -22
-17 -23 -23 -48 -224 -18 -149 -45 -238 -151 -506 -23 -58 -52 -132 -64 -166
-13 -33 -42 -102 -65 -153 -36 -80 -41 -97 -31 -118 9 -20 17 -24 43 -21 27 2
37 11 56 46 26 47 115 258 164 389 17 46 34 80 39 77 5 -3 9 -10 9 -15 0 -6
17 -36 38 -67 21 -31 65 -104 97 -162 32 -58 71 -124 86 -148 l27 -43 -39
-114 c-94 -273 -205 -488 -375 -728 -23 -31 -25 -41 -16 -61 26 -58 82 -30
153 75 21 33 57 86 79 118 52 78 183 354 230 486 10 28 23 62 29 78 l11 28 47
-54 c27 -30 86 -100 133 -157 84 -102 210 -227 279 -278 20 -14 52 -40 71 -56
19 -16 107 -64 195 -106 223 -107 432 -167 642 -185 91 -8 113 0 113 40 0 38
-30 54 -128 65 -227 25 -401 80 -637 198 -155 77 -331 235 -520 466 -166 203
-160 185 -120 317 37 124 121 473 135 559 7 41 21 117 31 167 47 228 45 272
-14 293 -32 11 -48 11 -177 -1z m120 -104 c0 -3 -7 -38 -15 -78 -8 -40 -28
-147 -44 -238 -31 -169 -96 -441 -129 -539 l-19 -54 -58 104 c-32 58 -73 129
-92 157 -19 29 -47 81 -64 116 l-29 64 29 119 c16 65 34 161 40 213 7 52 14
98 16 102 9 14 365 47 365 34z"/>
<path d="M1316 2108 c-9 -15 -16 -67 -20 -148 -5 -127 -38 -313 -77 -445 -50
-172 -63 -207 -103 -276 -23 -41 -48 -83 -56 -95 -19 -30 -6 -72 26 -80 38
-10 72 29 132 149 88 175 173 517 188 749 6 101 4 121 -10 143 -21 32 -60 33
-80 3z"/>
</g>
</svg>
