<?xml version="1.0" standalone="no"?>
<!DOCTYPE svg PUBLIC "-//W3C//DTD SVG 20010904//EN"
 "http://www.w3.org/TR/2001/REC-SVG-20010904/DTD/svg10.dtd">
<svg version="1.0" xmlns="http://www.w3.org/2000/svg"
 width="248.000000pt" height="248.000000pt" viewBox="0 0 248.000000 248.000000"
 preserveAspectRatio="xMidYMid meet">
<metadata>
Created by potrace 1.10, written by Peter Selinger 2001-2011
</metadata>
<g transform="translate(0.000000,248.000000) scale(0.100000,-0.100000)"
fill="#000000" stroke="none">
<path d="M825 2285 c-22 -18 -76 -64 -121 -102 -276 -233 -434 -386 -434 -420
0 -22 67 -108 167 -213 l61 -64 -32 -43 c-17 -23 -41 -57 -54 -75 -12 -18 -47
-67 -77 -108 -89 -123 -179 -251 -192 -274 -16 -27 -16 -69 -1 -84 16 -16 74
-15 118 2 19 7 78 30 130 49 123 46 309 119 385 151 111 46 102 49 186 -53 78
-96 96 -109 129 -91 35 19 27 73 -19 123 -60 66 -163 197 -200 255 -34 54 -70
74 -100 55 -27 -17 -24 -51 9 -104 29 -47 32 -69 9 -69 -6 0 -57 -20 -115 -45
-57 -25 -123 -52 -147 -60 -23 -7 -78 -27 -122 -44 -116 -45 -117 -43 -46 44
26 33 79 105 116 160 86 126 196 275 250 340 23 28 79 101 124 164 85 117 96
151 60 174 -28 17 -64 -1 -98 -50 -19 -26 -50 -70 -69 -98 -20 -27 -58 -77
-86 -110 -28 -34 -61 -75 -73 -91 l-21 -29 -56 55 c-31 30 -69 72 -83 93 l-26
38 49 50 c53 55 241 223 339 304 144 118 176 160 143 193 -22 22 -62 13 -103
-23z"/>
</g>
</svg>
