<?xml version="1.0" standalone="no"?>
<!DOCTYPE svg PUBLIC "-//W3C//DTD SVG 20010904//EN"
 "http://www.w3.org/TR/2001/REC-SVG-20010904/DTD/svg10.dtd">
<svg version="1.0" xmlns="http://www.w3.org/2000/svg"
 width="248.000000pt" height="248.000000pt" viewBox="0 0 248.000000 248.000000"
 preserveAspectRatio="xMidYMid meet">
<metadata>
Created by potrace 1.10, written by Peter Selinger 2001-2011
</metadata>
<g transform="translate(0.000000,248.000000) scale(0.100000,-0.100000)"
fill="#000000" stroke="none">
<path d="M620 2260 c-49 -49 -3 -92 162 -153 208 -77 278 -83 286 -28 5 33
-23 58 -77 70 -75 16 -269 88 -298 111 -32 25 -48 25 -73 0z"/>
<path d="M890 1763 c-258 -67 -478 -113 -546 -113 -45 0 -64 -14 -64 -46 0
-32 37 -54 90 -54 66 0 230 32 434 85 98 25 182 45 187 43 5 -2 -1 -19 -14
-38 -13 -19 -38 -59 -55 -88 -100 -168 -319 -396 -582 -607 -122 -98 -145
-126 -129 -157 16 -30 48 -32 88 -4 169 118 423 347 542 491 95 114 119 148
234 325 27 41 64 92 82 113 38 43 42 79 11 101 -12 9 -25 15 -28 15 -3 -1
-115 -30 -250 -66z"/>
</g>
</svg>
