<?xml version="1.0" standalone="no"?>
<!DOCTYPE svg PUBLIC "-//W3C//DTD SVG 20010904//EN"
 "http://www.w3.org/TR/2001/REC-SVG-20010904/DTD/svg10.dtd">
<svg version="1.0" xmlns="http://www.w3.org/2000/svg"
 width="248.000000pt" height="248.000000pt" viewBox="0 0 248.000000 248.000000"
 preserveAspectRatio="xMidYMid meet">
<metadata>
Created by potrace 1.10, written by Peter Selinger 2001-2011
</metadata>
<g transform="translate(0.000000,248.000000) scale(0.100000,-0.100000)"
fill="#000000" stroke="none">
<path d="M1676 2348 c-11 -17 -17 -72 -22 -209 l-7 -185 -81 -12 c-45 -7 -118
-12 -162 -12 -89 0 -124 -15 -124 -55 0 -38 35 -55 115 -55 39 0 96 4 126 9
30 5 70 11 89 14 l35 5 0 -122 0 -122 -142 -17 c-78 -10 -204 -20 -280 -24
-92 -3 -145 -10 -160 -19 -31 -20 -30 -59 2 -80 22 -15 43 -16 153 -10 70 4
172 14 227 21 159 23 154 26 93 -52 -93 -121 -160 -195 -346 -381 -170 -169
-183 -185 -180 -215 3 -29 7 -32 38 -35 33 -3 44 6 174 130 l138 132 -6 -280
c-3 -153 -9 -351 -11 -439 -6 -177 0 -208 46 -213 47 -6 53 16 61 207 4 97 10
329 14 516 l7 340 50 55 c27 30 67 77 87 105 21 27 62 75 91 107 l54 56 120 6
c66 4 156 11 199 16 44 6 100 10 126 10 74 0 111 10 119 34 25 67 -39 89 -197
67 -37 -6 -116 -12 -176 -16 l-110 -6 48 53 c27 29 73 82 105 117 31 35 71 80
90 100 18 20 47 55 64 79 17 23 34 42 38 42 17 0 70 100 67 126 -7 59 -71 57
-106 -3 -31 -55 -117 -143 -139 -143 -45 -1 -211 -20 -228 -26 -18 -7 -18 0
-12 177 6 158 5 188 -9 207 -20 29 -59 29 -78 0z m209 -520 c-21 -24 -60 -67
-87 -96 l-48 -54 0 79 c0 43 4 84 9 91 7 12 147 34 160 25 2 -1 -13 -22 -34
-45z"/>
<path d="M825 2285 c-22 -18 -76 -64 -121 -102 -276 -233 -434 -386 -434 -420
0 -22 67 -108 167 -213 l61 -64 -32 -43 c-17 -23 -41 -57 -54 -75 -12 -18 -47
-67 -77 -108 -186 -257 -205 -286 -205 -321 0 -61 61 -63 201 -9 46 18 117 46
157 61 41 16 77 29 81 29 5 0 6 -204 3 -453 -4 -404 -3 -454 11 -465 25 -21
70 -11 83 18 8 17 13 166 16 484 l5 459 38 20 c37 19 141 57 155 57 4 0 40
-41 81 -90 78 -95 96 -108 129 -90 35 19 27 73 -19 123 -60 66 -163 197 -200
255 -34 54 -70 74 -100 55 -27 -17 -24 -51 9 -104 29 -47 32 -69 9 -69 -6 0
-57 -20 -115 -45 -57 -25 -123 -52 -147 -60 -23 -7 -78 -27 -122 -44 -116 -45
-117 -43 -46 44 26 33 79 105 116 160 86 126 196 275 250 340 23 28 79 101
124 164 85 117 96 151 60 174 -28 17 -64 -1 -98 -50 -19 -26 -50 -70 -69 -98
-20 -27 -58 -77 -86 -110 -28 -34 -61 -75 -73 -91 l-21 -29 -56 55 c-31 30
-69 72 -83 93 l-26 38 49 50 c53 55 241 223 339 304 144 118 176 160 143 193
-22 22 -62 13 -103 -23z"/>
<path d="M341 697 c-6 -8 -16 -39 -21 -69 -9 -60 -85 -260 -131 -348 -33 -62
-36 -91 -13 -114 49 -49 86 0 184 247 63 160 78 223 59 263 -16 33 -58 44 -78
21z"/>
<path d="M822 698 c-20 -20 -14 -44 29 -136 23 -48 50 -107 61 -132 33 -77 82
-170 101 -191 20 -21 57 -25 75 -7 20 20 14 51 -20 114 -18 32 -56 113 -84
178 -29 66 -64 135 -78 153 -28 34 -62 43 -84 21z"/>
</g>
</svg>
