<?xml version="1.0" standalone="no"?>
<!DOCTYPE svg PUBLIC "-//W3C//DTD SVG 20010904//EN"
 "http://www.w3.org/TR/2001/REC-SVG-20010904/DTD/svg10.dtd">
<svg version="1.0" xmlns="http://www.w3.org/2000/svg"
 width="248.000000pt" height="248.000000pt" viewBox="0 0 248.000000 248.000000"
 preserveAspectRatio="xMidYMid meet">
<metadata>
Created by potrace 1.10, written by Peter Selinger 2001-2011
</metadata>
<g transform="translate(0.000000,248.000000) scale(0.100000,-0.100000)"
fill="#000000" stroke="none">
<path d="M1485 2330 c-291 -6 -501 -20 -615 -41 -30 -5 -82 -12 -115 -15 -82
-8 -109 -26 -101 -67 4 -18 11 -63 16 -102 5 -38 14 -97 20 -130 6 -33 22
-125 34 -204 24 -155 33 -171 87 -171 16 0 38 5 51 10 35 15 212 39 221 30 5
-4 5 -48 0 -96 l-8 -88 -35 -8 c-19 -4 -80 -10 -135 -14 -110 -7 -145 -21
-145 -58 0 -41 20 -48 127 -41 54 3 118 8 142 11 l44 6 -6 -102 c-3 -56 -8
-104 -11 -108 -4 -3 -32 -9 -64 -13 -358 -44 -537 -74 -570 -95 -25 -17 -29
-55 -7 -74 16 -13 25 -13 225 18 473 74 690 94 1070 98 291 4 326 6 338 21 19
26 14 50 -15 73 -22 17 -35 20 -63 15 -19 -4 -186 -10 -370 -15 -184 -4 -359
-11 -389 -15 l-53 -8 7 99 c4 54 11 103 15 107 4 5 70 17 146 27 77 11 156 24
176 30 47 13 65 42 49 78 -11 22 -16 24 -54 19 -51 -6 -250 -35 -291 -42 l-29
-5 5 91 c3 50 10 95 15 100 9 9 163 29 338 45 73 6 83 10 110 38 31 33 63 114
135 343 22 67 46 136 55 152 21 42 19 77 -7 95 -12 9 -27 15 -33 14 -5 -1
-145 -5 -310 -8z m230 -100 c3 -5 -2 -35 -12 -66 -21 -69 -29 -73 -188 -84
-66 -4 -214 -18 -330 -29 -115 -12 -250 -26 -300 -30 -49 -5 -94 -6 -98 -2 -5
5 -11 42 -14 84 l-6 75 49 5 c27 2 146 14 264 25 118 12 233 23 255 25 94 9
374 6 380 -3z m-81 -249 c7 -10 -40 -148 -56 -168 -10 -12 -44 -18 -153 -28
-118 -11 -431 -47 -508 -59 -43 -7 -79 -10 -81 -7 -10 17 -27 184 -20 191 5 4
77 13 159 19 83 7 242 23 355 36 229 26 296 29 304 16z"/>
</g>
</svg>
