<?xml version="1.0" standalone="no"?>
<!DOCTYPE svg PUBLIC "-//W3C//DTD SVG 20010904//EN"
 "http://www.w3.org/TR/2001/REC-SVG-20010904/DTD/svg10.dtd">
<svg version="1.0" xmlns="http://www.w3.org/2000/svg"
 width="248.000000pt" height="248.000000pt" viewBox="0 0 248.000000 248.000000"
 preserveAspectRatio="xMidYMid meet">
<metadata>
Created by potrace 1.10, written by Peter Selinger 2001-2011
</metadata>
<g transform="translate(0.000000,248.000000) scale(0.100000,-0.100000)"
fill="#000000" stroke="none">
<path d="M1500 2132 c-19 -1 -69 -7 -111 -12 -42 -6 -105 -13 -140 -16 -35 -2
-111 -9 -169 -14 -58 -5 -161 -12 -230 -16 -135 -7 -170 -19 -170 -57 0 -50
26 -59 128 -47 42 5 158 14 257 20 99 6 232 18 295 25 63 8 161 17 218 21 95
5 102 5 102 -13 0 -21 -21 -91 -45 -150 l-17 -41 -71 -6 c-40 -4 -157 -11
-262 -17 -264 -14 -510 -40 -830 -88 -114 -18 -143 -26 -157 -42 -22 -27 -22
-31 1 -60 l19 -23 148 23 c258 41 556 75 759 87 61 3 164 9 230 13 66 4 123 6
126 5 6 -3 -8 -60 -39 -159 -10 -31 -1 -68 18 -80 21 -13 61 5 71 33 6 15 22
65 36 112 13 47 30 90 36 96 8 8 111 16 292 24 294 13 305 15 305 60 0 37 -32
50 -111 46 -41 -3 -161 -8 -267 -12 l-193 -7 19 49 c36 94 57 192 46 222 l-10
27 -124 0 c-69 0 -141 -1 -160 -3z"/>
</g>
</svg>
