<?xml version="1.0" standalone="no"?>
<!DOCTYPE svg PUBLIC "-//W3C//DTD SVG 20010904//EN"
 "http://www.w3.org/TR/2001/REC-SVG-20010904/DTD/svg10.dtd">
<svg version="1.0" xmlns="http://www.w3.org/2000/svg"
 width="248.000000pt" height="248.000000pt" viewBox="0 0 248.000000 248.000000"
 preserveAspectRatio="xMidYMid meet">
<metadata>
Created by potrace 1.10, written by Peter Selinger 2001-2011
</metadata>
<g transform="translate(0.000000,248.000000) scale(0.100000,-0.100000)"
fill="#000000" stroke="none">
<path d="M1100 2415 c-8 -10 -12 -60 -11 -164 0 -91 -3 -153 -10 -156 -5 -4
-90 -12 -188 -19 -119 -8 -184 -16 -195 -25 -18 -15 -21 -48 -7 -70 11 -17 28
-17 235 -3 87 6 163 9 168 6 12 -8 8 -173 -5 -181 -5 -3 -69 -12 -141 -19
-164 -18 -312 -36 -491 -63 -114 -18 -143 -26 -158 -42 -21 -27 -21 -31 2 -60
l19 -24 143 23 c244 39 616 83 632 75 9 -5 9 -154 -1 -169 -4 -6 -41 -14 -82
-18 -129 -12 -284 -37 -297 -48 -16 -13 -17 -50 -1 -66 16 -16 93 -15 202 4
51 8 112 14 137 12 l44 -3 0 -85 0 -85 -120 -12 c-66 -7 -146 -15 -178 -17
-61 -3 -77 -14 -77 -51 0 -52 22 -57 200 -38 82 8 157 12 165 9 12 -4 15 -26
15 -108 0 -57 -4 -108 -8 -115 -5 -7 -84 -20 -207 -32 -218 -23 -425 -55 -456
-71 -26 -15 -25 -64 2 -84 15 -10 29 -12 47 -6 154 50 870 108 1152 95 212
-10 410 -7 426 6 18 15 18 53 0 68 -10 8 -142 14 -437 19 l-424 7 -2 110 c-1
61 1 116 5 122 8 13 181 38 327 49 50 3 100 12 113 20 27 18 29 55 2 79 -17
15 -27 16 -82 7 -56 -10 -272 -33 -338 -36 -24 -1 -25 1 -28 78 -2 44 1 83 5
87 9 9 195 27 328 33 77 3 91 7 107 25 9 12 15 28 12 36 -7 17 45 202 60 214
6 5 137 14 291 21 294 13 305 15 305 60 0 37 -32 50 -111 46 -41 -3 -161 -8
-267 -12 l-193 -7 19 49 c36 94 57 192 46 222 l-10 27 -154 -2 c-85 -1 -217
-10 -293 -19 -76 -9 -141 -14 -145 -10 -3 4 -8 73 -9 153 -2 91 -7 150 -14
159 -15 18 -53 18 -69 -1z m580 -392 c0 -21 -21 -91 -45 -150 l-17 -41 -71 -7
c-40 -3 -135 -7 -212 -8 l-140 -2 -3 70 c-4 118 -16 110 165 129 202 22 187
21 261 24 54 2 62 0 62 -15z m-98 -298 c6 -6 -25 -124 -40 -152 -10 -17 -30
-21 -174 -30 -90 -6 -166 -9 -170 -6 -11 6 -9 135 2 153 7 12 48 17 187 26 98
6 181 11 184 12 3 1 8 0 11 -3z"/>
</g>
</svg>
