<?xml version="1.0" standalone="no"?>
<!DOCTYPE svg PUBLIC "-//W3C//DTD SVG 20010904//EN"
 "http://www.w3.org/TR/2001/REC-SVG-20010904/DTD/svg10.dtd">
<svg version="1.0" xmlns="http://www.w3.org/2000/svg"
 width="248.000000pt" height="248.000000pt" viewBox="0 0 248.000000 248.000000"
 preserveAspectRatio="xMidYMid meet">
<metadata>
Created by potrace 1.10, written by Peter Selinger 2001-2011
</metadata>
<g transform="translate(0.000000,248.000000) scale(0.100000,-0.100000)"
fill="#000000" stroke="none">
<path d="M1485 2330 c-291 -6 -501 -20 -615 -41 -30 -5 -82 -12 -115 -15 -82
-8 -109 -26 -101 -67 4 -18 11 -61 16 -97 4 -36 19 -130 33 -210 14 -80 29
-171 33 -204 10 -83 50 -119 89 -79 20 20 16 74 -22 293 -14 80 -28 173 -30
206 l-5 61 53 6 c416 47 878 72 893 49 12 -20 -110 -384 -146 -435 -35 -49 -3
-99 52 -82 41 13 74 87 161 362 21 67 45 136 54 152 21 42 19 77 -7 95 -12 9
-27 15 -33 14 -5 -1 -145 -5 -310 -8z"/>
</g>
</svg>
