<?xml version="1.0" standalone="no"?>
<!DOCTYPE svg PUBLIC "-//W3C//DTD SVG 20010904//EN"
 "http://www.w3.org/TR/2001/REC-SVG-20010904/DTD/svg10.dtd">
<svg version="1.0" xmlns="http://www.w3.org/2000/svg"
 width="248.000000pt" height="248.000000pt" viewBox="0 0 248.000000 248.000000"
 preserveAspectRatio="xMidYMid meet">
<metadata>
Created by potrace 1.10, written by Peter Selinger 2001-2011
</metadata>
<g transform="translate(0.000000,248.000000) scale(0.100000,-0.100000)"
fill="#000000" stroke="none">
<path d="M620 2260 c-49 -49 -3 -92 162 -153 208 -77 278 -83 286 -28 5 33
-23 58 -77 70 -75 16 -269 88 -298 111 -32 25 -48 25 -73 0z"/>
<path d="M890 1763 c-258 -67 -478 -113 -546 -113 -45 0 -64 -14 -64 -46 0
-32 37 -54 90 -54 66 0 230 32 434 85 98 25 182 45 187 43 5 -2 -1 -19 -14
-38 -13 -19 -38 -59 -55 -88 -100 -168 -324 -400 -596 -619 -119 -96 -137
-122 -106 -153 11 -11 26 -20 34 -20 18 0 184 127 312 239 l104 92 0 -108 c-1
-205 -20 -658 -29 -691 -18 -60 12 -101 63 -88 27 7 42 40 50 106 11 89 28
736 22 806 l-7 71 86 104 c82 99 107 135 220 309 27 41 64 92 82 113 38 43 42
79 11 101 -12 9 -25 15 -28 15 -3 -1 -115 -30 -250 -66z"/>
<path d="M1050 1339 c-52 -44 -126 -99 -165 -122 -57 -34 -71 -47 -73 -70 -4
-33 13 -57 39 -57 44 0 183 95 321 218 49 44 60 76 36 100 -27 27 -63 12 -158
-69z"/>
</g>
</svg>
