<?xml version="1.0" standalone="no"?>
<!DOCTYPE svg PUBLIC "-//W3C//DTD SVG 20010904//EN"
 "http://www.w3.org/TR/2001/REC-SVG-20010904/DTD/svg10.dtd">
<svg version="1.0" xmlns="http://www.w3.org/2000/svg"
 width="248.000000pt" height="248.000000pt" viewBox="0 0 248.000000 248.000000"
 preserveAspectRatio="xMidYMid meet">
<metadata>
Created by potrace 1.10, written by Peter Selinger 2001-2011
</metadata>
<g transform="translate(0.000000,248.000000) scale(0.100000,-0.100000)"
fill="#000000" stroke="none">
<path d="M1690 2274 c-34 -39 -28 -296 10 -504 32 -175 33 -163 -25 -172 -27
-4 -99 -17 -158 -29 -59 -12 -110 -19 -112 -17 -3 3 3 38 14 79 10 41 22 106
26 146 l7 72 61 20 c34 10 75 22 92 26 16 4 36 11 42 17 21 17 15 56 -12 74
-27 18 -52 15 -150 -17 -33 -10 -88 -23 -122 -27 l-63 -9 0 77 c0 96 -15 178
-37 202 -19 21 -58 24 -70 6 -4 -7 -8 -78 -8 -157 l0 -145 -125 -19 c-145 -22
-174 -33 -178 -68 -4 -33 19 -52 63 -53 28 -1 35 -5 40 -26 10 -47 23 -255 16
-263 -4 -4 -40 -9 -81 -11 -57 -2 -76 -7 -87 -21 -18 -26 -16 -42 8 -66 19
-19 29 -21 88 -16 36 3 129 17 206 30 77 14 192 32 255 41 63 9 142 22 175 30
33 7 87 16 120 20 l61 7 22 -93 c38 -161 92 -360 119 -433 13 -38 27 -79 29
-90 6 -25 -118 -192 -235 -317 -81 -88 -96 -119 -69 -146 7 -7 23 -12 37 -12
36 0 152 123 298 316 l22 29 7 -25 c19 -69 237 -455 286 -508 29 -30 73 -29
93 2 18 27 42 206 47 342 3 100 -6 124 -48 124 -39 0 -51 -34 -58 -164 -4 -66
-10 -124 -13 -129 -13 -21 -175 271 -218 394 l-27 76 22 44 c105 205 121 319
45 319 -27 0 -41 -15 -50 -55 -10 -47 -57 -165 -66 -165 -8 0 -36 88 -63 195
-8 33 -28 113 -45 179 -17 65 -31 121 -31 125 0 4 73 15 163 25 90 11 178 24
197 30 42 14 56 47 31 77 l-18 23 -192 -23 c-106 -13 -194 -21 -196 -19 -9 9
-45 217 -55 318 -6 58 -10 153 -8 211 2 79 -1 110 -11 122 -17 21 -55 22 -71
1z m-350 -492 c0 -26 -9 -79 -19 -117 -11 -39 -21 -83 -24 -100 -3 -28 -7 -30
-73 -41 -120 -21 -109 -31 -122 109 -18 181 -27 161 81 179 50 8 107 16 125
17 32 1 32 1 32 -47z"/>
<path d="M1922 2138 c-24 -24 -12 -59 41 -115 28 -31 77 -72 107 -91 30 -19
63 -44 73 -54 22 -23 75 -21 90 3 20 32 -1 65 -75 117 -40 28 -96 73 -125 101
-52 52 -87 63 -111 39z"/>
<path d="M730 2094 c-197 -59 -324 -90 -455 -110 -122 -18 -155 -33 -155 -68
0 -45 38 -58 123 -42 l39 7 -3 -470 -4 -470 -66 -31 c-36 -16 -75 -30 -87 -30
-25 0 -62 -33 -62 -55 0 -19 36 -55 55 -55 29 0 144 50 332 144 106 53 195 96
198 96 4 0 5 -149 3 -331 -3 -318 -2 -331 16 -345 25 -18 37 -18 62 0 18 13
19 32 25 253 4 131 7 292 8 358 l1 120 38 20 c29 16 38 27 40 52 4 35 -24 59
-59 50 -18 -5 -19 3 -19 201 0 114 3 298 7 409 l6 201 61 17 c78 22 106 40
106 69 0 25 -29 57 -51 55 -8 -1 -79 -21 -159 -45z m-72 -246 l-3 -113 -110
-32 c-166 -48 -155 -54 -155 80 l0 112 123 32 c67 17 128 32 135 32 10 1 12
-25 10 -111z m-8 -311 l0 -83 -130 -41 -130 -40 0 92 0 92 118 31 c64 16 123
30 130 31 9 1 12 -22 12 -82z m-1 -304 l0 -108 -125 -60 c-69 -33 -130 -61
-135 -63 -10 -4 -12 116 -3 204 l6 59 117 37 c64 20 122 37 129 37 9 1 12 -27
11 -106z"/>
<path d="M1350 1293 c-14 -2 -92 -17 -175 -32 -82 -16 -166 -32 -186 -35 -59
-10 -62 -20 -50 -143 6 -59 13 -187 17 -283 8 -225 7 -224 112 -215 42 4 119
15 170 24 78 15 94 16 104 4 21 -26 61 -11 85 32 18 33 21 49 16 92 -3 29 -1
116 5 195 25 320 25 316 -2 343 -24 24 -41 27 -96 18z m6 -149 c-3 -26 -6 -63
-6 -83 l0 -36 -113 -19 c-61 -11 -128 -21 -149 -24 l-36 -4 -4 72 c-1 40 1 74
6 77 9 6 270 61 295 62 11 1 12 -9 7 -45z m-16 -251 c0 -16 -3 -58 -6 -94 l-7
-66 -81 -16 c-44 -9 -102 -18 -127 -21 -46 -5 -47 -5 -53 26 -3 17 -6 57 -6
89 l0 58 53 10 c103 21 202 39 215 40 7 1 12 -11 12 -26z"/>
</g>
</svg>
