<?xml version="1.0" standalone="no"?>
<!DOCTYPE svg PUBLIC "-//W3C//DTD SVG 20010904//EN"
 "http://www.w3.org/TR/2001/REC-SVG-20010904/DTD/svg10.dtd">
<svg version="1.0" xmlns="http://www.w3.org/2000/svg"
 width="248.000000pt" height="248.000000pt" viewBox="0 0 248.000000 248.000000"
 preserveAspectRatio="xMidYMid meet">
<metadata>
Created by potrace 1.10, written by Peter Selinger 2001-2011
</metadata>
<g transform="translate(0.000000,248.000000) scale(0.100000,-0.100000)"
fill="#000000" stroke="none">
<path d="M1193 2218 c-4 -7 -8 -78 -8 -157 l0 -145 -125 -19 c-145 -22 -174
-33 -178 -68 -7 -58 38 -63 236 -29 64 11 168 27 229 35 62 9 132 23 155 31
24 8 63 19 88 25 24 6 50 15 57 21 21 17 15 56 -12 74 -27 18 -52 15 -150 -17
-33 -10 -88 -23 -122 -27 l-63 -9 0 77 c0 96 -15 178 -37 202 -19 21 -58 24
-70 6z"/>
<path d="M730 2094 c-197 -59 -324 -90 -455 -110 -122 -18 -155 -33 -155 -68
0 -45 38 -58 123 -42 l39 7 -3 -470 -4 -470 -66 -31 c-36 -16 -75 -30 -87 -30
-25 0 -62 -33 -62 -55 0 -19 36 -55 55 -55 29 0 144 50 332 144 106 53 195 96
198 96 4 0 5 -149 3 -331 -3 -318 -2 -331 16 -345 25 -18 37 -18 62 0 18 13
19 32 25 253 4 131 7 292 8 358 l1 120 38 20 c29 16 38 27 40 52 4 35 -24 59
-59 50 -18 -5 -19 3 -19 201 0 114 3 298 7 409 l6 201 61 17 c78 22 106 40
106 69 0 25 -29 57 -51 55 -8 -1 -79 -21 -159 -45z m-72 -246 l-3 -113 -110
-32 c-166 -48 -155 -54 -155 80 l0 112 123 32 c67 17 128 32 135 32 10 1 12
-25 10 -111z m-8 -311 l0 -83 -130 -41 -130 -40 0 92 0 92 118 31 c64 16 123
30 130 31 9 1 12 -22 12 -82z m-1 -304 l0 -108 -125 -60 c-69 -33 -130 -61
-135 -63 -10 -4 -12 116 -3 204 l6 59 117 37 c64 20 122 37 129 37 9 1 12 -27
11 -106z"/>
</g>
</svg>
