<?xml version="1.0" standalone="no"?>
<!DOCTYPE svg PUBLIC "-//W3C//DTD SVG 20010904//EN"
 "http://www.w3.org/TR/2001/REC-SVG-20010904/DTD/svg10.dtd">
<svg version="1.0" xmlns="http://www.w3.org/2000/svg"
 width="248.000000pt" height="248.000000pt" viewBox="0 0 248.000000 248.000000"
 preserveAspectRatio="xMidYMid meet">
<metadata>
Created by potrace 1.10, written by Peter Selinger 2001-2011
</metadata>
<g transform="translate(0.000000,248.000000) scale(0.100000,-0.100000)"
fill="#000000" stroke="none">
<path d="M710 2359 c-52 -5 -128 -10 -167 -12 -76 -4 -99 -15 -114 -55 -19
-50 -142 -221 -226 -315 -48 -55 -96 -109 -107 -122 -23 -28 -14 -62 20 -77
20 -10 29 -8 52 9 46 33 216 237 280 335 34 51 66 98 71 104 9 11 347 41 357
31 3 -3 -8 -44 -25 -93 -33 -94 -84 -183 -162 -282 -27 -35 -49 -70 -49 -78 0
-17 36 -54 53 -54 6 0 19 6 27 13 54 44 188 244 211 315 6 20 27 77 46 126 39
100 39 135 3 153 -28 14 -124 15 -270 2z"/>
<path d="M241 1727 c-7 -9 -12 -141 -15 -408 -5 -435 -18 -610 -63 -864 -8
-49 -22 -113 -29 -142 -24 -89 -15 -123 33 -123 30 0 59 47 74 120 6 30 17 84
24 120 15 72 38 248 56 440 7 69 13 280 13 470 1 315 -1 348 -17 373 -19 29
-57 36 -76 14z"/>
</g>
</svg>
