<?xml version="1.0" standalone="no"?>
<!DOCTYPE svg PUBLIC "-//W3C//DTD SVG 20010904//EN"
 "http://www.w3.org/TR/2001/REC-SVG-20010904/DTD/svg10.dtd">
<svg version="1.0" xmlns="http://www.w3.org/2000/svg"
 width="248.000000pt" height="248.000000pt" viewBox="0 0 248.000000 248.000000"
 preserveAspectRatio="xMidYMid meet">
<metadata>
Created by potrace 1.10, written by Peter Selinger 2001-2011
</metadata>
<g transform="translate(0.000000,248.000000) scale(0.100000,-0.100000)"
fill="#000000" stroke="none">
<path d="M660 2355 c-79 -8 -148 -12 -152 -9 -21 13 -58 -11 -77 -49 -39 -83
-128 -207 -221 -312 -52 -59 -103 -117 -114 -130 -38 -47 17 -105 68 -71 56
36 264 292 324 398 15 26 36 49 47 52 34 8 335 29 341 24 3 -3 -9 -45 -26 -94
-31 -90 -79 -174 -160 -282 l-45 -60 -105 -21 c-58 -12 -139 -28 -180 -36
-114 -22 -118 -24 -124 -43 -3 -9 -8 -190 -10 -402 -6 -462 -25 -694 -77 -935
-31 -144 -33 -169 -15 -184 24 -20 58 -9 79 26 30 52 97 431 97 550 0 22 6 46
13 55 14 18 134 41 357 68 85 11 170 22 188 26 l32 7 0 -343 0 -343 -23 21
c-26 24 -66 29 -85 10 -25 -25 -12 -56 49 -117 50 -50 66 -61 94 -61 41 0 63
20 69 63 3 18 7 397 10 843 3 620 1 817 -8 835 -10 21 -19 24 -66 24 -30 0
-74 -4 -98 -9 l-43 -8 46 72 c54 84 68 115 125 264 23 59 40 120 38 134 -6 55
-72 61 -348 37z m248 -742 l-3 -147 -95 -17 c-52 -10 -98 -18 -103 -18 -4 -1
-6 65 -5 146 l3 146 80 17 c44 10 90 18 103 19 l23 1 -3 -147z m-318 -56 l0
-143 -120 -23 c-67 -13 -123 -22 -125 -20 -2 2 -5 67 -6 144 l-2 140 24 3 c13
1 51 9 84 17 61 15 96 21 128 24 15 1 17 -12 17 -142z m310 -357 l0 -159 -37
-10 c-21 -5 -66 -12 -101 -16 l-63 -6 3 158 3 158 85 17 c47 9 91 17 98 17 9
1 12 -37 12 -159z m-310 -55 l0 -155 -27 0 c-25 0 -150 -21 -212 -36 l-24 -5
6 152 c4 84 9 154 11 157 7 7 177 40 214 41 l32 1 0 -155z"/>
<path d="M1689 2293 c-11 -12 -15 -79 -19 -292 l-5 -276 -60 -8 c-33 -4 -108
-14 -167 -22 -59 -8 -140 -15 -181 -15 -124 0 -118 16 -106 -305 11 -288 15
-309 63 -321 13 -3 117 4 231 15 115 12 210 20 212 17 2 -2 1 -159 -3 -350 -6
-304 -9 -346 -23 -350 -80 -24 -396 -96 -418 -96 -52 0 -72 -50 -35 -83 28
-26 75 -21 276 28 192 46 376 87 506 111 41 7 129 25 194 39 66 13 120 24 121
22 1 -1 15 -42 30 -92 31 -99 48 -125 80 -125 28 0 45 18 45 50 1 21 -92 318
-148 478 -20 58 -49 92 -76 92 -43 0 -60 -46 -34 -93 11 -21 57 -167 61 -196
2 -13 -120 -43 -315 -76 -47 -8 -98 -19 -113 -25 -14 -5 -31 -10 -37 -10 -16
0 -3 671 13 681 6 3 59 10 117 13 104 7 288 31 325 42 26 8 36 43 48 158 22
226 28 400 14 432 -25 61 -114 66 -378 23 -65 -10 -120 -19 -123 -19 -2 0 -4
118 -4 263 0 221 -2 266 -16 285 -18 26 -56 29 -75 5z m495 -695 c-2 -46 -9
-145 -16 -220 l-11 -137 -66 -10 c-36 -5 -102 -13 -146 -16 -44 -3 -101 -8
-127 -11 l-48 -6 0 215 0 216 53 10 c126 24 226 37 314 39 l52 2 -5 -82z
m-524 -188 l0 -209 -32 -6 c-67 -11 -350 -36 -355 -32 -2 3 -7 68 -9 144 -2
76 -6 165 -8 199 l-3 61 96 12 c53 6 139 18 191 25 52 8 101 14 108 15 9 1 12
-47 12 -209z"/>
</g>
</svg>
