<?xml version="1.0" standalone="no"?>
<!DOCTYPE svg PUBLIC "-//W3C//DTD SVG 20010904//EN"
 "http://www.w3.org/TR/2001/REC-SVG-20010904/DTD/svg10.dtd">
<svg version="1.0" xmlns="http://www.w3.org/2000/svg"
 width="248.000000pt" height="248.000000pt" viewBox="0 0 248.000000 248.000000"
 preserveAspectRatio="xMidYMid meet">
<metadata>
Created by potrace 1.10, written by Peter Selinger 2001-2011
</metadata>
<g transform="translate(0.000000,248.000000) scale(0.100000,-0.100000)"
fill="#000000" stroke="none">
<path d="M730 2094 c-197 -59 -324 -90 -455 -110 -122 -18 -155 -33 -155 -68
0 -45 38 -58 123 -42 l39 7 -3 -470 -4 -470 -66 -31 c-36 -16 -75 -30 -87 -30
-25 0 -62 -33 -62 -55 0 -19 36 -55 55 -55 29 0 145 50 350 152 116 57 246
122 290 144 77 38 80 40 80 74 0 28 -5 36 -26 44 -23 8 -54 -5 -224 -87 -108
-54 -199 -97 -201 -97 -6 0 -5 140 2 206 l6 59 161 50 c88 27 171 58 184 68
39 31 25 87 -22 87 -11 0 -89 -22 -172 -49 l-153 -49 0 93 0 93 93 22 c119 29
226 66 249 87 22 20 24 56 3 73 -18 15 -36 11 -185 -34 -171 -52 -160 -58
-160 77 l0 112 78 19 c146 36 427 118 450 132 27 18 29 55 4 77 -24 22 -22 22
-192 -29z"/>
</g>
</svg>
