<?xml version="1.0" standalone="no"?>
<!DOCTYPE svg PUBLIC "-//W3C//DTD SVG 20010904//EN"
 "http://www.w3.org/TR/2001/REC-SVG-20010904/DTD/svg10.dtd">
<svg version="1.0" xmlns="http://www.w3.org/2000/svg"
 width="248.000000pt" height="248.000000pt" viewBox="0 0 248.000000 248.000000"
 preserveAspectRatio="xMidYMid meet">
<metadata>
Created by potrace 1.10, written by Peter Selinger 2001-2011
</metadata>
<g transform="translate(0.000000,248.000000) scale(0.100000,-0.100000)"
fill="#000000" stroke="none">
<path d="M1749 2325 c-12 -11 -443 -37 -550 -32 -64 3 -123 1 -132 -5 -9 -5
-24 -23 -33 -41 -21 -41 -177 -201 -271 -279 -40 -32 -135 -101 -210 -152
-140 -94 -161 -118 -133 -152 25 -29 65 -15 185 66 216 144 357 266 496 428
l36 42 184 0 c101 0 214 3 252 7 40 3 67 2 67 -4 0 -5 -41 -55 -91 -110 -81
-91 -182 -176 -337 -283 -38 -26 -54 -57 -41 -82 10 -18 15 -17 -206 -38 -263
-25 -325 -43 -325 -95 0 -33 24 -48 62 -41 81 17 257 36 583 66 66 6 188 17
270 25 288 28 349 30 343 13 -3 -8 -18 -57 -33 -109 -45 -157 -66 -219 -96
-283 -35 -74 -36 -91 -5 -111 61 -40 110 53 206 392 59 209 54 241 -38 229
-26 -3 -110 -10 -187 -16 -77 -5 -212 -16 -300 -24 -144 -12 -177 -13 -164 -3
2 2 56 42 119 88 109 80 155 126 349 343 88 98 94 139 25 160 -11 3 -23 4 -25
1z"/>
</g>
</svg>
