<?xml version="1.0" standalone="no"?>
<!DOCTYPE svg PUBLIC "-//W3C//DTD SVG 20010904//EN"
 "http://www.w3.org/TR/2001/REC-SVG-20010904/DTD/svg10.dtd">
<svg version="1.0" xmlns="http://www.w3.org/2000/svg"
 width="248.000000pt" height="248.000000pt" viewBox="0 0 248.000000 248.000000"
 preserveAspectRatio="xMidYMid meet">
<metadata>
Created by potrace 1.10, written by Peter Selinger 2001-2011
</metadata>
<g transform="translate(0.000000,248.000000) scale(0.100000,-0.100000)"
fill="#000000" stroke="none">
<path d="M1735 2184 c-11 -1 -126 -10 -255 -18 -520 -35 -668 -48 -785 -66
-77 -12 -95 -32 -89 -98 11 -119 25 -340 31 -475 7 -170 13 -185 80 -194 42
-5 42 -6 28 -32 -43 -81 -161 -195 -379 -364 -53 -41 -47 -107 9 -107 21 0 61
27 208 144 131 104 277 279 277 333 0 12 4 24 9 27 25 16 564 54 871 62 137 3
145 7 154 68 31 214 55 461 56 564 0 98 -15 135 -61 151 -29 10 -105 13 -154
5z m105 -191 c0 -49 -3 -105 -6 -125 l-7 -38 -81 0 c-44 0 -135 -4 -201 -10
-66 -6 -205 -15 -310 -20 -167 -9 -332 -21 -461 -33 l-40 -4 -11 116 c-6 64
-10 117 -10 118 5 5 234 25 437 38 129 9 309 22 400 29 91 8 193 14 228 15
l62 1 0 -87z m-20 -289 c0 -15 -14 -109 -26 -170 -3 -18 -15 -22 -86 -32 -46
-6 -175 -14 -288 -17 -113 -3 -270 -12 -350 -20 -80 -8 -184 -18 -232 -21
l-88 -7 0 50 c0 28 -3 77 -6 110 l-7 60 139 12 c77 6 229 16 339 22 110 5 238
13 285 18 47 4 138 9 203 10 102 1 117 -1 117 -15z"/>
</g>
</svg>
