<?xml version="1.0" standalone="no"?>
<!DOCTYPE svg PUBLIC "-//W3C//DTD SVG 20010904//EN"
 "http://www.w3.org/TR/2001/REC-SVG-20010904/DTD/svg10.dtd">
<svg version="1.0" xmlns="http://www.w3.org/2000/svg"
 width="248.000000pt" height="248.000000pt" viewBox="0 0 248.000000 248.000000"
 preserveAspectRatio="xMidYMid meet">
<metadata>
Created by potrace 1.10, written by Peter Selinger 2001-2011
</metadata>
<g transform="translate(0.000000,248.000000) scale(0.100000,-0.100000)"
fill="#000000" stroke="none">
<path d="M719 2116 c-2 -2 -69 -14 -149 -25 -362 -54 -380 -59 -398 -111 -6
-17 -11 -114 -11 -222 -1 -106 -6 -344 -12 -528 -6 -184 -9 -397 -7 -473 3
-123 5 -140 22 -153 25 -18 37 -18 62 0 18 14 19 33 25 330 3 174 8 318 10
319 8 6 395 76 442 81 l49 4 -3 -338 c-4 -363 -3 -370 47 -370 15 0 30 10 41
27 17 25 18 76 21 697 3 469 1 682 -7 707 -9 28 -19 40 -43 48 -31 11 -81 15
-89 7z m31 -391 l0 -285 -44 0 c-24 0 -123 -16 -220 -35 -97 -19 -188 -35
-203 -35 -25 0 -26 1 -19 53 3 28 6 156 6 282 l0 231 98 17 c53 9 149 24 212
33 63 9 117 18 119 20 2 2 15 4 28 4 l23 0 0 -285z"/>
</g>
</svg>
