<?xml version="1.0" standalone="no"?>
<!DOCTYPE svg PUBLIC "-//W3C//DTD SVG 20010904//EN"
 "http://www.w3.org/TR/2001/REC-SVG-20010904/DTD/svg10.dtd">
<svg version="1.0" xmlns="http://www.w3.org/2000/svg"
 width="248.000000pt" height="248.000000pt" viewBox="0 0 248.000000 248.000000"
 preserveAspectRatio="xMidYMid meet">
<metadata>
Created by potrace 1.10, written by Peter Selinger 2001-2011
</metadata>
<g transform="translate(0.000000,248.000000) scale(0.100000,-0.100000)"
fill="#000000" stroke="none">
<path d="M890 1865 c-6 -8 -16 -29 -20 -47 -14 -54 -65 -168 -109 -243 -42
-71 -51 -111 -29 -133 17 -17 53 -15 70 6 48 56 145 252 170 344 8 31 7 43 -6
63 -19 28 -57 33 -76 10z"/>
<path d="M162 1768 c-16 -16 -15 -80 3 -125 7 -21 24 -72 36 -113 28 -94 73
-176 101 -183 60 -16 75 41 33 127 -24 50 -85 237 -85 261 0 34 -63 58 -88 33z"/>
</g>
</svg>
