<?xml version="1.0" standalone="no"?>
<!DOCTYPE svg PUBLIC "-//W3C//DTD SVG 20010904//EN"
 "http://www.w3.org/TR/2001/REC-SVG-20010904/DTD/svg10.dtd">
<svg version="1.0" xmlns="http://www.w3.org/2000/svg"
 width="248.000000pt" height="248.000000pt" viewBox="0 0 248.000000 248.000000"
 preserveAspectRatio="xMidYMid meet">
<metadata>
Created by potrace 1.10, written by Peter Selinger 2001-2011
</metadata>
<g transform="translate(0.000000,248.000000) scale(0.100000,-0.100000)"
fill="#000000" stroke="none">
<path d="M730 2323 c-6 -10 -25 -47 -44 -83 -57 -111 -120 -225 -139 -250 -10
-14 -42 -65 -71 -115 -67 -115 -149 -237 -228 -344 -108 -144 -111 -148 -104
-176 7 -27 44 -42 70 -28 22 12 119 136 185 236 l58 88 7 -119 c4 -66 2 -285
-4 -488 -7 -203 -10 -490 -8 -637 3 -252 4 -270 22 -283 25 -18 37 -18 62 0
18 14 19 36 27 503 4 268 9 650 10 848 3 390 2 380 62 460 35 47 171 297 179
329 14 57 -56 106 -84 59z"/>
<path d="M1096 2288 c-9 -12 -16 -40 -16 -61 0 -55 -34 -162 -97 -305 -52
-118 -54 -125 -38 -148 18 -27 56 -32 75 -9 6 8 36 67 64 132 l53 118 134 7
c74 4 175 12 224 18 50 6 173 15 275 20 402 22 410 23 410 80 0 49 -24 55
-185 42 -77 -7 -214 -16 -305 -22 -91 -6 -205 -15 -255 -20 -49 -5 -129 -9
-176 -9 l-87 -1 9 41 c11 46 5 105 -12 126 -17 20 -56 15 -73 -9z"/>
</g>
</svg>
