<?xml version="1.0" standalone="no"?>
<!DOCTYPE svg PUBLIC "-//W3C//DTD SVG 20010904//EN"
 "http://www.w3.org/TR/2001/REC-SVG-20010904/DTD/svg10.dtd">
<svg version="1.0" xmlns="http://www.w3.org/2000/svg"
 width="248.000000pt" height="248.000000pt" viewBox="0 0 248.000000 248.000000"
 preserveAspectRatio="xMidYMid meet">
<metadata>
Created by potrace 1.10, written by Peter Selinger 2001-2011
</metadata>
<g transform="translate(0.000000,248.000000) scale(0.100000,-0.100000)"
fill="#000000" stroke="none">
<path d="M800 2284 c-52 -48 -131 -119 -175 -160 -44 -40 -102 -90 -130 -112
-27 -22 -83 -74 -123 -115 -101 -105 -99 -113 33 -182 141 -73 166 -88 163
-102 -3 -13 -94 -132 -174 -228 -71 -85 -147 -194 -163 -232 -16 -38 -7 -72
22 -82 23 -9 80 3 342 72 248 65 316 87 342 113 25 25 30 53 11 72 -18 18 -40
15 -141 -18 -119 -38 -409 -112 -415 -105 -3 3 9 22 26 43 33 38 94 117 217
277 37 50 104 128 148 175 118 126 199 237 195 268 -2 14 -10 29 -19 35 -31
19 -65 -1 -118 -72 -28 -39 -85 -106 -126 -149 l-75 -80 -83 49 c-45 26 -89
52 -97 58 -12 7 -6 18 35 61 28 28 85 79 128 113 42 34 77 64 77 67 0 4 59 58
130 121 75 65 133 124 137 138 8 33 -8 55 -43 59 -24 2 -45 -13 -124 -84z"/>
</g>
</svg>
