<?xml version="1.0" standalone="no"?>
<!DOCTYPE svg PUBLIC "-//W3C//DTD SVG 20010904//EN"
 "http://www.w3.org/TR/2001/REC-SVG-20010904/DTD/svg10.dtd">
<svg version="1.0" xmlns="http://www.w3.org/2000/svg"
 width="248.000000pt" height="248.000000pt" viewBox="0 0 248.000000 248.000000"
 preserveAspectRatio="xMidYMid meet">
<metadata>
Created by potrace 1.10, written by Peter Selinger 2001-2011
</metadata>
<g transform="translate(0.000000,248.000000) scale(0.100000,-0.100000)"
fill="#000000" stroke="none">
<path d="M730 2323 c-6 -10 -25 -47 -44 -83 -57 -111 -120 -225 -139 -250 -10
-14 -42 -65 -71 -115 -67 -115 -149 -237 -228 -344 -108 -144 -111 -148 -104
-176 7 -27 44 -42 70 -28 37 21 248 317 351 493 21 36 53 88 71 115 52 80 170
297 178 329 14 57 -56 106 -84 59z"/>
</g>
</svg>
