<?xml version="1.0" standalone="no"?>
<!DOCTYPE svg PUBLIC "-//W3C//DTD SVG 20010904//EN"
 "http://www.w3.org/TR/2001/REC-SVG-20010904/DTD/svg10.dtd">
<svg version="1.0" xmlns="http://www.w3.org/2000/svg"
 width="248.000000pt" height="248.000000pt" viewBox="0 0 248.000000 248.000000"
 preserveAspectRatio="xMidYMid meet">
<metadata>
Created by potrace 1.10, written by Peter Selinger 2001-2011
</metadata>
<g transform="translate(0.000000,248.000000) scale(0.100000,-0.100000)"
fill="#000000" stroke="none">
<path d="M556 2308 c-10 -17 -16 -80 -21 -243 -4 -121 -11 -245 -16 -275 -5
-30 -9 -78 -9 -107 0 -61 10 -55 -155 -79 -156 -21 -243 -40 -261 -54 -21 -19
-17 -58 9 -74 20 -14 37 -13 162 8 77 13 161 26 188 30 l47 6 0 -688 c0 -739
0 -734 51 -740 55 -6 54 -28 59 741 l5 709 120 29 c66 15 155 36 198 44 56 12
80 22 88 36 13 26 2 58 -24 68 -27 10 -226 -26 -360 -65 -17 -5 -18 0 -14 73
29 460 31 551 14 577 -22 33 -61 35 -81 4z"/>
</g>
</svg>
