<?xml version="1.0" standalone="no"?>
<!DOCTYPE svg PUBLIC "-//W3C//DTD SVG 20010904//EN"
 "http://www.w3.org/TR/2001/REC-SVG-20010904/DTD/svg10.dtd">
<svg version="1.0" xmlns="http://www.w3.org/2000/svg"
 width="248.000000pt" height="248.000000pt" viewBox="0 0 248.000000 248.000000"
 preserveAspectRatio="xMidYMid meet">
<metadata>
Created by potrace 1.10, written by Peter Selinger 2001-2011
</metadata>
<g transform="translate(0.000000,248.000000) scale(0.100000,-0.100000)"
fill="#000000" stroke="none">
<path d="M620 2319 c-41 -5 -118 -16 -170 -24 -52 -8 -120 -17 -150 -21 -68
-8 -100 -27 -100 -59 0 -54 47 -61 220 -30 85 15 200 27 200 20 0 -2 -11 -20
-23 -39 -49 -71 -92 -123 -149 -177 -50 -49 -58 -62 -58 -94 0 -31 9 -47 51
-93 52 -57 105 -158 130 -247 21 -77 18 -391 -5 -474 -25 -93 -57 -172 -66
-169 -5 2 -26 28 -47 58 -41 59 -82 82 -111 64 -27 -17 -27 -62 0 -93 13 -14
42 -52 63 -84 45 -66 60 -77 108 -77 42 0 56 16 95 105 140 321 112 744 -63
959 l-45 56 32 22 c39 29 258 322 258 346 0 52 -46 66 -170 51z"/>
</g>
</svg>
