<?xml version="1.0" standalone="no"?>
<!DOCTYPE svg PUBLIC "-//W3C//DTD SVG 20010904//EN"
 "http://www.w3.org/TR/2001/REC-SVG-20010904/DTD/svg10.dtd">
<svg version="1.0" xmlns="http://www.w3.org/2000/svg"
 width="248.000000pt" height="248.000000pt" viewBox="0 0 248.000000 248.000000"
 preserveAspectRatio="xMidYMid meet">
<metadata>
Created by potrace 1.10, written by Peter Selinger 2001-2011
</metadata>
<g transform="translate(0.000000,248.000000) scale(0.100000,-0.100000)"
fill="#000000" stroke="none">
<path d="M1506 2398 c-10 -15 -17 -67 -22 -150 l-7 -127 -36 -5 c-20 -3 -74
-8 -121 -12 -121 -9 -309 -40 -326 -54 -22 -19 -17 -58 10 -75 21 -14 33 -14
125 1 56 9 108 14 115 11 8 -3 16 -23 19 -44 2 -21 10 -73 17 -115 8 -43 11
-80 9 -83 -8 -7 -277 -45 -397 -55 -115 -10 -152 -26 -152 -65 0 -38 33 -54
99 -49 70 6 255 30 381 49 218 33 401 58 705 95 44 6 150 14 236 20 86 5 168
14 182 19 44 17 46 74 3 90 -24 9 -278 -4 -378 -19 -37 -5 -82 -10 -101 -10
l-34 0 13 63 c8 34 16 88 20 120 4 32 12 60 18 62 6 3 61 9 122 14 139 13 164
23 164 67 0 56 -24 57 -385 15 -49 -5 -114 -13 -144 -17 l-54 -7 7 117 c6 99
4 122 -9 142 -20 31 -60 32 -79 2z m257 -390 c-3 -24 -12 -70 -20 -103 -8 -33
-18 -70 -20 -82 -4 -16 -14 -24 -37 -27 -120 -18 -279 -36 -282 -34 -7 8 -47
228 -42 233 7 7 312 52 365 54 l41 1 -5 -42z"/>
<path d="M620 2319 c-41 -5 -104 -14 -140 -20 -36 -5 -108 -16 -160 -23 -171
-25 -179 -34 -162 -184 6 -53 14 -322 18 -597 19 -1450 14 -1360 73 -1353 53
6 53 10 46 548 -8 522 -23 1340 -27 1425 l-3 50 35 3 c19 1 73 9 120 17 101
17 200 27 200 20 0 -17 -97 -142 -157 -203 -66 -65 -73 -76 -73 -112 0 -33 6
-45 45 -81 47 -44 112 -163 136 -249 20 -72 17 -400 -5 -479 -25 -93 -57 -173
-66 -169 -5 2 -26 28 -47 58 -41 59 -82 82 -111 64 -26 -17 -26 -58 1 -90 13
-16 42 -57 65 -90 23 -34 48 -64 57 -68 32 -12 82 -6 97 12 27 32 79 160 104
258 23 87 26 119 26 269 1 141 -3 184 -20 250 -29 110 -73 203 -127 269 l-45
56 32 22 c39 29 258 322 258 346 0 23 -10 37 -37 51 -24 12 -25 12 -133 0z"/>
<path d="M1939 1596 c-2 -2 -69 -9 -149 -15 -80 -6 -185 -18 -235 -26 -49 -7
-119 -17 -155 -20 -36 -3 -112 -15 -170 -26 -58 -12 -115 -23 -127 -25 -13 -2
-30 -15 -39 -29 -14 -22 -14 -29 -1 -77 20 -69 34 -169 48 -342 12 -161 19
-182 56 -197 30 -12 176 -1 358 26 104 15 259 32 392 41 68 4 96 10 107 23 10
11 20 53 26 112 6 52 16 141 23 199 6 58 12 154 12 213 0 102 -1 110 -24 128
-21 17 -108 28 -122 15z m41 -188 c0 -46 -4 -88 -8 -94 -7 -11 -86 -21 -227
-30 -80 -5 -296 -31 -369 -45 -45 -8 -176 -13 -176 -6 0 8 -22 124 -26 138 -4
14 9 20 68 33 40 9 117 20 172 26 54 6 102 12 106 15 4 3 91 12 192 20 100 9
188 18 193 20 6 2 25 4 43 4 l32 1 0 -82z m-23 -255 c-3 -21 -9 -61 -13 -89
l-6 -51 -97 -6 c-53 -4 -145 -13 -206 -21 -310 -40 -396 -49 -404 -40 -5 5
-12 46 -16 92 l-7 82 45 0 c24 0 82 6 128 14 46 8 131 20 189 26 58 7 130 15
160 20 30 4 95 8 144 9 l89 1 -6 -37z"/>
<path d="M2170 680 c-58 -3 -166 -11 -240 -18 -74 -7 -263 -19 -420 -28 -157
-8 -354 -22 -439 -30 -85 -8 -182 -14 -215 -14 -75 0 -110 -16 -114 -52 -2
-20 4 -31 24 -44 24 -17 38 -17 183 -5 255 20 563 40 766 50 105 5 240 14 300
20 61 6 155 14 209 19 78 7 102 13 113 27 16 23 16 37 1 57 -18 22 -47 25
-168 18z"/>
</g>
</svg>
