<?xml version="1.0" standalone="no"?>
<!DOCTYPE svg PUBLIC "-//W3C//DTD SVG 20010904//EN"
 "http://www.w3.org/TR/2001/REC-SVG-20010904/DTD/svg10.dtd">
<svg version="1.0" xmlns="http://www.w3.org/2000/svg"
 width="248.000000pt" height="248.000000pt" viewBox="0 0 248.000000 248.000000"
 preserveAspectRatio="xMidYMid meet">
<metadata>
Created by potrace 1.10, written by Peter Selinger 2001-2011
</metadata>
<g transform="translate(0.000000,248.000000) scale(0.100000,-0.100000)"
fill="#000000" stroke="none">
<path d="M522 2108 c-27 -27 -11 -55 91 -154 117 -116 141 -134 179 -134 28 0
52 28 46 54 -2 7 -58 66 -126 130 -126 118 -158 136 -190 104z"/>
<path d="M162 1478 c-39 -39 5 -87 174 -189 149 -90 166 -99 195 -99 57 0 68
59 17 90 -60 36 -137 84 -234 148 -95 62 -129 73 -152 50z"/>
</g>
</svg>
