<?xml version="1.0" standalone="no"?>
<!DOCTYPE svg PUBLIC "-//W3C//DTD SVG 20010904//EN"
 "http://www.w3.org/TR/2001/REC-SVG-20010904/DTD/svg10.dtd">
<svg version="1.0" xmlns="http://www.w3.org/2000/svg"
 width="248.000000pt" height="248.000000pt" viewBox="0 0 248.000000 248.000000"
 preserveAspectRatio="xMidYMid meet">
<metadata>
Created by potrace 1.10, written by Peter Selinger 2001-2011
</metadata>
<g transform="translate(0.000000,248.000000) scale(0.100000,-0.100000)"
fill="#000000" stroke="none">
<path d="M1560 2191 c-153 -90 -209 -122 -279 -159 -87 -45 -100 -60 -83 -96
22 -50 70 -33 333 119 154 89 169 100 169 130 0 56 -52 59 -140 6z"/>
<path d="M574 2190 c-12 -4 -25 -17 -29 -27 -4 -10 -9 -196 -12 -413 -3 -255
-8 -396 -14 -399 -23 -7 -340 -423 -373 -488 -19 -37 -9 -78 22 -87 30 -10 49
3 75 47 27 50 247 346 271 366 9 8 18 12 19 10 2 -2 0 -224 -3 -494 -5 -422
-4 -492 8 -507 18 -22 55 -23 71 -4 9 11 13 246 16 928 3 544 8 937 14 972 7
39 7 65 0 77 -5 11 -11 19 -14 19 -2 0 -9 2 -17 4 -7 3 -22 1 -34 -4z"/>
<path d="M2125 1930 c-12 -4 -34 -27 -49 -51 -16 -24 -80 -94 -143 -156 -103
-99 -115 -114 -109 -137 10 -39 48 -44 94 -12 81 56 282 279 282 313 0 14 -35
53 -47 52 -5 0 -17 -4 -28 -9z"/>
<path d="M180 1890 c-11 -11 -20 -27 -20 -36 0 -23 81 -96 178 -161 88 -58
124 -64 137 -23 11 36 -4 57 -73 101 -37 24 -90 65 -119 91 -57 53 -74 57
-103 28z"/>
<path d="M1402 1818 c-21 -21 -13 -50 36 -143 52 -99 82 -124 117 -101 31 20
29 52 -4 103 -17 26 -31 52 -31 58 0 7 -14 31 -30 53 -31 43 -64 54 -88 30z"/>
<path d="M862 1748 c-24 -24 -10 -64 56 -163 68 -102 95 -122 128 -95 32 28 9
87 -87 217 -40 54 -71 67 -97 41z"/>
<path d="M1730 1480 c-17 -17 -19 -31 -16 -110 2 -59 -1 -93 -8 -99 -6 -5 -72
-17 -146 -25 -312 -35 -703 -92 -730 -105 -19 -10 -25 -48 -10 -67 17 -19 121
-19 225 1 168 33 655 90 665 78 11 -11 23 -873 13 -873 -5 0 -40 32 -78 70
-73 73 -105 86 -128 49 -19 -30 3 -68 96 -163 82 -85 97 -96 127 -96 85 1 84
-9 76 541 -8 550 -19 496 104 498 266 4 320 15 320 66 0 43 -14 46 -220 35
-105 -5 -196 -7 -202 -4 -6 4 -7 41 -4 95 5 80 4 91 -14 109 -25 25 -45 25
-70 0z"/>
<path d="M1052 958 c-21 -21 -13 -49 43 -137 63 -99 140 -191 161 -191 8 0 23
9 35 21 26 26 19 47 -42 126 -27 35 -49 65 -49 68 0 8 -41 66 -69 98 -26 29
-59 35 -79 15z"/>
</g>
</svg>
