<?xml version="1.0" standalone="no"?>
<!DOCTYPE svg PUBLIC "-//W3C//DTD SVG 20010904//EN"
 "http://www.w3.org/TR/2001/REC-SVG-20010904/DTD/svg10.dtd">
<svg version="1.0" xmlns="http://www.w3.org/2000/svg"
 width="248.000000pt" height="248.000000pt" viewBox="0 0 248.000000 248.000000"
 preserveAspectRatio="xMidYMid meet">
<metadata>
Created by potrace 1.10, written by Peter Selinger 2001-2011
</metadata>
<g transform="translate(0.000000,248.000000) scale(0.100000,-0.100000)"
fill="#000000" stroke="none">
<path d="M1509 2264 c-8 -9 -14 -37 -13 -63 0 -25 1 -176 3 -336 l2 -290 -75
-6 c-41 -4 -86 -9 -99 -13 l-25 -6 -4 159 c-4 174 -15 211 -62 211 -46 0 -50
-19 -47 -205 l3 -174 -34 -6 c-18 -3 -102 -9 -186 -14 -112 -7 -159 -13 -177
-25 -29 -19 -33 -57 -9 -77 24 -20 167 -13 454 22 41 5 111 12 156 15 l81 7 6
-63 c7 -58 -10 -540 -18 -548 -2 -2 -19 7 -37 21 -48 36 -76 42 -99 21 -10 -9
-19 -25 -19 -35 0 -21 152 -175 182 -185 29 -9 66 21 72 58 5 32 21 306 30
498 2 52 1 130 -3 172 -8 92 -27 82 189 98 159 12 407 37 457 46 39 7 56 25
51 56 -4 32 -44 49 -98 43 -25 -2 -85 -9 -135 -14 -49 -6 -155 -15 -235 -21
-80 -6 -160 -13 -177 -16 l-33 -5 0 150 0 150 38 6 c20 3 75 12 122 20 47 8
119 19 160 25 41 6 85 18 98 26 25 17 29 56 7 74 -17 14 -117 8 -245 -15 -41
-8 -98 -17 -126 -20 l-51 -6 -7 113 c-4 62 -13 124 -19 138 -15 31 -58 38 -78
14z"/>
<path d="M522 2108 c-27 -27 -11 -55 91 -154 117 -116 141 -134 179 -134 28 0
52 28 46 54 -2 7 -58 66 -126 130 -126 118 -158 136 -190 104z"/>
<path d="M162 1478 c-39 -39 5 -87 174 -189 149 -90 166 -99 195 -99 57 0 68
59 17 90 -60 36 -137 84 -234 148 -95 62 -129 73 -152 50z"/>
<path d="M1123 1288 c-6 -7 -18 -30 -26 -50 -18 -43 -150 -185 -224 -240 -43
-32 -53 -44 -53 -69 0 -22 6 -32 25 -41 37 -17 118 37 227 151 109 114 150
189 127 230 -16 29 -60 40 -76 19z"/>
<path d="M480 503 c-55 -71 -131 -163 -168 -206 -37 -43 -71 -89 -77 -103 -12
-33 4 -58 39 -62 21 -3 38 9 94 68 37 40 87 100 112 135 25 34 73 97 108 140
63 78 76 117 50 143 -32 32 -56 14 -158 -115z"/>
</g>
</svg>
