<?xml version="1.0" standalone="no"?>
<!DOCTYPE svg PUBLIC "-//W3C//DTD SVG 20010904//EN"
 "http://www.w3.org/TR/2001/REC-SVG-20010904/DTD/svg10.dtd">
<svg version="1.0" xmlns="http://www.w3.org/2000/svg"
 width="248.000000pt" height="248.000000pt" viewBox="0 0 248.000000 248.000000"
 preserveAspectRatio="xMidYMid meet">
<metadata>
Created by potrace 1.10, written by Peter Selinger 2001-2011
</metadata>
<g transform="translate(0.000000,248.000000) scale(0.100000,-0.100000)"
fill="#000000" stroke="none">
<path d="M800 2284 c-52 -48 -131 -119 -175 -160 -44 -40 -102 -90 -130 -112
-27 -22 -83 -74 -123 -115 -101 -105 -99 -113 33 -181 109 -57 180 -99 190
-116 8 -14 48 -13 63 2 20 20 14 67 -12 91 -13 12 -62 44 -110 70 -47 27 -86
52 -86 56 0 11 125 128 193 181 31 25 57 47 57 51 0 3 59 57 130 120 75 65
133 124 137 138 8 33 -8 55 -43 59 -24 2 -45 -13 -124 -84z"/>
</g>
</svg>
