<?xml version="1.0" standalone="no"?>
<!DOCTYPE svg PUBLIC "-//W3C//DTD SVG 20010904//EN"
 "http://www.w3.org/TR/2001/REC-SVG-20010904/DTD/svg10.dtd">
<svg version="1.0" xmlns="http://www.w3.org/2000/svg"
 width="248.000000pt" height="248.000000pt" viewBox="0 0 248.000000 248.000000"
 preserveAspectRatio="xMidYMid meet">
<metadata>
Created by potrace 1.10, written by Peter Selinger 2001-2011
</metadata>
<g transform="translate(0.000000,248.000000) scale(0.100000,-0.100000)"
fill="#000000" stroke="none">
<path d="M247 2238 c-12 -19 -13 -50 -5 -173 15 -240 -4 -891 -32 -1140 -37
-317 -46 -374 -101 -621 -12 -56 -19 -113 -15 -127 7 -30 37 -43 65 -28 22 12
30 34 60 166 47 207 58 274 101 655 45 391 48 1200 5 1266 -20 31 -60 32 -78
2z"/>
</g>
</svg>
