<?xml version="1.0" standalone="no"?>
<!DOCTYPE svg PUBLIC "-//W3C//DTD SVG 20010904//EN"
 "http://www.w3.org/TR/2001/REC-SVG-20010904/DTD/svg10.dtd">
<svg version="1.0" xmlns="http://www.w3.org/2000/svg"
 width="248.000000pt" height="248.000000pt" viewBox="0 0 248.000000 248.000000"
 preserveAspectRatio="xMidYMid meet">
<metadata>
Created by potrace 1.10, written by Peter Selinger 2001-2011
</metadata>
<g transform="translate(0.000000,248.000000) scale(0.100000,-0.100000)"
fill="#000000" stroke="none">
<path d="M1775 2365 c-38 -19 -119 -48 -180 -65 -159 -45 -264 -79 -286 -91
-25 -13 -23 -67 3 -83 19 -11 10 -13 259 57 152 43 294 99 326 129 40 38 25
89 -26 87 -15 0 -57 -16 -96 -34z"/>
<path d="M777 2328 c-12 -19 -13 -111 -8 -596 6 -553 7 -574 25 -588 25 -18
37 -18 62 0 18 14 19 31 19 578 -1 617 -1 620 -57 626 -19 2 -31 -3 -41 -20z"/>
<path d="M2022 2149 c-43 -53 -90 -107 -120 -136 -48 -47 -40 -103 16 -103 26
0 117 80 163 144 30 41 37 84 17 104 -19 19 -56 14 -76 -9z"/>
<path d="M1530 2085 c-9 -10 -10 -37 -5 -93 9 -101 21 -127 60 -127 46 0 60
38 45 123 -6 37 -18 77 -26 90 -17 25 -55 29 -74 7z"/>
<path d="M1130 2035 c-38 -46 55 -255 114 -255 50 0 60 47 22 113 -13 23 -29
60 -36 82 -7 22 -19 48 -28 58 -19 21 -55 22 -72 2z"/>
<path d="M322 1988 c-17 -17 -15 -53 6 -70 25 -23 275 -60 329 -50 48 9 54 74
9 92 -20 7 -276 40 -315 40 -10 0 -22 -5 -29 -12z"/>
<path d="M1700 1965 c-9 -10 -16 -59 -21 -127 -4 -60 -9 -111 -11 -113 -2 -2
-116 -8 -253 -14 -273 -12 -393 -24 -434 -44 -36 -17 -41 -60 -9 -81 20 -13
38 -13 143 -1 66 7 205 16 308 19 104 4 202 10 219 13 l31 6 -6 -48 c-4 -26
-7 -118 -7 -203 l0 -156 -38 37 c-41 40 -71 46 -96 21 -20 -20 -20 -33 1 -64
49 -74 110 -120 160 -120 67 1 74 28 83 305 4 127 8 231 9 231 0 1 73 5 160 9
87 4 170 12 183 19 15 8 24 22 26 43 5 50 -17 56 -187 48 -80 -3 -154 -9 -163
-11 -16 -5 -17 4 -12 93 4 71 2 105 -8 123 -16 30 -59 38 -78 15z"/>
<path d="M549 1622 c-31 -20 -74 -50 -95 -65 -22 -16 -68 -47 -104 -70 -44
-29 -66 -49 -68 -65 -5 -31 14 -52 46 -52 28 0 142 64 207 115 22 18 63 47 92
64 56 35 70 59 53 91 -17 31 -66 25 -131 -18z"/>
<path d="M1272 1528 c-17 -17 -15 -53 6 -70 25 -23 76 -47 144 -69 97 -31 138
-23 138 27 0 29 -16 40 -97 68 -38 13 -83 31 -101 40 -37 19 -73 21 -90 4z"/>
<path d="M1835 980 c-99 -4 -263 -12 -365 -18 -102 -6 -378 -14 -615 -17 -444
-7 -480 -9 -502 -27 -22 -18 -15 -56 12 -74 23 -15 66 -16 453 -10 235 4 506
12 602 17 96 5 274 14 396 18 243 9 277 17 282 63 4 30 -29 59 -63 56 -11 -1
-101 -5 -200 -8z"/>
</g>
</svg>
