<?xml version="1.0" standalone="no"?>
<!DOCTYPE svg PUBLIC "-//W3C//DTD SVG 20010904//EN"
 "http://www.w3.org/TR/2001/REC-SVG-20010904/DTD/svg10.dtd">
<svg version="1.0" xmlns="http://www.w3.org/2000/svg"
 width="248.000000pt" height="248.000000pt" viewBox="0 0 248.000000 248.000000"
 preserveAspectRatio="xMidYMid meet">
<metadata>
Created by potrace 1.10, written by Peter Selinger 2001-2011
</metadata>
<g transform="translate(0.000000,248.000000) scale(0.100000,-0.100000)"
fill="#000000" stroke="none">
<path d="M574 2190 c-12 -4 -25 -17 -29 -27 -5 -10 -9 -409 -11 -888 -1 -479
-6 -912 -9 -963 -5 -81 -4 -97 11 -113 20 -22 57 -25 73 -5 9 11 13 246 16
928 3 544 8 937 14 972 7 39 7 65 0 77 -5 11 -11 19 -14 19 -2 0 -9 2 -17 4
-7 3 -22 1 -34 -4z"/>
<path d="M180 1890 c-11 -11 -20 -27 -20 -36 0 -23 81 -96 178 -161 88 -58
124 -64 137 -23 11 36 -4 57 -73 101 -37 24 -90 65 -119 91 -57 53 -74 57
-103 28z"/>
</g>
</svg>
