<?xml version="1.0" standalone="no"?>
<!DOCTYPE svg PUBLIC "-//W3C//DTD SVG 20010904//EN"
 "http://www.w3.org/TR/2001/REC-SVG-20010904/DTD/svg10.dtd">
<svg version="1.0" xmlns="http://www.w3.org/2000/svg"
 width="248.000000pt" height="248.000000pt" viewBox="0 0 248.000000 248.000000"
 preserveAspectRatio="xMidYMid meet">
<metadata>
Created by potrace 1.10, written by Peter Selinger 2001-2011
</metadata>
<g transform="translate(0.000000,248.000000) scale(0.100000,-0.100000)"
fill="#000000" stroke="none">
<path d="M1209 2389 c-20 -20 -21 -29 -18 -210 5 -217 20 -192 -125 -209 -50
-5 -147 -17 -216 -26 -69 -9 -168 -20 -220 -26 -109 -12 -148 -23 -154 -47 -2
-9 -1 -85 2 -170 8 -167 13 -181 64 -168 36 9 41 27 43 157 l2 115 34 3 c19 1
70 9 114 17 44 8 132 19 195 25 63 5 156 17 205 25 169 27 368 37 652 33 153
-3 289 -9 301 -15 26 -10 27 -9 -120 -117 -41 -29 -48 -55 -22 -80 24 -25 57
-19 115 20 64 43 149 120 166 149 20 34 15 72 -12 93 -60 47 -259 67 -608 59
-150 -3 -279 -7 -287 -9 -13 -3 -15 24 -18 182 -2 174 -3 186 -23 203 -28 22
-44 22 -70 -4z"/>
<path d="M1643 2303 c-59 -54 -183 -203 -183 -221 0 -27 35 -51 62 -44 37 9
208 198 208 229 0 17 -36 53 -54 53 -8 0 -23 -8 -33 -17z"/>
<path d="M822 2238 c-32 -32 1 -117 75 -195 35 -37 62 -42 86 -15 25 28 21 44
-28 108 -25 31 -45 63 -45 69 0 34 -63 58 -88 33z"/>
<path d="M1360 1809 c-85 -4 -186 -12 -225 -18 -38 -5 -99 -13 -135 -16 -87
-9 -95 -11 -108 -40 -9 -19 -8 -43 3 -103 8 -42 15 -91 15 -109 0 -22 6 -36
20 -43 27 -14 650 6 685 22 39 18 75 113 75 200 0 66 -13 94 -51 107 -35 12
-46 12 -279 0z m218 -149 c-3 -28 -8 -53 -11 -56 -6 -7 -549 -26 -555 -20 -2
3 -6 22 -9 43 l-5 39 98 14 c90 12 273 24 428 28 l59 2 -5 -50z"/>
<path d="M1370 1399 c-58 -5 -141 -13 -186 -19 -44 -5 -121 -10 -170 -10 -133
0 -128 6 -123 -186 6 -230 3 -494 -5 -530 -7 -26 -4 -34 15 -48 21 -14 67 -16
384 -16 270 0 366 3 385 13 24 12 25 17 26 102 1 114 21 445 33 549 11 92 1
133 -36 147 -28 11 -173 10 -323 -2z m253 -146 c-9 -98 8 -89 -179 -96 -92 -4
-229 -7 -306 -7 l-138 0 0 54 0 53 78 7 c286 27 368 34 453 35 l97 1 -5 -47z
m-23 -260 l0 -58 -292 3 c-161 2 -295 5 -297 7 -2 2 -6 24 -8 49 l-6 46 174 3
c96 1 231 4 302 5 l127 2 0 -57z m-15 -173 c4 -6 3 -35 0 -65 l-7 -55 -290 0
c-260 0 -290 2 -284 16 3 9 6 38 6 65 l0 49 284 0 c182 0 287 -4 291 -10z"/>
<path d="M1023 455 c-10 -13 -29 -39 -42 -58 -23 -31 -66 -66 -169 -138 -35
-24 -43 -35 -40 -56 2 -14 12 -32 24 -39 18 -13 27 -11 81 17 116 60 233 186
233 252 0 50 -56 64 -87 22z"/>
<path d="M1512 438 c-33 -33 3 -89 83 -130 22 -11 65 -37 96 -58 107 -72 240
-127 279 -115 23 7 37 51 24 72 -5 8 -47 29 -93 48 -46 18 -96 43 -110 54 -14
11 -55 37 -91 57 -36 21 -79 48 -97 61 -35 25 -72 30 -91 11z"/>
</g>
</svg>
