<?xml version="1.0" standalone="no"?>
<!DOCTYPE svg PUBLIC "-//W3C//DTD SVG 20010904//EN"
 "http://www.w3.org/TR/2001/REC-SVG-20010904/DTD/svg10.dtd">
<svg version="1.0" xmlns="http://www.w3.org/2000/svg"
 width="248.000000pt" height="248.000000pt" viewBox="0 0 248.000000 248.000000"
 preserveAspectRatio="xMidYMid meet">
<metadata>
Created by potrace 1.10, written by Peter Selinger 2001-2011
</metadata>
<g transform="translate(0.000000,248.000000) scale(0.100000,-0.100000)"
fill="#000000" stroke="none">
<path d="M1510 2265 c-11 -13 -13 -80 -11 -343 3 -359 5 -377 56 -377 47 0 55
29 55 197 l0 147 38 6 c20 3 75 12 122 20 47 8 119 19 160 25 41 6 85 18 98
26 25 17 29 56 7 74 -17 14 -117 8 -245 -15 -41 -8 -98 -17 -126 -20 l-51 -6
-7 113 c-4 62 -13 124 -19 138 -15 30 -58 38 -77 15z"/>
<path d="M522 2108 c-27 -27 -11 -55 91 -154 117 -116 141 -134 179 -134 28 0
52 28 46 54 -2 7 -58 66 -126 130 -126 118 -158 136 -190 104z"/>
<path d="M162 1478 c-39 -39 5 -87 174 -189 149 -90 166 -99 195 -99 57 0 68
59 17 90 -60 36 -137 84 -234 148 -95 62 -129 73 -152 50z"/>
<path d="M480 503 c-55 -71 -131 -163 -168 -206 -37 -43 -71 -89 -77 -103 -12
-33 4 -58 39 -62 21 -3 38 9 94 68 37 40 87 100 112 135 25 34 73 97 108 140
63 78 76 117 50 143 -32 32 -56 14 -158 -115z"/>
</g>
</svg>
