<?xml version="1.0" standalone="no"?>
<!DOCTYPE svg PUBLIC "-//W3C//DTD SVG 20010904//EN"
 "http://www.w3.org/TR/2001/REC-SVG-20010904/DTD/svg10.dtd">
<svg version="1.0" xmlns="http://www.w3.org/2000/svg"
 width="248.000000pt" height="248.000000pt" viewBox="0 0 248.000000 248.000000"
 preserveAspectRatio="xMidYMid meet">
<metadata>
Created by potrace 1.10, written by Peter Selinger 2001-2011
</metadata>
<g transform="translate(0.000000,248.000000) scale(0.100000,-0.100000)"
fill="#000000" stroke="none">
<path d="M1620 2395 c-8 -10 -13 -65 -15 -172 -2 -157 -23 -293 -49 -319 -6
-6 -47 -19 -91 -28 -203 -41 -309 -67 -322 -77 -22 -19 -12 -62 17 -76 25 -12
121 4 295 47 69 17 78 14 70 -21 -10 -45 -63 -170 -80 -189 -10 -11 -47 -21
-103 -29 -48 -7 -127 -21 -177 -31 -49 -10 -115 -22 -145 -25 -72 -9 -102 -28
-98 -63 5 -48 37 -54 168 -30 171 30 275 46 279 42 5 -4 -94 -166 -145 -239
-88 -124 -154 -206 -231 -286 -58 -60 -83 -93 -83 -111 0 -31 17 -48 50 -48
63 0 307 302 484 597 59 99 71 113 99 118 112 21 184 31 197 28 8 -2 38 -34
65 -71 28 -36 92 -110 142 -163 l93 -96 -38 -7 c-67 -12 -245 -36 -346 -47
-55 -5 -127 -16 -160 -24 -34 -8 -90 -17 -126 -21 -36 -3 -75 -13 -87 -20 -31
-20 -30 -59 2 -80 23 -15 33 -15 132 0 58 9 110 19 115 22 5 3 48 9 96 14 76
8 220 27 348 46 l40 6 -3 -68 c-4 -82 -47 -355 -74 -472 -21 -93 -87 -302
-100 -316 -4 -5 -23 1 -43 13 -40 25 -70 21 -86 -10 -14 -25 -3 -45 54 -97 68
-63 118 -55 159 25 26 50 95 265 121 378 33 144 76 418 76 486 0 30 4 59 8 66
5 8 33 -11 85 -58 84 -75 123 -99 160 -99 50 0 65 57 21 87 -94 66 -395 356
-472 455 -29 37 -52 69 -52 72 0 6 109 22 245 36 131 15 270 43 291 61 22 18
13 62 -16 76 -20 9 -44 8 -120 -7 -52 -10 -144 -23 -205 -29 -60 -6 -141 -18
-180 -26 -38 -8 -77 -15 -86 -15 -18 0 -81 89 -116 162 l-22 48 37 9 c20 5 75
15 122 21 126 18 272 49 287 62 18 15 16 53 -3 69 -22 18 -53 16 -249 -19 -93
-16 -171 -28 -173 -27 -2 2 5 43 14 91 24 125 25 331 1 367 -20 30 -57 36 -77
12z m18 -765 c29 -39 28 -46 -9 -54 -58 -11 -60 -10 -41 39 9 25 19 45 22 45
4 0 16 -13 28 -30z"/>
<path d="M725 2374 c-27 -7 -79 -19 -115 -24 -36 -6 -83 -17 -105 -25 -22 -8
-85 -23 -139 -34 -55 -11 -106 -27 -115 -35 -12 -13 -14 -37 -10 -138 13 -361
-4 -927 -36 -1234 -25 -238 -41 -335 -95 -580 -13 -57 -20 -113 -16 -127 13
-53 77 -42 94 15 37 122 86 379 107 558 38 330 33 308 68 315 18 4 79 22 137
41 58 18 135 40 172 49 37 8 74 18 83 21 15 6 16 -31 13 -479 -1 -267 -6 -488
-10 -492 -3 -3 -15 -1 -26 6 -26 16 -69 4 -77 -22 -9 -28 17 -65 73 -100 60
-38 101 -36 121 6 25 52 33 303 27 825 -14 1185 -18 1386 -28 1418 -6 21 -19
37 -35 43 -29 11 -25 11 -88 -7z m25 -411 l0 -308 -78 -19 c-42 -10 -131 -34
-196 -52 -66 -19 -120 -34 -121 -34 -1 0 0 75 2 168 3 92 1 232 -4 310 -5 95
-5 146 2 150 5 4 44 14 85 24 41 9 93 21 115 27 52 13 167 38 183 40 9 1 12
-67 12 -306z m10 -542 l0 -139 -108 -26 c-59 -14 -148 -39 -197 -56 -49 -16
-95 -30 -102 -30 -14 0 -16 76 -4 204 l6 69 85 24 c47 13 130 35 185 49 55 14
107 30 115 35 8 4 16 9 18 9 1 0 2 -63 2 -139z"/>
<path d="M2039 2373 c-8 -10 -23 -34 -33 -53 -25 -45 -68 -99 -133 -166 -56
-57 -66 -89 -37 -118 27 -28 47 -18 127 65 130 134 184 238 145 277 -17 17
-53 15 -69 -5z"/>
<path d="M1242 2248 c-23 -23 -12 -54 49 -136 113 -155 169 -198 207 -160 24
24 12 59 -36 111 -27 29 -69 82 -95 118 -25 37 -54 69 -62 73 -26 9 -50 7 -63
-6z"/>
</g>
</svg>
