<?xml version="1.0" standalone="no"?>
<!DOCTYPE svg PUBLIC "-//W3C//DTD SVG 20010904//EN"
 "http://www.w3.org/TR/2001/REC-SVG-20010904/DTD/svg10.dtd">
<svg version="1.0" xmlns="http://www.w3.org/2000/svg"
 width="248.000000pt" height="248.000000pt" viewBox="0 0 248.000000 248.000000"
 preserveAspectRatio="xMidYMid meet">
<metadata>
Created by potrace 1.10, written by Peter Selinger 2001-2011
</metadata>
<g transform="translate(0.000000,248.000000) scale(0.100000,-0.100000)"
fill="#000000" stroke="none">
<path d="M800 2284 c-52 -48 -131 -119 -175 -160 -44 -40 -102 -90 -130 -112
-27 -22 -83 -74 -123 -115 -101 -105 -99 -113 33 -182 141 -73 166 -88 163
-102 -3 -13 -94 -132 -174 -228 -71 -85 -147 -194 -163 -232 -16 -38 -7 -72
22 -82 22 -8 100 7 264 52 l92 25 3 -51 c2 -29 -1 -108 -5 -177 -9 -132 -2
-662 9 -718 7 -37 30 -54 62 -45 37 9 43 53 36 258 -9 252 4 765 20 765 6 0
53 14 105 31 l94 30 56 -60 c59 -63 69 -68 102 -51 38 21 24 65 -46 146 -64
73 -135 174 -135 192 0 15 -36 42 -56 42 -49 0 -57 -51 -19 -122 14 -26 25
-51 25 -55 0 -14 -457 -140 -468 -128 -3 3 9 22 26 43 33 38 94 117 217 277
37 50 104 128 148 175 118 126 199 237 195 268 -2 14 -10 29 -19 35 -31 19
-65 -1 -118 -72 -28 -39 -85 -106 -126 -149 l-75 -80 -83 49 c-45 26 -89 52
-97 58 -12 7 -6 18 35 61 28 28 85 79 128 113 42 34 77 64 77 67 0 4 59 58
130 121 75 65 133 124 137 138 8 33 -8 55 -43 59 -24 2 -45 -13 -124 -84z"/>
<path d="M366 798 c-9 -12 -16 -37 -16 -54 0 -35 -49 -168 -104 -284 -37 -78
-44 -118 -24 -138 17 -17 53 -15 69 6 33 38 125 252 155 357 15 51 12 98 -7
122 -17 20 -56 16 -73 -9z"/>
<path d="M802 798 c-35 -35 11 -131 138 -285 19 -23 45 -56 58 -73 37 -48 92
-36 92 20 0 26 -28 70 -122 189 -26 33 -54 75 -64 93 -33 65 -72 86 -102 56z"/>
</g>
</svg>
