<?xml version="1.0" standalone="no"?>
<!DOCTYPE svg PUBLIC "-//W3C//DTD SVG 20010904//EN"
 "http://www.w3.org/TR/2001/REC-SVG-20010904/DTD/svg10.dtd">
<svg version="1.0" xmlns="http://www.w3.org/2000/svg"
 width="248.000000pt" height="248.000000pt" viewBox="0 0 248.000000 248.000000"
 preserveAspectRatio="xMidYMid meet">
<metadata>
Created by potrace 1.10, written by Peter Selinger 2001-2011
</metadata>
<g transform="translate(0.000000,248.000000) scale(0.100000,-0.100000)"
fill="#000000" stroke="none">
<path d="M880 1709 c-52 -9 -122 -24 -155 -32 -91 -24 -248 -54 -370 -72 -154
-22 -243 -41 -260 -55 -22 -19 -18 -57 8 -74 25 -17 119 -4 492 65 28 5 97 20
155 34 58 13 140 32 183 40 85 18 108 38 89 80 -15 32 -35 34 -142 14z"/>
</g>
</svg>
