<?xml version="1.0" standalone="no"?>
<!DOCTYPE svg PUBLIC "-//W3C//DTD SVG 20010904//EN"
 "http://www.w3.org/TR/2001/REC-SVG-20010904/DTD/svg10.dtd">
<svg version="1.0" xmlns="http://www.w3.org/2000/svg"
 width="248.000000pt" height="248.000000pt" viewBox="0 0 248.000000 248.000000"
 preserveAspectRatio="xMidYMid meet">
<metadata>
Created by potrace 1.10, written by Peter Selinger 2001-2011
</metadata>
<g transform="translate(0.000000,248.000000) scale(0.100000,-0.100000)"
fill="#000000" stroke="none">
<path d="M1205 2391 c-15 -18 -17 -39 -14 -210 l4 -190 -60 -11 c-33 -6 -107
-15 -165 -21 -97 -9 -146 -15 -305 -40 -33 -5 -79 -9 -102 -9 -29 0 -49 -7
-67 -22 l-24 -23 6 -159 c8 -172 12 -186 64 -173 36 9 41 27 44 157 l2 115 28
3 c16 1 70 9 119 17 50 8 141 19 203 25 63 6 150 17 195 25 144 26 387 37 664
33 148 -3 279 -9 291 -15 26 -10 27 -9 -120 -117 -41 -29 -48 -55 -22 -80 24
-25 57 -19 115 21 192 131 231 219 117 262 -16 6 -85 18 -155 27 -104 13 -181
16 -408 11 -154 -3 -287 -7 -295 -9 -13 -2 -16 25 -20 185 -5 172 -7 190 -24
203 -27 19 -50 18 -71 -5z"/>
<path d="M1643 2303 c-56 -51 -183 -202 -183 -219 1 -44 42 -63 81 -36 26 17
128 124 167 176 27 36 28 50 2 76 -25 25 -42 25 -67 3z"/>
<path d="M822 2238 c-32 -32 1 -117 75 -195 35 -37 62 -42 86 -15 25 28 21 43
-28 106 -25 32 -45 64 -45 71 0 34 -63 58 -88 33z"/>
<path d="M1356 1810 c-88 -5 -189 -13 -225 -19 -36 -6 -95 -13 -131 -16 -36
-4 -73 -9 -83 -12 -32 -9 -38 -47 -22 -131 8 -42 15 -91 15 -109 0 -22 6 -36
20 -43 26 -14 650 6 685 22 63 28 101 246 51 296 -19 19 -108 22 -310 12z
m222 -150 c-3 -28 -8 -53 -11 -56 -6 -7 -548 -26 -554 -20 -3 2 -7 22 -10 43
l-5 39 95 13 c84 12 282 25 436 29 l54 2 -5 -50z"/>
<path d="M1325 1394 c-82 -8 -210 -17 -283 -22 -117 -6 -135 -9 -148 -27 -8
-11 -13 -29 -10 -41 3 -11 8 -169 11 -349 4 -220 10 -333 17 -343 19 -22 61
-10 78 23 12 24 15 70 15 218 l0 187 110 0 c61 0 195 3 299 7 l189 6 -7 -139
c-4 -76 -9 -161 -12 -189 -6 -61 11 -99 47 -103 52 -6 60 32 79 373 5 99 14
215 19 258 11 92 3 128 -30 144 -31 16 -175 15 -374 -3z m298 -141 c-9 -98 8
-89 -179 -96 -92 -4 -229 -7 -306 -7 l-138 0 0 55 0 55 41 0 c22 0 70 5 107
10 83 13 267 27 388 29 l92 1 -5 -47z"/>
</g>
</svg>
