<?xml version="1.0" standalone="no"?>
<!DOCTYPE svg PUBLIC "-//W3C//DTD SVG 20010904//EN"
 "http://www.w3.org/TR/2001/REC-SVG-20010904/DTD/svg10.dtd">
<svg version="1.0" xmlns="http://www.w3.org/2000/svg"
 width="248.000000pt" height="248.000000pt" viewBox="0 0 248.000000 248.000000"
 preserveAspectRatio="xMidYMid meet">
<metadata>
Created by potrace 1.10, written by Peter Selinger 2001-2011
</metadata>
<g transform="translate(0.000000,248.000000) scale(0.100000,-0.100000)"
fill="#000000" stroke="none">
<path d="M719 2116 c-2 -2 -69 -14 -149 -25 -362 -54 -380 -59 -398 -111 -6
-17 -11 -114 -11 -222 -1 -106 -6 -344 -12 -528 -6 -184 -9 -397 -7 -473 3
-123 5 -140 22 -153 25 -18 37 -18 62 0 21 16 18 -54 39 968 l8 366 31 5 c17
3 105 16 196 30 91 14 184 29 208 33 l43 7 -2 -676 c-1 -533 1 -680 11 -692
20 -24 57 -18 77 12 17 25 18 76 21 697 3 469 1 682 -7 707 -9 28 -19 40 -43
48 -31 11 -81 15 -89 7z"/>
</g>
</svg>
