<?xml version="1.0" standalone="no"?>
<!DOCTYPE svg PUBLIC "-//W3C//DTD SVG 20010904//EN"
 "http://www.w3.org/TR/2001/REC-SVG-20010904/DTD/svg10.dtd">
<svg version="1.0" xmlns="http://www.w3.org/2000/svg"
 width="248.000000pt" height="248.000000pt" viewBox="0 0 248.000000 248.000000"
 preserveAspectRatio="xMidYMid meet">
<metadata>
Created by potrace 1.10, written by Peter Selinger 2001-2011
</metadata>
<g transform="translate(0.000000,248.000000) scale(0.100000,-0.100000)"
fill="#000000" stroke="none">
<path d="M1639 2274 c-10 -12 -15 -53 -17 -146 l-4 -128 -28 0 c-16 0 -59 -6
-97 -14 -38 -8 -116 -18 -173 -22 -121 -7 -153 -21 -148 -62 5 -43 39 -54 143
-46 50 3 122 12 160 19 39 7 87 16 108 19 l38 5 -1 -107 c-2 -153 -2 -150 21
-163 59 -31 89 36 89 200 l0 89 68 6 c37 4 108 14 157 22 202 33 235 45 235
88 0 49 -32 55 -165 31 -44 -9 -114 -20 -155 -25 -41 -6 -90 -13 -107 -16
l-33 -6 0 108 c0 67 -5 119 -13 134 -15 31 -58 38 -78 14z"/>
<path d="M522 2137 c-7 -8 -12 -164 -15 -452 -4 -466 -4 -466 -58 -685 -47
-187 -84 -308 -122 -399 -21 -53 -48 -117 -58 -142 -22 -57 -72 -151 -100
-189 -34 -45 1 -101 52 -85 54 17 211 350 274 583 10 34 21 62 24 62 9 0 56
-82 144 -250 93 -178 129 -230 160 -230 55 0 61 50 16 123 -17 28 -68 121
-112 206 -45 86 -103 189 -129 230 -30 45 -46 81 -43 90 4 9 18 75 33 146 26
128 27 136 27 546 0 396 -1 418 -19 438 -21 23 -58 28 -74 8z"/>
<path d="M890 1865 c-6 -8 -16 -29 -20 -47 -14 -54 -65 -168 -109 -243 -42
-71 -51 -111 -29 -133 17 -17 53 -15 70 6 48 56 145 252 170 344 8 31 7 43 -6
63 -19 28 -57 33 -76 10z"/>
<path d="M162 1768 c-16 -16 -15 -80 3 -125 7 -21 24 -72 36 -113 28 -94 73
-176 101 -183 60 -16 75 41 33 127 -24 50 -85 237 -85 261 0 34 -63 58 -88 33z"/>
<path d="M1990 1715 c-7 -9 -16 -44 -19 -78 l-6 -62 -140 -12 c-77 -6 -180
-16 -230 -22 -49 -7 -120 -14 -156 -18 -63 -5 -66 -5 -72 18 -4 13 -7 38 -7
54 0 44 -26 77 -58 73 -37 -4 -54 -41 -46 -104 l6 -51 -54 -6 c-29 -4 -73 -7
-98 -7 -64 0 -95 -18 -95 -55 0 -46 32 -57 139 -50 49 4 94 9 100 11 8 3 16
-23 23 -80 11 -92 23 -116 58 -116 40 0 50 25 47 115 l-3 82 83 11 c209 28
497 56 505 48 2 -2 -1 -41 -6 -86 -13 -97 -2 -133 40 -138 37 -4 50 17 61 105
19 155 10 139 79 147 85 8 114 24 114 61 0 42 -33 56 -112 46 l-63 -7 0 40 c0
23 -6 52 -13 66 -15 30 -58 38 -77 15z"/>
<path d="M2209 1216 c-16 -16 -613 -69 -1070 -95 -67 -4 -112 -11 -123 -20
-24 -20 -20 -58 9 -77 26 -17 24 -17 304 2 l94 7 -6 -69 c-6 -73 -71 -283
-114 -367 -46 -91 -194 -267 -298 -354 -48 -40 -20 -104 39 -89 65 16 286 268
354 401 58 116 132 367 132 449 0 31 3 34 38 40 20 3 61 6 90 6 l52 0 0 -326
c0 -379 8 -449 54 -499 38 -39 84 -51 246 -60 171 -10 371 23 407 67 17 20 18
46 4 161 -14 118 -22 137 -60 137 -53 0 -59 -32 -38 -214 3 -31 -48 -39 -266
-39 -174 -1 -199 1 -215 16 -15 16 -17 53 -20 391 l-3 373 53 7 c29 3 94 11
143 17 144 17 257 38 271 50 8 6 14 25 14 40 0 22 -6 32 -26 39 -26 10 -58 13
-65 6z"/>
</g>
</svg>
