<?xml version="1.0" standalone="no"?>
<!DOCTYPE svg PUBLIC "-//W3C//DTD SVG 20010904//EN"
 "http://www.w3.org/TR/2001/REC-SVG-20010904/DTD/svg10.dtd">
<svg version="1.0" xmlns="http://www.w3.org/2000/svg"
 width="248.000000pt" height="248.000000pt" viewBox="0 0 248.000000 248.000000"
 preserveAspectRatio="xMidYMid meet">
<metadata>
Created by potrace 1.10, written by Peter Selinger 2001-2011
</metadata>
<g transform="translate(0.000000,248.000000) scale(0.100000,-0.100000)"
fill="#000000" stroke="none">
<path d="M1509 2404 c-8 -10 -17 -66 -23 -148 -5 -72 -10 -132 -12 -134 -1 -2
-46 -7 -100 -12 -179 -16 -349 -42 -371 -56 -31 -19 -30 -59 1 -79 22 -15 33
-15 130 1 58 10 109 15 112 12 16 -17 53 -248 39 -248 -2 0 -68 -9 -146 -21
-79 -11 -190 -24 -247 -29 -64 -6 -114 -16 -128 -25 -31 -20 -31 -60 -1 -79
28 -18 114 -11 487 44 151 22 295 43 320 46 25 3 95 11 155 19 248 31 287 35
436 45 86 5 168 14 182 19 44 17 46 74 3 91 -19 7 -243 -6 -452 -26 l-61 -6
18 88 c10 49 18 103 19 121 0 17 4 34 8 37 5 3 60 9 123 15 64 5 127 15 141
22 34 15 41 43 19 71 -20 24 -69 26 -221 7 -47 -6 -121 -14 -165 -19 -44 -5
-104 -12 -133 -16 l-53 -7 3 125 c2 95 0 129 -11 141 -17 22 -55 22 -72 1z
m254 -396 c-3 -24 -12 -70 -20 -103 -8 -33 -18 -70 -20 -82 -4 -16 -14 -24
-37 -27 -184 -25 -279 -37 -282 -33 -5 5 -44 198 -44 218 0 13 23 20 118 34
64 10 137 21 162 25 25 4 64 8 87 9 l41 1 -5 -42z"/>
<path d="M625 2319 c-69 -8 -131 -17 -310 -44 -165 -24 -174 -34 -157 -183 6
-53 14 -322 18 -597 15 -1196 18 -1321 33 -1338 20 -25 58 -21 77 8 15 23 16
71 9 518 -7 530 -23 1364 -27 1437 -3 45 -3 45 32 48 19 1 73 9 120 17 100 17
200 27 200 21 0 -3 -11 -21 -23 -40 -49 -71 -92 -123 -149 -177 -50 -49 -58
-62 -58 -94 0 -31 9 -47 51 -93 52 -57 105 -158 130 -247 21 -77 18 -391 -5
-474 -25 -93 -57 -172 -66 -169 -5 2 -26 28 -47 58 -41 59 -82 82 -111 64 -27
-17 -27 -62 0 -93 13 -14 42 -52 63 -84 45 -66 60 -77 108 -77 42 0 56 16 95
105 140 321 112 744 -63 959 l-45 56 32 22 c39 29 258 322 258 346 0 52 -47
66 -165 51z"/>
<path d="M1939 1596 c-2 -2 -71 -9 -154 -16 -82 -6 -186 -17 -230 -25 -44 -7
-111 -16 -150 -20 -38 -3 -117 -15 -175 -26 -58 -12 -115 -23 -127 -25 -13 -2
-30 -15 -39 -29 -14 -22 -14 -29 -1 -77 20 -68 34 -168 48 -343 6 -77 16 -151
23 -164 16 -34 50 -44 77 -22 21 17 22 20 10 127 -6 60 -11 116 -11 125 0 13
14 17 68 22 37 3 112 12 167 21 142 22 283 37 409 43 l109 6 -7 -39 c-4 -22
-9 -78 -13 -126 -6 -95 2 -118 42 -118 39 0 56 31 65 127 5 48 15 138 22 198
7 61 13 159 13 218 0 102 -1 110 -24 128 -21 17 -108 28 -122 15z m41 -188 c0
-46 -4 -88 -8 -94 -6 -10 -63 -18 -222 -29 -102 -8 -321 -34 -365 -45 -37 -9
-185 -14 -185 -7 0 8 -22 124 -26 138 -4 14 9 20 68 33 40 8 98 18 128 21 30
3 102 13 160 21 92 13 343 39 423 43 l27 1 0 -82z"/>
</g>
</svg>
