<?xml version="1.0" standalone="no"?>
<!DOCTYPE svg PUBLIC "-//W3C//DTD SVG 20010904//EN"
 "http://www.w3.org/TR/2001/REC-SVG-20010904/DTD/svg10.dtd">
<svg version="1.0" xmlns="http://www.w3.org/2000/svg"
 width="248.000000pt" height="248.000000pt" viewBox="0 0 248.000000 248.000000"
 preserveAspectRatio="xMidYMid meet">
<metadata>
Created by potrace 1.10, written by Peter Selinger 2001-2011
</metadata>
<g transform="translate(0.000000,248.000000) scale(0.100000,-0.100000)"
fill="#000000" stroke="none">
<path d="M556 2308 c-10 -17 -16 -80 -21 -243 -4 -121 -11 -245 -16 -275 -5
-30 -9 -78 -9 -107 0 -61 10 -55 -155 -79 -156 -21 -243 -40 -261 -54 -21 -19
-17 -58 9 -74 20 -14 37 -13 162 9 154 27 195 30 195 15 0 -19 -39 -146 -104
-340 -36 -107 -89 -265 -117 -350 -29 -85 -65 -181 -81 -213 -36 -72 -34 -108
6 -122 61 -21 91 45 268 584 l63 194 5 -565 c5 -612 4 -602 59 -596 50 6 51
10 51 623 l0 569 86 -129 c144 -216 180 -250 224 -210 29 27 25 47 -23 107
-115 140 -274 403 -279 461 -3 29 -3 29 117 58 66 15 155 36 198 44 56 12 80
22 88 36 13 26 2 58 -24 68 -27 10 -226 -26 -360 -65 -17 -5 -18 0 -14 73 29
460 31 551 14 577 -22 33 -61 35 -81 4z"/>
<path d="M1363 1878 c-4 -7 -20 -42 -34 -78 -114 -284 -240 -538 -308 -624
-38 -48 -40 -80 -5 -102 24 -16 27 -16 52 3 47 34 153 212 222 373 30 69 64
144 110 245 10 22 26 64 35 92 16 49 16 55 1 78 -18 27 -59 34 -73 13z"/>
<path d="M1772 1858 c-7 -7 -12 -20 -12 -30 0 -26 65 -111 140 -183 34 -33 94
-96 132 -140 38 -44 111 -122 161 -172 79 -80 96 -93 125 -93 25 0 35 5 41 22
13 36 2 55 -69 121 -37 34 -108 110 -158 168 -50 59 -104 116 -120 128 -16 11
-62 59 -101 106 -58 69 -77 85 -100 85 -15 0 -32 -5 -39 -12z"/>
</g>
</svg>
