<?xml version="1.0" standalone="no"?>
<!DOCTYPE svg PUBLIC "-//W3C//DTD SVG 20010904//EN"
 "http://www.w3.org/TR/2001/REC-SVG-20010904/DTD/svg10.dtd">
<svg version="1.0" xmlns="http://www.w3.org/2000/svg"
 width="248.000000pt" height="248.000000pt" viewBox="0 0 248.000000 248.000000"
 preserveAspectRatio="xMidYMid meet">
<metadata>
Created by potrace 1.10, written by Peter Selinger 2001-2011
</metadata>
<g transform="translate(0.000000,248.000000) scale(0.100000,-0.100000)"
fill="#000000" stroke="none">
<path d="M1639 2274 c-10 -12 -15 -53 -17 -146 l-4 -128 -28 0 c-16 0 -59 -6
-97 -14 -38 -8 -116 -18 -173 -22 -121 -7 -153 -21 -148 -62 5 -43 39 -54 143
-46 50 3 122 12 160 19 39 7 87 16 108 19 l38 5 -1 -107 c-2 -153 -2 -150 21
-163 59 -31 89 36 89 200 l0 89 68 6 c37 4 108 14 157 22 202 33 235 45 235
88 0 49 -32 55 -165 31 -44 -9 -114 -20 -155 -25 -41 -6 -90 -13 -107 -16
l-33 -6 0 108 c0 67 -5 119 -13 134 -15 31 -58 38 -78 14z"/>
<path d="M522 2137 c-7 -8 -12 -164 -15 -452 -4 -466 -4 -466 -58 -685 -47
-187 -84 -308 -122 -399 -21 -53 -48 -117 -58 -142 -22 -57 -72 -151 -100
-189 -34 -45 1 -101 52 -85 54 17 211 350 274 583 10 34 21 62 24 62 9 0 56
-82 144 -250 93 -178 129 -230 160 -230 55 0 61 50 16 123 -17 28 -68 121
-112 206 -45 86 -103 189 -129 230 -30 45 -46 81 -43 90 4 9 18 75 33 146 26
128 27 136 27 546 0 396 -1 418 -19 438 -21 23 -58 28 -74 8z"/>
<path d="M890 1865 c-6 -8 -16 -29 -20 -47 -14 -54 -65 -168 -109 -243 -42
-71 -51 -111 -29 -133 17 -17 53 -15 70 6 48 56 145 252 170 344 8 31 7 43 -6
63 -19 28 -57 33 -76 10z"/>
<path d="M162 1768 c-16 -16 -15 -80 3 -125 7 -21 24 -72 36 -113 28 -94 73
-176 101 -183 60 -16 75 41 33 127 -24 50 -85 237 -85 261 0 34 -63 58 -88 33z"/>
<path d="M2085 1594 c-55 -7 -170 -20 -255 -29 -85 -8 -191 -19 -235 -25 -44
-5 -143 -14 -220 -20 -354 -25 -369 -28 -363 -79 5 -40 41 -53 128 -46 41 3
131 10 200 15 69 5 163 14 210 20 47 6 155 17 240 25 249 23 412 45 439 58 16
8 27 22 29 38 6 52 -35 62 -173 43z"/>
</g>
</svg>
