<?xml version="1.0" standalone="no"?>
<!DOCTYPE svg PUBLIC "-//W3C//DTD SVG 20010904//EN"
 "http://www.w3.org/TR/2001/REC-SVG-20010904/DTD/svg10.dtd">
<svg version="1.0" xmlns="http://www.w3.org/2000/svg"
 width="248.000000pt" height="248.000000pt" viewBox="0 0 248.000000 248.000000"
 preserveAspectRatio="xMidYMid meet">
<metadata>
Created by potrace 1.10, written by Peter Selinger 2001-2011
</metadata>
<g transform="translate(0.000000,248.000000) scale(0.100000,-0.100000)"
fill="#000000" stroke="none">
<path d="M1130 2164 c-25 -8 -97 -23 -160 -34 -63 -11 -196 -35 -295 -54 -99
-19 -241 -44 -315 -56 -199 -31 -240 -48 -240 -95 0 -31 24 -48 57 -42 16 2
134 23 263 45 129 23 269 48 310 57 41 9 131 25 200 36 69 11 139 24 155 29
17 5 48 14 71 19 63 17 80 76 28 100 -14 6 -26 11 -27 10 -1 0 -22 -7 -47 -15z"/>
</g>
</svg>
