<?xml version="1.0" standalone="no"?>
<!DOCTYPE svg PUBLIC "-//W3C//DTD SVG 20010904//EN"
 "http://www.w3.org/TR/2001/REC-SVG-20010904/DTD/svg10.dtd">
<svg version="1.0" xmlns="http://www.w3.org/2000/svg"
 width="248.000000pt" height="248.000000pt" viewBox="0 0 248.000000 248.000000"
 preserveAspectRatio="xMidYMid meet">
<metadata>
Created by potrace 1.10, written by Peter Selinger 2001-2011
</metadata>
<g transform="translate(0.000000,248.000000) scale(0.100000,-0.100000)"
fill="#000000" stroke="none">
<path d="M1119 2344 c-9 -11 -13 -51 -13 -127 l-1 -112 -175 -12 c-96 -6 -215
-16 -265 -22 -49 -6 -132 -14 -183 -19 -129 -13 -127 -10 -113 -164 20 -202
24 -213 73 -206 47 6 56 76 31 231 l-6 37 60 0 c33 0 83 4 112 10 28 5 122 14
208 20 87 6 201 15 253 20 52 6 196 14 320 20 124 5 323 15 443 21 119 7 220
9 224 5 4 -3 -21 -35 -54 -69 -34 -34 -64 -72 -67 -84 -9 -30 27 -66 57 -58
23 6 127 112 178 179 39 52 39 99 2 123 -23 15 -49 18 -173 17 -80 0 -228 -6
-330 -12 -102 -6 -251 -14 -331 -17 l-146 -6 -6 96 c-6 107 -22 145 -61 145
-13 0 -29 -7 -37 -16z"/>
<path d="M1425 1948 c-13 -20 -14 -50 -9 -224 l7 -200 -214 -13 c-118 -7 -234
-16 -259 -21 -25 -5 -148 -14 -275 -21 -164 -8 -236 -15 -252 -25 -31 -20 -30
-59 2 -80 23 -15 43 -15 272 1 137 9 289 21 338 25 50 5 154 12 233 16 l142 7
0 -532 0 -533 -31 26 c-17 14 -39 26 -49 26 -24 0 -50 -26 -50 -51 0 -20 90
-126 124 -146 32 -19 71 -15 92 8 18 20 19 47 22 619 l2 598 103 7 c56 4 131
11 167 16 36 5 92 9 125 9 78 0 110 16 110 55 0 50 -36 60 -169 47 -61 -6
-159 -14 -217 -18 l-106 -7 -8 194 c-7 210 -15 239 -60 239 -13 0 -31 -10 -40
-22z"/>
</g>
</svg>
