<?xml version="1.0" standalone="no"?>
<!DOCTYPE svg PUBLIC "-//W3C//DTD SVG 20010904//EN"
 "http://www.w3.org/TR/2001/REC-SVG-20010904/DTD/svg10.dtd">
<svg version="1.0" xmlns="http://www.w3.org/2000/svg"
 width="248.000000pt" height="248.000000pt" viewBox="0 0 248.000000 248.000000"
 preserveAspectRatio="xMidYMid meet">
<metadata>
Created by potrace 1.10, written by Peter Selinger 2001-2011
</metadata>
<g transform="translate(0.000000,248.000000) scale(0.100000,-0.100000)"
fill="#000000" stroke="none">
<path d="M1119 2344 c-9 -11 -13 -51 -13 -127 l-1 -112 -175 -12 c-96 -6 -215
-16 -265 -22 -49 -6 -132 -14 -183 -19 -129 -13 -127 -10 -113 -164 20 -202
24 -213 73 -206 47 6 56 76 31 231 l-6 37 60 0 c33 0 83 4 112 10 28 5 122 14
208 20 87 6 201 15 253 20 52 6 196 14 320 20 124 5 323 15 443 21 119 7 220
9 224 6 3 -4 -24 -38 -60 -76 -37 -38 -67 -76 -67 -85 0 -27 38 -58 63 -51 23
6 127 112 178 179 39 52 39 99 2 123 -23 15 -49 18 -173 17 -80 0 -228 -6
-330 -12 -102 -6 -251 -14 -331 -17 l-146 -6 -6 96 c-6 107 -22 145 -61 145
-13 0 -29 -7 -37 -16z"/>
<path d="M1880 1564 c-15 -4 -290 -26 -545 -45 -77 -5 -194 -14 -260 -19 -66
-5 -235 -17 -375 -26 -177 -11 -262 -21 -277 -30 -31 -19 -30 -59 2 -80 23
-15 43 -15 267 1 134 9 293 20 353 26 61 5 175 13 255 19 80 5 226 16 325 25
99 9 224 20 277 24 56 4 103 13 113 21 23 19 15 62 -15 77 -23 12 -86 15 -120
7z"/>
</g>
</svg>
