<?xml version="1.0" standalone="no"?>
<!DOCTYPE svg PUBLIC "-//W3C//DTD SVG 20010904//EN"
 "http://www.w3.org/TR/2001/REC-SVG-20010904/DTD/svg10.dtd">
<svg version="1.0" xmlns="http://www.w3.org/2000/svg"
 width="248.000000pt" height="248.000000pt" viewBox="0 0 248.000000 248.000000"
 preserveAspectRatio="xMidYMid meet">
<metadata>
Created by potrace 1.10, written by Peter Selinger 2001-2011
</metadata>
<g transform="translate(0.000000,248.000000) scale(0.100000,-0.100000)"
fill="#000000" stroke="none">
<path d="M342 2168 c-27 -27 -12 -58 79 -156 109 -117 128 -130 163 -114 50
23 36 56 -75 175 -80 85 -106 107 -128 107 -15 0 -32 -5 -39 -12z"/>
<path d="M172 1578 c-17 -17 -15 -53 6 -76 14 -16 136 -121 217 -186 39 -32
95 6 80 54 -6 19 -167 164 -225 203 -29 20 -61 22 -78 5z"/>
</g>
</svg>
