<?xml version="1.0" standalone="no"?>
<!DOCTYPE svg PUBLIC "-//W3C//DTD SVG 20010904//EN"
 "http://www.w3.org/TR/2001/REC-SVG-20010904/DTD/svg10.dtd">
<svg version="1.0" xmlns="http://www.w3.org/2000/svg"
 width="248.000000pt" height="248.000000pt" viewBox="0 0 248.000000 248.000000"
 preserveAspectRatio="xMidYMid meet">
<metadata>
Created by potrace 1.10, written by Peter Selinger 2001-2011
</metadata>
<g transform="translate(0.000000,248.000000) scale(0.100000,-0.100000)"
fill="#000000" stroke="none">
<path d="M1130 2164 c-25 -8 -97 -23 -160 -34 -63 -11 -196 -35 -295 -54 -99
-19 -241 -44 -315 -56 -199 -31 -240 -48 -240 -95 0 -44 23 -50 113 -32 45 9
106 19 135 23 l54 7 -5 -309 c-2 -170 -10 -407 -17 -526 -13 -205 -13 -219 4
-237 17 -19 17 -20 -11 -34 -15 -8 -95 -43 -178 -77 -82 -35 -158 -70 -167
-78 -36 -30 -16 -82 31 -82 26 0 283 106 406 168 39 19 116 52 173 73 136 52
315 132 380 172 55 33 74 66 55 96 -18 29 -43 23 -176 -42 -100 -50 -402 -177
-420 -177 -4 0 3 234 8 257 4 15 15 24 37 28 57 12 282 76 299 85 9 5 44 14
78 19 71 12 91 24 91 56 0 58 -77 64 -222 17 -131 -42 -240 -72 -261 -72 -16
0 -17 8 -12 93 9 141 13 156 38 161 167 29 395 82 412 96 18 15 20 51 3 68
-19 19 -71 14 -229 -23 -82 -19 -162 -35 -178 -35 l-29 0 -4 158 c-2 86 -3
158 -2 160 3 5 287 60 424 83 69 11 139 24 155 29 17 5 48 14 71 19 63 17 80
76 28 100 -14 6 -26 11 -27 10 -1 0 -22 -7 -47 -15z"/>
</g>
</svg>
