<?xml version="1.0" standalone="no"?>
<!DOCTYPE svg PUBLIC "-//W3C//DTD SVG 20010904//EN"
 "http://www.w3.org/TR/2001/REC-SVG-20010904/DTD/svg10.dtd">
<svg version="1.0" xmlns="http://www.w3.org/2000/svg"
 width="248.000000pt" height="248.000000pt" viewBox="0 0 248.000000 248.000000"
 preserveAspectRatio="xMidYMid meet">
<metadata>
Created by potrace 1.10, written by Peter Selinger 2001-2011
</metadata>
<g transform="translate(0.000000,248.000000) scale(0.100000,-0.100000)"
fill="#000000" stroke="none">
<path d="M1130 2164 c-25 -8 -97 -23 -160 -34 -63 -11 -196 -35 -295 -54 -99
-19 -241 -44 -315 -56 -199 -31 -240 -48 -240 -95 0 -44 23 -50 113 -32 45 9
106 19 135 23 l54 7 -5 -309 c-2 -170 -10 -407 -17 -526 -13 -207 -13 -218 5
-238 17 -19 17 -20 -46 -48 -35 -16 -116 -50 -179 -77 -128 -54 -150 -68 -150
-100 0 -28 18 -45 49 -45 26 0 283 106 406 168 39 19 115 52 170 72 55 21 126
50 159 64 32 14 61 26 65 26 3 0 6 -156 6 -348 -1 -191 3 -357 7 -369 11 -33
55 -41 81 -15 20 21 21 27 18 391 -2 250 1 376 8 390 6 11 29 30 51 42 79 45
59 132 -23 101 l-29 -11 6 197 c4 108 9 224 11 257 9 117 20 391 18 443 -2 48
0 52 21 52 13 0 36 4 52 10 16 5 47 14 70 19 63 16 80 76 28 100 -14 6 -26 11
-27 10 -1 0 -22 -7 -47 -15z m-199 -210 c-2 -32 -6 -104 -10 -158 l-6 -99
-160 -38 c-88 -21 -174 -39 -191 -39 l-32 0 -4 158 c-2 86 -3 159 -2 160 4 6
388 81 398 78 5 -1 8 -29 7 -62z m-22 -468 c-1 -57 -4 -108 -8 -112 -9 -14
-338 -114 -372 -114 -19 0 -19 6 -14 93 3 50 8 107 11 124 5 35 8 37 94 48 25
3 97 19 160 35 63 16 119 29 123 29 4 1 7 -46 6 -103z m-12 -303 c-4 -38 -7
-87 -7 -111 0 -42 -1 -42 -57 -68 -54 -23 -330 -134 -336 -134 -4 0 3 234 8
257 4 15 15 24 37 28 60 13 283 77 298 86 8 4 26 9 39 9 23 0 24 -1 18 -67z"/>
<path d="M1900 1869 c-63 -10 -178 -25 -255 -34 -375 -41 -416 -52 -423 -107
-6 -47 17 -53 131 -35 101 16 217 31 332 42 71 8 181 24 213 32 12 3 22 1 22
-5 0 -22 -249 -530 -281 -573 -16 -22 -17 -21 -56 32 -41 55 -182 195 -264
262 -47 38 -85 47 -107 25 -28 -28 -11 -54 101 -157 111 -102 247 -254 247
-276 0 -24 -135 -190 -240 -294 -60 -60 -138 -127 -172 -150 -107 -69 -108
-70 -108 -102 0 -21 6 -32 24 -40 26 -12 72 7 156 64 76 53 279 257 357 360
l74 99 182 -179 c223 -219 362 -336 460 -388 67 -35 77 -38 101 -27 23 10 27
18 24 44 -3 28 -11 37 -73 71 -38 22 -99 63 -135 92 -75 60 -500 463 -500 474
0 4 20 43 45 87 25 43 63 115 84 159 21 44 72 150 112 235 41 85 89 173 107
197 38 51 40 76 10 97 -27 19 -22 19 -168 -5z"/>
</g>
</svg>
