<?xml version="1.0" standalone="no"?>
<!DOCTYPE svg PUBLIC "-//W3C//DTD SVG 20010904//EN"
 "http://www.w3.org/TR/2001/REC-SVG-20010904/DTD/svg10.dtd">
<svg version="1.0" xmlns="http://www.w3.org/2000/svg"
 width="248.000000pt" height="248.000000pt" viewBox="0 0 248.000000 248.000000"
 preserveAspectRatio="xMidYMid meet">
<metadata>
Created by potrace 1.10, written by Peter Selinger 2001-2011
</metadata>
<g transform="translate(0.000000,248.000000) scale(0.100000,-0.100000)"
fill="#000000" stroke="none">
<path d="M1117 2338 c-17 -28 -9 -260 10 -279 15 -15 61 -15 76 0 8 8 12 53
12 130 0 95 -4 123 -18 144 -22 34 -61 36 -80 5z"/>
<path d="M375 1997 c-12 -19 -13 -36 -5 -98 5 -41 10 -94 10 -119 0 -64 19
-95 55 -95 23 0 33 7 44 29 12 25 12 48 1 145 -7 64 -19 126 -26 139 -19 29
-59 29 -79 -1z"/>
</g>
</svg>
