<?xml version="1.0" standalone="no"?>
<!DOCTYPE svg PUBLIC "-//W3C//DTD SVG 20010904//EN"
 "http://www.w3.org/TR/2001/REC-SVG-20010904/DTD/svg10.dtd">
<svg version="1.0" xmlns="http://www.w3.org/2000/svg"
 width="248.000000pt" height="248.000000pt" viewBox="0 0 248.000000 248.000000"
 preserveAspectRatio="xMidYMid meet">
<metadata>
Created by potrace 1.10, written by Peter Selinger 2001-2011
</metadata>
<g transform="translate(0.000000,248.000000) scale(0.100000,-0.100000)"
fill="#000000" stroke="none">
<path d="M1930 2240 c-74 -10 -166 -23 -205 -28 -38 -6 -126 -16 -195 -22 -69
-6 -154 -15 -190 -20 -36 -6 -139 -17 -230 -25 -176 -16 -210 -28 -210 -70 0
-34 35 -56 79 -49 20 2 101 11 181 19 261 26 615 65 635 70 11 3 93 14 183 24
89 11 169 25 177 31 19 16 19 54 0 70 -24 20 -83 20 -225 0z"/>
<path d="M342 2168 c-27 -27 -12 -58 79 -156 109 -117 128 -130 163 -114 50
23 36 56 -75 175 -80 85 -106 107 -128 107 -15 0 -32 -5 -39 -12z"/>
<path d="M886 1608 c-12 -19 -17 -125 -27 -558 -12 -551 -8 -783 14 -829 15
-31 57 -40 78 -15 11 13 13 60 11 233 -2 119 2 424 8 679 11 421 10 465 -4
487 -21 32 -60 33 -80 3z"/>
<path d="M172 1578 c-17 -17 -15 -53 6 -76 14 -16 136 -121 217 -186 39 -32
95 6 80 54 -6 19 -167 164 -225 203 -29 20 -61 22 -78 5z"/>
<path d="M380 608 c-11 -12 -20 -25 -20 -28 0 -4 -32 -63 -72 -131 -133 -230
-156 -287 -126 -317 17 -17 53 -15 69 4 7 9 27 44 44 77 17 34 65 122 108 194
89 154 97 176 72 203 -24 26 -49 25 -75 -2z"/>
</g>
</svg>
