<?xml version="1.0" standalone="no"?>
<!DOCTYPE svg PUBLIC "-//W3C//DTD SVG 20010904//EN"
 "http://www.w3.org/TR/2001/REC-SVG-20010904/DTD/svg10.dtd">
<svg version="1.0" xmlns="http://www.w3.org/2000/svg"
 width="248.000000pt" height="248.000000pt" viewBox="0 0 248.000000 248.000000"
 preserveAspectRatio="xMidYMid meet">
<metadata>
Created by potrace 1.10, written by Peter Selinger 2001-2011
</metadata>
<g transform="translate(0.000000,248.000000) scale(0.100000,-0.100000)"
fill="#000000" stroke="none">
<path d="M1180 2135 c-7 -9 -10 -26 -6 -42 29 -117 30 -239 6 -478 -6 -55 -19
-188 -30 -295 -20 -205 -52 -376 -101 -548 -16 -56 -29 -110 -29 -120 0 -41
54 -57 83 -24 42 47 120 401 147 672 38 384 42 450 39 622 -4 171 -5 177 -28
202 -27 29 -62 34 -81 11z"/>
</g>
</svg>
