<?xml version="1.0" standalone="no"?>
<!DOCTYPE svg PUBLIC "-//W3C//DTD SVG 20010904//EN"
 "http://www.w3.org/TR/2001/REC-SVG-20010904/DTD/svg10.dtd">
<svg version="1.0" xmlns="http://www.w3.org/2000/svg"
 width="248.000000pt" height="248.000000pt" viewBox="0 0 248.000000 248.000000"
 preserveAspectRatio="xMidYMid meet">
<metadata>
Created by potrace 1.10, written by Peter Selinger 2001-2011
</metadata>
<g transform="translate(0.000000,248.000000) scale(0.100000,-0.100000)"
fill="#000000" stroke="none">
<path d="M1825 2389 c-169 -10 -382 -27 -499 -39 -56 -5 -146 -15 -201 -20
-55 -6 -138 -15 -184 -21 -46 -5 -129 -13 -183 -16 -70 -4 -105 -11 -118 -22
-18 -15 -20 -37 -24 -266 -2 -137 -9 -281 -14 -320 -6 -38 -16 -122 -22 -185
-34 -341 -68 -569 -116 -764 -47 -189 -86 -303 -159 -454 -46 -95 -54 -129
-33 -150 17 -17 53 -15 70 6 24 27 86 155 134 279 49 124 116 382 140 532 28
185 43 297 54 396 6 55 15 145 21 200 5 55 15 134 20 175 5 41 13 162 16 268
6 185 7 193 27 196 12 3 75 9 141 16 66 6 154 15 195 20 41 5 110 13 153 16
l77 6 -10 -26 c-5 -15 -10 -94 -10 -175 0 -82 -3 -162 -6 -178 -7 -33 6 -30
-277 -68 -108 -14 -129 -26 -125 -64 5 -41 43 -54 130 -42 40 6 114 16 165 23
51 6 96 9 100 4 4 -4 8 -78 8 -164 l0 -157 -60 -6 c-33 -4 -116 -12 -185 -19
-158 -15 -289 -37 -307 -51 -21 -18 -16 -57 11 -74 22 -15 34 -15 128 -1 95
14 181 23 443 46 55 5 140 14 189 20 49 6 158 14 241 19 83 5 161 14 173 20
27 14 36 45 21 72 -11 22 -14 22 -168 16 -142 -6 -293 -20 -347 -32 -20 -4
-21 0 -27 162 -5 124 -4 169 5 174 6 4 39 10 72 14 34 3 84 10 111 15 28 6 97
14 153 19 111 10 142 25 142 66 0 41 -22 48 -123 41 -51 -3 -130 -12 -177 -20
-47 -8 -108 -17 -135 -20 l-50 -6 3 169 c4 137 1 175 -11 200 l-15 30 62 5
c33 3 117 10 186 15 69 6 179 13 246 17 l121 6 7 -454 c3 -249 9 -711 12
-1027 l7 -574 -39 27 c-60 40 -114 31 -114 -18 0 -23 171 -186 194 -186 8 0
24 9 37 19 l24 19 0 499 c0 548 -14 1726 -21 1760 -2 13 -16 25 -35 32 -34 12
-56 12 -244 0z"/>
<path d="M930 1045 c-10 -12 -11 -38 -6 -103 4 -48 11 -144 15 -215 10 -139
23 -177 65 -177 39 0 49 23 47 108 -3 146 -30 365 -48 384 -20 22 -56 23 -73
3z"/>
</g>
</svg>
