<?xml version="1.0" standalone="no"?>
<!DOCTYPE svg PUBLIC "-//W3C//DTD SVG 20010904//EN"
 "http://www.w3.org/TR/2001/REC-SVG-20010904/DTD/svg10.dtd">
<svg version="1.0" xmlns="http://www.w3.org/2000/svg"
 width="248.000000pt" height="248.000000pt" viewBox="0 0 248.000000 248.000000"
 preserveAspectRatio="xMidYMid meet">
<metadata>
Created by potrace 1.10, written by Peter Selinger 2001-2011
</metadata>
<g transform="translate(0.000000,248.000000) scale(0.100000,-0.100000)"
fill="#000000" stroke="none">
<path d="M1096 2388 c-12 -17 -16 -47 -16 -124 l0 -101 -77 -7 c-43 -4 -96
-11 -118 -16 -22 -5 -83 -14 -135 -20 -52 -6 -171 -24 -265 -41 -209 -35 -209
-36 -200 -148 17 -214 16 -213 41 -238 19 -19 28 -22 44 -13 32 17 37 40 30
160 -4 63 -7 116 -6 117 2 3 268 45 451 72 77 12 185 25 240 30 55 6 153 17
218 26 162 21 358 36 577 42 184 5 260 -2 267 -24 3 -7 -20 -38 -49 -71 -125
-139 -158 -182 -158 -204 0 -59 57 -64 109 -10 160 167 224 261 219 318 -4 49
-38 70 -149 89 -140 25 -304 19 -704 -25 -252 -28 -225 -36 -225 68 0 50 -6
98 -13 112 -17 34 -60 39 -81 8z"/>
<path d="M1355 1850 c-27 -4 -95 -13 -150 -19 -55 -7 -140 -20 -190 -28 -49
-9 -117 -19 -151 -22 -68 -7 -94 -22 -94 -56 0 -53 56 -63 197 -37 126 24 223
37 383 53 190 18 202 21 219 51 14 24 14 28 -3 47 -16 18 -30 21 -90 20 -39
-1 -93 -5 -121 -9z"/>
</g>
</svg>
