<?xml version="1.0" standalone="no"?>
<!DOCTYPE svg PUBLIC "-//W3C//DTD SVG 20010904//EN"
 "http://www.w3.org/TR/2001/REC-SVG-20010904/DTD/svg10.dtd">
<svg version="1.0" xmlns="http://www.w3.org/2000/svg"
 width="248.000000pt" height="248.000000pt" viewBox="0 0 248.000000 248.000000"
 preserveAspectRatio="xMidYMid meet">
<metadata>
Created by potrace 1.10, written by Peter Selinger 2001-2011
</metadata>
<g transform="translate(0.000000,248.000000) scale(0.100000,-0.100000)"
fill="#000000" stroke="none">
<path d="M1620 2258 c-124 -11 -236 -25 -250 -31 -30 -14 -38 -58 -15 -77 16
-13 158 -7 420 20 50 5 119 11 155 12 l65 3 -3 -115 c-7 -248 -74 -700 -104
-700 -5 0 -27 9 -49 21 -38 19 -42 19 -65 4 -47 -30 -29 -65 57 -114 101 -56
139 -38 169 79 39 148 63 335 91 685 14 169 13 203 -3 222 -15 18 -190 15
-468 -9z"/>
<path d="M1085 2224 c-22 -2 -83 -8 -135 -14 -52 -6 -160 -17 -240 -26 -146
-15 -265 -39 -287 -57 -16 -12 -17 -49 -1 -65 16 -16 68 -15 153 2 39 8 124
20 190 26 66 6 171 18 234 26 62 8 116 13 119 9 7 -7 6 -26 -14 -240 -24 -259
-58 -485 -73 -485 -3 0 -15 7 -25 15 -29 22 -53 18 -72 -10 -15 -23 -15 -27 0
-49 9 -14 33 -43 54 -65 46 -49 92 -56 117 -18 23 36 75 326 90 502 3 39 7 90
10 115 28 275 29 299 10 320 -18 20 -30 21 -130 14z"/>
<path d="M1293 2009 c-7 -7 -13 -23 -13 -34 0 -39 29 -52 130 -59 52 -3 120
-9 151 -12 53 -6 58 -5 74 20 16 24 16 28 2 50 -14 21 -26 24 -109 30 -51 4
-122 9 -158 12 -46 4 -69 2 -77 -7z"/>
<path d="M515 1915 c-66 -5 -126 -14 -132 -18 -22 -14 -15 -55 12 -73 20 -13
38 -15 83 -10 31 3 96 7 144 7 103 1 136 17 124 62 -10 40 -61 47 -231 32z"/>
<path d="M1575 1766 c-22 -12 -68 -42 -103 -65 -35 -24 -97 -61 -137 -82 -41
-22 -77 -48 -80 -58 -15 -49 36 -81 88 -56 18 8 102 59 187 113 116 73 156
104 158 120 8 54 -46 67 -113 28z"/>
<path d="M595 1630 c-55 -50 -123 -106 -151 -125 -60 -40 -70 -59 -49 -91 31
-48 67 -33 210 90 161 138 186 171 153 204 -29 29 -62 13 -163 -78z"/>
<path d="M1153 1229 c-82 -86 -281 -253 -392 -329 -71 -49 -86 -77 -55 -111
11 -13 24 -17 37 -13 96 30 537 405 553 469 7 30 -18 65 -47 65 -10 0 -53 -37
-96 -81z"/>
</g>
</svg>
