<?xml version="1.0" standalone="no"?>
<!DOCTYPE svg PUBLIC "-//W3C//DTD SVG 20010904//EN"
 "http://www.w3.org/TR/2001/REC-SVG-20010904/DTD/svg10.dtd">
<svg version="1.0" xmlns="http://www.w3.org/2000/svg"
 width="248.000000pt" height="248.000000pt" viewBox="0 0 248.000000 248.000000"
 preserveAspectRatio="xMidYMid meet">
<metadata>
Created by potrace 1.10, written by Peter Selinger 2001-2011
</metadata>
<g transform="translate(0.000000,248.000000) scale(0.100000,-0.100000)"
fill="#000000" stroke="none">
<path d="M1960 2282 c-327 -23 -570 -46 -590 -55 -30 -14 -38 -58 -15 -77 17
-14 102 -9 479 25 82 8 153 12 158 9 17 -11 -15 -388 -53 -619 -23 -136 -38
-195 -51 -195 -5 0 -27 9 -49 21 -38 19 -42 19 -65 4 -47 -30 -29 -65 57 -114
101 -56 139 -38 169 79 39 148 63 335 91 685 13 167 13 203 -2 221 -10 13 -71
21 -129 16z"/>
<path d="M1085 2224 c-22 -2 -83 -8 -135 -14 -52 -6 -160 -17 -240 -26 -146
-15 -265 -39 -287 -57 -16 -12 -17 -49 -1 -65 16 -16 68 -15 153 2 39 8 124
20 190 26 66 6 171 18 233 26 62 8 116 13 120 10 8 -5 5 -42 -23 -333 -14
-154 -49 -380 -59 -390 -3 -3 -15 2 -28 11 -32 23 -55 20 -74 -9 -15 -23 -15
-27 0 -49 9 -14 33 -43 54 -65 46 -49 92 -56 117 -18 23 36 75 326 90 502 3
39 7 90 10 115 28 275 29 299 10 320 -18 20 -30 21 -130 14z"/>
<path d="M1293 2009 c-7 -7 -13 -23 -13 -34 0 -42 27 -51 185 -64 148 -12 150
-11 168 10 9 12 17 25 17 29 0 4 -8 17 -17 28 -14 17 -34 22 -93 26 -41 3
-111 8 -155 11 -58 5 -83 3 -92 -6z"/>
<path d="M515 1915 c-66 -5 -126 -14 -132 -18 -22 -14 -15 -55 12 -73 19 -12
37 -15 73 -10 26 3 91 6 145 7 113 1 145 16 133 62 -10 40 -61 47 -231 32z"/>
<path d="M1575 1766 c-22 -12 -68 -42 -103 -65 -35 -24 -97 -61 -137 -82 -41
-22 -77 -48 -80 -58 -15 -49 36 -81 88 -56 18 8 102 59 187 113 116 73 156
104 158 120 8 54 -46 67 -113 28z"/>
<path d="M595 1630 c-55 -50 -123 -106 -151 -125 -60 -40 -70 -59 -49 -91 31
-48 67 -33 210 90 161 138 186 171 153 204 -29 29 -62 13 -163 -78z"/>
<path d="M1153 1229 c-69 -72 -275 -248 -358 -306 -16 -11 -52 -27 -80 -35
-76 -21 -79 -35 -45 -198 16 -74 45 -222 66 -328 33 -174 39 -195 60 -204 27
-13 52 -5 61 19 10 27 23 33 83 33 30 0 156 9 280 20 245 22 395 25 433 11 13
-5 27 -19 30 -30 7 -27 32 -36 61 -23 17 8 30 33 54 108 40 127 87 330 107
464 26 179 22 190 -66 209 -91 20 -479 9 -731 -20 -53 -6 -102 -9 -109 -7 -6
2 24 34 67 70 110 92 221 202 229 227 9 28 -19 71 -45 71 -11 0 -52 -34 -97
-81z m604 -348 c29 -4 55 -9 57 -12 2 -2 -3 -46 -12 -96 -15 -92 -15 -93 -46
-97 -58 -9 -331 -26 -406 -26 -41 0 -174 -9 -295 -20 -121 -11 -230 -20 -241
-20 -23 0 -33 27 -49 128 -7 41 -6 43 27 56 50 21 317 59 498 71 52 4 142 10
200 14 139 11 204 11 267 2z m5 -307 c6 -5 -47 -223 -56 -232 -2 -2 -89 -3
-193 -3 -103 1 -237 -4 -298 -9 -259 -25 -350 -29 -360 -19 -8 8 -46 180 -41
186 14 16 499 59 706 63 71 1 124 6 226 19 6 0 13 -2 16 -5z"/>
</g>
</svg>
