<?xml version="1.0" standalone="no"?>
<!DOCTYPE svg PUBLIC "-//W3C//DTD SVG 20010904//EN"
 "http://www.w3.org/TR/2001/REC-SVG-20010904/DTD/svg10.dtd">
<svg version="1.0" xmlns="http://www.w3.org/2000/svg"
 width="248.000000pt" height="248.000000pt" viewBox="0 0 248.000000 248.000000"
 preserveAspectRatio="xMidYMid meet">
<metadata>
Created by potrace 1.10, written by Peter Selinger 2001-2011
</metadata>
<g transform="translate(0.000000,248.000000) scale(0.100000,-0.100000)"
fill="#000000" stroke="none">
<path d="M622 2228 c-8 -8 -12 -57 -12 -153 l0 -141 -87 -17 c-49 -10 -144
-27 -213 -38 -137 -23 -170 -37 -170 -73 0 -62 37 -62 375 4 285 55 397 74
562 96 50 6 71 33 55 69 -16 35 -64 38 -203 15 -68 -12 -143 -24 -165 -27
l-41 -5 -5 120 c-3 100 -7 125 -23 142 -20 22 -55 26 -73 8z"/>
<path d="M815 1731 c-101 -18 -286 -58 -405 -88 -112 -28 -112 -27 -79 -260
20 -144 34 -188 65 -200 13 -5 158 12 195 23 15 4 17 -30 16 -415 l-1 -419
-24 39 c-13 21 -27 39 -32 39 -4 0 -15 3 -23 6 -17 6 -57 -29 -57 -50 0 -18
88 -149 129 -193 35 -38 69 -42 97 -12 18 20 19 44 20 522 l0 501 30 8 c16 5
61 8 99 7 102 -1 103 -1 115 21 42 79 72 432 39 465 -24 24 -75 26 -184 6z
m91 -187 c-3 -52 -11 -118 -17 -145 -10 -46 -12 -49 -43 -49 -17 0 -95 -11
-171 -24 -77 -13 -159 -27 -182 -30 l-41 -6 -12 73 c-6 39 -15 94 -19 120 -10
58 -12 57 129 87 52 11 134 28 181 39 84 19 126 27 163 30 18 1 19 -5 12 -95z"/>
</g>
</svg>
