<?xml version="1.0" standalone="no"?>
<!DOCTYPE svg PUBLIC "-//W3C//DTD SVG 20010904//EN"
 "http://www.w3.org/TR/2001/REC-SVG-20010904/DTD/svg10.dtd">
<svg version="1.0" xmlns="http://www.w3.org/2000/svg"
 width="248.000000pt" height="248.000000pt" viewBox="0 0 248.000000 248.000000"
 preserveAspectRatio="xMidYMid meet">
<metadata>
Created by potrace 1.10, written by Peter Selinger 2001-2011
</metadata>
<g transform="translate(0.000000,248.000000) scale(0.100000,-0.100000)"
fill="#000000" stroke="none">
<path d="M836 2328 c-9 -12 -16 -30 -16 -38 0 -9 -13 -37 -30 -63 -16 -26 -30
-50 -30 -53 0 -6 -104 -155 -177 -254 -26 -36 -64 -87 -83 -115 -52 -73 -247
-301 -314 -367 -50 -49 -57 -61 -54 -89 2 -26 9 -36 31 -43 26 -9 33 -5 103
64 41 41 101 106 132 144 l57 69 5 -109 c5 -104 3 -200 -15 -946 -9 -339 -8
-348 40 -348 12 0 30 9 41 21 17 19 20 45 26 253 5 186 21 1219 19 1262 -1 7
40 67 89 135 165 227 177 244 220 322 44 80 54 133 31 161 -19 23 -57 20 -75
-6z"/>
<path d="M1366 2328 c-9 -12 -16 -39 -16 -59 0 -70 -110 -303 -195 -414 -48
-63 -54 -93 -25 -117 31 -25 38 -23 82 25 36 38 65 82 141 218 l26 45 103 22
c57 12 148 29 203 37 55 8 115 18 133 21 28 6 31 4 25 -12 -15 -43 -140 -253
-177 -299 -116 -144 -295 -289 -430 -346 -86 -37 -102 -53 -93 -91 9 -35 38
-40 101 -18 79 27 128 54 228 128 120 88 204 167 271 255 52 68 217 350 217
372 1 24 20 35 95 50 44 9 90 23 103 31 30 19 29 59 -2 79 -22 14 -30 15 -83
1 -32 -8 -80 -17 -108 -20 -64 -8 -270 -42 -407 -67 -59 -10 -111 -19 -116
-19 -5 0 -3 23 4 52 8 29 14 64 14 78 0 36 -27 70 -55 70 -13 0 -31 -10 -39
-22z"/>
<path d="M799 1623 c-21 -24 -37 -999 -17 -1040 18 -38 67 -40 85 -3 8 17 13
174 19 517 6 450 5 494 -10 518 -19 29 -57 33 -77 8z"/>
</g>
</svg>
