<?xml version="1.0" standalone="no"?>
<!DOCTYPE svg PUBLIC "-//W3C//DTD SVG 20010904//EN"
 "http://www.w3.org/TR/2001/REC-SVG-20010904/DTD/svg10.dtd">
<svg version="1.0" xmlns="http://www.w3.org/2000/svg"
 width="248.000000pt" height="248.000000pt" viewBox="0 0 248.000000 248.000000"
 preserveAspectRatio="xMidYMid meet">
<metadata>
Created by potrace 1.10, written by Peter Selinger 2001-2011
</metadata>
<g transform="translate(0.000000,248.000000) scale(0.100000,-0.100000)"
fill="#000000" stroke="none">
<path d="M1096 2388 c-13 -17 -16 -49 -16 -143 0 -140 10 -170 55 -170 21 0
33 7 42 25 17 34 17 246 0 280 -17 34 -60 39 -81 8z"/>
<path d="M295 2017 c-13 -20 -13 -42 -5 -156 11 -139 18 -164 50 -181 29 -16
71 28 65 67 -2 15 -7 77 -10 137 -6 121 -19 156 -60 156 -15 0 -31 -9 -40 -23z"/>
</g>
</svg>
