<?xml version="1.0" standalone="no"?>
<!DOCTYPE svg PUBLIC "-//W3C//DTD SVG 20010904//EN"
 "http://www.w3.org/TR/2001/REC-SVG-20010904/DTD/svg10.dtd">
<svg version="1.0" xmlns="http://www.w3.org/2000/svg"
 width="248.000000pt" height="248.000000pt" viewBox="0 0 248.000000 248.000000"
 preserveAspectRatio="xMidYMid meet">
<metadata>
Created by potrace 1.10, written by Peter Selinger 2001-2011
</metadata>
<g transform="translate(0.000000,248.000000) scale(0.100000,-0.100000)"
fill="#000000" stroke="none">
<path d="M676 2218 c-13 -20 -13 -48 -4 -193 11 -188 4 -700 -12 -835 -20
-165 -32 -247 -61 -385 -40 -192 -94 -386 -124 -445 -38 -75 -30 -120 20 -120
27 0 45 20 78 86 66 132 165 582 197 899 29 292 19 939 -15 992 -20 30 -60 30
-79 1z"/>
<path d="M1339 2214 c-17 -20 -17 44 0 -904 11 -605 16 -749 27 -768 20 -30
59 -29 80 3 15 23 16 71 10 528 -9 671 -24 1094 -39 1127 -15 31 -57 39 -78
14z"/>
<path d="M282 1608 c-23 -23 -12 -58 31 -106 133 -148 139 -153 177 -150 32 3
35 6 37 38 3 32 -6 44 -90 133 -95 98 -125 115 -155 85z"/>
<path d="M1022 1588 c-29 -29 -14 -66 69 -173 25 -34 51 -70 58 -82 26 -50 91
-35 91 21 0 31 -22 66 -136 214 -26 33 -60 42 -82 20z"/>
</g>
</svg>
