<?xml version="1.0" standalone="no"?>
<!DOCTYPE svg PUBLIC "-//W3C//DTD SVG 20010904//EN"
 "http://www.w3.org/TR/2001/REC-SVG-20010904/DTD/svg10.dtd">
<svg version="1.0" xmlns="http://www.w3.org/2000/svg"
 width="248.000000pt" height="248.000000pt" viewBox="0 0 248.000000 248.000000"
 preserveAspectRatio="xMidYMid meet">
<metadata>
Created by potrace 1.10, written by Peter Selinger 2001-2011
</metadata>
<g transform="translate(0.000000,248.000000) scale(0.100000,-0.100000)"
fill="#000000" stroke="none">
<path d="M1950 2289 c-102 -4 -208 -9 -235 -13 -28 -3 -111 -11 -185 -16 -191
-15 -308 -37 -347 -67 -39 -28 -41 -49 -11 -106 20 -38 22 -57 22 -192 0 -82
-5 -202 -12 -265 -7 -63 -21 -203 -32 -310 -20 -205 -52 -376 -101 -548 -16
-56 -29 -110 -29 -120 0 -41 54 -57 83 -24 20 23 70 195 102 357 20 101 63
441 65 512 0 7 13 9 38 6 20 -2 127 7 237 21 110 15 261 29 335 32 74 4 143
11 153 16 19 10 23 58 6 75 -11 11 -201 10 -312 -1 l-37 -4 6 96 c4 54 9 100
13 104 3 4 62 14 131 23 134 17 170 32 170 69 0 48 -20 52 -162 33 -72 -9
-135 -14 -139 -11 -5 3 -9 38 -9 77 0 81 -17 117 -54 117 -41 0 -49 -21 -41
-113 5 -64 4 -85 -6 -94 -8 -6 -61 -14 -119 -18 -112 -7 -130 -14 -130 -50 0
-40 21 -47 137 -44 l108 3 3 -42 c3 -35 -12 -150 -21 -158 -1 -2 -59 -10 -127
-19 -69 -9 -134 -20 -145 -24 -20 -8 -20 -4 -20 243 0 138 -2 260 -5 270 -4
16 4 21 60 32 66 14 502 51 665 56 l90 3 -1 -65 c0 -36 -4 -169 -9 -296 -8
-225 3 -514 35 -894 18 -216 23 -337 14 -343 -5 -3 -41 8 -79 25 -38 17 -86
33 -106 35 -34 5 -40 3 -51 -22 -18 -40 -4 -54 108 -103 132 -59 157 -62 196
-26 l30 29 -5 190 c-3 105 -10 251 -16 325 -24 299 -41 629 -36 705 2 44 7
130 10 190 3 61 11 153 16 206 12 110 6 135 -38 140 -16 2 -111 1 -213 -2z"/>
<path d="M1507 1415 c-43 -8 -90 -21 -103 -30 -27 -17 -31 -50 -10 -74 13 -14
34 -218 34 -324 0 -35 18 -57 47 -57 42 0 48 22 45 143 -2 62 -4 141 -4 177
l-1 65 90 12 c50 6 110 12 134 12 l44 1 -7 -82 c-4 -46 -14 -111 -22 -146 -24
-107 -16 -142 32 -142 45 0 62 52 90 274 13 106 15 152 7 164 -9 15 -31 17
-154 18 -81 1 -178 -4 -222 -11z"/>
</g>
</svg>
