<?xml version="1.0" standalone="no"?>
<!DOCTYPE svg PUBLIC "-//W3C//DTD SVG 20010904//EN"
 "http://www.w3.org/TR/2001/REC-SVG-20010904/DTD/svg10.dtd">
<svg version="1.0" xmlns="http://www.w3.org/2000/svg"
 width="248.000000pt" height="248.000000pt" viewBox="0 0 248.000000 248.000000"
 preserveAspectRatio="xMidYMid meet">
<metadata>
Created by potrace 1.10, written by Peter Selinger 2001-2011
</metadata>
<g transform="translate(0.000000,248.000000) scale(0.100000,-0.100000)"
fill="#000000" stroke="none">
<path d="M1114 2308 c-38 -40 -99 -97 -137 -126 -56 -43 -67 -57 -67 -82 0
-47 49 -65 86 -32 10 10 45 36 76 58 83 59 178 167 178 202 0 15 -5 33 -12 40
-26 26 -54 12 -124 -60z"/>
<path d="M690 2055 c-10 -12 -13 -120 -15 -468 -1 -352 -5 -478 -18 -572 -9
-66 -25 -185 -36 -265 -11 -80 -36 -224 -56 -320 -48 -232 -50 -247 -35 -265
17 -20 53 -19 73 3 31 35 96 363 144 735 l37 282 1 415 c0 382 -1 418 -18 443
-20 30 -57 36 -77 12z"/>
</g>
</svg>
