<?xml version="1.0" standalone="no"?>
<!DOCTYPE svg PUBLIC "-//W3C//DTD SVG 20010904//EN"
 "http://www.w3.org/TR/2001/REC-SVG-20010904/DTD/svg10.dtd">
<svg version="1.0" xmlns="http://www.w3.org/2000/svg"
 width="248.000000pt" height="248.000000pt" viewBox="0 0 248.000000 248.000000"
 preserveAspectRatio="xMidYMid meet">
<metadata>
Created by potrace 1.10, written by Peter Selinger 2001-2011
</metadata>
<g transform="translate(0.000000,248.000000) scale(0.100000,-0.100000)"
fill="#000000" stroke="none">
<path d="M836 2328 c-9 -12 -16 -30 -16 -38 0 -9 -13 -37 -30 -63 -16 -26 -30
-50 -30 -53 0 -6 -104 -155 -177 -254 -26 -36 -64 -87 -83 -115 -52 -73 -247
-301 -314 -367 -50 -49 -57 -61 -54 -89 2 -26 9 -36 31 -43 26 -9 33 -5 103
64 41 41 101 106 132 144 l57 69 5 -109 c5 -104 3 -200 -15 -946 -9 -339 -8
-348 40 -348 12 0 30 9 41 21 17 19 20 45 26 253 5 186 21 1219 19 1262 -1 7
40 67 89 135 165 227 177 244 220 322 44 80 54 133 31 161 -19 23 -57 20 -75
-6z"/>
</g>
</svg>
