<?xml version="1.0" standalone="no"?>
<!DOCTYPE svg PUBLIC "-//W3C//DTD SVG 20010904//EN"
 "http://www.w3.org/TR/2001/REC-SVG-20010904/DTD/svg10.dtd">
<svg version="1.0" xmlns="http://www.w3.org/2000/svg"
 width="248.000000pt" height="248.000000pt" viewBox="0 0 248.000000 248.000000"
 preserveAspectRatio="xMidYMid meet">
<metadata>
Created by potrace 1.10, written by Peter Selinger 2001-2011
</metadata>
<g transform="translate(0.000000,248.000000) scale(0.100000,-0.100000)"
fill="#000000" stroke="none">
<path d="M619 2334 c-11 -14 -15 -76 -17 -315 l-3 -297 -67 -11 c-37 -6 -116
-18 -177 -27 -116 -16 -145 -30 -145 -69 0 -46 19 -50 168 -31 75 10 156 20
178 23 l42 5 7 -203 c3 -112 5 -242 3 -288 l-3 -84 -70 -29 c-38 -16 -113 -45
-165 -65 -107 -41 -130 -57 -130 -88 0 -61 47 -59 215 10 75 30 140 55 145 55
6 0 10 -104 10 -275 l0 -274 -30 5 c-62 13 -78 -38 -34 -109 55 -88 89 -106
134 -69 30 24 39 141 40 493 l0 275 58 18 c67 21 92 41 92 71 0 45 -43 54
-127 29 -22 -6 -23 -4 -23 68 0 41 -3 163 -7 271 l-6 196 24 5 c13 2 74 12
134 21 135 21 147 27 143 67 -5 50 -23 54 -155 35 -65 -9 -124 -17 -130 -17
-10 0 -13 63 -13 283 0 206 -4 289 -13 307 -15 31 -58 38 -78 14z"/>
</g>
</svg>
