<?xml version="1.0" standalone="no"?>
<!DOCTYPE svg PUBLIC "-//W3C//DTD SVG 20010904//EN"
 "http://www.w3.org/TR/2001/REC-SVG-20010904/DTD/svg10.dtd">
<svg version="1.0" xmlns="http://www.w3.org/2000/svg"
 width="248.000000pt" height="248.000000pt" viewBox="0 0 248.000000 248.000000"
 preserveAspectRatio="xMidYMid meet">
<metadata>
Created by potrace 1.10, written by Peter Selinger 2001-2011
</metadata>
<g transform="translate(0.000000,248.000000) scale(0.100000,-0.100000)"
fill="#000000" stroke="none">
<path d="M795 1739 c-60 -10 -133 -18 -161 -18 -28 -1 -75 -5 -105 -11 -30 -5
-106 -17 -169 -26 -72 -9 -122 -21 -132 -31 -22 -20 -23 -56 -3 -73 16 -13 27
-13 245 15 63 8 160 19 215 25 135 15 286 40 308 52 20 10 23 58 5 76 -16 16
-68 13 -203 -9z"/>
</g>
</svg>
