<?xml version="1.0" standalone="no"?>
<!DOCTYPE svg PUBLIC "-//W3C//DTD SVG 20010904//EN"
 "http://www.w3.org/TR/2001/REC-SVG-20010904/DTD/svg10.dtd">
<svg version="1.0" xmlns="http://www.w3.org/2000/svg"
 width="248.000000pt" height="248.000000pt" viewBox="0 0 248.000000 248.000000"
 preserveAspectRatio="xMidYMid meet">
<metadata>
Created by potrace 1.10, written by Peter Selinger 2001-2011
</metadata>
<g transform="translate(0.000000,248.000000) scale(0.100000,-0.100000)"
fill="#000000" stroke="none">
<path d="M836 2328 c-9 -12 -16 -30 -16 -38 0 -9 -13 -37 -30 -63 -16 -26 -30
-50 -30 -53 0 -6 -104 -155 -177 -254 -26 -36 -64 -87 -83 -115 -52 -73 -247
-301 -314 -367 -50 -49 -57 -61 -54 -89 2 -26 9 -36 31 -43 25 -9 32 -5 93 54
36 36 100 106 143 156 140 168 148 178 395 519 66 92 128 211 129 249 0 19 -5
41 -12 50 -19 23 -57 20 -75 -6z"/>
</g>
</svg>
