<?xml version="1.0" standalone="no"?>
<!DOCTYPE svg PUBLIC "-//W3C//DTD SVG 20010904//EN"
 "http://www.w3.org/TR/2001/REC-SVG-20010904/DTD/svg10.dtd">
<svg version="1.0" xmlns="http://www.w3.org/2000/svg"
 width="248.000000pt" height="248.000000pt" viewBox="0 0 248.000000 248.000000"
 preserveAspectRatio="xMidYMid meet">
<metadata>
Created by potrace 1.10, written by Peter Selinger 2001-2011
</metadata>
<g transform="translate(0.000000,248.000000) scale(0.100000,-0.100000)"
fill="#000000" stroke="none">
<path d="M1115 2308 c-39 -40 -99 -95 -134 -122 -58 -45 -73 -51 -148 -63 -84
-13 -135 -32 -149 -55 -4 -6 -8 -219 -9 -472 -1 -363 -5 -487 -18 -581 -9 -66
-25 -185 -36 -265 -11 -80 -36 -224 -56 -320 -48 -232 -50 -247 -35 -265 17
-20 53 -19 73 3 31 35 96 364 144 735 l37 282 1 412 0 413 25 5 c14 2 65 9
114 15 48 6 123 17 165 25 98 18 266 42 360 50 40 4 78 8 85 11 8 3 11 -151
12 -603 1 -535 13 -985 31 -1137 l5 -49 -38 31 c-46 38 -78 41 -99 8 -19 -29
-9 -56 31 -82 14 -10 31 -29 39 -43 7 -14 29 -43 49 -64 29 -32 41 -38 68 -35
23 2 37 11 46 28 14 26 14 20 -8 435 -6 105 -13 504 -15 888 -2 384 -7 703
-11 708 -14 23 -58 30 -128 20 -39 -5 -116 -15 -171 -21 -55 -6 -122 -16 -149
-21 -27 -5 -51 -7 -53 -5 -3 2 20 32 51 65 57 62 71 102 44 129 -26 26 -54 12
-123 -60z"/>
<path d="M1012 1748 c-24 -24 -11 -59 47 -136 84 -109 165 -192 188 -192 24 0
53 30 53 54 0 9 -17 35 -38 59 -21 23 -73 84 -116 135 -78 93 -105 109 -134
80z"/>
</g>
</svg>
