<?xml version="1.0" standalone="no"?>
<!DOCTYPE svg PUBLIC "-//W3C//DTD SVG 20010904//EN"
 "http://www.w3.org/TR/2001/REC-SVG-20010904/DTD/svg10.dtd">
<svg version="1.0" xmlns="http://www.w3.org/2000/svg"
 width="248.000000pt" height="248.000000pt" viewBox="0 0 248.000000 248.000000"
 preserveAspectRatio="xMidYMid meet">
<metadata>
Created by potrace 1.10, written by Peter Selinger 2001-2011
</metadata>
<g transform="translate(0.000000,248.000000) scale(0.100000,-0.100000)"
fill="#000000" stroke="none">
<path d="M622 2228 c-8 -8 -12 -57 -12 -153 l0 -141 -87 -17 c-49 -10 -144
-27 -213 -38 -137 -23 -170 -37 -170 -73 0 -62 37 -62 375 4 285 55 397 74
562 96 50 6 71 33 55 69 -16 35 -64 38 -203 15 -68 -12 -143 -24 -165 -27
l-41 -5 -5 120 c-3 100 -7 125 -23 142 -20 22 -55 26 -73 8z"/>
</g>
</svg>
