<?xml version="1.0" standalone="no"?>
<!DOCTYPE svg PUBLIC "-//W3C//DTD SVG 20010904//EN"
 "http://www.w3.org/TR/2001/REC-SVG-20010904/DTD/svg10.dtd">
<svg version="1.0" xmlns="http://www.w3.org/2000/svg"
 width="248.000000pt" height="248.000000pt" viewBox="0 0 248.000000 248.000000"
 preserveAspectRatio="xMidYMid meet">
<metadata>
Created by potrace 1.10, written by Peter Selinger 2001-2011
</metadata>
<g transform="translate(0.000000,248.000000) scale(0.100000,-0.100000)"
fill="#000000" stroke="none">
<path d="M619 2334 c-11 -14 -15 -76 -17 -315 l-3 -297 -67 -11 c-37 -6 -116
-18 -177 -27 -116 -16 -145 -30 -145 -69 0 -46 19 -50 168 -31 75 10 156 20
178 23 l42 5 7 -203 c3 -112 5 -242 3 -288 l-3 -84 -70 -29 c-38 -16 -113 -45
-165 -65 -107 -41 -130 -57 -130 -88 0 -61 47 -59 215 10 75 30 140 55 145 55
6 0 10 -104 10 -275 l0 -274 -30 5 c-62 13 -78 -38 -34 -109 55 -88 89 -106
134 -69 30 24 39 141 40 493 l0 275 58 18 c67 21 92 41 92 71 0 45 -43 54
-127 29 -22 -6 -23 -4 -23 68 0 41 -3 163 -7 271 l-6 196 24 5 c13 2 74 12
134 21 135 21 147 27 143 67 -5 50 -23 54 -155 35 -65 -9 -124 -17 -130 -17
-10 0 -13 63 -13 283 0 206 -4 289 -13 307 -15 31 -58 38 -78 14z"/>
<path d="M1527 2189 c-10 -6 -28 -34 -41 -62 -27 -61 -164 -267 -210 -317 -18
-19 -48 -57 -66 -85 -70 -105 -189 -245 -317 -372 -103 -103 -120 -132 -91
-161 23 -23 56 -12 115 38 76 64 233 240 317 355 36 50 81 108 100 130 43 52
155 209 186 260 13 22 25 42 27 44 11 14 75 -68 319 -409 53 -74 138 -177 188
-228 98 -101 279 -252 302 -252 18 0 54 36 54 53 0 20 -17 37 -110 114 -113
94 -248 232 -307 314 -26 37 -81 113 -122 170 -105 148 -180 247 -223 298 -21
24 -38 49 -38 56 0 17 -39 65 -53 65 -7 0 -20 -5 -30 -11z"/>
<path d="M1309 1331 c-145 -6 -169 -14 -169 -57 0 -51 8 -52 443 -47 440 6
451 7 445 61 -6 48 -29 52 -318 50 -146 -1 -326 -4 -401 -7z"/>
<path d="M1358 1010 c-141 -4 -170 -8 -185 -22 -15 -16 -17 -37 -14 -170 3
-236 31 -549 50 -572 21 -25 72 -29 378 -31 345 -3 326 -7 337 85 7 53 41 220
71 346 9 34 22 113 29 175 17 135 9 169 -44 188 -34 11 -296 12 -622 1z m568
-132 c-3 -18 -8 -58 -11 -88 -4 -30 -19 -113 -35 -185 -16 -71 -36 -164 -45
-206 l-16 -76 -259 -1 -258 -1 -11 77 c-6 42 -13 138 -16 212 -3 74 -8 170
-10 212 l-5 77 112 4 c62 1 213 4 336 5 l223 2 -5 -32z"/>
</g>
</svg>
