<?xml version="1.0" standalone="no"?>
<!DOCTYPE svg PUBLIC "-//W3C//DTD SVG 20010904//EN"
 "http://www.w3.org/TR/2001/REC-SVG-20010904/DTD/svg10.dtd">
<svg version="1.0" xmlns="http://www.w3.org/2000/svg"
 width="248.000000pt" height="248.000000pt" viewBox="0 0 248.000000 248.000000"
 preserveAspectRatio="xMidYMid meet">
<metadata>
Created by potrace 1.10, written by Peter Selinger 2001-2011
</metadata>
<g transform="translate(0.000000,248.000000) scale(0.100000,-0.100000)"
fill="#000000" stroke="none">
<path d="M836 2328 c-9 -12 -16 -30 -16 -38 0 -9 -13 -37 -30 -63 -16 -26 -30
-50 -30 -53 0 -6 -104 -155 -177 -254 -26 -36 -64 -87 -83 -115 -52 -73 -247
-301 -314 -367 -50 -49 -57 -61 -54 -89 2 -26 9 -36 31 -43 26 -9 33 -5 103
64 41 41 101 106 132 144 l57 69 5 -109 c5 -104 3 -200 -15 -946 -9 -339 -8
-348 40 -348 12 0 30 9 41 21 17 19 20 45 26 253 5 186 21 1219 19 1262 -1 7
40 67 89 135 165 227 177 244 220 322 44 80 54 133 31 161 -19 23 -57 20 -75
-6z"/>
<path d="M1366 2328 c-9 -12 -16 -39 -16 -59 0 -70 -110 -303 -195 -414 -48
-63 -54 -93 -25 -117 31 -25 38 -23 82 25 36 38 65 82 141 218 l26 45 103 22
c57 12 148 29 203 37 55 8 115 18 133 21 28 6 31 4 25 -12 -14 -39 -145 -263
-163 -279 -19 -17 -23 -16 -82 5 -35 13 -95 38 -135 57 -76 35 -111 41 -131
21 -17 -17 -15 -53 6 -70 19 -18 137 -78 151 -78 5 0 31 -9 57 -20 l47 -21
-34 -35 c-64 -66 -243 -191 -323 -225 -43 -19 -83 -41 -89 -50 -14 -23 -1 -66
24 -72 22 -6 102 19 167 52 62 32 215 146 293 220 l68 64 163 -63 c242 -94
346 -127 436 -141 89 -14 112 -6 112 35 0 42 -25 57 -112 70 -55 8 -197 55
-387 128 -75 28 -137 53 -139 54 -2 1 34 65 78 143 45 78 91 163 102 189 11
26 21 48 22 49 1 1 37 9 81 18 44 9 90 23 103 31 30 19 29 59 -2 79 -22 14
-30 15 -83 1 -32 -8 -80 -17 -108 -20 -64 -8 -270 -42 -407 -67 -59 -10 -111
-19 -116 -19 -5 0 -3 23 4 52 8 29 14 64 14 78 0 36 -27 70 -55 70 -13 0 -31
-10 -39 -22z"/>
<path d="M799 1623 c-21 -24 -37 -999 -17 -1040 18 -38 67 -40 85 -3 8 17 13
174 19 517 6 450 5 494 -10 518 -19 29 -57 33 -77 8z"/>
<path d="M1763 1392 c-121 -165 -255 -271 -554 -435 -69 -38 -87 -64 -68 -99
14 -26 62 -23 117 8 296 167 399 244 533 396 56 63 69 85 69 111 0 68 -54 78
-97 19z"/>
<path d="M1891 1068 c-94 -126 -331 -300 -557 -409 -133 -65 -154 -84 -135
-127 10 -22 16 -24 51 -19 69 9 301 134 450 242 77 56 189 147 217 176 73 79
101 147 71 177 -26 26 -57 13 -97 -40z"/>
<path d="M1937 555 c-110 -121 -225 -206 -382 -284 -77 -38 -180 -82 -230 -96
-108 -32 -135 -48 -135 -78 0 -68 82 -61 290 25 193 80 308 150 449 277 127
114 167 181 129 219 -26 26 -53 11 -121 -63z"/>
</g>
</svg>
