<?xml version="1.0" standalone="no"?>
<!DOCTYPE svg PUBLIC "-//W3C//DTD SVG 20010904//EN"
 "http://www.w3.org/TR/2001/REC-SVG-20010904/DTD/svg10.dtd">
<svg version="1.0" xmlns="http://www.w3.org/2000/svg"
 width="248.000000pt" height="248.000000pt" viewBox="0 0 248.000000 248.000000"
 preserveAspectRatio="xMidYMid meet">
<metadata>
Created by potrace 1.10, written by Peter Selinger 2001-2011
</metadata>
<g transform="translate(0.000000,248.000000) scale(0.100000,-0.100000)"
fill="#000000" stroke="none">
<path d="M592 2298 c-22 -22 -13 -59 19 -87 17 -14 73 -65 124 -113 51 -49 98
-88 104 -88 15 0 51 37 51 53 0 21 -36 67 -98 127 -111 108 -169 139 -200 108z"/>
<path d="M1680 2050 c-91 -16 -183 -34 -205 -41 -22 -6 -79 -17 -128 -24 -49
-8 -95 -19 -103 -26 -12 -10 -14 -33 -10 -123 3 -61 10 -442 15 -846 5 -404
11 -744 13 -755 3 -18 -4 -21 -62 -26 -36 -4 -94 -7 -130 -8 -75 -1 -110 -19
-110 -56 0 -45 38 -58 143 -51 50 4 124 11 162 16 162 23 491 43 788 49 300 6
319 7 333 25 18 25 18 37 0 62 -13 17 -30 19 -164 22 l-149 3 -6 102 c-4 56
-10 456 -13 890 -6 664 -9 789 -22 799 -28 24 -179 19 -352 -12z m260 -353 l0
-274 -97 -12 c-53 -6 -140 -22 -192 -36 -76 -19 -279 -65 -287 -65 -1 0 -4 80
-8 178 -3 97 -9 224 -12 282 l-6 105 88 18 c49 10 136 27 194 38 58 11 123 24
145 28 22 5 70 9 108 10 l67 1 0 -273z m2 -599 c3 -117 4 -214 3 -216 -1 -1
-53 -7 -116 -13 -106 -9 -379 -58 -442 -79 l-27 -9 2 211 3 212 65 13 c36 8
130 30 210 48 156 37 181 41 251 44 l47 1 4 -212z m16 -823 c-2 -1 -70 -8
-153 -14 -82 -6 -212 -16 -289 -21 -76 -6 -140 -10 -141 -8 -2 2 -7 103 -11
224 l-7 222 69 15 c163 37 288 59 399 70 l120 12 8 -249 c4 -137 6 -250 5
-251z"/>
<path d="M940 1903 c-91 -14 -353 -69 -445 -94 -60 -16 -124 -29 -140 -29 -68
0 -101 -63 -50 -96 29 -19 54 -16 245 31 173 43 300 69 307 61 13 -13 -117
-181 -254 -327 -108 -115 -324 -312 -427 -389 -64 -48 -88 -88 -70 -118 18
-28 58 -26 96 5 18 15 53 44 78 63 25 19 100 83 166 142 l122 107 3 -582 c4
-538 5 -585 22 -610 20 -31 57 -36 78 -11 10 13 12 128 10 591 l-3 575 60 -68
c154 -179 193 -209 230 -172 33 33 1 80 -221 317 l-69 73 39 42 c22 22 53 59
68 81 16 22 41 54 56 70 55 61 189 265 189 289 0 37 -37 57 -90 49z"/>
</g>
</svg>
