<?xml version="1.0" standalone="no"?>
<!DOCTYPE svg PUBLIC "-//W3C//DTD SVG 20010904//EN"
 "http://www.w3.org/TR/2001/REC-SVG-20010904/DTD/svg10.dtd">
<svg version="1.0" xmlns="http://www.w3.org/2000/svg"
 width="248.000000pt" height="248.000000pt" viewBox="0 0 248.000000 248.000000"
 preserveAspectRatio="xMidYMid meet">
<metadata>
Created by potrace 1.10, written by Peter Selinger 2001-2011
</metadata>
<g transform="translate(0.000000,248.000000) scale(0.100000,-0.100000)"
fill="#000000" stroke="none">
<path d="M592 2298 c-22 -22 -13 -59 19 -87 17 -14 73 -65 124 -113 51 -49 98
-88 104 -88 15 0 51 37 51 53 0 21 -36 67 -98 127 -111 108 -169 139 -200 108z"/>
<path d="M940 1903 c-91 -14 -353 -69 -445 -94 -60 -16 -124 -29 -140 -29 -68
0 -101 -63 -50 -96 29 -19 54 -16 245 31 173 43 300 69 307 61 13 -13 -117
-181 -254 -327 -108 -115 -324 -312 -427 -389 -64 -48 -88 -88 -70 -118 18
-28 58 -26 96 5 18 15 53 44 78 63 146 112 457 412 510 490 13 19 36 49 51 65
54 60 189 265 189 289 0 37 -37 57 -90 49z"/>
</g>
</svg>
