<?xml version="1.0" standalone="no"?>
<!DOCTYPE svg PUBLIC "-//W3C//DTD SVG 20010904//EN"
 "http://www.w3.org/TR/2001/REC-SVG-20010904/DTD/svg10.dtd">
<svg version="1.0" xmlns="http://www.w3.org/2000/svg"
 width="248.000000pt" height="248.000000pt" viewBox="0 0 248.000000 248.000000"
 preserveAspectRatio="xMidYMid meet">
<metadata>
Created by potrace 1.10, written by Peter Selinger 2001-2011
</metadata>
<g transform="translate(0.000000,248.000000) scale(0.100000,-0.100000)"
fill="#000000" stroke="none">
<path d="M1121 2347 c-7 -9 -11 -70 -10 -173 0 -87 -4 -171 -10 -185 -9 -25
-15 -27 -93 -34 -46 -3 -132 -15 -193 -25 -60 -11 -162 -26 -225 -34 -63 -9
-137 -18 -165 -22 -59 -8 -75 -18 -75 -48 0 -62 56 -62 480 4 162 25 200 28
200 17 0 -19 -94 -129 -152 -179 -34 -29 -87 -76 -117 -104 -31 -28 -82 -68
-113 -88 -62 -39 -74 -68 -42 -100 21 -22 33 -21 254 24 107 22 229 47 270 55
79 14 313 65 416 90 33 8 71 15 84 15 28 0 135 -92 185 -160 42 -57 68 -69 96
-44 52 47 7 104 -321 407 -74 68 -110 83 -138 55 -25 -25 -12 -56 43 -109 54
-51 55 -54 33 -62 -28 -11 -201 -49 -508 -112 -69 -15 -136 -29 -150 -31 l-24
-5 19 21 c11 12 42 38 69 58 26 19 91 89 142 153 52 65 104 125 116 133 37 23
343 50 713 62 110 4 206 11 213 17 17 13 15 52 -3 67 -21 17 -526 7 -744 -15
-84 -9 -155 -14 -157 -12 -2 1 -5 80 -7 174 -3 121 -8 177 -17 187 -15 20 -54
21 -69 3z"/>
<path d="M1395 1330 c-104 -7 -338 -40 -415 -59 -19 -5 -57 -12 -85 -16 -27
-4 -61 -13 -74 -22 -19 -12 -22 -20 -16 -46 15 -61 8 -605 -9 -827 l-17 -215
21 -17 c20 -16 42 -15 66 4 21 16 45 408 45 733 0 132 2 251 5 265 4 24 12 27
92 43 152 30 340 57 431 62 106 6 100 14 100 -130 0 -55 4 -179 10 -275 14
-246 18 -606 5 -619 -2 -2 -34 17 -71 43 -77 52 -105 57 -129 21 -15 -23 -15
-27 0 -50 9 -14 20 -25 25 -25 5 0 44 -27 87 -60 93 -71 124 -76 160 -23 17
26 23 53 28 150 7 117 1 493 -10 587 -3 27 -7 140 -8 252 -2 148 -6 207 -16
218 -14 17 -35 18 -225 6z"/>
</g>
</svg>
