<?xml version="1.0" standalone="no"?>
<!DOCTYPE svg PUBLIC "-//W3C//DTD SVG 20010904//EN"
 "http://www.w3.org/TR/2001/REC-SVG-20010904/DTD/svg10.dtd">
<svg version="1.0" xmlns="http://www.w3.org/2000/svg"
 width="248.000000pt" height="248.000000pt" viewBox="0 0 248.000000 248.000000"
 preserveAspectRatio="xMidYMid meet">
<metadata>
Created by potrace 1.10, written by Peter Selinger 2001-2011
</metadata>
<g transform="translate(0.000000,248.000000) scale(0.100000,-0.100000)"
fill="#000000" stroke="none">
<path d="M1121 2347 c-7 -9 -11 -70 -10 -173 0 -87 -4 -171 -10 -185 -9 -25
-15 -27 -93 -34 -46 -3 -132 -15 -193 -25 -60 -11 -162 -26 -225 -34 -63 -9
-137 -18 -165 -22 -59 -8 -75 -18 -75 -48 0 -63 46 -62 545 13 130 20 587 67
725 75 47 3 175 8 285 12 110 4 206 11 213 17 17 13 15 52 -3 67 -21 17 -526
7 -744 -15 -84 -9 -155 -14 -157 -12 -2 1 -5 80 -7 174 -3 121 -8 177 -17 187
-15 20 -54 21 -69 3z"/>
</g>
</svg>
