<?xml version="1.0" standalone="no"?>
<!DOCTYPE svg PUBLIC "-//W3C//DTD SVG 20010904//EN"
 "http://www.w3.org/TR/2001/REC-SVG-20010904/DTD/svg10.dtd">
<svg version="1.0" xmlns="http://www.w3.org/2000/svg"
 width="248.000000pt" height="248.000000pt" viewBox="0 0 248.000000 248.000000"
 preserveAspectRatio="xMidYMid meet">
<metadata>
Created by potrace 1.10, written by Peter Selinger 2001-2011
</metadata>
<g transform="translate(0.000000,248.000000) scale(0.100000,-0.100000)"
fill="#000000" stroke="none">
<path d="M1287 2353 c-31 -27 -138 -93 -246 -151 -105 -57 -196 -112 -202
-123 -7 -15 -7 -29 1 -52 8 -21 16 -168 22 -427 6 -268 13 -403 21 -420 9 -18
20 -25 42 -25 53 0 56 19 49 311 l-7 261 159 6 c87 4 235 7 327 7 l168 0 -6
-202 c-3 -112 -7 -239 -10 -283 -6 -98 7 -130 50 -130 52 0 56 23 67 374 13
426 9 594 -15 618 -16 16 -38 18 -180 18 -89 0 -220 -4 -292 -8 l-130 -8 80
43 c145 78 225 145 225 188 0 65 -51 66 -123 3z m333 -411 l0 -89 -321 -7
c-177 -4 -323 -5 -325 -3 -2 2 -7 37 -10 79 l-7 74 184 16 c101 8 250 16 332
17 l147 1 0 -88z"/>
</g>
</svg>
