<?xml version="1.0" standalone="no"?>
<!DOCTYPE svg PUBLIC "-//W3C//DTD SVG 20010904//EN"
 "http://www.w3.org/TR/2001/REC-SVG-20010904/DTD/svg10.dtd">
<svg version="1.0" xmlns="http://www.w3.org/2000/svg"
 width="248.000000pt" height="248.000000pt" viewBox="0 0 248.000000 248.000000"
 preserveAspectRatio="xMidYMid meet">
<metadata>
Created by potrace 1.10, written by Peter Selinger 2001-2011
</metadata>
<g transform="translate(0.000000,248.000000) scale(0.100000,-0.100000)"
fill="#000000" stroke="none">
<path d="M636 2198 c-9 -12 -16 -32 -16 -43 0 -11 -15 -47 -34 -80 -58 -106
-178 -310 -191 -325 -7 -8 -56 -80 -110 -160 -54 -80 -112 -163 -130 -185 -45
-56 -51 -79 -25 -105 42 -42 73 -15 197 168 42 62 81 116 87 119 10 7 3 -408
-15 -827 -6 -140 -9 -331 -8 -423 4 -153 6 -170 23 -183 25 -18 37 -18 62 0
17 13 19 29 21 193 2 98 10 392 19 653 8 261 14 540 13 620 l-4 145 73 123
c127 213 146 264 118 307 -21 32 -59 33 -80 3z"/>
<path d="M1213 2165 c-73 -18 -163 -36 -200 -40 -105 -9 -110 -12 -121 -47 -6
-18 -13 -157 -16 -308 -3 -151 -10 -351 -16 -445 -20 -317 -27 -530 -19 -551
13 -35 17 -35 244 -5 265 36 318 47 339 70 31 34 37 171 34 754 l-3 569 -24
19 c-31 26 -63 23 -218 -16z m137 -234 c0 -151 -1 -159 -19 -154 -10 3 -85 -9
-165 -26 -80 -17 -153 -31 -161 -31 -13 0 -15 24 -15 149 l0 149 65 7 c36 4
113 20 173 36 59 15 110 28 115 29 4 0 7 -72 7 -159z m0 -406 c0 -163 0 -165
-22 -169 -13 -3 -97 -18 -188 -34 l-165 -29 -3 106 c-1 58 1 131 5 161 7 49
11 55 33 58 52 5 296 55 310 63 8 5 18 9 23 9 4 0 7 -74 7 -165z m-2 -439 c-2
-91 -6 -167 -9 -170 -3 -3 -55 -13 -115 -21 -110 -15 -251 -36 -268 -38 -10
-2 -10 216 0 289 l6 41 76 13 c43 7 115 21 162 30 47 10 100 18 118 19 l33 1
-3 -164z"/>
</g>
</svg>
