<?xml version="1.0" standalone="no"?>
<!DOCTYPE svg PUBLIC "-//W3C//DTD SVG 20010904//EN"
 "http://www.w3.org/TR/2001/REC-SVG-20010904/DTD/svg10.dtd">
<svg version="1.0" xmlns="http://www.w3.org/2000/svg"
 width="248.000000pt" height="248.000000pt" viewBox="0 0 248.000000 248.000000"
 preserveAspectRatio="xMidYMid meet">
<metadata>
Created by potrace 1.10, written by Peter Selinger 2001-2011
</metadata>
<g transform="translate(0.000000,248.000000) scale(0.100000,-0.100000)"
fill="#000000" stroke="none">
<path d="M636 2198 c-9 -12 -16 -32 -16 -43 0 -11 -15 -47 -34 -80 -58 -106
-178 -310 -191 -325 -7 -8 -56 -80 -110 -160 -54 -80 -112 -163 -130 -185 -45
-56 -51 -79 -25 -105 42 -42 73 -15 197 168 42 62 81 116 87 119 10 7 3 -408
-15 -827 -6 -140 -9 -331 -8 -423 4 -153 6 -170 23 -183 25 -18 37 -18 62 0
17 13 19 29 21 193 2 98 10 392 19 653 8 261 14 540 13 620 l-4 145 73 123
c127 213 146 264 118 307 -21 32 -59 33 -80 3z"/>
<path d="M1213 2165 c-73 -18 -163 -36 -200 -40 -105 -9 -110 -12 -121 -47 -6
-18 -13 -157 -16 -308 -3 -151 -10 -349 -16 -440 -19 -301 -28 -535 -19 -556
12 -32 47 -37 74 -10 26 26 25 21 45 466 6 129 15 290 20 358 6 67 10 192 10
276 l0 154 63 7 c34 3 103 17 152 30 50 12 103 26 118 29 l28 7 -2 -620 c-1
-340 2 -624 5 -630 10 -16 61 -14 75 3 26 31 32 193 29 749 l-3 569 -24 19
c-31 26 -63 23 -218 -16z"/>
</g>
</svg>
