<?xml version="1.0" standalone="no"?>
<!DOCTYPE svg PUBLIC "-//W3C//DTD SVG 20010904//EN"
 "http://www.w3.org/TR/2001/REC-SVG-20010904/DTD/svg10.dtd">
<svg version="1.0" xmlns="http://www.w3.org/2000/svg"
 width="248.000000pt" height="248.000000pt" viewBox="0 0 248.000000 248.000000"
 preserveAspectRatio="xMidYMid meet">
<metadata>
Created by potrace 1.10, written by Peter Selinger 2001-2011
</metadata>
<g transform="translate(0.000000,248.000000) scale(0.100000,-0.100000)"
fill="#000000" stroke="none">
<path d="M1280 2255 c-74 -7 -166 -20 -205 -28 -38 -8 -92 -18 -120 -22 -121
-17 -115 20 -115 -690 0 -498 2 -601 15 -630 24 -60 78 -68 255 -36 58 10 160
25 228 32 82 9 127 18 135 27 8 11 14 101 18 306 4 160 12 408 19 551 15 314
12 458 -11 480 -23 23 -67 25 -219 10z m130 -257 c0 -90 -4 -169 -8 -176 -5
-6 -45 -17 -90 -22 -45 -6 -123 -19 -174 -30 -51 -10 -114 -22 -140 -25 l-48
-7 0 179 0 179 93 19 c74 14 254 37 350 44 16 1 17 -13 17 -161z m-14 -359
c-3 -34 -6 -102 -6 -150 l0 -88 -37 -6 c-56 -9 -337 -68 -386 -82 -16 -4 -17
7 -15 159 l3 163 55 7 c30 5 102 17 160 28 130 25 145 27 194 29 l39 1 -7 -61z
m-16 -498 l0 -149 -67 -7 c-38 -4 -117 -15 -177 -26 -60 -10 -127 -19 -148
-19 l-38 0 0 134 0 133 33 6 c37 7 193 40 287 61 120 27 110 39 110 -133z"/>
<path d="M322 2208 c-20 -20 -14 -53 19 -94 17 -21 34 -41 38 -44 4 -3 21 -23
37 -45 94 -130 139 -166 172 -133 25 25 6 96 -34 129 -9 8 -34 37 -56 66 -88
120 -141 156 -176 121z"/>
<path d="M1726 1918 c-14 -20 -16 -70 -16 -393 0 -407 2 -420 55 -420 53 0 55
13 55 415 0 273 -3 371 -13 390 -17 34 -60 39 -81 8z"/>
<path d="M142 1558 c-7 -7 -12 -21 -12 -31 0 -37 211 -268 256 -281 28 -8 54
17 54 50 0 38 -225 274 -260 274 -15 0 -31 -5 -38 -12z"/>
<path d="M374 583 c-51 -110 -84 -193 -136 -352 -24 -70 -18 -94 23 -99 41 -5
58 19 105 153 24 71 67 178 94 238 65 141 66 177 4 177 -34 0 -35 -1 -90 -117z"/>
<path d="M946 638 c-9 -12 -16 -32 -16 -43 0 -24 -64 -158 -139 -290 -65 -114
-66 -165 -6 -165 33 0 34 1 171 252 29 54 60 125 69 159 15 55 15 63 0 85 -20
31 -59 31 -79 2z"/>
<path d="M1232 628 c-7 -7 -12 -23 -12 -36 0 -27 57 -161 93 -219 13 -21 36
-71 53 -112 16 -41 39 -80 52 -88 20 -14 25 -14 47 1 14 9 25 26 25 37 0 25
-55 161 -85 209 -12 19 -37 69 -55 110 -19 41 -40 83 -48 93 -17 20 -53 22
-70 5z"/>
</g>
</svg>
