<?xml version="1.0" standalone="no"?>
<!DOCTYPE svg PUBLIC "-//W3C//DTD SVG 20010904//EN"
 "http://www.w3.org/TR/2001/REC-SVG-20010904/DTD/svg10.dtd">
<svg version="1.0" xmlns="http://www.w3.org/2000/svg"
 width="248.000000pt" height="248.000000pt" viewBox="0 0 248.000000 248.000000"
 preserveAspectRatio="xMidYMid meet">
<metadata>
Created by potrace 1.10, written by Peter Selinger 2001-2011
</metadata>
<g transform="translate(0.000000,248.000000) scale(0.100000,-0.100000)"
fill="#000000" stroke="none">
<path d="M1980 2098 c-30 -5 -111 -20 -180 -33 -69 -13 -170 -31 -225 -39
-216 -34 -366 -64 -380 -76 -23 -19 -15 -63 15 -77 20 -9 51 -7 160 13 74 13
182 31 240 39 58 9 112 18 122 21 9 3 40 9 70 14 296 51 328 61 328 96 0 53
-32 62 -150 42z"/>
<path d="M1052 1648 c-17 -17 -15 -37 13 -188 40 -213 55 -250 100 -250 33 0
48 24 42 67 -14 110 -69 349 -84 365 -18 21 -53 24 -71 6z"/>
</g>
</svg>
