<?xml version="1.0" standalone="no"?>
<!DOCTYPE svg PUBLIC "-//W3C//DTD SVG 20010904//EN"
 "http://www.w3.org/TR/2001/REC-SVG-20010904/DTD/svg10.dtd">
<svg version="1.0" xmlns="http://www.w3.org/2000/svg"
 width="248.000000pt" height="248.000000pt" viewBox="0 0 248.000000 248.000000"
 preserveAspectRatio="xMidYMid meet">
<metadata>
Created by potrace 1.10, written by Peter Selinger 2001-2011
</metadata>
<g transform="translate(0.000000,248.000000) scale(0.100000,-0.100000)"
fill="#000000" stroke="none">
<path d="M636 2198 c-9 -12 -16 -32 -16 -43 0 -11 -15 -47 -34 -80 -58 -106
-178 -310 -191 -325 -7 -8 -56 -80 -110 -160 -54 -80 -112 -163 -130 -185 -45
-56 -51 -79 -25 -105 42 -42 73 -15 197 168 42 62 81 116 87 119 10 7 3 -408
-15 -827 -6 -140 -9 -331 -8 -423 4 -153 6 -170 23 -183 25 -18 37 -18 62 0
17 13 19 29 21 193 2 98 10 392 19 653 8 261 14 540 13 620 l-4 145 73 123
c127 213 146 264 118 307 -21 32 -59 33 -80 3z"/>
<path d="M1213 2165 c-73 -18 -163 -36 -200 -40 -105 -9 -110 -12 -121 -47 -6
-18 -13 -157 -16 -308 -3 -151 -10 -349 -16 -440 -19 -301 -28 -535 -19 -556
12 -32 47 -37 74 -10 26 26 26 25 45 471 6 132 14 272 18 310 l7 70 55 7 c66
9 268 52 293 63 18 7 19 -8 16 -412 -1 -230 1 -425 5 -431 10 -16 61 -15 75 2
26 31 32 193 29 749 l-3 569 -24 19 c-31 26 -63 23 -218 -16z m137 -234 c0
-151 -1 -159 -19 -154 -10 3 -85 -9 -165 -26 -80 -17 -153 -31 -161 -31 -13 0
-15 24 -15 149 l0 149 65 7 c36 4 113 20 173 36 59 15 110 28 115 29 4 0 7
-72 7 -159z"/>
</g>
</svg>
