<?xml version="1.0" standalone="no"?>
<!DOCTYPE svg PUBLIC "-//W3C//DTD SVG 20010904//EN"
 "http://www.w3.org/TR/2001/REC-SVG-20010904/DTD/svg10.dtd">
<svg version="1.0" xmlns="http://www.w3.org/2000/svg"
 width="248.000000pt" height="248.000000pt" viewBox="0 0 248.000000 248.000000"
 preserveAspectRatio="xMidYMid meet">
<metadata>
Created by potrace 1.10, written by Peter Selinger 2001-2011
</metadata>
<g transform="translate(0.000000,248.000000) scale(0.100000,-0.100000)"
fill="#000000" stroke="none">
<path d="M1420 2270 c-140 -5 -309 -14 -375 -19 -66 -6 -169 -14 -230 -17
-139 -7 -152 -10 -166 -36 -9 -17 -8 -28 4 -52 22 -44 56 -199 72 -335 16
-124 42 -302 50 -338 8 -36 41 -48 84 -29 28 12 213 35 289 36 12 0 13 -61 9
-352 -3 -194 -10 -402 -15 -463 -6 -64 -6 -117 -1 -127 19 -35 78 -31 93 8 6
15 23 240 32 424 2 41 4 172 4 291 l0 217 33 6 c17 3 112 9 211 12 162 6 180
9 201 28 25 23 83 176 176 464 66 206 71 244 35 268 -33 21 -176 25 -506 14z
m420 -102 c-2 -25 -182 -543 -192 -554 -2 -2 -44 -5 -94 -8 -227 -10 -506 -28
-579 -36 -44 -6 -87 -10 -95 -10 -17 0 -23 27 -55 285 -8 66 -23 155 -34 198
l-18 77 21 5 c53 10 322 28 536 34 255 8 510 12 510 9z"/>
</g>
</svg>
