<?xml version="1.0" standalone="no"?>
<!DOCTYPE svg PUBLIC "-//W3C//DTD SVG 20010904//EN"
 "http://www.w3.org/TR/2001/REC-SVG-20010904/DTD/svg10.dtd">
<svg version="1.0" xmlns="http://www.w3.org/2000/svg"
 width="248.000000pt" height="248.000000pt" viewBox="0 0 248.000000 248.000000"
 preserveAspectRatio="xMidYMid meet">
<metadata>
Created by potrace 1.10, written by Peter Selinger 2001-2011
</metadata>
<g transform="translate(0.000000,248.000000) scale(0.100000,-0.100000)"
fill="#000000" stroke="none">
<path d="M1280 2255 c-74 -7 -166 -20 -205 -28 -38 -8 -92 -18 -120 -22 -121
-17 -115 20 -115 -692 0 -651 -1 -643 55 -643 56 0 55 -8 55 635 l0 591 118
22 c64 12 149 24 187 27 39 3 90 8 114 11 l44 6 -7 -239 c-3 -131 -11 -323
-16 -428 -14 -280 -12 -545 3 -575 15 -30 44 -36 72 -16 19 14 20 30 26 308 4
161 12 410 19 553 15 314 12 458 -11 480 -23 23 -67 25 -219 10z"/>
<path d="M322 2208 c-20 -20 -14 -53 19 -94 17 -21 34 -41 38 -44 4 -3 21 -23
37 -45 94 -130 139 -166 172 -133 25 25 6 96 -34 129 -9 8 -34 37 -56 66 -88
120 -141 156 -176 121z"/>
<path d="M142 1558 c-7 -7 -12 -21 -12 -31 0 -37 211 -268 256 -281 28 -8 54
17 54 50 0 38 -225 274 -260 274 -15 0 -31 -5 -38 -12z"/>
<path d="M374 583 c-51 -110 -84 -193 -136 -352 -24 -70 -18 -94 23 -99 41 -5
58 19 105 153 24 71 67 178 94 238 65 141 66 177 4 177 -34 0 -35 -1 -90 -117z"/>
</g>
</svg>
