<?xml version="1.0" standalone="no"?>
<!DOCTYPE svg PUBLIC "-//W3C//DTD SVG 20010904//EN"
 "http://www.w3.org/TR/2001/REC-SVG-20010904/DTD/svg10.dtd">
<svg version="1.0" xmlns="http://www.w3.org/2000/svg"
 width="248.000000pt" height="248.000000pt" viewBox="0 0 248.000000 248.000000"
 preserveAspectRatio="xMidYMid meet">
<metadata>
Created by potrace 1.10, written by Peter Selinger 2001-2011
</metadata>
<g transform="translate(0.000000,248.000000) scale(0.100000,-0.100000)"
fill="#000000" stroke="none">
<path d="M1420 2270 c-140 -5 -309 -14 -375 -19 -66 -6 -169 -14 -230 -17
-139 -7 -152 -10 -166 -36 -9 -17 -8 -28 4 -52 22 -44 56 -199 72 -335 16
-124 42 -302 50 -338 8 -36 41 -48 84 -29 28 12 213 35 290 36 11 0 12 -60 7
-357 -8 -430 -13 -522 -30 -529 -20 -8 -312 117 -382 163 -22 14 -22 16 -8 56
25 70 64 287 58 315 -9 38 -23 52 -49 52 -33 0 -45 -21 -56 -97 -26 -183 -69
-317 -157 -488 -48 -92 -72 -125 -149 -205 -51 -52 -93 -103 -93 -112 0 -22
27 -48 50 -48 24 0 121 84 183 158 26 31 72 105 103 165 30 59 59 107 64 107
6 0 66 -26 133 -59 68 -32 171 -75 228 -96 57 -20 165 -59 239 -87 74 -27 169
-61 210 -74 41 -14 129 -42 195 -64 114 -38 246 -72 400 -104 39 -8 123 -17
188 -21 126 -8 147 -2 147 40 0 42 -27 53 -165 64 -143 12 -373 64 -554 126
-58 19 -111 35 -119 35 -15 0 -333 119 -345 130 -6 5 8 301 18 380 2 14 4 34
4 46 1 19 9 22 95 28 93 6 306 31 359 42 35 7 57 29 57 58 0 48 -17 50 -193
27 -89 -11 -197 -21 -239 -21 l-78 0 0 184 0 184 33 6 c17 3 112 9 211 12 162
6 180 9 201 28 25 23 83 176 176 464 66 206 71 244 35 268 -33 21 -176 25
-506 14z m420 -102 c-2 -25 -182 -543 -192 -554 -2 -2 -44 -5 -94 -8 -227 -10
-506 -28 -579 -36 -44 -6 -87 -10 -95 -10 -17 0 -23 27 -55 285 -8 66 -23 155
-34 198 l-18 77 21 5 c53 10 322 28 536 34 255 8 510 12 510 9z"/>
</g>
</svg>
