<?xml version="1.0" standalone="no"?>
<!DOCTYPE svg PUBLIC "-//W3C//DTD SVG 20010904//EN"
 "http://www.w3.org/TR/2001/REC-SVG-20010904/DTD/svg10.dtd">
<svg version="1.0" xmlns="http://www.w3.org/2000/svg"
 width="248.000000pt" height="248.000000pt" viewBox="0 0 248.000000 248.000000"
 preserveAspectRatio="xMidYMid meet">
<metadata>
Created by potrace 1.10, written by Peter Selinger 2001-2011
</metadata>
<g transform="translate(0.000000,248.000000) scale(0.100000,-0.100000)"
fill="#000000" stroke="none">
<path d="M995 2180 c-33 -4 -123 -18 -200 -30 -127 -19 -328 -43 -493 -57 -50
-4 -66 -10 -77 -27 -11 -17 -12 -89 -4 -416 5 -217 13 -478 19 -580 6 -102 17
-291 23 -421 14 -257 17 -269 70 -269 55 0 272 135 501 313 l39 30 64 -67 c56
-59 67 -67 95 -64 25 2 35 9 42 30 9 24 3 34 -56 100 -36 40 -95 119 -131 175
-37 56 -76 109 -89 117 -27 19 -59 21 -76 4 -17 -17 -15 -63 5 -79 20 -17 83
-114 83 -128 0 -6 -46 -43 -102 -82 -57 -40 -121 -87 -143 -104 -46 -37 -177
-117 -182 -111 -6 5 -44 688 -39 693 2 2 43 8 92 13 81 8 150 14 468 40 121
10 156 25 156 67 0 14 4 53 10 87 5 33 17 117 25 186 9 69 23 159 30 200 8 41
19 129 26 195 12 135 6 169 -36 185 -29 11 -31 11 -120 0z m55 -122 c-1 -42
-27 -249 -32 -254 -5 -5 -249 -43 -373 -58 -27 -4 -86 -13 -130 -21 -44 -8
-103 -19 -131 -23 l-51 -9 -6 146 c-3 80 -4 147 -3 148 1 2 72 9 157 18 85 8
181 19 214 24 133 20 295 44 343 50 6 0 12 -9 12 -21z m-50 -387 c0 -10 -5
-43 -10 -72 -6 -30 -14 -91 -19 -137 -5 -46 -10 -84 -12 -86 -2 -2 -85 -11
-184 -20 -99 -9 -235 -21 -303 -27 -68 -6 -126 -8 -129 -5 -4 3 -8 64 -11 135
l-5 129 44 6 c24 4 94 16 154 26 152 26 416 66 458 69 10 1 17 -6 17 -18z"/>
<path d="M2195 2079 c-358 -47 -743 -103 -755 -109 -27 -13 -24 -57 6 -76 24
-16 36 -17 123 -6 111 12 278 36 401 57 47 7 114 17 150 20 36 4 73 9 83 11
14 5 17 -1 17 -38 0 -47 -23 -255 -40 -358 -6 -36 -22 -144 -36 -240 -35 -236
-68 -390 -83 -390 -5 0 -45 21 -90 46 -78 45 -82 46 -106 30 -51 -34 -23 -82
75 -131 19 -10 52 -33 73 -51 59 -54 105 -43 138 34 25 56 62 220 84 363 9 57
21 131 26 164 34 218 69 512 69 581 0 56 -19 89 -55 97 -11 2 -47 1 -80 -4z"/>
</g>
</svg>
