<?xml version="1.0" standalone="no"?>
<!DOCTYPE svg PUBLIC "-//W3C//DTD SVG 20010904//EN"
 "http://www.w3.org/TR/2001/REC-SVG-20010904/DTD/svg10.dtd">
<svg version="1.0" xmlns="http://www.w3.org/2000/svg"
 width="248.000000pt" height="248.000000pt" viewBox="0 0 248.000000 248.000000"
 preserveAspectRatio="xMidYMid meet">
<metadata>
Created by potrace 1.10, written by Peter Selinger 2001-2011
</metadata>
<g transform="translate(0.000000,248.000000) scale(0.100000,-0.100000)"
fill="#000000" stroke="none">
<path d="M322 2208 c-20 -20 -14 -53 19 -94 17 -21 34 -41 38 -44 4 -3 21 -23
37 -45 94 -130 139 -166 172 -133 25 25 6 96 -34 129 -9 8 -34 37 -56 66 -88
120 -141 156 -176 121z"/>
<path d="M142 1558 c-7 -7 -12 -21 -12 -31 0 -37 211 -268 256 -281 28 -8 54
17 54 50 0 38 -225 274 -260 274 -15 0 -31 -5 -38 -12z"/>
<path d="M374 583 c-51 -110 -84 -193 -136 -352 -24 -70 -18 -94 23 -99 41 -5
58 19 105 153 24 71 67 178 94 238 65 141 66 177 4 177 -34 0 -35 -1 -90 -117z"/>
</g>
</svg>
