<?xml version="1.0" standalone="no"?>
<!DOCTYPE svg PUBLIC "-//W3C//DTD SVG 20010904//EN"
 "http://www.w3.org/TR/2001/REC-SVG-20010904/DTD/svg10.dtd">
<svg version="1.0" xmlns="http://www.w3.org/2000/svg"
 width="248.000000pt" height="248.000000pt" viewBox="0 0 248.000000 248.000000"
 preserveAspectRatio="xMidYMid meet">
<metadata>
Created by potrace 1.10, written by Peter Selinger 2001-2011
</metadata>
<g transform="translate(0.000000,248.000000) scale(0.100000,-0.100000)"
fill="#000000" stroke="none">
<path d="M1980 2098 c-30 -5 -111 -20 -180 -33 -69 -13 -170 -31 -225 -39
-216 -34 -366 -64 -380 -76 -23 -19 -15 -63 15 -77 20 -9 51 -7 160 13 74 13
182 31 240 39 58 9 112 18 122 21 9 3 40 9 70 14 296 51 328 61 328 96 0 53
-32 62 -150 42z"/>
<path d="M1990 1864 c-41 -7 -131 -22 -200 -33 -161 -26 -344 -61 -544 -104
-139 -30 -163 -38 -183 -61 -29 -34 -29 -43 2 -206 42 -221 57 -256 105 -246
125 26 182 35 225 36 28 0 129 14 225 30 244 42 389 63 431 61 23 -1 41 5 51
16 26 31 58 147 88 328 17 99 17 112 4 142 -26 53 -69 61 -204 37z m105 -116
c-3 -13 -9 -52 -15 -88 -6 -36 -18 -96 -28 -135 l-18 -70 -70 -12 c-255 -45
-500 -83 -536 -83 -24 -1 -83 -7 -133 -15 -49 -7 -93 -10 -96 -7 -10 11 -51
242 -46 256 3 7 25 16 49 19 23 3 86 15 138 27 52 12 156 33 230 46 74 14 155
30 180 35 25 5 86 13 135 19 50 6 106 15 125 19 19 5 47 9 63 10 23 1 27 -2
22 -21z"/>
</g>
</svg>
