<?xml version="1.0" standalone="no"?>
<!DOCTYPE svg PUBLIC "-//W3C//DTD SVG 20010904//EN"
 "http://www.w3.org/TR/2001/REC-SVG-20010904/DTD/svg10.dtd">
<svg version="1.0" xmlns="http://www.w3.org/2000/svg"
 width="248.000000pt" height="248.000000pt" viewBox="0 0 248.000000 248.000000"
 preserveAspectRatio="xMidYMid meet">
<metadata>
Created by potrace 1.10, written by Peter Selinger 2001-2011
</metadata>
<g transform="translate(0.000000,248.000000) scale(0.100000,-0.100000)"
fill="#000000" stroke="none">
<path d="M636 2198 c-9 -12 -16 -32 -16 -43 0 -11 -15 -47 -34 -80 -58 -106
-178 -310 -191 -325 -7 -8 -56 -80 -110 -160 -54 -80 -112 -163 -130 -185 -45
-56 -51 -79 -25 -105 39 -39 77 -11 165 120 24 36 79 117 122 180 84 123 235
372 276 455 14 28 28 65 32 83 14 66 -53 111 -89 60z"/>
</g>
</svg>
