<?xml version="1.0" standalone="no"?>
<!DOCTYPE svg PUBLIC "-//W3C//DTD SVG 20010904//EN"
 "http://www.w3.org/TR/2001/REC-SVG-20010904/DTD/svg10.dtd">
<svg version="1.0" xmlns="http://www.w3.org/2000/svg"
 width="248.000000pt" height="248.000000pt" viewBox="0 0 248.000000 248.000000"
 preserveAspectRatio="xMidYMid meet">
<metadata>
Created by potrace 1.10, written by Peter Selinger 2001-2011
</metadata>
<g transform="translate(0.000000,248.000000) scale(0.100000,-0.100000)"
fill="#000000" stroke="none">
<path d="M992 2327 c-6 -7 -14 -73 -18 -147 -3 -74 -8 -142 -10 -150 -1 -8 -3
-18 -3 -21 -1 -9 -144 -46 -206 -54 -115 -15 -286 -57 -312 -78 -16 -12 -17
-49 -1 -65 17 -17 62 -15 148 8 41 11 121 27 177 36 56 8 123 21 148 28 l45
14 0 -26 c-2 -103 -29 -325 -41 -336 -8 -8 -43 -25 -79 -39 -36 -14 -90 -37
-120 -50 -85 -38 -293 -107 -321 -107 -35 0 -69 -27 -69 -55 0 -26 33 -55 63
-55 26 0 299 92 369 124 31 14 59 26 63 26 15 0 173 76 203 97 32 24 44 65 22
78 -14 9 -12 86 6 250 9 77 16 156 16 175 0 259 -2 333 -13 346 -14 18 -53 18
-67 1z"/>
<path d="M1463 2328 c-13 -18 -32 -252 -40 -488 -6 -186 -5 -197 16 -237 30
-60 65 -89 151 -125 72 -31 82 -32 245 -37 230 -8 337 9 414 67 33 24 33 26
28 84 -7 74 -27 108 -67 108 -40 0 -54 -28 -41 -77 6 -21 7 -41 3 -45 -4 -4
-36 -15 -72 -25 -50 -14 -100 -18 -220 -17 -135 0 -164 3 -220 23 -90 31 -125
60 -138 113 -6 24 -9 59 -8 78 2 19 4 52 4 73 2 33 5 37 28 37 39 0 289 132
387 205 88 67 105 93 75 123 -25 25 -64 12 -144 -46 -79 -58 -304 -182 -329
-182 -9 0 -12 9 -10 28 2 15 6 56 10 92 3 36 8 97 11 137 6 58 4 77 -10 98
-18 27 -57 34 -73 13z"/>
</g>
</svg>
