<?xml version="1.0" standalone="no"?>
<!DOCTYPE svg PUBLIC "-//W3C//DTD SVG 20010904//EN"
 "http://www.w3.org/TR/2001/REC-SVG-20010904/DTD/svg10.dtd">
<svg version="1.0" xmlns="http://www.w3.org/2000/svg"
 width="248.000000pt" height="248.000000pt" viewBox="0 0 248.000000 248.000000"
 preserveAspectRatio="xMidYMid meet">
<metadata>
Created by potrace 1.10, written by Peter Selinger 2001-2011
</metadata>
<g transform="translate(0.000000,248.000000) scale(0.100000,-0.100000)"
fill="#000000" stroke="none">
<path d="M992 2327 c-6 -7 -14 -73 -18 -147 -3 -74 -8 -142 -10 -150 -1 -8 -3
-18 -3 -21 -1 -9 -144 -46 -206 -54 -115 -15 -286 -57 -312 -78 -16 -12 -17
-49 -1 -65 17 -17 62 -15 148 8 41 11 121 27 177 36 56 8 123 21 148 28 41 13
45 12 45 -2 0 -10 -7 -101 -16 -205 -17 -202 -15 -217 32 -217 40 0 52 24 59
117 4 49 14 151 22 228 8 77 15 156 15 175 0 263 -2 333 -13 346 -14 18 -53
18 -67 1z"/>
</g>
</svg>
