<?xml version="1.0" standalone="no"?>
<!DOCTYPE svg PUBLIC "-//W3C//DTD SVG 20010904//EN"
 "http://www.w3.org/TR/2001/REC-SVG-20010904/DTD/svg10.dtd">
<svg version="1.0" xmlns="http://www.w3.org/2000/svg"
 width="248.000000pt" height="248.000000pt" viewBox="0 0 248.000000 248.000000"
 preserveAspectRatio="xMidYMid meet">
<metadata>
Created by potrace 1.10, written by Peter Selinger 2001-2011
</metadata>
<g transform="translate(0.000000,248.000000) scale(0.100000,-0.100000)"
fill="#000000" stroke="none">
<path d="M462 2348 c-9 -9 -12 -78 -12 -249 l0 -237 -122 -22 c-151 -26 -173
-36 -173 -75 0 -22 7 -33 25 -42 25 -11 51 -8 220 25 l45 9 -2 -141 c-2 -78
-6 -213 -9 -302 l-6 -160 -129 -62 c-142 -69 -189 -103 -189 -136 0 -53 46
-60 119 -16 28 16 84 45 126 64 l75 35 0 -367 0 -366 -29 45 c-48 77 -107 109
-139 77 -20 -20 -14 -56 17 -90 15 -18 43 -59 61 -91 61 -109 110 -144 160
-117 36 19 40 72 40 525 l0 441 53 26 c71 35 117 75 117 102 0 51 -48 60 -110
21 -22 -14 -44 -25 -49 -25 -11 0 -2 518 10 541 6 11 38 21 109 32 109 16 130
27 130 63 0 42 -35 54 -120 43 -41 -5 -85 -12 -97 -14 -21 -5 -21 -5 -25 214
-3 199 -5 221 -22 240 -21 23 -56 27 -74 9z"/>
<path d="M1969 2316 c-2 -2 -53 -7 -114 -10 -120 -8 -239 -19 -385 -36 -52 -6
-155 -17 -227 -24 -73 -7 -139 -19 -148 -26 -24 -20 -28 -76 -16 -204 20 -200
26 -205 202 -182 63 8 249 24 414 36 165 12 311 24 325 28 26 8 29 15 50 131
32 179 23 261 -32 280 -31 11 -61 14 -69 7z m11 -148 c0 -23 -5 -69 -11 -104
l-11 -62 -56 -6 c-32 -3 -120 -11 -197 -16 -153 -12 -283 -24 -415 -40 -46 -5
-88 -6 -92 -2 -4 4 -8 50 -10 102 l-3 95 85 7 c47 5 137 15 200 23 63 8 178
19 255 25 77 6 156 12 175 14 85 7 80 10 80 -36z"/>
<path d="M1113 1658 c-13 -21 -3 -1069 11 -1098 8 -18 19 -25 41 -25 54 0 55
8 55 480 0 455 -9 606 -37 637 -19 21 -58 24 -70 6z"/>
</g>
</svg>
