<?xml version="1.0" standalone="no"?>
<!DOCTYPE svg PUBLIC "-//W3C//DTD SVG 20010904//EN"
 "http://www.w3.org/TR/2001/REC-SVG-20010904/DTD/svg10.dtd">
<svg version="1.0" xmlns="http://www.w3.org/2000/svg"
 width="248.000000pt" height="248.000000pt" viewBox="0 0 248.000000 248.000000"
 preserveAspectRatio="xMidYMid meet">
<metadata>
Created by potrace 1.10, written by Peter Selinger 2001-2011
</metadata>
<g transform="translate(0.000000,248.000000) scale(0.100000,-0.100000)"
fill="#000000" stroke="none">
<path d="M462 2348 c-9 -9 -12 -78 -12 -249 l0 -237 -122 -22 c-151 -26 -173
-36 -173 -75 0 -22 7 -33 25 -42 25 -11 50 -8 223 25 l49 10 -6 -27 c-3 -14
-9 -340 -12 -723 l-7 -697 -27 43 c-47 74 -106 106 -138 74 -20 -20 -14 -56
17 -90 15 -18 43 -59 61 -91 18 -32 47 -74 65 -93 57 -60 118 -37 129 48 3 24
7 379 10 790 3 487 8 753 15 766 8 15 31 22 111 35 109 16 130 27 130 63 0 42
-35 54 -120 43 -41 -5 -85 -12 -97 -14 -21 -5 -21 -5 -25 214 -3 199 -5 221
-22 240 -21 23 -56 27 -74 9z"/>
</g>
</svg>
