<?xml version="1.0" standalone="no"?>
<!DOCTYPE svg PUBLIC "-//W3C//DTD SVG 20010904//EN"
 "http://www.w3.org/TR/2001/REC-SVG-20010904/DTD/svg10.dtd">
<svg version="1.0" xmlns="http://www.w3.org/2000/svg"
 width="248.000000pt" height="248.000000pt" viewBox="0 0 248.000000 248.000000"
 preserveAspectRatio="xMidYMid meet">
<metadata>
Created by potrace 1.10, written by Peter Selinger 2001-2011
</metadata>
<g transform="translate(0.000000,248.000000) scale(0.100000,-0.100000)"
fill="#000000" stroke="none">
<path d="M1800 2153 c-78 -2 -274 -17 -600 -43 -69 -6 -183 -17 -255 -25 -71
-8 -190 -17 -264 -19 -78 -3 -139 -10 -147 -17 -18 -15 -18 -53 1 -69 17 -14
205 -14 351 0 223 22 821 70 987 79 185 10 207 16 207 55 0 48 -3 48 -280 39z"/>
</g>
</svg>
