<?xml version="1.0" standalone="no"?>
<!DOCTYPE svg PUBLIC "-//W3C//DTD SVG 20010904//EN"
 "http://www.w3.org/TR/2001/REC-SVG-20010904/DTD/svg10.dtd">
<svg version="1.0" xmlns="http://www.w3.org/2000/svg"
 width="248.000000pt" height="248.000000pt" viewBox="0 0 248.000000 248.000000"
 preserveAspectRatio="xMidYMid meet">
<metadata>
Created by potrace 1.10, written by Peter Selinger 2001-2011
</metadata>
<g transform="translate(0.000000,248.000000) scale(0.100000,-0.100000)"
fill="#000000" stroke="none">
<path d="M1212 2368 c-6 -7 -13 -29 -17 -48 -4 -19 -24 -75 -44 -125 l-36 -89
-141 -17 c-77 -10 -205 -20 -283 -23 -150 -5 -171 -12 -171 -51 0 -40 21 -47
147 -46 116 1 331 17 366 27 28 9 20 -17 -37 -113 -66 -112 -173 -257 -283
-385 -74 -85 -88 -97 -120 -100 -37 -3 -48 -14 -57 -58 -3 -16 -22 -36 -51
-54 -26 -16 -53 -39 -62 -52 -14 -22 -14 -26 1 -49 20 -30 40 -31 83 -6 17 11
34 17 37 13 4 -3 6 -240 6 -525 -1 -332 2 -523 9 -530 12 -12 60 -12 72 0 7 7
10 214 9 571 l-1 561 95 103 c171 186 298 360 395 541 43 79 57 97 75 97 13 0
128 9 257 20 129 10 314 24 412 29 110 6 184 14 193 21 18 16 18 54 -1 70 -18
15 -277 7 -605 -20 -124 -10 -226 -17 -227 -16 -2 1 11 37 27 80 31 80 39 153
18 174 -16 16 -53 15 -66 0z"/>
</g>
</svg>
