<?xml version="1.0" standalone="no"?>
<!DOCTYPE svg PUBLIC "-//W3C//DTD SVG 20010904//EN"
 "http://www.w3.org/TR/2001/REC-SVG-20010904/DTD/svg10.dtd">
<svg version="1.0" xmlns="http://www.w3.org/2000/svg"
 width="248.000000pt" height="248.000000pt" viewBox="0 0 248.000000 248.000000"
 preserveAspectRatio="xMidYMid meet">
<metadata>
Created by potrace 1.10, written by Peter Selinger 2001-2011
</metadata>
<g transform="translate(0.000000,248.000000) scale(0.100000,-0.100000)"
fill="#000000" stroke="none">
<path d="M462 2348 c-9 -9 -12 -78 -12 -249 l0 -237 -122 -22 c-151 -26 -173
-36 -173 -75 0 -22 7 -33 25 -42 25 -11 51 -8 220 25 l45 9 -2 -141 c-2 -78
-6 -213 -9 -302 l-6 -160 -129 -62 c-142 -69 -189 -103 -189 -136 0 -53 46
-60 119 -16 28 16 84 45 126 64 l75 35 0 -367 0 -366 -29 45 c-48 77 -107 109
-139 77 -20 -20 -14 -56 17 -90 15 -18 43 -59 61 -91 61 -109 110 -144 160
-117 36 19 40 72 40 525 l0 441 53 26 c71 35 117 75 117 102 0 51 -48 60 -110
21 -22 -14 -44 -25 -49 -25 -11 0 -2 518 10 541 6 11 38 21 109 32 109 16 130
27 130 63 0 42 -35 54 -120 43 -41 -5 -85 -12 -97 -14 -21 -5 -21 -5 -25 214
-3 199 -5 221 -22 240 -21 23 -56 27 -74 9z"/>
<path d="M1091 2216 c-7 -8 -15 -30 -18 -50 -7 -43 14 -260 29 -299 14 -37 53
-46 80 -19 20 20 20 25 9 122 -6 55 -11 131 -11 168 0 40 -5 73 -12 80 -16 16
-63 15 -77 -2z"/>
</g>
</svg>
