<?xml version="1.0" standalone="no"?>
<!DOCTYPE svg PUBLIC "-//W3C//DTD SVG 20010904//EN"
 "http://www.w3.org/TR/2001/REC-SVG-20010904/DTD/svg10.dtd">
<svg version="1.0" xmlns="http://www.w3.org/2000/svg"
 width="248.000000pt" height="248.000000pt" viewBox="0 0 248.000000 248.000000"
 preserveAspectRatio="xMidYMid meet">
<metadata>
Created by potrace 1.10, written by Peter Selinger 2001-2011
</metadata>
<g transform="translate(0.000000,248.000000) scale(0.100000,-0.100000)"
fill="#000000" stroke="none">
<path d="M1573 2428 c-6 -7 -38 -68 -72 -136 -33 -68 -71 -137 -84 -155 -12
-18 -23 -34 -24 -36 -1 -1 -46 -7 -100 -12 -54 -4 -124 -11 -155 -15 -42 -5
-58 -3 -58 5 0 7 -21 47 -46 89 -25 42 -53 90 -63 106 -44 78 -88 105 -119 74
-23 -23 -12 -58 54 -168 36 -60 63 -114 60 -119 -3 -4 -27 -11 -53 -14 -27 -3
-113 -13 -192 -21 -153 -17 -181 -28 -181 -71 0 -54 47 -56 345 -17 208 28
318 40 475 52 571 43 574 44 598 62 17 15 15 53 -4 69 -20 16 -91 16 -282 -2
-73 -7 -135 -10 -138 -6 -5 5 26 72 55 116 25 38 61 134 61 162 0 14 -5 30
-12 37 -16 16 -53 15 -65 0z"/>
<path d="M672 1798 c-15 -15 -15 -49 -2 -80 6 -13 17 -63 24 -113 8 -49 22
-135 31 -190 9 -55 19 -115 21 -133 9 -63 85 -66 97 -5 5 28 -5 107 -42 324
-22 125 -34 164 -58 191 -19 21 -54 23 -71 6z"/>
</g>
</svg>
