<?xml version="1.0" standalone="no"?>
<!DOCTYPE svg PUBLIC "-//W3C//DTD SVG 20010904//EN"
 "http://www.w3.org/TR/2001/REC-SVG-20010904/DTD/svg10.dtd">
<svg version="1.0" xmlns="http://www.w3.org/2000/svg"
 width="248.000000pt" height="248.000000pt" viewBox="0 0 248.000000 248.000000"
 preserveAspectRatio="xMidYMid meet">
<metadata>
Created by potrace 1.10, written by Peter Selinger 2001-2011
</metadata>
<g transform="translate(0.000000,248.000000) scale(0.100000,-0.100000)"
fill="#000000" stroke="none">
<path d="M1573 2428 c-6 -7 -38 -68 -72 -136 -33 -68 -71 -137 -84 -155 -12
-18 -23 -34 -24 -36 -1 -1 -46 -7 -100 -12 -54 -4 -124 -11 -155 -15 -42 -5
-58 -3 -58 5 0 7 -21 47 -46 89 -25 42 -53 90 -63 106 -44 78 -88 105 -119 74
-23 -23 -12 -58 54 -168 36 -60 63 -114 60 -119 -3 -4 -27 -11 -53 -14 -27 -3
-113 -13 -192 -21 -153 -17 -181 -28 -181 -71 0 -54 50 -56 353 -14 87 12 159
20 161 18 6 -6 9 -30 7 -60 -1 -33 -10 -35 -210 -49 -80 -6 -153 -15 -162 -21
-35 -18 -42 -47 -25 -93 9 -23 22 -82 30 -131 8 -50 22 -135 31 -190 9 -55 18
-115 21 -132 10 -64 85 -67 97 -4 4 17 2 57 -3 88 -22 129 -22 129 -9 116 34
-34 127 12 222 110 47 48 97 132 97 162 0 9 6 18 13 20 18 6 572 65 615 65 16
0 15 -42 -3 -171 -21 -156 -47 -372 -47 -392 1 -41 56 -64 79 -34 16 20 33 77
39 132 3 27 15 124 27 215 26 195 26 252 3 302 -28 58 -47 60 -287 38 -115
-11 -239 -24 -276 -30 -38 -5 -84 -10 -104 -10 -35 0 -37 2 -41 38 -3 20 -1
40 4 43 4 3 84 11 176 18 326 24 537 42 567 47 40 8 55 22 55 49 0 53 -42 58
-298 34 -73 -7 -135 -10 -138 -6 -5 5 26 72 55 116 25 38 61 134 61 162 0 14
-5 30 -12 37 -16 16 -53 15 -65 0z m-533 -676 c0 -21 -63 -93 -116 -133 -32
-24 -70 -56 -84 -71 l-27 -27 -16 102 c-10 56 -17 105 -17 110 0 4 24 7 53 8
28 1 77 4 107 9 80 11 100 11 100 2z"/>
</g>
</svg>
