<?xml version="1.0" standalone="no"?>
<!DOCTYPE svg PUBLIC "-//W3C//DTD SVG 20010904//EN"
 "http://www.w3.org/TR/2001/REC-SVG-20010904/DTD/svg10.dtd">
<svg version="1.0" xmlns="http://www.w3.org/2000/svg"
 width="248.000000pt" height="248.000000pt" viewBox="0 0 248.000000 248.000000"
 preserveAspectRatio="xMidYMid meet">
<metadata>
Created by potrace 1.10, written by Peter Selinger 2001-2011
</metadata>
<g transform="translate(0.000000,248.000000) scale(0.100000,-0.100000)"
fill="#000000" stroke="none">
<path d="M1173 2348 c-6 -7 -13 -87 -16 -178 -3 -91 -10 -176 -15 -190 -9 -23
-19 -27 -98 -39 -145 -22 -381 -50 -509 -62 -77 -7 -125 -16 -135 -25 -12 -11
-14 -45 -13 -177 1 -89 -3 -197 -9 -240 -12 -88 -3 -110 41 -105 53 6 74 99
74 314 l-1 121 92 11 c241 28 432 53 446 57 8 2 62 9 120 14 58 6 170 17 250
25 184 19 760 33 760 19 0 -24 -134 -184 -203 -241 -41 -35 -78 -69 -80 -76
-9 -22 17 -61 41 -64 62 -9 262 198 361 374 29 51 25 94 -9 112 -40 21 -585 8
-885 -22 -71 -7 -132 -12 -133 -10 -2 1 1 47 6 101 12 129 7 238 -13 269 -17
26 -56 32 -72 12z"/>
</g>
</svg>
