<?xml version="1.0" standalone="no"?>
<!DOCTYPE svg PUBLIC "-//W3C//DTD SVG 20010904//EN"
 "http://www.w3.org/TR/2001/REC-SVG-20010904/DTD/svg10.dtd">
<svg version="1.0" xmlns="http://www.w3.org/2000/svg"
 width="248.000000pt" height="248.000000pt" viewBox="0 0 248.000000 248.000000"
 preserveAspectRatio="xMidYMid meet">
<metadata>
Created by potrace 1.10, written by Peter Selinger 2001-2011
</metadata>
<g transform="translate(0.000000,248.000000) scale(0.100000,-0.100000)"
fill="#000000" stroke="none">
<path d="M1553 2278 c-6 -7 -13 -116 -17 -243 -4 -126 -11 -273 -16 -325 -5
-52 -10 -383 -11 -735 -1 -352 -6 -689 -11 -749 -9 -101 -9 -111 8 -123 24
-17 38 -16 63 5 35 29 43 140 48 675 l5 498 28 -18 c15 -10 74 -50 131 -89 57
-39 154 -101 214 -139 61 -37 127 -83 148 -102 47 -42 87 -43 101 0 18 50 -5
69 -316 267 -56 36 -127 84 -158 106 -30 23 -79 53 -107 68 -48 24 -53 30 -53
59 0 38 16 322 27 487 5 63 8 163 8 222 -1 90 -4 110 -19 127 -21 23 -58 28
-73 9z"/>
<path d="M1049 2076 c-3 -3 -73 -6 -156 -8 -186 -4 -189 -5 -247 -134 -72
-158 -225 -396 -296 -459 -79 -70 -119 -152 -88 -183 25 -25 52 -11 112 54
l61 66 60 -34 c33 -19 100 -60 149 -92 49 -31 117 -71 151 -87 35 -16 68 -35
74 -42 8 -10 -11 -51 -75 -163 -100 -177 -238 -367 -364 -498 -49 -52 -90
-102 -90 -110 0 -20 35 -56 55 -56 36 0 198 178 334 368 93 130 176 274 298
517 111 220 174 369 247 585 31 91 63 177 71 192 20 34 19 44 -5 68 -18 18
-33 20 -153 20 -74 0 -136 -2 -138 -4z m171 -112 c0 -11 -105 -307 -136 -384
-28 -68 -140 -312 -151 -329 -6 -8 -141 64 -253 134 -63 40 -127 79 -142 86
-34 15 -34 22 -4 62 39 52 169 277 201 347 16 36 32 68 35 71 3 4 72 10 155
13 82 4 150 8 151 9 4 4 144 -5 144 -9z"/>
</g>
</svg>
