<?xml version="1.0" standalone="no"?>
<!DOCTYPE svg PUBLIC "-//W3C//DTD SVG 20010904//EN"
 "http://www.w3.org/TR/2001/REC-SVG-20010904/DTD/svg10.dtd">
<svg version="1.0" xmlns="http://www.w3.org/2000/svg"
 width="248.000000pt" height="248.000000pt" viewBox="0 0 248.000000 248.000000"
 preserveAspectRatio="xMidYMid meet">
<metadata>
Created by potrace 1.10, written by Peter Selinger 2001-2011
</metadata>
<g transform="translate(0.000000,248.000000) scale(0.100000,-0.100000)"
fill="#000000" stroke="none">
<path d="M878 2227 c-41 -41 -221 -211 -298 -282 -19 -17 -74 -64 -122 -105
-70 -59 -88 -79 -88 -100 0 -34 24 -56 91 -81 59 -22 209 -108 209 -119 0 -7
-152 -180 -300 -342 -44 -48 -80 -95 -80 -103 0 -8 9 -24 21 -36 18 -18 28
-20 77 -14 31 4 94 18 140 31 45 13 87 24 93 24 8 0 9 -122 4 -422 -7 -467 -6
-473 50 -473 21 0 33 7 41 23 7 15 13 167 18 455 4 237 10 435 14 439 4 4 45
14 92 24 47 9 98 23 113 31 27 13 29 12 65 -26 20 -22 50 -56 65 -76 62 -79
135 -10 75 71 -60 80 -226 255 -247 261 -56 14 -79 -44 -37 -95 15 -16 26 -34
26 -39 0 -5 -80 -26 -177 -46 -98 -20 -189 -40 -202 -43 l-25 -7 23 32 c13 18
60 72 105 119 93 98 254 292 303 366 35 51 42 96 19 116 -27 22 -59 7 -96 -46
-19 -27 -51 -69 -71 -93 l-36 -43 -44 22 c-24 13 -62 35 -84 49 -22 15 -53 33
-70 40 l-30 13 30 25 c17 14 53 46 81 72 28 25 71 63 95 85 24 21 95 88 157
149 87 85 112 116 112 137 0 63 -53 67 -112 7z"/>
<path d="M1456 2138 c-9 -12 -16 -30 -16 -40 0 -9 -4 -19 -9 -23 -5 -3 -17
-30 -26 -60 -21 -75 -143 -329 -192 -401 -73 -107 -88 -155 -61 -182 19 -19
56 -14 73 11 102 145 233 394 275 522 12 39 26 75 30 80 4 6 10 24 13 41 12
62 -53 101 -87 52z"/>
<path d="M1882 2128 c-23 -23 -12 -55 56 -159 74 -112 238 -285 281 -296 32
-8 55 8 59 41 3 23 -12 43 -99 129 -62 62 -124 135 -157 187 -30 47 -62 91
-70 98 -20 15 -54 16 -70 0z"/>
<path d="M1616 1718 c-9 -12 -16 -29 -16 -37 0 -19 -65 -128 -147 -249 -35
-51 -63 -97 -63 -102 0 -5 -15 -33 -34 -62 -49 -78 -52 -93 -21 -123 15 -16
32 -24 43 -21 9 3 60 15 112 26 197 44 262 61 341 90 l82 30 41 -47 c23 -26
49 -57 59 -70 33 -42 87 -25 87 28 0 25 -10 41 -95 148 -22 27 -51 66 -65 86
-52 75 -62 85 -84 85 -48 0 -61 -51 -26 -108 l20 -33 -34 -14 c-85 -36 -321
-93 -333 -82 -7 8 19 54 101 179 40 62 83 132 95 156 25 49 30 104 11 127 -18
22 -56 18 -74 -7z"/>
<path d="M1392 968 c-17 -17 -15 -49 13 -194 28 -137 64 -229 117 -296 39 -50
148 -121 236 -154 37 -14 85 -33 107 -41 54 -21 298 -30 349 -13 54 18 59 39
36 176 -21 124 -30 144 -65 144 -47 0 -55 -32 -41 -152 l8 -68 -113 0 c-79 1
-126 6 -154 16 -22 9 -61 24 -87 33 -58 22 -155 81 -185 113 -47 51 -82 141
-109 278 -14 74 -33 143 -42 153 -17 20 -53 22 -70 5z"/>
<path d="M2092 968 c-17 -17 -15 -46 7 -82 11 -17 29 -62 41 -100 32 -96 67
-127 104 -90 21 21 20 48 -5 125 -25 77 -44 114 -70 140 -21 21 -59 25 -77 7z"/>
<path d="M1206 918 c-7 -13 -16 -54 -20 -93 -7 -85 -71 -351 -92 -383 -18 -28
-15 -71 7 -85 27 -17 64 0 86 40 26 47 88 290 103 407 11 76 10 90 -4 111 -21
32 -61 33 -80 3z"/>
<path d="M1782 918 c-28 -28 -14 -68 66 -195 48 -76 68 -91 102 -73 31 17 26
66 -14 126 -19 28 -41 66 -49 85 -26 63 -74 88 -105 57z"/>
<path d="M832 848 c-23 -23 -12 -63 37 -143 69 -111 131 -175 170 -175 34 0
55 27 44 57 -4 10 -25 40 -47 66 -22 27 -63 83 -91 125 -51 79 -84 99 -113 70z"/>
<path d="M406 818 c-9 -12 -16 -33 -16 -47 0 -38 -57 -206 -106 -313 -45 -99
-54 -144 -32 -166 16 -16 53 -15 66 1 40 48 182 423 182 481 0 32 -28 66 -55
66 -13 0 -31 -10 -39 -22z"/>
</g>
</svg>
