<?xml version="1.0" standalone="no"?>
<!DOCTYPE svg PUBLIC "-//W3C//DTD SVG 20010904//EN"
 "http://www.w3.org/TR/2001/REC-SVG-20010904/DTD/svg10.dtd">
<svg version="1.0" xmlns="http://www.w3.org/2000/svg"
 width="248.000000pt" height="248.000000pt" viewBox="0 0 248.000000 248.000000"
 preserveAspectRatio="xMidYMid meet">
<metadata>
Created by potrace 1.10, written by Peter Selinger 2001-2011
</metadata>
<g transform="translate(0.000000,248.000000) scale(0.100000,-0.100000)"
fill="#000000" stroke="none">
<path d="M878 2227 c-41 -41 -221 -211 -298 -282 -19 -17 -74 -64 -122 -105
-121 -102 -120 -133 8 -184 33 -12 98 -46 145 -74 48 -29 96 -52 108 -52 39 0
61 18 61 50 0 26 -7 33 -62 61 -35 17 -81 44 -103 58 -22 15 -53 33 -70 40
l-30 13 30 25 c17 14 53 46 81 72 28 25 71 63 95 85 24 21 95 88 157 149 87
85 112 116 112 137 0 63 -53 67 -112 7z"/>
</g>
</svg>
