<?xml version="1.0" standalone="no"?>
<!DOCTYPE svg PUBLIC "-//W3C//DTD SVG 20010904//EN"
 "http://www.w3.org/TR/2001/REC-SVG-20010904/DTD/svg10.dtd">
<svg version="1.0" xmlns="http://www.w3.org/2000/svg"
 width="248.000000pt" height="248.000000pt" viewBox="0 0 248.000000 248.000000"
 preserveAspectRatio="xMidYMid meet">
<metadata>
Created by potrace 1.10, written by Peter Selinger 2001-2011
</metadata>
<g transform="translate(0.000000,248.000000) scale(0.100000,-0.100000)"
fill="#000000" stroke="none">
<path d="M752 2357 c-6 -7 -25 -39 -42 -72 -17 -33 -42 -73 -54 -90 -13 -16
-57 -79 -98 -140 -41 -60 -117 -173 -170 -250 -93 -138 -195 -277 -263 -364
-40 -50 -43 -70 -15 -96 36 -33 66 -11 164 120 83 110 238 334 433 625 42 63
77 116 78 118 1 1 78 -73 171 -164 172 -169 322 -284 371 -284 27 0 56 40 47
64 -4 9 -45 42 -92 73 -47 31 -117 88 -156 127 -40 39 -102 100 -139 135 -37
35 -92 97 -123 137 -56 75 -87 92 -112 61z"/>
</g>
</svg>
