<?xml version="1.0" standalone="no"?>
<!DOCTYPE svg PUBLIC "-//W3C//DTD SVG 20010904//EN"
 "http://www.w3.org/TR/2001/REC-SVG-20010904/DTD/svg10.dtd">
<svg version="1.0" xmlns="http://www.w3.org/2000/svg"
 width="248.000000pt" height="248.000000pt" viewBox="0 0 248.000000 248.000000"
 preserveAspectRatio="xMidYMid meet">
<metadata>
Created by potrace 1.10, written by Peter Selinger 2001-2011
</metadata>
<g transform="translate(0.000000,248.000000) scale(0.100000,-0.100000)"
fill="#000000" stroke="none">
<path d="M878 2227 c-41 -41 -221 -211 -298 -282 -19 -17 -74 -64 -122 -105
-70 -59 -88 -79 -88 -100 0 -34 24 -56 91 -81 59 -22 209 -108 209 -119 0 -7
-152 -180 -300 -342 -44 -48 -80 -95 -80 -103 0 -8 9 -24 21 -36 18 -18 28
-20 77 -14 31 4 94 18 140 31 45 13 87 24 93 24 8 0 9 -122 4 -422 -7 -467 -6
-473 50 -473 21 0 33 7 41 23 7 15 13 167 18 455 4 237 10 435 14 439 4 4 45
14 92 24 47 9 98 23 113 31 27 13 29 12 65 -26 20 -22 50 -56 65 -76 62 -79
135 -10 75 71 -60 80 -226 255 -247 261 -56 14 -79 -44 -37 -95 15 -16 26 -34
26 -39 0 -5 -80 -26 -177 -46 -98 -20 -189 -40 -202 -43 l-25 -7 23 32 c13 18
60 72 105 119 93 98 254 292 303 366 35 51 42 96 19 116 -27 22 -59 7 -96 -46
-19 -27 -51 -69 -71 -93 l-36 -43 -44 22 c-24 13 -62 35 -84 49 -22 15 -53 33
-70 40 l-30 13 30 25 c17 14 53 46 81 72 28 25 71 63 95 85 24 21 95 88 157
149 87 85 112 116 112 137 0 63 -53 67 -112 7z"/>
<path d="M406 818 c-9 -12 -16 -33 -16 -47 0 -38 -57 -206 -106 -313 -45 -99
-54 -144 -32 -166 16 -16 53 -15 66 1 40 48 182 423 182 481 0 32 -28 66 -55
66 -13 0 -31 -10 -39 -22z"/>
</g>
</svg>
