<?xml version="1.0" standalone="no"?>
<!DOCTYPE svg PUBLIC "-//W3C//DTD SVG 20010904//EN"
 "http://www.w3.org/TR/2001/REC-SVG-20010904/DTD/svg10.dtd">
<svg version="1.0" xmlns="http://www.w3.org/2000/svg"
 width="248.000000pt" height="248.000000pt" viewBox="0 0 248.000000 248.000000"
 preserveAspectRatio="xMidYMid meet">
<metadata>
Created by potrace 1.10, written by Peter Selinger 2001-2011
</metadata>
<g transform="translate(0.000000,248.000000) scale(0.100000,-0.100000)"
fill="#000000" stroke="none">
<path d="M752 2357 c-6 -7 -25 -39 -42 -72 -17 -33 -42 -73 -54 -90 -13 -16
-57 -79 -98 -140 -41 -60 -117 -173 -170 -250 -93 -138 -195 -277 -263 -364
-40 -50 -43 -70 -15 -96 36 -33 66 -11 164 120 83 110 238 334 433 625 42 63
77 116 78 118 1 1 78 -73 171 -164 172 -169 322 -284 371 -284 27 0 56 40 47
64 -4 9 -45 42 -92 73 -47 31 -117 88 -156 127 -40 39 -102 100 -139 135 -37
35 -92 97 -123 137 -56 75 -87 92 -112 61z"/>
<path d="M865 1820 c-66 -16 -160 -37 -210 -46 -109 -19 -137 -35 -133 -72 5
-45 40 -54 134 -36 43 8 102 21 129 28 28 8 86 22 130 31 126 26 144 33 151
62 17 66 -31 74 -201 33z"/>
<path d="M1020 1618 c-53 -11 -204 -47 -380 -90 -182 -44 -170 -29 -170 -211
0 -237 -40 -432 -140 -687 -62 -157 -124 -282 -167 -333 -25 -31 -30 -76 -11
-95 24 -24 56 -13 91 31 35 42 133 222 157 287 l12 35 13 -45 c62 -213 95
-323 97 -325 42 -34 88 -14 88 38 0 18 -25 115 -55 217 -29 101 -51 187 -49
190 5 5 28 9 214 40 41 6 100 18 130 26 30 8 72 14 93 14 l40 0 -7 -54 c-6
-52 -63 -286 -92 -375 -12 -39 -12 -47 1 -68 21 -32 60 -30 82 3 18 27 82 263
109 399 18 88 14 159 -9 182 -24 24 -103 27 -197 8 -47 -9 -105 -21 -130 -25
-25 -4 -89 -15 -143 -25 -54 -10 -100 -15 -103 -12 -3 2 5 45 16 94 l22 90 96
17 c54 10 122 22 152 27 168 28 265 49 277 62 8 8 32 79 54 157 58 212 74 383
39 425 -14 17 -61 18 -130 3z m39 -140 c-3 -103 1 -99 -139 -124 -69 -12 -161
-31 -205 -42 -44 -11 -92 -23 -107 -26 l-28 -6 0 60 c0 72 -9 66 185 112 219
52 280 66 288 67 4 1 6 -18 6 -41z m-54 -285 c-10 -38 -21 -72 -25 -76 -9 -10
-411 -79 -418 -72 -3 2 -1 32 4 66 l9 62 125 29 c147 34 313 66 319 62 2 -2
-4 -34 -14 -71z"/>
</g>
</svg>
