<?xml version="1.0" standalone="no"?>
<!DOCTYPE svg PUBLIC "-//W3C//DTD SVG 20010904//EN"
 "http://www.w3.org/TR/2001/REC-SVG-20010904/DTD/svg10.dtd">
<svg version="1.0" xmlns="http://www.w3.org/2000/svg"
 width="248.000000pt" height="248.000000pt" viewBox="0 0 248.000000 248.000000"
 preserveAspectRatio="xMidYMid meet">
<metadata>
Created by potrace 1.10, written by Peter Selinger 2001-2011
</metadata>
<g transform="translate(0.000000,248.000000) scale(0.100000,-0.100000)"
fill="#000000" stroke="none">
<path d="M1833 2279 c-32 -39 -84 -100 -115 -135 -58 -64 -71 -97 -46 -122 37
-37 85 -3 204 147 84 106 99 142 72 169 -28 28 -57 13 -115 -59z"/>
<path d="M1189 2304 c-25 -31 30 -220 81 -277 25 -28 31 -30 56 -22 37 13 43
53 16 98 -11 17 -30 66 -42 107 -12 41 -29 83 -38 93 -19 21 -55 22 -73 1z"/>
<path d="M662 2258 c-6 -6 -12 -24 -12 -38 0 -30 103 -207 149 -257 31 -34 67
-43 89 -21 22 22 13 49 -45 139 -32 49 -71 111 -88 137 -31 49 -68 65 -93 40z"/>
<path d="M1710 1963 c-203 -19 -284 -28 -465 -54 -204 -29 -266 -40 -447 -80
-48 -10 -102 -19 -121 -19 -67 0 -83 -54 -48 -166 11 -34 27 -124 36 -200 37
-333 39 -338 92 -361 33 -13 53 -14 153 -4 255 25 316 31 328 31 13 0 17 -111
6 -168 -6 -30 -6 -30 -93 -37 -47 -3 -113 -11 -146 -16 -33 -5 -134 -16 -225
-24 -322 -28 -395 -37 -417 -51 -31 -19 -30 -59 1 -79 21 -14 37 -14 157 -1
74 8 188 20 254 26 66 6 176 18 245 25 69 8 146 17 172 20 l46 5 4 -322 c4
-338 8 -370 49 -383 24 -8 59 11 59 33 1 9 1 166 0 349 l-1 331 78 6 c43 4
128 13 188 21 115 15 247 29 450 46 136 11 169 23 173 60 6 55 -50 64 -263 39
-100 -12 -305 -34 -495 -55 -68 -8 -126 -13 -127 -11 -2 1 0 46 4 99 l6 96 41
6 c95 12 305 24 337 19 46 -8 56 6 73 97 7 41 32 164 54 275 47 228 66 373 52
410 -16 40 -72 50 -210 37z m98 -195 c-5 -51 -12 -96 -16 -100 -5 -5 -55 -13
-113 -18 -57 -5 -147 -16 -199 -24 -153 -25 -140 -33 -140 88 l0 104 38 6 c91
13 298 32 382 34 l56 2 -8 -92z m-576 -58 c0 -49 1 -95 2 -102 1 -14 -84 -38
-139 -38 -22 0 -74 -6 -115 -14 -101 -19 -220 -29 -220 -19 0 14 -28 137 -34
154 -7 16 2 18 224 65 75 15 229 41 263 43 15 1 17 -10 19 -89z m532 -192
c-15 -82 -56 -254 -62 -259 -10 -8 -332 -30 -343 -23 -5 3 -9 63 -9 134 0 126
1 130 23 134 38 8 250 36 297 39 109 8 100 11 94 -25z m-524 -117 c0 -48 3
-109 6 -134 8 -59 47 -51 -378 -84 l-66 -5 -7 43 c-3 24 -7 80 -8 124 -2 64 1
80 13 81 151 20 369 51 433 63 4 0 7 -39 7 -88z"/>
</g>
</svg>
