<?xml version="1.0" standalone="no"?>
<!DOCTYPE svg PUBLIC "-//W3C//DTD SVG 20010904//EN"
 "http://www.w3.org/TR/2001/REC-SVG-20010904/DTD/svg10.dtd">
<svg version="1.0" xmlns="http://www.w3.org/2000/svg"
 width="248.000000pt" height="248.000000pt" viewBox="0 0 248.000000 248.000000"
 preserveAspectRatio="xMidYMid meet">
<metadata>
Created by potrace 1.10, written by Peter Selinger 2001-2011
</metadata>
<g transform="translate(0.000000,248.000000) scale(0.100000,-0.100000)"
fill="#000000" stroke="none">
<path d="M1210 2309 c-69 -4 -186 -15 -260 -24 -74 -9 -182 -20 -239 -25 -129
-11 -157 -27 -153 -85 2 -14 80 -551 98 -670 27 -177 31 -181 138 -171 33 3
113 8 176 11 106 5 174 9 320 20 30 2 105 7 165 11 61 3 118 8 127 9 33 7 214
6 248 0 43 -8 90 23 90 61 0 13 11 56 24 96 52 155 166 641 166 705 0 74 7 73
-410 71 -201 0 -421 -5 -490 -9z m794 -87 c3 -5 -1 -33 -9 -63 -8 -30 -20 -81
-26 -114 -6 -33 -16 -63 -22 -67 -6 -3 -58 -9 -116 -12 -58 -4 -167 -11 -241
-16 -74 -5 -220 -14 -325 -20 -104 -6 -251 -17 -325 -25 -74 -8 -158 -16 -186
-19 l-51 -5 -20 132 c-11 73 -17 135 -14 139 3 4 56 11 116 17 61 6 178 17
260 26 257 28 947 47 959 27z m-78 -367 c-3 -9 -19 -69 -35 -134 -34 -134 -58
-201 -78 -217 -8 -7 -76 -14 -161 -18 -81 -4 -203 -11 -272 -16 -69 -5 -199
-14 -290 -20 -91 -6 -198 -13 -238 -16 -70 -5 -72 -4 -82 21 -11 29 -55 324
-49 329 2 2 65 9 139 15 74 6 185 15 245 20 61 5 202 15 315 22 113 6 241 14
285 18 44 3 113 8 154 9 65 3 73 1 67 -13z"/>
<path d="M1825 1033 c-94 -3 -553 -30 -850 -49 -233 -14 -604 -49 -655 -61
-42 -9 -70 -32 -70 -57 0 -34 23 -49 67 -43 189 24 542 55 823 72 52 3 205 12
340 20 429 25 582 28 730 12 78 -9 143 -11 156 -7 43 17 41 74 -3 91 -14 5
-107 12 -206 14 -100 3 -200 7 -222 8 -22 1 -71 1 -110 0z"/>
</g>
</svg>
