<?xml version="1.0" standalone="no"?>
<!DOCTYPE svg PUBLIC "-//W3C//DTD SVG 20010904//EN"
 "http://www.w3.org/TR/2001/REC-SVG-20010904/DTD/svg10.dtd">
<svg version="1.0" xmlns="http://www.w3.org/2000/svg"
 width="248.000000pt" height="248.000000pt" viewBox="0 0 248.000000 248.000000"
 preserveAspectRatio="xMidYMid meet">
<metadata>
Created by potrace 1.10, written by Peter Selinger 2001-2011
</metadata>
<g transform="translate(0.000000,248.000000) scale(0.100000,-0.100000)"
fill="#000000" stroke="none">
<path d="M1210 2309 c-69 -4 -186 -15 -260 -24 -74 -9 -181 -20 -237 -25 -56
-5 -112 -14 -123 -20 -29 -16 -38 -46 -28 -98 4 -25 28 -185 53 -356 65 -450
64 -446 110 -446 53 0 55 30 15 285 -11 72 -20 137 -20 146 0 14 17 18 103 23
56 4 134 11 172 16 39 5 153 14 255 20 102 6 249 15 328 20 366 25 356 25 348
5 -3 -10 -18 -63 -31 -119 -14 -56 -42 -150 -62 -209 -41 -117 -39 -139 10
-145 39 -5 59 26 99 155 66 212 168 643 168 710 0 74 7 73 -410 71 -201 0
-421 -5 -490 -9z m794 -87 c3 -5 -1 -33 -9 -63 -8 -30 -20 -81 -26 -114 -6
-33 -16 -63 -22 -67 -6 -3 -58 -9 -116 -12 -58 -4 -167 -11 -241 -16 -74 -5
-220 -14 -325 -20 -104 -6 -251 -17 -325 -25 -74 -8 -158 -16 -186 -19 l-51
-5 -20 132 c-11 73 -17 135 -14 139 3 4 56 11 116 17 61 6 178 17 260 26 257
28 947 47 959 27z"/>
</g>
</svg>
