<?xml version="1.0" standalone="no"?>
<!DOCTYPE svg PUBLIC "-//W3C//DTD SVG 20010904//EN"
 "http://www.w3.org/TR/2001/REC-SVG-20010904/DTD/svg10.dtd">
<svg version="1.0" xmlns="http://www.w3.org/2000/svg"
 width="248.000000pt" height="248.000000pt" viewBox="0 0 248.000000 248.000000"
 preserveAspectRatio="xMidYMid meet">
<metadata>
Created by potrace 1.10, written by Peter Selinger 2001-2011
</metadata>
<g transform="translate(0.000000,248.000000) scale(0.100000,-0.100000)"
fill="#000000" stroke="none">
<path d="M539 2393 c-11 -13 -14 -60 -13 -214 l2 -198 -47 -10 c-26 -5 -100
-19 -165 -30 -66 -12 -125 -26 -133 -33 -23 -19 -12 -61 21 -76 25 -12 45 -11
166 12 76 14 143 26 149 26 12 0 16 -538 5 -648 l-7 -60 -46 -17 c-116 -43
-279 -120 -303 -143 -30 -27 -36 -60 -16 -80 20 -20 49 -14 123 24 60 31 230
104 241 104 2 0 4 -166 4 -370 l0 -369 -58 59 c-63 65 -91 74 -116 38 -9 -12
-16 -26 -16 -30 0 -4 21 -33 48 -65 26 -32 65 -82 86 -111 21 -29 46 -57 56
-62 30 -16 66 -11 86 11 18 20 19 45 22 488 l3 466 49 28 c72 40 110 76 110
101 0 51 -49 60 -110 20 -22 -15 -41 -25 -43 -23 -1 2 -1 153 1 335 l3 330
121 28 c67 14 128 32 135 38 22 18 11 61 -18 75 -21 10 -43 8 -130 -11 -57
-13 -106 -22 -108 -20 -3 3 -7 87 -10 188 -6 195 -12 216 -56 216 -12 0 -29
-8 -36 -17z"/>
<path d="M1965 2270 c-79 -12 -209 -30 -345 -45 -69 -8 -154 -19 -190 -25 -36
-5 -90 -10 -120 -10 -73 0 -105 -17 -105 -55 0 -21 7 -33 25 -42 34 -17 75
-16 242 6 79 11 188 25 243 31 55 7 143 18 195 26 52 8 108 14 123 14 l28 0
-4 -127 c-2 -71 -10 -198 -17 -284 -11 -132 -11 -159 1 -185 16 -34 58 -44 79
-19 26 31 61 600 41 667 -18 57 -63 68 -196 48z"/>
</g>
</svg>
