<?xml version="1.0" standalone="no"?>
<!DOCTYPE svg PUBLIC "-//W3C//DTD SVG 20010904//EN"
 "http://www.w3.org/TR/2001/REC-SVG-20010904/DTD/svg10.dtd">
<svg version="1.0" xmlns="http://www.w3.org/2000/svg"
 width="248.000000pt" height="248.000000pt" viewBox="0 0 248.000000 248.000000"
 preserveAspectRatio="xMidYMid meet">
<metadata>
Created by potrace 1.10, written by Peter Selinger 2001-2011
</metadata>
<g transform="translate(0.000000,248.000000) scale(0.100000,-0.100000)"
fill="#000000" stroke="none">
<path d="M2003 2312 c-7 -5 -30 -36 -50 -70 -54 -86 -160 -201 -271 -290 -93
-75 -94 -76 -89 -113 l5 -37 -97 -11 c-53 -7 -118 -16 -146 -21 -27 -5 -99
-14 -160 -20 -133 -13 -144 -16 -154 -43 -21 -57 12 -79 100 -66 35 5 111 15
168 22 l103 13 10 -26 c11 -28 4 -245 -10 -295 -10 -35 -12 -35 -307 -75 -93
-13 -176 -27 -182 -33 -17 -13 -16 -52 1 -66 14 -12 148 -17 164 -7 9 5 246
36 277 36 22 0 16 -36 -31 -180 -67 -208 -150 -309 -356 -435 -54 -33 -47 -95
11 -95 35 0 141 63 208 124 118 107 187 224 249 419 10 31 21 57 24 57 14 0
236 -197 397 -353 95 -92 180 -167 188 -167 32 0 55 20 55 49 0 23 -31 58
-187 207 -104 99 -241 223 -305 278 -65 54 -118 101 -118 106 0 11 80 20 374
40 242 16 261 18 277 38 10 13 15 31 12 42 -10 38 -38 43 -162 31 -64 -6 -183
-15 -266 -21 -82 -6 -166 -13 -185 -16 l-35 -5 3 178 c2 98 5 179 6 181 2 1
65 11 140 22 157 23 261 46 294 66 15 10 22 24 22 44 0 39 -35 58 -77 42 -49
-18 -170 -44 -193 -40 -19 2 -10 14 61 73 161 133 318 329 303 379 -11 37 -45
55 -71 38z"/>
<path d="M1058 2158 c-34 -27 -32 -56 7 -91 47 -41 171 -195 193 -238 22 -45
63 -52 87 -15 15 23 15 28 -3 68 -21 48 -147 204 -206 256 -40 35 -54 38 -78
20z"/>
<path d="M202 2058 c-16 -16 -15 -53 1 -65 6 -6 35 -17 62 -26 28 -9 80 -29
116 -46 60 -27 66 -32 62 -56 -6 -30 12 -55 39 -55 32 0 118 61 125 88 8 32
-10 48 -88 76 -35 13 -99 40 -143 60 -81 37 -151 47 -174 24z"/>
<path d="M465 1415 c-49 -14 -128 -34 -175 -45 -159 -38 -200 -63 -185 -111 9
-28 50 -42 78 -27 25 13 239 69 245 63 2 -1 -4 -27 -12 -56 -20 -67 -21 -205
-2 -251 8 -19 36 -61 61 -92 37 -45 46 -62 41 -81 -10 -37 -118 -148 -178
-180 -48 -26 -63 -30 -157 -32 -115 -3 -151 -16 -151 -57 0 -35 22 -47 82 -45
29 1 89 -3 133 -10 129 -20 518 -119 800 -204 130 -39 276 -72 452 -102 118
-21 175 -25 335 -25 318 0 485 40 463 110 -12 37 -37 41 -119 20 -99 -25 -317
-44 -426 -37 -86 6 -243 28 -335 48 -166 36 -271 63 -445 113 -107 32 -249 70
-315 87 -66 16 -133 33 -150 38 -16 5 -43 12 -58 16 l-29 6 51 41 c50 40 114
117 140 167 22 41 9 116 -28 159 -74 87 -84 108 -83 175 1 34 6 77 11 95 16
52 58 119 91 142 52 37 34 101 -27 100 -10 -1 -58 -12 -108 -25z"/>
</g>
</svg>
