<?xml version="1.0" standalone="no"?>
<!DOCTYPE svg PUBLIC "-//W3C//DTD SVG 20010904//EN"
 "http://www.w3.org/TR/2001/REC-SVG-20010904/DTD/svg10.dtd">
<svg version="1.0" xmlns="http://www.w3.org/2000/svg"
 width="248.000000pt" height="248.000000pt" viewBox="0 0 248.000000 248.000000"
 preserveAspectRatio="xMidYMid meet">
<metadata>
Created by potrace 1.10, written by Peter Selinger 2001-2011
</metadata>
<g transform="translate(0.000000,248.000000) scale(0.100000,-0.100000)"
fill="#000000" stroke="none">
<path d="M663 2270 c-33 -13 -38 -59 -49 -392 -4 -129 -10 -197 -18 -206 -7
-7 -44 -17 -82 -23 -38 -6 -118 -19 -179 -30 -60 -10 -121 -19 -135 -19 -15 0
-31 -5 -38 -12 -15 -15 -15 -51 0 -66 15 -15 117 -16 189 -1 92 18 229 36 229
29 0 -3 -4 -10 -9 -15 -5 -6 -35 -71 -66 -145 -99 -238 -263 -510 -363 -602
-65 -58 -69 -67 -52 -99 24 -45 97 -11 182 84 45 51 167 252 249 413 34 66 64
121 66 124 3 3 3 -51 -1 -120 -10 -207 -10 -960 0 -969 18 -17 50 -21 67 -9
15 12 17 61 21 538 3 289 8 560 12 603 l7 79 86 -84 c141 -138 190 -178 220
-178 15 0 32 5 39 12 26 26 12 55 -50 109 -96 83 -278 270 -278 286 0 7 7 13
15 13 8 0 87 22 177 49 179 55 211 75 185 115 -8 12 -26 22 -40 24 -14 2 -94
-18 -177 -43 -84 -26 -156 -43 -161 -38 -9 9 6 342 20 455 11 84 8 103 -20
118 -20 11 -17 11 -46 0z"/>
<path d="M1266 1907 c-15 -11 -19 -30 -22 -88 -2 -41 -10 -166 -17 -279 -15
-215 -23 -1208 -11 -1268 8 -38 41 -60 68 -45 16 9 17 58 21 554 2 299 6 569
9 599 3 30 10 123 16 205 6 83 13 182 16 221 6 64 5 73 -15 93 -24 24 -40 26
-65 8z"/>
</g>
</svg>
