<?xml version="1.0" standalone="no"?>
<!DOCTYPE svg PUBLIC "-//W3C//DTD SVG 20010904//EN"
 "http://www.w3.org/TR/2001/REC-SVG-20010904/DTD/svg10.dtd">
<svg version="1.0" xmlns="http://www.w3.org/2000/svg"
 width="248.000000pt" height="248.000000pt" viewBox="0 0 248.000000 248.000000"
 preserveAspectRatio="xMidYMid meet">
<metadata>
Created by potrace 1.10, written by Peter Selinger 2001-2011
</metadata>
<g transform="translate(0.000000,248.000000) scale(0.100000,-0.100000)"
fill="#000000" stroke="none">
<path d="M1120 2405 c-7 -9 -23 -37 -35 -63 -22 -46 -193 -283 -214 -296 -6
-4 -35 -37 -65 -74 -70 -88 -287 -305 -411 -412 -150 -129 -175 -155 -175
-182 0 -30 17 -48 46 -48 36 0 348 276 525 465 97 104 247 288 314 385 32 47
60 87 61 88 3 4 141 -100 254 -192 107 -87 139 -112 195 -150 28 -19 56 -40
63 -48 6 -8 44 -36 84 -63 40 -27 91 -61 113 -75 51 -35 300 -160 318 -160 22
0 49 36 45 62 -2 18 -29 37 -138 93 -75 39 -180 100 -235 138 -95 64 -140 98
-437 327 -68 52 -150 123 -183 158 -63 65 -99 79 -125 47z"/>
</g>
</svg>
