<?xml version="1.0" standalone="no"?>
<!DOCTYPE svg PUBLIC "-//W3C//DTD SVG 20010904//EN"
 "http://www.w3.org/TR/2001/REC-SVG-20010904/DTD/svg10.dtd">
<svg version="1.0" xmlns="http://www.w3.org/2000/svg"
 width="248.000000pt" height="248.000000pt" viewBox="0 0 248.000000 248.000000"
 preserveAspectRatio="xMidYMid meet">
<metadata>
Created by potrace 1.10, written by Peter Selinger 2001-2011
</metadata>
<g transform="translate(0.000000,248.000000) scale(0.100000,-0.100000)"
fill="#000000" stroke="none">
<path d="M1450 2279 c-74 -5 -174 -13 -221 -19 -47 -5 -102 -10 -122 -10 -35
0 -50 -13 -277 -242 -132 -133 -240 -248 -240 -254 0 -7 8 -22 18 -34 34 -42
61 -23 287 205 l213 215 68 9 c98 14 344 25 344 16 0 -25 -129 -192 -288 -372
l-37 -43 -130 -21 c-71 -11 -162 -24 -201 -27 -81 -8 -106 -23 -102 -61 5 -44
44 -57 130 -44 40 6 147 22 238 36 91 14 203 30 250 36 269 33 380 44 386 38
4 -4 2 -37 -5 -74 -6 -38 -14 -81 -16 -98 -20 -122 -8 -111 -135 -120 -113 -9
-409 -41 -595 -66 -82 -11 -235 -29 -340 -40 -224 -23 -353 -45 -372 -61 -23
-19 -12 -61 20 -76 24 -12 42 -11 115 2 48 8 137 20 197 27 129 13 294 32 455
53 190 25 611 68 617 62 4 -4 -29 -173 -36 -184 -4 -6 -78 -18 -170 -27 -90
-9 -167 -18 -171 -20 -4 -2 -54 -9 -111 -15 -57 -6 -142 -15 -189 -20 -253
-29 -260 -31 -260 -76 0 -48 53 -63 159 -44 31 5 103 14 161 20 58 6 150 17
205 25 55 8 134 17 175 20 72 6 185 20 243 31 41 8 54 37 81 173 14 68 27 125
29 127 2 3 85 9 183 15 202 13 229 20 229 64 0 51 -29 57 -202 45 -81 -5 -160
-10 -174 -10 -29 0 -30 -24 11 203 33 186 17 195 -280 157 -41 -5 -109 -14
-150 -19 -41 -6 -76 -8 -78 -6 -2 2 25 37 60 77 93 107 161 203 202 285 39 78
43 100 24 125 -19 23 -48 25 -198 17z"/>
</g>
</svg>
