<?xml version="1.0" standalone="no"?>
<!DOCTYPE svg PUBLIC "-//W3C//DTD SVG 20010904//EN"
 "http://www.w3.org/TR/2001/REC-SVG-20010904/DTD/svg10.dtd">
<svg version="1.0" xmlns="http://www.w3.org/2000/svg"
 width="248.000000pt" height="248.000000pt" viewBox="0 0 248.000000 248.000000"
 preserveAspectRatio="xMidYMid meet">
<metadata>
Created by potrace 1.10, written by Peter Selinger 2001-2011
</metadata>
<g transform="translate(0.000000,248.000000) scale(0.100000,-0.100000)"
fill="#000000" stroke="none">
<path d="M536 2378 c-13 -19 -16 -62 -16 -264 0 -133 -3 -255 -6 -272 -6 -29
-9 -31 -113 -56 -58 -14 -133 -28 -166 -31 -33 -4 -70 -13 -82 -21 -30 -19
-30 -59 -1 -78 27 -18 116 -9 255 24 46 11 89 20 94 20 5 0 9 -131 9 -317 l0
-318 -163 -63 c-197 -76 -191 -73 -195 -104 -4 -32 21 -52 61 -51 25 1 155 48
273 99 7 3 13 -84 17 -293 4 -164 10 -309 13 -323 5 -21 0 -19 -31 18 -37 43
-70 53 -93 30 -31 -31 -1 -93 91 -191 40 -44 48 -48 83 -45 64 5 67 21 54 270
-6 117 -10 296 -8 397 l3 185 126 50 c69 28 140 56 157 63 36 13 47 32 38 68
-11 43 -43 41 -172 -10 -66 -26 -125 -50 -131 -52 -10 -4 -13 61 -13 305 0
286 1 310 18 315 9 2 71 19 137 37 136 36 165 51 165 83 0 54 -32 58 -175 21
-55 -14 -109 -28 -120 -31 -20 -4 -20 0 -17 252 3 222 2 259 -12 280 -21 32
-59 33 -80 3z"/>
<path d="M1676 2368 c-13 -18 -16 -50 -16 -159 l0 -136 -72 -7 c-40 -4 -93
-12 -118 -17 -25 -6 -101 -16 -168 -24 -89 -9 -129 -17 -140 -29 -14 -14 -17
-37 -14 -144 1 -70 11 -194 22 -276 11 -81 20 -181 20 -220 0 -47 5 -79 15
-93 26 -37 35 -38 379 -6 58 6 59 5 53 -18 -4 -13 -7 -59 -7 -101 l0 -77 -32
-6 c-18 -3 -82 -10 -143 -15 -255 -22 -285 -30 -285 -75 0 -33 27 -50 79 -49
81 1 266 22 429 48 184 30 292 44 292 39 0 -2 -14 -31 -31 -64 -98 -196 -308
-427 -489 -540 -129 -80 -245 -133 -353 -161 -114 -30 -144 -61 -97 -103 24
-22 80 -15 195 25 89 30 254 110 300 144 17 12 52 35 79 51 122 70 344 330
454 530 73 133 69 228 -9 228 -52 0 -242 -20 -261 -28 -16 -6 -18 1 -18 81 0
49 4 94 8 100 4 6 32 15 62 18 30 4 84 11 120 17 36 5 107 13 158 18 62 6 98
14 111 25 15 14 19 42 27 194 5 97 9 259 9 359 0 174 -1 184 -22 204 -24 25
-76 27 -208 10 -44 -5 -115 -13 -157 -17 l-78 -6 0 123 c0 80 -5 133 -13 149
-17 34 -60 39 -81 8z m454 -477 l0 -129 -62 -6 c-35 -4 -116 -14 -181 -23 -65
-8 -119 -14 -121 -12 -2 2 -1 61 2 132 4 120 6 128 26 131 18 4 263 30 319 35
15 1 17 -11 17 -128z m-472 -50 c-2 -71 -5 -132 -8 -135 -5 -4 -215 -36 -346
-53 l-41 -5 -6 127 c-4 70 -4 131 -1 136 3 5 24 9 47 9 23 0 69 5 102 11 112
20 220 37 238 38 17 1 18 -8 15 -128z m457 -298 c-4 -60 -8 -109 -9 -110 -4
-4 -205 -32 -278 -39 l-78 -7 0 112 c0 61 3 111 6 111 4 0 52 7 108 15 124 17
159 21 215 23 l43 2 -7 -107z m-475 -61 l0 -109 -82 -11 c-46 -6 -122 -14
-169 -17 l-86 -7 -7 69 c-4 37 -9 82 -12 99 -6 31 -5 31 53 43 94 19 225 38
266 40 l37 1 0 -108z"/>
</g>
</svg>
