<?xml version="1.0" standalone="no"?>
<!DOCTYPE svg PUBLIC "-//W3C//DTD SVG 20010904//EN"
 "http://www.w3.org/TR/2001/REC-SVG-20010904/DTD/svg10.dtd">
<svg version="1.0" xmlns="http://www.w3.org/2000/svg"
 width="248.000000pt" height="248.000000pt" viewBox="0 0 248.000000 248.000000"
 preserveAspectRatio="xMidYMid meet">
<metadata>
Created by potrace 1.10, written by Peter Selinger 2001-2011
</metadata>
<g transform="translate(0.000000,248.000000) scale(0.100000,-0.100000)"
fill="#000000" stroke="none">
<path d="M663 2270 c-33 -13 -38 -59 -49 -392 -4 -129 -10 -197 -18 -206 -7
-7 -44 -17 -82 -23 -38 -6 -118 -19 -179 -30 -60 -10 -121 -19 -135 -19 -15 0
-31 -5 -38 -12 -15 -15 -15 -51 0 -66 15 -15 117 -16 189 -1 92 18 229 36 229
29 0 -3 -4 -10 -9 -15 -5 -6 -35 -71 -66 -145 -99 -238 -263 -510 -363 -602
-65 -58 -69 -67 -52 -99 24 -45 97 -11 182 84 45 51 167 252 249 413 34 66 64
121 66 124 3 3 3 -51 -1 -120 -10 -207 -10 -960 0 -969 18 -17 50 -21 67 -9
15 12 17 61 21 538 3 289 8 560 12 603 l7 79 86 -84 c141 -138 190 -178 220
-178 15 0 32 5 39 12 26 26 12 55 -50 109 -96 83 -278 270 -278 286 0 7 7 13
15 13 8 0 87 22 177 49 179 55 211 75 185 115 -8 12 -26 22 -40 24 -14 2 -94
-18 -177 -43 -84 -26 -156 -43 -161 -38 -9 9 6 342 20 455 11 84 8 103 -20
118 -20 11 -17 11 -46 0z"/>
<path d="M2015 2029 c-275 -8 -708 -72 -751 -111 -18 -16 -21 -31 -22 -96 -1
-42 -7 -169 -15 -282 -15 -214 -23 -1206 -11 -1268 8 -40 37 -58 69 -44 l22
10 -5 270 c-3 158 -1 271 4 275 5 3 75 10 154 17 80 6 186 17 235 25 126 19
266 34 360 37 l80 3 1 -160 c1 -157 -7 -296 -21 -386 -6 -36 -4 -49 10 -62 20
-20 45 -22 69 -4 25 19 34 161 40 617 2 206 10 545 16 752 13 394 13 401 -28
409 -9 2 -102 1 -207 -2z m146 -101 c4 -43 -4 -364 -10 -386 -6 -24 -14 -28
-72 -38 -35 -7 -86 -12 -114 -13 -27 -1 -124 -12 -215 -26 -199 -29 -414 -43
-424 -27 -6 11 7 243 20 358 l7 53 51 10 c28 5 139 22 246 37 107 15 218 30
245 34 92 13 265 11 266 -2z m-20 -728 c-2 -113 -5 -212 -6 -220 -1 -11 -17
-16 -56 -17 -105 -4 -308 -24 -387 -38 -132 -23 -371 -40 -384 -27 -8 8 -8 72
-2 224 l9 213 170 6 c94 4 218 15 275 24 118 19 334 44 365 41 19 -1 20 -7 16
-206z"/>
</g>
</svg>
