<?xml version="1.0" standalone="no"?>
<!DOCTYPE svg PUBLIC "-//W3C//DTD SVG 20010904//EN"
 "http://www.w3.org/TR/2001/REC-SVG-20010904/DTD/svg10.dtd">
<svg version="1.0" xmlns="http://www.w3.org/2000/svg"
 width="248.000000pt" height="248.000000pt" viewBox="0 0 248.000000 248.000000"
 preserveAspectRatio="xMidYMid meet">
<metadata>
Created by potrace 1.10, written by Peter Selinger 2001-2011
</metadata>
<g transform="translate(0.000000,248.000000) scale(0.100000,-0.100000)"
fill="#000000" stroke="none">
<path d="M1120 2405 c-7 -9 -23 -37 -35 -63 -22 -46 -193 -283 -214 -296 -6
-4 -35 -37 -65 -74 -70 -88 -287 -305 -411 -412 -150 -129 -175 -155 -175
-182 0 -30 17 -48 46 -48 36 0 348 276 525 465 152 162 338 403 388 502 23 47
27 93 9 111 -17 17 -53 15 -68 -3z"/>
</g>
</svg>
