<?xml version="1.0" standalone="no"?>
<!DOCTYPE svg PUBLIC "-//W3C//DTD SVG 20010904//EN"
 "http://www.w3.org/TR/2001/REC-SVG-20010904/DTD/svg10.dtd">
<svg version="1.0" xmlns="http://www.w3.org/2000/svg"
 width="248.000000pt" height="248.000000pt" viewBox="0 0 248.000000 248.000000"
 preserveAspectRatio="xMidYMid meet">
<metadata>
Created by potrace 1.10, written by Peter Selinger 2001-2011
</metadata>
<g transform="translate(0.000000,248.000000) scale(0.100000,-0.100000)"
fill="#000000" stroke="none">
<path d="M663 2270 c-33 -13 -38 -59 -49 -392 -4 -129 -10 -197 -18 -206 -7
-7 -44 -17 -82 -23 -38 -6 -118 -19 -179 -30 -60 -10 -121 -19 -135 -19 -15 0
-31 -5 -38 -12 -15 -15 -15 -51 0 -66 15 -15 117 -16 189 -1 92 18 229 36 229
29 0 -3 -4 -10 -9 -15 -5 -6 -35 -71 -66 -145 -99 -238 -263 -510 -363 -602
-65 -58 -69 -67 -52 -99 24 -45 97 -11 182 84 45 51 167 252 249 413 34 66 64
121 66 124 3 3 3 -51 -1 -120 -10 -207 -10 -960 0 -969 18 -17 50 -21 69 -8
17 13 18 35 17 383 0 363 11 798 23 922 4 35 12 65 18 67 7 2 86 25 177 51
185 54 224 77 197 117 -8 12 -26 23 -40 25 -14 2 -94 -18 -177 -43 -84 -26
-156 -43 -161 -38 -9 9 6 342 20 455 11 84 8 103 -20 118 -20 11 -17 11 -46 0z"/>
</g>
</svg>
