<?xml version="1.0" standalone="no"?>
<!DOCTYPE svg PUBLIC "-//W3C//DTD SVG 20010904//EN"
 "http://www.w3.org/TR/2001/REC-SVG-20010904/DTD/svg10.dtd">
<svg version="1.0" xmlns="http://www.w3.org/2000/svg"
 width="248.000000pt" height="248.000000pt" viewBox="0 0 248.000000 248.000000"
 preserveAspectRatio="xMidYMid meet">
<metadata>
Created by potrace 1.10, written by Peter Selinger 2001-2011
</metadata>
<g transform="translate(0.000000,248.000000) scale(0.100000,-0.100000)"
fill="#000000" stroke="none">
<path d="M2003 2312 c-7 -5 -30 -36 -50 -70 -53 -86 -160 -201 -270 -289 -79
-64 -93 -80 -93 -104 0 -21 7 -32 24 -40 31 -14 51 -3 158 86 161 134 317 330
302 379 -11 37 -45 55 -71 38z"/>
<path d="M1058 2158 c-34 -27 -32 -56 7 -91 47 -41 171 -195 193 -238 22 -45
63 -52 87 -15 15 23 15 28 -3 68 -21 48 -147 204 -206 256 -40 35 -54 38 -78
20z"/>
</g>
</svg>
