<?xml version="1.0" standalone="no"?>
<!DOCTYPE svg PUBLIC "-//W3C//DTD SVG 20010904//EN"
 "http://www.w3.org/TR/2001/REC-SVG-20010904/DTD/svg10.dtd">
<svg version="1.0" xmlns="http://www.w3.org/2000/svg"
 width="248.000000pt" height="248.000000pt" viewBox="0 0 248.000000 248.000000"
 preserveAspectRatio="xMidYMid meet">
<metadata>
Created by potrace 1.10, written by Peter Selinger 2001-2011
</metadata>
<g transform="translate(0.000000,248.000000) scale(0.100000,-0.100000)"
fill="#000000" stroke="none">
<path d="M1450 2279 c-74 -5 -174 -13 -221 -19 -47 -5 -102 -10 -122 -10 -35
0 -50 -13 -277 -242 -132 -133 -240 -248 -240 -254 0 -7 8 -22 18 -34 34 -42
61 -23 287 205 l213 215 68 9 c98 14 344 25 344 16 0 -25 -129 -192 -288 -372
l-37 -43 -130 -21 c-71 -11 -162 -24 -201 -27 -39 -4 -79 -14 -88 -21 -25 -21
-16 -62 16 -80 29 -16 18 -17 311 29 76 12 142 19 145 15 4 -4 9 -64 10 -135
l4 -128 -84 -11 c-274 -37 -400 -52 -538 -66 -188 -19 -318 -41 -337 -57 -23
-19 -12 -61 20 -76 24 -12 42 -11 115 2 48 8 134 20 192 26 137 14 321 36 493
58 l137 18 0 -101 0 -102 -72 -7 c-40 -3 -111 -11 -158 -16 -254 -29 -260 -31
-260 -76 0 -38 40 -58 103 -50 170 21 220 27 296 33 l84 6 -7 -244 c-8 -282
-15 -389 -27 -389 -5 0 -31 16 -58 35 -51 37 -91 44 -111 21 -22 -27 -6 -59
50 -103 30 -24 72 -56 94 -73 41 -32 95 -40 114 -17 12 14 43 284 41 352 0 22
3 131 7 241 l7 202 96 7 c85 5 126 11 249 31 46 7 59 33 86 173 14 68 27 125
29 127 2 3 85 9 183 15 202 13 229 20 229 64 0 51 -29 57 -202 45 -81 -5 -160
-10 -174 -10 -29 0 -30 -24 11 203 33 186 17 195 -280 157 -41 -5 -109 -14
-150 -19 -41 -6 -76 -8 -78 -6 -2 2 25 37 60 77 93 107 161 203 202 285 39 78
43 100 24 125 -19 23 -48 25 -198 17z m320 -591 c0 -13 -4 -39 -9 -58 -5 -19
-12 -55 -15 -80 -11 -93 -19 -120 -35 -124 -9 -3 -81 -10 -161 -16 -80 -6
-153 -13 -162 -16 -16 -5 -18 3 -18 68 0 40 -3 103 -6 140 l-7 66 69 7 c38 4
112 12 164 20 52 7 114 13 138 14 37 1 42 -2 42 -21z m-63 -390 c-3 -13 -11
-52 -17 -89 -6 -36 -15 -70 -18 -77 -4 -6 -58 -16 -122 -22 -63 -5 -130 -12
-147 -14 l-33 -5 0 100 c0 96 1 99 23 100 12 1 81 7 152 14 72 6 138 13 149
13 14 2 17 -3 13 -20z"/>
</g>
</svg>
