<?xml version="1.0" standalone="no"?>
<!DOCTYPE svg PUBLIC "-//W3C//DTD SVG 20010904//EN"
 "http://www.w3.org/TR/2001/REC-SVG-20010904/DTD/svg10.dtd">
<svg version="1.0" xmlns="http://www.w3.org/2000/svg"
 width="248.000000pt" height="248.000000pt" viewBox="0 0 248.000000 248.000000"
 preserveAspectRatio="xMidYMid meet">
<metadata>
Created by potrace 1.10, written by Peter Selinger 2001-2011
</metadata>
<g transform="translate(0.000000,248.000000) scale(0.100000,-0.100000)"
fill="#000000" stroke="none">
<path d="M1833 2279 c-32 -39 -84 -100 -115 -135 -58 -64 -71 -97 -46 -122 37
-37 85 -3 204 147 84 106 99 142 72 169 -28 28 -57 13 -115 -59z"/>
<path d="M1189 2304 c-25 -31 30 -220 81 -277 25 -28 31 -30 56 -22 37 13 43
53 16 98 -11 17 -30 66 -42 107 -12 41 -29 83 -38 93 -19 21 -55 22 -73 1z"/>
<path d="M662 2258 c-6 -6 -12 -24 -12 -38 0 -30 103 -207 149 -257 31 -34 67
-43 89 -21 22 22 13 49 -45 139 -32 49 -71 111 -88 137 -31 49 -68 65 -93 40z"/>
<path d="M1710 1963 c-203 -19 -284 -28 -465 -54 -204 -29 -266 -40 -447 -80
-48 -10 -102 -19 -121 -19 -68 0 -81 -46 -47 -165 11 -38 27 -132 35 -210 22
-197 41 -314 55 -331 28 -33 82 -8 83 38 1 79 -54 483 -73 533 -6 15 -9 29 -8
30 3 2 121 29 228 51 181 37 565 88 756 99 l110 7 -8 -83 c-4 -46 -23 -160
-43 -254 -67 -319 -68 -322 -53 -352 15 -32 58 -43 76 -20 7 8 18 47 26 88 7
41 32 164 54 275 47 228 66 373 52 410 -16 40 -72 50 -210 37z"/>
</g>
</svg>
