<?xml version="1.0" standalone="no"?>
<!DOCTYPE svg PUBLIC "-//W3C//DTD SVG 20010904//EN"
 "http://www.w3.org/TR/2001/REC-SVG-20010904/DTD/svg10.dtd">
<svg version="1.0" xmlns="http://www.w3.org/2000/svg"
 width="248.000000pt" height="248.000000pt" viewBox="0 0 248.000000 248.000000"
 preserveAspectRatio="xMidYMid meet">
<metadata>
Created by potrace 1.10, written by Peter Selinger 2001-2011
</metadata>
<g transform="translate(0.000000,248.000000) scale(0.100000,-0.100000)"
fill="#000000" stroke="none">
<path d="M536 2378 c-13 -19 -16 -62 -16 -264 0 -133 -3 -255 -6 -272 -6 -29
-9 -31 -113 -56 -58 -14 -133 -28 -166 -31 -33 -4 -70 -13 -82 -21 -30 -19
-30 -59 -1 -78 27 -18 116 -9 255 24 46 11 89 20 94 20 6 0 9 -246 7 -662 -2
-365 1 -679 5 -698 l8 -35 -36 43 c-37 43 -70 53 -93 30 -31 -31 -1 -93 91
-191 40 -44 48 -48 83 -45 63 5 67 23 54 251 -7 126 -8 387 -4 764 6 510 9
572 23 576 9 3 70 19 136 37 136 36 165 51 165 83 0 54 -32 58 -175 21 -55
-14 -109 -28 -120 -31 -20 -4 -20 0 -17 252 3 222 2 259 -12 280 -21 32 -59
33 -80 3z"/>
</g>
</svg>
