<?xml version="1.0" standalone="no"?>
<!DOCTYPE svg PUBLIC "-//W3C//DTD SVG 20010904//EN"
 "http://www.w3.org/TR/2001/REC-SVG-20010904/DTD/svg10.dtd">
<svg version="1.0" xmlns="http://www.w3.org/2000/svg"
 width="248.000000pt" height="248.000000pt" viewBox="0 0 248.000000 248.000000"
 preserveAspectRatio="xMidYMid meet">
<metadata>
Created by potrace 1.10, written by Peter Selinger 2001-2011
</metadata>
<g transform="translate(0.000000,248.000000) scale(0.100000,-0.100000)"
fill="#000000" stroke="none">
<path d="M1120 2405 c-7 -9 -23 -37 -35 -63 -22 -46 -193 -283 -214 -296 -6
-4 -35 -37 -65 -74 -70 -88 -287 -305 -411 -412 -150 -129 -175 -155 -175
-182 0 -30 17 -48 46 -48 36 0 348 276 525 465 97 104 247 288 314 385 32 47
60 87 61 88 3 4 89 -60 248 -187 130 -103 187 -153 164 -145 -10 3 -68 -3
-130 -15 -62 -12 -225 -39 -363 -62 -259 -42 -285 -51 -285 -94 0 -55 30 -56
317 -6 92 16 233 39 313 52 167 26 194 37 188 80 -3 16 -1 29 3 29 4 0 27 -17
51 -37 24 -21 71 -56 103 -77 33 -22 78 -52 100 -67 51 -34 300 -159 318 -159
22 0 49 36 45 62 -2 18 -29 37 -138 93 -75 39 -180 100 -235 138 -95 64 -140
98 -437 327 -68 52 -150 123 -183 158 -63 65 -99 79 -125 47z"/>
<path d="M1575 1703 c-22 -2 -128 -17 -235 -33 -107 -16 -262 -39 -345 -50
-158 -22 -195 -36 -195 -73 0 -32 18 -47 57 -47 39 0 272 32 480 65 83 14 172
25 198 25 l46 0 -5 -32 c-3 -18 -8 -64 -11 -103 -4 -38 -15 -107 -26 -151 -23
-99 -24 -128 -3 -148 35 -36 81 -6 91 60 3 22 10 47 14 56 18 34 54 365 44
397 -4 15 -64 48 -69 39 -1 -1 -19 -3 -41 -5z"/>
</g>
</svg>
