<?xml version="1.0" standalone="no"?>
<!DOCTYPE svg PUBLIC "-//W3C//DTD SVG 20010904//EN"
 "http://www.w3.org/TR/2001/REC-SVG-20010904/DTD/svg10.dtd">
<svg version="1.0" xmlns="http://www.w3.org/2000/svg"
 width="248.000000pt" height="248.000000pt" viewBox="0 0 248.000000 248.000000"
 preserveAspectRatio="xMidYMid meet">
<metadata>
Created by potrace 1.10, written by Peter Selinger 2001-2011
</metadata>
<g transform="translate(0.000000,248.000000) scale(0.100000,-0.100000)"
fill="#000000" stroke="none">
<path d="M1169 2334 c-10 -13 -15 -61 -19 -188 l-5 -171 -40 -7 c-22 -4 -107
-10 -190 -13 -307 -12 -315 -13 -315 -60 0 -45 21 -50 194 -49 89 1 200 6 249
11 l87 9 0 -86 c-1 -47 -5 -129 -10 -183 -9 -107 -1 -152 29 -162 56 -17 67
17 82 252 6 104 13 189 14 191 1 1 51 11 111 21 60 10 185 35 277 55 93 20
181 36 196 36 65 0 95 64 46 96 -24 16 -32 15 -138 -5 -62 -12 -170 -35 -242
-51 -71 -15 -155 -31 -187 -35 l-56 -7 5 153 c3 116 1 160 -9 179 -16 31 -59
38 -79 14z"/>
</g>
</svg>
