<?xml version="1.0" standalone="no"?>
<!DOCTYPE svg PUBLIC "-//W3C//DTD SVG 20010904//EN"
 "http://www.w3.org/TR/2001/REC-SVG-20010904/DTD/svg10.dtd">
<svg version="1.0" xmlns="http://www.w3.org/2000/svg"
 width="248.000000pt" height="248.000000pt" viewBox="0 0 248.000000 248.000000"
 preserveAspectRatio="xMidYMid meet">
<metadata>
Created by potrace 1.10, written by Peter Selinger 2001-2011
</metadata>
<g transform="translate(0.000000,248.000000) scale(0.100000,-0.100000)"
fill="#000000" stroke="none">
<path d="M1169 2334 c-10 -13 -15 -61 -19 -188 l-5 -171 -40 -7 c-22 -4 -107
-10 -190 -13 -307 -12 -315 -13 -315 -60 0 -42 24 -50 159 -51 69 -1 180 4
246 10 l120 11 3 -65 c3 -64 -14 -319 -22 -328 -3 -2 -40 -8 -83 -13 -43 -6
-152 -21 -243 -35 -298 -46 -340 -59 -340 -109 0 -44 22 -50 123 -31 256 47
533 83 545 71 13 -12 10 -555 -3 -690 -15 -145 -8 -175 40 -175 36 0 52 34 60
125 3 44 8 103 10 130 2 28 4 74 5 103 0 66 2 67 192 82 162 12 302 36 336 56
31 20 29 59 -4 81 -22 14 -32 15 -67 5 -23 -7 -69 -17 -102 -22 -72 -11 -335
-33 -340 -28 -2 2 -7 82 -11 179 l-7 176 26 6 c23 6 198 24 452 47 55 5 152 9
215 10 88 0 121 4 138 16 30 21 29 59 -3 80 -21 14 -46 15 -177 9 -84 -3 -207
-13 -273 -20 -182 -21 -366 -37 -372 -32 -4 5 17 379 22 385 1 1 51 11 111 21
60 10 185 35 277 55 93 20 181 36 196 36 65 0 95 64 46 96 -24 16 -32 15 -138
-5 -62 -12 -170 -35 -242 -51 -71 -15 -155 -31 -187 -35 l-56 -7 5 153 c3 116
1 160 -9 179 -16 31 -59 38 -79 14z"/>
</g>
</svg>
