<?xml version="1.0" standalone="no"?>
<!DOCTYPE svg PUBLIC "-//W3C//DTD SVG 20010904//EN"
 "http://www.w3.org/TR/2001/REC-SVG-20010904/DTD/svg10.dtd">
<svg version="1.0" xmlns="http://www.w3.org/2000/svg"
 width="248.000000pt" height="248.000000pt" viewBox="0 0 248.000000 248.000000"
 preserveAspectRatio="xMidYMid meet">
<metadata>
Created by potrace 1.10, written by Peter Selinger 2001-2011
</metadata>
<g transform="translate(0.000000,248.000000) scale(0.100000,-0.100000)"
fill="#000000" stroke="none">
<path d="M1450 2279 c-74 -5 -174 -13 -221 -19 -47 -5 -102 -10 -122 -10 -35
0 -50 -13 -277 -242 -132 -133 -240 -248 -240 -254 0 -7 8 -22 18 -34 34 -42
61 -23 287 205 l213 215 68 9 c98 14 344 25 344 16 0 -16 -93 -145 -169 -235
-169 -198 -168 -196 -145 -229 30 -42 57 -27 155 82 122 135 219 266 263 354
39 78 43 100 24 125 -19 23 -48 25 -198 17z"/>
</g>
</svg>
