<?xml version="1.0" standalone="no"?>
<!DOCTYPE svg PUBLIC "-//W3C//DTD SVG 20010904//EN"
 "http://www.w3.org/TR/2001/REC-SVG-20010904/DTD/svg10.dtd">
<svg version="1.0" xmlns="http://www.w3.org/2000/svg"
 width="248.000000pt" height="248.000000pt" viewBox="0 0 248.000000 248.000000"
 preserveAspectRatio="xMidYMid meet">
<metadata>
Created by potrace 1.10, written by Peter Selinger 2001-2011
</metadata>
<g transform="translate(0.000000,248.000000) scale(0.100000,-0.100000)"
fill="#000000" stroke="none">
<path d="M652 2218 c-5 -7 -21 -35 -34 -63 -82 -170 -354 -558 -520 -742 -21
-24 -38 -51 -38 -61 0 -29 35 -55 64 -48 23 6 137 130 195 212 13 18 28 31 34
27 7 -4 8 -226 4 -693 -4 -519 -2 -693 7 -711 7 -14 22 -25 37 -27 54 -6 55 1
62 335 10 446 8 989 -3 1127 l-10 118 89 132 c171 253 217 356 179 394 -16 16
-53 15 -66 0z"/>
<path d="M1890 2193 c-38 -4 -147 -23 -305 -55 -55 -10 -148 -27 -207 -37 -59
-10 -114 -24 -123 -31 -24 -20 -18 -57 11 -76 29 -19 -7 -24 379 52 99 19 218
38 264 41 81 6 83 5 77 -14 -4 -12 -13 -54 -20 -94 -7 -41 -26 -122 -42 -181
-33 -121 -29 -141 24 -146 28 -3 34 1 46 30 35 81 84 294 103 444 8 61 -11 74
-100 72 -40 0 -88 -3 -107 -5z"/>
<path d="M711 1516 c-18 -21 -19 -1160 -1 -1181 7 -8 26 -15 41 -15 53 0 53 5
54 605 0 511 -1 553 -18 578 -19 30 -57 36 -76 13z"/>
</g>
</svg>
