<?xml version="1.0" standalone="no"?>
<!DOCTYPE svg PUBLIC "-//W3C//DTD SVG 20010904//EN"
 "http://www.w3.org/TR/2001/REC-SVG-20010904/DTD/svg10.dtd">
<svg version="1.0" xmlns="http://www.w3.org/2000/svg"
 width="248.000000pt" height="248.000000pt" viewBox="0 0 248.000000 248.000000"
 preserveAspectRatio="xMidYMid meet">
<metadata>
Created by potrace 1.10, written by Peter Selinger 2001-2011
</metadata>
<g transform="translate(0.000000,248.000000) scale(0.100000,-0.100000)"
fill="#000000" stroke="none">
<path d="M652 2218 c-5 -7 -21 -35 -34 -63 -82 -170 -354 -558 -520 -742 -21
-24 -38 -51 -38 -61 0 -29 35 -55 64 -48 23 6 137 130 195 212 13 18 28 31 34
27 7 -4 8 -226 4 -693 -4 -519 -2 -693 7 -711 7 -14 22 -25 37 -27 54 -6 55 1
62 335 10 446 8 989 -3 1127 l-10 118 89 132 c171 253 217 356 179 394 -16 16
-53 15 -66 0z"/>
</g>
</svg>
