<?xml version="1.0" standalone="no"?>
<!DOCTYPE svg PUBLIC "-//W3C//DTD SVG 20010904//EN"
 "http://www.w3.org/TR/2001/REC-SVG-20010904/DTD/svg10.dtd">
<svg version="1.0" xmlns="http://www.w3.org/2000/svg"
 width="248.000000pt" height="248.000000pt" viewBox="0 0 248.000000 248.000000"
 preserveAspectRatio="xMidYMid meet">
<metadata>
Created by potrace 1.10, written by Peter Selinger 2001-2011
</metadata>
<g transform="translate(0.000000,248.000000) scale(0.100000,-0.100000)"
fill="#000000" stroke="none">
<path d="M1795 2280 c-33 -4 -154 -19 -270 -34 -310 -39 -352 -47 -370 -65
-13 -15 -14 -57 -7 -335 7 -298 8 -318 26 -332 25 -18 37 -18 62 0 18 14 19
28 18 304 l-2 289 107 12 c58 7 135 16 171 21 93 13 323 40 338 40 9 0 12 -66
12 -297 0 -330 3 -348 55 -348 53 0 55 15 53 377 -3 313 -4 328 -23 348 -24
24 -86 31 -170 20z"/>
</g>
</svg>
