<?xml version="1.0" standalone="no"?>
<!DOCTYPE svg PUBLIC "-//W3C//DTD SVG 20010904//EN"
 "http://www.w3.org/TR/2001/REC-SVG-20010904/DTD/svg10.dtd">
<svg version="1.0" xmlns="http://www.w3.org/2000/svg"
 width="248.000000pt" height="248.000000pt" viewBox="0 0 248.000000 248.000000"
 preserveAspectRatio="xMidYMid meet">
<metadata>
Created by potrace 1.10, written by Peter Selinger 2001-2011
</metadata>
<g transform="translate(0.000000,248.000000) scale(0.100000,-0.100000)"
fill="#000000" stroke="none">
<path d="M1795 2280 c-33 -4 -154 -19 -270 -34 -297 -37 -348 -46 -369 -65
-17 -15 -18 -27 -12 -171 3 -85 6 -227 7 -315 l1 -159 -73 -14 c-80 -15 -105
-30 -113 -71 -5 -24 -19 -612 -20 -849 -1 -91 1 -105 18 -118 25 -18 37 -18
61 0 24 17 32 144 40 610 3 176 6 321 8 323 5 4 141 18 362 38 433 38 512 45
540 45 l31 0 -7 -72 c-4 -40 -8 -252 -8 -470 -1 -219 -5 -398 -9 -398 -5 0
-17 9 -26 19 -47 52 -116 47 -116 -9 0 -58 145 -158 206 -141 53 14 54 19 54
501 1 245 5 483 10 530 11 113 2 132 -67 144 l-52 10 -3 312 c-3 299 -4 314
-23 334 -24 24 -86 31 -170 20z m85 -200 c0 -116 16 -104 -155 -120 -234 -22
-262 -32 -250 -84 4 -17 9 -91 12 -165 3 -103 1 -136 -9 -142 -7 -5 -40 -9
-73 -9 -33 -1 -79 -5 -102 -9 l-43 -8 0 162 c0 89 -3 216 -6 282 l-7 120 109
12 c60 7 143 17 184 22 134 19 284 37 313 38 l27 1 0 -100z m0 -344 l0 -134
-57 -6 c-32 -3 -95 -8 -140 -12 l-83 -6 0 131 c0 72 1 131 3 132 6 1 235 27
255 28 22 1 22 0 22 -133z"/>
<path d="M242 1908 c-7 -7 -12 -21 -12 -32 0 -46 38 -63 258 -116 110 -26 142
-20 142 29 0 38 -11 45 -110 71 -47 12 -117 30 -157 41 -83 22 -105 23 -121 7z"/>
<path d="M1600 1230 c-36 -4 -122 -11 -193 -15 -178 -10 -168 4 -160 -218 5
-149 9 -182 24 -200 16 -21 31 -23 216 -33 197 -10 263 -6 291 21 7 6 17 49
22 96 5 46 16 124 23 172 16 104 13 128 -19 158 -28 26 -96 33 -204 19z m126
-127 c-10 -55 -17 -109 -20 -171 -3 -35 -6 -65 -8 -68 -4 -4 -330 15 -334 19
-1 1 -3 52 -5 112 l-4 110 125 7 c69 4 132 9 140 12 8 2 37 4 63 5 48 1 49 1
43 -26z"/>
</g>
</svg>
