<?xml version="1.0" standalone="no"?>
<!DOCTYPE svg PUBLIC "-//W3C//DTD SVG 20010904//EN"
 "http://www.w3.org/TR/2001/REC-SVG-20010904/DTD/svg10.dtd">
<svg version="1.0" xmlns="http://www.w3.org/2000/svg"
 width="248.000000pt" height="248.000000pt" viewBox="0 0 248.000000 248.000000"
 preserveAspectRatio="xMidYMid meet">
<metadata>
Created by potrace 1.10, written by Peter Selinger 2001-2011
</metadata>
<g transform="translate(0.000000,248.000000) scale(0.100000,-0.100000)"
fill="#000000" stroke="none">
<path d="M1795 2280 c-33 -4 -154 -19 -270 -34 -310 -39 -352 -47 -370 -65
-13 -15 -14 -57 -7 -335 7 -298 8 -318 26 -332 25 -18 37 -18 62 0 18 14 19
28 18 304 l-2 289 107 12 c58 7 135 16 171 21 93 13 323 40 338 40 9 0 12 -27
12 -100 0 -116 16 -104 -155 -120 -233 -22 -262 -31 -250 -84 4 -17 10 -94 13
-172 7 -150 15 -174 58 -174 44 0 54 32 54 176 l0 132 28 6 c15 2 59 7 97 11
39 3 89 8 113 12 l42 5 0 -143 c0 -165 9 -194 55 -194 53 0 55 15 53 377 -3
313 -4 328 -23 348 -24 24 -86 31 -170 20z"/>
</g>
</svg>
