<?xml version="1.0" standalone="no"?>
<!DOCTYPE svg PUBLIC "-//W3C//DTD SVG 20010904//EN"
 "http://www.w3.org/TR/2001/REC-SVG-20010904/DTD/svg10.dtd">
<svg version="1.0" xmlns="http://www.w3.org/2000/svg"
 width="248.000000pt" height="248.000000pt" viewBox="0 0 248.000000 248.000000"
 preserveAspectRatio="xMidYMid meet">
<metadata>
Created by potrace 1.10, written by Peter Selinger 2001-2011
</metadata>
<g transform="translate(0.000000,248.000000) scale(0.100000,-0.100000)"
fill="#000000" stroke="none">
<path d="M1738 2244 c-3 -2 -72 -8 -154 -13 -82 -6 -234 -22 -339 -36 -104
-15 -226 -29 -270 -32 -87 -6 -105 -14 -105 -48 0 -39 35 -59 102 -60 l61 0
-6 -155 c-7 -185 -27 -302 -108 -635 -63 -259 -118 -440 -163 -535 -52 -109
-128 -243 -181 -321 -30 -44 -55 -90 -55 -103 0 -52 67 -65 97 -19 10 16 37
54 61 87 39 55 91 150 167 306 46 93 109 291 155 480 22 89 41 165 44 167 4 4
57 -67 138 -184 95 -138 208 -289 232 -312 14 -14 26 -30 26 -37 0 -16 -114
-187 -170 -254 -89 -106 -176 -193 -250 -249 -76 -58 -94 -87 -70 -117 7 -7
24 -14 37 -14 79 0 326 241 469 459 46 69 58 81 69 70 7 -8 90 -102 185 -209
191 -215 246 -260 397 -329 98 -45 142 -53 168 -31 23 19 15 62 -15 76 -14 7
-64 30 -111 52 -157 72 -199 111 -508 467 -64 74 -70 88 -47 120 7 11 40 70
73 131 63 114 154 369 189 527 l18 78 -22 22 c-21 20 -34 22 -172 25 -83 2
-150 7 -150 11 0 3 17 40 39 81 160 312 191 369 214 404 27 38 34 79 19 103
-8 13 -58 34 -64 27z m-138 -246 c-38 -73 -100 -195 -139 -271 -39 -76 -71
-148 -71 -159 0 -12 7 -30 17 -40 14 -16 34 -18 180 -18 l164 0 -6 -37 c-10
-59 -104 -331 -137 -398 -17 -33 -46 -88 -65 -123 -35 -62 -36 -63 -55 -45
-28 24 -195 252 -278 378 -22 33 -61 87 -87 119 l-47 59 29 171 c16 100 30
228 33 309 4 117 7 137 21 137 9 0 68 7 131 16 97 14 199 23 351 32 27 2 26 1
-41 -130z"/>
<path d="M670 1734 c-69 -7 -177 -18 -240 -23 -63 -6 -133 -16 -155 -21 -22
-5 -64 -10 -92 -10 -67 0 -98 -26 -89 -72 17 -83 37 -250 50 -402 10 -119 18
-173 29 -183 21 -21 80 -32 129 -22 24 4 129 13 233 19 239 13 254 15 264 43
10 25 30 156 66 430 17 131 21 195 15 213 -9 23 -47 46 -73 43 -7 -1 -68 -8
-137 -15z m99 -156 c-4 -29 -14 -111 -23 -183 -9 -71 -22 -158 -27 -192 l-11
-62 -62 -5 c-33 -3 -108 -8 -165 -11 -56 -3 -128 -11 -158 -16 -30 -6 -57 -9
-59 -7 -2 3 -9 60 -14 129 -6 68 -18 167 -26 219 -7 52 -14 100 -14 107 0 14
116 39 230 49 47 4 112 10 145 14 33 4 90 8 126 8 l66 2 -8 -52z"/>
</g>
</svg>
