<?xml version="1.0" standalone="no"?>
<!DOCTYPE svg PUBLIC "-//W3C//DTD SVG 20010904//EN"
 "http://www.w3.org/TR/2001/REC-SVG-20010904/DTD/svg10.dtd">
<svg version="1.0" xmlns="http://www.w3.org/2000/svg"
 width="248.000000pt" height="248.000000pt" viewBox="0 0 248.000000 248.000000"
 preserveAspectRatio="xMidYMid meet">
<metadata>
Created by potrace 1.10, written by Peter Selinger 2001-2011
</metadata>
<g transform="translate(0.000000,248.000000) scale(0.100000,-0.100000)"
fill="#000000" stroke="none">
<path d="M1046 2118 c-10 -17 -15 -73 -19 -198 -7 -206 -23 -305 -108 -655
-63 -259 -118 -440 -163 -535 -52 -109 -128 -243 -181 -321 -30 -44 -55 -90
-55 -103 0 -52 67 -65 97 -19 10 16 37 54 61 87 39 55 91 150 167 306 74 152
205 634 261 960 32 182 40 453 15 483 -19 24 -58 21 -75 -5z"/>
<path d="M670 1734 c-69 -7 -177 -18 -240 -23 -63 -6 -133 -16 -155 -21 -22
-5 -64 -10 -92 -10 -67 0 -98 -26 -89 -72 17 -83 37 -250 50 -402 10 -119 18
-173 29 -183 21 -21 80 -32 129 -22 24 4 129 13 233 19 239 13 254 15 264 43
10 25 30 156 66 430 17 131 21 195 15 213 -9 23 -47 46 -73 43 -7 -1 -68 -8
-137 -15z m99 -156 c-4 -29 -14 -111 -23 -183 -9 -71 -22 -158 -27 -192 l-11
-62 -62 -5 c-33 -3 -108 -8 -165 -11 -56 -3 -128 -11 -158 -16 -30 -6 -57 -9
-59 -7 -2 3 -9 60 -14 129 -6 68 -18 167 -26 219 -7 52 -14 100 -14 107 0 14
116 39 230 49 47 4 112 10 145 14 33 4 90 8 126 8 l66 2 -8 -52z"/>
</g>
</svg>
