<?xml version="1.0" standalone="no"?>
<!DOCTYPE svg PUBLIC "-//W3C//DTD SVG 20010904//EN"
 "http://www.w3.org/TR/2001/REC-SVG-20010904/DTD/svg10.dtd">
<svg version="1.0" xmlns="http://www.w3.org/2000/svg"
 width="248.000000pt" height="248.000000pt" viewBox="0 0 248.000000 248.000000"
 preserveAspectRatio="xMidYMid meet">
<metadata>
Created by potrace 1.10, written by Peter Selinger 2001-2011
</metadata>
<g transform="translate(0.000000,248.000000) scale(0.100000,-0.100000)"
fill="#000000" stroke="none">
<path d="M1570 2189 c-69 -4 -183 -17 -255 -28 -220 -34 -367 -51 -435 -51
-43 0 -73 -5 -88 -16 -30 -21 -29 -59 3 -80 37 -24 140 -16 490 37 72 11 198
24 280 29 211 13 235 20 235 66 0 29 -36 54 -75 53 -16 -1 -86 -5 -155 -10z"/>
</g>
</svg>
