<?xml version="1.0" standalone="no"?>
<!DOCTYPE svg PUBLIC "-//W3C//DTD SVG 20010904//EN"
 "http://www.w3.org/TR/2001/REC-SVG-20010904/DTD/svg10.dtd">
<svg version="1.0" xmlns="http://www.w3.org/2000/svg"
 width="248.000000pt" height="248.000000pt" viewBox="0 0 248.000000 248.000000"
 preserveAspectRatio="xMidYMid meet">
<metadata>
Created by potrace 1.10, written by Peter Selinger 2001-2011
</metadata>
<g transform="translate(0.000000,248.000000) scale(0.100000,-0.100000)"
fill="#000000" stroke="none">
<path d="M1216 2388 c-12 -17 -16 -49 -16 -133 l0 -111 -132 -17 c-73 -10
-160 -17 -193 -17 -70 0 -105 -18 -105 -55 0 -45 38 -59 145 -51 52 3 116 10
142 15 26 5 71 11 98 12 l50 3 3 -86 3 -86 -28 -6 c-15 -3 -86 -9 -158 -12
-147 -7 -178 -18 -173 -62 5 -43 39 -54 153 -48 55 3 124 8 153 12 l52 7 0
-81 c0 -80 0 -80 -27 -86 -32 -6 -221 -28 -438 -52 -233 -25 -334 -41 -351
-55 -22 -18 -13 -62 16 -76 20 -9 65 -7 230 13 113 13 266 31 340 40 74 8 153
18 175 21 37 5 39 4 25 -12 -31 -38 -213 -150 -340 -210 -30 -14 -62 -33 -72
-42 -24 -21 -23 -56 2 -78 17 -15 47 -20 188 -26 92 -4 168 -8 170 -8 15 -5
-13 -31 -85 -78 -49 -31 -106 -68 -128 -83 -22 -15 -59 -37 -82 -49 -47 -24
-67 -52 -58 -81 15 -47 41 -48 295 -10 74 11 187 25 250 31 63 6 171 19 239
29 l124 17 56 -42 c31 -24 71 -57 90 -74 53 -47 101 -38 101 20 0 30 -27 60
-112 125 -60 47 -148 141 -148 160 0 17 -34 44 -56 44 -44 0 -57 -49 -29 -104
8 -15 15 -29 15 -31 0 -3 -131 -22 -240 -34 -219 -24 -284 -30 -287 -27 -2 1
41 33 94 69 322 220 413 294 413 338 0 14 -5 30 -12 37 -25 25 -60 12 -127
-46 -36 -33 -94 -78 -129 -102 l-63 -42 -52 15 c-29 9 -86 21 -127 28 l-75 12
35 16 c48 22 141 85 223 150 47 39 67 61 67 77 0 27 13 30 155 38 50 3 178 13
285 21 107 9 246 20 309 24 94 6 116 11 127 26 18 24 18 36 0 61 -19 25 -94
25 -386 1 -247 -21 -447 -36 -472 -37 -16 0 -18 11 -18 84 l0 83 46 7 c26 3
79 6 118 6 89 0 121 15 121 55 0 48 -30 57 -166 50 l-117 -6 -4 83 c-3 46 -2
86 1 90 6 7 109 18 339 37 62 5 119 14 127 21 23 19 18 57 -8 75 -20 13 -46
13 -183 5 -87 -6 -170 -12 -184 -14 -14 -3 -42 -7 -62 -11 l-38 -6 0 103 c0
115 -12 148 -55 148 -13 0 -31 -10 -39 -22z"/>
</g>
</svg>
