<?xml version="1.0" standalone="no"?>
<!DOCTYPE svg PUBLIC "-//W3C//DTD SVG 20010904//EN"
 "http://www.w3.org/TR/2001/REC-SVG-20010904/DTD/svg10.dtd">
<svg version="1.0" xmlns="http://www.w3.org/2000/svg"
 width="248.000000pt" height="248.000000pt" viewBox="0 0 248.000000 248.000000"
 preserveAspectRatio="xMidYMid meet">
<metadata>
Created by potrace 1.10, written by Peter Selinger 2001-2011
</metadata>
<g transform="translate(0.000000,248.000000) scale(0.100000,-0.100000)"
fill="#000000" stroke="none">
<path d="M1012 2358 c-7 -7 -12 -32 -12 -57 0 -53 -54 -224 -111 -353 -55
-124 -66 -164 -53 -186 14 -21 50 -27 69 -12 15 12 57 98 106 217 17 40 38 74
47 77 9 2 46 7 82 11 36 4 101 13 145 21 44 7 130 19 190 24 61 6 146 15 190
19 289 31 455 41 455 28 0 -9 -15 -27 -157 -185 -46 -51 -83 -99 -83 -107 0
-20 36 -55 57 -55 29 0 284 285 326 364 21 41 10 82 -27 96 -27 10 -311 -3
-446 -20 -78 -9 -181 -21 -360 -40 -58 -7 -143 -18 -189 -26 -74 -12 -161 -19
-161 -11 0 1 7 24 15 51 25 81 0 156 -50 156 -11 0 -26 -5 -33 -12z"/>
<path d="M342 2188 c-17 -17 -15 -53 6 -70 17 -16 190 -89 320 -136 83 -30
105 -25 110 25 4 37 -16 54 -93 81 -33 12 -109 41 -170 66 -113 47 -152 55
-173 34z"/>
<path d="M1302 1968 c-6 -7 -21 -44 -35 -83 -23 -67 -124 -231 -218 -355 -23
-30 -80 -91 -126 -135 -82 -80 -97 -107 -71 -133 24 -24 60 -12 122 38 33 27
81 75 106 106 25 31 59 73 75 93 32 40 77 106 143 211 72 116 102 219 72 255
-15 18 -54 20 -68 3z"/>
<path d="M668 1600 c-20 -11 -70 -50 -111 -87 -40 -38 -117 -101 -170 -142
-98 -74 -121 -106 -100 -140 22 -36 55 -24 168 61 60 46 136 108 170 138 33
31 77 68 98 83 41 31 48 64 19 90 -23 21 -28 21 -74 -3z"/>
</g>
</svg>
