<?xml version="1.0" standalone="no"?>
<!DOCTYPE svg PUBLIC "-//W3C//DTD SVG 20010904//EN"
 "http://www.w3.org/TR/2001/REC-SVG-20010904/DTD/svg10.dtd">
<svg version="1.0" xmlns="http://www.w3.org/2000/svg"
 width="248.000000pt" height="248.000000pt" viewBox="0 0 248.000000 248.000000"
 preserveAspectRatio="xMidYMid meet">
<metadata>
Created by potrace 1.10, written by Peter Selinger 2001-2011
</metadata>
<g transform="translate(0.000000,248.000000) scale(0.100000,-0.100000)"
fill="#000000" stroke="none">
<path d="M342 2188 c-17 -17 -15 -53 6 -70 17 -16 190 -89 320 -136 83 -30
105 -25 110 25 4 37 -16 54 -93 81 -33 12 -109 41 -170 66 -113 47 -152 55
-173 34z"/>
<path d="M668 1600 c-20 -11 -70 -50 -111 -87 -40 -38 -117 -101 -170 -142
-98 -74 -121 -106 -100 -140 22 -36 55 -24 168 61 60 46 136 108 170 138 33
31 77 68 98 83 41 31 48 64 19 90 -23 21 -28 21 -74 -3z"/>
</g>
</svg>
