<?xml version="1.0" standalone="no"?>
<!DOCTYPE svg PUBLIC "-//W3C//DTD SVG 20010904//EN"
 "http://www.w3.org/TR/2001/REC-SVG-20010904/DTD/svg10.dtd">
<svg version="1.0" xmlns="http://www.w3.org/2000/svg"
 width="248.000000pt" height="248.000000pt" viewBox="0 0 248.000000 248.000000"
 preserveAspectRatio="xMidYMid meet">
<metadata>
Created by potrace 1.10, written by Peter Selinger 2001-2011
</metadata>
<g transform="translate(0.000000,248.000000) scale(0.100000,-0.100000)"
fill="#000000" stroke="none">
<path d="M830 1865 c-36 -8 -141 -30 -235 -50 -93 -20 -226 -45 -295 -57 -69
-11 -136 -25 -150 -32 -36 -17 -39 -60 -6 -81 24 -16 34 -16 168 8 79 14 220
42 313 62 94 20 202 42 242 49 40 7 79 19 87 25 25 21 29 51 10 72 -20 22 -43
22 -134 4z"/>
</g>
</svg>
