<?xml version="1.0" standalone="no"?>
<!DOCTYPE svg PUBLIC "-//W3C//DTD SVG 20010904//EN"
 "http://www.w3.org/TR/2001/REC-SVG-20010904/DTD/svg10.dtd">
<svg version="1.0" xmlns="http://www.w3.org/2000/svg"
 width="248.000000pt" height="248.000000pt" viewBox="0 0 248.000000 248.000000"
 preserveAspectRatio="xMidYMid meet">
<metadata>
Created by potrace 1.10, written by Peter Selinger 2001-2011
</metadata>
<g transform="translate(0.000000,248.000000) scale(0.100000,-0.100000)"
fill="#000000" stroke="none">
<path d="M542 2358 c-5 -8 -13 -124 -17 -274 -4 -144 -10 -267 -14 -273 -10
-15 -93 -36 -226 -56 -60 -9 -121 -22 -135 -29 -36 -17 -39 -60 -6 -81 24 -16
34 -16 168 9 79 14 155 28 171 32 l27 6 0 -238 c0 -132 -3 -276 -6 -320 l-7
-82 -101 -31 c-55 -17 -124 -35 -153 -40 -29 -4 -59 -14 -68 -21 -23 -19 -18
-57 10 -76 30 -20 62 -16 191 22 49 14 97 29 107 31 16 5 17 -6 17 -134 0 -77
-3 -215 -7 -307 l-6 -167 -51 50 c-29 28 -59 51 -68 51 -22 0 -48 -27 -48 -50
0 -10 39 -64 86 -119 91 -108 115 -120 153 -82 29 29 41 149 49 496 l7 309 50
19 c78 30 80 32 80 67 0 46 -22 58 -81 42 -26 -7 -47 -11 -48 -10 -1 2 0 141
2 309 l4 305 147 28 c173 33 188 38 203 71 9 21 8 28 -7 45 -23 26 -33 25
-198 -9 -76 -15 -139 -26 -140 -22 -2 3 1 89 5 191 11 225 7 304 -17 330 -20
23 -58 26 -73 8z"/>
<path d="M1386 2258 c-7 -13 -16 -38 -20 -56 -6 -36 -35 -95 -121 -252 -109
-200 -170 -295 -252 -398 -49 -61 -83 -112 -83 -125 0 -52 56 -63 97 -19 32
34 132 158 155 191 l17 25 8 -30 c7 -24 6 -379 -1 -1222 -1 -122 1 -135 18
-148 25 -18 37 -18 61 0 18 13 21 34 28 213 8 169 10 939 4 1188 l-2 80 120
17 c66 10 156 22 200 28 44 6 92 14 108 16 l27 6 1 -484 c0 -579 17 -984 43
-1023 20 -30 62 -32 80 -3 7 12 6 100 -2 295 -10 230 -18 1233 -9 1233 1 0 69
9 151 20 161 21 189 33 184 78 -5 44 -25 47 -183 28 -81 -10 -149 -16 -151
-14 -2 3 1 63 8 134 13 148 5 186 -43 192 -40 5 -52 -20 -60 -131 -13 -165
-20 -218 -33 -222 -6 -1 -47 -8 -91 -14 -210 -29 -295 -41 -324 -47 -17 -4
-31 -4 -31 -2 0 2 27 54 61 114 116 207 145 296 110 338 -19 23 -58 20 -75 -6z"/>
</g>
</svg>
