<?xml version="1.0" standalone="no"?>
<!DOCTYPE svg PUBLIC "-//W3C//DTD SVG 20010904//EN"
 "http://www.w3.org/TR/2001/REC-SVG-20010904/DTD/svg10.dtd">
<svg version="1.0" xmlns="http://www.w3.org/2000/svg"
 width="248.000000pt" height="248.000000pt" viewBox="0 0 248.000000 248.000000"
 preserveAspectRatio="xMidYMid meet">
<metadata>
Created by potrace 1.10, written by Peter Selinger 2001-2011
</metadata>
<g transform="translate(0.000000,248.000000) scale(0.100000,-0.100000)"
fill="#000000" stroke="none">
<path d="M1375 2391 c-117 -64 -262 -140 -393 -206 -84 -43 -157 -86 -163 -97
-14 -27 13 -68 46 -68 34 0 547 262 593 303 24 22 29 56 10 75 -16 16 -56 13
-93 -7z"/>
<path d="M1645 1946 c-89 -17 -392 -58 -720 -100 -22 -3 -85 -12 -139 -20 -55
-9 -113 -16 -130 -16 -41 0 -76 -25 -76 -54 0 -48 48 -63 154 -46 39 6 112 17
161 25 50 8 144 21 210 30 177 23 481 64 551 75 33 6 76 10 95 10 44 0 79 24
79 54 0 50 -63 64 -185 42z"/>
</g>
</svg>
