<?xml version="1.0" standalone="no"?>
<!DOCTYPE svg PUBLIC "-//W3C//DTD SVG 20010904//EN"
 "http://www.w3.org/TR/2001/REC-SVG-20010904/DTD/svg10.dtd">
<svg version="1.0" xmlns="http://www.w3.org/2000/svg"
 width="248.000000pt" height="248.000000pt" viewBox="0 0 248.000000 248.000000"
 preserveAspectRatio="xMidYMid meet">
<metadata>
Created by potrace 1.10, written by Peter Selinger 2001-2011
</metadata>
<g transform="translate(0.000000,248.000000) scale(0.100000,-0.100000)"
fill="#000000" stroke="none">
<path d="M1375 2391 c-117 -64 -262 -140 -393 -206 -84 -43 -157 -86 -163 -97
-14 -27 13 -68 46 -68 34 0 547 262 593 303 24 22 29 56 10 75 -16 16 -56 13
-93 -7z"/>
<path d="M1645 1946 c-89 -17 -392 -58 -720 -100 -22 -3 -85 -12 -139 -20 -55
-9 -113 -16 -130 -16 -41 0 -76 -25 -76 -54 0 -28 18 -45 56 -52 16 -3 29 -6
30 -7 1 -1 14 -59 28 -128 27 -131 32 -184 18 -193 -5 -3 -92 -10 -193 -17
-124 -7 -191 -16 -207 -25 -30 -19 -29 -59 2 -80 22 -14 42 -14 168 -5 79 6
169 14 201 18 l57 6 0 -29 c0 -60 42 -280 59 -309 20 -35 61 -45 81 -20 12 14
11 32 -4 118 -24 131 -34 247 -23 254 5 3 160 18 345 34 496 42 671 59 696 64
11 3 81 9 154 14 142 9 172 20 172 66 0 42 -22 49 -143 42 -62 -4 -123 -9
-137 -12 -34 -6 -278 -29 -697 -65 -188 -16 -358 -32 -377 -35 -34 -7 -35 -6
-41 32 -12 73 -45 248 -51 271 -5 19 -2 22 21 22 15 0 64 7 109 15 44 8 135
22 201 30 169 22 479 64 551 75 33 6 76 10 95 10 44 0 79 24 79 54 0 50 -63
64 -185 42z"/>
</g>
</svg>
