<?xml version="1.0" standalone="no"?>
<!DOCTYPE svg PUBLIC "-//W3C//DTD SVG 20010904//EN"
 "http://www.w3.org/TR/2001/REC-SVG-20010904/DTD/svg10.dtd">
<svg version="1.0" xmlns="http://www.w3.org/2000/svg"
 width="248.000000pt" height="248.000000pt" viewBox="0 0 248.000000 248.000000"
 preserveAspectRatio="xMidYMid meet">
<metadata>
Created by potrace 1.10, written by Peter Selinger 2001-2011
</metadata>
<g transform="translate(0.000000,248.000000) scale(0.100000,-0.100000)"
fill="#000000" stroke="none">
<path d="M1116 2178 c-11 -15 -16 -45 -16 -94 0 -115 -78 -339 -161 -461 -27
-40 -58 -91 -69 -114 -20 -38 -20 -42 -5 -65 20 -31 59 -32 80 -1 89 126 127
191 169 290 109 252 127 467 41 467 -13 0 -31 -10 -39 -22z"/>
<path d="M450 1919 c-175 -24 -266 -41 -277 -52 -19 -19 -21 -801 -2 -823 11
-13 25 -15 69 -11 30 3 129 13 220 22 208 20 227 25 239 73 23 87 67 691 55
741 -6 22 -18 40 -34 48 -29 14 -170 15 -270 2z m195 -226 c-13 -245 -40 -502
-53 -514 -4 -3 -65 -11 -137 -18 -71 -7 -145 -15 -164 -18 -34 -6 -34 -6 -28
27 4 18 7 164 7 326 l0 293 43 5 c23 3 69 9 102 14 33 5 100 10 149 11 l88 1
-7 -127z"/>
</g>
</svg>
