<?xml version="1.0" standalone="no"?>
<!DOCTYPE svg PUBLIC "-//W3C//DTD SVG 20010904//EN"
 "http://www.w3.org/TR/2001/REC-SVG-20010904/DTD/svg10.dtd">
<svg version="1.0" xmlns="http://www.w3.org/2000/svg"
 width="248.000000pt" height="248.000000pt" viewBox="0 0 248.000000 248.000000"
 preserveAspectRatio="xMidYMid meet">
<metadata>
Created by potrace 1.10, written by Peter Selinger 2001-2011
</metadata>
<g transform="translate(0.000000,248.000000) scale(0.100000,-0.100000)"
fill="#000000" stroke="none">
<path d="M1116 2178 c-11 -15 -16 -45 -16 -94 0 -115 -78 -339 -161 -461 -27
-40 -58 -91 -69 -114 -20 -38 -20 -42 -5 -65 20 -31 59 -32 80 -1 84 118 136
208 165 280 12 31 25 59 29 61 3 2 69 9 146 15 178 15 614 58 724 71 46 6 86
9 89 6 5 -6 -59 -84 -179 -220 -38 -43 -72 -90 -76 -104 -8 -33 8 -56 41 -60
20 -3 34 5 59 34 17 20 65 74 105 118 120 132 192 238 192 281 0 32 -4 38 -37
52 -27 11 -54 14 -93 9 -30 -3 -120 -12 -200 -20 -80 -8 -212 -21 -295 -30
-194 -19 -386 -36 -418 -36 -25 0 -25 0 -10 42 8 23 17 79 20 124 5 68 3 88
-11 109 -21 32 -59 33 -80 3z"/>
<path d="M450 1919 c-175 -24 -266 -41 -277 -52 -19 -19 -21 -801 -2 -823 11
-13 25 -15 69 -11 30 3 129 13 220 22 208 20 227 25 239 73 23 87 67 691 55
741 -6 22 -18 40 -34 48 -29 14 -170 15 -270 2z m195 -226 c-13 -245 -40 -502
-53 -514 -4 -3 -65 -11 -137 -18 -71 -7 -145 -15 -164 -18 -34 -6 -34 -6 -28
27 4 18 7 164 7 326 l0 293 43 5 c23 3 69 9 102 14 33 5 100 10 149 11 l88 1
-7 -127z"/>
<path d="M1416 1588 c-9 -12 -16 -37 -16 -54 0 -62 -39 -229 -86 -370 -41
-121 -128 -309 -192 -414 -25 -41 -60 -98 -76 -125 -45 -73 -107 -146 -223
-262 -57 -56 -103 -106 -103 -110 0 -18 32 -53 49 -53 22 0 83 39 130 83 50
48 179 203 221 266 110 166 241 420 274 530 8 27 19 58 25 69 16 30 57 196 76
309 17 95 17 104 1 128 -21 32 -59 33 -80 3z"/>
</g>
</svg>
