<?xml version="1.0" standalone="no"?>
<!DOCTYPE svg PUBLIC "-//W3C//DTD SVG 20010904//EN"
 "http://www.w3.org/TR/2001/REC-SVG-20010904/DTD/svg10.dtd">
<svg version="1.0" xmlns="http://www.w3.org/2000/svg"
 width="248.000000pt" height="248.000000pt" viewBox="0 0 248.000000 248.000000"
 preserveAspectRatio="xMidYMid meet">
<metadata>
Created by potrace 1.10, written by Peter Selinger 2001-2011
</metadata>
<g transform="translate(0.000000,248.000000) scale(0.100000,-0.100000)"
fill="#000000" stroke="none">
<path d="M1406 2378 c-9 -12 -16 -32 -16 -43 0 -32 -36 -186 -51 -220 -7 -16
-27 -49 -43 -73 -25 -36 -28 -47 -20 -70 7 -19 17 -28 38 -30 39 -5 72 29 111
113 l33 71 88 11 c190 25 244 29 244 18 0 -21 -48 -152 -65 -178 -19 -29 -13
-62 14 -76 51 -28 91 25 141 185 l31 100 122 12 c67 7 136 12 154 12 75 0 116
51 75 92 -20 20 -24 21 -159 9 -76 -7 -196 -21 -268 -31 -157 -23 -345 -43
-350 -39 -2 2 1 28 6 57 8 44 7 58 -6 78 -20 31 -59 31 -79 2z"/>
<path d="M500 2346 c-6 -8 -33 -77 -60 -153 -55 -158 -88 -234 -138 -316 -30
-50 -34 -61 -24 -82 9 -19 19 -25 42 -25 37 0 76 49 131 168 25 55 46 85 61
91 26 11 193 34 252 35 l39 1 46 -90 c35 -67 53 -92 73 -99 34 -12 58 6 58 43
0 15 -15 59 -34 97 -19 38 -33 70 -32 71 5 6 150 33 220 42 83 10 116 29 116
66 0 54 -48 56 -290 11 -177 -33 -420 -65 -420 -55 0 2 9 33 20 67 23 73 25
113 8 130 -16 16 -53 15 -68 -2z"/>
<path d="M875 1765 c-88 -19 -200 -39 -249 -44 -52 -6 -95 -16 -104 -24 -11
-12 -15 -74 -17 -338 -3 -378 -20 -538 -81 -758 -17 -64 -99 -253 -126 -293
-22 -32 -23 -62 -2 -82 46 -46 91 8 187 224 23 52 63 200 87 321 10 52 14 57
42 63 17 3 43 6 58 6 15 0 50 6 76 14 27 8 90 19 139 26 50 6 100 13 112 16
19 5 22 1 27 -38 3 -23 7 -153 10 -287 3 -182 2 -241 -7 -232 -6 6 -24 11 -39
11 -39 0 -56 -41 -32 -79 65 -100 95 -131 125 -131 26 0 33 6 51 47 19 43 20
57 13 232 -4 102 -10 446 -14 763 -7 632 -3 603 -66 612 -17 2 -102 -11 -190
-29z m145 -263 l0 -189 -72 -13 c-40 -7 -117 -23 -171 -36 -54 -13 -111 -24
-128 -24 l-29 0 0 133 c0 72 -3 155 -6 183 l-6 51 203 40 c112 22 205 41 207
42 1 0 2 -84 2 -187z m0 -400 l0 -99 -77 -11 c-43 -7 -95 -12 -115 -12 -21 0
-57 -6 -80 -14 -24 -8 -69 -17 -101 -21 -54 -6 -58 -5 -54 12 3 10 9 53 13 96
6 70 8 77 28 77 11 0 89 16 171 34 83 19 165 35 183 35 l32 1 0 -98z"/>
<path d="M1695 1717 c-9 -15 -19 -71 -26 -152 -13 -149 -16 -155 -93 -155 -73
0 -217 -20 -246 -34 -18 -9 -25 -20 -25 -41 0 -46 37 -59 128 -46 40 6 100 12
135 15 l63 4 -7 -36 c-3 -21 -21 -100 -39 -177 -18 -77 -41 -178 -50 -225 -21
-106 -81 -286 -141 -422 -83 -190 -96 -227 -90 -253 9 -34 51 -44 76 -19 22
22 88 170 159 354 59 152 70 190 116 400 20 91 45 198 56 239 10 41 19 89 19
106 0 52 17 64 115 79 50 8 128 22 174 30 47 9 86 14 87 13 7 -7 -40 -525 -57
-632 -26 -165 -106 -445 -135 -474 -2 -3 -11 5 -20 17 -22 31 -71 30 -85 -2
-9 -19 -7 -36 11 -82 28 -77 35 -84 81 -84 31 0 43 6 65 33 66 83 155 364 188
595 37 248 72 698 57 716 -21 25 -74 26 -191 6 -177 -31 -243 -41 -248 -36 -2
3 0 58 6 123 8 98 7 122 -4 141 -19 29 -59 29 -79 -1z"/>
</g>
</svg>
