<?xml version="1.0" standalone="no"?>
<!DOCTYPE svg PUBLIC "-//W3C//DTD SVG 20010904//EN"
 "http://www.w3.org/TR/2001/REC-SVG-20010904/DTD/svg10.dtd">
<svg version="1.0" xmlns="http://www.w3.org/2000/svg"
 width="248.000000pt" height="248.000000pt" viewBox="0 0 248.000000 248.000000"
 preserveAspectRatio="xMidYMid meet">
<metadata>
Created by potrace 1.10, written by Peter Selinger 2001-2011
</metadata>
<g transform="translate(0.000000,248.000000) scale(0.100000,-0.100000)"
fill="#000000" stroke="none">
<path d="M500 2346 c-6 -8 -33 -77 -60 -153 -55 -158 -88 -234 -138 -316 -30
-50 -34 -61 -24 -82 9 -19 19 -25 42 -25 37 0 76 49 131 168 25 55 46 85 61
91 26 11 193 34 252 35 l39 1 46 -90 c35 -67 53 -92 73 -99 34 -12 58 6 58 43
0 15 -15 59 -34 97 -19 38 -33 70 -32 71 5 6 150 33 220 42 83 10 116 29 116
66 0 54 -48 56 -290 11 -177 -33 -420 -65 -420 -55 0 2 9 33 20 67 23 73 25
113 8 130 -16 16 -53 15 -68 -2z"/>
</g>
</svg>
