<?xml version="1.0" standalone="no"?>
<!DOCTYPE svg PUBLIC "-//W3C//DTD SVG 20010904//EN"
 "http://www.w3.org/TR/2001/REC-SVG-20010904/DTD/svg10.dtd">
<svg version="1.0" xmlns="http://www.w3.org/2000/svg"
 width="248.000000pt" height="248.000000pt" viewBox="0 0 248.000000 248.000000"
 preserveAspectRatio="xMidYMid meet">
<metadata>
Created by potrace 1.10, written by Peter Selinger 2001-2011
</metadata>
<g transform="translate(0.000000,248.000000) scale(0.100000,-0.100000)"
fill="#000000" stroke="none">
<path d="M1221 2301 c-16 -16 -19 -44 -25 -287 -4 -148 -7 -303 -6 -344 1 -41
1 -158 1 -259 l-1 -183 -68 72 c-62 65 -72 71 -103 68 -30 -3 -34 -7 -37 -35
-3 -28 6 -42 60 -101 35 -37 86 -94 114 -125 41 -46 56 -57 82 -57 63 0 62 -3
62 477 0 238 2 504 6 591 7 154 6 160 -15 181 -26 26 -45 27 -70 2z"/>
<path d="M1700 1926 c-26 -32 -7 -58 84 -113 50 -29 114 -73 144 -96 29 -23
81 -62 115 -86 91 -65 175 -139 189 -169 18 -36 61 -49 93 -28 43 28 33 63
-35 127 -67 65 -329 263 -438 333 -76 48 -128 59 -152 32z"/>
<path d="M681 1881 c-10 -10 -36 -50 -57 -87 -96 -174 -194 -303 -336 -446
-54 -54 -98 -104 -98 -111 0 -21 33 -47 59 -47 31 0 218 188 308 310 73 98
213 328 213 348 0 17 -37 52 -55 52 -8 0 -24 -9 -34 -19z"/>
<path d="M1668 1628 c-9 -7 -48 -87 -88 -178 -39 -90 -80 -180 -91 -200 -10
-19 -46 -92 -78 -161 -91 -193 -178 -315 -343 -479 -187 -188 -352 -322 -486
-396 -107 -59 -134 -82 -130 -112 5 -43 49 -52 101 -23 234 132 354 226 578
450 229 229 274 297 459 696 81 175 160 354 160 364 0 15 -37 51 -53 51 -7 0
-20 -6 -29 -12z"/>
</g>
</svg>
