<?xml version="1.0" standalone="no"?>
<!DOCTYPE svg PUBLIC "-//W3C//DTD SVG 20010904//EN"
 "http://www.w3.org/TR/2001/REC-SVG-20010904/DTD/svg10.dtd">
<svg version="1.0" xmlns="http://www.w3.org/2000/svg"
 width="248.000000pt" height="248.000000pt" viewBox="0 0 248.000000 248.000000"
 preserveAspectRatio="xMidYMid meet">
<metadata>
Created by potrace 1.10, written by Peter Selinger 2001-2011
</metadata>
<g transform="translate(0.000000,248.000000) scale(0.100000,-0.100000)"
fill="#000000" stroke="none">
<path d="M672 2288 c-5 -7 -31 -53 -57 -103 -26 -49 -73 -123 -105 -165 -31
-41 -62 -86 -69 -99 -16 -30 -99 -138 -112 -146 -5 -4 -31 -39 -58 -78 -27
-40 -81 -108 -120 -152 -39 -44 -74 -91 -77 -104 -9 -32 7 -55 40 -59 21 -3
37 8 81 55 30 32 81 93 112 135 l58 78 3 -48 c5 -61 -15 -515 -28 -657 -6 -60
-17 -256 -25 -435 -15 -361 -14 -375 40 -375 22 0 33 7 42 26 8 16 18 149 28
370 8 189 20 398 25 464 15 177 30 507 30 662 l0 136 37 56 c20 31 61 88 90
127 64 86 143 236 143 273 0 15 -5 32 -12 39 -16 16 -53 15 -66 0z"/>
<path d="M1596 2258 c-12 -17 -16 -50 -16 -145 0 -67 -4 -124 -9 -128 -6 -3
-91 -14 -191 -24 -100 -11 -187 -24 -195 -31 -23 -19 -18 -57 10 -76 23 -15
37 -15 183 0 86 9 165 19 175 22 17 6 18 1 12 -63 -4 -37 -9 -70 -11 -72 -2
-3 -48 -8 -102 -11 -53 -4 -137 -13 -187 -19 -49 -6 -136 -15 -192 -20 -56 -4
-109 -14 -118 -21 -23 -19 -18 -57 9 -75 27 -18 114 -15 306 10 58 8 144 17
192 21 l86 6 -4 -63 c-9 -115 4 -105 -145 -113 -153 -7 -184 -18 -184 -61 0
-47 27 -54 183 -48 l135 6 -6 -54 c-4 -30 -7 -66 -7 -81 l0 -28 -87 0 c-106 0
-138 -13 -138 -55 0 -42 32 -55 139 -55 76 0 87 -2 82 -16 -3 -9 -6 -42 -6
-75 l0 -59 -218 0 c-237 0 -262 -5 -262 -55 0 -49 26 -55 257 -55 l212 0 3
-215 c2 -118 1 -215 0 -215 -5 0 -114 60 -217 118 -44 25 -113 71 -153 101
-40 31 -87 66 -105 79 -92 65 -187 146 -187 159 0 7 6 24 14 36 38 59 124 321
132 402 6 52 4 62 -14 79 -25 22 -118 46 -182 46 -71 0 -76 9 -42 66 26 43 75
131 149 268 40 74 23 126 -40 126 -18 0 -72 -9 -121 -20 -50 -11 -104 -20
-120 -20 -50 0 -81 -21 -81 -55 0 -47 39 -61 129 -46 39 7 82 15 94 18 22 5
19 -3 -34 -103 -32 -60 -69 -125 -82 -144 -20 -29 -23 -43 -18 -79 12 -85 41
-104 179 -118 45 -4 71 -11 74 -20 10 -26 -84 -303 -119 -354 l-17 -24 -90 93
c-76 79 -94 93 -117 90 -34 -4 -49 -27 -40 -61 3 -14 51 -71 107 -126 l100
-100 -32 -68 c-81 -172 -143 -290 -170 -327 -36 -49 -37 -71 -4 -92 56 -36 92
8 214 259 l82 167 72 -58 c40 -32 88 -68 108 -80 19 -12 44 -31 55 -43 56 -63
447 -282 619 -347 58 -22 202 -61 311 -84 149 -31 358 -33 380 -4 18 25 18 37
0 62 -13 17 -31 20 -158 25 -197 8 -409 56 -558 126 -68 32 -73 36 -53 45 36
17 43 60 43 258 l0 188 118 5 c286 12 467 28 490 43 29 19 29 59 0 78 -19 12
-47 13 -173 5 -82 -5 -212 -12 -287 -16 l-138 -5 0 74 0 74 120 12 c138 13
160 21 160 61 0 49 -17 54 -150 46 l-120 -7 0 63 c0 35 4 69 8 75 4 7 50 15
102 18 130 10 272 34 288 50 7 7 28 73 46 147 l34 134 138 13 c77 7 150 19
164 25 36 18 39 61 6 82 -22 15 -36 15 -148 2 -68 -7 -126 -11 -130 -7 -4 3
-1 45 7 94 22 140 0 165 -129 146 -39 -5 -116 -17 -171 -25 -55 -8 -113 -15
-130 -15 l-30 0 3 116 c3 93 0 120 -13 140 -20 31 -59 31 -79 2z m446 -323 c7
-7 -20 -137 -30 -147 -8 -8 -141 -25 -264 -35 l-78 -6 0 49 c0 90 1 91 98 104
48 6 123 17 167 25 97 16 100 16 107 10z m-68 -357 c-13 -50 -25 -92 -26 -94
-6 -5 -200 -24 -253 -24 l-55 0 6 83 c4 45 9 84 11 87 6 7 237 37 294 39 l47
1 -24 -92z"/>
</g>
</svg>
