<?xml version="1.0" standalone="no"?>
<!DOCTYPE svg PUBLIC "-//W3C//DTD SVG 20010904//EN"
 "http://www.w3.org/TR/2001/REC-SVG-20010904/DTD/svg10.dtd">
<svg version="1.0" xmlns="http://www.w3.org/2000/svg"
 width="248.000000pt" height="248.000000pt" viewBox="0 0 248.000000 248.000000"
 preserveAspectRatio="xMidYMid meet">
<metadata>
Created by potrace 1.10, written by Peter Selinger 2001-2011
</metadata>
<g transform="translate(0.000000,248.000000) scale(0.100000,-0.100000)"
fill="#000000" stroke="none">
<path d="M672 2288 c-5 -7 -31 -53 -57 -103 -26 -49 -73 -123 -105 -165 -31
-41 -62 -86 -69 -99 -16 -30 -99 -138 -112 -146 -5 -4 -28 -34 -51 -68 -23
-34 -79 -105 -125 -158 -83 -97 -98 -130 -71 -157 37 -37 94 8 215 168 32 41
61 80 66 85 10 11 2 -332 -13 -545 -5 -69 -16 -267 -24 -440 -8 -173 -18 -351
-21 -395 -7 -98 6 -130 50 -130 22 0 33 7 42 25 8 17 18 149 27 365 9 187 20
401 26 475 17 212 30 502 30 654 l0 139 37 56 c20 31 61 88 90 127 64 86 143
236 143 273 0 15 -5 32 -12 39 -16 16 -53 15 -66 0z"/>
<path d="M2005 2040 c-163 -26 -567 -75 -762 -93 -53 -5 -75 -23 -71 -56 6
-56 52 -59 343 -21 39 5 131 16 205 25 74 8 162 19 195 25 33 5 76 12 96 15
l36 5 -12 -70 c-7 -39 -16 -75 -21 -80 -13 -11 -237 -37 -434 -50 -91 -6 -212
-17 -270 -25 -58 -8 -154 -17 -215 -20 -67 -4 -119 -13 -132 -21 -31 -19 -30
-59 1 -80 28 -17 99 -15 306 12 63 8 210 21 325 30 116 8 237 19 270 24 33 4
76 9 97 9 l36 1 -15 -57 c-36 -143 -29 -130 -76 -137 -23 -3 -175 -10 -339
-15 -329 -10 -353 -15 -353 -66 0 -51 18 -54 330 -44 287 8 457 26 482 52 8 7
29 74 47 148 l34 134 138 13 c162 15 189 25 189 67 0 47 -38 60 -133 46 -97
-13 -160 -17 -167 -10 -3 4 1 46 9 95 16 100 10 129 -29 144 -29 11 -38 11
-110 0z"/>
<path d="M1640 1199 c-69 -4 -165 -8 -215 -9 -105 -1 -138 -15 -133 -58 5 -48
34 -54 223 -47 193 7 339 21 365 35 24 13 31 45 13 69 -16 24 -30 24 -253 10z"/>
</g>
</svg>
