<?xml version="1.0" standalone="no"?>
<!DOCTYPE svg PUBLIC "-//W3C//DTD SVG 20010904//EN"
 "http://www.w3.org/TR/2001/REC-SVG-20010904/DTD/svg10.dtd">
<svg version="1.0" xmlns="http://www.w3.org/2000/svg"
 width="248.000000pt" height="248.000000pt" viewBox="0 0 248.000000 248.000000"
 preserveAspectRatio="xMidYMid meet">
<metadata>
Created by potrace 1.10, written by Peter Selinger 2001-2011
</metadata>
<g transform="translate(0.000000,248.000000) scale(0.100000,-0.100000)"
fill="#000000" stroke="none">
<path d="M1221 2301 c-16 -16 -19 -44 -25 -287 -4 -148 -7 -303 -6 -344 1 -41
1 -158 1 -259 l-1 -183 -68 72 c-62 65 -72 71 -103 68 -30 -3 -34 -7 -37 -35
-3 -28 6 -42 60 -101 35 -37 86 -94 114 -125 41 -46 56 -57 82 -57 63 0 62 -3
62 477 0 238 2 504 6 591 7 154 6 160 -15 181 -26 26 -45 27 -70 2z"/>
</g>
</svg>
