<?xml version="1.0" standalone="no"?>
<!DOCTYPE svg PUBLIC "-//W3C//DTD SVG 20010904//EN"
 "http://www.w3.org/TR/2001/REC-SVG-20010904/DTD/svg10.dtd">
<svg version="1.0" xmlns="http://www.w3.org/2000/svg"
 width="248.000000pt" height="248.000000pt" viewBox="0 0 248.000000 248.000000"
 preserveAspectRatio="xMidYMid meet">
<metadata>
Created by potrace 1.10, written by Peter Selinger 2001-2011
</metadata>
<g transform="translate(0.000000,248.000000) scale(0.100000,-0.100000)"
fill="#000000" stroke="none">
<path d="M672 2288 c-5 -7 -31 -53 -57 -103 -26 -49 -73 -123 -105 -165 -31
-41 -62 -86 -69 -99 -16 -30 -99 -138 -112 -146 -5 -4 -28 -34 -51 -68 -23
-34 -79 -106 -125 -159 -68 -78 -84 -103 -81 -124 4 -33 27 -49 59 -41 26 7
128 120 213 235 28 39 79 108 114 154 139 184 206 282 248 364 45 87 54 130
32 152 -16 16 -53 15 -66 0z"/>
</g>
</svg>
