<?xml version="1.0" standalone="no"?>
<!DOCTYPE svg PUBLIC "-//W3C//DTD SVG 20010904//EN"
 "http://www.w3.org/TR/2001/REC-SVG-20010904/DTD/svg10.dtd">
<svg version="1.0" xmlns="http://www.w3.org/2000/svg"
 width="248.000000pt" height="248.000000pt" viewBox="0 0 248.000000 248.000000"
 preserveAspectRatio="xMidYMid meet">
<metadata>
Created by potrace 1.10, written by Peter Selinger 2001-2011
</metadata>
<g transform="translate(0.000000,248.000000) scale(0.100000,-0.100000)"
fill="#000000" stroke="none">
<path d="M672 2288 c-5 -7 -31 -53 -57 -103 -26 -49 -73 -123 -105 -165 -31
-41 -62 -86 -69 -99 -16 -30 -99 -138 -112 -146 -5 -4 -28 -34 -51 -68 -23
-34 -79 -105 -125 -158 -83 -97 -98 -130 -71 -157 37 -37 94 8 215 168 32 41
61 80 66 85 10 11 2 -332 -13 -545 -5 -69 -16 -267 -24 -440 -8 -173 -18 -351
-21 -395 -7 -98 6 -130 50 -130 22 0 33 7 42 25 8 17 18 149 27 365 9 187 20
401 26 475 17 212 30 502 30 654 l0 139 37 56 c20 31 61 88 90 127 64 86 143
236 143 273 0 15 -5 32 -12 39 -16 16 -53 15 -66 0z"/>
</g>
</svg>
