<?xml version="1.0" standalone="no"?>
<!DOCTYPE svg PUBLIC "-//W3C//DTD SVG 20010904//EN"
 "http://www.w3.org/TR/2001/REC-SVG-20010904/DTD/svg10.dtd">
<svg version="1.0" xmlns="http://www.w3.org/2000/svg"
 width="248.000000pt" height="248.000000pt" viewBox="0 0 248.000000 248.000000"
 preserveAspectRatio="xMidYMid meet">
<metadata>
Created by potrace 1.10, written by Peter Selinger 2001-2011
</metadata>
<g transform="translate(0.000000,248.000000) scale(0.100000,-0.100000)"
fill="#000000" stroke="none">
<path d="M1509 2394 c-11 -13 -15 -77 -20 -296 -4 -215 -8 -281 -18 -288 -7
-4 -54 -11 -105 -14 -50 -4 -147 -14 -216 -21 -69 -8 -154 -16 -190 -19 -36
-3 -114 -11 -175 -16 -130 -12 -189 -17 -389 -30 -162 -10 -196 -21 -196 -65
0 -49 26 -54 230 -40 170 12 497 41 715 64 263 28 325 34 329 30 2 -2 2 -327
-1 -721 l-6 -717 -26 18 c-94 66 -159 76 -176 27 -11 -33 -11 -33 132 -126 98
-64 129 -72 159 -39 18 20 19 51 25 723 4 385 7 735 8 777 l1 75 193 18 c105
10 239 22 297 27 114 10 150 25 150 63 0 42 -22 49 -123 43 -79 -5 -279 -23
-463 -42 l-52 -5 5 268 c3 211 2 272 -9 292 -16 31 -59 38 -79 14z"/>
</g>
</svg>
