<?xml version="1.0" standalone="no"?>
<!DOCTYPE svg PUBLIC "-//W3C//DTD SVG 20010904//EN"
 "http://www.w3.org/TR/2001/REC-SVG-20010904/DTD/svg10.dtd">
<svg version="1.0" xmlns="http://www.w3.org/2000/svg"
 width="248.000000pt" height="248.000000pt" viewBox="0 0 248.000000 248.000000"
 preserveAspectRatio="xMidYMid meet">
<metadata>
Created by potrace 1.10, written by Peter Selinger 2001-2011
</metadata>
<g transform="translate(0.000000,248.000000) scale(0.100000,-0.100000)"
fill="#000000" stroke="none">
<path d="M2049 1866 c-2 -2 -85 -11 -184 -20 -99 -9 -268 -25 -375 -37 -346
-35 -474 -48 -535 -54 -33 -3 -109 -10 -170 -15 -130 -12 -190 -17 -389 -30
-162 -10 -196 -21 -196 -65 0 -49 26 -54 230 -40 166 12 453 37 720 65 52 5
142 14 200 20 58 6 143 15 190 20 79 9 276 28 535 51 118 10 155 25 155 62 0
38 -19 47 -100 47 -42 0 -79 -2 -81 -4z"/>
</g>
</svg>
