<?xml version="1.0" standalone="no"?>
<!DOCTYPE svg PUBLIC "-//W3C//DTD SVG 20010904//EN"
 "http://www.w3.org/TR/2001/REC-SVG-20010904/DTD/svg10.dtd">
<svg version="1.0" xmlns="http://www.w3.org/2000/svg"
 width="248.000000pt" height="248.000000pt" viewBox="0 0 248.000000 248.000000"
 preserveAspectRatio="xMidYMid meet">
<metadata>
Created by potrace 1.10, written by Peter Selinger 2001-2011
</metadata>
<g transform="translate(0.000000,248.000000) scale(0.100000,-0.100000)"
fill="#000000" stroke="none">
<path d="M1005 1949 c-125 -19 -304 -43 -440 -60 -280 -34 -290 -37 -290 -84
0 -44 36 -58 117 -46 160 25 209 31 243 31 47 0 48 5 -73 -239 -116 -235 -196
-380 -266 -486 -80 -121 -136 -211 -136 -219 0 -4 -23 -39 -50 -79 -53 -74
-61 -110 -29 -130 32 -20 65 1 116 75 27 40 56 87 65 103 22 42 86 147 98 159
7 7 10 -105 10 -325 0 -247 3 -338 12 -347 18 -18 53 -14 74 9 18 20 19 41 19
400 0 208 1 379 1 379 1 0 48 9 105 21 57 12 149 27 203 33 l99 12 -6 -392
c-8 -436 -7 -444 48 -444 24 0 35 6 43 25 16 35 28 840 13 878 -6 15 -21 31
-33 36 -24 9 -252 -17 -368 -42 -36 -8 -66 -11 -68 -7 -1 3 23 56 54 116 31
60 72 141 92 179 20 39 59 124 88 190 48 110 55 120 81 123 39 3 225 31 298
43 87 15 119 54 79 93 -19 20 -46 19 -199 -5z"/>
</g>
</svg>
