<?xml version="1.0" standalone="no"?>
<!DOCTYPE svg PUBLIC "-//W3C//DTD SVG 20010904//EN"
 "http://www.w3.org/TR/2001/REC-SVG-20010904/DTD/svg10.dtd">
<svg version="1.0" xmlns="http://www.w3.org/2000/svg"
 width="248.000000pt" height="248.000000pt" viewBox="0 0 248.000000 248.000000"
 preserveAspectRatio="xMidYMid meet">
<metadata>
Created by potrace 1.10, written by Peter Selinger 2001-2011
</metadata>
<g transform="translate(0.000000,248.000000) scale(0.100000,-0.100000)"
fill="#000000" stroke="none">
<path d="M1596 2218 c-14 -20 -16 -71 -16 -408 0 -212 -3 -469 -7 -572 l-6
-187 -39 34 c-53 48 -82 46 -101 -8 -5 -14 7 -34 46 -75 30 -31 62 -72 73 -90
21 -37 54 -50 89 -34 41 19 46 75 51 712 6 646 6 642 -48 648 -18 2 -31 -4
-42 -20z"/>
<path d="M1005 1949 c-125 -19 -304 -43 -440 -60 -280 -34 -290 -37 -290 -84
0 -44 36 -58 117 -46 160 25 209 31 243 31 47 0 48 5 -73 -239 -116 -235 -196
-380 -266 -486 -80 -121 -136 -211 -136 -219 0 -4 -23 -39 -50 -79 -53 -74
-61 -110 -29 -130 32 -20 65 1 116 75 27 40 56 87 65 103 22 42 86 147 98 159
7 7 10 -105 10 -326 0 -256 3 -338 13 -346 20 -17 151 -35 208 -29 30 3 108
10 174 17 156 15 189 24 203 55 16 35 28 840 13 878 -6 15 -21 31 -33 36 -24
9 -252 -17 -368 -42 -36 -8 -66 -11 -68 -7 -1 3 23 56 54 116 31 60 72 141 92
179 20 39 59 124 88 190 48 110 55 120 81 123 39 3 225 31 298 43 87 15 119
54 79 93 -19 20 -46 19 -199 -5z m-128 -1160 c-3 -204 -9 -374 -12 -378 -8 -7
-108 -17 -272 -27 l-112 -7 -3 354 c-2 195 -3 355 -2 356 1 6 216 46 304 58
52 7 97 13 99 14 2 0 1 -166 -2 -370z"/>
<path d="M1246 1688 c-9 -12 -16 -29 -16 -37 0 -20 -60 -203 -106 -321 -20
-52 -38 -107 -41 -123 -7 -35 12 -57 48 -57 33 0 52 24 75 95 9 27 36 104 59
170 24 66 51 149 60 183 15 58 15 66 0 88 -20 31 -59 31 -79 2z"/>
</g>
</svg>
