<?xml version="1.0" standalone="no"?>
<!DOCTYPE svg PUBLIC "-//W3C//DTD SVG 20010904//EN"
 "http://www.w3.org/TR/2001/REC-SVG-20010904/DTD/svg10.dtd">
<svg version="1.0" xmlns="http://www.w3.org/2000/svg"
 width="248.000000pt" height="248.000000pt" viewBox="0 0 248.000000 248.000000"
 preserveAspectRatio="xMidYMid meet">
<metadata>
Created by potrace 1.10, written by Peter Selinger 2001-2011
</metadata>
<g transform="translate(0.000000,248.000000) scale(0.100000,-0.100000)"
fill="#000000" stroke="none">
<path d="M1140 2240 c-11 -11 -20 -31 -20 -44 0 -35 -59 -184 -123 -313 -60
-119 -175 -278 -294 -405 -40 -42 -73 -85 -73 -95 0 -26 19 -43 50 -43 30 0
138 102 208 198 25 34 50 58 54 54 5 -5 12 -110 15 -233 6 -226 -2 -385 -33
-659 l-15 -135 21 -17 c27 -22 33 -22 59 -1 21 18 36 113 56 346 l7 77 31 0
c18 0 86 9 152 20 66 11 133 20 149 20 l29 0 -9 -107 c-10 -140 -10 -171 4
-185 14 -14 60 -14 75 1 9 9 23 151 26 273 1 31 -3 30 186 48 218 21 225 23
225 65 0 48 -53 57 -220 35 -41 -5 -99 -10 -128 -10 l-53 0 3 107 3 107 30 7
c17 4 86 17 155 29 163 28 170 31 170 73 0 57 -23 60 -195 26 -82 -16 -152
-26 -156 -22 -4 5 -10 63 -14 130 l-7 122 24 5 c12 3 48 8 78 11 70 8 306 54
336 65 28 11 41 54 24 75 -17 21 -37 19 -227 -15 -91 -16 -171 -30 -177 -30
-9 0 -7 25 6 88 24 111 21 221 -6 251 -21 23 -60 28 -73 9 -4 -7 -8 -58 -9
-113 -1 -117 -16 -190 -47 -227 -21 -25 -30 -28 -147 -38 -69 -6 -146 -13
-171 -15 -26 -2 -49 -1 -52 2 -3 3 10 37 30 76 45 89 119 280 127 329 5 30 3
41 -14 58 -25 25 -45 25 -70 0z m274 -582 c9 -71 10 -208 0 -218 -8 -7 -58
-15 -306 -45 -21 -2 -40 1 -46 8 -5 7 -12 64 -15 127 -3 63 -7 122 -9 130 -2
12 21 16 142 22 80 4 154 9 165 11 57 12 62 9 69 -35z m14 -383 c2 -27 1 -74
-3 -102 -5 -44 -10 -54 -28 -57 -12 -2 -89 -14 -170 -26 -116 -17 -151 -19
-162 -10 -11 9 -15 36 -15 106 0 107 5 113 87 115 26 0 89 6 138 14 50 7 104
12 120 11 29 -1 30 -3 33 -51z"/>
</g>
</svg>
