<?xml version="1.0" standalone="no"?>
<!DOCTYPE svg PUBLIC "-//W3C//DTD SVG 20010904//EN"
 "http://www.w3.org/TR/2001/REC-SVG-20010904/DTD/svg10.dtd">
<svg version="1.0" xmlns="http://www.w3.org/2000/svg"
 width="248.000000pt" height="248.000000pt" viewBox="0 0 248.000000 248.000000"
 preserveAspectRatio="xMidYMid meet">
<metadata>
Created by potrace 1.10, written by Peter Selinger 2001-2011
</metadata>
<g transform="translate(0.000000,248.000000) scale(0.100000,-0.100000)"
fill="#000000" stroke="none">
<path d="M1140 2240 c-11 -11 -20 -31 -20 -44 0 -35 -59 -184 -123 -313 -60
-119 -175 -278 -294 -405 -40 -42 -73 -85 -73 -95 0 -26 19 -43 50 -43 30 0
138 102 208 198 25 34 50 58 54 54 5 -5 12 -110 15 -233 6 -226 -2 -385 -33
-659 l-15 -135 21 -17 c27 -22 33 -22 59 -1 39 33 55 221 55 663 1 212 -1 403
-4 425 l-5 40 135 7 c74 3 158 9 187 13 l51 6 7 -53 c12 -101 10 -484 -4 -668
-18 -220 -18 -247 -3 -262 14 -14 60 -14 75 1 19 19 32 274 32 639 0 401 -12
355 95 367 70 8 306 54 336 65 28 11 41 54 24 75 -17 21 -37 19 -227 -15 -91
-16 -171 -30 -177 -30 -9 0 -7 25 6 88 24 111 21 221 -6 251 -21 23 -60 28
-73 9 -4 -7 -8 -58 -9 -113 -1 -117 -16 -190 -47 -227 -21 -25 -30 -28 -147
-38 -69 -6 -146 -13 -171 -15 -26 -2 -49 -1 -52 2 -3 3 10 37 30 76 45 89 119
280 127 329 5 30 3 41 -14 58 -25 25 -45 25 -70 0z"/>
</g>
</svg>
