<?xml version="1.0" standalone="no"?>
<!DOCTYPE svg PUBLIC "-//W3C//DTD SVG 20010904//EN"
 "http://www.w3.org/TR/2001/REC-SVG-20010904/DTD/svg10.dtd">
<svg version="1.0" xmlns="http://www.w3.org/2000/svg"
 width="248.000000pt" height="248.000000pt" viewBox="0 0 248.000000 248.000000"
 preserveAspectRatio="xMidYMid meet">
<metadata>
Created by potrace 1.10, written by Peter Selinger 2001-2011
</metadata>
<g transform="translate(0.000000,248.000000) scale(0.100000,-0.100000)"
fill="#000000" stroke="none">
<path d="M1140 2240 c-11 -11 -20 -31 -20 -44 0 -35 -59 -184 -123 -313 -60
-119 -175 -278 -294 -405 -40 -42 -73 -85 -73 -95 0 -26 19 -43 50 -43 30 0
138 102 208 198 32 43 49 59 56 52 7 -7 11 -116 11 -318 0 -286 -10 -433 -41
-665 -6 -40 -4 -47 19 -62 29 -19 61 -8 71 23 12 38 200 68 601 97 216 16 303
15 398 -6 26 -6 58 -8 72 -5 33 8 44 50 20 76 -31 34 -113 43 -362 38 l-233
-4 0 60 c0 34 3 91 6 128 8 78 -12 69 189 88 218 21 225 23 225 65 0 48 -53
57 -220 35 -41 -5 -99 -10 -128 -10 l-53 0 3 107 3 107 30 7 c17 4 86 17 155
29 163 28 170 31 170 73 0 57 -23 60 -195 26 -82 -16 -152 -26 -156 -22 -4 5
-10 63 -14 130 l-7 122 24 5 c12 3 48 8 78 11 70 8 306 54 336 65 28 11 41 54
24 75 -17 21 -37 19 -227 -15 -91 -16 -171 -30 -177 -30 -9 0 -7 25 6 88 24
111 21 221 -6 251 -21 23 -60 28 -73 9 -4 -7 -8 -58 -9 -113 -1 -117 -16 -190
-47 -227 -21 -25 -30 -28 -147 -38 -69 -6 -146 -13 -171 -15 -26 -2 -49 -1
-52 2 -3 3 10 37 30 76 45 89 119 280 127 329 5 30 3 41 -14 58 -25 25 -45 25
-70 0z m274 -582 c9 -71 10 -208 0 -218 -8 -7 -58 -15 -306 -45 -21 -2 -40 1
-46 8 -5 7 -12 64 -15 127 -3 63 -7 122 -9 130 -2 12 21 16 142 22 80 4 154 9
165 11 57 12 62 9 69 -35z m14 -383 c2 -27 1 -74 -3 -102 -5 -44 -10 -54 -28
-57 -12 -2 -89 -14 -170 -26 -116 -17 -151 -19 -162 -10 -11 9 -15 36 -15 106
0 107 5 113 87 115 26 0 89 6 138 14 50 7 104 12 120 11 29 -1 30 -3 33 -51z
m-22 -367 c-11 -155 -11 -156 -60 -162 -149 -19 -274 -37 -295 -42 l-24 -7 7
74 c3 41 9 102 12 137 l6 62 37 1 c20 0 83 9 141 19 58 9 123 18 144 19 l39 1
-7 -102z"/>
<path d="M232 2088 c-34 -34 11 -103 113 -174 58 -40 61 -44 44 -61 -15 -15
-8 -54 13 -66 18 -12 78 4 128 34 22 14 30 26 30 47 0 34 -17 51 -88 87 -30
14 -83 53 -118 86 -64 59 -97 72 -122 47z"/>
<path d="M425 1155 c-66 -12 -162 -29 -213 -38 -101 -17 -122 -27 -122 -62 0
-51 19 -53 236 -22 l91 13 -13 -33 c-8 -18 -17 -66 -21 -107 -5 -63 -2 -85 18
-141 13 -36 38 -84 57 -105 31 -37 32 -41 18 -62 -8 -13 -48 -41 -88 -63 -71
-38 -76 -39 -162 -38 -96 2 -116 -5 -116 -43 0 -32 33 -51 100 -58 30 -3 177
-26 325 -51 308 -52 658 -110 790 -131 247 -38 668 -57 795 -35 187 32 229 56
200 112 -13 23 -62 25 -140 5 -89 -23 -209 -36 -295 -32 -256 14 -323 19 -445
37 -196 28 -486 75 -710 115 -107 19 -207 34 -221 34 -41 0 -41 11 2 42 88 64
102 137 41 212 -84 101 -93 215 -25 314 20 29 44 57 55 63 12 6 18 21 18 43 0
25 -6 35 -25 44 -14 7 -27 12 -28 11 -1 -1 -56 -11 -122 -24z"/>
</g>
</svg>
