<?xml version="1.0" standalone="no"?>
<!DOCTYPE svg PUBLIC "-//W3C//DTD SVG 20010904//EN"
 "http://www.w3.org/TR/2001/REC-SVG-20010904/DTD/svg10.dtd">
<svg version="1.0" xmlns="http://www.w3.org/2000/svg"
 width="248.000000pt" height="248.000000pt" viewBox="0 0 248.000000 248.000000"
 preserveAspectRatio="xMidYMid meet">
<metadata>
Created by potrace 1.10, written by Peter Selinger 2001-2011
</metadata>
<g transform="translate(0.000000,248.000000) scale(0.100000,-0.100000)"
fill="#000000" stroke="none">
<path d="M292 2188 c-20 -20 -14 -58 14 -83 15 -14 60 -50 101 -82 41 -32 96
-75 121 -95 50 -40 62 -44 93 -28 32 18 24 61 -18 101 -33 31 -129 106 -227
177 -34 24 -66 28 -84 10z"/>
<path d="M152 1538 c-16 -16 -15 -50 1 -70 6 -9 37 -32 67 -51 30 -20 66 -45
80 -55 40 -31 107 -62 133 -62 48 0 65 56 25 85 -91 65 -257 165 -273 165 -12
0 -26 -5 -33 -12z"/>
<path d="M421 631 c-25 -25 -95 -173 -133 -281 -17 -47 -39 -102 -49 -122 -32
-63 -21 -108 27 -108 39 0 75 62 126 214 11 33 40 99 64 148 48 96 55 141 25
158 -28 14 -38 13 -60 -9z"/>
</g>
</svg>
