<?xml version="1.0" standalone="no"?>
<!DOCTYPE svg PUBLIC "-//W3C//DTD SVG 20010904//EN"
 "http://www.w3.org/TR/2001/REC-SVG-20010904/DTD/svg10.dtd">
<svg version="1.0" xmlns="http://www.w3.org/2000/svg"
 width="248.000000pt" height="248.000000pt" viewBox="0 0 248.000000 248.000000"
 preserveAspectRatio="xMidYMid meet">
<metadata>
Created by potrace 1.10, written by Peter Selinger 2001-2011
</metadata>
<g transform="translate(0.000000,248.000000) scale(0.100000,-0.100000)"
fill="#000000" stroke="none">
<path d="M1102 2418 c-7 -7 -12 -19 -12 -27 0 -51 -183 -342 -315 -501 -172
-206 -481 -501 -577 -551 -46 -23 -63 -51 -48 -78 27 -52 79 -34 215 77 302
242 601 591 756 879 24 46 47 83 50 83 4 0 37 -37 73 -82 300 -370 689 -704
1006 -863 95 -48 140 -45 140 11 0 27 -6 32 -115 89 -176 93 -372 236 -560
411 -114 105 -334 342 -424 455 -34 42 -72 84 -86 93 -29 19 -86 21 -103 4z"/>
<path d="M1122 1988 c-5 -7 -11 -69 -12 -138 -1 -69 -3 -147 -4 -175 -1 -45 1
-50 27 -59 56 -20 75 36 76 229 1 85 -3 116 -15 133 -17 24 -56 29 -72 10z"/>
</g>
</svg>
