<?xml version="1.0" standalone="no"?>
<!DOCTYPE svg PUBLIC "-//W3C//DTD SVG 20010904//EN"
 "http://www.w3.org/TR/2001/REC-SVG-20010904/DTD/svg10.dtd">
<svg version="1.0" xmlns="http://www.w3.org/2000/svg"
 width="248.000000pt" height="248.000000pt" viewBox="0 0 248.000000 248.000000"
 preserveAspectRatio="xMidYMid meet">
<metadata>
Created by potrace 1.10, written by Peter Selinger 2001-2011
</metadata>
<g transform="translate(0.000000,248.000000) scale(0.100000,-0.100000)"
fill="#000000" stroke="none">
<path d="M1115 2404 c-13 -14 -42 -62 -66 -107 -62 -121 -175 -288 -274 -407
-172 -206 -481 -501 -577 -551 -46 -23 -63 -51 -48 -78 30 -56 89 -30 265 117
242 202 533 536 657 755 18 31 57 98 86 147 28 49 52 94 52 100 0 15 -38 50
-55 50 -9 0 -27 -12 -40 -26z"/>
</g>
</svg>
