<?xml version="1.0" standalone="no"?>
<!DOCTYPE svg PUBLIC "-//W3C//DTD SVG 20010904//EN"
 "http://www.w3.org/TR/2001/REC-SVG-20010904/DTD/svg10.dtd">
<svg version="1.0" xmlns="http://www.w3.org/2000/svg"
 width="248.000000pt" height="248.000000pt" viewBox="0 0 248.000000 248.000000"
 preserveAspectRatio="xMidYMid meet">
<metadata>
Created by potrace 1.10, written by Peter Selinger 2001-2011
</metadata>
<g transform="translate(0.000000,248.000000) scale(0.100000,-0.100000)"
fill="#000000" stroke="none">
<path d="M1102 2418 c-7 -7 -12 -19 -12 -27 0 -51 -183 -342 -315 -501 -172
-206 -481 -501 -577 -551 -46 -23 -63 -51 -48 -78 27 -52 79 -34 215 77 302
242 601 591 756 879 24 46 47 83 50 83 4 0 37 -37 73 -82 300 -370 689 -704
1006 -863 95 -48 140 -45 140 11 0 27 -6 32 -115 89 -176 93 -372 236 -560
411 -114 105 -334 342 -424 455 -34 42 -72 84 -86 93 -29 19 -86 21 -103 4z"/>
<path d="M1120 1985 c-9 -10 -11 -34 -8 -73 6 -66 -7 -231 -19 -243 -4 -4 -82
-18 -173 -30 -91 -11 -171 -26 -177 -31 -16 -13 -17 -50 -1 -66 14 -14 108
-16 192 -3 204 32 604 72 610 62 2 -3 -3 -37 -10 -76 -23 -122 -66 -378 -71
-427 -6 -55 7 -78 43 -78 45 0 45 2 114 410 16 96 32 189 36 206 5 25 1 37
-16 54 -18 18 -29 20 -73 16 -29 -3 -90 -8 -137 -11 -47 -3 -117 -8 -156 -11
l-71 -6 5 136 c4 114 2 139 -12 161 -19 28 -57 33 -76 10z"/>
</g>
</svg>
