<?xml version="1.0" standalone="no"?>
<!DOCTYPE svg PUBLIC "-//W3C//DTD SVG 20010904//EN"
 "http://www.w3.org/TR/2001/REC-SVG-20010904/DTD/svg10.dtd">
<svg version="1.0" xmlns="http://www.w3.org/2000/svg"
 width="248.000000pt" height="248.000000pt" viewBox="0 0 248.000000 248.000000"
 preserveAspectRatio="xMidYMid meet">
<metadata>
Created by potrace 1.10, written by Peter Selinger 2001-2011
</metadata>
<g transform="translate(0.000000,248.000000) scale(0.100000,-0.100000)"
fill="#000000" stroke="none">
<path d="M1102 2418 c-7 -7 -12 -19 -12 -27 0 -51 -183 -342 -315 -501 -172
-206 -481 -501 -577 -551 -46 -23 -63 -51 -48 -78 27 -52 79 -34 215 77 302
242 601 591 756 879 24 46 47 83 50 83 4 0 37 -37 73 -82 300 -370 689 -704
1006 -863 95 -48 140 -45 140 11 0 27 -6 32 -115 89 -176 93 -372 236 -560
411 -114 105 -334 342 -424 455 -34 42 -72 84 -86 93 -29 19 -86 21 -103 4z"/>
<path d="M1120 1985 c-9 -10 -11 -34 -8 -73 6 -66 -7 -231 -19 -243 -4 -4 -82
-18 -173 -30 -91 -11 -171 -26 -177 -31 -18 -14 -16 -44 3 -74 14 -20 16 -41
10 -117 -3 -51 -9 -220 -11 -377 -6 -313 -29 -728 -47 -830 -16 -89 -14 -121
8 -137 27 -20 42 -16 77 21 18 19 70 58 117 89 101 64 166 120 205 176 24 36
26 45 17 66 -21 45 -59 34 -132 -40 -70 -71 -166 -142 -177 -132 -3 4 -1 82 6
174 6 93 12 213 12 268 1 55 4 127 8 160 l6 60 100 11 c489 55 552 66 585 101
27 30 27 31 90 403 16 96 32 189 36 206 5 25 1 37 -16 54 -18 18 -29 20 -73
16 -29 -3 -90 -8 -137 -11 -47 -3 -117 -8 -156 -11 l-71 -6 5 136 c4 114 2
139 -12 161 -19 28 -57 33 -76 10z m419 -427 c-5 -24 -12 -67 -15 -96 -8 -60
-3 -58 -134 -66 -47 -3 -177 -15 -290 -26 -113 -11 -215 -20 -228 -20 -22 0
-23 2 -20 88 l3 87 65 12 c139 24 604 74 621 66 4 -1 2 -22 -2 -45z m-49 -275
c0 -16 -7 -65 -16 -109 l-16 -82 -72 -11 c-39 -6 -118 -16 -176 -22 -58 -5
-146 -17 -196 -25 -50 -9 -108 -14 -130 -12 l-39 3 -3 99 c-2 61 1 103 8 111
6 8 39 16 73 19 34 4 139 13 232 22 94 8 202 19 240 23 39 5 76 9 83 10 7 0
12 -10 12 -26z"/>
<path d="M1633 998 c-22 -24 -72 -84 -112 -135 -68 -87 -148 -157 -244 -213
-50 -30 -61 -24 -185 94 -70 68 -107 96 -124 96 -29 0 -48 -17 -48 -43 0 -42
195 -225 345 -323 39 -25 82 -55 97 -65 67 -47 382 -215 469 -250 117 -47 250
-79 329 -79 49 0 61 3 70 20 24 44 -21 80 -100 80 -42 0 -208 48 -291 85 -83
36 -321 166 -404 220 -27 18 -65 41 -84 53 l-34 20 31 16 c77 40 185 140 286
268 103 128 119 161 94 186 -22 22 -54 12 -95 -30z"/>
</g>
</svg>
