<?xml version="1.0" standalone="no"?>
<!DOCTYPE svg PUBLIC "-//W3C//DTD SVG 20010904//EN"
 "http://www.w3.org/TR/2001/REC-SVG-20010904/DTD/svg10.dtd">
<svg version="1.0" xmlns="http://www.w3.org/2000/svg"
 width="248.000000pt" height="248.000000pt" viewBox="0 0 248.000000 248.000000"
 preserveAspectRatio="xMidYMid meet">
<metadata>
Created by potrace 1.10, written by Peter Selinger 2001-2011
</metadata>
<g transform="translate(0.000000,248.000000) scale(0.100000,-0.100000)"
fill="#000000" stroke="none">
<path d="M795 2349 c-22 -23 -96 -86 -165 -141 -153 -122 -230 -189 -337 -294
-112 -109 -112 -115 5 -227 48 -46 104 -99 125 -118 l39 -35 -107 -119 c-59
-66 -115 -131 -123 -145 -9 -14 -33 -44 -54 -67 -43 -48 -49 -84 -18 -106 25
-17 59 -12 242 37 126 34 126 34 132 12 9 -34 5 -370 -8 -666 -14 -307 -12
-325 39 -325 53 0 57 24 72 380 8 176 12 399 9 496 l-5 177 107 37 c59 21 120
45 136 52 28 15 29 14 100 -56 70 -70 99 -84 124 -59 7 7 12 25 12 41 0 23
-25 53 -140 168 -77 76 -148 139 -158 139 -47 0 -56 -62 -16 -110 15 -17 25
-32 23 -34 -22 -18 -499 -170 -499 -159 0 3 42 51 93 107 159 178 356 409 430
507 42 56 33 109 -19 109 -23 0 -44 -23 -218 -234 -43 -53 -82 -96 -86 -96 -8
0 -193 169 -198 180 -5 12 191 189 333 302 182 144 235 197 235 234 0 66 -49
72 -105 13z"/>
<path d="M1770 2368 c-30 -5 -84 -7 -119 -5 -72 5 -64 11 -143 -98 -28 -38
-123 -141 -210 -229 -87 -87 -158 -167 -158 -177 0 -23 26 -49 51 -49 34 0
264 223 389 379 51 63 49 62 248 77 73 5 92 4 92 -6 0 -21 -107 -199 -166
-275 -30 -38 -79 -98 -109 -133 -55 -62 -67 -96 -43 -120 27 -27 59 -13 123
56 113 120 223 284 305 454 39 80 36 110 -11 127 -38 13 -172 13 -249 -1z"/>
<path d="M270 815 c-6 -8 -15 -43 -20 -77 -4 -35 -24 -130 -45 -211 -34 -139
-35 -150 -20 -173 17 -27 56 -32 74 -10 14 17 88 308 97 383 5 40 3 58 -10 78
-18 28 -57 33 -76 10z"/>
<path d="M752 808 c-24 -24 -13 -64 39 -134 101 -138 168 -192 208 -167 33 20
25 57 -23 107 -25 25 -71 81 -103 124 -60 79 -93 98 -121 70z"/>
</g>
</svg>
