<?xml version="1.0" standalone="no"?>
<!DOCTYPE svg PUBLIC "-//W3C//DTD SVG 20010904//EN"
 "http://www.w3.org/TR/2001/REC-SVG-20010904/DTD/svg10.dtd">
<svg version="1.0" xmlns="http://www.w3.org/2000/svg"
 width="248.000000pt" height="248.000000pt" viewBox="0 0 248.000000 248.000000"
 preserveAspectRatio="xMidYMid meet">
<metadata>
Created by potrace 1.10, written by Peter Selinger 2001-2011
</metadata>
<g transform="translate(0.000000,248.000000) scale(0.100000,-0.100000)"
fill="#000000" stroke="none">
<path d="M650 2090 c-11 -11 -20 -32 -20 -46 0 -58 -110 -379 -206 -603 -77
-178 -207 -378 -298 -458 -52 -45 -46 -103 10 -103 45 0 153 114 244 256 l30
48 2 -449 c3 -490 1 -476 61 -461 46 11 49 41 45 541 -2 356 -6 465 -16 483
-12 21 -6 42 62 211 72 180 176 500 176 541 0 24 -34 60 -55 60 -8 0 -24 -9
-35 -20z"/>
<path d="M2099 1666 c-3 -3 -85 -22 -454 -102 -97 -22 -302 -75 -553 -145
-117 -33 -263 -71 -324 -84 -124 -28 -158 -45 -158 -78 0 -30 18 -47 50 -47
40 0 237 45 369 85 64 19 168 48 231 64 63 16 167 43 230 60 63 17 178 44 255
61 161 34 270 58 303 65 16 4 22 1 22 -12 0 -34 -90 -286 -136 -382 -25 -53
-51 -106 -56 -118 -9 -17 -17 -21 -39 -16 -66 13 -78 -46 -23 -107 59 -66 107
-47 148 57 10 26 40 93 67 148 26 55 63 148 82 205 89 263 100 313 75 338 -11
11 -79 17 -89 8z"/>
</g>
</svg>
