<?xml version="1.0" standalone="no"?>
<!DOCTYPE svg PUBLIC "-//W3C//DTD SVG 20010904//EN"
 "http://www.w3.org/TR/2001/REC-SVG-20010904/DTD/svg10.dtd">
<svg version="1.0" xmlns="http://www.w3.org/2000/svg"
 width="248.000000pt" height="248.000000pt" viewBox="0 0 248.000000 248.000000"
 preserveAspectRatio="xMidYMid meet">
<metadata>
Created by potrace 1.10, written by Peter Selinger 2001-2011
</metadata>
<g transform="translate(0.000000,248.000000) scale(0.100000,-0.100000)"
fill="#000000" stroke="none">
<path d="M1476 2177 c-13 -19 -19 -86 -30 -336 -9 -203 -18 -317 -26 -326 -6
-7 -44 -21 -83 -30 -40 -9 -119 -29 -176 -46 -57 -16 -106 -27 -109 -25 -2 3
1 69 6 148 12 159 5 188 -43 188 -43 0 -53 -32 -64 -204 -5 -88 -14 -163 -19
-168 -4 -4 -69 -22 -142 -38 -147 -34 -180 -49 -180 -83 0 -54 29 -58 190 -22
62 14 117 25 122 25 5 0 6 -119 2 -278 -8 -313 0 -380 58 -467 39 -59 120
-130 183 -159 131 -62 540 -96 785 -65 108 13 279 53 348 80 77 31 92 55 92
148 0 90 -15 121 -60 121 -39 0 -45 -13 -45 -95 l0 -70 -55 -18 c-30 -10 -109
-30 -175 -44 -115 -24 -131 -25 -385 -20 -358 6 -454 27 -552 120 -84 81 -83
78 -82 449 0 180 3 330 6 334 7 7 152 47 282 79 l99 23 -8 -146 c-18 -343 -21
-507 -10 -532 15 -36 59 -39 81 -5 14 22 18 66 25 278 4 139 11 294 15 345 l7
92 38 10 c20 6 100 24 176 40 162 35 269 58 301 65 16 4 22 1 22 -12 0 -34
-90 -286 -136 -382 -25 -53 -51 -106 -56 -118 -9 -17 -17 -21 -39 -16 -66 13
-78 -46 -23 -107 59 -66 107 -47 148 57 10 26 40 93 67 148 26 55 63 148 82
205 91 269 101 316 72 340 -23 19 -25 19 -554 -100 -46 -11 -88 -17 -92 -15
-4 3 -5 13 -3 23 3 9 11 143 18 297 14 306 12 328 -36 333 -19 2 -31 -3 -42
-21z"/>
<path d="M650 2090 c-11 -11 -20 -32 -20 -46 0 -58 -110 -379 -206 -603 -77
-178 -207 -378 -298 -458 -52 -45 -46 -103 10 -103 45 0 153 114 244 256 l30
48 2 -449 c3 -490 1 -476 61 -461 46 11 49 41 45 541 -2 356 -6 465 -16 483
-12 21 -6 42 62 211 72 180 176 500 176 541 0 24 -34 60 -55 60 -8 0 -24 -9
-35 -20z"/>
</g>
</svg>
