<?xml version="1.0" standalone="no"?>
<!DOCTYPE svg PUBLIC "-//W3C//DTD SVG 20010904//EN"
 "http://www.w3.org/TR/2001/REC-SVG-20010904/DTD/svg10.dtd">
<svg version="1.0" xmlns="http://www.w3.org/2000/svg"
 width="248.000000pt" height="248.000000pt" viewBox="0 0 248.000000 248.000000"
 preserveAspectRatio="xMidYMid meet">
<metadata>
Created by potrace 1.10, written by Peter Selinger 2001-2011
</metadata>
<g transform="translate(0.000000,248.000000) scale(0.100000,-0.100000)"
fill="#000000" stroke="none">
<path d="M1390 2299 c-74 -4 -187 -10 -250 -13 -91 -5 -117 -9 -125 -22 -33
-54 -121 -151 -287 -317 -103 -103 -188 -195 -188 -205 1 -48 48 -59 98 -23
17 11 35 21 41 21 6 0 39 -16 73 -35 35 -19 97 -48 137 -65 41 -17 83 -38 92
-46 10 -9 49 -32 88 -53 l72 -37 -98 -95 c-111 -107 -271 -226 -359 -265 -95
-43 -115 -72 -76 -107 26 -24 44 -21 125 17 179 83 428 301 624 546 202 253
386 562 387 649 0 65 -20 68 -354 50z m220 -123 c-22 -58 -68 -137 -150 -260
-83 -124 -232 -317 -250 -324 -11 -4 -116 49 -174 88 -25 17 -72 42 -103 55
-85 35 -160 73 -167 84 -4 5 42 58 101 118 60 59 131 136 158 170 35 44 59 64
80 68 38 7 299 22 422 24 l93 1 -10 -24z"/>
<path d="M1610 1541 c-41 -3 -80 -9 -87 -14 -6 -4 -50 -63 -98 -130 -111 -160
-203 -259 -347 -374 -120 -95 -137 -120 -106 -151 27 -27 81 -8 149 55 25 23
29 24 55 10 16 -9 67 -46 114 -84 47 -37 114 -90 150 -117 36 -27 93 -74 127
-104 l62 -55 -56 -51 c-115 -105 -210 -168 -368 -246 -88 -43 -197 -91 -243
-106 -64 -20 -86 -32 -94 -50 -9 -19 -8 -28 7 -44 37 -41 114 -20 360 100 195
94 290 159 431 293 209 197 448 607 539 926 28 98 24 134 -17 144 -30 7 -481
5 -578 -2z m495 -123 c-26 -84 -102 -275 -134 -333 -118 -216 -178 -311 -244
-388 l-32 -39 -60 53 c-33 29 -85 71 -115 93 -124 92 -270 210 -270 219 0 5
42 53 93 106 50 53 121 138 156 190 43 63 74 97 95 107 23 10 92 13 274 14
l243 0 -6 -22z"/>
</g>
</svg>
