<?xml version="1.0" standalone="no"?>
<!DOCTYPE svg PUBLIC "-//W3C//DTD SVG 20010904//EN"
 "http://www.w3.org/TR/2001/REC-SVG-20010904/DTD/svg10.dtd">
<svg version="1.0" xmlns="http://www.w3.org/2000/svg"
 width="248.000000pt" height="248.000000pt" viewBox="0 0 248.000000 248.000000"
 preserveAspectRatio="xMidYMid meet">
<metadata>
Created by potrace 1.10, written by Peter Selinger 2001-2011
</metadata>
<g transform="translate(0.000000,248.000000) scale(0.100000,-0.100000)"
fill="#000000" stroke="none">
<path d="M1858 2175 c-9 -9 -242 -52 -398 -74 -170 -24 -631 -61 -763 -61 -98
0 -117 -7 -117 -45 0 -41 16 -45 187 -45 308 0 749 45 1030 105 117 26 143 39
143 75 0 32 -61 65 -82 45z"/>
<path d="M532 1638 c-16 -16 -15 -43 2 -76 8 -15 17 -50 21 -77 22 -157 46
-290 54 -298 14 -14 62 -11 72 4 13 21 11 68 -11 212 -28 181 -28 184 -57 217
-26 31 -60 39 -81 18z"/>
</g>
</svg>
