<?xml version="1.0" standalone="no"?>
<!DOCTYPE svg PUBLIC "-//W3C//DTD SVG 20010904//EN"
 "http://www.w3.org/TR/2001/REC-SVG-20010904/DTD/svg10.dtd">
<svg version="1.0" xmlns="http://www.w3.org/2000/svg"
 width="248.000000pt" height="248.000000pt" viewBox="0 0 248.000000 248.000000"
 preserveAspectRatio="xMidYMid meet">
<metadata>
Created by potrace 1.10, written by Peter Selinger 2001-2011
</metadata>
<g transform="translate(0.000000,248.000000) scale(0.100000,-0.100000)"
fill="#000000" stroke="none">
<path d="M1858 2175 c-9 -9 -242 -52 -398 -74 -170 -24 -631 -61 -763 -61 -98
0 -117 -7 -117 -45 0 -41 16 -45 187 -45 308 0 749 45 1030 105 117 26 143 39
143 75 0 32 -61 65 -82 45z"/>
<path d="M1540 1769 c-107 -4 -256 -14 -330 -23 -166 -20 -627 -84 -657 -91
-39 -9 -46 -39 -23 -89 11 -25 24 -77 30 -116 23 -162 40 -254 49 -263 14 -14
62 -11 72 4 13 21 11 61 -13 221 -12 81 -20 150 -17 152 6 6 483 72 664 92
148 16 554 34 560 24 1 -3 -22 -84 -51 -180 -56 -183 -62 -218 -42 -238 19
-19 56 -14 72 11 16 24 124 375 133 433 4 25 1 40 -12 54 -20 22 -58 23 -435
9z"/>
</g>
</svg>
