<?xml version="1.0" standalone="no"?>
<!DOCTYPE svg PUBLIC "-//W3C//DTD SVG 20010904//EN"
 "http://www.w3.org/TR/2001/REC-SVG-20010904/DTD/svg10.dtd">
<svg version="1.0" xmlns="http://www.w3.org/2000/svg"
 width="248.000000pt" height="248.000000pt" viewBox="0 0 248.000000 248.000000"
 preserveAspectRatio="xMidYMid meet">
<metadata>
Created by potrace 1.10, written by Peter Selinger 2001-2011
</metadata>
<g transform="translate(0.000000,248.000000) scale(0.100000,-0.100000)"
fill="#000000" stroke="none">
<path d="M1875 2054 c-186 -38 -961 -104 -1215 -104 -88 0 -121 -4 -138 -16
-24 -17 -29 -56 -9 -71 21 -17 188 -24 308 -13 63 5 186 14 274 20 186 11 489
37 525 45 14 3 96 14 183 24 167 19 197 31 197 76 0 44 -39 56 -125 39z"/>
</g>
</svg>
