<?xml version="1.0" standalone="no"?>
<!DOCTYPE svg PUBLIC "-//W3C//DTD SVG 20010904//EN"
 "http://www.w3.org/TR/2001/REC-SVG-20010904/DTD/svg10.dtd">
<svg version="1.0" xmlns="http://www.w3.org/2000/svg"
 width="248.000000pt" height="248.000000pt" viewBox="0 0 248.000000 248.000000"
 preserveAspectRatio="xMidYMid meet">
<metadata>
Created by potrace 1.10, written by Peter Selinger 2001-2011
</metadata>
<g transform="translate(0.000000,248.000000) scale(0.100000,-0.100000)"
fill="#000000" stroke="none">
<path d="M1875 2054 c-186 -38 -961 -104 -1215 -104 -88 0 -121 -4 -138 -16
-24 -17 -29 -56 -9 -71 24 -20 191 -23 372 -8 99 8 202 15 228 15 l48 0 -2
-242 c-1 -134 -6 -286 -11 -338 -5 -52 -9 -102 -9 -110 0 -8 -4 -85 -9 -170
-5 -85 -12 -215 -15 -289 -4 -73 -11 -144 -16 -158 -20 -54 -2 -93 44 -93 56
0 72 71 82 365 3 94 8 196 11 228 l6 57 76 0 c81 0 415 32 517 50 71 12 101
36 91 74 -8 34 -40 41 -121 27 -118 -21 -338 -41 -449 -41 l-109 0 7 68 c4 37
9 182 12 322 5 227 7 256 22 261 9 3 64 9 122 13 58 4 137 12 175 17 39 6 139
18 223 28 162 19 192 31 192 76 0 44 -39 56 -125 39z"/>
</g>
</svg>
