<?xml version="1.0" standalone="no"?>
<!DOCTYPE svg PUBLIC "-//W3C//DTD SVG 20010904//EN"
 "http://www.w3.org/TR/2001/REC-SVG-20010904/DTD/svg10.dtd">
<svg version="1.0" xmlns="http://www.w3.org/2000/svg"
 width="248.000000pt" height="248.000000pt" viewBox="0 0 248.000000 248.000000"
 preserveAspectRatio="xMidYMid meet">
<metadata>
Created by potrace 1.10, written by Peter Selinger 2001-2011
</metadata>
<g transform="translate(0.000000,248.000000) scale(0.100000,-0.100000)"
fill="#000000" stroke="none">
<path d="M623 2408 c-6 -7 -13 -96 -16 -197 -4 -102 -11 -189 -16 -194 -5 -5
-51 -15 -102 -23 -153 -23 -238 -41 -254 -54 -23 -19 -18 -57 9 -75 22 -15 33
-14 132 4 60 11 130 23 157 26 l47 6 0 -90 c0 -49 -3 -96 -6 -105 -4 -9 -34
-21 -82 -32 -177 -38 -207 -52 -200 -96 4 -32 41 -48 86 -37 83 20 184 41 185
37 1 -1 0 -61 -3 -132 l-5 -129 -60 -13 c-57 -12 -116 -22 -265 -45 -78 -12
-110 -31 -110 -64 0 -38 39 -59 87 -46 21 5 79 14 128 21 50 6 107 16 129 21
21 6 40 8 42 6 6 -6 -44 -195 -60 -225 -8 -15 -30 -72 -49 -127 -39 -111 -137
-331 -198 -442 -44 -81 -45 -86 -23 -107 26 -26 60 -19 88 17 41 54 180 350
227 484 23 68 44 121 46 120 1 -2 -2 -93 -7 -203 -14 -287 -13 -543 3 -574 17
-33 66 -35 83 -3 7 15 13 144 17 360 4 186 10 370 13 408 l6 70 148 -147 c85
-85 159 -150 175 -154 30 -7 65 18 65 48 0 11 -57 75 -140 155 -157 152 -240
262 -240 318 0 38 3 40 100 54 36 5 119 19 185 31 66 12 143 25 172 30 29 5
61 14 72 19 30 16 36 49 14 73 -20 23 -51 21 -210 -7 -127 -23 -244 -43 -288
-50 l-40 -6 3 123 c2 68 5 128 7 134 2 7 72 28 157 49 84 20 159 42 166 48 22
17 10 60 -20 75 -25 11 -44 9 -159 -19 -71 -17 -132 -30 -133 -28 -2 2 0 49 3
103 l6 100 50 12 c28 6 118 26 200 44 171 36 198 49 193 88 -6 51 -36 54 -198
17 -80 -18 -164 -36 -187 -40 l-43 -7 3 170 c2 155 0 172 -17 191 -21 23 -58
28 -73 9z"/>
<path d="M1936 2318 c-13 -19 -16 -59 -16 -239 l0 -217 -67 -12 c-168 -29
-231 -39 -270 -45 l-43 -5 0 112 c-1 156 -16 306 -36 335 -11 18 -23 23 -42
21 -41 -5 -51 -38 -41 -133 5 -44 8 -140 7 -214 l-3 -135 -55 -12 c-30 -7 -71
-13 -90 -14 -41 0 -60 -15 -60 -45 0 -42 33 -58 102 -52 35 3 73 9 85 13 l23
6 -6 -123 c-8 -182 -22 -381 -27 -385 -2 -3 -77 -15 -165 -28 -89 -13 -168
-29 -177 -36 -23 -19 -18 -57 11 -76 22 -15 34 -16 92 -6 151 25 223 35 228
29 5 -5 3 -26 -31 -252 -16 -110 -39 -206 -75 -322 -33 -102 -24 -153 26 -153
30 0 39 13 67 105 54 170 66 228 102 475 26 177 24 173 70 182 22 3 108 18
190 33 83 14 157 28 166 31 14 4 17 -33 23 -353 10 -508 19 -688 35 -707 7 -9
26 -16 42 -16 52 0 53 15 40 377 -6 181 -11 414 -11 520 l0 191 53 12 c28 6
108 20 176 31 135 21 171 36 171 73 0 45 -21 51 -138 37 -59 -7 -135 -19 -170
-27 -35 -8 -70 -14 -78 -14 -12 0 -14 39 -14 245 l0 244 33 5 c17 3 65 10 105
15 83 11 104 23 100 60 -5 41 -46 55 -122 42 -34 -6 -75 -11 -89 -11 l-27 0 0
208 c0 226 -6 252 -55 252 -13 0 -31 -10 -39 -22z m-16 -806 l0 -248 -97 -18
c-54 -9 -132 -23 -173 -31 -41 -7 -90 -16 -109 -19 l-34 -6 6 62 c4 35 9 122
12 193 3 72 8 157 11 191 l5 61 87 12 c74 10 282 46 290 50 1 0 2 -111 2 -247z"/>
</g>
</svg>
