<?xml version="1.0" standalone="no"?>
<!DOCTYPE svg PUBLIC "-//W3C//DTD SVG 20010904//EN"
 "http://www.w3.org/TR/2001/REC-SVG-20010904/DTD/svg10.dtd">
<svg version="1.0" xmlns="http://www.w3.org/2000/svg"
 width="248.000000pt" height="248.000000pt" viewBox="0 0 248.000000 248.000000"
 preserveAspectRatio="xMidYMid meet">
<metadata>
Created by potrace 1.10, written by Peter Selinger 2001-2011
</metadata>
<g transform="translate(0.000000,248.000000) scale(0.100000,-0.100000)"
fill="#000000" stroke="none">
<path d="M1069 2116 c-7 -7 -511 -114 -574 -121 -104 -13 -245 -43 -260 -55
-23 -19 -18 -57 9 -76 23 -14 32 -14 103 0 43 9 114 21 158 27 44 6 172 31
285 55 113 25 228 50 255 55 28 6 60 17 73 25 24 16 30 55 10 72 -16 12 -53
24 -59 18z"/>
<path d="M820 1750 c-63 -16 -180 -43 -260 -61 -252 -54 -275 -63 -268 -111 4
-32 41 -48 86 -37 20 5 80 18 132 29 188 41 475 113 488 122 16 13 16 53 -1
66 -26 22 -66 20 -177 -8z"/>
</g>
</svg>
