<?xml version="1.0" standalone="no"?>
<!DOCTYPE svg PUBLIC "-//W3C//DTD SVG 20010904//EN"
 "http://www.w3.org/TR/2001/REC-SVG-20010904/DTD/svg10.dtd">
<svg version="1.0" xmlns="http://www.w3.org/2000/svg"
 width="248.000000pt" height="248.000000pt" viewBox="0 0 248.000000 248.000000"
 preserveAspectRatio="xMidYMid meet">
<metadata>
Created by potrace 1.10, written by Peter Selinger 2001-2011
</metadata>
<g transform="translate(0.000000,248.000000) scale(0.100000,-0.100000)"
fill="#000000" stroke="none">
<path d="M623 2408 c-6 -7 -13 -96 -16 -197 -4 -102 -11 -189 -16 -194 -5 -5
-51 -15 -102 -23 -153 -23 -238 -41 -254 -54 -23 -19 -18 -57 9 -75 22 -15 33
-14 132 4 60 11 130 23 157 26 l47 6 0 -90 c0 -49 -3 -96 -6 -105 -4 -9 -34
-21 -82 -32 -177 -38 -207 -52 -200 -96 4 -32 41 -48 86 -37 83 20 184 41 185
37 1 -1 0 -61 -3 -132 l-5 -129 -60 -13 c-57 -12 -116 -22 -265 -45 -78 -12
-110 -31 -110 -64 0 -38 39 -59 87 -46 21 5 79 15 128 21 50 6 116 18 149 26
32 8 59 14 61 12 2 -2 -1 -102 -6 -223 -18 -482 -21 -818 -7 -845 18 -33 67
-35 84 -3 7 15 14 146 18 360 13 594 19 723 36 733 8 5 37 11 65 15 27 3 73
10 100 16 28 5 104 18 170 29 170 29 194 37 207 65 9 21 8 29 -8 46 -21 24
-50 23 -211 -6 -127 -23 -244 -43 -288 -50 l-40 -6 3 123 c2 68 5 128 7 134 2
7 72 28 157 49 84 20 159 42 166 48 22 17 10 60 -20 75 -25 11 -44 9 -159 -19
-71 -17 -132 -30 -133 -28 -2 2 0 49 3 103 l6 100 50 12 c28 6 118 26 200 44
171 36 198 49 193 88 -6 51 -36 54 -198 17 -80 -18 -164 -36 -187 -40 l-43 -7
3 170 c2 155 0 172 -17 191 -21 23 -58 28 -73 9z"/>
</g>
</svg>
