<?xml version="1.0" standalone="no"?>
<!DOCTYPE svg PUBLIC "-//W3C//DTD SVG 20010904//EN"
 "http://www.w3.org/TR/2001/REC-SVG-20010904/DTD/svg10.dtd">
<svg version="1.0" xmlns="http://www.w3.org/2000/svg"
 width="248.000000pt" height="248.000000pt" viewBox="0 0 248.000000 248.000000"
 preserveAspectRatio="xMidYMid meet">
<metadata>
Created by potrace 1.10, written by Peter Selinger 2001-2011
</metadata>
<g transform="translate(0.000000,248.000000) scale(0.100000,-0.100000)"
fill="#000000" stroke="none">
<path d="M1860 2264 c-221 -54 -948 -120 -1177 -107 -112 6 -133 0 -133 -43 0
-12 10 -30 22 -38 56 -40 786 -2 1153 59 232 39 257 46 274 77 14 24 14 28 -3
47 -22 24 -54 25 -136 5z"/>
<path d="M502 1838 c-18 -18 -15 -43 11 -80 12 -19 53 -115 91 -213 38 -99 76
-188 84 -197 17 -21 53 -23 70 -6 14 14 15 48 3 80 -5 13 -40 101 -77 196 -41
106 -78 185 -95 203 -28 30 -66 38 -87 17z"/>
</g>
</svg>
