<?xml version="1.0" standalone="no"?>
<!DOCTYPE svg PUBLIC "-//W3C//DTD SVG 20010904//EN"
 "http://www.w3.org/TR/2001/REC-SVG-20010904/DTD/svg10.dtd">
<svg version="1.0" xmlns="http://www.w3.org/2000/svg"
 width="248.000000pt" height="248.000000pt" viewBox="0 0 248.000000 248.000000"
 preserveAspectRatio="xMidYMid meet">
<metadata>
Created by potrace 1.10, written by Peter Selinger 2001-2011
</metadata>
<g transform="translate(0.000000,248.000000) scale(0.100000,-0.100000)"
fill="#000000" stroke="none">
<path d="M1860 2264 c-221 -54 -948 -120 -1177 -107 -112 6 -133 0 -133 -43 0
-14 10 -30 26 -40 23 -15 53 -17 300 -11 l274 6 0 -37 c0 -131 -23 -748 -28
-754 -4 -3 -83 -16 -177 -28 -93 -12 -237 -30 -320 -41 -82 -11 -204 -27 -270
-35 -134 -17 -168 -32 -163 -71 6 -52 21 -52 348 -7 414 56 573 75 582 66 6
-6 8 -76 4 -178 -3 -93 -8 -316 -12 -495 l-6 -326 23 -17 c20 -13 26 -14 44
-2 22 15 20 -20 40 748 5 185 11 281 19 287 15 11 267 31 496 38 135 4 238 1
383 -12 213 -18 227 -17 227 31 0 37 -36 52 -157 65 -110 11 -721 6 -885 -7
l-68 -6 0 134 c0 73 5 234 11 358 5 124 10 242 11 262 0 43 -13 39 208 58 121
11 357 48 470 73 42 9 58 19 69 39 14 24 14 28 -3 47 -22 24 -54 25 -136 5z"/>
<path d="M1863 1993 c-7 -2 -43 -69 -81 -147 -60 -125 -116 -221 -198 -347
-37 -55 -28 -99 21 -99 28 0 57 28 92 87 15 27 43 71 61 98 36 55 182 346 182
364 0 15 -37 51 -52 50 -7 0 -18 -3 -25 -6z"/>
<path d="M502 1838 c-18 -18 -15 -43 11 -80 12 -19 53 -115 91 -213 38 -99 76
-188 84 -197 17 -21 53 -23 70 -6 14 14 15 48 3 80 -5 13 -40 101 -77 196 -41
106 -78 185 -95 203 -28 30 -66 38 -87 17z"/>
</g>
</svg>
