<?xml version="1.0" standalone="no"?>
<!DOCTYPE svg PUBLIC "-//W3C//DTD SVG 20010904//EN"
 "http://www.w3.org/TR/2001/REC-SVG-20010904/DTD/svg10.dtd">
<svg version="1.0" xmlns="http://www.w3.org/2000/svg"
 width="248.000000pt" height="248.000000pt" viewBox="0 0 248.000000 248.000000"
 preserveAspectRatio="xMidYMid meet">
<metadata>
Created by potrace 1.10, written by Peter Selinger 2001-2011
</metadata>
<g transform="translate(0.000000,248.000000) scale(0.100000,-0.100000)"
fill="#000000" stroke="none">
<path d="M1860 2264 c-221 -54 -948 -120 -1177 -107 -112 6 -133 0 -133 -43 0
-12 10 -30 22 -38 56 -40 786 -2 1153 59 232 39 257 46 274 77 14 24 14 28 -3
47 -22 24 -54 25 -136 5z"/>
<path d="M1863 1993 c-7 -2 -43 -69 -81 -147 -60 -125 -116 -221 -198 -347
-37 -55 -28 -99 21 -99 28 0 57 28 92 87 15 27 43 71 61 98 36 55 182 346 182
364 0 15 -37 51 -52 50 -7 0 -18 -3 -25 -6z"/>
<path d="M502 1838 c-18 -18 -15 -43 11 -80 12 -19 53 -115 91 -213 38 -99 76
-188 84 -197 17 -21 53 -23 70 -6 14 14 15 48 3 80 -5 13 -40 101 -77 196 -41
106 -78 185 -95 203 -28 30 -66 38 -87 17z"/>
<path d="M1332 1294 c-132 -12 -308 -33 -702 -84 -85 -12 -209 -28 -275 -36
-134 -17 -168 -32 -163 -71 6 -52 22 -52 348 -7 853 117 1205 142 1573 109
213 -18 227 -17 227 31 0 36 -35 52 -142 63 -131 15 -688 12 -866 -5z"/>
</g>
</svg>
