<?xml version="1.0" standalone="no"?>
<!DOCTYPE svg PUBLIC "-//W3C//DTD SVG 20010904//EN"
 "http://www.w3.org/TR/2001/REC-SVG-20010904/DTD/svg10.dtd">
<svg version="1.0" xmlns="http://www.w3.org/2000/svg"
 width="248.000000pt" height="248.000000pt" viewBox="0 0 248.000000 248.000000"
 preserveAspectRatio="xMidYMid meet">
<metadata>
Created by potrace 1.10, written by Peter Selinger 2001-2011
</metadata>
<g transform="translate(0.000000,248.000000) scale(0.100000,-0.100000)"
fill="#000000" stroke="none">
<path d="M919 2283 c-8 -10 -21 -31 -29 -46 -7 -15 -59 -78 -114 -140 -56 -62
-123 -140 -151 -172 -27 -33 -80 -93 -117 -134 -48 -52 -68 -83 -68 -101 0
-73 54 -69 455 40 77 21 161 41 186 44 60 9 86 36 73 74 -14 41 -63 40 -249
-9 -213 -55 -245 -62 -252 -55 -7 6 54 80 178 216 151 165 196 249 157 288
-17 17 -53 15 -69 -5z"/>
</g>
</svg>
