<?xml version="1.0" standalone="no"?>
<!DOCTYPE svg PUBLIC "-//W3C//DTD SVG 20010904//EN"
 "http://www.w3.org/TR/2001/REC-SVG-20010904/DTD/svg10.dtd">
<svg version="1.0" xmlns="http://www.w3.org/2000/svg"
 width="248.000000pt" height="248.000000pt" viewBox="0 0 248.000000 248.000000"
 preserveAspectRatio="xMidYMid meet">
<metadata>
Created by potrace 1.10, written by Peter Selinger 2001-2011
</metadata>
<g transform="translate(0.000000,248.000000) scale(0.100000,-0.100000)"
fill="#000000" stroke="none">
<path d="M919 2283 c-8 -10 -21 -31 -29 -46 -7 -15 -59 -78 -114 -140 -56 -62
-123 -140 -151 -172 -27 -33 -80 -93 -117 -134 -69 -76 -83 -112 -56 -139 26
-26 93 -15 458 81 74 19 156 39 182 45 l47 9 56 -63 c57 -65 87 -78 113 -52
25 25 13 66 -35 121 -27 29 -57 64 -68 78 -94 114 -108 129 -129 129 -45 0
-61 -48 -30 -95 9 -14 15 -25 13 -25 -2 -1 -74 -19 -159 -41 -205 -54 -240
-62 -247 -55 -7 6 54 80 178 216 151 165 196 249 157 288 -17 17 -53 15 -69
-5z"/>
<path d="M1334 2175 c-15 -23 -16 -48 -11 -213 7 -208 24 -313 54 -344 14 -13
49 -24 113 -35 85 -15 105 -14 229 1 318 38 324 40 336 97 9 41 -3 115 -21
134 -18 18 -55 20 -72 3 -7 -7 -12 -31 -12 -54 l0 -42 -62 -11 c-189 -32 -404
-39 -430 -13 -6 6 -13 35 -16 65 l-4 54 83 36 c46 19 108 45 137 56 95 38 257
113 275 129 20 17 22 53 5 70 -22 22 -58 13 -191 -47 -73 -32 -163 -71 -202
-86 -38 -15 -74 -31 -79 -36 -6 -5 -16 -9 -23 -9 -10 0 -13 27 -13 113 0 86
-4 118 -16 135 -21 30 -59 29 -80 -3z"/>
<path d="M900 1594 c-52 -12 -139 -30 -194 -40 -152 -27 -141 -1 -138 -336 4
-306 7 -328 57 -328 37 0 55 35 55 107 0 57 2 63 23 67 94 19 284 56 290 56 4
0 7 -25 7 -55 0 -46 -3 -55 -18 -55 -25 0 -42 -20 -42 -48 0 -24 31 -77 58
-99 21 -17 67 -16 82 2 21 26 31 154 32 438 1 314 2 309 -74 312 -24 1 -86 -8
-138 -21z m103 -136 c-3 -29 -6 -54 -7 -55 -1 -2 -287 -55 -306 -57 -11 -1
-16 11 -18 46 -3 47 -3 47 35 57 21 6 70 15 108 21 39 5 93 16 120 24 76 22
75 22 68 -36z m7 -198 c0 -16 -2 -30 -3 -30 -2 0 -69 -13 -148 -30 -181 -37
-179 -37 -179 -1 0 25 6 31 36 41 46 15 219 48 262 49 29 1 32 -2 32 -29z"/>
<path d="M1339 1474 c-19 -22 -26 -410 -9 -467 15 -51 52 -66 184 -76 151 -12
312 2 485 43 86 20 96 32 96 110 0 72 -14 96 -54 96 -37 0 -51 -17 -51 -62 0
-35 -2 -38 -42 -48 -24 -6 -49 -13 -57 -16 -35 -12 -274 -23 -363 -17 l-98 6
0 54 c0 48 2 53 22 53 46 0 267 82 398 148 111 55 137 72 145 95 21 62 -37 86
-103 42 -52 -34 -220 -107 -354 -154 l-108 -38 0 96 c0 57 -5 106 -13 121 -15
31 -58 38 -78 14z"/>
<path d="M370 686 c-6 -8 -14 -30 -16 -48 -11 -79 -18 -109 -50 -211 -20 -59
-34 -120 -32 -134 4 -33 27 -48 61 -39 23 5 30 20 66 129 62 194 72 265 40
303 -15 18 -53 18 -69 0z"/>
</g>
</svg>
