<?xml version="1.0" standalone="no"?>
<!DOCTYPE svg PUBLIC "-//W3C//DTD SVG 20010904//EN"
 "http://www.w3.org/TR/2001/REC-SVG-20010904/DTD/svg10.dtd">
<svg version="1.0" xmlns="http://www.w3.org/2000/svg"
 width="248.000000pt" height="248.000000pt" viewBox="0 0 248.000000 248.000000"
 preserveAspectRatio="xMidYMid meet">
<metadata>
Created by potrace 1.10, written by Peter Selinger 2001-2011
</metadata>
<g transform="translate(0.000000,248.000000) scale(0.100000,-0.100000)"
fill="#000000" stroke="none">
<path d="M919 2283 c-8 -10 -21 -31 -29 -46 -7 -15 -59 -78 -114 -140 -56 -62
-123 -140 -151 -172 -27 -33 -80 -93 -117 -134 -69 -76 -83 -112 -56 -139 26
-26 93 -15 458 81 74 19 156 39 182 45 l47 9 56 -63 c57 -65 87 -78 113 -52
25 25 13 64 -35 120 -27 30 -57 66 -68 79 -11 13 -40 48 -63 77 -44 53 -75 65
-100 40 -17 -17 -15 -54 4 -83 9 -14 15 -25 13 -25 -2 -1 -74 -19 -159 -41
-205 -54 -240 -62 -247 -55 -7 6 54 80 178 216 151 165 196 249 157 288 -17
17 -53 15 -69 -5z"/>
<path d="M1770 2071 c-58 -26 -137 -60 -175 -76 -109 -43 -178 -76 -197 -93
-34 -29 -17 -82 26 -82 35 0 474 188 509 218 20 17 22 53 5 70 -21 21 -61 13
-168 -37z"/>
<path d="M900 1594 c-52 -12 -139 -30 -194 -40 -152 -27 -141 -1 -138 -336 4
-306 7 -328 57 -328 37 0 55 35 55 107 0 57 2 63 23 67 94 19 284 56 290 56 4
0 7 -25 7 -55 0 -46 -3 -55 -18 -55 -25 0 -42 -20 -42 -48 0 -24 31 -77 58
-99 21 -17 67 -16 82 2 21 26 31 154 32 438 1 314 2 309 -74 312 -24 1 -86 -8
-138 -21z m103 -136 c-3 -29 -6 -54 -7 -55 -1 -2 -287 -55 -306 -57 -11 -1
-16 11 -18 46 -3 47 -3 47 35 57 21 6 70 15 108 21 39 5 93 16 120 24 76 22
75 22 68 -36z m7 -198 c0 -16 -2 -30 -3 -30 -2 0 -69 -13 -148 -30 -181 -37
-179 -37 -179 -1 0 25 6 31 36 41 46 15 219 48 262 49 29 1 32 -2 32 -29z"/>
</g>
</svg>
