<?xml version="1.0" standalone="no"?>
<!DOCTYPE svg PUBLIC "-//W3C//DTD SVG 20010904//EN"
 "http://www.w3.org/TR/2001/REC-SVG-20010904/DTD/svg10.dtd">
<svg version="1.0" xmlns="http://www.w3.org/2000/svg"
 width="248.000000pt" height="248.000000pt" viewBox="0 0 248.000000 248.000000"
 preserveAspectRatio="xMidYMid meet">
<metadata>
Created by potrace 1.10, written by Peter Selinger 2001-2011
</metadata>
<g transform="translate(0.000000,248.000000) scale(0.100000,-0.100000)"
fill="#000000" stroke="none">
<path d="M1280 2375 c-20 -24 -14 -68 21 -166 17 -49 29 -92 26 -95 -7 -7
-113 -27 -287 -54 -69 -10 -126 -19 -127 -20 -1 0 -7 -9 -13 -20 -14 -26 -5
-57 20 -70 18 -10 169 9 353 45 43 8 86 15 95 15 10 -1 36 -31 62 -73 70 -112
181 -256 251 -324 67 -65 161 -120 297 -174 116 -46 140 -26 143 116 2 82 -9
105 -47 105 -30 0 -54 -36 -54 -82 0 -24 -5 -38 -13 -38 -24 0 -188 90 -234
128 -75 62 -287 342 -271 358 3 3 35 11 70 19 35 7 103 25 151 40 91 29 114
48 102 85 -10 30 -51 35 -124 15 -37 -10 -88 -24 -115 -31 -27 -8 -72 -15 -99
-16 l-50 -3 -38 110 c-21 61 -42 118 -48 128 -14 21 -54 22 -71 2z"/>
<path d="M1850 2350 c-11 -11 -20 -27 -20 -35 0 -18 156 -197 192 -219 38 -24
77 -5 78 37 0 10 -30 53 -67 95 -139 156 -145 160 -183 122z"/>
<path d="M752 2293 c-11 -10 -43 -58 -73 -108 -73 -123 -162 -232 -287 -352
l-107 -102 15 -28 c30 -54 54 -43 200 85 l60 54 1 -99 c1 -54 1 -100 1 -103 0
-3 -3 -46 -7 -96 -7 -92 -7 -92 19 -109 37 -24 71 -9 80 37 5 18 10 141 12
272 l5 239 57 88 c86 133 112 175 112 188 0 16 -37 51 -54 51 -8 0 -23 -8 -34
-17z"/>
<path d="M1500 1563 c-85 -4 -358 -32 -530 -54 -128 -16 -158 -23 -177 -41
-24 -22 -31 -62 -13 -73 6 -4 10 -166 10 -454 0 -421 1 -449 18 -464 23 -21
46 -21 75 -3 12 8 42 17 67 20 105 13 346 28 489 31 84 2 157 7 162 12 10 10
26 112 34 223 3 47 10 117 15 155 22 170 42 587 29 621 -4 12 -18 24 -31 27
-22 7 -34 7 -148 0z m76 -125 c-3 -13 -6 -49 -6 -80 l0 -58 -52 0 c-29 -1
-102 -7 -163 -16 -97 -13 -165 -19 -397 -38 l-58 -5 0 77 0 78 138 17 c227 28
365 41 491 45 51 2 53 1 47 -20z m-12 -330 c-3 -51 -7 -98 -9 -104 -2 -8 -50
-14 -132 -19 -70 -3 -144 -8 -163 -10 -19 -2 -96 -9 -170 -15 -74 -6 -148 -13
-163 -16 l-28 -6 3 99 3 98 65 6 c36 4 106 9 155 13 50 4 117 11 151 17 54 9
196 24 266 28 l28 1 -6 -92z m-30 -286 c-3 -31 -7 -85 -10 -119 l-6 -63 -46 0
c-26 0 -94 -4 -152 -10 -58 -5 -166 -14 -240 -20 -74 -6 -145 -14 -157 -17
-23 -5 -23 -5 -23 121 0 94 3 126 13 126 6 0 62 5 122 11 142 14 488 36 497
32 3 -2 4 -29 2 -61z"/>
<path d="M1370 450 c-25 -25 -25 -45 -2 -65 9 -8 64 -55 122 -103 58 -49 128
-115 155 -148 86 -102 122 -123 153 -92 27 27 13 63 -53 133 -35 39 -65 72
-65 76 0 8 -177 161 -222 192 -49 32 -62 33 -88 7z"/>
<path d="M979 413 c-14 -16 -38 -48 -54 -72 -38 -56 -118 -126 -197 -171 -33
-19 -64 -45 -69 -56 -10 -27 14 -64 42 -64 57 0 209 110 295 214 29 35 58 67
63 71 15 9 14 78 -1 93 -20 20 -53 14 -79 -15z"/>
</g>
</svg>
