<?xml version="1.0" standalone="no"?>
<!DOCTYPE svg PUBLIC "-//W3C//DTD SVG 20010904//EN"
 "http://www.w3.org/TR/2001/REC-SVG-20010904/DTD/svg10.dtd">
<svg version="1.0" xmlns="http://www.w3.org/2000/svg"
 width="248.000000pt" height="248.000000pt" viewBox="0 0 248.000000 248.000000"
 preserveAspectRatio="xMidYMid meet">
<metadata>
Created by potrace 1.10, written by Peter Selinger 2001-2011
</metadata>
<g transform="translate(0.000000,248.000000) scale(0.100000,-0.100000)"
fill="#000000" stroke="none">
<path d="M1280 2375 c-20 -24 -14 -68 21 -166 17 -49 29 -92 26 -95 -7 -7
-113 -27 -287 -54 -69 -10 -126 -19 -127 -20 -10 -2 -23 -45 -18 -60 15 -47
48 -46 353 11 57 10 111 19 120 19 10 -1 35 -30 62 -73 70 -112 181 -256 251
-324 67 -65 161 -120 297 -174 116 -46 140 -26 143 116 2 82 -9 105 -47 105
-30 0 -54 -36 -54 -82 0 -24 -5 -38 -13 -38 -24 0 -188 90 -234 128 -75 62
-287 342 -271 358 3 3 35 11 70 19 35 7 103 25 151 40 91 29 114 48 102 85
-10 30 -51 35 -124 15 -37 -10 -88 -24 -115 -31 -27 -8 -72 -15 -99 -16 l-50
-3 -38 110 c-21 61 -42 118 -48 128 -14 21 -54 22 -71 2z"/>
<path d="M752 2293 c-11 -10 -43 -58 -73 -108 -73 -123 -162 -232 -287 -352
l-107 -102 15 -28 c30 -54 54 -43 200 85 l60 54 1 -99 c1 -54 1 -100 1 -103 0
-3 -3 -46 -7 -96 -7 -92 -7 -92 19 -109 37 -24 71 -9 80 37 5 18 10 141 12
272 l5 239 57 88 c86 133 112 175 112 188 0 16 -37 51 -54 51 -8 0 -23 -8 -34
-17z"/>
</g>
</svg>
