<?xml version="1.0" standalone="no"?>
<!DOCTYPE svg PUBLIC "-//W3C//DTD SVG 20010904//EN"
 "http://www.w3.org/TR/2001/REC-SVG-20010904/DTD/svg10.dtd">
<svg version="1.0" xmlns="http://www.w3.org/2000/svg"
 width="248.000000pt" height="248.000000pt" viewBox="0 0 248.000000 248.000000"
 preserveAspectRatio="xMidYMid meet">
<metadata>
Created by potrace 1.10, written by Peter Selinger 2001-2011
</metadata>
<g transform="translate(0.000000,248.000000) scale(0.100000,-0.100000)"
fill="#000000" stroke="none">
<path d="M1146 2378 c-13 -18 -16 -53 -16 -173 0 -169 9 -199 58 -193 43 5 52
37 52 198 0 159 -9 190 -55 190 -13 0 -31 -10 -39 -22z"/>
<path d="M279 1964 c-16 -19 -17 -58 -5 -229 9 -136 22 -168 64 -163 51 6 57
36 43 204 -7 82 -18 160 -24 174 -15 31 -58 38 -78 14z"/>
</g>
</svg>
