<?xml version="1.0" standalone="no"?>
<!DOCTYPE svg PUBLIC "-//W3C//DTD SVG 20010904//EN"
 "http://www.w3.org/TR/2001/REC-SVG-20010904/DTD/svg10.dtd">
<svg version="1.0" xmlns="http://www.w3.org/2000/svg"
 width="248.000000pt" height="248.000000pt" viewBox="0 0 248.000000 248.000000"
 preserveAspectRatio="xMidYMid meet">
<metadata>
Created by potrace 1.10, written by Peter Selinger 2001-2011
</metadata>
<g transform="translate(0.000000,248.000000) scale(0.100000,-0.100000)"
fill="#000000" stroke="none">
<path d="M1146 2378 c-12 -17 -16 -50 -16 -144 l0 -122 -27 -6 c-16 -3 -86
-13 -158 -22 -238 -28 -270 -33 -285 -38 -8 -3 -71 -12 -140 -21 -239 -28
-230 -26 -247 -52 -14 -21 -15 -39 -4 -146 6 -67 11 -142 11 -167 0 -58 23
-92 58 -88 50 6 58 39 43 188 -10 100 -10 134 -1 140 6 4 64 13 128 19 64 7
135 16 157 21 37 8 91 15 395 55 58 8 191 19 295 25 105 6 263 18 351 26 181
16 464 19 464 5 0 -11 -74 -106 -90 -116 -14 -9 -13 -58 2 -73 23 -23 56 -13
98 32 95 102 128 174 101 224 -25 46 -248 65 -481 42 -52 -6 -162 -14 -245
-20 -82 -5 -187 -12 -232 -16 l-83 -7 0 119 c0 131 -11 164 -55 164 -13 0 -31
-10 -39 -22z"/>
<path d="M1568 1795 c-6 -6 -192 -31 -343 -45 -264 -25 -461 -52 -482 -66 -27
-17 -30 -56 -7 -74 18 -16 40 -16 169 0 55 6 135 15 178 19 l77 7 1 -456 c1
-250 4 -546 7 -658 6 -186 9 -205 26 -218 25 -18 37 -18 62 0 19 14 19 30 15
680 l-4 666 30 0 c17 0 90 9 163 20 73 11 151 20 174 20 23 0 52 7 64 16 31
21 26 64 -8 81 -24 12 -112 18 -122 8z"/>
</g>
</svg>
