<?xml version="1.0" standalone="no"?>
<!DOCTYPE svg PUBLIC "-//W3C//DTD SVG 20010904//EN"
 "http://www.w3.org/TR/2001/REC-SVG-20010904/DTD/svg10.dtd">
<svg version="1.0" xmlns="http://www.w3.org/2000/svg"
 width="248.000000pt" height="248.000000pt" viewBox="0 0 248.000000 248.000000"
 preserveAspectRatio="xMidYMid meet">
<metadata>
Created by potrace 1.10, written by Peter Selinger 2001-2011
</metadata>
<g transform="translate(0.000000,248.000000) scale(0.100000,-0.100000)"
fill="#000000" stroke="none">
<path d="M1134 2300 c-7 -7 -10 -75 -7 -198 3 -145 1 -191 -9 -204 -10 -12
-43 -19 -138 -28 -69 -6 -161 -18 -205 -26 -44 -8 -118 -19 -163 -24 -94 -10
-132 -29 -132 -64 0 -45 20 -50 138 -37 59 7 123 17 142 21 47 12 487 58 775
81 66 5 179 14 250 19 146 12 191 23 200 49 16 51 -21 67 -133 57 -43 -4 -104
-9 -137 -11 -33 -3 -121 -10 -195 -15 -74 -6 -170 -14 -213 -18 -43 -5 -80 -6
-82 -3 -3 2 -5 90 -5 196 0 135 -4 195 -12 203 -15 15 -60 16 -74 2z"/>
<path d="M1305 1609 c-215 -19 -350 -39 -437 -65 -47 -14 -62 -62 -30 -98 12
-14 25 -58 36 -126 10 -58 20 -115 22 -128 6 -29 42 -43 97 -37 237 26 238 27
399 41 102 8 130 26 150 95 9 30 28 93 43 142 55 184 53 188 -89 186 -55 -1
-141 -5 -191 -10z m192 -106 c-16 -80 -51 -178 -70 -193 -15 -13 -50 -19 -121
-24 -56 -4 -147 -11 -204 -18 -56 -6 -105 -8 -108 -5 -8 8 -34 138 -34 169 0
35 29 44 220 63 152 16 299 31 314 34 4 0 6 -11 3 -26z"/>
<path d="M1605 1049 c-99 -4 -241 -14 -315 -23 -554 -64 -806 -103 -839 -129
-21 -18 -29 -50 -19 -77 10 -25 13 -58 43 -395 25 -286 27 -295 74 -295 31 0
52 18 53 47 0 10 -5 56 -11 103 -6 47 -14 117 -17 155 -4 63 -15 185 -30 332
-4 43 -2 52 13 57 46 13 375 61 493 71 36 4 87 10 113 16 76 14 494 48 598 48
52 0 126 3 165 6 42 4 74 3 78 -3 5 -9 -8 -100 -44 -302 -11 -58 -24 -141 -30
-185 -15 -111 -40 -213 -62 -258 l-19 -38 -56 41 c-58 41 -90 49 -111 28 -33
-33 -4 -75 101 -147 57 -39 95 -40 129 -3 55 58 86 154 118 367 10 66 32 202
49 302 35 207 37 240 15 271 -15 21 -21 22 -162 20 -81 -1 -228 -5 -327 -9z"/>
</g>
</svg>
