<?xml version="1.0" standalone="no"?>
<!DOCTYPE svg PUBLIC "-//W3C//DTD SVG 20010904//EN"
 "http://www.w3.org/TR/2001/REC-SVG-20010904/DTD/svg10.dtd">
<svg version="1.0" xmlns="http://www.w3.org/2000/svg"
 width="248.000000pt" height="248.000000pt" viewBox="0 0 248.000000 248.000000"
 preserveAspectRatio="xMidYMid meet">
<metadata>
Created by potrace 1.10, written by Peter Selinger 2001-2011
</metadata>
<g transform="translate(0.000000,248.000000) scale(0.100000,-0.100000)"
fill="#000000" stroke="none">
<path d="M1134 2300 c-7 -7 -10 -75 -7 -198 3 -145 1 -191 -9 -204 -10 -12
-43 -19 -138 -28 -69 -6 -161 -18 -205 -26 -44 -8 -118 -19 -163 -24 -94 -10
-132 -29 -132 -64 0 -45 20 -50 138 -37 59 7 123 17 142 21 47 12 487 58 775
81 66 5 179 14 250 19 146 12 191 23 200 49 16 51 -21 67 -133 57 -43 -4 -104
-9 -137 -11 -33 -3 -121 -10 -195 -15 -74 -6 -170 -14 -213 -18 -43 -5 -80 -6
-82 -3 -3 2 -5 90 -5 196 0 135 -4 195 -12 203 -15 15 -60 16 -74 2z"/>
<path d="M1305 1609 c-219 -19 -350 -39 -437 -65 -47 -14 -62 -62 -30 -98 12
-14 25 -58 36 -126 24 -139 28 -150 66 -150 20 0 34 7 45 23 14 21 13 32 -5
117 -29 136 -28 147 18 160 36 10 231 33 387 45 44 3 88 9 99 12 16 4 18 1 13
-23 -14 -74 -51 -178 -68 -195 -10 -10 -19 -28 -19 -39 0 -26 42 -52 77 -48
32 4 47 29 74 128 10 36 28 102 41 148 32 114 30 117 -103 118 -57 1 -144 -2
-194 -7z"/>
</g>
</svg>
