<?xml version="1.0" standalone="no"?>
<!DOCTYPE svg PUBLIC "-//W3C//DTD SVG 20010904//EN"
 "http://www.w3.org/TR/2001/REC-SVG-20010904/DTD/svg10.dtd">
<svg version="1.0" xmlns="http://www.w3.org/2000/svg"
 width="248.000000pt" height="248.000000pt" viewBox="0 0 248.000000 248.000000"
 preserveAspectRatio="xMidYMid meet">
<metadata>
Created by potrace 1.10, written by Peter Selinger 2001-2011
</metadata>
<g transform="translate(0.000000,248.000000) scale(0.100000,-0.100000)"
fill="#000000" stroke="none">
<path d="M949 2317 c-25 -23 -90 -72 -145 -109 -54 -37 -135 -92 -179 -123
-44 -31 -122 -81 -173 -111 -94 -57 -111 -79 -97 -123 6 -19 21 -26 53 -22 19
3 164 93 280 174 56 40 120 83 141 97 166 107 241 173 241 211 0 62 -57 65
-121 6z"/>
</g>
</svg>
