<?xml version="1.0" standalone="no"?>
<!DOCTYPE svg PUBLIC "-//W3C//DTD SVG 20010904//EN"
 "http://www.w3.org/TR/2001/REC-SVG-20010904/DTD/svg10.dtd">
<svg version="1.0" xmlns="http://www.w3.org/2000/svg"
 width="248.000000pt" height="248.000000pt" viewBox="0 0 248.000000 248.000000"
 preserveAspectRatio="xMidYMid meet">
<metadata>
Created by potrace 1.10, written by Peter Selinger 2001-2011
</metadata>
<g transform="translate(0.000000,248.000000) scale(0.100000,-0.100000)"
fill="#000000" stroke="none">
<path d="M350 2210 c-54 -54 1 -95 182 -135 134 -30 133 -30 158 -5 49 49 18
75 -115 101 -60 12 -127 30 -147 40 -47 24 -53 24 -78 -1z"/>
<path d="M705 1800 c-83 -25 -524 -120 -558 -120 -29 0 -67 -31 -67 -55 0 -22
37 -55 61 -55 12 0 60 9 108 20 47 10 160 35 251 55 301 65 360 86 360 128 0
51 -49 59 -155 27z"/>
</g>
</svg>
