<?xml version="1.0" standalone="no"?>
<!DOCTYPE svg PUBLIC "-//W3C//DTD SVG 20010904//EN"
 "http://www.w3.org/TR/2001/REC-SVG-20010904/DTD/svg10.dtd">
<svg version="1.0" xmlns="http://www.w3.org/2000/svg"
 width="248.000000pt" height="248.000000pt" viewBox="0 0 248.000000 248.000000"
 preserveAspectRatio="xMidYMid meet">
<metadata>
Created by potrace 1.10, written by Peter Selinger 2001-2011
</metadata>
<g transform="translate(0.000000,248.000000) scale(0.100000,-0.100000)"
fill="#000000" stroke="none">
<path d="M1705 2305 c-71 -8 -177 -21 -235 -30 -242 -36 -447 -65 -645 -89
-287 -36 -326 -43 -344 -61 -13 -13 -15 -33 -11 -103 8 -133 3 -688 -9 -1072
-6 -190 -12 -425 -14 -523 -2 -167 -1 -179 17 -193 11 -8 30 -14 42 -14 12 0
103 53 201 118 98 65 200 131 227 146 64 37 126 94 126 116 0 22 -31 50 -56
50 -11 0 -35 -13 -54 -29 -19 -15 -71 -50 -115 -76 -44 -27 -120 -76 -170
-109 -49 -34 -95 -64 -101 -68 -12 -8 -12 37 2 459 l6 171 72 7 c39 3 105 12
146 20 41 7 104 16 140 20 36 3 137 19 225 35 223 40 217 40 226 10 4 -14 17
-61 29 -105 12 -44 25 -84 29 -90 5 -5 27 -53 51 -105 120 -268 191 -400 283
-519 106 -139 119 -138 244 22 92 118 125 204 89 229 -37 25 -74 -2 -120 -87
-15 -27 -44 -69 -64 -93 l-37 -42 -45 57 c-78 102 -121 180 -256 476 -51 111
-104 259 -104 289 0 11 32 18 207 43 252 36 283 46 283 90 0 27 -22 47 -52 48
-27 0 -364 -50 -423 -63 -22 -5 -43 -6 -47 -2 -12 12 -74 228 -93 323 -25 128
-23 133 55 140 36 4 83 12 105 17 22 6 103 18 180 27 154 18 170 26 179 88 2
18 10 70 16 117 6 47 18 126 27 176 16 93 13 153 -11 173 -22 18 -66 20 -201
6z m112 -137 c-19 -131 -46 -301 -50 -304 -2 -2 -39 -8 -83 -14 -43 -5 -119
-16 -169 -25 -266 -45 -340 -56 -445 -65 -63 -5 -142 -14 -175 -20 -33 -5 -96
-14 -140 -19 -44 -6 -98 -13 -121 -16 l-41 -7 -6 145 c-4 79 -10 158 -13 174
l-6 30 64 7 c34 4 126 15 203 26 77 10 176 23 220 29 44 6 141 20 215 31 74
11 167 25 205 31 39 6 129 16 200 23 72 8 134 14 139 15 5 0 6 -18 3 -41z
m-587 -502 c0 -25 57 -273 79 -346 16 -52 26 -98 23 -101 -4 -3 -59 -14 -122
-23 -63 -10 -132 -22 -152 -27 -20 -5 -90 -16 -155 -24 -65 -8 -147 -19 -183
-25 -36 -5 -83 -10 -105 -10 l-40 0 2 167 c2 93 6 200 9 240 l6 72 51 9 c97
18 291 43 402 53 61 5 117 11 125 13 22 5 60 7 60 2z"/>
</g>
</svg>
