<?xml version="1.0" standalone="no"?>
<!DOCTYPE svg PUBLIC "-//W3C//DTD SVG 20010904//EN"
 "http://www.w3.org/TR/2001/REC-SVG-20010904/DTD/svg10.dtd">
<svg version="1.0" xmlns="http://www.w3.org/2000/svg"
 width="248.000000pt" height="248.000000pt" viewBox="0 0 248.000000 248.000000"
 preserveAspectRatio="xMidYMid meet">
<metadata>
Created by potrace 1.10, written by Peter Selinger 2001-2011
</metadata>
<g transform="translate(0.000000,248.000000) scale(0.100000,-0.100000)"
fill="#000000" stroke="none">
<path d="M1280 2281 c-80 -4 -151 -10 -158 -14 -6 -5 -19 -21 -27 -37 -12 -24
-13 -65 -4 -281 5 -140 14 -269 20 -287 6 -17 20 -37 32 -44 16 -8 109 -9 347
-4 374 8 468 16 486 41 21 28 28 118 28 358 l1 229 -28 24 -28 24 -262 -2
c-144 -1 -327 -4 -407 -7z m618 -321 c-2 -121 -6 -222 -9 -224 -2 -3 -156 -8
-341 -12 l-336 -7 -6 74 c-3 41 -8 142 -11 226 l-5 152 88 4 c48 1 208 4 356
5 l269 2 -5 -220z"/>
<path d="M680 2240 c-11 -11 -20 -31 -20 -44 0 -23 -103 -184 -210 -326 -30
-41 -64 -88 -75 -105 -21 -34 -95 -124 -167 -202 -48 -52 -60 -87 -36 -111 35
-35 102 12 203 145 21 29 40 51 41 50 5 -5 -17 -950 -26 -1160 -12 -258 -8
-282 45 -282 21 0 33 7 41 22 15 31 33 437 44 997 7 381 6 475 -5 506 -13 37
-12 38 29 91 113 145 226 333 226 376 0 26 -32 63 -55 63 -8 0 -24 -9 -35 -20z"/>
<path d="M1570 1399 c-267 -4 -542 -12 -612 -17 -70 -6 -136 -8 -147 -5 -21 5
-61 -28 -61 -52 0 -8 10 -25 21 -36 20 -20 28 -21 143 -15 66 3 394 10 728 15
333 6 618 13 632 17 52 13 58 76 9 95 -13 5 -70 8 -126 7 -56 -1 -320 -5 -587
-9z"/>
</g>
</svg>
