<?xml version="1.0" standalone="no"?>
<!DOCTYPE svg PUBLIC "-//W3C//DTD SVG 20010904//EN"
 "http://www.w3.org/TR/2001/REC-SVG-20010904/DTD/svg10.dtd">
<svg version="1.0" xmlns="http://www.w3.org/2000/svg"
 width="248.000000pt" height="248.000000pt" viewBox="0 0 248.000000 248.000000"
 preserveAspectRatio="xMidYMid meet">
<metadata>
Created by potrace 1.10, written by Peter Selinger 2001-2011
</metadata>
<g transform="translate(0.000000,248.000000) scale(0.100000,-0.100000)"
fill="#000000" stroke="none">
<path d="M1280 2281 c-80 -4 -151 -10 -158 -14 -6 -5 -19 -21 -27 -37 -12 -24
-13 -65 -4 -281 10 -262 17 -312 49 -329 10 -6 91 -10 179 -10 l161 0 0 -103
0 -103 -302 -14 c-167 -7 -325 -14 -351 -15 -71 -1 -99 -43 -57 -85 24 -24 3
-23 367 -8 161 6 295 9 299 6 28 -29 -271 -392 -447 -543 -44 -38 -102 -88
-128 -111 -25 -22 -81 -66 -123 -97 -86 -63 -99 -93 -54 -122 22 -15 27 -15
56 0 36 19 100 66 180 134 30 26 71 58 90 73 86 63 282 273 400 426 30 39 57
66 59 60 2 -6 -2 -184 -9 -395 -14 -432 -13 -447 44 -441 20 2 34 11 42 26 7
14 14 125 19 285 4 144 10 314 14 377 l6 115 89 -125 c165 -231 347 -431 484
-532 31 -23 78 -62 104 -85 63 -57 118 -56 118 3 0 33 -33 68 -139 148 -143
109 -309 285 -440 469 -25 34 -70 95 -100 136 -31 41 -68 90 -83 110 -15 20
-30 48 -33 62 l-6 26 341 7 c187 4 351 11 364 16 44 16 44 74 0 90 -14 6 -162
7 -359 3 l-335 -6 0 110 0 110 168 6 c175 6 215 13 226 44 14 35 27 268 24
420 l-3 155 -28 24 -28 24 -262 -2 c-144 -1 -327 -4 -407 -7z m618 -321 c-2
-121 -6 -222 -9 -224 -2 -3 -156 -8 -341 -12 l-336 -7 -6 74 c-3 41 -8 142
-11 226 l-5 152 88 4 c48 1 208 4 356 5 l269 2 -5 -220z"/>
<path d="M680 2240 c-11 -11 -20 -31 -20 -44 0 -23 -103 -184 -210 -326 -30
-41 -64 -88 -75 -105 -21 -34 -95 -124 -167 -202 -48 -52 -60 -87 -36 -111 35
-35 102 12 203 145 21 29 40 51 41 50 5 -5 -17 -950 -26 -1160 -12 -258 -8
-282 45 -282 21 0 33 7 41 22 15 31 33 437 44 997 7 381 6 475 -5 506 -13 37
-12 38 29 91 113 145 226 333 226 376 0 26 -32 63 -55 63 -8 0 -24 -9 -35 -20z"/>
</g>
</svg>
