<?xml version="1.0" standalone="no"?>
<!DOCTYPE svg PUBLIC "-//W3C//DTD SVG 20010904//EN"
 "http://www.w3.org/TR/2001/REC-SVG-20010904/DTD/svg10.dtd">
<svg version="1.0" xmlns="http://www.w3.org/2000/svg"
 width="248.000000pt" height="248.000000pt" viewBox="0 0 248.000000 248.000000"
 preserveAspectRatio="xMidYMid meet">
<metadata>
Created by potrace 1.10, written by Peter Selinger 2001-2011
</metadata>
<g transform="translate(0.000000,248.000000) scale(0.100000,-0.100000)"
fill="#000000" stroke="none">
<path d="M680 2240 c-11 -11 -20 -31 -20 -44 0 -23 -103 -184 -210 -326 -30
-41 -64 -88 -75 -105 -21 -34 -95 -124 -167 -202 -48 -52 -60 -87 -36 -111 37
-37 94 6 226 174 213 271 372 514 372 571 0 26 -32 63 -55 63 -8 0 -24 -9 -35
-20z"/>
</g>
</svg>
