<?xml version="1.0" standalone="no"?>
<!DOCTYPE svg PUBLIC "-//W3C//DTD SVG 20010904//EN"
 "http://www.w3.org/TR/2001/REC-SVG-20010904/DTD/svg10.dtd">
<svg version="1.0" xmlns="http://www.w3.org/2000/svg"
 width="248.000000pt" height="248.000000pt" viewBox="0 0 248.000000 248.000000"
 preserveAspectRatio="xMidYMid meet">
<metadata>
Created by potrace 1.10, written by Peter Selinger 2001-2011
</metadata>
<g transform="translate(0.000000,248.000000) scale(0.100000,-0.100000)"
fill="#000000" stroke="none">
<path d="M1280 2281 c-80 -4 -151 -10 -158 -14 -6 -5 -19 -21 -27 -37 -12 -24
-13 -65 -4 -286 6 -150 15 -264 21 -271 12 -15 46 -17 66 -5 25 17 29 72 21
282 -5 118 -6 216 -4 218 2 2 163 7 356 10 l352 5 -6 -255 c-5 -189 -3 -258 5
-266 18 -18 53 -14 72 7 24 26 38 210 34 419 l-3 154 -28 24 -28 24 -262 -2
c-144 -1 -327 -4 -407 -7z"/>
<path d="M680 2240 c-11 -11 -20 -31 -20 -44 0 -23 -103 -184 -210 -326 -30
-41 -64 -88 -75 -105 -21 -34 -95 -124 -167 -202 -48 -52 -60 -87 -36 -111 35
-35 102 12 203 145 21 29 40 51 41 50 5 -5 -17 -950 -26 -1160 -12 -258 -8
-282 45 -282 21 0 33 7 41 22 15 31 33 437 44 997 7 381 6 475 -5 506 -13 37
-12 38 29 91 113 145 226 333 226 376 0 26 -32 63 -55 63 -8 0 -24 -9 -35 -20z"/>
</g>
</svg>
