<?xml version="1.0" standalone="no"?>
<!DOCTYPE svg PUBLIC "-//W3C//DTD SVG 20010904//EN"
 "http://www.w3.org/TR/2001/REC-SVG-20010904/DTD/svg10.dtd">
<svg version="1.0" xmlns="http://www.w3.org/2000/svg"
 width="248.000000pt" height="248.000000pt" viewBox="0 0 248.000000 248.000000"
 preserveAspectRatio="xMidYMid meet">
<metadata>
Created by potrace 1.10, written by Peter Selinger 2001-2011
</metadata>
<g transform="translate(0.000000,248.000000) scale(0.100000,-0.100000)"
fill="#000000" stroke="none">
<path d="M680 2240 c-11 -11 -20 -31 -20 -44 0 -23 -103 -184 -210 -326 -30
-41 -64 -88 -75 -105 -21 -34 -95 -124 -167 -202 -48 -52 -60 -87 -36 -111 35
-35 102 12 203 145 21 29 40 51 41 50 5 -5 -17 -950 -26 -1160 -12 -258 -8
-282 45 -282 21 0 33 7 41 23 15 30 33 440 44 1005 7 374 6 466 -5 497 -13 37
-13 38 29 91 113 145 226 333 226 376 0 26 -32 63 -55 63 -8 0 -24 -9 -35 -20z"/>
<path d="M1100 2230 c-18 -18 -19 -29 -14 -182 14 -386 17 -399 77 -384 40 10
45 48 36 272 -4 109 -8 216 -8 237 -1 39 -28 77 -56 77 -8 0 -24 -9 -35 -20z"/>
</g>
</svg>
