<?xml version="1.0" standalone="no"?>
<!DOCTYPE svg PUBLIC "-//W3C//DTD SVG 20010904//EN"
 "http://www.w3.org/TR/2001/REC-SVG-20010904/DTD/svg10.dtd">
<svg version="1.0" xmlns="http://www.w3.org/2000/svg"
 width="248.000000pt" height="248.000000pt" viewBox="0 0 248.000000 248.000000"
 preserveAspectRatio="xMidYMid meet">
<metadata>
Created by potrace 1.10, written by Peter Selinger 2001-2011
</metadata>
<g transform="translate(0.000000,248.000000) scale(0.100000,-0.100000)"
fill="#000000" stroke="none">
<path d="M1862 2348 c-95 -140 -185 -264 -219 -302 -21 -24 -44 -55 -52 -69
-19 -36 -7 -75 26 -83 23 -6 33 0 74 47 27 30 74 90 106 134 31 44 81 112 110
151 40 54 53 80 53 106 0 71 -54 80 -98 16z"/>
<path d="M1201 2293 l-24 -16 7 -180 c3 -98 11 -187 16 -197 18 -34 83 -30 93
7 3 10 3 96 -1 192 -7 165 -8 174 -31 192 -28 23 -31 23 -60 2z"/>
<path d="M640 2186 c-15 -19 -13 -31 35 -211 52 -195 68 -221 121 -197 16 8
24 20 24 36 0 42 -80 330 -99 356 -21 29 -62 37 -81 16z"/>
<path d="M550 1675 c-7 -8 -10 -27 -7 -42 3 -16 12 -68 21 -118 9 -49 27 -146
40 -215 13 -69 28 -147 33 -175 7 -42 12 -51 35 -59 22 -8 32 -6 49 10 19 17
20 26 14 79 -3 33 -19 123 -35 200 -15 77 -31 165 -35 195 -8 61 -29 120 -48
132 -20 13 -54 9 -67 -7z"/>
</g>
</svg>
