<?xml version="1.0" standalone="no"?>
<!DOCTYPE svg PUBLIC "-//W3C//DTD SVG 20010904//EN"
 "http://www.w3.org/TR/2001/REC-SVG-20010904/DTD/svg10.dtd">
<svg version="1.0" xmlns="http://www.w3.org/2000/svg"
 width="248.000000pt" height="248.000000pt" viewBox="0 0 248.000000 248.000000"
 preserveAspectRatio="xMidYMid meet">
<metadata>
Created by potrace 1.10, written by Peter Selinger 2001-2011
</metadata>
<g transform="translate(0.000000,248.000000) scale(0.100000,-0.100000)"
fill="#000000" stroke="none">
<path d="M2112 2279 c-50 -60 -376 -313 -466 -361 -67 -37 -91 -67 -82 -103
11 -42 46 -42 118 1 76 45 122 76 167 112 l34 27 -4 -608 c-4 -593 -4 -609 15
-623 26 -18 39 -18 65 4 l22 17 5 644 5 643 87 75 c105 91 121 110 122 144 0
49 -55 67 -88 28z"/>
<path d="M492 2278 c-13 -13 -15 -37 -6 -63 11 -27 224 -195 248 -195 54 0 62
57 14 102 -18 17 -70 62 -115 99 -81 69 -116 82 -141 57z"/>
<path d="M775 1915 c-38 -7 -122 -22 -185 -34 -63 -11 -176 -30 -250 -42 -74
-11 -146 -26 -160 -33 -36 -17 -39 -60 -5 -82 25 -16 32 -16 123 0 53 10 149
26 212 38 258 45 337 60 368 70 39 12 58 48 42 79 -12 22 -39 23 -145 4z"/>
<path d="M615 1535 c-49 -12 -133 -32 -186 -44 -53 -12 -101 -27 -108 -34 -19
-19 -13 -56 13 -72 20 -14 31 -14 66 -5 23 6 86 20 139 31 195 39 251 61 251
102 0 53 -36 58 -175 22z"/>
<path d="M511 1224 c-96 -25 -181 -50 -188 -56 -17 -14 -17 -53 2 -68 8 -6 29
-12 47 -12 35 1 304 64 351 83 30 13 46 53 30 78 -16 26 -59 22 -242 -25z"/>
<path d="M610 951 c-47 -10 -117 -28 -156 -40 -39 -11 -87 -21 -107 -21 -23 0
-45 -8 -63 -23 l-27 -24 12 -264 c6 -145 11 -281 11 -302 0 -28 7 -45 26 -64
25 -25 28 -25 122 -19 210 15 346 36 367 57 19 19 20 32 19 337 -1 372 -2 376
-74 379 -25 1 -83 -6 -130 -16z m94 -152 c3 -34 6 -153 6 -264 0 -202 0 -203
-22 -208 -39 -9 -289 -30 -294 -24 -7 7 -27 455 -21 471 3 7 20 16 39 19 18 4
83 20 143 36 61 17 117 30 126 31 12 0 18 -14 23 -61z"/>
</g>
</svg>
