<?xml version="1.0" standalone="no"?>
<!DOCTYPE svg PUBLIC "-//W3C//DTD SVG 20010904//EN"
 "http://www.w3.org/TR/2001/REC-SVG-20010904/DTD/svg10.dtd">
<svg version="1.0" xmlns="http://www.w3.org/2000/svg"
 width="248.000000pt" height="248.000000pt" viewBox="0 0 248.000000 248.000000"
 preserveAspectRatio="xMidYMid meet">
<metadata>
Created by potrace 1.10, written by Peter Selinger 2001-2011
</metadata>
<g transform="translate(0.000000,248.000000) scale(0.100000,-0.100000)"
fill="#000000" stroke="none">
<path d="M2112 2279 c-50 -60 -376 -313 -466 -361 -67 -37 -91 -67 -82 -103
11 -42 46 -42 118 1 76 45 122 76 167 112 l34 27 -6 -579 c-3 -318 -8 -580
-11 -583 -7 -7 -109 -19 -133 -15 -23 3 -23 4 -23 200 -1 264 -14 428 -36 453
-19 21 -54 25 -71 8 -8 -8 -10 -102 -6 -340 4 -195 2 -329 -3 -329 -60 -3
-157 -20 -169 -30 -23 -19 -18 -57 9 -75 22 -14 44 -14 237 0 118 8 247 20
287 25 40 6 115 10 165 10 110 0 142 13 142 55 0 45 -42 62 -115 47 -61 -13
-129 -15 -154 -6 -14 5 -16 28 -16 148 0 217 11 417 24 421 6 1 65 12 131 25
66 13 135 29 153 36 29 12 33 17 30 45 -6 60 -3 60 -300 3 l-28 -6 -2 256 c-1
141 -2 267 -2 279 -1 18 22 44 89 102 108 93 124 112 125 146 0 49 -55 67 -88
28z"/>
<path d="M492 2278 c-13 -13 -15 -37 -6 -63 11 -27 224 -195 248 -195 54 0 62
57 14 102 -18 17 -70 62 -115 99 -81 69 -116 82 -141 57z"/>
<path d="M1295 1934 c-38 -7 -108 -20 -154 -28 -46 -9 -90 -21 -98 -27 -23
-20 -12 -62 21 -77 25 -12 41 -11 132 8 57 12 110 20 118 18 12 -2 11 -15 -8
-74 -27 -84 -88 -228 -122 -287 -41 -73 -27 -143 28 -135 17 2 33 24 69 98 87
175 144 327 164 432 6 31 3 41 -19 62 -28 29 -32 29 -131 10z"/>
<path d="M775 1915 c-38 -7 -122 -22 -185 -34 -63 -11 -176 -30 -250 -42 -74
-11 -146 -26 -160 -33 -36 -17 -39 -60 -5 -82 25 -16 32 -16 123 0 53 10 149
26 212 38 258 45 337 60 368 70 39 12 58 48 42 79 -12 22 -39 23 -145 4z"/>
<path d="M615 1535 c-49 -12 -133 -32 -186 -44 -104 -24 -119 -33 -119 -68 0
-36 40 -56 87 -44 21 5 83 19 138 31 203 41 255 62 255 103 0 53 -36 58 -175
22z"/>
<path d="M511 1224 c-96 -25 -181 -50 -188 -56 -17 -14 -17 -53 2 -68 8 -6 29
-12 47 -12 35 1 304 64 351 83 30 13 46 53 30 78 -16 26 -59 22 -242 -25z"/>
<path d="M610 951 c-47 -10 -117 -28 -156 -40 -39 -11 -87 -21 -107 -21 -23 0
-45 -8 -63 -23 l-27 -24 12 -264 c6 -145 11 -281 11 -302 0 -28 7 -45 26 -64
25 -25 28 -25 122 -19 210 15 346 36 367 57 19 19 20 32 19 337 -1 372 -2 376
-74 379 -25 1 -83 -6 -130 -16z m94 -152 c3 -34 6 -153 6 -264 0 -202 0 -203
-22 -208 -39 -9 -289 -30 -294 -24 -7 7 -27 455 -21 471 3 7 20 16 39 19 18 4
83 20 143 36 61 17 117 30 126 31 12 0 18 -14 23 -61z"/>
</g>
</svg>
