<?xml version="1.0" standalone="no"?>
<!DOCTYPE svg PUBLIC "-//W3C//DTD SVG 20010904//EN"
 "http://www.w3.org/TR/2001/REC-SVG-20010904/DTD/svg10.dtd">
<svg version="1.0" xmlns="http://www.w3.org/2000/svg"
 width="248.000000pt" height="248.000000pt" viewBox="0 0 248.000000 248.000000"
 preserveAspectRatio="xMidYMid meet">
<metadata>
Created by potrace 1.10, written by Peter Selinger 2001-2011
</metadata>
<g transform="translate(0.000000,248.000000) scale(0.100000,-0.100000)"
fill="#000000" stroke="none">
<path d="M1862 2348 c-95 -140 -185 -264 -219 -302 -21 -24 -44 -55 -52 -69
-19 -36 -7 -75 26 -83 23 -6 33 0 74 47 27 30 74 90 106 134 31 44 81 112 110
151 40 54 53 80 53 106 0 71 -54 80 -98 16z"/>
<path d="M1201 2293 l-24 -16 7 -180 c3 -98 11 -187 16 -197 18 -34 83 -30 93
7 3 10 3 96 -1 192 -7 165 -8 174 -31 192 -28 23 -31 23 -60 2z"/>
<path d="M640 2186 c-15 -19 -13 -31 35 -211 52 -195 68 -221 121 -197 16 8
24 20 24 36 0 42 -80 330 -99 356 -21 29 -62 37 -81 16z"/>
<path d="M1340 1784 c-264 -26 -473 -54 -614 -85 -51 -11 -105 -16 -125 -13
-47 7 -66 -12 -58 -58 17 -98 49 -268 61 -322 8 -33 19 -97 25 -141 8 -53 17
-84 28 -92 23 -17 87 -16 148 2 78 24 539 71 770 79 72 2 137 7 146 11 33 13
88 176 153 450 24 104 22 143 -9 175 -24 24 -239 21 -525 -6z m438 -126 c-5
-24 -13 -60 -19 -80 l-10 -38 -77 0 c-125 -1 -721 -59 -872 -85 -120 -21 -117
-22 -125 28 -3 23 -8 54 -11 69 -5 26 -3 26 83 46 208 47 667 98 899 101 l142
1 -10 -42z m-62 -253 c-4 -14 -16 -50 -27 -80 -23 -63 -18 -60 -189 -70 -222
-11 -633 -56 -741 -81 -25 -6 -26 -4 -38 76 -7 45 -11 83 -9 85 6 6 283 44
398 56 63 6 171 17 240 24 69 7 181 13 249 14 l123 1 -6 -25z"/>
</g>
</svg>
