<?xml version="1.0" standalone="no"?>
<!DOCTYPE svg PUBLIC "-//W3C//DTD SVG 20010904//EN"
 "http://www.w3.org/TR/2001/REC-SVG-20010904/DTD/svg10.dtd">
<svg version="1.0" xmlns="http://www.w3.org/2000/svg"
 width="248.000000pt" height="248.000000pt" viewBox="0 0 248.000000 248.000000"
 preserveAspectRatio="xMidYMid meet">
<metadata>
Created by potrace 1.10, written by Peter Selinger 2001-2011
</metadata>
<g transform="translate(0.000000,248.000000) scale(0.100000,-0.100000)"
fill="#000000" stroke="none">
<path d="M492 2278 c-13 -13 -15 -37 -6 -63 11 -27 224 -195 248 -195 54 0 62
57 14 102 -18 17 -70 62 -115 99 -81 69 -116 82 -141 57z"/>
<path d="M775 1915 c-38 -7 -122 -22 -185 -34 -63 -11 -176 -30 -250 -42 -74
-11 -146 -26 -160 -33 -36 -17 -39 -60 -5 -82 25 -16 32 -16 123 0 53 10 149
26 212 38 258 45 337 60 368 70 39 12 58 48 42 79 -12 22 -39 23 -145 4z"/>
<path d="M635 1540 c-38 -10 -122 -30 -186 -45 -64 -14 -121 -31 -127 -37 -20
-20 -14 -56 12 -73 20 -14 31 -14 66 -5 23 6 86 20 139 31 195 39 251 61 251
102 0 51 -39 58 -155 27z"/>
</g>
</svg>
