<?xml version="1.0" standalone="no"?>
<!DOCTYPE svg PUBLIC "-//W3C//DTD SVG 20010904//EN"
 "http://www.w3.org/TR/2001/REC-SVG-20010904/DTD/svg10.dtd">
<svg version="1.0" xmlns="http://www.w3.org/2000/svg"
 width="248.000000pt" height="248.000000pt" viewBox="0 0 248.000000 248.000000"
 preserveAspectRatio="xMidYMid meet">
<metadata>
Created by potrace 1.10, written by Peter Selinger 2001-2011
</metadata>
<g transform="translate(0.000000,248.000000) scale(0.100000,-0.100000)"
fill="#000000" stroke="none">
<path d="M1862 2348 c-95 -140 -185 -264 -219 -302 -21 -24 -44 -55 -52 -69
-19 -36 -7 -75 26 -83 23 -6 33 0 74 47 27 30 74 90 106 134 31 44 81 112 110
151 40 54 53 80 53 106 0 71 -54 80 -98 16z"/>
<path d="M1201 2293 l-24 -16 7 -180 c3 -98 11 -187 16 -197 18 -34 83 -30 93
7 3 10 3 96 -1 192 -7 165 -8 174 -31 192 -28 23 -31 23 -60 2z"/>
<path d="M640 2186 c-15 -19 -13 -31 35 -211 52 -195 68 -221 121 -197 16 8
24 20 24 36 0 42 -80 330 -99 356 -21 29 -62 37 -81 16z"/>
<path d="M1340 1784 c-264 -26 -473 -54 -614 -85 -51 -11 -105 -16 -125 -13
-47 7 -66 -12 -58 -58 14 -80 38 -210 61 -327 13 -69 28 -148 33 -176 7 -42
12 -51 35 -59 22 -8 32 -6 49 10 19 17 20 26 14 79 -3 33 -19 123 -34 200 -16
77 -31 159 -35 182 l-6 42 92 20 c223 49 744 105 930 99 l106 -3 -43 -173
c-24 -95 -58 -205 -76 -243 -28 -60 -30 -73 -20 -95 9 -21 17 -25 44 -22 28 3
36 11 63 62 31 57 69 184 118 391 24 104 22 143 -9 175 -24 24 -239 21 -525
-6z"/>
</g>
</svg>
