<?xml version="1.0" standalone="no"?>
<!DOCTYPE svg PUBLIC "-//W3C//DTD SVG 20010904//EN"
 "http://www.w3.org/TR/2001/REC-SVG-20010904/DTD/svg10.dtd">
<svg version="1.0" xmlns="http://www.w3.org/2000/svg"
 width="248.000000pt" height="248.000000pt" viewBox="0 0 248.000000 248.000000"
 preserveAspectRatio="xMidYMid meet">
<metadata>
Created by potrace 1.10, written by Peter Selinger 2001-2011
</metadata>
<g transform="translate(0.000000,248.000000) scale(0.100000,-0.100000)"
fill="#000000" stroke="none">
<path d="M870 1769 c-19 -5 -64 -13 -100 -19 -36 -5 -94 -17 -130 -25 -89 -19
-309 -61 -400 -76 -41 -6 -85 -18 -97 -26 -31 -18 -30 -58 1 -78 21 -14 32
-14 112 0 92 15 233 43 389 75 50 10 133 26 185 35 132 24 160 37 160 72 0 51
-35 63 -120 42z"/>
</g>
</svg>
