<?xml version="1.0" standalone="no"?>
<!DOCTYPE svg PUBLIC "-//W3C//DTD SVG 20010904//EN"
 "http://www.w3.org/TR/2001/REC-SVG-20010904/DTD/svg10.dtd">
<svg version="1.0" xmlns="http://www.w3.org/2000/svg"
 width="248.000000pt" height="248.000000pt" viewBox="0 0 248.000000 248.000000"
 preserveAspectRatio="xMidYMid meet">
<metadata>
Created by potrace 1.10, written by Peter Selinger 2001-2011
</metadata>
<g transform="translate(0.000000,248.000000) scale(0.100000,-0.100000)"
fill="#000000" stroke="none">
<path d="M572 2368 c-5 -7 -13 -116 -17 -243 -4 -126 -10 -272 -14 -324 l-6
-95 -55 -12 c-30 -7 -113 -23 -185 -35 -72 -12 -140 -28 -152 -36 -31 -18 -30
-58 1 -78 22 -14 34 -14 142 5 66 12 147 27 182 35 35 8 65 15 68 15 6 0 3
-299 -5 -455 l-6 -130 -120 -52 c-66 -29 -131 -52 -145 -53 -64 -1 -93 -64
-45 -96 33 -22 69 -14 200 42 59 25 109 44 112 41 2 -3 1 -107 -3 -232 l-7
-226 -19 33 c-31 51 -59 78 -83 78 -49 0 -60 -54 -22 -110 13 -19 39 -69 57
-110 41 -91 65 -120 100 -120 60 0 79 71 80 295 0 61 3 187 7 282 l6 172 31
12 c17 7 72 31 121 54 50 23 116 52 148 65 32 14 63 33 69 43 14 28 1 66 -25
72 -24 6 -133 -32 -225 -79 -26 -13 -64 -31 -85 -40 l-38 -16 7 273 c4 181 11
274 18 279 6 4 31 10 56 14 82 11 230 43 250 54 24 13 27 62 4 81 -13 10 -28
11 -87 0 -155 -28 -231 -40 -235 -36 -2 2 1 126 8 275 12 276 10 322 -18 353
-18 20 -55 23 -70 5z"/>
</g>
</svg>
