<?xml version="1.0" standalone="no"?>
<!DOCTYPE svg PUBLIC "-//W3C//DTD SVG 20010904//EN"
 "http://www.w3.org/TR/2001/REC-SVG-20010904/DTD/svg10.dtd">
<svg version="1.0" xmlns="http://www.w3.org/2000/svg"
 width="248.000000pt" height="248.000000pt" viewBox="0 0 248.000000 248.000000"
 preserveAspectRatio="xMidYMid meet">
<metadata>
Created by potrace 1.10, written by Peter Selinger 2001-2011
</metadata>
<g transform="translate(0.000000,248.000000) scale(0.100000,-0.100000)"
fill="#000000" stroke="none">
<path d="M540 2210 c-19 -19 -20 -33 -20 -255 l0 -234 -37 -7 c-21 -3 -77 -15
-125 -25 -48 -10 -110 -19 -138 -19 -79 0 -114 -46 -69 -91 25 -25 60 -23 246
13 62 12 114 20 115 17 2 -2 2 -140 0 -306 l-3 -302 -62 -34 c-34 -19 -82 -46
-107 -59 -207 -111 -289 -165 -297 -196 -14 -57 37 -78 95 -39 44 28 268 156
330 186 l42 21 0 -276 0 -276 -40 36 c-46 41 -62 44 -91 15 -29 -29 -18 -54
49 -117 100 -94 135 -109 172 -72 19 19 20 33 20 387 l0 368 86 50 c87 51 109
79 87 114 -17 27 -51 24 -108 -8 -30 -17 -57 -31 -60 -31 -3 0 -5 126 -5 280
0 216 3 281 13 284 6 2 65 16 130 31 145 34 166 51 136 107 -10 18 -17 20 -64
14 -28 -3 -70 -12 -91 -19 -21 -8 -56 -17 -76 -21 l-38 -7 0 226 c0 212 -1
226 -20 245 -11 11 -27 20 -35 20 -8 0 -24 -9 -35 -20z"/>
<path d="M1840 2160 c-199 -20 -446 -59 -630 -99 -52 -12 -111 -21 -131 -21
-20 0 -41 -6 -46 -12 -9 -11 -13 -72 -26 -362 -2 -44 16 -62 55 -53 37 10 48
46 58 190 5 71 11 131 12 132 12 12 399 82 601 110 101 14 417 21 417 10 0
-22 -53 -100 -103 -152 -77 -81 -82 -135 -10 -135 37 0 136 105 189 202 21 39
46 84 55 100 21 39 13 79 -18 91 -28 10 -311 10 -423 -1z"/>
<path d="M1634 1935 c-20 -31 -31 -194 -15 -250 14 -54 61 -108 114 -133 46
-22 196 -52 258 -52 45 0 72 20 72 54 0 42 -16 50 -111 57 -114 8 -169 24
-204 59 -28 28 -28 30 -28 147 0 79 -4 123 -12 131 -20 20 -56 14 -74 -13z"/>
<path d="M1270 1820 c-11 -11 -20 -32 -20 -47 0 -36 -68 -188 -110 -247 -29
-40 -32 -49 -22 -70 13 -29 44 -41 71 -26 42 22 151 238 166 327 5 34 3 45
-14 62 -26 26 -46 26 -71 1z"/>
<path d="M1450 1435 c-14 -17 -29 -124 -30 -212 l0 -62 -47 -6 c-40 -5 -101
-17 -261 -51 -30 -6 -48 -45 -33 -73 17 -31 48 -34 136 -11 92 24 195 37 195
24 0 -4 -10 -19 -23 -33 -13 -15 -59 -84 -103 -155 -43 -70 -106 -160 -140
-200 -57 -67 -206 -201 -266 -240 -53 -34 -44 -96 13 -96 36 0 57 14 177 116
126 108 210 208 298 354 l39 65 3 -170 c2 -93 -2 -253 -8 -354 -9 -161 -9
-187 5 -207 20 -31 60 -32 79 -2 16 26 36 368 36 602 l0 138 91 -83 c245 -227
339 -297 539 -406 56 -30 128 -55 151 -51 29 4 43 29 35 61 -5 20 -19 30 -64
47 -121 45 -300 164 -457 303 -197 175 -298 286 -293 324 3 26 6 28 66 35 104
11 294 57 314 75 23 21 21 71 -4 87 -13 8 -26 7 -50 -2 -35 -13 -192 -46 -270
-57 l-48 -6 0 118 c0 79 -4 123 -12 131 -16 16 -53 15 -68 -3z"/>
</g>
</svg>
