<?xml version="1.0" standalone="no"?>
<!DOCTYPE svg PUBLIC "-//W3C//DTD SVG 20010904//EN"
 "http://www.w3.org/TR/2001/REC-SVG-20010904/DTD/svg10.dtd">
<svg version="1.0" xmlns="http://www.w3.org/2000/svg"
 width="248.000000pt" height="248.000000pt" viewBox="0 0 248.000000 248.000000"
 preserveAspectRatio="xMidYMid meet">
<metadata>
Created by potrace 1.10, written by Peter Selinger 2001-2011
</metadata>
<g transform="translate(0.000000,248.000000) scale(0.100000,-0.100000)"
fill="#000000" stroke="none">
<path d="M1202 2378 c-9 -9 -12 -88 -12 -295 0 -156 -1 -283 -2 -283 -19 -1
-209 -24 -338 -40 -91 -11 -168 -20 -172 -20 -5 0 -8 75 -8 168 0 183 -8 215
-51 220 -50 6 -54 -11 -54 -253 0 -251 2 -260 64 -252 20 3 108 14 196 26 256
35 308 40 535 51 118 6 226 13 240 16 14 3 100 11 192 18 110 8 172 17 183 26
15 12 16 41 13 255 -3 210 -5 244 -21 268 -19 30 -57 36 -76 13 -9 -11 -12
-77 -11 -230 0 -119 -1 -216 -2 -216 -7 -1 -221 -21 -318 -30 -58 -5 -140 -9
-182 -9 l-77 -1 -3 269 c-3 248 -4 271 -22 290 -21 23 -56 27 -74 9z"/>
<path d="M1915 1599 c-56 -7 -186 -24 -365 -48 -191 -26 -336 -42 -465 -51
-302 -21 -508 -52 -538 -80 -17 -16 -17 -26 -7 -168 29 -377 -14 -653 -145
-918 -36 -72 -65 -141 -65 -153 0 -13 10 -26 25 -33 39 -18 71 13 126 121 67
131 125 304 148 446 35 215 36 222 17 599 -1 26 3 31 34 37 49 11 294 36 420
44 58 3 150 12 205 20 55 7 136 16 180 20 44 4 100 11 125 17 25 5 79 13 120
18 275 32 300 38 300 84 0 43 -31 55 -115 45z"/>
<path d="M1785 1178 c-38 -51 -104 -128 -147 -171 -79 -79 -91 -103 -62 -131
28 -29 61 -17 128 43 35 32 174 203 204 252 36 59 25 99 -28 99 -22 0 -39 -17
-95 -92z"/>
<path d="M802 1158 c-17 -17 -15 -69 5 -98 9 -14 33 -43 52 -65 20 -23 47 -60
61 -83 72 -123 105 -147 143 -104 23 25 21 39 -6 81 -13 20 -41 63 -62 96 -21
33 -52 76 -69 97 -17 20 -39 48 -49 62 -19 28 -55 34 -75 14z"/>
</g>
</svg>
