<?xml version="1.0" standalone="no"?>
<!DOCTYPE svg PUBLIC "-//W3C//DTD SVG 20010904//EN"
 "http://www.w3.org/TR/2001/REC-SVG-20010904/DTD/svg10.dtd">
<svg version="1.0" xmlns="http://www.w3.org/2000/svg"
 width="248.000000pt" height="248.000000pt" viewBox="0 0 248.000000 248.000000"
 preserveAspectRatio="xMidYMid meet">
<metadata>
Created by potrace 1.10, written by Peter Selinger 2001-2011
</metadata>
<g transform="translate(0.000000,248.000000) scale(0.100000,-0.100000)"
fill="#000000" stroke="none">
<path d="M1593 2278 c-19 -25 -23 -53 -34 -222 -5 -94 -15 -214 -22 -266 l-12
-95 -70 -8 c-117 -12 -235 -27 -266 -34 l-29 -5 0 138 c0 155 -9 187 -52 192
-20 2 -31 -4 -43 -22 -14 -21 -16 -51 -13 -205 4 -228 -2 -220 135 -201 137
18 201 25 503 49 438 35 451 38 464 102 16 82 -7 322 -35 355 -7 8 -24 14 -38
12 -37 -4 -51 -40 -41 -108 5 -30 9 -92 9 -136 l1 -81 -32 -7 c-17 -3 -86 -11
-152 -16 -67 -6 -145 -12 -173 -14 l-53 -5 0 44 c0 24 4 77 10 117 5 40 14
143 19 228 9 132 8 158 -5 177 -16 25 -56 31 -71 11z"/>
<path d="M426 1858 c-8 -14 -17 -65 -21 -128 -10 -162 -7 -155 -73 -168 -128
-26 -223 -51 -237 -62 -19 -16 -19 -54 0 -70 18 -15 46 -16 101 -6 l41 7 6
-83 c4 -46 13 -192 21 -324 9 -133 17 -248 18 -255 2 -7 -27 -25 -68 -43 -40
-17 -79 -37 -88 -45 -20 -17 -21 -55 -1 -71 23 -19 69 -7 196 50 62 29 184 83
268 121 237 105 246 110 249 141 2 18 -4 31 -18 41 -26 18 -61 10 -158 -34
l-63 -28 5 27 c2 15 10 74 16 132 6 58 15 137 20 175 8 61 21 199 24 259 1 23
31 33 102 35 93 2 140 46 99 91 -23 25 -45 25 -220 -4 -77 -12 -141 -22 -142
-22 0 1 3 55 8 120 7 101 6 124 -6 143 -20 30 -60 30 -79 1z m134 -375 c0 -10
-7 -76 -15 -148 -9 -71 -20 -175 -26 -230 -5 -55 -12 -107 -14 -115 -3 -8 -5
-41 -6 -73 l-2 -59 -53 -26 c-30 -14 -55 -24 -57 -21 -3 2 -10 99 -16 214 -7
116 -16 260 -20 320 -5 61 -7 111 -6 113 2 3 151 32 208 41 4 0 7 -7 7 -16z"/>
</g>
</svg>
