<?xml version="1.0" standalone="no"?>
<!DOCTYPE svg PUBLIC "-//W3C//DTD SVG 20010904//EN"
 "http://www.w3.org/TR/2001/REC-SVG-20010904/DTD/svg10.dtd">
<svg version="1.0" xmlns="http://www.w3.org/2000/svg"
 width="248.000000pt" height="248.000000pt" viewBox="0 0 248.000000 248.000000"
 preserveAspectRatio="xMidYMid meet">
<metadata>
Created by potrace 1.10, written by Peter Selinger 2001-2011
</metadata>
<g transform="translate(0.000000,248.000000) scale(0.100000,-0.100000)"
fill="#000000" stroke="none">
<path d="M426 1858 c-8 -14 -17 -65 -21 -128 -10 -162 -7 -155 -73 -168 -129
-26 -223 -51 -238 -63 -23 -19 -13 -62 17 -76 21 -10 44 -8 145 16 66 16 169
36 229 45 61 10 143 24 184 32 40 8 88 14 106 14 82 0 129 47 90 90 -23 25
-45 25 -220 -4 -77 -12 -141 -22 -142 -22 0 1 3 55 8 120 7 101 6 124 -6 143
-20 30 -60 30 -79 1z"/>
</g>
</svg>
