<?xml version="1.0" standalone="no"?>
<!DOCTYPE svg PUBLIC "-//W3C//DTD SVG 20010904//EN"
 "http://www.w3.org/TR/2001/REC-SVG-20010904/DTD/svg10.dtd">
<svg version="1.0" xmlns="http://www.w3.org/2000/svg"
 width="248.000000pt" height="248.000000pt" viewBox="0 0 248.000000 248.000000"
 preserveAspectRatio="xMidYMid meet">
<metadata>
Created by potrace 1.10, written by Peter Selinger 2001-2011
</metadata>
<g transform="translate(0.000000,248.000000) scale(0.100000,-0.100000)"
fill="#000000" stroke="none">
<path d="M1591 2276 c-15 -18 -31 -121 -31 -203 0 -35 -7 -131 -16 -215 -19
-184 -12 -228 36 -228 41 0 60 32 60 102 0 31 4 90 10 130 5 40 14 143 19 228
9 132 8 158 -5 177 -16 26 -55 30 -73 9z"/>
<path d="M426 1858 c-8 -14 -17 -65 -21 -128 -10 -162 -7 -155 -73 -168 -128
-26 -223 -51 -237 -62 -19 -16 -19 -54 0 -70 18 -15 46 -16 101 -6 l41 7 6
-83 c4 -46 13 -189 22 -318 8 -129 16 -244 17 -254 2 -16 -12 -26 -68 -50 -40
-17 -79 -37 -88 -45 -20 -17 -21 -55 -1 -71 23 -19 69 -7 196 50 62 29 184 83
268 121 237 105 246 110 249 141 2 18 -4 31 -18 41 -26 18 -61 10 -158 -34
l-63 -28 5 27 c2 15 10 74 16 132 6 58 15 137 20 175 8 61 21 199 24 259 1 23
31 33 102 35 93 2 140 46 99 91 -23 25 -45 25 -220 -4 -77 -12 -141 -22 -142
-22 0 1 3 55 8 120 7 101 6 124 -6 143 -20 30 -60 30 -79 1z m134 -375 c0 -10
-7 -76 -15 -148 -9 -71 -20 -175 -26 -230 -5 -55 -12 -107 -14 -115 -3 -8 -5
-41 -6 -73 l-2 -59 -53 -26 c-30 -14 -55 -24 -57 -21 -3 2 -10 99 -16 214 -7
116 -16 260 -20 320 -5 61 -7 111 -6 113 2 3 151 32 208 41 4 0 7 -7 7 -16z"/>
</g>
</svg>
