<?xml version="1.0" standalone="no"?>
<!DOCTYPE svg PUBLIC "-//W3C//DTD SVG 20010904//EN"
 "http://www.w3.org/TR/2001/REC-SVG-20010904/DTD/svg10.dtd">
<svg version="1.0" xmlns="http://www.w3.org/2000/svg"
 width="248.000000pt" height="248.000000pt" viewBox="0 0 248.000000 248.000000"
 preserveAspectRatio="xMidYMid meet">
<metadata>
Created by potrace 1.10, written by Peter Selinger 2001-2011
</metadata>
<g transform="translate(0.000000,248.000000) scale(0.100000,-0.100000)"
fill="#000000" stroke="none">
<path d="M1202 2378 c-9 -9 -12 -88 -12 -295 0 -156 -1 -283 -2 -283 -19 -1
-209 -24 -338 -40 -91 -11 -168 -20 -172 -20 -5 0 -8 75 -8 168 0 183 -8 215
-51 220 -50 6 -54 -11 -54 -253 0 -251 2 -260 64 -252 20 3 108 14 196 26 256
35 308 40 535 51 118 6 226 13 240 16 14 3 100 11 192 18 110 8 172 17 183 26
15 12 16 41 13 255 -3 210 -5 244 -21 268 -19 30 -57 36 -76 13 -9 -11 -12
-77 -11 -230 0 -119 -1 -216 -2 -216 -7 -1 -221 -21 -318 -30 -58 -5 -140 -9
-182 -9 l-77 -1 -3 269 c-3 248 -4 271 -22 290 -21 23 -56 27 -74 9z"/>
</g>
</svg>
