<?xml version="1.0" standalone="no"?>
<!DOCTYPE svg PUBLIC "-//W3C//DTD SVG 20010904//EN"
 "http://www.w3.org/TR/2001/REC-SVG-20010904/DTD/svg10.dtd">
<svg version="1.0" xmlns="http://www.w3.org/2000/svg"
 width="248.000000pt" height="248.000000pt" viewBox="0 0 248.000000 248.000000"
 preserveAspectRatio="xMidYMid meet">
<metadata>
Created by potrace 1.10, written by Peter Selinger 2001-2011
</metadata>
<g transform="translate(0.000000,248.000000) scale(0.100000,-0.100000)"
fill="#000000" stroke="none">
<path d="M540 2210 c-19 -19 -20 -33 -20 -255 l0 -234 -37 -7 c-21 -3 -77 -15
-125 -25 -48 -10 -110 -19 -138 -19 -79 0 -114 -46 -69 -91 25 -25 60 -23 246
13 62 12 114 20 115 17 2 -2 2 -140 0 -306 l-3 -302 -62 -34 c-34 -19 -82 -46
-107 -59 -207 -111 -289 -165 -297 -196 -14 -57 37 -78 95 -39 44 28 268 156
330 186 l42 21 0 -276 0 -276 -40 36 c-46 41 -62 44 -91 15 -29 -29 -18 -54
49 -117 100 -94 135 -109 172 -72 19 19 20 33 20 387 l0 368 86 50 c87 51 109
79 87 114 -17 27 -51 24 -108 -8 -30 -17 -57 -31 -60 -31 -3 0 -5 126 -5 280
0 216 3 281 13 284 6 2 65 16 130 31 145 34 166 51 136 107 -10 18 -17 20 -64
14 -28 -3 -70 -12 -91 -19 -21 -8 -56 -17 -76 -21 l-38 -7 0 226 c0 212 -1
226 -20 245 -11 11 -27 20 -35 20 -8 0 -24 -9 -35 -20z"/>
<path d="M1840 2160 c-199 -20 -446 -59 -630 -99 -52 -12 -111 -21 -131 -21
-20 0 -41 -6 -46 -12 -9 -11 -13 -72 -26 -362 -2 -44 16 -62 55 -53 37 10 48
46 58 190 5 71 11 131 12 132 12 12 399 82 601 110 101 14 417 21 417 10 0
-22 -53 -100 -103 -152 -77 -81 -82 -135 -10 -135 37 0 136 105 189 202 21 39
46 84 55 100 21 39 13 79 -18 91 -28 10 -311 10 -423 -1z"/>
</g>
</svg>
