<?xml version="1.0" standalone="no"?>
<!DOCTYPE svg PUBLIC "-//W3C//DTD SVG 20010904//EN"
 "http://www.w3.org/TR/2001/REC-SVG-20010904/DTD/svg10.dtd">
<svg version="1.0" xmlns="http://www.w3.org/2000/svg"
 width="248.000000pt" height="248.000000pt" viewBox="0 0 248.000000 248.000000"
 preserveAspectRatio="xMidYMid meet">
<metadata>
Created by potrace 1.10, written by Peter Selinger 2001-2011
</metadata>
<g transform="translate(0.000000,248.000000) scale(0.100000,-0.100000)"
fill="#000000" stroke="none">
<path d="M1202 2378 c-9 -9 -12 -88 -12 -295 0 -156 -1 -283 -2 -283 -19 -1
-209 -24 -338 -40 -91 -11 -168 -20 -172 -20 -5 0 -8 75 -8 168 0 183 -8 215
-51 220 -50 6 -54 -11 -54 -253 0 -251 2 -260 64 -252 20 3 108 14 196 26 256
35 308 40 535 51 118 6 226 13 240 16 14 3 100 11 192 18 173 13 198 20 198
60 0 48 -11 51 -142 48 -68 -1 -146 -6 -174 -11 -28 -6 -123 -13 -212 -17
l-161 -7 -3 271 c-3 249 -4 272 -22 291 -21 23 -56 27 -74 9z"/>
</g>
</svg>
