<?xml version="1.0" standalone="no"?>
<!DOCTYPE svg PUBLIC "-//W3C//DTD SVG 20010904//EN"
 "http://www.w3.org/TR/2001/REC-SVG-20010904/DTD/svg10.dtd">
<svg version="1.0" xmlns="http://www.w3.org/2000/svg"
 width="248.000000pt" height="248.000000pt" viewBox="0 0 248.000000 248.000000"
 preserveAspectRatio="xMidYMid meet">
<metadata>
Created by potrace 1.10, written by Peter Selinger 2001-2011
</metadata>
<g transform="translate(0.000000,248.000000) scale(0.100000,-0.100000)"
fill="#000000" stroke="none">
<path d="M1810 2312 c-25 -16 -70 -38 -100 -51 -30 -13 -96 -43 -146 -66 -49
-24 -108 -50 -130 -58 -74 -28 -153 -63 -168 -76 -19 -16 -21 -52 -4 -69 20
-20 70 -14 136 18 35 17 68 30 74 30 5 0 60 24 121 53 62 29 141 66 177 81 89
37 160 90 160 119 0 53 -51 61 -120 19z"/>
<path d="M773 2287 c-21 -18 -92 -68 -158 -111 -66 -43 -155 -102 -198 -133
-72 -51 -78 -57 -75 -86 2 -24 10 -34 31 -41 24 -9 38 -3 132 62 l105 71 0
-167 c0 -92 -4 -172 -8 -178 -4 -6 -52 -18 -107 -27 -55 -10 -136 -24 -180
-32 -44 -8 -98 -15 -120 -15 -49 0 -85 -23 -85 -54 0 -59 57 -65 257 -27 178
34 203 37 203 19 -1 -35 -70 -268 -110 -373 -70 -180 -84 -216 -135 -360 -55
-156 -105 -281 -149 -375 -30 -64 -31 -73 -10 -94 24 -25 60 -20 83 12 37 52
122 268 247 626 14 38 28 74 33 80 4 6 21 48 36 93 16 45 32 80 37 77 10 -6 9
-678 -1 -914 -9 -200 -4 -225 44 -225 23 0 33 7 44 29 22 46 34 434 28 886
l-6 395 20 -25 c11 -14 50 -64 86 -113 71 -94 100 -112 133 -82 11 10 20 25
20 34 0 16 -94 152 -161 232 -37 44 -85 127 -78 134 2 2 41 8 86 15 93 12 194
37 207 50 13 13 10 61 -5 71 -20 13 -43 11 -179 -12 -67 -11 -123 -19 -123
-17 -1 2 -1 95 1 208 l3 206 54 32 c88 53 127 116 93 150 -21 21 -57 13 -95
-21z"/>
<path d="M2179 2006 c-2 -2 -83 -11 -179 -20 -96 -9 -222 -21 -280 -26 -58 -5
-152 -12 -210 -15 -116 -6 -301 -21 -429 -35 -90 -10 -121 -27 -121 -65 0 -45
19 -49 163 -36 72 7 227 19 342 27 483 32 738 59 773 80 29 19 29 58 0 78 -21
15 -50 21 -59 12z"/>
<path d="M1919 1736 c-3 -3 -95 -13 -205 -22 -109 -8 -237 -19 -284 -24 -47
-5 -124 -9 -172 -9 -75 -1 -90 -4 -113 -23 l-25 -23 15 -124 c9 -68 17 -127
20 -130 2 -4 8 -50 14 -103 12 -104 37 -215 54 -236 17 -21 60 -10 74 18 10
21 9 38 -2 85 -7 33 -15 80 -17 105 l-3 45 110 6 c116 7 361 24 508 35 102 8
95 19 72 -131 -16 -109 -7 -140 40 -140 40 0 48 20 75 195 51 338 50 418 -7
455 -25 17 -142 33 -154 21z m91 -170 c0 -35 -3 -76 -6 -92 -5 -28 -7 -29 -72
-31 -37 -1 -143 -7 -237 -14 -252 -17 -429 -25 -437 -19 -5 3 -11 40 -14 82
l-7 76 99 7 c55 3 131 10 169 15 39 5 137 14 219 20 82 6 152 13 155 15 2 3
33 5 68 5 l63 0 0 -64z"/>
</g>
</svg>
