<?xml version="1.0" standalone="no"?>
<!DOCTYPE svg PUBLIC "-//W3C//DTD SVG 20010904//EN"
 "http://www.w3.org/TR/2001/REC-SVG-20010904/DTD/svg10.dtd">
<svg version="1.0" xmlns="http://www.w3.org/2000/svg"
 width="248.000000pt" height="248.000000pt" viewBox="0 0 248.000000 248.000000"
 preserveAspectRatio="xMidYMid meet">
<metadata>
Created by potrace 1.10, written by Peter Selinger 2001-2011
</metadata>
<g transform="translate(0.000000,248.000000) scale(0.100000,-0.100000)"
fill="#000000" stroke="none">
<path d="M1810 2312 c-25 -16 -70 -38 -100 -51 -30 -13 -96 -43 -146 -66 -49
-24 -108 -50 -130 -58 -74 -28 -153 -63 -168 -76 -19 -16 -21 -52 -4 -69 20
-20 67 -14 137 17 36 16 89 38 116 49 l50 21 3 -61 c2 -33 1 -62 -2 -65 -2 -3
-62 -9 -133 -13 -172 -11 -371 -29 -408 -36 -39 -8 -65 -32 -65 -59 0 -45 19
-49 163 -36 169 15 371 30 420 31 l37 0 0 -64 c0 -49 -4 -65 -16 -70 -24 -9
-228 -26 -316 -26 -65 0 -81 -3 -103 -22 -25 -23 -25 -23 -15 -108 13 -103 49
-341 70 -459 12 -68 20 -71 212 -71 l168 0 0 -123 0 -124 -102 -12 c-264 -31
-268 -32 -268 -76 0 -40 26 -50 114 -47 45 1 104 6 131 11 28 5 67 12 88 15
l37 5 -6 -157 c-6 -180 1 -207 51 -207 43 0 55 32 55 146 0 53 3 123 6 156 l7
60 164 9 c145 8 167 12 179 29 14 19 11 51 -8 70 -6 6 -73 9 -174 7 l-164 -3
0 119 c0 100 3 121 16 126 9 3 72 6 140 6 123 0 181 12 199 40 9 15 52 295 67
437 14 131 4 180 -40 209 -31 21 -89 23 -269 9 l-113 -8 0 65 c0 76 2 78 87
78 99 0 437 41 461 56 47 30 6 105 -50 91 -26 -7 -290 -33 -420 -42 l-88 -6
-1 75 c-1 42 -2 81 -3 87 -1 7 36 28 81 48 109 48 173 93 173 124 0 53 -51 62
-120 19z m200 -746 c0 -35 -3 -76 -6 -92 l-6 -29 -106 -4 c-59 -3 -127 -5
-152 -5 l-45 -1 -3 88 -3 87 53 1 c29 0 73 4 98 8 25 5 73 9 108 10 l62 1 0
-64z m-427 -48 c3 -46 2 -87 -3 -92 -10 -10 -311 -25 -322 -16 -5 3 -11 40
-14 82 l-7 76 99 6 c55 4 122 11 149 15 98 17 91 21 98 -71z m397 -195 c0 -9
-5 -54 -12 -100 l-12 -83 -96 0 c-52 0 -112 -3 -134 -7 l-38 -6 3 91 c2 50 7
94 11 98 8 7 136 20 231 23 38 1 47 -2 47 -16z m-394 -55 c-3 -29 -6 -72 -6
-95 l0 -43 -140 0 -139 0 -10 38 c-5 20 -11 57 -13 82 l-3 45 133 7 c74 3 136
9 139 12 4 3 15 6 26 6 18 0 19 -5 13 -52z"/>
<path d="M773 2287 c-21 -18 -92 -68 -158 -111 -66 -43 -155 -102 -198 -133
-72 -51 -78 -57 -75 -86 2 -24 10 -34 31 -41 24 -9 38 -3 132 62 l105 71 0
-167 c0 -92 -4 -172 -8 -178 -4 -6 -52 -18 -107 -27 -55 -10 -136 -24 -180
-32 -44 -8 -98 -15 -120 -15 -49 0 -85 -23 -85 -54 0 -59 57 -65 257 -27 178
34 203 37 203 19 -1 -35 -70 -268 -110 -373 -70 -180 -84 -216 -135 -360 -55
-156 -105 -281 -149 -375 -30 -64 -31 -73 -10 -94 24 -25 60 -20 83 12 37 52
122 268 247 626 14 38 28 74 33 80 4 6 21 48 36 93 16 45 32 80 37 77 10 -6 9
-678 -1 -914 -9 -200 -4 -225 44 -225 23 0 33 7 44 29 22 46 34 434 28 886
l-6 395 20 -25 c11 -14 50 -64 86 -113 71 -94 100 -112 133 -82 11 10 20 25
20 34 0 16 -94 152 -161 232 -37 44 -85 127 -78 134 2 2 41 8 86 15 93 12 194
37 207 50 13 13 10 61 -5 71 -20 13 -43 11 -179 -12 -67 -11 -123 -19 -123
-17 -1 2 -1 95 1 208 l3 206 54 32 c88 53 127 116 93 150 -21 21 -57 13 -95
-21z"/>
</g>
</svg>
