<?xml version="1.0" standalone="no"?>
<!DOCTYPE svg PUBLIC "-//W3C//DTD SVG 20010904//EN"
 "http://www.w3.org/TR/2001/REC-SVG-20010904/DTD/svg10.dtd">
<svg version="1.0" xmlns="http://www.w3.org/2000/svg"
 width="248.000000pt" height="248.000000pt" viewBox="0 0 248.000000 248.000000"
 preserveAspectRatio="xMidYMid meet">
<metadata>
Created by potrace 1.10, written by Peter Selinger 2001-2011
</metadata>
<g transform="translate(0.000000,248.000000) scale(0.100000,-0.100000)"
fill="#000000" stroke="none">
<path d="M773 2287 c-21 -18 -92 -68 -158 -111 -66 -43 -155 -102 -198 -133
-72 -51 -78 -57 -75 -86 2 -24 10 -34 30 -41 24 -8 37 -3 114 50 140 96 174
118 266 177 92 60 128 97 128 131 0 54 -53 61 -107 13z"/>
<path d="M885 1738 c-94 -17 -209 -36 -385 -62 -58 -9 -141 -23 -185 -31 -44
-8 -98 -15 -120 -15 -49 0 -85 -23 -85 -54 0 -59 57 -65 255 -28 88 17 189 33
225 36 36 3 99 13 140 21 41 7 107 19 145 25 141 22 179 45 157 95 -14 31 -42
33 -147 13z"/>
</g>
</svg>
