<?xml version="1.0" standalone="no"?>
<!DOCTYPE svg PUBLIC "-//W3C//DTD SVG 20010904//EN"
 "http://www.w3.org/TR/2001/REC-SVG-20010904/DTD/svg10.dtd">
<svg version="1.0" xmlns="http://www.w3.org/2000/svg"
 width="248.000000pt" height="248.000000pt" viewBox="0 0 248.000000 248.000000"
 preserveAspectRatio="xMidYMid meet">
<metadata>
Created by potrace 1.10, written by Peter Selinger 2001-2011
</metadata>
<g transform="translate(0.000000,248.000000) scale(0.100000,-0.100000)"
fill="#000000" stroke="none">
<path d="M1807 2309 c-26 -16 -71 -39 -100 -50 -29 -11 -93 -40 -143 -64 -49
-24 -108 -50 -130 -58 -74 -28 -153 -63 -168 -76 -19 -16 -21 -52 -4 -69 20
-20 67 -14 137 17 36 16 89 38 116 49 l50 21 3 -61 c2 -33 1 -62 -2 -65 -2 -2
-66 -8 -143 -13 -153 -10 -339 -27 -393 -36 -43 -7 -70 -30 -70 -59 0 -45 19
-49 163 -36 169 16 371 30 420 31 l38 0 -3 -67 -3 -68 -45 -7 c-25 -3 -117 -9
-205 -14 -148 -7 -161 -9 -182 -30 -19 -19 -22 -31 -18 -61 21 -165 56 -396
75 -502 12 -68 20 -71 212 -71 l168 0 0 -123 0 -123 -87 -12 c-49 -6 -122 -14
-163 -18 -90 -7 -122 -24 -118 -62 6 -52 67 -56 303 -23 33 4 61 7 63 6 1 -1
0 -63 -4 -137 l-7 -136 -51 -6 c-28 -3 -112 -6 -186 -6 -176 -1 -327 -16 -357
-36 -18 -11 -23 -23 -21 -42 5 -40 39 -51 123 -41 39 5 333 12 654 15 355 3
591 9 603 15 22 12 24 61 2 80 -11 9 -93 14 -335 17 l-319 5 0 86 c0 47 3 109
6 137 l6 51 165 9 c145 8 167 12 179 29 18 24 18 36 0 61 -14 18 -26 19 -180
16 l-166 -4 0 120 c0 100 3 121 16 126 9 3 72 6 140 6 123 0 181 12 199 40 9
15 52 295 67 437 15 150 6 186 -59 215 -37 16 -58 19 -107 14 -34 -3 -105 -9
-158 -12 l-98 -7 0 66 c0 75 2 77 88 77 98 0 435 42 460 57 31 19 27 63 -9 80
-20 10 -47 10 -135 -2 -109 -14 -405 -38 -410 -32 -1 1 -4 40 -5 86 l-2 85 81
35 c108 48 172 94 172 124 0 55 -51 61 -123 16z m202 -751 c-2 -117 3 -112
-119 -118 -58 -2 -125 -4 -150 -5 l-45 0 -3 88 -3 87 53 1 c29 0 73 4 98 8 25
5 73 9 108 10 l62 1 -1 -72z m-426 -40 c3 -46 2 -87 -3 -92 -10 -10 -311 -25
-322 -16 -5 3 -11 40 -14 82 l-7 76 99 7 c55 4 122 10 149 15 98 15 91 20 98
-72z m397 -189 c0 -7 -5 -52 -12 -100 l-12 -89 -80 0 c-45 0 -105 -3 -135 -7
l-53 -6 3 91 c2 50 8 94 12 98 5 5 47 11 95 15 148 10 182 10 182 -2z m-394
-70 c-3 -34 -6 -77 -6 -95 l0 -34 -140 0 -139 0 -10 38 c-5 20 -12 58 -16 85
l-6 47 98 1 c54 0 118 4 143 8 87 16 84 19 76 -50z"/>
<path d="M773 2287 c-21 -18 -92 -68 -158 -111 -226 -146 -270 -180 -273 -208
-4 -35 24 -61 56 -53 20 5 109 62 193 124 18 13 19 8 19 -155 0 -93 -4 -174
-8 -179 -8 -12 -357 -75 -412 -75 -70 0 -107 -60 -58 -94 31 -22 49 -21 250
16 98 17 180 29 184 26 16 -17 -58 -259 -162 -528 -14 -36 -46 -123 -71 -195
-45 -130 -86 -234 -149 -376 -39 -88 -40 -92 -18 -113 24 -25 60 -20 83 12 26
37 111 241 172 412 46 132 73 204 140 382 21 54 36 83 41 75 10 -16 9 -679 -1
-907 -9 -200 -4 -225 44 -225 23 0 33 7 43 29 22 45 35 442 29 886 l-6 395 20
-25 c11 -14 50 -64 86 -113 71 -94 100 -112 133 -82 11 10 20 25 20 34 0 17
-95 154 -149 216 -38 43 -75 102 -85 132 -6 20 -3 22 51 28 32 4 98 16 146 27
92 21 111 36 99 80 -7 29 -46 32 -156 14 -55 -9 -114 -19 -131 -21 l-30 -5 3
198 c2 108 5 202 7 209 2 6 28 27 58 46 62 40 97 80 97 111 0 54 -53 61 -107
13z"/>
</g>
</svg>
