<?xml version="1.0" standalone="no"?>
<!DOCTYPE svg PUBLIC "-//W3C//DTD SVG 20010904//EN"
 "http://www.w3.org/TR/2001/REC-SVG-20010904/DTD/svg10.dtd">
<svg version="1.0" xmlns="http://www.w3.org/2000/svg"
 width="248.000000pt" height="248.000000pt" viewBox="0 0 248.000000 248.000000"
 preserveAspectRatio="xMidYMid meet">
<metadata>
Created by potrace 1.10, written by Peter Selinger 2001-2011
</metadata>
<g transform="translate(0.000000,248.000000) scale(0.100000,-0.100000)"
fill="#000000" stroke="none">
<path d="M818 2093 c-9 -10 -28 -43 -43 -73 -44 -87 -216 -318 -320 -428 -52
-55 -95 -109 -95 -119 0 -27 20 -43 53 -43 49 0 230 201 394 441 46 67 93 163
93 191 0 46 -51 66 -82 31z"/>
<path d="M1452 2048 c-38 -38 26 -110 173 -193 44 -25 113 -68 291 -180 115
-74 169 -90 194 -61 6 8 10 25 8 38 -3 23 -12 30 -150 113 -45 28 -122 76
-170 107 -48 32 -105 66 -126 77 -20 10 -65 40 -99 65 -61 46 -98 57 -121 34z"/>
</g>
</svg>
