<?xml version="1.0" standalone="no"?>
<!DOCTYPE svg PUBLIC "-//W3C//DTD SVG 20010904//EN"
 "http://www.w3.org/TR/2001/REC-SVG-20010904/DTD/svg10.dtd">
<svg version="1.0" xmlns="http://www.w3.org/2000/svg"
 width="248.000000pt" height="248.000000pt" viewBox="0 0 248.000000 248.000000"
 preserveAspectRatio="xMidYMid meet">
<metadata>
Created by potrace 1.10, written by Peter Selinger 2001-2011
</metadata>
<g transform="translate(0.000000,248.000000) scale(0.100000,-0.100000)"
fill="#000000" stroke="none">
<path d="M1120 2241 c-40 -43 -97 -112 -127 -152 -31 -41 -68 -81 -83 -91 -15
-9 -30 -20 -33 -25 -5 -8 3 -260 19 -597 2 -55 9 -105 15 -113 18 -21 53 -15
79 12 20 21 33 25 79 25 31 0 117 7 190 15 100 11 143 12 167 5 40 -14 72 0
78 33 14 67 29 217 41 397 3 47 8 95 11 107 2 12 5 54 5 93 2 107 12 103 -239
90 -116 -5 -218 -13 -226 -16 -36 -14 -11 26 79 126 54 60 95 114 95 126 0 28
-19 44 -51 44 -21 0 -43 -17 -99 -79z m335 -378 c-4 -49 -9 -91 -11 -94 -5 -8
-81 -18 -189 -25 -49 -3 -130 -9 -180 -14 -49 -4 -93 -6 -96 -4 -8 5 -12 140
-4 163 5 15 22 21 88 30 121 16 253 28 331 30 l68 1 -7 -87z m-16 -235 c0 -18
-6 -71 -13 -118 l-11 -85 -50 -3 c-28 -1 -116 -9 -198 -17 -81 -8 -153 -12
-161 -9 -21 8 -29 205 -9 220 14 12 123 23 421 43 19 1 22 -4 21 -31z"/>
<path d="M1977 2096 c-34 -35 -104 -100 -154 -145 -52 -46 -93 -90 -93 -100 0
-22 30 -51 53 -51 38 0 337 280 337 315 0 29 -19 45 -52 45 -22 0 -43 -15 -91
-64z"/>
<path d="M230 1956 c-6 -8 -10 -25 -8 -38 2 -18 31 -37 143 -95 139 -72 180
-84 203 -61 16 16 15 53 0 66 -7 5 -70 39 -141 76 -128 66 -174 78 -197 52z"/>
<path d="M1742 1698 c-17 -17 -15 -53 3 -68 24 -20 162 -97 255 -143 47 -23
113 -59 148 -79 34 -21 71 -38 81 -38 41 0 69 63 39 88 -7 5 -85 47 -173 92
-88 46 -171 91 -185 100 -78 54 -144 72 -168 48z"/>
<path d="M468 1548 c-98 -77 -308 -284 -308 -305 0 -25 19 -43 45 -43 28 0 73
34 180 138 50 48 116 109 148 135 59 50 69 74 41 101 -24 25 -47 19 -106 -26z"/>
<path d="M1980 1047 c-3 -3 -81 -8 -175 -11 -441 -17 -1364 -106 -1400 -136
-20 -16 -19 -54 1 -71 16 -13 85 -9 334 21 206 24 276 31 455 45 390 30 613
45 727 48 76 3 122 8 133 17 19 15 20 54 2 69 -16 12 -69 25 -77 18z"/>
</g>
</svg>
