<?xml version="1.0" standalone="no"?>
<!DOCTYPE svg PUBLIC "-//W3C//DTD SVG 20010904//EN"
 "http://www.w3.org/TR/2001/REC-SVG-20010904/DTD/svg10.dtd">
<svg version="1.0" xmlns="http://www.w3.org/2000/svg"
 width="248.000000pt" height="248.000000pt" viewBox="0 0 248.000000 248.000000"
 preserveAspectRatio="xMidYMid meet">
<metadata>
Created by potrace 1.10, written by Peter Selinger 2001-2011
</metadata>
<g transform="translate(0.000000,248.000000) scale(0.100000,-0.100000)"
fill="#000000" stroke="none">
<path d="M1120 2241 c-40 -43 -97 -112 -127 -152 -31 -41 -68 -81 -83 -91 -15
-9 -30 -20 -33 -25 -5 -8 7 -370 19 -588 4 -60 11 -116 17 -122 15 -20 49 -15
76 11 23 21 39 24 131 30 58 3 145 11 193 17 66 8 96 8 117 -1 33 -13 66 -1
74 27 14 51 58 527 58 632 0 74 1 73 -247 61 -120 -6 -222 -13 -227 -16 -4 -3
-8 1 -8 8 0 7 43 60 95 118 54 60 95 114 95 126 0 28 -19 44 -51 44 -21 0 -43
-17 -99 -79z m335 -378 c-4 -49 -10 -91 -13 -95 -11 -11 -449 -50 -464 -41
-10 5 -10 154 0 170 11 17 267 49 416 52 l68 1 -7 -87z m-16 -235 c0 -18 -6
-71 -13 -118 l-11 -85 -50 -3 c-28 -1 -116 -9 -198 -17 -81 -8 -153 -12 -161
-9 -20 8 -29 205 -10 220 15 12 94 21 299 34 61 4 118 8 128 8 13 2 17 -5 16
-30z"/>
<path d="M1977 2096 c-34 -35 -104 -100 -154 -145 -52 -46 -93 -90 -93 -100 0
-22 30 -51 53 -51 38 0 337 280 337 315 0 29 -19 45 -52 45 -22 0 -43 -15 -91
-64z"/>
<path d="M230 1956 c-6 -8 -10 -25 -8 -38 2 -18 31 -37 143 -95 139 -72 180
-84 203 -61 16 16 15 53 -2 67 -8 7 -71 41 -141 77 -128 65 -173 76 -195 50z"/>
<path d="M448 1531 c-115 -93 -288 -266 -288 -288 0 -25 19 -43 45 -43 28 0
73 34 180 138 50 48 116 109 148 135 59 50 69 74 41 101 -26 27 -50 19 -126
-43z"/>
</g>
</svg>
