<?xml version="1.0" standalone="no"?>
<!DOCTYPE svg PUBLIC "-//W3C//DTD SVG 20010904//EN"
 "http://www.w3.org/TR/2001/REC-SVG-20010904/DTD/svg10.dtd">
<svg version="1.0" xmlns="http://www.w3.org/2000/svg"
 width="248.000000pt" height="248.000000pt" viewBox="0 0 248.000000 248.000000"
 preserveAspectRatio="xMidYMid meet">
<metadata>
Created by potrace 1.10, written by Peter Selinger 2001-2011
</metadata>
<g transform="translate(0.000000,248.000000) scale(0.100000,-0.100000)"
fill="#000000" stroke="none">
<path d="M1120 2241 c-40 -43 -97 -112 -127 -152 -31 -41 -68 -81 -83 -91 -15
-9 -30 -20 -33 -25 -5 -8 7 -370 19 -588 4 -60 11 -116 17 -122 14 -19 51 -16
70 5 15 17 16 35 7 183 -19 317 -23 406 -17 431 6 21 15 27 49 32 70 11 339
36 392 36 l48 0 -6 -87 c-11 -155 -17 -215 -33 -366 -14 -140 -14 -149 2 -167
36 -40 74 -14 86 56 10 63 50 523 50 588 1 79 5 78 -246 66 -120 -6 -222 -13
-227 -16 -4 -3 -8 1 -8 8 0 7 43 60 95 118 54 60 95 114 95 126 0 28 -19 44
-51 44 -21 0 -43 -17 -99 -79z"/>
</g>
</svg>
