<?xml version="1.0" standalone="no"?>
<!DOCTYPE svg PUBLIC "-//W3C//DTD SVG 20010904//EN"
 "http://www.w3.org/TR/2001/REC-SVG-20010904/DTD/svg10.dtd">
<svg version="1.0" xmlns="http://www.w3.org/2000/svg"
 width="248.000000pt" height="248.000000pt" viewBox="0 0 248.000000 248.000000"
 preserveAspectRatio="xMidYMid meet">
<metadata>
Created by potrace 1.10, written by Peter Selinger 2001-2011
</metadata>
<g transform="translate(0.000000,248.000000) scale(0.100000,-0.100000)"
fill="#000000" stroke="none">
<path d="M1120 2241 c-40 -43 -97 -112 -127 -152 -31 -41 -69 -85 -86 -99
l-30 -26 2 -184 c1 -102 6 -228 11 -280 5 -52 10 -124 10 -160 0 -38 5 -71 12
-78 18 -18 53 -15 71 6 15 17 16 35 7 183 -6 90 -13 227 -17 305 l-6 140 30
35 c16 19 48 59 70 89 22 30 77 96 121 145 46 50 82 99 82 111 0 28 -19 44
-51 44 -21 0 -43 -17 -99 -79z"/>
</g>
</svg>
