<?xml version="1.0" standalone="no"?>
<!DOCTYPE svg PUBLIC "-//W3C//DTD SVG 20010904//EN"
 "http://www.w3.org/TR/2001/REC-SVG-20010904/DTD/svg10.dtd">
<svg version="1.0" xmlns="http://www.w3.org/2000/svg"
 width="248.000000pt" height="248.000000pt" viewBox="0 0 248.000000 248.000000"
 preserveAspectRatio="xMidYMid meet">
<metadata>
Created by potrace 1.10, written by Peter Selinger 2001-2011
</metadata>
<g transform="translate(0.000000,248.000000) scale(0.100000,-0.100000)"
fill="#000000" stroke="none">
<path d="M654 2258 c-11 -13 -41 -54 -67 -93 -26 -38 -65 -95 -87 -125 -22
-30 -72 -102 -110 -159 -39 -57 -104 -144 -144 -195 -40 -50 -87 -115 -105
-144 -32 -50 -33 -53 -17 -77 10 -15 26 -25 40 -25 25 0 43 19 121 125 24 33
58 76 75 95 l31 35 -3 -690 c-3 -599 -1 -694 12 -720 17 -34 59 -45 79 -22 9
11 13 214 17 807 l5 792 55 77 c29 42 73 103 97 136 61 86 87 133 87 159 0 48
-52 62 -86 24z"/>
<path d="M1357 2159 c-54 -4 -134 -15 -177 -24 -43 -9 -127 -20 -187 -25 -165
-13 -203 -27 -203 -75 0 -43 18 -47 159 -36 72 5 135 12 141 16 5 3 10 2 10
-2 0 -10 -197 -308 -285 -431 -91 -128 -96 -135 -93 -162 2 -15 13 -30 29 -37
22 -11 44 -8 148 17 67 17 124 30 127 30 6 0 5 -342 -2 -366 -6 -22 -59 -42
-179 -66 -74 -15 -100 -30 -103 -60 -2 -20 4 -31 22 -43 23 -15 31 -16 93 -2
37 8 87 21 111 27 23 7 45 10 48 7 3 -3 0 -56 -6 -119 -6 -62 -13 -140 -16
-173 -8 -101 -5 -96 -111 -144 -112 -51 -133 -66 -133 -96 0 -30 19 -45 56
-45 46 0 316 141 493 257 81 54 162 106 180 115 23 13 31 24 31 46 0 79 -58
68 -220 -42 -107 -73 -182 -117 -188 -111 -5 4 14 217 27 304 7 50 14 54 129
71 69 11 130 36 146 62 7 12 6 24 -2 43 -11 24 -17 26 -50 22 -41 -6 -175 -34
-201 -42 -14 -4 -16 15 -14 192 2 108 4 197 5 198 2 1 47 16 100 32 l98 30 18
-31 c33 -56 83 -106 106 -106 50 0 62 59 22 107 -13 15 -49 71 -81 123 -74
121 -82 130 -115 130 -52 0 -64 -40 -30 -96 12 -18 17 -35 13 -37 -4 -3 -42
-15 -83 -26 -41 -12 -92 -28 -112 -36 -36 -14 -160 -45 -179 -45 -6 0 10 28
35 63 81 110 256 377 278 423 24 49 21 47 191 60 100 7 147 18 159 36 12 20 9
45 -8 62 -17 17 -40 18 -197 5z"/>
</g>
</svg>
