<?xml version="1.0" standalone="no"?>
<!DOCTYPE svg PUBLIC "-//W3C//DTD SVG 20010904//EN"
 "http://www.w3.org/TR/2001/REC-SVG-20010904/DTD/svg10.dtd">
<svg version="1.0" xmlns="http://www.w3.org/2000/svg"
 width="248.000000pt" height="248.000000pt" viewBox="0 0 248.000000 248.000000"
 preserveAspectRatio="xMidYMid meet">
<metadata>
Created by potrace 1.10, written by Peter Selinger 2001-2011
</metadata>
<g transform="translate(0.000000,248.000000) scale(0.100000,-0.100000)"
fill="#000000" stroke="none">
<path d="M654 2258 c-11 -13 -41 -54 -67 -93 -26 -38 -65 -95 -87 -125 -22
-30 -72 -102 -110 -159 -39 -57 -104 -144 -144 -195 -40 -50 -87 -115 -105
-144 -32 -50 -33 -53 -17 -77 10 -15 26 -25 40 -25 25 0 43 19 121 125 24 33
58 76 75 95 l31 35 -3 -690 c-3 -599 -1 -694 12 -720 17 -34 59 -45 79 -22 9
11 13 214 17 807 l5 792 55 77 c29 42 73 103 97 136 61 86 87 133 87 159 0 48
-52 62 -86 24z"/>
</g>
</svg>
