<?xml version="1.0" standalone="no"?>
<!DOCTYPE svg PUBLIC "-//W3C//DTD SVG 20010904//EN"
 "http://www.w3.org/TR/2001/REC-SVG-20010904/DTD/svg10.dtd">
<svg version="1.0" xmlns="http://www.w3.org/2000/svg"
 width="248.000000pt" height="248.000000pt" viewBox="0 0 248.000000 248.000000"
 preserveAspectRatio="xMidYMid meet">
<metadata>
Created by potrace 1.10, written by Peter Selinger 2001-2011
</metadata>
<g transform="translate(0.000000,248.000000) scale(0.100000,-0.100000)"
fill="#000000" stroke="none">
<path d="M865 1854 c-77 -7 -178 -18 -225 -24 -47 -7 -120 -15 -163 -19 -61
-5 -82 -11 -93 -26 -19 -26 -18 -41 6 -65 24 -24 50 -24 185 -5 121 18 115 17
115 4 0 -13 -154 -284 -202 -355 -89 -133 -254 -341 -325 -409 -31 -29 -53
-60 -53 -71 0 -30 34 -58 63 -50 47 12 253 255 407 481 62 90 210 359 216 392
7 35 6 35 153 48 75 6 111 25 111 59 0 50 -25 55 -195 40z"/>
</g>
</svg>
