<?xml version="1.0" standalone="no"?>
<!DOCTYPE svg PUBLIC "-//W3C//DTD SVG 20010904//EN"
 "http://www.w3.org/TR/2001/REC-SVG-20010904/DTD/svg10.dtd">
<svg version="1.0" xmlns="http://www.w3.org/2000/svg"
 width="248.000000pt" height="248.000000pt" viewBox="0 0 248.000000 248.000000"
 preserveAspectRatio="xMidYMid meet">
<metadata>
Created by potrace 1.10, written by Peter Selinger 2001-2011
</metadata>
<g transform="translate(0.000000,248.000000) scale(0.100000,-0.100000)"
fill="#000000" stroke="none">
<path d="M1219 1979 c-21 -21 -22 -27 -15 -186 4 -90 11 -175 16 -188 17 -44
74 -43 90 1 5 13 6 99 3 190 -5 144 -9 170 -25 186 -24 24 -43 23 -69 -3z"/>
<path d="M865 1854 c-77 -7 -178 -18 -225 -24 -47 -7 -120 -15 -163 -19 -61
-5 -82 -11 -93 -26 -19 -26 -18 -41 6 -65 24 -24 50 -24 185 -5 121 18 115 17
115 4 0 -13 -154 -284 -202 -355 -89 -133 -254 -341 -325 -409 -31 -29 -53
-60 -53 -71 0 -30 34 -58 63 -50 22 5 120 101 200 196 l38 45 -6 -249 c-3
-137 -8 -274 -11 -305 -5 -52 -4 -58 24 -88 l30 -32 228 3 c150 1 236 6 250
14 27 14 31 66 40 487 8 347 5 359 -71 370 -25 4 -111 2 -191 -5 -79 -7 -147
-11 -150 -7 -3 3 9 27 27 53 60 87 209 358 215 391 7 35 6 35 153 48 75 6 111
25 111 59 0 50 -25 55 -195 40z m-10 -1006 c-4 -178 -9 -326 -11 -329 -1 -3
-80 -6 -174 -7 l-171 -1 7 87 c4 48 8 191 8 319 l1 231 105 7 c58 4 110 8 115
10 6 2 36 4 69 4 l58 1 -7 -322z"/>
</g>
</svg>
