<?xml version="1.0" standalone="no"?>
<!DOCTYPE svg PUBLIC "-//W3C//DTD SVG 20010904//EN"
 "http://www.w3.org/TR/2001/REC-SVG-20010904/DTD/svg10.dtd">
<svg version="1.0" xmlns="http://www.w3.org/2000/svg"
 width="248.000000pt" height="248.000000pt" viewBox="0 0 248.000000 248.000000"
 preserveAspectRatio="xMidYMid meet">
<metadata>
Created by potrace 1.10, written by Peter Selinger 2001-2011
</metadata>
<g transform="translate(0.000000,248.000000) scale(0.100000,-0.100000)"
fill="#000000" stroke="none">
<path d="M1640 2360 c-16 -16 -19 -28 -14 -58 4 -31 -18 -228 -28 -237 -2 -2
-52 -8 -113 -14 -254 -27 -246 -24 -271 -74 -14 -27 -16 -54 -10 -190 4 -87
11 -169 16 -182 17 -44 74 -43 91 2 5 14 6 84 3 167 -7 133 -6 143 12 150 23
9 233 31 239 25 15 -16 -167 -430 -249 -564 -23 -38 -55 -92 -71 -119 -15 -27
-56 -82 -91 -122 -35 -40 -64 -81 -64 -92 0 -26 20 -42 50 -42 33 0 118 85
180 181 l42 64 -5 -165 c-3 -91 -11 -320 -18 -510 -14 -388 -12 -405 46 -405
21 0 33 7 41 23 6 13 14 122 18 275 3 138 9 307 13 374 l6 123 130 0 130 0 -7
-112 c-16 -293 -19 -567 -6 -583 16 -20 64 -19 81 1 11 14 25 247 38 680 1 20
8 21 144 28 78 4 152 10 165 13 28 7 46 47 32 72 -14 26 -47 30 -202 24 l-138
-6 0 105 0 105 73 11 c39 6 107 13 150 16 86 5 117 21 117 61 0 42 -21 48
-138 41 -59 -3 -135 -9 -169 -12 l-62 -6 5 83 c6 97 -6 132 -47 137 -39 5 -52
-20 -59 -119 -4 -49 -8 -90 -11 -93 -2 -2 -55 -6 -116 -10 -85 -5 -113 -3
-113 6 0 6 27 68 59 137 32 69 73 164 91 211 18 47 42 110 54 141 l21 56 104
7 c134 8 281 8 281 0 0 -4 -21 -31 -46 -61 -52 -61 -55 -97 -8 -109 39 -10 70
13 135 100 74 99 77 130 14 161 -36 18 -58 20 -247 19 -149 -1 -208 2 -208 10
0 6 7 52 14 103 16 100 9 159 -20 180 -25 18 -41 16 -64 -7z m80 -1170 l0
-110 -125 0 -125 0 0 104 c0 91 2 105 18 109 9 3 65 5 125 6 l107 1 0 -110z"/>
<path d="M910 1858 c-58 -4 -161 -15 -230 -24 -69 -9 -160 -19 -203 -23 -61
-5 -82 -11 -93 -26 -19 -26 -18 -41 6 -65 24 -24 50 -24 185 -5 121 18 115 17
115 4 0 -13 -154 -284 -202 -355 -89 -134 -250 -335 -326 -409 -29 -29 -52
-60 -52 -72 0 -29 34 -57 63 -49 22 5 120 101 200 196 l38 45 -5 -239 c-4
-131 -9 -269 -12 -305 -5 -63 -4 -67 24 -98 l29 -31 229 2 c148 2 237 7 250
14 26 14 31 65 40 487 8 347 5 359 -71 370 -25 4 -111 2 -191 -5 -79 -7 -147
-11 -150 -7 -3 3 9 27 27 53 60 87 209 358 215 391 7 35 6 35 153 48 79 6 113
26 109 62 -5 43 -31 50 -148 41z m-55 -1000 c-3 -172 -8 -320 -11 -328 -3 -13
-30 -16 -174 -17 l-171 -2 7 87 c4 48 8 191 8 318 l1 232 110 9 c61 6 139 11
174 11 l63 2 -7 -312z"/>
</g>
</svg>
