<?xml version="1.0" standalone="no"?>
<!DOCTYPE svg PUBLIC "-//W3C//DTD SVG 20010904//EN"
 "http://www.w3.org/TR/2001/REC-SVG-20010904/DTD/svg10.dtd">
<svg version="1.0" xmlns="http://www.w3.org/2000/svg"
 width="248.000000pt" height="248.000000pt" viewBox="0 0 248.000000 248.000000"
 preserveAspectRatio="xMidYMid meet">
<metadata>
Created by potrace 1.10, written by Peter Selinger 2001-2011
</metadata>
<g transform="translate(0.000000,248.000000) scale(0.100000,-0.100000)"
fill="#000000" stroke="none">
<path d="M855 2208 c-253 -18 -473 -62 -513 -101 -13 -13 -13 -26 -4 -89 9
-53 9 -174 2 -448 -24 -899 -28 -982 -42 -991 -7 -5 -55 -25 -106 -45 -95 -38
-118 -59 -107 -95 11 -34 49 -41 98 -19 23 11 105 44 182 74 443 173 608 248
753 342 71 46 82 57 82 82 0 52 -40 67 -88 33 -15 -10 -47 -30 -70 -45 l-44
-27 6 253 c8 320 23 657 42 954 7 98 6 101 -17 117 -13 10 -30 16 -39 16 -8
-1 -69 -6 -135 -11z m91 -160 c-3 -35 -8 -116 -12 -181 -5 -95 -9 -119 -22
-126 -18 -9 -64 -17 -277 -51 -71 -11 -145 -23 -162 -26 l-33 -5 0 164 c0 232
-3 223 84 242 89 19 280 43 364 44 l64 1 -6 -62z m-26 -565 c0 -82 -4 -153 -8
-159 -4 -6 -38 -17 -77 -23 -38 -7 -139 -28 -223 -47 -85 -19 -160 -34 -168
-34 -19 0 -21 312 -1 328 6 5 82 21 167 35 85 15 180 30 210 35 110 19 100 33
100 -135z m-14 -453 c-3 -98 -9 -185 -12 -193 -6 -18 -62 -44 -279 -134 -99
-41 -186 -77 -194 -80 -12 -5 -13 28 -7 230 3 130 9 243 12 250 3 8 24 17 47
20 23 3 96 17 162 32 200 45 239 53 259 54 18 1 19 -6 12 -179z"/>
<path d="M2150 1753 c-182 -10 -478 -38 -625 -58 -93 -13 -195 -26 -225 -30
-67 -8 -100 -28 -100 -59 0 -56 17 -56 340 -11 214 30 612 65 624 54 5 -5 4
-45 -3 -96 -6 -48 -18 -140 -26 -203 -8 -63 -21 -155 -30 -205 -9 -49 -21
-117 -26 -150 -15 -89 -83 -347 -120 -450 -33 -94 -90 -224 -115 -263 l-15
-22 -87 72 c-48 39 -108 91 -135 115 -50 47 -90 55 -110 22 -22 -35 3 -66 140
-181 151 -125 170 -138 206 -138 54 0 126 123 208 352 40 112 110 371 124 458
3 25 13 79 20 120 39 216 75 495 75 588 0 52 -3 63 -22 76 -12 9 -27 15 -33
14 -5 -1 -35 -3 -65 -5z"/>
</g>
</svg>
