<?xml version="1.0" standalone="no"?>
<!DOCTYPE svg PUBLIC "-//W3C//DTD SVG 20010904//EN"
 "http://www.w3.org/TR/2001/REC-SVG-20010904/DTD/svg10.dtd">
<svg version="1.0" xmlns="http://www.w3.org/2000/svg"
 width="248.000000pt" height="248.000000pt" viewBox="0 0 248.000000 248.000000"
 preserveAspectRatio="xMidYMid meet">
<metadata>
Created by potrace 1.10, written by Peter Selinger 2001-2011
</metadata>
<g transform="translate(0.000000,248.000000) scale(0.100000,-0.100000)"
fill="#000000" stroke="none">
<path d="M1630 2399 c-193 -9 -539 -36 -693 -53 -71 -8 -112 -17 -119 -27 -14
-20 0 -610 15 -657 15 -46 45 -62 100 -51 23 4 206 12 407 19 390 12 495 21
517 43 21 21 36 183 37 417 1 261 -3 286 -49 306 -19 8 -38 13 -42 12 -4 0
-82 -5 -173 -9z m158 -202 l3 -97 -78 0 c-43 0 -129 -3 -190 -7 l-113 -6 0 96
0 97 33 1 c17 1 97 5 177 8 80 4 150 7 155 6 6 -1 11 -44 13 -98z m-490 -24
l-3 -98 -45 -2 c-73 -4 -273 -23 -302 -29 l-28 -6 0 100 0 100 133 11 c72 7
139 14 147 15 8 2 34 4 58 5 l43 1 -3 -97z m483 -296 c-4 -64 -9 -119 -12
-121 -2 -2 -84 -6 -181 -8 l-178 -3 0 117 0 118 43 1 c23 1 107 4 187 8 80 3
146 6 147 6 1 -1 -1 -54 -6 -118z m-481 -21 l0 -114 -107 -6 c-60 -3 -143 -8
-185 -11 l-77 -5 -3 106 c-2 65 1 108 7 110 10 4 250 27 328 31 l37 3 0 -114z"/>
</g>
</svg>
