<?xml version="1.0" standalone="no"?>
<!DOCTYPE svg PUBLIC "-//W3C//DTD SVG 20010904//EN"
 "http://www.w3.org/TR/2001/REC-SVG-20010904/DTD/svg10.dtd">
<svg version="1.0" xmlns="http://www.w3.org/2000/svg"
 width="248.000000pt" height="248.000000pt" viewBox="0 0 248.000000 248.000000"
 preserveAspectRatio="xMidYMid meet">
<metadata>
Created by potrace 1.10, written by Peter Selinger 2001-2011
</metadata>
<g transform="translate(0.000000,248.000000) scale(0.100000,-0.100000)"
fill="#000000" stroke="none">
<path d="M363 2067 c-265 -267 -293 -301 -279 -344 6 -19 108 -101 207 -164
40 -26 58 -43 52 -52 -23 -37 -99 -145 -116 -164 -34 -38 -117 -187 -123 -222
-16 -82 27 -87 227 -22 158 51 404 145 427 163 6 6 12 23 12 39 0 22 -7 32
-25 41 -23 10 -43 5 -158 -42 -134 -54 -337 -122 -337 -113 0 3 21 35 47 72
27 36 64 91 84 121 19 30 43 61 52 68 9 8 50 64 91 126 41 62 93 133 115 158
61 69 111 149 111 178 0 54 -55 68 -90 23 -88 -116 -181 -239 -211 -282 l-35
-51 -80 55 c-43 30 -91 65 -106 77 l-28 23 250 251 c212 213 250 256 250 281
0 34 -16 53 -45 53 -13 0 -111 -92 -292 -273z"/>
</g>
</svg>
