<?xml version="1.0" standalone="no"?>
<!DOCTYPE svg PUBLIC "-//W3C//DTD SVG 20010904//EN"
 "http://www.w3.org/TR/2001/REC-SVG-20010904/DTD/svg10.dtd">
<svg version="1.0" xmlns="http://www.w3.org/2000/svg"
 width="248.000000pt" height="248.000000pt" viewBox="0 0 248.000000 248.000000"
 preserveAspectRatio="xMidYMid meet">
<metadata>
Created by potrace 1.10, written by Peter Selinger 2001-2011
</metadata>
<g transform="translate(0.000000,248.000000) scale(0.100000,-0.100000)"
fill="#000000" stroke="none">
<path d="M363 2067 c-265 -267 -293 -301 -279 -344 6 -19 95 -90 211 -168 86
-58 104 -65 133 -54 19 7 23 15 20 41 -3 29 -17 42 -123 119 -66 48 -119 90
-117 95 2 5 113 120 248 256 206 208 244 251 244 275 0 34 -16 53 -45 53 -13
0 -111 -92 -292 -273z"/>
</g>
</svg>
