<?xml version="1.0" standalone="no"?>
<!DOCTYPE svg PUBLIC "-//W3C//DTD SVG 20010904//EN"
 "http://www.w3.org/TR/2001/REC-SVG-20010904/DTD/svg10.dtd">
<svg version="1.0" xmlns="http://www.w3.org/2000/svg"
 width="248.000000pt" height="248.000000pt" viewBox="0 0 248.000000 248.000000"
 preserveAspectRatio="xMidYMid meet">
<metadata>
Created by potrace 1.10, written by Peter Selinger 2001-2011
</metadata>
<g transform="translate(0.000000,248.000000) scale(0.100000,-0.100000)"
fill="#000000" stroke="none">
<path d="M1421 2406 c-8 -10 -11 -45 -7 -113 7 -142 9 -138 -82 -153 -42 -7
-110 -14 -150 -16 -79 -3 -102 -14 -102 -50 0 -53 63 -65 225 -40 50 8 94 12
98 9 5 -3 6 -30 3 -62 -3 -31 -8 -86 -12 -124 -7 -75 3 -97 42 -97 39 0 55 38
60 142 9 165 3 154 88 162 40 4 118 15 172 25 55 11 120 22 146 26 56 7 77 32
59 71 -9 21 -18 24 -60 24 -28 0 -97 -9 -153 -20 -57 -11 -131 -23 -164 -26
-74 -8 -72 -11 -73 120 -1 62 -6 97 -16 113 -17 26 -56 31 -74 9z"/>
</g>
</svg>
