<?xml version="1.0" standalone="no"?>
<!DOCTYPE svg PUBLIC "-//W3C//DTD SVG 20010904//EN"
 "http://www.w3.org/TR/2001/REC-SVG-20010904/DTD/svg10.dtd">
<svg version="1.0" xmlns="http://www.w3.org/2000/svg"
 width="248.000000pt" height="248.000000pt" viewBox="0 0 248.000000 248.000000"
 preserveAspectRatio="xMidYMid meet">
<metadata>
Created by potrace 1.10, written by Peter Selinger 2001-2011
</metadata>
<g transform="translate(0.000000,248.000000) scale(0.100000,-0.100000)"
fill="#000000" stroke="none">
<path d="M1421 2406 c-8 -10 -11 -45 -7 -113 7 -142 9 -138 -82 -153 -42 -7
-110 -14 -150 -16 -79 -3 -102 -14 -102 -50 0 -53 63 -65 225 -40 50 8 94 12
98 9 7 -4 4 -72 -9 -185 -6 -46 -6 -47 -47 -53 -300 -40 -486 -75 -514 -98
-18 -13 -16 -52 2 -67 17 -14 83 -9 185 13 36 8 88 18 116 22 l51 6 12 -77
c26 -156 52 -205 101 -189 29 9 34 47 17 118 -8 34 -18 85 -22 113 l-6 51 108
12 c119 14 446 46 618 61 93 8 113 13 128 31 21 26 21 31 -1 59 -20 25 18 26
-447 -19 -104 -10 -193 -17 -196 -15 -6 3 -1 148 7 200 4 31 5 31 78 38 40 4
118 15 172 25 55 11 121 22 147 26 56 7 78 36 58 74 -15 28 -74 28 -213 1 -57
-11 -131 -23 -164 -26 -74 -8 -72 -11 -73 120 -1 62 -6 97 -16 113 -17 26 -56
31 -74 9z"/>
</g>
</svg>
