<?xml version="1.0" standalone="no"?>
<!DOCTYPE svg PUBLIC "-//W3C//DTD SVG 20010904//EN"
 "http://www.w3.org/TR/2001/REC-SVG-20010904/DTD/svg10.dtd">
<svg version="1.0" xmlns="http://www.w3.org/2000/svg"
 width="248.000000pt" height="248.000000pt" viewBox="0 0 248.000000 248.000000"
 preserveAspectRatio="xMidYMid meet">
<metadata>
Created by potrace 1.10, written by Peter Selinger 2001-2011
</metadata>
<g transform="translate(0.000000,248.000000) scale(0.100000,-0.100000)"
fill="#000000" stroke="none">
<path d="M1741 2190 c-51 -11 -148 -24 -215 -30 -66 -5 -172 -17 -235 -26 -63
-9 -126 -13 -141 -10 -59 11 -95 -56 -48 -88 28 -20 81 -20 206 -1 53 7 153
19 222 25 69 6 170 19 225 29 55 10 121 22 147 26 56 7 77 32 59 71 -9 21 -17
24 -68 23 -32 0 -100 -9 -152 -19z"/>
</g>
</svg>
