<?xml version="1.0" standalone="no"?>
<!DOCTYPE svg PUBLIC "-//W3C//DTD SVG 20010904//EN"
 "http://www.w3.org/TR/2001/REC-SVG-20010904/DTD/svg10.dtd">
<svg version="1.0" xmlns="http://www.w3.org/2000/svg"
 width="248.000000pt" height="248.000000pt" viewBox="0 0 248.000000 248.000000"
 preserveAspectRatio="xMidYMid meet">
<metadata>
Created by potrace 1.10, written by Peter Selinger 2001-2011
</metadata>
<g transform="translate(0.000000,248.000000) scale(0.100000,-0.100000)"
fill="#000000" stroke="none">
<path d="M757 2352 c-9 -10 -24 -35 -33 -57 -52 -126 -309 -449 -533 -669
-125 -123 -139 -147 -105 -180 8 -9 22 -16 29 -16 21 0 118 84 223 193 l92 96
0 -767 c0 -836 -1 -817 55 -817 57 0 55 -25 55 884 l-1 834 24 26 c34 38 89
110 123 161 17 25 47 69 67 98 43 61 87 155 87 186 0 45 -52 62 -83 28z"/>
</g>
</svg>
