<?xml version="1.0" standalone="no"?>
<!DOCTYPE svg PUBLIC "-//W3C//DTD SVG 20010904//EN"
 "http://www.w3.org/TR/2001/REC-SVG-20010904/DTD/svg10.dtd">
<svg version="1.0" xmlns="http://www.w3.org/2000/svg"
 width="248.000000pt" height="248.000000pt" viewBox="0 0 248.000000 248.000000"
 preserveAspectRatio="xMidYMid meet">
<metadata>
Created by potrace 1.10, written by Peter Selinger 2001-2011
</metadata>
<g transform="translate(0.000000,248.000000) scale(0.100000,-0.100000)"
fill="#000000" stroke="none">
<path d="M757 2352 c-9 -10 -24 -35 -33 -57 -52 -126 -309 -449 -533 -669
-125 -123 -139 -147 -105 -180 8 -9 22 -16 29 -16 21 0 118 84 223 193 l92 96
0 -767 c0 -836 -1 -817 55 -817 57 0 55 -25 55 884 l-1 834 24 26 c34 38 89
110 123 161 17 25 47 69 67 98 43 61 87 155 87 186 0 45 -52 62 -83 28z"/>
<path d="M1990 2060 c-63 -10 -198 -29 -300 -44 -102 -15 -210 -30 -240 -35
-30 -5 -111 -16 -180 -25 -259 -35 -290 -45 -290 -91 0 -40 36 -57 101 -45 30
5 108 17 174 26 66 9 145 21 175 25 30 5 87 14 125 19 569 82 618 90 637 107
21 18 24 53 6 71 -16 16 -66 14 -208 -8z"/>
</g>
</svg>
