<?xml version="1.0" standalone="no"?>
<!DOCTYPE svg PUBLIC "-//W3C//DTD SVG 20010904//EN"
 "http://www.w3.org/TR/2001/REC-SVG-20010904/DTD/svg10.dtd">
<svg version="1.0" xmlns="http://www.w3.org/2000/svg"
 width="248.000000pt" height="248.000000pt" viewBox="0 0 248.000000 248.000000"
 preserveAspectRatio="xMidYMid meet">
<metadata>
Created by potrace 1.10, written by Peter Selinger 2001-2011
</metadata>
<g transform="translate(0.000000,248.000000) scale(0.100000,-0.100000)"
fill="#000000" stroke="none">
<path d="M1569 2413 c-10 -12 -15 -66 -19 -209 -3 -108 -9 -197 -15 -203 -10
-10 -40 -15 -265 -45 -259 -35 -290 -45 -290 -91 0 -40 36 -57 101 -45 30 5
108 17 174 26 174 24 220 31 254 39 l31 7 0 -90 0 -90 -27 -6 c-42 -8 -133
-23 -278 -47 -135 -22 -165 -35 -165 -74 0 -58 31 -58 355 1 127 23 117 32
113 -99 -3 -127 5 -150 51 -145 38 4 52 44 58 168 l6 108 81 11 c45 5 126 15
181 22 55 7 110 18 123 26 29 18 29 58 -1 78 -20 13 -36 13 -132 0 -61 -7
-143 -17 -182 -21 l-73 -7 0 90 0 89 88 11 c258 33 437 64 454 80 22 20 20 61
-4 76 -16 11 -124 -2 -428 -48 -52 -8 -97 -14 -100 -15 -3 0 -3 83 -1 185 3
159 1 189 -13 210 -19 29 -57 33 -77 8z"/>
<path d="M757 2352 c-9 -10 -24 -35 -33 -57 -52 -126 -309 -449 -533 -669
-125 -123 -139 -147 -105 -180 8 -9 22 -16 29 -16 21 0 118 84 223 193 l92 96
0 -767 c0 -836 -1 -817 55 -817 57 0 55 -25 55 884 l-1 834 24 26 c34 38 89
110 123 161 17 25 47 69 67 98 43 61 87 155 87 186 0 45 -52 62 -83 28z"/>
</g>
</svg>
