<?xml version="1.0" standalone="no"?>
<!DOCTYPE svg PUBLIC "-//W3C//DTD SVG 20010904//EN"
 "http://www.w3.org/TR/2001/REC-SVG-20010904/DTD/svg10.dtd">
<svg version="1.0" xmlns="http://www.w3.org/2000/svg"
 width="248.000000pt" height="248.000000pt" viewBox="0 0 248.000000 248.000000"
 preserveAspectRatio="xMidYMid meet">
<metadata>
Created by potrace 1.10, written by Peter Selinger 2001-2011
</metadata>
<g transform="translate(0.000000,248.000000) scale(0.100000,-0.100000)"
fill="#000000" stroke="none">
<path d="M651 2376 c-7 -8 -18 -95 -27 -197 -8 -101 -18 -187 -22 -191 -4 -4
-75 -11 -157 -14 -83 -4 -156 -11 -162 -17 -16 -12 -17 -49 -1 -65 8 -8 59
-12 164 -12 84 0 154 -3 156 -7 2 -5 1 -51 -2 -103 l-5 -95 -90 -12 c-318 -42
-314 -40 -281 -151 7 -26 26 -96 40 -157 31 -122 47 -149 86 -141 80 17 225
35 231 29 4 -5 4 -100 -1 -213 -11 -256 -15 -804 -6 -819 10 -16 62 -13 76 5
10 11 13 68 12 232 -1 119 4 350 11 512 l12 295 170 13 c101 8 178 19 191 27
11 7 31 42 44 77 12 34 42 109 66 165 24 57 44 116 44 132 0 53 -10 54 -232
37 -112 -9 -218 -16 -235 -16 l-33 0 0 93 c0 103 7 117 55 117 18 0 56 4 86
10 30 5 98 17 152 26 84 14 100 19 109 39 7 16 7 29 -2 45 -11 20 -18 22 -73
18 -34 -3 -117 -13 -184 -24 -67 -10 -124 -16 -126 -14 -2 3 0 85 6 182 8 141
7 180 -3 193 -16 19 -54 20 -69 1z m418 -773 c0 -5 -19 -55 -42 -113 l-42
-105 -90 -12 c-49 -6 -116 -12 -147 -12 l-58 -1 0 103 c0 56 4 107 8 114 11
17 373 42 371 26z m-481 -140 l-3 -107 -28 -7 c-15 -4 -60 -10 -101 -14 -67
-6 -75 -5 -84 12 -13 24 -46 183 -39 189 4 5 187 30 235 33 22 1 23 0 20 -106z"/>
</g>
</svg>
