<?xml version="1.0" standalone="no"?>
<!DOCTYPE svg PUBLIC "-//W3C//DTD SVG 20010904//EN"
 "http://www.w3.org/TR/2001/REC-SVG-20010904/DTD/svg10.dtd">
<svg version="1.0" xmlns="http://www.w3.org/2000/svg"
 width="248.000000pt" height="248.000000pt" viewBox="0 0 248.000000 248.000000"
 preserveAspectRatio="xMidYMid meet">
<metadata>
Created by potrace 1.10, written by Peter Selinger 2001-2011
</metadata>
<g transform="translate(0.000000,248.000000) scale(0.100000,-0.100000)"
fill="#000000" stroke="none">
<path d="M651 2376 c-7 -8 -18 -95 -27 -197 -8 -101 -18 -187 -22 -191 -4 -4
-75 -11 -157 -14 -83 -4 -156 -11 -162 -17 -16 -12 -17 -49 -1 -65 8 -8 59
-12 164 -12 84 0 154 -3 156 -7 2 -5 1 -51 -2 -103 l-5 -95 -90 -12 c-318 -42
-314 -40 -281 -151 7 -26 26 -96 40 -157 32 -127 47 -150 91 -140 73 16 196
31 200 25 6 -10 -114 -245 -180 -350 -74 -118 -134 -192 -197 -238 -53 -40
-64 -61 -48 -92 27 -50 135 7 221 116 51 65 167 248 195 307 29 62 37 45 30
-65 -8 -144 -10 -693 -2 -707 11 -16 62 -13 77 5 9 12 12 64 10 217 -2 200 14
635 23 645 3 2 27 -13 53 -35 26 -22 70 -52 96 -67 26 -15 63 -41 81 -57 51
-45 96 -35 96 21 0 32 -44 76 -119 120 -66 38 -197 145 -206 167 -3 9 -2 20 2
24 4 3 82 12 173 19 100 7 173 17 186 25 11 7 31 42 44 77 12 34 42 109 66
165 24 57 44 116 44 132 0 53 -10 54 -232 37 -112 -9 -218 -16 -235 -16 l-33
0 0 93 c0 103 7 117 55 117 18 0 56 4 86 10 30 5 98 17 152 26 109 18 130 34
108 81 -11 24 -15 25 -74 21 -34 -3 -117 -13 -184 -24 -67 -10 -124 -16 -126
-14 -2 3 0 85 6 182 8 141 7 180 -3 193 -16 19 -54 20 -69 1z m418 -773 c0 -5
-19 -55 -42 -113 l-42 -105 -90 -12 c-49 -6 -116 -12 -147 -12 l-58 -1 0 103
c0 56 4 107 8 114 11 17 373 42 371 26z m-481 -140 l-3 -107 -28 -7 c-15 -4
-60 -10 -101 -14 -67 -6 -75 -5 -84 12 -13 24 -46 183 -39 189 4 5 187 30 235
33 22 1 23 0 20 -106z"/>
<path d="M2120 2209 c-41 -4 -243 -15 -449 -24 -247 -10 -383 -20 -400 -28
-16 -8 -27 -22 -29 -38 -6 -49 10 -52 215 -40 236 14 223 14 223 -6 0 -24 -61
-143 -106 -209 -40 -58 -43 -59 -169 -69 -44 -4 -86 -12 -93 -19 -20 -19 -31
-1168 -12 -1191 15 -18 54 -20 68 -2 6 7 11 154 14 380 3 265 8 371 16 379 8
8 79 14 210 19 108 4 231 9 272 11 l75 3 -2 -345 c-1 -233 -5 -364 -14 -404
-12 -57 -12 -60 10 -78 30 -23 37 -23 65 5 21 21 23 35 29 162 4 77 9 318 12
535 2 217 7 425 11 462 10 111 16 107 -205 110 l-189 3 38 65 c21 36 49 95 61
132 l23 67 71 5 c38 3 139 9 224 14 133 7 155 10 167 27 17 23 18 36 2 58 -18
22 -50 26 -138 16z m-157 -486 c7 -11 -7 -230 -14 -237 -11 -11 -172 -25 -360
-30 -149 -5 -188 -3 -192 7 -6 16 6 223 13 230 6 7 368 34 472 36 42 0 79 -2
81 -6z"/>
</g>
</svg>
