<?xml version="1.0" standalone="no"?>
<!DOCTYPE svg PUBLIC "-//W3C//DTD SVG 20010904//EN"
 "http://www.w3.org/TR/2001/REC-SVG-20010904/DTD/svg10.dtd">
<svg version="1.0" xmlns="http://www.w3.org/2000/svg"
 width="248.000000pt" height="248.000000pt" viewBox="0 0 248.000000 248.000000"
 preserveAspectRatio="xMidYMid meet">
<metadata>
Created by potrace 1.10, written by Peter Selinger 2001-2011
</metadata>
<g transform="translate(0.000000,248.000000) scale(0.100000,-0.100000)"
fill="#000000" stroke="none">
<path d="M795 2153 c-16 -2 -75 -11 -130 -19 -55 -9 -137 -19 -183 -23 -138
-13 -125 50 -120 -611 3 -311 9 -575 14 -586 5 -12 24 -34 43 -50 29 -24 42
-28 95 -28 106 1 460 25 476 33 8 4 21 21 29 37 13 25 13 109 3 606 -12 559
-16 622 -45 640 -12 8 -126 8 -182 1z m108 -240 c4 -75 7 -180 7 -234 l0 -97
-37 -6 c-21 -3 -78 -10 -128 -17 -49 -6 -128 -17 -175 -25 -47 -8 -88 -14 -92
-14 -5 0 -8 108 -8 239 l0 239 68 12 c146 26 240 38 298 39 l61 1 6 -137z m11
-480 c3 -21 6 -133 6 -249 l0 -212 -42 -6 c-71 -10 -389 -28 -395 -22 -3 2 -8
108 -11 234 -4 208 -3 229 12 235 9 4 81 16 159 26 282 40 263 40 271 -6z"/>
</g>
</svg>
