<?xml version="1.0" standalone="no"?>
<!DOCTYPE svg PUBLIC "-//W3C//DTD SVG 20010904//EN"
 "http://www.w3.org/TR/2001/REC-SVG-20010904/DTD/svg10.dtd">
<svg version="1.0" xmlns="http://www.w3.org/2000/svg"
 width="248.000000pt" height="248.000000pt" viewBox="0 0 248.000000 248.000000"
 preserveAspectRatio="xMidYMid meet">
<metadata>
Created by potrace 1.10, written by Peter Selinger 2001-2011
</metadata>
<g transform="translate(0.000000,248.000000) scale(0.100000,-0.100000)"
fill="#000000" stroke="none">
<path d="M795 2153 c-16 -2 -75 -11 -130 -19 -55 -9 -137 -19 -183 -23 -134
-13 -122 35 -121 -505 1 -498 8 -699 26 -717 15 -15 61 -15 76 0 8 8 11 157 8
560 l-3 548 34 7 c82 17 304 46 347 46 l48 0 6 -142 c4 -79 10 -341 13 -583 4
-265 11 -445 17 -452 15 -20 52 -15 73 8 15 16 20 40 23 108 6 144 -20 1101
-30 1129 -6 15 -16 30 -22 34 -12 8 -126 8 -182 1z"/>
</g>
</svg>
