<?xml version="1.0" standalone="no"?>
<!DOCTYPE svg PUBLIC "-//W3C//DTD SVG 20010904//EN"
 "http://www.w3.org/TR/2001/REC-SVG-20010904/DTD/svg10.dtd">
<svg version="1.0" xmlns="http://www.w3.org/2000/svg"
 width="248.000000pt" height="248.000000pt" viewBox="0 0 248.000000 248.000000"
 preserveAspectRatio="xMidYMid meet">
<metadata>
Created by potrace 1.10, written by Peter Selinger 2001-2011
</metadata>
<g transform="translate(0.000000,248.000000) scale(0.100000,-0.100000)"
fill="#000000" stroke="none">
<path d="M1930 2243 c-25 -2 -153 -19 -285 -38 -132 -18 -267 -37 -300 -40
-33 -4 -70 -13 -82 -21 -29 -18 -30 -58 -2 -77 21 -16 29 -15 198 9 57 8 106
12 109 9 3 -3 -1 -24 -7 -47 -26 -84 -101 -219 -193 -343 -75 -102 -81 -116
-62 -144 21 -29 55 -26 85 7 44 48 136 177 159 223 12 24 28 51 35 59 19 23
73 152 89 212 l13 53 69 12 c38 6 118 14 178 18 l109 8 -6 -65 c-10 -109 -64
-284 -115 -375 l-46 -81 -34 29 c-38 34 -62 37 -87 9 -25 -28 -13 -59 44 -113
52 -49 89 -59 122 -34 44 34 137 213 170 330 60 207 73 348 35 385 -17 17
-103 24 -196 15z"/>
<path d="M795 2153 c-16 -2 -75 -11 -130 -19 -55 -9 -137 -19 -183 -23 -138
-13 -125 50 -120 -611 3 -311 9 -575 14 -586 5 -12 24 -34 43 -50 29 -24 42
-28 95 -28 106 1 460 25 476 33 8 4 21 21 29 37 13 25 13 109 3 606 -12 559
-16 622 -45 640 -12 8 -126 8 -182 1z m108 -240 c4 -75 7 -180 7 -234 l0 -97
-37 -6 c-21 -3 -78 -10 -128 -17 -49 -6 -128 -17 -175 -25 -47 -8 -88 -14 -92
-14 -5 0 -8 108 -8 239 l0 239 68 12 c146 26 240 38 298 39 l61 1 6 -137z m11
-480 c3 -21 6 -133 6 -249 l0 -212 -42 -6 c-71 -10 -389 -28 -395 -22 -3 2 -8
108 -11 234 -4 208 -3 229 12 235 9 4 81 16 159 26 282 40 263 40 271 -6z"/>
<path d="M1860 1425 c-176 -13 -238 -20 -448 -56 -63 -10 -131 -19 -153 -19
-51 0 -88 -18 -96 -48 -6 -27 4 -192 18 -267 5 -27 13 -99 19 -158 5 -60 15
-120 22 -134 l13 -26 351 2 c332 2 415 8 435 28 15 15 47 138 70 263 48 261
64 371 57 390 -9 23 -47 41 -86 39 -15 -1 -106 -7 -202 -14z m180 -102 c0 -5
-7 -44 -14 -88 -36 -207 -56 -314 -69 -355 l-13 -45 -315 -3 -316 -2 -17 127
c-27 206 -31 282 -15 287 19 5 202 34 329 51 89 12 279 28 398 34 17 0 32 -2
32 -6z"/>
<path d="M352 578 c-7 -7 -12 -24 -12 -38 0 -48 -31 -144 -80 -253 -55 -118
-62 -160 -30 -177 38 -20 58 -2 110 101 55 109 100 249 100 309 0 56 -54 92
-88 58z"/>
<path d="M832 528 c-18 -18 -15 -74 8 -152 10 -37 26 -106 35 -152 18 -99 31
-131 54 -136 55 -13 73 26 54 126 -24 130 -66 291 -81 309 -17 20 -53 22 -70
5z"/>
</g>
</svg>
