<?xml version="1.0" standalone="no"?>
<!DOCTYPE svg PUBLIC "-//W3C//DTD SVG 20010904//EN"
 "http://www.w3.org/TR/2001/REC-SVG-20010904/DTD/svg10.dtd">
<svg version="1.0" xmlns="http://www.w3.org/2000/svg"
 width="248.000000pt" height="248.000000pt" viewBox="0 0 248.000000 248.000000"
 preserveAspectRatio="xMidYMid meet">
<metadata>
Created by potrace 1.10, written by Peter Selinger 2001-2011
</metadata>
<g transform="translate(0.000000,248.000000) scale(0.100000,-0.100000)"
fill="#000000" stroke="none">
<path d="M1429 2312 c-14 -9 -54 -38 -90 -63 -35 -25 -127 -81 -204 -124 -77
-43 -178 -99 -225 -126 -47 -26 -119 -63 -162 -83 -84 -39 -111 -66 -99 -100
15 -40 59 -32 188 32 65 33 153 80 195 103 43 24 115 64 160 89 46 25 128 75
183 111 55 36 112 73 128 83 32 19 36 55 9 79 -23 21 -49 21 -83 -1z"/>
</g>
</svg>
