<?xml version="1.0" standalone="no"?>
<!DOCTYPE svg PUBLIC "-//W3C//DTD SVG 20010904//EN"
 "http://www.w3.org/TR/2001/REC-SVG-20010904/DTD/svg10.dtd">
<svg version="1.0" xmlns="http://www.w3.org/2000/svg"
 width="248.000000pt" height="248.000000pt" viewBox="0 0 248.000000 248.000000"
 preserveAspectRatio="xMidYMid meet">
<metadata>
Created by potrace 1.10, written by Peter Selinger 2001-2011
</metadata>
<g transform="translate(0.000000,248.000000) scale(0.100000,-0.100000)"
fill="#000000" stroke="none">
<path d="M787 2342 c-10 -10 -17 -21 -17 -25 0 -12 -84 -131 -134 -191 -28
-33 -74 -90 -100 -125 -27 -35 -77 -96 -110 -136 -34 -40 -86 -103 -116 -141
-30 -37 -86 -99 -123 -137 -103 -103 -125 -148 -91 -181 24 -24 49 -19 81 16
15 17 58 64 94 102 36 39 92 102 124 141 l58 70 -6 -105 c-4 -58 -11 -305 -17
-550 -6 -245 -15 -500 -20 -568 -21 -265 -11 -337 48 -330 40 5 52 39 52 156
0 57 4 156 10 220 9 106 30 789 35 1153 l2 146 44 59 c24 32 72 93 107 133
136 162 187 262 150 299 -18 18 -53 15 -71 -6z"/>
<path d="M1516 2338 c-13 -18 -16 -52 -16 -158 l0 -137 -92 -11 c-51 -7 -151
-17 -223 -22 -172 -13 -216 -19 -242 -36 -43 -27 -22 -87 30 -86 42 1 402 33
457 41 30 4 125 16 210 25 85 9 196 21 245 27 50 6 156 17 237 23 158 14 181
22 176 65 -6 55 -57 59 -333 26 -166 -19 -317 -35 -337 -35 -16 0 -18 13 -18
128 0 140 -10 172 -55 172 -13 0 -31 -10 -39 -22z"/>
<path d="M1817 1864 c-3 -3 -169 -25 -422 -55 -99 -12 -186 -26 -194 -32 -32
-26 -31 -38 8 -271 10 -56 38 -86 80 -86 51 0 357 29 416 40 33 5 86 10 118
10 73 0 88 14 110 110 51 222 51 261 1 281 -23 8 -109 11 -117 3z m43 -118 c0
-16 -29 -158 -33 -162 -8 -8 -284 -40 -423 -50 l-91 -6 -11 58 c-18 88 -16
102 16 108 15 3 126 17 246 31 121 14 222 27 224 30 3 3 20 5 39 5 22 0 33 -5
33 -14z"/>
<path d="M812 1268 c-18 -18 -4 -337 16 -360 20 -23 55 -23 75 0 31 34 14 312
-22 356 -16 19 -52 21 -69 4z"/>
</g>
</svg>
