<?xml version="1.0" standalone="no"?>
<!DOCTYPE svg PUBLIC "-//W3C//DTD SVG 20010904//EN"
 "http://www.w3.org/TR/2001/REC-SVG-20010904/DTD/svg10.dtd">
<svg version="1.0" xmlns="http://www.w3.org/2000/svg"
 width="248.000000pt" height="248.000000pt" viewBox="0 0 248.000000 248.000000"
 preserveAspectRatio="xMidYMid meet">
<metadata>
Created by potrace 1.10, written by Peter Selinger 2001-2011
</metadata>
<g transform="translate(0.000000,248.000000) scale(0.100000,-0.100000)"
fill="#000000" stroke="none">
<path d="M1980 2229 c-80 -10 -264 -32 -410 -49 -146 -17 -355 -42 -465 -55
-305 -37 -684 -75 -745 -75 -68 0 -103 -20 -98 -58 6 -54 61 -61 258 -37 63 8
171 19 240 25 69 6 213 22 320 36 429 54 679 83 755 89 44 4 109 11 145 16 35
6 104 14 154 18 75 7 93 12 108 31 23 28 23 35 -2 60 -24 24 -59 24 -260 -1z"/>
</g>
</svg>
