<?xml version="1.0" standalone="no"?>
<!DOCTYPE svg PUBLIC "-//W3C//DTD SVG 20010904//EN"
 "http://www.w3.org/TR/2001/REC-SVG-20010904/DTD/svg10.dtd">
<svg version="1.0" xmlns="http://www.w3.org/2000/svg"
 width="248.000000pt" height="248.000000pt" viewBox="0 0 248.000000 248.000000"
 preserveAspectRatio="xMidYMid meet">
<metadata>
Created by potrace 1.10, written by Peter Selinger 2001-2011
</metadata>
<g transform="translate(0.000000,248.000000) scale(0.100000,-0.100000)"
fill="#000000" stroke="none">
<path d="M526 2368 c-13 -19 -16 -56 -16 -229 l0 -207 -67 -11 c-38 -6 -111
-16 -163 -22 -113 -14 -143 -29 -138 -67 5 -48 35 -53 197 -32 79 11 150 21
159 25 16 6 15 -96 -5 -562 l-6 -152 -31 -12 c-17 -7 -61 -25 -97 -40 -36 -15
-87 -33 -114 -39 -27 -6 -55 -16 -62 -22 -18 -15 -16 -53 4 -69 35 -29 99 -14
291 68 9 4 12 -52 11 -263 -1 -148 -4 -296 -8 -329 l-6 -60 -35 36 c-46 48
-73 56 -99 30 -12 -12 -21 -28 -21 -37 0 -8 34 -51 75 -94 41 -43 75 -83 75
-89 0 -19 48 -43 70 -36 46 15 50 49 57 484 l6 409 56 22 c31 12 94 36 141 54
77 28 85 34 88 59 8 69 -49 72 -194 12 -48 -20 -89 -34 -91 -31 -7 7 18 670
25 678 4 4 65 16 137 28 145 23 178 38 173 77 -5 45 -25 49 -165 29 -70 -10
-134 -21 -140 -23 -10 -4 -13 38 -13 188 0 213 -6 242 -52 247 -18 2 -31 -4
-42 -20z"/>
<path d="M1793 2326 c-64 -54 -213 -142 -406 -241 -112 -58 -211 -105 -219
-105 -46 0 -45 21 -63 -1111 -7 -426 -7 -427 14 -448 29 -29 49 -26 80 11 14
17 72 76 129 131 56 55 102 107 102 117 0 28 -36 53 -64 46 -14 -3 -55 -34
-91 -67 l-65 -61 0 279 c0 154 3 308 6 342 l7 61 101 0 c104 1 269 13 342 25
l41 7 7 -38 c11 -61 122 -383 171 -499 46 -107 208 -442 245 -504 29 -51 43
-62 79 -63 37 -1 61 18 111 92 76 112 96 174 66 200 -24 19 -59 7 -81 -28 -56
-92 -81 -127 -90 -127 -11 0 -104 185 -228 457 -32 69 -156 425 -171 490 -7
32 -11 31 144 48 157 16 169 19 180 41 26 47 -15 81 -92 74 -114 -10 -237 -25
-250 -30 -20 -8 -21 -6 -63 187 -55 252 -68 320 -80 438 l-6 56 43 24 c69 39
167 110 183 133 46 66 -18 116 -82 63z m-225 -421 c6 -38 32 -162 57 -275 25
-113 45 -208 45 -212 0 -11 -76 -19 -263 -26 l-177 -7 0 251 0 252 158 79 157
79 6 -35 c4 -20 11 -67 17 -106z"/>
<path d="M1850 347 c-3 -2 -194 -10 -425 -17 -452 -13 -465 -14 -465 -65 0
-15 9 -31 24 -40 22 -15 62 -15 408 -5 415 12 540 21 563 40 19 16 19 54 0 70
-15 13 -96 26 -105 17z"/>
</g>
</svg>
