<?xml version="1.0" standalone="no"?>
<!DOCTYPE svg PUBLIC "-//W3C//DTD SVG 20010904//EN"
 "http://www.w3.org/TR/2001/REC-SVG-20010904/DTD/svg10.dtd">
<svg version="1.0" xmlns="http://www.w3.org/2000/svg"
 width="248.000000pt" height="248.000000pt" viewBox="0 0 248.000000 248.000000"
 preserveAspectRatio="xMidYMid meet">
<metadata>
Created by potrace 1.10, written by Peter Selinger 2001-2011
</metadata>
<g transform="translate(0.000000,248.000000) scale(0.100000,-0.100000)"
fill="#000000" stroke="none">
<path d="M787 2342 c-10 -10 -17 -21 -17 -25 0 -12 -84 -131 -134 -191 -28
-33 -74 -90 -100 -125 -27 -35 -77 -96 -110 -136 -34 -40 -86 -103 -116 -141
-30 -37 -86 -99 -123 -137 -103 -103 -125 -148 -91 -181 24 -24 49 -19 81 16
15 17 58 64 94 102 69 75 294 343 344 411 17 22 58 74 93 114 136 162 187 262
150 299 -18 18 -53 15 -71 -6z"/>
</g>
</svg>
