<?xml version="1.0" standalone="no"?>
<!DOCTYPE svg PUBLIC "-//W3C//DTD SVG 20010904//EN"
 "http://www.w3.org/TR/2001/REC-SVG-20010904/DTD/svg10.dtd">
<svg version="1.0" xmlns="http://www.w3.org/2000/svg"
 width="248.000000pt" height="248.000000pt" viewBox="0 0 248.000000 248.000000"
 preserveAspectRatio="xMidYMid meet">
<metadata>
Created by potrace 1.10, written by Peter Selinger 2001-2011
</metadata>
<g transform="translate(0.000000,248.000000) scale(0.100000,-0.100000)"
fill="#000000" stroke="none">
<path d="M526 2368 c-13 -19 -16 -56 -16 -229 l0 -207 -67 -11 c-38 -6 -111
-16 -163 -22 -113 -14 -143 -29 -138 -67 5 -48 35 -53 197 -32 79 11 150 21
159 25 16 6 15 -96 -5 -562 l-6 -152 -31 -12 c-17 -7 -61 -25 -97 -40 -36 -15
-87 -33 -114 -39 -27 -6 -55 -16 -62 -22 -18 -15 -16 -53 4 -69 35 -29 99 -14
291 68 9 4 12 -52 11 -263 -1 -148 -4 -296 -8 -329 l-6 -60 -35 36 c-46 48
-73 56 -99 30 -12 -12 -21 -28 -21 -37 0 -8 34 -51 75 -94 41 -43 75 -83 75
-89 0 -19 48 -43 70 -36 46 15 50 49 57 484 l6 409 56 22 c31 12 94 36 141 54
77 28 85 34 88 59 8 69 -49 72 -194 12 -48 -20 -89 -34 -91 -31 -7 7 18 670
25 678 4 4 65 16 137 28 145 23 178 38 173 77 -5 45 -25 49 -165 29 -70 -10
-134 -21 -140 -23 -10 -4 -13 38 -13 188 0 213 -6 242 -52 247 -18 2 -31 -4
-42 -20z"/>
<path d="M1793 2327 c-46 -39 -143 -102 -233 -152 -122 -68 -378 -195 -394
-195 -44 0 -43 14 -61 -1111 -7 -426 -7 -427 14 -448 29 -29 49 -26 80 11 14
17 72 76 129 131 56 55 102 107 102 117 0 28 -36 53 -64 46 -14 -3 -55 -34
-91 -67 l-65 -61 0 279 c0 154 3 308 6 342 l7 61 101 0 c129 1 228 10 561 50
50 6 124 15 164 20 92 10 122 38 89 83 -17 23 -67 28 -158 16 -41 -5 -111 -14
-155 -19 -44 -5 -116 -15 -160 -21 -44 -6 -160 -14 -258 -17 l-177 -7 0 251 0
251 128 64 c259 130 475 259 513 308 53 66 -11 122 -78 68z"/>
</g>
</svg>
