<?xml version="1.0" standalone="no"?>
<!DOCTYPE svg PUBLIC "-//W3C//DTD SVG 20010904//EN"
 "http://www.w3.org/TR/2001/REC-SVG-20010904/DTD/svg10.dtd">
<svg version="1.0" xmlns="http://www.w3.org/2000/svg"
 width="248.000000pt" height="248.000000pt" viewBox="0 0 248.000000 248.000000"
 preserveAspectRatio="xMidYMid meet">
<metadata>
Created by potrace 1.10, written by Peter Selinger 2001-2011
</metadata>
<g transform="translate(0.000000,248.000000) scale(0.100000,-0.100000)"
fill="#000000" stroke="none">
<path d="M526 2368 c-13 -19 -16 -56 -16 -229 l0 -207 -67 -11 c-38 -6 -111
-16 -163 -22 -113 -14 -143 -29 -138 -67 5 -48 35 -53 197 -32 79 11 150 21
159 25 13 5 14 -16 8 -187 -5 -106 -11 -437 -15 -735 -3 -298 -10 -545 -14
-549 -3 -4 -21 9 -39 28 -44 47 -71 55 -97 29 -12 -12 -21 -28 -21 -37 0 -8
34 -51 75 -94 41 -43 75 -83 75 -89 0 -19 48 -43 70 -36 49 16 50 31 60 738
10 674 18 945 29 952 4 2 65 13 136 25 145 23 178 38 173 77 -5 45 -25 49
-165 29 -70 -10 -134 -21 -140 -23 -10 -4 -13 38 -13 188 0 213 -6 242 -52
247 -18 2 -31 -4 -42 -20z"/>
</g>
</svg>
