<?xml version="1.0" standalone="no"?>
<!DOCTYPE svg PUBLIC "-//W3C//DTD SVG 20010904//EN"
 "http://www.w3.org/TR/2001/REC-SVG-20010904/DTD/svg10.dtd">
<svg version="1.0" xmlns="http://www.w3.org/2000/svg"
 width="248.000000pt" height="248.000000pt" viewBox="0 0 248.000000 248.000000"
 preserveAspectRatio="xMidYMid meet">
<metadata>
Created by potrace 1.10, written by Peter Selinger 2001-2011
</metadata>
<g transform="translate(0.000000,248.000000) scale(0.100000,-0.100000)"
fill="#000000" stroke="none">
<path d="M1182 2348 c-8 -8 -12 -55 -12 -144 l0 -131 -67 -7 c-106 -10 -219
-26 -328 -46 -55 -10 -124 -21 -154 -25 -121 -14 -138 -43 -121 -206 9 -86 9
-158 1 -299 -15 -251 -17 -269 -52 -480 -26 -156 -42 -220 -104 -405 -40 -121
-88 -254 -105 -295 -44 -101 -48 -135 -21 -150 52 -27 84 12 142 171 97 267
159 472 178 586 11 65 27 161 36 213 28 163 45 529 32 671 l-8 87 58 7 c32 4
85 13 118 20 33 8 159 25 280 39 213 25 370 46 485 66 30 5 143 17 250 26 107
8 206 21 220 27 18 9 25 20 25 42 0 52 -26 57 -221 40 -93 -8 -187 -17 -209
-20 -22 -3 -98 -15 -169 -26 -70 -10 -134 -19 -141 -19 -9 0 -14 32 -17 115
-3 93 -8 118 -23 135 -20 22 -55 26 -73 8z"/>
<path d="M1437 1841 c-65 -60 -145 -106 -405 -236 -208 -104 -242 -124 -251
-149 -6 -16 -11 -90 -11 -165 -1 -75 -5 -221 -10 -326 -5 -104 -12 -278 -16
-386 -7 -193 -7 -196 15 -218 27 -27 51 -21 106 26 66 57 188 156 243 198 75
57 83 117 16 123 -24 2 -50 -16 -149 -98 l-120 -100 -3 32 c-2 18 1 119 7 224
6 105 11 207 11 226 l0 35 78 17 c42 9 169 32 282 50 183 31 206 33 215 19 6
-9 36 -56 67 -105 32 -49 71 -114 87 -146 34 -65 68 -114 161 -232 36 -45 72
-92 80 -104 62 -90 138 -181 199 -239 60 -56 77 -67 106 -67 37 0 38 1 111
115 50 80 54 108 19 131 -23 15 -27 15 -48 1 -13 -8 -39 -40 -57 -71 -19 -31
-37 -55 -40 -54 -16 8 -132 142 -175 203 -28 38 -89 119 -137 180 -49 60 -104
141 -125 180 -20 38 -53 95 -73 125 -20 30 -44 69 -53 86 l-16 31 57 16 c31 8
107 25 167 37 61 12 122 26 137 32 45 17 44 69 -1 88 -29 12 -36 11 -309 -52
-54 -12 -96 -17 -101 -12 -4 5 -15 29 -25 54 -10 25 -25 59 -32 75 -7 17 -30
73 -50 125 -20 52 -43 102 -50 111 -12 14 -5 21 61 64 120 77 170 146 133 183
-22 22 -58 13 -101 -27z m-177 -262 c0 -13 57 -161 101 -262 16 -37 29 -73 29
-80 0 -8 -59 -21 -182 -40 -101 -16 -208 -35 -238 -43 -97 -25 -91 -33 -88
122 l3 136 174 89 c171 88 201 100 201 78z"/>
</g>
</svg>
