<?xml version="1.0" standalone="no"?>
<!DOCTYPE svg PUBLIC "-//W3C//DTD SVG 20010904//EN"
 "http://www.w3.org/TR/2001/REC-SVG-20010904/DTD/svg10.dtd">
<svg version="1.0" xmlns="http://www.w3.org/2000/svg"
 width="248.000000pt" height="248.000000pt" viewBox="0 0 248.000000 248.000000"
 preserveAspectRatio="xMidYMid meet">
<metadata>
Created by potrace 1.10, written by Peter Selinger 2001-2011
</metadata>
<g transform="translate(0.000000,248.000000) scale(0.100000,-0.100000)"
fill="#000000" stroke="none">
<path d="M1182 2348 c-8 -8 -12 -55 -12 -144 l0 -131 -67 -7 c-106 -10 -219
-26 -328 -46 -55 -10 -124 -21 -154 -25 -121 -14 -138 -43 -121 -206 9 -86 9
-158 1 -299 -15 -251 -17 -269 -52 -480 -26 -156 -42 -220 -104 -405 -40 -121
-88 -254 -105 -295 -44 -101 -48 -135 -21 -150 52 -27 84 12 142 171 97 267
159 472 178 586 11 65 27 161 36 213 28 163 45 529 32 671 l-8 87 58 7 c32 4
85 13 118 20 33 8 159 25 280 39 213 25 370 46 485 66 30 5 143 17 250 26 107
8 206 21 220 27 18 9 25 20 25 42 0 52 -26 57 -221 40 -93 -8 -187 -17 -209
-20 -22 -3 -98 -15 -169 -26 -70 -10 -134 -19 -141 -19 -9 0 -14 32 -17 115
-3 93 -8 118 -23 135 -20 22 -55 26 -73 8z"/>
<path d="M1437 1841 c-65 -60 -145 -106 -405 -236 -208 -104 -242 -124 -251
-149 -6 -16 -11 -90 -11 -165 -1 -75 -5 -221 -10 -326 -5 -104 -12 -278 -16
-386 -7 -193 -7 -196 15 -218 27 -27 51 -21 106 26 66 57 188 156 243 198 74
56 83 115 18 123 -21 3 -47 -13 -122 -75 -52 -43 -109 -89 -126 -103 l-31 -25
8 160 c4 88 12 292 19 454 l11 293 235 120 c324 165 430 240 430 301 0 58 -54
62 -113 8z"/>
</g>
</svg>
