<?xml version="1.0" standalone="no"?>
<!DOCTYPE svg PUBLIC "-//W3C//DTD SVG 20010904//EN"
 "http://www.w3.org/TR/2001/REC-SVG-20010904/DTD/svg10.dtd">
<svg version="1.0" xmlns="http://www.w3.org/2000/svg"
 width="248.000000pt" height="248.000000pt" viewBox="0 0 248.000000 248.000000"
 preserveAspectRatio="xMidYMid meet">
<metadata>
Created by potrace 1.10, written by Peter Selinger 2001-2011
</metadata>
<g transform="translate(0.000000,248.000000) scale(0.100000,-0.100000)"
fill="#000000" stroke="none">
<path d="M790 1883 c-14 -2 -44 -8 -67 -13 -102 -24 -313 -62 -363 -65 -73 -5
-188 -30 -206 -45 -22 -19 -17 -58 10 -75 21 -14 31 -14 97 -1 41 8 112 20
159 26 88 11 197 31 310 55 36 7 87 16 114 19 27 4 60 13 73 21 25 17 31 53
11 73 -11 11 -82 14 -138 5z"/>
</g>
</svg>
