<?xml version="1.0" standalone="no"?>
<!DOCTYPE svg PUBLIC "-//W3C//DTD SVG 20010904//EN"
 "http://www.w3.org/TR/2001/REC-SVG-20010904/DTD/svg10.dtd">
<svg version="1.0" xmlns="http://www.w3.org/2000/svg"
 width="248.000000pt" height="248.000000pt" viewBox="0 0 248.000000 248.000000"
 preserveAspectRatio="xMidYMid meet">
<metadata>
Created by potrace 1.10, written by Peter Selinger 2001-2011
</metadata>
<g transform="translate(0.000000,248.000000) scale(0.100000,-0.100000)"
fill="#000000" stroke="none">
<path d="M560 2354 c-10 -12 -18 -85 -28 -268 -7 -138 -15 -253 -17 -255 -8
-7 -100 -23 -155 -26 -72 -5 -187 -30 -206 -45 -22 -19 -17 -58 10 -75 21 -14
31 -14 97 -1 96 20 249 39 255 33 3 -2 2 -299 -2 -659 -7 -643 -8 -655 -27
-664 -40 -18 -44 -40 -17 -90 30 -57 61 -79 96 -70 50 13 54 43 54 413 0 186
3 509 7 719 l6 380 61 12 c34 7 92 17 130 22 38 6 80 17 93 25 26 18 31 56 8
75 -19 16 -138 8 -227 -16 -33 -8 -62 -13 -65 -10 -3 2 1 105 7 229 10 188 10
229 -1 253 -17 34 -58 44 -79 18z"/>
</g>
</svg>
