<?xml version="1.0" standalone="no"?>
<!DOCTYPE svg PUBLIC "-//W3C//DTD SVG 20010904//EN"
 "http://www.w3.org/TR/2001/REC-SVG-20010904/DTD/svg10.dtd">
<svg version="1.0" xmlns="http://www.w3.org/2000/svg"
 width="248.000000pt" height="248.000000pt" viewBox="0 0 248.000000 248.000000"
 preserveAspectRatio="xMidYMid meet">
<metadata>
Created by potrace 1.10, written by Peter Selinger 2001-2011
</metadata>
<g transform="translate(0.000000,248.000000) scale(0.100000,-0.100000)"
fill="#000000" stroke="none">
<path d="M560 2354 c-10 -12 -18 -85 -28 -268 -7 -138 -15 -253 -17 -255 -8
-7 -100 -23 -155 -26 -72 -5 -187 -30 -206 -45 -22 -19 -17 -58 10 -75 21 -14
31 -14 97 -1 62 13 225 36 251 36 9 0 11 -487 2 -553 l-7 -46 -144 -57 c-80
-31 -158 -68 -174 -81 -49 -42 -31 -101 28 -90 16 3 85 30 155 61 71 31 130
56 133 56 3 0 5 -136 5 -303 0 -300 0 -302 -22 -312 -41 -19 -45 -40 -18 -91
30 -56 61 -79 95 -70 48 12 50 25 55 440 l5 390 71 30 c104 46 124 61 124 96
0 49 -34 58 -101 27 -30 -14 -65 -28 -78 -32 -24 -7 -24 -6 -18 40 4 26 7 154
7 284 l0 236 63 13 c34 7 93 17 131 22 38 6 80 17 93 25 26 18 31 56 8 75 -19
16 -138 8 -227 -16 -33 -8 -62 -13 -65 -10 -3 2 1 105 7 229 10 188 10 229 -1
253 -17 34 -58 44 -79 18z"/>
<path d="M1700 2299 c-52 -5 -171 -16 -265 -24 -220 -20 -213 -14 -195 -162 7
-59 14 -205 16 -323 2 -252 -5 -240 129 -240 181 0 540 22 554 35 8 8 15 42
18 87 14 248 26 390 38 457 27 139 3 173 -125 177 -41 1 -118 -2 -170 -7z
m197 -126 c-3 -16 -11 -65 -18 -110 l-13 -83 -86 0 c-47 0 -121 -4 -165 -9
-44 -5 -119 -12 -166 -16 l-85 -6 -12 102 c-7 56 -11 104 -9 105 7 8 379 40
486 42 l74 2 -6 -27z m-42 -395 c-4 -51 -8 -94 -10 -96 -5 -5 -288 -22 -382
-22 l-93 0 0 90 c0 65 3 90 13 91 6 0 66 6 132 13 66 8 171 14 234 15 l113 1
-7 -92z"/>
<path d="M2020 1484 c-19 -2 -66 -8 -105 -14 -38 -6 -122 -15 -185 -20 -63 -5
-146 -14 -185 -19 -38 -6 -167 -15 -285 -21 -153 -9 -222 -16 -237 -26 -31
-19 -30 -59 1 -80 22 -14 45 -14 213 -5 103 6 203 14 221 17 l34 7 -4 -386
c-1 -212 -6 -388 -9 -391 -9 -9 -184 74 -250 117 -105 71 -97 53 -71 143 35
122 37 141 18 169 -32 49 -96 18 -96 -47 0 -73 -131 -379 -230 -538 -45 -72
-34 -115 27 -108 34 4 60 41 145 208 35 68 68 125 74 127 6 2 33 -12 60 -30
27 -19 198 -107 379 -197 244 -120 365 -174 465 -207 225 -73 340 -77 348 -12
4 38 -18 50 -110 61 -46 5 -139 28 -208 50 -130 43 -429 183 -437 206 -3 7 -2
91 2 186 l7 173 67 7 c36 4 111 11 166 15 55 4 110 12 122 19 27 15 37 45 23
72 -9 17 -20 20 -89 20 -42 0 -102 -4 -132 -9 -30 -5 -78 -12 -106 -15 l-53
-5 0 189 c0 189 0 190 23 194 12 2 78 10 147 16 299 28 381 38 395 50 19 16
19 54 0 70 -17 14 -87 20 -145 14z"/>
</g>
</svg>
