<?xml version="1.0" standalone="no"?>
<!DOCTYPE svg PUBLIC "-//W3C//DTD SVG 20010904//EN"
 "http://www.w3.org/TR/2001/REC-SVG-20010904/DTD/svg10.dtd">
<svg version="1.0" xmlns="http://www.w3.org/2000/svg"
 width="248.000000pt" height="248.000000pt" viewBox="0 0 248.000000 248.000000"
 preserveAspectRatio="xMidYMid meet">
<metadata>
Created by potrace 1.10, written by Peter Selinger 2001-2011
</metadata>
<g transform="translate(0.000000,248.000000) scale(0.100000,-0.100000)"
fill="#000000" stroke="none">
<path d="M560 2354 c-10 -12 -18 -85 -28 -268 -7 -138 -15 -253 -17 -255 -8
-7 -100 -23 -155 -26 -72 -5 -187 -30 -206 -45 -22 -19 -17 -58 10 -75 21 -14
31 -14 97 -1 74 15 217 36 245 36 12 0 14 -41 14 -254 0 -139 -3 -274 -6 -299
l-7 -46 -144 -57 c-80 -31 -158 -68 -174 -81 -49 -42 -31 -101 28 -90 16 3 85
30 155 61 71 31 130 56 133 56 3 0 5 -136 5 -303 0 -300 0 -302 -22 -312 -41
-19 -45 -40 -18 -91 30 -56 61 -79 95 -70 48 12 50 25 55 440 l5 390 71 30
c104 46 124 61 124 96 0 49 -34 58 -101 27 -30 -14 -65 -28 -78 -32 -24 -7
-24 -6 -18 40 4 26 7 154 7 284 l0 236 63 13 c34 7 93 17 131 22 38 6 80 17
93 25 26 18 31 56 8 75 -19 16 -138 8 -227 -16 -33 -8 -62 -13 -65 -10 -3 2 1
105 7 229 10 188 10 229 -1 253 -17 34 -58 44 -79 18z"/>
</g>
</svg>
