<?xml version="1.0" standalone="no"?>
<!DOCTYPE svg PUBLIC "-//W3C//DTD SVG 20010904//EN"
 "http://www.w3.org/TR/2001/REC-SVG-20010904/DTD/svg10.dtd">
<svg version="1.0" xmlns="http://www.w3.org/2000/svg"
 width="248.000000pt" height="248.000000pt" viewBox="0 0 248.000000 248.000000"
 preserveAspectRatio="xMidYMid meet">
<metadata>
Created by potrace 1.10, written by Peter Selinger 2001-2011
</metadata>
<g transform="translate(0.000000,248.000000) scale(0.100000,-0.100000)"
fill="#000000" stroke="none">
<path d="M657 2360 c-12 -18 -14 -47 -10 -158 l6 -137 -109 -24 c-60 -13 -139
-27 -176 -31 -75 -8 -98 -21 -98 -55 0 -33 26 -49 83 -51 60 -2 58 0 82 -136
21 -112 36 -140 73 -136 50 6 55 38 27 173 -14 66 -25 120 -25 121 0 7 300 57
307 51 4 -5 -50 -145 -74 -192 -28 -57 -3 -105 49 -92 16 4 32 21 46 49 31 62
82 197 82 217 0 30 22 41 80 41 34 0 64 6 78 16 30 21 29 59 -4 80 -25 17 -70
15 -270 -12 l-41 -6 -7 123 c-4 68 -12 134 -19 148 -16 34 -60 40 -80 11z"/>
</g>
</svg>
