<?xml version="1.0" standalone="no"?>
<!DOCTYPE svg PUBLIC "-//W3C//DTD SVG 20010904//EN"
 "http://www.w3.org/TR/2001/REC-SVG-20010904/DTD/svg10.dtd">
<svg version="1.0" xmlns="http://www.w3.org/2000/svg"
 width="248.000000pt" height="248.000000pt" viewBox="0 0 248.000000 248.000000"
 preserveAspectRatio="xMidYMid meet">
<metadata>
Created by potrace 1.10, written by Peter Selinger 2001-2011
</metadata>
<g transform="translate(0.000000,248.000000) scale(0.100000,-0.100000)"
fill="#000000" stroke="none">
<path d="M1449 2354 c-10 -12 -15 -59 -19 -168 l-5 -151 -125 -12 c-69 -7
-152 -17 -185 -22 -33 -6 -91 -13 -130 -16 -86 -8 -117 -26 -113 -63 5 -42 37
-51 148 -41 52 4 96 6 98 4 3 -3 61 -278 62 -291 0 -3 -118 -23 -200 -34 -122
-18 -133 -22 -152 -61 -15 -29 -19 -91 -27 -424 -6 -214 -11 -512 -11 -660 0
-294 4 -315 55 -315 52 0 55 19 55 345 1 444 17 987 31 996 6 3 57 14 113 23
55 9 135 23 176 30 41 8 110 17 153 21 l77 7 0 -155 0 -155 -62 -10 c-35 -6
-92 -14 -128 -17 -161 -14 -223 -38 -218 -83 4 -36 43 -55 89 -42 19 5 77 14
129 19 52 6 116 14 143 17 l47 7 0 -106 0 -105 -32 -5 c-18 -3 -69 -9 -113
-12 -44 -4 -91 -14 -104 -22 -23 -15 -23 -18 -17 -102 4 -47 10 -129 14 -182
4 -57 13 -103 21 -112 12 -15 45 -17 287 -17 258 0 275 1 293 19 11 11 22 35
25 53 25 173 28 245 11 332 -11 57 -51 70 -177 62 l-98 -7 0 109 0 108 148 17
c191 23 240 34 253 58 14 26 2 58 -24 68 -13 5 -56 3 -102 -5 -44 -7 -124 -16
-177 -20 l-98 -7 0 156 c0 154 0 157 23 162 21 4 406 25 473 25 31 0 33 -2 43
-50 18 -83 7 -1290 -11 -1290 -5 0 -26 11 -46 25 -40 27 -71 32 -90 13 -22
-22 -13 -59 19 -86 18 -15 54 -46 81 -70 67 -58 114 -55 138 10 15 41 34 884
26 1178 -6 246 -16 324 -45 354 -21 20 -29 21 -210 18 l-188 -3 8 53 c4 29 13
96 19 148 7 52 13 96 14 97 1 2 49 7 107 13 249 26 269 31 269 75 0 39 -26 50
-107 47 -40 -1 -106 -7 -146 -12 -39 -6 -121 -14 -182 -20 -60 -5 -134 -12
-162 -15 l-53 -6 0 133 c0 87 -5 142 -13 158 -15 31 -58 38 -78 14z m246 -471
c-3 -43 -11 -96 -16 -118 -4 -22 -9 -54 -9 -71 l0 -32 -77 -12 c-94 -14 -307
-40 -309 -37 -5 8 -54 257 -54 274 0 24 2 24 205 44 61 6 137 14 170 18 108
14 98 21 90 -66z m47 -1120 c3 -35 -3 -97 -17 -180 l-6 -33 -203 0 -203 0 -7
53 c-3 28 -9 77 -12 108 l-6 55 128 12 c71 7 143 14 159 16 17 2 60 4 97 5
l67 1 3 -37z"/>
<path d="M282 2168 c-27 -27 -10 -55 121 -190 136 -141 158 -155 191 -122 29
28 17 54 -60 137 -166 178 -215 212 -252 175z"/>
<path d="M152 1458 c-37 -37 -4 -81 138 -186 41 -30 92 -70 113 -89 47 -42 92
-45 109 -8 16 35 -6 63 -113 145 -47 36 -109 84 -138 108 -53 42 -87 52 -109
30z"/>
<path d="M390 615 c-23 -27 -182 -369 -187 -402 -3 -19 0 -39 7 -48 16 -19 54
-19 70 0 26 31 190 391 190 417 0 42 -54 64 -80 33z"/>
</g>
</svg>
