<?xml version="1.0" standalone="no"?>
<!DOCTYPE svg PUBLIC "-//W3C//DTD SVG 20010904//EN"
 "http://www.w3.org/TR/2001/REC-SVG-20010904/DTD/svg10.dtd">
<svg version="1.0" xmlns="http://www.w3.org/2000/svg"
 width="248.000000pt" height="248.000000pt" viewBox="0 0 248.000000 248.000000"
 preserveAspectRatio="xMidYMid meet">
<metadata>
Created by potrace 1.10, written by Peter Selinger 2001-2011
</metadata>
<g transform="translate(0.000000,248.000000) scale(0.100000,-0.100000)"
fill="#000000" stroke="none">
<path d="M657 2360 c-12 -18 -14 -47 -10 -158 l6 -137 -129 -28 c-71 -15 -145
-27 -164 -27 -54 0 -85 -20 -85 -55 0 -62 58 -66 270 -21 130 28 307 54 425
62 47 4 95 13 108 20 30 20 29 59 -4 80 -25 17 -70 15 -270 -12 l-41 -6 -7
123 c-4 68 -12 134 -19 148 -16 34 -60 40 -80 11z"/>
</g>
</svg>
