<?xml version="1.0" standalone="no"?>
<!DOCTYPE svg PUBLIC "-//W3C//DTD SVG 20010904//EN"
 "http://www.w3.org/TR/2001/REC-SVG-20010904/DTD/svg10.dtd">
<svg version="1.0" xmlns="http://www.w3.org/2000/svg"
 width="248.000000pt" height="248.000000pt" viewBox="0 0 248.000000 248.000000"
 preserveAspectRatio="xMidYMid meet">
<metadata>
Created by potrace 1.10, written by Peter Selinger 2001-2011
</metadata>
<g transform="translate(0.000000,248.000000) scale(0.100000,-0.100000)"
fill="#000000" stroke="none">
<path d="M1506 2298 c-12 -17 -16 -47 -16 -125 0 -56 -3 -104 -7 -106 -5 -3
-53 -10 -108 -16 -287 -32 -315 -40 -315 -86 0 -43 35 -56 113 -44 85 13 97 9
97 -36 0 -46 28 -212 41 -247 11 -27 31 -37 60 -30 28 6 37 42 28 107 -22 152
-29 218 -24 223 8 8 264 51 308 52 l38 0 -6 -37 c-4 -21 -23 -89 -42 -152 -38
-124 -42 -153 -23 -176 16 -19 54 -19 69 -1 17 20 77 209 91 286 19 100 24
110 63 110 48 0 150 20 165 32 17 14 15 63 -3 78 -16 13 -73 9 -225 -15 -47
-7 -113 -17 -147 -20 l-63 -7 0 89 c0 50 -6 99 -13 113 -17 34 -60 39 -81 8z"/>
<path d="M1016 1538 c-12 -19 -13 -43 -6 -135 6 -67 6 -290 1 -555 -10 -487
-9 -493 44 -493 54 0 56 12 65 487 9 457 2 653 -25 695 -20 30 -60 30 -79 1z"/>
</g>
</svg>
