<?xml version="1.0" standalone="no"?>
<!DOCTYPE svg PUBLIC "-//W3C//DTD SVG 20010904//EN"
 "http://www.w3.org/TR/2001/REC-SVG-20010904/DTD/svg10.dtd">
<svg version="1.0" xmlns="http://www.w3.org/2000/svg"
 width="248.000000pt" height="248.000000pt" viewBox="0 0 248.000000 248.000000"
 preserveAspectRatio="xMidYMid meet">
<metadata>
Created by potrace 1.10, written by Peter Selinger 2001-2011
</metadata>
<g transform="translate(0.000000,248.000000) scale(0.100000,-0.100000)"
fill="#000000" stroke="none">
<path d="M1070 2285 c-9 -11 -11 -35 -7 -83 4 -37 9 -241 13 -454 6 -326 5
-388 -7 -393 -8 -2 -104 -16 -214 -30 -119 -16 -209 -32 -222 -41 -26 -16 -30
-50 -9 -73 15 -17 34 -102 67 -311 24 -152 36 -180 78 -180 22 0 31 7 41 29 6
17 9 34 6 39 -3 5 -18 89 -35 188 -16 99 -32 191 -36 206 -6 24 -4 26 32 32
106 17 403 47 603 61 124 8 244 18 267 21 32 5 44 3 48 -8 3 -7 -8 -60 -25
-116 -16 -56 -30 -106 -30 -112 0 -25 -64 -173 -86 -199 -41 -49 -27 -91 31
-91 18 0 39 8 48 18 27 30 73 140 107 257 17 61 40 140 51 177 23 80 24 131 3
152 -20 20 -152 21 -419 2 -104 -8 -193 -12 -197 -9 -10 6 -10 385 0 399 8 12
94 27 272 49 226 28 292 41 307 61 20 27 16 52 -11 69 -22 15 -33 14 -133 -4
-59 -11 -153 -25 -208 -31 -55 -6 -126 -15 -158 -22 -34 -6 -62 -7 -67 -2 -4
5 -11 90 -15 189 -8 194 -16 225 -59 225 -13 0 -29 -7 -36 -15z"/>
</g>
</svg>
