<?xml version="1.0" standalone="no"?>
<!DOCTYPE svg PUBLIC "-//W3C//DTD SVG 20010904//EN"
 "http://www.w3.org/TR/2001/REC-SVG-20010904/DTD/svg10.dtd">
<svg version="1.0" xmlns="http://www.w3.org/2000/svg"
 width="248.000000pt" height="248.000000pt" viewBox="0 0 248.000000 248.000000"
 preserveAspectRatio="xMidYMid meet">
<metadata>
Created by potrace 1.10, written by Peter Selinger 2001-2011
</metadata>
<g transform="translate(0.000000,248.000000) scale(0.100000,-0.100000)"
fill="#000000" stroke="none">
<path d="M1070 2285 c-9 -11 -11 -35 -7 -83 4 -37 9 -247 13 -467 4 -241 10
-405 16 -412 13 -16 50 -17 66 -1 9 9 12 72 12 223 0 115 4 215 8 221 8 12 94
27 272 49 226 28 292 41 307 61 20 27 16 52 -11 69 -22 15 -33 14 -133 -4 -59
-11 -153 -25 -208 -31 -55 -6 -126 -15 -158 -22 -34 -6 -62 -7 -67 -2 -4 5
-11 90 -15 189 -8 194 -16 225 -59 225 -13 0 -29 -7 -36 -15z"/>
<path d="M650 1270 c-24 -24 -24 -17 -1 -131 10 -52 29 -157 41 -234 25 -157
37 -185 79 -185 22 0 31 7 41 29 6 17 9 34 6 39 -3 5 -17 79 -31 163 -46 284
-53 312 -71 326 -25 18 -41 16 -64 -7z"/>
</g>
</svg>
