<?xml version="1.0" standalone="no"?>
<!DOCTYPE svg PUBLIC "-//W3C//DTD SVG 20010904//EN"
 "http://www.w3.org/TR/2001/REC-SVG-20010904/DTD/svg10.dtd">
<svg version="1.0" xmlns="http://www.w3.org/2000/svg"
 width="248.000000pt" height="248.000000pt" viewBox="0 0 248.000000 248.000000"
 preserveAspectRatio="xMidYMid meet">
<metadata>
Created by potrace 1.10, written by Peter Selinger 2001-2011
</metadata>
<g transform="translate(0.000000,248.000000) scale(0.100000,-0.100000)"
fill="#000000" stroke="none">
<path d="M1695 2378 c-44 -4 -138 -15 -210 -23 -71 -8 -182 -20 -245 -25 -111
-9 -433 -42 -552 -56 -32 -4 -63 -14 -70 -22 -9 -11 -15 -85 -19 -256 -7 -256
-26 -449 -63 -661 -13 -71 -34 -188 -46 -260 -39 -232 -133 -522 -237 -732
-60 -122 -64 -152 -21 -167 40 -14 59 8 126 148 90 186 186 468 216 636 46
252 96 558 106 650 6 57 13 107 16 111 2 3 41 9 86 13 46 4 151 16 233 27 83
11 195 24 250 29 55 5 129 14 165 19 36 5 137 15 225 21 113 8 165 16 176 26
10 9 19 40 23 82 4 37 14 93 22 125 8 32 20 99 27 150 25 174 6 188 -208 165z
m101 -165 c-4 -38 -17 -113 -30 -168 l-23 -100 -39 -3 c-21 -1 -102 -9 -179
-18 -77 -8 -203 -21 -280 -29 -77 -8 -167 -19 -200 -25 -33 -5 -109 -15 -170
-20 -60 -6 -124 -13 -141 -16 l-30 -6 4 169 c2 92 6 170 8 172 4 4 292 35 474
51 63 5 176 16 250 25 170 19 297 32 334 34 l29 1 -7 -67z"/>
</g>
</svg>
