<?xml version="1.0" standalone="no"?>
<!DOCTYPE svg PUBLIC "-//W3C//DTD SVG 20010904//EN"
 "http://www.w3.org/TR/2001/REC-SVG-20010904/DTD/svg10.dtd">
<svg version="1.0" xmlns="http://www.w3.org/2000/svg"
 width="248.000000pt" height="248.000000pt" viewBox="0 0 248.000000 248.000000"
 preserveAspectRatio="xMidYMid meet">
<metadata>
Created by potrace 1.10, written by Peter Selinger 2001-2011
</metadata>
<g transform="translate(0.000000,248.000000) scale(0.100000,-0.100000)"
fill="#000000" stroke="none">
<path d="M1695 2378 c-44 -4 -138 -15 -210 -23 -71 -8 -182 -20 -245 -25 -111
-9 -433 -42 -552 -56 -32 -4 -63 -14 -70 -22 -9 -11 -15 -85 -19 -256 -7 -256
-26 -449 -63 -661 -13 -71 -34 -188 -46 -260 -39 -232 -133 -522 -237 -732
-60 -122 -64 -152 -21 -167 40 -14 59 8 126 148 90 186 186 468 216 636 46
252 96 558 106 650 6 57 13 107 16 111 2 3 41 9 86 13 46 4 151 16 233 27 83
11 195 24 250 29 55 5 129 14 165 19 36 5 137 15 225 21 113 8 165 16 176 26
10 9 19 40 23 82 4 37 14 93 22 125 8 32 20 99 27 150 25 174 6 188 -208 165z
m101 -165 c-4 -38 -17 -113 -30 -168 l-23 -100 -44 -3 c-24 -1 -105 -9 -179
-18 -74 -8 -198 -21 -275 -29 -77 -8 -167 -19 -200 -25 -33 -5 -109 -15 -170
-20 -60 -6 -124 -13 -141 -16 l-30 -6 4 169 c2 92 6 170 8 172 4 4 292 35 474
51 63 5 176 16 250 25 170 19 297 32 334 34 l29 1 -7 -67z"/>
<path d="M1515 1726 c-11 -17 -18 -59 -22 -135 l-6 -110 -41 -6 c-78 -10 -321
-45 -356 -51 l-36 -6 -12 108 c-13 114 -27 144 -67 144 -43 0 -48 -20 -37
-148 5 -64 9 -118 8 -119 -1 -1 -44 -7 -96 -14 -107 -13 -140 -28 -140 -64 0
-44 33 -55 132 -43 47 6 93 8 102 5 14 -5 16 -27 16 -141 l0 -135 -37 -6 c-21
-3 -54 -8 -73 -11 -120 -16 -170 -40 -170 -79 0 -46 40 -54 153 -29 l27 6 0
-283 c0 -378 9 -429 78 -429 36 0 400 189 407 211 10 30 -4 58 -32 65 -19 5
-62 -12 -184 -74 l-159 -82 2 303 3 302 90 12 c50 6 151 21 225 32 123 19 343
40 607 60 60 4 108 13 118 21 25 21 15 63 -20 79 -26 13 -52 12 -205 -2 -96
-10 -182 -17 -190 -17 -13 0 -15 21 -12 148 2 81 5 148 7 150 1 1 65 7 143 12
77 5 151 14 165 19 44 17 46 74 3 91 -22 8 -253 -5 -289 -16 -17 -5 -18 3 -16
110 2 124 -5 146 -47 146 -14 0 -30 -10 -39 -24z m-35 -495 c0 -77 -4 -142 -9
-145 -4 -3 -87 -17 -182 -31 -96 -15 -183 -28 -195 -31 -21 -5 -21 -2 -26 138
-4 89 -2 145 4 149 16 10 300 53 381 58 l27 1 0 -139z"/>
<path d="M1382 928 c-25 -25 -11 -64 63 -173 94 -136 183 -240 322 -375 193
-187 265 -234 472 -309 78 -29 86 -30 108 -16 41 27 25 72 -34 98 -21 9 -74
30 -118 47 -98 38 -128 57 -230 138 -70 56 -314 298 -314 312 -1 3 50 30 111
60 140 69 188 103 188 133 0 29 -18 47 -46 47 -11 0 -86 -34 -166 -75 -80 -41
-148 -75 -152 -75 -3 0 -24 27 -44 59 -86 133 -125 164 -160 129z"/>
</g>
</svg>
