<?xml version="1.0" standalone="no"?>
<!DOCTYPE svg PUBLIC "-//W3C//DTD SVG 20010904//EN"
 "http://www.w3.org/TR/2001/REC-SVG-20010904/DTD/svg10.dtd">
<svg version="1.0" xmlns="http://www.w3.org/2000/svg"
 width="248.000000pt" height="248.000000pt" viewBox="0 0 248.000000 248.000000"
 preserveAspectRatio="xMidYMid meet">
<metadata>
Created by potrace 1.10, written by Peter Selinger 2001-2011
</metadata>
<g transform="translate(0.000000,248.000000) scale(0.100000,-0.100000)"
fill="#000000" stroke="none">
<path d="M1070 2285 c-9 -11 -11 -35 -7 -83 4 -37 9 -241 13 -454 6 -326 5
-388 -7 -393 -8 -2 -104 -16 -214 -30 -119 -16 -209 -32 -222 -41 -26 -16 -30
-50 -9 -73 15 -17 34 -102 67 -311 12 -74 27 -144 34 -156 8 -12 28 -28 47
-37 29 -14 40 -14 93 -2 77 18 379 44 566 49 173 4 193 11 231 81 43 79 148
427 148 490 0 57 -17 65 -138 65 -59 -1 -192 -7 -297 -14 -104 -8 -193 -12
-197 -9 -10 6 -10 385 0 399 8 12 94 27 272 49 226 28 292 41 307 61 20 27 16
52 -11 69 -22 15 -33 14 -133 -4 -59 -11 -153 -25 -208 -31 -55 -6 -126 -15
-158 -22 -34 -6 -62 -7 -67 -2 -4 5 -11 90 -15 189 -8 194 -16 225 -59 225
-13 0 -29 -7 -36 -15z m626 -998 c2 -7 -9 -59 -26 -115 -16 -56 -30 -106 -30
-112 0 -22 -63 -173 -79 -189 -14 -14 -39 -18 -122 -19 -161 -4 -424 -22 -529
-37 -52 -7 -96 -12 -98 -11 -2 2 -16 82 -32 178 -16 95 -31 185 -35 200 -6 24
-4 26 32 32 110 18 406 47 613 61 129 9 240 18 245 20 23 8 56 4 61 -8z"/>
<path d="M1892 578 c-21 -21 -14 -56 15 -75 46 -31 263 -245 304 -300 28 -37
47 -53 62 -53 54 0 62 56 18 116 -42 57 -251 268 -295 298 -41 28 -84 34 -104
14z"/>
<path d="M349 533 c-8 -10 -23 -35 -32 -56 -10 -22 -51 -92 -92 -157 -41 -65
-75 -126 -75 -137 0 -27 19 -43 52 -43 24 0 36 12 85 88 80 124 143 243 143
273 0 47 -52 67 -81 32z"/>
<path d="M1362 518 c-22 -22 -12 -50 61 -172 40 -66 79 -134 88 -151 16 -33
51 -44 76 -24 29 25 11 88 -57 200 -35 57 -75 116 -89 132 -26 29 -59 35 -79
15z"/>
<path d="M762 498 c-20 -20 -14 -59 19 -128 17 -36 40 -90 51 -120 26 -69 45
-98 69 -105 26 -9 59 12 59 37 0 25 -47 143 -98 248 -30 61 -42 76 -62 78 -14
2 -31 -3 -38 -10z"/>
</g>
</svg>
