<?xml version="1.0" standalone="no"?>
<!DOCTYPE svg PUBLIC "-//W3C//DTD SVG 20010904//EN"
 "http://www.w3.org/TR/2001/REC-SVG-20010904/DTD/svg10.dtd">
<svg version="1.0" xmlns="http://www.w3.org/2000/svg"
 width="248.000000pt" height="248.000000pt" viewBox="0 0 248.000000 248.000000"
 preserveAspectRatio="xMidYMid meet">
<metadata>
Created by potrace 1.10, written by Peter Selinger 2001-2011
</metadata>
<g transform="translate(0.000000,248.000000) scale(0.100000,-0.100000)"
fill="#000000" stroke="none">
<path d="M1940 2100 c-25 -4 -151 -13 -280 -20 -129 -6 -246 -13 -260 -15 -14
-2 -59 -6 -100 -10 -41 -3 -138 -12 -215 -20 -77 -8 -178 -17 -225 -20 -47 -4
-125 -13 -175 -21 -49 -8 -132 -14 -182 -14 -80 0 -96 -3 -113 -20 -26 -26
-25 -45 1 -71 21 -21 28 -22 128 -16 58 4 133 12 166 18 33 6 128 17 210 24
196 17 185 28 185 -184 -1 -137 -11 -286 -22 -296 -2 -2 -64 -11 -138 -20 -74
-9 -186 -23 -249 -30 -63 -8 -124 -21 -137 -30 -28 -18 -32 -56 -8 -76 16 -13
35 -12 352 27 67 9 131 14 142 12 19 -3 17 -12 -34 -160 -109 -315 -301 -578
-513 -701 -76 -44 -193 -87 -237 -87 -51 0 -85 -57 -54 -88 32 -32 169 -3 303
65 185 93 318 232 479 504 53 89 130 284 171 430 16 56 17 57 58 63 78 11 291
27 453 34 111 5 167 12 178 21 25 21 20 58 -10 78 -25 16 -40 16 -273 -1 -135
-9 -274 -20 -309 -23 l-64 -6 9 84 c10 103 11 345 1 380 l-7 25 102 13 c56 6
183 16 282 21 351 19 458 30 477 47 25 22 23 59 -4 77 -24 17 -23 17 -88 6z"/>
</g>
</svg>
