<?xml version="1.0" standalone="no"?>
<!DOCTYPE svg PUBLIC "-//W3C//DTD SVG 20010904//EN"
 "http://www.w3.org/TR/2001/REC-SVG-20010904/DTD/svg10.dtd">
<svg version="1.0" xmlns="http://www.w3.org/2000/svg"
 width="248.000000pt" height="248.000000pt" viewBox="0 0 248.000000 248.000000"
 preserveAspectRatio="xMidYMid meet">
<metadata>
Created by potrace 1.10, written by Peter Selinger 2001-2011
</metadata>
<g transform="translate(0.000000,248.000000) scale(0.100000,-0.100000)"
fill="#000000" stroke="none">
<path d="M1199 2424 c-10 -13 -15 -58 -17 -180 l-3 -162 -64 -11 c-35 -6 -115
-14 -177 -17 -70 -4 -122 -12 -135 -20 -32 -20 -30 -59 3 -81 27 -17 63 -16
330 14 l41 5 6 -212 c6 -229 13 -260 61 -260 48 0 51 16 48 256 l-4 223 34 5
c18 3 62 7 98 10 111 9 261 34 276 47 22 18 17 57 -11 75 -25 16 -59 15 -180
-6 -27 -5 -87 -12 -132 -15 l-83 -6 0 148 c0 99 -4 156 -13 173 -15 31 -58 38
-78 14z"/>
</g>
</svg>
