<?xml version="1.0" standalone="no"?>
<!DOCTYPE svg PUBLIC "-//W3C//DTD SVG 20010904//EN"
 "http://www.w3.org/TR/2001/REC-SVG-20010904/DTD/svg10.dtd">
<svg version="1.0" xmlns="http://www.w3.org/2000/svg"
 width="248.000000pt" height="248.000000pt" viewBox="0 0 248.000000 248.000000"
 preserveAspectRatio="xMidYMid meet">
<metadata>
Created by potrace 1.10, written by Peter Selinger 2001-2011
</metadata>
<g transform="translate(0.000000,248.000000) scale(0.100000,-0.100000)"
fill="#000000" stroke="none">
<path d="M1199 2424 c-10 -13 -15 -58 -17 -180 l-3 -162 -64 -11 c-35 -6 -115
-14 -177 -17 -70 -4 -122 -12 -135 -20 -32 -20 -30 -59 3 -81 27 -17 58 -16
332 14 l42 5 0 -128 c0 -71 3 -166 7 -211 l6 -83 -36 0 c-20 0 -69 -5 -109
-10 -40 -6 -143 -14 -228 -20 -460 -28 -638 -43 -660 -53 -18 -9 -25 -20 -25
-42 0 -42 33 -57 115 -50 36 3 133 10 215 15 300 21 552 40 635 50 47 5 156
12 244 16 l158 7 -11 -21 c-7 -13 -11 -79 -11 -170 l0 -149 -142 -11 c-79 -7
-186 -16 -238 -21 -52 -5 -212 -15 -355 -21 -150 -7 -271 -17 -285 -24 -36
-16 -39 -60 -6 -81 23 -15 47 -16 258 -5 128 6 325 19 438 30 113 10 234 21
269 23 l64 3 -8 -357 c-4 -197 -10 -381 -14 -409 l-6 -50 -55 46 c-79 66 -127
89 -156 75 -18 -8 -24 -19 -24 -40 0 -27 14 -41 127 -126 139 -103 170 -114
198 -71 22 33 32 183 40 602 l7 341 97 8 c53 4 202 10 332 13 255 8 273 11
267 61 -6 48 -33 52 -263 47 -115 -3 -261 -9 -322 -12 l-113 -6 0 144 c0 110
-3 148 -15 165 -14 19 -13 21 13 26 15 3 193 11 396 18 334 11 371 14 388 31
24 24 23 43 -3 69 -21 21 -26 21 -218 15 -188 -7 -404 -18 -706 -36 -77 -4
-142 -6 -145 -3 -3 3 -7 96 -9 208 l-3 204 33 5 c19 3 63 7 99 10 111 9 261
34 276 47 22 18 17 57 -11 75 -25 16 -59 15 -180 -6 -27 -5 -87 -12 -132 -15
l-83 -6 0 148 c0 99 -4 156 -13 173 -15 31 -58 38 -78 14z"/>
<path d="M702 858 c-16 -16 -15 -49 3 -75 9 -12 70 -67 136 -123 122 -101 157
-118 187 -88 25 25 13 55 -45 104 -32 27 -95 81 -140 121 -82 73 -115 87 -141
61z"/>
</g>
</svg>
