<?xml version="1.0" standalone="no"?>
<!DOCTYPE svg PUBLIC "-//W3C//DTD SVG 20010904//EN"
 "http://www.w3.org/TR/2001/REC-SVG-20010904/DTD/svg10.dtd">
<svg version="1.0" xmlns="http://www.w3.org/2000/svg"
 width="248.000000pt" height="248.000000pt" viewBox="0 0 248.000000 248.000000"
 preserveAspectRatio="xMidYMid meet">
<metadata>
Created by potrace 1.10, written by Peter Selinger 2001-2011
</metadata>
<g transform="translate(0.000000,248.000000) scale(0.100000,-0.100000)"
fill="#000000" stroke="none">
<path d="M1199 2424 c-10 -13 -15 -58 -17 -180 l-3 -162 -64 -11 c-35 -6 -115
-14 -177 -17 -70 -4 -122 -12 -135 -20 -32 -20 -30 -59 3 -81 27 -17 58 -16
332 14 l42 5 0 -128 c0 -71 3 -166 7 -211 l6 -83 -36 0 c-20 0 -69 -5 -109
-10 -40 -6 -143 -14 -228 -20 -460 -28 -638 -43 -660 -53 -18 -9 -25 -20 -25
-42 0 -42 33 -57 115 -50 36 3 133 10 215 15 291 20 551 40 635 49 47 5 177
15 289 21 112 6 207 12 210 14 3 2 174 10 380 17 339 11 376 14 393 31 24 24
23 43 -3 69 -21 21 -26 21 -218 15 -188 -7 -404 -18 -706 -36 -77 -4 -142 -6
-145 -3 -3 3 -7 96 -9 208 l-3 204 33 5 c19 3 63 7 99 10 111 9 261 34 276 47
22 18 17 57 -11 75 -25 16 -59 15 -180 -6 -27 -5 -87 -12 -132 -15 l-83 -6 0
148 c0 99 -4 156 -13 173 -15 31 -58 38 -78 14z"/>
<path d="M1869 1155 c-3 -2 -77 -9 -164 -14 -149 -10 -350 -27 -605 -50 -58
-6 -220 -15 -360 -22 -147 -6 -266 -16 -280 -23 -36 -16 -39 -60 -6 -81 23
-15 47 -16 258 -5 128 6 325 19 438 30 113 10 275 24 360 30 85 6 202 15 260
21 58 5 186 9 285 9 203 0 230 7 230 55 0 48 -27 55 -231 55 -99 0 -183 -2
-185 -5z"/>
</g>
</svg>
