<?xml version="1.0" standalone="no"?>
<!DOCTYPE svg PUBLIC "-//W3C//DTD SVG 20010904//EN"
 "http://www.w3.org/TR/2001/REC-SVG-20010904/DTD/svg10.dtd">
<svg version="1.0" xmlns="http://www.w3.org/2000/svg"
 width="248.000000pt" height="248.000000pt" viewBox="0 0 248.000000 248.000000"
 preserveAspectRatio="xMidYMid meet">
<metadata>
Created by potrace 1.10, written by Peter Selinger 2001-2011
</metadata>
<g transform="translate(0.000000,248.000000) scale(0.100000,-0.100000)"
fill="#000000" stroke="none">
<path d="M1565 2119 c-66 -10 -214 -27 -350 -39 -60 -6 -144 -14 -185 -20 -41
-5 -104 -9 -140 -10 -43 0 -73 -5 -88 -16 -30 -21 -29 -59 4 -81 24 -15 37
-16 153 -4 69 7 169 16 221 21 341 31 494 52 516 71 21 17 17 56 -8 73 -24 17
-44 18 -123 5z"/>
</g>
</svg>
