<?xml version="1.0" standalone="no"?>
<!DOCTYPE svg PUBLIC "-//W3C//DTD SVG 20010904//EN"
 "http://www.w3.org/TR/2001/REC-SVG-20010904/DTD/svg10.dtd">
<svg version="1.0" xmlns="http://www.w3.org/2000/svg"
 width="248.000000pt" height="248.000000pt" viewBox="0 0 248.000000 248.000000"
 preserveAspectRatio="xMidYMid meet">
<metadata>
Created by potrace 1.10, written by Peter Selinger 2001-2011
</metadata>
<g transform="translate(0.000000,248.000000) scale(0.100000,-0.100000)"
fill="#000000" stroke="none">
<path d="M627 2203 c-8 -10 -25 -43 -37 -73 -12 -30 -31 -77 -41 -104 -87
-216 -283 -582 -360 -671 -46 -53 -53 -73 -34 -101 25 -38 58 -31 102 21 42
51 170 255 226 361 45 84 177 379 177 393 0 20 12 11 104 -76 50 -47 116 -105
146 -127 30 -23 65 -50 76 -62 26 -26 102 -78 128 -88 27 -10 66 19 66 49 0
18 -12 33 -42 55 -182 129 -407 336 -423 390 -4 14 -12 31 -17 38 -15 18 -52
15 -71 -5z"/>
<path d="M865 1643 c-11 -3 -87 -27 -168 -54 -82 -27 -165 -49 -186 -49 -50 0
-83 -24 -79 -58 4 -36 41 -54 98 -47 37 4 244 66 399 118 45 16 58 38 43 71
-10 22 -18 26 -49 25 -21 -1 -47 -4 -58 -6z"/>
<path d="M1020 1349 c-47 -16 -146 -45 -220 -64 -316 -80 -465 -115 -485 -115
-31 0 -65 -28 -65 -54 0 -32 25 -50 68 -49 41 1 363 78 567 135 77 21 168 46
203 55 68 17 96 42 86 80 -5 18 -43 44 -62 42 -4 0 -45 -14 -92 -30z"/>
</g>
</svg>
