<?xml version="1.0" standalone="no"?>
<!DOCTYPE svg PUBLIC "-//W3C//DTD SVG 20010904//EN"
 "http://www.w3.org/TR/2001/REC-SVG-20010904/DTD/svg10.dtd">
<svg version="1.0" xmlns="http://www.w3.org/2000/svg"
 width="248.000000pt" height="248.000000pt" viewBox="0 0 248.000000 248.000000"
 preserveAspectRatio="xMidYMid meet">
<metadata>
Created by potrace 1.10, written by Peter Selinger 2001-2011
</metadata>
<g transform="translate(0.000000,248.000000) scale(0.100000,-0.100000)"
fill="#000000" stroke="none">
<path d="M627 2203 c-8 -10 -25 -43 -37 -73 -12 -30 -31 -77 -41 -104 -87
-216 -283 -582 -360 -671 -46 -53 -53 -73 -34 -101 25 -38 58 -31 102 21 42
51 170 255 226 361 45 84 177 379 177 393 0 20 12 11 104 -76 50 -47 116 -105
146 -127 30 -23 65 -50 76 -62 26 -26 102 -78 128 -88 27 -10 66 19 66 49 0
18 -12 33 -42 55 -182 129 -407 336 -423 390 -4 14 -12 31 -17 38 -15 18 -52
15 -71 -5z"/>
<path d="M865 1643 c-11 -3 -87 -27 -168 -54 -82 -27 -165 -49 -186 -49 -45 0
-81 -24 -81 -54 0 -49 58 -65 150 -42 35 9 64 15 66 13 5 -5 18 -207 13 -207
-2 0 -76 -18 -163 -40 -88 -22 -169 -40 -180 -40 -53 0 -86 -61 -50 -91 24
-20 76 -14 236 25 79 20 146 36 149 36 2 0 4 -144 4 -319 l0 -320 -65 -25
c-36 -13 -114 -41 -175 -62 -119 -40 -145 -55 -145 -89 0 -28 18 -45 50 -45
30 0 340 108 481 168 51 22 123 50 159 62 85 28 198 88 210 111 7 11 6 27 0
43 -12 32 -58 35 -104 7 -30 -19 -283 -121 -299 -121 -9 0 -5 605 4 614 6 7
214 67 317 93 68 17 96 42 86 80 -12 43 -50 46 -149 13 -77 -26 -233 -70 -248
-70 -5 0 -9 40 -21 177 l-3 41 71 22 c156 48 170 57 148 104 -10 22 -18 26
-49 25 -21 -1 -47 -4 -58 -6z"/>
<path d="M947 1072 c-10 -10 -17 -25 -17 -32 0 -20 -65 -144 -116 -221 -49
-75 -52 -88 -24 -114 33 -29 64 -13 113 62 105 159 147 271 117 308 -17 20
-53 19 -73 -3z"/>
<path d="M352 868 c-36 -36 13 -115 143 -229 56 -49 90 -60 113 -37 29 29 13
59 -97 169 -106 106 -134 122 -159 97z"/>
</g>
</svg>
