<?xml version="1.0" standalone="no"?>
<!DOCTYPE svg PUBLIC "-//W3C//DTD SVG 20010904//EN"
 "http://www.w3.org/TR/2001/REC-SVG-20010904/DTD/svg10.dtd">
<svg version="1.0" xmlns="http://www.w3.org/2000/svg"
 width="248.000000pt" height="248.000000pt" viewBox="0 0 248.000000 248.000000"
 preserveAspectRatio="xMidYMid meet">
<metadata>
Created by potrace 1.10, written by Peter Selinger 2001-2011
</metadata>
<g transform="translate(0.000000,248.000000) scale(0.100000,-0.100000)"
fill="#000000" stroke="none">
<path d="M834 2355 c-15 -23 -16 -41 -5 -183 6 -86 11 -175 11 -198 l0 -41
-97 -25 c-54 -14 -145 -36 -203 -48 -129 -26 -154 -38 -158 -71 -4 -33 20 -53
61 -51 36 1 247 46 321 67 81 24 76 33 76 -145 0 -131 -3 -160 -14 -160 -8 0
-72 -18 -143 -40 -70 -22 -157 -47 -193 -56 -36 -9 -75 -22 -87 -30 -30 -19
-30 -59 0 -78 20 -14 31 -13 102 5 69 17 285 82 323 96 9 4 12 -26 12 -131 0
-75 -3 -136 -6 -136 -4 0 -24 16 -45 35 -45 40 -61 43 -89 15 -36 -36 -23 -62
67 -130 142 -107 183 -51 183 247 l0 134 33 13 c17 7 53 21 80 30 57 21 72 55
38 89 -22 22 -20 23 -133 -10 -17 -5 -18 7 -18 146 0 113 3 153 13 155 6 2 55
14 107 26 101 23 130 40 130 75 0 50 -29 54 -155 24 -48 -11 -89 -18 -92 -15
-3 2 -10 90 -17 194 -8 129 -16 195 -25 206 -20 24 -58 20 -77 -9z"/>
<path d="M1820 2274 c-125 -80 -193 -118 -346 -194 -107 -53 -167 -88 -178
-105 -16 -24 -16 -36 -5 -122 15 -118 7 -258 -21 -373 -22 -89 -99 -260 -144
-319 -14 -19 -26 -42 -26 -51 0 -20 31 -50 52 -50 19 0 63 43 95 94 68 107
153 368 153 473 0 15 4 33 8 39 7 10 218 44 275 44 l27 0 0 -107 c-1 -60 -5
-209 -10 -333 -10 -253 -7 -275 45 -275 22 0 33 7 42 25 11 24 33 437 33 631
l0 76 95 15 c103 17 125 28 125 63 0 27 -21 47 -52 48 -22 1 -252 -28 -473
-58 -55 -8 -103 -11 -106 -7 -4 4 -9 36 -11 71 l-3 65 151 75 c82 42 163 85
180 97 16 11 36 23 45 26 9 4 48 27 87 52 74 47 96 81 75 115 -17 27 -55 23
-113 -15z"/>
<path d="M1335 920 c-27 -5 -198 -9 -380 -9 -312 -1 -332 -2 -363 -21 -18 -11
-35 -27 -39 -36 -9 -24 15 -195 44 -309 14 -55 31 -139 38 -187 7 -48 17 -94
22 -102 7 -13 74 -16 512 -20 436 -4 506 -7 520 -21 25 -22 58 -19 75 8 8 12
27 65 41 117 15 52 39 138 55 190 42 138 70 259 70 306 0 52 -20 71 -90 84
-61 11 -430 11 -505 0z m482 -142 c-3 -24 -20 -90 -37 -148 -18 -58 -42 -145
-55 -193 -13 -49 -26 -91 -28 -94 -3 -3 -219 -2 -480 2 l-475 8 -7 46 c-3 25
-19 98 -35 161 -16 63 -32 143 -36 178 l-7 62 284 1 c156 1 311 5 344 9 33 4
167 8 299 9 l239 1 -6 -42z"/>
</g>
</svg>
