<?xml version="1.0" standalone="no"?>
<!DOCTYPE svg PUBLIC "-//W3C//DTD SVG 20010904//EN"
 "http://www.w3.org/TR/2001/REC-SVG-20010904/DTD/svg10.dtd">
<svg version="1.0" xmlns="http://www.w3.org/2000/svg"
 width="248.000000pt" height="248.000000pt" viewBox="0 0 248.000000 248.000000"
 preserveAspectRatio="xMidYMid meet">
<metadata>
Created by potrace 1.10, written by Peter Selinger 2001-2011
</metadata>
<g transform="translate(0.000000,248.000000) scale(0.100000,-0.100000)"
fill="#000000" stroke="none">
<path d="M1398 2163 c-8 -10 -19 -30 -26 -45 -17 -41 -136 -220 -221 -333
-101 -134 -164 -207 -303 -352 -65 -66 -118 -125 -118 -130 0 -20 33 -53 53
-53 28 0 163 125 273 251 140 161 348 449 405 560 22 43 25 89 7 107 -17 17
-53 15 -70 -5z"/>
</g>
</svg>
