<?xml version="1.0" standalone="no"?>
<!DOCTYPE svg PUBLIC "-//W3C//DTD SVG 20010904//EN"
 "http://www.w3.org/TR/2001/REC-SVG-20010904/DTD/svg10.dtd">
<svg version="1.0" xmlns="http://www.w3.org/2000/svg"
 width="248.000000pt" height="248.000000pt" viewBox="0 0 248.000000 248.000000"
 preserveAspectRatio="xMidYMid meet">
<metadata>
Created by potrace 1.10, written by Peter Selinger 2001-2011
</metadata>
<g transform="translate(0.000000,248.000000) scale(0.100000,-0.100000)"
fill="#000000" stroke="none">
<path d="M1404 2168 c-11 -13 -25 -35 -32 -50 -17 -41 -136 -220 -221 -333
-101 -134 -164 -207 -303 -352 -65 -66 -118 -125 -118 -130 0 -20 33 -53 53
-53 28 0 163 125 273 251 104 120 224 279 320 425 42 63 77 114 79 114 1 0 57
-60 123 -132 178 -196 411 -418 500 -477 148 -97 168 -105 191 -77 7 8 11 27
9 43 -2 23 -18 38 -83 81 -44 29 -98 70 -120 90 -22 21 -56 50 -76 65 -45 32
-263 255 -394 402 -120 135 -141 155 -164 155 -10 0 -26 -10 -37 -22z"/>
</g>
</svg>
