<?xml version="1.0" standalone="no"?>
<!DOCTYPE svg PUBLIC "-//W3C//DTD SVG 20010904//EN"
 "http://www.w3.org/TR/2001/REC-SVG-20010904/DTD/svg10.dtd">
<svg version="1.0" xmlns="http://www.w3.org/2000/svg"
 width="248.000000pt" height="248.000000pt" viewBox="0 0 248.000000 248.000000"
 preserveAspectRatio="xMidYMid meet">
<metadata>
Created by potrace 1.10, written by Peter Selinger 2001-2011
</metadata>
<g transform="translate(0.000000,248.000000) scale(0.100000,-0.100000)"
fill="#000000" stroke="none">
<path d="M1404 2168 c-11 -13 -25 -35 -32 -50 -17 -41 -136 -220 -221 -333
-101 -134 -164 -207 -303 -352 -65 -66 -118 -125 -118 -130 0 -20 33 -53 53
-53 28 0 163 125 273 251 104 120 224 279 320 425 42 63 77 114 79 114 1 0 57
-60 123 -132 178 -196 411 -418 500 -477 148 -97 168 -105 191 -77 7 8 11 27
9 43 -2 23 -18 38 -83 81 -44 29 -98 70 -120 90 -22 21 -56 50 -76 65 -45 32
-263 255 -394 402 -120 135 -141 155 -164 155 -10 0 -26 -10 -37 -22z"/>
<path d="M220 1926 c-18 -22 -8 -59 20 -73 14 -7 72 -35 130 -62 58 -28 128
-64 157 -81 56 -34 85 -34 103 1 15 28 -1 52 -63 92 -170 111 -314 161 -347
123z"/>
<path d="M1550 1620 c-41 -4 -124 -11 -185 -15 -121 -8 -155 -21 -155 -60 0
-44 38 -59 135 -51 l85 7 0 -113 0 -114 -197 -13 c-109 -7 -204 -18 -210 -23
-19 -15 -16 -53 6 -72 23 -21 48 -22 252 -11 l156 8 6 -24 c3 -13 9 -152 13
-308 l7 -283 -47 36 c-55 42 -89 46 -111 12 -20 -30 -12 -48 33 -83 21 -15 61
-49 90 -75 29 -27 60 -48 70 -48 28 0 60 36 68 77 8 40 -2 536 -12 640 -8 73
-27 64 186 88 80 9 156 22 170 28 30 15 38 58 14 77 -18 16 -93 16 -184 1 -30
-5 -88 -12 -127 -16 l-73 -6 0 115 c0 104 2 116 18 117 76 2 184 18 197 29 20
16 19 54 -1 74 -17 17 -69 19 -204 6z"/>
<path d="M1121 1006 c-6 -7 -18 -36 -26 -63 -14 -48 -78 -157 -142 -242 -48
-63 -41 -111 15 -111 39 0 126 110 195 247 41 80 51 130 32 159 -17 27 -56 32
-74 10z"/>
<path d="M1722 998 c-7 -7 -12 -21 -12 -32 0 -41 239 -299 288 -312 27 -8 62
20 62 49 0 11 -31 51 -72 92 -40 40 -101 104 -136 144 -49 55 -69 71 -91 71
-15 0 -32 -5 -39 -12z"/>
</g>
</svg>
