<?xml version="1.0" standalone="no"?>
<!DOCTYPE svg PUBLIC "-//W3C//DTD SVG 20010904//EN"
 "http://www.w3.org/TR/2001/REC-SVG-20010904/DTD/svg10.dtd">
<svg version="1.0" xmlns="http://www.w3.org/2000/svg"
 width="248.000000pt" height="248.000000pt" viewBox="0 0 248.000000 248.000000"
 preserveAspectRatio="xMidYMid meet">
<metadata>
Created by potrace 1.10, written by Peter Selinger 2001-2011
</metadata>
<g transform="translate(0.000000,248.000000) scale(0.100000,-0.100000)"
fill="#000000" stroke="none">
<path d="M639 2177 c-103 -74 -276 -203 -368 -272 -74 -57 -89 -91 -50 -118
35 -25 36 -24 313 184 54 41 120 89 147 108 101 69 131 115 97 149 -23 23 -53
12 -139 -51z"/>
<path d="M530 1562 c-131 -133 -248 -240 -363 -332 -80 -64 -89 -121 -21 -128
24 -2 50 16 164 114 169 146 222 196 332 311 69 72 88 98 88 120 0 34 -16 53
-44 53 -13 -1 -71 -52 -156 -138z"/>
</g>
</svg>
