<?xml version="1.0" standalone="no"?>
<!DOCTYPE svg PUBLIC "-//W3C//DTD SVG 20010904//EN"
 "http://www.w3.org/TR/2001/REC-SVG-20010904/DTD/svg10.dtd">
<svg version="1.0" xmlns="http://www.w3.org/2000/svg"
 width="248.000000pt" height="248.000000pt" viewBox="0 0 248.000000 248.000000"
 preserveAspectRatio="xMidYMid meet">
<metadata>
Created by potrace 1.10, written by Peter Selinger 2001-2011
</metadata>
<g transform="translate(0.000000,248.000000) scale(0.100000,-0.100000)"
fill="#000000" stroke="none">
<path d="M1840 2243 c-101 -6 -284 -32 -370 -52 -102 -25 -127 -50 -100 -101
5 -10 12 -174 16 -371 4 -218 10 -359 16 -366 14 -17 53 -16 67 1 7 8 12 74
14 177 l2 163 45 8 c62 11 426 48 469 48 l36 0 2 -268 c1 -147 4 -279 7 -294
8 -46 30 -974 23 -992 -6 -15 -13 -13 -64 15 -32 18 -91 52 -131 77 -65 39
-77 43 -98 33 -21 -9 -25 -17 -22 -44 3 -28 13 -38 80 -82 123 -80 230 -135
260 -135 31 0 68 34 68 64 5 197 -10 894 -28 1281 -9 196 -1 428 23 638 16
143 17 160 3 174 -29 29 -131 37 -318 26z m223 -100 c2 -5 -3 -71 -12 -148
l-16 -140 -130 -12 c-182 -16 -333 -32 -381 -39 l-41 -6 -7 136 c-4 74 -5 140
-2 145 16 25 303 68 468 70 64 0 119 -2 121 -6z"/>
<path d="M1009 2195 c-3 -2 -95 -9 -205 -14 -222 -11 -422 -36 -443 -56 -12
-12 -12 -33 -3 -132 32 -328 44 -563 37 -723 -4 -91 -8 -167 -10 -170 -2 -3
-8 -129 -14 -280 -14 -348 -20 -488 -27 -571 -5 -53 -3 -69 11 -82 21 -22 38
-21 63 0 22 19 23 34 37 348 14 328 17 389 25 505 5 69 10 160 11 202 2 88
-10 80 139 98 52 6 128 15 168 20 40 6 91 10 113 10 63 0 85 29 93 126 4 43 9
99 11 124 2 25 9 99 15 165 6 66 20 173 31 238 10 65 19 129 19 142 0 32 -53
69 -71 50z m-39 -112 c0 -4 -7 -48 -15 -98 -8 -49 -15 -107 -15 -128 0 -48 -8
-51 -175 -66 -71 -7 -163 -16 -203 -22 -41 -5 -77 -7 -81 -4 -5 2 -11 57 -15
122 -4 65 -8 127 -9 137 -2 16 7 22 41 29 130 26 472 48 472 30z m-50 -425
c-1 -91 -17 -200 -31 -209 -7 -4 -29 -8 -49 -8 -19 0 -96 -7 -170 -15 -203
-24 -180 -37 -180 108 0 120 1 124 23 129 12 3 101 13 197 22 96 9 180 18 185
20 22 8 25 3 25 -47z"/>
</g>
</svg>
