<?xml version="1.0" standalone="no"?>
<!DOCTYPE svg PUBLIC "-//W3C//DTD SVG 20010904//EN"
 "http://www.w3.org/TR/2001/REC-SVG-20010904/DTD/svg10.dtd">
<svg version="1.0" xmlns="http://www.w3.org/2000/svg"
 width="248.000000pt" height="248.000000pt" viewBox="0 0 248.000000 248.000000"
 preserveAspectRatio="xMidYMid meet">
<metadata>
Created by potrace 1.10, written by Peter Selinger 2001-2011
</metadata>
<g transform="translate(0.000000,248.000000) scale(0.100000,-0.100000)"
fill="#000000" stroke="none">
<path d="M361 2106 c-9 -10 -9 -42 -1 -122 30 -323 42 -556 35 -714 -4 -91 -8
-167 -10 -170 -2 -3 -8 -127 -14 -275 -6 -149 -13 -331 -16 -405 -3 -74 -8
-158 -11 -186 -5 -39 -2 -54 11 -67 21 -22 38 -21 63 1 23 19 24 24 48 597 3
77 9 192 15 255 12 154 11 566 -1 709 -28 318 -33 356 -48 374 -18 21 -55 22
-71 3z"/>
</g>
</svg>
