<?xml version="1.0" standalone="no"?>
<!DOCTYPE svg PUBLIC "-//W3C//DTD SVG 20010904//EN"
 "http://www.w3.org/TR/2001/REC-SVG-20010904/DTD/svg10.dtd">
<svg version="1.0" xmlns="http://www.w3.org/2000/svg"
 width="248.000000pt" height="248.000000pt" viewBox="0 0 248.000000 248.000000"
 preserveAspectRatio="xMidYMid meet">
<metadata>
Created by potrace 1.10, written by Peter Selinger 2001-2011
</metadata>
<g transform="translate(0.000000,248.000000) scale(0.100000,-0.100000)"
fill="#000000" stroke="none">
<path d="M669 2254 c-16 -19 -34 -338 -24 -442 4 -46 2 -63 -7 -66 -7 -2 -79
-13 -161 -24 -81 -11 -154 -25 -162 -32 -23 -19 -18 -57 8 -75 21 -14 38 -13
171 6 81 12 149 20 151 17 2 -2 5 -53 6 -113 l2 -110 -34 -7 c-19 -4 -118 -20
-222 -36 -103 -17 -194 -35 -202 -42 -23 -19 -18 -57 9 -75 22 -15 34 -14 147
5 159 28 332 51 337 45 13 -13 -197 -252 -451 -512 -86 -89 -99 -105 -93 -127
8 -31 48 -44 81 -26 60 32 415 421 567 622 l56 74 74 12 c162 26 294 51 310
57 40 16 29 79 -16 91 -13 3 -74 -4 -137 -15 -62 -12 -119 -21 -127 -21 -15 0
-2 18 140 198 54 67 116 155 139 195 22 40 51 90 65 112 40 66 26 121 -28 113
-23 -3 -62 -57 -138 -189 -19 -33 -48 -77 -65 -96 -28 -32 -33 -35 -52 -23
-17 11 -43 11 -134 3 -62 -7 -118 -9 -123 -6 -5 4 -6 94 -2 227 5 171 3 227
-7 246 -15 30 -58 38 -78 14z m301 -580 c0 -3 -13 -22 -30 -42 -16 -20 -57
-73 -92 -116 -35 -44 -69 -81 -75 -84 -10 -3 -13 24 -13 111 l0 114 93 10 c50
6 98 11 105 11 6 1 12 -1 12 -4z"/>
</g>
</svg>
