<?xml version="1.0" standalone="no"?>
<!DOCTYPE svg PUBLIC "-//W3C//DTD SVG 20010904//EN"
 "http://www.w3.org/TR/2001/REC-SVG-20010904/DTD/svg10.dtd">
<svg version="1.0" xmlns="http://www.w3.org/2000/svg"
 width="248.000000pt" height="248.000000pt" viewBox="0 0 248.000000 248.000000"
 preserveAspectRatio="xMidYMid meet">
<metadata>
Created by potrace 1.10, written by Peter Selinger 2001-2011
</metadata>
<g transform="translate(0.000000,248.000000) scale(0.100000,-0.100000)"
fill="#000000" stroke="none">
<path d="M669 2254 c-16 -19 -34 -338 -24 -442 4 -46 2 -63 -7 -66 -7 -2 -79
-13 -161 -24 -81 -11 -154 -25 -162 -32 -23 -19 -18 -57 8 -75 21 -14 38 -13
171 6 81 12 149 20 151 17 2 -2 5 -53 6 -113 l2 -110 -34 -7 c-19 -4 -118 -20
-222 -36 -103 -17 -194 -35 -202 -42 -23 -19 -18 -57 9 -75 25 -17 -4 -20 436
51 52 8 142 22 200 29 57 8 138 21 180 29 41 8 95 18 120 21 71 10 109 25 115
45 8 26 -11 59 -39 66 -13 3 -99 -8 -192 -25 -93 -16 -190 -32 -216 -36 l-48
-6 0 114 0 113 116 12 c135 15 154 22 154 61 0 51 -17 56 -148 44 -64 -6 -121
-9 -126 -6 -5 4 -6 98 -2 227 5 171 3 227 -7 246 -15 30 -58 38 -78 14z"/>
</g>
</svg>
