<?xml version="1.0" standalone="no"?>
<!DOCTYPE svg PUBLIC "-//W3C//DTD SVG 20010904//EN"
 "http://www.w3.org/TR/2001/REC-SVG-20010904/DTD/svg10.dtd">
<svg version="1.0" xmlns="http://www.w3.org/2000/svg"
 width="248.000000pt" height="248.000000pt" viewBox="0 0 248.000000 248.000000"
 preserveAspectRatio="xMidYMid meet">
<metadata>
Created by potrace 1.10, written by Peter Selinger 2001-2011
</metadata>
<g transform="translate(0.000000,248.000000) scale(0.100000,-0.100000)"
fill="#000000" stroke="none">
<path d="M669 2254 c-16 -19 -34 -338 -24 -442 4 -46 2 -63 -7 -66 -7 -2 -79
-13 -161 -24 -81 -11 -154 -25 -162 -32 -23 -19 -18 -57 8 -75 22 -14 37 -13
161 5 75 11 144 20 152 20 11 0 14 -20 14 -102 0 -122 12 -153 55 -153 44 0
55 31 55 161 l0 110 116 12 c135 15 154 22 154 61 0 51 -17 56 -148 44 -64 -6
-121 -9 -126 -6 -5 4 -6 98 -2 227 5 171 3 227 -7 246 -15 30 -58 38 -78 14z"/>
</g>
</svg>
