<?xml version="1.0" standalone="no"?>
<!DOCTYPE svg PUBLIC "-//W3C//DTD SVG 20010904//EN"
 "http://www.w3.org/TR/2001/REC-SVG-20010904/DTD/svg10.dtd">
<svg version="1.0" xmlns="http://www.w3.org/2000/svg"
 width="248.000000pt" height="248.000000pt" viewBox="0 0 248.000000 248.000000"
 preserveAspectRatio="xMidYMid meet">
<metadata>
Created by potrace 1.10, written by Peter Selinger 2001-2011
</metadata>
<g transform="translate(0.000000,248.000000) scale(0.100000,-0.100000)"
fill="#000000" stroke="none">
<path d="M1512 2367 c-6 -7 -12 -78 -14 -164 -2 -84 -7 -156 -13 -162 -9 -9
-60 -15 -355 -41 -181 -17 -188 -18 -205 -44 -14 -21 -14 -30 0 -87 26 -113
20 -321 -16 -527 -71 -412 -208 -775 -374 -997 -59 -78 -58 -125 2 -125 47 0
139 130 239 337 147 303 267 784 268 1078 1 72 -1 157 -4 190 l-5 60 65 7 c36
3 135 14 220 23 230 23 569 46 792 54 130 4 201 10 209 18 18 18 14 65 -7 80
-21 16 -208 13 -459 -6 -77 -6 -165 -13 -195 -15 l-55 -4 0 148 c0 132 -2 150
-19 169 -21 23 -58 28 -74 8z"/>
<path d="M430 2216 c-20 -26 -7 -59 35 -87 93 -62 255 -149 277 -149 50 0 65
51 26 87 -13 11 -41 30 -64 41 -22 11 -78 43 -125 71 -86 52 -127 62 -149 37z"/>
<path d="M1830 1860 c-11 -11 -20 -32 -20 -47 0 -23 -29 -195 -34 -200 -5 -5
-330 -53 -334 -49 -2 3 -11 60 -18 127 -15 130 -28 159 -69 159 -45 0 -49 -19
-35 -160 7 -72 10 -133 7 -136 -3 -4 -59 -13 -124 -21 -74 -10 -125 -21 -135
-31 -22 -19 -23 -55 -3 -72 15 -13 32 -12 211 6 l62 7 3 -116 c5 -155 11 -162
129 -153 47 4 132 11 190 14 58 4 111 11 118 15 21 14 39 59 51 132 25 149 33
176 58 186 14 5 89 13 168 17 151 8 175 16 175 57 0 50 -49 60 -212 45 -66 -6
-123 -9 -126 -5 -3 3 2 43 11 88 9 45 17 90 17 100 0 21 -35 57 -55 57 -8 0
-24 -9 -35 -20z m-84 -392 c-3 -18 -10 -63 -16 -99 l-11 -65 -130 -13 c-71 -8
-131 -12 -133 -10 -2 2 -6 41 -9 87 -5 61 -3 84 6 87 15 6 244 42 276 44 21 1
23 -2 17 -31z"/>
<path d="M142 1468 c-17 -17 -15 -48 4 -69 22 -24 263 -119 302 -119 62 0 71
64 12 92 -70 34 -266 108 -286 108 -11 0 -25 -5 -32 -12z"/>
<path d="M533 995 c-13 -9 -41 -66 -73 -148 -69 -175 -145 -345 -219 -491 -61
-118 -72 -161 -49 -184 16 -16 53 -15 66 1 50 60 352 737 352 789 0 15 -34 48
-50 48 -3 0 -15 -7 -27 -15z"/>
<path d="M1765 979 c-22 -5 -139 -16 -260 -24 -236 -17 -265 -24 -265 -70 0
-43 35 -56 121 -45 41 5 115 10 165 10 50 0 115 5 144 10 29 6 55 8 58 5 9 -9
-143 -245 -169 -261 -12 -7 -136 74 -190 124 -56 52 -129 44 -129 -14 0 -17
11 -31 38 -48 20 -13 43 -30 50 -38 6 -8 46 -37 87 -63 41 -27 75 -51 75 -55
0 -3 -26 -29 -58 -57 -155 -136 -295 -220 -385 -230 -64 -7 -97 -26 -97 -57 0
-39 23 -49 100 -44 54 4 88 14 152 45 94 45 224 138 315 226 l62 59 115 -70
c131 -81 271 -154 366 -189 133 -51 247 -85 297 -90 49 -5 53 -4 65 21 8 20 9
32 1 44 -11 19 -18 21 -208 81 -72 22 -178 63 -235 92 -124 60 -320 177 -327
195 -2 7 14 37 36 66 63 84 201 319 201 342 0 45 -35 54 -125 35z"/>
</g>
</svg>
