<?xml version="1.0" standalone="no"?>
<!DOCTYPE svg PUBLIC "-//W3C//DTD SVG 20010904//EN"
 "http://www.w3.org/TR/2001/REC-SVG-20010904/DTD/svg10.dtd">
<svg version="1.0" xmlns="http://www.w3.org/2000/svg"
 width="248.000000pt" height="248.000000pt" viewBox="0 0 248.000000 248.000000"
 preserveAspectRatio="xMidYMid meet">
<metadata>
Created by potrace 1.10, written by Peter Selinger 2001-2011
</metadata>
<g transform="translate(0.000000,248.000000) scale(0.100000,-0.100000)"
fill="#000000" stroke="none">
<path d="M430 2216 c-20 -26 -7 -59 35 -87 93 -62 255 -149 277 -149 50 0 65
51 26 87 -13 11 -41 30 -64 41 -22 11 -78 43 -125 71 -86 52 -127 62 -149 37z"/>
<path d="M142 1468 c-17 -17 -15 -48 4 -69 22 -24 263 -119 302 -119 62 0 71
64 12 92 -70 34 -266 108 -286 108 -11 0 -25 -5 -32 -12z"/>
</g>
</svg>
