<?xml version="1.0" standalone="no"?>
<!DOCTYPE svg PUBLIC "-//W3C//DTD SVG 20010904//EN"
 "http://www.w3.org/TR/2001/REC-SVG-20010904/DTD/svg10.dtd">
<svg version="1.0" xmlns="http://www.w3.org/2000/svg"
 width="248.000000pt" height="248.000000pt" viewBox="0 0 248.000000 248.000000"
 preserveAspectRatio="xMidYMid meet">
<metadata>
Created by potrace 1.10, written by Peter Selinger 2001-2011
</metadata>
<g transform="translate(0.000000,248.000000) scale(0.100000,-0.100000)"
fill="#000000" stroke="none">
<path d="M1512 2368 c-8 -8 -12 -56 -12 -149 0 -186 0 -186 -97 -194 -43 -4
-134 -13 -203 -21 -69 -7 -147 -14 -175 -14 -69 0 -100 -18 -100 -55 0 -49 35
-59 158 -45 397 43 730 69 1029 79 130 4 201 10 209 18 18 18 14 65 -7 80 -21
16 -208 13 -459 -6 -77 -6 -165 -13 -195 -15 l-55 -4 0 148 c0 132 -2 150 -19
169 -21 23 -56 27 -74 9z"/>
<path d="M430 2216 c-20 -26 -7 -59 35 -87 93 -62 255 -149 277 -149 50 0 65
51 26 87 -13 11 -41 30 -64 41 -22 11 -78 43 -125 71 -86 52 -127 62 -149 37z"/>
<path d="M142 1468 c-17 -17 -15 -48 4 -69 22 -24 263 -119 302 -119 62 0 71
64 12 92 -70 34 -266 108 -286 108 -11 0 -25 -5 -32 -12z"/>
<path d="M533 995 c-13 -9 -41 -66 -73 -148 -69 -175 -145 -345 -219 -491 -61
-118 -72 -161 -49 -184 16 -16 53 -15 66 1 50 60 352 737 352 789 0 15 -34 48
-50 48 -3 0 -15 -7 -27 -15z"/>
</g>
</svg>
