<?xml version="1.0" standalone="no"?>
<!DOCTYPE svg PUBLIC "-//W3C//DTD SVG 20010904//EN"
 "http://www.w3.org/TR/2001/REC-SVG-20010904/DTD/svg10.dtd">
<svg version="1.0" xmlns="http://www.w3.org/2000/svg"
 width="248.000000pt" height="248.000000pt" viewBox="0 0 248.000000 248.000000"
 preserveAspectRatio="xMidYMid meet">
<metadata>
Created by potrace 1.10, written by Peter Selinger 2001-2011
</metadata>
<g transform="translate(0.000000,248.000000) scale(0.100000,-0.100000)"
fill="#000000" stroke="none">
<path d="M1650 2175 c-12 -14 -342 -181 -515 -260 -111 -51 -336 -135 -427
-160 -74 -20 -99 -51 -74 -90 9 -14 24 -25 34 -25 26 1 166 44 272 85 52 20
111 41 130 47 31 9 190 84 375 176 33 16 98 48 145 72 47 23 97 53 113 68 29
27 36 69 15 90 -17 17 -53 15 -68 -3z"/>
</g>
</svg>
