<?xml version="1.0" standalone="no"?>
<!DOCTYPE svg PUBLIC "-//W3C//DTD SVG 20010904//EN"
 "http://www.w3.org/TR/2001/REC-SVG-20010904/DTD/svg10.dtd">
<svg version="1.0" xmlns="http://www.w3.org/2000/svg"
 width="248.000000pt" height="248.000000pt" viewBox="0 0 248.000000 248.000000"
 preserveAspectRatio="xMidYMid meet">
<metadata>
Created by potrace 1.10, written by Peter Selinger 2001-2011
</metadata>
<g transform="translate(0.000000,248.000000) scale(0.100000,-0.100000)"
fill="#000000" stroke="none">
<path d="M1650 2175 c-12 -14 -342 -181 -515 -260 -111 -51 -336 -135 -427
-160 -74 -20 -99 -51 -74 -90 9 -14 24 -25 34 -25 26 1 165 44 272 85 52 20
115 42 140 50 25 8 54 21 65 29 11 9 23 16 28 16 4 0 7 -66 7 -147 0 -163 9
-196 51 -201 48 -6 54 15 59 217 l5 185 25 13 c14 7 61 30 105 52 202 97 252
124 278 149 29 27 36 69 15 90 -17 17 -53 15 -68 -3z"/>
</g>
</svg>
