<?xml version="1.0" standalone="no"?>
<!DOCTYPE svg PUBLIC "-//W3C//DTD SVG 20010904//EN"
 "http://www.w3.org/TR/2001/REC-SVG-20010904/DTD/svg10.dtd">
<svg version="1.0" xmlns="http://www.w3.org/2000/svg"
 width="248.000000pt" height="248.000000pt" viewBox="0 0 248.000000 248.000000"
 preserveAspectRatio="xMidYMid meet">
<metadata>
Created by potrace 1.10, written by Peter Selinger 2001-2011
</metadata>
<g transform="translate(0.000000,248.000000) scale(0.100000,-0.100000)"
fill="#000000" stroke="none">
<path d="M1775 2310 c-44 -4 -188 -15 -319 -23 -132 -9 -285 -21 -340 -26 -56
-6 -157 -15 -226 -22 -119 -10 -164 -23 -187 -51 -6 -7 -13 -96 -16 -203 -5
-164 -11 -214 -42 -365 -60 -294 -130 -524 -283 -931 -46 -123 -131 -292 -173
-345 -69 -86 3 -148 78 -66 34 36 183 321 183 349 0 8 18 55 39 106 80 188
202 588 246 806 13 68 26 125 27 127 2 1 80 7 173 13 94 6 220 18 280 26 61 8
214 22 340 30 250 17 299 26 315 55 6 11 15 52 20 92 16 122 29 199 45 283 11
60 12 87 4 106 -10 26 -48 51 -72 47 -7 -1 -48 -5 -92 -8z m55 -112 c-1 -32
-49 -330 -54 -336 -4 -3 -95 -12 -204 -19 -108 -7 -249 -19 -312 -28 -120 -15
-469 -40 -474 -34 -1 2 1 45 5 94 4 50 8 127 8 172 l1 81 98 6 c53 4 133 11
177 17 44 5 193 17 330 26 233 15 400 27 418 31 4 1 7 -4 7 -10z"/>
<path d="M1319 1614 c-10 -12 -16 -62 -21 -178 -3 -89 -7 -168 -7 -178 -1 -13
-16 -17 -78 -22 -124 -10 -270 -27 -381 -46 -79 -13 -108 -23 -128 -41 -48
-44 -47 -9 -10 -409 8 -91 20 -217 25 -280 15 -162 19 -178 46 -196 29 -19 62
-5 70 29 3 12 -1 87 -10 167 -8 80 -15 157 -15 172 0 32 -1 32 220 48 85 6
176 13 203 16 l47 5 -6 -225 c-8 -241 -5 -256 41 -256 12 0 30 9 40 21 17 18
20 46 27 236 5 135 12 219 18 223 12 7 271 20 409 20 l83 0 -6 -47 c-4 -27
-11 -68 -16 -93 -46 -232 -63 -343 -53 -358 14 -24 56 -26 75 -5 15 16 43 131
68 278 5 28 18 100 28 160 43 241 45 262 38 397 -9 165 -19 206 -52 218 -45
17 -417 7 -546 -15 l-27 -4 5 162 c3 121 1 168 -9 187 -15 31 -58 38 -78 14z
m596 -496 c3 -29 5 -105 3 -168 l-3 -115 -170 -6 c-93 -4 -210 -10 -260 -13
l-90 -6 3 167 c2 92 4 169 6 170 6 7 232 20 358 22 l147 1 6 -52z m-627 -145
l-3 -168 -95 -6 c-186 -13 -356 -28 -372 -34 -16 -6 -26 53 -43 245 l-6 65
113 18 c62 10 171 23 243 28 71 6 132 12 134 15 2 2 10 4 18 4 11 0 13 -32 11
-167z"/>
</g>
</svg>
