<?xml version="1.0" standalone="no"?>
<!DOCTYPE svg PUBLIC "-//W3C//DTD SVG 20010904//EN"
 "http://www.w3.org/TR/2001/REC-SVG-20010904/DTD/svg10.dtd">
<svg version="1.0" xmlns="http://www.w3.org/2000/svg"
 width="248.000000pt" height="248.000000pt" viewBox="0 0 248.000000 248.000000"
 preserveAspectRatio="xMidYMid meet">
<metadata>
Created by potrace 1.10, written by Peter Selinger 2001-2011
</metadata>
<g transform="translate(0.000000,248.000000) scale(0.100000,-0.100000)"
fill="#000000" stroke="none">
<path d="M1775 2309 c-44 -3 -188 -14 -319 -22 -132 -9 -285 -21 -340 -26 -56
-6 -157 -15 -226 -21 -141 -13 -173 -26 -168 -68 6 -53 30 -55 343 -22 55 6
210 18 345 27 135 8 283 19 330 22 47 4 87 6 88 5 2 -1 -8 -81 -22 -176 -36
-243 -35 -258 26 -258 35 0 46 21 58 112 16 122 29 199 45 283 11 61 13 86 4
107 -17 42 -38 47 -164 37z"/>
</g>
</svg>
