<?xml version="1.0" standalone="no"?>
<!DOCTYPE svg PUBLIC "-//W3C//DTD SVG 20010904//EN"
 "http://www.w3.org/TR/2001/REC-SVG-20010904/DTD/svg10.dtd">
<svg version="1.0" xmlns="http://www.w3.org/2000/svg"
 width="248.000000pt" height="248.000000pt" viewBox="0 0 248.000000 248.000000"
 preserveAspectRatio="xMidYMid meet">
<metadata>
Created by potrace 1.10, written by Peter Selinger 2001-2011
</metadata>
<g transform="translate(0.000000,248.000000) scale(0.100000,-0.100000)"
fill="#000000" stroke="none">
<path d="M1775 2310 c-44 -4 -188 -15 -319 -23 -132 -9 -285 -21 -340 -26 -56
-6 -157 -15 -226 -22 -119 -10 -164 -23 -187 -51 -6 -7 -13 -96 -16 -203 -5
-164 -11 -214 -42 -365 -60 -294 -130 -524 -283 -931 -46 -123 -131 -292 -173
-345 -69 -86 3 -148 78 -66 34 36 183 321 183 349 0 8 18 55 39 106 80 188
202 588 246 806 13 68 26 125 27 127 2 1 80 7 173 13 94 6 220 18 280 26 61 8
214 22 340 30 250 17 299 26 315 55 6 11 15 52 20 92 16 122 29 199 45 283 11
60 12 87 4 106 -10 26 -48 51 -72 47 -7 -1 -48 -5 -92 -8z m55 -112 c-1 -32
-49 -330 -54 -336 -4 -3 -95 -12 -204 -19 -108 -7 -249 -19 -312 -28 -120 -15
-469 -40 -474 -34 -1 2 1 45 5 94 4 50 8 127 8 172 l1 81 98 6 c53 4 133 11
177 17 44 5 193 17 330 26 233 15 400 27 418 31 4 1 7 -4 7 -10z"/>
<path d="M1319 1614 c-10 -12 -16 -62 -21 -178 -3 -89 -7 -168 -7 -178 -1 -13
-16 -17 -78 -22 -124 -10 -270 -27 -381 -46 -79 -13 -108 -23 -128 -41 -48
-44 -47 -9 -10 -409 8 -91 20 -217 25 -280 15 -162 19 -178 46 -196 28 -18 60
-7 70 26 3 10 -1 86 -9 167 -8 81 -18 189 -21 238 -3 50 -10 122 -15 160 -5
39 -11 104 -15 145 l-5 76 117 18 c65 10 170 22 233 27 63 5 128 11 144 15
l29 6 -6 -238 c-4 -132 -10 -332 -13 -446 -8 -222 -5 -238 41 -238 12 0 30 9
41 21 20 22 23 67 40 655 l7 252 51 6 c28 3 141 9 252 12 l201 7 6 -39 c23
-137 0 -341 -89 -802 -20 -103 -15 -125 28 -130 14 -2 31 5 40 15 15 16 43
131 68 278 5 28 18 100 28 160 43 241 45 262 38 397 -9 165 -19 206 -52 218
-45 17 -417 7 -546 -15 l-27 -4 5 162 c3 121 1 168 -9 187 -15 31 -58 38 -78
14z"/>
</g>
</svg>
