<?xml version="1.0" standalone="no"?>
<!DOCTYPE svg PUBLIC "-//W3C//DTD SVG 20010904//EN"
 "http://www.w3.org/TR/2001/REC-SVG-20010904/DTD/svg10.dtd">
<svg version="1.0" xmlns="http://www.w3.org/2000/svg"
 width="248.000000pt" height="248.000000pt" viewBox="0 0 248.000000 248.000000"
 preserveAspectRatio="xMidYMid meet">
<metadata>
Created by potrace 1.10, written by Peter Selinger 2001-2011
</metadata>
<g transform="translate(0.000000,248.000000) scale(0.100000,-0.100000)"
fill="#000000" stroke="none">
<path d="M1775 2310 c-44 -4 -188 -15 -319 -23 -132 -9 -285 -21 -340 -26 -56
-6 -157 -15 -226 -21 -141 -13 -173 -26 -168 -68 6 -53 30 -55 343 -22 55 6
210 18 345 27 135 8 283 19 330 22 47 4 87 6 88 5 6 -4 -45 -334 -52 -341 -4
-4 -95 -13 -204 -20 -108 -7 -246 -19 -307 -27 -60 -8 -198 -20 -305 -27 -132
-8 -202 -16 -217 -25 -31 -19 -30 -59 2 -80 21 -14 43 -14 192 -5 92 6 218 18
278 26 61 8 214 22 340 30 250 17 299 26 315 55 6 11 15 52 20 92 16 122 29
199 45 283 11 60 12 87 4 106 -10 26 -48 51 -72 47 -7 -1 -48 -5 -92 -8z"/>
</g>
</svg>
