<?xml version="1.0" standalone="no"?>
<!DOCTYPE svg PUBLIC "-//W3C//DTD SVG 20010904//EN"
 "http://www.w3.org/TR/2001/REC-SVG-20010904/DTD/svg10.dtd">
<svg version="1.0" xmlns="http://www.w3.org/2000/svg"
 width="248.000000pt" height="248.000000pt" viewBox="0 0 248.000000 248.000000"
 preserveAspectRatio="xMidYMid meet">
<metadata>
Created by potrace 1.10, written by Peter Selinger 2001-2011
</metadata>
<g transform="translate(0.000000,248.000000) scale(0.100000,-0.100000)"
fill="#000000" stroke="none">
<path d="M793 2316 c-26 -29 -91 -89 -144 -132 -238 -196 -295 -241 -343 -275
-53 -36 -68 -68 -46 -95 16 -18 53 -18 90 1 16 8 73 51 127 94 54 44 154 125
223 181 183 148 241 225 198 268 -25 25 -56 13 -105 -42z"/>
<path d="M1655 2350 c-88 -4 -244 -8 -346 -9 -152 -1 -189 -4 -199 -16 -15
-18 -15 -144 0 -255 6 -41 17 -150 25 -242 16 -189 32 -241 76 -246 38 -4 62
23 55 62 -6 26 -34 254 -36 279 0 4 176 7 391 7 l391 0 -5 -27 c-32 -161 -40
-232 -28 -247 14 -17 48 -21 68 -8 6 4 16 19 21 32 16 43 62 325 86 528 18
154 27 147 -174 148 -91 0 -237 -3 -325 -6z m390 -172 c-3 -40 -9 -88 -13
-106 l-7 -33 -400 1 c-219 0 -401 3 -404 6 -3 2 -7 44 -9 93 l-4 88 288 10
c159 5 349 10 423 11 l133 2 -7 -72z"/>
<path d="M702 1728 c-69 -84 -267 -274 -545 -523 -37 -33 -70 -68 -73 -78 -8
-24 22 -67 46 -67 18 0 114 78 237 194 35 33 65 57 68 54 2 -2 0 -89 -5 -194
-6 -104 -15 -362 -20 -574 -10 -420 -9 -430 45 -430 52 0 55 17 60 391 3 189
10 394 16 454 5 61 11 189 13 286 l3 177 109 108 c156 155 199 225 162 262
-28 28 -56 13 -116 -60z"/>
</g>
</svg>
