<?xml version="1.0" standalone="no"?>
<!DOCTYPE svg PUBLIC "-//W3C//DTD SVG 20010904//EN"
 "http://www.w3.org/TR/2001/REC-SVG-20010904/DTD/svg10.dtd">
<svg version="1.0" xmlns="http://www.w3.org/2000/svg"
 width="248.000000pt" height="248.000000pt" viewBox="0 0 248.000000 248.000000"
 preserveAspectRatio="xMidYMid meet">
<metadata>
Created by potrace 1.10, written by Peter Selinger 2001-2011
</metadata>
<g transform="translate(0.000000,248.000000) scale(0.100000,-0.100000)"
fill="#000000" stroke="none">
<path d="M702 2307 c-6 -7 -14 -67 -17 -132 -3 -66 -8 -136 -10 -155 -2 -20
-7 -84 -10 -142 -4 -58 -11 -111 -14 -117 -7 -11 -270 -53 -282 -45 -3 2 18
51 47 110 86 174 124 320 92 352 -16 16 -53 15 -66 0 -6 -7 -18 -42 -27 -77
-44 -170 -174 -409 -286 -529 -69 -72 -83 -104 -57 -130 32 -32 94 6 177 110
l44 55 81 7 c44 4 124 13 176 21 52 8 96 12 98 10 5 -5 -18 -1352 -25 -1438
-6 -74 4 -97 42 -97 12 0 29 7 36 16 17 20 25 181 28 539 3 489 20 989 34
1001 6 6 86 26 177 43 131 25 169 36 183 52 21 27 21 31 -2 60 l-19 23 -166
-33 c-91 -19 -169 -32 -172 -29 -3 3 -1 83 5 177 14 226 14 334 -1 349 -16 16
-53 15 -66 -1z"/>
</g>
</svg>
