<?xml version="1.0" standalone="no"?>
<!DOCTYPE svg PUBLIC "-//W3C//DTD SVG 20010904//EN"
 "http://www.w3.org/TR/2001/REC-SVG-20010904/DTD/svg10.dtd">
<svg version="1.0" xmlns="http://www.w3.org/2000/svg"
 width="248.000000pt" height="248.000000pt" viewBox="0 0 248.000000 248.000000"
 preserveAspectRatio="xMidYMid meet">
<metadata>
Created by potrace 1.10, written by Peter Selinger 2001-2011
</metadata>
<g transform="translate(0.000000,248.000000) scale(0.100000,-0.100000)"
fill="#000000" stroke="none">
<path d="M1642 2388 c-12 -15 -19 -79 -28 -250 -4 -69 -9 -131 -13 -136 -3 -6
-83 -18 -176 -27 -180 -19 -215 -30 -215 -69 0 -45 18 -49 162 -37 73 6 155
14 182 18 l49 6 -6 -128 c-3 -70 -10 -132 -14 -136 -5 -5 -83 -18 -174 -29
-282 -35 -359 -57 -359 -104 0 -42 23 -51 93 -38 120 22 688 92 744 92 43 0
47 -18 36 -167 l-8 -118 -50 -3 c-50 -2 -198 -19 -400 -46 -130 -17 -350 -62
-385 -79 -28 -14 -38 -50 -20 -73 17 -20 53 -18 188 11 195 43 651 100 667 84
16 -16 10 -654 -8 -818 -9 -79 -18 -146 -21 -149 -8 -7 -96 62 -156 122 -54
56 -84 68 -108 44 -28 -28 -12 -59 71 -142 134 -135 243 -181 274 -115 30 63
45 270 49 669 3 306 6 396 16 402 7 3 73 12 147 18 74 7 145 16 157 20 41 16
42 74 1 89 -13 5 -62 3 -117 -5 -52 -7 -119 -13 -148 -14 l-53 0 3 143 3 142
45 6 c25 4 104 10 175 14 72 4 136 12 143 18 18 14 15 51 -5 69 -16 13 -41 14
-178 8 -149 -8 -406 -32 -484 -47 l-34 -6 5 137 c3 75 7 139 10 141 2 3 33 9
69 14 280 42 455 78 476 99 18 18 16 57 -3 73 -13 10 -26 10 -72 0 -76 -16
-332 -61 -406 -70 l-58 -8 7 179 c8 191 5 208 -40 208 -12 0 -27 -6 -33 -12z"/>
<path d="M702 2307 c-6 -7 -14 -67 -17 -132 -3 -66 -8 -136 -10 -155 -2 -20
-7 -84 -10 -142 -4 -58 -11 -111 -14 -117 -7 -11 -270 -53 -282 -45 -3 2 18
51 47 110 86 174 124 320 92 352 -16 16 -53 15 -66 0 -6 -7 -18 -42 -27 -77
-44 -170 -174 -409 -286 -529 -69 -72 -83 -104 -57 -130 32 -32 94 6 178 112
38 47 50 56 77 56 33 0 248 26 296 36 l27 6 -1 -189 c0 -103 -4 -230 -7 -282
l-7 -94 -135 -129 c-74 -71 -176 -162 -226 -203 -106 -85 -144 -128 -144 -159
0 -55 52 -61 101 -10 18 20 53 49 76 65 24 17 102 86 175 154 73 69 139 125
147 125 12 0 13 -47 7 -312 -3 -172 -9 -350 -13 -395 -6 -90 2 -113 42 -113
45 0 50 19 60 245 2 66 5 247 5 403 l0 283 120 125 c95 98 120 130 120 152 0
15 -5 33 -12 40 -26 26 -55 12 -117 -58 -35 -39 -72 -75 -83 -81 l-21 -11 7
223 c4 155 10 227 19 235 7 6 86 26 177 43 131 25 169 36 183 52 21 27 21 31
-2 60 l-19 23 -166 -33 c-91 -19 -169 -32 -172 -29 -3 3 -1 83 5 177 14 226
14 334 -1 349 -16 16 -53 15 -66 -1z"/>
<path d="M1242 948 c-19 -19 -14 -53 9 -74 22 -19 69 -85 122 -173 54 -86 93
-111 125 -79 20 20 14 47 -25 112 -120 197 -186 259 -231 214z"/>
</g>
</svg>
