<?xml version="1.0" standalone="no"?>
<!DOCTYPE svg PUBLIC "-//W3C//DTD SVG 20010904//EN"
 "http://www.w3.org/TR/2001/REC-SVG-20010904/DTD/svg10.dtd">
<svg version="1.0" xmlns="http://www.w3.org/2000/svg"
 width="248.000000pt" height="248.000000pt" viewBox="0 0 248.000000 248.000000"
 preserveAspectRatio="xMidYMid meet">
<metadata>
Created by potrace 1.10, written by Peter Selinger 2001-2011
</metadata>
<g transform="translate(0.000000,248.000000) scale(0.100000,-0.100000)"
fill="#000000" stroke="none">
<path d="M1642 2388 c-12 -15 -19 -79 -28 -250 -4 -69 -9 -131 -13 -136 -3 -6
-83 -18 -176 -27 -180 -19 -215 -30 -215 -69 0 -45 18 -49 162 -37 73 6 154
14 181 18 l47 6 -1 -79 c0 -44 -3 -111 -7 -151 -8 -80 -3 -107 27 -122 15 -8
24 -7 42 8 21 17 23 28 30 185 4 92 9 169 11 171 2 3 33 9 69 14 280 42 455
78 476 99 18 18 16 57 -3 73 -13 10 -26 10 -72 0 -76 -16 -332 -61 -406 -70
l-58 -8 7 179 c8 191 5 208 -40 208 -12 0 -27 -6 -33 -12z"/>
<path d="M702 2307 c-6 -7 -14 -67 -17 -132 -3 -66 -8 -136 -10 -155 -2 -20
-7 -84 -10 -142 -4 -58 -11 -111 -14 -117 -7 -11 -270 -53 -282 -45 -3 2 18
51 47 110 86 174 124 320 92 352 -16 16 -53 15 -66 0 -6 -7 -18 -42 -27 -77
-44 -170 -174 -409 -286 -529 -69 -72 -83 -104 -57 -130 32 -32 94 6 178 112
38 47 50 56 77 56 33 0 248 26 296 36 l27 6 -1 -189 c0 -103 -4 -230 -7 -282
l-7 -94 -135 -129 c-74 -71 -176 -162 -226 -203 -106 -85 -144 -128 -144 -159
0 -55 52 -61 101 -10 18 20 53 49 76 65 24 17 102 86 175 154 73 69 139 125
147 125 12 0 13 -47 7 -312 -3 -172 -9 -350 -13 -395 -6 -90 2 -113 42 -113
45 0 50 19 60 245 2 66 5 247 5 403 l0 283 120 125 c95 98 120 130 120 152 0
15 -5 33 -12 40 -26 26 -55 12 -117 -58 -35 -39 -72 -75 -83 -81 l-21 -11 7
223 c4 155 10 227 19 235 7 6 86 26 177 43 131 25 169 36 183 52 21 27 21 31
-2 60 l-19 23 -166 -33 c-91 -19 -169 -32 -172 -29 -3 3 -1 83 5 177 14 226
14 334 -1 349 -16 16 -53 15 -66 -1z"/>
</g>
</svg>
