<?xml version="1.0" standalone="no"?>
<!DOCTYPE svg PUBLIC "-//W3C//DTD SVG 20010904//EN"
 "http://www.w3.org/TR/2001/REC-SVG-20010904/DTD/svg10.dtd">
<svg version="1.0" xmlns="http://www.w3.org/2000/svg"
 width="248.000000pt" height="248.000000pt" viewBox="0 0 248.000000 248.000000"
 preserveAspectRatio="xMidYMid meet">
<metadata>
Created by potrace 1.10, written by Peter Selinger 2001-2011
</metadata>
<g transform="translate(0.000000,248.000000) scale(0.100000,-0.100000)"
fill="#000000" stroke="none">
<path d="M793 2316 c-26 -29 -91 -89 -144 -132 -238 -196 -295 -241 -343 -275
-53 -36 -68 -68 -46 -95 16 -18 53 -18 90 1 16 8 73 51 127 94 54 44 154 125
223 181 183 148 241 225 198 268 -25 25 -56 13 -105 -42z"/>
<path d="M1655 2350 c-88 -4 -244 -8 -346 -9 -152 -1 -189 -4 -199 -16 -15
-18 -15 -144 0 -255 6 -41 17 -150 25 -242 10 -115 20 -179 32 -205 17 -36 20
-38 63 -36 25 1 217 5 427 9 275 5 386 10 393 19 18 21 73 338 104 593 18 154
27 147 -174 148 -91 0 -237 -3 -325 -6z m390 -172 c-3 -40 -9 -88 -13 -106
l-7 -33 -400 1 c-219 0 -401 3 -404 6 -3 2 -7 44 -9 93 l-4 88 288 10 c159 5
349 10 423 11 l133 2 -7 -72z m-35 -255 c0 -9 -27 -157 -35 -189 -5 -21 -11
-21 -332 -28 -181 -3 -342 -9 -359 -12 l-31 -6 -7 84 c-4 45 -9 100 -13 121
l-6 37 392 0 c215 0 391 -3 391 -7z"/>
<path d="M702 1728 c-69 -84 -267 -274 -545 -523 -37 -33 -70 -68 -73 -78 -8
-24 22 -67 46 -67 18 0 114 78 237 194 35 33 65 57 68 54 2 -2 0 -89 -5 -194
-6 -104 -15 -362 -20 -574 -10 -420 -9 -430 45 -430 52 0 55 17 60 391 3 189
10 394 16 454 5 61 11 189 13 286 l3 177 109 108 c156 155 199 225 162 262
-28 28 -56 13 -116 -60z"/>
<path d="M2200 1447 c-3 -3 -102 -10 -220 -16 -118 -7 -231 -14 -250 -16 -19
-3 -98 -8 -175 -11 -472 -19 -623 -32 -650 -54 -23 -19 -18 -57 10 -76 22 -15
36 -15 118 -5 50 7 202 16 337 21 303 11 731 37 828 49 40 5 79 15 87 21 19
16 19 54 1 69 -16 13 -78 26 -86 18z"/>
</g>
</svg>
