<?xml version="1.0" standalone="no"?>
<!DOCTYPE svg PUBLIC "-//W3C//DTD SVG 20010904//EN"
 "http://www.w3.org/TR/2001/REC-SVG-20010904/DTD/svg10.dtd">
<svg version="1.0" xmlns="http://www.w3.org/2000/svg"
 width="248.000000pt" height="248.000000pt" viewBox="0 0 248.000000 248.000000"
 preserveAspectRatio="xMidYMid meet">
<metadata>
Created by potrace 1.10, written by Peter Selinger 2001-2011
</metadata>
<g transform="translate(0.000000,248.000000) scale(0.100000,-0.100000)"
fill="#000000" stroke="none">
<path d="M442 2178 c-6 -7 -18 -42 -27 -77 -44 -170 -174 -409 -286 -529 -69
-72 -83 -104 -57 -130 32 -32 94 6 178 112 38 47 50 56 77 56 67 0 277 32 523
81 208 40 258 54 273 70 21 26 21 31 -2 60 l-19 23 -238 -48 c-231 -47 -483
-88 -495 -80 -3 2 18 51 47 110 86 174 124 320 92 352 -16 16 -53 15 -66 0z"/>
</g>
</svg>
