<?xml version="1.0" standalone="no"?>
<!DOCTYPE svg PUBLIC "-//W3C//DTD SVG 20010904//EN"
 "http://www.w3.org/TR/2001/REC-SVG-20010904/DTD/svg10.dtd">
<svg version="1.0" xmlns="http://www.w3.org/2000/svg"
 width="248.000000pt" height="248.000000pt" viewBox="0 0 248.000000 248.000000"
 preserveAspectRatio="xMidYMid meet">
<metadata>
Created by potrace 1.10, written by Peter Selinger 2001-2011
</metadata>
<g transform="translate(0.000000,248.000000) scale(0.100000,-0.100000)"
fill="#000000" stroke="none">
<path d="M1186 2298 c-12 -17 -16 -48 -16 -120 0 -114 15 -104 -160 -113 -111
-6 -200 -17 -414 -50 -55 -8 -119 -15 -143 -15 -57 0 -86 -27 -78 -73 3 -18 9
-80 14 -139 8 -113 18 -138 56 -138 41 0 50 25 50 139 l0 105 45 7 c251 39
346 50 470 59 80 6 201 15 270 21 187 14 698 30 752 23 l47 -6 -21 -29 c-12
-16 -48 -50 -80 -75 -47 -37 -58 -51 -58 -75 0 -22 7 -32 26 -41 34 -16 69 5
167 101 88 86 110 134 83 176 -24 37 -48 45 -149 53 -94 8 -465 0 -659 -13
l-108 -8 0 94 c0 105 -13 139 -55 139 -13 0 -31 -10 -39 -22z"/>
<path d="M1425 1849 c-44 -5 -134 -16 -200 -24 -66 -9 -170 -19 -232 -24 -65
-4 -118 -13 -127 -21 -23 -18 -20 -56 6 -74 29 -21 73 -20 265 3 87 11 217 25
288 31 72 6 145 14 162 16 58 8 69 75 16 95 -28 10 -64 10 -178 -2z"/>
<path d="M1300 1618 c-47 -5 -132 -15 -190 -23 -58 -8 -148 -18 -200 -21 -52
-4 -101 -11 -108 -17 -15 -12 -9 -117 16 -252 12 -68 22 -96 40 -114 24 -24
26 -24 151 -18 69 4 223 11 340 17 238 12 243 13 261 79 21 81 61 294 58 314
-5 37 -43 47 -168 45 -63 0 -153 -5 -200 -10z m250 -112 c0 -32 -33 -182 -42
-193 -7 -9 -40 -13 -99 -13 -77 0 -306 -13 -436 -24 l-42 -3 -10 49 c-6 27
-11 71 -11 98 l0 50 42 0 c23 0 83 7 132 15 131 21 247 32 364 34 81 1 102 -2
102 -13z"/>
<path d="M1110 1049 c-69 -3 -192 -10 -274 -14 -128 -7 -152 -11 -169 -28 -18
-18 -19 -31 -14 -291 6 -299 19 -461 39 -503 l13 -27 528 -2 527 -3 16 24 c9
13 22 66 30 117 8 51 26 152 40 223 73 384 72 468 -7 499 -33 13 -85 16 -322
14 -155 -1 -338 -5 -407 -9z m679 -161 c0 -35 -6 -97 -13 -138 l-12 -75 -114
-2 c-63 -1 -170 -7 -238 -14 -68 -6 -124 -9 -126 -7 -1 1 2 69 7 151 l10 147
243 0 244 0 -1 -62z m-604 -90 c-4 -79 -9 -144 -10 -146 -2 -2 -96 -6 -209 -9
l-206 -6 0 141 0 142 48 1 c26 0 67 4 92 8 25 5 101 9 169 10 l123 1 -7 -142z
m549 -236 c2 -4 -5 -67 -16 -140 l-21 -132 -106 0 c-58 0 -155 3 -216 6 l-110
7 7 111 c3 61 7 114 7 118 1 11 55 18 206 27 199 12 243 12 249 3z m-568 -83
c-3 -34 -6 -91 -6 -126 l0 -64 -189 3 -189 3 -6 65 c-3 36 -9 88 -12 117 l-7
52 134 4 c74 1 167 4 208 5 l74 2 -7 -61z"/>
</g>
</svg>
