<?xml version="1.0" standalone="no"?>
<!DOCTYPE svg PUBLIC "-//W3C//DTD SVG 20010904//EN"
 "http://www.w3.org/TR/2001/REC-SVG-20010904/DTD/svg10.dtd">
<svg version="1.0" xmlns="http://www.w3.org/2000/svg"
 width="248.000000pt" height="248.000000pt" viewBox="0 0 248.000000 248.000000"
 preserveAspectRatio="xMidYMid meet">
<metadata>
Created by potrace 1.10, written by Peter Selinger 2001-2011
</metadata>
<g transform="translate(0.000000,248.000000) scale(0.100000,-0.100000)"
fill="#000000" stroke="none">
<path d="M1186 2298 c-12 -17 -16 -48 -16 -120 0 -114 15 -104 -160 -113 -111
-6 -200 -17 -414 -50 -55 -8 -119 -15 -143 -15 -57 0 -86 -27 -78 -73 3 -18 9
-80 14 -139 8 -113 18 -138 56 -138 41 0 50 25 50 139 l0 105 45 7 c251 39
346 50 470 59 80 6 201 15 270 20 190 15 699 31 752 24 l47 -6 -21 -29 c-12
-16 -48 -50 -80 -75 -47 -37 -58 -51 -58 -75 0 -22 7 -32 26 -41 34 -16 69 5
167 101 88 86 110 134 83 176 -24 37 -48 45 -149 53 -94 8 -465 0 -659 -13
l-108 -8 0 94 c0 105 -13 139 -55 139 -13 0 -31 -10 -39 -22z"/>
</g>
</svg>
