<?xml version="1.0" standalone="no"?>
<!DOCTYPE svg PUBLIC "-//W3C//DTD SVG 20010904//EN"
 "http://www.w3.org/TR/2001/REC-SVG-20010904/DTD/svg10.dtd">
<svg version="1.0" xmlns="http://www.w3.org/2000/svg"
 width="248.000000pt" height="248.000000pt" viewBox="0 0 248.000000 248.000000"
 preserveAspectRatio="xMidYMid meet">
<metadata>
Created by potrace 1.10, written by Peter Selinger 2001-2011
</metadata>
<g transform="translate(0.000000,248.000000) scale(0.100000,-0.100000)"
fill="#000000" stroke="none">
<path d="M1186 2298 c-12 -17 -16 -48 -16 -120 0 -114 15 -104 -160 -113 -111
-6 -200 -17 -414 -50 -55 -8 -119 -15 -143 -15 -57 0 -86 -27 -78 -73 3 -18 9
-80 14 -139 8 -113 18 -138 56 -138 41 0 50 25 50 139 l0 105 45 7 c251 39
346 50 470 59 80 6 201 15 270 21 187 14 698 30 752 23 l47 -6 -21 -29 c-12
-16 -48 -50 -80 -75 -47 -37 -58 -51 -58 -75 0 -22 7 -32 26 -41 34 -16 69 5
167 101 88 86 110 134 83 176 -24 37 -48 45 -149 53 -94 8 -465 0 -659 -13
l-108 -8 0 94 c0 105 -13 139 -55 139 -13 0 -31 -10 -39 -22z"/>
<path d="M1425 1849 c-44 -5 -134 -16 -200 -24 -66 -9 -170 -19 -232 -24 -65
-4 -118 -13 -127 -21 -23 -18 -20 -56 6 -74 29 -21 73 -20 265 3 87 11 217 25
288 31 72 6 145 14 162 16 58 8 69 75 16 95 -28 10 -64 10 -178 -2z"/>
<path d="M1300 1618 c-47 -5 -132 -15 -190 -23 -58 -8 -148 -18 -200 -21 -52
-4 -101 -11 -108 -17 -9 -7 -11 -30 -7 -86 7 -88 33 -238 46 -263 12 -23 44
-31 70 -18 19 11 21 17 15 73 -3 34 -9 95 -12 135 l-7 72 44 0 c24 0 82 6 129
14 121 20 292 36 389 36 l84 0 -7 -42 c-3 -24 -16 -87 -28 -142 -24 -109 -20
-131 27 -131 18 0 34 9 46 25 19 27 83 315 77 353 -5 37 -43 47 -168 45 -63 0
-153 -5 -200 -10z"/>
</g>
</svg>
