<?xml version="1.0" standalone="no"?>
<!DOCTYPE svg PUBLIC "-//W3C//DTD SVG 20010904//EN"
 "http://www.w3.org/TR/2001/REC-SVG-20010904/DTD/svg10.dtd">
<svg version="1.0" xmlns="http://www.w3.org/2000/svg"
 width="248.000000pt" height="248.000000pt" viewBox="0 0 248.000000 248.000000"
 preserveAspectRatio="xMidYMid meet">
<metadata>
Created by potrace 1.10, written by Peter Selinger 2001-2011
</metadata>
<g transform="translate(0.000000,248.000000) scale(0.100000,-0.100000)"
fill="#000000" stroke="none">
<path d="M1186 2298 c-12 -17 -16 -50 -16 -143 0 -131 5 -145 51 -145 45 0 54
22 58 147 2 92 0 118 -13 138 -21 32 -59 33 -80 3z"/>
<path d="M390 1975 c-15 -18 -4 -262 14 -297 18 -35 67 -32 85 6 19 41 0 259
-25 287 -20 23 -57 25 -74 4z"/>
</g>
</svg>
