<?xml version="1.0" standalone="no"?>
<!DOCTYPE svg PUBLIC "-//W3C//DTD SVG 20010904//EN"
 "http://www.w3.org/TR/2001/REC-SVG-20010904/DTD/svg10.dtd">
<svg version="1.0" xmlns="http://www.w3.org/2000/svg"
 width="248.000000pt" height="248.000000pt" viewBox="0 0 248.000000 248.000000"
 preserveAspectRatio="xMidYMid meet">
<metadata>
Created by potrace 1.10, written by Peter Selinger 2001-2011
</metadata>
<g transform="translate(0.000000,248.000000) scale(0.100000,-0.100000)"
fill="#000000" stroke="none">
<path d="M1601 2296 c-6 -7 -22 -76 -36 -152 -59 -339 -55 -323 -89 -329 -122
-19 -647 -57 -657 -47 -3 4 -11 79 -18 167 -12 165 -29 264 -51 290 -16 19
-54 19 -70 0 -11 -13 -10 -38 4 -133 9 -64 18 -166 19 -227 l2 -110 -178 -2
c-120 -1 -183 -6 -193 -14 -18 -14 -18 -53 -1 -68 9 -6 83 -12 198 -13 l184
-3 17 -210 c19 -240 22 -364 9 -384 -6 -10 -47 -19 -123 -27 -328 -38 -428
-63 -428 -109 0 -29 39 -57 68 -50 63 16 258 46 392 60 124 14 328 42 435 61
67 11 481 26 790 28 l330 2 9 27 c8 21 6 31 -9 47 -18 19 -29 20 -363 20
l-344 0 5 33 c59 397 86 559 92 565 7 8 166 35 335 57 69 10 137 22 153 27 35
13 46 52 22 78 -21 23 -37 24 -114 10 -116 -21 -373 -61 -376 -58 -3 4 4 49
39 231 28 151 32 217 14 235 -16 16 -53 15 -67 -2z m-121 -608 c0 -25 -42
-305 -67 -452 -10 -55 -24 -105 -31 -113 -9 -9 -41 -13 -95 -13 -84 0 -279
-21 -376 -39 -29 -6 -57 -8 -62 -5 -5 3 -9 69 -9 147 0 78 -5 208 -12 289 -6
82 -9 151 -5 154 3 3 77 10 164 16 87 5 214 16 283 23 194 20 210 19 210 -7z"/>
<path d="M1442 878 c-23 -23 -13 -56 26 -84 20 -16 91 -80 157 -143 67 -64
172 -161 233 -216 62 -55 135 -125 161 -155 85 -98 109 -120 125 -120 20 0 56
35 56 55 0 24 -146 180 -286 305 -71 63 -171 158 -224 211 -144 146 -210 185
-248 147z"/>
<path d="M798 868 c-8 -7 -41 -57 -74 -111 -105 -174 -227 -294 -439 -430 -35
-23 -51 -39 -53 -57 -6 -66 42 -69 140 -7 112 71 235 174 309 260 64 74 186
259 196 297 5 20 -29 60 -50 60 -7 0 -20 -6 -29 -12z"/>
</g>
</svg>
