<?xml version="1.0" standalone="no"?>
<!DOCTYPE svg PUBLIC "-//W3C//DTD SVG 20010904//EN"
 "http://www.w3.org/TR/2001/REC-SVG-20010904/DTD/svg10.dtd">
<svg version="1.0" xmlns="http://www.w3.org/2000/svg"
 width="248.000000pt" height="248.000000pt" viewBox="0 0 248.000000 248.000000"
 preserveAspectRatio="xMidYMid meet">
<metadata>
Created by potrace 1.10, written by Peter Selinger 2001-2011
</metadata>
<g transform="translate(0.000000,248.000000) scale(0.100000,-0.100000)"
fill="#000000" stroke="none">
<path d="M739 2266 c-14 -14 -437 -96 -494 -96 -62 0 -99 -58 -58 -91 27 -23
192 -5 401 44 34 9 62 13 62 10 0 -17 -120 -170 -161 -205 -50 -42 -61 -72
-37 -96 32 -32 100 -1 164 75 78 93 194 276 194 306 0 27 -55 69 -71 53z"/>
</g>
</svg>
