<?xml version="1.0" standalone="no"?>
<!DOCTYPE svg PUBLIC "-//W3C//DTD SVG 20010904//EN"
 "http://www.w3.org/TR/2001/REC-SVG-20010904/DTD/svg10.dtd">
<svg version="1.0" xmlns="http://www.w3.org/2000/svg"
 width="248.000000pt" height="248.000000pt" viewBox="0 0 248.000000 248.000000"
 preserveAspectRatio="xMidYMid meet">
<metadata>
Created by potrace 1.10, written by Peter Selinger 2001-2011
</metadata>
<g transform="translate(0.000000,248.000000) scale(0.100000,-0.100000)"
fill="#000000" stroke="none">
<path d="M1105 2313 c-16 -2 -81 -10 -143 -19 -121 -16 -324 -38 -517 -55
-131 -11 -165 -25 -165 -64 0 -45 32 -55 150 -45 155 12 477 48 535 59 28 5
92 13 143 16 l92 8 0 -27 c0 -15 -10 -88 -22 -163 -15 -96 -19 -140 -11 -152
13 -20 66 -26 80 -9 12 14 48 211 59 320 8 83 1 111 -31 126 -24 11 -101 14
-170 5z"/>
</g>
</svg>
