<?xml version="1.0" standalone="no"?>
<!DOCTYPE svg PUBLIC "-//W3C//DTD SVG 20010904//EN"
 "http://www.w3.org/TR/2001/REC-SVG-20010904/DTD/svg10.dtd">
<svg version="1.0" xmlns="http://www.w3.org/2000/svg"
 width="248.000000pt" height="248.000000pt" viewBox="0 0 248.000000 248.000000"
 preserveAspectRatio="xMidYMid meet">
<metadata>
Created by potrace 1.10, written by Peter Selinger 2001-2011
</metadata>
<g transform="translate(0.000000,248.000000) scale(0.100000,-0.100000)"
fill="#000000" stroke="none">
<path d="M1105 2313 c-16 -2 -81 -10 -143 -19 -121 -16 -324 -38 -517 -55
-131 -11 -165 -25 -165 -64 0 -45 32 -55 150 -45 155 12 477 48 535 59 28 5
92 13 143 16 l92 8 0 -30 c0 -28 -23 -176 -35 -230 -4 -17 -14 -23 -53 -28
-141 -17 -208 -25 -317 -35 -66 -7 -158 -18 -205 -25 -47 -7 -123 -16 -170
-20 -100 -8 -133 -24 -128 -63 6 -55 60 -58 348 -17 63 8 162 20 220 25 108
11 364 38 366 39 25 16 63 182 80 353 8 83 1 111 -31 126 -24 11 -101 14 -170
5z"/>
</g>
</svg>
