<?xml version="1.0" standalone="no"?>
<!DOCTYPE svg PUBLIC "-//W3C//DTD SVG 20010904//EN"
 "http://www.w3.org/TR/2001/REC-SVG-20010904/DTD/svg10.dtd">
<svg version="1.0" xmlns="http://www.w3.org/2000/svg"
 width="248.000000pt" height="248.000000pt" viewBox="0 0 248.000000 248.000000"
 preserveAspectRatio="xMidYMid meet">
<metadata>
Created by potrace 1.10, written by Peter Selinger 2001-2011
</metadata>
<g transform="translate(0.000000,248.000000) scale(0.100000,-0.100000)"
fill="#000000" stroke="none">
<path d="M1950 2274 c-58 -7 -197 -22 -310 -33 -113 -12 -249 -25 -303 -31
-54 -5 -124 -10 -155 -10 -71 0 -105 -20 -100 -58 2 -18 13 -31 33 -41 26 -13
51 -12 195 3 91 9 253 25 361 36 107 10 215 22 239 26 l44 7 -22 -28 c-59 -75
-301 -245 -348 -245 -10 0 -50 20 -89 45 -92 59 -145 59 -145 -2 0 -28 59 -73
175 -134 88 -47 235 -140 235 -149 0 -3 -62 -14 -137 -24 -192 -25 -364 -61
-420 -88 -39 -19 -49 -29 -51 -52 -2 -16 1 -33 7 -39 7 -7 11 -78 11 -198 0
-166 -4 -212 -35 -402 -22 -139 -45 -245 -66 -302 -18 -53 -28 -97 -25 -111 9
-33 52 -43 77 -18 27 28 85 205 99 306 l13 86 46 5 c25 2 107 14 181 25 76 12
224 25 339 29 l204 8 -6 -204 c-3 -112 -9 -206 -12 -209 -3 -4 -14 -1 -23 6
-40 28 -93 52 -115 52 -57 0 -62 -63 -8 -95 19 -11 59 -44 89 -72 43 -43 60
-53 87 -53 81 0 90 73 87 775 l-2 550 -27 23 c-20 18 -33 22 -62 18 -20 -3
-61 -7 -91 -8 -54 -3 -55 -2 -60 27 -4 24 -20 40 -82 80 -42 27 -76 53 -75 56
1 4 44 35 95 69 51 35 135 102 187 151 52 48 115 102 140 120 25 18 46 40 46
48 2 31 -3 46 -19 59 -19 14 -50 14 -202 -4z m41 -726 c1 -39 -2 -173 -5 -175
-2 -2 -216 -32 -491 -68 -109 -15 -203 -29 -208 -32 -4 -2 -6 41 -5 98 l3 102
113 22 c117 24 413 63 517 68 33 2 63 4 68 5 4 1 7 -8 8 -20z m-1 -377 c0 -54
3 -118 6 -142 l6 -44 -159 -3 c-171 -2 -409 -25 -512 -48 -36 -8 -68 -11 -73
-6 -5 5 -4 29 1 54 6 25 14 77 17 114 4 38 8 71 10 73 2 2 97 16 211 32 222
30 473 65 486 68 4 0 7 -43 7 -98z"/>
</g>
</svg>
