<?xml version="1.0" standalone="no"?>
<!DOCTYPE svg PUBLIC "-//W3C//DTD SVG 20010904//EN"
 "http://www.w3.org/TR/2001/REC-SVG-20010904/DTD/svg10.dtd">
<svg version="1.0" xmlns="http://www.w3.org/2000/svg"
 width="248.000000pt" height="248.000000pt" viewBox="0 0 248.000000 248.000000"
 preserveAspectRatio="xMidYMid meet">
<metadata>
Created by potrace 1.10, written by Peter Selinger 2001-2011
</metadata>
<g transform="translate(0.000000,248.000000) scale(0.100000,-0.100000)"
fill="#000000" stroke="none">
<path d="M1610 2422 c-34 -10 -40 -34 -40 -163 l0 -127 -37 -7 c-21 -5 -80 -9
-131 -9 -81 -1 -96 -4 -108 -20 -19 -27 -18 -42 6 -66 16 -16 33 -20 93 -19
39 0 96 4 126 8 l54 8 -6 -88 c-8 -120 -12 -125 -94 -133 -75 -8 -309 -51
-361 -67 -40 -13 -55 -39 -43 -72 11 -28 43 -40 76 -27 12 5 83 20 156 34 245
46 456 65 734 65 223 1 249 7 243 59 -6 50 -29 54 -293 46 -132 -4 -258 -7
-280 -8 l-39 -1 2 45 c1 25 5 70 8 101 7 65 -14 55 184 90 132 23 163 38 158
76 -6 47 -24 49 -187 22 l-151 -25 0 121 c0 122 -6 146 -40 157 -8 3 -22 3
-30 0z"/>
<path d="M1760 1634 c-243 -24 -443 -54 -467 -69 -27 -18 -28 -26 -9 -80 12
-34 26 -96 52 -233 5 -25 38 -42 67 -34 37 10 42 45 19 140 -34 136 -41 125
96 145 139 20 371 41 377 35 2 -2 -9 -40 -25 -84 -20 -53 -40 -87 -60 -104
-50 -42 -35 -90 28 -90 52 0 82 39 135 175 59 151 60 177 10 204 -26 13 -45
13 -223 -5z"/>
</g>
</svg>
