<?xml version="1.0" standalone="no"?>
<!DOCTYPE svg PUBLIC "-//W3C//DTD SVG 20010904//EN"
 "http://www.w3.org/TR/2001/REC-SVG-20010904/DTD/svg10.dtd">
<svg version="1.0" xmlns="http://www.w3.org/2000/svg"
 width="248.000000pt" height="248.000000pt" viewBox="0 0 248.000000 248.000000"
 preserveAspectRatio="xMidYMid meet">
<metadata>
Created by potrace 1.10, written by Peter Selinger 2001-2011
</metadata>
<g transform="translate(0.000000,248.000000) scale(0.100000,-0.100000)"
fill="#000000" stroke="none">
<path d="M1950 2274 c-58 -7 -197 -22 -310 -33 -113 -12 -249 -25 -303 -31
-54 -5 -124 -10 -155 -10 -71 0 -105 -20 -100 -58 2 -18 13 -31 33 -41 26 -13
51 -12 195 3 91 9 253 25 361 36 107 10 215 22 239 26 l44 7 -22 -28 c-59 -75
-301 -245 -348 -245 -10 0 -50 20 -89 45 -92 59 -145 59 -145 -2 0 -28 59 -73
175 -134 88 -47 235 -140 235 -149 0 -3 -62 -14 -137 -24 -192 -25 -364 -61
-420 -88 -39 -19 -49 -29 -51 -52 -2 -16 1 -33 7 -39 7 -7 11 -78 11 -198 0
-166 -4 -212 -35 -402 -22 -139 -45 -245 -66 -302 -18 -53 -28 -97 -25 -111 9
-33 52 -43 77 -18 27 28 85 205 100 306 l12 88 31 0 c17 0 63 6 101 14 39 8
87 17 108 21 l37 6 -6 -204 c-5 -181 -4 -206 11 -220 9 -10 27 -17 39 -17 48
0 53 23 60 283 2 87 5 160 8 162 2 2 88 7 192 12 l189 8 -6 -204 c-3 -112 -9
-206 -12 -209 -3 -4 -14 -1 -23 6 -40 28 -93 52 -115 52 -57 0 -62 -63 -8 -95
19 -11 59 -44 89 -72 43 -43 60 -53 87 -53 81 0 90 73 87 775 l-2 550 -27 23
c-20 18 -33 22 -62 18 -20 -3 -61 -7 -91 -8 -54 -3 -55 -2 -60 27 -4 24 -20
40 -82 80 -42 27 -76 53 -75 56 1 4 44 35 95 69 51 35 135 102 187 151 52 48
115 102 140 120 25 18 46 40 46 48 2 31 -3 46 -19 59 -19 14 -50 14 -202 -4z
m42 -726 c2 -13 2 -57 0 -99 l-3 -77 -107 -16 c-59 -9 -140 -20 -180 -24 l-73
-8 3 105 3 106 60 8 c33 4 110 11 170 16 61 4 113 9 117 10 4 0 8 -9 10 -21z
m-472 -132 l0 -104 -27 -6 c-16 -3 -66 -10 -113 -16 -46 -7 -88 -14 -93 -17
-4 -2 -6 41 -5 98 l3 102 105 22 c58 12 111 23 118 24 9 1 12 -26 12 -103z
m470 -245 c0 -54 3 -118 6 -142 l6 -44 -83 0 c-46 0 -131 -2 -189 -4 l-105 -4
-3 121 -3 121 43 5 c45 6 308 42 321 45 4 0 7 -43 7 -98z m-480 -90 l0 -120
-57 -6 c-32 -4 -87 -13 -122 -21 -36 -8 -68 -11 -73 -6 -5 5 -4 29 1 54 6 25
14 77 17 114 4 38 8 71 10 73 4 4 161 29 197 30 l27 1 0 -119z"/>
<path d="M340 2130 c-25 -25 -25 -45 -2 -66 28 -25 183 -138 225 -163 37 -23
38 -24 18 -38 -23 -16 -28 -62 -9 -81 19 -19 55 -14 119 18 65 33 88 65 71 97
-6 10 -52 42 -104 70 -51 29 -121 74 -155 102 -61 50 -113 81 -133 81 -5 0
-19 -9 -30 -20z"/>
<path d="M630 1344 c-103 -40 -179 -64 -255 -80 -134 -27 -195 -58 -195 -99 0
-49 31 -55 129 -25 70 21 225 59 228 56 1 -1 -4 -24 -12 -50 -8 -26 -18 -77
-21 -112 -8 -75 2 -107 57 -180 43 -56 50 -95 27 -139 -32 -60 -85 -94 -188
-119 -36 -9 -76 -21 -90 -27 -14 -6 -54 -11 -89 -10 -69 2 -91 -9 -91 -44 0
-33 20 -45 107 -60 43 -8 96 -21 117 -30 21 -9 75 -25 120 -35 45 -10 164 -39
266 -65 451 -112 593 -146 715 -170 72 -14 139 -28 150 -30 146 -32 194 -38
340 -38 96 0 180 4 210 12 28 7 102 21 165 32 66 12 122 27 132 36 27 24 23
61 -8 75 -21 10 -57 6 -202 -20 -233 -42 -389 -44 -567 -6 -66 14 -174 36
-240 49 -66 13 -201 44 -300 68 -183 45 -261 65 -395 97 -124 30 -244 60 -260
66 -9 3 6 14 40 28 63 27 134 93 161 151 20 44 25 128 9 170 -5 14 -28 50 -51
80 -39 51 -41 58 -34 100 14 100 35 147 90 204 29 31 54 63 56 71 4 20 -10 60
-21 60 -5 0 -14 2 -22 4 -7 3 -42 -6 -78 -20z"/>
</g>
</svg>
