<?xml version="1.0" standalone="no"?>
<!DOCTYPE svg PUBLIC "-//W3C//DTD SVG 20010904//EN"
 "http://www.w3.org/TR/2001/REC-SVG-20010904/DTD/svg10.dtd">
<svg version="1.0" xmlns="http://www.w3.org/2000/svg"
 width="248.000000pt" height="248.000000pt" viewBox="0 0 248.000000 248.000000"
 preserveAspectRatio="xMidYMid meet">
<metadata>
Created by potrace 1.10, written by Peter Selinger 2001-2011
</metadata>
<g transform="translate(0.000000,248.000000) scale(0.100000,-0.100000)"
fill="#000000" stroke="none">
<path d="M1610 2422 c-34 -10 -40 -34 -40 -163 l0 -127 -37 -7 c-21 -5 -80 -9
-131 -9 -81 -1 -96 -4 -108 -20 -19 -27 -18 -42 6 -66 16 -16 33 -20 93 -19
39 0 96 4 125 8 l52 7 0 -49 c0 -28 -5 -79 -11 -115 -11 -59 -10 -66 9 -84 15
-15 27 -19 46 -14 32 8 43 29 50 96 19 195 15 177 49 184 18 4 84 16 147 27
132 23 163 38 158 76 -6 47 -24 49 -187 22 l-151 -25 0 121 c0 122 -6 146 -40
157 -8 3 -22 3 -30 0z"/>
</g>
</svg>
