<?xml version="1.0" standalone="no"?>
<!DOCTYPE svg PUBLIC "-//W3C//DTD SVG 20010904//EN"
 "http://www.w3.org/TR/2001/REC-SVG-20010904/DTD/svg10.dtd">
<svg version="1.0" xmlns="http://www.w3.org/2000/svg"
 width="248.000000pt" height="248.000000pt" viewBox="0 0 248.000000 248.000000"
 preserveAspectRatio="xMidYMid meet">
<metadata>
Created by potrace 1.10, written by Peter Selinger 2001-2011
</metadata>
<g transform="translate(0.000000,248.000000) scale(0.100000,-0.100000)"
fill="#000000" stroke="none">
<path d="M1795 2164 c-71 -13 -155 -26 -185 -29 -30 -4 -84 -11 -119 -16 -36
-6 -88 -7 -117 -3 -45 5 -55 3 -73 -15 -26 -26 -27 -45 -1 -71 16 -16 33 -20
83 -20 131 0 573 69 615 96 24 16 29 53 10 72 -16 16 -61 14 -213 -14z"/>
</g>
</svg>
