<?xml version="1.0" standalone="no"?>
<!DOCTYPE svg PUBLIC "-//W3C//DTD SVG 20010904//EN"
 "http://www.w3.org/TR/2001/REC-SVG-20010904/DTD/svg10.dtd">
<svg version="1.0" xmlns="http://www.w3.org/2000/svg"
 width="248.000000pt" height="248.000000pt" viewBox="0 0 248.000000 248.000000"
 preserveAspectRatio="xMidYMid meet">
<metadata>
Created by potrace 1.10, written by Peter Selinger 2001-2011
</metadata>
<g transform="translate(0.000000,248.000000) scale(0.100000,-0.100000)"
fill="#000000" stroke="none">
<path d="M1610 2422 c-34 -10 -40 -34 -40 -163 l0 -127 -37 -7 c-21 -5 -80 -9
-131 -9 -81 -1 -96 -4 -108 -20 -19 -27 -18 -42 6 -66 16 -16 33 -20 93 -19
39 0 96 4 126 8 l54 8 -6 -88 c-8 -120 -12 -125 -94 -133 -75 -8 -309 -51
-361 -67 -40 -13 -55 -39 -43 -72 11 -28 43 -40 76 -27 12 5 83 20 156 34 245
46 456 65 734 65 223 1 249 7 243 59 -6 50 -29 54 -293 46 -132 -4 -258 -7
-280 -8 l-39 -1 2 45 c1 25 5 70 8 101 7 65 -14 55 184 90 132 23 163 38 158
76 -6 47 -24 49 -187 22 l-151 -25 0 121 c0 122 -6 146 -40 157 -8 3 -22 3
-30 0z"/>
<path d="M475 2146 c-28 -42 -7 -68 137 -164 42 -29 80 -56 83 -62 4 -6 -14
-30 -39 -54 -25 -23 -46 -47 -46 -52 0 -20 32 -54 52 -54 24 0 163 102 179
132 19 35 -3 60 -132 147 -68 46 -134 95 -147 107 -30 31 -67 31 -87 0z"/>
<path d="M1760 1634 c-243 -24 -443 -54 -467 -69 -27 -18 -28 -26 -9 -80 26
-74 46 -190 40 -225 -10 -59 10 -67 114 -47 47 9 88 15 90 12 8 -8 -60 -123
-124 -208 -53 -69 -88 -103 -169 -162 -57 -42 -105 -81 -108 -89 -8 -21 17
-61 41 -64 43 -6 221 131 305 235 24 31 26 32 29 10 2 -12 0 -56 -3 -98 -9
-102 -19 -262 -21 -325 -2 -58 12 -84 48 -84 36 0 52 36 58 130 20 309 30 420
36 420 12 0 80 -53 160 -124 41 -36 120 -102 175 -145 55 -44 116 -95 134
-115 43 -45 95 -50 112 -12 8 17 8 29 0 44 -11 21 -99 99 -191 170 -92 71
-166 143 -152 149 24 9 107 81 195 166 68 68 87 93 87 115 0 32 -16 52 -43 52
-10 0 -72 -51 -138 -112 -113 -106 -167 -147 -197 -148 -7 0 -30 11 -50 25
-21 14 -51 25 -69 25 -31 0 -33 2 -33 34 0 39 44 123 68 130 9 2 57 8 106 11
115 9 127 20 189 180 59 151 60 177 10 204 -26 13 -45 13 -223 -5z m140 -96
c0 -11 -61 -163 -67 -168 -4 -4 -82 -15 -173 -24 -91 -9 -179 -20 -197 -23
-30 -5 -32 -3 -42 34 -6 22 -14 60 -17 84 l-6 45 128 18 c189 26 374 42 374
34z"/>
<path d="M702 1453 c-7 -2 -49 -13 -95 -22 -45 -10 -136 -34 -202 -54 -66 -20
-139 -41 -163 -47 -45 -11 -64 -37 -54 -72 12 -49 56 -43 327 42 50 16 92 26
94 24 2 -2 -7 -25 -22 -51 -50 -94 -54 -261 -7 -326 40 -53 70 -100 70 -107 0
-15 -91 -109 -125 -130 -19 -12 -61 -32 -94 -45 -48 -19 -67 -21 -98 -14 -94
22 -158 3 -158 -46 0 -35 31 -55 87 -55 55 0 376 -48 438 -66 30 -8 156 -48
280 -89 722 -237 710 -234 936 -242 160 -6 223 0 412 38 57 11 78 34 68 74 -9
35 -33 38 -159 15 -86 -15 -159 -20 -286 -20 -191 0 -279 16 -481 85 -58 20
-127 43 -155 52 -27 8 -175 55 -328 105 -153 49 -307 95 -342 101 -36 6 -65
14 -65 17 0 3 13 14 29 23 31 18 110 106 130 144 26 50 12 99 -57 198 -34 49
-34 52 -29 128 5 68 10 86 45 145 22 37 50 76 62 87 67 60 24 141 -58 108z"/>
</g>
</svg>
