<?xml version="1.0" standalone="no"?>
<!DOCTYPE svg PUBLIC "-//W3C//DTD SVG 20010904//EN"
 "http://www.w3.org/TR/2001/REC-SVG-20010904/DTD/svg10.dtd">
<svg version="1.0" xmlns="http://www.w3.org/2000/svg"
 width="248.000000pt" height="248.000000pt" viewBox="0 0 248.000000 248.000000"
 preserveAspectRatio="xMidYMid meet">
<metadata>
Created by potrace 1.10, written by Peter Selinger 2001-2011
</metadata>
<g transform="translate(0.000000,248.000000) scale(0.100000,-0.100000)"
fill="#000000" stroke="none">
<path d="M1945 2274 c-214 -27 -443 -50 -733 -74 -108 -8 -132 -18 -132 -55 0
-52 53 -61 238 -41 81 9 239 25 352 36 113 11 223 23 245 27 l39 6 -22 -28
c-59 -75 -301 -245 -348 -245 -10 0 -50 20 -89 45 -92 59 -145 59 -145 -2 0
-28 59 -73 175 -134 44 -23 124 -71 177 -106 53 -34 105 -63 116 -63 27 0 44
24 40 57 -2 22 -18 38 -80 78 -42 27 -76 53 -75 56 1 4 44 35 95 69 51 35 135
102 187 151 52 48 115 102 140 120 25 18 46 40 46 48 6 74 -21 81 -226 55z"/>
</g>
</svg>
