<?xml version="1.0" standalone="no"?>
<!DOCTYPE svg PUBLIC "-//W3C//DTD SVG 20010904//EN"
 "http://www.w3.org/TR/2001/REC-SVG-20010904/DTD/svg10.dtd">
<svg version="1.0" xmlns="http://www.w3.org/2000/svg"
 width="248.000000pt" height="248.000000pt" viewBox="0 0 248.000000 248.000000"
 preserveAspectRatio="xMidYMid meet">
<metadata>
Created by potrace 1.10, written by Peter Selinger 2001-2011
</metadata>
<g transform="translate(0.000000,248.000000) scale(0.100000,-0.100000)"
fill="#000000" stroke="none">
<path d="M1166 2348 c-13 -18 -16 -49 -16 -148 0 -138 10 -170 55 -170 44 0
55 32 55 165 0 76 -5 129 -13 145 -17 34 -60 39 -81 8z"/>
<path d="M429 1973 c-19 -22 -16 -301 3 -341 18 -37 61 -42 83 -9 14 22 15 45
8 180 -6 103 -13 160 -22 171 -17 21 -55 20 -72 -1z"/>
</g>
</svg>
