<?xml version="1.0" standalone="no"?>
<!DOCTYPE svg PUBLIC "-//W3C//DTD SVG 20010904//EN"
 "http://www.w3.org/TR/2001/REC-SVG-20010904/DTD/svg10.dtd">
<svg version="1.0" xmlns="http://www.w3.org/2000/svg"
 width="248.000000pt" height="248.000000pt" viewBox="0 0 248.000000 248.000000"
 preserveAspectRatio="xMidYMid meet">
<metadata>
Created by potrace 1.10, written by Peter Selinger 2001-2011
</metadata>
<g transform="translate(0.000000,248.000000) scale(0.100000,-0.100000)"
fill="#000000" stroke="none">
<path d="M1166 2348 c-12 -17 -16 -48 -16 -135 l0 -112 -57 -6 c-32 -3 -148
-19 -258 -35 -110 -16 -240 -35 -290 -41 -49 -6 -101 -18 -114 -26 l-24 -15 7
-161 c4 -91 12 -172 19 -186 17 -35 60 -40 81 -9 14 20 16 42 10 155 l-7 131
49 7 c27 3 90 12 139 20 184 30 282 44 355 49 41 4 125 13 185 21 120 15 288
30 520 45 83 5 172 13 200 16 l49 7 -33 -41 c-18 -23 -37 -44 -42 -48 -8 -5
-107 -123 -137 -164 -17 -23 -2 -55 28 -65 20 -6 90 28 90 44 0 4 32 43 71 86
123 137 149 174 149 209 0 69 -60 91 -215 76 -60 -5 -175 -15 -255 -21 -304
-22 -377 -28 -393 -35 -15 -5 -17 5 -17 97 0 63 -5 114 -13 129 -17 34 -60 39
-81 8z"/>
<path d="M1324 1854 c-16 -23 -16 -40 -7 -158 16 -208 41 -231 248 -230 178 0
275 32 275 89 0 33 -24 49 -62 41 -98 -20 -142 -25 -228 -25 -52 0 -101 3
-107 7 -9 5 -15 50 -19 133 -4 79 -11 132 -20 147 -20 31 -59 29 -80 -4z"/>
<path d="M926 1828 c-9 -12 -16 -38 -16 -58 0 -57 -53 -155 -125 -229 -36 -37
-65 -76 -65 -87 0 -28 19 -44 54 -44 24 0 43 13 91 63 112 116 177 273 143
344 -18 37 -60 43 -82 11z"/>
</g>
</svg>
