<?xml version="1.0" standalone="no"?>
<!DOCTYPE svg PUBLIC "-//W3C//DTD SVG 20010904//EN"
 "http://www.w3.org/TR/2001/REC-SVG-20010904/DTD/svg10.dtd">
<svg version="1.0" xmlns="http://www.w3.org/2000/svg"
 width="248.000000pt" height="248.000000pt" viewBox="0 0 248.000000 248.000000"
 preserveAspectRatio="xMidYMid meet">
<metadata>
Created by potrace 1.10, written by Peter Selinger 2001-2011
</metadata>
<g transform="translate(0.000000,248.000000) scale(0.100000,-0.100000)"
fill="#000000" stroke="none">
<path d="M1040 2169 c-125 -17 -177 -26 -431 -73 -75 -14 -169 -28 -210 -32
-90 -8 -121 -24 -117 -62 5 -40 40 -54 118 -47 36 4 83 10 105 15 43 10 201
38 380 70 61 10 153 24 205 30 52 6 100 16 107 21 31 27 23 82 -14 91 -10 2
-74 -3 -143 -13z"/>
</g>
</svg>
