<?xml version="1.0" standalone="no"?>
<!DOCTYPE svg PUBLIC "-//W3C//DTD SVG 20010904//EN"
 "http://www.w3.org/TR/2001/REC-SVG-20010904/DTD/svg10.dtd">
<svg version="1.0" xmlns="http://www.w3.org/2000/svg"
 width="248.000000pt" height="248.000000pt" viewBox="0 0 248.000000 248.000000"
 preserveAspectRatio="xMidYMid meet">
<metadata>
Created by potrace 1.10, written by Peter Selinger 2001-2011
</metadata>
<g transform="translate(0.000000,248.000000) scale(0.100000,-0.100000)"
fill="#000000" stroke="none">
<path d="M1676 2378 c-13 -17 -16 -51 -16 -148 l0 -126 -227 -23 c-140 -14
-237 -29 -250 -37 -31 -20 -30 -59 2 -80 22 -14 36 -15 103 -6 159 22 302 35
308 30 9 -9 -42 -83 -100 -147 -29 -31 -72 -83 -96 -116 -24 -33 -67 -86 -97
-118 -29 -32 -56 -69 -59 -82 -9 -34 12 -65 44 -65 97 0 678 87 804 121 46 12
65 41 49 75 -14 31 -34 31 -229 -5 -86 -16 -193 -34 -237 -40 -172 -23 -238
-31 -241 -28 -6 6 86 129 136 183 57 61 137 182 142 215 3 22 10 25 98 36 52
7 144 17 205 23 115 11 181 25 203 42 17 15 15 63 -4 79 -12 10 -27 10 -73 1
-31 -7 -77 -12 -102 -12 -24 0 -84 -7 -134 -15 -148 -24 -135 -34 -135 103 0
129 -11 162 -55 162 -13 0 -31 -10 -39 -22z"/>
<path d="M820 2338 c-25 -22 -77 -66 -116 -97 -132 -106 -425 -375 -430 -397
-11 -43 1 -59 67 -94 36 -19 92 -55 123 -79 50 -39 55 -46 44 -61 -7 -10 -26
-35 -42 -56 -95 -125 -117 -156 -159 -221 -66 -101 -62 -153 10 -153 19 0 79
11 135 25 56 14 110 25 121 25 19 0 19 -7 13 -532 -8 -587 -8 -583 49 -583 22
0 33 7 42 25 8 18 13 181 17 575 l6 549 112 28 113 28 25 -31 c14 -18 34 -48
45 -68 33 -59 95 -52 95 11 0 37 -20 75 -79 152 -26 34 -55 75 -65 91 -30 49
-68 85 -91 85 -50 0 -59 -50 -20 -108 18 -26 21 -38 12 -43 -6 -3 -73 -20
-147 -38 -74 -17 -163 -39 -197 -47 -34 -9 -67 -14 -73 -12 -14 4 98 161 206
287 17 20 44 56 61 81 17 25 41 54 53 65 12 11 49 60 82 108 61 91 71 129 37
150 -31 20 -63 -1 -109 -70 -24 -38 -62 -88 -85 -113 -22 -25 -51 -60 -65 -78
l-25 -32 -50 40 c-27 23 -68 50 -89 62 l-40 20 75 72 c131 125 182 170 264
235 127 102 185 162 185 191 0 62 -48 65 -110 8z"/>
<path d="M336 868 c-7 -13 -16 -45 -19 -73 -3 -27 -19 -97 -36 -155 -78 -275
-84 -300 -73 -326 12 -24 44 -32 69 -16 18 12 39 67 68 183 14 57 35 132 45
167 11 34 25 92 31 127 10 56 9 69 -5 90 -21 32 -61 33 -80 3z"/>
<path d="M802 848 c-25 -25 -11 -63 101 -268 48 -89 67 -116 85 -118 31 -5 52
15 52 49 0 38 -137 313 -168 337 -20 15 -54 16 -70 0z"/>
</g>
</svg>
