<?xml version="1.0" standalone="no"?>
<!DOCTYPE svg PUBLIC "-//W3C//DTD SVG 20010904//EN"
 "http://www.w3.org/TR/2001/REC-SVG-20010904/DTD/svg10.dtd">
<svg version="1.0" xmlns="http://www.w3.org/2000/svg"
 width="248.000000pt" height="248.000000pt" viewBox="0 0 248.000000 248.000000"
 preserveAspectRatio="xMidYMid meet">
<metadata>
Created by potrace 1.10, written by Peter Selinger 2001-2011
</metadata>
<g transform="translate(0.000000,248.000000) scale(0.100000,-0.100000)"
fill="#000000" stroke="none">
<path d="M1040 2169 c-125 -17 -177 -26 -431 -73 -75 -14 -169 -28 -210 -32
-90 -8 -121 -24 -117 -62 7 -57 69 -62 276 -21 57 11 106 19 108 16 3 -3 -17
-31 -44 -63 -63 -77 -177 -248 -232 -349 -24 -44 -59 -108 -78 -143 -38 -72
-37 -107 4 -122 19 -7 54 -3 142 20 106 26 376 104 494 143 l47 15 35 -37 c19
-20 45 -48 58 -63 33 -38 62 -44 88 -18 34 34 30 42 -118 214 -84 96 -119 119
-151 99 -22 -14 -25 -50 -7 -78 9 -13 16 -26 16 -29 0 -7 -458 -146 -483 -146
-22 0 165 300 279 445 30 39 62 86 71 106 13 30 22 38 52 42 171 26 244 36
294 42 46 5 61 11 74 31 19 29 7 68 -24 76 -10 2 -74 -3 -143 -13z"/>
<path d="M975 1069 c-49 -10 -128 -26 -175 -34 -47 -8 -176 -30 -288 -49 -112
-19 -209 -40 -217 -46 -23 -19 -18 -58 10 -76 21 -14 34 -15 87 -5 35 6 142
25 238 41 96 17 209 37 250 45 41 9 113 22 160 31 97 18 110 26 110 63 0 56
-30 61 -175 30z"/>
</g>
</svg>
