<?xml version="1.0" standalone="no"?>
<!DOCTYPE svg PUBLIC "-//W3C//DTD SVG 20010904//EN"
 "http://www.w3.org/TR/2001/REC-SVG-20010904/DTD/svg10.dtd">
<svg version="1.0" xmlns="http://www.w3.org/2000/svg"
 width="248.000000pt" height="248.000000pt" viewBox="0 0 248.000000 248.000000"
 preserveAspectRatio="xMidYMid meet">
<metadata>
Created by potrace 1.10, written by Peter Selinger 2001-2011
</metadata>
<g transform="translate(0.000000,248.000000) scale(0.100000,-0.100000)"
fill="#000000" stroke="none">
<path d="M1040 2169 c-125 -17 -177 -26 -431 -73 -75 -14 -169 -28 -210 -32
-90 -8 -121 -24 -117 -62 7 -57 69 -62 276 -21 57 11 106 19 108 16 3 -3 -17
-31 -44 -63 -63 -77 -177 -248 -232 -349 -24 -44 -59 -108 -78 -143 -38 -72
-37 -107 4 -122 24 -10 165 20 309 64 38 12 51 13 57 3 4 -7 7 -93 5 -192 l-2
-180 -188 -31 c-103 -18 -194 -37 -202 -44 -23 -19 -18 -57 10 -76 23 -15 35
-14 177 10 84 15 165 29 180 32 l27 5 3 -224 c3 -205 5 -227 22 -246 21 -23
56 -27 74 -9 9 9 12 79 12 254 l0 241 78 17 c42 9 115 23 162 32 97 18 110 26
110 63 0 59 -23 62 -195 26 -66 -14 -127 -25 -136 -25 -15 0 -18 20 -21 178
-3 97 -8 184 -12 193 -6 13 11 22 96 49 57 18 106 34 109 36 6 3 53 -42 101
-98 33 -38 62 -44 88 -18 34 34 30 42 -118 214 -84 96 -119 119 -151 99 -22
-14 -25 -50 -7 -78 9 -13 16 -26 16 -29 0 -7 -458 -146 -483 -146 -22 0 165
300 279 445 30 39 62 86 71 106 13 30 22 38 52 42 171 26 244 36 294 42 46 5
61 11 74 31 19 29 7 68 -24 76 -10 2 -74 -3 -143 -13z"/>
</g>
</svg>
