<?xml version="1.0" standalone="no"?>
<!DOCTYPE svg PUBLIC "-//W3C//DTD SVG 20010904//EN"
 "http://www.w3.org/TR/2001/REC-SVG-20010904/DTD/svg10.dtd">
<svg version="1.0" xmlns="http://www.w3.org/2000/svg"
 width="248.000000pt" height="248.000000pt" viewBox="0 0 248.000000 248.000000"
 preserveAspectRatio="xMidYMid meet">
<metadata>
Created by potrace 1.10, written by Peter Selinger 2001-2011
</metadata>
<g transform="translate(0.000000,248.000000) scale(0.100000,-0.100000)"
fill="#000000" stroke="none">
<path d="M820 2338 c-25 -22 -77 -66 -116 -97 -132 -106 -425 -375 -430 -397
-11 -43 1 -59 67 -94 36 -19 92 -55 123 -79 50 -39 55 -46 44 -61 -7 -10 -26
-35 -42 -56 -95 -125 -117 -156 -159 -221 -65 -100 -62 -153 8 -153 31 0 194
36 455 102 l155 39 25 -32 c14 -18 34 -48 45 -68 33 -59 95 -52 95 11 0 37
-20 75 -79 152 -26 34 -55 75 -65 91 -30 49 -68 85 -91 85 -50 0 -59 -50 -20
-108 18 -26 21 -38 12 -43 -6 -3 -73 -20 -147 -38 -74 -17 -163 -39 -197 -47
-34 -9 -67 -14 -73 -12 -14 4 98 161 206 287 17 20 44 56 61 81 17 25 41 54
53 65 12 11 49 60 82 108 61 91 71 129 37 150 -31 20 -63 -1 -109 -70 -24 -38
-62 -88 -85 -113 -22 -25 -51 -60 -65 -78 l-25 -32 -50 40 c-27 23 -68 50 -89
62 l-40 20 75 72 c131 125 182 170 264 235 127 102 185 162 185 191 0 62 -48
65 -110 8z"/>
</g>
</svg>
