<?xml version="1.0" standalone="no"?>
<!DOCTYPE svg PUBLIC "-//W3C//DTD SVG 20010904//EN"
 "http://www.w3.org/TR/2001/REC-SVG-20010904/DTD/svg10.dtd">
<svg version="1.0" xmlns="http://www.w3.org/2000/svg"
 width="248.000000pt" height="248.000000pt" viewBox="0 0 248.000000 248.000000"
 preserveAspectRatio="xMidYMid meet">
<metadata>
Created by potrace 1.10, written by Peter Selinger 2001-2011
</metadata>
<g transform="translate(0.000000,248.000000) scale(0.100000,-0.100000)"
fill="#000000" stroke="none">
<path d="M2089 2303 c-11 -13 -15 -95 -17 -417 -3 -357 1 -561 23 -1366 6
-207 6 -214 -12 -198 -39 34 -236 148 -257 148 -48 0 -62 -52 -23 -87 12 -12
60 -45 107 -74 47 -28 111 -72 142 -96 74 -56 109 -57 139 -3 16 29 16 204 0
805 -6 209 -11 578 -11 821 -1 377 -3 444 -16 462 -18 26 -56 29 -75 5z"/>
<path d="M1040 2169 c-125 -17 -177 -26 -431 -73 -75 -14 -169 -28 -210 -32
-90 -8 -121 -24 -117 -62 7 -57 69 -62 276 -21 57 11 106 19 108 16 3 -3 -17
-31 -44 -63 -63 -77 -177 -248 -232 -349 -24 -44 -59 -108 -78 -143 -38 -72
-37 -107 4 -122 24 -10 165 20 309 64 38 12 51 13 57 3 4 -7 7 -93 5 -192 l-2
-180 -188 -31 c-103 -18 -194 -37 -202 -44 -23 -19 -18 -57 10 -76 23 -15 36
-14 202 15 97 17 178 29 179 28 1 -1 4 -106 6 -234 l3 -231 -85 -33 c-47 -17
-116 -45 -154 -61 -37 -15 -76 -28 -85 -28 -28 0 -61 -30 -61 -55 0 -37 38
-58 86 -47 50 12 312 116 384 152 30 15 71 32 90 38 44 13 162 62 217 91 23
11 67 30 96 41 30 11 74 34 97 51 33 24 41 35 38 56 -2 14 -12 32 -24 39 -18
13 -27 11 -80 -15 -129 -64 -380 -171 -401 -171 -10 0 -13 42 -13 214 l0 213
78 17 c42 9 115 23 162 32 97 18 110 26 110 63 0 59 -23 62 -195 26 -66 -14
-127 -25 -136 -25 -15 0 -18 20 -21 178 -3 97 -8 184 -12 193 -6 13 11 22 96
49 57 18 106 34 109 36 6 3 53 -42 101 -98 33 -38 62 -44 88 -18 34 34 30 42
-118 214 -84 96 -119 119 -151 99 -22 -14 -25 -50 -7 -78 9 -13 16 -26 16 -29
0 -7 -458 -146 -483 -146 -22 0 165 300 279 445 30 39 62 86 71 106 13 30 22
38 52 42 171 26 244 36 294 42 46 5 61 11 74 31 19 29 7 68 -24 76 -10 2 -74
-3 -143 -13z"/>
<path d="M1499 1933 c-11 -12 -15 -66 -17 -226 -4 -246 9 -400 34 -428 19 -21
54 -25 71 -8 17 17 5 628 -13 657 -17 26 -56 29 -75 5z"/>
</g>
</svg>
