<?xml version="1.0" standalone="no"?>
<!DOCTYPE svg PUBLIC "-//W3C//DTD SVG 20010904//EN"
 "http://www.w3.org/TR/2001/REC-SVG-20010904/DTD/svg10.dtd">
<svg version="1.0" xmlns="http://www.w3.org/2000/svg"
 width="248.000000pt" height="248.000000pt" viewBox="0 0 248.000000 248.000000"
 preserveAspectRatio="xMidYMid meet">
<metadata>
Created by potrace 1.10, written by Peter Selinger 2001-2011
</metadata>
<g transform="translate(0.000000,248.000000) scale(0.100000,-0.100000)"
fill="#000000" stroke="none">
<path d="M502 2352 c-10 -10 -28 -60 -41 -112 -31 -130 -66 -233 -102 -308
-29 -59 -30 -64 -15 -87 10 -16 26 -25 41 -25 29 0 66 52 100 140 l21 55 214
27 c117 15 236 32 264 38 28 6 75 15 105 20 60 10 91 32 91 65 0 50 -35 55
-180 25 -112 -24 -401 -63 -435 -58 l-23 3 23 93 c25 97 24 116 -6 132 -25 14
-37 12 -57 -8z"/>
</g>
</svg>
