<?xml version="1.0" standalone="no"?>
<!DOCTYPE svg PUBLIC "-//W3C//DTD SVG 20010904//EN"
 "http://www.w3.org/TR/2001/REC-SVG-20010904/DTD/svg10.dtd">
<svg version="1.0" xmlns="http://www.w3.org/2000/svg"
 width="248.000000pt" height="248.000000pt" viewBox="0 0 248.000000 248.000000"
 preserveAspectRatio="xMidYMid meet">
<metadata>
Created by potrace 1.10, written by Peter Selinger 2001-2011
</metadata>
<g transform="translate(0.000000,248.000000) scale(0.100000,-0.100000)"
fill="#000000" stroke="none">
<path d="M1753 2234 c-62 -87 -99 -126 -164 -169 -119 -79 -145 -95 -150 -95
-6 0 -64 50 -160 138 -37 34 -76 62 -85 62 -9 0 -29 8 -45 17 -32 19 -47 17
-299 -27 -63 -11 -159 -27 -213 -35 -107 -15 -127 -25 -127 -61 0 -37 40 -58
97 -50 70 9 223 35 337 57 55 11 101 17 103 15 17 -17 -167 -321 -280 -463
-56 -69 -44 -69 -133 1 -27 22 -73 68 -103 103 -54 63 -83 77 -109 51 -44 -44
14 -123 202 -280 l28 -24 -50 -60 c-92 -109 -346 -346 -444 -413 -38 -25 -48
-38 -48 -59 0 -62 42 -67 121 -14 114 77 412 361 499 477 25 33 77 101 116
150 97 123 212 301 269 417 l48 96 70 -61 c38 -34 97 -89 131 -122 33 -33 88
-83 121 -110 33 -27 96 -83 140 -124 44 -41 112 -98 150 -128 39 -29 97 -76
130 -104 195 -165 389 -297 437 -298 31 -1 62 36 52 62 -6 16 -77 67 -93 67
-9 0 -39 22 -191 139 -30 23 -79 60 -108 82 -29 22 -74 59 -101 82 -27 23 -77
65 -111 92 -71 57 -264 233 -268 244 -1 5 37 33 86 64 137 87 232 193 232 260
0 50 -57 65 -87 21z"/>
</g>
</svg>
