<?xml version="1.0" standalone="no"?>
<!DOCTYPE svg PUBLIC "-//W3C//DTD SVG 20010904//EN"
 "http://www.w3.org/TR/2001/REC-SVG-20010904/DTD/svg10.dtd">
<svg version="1.0" xmlns="http://www.w3.org/2000/svg"
 width="248.000000pt" height="248.000000pt" viewBox="0 0 248.000000 248.000000"
 preserveAspectRatio="xMidYMid meet">
<metadata>
Created by potrace 1.10, written by Peter Selinger 2001-2011
</metadata>
<g transform="translate(0.000000,248.000000) scale(0.100000,-0.100000)"
fill="#000000" stroke="none">
<path d="M1010 2189 c-79 -16 -272 -49 -373 -64 -107 -15 -127 -25 -127 -61 0
-37 40 -58 97 -50 70 9 223 35 337 57 55 11 101 17 103 15 18 -18 -167 -321
-291 -477 -34 -42 -87 -110 -118 -150 -90 -116 -367 -380 -480 -458 -38 -25
-48 -38 -48 -59 0 -33 16 -52 45 -52 73 0 415 314 612 564 217 273 407 587
407 673 0 67 -48 85 -164 62z"/>
</g>
</svg>
