<?xml version="1.0" standalone="no"?>
<!DOCTYPE svg PUBLIC "-//W3C//DTD SVG 20010904//EN"
 "http://www.w3.org/TR/2001/REC-SVG-20010904/DTD/svg10.dtd">
<svg version="1.0" xmlns="http://www.w3.org/2000/svg"
 width="248.000000pt" height="248.000000pt" viewBox="0 0 248.000000 248.000000"
 preserveAspectRatio="xMidYMid meet">
<metadata>
Created by potrace 1.10, written by Peter Selinger 2001-2011
</metadata>
<g transform="translate(0.000000,248.000000) scale(0.100000,-0.100000)"
fill="#000000" stroke="none">
<path d="M1753 2234 c-62 -87 -99 -126 -164 -169 -119 -79 -145 -95 -150 -95
-6 0 -64 50 -160 138 -37 34 -76 62 -85 62 -9 0 -29 8 -45 17 -32 19 -47 17
-299 -27 -63 -11 -159 -27 -213 -35 -107 -15 -127 -25 -127 -61 0 -37 40 -58
97 -50 70 9 223 35 337 57 55 11 101 17 103 15 17 -17 -167 -321 -280 -463
-56 -69 -44 -69 -133 1 -27 22 -73 68 -103 103 -54 63 -83 77 -109 51 -44 -44
14 -123 202 -280 l28 -24 -50 -60 c-92 -109 -346 -346 -444 -413 -38 -25 -48
-38 -48 -59 0 -62 42 -67 121 -14 114 77 412 361 499 477 25 33 77 101 116
150 97 123 212 301 269 417 l48 96 70 -61 c38 -34 97 -89 131 -122 33 -34 96
-90 138 -125 42 -36 116 -101 165 -145 49 -44 109 -95 134 -112 24 -18 71 -56
104 -84 100 -85 282 -222 348 -261 74 -44 110 -48 132 -14 8 13 13 30 9 39 -6
16 -77 67 -93 67 -9 0 -25 11 -180 130 -46 36 -107 83 -136 105 -29 22 -73 59
-99 81 l-46 42 97 83 c145 125 191 197 151 237 -25 25 -53 12 -111 -53 -57
-63 -210 -195 -227 -195 -10 0 -223 197 -228 209 -1 4 37 33 86 64 137 87 232
193 232 260 0 50 -57 65 -87 21z"/>
<path d="M1530 1469 c-36 -4 -105 -13 -155 -19 -182 -22 -252 -32 -324 -46
-40 -8 -108 -14 -150 -14 -86 0 -121 -16 -121 -55 0 -38 35 -55 115 -55 38 0
88 5 110 10 45 10 201 33 345 50 219 27 303 40 316 51 19 15 18 54 -2 73 -17
17 -34 18 -134 5z"/>
<path d="M682 1088 c-17 -17 -15 -51 8 -137 11 -41 20 -85 20 -98 0 -14 10
-67 22 -120 18 -79 26 -96 45 -104 52 -20 79 23 62 99 -6 26 -17 88 -25 137
-18 107 -42 193 -62 218 -17 20 -53 22 -70 5z"/>
</g>
</svg>
