<?xml version="1.0" standalone="no"?>
<!DOCTYPE svg PUBLIC "-//W3C//DTD SVG 20010904//EN"
 "http://www.w3.org/TR/2001/REC-SVG-20010904/DTD/svg10.dtd">
<svg version="1.0" xmlns="http://www.w3.org/2000/svg"
 width="248.000000pt" height="248.000000pt" viewBox="0 0 248.000000 248.000000"
 preserveAspectRatio="xMidYMid meet">
<metadata>
Created by potrace 1.10, written by Peter Selinger 2001-2011
</metadata>
<g transform="translate(0.000000,248.000000) scale(0.100000,-0.100000)"
fill="#000000" stroke="none">
<path d="M612 2318 c-16 -16 -15 -49 3 -75 9 -12 55 -55 103 -96 148 -124 172
-136 205 -99 32 35 20 57 -68 122 -26 19 -78 63 -116 98 -68 62 -102 75 -127
50z"/>
<path d="M1025 1923 c-47 -4 -210 -30 -275 -43 -25 -5 -103 -16 -175 -25 -71
-9 -168 -23 -215 -31 -47 -8 -102 -16 -122 -18 -46 -4 -68 -21 -68 -51 0 -49
53 -62 168 -42 48 9 137 23 197 31 120 17 185 27 375 56 69 11 145 20 170 20
25 0 56 7 68 16 47 33 12 96 -53 92 -16 -1 -48 -3 -70 -5z"/>
</g>
</svg>
