<?xml version="1.0" standalone="no"?>
<!DOCTYPE svg PUBLIC "-//W3C//DTD SVG 20010904//EN"
 "http://www.w3.org/TR/2001/REC-SVG-20010904/DTD/svg10.dtd">
<svg version="1.0" xmlns="http://www.w3.org/2000/svg"
 width="248.000000pt" height="248.000000pt" viewBox="0 0 248.000000 248.000000"
 preserveAspectRatio="xMidYMid meet">
<metadata>
Created by potrace 1.10, written by Peter Selinger 2001-2011
</metadata>
<g transform="translate(0.000000,248.000000) scale(0.100000,-0.100000)"
fill="#000000" stroke="none">
<path d="M1064 2313 c-24 -27 -44 -51 -44 -54 0 -7 -147 -135 -237 -207 -63
-51 -80 -80 -64 -111 24 -43 58 -27 201 93 137 115 241 223 254 263 8 25 -23
63 -50 63 -9 0 -36 -21 -60 -47z"/>
<path d="M580 1955 c-11 -13 -11 -29 -1 -83 9 -53 9 -145 -4 -447 -8 -209 -20
-432 -27 -495 -15 -151 -14 -171 8 -187 22 -16 35 -16 57 0 21 15 34 92 42
252 16 328 25 597 25 751 0 158 -2 173 -21 198 -23 29 -60 34 -79 11z"/>
</g>
</svg>
