<?xml version="1.0" standalone="no"?>
<!DOCTYPE svg PUBLIC "-//W3C//DTD SVG 20010904//EN"
 "http://www.w3.org/TR/2001/REC-SVG-20010904/DTD/svg10.dtd">
<svg version="1.0" xmlns="http://www.w3.org/2000/svg"
 width="248.000000pt" height="248.000000pt" viewBox="0 0 248.000000 248.000000"
 preserveAspectRatio="xMidYMid meet">
<metadata>
Created by potrace 1.10, written by Peter Selinger 2001-2011
</metadata>
<g transform="translate(0.000000,248.000000) scale(0.100000,-0.100000)"
fill="#000000" stroke="none">
<path d="M1010 2189 c-79 -16 -272 -49 -373 -64 -107 -15 -127 -25 -127 -61 0
-37 40 -58 97 -50 70 9 223 35 337 57 55 11 101 17 103 15 17 -17 -167 -321
-280 -463 -56 -69 -44 -69 -133 1 -27 22 -73 68 -103 103 -54 63 -83 77 -109
51 -44 -44 14 -123 202 -280 l28 -24 -50 -60 c-92 -109 -346 -346 -444 -413
-38 -25 -48 -38 -48 -59 0 -62 42 -67 121 -14 114 77 412 361 499 477 25 33
77 101 116 150 157 200 328 497 328 572 0 67 -48 85 -164 62z"/>
</g>
</svg>
