<?xml version="1.0" standalone="no"?>
<!DOCTYPE svg PUBLIC "-//W3C//DTD SVG 20010904//EN"
 "http://www.w3.org/TR/2001/REC-SVG-20010904/DTD/svg10.dtd">
<svg version="1.0" xmlns="http://www.w3.org/2000/svg"
 width="248.000000pt" height="248.000000pt" viewBox="0 0 248.000000 248.000000"
 preserveAspectRatio="xMidYMid meet">
<metadata>
Created by potrace 1.10, written by Peter Selinger 2001-2011
</metadata>
<g transform="translate(0.000000,248.000000) scale(0.100000,-0.100000)"
fill="#000000" stroke="none">
<path d="M957 2034 c-9 -9 -496 -111 -712 -149 -120 -21 -147 -35 -143 -73 5
-46 46 -58 132 -38 39 8 141 29 226 46 85 17 184 37 220 45 36 8 120 26 188
40 68 14 132 30 143 35 28 15 35 57 14 80 -17 19 -55 27 -68 14z"/>
</g>
</svg>
