<?xml version="1.0" standalone="no"?>
<!DOCTYPE svg PUBLIC "-//W3C//DTD SVG 20010904//EN"
 "http://www.w3.org/TR/2001/REC-SVG-20010904/DTD/svg10.dtd">
<svg version="1.0" xmlns="http://www.w3.org/2000/svg"
 width="248.000000pt" height="248.000000pt" viewBox="0 0 248.000000 248.000000"
 preserveAspectRatio="xMidYMid meet">
<metadata>
Created by potrace 1.10, written by Peter Selinger 2001-2011
</metadata>
<g transform="translate(0.000000,248.000000) scale(0.100000,-0.100000)"
fill="#000000" stroke="none">
<path d="M629 2404 c-10 -12 -16 -75 -22 -233 -4 -118 -9 -216 -10 -217 -3 -3
-223 -46 -357 -70 -115 -20 -142 -35 -138 -72 5 -46 46 -58 132 -38 39 8 137
28 217 43 l146 28 -4 -655 c-3 -360 -8 -699 -11 -753 l-7 -98 -95 90 c-56 53
-104 91 -116 91 -28 0 -44 -19 -44 -53 0 -24 20 -49 109 -136 59 -58 121 -123
136 -144 37 -50 77 -50 104 0 19 37 31 347 31 843 0 256 3 549 7 653 l6 187
36 10 c20 5 82 18 139 29 57 12 112 25 122 31 50 27 25 108 -30 96 -14 -2 -77
-16 -140 -30 -63 -14 -119 -25 -123 -26 -5 0 -5 88 -1 195 6 172 5 197 -10
220 -19 29 -57 33 -77 9z"/>
</g>
</svg>
