<?xml version="1.0" standalone="no"?>
<!DOCTYPE svg PUBLIC "-//W3C//DTD SVG 20010904//EN"
 "http://www.w3.org/TR/2001/REC-SVG-20010904/DTD/svg10.dtd">
<svg version="1.0" xmlns="http://www.w3.org/2000/svg"
 width="248.000000pt" height="248.000000pt" viewBox="0 0 248.000000 248.000000"
 preserveAspectRatio="xMidYMid meet">
<metadata>
Created by potrace 1.10, written by Peter Selinger 2001-2011
</metadata>
<g transform="translate(0.000000,248.000000) scale(0.100000,-0.100000)"
fill="#000000" stroke="none">
<path d="M1066 2313 c-61 -71 -92 -101 -190 -183 -49 -41 -111 -94 -138 -117
-43 -38 -55 -43 -97 -43 -78 0 -116 -57 -70 -106 l21 -22 -16 -404 c-9 -222
-22 -452 -28 -513 -15 -145 -14 -166 8 -182 58 -42 94 30 94 192 0 33 4 65 8
72 4 6 50 16 102 22 52 6 133 17 180 25 47 8 114 17 150 21 36 4 110 13 165
21 148 22 461 54 528 54 76 0 97 12 97 54 0 49 -26 57 -147 45 -54 -5 -147
-14 -208 -20 -60 -5 -173 -18 -250 -29 -77 -10 -165 -22 -195 -25 -30 -3 -130
-18 -222 -32 -91 -14 -174 -23 -183 -19 -15 5 -16 18 -10 103 4 54 10 101 13
104 12 11 165 38 272 49 58 6 146 15 195 20 50 6 134 15 189 20 54 5 105 15
113 22 11 9 13 24 10 52 -6 41 48 277 98 431 45 136 41 140 -132 131 -71 -4
-208 -16 -306 -27 -97 -11 -187 -19 -198 -17 -18 2 -7 15 58 70 89 75 186 181
197 215 8 25 -23 63 -50 63 -9 0 -35 -21 -58 -47z m384 -369 c0 -37 -32 -124
-46 -124 -32 0 -368 -41 -407 -49 -23 -6 -98 -17 -166 -26 -68 -9 -129 -17
-135 -18 -7 -1 -12 24 -14 66 -3 62 -1 68 20 76 24 10 192 36 293 46 33 4 116
13 185 21 242 27 270 28 270 8z m-60 -234 c0 -6 -10 -49 -21 -95 -18 -70 -25
-86 -43 -90 -37 -7 -176 -24 -341 -40 -88 -9 -191 -23 -229 -31 -39 -8 -73
-11 -78 -6 -4 4 -4 43 0 87 l7 80 55 12 c121 25 435 70 638 92 6 0 12 -4 12
-9z"/>
</g>
</svg>
