<?xml version="1.0" standalone="no"?>
<!DOCTYPE svg PUBLIC "-//W3C//DTD SVG 20010904//EN"
 "http://www.w3.org/TR/2001/REC-SVG-20010904/DTD/svg10.dtd">
<svg version="1.0" xmlns="http://www.w3.org/2000/svg"
 width="248.000000pt" height="248.000000pt" viewBox="0 0 248.000000 248.000000"
 preserveAspectRatio="xMidYMid meet">
<metadata>
Created by potrace 1.10, written by Peter Selinger 2001-2011
</metadata>
<g transform="translate(0.000000,248.000000) scale(0.100000,-0.100000)"
fill="#000000" stroke="none">
<path d="M1939 2374 c-11 -14 -15 -79 -17 -335 l-3 -319 -22 -4 c-115 -21
-320 -47 -529 -65 -93 -8 -118 -20 -118 -57 0 -50 73 -66 199 -45 47 8 186 27
428 57 l43 5 -3 -645 -2 -644 -67 64 c-36 35 -71 64 -76 64 -39 0 -69 -39 -53
-67 5 -10 30 -40 56 -68 26 -27 67 -80 91 -117 45 -70 67 -88 107 -88 47 0 52
19 51 209 0 97 2 431 4 743 l5 568 31 4 c271 41 316 61 272 121 -15 21 -76 24
-144 6 -20 -6 -65 -13 -99 -17 l-63 -7 0 299 c0 220 -4 306 -13 324 -15 31
-58 38 -78 14z"/>
<path d="M612 2318 c-16 -16 -15 -49 3 -75 9 -12 55 -55 103 -96 148 -124 172
-136 205 -99 32 35 20 57 -68 122 -26 19 -78 63 -116 98 -68 62 -102 75 -127
50z"/>
<path d="M1025 1923 c-47 -4 -210 -30 -275 -43 -25 -5 -103 -16 -175 -25 -71
-9 -168 -23 -215 -31 -47 -8 -102 -16 -122 -18 -46 -4 -68 -21 -68 -51 0 -49
53 -62 168 -42 48 9 137 23 197 31 120 17 185 27 375 56 69 11 145 20 170 20
25 0 56 7 68 16 47 33 12 96 -53 92 -16 -1 -48 -3 -70 -5z"/>
<path d="M880 1554 c-14 -3 -77 -11 -140 -19 -165 -22 -322 -55 -342 -73 -22
-19 -23 -55 -3 -72 17 -14 45 -12 215 18 63 11 158 26 210 32 105 12 140 28
140 65 0 21 -34 58 -50 54 -3 -1 -16 -3 -30 -5z"/>
<path d="M850 1203 c-43 -5 -288 -41 -352 -52 -26 -4 -54 -13 -62 -21 -25 -20
-19 -57 10 -76 24 -16 31 -16 112 -1 48 9 125 21 172 28 203 27 220 33 220 73
0 43 -29 57 -100 49z"/>
<path d="M1382 1188 c-28 -28 -14 -65 42 -111 75 -61 249 -167 274 -167 26 0
52 25 52 50 0 21 -22 39 -145 119 -49 32 -107 72 -129 90 -41 32 -74 39 -94
19z"/>
<path d="M780 879 c-30 -5 -125 -18 -210 -29 -142 -18 -157 -22 -177 -45 -27
-31 -26 -12 -12 -365 12 -294 18 -327 65 -349 28 -13 192 -14 337 -2 142 11
141 10 177 231 15 91 25 410 16 473 -10 66 -31 87 -91 92 -27 2 -75 -1 -105
-6z m90 -266 c-1 -93 -5 -199 -10 -238 -6 -38 -13 -93 -16 -121 l-7 -51 -66
-7 c-36 -3 -112 -6 -168 -6 l-101 0 -6 113 c-3 61 -7 184 -9 272 l-2 159 135
17 c74 9 146 19 160 22 14 2 40 5 58 6 l32 1 0 -167z"/>
</g>
</svg>
