<?xml version="1.0" standalone="no"?>
<!DOCTYPE svg PUBLIC "-//W3C//DTD SVG 20010904//EN"
 "http://www.w3.org/TR/2001/REC-SVG-20010904/DTD/svg10.dtd">
<svg version="1.0" xmlns="http://www.w3.org/2000/svg"
 width="248.000000pt" height="248.000000pt" viewBox="0 0 248.000000 248.000000"
 preserveAspectRatio="xMidYMid meet">
<metadata>
Created by potrace 1.10, written by Peter Selinger 2001-2011
</metadata>
<g transform="translate(0.000000,248.000000) scale(0.100000,-0.100000)"
fill="#000000" stroke="none">
<path d="M1432 2388 c-6 -7 -20 -42 -32 -77 -29 -87 -90 -206 -157 -306 -40
-61 -53 -89 -48 -104 9 -30 39 -43 67 -30 21 9 107 127 137 185 9 18 22 22 91
28 261 20 244 20 237 2 -18 -46 -122 -208 -166 -259 -56 -64 -61 -84 -31 -112
31 -28 66 -10 126 65 57 70 169 259 180 303 6 26 9 27 68 27 103 0 237 18 262
35 27 17 32 56 11 74 -16 12 -442 -2 -559 -19 -70 -10 -148 -13 -148 -5 0 2 9
27 20 55 22 57 26 120 8 138 -16 16 -53 15 -66 0z"/>
<path d="M502 2352 c-10 -10 -28 -60 -41 -112 -31 -130 -66 -233 -102 -308
-29 -59 -30 -64 -15 -87 10 -16 26 -25 41 -25 29 0 66 52 100 140 l21 55 109
13 c96 12 110 12 120 -1 6 -9 21 -62 34 -119 40 -176 42 -183 74 -186 16 -2
35 2 44 9 19 16 13 84 -21 224 -16 67 -20 98 -12 100 6 2 63 13 126 25 163 30
163 30 183 47 20 19 22 54 5 71 -17 17 -58 15 -168 -8 -112 -24 -401 -63 -435
-58 l-23 3 23 93 c25 97 24 116 -6 132 -25 14 -37 12 -57 -8z"/>
<path d="M1141 1824 c-13 -9 -29 -32 -37 -50 -15 -36 -106 -159 -217 -294
-125 -151 -378 -382 -525 -478 -89 -58 -98 -68 -88 -106 13 -53 52 -43 181 44
205 139 466 401 669 672 l58 78 45 -37 c25 -20 64 -58 86 -84 66 -75 279 -248
408 -332 210 -136 534 -297 599 -297 32 0 50 17 50 47 0 28 -24 44 -133 88
-174 70 -490 257 -625 369 -40 34 -90 75 -111 91 -55 44 -254 245 -274 278
-20 31 -51 35 -86 11z"/>
<path d="M1452 1160 c-172 -31 -368 -50 -516 -50 -157 0 -189 -9 -194 -52 -6
-47 26 -58 163 -58 213 1 691 64 728 97 20 19 22 54 5 71 -16 16 -62 14 -186
-8z"/>
<path d="M1494 860 c-147 -8 -322 -23 -524 -45 -74 -8 -161 -15 -193 -15 -49
0 -62 -4 -83 -26 -32 -31 -31 -40 19 -284 20 -96 39 -196 42 -222 9 -66 26
-81 89 -75 65 7 385 26 585 35 167 8 157 4 181 72 6 19 46 132 87 250 42 118
78 229 80 247 10 63 -51 77 -283 63z m100 -292 c-36 -105 -69 -200 -75 -209
-10 -20 -36 -23 -384 -40 -126 -6 -241 -12 -254 -12 -23 -2 -25 4 -61 188 -21
105 -37 191 -36 192 5 5 246 33 333 38 57 3 110 8 118 11 13 5 181 15 382 22
l42 2 -65 -192z"/>
</g>
</svg>
