<?xml version="1.0" standalone="no"?>
<!DOCTYPE svg PUBLIC "-//W3C//DTD SVG 20010904//EN"
 "http://www.w3.org/TR/2001/REC-SVG-20010904/DTD/svg10.dtd">
<svg version="1.0" xmlns="http://www.w3.org/2000/svg"
 width="248.000000pt" height="248.000000pt" viewBox="0 0 248.000000 248.000000"
 preserveAspectRatio="xMidYMid meet">
<metadata>
Created by potrace 1.10, written by Peter Selinger 2001-2011
</metadata>
<g transform="translate(0.000000,248.000000) scale(0.100000,-0.100000)"
fill="#000000" stroke="none">
<path d="M1659 2334 c-8 -9 -16 -65 -21 -147 -5 -72 -11 -134 -14 -136 -5 -6
-170 -28 -279 -37 -38 -4 -76 -11 -82 -17 -19 -14 -16 -52 6 -71 24 -22 71
-22 215 -2 161 23 150 27 143 -45 -3 -34 -9 -65 -14 -69 -4 -5 -66 -17 -136
-28 -71 -11 -135 -26 -143 -32 -22 -19 -17 -58 10 -75 23 -15 34 -15 147 4 67
12 124 19 127 17 2 -3 1 -43 -3 -89 l-7 -84 -56 -7 c-31 -4 -102 -11 -157 -16
-220 -22 -361 -43 -383 -57 -17 -10 -22 -22 -20 -41 4 -38 39 -51 113 -42 33
4 128 15 210 24 83 8 202 22 265 31 136 18 253 30 490 49 222 19 278 30 292
61 13 29 -4 62 -34 67 -13 2 -43 0 -68 -4 -25 -4 -139 -14 -255 -23 -115 -8
-227 -18 -247 -21 -37 -6 -38 -5 -38 24 0 16 3 56 6 89 l7 60 61 6 c99 10 182
24 205 36 25 14 29 62 6 81 -16 13 -45 12 -188 -10 -44 -6 -81 -9 -84 -6 -3 3
-2 34 1 69 l7 64 117 16 c64 9 142 20 172 23 67 8 100 27 100 58 0 60 -59 62
-359 10 l-33 -5 7 120 c6 104 5 125 -9 146 -19 29 -57 33 -77 9z"/>
<path d="M823 2247 c-61 -49 -244 -150 -368 -201 -77 -32 -104 -76 -67 -109
24 -22 45 -21 90 2 53 28 122 61 127 61 3 0 5 -86 5 -190 0 -144 -3 -192 -12
-195 -35 -12 -237 -37 -343 -42 -137 -6 -168 -18 -163 -61 5 -45 37 -54 168
-47 63 4 135 10 160 15 125 24 120 25 120 -13 0 -18 -17 -69 -38 -113 -22 -43
-47 -104 -57 -134 -72 -223 -193 -481 -300 -641 -41 -61 -75 -120 -75 -130 0
-22 26 -49 49 -49 64 0 269 358 381 665 28 77 58 159 66 183 9 24 18 42 20 40
2 -2 -1 -94 -6 -203 -5 -110 -12 -312 -15 -450 -3 -137 -11 -310 -16 -383 -12
-143 -8 -162 36 -162 69 0 74 41 101 938 4 122 10 224 13 227 4 2 26 -22 49
-53 71 -97 139 -162 170 -162 67 0 68 45 3 116 -64 70 -186 234 -207 277 -12
26 -14 42 -7 63 10 29 11 29 169 52 179 26 208 36 212 72 6 61 -18 65 -227 31
-74 -11 -136 -21 -137 -21 -2 0 -4 80 -4 178 0 97 -4 191 -9 208 -8 30 -8 31
85 88 97 60 124 86 124 121 0 48 -51 59 -97 22z"/>
<path d="M1815 1384 c-63 -14 -219 -31 -372 -41 -56 -3 -97 -11 -103 -18 -7
-8 -12 -111 -14 -266 -2 -140 -9 -318 -16 -396 -13 -161 -6 -196 41 -201 39
-5 51 20 60 119 4 50 9 92 11 95 8 7 229 32 344 38 l111 6 -1 -142 -1 -142 28
-10 c23 -8 31 -6 49 11 19 19 22 38 29 160 13 233 22 696 15 735 -13 70 -50
81 -181 52z m75 -189 l0 -94 -37 -9 c-21 -5 -103 -15 -183 -22 -80 -7 -164
-15 -187 -17 l-42 -5 -3 92 c-4 106 -20 94 147 110 140 13 268 30 274 36 2 2
10 4 18 4 10 0 13 -22 13 -95z m-4 -282 c-4 -43 -9 -80 -12 -82 -3 -3 -62 -8
-132 -12 -70 -4 -158 -12 -197 -18 -122 -18 -115 -22 -115 63 l0 73 53 7 c28
3 77 11 107 16 30 4 89 9 130 10 41 2 89 6 105 10 69 18 69 18 61 -67z"/>
</g>
</svg>
