<?xml version="1.0" standalone="no"?>
<!DOCTYPE svg PUBLIC "-//W3C//DTD SVG 20010904//EN"
 "http://www.w3.org/TR/2001/REC-SVG-20010904/DTD/svg10.dtd">
<svg version="1.0" xmlns="http://www.w3.org/2000/svg"
 width="248.000000pt" height="248.000000pt" viewBox="0 0 248.000000 248.000000"
 preserveAspectRatio="xMidYMid meet">
<metadata>
Created by potrace 1.10, written by Peter Selinger 2001-2011
</metadata>
<g transform="translate(0.000000,248.000000) scale(0.100000,-0.100000)"
fill="#000000" stroke="none">
<path d="M823 2247 c-61 -49 -244 -150 -368 -201 -77 -32 -104 -76 -67 -109
24 -22 45 -21 90 2 53 28 122 61 127 61 3 0 5 -86 5 -190 0 -144 -3 -192 -12
-195 -35 -12 -237 -37 -343 -42 -137 -6 -168 -18 -163 -61 6 -48 43 -57 193
-44 71 6 169 17 217 24 48 6 89 10 92 7 2 -2 -2 -139 -9 -304 -8 -165 -16
-415 -20 -555 -3 -140 -11 -315 -16 -388 -12 -143 -8 -162 36 -162 59 0 71 62
84 450 28 796 35 947 41 965 7 18 28 23 166 43 178 26 208 36 212 72 6 61 -18
65 -227 31 -74 -11 -136 -21 -137 -21 -2 0 -4 80 -4 178 0 97 -4 191 -9 208
-8 30 -8 31 85 88 97 60 124 86 124 121 0 48 -51 59 -97 22z"/>
</g>
</svg>
