<?xml version="1.0" standalone="no"?>
<!DOCTYPE svg PUBLIC "-//W3C//DTD SVG 20010904//EN"
 "http://www.w3.org/TR/2001/REC-SVG-20010904/DTD/svg10.dtd">
<svg version="1.0" xmlns="http://www.w3.org/2000/svg"
 width="248.000000pt" height="248.000000pt" viewBox="0 0 248.000000 248.000000"
 preserveAspectRatio="xMidYMid meet">
<metadata>
Created by potrace 1.10, written by Peter Selinger 2001-2011
</metadata>
<g transform="translate(0.000000,248.000000) scale(0.100000,-0.100000)"
fill="#000000" stroke="none">
<path d="M1659 2334 c-8 -9 -16 -65 -21 -147 -5 -72 -11 -134 -14 -136 -5 -6
-170 -28 -279 -37 -38 -4 -76 -11 -82 -17 -19 -14 -16 -51 6 -71 24 -22 60
-22 219 -1 73 10 135 16 137 13 3 -2 0 -98 -5 -213 -11 -236 -7 -260 45 -260
45 0 53 29 60 210 3 88 8 187 11 221 l5 61 117 16 c64 9 142 20 172 23 67 8
100 27 100 58 0 60 -59 62 -359 10 l-33 -5 7 120 c6 104 5 125 -9 146 -19 29
-57 33 -77 9z"/>
<path d="M823 2247 c-61 -49 -244 -150 -368 -201 -77 -32 -104 -76 -67 -109
24 -22 45 -21 90 2 53 28 122 61 127 61 3 0 5 -86 5 -190 0 -144 -3 -192 -12
-195 -35 -12 -237 -37 -343 -42 -137 -6 -168 -18 -163 -61 5 -45 37 -54 168
-47 63 4 135 10 160 15 125 24 120 25 120 -13 0 -18 -17 -69 -38 -113 -22 -43
-47 -104 -57 -134 -72 -223 -193 -481 -300 -641 -41 -61 -75 -120 -75 -130 0
-22 26 -49 49 -49 64 0 269 358 381 665 28 77 58 159 66 183 9 24 18 42 20 40
2 -2 -1 -94 -6 -203 -5 -110 -12 -312 -15 -450 -3 -137 -11 -310 -16 -383 -12
-143 -8 -162 36 -162 69 0 74 41 101 938 4 122 10 224 13 227 4 2 26 -22 49
-53 71 -97 139 -162 170 -162 67 0 68 45 3 116 -64 70 -186 234 -207 277 -12
26 -14 42 -7 63 10 29 11 29 169 52 179 26 208 36 212 72 6 61 -18 65 -227 31
-74 -11 -136 -21 -137 -21 -2 0 -4 80 -4 178 0 97 -4 191 -9 208 -8 30 -8 31
85 88 97 60 124 86 124 121 0 48 -51 59 -97 22z"/>
</g>
</svg>
