<?xml version="1.0" standalone="no"?>
<!DOCTYPE svg PUBLIC "-//W3C//DTD SVG 20010904//EN"
 "http://www.w3.org/TR/2001/REC-SVG-20010904/DTD/svg10.dtd">
<svg version="1.0" xmlns="http://www.w3.org/2000/svg"
 width="248.000000pt" height="248.000000pt" viewBox="0 0 248.000000 248.000000"
 preserveAspectRatio="xMidYMid meet">
<metadata>
Created by potrace 1.10, written by Peter Selinger 2001-2011
</metadata>
<g transform="translate(0.000000,248.000000) scale(0.100000,-0.100000)"
fill="#000000" stroke="none">
<path d="M1659 2334 c-8 -9 -16 -65 -21 -147 -5 -73 -12 -135 -16 -138 -7 -6
-164 -26 -287 -36 -33 -3 -66 -10 -72 -15 -19 -15 -16 -53 6 -72 24 -22 71
-22 215 -2 161 23 150 27 142 -45 -3 -33 -8 -64 -11 -69 -2 -4 -58 -15 -122
-25 -65 -9 -129 -22 -143 -29 -35 -17 -39 -60 -7 -81 23 -15 34 -15 148 4 68
11 125 18 127 16 3 -2 1 -42 -3 -88 l-7 -84 -96 -11 c-53 -6 -126 -14 -162
-17 -150 -13 -317 -39 -337 -52 -14 -8 -23 -23 -23 -38 0 -42 34 -55 115 -45
39 5 135 16 215 24 80 9 199 23 265 31 185 24 274 33 476 49 277 23 323 37
304 97 -7 20 -50 43 -65 34 -4 -2 -88 -12 -186 -20 -99 -8 -226 -19 -284 -25
-57 -5 -106 -7 -108 -5 -3 2 -1 42 3 88 l7 84 66 7 c183 17 225 32 220 78 -5
51 -23 54 -159 35 -66 -10 -123 -16 -126 -13 -3 3 -2 34 1 69 l7 65 87 11 c48
7 123 17 166 22 98 12 130 26 134 60 7 63 -56 65 -362 14 l-28 -5 7 120 c6
103 5 124 -9 145 -19 29 -57 33 -77 9z"/>
<path d="M829 2254 c-29 -35 -242 -154 -374 -208 -77 -32 -104 -76 -67 -109
24 -22 45 -21 90 3 20 11 55 28 77 37 22 9 43 19 48 21 4 2 7 -82 7 -187 0
-104 -3 -192 -7 -194 -16 -10 -234 -38 -355 -45 -137 -9 -161 -18 -156 -61 5
-43 39 -53 159 -47 59 4 133 11 165 16 137 24 124 25 124 -12 0 -19 -16 -67
-36 -108 -20 -41 -51 -118 -70 -170 -91 -262 -178 -445 -289 -611 -41 -61 -75
-120 -75 -130 0 -22 26 -49 49 -49 63 0 269 360 381 665 28 77 58 159 66 183
9 23 18 42 21 42 3 0 3 -30 -1 -67 -3 -38 -10 -234 -16 -438 -6 -203 -15 -437
-21 -518 -12 -159 -8 -177 36 -177 69 0 74 50 101 933 3 125 10 229 13 232 4
2 26 -22 49 -53 77 -104 137 -162 169 -162 68 0 69 44 4 116 -64 70 -186 234
-207 277 -12 26 -14 42 -7 63 9 27 14 29 104 42 146 20 250 41 265 53 23 19
17 57 -11 75 -22 14 -34 15 -83 6 -66 -13 -245 -42 -258 -42 -5 0 -8 79 -6
175 2 96 -1 190 -6 208 l-9 33 93 58 c52 32 101 67 109 79 18 26 19 59 3 75
-17 17 -63 15 -79 -4z"/>
<path d="M1869 1395 c-12 -11 -376 -55 -462 -55 -34 0 -59 -5 -66 -14 -8 -9
-13 -98 -16 -277 -2 -145 -8 -324 -14 -397 -12 -143 -6 -177 37 -216 27 -23
56 -24 304 -6 166 12 203 12 238 0 38 -13 42 -12 62 8 25 25 32 115 44 577 7
289 4 343 -22 370 -14 14 -94 22 -105 10z m21 -199 c0 -80 -3 -95 -17 -101
-10 -3 -74 -11 -143 -16 -69 -5 -149 -14 -179 -19 -30 -6 -68 -10 -83 -10
l-29 0 3 93 3 92 85 8 c111 10 324 37 329 43 2 2 10 4 18 4 10 0 13 -22 13
-94z m-4 -283 c-4 -43 -9 -80 -12 -82 -3 -3 -62 -8 -132 -12 -70 -4 -158 -12
-197 -18 -122 -18 -115 -22 -115 62 l0 73 113 17 c61 9 144 18 182 18 39 1 84
5 100 9 69 18 69 18 61 -67z m-10 -245 c-3 -29 -6 -67 -6 -84 l0 -30 -172 -13
c-95 -6 -200 -14 -232 -18 l-59 -6 6 77 c3 43 7 80 9 82 11 11 269 37 422 43
l39 1 -7 -52z"/>
<path d="M1426 358 c-9 -12 -16 -27 -16 -33 0 -21 -72 -95 -110 -115 -85 -43
-121 -95 -88 -128 20 -20 54 -14 110 20 29 17 63 38 75 45 35 21 101 110 112
151 8 28 7 41 -4 59 -20 30 -59 30 -79 1z"/>
<path d="M1772 338 c-20 -20 -13 -56 16 -83 61 -58 271 -185 306 -185 44 0 62
70 24 93 -13 8 -57 33 -98 57 -41 24 -101 63 -132 87 -57 43 -94 53 -116 31z"/>
</g>
</svg>
