<?xml version="1.0" standalone="no"?>
<!DOCTYPE svg PUBLIC "-//W3C//DTD SVG 20010904//EN"
 "http://www.w3.org/TR/2001/REC-SVG-20010904/DTD/svg10.dtd">
<svg version="1.0" xmlns="http://www.w3.org/2000/svg"
 width="248.000000pt" height="248.000000pt" viewBox="0 0 248.000000 248.000000"
 preserveAspectRatio="xMidYMid meet">
<metadata>
Created by potrace 1.10, written by Peter Selinger 2001-2011
</metadata>
<g transform="translate(0.000000,248.000000) scale(0.100000,-0.100000)"
fill="#000000" stroke="none">
<path d="M948 2073 c-9 -10 -43 -74 -77 -143 -33 -69 -74 -145 -91 -170 -32
-48 -38 -78 -18 -98 22 -22 58 -13 89 21 37 40 179 324 179 358 0 47 -51 67
-82 32z"/>
<path d="M222 1968 c-21 -21 -14 -48 43 -167 97 -204 105 -213 149 -193 20 9
26 19 26 42 0 38 -133 315 -155 324 -26 9 -50 7 -63 -6z"/>
<path d="M915 1579 c-49 -10 -119 -23 -155 -29 -36 -7 -146 -31 -245 -55 -284
-69 -313 -75 -337 -75 -61 0 -91 -65 -44 -95 22 -15 32 -14 127 5 57 12 174
38 259 60 85 21 198 46 250 55 293 53 320 62 320 110 0 49 -30 53 -175 24z"/>
</g>
</svg>
