<?xml version="1.0" standalone="no"?>
<!DOCTYPE svg PUBLIC "-//W3C//DTD SVG 20010904//EN"
 "http://www.w3.org/TR/2001/REC-SVG-20010904/DTD/svg10.dtd">
<svg version="1.0" xmlns="http://www.w3.org/2000/svg"
 width="248.000000pt" height="248.000000pt" viewBox="0 0 248.000000 248.000000"
 preserveAspectRatio="xMidYMid meet">
<metadata>
Created by potrace 1.10, written by Peter Selinger 2001-2011
</metadata>
<g transform="translate(0.000000,248.000000) scale(0.100000,-0.100000)"
fill="#000000" stroke="none">
<path d="M566 2268 c-14 -19 -16 -74 -16 -393 l0 -370 -107 -27 c-179 -44
-241 -58 -265 -58 -60 0 -91 -65 -45 -95 26 -17 54 -13 264 34 51 12 97 21
103 21 17 0 -18 -123 -99 -350 -29 -80 -57 -161 -63 -180 -15 -53 -73 -202
-124 -318 -46 -106 -52 -140 -32 -160 17 -17 53 -15 70 5 30 35 122 257 198
478 16 50 43 126 58 170 l27 80 8 -475 c6 -327 12 -483 20 -500 8 -15 22 -26
38 -28 55 -6 54 -24 54 676 l0 645 100 19 c55 10 144 27 198 38 108 20 140 39
135 78 -5 45 -26 47 -159 23 -117 -21 -194 -36 -246 -47 l-23 -4 0 358 c0 388
-2 402 -55 402 -13 0 -31 -10 -39 -22z"/>
<path d="M948 2073 c-9 -10 -43 -74 -77 -143 -33 -69 -74 -145 -91 -170 -32
-48 -38 -78 -18 -98 22 -22 58 -13 89 21 37 40 179 324 179 358 0 47 -51 67
-82 32z"/>
<path d="M222 1968 c-21 -21 -14 -48 43 -167 97 -204 105 -213 149 -193 20 9
26 19 26 42 0 38 -133 315 -155 324 -26 9 -50 7 -63 -6z"/>
</g>
</svg>
