<?xml version="1.0" standalone="no"?>
<!DOCTYPE svg PUBLIC "-//W3C//DTD SVG 20010904//EN"
 "http://www.w3.org/TR/2001/REC-SVG-20010904/DTD/svg10.dtd">
<svg version="1.0" xmlns="http://www.w3.org/2000/svg"
 width="248.000000pt" height="248.000000pt" viewBox="0 0 248.000000 248.000000"
 preserveAspectRatio="xMidYMid meet">
<metadata>
Created by potrace 1.10, written by Peter Selinger 2001-2011
</metadata>
<g transform="translate(0.000000,248.000000) scale(0.100000,-0.100000)"
fill="#000000" stroke="none">
<path d="M1191 2347 c-7 -10 -12 -141 -13 -423 l-3 -409 -85 -13 c-49 -8 -163
-13 -269 -13 -194 1 -211 -3 -211 -44 0 -47 16 -50 264 -48 127 1 247 3 266 5
l35 3 -3 -285 c-2 -157 -8 -334 -14 -394 -11 -108 -11 -110 12 -128 28 -23 32
-22 61 1 l24 19 9 394 c5 271 12 397 20 405 6 6 76 19 156 28 80 9 224 28 320
41 192 27 219 38 206 88 -8 34 -40 41 -119 27 -140 -24 -511 -71 -562 -71 -13
0 -15 46 -15 403 0 300 -3 406 -12 415 -16 16 -53 15 -67 -1z"/>
</g>
</svg>
