<?xml version="1.0" standalone="no"?>
<!DOCTYPE svg PUBLIC "-//W3C//DTD SVG 20010904//EN"
 "http://www.w3.org/TR/2001/REC-SVG-20010904/DTD/svg10.dtd">
<svg version="1.0" xmlns="http://www.w3.org/2000/svg"
 width="248.000000pt" height="248.000000pt" viewBox="0 0 248.000000 248.000000"
 preserveAspectRatio="xMidYMid meet">
<metadata>
Created by potrace 1.10, written by Peter Selinger 2001-2011
</metadata>
<g transform="translate(0.000000,248.000000) scale(0.100000,-0.100000)"
fill="#000000" stroke="none">
<path d="M1835 1599 c-52 -10 -238 -36 -395 -54 -300 -35 -387 -46 -415 -52
-16 -3 -110 -5 -209 -4 -189 1 -206 -2 -206 -44 0 -41 20 -46 202 -51 141 -5
205 -2 343 15 94 12 242 30 330 41 441 54 485 64 485 111 0 44 -45 57 -135 38z"/>
</g>
</svg>
