<?xml version="1.0" standalone="no"?>
<!DOCTYPE svg PUBLIC "-//W3C//DTD SVG 20010904//EN"
 "http://www.w3.org/TR/2001/REC-SVG-20010904/DTD/svg10.dtd">
<svg version="1.0" xmlns="http://www.w3.org/2000/svg"
 width="248.000000pt" height="248.000000pt" viewBox="0 0 248.000000 248.000000"
 preserveAspectRatio="xMidYMid meet">
<metadata>
Created by potrace 1.10, written by Peter Selinger 2001-2011
</metadata>
<g transform="translate(0.000000,248.000000) scale(0.100000,-0.100000)"
fill="#000000" stroke="none">
<path d="M1300 2400 c-11 -11 -20 -31 -20 -44 0 -13 -12 -82 -26 -153 -30
-152 -32 -202 -8 -220 51 -38 70 -9 103 162 46 239 45 231 22 254 -26 26 -46
26 -71 1z"/>
<path d="M900 2390 c-11 -11 -59 -100 -108 -197 -85 -173 -176 -320 -281 -453
-28 -36 -51 -74 -51 -86 0 -28 34 -57 58 -50 21 7 78 71 142 162 l42 59 -6
-115 c-4 -63 -9 -180 -12 -260 -3 -80 -10 -159 -15 -176 -18 -60 23 -110 71
-84 11 6 22 23 26 38 3 15 8 34 11 42 3 8 9 101 14 205 5 105 12 236 15 292 4
68 3 117 -5 145 l-12 43 100 200 c56 110 101 203 101 208 0 13 -40 47 -55 47
-8 0 -24 -9 -35 -20z"/>
</g>
</svg>
