<?xml version="1.0" standalone="no"?>
<!DOCTYPE svg PUBLIC "-//W3C//DTD SVG 20010904//EN"
 "http://www.w3.org/TR/2001/REC-SVG-20010904/DTD/svg10.dtd">
<svg version="1.0" xmlns="http://www.w3.org/2000/svg"
 width="248.000000pt" height="248.000000pt" viewBox="0 0 248.000000 248.000000"
 preserveAspectRatio="xMidYMid meet">
<metadata>
Created by potrace 1.10, written by Peter Selinger 2001-2011
</metadata>
<g transform="translate(0.000000,248.000000) scale(0.100000,-0.100000)"
fill="#000000" stroke="none">
<path d="M1300 2400 c-11 -11 -20 -31 -20 -44 0 -26 -48 -274 -55 -286 -2 -4
-39 -10 -82 -14 -43 -4 -108 -14 -145 -21 -97 -21 -178 -33 -178 -27 0 3 38
83 86 178 70 143 83 177 75 193 -14 25 -45 35 -70 21 -12 -6 -60 -89 -114
-198 -90 -182 -181 -328 -286 -462 -28 -36 -51 -74 -51 -86 0 -28 34 -57 58
-50 21 7 78 71 142 162 l42 59 -6 -115 c-4 -63 -9 -180 -12 -260 -3 -80 -10
-159 -15 -176 -18 -60 23 -110 70 -85 11 6 22 19 25 28 15 50 26 161 26 264 0
64 3 130 6 147 6 28 10 31 58 37 28 3 103 13 166 22 63 9 126 17 139 17 28 1
27 21 11 -263 -6 -99 -5 -161 1 -173 12 -22 61 -24 78 -4 15 18 28 125 30 246
2 147 11 209 30 214 9 3 86 10 171 16 85 6 167 16 183 22 37 14 46 53 19 80
-19 20 -25 20 -134 10 -62 -7 -143 -14 -179 -17 l-67 -6 -3 33 c-2 18 -2 51 1
73 l5 40 140 17 c77 9 182 20 232 24 104 8 126 18 126 59 0 42 -28 58 -88 50
-217 -29 -375 -40 -375 -28 0 5 9 52 19 104 35 169 35 175 12 198 -26 26 -46
26 -71 1z m-108 -472 c2 -18 1 -51 0 -73 l-4 -41 -171 -23 c-95 -12 -180 -25
-189 -27 -16 -5 -18 3 -18 63 l0 69 163 28 c89 15 169 29 177 31 34 7 39 4 42
-27z"/>
</g>
</svg>
