<?xml version="1.0" standalone="no"?>
<!DOCTYPE svg PUBLIC "-//W3C//DTD SVG 20010904//EN"
 "http://www.w3.org/TR/2001/REC-SVG-20010904/DTD/svg10.dtd">
<svg version="1.0" xmlns="http://www.w3.org/2000/svg"
 width="248.000000pt" height="248.000000pt" viewBox="0 0 248.000000 248.000000"
 preserveAspectRatio="xMidYMid meet">
<metadata>
Created by potrace 1.10, written by Peter Selinger 2001-2011
</metadata>
<g transform="translate(0.000000,248.000000) scale(0.100000,-0.100000)"
fill="#000000" stroke="none">
<path d="M1430 2088 c-39 -51 -84 -83 -393 -283 -72 -46 -68 -26 -48 -255 7
-80 16 -343 20 -586 6 -288 12 -447 19 -461 6 -11 19 -24 29 -28 28 -10 396
-21 506 -15 79 5 101 9 117 26 22 22 66 181 101 369 25 135 21 190 -17 226
-26 24 -27 24 -232 21 -186 -2 -347 -14 -394 -28 -14 -4 -17 6 -20 83 -2 48 1
91 5 94 4 3 123 9 262 12 142 3 263 11 274 16 26 14 36 48 77 251 43 214 38
255 -32 272 -25 6 -306 -7 -424 -21 -47 -5 -87 -8 -89 -6 -2 2 12 13 30 24
146 86 279 193 305 243 28 53 13 98 -32 98 -16 0 -36 -17 -64 -52z m230 -400
c0 -21 -60 -301 -65 -306 -4 -4 -475 -21 -482 -18 -3 2 -25 288 -21 291 6 6
251 28 388 35 74 3 145 7 158 8 12 1 22 -4 22 -10z m30 -728 c0 -22 -12 -93
-26 -157 -14 -65 -31 -143 -38 -173 l-12 -55 -59 -6 c-33 -3 -142 -4 -242 -1
l-182 5 -6 41 c-3 23 -5 110 -3 195 l3 155 30 8 c30 9 274 24 443 26 l92 2 0
-40z"/>
</g>
</svg>
