<?xml version="1.0" standalone="no"?>
<!DOCTYPE svg PUBLIC "-//W3C//DTD SVG 20010904//EN"
 "http://www.w3.org/TR/2001/REC-SVG-20010904/DTD/svg10.dtd">
<svg version="1.0" xmlns="http://www.w3.org/2000/svg"
 width="248.000000pt" height="248.000000pt" viewBox="0 0 248.000000 248.000000"
 preserveAspectRatio="xMidYMid meet">
<metadata>
Created by potrace 1.10, written by Peter Selinger 2001-2011
</metadata>
<g transform="translate(0.000000,248.000000) scale(0.100000,-0.100000)"
fill="#000000" stroke="none">
<path d="M936 2398 c-12 -16 -16 -46 -16 -113 0 -49 -4 -96 -9 -104 -9 -15
-124 -29 -241 -31 -83 -1 -115 -16 -115 -55 0 -52 34 -60 199 -47 77 6 142 9
144 8 1 -2 -3 -26 -9 -55 l-11 -51 -101 0 c-125 0 -258 -15 -295 -32 -16 -8
-36 -33 -50 -62 -13 -27 -44 -76 -68 -108 -50 -65 -54 -96 -14 -114 25 -11
316 -3 404 11 49 7 48 1 -28 -128 -40 -67 -75 -113 -116 -149 -60 -52 -73 -81
-48 -106 16 -16 53 -15 87 3 62 31 154 161 245 343 15 28 32 52 39 52 6 0 89
7 182 15 94 8 184 15 202 15 l31 0 4 -106 c3 -91 6 -108 22 -120 25 -18 37
-18 62 0 16 12 19 29 22 124 l4 109 91 6 c51 4 155 11 232 17 76 5 141 7 143
5 5 -5 -95 -194 -116 -217 -14 -17 -17 -17 -48 3 -58 36 -115 12 -101 -42 9
-34 91 -81 141 -81 57 1 92 42 175 204 73 142 84 186 57 224 -13 17 -26 19
-123 17 -99 -2 -287 -15 -406 -29 l-48 -5 3 38 3 38 125 6 c189 8 207 21 275
196 42 106 43 127 9 149 -23 16 -34 16 -107 4 -45 -7 -130 -16 -190 -19 l-107
-6 0 85 c0 96 -15 130 -55 130 -41 0 -55 -34 -55 -136 l0 -92 -122 -6 c-68 -4
-144 -9 -170 -12 l-46 -6 4 99 c6 112 -5 146 -48 151 -18 2 -31 -4 -42 -20z
m823 -305 c-20 -57 -45 -94 -64 -98 -11 -2 -68 -6 -127 -9 l-108 -5 0 60 0 59
73 1 c39 0 95 4 122 9 28 4 65 8 82 9 31 1 32 0 22 -26z m-409 -66 l0 -54
-137 -6 c-75 -4 -156 -7 -181 -7 l-45 0 7 43 c4 23 11 47 17 52 9 10 124 19
272 23 l67 2 0 -53z m0 -196 c0 -27 -3 -29 -52 -35 -111 -12 -340 -28 -344
-23 -3 3 -1 20 4 38 l8 34 80 6 c43 3 130 6 192 7 l112 2 0 -29z m-496 -8
c-16 -74 -4 -69 -212 -79 l-153 -7 22 46 c16 32 30 47 43 48 12 1 82 5 156 8
74 4 138 8 143 9 4 1 5 -10 1 -25z"/>
</g>
</svg>
