<?xml version="1.0" standalone="no"?>
<!DOCTYPE svg PUBLIC "-//W3C//DTD SVG 20010904//EN"
 "http://www.w3.org/TR/2001/REC-SVG-20010904/DTD/svg10.dtd">
<svg version="1.0" xmlns="http://www.w3.org/2000/svg"
 width="248.000000pt" height="248.000000pt" viewBox="0 0 248.000000 248.000000"
 preserveAspectRatio="xMidYMid meet">
<metadata>
Created by potrace 1.10, written by Peter Selinger 2001-2011
</metadata>
<g transform="translate(0.000000,248.000000) scale(0.100000,-0.100000)"
fill="#000000" stroke="none">
<path d="M590 2185 c-7 -9 -15 -76 -20 -177 -5 -90 -12 -207 -16 -262 -7 -98
-7 -98 -38 -111 -52 -22 -324 -85 -364 -85 -43 0 -62 -14 -62 -46 0 -29 35
-54 75 -54 33 0 277 54 322 71 35 13 38 7 15 -38 -11 -21 -25 -56 -32 -78 -20
-64 -170 -352 -234 -450 -32 -50 -82 -121 -111 -160 -61 -82 -65 -92 -54 -123
7 -19 15 -23 41 -20 29 3 43 17 115 113 85 113 216 335 273 462 18 40 37 70
43 66 9 -6 2 -531 -9 -578 -5 -21 -26 -301 -26 -349 -1 -28 23 -56 47 -56 6 0
20 6 30 14 15 11 20 33 27 122 21 289 28 475 28 764 0 173 3 325 6 336 5 19
24 26 126 50 97 23 123 32 135 51 13 19 13 29 5 48 -15 32 -35 32 -159 0 -53
-13 -98 -23 -100 -22 -1 2 2 102 8 223 13 250 13 273 -3 291 -14 17 -53 17
-68 -2z"/>
</g>
</svg>
