<?xml version="1.0" standalone="no"?>
<!DOCTYPE svg PUBLIC "-//W3C//DTD SVG 20010904//EN"
 "http://www.w3.org/TR/2001/REC-SVG-20010904/DTD/svg10.dtd">
<svg version="1.0" xmlns="http://www.w3.org/2000/svg"
 width="248.000000pt" height="248.000000pt" viewBox="0 0 248.000000 248.000000"
 preserveAspectRatio="xMidYMid meet">
<metadata>
Created by potrace 1.10, written by Peter Selinger 2001-2011
</metadata>
<g transform="translate(0.000000,248.000000) scale(0.100000,-0.100000)"
fill="#000000" stroke="none">
<path d="M590 2185 c-7 -9 -15 -76 -20 -177 -5 -90 -12 -207 -16 -262 -7 -98
-7 -98 -38 -111 -52 -22 -324 -85 -364 -85 -43 0 -62 -14 -62 -46 0 -29 35
-54 75 -54 17 0 89 14 161 30 203 48 188 46 181 24 -57 -183 -230 -505 -382
-709 -61 -82 -65 -92 -54 -123 7 -19 15 -23 41 -20 29 3 43 17 115 113 85 113
216 335 273 462 18 40 37 70 43 66 9 -6 2 -531 -9 -578 -5 -21 -26 -301 -26
-349 -1 -28 23 -56 47 -56 6 0 20 6 30 14 15 11 20 33 27 122 20 277 28 468
28 697 0 144 4 247 9 247 5 0 22 -11 38 -23 43 -36 140 -96 184 -114 49 -19
87 -11 95 22 8 33 -4 46 -79 84 -55 28 -198 128 -235 165 -28 28 -2 43 120 72
97 23 123 32 135 51 13 19 13 29 5 48 -15 32 -35 32 -159 0 -53 -13 -98 -23
-100 -22 -1 2 2 102 8 223 13 250 13 273 -3 291 -14 17 -53 17 -68 -2z"/>
<path d="M1715 2030 c-302 -52 -420 -70 -442 -70 -33 0 -66 -36 -57 -63 3 -12
13 -29 20 -38 22 -25 19 -131 -10 -384 -30 -264 -56 -426 -93 -575 -26 -108
-113 -324 -158 -391 -39 -60 -30 -109 20 -109 31 0 57 33 112 145 116 234 164
429 213 880 11 105 23 196 26 204 7 21 6 204 -1 223 -5 13 16 19 137 37 79 12
176 29 217 37 40 7 84 14 98 14 23 0 25 -3 20 -32 -65 -350 -76 -472 -77 -813
-1 -309 22 -445 92 -557 83 -133 187 -177 418 -178 75 0 90 3 122 25 50 34 59
54 65 140 5 84 -6 115 -41 115 -35 0 -53 -29 -58 -93 -7 -83 -19 -93 -121 -90
-114 4 -179 19 -226 54 -49 35 -95 105 -116 177 -69 233 -55 735 32 1147 38
180 39 190 12 209 -13 9 -26 16 -29 15 -3 0 -81 -13 -175 -29z"/>
</g>
</svg>
