<?xml version="1.0" standalone="no"?>
<!DOCTYPE svg PUBLIC "-//W3C//DTD SVG 20010904//EN"
 "http://www.w3.org/TR/2001/REC-SVG-20010904/DTD/svg10.dtd">
<svg version="1.0" xmlns="http://www.w3.org/2000/svg"
 width="248.000000pt" height="248.000000pt" viewBox="0 0 248.000000 248.000000"
 preserveAspectRatio="xMidYMid meet">
<metadata>
Created by potrace 1.10, written by Peter Selinger 2001-2011
</metadata>
<g transform="translate(0.000000,248.000000) scale(0.100000,-0.100000)"
fill="#000000" stroke="none">
<path d="M1430 2370 c-371 -18 -869 -55 -920 -69 -45 -13 -49 -40 -34 -221 8
-90 20 -176 27 -190 17 -35 61 -39 82 -7 14 21 14 39 5 133 -15 164 -14 181
13 187 12 3 85 10 162 16 77 6 161 13 187 16 l47 4 5 -42 c25 -228 35 -282 52
-294 23 -17 36 -16 59 1 23 17 24 48 6 209 -7 66 -10 122 -6 125 11 11 190 20
589 28 l379 7 -6 -44 c-3 -24 -19 -89 -35 -144 -25 -84 -28 -103 -17 -120 16
-27 57 -31 77 -8 34 37 97 306 84 357 -3 14 -18 34 -33 43 -24 16 -57 18 -288
19 -143 1 -339 -2 -435 -6z"/>
</g>
</svg>
