<?xml version="1.0" standalone="no"?>
<!DOCTYPE svg PUBLIC "-//W3C//DTD SVG 20010904//EN"
 "http://www.w3.org/TR/2001/REC-SVG-20010904/DTD/svg10.dtd">
<svg version="1.0" xmlns="http://www.w3.org/2000/svg"
 width="248.000000pt" height="248.000000pt" viewBox="0 0 248.000000 248.000000"
 preserveAspectRatio="xMidYMid meet">
<metadata>
Created by potrace 1.10, written by Peter Selinger 2001-2011
</metadata>
<g transform="translate(0.000000,248.000000) scale(0.100000,-0.100000)"
fill="#000000" stroke="none">
<path d="M1425 2369 c-372 -17 -863 -54 -915 -68 -45 -13 -49 -40 -34 -210 17
-192 19 -202 52 -234 34 -33 38 -33 192 -24 338 20 326 20 313 6 -9 -9 -13
-56 -13 -160 l0 -146 -112 -7 c-113 -6 -257 -18 -483 -37 -131 -11 -165 -25
-165 -64 0 -46 34 -57 146 -45 148 14 344 29 482 37 l124 6 -7 -104 c-4 -57
-8 -105 -9 -106 -1 -1 -82 -7 -181 -13 -328 -20 -494 -38 -523 -56 -30 -20
-29 -59 3 -80 19 -12 36 -15 68 -9 78 14 615 51 622 43 6 -6 -10 -227 -17
-233 -3 -3 -93 -10 -199 -16 -422 -21 -479 -26 -500 -45 -21 -19 -25 -54 -7
-72 15 -15 130 -16 300 -3 68 6 184 12 259 16 l137 5 -5 -47 c-18 -187 -89
-406 -162 -497 -47 -59 -38 -106 20 -106 63 0 168 200 214 409 35 156 51 290
74 616 6 83 16 213 22 290 6 77 10 197 8 266 -3 108 -7 130 -23 148 -11 12
-17 23 -15 25 2 2 80 7 173 10 151 7 168 6 157 -8 -10 -12 -13 -198 -13 -870
-1 -782 1 -857 16 -881 19 -28 57 -33 76 -9 16 19 26 1353 13 1614 -5 91 -8
166 -7 168 1 1 131 10 290 20 l289 17 22 45 c33 67 76 237 77 307 1 72 -11 90
-70 103 -46 11 -436 10 -689 -1z m655 -121 c0 -28 -48 -210 -58 -220 -4 -4
-117 -14 -252 -23 -135 -9 -255 -18 -267 -21 -20 -5 -21 -4 -12 33 5 21 9 55
9 77 0 21 5 67 12 102 10 56 14 63 37 67 14 2 140 5 279 6 l252 1 0 -22z
m-670 -15 c0 -16 -5 -46 -10 -68 -5 -22 -10 -72 -11 -111 l-3 -72 -50 -6 c-28
-3 -83 -6 -123 -6 -60 0 -73 3 -77 18 -10 32 -28 244 -21 250 6 7 125 16 243
20 51 2 52 1 52 -25z m-406 -35 c2 -24 10 -85 16 -137 6 -51 9 -96 6 -98 -2
-3 -87 -9 -188 -14 -101 -5 -195 -11 -210 -13 -34 -7 -35 -3 -43 145 -7 109
-6 117 11 122 11 3 89 11 174 17 138 10 174 13 217 19 7 0 14 -17 17 -41z"/>
</g>
</svg>
