<?xml version="1.0" standalone="no"?>
<!DOCTYPE svg PUBLIC "-//W3C//DTD SVG 20010904//EN"
 "http://www.w3.org/TR/2001/REC-SVG-20010904/DTD/svg10.dtd">
<svg version="1.0" xmlns="http://www.w3.org/2000/svg"
 width="248.000000pt" height="248.000000pt" viewBox="0 0 248.000000 248.000000"
 preserveAspectRatio="xMidYMid meet">
<metadata>
Created by potrace 1.10, written by Peter Selinger 2001-2011
</metadata>
<g transform="translate(0.000000,248.000000) scale(0.100000,-0.100000)"
fill="#000000" stroke="none">
<path d="M1419 2218 c-17 -18 -60 -78 -96 -133 -36 -55 -91 -138 -121 -184
-68 -102 -200 -250 -389 -437 -147 -146 -165 -174 -128 -204 27 -22 63 -1 173
105 227 218 400 422 502 594 24 40 70 108 102 149 32 42 58 82 58 89 0 18 -37
53 -56 53 -8 0 -29 -15 -45 -32z"/>
<path d="M306 2011 c-46 -18 -39 -74 13 -100 64 -32 165 -92 214 -127 52 -37
77 -42 101 -18 33 33 12 65 -81 124 -204 130 -213 134 -247 121z"/>
<path d="M621 983 c-12 -15 -61 -86 -108 -158 -129 -196 -199 -292 -280 -381
-72 -80 -85 -108 -61 -132 37 -37 113 19 221 163 98 130 306 444 313 472 15
59 -47 85 -85 36z"/>
</g>
</svg>
