<?xml version="1.0" standalone="no"?>
<!DOCTYPE svg PUBLIC "-//W3C//DTD SVG 20010904//EN"
 "http://www.w3.org/TR/2001/REC-SVG-20010904/DTD/svg10.dtd">
<svg version="1.0" xmlns="http://www.w3.org/2000/svg"
 width="248.000000pt" height="248.000000pt" viewBox="0 0 248.000000 248.000000"
 preserveAspectRatio="xMidYMid meet">
<metadata>
Created by potrace 1.10, written by Peter Selinger 2001-2011
</metadata>
<g transform="translate(0.000000,248.000000) scale(0.100000,-0.100000)"
fill="#000000" stroke="none">
<path d="M1430 2369 c-357 -16 -868 -54 -920 -68 -45 -13 -49 -40 -34 -210 17
-198 19 -204 61 -241 27 -24 41 -30 62 -25 20 4 364 24 430 25 11 0 11 -3 2
-14 -7 -9 -12 -43 -11 -83 1 -37 1 -102 1 -144 l-1 -76 -107 -7 c-123 -7 -313
-22 -488 -37 -136 -12 -168 -25 -163 -67 5 -43 39 -53 144 -42 126 13 337 29
483 37 l124 6 -6 -69 c-4 -38 -7 -85 -7 -106 l0 -36 -117 -6 c-65 -3 -170 -11
-233 -16 -356 -32 -380 -37 -380 -84 0 -52 22 -56 225 -38 171 16 486 35 491
30 2 -3 -1 -65 -6 -139 -27 -379 -90 -628 -189 -753 -47 -59 -38 -106 20 -106
40 0 97 78 148 200 77 185 112 392 141 835 6 94 15 214 21 268 19 203 8 437
-21 437 -6 0 -10 4 -10 8 0 4 105 14 233 21 127 7 351 20 497 29 l265 17 23
45 c26 54 70 222 79 300 7 67 -12 96 -72 110 -46 11 -431 10 -685 -1z m647
-141 c-4 -24 -17 -79 -29 -123 l-23 -80 -65 -7 c-36 -3 -146 -12 -245 -18 -99
-6 -192 -13 -207 -17 -26 -5 -26 -5 -17 33 5 22 9 56 9 78 0 21 5 67 12 102
10 56 14 63 37 67 14 2 140 5 280 6 l254 1 -6 -42z m-667 8 c0 -13 -4 -47 -10
-75 -5 -29 -10 -81 -11 -116 l-2 -63 -51 -6 c-28 -3 -83 -6 -123 -6 -60 0 -73
3 -77 18 -10 32 -28 244 -21 250 6 7 125 16 243 20 49 2 52 0 52 -22z m-406
-38 c2 -24 10 -85 16 -137 6 -51 9 -96 6 -98 -2 -3 -85 -9 -183 -14 -98 -4
-192 -11 -210 -14 -39 -7 -40 -6 -48 146 l-7 116 23 6 c13 3 87 11 164 17 139
10 199 15 222 18 7 1 14 -16 17 -40z"/>
</g>
</svg>
