<?xml version="1.0" standalone="no"?>
<!DOCTYPE svg PUBLIC "-//W3C//DTD SVG 20010904//EN"
 "http://www.w3.org/TR/2001/REC-SVG-20010904/DTD/svg10.dtd">
<svg version="1.0" xmlns="http://www.w3.org/2000/svg"
 width="248.000000pt" height="248.000000pt" viewBox="0 0 248.000000 248.000000"
 preserveAspectRatio="xMidYMid meet">
<metadata>
Created by potrace 1.10, written by Peter Selinger 2001-2011
</metadata>
<g transform="translate(0.000000,248.000000) scale(0.100000,-0.100000)"
fill="#000000" stroke="none">
<path d="M1395 2191 c-25 -33 -81 -116 -124 -185 -44 -69 -96 -147 -116 -173
-60 -79 -311 -346 -401 -429 -67 -60 -84 -82 -84 -104 0 -34 22 -54 53 -46 32
8 164 132 335 316 148 159 219 250 310 400 28 47 62 98 75 114 l24 29 29 -39
c93 -124 253 -310 331 -384 119 -113 443 -320 501 -320 44 0 56 53 20 87 -13
11 -43 31 -68 43 -25 12 -99 56 -165 97 -176 110 -350 286 -558 564 -83 111
-97 113 -162 30z"/>
<path d="M306 2011 c-46 -18 -39 -74 13 -100 64 -32 165 -92 214 -127 52 -37
77 -42 101 -18 34 33 7 72 -86 128 -35 21 -90 56 -123 76 -69 43 -92 51 -119
41z"/>
<path d="M1310 1536 c-28 -35 -8 -57 160 -167 91 -60 171 -111 178 -115 21
-11 60 5 67 27 13 41 -11 62 -234 203 -106 67 -147 79 -171 52z"/>
<path d="M621 983 c-12 -15 -61 -86 -108 -158 -129 -196 -199 -292 -280 -381
-72 -80 -85 -108 -61 -132 37 -37 113 19 221 163 98 130 306 444 313 472 15
59 -47 85 -85 36z"/>
</g>
</svg>
