<?xml version="1.0" standalone="no"?>
<!DOCTYPE svg PUBLIC "-//W3C//DTD SVG 20010904//EN"
 "http://www.w3.org/TR/2001/REC-SVG-20010904/DTD/svg10.dtd">
<svg version="1.0" xmlns="http://www.w3.org/2000/svg"
 width="248.000000pt" height="248.000000pt" viewBox="0 0 248.000000 248.000000"
 preserveAspectRatio="xMidYMid meet">
<metadata>
Created by potrace 1.10, written by Peter Selinger 2001-2011
</metadata>
<g transform="translate(0.000000,248.000000) scale(0.100000,-0.100000)"
fill="#000000" stroke="none">
<path d="M1627 2368 c-8 -13 -20 -57 -26 -98 -7 -41 -14 -76 -16 -79 -3 -2
-53 -8 -112 -12 -180 -13 -353 -29 -441 -41 -46 -5 -85 -8 -88 -5 -2 2 -11 46
-18 96 -8 50 -20 98 -26 106 -16 20 -54 19 -71 -1 -14 -18 -14 -111 0 -176 6
-24 5 -40 -1 -44 -6 -4 -67 -11 -136 -16 -70 -5 -138 -15 -152 -21 -35 -17
-39 -61 -7 -82 22 -14 39 -14 143 -5 66 6 133 13 150 16 31 6 31 5 42 -48 5
-29 8 -56 6 -59 -2 -4 -40 -9 -84 -11 -65 -4 -85 -9 -102 -25 -20 -20 -20 -25
-9 -145 23 -245 39 -358 51 -373 20 -24 63 -15 78 17 10 21 11 48 4 108 -4 44
-8 81 -8 81 1 1 60 5 131 9 72 4 218 15 325 23 297 24 490 31 490 19 0 -6 -5
-45 -11 -87 -9 -65 -8 -80 6 -101 17 -27 56 -32 74 -11 6 8 20 72 31 143 11
71 24 144 29 162 15 50 24 166 17 206 -10 54 -40 68 -157 74 -54 3 -99 8 -99
12 0 20 25 77 38 88 9 7 45 12 86 12 100 0 262 25 291 44 28 19 33 57 10 76
-13 10 -40 11 -138 1 -67 -6 -146 -14 -176 -17 l-54 -4 8 52 c12 73 10 105 -5
123 -19 22 -57 19 -73 -7z m-77 -294 c0 -3 -5 -24 -11 -48 l-10 -42 -107 -13
c-59 -7 -167 -21 -240 -32 -177 -25 -198 -25 -206 4 -3 12 -6 36 -6 54 l0 31
68 6 c37 4 114 11 172 17 58 6 155 14 215 18 61 5 113 9 118 10 4 0 7 -2 7 -5z
m240 -236 c0 -24 -3 -59 -6 -79 l-6 -37 -147 -7 c-80 -4 -227 -13 -326 -21
-214 -17 -507 -35 -511 -32 -1 2 -5 28 -9 59 l-7 56 84 11 c45 7 157 22 248
36 300 43 389 51 568 54 l112 2 0 -42z"/>
</g>
</svg>
