<?xml version="1.0" standalone="no"?>
<!DOCTYPE svg PUBLIC "-//W3C//DTD SVG 20010904//EN"
 "http://www.w3.org/TR/2001/REC-SVG-20010904/DTD/svg10.dtd">
<svg version="1.0" xmlns="http://www.w3.org/2000/svg"
 width="248.000000pt" height="248.000000pt" viewBox="0 0 248.000000 248.000000"
 preserveAspectRatio="xMidYMid meet">
<metadata>
Created by potrace 1.10, written by Peter Selinger 2001-2011
</metadata>
<g transform="translate(0.000000,248.000000) scale(0.100000,-0.100000)"
fill="#000000" stroke="none">
<path d="M1630 2375 c-7 -9 -19 -52 -26 -96 -7 -45 -15 -84 -19 -87 -3 -3 -81
-11 -173 -18 -172 -13 -342 -29 -423 -40 -53 -7 -52 -10 -65 111 -3 33 -12 70
-20 83 -17 26 -56 29 -75 6 -14 -18 -14 -111 0 -176 5 -22 5 -40 0 -44 -5 -3
-69 -10 -142 -15 -144 -12 -177 -23 -177 -64 0 -47 33 -56 161 -45 63 5 130
12 150 16 l36 6 9 -48 c4 -27 8 -53 9 -59 0 -5 -37 -13 -83 -16 -118 -9 -126
-18 -117 -132 4 -49 15 -159 25 -244 24 -205 18 -198 185 -197 l125 1 -6 -26
c-8 -31 -48 -107 -73 -138 -17 -20 -32 -23 -182 -33 -90 -5 -218 -10 -284 -10
-137 0 -169 -11 -163 -58 6 -49 32 -54 258 -47 112 3 214 8 227 11 13 4 23 2
23 -4 0 -12 -219 -215 -280 -259 -252 -182 -271 -201 -240 -239 30 -36 79 -15
218 94 47 36 100 76 120 90 56 38 223 196 281 266 l52 63 107 7 c59 3 194 11
300 16 l192 10 43 -33 c63 -48 197 -159 197 -163 0 -2 -13 -1 -29 2 -17 4 -74
1 -128 -5 -54 -6 -165 -14 -247 -17 -144 -7 -149 -6 -142 12 4 10 10 43 13 71
6 59 -6 83 -42 83 -31 0 -50 -27 -64 -93 -18 -85 -22 -87 -164 -87 -135 0
-167 -11 -167 -55 0 -45 36 -57 160 -53 60 1 110 0 110 -5 0 -18 -98 -186
-130 -222 -20 -22 -49 -58 -64 -79 -16 -21 -64 -76 -108 -122 -43 -46 -78 -92
-78 -102 0 -23 30 -52 54 -52 21 0 104 78 171 160 28 34 70 86 96 115 46 55
153 240 164 286 l6 25 212 13 c117 7 231 15 255 18 l43 5 -15 -38 c-45 -121
-71 -183 -88 -219 -52 -103 -123 -217 -167 -266 l-49 -54 -59 63 c-32 34 -66
62 -76 62 -21 0 -57 -35 -57 -55 0 -14 77 -107 127 -153 29 -26 83 -29 121 -6
57 34 162 184 244 347 68 136 142 346 131 373 -8 22 13 10 102 -60 74 -58 299
-200 334 -211 44 -14 82 35 55 73 -7 10 -62 47 -121 82 -59 35 -124 76 -143
92 -19 15 -63 49 -97 75 -105 81 -235 195 -228 201 3 3 102 9 219 12 231 5
246 9 246 60 0 53 -8 54 -293 46 -144 -3 -271 -9 -283 -12 -16 -4 -38 9 -90
55 -72 64 -107 81 -133 64 -30 -19 -25 -61 11 -97 l33 -33 -123 -7 c-68 -3
-158 -9 -200 -13 l-76 -6 15 24 c25 38 49 120 43 144 -6 22 -4 23 133 29 76 3
172 10 213 15 41 5 127 13 190 16 63 4 130 11 147 17 38 11 45 31 63 168 6 47
17 110 25 140 19 75 29 181 21 224 -10 54 -40 68 -157 74 -54 3 -99 7 -99 10
0 2 5 23 12 44 14 47 35 58 116 58 92 1 260 26 287 44 28 19 33 57 10 76 -13
10 -40 11 -138 1 -243 -23 -227 -23 -227 -2 0 10 5 42 10 71 8 43 7 58 -5 77
-18 26 -56 31 -75 8z m-80 -301 c0 -3 -5 -24 -11 -48 l-10 -42 -107 -13 c-59
-7 -167 -21 -240 -32 -177 -25 -198 -25 -206 4 -8 31 -7 87 2 87 4 0 59 5 122
11 63 6 187 16 275 23 88 8 163 14 168 15 4 0 7 -2 7 -5z m238 -263 c-3 -37
-8 -73 -11 -79 -4 -5 -71 -13 -149 -17 -79 -4 -224 -13 -323 -21 -215 -17
-507 -35 -511 -32 -1 2 -5 28 -9 59 l-7 56 84 11 c45 6 144 20 218 31 304 45
420 56 599 59 l114 2 -5 -69z m-42 -238 c-3 -21 -6 -50 -6 -64 0 -26 -2 -26
-87 -33 -49 -4 -124 -11 -168 -16 -103 -12 -464 -33 -580 -34 l-90 -1 -6 60
c-3 33 -4 62 -2 64 2 3 61 8 131 12 70 4 217 14 327 23 203 16 281 21 414 24
l74 2 -7 -37z"/>
</g>
</svg>
