<?xml version="1.0" standalone="no"?>
<!DOCTYPE svg PUBLIC "-//W3C//DTD SVG 20010904//EN"
 "http://www.w3.org/TR/2001/REC-SVG-20010904/DTD/svg10.dtd">
<svg version="1.0" xmlns="http://www.w3.org/2000/svg"
 width="248.000000pt" height="248.000000pt" viewBox="0 0 248.000000 248.000000"
 preserveAspectRatio="xMidYMid meet">
<metadata>
Created by potrace 1.10, written by Peter Selinger 2001-2011
</metadata>
<g transform="translate(0.000000,248.000000) scale(0.100000,-0.100000)"
fill="#000000" stroke="none">
<path d="M984 2179 c-148 -150 -332 -309 -449 -389 -80 -55 -95 -71 -95 -102
0 -21 7 -32 25 -40 22 -10 32 -7 83 27 136 93 338 261 486 407 l160 157 246
-6 c135 -3 247 -7 249 -9 2 -2 -14 -29 -35 -61 -46 -68 -219 -240 -356 -355
-81 -67 -98 -87 -98 -109 0 -41 30 -54 74 -34 69 33 362 306 443 413 30 40 72
93 94 118 42 48 49 83 23 108 -12 12 -38 16 -117 16 -129 1 -410 9 -503 15
l-72 5 -158 -161z"/>
</g>
</svg>
