<?xml version="1.0" standalone="no"?>
<!DOCTYPE svg PUBLIC "-//W3C//DTD SVG 20010904//EN"
 "http://www.w3.org/TR/2001/REC-SVG-20010904/DTD/svg10.dtd">
<svg version="1.0" xmlns="http://www.w3.org/2000/svg"
 width="248.000000pt" height="248.000000pt" viewBox="0 0 248.000000 248.000000"
 preserveAspectRatio="xMidYMid meet">
<metadata>
Created by potrace 1.10, written by Peter Selinger 2001-2011
</metadata>
<g transform="translate(0.000000,248.000000) scale(0.100000,-0.100000)"
fill="#000000" stroke="none">
<path d="M984 2179 c-148 -150 -332 -309 -449 -389 -80 -55 -95 -71 -95 -102
0 -21 7 -32 25 -40 22 -10 32 -7 83 27 136 93 338 261 486 407 l160 157 246
-6 c135 -3 247 -7 249 -9 2 -2 -14 -29 -35 -61 -67 -99 -407 -417 -458 -428
-47 -10 -249 -35 -364 -45 -213 -19 -212 -19 -210 -204 1 -141 -15 -356 -53
-686 -11 -96 -22 -200 -25 -230 -3 -30 -20 -107 -36 -170 -40 -150 -43 -167
-28 -185 20 -24 57 -18 76 11 25 38 80 251 88 341 4 43 16 148 26 233 10 85
22 200 25 255 8 124 10 132 39 139 22 5 363 46 388 46 8 0 9 -37 4 -139 -7
-150 -2 -166 46 -159 35 5 45 39 53 178 l7 128 31 6 c18 3 118 10 222 16 105
7 220 17 256 24 l66 12 9 -411 c10 -485 10 -542 0 -618 l-8 -58 -54 30 c-58
33 -83 38 -102 19 -36 -36 -2 -78 111 -142 75 -42 89 -44 115 -16 36 39 45
169 35 508 -4 169 -8 372 -8 452 0 195 15 564 25 619 9 50 0 85 -25 95 -39 15
-347 2 -465 -19 -33 -6 -26 3 102 127 75 73 160 165 189 203 29 39 67 87 86
108 36 40 42 76 17 101 -12 12 -38 16 -117 16 -129 1 -410 9 -503 15 l-72 5
-158 -161z m842 -492 c3 -3 2 -73 -2 -156 -7 -141 -8 -151 -26 -145 -10 3
-127 -2 -261 -12 -133 -9 -255 -17 -272 -18 l-30 -1 -2 141 -2 141 72 7 c40 3
110 13 157 21 143 25 351 38 366 22z m-694 -104 c3 -21 6 -82 7 -136 2 -72 -1
-98 -11 -102 -11 -4 -75 -11 -355 -42 l-53 -6 0 142 c0 77 2 141 5 141 28 0
330 32 334 35 2 3 19 5 37 5 29 0 32 -3 36 -37z"/>
</g>
</svg>
