<?xml version="1.0" standalone="no"?>
<!DOCTYPE svg PUBLIC "-//W3C//DTD SVG 20010904//EN"
 "http://www.w3.org/TR/2001/REC-SVG-20010904/DTD/svg10.dtd">
<svg version="1.0" xmlns="http://www.w3.org/2000/svg"
 width="248.000000pt" height="248.000000pt" viewBox="0 0 248.000000 248.000000"
 preserveAspectRatio="xMidYMid meet">
<metadata>
Created by potrace 1.10, written by Peter Selinger 2001-2011
</metadata>
<g transform="translate(0.000000,248.000000) scale(0.100000,-0.100000)"
fill="#000000" stroke="none">
<path d="M984 2179 c-148 -150 -332 -309 -449 -389 -80 -55 -95 -71 -95 -102
0 -21 7 -32 25 -40 22 -10 32 -7 83 27 136 93 338 261 486 407 l160 157 246
-6 c135 -3 247 -7 249 -9 2 -2 -14 -29 -35 -61 -67 -99 -407 -417 -458 -428
-47 -10 -249 -35 -364 -45 -213 -19 -212 -19 -210 -204 1 -141 -15 -356 -53
-686 -11 -96 -22 -200 -25 -230 -3 -30 -20 -107 -36 -170 -17 -63 -33 -127
-36 -143 -10 -59 55 -80 87 -27 29 48 80 264 91 390 6 63 13 132 17 152 6 41
8 42 128 53 39 3 95 10 125 15 30 5 93 12 140 15 47 4 132 11 190 16 117 10
465 12 522 3 l36 -6 6 -77 c10 -124 11 -462 2 -519 l-8 -53 -54 31 c-58 32
-83 37 -102 18 -36 -36 -2 -78 111 -142 75 -42 89 -44 115 -16 36 39 45 169
35 508 -4 169 -8 372 -8 452 0 195 15 564 25 619 9 50 0 85 -25 95 -39 15
-347 2 -465 -19 -33 -6 -26 3 102 127 75 73 160 165 189 203 29 39 67 87 86
108 36 40 42 76 17 101 -12 12 -38 16 -117 16 -129 1 -410 9 -503 15 l-72 5
-158 -161z m842 -492 c3 -3 2 -73 -2 -156 -7 -141 -8 -151 -26 -145 -10 3
-127 -2 -261 -12 -133 -9 -255 -17 -272 -18 l-30 -1 -2 141 -2 141 72 7 c40 3
110 13 157 21 143 25 351 38 366 22z m-694 -104 c3 -21 6 -82 7 -136 2 -72 -1
-98 -11 -102 -11 -4 -75 -11 -355 -42 l-53 -6 0 142 c0 77 2 141 5 141 28 0
330 32 334 35 2 3 19 5 37 5 29 0 32 -3 36 -37z m673 -590 l-5 -22 -293 -1
-292 0 9 137 c4 76 10 140 12 142 2 2 99 10 216 18 117 8 245 20 283 26 l70
12 3 -145 c1 -80 0 -155 -3 -167z m-678 110 c-4 -75 -9 -138 -11 -141 -3 -2
-51 -8 -108 -13 -57 -5 -132 -13 -168 -19 -36 -5 -85 -10 -109 -10 l-44 0 7
118 c4 64 9 125 12 134 3 10 20 20 42 24 45 9 316 41 356 43 l29 1 -6 -137z"/>
</g>
</svg>
