<?xml version="1.0" standalone="no"?>
<!DOCTYPE svg PUBLIC "-//W3C//DTD SVG 20010904//EN"
 "http://www.w3.org/TR/2001/REC-SVG-20010904/DTD/svg10.dtd">
<svg version="1.0" xmlns="http://www.w3.org/2000/svg"
 width="248.000000pt" height="248.000000pt" viewBox="0 0 248.000000 248.000000"
 preserveAspectRatio="xMidYMid meet">
<metadata>
Created by potrace 1.10, written by Peter Selinger 2001-2011
</metadata>
<g transform="translate(0.000000,248.000000) scale(0.100000,-0.100000)"
fill="#000000" stroke="none">
<path d="M1455 2387 c-12 -18 -17 -64 -23 -183 l-7 -159 -60 -7 c-33 -4 -118
-12 -188 -17 -133 -10 -157 -18 -157 -56 0 -53 73 -64 264 -40 71 8 131 14
133 11 3 -2 2 -49 -2 -104 l-7 -100 -87 -12 c-47 -7 -117 -19 -156 -27 -38 -8
-101 -19 -140 -24 -121 -18 -130 -30 -110 -155 8 -49 24 -159 35 -244 12 -85
24 -163 27 -173 5 -19 81 -60 94 -51 13 8 223 34 276 34 l53 0 0 -108 0 -107
-237 -29 c-310 -37 -412 -53 -430 -67 -8 -7 -13 -24 -11 -38 6 -51 27 -52 348
-10 162 21 303 38 313 38 16 1 17 -15 17 -198 0 -116 4 -211 11 -229 12 -35
39 -48 68 -33 26 14 32 46 30 166 0 55 0 146 0 202 l1 102 33 6 c45 7 551 27
673 25 113 -1 138 10 132 59 -6 47 -34 53 -233 46 -256 -8 -385 -14 -502 -21
l-101 -6 -4 73 c-2 41 -2 90 0 110 l3 36 92 7 c51 4 155 11 231 15 150 8 166
15 166 68 0 13 7 38 16 54 8 17 31 81 51 142 106 338 109 370 33 401 -34 14
-64 14 -227 5 -184 -10 -303 -22 -337 -35 -14 -5 -16 5 -16 90 0 82 3 97 18
105 10 5 83 19 163 30 188 27 249 39 266 52 20 18 16 57 -9 73 -21 13 -44 11
-221 -16 -109 -16 -200 -28 -201 -26 -1 1 0 68 4 148 7 163 1 193 -42 198 -19
2 -31 -3 -43 -21z m595 -703 c0 -16 -43 -150 -51 -161 -6 -6 -55 -14 -117 -17
-95 -6 -174 -14 -319 -32 l-43 -5 0 89 0 89 68 12 c119 21 462 40 462 25z
m-640 -138 l0 -84 -42 -6 c-67 -9 -331 -36 -333 -33 -1 1 -6 33 -11 70 -10 64
-9 68 10 71 12 2 50 10 86 17 36 7 112 20 170 29 58 10 108 18 113 19 4 0 7
-37 7 -83z m544 -173 c-3 -16 -18 -54 -32 -85 -25 -58 -25 -58 -68 -58 -23 0
-76 -4 -116 -9 -40 -5 -108 -12 -152 -15 l-79 -5 7 82 c3 45 6 82 6 83 0 0 60
6 133 13 72 7 141 14 152 15 11 2 50 4 88 5 l67 1 -6 -27z m-545 -92 c-2 -44
-6 -82 -9 -84 -3 -3 -72 -13 -154 -22 -82 -9 -154 -17 -160 -18 -14 -3 -42
141 -30 153 5 5 79 17 164 25 85 9 160 18 165 20 24 9 27 1 24 -74z"/>
<path d="M292 1888 c-7 -7 -12 -22 -12 -34 0 -29 117 -122 214 -171 l68 -34
-27 -29 c-44 -46 -20 -101 38 -86 15 3 48 26 73 50 39 38 45 49 42 77 -3 32
-10 38 -98 86 -52 28 -112 64 -133 80 -22 15 -53 38 -69 51 -34 24 -77 29 -96
10z"/>
<path d="M565 1191 c-11 -5 -54 -16 -95 -26 -107 -24 -321 -85 -350 -99 -28
-13 -38 -50 -20 -72 19 -22 78 -17 206 21 65 19 124 35 131 35 9 0 5 -16 -12
-50 -14 -27 -30 -72 -36 -100 -14 -65 5 -128 67 -221 24 -37 44 -72 44 -78 0
-22 -83 -102 -132 -126 -43 -21 -63 -25 -147 -25 -107 0 -141 -13 -141 -55 0
-34 35 -52 105 -55 182 -6 328 -20 495 -47 85 -13 157 -26 160 -28 3 -2 44
-10 90 -19 47 -8 153 -29 235 -46 83 -18 168 -33 190 -35 22 -2 60 -6 85 -9
25 -4 83 -8 130 -11 47 -4 114 -8 150 -10 220 -15 267 -14 438 10 95 13 185
30 199 37 36 18 51 43 37 65 -20 32 -39 37 -96 25 -162 -36 -333 -49 -503 -38
-360 22 -415 28 -730 91 -298 60 -498 95 -539 95 -32 0 -33 11 -4 36 11 10 34
39 50 63 39 62 37 110 -7 181 -61 98 -75 129 -75 165 0 49 39 122 110 204 60
70 71 96 48 119 -14 14 -53 15 -83 3z"/>
</g>
</svg>
