<?xml version="1.0" standalone="no"?>
<!DOCTYPE svg PUBLIC "-//W3C//DTD SVG 20010904//EN"
 "http://www.w3.org/TR/2001/REC-SVG-20010904/DTD/svg10.dtd">
<svg version="1.0" xmlns="http://www.w3.org/2000/svg"
 width="248.000000pt" height="248.000000pt" viewBox="0 0 248.000000 248.000000"
 preserveAspectRatio="xMidYMid meet">
<metadata>
Created by potrace 1.10, written by Peter Selinger 2001-2011
</metadata>
<g transform="translate(0.000000,248.000000) scale(0.100000,-0.100000)"
fill="#000000" stroke="none">
<path d="M1705 2084 c-230 -36 -358 -51 -538 -64 -123 -8 -147 -17 -147 -55 0
-58 69 -64 345 -31 372 45 579 79 601 97 21 17 17 56 -8 73 -12 9 -27 15 -33
15 -5 -1 -104 -16 -220 -35z"/>
<path d="M1925 1793 c-141 -6 -331 -24 -385 -38 -30 -7 -125 -23 -210 -35 -85
-12 -180 -27 -210 -35 -30 -7 -81 -16 -114 -20 -69 -8 -112 -41 -103 -78 3
-12 13 -74 22 -137 23 -165 45 -321 51 -348 5 -25 38 -42 66 -34 37 9 40 36
19 165 -11 67 -26 165 -32 217 -6 52 -13 98 -15 102 -3 4 5 9 18 12 13 2 48 9
78 15 30 6 129 22 220 36 91 14 197 31 235 39 125 26 485 46 485 27 0 -6 -15
-57 -34 -113 -18 -57 -42 -130 -51 -163 -10 -33 -31 -91 -47 -129 -25 -57 -28
-73 -19 -93 9 -20 17 -24 44 -21 27 3 36 11 60 54 15 29 43 103 63 165 85 270
96 318 80 366 -8 26 -73 54 -119 51 -17 -1 -63 -3 -102 -5z"/>
</g>
</svg>
