<?xml version="1.0" standalone="no"?>
<!DOCTYPE svg PUBLIC "-//W3C//DTD SVG 20010904//EN"
 "http://www.w3.org/TR/2001/REC-SVG-20010904/DTD/svg10.dtd">
<svg version="1.0" xmlns="http://www.w3.org/2000/svg"
 width="248.000000pt" height="248.000000pt" viewBox="0 0 248.000000 248.000000"
 preserveAspectRatio="xMidYMid meet">
<metadata>
Created by potrace 1.10, written by Peter Selinger 2001-2011
</metadata>
<g transform="translate(0.000000,248.000000) scale(0.100000,-0.100000)"
fill="#000000" stroke="none">
<path d="M753 2109 c-12 -4 -26 -23 -33 -46 -14 -41 -144 -298 -243 -478 -84
-153 -209 -346 -278 -432 -59 -71 -71 -107 -47 -131 35 -35 98 16 191 153 l41
60 10 -40 c5 -22 10 -188 10 -370 1 -254 -2 -343 -13 -388 -14 -56 -14 -59 7
-80 18 -17 26 -19 49 -11 46 16 51 59 52 449 0 340 -7 471 -30 527 -10 24 -7
34 24 85 54 91 200 367 272 515 55 114 64 139 56 160 -11 28 -37 39 -68 27z"/>
<path d="M1785 2080 c-336 -38 -573 -60 -640 -60 -75 0 -95 -9 -95 -46 0 -42
19 -46 182 -41 146 4 411 26 583 47 44 6 101 10 127 10 70 0 107 41 76 83 -20
26 -59 27 -233 7z"/>
<path d="M2165 1494 c-22 -2 -141 -11 -265 -19 -380 -26 -497 -36 -863 -75
-104 -10 -195 -24 -203 -31 -8 -6 -14 -22 -14 -34 0 -41 22 -48 128 -41 107 7
381 34 425 41 15 2 27 0 27 -6 0 -28 -280 -502 -345 -584 -78 -98 -135 -187
-135 -210 0 -14 9 -30 22 -39 20 -13 30 -13 78 1 30 8 78 19 105 25 28 5 79
18 115 28 36 10 126 35 200 54 74 20 202 56 283 79 137 38 149 40 158 24 5 -9
42 -61 82 -114 82 -111 137 -195 137 -210 0 -16 35 -43 57 -43 31 0 46 25 40
64 -6 39 -49 109 -147 240 -37 50 -101 143 -143 206 -136 207 -172 243 -213
210 -26 -22 -15 -60 40 -133 88 -120 87 -112 3 -137 -39 -12 -121 -35 -182
-50 -60 -15 -175 -46 -255 -68 -80 -22 -161 -43 -180 -47 -38 -8 -37 -6 11 50
46 53 273 434 347 582 23 45 46 84 52 88 5 3 79 10 162 15 454 28 592 42 613
61 15 15 17 24 9 46 -8 25 -14 28 -59 29 -28 1 -68 0 -90 -2z"/>
</g>
</svg>
