<?xml version="1.0" standalone="no"?>
<!DOCTYPE svg PUBLIC "-//W3C//DTD SVG 20010904//EN"
 "http://www.w3.org/TR/2001/REC-SVG-20010904/DTD/svg10.dtd">
<svg version="1.0" xmlns="http://www.w3.org/2000/svg"
 width="248.000000pt" height="248.000000pt" viewBox="0 0 248.000000 248.000000"
 preserveAspectRatio="xMidYMid meet">
<metadata>
Created by potrace 1.10, written by Peter Selinger 2001-2011
</metadata>
<g transform="translate(0.000000,248.000000) scale(0.100000,-0.100000)"
fill="#000000" stroke="none">
<path d="M386 2288 c-9 -13 -16 -43 -16 -70 0 -75 -47 -242 -97 -343 -49 -99
-52 -137 -12 -150 43 -14 75 29 147 196 l20 46 88 13 c49 7 119 14 155 17 l66
5 16 -67 c25 -100 37 -120 72 -120 44 0 59 37 41 101 -30 104 -30 103 6 108
90 13 185 28 206 33 47 11 53 76 8 92 -13 6 -85 0 -186 -14 -315 -43 -432 -57
-436 -52 -3 3 0 33 7 66 12 64 8 123 -12 147 -17 21 -56 17 -73 -8z"/>
<path d="M1322 2298 c-7 -7 -12 -23 -12 -36 0 -40 -40 -162 -76 -234 -41 -81
-42 -102 -9 -124 23 -15 27 -15 49 0 14 9 37 42 52 75 l27 59 139 7 c77 4 142
5 144 2 11 -11 -18 -85 -56 -147 -22 -36 -40 -72 -40 -81 0 -20 31 -49 52 -49
41 0 136 161 145 245 3 25 6 45 7 45 0 1 85 7 188 14 200 13 221 20 216 65 -6
52 -33 55 -307 37 -135 -9 -292 -20 -349 -23 l-103 -6 11 27 c16 43 12 101 -8
119 -22 20 -53 22 -70 5z"/>
<path d="M1560 1694 c-14 -2 -97 -8 -185 -14 -272 -18 -363 -27 -585 -61 -118
-17 -244 -35 -280 -39 -62 -6 -109 -23 -111 -38 0 -4 -2 -211 -5 -460 -2 -249
-9 -564 -13 -700 -9 -232 -8 -248 9 -266 24 -25 63 -15 79 20 16 35 29 420 33
936 3 345 5 398 18 399 8 0 22 2 30 4 18 4 163 27 308 50 196 30 655 64 873
65 l146 0 9 -197 c10 -224 12 -1218 3 -1228 -7 -7 -78 28 -120 58 -35 25 -71
19 -83 -15 -15 -42 13 -71 115 -122 101 -51 146 -57 174 -26 30 33 37 222 30
760 -8 680 -15 835 -38 857 -16 16 -39 18 -200 19 -100 1 -193 0 -207 -2z"/>
</g>
</svg>
