<?xml version="1.0" standalone="no"?>
<!DOCTYPE svg PUBLIC "-//W3C//DTD SVG 20010904//EN"
 "http://www.w3.org/TR/2001/REC-SVG-20010904/DTD/svg10.dtd">
<svg version="1.0" xmlns="http://www.w3.org/2000/svg"
 width="248.000000pt" height="248.000000pt" viewBox="0 0 248.000000 248.000000"
 preserveAspectRatio="xMidYMid meet">
<metadata>
Created by potrace 1.10, written by Peter Selinger 2001-2011
</metadata>
<g transform="translate(0.000000,248.000000) scale(0.100000,-0.100000)"
fill="#000000" stroke="none">
<path d="M611 2366 c-7 -8 -16 -44 -21 -79 -5 -35 -26 -118 -45 -183 -42 -137
-145 -339 -237 -462 -32 -42 -58 -85 -58 -94 0 -24 44 -51 70 -43 30 10 117
132 204 290 80 146 128 277 162 446 17 82 17 88 1 113 -19 29 -57 35 -76 12z"/>
</g>
</svg>
