<?xml version="1.0" standalone="no"?>
<!DOCTYPE svg PUBLIC "-//W3C//DTD SVG 20010904//EN"
 "http://www.w3.org/TR/2001/REC-SVG-20010904/DTD/svg10.dtd">
<svg version="1.0" xmlns="http://www.w3.org/2000/svg"
 width="248.000000pt" height="248.000000pt" viewBox="0 0 248.000000 248.000000"
 preserveAspectRatio="xMidYMid meet">
<metadata>
Created by potrace 1.10, written by Peter Selinger 2001-2011
</metadata>
<g transform="translate(0.000000,248.000000) scale(0.100000,-0.100000)"
fill="#000000" stroke="none">
<path d="M386 2288 c-9 -13 -16 -43 -16 -70 0 -75 -47 -242 -97 -343 -49 -99
-52 -137 -12 -150 43 -14 75 29 147 196 19 45 21 46 73 53 30 3 83 11 119 16
36 5 126 17 200 26 265 32 320 47 320 89 0 24 -28 48 -56 48 -16 1 -103 -9
-194 -21 -91 -12 -218 -30 -283 -38 -65 -9 -120 -14 -123 -11 -3 3 0 33 7 66
12 64 8 123 -12 147 -17 21 -56 17 -73 -8z"/>
</g>
</svg>
