<?xml version="1.0" standalone="no"?>
<!DOCTYPE svg PUBLIC "-//W3C//DTD SVG 20010904//EN"
 "http://www.w3.org/TR/2001/REC-SVG-20010904/DTD/svg10.dtd">
<svg version="1.0" xmlns="http://www.w3.org/2000/svg"
 width="248.000000pt" height="248.000000pt" viewBox="0 0 248.000000 248.000000"
 preserveAspectRatio="xMidYMid meet">
<metadata>
Created by potrace 1.10, written by Peter Selinger 2001-2011
</metadata>
<g transform="translate(0.000000,248.000000) scale(0.100000,-0.100000)"
fill="#000000" stroke="none">
<path d="M611 2366 c-7 -8 -16 -44 -21 -79 -5 -35 -26 -118 -45 -183 -42 -137
-145 -339 -237 -462 -32 -42 -58 -85 -58 -94 0 -24 44 -51 70 -43 30 10 119
135 200 283 l71 131 42 6 c385 53 648 92 837 125 63 11 277 40 297 40 27 0 9
-271 -26 -404 -60 -221 -82 -291 -110 -340 -45 -78 -50 -81 -110 -59 -61 21
-84 12 -89 -35 -3 -27 2 -34 41 -56 32 -19 58 -26 95 -26 47 0 56 4 90 38 57
57 107 169 157 352 57 211 67 276 67 435 1 209 -10 223 -157 199 -262 -41
-748 -116 -875 -134 -80 -11 -160 -22 -177 -24 -38 -5 -42 7 -19 70 7 22 21
80 31 130 18 87 18 93 2 118 -19 29 -57 35 -76 12z"/>
<path d="M1175 1724 c-58 -6 -270 -34 -335 -44 -30 -5 -95 -14 -145 -20 -55
-7 -97 -17 -107 -27 -21 -19 -23 -54 -6 -71 20 -20 64 -17 413 33 55 8 128 17
163 20 l62 6 -1 -43 c0 -24 -10 -115 -22 -203 l-22 -159 -45 -8 c-25 -5 -81
-15 -125 -23 -89 -17 -292 -35 -384 -35 -93 0 -90 18 -81 -395 7 -365 12 -401
58 -473 20 -30 89 -65 177 -88 130 -34 470 -25 795 22 310 45 477 83 505 114
15 16 16 35 8 163 -10 153 -17 177 -58 177 -42 0 -50 -24 -50 -153 l0 -120
-75 -18 c-338 -82 -977 -124 -1132 -75 -115 36 -116 41 -120 433 l-3 302 65 6
c173 16 260 27 320 39 36 8 97 17 135 21 39 4 76 12 82 17 22 18 37 99 73 390
13 102 8 179 -13 197 -16 13 -79 20 -132 15z"/>
</g>
</svg>
