<?xml version="1.0" standalone="no"?>
<!DOCTYPE svg PUBLIC "-//W3C//DTD SVG 20010904//EN"
 "http://www.w3.org/TR/2001/REC-SVG-20010904/DTD/svg10.dtd">
<svg version="1.0" xmlns="http://www.w3.org/2000/svg"
 width="248.000000pt" height="248.000000pt" viewBox="0 0 248.000000 248.000000"
 preserveAspectRatio="xMidYMid meet">
<metadata>
Created by potrace 1.10, written by Peter Selinger 2001-2011
</metadata>
<g transform="translate(0.000000,248.000000) scale(0.100000,-0.100000)"
fill="#000000" stroke="none">
<path d="M990 2200 c-37 -8 -224 -24 -479 -40 -87 -6 -160 -15 -168 -22 -18
-15 -13 -58 9 -72 12 -7 98 -6 305 6 158 10 289 16 291 14 6 -7 -67 -251 -92
-308 -29 -66 -25 -64 -171 -73 -153 -9 -327 -34 -353 -51 -16 -11 -22 -23 -20
-41 5 -42 27 -49 120 -35 45 6 164 19 263 28 103 9 189 22 201 29 26 17 60
108 129 340 55 185 56 204 17 223 -9 5 -33 6 -52 2z"/>
</g>
</svg>
