<?xml version="1.0" standalone="no"?>
<!DOCTYPE svg PUBLIC "-//W3C//DTD SVG 20010904//EN"
 "http://www.w3.org/TR/2001/REC-SVG-20010904/DTD/svg10.dtd">
<svg version="1.0" xmlns="http://www.w3.org/2000/svg"
 width="248.000000pt" height="248.000000pt" viewBox="0 0 248.000000 248.000000"
 preserveAspectRatio="xMidYMid meet">
<metadata>
Created by potrace 1.10, written by Peter Selinger 2001-2011
</metadata>
<g transform="translate(0.000000,248.000000) scale(0.100000,-0.100000)"
fill="#000000" stroke="none">
<path d="M990 2200 c-37 -8 -224 -24 -479 -40 -87 -6 -160 -15 -168 -22 -18
-15 -13 -58 9 -72 12 -7 98 -6 305 6 158 10 289 16 291 14 7 -8 -68 -255 -98
-320 -17 -39 -30 -79 -28 -89 5 -30 32 -43 65 -31 36 12 68 88 139 329 54 185
55 204 16 223 -9 5 -33 6 -52 2z"/>
</g>
</svg>
