<?xml version="1.0" standalone="no"?>
<!DOCTYPE svg PUBLIC "-//W3C//DTD SVG 20010904//EN"
 "http://www.w3.org/TR/2001/REC-SVG-20010904/DTD/svg10.dtd">
<svg version="1.0" xmlns="http://www.w3.org/2000/svg"
 width="248.000000pt" height="248.000000pt" viewBox="0 0 248.000000 248.000000"
 preserveAspectRatio="xMidYMid meet">
<metadata>
Created by potrace 1.10, written by Peter Selinger 2001-2011
</metadata>
<g transform="translate(0.000000,248.000000) scale(0.100000,-0.100000)"
fill="#000000" stroke="none">
<path d="M1542 2215 c-16 -20 -60 -93 -98 -162 -38 -70 -87 -152 -109 -183
-23 -30 -57 -80 -78 -110 -20 -31 -56 -76 -81 -101 -43 -44 -50 -56 -47 -92 2
-27 46 -40 79 -23 15 8 46 17 67 21 59 10 290 62 370 84 39 11 124 33 190 51
130 35 158 51 153 88 -7 55 -13 54 -358 -39 -105 -28 -293 -70 -297 -66 -2 2
26 46 62 98 79 112 245 402 245 427 0 52 -57 55 -98 7z"/>
<path d="M990 2200 c-37 -8 -224 -24 -479 -40 -87 -6 -160 -15 -168 -22 -18
-15 -13 -58 9 -72 12 -7 98 -6 305 6 158 10 289 16 291 14 6 -7 -66 -250 -92
-307 -28 -63 -37 -69 -109 -69 -115 0 -383 -37 -414 -56 -14 -9 -28 -35 -38
-72 -33 -116 -69 -219 -102 -288 -37 -79 -40 -105 -17 -128 18 -19 36 -20 84
-6 19 6 78 15 130 20 144 16 351 40 389 46 l34 5 -6 -43 c-4 -24 -16 -92 -27
-153 -11 -60 -25 -139 -30 -175 -25 -156 -71 -303 -146 -464 -41 -88 -79 -165
-85 -171 -6 -6 -40 22 -94 78 -47 48 -92 87 -100 87 -22 0 -45 -29 -45 -58 0
-20 22 -48 94 -119 89 -88 96 -93 136 -93 67 0 100 43 192 245 76 170 117 300
144 460 7 44 24 143 38 220 30 162 34 266 11 285 -12 10 -39 9 -138 -4 -163
-23 -441 -54 -447 -50 -3 1 13 60 37 131 23 70 42 135 43 144 0 9 11 20 24 23
29 7 252 32 379 42 58 4 94 12 107 23 25 21 60 114 125 336 55 185 56 204 17
223 -9 5 -33 6 -52 2z"/>
</g>
</svg>
