<?xml version="1.0" standalone="no"?>
<!DOCTYPE svg PUBLIC "-//W3C//DTD SVG 20010904//EN"
 "http://www.w3.org/TR/2001/REC-SVG-20010904/DTD/svg10.dtd">
<svg version="1.0" xmlns="http://www.w3.org/2000/svg"
 width="248.000000pt" height="248.000000pt" viewBox="0 0 248.000000 248.000000"
 preserveAspectRatio="xMidYMid meet">
<metadata>
Created by potrace 1.10, written by Peter Selinger 2001-2011
</metadata>
<g transform="translate(0.000000,248.000000) scale(0.100000,-0.100000)"
fill="#000000" stroke="none">
<path d="M690 2234 c-17 -15 -59 -63 -92 -108 -75 -99 -316 -340 -385 -385
-54 -35 -65 -54 -53 -86 8 -19 119 -72 263 -125 31 -12 57 -24 57 -27 0 -7
-246 -277 -299 -328 -27 -26 -41 -49 -41 -65 0 -60 47 -64 192 -16 57 19 162
51 233 71 72 21 142 43 157 51 l28 14 70 -95 c72 -96 98 -113 128 -83 25 25
12 66 -45 144 -31 44 -76 115 -101 159 -53 97 -69 115 -97 115 -48 0 -59 -51
-24 -109 11 -18 17 -37 12 -42 -19 -18 -313 -104 -313 -91 0 4 48 59 106 122
137 149 293 334 372 443 38 53 25 107 -25 107 -16 0 -40 -23 -90 -87 -38 -49
-95 -120 -127 -160 l-59 -72 -31 16 c-17 9 -69 31 -115 47 -47 17 -85 36 -87
41 -1 6 43 50 98 99 55 49 139 137 186 195 48 57 108 129 135 158 52 59 56 74
27 103 -27 27 -42 25 -80 -6z"/>
</g>
</svg>
