<?xml version="1.0" standalone="no"?>
<!DOCTYPE svg PUBLIC "-//W3C//DTD SVG 20010904//EN"
 "http://www.w3.org/TR/2001/REC-SVG-20010904/DTD/svg10.dtd">
<svg version="1.0" xmlns="http://www.w3.org/2000/svg"
 width="248.000000pt" height="248.000000pt" viewBox="0 0 248.000000 248.000000"
 preserveAspectRatio="xMidYMid meet">
<metadata>
Created by potrace 1.10, written by Peter Selinger 2001-2011
</metadata>
<g transform="translate(0.000000,248.000000) scale(0.100000,-0.100000)"
fill="#000000" stroke="none">
<path d="M1575 2317 c-11 -17 -18 -62 -23 -153 l-7 -129 -95 -12 c-52 -6 -147
-17 -210 -23 -126 -13 -160 -27 -160 -65 0 -42 37 -58 111 -46 35 5 120 15
189 21 69 6 133 14 143 17 17 4 18 -2 11 -109 -4 -62 -7 -114 -8 -115 -1 -1
-50 -7 -109 -12 -59 -6 -116 -15 -127 -21 -35 -19 -36 -71 -1 -89 10 -6 62 -4
131 5 63 7 192 18 285 24 129 9 174 15 188 27 22 21 22 46 -3 68 -17 15 -34
17 -135 13 l-115 -4 0 90 c0 140 -7 132 121 146 61 6 182 15 271 19 140 7 163
10 174 26 18 24 18 36 0 61 -13 17 -26 19 -158 16 -79 -1 -197 -8 -263 -16
-66 -7 -123 -10 -127 -7 -3 3 -3 60 1 125 7 133 0 159 -41 164 -19 2 -31 -4
-43 -21z"/>
<path d="M690 2234 c-17 -15 -59 -63 -92 -108 -75 -99 -316 -340 -385 -385
-54 -35 -65 -54 -53 -86 8 -19 119 -72 263 -125 31 -12 57 -24 57 -27 0 -7
-246 -277 -299 -328 -27 -26 -41 -49 -41 -65 0 -61 48 -64 192 -15 61 20 106
31 112 25 4 -4 6 -50 3 -102 -3 -51 -10 -219 -16 -373 -6 -154 -12 -321 -15
-371 -6 -112 3 -130 66 -125 10 0 22 10 28 22 10 17 41 680 44 918 l1 74 68
19 c38 10 82 25 98 33 l29 15 70 -95 c72 -96 98 -113 128 -83 25 25 12 66 -45
144 -31 44 -76 115 -101 159 -53 97 -69 115 -97 115 -48 0 -59 -51 -24 -109
11 -18 17 -37 12 -42 -19 -18 -313 -104 -313 -91 0 4 48 59 106 122 137 149
293 334 372 443 38 53 25 107 -25 107 -16 0 -40 -23 -90 -87 -38 -49 -95 -120
-127 -160 l-59 -72 -31 16 c-17 9 -69 31 -115 47 -47 17 -85 36 -87 41 -1 6
43 50 98 99 55 49 139 137 186 195 48 57 108 129 135 158 52 59 56 74 27 103
-27 27 -42 25 -80 -6z"/>
<path d="M1855 1470 c-134 -9 -387 -38 -436 -51 -69 -18 -282 -38 -300 -28
-31 16 -58 10 -75 -17 -14 -21 -18 -59 -22 -214 -4 -181 -4 -188 17 -209 11
-11 29 -21 40 -21 39 0 46 26 51 189 l5 155 133 18 c74 9 157 22 185 28 112
23 312 40 531 47 l228 6 -11 -20 c-21 -40 -84 -119 -127 -159 -47 -45 -53 -63
-28 -88 49 -50 127 14 255 207 102 153 88 168 -161 165 -96 -1 -224 -4 -285
-8z"/>
<path d="M1646 1218 c-9 -13 -16 -43 -16 -71 0 -27 -6 -95 -14 -151 -36 -252
-44 -459 -22 -559 35 -155 113 -222 299 -257 256 -47 366 -36 453 44 52 48 59
81 42 194 -9 59 -15 76 -34 89 -22 14 -26 14 -50 -1 -25 -17 -25 -18 -18 -111
l7 -93 -41 -21 c-54 -27 -169 -28 -320 -2 -125 22 -176 48 -213 108 -22 35
-24 51 -27 193 -3 124 2 201 24 382 26 214 26 228 10 252 -21 33 -59 34 -80 4z"/>
<path d="M1373 1188 c-6 -7 -13 -58 -16 -113 -7 -121 -48 -290 -107 -436 -50
-124 -97 -204 -162 -276 -48 -53 -59 -88 -36 -111 57 -57 190 97 289 333 51
125 85 243 110 385 21 121 18 182 -9 213 -18 20 -55 23 -69 5z"/>
<path d="M632 958 c-18 -18 -15 -46 8 -78 11 -15 35 -63 53 -106 19 -44 54
-119 78 -169 39 -78 49 -90 73 -93 34 -4 56 13 56 44 0 14 -20 65 -45 114 -25
50 -59 125 -76 168 -17 42 -42 89 -57 105 -27 29 -69 36 -90 15z"/>
<path d="M261 906 c-6 -7 -20 -46 -30 -87 -25 -97 -97 -258 -155 -346 -47 -72
-57 -112 -32 -133 44 -36 105 30 191 205 91 187 127 329 93 363 -16 16 -53 15
-67 -2z"/>
</g>
</svg>
