<?xml version="1.0" standalone="no"?>
<!DOCTYPE svg PUBLIC "-//W3C//DTD SVG 20010904//EN"
 "http://www.w3.org/TR/2001/REC-SVG-20010904/DTD/svg10.dtd">
<svg version="1.0" xmlns="http://www.w3.org/2000/svg"
 width="248.000000pt" height="248.000000pt" viewBox="0 0 248.000000 248.000000"
 preserveAspectRatio="xMidYMid meet">
<metadata>
Created by potrace 1.10, written by Peter Selinger 2001-2011
</metadata>
<g transform="translate(0.000000,248.000000) scale(0.100000,-0.100000)"
fill="#000000" stroke="none">
<path d="M690 2234 c-17 -15 -59 -63 -92 -108 -75 -99 -316 -340 -385 -385
-87 -57 -79 -92 33 -140 240 -102 287 -111 307 -58 5 12 -1 26 -16 41 -22 21
-39 29 -161 73 -27 10 -50 23 -52 28 -1 6 43 50 98 99 55 49 139 137 186 195
48 57 108 129 135 158 52 59 56 74 27 103 -27 27 -42 25 -80 -6z"/>
</g>
</svg>
