<?xml version="1.0" standalone="no"?>
<!DOCTYPE svg PUBLIC "-//W3C//DTD SVG 20010904//EN"
 "http://www.w3.org/TR/2001/REC-SVG-20010904/DTD/svg10.dtd">
<svg version="1.0" xmlns="http://www.w3.org/2000/svg"
 width="248.000000pt" height="248.000000pt" viewBox="0 0 248.000000 248.000000"
 preserveAspectRatio="xMidYMid meet">
<metadata>
Created by potrace 1.10, written by Peter Selinger 2001-2011
</metadata>
<g transform="translate(0.000000,248.000000) scale(0.100000,-0.100000)"
fill="#000000" stroke="none">
<path d="M1186 2328 c-12 -17 -16 -49 -16 -135 0 -98 -2 -112 -17 -117 -10 -3
-81 -10 -158 -16 -77 -6 -203 -20 -280 -31 -77 -12 -169 -25 -205 -30 -155
-20 -183 -26 -196 -44 -23 -31 0 -329 27 -362 7 -7 24 -13 38 -11 42 5 50 37
41 173 -4 66 -6 122 -5 124 2 1 30 6 62 10 32 5 144 20 248 34 466 64 1425
123 1425 88 0 -10 -170 -151 -277 -229 -86 -63 -98 -85 -67 -116 27 -27 59
-18 140 41 222 161 338 280 336 345 -2 79 -69 87 -544 64 -200 -10 -384 -20
-410 -23 l-48 -5 0 109 c0 120 -12 153 -55 153 -13 0 -31 -10 -39 -22z"/>
<path d="M1578 1765 c-1 -2 -44 -8 -93 -14 -50 -6 -124 -15 -165 -21 -76 -11
-150 -19 -382 -44 -70 -7 -135 -19 -143 -26 -23 -19 -15 -62 15 -78 26 -13
101 -11 230 8 36 5 126 17 200 25 378 43 409 52 394 112 -5 18 -47 47 -56 38z"/>
</g>
</svg>
