<?xml version="1.0" standalone="no"?>
<!DOCTYPE svg PUBLIC "-//W3C//DTD SVG 20010904//EN"
 "http://www.w3.org/TR/2001/REC-SVG-20010904/DTD/svg10.dtd">
<svg version="1.0" xmlns="http://www.w3.org/2000/svg"
 width="248.000000pt" height="248.000000pt" viewBox="0 0 248.000000 248.000000"
 preserveAspectRatio="xMidYMid meet">
<metadata>
Created by potrace 1.10, written by Peter Selinger 2001-2011
</metadata>
<g transform="translate(0.000000,248.000000) scale(0.100000,-0.100000)"
fill="#000000" stroke="none">
<path d="M2080 2260 c-41 -5 -122 -13 -180 -18 -58 -6 -143 -16 -190 -22 -47
-6 -98 -11 -115 -11 -16 -1 -55 -5 -85 -10 -103 -17 -295 -39 -343 -39 -38 0
-53 -5 -74 -26 -24 -24 -25 -30 -19 -97 3 -40 15 -198 26 -352 11 -154 22
-302 26 -328 8 -63 38 -98 84 -99 41 -1 359 27 480 42 47 6 168 20 270 31 230
25 254 31 268 67 18 44 59 735 48 794 -13 68 -55 83 -196 68z m89 -177 c-1
-43 -4 -109 -8 -148 l-6 -70 -100 -12 c-55 -7 -161 -20 -235 -28 -184 -21
-362 -42 -440 -54 -36 -5 -90 -11 -120 -13 l-55 -3 -12 144 c-7 80 -12 146
-10 148 2 1 39 7 83 13 43 5 126 17 184 25 58 8 175 22 260 30 85 9 198 20
250 26 100 10 150 15 188 17 21 2 22 -1 21 -75z m-24 -465 c-4 -85 -12 -148
-19 -154 -6 -7 -85 -19 -176 -28 -91 -9 -196 -21 -235 -27 -38 -5 -151 -16
-250 -24 -99 -8 -192 -18 -206 -21 -26 -6 -26 -6 -33 73 -3 43 -9 108 -12 146
l-6 67 38 0 c22 0 66 5 99 10 57 10 135 19 445 55 74 8 180 21 235 29 55 7
106 14 113 15 11 1 13 -25 7 -141z"/>
<path d="M446 2098 c-14 -19 -16 -64 -16 -285 0 -240 -2 -263 -17 -271 -10 -5
-76 -24 -148 -42 -72 -18 -140 -39 -153 -47 -31 -19 -27 -63 8 -80 21 -10 47
-6 163 24 75 20 139 34 141 32 2 -2 6 -158 8 -347 l4 -342 -135 -84 c-75 -46
-147 -89 -161 -96 -62 -31 -87 -79 -58 -108 21 -21 56 -13 126 27 125 71 287
169 387 234 55 36 123 76 150 90 28 14 88 52 135 84 67 45 86 64 88 85 2 20
-3 31 -22 43 -23 15 -27 15 -58 -1 -18 -9 -53 -31 -78 -49 -25 -18 -81 -53
-125 -77 -44 -24 -92 -52 -106 -61 -26 -17 -27 -17 -33 5 -3 13 -6 161 -6 329
l0 306 73 21 c39 12 95 27 122 32 81 18 120 41 123 73 5 37 -15 60 -47 54 -14
-2 -80 -18 -145 -36 -66 -17 -121 -31 -123 -31 -2 0 -3 111 -3 248 0 269 -4
292 -55 292 -13 0 -31 -10 -39 -22z"/>
</g>
</svg>
