<?xml version="1.0" standalone="no"?>
<!DOCTYPE svg PUBLIC "-//W3C//DTD SVG 20010904//EN"
 "http://www.w3.org/TR/2001/REC-SVG-20010904/DTD/svg10.dtd">
<svg version="1.0" xmlns="http://www.w3.org/2000/svg"
 width="248.000000pt" height="248.000000pt" viewBox="0 0 248.000000 248.000000"
 preserveAspectRatio="xMidYMid meet">
<metadata>
Created by potrace 1.10, written by Peter Selinger 2001-2011
</metadata>
<g transform="translate(0.000000,248.000000) scale(0.100000,-0.100000)"
fill="#000000" stroke="none">
<path d="M2080 2260 c-41 -5 -122 -13 -180 -18 -58 -6 -143 -16 -190 -22 -47
-6 -98 -11 -115 -11 -16 -1 -55 -5 -85 -10 -103 -17 -295 -39 -343 -39 -38 0
-53 -5 -74 -26 -24 -24 -25 -30 -20 -92 4 -37 16 -197 27 -357 23 -331 27
-362 46 -392 19 -30 59 -30 78 0 12 17 13 38 6 102 -4 44 -11 119 -15 168 l-6
87 38 0 c21 0 65 5 98 10 58 10 154 22 445 54 74 9 185 22 245 30 61 8 112 13
114 10 2 -2 -1 -78 -7 -170 -12 -178 -7 -207 32 -218 37 -10 62 31 69 115 16
202 39 681 33 712 -13 67 -55 82 -196 67z m89 -177 c-1 -43 -4 -109 -8 -148
l-6 -70 -100 -12 c-55 -7 -161 -20 -235 -28 -184 -21 -362 -42 -440 -54 -36
-5 -90 -11 -120 -13 l-55 -3 -12 144 c-7 80 -12 146 -10 148 2 1 39 7 83 13
43 5 126 17 184 25 58 8 175 22 260 30 85 9 198 20 250 26 100 10 150 15 188
17 21 2 22 -1 21 -75z"/>
<path d="M446 2098 c-14 -19 -16 -64 -16 -285 0 -240 -2 -263 -17 -271 -10 -5
-76 -24 -148 -42 -72 -18 -140 -39 -153 -47 -31 -19 -27 -63 8 -80 21 -10 47
-6 163 24 75 20 139 34 141 32 2 -2 6 -158 8 -347 l4 -342 -135 -84 c-75 -46
-147 -89 -161 -96 -62 -31 -87 -79 -58 -108 21 -21 56 -13 126 27 125 71 287
169 387 234 55 36 123 76 150 90 28 14 88 52 135 84 67 45 86 64 88 85 2 20
-3 31 -22 43 -23 15 -27 15 -58 -1 -18 -9 -53 -31 -78 -49 -25 -18 -81 -53
-125 -77 -44 -24 -92 -52 -106 -61 -26 -17 -27 -17 -33 5 -3 13 -6 161 -6 329
l0 306 73 21 c39 12 95 27 122 32 81 18 120 41 123 73 5 37 -15 60 -47 54 -14
-2 -80 -18 -145 -36 -66 -17 -121 -31 -123 -31 -2 0 -3 111 -3 248 0 269 -4
292 -55 292 -13 0 -31 -10 -39 -22z"/>
</g>
</svg>
