<?xml version="1.0" standalone="no"?>
<!DOCTYPE svg PUBLIC "-//W3C//DTD SVG 20010904//EN"
 "http://www.w3.org/TR/2001/REC-SVG-20010904/DTD/svg10.dtd">
<svg version="1.0" xmlns="http://www.w3.org/2000/svg"
 width="248.000000pt" height="248.000000pt" viewBox="0 0 248.000000 248.000000"
 preserveAspectRatio="xMidYMid meet">
<metadata>
Created by potrace 1.10, written by Peter Selinger 2001-2011
</metadata>
<g transform="translate(0.000000,248.000000) scale(0.100000,-0.100000)"
fill="#000000" stroke="none">
<path d="M1086 2119 c-10 -15 -14 -39 -11 -78 26 -397 48 -673 56 -704 12 -45
45 -65 78 -48 26 15 26 10 1 376 -26 361 -35 441 -50 460 -18 22 -57 18 -74
-6z"/>
<path d="M446 2098 c-14 -19 -16 -64 -16 -285 0 -240 -2 -263 -17 -271 -10 -5
-76 -24 -148 -42 -72 -18 -140 -39 -153 -47 -31 -19 -27 -63 8 -80 21 -10 47
-6 163 24 75 20 139 34 141 32 2 -2 6 -158 8 -347 l4 -342 -135 -84 c-75 -46
-147 -89 -161 -96 -62 -31 -87 -79 -58 -108 21 -21 56 -13 126 27 125 71 287
169 387 234 55 36 123 76 150 90 28 14 88 52 135 84 67 45 86 64 88 85 2 20
-3 31 -22 43 -23 15 -27 15 -58 -1 -18 -9 -53 -31 -78 -49 -25 -18 -81 -53
-125 -77 -44 -24 -92 -52 -106 -61 -24 -16 -27 -16 -33 -2 -3 9 -6 157 -6 329
l0 313 73 21 c39 12 95 27 122 32 81 18 120 41 123 73 5 37 -15 60 -47 54 -14
-2 -80 -18 -145 -36 -66 -17 -121 -31 -123 -31 -2 0 -3 111 -3 248 0 269 -4
292 -55 292 -13 0 -31 -10 -39 -22z"/>
</g>
</svg>
