<?xml version="1.0" standalone="no"?>
<!DOCTYPE svg PUBLIC "-//W3C//DTD SVG 20010904//EN"
 "http://www.w3.org/TR/2001/REC-SVG-20010904/DTD/svg10.dtd">
<svg version="1.0" xmlns="http://www.w3.org/2000/svg"
 width="248.000000pt" height="248.000000pt" viewBox="0 0 248.000000 248.000000"
 preserveAspectRatio="xMidYMid meet">
<metadata>
Created by potrace 1.10, written by Peter Selinger 2001-2011
</metadata>
<g transform="translate(0.000000,248.000000) scale(0.100000,-0.100000)"
fill="#000000" stroke="none">
<path d="M2085 2260 c-432 -43 -519 -53 -797 -91 -37 -5 -89 -9 -117 -9 -38 0
-56 -6 -77 -23 l-26 -23 16 -219 c45 -586 44 -577 64 -604 24 -32 64 -42 121
-31 43 9 295 30 354 30 l27 0 0 -174 0 -174 -138 -26 c-76 -14 -158 -26 -183
-26 -81 0 -120 -59 -64 -96 34 -22 76 -18 338 34 l47 9 0 -66 c0 -36 -3 -143
-7 -238 l-6 -171 -26 -6 c-14 -3 -89 -10 -166 -16 -248 -18 -472 -45 -489 -59
-24 -20 -20 -58 9 -77 25 -17 83 -14 313 16 40 6 101 10 135 10 34 0 92 5 128
10 76 11 601 40 728 40 101 0 135 13 139 53 8 64 0 65 -400 45 -136 -6 -250
-9 -254 -5 -3 3 -3 114 1 245 l7 239 67 6 c80 8 202 26 253 39 29 7 39 15 44
35 16 62 -39 72 -233 40 -57 -9 -110 -17 -118 -17 -13 0 -15 26 -15 174 l0
174 63 7 c377 40 391 43 406 86 17 49 58 734 47 791 -13 68 -51 82 -191 68z
m84 -182 c-1 -46 -4 -112 -8 -148 l-6 -65 -55 -7 c-154 -20 -221 -28 -279 -34
l-63 -6 4 146 c2 107 7 149 16 155 8 4 57 12 110 16 53 4 129 11 167 15 129
13 115 21 114 -72z m-513 -20 c-3 -29 -6 -99 -6 -154 l0 -101 -77 -7 c-43 -4
-118 -14 -168 -21 -49 -8 -116 -15 -147 -15 -57 0 -58 1 -58 28 0 15 -5 78
-10 141 -6 63 -8 116 -6 119 3 2 57 10 120 18 64 7 142 18 174 24 31 5 77 12
102 13 25 2 54 4 64 5 17 2 18 -3 12 -50z m489 -440 c-4 -84 -12 -148 -19
-155 -9 -9 -284 -43 -348 -43 -16 0 -18 14 -18 145 0 142 0 145 23 149 18 4
310 40 355 45 11 1 12 -26 7 -141z m-498 -214 c-1 -2 -84 -10 -182 -18 -99 -9
-192 -19 -206 -22 -26 -6 -26 -6 -33 73 -3 43 -9 107 -12 143 l-6 66 109 13
c59 7 158 18 218 25 l110 11 3 -144 c1 -79 1 -145 -1 -147z"/>
<path d="M446 2098 c-14 -19 -16 -64 -16 -285 0 -240 -2 -263 -17 -271 -10 -5
-76 -24 -148 -42 -72 -17 -140 -38 -152 -46 -31 -19 -30 -59 1 -79 23 -15 32
-14 133 14 59 16 125 33 146 36 l37 7 2 -281 c1 -154 3 -311 3 -347 l0 -66
-120 -74 c-66 -41 -138 -84 -160 -95 -77 -41 -105 -85 -73 -117 21 -21 56 -13
126 27 125 71 287 169 387 234 55 36 123 76 150 90 28 14 88 52 135 84 67 45
86 64 88 85 2 20 -3 31 -22 43 -23 15 -27 15 -58 -1 -18 -9 -53 -31 -78 -49
-25 -18 -81 -53 -125 -77 -44 -24 -92 -52 -106 -61 -24 -16 -27 -16 -33 -2 -3
9 -6 157 -6 329 l0 313 73 21 c39 12 95 27 122 32 81 18 120 41 123 73 5 40
-15 60 -52 54 -17 -3 -82 -19 -145 -36 -63 -17 -116 -31 -118 -31 -2 0 -3 111
-3 248 0 269 -4 292 -55 292 -13 0 -31 -10 -39 -22z"/>
</g>
</svg>
