<?xml version="1.0" standalone="no"?>
<!DOCTYPE svg PUBLIC "-//W3C//DTD SVG 20010904//EN"
 "http://www.w3.org/TR/2001/REC-SVG-20010904/DTD/svg10.dtd">
<svg version="1.0" xmlns="http://www.w3.org/2000/svg"
 width="248.000000pt" height="248.000000pt" viewBox="0 0 248.000000 248.000000"
 preserveAspectRatio="xMidYMid meet">
<metadata>
Created by potrace 1.10, written by Peter Selinger 2001-2011
</metadata>
<g transform="translate(0.000000,248.000000) scale(0.100000,-0.100000)"
fill="#000000" stroke="none">
<path d="M789 1645 c-3 -2 -59 -18 -124 -35 -66 -18 -149 -40 -185 -50 -36
-10 -131 -36 -213 -58 -81 -22 -154 -46 -163 -53 -22 -18 -13 -62 16 -76 25
-12 94 4 410 93 47 13 123 33 169 45 120 29 155 48 159 82 2 16 -2 35 -9 43
-11 13 -50 20 -60 9z"/>
</g>
</svg>
