<?xml version="1.0" standalone="no"?>
<!DOCTYPE svg PUBLIC "-//W3C//DTD SVG 20010904//EN"
 "http://www.w3.org/TR/2001/REC-SVG-20010904/DTD/svg10.dtd">
<svg version="1.0" xmlns="http://www.w3.org/2000/svg"
 width="248.000000pt" height="248.000000pt" viewBox="0 0 248.000000 248.000000"
 preserveAspectRatio="xMidYMid meet">
<metadata>
Created by potrace 1.10, written by Peter Selinger 2001-2011
</metadata>
<g transform="translate(0.000000,248.000000) scale(0.100000,-0.100000)"
fill="#000000" stroke="none">
<path d="M446 2098 c-14 -19 -16 -64 -16 -285 0 -240 -2 -263 -17 -271 -10 -5
-76 -24 -148 -42 -72 -18 -140 -39 -153 -47 -31 -19 -27 -63 8 -80 21 -10 46
-6 155 23 72 18 135 34 141 34 8 0 13 -94 16 -332 4 -279 7 -339 21 -370 13
-32 21 -38 46 -38 16 0 33 6 38 13 4 6 6 181 4 388 l-3 375 73 22 c41 12 97
27 124 32 81 18 120 41 123 73 5 37 -15 60 -47 54 -14 -2 -80 -18 -145 -36
-66 -17 -121 -31 -123 -31 -2 0 -3 111 -3 248 0 269 -4 292 -55 292 -13 0 -31
-10 -39 -22z"/>
</g>
</svg>
