<?xml version="1.0" standalone="no"?>
<!DOCTYPE svg PUBLIC "-//W3C//DTD SVG 20010904//EN"
 "http://www.w3.org/TR/2001/REC-SVG-20010904/DTD/svg10.dtd">
<svg version="1.0" xmlns="http://www.w3.org/2000/svg"
 width="248.000000pt" height="248.000000pt" viewBox="0 0 248.000000 248.000000"
 preserveAspectRatio="xMidYMid meet">
<metadata>
Created by potrace 1.10, written by Peter Selinger 2001-2011
</metadata>
<g transform="translate(0.000000,248.000000) scale(0.100000,-0.100000)"
fill="#000000" stroke="none">
<path d="M810 2180 c-11 -11 -20 -27 -20 -36 0 -9 -16 -64 -36 -123 -63 -191
-203 -427 -341 -575 -41 -44 -76 -91 -79 -103 -7 -27 19 -63 46 -63 20 0 139
121 201 205 55 75 57 77 94 70 62 -12 440 -5 520 9 44 8 116 17 160 21 44 4
152 18 240 31 539 83 529 81 523 132 -5 43 -46 57 -111 38 -28 -8 -74 -17
-102 -21 -27 -4 -131 -20 -230 -36 -99 -16 -243 -35 -320 -44 -77 -8 -167 -20
-200 -27 -61 -12 -438 -18 -449 -7 -3 3 21 61 55 128 49 100 139 339 139 373
0 14 -39 48 -55 48 -8 0 -24 -9 -35 -20z"/>
</g>
</svg>
