<?xml version="1.0" standalone="no"?>
<!DOCTYPE svg PUBLIC "-//W3C//DTD SVG 20010904//EN"
 "http://www.w3.org/TR/2001/REC-SVG-20010904/DTD/svg10.dtd">
<svg version="1.0" xmlns="http://www.w3.org/2000/svg"
 width="248.000000pt" height="248.000000pt" viewBox="0 0 248.000000 248.000000"
 preserveAspectRatio="xMidYMid meet">
<metadata>
Created by potrace 1.10, written by Peter Selinger 2001-2011
</metadata>
<g transform="translate(0.000000,248.000000) scale(0.100000,-0.100000)"
fill="#000000" stroke="none">
<path d="M606 2378 c-13 -18 -16 -56 -17 -198 -1 -96 -4 -213 -7 -260 l-7 -85
-65 -12 c-36 -7 -110 -20 -165 -29 -55 -9 -110 -23 -122 -31 -30 -18 -30 -58
0 -77 23 -16 36 -15 252 23 28 5 51 8 53 6 2 -1 -6 -27 -17 -56 -10 -30 -35
-99 -56 -154 -20 -55 -42 -118 -49 -140 -7 -22 -37 -103 -66 -180 -29 -77 -79
-210 -111 -295 -32 -85 -67 -181 -80 -212 -20 -54 -21 -59 -5 -83 20 -30 50
-32 73 -6 26 31 48 87 198 507 18 49 39 103 48 120 8 16 24 58 36 94 11 36 34
103 50 150 l29 85 -1 -668 c-2 -651 -1 -669 17 -683 25 -18 37 -18 62 0 18 14
19 39 27 782 4 423 10 770 12 772 2 2 69 20 150 39 80 19 152 42 160 50 18 18
19 55 3 71 -18 18 -52 15 -182 -18 -65 -17 -122 -30 -127 -30 -6 0 -7 97 -3
244 6 220 5 247 -10 270 -21 33 -59 34 -80 4z"/>
</g>
</svg>
