<?xml version="1.0" standalone="no"?>
<!DOCTYPE svg PUBLIC "-//W3C//DTD SVG 20010904//EN"
 "http://www.w3.org/TR/2001/REC-SVG-20010904/DTD/svg10.dtd">
<svg version="1.0" xmlns="http://www.w3.org/2000/svg"
 width="248.000000pt" height="248.000000pt" viewBox="0 0 248.000000 248.000000"
 preserveAspectRatio="xMidYMid meet">
<metadata>
Created by potrace 1.10, written by Peter Selinger 2001-2011
</metadata>
<g transform="translate(0.000000,248.000000) scale(0.100000,-0.100000)"
fill="#000000" stroke="none">
<path d="M606 2378 c-13 -18 -16 -56 -17 -198 -1 -96 -4 -213 -7 -260 l-7 -85
-65 -12 c-36 -7 -110 -20 -165 -29 -55 -9 -110 -23 -122 -31 -30 -18 -30 -58
0 -77 23 -16 36 -15 252 23 28 5 51 8 53 6 2 -1 -6 -27 -17 -56 -10 -30 -35
-99 -56 -154 -20 -55 -42 -118 -49 -140 -7 -22 -37 -103 -66 -180 -29 -77 -79
-210 -111 -295 -32 -85 -67 -181 -80 -212 -20 -54 -21 -59 -5 -83 20 -30 50
-32 73 -6 26 31 48 87 198 507 18 49 39 103 48 120 8 16 24 58 36 94 11 36 34
103 50 150 l29 85 -1 -668 c-2 -651 -1 -669 17 -683 25 -18 37 -18 62 0 18 14
19 35 25 573 4 307 7 604 8 661 l1 102 86 -97 c143 -162 230 -243 262 -243 33
0 52 16 52 43 0 11 -43 64 -97 121 -100 104 -256 281 -286 326 -9 13 -17 35
-17 47 0 25 -8 22 188 68 118 29 142 42 142 79 0 54 -31 57 -194 16 -65 -17
-122 -30 -127 -30 -6 0 -7 97 -3 244 6 220 5 247 -10 270 -21 33 -59 34 -80 4z"/>
<path d="M1719 2373 c-10 -12 -15 -67 -19 -212 l-5 -196 -75 -12 c-41 -6 -127
-17 -190 -23 -125 -13 -160 -27 -160 -64 0 -37 26 -51 87 -49 56 3 254 27 311
39 l32 7 0 -86 0 -86 -32 -6 c-18 -3 -60 -9 -94 -14 -91 -14 -143 -30 -163
-50 -17 -17 -18 -47 -14 -552 2 -294 6 -553 9 -577 9 -75 9 -75 339 -62 157 6
306 8 330 5 75 -12 72 -43 71 658 -1 600 -2 619 -20 633 -22 16 -109 18 -171
5 -22 -5 -64 -12 -92 -15 l-53 -7 0 85 c0 72 3 85 18 90 17 5 245 49 314 61
59 9 78 62 33 91 -23 15 -34 14 -167 -10 -79 -15 -155 -30 -170 -33 l-28 -5 0
179 c0 145 -3 183 -16 201 -18 26 -56 29 -75 5z m321 -883 l0 -140 -33 0 c-33
0 -109 -10 -367 -49 -69 -10 -127 -17 -130 -14 -2 2 -6 62 -8 133 l-4 129 38
9 c22 5 107 19 189 32 83 12 170 25 195 30 25 4 62 8 83 9 l37 1 0 -140z m0
-313 c0 -35 -3 -98 -6 -140 l-7 -77 -71 0 c-66 0 -307 -22 -403 -36 l-43 -6 0
131 c0 98 3 131 13 131 11 0 210 30 332 49 28 5 80 9 118 10 l67 1 0 -63z m-7
-394 c4 -38 7 -104 7 -149 l0 -81 -92 -7 c-50 -3 -134 -6 -187 -7 -53 0 -131
-4 -173 -7 l-78 -8 0 143 c0 140 0 143 23 148 55 13 282 33 383 34 l111 1 6
-67z"/>
<path d="M1106 1198 c-12 -20 -12 -46 0 -183 8 -88 16 -302 20 -475 3 -173 10
-330 16 -348 12 -39 45 -50 97 -32 28 11 153 14 538 16 276 1 507 5 512 9 15
9 14 60 -2 73 -32 27 -194 35 -592 29 -220 -3 -412 -9 -426 -12 l-26 -7 -6
264 c-8 340 -31 633 -52 664 -20 31 -60 31 -79 2z"/>
</g>
</svg>
