<?xml version="1.0" standalone="no"?>
<!DOCTYPE svg PUBLIC "-//W3C//DTD SVG 20010904//EN"
 "http://www.w3.org/TR/2001/REC-SVG-20010904/DTD/svg10.dtd">
<svg version="1.0" xmlns="http://www.w3.org/2000/svg"
 width="248.000000pt" height="248.000000pt" viewBox="0 0 248.000000 248.000000"
 preserveAspectRatio="xMidYMid meet">
<metadata>
Created by potrace 1.10, written by Peter Selinger 2001-2011
</metadata>
<g transform="translate(0.000000,248.000000) scale(0.100000,-0.100000)"
fill="#000000" stroke="none">
<path d="M606 2378 c-13 -18 -16 -56 -17 -198 -1 -96 -4 -213 -7 -260 l-7 -85
-65 -12 c-36 -7 -110 -20 -165 -29 -55 -9 -110 -23 -122 -31 -30 -18 -30 -58
0 -77 23 -16 36 -15 252 23 28 5 51 8 53 6 2 -1 -6 -27 -17 -56 -10 -30 -35
-99 -56 -154 -20 -55 -42 -118 -49 -140 -7 -22 -37 -103 -66 -180 -29 -77 -79
-210 -111 -295 -32 -85 -67 -181 -80 -212 -20 -54 -21 -59 -5 -83 20 -30 50
-32 73 -6 26 31 48 87 198 507 18 49 39 103 48 120 8 16 24 58 36 94 11 36 34
103 50 150 l29 85 -1 -668 c-2 -651 -1 -669 17 -683 25 -18 37 -18 62 0 18 14
19 35 25 573 4 307 7 604 8 661 l1 102 86 -97 c143 -162 230 -243 262 -243 33
0 52 16 52 43 0 11 -43 64 -97 121 -100 104 -256 281 -286 326 -9 13 -17 35
-17 47 0 25 -8 22 188 68 118 29 142 42 142 79 0 54 -31 57 -194 16 -65 -17
-122 -30 -127 -30 -6 0 -7 97 -3 244 6 220 5 247 -10 270 -21 33 -59 34 -80 4z"/>
<path d="M1719 2373 c-10 -12 -15 -67 -19 -212 l-5 -196 -75 -12 c-41 -6 -127
-17 -190 -23 -125 -13 -160 -27 -160 -64 0 -37 26 -51 87 -49 56 3 254 27 311
39 l32 7 0 -82 c0 -124 34 -181 90 -151 18 10 20 20 20 130 0 104 2 119 18
124 17 5 245 49 314 61 59 9 78 62 33 91 -23 15 -34 14 -167 -10 -79 -15 -155
-30 -170 -33 l-28 -5 0 179 c0 145 -3 183 -16 201 -18 26 -56 29 -75 5z"/>
<path d="M1402 1608 c-6 -9 -8 -204 -3 -579 7 -613 6 -603 60 -597 49 6 51 21
50 453 0 501 -9 688 -34 715 -20 23 -58 26 -73 8z"/>
</g>
</svg>
