<?xml version="1.0" standalone="no"?>
<!DOCTYPE svg PUBLIC "-//W3C//DTD SVG 20010904//EN"
 "http://www.w3.org/TR/2001/REC-SVG-20010904/DTD/svg10.dtd">
<svg version="1.0" xmlns="http://www.w3.org/2000/svg"
 width="248.000000pt" height="248.000000pt" viewBox="0 0 248.000000 248.000000"
 preserveAspectRatio="xMidYMid meet">
<metadata>
Created by potrace 1.10, written by Peter Selinger 2001-2011
</metadata>
<g transform="translate(0.000000,248.000000) scale(0.100000,-0.100000)"
fill="#000000" stroke="none">
<path d="M1655 2108 c-136 -9 -339 -29 -535 -53 -200 -25 -433 -47 -485 -47
-60 0 -95 -19 -95 -53 0 -37 37 -56 96 -50 27 2 101 9 164 15 63 6 156 16 207
21 50 6 96 8 102 5 16 -10 14 -496 -2 -496 -92 0 -587 -65 -758 -100 -108 -21
-123 -34 -115 -95 8 -57 25 -210 37 -345 5 -63 19 -187 29 -274 11 -88 20
-178 20 -200 0 -60 19 -91 55 -91 53 0 57 27 35 221 -11 93 -25 216 -30 274
-6 58 -17 162 -25 231 -22 189 -27 173 53 188 223 41 692 98 712 86 10 -6 10
-589 -1 -800 -9 -176 -2 -205 45 -205 53 0 53 2 59 755 l2 259 40 7 c164 28
885 41 885 17 0 -7 -7 -56 -15 -108 -8 -52 -22 -147 -30 -210 -40 -307 -118
-569 -194 -657 -25 -30 -48 -29 -161 7 -52 16 -104 30 -115 30 -49 0 -62 -59
-19 -86 33 -22 240 -84 280 -84 57 0 135 104 188 250 19 52 38 106 44 120 20
54 65 297 77 420 3 30 9 78 15 105 15 80 21 125 27 206 8 116 36 109 -432 109
-214 0 -432 -5 -484 -10 -54 -6 -99 -6 -103 -2 -5 5 -12 113 -14 239 -5 197
-3 232 10 245 22 23 314 57 493 58 50 0 103 4 117 9 57 22 23 108 -39 99 -5
-1 -68 -5 -140 -10z"/>
<path d="M1436 1254 c-9 -8 -16 -29 -16 -45 0 -22 9 -34 38 -54 20 -14 75 -52
121 -85 46 -33 94 -60 106 -60 29 0 45 18 45 51 0 21 -10 34 -51 60 -29 18
-83 59 -121 91 -73 61 -96 69 -122 42z"/>
<path d="M633 1168 c-30 -37 -18 -72 30 -94 18 -8 75 -41 127 -74 52 -33 102
-60 111 -60 22 0 49 32 49 59 0 15 -14 30 -46 49 -25 15 -82 51 -127 80 -81
52 -125 64 -144 40z"/>
<path d="M1392 898 c-7 -7 -12 -24 -12 -39 0 -32 43 -71 124 -114 28 -15 62
-38 76 -50 52 -47 110 -40 110 14 0 23 -11 37 -52 69 -29 22 -69 48 -88 57
-19 10 -51 31 -71 46 -39 31 -68 36 -87 17z"/>
<path d="M580 836 c-24 -30 -7 -59 55 -95 206 -118 226 -126 253 -99 7 7 12
22 12 35 0 26 -27 47 -160 124 -88 51 -137 61 -160 35z"/>
</g>
</svg>
