<?xml version="1.0" standalone="no"?>
<!DOCTYPE svg PUBLIC "-//W3C//DTD SVG 20010904//EN"
 "http://www.w3.org/TR/2001/REC-SVG-20010904/DTD/svg10.dtd">
<svg version="1.0" xmlns="http://www.w3.org/2000/svg"
 width="248.000000pt" height="248.000000pt" viewBox="0 0 248.000000 248.000000"
 preserveAspectRatio="xMidYMid meet">
<metadata>
Created by potrace 1.10, written by Peter Selinger 2001-2011
</metadata>
<g transform="translate(0.000000,248.000000) scale(0.100000,-0.100000)"
fill="#000000" stroke="none">
<path d="M1655 2108 c-136 -9 -339 -29 -535 -53 -200 -25 -433 -47 -485 -47
-60 0 -95 -19 -95 -53 0 -37 37 -56 96 -50 27 2 101 9 164 15 162 15 370 39
544 61 82 10 214 22 295 25 191 7 210 10 220 37 15 40 -21 82 -64 75 -5 -1
-68 -5 -140 -10z"/>
<path d="M1135 1454 c-269 -24 -621 -71 -785 -104 -109 -21 -124 -34 -116 -95
8 -57 25 -210 37 -345 5 -63 19 -187 29 -274 11 -88 20 -178 20 -200 0 -60 19
-91 55 -91 53 0 57 27 35 221 -11 93 -25 216 -30 274 -6 58 -17 162 -25 231
-22 189 -27 173 53 188 386 71 925 121 1390 128 295 5 352 3 352 -8 0 -8 -7
-57 -15 -109 -8 -52 -22 -147 -30 -210 -40 -307 -118 -569 -194 -657 -25 -30
-48 -29 -161 7 -52 16 -104 30 -115 30 -49 0 -62 -59 -19 -86 33 -22 240 -84
280 -84 57 0 135 104 188 250 19 52 38 106 44 120 20 54 65 297 77 420 3 30 9
78 15 105 15 80 21 125 27 206 8 117 39 109 -447 108 -336 -1 -449 -6 -665
-25z"/>
</g>
</svg>
