<?xml version="1.0" standalone="no"?>
<!DOCTYPE svg PUBLIC "-//W3C//DTD SVG 20010904//EN"
 "http://www.w3.org/TR/2001/REC-SVG-20010904/DTD/svg10.dtd">
<svg version="1.0" xmlns="http://www.w3.org/2000/svg"
 width="248.000000pt" height="248.000000pt" viewBox="0 0 248.000000 248.000000"
 preserveAspectRatio="xMidYMid meet">
<metadata>
Created by potrace 1.10, written by Peter Selinger 2001-2011
</metadata>
<g transform="translate(0.000000,248.000000) scale(0.100000,-0.100000)"
fill="#000000" stroke="none">
<path d="M1665 2108 c-141 -8 -332 -27 -545 -53 -200 -25 -433 -47 -485 -47
-60 0 -95 -19 -95 -53 0 -37 37 -56 96 -50 27 2 103 9 169 15 130 12 292 30
535 60 85 11 220 22 300 25 189 7 209 11 219 38 8 22 -5 67 -20 67 -4 0 -13 2
-21 3 -7 2 -76 0 -153 -5z"/>
</g>
</svg>
