<?xml version="1.0" standalone="no"?>
<!DOCTYPE svg PUBLIC "-//W3C//DTD SVG 20010904//EN"
 "http://www.w3.org/TR/2001/REC-SVG-20010904/DTD/svg10.dtd">
<svg version="1.0" xmlns="http://www.w3.org/2000/svg"
 width="248.000000pt" height="248.000000pt" viewBox="0 0 248.000000 248.000000"
 preserveAspectRatio="xMidYMid meet">
<metadata>
Created by potrace 1.10, written by Peter Selinger 2001-2011
</metadata>
<g transform="translate(0.000000,248.000000) scale(0.100000,-0.100000)"
fill="#000000" stroke="none">
<path d="M695 2270 c-22 -5 -92 -21 -155 -36 -202 -47 -225 -53 -241 -73 -13
-16 -17 -68 -23 -328 -6 -297 -26 -656 -45 -833 -5 -47 -17 -155 -26 -240 -20
-194 -65 -434 -97 -522 -20 -55 12 -99 61 -83 31 10 58 96 106 340 21 105 77
624 92 850 l8 110 80 17 c89 18 259 47 262 44 3 -3 -15 -890 -23 -1089 l-7
-179 -42 46 c-43 47 -78 59 -103 34 -23 -23 -12 -53 44 -128 62 -83 103 -113
143 -103 39 9 50 24 60 83 11 63 27 640 41 1485 8 481 7 582 -4 593 -17 18
-81 23 -131 12z m29 -367 c-4 -148 -9 -271 -13 -275 -4 -4 -76 -19 -160 -33
-85 -14 -158 -28 -163 -31 -10 -6 1 517 11 527 3 4 40 14 81 23 41 9 111 25
155 35 44 11 83 20 87 20 4 1 5 -119 2 -266z"/>
</g>
</svg>
