<?xml version="1.0" standalone="no"?>
<!DOCTYPE svg PUBLIC "-//W3C//DTD SVG 20010904//EN"
 "http://www.w3.org/TR/2001/REC-SVG-20010904/DTD/svg10.dtd">
<svg version="1.0" xmlns="http://www.w3.org/2000/svg"
 width="248.000000pt" height="248.000000pt" viewBox="0 0 248.000000 248.000000"
 preserveAspectRatio="xMidYMid meet">
<metadata>
Created by potrace 1.10, written by Peter Selinger 2001-2011
</metadata>
<g transform="translate(0.000000,248.000000) scale(0.100000,-0.100000)"
fill="#000000" stroke="none">
<path d="M1516 2308 c-12 -17 -16 -49 -16 -135 l0 -112 -32 -6 c-18 -3 -91
-14 -163 -25 -134 -19 -263 -39 -302 -46 -13 -2 -30 -15 -39 -29 -14 -21 -15
-36 -5 -106 6 -45 11 -117 11 -160 0 -57 4 -82 16 -93 23 -24 50 -19 74 12 23
28 23 43 7 251 -2 21 4 25 55 37 31 7 92 18 135 23 43 6 152 21 243 35 91 14
224 30 295 35 282 24 436 34 441 29 6 -6 -46 -112 -88 -177 -34 -55 -35 -76
-4 -96 47 -31 89 17 177 198 59 122 59 149 0 174 -31 14 -58 14 -201 4 -91 -6
-232 -18 -315 -26 -82 -8 -160 -14 -172 -15 -22 0 -23 3 -23 103 0 113 -13
147 -55 147 -13 0 -31 -10 -39 -22z"/>
<path d="M635 2255 c-271 -59 -319 -72 -335 -93 -14 -17 -18 -63 -23 -329 -8
-334 -28 -685 -51 -883 -8 -69 -20 -177 -26 -240 -16 -154 -62 -390 -92 -472
-29 -78 57 -125 91 -50 37 79 94 378 116 607 9 88 17 160 18 161 6 6 338 84
357 84 l23 0 -7 -222 c-3 -123 -9 -301 -12 -396 l-7 -174 -42 46 c-43 47 -78
59 -103 34 -23 -23 -12 -53 44 -128 67 -88 84 -102 130 -103 45 -1 62 17 73
83 11 63 27 640 41 1485 8 471 7 582 -3 593 -23 23 -80 22 -192 -3z m89 -347
c-3 -145 -7 -268 -9 -274 -2 -7 -37 -17 -77 -24 -40 -6 -115 -19 -166 -29
l-92 -17 6 260 c4 144 9 264 13 267 3 4 40 14 81 23 41 9 111 25 155 35 44 11
83 20 87 20 4 1 5 -117 2 -261z m-7 -515 c-4 -71 -7 -154 -7 -185 l0 -57 -37
-6 c-21 -4 -100 -22 -176 -41 -76 -19 -141 -34 -145 -34 -4 0 -4 37 0 83 4 45
11 132 15 192 l8 110 85 17 c83 17 236 45 254 47 5 1 6 -52 3 -126z"/>
<path d="M2105 1560 c-55 -10 -156 -25 -225 -34 -191 -25 -189 -24 -207 -53
-15 -23 -17 -48 -15 -172 1 -80 -5 -254 -15 -386 -22 -315 -28 -589 -13 -638
15 -52 71 -111 122 -130 144 -54 366 -72 516 -41 146 30 163 51 138 175 -9 44
-16 96 -16 117 0 51 -24 84 -58 80 -39 -4 -49 -34 -41 -125 4 -43 10 -90 14
-105 6 -24 3 -28 -22 -35 -15 -4 -100 -8 -188 -8 -192 0 -297 20 -340 65 l-26
27 4 204 c2 112 12 314 21 449 10 148 15 285 11 347 l-6 101 53 11 c29 5 94
15 143 21 50 6 124 17 165 24 41 7 76 13 77 12 1 -1 -4 -31 -12 -66 -7 -36
-28 -158 -46 -272 -17 -114 -35 -212 -40 -219 -5 -9 -21 0 -55 29 -51 46 -82
52 -108 23 -25 -27 -14 -52 49 -109 58 -53 110 -82 147 -82 49 0 60 22 82 160
9 58 33 200 52 315 48 283 50 298 30 314 -24 20 -83 21 -191 1z"/>
<path d="M1535 1533 c-16 -2 -73 -10 -126 -18 -53 -8 -117 -15 -141 -15 -52 0
-62 -9 -82 -71 -37 -115 -191 -438 -225 -472 -6 -6 -11 -24 -11 -39 0 -21 7
-32 25 -40 36 -16 70 11 113 92 18 36 35 66 37 68 6 7 146 -84 198 -128 29
-25 -269 -595 -352 -674 -34 -33 -39 -57 -15 -80 57 -57 133 32 317 369 53 99
167 357 208 471 38 108 118 373 131 435 17 83 -3 109 -77 102z m-35 -127 c0
-8 -5 -27 -11 -43 -6 -15 -26 -80 -44 -143 -19 -63 -43 -137 -55 -163 l-22
-48 -26 17 c-15 9 -43 29 -62 44 -19 15 -50 35 -67 44 -18 9 -33 20 -33 24 0
5 22 57 50 118 27 60 50 114 50 121 0 7 15 15 33 18 17 3 55 9 82 14 78 14
105 13 105 -3z"/>
</g>
</svg>
