<?xml version="1.0" standalone="no"?>
<!DOCTYPE svg PUBLIC "-//W3C//DTD SVG 20010904//EN"
 "http://www.w3.org/TR/2001/REC-SVG-20010904/DTD/svg10.dtd">
<svg version="1.0" xmlns="http://www.w3.org/2000/svg"
 width="248.000000pt" height="248.000000pt" viewBox="0 0 248.000000 248.000000"
 preserveAspectRatio="xMidYMid meet">
<metadata>
Created by potrace 1.10, written by Peter Selinger 2001-2011
</metadata>
<g transform="translate(0.000000,248.000000) scale(0.100000,-0.100000)"
fill="#000000" stroke="none">
<path d="M296 2148 c-10 -18 -15 -92 -20 -323 -6 -290 -26 -649 -45 -825 -5
-47 -17 -155 -26 -240 -20 -194 -65 -434 -97 -522 -32 -85 60 -124 95 -40 33
77 89 367 107 552 6 63 18 171 26 240 21 181 43 545 51 857 6 245 5 274 -11
297 -21 33 -60 34 -80 4z"/>
</g>
</svg>
