<?xml version="1.0" standalone="no"?>
<!DOCTYPE svg PUBLIC "-//W3C//DTD SVG 20010904//EN"
 "http://www.w3.org/TR/2001/REC-SVG-20010904/DTD/svg10.dtd">
<svg version="1.0" xmlns="http://www.w3.org/2000/svg"
 width="248.000000pt" height="248.000000pt" viewBox="0 0 248.000000 248.000000"
 preserveAspectRatio="xMidYMid meet">
<metadata>
Created by potrace 1.10, written by Peter Selinger 2001-2011
</metadata>
<g transform="translate(0.000000,248.000000) scale(0.100000,-0.100000)"
fill="#000000" stroke="none">
<path d="M1516 2308 c-12 -17 -16 -48 -16 -134 l0 -112 -27 -6 c-16 -3 -59
-10 -98 -15 -38 -6 -115 -18 -170 -27 -55 -8 -120 -18 -145 -20 -77 -9 -87
-13 -99 -43 -9 -21 -10 -48 -2 -105 6 -43 11 -113 11 -156 0 -58 4 -83 16 -94
23 -24 50 -19 74 12 24 29 23 14 7 251 -2 23 4 26 58 38 33 7 94 17 135 22 41
5 149 21 240 34 91 14 224 30 295 36 328 27 435 34 440 29 7 -7 -48 -119 -87
-175 -34 -51 -35 -78 -4 -98 47 -31 89 17 177 198 59 122 59 150 0 174 -39 17
-162 11 -521 -22 -85 -8 -163 -14 -172 -15 -16 0 -18 11 -18 98 0 58 -5 107
-13 122 -17 34 -60 39 -81 8z"/>
<path d="M695 2270 c-22 -5 -92 -21 -155 -36 -202 -47 -225 -53 -241 -73 -13
-16 -17 -68 -23 -328 -6 -297 -26 -656 -45 -833 -5 -47 -17 -155 -26 -240 -20
-194 -65 -434 -97 -522 -32 -85 60 -124 95 -40 36 84 89 367 112 597 9 88 17
160 18 161 6 6 338 84 357 84 l23 0 -7 -217 c-3 -120 -9 -298 -12 -396 l-7
-179 -42 46 c-43 47 -78 59 -103 34 -23 -23 -12 -53 44 -128 62 -83 103 -113
143 -103 39 9 50 24 60 83 11 63 27 640 41 1485 8 481 7 582 -4 593 -17 18
-81 23 -131 12z m29 -367 c-4 -148 -9 -271 -13 -275 -4 -4 -76 -19 -160 -33
-85 -14 -158 -28 -163 -31 -10 -6 1 517 11 527 3 4 40 14 81 23 41 9 111 25
155 35 44 11 83 20 87 20 4 1 5 -119 2 -266z m-7 -510 c-4 -71 -7 -153 -7
-184 l0 -56 -82 -17 c-46 -9 -122 -28 -170 -42 -48 -13 -93 -24 -100 -24 -11
0 -12 17 -6 83 4 45 11 131 15 192 l8 110 80 17 c67 14 227 43 259 47 5 1 6
-52 3 -126z"/>
<path d="M1208 1483 c-9 -10 -19 -33 -23 -52 -4 -18 -18 -58 -32 -90 -13 -31
-38 -87 -55 -126 -17 -38 -58 -116 -90 -173 -65 -116 -71 -146 -33 -164 21
-10 30 -8 53 9 15 11 34 33 42 49 8 16 31 58 51 94 20 36 56 108 79 160 23 52
46 104 51 115 37 82 49 161 27 183 -17 17 -53 15 -70 -5z"/>
</g>
</svg>
