<?xml version="1.0" standalone="no"?>
<!DOCTYPE svg PUBLIC "-//W3C//DTD SVG 20010904//EN"
 "http://www.w3.org/TR/2001/REC-SVG-20010904/DTD/svg10.dtd">
<svg version="1.0" xmlns="http://www.w3.org/2000/svg"
 width="248.000000pt" height="248.000000pt" viewBox="0 0 248.000000 248.000000"
 preserveAspectRatio="xMidYMid meet">
<metadata>
Created by potrace 1.10, written by Peter Selinger 2001-2011
</metadata>
<g transform="translate(0.000000,248.000000) scale(0.100000,-0.100000)"
fill="#000000" stroke="none">
<path d="M759 2327 c-30 -18 -72 -44 -94 -58 -22 -14 -116 -63 -208 -108 -177
-87 -201 -106 -178 -150 17 -31 53 -26 132 17 59 31 71 35 79 22 14 -22 13
-157 -2 -166 -7 -4 -78 -25 -158 -45 -228 -59 -270 -78 -270 -124 0 -37 25
-51 68 -37 106 32 329 92 345 92 15 0 17 -11 17 -84 0 -95 -3 -100 -70 -110
-25 -4 -90 -20 -145 -35 -55 -16 -112 -32 -127 -35 -37 -8 -54 -41 -39 -74 7
-14 16 -84 21 -156 5 -72 12 -173 16 -224 7 -92 19 -122 48 -122 7 0 58 11
112 24 54 14 115 26 134 28 l35 3 1 -81 c2 -125 2 -127 -66 -147 -32 -9 -91
-22 -132 -28 -114 -17 -117 -18 -128 -39 -14 -26 -4 -57 22 -71 15 -8 52 -4
155 16 74 15 137 24 140 21 4 -3 1 -57 -5 -119 -6 -61 -8 -123 -5 -137 4 -25
0 -27 -159 -82 -90 -32 -178 -60 -196 -63 -54 -11 -64 -77 -15 -96 33 -12 67
-3 283 75 193 71 436 181 514 235 37 26 46 38 46 62 0 21 -7 32 -24 40 -20 10
-38 3 -135 -50 -115 -64 -201 -104 -208 -98 -5 6 -6 36 -4 155 1 120 -11 108
149 143 83 18 107 27 119 46 14 21 14 25 -1 48 -20 30 -38 31 -135 5 -126 -34
-121 -37 -121 79 0 67 4 102 13 108 15 13 83 28 216 48 102 16 147 31 168 57
18 22 66 225 87 368 3 20 6 67 7 105 2 61 -1 70 -21 87 -13 10 -30 16 -38 13
-8 -3 -46 -10 -86 -16 -39 -5 -123 -19 -186 -30 -161 -27 -150 -29 -149 39 3
120 -10 110 189 159 96 24 202 45 235 46 33 2 66 6 73 11 21 13 30 49 19 73
-19 43 -39 41 -325 -28 -90 -22 -167 -37 -172 -34 -5 3 -9 50 -9 104 l0 98
139 82 c76 46 141 89 144 97 12 30 -20 74 -53 74 -4 0 -32 -15 -62 -33z m198
-813 c-7 -65 -18 -82 -61 -88 -160 -25 -250 -36 -280 -36 l-36 0 0 55 c0 42 4
56 18 64 23 12 267 55 341 60 23 1 24 -1 18 -55z m-469 -89 c0 -30 -3 -57 -8
-60 -11 -7 -242 -56 -246 -53 -1 2 -6 27 -10 55 l-6 52 43 11 c24 6 71 20 104
30 33 10 74 19 91 19 30 1 31 1 32 -54z m432 -117 c0 -5 -7 -35 -16 -65 -19
-66 -35 -75 -179 -99 -162 -28 -151 -32 -146 56 2 41 4 76 6 78 5 6 320 49
328 45 4 -2 7 -9 7 -15z m-442 -130 c-3 -93 10 -82 -136 -114 -45 -9 -85 -14
-88 -11 -4 4 -10 39 -13 78 -6 56 -4 72 7 77 12 4 198 46 225 51 4 0 7 -36 5
-81z"/>
<path d="M1663 2290 c-13 -5 -23 -13 -24 -17 0 -4 -1 -60 -3 -123 -3 -95 -10
-137 -39 -240 -19 -69 -39 -143 -44 -165 -7 -32 -14 -41 -33 -43 -48 -6 -225
-54 -237 -64 -16 -13 -17 -50 -1 -66 17 -17 61 -15 148 8 41 10 76 17 79 14
16 -16 -104 -487 -163 -639 -55 -141 -167 -389 -178 -393 -4 -2 -8 -7 -8 -12
0 -4 -22 -46 -50 -93 -52 -89 -60 -117 -36 -136 31 -26 68 -9 99 44 74 124 91
155 126 230 153 321 211 492 291 860 16 76 34 143 39 148 17 17 586 65 600 51
5 -5 -6 -86 -44 -334 -8 -52 -22 -142 -30 -200 -24 -158 -74 -314 -190 -587
-45 -108 -107 -213 -145 -248 -17 -15 -23 -13 -101 40 -89 58 -108 64 -133 39
-36 -36 -22 -55 111 -147 103 -72 129 -74 185 -14 78 83 134 182 203 359 37
95 76 196 87 223 34 86 65 215 87 360 12 77 31 196 41 265 25 153 39 296 33
320 -9 34 -41 38 -198 24 -265 -22 -476 -36 -481 -32 -4 4 7 46 57 228 12 44
23 122 26 191 5 109 5 117 -16 138 -23 23 -26 24 -58 11z"/>
</g>
</svg>
