<?xml version="1.0" standalone="no"?>
<!DOCTYPE svg PUBLIC "-//W3C//DTD SVG 20010904//EN"
 "http://www.w3.org/TR/2001/REC-SVG-20010904/DTD/svg10.dtd">
<svg version="1.0" xmlns="http://www.w3.org/2000/svg"
 width="248.000000pt" height="248.000000pt" viewBox="0 0 248.000000 248.000000"
 preserveAspectRatio="xMidYMid meet">
<metadata>
Created by potrace 1.10, written by Peter Selinger 2001-2011
</metadata>
<g transform="translate(0.000000,248.000000) scale(0.100000,-0.100000)"
fill="#000000" stroke="none">
<path d="M759 2327 c-30 -18 -72 -44 -94 -58 -22 -14 -116 -63 -208 -108 -177
-87 -201 -106 -178 -150 18 -32 53 -26 144 23 45 24 111 56 147 71 92 38 300
165 301 184 2 31 -3 46 -19 59 -23 18 -32 16 -93 -21z"/>
<path d="M925 1975 c-55 -12 -172 -39 -260 -59 -88 -20 -211 -48 -274 -62
-153 -35 -288 -78 -312 -100 -23 -21 -25 -57 -3 -75 12 -10 24 -10 52 -2 135
42 302 86 392 104 58 11 179 39 270 61 91 22 190 41 220 42 30 1 61 5 68 10
37 23 29 89 -12 100 -28 8 -25 8 -141 -19z"/>
<path d="M940 1675 c-36 -7 -114 -20 -175 -29 -106 -17 -244 -45 -410 -86
-236 -58 -264 -71 -250 -115 14 -43 24 -127 35 -290 13 -192 21 -220 65 -220
45 0 61 41 47 119 -13 69 -19 143 -11 150 10 10 341 76 479 96 80 11 157 22
173 25 32 5 33 -2 11 -83 -11 -40 -23 -61 -38 -68 -24 -10 -33 -49 -16 -70 17
-20 83 -18 108 4 22 18 47 106 76 262 24 126 25 138 27 214 2 61 -1 72 -21 88
-12 10 -25 17 -29 17 -3 -1 -35 -7 -71 -14z m17 -161 c-3 -30 -11 -62 -17 -69
-13 -16 -13 -16 -230 -46 -85 -11 -226 -36 -314 -55 -87 -19 -160 -33 -162
-32 -1 2 -6 26 -9 54 l-7 51 72 22 c40 13 125 33 189 47 64 13 121 26 128 29
26 9 280 50 332 54 23 1 24 -1 18 -55z"/>
</g>
</svg>
