<?xml version="1.0" standalone="no"?>
<!DOCTYPE svg PUBLIC "-//W3C//DTD SVG 20010904//EN"
 "http://www.w3.org/TR/2001/REC-SVG-20010904/DTD/svg10.dtd">
<svg version="1.0" xmlns="http://www.w3.org/2000/svg"
 width="248.000000pt" height="248.000000pt" viewBox="0 0 248.000000 248.000000"
 preserveAspectRatio="xMidYMid meet">
<metadata>
Created by potrace 1.10, written by Peter Selinger 2001-2011
</metadata>
<g transform="translate(0.000000,248.000000) scale(0.100000,-0.100000)"
fill="#000000" stroke="none">
<path d="M759 2327 c-30 -18 -72 -44 -94 -58 -22 -14 -116 -63 -208 -108 -177
-87 -201 -106 -178 -150 18 -32 53 -26 144 23 45 24 111 56 147 71 92 38 300
165 301 184 2 31 -3 46 -19 59 -23 18 -32 16 -93 -21z"/>
<path d="M925 1975 c-55 -12 -172 -39 -260 -59 -88 -20 -211 -48 -274 -62
-153 -35 -288 -78 -312 -100 -23 -21 -25 -57 -3 -75 12 -10 24 -10 52 -2 135
42 302 86 392 104 58 11 179 39 270 61 91 22 190 41 220 42 30 1 61 5 68 10
37 23 29 89 -12 100 -28 8 -25 8 -141 -19z"/>
</g>
</svg>
