<?xml version="1.0" standalone="no"?>
<!DOCTYPE svg PUBLIC "-//W3C//DTD SVG 20010904//EN"
 "http://www.w3.org/TR/2001/REC-SVG-20010904/DTD/svg10.dtd">
<svg version="1.0" xmlns="http://www.w3.org/2000/svg"
 width="248.000000pt" height="248.000000pt" viewBox="0 0 248.000000 248.000000"
 preserveAspectRatio="xMidYMid meet">
<metadata>
Created by potrace 1.10, written by Peter Selinger 2001-2011
</metadata>
<g transform="translate(0.000000,248.000000) scale(0.100000,-0.100000)"
fill="#000000" stroke="none">
<path d="M1400 2345 c-41 -7 -172 -27 -290 -45 -118 -17 -226 -37 -240 -44
-36 -17 -39 -60 -5 -82 24 -16 34 -15 208 14 181 31 327 49 327 40 0 -2 -30
-29 -67 -59 -38 -30 -95 -76 -129 -104 -33 -27 -75 -58 -92 -67 -40 -22 -41
-49 -4 -104 33 -48 96 -218 89 -238 -3 -8 -30 -16 -64 -20 -32 -4 -92 -15
-133 -26 -41 -11 -86 -20 -100 -20 -66 0 -93 -69 -39 -99 23 -13 37 -11 140
13 63 14 139 27 169 29 l55 2 9 -83 c4 -46 6 -85 4 -87 -2 -2 -67 -16 -143
-30 -158 -29 -208 -49 -213 -83 -7 -49 32 -63 120 -42 24 6 86 18 139 29 l97
18 6 -51 c3 -28 6 -74 6 -101 l0 -51 -92 -12 c-281 -36 -302 -42 -296 -90 5
-48 31 -51 200 -26 84 13 162 23 172 23 18 1 19 -6 13 -171 -6 -154 -10 -188
-41 -305 -49 -185 -73 -228 -97 -172 -30 73 -85 109 -117 77 -20 -20 -14 -50
24 -123 60 -114 84 -131 142 -101 59 31 101 113 146 288 40 153 56 269 56 415
0 114 -8 103 82 118 44 7 68 28 68 59 0 38 -23 49 -88 41 l-59 -7 -6 54 c-4
29 -7 77 -7 106 l0 52 33 0 c42 0 77 25 77 54 0 33 -24 49 -73 50 l-42 1 -7
80 c-4 44 -6 85 -4 91 2 6 34 14 71 16 72 6 105 26 105 63 0 38 -22 46 -114
43 l-87 -3 -33 96 c-18 52 -41 109 -50 127 -9 17 -16 33 -16 35 0 2 48 42 107
88 142 111 283 248 283 275 0 58 -62 73 -200 49z"/>
<path d="M535 1540 c-66 -11 -138 -19 -160 -19 -46 -1 -65 -15 -65 -47 0 -54
66 -65 225 -39 124 21 135 20 135 -7 -1 -35 -55 -313 -78 -399 -42 -157 -148
-379 -255 -535 -122 -179 -126 -191 -72 -216 22 -10 29 -8 50 12 42 40 175
240 225 340 117 235 158 358 211 645 33 181 36 231 13 263 -19 27 -60 28 -229
2z"/>
</g>
</svg>
