<?xml version="1.0" standalone="no"?>
<!DOCTYPE svg PUBLIC "-//W3C//DTD SVG 20010904//EN"
 "http://www.w3.org/TR/2001/REC-SVG-20010904/DTD/svg10.dtd">
<svg version="1.0" xmlns="http://www.w3.org/2000/svg"
 width="248.000000pt" height="248.000000pt" viewBox="0 0 248.000000 248.000000"
 preserveAspectRatio="xMidYMid meet">
<metadata>
Created by potrace 1.10, written by Peter Selinger 2001-2011
</metadata>
<g transform="translate(0.000000,248.000000) scale(0.100000,-0.100000)"
fill="#000000" stroke="none">
<path d="M1400 2345 c-41 -7 -172 -27 -290 -45 -118 -17 -226 -37 -240 -44
-36 -17 -39 -60 -5 -82 24 -16 34 -15 208 14 181 31 327 49 327 40 0 -2 -30
-29 -67 -59 -38 -30 -95 -76 -129 -104 -33 -27 -75 -58 -92 -67 -40 -21 -41
-49 -6 -99 36 -53 82 -179 104 -289 27 -127 44 -493 37 -780 -5 -217 -7 -230
-41 -357 -49 -185 -73 -228 -97 -172 -30 73 -85 109 -117 77 -20 -20 -14 -50
24 -123 60 -114 84 -131 142 -101 59 31 101 113 147 289 51 197 58 286 51 629
-7 306 -15 416 -42 553 -15 80 -61 220 -89 275 -8 16 -15 31 -15 33 0 2 48 42
107 88 142 111 283 248 283 275 0 58 -62 73 -200 49z"/>
</g>
</svg>
