<?xml version="1.0" standalone="no"?>
<!DOCTYPE svg PUBLIC "-//W3C//DTD SVG 20010904//EN"
 "http://www.w3.org/TR/2001/REC-SVG-20010904/DTD/svg10.dtd">
<svg version="1.0" xmlns="http://www.w3.org/2000/svg"
 width="248.000000pt" height="248.000000pt" viewBox="0 0 248.000000 248.000000"
 preserveAspectRatio="xMidYMid meet">
<metadata>
Created by potrace 1.10, written by Peter Selinger 2001-2011
</metadata>
<g transform="translate(0.000000,248.000000) scale(0.100000,-0.100000)"
fill="#000000" stroke="none">
<path d="M1400 2345 c-41 -7 -172 -27 -290 -45 -118 -17 -226 -37 -240 -44
-36 -17 -39 -60 -5 -82 24 -16 34 -15 208 14 181 31 327 49 327 40 0 -2 -30
-29 -67 -59 -38 -30 -95 -76 -129 -104 -33 -27 -75 -58 -92 -67 -40 -22 -41
-49 -4 -104 33 -48 96 -218 89 -238 -3 -8 -30 -16 -64 -20 -32 -4 -92 -15
-133 -26 -41 -11 -86 -20 -100 -20 -66 0 -93 -69 -39 -99 23 -13 37 -11 140
13 63 14 139 27 169 29 l55 2 9 -83 c4 -46 6 -85 4 -87 -2 -2 -67 -16 -143
-30 -158 -29 -208 -49 -213 -83 -7 -49 32 -63 120 -42 24 6 87 18 140 29 l97
18 7 -74 c3 -41 4 -188 1 -327 -5 -248 -6 -253 -40 -383 -50 -185 -74 -228
-98 -172 -30 73 -85 109 -117 77 -20 -20 -14 -50 24 -123 60 -114 84 -131 142
-101 59 31 101 113 147 289 49 190 59 297 52 590 l-6 247 32 0 c42 0 77 25 77
54 0 33 -24 49 -73 50 l-42 1 -7 80 c-4 44 -6 85 -4 91 2 6 34 14 71 16 72 6
105 26 105 63 0 38 -22 46 -114 43 l-87 -3 -33 96 c-18 52 -41 109 -50 127 -9
17 -16 33 -16 35 0 2 48 42 107 88 142 111 283 248 283 275 0 58 -62 73 -200
49z"/>
</g>
</svg>
