<?xml version="1.0" standalone="no"?>
<!DOCTYPE svg PUBLIC "-//W3C//DTD SVG 20010904//EN"
 "http://www.w3.org/TR/2001/REC-SVG-20010904/DTD/svg10.dtd">
<svg version="1.0" xmlns="http://www.w3.org/2000/svg"
 width="248.000000pt" height="248.000000pt" viewBox="0 0 248.000000 248.000000"
 preserveAspectRatio="xMidYMid meet">
<metadata>
Created by potrace 1.10, written by Peter Selinger 2001-2011
</metadata>
<g transform="translate(0.000000,248.000000) scale(0.100000,-0.100000)"
fill="#000000" stroke="none">
<path d="M1400 2345 c-41 -7 -172 -27 -290 -45 -118 -17 -226 -37 -240 -44
-36 -17 -39 -60 -5 -82 24 -16 34 -15 208 14 181 31 327 49 327 40 0 -2 -30
-29 -67 -59 -153 -123 -198 -163 -208 -186 -12 -31 4 -57 37 -61 49 -6 438
326 438 374 0 58 -62 73 -200 49z"/>
</g>
</svg>
