<?xml version="1.0" standalone="no"?>
<!DOCTYPE svg PUBLIC "-//W3C//DTD SVG 20010904//EN"
 "http://www.w3.org/TR/2001/REC-SVG-20010904/DTD/svg10.dtd">
<svg version="1.0" xmlns="http://www.w3.org/2000/svg"
 width="248.000000pt" height="248.000000pt" viewBox="0 0 248.000000 248.000000"
 preserveAspectRatio="xMidYMid meet">
<metadata>
Created by potrace 1.10, written by Peter Selinger 2001-2011
</metadata>
<g transform="translate(0.000000,248.000000) scale(0.100000,-0.100000)"
fill="#000000" stroke="none">
<path d="M1675 2383 c-27 -2 -96 -10 -151 -18 -56 -8 -128 -15 -160 -15 -33 0
-99 -7 -149 -15 -49 -9 -167 -18 -262 -22 -94 -3 -177 -9 -184 -13 -16 -10
-13 -1150 3 -1185 6 -13 18 -25 27 -27 19 -4 136 6 311 26 180 21 303 34 490
52 91 8 194 19 230 25 36 5 92 12 126 15 58 6 61 6 67 -17 13 -46 7 -319 -8
-417 -39 -245 -87 -393 -177 -539 -24 -40 -37 -41 -69 -7 -64 68 -132 81 -145
27 -6 -24 1 -35 64 -95 61 -58 77 -68 107 -68 53 0 88 23 127 82 98 147 151
311 199 608 19 116 21 158 15 302 -3 92 -11 179 -18 192 -25 56 -70 56 -438 1
-14 -2 -73 -7 -132 -10 l-108 -7 0 140 0 140 38 6 c20 3 75 8 122 11 115 8
210 24 238 41 39 25 22 85 -25 85 -10 1 -85 -6 -168 -15 -82 -9 -160 -16 -172
-16 -21 0 -22 3 -21 114 l1 115 51 5 c28 3 102 10 164 16 128 12 156 20 172
50 9 17 8 26 -5 46 -8 13 -19 24 -23 24 -18 0 -301 -30 -329 -35 l-33 -6 0
113 c0 62 -3 122 -6 134 -5 19 1 21 78 32 46 7 127 16 182 21 105 11 136 25
136 66 0 44 -18 48 -165 38z m-335 -282 l0 -140 -57 -5 c-32 -3 -128 -15 -213
-26 -225 -30 -200 -43 -200 109 0 71 -3 136 -6 144 -4 12 15 16 113 22 65 4
154 13 198 20 44 7 99 13 123 14 l42 1 0 -139z m8 -287 c2 -21 1 -71 -3 -110
l-6 -72 -117 -12 c-64 -6 -166 -18 -225 -26 -59 -8 -112 -14 -117 -14 -6 0
-10 46 -10 110 0 69 4 110 10 110 6 0 72 9 148 20 158 22 292 38 307 35 6 -1
12 -19 13 -41z m-18 -429 l0 -145 -33 0 c-18 0 -82 -6 -143 -14 -60 -8 -148
-17 -196 -21 l-88 -7 0 136 c0 101 3 138 13 140 11 4 52 9 327 41 63 7 116 13
118 14 1 1 2 -64 2 -144z"/>
</g>
</svg>
