<?xml version="1.0" standalone="no"?>
<!DOCTYPE svg PUBLIC "-//W3C//DTD SVG 20010904//EN"
 "http://www.w3.org/TR/2001/REC-SVG-20010904/DTD/svg10.dtd">
<svg version="1.0" xmlns="http://www.w3.org/2000/svg"
 width="248.000000pt" height="248.000000pt" viewBox="0 0 248.000000 248.000000"
 preserveAspectRatio="xMidYMid meet">
<metadata>
Created by potrace 1.10, written by Peter Selinger 2001-2011
</metadata>
<g transform="translate(0.000000,248.000000) scale(0.100000,-0.100000)"
fill="#000000" stroke="none">
<path d="M1675 2383 c-27 -2 -93 -10 -146 -18 -53 -8 -125 -15 -160 -15 -35 0
-104 -7 -154 -15 -49 -9 -167 -18 -262 -22 -94 -3 -177 -9 -184 -13 -15 -10
-13 -1150 3 -1185 12 -27 35 -35 65 -24 16 6 23 19 28 51 3 24 5 271 3 550
l-3 506 110 7 c61 3 155 13 209 21 55 8 112 14 128 14 l28 0 2 -202 c3 -269 3
-303 -6 -583 -8 -269 -5 -290 49 -290 20 0 33 7 41 22 18 38 35 969 18 1039
-5 19 1 22 78 32 46 7 127 16 182 21 105 11 136 25 136 66 0 44 -17 48 -165
38z"/>
</g>
</svg>
