<?xml version="1.0" standalone="no"?>
<!DOCTYPE svg PUBLIC "-//W3C//DTD SVG 20010904//EN"
 "http://www.w3.org/TR/2001/REC-SVG-20010904/DTD/svg10.dtd">
<svg version="1.0" xmlns="http://www.w3.org/2000/svg"
 width="248.000000pt" height="248.000000pt" viewBox="0 0 248.000000 248.000000"
 preserveAspectRatio="xMidYMid meet">
<metadata>
Created by potrace 1.10, written by Peter Selinger 2001-2011
</metadata>
<g transform="translate(0.000000,248.000000) scale(0.100000,-0.100000)"
fill="#000000" stroke="none">
<path d="M540 2375 c-10 -12 -12 -75 -11 -284 l2 -269 -43 -6 c-83 -12 -289
-65 -304 -77 -23 -19 -13 -62 17 -76 22 -11 44 -8 148 17 67 17 124 30 127 30
13 0 1 -111 -20 -187 -13 -48 -38 -137 -55 -198 -64 -234 -155 -459 -250 -618
-29 -50 -33 -61 -23 -82 9 -19 19 -25 42 -25 24 0 36 9 61 43 17 23 35 53 40
66 5 13 18 35 28 50 38 55 172 413 218 581 12 47 7 -620 -8 -922 -6 -125 -8
-243 -5 -262 12 -61 73 -73 94 -18 16 43 32 534 36 1085 1 279 5 510 9 513 8
8 143 42 217 54 70 12 100 31 100 64 -1 58 -37 62 -204 22 -58 -14 -108 -26
-110 -26 -2 0 -6 107 -8 238 -4 261 -10 294 -59 300 -14 2 -31 -4 -39 -13z"/>
</g>
</svg>
