<?xml version="1.0" standalone="no"?>
<!DOCTYPE svg PUBLIC "-//W3C//DTD SVG 20010904//EN"
 "http://www.w3.org/TR/2001/REC-SVG-20010904/DTD/svg10.dtd">
<svg version="1.0" xmlns="http://www.w3.org/2000/svg"
 width="248.000000pt" height="248.000000pt" viewBox="0 0 248.000000 248.000000"
 preserveAspectRatio="xMidYMid meet">
<metadata>
Created by potrace 1.10, written by Peter Selinger 2001-2011
</metadata>
<g transform="translate(0.000000,248.000000) scale(0.100000,-0.100000)"
fill="#000000" stroke="none">
<path d="M540 2375 c-10 -12 -12 -75 -11 -284 l2 -269 -43 -6 c-83 -12 -289
-65 -304 -77 -23 -19 -13 -62 17 -76 22 -11 44 -8 148 17 67 17 124 30 127 30
13 0 1 -111 -20 -187 -13 -48 -38 -137 -55 -198 -64 -234 -155 -459 -250 -618
-29 -50 -33 -61 -23 -82 9 -19 19 -25 42 -25 24 0 36 9 61 43 17 23 35 53 40
66 5 13 18 35 28 50 38 55 172 413 218 581 12 47 7 -620 -8 -922 -6 -125 -8
-243 -5 -262 12 -61 73 -73 94 -18 15 41 31 494 34 964 2 230 6 418 9 418 3 0
26 -28 52 -62 97 -132 115 -154 151 -185 53 -48 116 -42 116 10 0 10 -33 54
-73 97 -68 74 -247 326 -247 349 0 6 17 15 38 20 90 24 160 39 202 45 51 8 80
30 80 60 -1 58 -37 62 -204 22 -58 -14 -108 -26 -110 -26 -2 0 -6 107 -8 238
-4 261 -10 294 -59 300 -14 2 -31 -4 -39 -13z"/>
<path d="M1210 2285 c-8 -9 -12 -38 -11 -68 3 -114 -53 -347 -113 -464 -14
-29 -26 -61 -26 -71 0 -27 24 -44 57 -40 24 3 34 14 65 78 21 41 47 103 59
136 l21 62 61 6 c92 10 200 26 307 46 52 10 127 22 165 25 39 4 99 13 135 22
36 8 114 20 173 28 59 7 115 19 123 26 23 19 13 62 -18 77 -30 14 -172 2 -263
-23 -27 -7 -70 -16 -95 -19 -25 -3 -85 -10 -134 -16 -49 -6 -93 -13 -97 -15
-9 -6 -283 -45 -315 -45 -23 0 -25 3 -20 28 26 119 25 192 -4 227 -16 19 -54
19 -70 0z"/>
<path d="M1935 1784 c-73 -9 -242 -38 -385 -66 -85 -17 -176 -34 -202 -37 -75
-11 -79 -18 -72 -130 4 -66 1 -130 -10 -206 -9 -60 -22 -146 -28 -190 -6 -44
-14 -83 -17 -87 -3 -4 -106 -27 -229 -52 -123 -25 -230 -50 -238 -57 -17 -14
-18 -51 -2 -67 20 -20 95 -14 265 23 90 19 167 35 173 35 15 0 12 -57 -6 -125
-70 -266 -84 -358 -61 -390 14 -18 28 -19 178 -20 163 -1 462 -20 529 -34 42
-9 42 -13 -1 -154 l-30 -98 -35 7 c-68 13 -88 -46 -33 -97 33 -31 74 -38 110
-19 34 19 99 179 124 307 4 18 7 33 8 33 1 -1 38 -10 82 -21 118 -31 149 -33
164 -15 33 39 -22 95 -108 111 -20 3 -52 11 -73 16 l-36 9 28 104 c15 57 31
128 35 157 4 30 11 64 16 77 5 12 14 75 20 140 6 64 15 122 20 128 5 6 60 13
128 17 141 6 176 19 176 62 0 40 -33 56 -105 50 -30 -3 -88 -7 -129 -10 l-73
-5 3 284 c5 333 9 319 -93 322 -35 1 -76 0 -93 -2z m79 -356 c-4 -139 -8 -254
-9 -256 -4 -5 -171 -30 -238 -36 l-68 -5 5 27 c12 65 28 349 23 415 l-5 73 91
13 c51 7 97 14 102 16 6 2 32 4 58 4 l48 1 -7 -252z m-394 87 c0 -98 -16 -334
-25 -381 -4 -18 -18 -22 -131 -38 -69 -9 -127 -16 -129 -14 -2 2 3 39 10 83
25 156 47 343 43 376 l-3 34 85 22 c47 12 100 22 118 22 l32 1 0 -105z m387
-487 c-4 -18 -9 -62 -13 -98 -11 -112 -80 -429 -98 -447 -2 -2 -64 3 -137 11
-74 9 -149 16 -166 16 -31 0 -32 1 -22 28 23 57 58 202 80 329 12 73 26 137
29 144 4 6 65 17 135 25 71 8 131 16 133 19 3 3 19 5 35 5 28 0 29 -2 24 -32z
m-441 -50 c-3 -13 -13 -63 -21 -113 -9 -49 -28 -135 -42 -190 -14 -55 -28
-112 -30 -126 l-5 -26 -121 5 c-67 2 -123 6 -125 7 -2 2 15 74 36 161 22 88
43 183 47 211 4 29 11 56 16 59 14 8 158 31 207 33 39 1 42 -1 38 -21z"/>
</g>
</svg>
