<?xml version="1.0" standalone="no"?>
<!DOCTYPE svg PUBLIC "-//W3C//DTD SVG 20010904//EN"
 "http://www.w3.org/TR/2001/REC-SVG-20010904/DTD/svg10.dtd">
<svg version="1.0" xmlns="http://www.w3.org/2000/svg"
 width="248.000000pt" height="248.000000pt" viewBox="0 0 248.000000 248.000000"
 preserveAspectRatio="xMidYMid meet">
<metadata>
Created by potrace 1.10, written by Peter Selinger 2001-2011
</metadata>
<g transform="translate(0.000000,248.000000) scale(0.100000,-0.100000)"
fill="#000000" stroke="none">
<path d="M880 1903 c-14 -2 -79 -17 -145 -33 -66 -15 -169 -38 -230 -50 -171
-34 -306 -68 -322 -81 -22 -19 -12 -62 18 -76 22 -11 42 -9 130 13 57 14 151
34 209 45 58 11 148 31 200 44 52 12 115 26 140 29 51 8 80 30 80 60 0 40 -29
57 -80 49z"/>
</g>
</svg>
