<?xml version="1.0" standalone="no"?>
<!DOCTYPE svg PUBLIC "-//W3C//DTD SVG 20010904//EN"
 "http://www.w3.org/TR/2001/REC-SVG-20010904/DTD/svg10.dtd">
<svg version="1.0" xmlns="http://www.w3.org/2000/svg"
 width="248.000000pt" height="248.000000pt" viewBox="0 0 248.000000 248.000000"
 preserveAspectRatio="xMidYMid meet">
<metadata>
Created by potrace 1.10, written by Peter Selinger 2001-2011
</metadata>
<g transform="translate(0.000000,248.000000) scale(0.100000,-0.100000)"
fill="#000000" stroke="none">
<path d="M540 2375 c-10 -12 -12 -75 -11 -284 l2 -269 -43 -6 c-83 -12 -289
-65 -304 -77 -23 -19 -13 -62 17 -76 22 -11 44 -8 148 17 181 44 167 50 174
-77 8 -148 -1 -907 -14 -1185 -6 -125 -8 -243 -5 -262 12 -61 73 -73 94 -18
17 47 33 527 35 1074 l1 527 106 25 c58 14 123 28 145 31 47 8 75 30 75 59 -1
58 -37 62 -204 22 -58 -14 -108 -26 -110 -26 -2 0 -6 107 -8 238 -4 261 -10
294 -59 300 -14 2 -31 -4 -39 -13z"/>
</g>
</svg>
