<?xml version="1.0" standalone="no"?>
<!DOCTYPE svg PUBLIC "-//W3C//DTD SVG 20010904//EN"
 "http://www.w3.org/TR/2001/REC-SVG-20010904/DTD/svg10.dtd">
<svg version="1.0" xmlns="http://www.w3.org/2000/svg"
 width="248.000000pt" height="248.000000pt" viewBox="0 0 248.000000 248.000000"
 preserveAspectRatio="xMidYMid meet">
<metadata>
Created by potrace 1.10, written by Peter Selinger 2001-2011
</metadata>
<g transform="translate(0.000000,248.000000) scale(0.100000,-0.100000)"
fill="#000000" stroke="none">
<path d="M540 2375 c-10 -12 -12 -75 -11 -284 l2 -269 -43 -6 c-83 -12 -289
-65 -304 -77 -23 -19 -13 -62 17 -76 22 -11 44 -8 148 17 67 17 124 30 127 30
13 0 1 -111 -20 -187 -13 -48 -38 -137 -55 -198 -64 -234 -155 -459 -250 -618
-29 -50 -33 -61 -23 -82 9 -19 19 -25 42 -25 24 0 36 9 61 43 17 23 35 53 40
66 5 13 18 35 28 50 38 55 172 413 218 581 12 47 7 -620 -8 -922 -6 -125 -8
-243 -5 -262 12 -61 73 -73 94 -18 15 41 31 494 34 964 2 230 6 418 9 418 3 0
26 -28 52 -62 97 -132 115 -154 151 -185 53 -48 116 -42 116 10 0 10 -33 54
-73 97 -68 74 -247 326 -247 349 0 6 17 15 38 20 90 24 160 39 202 45 51 8 80
30 80 60 -1 58 -37 62 -204 22 -58 -14 -108 -26 -110 -26 -2 0 -6 107 -8 238
-4 261 -10 294 -59 300 -14 2 -31 -4 -39 -13z"/>
<path d="M1210 2285 c-8 -9 -12 -38 -11 -68 3 -114 -53 -347 -113 -464 -14
-29 -26 -61 -26 -71 0 -27 24 -44 57 -40 24 3 34 14 65 78 21 41 47 103 59
136 l21 62 61 6 c92 10 200 26 307 46 52 10 127 22 165 25 39 4 99 13 135 22
36 8 114 20 173 28 59 7 115 19 123 26 23 19 13 62 -18 77 -30 14 -172 2 -263
-23 -27 -7 -70 -16 -95 -19 -25 -3 -85 -10 -134 -16 -49 -6 -93 -13 -97 -15
-9 -6 -283 -45 -315 -45 -23 0 -25 3 -20 28 26 119 25 192 -4 227 -16 19 -54
19 -70 0z"/>
<path d="M1292 1618 c-7 -7 -12 -43 -12 -92 0 -69 -15 -183 -81 -626 -5 -36
-14 -78 -19 -95 -22 -68 -59 -234 -65 -290 -11 -98 -9 -99 186 -100 285 -1
567 -29 750 -76 123 -31 153 -33 168 -15 20 24 9 58 -28 80 -89 52 -455 104
-859 123 -99 5 -113 7 -110 22 74 293 100 435 154 833 16 125 12 201 -14 231
-17 20 -53 22 -70 5z"/>
</g>
</svg>
