<?xml version="1.0" standalone="no"?>
<!DOCTYPE svg PUBLIC "-//W3C//DTD SVG 20010904//EN"
 "http://www.w3.org/TR/2001/REC-SVG-20010904/DTD/svg10.dtd">
<svg version="1.0" xmlns="http://www.w3.org/2000/svg"
 width="248.000000pt" height="248.000000pt" viewBox="0 0 248.000000 248.000000"
 preserveAspectRatio="xMidYMid meet">
<metadata>
Created by potrace 1.10, written by Peter Selinger 2001-2011
</metadata>
<g transform="translate(0.000000,248.000000) scale(0.100000,-0.100000)"
fill="#000000" stroke="none">
<path d="M1470 2369 c-63 -4 -195 -10 -293 -14 l-178 -8 -37 -46 c-118 -147
-252 -276 -402 -389 -117 -88 -136 -115 -110 -148 27 -31 66 -16 187 74 118
89 277 240 363 346 l45 55 66 1 c36 0 112 4 170 9 57 6 152 12 210 14 l106 5
-18 -60 c-10 -33 -36 -90 -58 -126 -39 -66 -176 -225 -238 -276 -18 -15 -35
-35 -38 -46 -5 -15 -19 -20 -73 -25 -37 -3 -114 -12 -172 -20 -58 -8 -163 -19
-235 -26 -71 -6 -140 -15 -153 -20 -13 -5 -30 -26 -39 -47 -17 -41 -16 -85 11
-417 25 -296 32 -325 81 -325 28 0 60 41 51 66 -10 26 -41 429 -41 534 l0 95
85 8 c47 4 135 14 195 22 61 8 143 18 183 21 l73 7 -2 -347 c-1 -319 0 -348
16 -366 10 -11 28 -20 40 -20 48 0 49 9 53 385 l4 352 62 7 c33 3 175 9 315
13 l254 6 -6 -109 c-4 -87 -17 -154 -62 -329 -31 -121 -59 -232 -62 -248 -7
-35 12 -57 49 -57 25 0 31 6 49 48 31 73 115 424 130 543 14 115 3 209 -26
239 -21 20 -243 25 -464 11 -90 -7 -166 -9 -169 -7 -2 3 20 31 50 63 148 158
212 262 248 401 18 69 20 89 10 112 -12 30 -55 52 -94 48 -12 -1 -73 -5 -136
-9z"/>
</g>
</svg>
