<?xml version="1.0" standalone="no"?>
<!DOCTYPE svg PUBLIC "-//W3C//DTD SVG 20010904//EN"
 "http://www.w3.org/TR/2001/REC-SVG-20010904/DTD/svg10.dtd">
<svg version="1.0" xmlns="http://www.w3.org/2000/svg"
 width="248.000000pt" height="248.000000pt" viewBox="0 0 248.000000 248.000000"
 preserveAspectRatio="xMidYMid meet">
<metadata>
Created by potrace 1.10, written by Peter Selinger 2001-2011
</metadata>
<g transform="translate(0.000000,248.000000) scale(0.100000,-0.100000)"
fill="#000000" stroke="none">
<path d="M1159 2264 c-12 -14 -14 -117 -17 -616 l-2 -598 -53 0 c-51 0 -388
-49 -477 -69 -49 -11 -74 -36 -65 -66 3 -11 12 -114 20 -230 9 -115 20 -244
25 -285 6 -41 14 -111 18 -155 9 -85 22 -119 50 -133 9 -5 273 -7 586 -5 474
2 572 5 584 17 8 7 18 47 22 87 5 41 20 133 35 204 21 106 27 170 32 350 7
253 2 285 -50 306 -37 16 -184 18 -444 6 l-173 -8 0 296 c0 162 4 295 8 295 5
0 49 7 98 15 49 8 151 21 227 30 219 24 257 36 257 80 0 29 -24 49 -58 48 -43
-1 -371 -41 -431 -53 -29 -5 -64 -10 -77 -10 l-24 0 0 228 c0 162 -4 234 -13
252 -15 31 -58 38 -78 14z m648 -1511 c-6 -216 -18 -320 -62 -518 -4 -20 -12
-20 -514 -20 -280 0 -512 3 -516 6 -7 8 -32 291 -50 570 l-6 97 48 6 c26 4
104 16 173 26 225 33 521 55 809 58 l124 2 -6 -227z"/>
</g>
</svg>
