<?xml version="1.0" standalone="no"?>
<!DOCTYPE svg PUBLIC "-//W3C//DTD SVG 20010904//EN"
 "http://www.w3.org/TR/2001/REC-SVG-20010904/DTD/svg10.dtd">
<svg version="1.0" xmlns="http://www.w3.org/2000/svg"
 width="248.000000pt" height="248.000000pt" viewBox="0 0 248.000000 248.000000"
 preserveAspectRatio="xMidYMid meet">
<metadata>
Created by potrace 1.10, written by Peter Selinger 2001-2011
</metadata>
<g transform="translate(0.000000,248.000000) scale(0.100000,-0.100000)"
fill="#000000" stroke="none">
<path d="M1159 2264 c-12 -14 -14 -116 -14 -624 0 -584 1 -609 19 -629 21 -23
56 -27 74 -9 9 9 12 97 12 335 0 178 4 323 8 323 5 0 49 7 98 15 49 8 151 21
227 30 219 24 257 36 257 80 0 29 -24 49 -58 48 -43 -1 -371 -41 -431 -53 -29
-5 -64 -10 -77 -10 l-24 0 0 228 c0 162 -4 234 -13 252 -15 31 -58 38 -78 14z"/>
</g>
</svg>
