<?xml version="1.0" standalone="no"?>
<!DOCTYPE svg PUBLIC "-//W3C//DTD SVG 20010904//EN"
 "http://www.w3.org/TR/2001/REC-SVG-20010904/DTD/svg10.dtd">
<svg version="1.0" xmlns="http://www.w3.org/2000/svg"
 width="248.000000pt" height="248.000000pt" viewBox="0 0 248.000000 248.000000"
 preserveAspectRatio="xMidYMid meet">
<metadata>
Created by potrace 1.10, written by Peter Selinger 2001-2011
</metadata>
<g transform="translate(0.000000,248.000000) scale(0.100000,-0.100000)"
fill="#000000" stroke="none">
<path d="M1555 2317 c-11 -7 -81 -71 -155 -143 -74 -72 -183 -173 -242 -224
-156 -134 -152 -144 85 -220 73 -24 136 -46 140 -50 11 -10 -153 -160 -349
-320 -71 -58 -80 -74 -59 -106 17 -27 68 -32 134 -14 20 5 99 23 176 40 77 17
169 39 205 50 36 10 126 35 200 56 74 20 143 44 153 52 20 17 22 53 5 70 -19
19 -49 15 -201 -28 -78 -23 -171 -49 -207 -59 -88 -25 -221 -54 -226 -49 -2 3
33 36 78 74 45 38 163 145 262 237 100 93 200 180 224 194 33 19 42 31 42 51
0 38 -14 55 -44 55 -33 0 -78 -32 -181 -125 -45 -40 -88 -79 -97 -86 -14 -11
-36 -7 -143 27 -69 22 -132 44 -140 49 -12 6 2 22 57 67 130 107 368 346 368
369 0 43 -42 59 -85 33z"/>
<path d="M680 2165 c-41 -47 -95 -100 -120 -117 -25 -18 -74 -58 -110 -88 -36
-30 -86 -72 -112 -93 -48 -38 -58 -65 -39 -96 19 -29 59 -14 146 55 48 38 117
93 153 122 173 138 253 247 210 290 -27 27 -54 12 -128 -73z"/>
<path d="M727 1668 c-24 -29 -75 -98 -113 -153 -78 -113 -230 -275 -349 -373
-130 -106 -155 -133 -155 -164 0 -31 28 -52 57 -41 17 7 134 100 247 197 31
27 58 47 60 45 2 -2 0 -40 -4 -84 -5 -44 -11 -132 -14 -195 -7 -120 -14 -201
-42 -459 l-17 -154 23 -19 c28 -22 32 -22 60 0 24 20 23 7 53 362 28 315 39
497 36 579 l-3 80 40 48 c22 26 66 86 98 133 33 47 79 106 103 132 60 65 56
118 -8 118 -21 0 -38 -13 -72 -52z"/>
</g>
</svg>
