<?xml version="1.0" standalone="no"?>
<!DOCTYPE svg PUBLIC "-//W3C//DTD SVG 20010904//EN"
 "http://www.w3.org/TR/2001/REC-SVG-20010904/DTD/svg10.dtd">
<svg version="1.0" xmlns="http://www.w3.org/2000/svg"
 width="248.000000pt" height="248.000000pt" viewBox="0 0 248.000000 248.000000"
 preserveAspectRatio="xMidYMid meet">
<metadata>
Created by potrace 1.10, written by Peter Selinger 2001-2011
</metadata>
<g transform="translate(0.000000,248.000000) scale(0.100000,-0.100000)"
fill="#000000" stroke="none">
<path d="M1555 2317 c-11 -7 -81 -71 -155 -143 -74 -72 -183 -173 -242 -224
-118 -101 -130 -125 -82 -157 31 -20 339 -123 369 -123 44 0 61 52 28 83 -10
8 -70 31 -133 51 -63 20 -121 40 -127 44 -9 6 10 27 60 68 129 106 367 345
367 368 0 43 -42 59 -85 33z"/>
<path d="M680 2165 c-41 -47 -95 -100 -120 -117 -25 -18 -74 -58 -110 -88 -36
-30 -86 -72 -112 -93 -48 -38 -58 -65 -39 -96 19 -29 59 -14 146 55 48 38 117
93 153 122 173 138 253 247 210 290 -27 27 -54 12 -128 -73z"/>
<path d="M727 1668 c-24 -29 -75 -98 -113 -153 -78 -113 -230 -275 -349 -373
-130 -106 -155 -133 -155 -164 0 -31 28 -52 57 -41 17 7 134 100 247 197 31
27 58 47 60 45 2 -2 0 -40 -4 -84 -5 -44 -11 -132 -14 -195 -7 -120 -14 -201
-42 -459 l-17 -154 23 -19 c28 -22 32 -22 60 0 24 20 23 7 53 362 28 315 39
497 36 579 l-3 80 40 48 c22 26 66 86 98 133 33 47 79 106 103 132 60 65 56
118 -8 118 -21 0 -38 -13 -72 -52z"/>
</g>
</svg>
