<?xml version="1.0" standalone="no"?>
<!DOCTYPE svg PUBLIC "-//W3C//DTD SVG 20010904//EN"
 "http://www.w3.org/TR/2001/REC-SVG-20010904/DTD/svg10.dtd">
<svg version="1.0" xmlns="http://www.w3.org/2000/svg"
 width="248.000000pt" height="248.000000pt" viewBox="0 0 248.000000 248.000000"
 preserveAspectRatio="xMidYMid meet">
<metadata>
Created by potrace 1.10, written by Peter Selinger 2001-2011
</metadata>
<g transform="translate(0.000000,248.000000) scale(0.100000,-0.100000)"
fill="#000000" stroke="none">
<path d="M1696 2358 c-10 -13 -16 -43 -16 -74 0 -61 6 -58 -150 -74 -243 -25
-438 -43 -470 -44 l-35 -1 -15 71 c-17 80 -32 104 -65 104 -46 0 -54 -40 -30
-156 l7 -30 -189 -13 c-126 -9 -195 -18 -210 -27 -31 -19 -30 -59 1 -79 21
-14 43 -14 212 -2 104 8 191 13 193 11 1 -1 9 -37 16 -79 15 -85 27 -105 60
-105 40 0 49 23 42 110 -4 44 -3 82 2 84 4 3 86 12 182 21 209 18 342 32 388
40 l34 6 -6 -43 c-3 -24 -9 -62 -13 -85 -8 -49 6 -73 41 -73 35 0 53 30 73
120 l18 85 50 6 c27 3 101 12 164 18 140 15 165 25 165 66 0 46 -33 57 -136
44 -46 -5 -114 -12 -151 -16 l-68 -6 0 44 c0 59 -19 93 -52 97 -18 2 -31 -4
-42 -20z"/>
<path d="M1922 1938 c-27 -27 -12 -54 73 -131 85 -77 117 -91 143 -65 24 24
12 58 -40 114 -83 86 -143 115 -176 82z"/>
<path d="M1482 1928 c-8 -8 -12 -47 -12 -109 l0 -98 -57 -6 c-32 -3 -80 -10
-108 -15 -27 -5 -87 -14 -132 -21 -88 -12 -117 -30 -111 -70 7 -48 16 -48 316
-5 l92 13 0 -72 0 -73 -97 -17 c-54 -10 -146 -23 -205 -29 -115 -13 -142 -26
-152 -75 -3 -14 0 -117 8 -229 12 -188 15 -205 36 -227 31 -33 74 -40 168 -27
42 6 133 16 202 22 465 41 543 49 566 65 13 8 24 16 25 18 5 16 21 204 25 316
8 180 0 216 -54 232 -37 11 -89 7 -287 -21 -38 -5 -83 -9 -98 -10 l-28 0 3 73
3 72 40 2 c69 5 259 44 283 59 24 16 29 53 10 72 -16 16 -79 15 -153 -2 -33
-8 -88 -17 -121 -20 l-61 -7 -5 81 c-3 58 -10 85 -23 100 -20 22 -55 26 -73 8z
m458 -583 c0 -41 -1 -75 -2 -75 -2 0 -75 -7 -163 -15 -88 -8 -168 -15 -177
-15 -15 0 -18 10 -18 69 l0 70 48 6 c120 14 218 27 227 30 6 2 27 4 48 4 l37
1 0 -75z m-472 -52 l-3 -68 -70 -7 c-38 -4 -113 -11 -165 -17 -52 -6 -96 -9
-98 -7 -1 2 -4 30 -5 62 l-2 59 75 7 c41 5 107 14 145 22 39 8 83 15 98 15
l28 1 -3 -67z m458 -190 c-4 -31 -8 -58 -9 -60 -2 -1 -57 -7 -123 -13 -65 -5
-140 -12 -166 -16 l-48 -6 0 61 c0 34 3 61 8 62 64 7 286 27 311 28 l34 1 -7
-57z m-454 -40 c2 -32 2 -60 0 -63 -1 -2 -51 -8 -110 -11 -59 -4 -133 -10
-164 -14 l-58 -8 0 52 c0 28 -1 54 -2 58 -3 6 90 19 257 36 22 2 47 4 57 5 13
2 17 -9 20 -55z"/>
<path d="M412 1638 c-19 -19 -14 -53 11 -75 32 -29 121 -72 298 -145 54 -23
104 15 80 60 -5 10 -56 40 -113 65 -57 26 -129 61 -160 77 -60 32 -97 37 -116
18z"/>
<path d="M332 1174 c-16 -11 -22 -24 -20 -42 3 -30 58 -61 223 -126 103 -42
125 -44 151 -15 32 36 4 65 -101 106 -49 19 -99 40 -110 46 -87 46 -113 52
-143 31z"/>
<path d="M527 572 c-10 -10 -17 -22 -17 -26 0 -5 -22 -45 -49 -90 -71 -119
-131 -239 -131 -262 0 -47 53 -59 89 -20 12 13 39 57 59 97 21 41 57 107 81
147 23 41 47 86 51 102 16 56 -45 94 -83 52z"/>
</g>
</svg>
