<?xml version="1.0" standalone="no"?>
<!DOCTYPE svg PUBLIC "-//W3C//DTD SVG 20010904//EN"
 "http://www.w3.org/TR/2001/REC-SVG-20010904/DTD/svg10.dtd">
<svg version="1.0" xmlns="http://www.w3.org/2000/svg"
 width="248.000000pt" height="248.000000pt" viewBox="0 0 248.000000 248.000000"
 preserveAspectRatio="xMidYMid meet">
<metadata>
Created by potrace 1.10, written by Peter Selinger 2001-2011
</metadata>
<g transform="translate(0.000000,248.000000) scale(0.100000,-0.100000)"
fill="#000000" stroke="none">
<path d="M1696 2358 c-10 -13 -16 -43 -16 -74 0 -61 6 -58 -150 -74 -243 -25
-438 -43 -470 -44 l-35 -1 -15 71 c-17 80 -32 104 -65 104 -46 0 -54 -40 -30
-156 l7 -30 -189 -13 c-126 -9 -195 -18 -210 -27 -31 -19 -30 -59 1 -79 21
-14 43 -14 212 -2 104 8 191 13 193 11 1 -1 9 -37 16 -79 15 -85 27 -105 60
-105 40 0 49 23 42 110 -4 44 -3 82 2 84 4 3 86 12 182 21 209 18 342 32 388
40 l34 6 -6 -43 c-3 -24 -9 -62 -13 -85 -8 -49 6 -73 41 -73 35 0 53 30 73
120 l18 85 50 6 c27 3 101 12 164 18 140 15 165 25 165 66 0 46 -33 57 -136
44 -46 -5 -114 -12 -151 -16 l-68 -6 0 44 c0 59 -19 93 -52 97 -18 2 -31 -4
-42 -20z"/>
<path d="M412 1638 c-19 -19 -14 -53 11 -75 32 -29 121 -72 298 -145 54 -23
104 15 80 60 -5 10 -56 40 -113 65 -57 26 -129 61 -160 77 -60 32 -97 37 -116
18z"/>
<path d="M332 1174 c-16 -11 -22 -24 -20 -42 3 -30 58 -61 223 -126 103 -42
125 -44 151 -15 32 36 4 65 -101 106 -49 19 -99 40 -110 46 -87 46 -113 52
-143 31z"/>
</g>
</svg>
