<?xml version="1.0" standalone="no"?>
<!DOCTYPE svg PUBLIC "-//W3C//DTD SVG 20010904//EN"
 "http://www.w3.org/TR/2001/REC-SVG-20010904/DTD/svg10.dtd">
<svg version="1.0" xmlns="http://www.w3.org/2000/svg"
 width="248.000000pt" height="248.000000pt" viewBox="0 0 248.000000 248.000000"
 preserveAspectRatio="xMidYMid meet">
<metadata>
Created by potrace 1.10, written by Peter Selinger 2001-2011
</metadata>
<g transform="translate(0.000000,248.000000) scale(0.100000,-0.100000)"
fill="#000000" stroke="none">
<path d="M266 2338 c-24 -34 -23 -621 0 -699 35 -116 84 -134 354 -134 193 0
274 9 389 42 79 23 91 39 91 126 0 90 -15 122 -55 122 -38 0 -57 -35 -52 -93
5 -41 3 -45 -27 -57 -58 -24 -208 -37 -381 -33 -229 4 -225 2 -225 141 l1 102
77 26 c73 25 151 55 337 128 86 35 199 93 228 119 20 17 22 53 5 70 -20 20
-56 13 -126 -24 -68 -37 -139 -67 -317 -134 -55 -21 -124 -47 -152 -59 l-53
-21 0 178 c0 194 -7 222 -55 222 -13 0 -31 -10 -39 -22z"/>
<path d="M2095 2323 c-16 -2 -65 -11 -108 -18 -76 -14 -419 -67 -522 -80 -93
-12 -200 -36 -222 -51 -30 -19 -30 -59 0 -79 21 -13 33 -13 118 4 52 11 180
31 284 46 105 15 228 34 275 42 121 21 170 27 170 19 0 -15 -143 -147 -232
-214 -54 -40 -100 -78 -104 -83 -8 -13 -124 -89 -136 -89 -5 0 -14 12 -20 28
-27 62 -76 90 -106 60 -23 -23 -12 -59 62 -202 l74 -144 -31 -6 c-18 -3 -110
-15 -206 -26 -184 -21 -211 -31 -211 -75 0 -49 17 -51 224 -28 105 12 193 19
195 17 11 -11 29 -914 18 -914 -14 0 -244 103 -258 116 -16 14 -18 31 -16 138
2 102 -1 126 -16 149 -19 30 -57 36 -77 13 -7 -10 -13 -60 -14 -133 -2 -65 -8
-136 -14 -158 -6 -22 -18 -69 -27 -105 -18 -72 -67 -205 -96 -262 -32 -63 -21
-108 27 -108 14 0 33 13 48 33 27 35 86 182 112 277 8 30 16 56 18 57 2 2 32
-10 67 -26 35 -16 120 -53 189 -81 69 -29 166 -73 215 -97 215 -106 556 -207
617 -184 55 21 42 86 -19 96 -154 25 -339 85 -541 177 -112 51 -114 52 -108
81 3 16 6 116 6 222 l0 193 53 5 c131 15 297 45 312 57 23 19 15 63 -15 76
-19 9 -48 9 -125 -3 -55 -8 -128 -17 -162 -20 -76 -7 -70 -23 -76 229 l-4 186
46 6 c94 11 357 28 386 24 l30 -4 -37 -23 c-42 -26 -54 -51 -38 -81 18 -34 70
-26 132 21 111 86 142 144 97 185 -24 22 -105 22 -393 -1 -98 -8 -183 -12
-188 -9 -4 3 -17 22 -29 42 -11 20 -29 51 -40 68 l-19 31 79 53 c44 28 86 58
92 66 7 8 48 42 93 76 97 73 246 216 287 277 34 49 40 94 17 118 -17 16 -82
24 -133 16z"/>
<path d="M249 1354 c-10 -12 -13 -42 -11 -108 3 -85 0 -99 -36 -201 -22 -60
-46 -124 -53 -141 -21 -52 4 -83 57 -70 28 7 63 74 104 202 l23 71 96 16 c53
9 116 18 139 21 l44 4 -4 -113 c-1 -63 -7 -118 -13 -124 -5 -5 -70 -18 -142
-29 -73 -11 -139 -25 -148 -32 -23 -19 -18 -57 9 -75 22 -15 34 -15 137 1 63
9 117 18 122 21 23 14 -5 -94 -53 -201 -43 -95 -150 -241 -241 -329 -37 -35
-18 -87 32 -87 59 0 238 227 313 395 19 44 38 80 43 80 9 0 91 -111 205 -275
60 -86 78 -106 101 -108 64 -8 74 40 22 113 -19 28 -60 86 -90 130 -30 44 -80
112 -111 150 -31 39 -64 86 -75 107 l-18 36 62 11 c35 6 107 18 161 26 104 15
136 32 136 70 0 51 -26 54 -211 24 -71 -12 -131 -20 -133 -18 -2 2 -1 57 1
121 l6 117 46 6 c78 11 234 45 261 58 35 17 35 67 0 84 -20 9 -40 8 -105 -7
-44 -10 -120 -23 -170 -29 -122 -14 -311 -38 -361 -46 l-42 -7 -7 53 c-4 30
-13 64 -21 77 -17 26 -56 29 -75 6z"/>
</g>
</svg>
