<?xml version="1.0" standalone="no"?>
<!DOCTYPE svg PUBLIC "-//W3C//DTD SVG 20010904//EN"
 "http://www.w3.org/TR/2001/REC-SVG-20010904/DTD/svg10.dtd">
<svg version="1.0" xmlns="http://www.w3.org/2000/svg"
 width="248.000000pt" height="248.000000pt" viewBox="0 0 248.000000 248.000000"
 preserveAspectRatio="xMidYMid meet">
<metadata>
Created by potrace 1.10, written by Peter Selinger 2001-2011
</metadata>
<g transform="translate(0.000000,248.000000) scale(0.100000,-0.100000)"
fill="#000000" stroke="none">
<path d="M266 2338 c-14 -19 -16 -68 -16 -334 0 -345 7 -394 61 -446 42 -40
88 -50 269 -55 172 -5 310 9 426 43 82 24 94 39 94 127 0 90 -15 122 -55 122
-39 0 -57 -34 -52 -96 4 -47 4 -47 -34 -58 -73 -22 -211 -33 -378 -29 -224 4
-221 2 -221 141 l1 102 77 26 c73 25 151 55 337 128 86 35 199 93 228 119 20
17 22 53 5 70 -20 20 -56 13 -126 -24 -67 -36 -129 -63 -317 -134 -55 -21
-124 -48 -152 -59 l-53 -21 0 178 c0 194 -7 222 -55 222 -13 0 -31 -10 -39
-22z"/>
<path d="M249 1354 c-10 -12 -13 -42 -11 -108 3 -85 0 -99 -36 -201 -22 -60
-46 -124 -53 -141 -21 -52 4 -83 57 -70 28 7 63 74 104 202 l23 71 61 11 c66
13 174 27 326 43 113 12 306 53 327 70 22 19 12 62 -17 76 -20 9 -40 8 -105
-7 -44 -10 -107 -21 -140 -25 -89 -10 -354 -44 -396 -51 l-37 -6 -7 53 c-4 30
-13 64 -21 77 -17 26 -56 29 -75 6z"/>
</g>
</svg>
