<?xml version="1.0" standalone="no"?>
<!DOCTYPE svg PUBLIC "-//W3C//DTD SVG 20010904//EN"
 "http://www.w3.org/TR/2001/REC-SVG-20010904/DTD/svg10.dtd">
<svg version="1.0" xmlns="http://www.w3.org/2000/svg"
 width="248.000000pt" height="248.000000pt" viewBox="0 0 248.000000 248.000000"
 preserveAspectRatio="xMidYMid meet">
<metadata>
Created by potrace 1.10, written by Peter Selinger 2001-2011
</metadata>
<g transform="translate(0.000000,248.000000) scale(0.100000,-0.100000)"
fill="#000000" stroke="none">
<path d="M1498 2201 c-78 -4 -112 -10 -123 -22 -14 -14 -14 -41 -5 -240 16
-353 20 -388 42 -400 12 -6 107 -9 256 -7 258 3 285 8 310 60 18 37 61 264 72
378 5 52 12 109 15 125 8 43 -14 78 -60 94 -46 15 -334 22 -507 12z m450 -109
c9 -6 10 -21 2 -62 -5 -29 -10 -69 -10 -89 0 -21 -11 -95 -25 -165 -14 -70
-25 -130 -25 -132 0 -2 -90 -4 -199 -4 l-199 0 -6 148 c-4 81 -9 182 -12 224
l-6 77 54 4 c108 7 413 6 426 -1z"/>
<path d="M607 2156 c-193 -14 -199 -16 -199 -92 1 -61 19 -249 33 -329 5 -33
14 -86 19 -118 14 -93 0 -89 270 -85 270 3 274 4 302 84 31 86 77 447 64 498
-15 58 -116 67 -489 42z m383 -115 c0 -34 -30 -285 -42 -343 l-11 -58 -188 0
c-104 0 -189 3 -189 8 0 4 -5 35 -10 70 -12 69 -38 315 -35 320 5 6 223 19
343 21 124 1 132 0 132 -18z"/>
<path d="M1817 1284 c-4 -5 -312 -11 -683 -15 -507 -5 -678 -10 -689 -19 -21
-18 -18 -54 6 -76 20 -18 42 -19 606 -15 589 3 836 15 868 41 19 16 19 54 0
70 -18 15 -97 25 -108 14z"/>
</g>
</svg>
