<?xml version="1.0" standalone="no"?>
<!DOCTYPE svg PUBLIC "-//W3C//DTD SVG 20010904//EN"
 "http://www.w3.org/TR/2001/REC-SVG-20010904/DTD/svg10.dtd">
<svg version="1.0" xmlns="http://www.w3.org/2000/svg"
 width="248.000000pt" height="248.000000pt" viewBox="0 0 248.000000 248.000000"
 preserveAspectRatio="xMidYMid meet">
<metadata>
Created by potrace 1.10, written by Peter Selinger 2001-2011
</metadata>
<g transform="translate(0.000000,248.000000) scale(0.100000,-0.100000)"
fill="#000000" stroke="none">
<path d="M1610 2365 c-7 -8 -20 -28 -29 -44 -22 -41 -97 -137 -149 -193 -42
-45 -45 -46 -130 -57 -48 -6 -120 -16 -160 -21 -40 -6 -82 -10 -93 -10 -21 0
-27 11 -79 150 -18 47 -39 93 -48 103 -29 33 -82 16 -82 -28 0 -12 18 -69 39
-129 26 -72 35 -109 28 -111 -7 -3 -59 -9 -116 -15 -115 -11 -144 -26 -139
-68 5 -43 25 -47 160 -33 138 14 231 24 363 40 50 6 173 20 273 31 212 23 347
47 380 67 24 15 29 52 10 71 -16 16 -90 15 -163 -3 -33 -8 -75 -14 -92 -15
l-33 0 38 51 c90 122 102 142 102 173 0 18 -5 37 -12 44 -17 17 -53 15 -68 -3z"/>
</g>
</svg>
