<?xml version="1.0" standalone="no"?>
<!DOCTYPE svg PUBLIC "-//W3C//DTD SVG 20010904//EN"
 "http://www.w3.org/TR/2001/REC-SVG-20010904/DTD/svg10.dtd">
<svg version="1.0" xmlns="http://www.w3.org/2000/svg"
 width="248.000000pt" height="248.000000pt" viewBox="0 0 248.000000 248.000000"
 preserveAspectRatio="xMidYMid meet">
<metadata>
Created by potrace 1.10, written by Peter Selinger 2001-2011
</metadata>
<g transform="translate(0.000000,248.000000) scale(0.100000,-0.100000)"
fill="#000000" stroke="none">
<path d="M1498 2201 c-79 -4 -112 -10 -123 -22 -14 -14 -15 -40 -5 -245 18
-371 18 -378 37 -391 12 -10 78 -13 243 -13 226 0 275 6 312 37 26 23 71 225
88 400 5 49 12 104 15 123 8 49 -12 82 -60 99 -45 16 -330 23 -507 12z m455
-131 c-7 -103 -25 -240 -42 -320 -12 -52 -21 -98 -21 -102 0 -5 -90 -8 -199
-8 l-199 0 -6 148 c-3 81 -9 182 -12 224 l-5 77 53 4 c29 2 139 3 243 3 l190
-1 -2 -25z"/>
<path d="M605 2156 c-88 -7 -166 -15 -173 -20 -28 -17 -30 -54 -11 -232 10
-98 23 -201 29 -229 5 -27 12 -66 15 -86 3 -21 12 -42 20 -49 10 -8 80 -10
247 -8 268 3 272 5 300 84 34 94 78 456 62 502 -6 18 -21 31 -44 39 -43 15
-227 14 -445 -1z m385 -115 c0 -34 -30 -285 -42 -343 l-11 -58 -187 0 -187 0
-12 73 c-12 73 -39 320 -36 325 5 6 228 19 348 21 119 1 127 0 127 -18z"/>
<path d="M1163 1748 c-6 -7 -13 -40 -17 -72 -17 -150 -53 -266 -114 -362 l-26
-41 -275 -8 c-162 -4 -281 -11 -288 -17 -20 -16 -15 -53 8 -74 20 -18 37 -19
245 -16 148 2 224 -1 224 -8 0 -13 -284 -309 -363 -378 -58 -51 -146 -116
-256 -188 -25 -17 -76 -43 -113 -59 -69 -28 -85 -47 -73 -85 10 -32 51 -35
114 -10 74 30 169 85 203 118 15 14 31 22 35 18 7 -7 15 -65 42 -296 20 -164
21 -169 40 -179 13 -8 364 -15 504 -12 28 1 45 57 62 198 8 70 20 164 27 208
6 44 12 108 12 142 1 52 -3 67 -22 85 -22 22 -29 23 -195 22 -95 -1 -198 -6
-230 -11 l-57 -10 118 121 c183 187 204 209 247 269 22 31 43 56 46 57 3 0 34
-18 70 -40 35 -22 80 -48 99 -56 75 -33 580 -288 576 -291 -8 -8 -228 -27
-318 -27 -61 -1 -101 -5 -109 -13 -9 -9 -9 -39 0 -135 7 -68 16 -196 20 -285
9 -177 20 -213 65 -213 41 0 48 22 47 132 -1 101 -17 333 -26 374 -4 19 2 22
73 33 43 6 144 14 225 18 l147 6 0 -29 c-2 -90 -22 -294 -39 -389 -22 -129
-16 -160 34 -160 21 0 33 7 42 25 17 35 63 313 63 381 0 31 3 83 6 116 l7 61
76 -28 c43 -16 105 -34 139 -41 59 -12 63 -12 83 8 16 15 20 28 15 47 -5 21
-16 28 -64 41 -153 42 -289 101 -637 276 l-379 189 180 0 c207 1 446 21 469
40 24 20 15 63 -18 78 -21 10 -50 11 -140 3 -61 -6 -231 -11 -376 -11 l-263 0
15 23 c45 68 94 234 104 351 5 65 3 79 -12 96 -20 23 -58 26 -72 8z m-113
-1143 c0 -26 -10 -106 -37 -297 l-17 -118 -182 0 -183 0 -6 38 c-3 20 -10 64
-15 97 -6 33 -14 101 -19 150 -5 50 -12 97 -16 106 -6 15 21 21 220 43 17 2
81 4 143 5 l112 1 0 -25z"/>
</g>
</svg>
