<?xml version="1.0" standalone="no"?>
<!DOCTYPE svg PUBLIC "-//W3C//DTD SVG 20010904//EN"
 "http://www.w3.org/TR/2001/REC-SVG-20010904/DTD/svg10.dtd">
<svg version="1.0" xmlns="http://www.w3.org/2000/svg"
 width="248.000000pt" height="248.000000pt" viewBox="0 0 248.000000 248.000000"
 preserveAspectRatio="xMidYMid meet">
<metadata>
Created by potrace 1.10, written by Peter Selinger 2001-2011
</metadata>
<g transform="translate(0.000000,248.000000) scale(0.100000,-0.100000)"
fill="#000000" stroke="none">
<path d="M1498 2201 c-78 -4 -112 -10 -123 -22 -14 -14 -14 -41 -5 -240 16
-353 20 -388 42 -400 12 -6 107 -9 256 -7 258 3 285 8 310 60 18 37 61 264 72
378 5 52 12 109 15 125 8 43 -14 78 -60 94 -46 15 -334 22 -507 12z m450 -109
c9 -6 10 -21 2 -62 -5 -29 -10 -69 -10 -89 0 -21 -11 -95 -25 -165 -14 -70
-25 -130 -25 -132 0 -2 -90 -4 -199 -4 l-199 0 -6 148 c-4 81 -9 182 -12 224
l-6 77 54 4 c108 7 413 6 426 -1z"/>
<path d="M607 2156 c-193 -14 -199 -16 -199 -92 1 -61 19 -249 33 -329 5 -33
14 -86 19 -118 14 -93 0 -89 270 -85 270 3 274 4 302 84 31 86 77 447 64 498
-15 58 -116 67 -489 42z m383 -115 c0 -34 -30 -285 -42 -343 l-11 -58 -188 0
c-104 0 -189 3 -189 8 0 4 -5 35 -10 70 -12 69 -38 315 -35 320 5 6 223 19
343 21 124 1 132 0 132 -18z"/>
<path d="M1162 1748 c-5 -7 -13 -42 -17 -78 -16 -148 -51 -258 -113 -356 l-26
-41 -275 -8 c-162 -4 -281 -11 -288 -17 -20 -16 -15 -53 8 -74 20 -18 37 -19
245 -16 146 2 224 -1 224 -7 0 -15 -294 -319 -375 -388 -124 -106 -264 -199
-357 -238 -69 -28 -85 -47 -73 -85 10 -32 51 -35 114 -10 74 30 169 85 204
118 36 34 43 24 52 -77 4 -42 13 -112 21 -156 8 -44 14 -101 14 -127 0 -70 17
-100 54 -96 50 5 61 42 47 152 -7 50 -19 141 -26 201 -8 61 -17 131 -21 156
l-6 46 57 49 c49 42 169 162 310 309 22 23 58 67 80 98 22 31 42 56 45 57 3 0
30 -16 60 -35 30 -19 80 -46 110 -60 30 -14 210 -104 400 -199 342 -172 507
-242 628 -267 59 -12 63 -12 83 8 16 15 20 28 15 47 -5 21 -16 28 -64 41 -151
42 -287 100 -637 275 l-380 190 180 0 c208 1 447 21 470 40 24 20 15 63 -18
78 -21 10 -50 11 -140 3 -61 -6 -231 -11 -376 -11 l-263 0 15 23 c45 68 94
234 104 351 5 65 3 79 -12 96 -20 23 -57 26 -73 8z"/>
</g>
</svg>
