<?xml version="1.0" standalone="no"?>
<!DOCTYPE svg PUBLIC "-//W3C//DTD SVG 20010904//EN"
 "http://www.w3.org/TR/2001/REC-SVG-20010904/DTD/svg10.dtd">
<svg version="1.0" xmlns="http://www.w3.org/2000/svg"
 width="248.000000pt" height="248.000000pt" viewBox="0 0 248.000000 248.000000"
 preserveAspectRatio="xMidYMid meet">
<metadata>
Created by potrace 1.10, written by Peter Selinger 2001-2011
</metadata>
<g transform="translate(0.000000,248.000000) scale(0.100000,-0.100000)"
fill="#000000" stroke="none">
<path d="M1610 2365 c-7 -8 -20 -28 -29 -44 -22 -41 -97 -137 -149 -193 -42
-45 -45 -46 -130 -57 -48 -6 -120 -16 -160 -21 -40 -6 -82 -10 -93 -10 -21 0
-27 11 -79 150 -18 47 -39 93 -48 103 -29 33 -82 16 -82 -28 0 -12 18 -69 39
-129 26 -72 35 -109 28 -111 -7 -3 -59 -9 -116 -15 -115 -11 -144 -26 -139
-68 5 -43 25 -47 160 -33 208 21 274 29 317 36 l41 7 0 -101 c0 -73 -4 -103
-12 -105 -7 -2 -87 -13 -178 -25 -181 -25 -213 -37 -208 -79 5 -48 31 -51 200
-26 221 34 198 45 198 -91 0 -111 -1 -115 -22 -120 -37 -8 -287 -35 -327 -35
-73 0 -109 -61 -56 -96 23 -15 36 -15 168 0 78 8 164 19 191 22 l49 7 -5 -139
c-3 -77 -10 -149 -16 -161 -10 -19 -24 -21 -139 -27 -70 -4 -182 -12 -248 -17
-66 -6 -166 -14 -222 -18 -111 -8 -136 -20 -131 -60 5 -45 42 -54 166 -42 153
15 531 35 537 29 20 -20 -132 -299 -203 -373 -117 -122 -264 -228 -361 -260
-82 -27 -110 -64 -75 -99 35 -35 129 -5 269 86 153 100 337 290 372 385 4 10
17 34 29 53 13 19 32 61 44 93 12 31 25 57 29 57 4 0 38 -32 77 -71 120 -124
323 -279 494 -379 41 -23 91 -53 110 -65 92 -57 238 -116 303 -122 74 -7 97 4
97 43 0 35 -24 52 -85 59 -69 9 -188 65 -376 177 -175 105 -404 281 -498 383
-42 45 -43 49 -24 56 12 4 79 13 150 18 198 17 324 30 332 35 4 3 47 10 97 16
124 16 153 26 160 57 12 46 -6 58 -82 55 -38 -1 -105 -9 -149 -17 -44 -7 -134
-19 -200 -25 -66 -6 -156 -15 -200 -21 -44 -5 -99 -9 -123 -9 -41 0 -43 1 -36
22 4 13 8 84 8 158 l1 135 55 6 c158 18 264 30 343 38 103 12 137 29 137 70 0
50 -14 54 -162 36 -180 -21 -296 -35 -335 -42 l-33 -5 0 110 c0 120 1 122 63
122 49 -1 348 41 380 52 36 14 38 60 3 83 -22 14 -38 14 -201 -10 -98 -14
-193 -25 -211 -25 l-34 0 0 105 c0 123 -24 108 200 130 174 17 332 46 355 65
18 15 20 51 3 68 -16 16 -90 15 -163 -3 -33 -8 -75 -14 -92 -15 l-33 0 38 51
c90 122 102 142 102 173 0 18 -5 37 -12 44 -17 17 -53 15 -68 -3z"/>
</g>
</svg>
