<?xml version="1.0" standalone="no"?>
<!DOCTYPE svg PUBLIC "-//W3C//DTD SVG 20010904//EN"
 "http://www.w3.org/TR/2001/REC-SVG-20010904/DTD/svg10.dtd">
<svg version="1.0" xmlns="http://www.w3.org/2000/svg"
 width="248.000000pt" height="248.000000pt" viewBox="0 0 248.000000 248.000000"
 preserveAspectRatio="xMidYMid meet">
<metadata>
Created by potrace 1.10, written by Peter Selinger 2001-2011
</metadata>
<g transform="translate(0.000000,248.000000) scale(0.100000,-0.100000)"
fill="#000000" stroke="none">
<path d="M607 2156 c-193 -14 -199 -16 -199 -92 1 -61 19 -249 33 -329 5 -33
14 -86 19 -118 10 -69 24 -89 59 -85 46 5 55 43 37 151 -14 82 -45 349 -42
354 5 6 274 23 367 23 106 0 109 -1 109 -22 0 -34 -28 -263 -42 -346 -14 -85
-6 -107 38 -107 23 0 32 7 46 35 28 59 78 441 64 494 -15 58 -116 67 -489 42z"/>
</g>
</svg>
