<?xml version="1.0" standalone="no"?>
<!DOCTYPE svg PUBLIC "-//W3C//DTD SVG 20010904//EN"
 "http://www.w3.org/TR/2001/REC-SVG-20010904/DTD/svg10.dtd">
<svg version="1.0" xmlns="http://www.w3.org/2000/svg"
 width="248.000000pt" height="248.000000pt" viewBox="0 0 248.000000 248.000000"
 preserveAspectRatio="xMidYMid meet">
<metadata>
Created by potrace 1.10, written by Peter Selinger 2001-2011
</metadata>
<g transform="translate(0.000000,248.000000) scale(0.100000,-0.100000)"
fill="#000000" stroke="none">
<path d="M1499 2201 c-69 -4 -112 -11 -123 -20 -15 -13 -16 -30 -11 -145 14
-295 26 -459 36 -478 8 -14 19 -18 42 -16 49 5 56 31 47 173 -4 66 -11 177
-14 246 l-5 126 76 7 c107 9 385 7 401 -2 9 -6 10 -21 2 -62 -5 -29 -10 -69
-10 -89 0 -21 -12 -95 -26 -167 -15 -71 -29 -144 -31 -162 -12 -79 73 -85 101
-7 15 41 57 274 66 365 5 52 12 109 15 125 8 43 -14 78 -60 94 -46 15 -334 23
-506 12z"/>
<path d="M607 2156 c-193 -14 -199 -16 -199 -92 1 -61 19 -249 33 -329 5 -33
14 -86 19 -118 14 -93 0 -89 270 -85 270 3 274 4 302 84 31 86 77 447 64 498
-15 58 -116 67 -489 42z m383 -115 c0 -34 -30 -285 -42 -343 l-11 -58 -188 0
c-104 0 -189 3 -189 8 0 4 -5 35 -10 70 -12 69 -38 315 -35 320 5 6 223 19
343 21 124 1 132 0 132 -18z"/>
</g>
</svg>
