<?xml version="1.0" standalone="no"?>
<!DOCTYPE svg PUBLIC "-//W3C//DTD SVG 20010904//EN"
 "http://www.w3.org/TR/2001/REC-SVG-20010904/DTD/svg10.dtd">
<svg version="1.0" xmlns="http://www.w3.org/2000/svg"
 width="248.000000pt" height="248.000000pt" viewBox="0 0 248.000000 248.000000"
 preserveAspectRatio="xMidYMid meet">
<metadata>
Created by potrace 1.10, written by Peter Selinger 2001-2011
</metadata>
<g transform="translate(0.000000,248.000000) scale(0.100000,-0.100000)"
fill="#000000" stroke="none">
<path d="M826 2268 c-8 -14 -17 -66 -21 -128 -9 -151 -8 -147 -68 -155 -29 -4
-92 -16 -141 -26 -49 -11 -91 -18 -93 -15 -2 2 -11 59 -18 126 -16 134 -30
163 -73 158 -43 -5 -47 -26 -34 -147 7 -61 15 -123 18 -139 l6 -29 -94 -23
c-115 -27 -140 -42 -136 -78 5 -44 37 -52 126 -31 111 26 108 27 116 -33 9
-65 29 -98 60 -98 45 0 54 26 42 125 l-7 60 108 23 c59 12 123 22 141 22 l32
0 0 -80 c0 -77 1 -81 26 -92 51 -23 82 29 83 137 l1 61 114 23 c143 29 161 38
161 76 0 48 -29 56 -133 34 -48 -10 -100 -18 -116 -19 -26 0 -28 2 -23 33 3
17 9 67 13 109 5 64 3 83 -10 103 -21 32 -60 33 -80 3z"/>
<path d="M1403 2198 c-4 -7 -15 -101 -25 -208 -13 -151 -25 -226 -52 -331 -38
-147 -61 -215 -83 -240 -16 -19 -17 -61 -1 -77 20 -20 56 -14 82 15 39 41 89
197 140 434 5 25 10 27 82 33 41 4 117 16 167 26 51 11 111 20 135 20 l42 0 0
-52 c0 -63 -15 -164 -35 -233 -8 -27 -26 -97 -40 -155 -22 -94 -106 -355 -123
-387 -8 -14 -107 115 -129 169 -28 65 -88 148 -112 155 -52 13 -79 -44 -43
-95 10 -15 35 -58 56 -97 20 -38 54 -92 76 -120 46 -59 90 -137 90 -162 0 -20
-129 -260 -190 -353 -48 -73 -109 -148 -187 -232 -53 -57 -66 -91 -41 -116 37
-37 98 9 230 173 55 69 172 255 223 354 23 47 45 66 45 41 0 -6 26 -49 58 -97
31 -48 76 -116 98 -152 64 -101 231 -298 288 -340 28 -20 88 -54 133 -76 79
-36 83 -37 108 -21 51 33 29 72 -67 116 -40 18 -95 51 -121 73 -57 47 -202
221 -245 293 -16 27 -49 78 -74 111 -25 34 -66 102 -92 152 l-47 90 25 59
c107 255 242 794 223 892 -6 26 -4 28 36 34 161 24 319 56 332 66 23 19 18 57
-9 75 -22 15 -35 14 -168 -9 -78 -14 -218 -34 -310 -46 -91 -11 -181 -25 -200
-31 -18 -5 -71 -12 -116 -16 l-84 -6 8 59 c14 107 10 181 -11 204 -20 22 -60
27 -72 8z"/>
<path d="M1030 1605 c-30 -8 -120 -28 -200 -45 -80 -18 -222 -52 -317 -76 -94
-24 -174 -44 -176 -44 -3 0 -9 15 -12 33 -9 41 -32 67 -60 67 -33 0 -42 -17
-48 -100 -16 -190 -57 -403 -93 -471 -27 -54 -13 -99 31 -99 43 0 75 58 110
197 13 54 27 128 31 165 4 38 12 75 18 83 15 20 675 185 741 185 17 0 17 -9
12 -112 -5 -100 -14 -179 -58 -493 -22 -159 -79 -367 -129 -465 -32 -65 -92
-160 -99 -160 -4 0 -17 20 -28 44 -24 48 -51 63 -83 46 -26 -14 -26 -49 1
-120 65 -172 167 -123 302 145 76 152 125 358 167 695 5 47 17 139 26 205 24
177 5 325 -40 325 -8 0 -20 2 -28 4 -7 2 -38 -2 -68 -9z"/>
<path d="M725 1255 c-27 -7 -63 -18 -80 -24 -16 -6 -68 -18 -115 -26 -140 -26
-141 -27 -115 -199 8 -55 15 -123 15 -152 0 -29 4 -64 9 -77 12 -31 69 -52
115 -43 19 4 75 10 126 15 61 6 97 14 107 24 16 16 28 84 54 300 14 117 4 167
-36 185 -14 7 -27 12 -28 11 -1 0 -24 -7 -52 -14z m11 -185 c-4 -44 -12 -95
-17 -112 -5 -18 -9 -47 -9 -64 l0 -32 -86 -12 c-47 -7 -87 -10 -90 -8 -2 3 -6
43 -9 89 -3 46 -7 102 -11 124 l-5 40 103 26 c57 15 109 27 117 28 11 1 12
-14 7 -79z"/>
</g>
</svg>
