<?xml version="1.0" standalone="no"?>
<!DOCTYPE svg PUBLIC "-//W3C//DTD SVG 20010904//EN"
 "http://www.w3.org/TR/2001/REC-SVG-20010904/DTD/svg10.dtd">
<svg version="1.0" xmlns="http://www.w3.org/2000/svg"
 width="248.000000pt" height="248.000000pt" viewBox="0 0 248.000000 248.000000"
 preserveAspectRatio="xMidYMid meet">
<metadata>
Created by potrace 1.10, written by Peter Selinger 2001-2011
</metadata>
<g transform="translate(0.000000,248.000000) scale(0.100000,-0.100000)"
fill="#000000" stroke="none">
<path d="M830 2275 c-7 -9 -19 -74 -26 -148 -7 -73 -13 -133 -13 -134 -1 0
-25 -4 -53 -8 -29 -4 -93 -16 -142 -26 -49 -11 -90 -18 -93 -16 -2 3 -10 60
-18 127 -15 130 -28 160 -70 160 -45 0 -50 -21 -37 -148 7 -65 15 -129 18
-143 6 -26 4 -27 -88 -49 -109 -26 -138 -42 -138 -74 0 -50 41 -59 145 -32 90
24 91 24 99 -36 9 -65 29 -98 60 -98 45 0 54 26 42 125 l-7 61 113 22 c62 12
125 22 141 22 l27 0 0 -80 c0 -76 1 -81 24 -92 14 -6 32 -8 41 -4 25 9 45 70
45 138 l0 64 114 23 c143 29 161 38 161 76 0 49 -33 58 -135 35 -47 -11 -98
-20 -114 -20 -26 0 -28 2 -23 33 3 17 9 67 13 109 5 64 3 83 -10 103 -19 28
-57 33 -76 10z"/>
<path d="M1030 1605 c-30 -7 -120 -28 -200 -45 -80 -18 -222 -52 -317 -76 -94
-24 -174 -44 -176 -44 -3 0 -9 15 -12 33 -9 41 -32 67 -60 67 -32 0 -45 -19
-45 -65 0 -118 -60 -438 -96 -506 -29 -56 -10 -104 38 -97 28 4 64 56 83 122
15 49 50 221 60 296 l5 35 207 53 c236 59 509 122 536 122 15 0 17 -10 17 -72
-1 -40 -7 -122 -15 -183 -8 -60 -22 -164 -30 -230 -25 -204 -48 -315 -96 -461
-28 -85 -126 -275 -146 -281 -5 -2 -19 17 -30 41 -24 48 -51 63 -83 46 -26
-14 -26 -49 1 -120 65 -172 167 -123 302 145 59 118 110 303 141 505 60 401
75 612 48 676 -7 17 -25 36 -38 43 -29 13 -24 13 -94 -4z"/>
<path d="M725 1255 c-27 -7 -63 -18 -80 -24 -16 -5 -70 -18 -119 -27 -48 -10
-98 -25 -109 -35 -21 -17 -21 -17 -5 -145 9 -71 16 -140 16 -154 1 -69 14
-111 36 -122 47 -21 74 13 68 87 -1 11 -4 54 -6 95 -3 41 -8 95 -11 120 l-6
45 103 25 c57 14 109 27 117 29 11 2 13 -11 7 -75 -4 -44 -11 -95 -16 -114 -4
-19 -11 -65 -15 -101 -7 -74 6 -99 49 -99 35 0 44 18 61 126 56 344 42 401
-90 369z"/>
</g>
</svg>
