<?xml version="1.0" standalone="no"?>
<!DOCTYPE svg PUBLIC "-//W3C//DTD SVG 20010904//EN"
 "http://www.w3.org/TR/2001/REC-SVG-20010904/DTD/svg10.dtd">
<svg version="1.0" xmlns="http://www.w3.org/2000/svg"
 width="248.000000pt" height="248.000000pt" viewBox="0 0 248.000000 248.000000"
 preserveAspectRatio="xMidYMid meet">
<metadata>
Created by potrace 1.10, written by Peter Selinger 2001-2011
</metadata>
<g transform="translate(0.000000,248.000000) scale(0.100000,-0.100000)"
fill="#000000" stroke="none">
<path d="M659 2334 c-10 -12 -15 -57 -19 -153 l-5 -135 -115 -13 c-63 -7 -153
-19 -200 -28 -47 -8 -95 -12 -107 -9 -34 9 -63 -27 -63 -78 1 -89 27 -288 40
-303 20 -24 63 -15 78 17 10 22 10 50 2 138 -7 62 -10 113 -8 115 8 9 185 35
296 45 64 6 146 15 182 21 66 11 405 38 473 39 l39 0 -28 -47 c-48 -85 -54
-100 -48 -117 16 -41 69 -39 101 3 32 41 93 172 93 198 0 38 -28 63 -77 70
-38 5 -456 -22 -513 -33 l-30 -6 0 118 c0 75 -5 128 -13 144 -15 31 -58 38
-78 14z"/>
<path d="M699 1914 c-9 -11 -15 -50 -17 -115 l-4 -98 -31 -6 c-18 -3 -74 -9
-124 -14 -102 -9 -126 -21 -121 -60 5 -45 45 -55 160 -42 54 6 105 11 113 11
12 0 15 -16 15 -79 0 -44 -4 -82 -9 -85 -5 -3 -55 -13 -112 -22 -109 -17 -139
-32 -139 -69 0 -43 22 -50 129 -37 54 6 105 14 113 17 13 5 16 -9 21 -82 3
-48 4 -89 3 -91 -4 -3 -199 -37 -336 -57 -127 -19 -160 -33 -160 -69 0 -49 41
-59 163 -37 192 35 626 100 714 108 111 10 133 21 133 63 0 49 -15 53 -157 40
-70 -6 -148 -15 -173 -20 -84 -17 -80 -21 -80 80 0 65 3 90 13 90 39 1 170 30
183 40 18 16 18 54 -1 70 -18 15 -40 16 -128 6 l-68 -8 3 78 3 79 90 18 c50
10 108 24 130 30 36 11 40 15 40 46 0 53 -19 58 -127 38 -51 -9 -105 -20 -120
-23 l-28 -6 0 83 c0 47 -6 95 -13 109 -15 31 -58 38 -78 14z"/>
<path d="M925 909 c-27 -5 -104 -16 -170 -24 -406 -49 -393 -42 -375 -202 6
-54 14 -176 19 -272 7 -152 10 -176 26 -187 24 -18 36 -18 60 0 26 19 31 108
15 304 -7 86 -13 170 -14 186 l-1 30 85 12 c47 7 117 15 155 19 39 4 108 13
154 21 46 8 85 14 87 14 7 0 3 -260 -5 -405 -10 -163 -4 -190 44 -190 22 0 33
7 42 26 26 53 44 565 22 627 -7 20 -21 34 -41 41 -34 12 -33 12 -103 0z"/>
</g>
</svg>
