<?xml version="1.0" standalone="no"?>
<!DOCTYPE svg PUBLIC "-//W3C//DTD SVG 20010904//EN"
 "http://www.w3.org/TR/2001/REC-SVG-20010904/DTD/svg10.dtd">
<svg version="1.0" xmlns="http://www.w3.org/2000/svg"
 width="248.000000pt" height="248.000000pt" viewBox="0 0 248.000000 248.000000"
 preserveAspectRatio="xMidYMid meet">
<metadata>
Created by potrace 1.11, written by Peter Selinger 2001-2013
</metadata>
<g transform="translate(0.000000,248.000000) scale(0.100000,-0.100000)"
fill="#000000" stroke="none">
<path d="M532 2204 c-25 -18 -29 -56 -7 -74 25 -20 102 -54 195 -84 47 -16 94
-37 106 -47 26 -25 59 -24 84 1 25 25 26 62 3 82 -10 8 -72 32 -138 52 -66 21
-140 49 -165 62 -53 28 -50 28 -78 8z"/>
<path d="M870 1704 c-30 -7 -147 -29 -260 -49 -280 -48 -401 -74 -427 -91 -30
-19 -30 -59 0 -78 20 -13 30 -13 96 4 41 11 140 31 220 45 430 72 488 86 507
116 13 21 12 32 -4 52 -17 20 -52 20 -132 1z"/>
</g>
</svg>
