<?xml version="1.0" standalone="no"?>
<!DOCTYPE svg PUBLIC "-//W3C//DTD SVG 20010904//EN"
 "http://www.w3.org/TR/2001/REC-SVG-20010904/DTD/svg10.dtd">
<svg version="1.0" xmlns="http://www.w3.org/2000/svg"
 width="248.000000pt" height="248.000000pt" viewBox="0 0 248.000000 248.000000"
 preserveAspectRatio="xMidYMid meet">
<metadata>
Created by potrace 1.11, written by Peter Selinger 2001-2013
</metadata>
<g transform="translate(0.000000,248.000000) scale(0.100000,-0.100000)"
fill="#000000" stroke="none">
<path d="M532 2204 c-25 -18 -29 -56 -7 -74 25 -20 102 -54 195 -84 47 -16 94
-37 106 -47 26 -25 59 -24 84 1 25 25 26 62 3 82 -10 8 -72 32 -138 52 -66 21
-140 49 -165 62 -53 28 -50 28 -78 8z"/>
<path d="M870 1704 c-30 -7 -147 -29 -260 -49 -280 -48 -401 -74 -427 -91 -30
-19 -30 -59 0 -78 20 -13 30 -13 96 4 41 11 140 31 220 45 430 72 488 86 507
116 13 21 12 32 -4 52 -17 20 -52 20 -132 1z"/>
<path d="M685 1265 c-363 -86 -365 -87 -365 -134 0 -16 7 -34 15 -41 16 -13
19 -13 150 23 113 30 283 67 313 67 24 0 62 32 62 53 0 22 -24 46 -50 51 -14
2 -70 -6 -125 -19z"/>
<path d="M695 949 c-38 -10 -92 -24 -120 -30 -67 -14 -226 -59 -245 -68 -27
-14 -24 -58 5 -77 23 -15 33 -16 68 -6 101 30 317 85 377 97 80 17 103 41 80
86 -14 25 -71 25 -165 -2z"/>
<path d="M695 695 c-114 -14 -328 -68 -363 -91 -21 -14 -23 -21 -17 -52 3 -21
8 -64 11 -97 14 -206 28 -343 34 -361 12 -30 40 -34 99 -13 51 18 136 36 278
59 84 14 99 27 106 95 3 28 17 113 31 190 31 172 33 245 8 268 -21 19 -46 20
-187 2z m91 -201 c-34 -205 -47 -254 -70 -259 -58 -11 -224 -38 -246 -39 -25
-1 -25 0 -37 119 -7 66 -12 142 -10 170 l2 50 107 27 c116 30 248 48 261 37 5
-4 2 -51 -7 -105z"/>
</g>
</svg>
