<?xml version="1.0" standalone="no"?>
<!DOCTYPE svg PUBLIC "-//W3C//DTD SVG 20010904//EN"
 "http://www.w3.org/TR/2001/REC-SVG-20010904/DTD/svg10.dtd">
<svg version="1.0" xmlns="http://www.w3.org/2000/svg"
 width="248.000000pt" height="248.000000pt" viewBox="0 0 248.000000 248.000000"
 preserveAspectRatio="xMidYMid meet">
<metadata>
Created by potrace 1.10, written by Peter Selinger 2001-2011
</metadata>
<g transform="translate(0.000000,248.000000) scale(0.100000,-0.100000)"
fill="#000000" stroke="none">
<path d="M1776 2238 c-8 -13 -26 -70 -40 -127 -14 -57 -29 -107 -33 -111 -4
-4 -159 -19 -343 -34 -184 -15 -370 -32 -413 -38 -42 -6 -79 -9 -81 -7 -2 2
-8 57 -13 121 -10 127 -21 151 -62 146 -44 -5 -55 -44 -42 -153 17 -145 24
-132 -71 -140 -46 -4 -105 -12 -133 -17 -27 -6 -101 -13 -164 -17 -124 -7
-140 -14 -127 -64 12 -51 84 -56 296 -22 47 7 115 16 153 20 l67 6 1 -28 c0
-15 6 -86 13 -157 10 -105 15 -131 31 -142 24 -18 36 -18 60 0 21 15 22 26 10
217 l-8 126 64 7 c172 19 731 67 735 63 5 -4 -24 -111 -52 -196 -28 -87 -28
-85 -8 -105 23 -23 61 -20 78 7 16 23 55 143 79 237 l13 55 247 1 c179 1 251
5 262 14 24 20 18 58 -12 77 -23 15 -57 18 -245 22 -164 2 -218 6 -218 16 0 6
9 47 20 90 23 90 25 126 8 143 -19 19 -56 14 -72 -10z"/>
<path d="M1097 1602 c-9 -10 -28 -52 -41 -94 -13 -42 -59 -159 -102 -260 -139
-325 -291 -517 -534 -676 -78 -51 -100 -72 -100 -97 0 -61 56 -59 149 5 200
138 299 239 440 448 84 125 271 569 271 644 0 47 -51 65 -83 30z"/>
</g>
</svg>
