<?xml version="1.0" standalone="no"?>
<!DOCTYPE svg PUBLIC "-//W3C//DTD SVG 20010904//EN"
 "http://www.w3.org/TR/2001/REC-SVG-20010904/DTD/svg10.dtd">
<svg version="1.0" xmlns="http://www.w3.org/2000/svg"
 width="248.000000pt" height="248.000000pt" viewBox="0 0 248.000000 248.000000"
 preserveAspectRatio="xMidYMid meet">
<metadata>
Created by potrace 1.10, written by Peter Selinger 2001-2011
</metadata>
<g transform="translate(0.000000,248.000000) scale(0.100000,-0.100000)"
fill="#000000" stroke="none">
<path d="M759 2174 c-16 -19 -17 -74 -6 -190 l9 -82 -84 -7 c-45 -4 -105 -12
-133 -17 -27 -6 -101 -13 -164 -17 -124 -7 -140 -14 -127 -64 12 -51 84 -56
296 -22 47 7 115 16 153 20 l67 6 1 -28 c0 -15 6 -86 13 -157 10 -105 15 -131
31 -142 24 -18 36 -18 60 0 21 15 22 26 10 217 l-8 125 109 12 c60 7 159 16
219 22 61 5 160 15 220 22 61 6 278 13 484 15 255 2 378 7 388 14 22 19 15 57
-14 76 -25 16 -56 18 -333 17 -297 -1 -706 -28 -993 -65 -48 -7 -89 -10 -91
-8 -2 2 -8 57 -13 121 -6 67 -15 124 -23 132 -16 21 -54 20 -71 0z"/>
</g>
</svg>
