<?xml version="1.0" standalone="no"?>
<!DOCTYPE svg PUBLIC "-//W3C//DTD SVG 20010904//EN"
 "http://www.w3.org/TR/2001/REC-SVG-20010904/DTD/svg10.dtd">
<svg version="1.0" xmlns="http://www.w3.org/2000/svg"
 width="248.000000pt" height="248.000000pt" viewBox="0 0 248.000000 248.000000"
 preserveAspectRatio="xMidYMid meet">
<metadata>
Created by potrace 1.10, written by Peter Selinger 2001-2011
</metadata>
<g transform="translate(0.000000,248.000000) scale(0.100000,-0.100000)"
fill="#000000" stroke="none">
<path d="M1776 2238 c-8 -13 -26 -70 -40 -127 -14 -57 -29 -107 -33 -111 -4
-4 -159 -19 -343 -34 -184 -15 -370 -32 -413 -38 -42 -6 -79 -9 -81 -7 -2 2
-8 57 -13 121 -10 127 -21 151 -62 146 -44 -5 -55 -44 -42 -153 17 -145 24
-132 -71 -140 -46 -4 -105 -12 -133 -17 -27 -6 -101 -13 -164 -17 -124 -7
-140 -14 -127 -64 12 -51 84 -56 296 -22 47 7 115 16 153 20 l67 6 1 -28 c0
-15 6 -86 13 -157 10 -105 15 -131 31 -142 24 -18 36 -18 60 0 21 15 22 26 10
217 l-8 126 64 7 c172 19 731 67 735 63 5 -4 -24 -111 -52 -196 -28 -87 -28
-85 -8 -105 23 -23 61 -20 78 7 16 23 55 143 79 237 l13 55 247 1 c179 1 251
5 262 14 24 20 18 58 -12 77 -23 15 -57 18 -245 22 -164 2 -218 6 -218 16 0 6
9 47 20 90 23 90 25 126 8 143 -19 19 -56 14 -72 -10z"/>
<path d="M1097 1603 c-8 -10 -29 -59 -46 -109 -16 -50 -51 -139 -77 -198 -50
-114 -45 -110 -139 -120 -27 -3 -97 -12 -155 -20 -58 -9 -139 -20 -180 -26
-111 -17 -213 -42 -233 -58 -20 -17 -22 -53 -5 -70 15 -15 61 -15 108 -2 42
13 502 82 507 76 7 -7 -134 -209 -199 -285 -62 -74 -151 -149 -258 -219 -78
-51 -100 -72 -100 -97 0 -28 18 -45 50 -45 28 0 115 56 249 160 104 80 283
306 354 446 l26 50 98 17 c150 25 327 39 558 43 464 9 462 9 479 23 24 20 16
63 -14 79 -37 19 -546 8 -821 -17 -119 -12 -224 -23 -233 -27 -21 -8 -20 -7 8
57 39 88 106 285 106 311 0 46 -51 65 -83 31z"/>
</g>
</svg>
