<?xml version="1.0" standalone="no"?>
<!DOCTYPE svg PUBLIC "-//W3C//DTD SVG 20010904//EN"
 "http://www.w3.org/TR/2001/REC-SVG-20010904/DTD/svg10.dtd">
<svg version="1.0" xmlns="http://www.w3.org/2000/svg"
 width="248.000000pt" height="248.000000pt" viewBox="0 0 248.000000 248.000000"
 preserveAspectRatio="xMidYMid meet">
<metadata>
Created by potrace 1.10, written by Peter Selinger 2001-2011
</metadata>
<g transform="translate(0.000000,248.000000) scale(0.100000,-0.100000)"
fill="#000000" stroke="none">
<path d="M529 2329 c-40 -40 -9 -78 131 -156 46 -26 96 -58 111 -70 33 -28 60
-29 84 -3 28 31 12 66 -50 105 -30 19 -56 35 -59 35 -10 0 -110 63 -139 87
-35 28 -51 29 -78 2z"/>
<path d="M1935 2060 c-111 -6 -352 -33 -620 -69 -47 -7 -74 -16 -83 -28 -13
-18 -13 -29 8 -133 6 -30 11 -161 11 -290 1 -205 -2 -256 -24 -395 -56 -350
-110 -571 -188 -763 -13 -32 -12 -35 10 -53 31 -25 38 -24 70 10 80 86 226
753 232 1059 1 45 5 84 8 86 3 2 29 7 57 11 l51 6 31 -64 c18 -35 32 -67 32
-70 0 -8 85 -191 117 -252 47 -89 102 -175 148 -233 25 -31 72 -93 105 -137
172 -232 329 -405 428 -470 36 -24 46 -26 67 -17 18 8 25 19 25 39 0 22 -19
45 -88 108 -71 66 -162 161 -217 228 -75 90 -139 173 -173 222 -23 33 -63 88
-90 123 -65 85 -118 181 -197 359 -36 81 -70 156 -75 165 -11 20 -24 17 196
48 78 11 155 20 172 20 17 0 37 3 46 6 17 7 39 68 60 169 16 79 61 210 82 240
8 11 14 25 14 32 0 22 -39 53 -62 51 -13 -1 -81 -4 -153 -8z m71 -115 c-14
-37 -46 -155 -56 -207 -6 -32 -14 -60 -18 -62 -4 -2 -79 -14 -167 -26 -88 -12
-213 -30 -279 -41 -65 -10 -122 -17 -126 -14 -4 3 -11 62 -15 132 -3 71 -7
137 -8 148 -2 18 12 21 198 42 110 13 227 27 260 32 33 5 95 9 139 10 66 1 77
-1 72 -14z"/>
<path d="M800 1890 c-83 -17 -259 -45 -510 -81 -87 -12 -120 -30 -120 -63 0
-47 19 -51 168 -32 131 17 326 47 517 80 86 16 115 31 115 61 0 20 -24 44 -50
49 -14 3 -68 -4 -120 -14z"/>
<path d="M695 1470 c-22 -4 -107 -17 -190 -29 -82 -13 -160 -29 -172 -37 -27
-17 -30 -56 -7 -74 17 -15 98 -7 334 32 129 21 160 35 160 73 0 43 -31 52
-125 35z"/>
<path d="M565 1133 c-121 -20 -226 -40 -232 -45 -18 -14 -16 -53 2 -68 20 -17
120 -9 325 24 197 32 233 53 180 106 -25 25 -10 26 -275 -17z"/>
<path d="M720 870 c-47 -11 -132 -26 -190 -35 -143 -22 -237 -50 -254 -78 -13
-19 -12 -32 5 -102 10 -44 26 -145 35 -225 9 -81 22 -155 30 -167 18 -28 55
-30 78 -4 12 13 36 20 79 24 78 6 202 31 290 59 49 15 71 27 76 42 9 24 37
259 47 389 5 63 3 91 -6 102 -17 20 -83 18 -190 -5z m94 -99 c10 -16 -34 -325
-47 -333 -6 -4 -37 -12 -67 -18 -30 -5 -86 -17 -125 -25 -38 -8 -88 -16 -109
-17 l-40 -3 -18 135 c-30 212 -33 192 37 207 105 22 319 61 342 62 12 0 24 -3
27 -8z"/>
</g>
</svg>
