<?xml version="1.0" standalone="no"?>
<!DOCTYPE svg PUBLIC "-//W3C//DTD SVG 20010904//EN"
 "http://www.w3.org/TR/2001/REC-SVG-20010904/DTD/svg10.dtd">
<svg version="1.0" xmlns="http://www.w3.org/2000/svg"
 width="248.000000pt" height="248.000000pt" viewBox="0 0 248.000000 248.000000"
 preserveAspectRatio="xMidYMid meet">
<metadata>
Created by potrace 1.10, written by Peter Selinger 2001-2011
</metadata>
<g transform="translate(0.000000,248.000000) scale(0.100000,-0.100000)"
fill="#000000" stroke="none">
<path d="M529 2329 c-40 -40 -9 -78 131 -156 46 -26 96 -58 111 -70 33 -28 60
-29 84 -3 28 31 12 66 -50 105 -30 19 -56 35 -59 35 -10 0 -110 63 -139 87
-35 28 -51 29 -78 2z"/>
<path d="M800 1890 c-83 -17 -259 -45 -510 -81 -87 -12 -120 -30 -120 -63 0
-47 19 -51 168 -32 131 17 326 47 517 80 86 16 115 31 115 61 0 20 -24 44 -50
49 -14 3 -68 -4 -120 -14z"/>
<path d="M695 1470 c-22 -4 -107 -17 -190 -29 -82 -13 -160 -29 -172 -37 -27
-17 -30 -56 -7 -74 17 -15 98 -7 334 32 129 21 160 35 160 73 0 43 -31 52
-125 35z"/>
<path d="M565 1133 c-121 -20 -226 -40 -232 -45 -18 -14 -16 -53 2 -68 20 -17
120 -9 325 24 197 32 233 53 180 106 -25 25 -10 26 -275 -17z"/>
<path d="M720 870 c-47 -11 -132 -26 -190 -35 -143 -22 -237 -50 -254 -78 -13
-19 -12 -32 5 -102 10 -44 26 -145 35 -225 17 -154 30 -190 68 -190 46 0 50
19 37 158 -7 70 -19 164 -27 210 -8 46 -12 87 -9 91 2 5 30 13 62 19 273 51
356 63 364 55 7 -7 5 -48 -5 -119 -28 -204 -30 -268 -11 -287 20 -20 35 -21
59 -4 14 10 22 44 36 153 27 209 34 342 20 359 -17 20 -84 18 -190 -5z"/>
</g>
</svg>
