<?xml version="1.0" standalone="no"?>
<!DOCTYPE svg PUBLIC "-//W3C//DTD SVG 20010904//EN"
 "http://www.w3.org/TR/2001/REC-SVG-20010904/DTD/svg10.dtd">
<svg version="1.0" xmlns="http://www.w3.org/2000/svg"
 width="248.000000pt" height="248.000000pt" viewBox="0 0 248.000000 248.000000"
 preserveAspectRatio="xMidYMid meet">
<metadata>
Created by potrace 1.10, written by Peter Selinger 2001-2011
</metadata>
<g transform="translate(0.000000,248.000000) scale(0.100000,-0.100000)"
fill="#000000" stroke="none">
<path d="M1146 2398 c-13 -18 -16 -52 -16 -159 l0 -137 -42 -5 c-24 -4 -74 -9
-113 -13 -128 -11 -377 -53 -392 -65 -23 -20 -12 -62 20 -77 25 -12 44 -11
139 5 91 16 111 17 115 6 10 -25 40 -218 36 -225 -2 -5 -28 -8 -56 -8 -29 0
-81 -5 -117 -10 -36 -6 -105 -15 -155 -20 -49 -5 -126 -14 -170 -20 -204 -27
-218 -33 -213 -79 5 -40 47 -56 117 -42 31 5 103 15 161 21 58 6 132 16 165
21 33 6 105 14 160 19 149 12 477 48 585 65 122 19 350 36 611 44 220 6 239
11 239 57 0 14 -10 30 -25 40 -22 14 -50 16 -213 11 -103 -3 -247 -10 -321
-17 -73 -6 -135 -9 -137 -7 -2 2 3 57 11 122 8 66 15 120 15 121 0 1 54 5 119
9 139 8 166 18 166 60 0 50 -32 58 -188 46 -124 -11 -288 -31 -370 -46 l-37
-7 0 134 c0 146 -10 178 -55 178 -13 0 -31 -10 -39 -22z m290 -405 c-3 -21 -8
-67 -11 -103 -9 -97 -10 -98 -68 -109 -79 -15 -346 -45 -352 -39 -9 9 -42 229
-35 233 3 2 64 9 136 15 71 6 163 18 204 25 41 7 88 14 103 14 28 1 29 -1 23
-36z"/>
<path d="M1550 1564 c-85 -8 -213 -23 -285 -34 -71 -10 -166 -22 -210 -26 -44
-3 -109 -12 -145 -21 -36 -8 -94 -18 -129 -21 -53 -6 -67 -11 -84 -34 -19 -26
-19 -29 -3 -185 9 -87 21 -187 26 -223 5 -36 12 -86 15 -111 10 -77 17 -82
126 -80 52 1 150 8 219 16 69 8 128 15 132 15 5 0 8 -43 8 -95 0 -111 20 -98
-179 -114 -151 -12 -184 -25 -179 -69 4 -39 39 -52 113 -42 33 4 101 10 152
14 l91 6 4 -151 c3 -135 5 -152 22 -165 25 -18 37 -18 62 0 17 13 19 30 22
170 4 183 -17 162 177 171 72 4 141 12 155 18 36 17 39 61 6 82 -25 17 -115
16 -283 -1 l-53 -5 0 90 c0 49 3 92 8 95 4 2 73 7 152 11 80 3 180 11 224 17
89 13 101 24 111 98 4 25 15 88 25 141 28 141 43 340 30 387 -18 67 -45 71
-330 46z m225 -171 c-4 -43 -8 -79 -10 -81 -1 -1 -65 -9 -141 -17 -76 -9 -173
-20 -214 -25 -41 -5 -76 -7 -78 -5 -2 2 -4 41 -5 87 l-2 83 175 16 c96 9 199
17 229 18 l53 1 -7 -77z m-560 -48 c10 -90 7 -95 -62 -95 -32 -1 -78 -5 -103
-10 -25 -5 -90 -12 -146 -16 l-101 -7 -6 48 c-13 92 -14 89 61 104 68 13 260
37 319 40 l31 1 7 -65z m534 -182 c-5 -21 -9 -59 -9 -84 0 -82 -11 -87 -182
-93 -81 -3 -165 -8 -187 -12 l-41 -7 0 96 0 95 68 7 c37 3 121 12 187 19 186
21 174 23 164 -21z m-529 -103 c0 -64 -4 -92 -12 -94 -37 -10 -261 -31 -310
-28 l-57 3 -10 50 c-6 27 -11 65 -11 83 l0 33 113 13 c120 14 228 26 265 28
21 2 22 -1 22 -88z"/>
</g>
</svg>
