<?xml version="1.0" standalone="no"?>
<!DOCTYPE svg PUBLIC "-//W3C//DTD SVG 20010904//EN"
 "http://www.w3.org/TR/2001/REC-SVG-20010904/DTD/svg10.dtd">
<svg version="1.0" xmlns="http://www.w3.org/2000/svg"
 width="248.000000pt" height="248.000000pt" viewBox="0 0 248.000000 248.000000"
 preserveAspectRatio="xMidYMid meet">
<metadata>
Created by potrace 1.10, written by Peter Selinger 2001-2011
</metadata>
<g transform="translate(0.000000,248.000000) scale(0.100000,-0.100000)"
fill="#000000" stroke="none">
<path d="M651 2366 c-6 -7 -18 -40 -26 -72 -24 -94 -117 -269 -200 -374 -60
-75 -75 -101 -73 -124 4 -35 26 -51 59 -42 26 7 156 174 205 262 l28 50 70 12
c39 7 120 21 179 31 60 11 141 23 180 27 84 7 117 24 117 59 0 46 -35 57 -136
45 -81 -10 -257 -40 -326 -56 -32 -7 -34 -1 -13 50 19 46 22 111 5 131 -16 19
-54 20 -69 1z"/>
</g>
</svg>
