<?xml version="1.0" standalone="no"?>
<!DOCTYPE svg PUBLIC "-//W3C//DTD SVG 20010904//EN"
 "http://www.w3.org/TR/2001/REC-SVG-20010904/DTD/svg10.dtd">
<svg version="1.0" xmlns="http://www.w3.org/2000/svg"
 width="248.000000pt" height="248.000000pt" viewBox="0 0 248.000000 248.000000"
 preserveAspectRatio="xMidYMid meet">
<metadata>
Created by potrace 1.10, written by Peter Selinger 2001-2011
</metadata>
<g transform="translate(0.000000,248.000000) scale(0.100000,-0.100000)"
fill="#000000" stroke="none">
<path d="M1146 2398 c-13 -18 -16 -52 -16 -159 l0 -137 -42 -5 c-24 -4 -74 -9
-113 -13 -128 -11 -377 -53 -392 -65 -23 -20 -12 -62 20 -77 25 -12 44 -11
139 5 91 16 111 17 115 6 10 -25 40 -218 36 -225 -2 -5 -28 -8 -56 -8 -29 0
-81 -5 -117 -10 -36 -6 -105 -15 -155 -20 -49 -5 -126 -14 -170 -20 -204 -27
-218 -33 -213 -79 5 -40 47 -56 117 -42 31 5 103 15 161 21 58 6 132 16 165
21 33 6 105 14 160 19 149 12 477 48 585 65 122 19 350 36 611 44 220 6 239
11 239 57 0 14 -10 30 -25 40 -22 14 -50 16 -213 11 -103 -3 -247 -10 -321
-17 -73 -6 -135 -9 -137 -7 -2 2 3 57 11 122 8 66 15 120 15 121 0 1 54 5 119
9 139 8 166 18 166 60 0 50 -32 58 -188 46 -124 -11 -288 -31 -370 -46 l-37
-7 0 134 c0 146 -10 178 -55 178 -13 0 -31 -10 -39 -22z m290 -405 c-3 -21 -8
-67 -11 -103 -9 -97 -10 -98 -68 -109 -79 -15 -346 -45 -352 -39 -9 9 -42 229
-35 233 3 2 64 9 136 15 71 6 163 18 204 25 41 7 88 14 103 14 28 1 29 -1 23
-36z"/>
<path d="M1550 1564 c-85 -8 -213 -23 -285 -34 -71 -10 -166 -22 -210 -26 -44
-3 -119 -15 -167 -25 -48 -10 -106 -19 -127 -19 -31 0 -44 -6 -61 -27 -24 -31
-25 -15 5 -278 35 -310 37 -318 74 -328 11 -2 30 2 42 11 23 16 23 32 3 213
l-6 56 98 11 c55 7 160 17 234 22 74 6 171 15 215 20 103 12 370 40 385 40 6
0 9 -4 5 -9 -3 -6 -10 -47 -16 -93 -5 -46 -12 -102 -15 -126 -7 -49 7 -72 42
-72 30 0 51 32 59 90 4 25 15 88 25 141 28 141 43 340 30 387 -18 67 -45 71
-330 46z m225 -171 c-4 -43 -8 -79 -9 -81 -3 -2 -84 -11 -366 -42 -52 -5 -156
-15 -230 -21 -74 -5 -162 -14 -195 -19 -33 -4 -85 -9 -116 -9 l-56 -1 -7 46
c-12 90 -13 89 57 102 34 7 116 18 182 26 66 7 170 21 230 30 119 18 377 43
464 45 l53 1 -7 -77z"/>
</g>
</svg>
