<?xml version="1.0" standalone="no"?>
<!DOCTYPE svg PUBLIC "-//W3C//DTD SVG 20010904//EN"
 "http://www.w3.org/TR/2001/REC-SVG-20010904/DTD/svg10.dtd">
<svg version="1.0" xmlns="http://www.w3.org/2000/svg"
 width="248.000000pt" height="248.000000pt" viewBox="0 0 248.000000 248.000000"
 preserveAspectRatio="xMidYMid meet">
<metadata>
Created by potrace 1.10, written by Peter Selinger 2001-2011
</metadata>
<g transform="translate(0.000000,248.000000) scale(0.100000,-0.100000)"
fill="#000000" stroke="none">
<path d="M1146 2398 c-13 -18 -16 -52 -16 -159 l0 -137 -42 -5 c-24 -4 -74 -9
-113 -13 -128 -11 -377 -53 -392 -65 -23 -20 -12 -62 20 -77 25 -12 44 -11
138 5 61 11 112 16 115 12 2 -4 14 -65 25 -136 24 -146 38 -176 77 -171 48 5
52 36 27 183 -12 72 -19 133 -16 137 3 3 76 13 161 22 85 9 202 23 260 31 58
8 176 21 262 28 168 14 191 22 186 66 -5 46 -40 54 -191 42 -124 -11 -288 -31
-370 -46 l-37 -7 0 134 c0 146 -10 178 -55 178 -13 0 -31 -10 -39 -22z"/>
</g>
</svg>
