<?xml version="1.0" standalone="no"?>
<!DOCTYPE svg PUBLIC "-//W3C//DTD SVG 20010904//EN"
 "http://www.w3.org/TR/2001/REC-SVG-20010904/DTD/svg10.dtd">
<svg version="1.0" xmlns="http://www.w3.org/2000/svg"
 width="248.000000pt" height="248.000000pt" viewBox="0 0 248.000000 248.000000"
 preserveAspectRatio="xMidYMid meet">
<metadata>
Created by potrace 1.10, written by Peter Selinger 2001-2011
</metadata>
<g transform="translate(0.000000,248.000000) scale(0.100000,-0.100000)"
fill="#000000" stroke="none">
<path d="M1829 2216 c-2 -2 -49 -9 -104 -16 -55 -6 -138 -18 -185 -25 -254
-43 -404 -58 -639 -62 -221 -5 -245 -7 -262 -24 -24 -24 -24 -44 1 -69 18 -18
33 -20 180 -20 l160 0 0 -119 0 -119 -87 -7 c-49 -4 -137 -13 -198 -20 -60 -8
-112 -12 -116 -9 -4 2 -19 -1 -33 -8 -32 -14 -42 -48 -27 -86 10 -24 29 -140
50 -305 4 -32 14 -65 23 -73 17 -17 3 -19 265 22 62 10 114 16 116 14 2 -3 1
-70 -2 -150 l-6 -144 -185 -22 c-102 -12 -210 -27 -240 -33 -30 -6 -97 -15
-147 -20 -99 -9 -123 -20 -123 -56 0 -53 58 -59 260 -28 228 35 386 52 670 73
294 22 479 37 635 50 61 6 182 10 270 10 129 0 165 3 183 16 29 20 29 59 -2
79 -32 21 -182 19 -536 -10 -151 -12 -278 -19 -282 -16 -4 3 -3 42 2 86 5 44
12 110 15 148 l7 67 51 0 c91 1 311 26 333 38 11 6 43 57 71 114 168 343 169
333 -40 330 -73 -1 -192 -5 -264 -8 l-133 -7 0 130 0 130 113 16 c61 9 140 19
174 22 73 8 96 22 96 60 0 35 -44 70 -64 51z m-429 -291 c0 -123 0 -125 -22
-125 -30 0 -203 -18 -251 -26 l-38 -6 3 124 3 123 80 7 c44 4 105 11 135 16
99 17 90 28 90 -113z m530 -219 c0 -19 -104 -236 -113 -236 -1 0 -28 -4 -59
-9 -32 -6 -104 -11 -160 -12 -90 -1 -103 0 -102 15 1 9 2 65 3 125 l1 110 28
4 c35 5 402 8 402 3z m-539 -136 c-1 -69 -5 -128 -7 -131 -2 -3 -36 -9 -76
-12 -40 -4 -106 -9 -145 -13 l-73 -7 0 130 0 131 118 12 c64 6 124 13 132 15
8 2 24 2 35 2 19 -2 19 -8 16 -127z m-411 -40 c0 -126 -1 -130 -22 -134 -80
-15 -228 -36 -254 -36 -31 0 -32 2 -43 63 -17 90 -29 191 -25 198 2 4 63 12
136 18 73 7 144 13 158 15 14 2 31 4 38 5 9 1 12 -31 12 -129z m400 -232 c0
-79 -22 -254 -33 -265 -7 -7 -65 -14 -139 -19 l-128 -7 0 146 0 146 53 6 c28
3 81 10 117 14 126 16 130 15 130 -21z"/>
<path d="M2062 878 c-20 -20 -14 -48 21 -102 19 -28 49 -79 67 -114 34 -65 66
-86 99 -65 32 20 24 60 -30 156 -29 50 -63 102 -76 115 -24 24 -62 29 -81 10z"/>
<path d="M1580 775 c-7 -9 -10 -29 -7 -48 9 -59 61 -179 84 -194 61 -40 108
49 57 108 -8 8 -20 37 -28 63 -8 26 -22 56 -32 67 -21 23 -57 25 -74 4z"/>
<path d="M969 729 c-18 -18 -20 -28 -14 -72 20 -143 111 -286 249 -391 120
-92 178 -109 471 -142 265 -29 425 -7 463 66 17 32 7 128 -15 152 -39 43 -83
10 -83 -62 0 -41 -3 -49 -22 -54 -71 -18 -434 3 -573 34 -132 30 -282 155
-348 292 -24 50 -37 91 -37 117 0 28 -7 48 -20 61 -26 26 -45 25 -71 -1z"/>
<path d="M637 668 c-24 -19 -42 -69 -87 -244 -46 -182 -48 -209 -20 -224 43
-23 100 26 100 87 0 42 56 265 76 304 19 37 18 45 -6 69 -23 23 -39 25 -63 8z"/>
</g>
</svg>
