<?xml version="1.0" standalone="no"?>
<!DOCTYPE svg PUBLIC "-//W3C//DTD SVG 20010904//EN"
 "http://www.w3.org/TR/2001/REC-SVG-20010904/DTD/svg10.dtd">
<svg version="1.0" xmlns="http://www.w3.org/2000/svg"
 width="248.000000pt" height="248.000000pt" viewBox="0 0 248.000000 248.000000"
 preserveAspectRatio="xMidYMid meet">
<metadata>
Created by potrace 1.10, written by Peter Selinger 2001-2011
</metadata>
<g transform="translate(0.000000,248.000000) scale(0.100000,-0.100000)"
fill="#000000" stroke="none">
<path d="M1829 2216 c-2 -2 -49 -9 -104 -16 -55 -6 -139 -18 -188 -26 -249
-42 -482 -64 -678 -64 -186 0 -200 -1 -219 -20 -25 -25 -25 -45 0 -70 19 -19
32 -21 193 -19 95 1 206 5 247 10 243 28 358 43 460 59 63 11 160 24 215 30
131 15 143 22 135 80 -3 25 -46 50 -61 36z"/>
<path d="M1765 1819 c-246 -8 -476 -23 -600 -39 -38 -5 -101 -12 -140 -15
-139 -11 -291 -25 -364 -34 -40 -5 -79 -7 -85 -5 -18 7 -66 -35 -66 -57 0 -11
4 -28 9 -37 8 -15 29 -140 50 -304 4 -31 13 -63 20 -72 21 -25 58 -20 78 10
15 23 15 34 4 98 -28 158 -40 251 -33 257 7 7 173 25 327 35 50 3 137 12 195
19 191 26 750 48 767 32 4 -5 -53 -138 -91 -213 -14 -29 -26 -61 -26 -72 0
-27 24 -44 57 -40 24 3 34 15 73 93 85 171 130 273 130 298 0 25 -33 59 -55
55 -5 0 -118 -5 -250 -9z"/>
</g>
</svg>
