<?xml version="1.0" standalone="no"?>
<!DOCTYPE svg PUBLIC "-//W3C//DTD SVG 20010904//EN"
 "http://www.w3.org/TR/2001/REC-SVG-20010904/DTD/svg10.dtd">
<svg version="1.0" xmlns="http://www.w3.org/2000/svg"
 width="248.000000pt" height="248.000000pt" viewBox="0 0 248.000000 248.000000"
 preserveAspectRatio="xMidYMid meet">
<metadata>
Created by potrace 1.10, written by Peter Selinger 2001-2011
</metadata>
<g transform="translate(0.000000,248.000000) scale(0.100000,-0.100000)"
fill="#000000" stroke="none">
<path d="M1091 2346 c-10 -11 -8 -61 5 -221 9 -113 13 -209 10 -213 -4 -3 -44
-10 -89 -13 -321 -28 -674 -69 -694 -82 -18 -11 -16 -52 2 -67 18 -15 129 -10
405 19 107 11 272 28 365 36 94 9 240 24 325 35 85 10 234 24 330 29 299 18
464 33 478 43 17 14 15 53 -3 68 -13 11 -207 16 -224 6 -3 -3 -99 -9 -211 -15
-113 -6 -279 -20 -370 -31 -91 -11 -177 -20 -191 -20 l-26 0 -7 153 c-8 190
-14 236 -32 265 -16 25 -55 29 -73 8z"/>
</g>
</svg>
