<?xml version="1.0" standalone="no"?>
<!DOCTYPE svg PUBLIC "-//W3C//DTD SVG 20010904//EN"
 "http://www.w3.org/TR/2001/REC-SVG-20010904/DTD/svg10.dtd">
<svg version="1.0" xmlns="http://www.w3.org/2000/svg"
 width="248.000000pt" height="248.000000pt" viewBox="0 0 248.000000 248.000000"
 preserveAspectRatio="xMidYMid meet">
<metadata>
Created by potrace 1.10, written by Peter Selinger 2001-2011
</metadata>
<g transform="translate(0.000000,248.000000) scale(0.100000,-0.100000)"
fill="#000000" stroke="none">
<path d="M853 2187 c-43 -30 -118 -77 -166 -106 -49 -28 -146 -88 -215 -133
-70 -44 -144 -92 -165 -105 -45 -28 -54 -46 -39 -79 23 -48 66 -30 301 124 69
45 128 82 133 82 17 0 -8 -454 -26 -469 -6 -5 -70 -26 -141 -46 -72 -20 -164
-47 -205 -60 -41 -13 -100 -31 -130 -39 -76 -22 -120 -50 -120 -79 0 -47 34
-58 105 -33 44 16 231 72 369 111 49 13 92 23 94 20 3 -3 -2 -13 -11 -23 -10
-10 -33 -57 -53 -103 -77 -178 -217 -373 -391 -548 -84 -84 -104 -108 -101
-129 4 -32 28 -47 62 -38 78 20 377 385 483 592 21 41 41 74 46 74 10 0 9
-132 -2 -281 -5 -68 -12 -203 -16 -299 -3 -96 -8 -216 -11 -267 -6 -90 -6 -91
20 -108 23 -16 28 -16 49 -2 21 14 22 23 34 253 7 132 15 385 18 564 3 179 8
335 10 346 5 22 39 35 243 95 81 24 102 45 83 85 -15 33 -48 31 -174 -7 -56
-17 -112 -34 -125 -36 l-23 -5 6 188 c4 104 10 210 16 236 5 26 6 53 3 61 -3
9 22 31 68 63 40 27 78 51 83 53 40 15 58 64 33 89 -24 24 -67 12 -145 -41z"/>
</g>
</svg>
