<?xml version="1.0" standalone="no"?>
<!DOCTYPE svg PUBLIC "-//W3C//DTD SVG 20010904//EN"
 "http://www.w3.org/TR/2001/REC-SVG-20010904/DTD/svg10.dtd">
<svg version="1.0" xmlns="http://www.w3.org/2000/svg"
 width="248.000000pt" height="248.000000pt" viewBox="0 0 248.000000 248.000000"
 preserveAspectRatio="xMidYMid meet">
<metadata>
Created by potrace 1.10, written by Peter Selinger 2001-2011
</metadata>
<g transform="translate(0.000000,248.000000) scale(0.100000,-0.100000)"
fill="#000000" stroke="none">
<path d="M853 2187 c-43 -30 -118 -77 -166 -106 -49 -28 -146 -88 -215 -133
-70 -44 -144 -92 -165 -105 -45 -28 -54 -46 -39 -79 23 -48 66 -30 301 124 69
45 128 82 133 82 17 0 -8 -454 -26 -469 -6 -5 -70 -26 -141 -46 -72 -20 -164
-47 -205 -60 -41 -13 -100 -31 -130 -39 -76 -22 -120 -50 -120 -79 0 -47 34
-58 105 -33 44 16 231 72 369 111 49 13 92 23 94 20 3 -3 -2 -13 -11 -23 -10
-10 -33 -57 -53 -103 -77 -178 -217 -373 -391 -548 -84 -84 -104 -108 -101
-129 4 -32 28 -47 62 -38 78 20 377 385 483 592 21 41 41 74 46 74 10 0 9
-132 -2 -281 -5 -68 -12 -203 -16 -299 -3 -96 -8 -216 -11 -267 -6 -90 -6 -91
20 -108 23 -16 28 -16 49 -2 21 14 22 23 34 253 6 132 15 350 19 487 4 136 9
247 11 247 2 0 39 -26 81 -58 162 -123 200 -140 230 -110 28 28 13 57 -54 106
-130 92 -264 202 -264 216 0 42 16 49 248 117 81 24 102 45 83 85 -15 33 -48
31 -174 -7 -56 -17 -112 -34 -125 -36 l-23 -5 6 188 c4 104 10 210 16 236 5
26 6 53 3 61 -3 9 22 31 68 63 40 27 78 51 83 53 40 15 58 64 33 89 -24 24
-67 12 -145 -41z"/>
<path d="M1713 1958 c-26 -33 -131 -236 -178 -343 -29 -66 -82 -187 -118 -270
-98 -224 -387 -778 -428 -819 -13 -14 -11 -60 3 -74 19 -19 41 -15 200 38 82
28 158 50 169 50 10 0 42 9 71 19 29 10 130 43 223 72 94 29 228 74 298 101
71 26 132 48 137 48 4 0 30 -37 56 -82 26 -46 79 -131 117 -190 66 -101 73
-108 103 -108 25 0 34 5 40 23 12 33 9 38 -70 160 -40 61 -94 149 -121 194
-26 45 -73 116 -104 157 -31 41 -83 114 -116 161 -110 159 -147 189 -183 153
-28 -28 -9 -65 142 -273 36 -49 66 -95 66 -101 0 -18 -213 -93 -595 -209 -148
-45 -266 -77 -271 -72 -3 2 25 58 62 123 36 66 105 196 152 289 79 158 116
238 259 565 30 69 79 170 109 226 54 102 64 140 42 162 -16 16 -53 15 -65 0z"/>
</g>
</svg>
