<?xml version="1.0" standalone="no"?>
<!DOCTYPE svg PUBLIC "-//W3C//DTD SVG 20010904//EN"
 "http://www.w3.org/TR/2001/REC-SVG-20010904/DTD/svg10.dtd">
<svg version="1.0" xmlns="http://www.w3.org/2000/svg"
 width="248.000000pt" height="248.000000pt" viewBox="0 0 248.000000 248.000000"
 preserveAspectRatio="xMidYMid meet">
<metadata>
Created by potrace 1.10, written by Peter Selinger 2001-2011
</metadata>
<g transform="translate(0.000000,248.000000) scale(0.100000,-0.100000)"
fill="#000000" stroke="none">
<path d="M830 2173 c-126 -12 -430 -62 -608 -100 -102 -21 -110 -35 -93 -155
7 -50 26 -157 42 -237 16 -80 32 -177 36 -216 9 -102 15 -115 58 -115 28 0 37
5 44 23 11 28 -6 160 -48 381 -36 187 -38 212 -12 221 16 5 90 19 236 45 28 5
91 16 140 25 111 19 410 46 430 39 9 -4 13 -14 10 -28 -2 -11 -11 -50 -19 -86
-8 -36 -31 -144 -51 -240 -20 -96 -42 -182 -50 -190 -21 -23 -19 -56 5 -80 30
-30 72 -25 90 11 6 10 31 119 56 241 25 123 52 250 60 283 19 81 18 150 -2
169 -13 13 -40 16 -152 14 -75 0 -153 -3 -172 -5z"/>
</g>
</svg>
