<?xml version="1.0" standalone="no"?>
<!DOCTYPE svg PUBLIC "-//W3C//DTD SVG 20010904//EN"
 "http://www.w3.org/TR/2001/REC-SVG-20010904/DTD/svg10.dtd">
<svg version="1.0" xmlns="http://www.w3.org/2000/svg"
 width="248.000000pt" height="248.000000pt" viewBox="0 0 248.000000 248.000000"
 preserveAspectRatio="xMidYMid meet">
<metadata>
Created by potrace 1.10, written by Peter Selinger 2001-2011
</metadata>
<g transform="translate(0.000000,248.000000) scale(0.100000,-0.100000)"
fill="#000000" stroke="none">
<path d="M830 2173 c-122 -12 -438 -64 -608 -100 -102 -21 -110 -35 -93 -155
7 -50 26 -157 42 -237 16 -80 32 -177 36 -216 8 -97 16 -115 50 -115 16 0 61
12 102 25 105 35 294 71 443 85 114 11 129 10 152 -5 31 -21 71 -14 86 15 6
11 31 120 56 242 25 123 52 250 60 283 19 81 18 150 -2 169 -13 13 -40 16
-152 14 -75 0 -153 -3 -172 -5z m233 -113 c-2 -14 -10 -58 -20 -98 -14 -63
-19 -73 -35 -69 -18 5 -197 -21 -288 -41 -25 -6 -83 -16 -130 -22 -47 -6 -139
-22 -205 -35 -66 -13 -123 -21 -126 -17 -8 9 -29 129 -29 165 0 30 9 33 170
61 52 10 129 24 170 31 136 26 391 54 460 51 31 -1 35 -4 33 -26z m-63 -307
c-5 -21 -14 -64 -20 -96 -15 -75 -27 -80 -225 -102 -141 -15 -331 -51 -404
-76 -17 -6 -35 -8 -38 -5 -7 7 -25 121 -27 171 l-1 29 160 28 c256 45 438 77
460 82 11 2 39 4 61 5 l42 1 -8 -37z"/>
</g>
</svg>
