<?xml version="1.0" standalone="no"?>
<!DOCTYPE svg PUBLIC "-//W3C//DTD SVG 20010904//EN"
 "http://www.w3.org/TR/2001/REC-SVG-20010904/DTD/svg10.dtd">
<svg version="1.0" xmlns="http://www.w3.org/2000/svg"
 width="248.000000pt" height="248.000000pt" viewBox="0 0 248.000000 248.000000"
 preserveAspectRatio="xMidYMid meet">
<metadata>
Created by potrace 1.10, written by Peter Selinger 2001-2011
</metadata>
<g transform="translate(0.000000,248.000000) scale(0.100000,-0.100000)"
fill="#000000" stroke="none">
<path d="M830 2173 c-122 -12 -438 -64 -608 -100 -102 -21 -110 -35 -93 -155
7 -50 26 -157 42 -237 16 -80 32 -177 36 -216 9 -106 16 -118 61 -112 20 2 74
16 118 30 45 14 95 27 110 29 l29 3 3 -115 c1 -64 -1 -133 -6 -155 l-8 -39
-124 -27 c-69 -15 -143 -33 -165 -41 -36 -12 -40 -16 -40 -47 0 -56 16 -58
175 -23 79 18 146 30 148 27 7 -7 4 -196 -4 -286 -5 -53 -3 -68 11 -82 20 -20
58 -22 73 -4 7 8 14 84 17 183 8 239 -2 217 108 237 51 10 112 20 137 22 66 8
91 52 50 90 -21 19 -69 17 -199 -11 -36 -7 -69 -10 -74 -7 -10 6 -4 290 7 300
3 3 69 12 148 20 131 14 144 14 171 -2 33 -20 72 -13 87 15 6 11 31 120 56
242 25 123 52 250 60 283 19 81 18 150 -2 169 -13 13 -40 16 -152 14 -75 0
-153 -3 -172 -5z m233 -113 c-2 -14 -10 -58 -20 -98 -14 -63 -19 -73 -35 -69
-21 6 -161 -15 -276 -39 -40 -9 -76 -14 -79 -10 -7 7 -4 172 4 192 3 7 21 16
40 20 55 10 294 32 333 30 31 -1 35 -4 33 -26z m-512 -115 c-5 -122 -1 -118
-133 -143 -176 -34 -160 -38 -175 38 -6 36 -12 79 -13 97 0 37 4 39 175 68 55
9 105 19 110 20 35 12 40 0 36 -80z m438 -246 c-10 -50 -21 -94 -24 -99 -3 -5
-20 -13 -38 -19 -36 -12 -278 -40 -289 -34 -14 7 -9 170 5 180 6 6 64 20 127
31 63 12 124 23 135 26 11 2 39 4 61 5 l41 1 -18 -91z m-451 -49 c2 -36 1 -79
-3 -97 -5 -29 -10 -33 -63 -43 -31 -6 -79 -18 -105 -27 -27 -8 -51 -12 -54 -9
-7 7 -25 121 -27 171 l-1 29 110 22 c61 12 117 21 125 20 11 -1 16 -17 18 -66z"/>
</g>
</svg>
