<?xml version="1.0" standalone="no"?>
<!DOCTYPE svg PUBLIC "-//W3C//DTD SVG 20010904//EN"
 "http://www.w3.org/TR/2001/REC-SVG-20010904/DTD/svg10.dtd">
<svg version="1.0" xmlns="http://www.w3.org/2000/svg"
 width="248.000000pt" height="248.000000pt" viewBox="0 0 248.000000 248.000000"
 preserveAspectRatio="xMidYMid meet">
<metadata>
Created by potrace 1.10, written by Peter Selinger 2001-2011
</metadata>
<g transform="translate(0.000000,248.000000) scale(0.100000,-0.100000)"
fill="#000000" stroke="none">
<path d="M830 2173 c-122 -12 -438 -64 -608 -100 -102 -21 -110 -35 -93 -155
7 -50 26 -157 42 -237 16 -80 32 -177 36 -216 9 -102 15 -115 58 -115 51 0 56
23 38 156 -9 60 -16 122 -17 139 l-1 29 160 28 c88 16 222 40 297 53 76 14
167 28 202 32 l64 6 -24 -118 c-13 -65 -31 -126 -39 -135 -21 -23 -19 -56 5
-80 30 -30 72 -25 90 11 6 10 31 119 56 241 25 123 52 250 60 283 19 81 18
150 -2 169 -13 13 -40 16 -152 14 -75 0 -153 -3 -172 -5z m233 -113 c-2 -14
-10 -58 -20 -98 -14 -63 -19 -73 -35 -69 -18 5 -197 -21 -288 -41 -25 -6 -83
-16 -130 -22 -47 -6 -139 -22 -205 -35 -66 -13 -123 -21 -126 -17 -8 9 -29
129 -29 165 0 30 9 33 170 61 52 10 129 24 170 31 136 26 391 54 460 51 31 -1
35 -4 33 -26z"/>
</g>
</svg>
