<?xml version="1.0" standalone="no"?>
<!DOCTYPE svg PUBLIC "-//W3C//DTD SVG 20010904//EN"
 "http://www.w3.org/TR/2001/REC-SVG-20010904/DTD/svg10.dtd">
<svg version="1.0" xmlns="http://www.w3.org/2000/svg"
 width="248.000000pt" height="248.000000pt" viewBox="0 0 248.000000 248.000000"
 preserveAspectRatio="xMidYMid meet">
<metadata>
Created by potrace 1.10, written by Peter Selinger 2001-2011
</metadata>
<g transform="translate(0.000000,248.000000) scale(0.100000,-0.100000)"
fill="#000000" stroke="none">
<path d="M1019 2369 c-15 -15 -19 -27 -13 -42 4 -12 9 -74 11 -138 l4 -115
-228 -38 c-264 -45 -393 -64 -480 -73 -35 -3 -67 -11 -73 -17 -5 -7 -10 -86
-11 -176 -1 -147 1 -165 17 -177 22 -16 36 -16 58 0 23 17 35 80 36 183 l0 82
63 11 c34 6 87 13 117 17 30 3 73 9 95 14 324 70 952 128 1279 116 105 -3 173
-9 180 -16 12 -13 -72 -96 -174 -174 -44 -33 -56 -48 -58 -74 -3 -26 1 -34 22
-43 23 -11 32 -8 80 24 83 55 175 141 238 224 62 81 65 89 44 118 -15 21 -50
27 -273 45 -111 9 -186 7 -446 -10 -172 -11 -327 -22 -344 -26 l-30 -6 -5 119
c-4 122 -19 174 -53 187 -26 10 -34 7 -56 -15z"/>
<path d="M646 1718 c-9 -12 -16 -30 -16 -40 0 -27 -53 -182 -96 -278 -75 -172
-184 -349 -295 -477 -27 -32 -49 -67 -49 -79 0 -24 29 -54 52 -54 18 0 90 77
151 160 22 30 44 60 49 65 6 6 8 -158 7 -427 -3 -473 -3 -472 50 -466 52 6 54
25 59 478 3 339 1 429 -11 490 -15 73 -15 76 7 115 33 56 102 213 137 309 35
96 48 188 29 211 -18 22 -56 18 -74 -7z"/>
<path d="M1730 1559 c-199 -16 -353 -32 -505 -54 -128 -19 -150 -22 -265 -36
-107 -13 -140 -28 -140 -64 0 -31 39 -58 71 -50 13 3 78 12 144 20 66 8 145
19 174 25 30 5 57 7 60 4 10 -10 -102 -206 -137 -237 -12 -11 -48 -22 -88 -28
-78 -11 -114 -32 -127 -75 -14 -47 3 -513 29 -822 4 -48 12 -70 32 -93 25 -31
27 -31 93 -25 64 7 88 10 149 21 68 12 203 19 375 19 184 1 191 0 213 -21 33
-34 64 -28 87 17 18 35 61 232 70 320 3 36 12 117 20 180 7 63 19 171 25 240
7 69 16 152 20 185 11 82 -2 107 -63 122 -90 22 -208 21 -394 -3 -241 -32
-303 -38 -303 -30 0 4 18 37 39 72 22 36 50 90 62 120 15 36 30 56 43 59 46
10 355 35 437 35 66 0 91 4 103 16 28 27 19 62 -21 83 -24 12 -58 12 -203 0z
m165 -444 l30 -5 -12 -143 c-7 -78 -15 -148 -18 -154 -3 -9 -30 -13 -87 -13
-84 0 -131 -6 -537 -61 -123 -17 -229 -28 -237 -25 -11 4 -14 37 -14 161 0 85
2 155 4 155 2 0 28 5 57 10 30 6 117 17 194 25 77 8 210 23 295 34 222 29 236
30 325 16z m-9 -432 c-3 -10 -10 -63 -16 -118 -15 -130 -40 -278 -49 -294 -6
-8 -28 -9 -88 -3 -96 11 -375 -1 -527 -23 -167 -23 -152 -30 -160 78 -4 50 -9
136 -13 190 l-6 97 38 0 c21 0 81 7 134 15 253 38 472 64 576 68 39 2 80 4 93
5 18 2 22 -2 18 -15z"/>
</g>
</svg>
