<?xml version="1.0" standalone="no"?>
<!DOCTYPE svg PUBLIC "-//W3C//DTD SVG 20010904//EN"
 "http://www.w3.org/TR/2001/REC-SVG-20010904/DTD/svg10.dtd">
<svg version="1.0" xmlns="http://www.w3.org/2000/svg"
 width="248.000000pt" height="248.000000pt" viewBox="0 0 248.000000 248.000000"
 preserveAspectRatio="xMidYMid meet">
<metadata>
Created by potrace 1.10, written by Peter Selinger 2001-2011
</metadata>
<g transform="translate(0.000000,248.000000) scale(0.100000,-0.100000)"
fill="#000000" stroke="none">
<path d="M1019 2369 c-15 -15 -19 -27 -13 -42 4 -12 9 -74 11 -138 l4 -115
-228 -38 c-264 -45 -393 -64 -480 -73 -35 -3 -67 -11 -73 -17 -5 -7 -10 -86
-11 -176 -1 -147 1 -165 17 -177 22 -16 36 -16 58 0 23 17 35 80 36 183 l0 82
63 11 c34 6 87 13 117 17 30 3 73 9 95 14 324 70 952 128 1279 116 105 -3 173
-9 180 -16 12 -13 -72 -96 -174 -174 -44 -33 -56 -48 -58 -74 -3 -26 1 -34 22
-43 23 -11 32 -8 80 24 83 55 175 141 238 224 62 81 65 89 44 118 -15 21 -50
27 -273 45 -111 9 -186 7 -446 -10 -172 -11 -327 -22 -344 -26 l-30 -6 -5 119
c-4 122 -19 174 -53 187 -26 10 -34 7 -56 -15z"/>
<path d="M646 1718 c-9 -12 -16 -30 -16 -40 0 -27 -53 -182 -96 -278 -75 -172
-184 -349 -295 -477 -27 -32 -49 -67 -49 -79 0 -24 29 -54 52 -54 18 0 90 77
151 160 22 30 44 60 49 65 6 6 8 -158 7 -427 -3 -473 -3 -472 50 -466 52 6 54
25 59 478 3 339 1 429 -11 490 -15 73 -15 76 7 115 33 56 102 213 137 309 35
96 48 188 29 211 -18 22 -56 18 -74 -7z"/>
<path d="M1730 1559 c-199 -16 -353 -32 -505 -54 -128 -19 -150 -22 -265 -36
-107 -13 -140 -28 -140 -64 0 -31 39 -58 71 -50 13 3 78 12 144 20 66 8 145
19 174 25 30 5 57 7 60 4 10 -10 -102 -206 -137 -237 -12 -11 -48 -22 -88 -28
-75 -10 -115 -32 -125 -70 -15 -54 -9 -280 20 -732 11 -163 22 -197 66 -197
45 0 54 31 44 155 -24 297 -39 735 -25 735 2 0 28 5 57 10 30 6 117 17 194 25
77 8 210 24 295 35 152 21 286 26 333 15 22 -6 23 -8 16 -83 -24 -242 -31
-310 -33 -332 -2 -14 -9 -75 -16 -135 -6 -61 -23 -166 -37 -235 -38 -190 -38
-187 -14 -200 30 -15 58 -4 76 30 18 35 61 232 70 320 3 36 12 117 20 180 7
63 19 171 25 240 7 69 16 152 20 185 11 82 -2 107 -63 122 -90 22 -208 21
-394 -3 -241 -32 -303 -38 -303 -30 0 4 18 37 39 72 22 36 50 90 62 120 15 36
30 56 43 59 46 10 355 35 437 35 66 0 91 4 103 16 28 27 19 62 -21 83 -24 12
-58 12 -203 0z"/>
</g>
</svg>
