<?xml version="1.0" standalone="no"?>
<!DOCTYPE svg PUBLIC "-//W3C//DTD SVG 20010904//EN"
 "http://www.w3.org/TR/2001/REC-SVG-20010904/DTD/svg10.dtd">
<svg version="1.0" xmlns="http://www.w3.org/2000/svg"
 width="248.000000pt" height="248.000000pt" viewBox="0 0 248.000000 248.000000"
 preserveAspectRatio="xMidYMid meet">
<metadata>
Created by potrace 1.10, written by Peter Selinger 2001-2011
</metadata>
<g transform="translate(0.000000,248.000000) scale(0.100000,-0.100000)"
fill="#000000" stroke="none">
<path d="M1685 2300 c-22 -5 -92 -14 -155 -20 -63 -6 -155 -18 -205 -26 -54
-9 -111 -13 -142 -9 -45 5 -55 3 -74 -16 -19 -19 -21 -27 -13 -78 23 -163 -22
-465 -91 -601 -38 -75 -30 -120 20 -120 78 0 161 270 174 565 l6 150 75 6 c41
3 144 14 228 24 84 9 155 15 157 13 2 -2 -4 -37 -12 -78 -12 -54 -16 -134 -17
-281 l-1 -206 30 -49 c37 -59 107 -108 175 -123 64 -14 270 -14 330 0 71 16
80 30 80 119 0 80 -9 100 -45 100 -30 0 -45 -19 -45 -59 0 -51 -9 -59 -74 -72
-73 -15 -217 1 -274 30 -53 27 -79 82 -88 186 -7 88 16 297 43 400 9 33 18 77
21 97 4 34 1 39 -23 48 -14 5 -29 9 -33 9 -4 -1 -25 -5 -47 -9z"/>
<path d="M685 2273 c-100 -121 -220 -223 -370 -318 -33 -20 -70 -46 -82 -58
-39 -35 -25 -87 23 -87 36 0 257 151 393 269 62 54 121 131 121 158 0 18 -37
53 -55 53 -8 0 -22 -8 -30 -17z"/>
<path d="M718 1753 c-14 -16 -51 -75 -83 -132 -32 -57 -92 -147 -135 -200
-102 -126 -276 -294 -368 -355 -86 -57 -100 -77 -77 -112 8 -13 23 -24 32 -24
38 0 180 100 294 208 37 34 70 58 73 53 4 -5 2 -160 -4 -343 -9 -307 -17 -432
-35 -579 -6 -45 -4 -58 10 -72 32 -32 80 -13 89 36 14 69 27 370 32 705 l4
383 59 73 c64 81 201 315 201 344 0 47 -54 56 -92 15z"/>
<path d="M1645 1269 c-55 -9 -152 -20 -215 -24 -63 -3 -156 -13 -206 -21 -51
-8 -122 -13 -159 -12 -56 3 -69 0 -81 -16 -19 -27 -18 -42 6 -66 18 -18 29
-19 132 -15 62 3 130 10 152 15 23 5 93 12 156 15 63 4 142 11 175 16 33 5 65
9 72 9 11 0 -17 -72 -97 -245 -38 -83 -121 -215 -135 -215 -13 1 -181 140
-220 183 -75 83 -155 147 -184 147 -33 0 -54 -20 -49 -47 3 -20 199 -210 316
-308 40 -33 72 -64 72 -70 0 -13 -129 -139 -185 -182 -50 -38 -163 -95 -235
-118 -89 -28 -112 -62 -70 -100 19 -17 25 -17 73 -6 78 20 242 105 324 167 40
31 96 82 124 115 28 32 54 59 57 59 4 0 36 -26 72 -56 187 -162 524 -324 680
-328 62 -1 64 0 74 28 9 24 7 31 -11 46 -12 9 -43 20 -70 24 -90 12 -329 111
-441 184 -61 39 -242 181 -242 189 0 3 20 36 45 74 56 86 119 211 186 367 27
64 54 121 60 127 13 13 11 59 -3 73 -15 15 -49 14 -173 -9z"/>
</g>
</svg>
