<?xml version="1.0" standalone="no"?>
<!DOCTYPE svg PUBLIC "-//W3C//DTD SVG 20010904//EN"
 "http://www.w3.org/TR/2001/REC-SVG-20010904/DTD/svg10.dtd">
<svg version="1.0" xmlns="http://www.w3.org/2000/svg"
 width="248.000000pt" height="248.000000pt" viewBox="0 0 248.000000 248.000000"
 preserveAspectRatio="xMidYMid meet">
<metadata>
Created by potrace 1.10, written by Peter Selinger 2001-2011
</metadata>
<g transform="translate(0.000000,248.000000) scale(0.100000,-0.100000)"
fill="#000000" stroke="none">
<path d="M878 2310 c-9 -6 -54 -54 -99 -108 -45 -53 -190 -204 -321 -335 -252
-251 -264 -267 -208 -293 50 -24 177 -77 249 -105 41 -15 78 -32 82 -36 8 -8
-247 -269 -346 -356 -36 -32 -39 -38 -30 -64 12 -31 52 -43 89 -24 12 6 93 30
181 55 230 64 312 90 406 128 74 30 84 37 87 62 7 60 -33 70 -125 32 -55 -23
-285 -97 -347 -112 -26 -6 -27 -5 -17 14 6 11 46 53 90 94 43 40 143 147 221
238 77 91 168 195 200 232 60 66 71 93 48 116 -20 20 -56 13 -91 -18 -19 -16
-90 -95 -158 -175 -67 -80 -128 -144 -133 -141 -6 3 -40 17 -76 31 -153 62
-191 79 -197 88 -3 5 89 104 203 220 238 242 374 391 374 412 0 18 -35 55 -52
55 -7 0 -20 -5 -30 -10z"/>
</g>
</svg>
