<?xml version="1.0" standalone="no"?>
<!DOCTYPE svg PUBLIC "-//W3C//DTD SVG 20010904//EN"
 "http://www.w3.org/TR/2001/REC-SVG-20010904/DTD/svg10.dtd">
<svg version="1.0" xmlns="http://www.w3.org/2000/svg"
 width="248.000000pt" height="248.000000pt" viewBox="0 0 248.000000 248.000000"
 preserveAspectRatio="xMidYMid meet">
<metadata>
Created by potrace 1.10, written by Peter Selinger 2001-2011
</metadata>
<g transform="translate(0.000000,248.000000) scale(0.100000,-0.100000)"
fill="#000000" stroke="none">
<path d="M685 2273 c-100 -121 -220 -223 -370 -318 -33 -20 -70 -46 -82 -58
-39 -35 -25 -87 23 -87 36 0 257 151 393 269 62 54 121 131 121 158 0 18 -37
53 -55 53 -8 0 -22 -8 -30 -17z"/>
<path d="M718 1753 c-14 -16 -51 -75 -83 -132 -32 -57 -92 -147 -135 -200
-102 -126 -276 -294 -368 -355 -86 -57 -100 -77 -77 -112 20 -31 37 -30 99 5
127 74 285 223 444 422 71 89 212 326 212 357 0 47 -54 56 -92 15z"/>
</g>
</svg>
