<?xml version="1.0" standalone="no"?>
<!DOCTYPE svg PUBLIC "-//W3C//DTD SVG 20010904//EN"
 "http://www.w3.org/TR/2001/REC-SVG-20010904/DTD/svg10.dtd">
<svg version="1.0" xmlns="http://www.w3.org/2000/svg"
 width="248.000000pt" height="248.000000pt" viewBox="0 0 248.000000 248.000000"
 preserveAspectRatio="xMidYMid meet">
<metadata>
Created by potrace 1.10, written by Peter Selinger 2001-2011
</metadata>
<g transform="translate(0.000000,248.000000) scale(0.100000,-0.100000)"
fill="#000000" stroke="none">
<path d="M878 2310 c-9 -6 -54 -54 -99 -108 -45 -53 -190 -204 -321 -334 -148
-148 -238 -245 -238 -257 0 -21 35 -51 58 -51 7 0 53 -18 100 -39 125 -57 213
-92 245 -98 56 -11 78 49 31 86 -14 11 -51 30 -82 41 -98 36 -183 73 -189 83
-3 5 89 104 203 220 238 242 374 391 374 412 0 18 -35 55 -52 55 -7 0 -20 -5
-30 -10z"/>
</g>
</svg>
