<?xml version="1.0" standalone="no"?>
<!DOCTYPE svg PUBLIC "-//W3C//DTD SVG 20010904//EN"
 "http://www.w3.org/TR/2001/REC-SVG-20010904/DTD/svg10.dtd">
<svg version="1.0" xmlns="http://www.w3.org/2000/svg"
 width="248.000000pt" height="248.000000pt" viewBox="0 0 248.000000 248.000000"
 preserveAspectRatio="xMidYMid meet">
<metadata>
Created by potrace 1.10, written by Peter Selinger 2001-2011
</metadata>
<g transform="translate(0.000000,248.000000) scale(0.100000,-0.100000)"
fill="#000000" stroke="none">
<path d="M878 2310 c-9 -6 -54 -54 -99 -108 -45 -53 -190 -204 -321 -335 -252
-251 -264 -267 -208 -293 50 -24 177 -77 249 -105 41 -15 78 -32 82 -36 8 -8
-247 -269 -346 -356 -36 -32 -39 -38 -30 -64 12 -31 52 -43 89 -24 12 6 86 28
166 50 187 51 293 84 405 127 l90 35 18 -23 c71 -90 110 -128 131 -128 49 0
60 46 24 97 -102 140 -233 294 -255 299 -65 17 -81 -43 -29 -105 20 -24 36
-47 36 -52 0 -12 -54 -34 -185 -75 -161 -51 -216 -66 -223 -59 -3 3 41 52 99
108 57 56 167 176 244 267 77 90 161 187 188 216 47 51 57 80 35 102 -20 20
-56 13 -91 -18 -19 -16 -90 -95 -158 -175 -67 -80 -128 -144 -133 -141 -6 3
-40 17 -76 31 -153 62 -191 79 -197 88 -3 5 89 104 203 220 238 242 374 391
374 412 0 18 -35 55 -52 55 -7 0 -20 -5 -30 -10z"/>
</g>
</svg>
