<?xml version="1.0" standalone="no"?>
<!DOCTYPE svg PUBLIC "-//W3C//DTD SVG 20010904//EN"
 "http://www.w3.org/TR/2001/REC-SVG-20010904/DTD/svg10.dtd">
<svg version="1.0" xmlns="http://www.w3.org/2000/svg"
 width="248.000000pt" height="248.000000pt" viewBox="0 0 248.000000 248.000000"
 preserveAspectRatio="xMidYMid meet">
<metadata>
Created by potrace 1.10, written by Peter Selinger 2001-2011
</metadata>
<g transform="translate(0.000000,248.000000) scale(0.100000,-0.100000)"
fill="#000000" stroke="none">
<path d="M1121 2181 c-11 -7 -13 -99 -13 -527 0 -286 -4 -568 -9 -629 -9 -114
-30 -537 -29 -590 1 -65 31 -90 74 -62 22 15 23 21 30 209 8 234 17 411 22
419 1 3 4 265 5 582 1 450 -1 580 -11 592 -14 17 -47 20 -69 6z"/>
</g>
</svg>
