<?xml version="1.0" standalone="no"?>
<!DOCTYPE svg PUBLIC "-//W3C//DTD SVG 20010904//EN"
 "http://www.w3.org/TR/2001/REC-SVG-20010904/DTD/svg10.dtd">
<svg version="1.0" xmlns="http://www.w3.org/2000/svg"
 width="248.000000pt" height="248.000000pt" viewBox="0 0 248.000000 248.000000"
 preserveAspectRatio="xMidYMid meet">
<metadata>
Created by potrace 1.10, written by Peter Selinger 2001-2011
</metadata>
<g transform="translate(0.000000,248.000000) scale(0.100000,-0.100000)"
fill="#000000" stroke="none">
<path d="M1200 2340 c-19 -19 -20 -33 -20 -200 0 -162 -2 -180 -18 -189 -10
-5 -72 -14 -137 -20 -66 -6 -185 -21 -265 -32 -95 -14 -166 -19 -206 -15 -87
9 -91 2 -70 -122 9 -54 16 -149 16 -212 0 -117 -37 -474 -64 -610 -39 -206
-134 -449 -240 -620 -60 -97 -60 -150 0 -150 56 0 210 291 289 545 46 149 67
267 100 563 25 224 26 303 9 444 -4 35 -2 49 8 52 17 5 312 41 493 61 199 21
794 57 938 56 85 -1 110 7 127 40 9 16 8 26 -5 45 l-16 25 -162 -6 c-89 -3
-261 -13 -382 -21 -121 -7 -240 -14 -266 -14 l-45 0 4 179 c4 172 4 179 -17
200 -26 26 -45 27 -71 1z"/>
<path d="M1610 1601 c-8 -5 -33 -11 -55 -15 -22 -3 -110 -17 -195 -31 -203
-32 -399 -55 -481 -55 -37 0 -70 -5 -77 -12 -17 -17 -15 -53 6 -70 28 -25 73
-28 208 -13 183 21 166 25 159 -42 -16 -158 -30 -244 -40 -253 -6 -5 -67 -16
-135 -25 -208 -27 -321 -58 -333 -89 -9 -22 26 -644 39 -713 10 -52 87 -51
100 2 3 14 1 67 -6 118 -6 50 -14 194 -17 318 l-6 226 44 8 c24 4 102 15 172
25 l128 17 -7 -41 c-19 -119 -82 -297 -130 -367 -48 -72 -42 -109 17 -109 66
0 157 187 210 430 11 52 23 98 27 101 10 10 410 59 535 66 l107 6 1 -49 c3
-219 -33 -395 -144 -694 -30 -81 -35 -85 -66 -57 -53 48 -116 87 -141 87 -58
0 -68 -55 -17 -94 17 -14 64 -50 102 -81 39 -30 79 -55 90 -55 58 0 96 62 169
280 75 223 107 373 113 536 9 229 -4 242 -230 224 -78 -6 -189 -17 -247 -26
-162 -22 -251 -31 -255 -25 -2 4 3 53 11 111 7 58 14 126 14 153 0 26 2 47 5
47 41 0 375 64 392 75 25 17 32 62 11 83 -14 14 -56 15 -78 3z"/>
<path d="M132 1558 c-13 -13 -16 -47 -4 -64 17 -25 216 -174 232 -174 23 0 50
26 50 49 0 20 -48 67 -149 144 -72 57 -106 68 -129 45z"/>
<path d="M257 1018 c-13 -18 -37 -56 -52 -85 -15 -28 -56 -88 -92 -133 -48
-61 -63 -88 -61 -107 4 -32 27 -48 59 -40 47 12 239 294 239 351 0 54 -57 62
-93 14z"/>
</g>
</svg>
