<?xml version="1.0" standalone="no"?>
<!DOCTYPE svg PUBLIC "-//W3C//DTD SVG 20010904//EN"
 "http://www.w3.org/TR/2001/REC-SVG-20010904/DTD/svg10.dtd">
<svg version="1.0" xmlns="http://www.w3.org/2000/svg"
 width="248.000000pt" height="248.000000pt" viewBox="0 0 248.000000 248.000000"
 preserveAspectRatio="xMidYMid meet">
<metadata>
Created by potrace 1.10, written by Peter Selinger 2001-2011
</metadata>
<g transform="translate(0.000000,248.000000) scale(0.100000,-0.100000)"
fill="#000000" stroke="none">
<path d="M1121 2181 c-11 -7 -13 -99 -13 -527 0 -286 -4 -568 -9 -629 -5 -60
-13 -211 -19 -335 -6 -124 -11 -238 -13 -255 l-2 -30 -130 -7 c-71 -3 -182
-11 -245 -17 -63 -6 -140 -12 -170 -13 l-55 -3 -7 50 c-4 28 -12 115 -17 195
-12 175 -38 485 -47 558 -9 77 -49 106 -90 65 -13 -14 -15 -28 -10 -77 3 -34
13 -142 22 -241 8 -99 17 -189 19 -200 2 -11 7 -76 10 -145 3 -69 10 -150 15
-180 5 -30 9 -70 8 -89 -2 -56 53 -84 98 -50 19 15 268 38 579 54 413 21 562
26 635 21 143 -11 160 -15 170 -42 13 -33 63 -34 84 -1 25 39 122 494 141 667
4 30 18 108 31 174 27 132 30 186 12 204 -16 16 -53 15 -68 -2 -13 -17 -64
-268 -75 -371 -5 -59 -39 -239 -89 -475 l-12 -55 -344 -6 c-247 -4 -347 -3
-353 5 -10 13 8 559 19 577 1 3 4 265 5 582 1 450 -1 580 -11 592 -14 17 -47
20 -69 6z"/>
</g>
</svg>
