<?xml version="1.0" standalone="no"?>
<!DOCTYPE svg PUBLIC "-//W3C//DTD SVG 20010904//EN"
 "http://www.w3.org/TR/2001/REC-SVG-20010904/DTD/svg10.dtd">
<svg version="1.0" xmlns="http://www.w3.org/2000/svg"
 width="248.000000pt" height="248.000000pt" viewBox="0 0 248.000000 248.000000"
 preserveAspectRatio="xMidYMid meet">
<metadata>
Created by potrace 1.10, written by Peter Selinger 2001-2011
</metadata>
<g transform="translate(0.000000,248.000000) scale(0.100000,-0.100000)"
fill="#000000" stroke="none">
<path d="M1482 2363 c-48 -48 -119 -115 -156 -149 -56 -50 -67 -65 -61 -83 4
-13 2 -23 -7 -26 -19 -7 -308 -32 -313 -27 -2 2 1 15 6 29 8 22 1 39 -46 119
-76 127 -134 171 -173 132 -21 -21 -13 -47 33 -104 25 -30 45 -59 45 -63 0 -5
16 -32 35 -60 19 -28 35 -53 35 -56 0 -3 -41 -3 -90 0 -81 4 -92 3 -110 -15
-25 -25 -25 -45 -1 -69 17 -17 32 -18 199 -13 l180 5 7 -58 c5 -35 4 -65 -2
-74 -11 -17 -176 -39 -303 -40 -70 -1 -90 -11 -90 -47 0 -43 18 -47 213 -43
l182 4 -3 -88 c-3 -96 5 -117 44 -117 38 0 53 35 55 133 2 80 4 90 23 97 11 5
95 18 186 30 174 23 210 36 210 74 0 49 -16 51 -213 27 -100 -13 -186 -23
-192 -24 -6 -1 -11 27 -13 65 l-3 67 33 5 c18 2 69 9 113 15 113 16 346 60
373 71 25 11 31 57 10 78 -17 17 -46 15 -183 -12 -66 -13 -121 -23 -123 -21
-2 2 30 31 70 65 83 71 188 185 188 204 0 19 -23 43 -48 51 -19 5 -36 -8 -110
-82z"/>
</g>
</svg>
