<?xml version="1.0" standalone="no"?>
<!DOCTYPE svg PUBLIC "-//W3C//DTD SVG 20010904//EN"
 "http://www.w3.org/TR/2001/REC-SVG-20010904/DTD/svg10.dtd">
<svg version="1.0" xmlns="http://www.w3.org/2000/svg"
 width="248.000000pt" height="248.000000pt" viewBox="0 0 248.000000 248.000000"
 preserveAspectRatio="xMidYMid meet">
<metadata>
Created by potrace 1.10, written by Peter Selinger 2001-2011
</metadata>
<g transform="translate(0.000000,248.000000) scale(0.100000,-0.100000)"
fill="#000000" stroke="none">
<path d="M1482 2363 c-48 -48 -118 -115 -155 -148 -37 -33 -67 -65 -67 -71 0
-7 8 -22 18 -34 14 -17 25 -21 43 -17 53 14 319 265 319 300 0 20 -23 44 -48
52 -19 5 -36 -8 -110 -82z"/>
<path d="M732 2358 c-21 -21 -13 -48 27 -96 21 -26 47 -63 56 -82 31 -62 66
-100 90 -100 25 0 55 24 55 42 0 22 -111 197 -141 222 -33 28 -68 33 -87 14z"/>
</g>
</svg>
