<?xml version="1.0" standalone="no"?>
<!DOCTYPE svg PUBLIC "-//W3C//DTD SVG 20010904//EN"
 "http://www.w3.org/TR/2001/REC-SVG-20010904/DTD/svg10.dtd">
<svg version="1.0" xmlns="http://www.w3.org/2000/svg"
 width="248.000000pt" height="248.000000pt" viewBox="0 0 248.000000 248.000000"
 preserveAspectRatio="xMidYMid meet">
<metadata>
Created by potrace 1.10, written by Peter Selinger 2001-2011
</metadata>
<g transform="translate(0.000000,248.000000) scale(0.100000,-0.100000)"
fill="#000000" stroke="none">
<path d="M1482 2363 c-48 -48 -119 -115 -156 -149 -56 -50 -67 -65 -61 -83 4
-13 2 -23 -7 -26 -19 -7 -308 -32 -313 -27 -2 2 1 15 6 29 8 22 1 39 -46 119
-76 127 -134 171 -173 132 -21 -21 -13 -47 33 -104 25 -30 45 -59 45 -63 0 -5
16 -32 35 -60 19 -28 35 -53 35 -56 0 -3 -41 -3 -90 0 -81 4 -92 3 -110 -15
-25 -25 -25 -45 -1 -69 17 -17 32 -18 199 -13 l180 5 7 -58 c5 -35 4 -65 -2
-74 -11 -17 -176 -39 -303 -40 -70 -1 -90 -11 -90 -47 0 -44 18 -47 211 -41
207 7 197 11 183 -86 -10 -71 -2 -67 -179 -87 -143 -15 -307 -41 -325 -49 -19
-10 -25 -48 -10 -67 17 -19 102 -18 230 2 56 9 104 13 107 10 13 -13 -57 -98
-173 -209 -138 -133 -215 -194 -331 -263 -98 -59 -113 -72 -113 -99 0 -28 18
-45 49 -45 31 0 207 108 306 188 134 107 283 261 346 358 67 101 57 96 199
109 l65 6 80 -76 c117 -112 247 -199 455 -307 136 -71 229 -111 351 -152 171
-58 206 -65 227 -44 17 17 15 53 -3 68 -9 7 -92 39 -185 71 -202 68 -447 189
-600 295 -104 72 -189 148 -178 159 3 4 93 8 199 11 234 5 256 8 264 35 13 39
-3 68 -39 75 -19 3 -40 2 -47 -2 -7 -4 -115 -11 -239 -15 -124 -4 -256 -11
-293 -15 l-68 -7 2 77 c2 69 4 79 23 86 12 5 95 18 186 30 174 23 210 36 210
74 0 49 -16 51 -213 27 -100 -13 -186 -23 -192 -24 -6 -1 -11 27 -13 65 l-3
67 33 5 c18 2 69 9 113 15 113 16 346 60 373 71 25 11 31 57 10 78 -17 17 -46
15 -183 -12 -66 -13 -121 -23 -123 -21 -2 2 30 31 70 65 83 71 188 185 188
204 0 19 -23 43 -48 51 -19 5 -36 -8 -110 -82z"/>
<path d="M1060 1374 c-10 -12 -11 -28 -3 -72 6 -32 9 -77 6 -100 -6 -49 8 -72
43 -72 46 0 56 25 52 126 -2 73 -7 96 -22 113 -23 25 -58 27 -76 5z"/>
</g>
</svg>
