<?xml version="1.0" standalone="no"?>
<!DOCTYPE svg PUBLIC "-//W3C//DTD SVG 20010904//EN"
 "http://www.w3.org/TR/2001/REC-SVG-20010904/DTD/svg10.dtd">
<svg version="1.0" xmlns="http://www.w3.org/2000/svg"
 width="248.000000pt" height="248.000000pt" viewBox="0 0 248.000000 248.000000"
 preserveAspectRatio="xMidYMid meet">
<metadata>
Created by potrace 1.10, written by Peter Selinger 2001-2011
</metadata>
<g transform="translate(0.000000,248.000000) scale(0.100000,-0.100000)"
fill="#000000" stroke="none">
<path d="M1402 2358 c-6 -8 -13 -160 -18 -405 -4 -215 -10 -395 -13 -400 -6
-10 -349 -32 -606 -40 -82 -3 -156 -10 -162 -15 -16 -13 -17 -50 -1 -66 16
-16 282 -16 521 -1 98 7 180 10 182 7 7 -6 -125 -255 -206 -390 -129 -216
-318 -449 -428 -528 -59 -43 -54 -100 9 -100 39 0 93 43 197 156 153 166 284
360 443 658 26 48 50 84 54 78 5 -8 9 -1029 4 -1139 -2 -41 18 -65 51 -61 49
6 50 12 45 587 -2 295 -1 544 2 554 4 13 23 -6 79 -80 99 -132 402 -485 477
-555 62 -58 235 -186 289 -213 61 -31 84 -31 104 -1 23 34 7 60 -58 92 -65 33
-236 165 -299 230 -61 64 -202 226 -253 289 -21 28 -58 71 -81 96 -23 25 -80
97 -127 160 -46 63 -94 123 -106 133 -11 11 -21 25 -21 32 0 19 30 23 420 49
387 27 462 45 446 109 -9 36 -40 41 -143 22 -49 -9 -187 -23 -308 -31 -121 -9
-263 -19 -315 -24 -52 -4 -98 -6 -102 -4 -4 2 -5 179 -1 393 7 416 6 420 -42
420 -12 0 -27 -6 -33 -12z"/>
<path d="M692 2348 c-7 -7 -12 -17 -12 -24 0 -6 -16 -54 -36 -105 -20 -52 -60
-161 -90 -244 -120 -330 -268 -628 -397 -798 -114 -150 -110 -143 -102 -167
10 -32 42 -44 70 -26 27 18 139 158 200 252 23 35 45 61 49 57 3 -3 6 -256 5
-561 0 -353 3 -558 10 -565 12 -12 60 -12 72 0 13 13 12 1259 -1 1283 -7 12
10 60 65 183 41 91 94 224 119 294 24 70 65 179 90 241 25 63 46 121 46 131 0
46 -58 79 -88 49z"/>
</g>
</svg>
