<?xml version="1.0" standalone="no"?>
<!DOCTYPE svg PUBLIC "-//W3C//DTD SVG 20010904//EN"
 "http://www.w3.org/TR/2001/REC-SVG-20010904/DTD/svg10.dtd">
<svg version="1.0" xmlns="http://www.w3.org/2000/svg"
 width="248.000000pt" height="248.000000pt" viewBox="0 0 248.000000 248.000000"
 preserveAspectRatio="xMidYMid meet">
<metadata>
Created by potrace 1.10, written by Peter Selinger 2001-2011
</metadata>
<g transform="translate(0.000000,248.000000) scale(0.100000,-0.100000)"
fill="#000000" stroke="none">
<path d="M692 2348 c-7 -7 -12 -17 -12 -24 0 -6 -16 -54 -36 -105 -20 -52 -60
-161 -90 -244 -120 -330 -268 -628 -397 -798 -114 -150 -110 -143 -102 -167
10 -32 42 -44 70 -26 27 18 139 158 200 252 23 35 45 61 49 57 3 -3 6 -256 5
-561 0 -353 3 -558 10 -565 12 -12 60 -12 72 0 13 13 12 1259 -1 1283 -7 12
10 60 65 183 41 91 94 224 119 294 24 70 65 179 90 241 25 63 46 121 46 131 0
46 -58 79 -88 49z"/>
</g>
</svg>
