<?xml version="1.0" standalone="no"?>
<!DOCTYPE svg PUBLIC "-//W3C//DTD SVG 20010904//EN"
 "http://www.w3.org/TR/2001/REC-SVG-20010904/DTD/svg10.dtd">
<svg version="1.0" xmlns="http://www.w3.org/2000/svg"
 width="248.000000pt" height="248.000000pt" viewBox="0 0 248.000000 248.000000"
 preserveAspectRatio="xMidYMid meet">
<metadata>
Created by potrace 1.10, written by Peter Selinger 2001-2011
</metadata>
<g transform="translate(0.000000,248.000000) scale(0.100000,-0.100000)"
fill="#000000" stroke="none">
<path d="M1047 2263 c-12 -14 -16 -44 -17 -133 -1 -63 -2 -144 -3 -179 -2 -71
10 -89 56 -77 33 8 34 14 43 186 8 159 7 189 -8 207 -15 18 -52 16 -71 -4z"/>
<path d="M272 1848 c-5 -8 -12 -104 -15 -226 -4 -177 -2 -216 10 -228 19 -19
36 -18 63 4 21 17 22 23 22 226 -1 144 -4 212 -13 222 -14 17 -53 18 -67 2z"/>
</g>
</svg>
