<?xml version="1.0" standalone="no"?>
<!DOCTYPE svg PUBLIC "-//W3C//DTD SVG 20010904//EN"
 "http://www.w3.org/TR/2001/REC-SVG-20010904/DTD/svg10.dtd">
<svg version="1.0" xmlns="http://www.w3.org/2000/svg"
 width="248.000000pt" height="248.000000pt" viewBox="0 0 248.000000 248.000000"
 preserveAspectRatio="xMidYMid meet">
<metadata>
Created by potrace 1.10, written by Peter Selinger 2001-2011
</metadata>
<g transform="translate(0.000000,248.000000) scale(0.100000,-0.100000)"
fill="#000000" stroke="none">
<path d="M692 2348 c-7 -7 -12 -17 -12 -24 0 -6 -16 -54 -36 -105 -20 -52 -60
-161 -90 -244 -123 -337 -268 -626 -404 -807 -55 -73 -100 -138 -100 -145 0
-15 35 -53 49 -53 44 0 217 235 313 426 93 185 184 393 236 544 22 63 61 166
86 228 25 63 46 121 46 131 0 46 -58 79 -88 49z"/>
</g>
</svg>
