<?xml version="1.0" standalone="no"?>
<!DOCTYPE svg PUBLIC "-//W3C//DTD SVG 20010904//EN"
 "http://www.w3.org/TR/2001/REC-SVG-20010904/DTD/svg10.dtd">
<svg version="1.0" xmlns="http://www.w3.org/2000/svg"
 width="248.000000pt" height="248.000000pt" viewBox="0 0 248.000000 248.000000"
 preserveAspectRatio="xMidYMid meet">
<metadata>
Created by potrace 1.10, written by Peter Selinger 2001-2011
</metadata>
<g transform="translate(0.000000,248.000000) scale(0.100000,-0.100000)"
fill="#000000" stroke="none">
<path d="M1675 2329 c-135 -18 -248 -31 -385 -44 -280 -28 -496 -59 -515 -75
-23 -19 -18 -58 10 -76 24 -15 34 -15 143 0 234 33 259 36 382 47 69 7 152 15
185 19 33 4 114 13 180 20 167 16 182 19 200 36 20 21 19 40 -5 64 -22 22 -81
25 -195 9z"/>
<path d="M1735 2014 c-22 -3 -83 -11 -136 -19 -53 -8 -119 -15 -146 -15 -28 0
-144 -13 -259 -29 -115 -17 -274 -35 -354 -41 -80 -7 -151 -17 -157 -22 -9 -7
-13 -42 -13 -107 -1 -275 -141 -840 -290 -1170 -59 -129 -167 -340 -186 -362
-36 -41 4 -96 56 -78 22 8 41 35 88 122 71 131 147 292 186 395 20 53 31 71
39 63 29 -29 56 -10 205 147 157 164 274 311 318 399 23 47 24 54 12 80 -10
21 -20 28 -43 28 -26 0 -33 -7 -58 -54 -16 -30 -60 -96 -97 -145 -84 -113
-314 -352 -304 -316 4 14 23 75 41 135 19 61 45 162 58 225 14 63 30 133 37
156 l12 41 103 6 c56 4 133 11 170 17 38 5 129 14 203 20 559 42 627 55 649
121 16 51 30 153 37 269 6 92 5 107 -10 119 -18 15 -92 22 -161 15z m65 -129
c0 -58 -22 -221 -31 -230 -10 -10 -250 -36 -514 -55 -77 -6 -167 -15 -200 -20
-33 -5 -114 -13 -179 -16 l-119 -7 6 34 c4 19 9 73 13 120 l6 86 122 11 c66 7
195 23 286 37 91 13 189 25 219 25 29 0 99 7 155 15 97 14 150 20 209 23 23 2
27 -2 27 -23z"/>
</g>
</svg>
