<?xml version="1.0" standalone="no"?>
<!DOCTYPE svg PUBLIC "-//W3C//DTD SVG 20010904//EN"
 "http://www.w3.org/TR/2001/REC-SVG-20010904/DTD/svg10.dtd">
<svg version="1.0" xmlns="http://www.w3.org/2000/svg"
 width="248.000000pt" height="248.000000pt" viewBox="0 0 248.000000 248.000000"
 preserveAspectRatio="xMidYMid meet">
<metadata>
Created by potrace 1.10, written by Peter Selinger 2001-2011
</metadata>
<g transform="translate(0.000000,248.000000) scale(0.100000,-0.100000)"
fill="#000000" stroke="none">
<path d="M1675 2330 c-33 -4 -116 -15 -185 -23 -69 -9 -174 -21 -235 -27 -60
-6 -141 -14 -180 -19 -38 -5 -115 -15 -170 -21 -55 -7 -110 -19 -122 -27 -31
-19 -30 -58 2 -79 24 -15 34 -15 143 0 219 32 247 35 327 41 82 6 187 18 310
35 39 6 119 14 179 19 96 7 112 11 128 31 23 28 23 35 -2 60 -22 22 -76 24
-195 10z"/>
<path d="M1730 2014 c-19 -2 -76 -11 -126 -19 -50 -8 -116 -15 -145 -15 -30 0
-133 -12 -229 -25 -96 -14 -256 -32 -355 -41 -99 -9 -185 -20 -191 -25 -6 -5
-14 -66 -17 -146 -7 -144 -19 -229 -61 -426 -43 -197 -145 -523 -216 -682 -59
-133 -176 -364 -197 -387 -35 -39 13 -98 63 -76 34 16 175 283 259 493 l32 80
35 -3 c33 -3 41 4 146 113 l112 116 0 -423 c0 -323 3 -429 13 -448 13 -25 13
-25 152 -23 77 0 337 6 578 11 476 11 487 13 487 67 0 49 -18 52 -295 47
l-255 -5 0 121 0 121 33 5 c17 3 109 10 204 16 95 5 183 14 197 19 43 17 45
74 2 91 -12 4 -111 2 -221 -6 -110 -7 -201 -11 -203 -9 -2 2 0 43 5 92 l8 88
125 12 c324 32 330 33 330 83 0 52 -13 54 -208 36 -97 -9 -194 -19 -214 -22
l-37 -6 -3 96 c-2 53 -1 96 2 97 3 0 43 4 90 9 240 25 342 39 355 50 23 19 19
67 -7 81 -22 12 -149 6 -238 -11 -25 -5 -81 -11 -125 -15 l-80 -6 3 118 c3
138 -6 168 -53 168 -45 0 -55 -30 -55 -167 0 -65 -3 -118 -7 -118 -5 0 -48 -7
-98 -15 -49 -8 -154 -18 -233 -21 l-144 -7 66 88 c36 48 73 107 82 131 15 41
15 45 0 69 -29 44 -65 31 -99 -34 -16 -30 -59 -96 -97 -145 -73 -99 -316 -353
-305 -321 51 160 114 394 115 430 0 10 8 44 17 76 l17 56 103 6 c56 4 133 11
170 17 38 5 127 14 198 20 291 22 552 49 590 62 54 19 70 56 89 203 21 156 21
229 0 246 -16 13 -102 20 -164 13z m66 -181 c-13 -155 -17 -174 -40 -184 -21
-8 -252 -31 -511 -49 -71 -6 -157 -14 -190 -20 -33 -5 -114 -13 -179 -16
l-119 -7 6 39 c3 21 9 76 13 120 l7 81 81 7 c44 3 178 20 296 36 118 16 271
34 340 41 69 6 152 15 185 19 33 4 73 8 89 8 l29 2 -7 -77z m-368 -900 l-3
-98 -70 -6 c-38 -4 -106 -12 -150 -17 -44 -6 -119 -14 -167 -18 l-88 -6 0 99
0 100 128 7 c70 4 161 14 202 21 41 7 92 13 113 14 l38 1 -3 -97z m-1 -294
c-3 -50 -7 -93 -9 -95 -2 -2 -89 -8 -194 -14 -104 -5 -208 -12 -231 -15 l-43
-5 0 85 c0 61 3 85 13 85 13 0 256 26 367 40 115 13 104 22 97 -81z m-17 -324
c0 -84 -3 -117 -12 -120 -7 -2 -111 -6 -230 -10 l-218 -6 0 111 c0 79 4 112
13 115 12 4 283 21 390 24 l57 1 0 -115z"/>
</g>
</svg>
