<?xml version="1.0" standalone="no"?>
<!DOCTYPE svg PUBLIC "-//W3C//DTD SVG 20010904//EN"
 "http://www.w3.org/TR/2001/REC-SVG-20010904/DTD/svg10.dtd">
<svg version="1.0" xmlns="http://www.w3.org/2000/svg"
 width="248.000000pt" height="248.000000pt" viewBox="0 0 248.000000 248.000000"
 preserveAspectRatio="xMidYMid meet">
<metadata>
Created by potrace 1.10, written by Peter Selinger 2001-2011
</metadata>
<g transform="translate(0.000000,248.000000) scale(0.100000,-0.100000)"
fill="#000000" stroke="none">
<path d="M1675 2329 c-135 -18 -248 -31 -385 -44 -280 -28 -496 -59 -515 -75
-23 -19 -18 -58 10 -76 24 -15 34 -15 143 0 234 33 259 36 382 47 69 7 152 15
185 19 33 4 114 13 180 20 167 16 182 19 200 36 20 21 19 40 -5 64 -22 22 -81
25 -195 9z"/>
<path d="M1735 2014 c-22 -3 -83 -11 -136 -19 -53 -8 -118 -15 -145 -15 -27 0
-130 -12 -229 -26 -99 -14 -244 -31 -322 -38 -85 -8 -149 -19 -158 -26 -25
-21 -15 -63 19 -79 35 -16 155 -7 426 34 91 13 189 25 219 25 29 0 99 6 155
14 55 8 131 18 169 21 l67 7 0 -27 c0 -58 -22 -221 -31 -230 -10 -10 -245 -35
-509 -55 -74 -5 -169 -14 -210 -20 -41 -6 -132 -14 -202 -19 -137 -8 -161 -17
-156 -60 5 -43 39 -53 155 -47 57 3 133 10 170 16 38 5 129 14 203 20 559 42
627 55 649 121 16 51 30 153 37 269 6 92 5 107 -10 119 -18 15 -92 22 -161 15z"/>
</g>
</svg>
