<?xml version="1.0" standalone="no"?>
<!DOCTYPE svg PUBLIC "-//W3C//DTD SVG 20010904//EN"
 "http://www.w3.org/TR/2001/REC-SVG-20010904/DTD/svg10.dtd">
<svg version="1.0" xmlns="http://www.w3.org/2000/svg"
 width="248.000000pt" height="248.000000pt" viewBox="0 0 248.000000 248.000000"
 preserveAspectRatio="xMidYMid meet">
<metadata>
Created by potrace 1.10, written by Peter Selinger 2001-2011
</metadata>
<g transform="translate(0.000000,248.000000) scale(0.100000,-0.100000)"
fill="#000000" stroke="none">
<path d="M750 2258 c-52 -40 -115 -88 -140 -106 -49 -37 -219 -146 -269 -174
-49 -27 -39 -98 14 -98 21 0 110 49 204 113 30 20 56 35 57 34 1 -1 5 -79 9
-173 l7 -172 -74 -12 c-149 -23 -424 -83 -446 -97 -25 -15 -29 -54 -7 -73 20
-16 93 -9 243 24 67 15 158 33 201 40 l79 12 6 -40 c3 -23 9 -318 12 -656 5
-408 10 -626 18 -649 15 -46 37 -58 72 -42 l27 12 -8 612 c-4 337 -8 652 -9
702 l-1 89 35 8 c19 4 94 19 165 34 165 33 185 43 185 90 0 48 -20 50 -188 16
-86 -18 -166 -35 -178 -38 -19 -5 -21 0 -27 63 -4 37 -7 109 -7 158 0 50 -4
106 -9 127 l-8 36 91 69 c94 71 120 108 100 141 -23 36 -56 26 -154 -50z"/>
</g>
</svg>
