<?xml version="1.0" standalone="no"?>
<!DOCTYPE svg PUBLIC "-//W3C//DTD SVG 20010904//EN"
 "http://www.w3.org/TR/2001/REC-SVG-20010904/DTD/svg10.dtd">
<svg version="1.0" xmlns="http://www.w3.org/2000/svg"
 width="248.000000pt" height="248.000000pt" viewBox="0 0 248.000000 248.000000"
 preserveAspectRatio="xMidYMid meet">
<metadata>
Created by potrace 1.10, written by Peter Selinger 2001-2011
</metadata>
<g transform="translate(0.000000,248.000000) scale(0.100000,-0.100000)"
fill="#000000" stroke="none">
<path d="M740 1854 c-19 -2 -89 -9 -155 -15 -97 -8 -320 -46 -442 -74 -37 -9
-47 -40 -28 -88 19 -46 42 -211 54 -382 5 -60 11 -118 16 -128 12 -27 46 -30
131 -9 43 11 120 25 169 32 50 6 118 18 153 26 35 7 88 14 117 14 67 0 77 13
93 115 7 39 21 129 32 200 11 72 25 158 30 193 8 48 8 69 -2 90 -12 25 -18 27
-73 28 -33 1 -76 0 -95 -2z m54 -186 c-31 -218 -47 -314 -53 -321 -9 -10 -156
-40 -301 -62 -58 -8 -117 -18 -133 -21 -22 -5 -27 -3 -27 12 0 11 -5 53 -11
94 -16 119 -37 305 -35 307 5 6 207 43 286 52 134 16 157 18 226 19 l60 2 -12
-82z"/>
</g>
</svg>
