<?xml version="1.0" standalone="no"?>
<!DOCTYPE svg PUBLIC "-//W3C//DTD SVG 20010904//EN"
 "http://www.w3.org/TR/2001/REC-SVG-20010904/DTD/svg10.dtd">
<svg version="1.0" xmlns="http://www.w3.org/2000/svg"
 width="248.000000pt" height="248.000000pt" viewBox="0 0 248.000000 248.000000"
 preserveAspectRatio="xMidYMid meet">
<metadata>
Created by potrace 1.10, written by Peter Selinger 2001-2011
</metadata>
<g transform="translate(0.000000,248.000000) scale(0.100000,-0.100000)"
fill="#000000" stroke="none">
<path d="M1687 2335 c-21 -8 -50 -23 -65 -33 -30 -22 -137 -86 -282 -169 -142
-82 -173 -118 -134 -157 25 -25 47 -19 131 33 43 26 130 79 193 116 63 37 126
75 140 85 14 9 42 23 63 29 56 19 72 56 37 91 -23 23 -31 24 -83 5z"/>
<path d="M2045 1913 c-8 -10 -61 -76 -118 -147 -56 -71 -131 -154 -167 -184
-71 -59 -91 -93 -74 -120 23 -36 59 -26 137 37 40 33 80 69 88 79 8 11 51 65
96 119 85 104 123 160 123 181 0 17 -37 52 -55 52 -8 0 -22 -8 -30 -17z"/>
<path d="M740 1854 c-19 -2 -89 -9 -155 -15 -97 -8 -320 -46 -442 -74 -37 -9
-47 -40 -28 -88 19 -46 42 -211 54 -382 5 -60 11 -118 16 -128 12 -27 46 -30
131 -9 43 11 120 25 169 32 50 6 118 18 153 26 35 7 88 14 117 14 67 0 77 13
93 115 7 39 21 129 32 200 11 72 25 158 30 193 8 48 8 69 -2 90 -12 25 -18 27
-73 28 -33 1 -76 0 -95 -2z m60 -131 c0 -16 -5 -55 -10 -88 -5 -33 -16 -109
-25 -170 -9 -60 -20 -114 -24 -118 -9 -10 -156 -40 -301 -62 -58 -8 -117 -18
-133 -21 -22 -5 -27 -3 -27 12 0 11 -5 53 -11 94 -16 119 -37 305 -35 307 1 1
44 11 96 21 121 25 301 47 413 50 56 2 57 2 57 -25z"/>
<path d="M992 1758 c-21 -21 -13 -48 49 -175 33 -68 69 -144 79 -169 22 -51
40 -62 77 -45 23 11 25 16 21 54 -5 46 -118 287 -151 325 -22 24 -56 29 -75
10z"/>
<path d="M1931 1379 c-177 -13 -597 -67 -786 -100 -93 -17 -195 -35 -225 -40
-105 -19 -155 -62 -120 -105 16 -19 49 -18 156 5 151 32 378 69 634 102 203
26 287 32 489 35 197 3 247 6 259 18 20 19 8 62 -21 78 -28 15 -232 19 -386 7z"/>
</g>
</svg>
