<?xml version="1.0" standalone="no"?>
<!DOCTYPE svg PUBLIC "-//W3C//DTD SVG 20010904//EN"
 "http://www.w3.org/TR/2001/REC-SVG-20010904/DTD/svg10.dtd">
<svg version="1.0" xmlns="http://www.w3.org/2000/svg"
 width="248.000000pt" height="248.000000pt" viewBox="0 0 248.000000 248.000000"
 preserveAspectRatio="xMidYMid meet">
<metadata>
Created by potrace 1.10, written by Peter Selinger 2001-2011
</metadata>
<g transform="translate(0.000000,248.000000) scale(0.100000,-0.100000)"
fill="#000000" stroke="none">
<path d="M740 1854 c-19 -2 -89 -9 -155 -15 -97 -8 -320 -46 -442 -74 -37 -9
-47 -40 -28 -88 19 -46 42 -211 54 -382 5 -60 11 -118 16 -128 9 -21 53 -33
74 -20 21 13 25 93 11 213 -30 242 -38 315 -36 317 4 5 208 43 276 52 41 5
125 13 186 17 l111 7 -13 -89 c-27 -192 -45 -301 -56 -339 -6 -22 -11 -49 -10
-59 2 -41 60 -49 90 -12 19 24 25 53 62 291 11 72 25 158 30 193 8 48 8 69 -2
90 -12 25 -18 27 -73 28 -33 1 -76 0 -95 -2z"/>
</g>
</svg>
