<?xml version="1.0" standalone="no"?>
<!DOCTYPE svg PUBLIC "-//W3C//DTD SVG 20010904//EN"
 "http://www.w3.org/TR/2001/REC-SVG-20010904/DTD/svg10.dtd">
<svg version="1.0" xmlns="http://www.w3.org/2000/svg"
 width="248.000000pt" height="248.000000pt" viewBox="0 0 248.000000 248.000000"
 preserveAspectRatio="xMidYMid meet">
<metadata>
Created by potrace 1.10, written by Peter Selinger 2001-2011
</metadata>
<g transform="translate(0.000000,248.000000) scale(0.100000,-0.100000)"
fill="#000000" stroke="none">
<path d="M1687 2335 c-21 -8 -50 -23 -65 -33 -29 -20 -173 -107 -308 -185
-101 -58 -129 -87 -120 -121 8 -32 50 -45 80 -26 112 71 117 74 126 60 9 -14
34 -169 50 -310 5 -47 14 -123 20 -170 5 -47 10 -115 10 -152 l0 -67 -47 -6
c-43 -6 -372 -61 -513 -86 -105 -19 -155 -62 -120 -105 17 -19 49 -18 161 6
98 21 426 76 492 82 l37 4 0 -196 c0 -125 -7 -258 -20 -370 -28 -258 -68 -480
-86 -480 -3 0 -38 23 -79 50 -41 28 -85 50 -98 50 -49 0 -63 -51 -24 -88 43
-40 161 -112 196 -118 84 -16 116 47 159 317 45 279 56 394 58 627 1 117 4
216 7 219 16 16 251 35 471 38 272 5 285 8 272 59 -9 35 -35 47 -120 53 -81 6
-379 -11 -531 -31 -55 -8 -101 -12 -103 -11 -2 2 -6 38 -8 81 -3 44 -10 115
-15 159 -5 44 -16 136 -24 205 -14 119 -39 263 -51 295 -4 10 9 23 41 42 26
15 73 44 105 64 31 20 73 42 93 48 56 19 72 56 37 91 -23 23 -31 24 -83 5z"/>
<path d="M2045 1913 c-8 -10 -61 -76 -118 -147 -56 -71 -131 -154 -167 -184
-71 -59 -91 -93 -74 -120 23 -36 59 -26 137 37 40 33 80 69 88 79 8 11 51 65
96 119 85 104 123 160 123 181 0 17 -37 52 -55 52 -8 0 -22 -8 -30 -17z"/>
<path d="M740 1854 c-19 -2 -89 -9 -155 -15 -97 -8 -320 -46 -442 -74 -37 -9
-47 -40 -28 -88 19 -46 42 -211 54 -382 5 -60 11 -118 16 -128 12 -27 46 -30
131 -9 43 11 120 25 169 32 50 6 118 18 153 26 35 7 88 14 117 14 67 0 77 13
93 115 7 39 21 129 32 200 11 72 25 158 30 193 8 48 8 69 -2 90 -12 25 -18 27
-73 28 -33 1 -76 0 -95 -2z m60 -131 c0 -16 -5 -55 -10 -88 -5 -33 -16 -109
-25 -170 -9 -60 -20 -114 -24 -118 -9 -10 -156 -40 -301 -62 -58 -8 -117 -18
-133 -21 -22 -5 -27 -3 -27 12 0 11 -5 53 -11 94 -16 119 -37 305 -35 307 1 1
44 11 96 21 121 25 301 47 413 50 56 2 57 2 57 -25z"/>
<path d="M992 1758 c-21 -21 -13 -48 49 -175 33 -68 69 -144 79 -169 22 -51
40 -62 77 -45 23 11 25 16 21 54 -5 46 -118 287 -151 325 -22 24 -56 29 -75
10z"/>
</g>
</svg>
