<?xml version="1.0" standalone="no"?>
<!DOCTYPE svg PUBLIC "-//W3C//DTD SVG 20010904//EN"
 "http://www.w3.org/TR/2001/REC-SVG-20010904/DTD/svg10.dtd">
<svg version="1.0" xmlns="http://www.w3.org/2000/svg"
 width="248.000000pt" height="248.000000pt" viewBox="0 0 248.000000 248.000000"
 preserveAspectRatio="xMidYMid meet">
<metadata>
Created by potrace 1.10, written by Peter Selinger 2001-2011
</metadata>
<g transform="translate(0.000000,248.000000) scale(0.100000,-0.100000)"
fill="#000000" stroke="none">
<path d="M1128 2334 c-120 -157 -310 -350 -738 -749 -306 -286 -310 -290 -310
-313 0 -26 25 -52 51 -52 46 0 941 858 1031 988 l29 42 32 -22 c18 -12 57 -45
87 -74 30 -28 75 -64 100 -79 25 -16 65 -45 90 -67 127 -108 320 -264 355
-286 22 -14 58 -39 80 -57 65 -51 212 -140 317 -191 94 -45 98 -46 123 -30 25
17 30 31 19 60 -4 9 -54 41 -113 71 -162 84 -345 208 -527 359 -66 56 -141
116 -165 133 -120 89 -271 215 -334 281 -55 57 -74 55 -127 -14z"/>
</g>
</svg>
