<?xml version="1.0" standalone="no"?>
<!DOCTYPE svg PUBLIC "-//W3C//DTD SVG 20010904//EN"
 "http://www.w3.org/TR/2001/REC-SVG-20010904/DTD/svg10.dtd">
<svg version="1.0" xmlns="http://www.w3.org/2000/svg"
 width="248.000000pt" height="248.000000pt" viewBox="0 0 248.000000 248.000000"
 preserveAspectRatio="xMidYMid meet">
<metadata>
Created by potrace 1.10, written by Peter Selinger 2001-2011
</metadata>
<g transform="translate(0.000000,248.000000) scale(0.100000,-0.100000)"
fill="#000000" stroke="none">
<path d="M432 2338 c-20 -20 -14 -53 16 -81 29 -27 187 -124 261 -159 61 -28
96 -17 96 32 0 28 -5 37 -30 50 -64 32 -215 119 -251 144 -42 28 -73 33 -92
14z"/>
<path d="M875 1899 c-36 -10 -312 -53 -479 -74 -65 -9 -123 -18 -128 -21 -4
-3 -37 -5 -72 -5 -82 0 -101 -14 -97 -71 3 -48 36 -46 556 31 300 45 305 47
305 91 0 25 -31 62 -50 59 -3 0 -19 -5 -35 -10z"/>
<path d="M580 1480 c-52 -10 -147 -25 -210 -35 -63 -9 -121 -22 -127 -27 -18
-14 -16 -53 2 -68 22 -18 249 2 395 36 36 8 75 17 87 19 35 8 48 41 28 71 -19
29 -39 29 -175 4z"/>
</g>
</svg>
