<?xml version="1.0" standalone="no"?>
<!DOCTYPE svg PUBLIC "-//W3C//DTD SVG 20010904//EN"
 "http://www.w3.org/TR/2001/REC-SVG-20010904/DTD/svg10.dtd">
<svg version="1.0" xmlns="http://www.w3.org/2000/svg"
 width="248.000000pt" height="248.000000pt" viewBox="0 0 248.000000 248.000000"
 preserveAspectRatio="xMidYMid meet">
<metadata>
Created by potrace 1.10, written by Peter Selinger 2001-2011
</metadata>
<g transform="translate(0.000000,248.000000) scale(0.100000,-0.100000)"
fill="#000000" stroke="none">
<path d="M1760 2290 c-25 -4 -162 -11 -305 -15 -143 -3 -330 -13 -415 -21 -85
-7 -178 -14 -205 -14 -59 0 -95 -21 -95 -54 0 -44 14 -46 201 -36 96 5 230 14
299 19 141 11 397 17 404 11 2 -3 -72 -59 -166 -125 -93 -66 -178 -128 -189
-137 -26 -24 -24 -54 6 -74 23 -15 27 -14 75 13 52 29 286 196 420 300 84 66
99 98 58 127 -12 9 -27 15 -33 15 -5 -1 -30 -5 -55 -9z"/>
</g>
</svg>
