<?xml version="1.0" standalone="no"?>
<!DOCTYPE svg PUBLIC "-//W3C//DTD SVG 20010904//EN"
 "http://www.w3.org/TR/2001/REC-SVG-20010904/DTD/svg10.dtd">
<svg version="1.0" xmlns="http://www.w3.org/2000/svg"
 width="248.000000pt" height="248.000000pt" viewBox="0 0 248.000000 248.000000"
 preserveAspectRatio="xMidYMid meet">
<metadata>
Created by potrace 1.10, written by Peter Selinger 2001-2011
</metadata>
<g transform="translate(0.000000,248.000000) scale(0.100000,-0.100000)"
fill="#000000" stroke="none">
<path d="M1146 2358 c-9 -12 -16 -41 -16 -63 0 -49 -33 -235 -56 -314 -9 -31
-28 -94 -41 -141 -14 -47 -51 -156 -84 -242 -66 -175 -78 -233 -56 -262 14
-19 20 -19 143 -7 71 7 172 19 224 26 152 22 250 34 329 40 l74 7 -7 -104
c-17 -261 -99 -666 -157 -778 -10 -19 -38 -78 -63 -130 -24 -52 -55 -108 -68
-124 l-24 -29 -41 30 c-22 16 -64 57 -92 90 -76 93 -111 111 -145 77 -28 -28
-18 -51 61 -139 89 -99 180 -165 227 -165 54 0 111 75 200 263 104 219 168
486 206 862 15 144 13 220 -7 236 -23 19 -166 14 -356 -12 -208 -28 -390 -49
-395 -45 -2 2 19 62 47 133 27 70 62 169 77 218 15 50 31 95 36 101 8 11 40
15 328 40 412 34 430 38 430 89 0 41 -33 53 -125 45 -485 -43 -596 -52 -599
-49 -2 2 8 73 23 157 24 139 25 155 11 180 -21 36 -62 41 -84 10z"/>
</g>
</svg>
