<?xml version="1.0" standalone="no"?>
<!DOCTYPE svg PUBLIC "-//W3C//DTD SVG 20010904//EN"
 "http://www.w3.org/TR/2001/REC-SVG-20010904/DTD/svg10.dtd">
<svg version="1.0" xmlns="http://www.w3.org/2000/svg"
 width="248.000000pt" height="248.000000pt" viewBox="0 0 248.000000 248.000000"
 preserveAspectRatio="xMidYMid meet">
<metadata>
Created by potrace 1.10, written by Peter Selinger 2001-2011
</metadata>
<g transform="translate(0.000000,248.000000) scale(0.100000,-0.100000)"
fill="#000000" stroke="none">
<path d="M1146 2358 c-9 -12 -16 -41 -16 -63 0 -49 -33 -235 -56 -314 -9 -31
-28 -94 -41 -141 -14 -47 -51 -156 -84 -242 -66 -175 -78 -233 -56 -262 14
-19 20 -19 143 -7 71 7 172 19 224 26 152 22 250 34 329 40 l74 6 -7 -108 c-4
-59 -9 -122 -12 -140 l-6 -31 -116 -6 c-65 -4 -160 -11 -212 -16 -52 -5 -192
-14 -310 -20 -118 -6 -259 -15 -313 -20 -54 -6 -151 -10 -215 -10 -134 0 -166
-12 -160 -58 5 -45 37 -53 178 -48 174 6 634 34 760 45 58 6 165 13 238 17
156 8 145 24 107 -150 -33 -151 -70 -281 -94 -331 -11 -22 -40 -83 -65 -135
-24 -52 -55 -108 -68 -124 l-24 -29 -41 30 c-22 16 -64 57 -92 90 -76 93 -111
111 -145 77 -28 -28 -18 -51 61 -139 89 -99 180 -165 227 -165 54 0 111 75
200 263 67 142 109 275 151 482 15 71 28 132 31 134 2 2 138 7 302 10 323 6
336 9 330 60 -6 50 -27 53 -339 47 l-286 -5 8 42 c4 23 11 103 15 177 8 169
11 166 -124 163 -51 -2 -162 -12 -245 -24 -208 -28 -390 -49 -395 -45 -2 2 19
62 47 133 27 70 62 169 77 218 15 50 31 95 36 101 8 11 40 15 328 40 412 34
430 38 430 89 0 41 -33 53 -125 45 -485 -43 -596 -52 -599 -49 -2 2 8 73 23
157 24 139 25 155 11 180 -21 36 -62 41 -84 10z"/>
</g>
</svg>
