<?xml version="1.0" standalone="no"?>
<!DOCTYPE svg PUBLIC "-//W3C//DTD SVG 20010904//EN"
 "http://www.w3.org/TR/2001/REC-SVG-20010904/DTD/svg10.dtd">
<svg version="1.0" xmlns="http://www.w3.org/2000/svg"
 width="248.000000pt" height="248.000000pt" viewBox="0 0 248.000000 248.000000"
 preserveAspectRatio="xMidYMid meet">
<metadata>
Created by potrace 1.10, written by Peter Selinger 2001-2011
</metadata>
<g transform="translate(0.000000,248.000000) scale(0.100000,-0.100000)"
fill="#000000" stroke="none">
<path d="M322 2238 c-36 -36 6 -85 153 -178 39 -24 89 -59 112 -78 49 -39 100
-42 114 -6 13 37 -13 66 -137 149 -66 44 -133 91 -149 103 -30 24 -74 29 -93
10z"/>
<path d="M1925 2234 c-55 -8 -165 -23 -245 -34 -173 -24 -254 -34 -420 -55
-181 -23 -187 -24 -200 -40 -18 -22 -8 -59 20 -72 26 -12 37 -12 283 17 54 7
101 10 104 7 6 -7 -19 -149 -47 -271 -19 -84 -28 -96 -75 -96 -16 0 -84 -9
-150 -21 -66 -11 -173 -29 -238 -39 -65 -10 -125 -24 -133 -31 -23 -19 -13
-62 17 -76 28 -14 57 -10 358 42 84 14 156 24 159 21 3 -3 -5 -41 -16 -83 -12
-43 -29 -105 -37 -138 -9 -33 -25 -95 -37 -138 -17 -63 -19 -83 -9 -104 11
-25 13 -25 89 -18 42 4 122 15 177 25 133 25 360 50 451 50 87 0 83 10 58
-145 -43 -274 -122 -500 -240 -687 -28 -44 -166 -188 -180 -188 -5 0 -25 28
-43 62 -55 101 -69 118 -100 118 -29 0 -51 -16 -51 -37 0 -24 121 -261 136
-267 35 -13 63 -4 124 43 61 46 150 139 197 206 47 67 142 266 171 355 53 167
113 464 112 558 0 97 -69 109 -397 71 -98 -11 -206 -27 -241 -35 -62 -14 -152
-19 -152 -9 0 3 7 22 16 43 8 20 21 66 29 102 16 73 61 229 68 236 3 3 76 14
163 25 88 10 207 26 266 34 113 16 231 30 367 45 89 10 121 27 121 65 0 31
-19 45 -61 45 -39 0 -512 -57 -539 -65 -11 -3 -269 -35 -284 -35 -2 0 66 353
69 358 4 4 109 20 306 46 102 13 195 29 207 35 15 8 22 21 22 39 0 56 -21 60
-195 36z"/>
<path d="M132 1568 c-17 -17 -15 -52 6 -71 38 -35 318 -177 348 -177 37 0 57
20 52 52 -2 18 -38 41 -173 115 -167 90 -209 105 -233 81z"/>
<path d="M451 596 c-17 -20 -107 -168 -164 -271 -28 -49 -59 -101 -69 -114
-34 -44 -19 -101 27 -101 29 0 55 30 105 120 23 41 64 109 90 150 88 139 106
190 78 218 -16 16 -53 15 -67 -2z"/>
</g>
</svg>
