<?xml version="1.0" standalone="no"?>
<!DOCTYPE svg PUBLIC "-//W3C//DTD SVG 20010904//EN"
 "http://www.w3.org/TR/2001/REC-SVG-20010904/DTD/svg10.dtd">
<svg version="1.0" xmlns="http://www.w3.org/2000/svg"
 width="248.000000pt" height="248.000000pt" viewBox="0 0 248.000000 248.000000"
 preserveAspectRatio="xMidYMid meet">
<metadata>
Created by potrace 1.10, written by Peter Selinger 2001-2011
</metadata>
<g transform="translate(0.000000,248.000000) scale(0.100000,-0.100000)"
fill="#000000" stroke="none">
<path d="M322 2238 c-36 -36 6 -85 153 -178 39 -24 89 -59 112 -78 49 -39 100
-42 114 -6 13 37 -13 66 -137 149 -66 44 -133 91 -149 103 -30 24 -74 29 -93
10z"/>
<path d="M132 1568 c-17 -17 -15 -52 6 -71 38 -35 318 -177 348 -177 37 0 57
20 52 52 -2 18 -38 41 -173 115 -167 90 -209 105 -233 81z"/>
</g>
</svg>
