<?xml version="1.0" standalone="no"?>
<!DOCTYPE svg PUBLIC "-//W3C//DTD SVG 20010904//EN"
 "http://www.w3.org/TR/2001/REC-SVG-20010904/DTD/svg10.dtd">
<svg version="1.0" xmlns="http://www.w3.org/2000/svg"
 width="248.000000pt" height="248.000000pt" viewBox="0 0 248.000000 248.000000"
 preserveAspectRatio="xMidYMid meet">
<metadata>
Created by potrace 1.10, written by Peter Selinger 2001-2011
</metadata>
<g transform="translate(0.000000,248.000000) scale(0.100000,-0.100000)"
fill="#000000" stroke="none">
<path d="M672 2228 c-10 -13 -17 -118 -28 -428 -3 -91 -9 -168 -13 -172 -13
-14 -227 -58 -311 -64 -47 -4 -91 -11 -97 -17 -22 -16 -15 -55 12 -73 33 -22
97 -19 240 10 65 14 120 24 122 22 4 -4 -111 -274 -147 -345 -70 -139 -178
-280 -289 -376 -45 -38 -84 -78 -87 -87 -9 -29 14 -58 46 -58 23 0 50 18 118
79 101 91 135 130 219 256 58 87 153 268 153 293 0 7 5 12 10 12 6 0 8 -10 6
-22 -3 -13 -7 -160 -11 -328 -5 -308 -11 -529 -18 -653 -4 -76 10 -107 47
-107 42 0 50 23 52 153 8 425 26 1041 30 1046 4 5 132 -97 196 -156 26 -24 54
-43 63 -43 32 0 55 20 55 48 0 22 -17 41 -82 97 -46 39 -117 103 -158 143 -86
83 -87 80 35 112 101 26 215 68 238 88 20 17 22 53 5 70 -18 18 -47 15 -119
-13 -35 -14 -91 -32 -124 -41 -33 -8 -69 -18 -79 -21 -18 -5 -19 3 -12 276 6
214 5 286 -4 297 -15 17 -54 18 -68 2z"/>
<path d="M1930 2206 c-6 -8 -21 -64 -32 -123 -11 -59 -26 -113 -32 -120 -11
-12 -200 -39 -311 -45 l-60 -3 -10 122 c-12 127 -22 153 -60 153 -44 0 -49
-20 -39 -156 5 -74 5 -128 0 -131 -5 -3 -52 -8 -105 -11 -103 -5 -121 -12
-121 -46 0 -40 18 -46 132 -46 104 0 108 -1 112 -22 7 -37 27 -221 24 -223 -2
-1 -70 -12 -153 -24 -82 -12 -158 -24 -168 -27 -23 -7 -40 -40 -32 -64 11 -35
38 -41 112 -26 67 14 273 42 513 70 113 14 359 30 579 39 67 3 87 7 97 22 17
23 17 36 2 58 -12 16 -32 16 -243 8 -126 -5 -233 -7 -237 -5 -4 3 -1 26 7 52
7 26 21 82 30 124 14 66 20 79 38 82 12 2 78 12 147 21 134 17 170 32 170 69
0 47 -19 51 -166 31 -74 -10 -137 -16 -140 -13 -3 3 2 40 10 82 27 126 19 166
-30 166 -12 0 -27 -6 -34 -14z m-90 -375 c0 -32 -52 -226 -63 -232 -14 -9
-236 -34 -242 -27 -3 3 -12 56 -19 117 -11 100 -11 113 3 120 9 5 59 12 111
16 52 4 115 11 140 15 69 11 70 11 70 -9z"/>
</g>
</svg>
