<?xml version="1.0" standalone="no"?>
<!DOCTYPE svg PUBLIC "-//W3C//DTD SVG 20010904//EN"
 "http://www.w3.org/TR/2001/REC-SVG-20010904/DTD/svg10.dtd">
<svg version="1.0" xmlns="http://www.w3.org/2000/svg"
 width="248.000000pt" height="248.000000pt" viewBox="0 0 248.000000 248.000000"
 preserveAspectRatio="xMidYMid meet">
<metadata>
Created by potrace 1.10, written by Peter Selinger 2001-2011
</metadata>
<g transform="translate(0.000000,248.000000) scale(0.100000,-0.100000)"
fill="#000000" stroke="none">
<path d="M672 2228 c-10 -13 -17 -118 -28 -428 -3 -91 -9 -168 -13 -172 -13
-14 -227 -58 -311 -64 -47 -4 -91 -11 -97 -17 -21 -16 -15 -55 12 -73 34 -22
90 -20 238 10 70 15 133 27 140 29 9 1 12 -32 12 -128 0 -204 -18 -921 -28
-1108 -4 -76 10 -107 47 -107 42 0 48 21 52 172 2 79 8 334 14 568 12 502 18
623 33 632 7 4 48 16 92 28 101 26 215 68 238 88 20 17 22 53 5 70 -18 18 -47
15 -119 -13 -35 -14 -91 -32 -124 -41 -33 -8 -69 -18 -79 -21 -18 -5 -19 3
-12 276 6 214 5 286 -4 297 -15 17 -54 18 -68 2z"/>
</g>
</svg>
