<?xml version="1.0" standalone="no"?>
<!DOCTYPE svg PUBLIC "-//W3C//DTD SVG 20010904//EN"
 "http://www.w3.org/TR/2001/REC-SVG-20010904/DTD/svg10.dtd">
<svg version="1.0" xmlns="http://www.w3.org/2000/svg"
 width="248.000000pt" height="248.000000pt" viewBox="0 0 248.000000 248.000000"
 preserveAspectRatio="xMidYMid meet">
<metadata>
Created by potrace 1.10, written by Peter Selinger 2001-2011
</metadata>
<g transform="translate(0.000000,248.000000) scale(0.100000,-0.100000)"
fill="#000000" stroke="none">
<path d="M2030 2293 c-49 -3 -466 -57 -628 -82 -72 -11 -92 -23 -92 -57 0 -41
34 -54 120 -44 82 10 277 36 380 51 36 6 110 13 164 16 l99 6 -6 -63 c-4 -35
-7 -231 -7 -437 l0 -375 -42 33 c-24 18 -62 50 -85 71 -60 54 -113 49 -113
-11 0 -18 16 -40 57 -76 31 -27 88 -83 127 -122 78 -79 107 -90 142 -52 18 20
19 48 24 548 3 289 2 538 -3 553 -7 23 -55 53 -76 46 -3 -1 -31 -3 -61 -5z"/>
<path d="M1075 2250 c-27 -4 -122 -17 -210 -29 -88 -12 -225 -33 -305 -45 -80
-13 -157 -23 -173 -24 -56 0 -78 -56 -35 -86 28 -20 69 -20 178 -1 47 8 166
26 265 39 99 14 209 29 244 35 36 6 66 9 68 7 2 -1 -1 -68 -7 -147 -5 -79 -10
-258 -10 -397 l0 -253 -77 66 c-89 76 -116 87 -145 57 -25 -25 -18 -53 25 -91
192 -170 206 -181 235 -181 17 0 37 9 48 21 18 20 20 49 28 448 4 234 9 454
10 488 2 89 -28 109 -139 93z"/>
<path d="M1442 1958 c-17 -17 -15 -53 6 -70 29 -25 256 -98 305 -98 47 0 64
52 28 84 -11 10 -59 28 -108 42 -48 13 -105 31 -126 39 -45 18 -89 19 -105 3z"/>
<path d="M462 1928 c-26 -26 0 -88 37 -88 7 0 65 -18 130 -40 125 -43 150 -47
169 -28 16 16 15 63 -1 77 -21 17 -258 91 -292 91 -17 0 -36 -5 -43 -12z"/>
<path d="M790 1686 c-71 -27 -276 -128 -307 -152 -49 -37 -41 -94 13 -94 12 0
82 30 155 67 73 36 158 76 188 87 61 24 78 51 55 85 -17 24 -52 27 -104 7z"/>
</g>
</svg>
