<?xml version="1.0" standalone="no"?>
<!DOCTYPE svg PUBLIC "-//W3C//DTD SVG 20010904//EN"
 "http://www.w3.org/TR/2001/REC-SVG-20010904/DTD/svg10.dtd">
<svg version="1.0" xmlns="http://www.w3.org/2000/svg"
 width="248.000000pt" height="248.000000pt" viewBox="0 0 248.000000 248.000000"
 preserveAspectRatio="xMidYMid meet">
<metadata>
Created by potrace 1.10, written by Peter Selinger 2001-2011
</metadata>
<g transform="translate(0.000000,248.000000) scale(0.100000,-0.100000)"
fill="#000000" stroke="none">
<path d="M600 2374 c-17 -19 -28 -178 -29 -400 l-1 -152 -25 -6 c-14 -4 -69
-11 -123 -16 -229 -23 -252 -30 -252 -74 0 -31 24 -50 63 -50 32 0 229 20 300
31 l38 5 -7 -298 c-5 -200 -11 -301 -18 -306 -6 -4 -83 -30 -171 -59 -88 -28
-168 -58 -177 -67 -36 -31 -16 -82 31 -82 22 0 254 71 313 95 16 6 18 -15 20
-319 2 -179 0 -326 -3 -326 -3 0 -20 18 -38 40 -38 48 -74 60 -101 35 -30 -27
-25 -48 26 -107 25 -29 53 -66 61 -83 26 -51 64 -85 95 -85 31 0 67 30 69 58
1 9 0 200 -1 423 l-2 407 49 18 c243 90 260 101 229 149 -20 31 -48 32 -118 4
-29 -12 -77 -30 -107 -40 l-54 -19 6 287 c4 158 10 290 14 294 5 5 74 14 155
22 86 8 153 19 162 27 23 19 20 67 -5 80 -20 11 -216 0 -293 -17 l-29 -6 6
249 c7 272 3 296 -44 302 -15 2 -32 -4 -39 -14z"/>
<path d="M1400 2098 c-67 -75 -125 -128 -245 -224 -38 -31 -76 -63 -82 -72
-18 -22 -19 -903 -2 -935 27 -50 72 -50 120 -1 18 20 75 63 124 96 144 97 179
140 143 176 -15 15 -65 16 -74 1 -7 -11 -199 -139 -209 -139 -3 0 -5 173 -5
385 0 221 4 385 9 385 32 0 308 248 337 302 17 33 18 70 2 86 -26 26 -53 12
-118 -60z"/>
<path d="M2205 1893 c-22 -2 -94 -11 -160 -19 -66 -9 -170 -19 -231 -23 -119
-7 -144 -17 -144 -57 0 -51 86 -68 234 -45 122 19 213 30 299 37 l87 6 0 -68
c0 -38 -7 -132 -15 -209 -8 -77 -15 -202 -15 -277 0 -78 -4 -139 -10 -143 -5
-3 -43 12 -83 35 -98 53 -147 52 -147 -5 0 -29 17 -42 148 -115 184 -100 188
-94 203 268 5 136 14 283 19 327 18 164 10 266 -23 287 -12 8 -84 8 -162 1z"/>
</g>
</svg>
