<?xml version="1.0" standalone="no"?>
<!DOCTYPE svg PUBLIC "-//W3C//DTD SVG 20010904//EN"
 "http://www.w3.org/TR/2001/REC-SVG-20010904/DTD/svg10.dtd">
<svg version="1.0" xmlns="http://www.w3.org/2000/svg"
 width="248.000000pt" height="248.000000pt" viewBox="0 0 248.000000 248.000000"
 preserveAspectRatio="xMidYMid meet">
<metadata>
Created by potrace 1.10, written by Peter Selinger 2001-2011
</metadata>
<g transform="translate(0.000000,248.000000) scale(0.100000,-0.100000)"
fill="#000000" stroke="none">
<path d="M600 2374 c-17 -19 -28 -178 -29 -400 l-1 -152 -25 -6 c-14 -4 -69
-11 -123 -16 -229 -23 -252 -30 -252 -74 0 -31 24 -50 63 -50 32 0 229 20 300
31 l38 5 -7 -298 c-5 -200 -11 -301 -18 -306 -6 -4 -83 -30 -171 -59 -88 -28
-168 -58 -177 -67 -36 -31 -16 -82 31 -82 22 0 254 71 313 95 16 6 18 -15 20
-319 2 -179 0 -326 -3 -326 -3 0 -20 18 -38 40 -38 48 -74 60 -101 35 -30 -27
-25 -48 26 -107 25 -29 53 -66 61 -83 26 -51 64 -85 95 -85 31 0 67 30 69 58
1 9 0 200 -1 423 l-2 407 79 29 c43 17 102 39 132 49 29 11 60 29 68 42 14 20
14 25 -1 47 -22 34 -44 32 -167 -14 l-104 -40 -3 152 c-1 84 1 215 5 292 l8
140 50 7 c28 3 96 11 153 17 57 5 110 15 118 22 22 18 18 66 -7 79 -20 11
-216 0 -293 -17 l-29 -6 6 249 c7 272 3 296 -44 302 -15 2 -32 -4 -39 -14z"/>
<path d="M1400 2098 c-64 -72 -127 -130 -227 -210 -40 -31 -53 -48 -53 -68 0
-32 17 -50 46 -50 43 0 314 234 350 302 17 33 18 70 2 86 -26 26 -53 12 -118
-60z"/>
</g>
</svg>
