<?xml version="1.0" standalone="no"?>
<!DOCTYPE svg PUBLIC "-//W3C//DTD SVG 20010904//EN"
 "http://www.w3.org/TR/2001/REC-SVG-20010904/DTD/svg10.dtd">
<svg version="1.0" xmlns="http://www.w3.org/2000/svg"
 width="248.000000pt" height="248.000000pt" viewBox="0 0 248.000000 248.000000"
 preserveAspectRatio="xMidYMid meet">
<metadata>
Created by potrace 1.10, written by Peter Selinger 2001-2011
</metadata>
<g transform="translate(0.000000,248.000000) scale(0.100000,-0.100000)"
fill="#000000" stroke="none">
<path d="M1075 2250 c-27 -4 -122 -17 -210 -29 -88 -12 -225 -33 -305 -45 -80
-13 -157 -23 -173 -24 -56 0 -78 -56 -35 -86 28 -20 69 -20 178 -1 47 8 166
26 265 39 99 14 209 29 244 35 36 6 66 9 68 7 2 -1 -1 -68 -7 -147 -5 -79 -10
-258 -10 -397 l0 -253 -77 66 c-89 76 -116 87 -145 57 -25 -25 -18 -53 25 -91
192 -170 206 -181 235 -181 17 0 37 9 48 21 18 20 20 49 28 448 4 234 9 454
10 488 2 89 -28 109 -139 93z"/>
</g>
</svg>
