<?xml version="1.0" standalone="no"?>
<!DOCTYPE svg PUBLIC "-//W3C//DTD SVG 20010904//EN"
 "http://www.w3.org/TR/2001/REC-SVG-20010904/DTD/svg10.dtd">
<svg version="1.0" xmlns="http://www.w3.org/2000/svg"
 width="248.000000pt" height="248.000000pt" viewBox="0 0 248.000000 248.000000"
 preserveAspectRatio="xMidYMid meet">
<metadata>
Created by potrace 1.10, written by Peter Selinger 2001-2011
</metadata>
<g transform="translate(0.000000,248.000000) scale(0.100000,-0.100000)"
fill="#000000" stroke="none">
<path d="M600 2374 c-17 -19 -28 -178 -29 -400 l-1 -152 -25 -6 c-14 -4 -69
-11 -123 -16 -229 -23 -252 -30 -252 -74 0 -31 24 -50 63 -50 32 0 230 20 297
30 l35 6 0 -681 c0 -375 -3 -681 -6 -681 -3 0 -20 18 -38 40 -38 48 -74 60
-101 35 -30 -27 -25 -48 26 -107 25 -29 53 -66 61 -83 26 -51 64 -85 95 -85
31 0 68 30 69 58 0 9 0 305 0 657 0 352 3 692 7 755 l7 115 50 7 c28 3 96 11
153 17 57 5 110 15 118 22 22 18 18 66 -7 79 -20 11 -216 0 -293 -17 l-29 -6
6 249 c7 272 3 296 -44 302 -15 2 -32 -4 -39 -14z"/>
</g>
</svg>
