<?xml version="1.0" standalone="no"?>
<!DOCTYPE svg PUBLIC "-//W3C//DTD SVG 20010904//EN"
 "http://www.w3.org/TR/2001/REC-SVG-20010904/DTD/svg10.dtd">
<svg version="1.0" xmlns="http://www.w3.org/2000/svg"
 width="248.000000pt" height="248.000000pt" viewBox="0 0 248.000000 248.000000"
 preserveAspectRatio="xMidYMid meet">
<metadata>
Created by potrace 1.10, written by Peter Selinger 2001-2011
</metadata>
<g transform="translate(0.000000,248.000000) scale(0.100000,-0.100000)"
fill="#000000" stroke="none">
<path d="M1195 2336 c-16 -12 -19 -30 -22 -137 -3 -113 -19 -289 -28 -297 -3
-4 -261 -27 -575 -52 -74 -6 -150 -13 -167 -16 -37 -5 -58 -34 -48 -65 12 -35
46 -40 198 -24 243 24 491 45 787 65 157 11 316 22 353 26 94 8 359 8 434 0
54 -6 64 -5 82 13 26 26 26 33 3 61 -18 22 -26 23 -218 28 -109 2 -271 -1
-359 -7 -88 -7 -211 -15 -274 -18 l-114 -6 6 24 c6 27 22 279 22 348 -1 61
-38 88 -80 57z"/>
<path d="M823 1738 c-4 -7 -15 -33 -24 -58 -29 -79 -75 -182 -128 -290 -89
-179 -190 -306 -349 -441 -127 -108 -152 -134 -152 -159 0 -21 25 -50 44 -50
16 0 138 96 222 173 34 31 64 54 68 50 17 -17 -8 -403 -41 -628 -18 -131 -19
-151 -3 -170 16 -19 54 -19 70 0 20 24 29 78 50 310 14 141 21 290 20 415 l0
195 51 70 c50 69 142 240 178 333 10 26 33 77 50 115 36 78 38 107 13 130 -22
20 -58 22 -69 5z"/>
</g>
</svg>
