<?xml version="1.0" standalone="no"?>
<!DOCTYPE svg PUBLIC "-//W3C//DTD SVG 20010904//EN"
 "http://www.w3.org/TR/2001/REC-SVG-20010904/DTD/svg10.dtd">
<svg version="1.0" xmlns="http://www.w3.org/2000/svg"
 width="248.000000pt" height="248.000000pt" viewBox="0 0 248.000000 248.000000"
 preserveAspectRatio="xMidYMid meet">
<metadata>
Created by potrace 1.10, written by Peter Selinger 2001-2011
</metadata>
<g transform="translate(0.000000,248.000000) scale(0.100000,-0.100000)"
fill="#000000" stroke="none">
<path d="M1195 2336 c-16 -12 -19 -30 -22 -137 -3 -113 -19 -289 -28 -297 -3
-4 -261 -27 -575 -52 -74 -6 -150 -13 -167 -16 -37 -5 -58 -34 -48 -65 12 -35
46 -40 198 -24 688 69 1395 110 1574 91 54 -6 64 -5 82 13 26 26 26 33 3 61
-18 22 -26 23 -218 28 -109 2 -271 -1 -359 -7 -88 -7 -211 -15 -274 -18 l-114
-6 6 24 c6 27 22 279 22 348 -1 61 -38 88 -80 57z"/>
<path d="M1487 1771 c-13 -16 -48 -69 -77 -118 -87 -145 -175 -257 -276 -351
-93 -87 -108 -114 -82 -140 28 -28 64 -13 144 60 43 39 85 80 92 90 7 10 20
18 29 18 15 0 97 -49 245 -148 l68 -45 -52 -96 c-68 -127 -179 -294 -237 -355
-73 -77 -232 -205 -263 -211 -16 -4 -36 -18 -44 -31 -15 -22 -15 -26 0 -49 34
-51 104 -22 259 109 123 102 154 136 243 271 87 130 156 258 292 535 160 329
178 374 164 404 -13 30 -36 34 -239 42 -140 6 -165 9 -179 25 -25 27 -59 23
-87 -10z m346 -117 c20 -3 37 -10 37 -15 0 -13 -98 -223 -152 -326 l-44 -82
-139 90 c-77 50 -143 94 -148 98 -4 4 13 36 39 72 25 35 57 85 71 112 25 46
34 51 93 60 32 5 193 -1 243 -9z"/>
<path d="M823 1738 c-4 -7 -15 -33 -24 -58 -29 -79 -75 -182 -128 -290 -89
-179 -190 -306 -349 -441 -127 -108 -152 -134 -152 -159 0 -21 25 -50 44 -50
16 0 138 96 222 173 34 31 64 54 68 50 17 -17 -8 -403 -41 -628 -18 -131 -19
-151 -3 -170 16 -19 54 -19 70 0 20 24 29 78 50 310 14 141 21 290 20 415 l0
195 51 70 c50 69 142 240 178 333 10 26 33 77 50 115 36 78 38 107 13 130 -22
20 -58 22 -69 5z"/>
</g>
</svg>
