<?xml version="1.0" standalone="no"?>
<!DOCTYPE svg PUBLIC "-//W3C//DTD SVG 20010904//EN"
 "http://www.w3.org/TR/2001/REC-SVG-20010904/DTD/svg10.dtd">
<svg version="1.0" xmlns="http://www.w3.org/2000/svg"
 width="248.000000pt" height="248.000000pt" viewBox="0 0 248.000000 248.000000"
 preserveAspectRatio="xMidYMid meet">
<metadata>
Created by potrace 1.10, written by Peter Selinger 2001-2011
</metadata>
<g transform="translate(0.000000,248.000000) scale(0.100000,-0.100000)"
fill="#000000" stroke="none">
<path d="M695 2319 c-68 -10 -265 -45 -340 -60 -27 -6 -74 -14 -104 -19 -62
-11 -81 -24 -81 -55 0 -47 49 -62 143 -42 163 35 365 69 378 65 8 -3 -28 -47
-104 -125 -94 -98 -117 -127 -117 -150 0 -34 16 -53 45 -53 46 0 355 345 355
396 0 46 -61 61 -175 43z"/>
</g>
</svg>
