<?xml version="1.0" standalone="no"?>
<!DOCTYPE svg PUBLIC "-//W3C//DTD SVG 20010904//EN"
 "http://www.w3.org/TR/2001/REC-SVG-20010904/DTD/svg10.dtd">
<svg version="1.0" xmlns="http://www.w3.org/2000/svg"
 width="248.000000pt" height="248.000000pt" viewBox="0 0 248.000000 248.000000"
 preserveAspectRatio="xMidYMid meet">
<metadata>
Created by potrace 1.10, written by Peter Selinger 2001-2011
</metadata>
<g transform="translate(0.000000,248.000000) scale(0.100000,-0.100000)"
fill="#000000" stroke="none">
<path d="M565 2033 c-66 -7 -151 -17 -189 -21 -100 -12 -107 -27 -74 -179 9
-43 7 -628 -5 -1101 0 -18 4 -37 11 -44 14 -14 60 -14 75 1 9 9 13 101 15 319
2 169 8 311 13 316 10 11 278 43 349 42 l45 -1 -3 -230 c-2 -126 -8 -261 -12
-299 -5 -38 -5 -79 0 -92 18 -47 84 -38 94 13 2 16 8 179 11 363 6 342 28 748
45 832 11 53 6 74 -21 88 -25 14 -212 10 -354 -7z m260 -212 c-4 -69 -10 -174
-14 -233 -3 -58 -8 -109 -11 -112 -3 -2 -62 -10 -130 -16 -69 -6 -156 -15
-193 -19 -63 -7 -68 -6 -73 13 -2 12 -3 118 -2 236 l3 215 50 12 c56 13 355
41 369 35 5 -3 6 -58 1 -131z"/>
</g>
</svg>
