<?xml version="1.0" standalone="no"?>
<!DOCTYPE svg PUBLIC "-//W3C//DTD SVG 20010904//EN"
 "http://www.w3.org/TR/2001/REC-SVG-20010904/DTD/svg10.dtd">
<svg version="1.0" xmlns="http://www.w3.org/2000/svg"
 width="248.000000pt" height="248.000000pt" viewBox="0 0 248.000000 248.000000"
 preserveAspectRatio="xMidYMid meet">
<metadata>
Created by potrace 1.10, written by Peter Selinger 2001-2011
</metadata>
<g transform="translate(0.000000,248.000000) scale(0.100000,-0.100000)"
fill="#000000" stroke="none">
<path d="M695 2319 c-83 -12 -276 -47 -360 -65 -38 -8 -82 -14 -96 -14 -38 0
-79 -36 -79 -69 0 -47 37 -64 92 -42 13 5 48 14 78 19 30 6 121 23 201 38 80
15 152 25 160 22 8 -3 -28 -47 -104 -125 -132 -137 -138 -151 -88 -219 80
-109 111 -220 111 -392 0 -92 -7 -144 -25 -200 -3 -8 -26 10 -61 47 -38 41
-64 61 -79 61 -25 0 -55 -24 -55 -43 0 -20 35 -69 97 -134 51 -55 63 -63 95
-63 57 0 87 32 110 120 30 117 34 265 9 387 -20 103 -36 147 -87 236 l-28 48
81 82 c101 102 203 234 203 263 0 46 -61 61 -175 43z"/>
</g>
</svg>
