<?xml version="1.0" standalone="no"?>
<!DOCTYPE svg PUBLIC "-//W3C//DTD SVG 20010904//EN"
 "http://www.w3.org/TR/2001/REC-SVG-20010904/DTD/svg10.dtd">
<svg version="1.0" xmlns="http://www.w3.org/2000/svg"
 width="248.000000pt" height="248.000000pt" viewBox="0 0 248.000000 248.000000"
 preserveAspectRatio="xMidYMid meet">
<metadata>
Created by potrace 1.10, written by Peter Selinger 2001-2011
</metadata>
<g transform="translate(0.000000,248.000000) scale(0.100000,-0.100000)"
fill="#000000" stroke="none">
<path d="M492 2288 c-27 -27 -12 -59 56 -126 37 -37 83 -81 102 -97 19 -17 52
-45 73 -62 21 -18 46 -33 57 -33 23 0 50 26 50 49 0 10 -62 76 -140 149 -140
132 -169 149 -198 120z"/>
<path d="M162 1528 c-7 -7 -12 -22 -12 -35 0 -28 40 -55 208 -135 107 -52 128
-59 148 -49 52 23 21 87 -59 118 -23 9 -83 38 -134 65 -94 49 -130 57 -151 36z"/>
<path d="M562 953 c-18 -25 -169 -383 -187 -443 -4 -14 -32 -86 -61 -161 -30
-75 -54 -145 -54 -156 0 -26 19 -43 47 -43 30 0 49 32 103 169 111 286 205
520 222 553 10 21 18 48 18 61 0 52 -56 64 -88 20z"/>
</g>
</svg>
