<?xml version="1.0" standalone="no"?>
<!DOCTYPE svg PUBLIC "-//W3C//DTD SVG 20010904//EN"
 "http://www.w3.org/TR/2001/REC-SVG-20010904/DTD/svg10.dtd">
<svg version="1.0" xmlns="http://www.w3.org/2000/svg"
 width="248.000000pt" height="248.000000pt" viewBox="0 0 248.000000 248.000000"
 preserveAspectRatio="xMidYMid meet">
<metadata>
Created by potrace 1.10, written by Peter Selinger 2001-2011
</metadata>
<g transform="translate(0.000000,248.000000) scale(0.100000,-0.100000)"
fill="#000000" stroke="none">
<path d="M565 2033 c-66 -7 -151 -17 -189 -21 -84 -10 -97 -23 -90 -96 3 -28
10 -64 15 -80 11 -34 11 -723 0 -951 -4 -88 -4 -170 0 -182 10 -27 36 -33 70
-17 25 12 182 36 335 50 58 5 76 3 97 -11 31 -20 65 -12 76 18 5 12 11 177 15
367 7 353 29 758 46 842 11 53 6 74 -21 88 -25 14 -212 10 -354 -7z m260 -212
c-4 -69 -10 -174 -14 -233 -3 -58 -8 -109 -11 -112 -3 -2 -62 -10 -130 -16
-69 -6 -156 -15 -193 -19 -63 -7 -68 -6 -73 13 -2 12 -3 118 -2 236 l3 215 50
12 c56 13 355 41 369 35 5 -3 6 -58 1 -131z m-24 -696 c-2 -132 -7 -249 -11
-261 -7 -18 -25 -22 -177 -38 -92 -11 -179 -19 -191 -20 l-24 -1 2 255 c0 146
5 259 10 264 11 11 279 43 350 42 l45 -1 -4 -240z"/>
</g>
</svg>
