<?xml version="1.0" standalone="no"?>
<!DOCTYPE svg PUBLIC "-//W3C//DTD SVG 20010904//EN"
 "http://www.w3.org/TR/2001/REC-SVG-20010904/DTD/svg10.dtd">
<svg version="1.0" xmlns="http://www.w3.org/2000/svg"
 width="248.000000pt" height="248.000000pt" viewBox="0 0 248.000000 248.000000"
 preserveAspectRatio="xMidYMid meet">
<metadata>
Created by potrace 1.10, written by Peter Selinger 2001-2011
</metadata>
<g transform="translate(0.000000,248.000000) scale(0.100000,-0.100000)"
fill="#000000" stroke="none">
<path d="M565 2033 c-66 -7 -151 -17 -189 -21 -100 -12 -107 -27 -74 -179 9
-43 7 -628 -5 -1101 0 -18 4 -37 11 -44 14 -14 60 -14 75 1 9 9 13 167 15 604
1 326 4 597 7 604 5 16 88 31 264 46 127 11 154 11 158 -1 3 -7 3 -52 -1 -100
-4 -67 -35 -932 -38 -1076 0 -17 7 -35 18 -43 23 -17 35 -16 60 1 18 14 20 38
31 448 11 436 26 693 43 780 11 53 6 74 -21 88 -25 14 -212 10 -354 -7z"/>
</g>
</svg>
