<?xml version="1.0" standalone="no"?>
<!DOCTYPE svg PUBLIC "-//W3C//DTD SVG 20010904//EN"
 "http://www.w3.org/TR/2001/REC-SVG-20010904/DTD/svg10.dtd">
<svg version="1.0" xmlns="http://www.w3.org/2000/svg"
 width="248.000000pt" height="248.000000pt" viewBox="0 0 248.000000 248.000000"
 preserveAspectRatio="xMidYMid meet">
<metadata>
Created by potrace 1.10, written by Peter Selinger 2001-2011
</metadata>
<g transform="translate(0.000000,248.000000) scale(0.100000,-0.100000)"
fill="#000000" stroke="none">
<path d="M1710 2360 c-30 -5 -134 -16 -231 -24 -207 -18 -296 -31 -315 -47
-23 -19 -31 -70 -23 -139 4 -36 11 -157 14 -270 5 -149 11 -211 21 -227 14
-22 21 -23 123 -23 59 0 200 5 312 10 173 9 207 14 222 29 21 20 30 100 47
411 11 197 8 251 -15 270 -18 15 -92 19 -155 10z m70 -139 c0 -21 -3 -65 -6
-98 l-7 -60 -96 -6 c-53 -4 -166 -13 -251 -21 -85 -8 -157 -13 -159 -10 -8 7
-19 169 -12 176 4 4 90 15 191 23 102 9 210 20 240 24 102 15 100 16 100 -28z
m-20 -343 c0 -83 -7 -115 -24 -121 -7 -3 -115 -8 -239 -12 l-227 -8 0 92 0 91
48 1 c26 0 99 6 162 13 63 8 152 14 198 15 l82 1 0 -72z"/>
<path d="M695 2319 c-83 -12 -276 -47 -360 -65 -38 -8 -82 -14 -97 -14 -15 0
-38 -10 -52 -22 l-24 -23 8 -475 c5 -261 9 -720 10 -1020 0 -596 0 -595 55
-595 59 0 57 -38 51 967 -4 504 -9 950 -12 990 l-7 73 59 12 c221 43 353 65
365 61 8 -3 -28 -47 -104 -125 -132 -137 -138 -151 -88 -219 80 -109 111 -220
111 -392 0 -92 -7 -144 -25 -200 -3 -8 -26 10 -61 47 -38 41 -64 61 -79 61
-25 0 -55 -24 -55 -43 0 -20 35 -69 97 -134 51 -55 63 -63 95 -63 57 0 87 32
110 120 30 117 34 265 9 387 -20 103 -36 147 -87 236 l-28 48 81 82 c101 102
203 234 203 263 0 46 -61 61 -175 43z"/>
<path d="M2075 1585 c-60 -8 -216 -21 -345 -30 -129 -9 -269 -20 -310 -25 -41
-5 -187 -15 -325 -21 -148 -6 -260 -15 -275 -22 -18 -9 -25 -20 -25 -42 0 -46
32 -57 143 -49 l93 6 -7 -26 c-8 -34 -107 -237 -152 -311 -39 -66 -171 -235
-184 -235 -12 0 -58 -73 -58 -92 0 -22 27 -48 50 -48 38 0 204 191 281 322 70
120 158 305 165 348 4 22 7 40 8 41 2 1 191 15 451 32 127 9 273 21 325 27 52
6 153 17 224 25 70 7 133 18 138 23 13 13 14 60 0 74 -16 16 -80 17 -197 3z"/>
</g>
</svg>
