<?xml version="1.0" standalone="no"?>
<!DOCTYPE svg PUBLIC "-//W3C//DTD SVG 20010904//EN"
 "http://www.w3.org/TR/2001/REC-SVG-20010904/DTD/svg10.dtd">
<svg version="1.0" xmlns="http://www.w3.org/2000/svg"
 width="248.000000pt" height="248.000000pt" viewBox="0 0 248.000000 248.000000"
 preserveAspectRatio="xMidYMid meet">
<metadata>
Created by potrace 1.10, written by Peter Selinger 2001-2011
</metadata>
<g transform="translate(0.000000,248.000000) scale(0.100000,-0.100000)"
fill="#000000" stroke="none">
<path d="M1983 2389 c-11 -4 -34 -25 -49 -46 -41 -55 -161 -200 -214 -258 -25
-28 -49 -59 -55 -68 -7 -13 -31 -20 -90 -27 -44 -5 -106 -12 -137 -16 l-58 -7
0 32 c0 19 -28 87 -70 171 -54 108 -76 143 -96 150 -50 19 -85 -22 -59 -68 43
-78 125 -253 127 -273 3 -25 -14 -30 -154 -44 -78 -8 -101 -21 -101 -60 0 -33
29 -58 58 -50 32 9 420 57 882 110 130 14 158 24 168 55 7 23 -10 60 -29 60
-7 0 -75 -7 -150 -16 -76 -9 -140 -13 -143 -10 -3 2 28 44 68 92 41 47 86 103
101 123 15 20 36 45 46 56 26 27 34 53 22 74 -12 23 -39 31 -67 20z"/>
<path d="M492 2288 c-27 -27 -12 -59 56 -126 37 -37 83 -81 102 -97 19 -17 52
-45 73 -62 21 -18 46 -33 57 -33 23 0 50 26 50 49 0 10 -62 76 -140 149 -140
132 -169 149 -198 120z"/>
<path d="M1955 1584 c-5 -2 -122 -17 -259 -34 -137 -17 -252 -32 -255 -35 -4
-2 -81 -9 -171 -15 -90 -6 -170 -15 -177 -22 -18 -14 -16 -53 2 -68 38 -31
881 55 925 95 47 42 -4 104 -65 79z"/>
<path d="M162 1528 c-7 -7 -12 -22 -12 -35 0 -28 40 -55 208 -135 107 -52 128
-59 148 -49 52 23 21 87 -59 118 -23 9 -83 38 -134 65 -94 49 -130 57 -151 36z"/>
<path d="M1685 1095 c-158 -18 -292 -37 -505 -73 -96 -17 -197 -33 -225 -36
-87 -12 -105 -17 -116 -37 -27 -52 21 -84 103 -69 263 48 552 91 763 116 190
21 513 29 611 15 44 -6 88 -9 97 -5 29 11 33 53 8 77 -21 21 -29 22 -319 24
-194 1 -339 -4 -417 -12z"/>
<path d="M562 953 c-18 -25 -169 -383 -187 -443 -4 -14 -32 -86 -61 -161 -30
-75 -54 -145 -54 -156 0 -26 19 -43 47 -43 30 0 49 32 102 169 102 261 206
519 223 553 10 21 18 48 18 61 0 52 -56 64 -88 20z"/>
</g>
</svg>
