<?xml version="1.0" standalone="no"?>
<!DOCTYPE svg PUBLIC "-//W3C//DTD SVG 20010904//EN"
 "http://www.w3.org/TR/2001/REC-SVG-20010904/DTD/svg10.dtd">
<svg version="1.0" xmlns="http://www.w3.org/2000/svg"
 width="248.000000pt" height="248.000000pt" viewBox="0 0 248.000000 248.000000"
 preserveAspectRatio="xMidYMid meet">
<metadata>
Created by potrace 1.10, written by Peter Selinger 2001-2011
</metadata>
<g transform="translate(0.000000,248.000000) scale(0.100000,-0.100000)"
fill="#000000" stroke="none">
<path d="M880 2369 c-52 -3 -108 -9 -125 -12 -16 -4 -102 -14 -190 -22 -165
-16 -308 -44 -328 -64 -16 -16 -23 -532 -8 -582 14 -48 44 -60 118 -49 32 4
95 11 140 14 80 5 83 4 87 -17 3 -12 7 -304 10 -649 l5 -627 -52 -11 c-29 -6
-71 -18 -95 -27 -23 -9 -45 -14 -47 -11 -3 3 -9 154 -14 337 -10 361 -14 381
-66 381 -51 0 -54 -18 -44 -340 4 -162 8 -324 8 -360 l1 -66 -84 -27 c-46 -15
-96 -37 -110 -48 -41 -32 -30 -89 17 -89 10 0 102 30 205 66 103 36 210 72
237 79 46 11 171 49 365 110 41 13 89 26 105 30 50 11 75 32 75 65 0 46 -28
55 -106 35 -35 -9 -83 -23 -107 -31 -23 -9 -72 -23 -108 -33 l-66 -17 -6 216
c-4 118 -7 272 -7 342 l0 127 33 5 c17 3 84 13 147 22 131 18 163 32 158 72
-5 43 -39 53 -128 37 -41 -7 -105 -16 -142 -20 l-68 -7 -2 201 c-1 111 -2 218
-2 239 -1 36 0 37 39 40 78 5 240 35 268 49 15 8 32 24 36 36 14 37 34 344 30
458 -3 67 -9 112 -17 122 -22 26 -63 33 -162 26z m66 -301 c-8 -250 -9 -254
-49 -262 -62 -11 -482 -54 -544 -56 l-23 0 0 224 0 224 33 6 c35 8 364 45 492
56 44 4 84 7 89 8 5 1 6 -81 2 -200z"/>
<path d="M2055 2318 c-49 -5 -211 -17 -360 -29 -473 -36 -465 -34 -465 -85 0
-37 40 -57 102 -51 29 3 172 14 318 25 146 12 304 24 353 28 48 4 87 4 87 1 0
-3 -20 -20 -44 -36 -25 -17 -50 -37 -58 -44 -18 -18 -128 -91 -163 -110 -17
-8 -59 -38 -94 -66 l-64 -51 -53 50 c-53 50 -88 62 -112 38 -23 -23 -12 -58
33 -106 25 -26 45 -51 45 -55 0 -4 21 -29 48 -55 26 -26 60 -65 75 -85 20 -27
35 -37 55 -37 61 0 67 39 17 110 -19 27 -35 53 -35 57 1 12 99 89 160 126 126
76 259 177 319 242 31 34 41 53 41 79 0 18 -6 38 -12 43 -20 16 -93 20 -193
11z"/>
<path d="M1262 1618 c-8 -8 -12 -54 -12 -142 0 -72 -7 -232 -15 -356 -26 -383
-35 -588 -35 -780 0 -209 6 -235 55 -235 49 0 55 25 55 260 1 219 8 385 35
795 20 295 17 420 -9 449 -21 23 -56 27 -74 9z"/>
</g>
</svg>
