<?xml version="1.0" standalone="no"?>
<!DOCTYPE svg PUBLIC "-//W3C//DTD SVG 20010904//EN"
 "http://www.w3.org/TR/2001/REC-SVG-20010904/DTD/svg10.dtd">
<svg version="1.0" xmlns="http://www.w3.org/2000/svg"
 width="248.000000pt" height="248.000000pt" viewBox="0 0 248.000000 248.000000"
 preserveAspectRatio="xMidYMid meet">
<metadata>
Created by potrace 1.10, written by Peter Selinger 2001-2011
</metadata>
<g transform="translate(0.000000,248.000000) scale(0.100000,-0.100000)"
fill="#000000" stroke="none">
<path d="M1558 2353 c-8 -10 -29 -45 -47 -78 -17 -33 -61 -101 -99 -150 -37
-50 -80 -109 -96 -132 -33 -49 -29 -48 -171 -67 -60 -9 -123 -18 -140 -21 -28
-6 -32 -2 -58 42 -16 26 -53 86 -82 133 -30 47 -62 99 -72 115 -31 50 -93 42
-93 -12 0 -31 51 -131 111 -217 27 -38 49 -72 49 -76 0 -11 -72 -27 -185 -41
-55 -7 -106 -17 -112 -22 -19 -14 -16 -52 7 -72 17 -15 31 -17 101 -11 44 4
111 13 147 21 80 16 367 63 592 95 301 44 325 49 335 80 16 50 -32 76 -111 60
-86 -18 -194 -27 -194 -17 0 6 15 28 33 51 85 104 167 247 167 289 0 45 -52
64 -82 30z"/>
</g>
</svg>
