<?xml version="1.0" standalone="no"?>
<!DOCTYPE svg PUBLIC "-//W3C//DTD SVG 20010904//EN"
 "http://www.w3.org/TR/2001/REC-SVG-20010904/DTD/svg10.dtd">
<svg version="1.0" xmlns="http://www.w3.org/2000/svg"
 width="248.000000pt" height="248.000000pt" viewBox="0 0 248.000000 248.000000"
 preserveAspectRatio="xMidYMid meet">
<metadata>
Created by potrace 1.10, written by Peter Selinger 2001-2011
</metadata>
<g transform="translate(0.000000,248.000000) scale(0.100000,-0.100000)"
fill="#000000" stroke="none">
<path d="M1558 2353 c-8 -10 -29 -45 -47 -78 -17 -33 -61 -101 -99 -150 -143
-192 -150 -206 -127 -241 31 -48 58 -33 137 77 206 285 244 359 206 397 -17
17 -53 15 -70 -5z"/>
<path d="M712 2218 c-19 -19 -14 -55 18 -118 29 -57 126 -207 158 -242 17 -21
53 -23 70 -6 24 24 12 65 -42 145 -30 45 -69 107 -87 139 -18 33 -39 67 -47
77 -17 20 -53 22 -70 5z"/>
</g>
</svg>
