<?xml version="1.0" standalone="no"?>
<!DOCTYPE svg PUBLIC "-//W3C//DTD SVG 20010904//EN"
 "http://www.w3.org/TR/2001/REC-SVG-20010904/DTD/svg10.dtd">
<svg version="1.0" xmlns="http://www.w3.org/2000/svg"
 width="248.000000pt" height="248.000000pt" viewBox="0 0 248.000000 248.000000"
 preserveAspectRatio="xMidYMid meet">
<metadata>
Created by potrace 1.10, written by Peter Selinger 2001-2011
</metadata>
<g transform="translate(0.000000,248.000000) scale(0.100000,-0.100000)"
fill="#000000" stroke="none">
<path d="M880 2369 c-52 -3 -108 -9 -125 -12 -16 -4 -102 -14 -190 -22 -165
-16 -308 -44 -328 -64 -16 -16 -23 -532 -8 -582 14 -48 44 -60 118 -49 32 4
95 11 140 14 80 5 83 4 87 -17 3 -12 7 -304 10 -649 l5 -627 -52 -11 c-29 -6
-71 -18 -95 -27 -23 -9 -45 -14 -47 -11 -3 3 -9 154 -14 337 -10 361 -14 381
-66 381 -51 0 -54 -18 -44 -340 4 -162 8 -324 8 -360 l1 -66 -84 -27 c-46 -15
-96 -37 -110 -48 -41 -32 -30 -89 17 -89 10 0 102 30 205 66 103 36 210 72
237 79 46 11 171 49 365 110 41 13 89 26 105 30 50 11 75 32 75 65 0 46 -28
55 -106 35 -35 -9 -83 -23 -107 -31 -23 -9 -72 -23 -108 -33 l-66 -17 -6 216
c-4 118 -7 272 -7 342 l0 127 33 5 c17 3 84 13 147 22 131 18 163 32 158 72
-5 43 -39 53 -128 37 -41 -7 -105 -16 -142 -20 l-68 -7 -2 201 c-1 111 -2 218
-2 239 -1 36 0 37 39 40 78 5 240 35 268 49 15 8 32 24 36 36 14 37 34 344 30
458 -3 67 -9 112 -17 122 -22 26 -63 33 -162 26z m66 -301 c-8 -250 -9 -254
-49 -262 -62 -11 -482 -54 -544 -56 l-23 0 0 224 0 224 33 6 c35 8 364 45 492
56 44 4 84 7 89 8 5 1 6 -81 2 -200z"/>
<path d="M2055 2318 c-49 -4 -211 -17 -360 -28 -474 -37 -465 -35 -465 -86 0
-37 40 -57 102 -51 29 3 172 14 318 25 146 12 304 24 353 28 48 4 87 4 87 1 0
-3 -20 -20 -44 -36 -25 -17 -50 -37 -58 -44 -18 -18 -128 -91 -163 -110 -17
-8 -59 -38 -94 -66 l-64 -51 -53 50 c-53 50 -88 62 -112 38 -22 -22 -13 -57
29 -100 22 -24 46 -54 54 -68 7 -14 27 -35 44 -48 17 -12 31 -27 31 -32 0 -5
-21 -12 -47 -16 -27 -3 -88 -15 -138 -25 -49 -10 -109 -19 -133 -19 -32 0 -49
-6 -67 -25 -24 -23 -25 -29 -25 -167 0 -79 -7 -244 -15 -368 -26 -383 -35
-588 -35 -780 0 -209 6 -235 55 -235 50 0 55 24 55 266 0 119 3 250 6 292 8
91 -10 83 222 93 l162 7 0 -294 c0 -325 3 -344 55 -344 52 0 55 19 55 341 l0
292 33 5 c17 3 105 2 195 -1 l162 -5 0 -266 c-1 -231 -2 -264 -15 -247 -65 85
-113 114 -143 84 -24 -24 -12 -61 43 -129 66 -79 93 -99 137 -99 46 0 57 10
73 65 13 40 15 154 14 669 0 715 -7 898 -33 924 -21 22 -184 23 -365 3 l-123
-14 -24 29 c-13 16 -23 34 -23 39 0 14 92 87 159 128 126 76 259 177 319 242
31 34 41 53 41 79 0 18 -6 38 -12 43 -19 15 -93 20 -193 11z m138 -755 c4 -58
7 -148 7 -199 l0 -92 -107 -7 c-60 -4 -146 -10 -193 -15 -47 -4 -86 -7 -87 -6
-9 8 2 361 12 394 3 7 23 12 52 13 26 0 68 4 93 8 25 5 84 9 131 10 l86 1 6
-107z m-485 -83 c-4 -25 -7 -90 -7 -146 l-1 -101 -137 -7 c-76 -4 -155 -9
-175 -13 l-37 -5 6 178 c3 99 8 182 12 185 3 3 38 11 76 18 39 6 113 19 165
29 l95 17 5 -55 c3 -30 2 -75 -2 -100z m492 -465 l0 -146 -195 2 -195 2 0 132
0 133 118 7 c64 3 124 8 132 9 8 2 43 4 78 5 l62 1 0 -145z m-500 -14 l0 -129
-137 -6 c-76 -4 -159 -9 -185 -12 l-48 -6 0 44 c0 23 3 80 7 125 l6 83 31 5
c17 3 94 9 171 14 77 4 143 9 148 10 4 0 7 -57 7 -128z"/>
</g>
</svg>
