<?xml version="1.0" standalone="no"?>
<!DOCTYPE svg PUBLIC "-//W3C//DTD SVG 20010904//EN"
 "http://www.w3.org/TR/2001/REC-SVG-20010904/DTD/svg10.dtd">
<svg version="1.0" xmlns="http://www.w3.org/2000/svg"
 width="248.000000pt" height="248.000000pt" viewBox="0 0 248.000000 248.000000"
 preserveAspectRatio="xMidYMid meet">
<metadata>
Created by potrace 1.10, written by Peter Selinger 2001-2011
</metadata>
<g transform="translate(0.000000,248.000000) scale(0.100000,-0.100000)"
fill="#000000" stroke="none">
<path d="M262 2188 c-27 -27 -12 -56 71 -134 104 -98 224 -194 243 -194 18 0
54 36 54 53 0 20 -18 39 -90 98 -36 30 -98 84 -139 121 -75 69 -112 83 -139
56z"/>
<path d="M120 1576 c-25 -31 -7 -60 65 -107 194 -127 216 -139 245 -139 33 0
55 29 45 60 -3 10 -69 60 -147 110 -142 91 -183 106 -208 76z"/>
<path d="M413 635 c-12 -8 -47 -66 -77 -128 -30 -61 -69 -137 -85 -167 -80
-147 -95 -201 -60 -223 35 -22 66 0 99 71 17 37 40 83 51 102 50 90 149 297
149 312 0 19 -26 48 -43 48 -7 0 -22 -7 -34 -15z"/>
</g>
</svg>
