<?xml version="1.0" standalone="no"?>
<!DOCTYPE svg PUBLIC "-//W3C//DTD SVG 20010904//EN"
 "http://www.w3.org/TR/2001/REC-SVG-20010904/DTD/svg10.dtd">
<svg version="1.0" xmlns="http://www.w3.org/2000/svg"
 width="248.000000pt" height="248.000000pt" viewBox="0 0 248.000000 248.000000"
 preserveAspectRatio="xMidYMid meet">
<metadata>
Created by potrace 1.10, written by Peter Selinger 2001-2011
</metadata>
<g transform="translate(0.000000,248.000000) scale(0.100000,-0.100000)"
fill="#000000" stroke="none">
<path d="M885 2370 c-314 -25 -621 -72 -648 -99 -16 -16 -23 -532 -8 -582 15
-50 41 -59 132 -49 41 5 148 16 239 25 328 32 412 51 429 98 22 58 40 469 25
546 -12 56 -51 70 -169 61z m61 -302 c-8 -250 -9 -254 -49 -262 -40 -7 -375
-42 -484 -51 l-83 -6 0 224 0 224 58 11 c31 6 118 16 192 22 74 6 144 14 155
17 11 4 61 9 110 13 50 4 94 8 99 8 5 1 6 -81 2 -200z"/>
</g>
</svg>
