<?xml version="1.0" standalone="no"?>
<!DOCTYPE svg PUBLIC "-//W3C//DTD SVG 20010904//EN"
 "http://www.w3.org/TR/2001/REC-SVG-20010904/DTD/svg10.dtd">
<svg version="1.0" xmlns="http://www.w3.org/2000/svg"
 width="248.000000pt" height="248.000000pt" viewBox="0 0 248.000000 248.000000"
 preserveAspectRatio="xMidYMid meet">
<metadata>
Created by potrace 1.10, written by Peter Selinger 2001-2011
</metadata>
<g transform="translate(0.000000,248.000000) scale(0.100000,-0.100000)"
fill="#000000" stroke="none">
<path d="M885 2370 c-314 -25 -621 -72 -648 -99 -8 -8 -13 -96 -15 -289 -2
-308 1 -327 53 -327 51 0 55 22 55 296 l0 247 63 11 c34 6 118 16 187 21 69 6
150 15 180 20 30 5 86 11 124 13 l69 3 -8 -205 c-12 -309 -13 -301 10 -317 24
-17 36 -18 60 -1 15 11 20 39 31 148 14 144 18 367 8 418 -12 56 -51 70 -169
61z"/>
</g>
</svg>
