<?xml version="1.0" standalone="no"?>
<!DOCTYPE svg PUBLIC "-//W3C//DTD SVG 20010904//EN"
 "http://www.w3.org/TR/2001/REC-SVG-20010904/DTD/svg10.dtd">
<svg version="1.0" xmlns="http://www.w3.org/2000/svg"
 width="248.000000pt" height="248.000000pt" viewBox="0 0 248.000000 248.000000"
 preserveAspectRatio="xMidYMid meet">
<metadata>
Created by potrace 1.10, written by Peter Selinger 2001-2011
</metadata>
<g transform="translate(0.000000,248.000000) scale(0.100000,-0.100000)"
fill="#000000" stroke="none">
<path d="M1200 2240 c-25 -4 -173 -13 -330 -19 -157 -7 -292 -16 -300 -20 -21
-11 -24 -50 -5 -71 8 -9 37 -20 62 -24 52 -7 375 8 531 25 57 6 105 9 107 7 6
-6 -29 -133 -59 -218 -15 -41 -32 -90 -37 -107 -8 -27 -15 -33 -37 -34 -15 0
-144 -6 -287 -13 -208 -10 -267 -16 -293 -30 -39 -20 -37 -16 -67 -153 -13
-59 -29 -130 -35 -156 -26 -106 8 -126 176 -102 126 18 604 33 604 19 0 -15
-30 -144 -50 -214 -11 -36 -29 -110 -40 -165 -31 -144 -119 -402 -182 -535
-49 -103 -134 -240 -158 -255 -5 -3 -28 34 -50 82 -23 48 -49 96 -57 105 -30
34 -83 17 -83 -26 0 -35 84 -217 113 -247 23 -23 38 -29 71 -29 51 0 76 23
163 155 98 147 215 438 268 665 10 41 32 131 50 200 67 258 70 275 57 319 -19
61 -41 65 -332 58 -135 -4 -272 -11 -305 -16 -131 -21 -135 -21 -135 -8 1 17
46 207 51 211 2 2 130 9 284 16 177 8 292 17 311 25 24 10 36 24 49 61 10 27
28 76 40 109 33 86 88 294 89 335 1 27 -4 37 -24 47 -27 14 -89 15 -160 3z"/>
<path d="M582 1128 c-19 -19 -14 -53 11 -76 46 -43 167 -68 195 -40 19 19 14
56 -10 71 -13 8 -44 20 -71 27 -26 7 -50 17 -53 21 -8 13 -58 11 -72 -3z"/>
</g>
</svg>
