<?xml version="1.0" standalone="no"?>
<!DOCTYPE svg PUBLIC "-//W3C//DTD SVG 20010904//EN"
 "http://www.w3.org/TR/2001/REC-SVG-20010904/DTD/svg10.dtd">
<svg version="1.0" xmlns="http://www.w3.org/2000/svg"
 width="248.000000pt" height="248.000000pt" viewBox="0 0 248.000000 248.000000"
 preserveAspectRatio="xMidYMid meet">
<metadata>
Created by potrace 1.10, written by Peter Selinger 2001-2011
</metadata>
<g transform="translate(0.000000,248.000000) scale(0.100000,-0.100000)"
fill="#000000" stroke="none">
<path d="M1200 2240 c-25 -4 -173 -13 -330 -19 -157 -7 -292 -16 -300 -20 -21
-11 -24 -50 -5 -71 8 -9 37 -20 62 -24 52 -7 375 8 531 25 57 6 105 9 107 7 6
-6 -29 -133 -59 -218 -15 -41 -32 -90 -37 -107 -8 -27 -15 -33 -37 -34 -15 0
-145 -6 -290 -13 -227 -11 -265 -15 -282 -31 -24 -22 -26 -58 -4 -75 20 -18
602 5 650 25 24 10 36 24 49 61 10 27 28 76 40 109 33 86 88 294 89 335 1 27
-4 37 -24 47 -27 14 -89 15 -160 3z"/>
</g>
</svg>
