<?xml version="1.0" standalone="no"?>
<!DOCTYPE svg PUBLIC "-//W3C//DTD SVG 20010904//EN"
 "http://www.w3.org/TR/2001/REC-SVG-20010904/DTD/svg10.dtd">
<svg version="1.0" xmlns="http://www.w3.org/2000/svg"
 width="248.000000pt" height="248.000000pt" viewBox="0 0 248.000000 248.000000"
 preserveAspectRatio="xMidYMid meet">
<metadata>
Created by potrace 1.10, written by Peter Selinger 2001-2011
</metadata>
<g transform="translate(0.000000,248.000000) scale(0.100000,-0.100000)"
fill="#000000" stroke="none">
<path d="M900 2120 c-204 -51 -338 -81 -470 -106 -80 -14 -155 -33 -168 -41
-31 -19 -27 -63 8 -79 36 -17 284 31 668 128 87 22 105 38 94 81 -4 14 -44 41
-55 36 -1 0 -36 -9 -77 -19z"/>
<path d="M905 1805 c-132 -22 -223 -40 -574 -114 -88 -19 -152 -38 -164 -48
-17 -16 -19 -27 -13 -108 10 -128 56 -406 77 -462 10 -27 42 -38 69 -23 16 8
20 20 20 58 0 26 -5 65 -10 87 -15 62 -37 212 -45 297 -6 75 -6 77 17 82 13 3
86 18 163 35 307 67 601 118 612 107 7 -7 6 -72 -7 -327 -6 -108 -8 -204 -4
-212 8 -22 30 -28 58 -17 34 13 45 68 57 300 13 236 9 324 -13 346 -25 25 -90
25 -243 -1z"/>
</g>
</svg>
