<?xml version="1.0" standalone="no"?>
<!DOCTYPE svg PUBLIC "-//W3C//DTD SVG 20010904//EN"
 "http://www.w3.org/TR/2001/REC-SVG-20010904/DTD/svg10.dtd">
<svg version="1.0" xmlns="http://www.w3.org/2000/svg"
 width="248.000000pt" height="248.000000pt" viewBox="0 0 248.000000 248.000000"
 preserveAspectRatio="xMidYMid meet">
<metadata>
Created by potrace 1.10, written by Peter Selinger 2001-2011
</metadata>
<g transform="translate(0.000000,248.000000) scale(0.100000,-0.100000)"
fill="#000000" stroke="none">
<path d="M900 2120 c-204 -51 -338 -81 -470 -106 -80 -14 -155 -33 -168 -41
-31 -19 -27 -63 8 -79 36 -17 284 31 668 128 87 22 105 38 94 81 -4 14 -44 41
-55 36 -1 0 -36 -9 -77 -19z"/>
<path d="M905 1805 c-132 -22 -223 -40 -574 -114 -88 -19 -152 -38 -164 -48
-17 -16 -19 -27 -13 -108 10 -128 56 -406 77 -462 10 -27 42 -38 69 -23 25 13
27 75 5 165 -22 91 -21 95 20 95 20 0 68 6 108 14 40 8 133 24 207 36 162 26
207 34 324 59 l89 19 -7 -128 c-6 -111 -4 -130 10 -144 15 -16 48 -14 67 3 21
20 36 173 39 389 3 262 4 262 -73 267 -24 2 -107 -7 -184 -20z m157 -101 c2
-9 1 -49 -2 -88 l-5 -71 -105 -22 c-58 -12 -159 -31 -225 -42 -66 -11 -160
-27 -210 -36 -82 -15 -238 -35 -241 -32 -1 1 -5 37 -9 79 -6 75 -6 77 17 82
13 3 106 23 208 44 221 47 326 68 440 86 117 19 128 19 132 0z"/>
</g>
</svg>
