<?xml version="1.0" standalone="no"?>
<!DOCTYPE svg PUBLIC "-//W3C//DTD SVG 20010904//EN"
 "http://www.w3.org/TR/2001/REC-SVG-20010904/DTD/svg10.dtd">
<svg version="1.0" xmlns="http://www.w3.org/2000/svg"
 width="248.000000pt" height="248.000000pt" viewBox="0 0 248.000000 248.000000"
 preserveAspectRatio="xMidYMid meet">
<metadata>
Created by potrace 1.10, written by Peter Selinger 2001-2011
</metadata>
<g transform="translate(0.000000,248.000000) scale(0.100000,-0.100000)"
fill="#000000" stroke="none">
<path d="M626 2368 c-13 -18 -16 -51 -16 -170 0 -131 -2 -147 -17 -152 -10 -3
-83 -17 -163 -32 -80 -14 -155 -33 -167 -40 -30 -19 -30 -59 0 -79 21 -13 35
-12 147 9 69 13 142 27 163 30 l37 7 0 -95 c0 -91 -1 -96 -22 -101 -27 -6
-280 -60 -354 -75 -78 -16 -88 -33 -80 -132 19 -212 65 -460 93 -490 33 -37
47 -39 160 -18 59 12 127 25 150 30 76 18 74 20 71 -77 l-3 -87 -65 -12 c-184
-34 -332 -58 -391 -63 -36 -3 -74 -12 -83 -20 -25 -21 -16 -62 16 -80 27 -16
60 -13 238 19 30 6 96 17 145 24 50 8 103 18 119 22 l29 7 -6 -310 c-5 -269
-4 -313 10 -332 21 -31 64 -25 81 11 9 20 15 114 19 337 l6 309 96 17 c432 76
478 90 469 146 -5 37 -30 45 -95 31 -57 -13 -191 -38 -348 -67 -134 -25 -126
-29 -123 73 l3 87 110 17 c216 34 243 40 259 51 29 22 45 151 48 395 3 270 4
267 -85 266 -54 0 -309 -38 -340 -50 -15 -6 -17 3 -17 94 l0 100 68 17 c37 9
96 24 132 32 84 21 107 32 112 52 15 61 -29 75 -147 46 -49 -12 -107 -25 -127
-29 l-38 -7 0 128 c0 83 -5 137 -13 153 -17 34 -60 39 -81 8z m432 -735 l-3
-88 -105 -22 c-191 -41 -203 -43 -216 -43 -11 0 -14 21 -14 90 0 108 -11 99
171 128 189 30 170 37 167 -65z m-448 -83 l0 -89 -37 -6 c-21 -4 -74 -13 -118
-20 -44 -8 -103 -16 -131 -20 l-51 -5 -7 76 c-4 42 -5 78 -2 81 3 3 35 11 73
19 37 7 106 22 153 33 130 29 120 35 120 -69z m431 -282 c-8 -23 -18 -26 -133
-42 -67 -9 -135 -20 -150 -23 l-28 -5 0 89 0 89 73 12 c39 6 110 20 157 30
l85 18 3 -71 c1 -40 -1 -83 -7 -97z m-431 -88 c-6 -4 -44 -13 -83 -20 -40 -7
-101 -19 -136 -26 -35 -8 -65 -13 -66 -12 -3 5 -35 163 -35 174 0 6 28 14 63
18 34 4 107 15 162 24 l100 18 3 -85 c2 -54 -1 -87 -8 -91z"/>
<path d="M1750 2383 c-20 -8 -28 -21 -41 -67 -6 -22 -36 -80 -66 -130 -31 -50
-67 -111 -81 -136 -13 -25 -32 -54 -41 -65 -10 -11 -53 -72 -96 -135 -43 -63
-105 -146 -137 -184 -59 -70 -72 -108 -46 -134 28 -28 57 -13 122 64 35 41 82
100 103 131 21 32 72 105 113 164 41 59 104 157 139 218 35 61 66 111 69 111
9 0 88 -74 320 -302 136 -133 244 -231 259 -234 34 -9 57 6 61 39 2 20 -7 36
-40 67 -24 23 -170 167 -326 321 -156 153 -286 279 -290 278 -4 0 -14 -3 -22
-6z"/>
<path d="M2180 1669 c-94 -20 -198 -38 -280 -48 -47 -6 -141 -17 -210 -26 -69
-8 -160 -19 -203 -24 -43 -5 -85 -15 -93 -22 -22 -18 -13 -61 16 -76 27 -14
61 -12 235 12 55 7 152 19 215 25 63 6 147 17 185 25 39 8 108 21 154 30 94
17 111 27 111 60 0 43 -51 61 -130 44z"/>
<path d="M2252 1488 c-5 -7 -11 -20 -13 -28 -4 -23 11 -418 27 -700 8 -140 14
-309 14 -374 l0 -120 -35 38 c-26 29 -40 37 -61 34 -34 -4 -49 -27 -40 -61 8
-35 147 -177 173 -177 31 0 53 23 63 65 14 59 12 253 -5 580 -8 160 -19 383
-23 497 -7 166 -12 212 -26 232 -18 28 -56 35 -74 14z"/>
<path d="M1560 1384 c-36 -7 -84 -13 -108 -14 -31 0 -49 -6 -66 -23 -22 -23
-23 -27 -29 -342 -4 -176 -10 -426 -13 -555 -6 -264 -2 -285 51 -285 48 0 55
28 55 215 0 91 3 195 6 231 l7 65 111 18 c61 10 119 20 129 23 16 4 17 -10 17
-195 l0 -199 -25 5 c-32 6 -55 -13 -55 -47 0 -31 101 -141 130 -141 24 0 48
24 57 58 3 14 3 285 -1 602 -6 522 -8 576 -23 588 -22 16 -157 14 -243 -4z
m148 -211 l-3 -116 -100 -23 c-150 -34 -136 -45 -133 103 l3 128 59 7 c32 4
61 10 64 13 3 3 29 5 59 5 l54 0 -3 -117z m10 -285 l-3 -63 -95 -17 c-52 -9
-110 -20 -127 -23 l-33 -6 0 56 c0 64 -8 58 128 90 142 33 133 36 130 -37z"/>
<path d="M1935 1326 c-15 -23 -16 -44 -6 -213 9 -162 14 -190 30 -207 26 -26
66 -15 78 21 12 37 -5 360 -20 393 -17 36 -61 39 -82 6z"/>
</g>
</svg>
