<?xml version="1.0" standalone="no"?>
<!DOCTYPE svg PUBLIC "-//W3C//DTD SVG 20010904//EN"
 "http://www.w3.org/TR/2001/REC-SVG-20010904/DTD/svg10.dtd">
<svg version="1.0" xmlns="http://www.w3.org/2000/svg"
 width="248.000000pt" height="248.000000pt" viewBox="0 0 248.000000 248.000000"
 preserveAspectRatio="xMidYMid meet">
<metadata>
Created by potrace 1.10, written by Peter Selinger 2001-2011
</metadata>
<g transform="translate(0.000000,248.000000) scale(0.100000,-0.100000)"
fill="#000000" stroke="none">
<path d="M900 2120 c-204 -51 -338 -81 -470 -106 -80 -14 -155 -33 -168 -41
-31 -19 -27 -63 8 -79 36 -17 284 31 668 128 87 22 105 38 94 81 -4 14 -44 41
-55 36 -1 0 -36 -9 -77 -19z"/>
<path d="M160 1635 c-20 -24 -4 -189 42 -430 11 -60 24 -120 29 -132 10 -27
42 -38 69 -23 25 13 27 74 6 165 -13 58 -24 133 -46 314 -11 90 -27 121 -65
121 -13 0 -28 -7 -35 -15z"/>
</g>
</svg>
