<?xml version="1.0" standalone="no"?>
<!DOCTYPE svg PUBLIC "-//W3C//DTD SVG 20010904//EN"
 "http://www.w3.org/TR/2001/REC-SVG-20010904/DTD/svg10.dtd">
<svg version="1.0" xmlns="http://www.w3.org/2000/svg"
 width="248.000000pt" height="248.000000pt" viewBox="0 0 248.000000 248.000000"
 preserveAspectRatio="xMidYMid meet">
<metadata>
Created by potrace 1.10, written by Peter Selinger 2001-2011
</metadata>
<g transform="translate(0.000000,248.000000) scale(0.100000,-0.100000)"
fill="#000000" stroke="none">
<path d="M512 2008 c-19 -19 -14 -53 14 -84 14 -16 59 -71 100 -121 75 -93 89
-102 125 -83 32 18 24 62 -23 122 -101 130 -149 178 -177 178 -15 0 -32 -5
-39 -12z"/>
<path d="M60 1516 c-22 -27 -6 -59 56 -110 116 -97 248 -186 274 -186 55 0 67
51 23 92 -16 13 -68 53 -118 88 -49 35 -108 79 -129 97 -42 35 -85 43 -106 19z"/>
<path d="M453 553 c-139 -196 -223 -329 -223 -354 0 -51 51 -66 87 -26 11 12
56 76 100 142 44 66 103 153 132 194 66 97 66 141 0 141 -22 0 -38 -16 -96
-97z"/>
</g>
</svg>
