<?xml version="1.0" standalone="no"?>
<!DOCTYPE svg PUBLIC "-//W3C//DTD SVG 20010904//EN"
 "http://www.w3.org/TR/2001/REC-SVG-20010904/DTD/svg10.dtd">
<svg version="1.0" xmlns="http://www.w3.org/2000/svg"
 width="248.000000pt" height="248.000000pt" viewBox="0 0 248.000000 248.000000"
 preserveAspectRatio="xMidYMid meet">
<metadata>
Created by potrace 1.10, written by Peter Selinger 2001-2011
</metadata>
<g transform="translate(0.000000,248.000000) scale(0.100000,-0.100000)"
fill="#000000" stroke="none">
<path d="M512 2008 c-19 -19 -14 -53 14 -84 14 -16 59 -71 100 -121 75 -93 89
-102 125 -83 32 18 24 62 -23 122 -101 130 -149 178 -177 178 -15 0 -32 -5
-39 -12z"/>
<path d="M60 1516 c-22 -27 -6 -59 56 -110 116 -97 248 -186 274 -186 55 0 67
51 23 92 -16 13 -68 53 -118 88 -49 35 -108 79 -129 97 -42 35 -85 43 -106 19z"/>
<path d="M1700 1430 c-106 -10 -236 -28 -370 -50 -63 -10 -162 -22 -220 -26
-122 -8 -143 -14 -165 -48 -14 -22 -15 -36 -6 -108 6 -46 18 -186 26 -313 22
-355 45 -566 66 -591 15 -19 54 -18 73 2 19 19 19 7 1 173 -8 75 -22 246 -30
381 -8 135 -20 276 -25 314 -6 38 -8 71 -6 73 2 2 47 8 99 13 53 5 124 14 159
20 278 47 370 55 658 55 l275 0 3 -49 c2 -26 -2 -85 -8 -130 -6 -44 -19 -151
-29 -236 -11 -85 -38 -259 -61 -387 -24 -130 -40 -243 -36 -257 7 -30 39 -50
65 -41 21 6 41 46 41 81 0 13 11 86 25 162 54 299 65 362 80 497 9 77 21 178
27 225 12 97 -1 187 -30 213 -9 8 -44 20 -76 26 -65 12 -414 12 -536 1z"/>
<path d="M453 553 c-139 -196 -223 -329 -223 -354 0 -51 51 -66 87 -26 11 12
56 76 100 142 44 66 103 153 132 194 66 97 66 141 0 141 -22 0 -38 -16 -96
-97z"/>
</g>
</svg>
