<?xml version="1.0" standalone="no"?>
<!DOCTYPE svg PUBLIC "-//W3C//DTD SVG 20010904//EN"
 "http://www.w3.org/TR/2001/REC-SVG-20010904/DTD/svg10.dtd">
<svg version="1.0" xmlns="http://www.w3.org/2000/svg"
 width="248.000000pt" height="248.000000pt" viewBox="0 0 248.000000 248.000000"
 preserveAspectRatio="xMidYMid meet">
<metadata>
Created by potrace 1.10, written by Peter Selinger 2001-2011
</metadata>
<g transform="translate(0.000000,248.000000) scale(0.100000,-0.100000)"
fill="#000000" stroke="none">
<path d="M1579 2223 c-10 -11 -16 -66 -20 -197 -4 -100 -10 -278 -14 -397 l-8
-216 -166 -26 c-91 -15 -211 -29 -266 -33 -117 -8 -138 -14 -160 -48 -14 -22
-15 -36 -6 -108 6 -46 18 -186 26 -313 22 -355 45 -566 66 -591 15 -19 54 -18
73 2 19 19 19 9 2 169 -27 244 -28 285 -8 285 9 1 51 5 92 11 41 5 120 14 175
19 55 5 112 12 128 16 l27 6 0 -230 c0 -209 2 -230 18 -245 10 -10 28 -17 39
-17 44 0 48 20 53 264 l5 231 115 11 c165 17 440 18 440 2 0 -7 -20 -129 -46
-270 -26 -145 -44 -268 -40 -282 7 -30 39 -50 65 -41 21 6 41 46 41 81 0 13
11 86 25 162 54 299 65 362 80 497 9 77 21 178 27 223 12 93 0 182 -28 213
-29 32 -140 42 -413 36 l-254 -5 6 192 c4 105 10 275 13 378 6 165 5 190 -10
212 -19 30 -57 34 -77 9z m655 -988 c0 -77 -12 -183 -30 -272 -4 -23 -7 -23
-142 -23 -75 0 -202 -7 -281 -15 -79 -9 -145 -14 -146 -13 -1 2 1 93 4 203 l6
200 40 6 c22 4 155 6 295 5 l255 -1 -1 -90z m-702 -102 c-1 -93 -4 -182 -7
-200 -6 -31 -7 -32 -73 -37 -37 -3 -128 -13 -202 -22 -74 -9 -144 -17 -155
-18 -19 -1 -20 7 -27 109 -3 61 -11 146 -17 189 -6 44 -9 81 -7 83 2 2 47 8
99 13 86 8 155 19 272 40 22 4 58 8 80 9 l40 1 -3 -167z"/>
<path d="M512 2008 c-19 -19 -14 -53 14 -84 14 -16 59 -71 100 -121 75 -93 89
-102 125 -83 32 18 24 62 -23 122 -101 130 -149 178 -177 178 -15 0 -32 -5
-39 -12z"/>
<path d="M60 1516 c-22 -27 -6 -59 56 -110 116 -97 248 -186 274 -186 55 0 67
51 23 92 -16 13 -68 53 -118 88 -49 35 -108 79 -129 97 -42 35 -85 43 -106 19z"/>
<path d="M453 553 c-139 -196 -223 -329 -223 -354 0 -51 51 -66 87 -26 11 12
56 76 100 142 44 66 103 153 132 194 66 97 66 141 0 141 -22 0 -38 -16 -96
-97z"/>
</g>
</svg>
