<?xml version="1.0" standalone="no"?>
<!DOCTYPE svg PUBLIC "-//W3C//DTD SVG 20010904//EN"
 "http://www.w3.org/TR/2001/REC-SVG-20010904/DTD/svg10.dtd">
<svg version="1.0" xmlns="http://www.w3.org/2000/svg"
 width="248.000000pt" height="248.000000pt" viewBox="0 0 248.000000 248.000000"
 preserveAspectRatio="xMidYMid meet">
<metadata>
Created by potrace 1.10, written by Peter Selinger 2001-2011
</metadata>
<g transform="translate(0.000000,248.000000) scale(0.100000,-0.100000)"
fill="#000000" stroke="none">
<path d="M667 2348 c-10 -14 -17 -62 -21 -128 -26 -480 -28 -500 -50 -505 -12
-3 -82 -14 -156 -25 -227 -35 -250 -43 -250 -85 0 -52 35 -57 215 -27 66 11
142 23 169 27 l49 7 -6 -69 c-4 -37 -7 -177 -7 -310 l0 -241 -82 -28 c-82 -27
-291 -118 -315 -137 -16 -12 -17 -49 -1 -65 19 -19 79 -14 123 9 38 21 249
109 260 109 3 0 5 -141 5 -312 l-1 -313 -37 44 c-42 48 -85 58 -109 25 -20
-28 -17 -38 39 -108 29 -36 65 -83 80 -105 27 -40 64 -59 93 -47 36 13 39 54
43 457 l3 396 62 17 c96 26 161 65 165 99 4 32 -13 57 -38 57 -10 0 -42 -11
-71 -24 -30 -14 -66 -28 -81 -31 l-28 -7 0 244 c0 135 3 272 6 304 l6 60 82
18 c282 63 307 76 257 137 -18 23 -21 23 -77 10 -33 -7 -97 -21 -144 -31 -47
-10 -94 -22 -104 -26 -21 -8 -22 -50 4 400 11 189 6 219 -42 224 -19 2 -31 -3
-41 -20z"/>
<path d="M1297 2318 c-20 -32 -34 -775 -16 -857 35 -162 168 -183 668 -106
281 43 297 50 288 130 -14 117 -43 159 -95 136 -23 -11 -24 -15 -19 -70 l5
-59 -57 -11 c-253 -49 -591 -76 -650 -52 -37 16 -41 30 -41 183 0 118 1 126
19 121 10 -2 47 7 82 21 35 14 107 41 159 59 232 84 420 167 463 205 20 17 22
53 5 70 -21 21 -60 13 -138 -27 -90 -45 -418 -176 -570 -227 -13 -4 -15 24
-12 223 3 250 -2 275 -50 281 -19 2 -31 -3 -41 -20z"/>
</g>
</svg>
