<?xml version="1.0" standalone="no"?>
<!DOCTYPE svg PUBLIC "-//W3C//DTD SVG 20010904//EN"
 "http://www.w3.org/TR/2001/REC-SVG-20010904/DTD/svg10.dtd">
<svg version="1.0" xmlns="http://www.w3.org/2000/svg"
 width="248.000000pt" height="248.000000pt" viewBox="0 0 248.000000 248.000000"
 preserveAspectRatio="xMidYMid meet">
<metadata>
Created by potrace 1.10, written by Peter Selinger 2001-2011
</metadata>
<g transform="translate(0.000000,248.000000) scale(0.100000,-0.100000)"
fill="#000000" stroke="none">
<path d="M562 2258 c-9 -9 -12 -88 -12 -294 0 -261 -1 -283 -17 -288 -24 -7
-253 -46 -325 -55 -31 -4 -63 -13 -72 -20 -24 -20 -20 -58 9 -77 24 -16 35
-15 188 10 89 15 173 30 186 33 l23 6 -6 -184 c-4 -101 -9 -202 -12 -225 -5
-45 9 -40 -234 -89 -119 -24 -140 -37 -140 -82 0 -13 6 -34 14 -46 8 -12 20
-60 26 -107 37 -280 71 -494 81 -506 18 -22 57 -17 74 10 15 22 13 45 -24 311
-23 158 -41 293 -41 300 0 7 19 16 46 20 25 3 71 13 102 21 57 16 383 74 410
74 13 0 14 -18 9 -122 -4 -68 -14 -175 -22 -238 -24 -175 -35 -260 -42 -312
-7 -54 6 -78 42 -78 41 0 54 30 75 171 73 490 74 645 6 678 -25 12 -43 11
-135 -3 -58 -10 -114 -20 -124 -23 -17 -4 -18 1 -13 64 3 37 8 138 12 224 l6
157 76 12 c157 26 307 62 325 78 10 9 17 26 15 40 -6 47 -26 49 -175 19 -76
-15 -159 -30 -185 -34 l-47 -6 -3 266 c-3 244 -5 267 -22 286 -21 23 -56 27
-74 9z"/>
</g>
</svg>
