<?xml version="1.0" standalone="no"?>
<!DOCTYPE svg PUBLIC "-//W3C//DTD SVG 20010904//EN"
 "http://www.w3.org/TR/2001/REC-SVG-20010904/DTD/svg10.dtd">
<svg version="1.0" xmlns="http://www.w3.org/2000/svg"
 width="248.000000pt" height="248.000000pt" viewBox="0 0 248.000000 248.000000"
 preserveAspectRatio="xMidYMid meet">
<metadata>
Created by potrace 1.10, written by Peter Selinger 2001-2011
</metadata>
<g transform="translate(0.000000,248.000000) scale(0.100000,-0.100000)"
fill="#000000" stroke="none">
<path d="M562 2258 c-9 -9 -12 -88 -12 -294 0 -261 -1 -283 -17 -288 -24 -7
-253 -46 -325 -55 -31 -4 -63 -13 -72 -20 -24 -20 -20 -58 9 -77 24 -16 35
-15 188 10 89 15 173 30 186 33 l23 6 -6 -184 c-4 -101 -9 -202 -12 -225 -5
-45 9 -40 -234 -89 -119 -24 -140 -37 -140 -82 0 -13 6 -34 14 -46 8 -12 20
-60 26 -107 49 -374 70 -494 90 -515 25 -24 102 -26 335 -6 164 14 157 14 200
5 50 -9 63 15 85 167 73 490 74 645 6 678 -25 12 -43 11 -135 -3 -58 -10 -114
-20 -124 -23 -17 -4 -18 1 -13 64 3 37 8 138 12 224 l6 157 76 12 c157 26 307
62 325 78 10 9 17 26 15 40 -6 47 -26 49 -175 19 -76 -15 -159 -30 -185 -34
l-47 -6 -3 266 c-3 244 -5 267 -22 286 -21 23 -56 27 -74 9z m285 -1310 c-4
-68 -14 -175 -22 -238 -9 -63 -20 -146 -25 -184 -4 -38 -13 -73 -18 -78 -11
-11 -203 -28 -342 -31 l-85 -2 -37 255 c-20 140 -37 265 -37 276 -1 18 7 23
45 29 25 3 71 13 102 22 64 16 364 71 401 72 l24 1 -6 -122z"/>
<path d="M1286 2178 c-10 -14 -16 -44 -16 -81 0 -107 -54 -379 -100 -504 -26
-69 -85 -188 -121 -240 -43 -63 -36 -113 18 -113 30 0 65 40 111 125 45 85
109 236 117 279 16 77 26 96 51 96 25 0 280 42 352 59 23 5 43 6 47 3 10 -10
5 -68 -14 -142 -45 -177 -81 -308 -94 -345 -20 -55 -110 -263 -134 -310 l-20
-38 -26 34 c-14 19 -53 68 -85 110 -33 41 -65 86 -72 100 -32 61 -79 86 -108
57 -33 -33 -6 -87 152 -293 l88 -116 -17 -46 c-35 -92 -192 -343 -279 -447
-23 -26 -60 -61 -83 -77 -46 -32 -59 -58 -44 -88 20 -36 48 -35 105 4 84 58
217 235 343 457 l49 87 66 -87 c133 -175 386 -410 529 -491 64 -36 191 -82
231 -83 34 -1 58 18 58 47 0 30 -15 41 -96 69 -116 40 -156 61 -239 124 -101
76 -348 319 -398 392 -21 30 -51 73 -67 94 -17 21 -30 44 -30 51 0 7 31 81 68
166 99 223 116 268 158 424 53 203 74 304 67 337 -4 23 -2 28 13 28 21 0 159
24 272 47 77 15 99 35 87 74 -11 33 -41 36 -154 17 -58 -10 -160 -24 -226 -32
-66 -8 -140 -19 -165 -25 -81 -18 -278 -51 -305 -51 -26 0 -27 2 -22 38 4 20
12 87 18 148 12 101 11 114 -4 138 -22 33 -60 34 -81 4z"/>
</g>
</svg>
