<?xml version="1.0" standalone="no"?>
<!DOCTYPE svg PUBLIC "-//W3C//DTD SVG 20010904//EN"
 "http://www.w3.org/TR/2001/REC-SVG-20010904/DTD/svg10.dtd">
<svg version="1.0" xmlns="http://www.w3.org/2000/svg"
 width="248.000000pt" height="248.000000pt" viewBox="0 0 248.000000 248.000000"
 preserveAspectRatio="xMidYMid meet">
<metadata>
Created by potrace 1.10, written by Peter Selinger 2001-2011
</metadata>
<g transform="translate(0.000000,248.000000) scale(0.100000,-0.100000)"
fill="#000000" stroke="none">
<path d="M1945 2203 c-324 -15 -683 -50 -714 -70 -23 -15 -23 -18 -17 -107 11
-145 26 -248 43 -279 14 -28 16 -29 66 -22 51 7 127 12 487 34 232 14 247 17
264 44 27 44 71 300 60 350 -7 31 -55 59 -96 55 -13 -1 -54 -3 -93 -5z m79
-155 c-3 -29 -12 -78 -18 -108 l-13 -55 -49 -7 c-27 -3 -81 -7 -121 -7 -39 -1
-105 -5 -145 -10 -40 -5 -132 -12 -205 -16 -153 -7 -137 -20 -148 121 l-6 81
83 7 c46 3 121 11 168 17 47 5 157 14 245 18 88 4 173 9 188 10 l28 1 -7 -52z"/>
</g>
</svg>
