<?xml version="1.0" standalone="no"?>
<!DOCTYPE svg PUBLIC "-//W3C//DTD SVG 20010904//EN"
 "http://www.w3.org/TR/2001/REC-SVG-20010904/DTD/svg10.dtd">
<svg version="1.0" xmlns="http://www.w3.org/2000/svg"
 width="248.000000pt" height="248.000000pt" viewBox="0 0 248.000000 248.000000"
 preserveAspectRatio="xMidYMid meet">
<metadata>
Created by potrace 1.10, written by Peter Selinger 2001-2011
</metadata>
<g transform="translate(0.000000,248.000000) scale(0.100000,-0.100000)"
fill="#000000" stroke="none">
<path d="M1626 2398 c-12 -17 -16 -48 -16 -120 l0 -97 -52 -5 c-29 -3 -107
-11 -173 -17 -66 -6 -131 -16 -145 -23 -24 -11 -25 -15 -23 -101 3 -118 22
-253 40 -289 14 -26 18 -28 56 -22 23 4 99 9 170 13 l127 6 0 -45 0 -45 -157
-11 c-87 -6 -205 -14 -263 -17 -195 -11 -264 -33 -258 -83 4 -36 43 -54 89
-43 34 9 176 20 634 46 132 8 303 21 380 29 77 9 163 16 190 16 69 0 100 18
100 55 0 23 -7 33 -29 44 -26 12 -54 11 -210 -4 -100 -10 -223 -20 -273 -22
l-93 -5 0 49 0 50 165 9 c130 7 168 13 181 25 30 30 82 309 68 364 -10 39 -58
56 -141 50 -38 -2 -114 -7 -170 -10 l-103 -5 0 93 c0 103 -14 137 -55 137 -13
0 -31 -10 -39 -22z m397 -355 c-3 -32 -11 -80 -17 -108 l-11 -50 -50 -7 c-28
-3 -89 -7 -137 -7 l-88 -1 0 105 c0 58 1 106 3 106 1 1 61 5 132 8 72 4 140 8
153 9 21 2 22 0 15 -55z m-413 -78 l0 -115 -58 0 c-33 0 -93 -3 -135 -6 -88
-8 -82 -17 -92 123 l-6 81 98 7 c54 3 116 10 138 15 22 4 43 8 48 9 4 1 7 -51
7 -114z"/>
<path d="M392 2008 c-17 -17 -15 -53 6 -70 9 -9 49 -32 87 -52 39 -20 89 -52
113 -71 24 -19 50 -35 58 -35 17 0 54 35 54 52 0 25 -107 114 -182 151 -80 39
-116 45 -136 25z"/>
<path d="M1760 1495 c-69 -7 -189 -19 -268 -26 -84 -7 -146 -17 -152 -24 -6
-7 -12 -141 -15 -333 -2 -176 -7 -332 -11 -346 -4 -19 0 -31 19 -50 23 -23 32
-25 71 -20 l45 7 -30 -60 c-35 -70 -64 -100 -151 -157 -65 -42 -82 -72 -58
-102 40 -47 195 46 276 165 44 65 50 101 24 134 l-21 27 38 1 c21 0 130 4 242
8 167 7 206 12 220 25 17 18 28 199 30 524 1 177 -8 213 -59 231 -38 13 -33
13 -200 -4z m150 -161 c0 -66 0 -66 -25 -60 -14 4 -65 2 -113 -4 -48 -6 -127
-15 -177 -20 -49 -6 -105 -13 -122 -16 l-33 -5 0 64 0 63 133 13 c72 7 164 16
202 21 39 4 85 8 103 9 l32 1 0 -66z m0 -213 c0 -69 -3 -70 -115 -71 -38 -1
-104 -5 -145 -10 -41 -6 -108 -13 -149 -17 l-74 -6 6 33 c4 18 7 43 7 55 0 21
6 23 123 35 67 7 167 18 222 25 55 7 106 13 113 14 8 1 12 -17 12 -58z m-10
-229 l0 -59 -172 -6 c-95 -4 -201 -10 -235 -13 l-63 -7 0 50 0 49 103 14 c56
7 154 16 217 20 63 4 123 8 133 8 14 2 17 -7 17 -56z"/>
<path d="M585 1364 c-111 -65 -252 -134 -273 -134 -50 0 -81 -62 -46 -91 31
-25 85 -13 202 45 123 61 124 60 82 -24 -25 -50 -41 -137 -34 -178 5 -26 25
-55 68 -99 l61 -63 -40 -33 c-60 -50 -353 -245 -492 -327 -54 -32 -41 -90 20
-90 32 0 51 8 122 55 28 18 118 77 200 130 83 54 189 130 238 168 115 92 115
99 6 197 l-81 74 5 46 c3 25 33 104 67 177 57 123 60 134 48 160 -21 45 -59
41 -153 -13z"/>
<path d="M1782 678 c-22 -22 -12 -49 45 -121 99 -125 163 -187 193 -187 33 0
50 17 50 49 0 17 -22 48 -67 97 -38 39 -87 95 -111 123 -45 53 -83 66 -110 39z"/>
</g>
</svg>
