<?xml version="1.0" standalone="no"?>
<!DOCTYPE svg PUBLIC "-//W3C//DTD SVG 20010904//EN"
 "http://www.w3.org/TR/2001/REC-SVG-20010904/DTD/svg10.dtd">
<svg version="1.0" xmlns="http://www.w3.org/2000/svg"
 width="248.000000pt" height="248.000000pt" viewBox="0 0 248.000000 248.000000"
 preserveAspectRatio="xMidYMid meet">
<metadata>
Created by potrace 1.10, written by Peter Selinger 2001-2011
</metadata>
<g transform="translate(0.000000,248.000000) scale(0.100000,-0.100000)"
fill="#000000" stroke="none">
<path d="M1629 2404 c-9 -12 -15 -50 -17 -120 l-4 -102 -46 -6 c-26 -3 -105
-10 -177 -17 -82 -7 -139 -16 -154 -26 -23 -15 -23 -18 -17 -107 11 -145 26
-248 43 -279 14 -27 18 -29 56 -23 23 4 99 9 170 13 l127 6 0 -47 c0 -43 -1
-46 -27 -46 -87 -1 -564 -41 -594 -50 -45 -13 -62 -31 -57 -62 4 -32 45 -50
89 -39 34 9 176 20 634 46 132 8 303 21 380 29 77 9 163 16 190 16 69 0 100
18 100 55 0 23 -7 33 -29 44 -26 12 -54 11 -210 -4 -100 -10 -223 -20 -273
-22 l-93 -5 0 49 0 50 165 9 c130 7 168 13 181 25 18 19 47 135 64 256 21 156
8 166 -225 153 -88 -5 -166 -9 -172 -10 -10 0 -13 24 -13 88 0 50 -6 98 -13
112 -15 31 -58 38 -78 14z m395 -356 c-3 -29 -12 -78 -18 -108 l-13 -55 -49
-7 c-27 -3 -88 -7 -136 -7 l-88 -1 0 105 c0 58 3 106 8 106 4 1 61 5 127 9 66
3 133 7 148 8 l28 2 -7 -52z m-416 -193 c-2 -1 -62 -5 -135 -9 -153 -8 -137
-21 -148 121 l-6 81 98 7 c54 4 118 10 143 14 l45 6 3 -109 c1 -60 1 -110 0
-111z"/>
<path d="M1760 1494 c-69 -7 -188 -18 -265 -24 -77 -7 -146 -17 -153 -24 -9
-9 -13 -95 -17 -339 -2 -181 -7 -332 -10 -337 -11 -17 7 -58 30 -68 15 -7 45
-8 91 -1 38 5 174 13 302 18 197 7 236 11 250 25 14 14 18 48 23 194 11 277
10 464 -2 504 -7 26 -19 43 -39 53 -33 17 -40 17 -210 -1z m150 -160 l0 -66
-27 6 c-16 3 -120 -5 -233 -18 -113 -13 -206 -23 -207 -22 -1 0 -3 28 -4 61
l-3 60 75 8 c206 22 337 35 367 36 l32 1 0 -66z m0 -213 c0 -69 -3 -70 -115
-71 -38 -1 -104 -5 -145 -10 -41 -6 -108 -13 -149 -17 l-74 -6 6 33 c4 18 7
42 7 55 0 20 7 22 113 34 138 14 274 30 307 35 14 2 31 4 38 5 8 1 12 -17 12
-58z m-10 -229 l0 -59 -182 -7 c-101 -3 -207 -9 -235 -12 l-53 -7 0 50 0 49
103 14 c56 7 154 16 217 20 63 4 123 8 133 8 14 2 17 -7 17 -56z"/>
</g>
</svg>
