<?xml version="1.0" standalone="no"?>
<!DOCTYPE svg PUBLIC "-//W3C//DTD SVG 20010904//EN"
 "http://www.w3.org/TR/2001/REC-SVG-20010904/DTD/svg10.dtd">
<svg version="1.0" xmlns="http://www.w3.org/2000/svg"
 width="248.000000pt" height="248.000000pt" viewBox="0 0 248.000000 248.000000"
 preserveAspectRatio="xMidYMid meet">
<metadata>
Created by potrace 1.10, written by Peter Selinger 2001-2011
</metadata>
<g transform="translate(0.000000,248.000000) scale(0.100000,-0.100000)"
fill="#000000" stroke="none">
<path d="M1629 2404 c-9 -12 -15 -50 -17 -120 l-4 -102 -46 -6 c-26 -3 -105
-10 -177 -17 -82 -7 -139 -16 -154 -26 -23 -15 -23 -18 -17 -107 11 -145 26
-248 43 -279 14 -27 18 -29 56 -23 23 4 99 9 170 13 l127 6 0 -47 c0 -43 -1
-46 -27 -46 -87 -1 -564 -41 -594 -50 -45 -13 -62 -31 -57 -62 4 -32 45 -50
89 -39 34 9 176 20 634 46 132 8 303 21 380 29 77 9 163 16 190 16 69 0 100
18 100 55 0 23 -7 33 -29 44 -26 12 -54 11 -210 -4 -100 -10 -223 -20 -273
-22 l-93 -5 0 49 0 50 165 9 c130 7 168 13 181 25 18 19 47 135 64 256 21 156
8 166 -225 153 -88 -5 -166 -9 -172 -10 -10 0 -13 24 -13 88 0 50 -6 98 -13
112 -15 31 -58 38 -78 14z m395 -356 c-3 -29 -12 -78 -18 -108 l-13 -55 -49
-7 c-27 -3 -88 -7 -136 -7 l-88 -1 0 105 c0 58 3 106 8 106 4 1 61 5 127 9 66
3 133 7 148 8 l28 2 -7 -52z m-416 -193 c-2 -1 -62 -5 -135 -9 -153 -8 -137
-21 -148 121 l-6 81 98 7 c54 4 118 10 143 14 l45 6 3 -109 c1 -60 1 -110 0
-111z"/>
</g>
</svg>
