<?xml version="1.0" standalone="no"?>
<!DOCTYPE svg PUBLIC "-//W3C//DTD SVG 20010904//EN"
 "http://www.w3.org/TR/2001/REC-SVG-20010904/DTD/svg10.dtd">
<svg version="1.0" xmlns="http://www.w3.org/2000/svg"
 width="248.000000pt" height="248.000000pt" viewBox="0 0 248.000000 248.000000"
 preserveAspectRatio="xMidYMid meet">
<metadata>
Created by potrace 1.10, written by Peter Selinger 2001-2011
</metadata>
<g transform="translate(0.000000,248.000000) scale(0.100000,-0.100000)"
fill="#000000" stroke="none">
<path d="M1152 2398 c-8 -8 -12 -51 -12 -129 l0 -116 -87 -12 c-49 -6 -142
-16 -208 -22 -348 -29 -404 -36 -419 -48 -14 -12 -15 -34 -10 -177 10 -229
-20 -599 -72 -909 -8 -49 -21 -126 -29 -170 -26 -153 -79 -330 -137 -452 -42
-89 -28 -135 35 -119 20 5 34 23 61 80 100 211 153 450 226 1031 19 149 33
420 26 520 l-7 104 33 5 c37 5 207 23 308 31 36 3 106 10 155 15 159 18 433
41 697 59 277 19 298 25 298 76 0 48 -15 50 -238 36 -114 -6 -272 -19 -352
-27 -80 -7 -150 -14 -156 -14 -8 0 -13 35 -16 104 -3 85 -7 108 -22 125 -21
23 -56 27 -74 9z"/>
<path d="M1779 1609 c-20 -4 -106 -15 -190 -23 -211 -21 -394 -43 -519 -61
-58 -8 -143 -19 -190 -25 -47 -5 -109 -14 -139 -20 -29 -5 -70 -10 -90 -10
-21 0 -42 -5 -49 -12 -18 -18 -15 -53 7 -72 29 -26 56 -25 326 16 39 5 102 14
140 18 39 5 126 16 195 24 69 9 199 22 290 31 91 8 184 20 207 25 23 6 57 10
75 10 68 0 104 61 56 94 -24 17 -62 19 -119 5z"/>
</g>
</svg>
