<?xml version="1.0" standalone="no"?>
<!DOCTYPE svg PUBLIC "-//W3C//DTD SVG 20010904//EN"
 "http://www.w3.org/TR/2001/REC-SVG-20010904/DTD/svg10.dtd">
<svg version="1.0" xmlns="http://www.w3.org/2000/svg"
 width="248.000000pt" height="248.000000pt" viewBox="0 0 248.000000 248.000000"
 preserveAspectRatio="xMidYMid meet">
<metadata>
Created by potrace 1.10, written by Peter Selinger 2001-2011
</metadata>
<g transform="translate(0.000000,248.000000) scale(0.100000,-0.100000)"
fill="#000000" stroke="none">
<path d="M1152 2398 c-8 -8 -12 -51 -12 -129 l0 -116 -87 -12 c-49 -6 -142
-16 -208 -22 -312 -26 -394 -35 -409 -48 -24 -20 -20 -58 10 -77 23 -16 37
-16 142 -5 64 7 167 16 227 21 61 5 151 14 200 20 150 17 425 41 697 59 277
19 298 25 298 76 0 48 -15 50 -238 36 -114 -6 -272 -19 -352 -27 -80 -7 -150
-14 -156 -14 -8 0 -13 35 -16 104 -3 85 -7 108 -22 125 -21 23 -56 27 -74 9z"/>
</g>
</svg>
