<?xml version="1.0" standalone="no"?>
<!DOCTYPE svg PUBLIC "-//W3C//DTD SVG 20010904//EN"
 "http://www.w3.org/TR/2001/REC-SVG-20010904/DTD/svg10.dtd">
<svg version="1.0" xmlns="http://www.w3.org/2000/svg"
 width="248.000000pt" height="248.000000pt" viewBox="0 0 248.000000 248.000000"
 preserveAspectRatio="xMidYMid meet">
<metadata>
Created by potrace 1.10, written by Peter Selinger 2001-2011
</metadata>
<g transform="translate(0.000000,248.000000) scale(0.100000,-0.100000)"
fill="#000000" stroke="none">
<path d="M1152 2398 c-8 -8 -12 -51 -12 -129 l0 -116 -87 -12 c-49 -6 -142
-16 -208 -22 -348 -29 -404 -36 -419 -48 -14 -12 -15 -34 -10 -177 10 -229
-20 -599 -72 -909 -8 -49 -21 -126 -29 -170 -26 -153 -79 -330 -137 -452 -42
-89 -28 -135 35 -119 20 5 34 23 61 80 100 211 153 450 226 1031 19 149 33
420 26 520 l-7 104 33 5 c37 5 207 23 308 31 36 3 106 10 155 15 159 18 433
41 697 59 277 19 298 25 298 76 0 48 -15 50 -238 36 -114 -6 -272 -19 -352
-27 -80 -7 -150 -14 -156 -14 -8 0 -13 35 -16 104 -3 85 -7 108 -22 125 -21
23 -56 27 -74 9z"/>
<path d="M1199 1954 c-15 -19 -18 -54 -19 -266 l0 -147 -32 -5 c-18 -3 -87
-12 -153 -21 -66 -9 -164 -22 -217 -30 -53 -8 -112 -15 -131 -15 -86 0 -72
-99 14 -102 19 0 73 4 119 11 47 7 130 18 185 26 55 8 125 17 155 20 l55 6 -3
-626 c-4 -572 -3 -627 12 -651 13 -18 24 -24 44 -22 51 6 52 13 52 549 0 273
3 556 6 631 l7 134 96 12 c53 7 152 17 221 23 69 6 141 15 160 20 19 5 51 9
70 9 73 0 107 62 54 97 -23 15 -34 15 -100 4 -69 -11 -257 -32 -431 -48 l-73
-6 0 179 c0 124 -4 187 -13 204 -15 30 -58 38 -78 14z"/>
</g>
</svg>
