<?xml version="1.0" standalone="no"?>
<!DOCTYPE svg PUBLIC "-//W3C//DTD SVG 20010904//EN"
 "http://www.w3.org/TR/2001/REC-SVG-20010904/DTD/svg10.dtd">
<svg version="1.0" xmlns="http://www.w3.org/2000/svg"
 width="248.000000pt" height="248.000000pt" viewBox="0 0 248.000000 248.000000"
 preserveAspectRatio="xMidYMid meet">
<metadata>
Created by potrace 1.10, written by Peter Selinger 2001-2011
</metadata>
<g transform="translate(0.000000,248.000000) scale(0.100000,-0.100000)"
fill="#000000" stroke="none">
<path d="M1152 2398 c-8 -8 -12 -51 -12 -129 l0 -116 -87 -12 c-49 -6 -142
-16 -208 -22 -348 -29 -404 -36 -419 -48 -14 -12 -15 -34 -10 -177 10 -229
-20 -599 -72 -909 -8 -49 -21 -126 -29 -170 -26 -153 -79 -330 -137 -452 -42
-89 -28 -135 35 -119 20 5 34 23 61 80 100 211 153 450 226 1031 19 149 33
420 26 520 l-7 104 33 5 c37 5 207 23 308 31 36 3 106 10 155 15 159 18 433
41 697 59 277 19 298 25 298 76 0 48 -15 50 -238 36 -114 -6 -272 -19 -352
-27 -80 -7 -150 -14 -156 -14 -8 0 -13 35 -16 104 -3 85 -7 108 -22 125 -21
23 -56 27 -74 9z"/>
<path d="M1199 1954 c-11 -13 -15 -62 -17 -213 -2 -108 -5 -197 -7 -199 -3 -4
-159 -25 -300 -42 -44 -5 -104 -14 -134 -20 -29 -5 -70 -10 -90 -10 -42 0 -61
-14 -61 -45 0 -53 50 -66 185 -47 118 17 295 41 333 45 17 2 32 -1 32 -6 0
-21 -91 -196 -124 -237 -81 -103 -160 -209 -201 -271 -24 -36 -63 -87 -87
-115 -24 -27 -73 -85 -108 -129 -35 -44 -76 -92 -92 -107 -44 -42 -34 -98 18
-98 30 0 72 37 146 129 34 42 82 99 107 126 24 28 61 75 81 107 20 31 60 85
89 121 54 69 94 124 161 221 l40 59 0 -524 c0 -464 2 -527 16 -547 21 -31 64
-26 81 8 10 19 13 151 13 565 0 297 4 546 8 553 6 8 27 -11 68 -65 32 -42 73
-93 90 -112 17 -20 49 -61 71 -91 77 -106 166 -206 316 -358 182 -184 198
-198 263 -240 73 -46 124 -40 124 14 0 21 -47 66 -95 92 -23 12 -349 339 -416
417 -23 28 -73 91 -111 140 -37 50 -87 113 -109 140 -22 28 -71 91 -109 140
l-69 90 37 7 c20 4 114 14 207 23 94 8 189 20 212 25 23 6 57 10 75 10 71 0
105 62 52 97 -23 15 -34 15 -100 4 -69 -11 -257 -32 -431 -48 l-73 -6 0 179
c0 124 -4 187 -13 204 -15 31 -58 38 -78 14z"/>
</g>
</svg>
