<?xml version="1.0" standalone="no"?>
<!DOCTYPE svg PUBLIC "-//W3C//DTD SVG 20010904//EN"
 "http://www.w3.org/TR/2001/REC-SVG-20010904/DTD/svg10.dtd">
<svg version="1.0" xmlns="http://www.w3.org/2000/svg"
 width="248.000000pt" height="248.000000pt" viewBox="0 0 248.000000 248.000000"
 preserveAspectRatio="xMidYMid meet">
<metadata>
Created by potrace 1.10, written by Peter Selinger 2001-2011
</metadata>
<g transform="translate(0.000000,248.000000) scale(0.100000,-0.100000)"
fill="#000000" stroke="none">
<path d="M1667 2393 c-8 -10 -29 -47 -46 -82 -17 -35 -36 -68 -43 -72 -7 -5
-47 -9 -88 -9 -41 0 -142 -6 -225 -14 -82 -8 -200 -18 -260 -21 l-110 -7 -11
71 c-14 83 -35 121 -68 121 -44 0 -51 -22 -37 -110 7 -43 10 -83 6 -89 -3 -6
-30 -11 -60 -11 -85 0 -258 -20 -272 -32 -18 -14 -16 -53 2 -68 12 -10 52 -11
183 -3 192 11 184 13 203 -76 13 -64 32 -91 64 -91 37 0 48 23 40 82 -4 29
-11 63 -16 76 -6 16 -5 24 4 27 35 12 597 51 597 41 0 -3 -16 -38 -35 -76 -37
-74 -42 -99 -23 -118 20 -20 55 -13 80 16 12 15 39 62 58 105 19 42 42 79 51
82 9 3 104 9 212 14 207 8 227 13 227 56 0 44 -16 47 -209 39 -137 -5 -181 -4
-181 5 0 6 9 29 20 51 23 44 26 80 8 98 -17 17 -52 15 -71 -5z"/>
<path d="M1967 1924 c-4 -4 -159 -11 -344 -15 -328 -8 -425 -16 -773 -60 -91
-11 -209 -23 -263 -26 -87 -5 -100 -8 -112 -27 -11 -17 -12 -30 -5 -57 11 -35
49 -228 57 -289 8 -56 20 -63 83 -56 161 19 803 62 1073 73 l168 6 30 35 c52
59 159 304 159 364 0 36 -52 73 -73 52z m-52 -114 c8 -13 -86 -210 -110 -230
-14 -12 -60 -16 -204 -21 -102 -3 -187 -5 -188 -5 0 1 13 57 31 126 l31 125
80 6 c145 10 354 9 360 -1z m-549 -27 c-3 -10 -13 -49 -22 -88 -10 -38 -25
-89 -35 -111 l-17 -41 -129 -5 c-70 -3 -131 -3 -135 1 -3 3 -10 55 -15 115 -7
83 -6 109 4 113 20 8 233 31 296 32 51 1 58 -1 53 -16z m-463 -48 c4 -8 9 -49
12 -92 3 -43 8 -88 11 -100 5 -26 -12 -29 -191 -39 l-120 -6 -13 89 c-7 48
-13 97 -15 108 -2 21 9 24 158 43 111 15 152 14 158 -3z"/>
<path d="M1495 1379 c-412 -25 -589 -41 -830 -79 -305 -47 -347 -51 -366 -34
-20 18 -53 18 -68 0 -6 -7 -16 -44 -21 -82 -5 -38 -15 -102 -22 -143 -11 -68
-11 -74 7 -87 48 -35 77 -5 96 99 7 38 17 75 23 83 7 9 52 20 131 30 66 8 203
28 305 44 224 35 485 57 970 81 252 13 495 8 512 -9 13 -13 -69 -82 -148 -123
-65 -33 -80 -53 -69 -89 11 -36 48 -35 122 4 85 45 157 103 206 168 58 78 47
111 -48 134 -68 15 -552 17 -800 3z"/>
<path d="M1044 1144 c-7 -3 -39 -42 -73 -87 -67 -90 -194 -213 -313 -301 -57
-42 -78 -63 -78 -79 0 -31 18 -47 51 -47 55 0 318 223 404 343 22 30 50 58 63
62 36 9 362 4 362 -6 0 -17 -35 -96 -73 -164 -158 -280 -503 -604 -752 -707
-38 -16 -80 -36 -92 -44 -40 -25 -25 -84 22 -84 24 0 109 31 176 66 206 104
483 353 640 574 87 124 209 362 209 409 0 51 -12 53 -252 55 -123 2 -236 5
-253 9 -16 3 -35 4 -41 1z"/>
</g>
</svg>
