<?xml version="1.0" standalone="no"?>
<!DOCTYPE svg PUBLIC "-//W3C//DTD SVG 20010904//EN"
 "http://www.w3.org/TR/2001/REC-SVG-20010904/DTD/svg10.dtd">
<svg version="1.0" xmlns="http://www.w3.org/2000/svg"
 width="248.000000pt" height="248.000000pt" viewBox="0 0 248.000000 248.000000"
 preserveAspectRatio="xMidYMid meet">
<metadata>
Created by potrace 1.10, written by Peter Selinger 2001-2011
</metadata>
<g transform="translate(0.000000,248.000000) scale(0.100000,-0.100000)"
fill="#000000" stroke="none">
<path d="M1667 2393 c-8 -10 -29 -47 -46 -82 -17 -35 -36 -68 -43 -72 -7 -5
-47 -9 -88 -9 -41 0 -142 -6 -225 -14 -82 -8 -200 -18 -260 -21 l-110 -7 -11
71 c-14 83 -35 121 -68 121 -44 0 -51 -22 -37 -110 7 -43 10 -83 6 -89 -3 -6
-30 -11 -60 -11 -85 0 -258 -20 -272 -32 -18 -14 -16 -53 2 -68 12 -10 52 -11
183 -3 192 11 184 13 203 -76 13 -64 32 -91 64 -91 37 0 48 23 40 82 -4 29
-11 63 -16 76 -6 16 -5 24 4 27 35 12 597 51 597 41 0 -3 -16 -38 -35 -76 -37
-74 -42 -99 -23 -118 20 -20 55 -13 80 16 12 15 39 62 58 105 19 42 42 79 51
82 9 3 104 9 212 14 207 8 227 13 227 56 0 44 -16 47 -209 39 -137 -5 -181 -4
-181 5 0 6 9 29 20 51 23 44 26 80 8 98 -17 17 -52 15 -71 -5z"/>
<path d="M1967 1924 c-4 -4 -159 -11 -344 -15 -328 -8 -425 -16 -773 -60 -91
-11 -209 -23 -263 -26 -87 -5 -100 -8 -112 -27 -11 -17 -12 -30 -5 -57 6 -18
19 -83 30 -143 21 -117 30 -136 64 -136 49 0 57 46 32 175 -8 39 -11 73 -7 77
6 7 101 20 248 35 73 7 69 14 82 -134 9 -99 20 -123 56 -123 43 0 49 20 39
151 -5 67 -6 123 -2 125 15 9 289 34 488 44 272 13 407 13 415 0 9 -14 -79
-196 -115 -236 -33 -38 -35 -46 -20 -75 14 -25 54 -25 91 2 46 32 169 303 169
371 0 36 -52 73 -73 52z"/>
</g>
</svg>
