<?xml version="1.0" standalone="no"?>
<!DOCTYPE svg PUBLIC "-//W3C//DTD SVG 20010904//EN"
 "http://www.w3.org/TR/2001/REC-SVG-20010904/DTD/svg10.dtd">
<svg version="1.0" xmlns="http://www.w3.org/2000/svg"
 width="248.000000pt" height="248.000000pt" viewBox="0 0 248.000000 248.000000"
 preserveAspectRatio="xMidYMid meet">
<metadata>
Created by potrace 1.10, written by Peter Selinger 2001-2011
</metadata>
<g transform="translate(0.000000,248.000000) scale(0.100000,-0.100000)"
fill="#000000" stroke="none">
<path d="M780 2364 c-11 -12 -11 -30 -1 -94 7 -43 10 -83 6 -89 -3 -6 -30 -11
-60 -11 -85 0 -258 -20 -272 -32 -18 -14 -16 -53 2 -68 12 -10 52 -11 183 -3
192 11 184 13 203 -76 13 -64 32 -91 64 -91 37 0 48 23 40 82 -4 29 -11 63
-16 76 -6 16 -5 24 4 27 6 2 102 11 212 20 110 8 220 17 245 20 25 2 155 9
290 15 359 15 390 17 406 30 18 16 18 54 0 69 -17 14 -594 -2 -826 -24 -85 -8
-202 -17 -260 -21 l-105 -6 -11 71 c-7 39 -19 82 -28 96 -19 29 -57 33 -76 9z"/>
</g>
</svg>
