<?xml version="1.0" standalone="no"?>
<!DOCTYPE svg PUBLIC "-//W3C//DTD SVG 20010904//EN"
 "http://www.w3.org/TR/2001/REC-SVG-20010904/DTD/svg10.dtd">
<svg version="1.0" xmlns="http://www.w3.org/2000/svg"
 width="248.000000pt" height="248.000000pt" viewBox="0 0 248.000000 248.000000"
 preserveAspectRatio="xMidYMid meet">
<metadata>
Created by potrace 1.10, written by Peter Selinger 2001-2011
</metadata>
<g transform="translate(0.000000,248.000000) scale(0.100000,-0.100000)"
fill="#000000" stroke="none">
<path d="M1682 2239 c-134 -4 -325 -15 -425 -23 -174 -16 -382 -33 -661 -56
-71 -6 -135 -15 -143 -21 -18 -15 -17 -54 2 -69 16 -13 166 -9 405 11 63 5
196 16 295 24 99 8 205 17 235 20 30 2 161 9 290 15 370 16 390 17 405 30 18
15 19 52 3 68 -13 13 -26 13 -406 1z"/>
</g>
</svg>
