<?xml version="1.0" standalone="no"?>
<!DOCTYPE svg PUBLIC "-//W3C//DTD SVG 20010904//EN"
 "http://www.w3.org/TR/2001/REC-SVG-20010904/DTD/svg10.dtd">
<svg version="1.0" xmlns="http://www.w3.org/2000/svg"
 width="248.000000pt" height="248.000000pt" viewBox="0 0 248.000000 248.000000"
 preserveAspectRatio="xMidYMid meet">
<metadata>
Created by potrace 1.10, written by Peter Selinger 2001-2011
</metadata>
<g transform="translate(0.000000,248.000000) scale(0.100000,-0.100000)"
fill="#000000" stroke="none">
<path d="M1730 2299 c-36 -4 -112 -11 -170 -14 -58 -4 -170 -13 -250 -21 -80
-9 -203 -19 -275 -24 -186 -12 -366 -38 -387 -57 -21 -19 -23 -54 -6 -71 15
-15 76 -15 152 -1 31 5 116 14 189 19 73 4 202 15 287 23 284 28 561 49 567
43 4 -3 -1 -32 -11 -63 -9 -32 -24 -83 -32 -113 -24 -83 -85 -231 -98 -235
-24 -6 -288 -35 -421 -45 -77 -6 -212 -19 -300 -30 -88 -10 -205 -23 -259 -28
-120 -11 -134 -23 -161 -134 -10 -40 -35 -120 -57 -177 -66 -175 -51 -198 122
-176 58 8 164 19 235 25 141 13 193 18 480 49 105 11 268 23 363 27 165 7 172
6 172 -12 0 -33 -69 -274 -105 -369 -19 -49 -51 -135 -71 -190 -56 -157 -111
-260 -201 -377 -37 -49 -111 -118 -127 -118 -11 0 -131 93 -181 141 -57 54
-83 65 -109 46 -29 -21 -23 -64 15 -103 58 -60 218 -176 253 -184 95 -21 239
124 374 376 35 66 169 435 214 589 47 162 55 262 25 292 -16 16 -37 18 -195
16 -160 -2 -380 -18 -567 -43 -38 -5 -106 -12 -149 -15 -44 -3 -83 -8 -87 -11
-5 -3 -73 -9 -151 -14 -79 -5 -162 -12 -186 -16 l-43 -7 17 39 c9 21 29 80 43
131 15 51 30 95 34 99 4 4 82 15 175 25 92 10 225 25 297 33 71 9 159 16 195
16 36 0 117 6 180 15 63 8 144 18 180 22 l65 8 37 75 c66 132 137 353 145 452
l6 68 -36 15 c-39 16 -83 17 -187 4z"/>
</g>
</svg>
