<?xml version="1.0" standalone="no"?>
<!DOCTYPE svg PUBLIC "-//W3C//DTD SVG 20010904//EN"
 "http://www.w3.org/TR/2001/REC-SVG-20010904/DTD/svg10.dtd">
<svg version="1.0" xmlns="http://www.w3.org/2000/svg"
 width="248.000000pt" height="248.000000pt" viewBox="0 0 248.000000 248.000000"
 preserveAspectRatio="xMidYMid meet">
<metadata>
Created by potrace 1.10, written by Peter Selinger 2001-2011
</metadata>
<g transform="translate(0.000000,248.000000) scale(0.100000,-0.100000)"
fill="#000000" stroke="none">
<path d="M890 2330 c-36 -22 -92 -58 -125 -80 -33 -23 -115 -77 -182 -121 -69
-45 -125 -88 -128 -100 -8 -25 20 -59 49 -59 23 0 101 46 256 152 52 35 118
77 145 93 81 45 125 84 125 109 0 57 -51 60 -140 6z"/>
<path d="M1040 1966 c-173 -35 -492 -93 -610 -112 -58 -9 -115 -23 -127 -31
-33 -20 -30 -60 6 -80 25 -15 29 -24 35 -82 3 -37 6 -89 6 -118 0 -59 12 -53
-138 -72 -83 -11 -104 -23 -100 -60 5 -42 40 -52 143 -40 48 5 89 8 90 7 1 -2
5 -67 7 -145 5 -128 4 -143 -11 -143 -32 0 -62 -30 -59 -58 5 -46 34 -51 210
-36 87 7 161 15 166 18 4 2 138 23 297 46 158 22 299 43 312 46 47 12 54 76
10 93 -12 5 -44 5 -72 0 -27 -4 -60 -8 -72 -8 l-22 -1 6 148 c3 81 8 150 12
154 3 3 59 11 124 16 65 6 124 16 132 22 8 7 15 25 15 40 0 47 -19 54 -127 46
-54 -4 -107 -9 -119 -12 -19 -5 -21 0 -27 63 -4 37 -7 101 -7 141 l0 72 43 0
c51 0 87 22 87 55 0 29 -34 55 -70 54 -14 0 -77 -11 -140 -23z m-25 -247 c4
-71 5 -132 3 -134 -3 -3 -112 -18 -244 -35 -131 -16 -254 -34 -273 -40 -19 -5
-35 -9 -36 -7 -3 3 -23 242 -21 244 3 4 520 99 552 102 8 1 14 -42 19 -130z
m-7 -398 l-3 -150 -85 -11 c-47 -6 -139 -20 -205 -30 -66 -10 -148 -21 -181
-25 -75 -7 -74 -11 -74 166 l0 126 93 16 c137 24 355 52 430 56 l29 1 -4 -149z"/>
</g>
</svg>
