<?xml version="1.0" standalone="no"?>
<!DOCTYPE svg PUBLIC "-//W3C//DTD SVG 20010904//EN"
 "http://www.w3.org/TR/2001/REC-SVG-20010904/DTD/svg10.dtd">
<svg version="1.0" xmlns="http://www.w3.org/2000/svg"
 width="248.000000pt" height="248.000000pt" viewBox="0 0 248.000000 248.000000"
 preserveAspectRatio="xMidYMid meet">
<metadata>
Created by potrace 1.10, written by Peter Selinger 2001-2011
</metadata>
<g transform="translate(0.000000,248.000000) scale(0.100000,-0.100000)"
fill="#000000" stroke="none">
<path d="M890 2330 c-36 -22 -92 -58 -125 -80 -33 -23 -115 -77 -182 -121 -69
-45 -125 -88 -128 -100 -8 -25 20 -59 49 -59 23 0 101 46 256 152 52 35 118
77 145 93 81 45 125 84 125 109 0 57 -51 60 -140 6z"/>
<path d="M1040 1966 c-173 -35 -492 -93 -610 -112 -58 -9 -115 -23 -127 -31
-30 -18 -30 -58 0 -78 21 -13 39 -12 198 15 208 36 407 73 544 100 55 11 114
20 130 20 40 0 75 25 75 55 0 29 -34 55 -70 54 -14 0 -77 -11 -140 -23z"/>
</g>
</svg>
