<?xml version="1.0" standalone="no"?>
<!DOCTYPE svg PUBLIC "-//W3C//DTD SVG 20010904//EN"
 "http://www.w3.org/TR/2001/REC-SVG-20010904/DTD/svg10.dtd">
<svg version="1.0" xmlns="http://www.w3.org/2000/svg"
 width="248.000000pt" height="248.000000pt" viewBox="0 0 248.000000 248.000000"
 preserveAspectRatio="xMidYMid meet">
<metadata>
Created by potrace 1.10, written by Peter Selinger 2001-2011
</metadata>
<g transform="translate(0.000000,248.000000) scale(0.100000,-0.100000)"
fill="#000000" stroke="none">
<path d="M890 2330 c-36 -22 -92 -58 -125 -80 -33 -23 -115 -77 -182 -121 -69
-45 -125 -88 -128 -100 -8 -25 20 -59 49 -59 23 0 101 46 256 152 52 35 118
77 145 93 81 45 125 84 125 109 0 57 -51 60 -140 6z"/>
<path d="M1040 1966 c-173 -35 -492 -93 -610 -112 -58 -9 -115 -23 -127 -31
-33 -20 -30 -60 6 -80 25 -15 29 -24 35 -82 3 -37 6 -89 6 -118 0 -59 12 -53
-138 -72 -81 -10 -102 -22 -102 -56 0 -48 35 -56 168 -42 l72 8 0 -108 c1
-163 23 -233 75 -233 40 0 42 13 37 189 l-5 167 94 17 c112 19 220 34 309 43
36 3 115 14 175 25 61 10 161 23 223 28 62 5 119 15 127 21 20 16 19 64 0 80
-18 15 -149 8 -290 -15 -49 -8 -196 -29 -325 -45 -129 -16 -251 -34 -270 -40
-19 -5 -35 -10 -36 -10 -1 0 -5 46 -8 103 -4 56 -10 112 -13 124 -4 17 1 22
24 27 15 3 129 23 253 45 124 23 270 50 325 61 55 11 114 20 130 20 40 0 75
25 75 55 0 29 -34 55 -70 54 -14 0 -77 -11 -140 -23z"/>
</g>
</svg>
