<?xml version="1.0" standalone="no"?>
<!DOCTYPE svg PUBLIC "-//W3C//DTD SVG 20010904//EN"
 "http://www.w3.org/TR/2001/REC-SVG-20010904/DTD/svg10.dtd">
<svg version="1.0" xmlns="http://www.w3.org/2000/svg"
 width="248.000000pt" height="248.000000pt" viewBox="0 0 248.000000 248.000000"
 preserveAspectRatio="xMidYMid meet">
<metadata>
Created by potrace 1.10, written by Peter Selinger 2001-2011
</metadata>
<g transform="translate(0.000000,248.000000) scale(0.100000,-0.100000)"
fill="#000000" stroke="none">
<path d="M890 2330 c-36 -22 -92 -58 -125 -80 -33 -23 -115 -77 -182 -121 -69
-45 -125 -88 -128 -100 -8 -25 20 -59 49 -59 23 0 101 46 256 152 52 35 118
77 145 93 81 45 125 84 125 109 0 57 -51 60 -140 6z"/>
<path d="M1040 1966 c-173 -35 -492 -93 -610 -112 -58 -9 -115 -23 -127 -31
-33 -20 -30 -60 6 -80 25 -15 29 -24 35 -82 3 -37 6 -89 6 -118 0 -59 12 -53
-138 -72 -81 -10 -102 -22 -102 -56 0 -48 38 -57 177 -41 l63 7 0 -108 c1
-163 23 -233 75 -233 40 0 42 13 37 189 l-5 167 94 17 c130 23 397 57 448 57
11 0 13 -25 9 -140 -6 -153 1 -180 47 -180 45 0 56 34 62 195 4 92 10 148 17
151 6 2 62 8 124 13 62 5 119 15 127 21 8 7 15 25 15 40 0 47 -19 54 -127 46
-54 -4 -107 -9 -119 -12 -19 -5 -21 0 -27 63 -4 37 -7 101 -7 141 l0 72 43 0
c51 0 87 22 87 55 0 29 -34 55 -70 54 -14 0 -77 -11 -140 -23z m-25 -247 c4
-71 5 -132 3 -134 -3 -3 -112 -18 -244 -35 -131 -16 -254 -34 -273 -40 -19 -5
-35 -9 -36 -7 -3 3 -23 242 -21 244 3 4 520 99 552 102 8 1 14 -42 19 -130z"/>
</g>
</svg>
