<?xml version="1.0" standalone="no"?>
<!DOCTYPE svg PUBLIC "-//W3C//DTD SVG 20010904//EN"
 "http://www.w3.org/TR/2001/REC-SVG-20010904/DTD/svg10.dtd">
<svg version="1.0" xmlns="http://www.w3.org/2000/svg"
 width="248.000000pt" height="248.000000pt" viewBox="0 0 248.000000 248.000000"
 preserveAspectRatio="xMidYMid meet">
<metadata>
Created by potrace 1.10, written by Peter Selinger 2001-2011
</metadata>
<g transform="translate(0.000000,248.000000) scale(0.100000,-0.100000)"
fill="#000000" stroke="none">
<path d="M1915 2335 c-14 -6 -214 -24 -375 -35 -387 -26 -434 -36 -428 -88 5
-48 35 -53 204 -37 82 8 164 15 183 15 30 0 32 -2 20 -17 -8 -9 -40 -36 -73
-60 -44 -33 -67 -43 -96 -43 -21 0 -42 -6 -48 -12 -6 -8 -7 -91 -3 -229 6
-230 11 -249 56 -249 28 0 43 17 51 58 4 17 14 34 23 36 15 5 113 15 279 31
l62 6 0 -44 c0 -47 13 -67 45 -67 43 0 45 13 45 251 0 191 -2 229 -15 239 -19
15 -83 17 -185 5 l-74 -8 52 60 53 60 77 7 c42 4 125 10 184 15 65 4 112 12
123 21 23 19 15 62 -15 77 -23 12 -121 17 -145 8z m-145 -359 c0 -22 -4 -24
-77 -29 -43 -3 -122 -11 -177 -17 -82 -10 -100 -10 -107 1 -20 31 -8 36 109
43 64 4 135 11 157 15 76 16 95 14 95 -13z m-14 -151 c-11 -8 -40 -15 -65 -15
-42 -1 -80 -5 -228 -25 -45 -6 -53 -5 -53 8 0 10 12 18 33 21 122 18 172 23
247 24 77 1 83 0 66 -13z"/>
<path d="M707 2292 c-10 -10 -17 -22 -17 -27 0 -33 -266 -357 -438 -534 -96
-99 -109 -123 -87 -157 29 -44 53 -31 168 88 l108 113 -5 -85 c-2 -47 -9 -406
-15 -799 -11 -757 -11 -762 34 -769 11 -1 29 4 40 12 25 18 24 6 30 646 3 283
10 630 16 771 8 180 8 266 0 293 -10 38 -9 40 52 114 69 83 106 132 160 211
53 76 49 141 -8 141 -12 0 -29 -8 -38 -18z"/>
</g>
</svg>
