<?xml version="1.0" standalone="no"?>
<!DOCTYPE svg PUBLIC "-//W3C//DTD SVG 20010904//EN"
 "http://www.w3.org/TR/2001/REC-SVG-20010904/DTD/svg10.dtd">
<svg version="1.0" xmlns="http://www.w3.org/2000/svg"
 width="248.000000pt" height="248.000000pt" viewBox="0 0 248.000000 248.000000"
 preserveAspectRatio="xMidYMid meet">
<metadata>
Created by potrace 1.10, written by Peter Selinger 2001-2011
</metadata>
<g transform="translate(0.000000,248.000000) scale(0.100000,-0.100000)"
fill="#000000" stroke="none">
<path d="M2080 1781 c-14 -4 -130 -11 -259 -15 -129 -3 -237 -8 -240 -10 -3
-2 -60 -7 -126 -10 -66 -4 -131 -9 -145 -11 -14 -3 -108 -9 -210 -15 -102 -6
-234 -17 -295 -25 -129 -16 -338 -31 -378 -26 -70 7 -109 -78 -45 -102 19 -7
330 15 523 37 72 8 181 17 244 20 63 4 234 15 380 26 146 10 342 22 435 26
145 6 171 9 187 25 29 29 23 56 -18 78 -12 6 -23 11 -25 10 -2 0 -14 -4 -28
-8z"/>
</g>
</svg>
