<?xml version="1.0" standalone="no"?>
<!DOCTYPE svg PUBLIC "-//W3C//DTD SVG 20010904//EN"
 "http://www.w3.org/TR/2001/REC-SVG-20010904/DTD/svg10.dtd">
<svg version="1.0" xmlns="http://www.w3.org/2000/svg"
 width="248.000000pt" height="248.000000pt" viewBox="0 0 248.000000 248.000000"
 preserveAspectRatio="xMidYMid meet">
<metadata>
Created by potrace 1.10, written by Peter Selinger 2001-2011
</metadata>
<g transform="translate(0.000000,248.000000) scale(0.100000,-0.100000)"
fill="#000000" stroke="none">
<path d="M1083 2348 c-6 -7 -13 -58 -16 -113 -10 -155 -75 -488 -100 -511 -18
-17 -325 -50 -540 -58 -61 -2 -77 -13 -77 -51 0 -25 10 -40 32 -48 19 -7 381
18 482 33 38 6 71 9 73 7 2 -3 -30 -95 -71 -205 -119 -320 -210 -479 -398
-697 -57 -65 -140 -150 -185 -188 -69 -58 -83 -74 -83 -98 0 -22 7 -32 25 -41
21 -9 30 -7 62 15 87 60 159 129 259 247 130 153 229 301 296 440 27 58 53
112 57 120 5 9 35 20 72 26 80 14 529 25 529 12 0 -14 -44 -96 -92 -173 -80
-129 -185 -259 -282 -353 -89 -85 -109 -98 -244 -165 -81 -40 -173 -81 -205
-91 -67 -21 -95 -52 -78 -85 6 -11 20 -22 31 -26 39 -12 304 101 437 187 134
88 286 256 418 463 67 105 145 271 145 308 0 57 -16 62 -133 49 -114 -14 -547
-29 -547 -19 0 3 20 60 45 126 25 66 45 124 45 129 0 21 30 30 125 36 55 4
219 15 365 26 146 10 341 22 434 26 145 6 171 9 187 25 44 44 -4 97 -72 80
-19 -5 -136 -12 -261 -15 -126 -4 -234 -8 -240 -11 -7 -2 -56 -6 -108 -9 -52
-3 -159 -11 -238 -18 -78 -6 -144 -9 -147 -7 -2 3 7 54 20 115 14 60 32 147
40 194 18 104 20 301 3 318 -16 16 -53 15 -65 0z"/>
</g>
</svg>
