<?xml version="1.0" standalone="no"?>
<!DOCTYPE svg PUBLIC "-//W3C//DTD SVG 20010904//EN"
 "http://www.w3.org/TR/2001/REC-SVG-20010904/DTD/svg10.dtd">
<svg version="1.0" xmlns="http://www.w3.org/2000/svg"
 width="248.000000pt" height="248.000000pt" viewBox="0 0 248.000000 248.000000"
 preserveAspectRatio="xMidYMid meet">
<metadata>
Created by potrace 1.10, written by Peter Selinger 2001-2011
</metadata>
<g transform="translate(0.000000,248.000000) scale(0.100000,-0.100000)"
fill="#000000" stroke="none">
<path d="M1915 2335 c-14 -6 -214 -24 -375 -35 -387 -26 -434 -36 -428 -88 5
-48 35 -53 204 -37 82 8 165 15 184 15 l35 -1 -36 -32 c-111 -98 -123 -107
-133 -97 -14 14 -52 13 -64 -2 -6 -8 -7 -91 -3 -229 7 -234 11 -253 60 -247
46 5 52 35 49 235 l-4 182 22 -5 c31 -8 131 63 205 146 l61 67 76 7 c42 4 125
10 184 15 65 4 112 12 123 21 23 19 15 62 -15 77 -23 12 -121 17 -145 8z"/>
<path d="M707 2292 c-10 -10 -17 -22 -17 -27 0 -33 -266 -357 -438 -534 -96
-99 -109 -123 -87 -157 29 -44 53 -31 168 88 l108 113 -5 -85 c-2 -47 -9 -406
-15 -799 -11 -757 -11 -762 34 -769 11 -1 29 4 40 12 25 18 24 6 30 646 3 283
10 630 16 771 8 180 8 266 0 293 -10 38 -9 40 52 114 69 83 106 132 160 211
53 76 49 141 -8 141 -12 0 -29 -8 -38 -18z"/>
</g>
</svg>
