<?xml version="1.0" standalone="no"?>
<!DOCTYPE svg PUBLIC "-//W3C//DTD SVG 20010904//EN"
 "http://www.w3.org/TR/2001/REC-SVG-20010904/DTD/svg10.dtd">
<svg version="1.0" xmlns="http://www.w3.org/2000/svg"
 width="248.000000pt" height="248.000000pt" viewBox="0 0 248.000000 248.000000"
 preserveAspectRatio="xMidYMid meet">
<metadata>
Created by potrace 1.10, written by Peter Selinger 2001-2011
</metadata>
<g transform="translate(0.000000,248.000000) scale(0.100000,-0.100000)"
fill="#000000" stroke="none">
<path d="M1915 2335 c-14 -6 -214 -24 -375 -35 -387 -26 -434 -36 -428 -88 5
-48 35 -53 204 -37 82 8 164 15 183 15 30 0 32 -2 20 -17 -8 -9 -40 -36 -73
-60 -44 -32 -67 -43 -95 -43 -20 0 -42 -5 -48 -11 -10 -10 -10 -209 1 -395 l3
-60 -136 -12 c-75 -7 -173 -12 -217 -12 -56 0 -85 -4 -93 -13 -16 -20 0 -289
19 -312 19 -23 62 -15 78 15 8 16 12 54 10 111 l-3 87 140 12 c77 6 185 16
240 21 55 6 152 14 215 20 63 5 180 16 260 23 195 20 410 29 410 19 0 -11 -26
-49 -62 -91 -45 -53 -35 -122 18 -122 16 0 36 19 69 62 81 107 111 187 87 225
-22 35 -141 44 -376 28 l-106 -7 0 210 c0 176 -2 212 -15 222 -19 15 -83 17
-185 5 l-74 -8 52 60 53 60 77 7 c42 4 125 10 184 15 65 4 112 12 123 21 23
19 15 62 -15 77 -23 12 -121 17 -145 8z m-145 -359 c0 -22 -4 -24 -77 -29 -43
-3 -122 -11 -177 -17 -82 -10 -100 -10 -107 1 -20 31 -8 36 109 43 64 4 135
11 157 15 76 16 95 14 95 -13z m-14 -151 c-11 -8 -40 -15 -65 -15 -42 -1 -80
-5 -228 -25 -45 -6 -53 -5 -53 8 0 10 12 18 33 21 122 18 172 23 247 24 77 1
83 0 66 -13z m14 -145 c0 -17 -6 -33 -12 -35 -7 -2 -77 -9 -155 -15 -78 -5
-155 -13 -173 -16 -30 -7 -31 -6 -24 22 4 16 8 30 9 32 5 6 125 23 215 31 152
13 140 15 140 -19z"/>
<path d="M707 2292 c-10 -10 -17 -22 -17 -27 0 -33 -266 -357 -438 -534 -96
-99 -109 -123 -87 -157 29 -44 53 -31 168 88 l108 113 -5 -85 c-2 -47 -9 -406
-15 -799 -11 -757 -11 -762 34 -769 11 -1 29 4 40 12 25 18 24 6 30 646 3 283
10 630 16 771 8 180 8 266 0 293 -10 38 -9 40 52 114 69 83 106 132 160 211
53 76 49 141 -8 141 -12 0 -29 -8 -38 -18z"/>
<path d="M1852 1498 c-23 -23 -13 -56 28 -88 62 -49 122 -30 106 34 -12 48
-103 85 -134 54z"/>
<path d="M1602 1448 c-24 -24 -13 -64 32 -111 48 -51 60 -55 94 -31 33 23 27
50 -24 104 -47 50 -78 62 -102 38z"/>
<path d="M1156 1398 c-9 -12 -16 -28 -16 -34 0 -6 -16 -46 -35 -88 -40 -89
-45 -130 -15 -146 39 -21 60 -2 104 94 24 50 46 104 50 120 15 61 -54 103 -88
54z"/>
<path d="M1366 1398 c-13 -21 -13 -31 4 -103 23 -95 39 -119 106 -157 55 -30
145 -50 309 -67 150 -15 225 7 225 67 0 33 -29 144 -42 160 -17 20 -56 14 -73
-12 -14 -20 -14 -31 -5 -66 6 -23 9 -45 6 -48 -3 -3 -74 2 -156 10 -115 12
-162 22 -198 40 -43 21 -48 28 -65 83 -27 90 -39 110 -69 113 -19 2 -31 -3
-42 -20z"/>
<path d="M1322 1018 c-5 -7 -19 -32 -31 -56 -12 -23 -82 -107 -156 -186 -135
-145 -153 -174 -123 -204 26 -26 57 -12 130 61 217 214 288 320 253 374 -17
25 -56 31 -73 11z"/>
</g>
</svg>
