<?xml version="1.0" standalone="no"?>
<!DOCTYPE svg PUBLIC "-//W3C//DTD SVG 20010904//EN"
 "http://www.w3.org/TR/2001/REC-SVG-20010904/DTD/svg10.dtd">
<svg version="1.0" xmlns="http://www.w3.org/2000/svg"
 width="248.000000pt" height="248.000000pt" viewBox="0 0 248.000000 248.000000"
 preserveAspectRatio="xMidYMid meet">
<metadata>
Created by potrace 1.10, written by Peter Selinger 2001-2011
</metadata>
<g transform="translate(0.000000,248.000000) scale(0.100000,-0.100000)"
fill="#000000" stroke="none">
<path d="M1870 2330 c-57 -8 -186 -19 -520 -46 -215 -17 -243 -26 -238 -72 5
-48 35 -53 204 -37 82 8 164 15 183 15 30 0 32 -2 20 -17 -8 -9 -40 -36 -73
-60 -44 -32 -67 -43 -95 -43 -20 0 -42 -5 -48 -11 -10 -10 -10 -209 1 -394 l3
-61 -141 -12 c-77 -7 -175 -12 -217 -12 -52 0 -80 -4 -88 -13 -16 -20 0 -289
19 -312 19 -23 62 -15 78 15 8 17 12 55 10 113 -3 73 -1 87 12 87 23 0 349 28
465 40 418 43 785 68 785 53 0 -11 -26 -49 -62 -91 -45 -53 -35 -122 18 -122
41 0 164 186 164 249 0 72 -60 84 -347 68 l-143 -8 0 209 c0 183 -2 211 -16
223 -19 16 -74 17 -184 4 l-74 -8 52 60 52 60 83 8 c45 4 127 10 183 14 111 7
137 18 132 60 -6 48 -75 61 -218 41z m-100 -354 c0 -22 -4 -24 -77 -29 -43 -3
-122 -11 -177 -17 -82 -10 -100 -10 -107 1 -20 31 -8 36 109 43 64 4 135 11
157 15 76 16 95 14 95 -13z m-14 -151 c-11 -8 -40 -15 -65 -15 -42 -1 -80 -5
-228 -25 -45 -6 -53 -5 -53 8 0 11 14 18 48 22 26 3 70 10 97 14 28 5 88 9
135 9 77 1 83 0 66 -13z m14 -145 c0 -17 -6 -33 -12 -35 -7 -2 -77 -9 -155
-15 -78 -5 -155 -13 -173 -16 -30 -7 -31 -6 -24 22 4 16 8 30 9 32 7 9 189 32
333 41 18 1 22 -4 22 -29z"/>
<path d="M707 2292 c-10 -10 -17 -22 -17 -27 0 -33 -260 -349 -438 -534 -96
-100 -109 -123 -87 -157 29 -44 53 -31 168 88 l108 113 -5 -85 c-2 -47 -9
-406 -15 -799 -11 -782 -12 -766 44 -766 55 0 55 1 60 617 3 309 10 676 16
813 8 177 8 262 1 289 -11 38 -10 40 51 114 69 83 106 132 160 211 53 76 49
141 -8 141 -12 0 -29 -8 -38 -18z"/>
<path d="M1852 1498 c-23 -23 -13 -56 28 -88 62 -49 122 -30 106 34 -12 48
-103 85 -134 54z"/>
<path d="M1602 1448 c-24 -24 -13 -64 32 -111 47 -50 73 -58 99 -29 26 29 20
49 -29 102 -47 50 -78 62 -102 38z"/>
<path d="M1156 1398 c-9 -12 -16 -28 -16 -34 0 -6 -16 -46 -35 -88 -40 -89
-45 -130 -15 -146 39 -21 60 -2 104 94 24 50 46 104 50 120 15 61 -54 103 -88
54z"/>
<path d="M1365 1397 c-14 -21 -13 -31 5 -102 25 -96 38 -117 93 -150 66 -38
129 -54 282 -70 192 -19 265 -2 265 63 0 33 -29 144 -42 160 -17 20 -56 14
-73 -12 -14 -20 -14 -31 -5 -66 6 -23 9 -44 6 -47 -9 -9 -257 17 -313 33 -70
19 -97 47 -113 114 -7 30 -19 65 -26 78 -19 29 -59 29 -79 -1z"/>
<path d="M1320 1015 c-4 -5 -17 -29 -28 -51 -12 -23 -82 -107 -157 -187 -135
-146 -153 -175 -123 -205 26 -26 56 -12 125 56 38 37 88 88 111 115 23 26 46
47 51 47 4 0 30 -22 57 -48 27 -26 67 -62 89 -80 l39 -32 -34 -36 c-48 -50
-204 -165 -267 -197 -28 -15 -73 -31 -99 -37 -58 -13 -74 -25 -74 -55 0 -59
81 -64 193 -13 77 35 229 144 312 222 58 55 36 61 202 -55 59 -42 194 -122
298 -177 156 -82 203 -102 262 -113 83 -14 103 -6 103 42 0 34 -33 55 -101 65
-43 6 -115 42 -366 180 -51 28 -206 133 -247 168 l-29 24 78 118 c43 66 84
137 90 159 13 41 6 77 -16 90 -18 12 -459 12 -469 0z m356 -112 c-10 -25 -116
-183 -124 -183 -15 0 -57 33 -119 94 -98 94 -91 101 102 101 105 0 144 -3 141
-12z"/>
</g>
</svg>
