<?xml version="1.0" standalone="no"?>
<!DOCTYPE svg PUBLIC "-//W3C//DTD SVG 20010904//EN"
 "http://www.w3.org/TR/2001/REC-SVG-20010904/DTD/svg10.dtd">
<svg version="1.0" xmlns="http://www.w3.org/2000/svg"
 width="248.000000pt" height="248.000000pt" viewBox="0 0 248.000000 248.000000"
 preserveAspectRatio="xMidYMid meet">
<metadata>
Created by potrace 1.10, written by Peter Selinger 2001-2011
</metadata>
<g transform="translate(0.000000,248.000000) scale(0.100000,-0.100000)"
fill="#000000" stroke="none">
<path d="M1142 2378 c-5 -7 -24 -47 -42 -88 -48 -113 -163 -319 -180 -325 -8
-2 -112 -18 -230 -35 -414 -59 -470 -74 -470 -124 0 -49 18 -51 183 -23 210
37 448 70 455 63 16 -17 -235 -352 -340 -452 -71 -69 -199 -162 -273 -199 -63
-31 -80 -60 -55 -91 59 -70 366 149 567 406 68 88 179 252 208 310 l24 48 93
7 c51 3 170 15 263 25 94 10 222 21 285 24 63 3 165 8 225 11 61 3 196 5 302
6 205 0 218 3 211 51 -7 47 -28 49 -378 43 -337 -6 -487 -15 -700 -40 -139
-16 -230 -19 -230 -7 0 4 4 12 9 18 5 5 41 73 80 151 71 142 85 195 59 221
-16 16 -53 15 -66 0z"/>
</g>
</svg>
