<?xml version="1.0" standalone="no"?>
<!DOCTYPE svg PUBLIC "-//W3C//DTD SVG 20010904//EN"
 "http://www.w3.org/TR/2001/REC-SVG-20010904/DTD/svg10.dtd">
<svg version="1.0" xmlns="http://www.w3.org/2000/svg"
 width="248.000000pt" height="248.000000pt" viewBox="0 0 248.000000 248.000000"
 preserveAspectRatio="xMidYMid meet">
<metadata>
Created by potrace 1.10, written by Peter Selinger 2001-2011
</metadata>
<g transform="translate(0.000000,248.000000) scale(0.100000,-0.100000)"
fill="#000000" stroke="none">
<path d="M1142 2378 c-5 -7 -24 -47 -42 -88 -48 -113 -163 -319 -180 -325 -8
-2 -112 -18 -230 -35 -414 -59 -470 -74 -470 -124 0 -49 18 -51 183 -23 210
37 448 70 455 63 16 -17 -235 -352 -340 -452 -71 -69 -199 -162 -273 -199 -44
-22 -61 -36 -63 -53 -8 -56 48 -67 129 -26 115 58 326 239 416 357 19 25 24
27 42 15 12 -7 24 -29 28 -48 17 -80 -2 -894 -26 -1140 -9 -96 0 -133 37 -138
31 -5 50 13 56 52 3 17 10 155 17 306 7 151 16 280 21 286 4 6 36 12 69 13 34
1 64 3 68 5 3 2 42 6 86 10 44 3 130 9 190 13 136 10 261 10 298 0 l27 -8 0
-278 c-1 -153 -4 -281 -7 -284 -2 -3 -26 9 -51 27 -60 42 -79 48 -103 36 -35
-19 -25 -64 24 -101 23 -18 65 -55 94 -81 56 -51 89 -60 115 -30 14 15 16 111
21 760 4 700 3 744 -13 765 -17 20 -26 21 -111 19 -52 -2 -132 -7 -179 -12
-47 -5 -164 -14 -260 -20 -96 -7 -211 -18 -255 -26 -43 -7 -81 -12 -82 -10 -2
2 22 41 53 87 31 46 67 105 80 130 l23 47 93 7 c51 3 170 15 263 25 94 10 222
21 285 24 63 3 165 8 225 11 61 3 196 5 302 6 205 0 218 3 211 51 -7 47 -28
49 -378 43 -337 -6 -487 -15 -700 -40 -139 -16 -230 -19 -230 -7 0 4 4 12 9
18 5 5 41 73 80 151 71 142 85 195 59 221 -16 16 -53 15 -66 0z m500 -923 c-1
-60 -6 -113 -10 -117 -4 -4 -63 -12 -132 -17 -69 -6 -174 -18 -235 -26 -160
-22 -345 -33 -354 -20 -5 5 -11 61 -14 122 l-5 113 37 5 c20 4 47 8 61 10 14
3 131 12 260 20 129 9 237 18 239 21 3 3 39 3 81 2 l75 -3 -3 -110z m-2 -365
l0 -140 -157 -1 c-87 0 -176 -2 -198 -4 -22 -2 -80 -6 -130 -10 -49 -3 -116
-9 -148 -14 -32 -4 -70 -6 -83 -3 -24 4 -24 6 -24 116 0 61 4 116 8 122 4 8
55 14 132 18 69 4 177 13 240 22 169 22 259 31 313 33 l47 1 0 -140z"/>
</g>
</svg>
