<?xml version="1.0" standalone="no"?>
<!DOCTYPE svg PUBLIC "-//W3C//DTD SVG 20010904//EN"
 "http://www.w3.org/TR/2001/REC-SVG-20010904/DTD/svg10.dtd">
<svg version="1.0" xmlns="http://www.w3.org/2000/svg"
 width="248.000000pt" height="248.000000pt" viewBox="0 0 248.000000 248.000000"
 preserveAspectRatio="xMidYMid meet">
<metadata>
Created by potrace 1.10, written by Peter Selinger 2001-2011
</metadata>
<g transform="translate(0.000000,248.000000) scale(0.100000,-0.100000)"
fill="#000000" stroke="none">
<path d="M1142 2378 c-5 -7 -26 -51 -46 -98 -51 -117 -203 -391 -294 -530 -86
-131 -205 -281 -284 -356 -71 -69 -199 -162 -273 -199 -63 -31 -80 -60 -55
-91 60 -71 364 147 566 406 122 155 271 402 403 667 61 122 74 176 49 201 -16
16 -53 15 -66 0z"/>
</g>
</svg>
