<?xml version="1.0" standalone="no"?>
<!DOCTYPE svg PUBLIC "-//W3C//DTD SVG 20010904//EN"
 "http://www.w3.org/TR/2001/REC-SVG-20010904/DTD/svg10.dtd">
<svg version="1.0" xmlns="http://www.w3.org/2000/svg"
 width="248.000000pt" height="248.000000pt" viewBox="0 0 248.000000 248.000000"
 preserveAspectRatio="xMidYMid meet">
<metadata>
Created by potrace 1.11, written by Peter Selinger 2001-2013
</metadata>
<g transform="translate(0.000000,248.000000) scale(0.100000,-0.100000)"
fill="#000000" stroke="none">
<path d="M1100 2370 c-8 -15 -7 -40 5 -97 9 -45 13 -93 10 -115 -8 -45 6 -68
40 -68 12 0 30 9 41 21 33 37 17 216 -23 262 -22 23 -60 22 -73 -3z"/>
<path d="M1720 2089 c-69 -4 -192 -13 -275 -19 -236 -17 -767 -31 -905 -24
l-126 6 -33 -31 c-28 -27 -32 -35 -25 -59 4 -15 9 -148 11 -297 3 -211 0 -290
-12 -361 -8 -50 -15 -111 -15 -135 0 -83 -120 -464 -186 -589 -39 -74 -43
-105 -14 -120 38 -20 71 7 115 95 67 135 185 511 185 591 0 21 7 80 15 129 10
65 15 172 15 383 l0 293 83 -6 c87 -7 689 10 892 25 272 19 482 23 529 10 40
-11 49 -10 71 4 32 21 33 60 3 80 -20 13 -161 38 -191 35 -7 -1 -68 -6 -137
-10z"/>
<path d="M787 1812 c-10 -10 -33 -68 -52 -128 -36 -114 -42 -123 -207 -317
-46 -54 -59 -101 -31 -115 31 -17 74 12 158 108 42 49 83 97 90 107 11 15 22
8 106 -70 101 -94 146 -116 203 -100 24 7 32 15 34 36 4 37 -10 53 -53 60 -40
7 -123 72 -185 147 l-40 47 25 73 c31 91 33 145 6 160 -27 14 -35 13 -54 -8z"/>
</g>
</svg>
