<?xml version="1.0" standalone="no"?>
<!DOCTYPE svg PUBLIC "-//W3C//DTD SVG 20010904//EN"
 "http://www.w3.org/TR/2001/REC-SVG-20010904/DTD/svg10.dtd">
<svg version="1.0" xmlns="http://www.w3.org/2000/svg"
 width="248.000000pt" height="248.000000pt" viewBox="0 0 248.000000 248.000000"
 preserveAspectRatio="xMidYMid meet">
<metadata>
Created by potrace 1.11, written by Peter Selinger 2001-2013
</metadata>
<g transform="translate(0.000000,248.000000) scale(0.100000,-0.100000)"
fill="#000000" stroke="none">
<path d="M1100 2370 c-8 -15 -7 -40 5 -97 9 -45 13 -93 10 -115 -8 -45 6 -68
40 -68 30 0 56 31 62 77 6 49 -22 180 -43 204 -22 25 -61 24 -74 -1z"/>
<path d="M1720 2088 c-63 -4 -185 -12 -270 -18 -246 -17 -774 -31 -908 -24
-109 6 -125 4 -142 -11 -11 -10 -20 -26 -20 -36 0 -34 39 -47 165 -53 127 -7
697 8 900 24 258 19 481 24 529 10 40 -11 49 -10 71 4 15 10 25 26 25 41 0 60
-107 79 -350 63z"/>
</g>
</svg>
