<?xml version="1.0" standalone="no"?>
<!DOCTYPE svg PUBLIC "-//W3C//DTD SVG 20010904//EN"
 "http://www.w3.org/TR/2001/REC-SVG-20010904/DTD/svg10.dtd">
<svg version="1.0" xmlns="http://www.w3.org/2000/svg"
 width="248.000000pt" height="248.000000pt" viewBox="0 0 248.000000 248.000000"
 preserveAspectRatio="xMidYMid meet">
<metadata>
Created by potrace 1.10, written by Peter Selinger 2001-2011
</metadata>
<g transform="translate(0.000000,248.000000) scale(0.100000,-0.100000)"
fill="#000000" stroke="none">
<path d="M785 2215 c-71 -13 -170 -33 -220 -44 -49 -11 -104 -23 -122 -26 -18
-4 -43 -15 -56 -25 l-24 -19 -2 -743 c-1 -588 1 -748 12 -768 9 -19 22 -26 50
-28 34 -3 201 14 392 40 44 6 111 14 150 17 65 6 71 8 85 36 27 57 35 1374 9
1497 -6 25 -19 54 -28 62 -29 27 -107 27 -246 1z m177 -252 c3 -93 5 -169 4
-170 -1 -1 -42 -9 -91 -18 -50 -9 -155 -32 -235 -51 -80 -19 -149 -34 -155
-34 -16 0 -18 350 -2 354 114 32 381 83 438 85 l36 1 5 -167z m5 -405 c-4 -66
-7 -167 -7 -223 l0 -102 -87 -12 c-49 -7 -115 -19 -147 -27 -32 -8 -103 -23
-157 -33 l-99 -18 0 217 0 218 149 36 c82 20 182 40 222 46 40 6 75 13 78 15
2 3 16 5 29 5 l25 0 -6 -122z m-7 -628 c0 -110 -3 -200 -7 -200 -5 0 -44 -7
-88 -14 -44 -8 -147 -22 -229 -31 -83 -9 -153 -18 -158 -21 -4 -3 -8 80 -8
185 l0 189 73 12 c39 6 110 21 157 32 69 16 143 30 253 47 4 0 7 -89 7 -199z"/>
<path d="M508 543 c-8 -10 -18 -30 -22 -45 -11 -48 -123 -224 -188 -295 -21
-24 -38 -49 -38 -58 0 -19 35 -55 54 -55 37 0 119 100 212 258 60 101 78 168
54 197 -17 20 -53 19 -72 -2z"/>
</g>
</svg>
