<?xml version="1.0" standalone="no"?>
<!DOCTYPE svg PUBLIC "-//W3C//DTD SVG 20010904//EN"
 "http://www.w3.org/TR/2001/REC-SVG-20010904/DTD/svg10.dtd">
<svg version="1.0" xmlns="http://www.w3.org/2000/svg"
 width="248.000000pt" height="248.000000pt" viewBox="0 0 248.000000 248.000000"
 preserveAspectRatio="xMidYMid meet">
<metadata>
Created by potrace 1.10, written by Peter Selinger 2001-2011
</metadata>
<g transform="translate(0.000000,248.000000) scale(0.100000,-0.100000)"
fill="#000000" stroke="none">
<path d="M2020 2054 c-14 -1 -171 -10 -350 -19 -579 -29 -1214 -85 -1258 -112
-25 -16 -29 -54 -7 -73 16 -14 40 -12 360 20 259 27 530 47 710 55 83 3 215
11 295 16 80 6 184 12 233 14 93 3 117 13 117 50 0 37 -40 57 -100 49z"/>
</g>
</svg>
