<?xml version="1.0" standalone="no"?>
<!DOCTYPE svg PUBLIC "-//W3C//DTD SVG 20010904//EN"
 "http://www.w3.org/TR/2001/REC-SVG-20010904/DTD/svg10.dtd">
<svg version="1.0" xmlns="http://www.w3.org/2000/svg"
 width="248.000000pt" height="248.000000pt" viewBox="0 0 248.000000 248.000000"
 preserveAspectRatio="xMidYMid meet">
<metadata>
Created by potrace 1.10, written by Peter Selinger 2001-2011
</metadata>
<g transform="translate(0.000000,248.000000) scale(0.100000,-0.100000)"
fill="#000000" stroke="none">
<path d="M1172 2318 c-5 -7 -17 -40 -25 -73 -9 -33 -33 -101 -55 -150 -36 -83
-42 -90 -73 -97 -19 -3 -158 -19 -309 -34 -289 -28 -320 -36 -320 -78 0 -54 5
-54 378 -15 101 10 195 19 208 19 l25 0 -39 -72 c-105 -197 -230 -404 -293
-484 -38 -49 -81 -104 -95 -122 -19 -24 -29 -31 -37 -23 -15 15 -50 14 -65 -1
-7 -7 -12 -35 -12 -63 l0 -52 -97 -94 c-54 -52 -128 -114 -165 -138 -68 -45
-85 -70 -67 -103 24 -45 120 2 266 128 33 30 63 54 66 54 11 0 15 -256 8 -460
-5 -123 -6 -230 -4 -237 10 -25 53 -27 76 -4 22 21 22 26 23 421 l0 399 27 33
c46 55 170 217 209 272 48 67 210 348 266 459 29 60 51 91 67 97 13 5 167 16
342 24 175 9 341 18 368 22 28 3 94 7 148 8 57 2 103 9 112 16 20 16 19 54 -1
71 -19 16 -59 15 -434 -6 -473 -26 -500 -27 -500 -15 0 6 10 30 21 52 53 104
75 218 47 246 -16 16 -53 15 -66 0z"/>
</g>
</svg>
