<?xml version="1.0" standalone="no"?>
<!DOCTYPE svg PUBLIC "-//W3C//DTD SVG 20010904//EN"
 "http://www.w3.org/TR/2001/REC-SVG-20010904/DTD/svg10.dtd">
<svg version="1.0" xmlns="http://www.w3.org/2000/svg"
 width="248.000000pt" height="248.000000pt" viewBox="0 0 248.000000 248.000000"
 preserveAspectRatio="xMidYMid meet">
<metadata>
Created by potrace 1.10, written by Peter Selinger 2001-2011
</metadata>
<g transform="translate(0.000000,248.000000) scale(0.100000,-0.100000)"
fill="#000000" stroke="none">
<path d="M1165 2124 c-5 -2 -95 -15 -200 -29 -228 -31 -495 -77 -512 -88 -19
-12 -16 -51 5 -70 23 -21 50 -21 169 -1 52 9 97 13 100 10 17 -16 -39 -142
-174 -391 -151 -278 -206 -364 -296 -461 -87 -94 -102 -125 -75 -152 29 -29
64 -14 134 61 38 39 82 89 98 109 l28 38 63 -58 c34 -31 92 -73 129 -92 36
-19 66 -38 66 -42 0 -9 -245 -372 -289 -428 -19 -25 -68 -79 -108 -121 -73
-77 -88 -110 -61 -137 37 -37 113 20 237 178 199 253 381 559 518 869 77 177
86 208 72 249 -18 53 -38 55 -251 25 -65 -9 -120 -14 -123 -12 -2 3 22 59 54
125 60 120 92 212 88 249 -2 17 6 21 63 28 310 37 340 46 340 95 0 43 -33 63
-75 46z m-268 -775 c-35 -79 -83 -179 -106 -221 l-42 -77 -68 42 c-37 23 -93
65 -125 94 l-58 52 27 48 c16 26 44 76 62 111 19 34 38 62 43 62 5 0 62 9 127
20 131 21 197 28 201 19 1 -3 -26 -70 -61 -150z"/>
<path d="M2090 1893 c-39 -6 -169 -33 -235 -48 -33 -8 -116 -27 -185 -43 -69
-16 -177 -37 -240 -47 -63 -10 -121 -22 -127 -27 -31 -25 0 -88 43 -88 47 0
244 36 409 75 99 24 225 51 280 60 112 20 130 27 145 56 9 16 8 26 -5 45 -15
24 -29 26 -85 17z"/>
<path d="M1910 1564 c-58 -13 -136 -31 -175 -40 -178 -42 -233 -53 -270 -53
-54 -1 -87 -25 -83 -59 5 -46 43 -58 133 -43 43 7 119 23 169 36 50 13 150 35
221 50 160 31 183 40 192 73 15 63 -30 72 -187 36z"/>
<path d="M2250 1270 c-52 -10 -153 -27 -225 -39 -71 -13 -159 -28 -195 -36
-36 -8 -108 -20 -160 -29 -52 -8 -169 -26 -260 -40 -179 -28 -328 -62 -347
-78 -18 -15 -16 -53 3 -69 20 -17 66 -15 146 5 71 18 264 51 348 61 59 6 182
27 295 50 39 8 126 24 195 35 346 57 344 57 362 95 9 21 8 28 -7 45 -21 24
-31 24 -155 0z"/>
</g>
</svg>
