<?xml version="1.0" standalone="no"?>
<!DOCTYPE svg PUBLIC "-//W3C//DTD SVG 20010904//EN"
 "http://www.w3.org/TR/2001/REC-SVG-20010904/DTD/svg10.dtd">
<svg version="1.0" xmlns="http://www.w3.org/2000/svg"
 width="248.000000pt" height="248.000000pt" viewBox="0 0 248.000000 248.000000"
 preserveAspectRatio="xMidYMid meet">
<metadata>
Created by potrace 1.10, written by Peter Selinger 2001-2011
</metadata>
<g transform="translate(0.000000,248.000000) scale(0.100000,-0.100000)"
fill="#000000" stroke="none">
<path d="M1165 2124 c-5 -2 -95 -15 -200 -29 -228 -31 -495 -77 -512 -88 -19
-12 -16 -51 5 -70 23 -21 50 -21 169 -1 52 9 97 13 100 10 17 -16 -39 -142
-174 -391 -151 -278 -206 -364 -296 -461 -87 -94 -102 -125 -75 -152 7 -7 24
-12 39 -12 34 0 159 128 223 229 83 129 138 223 164 279 14 31 49 97 78 147
90 155 156 318 151 370 -2 17 6 21 63 28 310 37 340 46 340 95 0 43 -33 63
-75 46z"/>
</g>
</svg>
