<?xml version="1.0" standalone="no"?>
<!DOCTYPE svg PUBLIC "-//W3C//DTD SVG 20010904//EN"
 "http://www.w3.org/TR/2001/REC-SVG-20010904/DTD/svg10.dtd">
<svg version="1.0" xmlns="http://www.w3.org/2000/svg"
 width="248.000000pt" height="248.000000pt" viewBox="0 0 248.000000 248.000000"
 preserveAspectRatio="xMidYMid meet">
<metadata>
Created by potrace 1.10, written by Peter Selinger 2001-2011
</metadata>
<g transform="translate(0.000000,248.000000) scale(0.100000,-0.100000)"
fill="#000000" stroke="none">
<path d="M1165 2124 c-5 -2 -95 -15 -200 -29 -228 -31 -495 -77 -512 -88 -19
-12 -16 -51 5 -70 10 -10 32 -17 48 -17 29 0 210 30 294 48 25 6 74 13 110 17
147 14 286 37 308 51 24 16 30 62 10 82 -12 12 -42 15 -63 6z"/>
</g>
</svg>
