<?xml version="1.0" standalone="no"?>
<!DOCTYPE svg PUBLIC "-//W3C//DTD SVG 20010904//EN"
 "http://www.w3.org/TR/2001/REC-SVG-20010904/DTD/svg10.dtd">
<svg version="1.0" xmlns="http://www.w3.org/2000/svg"
 width="248.000000pt" height="248.000000pt" viewBox="0 0 248.000000 248.000000"
 preserveAspectRatio="xMidYMid meet">
<metadata>
Created by potrace 1.10, written by Peter Selinger 2001-2011
</metadata>
<g transform="translate(0.000000,248.000000) scale(0.100000,-0.100000)"
fill="#000000" stroke="none">
<path d="M1581 2206 c-9 -11 -11 -67 -5 -219 l7 -205 -29 -6 c-16 -3 -76 -13
-134 -22 -58 -9 -111 -21 -117 -27 -19 -14 -16 -52 7 -72 21 -19 24 -19 188 6
45 7 84 10 86 8 2 -2 6 -43 10 -91 l7 -86 -51 -11 c-28 -6 -68 -11 -88 -11
-77 0 -111 -66 -51 -99 23 -13 38 -13 109 -2 65 11 84 11 90 1 8 -13 32 -202
26 -208 -2 -2 -52 -10 -112 -17 -195 -26 -437 -77 -461 -97 -7 -6 -13 -21 -13
-33 0 -50 53 -60 163 -31 114 30 437 78 448 67 4 -3 14 -40 23 -81 9 -41 28
-109 41 -150 39 -117 173 -374 255 -489 78 -108 196 -227 235 -237 50 -12 80
27 145 191 44 110 39 165 -16 165 -29 0 -38 -12 -72 -107 -17 -45 -37 -92 -45
-103 -14 -20 -16 -19 -76 46 -106 113 -196 262 -300 501 -34 78 -90 280 -79
287 9 6 167 38 283 57 284 46 329 57 347 79 23 29 23 43 -2 65 -19 17 -24 17
-137 -3 -65 -12 -174 -31 -243 -42 -69 -12 -156 -29 -193 -37 -40 -9 -72 -12
-77 -7 -11 12 -40 217 -31 226 3 3 76 20 161 37 186 38 208 46 217 79 16 66
-24 70 -241 24 -82 -17 -150 -31 -151 -29 -1 1 -5 41 -9 89 l-6 88 27 6 c16 3
71 17 123 29 52 13 140 31 195 40 112 20 130 27 145 56 9 16 8 26 -5 46 -15
23 -21 24 -63 19 -61 -9 -171 -31 -305 -63 -59 -14 -109 -24 -111 -22 -2 2 -8
84 -14 181 -7 136 -13 184 -26 203 -18 28 -57 33 -75 11z"/>
<path d="M1165 2124 c-5 -2 -95 -15 -200 -29 -228 -31 -495 -77 -512 -88 -19
-12 -16 -51 5 -70 23 -21 50 -21 169 -1 52 9 97 13 100 10 17 -16 -39 -142
-174 -391 -151 -278 -206 -364 -296 -461 -87 -94 -102 -125 -75 -152 29 -29
64 -14 134 61 38 39 82 89 98 109 l28 38 63 -58 c34 -31 92 -73 129 -92 36
-19 66 -38 66 -42 0 -9 -245 -372 -289 -428 -19 -25 -68 -79 -108 -121 -73
-77 -88 -110 -61 -137 37 -37 113 20 237 178 199 253 381 559 518 869 77 177
86 208 72 249 -18 53 -38 55 -251 25 -65 -9 -120 -14 -123 -12 -2 3 22 59 54
125 60 120 92 212 88 249 -2 17 6 21 63 28 310 37 340 46 340 95 0 43 -33 63
-75 46z m-268 -775 c-35 -79 -83 -179 -106 -221 l-42 -77 -68 42 c-37 23 -93
65 -125 94 l-58 52 27 48 c16 26 44 76 62 111 19 34 38 62 43 62 5 0 62 9 127
20 131 21 197 28 201 19 1 -3 -26 -70 -61 -150z"/>
</g>
</svg>
