<?xml version="1.0" standalone="no"?>
<!DOCTYPE svg PUBLIC "-//W3C//DTD SVG 20010904//EN"
 "http://www.w3.org/TR/2001/REC-SVG-20010904/DTD/svg10.dtd">
<svg version="1.0" xmlns="http://www.w3.org/2000/svg"
 width="248.000000pt" height="248.000000pt" viewBox="0 0 248.000000 248.000000"
 preserveAspectRatio="xMidYMid meet">
<metadata>
Created by potrace 1.10, written by Peter Selinger 2001-2011
</metadata>
<g transform="translate(0.000000,248.000000) scale(0.100000,-0.100000)"
fill="#000000" stroke="none">
<path d="M566 2298 c-9 -13 -16 -44 -17 -73 0 -74 -14 -146 -30 -155 -12 -8
-173 -48 -259 -65 -50 -10 -80 -32 -80 -58 0 -54 44 -59 199 -22 57 14 105 24
107 22 2 -2 -12 -41 -32 -88 -19 -46 -44 -106 -55 -134 -27 -66 -113 -207
-165 -270 -48 -59 -54 -73 -43 -102 6 -18 16 -23 42 -23 28 0 41 8 75 48 57
68 149 222 189 317 64 150 113 273 113 283 0 12 15 18 99 42 l64 18 -7 -56
c-4 -32 -16 -113 -27 -181 -25 -148 -28 -242 -10 -294 26 -77 146 -97 324 -56
138 33 153 56 123 196 -15 72 -29 93 -61 93 -39 0 -48 -23 -41 -104 l7 -73
-58 -12 c-32 -7 -89 -11 -128 -9 l-70 3 2 85 c2 47 12 141 23 210 11 69 23
141 26 161 9 63 7 119 -6 134 -17 20 -72 19 -154 -5 l-69 -19 7 80 c6 65 4 85
-8 105 -21 31 -60 32 -80 2z"/>
<path d="M1496 2268 c-9 -12 -16 -31 -16 -41 0 -33 -60 -267 -96 -375 -43
-129 -124 -296 -175 -365 -22 -28 -39 -59 -39 -69 0 -23 27 -48 52 -48 23 0
80 57 109 110 l19 35 -5 -275 c-3 -151 -10 -454 -16 -673 -10 -361 -9 -400 5
-422 10 -15 26 -25 41 -25 51 0 52 9 65 510 7 256 14 467 16 469 3 4 162 33
274 50 30 5 57 7 60 4 3 -2 5 -230 5 -505 l0 -501 22 -10 c32 -14 52 -2 70 40
15 34 17 93 16 514 l0 476 96 13 c53 7 124 16 158 20 35 4 70 13 78 20 24 20
14 62 -17 79 -24 14 -37 13 -130 -2 -57 -10 -122 -17 -145 -17 l-43 0 0 163
c0 89 -3 171 -6 183 -5 18 1 21 63 32 272 45 326 66 307 119 -13 37 -45 40
-170 13 -54 -12 -120 -24 -145 -27 l-45 -5 37 148 c52 203 50 254 -6 254 -30
0 -52 -28 -60 -75 -11 -63 -43 -193 -68 -274 -15 -51 -28 -76 -42 -81 -11 -5
-72 -18 -135 -30 -191 -37 -170 -38 -170 9 0 22 11 75 25 116 39 114 95 342
97 390 1 24 -4 50 -11 59 -19 23 -57 20 -75 -6z m294 -827 l0 -178 -52 -7
c-29 -4 -84 -13 -123 -21 -38 -7 -91 -17 -117 -20 l-47 -7 6 173 c3 96 6 175
7 176 5 6 266 62 294 62 l32 1 0 -179z"/>
<path d="M559 1454 c-10 -13 -15 -58 -17 -180 -3 -157 -4 -162 -25 -167 -50
-13 -246 -46 -302 -52 -33 -4 -70 -13 -82 -21 -30 -19 -30 -59 -1 -78 26 -17
94 -11 271 23 71 13 97 15 97 6 0 -37 -129 -340 -192 -450 -63 -109 -112 -193
-129 -216 -23 -33 -24 -62 -3 -83 39 -39 71 -10 161 141 50 85 103 187 167
323 29 63 30 64 34 33 2 -18 -1 -159 -7 -315 -11 -316 -9 -333 44 -333 50 0
54 22 65 362 6 169 12 327 13 350 l2 43 104 -120 c133 -153 173 -190 209 -190
61 0 69 50 16 101 -100 95 -324 364 -324 389 0 6 84 25 280 66 105 21 149 42
157 72 15 61 -27 69 -162 33 -44 -11 -89 -21 -100 -21 -12 0 -45 -6 -75 -14
-30 -7 -67 -16 -82 -20 l-28 -6 0 142 c0 95 -5 151 -13 168 -15 31 -58 38 -78
14z"/>
</g>
</svg>
