<?xml version="1.0" standalone="no"?>
<!DOCTYPE svg PUBLIC "-//W3C//DTD SVG 20010904//EN"
 "http://www.w3.org/TR/2001/REC-SVG-20010904/DTD/svg10.dtd">
<svg version="1.0" xmlns="http://www.w3.org/2000/svg"
 width="248.000000pt" height="248.000000pt" viewBox="0 0 248.000000 248.000000"
 preserveAspectRatio="xMidYMid meet">
<metadata>
Created by potrace 1.10, written by Peter Selinger 2001-2011
</metadata>
<g transform="translate(0.000000,248.000000) scale(0.100000,-0.100000)"
fill="#000000" stroke="none">
<path d="M566 2298 c-9 -12 -16 -43 -17 -68 -1 -76 -15 -151 -29 -160 -13 -8
-106 -31 -240 -60 -70 -16 -100 -34 -100 -63 0 -54 44 -59 199 -22 57 14 106
24 107 22 2 -2 -18 -56 -46 -120 -27 -64 -50 -119 -50 -123 0 -15 -117 -203
-155 -249 -49 -59 -55 -73 -44 -102 6 -18 16 -23 43 -23 30 0 40 7 84 63 48
60 172 262 172 280 0 4 11 33 25 63 32 71 95 231 95 243 0 10 32 24 109 45
l54 16 -7 -58 c-4 -31 -16 -113 -27 -182 -49 -291 -23 -360 137 -368 53 -3
103 2 171 18 145 33 159 56 129 197 -15 72 -29 93 -61 93 -39 0 -48 -23 -41
-104 l7 -73 -58 -12 c-32 -7 -89 -11 -128 -9 l-70 3 -3 41 c-2 22 7 103 18
180 45 294 47 321 34 354 -11 26 -18 30 -51 30 -21 0 -69 -9 -107 -20 l-69
-19 7 80 c6 65 4 85 -8 105 -21 31 -60 32 -80 2z"/>
<path d="M1496 2268 c-7 -13 -17 -41 -20 -63 -42 -251 -165 -582 -267 -717
-40 -54 -48 -85 -27 -106 34 -34 101 10 148 97 l20 36 -5 -280 c-3 -154 -10
-462 -16 -684 l-11 -403 21 -22 c17 -16 32 -20 69 -19 26 1 241 2 478 3 470 2
479 3 479 55 0 49 -26 55 -235 55 -102 0 -196 3 -208 7 l-24 6 7 226 c4 124 9
228 11 230 1 2 67 10 146 18 162 17 192 26 196 65 5 45 -30 60 -114 49 -38 -5
-105 -12 -150 -16 l-81 -7 -7 32 c-3 18 -6 101 -6 185 l0 152 98 13 c53 7 125
16 159 20 35 4 70 13 78 20 25 21 15 63 -20 79 -26 13 -42 12 -130 -2 -55 -10
-119 -17 -142 -17 l-43 0 0 163 c0 89 -3 172 -6 185 -5 19 -2 22 20 22 15 0
77 11 139 24 62 14 128 28 148 31 47 7 73 36 65 70 -4 14 -14 29 -22 32 -16 6
-150 -15 -269 -41 -33 -7 -62 -12 -65 -10 -4 1 11 69 32 151 51 202 49 253 -7
253 -24 0 -55 -29 -55 -49 0 -42 -86 -361 -102 -376 -2 -3 -62 -17 -134 -31
-205 -42 -184 -43 -184 5 0 22 12 75 26 117 31 93 82 288 94 364 8 43 7 59 -5
77 -20 30 -60 30 -79 1z m294 -826 l0 -179 -72 -11 c-40 -6 -115 -18 -166 -28
-51 -9 -95 -15 -97 -13 -2 2 -1 82 2 177 6 165 7 173 27 177 12 2 71 15 131
29 61 14 125 25 143 25 l32 1 0 -178z m6 -659 c-3 -4 -317 -53 -337 -53 -14 0
-15 21 -11 183 2 100 6 184 8 186 4 5 197 39 274 49 l55 7 7 -185 c4 -101 6
-186 4 -187z m-1 -370 l-7 -182 -42 -5 c-22 -3 -103 -7 -178 -9 l-138 -4 0 61
c0 33 3 125 7 204 6 134 7 143 27 147 12 2 73 11 136 20 63 9 133 20 155 24
l40 7 3 -41 c2 -22 1 -122 -3 -222z"/>
<path d="M559 1454 c-10 -13 -15 -58 -17 -180 l-3 -163 -47 -10 c-70 -14 -166
-31 -265 -46 -48 -7 -94 -19 -102 -25 -22 -19 -18 -57 7 -74 26 -16 93 -11
271 22 69 13 97 15 97 7 0 -37 -131 -344 -192 -450 -80 -139 -112 -193 -129
-216 -10 -15 -19 -36 -19 -46 0 -23 30 -53 53 -53 39 0 150 183 288 475 32 66
33 68 37 38 2 -17 -1 -155 -6 -306 -6 -151 -8 -286 -5 -300 7 -34 26 -49 55
-45 42 6 47 38 58 364 6 170 12 328 13 351 l2 42 110 -125 c134 -154 167 -184
203 -184 61 0 69 50 16 101 -100 95 -324 364 -324 389 0 6 67 22 225 54 136
28 175 40 195 58 24 22 26 60 5 78 -17 14 -38 11 -145 -19 -41 -11 -86 -21
-100 -21 -14 0 -50 -6 -80 -14 -30 -7 -67 -16 -82 -20 l-28 -6 0 142 c0 95 -5
151 -13 168 -15 31 -58 38 -78 14z"/>
</g>
</svg>
