<?xml version="1.0" standalone="no"?>
<!DOCTYPE svg PUBLIC "-//W3C//DTD SVG 20010904//EN"
 "http://www.w3.org/TR/2001/REC-SVG-20010904/DTD/svg10.dtd">
<svg version="1.0" xmlns="http://www.w3.org/2000/svg"
 width="248.000000pt" height="248.000000pt" viewBox="0 0 248.000000 248.000000"
 preserveAspectRatio="xMidYMid meet">
<metadata>
Created by potrace 1.10, written by Peter Selinger 2001-2011
</metadata>
<g transform="translate(0.000000,248.000000) scale(0.100000,-0.100000)"
fill="#000000" stroke="none">
<path d="M780 2223 c-57 -48 -207 -156 -364 -263 -115 -78 -142 -112 -120
-148 19 -29 56 -26 104 11 51 39 174 117 184 117 3 0 6 -82 6 -183 l0 -183
-157 -38 c-87 -21 -187 -45 -223 -53 -36 -8 -75 -21 -87 -29 -31 -19 -30 -59
1 -79 22 -15 31 -14 107 5 46 12 137 34 203 50 l118 28 -6 -39 c-4 -22 -22
-81 -42 -132 -51 -130 -90 -237 -129 -347 -38 -109 -113 -281 -156 -356 -32
-57 -36 -86 -15 -103 32 -26 68 -9 103 49 44 73 135 282 176 405 19 55 49 138
68 185 l34 85 7 -290 c18 -732 22 -806 43 -821 24 -18 36 -18 61 0 22 17 22
34 10 901 l-8 510 73 22 c301 92 317 99 305 147 -10 41 -45 43 -165 6 -58 -18
-129 -41 -158 -51 l-52 -18 -3 205 -3 206 35 30 c19 16 59 47 87 69 54 40 74
79 56 108 -17 27 -57 25 -93 -6z"/>
</g>
</svg>
