<?xml version="1.0" standalone="no"?>
<!DOCTYPE svg PUBLIC "-//W3C//DTD SVG 20010904//EN"
 "http://www.w3.org/TR/2001/REC-SVG-20010904/DTD/svg10.dtd">
<svg version="1.0" xmlns="http://www.w3.org/2000/svg"
 width="248.000000pt" height="248.000000pt" viewBox="0 0 248.000000 248.000000"
 preserveAspectRatio="xMidYMid meet">
<metadata>
Created by potrace 1.10, written by Peter Selinger 2001-2011
</metadata>
<g transform="translate(0.000000,248.000000) scale(0.100000,-0.100000)"
fill="#000000" stroke="none">
<path d="M779 2223 c-56 -48 -206 -156 -363 -263 -115 -78 -142 -112 -120
-148 20 -32 56 -25 125 25 37 26 93 65 125 86 33 20 88 59 124 87 36 27 89 66
118 86 61 43 92 78 92 108 0 51 -51 61 -101 19z"/>
<path d="M925 1685 c-290 -96 -444 -140 -705 -200 -41 -9 -85 -23 -97 -31 -31
-19 -30 -59 1 -79 22 -15 31 -15 103 4 43 11 139 34 213 52 74 18 158 40 185
49 28 10 97 32 155 50 281 86 300 94 300 131 0 26 -28 49 -58 48 -15 0 -58
-11 -97 -24z"/>
</g>
</svg>
