<?xml version="1.0" standalone="no"?>
<!DOCTYPE svg PUBLIC "-//W3C//DTD SVG 20010904//EN"
 "http://www.w3.org/TR/2001/REC-SVG-20010904/DTD/svg10.dtd">
<svg version="1.0" xmlns="http://www.w3.org/2000/svg"
 width="248.000000pt" height="248.000000pt" viewBox="0 0 248.000000 248.000000"
 preserveAspectRatio="xMidYMid meet">
<metadata>
Created by potrace 1.10, written by Peter Selinger 2001-2011
</metadata>
<g transform="translate(0.000000,248.000000) scale(0.100000,-0.100000)"
fill="#000000" stroke="none">
<path d="M780 2223 c-57 -48 -207 -156 -364 -263 -115 -78 -142 -112 -120
-148 19 -29 56 -26 104 11 51 39 174 117 184 117 3 0 6 -82 6 -183 l0 -183
-157 -38 c-87 -21 -187 -45 -223 -53 -36 -8 -75 -21 -87 -29 -31 -19 -30 -59
1 -79 22 -15 31 -14 107 5 46 12 137 34 203 50 l118 28 -6 -39 c-4 -22 -22
-81 -42 -132 -51 -130 -90 -237 -129 -347 -38 -109 -113 -281 -156 -356 -32
-57 -36 -86 -15 -103 32 -26 68 -9 103 49 44 73 135 282 176 405 19 55 49 138
68 185 l34 85 7 -290 c18 -732 22 -806 43 -821 24 -18 36 -18 60 0 27 19 30
126 16 486 -7 168 -11 386 -9 485 l3 180 45 -83 c54 -102 107 -162 141 -162
52 0 65 49 25 97 -12 15 -36 48 -51 72 -38 61 -165 311 -165 325 0 6 33 21 73
33 307 95 315 99 303 147 -10 41 -45 43 -165 6 -58 -18 -129 -41 -158 -51
l-52 -18 -3 205 -3 206 35 30 c19 16 59 47 87 69 54 40 74 79 56 108 -17 27
-57 25 -93 -6z"/>
<path d="M2007 2218 c-7 -13 -35 -59 -61 -103 -26 -44 -80 -116 -119 -160 -40
-45 -90 -102 -112 -127 -39 -46 -42 -48 -120 -58 -89 -12 -346 -58 -385 -68
-15 -4 -32 -22 -44 -45 -16 -35 -17 -48 -7 -155 6 -64 15 -161 20 -215 11
-128 21 -140 118 -139 l69 1 -4 -62 c-5 -80 -79 -453 -97 -487 -7 -14 -23 -55
-35 -90 -32 -95 -113 -232 -186 -312 -38 -43 -43 -67 -16 -91 38 -35 74 -13
149 91 66 91 105 160 148 267 47 115 59 156 85 290 11 61 30 149 40 197 24
105 25 166 4 196 -12 17 -12 22 -2 22 7 1 58 7 112 14 l99 13 -7 -421 c-10
-556 -4 -588 119 -651 55 -28 66 -30 196 -33 115 -3 156 0 241 18 191 42 221
66 200 162 -6 29 -14 69 -17 89 -7 43 -25 62 -57 57 -37 -5 -53 -51 -40 -117
5 -31 8 -58 6 -60 -18 -19 -131 -34 -279 -38 -149 -4 -174 -2 -205 14 -62 32
-63 41 -55 544 l7 446 107 12 c58 6 130 11 158 11 69 0 77 13 102 165 11 66
29 163 40 215 32 145 26 201 -26 221 -27 10 -206 -1 -288 -18 -28 -6 -27 -3
31 63 155 178 224 310 182 352 -19 19 -56 14 -71 -10z m83 -507 c0 -10 -11
-72 -24 -137 -13 -66 -27 -143 -31 -171 -4 -29 -11 -56 -16 -59 -5 -3 -92 -14
-192 -24 -216 -23 -310 -35 -435 -56 -51 -9 -95 -14 -98 -11 -6 6 -25 209 -27
297 l-2 54 110 22 c165 32 522 89 610 97 96 9 105 8 105 -12z"/>
<path d="M1252 2148 c-18 -18 -14 -59 13 -132 57 -152 124 -246 174 -246 59 0
66 44 17 104 -39 48 -64 96 -96 186 -13 36 -30 73 -38 83 -17 20 -53 22 -70 5z"/>
</g>
</svg>
