<?xml version="1.0" standalone="no"?>
<!DOCTYPE svg PUBLIC "-//W3C//DTD SVG 20010904//EN"
 "http://www.w3.org/TR/2001/REC-SVG-20010904/DTD/svg10.dtd">
<svg version="1.0" xmlns="http://www.w3.org/2000/svg"
 width="248.000000pt" height="248.000000pt" viewBox="0 0 248.000000 248.000000"
 preserveAspectRatio="xMidYMid meet">
<metadata>
Created by potrace 1.10, written by Peter Selinger 2001-2011
</metadata>
<g transform="translate(0.000000,248.000000) scale(0.100000,-0.100000)"
fill="#000000" stroke="none">
<path d="M1668 2363 c-8 -10 -34 -47 -58 -83 -52 -79 -95 -131 -178 -220 -62
-67 -63 -67 -135 -79 -40 -6 -144 -18 -231 -26 -88 -9 -178 -20 -200 -24 -23
-5 -70 -12 -106 -16 -36 -4 -75 -13 -87 -21 -29 -18 -30 -58 -1 -78 23 -16 51
-15 198 9 47 8 135 19 195 25 129 12 311 35 447 56 53 8 150 19 216 23 127 8
152 17 152 56 0 51 -55 63 -211 45 -61 -6 -112 -10 -114 -8 -2 2 23 40 57 83
129 170 158 231 126 263 -17 17 -53 15 -70 -5z"/>
<path d="M792 2278 c-23 -23 -12 -63 32 -121 88 -117 184 -175 224 -135 27 27
13 56 -47 103 -33 25 -70 60 -82 78 -56 81 -97 105 -127 75z"/>
<path d="M1435 1744 c-44 -7 -118 -18 -165 -23 -189 -22 -422 -60 -436 -72
-19 -16 -18 -53 3 -70 20 -17 94 -15 218 6 50 8 161 24 247 35 265 34 298 45
298 95 0 48 -27 52 -165 29z"/>
<path d="M1595 1450 c-99 -9 -236 -25 -305 -34 -276 -36 -362 -46 -510 -57
-173 -12 -203 -23 -198 -67 5 -42 38 -52 143 -42 50 5 140 14 200 19 147 14
367 39 435 51 30 5 116 14 190 20 290 25 310 29 310 76 0 26 -35 55 -65 53
-11 -1 -101 -9 -200 -19z"/>
</g>
</svg>
