<?xml version="1.0" standalone="no"?>
<!DOCTYPE svg PUBLIC "-//W3C//DTD SVG 20010904//EN"
 "http://www.w3.org/TR/2001/REC-SVG-20010904/DTD/svg10.dtd">
<svg version="1.0" xmlns="http://www.w3.org/2000/svg"
 width="248.000000pt" height="248.000000pt" viewBox="0 0 248.000000 248.000000"
 preserveAspectRatio="xMidYMid meet">
<metadata>
Created by potrace 1.10, written by Peter Selinger 2001-2011
</metadata>
<g transform="translate(0.000000,248.000000) scale(0.100000,-0.100000)"
fill="#000000" stroke="none">
<path d="M1668 2363 c-8 -10 -34 -47 -58 -83 -50 -75 -90 -125 -177 -221 -63
-68 -76 -102 -51 -127 27 -27 62 -13 124 51 114 118 244 303 244 347 0 48 -51
68 -82 33z"/>
<path d="M792 2278 c-23 -23 -12 -63 32 -121 88 -117 184 -175 224 -135 27 27
13 56 -47 103 -33 25 -70 60 -82 78 -56 81 -97 105 -127 75z"/>
</g>
</svg>
