<?xml version="1.0" standalone="no"?>
<!DOCTYPE svg PUBLIC "-//W3C//DTD SVG 20010904//EN"
 "http://www.w3.org/TR/2001/REC-SVG-20010904/DTD/svg10.dtd">
<svg version="1.0" xmlns="http://www.w3.org/2000/svg"
 width="248.000000pt" height="248.000000pt" viewBox="0 0 248.000000 248.000000"
 preserveAspectRatio="xMidYMid meet">
<metadata>
Created by potrace 1.10, written by Peter Selinger 2001-2011
</metadata>
<g transform="translate(0.000000,248.000000) scale(0.100000,-0.100000)"
fill="#000000" stroke="none">
<path d="M666 2208 c-9 -12 -16 -29 -16 -38 -1 -29 -205 -415 -284 -535 -53
-81 -83 -130 -144 -233 -19 -32 -51 -80 -73 -109 -41 -54 -49 -92 -25 -113 40
-32 102 26 198 186 26 44 68 111 92 149 65 104 186 316 247 433 29 56 55 102
59 102 4 0 29 -33 56 -72 27 -40 63 -89 80 -108 17 -19 46 -57 64 -85 47 -69
111 -136 207 -216 99 -83 122 -95 152 -79 17 9 21 19 19 43 -2 24 -17 42 -68
84 -98 79 -186 170 -241 248 -27 39 -70 98 -96 132 -49 64 -96 130 -136 193
-28 44 -68 52 -91 18z"/>
<path d="M855 1655 c-63 -12 -268 -68 -320 -87 -43 -16 -65 -38 -65 -63 0 -49
35 -54 154 -20 32 9 60 15 62 13 1 -2 0 -50 -4 -107 l-7 -104 -40 -14 c-68
-24 -226 -63 -254 -63 -37 0 -71 -26 -71 -55 0 -27 34 -55 67 -55 28 0 248 57
274 70 10 6 20 10 23 10 3 0 6 -157 8 -349 3 -327 4 -350 22 -370 21 -23 56
-27 74 -9 9 9 12 108 12 383 l0 371 113 29 c128 32 163 47 172 75 10 30 -12
60 -43 60 -15 0 -76 -13 -136 -30 l-109 -29 5 110 c3 60 8 112 10 115 3 2 31
9 64 15 73 13 104 32 104 63 0 45 -34 57 -115 41z"/>
</g>
</svg>
