<?xml version="1.0" standalone="no"?>
<!DOCTYPE svg PUBLIC "-//W3C//DTD SVG 20010904//EN"
 "http://www.w3.org/TR/2001/REC-SVG-20010904/DTD/svg10.dtd">
<svg version="1.0" xmlns="http://www.w3.org/2000/svg"
 width="248.000000pt" height="248.000000pt" viewBox="0 0 248.000000 248.000000"
 preserveAspectRatio="xMidYMid meet">
<metadata>
Created by potrace 1.10, written by Peter Selinger 2001-2011
</metadata>
<g transform="translate(0.000000,248.000000) scale(0.100000,-0.100000)"
fill="#000000" stroke="none">
<path d="M666 2208 c-9 -12 -16 -29 -16 -38 -1 -29 -205 -415 -284 -535 -53
-81 -83 -130 -144 -233 -19 -32 -51 -80 -73 -109 -41 -54 -49 -92 -25 -113 40
-32 102 26 198 186 26 44 68 111 92 149 75 119 190 323 266 470 74 144 88 197
61 229 -19 23 -57 20 -75 -6z"/>
</g>
</svg>
