<?xml version="1.0" standalone="no"?>
<!DOCTYPE svg PUBLIC "-//W3C//DTD SVG 20010904//EN"
 "http://www.w3.org/TR/2001/REC-SVG-20010904/DTD/svg10.dtd">
<svg version="1.0" xmlns="http://www.w3.org/2000/svg"
 width="248.000000pt" height="248.000000pt" viewBox="0 0 248.000000 248.000000"
 preserveAspectRatio="xMidYMid meet">
<metadata>
Created by potrace 1.10, written by Peter Selinger 2001-2011
</metadata>
<g transform="translate(0.000000,248.000000) scale(0.100000,-0.100000)"
fill="#000000" stroke="none">
<path d="M666 2208 c-9 -12 -16 -29 -16 -38 -1 -29 -205 -415 -284 -535 -53
-81 -83 -130 -144 -233 -19 -32 -51 -80 -73 -109 -41 -54 -49 -92 -25 -113 40
-32 102 26 198 186 26 44 68 111 92 149 65 104 186 316 247 433 29 56 55 102
59 102 4 0 29 -33 56 -72 27 -40 63 -89 80 -108 17 -19 46 -57 64 -85 47 -69
111 -136 207 -216 99 -83 122 -95 152 -79 17 9 21 19 19 43 -2 24 -17 42 -68
84 -98 79 -186 170 -241 248 -27 39 -70 98 -96 132 -49 64 -96 130 -136 193
-28 44 -68 52 -91 18z"/>
<path d="M2025 1950 c-120 -26 -211 -49 -300 -75 -129 -38 -226 -63 -289 -74
-32 -6 -65 -16 -72 -22 -23 -19 -17 -57 11 -75 24 -16 31 -16 108 0 45 10 129
31 187 48 165 47 287 78 389 99 98 19 131 38 131 74 0 49 -34 54 -165 25z"/>
<path d="M855 1655 c-63 -12 -268 -68 -320 -87 -43 -16 -65 -38 -65 -63 0 -49
35 -54 154 -20 32 9 60 15 62 13 1 -2 0 -50 -4 -107 l-7 -104 -40 -14 c-68
-24 -226 -63 -254 -63 -37 0 -71 -26 -71 -55 0 -27 34 -55 67 -55 28 0 248 57
274 70 10 6 20 10 23 10 3 0 7 -156 9 -347 2 -192 6 -356 8 -367 3 -14 -12
-28 -61 -58 -71 -43 -194 -110 -275 -149 -41 -20 -46 -61 -11 -84 22 -14 31
-15 63 -5 21 7 49 20 63 30 14 9 54 31 90 50 73 37 244 138 307 181 23 16 54
34 69 39 47 18 162 101 167 120 7 26 -20 60 -47 60 -12 0 -44 -14 -72 -32 -27
-17 -82 -48 -121 -69 l-73 -38 0 348 0 347 113 29 c128 32 163 47 172 75 10
30 -12 60 -43 60 -15 0 -76 -13 -136 -30 l-109 -29 5 110 c3 60 8 112 10 115
3 2 31 9 64 15 73 13 104 32 104 63 0 45 -34 57 -115 41z"/>
<path d="M957 1072 c-10 -10 -17 -24 -17 -30 0 -7 -18 -60 -40 -118 -53 -141
-52 -184 5 -184 30 0 49 25 73 95 11 33 30 84 41 113 23 59 27 112 9 130 -18
18 -53 15 -71 -6z"/>
<path d="M352 848 c-21 -21 -13 -48 27 -96 21 -26 55 -75 75 -109 37 -62 67
-83 101 -70 33 13 28 53 -16 128 -77 133 -147 187 -187 147z"/>
</g>
</svg>
