<?xml version="1.0" standalone="no"?>
<!DOCTYPE svg PUBLIC "-//W3C//DTD SVG 20010904//EN"
 "http://www.w3.org/TR/2001/REC-SVG-20010904/DTD/svg10.dtd">
<svg version="1.0" xmlns="http://www.w3.org/2000/svg"
 width="248.000000pt" height="248.000000pt" viewBox="0 0 248.000000 248.000000"
 preserveAspectRatio="xMidYMid meet">
<metadata>
Created by potrace 1.10, written by Peter Selinger 2001-2011
</metadata>
<g transform="translate(0.000000,248.000000) scale(0.100000,-0.100000)"
fill="#000000" stroke="none">
<path d="M1886 2398 c-9 -12 -16 -43 -16 -68 0 -25 -4 -50 -8 -56 -7 -11 -110
-29 -222 -39 -36 -3 -132 -14 -215 -24 -82 -10 -153 -17 -156 -15 -3 2 -11 28
-18 57 -13 61 -38 90 -72 85 -37 -5 -45 -30 -31 -94 6 -32 10 -59 8 -61 -2 -2
-38 -8 -80 -12 -42 -5 -83 -14 -91 -21 -23 -19 -18 -57 10 -76 25 -16 59 -16
161 2 28 5 31 3 42 -33 19 -63 49 -103 76 -103 46 0 54 31 31 122 -9 33 -16
31 200 53 88 8 195 20 238 26 44 6 81 8 83 6 3 -2 -1 -25 -8 -50 -11 -41 -10
-48 7 -67 39 -43 83 -9 106 80 7 28 15 50 18 50 3 0 33 4 66 10 33 5 97 14
143 19 45 5 89 14 97 21 24 20 18 57 -11 76 -26 18 -73 15 -236 -12 l-37 -7 6
51 c4 39 2 58 -11 77 -21 32 -59 33 -80 3z"/>
<path d="M595 2309 c-27 -5 -88 -18 -135 -29 -47 -10 -101 -22 -121 -25 -21
-3 -43 -13 -50 -21 -10 -12 -13 -92 -13 -352 -1 -440 -42 -1140 -76 -1286 -5
-23 -10 -62 -10 -87 0 -26 -14 -113 -31 -195 -18 -82 -34 -164 -37 -182 -11
-78 74 -85 102 -8 15 42 58 269 71 371 8 61 18 146 24 190 5 44 13 120 16 168
6 78 9 89 28 97 28 11 247 54 251 49 2 -2 6 -160 10 -350 l6 -346 -25 5 c-60
11 -72 -46 -22 -114 67 -95 81 -108 111 -100 15 4 31 17 36 31 5 14 6 271 3
624 -4 424 -3 661 6 808 7 114 13 324 14 465 2 289 3 286 -69 293 -22 2 -61
-1 -89 -6z m51 -366 c-3 -148 -9 -305 -12 -350 l-6 -82 -57 -7 c-31 -3 -87
-12 -126 -19 -38 -7 -71 -12 -73 -11 -1 2 3 40 9 86 7 50 10 183 7 340 l-4
258 116 25 c63 14 123 26 134 26 18 1 19 -8 12 -266z m-30 -830 c-7 -7 -256
-56 -261 -51 -6 6 12 284 19 296 6 10 82 26 181 39 l60 8 3 -144 c1 -79 1
-146 -2 -148z"/>
<path d="M2115 1959 c-151 -13 -276 -28 -370 -43 -50 -8 -122 -17 -160 -21
-39 -4 -178 -22 -310 -41 -132 -19 -251 -34 -265 -34 -14 0 -36 -6 -50 -13
l-25 -13 -6 -419 c-6 -401 -14 -566 -38 -720 -6 -38 -18 -115 -26 -170 -8 -55
-26 -156 -40 -224 -14 -68 -25 -130 -25 -137 0 -35 65 -59 88 -31 26 31 98
443 122 697 6 58 15 135 20 173 6 37 10 222 10 410 l0 343 233 32 c204 29 341
47 627 83 41 5 130 14 198 19 140 11 176 23 180 61 6 49 -31 60 -163 48z"/>
<path d="M1600 1664 c-145 -25 -281 -45 -354 -53 -58 -6 -94 -14 -105 -25 -14
-15 -17 -73 -23 -529 -3 -282 -9 -582 -13 -667 -7 -172 0 -203 46 -208 56 -7
56 -8 75 605 l7 231 71 7 c39 4 89 10 111 15 22 4 75 11 118 15 l78 7 -7 -145
c-7 -142 -7 -145 15 -156 31 -17 61 -4 76 32 7 18 15 88 18 157 9 191 -11 226
-126 216 l-58 -6 7 193 c3 105 8 193 9 195 2 2 39 7 84 11 44 5 88 14 96 21
19 16 19 54 0 70 -16 13 -84 21 -125 14z m-171 -251 c-1 -65 -4 -152 -8 -193
l-6 -75 -60 -7 c-33 -4 -75 -9 -93 -12 l-32 -5 2 192 3 192 75 7 c41 5 79 10
85 12 33 14 35 6 34 -111z"/>
</g>
</svg>
