<?xml version="1.0" standalone="no"?>
<!DOCTYPE svg PUBLIC "-//W3C//DTD SVG 20010904//EN"
 "http://www.w3.org/TR/2001/REC-SVG-20010904/DTD/svg10.dtd">
<svg version="1.0" xmlns="http://www.w3.org/2000/svg"
 width="248.000000pt" height="248.000000pt" viewBox="0 0 248.000000 248.000000"
 preserveAspectRatio="xMidYMid meet">
<metadata>
Created by potrace 1.10, written by Peter Selinger 2001-2011
</metadata>
<g transform="translate(0.000000,248.000000) scale(0.100000,-0.100000)"
fill="#000000" stroke="none">
<path d="M595 2309 c-27 -5 -88 -18 -135 -29 -47 -10 -101 -22 -121 -25 -21
-3 -43 -13 -50 -21 -10 -12 -13 -92 -13 -352 -1 -440 -42 -1140 -76 -1286 -5
-23 -10 -62 -10 -87 0 -26 -14 -113 -31 -195 -18 -82 -34 -164 -37 -182 -11
-78 74 -85 102 -8 15 42 58 269 71 371 8 61 18 146 24 190 5 44 13 120 16 168
6 78 9 89 28 97 28 11 247 54 251 49 2 -2 6 -160 10 -350 l6 -346 -25 5 c-32
6 -55 -13 -55 -45 0 -38 103 -173 132 -173 8 0 23 6 34 14 19 14 19 30 15 658
-2 422 1 698 8 803 7 88 13 285 14 437 2 311 3 306 -69 313 -22 2 -61 -1 -89
-6z m50 -395 c-4 -163 -10 -320 -14 -348 l-6 -51 -45 -8 c-25 -4 -81 -13 -125
-21 -44 -8 -81 -13 -83 -12 -1 2 3 40 9 86 7 50 10 183 7 340 l-4 258 116 25
c63 14 123 26 134 26 18 1 18 -10 11 -295z m-29 -801 c-7 -7 -256 -56 -261
-51 -6 6 12 284 19 296 6 10 82 26 181 39 l60 8 3 -144 c1 -79 1 -146 -2 -148z"/>
</g>
</svg>
