<?xml version="1.0" standalone="no"?>
<!DOCTYPE svg PUBLIC "-//W3C//DTD SVG 20010904//EN"
 "http://www.w3.org/TR/2001/REC-SVG-20010904/DTD/svg10.dtd">
<svg version="1.0" xmlns="http://www.w3.org/2000/svg"
 width="248.000000pt" height="248.000000pt" viewBox="0 0 248.000000 248.000000"
 preserveAspectRatio="xMidYMid meet">
<metadata>
Created by potrace 1.10, written by Peter Selinger 2001-2011
</metadata>
<g transform="translate(0.000000,248.000000) scale(0.100000,-0.100000)"
fill="#000000" stroke="none">
<path d="M289 2224 c-10 -13 -13 -87 -14 -347 0 -435 -42 -1136 -75 -1281 -5
-23 -10 -62 -10 -87 0 -26 -14 -113 -31 -195 -18 -82 -34 -164 -37 -182 -11
-78 74 -85 102 -8 34 97 87 450 116 776 27 308 45 706 45 986 -1 269 -3 304
-18 327 -20 31 -57 36 -78 11z"/>
</g>
</svg>
