<?xml version="1.0" standalone="no"?>
<!DOCTYPE svg PUBLIC "-//W3C//DTD SVG 20010904//EN"
 "http://www.w3.org/TR/2001/REC-SVG-20010904/DTD/svg10.dtd">
<svg version="1.0" xmlns="http://www.w3.org/2000/svg"
 width="248.000000pt" height="248.000000pt" viewBox="0 0 248.000000 248.000000"
 preserveAspectRatio="xMidYMid meet">
<metadata>
Created by potrace 1.10, written by Peter Selinger 2001-2011
</metadata>
<g transform="translate(0.000000,248.000000) scale(0.100000,-0.100000)"
fill="#000000" stroke="none">
<path d="M595 2309 c-27 -5 -88 -18 -135 -29 -47 -10 -101 -22 -121 -25 -21
-3 -43 -13 -50 -21 -10 -12 -13 -92 -13 -352 -1 -440 -42 -1140 -76 -1286 -5
-23 -10 -62 -10 -87 0 -26 -14 -113 -31 -195 -18 -82 -34 -164 -37 -182 -11
-78 74 -85 102 -8 34 97 87 450 116 776 26 298 45 706 45 971 l0 287 128 27
c71 15 131 24 134 21 4 -3 0 -174 -8 -379 -8 -215 -14 -614 -13 -948 l1 -576
-24 5 c-30 6 -53 -14 -53 -45 0 -38 103 -173 132 -173 8 0 23 6 34 14 19 14
19 30 15 658 -2 422 1 698 8 803 7 88 13 285 14 437 2 311 3 306 -69 313 -22
2 -61 -1 -89 -6z"/>
</g>
</svg>
