<?xml version="1.0" standalone="no"?>
<!DOCTYPE svg PUBLIC "-//W3C//DTD SVG 20010904//EN"
 "http://www.w3.org/TR/2001/REC-SVG-20010904/DTD/svg10.dtd">
<svg version="1.0" xmlns="http://www.w3.org/2000/svg"
 width="248.000000pt" height="248.000000pt" viewBox="0 0 248.000000 248.000000"
 preserveAspectRatio="xMidYMid meet">
<metadata>
Created by potrace 1.10, written by Peter Selinger 2001-2011
</metadata>
<g transform="translate(0.000000,248.000000) scale(0.100000,-0.100000)"
fill="#000000" stroke="none">
<path d="M1562 2138 c-8 -8 -12 -64 -12 -184 0 -125 -3 -174 -12 -182 -14 -11
-275 -48 -283 -41 -3 3 4 30 14 60 53 151 48 234 -14 234 -34 0 -55 -31 -55
-81 0 -81 -119 -385 -192 -492 -32 -46 -34 -88 -7 -105 44 -28 90 22 169 184
l43 85 160 22 c89 12 162 20 164 18 2 -1 -2 -83 -8 -182 -12 -198 -14 -204
-79 -204 -20 0 -85 -6 -146 -14 -60 -8 -170 -20 -244 -26 -74 -6 -146 -17
-160 -23 -36 -17 -39 -61 -7 -82 23 -15 38 -15 184 0 87 9 169 18 183 20 14 3
68 10 120 15 52 5 163 16 245 25 227 24 340 35 447 44 53 4 104 14 113 21 18
15 20 54 2 68 -33 28 -66 27 -420 -14 -70 -8 -131 -13 -135 -10 -7 4 2 220 14
333 5 51 6 52 42 58 57 9 202 36 255 47 55 12 77 40 58 75 -15 30 -35 31 -151
11 -58 -10 -125 -21 -150 -24 l-45 -6 0 160 c0 143 -2 162 -19 181 -21 23 -56
27 -74 9z"/>
<path d="M313 1859 c-20 -20 -15 -57 10 -73 12 -8 42 -20 67 -26 25 -7 61 -20
81 -30 61 -31 168 -62 194 -56 56 14 34 85 -32 106 -21 7 -75 28 -121 47 -92
39 -179 53 -199 32z"/>
<path d="M540 1322 c-19 -10 -55 -30 -80 -44 -25 -14 -90 -43 -145 -64 -112
-42 -135 -58 -135 -89 0 -59 46 -58 200 4 90 36 120 45 114 32 -36 -84 -44
-149 -23 -195 7 -14 54 -59 105 -102 107 -88 107 -85 13 -148 -25 -17 -79 -54
-120 -82 -96 -67 -177 -107 -269 -134 -93 -28 -128 -57 -114 -97 13 -38 45
-40 152 -9 168 49 433 45 642 -9 71 -18 244 -58 395 -91 66 -14 200 -43 298
-64 98 -21 221 -44 275 -50 53 -6 139 -17 190 -25 85 -13 101 -12 195 6 56 11
105 25 109 32 12 18 10 51 -4 65 -15 15 -81 15 -147 1 -41 -8 -86 -6 -228 11
-152 18 -539 90 -562 104 -4 3 -75 18 -159 35 -84 17 -180 38 -215 47 -34 8
-87 22 -117 29 -59 16 -292 53 -352 57 l-38 3 78 52 c42 28 103 75 135 103 47
43 57 57 57 84 0 40 -11 55 -79 106 -30 22 -76 60 -103 86 -44 41 -48 50 -43
78 4 17 22 54 40 81 48 73 65 110 65 144 0 59 -59 78 -130 43z"/>
<path d="M1760 1079 c-52 -4 -144 -13 -205 -19 -60 -6 -168 -13 -240 -16 -150
-7 -175 -17 -175 -67 0 -17 9 -97 20 -177 10 -80 23 -180 29 -224 5 -43 16
-85 24 -93 12 -12 62 -13 340 -6 309 8 328 9 347 28 27 28 46 131 61 335 10
144 10 170 -4 201 -11 28 -22 38 -47 43 -18 3 -38 5 -44 4 -6 0 -54 -5 -106
-9z m96 -221 c-7 -110 -23 -259 -29 -264 -1 -1 -122 -4 -269 -8 l-266 -7 -7
78 c-4 43 -13 112 -21 153 -23 122 -26 116 64 123 42 4 127 12 187 18 61 6
155 14 210 18 55 4 108 9 119 9 18 2 18 -4 12 -120z"/>
</g>
</svg>
