<?xml version="1.0" standalone="no"?>
<!DOCTYPE svg PUBLIC "-//W3C//DTD SVG 20010904//EN"
 "http://www.w3.org/TR/2001/REC-SVG-20010904/DTD/svg10.dtd">
<svg version="1.0" xmlns="http://www.w3.org/2000/svg"
 width="248.000000pt" height="248.000000pt" viewBox="0 0 248.000000 248.000000"
 preserveAspectRatio="xMidYMid meet">
<metadata>
Created by potrace 1.10, written by Peter Selinger 2001-2011
</metadata>
<g transform="translate(0.000000,248.000000) scale(0.100000,-0.100000)"
fill="#000000" stroke="none">
<path d="M1652 2387 c-6 -7 -22 -47 -35 -88 l-23 -74 -44 -7 c-25 -4 -139 -16
-255 -28 -115 -11 -244 -24 -285 -29 -41 -4 -76 -7 -78 -5 -2 1 -10 30 -18 65
-16 71 -36 99 -69 99 -46 0 -51 -23 -30 -141 l7 -36 -176 -10 c-198 -13 -230
-23 -224 -71 5 -42 37 -50 163 -41 276 19 265 19 271 -10 33 -140 63 -184 111
-162 22 10 24 16 21 54 -3 23 -11 63 -18 89 -8 26 -12 50 -9 52 6 6 225 33
339 41 47 3 117 11 156 17 105 15 108 14 77 -52 -31 -67 -24 -103 21 -108 39
-5 57 16 91 103 21 55 34 77 49 80 33 8 352 45 383 45 85 0 139 42 114 89 -9
17 -21 21 -59 21 -50 0 -375 -37 -404 -46 -22 -7 -22 -5 -2 62 14 50 14 57 0
79 -18 27 -57 33 -74 12z"/>
<path d="M1775 1815 c-93 -13 -237 -31 -320 -39 -82 -9 -231 -27 -330 -41
-261 -37 -437 -55 -540 -55 -49 0 -97 -5 -105 -10 -12 -7 -15 -47 -16 -227 -1
-203 -3 -233 -38 -437 -21 -121 -53 -269 -72 -330 -19 -61 -43 -140 -54 -176
-10 -36 -44 -119 -75 -185 -61 -128 -64 -160 -20 -171 14 -3 32 -4 40 0 20 7
124 224 151 316 12 41 38 125 57 185 30 95 58 233 98 475 17 109 30 306 24
376 l-6 70 148 13 c81 7 202 21 268 31 66 10 147 21 180 25 33 4 85 11 115 16
30 5 102 13 160 18 58 5 193 21 300 35 107 13 219 27 249 31 62 6 81 18 81 49
-1 60 -52 65 -295 31z"/>
<path d="M1105 1434 c-82 -13 -208 -31 -279 -39 -82 -9 -135 -20 -144 -29 -11
-11 -15 -56 -18 -203 -3 -173 -17 -492 -29 -673 -6 -92 7 -125 50 -125 42 0
52 28 60 164 3 64 10 188 15 276 5 88 11 231 12 317 l2 158 30 5 c17 2 136 20
264 39 239 35 272 45 272 86 0 24 -32 50 -61 49 -13 -1 -91 -12 -174 -25z"/>
</g>
</svg>
