<?xml version="1.0" standalone="no"?>
<!DOCTYPE svg PUBLIC "-//W3C//DTD SVG 20010904//EN"
 "http://www.w3.org/TR/2001/REC-SVG-20010904/DTD/svg10.dtd">
<svg version="1.0" xmlns="http://www.w3.org/2000/svg"
 width="248.000000pt" height="248.000000pt" viewBox="0 0 248.000000 248.000000"
 preserveAspectRatio="xMidYMid meet">
<metadata>
Created by potrace 1.10, written by Peter Selinger 2001-2011
</metadata>
<g transform="translate(0.000000,248.000000) scale(0.100000,-0.100000)"
fill="#000000" stroke="none">
<path d="M1652 2387 c-6 -7 -22 -47 -35 -88 l-23 -74 -44 -7 c-25 -4 -139 -16
-255 -28 -115 -11 -244 -24 -285 -29 -41 -4 -76 -7 -78 -5 -2 1 -10 30 -18 65
-16 71 -36 99 -69 99 -46 0 -51 -23 -30 -141 l7 -36 -176 -10 c-198 -13 -230
-23 -224 -71 5 -42 37 -50 163 -41 276 19 265 19 271 -10 33 -140 63 -184 111
-162 22 10 24 16 21 54 -3 23 -11 63 -18 89 -8 26 -12 50 -9 52 6 6 225 33
339 41 47 3 117 11 156 17 105 15 108 14 77 -52 -31 -67 -24 -103 21 -108 39
-5 57 16 91 103 21 55 34 77 49 80 33 8 352 45 383 45 85 0 139 42 114 89 -9
17 -21 21 -59 21 -50 0 -375 -37 -404 -46 -22 -7 -22 -5 -2 62 14 50 14 57 0
79 -18 27 -57 33 -74 12z"/>
<path d="M2012 2038 c-27 -27 -12 -56 65 -127 48 -45 85 -71 99 -71 40 0 67
45 46 76 -4 6 -38 39 -77 72 -70 63 -107 76 -133 50z"/>
<path d="M1349 1963 c-10 -12 -14 -43 -12 -110 1 -81 -1 -93 -15 -93 -9 0 -98
-12 -197 -25 -265 -37 -439 -55 -540 -55 -49 0 -97 -5 -105 -10 -12 -7 -15
-47 -16 -227 -1 -203 -3 -233 -38 -437 -21 -121 -53 -269 -72 -330 -19 -61
-43 -140 -54 -176 -10 -36 -44 -119 -75 -185 -61 -128 -64 -160 -20 -171 14
-3 32 -4 40 0 20 7 124 224 151 316 12 41 38 125 57 185 30 95 58 233 98 475
17 109 30 306 24 376 l-6 70 148 13 c81 7 191 20 243 28 52 8 145 21 205 28
61 8 131 17 156 21 l46 6 17 -63 c26 -94 154 -458 240 -684 25 -66 46 -127 46
-136 0 -9 -19 -42 -42 -75 -22 -32 -55 -88 -71 -124 -38 -81 -153 -252 -213
-316 -59 -63 -67 -79 -54 -103 26 -50 82 -29 155 59 57 69 169 239 194 295 23
54 82 145 93 145 3 0 25 -39 48 -86 22 -48 53 -105 69 -128 15 -23 49 -75 76
-116 93 -145 172 -230 215 -230 31 0 70 30 70 54 0 8 25 49 55 91 81 112 100
152 86 182 -9 19 -17 24 -43 21 -27 -3 -40 -15 -87 -84 -31 -44 -64 -91 -74
-105 l-18 -24 -34 40 c-37 41 -71 90 -147 210 -47 74 -148 278 -148 298 0 7
21 48 46 92 96 166 174 318 174 339 0 48 -52 62 -87 24 -11 -13 -43 -66 -70
-118 -76 -144 -116 -211 -124 -202 -17 17 -202 529 -242 669 l-24 81 71 11
c39 5 150 19 246 31 236 28 261 32 273 51 17 26 0 68 -30 75 -15 4 -124 -5
-242 -21 -295 -38 -331 -41 -342 -24 -5 8 -9 43 -9 79 0 74 -18 110 -54 110
-13 0 -30 -8 -37 -17z"/>
<path d="M1105 1434 c-82 -13 -208 -31 -279 -39 -82 -9 -135 -20 -144 -29 -11
-11 -15 -56 -18 -203 -3 -173 -17 -492 -29 -673 -4 -51 -1 -83 8 -100 15 -28
-20 -27 345 -11 220 10 252 19 252 65 0 41 -24 51 -116 48 l-84 -3 0 79 c0 44
3 100 6 126 l7 46 72 0 c64 0 74 3 96 26 21 23 24 37 32 157 11 182 11 178 -6
194 -16 16 -79 19 -149 8 l-36 -6 1 101 c2 92 4 101 22 105 11 2 64 11 118 19
101 15 137 32 137 66 0 24 -32 50 -61 49 -13 -1 -91 -12 -174 -25z m-145 -173
c0 -21 -3 -65 -6 -98 l-7 -61 -61 -7 c-33 -3 -74 -9 -89 -12 l-28 -6 3 102 3
101 30 5 c69 11 82 12 118 14 37 1 37 1 37 -38z m186 -257 c-3 -9 -6 -51 -6
-95 l0 -79 -67 1 c-38 0 -122 -4 -188 -10 -65 -6 -121 -9 -123 -6 -2 2 -1 37
3 79 l7 75 52 10 c86 18 239 39 285 40 35 1 42 -2 37 -15z m-213 -396 c-3 -62
-8 -116 -12 -120 -3 -3 -45 -8 -92 -10 l-86 -3 5 110 c2 61 6 112 9 115 2 2
41 7 86 11 45 3 85 7 89 7 4 1 4 -49 1 -110z"/>
</g>
</svg>
