<?xml version="1.0" standalone="no"?>
<!DOCTYPE svg PUBLIC "-//W3C//DTD SVG 20010904//EN"
 "http://www.w3.org/TR/2001/REC-SVG-20010904/DTD/svg10.dtd">
<svg version="1.0" xmlns="http://www.w3.org/2000/svg"
 width="248.000000pt" height="248.000000pt" viewBox="0 0 248.000000 248.000000"
 preserveAspectRatio="xMidYMid meet">
<metadata>
Created by potrace 1.10, written by Peter Selinger 2001-2011
</metadata>
<g transform="translate(0.000000,248.000000) scale(0.100000,-0.100000)"
fill="#000000" stroke="none">
<path d="M1652 2387 c-6 -7 -22 -47 -35 -88 l-23 -74 -44 -7 c-25 -4 -139 -16
-255 -28 -115 -11 -244 -24 -285 -29 -41 -4 -76 -7 -78 -5 -2 1 -10 30 -18 65
-16 71 -36 99 -69 99 -46 0 -51 -23 -30 -141 l7 -36 -176 -10 c-198 -13 -230
-23 -224 -71 5 -42 37 -50 163 -41 276 19 265 19 271 -10 33 -140 63 -184 111
-162 22 10 24 16 21 54 -3 23 -11 63 -18 89 -8 26 -12 50 -9 52 6 6 225 33
339 41 47 3 117 11 156 17 105 15 108 14 77 -52 -31 -67 -24 -103 21 -108 39
-5 57 16 91 103 21 55 34 77 49 80 33 8 352 45 383 45 85 0 139 42 114 89 -9
17 -21 21 -59 21 -50 0 -375 -37 -404 -46 -22 -7 -22 -5 -2 62 14 50 14 57 0
79 -18 27 -57 33 -74 12z"/>
<path d="M479 1664 c-10 -12 -13 -68 -15 -228 -1 -194 -4 -228 -38 -430 -21
-121 -53 -269 -72 -330 -19 -61 -43 -140 -54 -176 -10 -36 -44 -119 -75 -185
-61 -128 -64 -160 -20 -171 14 -3 32 -4 40 0 20 7 124 224 151 316 12 41 38
125 57 185 30 96 59 236 98 480 31 192 33 485 3 533 -17 26 -56 29 -75 6z"/>
</g>
</svg>
