<?xml version="1.0" standalone="no"?>
<!DOCTYPE svg PUBLIC "-//W3C//DTD SVG 20010904//EN"
 "http://www.w3.org/TR/2001/REC-SVG-20010904/DTD/svg10.dtd">
<svg version="1.0" xmlns="http://www.w3.org/2000/svg"
 width="248.000000pt" height="248.000000pt" viewBox="0 0 248.000000 248.000000"
 preserveAspectRatio="xMidYMid meet">
<metadata>
Created by potrace 1.10, written by Peter Selinger 2001-2011
</metadata>
<g transform="translate(0.000000,248.000000) scale(0.100000,-0.100000)"
fill="#000000" stroke="none">
<path d="M432 2158 c-9 -9 -12 -77 -12 -242 0 -127 -4 -236 -8 -243 -4 -7 -28
-17 -53 -22 -26 -6 -59 -16 -75 -22 -16 -6 -56 -15 -89 -19 -82 -12 -107 -48
-64 -91 24 -24 71 -20 192 17 43 13 83 21 89 18 6 -4 7 -87 4 -233 -10 -378
-10 -393 10 -408 25 -18 38 -16 59 7 17 18 19 48 22 333 2 171 6 317 8 324 2
6 23 14 47 18 62 11 198 53 215 67 22 18 12 61 -18 75 -23 11 -37 9 -103 -12
-42 -14 -91 -26 -109 -28 l-32 -2 -3 224 c-1 145 -6 229 -13 238 -14 16 -51
17 -67 1z"/>
</g>
</svg>
