<?xml version="1.0" standalone="no"?>
<!DOCTYPE svg PUBLIC "-//W3C//DTD SVG 20010904//EN"
 "http://www.w3.org/TR/2001/REC-SVG-20010904/DTD/svg10.dtd">
<svg version="1.0" xmlns="http://www.w3.org/2000/svg"
 width="248.000000pt" height="248.000000pt" viewBox="0 0 248.000000 248.000000"
 preserveAspectRatio="xMidYMid meet">
<metadata>
Created by potrace 1.10, written by Peter Selinger 2001-2011
</metadata>
<g transform="translate(0.000000,248.000000) scale(0.100000,-0.100000)"
fill="#000000" stroke="none">
<path d="M1858 2293 c-62 -85 -154 -191 -214 -248 -55 -52 -68 -87 -42 -113
31 -31 61 -14 156 85 174 181 238 283 200 321 -27 27 -57 13 -100 -45z"/>
<path d="M1062 2238 c-18 -18 -15 -43 12 -96 13 -26 41 -85 62 -132 44 -100
60 -120 89 -120 28 0 45 18 45 47 0 31 -105 261 -133 291 -22 24 -56 29 -75
10z"/>
<path d="M432 2158 c-9 -9 -12 -77 -12 -242 0 -127 -4 -236 -8 -243 -4 -7 -28
-17 -53 -22 -26 -6 -59 -16 -75 -22 -16 -6 -56 -15 -89 -19 -82 -12 -107 -48
-64 -91 24 -24 71 -20 192 17 43 13 83 21 89 18 6 -4 7 -87 3 -233 -3 -124 -6
-242 -5 -261 1 -19 -2 -56 -5 -81 -6 -44 -10 -48 -136 -149 -179 -142 -229
-190 -229 -221 0 -14 5 -30 12 -37 24 -24 58 -12 117 42 33 30 124 107 203
170 345 280 380 312 371 346 -7 26 -36 42 -60 33 -10 -4 -50 -33 -90 -65 -39
-32 -75 -58 -80 -58 -8 0 -6 513 2 537 2 6 23 14 47 18 62 11 198 53 215 67
22 18 12 61 -18 75 -23 11 -37 9 -103 -12 -42 -14 -91 -26 -109 -28 l-32 -2
-3 224 c-1 145 -6 229 -13 238 -14 16 -51 17 -67 1z"/>
</g>
</svg>
