<?xml version="1.0" standalone="no"?>
<!DOCTYPE svg PUBLIC "-//W3C//DTD SVG 20010904//EN"
 "http://www.w3.org/TR/2001/REC-SVG-20010904/DTD/svg10.dtd">
<svg version="1.0" xmlns="http://www.w3.org/2000/svg"
 width="248.000000pt" height="248.000000pt" viewBox="0 0 248.000000 248.000000"
 preserveAspectRatio="xMidYMid meet">
<metadata>
Created by potrace 1.10, written by Peter Selinger 2001-2011
</metadata>
<g transform="translate(0.000000,248.000000) scale(0.100000,-0.100000)"
fill="#000000" stroke="none">
<path d="M1858 2293 c-62 -85 -154 -191 -214 -248 -55 -52 -68 -87 -42 -113
31 -31 61 -14 156 85 174 181 238 283 200 321 -27 27 -57 13 -100 -45z"/>
<path d="M1062 2238 c-18 -18 -15 -43 12 -96 13 -26 41 -85 62 -132 44 -100
60 -120 89 -120 28 0 45 18 45 47 0 31 -105 261 -133 291 -22 24 -56 29 -75
10z"/>
<path d="M432 2158 c-9 -9 -12 -77 -12 -242 0 -127 -4 -236 -8 -243 -4 -7 -28
-17 -53 -22 -26 -6 -59 -16 -75 -22 -16 -6 -56 -15 -89 -19 -82 -12 -107 -48
-64 -91 24 -24 71 -20 192 17 43 13 83 21 89 18 6 -4 7 -87 3 -233 -3 -124 -6
-242 -5 -261 1 -19 -2 -56 -5 -81 -6 -44 -10 -48 -136 -149 -179 -142 -229
-190 -229 -221 0 -14 5 -30 12 -37 24 -24 58 -12 117 42 33 30 124 107 203
170 345 280 380 312 371 346 -7 26 -36 42 -60 33 -10 -4 -50 -33 -90 -65 -39
-32 -75 -58 -80 -58 -8 0 -6 513 2 537 2 6 23 14 47 18 62 11 198 53 215 67
22 18 12 61 -18 75 -23 11 -37 9 -103 -12 -42 -14 -91 -26 -109 -28 l-32 -2
-3 224 c-1 145 -6 229 -13 238 -14 16 -51 17 -67 1z"/>
<path d="M1580 1890 c-36 -4 -119 -13 -185 -20 -66 -6 -160 -17 -210 -25 -49
-8 -128 -19 -173 -26 -123 -17 -170 -66 -128 -132 24 -38 75 -292 96 -482 8
-74 14 -93 34 -114 l25 -24 148 16 c81 9 195 19 253 22 58 3 161 10 229 16 68
5 172 9 230 9 58 0 111 4 118 8 26 17 131 320 162 467 12 55 26 116 31 135 6
19 10 56 10 81 0 80 3 79 -306 78 -148 -1 -298 -5 -334 -9z m528 -88 c9 -7 7
-27 -9 -98 -12 -49 -23 -94 -25 -100 -2 -8 -36 -12 -98 -13 -53 -1 -167 -8
-253 -16 -87 -8 -168 -15 -180 -15 -22 0 -23 3 -23 104 0 73 4 107 13 113 36
23 543 45 575 25z m-686 -137 c-2 -55 -7 -103 -10 -106 -9 -8 -239 -38 -316
-41 l-60 -3 -22 95 c-12 52 -19 98 -16 102 4 3 63 14 132 24 69 9 148 21 175
24 28 4 66 7 85 6 l35 -1 -3 -100z m618 -178 c0 -27 -74 -233 -89 -248 -14
-15 -48 -18 -234 -21 l-218 -5 7 116 c4 64 9 119 13 122 3 4 107 15 231 25
299 25 290 25 290 11z m-632 -159 l-3 -123 -120 -12 c-66 -6 -138 -13 -160
-15 l-40 -3 -14 113 c-8 61 -12 114 -9 117 2 3 67 12 144 21 76 9 141 18 143
20 2 2 17 4 33 4 l29 0 -3 -122z"/>
<path d="M1345 944 c-227 -21 -262 -38 -235 -111 10 -28 15 -122 19 -363 l6
-325 28 -13 c22 -11 42 -11 100 -2 147 23 478 36 508 20 15 -9 28 -9 44 -2 19
9 25 23 34 79 19 121 40 295 51 418 6 66 15 155 21 198 18 120 23 117 -225
116 -111 -1 -268 -8 -351 -15z m467 -165 c-2 -48 -7 -102 -11 -120 l-7 -34
-79 -7 c-44 -4 -170 -11 -280 -17 -156 -8 -201 -8 -207 2 -4 6 -8 60 -8 118
l0 107 33 5 c17 3 102 11 187 18 85 6 157 13 159 15 3 3 52 3 110 2 l106 -3
-3 -86z m-26 -259 c3 0 3 -4 0 -8 -2 -4 -9 -61 -16 -127 -6 -66 -16 -122 -22
-126 -6 -4 -65 -8 -131 -8 -66 -1 -176 -6 -246 -11 -69 -5 -132 -10 -138 -10
-10 0 -13 31 -13 124 0 87 4 127 13 134 6 6 103 13 217 18 113 4 228 10 255
14 28 4 56 6 63 4 8 -2 16 -4 18 -4z"/>
</g>
</svg>
