<?xml version="1.0" standalone="no"?>
<!DOCTYPE svg PUBLIC "-//W3C//DTD SVG 20010904//EN"
 "http://www.w3.org/TR/2001/REC-SVG-20010904/DTD/svg10.dtd">
<svg version="1.0" xmlns="http://www.w3.org/2000/svg"
 width="248.000000pt" height="248.000000pt" viewBox="0 0 248.000000 248.000000"
 preserveAspectRatio="xMidYMid meet">
<metadata>
Created by potrace 1.10, written by Peter Selinger 2001-2011
</metadata>
<g transform="translate(0.000000,248.000000) scale(0.100000,-0.100000)"
fill="#000000" stroke="none">
<path d="M1295 2214 c-16 -2 -86 -9 -155 -15 -69 -6 -161 -17 -205 -25 -44 -8
-129 -19 -190 -24 -182 -18 -337 -45 -350 -63 -6 -9 -20 -114 -30 -234 -16
-180 -19 -300 -18 -697 1 -263 6 -542 12 -620 6 -77 13 -180 17 -228 6 -97 18
-121 59 -121 38 1 55 26 50 77 -32 302 -42 1351 -16 1609 8 75 15 137 16 137
1 0 40 6 86 14 46 8 138 20 204 26 66 6 142 16 170 21 216 41 775 54 1013 25
63 -8 115 -16 118 -18 2 -2 4 -69 4 -149 1 -79 6 -223 11 -319 5 -96 9 -260 9
-365 1 -226 -27 -931 -40 -994 -4 -25 -4 -54 0 -67 20 -52 93 -33 104 28 3 18
15 249 27 513 21 440 21 505 10 783 -7 167 -12 376 -12 465 1 125 -2 167 -12
182 -25 33 -235 55 -567 60 -157 2 -298 1 -315 -1z"/>
<path d="M732 1588 c-7 -7 -12 -21 -12 -33 0 -28 34 -126 68 -195 22 -44 32
-56 54 -58 19 -2 31 3 42 20 18 27 12 56 -21 123 -12 22 -24 54 -27 72 -15 66
-71 104 -104 71z"/>
</g>
</svg>
